<?xml version="1.0" encoding="UTF-8"?>
<svg id="Layer_1" data-name="Layer 1" xmlns="http://www.w3.org/2000/svg" xmlns:xlink="http://www.w3.org/1999/xlink" viewBox="0 0 2521 2911">
  <defs>
    <style>
      .cls-1 {
        fill: none;
      }

      .cls-2 {
        fill: #a9d5e0;
      }

      .cls-3 {
        fill: url(#linear-gradient-4);
      }

      .cls-4 {
        fill: url(#linear-gradient-3);
      }

      .cls-5 {
        fill: url(#linear-gradient-2);
      }

      .cls-6 {
        fill: url(#linear-gradient);
      }

      .cls-7 {
        fill: #eadfa4;
      }

      .cls-8 {
        fill: #2e295b;
      }

      .cls-9 {
        fill: #6bbed1;
      }

      .cls-10 {
        fill: #003c2c;
      }

      .cls-11 {
        fill: #bf9f60;
      }

      .cls-12 {
        opacity: .2;
      }

      .cls-13 {
        opacity: .1;
      }

      .cls-14 {
        fill: #a0642f;
      }

      .cls-15 {
        fill: #f9f5bb;
      }

      .cls-16 {
        fill: #115673;
      }

      .cls-17 {
        fill: #006838;
      }
    </style>
    <linearGradient id="linear-gradient" x1="1056.37" y1="-368.16" x2="1159.14" y2="-190.15" gradientTransform="translate(173.56 1115.85) rotate(-1.05) scale(1 -1)" gradientUnits="userSpaceOnUse">
      <stop offset="0" stop-color="#009444"/>
      <stop offset="1" stop-color="#007e3e"/>
    </linearGradient>
    <linearGradient id="linear-gradient-2" x1="1009.33" y1="-349.28" x2="1109.07" y2="-176.52" xlink:href="#linear-gradient"/>
    <linearGradient id="linear-gradient-3" x1="1016.54" y1="-357.56" x2="1065.37" y2="-273" xlink:href="#linear-gradient"/>
    <linearGradient id="linear-gradient-4" x1="1083.6" y1="1013.45" x2="1225.14" y2="768.29" gradientTransform="translate(98.53 455.33) rotate(-1.05)" xlink:href="#linear-gradient"/>
  </defs>
  <polygon class="cls-11" points="100.18 785.65 100.18 2125.37 1260.5 2795.05 2420.47 2125.37 2420.47 785.65 1260.5 115.98 100.18 785.65"/>
  <path class="cls-8" d="M1260.5,0L0,727.66v1455.32l1260.5,728.01,1260.5-727.66V727.66L1260.5,0ZM2420.47,2125.37l-1159.97,669.7L100.18,2125.37V785.65L1260.5,115.98l1159.97,669.7v1339.7Z"/>
  <g>
    <path class="cls-8" d="M949.89,2106.51l-3.13-27.2h-1.33c-12.05,16.95-35.23,32.12-66.02,32.12-43.7,0-66.02-30.77-66.02-62,0-52.18,46.39-80.73,129.8-80.28v-4.46c0-17.84-4.9-49.96-49.07-49.96-20.08,0-41.04,6.23-56.19,16.06l-8.92-25.87c17.84-11.6,43.7-19.17,70.92-19.17,66.02,0,82.06,45.06,82.06,88.31v80.73c0,18.72.89,37.03,3.57,51.73h-35.67v-.02ZM944.1,1996.32c-42.82-.89-91.44,6.7-91.44,48.63,0,25.42,16.95,37.47,37.03,37.47,28.11,0,45.94-17.84,52.18-36.11,1.33-4.02,2.24-8.47,2.24-12.49v-37.49h0Z"/>
    <path class="cls-8" d="M1231.34,1890.62c-.89,15.62-1.77,33.01-1.77,59.32v125.34c0,49.51-9.81,79.84-30.77,98.56-20.96,19.63-51.29,25.87-78.51,25.87s-54.42-6.23-71.81-17.84l9.81-29.88c14.26,8.92,36.58,16.95,63.34,16.95,40.13,0,69.57-20.96,69.57-75.38v-24.09h-.89c-12.05,20.08-35.23,36.14-68.68,36.14-53.53,0-91.89-45.5-91.89-105.26,0-73.14,47.72-114.62,97.23-114.62,37.47,0,57.99,19.63,67.35,37.47h.89l1.77-32.57h34.36ZM1190.77,1975.82c0-6.7-.44-12.49-2.24-17.84-7.14-22.74-26.31-41.48-54.86-41.48-37.47,0-64.22,31.68-64.22,81.61,0,42.37,21.41,77.6,63.78,77.6,24.09,0,45.94-15.17,54.42-40.15,2.24-6.7,3.13-14.26,3.13-20.96v-38.78Z"/>
    <path class="cls-8" d="M1475.33,2047.63c0,22.29.44,41.93,1.77,58.88h-34.79l-2.24-35.23h-.89c-10.25,17.39-33.01,40.15-71.37,40.15-33.9,0-74.5-18.72-74.5-94.55v-126.23h39.24v119.53c0,41.04,12.49,68.68,48.16,68.68,26.31,0,44.61-18.28,51.73-35.67,2.24-5.79,3.57-12.93,3.57-20.08v-132.46h39.24v156.97h.05Z"/>
    <path class="cls-8" d="M1659.99,2106.51l-3.13-27.2h-1.33c-12.05,16.95-35.23,32.12-66.02,32.12-43.7,0-66.02-30.77-66.02-62,0-52.18,46.39-80.73,129.8-80.28v-4.46c0-17.84-4.9-49.96-49.07-49.96-20.08,0-41.04,6.23-56.19,16.06l-8.92-25.87c17.84-11.6,43.7-19.17,70.92-19.17,66.02,0,82.06,45.06,82.06,88.31v80.73c0,18.72.89,37.03,3.57,51.73h-35.67v-.02ZM1654.2,1996.32c-42.82-.89-91.44,6.7-91.44,48.63,0,25.42,16.95,37.47,37.03,37.47,28.11,0,45.94-17.84,52.18-36.11,1.33-4.02,2.24-8.47,2.24-12.49v-37.49Z"/>
  </g>
  <g>
    <g>
      <g>
        <path class="cls-6" d="M1264.68,1479.77c-1.66.05-2.99-1.35-3.06-2.87h0c-2.47-130.9,20.73-176.02,40.64-190.92,12.7-9.59,23.65-6.26,24.07-6.16,4.86,1.42,2.4,2.17,2.01,3.74-.47,1.61-2.17,2.4-3.74,2.01-.28-.07-8.68-2.38-18.98,5.39-11,8.43-19.87,24.77-26.31,48.81-8.75,32.8-12.75,78.95-11.67,137.1-.05,1.49-1.28,2.85-2.96,2.9h0Z"/>
        <path class="cls-5" d="M1250.37,1480.05c-1.66.05-2.99-1.35-3.06-2.87h0c-1.42-79.82-11.46-142.64-19.47-193.02-2.38-14.99-4.67-29.2-6.42-42.16-.28-1.66.91-3.08,2.57-3.36s3.08.91,3.36,2.57c1.7,12.86,3.99,27.08,6.37,42.07,8.1,50.57,18.14,113.62,19.61,193.9.02,1.42-1.31,2.82-2.96,2.87h0Z"/>
        <path class="cls-4" d="M1243.18,1480.14c-1.66.05-2.99-1.35-3.06-2.87h0c-2.29-123.17-41.88-124.94-42.26-124.94-1.59-.02-2.99-1.35-2.96-2.92-.05-1.66-4.86-2.87,2.92-2.96,1.89-.05,45.92.63,48.33,130.83.09,1.52-1.28,2.85-2.97,2.87h0Z"/>
        <path class="cls-3" d="M1257.51,1479.86c-1.66.05-2.99-1.35-3.06-2.87h0c-2.17-122.98,1.07-214.1,9.6-263.54,5.95-34.85,14.08-43.02,17.65-43.12,1.66-.05,1.84,4.09,1.89,5.74.02,1.45-.96,2.64-2.31,2.96-1.89,1.26-25.8,22.18-20.82,297.86.09,1.61-1.28,2.92-2.94,2.96h0Z"/>
      </g>
      <g>
        <path class="cls-17" d="M1280.55,1176.07c-.05-1.66.02-3.39.12-5.02.09-1.63.35-3.22.61-4.83.3-1.52.68-3.08,1.17-4.69.44-1.47,1.03-2.92,1.7-4.41.63-1.35,1.45-2.8,2.29-4.04.91-1.28,1.84-2.57,2.87-3.67,2.17-2.4,4.86-4.37,7.77-5.77,1.56-.82,3.22-1.47,4.86-1.96,1.87-.51,3.69-.89,5.58-1.19,2.1-.3,4.25-.37,6.33-.3,2.38.14,4.81.37,7.12.79,2.68.44,5.32,1.03,7.89,1.89,2.8.84,5.72,1.87,8.73,3.08,2.05.82,4.18,1.7,6.35,2.71,2.17.98,4.3,2.12,6.42,3.24,2.12,1.12,4.32,2.36,6.56,3.67,2.24,1.31,4.39,2.68,6.68,4.06,2.19,1.45,4.41,2.89,6.65,4.44,2.26,1.54,4.46,2.99,6.68,4.67,2.26,1.54,4.48,3.22,6.65,4.81,2.22,1.68,4.39,3.27,6.61,4.95s4.39,3.27,6.61,4.95c2.22,1.68,4.3,3.34,6.47,4.93s4.25,3.24,6.33,4.88c2.08,1.66,4.2,3.15,6.28,4.81,2.03,1.56,4.06,3.13,6.02,4.6,1.96,1.47,3.95,2.94,5.86,4.32,1.91,1.38,3.83,2.75,5.6,4.11,1.87,1.28,3.64,2.64,5.37,3.9s3.48,2.38,5.16,3.55c1.68,1.17,3.25,2.17,4.86,3.24,1.56.98,3.03,2.03,4.51,2.85,1.42.96,2.78,1.82,4.11,2.59,1.31.77,2.54,1.61,3.76,2.22,1.17.75,2.24,1.31,3.36,1.96,1.07.56,1.98,1.1,2.92,1.63.86.44,1.66.93,2.38,1.35s1.4.72,1.94,1c.54.28,1.07.56,1.4.72.33.16.68.33.86.44s.33.16.33.16c0,0-.19.12-.44.26-.26.16-.7.42-1.24.75-.54.33-1.21.61-2.01,1.1-.79.49-1.66.86-2.68,1.38-1.03.49-2.15,1.05-3.41,1.56-1.26.51-2.61,1.1-4.11,1.61-1.49.54-2.99,1.07-4.69,1.61-1.63.49-3.36,1.05-5.21,1.56-1.77.47-3.69.89-5.7,1.38s-4.04.72-6.14,1.03-4.27.51-6.54.79c-2.31.19-4.53.3-6.89.4s-4.76.09-7.24,0-4.93-.16-7.45-.35c-2.52-.16-5.09-.44-7.73-.79-2.64-.35-5.25-.7-7.84-1.19-2.59-.49-5.28-.93-8.01-1.47-2.64-.58-5.37-1.12-8.08-1.77-2.71-.68-5.39-1.33-8.05-2.15-2.66-.82-5.42-1.56-8.08-2.38-2.66-.82-5.37-1.7-7.96-2.57-2.57-.86-5.3-1.77-7.82-2.78-2.52-1-5.16-1.96-7.7-2.96-2.87-1.17-5.6-2.29-8.19-3.39-2.59-1.1-5.09-2.24-7.54-3.31-2.36-1.12-4.67-2.15-6.79-3.27-2.22-1.07-4.2-2.17-6.14-3.17-1.98-1.1-3.83-2.15-5.46-3.24-1.75-1.12-3.39-2.19-4.9-3.34-1.52-1.14-2.92-2.24-4.3-3.34-1.31-1.14-2.59-2.31-3.67-3.48s-2.12-2.33-3.17-3.64c-.98-1.21-1.87-2.5-2.66-3.83s-1.47-2.61-2.17-4.02c-.56-1.35-1.19-2.78-1.68-4.18-.49-1.4-.86-2.85-1.17-4.37s-.56-2.92-.68-4.55c-.09-1.33-.16-2.85-.21-4.53Z"/>
        <path class="cls-17" d="M1197.96,1349.27c.91,1.52,1.63,3.13,2.36,4.74.68,1.52,1.17,3.15,1.59,4.83.35,1.59.63,3.24.7,4.76.16,3.29-.33,6.49-1.54,9.5-.7,1.63-1.47,3.17-2.38,4.69-1.07,1.61-2.31,3.2-3.64,4.6-1.54,1.66-3.2,3.13-4.9,4.51-1.87,1.49-3.81,2.89-5.91,4.04-2.12,1.28-4.37,2.38-6.65,3.41-2.29,1-4.62,1.94-7.03,2.78s-4.81,1.45-7.21,2.05-4.79,1.07-7.21,1.45-4.69.65-6.98.82c-2.31.19-4.39.35-6.33.3-1.96-.02-3.85.02-5.58-.02-1.73-.05-3.13-.16-4.39-.26s-2.15-.16-2.8-.23c-.65-.09-1.03-.09-1.03-.09,0,0,.07-.28.35-.82s.54-1.31.93-2.26.98-2.17,1.49-3.55c.63-1.35,1.26-2.94,2.05-4.62s1.56-3.6,2.5-5.49c.91-1.89,1.91-4.04,2.89-6.21.98-2.17,2.08-4.39,3.25-6.65s2.33-4.55,3.6-6.86,2.57-4.58,3.88-6.79c1.31-2.24,2.73-4.3,4.23-6.42,1.38-1.91,2.94-3.95,4.58-5.65,1.54-1.66,3.13-3.22,4.93-4.65,1.96-1.54,4.04-2.92,6.19-3.97,1.89-.89,3.78-1.54,5.88-1.84,1.8-.23,3.6-.23,5.49.07,1.75.28,3.41.84,5,1.7,1.59.84,3.15,1.84,4.46,2.99,1.49,1.28,2.8,2.66,3.95,4.16,1.14,1.59,2.24,3.22,3.32,5Z"/>
        <path class="cls-17" d="M1219.53,1157.98c1.66,1.54,3.22,3.13,4.79,4.74s3.03,3.24,4.46,4.81c1.47,1.66,2.8,3.27,4.13,4.88s2.57,3.27,3.92,4.9c1.24,1.66,2.5,3.34,3.6,4.97s2.17,3.41,3.17,5.09,1.94,3.43,2.8,5.07c.86,1.66,1.7,3.43,2.5,5.14.79,1.7,1.42,3.36,2.03,5.18.63,1.66,1.1,3.43,1.66,5.16.47,1.77.86,3.46,1.19,5.21.33,1.73.51,3.43.68,5.14.19,1.7.28,3.46.21,5.18-.05,1.73-.09,3.43-.3,5.14-.19,1.68-.47,3.43-.75,5.16-.37,1.8-.84,3.41-1.35,5.16-.51,1.75-1.21,3.39-1.87,5.11-.79,1.68-1.59,3.39-2.52,5.02-.93,1.66-1.96,3.36-3.13,5.02-1.17,1.68-2.33,3.34-3.74,5.02-1.31,1.63-2.85,3.29-4.39,4.95-1.52,1.52-3.01,3.01-4.67,4.51-1.66,1.47-3.34,2.87-5.18,4.23s-3.69,2.71-5.58,3.97c-1.89,1.26-3.95,2.5-6.02,3.62-2.03,1.24-4.18,2.29-6.28,3.41-2.15,1.05-4.39,2.15-6.58,3.1-2.29,1-4.48,1.98-6.82,2.89-2.33.93-4.69,1.84-7.07,2.68-2.4.84-4.79,1.68-7.24,2.43-2.45.75-4.9,1.49-7.35,2.24s-4.95,1.4-7.45,2.08c-2.5.65-4.93,1.26-7.47,1.84-2.4.61-4.97,1.19-7.42,1.7-2.47.51-4.93,1.03-7.31,1.49-2.47.51-4.9.89-7.28,1.35s-4.81.84-7.14,1.17c-2.33.33-4.62.72-6.89,1s-4.46.63-6.7.89c-2.17.21-4.27.51-6.4.82-2.03.26-4.11.42-6.12.68-1.94.19-3.88.4-5.72.54s-3.55.33-5.3.42c-1.7.19-3.32.3-4.86.37-1.52.07-2.99.23-4.3.28-1.38.12-2.59.12-3.74.21-1.14.09-2.22.12-3.2.12-.93.07-1.75.09-2.59.12-.7.05-1.38.12-1.89.05-.47.05-.93.07-1.21,0-.23.02-.37-.02-.37-.02,0,0,.05-.14.02-.37s0-.61,0-1.21.05-1.12-.05-1.89c.02-.75.02-1.59.02-2.54.02-.98-.02-2.03.02-3.15,0-1.21.09-2.47.12-3.81.02-1.35.09-2.85.16-4.34s.16-3.13.23-4.86.19-3.5.28-5.37.16-3.74.3-5.74c.12-2.01.23-4.02.44-6.07s.37-4.2.61-6.4c.26-2.19.44-4.48.68-6.7.19-2.29.54-4.55.75-6.98.23-2.43.65-4.74.93-7.07s.68-4.88,1.05-7.28.77-4.93,1.24-7.38.86-5,1.4-7.49,1-4.95,1.63-7.52,1.1-5,1.77-7.47,1.24-4.97,1.98-7.35,1.42-4.86,2.26-7.28,1.56-4.81,2.45-7.17c.89-2.33,1.77-4.69,2.71-6.93s1.87-4.51,2.96-6.72c1.07-2.22,2.08-4.39,3.1-6.47,1.14-2.12,2.24-4.13,3.48-6.07,1.24-1.96,2.47-3.9,3.69-5.72,1.28-1.87,2.64-3.64,4.04-5.32s2.8-3.39,4.3-4.88c1.54-1.66,3.2-3.13,4.74-4.55,1.56-1.42,3.22-2.66,4.81-3.85,1.59-1.19,3.2-2.29,4.9-3.32s3.34-1.89,4.95-2.61,3.32-1.52,5.04-2.08c1.66-.63,3.36-1.05,5.14-1.52,1.68-.42,3.43-.72,5.07-1,1.7-.19,3.41-.35,5.16-.44s3.48-.05,5.21,0c1.73.05,3.41.23,5.14.51,1.75.28,3.48.56,5.18.98,1.7.42,3.46.93,5.23,1.45,1.75.51,3.48,1.17,5.21,1.82,1.73.65,3.5,1.4,5.23,2.29,1.68.79,3.43,1.68,5.23,2.66,1.75.89,3.46,1.91,5.21,3.03,1.7,1.03,3.39,2.19,5.14,3.32,1.68,1.17,3.39,2.43,5.11,3.69s3.36,2.57,5.04,3.97,3.29,2.85,4.97,4.25c1.54,1.63,3.2,3.17,4.76,4.76Z"/>
        <path class="cls-17" d="M1325.45,1282.53c1.33-1.4,2.8-2.78,4.18-4.09,1.42-1.24,2.87-2.45,4.37-3.6,1.4-1.07,2.94-2.12,4.46-3.03,1.52-.91,3.06-1.73,4.69-2.45,1.52-.68,3.2-1.31,4.74-1.77,1.63-.49,3.22-.86,4.88-1.12,1.66-.28,3.36-.44,5.07-.4,1.66-.05,3.43.09,5.18.37s3.53.65,5.3,1.17c1.82.61,3.62,1.19,5.39,1.94,1.82.84,3.71,1.75,5.46,2.87,1.89,1.14,3.76,2.45,5.63,3.74,1.77,1.35,3.53,2.82,5.18,4.37,1.66,1.54,3.27,3.22,4.86,5.04,1.52,1.73,3.01,3.62,4.51,5.49,1.4,1.94,2.8,3.88,4.18,5.93,1.38,2.08,2.59,4.11,3.78,6.3,1.19,2.17,2.33,4.27,3.43,6.51s2.05,4.44,3.03,6.63c.96,2.19,1.84,4.46,2.66,6.61.82,2.15,1.54,4.39,2.22,6.51.68,2.12,1.35,4.25,1.84,6.26.49,2.01,1.1,4.04,1.54,5.95.42,1.91.89,3.69,1.21,5.44.33,1.73.68,3.34.93,4.76.26,1.42.49,2.85.68,3.95.23,1.19.35,2.19.47,2.99.12.77.16,1.47.28,1.89.05.47.05.7.05.7,0,0-.23.02-.61,0-.37-.02-1.03-.09-1.77-.14-.75-.02-1.68-.19-2.8-.23-1.12-.05-2.29-.19-3.69-.3-1.4-.12-2.94-.28-4.55-.54-1.59-.26-3.36-.4-5.3-.56-1.91-.16-3.9-.44-5.95-.65s-4.25-.44-6.51-.79c-2.26-.33-4.6-.61-6.93-.89s-4.79-.75-7.28-1.05c-2.47-.33-4.93-.77-7.52-1.26-2.54-.4-5.04-.96-7.54-1.49-2.5-.54-5-1.1-7.56-1.73s-4.97-1.24-7.35-1.98c-2.38-.75-4.76-1.49-7.1-2.36-2.29-.79-4.55-1.73-6.72-2.73-2.17-.98-4.25-2.03-6.09-3.1-1.84-1.05-3.76-2.22-5.53-3.55-1.91-1.38-3.76-3.06-5.46-4.67-1.52-1.52-2.85-3.13-4.06-4.93-1.1-1.63-1.98-3.29-2.8-5.07-1.38-3.29-2.15-6.79-2.17-10.41,0-1.82.19-3.5.47-5.23.37-1.8.79-3.5,1.35-5.16.61-1.82,1.4-3.5,2.19-5.18.89-1.75,1.91-3.46,2.99-5.07s2.33-3.34,3.55-4.93c1.66-1.75,3.13-3.34,4.58-4.95Z"/>
      </g>
    </g>
    <g>
      <path class="cls-15" d="M1242.71,1801.72h31.68c15.85-85.33,39.03-216.1,38.43-248.13-.91-48.74-27.92-87.57-60.35-87.05-32.45.51-57.97,40.53-57.15,89.15.63,31.96,28.43,161.34,47.39,246.03Z"/>
      <g>
        <path class="cls-7" d="M1278.1,1781.9c-.09.4-.19.77-.16,1.1-1.89.14-3.92.37-5.81.51-3.36.21-6.77.28-10.2.35s-6.72.09-10.11-.02-6.75-.23-10.16-.65c3.39-.7,6.7-1.21,10.18-1.49,3.41-.4,6.82-.47,10.25-.56,3.43-.09,6.79.05,10.18.16,1.8.23,3.83.33,5.84.61Z"/>
        <path class="cls-7" d="M1262.3,1753.21c-4.65.82-9.38,1.19-14.05,1.68-4.67.49-9.36.68-14.1,1.05-.51-.02-.96.07-1.59.12-.28-1-.49-2.19-.75-3.17.63-.05,1.38-.16,2.1-.09,4.69-.19,9.38-.35,14.15-.42,4.76-.07,9.43.26,14.24.84Z"/>
        <path class="cls-7" d="M1288.65,1722.79c-.07.7-.26,1.49-.33,2.19-2.22.16-4.51.23-6.65.21-6.14.23-12.19.37-18.28.42-6.09.02-12.12.19-18.3.09-6.09.02-12.14-.12-18.28-.42,6.07-1.17,12.05-1.96,18.16-2.5,6.12-.54,12.21-.89,18.3-.93,6.09-.02,12.21-.07,18.28.42,2.43.16,4.79.23,7.1.51Z"/>
        <path class="cls-7" d="M1286.18,1694.49c-7.63.79-15.15,1.19-22.62,1.7-7.54.4-15.06.79-22.6,1.19-3.74.09-7.61.28-11.28.51-3.22.12-6.28.3-9.5.42-.21-1.19-.44-2.38-.79-3.5,3.41-.4,6.68-.72,9.97-1.03,3.78-.3,7.59-.58,11.32-.7,7.61-.28,15.08-.49,22.74-.14,7.68-.14,15.29.42,22.76,1.54Z"/>
        <path class="cls-7" d="M1298.95,1662.98c-.19,1.61-.58,3.15-.77,4.76-2.03-.09-4.02-.07-6.05-.16-9.03-.19-18.16-.49-27.2-.65-9.1-.3-18.16-.49-27.29-1.1,9.03-1.47,18.12-2.31,27.2-2.64,9.1-.51,18.21-.54,27.36-.42,2.36.05,4.53.07,6.75.21Z"/>
        <path class="cls-7" d="M1280.67,1635.62c-10.67.96-21.29,1.73-31.91,2.5s-21.24,1.54-31.87,2.31c-2.85.23-5.56.37-8.4.61-.4-1.75-.65-3.57-1.05-5.32,2.96-.3,5.93-.58,8.96-.77,10.62-.77,21.34-1.1,32.08-1.12,10.83.12,21.55.61,32.19,1.8Z"/>
        <path class="cls-7" d="M1307.94,1603.99c-.28,1.98-.58,3.99-.86,5.98-11.23-.51-22.39-.91-33.55-1.31-12.19-.44-24.47-.82-36.79-1.49,12.19-1.73,24.44-2.8,36.82-3.15,11.51-.63,22.97-.58,34.39-.02Z"/>
        <path class="cls-7" d="M1294.26,1577.16c-13.77,1.03-27.57,1.73-41.3,2.54-13.73.82-27.38,1.77-41.16,2.78-4.41.35-8.85.7-13.38,1.12-.37-2.26-.58-4.27-1-6.35,4.67-.49,9.2-.91,13.82-1.21,13.77-1.03,27.66-1.59,41.53-1.35,13.82-.07,27.76.82,41.49,2.47Z"/>
        <path class="cls-7" d="M1312.4,1544.9c.16,2.22.35,4.41.47,6.82-6.56-.19-13.12-.37-19.68-.56-14.89-.3-29.79-.58-44.73-.68-14.94-.09-29.93,0-44.96-.23,14.8-2.61,29.79-4.37,44.78-5.3s30.05-1.21,45.13-.86c6.23.23,12.68.49,19,.82Z"/>
        <path class="cls-7" d="M1307.56,1519.03c-13.84.89-27.59,1.4-41.42,2.1-14.64.7-29.07,1.45-43.61,2.29-7.96.49-15.95,1-24.02,1.56.63-2.52,1.26-5.07,1.96-7.47,7.19-.7,14.45-1.26,21.59-1.75,14.68-.89,29.28-1.1,43.94-.65,13.75.33,27.5,1.47,41.21,3.31l.35.61Z"/>
        <path class="cls-7" d="M1267.99,1488.75c-12,1.77-23.86,2.94-35.6,4.06-7.38.65-14.71,1.4-22.09,2.05,1.75-2.87,3.64-5.49,5.65-8.19,5.32-.23,10.72-.33,16.18-.33,11.98.09,23.98.82,35.86,2.4Z"/>
      </g>
    </g>
    <path class="cls-1" d="M1307.56,1519.03c-.07-.12-.02-.33-.16-.56"/>
    <g>
      <circle class="cls-10" cx="1292.27" cy="1529.35" r="8.78"/>
      <path class="cls-10" d="M1268.74,1529.66l.19,14.73c.12,8.08-6.33,14.82-14.54,14.94-8.08.12-14.82-6.33-14.94-14.54l-.19-14.73,29.49-.4Z"/>
      <circle class="cls-10" cx="1215.89" cy="1530.36" r="8.78"/>
    </g>
  </g>
  <path class="cls-14" d="M929.81,1815.58s104.12-250.65,339.8-235.9c235.67,14.75,345.28,235.9,345.28,235.9h-685.08Z"/>
  <g>
    <g>
      <g>
        <path class="cls-9" d="M1324.37,1058.23s-32.64,59.02-11.72,77.72c0,0,16.53,12.65,24.82-12.58,0,0,4.62-11.7-1.82-24.89-7.73-15.87-11.28-40.25-11.28-40.25Z"/>
        <g class="cls-12">
          <path class="cls-16" d="M1320.73,1076.25c-3.88,8.89-5.93,18.35-7.17,27.9-1.07,9.57-1.94,18.89.63,28.36-10.58-11.84-1.98-44.54,6.54-56.26h0Z"/>
        </g>
      </g>
      <g>
        <path class="cls-9" d="M1173.37,834s-32.38,59.37-11.37,77.83c0,0,16.6,12.47,24.77-12.86,0,0,4.58-11.74-1.94-24.86-7.8-15.76-11.46-40.11-11.46-40.11Z"/>
        <g class="cls-12">
          <path class="cls-16" d="M1168.21,852.44c-3.83,8.92-5.84,18.4-7.05,27.94-1.03,9.57-1.87,18.91.75,28.39-10.65-11.79-2.17-44.57,6.3-56.33h0Z"/>
        </g>
      </g>
      <g>
        <path class="cls-9" d="M1200.34,981s-27.43,64.9-5.11,79.35c0,0,17.46,9.31,23.58-17.32,0,0,3.62-12.51-3.9-24.33-9.03-14.22-14.57-37.7-14.57-37.7Z"/>
        <g class="cls-12">
          <path class="cls-16" d="M1196.65,1000.26c-2.99,9.31-4.25,18.96-4.74,28.67-.23,9.66-.56,19.17,2.96,28.41-11.77-10.37-5.37-44.85,1.77-57.08h0Z"/>
        </g>
      </g>
      <g>
        <path class="cls-9" d="M1330.79,879.36s-28.67,63.64-6.65,79.09c0,0,17.28,10.09,23.88-16.25,0,0,3.85-12.35-3.41-24.49-8.71-14.64-13.82-38.36-13.82-38.36Z"/>
        <g class="cls-12">
          <path class="cls-16" d="M1326.75,898.43c-3.2,9.24-4.65,18.86-5.3,28.53-.42,9.64-.89,19.14,2.43,28.43-11.49-10.74-4.6-44.8,2.87-56.96h0Z"/>
        </g>
      </g>
      <g>
        <path class="cls-9" d="M1052.96,1002.39s-28.67,63.64-6.65,79.09c0,0,17.28,10.09,23.88-16.25,0,0,3.85-12.35-3.41-24.49-8.73-14.61-13.82-38.36-13.82-38.36Z"/>
        <g class="cls-12">
          <path class="cls-16" d="M1048.92,1021.46c-3.2,9.24-4.65,18.86-5.3,28.53-.42,9.64-.89,19.14,2.43,28.43-11.51-10.74-4.6-44.8,2.87-56.96h0Z"/>
        </g>
      </g>
      <g>
        <path class="cls-9" d="M1377.25,1310.84s-28.67,63.64-6.65,79.09c0,0,17.28,10.09,23.88-16.25,0,0,3.85-12.35-3.41-24.49-8.71-14.61-13.82-38.36-13.82-38.36Z"/>
        <g class="cls-12">
          <path class="cls-16" d="M1373.21,1329.92c-3.2,9.24-4.65,18.86-5.3,28.53-.42,9.64-.89,19.14,2.43,28.43-11.49-10.74-4.58-44.8,2.87-56.96h0Z"/>
        </g>
      </g>
      <g>
        <path class="cls-9" d="M968.14,1054.33s-28.67,63.64-6.65,79.09c0,0,17.28,10.09,23.88-16.25,0,0,3.85-12.35-3.41-24.49-8.73-14.61-13.82-38.36-13.82-38.36Z"/>
        <g class="cls-12">
          <path class="cls-16" d="M964.1,1073.4c-3.2,9.24-4.65,18.86-5.3,28.53-.42,9.64-.89,19.14,2.43,28.43-11.51-10.74-4.6-44.8,2.87-56.96h0Z"/>
        </g>
      </g>
      <g>
        <path class="cls-9" d="M1073.1,1294.66s-33.87,57.41-13.33,77.09c0,0,16.27,13.45,25.07-11.37,0,0,4.88-11.46-1.31-24.98-7.42-16.2-10.44-40.74-10.44-40.74Z"/>
        <g class="cls-12">
          <path class="cls-16" d="M1067.46,1312.78c-4.11,8.75-6.33,18.14-7.77,27.62-1.28,9.52-2.29,18.79.05,28.29-10.27-12.12-1.17-44.4,7.73-55.91h0Z"/>
        </g>
      </g>
      <g>
        <path class="cls-9" d="M1131.56,1080.54s-33.87,57.41-13.33,77.09c0,0,16.27,13.45,25.07-11.37,0,0,4.88-11.46-1.31-24.98-7.42-16.2-10.44-40.74-10.44-40.74Z"/>
        <g class="cls-12">
          <path class="cls-16" d="M1125.91,1098.66c-4.11,8.75-6.33,18.14-7.77,27.62-1.26,9.52-2.29,18.79.05,28.29-10.27-12.12-1.17-44.4,7.73-55.91h0Z"/>
        </g>
      </g>
      <g>
        <path class="cls-9" d="M1182.64,1195.89s-33.87,57.41-13.33,77.09c0,0,16.27,13.45,25.07-11.37,0,0,4.88-11.46-1.31-24.98-7.42-16.18-10.44-40.74-10.44-40.74Z"/>
        <g class="cls-12">
          <path class="cls-16" d="M1176.99,1214.01c-4.11,8.75-6.33,18.14-7.77,27.62-1.28,9.52-2.29,18.79.05,28.29-10.27-12.12-1.17-44.4,7.73-55.91h0Z"/>
        </g>
      </g>
      <g>
        <path class="cls-9" d="M1473.13,1007.08s-40.08,47.16-22.23,72.16c0,0,14.4,17.7,26.01-4.3,0,0,6.14-9.94,1.68-24.91-5.39-17.98-5.46-42.95-5.46-42.95Z"/>
        <g class="cls-12">
          <path class="cls-16" d="M1465.45,1023.33c-5.35,7.75-8.59,16.55-11.11,25.54-2.4,9.06-4.16,17.88-3.11,27.34-8.5-13.52,3.36-42.86,14.22-52.88h0Z"/>
        </g>
      </g>
      <g>
        <path class="cls-9" d="M999.19,1218.21s-40.08,47.16-22.23,72.16c0,0,14.4,17.7,26.01-4.3,0,0,6.14-9.94,1.68-24.91-5.37-17.98-5.46-42.95-5.46-42.95Z"/>
        <g class="cls-12">
          <path class="cls-16" d="M991.51,1234.48c-5.35,7.75-8.59,16.55-11.11,25.54-2.4,9.06-4.16,17.88-3.1,27.34-8.47-13.52,3.36-42.88,14.22-52.88h0Z"/>
        </g>
      </g>
      <g>
        <path class="cls-9" d="M1550.31,1045.46s-29.93,62.28-8.22,78.74c0,0,17.07,10.88,24.21-15.15,0,0,4.11-12.16-2.94-24.65-8.43-14.96-13.05-38.94-13.05-38.94Z"/>
        <g class="cls-12">
          <path class="cls-16" d="M1545.88,1064.34c-3.41,9.15-5.04,18.72-5.88,28.36-.63,9.64-1.21,19.07,1.87,28.43-11.21-11.07-3.76-44.78,4.02-56.8h0Z"/>
        </g>
      </g>
      <g>
        <path class="cls-9" d="M1139.08,1385.8s-29.93,62.28-8.22,78.74c0,0,17.07,10.88,24.21-15.15,0,0,4.11-12.16-2.94-24.65-8.43-14.96-13.05-38.94-13.05-38.94Z"/>
        <g class="cls-12">
          <path class="cls-16" d="M1134.64,1404.69c-3.41,9.15-5.04,18.72-5.88,28.36-.63,9.64-1.21,19.07,1.87,28.43-11.21-11.07-3.76-44.78,4.02-56.8h0Z"/>
        </g>
      </g>
      <g>
        <path class="cls-9" d="M1252.49,1294.52s-29.93,62.28-8.22,78.74c0,0,17.07,10.88,24.21-15.15,0,0,4.11-12.16-2.94-24.65-8.43-14.99-13.05-38.94-13.05-38.94Z"/>
        <g class="cls-12">
          <path class="cls-16" d="M1248.08,1313.41c-3.41,9.15-5.04,18.72-5.88,28.36-.63,9.64-1.21,19.07,1.87,28.43-11.21-11.09-3.78-44.78,4.02-56.8h0Z"/>
        </g>
      </g>
      <g>
        <path class="cls-9" d="M1328.79,1392.6s-29.93,62.28-8.22,78.74c0,0,17.07,10.88,24.21-15.15,0,0,4.11-12.16-2.94-24.65-8.43-14.99-13.05-38.94-13.05-38.94Z"/>
        <g class="cls-12">
          <path class="cls-16" d="M1324.35,1411.48c-3.41,9.15-5.04,18.72-5.88,28.36-.63,9.64-1.21,19.07,1.87,28.43-11.21-11.09-3.76-44.78,4.02-56.8h0Z"/>
        </g>
      </g>
      <path class="cls-9" d="M1305.18,1195.75s-29.93,62.28-8.22,78.74c0,0,17.07,10.88,24.21-15.15,0,0,4.11-12.16-2.94-24.65-8.43-14.96-13.05-38.94-13.05-38.94Z"/>
      <g class="cls-12">
        <path class="cls-16" d="M1300.77,1214.64c-3.41,9.15-5.04,18.72-5.88,28.36-.63,9.64-1.21,19.07,1.87,28.43-11.21-11.07-3.78-44.78,4.02-56.8h0Z"/>
      </g>
      <g>
        <path class="cls-9" d="M1482.45,856.11s-32.87,58.74-12,77.6c0,0,16.48,12.79,24.86-12.37,0,0,4.67-11.67-1.73-24.91-7.7-15.87-11.14-40.32-11.14-40.32Z"/>
        <g class="cls-12">
          <path class="cls-16" d="M1477.1,874.46c-3.92,8.87-6,18.3-7.28,27.85-1.1,9.55-2.01,18.89.54,28.36-10.53-11.91-1.84-44.54,6.75-56.21h0Z"/>
        </g>
      </g>
      <g>
        <path class="cls-9" d="M1443.58,1201.5s-27.43,64.9-5.11,79.35c0,0,17.46,9.31,23.58-17.32,0,0,3.62-12.51-3.9-24.33-9.01-14.19-14.57-37.7-14.57-37.7Z"/>
        <g class="cls-12">
          <path class="cls-16" d="M1439.91,1220.75c-2.99,9.31-4.25,18.96-4.74,28.67-.23,9.66-.56,19.17,2.96,28.41-11.77-10.37-5.37-44.85,1.77-57.08h0Z"/>
        </g>
      </g>
      <g>
        <path class="cls-9" d="M1023.75,858.02s-33.38,58.04-12.7,77.34c0,0,16.37,13.12,24.98-11.86,0,0,4.79-11.56-1.49-24.93-7.54-16.04-10.79-40.55-10.79-40.55Z"/>
        <g class="cls-12">
          <path class="cls-16" d="M1018.27,876.25c-4.02,8.82-6.16,18.21-7.54,27.73-1.19,9.52-2.15,18.84.28,28.32-10.39-12-1.49-44.45,7.26-56.05h0Z"/>
        </g>
      </g>
    </g>
    <g>
      <path class="cls-2" d="M828.35,747.88c7.33,8.26,15.17,15.69,23.23,22.32,39.97,32.89,90.53,50.1,142.29,50.1h637.38s152.7-20.47,103.91-176.32c0,0-31.49-70.85-122.8-66.11,0,0,0-86.59-70.85-130.66-70.85-44.08-154.29-17.32-154.29-17.32,0,0-33.06-159-184.2-146.42-151.14,12.58-168.46,144.83-168.46,144.83,0,0-171.61-26.75-236.14,110.21-64.53,136.94,29.93,209.38,29.93,209.38Z"/>
      <g class="cls-13">
        <path class="cls-16" d="M1250.23,315.69c-11.44.4-22.69,1.89-33.76,3.9-11.07,1.96-21.87,4.95-32.38,8.43-5.3,1.61-10.37,3.85-15.48,5.79-5,2.31-10.04,4.37-14.78,7.05-2.38,1.33-4.86,2.43-7.14,3.9l-6.91,4.23c-2.33,1.31-4.41,3.06-6.63,4.58-2.12,1.59-4.41,3.03-6.42,4.76-16.39,13.14-29.6,29.83-39.34,48.56-4.9,9.31-9.08,19.07-12.42,29.11-1.68,5-3.22,10.06-4.51,15.15-.65,2.54-1.26,5.09-1.75,7.63-.3,1.26-.49,2.5-.75,3.76-.12.63-.21,1.21-.3,1.82l-.21,1.54c-1.12,7.63-7.49,13.21-14.89,13.59l-1.12.07-7.91.42c-2.75.19-5.51.4-8.29.63-5.53.54-11.07,1.12-16.6,1.87-11.04,1.52-22.04,3.34-32.87,5.67-21.66,4.72-42.89,10.97-62.5,19.94-2.43,1.17-4.95,2.19-7.31,3.43l-7.14,3.62c-4.6,2.64-9.29,5.21-13.61,8.17-8.73,5.81-17.04,12.16-24.21,19.45-7.19,7.28-13.66,15.17-18.79,23.91-1.45,2.08-2.4,4.44-3.64,6.63l-1.8,3.36c-.54,1.14-.98,2.33-1.47,3.5-.96,2.36-2.03,4.67-2.92,7.07l-2.29,7.33c-5.98,19.66-6.44,40.36-1.17,60.32,2.8,9.92,6.75,19.73,11.91,29.11,5.14,9.38,11.46,18.35,18.44,26.89,13.94,17.18,30.86,32.45,48.91,46.48,18.14,13.96,37.54,26.68,58.01,37.94-5.65-1.52-11.23-3.39-16.74-5.37-5.53-1.98-11.02-4.06-16.41-6.42-10.79-4.65-21.5-9.66-31.84-15.45-20.73-11.51-40.57-25.26-58.01-42.42-2.19-2.12-4.37-4.3-6.4-6.61-2.05-2.29-4.25-4.46-6.16-6.89l-5.88-7.21-5.44-7.66c-6.96-10.41-13-21.76-17.32-33.94-4.37-12.19-6.77-25.21-7.33-38.29-.75-13.14,1.03-26.22,3.92-38.85l2.57-9.41c.98-3.1,2.19-6.14,3.32-9.22.58-1.52,1.1-3.08,1.75-4.58l2.1-4.46c1.45-2.92,2.66-6,4.39-8.8l5.02-8.47c1.77-2.73,3.76-5.35,5.65-8.01,1.84-2.73,3.99-5.18,6.12-7.66s4.18-5.04,6.51-7.28c8.87-9.52,19.03-17.53,29.58-24.61,10.58-7.1,21.64-13.19,33.03-18.21,22.76-10.13,46.43-17,70.32-21.43,11.93-2.26,23.91-3.99,35.98-5.07,6-.58,12.05-.98,18.09-1.28,1.98-.12,3.97-.19,5.95-.26.47-1.63.96-3.27,1.47-4.88,1.84-5.86,3.95-11.58,6.21-17.23,4.65-11.25,10.27-22.11,16.74-32.47,6.35-10.41,14.19-19.96,22.6-28.9l6.56-6.44c2.22-2.12,4.72-3.97,7.05-5.95,4.58-4.09,9.88-7.33,14.89-10.81,10.41-6.23,21.13-11.74,32.38-15.71,5.53-2.22,11.3-3.74,16.95-5.44,5.74-1.38,11.46-2.82,17.25-3.71,11.56-2.08,23.21-2.96,34.79-3.1,2.89,0,5.79.05,8.66.09,2.89.16,5.79.33,8.66.54,5.72.47,11.44,1.12,17.07,2.26Z"/>
      </g>
    </g>
  </g>
</svg>