<svg id="Layer_2" data-name="Layer 2" xmlns="http://www.w3.org/2000/svg" xmlns:xlink="http://www.w3.org/1999/xlink" viewBox="0 0 3122.3 3605.4"><defs><style>.cls-1{fill:none;}.cls-2{clip-path:url(#clip-path);}.cls-3{clip-path:url(#clip-path-2);}.cls-4{stroke:#000;stroke-width:0.77px;}.cls-10,.cls-11,.cls-12,.cls-4,.cls-5,.cls-6,.cls-7,.cls-8,.cls-9{stroke-miterlimit:7.75;}.cls-10,.cls-11,.cls-12,.cls-5,.cls-6,.cls-7,.cls-8,.cls-9{fill:#494949;stroke:#333;}.cls-5{stroke-width:33.31px;}.cls-6{stroke-width:17.82px;}.cls-7{stroke-width:30.21px;}.cls-8{stroke-width:15.49px;}.cls-9{stroke-width:24.01px;}.cls-10{stroke-width:18.59px;}.cls-11{stroke-width:11.62px;}.cls-12{stroke-width:25.56px;}.cls-13{clip-path:url(#clip-path-19);}.cls-14{fill:#0df239;}.cls-15{fill:#0072c5;}.cls-16,.cls-19,.cls-20{fill:#00b2c5;}.cls-17{fill:#12ad8f;}.cls-17,.cls-18,.cls-27,.cls-30,.cls-39{opacity:0.7;}.cls-17,.cls-18,.cls-19,.cls-20,.cls-21,.cls-22,.cls-26,.cls-27,.cls-28,.cls-29,.cls-30,.cls-31,.cls-32,.cls-34,.cls-35,.cls-36,.cls-37,.cls-39,.cls-40,.cls-42{isolation:isolate;}.cls-18,.cls-22{fill:#0d7546;}.cls-19,.cls-21,.cls-29{opacity:0.8;}.cls-20{opacity:0.95;}.cls-21{fill:#0062ff;}.cls-22,.cls-34,.cls-36{opacity:0.6;}.cls-23{clip-path:url(#clip-path-31);}.cls-24,.cls-40{fill:#c0fd00;}.cls-25{fill:#00a8c4;}.cls-26{fill:#249390;opacity:0.85;}.cls-27{fill:#64912a;}.cls-28,.cls-29,.cls-41{fill:#06b75a;}.cls-28,.cls-40,.cls-42{opacity:0.9;}.cls-30,.cls-31,.cls-35{fill:#809926;}.cls-31{opacity:0.5;}.cls-32,.cls-37{fill:#0e722a;}.cls-32{opacity:0.4;}.cls-33{clip-path:url(#clip-path-44);}.cls-34{fill:#a6cc19;}.cls-35{opacity:0.3;}.cls-36{fill:#08b508;}.cls-37{opacity:0.55;}.cls-38{clip-path:url(#clip-path-50);}.cls-39{fill:#9fdd28;}.cls-42{fill:#53dd31;}.cls-43{clip-path:url(#clip-path-63);}.cls-44{fill:#d4ef0f;}.cls-45{fill:#1be0e0;}</style><clipPath id="clip-path"><polygon class="cls-1" points="0 901.3 0 2704 1561.2 3605.4 3122.3 2704 3122.3 901.3 1561.2 0 0 901.3"/></clipPath><clipPath id="clip-path-2"><polygon class="cls-1" points="3151.9 2692.1 3151.9 865.6 1570.1 -47.7 -11.7 865.6 -11.7 2692.1 1570.1 3605.3 3151.9 2692.1"/></clipPath><clipPath id="clip-path-19"><polygon class="cls-1" points="3589.67 251.51 2298.15 -1040.01 533.87 -567.31 61.17 1196.97 1352.69 2488.49 3116.9 2015.73 3589.67 251.51"/></clipPath><clipPath id="clip-path-31"><polygon class="cls-1" points="3469.42 1573.94 2770.42 -113.56 959.48 -352.01 -152.43 1097.14 546.57 2784.65 2357.48 3023 3469.42 1573.94"/></clipPath><clipPath id="clip-path-44"><polygon class="cls-1" points="3075.09 -60.02 1272.15 -352.63 117.23 1062.46 765.34 2770.16 2568.28 3062.77 3723.1 1647.67 3075.09 -60.02"/></clipPath><clipPath id="clip-path-50"><polygon class="cls-1" points="2925.23 -500.55 1147.68 -920.28 -104.64 409.25 420.68 2158.54 2198.23 2578.27 3450.46 1248.71 2925.23 -500.55"/></clipPath><clipPath id="clip-path-63"><polygon class="cls-1" points="3254.51 859.01 1963 -432.51 198.71 40.19 -273.98 1804.47 1017.53 3095.99 2781.75 2623.22 3254.51 859.01"/></clipPath></defs><g class="cls-2"><g class="cls-3"><rect class="cls-4" x="-375.4" y="-133.8" width="3873.1" height="3873.1"/></g><g class="cls-3"><path class="cls-5" d="M-570.6,1302.5H3553.6"/></g><g class="cls-3"><path class="cls-6" d="M678,759.3l192.9,543.2"/></g><g class="cls-3"><path class="cls-6" d="M424.7,943.3l450.8,359.1"/></g><g class="cls-3"><path class="cls-7" d="M1609,357,871,1302.4"/></g><g class="cls-3"><path class="cls-8" d="M1789.3,720.9,902.4,1266"/></g><g class="cls-3"><path class="cls-9" d="M2036.3,835.3,888,1290.1"/></g><g class="cls-3"><path class="cls-10" d="M2503.4,723.9,906.7,1283"/></g><g class="cls-3"><path class="cls-11" d="M875.6,1318.7,113.9,1458"/></g><g class="cls-3"><path class="cls-8" d="M862.1,1312.6,493.8,1779.2"/></g><g class="cls-3"><path class="cls-8" d="M867.6,1311.1,511.5,1963.4"/></g><g class="cls-3"><path class="cls-11" d="M1120.8,3020.2,892.2,1311.1"/></g><g class="cls-3"><path class="cls-7" d="M1887.9,3020.5,892.2,1298.9"/></g><g class="cls-3"><path class="cls-11" d="M2004.1,2809.9,886.9,1279.9"/></g><g class="cls-3"><path class="cls-7" d="M2502.4,2886.9,902.4,1302.4"/></g><g class="cls-3"><path class="cls-12" d="M2742.5,1730.6,906.7,1314.8"/></g><g class="cls-3"><path class="cls-11" d="M2506.8,1428,879.7,1312.6"/></g><g class="cls-13"><circle class="cls-14" cx="424.76" cy="943.27" r="86.4" transform="translate(-542.58 576.63) rotate(-45)"/></g><g class="cls-3"><circle class="cls-15" cx="2558.9" cy="2942.2" r="154.8"/></g><g class="cls-3"><circle class="cls-15" cx="2814.9" cy="1739.8" r="164"/></g><g class="cls-3"><circle class="cls-16" cx="2506.8" cy="1428" r="97.6"/></g><g class="cls-3"><circle class="cls-17" cx="1995.6" cy="2795.2" r="97.6"/></g><g class="cls-3"><circle class="cls-15" cx="1120.8" cy="3022" r="106"/></g><g class="cls-3"><circle class="cls-18" cx="1789.3" cy="720.9" r="83.3"/></g><g class="cls-3"><circle class="cls-19" cx="2036.3" cy="835.3" r="239.8"/></g><g class="cls-3"><circle class="cls-20" cx="1887.9" cy="3020.2" r="239.8" transform="translate(-1582.65 2219.54) rotate(-45)"/></g><g class="cls-3"><circle class="cls-21" cx="2502.4" cy="720.9" r="397.3"/></g><g class="cls-3"><circle class="cls-18" cx="127.3" cy="1457.9" r="83.3"/></g><g class="cls-3"><circle class="cls-22" cx="165.2" cy="1335.1" r="83.3"/></g><g class="cls-23"><circle class="cls-24" cx="500" cy="1335.04" r="48.2" transform="translate(-658.39 504.09) rotate(-33.81)"/></g><g class="cls-3"><circle class="cls-18" cx="902.4" cy="2886.9" r="83.3"/></g><g class="cls-3"><circle class="cls-25" cx="833.4" cy="2824.2" r="83.3"/></g><g class="cls-3"><circle class="cls-26" cx="678.9" cy="759.3" r="89.1"/></g><g class="cls-3"><circle class="cls-27" cx="493.9" cy="1779.2" r="118.9"/></g><g class="cls-3"><circle class="cls-28" cx="511.5" cy="1963.3" r="154.8"/></g><g class="cls-3"><circle class="cls-24" cx="630.2" cy="1609.7" r="33.9"/></g><g class="cls-3"><circle class="cls-29" cx="1309.4" cy="1030.9" r="101.3"/></g><g class="cls-3"><circle class="cls-30" cx="833.4" cy="1660.3" r="59.4"/></g><g class="cls-3"><circle class="cls-30" cx="1316.1" cy="1690" r="89.2"/></g><g class="cls-3"><circle class="cls-31" cx="1178.6" cy="1655.6" r="93.6"/></g><g class="cls-3"><circle class="cls-32" cx="1586.6" cy="1253.3" r="61.6"/></g><g class="cls-3"><circle class="cls-24" cx="1390.1" cy="1302.5" r="58.8"/></g><g class="cls-33"><circle class="cls-34" cx="1496.1" cy="1361.21" r="33.9" transform="translate(-87.18 2619.95) rotate(-80.78)"/></g><g class="cls-3"><circle class="cls-35" cx="1360.7" cy="1600.8" r="44.6"/></g><g class="cls-3"><circle class="cls-35" cx="927.1" cy="1508.8" r="93.6"/></g><g class="cls-3"><circle class="cls-36" cx="1218.5" cy="1419.4" r="37.8"/></g><g class="cls-3"><circle class="cls-36" cx="1256.4" cy="1476.4" r="50.8"/></g><g class="cls-3"><circle class="cls-37" cx="1268" cy="1887.2" r="48.1"/></g><g class="cls-38"><circle class="cls-30" cx="1021.39" cy="1238.91" r="69.4"/></g><g class="cls-3"><circle class="cls-39" cx="867.5" cy="1075.1" r="65.7"/></g><g class="cls-3"><circle class="cls-24" cx="927.1" cy="1171.7" r="58.8"/></g><g class="cls-3"><circle class="cls-30" cx="936.4" cy="1349.1" r="53"/></g><g class="cls-3"><circle class="cls-30" cx="1042" cy="1432.2" r="48.8" transform="translate(-707.53 1156.29) rotate(-45)"/></g><g class="cls-3"><circle class="cls-30" cx="906.7" cy="1595" r="48.8"/></g><g class="cls-3"><circle class="cls-30" cx="977.2" cy="1623.2" r="48.8"/></g><g class="cls-3"><circle class="cls-24" cx="1163.1" cy="1583.9" r="58.8"/></g><g class="cls-3"><circle class="cls-40" cx="1115.4" cy="1525.6" r="42.6"/></g><g class="cls-3"><circle class="cls-34" cx="982.3" cy="1983" r="39"/></g><g class="cls-3"><circle class="cls-41" cx="1015.9" cy="1849.3" r="96.6"/></g><g class="cls-3"><circle class="cls-37" cx="819.1" cy="1466.3" r="57.3"/></g><g class="cls-3"><circle class="cls-42" cx="1041.3" cy="1745.8" r="71.1"/></g><g class="cls-43"><circle class="cls-42" cx="990.45" cy="1651.6" r="35.6"/></g><g class="cls-3"><path class="cls-44" d="M519.3,2504.3a130,130,0,0,1-31,21.4c-11.3,5.5-24.2,8.3-38.6,8.3a93.18,93.18,0,0,1-33.1-5.7,80.18,80.18,0,0,1-26-15.6,69.45,69.45,0,0,1-17-22.9,66.7,66.7,0,0,1-6.1-27.8c0-10.4,1.5-19.7,4.6-27.8a68.39,68.39,0,0,1,12.4-21,70.35,70.35,0,0,1,18-15,113.55,113.55,0,0,1,21.6-9.8,129.33,129.33,0,0,1,23-5.2,186,186,0,0,1,22.5-1.6c11.4,0,21,.4,28.7,1.1a182.85,182.85,0,0,1,21.1,3l.2-20.2a62.51,62.51,0,0,0-3.8-22.7,42.2,42.2,0,0,0-10.7-15.9,44.58,44.58,0,0,0-16.5-9.4,71.21,71.21,0,0,0-21.5-3.1,139.39,139.39,0,0,0-21.4,1.6,157.64,157.64,0,0,0-19.1,4,117.41,117.41,0,0,0-16.4,5.7,71.11,71.11,0,0,0-12.7,6.8L383,2301.9a160.57,160.57,0,0,1,41.3-18.8,210.27,210.27,0,0,1,23.5-5.5,143.57,143.57,0,0,1,23.6-2c14.3,0,27.1,1.7,38.5,5.1a74.19,74.19,0,0,1,29,15.8,69.94,69.94,0,0,1,18.3,27.2c4.3,11,6.4,24.2,6.4,39.6l-.2,123h27.3v40.9H519.2Zm-59.9-7.4a75,75,0,0,0,17.6-2.1,89.09,89.09,0,0,0,31.1-14.3,66.71,66.71,0,0,0,11.2-10.1l.2-55.6H468.2a88,88,0,0,0-23.4,2.9,59.29,59.29,0,0,0-18.3,8.3,37.78,37.78,0,0,0-16.3,32.1,38.24,38.24,0,0,0,3.6,17,32.79,32.79,0,0,0,10.1,12.1,47.66,47.66,0,0,0,15.6,7.4,78.52,78.52,0,0,0,19.9,2.3Z"/></g><g class="cls-3"><path class="cls-44" d="M630.9,2281h78.4v20.4a135.45,135.45,0,0,1,34.2-19.2,106.39,106.39,0,0,1,38.2-7.1,107.46,107.46,0,0,1,44.4,9,101.91,101.91,0,0,1,34.8,25.4,116.94,116.94,0,0,1,22.7,39.3q8.1,22.95,8.1,50.7,0,29.7-9,54.2a124.5,124.5,0,0,1-25.1,41.9,114.29,114.29,0,0,1-38.1,27.2c-14.7,6.5-30.9,9.7-48.5,9.7a129.2,129.2,0,0,1-33.4-3.9,162.52,162.52,0,0,1-27.9-10.1v79.6h38.5V2639H631.4v-40.9h33.7V2321.8H630.9Zm139.2,33a81.21,81.21,0,0,0-32.9,6.9,83.87,83.87,0,0,0-27.4,19v133.2c5.2,5.4,12.7,10.2,22.5,14.5s21.9,6.4,36.5,6.4a75.09,75.09,0,0,0,29.2-5.9,70.11,70.11,0,0,0,24.7-17.7q10.65-11.7,17.1-29.1c4.3-11.6,6.4-24.9,6.4-40.1,0-13.9-2-26.3-6.1-37.1a80.8,80.8,0,0,0-16.4-27.3,69.41,69.41,0,0,0-24.1-17,74.7,74.7,0,0,0-29.5-5.8Z"/></g><g class="cls-3"><path class="cls-44" d="M927.6,2281H1006v20.4a135.45,135.45,0,0,1,34.2-19.2,106.39,106.39,0,0,1,38.2-7.1,107.46,107.46,0,0,1,44.4,9,103,103,0,0,1,34.8,25.4c9.8,10.9,17.3,24,22.7,39.3s8.1,32.2,8.1,50.7q0,29.7-9,54.2a124.5,124.5,0,0,1-25.1,41.9,114.29,114.29,0,0,1-38.1,27.2c-14.7,6.5-30.9,9.7-48.5,9.7a130.08,130.08,0,0,1-33.4-3.9,162.52,162.52,0,0,1-27.9-10.1v79.6h38.5V2639H928.1v-40.9h33.7V2321.8H927.6Zm139.2,33a81.21,81.21,0,0,0-32.9,6.9,83.87,83.87,0,0,0-27.4,19v133.2c5.2,5.4,12.7,10.2,22.5,14.5s21.9,6.4,36.5,6.4a75.09,75.09,0,0,0,29.2-5.9,70.11,70.11,0,0,0,24.7-17.7q10.65-11.7,17.1-29.1c4.3-11.6,6.4-24.9,6.4-40.1,0-13.9-2-26.3-6.1-37.1a80.8,80.8,0,0,0-16.4-27.3,69.5,69.5,0,0,0-24.1-17,75,75,0,0,0-29.5-5.8Z"/></g><g class="cls-3"><path class="cls-44" d="M1232.1,2157.5h79.8v328.7h37v40.9H1232.1v-40.9h35.6V2198.3h-35.6Z"/></g><g class="cls-3"><path class="cls-44" d="M1390.3,2281h80.3v205.2h37.1v40.9H1390.8v-40.9H1426V2321.8h-35.6V2281Zm27.3-87.2a28.08,28.08,0,0,1,2.5-11.8,32.33,32.33,0,0,1,6.7-9.7,30.9,30.9,0,0,1,9.8-6.6,29.48,29.48,0,0,1,12.1-2.5,28.08,28.08,0,0,1,11.8,2.5,31.94,31.94,0,0,1,16.4,16.4,28.08,28.08,0,0,1,2.5,11.8,29.48,29.48,0,0,1-2.5,12.1,35.64,35.64,0,0,1-6.7,10.1,31.23,31.23,0,0,1-9.7,6.9,28.08,28.08,0,0,1-11.8,2.5,30.37,30.37,0,0,1-22-9.4,36.36,36.36,0,0,1-6.7-10.1,31.93,31.93,0,0,1-2.4-12.2Z"/></g><g class="cls-3"><path class="cls-44" d="M1725.9,2346.5c-6.7-11.9-15.1-20.6-25.3-26.1s-22-8.3-35.5-8.3a66.23,66.23,0,0,0-29,6.4,69.3,69.3,0,0,0-23.6,18.3,86.18,86.18,0,0,0-15.9,28.9,116.1,116.1,0,0,0-5.8,37.9c0,13.8,1.9,26.2,5.8,37.3a86.75,86.75,0,0,0,16,28.4,72.06,72.06,0,0,0,23.6,18.1,66.79,66.79,0,0,0,28.8,6.3c15.2,0,28.4-3.7,39.7-11.1s20.2-18.2,26.8-32.4l36.6,18.1a117.09,117.09,0,0,1-17.6,27.3,113.33,113.33,0,0,1-23.6,20.7,110.18,110.18,0,0,1-29,13.2,117.5,117.5,0,0,1-33.4,4.6,115.52,115.52,0,0,1-47.4-9.6,110.63,110.63,0,0,1-37.5-27,123.79,123.79,0,0,1-24.6-41.3q-8.85-24-8.8-52.5t9.3-52.5a127.28,127.28,0,0,1,25.4-41.2,117.7,117.7,0,0,1,37.8-27,112.05,112.05,0,0,1,46.3-9.7,120.36,120.36,0,0,1,44,8.1,100.43,100.43,0,0,1,36.5,24.5h24.9v40.9Z"/></g><g class="cls-3"><path class="cls-44" d="M1958.5,2504.3a130,130,0,0,1-31,21.4c-11.3,5.5-24.2,8.3-38.6,8.3a93.18,93.18,0,0,1-33.1-5.7,80.18,80.18,0,0,1-26-15.6,69.45,69.45,0,0,1-17-22.9,64.9,64.9,0,0,1-6-27.8c0-10.4,1.5-19.7,4.6-27.8a70.34,70.34,0,0,1,12.3-21,72.52,72.52,0,0,1,18.1-15,113.55,113.55,0,0,1,21.6-9.8,129.33,129.33,0,0,1,23-5.2,188.05,188.05,0,0,1,22.5-1.6c11.4,0,21,.4,28.7,1.1a182.85,182.85,0,0,1,21.1,3l.2-20.2a62.51,62.51,0,0,0-3.8-22.7,42.2,42.2,0,0,0-10.7-15.9,44.58,44.58,0,0,0-16.5-9.4,71.21,71.21,0,0,0-21.5-3.1,139.39,139.39,0,0,0-21.4,1.6,157.64,157.64,0,0,0-19.1,4,117.41,117.41,0,0,0-16.4,5.7,71.11,71.11,0,0,0-12.7,6.8l-14.5-30.6a163.78,163.78,0,0,1,19.2-10.6,158.47,158.47,0,0,1,22-8.3,210.27,210.27,0,0,1,23.5-5.5,143.57,143.57,0,0,1,23.6-2c14.3,0,27.1,1.7,38.5,5.1a74.19,74.19,0,0,1,29,15.8,69.94,69.94,0,0,1,18.3,27.2c4.3,11,6.4,24.2,6.4,39.6l-.2,123h27.3v40.9h-71.5Zm-59.9-7.4a75,75,0,0,0,17.6-2.1,88.78,88.78,0,0,0,16.6-5.8,91.55,91.55,0,0,0,14.5-8.5,66.71,66.71,0,0,0,11.2-10.1l.2-55.6h-51.3a87.93,87.93,0,0,0-23.4,2.9,59.29,59.29,0,0,0-18.3,8.3,39,39,0,0,0-12,13.5,39.64,39.64,0,0,0-4.3,18.5,38.24,38.24,0,0,0,3.6,17,32.79,32.79,0,0,0,10.1,12.1,47.66,47.66,0,0,0,15.6,7.4,73.79,73.79,0,0,0,19.9,2.4Z"/></g><g class="cls-3"><path class="cls-45" d="M2069.6,2157.5h79.8v143.9a135.45,135.45,0,0,1,34.2-19.2,106.39,106.39,0,0,1,38.2-7.1q24.3,0,44.4,9a103,103,0,0,1,34.8,25.4,116.94,116.94,0,0,1,22.7,39.3q8.1,22.95,8.1,50.7,0,29.7-9,53.8a124.68,124.68,0,0,1-25.1,41.4,110.6,110.6,0,0,1-38.1,26.7c-14.7,6.3-30.9,9.4-48.4,9.4a104.92,104.92,0,0,1-34.3-5.4,94.44,94.44,0,0,1-27.4-13.9v15.4h-44.2V2198.2h-35.6ZM2210.2,2314a81.29,81.29,0,0,0-33.3,7.1,89.69,89.69,0,0,0-27.6,19.2v132.3c5.1,5.2,12.5,9.9,22.3,13.9s22.2,6,37.1,6a77.13,77.13,0,0,0,29.2-5.7,68.53,68.53,0,0,0,24.7-17.2c7.1-7.7,12.8-17.2,17.1-28.6s6.4-24.7,6.4-39.9c0-13.9-2-26.3-6.1-37.1a80.8,80.8,0,0,0-16.4-27.3,69.41,69.41,0,0,0-24.1-17A74.38,74.38,0,0,0,2210.2,2314Z"/></g><g class="cls-3"><path class="cls-44" d="M2375.6,2157.5h79.8v328.7h37.1v40.9H2375.7v-40.9h35.6V2198.3h-35.6v-40.8Z"/></g><g class="cls-3"><path class="cls-44" d="M2577.5,2409.7a111.16,111.16,0,0,0,1.6,19.1,103.46,103.46,0,0,0,4.4,16.5q8.7,23.7,28.1,35.7t43.8,12a130.83,130.83,0,0,0,37.4-5.4,177,177,0,0,0,38.1-16.8l17.8,30.2a192.89,192.89,0,0,1-48.7,24.7,162.63,162.63,0,0,1-50.8,8.1,125.54,125.54,0,0,1-46.2-8.3,99.2,99.2,0,0,1-36.6-24.7q-15.3-16.35-24-40.9c-5.8-16.4-8.7-35.3-8.7-57a165.14,165.14,0,0,1,7.4-49.8,119.3,119.3,0,0,1,22-40.9,105.64,105.64,0,0,1,36.2-27.7q21.6-10.2,50.4-10.2c18.5,0,34,2.8,46.4,8.4s22.6,13.1,30.4,22.3a96.4,96.4,0,0,1,17.8,31.7,189,189,0,0,1,8.4,36.3,180.79,180.79,0,0,1,1.5,18.3c.2,6.2.4,12.2.4,18.1Zm69.1-98.1c-10.3,0-19.3,1.5-26.9,4.4a52.76,52.76,0,0,0-19.6,12.6,60.15,60.15,0,0,0-12.9,20.1,117.78,117.78,0,0,0-7.2,26.6h127.6a115.33,115.33,0,0,0-4.4-25.4,55.21,55.21,0,0,0-10.6-20.2,47.59,47.59,0,0,0-18.3-13.3c-7.6-3.2-16.8-4.8-27.7-4.8Z"/></g></g></svg>