<?xml version="1.0" encoding="utf-8"?>
<!-- Generator: Adobe Illustrator 26.5.0, SVG Export Plug-In . SVG Version: 6.00 Build 0)  -->
<svg version="1.1" id="Layer_2_00000020397045202257080060000010412001782099348891_"
	 xmlns="http://www.w3.org/2000/svg" xmlns:xlink="http://www.w3.org/1999/xlink" x="0px" y="0px" viewBox="0 0 2521 2911"
	 style="enable-background:new 0 0 2521 2911;" xml:space="preserve">
<style type="text/css">
	.st0{clip-path:url(#SVGID_00000152983436962796077360000013068710382691342502_);}
	.st1{clip-path:url(#SVGID_00000152983436962796077360000013068710382691342502_);fill:#333333;}
	.st2{clip-path:url(#SVGID_00000152983436962796077360000013068710382691342502_);fill:#494949;}
	.st3{clip-path:url(#SVGID_00000152983436962796077360000013068710382691342502_);fill:#0DF239;}
	.st4{clip-path:url(#SVGID_00000152983436962796077360000013068710382691342502_);fill:#0072C5;}
	.st5{clip-path:url(#SVGID_00000152983436962796077360000013068710382691342502_);fill:#00B2C5;}
	.st6{clip-path:url(#SVGID_00000152983436962796077360000013068710382691342502_);fill:#0D7964;}
	.st7{clip-path:url(#SVGID_00000152983436962796077360000013068710382691342502_);fill:#1C8974;}
	.st8{clip-path:url(#SVGID_00000152983436962796077360000013068710382691342502_);fill:#095231;}
	.st9{clip-path:url(#SVGID_00000152983436962796077360000013068710382691342502_);fill:#1F6847;}
	.st10{clip-path:url(#SVGID_00000152983436962796077360000013068710382691342502_);fill:#186140;}
	.st11{clip-path:url(#SVGID_00000152983436962796077360000013068710382691342502_);fill:#008E9E;}
	.st12{clip-path:url(#SVGID_00000152983436962796077360000013068710382691342502_);fill:#0A99A8;}
	.st13{clip-path:url(#SVGID_00000152983436962796077360000013068710382691342502_);fill:#029FA7;}
	.st14{clip-path:url(#SVGID_00000152983436962796077360000013068710382691342502_);fill:#00A9BB;}
	.st15{clip-path:url(#SVGID_00000152983436962796077360000013068710382691342502_);fill:#03ACBE;}
	.st16{clip-path:url(#SVGID_00000152983436962796077360000013068710382691342502_);fill:#01AFC0;}
	.st17{clip-path:url(#SVGID_00000152983436962796077360000013068710382691342502_);fill:#01B0C1;}
	.st18{clip-path:url(#SVGID_00000152983436962796077360000013068710382691342502_);fill:#004ECC;}
	.st19{clip-path:url(#SVGID_00000152983436962796077360000013068710382691342502_);fill:#0A59D6;}
	.st20{clip-path:url(#SVGID_00000152983436962796077360000013068710382691342502_);fill:#006BEC;}
	.st21{clip-path:url(#SVGID_00000152983436962796077360000013068710382691342502_);fill:#026DEE;}
	.st22{clip-path:url(#SVGID_00000152983436962796077360000013068710382691342502_);fill:#08462A;}
	.st23{clip-path:url(#SVGID_00000152983436962796077360000013068710382691342502_);fill:#1C5B3E;}
	.st24{clip-path:url(#SVGID_00000152983436962796077360000013068710382691342502_);fill:#0B673E;}
	.st25{clip-path:url(#SVGID_00000152983436962796077360000013068710382691342502_);fill:#C0FD00;}
	.st26{clip-path:url(#SVGID_00000152983436962796077360000013068710382691342502_);fill:#00A8C4;}
	.st27{clip-path:url(#SVGID_00000152983436962796077360000013068710382691342502_);fill:#1F7D7B;}
	.st28{clip-path:url(#SVGID_00000152983436962796077360000013068710382691342502_);fill:#268582;}
	.st29{clip-path:url(#SVGID_00000152983436962796077360000013068710382691342502_);fill:#46661D;}
	.st30{clip-path:url(#SVGID_00000152983436962796077360000013068710382691342502_);fill:#55752D;}
	.st31{clip-path:url(#SVGID_00000152983436962796077360000013068710382691342502_);fill:#05A551;}
	.st32{clip-path:url(#SVGID_00000152983436962796077360000013068710382691342502_);fill:#0AAA56;}
	.st33{clip-path:url(#SVGID_00000152983436962796077360000013068710382691342502_);fill:#0CAF54;}
	.st34{clip-path:url(#SVGID_00000152983436962796077360000013068710382691342502_);fill:#0EB156;}
	.st35{clip-path:url(#SVGID_00000152983436962796077360000013068710382691342502_);fill:#059248;}
	.st36{clip-path:url(#SVGID_00000152983436962796077360000013068710382691342502_);fill:#0F9D52;}
	.st37{clip-path:url(#SVGID_00000152983436962796077360000013068710382691342502_);fill:#5A6B1B;}
	.st38{clip-path:url(#SVGID_00000152983436962796077360000013068710382691342502_);fill:#697B2A;}
	.st39{clip-path:url(#SVGID_00000152983436962796077360000013068710382691342502_);fill:#404D13;}
	.st40{clip-path:url(#SVGID_00000152983436962796077360000013068710382691342502_);fill:#5A662C;}
	.st41{clip-path:url(#SVGID_00000152983436962796077360000013068710382691342502_);fill:#6D8221;}
	.st42{clip-path:url(#SVGID_00000152983436962796077360000013068710382691342502_);fill:#758A28;}
	.st43{clip-path:url(#SVGID_00000152983436962796077360000013068710382691342502_);fill:#062E11;}
	.st44{clip-path:url(#SVGID_00000152983436962796077360000013068710382691342502_);fill:#244C2F;}
	.st45{clip-path:url(#SVGID_00000152983436962796077360000013068710382691342502_);fill:#647A0F;}
	.st46{clip-path:url(#SVGID_00000152983436962796077360000013068710382691342502_);fill:#788F23;}
	.st47{clip-path:url(#SVGID_00000152983436962796077360000013068710382691342502_);fill:#272E0B;}
	.st48{clip-path:url(#SVGID_00000152983436962796077360000013068710382691342502_);fill:#65791E;}
	.st49{clip-path:url(#SVGID_00000152983436962796077360000013068710382691342502_);fill:#4A522F;}
	.st50{clip-path:url(#SVGID_00000152983436962796077360000013068710382691342502_);fill:#056D05;}
	.st51{clip-path:url(#SVGID_00000152983436962796077360000013068710382691342502_);fill:#198119;}
	.st52{clip-path:url(#SVGID_00000152983436962796077360000013068710382691342502_);fill:#079807;}
	.st53{clip-path:url(#SVGID_00000152983436962796077360000013068710382691342502_);fill:#083F17;}
	.st54{clip-path:url(#SVGID_00000152983436962796077360000013068710382691342502_);fill:#1F562E;}
	.st55{clip-path:url(#SVGID_00000152983436962796077360000013068710382691342502_);fill:#709B1C;}
	.st56{clip-path:url(#SVGID_00000152983436962796077360000013068710382691342502_);fill:#7FAA2B;}
	.st57{clip-path:url(#SVGID_00000152983436962796077360000013068710382691342502_);fill:#708429;}
	.st58{clip-path:url(#SVGID_00000152983436962796077360000013068710382691342502_);fill:#758B23;}
	.st59{clip-path:url(#SVGID_00000152983436962796077360000013068710382691342502_);fill:#799027;}
	.st60{clip-path:url(#SVGID_00000152983436962796077360000013068710382691342502_);fill:#788F24;}
	.st61{clip-path:url(#SVGID_00000152983436962796077360000013068710382691342502_);fill:#7B9327;}
	.st62{clip-path:url(#SVGID_00000152983436962796077360000013068710382691342502_);fill:#ADE400;}
	.st63{clip-path:url(#SVGID_00000152983436962796077360000013068710382691342502_);fill:#B2E905;}
	.st64{clip-path:url(#SVGID_00000152983436962796077360000013068710382691342502_);fill:#06B75A;}
	.st65{clip-path:url(#SVGID_00000152983436962796077360000013068710382691342502_);fill:#19531C;}
	.st66{clip-path:url(#SVGID_00000152983436962796077360000013068710382691342502_);fill:#29642C;}
	.st67{clip-path:url(#SVGID_00000152983436962796077360000013068710382691342502_);fill:#4BC72C;}
	.st68{clip-path:url(#SVGID_00000152983436962796077360000013068710382691342502_);fill:#51CF2E;}
	.st69{clip-path:url(#SVGID_00000152983436962796077360000013068710382691342502_);fill:#4BD935;}
	.st70{clip-path:url(#SVGID_00000152983436962796077360000013068710382691342502_);fill:#54D22F;}
	.st71{clip-path:url(#SVGID_00000152983436962796077360000013068710382691342502_);fill:#D4EF0F;}
	.st72{clip-path:url(#SVGID_00000152983436962796077360000013068710382691342502_);fill:#1BE0E0;}
</style>
<g>
	<g>
		<defs>
			<polyline id="SVGID_1_" points="2521,2183.7 2521,727.7 2420.5,669.7 1467.4,119.3 1260.5,0 1053.6,119.4 100.5,669.8 0,727.7 
				0,2183.3 100.5,2241.3 1065.6,2798.5 1260.8,2911 1456,2798.5 2421.1,2241.3 2521,2183.7 			"/>
		</defs>
		<clipPath id="SVGID_00000152948744090130353690000007870912756621610151_">
			<use xlink:href="#SVGID_1_"  style="overflow:visible;"/>
		</clipPath>
		<polyline style="clip-path:url(#SVGID_00000152948744090130353690000007870912756621610151_);" points="-64.6,679.9 -64.6,2210.1 
			1260.5,2975.2 2585.5,2210.1 2585.5,679.9 1260.5,-85.1 -64.6,679.9 		"/>
		<path style="clip-path:url(#SVGID_00000152948744090130353690000007870912756621610151_);fill:#333333;" d="M695.9,308.3v2342.3
			c4.3,3.8,8.9,7.3,13.5,10.5c4.4,3.1,8.9,6,13.4,8.9V293.5C713.5,297.9,704.6,303,695.9,308.3"/>
		<path style="clip-path:url(#SVGID_00000152948744090130353690000007870912756621610151_);fill:#494949;" d="M2541.4,1051.6
			c-850.3-0.1-1700.4,0-2551.2,0L2541.4,1051.6L2541.4,1051.6"/>
		<polyline style="clip-path:url(#SVGID_00000152948744090130353690000007870912756621610151_);fill:#333333;" points="
			2541.4,1038.2 -19.4,1038.2 -19.4,1065.1 2541.4,1065.1 2541.4,1038.2 		"/>
		<polyline style="clip-path:url(#SVGID_00000152948744090130353690000007870912756621610151_);fill:#494949;" points="547.4,613.1 
			703.2,1051.6 547.4,613.1 		"/>
		<polyline style="clip-path:url(#SVGID_00000152948744090130353690000007870912756621610151_);fill:#333333;" points="696.4,1054 
			540.6,615.5 554.2,610.7 709.9,1049.2 696.4,1054 		"/>
		
			<line style="clip-path:url(#SVGID_00000152948744090130353690000007870912756621610151_);fill:#494949;" x1="342.9" y1="761.6" x2="706.9" y2="1051.6"/>
		
			<rect x="517.7" y="673.9" transform="matrix(0.6231 -0.7822 0.7822 0.6231 -511.2505 752.2714)" style="clip-path:url(#SVGID_00000152948744090130353690000007870912756621610151_);fill:#333333;" width="14.4" height="465.3"/>
		
			<line style="clip-path:url(#SVGID_00000152948744090130353690000007870912756621610151_);fill:#494949;" x1="1299.1" y1="288.2" x2="703.3" y2="1051.6"/>
		<polyline style="clip-path:url(#SVGID_00000152948744090130353690000007870912756621610151_);fill:#333333;" points="
			712.9,1059.1 693.6,1044.1 1289.5,280.7 1308.7,295.7 712.9,1059.1 		"/>
		<polyline style="clip-path:url(#SVGID_00000152948744090130353690000007870912756621610151_);fill:#494949;" points="
			1444.7,582.1 728.6,1022.2 1444.7,582.1 		"/>
		<polyline style="clip-path:url(#SVGID_00000152948744090130353690000007870912756621610151_);fill:#333333;" points="
			731.9,1027.5 725.3,1016.8 1441.4,576.7 1447.9,587.4 731.9,1027.5 		"/>
		<polyline style="clip-path:url(#SVGID_00000152948744090130353690000007870912756621610151_);fill:#494949;" points="
			1644.1,674.4 717,1041.6 1644.1,674.4 		"/>
		<polyline style="clip-path:url(#SVGID_00000152948744090130353690000007870912756621610151_);fill:#333333;" points="
			720.5,1050.6 713.4,1032.6 1640.5,665.4 1647.7,683.4 720.5,1050.6 		"/>
		<polyline style="clip-path:url(#SVGID_00000152948744090130353690000007870912756621610151_);fill:#494949;" points="
			2021.2,584.5 732.1,1035.9 2021.2,584.5 		"/>
		<polyline style="clip-path:url(#SVGID_00000152948744090130353690000007870912756621610151_);fill:#333333;" points="734.6,1043 
			729.6,1028.8 2018.7,577.4 2023.7,591.6 734.6,1043 		"/>
		<polyline style="clip-path:url(#SVGID_00000152948744090130353690000007870912756621610151_);fill:#494949;" points="707,1064.7 
			92,1177.2 707,1064.7 		"/>
		<polyline style="clip-path:url(#SVGID_00000152948744090130353690000007870912756621610151_);fill:#333333;" points="92.8,1181.8 
			91.1,1172.6 706.1,1060.1 707.8,1069.3 92.8,1181.8 		"/>
		<polyline style="clip-path:url(#SVGID_00000152948744090130353690000007870912756621610151_);fill:#494949;" points="
			696.1,1059.8 398.7,1436.5 696.1,1059.8 		"/>
		<polyline style="clip-path:url(#SVGID_00000152948744090130353690000007870912756621610151_);fill:#333333;" points="
			403.6,1440.4 393.8,1432.7 691.2,1055.9 701,1063.7 403.6,1440.4 		"/>
		<polyline style="clip-path:url(#SVGID_00000152948744090130353690000007870912756621610151_);fill:#494949;" points="
			700.5,1058.6 413,1585.2 700.5,1058.6 		"/>
		<polyline style="clip-path:url(#SVGID_00000152948744090130353690000007870912756621610151_);fill:#333333;" points="
			418.5,1588.2 407.5,1582.3 695,1055.6 706,1061.6 418.5,1588.2 		"/>
		<polyline style="clip-path:url(#SVGID_00000152948744090130353690000007870912756621610151_);fill:#494949;" points="
			904.9,2438.5 720.4,1058.6 904.9,2438.5 		"/>
		<polyline style="clip-path:url(#SVGID_00000152948744090130353690000007870912756621610151_);fill:#333333;" points="
			900.3,2439.1 715.7,1059.2 725,1058 909.6,2437.9 900.3,2439.1 		"/>
		<polyline style="clip-path:url(#SVGID_00000152948744090130353690000007870912756621610151_);fill:#494949;" points="
			1524.3,2438.8 720.4,1048.7 1524.3,2438.8 		"/>
		<polyline style="clip-path:url(#SVGID_00000152948744090130353690000007870912756621610151_);fill:#333333;" points="
			1513.7,2444.9 709.8,1054.8 730.9,1042.6 1534.8,2432.6 1513.7,2444.9 		"/>
		<polyline style="clip-path:url(#SVGID_00000152948744090130353690000007870912756621610151_);fill:#494949;" points="
			1618.1,2268.7 716.1,1033.4 1618.1,2268.7 		"/>
		<polyline style="clip-path:url(#SVGID_00000152948744090130353690000007870912756621610151_);fill:#333333;" points="
			1614.3,2271.5 712.3,1036.2 719.9,1030.6 1621.9,2265.9 1614.3,2271.5 		"/>
		<polyline style="clip-path:url(#SVGID_00000152948744090130353690000007870912756621610151_);fill:#494949;" points="
			2020.4,2330.9 728.6,1051.6 2020.4,2330.9 		"/>
		<polyline style="clip-path:url(#SVGID_00000152948744090130353690000007870912756621610151_);fill:#333333;" points="
			2011.8,2339.5 720,1060.2 737.2,1042.9 2029,2322.2 2011.8,2339.5 		"/>
		<polyline style="clip-path:url(#SVGID_00000152948744090130353690000007870912756621610151_);fill:#494949;" points="
			2214.2,1397.3 732.1,1061.6 2214.2,1397.3 		"/>
		<polyline style="clip-path:url(#SVGID_00000152948744090130353690000007870912756621610151_);fill:#333333;" points="2212,1407.4 
			729.8,1071.6 734.4,1051.5 2216.5,1387.2 2212,1407.4 		"/>
		<polyline style="clip-path:url(#SVGID_00000152948744090130353690000007870912756621610151_);fill:#494949;" points="2023.9,1153 
			710.3,1059.8 2023.9,1153 		"/>
		<polyline style="clip-path:url(#SVGID_00000152948744090130353690000007870912756621610151_);fill:#333333;" points="
			2023.6,1157.6 709.9,1064.5 710.6,1055.1 2024.3,1148.3 2023.6,1157.6 		"/>
		
			<ellipse transform="matrix(1 -3.608290e-03 3.608290e-03 1 -2.7458 1.2425)" style="clip-path:url(#SVGID_00000152948744090130353690000007870912756621610151_);fill:#0DF239;" cx="343" cy="761.6" rx="69.8" ry="69.8"/>
		
			<ellipse style="clip-path:url(#SVGID_00000152948744090130353690000007870912756621610151_);fill:#0072C5;" cx="2066" cy="2375.5" rx="125" ry="125"/>
		
			<ellipse style="clip-path:url(#SVGID_00000152948744090130353690000007870912756621610151_);fill:#0072C5;" cx="2272.7" cy="1404.7" rx="132.4" ry="132.4"/>
		
			<ellipse style="clip-path:url(#SVGID_00000152948744090130353690000007870912756621610151_);fill:#00B2C5;" cx="2023.9" cy="1153" rx="78.8" ry="78.8"/>
		<path style="clip-path:url(#SVGID_00000152948744090130353690000007870912756621610151_);fill:#0D7964;" d="M1559.9,2197
			c-14,12-23.8,28.9-26.6,48.1c26.1,1.2,51.9,7.7,75.9,19.3L1559.9,2197 M1611.2,2178c-16.2,0-31.3,4.9-43.8,13.3l54.5,74.6l-4.1,3
			c15.6,8.6,30.2,19.5,43.4,32.7c2.8,2.8,5.5,5.7,8.1,8.6c12.9-14,20.8-32.8,20.8-53.3C1690,2213.3,1654.7,2178,1611.2,2178"/>
		<path style="clip-path:url(#SVGID_00000152948744090130353690000007870912756621610151_);fill:#1C8974;" d="M1567.4,2191.3
			c-2.6,1.7-5.1,3.6-7.5,5.7l49.2,67.4c2.9,1.4,5.8,2.9,8.6,4.5l4.1-3L1567.4,2191.3"/>
		
			<ellipse style="clip-path:url(#SVGID_00000152948744090130353690000007870912756621610151_);fill:#0072C5;" cx="904.9" cy="2440" rx="85.6" ry="85.6"/>
		<path style="clip-path:url(#SVGID_00000152948744090130353690000007870912756621610151_);fill:#095231;" d="M1444.7,514.8
			c-37.1,0-67.3,30.1-67.3,67.3c0,10.7,2.5,20.8,6.9,29.7l57.1-35.1l3.3,5.3l0,0l3.3,5.3l-57.1,35.1c12.3,16.3,31.8,26.9,53.8,26.9
			c2.5,0,5-0.1,7.5-0.4c5.3-39.9,22.7-76,48.4-104.4C1488.4,526.6,1467.9,514.8,1444.7,514.8"/>
		<polyline style="clip-path:url(#SVGID_00000152948744090130353690000007870912756621610151_);fill:#1F6847;" points="
			1444.7,582.1 1444.7,582.1 1444.7,582.1 		"/>
		<path style="clip-path:url(#SVGID_00000152948744090130353690000007870912756621610151_);fill:#186140;" d="M1441.4,576.7
			l-57.1,35.1c1.9,3.8,4.1,7.3,6.6,10.6l57.1-35.1l-3.3-5.3L1441.4,576.7"/>
		<path style="clip-path:url(#SVGID_00000152948744090130353690000007870912756621610151_);fill:#008E9E;" d="M1721,697.5
			l-238.6,83.5c34.6,52.4,94.1,87,161.6,87c57.3,0,108.8-24.9,144.3-64.5C1759.4,773.2,1736.4,737.3,1721,697.5 M1644.1,480.8
			c-57,0-108.2,24.6-143.6,63.7c7.2,10.7,11.4,23.6,11.4,37.5c0,34.6-26.2,63.1-59.8,66.8c-1.1,8.4-1.7,16.9-1.7,25.5
			c0,21.8,3.6,42.7,10.2,62.2l179.8-71.2l7.1,18l-179.8,71.2c2.1,4.5,4.3,9,6.7,13.3l241.4-84.5c-10.6-31.9-16.3-65.9-16.3-101.4
			c0-30.9,4.4-60.7,12.5-89C1691,485.2,1668,480.8,1644.1,480.8"/>
		<path style="clip-path:url(#SVGID_00000152948744090130353690000007870912756621610151_);fill:#0A99A8;" d="M1640.5,665.4
			l-179.8,71.2c2.1,6.1,4.5,12.2,7.1,18l179.8-71.2L1640.5,665.4"/>
		<path style="clip-path:url(#SVGID_00000152948744090130353690000007870912756621610151_);fill:#0A99A8;" d="M1716,683.4
			L1474.5,768c2.5,4.5,5.1,8.9,7.9,13.1l238.6-83.5C1719.2,692.9,1717.6,688.2,1716,683.4"/>
		<path style="clip-path:url(#SVGID_00000152948744090130353690000007870912756621610151_);fill:#029FA7;" d="M1500.5,544.5
			c-25.7,28.4-43.1,64.5-48.4,104.4c33.6-3.7,59.8-32.2,59.8-66.8C1511.9,568.2,1507.7,555.3,1500.5,544.5"/>
		<path style="clip-path:url(#SVGID_00000152948744090130353690000007870912756621610151_);fill:#00A9BB;" d="M1524.3,2244.9
			c-29.6,0-59.2,6.8-86.3,20.2l96.9,167.5l-21.1,12.2l-96.9-167.5c-10.4,7-20.3,15-29.5,24.2c-75.6,75.6-75.6,198.2,0,273.8
			c37.8,37.8,87.4,56.7,136.9,56.7c49.5,0,99.1-18.9,136.9-56.7c72.8-72.8,75.5-189.2,8.1-265.2c-14.4,15.7-35.1,25.5-58,25.5
			c-43.5,0-78.8-35.3-78.8-78.8c0-4,0.3-7.9,0.9-11.7C1530.3,2245,1527.3,2244.9,1524.3,2244.9"/>
		<path style="clip-path:url(#SVGID_00000152948744090130353690000007870912756621610151_);fill:#03ACBE;" d="M1438,2265.1
			c-7.2,3.6-14.3,7.7-21.1,12.2l96.9,167.5l21.1-12.2L1438,2265.1"/>
		<path style="clip-path:url(#SVGID_00000152948744090130353690000007870912756621610151_);fill:#01AFC0;" d="M1533.3,2245.1
			c-0.6,3.8-0.9,7.8-0.9,11.7c0,43.5,35.3,78.8,78.8,78.8c23,0,43.6-9.8,58-25.5c-2.6-2.9-5.3-5.8-8.1-8.6
			c-13.2-13.2-27.8-24.1-43.4-32.7l-3.5,2.6l-5.1-7C1585.2,2252.8,1559.3,2246.3,1533.3,2245.1"/>
		<path style="clip-path:url(#SVGID_00000152948744090130353690000007870912756621610151_);fill:#01B0C1;" d="M1609.2,2264.4l5.1,7
			l3.5-2.6C1614.9,2267.4,1612.1,2265.9,1609.2,2264.4"/>
		<path style="clip-path:url(#SVGID_00000152948744090130353690000007870912756621610151_);fill:#004ECC;" d="M1826.4,326.6
			c-54.2,41.2-94.9,99.3-114.2,166.5c63.5,23.8,111.2,80.1,122.8,148.6l183.8-64.4l5,14.2L1836.9,657c0.5,5.8,0.8,11.6,0.8,17.5
			c0,49.6-18.7,94.9-49.3,129.1c58.4,61.2,140.8,99.3,232,99.3c163.5,0,298.4-122.3,318.2-280.4L1826.4,326.6"/>
		<path style="clip-path:url(#SVGID_00000152948744090130353690000007870912756621610151_);fill:#0A59D6;" d="M2018.7,577.4
			l-183.8,64.4c0.9,5,1.5,10.1,2,15.2l186.8-65.4L2018.7,577.4"/>
		<path style="clip-path:url(#SVGID_00000152948744090130353690000007870912756621610151_);fill:#006BEC;" d="M1836.9,657
			L1721,697.5c15.3,39.8,38.4,75.7,67.3,106c30.7-34.3,49.3-79.5,49.3-129.1C1837.7,668.5,1837.4,662.7,1836.9,657 M1712.1,493.1
			c-8.1,28.2-12.5,58.1-12.5,89c0,35.4,5.7,69.5,16.3,101.4l119-41.7C1823.3,573.2,1775.6,516.9,1712.1,493.1"/>
		<path style="clip-path:url(#SVGID_00000152948744090130353690000007870912756621610151_);fill:#026DEE;" d="M1834.9,641.7
			l-119,41.7c1.6,4.8,3.3,9.5,5.1,14.1l115.9-40.6C1836.5,651.8,1835.8,646.8,1834.9,641.7"/>
		<path style="clip-path:url(#SVGID_00000152948744090130353690000007870912756621610151_);fill:#095231;" d="M77.2,1114.9
			c-24.4,10.1-41.6,34.1-41.6,62.2c0,37.1,30.1,67.3,67.3,67.3s67.3-30.1,67.3-67.3c0-3.2-0.2-6.3-0.6-9.3l-76.6,14l-0.8-4.6h0
			l-0.8-4.6l76.3-14c-1.9-6.6-4.8-12.8-8.5-18.4c-7.9,3.3-16.5,5-25.6,5C109.9,1145.2,89.2,1133.2,77.2,1114.9"/>
		<polyline style="clip-path:url(#SVGID_00000152948744090130353690000007870912756621610151_);fill:#1F6847;" points="92,1177.2 
			92,1177.2 92,1177.2 		"/>
		<path style="clip-path:url(#SVGID_00000152948744090130353690000007870912756621610151_);fill:#186140;" d="M167.5,1158.6
			l-76.3,14l0.8,4.6l0.8,4.6l76.6-14C169,1164.7,168.3,1161.6,167.5,1158.6"/>
		<path style="clip-path:url(#SVGID_00000152948744090130353690000007870912756621610151_);fill:#08462A;" d="M199.4,1065.1h-132
			c-0.8,4.2-1.2,8.5-1.2,12.9c0,13.6,4.1,26.3,11,36.9c7.9-3.3,16.5-5,25.6-5c23.5,0,44.2,12.1,56.2,30.3
			c24.4-10.1,41.6-34.1,41.6-62.2C200.7,1073.6,200.2,1069.3,199.4,1065.1 M133.4,1010.7c-22.3,0-42,10.8-54.2,27.5h108.5
			C175.4,1021.5,155.7,1010.7,133.4,1010.7"/>
		<path style="clip-path:url(#SVGID_00000152948744090130353690000007870912756621610151_);fill:#1C5B3E;" d="M187.7,1038.2H79.2
			c-5.8,7.8-9.9,17-11.8,26.9h132C197.5,1055.2,193.4,1046,187.7,1038.2"/>
		<path style="clip-path:url(#SVGID_00000152948744090130353690000007870912756621610151_);fill:#0B673E;" d="M102.8,1109.9
			c-9.1,0-17.7,1.8-25.6,5c12,18.3,32.7,30.3,56.2,30.3c9.1,0,17.7-1.8,25.6-5C147,1121.9,126.3,1109.9,102.8,1109.9"/>
		
			<ellipse transform="matrix(2.362021e-02 -0.9997 0.9997 2.362021e-02 -683.5697 1456.0695)" style="clip-path:url(#SVGID_00000152948744090130353690000007870912756621610151_);fill:#C0FD00;" cx="403.7" cy="1078" rx="38.9" ry="38.9"/>
		<path style="clip-path:url(#SVGID_00000152948744090130353690000007870912756621610151_);fill:#095231;" d="M695.9,2272.1
			c-20.6,11.5-34.5,33.5-34.5,58.8s13.9,47.3,34.5,58.8V2272.1 M728.6,2263.6c-2,0-3.9,0.1-5.8,0.3v134c1.9,0.2,3.9,0.3,5.8,0.3
			c37.1,0,67.3-30.1,67.3-67.3S765.7,2263.6,728.6,2263.6"/>
		<path style="clip-path:url(#SVGID_00000152948744090130353690000007870912756621610151_);fill:#186140;" d="M722.8,2263.9
			c-9.7,0.8-18.8,3.7-26.9,8.2v117.5c8.1,4.5,17.2,7.4,26.9,8.2V2263.9"/>
		
			<ellipse style="clip-path:url(#SVGID_00000152948744090130353690000007870912756621610151_);fill:#00A8C4;" cx="672.9" cy="2280.3" rx="67.3" ry="67.3"/>
		<path style="clip-path:url(#SVGID_00000152948744090130353690000007870912756621610151_);fill:#1F7D7B;" d="M548.2,541.1
			c-39.7,0-71.9,32.2-71.9,71.9c0,39.7,32.2,71.9,71.9,71.9c5.7,0,11.2-0.7,16.5-1.9l-24-67.6l13.6-4.8l24.1,67.8
			c24.7-11.4,41.8-36.4,41.8-65.4C620.1,573.3,587.9,541.1,548.2,541.1"/>
		<path style="clip-path:url(#SVGID_00000152948744090130353690000007870912756621610151_);fill:#268582;" d="M554.2,610.7
			l-13.6,4.8l24,67.6c4.7-1.1,9.3-2.7,13.6-4.7L554.2,610.7"/>
		<path style="clip-path:url(#SVGID_00000152948744090130353690000007870912756621610151_);fill:#46661D;" d="M493.8,1450.3
			l-15.5,28.3c1.7,1.1,3.4,2.2,5.1,3.3C488.6,1472.2,492.2,1461.6,493.8,1450.3 M398.8,1340.5c-53,0-96,43-96,96
			c0,23,8.1,44.1,21.5,60.6c22.6-22.8,54-36.9,88.7-36.9c19.5,0,37.9,4.5,54.4,12.4l26.6-48.7c-3.1-23.2-14.4-43.8-31-58.7
			l-59.4,75.2l-4.9-3.9l-4.9-3.9l59.4-75.2C437.7,1346.8,419,1340.5,398.8,1340.5"/>
		<path style="clip-path:url(#SVGID_00000152948744090130353690000007870912756621610151_);fill:#55752D;" d="M453.2,1357.4
			l-59.4,75.2l4.9,3.9l4.9,3.9l59.4-75.2C459.9,1362.4,456.6,1359.8,453.2,1357.4"/>
		<path style="clip-path:url(#SVGID_00000152948744090130353690000007870912756621610151_);fill:#55752D;" d="M494,1423.9
			l-26.6,48.7c3.8,1.8,7.4,3.8,11,6l15.5-28.3c0.6-4.5,1-9.1,1-13.7C494.8,1432.2,494.5,1428,494,1423.9"/>
		<path style="clip-path:url(#SVGID_00000152948744090130353690000007870912756621610151_);fill:#05A551;" d="M483.4,1481.9
			c-5.5,10.3-12.9,19.5-21.7,27.1l-43.3,79.2l-11-6l32.1-58.8c-12.4,5.8-26.2,9.1-40.8,9.1c-30,0-56.9-13.8-74.5-35.4
			c-22.4,22.6-36.3,53.7-36.3,88.1c0,69,56,125,125,125s125-56,125-125C538,1542.3,516.4,1504.4,483.4,1481.9"/>
		<path style="clip-path:url(#SVGID_00000152948744090130353690000007870912756621610151_);fill:#0AAA56;" d="M461.7,1509
			c-6.6,5.8-14.1,10.6-22.1,14.4l-32.1,58.8l11,6L461.7,1509"/>
		<path style="clip-path:url(#SVGID_00000152948744090130353690000007870912756621610151_);fill:#0CAF54;" d="M478.3,1478.6
			l-16.6,30.4c8.8-7.6,16.1-16.8,21.7-27.1C481.8,1480.8,480.1,1479.7,478.3,1478.6 M413,1460.2c-34.7,0-66,14.1-88.7,36.9
			c17.6,21.6,44.4,35.4,74.5,35.4c14.6,0,28.4-3.3,40.8-9.1l27.8-50.8C450.9,1464.6,432.5,1460.2,413,1460.2"/>
		<path style="clip-path:url(#SVGID_00000152948744090130353690000007870912756621610151_);fill:#0EB156;" d="M467.4,1472.6
			l-27.8,50.8c8.1-3.8,15.5-8.7,22.1-14.4l16.6-30.4C474.8,1476.4,471.1,1474.4,467.4,1472.6"/>
		
			<circle style="clip-path:url(#SVGID_00000152948744090130353690000007870912756621610151_);fill:#C0FD00;" cx="508.8" cy="1299.7" r="27.4"/>
		<path style="clip-path:url(#SVGID_00000152948744090130353690000007870912756621610151_);fill:#059248;" d="M1124.7,786.1
			l-139.2,85.6c9.1,16.6,23.8,29.7,41.6,36.8l104.2-41.3c5-10.6,7.7-22.3,7.7-34.8C1139,815.2,1133.7,799.2,1124.7,786.1
			 M1057.2,750.6c-45.2,0-81.8,36.6-81.8,81.8c0,9.8,1.7,19.1,4.8,27.8l136.5-83.9C1101.8,760.4,1080.7,750.6,1057.2,750.6"/>
		<path style="clip-path:url(#SVGID_00000152948744090130353690000007870912756621610151_);fill:#0F9D52;" d="M1116.7,776.3
			l-136.5,83.9c1.4,4,3.2,7.8,5.2,11.5l139.2-85.6C1122.3,782.6,1119.6,779.3,1116.7,776.3"/>
		<path style="clip-path:url(#SVGID_00000152948744090130353690000007870912756621610151_);fill:#0F9D52;" d="M1131.3,867.1
			L1027,908.4c9.3,3.7,19.4,5.7,30,5.7l51.3-18C1118,888.4,1125.9,878.5,1131.3,867.1"/>
		<path style="clip-path:url(#SVGID_00000152948744090130353690000007870912756621610151_);fill:#0F9D52;" d="M1108.3,896.2
			l-51.3,18c0,0,0.1,0,0.1,0C1076.6,914.1,1094.3,907.4,1108.3,896.2"/>
		<path style="clip-path:url(#SVGID_00000152948744090130353690000007870912756621610151_);fill:#5A6B1B;" d="M672.9,1292.6
			c-26.5,0-48,21.5-48,48s21.5,48,48,48c8.3,0,16.2-2.1,23-5.9v-79.3c-0.8-1.9-1.5-3.9-2-6C687.5,1294.3,680.4,1292.6,672.9,1292.6"
			/>
		<path style="clip-path:url(#SVGID_00000152948744090130353690000007870912756621610151_);fill:#697B2A;" d="M695.9,1303.4v79.3
			c14.9-8.1,25-23.9,25-42.1c0-5.6-0.9-10.9-2.7-15.8C708.2,1320.9,700.1,1313.2,695.9,1303.4"/>
		<path style="clip-path:url(#SVGID_00000152948744090130353690000007870912756621610151_);fill:#5A6B1B;" d="M1023.3,1360.6
			c-4.8,14.3-13.7,26.7-25.3,35.8c11.8,23.8,36.3,40.2,64.6,40.2c10.9,0,21.3-2.4,30.5-6.8L1023.3,1360.6 M1062.6,1292.5
			c-15.7,0-30.2,5-42,13.5c3.3,7.4,5.4,15.4,6.2,23.8l86.6,85.8c13.1-13,21.2-31.1,21.2-51c0-16.2-5.4-31.2-14.4-43.2
			c-6,4.5-13.5,7.2-21.6,7.2C1078.7,1328.5,1062.6,1312.4,1062.6,1292.5L1062.6,1292.5"/>
		<path style="clip-path:url(#SVGID_00000152948744090130353690000007870912756621610151_);fill:#697B2A;" d="M1026.9,1329.8
			c0.2,2.3,0.3,4.6,0.3,7c0,8.3-1.4,16.4-3.8,23.9l69.8,69.2c7.6-3.6,14.4-8.4,20.3-14.2L1026.9,1329.8"/>
		<path style="clip-path:url(#SVGID_00000152948744090130353690000007870912756621610151_);fill:#404D13;" d="M876.3,1342.6
			c0.9,11.4,4.3,22.1,9.7,31.5c2,2.5,3.8,5.2,5.3,8c4.9,6.6,10.9,12.3,17.7,16.9L876.3,1342.6 M973.6,1311.4
			c-8.7,9.2-20.9,14.9-34.6,14.9c-1.1,0-2.3,0-3.4-0.1l54.9,75.3c2.6-1.5,5-3.2,7.4-5.1c-4.7-9.6-7.4-20.4-7.4-31.9
			c0-10.7,2.3-20.8,6.5-29.9L973.6,1311.4 M892.8,1289.3c-3.9,4.9-7.3,10.3-9.9,16l61.7,106.7c2.3,0.2,4.7,0.3,7.1,0.3
			c10.9,0,21.3-2.3,30.6-6.5l-60.4-82.8C907.3,1317.4,896.2,1304.8,892.8,1289.3 M985.6,1269.2c0.6,3.1,1,6.3,1,9.6
			c0,3.4-0.4,6.8-1.1,10l25.6,25.4c2.9-3,6.1-5.7,9.5-8.2C1013.5,1290,1001.1,1277,985.6,1269.2"/>
		<path style="clip-path:url(#SVGID_00000152948744090130353690000007870912756621610151_);fill:#5A662C;" d="M882.8,1305.3
			c-4.4,9.6-6.8,20.2-6.8,31.4c0,2,0.1,4,0.2,5.9l32.7,56.5c10.3,7.1,22.5,11.7,35.6,12.9L882.8,1305.3"/>
		<path style="clip-path:url(#SVGID_00000152948744090130353690000007870912756621610151_);fill:#5A662C;" d="M921.8,1323.1
			l60.4,82.8c2.9-1.3,5.7-2.8,8.4-4.4l-54.9-75.3C930.8,1325.9,926.1,1324.8,921.8,1323.1"/>
		<path style="clip-path:url(#SVGID_00000152948744090130353690000007870912756621610151_);fill:#5A662C;" d="M985.5,1288.8
			c-1.8,8.6-6,16.4-11.9,22.6l23.4,23.2c3.5-7.6,8.3-14.5,14-20.4L985.5,1288.8"/>
		<path style="clip-path:url(#SVGID_00000152948744090130353690000007870912756621610151_);fill:#6D8221;" d="M997.1,1334.6
			c-4.2,9.1-6.5,19.2-6.5,29.9c0,11.4,2.7,22.3,7.4,31.9c11.6-9.1,20.6-21.5,25.3-35.8L997.1,1334.6 M1020.6,1306
			c-3.4,2.5-6.6,5.2-9.5,8.2l15.7,15.6C1026.1,1321.4,1023.9,1313.4,1020.6,1306"/>
		<path style="clip-path:url(#SVGID_00000152948744090130353690000007870912756621610151_);fill:#758A28;" d="M1011.1,1314.2
			c-5.8,5.9-10.5,12.8-14,20.4l26.2,26c2.5-7.5,3.8-15.5,3.8-23.9c0-2.3-0.1-4.7-0.3-7L1011.1,1314.2"/>
		<path style="clip-path:url(#SVGID_00000152948744090130353690000007870912756621610151_);fill:#062E11;" d="M1281,962.2
			c-27.5,0-49.7,22.3-49.7,49.7c0,9.6,2.7,18.7,7.5,26.3h84.5c4.8-7.6,7.5-16.6,7.5-26.3C1330.7,984.4,1308.5,962.2,1281,962.2"/>
		<path style="clip-path:url(#SVGID_00000152948744090130353690000007870912756621610151_);fill:#244C2F;" d="M1323.2,1038.2h-84.5
			c8.8,14.1,24.4,23.5,42.2,23.5C1298.8,1061.6,1314.5,1052.3,1323.2,1038.2"/>
		
			<circle style="clip-path:url(#SVGID_00000152948744090130353690000007870912756621610151_);fill:#C0FD00;" cx="1122.4" cy="1051.6" r="47.5"/>
		<path style="clip-path:url(#SVGID_00000152948744090130353690000007870912756621610151_);fill:#647A0F;" d="M1180.6,1097.9
			c-0.6,13.7,9.1,26,23,28.3c1.5,0.2,3,0.4,4.4,0.4c13.2,0,24.8-9.6,27-23c0.1-0.6,0.2-1.2,0.2-1.8L1180.6,1097.9 M1208,1071.7
			c-11.1,0-21.1,6.7-25.2,16.9l51.8,3.7c-2.6-10.2-11.1-18.4-22.1-20.2C1210.9,1071.8,1209.4,1071.7,1208,1071.7"/>
		<path style="clip-path:url(#SVGID_00000152948744090130353690000007870912756621610151_);fill:#788F23;" d="M1182.7,1088.6
			c-0.8,1.9-1.4,4-1.7,6.1c-0.2,1.1-0.3,2.1-0.3,3.1l54.6,3.9c0.3-3.3,0-6.4-0.7-9.5L1182.7,1088.6"/>
		<path style="clip-path:url(#SVGID_00000152948744090130353690000007870912756621610151_);fill:#272E0B;" d="M1098.6,1256.5
			c-19.9,0-36,16.1-36,36l0,0c23.6,0,44.5,11.3,57.6,28.8c8.7-6.6,14.4-17,14.4-28.8C1134.6,1272.6,1118.5,1256.5,1098.6,1256.5"/>
		<path style="clip-path:url(#SVGID_00000152948744090130353690000007870912756621610151_);fill:#65791E;" d="M1062.6,1292.5
			c0,19.9,16.1,36,36,36c8.1,0,15.6-2.7,21.6-7.2C1107.1,1303.8,1086.2,1292.5,1062.6,1292.5"/>
		<path style="clip-path:url(#SVGID_00000152948744090130353690000007870912756621610151_);fill:#272E0B;" d="M695.9,1214.7
			c-5.8,6.5-13.5,11.4-22.2,13.8c2.3,17.1,10.4,32.4,22.2,43.9c0,0,0-0.1,0-0.1V1214.7 M811.8,1182.5l10.1,17.4
			c-1-4.1-2.4-8.1-4-11.9c-1.5-1.1-3-2.4-4.4-3.8C812.9,1183.7,812.3,1183.1,811.8,1182.5 M801,1163.8l2.9,5c-0.3-1-0.6-2-0.9-3
			C802.4,1165.2,801.7,1164.5,801,1163.8 M727.3,1145.7c-1.5,0.4-3,0.9-4.5,1.5v102.4c3-0.7,6.1-1.1,9.3-1.1c3.1,0,6.2,0.4,9.1,1.1
			L727.3,1145.7 M748.5,1142.6c-4.1,0-8.1,0.3-12.1,1l14.7,109.7c8.8,4.9,15.6,13.1,18.6,22.9c5.7-3.2,12.3-5,19.3-5
			c4.1,0,8,0.6,11.7,1.8c8.3-7.9,14.7-17.6,18.8-28.5l-58.3-100.7C757.1,1143,752.9,1142.6,748.5,1142.6"/>
		<path style="clip-path:url(#SVGID_00000152948744090130353690000007870912756621610151_);fill:#4A522F;" d="M722.8,1147.1
			c-8.1,2.9-15.5,7.2-22,12.5c4.3,7,6.8,15.3,6.8,24.2c0,11.8-4.4,22.6-11.7,30.8v57.5c4.8-11.2,14.8-19.8,26.9-22.7V1147.1"/>
		<path style="clip-path:url(#SVGID_00000152948744090130353690000007870912756621610151_);fill:#4A522F;" d="M736.5,1143.6
			c-3.1,0.5-6.2,1.2-9.2,2.1l13.9,103.8c3.5,0.8,6.9,2.1,10,3.9L736.5,1143.6"/>
		<path style="clip-path:url(#SVGID_00000152948744090130353690000007870912756621610151_);fill:#4A522F;" d="M761.2,1143.7
			l58.3,100.7c3-8.2,4.7-17,4.7-26.2c0-6.3-0.8-12.4-2.2-18.3l-10.1-17.4c-3.6-4.1-6.2-8.7-7.9-13.6l-2.9-5
			C790.3,1153.5,776.5,1146.3,761.2,1143.7"/>
		<path style="clip-path:url(#SVGID_00000152948744090130353690000007870912756621610151_);fill:#056D05;" d="M962.4,1124.3
			c-5.6,5.5-9.1,13.2-9.1,21.7c0,14.4,10,26.5,23.5,29.7c6.2-14.4,20.5-24.5,37.2-24.7c0.3-1.6,0.4-3.3,0.4-5
			c0-3.6-0.6-7.1-1.8-10.3L962.4,1124.3"/>
		<path style="clip-path:url(#SVGID_00000152948744090130353690000007870912756621610151_);fill:#198119;" d="M983.8,1115.5
			c-8.4,0-15.9,3.4-21.4,8.8l50.2,11.4C1008.3,1123.9,997,1115.5,983.8,1115.5"/>
		<path style="clip-path:url(#SVGID_00000152948744090130353690000007870912756621610151_);fill:#056D05;" d="M1014.4,1151
			c-0.2,0-0.3,0-0.5,0c-2.4,14.5-15,25.5-30.1,25.5c-2.4,0-4.8-0.3-7-0.8c-2.2,5-3.4,10.5-3.4,16.3c0,22.7,18.4,41,41,41
			c22.7,0,41-18.4,41-41S1037.1,1151,1014.4,1151"/>
		<path style="clip-path:url(#SVGID_00000152948744090130353690000007870912756621610151_);fill:#079807;" d="M1013.9,1151
			c-16.6,0.2-30.9,10.3-37.2,24.7c2.3,0.5,4.6,0.8,7,0.8C999,1176.5,1011.5,1165.5,1013.9,1151"/>
		<path style="clip-path:url(#SVGID_00000152948744090130353690000007870912756621610151_);fill:#083F17;" d="M985.9,1532.2
			c1.8,7.9,5.9,14.9,11.7,20.2L985.9,1532.2 M1023.8,1484.9c-11.7,0-22.2,5.2-29.3,13.4l36.8,63.6c17.9-3.5,31.4-19.2,31.4-38.1
			c0-3.2-0.4-6.4-1.1-9.4l-17.3-23.7C1038.2,1487,1031.3,1484.9,1023.8,1484.9"/>
		<path style="clip-path:url(#SVGID_00000152948744090130353690000007870912756621610151_);fill:#1F562E;" d="M994.4,1498.3
			c-5.9,6.8-9.5,15.7-9.5,25.5c0,2.9,0.3,5.7,0.9,8.4l11.7,20.2c6.9,6.3,16.1,10.2,26.2,10.2c2.5,0,5-0.2,7.4-0.7L994.4,1498.3"/>
		<path style="clip-path:url(#SVGID_00000152948744090130353690000007870912756621610151_);fill:#1F562E;" d="M1044.2,1490.7
			l17.3,23.7C1059,1504.4,1052.7,1495.9,1044.2,1490.7"/>
		<path style="clip-path:url(#SVGID_00000152948744090130353690000007870912756621610151_);fill:#5A6B1B;" d="M880.1,992l-99.5,34.9
			l-4.3,1.7c2,3.5,4.4,6.7,7.1,9.6h82.6c9.2-10,14.8-23.3,14.8-37.9C880.7,997.5,880.5,994.7,880.1,992 M853.9,952.5l-85.1,52.3
			c0.2,1.9,0.4,3.8,0.7,5.6l102.2-40.5C867.2,962.8,861.1,956.9,853.9,952.5 M824.7,944.3c-10.2,0-19.8,2.7-28.1,7.5l-25.8,33.1
			c-0.4,1.6-0.8,3.1-1.1,4.7l70.3-43.2C835.1,945,830,944.3,824.7,944.3"/>
		<path style="clip-path:url(#SVGID_00000152948744090130353690000007870912756621610151_);fill:#697B2A;" d="M865.9,1038.2h-82.6
			c10.2,11.1,24.9,18.1,41.3,18.1C841,1056.3,855.7,1049.3,865.9,1038.2"/>
		<path style="clip-path:url(#SVGID_00000152948744090130353690000007870912756621610151_);fill:#697B2A;" d="M796.6,951.8
			c-12.4,7.2-21.8,19-25.8,33.1L796.6,951.8"/>
		<path style="clip-path:url(#SVGID_00000152948744090130353690000007870912756621610151_);fill:#697B2A;" d="M840,946.4l-70.3,43.2
			c-0.7,3.5-1,7-1,10.7c0,1.5,0.1,3,0.2,4.5l85.1-52.3C849.6,949.9,844.9,947.8,840,946.4"/>
		<path style="clip-path:url(#SVGID_00000152948744090130353690000007870912756621610151_);fill:#697B2A;" d="M780.6,1026.9
			l-4.4,1.5c0,0.1,0.1,0.1,0.1,0.2L780.6,1026.9 M871.7,969.9l-102.2,40.5c0.3,1.4,0.6,2.8,0.9,4.1l105.4-36.9
			C874.7,974.9,873.3,972.3,871.7,969.9"/>
		<path style="clip-path:url(#SVGID_00000152948744090130353690000007870912756621610151_);fill:#697B2A;" d="M875.9,977.6
			l-105.4,36.9c1.3,4.9,3.2,9.6,5.7,13.9l4.4-1.5l99.5-34.9C879.3,986.9,877.9,982.1,875.9,977.6"/>
		<path style="clip-path:url(#SVGID_00000152948744090130353690000007870912756621610151_);fill:#709B1C;" d="M722.8,819.9v96.3
			c18.1-8.4,30.7-26.8,30.7-48.1C753.5,846.7,740.9,828.3,722.8,819.9 M695.9,815.2c-27.2,2.3-48.5,25.1-48.5,52.9
			c0,2,0.1,4,0.3,5.9l8.1,22.8c8.7,13.5,23.3,22.8,40.1,24.2V815.2"/>
		<path style="clip-path:url(#SVGID_00000152948744090130353690000007870912756621610151_);fill:#7FAA2B;" d="M700.4,815
			c-1.5,0-3.1,0.1-4.6,0.2v105.7c1.5,0.1,3,0.2,4.6,0.2c8,0,15.5-1.8,22.3-4.9v-96.3C716,816.8,708.4,815,700.4,815"/>
		<path style="clip-path:url(#SVGID_00000152948744090130353690000007870912756621610151_);fill:#7FAA2B;" d="M647.7,874
			c0.9,8.3,3.8,16.1,8.1,22.8L647.7,874"/>
		
			<circle style="clip-path:url(#SVGID_00000152948744090130353690000007870912756621610151_);fill:#C0FD00;" cx="748.5" cy="946" r="47.5"/>
		<path style="clip-path:url(#SVGID_00000152948744090130353690000007870912756621610151_);fill:#5A6B1B;" d="M722.8,1111.9v4.3
			c0.2,0.3,0.5,0.6,0.7,0.8L722.8,1111.9 M729,1088.1l5.1,37.9c6,3.6,12.9,5.7,20.3,6L729,1088.1 M777,1082.3l19.9,19.7
			c1.3-4,1.9-8.3,1.9-12.8c0-0.7,0-1.3,0-2L777,1082.3"/>
		<path style="clip-path:url(#SVGID_00000152948744090130353690000007870912756621610151_);fill:#697B2A;" d="M717.3,1071.1
			c-2.6,5.5-4,11.7-4,18.2c0,10.2,3.6,19.5,9.5,26.9v-4.3L717.3,1071.1"/>
		<path style="clip-path:url(#SVGID_00000152948744090130353690000007870912756621610151_);fill:#697B2A;" d="M756.1,1046.5
			c-4.6,0-9,0.7-13.2,2.1l6.4,6.4l19.1,4.3l19.4,1.4C780,1051.9,768.7,1046.5,756.1,1046.5"/>
		<path style="clip-path:url(#SVGID_00000152948744090130353690000007870912756621610151_);fill:#697B2A;" d="M718.2,1069.3
			c-0.3,0.6-0.6,1.2-0.9,1.8l5.5,40.8l0.7,5.1c3,3.6,6.6,6.6,10.7,9l-5.1-37.9L718.2,1069.3"/>
		<path style="clip-path:url(#SVGID_00000152948744090130353690000007870912756621610151_);fill:#697B2A;" d="M720.6,1065.2
			c-0.9,1.3-1.7,2.7-2.5,4.1l10.9,18.8l25.4,43.9c0.5,0,1.1,0,1.6,0c8,0,15.5-2.2,21.9-6l-22.3-30.6l-23.5-23.3l-2.3-0.5l0.3-1.4
			l-4.7-4.7L720.6,1065.2"/>
		<path style="clip-path:url(#SVGID_00000152948744090130353690000007870912756621610151_);fill:#697B2A;" d="M755.6,1095.5
			l22.3,30.6c1.8-1,3.4-2.2,5-3.5L755.6,1095.5"/>
		<path style="clip-path:url(#SVGID_00000152948744090130353690000007870912756621610151_);fill:#697B2A;" d="M732.1,1072.1
			l23.5,23.3l27.4,27.1c6.5-5.2,11.4-12.4,14-20.5l-19.9-19.7L732.1,1072.1 M725.4,1065.6l4.7,4.7l1-4.2L725.4,1065.6 M734.1,1052.5
			c-1.9,1.2-3.8,2.5-5.5,3.9l4.5,0.3L734.1,1052.5 M742.9,1048.5c-2.6,0.8-5.1,1.9-7.4,3.2l13.9,3.1L742.9,1048.5"/>
		<path style="clip-path:url(#SVGID_00000152948744090130353690000007870912756621610151_);fill:#697B2A;" d="M731.1,1066l-1,4.2
			l-0.3,1.4l2.3,0.5l44.9,10.2l21.8,4.9c-0.3-6-1.8-11.7-4.3-16.8L731.1,1066 M735.4,1051.8c-0.4,0.2-0.9,0.5-1.3,0.8l-1,4.2
			l35.2,2.5l-19.1-4.3L735.4,1051.8"/>
		<path style="clip-path:url(#SVGID_00000152948744090130353690000007870912756621610151_);fill:#697B2A;" d="M728.7,1056.4
			c-3.1,2.6-5.8,5.5-8,8.8l4.8,0.3l5.7,0.4l63.4,4.5c-1.8-3.6-4-6.9-6.7-9.9l-19.4-1.4l-35.2-2.5L728.7,1056.4"/>
		<path style="clip-path:url(#SVGID_00000152948744090130353690000007870912756621610151_);fill:#5A6B1B;" d="M802,1159
			c0.2,2.3,0.5,4.6,1.1,6.9c6.1,6.4,11.2,13.9,14.8,22.1c2.8,2.1,5.8,3.8,9,5L802,1159 M804.1,1143.5c-0.2,0.6-0.4,1.1-0.5,1.7
			l36.9,50.6c0.3,0,0.6,0,0.9,0c4.5,0,9-0.8,13.3-2.3L804.1,1143.5 M841.3,1117c-7.8,0-15.6,2.3-22.3,6.9l55,54.5
			c10.3-15.3,8.7-36.3-4.8-49.9C861.5,1120.8,851.4,1117,841.3,1117"/>
		<path style="clip-path:url(#SVGID_00000152948744090130353690000007870912756621610151_);fill:#697B2A;" d="M803.5,1145.2
			c-1.3,4.5-1.8,9.2-1.5,13.8l24.8,34c4.4,1.7,9,2.6,13.6,2.7L803.5,1145.2"/>
		<path style="clip-path:url(#SVGID_00000152948744090130353690000007870912756621610151_);fill:#697B2A;" d="M819,1123.9
			c-1.9,1.3-3.8,2.9-5.5,4.6c-4.4,4.4-7.5,9.5-9.4,15l50.5,50c5.3-1.9,10.3-5,14.6-9.3c1.8-1.8,3.4-3.8,4.8-5.8L819,1123.9"/>
		<path style="clip-path:url(#SVGID_00000152948744090130353690000007870912756621610151_);fill:#65791E;" d="M803.1,1165.9
			c0.2,1,0.5,2,0.9,3l7.9,13.6c0.5,0.6,1.1,1.2,1.6,1.7c1.4,1.4,2.9,2.7,4.4,3.8C814.2,1179.8,809.2,1172.3,803.1,1165.9"/>
		<path style="clip-path:url(#SVGID_00000152948744090130353690000007870912756621610151_);fill:#708429;" d="M803.9,1168.9
			c1.6,4.9,4.3,9.5,7.9,13.6L803.9,1168.9"/>
		<path style="clip-path:url(#SVGID_00000152948744090130353690000007870912756621610151_);fill:#5A6B1B;" d="M722.8,1289.3v36.8
			c3,0.7,6.1,1.1,9.3,1.1c6.8,0,13.2-1.7,18.8-4.8l-0.5-3.8c-0.4-1.8-0.6-3.6-0.7-5.5l-2.6-19.3
			C738.6,1293.6,730.4,1292,722.8,1289.3 M695.8,1272.3c-2,4.7-3.1,10-3.1,15.5c0,3.3,0.4,6.5,1.2,9.6c0.7,0.3,1.4,0.7,2,1
			L695.8,1272.3C695.9,1272.4,695.8,1272.4,695.8,1272.3"/>
		<path style="clip-path:url(#SVGID_00000152948744090130353690000007870912756621610151_);fill:#697B2A;" d="M695.9,1272.4v26
			c10.3,5.7,18.4,15,22.3,26.3c1.5,0.6,3,1,4.6,1.4v-36.8C712.6,1285.6,703.5,1279.8,695.9,1272.4"/>
		<path style="clip-path:url(#SVGID_00000152948744090130353690000007870912756621610151_);fill:#697B2A;" d="M750.4,1318.6l0.5,3.8
			c0.1-0.1,0.3-0.2,0.4-0.2C751,1321,750.7,1319.8,750.4,1318.6 M753.4,1293.6c-1.6,0.1-3.2,0.2-4.9,0.2c-0.5,0-1,0-1.5,0l2.6,19.3
			c-0.1-0.8-0.1-1.7-0.1-2.5C749.6,1304.5,751,1298.8,753.4,1293.6"/>
		<path style="clip-path:url(#SVGID_00000152948744090130353690000007870912756621610151_);fill:#758B23;" d="M693.8,1297.4
			c0.5,2.1,1.2,4.1,2,6v-4.9C695.2,1298.1,694.5,1297.7,693.8,1297.4"/>
		<path style="clip-path:url(#SVGID_00000152948744090130353690000007870912756621610151_);fill:#799027;" d="M695.9,1298.4v4.9
			c4.2,9.8,12.3,17.5,22.3,21.3C714.2,1313.4,706.2,1304.1,695.9,1298.4"/>
		<path style="clip-path:url(#SVGID_00000152948744090130353690000007870912756621610151_);fill:#65791E;" d="M695.9,1272.2
			c0,0,0,0.1,0,0.1c0,0,0,0,0,0V1272.2 M751.1,1253.3l4.8,35.8c3.5-5.3,8.2-9.8,13.8-12.9C766.7,1266.4,760,1258.2,751.1,1253.3
			 M732.1,1248.4c-3.2,0-6.3,0.4-9.3,1.1v39.8c7.6,2.8,15.8,4.3,24.3,4.5l-5.9-44.3C738.2,1248.8,735.2,1248.4,732.1,1248.4"/>
		<path style="clip-path:url(#SVGID_00000152948744090130353690000007870912756621610151_);fill:#708429;" d="M722.8,1249.5
			c-12.1,2.9-22.1,11.5-26.9,22.7v0.2c7.6,7.4,16.7,13.2,26.9,16.9V1249.5"/>
		<path style="clip-path:url(#SVGID_00000152948744090130353690000007870912756621610151_);fill:#708429;" d="M741.2,1249.5
			l5.9,44.3c0.5,0,1,0,1.5,0c1.6,0,3.3-0.1,4.9-0.2c0.7-1.6,1.6-3.1,2.5-4.5l-4.8-35.8C748.1,1251.6,744.7,1250.3,741.2,1249.5"/>
		<path style="clip-path:url(#SVGID_00000152948744090130353690000007870912756621610151_);fill:#5A6B1B;" d="M800.7,1272.9
			c-8.2,7.8-18.2,13.8-29.3,17.3c-0.6,10.1-5,19.2-11.9,25.8l3.2,23.9c3.4,3.1,7.4,5.5,11.7,7.2c-2.2-4.1-3.5-8.7-3.5-13.7
			c0-15.9,12.9-28.7,28.7-28.7c12.1,0,22.5,7.5,26.7,18.2c1.3-3.9,2-8,2-12.3C828.4,1292.9,816.7,1277.9,800.7,1272.9"/>
		<path style="clip-path:url(#SVGID_00000152948744090130353690000007870912756621610151_);fill:#697B2A;" d="M759.5,1316.1
			c-2.4,2.4-5.2,4.4-8.2,6.1c2.1,6.9,6.1,13,11.4,17.8L759.5,1316.1"/>
		<path style="clip-path:url(#SVGID_00000152948744090130353690000007870912756621610151_);fill:#65791E;" d="M789,1271.2
			c-7,0-13.6,1.8-19.3,5c1.1,3.7,1.7,7.6,1.7,11.6c0,0.8,0,1.6-0.1,2.5c11.1-3.5,21.1-9.5,29.3-17.3
			C797,1271.8,793.1,1271.2,789,1271.2"/>
		<path style="clip-path:url(#SVGID_00000152948744090130353690000007870912756621610151_);fill:#758B23;" d="M749.7,1313.1
			c0.1,1.9,0.4,3.7,0.7,5.5L749.7,1313.1 M771.4,1290.3c-4.8,1.5-9.8,2.6-14.9,3.1l3,22.7C766.4,1309.4,770.8,1300.4,771.4,1290.3"
			/>
		<path style="clip-path:url(#SVGID_00000152948744090130353690000007870912756621610151_);fill:#799027;" d="M756.5,1293.4
			c-1,0.1-2.1,0.2-3.1,0.3c-2.4,5.1-3.8,10.9-3.8,16.9c0,0.8,0,1.7,0.1,2.5l0.7,5.5c0.3,1.2,0.6,2.4,0.9,3.6c3-1.7,5.8-3.7,8.2-6.1
			L756.5,1293.4"/>
		<path style="clip-path:url(#SVGID_00000152948744090130353690000007870912756621610151_);fill:#788F24;" d="M769.7,1276.2
			c-5.6,3.1-10.3,7.6-13.8,12.9l0.6,4.2c5.1-0.5,10.1-1.6,14.9-3.1c0-0.8,0.1-1.6,0.1-2.5C771.5,1283.8,770.9,1279.9,769.7,1276.2"
			/>
		<path style="clip-path:url(#SVGID_00000152948744090130353690000007870912756621610151_);fill:#7B9327;" d="M755.9,1289.1
			c-0.9,1.4-1.8,2.9-2.5,4.5c1-0.1,2.1-0.2,3.1-0.3L755.9,1289.1"/>
		<path style="clip-path:url(#SVGID_00000152948744090130353690000007870912756621610151_);fill:#C0FD00;" d="M939.1,1231.4
			c26.2,0,47.5,21.3,47.5,47.5c0,26.2-21.3,47.5-47.5,47.5c-26.2,0-47.5-21.3-47.5-47.5C891.6,1252.6,912.9,1231.4,939.1,1231.4"/>
		<path style="clip-path:url(#SVGID_00000152948744090130353690000007870912756621610151_);fill:#ADE400;" d="M872.8,1211.5
			c-4,5.5-6.4,12.2-6.6,19.5l24.7,33.8c0.9,0.3,1.8,0.5,2.7,0.7c2.4-8,6.8-15.2,12.7-20.8L872.8,1211.5 M900.6,1197.4
			c-2.3,0-4.6,0.2-6.7,0.7l34.8,34.5c2.1-0.5,4.2-0.8,6.3-1C934.8,1212.7,919.5,1197.4,900.6,1197.4"/>
		<path style="clip-path:url(#SVGID_00000152948744090130353690000007870912756621610151_);fill:#B2E905;" d="M866.2,1231
			c0,0.3,0,0.5,0,0.8c0,15.6,10.4,28.8,24.7,33L866.2,1231"/>
		<path style="clip-path:url(#SVGID_00000152948744090130353690000007870912756621610151_);fill:#B2E905;" d="M893.8,1198
			c-8.6,1.7-16.1,6.6-21.1,13.5l33.4,33.1c6.1-5.9,13.9-10.2,22.5-12.1L893.8,1198"/>
		<path style="clip-path:url(#SVGID_00000152948744090130353690000007870912756621610151_);fill:#C0FD00;" d="M935,1231.5
			c-2.1,0.2-4.3,0.5-6.3,1c-8.6,1.9-16.3,6.2-22.5,12.1c-5.9,5.7-10.3,12.8-12.7,20.8c2.3,0.5,4.6,0.7,7,0.7
			c19,0,34.4-15.4,34.4-34.4C935,1231.7,935,1231.6,935,1231.5"/>
		<path style="clip-path:url(#SVGID_00000152948744090130353690000007870912756621610151_);fill:#647A0F;" d="M784.2,1570.9
			c-13,3.9-22.5,15.9-22.5,30.2c0,17.2,13.7,31.1,30.8,31.5L784.2,1570.9 M793.4,1569.6l8.3,61.8c13.2-3.7,22.9-15.9,22.9-30.3
			C824.6,1583.8,810.7,1569.8,793.4,1569.6"/>
		<path style="clip-path:url(#SVGID_00000152948744090130353690000007870912756621610151_);fill:#788F23;" d="M793.1,1569.6
			c-3.1,0-6.1,0.5-9,1.3l8.2,61.7c0.2,0,0.5,0,0.7,0c3,0,5.9-0.4,8.6-1.2l-8.3-61.8C793.3,1569.6,793.2,1569.6,793.1,1569.6"/>
		<path style="clip-path:url(#SVGID_00000152948744090130353690000007870912756621610151_);fill:#06B75A;" d="M820.2,1415.1
			c43.1,0,78,34.9,78,78c0,43.1-34.9,78-78,78c-43.1,0-78-34.9-78-78C742.2,1450,777.2,1415.1,820.2,1415.1"/>
		<path style="clip-path:url(#SVGID_00000152948744090130353690000007870912756621610151_);fill:#083F17;" d="M649.4,1139.2
			c-4.3,1.2-8.4,2.9-12.1,5.2l-19.9,25.3c-1.4,4.5-2.2,9.3-2.2,14.2c0,4.9,0.8,9.7,2.2,14.1L649.4,1139.2 M664.4,1137.7l-40.2,73.7
			c8.4,11.4,21.9,18.7,37.2,18.7c4.3,0,8.4-0.6,12.3-1.7c-0.5-3.4-0.7-6.8-0.7-10.3c0-21.3,8.8-40.5,22.9-54.2v-10.9
			C688,1144.3,676.9,1138.5,664.4,1137.7"/>
		<path style="clip-path:url(#SVGID_00000152948744090130353690000007870912756621610151_);fill:#1F562E;" d="M695.9,1153.1v10.9
			c1.6-1.5,3.2-3,4.9-4.4C699.3,1157.3,697.7,1155.1,695.9,1153.1"/>
		<path style="clip-path:url(#SVGID_00000152948744090130353690000007870912756621610151_);fill:#1F562E;" d="M637.3,1144.4
			c-9.4,5.7-16.5,14.7-19.9,25.3L637.3,1144.4"/>
		<path style="clip-path:url(#SVGID_00000152948744090130353690000007870912756621610151_);fill:#1F562E;" d="M661.3,1137.6
			c-4.1,0-8.2,0.5-12,1.6l-32.1,58.8c1.6,4.9,3.9,9.4,6.9,13.4l40.2-73.7C663.4,1137.7,662.4,1137.6,661.3,1137.6"/>
		<path style="clip-path:url(#SVGID_00000152948744090130353690000007870912756621610151_);fill:#19531C;" d="M695.9,1164
			c-14.1,13.7-22.9,32.9-22.9,54.2c0,3.5,0.2,6.9,0.7,10.3c8.7-2.4,16.4-7.3,22.2-13.8V1164"/>
		<path style="clip-path:url(#SVGID_00000152948744090130353690000007870912756621610151_);fill:#29642C;" d="M700.8,1159.7
			c-1.7,1.4-3.3,2.8-4.9,4.4v50.7c7.3-8.2,11.7-19,11.7-30.8C707.6,1175,705.1,1166.7,700.8,1159.7"/>
		<path style="clip-path:url(#SVGID_00000152948744090130353690000007870912756621610151_);fill:#4BC72C;" d="M840.7,1352.2
			c-31.7,0-57.4,25.7-57.4,57.4c0,4.8,0.6,9.5,1.7,13.9c10.6-5.4,22.5-8.4,35.2-8.4c26.1,0,49.3,12.8,63.4,32.6
			c9-10.1,14.5-23.5,14.5-38.1c0-9.9-2.5-19.3-6.9-27.4c-1.9-2.6-3.7-5.2-5.3-8C875.4,1360.7,859.1,1352.2,840.7,1352.2"/>
		<path style="clip-path:url(#SVGID_00000152948744090130353690000007870912756621610151_);fill:#51CF2E;" d="M885.9,1374.1
			c1.6,2.8,3.4,5.5,5.3,8C889.7,1379.3,887.9,1376.6,885.9,1374.1"/>
		<path style="clip-path:url(#SVGID_00000152948744090130353690000007870912756621610151_);fill:#4BD935;" d="M820.2,1415.1
			c-12.7,0-24.6,3-35.2,8.4c6.2,25,28.8,43.5,55.7,43.5c17.1,0,32.4-7.4,42.9-19.3C869.5,1428,846.4,1415.1,820.2,1415.1"/>
		<path style="clip-path:url(#SVGID_00000152948744090130353690000007870912756621610151_);fill:#4BC72C;" d="M826.4,1322.9
			c-5.2,15.7-20,27.1-37.4,27.1c-5.2,0-10.1-1-14.6-2.8c4.9,9,14.4,15.1,25.3,15.1c15.9,0,28.7-12.9,28.7-28.7
			C828.4,1329.8,827.7,1326.2,826.4,1322.9"/>
		<path style="clip-path:url(#SVGID_00000152948744090130353690000007870912756621610151_);fill:#54D22F;" d="M799.7,1304.8
			c-15.9,0-28.7,12.9-28.7,28.7c0,5,1.3,9.6,3.5,13.7c4.5,1.8,9.4,2.8,14.6,2.8c17.4,0,32.2-11.3,37.4-27.1
			C822.2,1312.3,811.8,1304.8,799.7,1304.8"/>
		<path style="clip-path:url(#SVGID_00000152948744090130353690000007870912756621610151_);fill:#D4EF0F;" d="M419.3,2022
			c-7.5,6.9-15.9,12.8-25,17.3c-9.1,4.4-19.5,6.7-31.2,6.7c-9.1,0.1-18.2-1.5-26.7-4.6c-7.7-2.8-14.9-7.1-21-12.6
			c-5.8-5.1-10.5-11.4-13.7-18.5c-3.2-7-4.9-14.7-4.9-22.4c0-8.4,1.2-15.9,3.7-22.4c2.3-6.2,5.7-11.9,10-17c4.1-4.8,9-8.9,14.5-12.1
			c5.5-3.2,11.4-5.9,17.4-7.9c6-2,12.3-3.4,18.6-4.2c6-0.8,12.1-1.2,18.2-1.3c9.2,0,17,0.3,23.2,0.9c5.7,0.5,11.4,1.3,17,2.4
			l0.2-16.3c0.1-6.2-0.9-12.5-3.1-18.3c-1.9-4.9-4.8-9.3-8.6-12.8c-3.8-3.5-8.4-6-13.3-7.6c-5.6-1.7-11.5-2.6-17.4-2.5
			c-5.8,0-11.6,0.4-17.3,1.3c-5.2,0.8-10.4,1.8-15.4,3.2c-4.5,1.2-8.9,2.7-13.2,4.6c-3.6,1.5-7,3.3-10.3,5.5l-11.7-24.7
			c10.3-6.6,21.6-11.7,33.3-15.2c6.2-1.8,12.6-3.3,19-4.4c6.3-1.1,12.7-1.6,19.1-1.6c11.5,0,21.9,1.4,31.1,4.1
			c8.7,2.4,16.7,6.8,23.4,12.8c6.6,6,11.7,13.6,14.8,22c3.5,8.9,5.2,19.5,5.2,32l-0.2,99.3h22v33h-57.7L419.3,2022z M370.9,2016
			c4.8,0,9.6-0.6,14.2-1.7c9-2.2,17.6-6.1,25.1-11.5c3.3-2.4,6.3-5.1,9-8.2l0.2-44.9H378c-6.4-0.1-12.7,0.7-18.9,2.3
			c-5.3,1.4-10.3,3.6-14.8,6.7c-8.5,5.9-13.4,15.6-13.2,25.9c-0.1,4.7,0.9,9.4,2.9,13.7c1.9,3.9,4.7,7.2,8.2,9.8
			c3.8,2.7,8.1,4.8,12.6,6C360.1,2015.4,365.5,2016.1,370.9,2016L370.9,2016z"/>
		<path style="clip-path:url(#SVGID_00000152948744090130353690000007870912756621610151_);fill:#D4EF0F;" d="M509.4,1841.7h63.3
			v16.5c8.4-6.5,17.7-11.7,27.6-15.5c9.8-3.8,20.3-5.7,30.8-5.7c12.3-0.2,24.6,2.3,35.8,7.3c10.7,4.8,20.3,11.7,28.1,20.5
			c8.1,9.3,14.3,20.1,18.3,31.7c4.4,12.4,6.5,26,6.5,40.9c0,16-2.4,30.6-7.3,43.8c-4.5,12.5-11.3,24-20.3,33.8
			c-8.6,9.4-19.1,16.8-30.8,22c-11.9,5.2-24.9,7.8-39.2,7.8c-9.1,0.1-18.2-0.9-27-3.1c-7.7-2-15.3-4.8-22.5-8.2v64.3h31.1v33h-94.3
			v-33H537v-223.1h-27.6V1841.7z M621.8,1868.3c-9.1,0-18.2,1.9-26.6,5.6c-8.3,3.6-15.8,8.8-22.1,15.3v107.5
			c4.2,4.4,10.3,8.2,18.2,11.7c7.9,3.5,17.7,5.2,29.5,5.2c8.1,0,16.1-1.6,23.6-4.8c7.6-3.2,14.4-8.1,19.9-14.3
			c5.7-6.3,10.3-14.1,13.8-23.5c3.5-9.4,5.2-20.1,5.2-32.4c0-11.2-1.6-21.2-4.9-30c-2.9-8.2-7.4-15.6-13.2-22
			c-5.4-5.9-12.1-10.6-19.5-13.7C638.1,1869.8,630,1868.3,621.8,1868.3L621.8,1868.3z"/>
		<path style="clip-path:url(#SVGID_00000152948744090130353690000007870912756621610151_);fill:#D4EF0F;" d="M748.9,1841.7h63.3
			v16.5c8.4-6.5,17.7-11.7,27.6-15.5c9.8-3.8,20.3-5.7,30.8-5.7c12.3-0.2,24.6,2.3,35.8,7.3c10.7,4.8,20.3,11.8,28.1,20.5
			c7.9,8.8,14,19.4,18.3,31.7s6.5,26,6.5,40.9c0,16-2.4,30.6-7.3,43.8c-4.5,12.5-11.3,24-20.3,33.8c-8.6,9.4-19.1,16.8-30.8,22
			c-11.9,5.2-24.9,7.8-39.2,7.8c-9.1,0.1-18.2-0.9-27-3.1c-7.7-2-15.3-4.8-22.5-8.2v64.3h31.1v33h-94.3v-33h27.2v-223.1h-27.6
			V1841.7z M861.3,1868.3c-9.1,0-18.2,1.9-26.6,5.6c-8.3,3.6-15.8,8.8-22.1,15.3v107.5c4.2,4.4,10.3,8.2,18.2,11.7
			c7.9,3.5,17.7,5.2,29.5,5.2c8.1,0,16.1-1.6,23.6-4.8c7.6-3.2,14.4-8.1,19.9-14.3c5.7-6.3,10.3-14.1,13.8-23.5
			c3.5-9.4,5.2-20.1,5.2-32.4c0-11.2-1.6-21.2-4.9-30c-2.9-8.2-7.4-15.6-13.2-22c-5.4-5.9-12.1-10.6-19.5-13.7
			C877.6,1869.9,869.5,1868.3,861.3,1868.3L861.3,1868.3z"/>
		<polygon style="clip-path:url(#SVGID_00000152948744090130353690000007870912756621610151_);fill:#D4EF0F;" points="994.8,1742 
			1059.2,1742 1059.2,2007.4 1089.1,2007.4 1089.1,2040.4 994.8,2040.4 994.8,2007.4 1023.5,2007.4 1023.5,1774.9 994.8,1774.9 		
			"/>
		<path style="clip-path:url(#SVGID_00000152948744090130353690000007870912756621610151_);fill:#D4EF0F;" d="M1122.5,1841.7h64.8
			v165.7h30v33h-94.4v-33h28.4v-132.7h-28.7L1122.5,1841.7L1122.5,1841.7z M1144.6,1771.3c0-3.3,0.7-6.5,2-9.5
			c1.3-2.9,3.1-5.6,5.4-7.8c2.3-2.3,5-4.1,7.9-5.3c3.1-1.4,6.4-2,9.8-2c3.3,0,6.5,0.7,9.5,2c5.9,2.6,10.6,7.3,13.2,13.2
			c1.4,3,2,6.2,2,9.5c0,3.4-0.7,6.7-2,9.8c-1.3,3-3.2,5.8-5.4,8.2c-2.2,2.3-4.9,4.2-7.8,5.6c-3,1.4-6.2,2-9.5,2
			c-6.7,0-13.1-2.7-17.8-7.6c-2.2-2.4-4.1-5.2-5.4-8.2C1145.2,1778,1144.6,1774.7,1144.6,1771.3L1144.6,1771.3z"/>
		<path style="clip-path:url(#SVGID_00000152948744090130353690000007870912756621610151_);fill:#D4EF0F;" d="M1393.5,1894.6
			c-5.4-9.6-12.2-16.6-20.4-21.1c-8.2-4.4-17.8-6.7-28.7-6.7c-8.1-0.1-16.1,1.7-23.4,5.2c-7.3,3.5-13.9,8.5-19.1,14.8
			c-5.7,6.9-10.1,14.8-12.8,23.3c-3.2,9.9-4.8,20.2-4.7,30.6c0,11.1,1.5,21.2,4.7,30.1c2.8,8.4,7.2,16.2,12.9,22.9
			c5.3,6.1,11.8,11.1,19.1,14.6c7.3,3.4,15.2,5.1,23.3,5.1c12.3,0,22.9-3,32.1-9s16.3-14.7,21.6-26.2l29.5,14.6
			c-3.7,8-8.5,15.4-14.2,22c-5.5,6.4-12,12.1-19.1,16.7c-7.2,4.7-15.1,8.3-23.4,10.7c-8.8,2.5-17.8,3.8-27,3.7
			c-13.2,0.1-26.2-2.5-38.3-7.8c-11.5-5.1-21.8-12.5-30.3-21.8c-8.7-9.7-15.5-21-19.9-33.3c-4.8-12.9-7.1-27-7.1-42.4
			c0-15.3,2.5-29.5,7.5-42.4c4.6-12.3,11.6-23.6,20.5-33.3c8.6-9.2,19-16.6,30.5-21.8c11.8-5.2,24.5-7.9,37.4-7.8
			c12.1-0.1,24.2,2.2,35.5,6.5c11.2,4.3,21.2,11.1,29.5,19.8h20.1v33L1393.5,1894.6z"/>
		<path style="clip-path:url(#SVGID_00000152948744090130353690000007870912756621610151_);fill:#D4EF0F;" d="M1581.3,2022
			c-7.5,6.9-15.9,12.8-25,17.3c-9.1,4.4-19.5,6.7-31.2,6.7c-9.1,0.1-18.2-1.5-26.7-4.6c-7.7-2.8-14.9-7.1-21-12.6
			c-5.8-5.1-10.5-11.4-13.7-18.5c-3.3-7-4.9-14.7-4.8-22.4c0-8.4,1.2-15.9,3.7-22.4c2.3-6.2,5.7-11.9,9.9-17
			c4.2-4.8,9.1-8.9,14.6-12.1c5.5-3.2,11.4-5.9,17.4-7.9c6-2,12.3-3.4,18.6-4.2c6-0.8,12.1-1.2,18.2-1.3c9.2,0,17,0.3,23.2,0.9
			c5.7,0.5,11.4,1.3,17,2.4l0.2-16.3c0.1-6.2-0.9-12.5-3.1-18.3c-1.9-4.9-4.8-9.3-8.6-12.8c-3.8-3.5-8.4-6-13.3-7.6
			c-5.6-1.7-11.5-2.6-17.4-2.5c-5.8,0-11.6,0.4-17.3,1.3c-5.2,0.8-10.4,1.8-15.4,3.2c-4.5,1.2-8.9,2.7-13.2,4.6
			c-3.6,1.5-7,3.3-10.3,5.5l-11.7-24.7c5-3.2,10.1-6.1,15.5-8.6c5.7-2.7,11.7-4.9,17.8-6.7c6.2-1.8,12.6-3.3,19-4.4
			c6.3-1.1,12.7-1.6,19.1-1.6c11.5,0,21.9,1.4,31.1,4.1c8.7,2.4,16.7,6.8,23.4,12.8c6.6,6,11.7,13.6,14.8,22
			c3.5,8.9,5.2,19.5,5.2,32l-0.2,99.3h22v33h-57.7L1581.3,2022z M1532.9,2016c4.8,0,9.6-0.6,14.2-1.7c4.6-1.1,9.1-2.7,13.4-4.7
			c4.1-1.9,8-4.2,11.7-6.9c3.3-2.4,6.3-5.1,9-8.2l0.2-44.9H1540c-6.4-0.1-12.7,0.7-18.9,2.3c-5.3,1.4-10.3,3.6-14.8,6.7
			c-4,2.8-7.4,6.6-9.7,10.9c-2.4,4.6-3.5,9.8-3.5,14.9c-0.1,4.7,0.9,9.4,2.9,13.7c1.9,3.9,4.7,7.2,8.2,9.8c3.8,2.7,8.1,4.8,12.6,6
			C1522.1,2015.4,1527.5,2016.1,1532.9,2016L1532.9,2016z"/>
		<path style="clip-path:url(#SVGID_00000152948744090130353690000007870912756621610151_);fill:#1BE0E0;" d="M1671,1742h64.4v116.2
			c8.4-6.5,17.7-11.7,27.6-15.5c9.8-3.8,20.3-5.7,30.8-5.7c13.1,0,25,2.4,35.8,7.3c10.7,4.8,20.3,11.8,28.1,20.5
			c8.1,9.3,14.3,20.1,18.3,31.7c4.4,12.4,6.5,26,6.5,40.9c0,16-2.4,30.5-7.3,43.4c-4.5,12.4-11.4,23.7-20.3,33.4
			c-8.6,9.3-19.1,16.6-30.8,21.6c-11.9,5.1-24.9,7.6-39.1,7.6c-9.4,0.1-18.8-1.4-27.7-4.4c-7.9-2.5-15.4-6.3-22.1-11.2v12.4h-35.7
			v-265.4H1671L1671,1742z M1784.5,1868.3c-9.3,0-18.4,1.9-26.9,5.7c-8.3,3.7-15.9,9-22.3,15.5v106.8c4.1,4.2,10.1,8,18,11.2
			c7.9,3.2,17.9,4.8,30,4.8c8.1,0,16.1-1.6,23.6-4.6c7.6-3.1,14.4-7.8,19.9-13.9c5.7-6.2,10.3-13.9,13.8-23.1
			c3.5-9.2,5.2-19.9,5.2-32.2c0-11.2-1.6-21.2-4.9-30c-2.9-8.2-7.4-15.6-13.2-22c-5.4-5.9-12.1-10.6-19.5-13.7
			C1800.6,1869.8,1792.6,1868.2,1784.5,1868.3z"/>
		<polygon style="clip-path:url(#SVGID_00000152948744090130353690000007870912756621610151_);fill:#D4EF0F;" points="1918,1742 
			1982.5,1742 1982.5,2007.4 2012.4,2007.4 2012.4,2040.4 1918.1,2040.4 1918.1,2007.4 1946.8,2007.4 1946.8,1774.9 1918.1,1774.9 
			1918.1,1742 		"/>
		<path style="clip-path:url(#SVGID_00000152948744090130353690000007870912756621610151_);fill:#D4EF0F;" d="M2081,1945.6
			c0,5.2,0.4,10.3,1.3,15.4c0.8,4.5,2,9,3.6,13.3c4.7,12.8,12.2,22.4,22.7,28.8c10.4,6.5,22.2,9.7,35.4,9.7
			c10.2,0,20.4-1.5,30.2-4.4c10.8-3.3,21.1-7.8,30.8-13.6l14.4,24.4c-12.1,8.5-25.3,15.2-39.3,19.9c-13.2,4.3-27.1,6.5-41,6.5
			c-12.7,0.1-25.4-2.1-37.3-6.7c-11.2-4.3-21.3-11.2-29.5-19.9c-8.2-8.8-14.7-19.8-19.4-33c-4.7-13.2-7-28.5-7-46
			c-0.1-13.6,1.9-27.2,6-40.2c3.7-12.1,9.7-23.3,17.8-33c8-9.5,18-17.1,29.2-22.4c11.6-5.5,25.2-8.2,40.7-8.2
			c14.9,0,27.5,2.3,37.5,6.8c10,4.5,18.2,10.6,24.5,18c6.4,7.5,11.2,16.2,14.4,25.6c3.2,9.5,5.5,19.3,6.8,29.3
			c0.7,4.9,1.1,9.8,1.2,14.8c0.2,5,0.3,9.9,0.3,14.6L2081,1945.6z M2136.8,1866.4c-8.3,0-15.6,1.2-21.7,3.6
			c-6,2.2-11.4,5.6-15.8,10.2c-4.5,4.7-8.1,10.2-10.4,16.2c-2.8,6.9-4.7,14.1-5.8,21.5h103c-0.4-6.9-1.6-13.8-3.6-20.5
			c-1.7-6-4.6-11.5-8.6-16.3c-4-4.7-9.1-8.4-14.8-10.7C2153,1867.7,2145.6,1866.4,2136.8,1866.4L2136.8,1866.4z"/>
		
			<ellipse transform="matrix(1 -9.428619e-03 9.428619e-03 1 -2.7214 12.2617)" style="clip-path:url(#SVGID_00000152948744090130353690000007870912756621610151_);fill:#00B2C5;" cx="1299.1" cy="294.8" rx="110.5" ry="110.5"/>
	</g>
</g>
</svg>
