<?xml version="1.0" encoding="utf-8"?>
<!-- Generator: Adobe Illustrator 24.2.3, SVG Export Plug-In . SVG Version: 6.00 Build 0)  -->
<svg version="1.1" id="Layer_1" xmlns="http://www.w3.org/2000/svg" xmlns:xlink="http://www.w3.org/1999/xlink" x="0px" y="0px"
	 viewBox="0 0 735 852" style="enable-background:new 0 0 735 852;" xml:space="preserve">
<style type="text/css">
	.st0{fill:#FF6C67;}
	.st1{fill:#FFE2B6;}
	.st2{fill:#C9571F;}
	.st3{fill:#FD993B;}
	.st4{fill:#EA5A00;}
</style>
<g>
	<g>
		<polygon class="st0" points="725.1,220.2 725.1,631.8 368.7,837.5 12.4,631.8 12.4,220.2 368.7,14.5 		"/>
	</g>
	<g>
		<path class="st1" d="M205.2,506.9c-4.7,14.8-20,24.1-36.1,26.5c15.5,4.9,21.1,19.4,17.6,29.9c-3.6,10.3-12.9,17.4-28.6,17.4
			c-9.2,0-21.1-3.6-27.7-10.8c-6.5,7.3-14.8,10.8-24.7,10.8c-7.5,0-14.8-1.5-21.5-5.8l4.7-9.2c3.9,1.9,7.7,3,12,3
			c9.5,0,17.6-6.4,22.8-21.5l24.1-70.1h18.5l-17.6,51c23.7-0.9,34.2-10.1,38.9-24.7c6.7-20.7-6.2-47.7-41.3-47.7
			c-22.4,0-41.3,12.9-47.1,32.9c-5.2,17.8,1.7,36.3,19.1,36.3l-3.2,9.7c-26.4,0-37.6-25-30.1-50.3c6.7-22.8,31.8-39.1,61.3-39.1
			C185,445.4,215.8,473.4,205.2,506.9z M150.4,537.5c-1.5,0-3.2,0.2-5,0.4l-4.3,12.7c-1.7,4.7-3.5,8.8-5.6,12.3
			c4.1,4.5,10.1,7.1,16.3,7.1c7.7,0,15-4.3,17.8-12.7C171.9,550.2,168.5,537.5,150.4,537.5z"/>
		<path class="st1" d="M294.9,548c-9.9,14.8-27.9,32.3-43.4,32.3c-7.1,0-10.7-4.5-10.1-12.5c-5.2,7.1-12.1,12.5-21.5,12.5
			c-16.6,0-23.4-18.9-17-36.8c6.7-18.9,22.8-32.3,38.1-32.3c6.7,0,12.5,2.8,15.3,9.3l2.6-7.5h16.4l-16.1,46.7
			c-1.5,4.5,0.4,5.8,2.8,5.8c7.1,0,19.4-10.5,27.1-21.9L294.9,548z M244.6,555.1l8-23.5c-1.7-6.4-5.4-9-11-9
			c-10.3,0-18.3,9-21.9,19.6c-4.5,13.8-1.3,23.4,8.4,23.4C234.1,565.6,239.9,561.5,244.6,555.1z"/>
		<path class="st1" d="M333.9,582.4c-10.1,23-21.1,33.5-35.1,33.5c-9.5,0-13.5-7.5-10.8-14.6c2.6-7.5,10.3-11.6,30.8-20.7l2.2-6.2
			l2.8-8.4c-5,5.6-12.1,11-21.9,11c-16.4,0-23-17.9-16.8-34.9c6.5-17.9,22.6-30.8,37.9-30.8c7.3,0,13.6,3.4,15.9,10.8l3.2-9h16.4
			l-17.9,52.1l-2.2,6c12.1-6.4,23.4-14.4,32.1-27.5l5.6,4.3C365.3,564.1,350.9,574.2,333.9,582.4z M314.7,590.8
			c-9.2,3.9-16.6,7.3-18.3,11.8c-1.7,4.3,0.9,6,3.7,6C305.3,608.6,310.2,601.1,314.7,590.8z M328.9,551.4l6.2-17.6
			c-1.1-7.8-5-11.2-11.4-11.2c-10.1,0-18.1,8.2-21.5,18.1c-4.3,12.9-1.3,21.9,8.4,21.9C317.5,562.6,324.2,557.2,328.9,551.4z"/>
		<path class="st1" d="M453.2,548c-9.9,14.8-27.8,32.3-43.4,32.3c-9.3,0-12.3-7.7-8.4-20.7c-9.5,13.6-20.4,20.7-30.7,20.7
			c-10.3,0-10.3-10.3-7.7-17.9l17-49.3h16.4l-15.9,46.2c-1.5,4.5-0.2,6.4,2.2,6.4c2.6,0,11.2-2.8,25.4-26.2l9-26.4h16.4l-16.1,46.5
			c-1.5,4.5,0.4,6,2.8,6c7.1,0,19.4-10.5,27.1-21.9L453.2,548z"/>
		<path class="st1" d="M517.5,548c-11.4,16.4-32.1,32.3-51.2,32.3c-21.7,0-29.7-18.9-23.4-36.8c6.7-18.9,22.6-32.3,40.7-32.3
			c12.7,0,18.3,9.3,14.6,20.2c-3.9,11.2-19.6,22.4-39.1,26.4c2.1,4.7,6.7,7.8,15.1,7.8c11,0,28-8.2,37.6-21.9L517.5,548z
			 M459.7,542.2c-0.7,2.4-1.3,4.7-1.5,6.9c28-6,30.5-27.3,21.3-27.3C471.3,521.8,462.7,533.1,459.7,542.2z"/>
		<path class="st1" d="M561.2,548c-10.1,14.8-31.8,32.3-47.1,32.3c-9.9,0-12.7-8.8-7.7-23.4l11.6-33.6h-9.9l3.6-10.3h9.9l9-25.8H547
			l-9,25.8h17.8l-3.6,10.3h-17.8L522,559.6c-1.5,4.5,0.4,6,2.8,6c9,0,24.1-12,30.8-21.9L561.2,548z"/>
		<path class="st1" d="M604.9,548c-10.1,14.8-31.8,32.3-47.1,32.3c-9.9,0-12.7-8.8-7.7-23.4l11.6-33.6h-9.9l3.6-10.3h9.9l9-25.8
			h16.4l-9,25.8h17.8l-3.6,10.3h-17.8l-12.5,36.3c-1.5,4.5,0.4,6,2.8,6c9,0,24.1-12,30.8-21.9L604.9,548z"/>
		<path class="st1" d="M669.2,548c-11.4,16.4-32.1,32.3-51.2,32.3c-21.7,0-29.7-18.9-23.4-36.8c6.7-18.9,22.6-32.3,40.7-32.3
			c12.7,0,18.3,9.3,14.6,20.2c-3.9,11.2-19.6,22.4-39.1,26.4c2.1,4.7,6.7,7.8,15.1,7.8c11,0,28-8.2,37.6-21.9L669.2,548z
			 M611.5,542.2c-0.7,2.4-1.3,4.7-1.5,6.9c28-6,30.5-27.3,21.3-27.3C623.1,521.8,614.5,533.1,611.5,542.2z"/>
	</g>
	<g>
		<path class="st2" d="M285.1,310.5c5.9,1.2,116.1,4.6,150.9,3.7c38.3-1,84.3,5.9,121.4,12.9c40.9,7.7,98.7,13.6,111.3,55.1
			c7.3,24-47.6,29.6-62.9,31.2c-57.4,6.3-114.5,10.1-171.9,13.3c-40.3,2.3-82.7,2.1-122.8-1.3c-39-3.3-69.1-6.1-108-9.8
			c-17.8-1.7-109.6-14-118.9-35.6"/>
		<path class="st3" d="M436.3,308.9c15.3-0.1,30.7,0.6,45.9,2c-9.8,0-35.1-0.8-63.8-1.8C425.6,309,431.7,308.9,436.3,308.9z"/>
		<path class="st3" d="M563.8,409.2c-27.9,4.3-73.1,7.6-112.7,9.3c-6,0.3-11.8,0.5-17.5,0.7c-9.9,0.3-22.4,0.8-35.7,1.2
			c-28.2-1.5-61.6-3.3-83.1-4.6c-6.1-0.3-12.3-0.7-18.7-1.1c-39.3-2.7-83.6-6.9-111.1-11.7c-23.8-4.1-115.5-6.6-101.9-36.4
			c15.2-33.4,66.8-45.8,109.9-51.8c38.9-5.4,80.6-10.6,121.6-9.3c19.7,0.6,64.5,2.3,103.4,3.5c0.2,0,0.4,0,0.5,0
			c28.6,1,54,1.7,63.8,1.8c1.3,0.1,2.6,0.2,3.9,0.4c24.4,2.3,48.4,6,71.5,9.7c42.9,7,94.2,20.5,108.7,54.3
			C679.4,405.2,587.6,405.6,563.8,409.2z"/>
		<path class="st3" d="M486.3,310.7l-0.1,0.5c-1.3-0.1-2.6-0.3-3.9-0.4C484.4,310.8,485.8,310.8,486.3,310.7z"/>
		<g>
			<path class="st4" d="M591.3,334.5c-8.9,17.1-8.1,34.4-23.2,50.3c-9.1,9.6-29.5,20.6-44.7,14.6c9.3,0.3,18.5-14.5,21.4-19.7
				c8-14.3,10.3-21.5,23-32.6C571.7,343.7,586.6,339.3,591.3,334.5z"/>
		</g>
		<g>
			<path class="st1" d="M596.3,332.9c-8.9,17.1-8.1,34.4-23.2,50.3c-9.1,9.6-29.5,20.6-44.7,14.6c9.3,0.3,18.5-14.5,21.4-19.7
				c8-14.3,10.3-21.5,23-32.6C576.7,342.1,591.5,337.7,596.3,332.9z"/>
		</g>
		<g>
			<path class="st4" d="M276.8,320.8c-8.9,17.1-8.1,34.4-23.2,50.3c-9.1,9.6-29.5,20.6-44.7,14.6c9.3,0.3,18.5-14.5,21.4-19.7
				c8-14.3,10.3-21.5,23-32.6C257.2,330,272,325.6,276.8,320.8z"/>
		</g>
		<g>
			<path class="st1" d="M281.7,319.3c-8.9,17.1-8.1,34.4-23.2,50.3c-9.1,9.6-29.5,20.6-44.7,14.6c9.3,0.3,18.5-14.5,21.4-19.7
				c8-14.3,10.3-21.5,23-32.6C262.1,328.5,277,324.1,281.7,319.3z"/>
		</g>
		<g>
			<g>
				<path class="st4" d="M499.2,324.4c-10.2,19.6-9.3,39.5-26.6,57.6c-10.4,11-33.9,23.6-51.2,16.8c10.6,0.3,21.2-16.7,24.5-22.6
					c9.2-16.4,11.8-24.6,26.4-37.4C476.7,335,493.7,330,499.2,324.4z"/>
			</g>
			<g>
				<path class="st1" d="M504.8,322.7c-10.2,19.6-9.3,39.5-26.6,57.6c-10.4,11-33.9,23.6-51.2,16.8c10.6,0.3,21.2-16.7,24.5-22.6
					c9.2-16.4,11.8-24.6,26.4-37.4C482.4,333.2,499.4,328.2,504.8,322.7z"/>
			</g>
		</g>
		<g>
			<g>
				<path class="st4" d="M394.5,320.2c-10.2,19.6-9.3,39.5-26.6,57.6c-10.4,11-33.9,23.6-51.2,16.8c10.6,0.3,21.2-16.7,24.5-22.6
					c9.2-16.4,11.8-24.6,26.4-37.4C372,330.8,389,325.7,394.5,320.2z"/>
			</g>
			<g>
				<path class="st1" d="M400.2,318.4c-10.2,19.6-9.3,39.5-26.6,57.6c-10.4,11-33.9,23.6-51.2,16.8c10.6,0.3,21.2-16.7,24.5-22.6
					c9.2-16.4,11.8-24.6,26.4-37.4C377.7,329,394.7,323.9,400.2,318.4z"/>
			</g>
		</g>
		<g>
			<g>
				<path class="st1" d="M652.5,380.5c-20.2,8.2-41.7,11.5-63.4,10.7c-2.6-0.1-2.5,3.7,0,3.9c22.2,1.9,44.3-3.1,64.2-12.7
					C654.4,381.9,653.6,380,652.5,380.5L652.5,380.5z"/>
			</g>
		</g>
		<g>
			<g>
				<path class="st1" d="M650.3,367.7c4.3,0,4.3-6.6,0-6.6C646,361,646,367.7,650.3,367.7L650.3,367.7z"/>
			</g>
		</g>
		<g>
			<g>
				<path class="st1" d="M430.7,325.3c0.7,0.1,1.5,0.2,2.2,0.3c0.8,0.1,1.9-0.5,2.4-1c0.6-0.6,1-1.6,1-2.4c0-0.9-0.3-1.8-1-2.4
					c-0.6-0.6-1.5-1.1-2.4-1c-0.7,0.1-1.5,0.2-2.2,0.3c-0.9,0.1-1.6,0.3-2.2,0.9c-0.5,0.5-0.9,1.4-0.9,2.2c0,0.8,0.3,1.6,0.9,2.2
					c0.2,0.2,0.4,0.3,0.6,0.5C429.6,325.2,430.2,325.3,430.7,325.3L430.7,325.3z"/>
			</g>
		</g>
		<g>
			<g>
				<path class="st1" d="M237.9,319c-5.4-1.7-11.8-1.6-17.4-1.8c-6.2-0.2-12.4,0.3-18.5,0.9c-12.1,1.2-24,3.5-35.7,7
					c-11.6,3.5-23,8-33.8,13.5c-5.3,2.7-10.4,5.6-15.3,8.8c-4.6,3-10.8,6.2-13.5,11.1c-1.1,2.1,0.7,4.3,3,3.9
					c5.3-1.1,10-5.4,14.5-8.2c5-3.1,10.2-5.9,15.5-8.6c10.5-5.3,21.4-9.7,32.7-13.1c11.2-3.4,22.8-5.9,34.4-7.4
					c5.6-0.7,11.2-1,16.8-1.5c5.7-0.4,11.8-0.1,17.4-1.1C239.9,322.4,239.6,319.5,237.9,319L237.9,319z"/>
			</g>
		</g>
		<g>
			<g>
				<path class="st1" d="M133.5,380c1.5,0,1.5-2.3,0-2.3S132,380,133.5,380L133.5,380z"/>
			</g>
		</g>
		<g>
			<g>
				<path class="st1" d="M150.5,384.7c5.5,1.9,12.7,5.4,18.6,4c1.4-0.3,2.2-2.5,0.9-3.5c-5-3.9-12.9-3.7-19-4.2
					C148.7,380.7,148.5,384,150.5,384.7L150.5,384.7z"/>
			</g>
		</g>
	</g>
	<path class="st1" d="M734.1,637V215L705,198.2L428.7,38.7l-60-34.6l-60,34.6L32.5,198.2L3.3,215v422l29.1,16.8l279.7,161.5
		l56.5,32.6l56.5-32.6L705,653.8L734.1,637z M32.5,621.1V232.8l50-28.8L368.7,38.7l0,0l287,165.7l49.3,28.4v388.3L368.7,815.3
		L32.5,621.1z"/>
</g>
<g>
	<path class="st1" d="M365.5,797.3l4.5,4.5c1,1,1.9,1.9,2.7,2.9h0.1c-0.4-1.2-0.7-2.5-1-3.8l-1.4-6.3l1.6-0.9l4.7,4.3
		c1.1,1,2.1,2,2.9,2.9h0.1c-0.5-1.3-0.9-2.5-1.2-3.8l-1.6-6.1l1.9-1.1l2.7,12.3l-1.7,1l-4.5-4.1c-1-0.9-2-1.9-2.9-2.9l0,0
		c0.4,1.3,0.8,2.6,1.1,4l1.2,6l-1.7,1l-9.2-8.6L365.5,797.3z"/>
	<path class="st1" d="M381.6,787.9l4.5,4.5c1,1,1.9,1.9,2.7,2.9h0.1c-0.4-1.2-0.7-2.5-1-3.8l-1.4-6.3l1.6-0.9l4.7,4.3
		c1.1,1,2.1,2,2.9,2.9h0.1c-0.5-1.3-0.8-2.6-1.2-3.9l-1.6-6.2l1.9-1.1l2.7,12.4l-1.7,1l-4.5-4.1c-1-0.9-2-1.9-2.9-2.9l0,0
		c0.4,1.3,0.8,2.6,1.1,4l1.2,6l-1.7,1l-9.3-8.6L381.6,787.9z"/>
	<path class="st1" d="M397.8,778.5l4.5,4.5c1,1,1.9,1.9,2.7,2.9h0.1c-0.4-1.2-0.7-2.5-1-3.8l-1.4-6.3l1.6-0.9l4.7,4.3
		c1.1,1,2.1,2,2.9,2.9h0.1c-0.5-1.3-0.8-2.6-1.2-3.9l-1.6-6.1l1.9-1.1l2.7,12.4l-1.7,1l-4.5-4.1c-1-0.9-2-1.9-2.9-2.9l0,0
		c0.4,1.3,0.8,2.6,1.1,4l1.2,6l-1.7,1l-9.2-8.6L397.8,778.5z"/>
	<path class="st1" d="M417.1,779.7c-0.5-0.7-0.3-1.6,0.4-2.1c0,0,0.1,0,0.1-0.1c0.8-0.4,1.7-0.1,2.1,0.7c0.3,0.7,0.1,1.6-0.6,2
		C418.4,780.8,417.5,780.5,417.1,779.7C417.1,779.8,417.1,779.8,417.1,779.7z"/>
	<path class="st1" d="M418.5,770.8c-0.7-1.2-1.4-2.3-2-3.2l1.7-1l1.3,2h0.1c-0.4-1.5,0.2-3.2,1.6-4c0.2-0.1,0.4-0.2,0.6-0.2l1,1.8
		c-0.2,0.1-0.5,0.2-0.7,0.3c-1.3,0.8-1.8,2.5-1.1,3.9c0.1,0.3,0.3,0.6,0.4,0.9l3.2,5.6l-1.8,1.1L418.5,770.8z"/>
	<path class="st1" d="M428.3,772.1c1,0,2-0.2,2.9-0.7c1.4-0.8,1.6-1.9,1.1-2.7s-1.4-1.1-3.1-0.8c-2.3,0.4-3.8-0.1-4.5-1.3
		c-1-1.7-0.4-3.8,1.8-5.2c0.9-0.5,1.9-0.8,2.9-0.8l0.3,1.7c-0.9,0-1.7,0.2-2.5,0.6c-0.9,0.4-1.3,1.4-1,2.3c0,0,0,0.1,0.1,0.1
		c0.5,0.9,1.4,0.9,3,0.6c2.2-0.4,3.7,0,4.6,1.5c1.1,1.8,0.4,4-2.1,5.4c-1,0.6-2.2,1-3.4,1L428.3,772.1z"/>
	<path class="st1" d="M432.7,754.1l1.7,3l2.7-1.6l0.8,1.5l-2.7,1.6l3.3,5.6c0.8,1.3,1.5,1.8,2.6,1.2c0.4-0.2,0.7-0.5,1-0.8l0.9,1.4
		c-0.4,0.5-1,0.9-1.5,1.2c-0.7,0.5-1.7,0.6-2.5,0.4c-1-0.4-1.9-1.3-2.3-2.3l-3.3-5.7l-1.6,0.9L431,759l1.6-0.9l-1.5-2.5L432.7,754.1
		z"/>
	<path class="st1" d="M452.5,756.8c0.6,1.1,1.2,2,1.8,2.8l-1.7,1l-1.1-1.6l0,0c0,1.7-0.9,3.2-2.3,4c-1.6,1-4.1,1.2-6.3-2.5l-3.6-6.1
		l1.9-1.1l3.4,5.8c1.2,2,2.5,3,4.3,2c1.1-0.7,1.7-1.9,1.5-3.2c-0.1-0.4-0.2-0.7-0.4-1.1l-3.7-6.4l1.9-1.1L452.5,756.8z"/>
	<path class="st1" d="M457.4,737.2l7.4,12.6c0.5,0.9,1.2,2,1.7,2.7l-1.7,1l-1.1-1.8l0,0c0.1,1.7-0.9,3.3-2.4,4.1
		c-2.5,1.5-5.7,0.5-7.6-2.7c-2-3.5-1.1-6.9,1.4-8.3c1.2-0.8,2.8-0.9,4.1-0.2l0,0l-3.6-6.2L457.4,737.2z M460.8,747.5
		c-0.1-0.3-0.3-0.5-0.5-0.8c-1-1.1-2.7-1.4-4-0.6c-2,1.1-2.1,3.5-0.8,5.9c1.2,2.1,3.3,3.3,5.3,2.1c1.3-0.8,2-2.4,1.5-3.9
		c-0.1-0.3-0.2-0.6-0.4-0.9L460.8,747.5z"/>
	<path class="st1" d="M463.8,736.1c0.4,0.6,0.2,1.5-0.5,1.9c-0.6,0.4-1.5,0.2-1.9-0.5c-0.4-0.6-0.2-1.5,0.4-1.8c0,0,0,0,0.1,0
		C462.6,735.2,463.4,735.4,463.8,736.1C463.8,736,463.8,736,463.8,736.1z M469.5,750.7l-6.1-10.5l1.9-1.1l6.1,10.5L469.5,750.7z"/>
	<path class="st1" d="M480.9,736.9c2.2,3.9,0.6,7.1-2,8.6c-2.8,1.6-6.2,0.8-8.1-2.5c-2-3.5-1-6.9,2-8.6S479.1,733.8,480.9,736.9z
		 M472.7,741.9c1.3,2.3,3.7,3.2,5.5,2.2s2.2-3.6,0.8-5.9c-1-1.8-3.2-3.5-5.5-2.2S471.5,739.9,472.7,741.9L472.7,741.9z"/>
	<path class="st1" d="M484.8,740.3c-0.5-0.7-0.3-1.6,0.4-2.1c0,0,0.1,0,0.1-0.1c0.8-0.4,1.7,0,2.1,0.8c0.3,0.7,0.1,1.5-0.5,2
		c-0.7,0.4-1.6,0.2-2-0.5C484.8,740.4,484.8,740.3,484.8,740.3z"/>
	<path class="st1" d="M497.6,733.8c-0.7,1-1.6,1.8-2.6,2.3c-3.2,1.8-6.5,0.9-8.3-2.3c-1.8-2.8-1-6.6,1.8-8.5
		c0.2-0.1,0.4-0.2,0.6-0.3c0.9-0.6,1.9-0.9,3-1l0.4,1.7c-0.9,0-1.7,0.3-2.5,0.8c-2.4,1.4-2.7,3.9-1.4,6.1c1.4,2.4,3.8,3,5.9,1.8
		c0.8-0.5,1.5-1.1,2-1.9L497.6,733.8z"/>
	<path class="st1" d="M506.3,722.2c2.2,3.9,0.5,7.1-2,8.6c-2.8,1.6-6.2,0.8-8.1-2.5c-2-3.5-0.9-6.9,2-8.6S504.4,719,506.3,722.2z
		 M498.1,727.1c1.3,2.3,3.7,3.2,5.5,2.2s2.2-3.5,0.8-5.9c-1-1.8-3.2-3.5-5.5-2.2S496.9,725.1,498.1,727.1z"/>
	<path class="st1" d="M507.4,718.5c-0.6-1.1-1.2-2-1.7-2.8l1.7-1l1.1,1.6h0.1c-0.1-1.6,0.8-3.1,2.2-3.8c1.3-0.8,3-0.6,4.2,0.4l0,0
		c0-0.7,0.1-1.4,0.4-2c0.4-0.9,1-1.6,1.9-2.1c1.4-0.8,4-1.1,6.1,2.5l3.6,6.2l-1.8,1.1l-3.5-5.9c-1.2-2-2.6-2.8-4.1-1.9
		c-1,0.6-1.5,1.8-1.2,3c0.1,0.4,0.2,0.7,0.4,1l3.8,6.5l-1.9,1.1l-3.6-6.3c-1-1.7-2.4-2.5-3.9-1.6c-1.3,1-1.7,2.8-0.9,4.3l3.7,6.3
		l-1.9,1.1L507.4,718.5z"/>
</g>
</svg>
