<?xml version="1.0" encoding="utf-8"?>
<!-- Generator: Adobe Illustrator 26.5.0, SVG Export Plug-In . SVG Version: 6.00 Build 0)  -->
<svg version="1.1" id="Layer_1" xmlns="http://www.w3.org/2000/svg" xmlns:xlink="http://www.w3.org/1999/xlink" x="0px" y="0px"
	 viewBox="0 0 2521 2911.1" style="enable-background:new 0 0 2521 2911.1;" xml:space="preserve">
<style type="text/css">
	.st0{fill-rule:evenodd;clip-rule:evenodd;fill:#424242;}
	.st1{fill-rule:evenodd;clip-rule:evenodd;fill:url(#envelope_hex_00000032628767139306318840000015652467228292982444_);}
	.st2{fill-rule:evenodd;clip-rule:evenodd;fill:url(#upper_rectangle_3_00000111897873169648157480000000515857195452859817_);}
	.st3{fill-rule:evenodd;clip-rule:evenodd;fill:url(#upper_rectangle_2_00000042710170431313340460000005520170642427608206_);}
	.st4{fill-rule:evenodd;clip-rule:evenodd;fill:url(#lower_rectangle_6_00000036226962231442678980000000068986649244395440_);}
	.st5{fill-rule:evenodd;clip-rule:evenodd;fill:url(#lower_rectangle_5_00000121998988017778006710000004686925455404314289_);}
	.st6{fill-rule:evenodd;clip-rule:evenodd;fill:url(#lower_rectangle_4_00000065058476695333943310000016274653933008869043_);}
	.st7{fill-rule:evenodd;clip-rule:evenodd;fill:url(#lower_rectangle_3_00000004509688699918326900000010847674805337944708_);}
	.st8{fill-rule:evenodd;clip-rule:evenodd;fill:url(#lower_rectangle_2_00000020363540378111546060000008863095022377156782_);}
	.st9{fill-rule:evenodd;clip-rule:evenodd;fill:url(#lower_rectangle_1_00000102510701318572549090000017369902328318539439_);}
	.st10{fill-rule:evenodd;clip-rule:evenodd;fill:url(#envelope_mid_00000101075712733861037650000015026777003334881198_);}
	.st11{fill-rule:evenodd;clip-rule:evenodd;fill:url(#envelope_top_00000142872575599779555460000006689167884528591277_);}
	.st12{fill-rule:evenodd;clip-rule:evenodd;fill:url(#envelope_bottom_00000080176644414985919050000015794335815423564935_);}
	.st13{fill-rule:evenodd;clip-rule:evenodd;fill:#E6E6E6;}
</style>
<g id="blastula">
	<g id="blastula_hex_logo">
		<path id="hex_outside" class="st0" d="M2420.5,669.7l-953.1-550.3L1260.5,0l-206.9,119.4L100.5,669.7L0,727.7v1455.7l100.5,58
			l964.8,557.2l195.2,112.5l195.2-112.5l964.8-557.2l100.5-58V727.7L2420.5,669.7z"/>
		
			<linearGradient id="envelope_hex_00000065758137536667587930000014102307947614725798_" gradientUnits="userSpaceOnUse" x1="-587.5739" y1="963.4711" x2="-587.5739" y2="960.0403" gradientTransform="matrix(394.574 0 0 -455.668 233103.2656 439683.0938)">
			<stop  offset="0" style="stop-color:#B573B5"/>
			<stop  offset="0.2463" style="stop-color:#76D4E6"/>
			<stop  offset="0.6794" style="stop-color:#E0CDDE"/>
			<stop  offset="1" style="stop-color:#75DAE9"/>
		</linearGradient>
		
			<path id="envelope_hex" style="fill-rule:evenodd;clip-rule:evenodd;fill:url(#envelope_hex_00000065758137536667587930000014102307947614725798_);" d="
			M1938.8,1832.7l-676.9,390.8L585,1832.7v-781.8l676.9-390.8l676.9,390.8V1832.7z"/>
		
			<linearGradient id="upper_rectangle_3_00000155845684257532142570000004206844550367678621_" gradientUnits="userSpaceOnUse" x1="-589.1381" y1="962.5201" x2="-589.1381" y2="960.8046" gradientTransform="matrix(674.7874 0 0 -385.3359 398803.625 371672.0625)">
			<stop  offset="0" style="stop-color:#424242;stop-opacity:0.3"/>
			<stop  offset="1" style="stop-color:#D8D8D8"/>
		</linearGradient>
		
			<path id="upper_rectangle_3" style="fill-rule:evenodd;clip-rule:evenodd;fill:url(#upper_rectangle_3_00000155845684257532142570000004206844550367678621_);" d="
			M1262.2,117.5l1156.1,659.9l-1156.1,662.2l-1159-662.2L1262.2,117.5z"/>
		
			<linearGradient id="upper_rectangle_2_00000117642884441487206700000002047979153550605483_" gradientUnits="userSpaceOnUse" x1="-589.1381" y1="962.5201" x2="-589.1381" y2="960.8046" gradientTransform="matrix(674.7874 0 0 -385.3359 398803.625 371672.0625)">
			<stop  offset="0" style="stop-color:#424242;stop-opacity:0.3"/>
			<stop  offset="1" style="stop-color:#BFBFBF"/>
		</linearGradient>
		
			<path id="upper_rectangle_2" style="fill-rule:evenodd;clip-rule:evenodd;fill:url(#upper_rectangle_2_00000117642884441487206700000002047979153550605483_);" d="
			M1262.2,117.5l1156.1,659.9l-1156.1,662.2l-1159-662.2L1262.2,117.5z"/>
		
			<linearGradient id="lower_rectangle_6_00000108302410680682554370000006303766323705806231_" gradientUnits="userSpaceOnUse" x1="-593.5402" y1="968.4108" x2="-593.5402" y2="966.6954" gradientTransform="matrix(-674.787 0 0 385.336 -399249.6562 -371062.9688)">
			<stop  offset="0" style="stop-color:#424242;stop-opacity:0.3"/>
			<stop  offset="1" style="stop-color:#D8D8D8"/>
		</linearGradient>
		
			<path id="lower_rectangle_6" style="fill-rule:evenodd;clip-rule:evenodd;fill:url(#lower_rectangle_6_00000108302410680682554370000006303766323705806231_);" d="
			M1262.1,2761.6L106,2101.7l1156.1-662.2l1159,662.2L1262.1,2761.6z"/>
		
			<linearGradient id="lower_rectangle_5_00000065770303150511562740000008379532197482896525_" gradientUnits="userSpaceOnUse" x1="-593.5402" y1="968.4108" x2="-593.5402" y2="966.6954" gradientTransform="matrix(-674.787 0 0 385.336 -399249.6562 -371062.9688)">
			<stop  offset="0" style="stop-color:#424242;stop-opacity:0.3"/>
			<stop  offset="1" style="stop-color:#D8D8D8"/>
		</linearGradient>
		
			<path id="lower_rectangle_5" style="fill-rule:evenodd;clip-rule:evenodd;fill:url(#lower_rectangle_5_00000065770303150511562740000008379532197482896525_);" d="
			M1262.1,2761.6L106,2101.7l1156.1-662.2l1159,662.2L1262.1,2761.6z"/>
		
			<linearGradient id="lower_rectangle_4_00000163071774073203888550000007942126254832132031_" gradientUnits="userSpaceOnUse" x1="-593.5402" y1="968.4108" x2="-593.5402" y2="966.6954" gradientTransform="matrix(-674.787 0 0 385.336 -399249.6562 -371062.9688)">
			<stop  offset="0" style="stop-color:#424242;stop-opacity:0.3"/>
			<stop  offset="1" style="stop-color:#D8D8D8"/>
		</linearGradient>
		
			<path id="lower_rectangle_4" style="fill-rule:evenodd;clip-rule:evenodd;fill:url(#lower_rectangle_4_00000163071774073203888550000007942126254832132031_);" d="
			M1262.1,2761.6L106,2101.7l1156.1-662.2l1159,662.2L1262.1,2761.6z"/>
		
			<linearGradient id="lower_rectangle_3_00000022559842414058653670000000758495685576039566_" gradientUnits="userSpaceOnUse" x1="-593.5402" y1="968.4108" x2="-593.5402" y2="966.6954" gradientTransform="matrix(-674.787 0 0 385.336 -399249.6562 -371062.9688)">
			<stop  offset="0" style="stop-color:#424242;stop-opacity:0.3"/>
			<stop  offset="1" style="stop-color:#D8D8D8"/>
		</linearGradient>
		
			<path id="lower_rectangle_3" style="fill-rule:evenodd;clip-rule:evenodd;fill:url(#lower_rectangle_3_00000022559842414058653670000000758495685576039566_);" d="
			M1262.1,2761.6L106,2101.7l1156.1-662.2l1159,662.2L1262.1,2761.6z"/>
		
			<linearGradient id="lower_rectangle_2_00000094618495960383605930000005468867190000721537_" gradientUnits="userSpaceOnUse" x1="-593.5402" y1="968.4108" x2="-593.5402" y2="966.6954" gradientTransform="matrix(-674.787 0 0 385.336 -399249.6562 -371062.9688)">
			<stop  offset="0" style="stop-color:#403D40;stop-opacity:0.3"/>
			<stop  offset="1" style="stop-color:#D8D8D8"/>
		</linearGradient>
		
			<path id="lower_rectangle_2" style="fill-rule:evenodd;clip-rule:evenodd;fill:url(#lower_rectangle_2_00000094618495960383605930000005468867190000721537_);" d="
			M1262.1,2761.6L106,2101.7l1156.1-662.2l1159,662.2L1262.1,2761.6z"/>
		
			<linearGradient id="lower_rectangle_1_00000167370159499406489500000003826203270170542988_" gradientUnits="userSpaceOnUse" x1="-593.5402" y1="968.4108" x2="-593.5402" y2="966.6954" gradientTransform="matrix(-674.787 0 0 385.336 -399249.6562 -371062.9688)">
			<stop  offset="0" style="stop-color:#403D40;stop-opacity:0.3"/>
			<stop  offset="1" style="stop-color:#D8D8D8"/>
		</linearGradient>
		
			<path id="lower_rectangle_1" style="fill-rule:evenodd;clip-rule:evenodd;fill:url(#lower_rectangle_1_00000167370159499406489500000003826203270170542988_);" d="
			M1262.1,2761.6L106,2101.7l1156.1-662.2l1159,662.2L1262.1,2761.6z"/>
		
			<linearGradient id="envelope_mid_00000168075173722090697530000012871664468491455162_" gradientUnits="userSpaceOnUse" x1="-595.2059" y1="953.4951" x2="-595.2059" y2="956.8947" gradientTransform="matrix(-384.015 0 0 -109.835 -227305.5312 106154.5469)">
			<stop  offset="0" style="stop-color:#D8D8D8"/>
			<stop  offset="1" style="stop-color:#848188"/>
		</linearGradient>
		
			<path id="envelope_mid" style="fill-rule:evenodd;clip-rule:evenodd;fill:url(#envelope_mid_00000168075173722090697530000012871664468491455162_);" d="
			M603.7,1050.6l657.9,376.8l659.6-376.8H603.7z"/>
		
			<linearGradient id="envelope_top_00000126313924843318325940000008032573871221437867_" gradientUnits="userSpaceOnUse" x1="-587.4694" y1="969.1337" x2="-587.4694" y2="972.5334" gradientTransform="matrix(384.015 0 0 109.963 226859.4688 -105895.625)">
			<stop  offset="0" style="stop-color:#D8D8D8"/>
			<stop  offset="1" style="stop-color:#848188"/>
		</linearGradient>
		
			<path id="envelope_top" style="fill-rule:evenodd;clip-rule:evenodd;fill:url(#envelope_top_00000126313924843318325940000008032573871221437867_);" d="
			M1921.2,1050.5l-659.5-377.3l-658,377.3H1921.2z"/>
		
			<linearGradient id="envelope_bottom_00000127044970893189007690000001754089175729402252_" gradientUnits="userSpaceOnUse" x1="-587.5758" y1="954.6766" x2="-587.5758" y2="951.2457" gradientTransform="matrix(394.538 0 0 -113.225 233081.5625 109540.7422)">
			<stop  offset="0" style="stop-color:#C8C8C8"/>
			<stop  offset="1" style="stop-color:#93D2E4"/>
		</linearGradient>
		
			<path id="envelope_bottom" style="fill-rule:evenodd;clip-rule:evenodd;fill:url(#envelope_bottom_00000127044970893189007690000001754089175729402252_);" d="
			M583.8,1835.9l678.2-388.5l675.4,388.4L583.8,1835.9z"/>
		<path id="blastula_text" class="st13" d="M802.1,2111.6v37.4c0,59.6-39.1,95.7-87.2,95.7c-48.1,0-87.2-36.2-87.2-95.7v-212.7
			c0-9.4,7.7-17,17-17s17,7.7,17,17v105.9c16.2-14.9,33.6-23,56.6-23C764.7,2019.3,802.1,2055,802.1,2111.6z M768.1,2151.2v-38.7
			c0-38.7-23.8-60.8-53.2-60.8s-53.2,24.2-53.2,54v45.5c0,39.1,23.8,61.3,53.2,61.3S768.1,2190.3,768.1,2151.2z M870.8,2238.4
			c-9.4,0-17-7.7-17-17v-285c0-9.4,7.7-17,17-17c9.4,0,17,7.7,17,17v285C887.9,2230.7,880.2,2238.4,870.8,2238.4z M1050.6,2115.4
			v-11.5c0-22.1-10.2-45.9-45.9-45.9H957c-8.9,0-16.2-7.2-16.2-16.2c0-8.9,7.2-16.2,16.2-16.2h48.5c58.3,0,79.1,39.6,79.1,79.1v65.1
			c0,41.3-33.6,74.9-74.9,74.9c-39.1,0-74.4-35.3-74.4-74.9c0-39.1,31.9-71,71-71C1024.2,2098.8,1037.4,2104.4,1050.6,2115.4z
			 M1050.6,2172c0-23.8-19.1-43-42.5-43c-23.4,0-42.5,19.1-42.5,43c0,23.4,19.1,42.5,42.5,42.5
			C1031.4,2214.6,1050.6,2195.4,1050.6,2172z M1185.2,2244.8c-21.3,0-43.4-10.2-56.2-30.6c-2.1-3.4-3.4-6-3.4-9.4
			c0-7.7,6-15.3,16.6-15.3c4.7,0,9.4,2.1,12.8,6.8c5.5,7.7,14.9,16.2,27.2,16.2c23.8,0,38.7-16.2,38.7-36.2
			c0-23.8-21.7-32.8-34.9-35.3c-32.8-6.4-54.9-29.8-54.9-57.9c0-31.5,24.7-57.4,63.8-57.4h16.6c8.9,0,16.2,7.2,16.2,16.2
			c0,8.9-7.2,16.2-16.2,16.2H1195c-21.3,0-30.6,9.8-30.6,25.1c0,18.7,22.1,23.8,28.9,25.1c37.9,8.1,60.8,34,60.8,68.1
			C1254.2,2214.1,1222.7,2244.8,1185.2,2244.8z M1371.4,2206.1h15.7c8.9,0,16.2,7.2,16.2,16.2c0,8.9-7.2,16.2-16.2,16.2h-18.7
			c-40.4,0-64.7-24.2-64.7-64.7V2058h-14.9c-8.9,0-16.2-7.2-16.2-16.2c0-8.9,7.2-16.2,16.2-16.2h14.9v-45.1
			c0-9.8,7.7-17.4,17.4-17.4c9.4,0,16.6,7.7,16.6,17v45.5h48.5c8.9,0,16.2,7.2,16.2,16.2c0,8.9-7.2,16.2-16.2,16.2h-48.5v114.4
			C1337.7,2194.6,1348.4,2206.1,1371.4,2206.1z M1459.6,2025.7c9.4,0,17,7.7,17,17v109.8c0,38.3,23.8,60,53.2,60
			c29.4,0,53.2-21.7,53.2-60v-109.8c0-9.4,7.7-17,17-17s17,7.7,17,17V2149c0,59.6-39.1,95.7-87.2,95.7c-48.1,0-87.2-36.2-87.2-95.7
			v-106.4C1442.6,2033.3,1450.3,2025.7,1459.6,2025.7z M1688.3,2238.4c-9.4,0-17-7.7-17-17v-285c0-9.4,7.7-17,17-17
			c9.4,0,17,7.7,17,17v285C1705.3,2230.7,1697.7,2238.4,1688.3,2238.4z M1868,2115.4v-11.5c0-22.1-10.2-45.9-45.9-45.9h-47.6
			c-8.9,0-16.2-7.2-16.2-16.2c0-8.9,7.2-16.2,16.2-16.2h48.5c58.3,0,79.1,39.6,79.1,79.1v65.1c0,41.3-33.6,74.9-74.9,74.9
			c-39.1,0-74.4-35.3-74.4-74.9c0-39.1,31.9-71,71-71C1841.7,2098.8,1854.9,2104.4,1868,2115.4z M1868,2172c0-23.8-19.1-43-42.5-43
			c-23.4,0-42.5,19.1-42.5,43c0,23.4,19.1,42.5,42.5,42.5C1848.9,2214.6,1868,2195.4,1868,2172z"/>
	</g>
</g>
</svg>
