<svg xmlns="http://www.w3.org/2000/svg" xmlns:xlink="http://www.w3.org/1999/xlink" viewBox="0 0 735 852"><defs><style>.cls-1{fill:#77aab6;}.cls-2{fill:none;}.cls-3{isolation:isolate;}.cls-4{clip-path:url(#clip-path);}.cls-5{fill:orange;}.cls-6{fill:#e6b35a;}.cls-7{font-size:138px;letter-spacing:-0.03em;}.cls-10,.cls-23,.cls-7{fill:#fff;}.cls-10,.cls-7{font-family:MyriadPro-Regular, Myriad Pro;}.cls-8{letter-spacing:-0.04em;}.cls-9{fill:#ec7d22;}.cls-10{font-size:25px;}.cls-11{letter-spacing:0.01em;}.cls-12{letter-spacing:-0.04em;}.cls-13{letter-spacing:-0.02em;}.cls-14{letter-spacing:-0.01em;}.cls-15{letter-spacing:0em;}.cls-16{opacity:0.94;}.cls-17{opacity:0.25;mix-blend-mode:multiply;}.cls-18{clip-path:url(#clip-path-2);}.cls-19{clip-path:url(#clip-path-3);}.cls-20{clip-path:url(#clip-path-4);}.cls-21{opacity:0.95;}.cls-22{clip-path:url(#clip-path-5);}</style><clipPath id="clip-path"><polygon class="cls-1" points="369.51 7.4 728.21 214.47 728.21 636.62 369.51 845.03 2.79 636.62 2.79 214.47 369.51 7.4"/></clipPath><clipPath id="clip-path-2"><path class="cls-2" d="M-1263.92,3518.55-1602,3713.77l-338.12-195.22V3128.12L-1602,2932.9h0l338.12,195.22Z"/></clipPath><clipPath id="clip-path-3"><polygon class="cls-2" points="-1758.11 3302.33 -1450.45 3302.33 5128.42 7483.6 -8336.97 7483.6 -1758.11 3302.33"/></clipPath><clipPath id="clip-path-4"><path class="cls-2" d="M-1265.42,3517.05l-338.12,195.22-338.12-195.22V3126.62l338.12-195.22h0l338.12,195.22Z"/></clipPath><clipPath id="clip-path-5"><polygon class="cls-2" points="-1759.61 3300.83 -1451.95 3300.83 5126.92 7482.1 -8338.47 7482.1 -1759.61 3300.83"/></clipPath></defs><title>RStudio_Hex 2017 v4</title><g class="cls-3"><g id="Layer_1" data-name="Layer 1"><polygon class="cls-1" points="369.51 7.4 728.21 214.47 728.21 636.62 369.51 845.03 2.79 636.62 2.79 214.47 369.51 7.4"/><g class="cls-4"><circle class="cls-5" cx="365.5" cy="437.45" r="442.13" transform="translate(-202.27 386.57) rotate(-45)"/></g><path class="cls-6" d="M367,633.9c.29-.29.61-.59.94-.89h-.26C367.49,633.31,367.26,633.61,367,633.9Z"/><text class="cls-7" transform="translate(81.56 576.46)">blogd<tspan class="cls-8" x="319.74" y="0">o</tspan><tspan x="390.12" y="0">wn</tspan></text><path class="cls-9" d="M705.61,196.21,427.81,35.82,367.5,1,307.19,35.82,29.37,196.22.09,213.13V637.38l29.28,16.91L310.65,816.68l56.85,32.83,56.85-32.83L705.61,654.3l29.3-16.92V213.13Zm0,425.26L367.49,816.68,29.37,621.47V231L367.49,35.82h0L705.61,231Z"/><text class="cls-10" transform="matrix(0.86, -0.5, 0.5, 0.86, 369.28, 809.1)"><tspan class="cls-11">ww</tspan><tspan class="cls-12" x="37.4" y="0">w</tspan><tspan x="54.82" y="0">.rstudi</tspan><tspan class="cls-13" x="120.07" y="0">o</tspan><tspan x="133.2" y="0">.</tspan><tspan class="cls-14" x="138.37" y="0">c</tspan><tspan class="cls-15" x="149.42" y="0">om</tspan></text><g class="cls-16"><g class="cls-17"><g class="cls-18"><g class="cls-19"><polyline points="15811.44 16308.65 15811.44 16308.65 -16956.56 -16459.35 -16956.56 -16459.35 15811.44 16308.65"/><polyline points="-16956.56 16308.65 -16956.56 16308.65 15811.44 -16459.35 15811.44 -16459.35 -16956.56 16308.65"/><polyline points="-140.8 698.77 2338.36 698.77 1904.09 974.78 -302 974.78 -140.8 698.77"/></g></g></g><g class="cls-20"><g class="cls-21"><g class="cls-3"><g class="cls-22"><polyline class="cls-23" points="15809.94 16307.15 15809.94 16307.15 -16958.06 -16460.85 -16958.06 -16460.85 15809.94 16307.15"/><polyline class="cls-23" points="-16958.06 16307.15 -16958.06 16307.15 15809.94 -16460.85 15809.94 -16460.85 -16958.06 16307.15"/><polyline class="cls-23" points="-142.3 697.27 2336.86 697.27 1902.59 973.28 -303.5 973.28 -142.3 697.27"/></g></g></g></g></g><rect class="cls-23" x="296.88" y="221.38" width="142.26" height="173.7"/><path class="cls-9" d="M372.78,176a133.1,133.1,0,1,0,133.09,133.1A133.1,133.1,0,0,0,372.78,176Zm60,186.79H410.68L374.19,308H354.74v43.5h19.05v11.23H325.87V351.52h16.44V255.09l-16.44-2V242.46a79,79,0,0,0,18.44,2.4c10.23,0,20.66-2.4,30.88-2.4,19.85,0,38.29,9,38.29,31.07,0,17.05-10.22,27.87-26.06,32.48l30.88,45.51h14.43Z"/><path class="cls-9" d="M400.45,274.94c0-15.24-11-21.25-25.06-21.25a188.52,188.52,0,0,0-20.65,1.4v42.1l10.43.2C390.63,297.79,400.45,288,400.45,274.94Z"/><path class="cls-23" d="M389,209.49h-1.09c-.16,0-.2-.05-.19-.19a.17.17,0,0,0,0-.1V197.84c0-.25.07-.31.3-.29h1.34a2.91,2.91,0,0,0,.59,0c.64,0,1.28.06,1.92.09s1.1.06,1.65.1c.77.06,1.54.14,2.31.22s1.33.16,2,.26c.84.11,1.67.24,2.5.39s1.78.32,2.67.52q1.71.38,3.42.84c1.54.41,3.06.87,4.56,1.39s2.94,1.06,4.38,1.67c1.27.53,2.53,1.1,3.76,1.71,1.5.69,3,1.52,4.4,2.34a70.28,70.28,0,0,1,6.28,4.08c1.21.88,2.39,1.8,3.54,2.79.94.77,1.84,1.57,2.74,2.38.41.37.8.75,1.2,1.13s1,.94,1.46,1.43c.87.89,1.74,1.79,2.57,2.74,1.45,1.66,2.85,3.36,4.18,5.15,1,1.39,2,2.79,2.9,4.26.7,1.06,1.31,2.15,1.93,3.25s1.08,2,1.58,3a72.8,72.8,0,0,1,3.49,8.3c.6,1.74,1.14,3.51,1.61,5.29.39,1.52.75,3,1,4.57.2,1.11.39,2.22.55,3.33s.28,2.06.37,3.09c.08.78.14,1.56.2,2.34s.11,1.79.14,2.68a4.56,4.56,0,0,1,0,.64v1.39c0,.16,0,.21-.2.21H447.6c-.22,0-.31,0-.3-.28s0-.64,0-1a4.56,4.56,0,0,1,0-.64c0-.75-.05-1.51-.11-2.25s-.13-1.59-.22-2.38-.2-1.83-.35-2.74-.34-2-.53-2.94c-.24-1.17-.52-2.33-.83-3.49-.45-1.65-1-3.29-1.56-4.88s-1.24-3.18-2-4.73-1.44-2.94-2.26-4.36a60.13,60.13,0,0,0-3.57-5.5c-.76-1-1.55-2.09-2.38-3-.62-.73-1.25-1.45-1.89-2.15-.86-.92-1.71-1.83-2.63-2.69s-1.73-1.61-2.64-2.38c-1.39-1.2-2.88-2.33-4.39-3.4s-2.83-1.9-4.29-2.79a46.1,46.1,0,0,0-4.38-2.31,60.66,60.66,0,0,0-7.9-3.08c-1.51-.47-3-.88-4.56-1.22s-3.09-.63-4.66-.84c-.95-.12-1.91-.25-2.86-.33l-1.86-.15c-.62,0-1.25-.06-1.87-.11A3.35,3.35,0,0,1,389,209.49Z"/><path class="cls-23" d="M429.43,269.1h-5.7c-.22,0-.26-.07-.26-.28a35.82,35.82,0,0,0-20.85-32.25,35.09,35.09,0,0,0-9.13-2.79,35.91,35.91,0,0,0-5.58-.47c-.18,0-.22-.05-.22-.22V221.6c0-.16,0-.22.21-.22a47.77,47.77,0,0,1,41.58,24.7,46.89,46.89,0,0,1,5,13.76,48.31,48.31,0,0,1,.9,9c0,.21,0,.28-.27.28Z"/></g></g></svg>