<?xml version="1.0" encoding="utf-8"?>
<!-- Generator: Adobe Illustrator 26.4.1, SVG Export Plug-In . SVG Version: 6.00 Build 0)  -->
<svg version="1.1" id="Layer_1" xmlns="http://www.w3.org/2000/svg" xmlns:xlink="http://www.w3.org/1999/xlink" x="0px" y="0px"
	 viewBox="0 0 2521 2911" style="enable-background:new 0 0 2521 2911;" xml:space="preserve">
<style type="text/css">
	.st0{fill:#FFA500;}
	.st1{fill:#EC7D22;}
	.st2{fill:#E6B35A;}
	.st3{fill:#FFFFFF;}
</style>
<polygon class="st0" points="2420.5,789.2 1260.5,119.4 1260.5,119.4 100.5,789.2 100.5,2129 1260.5,2798.8 2420.5,2129 "/>
<path class="st1" d="M2521,2183.6V727.7l-100.5-58l-953.1-550.4L1260.5,0l-206.9,119.4L100.5,669.8L0,727.7v1455.5l100.5,58
	l965.1,557.2l195.2,112.5l195.2-112.5l965.1-557.2L2521,2183.6z M100.5,2129V789.2l1160-669.8l0,0l1160,669.8V2129l-1160,669.8
	L100.5,2129z"/>
<path class="st2" d="M1258.8,2171.6c1-1,2.1-2.1,3.1-3.1h-1C1260.5,2169.5,1259.8,2170.6,1258.8,2171.6z"/>
<path class="st3" d="M312.2,1974.6c1-15.4,2.1-38.8,2.1-59v-276.9h41.2v143.8h1c14.8-25.7,41.2-42.2,78.2-42.2
	c57,0,97.1,47.4,96.4,117c0,82-51.5,122.5-102.6,122.5c-33.3,0-59.7-12.7-76.5-43.2h-1.4l-2.1,37.7L312.2,1974.6z M355.1,1882.7
	c0,5.1,0.7,10.3,2.1,15.1c7.9,28.8,32.3,48.7,62.4,48.7c43.6,0,69.6-35.3,69.6-88.2c0-46-23.7-85.1-68.3-85.1
	c-28.5,0-54.9,19.6-63.5,51.1c-1.4,5.5-2.1,11.3-2.4,17.2V1882.7z"/>
<path class="st3" d="M568.2,1638.4h41.5v336.3h-41.5V1638.4z"/>
<path class="st3" d="M872.1,1858c0,84.7-58.7,121.8-113.9,121.8c-62.1,0-109.8-45.3-109.8-118c0-76.9,50.1-121.8,113.6-121.8
	C827.9,1739.9,872.1,1788,872.1,1858z M690.3,1860.4c0,50.1,28.8,88.2,69.6,88.2c39.8,0,69.6-37.4,69.6-89.2
	c0-38.8-19.2-88.2-68.6-88.2C711.6,1771.2,690.3,1816.8,690.3,1860.4L690.3,1860.4z"/>
<path class="st3" d="M1107.1,1745.4c-1,16.5-1.7,35-1.7,63.1v133.1c0,52.5-10.3,84.7-32.6,104.7c-22.3,20.9-54.6,27.4-83.4,27.4
	c-27.4,0-57.6-6.5-76.2-18.9l10.3-31.6c20.2,12,43.6,18.2,67.2,17.8c42.5,0,73.8-22.3,73.8-79.9v-26.1h-1
	c-12.7,21.3-37.4,38.4-73.1,38.4c-57,0-97.4-48.4-97.4-111.9c0-77.5,50.8-121.8,103.3-121.8c39.8,0,61.4,20.9,71.4,39.8h1l2.1-34.7
	L1107.1,1745.4z M1063.9,1835.7c0.3-6.5-0.7-12.7-2.4-18.9c-7.5-24-27.8-43.9-58.3-43.9c-39.8,0-68.3,33.6-68.3,86.5
	c0,44.9,22.6,82.3,67.6,82.3c26.4,0,49.7-17.5,57.6-42.5c2.4-7.2,3.4-14.8,3.4-22.3L1063.9,1835.7z"/>
<path class="st3" d="M1356.9,1638.4v276.9c0,20.2,0.3,43.6,2.1,59h-37.4l-1.7-39.8h-1c-12.7,25.7-40.8,44.9-78.2,44.9
	c-55.2,0-98.1-47-98.1-116.7c-0.3-76.2,47-123.2,102.9-123.2c35,0,58.7,16.5,69,35h1v-136.9h41.5V1638.4z M1315.4,1838.4
	c0-5.8-0.7-11.7-1.7-17.5c-6.2-28.1-31.2-48.4-60-48.4c-43.2,0-68.6,37.7-68.6,88.5c0,46.3,22.6,84.7,67.6,84.7
	c27.8,0,53.5-18.5,61.1-49.8c1.4-5.8,2.1-12,1.7-17.8V1838.4z"/>
<path class="st3" d="M1618.3,1858c0,84.7-58.7,121.8-114.2,121.8c-62.1,0-109.8-45.3-109.8-118c0-76.9,50.1-121.8,113.6-121.8
	C1574.1,1739.9,1618.3,1788,1618.3,1858z M1436.5,1860.4c0,50.1,28.8,88.2,69.6,88.2c39.8,0,69.6-37.4,69.6-89.2
	c0-38.8-19.6-88.2-68.6-88.2C1458.1,1771.2,1436.5,1816.8,1436.5,1860.4L1436.5,1860.4z"/>
<path class="st3" d="M1669.1,1745.4l30.2,116.3c6.5,25.7,12.7,49.1,17.2,72.7h1.4c5.1-23.3,12.7-47.7,20.2-72.4l37.4-117h35
	l35.3,114.6c8.6,27.4,15.1,51.5,20.2,74.8h1.4c4.5-25,10.3-49.8,17.5-74.5l32.6-114.9h41.2l-73.8,229.2h-37.7l-35.3-109.5
	c-8.2-24.7-14.8-49.8-20.2-75.1h-1c-5.5,25.7-12.4,50.8-20.9,75.8l-37.1,108.8h-37.7l-69-229.2h43.2V1745.4z"/>
<path class="st3" d="M1985.8,1807.5c0-23.7-0.3-43.2-1.7-62.1h37.1l2.4,37.7h1c11.3-21.6,37.7-43.2,75.8-43.2
	c31.6,0,81,18.9,81,97.4v136.9h-41.5v-131.8c0-37.1-13.7-67.6-53.2-67.6c-26.1,0.3-48.7,17.8-55.9,42.5c-2.1,6.2-3.1,12.7-2.7,19.6
	V1975h-41.5v-167.4H1985.8z"/>
<path class="st3" d="M1117.8,1202.6v38.4h164.3v-38.4h-65.2v-149.3h66.9l125.2,187.7h75.5v-38.4h-49.4l-106.4-156.1
	c54.2-15.8,89.5-52.8,89.5-111.5c0-75.5-63.1-106.7-131.4-106.7c-35,0-70.7,8.2-106,8.2c-21.3-0.3-42.5-3.1-63.1-8.2v36.4l56.3,6.9
	v330.8L1117.8,1202.6z M1216.6,871.9c23.7-2.7,47-4.5,70.7-4.8c48,0,86.1,20.6,86.1,72.7c0,44.6-33.6,78.6-121.1,77.2l-35.7-0.7
	L1216.6,871.9L1216.6,871.9z"/>
<path class="st1" d="M1278.7,600.5C1026.5,600.5,822,805,822,1057.1s204.5,456.7,456.6,456.7s456.6-204.5,456.6-456.7l0,0
	C1735.3,805,1530.9,600.5,1278.7,600.5z M1473.2,841c8.2,14.8,14.1,30.5,17.2,47.3c2.1,10.3,3.1,20.6,3.1,30.9c0,0.7,0,1-1,1h-39.1
	c-0.7,0-1-0.3-1-1c-0.3-47.7-28.1-90.6-71.7-110.5c-9.9-4.5-20.6-7.9-31.2-9.6c-6.2-1-12.7-1.7-19.2-1.7c-0.7,0-0.7-0.3-0.7-0.7
	v-39.8c0-0.7,0-0.7,0.7-0.7C1389.8,756.6,1444.4,788.8,1473.2,841L1473.2,841z M1117.8,865v-36.7c20.6,5.1,41.9,7.9,63.1,8.2
	c35,0,71-8.2,106-8.2c68.3,0,131.4,30.9,131.4,106.7c0,58.3-35,95.7-89.5,111.5l106,156.1h49.4v38.4h-75.8l-124.9-187.7h-66.9v149.3
	h65.2v38.4h-164.3v-38.4h56.3V871.9L1117.8,865z M1575.1,914.7v4.8c0,0.7,0,0.7-0.7,0.7H1535c-0.7,0-1,0-1-1s0-2.1,0-3.4
	c0-0.7,0-1.4,0-2.1c0-2.7,0-5.1-0.3-7.5c-0.3-2.4-0.3-5.5-0.7-8.2c-0.3-2.7-0.7-6.2-1.4-9.3s-1-6.9-1.7-10c-0.7-4.1-1.7-7.9-2.7-12
	c-1.7-5.5-3.4-11.3-5.5-16.8c-2.1-5.5-4.1-11-6.9-16.1c-2.7-5.1-4.8-10-7.9-15.1c-3.8-6.5-7.9-12.7-12.4-18.9
	c-2.7-3.4-5.1-7.2-8.2-10.3c-2.1-2.4-4.1-4.8-6.5-7.2c-3.1-3.1-5.8-6.2-8.9-9.3c-3.1-3.1-5.8-5.5-8.9-8.2
	c-4.8-4.1-9.9-7.9-15.1-11.7c-5.1-3.8-9.6-6.5-14.8-9.6c-4.8-2.7-9.9-5.5-15.1-7.9c-8.9-4.1-17.8-7.5-27.1-10.6
	c-5.1-1.7-10.3-3.1-15.8-4.1c-5.5-1-10.6-2.1-16.1-2.7c-3.4-0.3-6.5-0.7-9.9-1l-6.5-0.3c-2.1,0-4.1-0.3-6.5-0.3c-0.7,0-1.4,0-2.1,0
	h-3.8c-0.7,0-0.7-0.3-0.7-0.7v-0.3v-39.1c0-0.7,0.3-1,1-1h4.5c0.7,0,1.4,0,2.1,0c2.1,0,4.5,0.3,6.5,0.3c2.1,0,3.8,0.3,5.5,0.3
	c2.7,0.3,5.1,0.3,7.9,0.7c2.7,0.3,4.5,0.7,6.9,1c2.7,0.3,5.8,0.7,8.6,1.4s6.2,1,9.3,1.7c3.8,1,7.9,1.7,11.7,2.7
	c5.1,1.4,10.6,3.1,15.8,4.8c5.1,1.7,9.9,3.8,15.1,5.8c4.5,1.7,8.6,3.8,13,5.8c5.1,2.4,10.3,5.1,15.1,7.9c7.5,4.1,14.8,8.9,21.6,14.1
	c4.1,3.1,8.2,6.2,12,9.6c3.1,2.7,6.2,5.5,9.3,8.2c1.4,1.4,2.7,2.7,4.1,3.8s3.4,3.1,5.1,4.8c3.1,3.1,5.8,6.2,8.9,9.3
	c5.1,5.8,9.9,11.7,14.4,17.5c3.4,4.8,6.9,9.6,9.9,14.8c2.4,3.8,4.5,7.2,6.5,11c2.1,3.8,3.8,6.9,5.5,10.3c4.5,9.3,8.6,18.9,12,28.5
	c2.1,5.8,3.8,12,5.5,18.2c1.4,5.1,2.7,10.3,3.4,15.8c0.7,3.8,1.4,7.5,1.7,11.3c0.3,3.8,1,7.2,1.4,10.6c0.3,2.7,0.3,5.5,0.7,7.9
	c0.3,2.4,0.3,6.2,0.3,9.3C1575.1,913,1575.1,913.7,1575.1,914.7L1575.1,914.7z"/>
<path class="st1" d="M1373.7,939.8c0-52.2-37.7-72.7-86.1-72.7c-23.7,0.3-47.3,2.1-70.7,4.8v144.5l35.7,0.7
	C1339.8,1018.4,1373.7,984.7,1373.7,939.8z"/>
<path class="st3" d="M1574.8,903.1c-0.3-2.7-0.3-5.5-0.7-7.9c-0.3-3.4-0.7-6.9-1.4-10.6c-0.7-3.8-1.4-7.5-1.7-11.3
	c-1-5.1-2.1-10.6-3.4-15.8c-1.7-6.2-3.4-12.4-5.5-18.2c-3.4-9.6-7.5-19.2-12-28.5c-1.7-3.4-3.4-6.9-5.5-10.3
	c-2.1-3.4-4.5-7.5-6.9-11.3c-3.1-5.1-6.5-10-9.9-14.8c-4.5-6.2-9.3-12-14.4-17.5c-2.7-3.1-5.8-6.5-8.9-9.3c-1.7-1.7-3.8-3.8-5.1-4.8
	s-2.7-2.7-4.1-3.8c-3.1-2.7-6.2-5.5-9.3-8.2c-3.8-3.4-7.9-6.5-12-9.6c-6.9-5.1-14.1-9.6-21.6-14.1c-4.8-2.7-9.9-5.5-15.1-7.9
	c-4.1-2.1-8.6-4.1-13-5.8c-4.8-2.1-9.9-3.8-15.1-5.8c-5.1-2.1-10.3-3.4-15.8-4.8c-3.8-1-7.9-2.1-11.7-2.7c-3.1-0.7-6.2-1.4-9.3-1.7
	s-5.8-1-8.6-1.4c-2.4-0.3-4.5-0.7-6.9-1c-2.4-0.3-5.1-0.7-7.9-0.7c-1.7,0-3.4-0.3-5.5-0.3c-2.1,0-4.5-0.3-6.5-0.3
	c-0.7,0-1.4,0-2.1,0h-4.1c-0.7,0-1,0-1,1v39.1v0.3c0,0.3,0,0.7,0.7,0.7h3.8c0.7,0,1.4,0,2.1,0c2.1,0.3,4.1,0.3,6.5,0.3l6.5,0.3
	c3.4,0.3,6.5,0.7,9.9,1c5.5,0.7,10.6,1.7,16.1,2.7s10.3,2.7,15.8,4.1c9.3,2.7,18.2,6.5,27.1,10.6c5.1,2.4,10.3,5.1,15.1,7.9
	c5.1,3.1,9.9,6.2,14.8,9.6c4.8,3.4,10.3,7.5,15.1,11.7c3.1,2.7,5.8,5.1,8.9,8.2c3.1,3.1,6.2,6.2,8.9,9.3c2.1,2.4,4.5,4.8,6.5,7.2
	c2.7,3.1,5.5,6.9,8.2,10.3c4.5,6.2,8.6,12.4,12.4,18.9c2.7,4.8,5.1,9.6,7.9,15.1c2.7,5.5,4.8,10.6,6.9,16.1c2.1,5.5,3.8,11,5.5,16.8
	c1,4.1,2.1,7.9,2.7,12c0.7,3.4,1.4,6.9,1.7,10c0.3,3.1,1,6.2,1.4,9.3s0.7,5.5,0.7,8.2c0,2.7,0.3,5.1,0.3,7.5c0,0.7,0,1.4,0,2.1
	c0,1,0,2.4,0,3.4s0.3,1,1,1h39.5c0.7,0,0.7,0,0.7-0.7v-4.8c0-0.7,0-1.4,0-2.1C1575.1,909.3,1575.1,906.2,1574.8,903.1z"/>
<path class="st3" d="M1329.8,756.9v39.5c0,0.7,0,0.7,0.7,0.7c6.5,0,12.7,0.7,19.2,1.7c11,1.7,21.3,4.8,31.2,9.6
	c43.2,19.9,71,63.1,71.7,110.5c0,0.7,0,1,1,1h39.1c0.7,0,1-0.3,1-1c0-10.3-1-20.6-3.1-30.9c-3.1-16.5-8.9-32.6-17.2-47.4
	c-28.8-52.2-83.4-84.4-142.7-84.7C1329.8,756.2,1329.8,756.2,1329.8,756.9z"/>
</svg>
