<?xml version="1.0" encoding="utf-8"?>
<!-- Generator: Adobe Illustrator 26.0.3, SVG Export Plug-In . SVG Version: 6.00 Build 0)  -->
<svg version="1.1" id="Camada_1" xmlns="http://www.w3.org/2000/svg" xmlns:xlink="http://www.w3.org/1999/xlink" x="0px" y="0px"
	 viewBox="0 0 1080 1250" style="enable-background:new 0 0 1080 1250;" xml:space="preserve">
<style type="text/css">
	.st0{fill:#33393F;}
	.st1{fill:#647E8C;}
	.st2{opacity:0.7;}
	.st3{fill:#F13858;}
	.st4{opacity:0.55;}
	.st5{fill:#40BE9C;}
</style>
<polygon class="st0" points="540,0.68 0,312.93 0,937.37 540,1249.32 1080,936.84 1080,313.98 "/>
<path class="st0" d="M539.57,613.25c-0.19,0.19-0.38,0.3-0.53,0.34C539.23,613.47,539.4,613.36,539.57,613.25z"/>
<polygon class="st1" points="540.56,44.7 39.82,335.79 37.68,914.75 540.56,1205.3 1042.32,915.28 1042.32,336.32 "/>
<g>
	<path class="st0" d="M597.61,514.82c-12.78,33.05-41.08,80.31-41.53,81.04c25.77-18.74,57.66-24.43,85.42-38.81
		c22.29-15.5,46.1-38.08,62.4-29.61c-27.14,1.15-38.09,34.22-53.1,38.86c-54.2,23.56-84.68,54.03-84.68,54.03
		c-44.52,53.29,0,224.84,0,224.84h-83.94c56.7-152.48,5.21-223.73-60.41-257.98c-57.18,34.96-113.35,16.09-113.35,16.09
		c8.47-0.97,16.92-2.61,25.26-4.38c22.56-4.82,45.14-11.57,65.95-21.79c-26.63-10.47-53.84-15.98-75.87-19.2
		c86.88-30.29,166.44,58.77,166.44,58.77c-40.15-100.01-191.99-108.04-191.99-108.04c78.84-35.77,196.81,62.77,196.81,62.77
		c2.64-96.35-148.63-112.95-148.63-112.95c21.9-8.77,72.81-1.1,72.81-1.1c-8.21-27.92-10.39-61.87-10.39-61.87
		c-3.26-25.52-41.01-74.77-41.61-75.53c78.36,47.04,36.52,149.53,104.02,165.33c0,0-27.38-66.25-16.43-90.88
		c10.95-24.64,17.51-93.07,17.51-93.07c18.58,58.93-19.37,125.12,3.3,135.22c39.41-61.87,41.05-88.14,41.05-88.14
		c6.57-75.01,34.49-77.74,34.49-77.74c-26.63,31.5-11.73,54.57-24.58,95.65c33.41-3.69,83.14-61.75,87.58-67.43
		c0.91,0.75-30.34,69.28-95.43,85.77c-4.71,9.33-8.82,15.22-8.82,15.22c-51.83,64.96,14.6,139.43,14.6,139.43
		c10.27-2.28,16.86-10.47,21.08-19.6c-28.1-33.43-0.46-104.58-28.8-110.6c45.24,8.66,17.14,52.1,34.88,90.41
		c3.8-14.95,2.77-85,100.78-147.51c-23.88,18.59-43.47,47.72-56.38,70.39c28.45-4.71,84.38-29.56,85.29-29.96
		c-48.42,42.1-57.05,35.9-92.31,42.9c-19.67,34.91-22.54,55.38-33.21,90.78c-3.68,10.11-7.96,20.01-12.26,29.86
		c-0.64,1.48-4.23,12.51-6.21,14.42c-0.14,0.1-0.29,0.19-0.45,0.29c0.13-0.03,0.29-0.13,0.45-0.29
		c54.68-34.43,30.93-118.26,134.13-111.3c10.43-46.48,53.96-30.98,42.37-73.18c0,0,12.91,8.48,8.04,27.49
		c-5.32,17.18-37.74,25.42-40.58,46.62c57.88,4.03,97.58-37.73,97.58-37.73C750.3,506.86,629.27,435.58,597.61,514.82z"/>
	<g>
		<g>
			<g class="st2">
				<path class="st3" d="M747.84,530.6c-1.29,75.74-113.96,75.73-115.24,0C633.89,454.86,746.56,454.87,747.84,530.6z"/>
			</g>
			<g class="st2">
				<path class="st3" d="M571.41,365.72c-1.01,59.16-89.02,59.15-90.02,0C482.41,306.56,570.41,306.57,571.41,365.72z"/>
			</g>
			<g class="st2">
				<path class="st3" d="M461.04,453.08c-1.02,59.76-89.91,59.75-90.92,0C371.14,393.32,460.03,393.33,461.04,453.08z"/>
			</g>
			<g class="st2">
				<path class="st3" d="M567.1,418.32c-0.85,49.88-75.05,49.88-75.9,0C492.06,368.43,566.26,368.44,567.1,418.32z"/>
			</g>
			<g class="st2">
				<path class="st3" d="M595.26,497.89c-0.92,53.58-80.61,53.57-81.52,0C514.65,444.31,594.35,444.32,595.26,497.89z"/>
			</g>
			<g class="st2">
				<path class="st3" d="M446.94,571.63c-0.94,54.95-82.67,54.94-83.6,0C364.27,516.68,446.01,516.69,446.94,571.63z"/>
			</g>
			<g class="st2">
				<path class="st3" d="M525.89,559.99c-0.82,47.93-72.11,47.92-72.92,0C453.78,512.06,525.08,512.06,525.89,559.99z"/>
			</g>
			<g class="st2">
				<path class="st3" d="M360.34,608.36c-0.85,49.67-74.74,49.67-75.58,0C285.61,558.69,359.5,558.7,360.34,608.36z"/>
			</g>
			<g class="st2">
				<path class="st3" d="M579.94,270.66c-0.7,40.84-61.44,40.83-62.13,0C518.51,229.83,579.25,229.84,579.94,270.66z"/>
			</g>
			<g class="st2">
				<path class="st3" d="M423.48,341.33c-1.2,70.14-105.53,70.13-106.71,0C317.96,271.19,422.29,271.2,423.48,341.33z"/>
			</g>
			<g class="st2">
				<path class="st3" d="M360.34,515.47c-1.01,59.35-89.3,59.35-90.31,0C271.04,456.12,359.33,456.13,360.34,515.47z"/>
			</g>
			<g class="st2">
				<path class="st3" d="M760.67,380.37c-0.89,52.05-78.32,52.05-79.2,0C682.36,328.31,759.79,328.32,760.67,380.37z"/>
			</g>
			<g class="st2">
				<path class="st3" d="M704.51,344.72c-0.97,56.51-85.02,56.5-85.97,0C619.5,288.21,703.55,288.22,704.51,344.72z"/>
			</g>
		</g>
	</g>
	<g>
		<g>
			<g class="st4">
				<path class="st5" d="M809.97,425.2c-0.7,40.84-61.44,40.83-62.13,0C748.54,384.37,809.28,384.37,809.97,425.2z"/>
			</g>
			<g class="st4">
				<path class="st5" d="M639.67,423.03c-1.02,59.67-89.78,59.66-90.79,0C549.9,363.35,638.66,363.36,639.67,423.03z"/>
			</g>
			<g class="st4">
				<path class="st5" d="M623.52,580.42c-0.98,57.29-86.19,57.28-87.16,0C537.34,523.13,622.55,523.13,623.52,580.42z"/>
			</g>
			<g class="st4">
				<path class="st5" d="M513.74,404.36c-0.95,55.8-83.96,55.79-84.9,0C429.79,348.56,512.79,348.56,513.74,404.36z"/>
			</g>
			<g class="st4">
				<path class="st5" d="M712.26,470.96c-1.03,60.26-90.66,60.25-91.68,0C621.6,410.7,711.23,410.71,712.26,470.96z"/>
			</g>
			<g class="st4">
				<path class="st5" d="M517.81,608.36c-0.75,44.1-66.36,44.1-67.1,0C451.46,564.26,517.07,564.26,517.81,608.36z"/>
			</g>
			<g class="st4">
				<path class="st5" d="M526.99,302.34c-1.25,73.23-110.17,73.21-111.41,0C416.83,229.11,525.75,229.13,526.99,302.34z"/>
			</g>
			<g class="st4">
				<path class="st5" d="M395.34,456.27c-0.98,57.15-85.99,57.14-86.96,0C309.36,399.11,394.38,399.12,395.34,456.27z"/>
			</g>
			<g class="st4">
				<path class="st5" d="M666.41,298.12c-1.07,62.94-94.69,62.93-95.76,0C571.73,235.18,665.35,235.19,666.41,298.12z"/>
			</g>
			<g class="st4">
				<path class="st5" d="M526.43,487.44c-1.22,71.4-107.42,71.39-108.63,0C419.01,416.04,525.22,416.05,526.43,487.44z"/>
			</g>
			<g class="st4">
				<path class="st5" d="M354.7,552.28c-0.7,40.84-61.44,40.83-62.13,0C293.27,511.45,354.01,511.45,354.7,552.28z"/>
			</g>
			<g class="st4">
				<path class="st5" d="M704.51,394.14c-0.66,38.52-57.96,38.52-58.61,0C646.55,355.61,703.85,355.62,704.51,394.14z"/>
			</g>
		</g>
	</g>
</g>
<g>
	<path class="st0" d="M306.63,959.76c-0.54,8.04-4.47,11.43-13.04,11.43c-3.04,0-3.04-1.25-3.04-5.54v-119.5
		c0-4.29,0-5.54,3.04-5.54c9.29,0,13.04,3.93,13.04,12.86v46.08c5.89-7.68,15.36-12.86,28.94-12.86c25.19,0,39.3,17.5,39.3,42.87
		c0,25.36-13.93,42.33-39.48,42.33C321.81,971.91,312.52,967.09,306.63,959.76z M331.63,957.26c17.68,0,25.9-12.33,25.9-27.69
		c0-15.54-8.4-28.22-25.9-28.22c-18.22,0-26.08,13.93-26.08,28.22C305.56,943.69,313.24,957.26,331.63,957.26z"/>
	<path class="st0" d="M434.88,886.53c27.69,0,43.58,16.97,43.58,42.87c0,25.9-15.9,42.51-43.58,42.51
		c-28.22,0-43.76-16.61-43.76-42.51C391.12,903.5,406.66,886.53,434.88,886.53z M434.88,957.62c17.15,0,26.79-11.61,26.79-28.22
		c0-16.61-9.65-28.58-26.79-28.58c-17.33,0-26.97,11.97-26.97,28.58C407.91,946.01,417.55,957.62,434.88,957.62z"/>
	<path class="st0" d="M515.44,897.78c5-6.43,13.4-11.25,26.26-11.25c21.08,0,29.83,12.68,29.83,33.4v44.3
		c0,5.36-1.07,6.25-6.25,6.25h-3.57c-5.36,0-6.25-0.89-6.25-6.25v-42.87c0-11.97-4.82-20.72-18.75-20.72
		c-13.93,0-20.18,8.57-21.08,21.79v41.8c0,5.36-0.89,6.25-6.25,6.25h-3.39c-5.36,0-6.43-0.89-6.43-6.25v-70.91
		c0-4.29,0.18-5.54,3.21-5.54C510.79,887.78,514.54,890.99,515.44,897.78z"/>
	<path class="st0" d="M609.75,909.21c0,16.79,48.76,5.18,48.76,37.33c0,21.08-17.68,25.01-34.83,25.01
		c-11.43,0-18.22-1.61-23.93-3.57c-5.89-1.96-7.68-6.25-7.68-11.97c0-4.11,0.71-4.46,6.07-2.5c5.72,2.32,15.18,5,25.36,5
		c11.25,0,19.83-2.14,19.83-11.43c0-19.29-48.94-6.97-48.94-36.97c0-19.65,17.86-23.58,33.58-23.58c7.14,0,13.04,0.89,19.29,2.86
		c5.18,1.61,8.57,4.64,8.57,10.72c0,3.57-0.71,3.75-5.89,2.68c-6.07-1.43-11.79-2.86-21.61-2.86
		C616.9,899.93,609.75,902.6,609.75,909.21z"/>
	<path class="st0" d="M705.67,923.86c7.68,0,16.08,0.54,23.94,1.43v-6.43c0-11.61-6.43-18.58-21.97-18.58
		c-8.57,0-15.72,1.07-22.68,2.68c-5.36,1.25-5.89,0.89-5.89-2.14c0-6.79,2.86-9.47,7.5-11.07c5.72-1.96,14.47-3.21,22.86-3.21
		c22.68,0,36.26,10.9,36.26,29.83v49.3c0,4.29,0,5.54-3.04,5.54c-7.5,0-11.43-2.5-12.68-8.04c-4.82,3.75-13.22,8.39-28.76,8.39
		c-19.11,0-28.4-8.57-28.4-24.83C672.81,930.29,683.17,923.86,705.67,923.86z M729.61,937.61c-6.79-1.07-14.47-1.25-20.36-1.25
		c-12.86,0-20.36,1.43-20.36,10.54c0,8.57,6.07,11.79,16.79,11.79c12.5,0,18.93-3.57,23.94-7.32V937.61z"/>
	<path class="st0" d="M780.51,846.16c5.89,0,9.82,3.57,9.82,9.11s-3.93,9.11-9.82,9.11c-5.72,0-9.82-3.57-9.82-9.11
		S774.8,846.16,780.51,846.16z M788.55,900.64v63.59c0,5.36-1.07,6.25-6.43,6.25h-3.39c-5.36,0-6.25-0.89-6.25-6.25v-70.91
		c0-4.29,0-5.54,3.04-5.54C784.8,887.78,788.55,891.71,788.55,900.64z"/>
</g>
</svg>
