<?xml version="1.0" encoding="utf-8"?>
<!-- Generator: Adobe Illustrator 26.4.1, SVG Export Plug-In . SVG Version: 6.00 Build 0)  -->
<svg version="1.1" id="Layer_1" xmlns="http://www.w3.org/2000/svg" xmlns:xlink="http://www.w3.org/1999/xlink" x="0px" y="0px"
	 viewBox="0 0 2521 2911" style="enable-background:new 0 0 2521 2911;" xml:space="preserve">
<style type="text/css">
	.st0{fill:#F9ECC6;}
	.st1{opacity:0.25;fill:url(#SVGID_1_);enable-background:new    ;}
	.st2{fill:#484546;}
	.st3{fill:#3E3221;}
	.st4{fill:#FFFFFF;}
</style>
<g>
	<path class="st0" d="M1258.4,1164.4c-439.2,0-816.9-194.9-986.4-474.5l-171.5,99.1v1339.4l1160,669.7l1160-669.7V789.1
		l-174.6-100.9C2077,968.8,1698.3,1164.4,1258.4,1164.4z"/>
	<path class="st0" d="M1260.5,119.4L272.1,690.3c169.5,279.6,547.2,474.5,986.4,474.5c439.8,0,818.6-195.6,987.4-476.2L1260.5,119.4
		z"/>
	
		<linearGradient id="SVGID_1_" gradientUnits="userSpaceOnUse" x1="1255.8351" y1="-197.3558" x2="1260.2952" y2="1392.9044" gradientTransform="matrix(1 0 0 1 0 -226)">
		<stop  offset="0" style="stop-color:#FFFFFF;stop-opacity:0.83"/>
		<stop  offset="0.56" style="stop-color:#FFFFFF;stop-opacity:0.37"/>
		<stop  offset="1" style="stop-color:#FFFFFF;stop-opacity:0"/>
	</linearGradient>
	<path class="st1" d="M1260.5,119.4L272.1,690.3c169.5,279.6,547.2,474.5,986.4,474.5c439.8,0,818.6-195.6,987.4-476.2L1260.5,119.4
		z"/>
	<polygon class="st2" points="2521,2183.3 2521,727.7 2420.5,669.7 1467.4,119.4 1260.5,0 1260.5,0 1467.4,119.4 2420.5,669.7 
		2521,727.7 2521,2183.3 2420.5,2241.3 1455.7,2798.5 1260.5,2911 1260.5,2911 1455.7,2798.5 2420.5,2241.3 	"/>
	<polygon class="st2" points="100.5,789.1 272.1,690.3 1260.5,119.4 1260.5,119.4 100.5,789.1 100.5,2128.8 1260.5,2798.5 
		1260.5,2798.5 100.5,2128.8 	"/>
	<path class="st3" d="M2420.5,2241.3l100.5-58V727.7l-100.5-58l-953.1-550.3L1260.5,0l0,0l-206.9,119.4L100.5,669.7L0,727.7v1455.7
		l100.5,58l965.1,557.2l195.2,112.5l0,0l195.2-112.5L2420.5,2241.3z M2420.5,789.1v1339.4l-1160,670l0,0l-1160-669.7V789.1
		l1160-669.7l0,0l985.3,568.8L2420.5,789.1z"/>
	<path class="st3" d="M307.4,2100.3c1-15.8,1.7-39.5,1.7-60v-280.6h39.5v145.8h1c14.1-25.7,39.5-42.9,74.8-42.9
		c54.2,0,93,48,92.3,118.7c0,83-49.4,124.2-98.1,124.2c-31.6,0-57-13-73.4-43.6h-1.4l-2.1,38.4H307.4z M348.6,2007.3
		c0,5.1,0.7,10.3,1.7,15.4c7.5,29.2,30.9,49.4,59.7,49.4c41.5,0,66.6-36,66.6-89.2c0-46.7-22.6-86.5-65.2-86.5
		c-27.1,0-52.5,19.6-60.7,51.8c-1.4,5.5-2.1,11.3-2.4,17.2L348.6,2007.3z"/>
	<path class="st3" d="M756.2,1982.3c0,85.8-56.3,123.5-109.1,123.5c-59.4,0-105-46-105-119.4c0-77.9,48-123.5,108.8-123.5
		C713.6,1862.9,756.2,1911.3,756.2,1982.3z M582.2,1984.7c0,50.8,27.8,89.2,66.6,89.2c38.1,0,66.6-38.1,66.6-90.2
		c0-39.5-18.5-89.2-65.5-89.2C602.8,1894.5,582.2,1940.4,582.2,1984.7z"/>
	<path class="st3" d="M995.6,1982.3c0,85.8-56.3,123.5-109.1,123.5c-59.4,0-105-46-105-119.4c0-77.9,48-123.5,108.8-123.5
		C953.1,1862.9,995.6,1911.3,995.6,1982.3z M821.7,1984.7c0,50.8,27.8,89.2,66.6,89.2c38.1,0,66.6-38.1,66.6-90.2
		c0-39.5-18.5-89.2-65.5-89.2C842.3,1894.5,821.7,1940.4,821.7,1984.7L821.7,1984.7z"/>
	<path class="st3" d="M1076.3,1974.7h1c5.5-8.2,13-18.2,19.6-26.4l64.5-80.3h48l-84.7,95.4L1221,2100h-48.4l-75.5-111.5l-20.2,24
		v87.8h-39.5v-340.7h39.5v215.1H1076.3z"/>
	<path class="st3" d="M1429.6,1759.6v280.6c0,20.6,0.3,44.3,1.7,60h-35.7l-1.7-40.5h-1c-12.4,25.7-39.1,45.6-74.8,45.6
		c-53.2,0-93.7-47.3-93.7-118c-0.3-77.2,44.9-124.9,98.1-124.9c33.6,0,56.3,16.8,66.2,35.3h1v-138.6h39.8V1759.6z M1389.8,1962.7
		c0-5.8-0.7-12-1.7-17.8c-5.8-26.8-27.4-49.1-57.6-49.1c-41.2,0-65.5,38.4-65.5,89.9c0,47,21.6,85.8,64.8,85.8
		c26.8,0,51.1-18.9,58.3-50.4c1.4-5.8,2.1-12,1.7-18.2V1962.7z"/>
	<path class="st3" d="M1684.9,1982.3c0,85.8-56.3,123.5-109.1,123.5c-59.4,0-105-46-105-119.4c0-77.9,48-123.5,108.8-123.5
		C1642.4,1862.9,1684.9,1911.3,1684.9,1982.3z M1511,1984.7c0,50.8,27.4,89.2,66.6,89.2c38.1,0,66.6-38.1,66.6-90.2
		c0-39.5-18.5-89.2-65.5-89.2S1511,1940.4,1511,1984.7z"/>
	<path class="st3" d="M1738.8,1868l29.2,118c6.2,26.1,12.4,49.7,16.5,73.8h1.4c5.1-23.7,12.4-48.4,19.6-73.4l35.7-118.7h33.6
		l34,116.3c8.2,27.8,14.4,52.1,19.6,75.8h1.4c4.1-25.4,9.9-50.8,16.8-75.5l31.2-116.6h39.5l-71,232.6h-36.4l-33.6-110.8
		c-7.5-26.1-14.1-49.1-19.6-76.2h-0.7c-5.1,26.1-12,51.5-19.9,76.8l-35.3,110.1h-36.4l-66.2-232.3H1738.8z"/>
	<path class="st3" d="M2047.2,1930.8c0-24-0.3-43.6-1.7-62.8h35.3l2.4,38.4h1c13.7-27.1,41.9-44.3,72.4-43.6
		c30.2,0,77.5,19.2,77.5,98.8v138.6h-39.8v-133.8c0-37.4-13-68.6-50.8-68.6c-26.4,0-46.7,19.6-53.5,43.2c-2.1,6.5-2.7,13-2.7,19.6
		v139.6h-39.8v-169.5H2047.2z"/>
	<path class="st3" d="M1923.3,824.8v793.9h-575v13.7H1184v-13.7H609.3V824.8H1923.3z"/>
	<g id="path4176-0-80-7-2-6-3-6-8">
		<path class="st4" d="M650.1,1591.2l68.6-68.6c202.1-54.5,384.3-95.4,547.6,41.2l-68.6,27.4
			C978.8,1481.7,883.1,1564.1,650.1,1591.2L650.1,1591.2z"/>
		<path class="st3" d="M650.1,1596c-2.7,0-4.8-2.4-4.8-5.1c0-1.4,0.7-2.4,1.4-3.4l68.6-68.6c0.7-0.7,1.4-1,2.1-1.4
			c100.2-27.1,197.6-51.1,289.2-51.1h0.3c102.9,0,186.3,29.5,262.5,93c1.4,1,2.1,2.7,1.7,4.5c-0.3,1.7-1.4,3.1-3.1,3.8l-68.6,27.4
			c-1.4,0.3-2.7,0.3-4.1,0c-156.4-78.2-248.4-58-375.7-30.2c-48.7,10.6-104,22.6-169.1,30.5L650.1,1596z M989.1,1530.8
			c61.4,0,126.3,14.1,208.9,54.9l58.7-23.7c-72.7-58.3-152.3-85.8-249.8-85.8l0,0c-90.2,0-186.6,23.7-285.4,50.4l-57.6,58
			c58.7-7.5,109.1-18.9,154-28.5C879.3,1542.5,932.9,1530.8,989.1,1530.8z"/>
	</g>
	<g id="path4138-7-47-2-0-8-0-1-51-1">
		<path class="st4" d="M718.8,769.9l-68.6,68.3v753.1l68.6-68.6V769.9z"/>
		<path class="st3" d="M650.1,1596c-0.7,0-1.4,0-2.1-0.3c-1.7-0.7-3.1-2.4-3.1-4.5V838.5c0-1.4,0.7-2.4,1.4-3.4l68.6-68.6
			c2.1-2.1,5.1-2.1,6.9,0c1,1,1.4,2.1,1.4,3.4v753.1c0,1.4-0.7,2.4-1.4,3.4l-68.6,68.6C652.9,1595.6,651.5,1596,650.1,1596z
			 M655.3,840.2v739.3l58.7-58.7V781.5L655.3,840.2z"/>
	</g>
	<g id="path4176-0-8-44-2-1-8-3-0-0">
		<path class="st4" d="M1882.5,1591.2l-68.6-68.6c-202.1-54.5-384.3-95.4-547.6,41.2l68.6,27.4
			C1553.8,1481.7,1649.6,1564.1,1882.5,1591.2L1882.5,1591.2z"/>
		<path class="st3" d="M1882.5,1596h-0.7c-65.2-7.5-120.4-19.9-169.1-30.5c-127.3-27.8-219.2-48-375.7,30.2c-1.4,0.7-2.7,0.7-4.1,0
			l-68.6-27.4c-1.7-0.7-2.7-2.1-3.1-3.8c-0.3-1.7,0.3-3.4,1.7-4.5c76.2-63.5,159.5-93,262.5-93l0,0c91.9,0,189,24,289.2,51.1
			c0.7,0.3,1.7,0.7,2.1,1.4l68.6,68.6c2.1,2.1,1.7,5.1,0,6.9C1884.9,1595.3,1883.5,1596,1882.5,1596L1882.5,1596z M1275.9,1562.4
			l58.7,23.7c158.2-78.6,251.5-58,380.1-29.8c44.9,9.9,95.4,20.9,154,28.5l-57.6-57.6c-99.2-26.8-195.2-50.4-285.4-50.4l0,0
			C1427.9,1476.6,1348.3,1504,1275.9,1562.4z"/>
	</g>
	<g id="path4138-7-47-0-7-7-6-6-6-1-4">
		<path class="st4" d="M1813.9,769.9l68.6,68.3v753.1l-68.6-68.6V769.9z"/>
		<path class="st3" d="M1882.5,1596c-1.4,0-2.4-0.7-3.4-1.4l-68.6-68.6c-1-1-1.4-2.1-1.4-3.4V769.9c0-2.7,2.1-4.8,4.8-4.8
			c1.4,0,2.4,0.7,3.4,1.4l68.6,68.6c1,1,1.4,2.1,1.4,3.4v752.7c0,2.1-1.4,3.8-3.1,4.5C1883.5,1596,1882.9,1596,1882.5,1596z
			 M1818.7,1520.5l58.7,58.7V840.5l-58.7-58.7V1520.5z"/>
	</g>
	<g id="path4138-7-4-8-6-2-1-1-5-82-4">
		<path class="st4" d="M1813.9,1522.9c-202.1-54.5-384.3-95.4-547.6,41.2V811c163.3-136.2,345.5-95.4,547.6-41.2V1522.9z"/>
		<path class="st3" d="M1266.3,1568.9c-0.7,0-1.4-0.3-2.1-0.3c-1.7-0.7-2.7-2.4-2.7-4.5V811c0-1.4,0.7-2.7,1.7-3.8
			c76.2-63.5,159.5-93,262.5-93l0,0c91.9,0,189,24,289.2,51.1c2.1,0.7,3.8,2.4,3.8,4.8v753.1c0,1.4-0.7,3.1-2.1,3.8
			c-1.4,1-2.7,1-4.1,0.7c-99.5-26.8-196.2-50.8-286.8-50.8l0,0c-100.5,0-181.8,28.8-256.3,90.9
			C1268.4,1568.2,1267.4,1568.9,1266.3,1568.9z M1271.1,813.1v740.4c74.1-59,155.1-86.5,254.6-86.5l0,0c89.9,0,185.3,23.3,283,49.4
			V773.6c-98.1-26.4-193.8-49.7-283-49.7l0,0C1425.9,723.9,1344.9,752.4,1271.1,813.1L1271.1,813.1z"/>
	</g>
	<g id="path4138-7-4-1-5-0-8-4-8-8-0-9">
		<path class="st4" d="M718.8,1522.9c202.1-54.5,384.3-95.4,547.6,41.2V811c-163.7-136.2-345.5-95.4-547.6-41.2V1522.9z"/>
		<path class="st3" d="M1266.3,1568.9c-1,0-2.4-0.3-3.1-1c-74.4-62.1-155.8-90.9-256.3-90.9l0,0c-90.6,0-187.3,24-286.8,50.8
			c-1.4,0.3-3.1,0-4.1-0.7c-1-1-2.1-2.4-2.1-3.8V769.9c0-2.1,1.4-4.1,3.8-4.8c100.2-27.1,197.6-51.1,289.2-51.1h0.3
			c102.9,0,186.3,29.5,262.5,93.3c1,1,1.7,2.4,1.7,3.8v753.1c0,2.1-1,3.4-2.7,4.5C1267.7,1568.5,1267,1568.9,1266.3,1568.9z
			 M1006.6,1467L1006.6,1467c99.5,0,180.5,27.4,254.6,86.5V813.1c-73.8-61.1-154.7-89.5-254.6-89.5l0,0c-89.5,0-184.9,23.3-283,49.7
			v742.8C821.7,1490.3,917.1,1467,1006.6,1467z"/>
	</g>
	<path class="st3" d="M1202.5,879c-122.5-69.6-253.2-57-424.1-13.7l-3.1-12c173.9-44.3,307.4-57,433.3,14.8L1202.5,879z"/>
	<path class="st3" d="M1202.5,968.8c-122.5-69.6-253.2-56.6-424.1-13.4l-3.1-12c173.9-44.3,307.4-57,433.3,14.8L1202.5,968.8z"/>
	<g id="path4138-7-4-1-5-0-8-4-8-7-4-0-8-4">
		<path class="st3" d="M1202.5,1058.7c-122.5-69.6-253.2-56.6-424.1-13.4l-3.1-12c173.9-44.3,307.4-57,433.3,14.8L1202.5,1058.7z"/>
	</g>
	<path class="st3" d="M1202.5,1148.6c-122.5-69.6-253.2-57-424.1-13.4l-3.1-12c173.9-44.3,307.4-57,433.3,14.8L1202.5,1148.6z"/>
	<path class="st3" d="M778.5,1225.1l-3.1-12c69-17.5,150.3-35.3,228.8-36v12.4C927,1189.8,846.7,1207.6,778.5,1225.1z"/>
	<g id="g4828">
		<path class="st3" d="M991.5,1186.7c207.2-264.9,426.8-433,627.5-537.6c-254.2,120.1-379.5,246-487.9,352.3
			c42.5-134.5,143.8-257.3,283.7-351.7c98.8-66.6,216.8-118.4,399-74.8l-51.5,107.7l-115.6-6.9l102.9,24.7
			c-96.4,155.8-173.3,254.2-261.4,300.5c-93.3-45.6-124.5-56.6-193.5-67.9c75.5,32.6,136.5,63.8,153,86.8
			c-162.6,61.4-233.6,37.1-295.7,29.5l-144.4,139.3L991.5,1186.7z"/>
		<g id="path4639-2-5-4-7-1-3">
			<path class="st3" d="M1141.1,1013.8C1302.4,845.3,1466.4,729,1619,649.1c-254.2,120.1-379.5,246-487.9,352.3"/>
		</g>
	</g>
</g>
</svg>
