<svg id="Layer_1" data-name="Layer 1" xmlns="http://www.w3.org/2000/svg" xmlns:xlink="http://www.w3.org/1999/xlink" viewBox="0 0 735 852"><defs><style>.cls-1{fill:#f9ecc6;}.cls-2{opacity:0.25;fill:url(#linear-gradient);}.cls-3{fill:#484546;}.cls-4{fill:#3e3221;}.cls-5{fill:#1c1c1c;}.cls-6{fill:#fff;}</style><linearGradient id="linear-gradient" x1="366.13" y1="-120.6" x2="367.43" y2="342.93" gradientUnits="userSpaceOnUse"><stop offset="0" stop-color="#fff" stop-opacity="0.83"/><stop offset="0.56" stop-color="#fff" stop-opacity="0.37"/><stop offset="1" stop-color="#fff" stop-opacity="0"/></linearGradient></defs><title>bookdown</title><path class="cls-1" d="M366.89,342.23c-128,0-238.11-56.75-287.51-138.27l-50,28.87V623.26L367.49,818.48,705.61,623.26V232.83l-50.9-29.39C605.46,285.24,495.12,342.23,366.89,342.23Z"/><path class="cls-1" d="M367.49,37.62,79.38,204c49.4,81.52,159.55,138.27,287.51,138.27,128.23,0,238.57-57,287.82-138.79L367.49,37.62Z"/><path class="cls-2" d="M367.49,37.62,79.38,204c49.4,81.52,159.55,138.27,287.51,138.27,128.23,0,238.57-57,287.82-138.79L367.49,37.62Z"/><polygon class="cls-3" points="734.91 639.18 734.91 214.92 705.61 198.01 427.81 37.62 367.5 2.8 367.5 2.8 427.81 37.62 705.61 198.01 734.91 214.92 734.91 639.18 705.61 656.09 424.35 818.48 367.5 851.3 367.5 851.3 424.35 818.48 705.61 656.09 734.91 639.18"/><polygon class="cls-3" points="29.37 232.83 79.38 203.96 367.49 37.62 367.49 37.62 29.37 232.83 29.37 623.26 367.49 818.48 367.49 818.48 29.37 623.26 29.37 232.83"/><path class="cls-4" d="M705.61,656.09l29.3-16.91V214.92L705.61,198,427.81,37.62,367.5,2.8h0L307.19,37.62,29.37,198,.09,214.92V639.18l29.28,16.9,281.28,162.4L367.5,851.3h0l56.85-32.82Zm0-423.26V623.26L367.49,818.48h0L29.37,623.26V232.83L367.49,37.62h0L654.71,203.44Z"/><path class="cls-5" d="M365.53,799.08l4.47,4.51c1,1,1.89,1.91,2.72,2.88l.06,0c-.38-1.2-.69-2.52-1-3.85l-1.4-6.33,1.6-.93,4.66,4.29c1.12,1,2.06,1.95,2.91,2.87l.07,0a39.55,39.55,0,0,1-1.18-3.85l-1.56-6.12,1.88-1.1,2.71,12.42-1.72,1-4.51-4.06c-1-1-1.95-1.82-2.93-2.9l0,0a34.08,34.08,0,0,1,1.06,4l1.21,6-1.73,1-9.24-8.61Z"/><path class="cls-5" d="M382.12,789.42l4.47,4.51c1,1,1.9,1.91,2.72,2.87l.06,0c-.37-1.2-.68-2.52-1-3.85l-1.4-6.33,1.6-.93,4.66,4.29c1.12,1,2.06,1.95,2.92,2.87l.06,0a36.54,36.54,0,0,1-1.17-3.86l-1.57-6.11,1.88-1.1,2.72,12.42-1.73,1-4.51-4.06c-1-1-1.95-1.82-2.92-2.9l-.05,0a34.08,34.08,0,0,1,1.06,4l1.21,5.95-1.73,1-9.24-8.62Z"/><path class="cls-5" d="M398.71,779.76l4.48,4.51c1,1,1.89,1.91,2.71,2.87l.06,0c-.37-1.2-.68-2.52-1-3.85l-1.4-6.33,1.6-.93,4.66,4.29c1.12,1,2.06,2,2.92,2.87l.06,0a36.54,36.54,0,0,1-1.17-3.86l-1.57-6.11,1.88-1.1,2.72,12.42-1.73,1-4.5-4.05a40,40,0,0,1-2.93-2.9l-.05,0a34.17,34.17,0,0,1,1.07,4l1.2,6-1.72,1-9.24-8.62Z"/><path class="cls-5" d="M418.42,780.78a1.49,1.49,0,0,1,.51-2.12,1.58,1.58,0,0,1,1.56,2.74A1.48,1.48,0,0,1,418.42,780.78Z"/><path class="cls-5" d="M420.25,771.59c-.72-1.23-1.36-2.28-2-3.21l1.67-1,1.25,2,.09,0a3.63,3.63,0,0,1,1.56-4,2.36,2.36,0,0,1,.58-.25l1,1.79a3.31,3.31,0,0,0-.68.31,3.09,3.09,0,0,0-1.13,3.93,6.84,6.84,0,0,0,.43.94l3.24,5.57-1.87,1.09Z"/><path class="cls-5" d="M430.54,772.62a5.8,5.8,0,0,0,2.95-.7c1.38-.8,1.62-1.87,1.12-2.74s-1.36-1.09-3.06-.79c-2.27.43-3.76-.09-4.49-1.35-1-1.68-.43-3.86,1.82-5.16a6,6,0,0,1,2.95-.85l.33,1.66a4.67,4.67,0,0,0-2.49.64,1.76,1.76,0,0,0-.92,2.44c.5.87,1.36.89,3,.62,2.21-.37,3.67,0,4.58,1.55,1.06,1.84.39,4-2.09,5.41a6.91,6.91,0,0,1-3.35,1Z"/><path class="cls-5" d="M435.37,754.39l1.75,3,2.72-1.59.85,1.45L438,758.84l3.29,5.64c.75,1.3,1.55,1.82,2.6,1.2a5,5,0,0,0,1-.77l.92,1.38a5.49,5.49,0,0,1-1.54,1.24,3.07,3.07,0,0,1-2.51.39,4.45,4.45,0,0,1-2.32-2.29l-3.32-5.7-1.62.94-.85-1.45,1.62-.94L433.8,756Z"/><path class="cls-5" d="M455.59,756.83c.63,1.07,1.2,2,1.75,2.79l-1.69,1-1.1-1.65,0,0a4.55,4.55,0,0,1-2.33,4c-1.64,1-4.13,1.2-6.27-2.47l-3.56-6.12,1.9-1.1,3.37,5.79c1.16,2,2.54,3,4.27,2a3.17,3.17,0,0,0,1.5-3.18,3.36,3.36,0,0,0-.39-1.08l-3.74-6.41,1.9-1.11Z"/><path class="cls-5" d="M460.94,737l7.35,12.64c.54.93,1.18,2,1.66,2.65l-1.7,1-1.15-1.76,0,0a4.46,4.46,0,0,1-2.37,4.13c-2.53,1.47-5.72.47-7.56-2.71-2.05-3.46-1.14-6.86,1.41-8.34a4,4,0,0,1,4.09-.24l0,0L459,738.1Zm3.42,10.25a3.66,3.66,0,0,0-.56-.75,3.22,3.22,0,0,0-4-.61c-2,1.15-2.13,3.55-.78,5.87,1.23,2.11,3.29,3.26,5.34,2.06a3.3,3.3,0,0,0,1.46-3.89,3.33,3.33,0,0,0-.39-.87Z"/><path class="cls-5" d="M467.77,735.62a1.3,1.3,0,0,1-.53,1.87,1.31,1.31,0,0,1-1.82-.5,1.34,1.34,0,0,1,.49-1.88A1.3,1.3,0,0,1,467.77,735.62Zm5.68,14.62-6.08-10.45,1.9-1.11,6.09,10.45Z"/><path class="cls-5" d="M485.31,736.22c2.25,3.87.55,7.11-2,8.59-2.82,1.64-6.21.84-8.14-2.47-2-3.49-.94-6.88,1.95-8.56S483.45,733,485.31,736.22Zm-8.23,4.94c1.33,2.29,3.65,3.25,5.51,2.17s2.18-3.56.81-5.91c-1-1.77-3.22-3.5-5.47-2.19S475.92,739.17,477.08,741.16Z"/><path class="cls-5" d="M489.61,739.33a1.49,1.49,0,1,1,2.06.62A1.47,1.47,0,0,1,489.61,739.33Z"/><path class="cls-5" d="M502.84,732.61A8.14,8.14,0,0,1,500.2,735c-3.16,1.83-6.46.89-8.32-2.31a6.15,6.15,0,0,1,2.39-8.82,7.34,7.34,0,0,1,3-1l.42,1.72a5.09,5.09,0,0,0-2.49.79c-2.4,1.39-2.67,3.92-1.4,6.1,1.41,2.42,3.84,3,5.91,1.8a6.26,6.26,0,0,0,2-1.88Z"/><path class="cls-5" d="M512,720.7c2.25,3.87.55,7.11-2,8.58-2.82,1.65-6.21.85-8.14-2.46-2-3.5-.94-6.88,1.95-8.57S510.11,717.5,512,720.7Zm-8.23,4.94c1.33,2.29,3.65,3.25,5.51,2.17s2.18-3.56.81-5.91c-1-1.77-3.22-3.51-5.47-2.2S502.58,723.65,503.74,725.64Z"/><path class="cls-5" d="M513.45,716.74c-.63-1.08-1.16-2-1.73-2.78l1.66-1,1.07,1.64.07,0a4.14,4.14,0,0,1,2.16-3.83,3.57,3.57,0,0,1,4.18.37l0,0a5,5,0,0,1,.38-2,4.14,4.14,0,0,1,1.88-2.08c1.38-.8,4-1.09,6.07,2.54l3.59,6.15L531,716.76l-3.44-5.92c-1.17-2-2.61-2.79-4.15-1.9a2.86,2.86,0,0,0-1.24,3,3.46,3.46,0,0,0,.41,1l3.76,6.46-1.86,1.08-3.65-6.26c-1-1.66-2.41-2.45-3.85-1.6a3.28,3.28,0,0,0-.86,4.29l3.67,6.3-1.86,1.08Z"/><path class="cls-4" d="M89.69,615c.26-4.62.53-11.47.53-17.49V515.69H101.7v42.53H102c4.1-7.55,11.49-12.45,21.79-12.45,15.84,0,27.06,14,26.92,34.56,0,24.21-14.38,36.24-28.64,36.24-9.24,0-16.63-3.78-21.39-12.73h-.39L99.72,615Zm12-27.14a23.78,23.78,0,0,0,.53,4.47c2.24,8.54,9,14.42,17.42,14.42,12.15,0,19.41-10.5,19.41-26,0-13.57-6.6-25.19-19-25.19-7.92,0-15.31,5.74-17.69,15.12a25.85,25.85,0,0,0-.66,5Z"/><path class="cls-4" d="M220.5,580.61c0,25-16.37,36-31.81,36-17.3,0-30.63-13.43-30.63-34.84,0-22.67,14-36,31.68-36C208.09,545.77,220.5,559.9,220.5,580.61Zm-50.69.7c0,14.83,8.05,26,19.4,26,11.09,0,19.41-11.06,19.41-26.31,0-11.47-5.41-26-19.14-26S169.81,568.44,169.81,581.31Z"/><path class="cls-4" d="M290.33,580.61c0,25-16.37,36-31.82,36-17.29,0-30.62-13.43-30.62-34.84,0-22.67,14-36,31.68-36C277.92,545.77,290.33,559.9,290.33,580.61Zm-50.69.7c0,14.83,8.05,26,19.4,26,11.09,0,19.41-11.06,19.41-26.31,0-11.47-5.41-26-19.14-26S239.64,568.44,239.64,581.31Z"/><path class="cls-4" d="M313.82,578.37h.27c1.58-2.38,3.82-5.32,5.67-7.69l18.75-23.37h14l-24.69,27.84L355.93,615H341.81l-22.05-32.46-5.94,7V615H302.34V515.69h11.48Z"/><path class="cls-4" d="M416.78,515.69v81.85c0,6,.13,12.87.53,17.49H406.88l-.53-11.75h-.26c-3.56,7.55-11.35,13.29-21.78,13.29-15.45,0-27.33-13.85-27.33-34.42-.13-22.53,13.07-36.38,28.65-36.38,9.77,0,16.37,4.9,19.27,10.35h.27V515.69Zm-11.61,59.18a23.28,23.28,0,0,0-.53-5.17c-1.72-7.84-8.05-14.28-16.77-14.28-12,0-19.14,11.2-19.14,26.17,0,13.71,6.34,25,18.88,25,7.79,0,14.92-5.46,17-14.7a22.82,22.82,0,0,0,.53-5.31Z"/><path class="cls-4" d="M491.23,580.61c0,25-16.37,36-31.81,36-17.3,0-30.63-13.43-30.63-34.84,0-22.67,14-36,31.68-36C478.82,545.77,491.23,559.9,491.23,580.61Zm-50.69.7c0,14.83,8,26,19.4,26,11.09,0,19.41-11.06,19.41-26.31,0-11.47-5.41-26-19.14-26S440.54,568.44,440.54,581.31Z"/><path class="cls-4" d="M506.94,547.31l8.45,34.42c1.84,7.56,3.56,14.55,4.75,21.55h.39c1.46-6.86,3.57-14.13,5.68-21.41l10.43-34.56h9.77l9.9,33.86c2.37,8.12,4.22,15.25,5.67,22.11h.4a212.93,212.93,0,0,1,4.88-22l9.11-34h11.49L567.26,615H556.7l-9.77-32.32c-2.24-7.56-4.09-14.27-5.67-22.25H541a210,210,0,0,1-5.8,22.39L524.89,615H514.33l-19.27-67.72Z"/><path class="cls-4" d="M596.83,565.64c0-7-.14-12.73-.53-18.33h10.3l.66,11.19h.26a23.34,23.34,0,0,1,21.12-12.73c8.84,0,22.57,5.6,22.57,28.82V615H639.6V576c0-10.91-3.83-20-14.79-20-7.65,0-13.59,5.74-15.57,12.6a18.61,18.61,0,0,0-.8,5.73V615H596.83Z"/><path class="cls-4" d="M560.73,243.17V474.6H393.14v4H345.25v-4H177.67V243.17Z"/><g id="path4176-0-80-7-2-6-3-6-8"><path class="cls-6" d="M189.64,466.62l20-19.95c58.89-15.85,112-27.75,159.61,12l-20,8c-63.84-31.92-91.77-8-159.6,0Z"/><path class="cls-4" d="M189.63,468a1.43,1.43,0,0,1-1-2.43l20-19.95a1.46,1.46,0,0,1,.64-.36c29.18-7.86,57.58-14.9,84.33-14.9h.06c30,0,54.28,8.63,76.49,27.15a1.41,1.41,0,0,1,.5,1.31,1.44,1.44,0,0,1-.88,1.1l-20,8a1.42,1.42,0,0,1-1.16-.05c-45.56-22.78-72.38-16.89-109.5-8.75-14.19,3.12-30.28,6.65-49.31,8.89Zm98.75-19c17.93,0,36.84,4.08,60.93,16l17.12-6.85c-21.17-17-44.38-25-72.83-25h-.05c-26.29,0-54.37,6.94-83.23,14.7L193.56,464.7c17.12-2.23,31.84-5.46,44.94-8.33C256.43,452.44,272,449,288.38,449Z"/></g><g id="path4138-7-47-2-0-8-0-1-51-1"><path class="cls-6" d="M209.59,227.21l-20,19.95V466.62l20-19.95Z"/><path class="cls-4" d="M189.64,468a1.5,1.5,0,0,1-.55-.11,1.43,1.43,0,0,1-.88-1.31V247.16a1.47,1.47,0,0,1,.42-1l20-20a1.42,1.42,0,0,1,2.43,1V446.67a1.4,1.4,0,0,1-.42,1l-20,19.95A1.42,1.42,0,0,1,189.64,468Zm1.42-220.29V463.19l17.11-17.11V230.64Z"/></g><g id="path4176-0-8-44-2-1-8-3-0-0"><path class="cls-6" d="M548.76,466.62l-20-19.95c-58.89-15.85-111.95-27.75-159.6,12l19.95,8c63.84-31.92,91.77-8,159.61,0Z"/><path class="cls-4" d="M548.76,468h-.17c-19-2.24-35.11-5.77-49.31-8.89-37.12-8.14-63.94-14-109.5,8.75a1.42,1.42,0,0,1-1.16.05l-19.95-8a1.44,1.44,0,0,1-.88-1.1,1.41,1.41,0,0,1,.5-1.31c22.21-18.52,46.52-27.14,76.5-27.15h0c26.75,0,55.15,7,84.33,14.9a1.46,1.46,0,0,1,.64.36l20,19.95a1.43,1.43,0,0,1-1,2.43ZM372,458.21l17.12,6.85c46.11-22.89,73.27-16.93,110.81-8.69,13.1,2.87,27.82,6.1,44.94,8.33l-16.76-16.76c-28.86-7.76-56.94-14.7-83.23-14.7h0C416.34,433.25,393.13,441.2,372,458.21Z"/></g><g id="path4138-7-47-0-7-7-6-6-6-1-4"><path class="cls-6" d="M528.8,227.21l20,19.95V466.62l-20-19.95Z"/><path class="cls-4" d="M548.76,468a1.44,1.44,0,0,1-1-.42l-20-19.95a1.4,1.4,0,0,1-.42-1V227.21a1.42,1.42,0,0,1,2.43-1l20,20a1.42,1.42,0,0,1,.42,1V466.62a1.43,1.43,0,0,1-.88,1.31A1.49,1.49,0,0,1,548.76,468Zm-18.53-22,17.11,17.11V247.75l-17.11-17.11Z"/></g><g id="path4138-7-4-8-6-2-1-1-5-82-4"><path class="cls-6" d="M528.8,446.67c-58.89-15.85-111.95-27.75-159.6,12V239.18c47.65-39.72,100.71-27.82,159.6-12Z"/><path class="cls-4" d="M369.2,460.06a1.47,1.47,0,0,1-.61-.14,1.41,1.41,0,0,1-.82-1.28V239.18a1.41,1.41,0,0,1,.52-1.1c22.21-18.51,46.52-27.13,76.5-27.15h0c26.75,0,55.15,7,84.33,14.9a1.43,1.43,0,0,1,1.06,1.38V446.67a1.44,1.44,0,0,1-.56,1.13,1.46,1.46,0,0,1-1.23.24c-29-7.8-57.2-14.8-83.6-14.8h0c-29.28,0-53,8.43-74.69,26.49A1.39,1.39,0,0,1,369.2,460.06Zm1.42-220.22V455.65c21.58-17.21,45.23-25.24,74.17-25.25h0c26.2,0,54,6.76,82.54,14.41V228.29c-28.61-7.68-56.46-14.51-82.54-14.51h0C415.74,213.79,392.15,222.07,370.62,239.84Z"/></g><g id="path4138-7-4-1-5-0-8-4-8-8-0-9"><path class="cls-6" d="M209.59,446.67c58.89-15.85,112-27.75,159.61,12V239.18c-47.66-39.72-100.72-27.82-159.61-12Z"/><path class="cls-4" d="M369.2,460.06a1.4,1.4,0,0,1-.91-.33c-21.68-18.06-45.41-26.48-74.69-26.49h-.05c-26.4,0-54.6,7-83.59,14.8a1.48,1.48,0,0,1-1.24-.24,1.43,1.43,0,0,1-.55-1.13V227.21a1.43,1.43,0,0,1,1.05-1.38c29.18-7.85,57.58-14.9,84.33-14.9h.06c30,0,54.28,8.64,76.49,27.16a1.38,1.38,0,0,1,.52,1.09V458.64a1.41,1.41,0,0,1-.82,1.28A1.42,1.42,0,0,1,369.2,460.06ZM293.55,430.4h.06c28.93,0,52.58,8,74.16,25.25V239.84c-21.53-17.77-45.12-26.05-74.17-26.06h-.05c-26.08,0-53.92,6.83-82.54,14.51V444.81C239.56,437.16,267.35,430.4,293.55,430.4Z"/></g><path class="cls-4" d="M350.6,259C314.88,238.66,276.81,242.42,227,255l-.9-3.53c50.73-12.85,89.55-16.62,126.34,4.27Z"/><path class="cls-4" d="M350.6,285.16c-35.72-20.29-73.79-16.54-123.64-3.91l-.9-3.53c50.73-12.86,89.55-16.63,126.34,4.27Z"/><g id="path4138-7-4-1-5-0-8-4-8-7-4-0-8-4"><path class="cls-4" d="M350.6,311.36c-35.72-20.29-73.79-16.53-123.64-3.91l-.9-3.53c50.73-12.85,89.55-16.62,126.34,4.27Z"/></g><path class="cls-4" d="M350.6,337.57C314.88,317.28,276.81,321,227,333.66l-.9-3.53c50.73-12.86,89.55-16.63,126.34,4.27Z"/><path class="cls-4" d="M227,359.86l-.9-3.53c20.15-5.1,43.82-10.34,66.66-10.46l0,3.65C270.29,349.64,246.89,354.81,227,359.86Z"/><g id="g4828"><path class="cls-4" d="M289.13,348.73C349.55,271.45,413.55,222.54,472,192c-74.14,35-110.65,71.69-142.25,102.72,12.35-39.2,41.88-75,82.7-102.52,28.82-19.42,63.25-34.5,116.27-21.84l-15,31.39-33.71-2,30,7.19c-28.09,45.44-50.48,74.14-76.25,87.57-27.25-13.33-36.28-16.47-56.35-19.77,22,9.51,39.77,18.63,44.56,25.31-47.42,17.86-68.13,10.76-86.17,8.61l-42.14,40.65Z"/><g id="path4639-2-5-4-7-1-3"><path class="cls-4" d="M332.68,298.31c47-49.07,94.75-83,139.29-106.3-74.14,35-110.65,71.69-142.25,102.72"/></g></g></svg>