<svg xmlns="http://www.w3.org/2000/svg" xmlns:xlink="http://www.w3.org/1999/xlink" viewBox="0 0 735 852"><defs><style>.cls-1{fill:none;}.cls-2{isolation:isolate;}.cls-3{clip-path:url(#clip-path);}.cls-4{fill:#f9ecc6;}.cls-19,.cls-5{opacity:0.25;}.cls-5{fill:url(#linear-gradient);}.cls-6{fill:#484546;}.cls-14,.cls-7{fill:#3e3221;}.cls-8{font-size:25px;fill:#1c1c1c;letter-spacing:0.03em;}.cls-14,.cls-8{font-family:MyriadPro-Regular, Myriad Pro;}.cls-9{letter-spacing:-0.02em;}.cls-10{letter-spacing:0.02em;}.cls-11{letter-spacing:0em;}.cls-12{letter-spacing:0.01em;}.cls-13{letter-spacing:0.02em;}.cls-14{font-size:132px;letter-spacing:-0.02em;}.cls-15{letter-spacing:-0.03em;}.cls-16{letter-spacing:-0.02em;}.cls-17{fill:#fff;}.cls-18{opacity:0.94;}.cls-19{mix-blend-mode:multiply;}.cls-20{clip-path:url(#clip-path-2);}.cls-21{clip-path:url(#clip-path-3);}.cls-22{clip-path:url(#clip-path-4);}.cls-23{opacity:0.95;}.cls-24{clip-path:url(#clip-path-5);}</style><clipPath id="clip-path"><polygon class="cls-1" points="369.51 9.19 728.21 216.26 728.21 638.42 369.51 846.82 2.79 638.42 2.79 216.26 369.51 9.19"/></clipPath><linearGradient id="linear-gradient" x1="366.25" y1="-120.6" x2="367.55" y2="342.93" gradientUnits="userSpaceOnUse"><stop offset="0" stop-color="#fff" stop-opacity="0.83"/><stop offset="0.56" stop-color="#fff" stop-opacity="0.37"/><stop offset="1" stop-color="#fff" stop-opacity="0"/></linearGradient><clipPath id="clip-path-2"><path class="cls-1" d="M-2236.85,2560.33-2575,2755.55l-338.12-195.22V2169.9L-2575,1974.69h0l338.13,195.21Z"/></clipPath><clipPath id="clip-path-3"><polygon class="cls-1" points="-2731.05 2344.11 -2423.39 2344.11 4155.48 6525.38 -9309.91 6525.38 -2731.05 2344.11"/></clipPath><clipPath id="clip-path-4"><path class="cls-1" d="M-2238.35,2558.83l-338.13,195.22-338.12-195.22V2168.4l338.12-195.21h0l338.13,195.21Z"/></clipPath><clipPath id="clip-path-5"><polygon class="cls-1" points="-2732.55 2342.61 -2424.89 2342.61 4153.98 6523.88 -9311.41 6523.88 -2732.55 2342.61"/></clipPath></defs><title>RStudio_Hex 2017 v4</title><g class="cls-2"><g id="Layer_1" data-name="Layer 1"><g class="cls-3"><circle class="cls-4" cx="365.5" cy="439.25" r="442.13" transform="translate(-203.54 387.1) rotate(-45)"/><path class="cls-5" d="M682.13,107.6c0,129.58-141.13,234.63-315.24,234.63S51.65,237.18,51.65,107.6,192.79-127,366.89-127,682.13-22,682.13,107.6Z"/></g><path class="cls-6" d="M705.61,198,427.81,37.62,367.5,2.8,307.19,37.62,29.37,198,.09,214.92V639.18l29.28,16.9,281.28,162.4L367.5,851.3l56.85-32.82L705.61,656.09l29.3-16.91V214.92Zm0,425.25L367.49,818.48,29.37,623.26V232.83L367.49,37.62h0L705.61,232.83Z"/><path class="cls-7" d="M705.61,198,427.81,37.62,367.5,2.8,307.19,37.62,29.37,198,.09,214.92V639.18l29.28,16.9,281.28,162.4L367.5,851.3l56.85-32.82L705.61,656.09l29.3-16.91V214.92Zm0,425.25L367.49,818.48,29.37,623.26V232.83L367.49,37.62h0L705.61,232.83Z"/><text class="cls-8" transform="matrix(0.86, -0.5, 0.5, 0.86, 369.28, 810.9)">ww<tspan class="cls-9" x="38.4" y="0">w</tspan><tspan class="cls-10" x="56.32" y="0">.rstudi</tspan><tspan class="cls-11" x="125.07" y="0">o</tspan><tspan class="cls-10" x="138.7" y="0">.</tspan><tspan class="cls-12" x="144.37" y="0">c</tspan><tspan class="cls-13" x="155.92" y="0">om</tspan></text><text class="cls-14" transform="translate(80.58 615.03) scale(1 1.06)">bookd<tspan class="cls-15" x="343.19" y="0">o</tspan><tspan class="cls-16" x="412.1" y="0">wn</tspan></text><path class="cls-7" d="M560.73,243.17V474.6H393.14v4H345.25v-4H177.67V243.17Z"/><g id="path4176-0-80-7-2-6-3-6-8"><path class="cls-17" d="M189.64,466.62l20-19.95c58.89-15.85,112-27.75,159.61,12l-20,8c-63.84-31.92-91.77-8-159.6,0Z"/><path class="cls-7" d="M189.63,468a1.43,1.43,0,0,1-1-2.43l20-19.95a1.46,1.46,0,0,1,.64-.36c29.18-7.86,57.58-14.9,84.33-14.9h.06c30,0,54.28,8.63,76.49,27.15a1.41,1.41,0,0,1,.5,1.31,1.44,1.44,0,0,1-.88,1.1l-20,8a1.42,1.42,0,0,1-1.16-.05c-45.56-22.78-72.38-16.89-109.5-8.75-14.19,3.12-30.28,6.65-49.31,8.89Zm98.75-19c17.93,0,36.84,4.08,60.93,16l17.12-6.85c-21.17-17-44.38-25-72.83-25h-.05c-26.29,0-54.37,6.94-83.23,14.7L193.56,464.7c17.12-2.23,31.84-5.46,44.94-8.33C256.43,452.44,272,449,288.38,449Z"/></g><g id="path4138-7-47-2-0-8-0-1-51-1"><path class="cls-17" d="M209.59,227.21l-20,19.95V466.62l20-19.95Z"/><path class="cls-7" d="M189.64,468a1.5,1.5,0,0,1-.55-.11,1.43,1.43,0,0,1-.88-1.31V247.16a1.47,1.47,0,0,1,.42-1l20-20a1.42,1.42,0,0,1,2.43,1V446.67a1.4,1.4,0,0,1-.42,1l-20,19.95A1.42,1.42,0,0,1,189.64,468Zm1.42-220.29V463.19l17.11-17.11V230.64Z"/></g><g id="path4176-0-8-44-2-1-8-3-0-0"><path class="cls-17" d="M548.76,466.62l-20-19.95c-58.89-15.85-111.95-27.75-159.6,12l19.95,8c63.84-31.92,91.77-8,159.61,0Z"/><path class="cls-7" d="M548.76,468h-.17c-19-2.24-35.11-5.77-49.31-8.89-37.12-8.14-63.94-14-109.5,8.75a1.42,1.42,0,0,1-1.16.05l-19.95-8a1.44,1.44,0,0,1-.88-1.1,1.41,1.41,0,0,1,.5-1.31c22.21-18.52,46.52-27.14,76.5-27.15h0c26.75,0,55.15,7,84.33,14.9a1.46,1.46,0,0,1,.64.36l20,19.95a1.43,1.43,0,0,1-1,2.43ZM372,458.21l17.12,6.85c46.11-22.89,73.27-16.93,110.81-8.69,13.1,2.87,27.82,6.1,44.94,8.33l-16.76-16.76c-28.86-7.76-56.94-14.7-83.23-14.7h0C416.34,433.25,393.13,441.2,372,458.21Z"/></g><g id="path4138-7-47-0-7-7-6-6-6-1-4"><path class="cls-17" d="M528.8,227.21l20,19.95V466.62l-20-19.95Z"/><path class="cls-7" d="M548.76,468a1.44,1.44,0,0,1-1-.42l-20-19.95a1.4,1.4,0,0,1-.42-1V227.21a1.42,1.42,0,0,1,2.43-1l20,20a1.42,1.42,0,0,1,.42,1V466.62a1.43,1.43,0,0,1-.88,1.31A1.49,1.49,0,0,1,548.76,468Zm-18.53-22,17.11,17.11V247.75l-17.11-17.11Z"/></g><g id="path4138-7-4-8-6-2-1-1-5-82-4"><path class="cls-17" d="M528.8,446.67c-58.89-15.85-111.95-27.75-159.6,12V239.18c47.65-39.72,100.71-27.82,159.6-12Z"/><path class="cls-7" d="M369.2,460.06a1.47,1.47,0,0,1-.61-.14,1.41,1.41,0,0,1-.82-1.28V239.18a1.41,1.41,0,0,1,.52-1.1c22.21-18.51,46.52-27.13,76.5-27.15h0c26.75,0,55.15,7,84.33,14.9a1.43,1.43,0,0,1,1.06,1.38V446.67a1.44,1.44,0,0,1-.56,1.13,1.46,1.46,0,0,1-1.23.24c-29-7.8-57.2-14.8-83.6-14.8h0c-29.28,0-53,8.43-74.69,26.49A1.39,1.39,0,0,1,369.2,460.06Zm1.42-220.22V455.65c21.58-17.21,45.23-25.24,74.17-25.25h0c26.2,0,54,6.76,82.54,14.41V228.29c-28.61-7.68-56.46-14.51-82.54-14.51h0C415.74,213.79,392.15,222.07,370.62,239.84Z"/></g><g id="path4138-7-4-1-5-0-8-4-8-8-0-9"><path class="cls-17" d="M209.59,446.67c58.89-15.85,112-27.75,159.61,12V239.18c-47.66-39.72-100.72-27.82-159.61-12Z"/><path class="cls-7" d="M369.2,460.06a1.4,1.4,0,0,1-.91-.33c-21.68-18.06-45.41-26.48-74.69-26.49h-.05c-26.4,0-54.6,7-83.59,14.8a1.48,1.48,0,0,1-1.24-.24,1.43,1.43,0,0,1-.55-1.13V227.21a1.43,1.43,0,0,1,1.05-1.38c29.18-7.85,57.58-14.9,84.33-14.9h.06c30,0,54.28,8.64,76.49,27.16a1.38,1.38,0,0,1,.52,1.09V458.64a1.41,1.41,0,0,1-.82,1.28A1.42,1.42,0,0,1,369.2,460.06ZM293.55,430.4h.06c28.93,0,52.58,8,74.16,25.25V239.84c-21.53-17.77-45.12-26.05-74.17-26.06h-.05c-26.08,0-53.92,6.83-82.54,14.51V444.81C239.56,437.16,267.35,430.4,293.55,430.4Z"/></g><path class="cls-7" d="M350.6,259C314.88,238.66,276.81,242.42,227,255l-.9-3.53c50.73-12.85,89.55-16.62,126.34,4.27Z"/><path class="cls-7" d="M350.6,285.16c-35.72-20.29-73.79-16.54-123.64-3.91l-.9-3.53c50.73-12.86,89.55-16.63,126.34,4.27Z"/><g id="path4138-7-4-1-5-0-8-4-8-7-4-0-8-4"><path class="cls-7" d="M350.6,311.36c-35.72-20.29-73.79-16.53-123.64-3.91l-.9-3.53c50.73-12.85,89.55-16.62,126.34,4.27Z"/></g><path class="cls-7" d="M350.6,337.57C314.88,317.28,276.81,321,227,333.66l-.9-3.53c50.73-12.86,89.55-16.63,126.34,4.27Z"/><path class="cls-7" d="M227,359.86l-.9-3.53c20.15-5.1,43.82-10.34,66.66-10.46l0,3.65C270.29,349.64,246.89,354.81,227,359.86Z"/><g id="g4828"><path class="cls-7" d="M289.13,348.73C349.55,271.45,413.55,222.54,472,192c-74.14,35-110.65,71.69-142.25,102.72,12.35-39.2,41.88-75,82.7-102.52,28.82-19.42,63.25-34.5,116.27-21.84l-15,31.39-33.71-2,30,7.19c-28.09,45.44-50.48,74.14-76.25,87.57-27.25-13.33-36.28-16.47-56.35-19.77,22,9.51,39.77,18.63,44.56,25.31-47.42,17.86-68.13,10.76-86.17,8.61l-42.14,40.65Z"/><g id="path4639-2-5-4-7-1-3"><path class="cls-7" d="M332.68,298.31c47-49.07,94.75-83,139.29-106.3-74.14,35-110.65,71.69-142.25,102.72"/></g></g><g class="cls-18"><g class="cls-19"><g class="cls-20"><g class="cls-21"><polyline points="14838.5 15350.43 14838.5 15350.43 -17929.5 -17417.56 -17929.5 -17417.56 14838.5 15350.43"/><polyline points="-306.65 405.87 318.6 405.87 133.83 523.31 -451.52 523.31 -306.65 405.87"/><polyline points="-17929.5 15350.43 -17929.5 15350.43 14838.5 -17417.56 14838.5 -17417.56 -17929.5 15350.43"/><polyline points="-1113.74 -259.45 1365.42 -259.45 931.15 16.56 -1274.94 16.56 -1113.74 -259.45"/></g></g></g><g class="cls-22"><g class="cls-23"><g class="cls-2"><g class="cls-24"><polyline class="cls-17" points="14837 15348.93 14837 15348.93 -17931 -17419.06 -17931 -17419.06 14837 15348.93"/><polyline class="cls-17" points="-308.15 404.37 317.1 404.37 132.33 521.81 -453.02 521.81 -308.15 404.37"/><polyline class="cls-17" points="-17931 15348.93 -17931 15348.93 14837 -17419.06 14837 -17419.06 -17931 15348.93"/><polyline class="cls-17" points="-1115.24 -260.95 1363.92 -260.95 929.65 15.06 -1276.44 15.06 -1115.24 -260.95"/></g></g></g></g></g></g></g></svg>