<svg id="Layer_1" data-name="Layer 1" xmlns="http://www.w3.org/2000/svg" xmlns:xlink="http://www.w3.org/1999/xlink" viewBox="0 0 735 852"><defs><style>.cls-1,.cls-15{fill:none;}.cls-2{clip-path:url(#clip-path);}.cls-3,.cls-6{opacity:0.25;}.cls-3{fill:url(#linear-gradient);}.cls-4{clip-path:url(#clip-path-2);}.cls-5{fill:#ed7d15;}.cls-6{fill:url(#linear-gradient-2);}.cls-7{fill:#ac5d12;}.cls-8{fill:#e6b35a;}.cls-9{fill:#e5b259;}.cls-10{font-size:160px;letter-spacing:-0.03em;}.cls-10,.cls-14,.cls-16{fill:#fff;}.cls-10,.cls-16{font-family:MyriadPro-Regular, Myriad Pro;}.cls-11{letter-spacing:-0.04em;}.cls-12{letter-spacing:-0.03em;}.cls-13,.cls-15{stroke:#000;stroke-miterlimit:10;}.cls-13{stroke-width:10px;}.cls-15{stroke-width:0.75px;}.cls-16{font-size:25px;letter-spacing:0.03em;}.cls-17{letter-spacing:-0.02em;}.cls-18{letter-spacing:0.02em;}.cls-19{letter-spacing:0.01em;}.cls-20{letter-spacing:0.01em;}.cls-21{letter-spacing:0.01em;}</style><clipPath id="clip-path"><polygon class="cls-1" points="369.51 981.72 728.21 1188.79 728.21 1610.94 369.51 1819.35 2.79 1610.94 2.79 1188.79 369.51 981.72"/></clipPath><linearGradient id="linear-gradient" x1="366.25" y1="851.93" x2="367.55" y2="1315.45" gradientUnits="userSpaceOnUse"><stop offset="0" stop-color="#fff" stop-opacity="0.83"/><stop offset="0.56" stop-color="#fff" stop-opacity="0.37"/><stop offset="1" stop-color="#fff" stop-opacity="0"/></linearGradient><clipPath id="clip-path-2"><polygon class="cls-1" points="369.51 7.4 728.21 214.47 728.21 636.62 369.51 845.03 2.79 636.62 2.79 214.47 369.51 7.4"/></clipPath><linearGradient id="linear-gradient-2" x1="366.25" y1="-122.39" x2="367.55" y2="341.13" xlink:href="#linear-gradient"/></defs><title> </title><g class="cls-2"><ellipse class="cls-3" cx="366.89" cy="1080.12" rx="315.24" ry="234.63"/></g><g class="cls-4"><circle class="cls-5" cx="365.5" cy="437.45" r="442.13"/><ellipse class="cls-6" cx="366.89" cy="105.8" rx="315.24" ry="234.63"/></g><path class="cls-7" d="M705.61,196.21,427.81,35.82,367.5,1,307.19,35.82,29.37,196.22.09,213.13V637.38l29.28,16.91,281.28,162.4,56.85,32.82,56.85-32.82L705.61,654.3l29.3-16.92V213.13Zm0,425.26L367.49,816.68,29.37,621.47V231L367.49,35.82h0L705.61,231Z"/><path class="cls-8" d="M367,633.9c.29-.29.6-.59.93-.89h-.26Z"/><path class="cls-9" d="M367,633.9c.29-.29.6-.59.93-.89h-.26Z"/><text class="cls-10" transform="translate(152.29 619.9)">b<tspan class="cls-11" x="85.92" y="0">r</tspan><tspan class="cls-12" x="131.52" y="0">oom</tspan></text><path class="cls-13" d="M366.93,291.52c-3.77.17-7.47.55-11.16.44a28.44,28.44,0,0,1-8.07-1.35c-2.78-.93-3.56-2.86-2.57-5.63,1.13-3.13,2.56-6.16,4-9.19.64-1.38,1.56-2.64,2.27-4a35.61,35.61,0,0,1,8.79-11.38c3.38-2.77,4.68-6.16,4-10.74-1.57-9.93-2.39-20-4-29.92-1-6.25-2.94-12.36-4.34-18.55-1.57-7-3-13.94-2.66-21.13a18.45,18.45,0,0,1,1.17-5.66c1.46-3.73,5.28-5,8.52-2.67a20.37,20.37,0,0,1,5.25,5.61A77.69,77.69,0,0,1,379,207.15c1.6,10.65,3,21.32,4.51,32,.35,2.5.59,5,.91,7.73,3.83-1,7.47-1.85,11.1-2.81s7.25-2,10.87-3a4.84,4.84,0,0,0,1.16-.42c4.69-2.79,9.48-5.44,14-8.43,4.86-3.2,9.49-6.75,14.25-10.1,2-1.42,4.17-2.67,6.15-4.14a6.91,6.91,0,0,0,1.57-2.23,36.77,36.77,0,0,1,2.51-4.6,11.58,11.58,0,0,0,2.58-7.5c0-1.54-.39-3.3,1.61-4.07a4.86,4.86,0,0,1,5.27,1.57,13.27,13.27,0,0,1,1.68,2.47,33.11,33.11,0,0,1,1.26,3.19c2.26-3.69,4.32-7,6.24-10.28.76-1.32,1.44-2.74,3.15-2.68a3.17,3.17,0,0,1,2.43,1.13,8.94,8.94,0,0,1,.76,4.19c-.23,2.91-.79,5.8-1.3,9.23,2-1.15,3.6-2.05,5.17-3,1.35-.82,2.57-2,4-2.49a4.28,4.28,0,0,1,3.42.44c.63.45.88,2.05.65,3a15.12,15.12,0,0,1-7.93,9.88,2.66,2.66,0,0,0-1.2,1.05c.8.16,1.6.35,2.41.48,1.62.27,3.26.47,4.87.77,1.82.35,2.57,1.71,3,3.35a2.9,2.9,0,0,1-1.66,3.39,17.63,17.63,0,0,1-4.54,1.6,9.29,9.29,0,0,1-3.15-.19,9.63,9.63,0,0,0-7.44,1.54,16.24,16.24,0,0,1-14.65,2.3,4.66,4.66,0,0,0-4.28.71c-10.82,7.13-21.6,14.33-32.65,21.09-4,2.46-8.72,3.82-13.12,5.65-3.59,1.49-7.16,3-10.81,4.36a52.19,52.19,0,0,1-5.83,1.42l.62,11.61c2.89-.13,5.69-.25,8.48-.4,2.35-.13,4.71-.25,7-.47a2.35,2.35,0,0,0,1.57-.8A11.72,11.72,0,0,1,412,268.2c5.25-.66,9.45-3.41,13.71-6.16,2.41-1.55,3.92-1.6,5.46-.29s1.7,3.45.85,5.68a6.86,6.86,0,0,1-3.33,3.93,4.86,4.86,0,0,0-1.54,1.43c-1.11,1.47-.8,2.37.95,2.9a19,19,0,0,1,10.5,7.92c1.63,2.45,1.54,4.89-.3,6.4a3.28,3.28,0,0,1-2.66.65,37.83,37.83,0,0,1-4.79-2.5c-.89-.47-1.81-.91-3.19-1.6.39,2.32.73,4.06,1,5.82.32,2.29.59,4.56-1,6.58-1.49,1.87-3.5,2.31-5.11.55a23,23,0,0,1-3.1-5c-1-1.83-1.92-3.58-4.34-4.48-.14,1.39-.33,2.53-.34,3.67a9.44,9.44,0,0,1-1.84,5.77,3.74,3.74,0,0,1-4.16,1.56c-1.63-.48-1.92-1.71-1.88-3.18a7.68,7.68,0,0,0-1.73-5.79,8.24,8.24,0,0,1-3.15-5.12c-.13-1-.46-1.49-1.62-1.19-4.44,1.14-8.89,2.22-13.48,3.35,0,.48,0,1.06-.08,1.64-.49,8.76-.8,17.53-1.55,26.26-.55,6.38-1.71,12.71-2.53,19.07-.69,5.37-1.26,10.75-1.95,16.12a1.5,1.5,0,0,0,1.37,2c.92.2,1.79.62,2.71.77a4.06,4.06,0,0,0,1.92-.2c1-.34,1.77-.34,2.14.76,2.13,6.4,4.82,12.6,4.69,19.61-.17,9.72-4,17.43-11.7,23.22-2.62,2-5.52,3.59-8.32,5.33s-2.81,4.12-.09,6c8.29,5.69,14.29,13.39,19.3,22,4.51,7.71,7.17,16.13,9.32,24.7,1.11,4.44,3.81,7,7.72,8.73a33,33,0,0,0,13.5,3c6.12,0,12.25.19,18.38.33,1.85,0,2.26.54,2,2.41a8.24,8.24,0,0,1-4.13,6.29,90.44,90.44,0,0,1-9.65,4.68c-2,.89-4.22,1.45-6.8,2.31,1.5.72,2.65,1.19,3.7,1.83a1.92,1.92,0,0,1,.81,1.36c0,.32-.63.89-1,.95-6.5,1-12.83,3-19.51,2.86-7.22-.19-14.2-1.18-20.44-5.19a3.36,3.36,0,0,0-1.84-.4c-4.59.17-9.19.24-13.76.69-1.7.17-3.3,1.27-5,1.95a4.06,4.06,0,0,1-1.44.53c-5.6-.17-10.75,1.75-16,3.26-3,.87-6.19,1.37-9.29,2a2.77,2.77,0,0,1-3.37-1.85,22.51,22.51,0,0,0-1.47-2.44,6.63,6.63,0,0,0-1.08.29c-5,2.32-10.41,2.27-15.7,2.92-2.22.27-4.44.52-6.67.7s-2.42-.31-1.66-2.49c-6.52,1-11.81-2.13-17.17-5-.61-.32-.93-1.18-1.38-1.79a7,7,0,0,1,2-1.09c6.23-1.11,12.35-2.47,17.71-6.09.24-.16.45-.37.65-.53,0-.17,0-.31,0-.38-4.61-6.23-7.1-13.4-8.59-20.85a33,33,0,0,1,0-9.8A47.9,47.9,0,0,1,314.84,418a39.68,39.68,0,0,1,10.65-8.64q6-3.23,11.83-6.71c.62-.37.94-1.27,1.31-2,.21-.4.13-1,.37-1.35,1.54-2.5,1.1-5.21.63-7.8-1.46-8.13-.08-15.91,2.39-23.64,2.07-6.5,5.23-12.47,8.46-18.43.86-1.58,1.61-1.59,2.75-.21a3.76,3.76,0,0,0,1.22.92c1.27.62,2.57,1.17,3.85,1.77a4.28,4.28,0,0,0,5.28-.9,2.46,2.46,0,0,0,.5-1.42c.36-4,.67-8.09,1-12.14.54-6.81,1.27-13.6,1.58-20.42.36-8.12.36-16.25.5-24.37A6.24,6.24,0,0,0,366.93,291.52Zm14,72.46.59.29c1.15-2.3,2.84-4.37,3.13-7l-.75-.33Z"/><path class="cls-14" d="M337.41,404c.7,0,25.28,6.62,35.84,8a64,64,0,0,1,20.15,25.74,181.11,181.11,0,0,1,6.93,20.16,12.8,12.8,0,0,0,6.46,8,33.39,33.39,0,0,0,16.37,4.32c6.06-.07,12.12,0,18.43,0a6.28,6.28,0,0,1-3.14,5c-3.35,1.8-18.25,8.21-18.79,8.69a18.63,18.63,0,0,0,3.44,2.68c-6.75,1.38-13.06,2.75-19.66,2.14-5.73-.53-17.58-5.49-18.37-5.46-23.32,1.77-47,8.32-47.45,7.1,0-.11-2-3.57-5.57-2.32-4.85,1.71-16.94,2.79-18.21,3,.69-1.47,3.16-1.9,1.29-4.07-6.69,3.59-13.13,1.86-19.45-1.86,9.09-2.13,14.16-5.21,17.49-6.79-9.37-18-9-28.41-8.33-32.06C310.66,415.32,332,406.3,337.41,404Z"/><path class="cls-14" d="M357.58,199.75c-1.84-7.85-2.11-21.31-1.79-22.9.69-3.46,3.54-5.52,6.5-2.78a28.07,28.07,0,0,1,5.39,6.89,85,85,0,0,1,9.84,30.92c1.39,11.15,3.19,22.25,4.43,33.41,1.06,9.59,2.35,29.55,2.35,30.18l-16.1.88c0-2.82.09-5.45,0-8.08-.09-1.93-4.53-39.19-4.93-42.86C360.21,211.63,358.16,202.26,357.58,199.75Z"/><path class="cls-14" d="M351.91,352.75c.31.12,5.65,14.45,5.9,15.41.41,1.61,1,2,2.45,1.29,1-.51,7.6-6.58,10.16-9.12.59,1.75,3,9,3.69,11.11s1.5,2.23,3.32,1.31A17.17,17.17,0,0,0,387,359.46c.05-.32.16-.64.24-1l.59-.12c1.09,3.9,2.61,7.74,3.2,11.72,1.47,10-1.1,18.76-9.14,25.33-2.81,2.3-11.09,9-15.85,8.58-3.35-.82-20.82-4.9-22.58-9.28-1.78-3.45-4.2-14.46.06-24.32C345.59,364.37,347.82,355.27,351.91,352.75Z"/><path class="cls-14" d="M480.85,209.73a14.87,14.87,0,0,1-7.76,6.41c-.75.28-1.31,1.7-1.44,2.67-.07.51.86,1.5,1.52,1.69a24,24,0,0,0,4.52.71c2.58.26,4.34,1.3,4.24,2.62s-2.27,2.53-4.63,2.44-4.7-.4-7-.43a4,4,0,0,0-2.3.88c-4.71,3.61-10.92,5.54-16.83,2.59a2.45,2.45,0,0,0-2,.29c-31.29,26-59,32.5-59.22,32.47s-2.65-12.26-1.31-14.6c.28-.48,25.61-3.45,55.36-29.93,2.31-2.05,3.27-3.94,5-6.26,1.46-1.94,1.44-4,1.47-6.12-.76-2.23.69-6.76,3.42-1.14.64,1.32,2.85,5.94,3.5,6.06s7.12-7.64,8.87-11.34c2.68-6.69,5.68-1.84.32,9.82-.33.72.13,2.36,1.08,2.51,3.18.49,7.77-2.78,10.16-4.17C484.19,200.93,481.94,207.88,480.85,209.73Z"/><path class="cls-14" d="M362.32,260.43c.27,1.32,1,9,1.14,11.88,0,.46-1.7,2.75-2.6,4.27s-.31,2.31,1.32,2.23c4.17-.21,37.08-2.12,38.08-2.14,2.58-.05,5.94-1.67,8.19-3.7a21.34,21.34,0,0,1,6.19-3.24c2.89-.6,5.72-1.26,8.08-3.24A27.89,27.89,0,0,1,426.6,264c1.06-.62,2.11-1.84,3.4-.42.91,1,.66,3.48-.49,4.56-.85.81-1.85,1.46-2.73,2.24-2,1.73-2.78,3.7-1.81,5.41a5.07,5.07,0,0,0,2.84,2.22c19.84,12.05,7.87,10.47,7.27,10.23-1.35-.53-5.93-3.35-9-3.23a2.18,2.18,0,0,0-.61,1.36c.36,2.78.84,5.55,1.28,8.32.11.82,1.57,10.06-3.86,2-.61-.9-3.95-6.56-5.5-8a3.62,3.62,0,0,0-3.21-.28c-.68.29-1.14,1.65-1.27,2.59-.28,2.13.29,4.38-1,6.34a4.18,4.18,0,0,1-1.19,1.47c-.81.43-1.78.63-1.82-.86a1.63,1.63,0,0,1,0-.17c.37-3.92-.56-7.2-4.13-9.5-.78-.5-1-1.92-1.39-3-.7-2.1-1-2.31-3.16-1.77-3.14.78-6.26,1.66-9.43,2.31s-35.11,7.72-42.21,3.08c-1.42-1.05-2-2.35-1.35-3.82,1.26-3,2.57-6,4.08-8.92,1-2,2.47-3.7,3.65-5.59.94-1.53,3.88-6.37,4.34-6.79C360.4,262.69,361.29,261.13,362.32,260.43Z"/><path class="cls-14" d="M384.39,292.87c0,4.13.11,4.09,0,8.07-.48,14-3.05,27.72-4.66,41.57-.93,8-2,21-2,22.3l-.68.06-3.56-10.66-.28-.84c-.75-2.19-1.61-2.38-3.18-.72a63.48,63.48,0,0,1-5.74,5.56,56.25,56.25,0,0,0,1.79-8.41c.11-2.67,3-34.45,3.2-54.5C369.65,294.62,380.85,293.42,384.39,292.87Z"/><path class="cls-14" d="M359.48,360.75c-.15,0-3.81-6-3.15-8,.39-.74,2.95,1.51,3.47,1.07C360.07,354.17,359.86,360.23,359.48,360.75Z"/><path class="cls-14" d="M380.91,364l3-7.08.75.33c-.29,2.67-2,4.74-3.13,7Z"/><path d="M356.32,355.19l-.14,1.06-.19-1,.39,0Z"/><path class="cls-14" d="M359.6,356.76a.83.83,0,0,0,0,.34s.11-.06.11-.08A1.68,1.68,0,0,0,359.6,356.76Z"/><path class="cls-14" d="M358.62,357.86v-.13l.13,0A.14.14,0,0,1,358.62,357.86Z"/><line class="cls-15" x1="356.46" y1="178.86" x2="353.95" y2="182.24"/><line class="cls-15" x1="356.76" y1="181.13" x2="354.26" y2="184.51"/><path class="cls-15" d="M357.26,183l-2.56,3.45"/><path class="cls-15" d="M357.71,185.43,354.33,190"/><path class="cls-15" d="M358.18,187l-3.38,4.55"/><path class="cls-15" d="M358.66,189.28l-3,4"/><path class="cls-15" d="M359.09,191.39l-3.19,4.3"/><path class="cls-15" d="M359.61,193.34l-3.25,4.38"/><path class="cls-15" d="M360.3,195.85l-3.56,4.79"/><path class="cls-15" d="M360.94,198.23l-3.77,5.09"/><path class="cls-15" d="M361.45,201l-3.61,4.87"/><path class="cls-15" d="M362.17,203,358.5,208"/><path class="cls-15" d="M362.87,205.37,358.66,211"/><path class="cls-15" d="M363.59,207.54l-4.26,5.75"/><path class="cls-15" d="M364.27,209.9l-3.82,5.15"/><path class="cls-15" d="M364.76,212.51l-4.15,5.6"/><path class="cls-15" d="M365.19,215.07l-3.92,5.28"/><path class="cls-15" d="M365.43,217.66l-3.82,5.15"/><path class="cls-15" d="M365.92,220.26l-4.15,5.6"/><path class="cls-15" d="M366.35,222.83l-3.92,5.28"/><path class="cls-15" d="M366.6,225.21l-3.77,5.09"/><path class="cls-15" d="M367.29,227.53,363,233.34"/><path class="cls-15" d="M367.8,230l-4.15,5.6"/><line class="cls-15" x1="367.78" y1="232.78" x2="363.45" y2="238.62"/><path class="cls-15" d="M368.5,235.06l-4.89,6.6"/><path class="cls-15" d="M368.74,237.89l-4.46,6"/><line class="cls-15" x1="368.6" y1="241.32" x2="364.27" y2="247.16"/><path class="cls-15" d="M369.21,243.76l-4.78,6.45"/><path class="cls-15" d="M369.41,246.64l-4.32,5.82"/><path class="cls-15" d="M369.66,250.22l-4.18,5.63"/><path class="cls-15" d="M369.9,253.15l-4.26,5.74"/><path class="cls-15" d="M369.91,256.29l-3.6,4.85"/><path class="cls-15" d="M370.13,259.68l-4.23,5.71"/><path class="cls-15" d="M370.15,262.91l-4.09,5.52"/><path class="cls-15" d="M370.12,266.1l-3.4,4.58"/><path class="cls-15" d="M370.33,269.13l-3.77,5.09"/><path class="cls-15" d="M370.38,272.33l-3.66,4.94"/><path class="cls-15" d="M370.57,275.22c-1.06,1.43-1.07.72-2.13,2.15"/><path class="cls-15" d="M361.82,264.52c-2,1.34-9.63,8.61-11.6,10"/><path class="cls-15" d="M360.8,267.49c-1.66,1.14-9,8.19-10.68,9.33"/><path class="cls-15" d="M359.9,270.76c-2,1.34-9.6,8.59-11.56,9.93"/><path class="cls-15" d="M358.86,273.82c-1.89,1.29-9.47,8.51-11.36,9.8"/><path class="cls-15" d="M357.79,276.83c-1.57,1.07-10.14,9.22-11.71,10.29"/><path class="cls-15" d="M351.93,283.62c-1.74,1.19-4.1,4.45-5.84,5.64"/><path class="cls-15" d="M353.06,286.17c-1.36,2.18-2.47,4.49-3.72,6.73"/><path class="cls-15" d="M352,284.86a79.52,79.52,0,0,0-4.67,8.11"/><path class="cls-15" d="M355.93,287.26c-1.17,1.83-2.09,3.79-3.13,5.69"/><path class="cls-15" d="M356.78,289.72c1.87-2.58,1-1.94-2,3.36"/><path class="cls-15" d="M360.17,288.7c1.63-2.7.7-1.33-2.34,4.34"/><path class="cls-15" d="M362.7,288.88l-3,4.11"/><path class="cls-15" d="M366,288.85l-2.94,4"/><path class="cls-15" d="M370,289.05l-2.12,2.88"/><path class="cls-15" d="M371.43,289.4l-1.52,2.06"/><path class="cls-15" d="M373.43,289.75l-.68.92"/><line class="cls-15" x1="371.67" y1="293.86" x2="368.42" y2="296.53"/><line class="cls-15" x1="371.42" y1="296.14" x2="368.17" y2="298.81"/><path class="cls-15" d="M371.45,298.08l-3.32,2.73"/><path class="cls-15" d="M371.3,300.53l-4.38,3.61"/><path class="cls-15" d="M371.38,302.19,367,305.8"/><path class="cls-15" d="M371.29,304.5l-3.87,3.19"/><path class="cls-15" d="M371.2,306.65l-4.13,3.4"/><path class="cls-15" d="M371.23,308.67,367,312.15"/><path class="cls-15" d="M371.3,311.28l-4.61,3.8"/><path class="cls-15" d="M371.35,313.74l-4.89,4"/><path class="cls-15" d="M371.18,316.54l-4.68,3.86"/><path class="cls-15" d="M371.38,318.71l-4.75,3.92"/><path class="cls-15" d="M371.5,321.13l-5.45,4.49"/><path class="cls-15" d="M371.68,323.41,366.16,328"/><path class="cls-15" d="M371.77,325.87l-5,4.08"/><path class="cls-15" d="M371.61,328.51l-5.38,4.43"/><path class="cls-15" d="M371.42,331.1l-5.07,4.18"/><path class="cls-15" d="M371,333.68l-5,4.08"/><path class="cls-15" d="M370.87,336.32l-5.38,4.43"/><path class="cls-15" d="M370.68,338.91l-5.07,4.18"/><path class="cls-15" d="M370.34,341.29l-4.89,4"/><path class="cls-15" d="M370.46,343.7l-5.59,4.6"/><path class="cls-15" d="M370.36,346.22,365,350.65"/><line class="cls-15" x1="369.67" y1="348.92" x2="364.06" y2="353.54"/><path class="cls-15" d="M369.82,351.31l-6.34,5.22"/><path class="cls-15" d="M369.37,354.11l-5.78,4.77"/><line class="cls-15" x1="368.4" y1="357.41" x2="362.79" y2="362.03"/><path class="cls-15" d="M368.41,359.92l-6.2,5.11"/><path class="cls-15" d="M367.91,362.76l-5.59,4.61"/><line class="cls-15" x1="341.91" y1="406.2" x2="319.55" y2="414.26"/><line class="cls-15" x1="343.13" y1="408.5" x2="318.31" y2="417.27"/><path class="cls-15" d="M345.17,410.43c-3.6,1.06-27,9.73-30.61,10.79"/><path class="cls-15" d="M335,418.33l-23.65,7"/><path class="cls-15" d="M333.51,421.65l-25,7.38"/><path class="cls-15" d="M330.19,426c-4.48,1.32-18.87,4.66-23.35,6"/><path class="cls-15" d="M327.42,429.62c-4.57,1.35-17.44,4.28-22,5.63"/><path class="cls-15" d="M327.8,432.83c-7.85,1.41-15.78,3.76-23.63,5.17"/><path class="cls-15" d="M326.87,435.94c-5.16,1.52-18.67,4.62-23.82,6.14"/><path class="cls-15" d="M323.2,440.36c-6,1.77-13.49,3.54-19.49,5.31"/><path class="cls-15" d="M319.44,444.48l-16.13,4.76"/><path class="cls-15" d="M319.73,447.51l-17.51,5.17"/><path class="cls-15" d="M319.64,451l-16.52,4.88"/><path class="cls-15" d="M320.32,454.31l-16.13,4.76"/><path class="cls-15" d="M319.85,457.45l-14.94,4.41"/><path class="cls-15" d="M319.21,460.65l-14.43,4.26"/><path class="cls-15" d="M319,463.41l-12.64,3.73"/><path class="cls-15" d="M319.06,466.62l-12.13,3.58"/><path class="cls-15" d="M319.16,469.41l-9.81,2.89"/><path class="cls-15" d="M319.9,472.35c-2.75.81-8.76,2.33-11.51,3.14"/><path class="cls-15" d="M321.15,475.22l-8.91,2.63"/><path class="cls-15" d="M322.64,476.75c-9.32,3-18.1,7.61-27.77,10.53"/><path class="cls-15" d="M324.91,478.15c-8.44,3.05-16.51,7.61-25.25,10.44"/><path class="cls-15" d="M326.59,479.16c-5.58,2.71-16.64,8.11-22.65,10.74"/><path class="cls-15" d="M327.64,481c-4.71,2.54-12.33,6.78-17.24,8.93"/><path class="cls-15" d="M328.22,483.19c-4.33,2.67-10.37,6.84-14.87,9.23"/><path class="cls-15" d="M328.78,485.12c-3.88,2.46-8.74,5.79-12.8,7.94"/><path class="cls-15" d="M330.27,486.36c-3.31,2.14-7.71,5.26-11.2,7.11"/><path class="cls-15" d="M331.77,487.25c-2.46,1.59-6.54,4.43-9.13,5.8"/><path class="cls-15" d="M352.35,354.93c-3,1.41-5.45,3.87-8.13,5.62"/><path class="cls-15" d="M353.6,357.32c-3.54,2.17-6.35,4.63-9.85,6.71"/><path class="cls-15" d="M354.58,360c-2.77,1.91-9.85,6.84-12.72,8.6"/><path class="cls-15" d="M355.55,364.16c-4.81,3.51-10.18,6.14-15.25,9.24"/><path class="cls-15" d="M384.53,356.86c-1.5,3.67-5.67,8.49-7.58,12"/><path class="cls-15" d="M383.57,356.31a87.1,87.1,0,0,1-4.34,8.82"/><path class="cls-15" d="M382.89,355.8a79.13,79.13,0,0,1-3.68,7.61"/><path class="cls-15" d="M382.38,355.57c-.92,2.26-2,4.45-3.14,6.6"/><path class="cls-15" d="M385.64,357.08c-1.53,3.75-5.75,8.62-7.69,12.16"/><path class="cls-15" d="M386.44,357.65c-1.5,3.67-5.67,8.49-7.58,12"/><path class="cls-15" d="M387,358.1c-1.47,3.6-5.6,8.35-7.47,11.76"/><path class="cls-15" d="M355.54,367.66c-5.22,3.18-10.62,6.09-15.77,9.39"/><path class="cls-15" d="M354.55,372.23c-5.15,2.82-10.39,5.48-15.47,8.44"/><path class="cls-15" d="M352.58,376.8c-4.59,2.55-9.23,5-13.82,7.58"/><path class="cls-15" d="M350.9,381.25c-3.92,2.06-7.79,4.21-11.74,6.22"/><path class="cls-15" d="M349.07,386.19c-3,1.67-6.09,3.29-9.12,5"/><path class="cls-15" d="M347,391.67c-2.09,1.19-4.19,2.36-6.27,3.56"/><path class="cls-15" d="M348.22,394.78l-7.79,4.73"/><path class="cls-15" d="M361,352.7a51.82,51.82,0,0,1-2.81,8.48"/><path class="cls-15" d="M359.93,352.35a47,47,0,0,1-2.65,7.75"/><path class="cls-15" d="M359.15,352a41.83,41.83,0,0,1-2.28,6.65"/><path class="cls-15" d="M358.61,351.85a35.27,35.27,0,0,1-2.19,6.12"/><path class="cls-15" d="M357.48,352.48a24.35,24.35,0,0,1-1.6,4"/><path class="cls-15" d="M356.64,352.35a15.7,15.7,0,0,1-1.39,3.21"/><path class="cls-15" d="M356.1,352.24a11.89,11.89,0,0,1-1.42,3"/><path class="cls-15" d="M362.11,352.69a62.86,62.86,0,0,1-3.39,10"/><path class="cls-15" d="M363,353.1a65.79,65.79,0,0,1-3.51,10.37"/><path class="cls-15" d="M363.59,353.44c-.75,3.75-2.37,7.32-3.72,10.88"/><path class="cls-15" d="M367.6,401.94c-.79,1.35-1.53,2.73-2.28,4.1"/><path class="cls-15" d="M366.26,402c-.76,1.26-1.46,2.57-2.18,3.86"/><path class="cls-15" d="M365.28,402c-.75,1.24-1.44,2.51-2.14,3.78"/><path class="cls-15" d="M364.56,402.12c-.73,1.19-1.38,2.43-2.06,3.66"/><path class="cls-15" d="M368.93,401.88c-.8,1.39-1.56,2.8-2.33,4.2"/><path class="cls-15" d="M370.1,401.75c-.84,1.5-1.64,3-2.46,4.52"/><path class="cls-15" d="M370.67,402.06c-.76,1.37-1.49,2.75-2.23,4.13"/><path class="cls-15" d="M360.53,401.37c-.75,1.22-1.43,2.48-2.13,3.73"/><path class="cls-15" d="M359.44,401c-.85,1.35-1.61,2.76-2.39,4.15"/><path class="cls-15" d="M358.69,400.62c-.87,1.4-1.65,2.87-2.46,4.31"/><path class="cls-15" d="M358.22,400.33q-.76,1.14-1.55,2.27"/><path class="cls-15" d="M361.65,401.66c-.76,1.23-1.45,2.52-2.15,3.79"/><path class="cls-15" d="M362.57,402c-.7,1.14-1.33,2.32-2,3.49"/><path class="cls-15" d="M363.41,401.92c-.74,1.23-1.42,2.49-2.11,3.74"/><path class="cls-15" d="M354.68,398.88c-1.17,1.87-2.22,3.83-3.32,5.74"/><path class="cls-15" d="M353.71,398.35c-1,1.46-1.95,2.89-3,4.31"/><path class="cls-15" d="M353,397.95c-.79,1.21-1.62,2.4-2.46,3.58"/><path class="cls-15" d="M352.5,397.66q-.88,1.34-1.8,2.65"/><path class="cls-15" d="M355.67,399.37c-1.09,1.74-2.07,3.57-3.09,5.36"/><path class="cls-15" d="M356.6,399.71c-1,1.68-2,3.43-3,5.15"/><path class="cls-15" d="M350.09,396.29c-1.14,1.76-2.35,3.48-3.58,5.18"/><path class="cls-15" d="M349.12,395.76c-1.08,1.66-2.22,3.28-3.38,4.89"/><path class="cls-15" d="M351.08,396.77c-1.11,1.71-2.29,3.37-3.48,5"/><path class="cls-15" d="M351.88,397.31c-1.06,1.63-2.17,3.22-3.31,4.8"/><path class="cls-15" d="M357.18,400c-1,1.55-1.83,3.17-2.72,4.76"/><path class="cls-15" d="M385.8,258.34c-.9,1.45-1.7,3-2.5,4.48"/><path class="cls-15" d="M384.79,257a36.5,36.5,0,0,0-2.34,3.79"/><path class="cls-15" d="M388.67,259.44c-1,1.63-1.89,3.37-2.8,5.08"/><path class="cls-15" d="M389.52,261.9q-.32.44-.61.9"/><path class="cls-15" d="M392.91,258.34c-.81,1.34-1.5,2.75-2.23,4.13"/><path class="cls-15" d="M395.44,258.51,393,261.84"/><path class="cls-15" d="M398.31,256.7l-2.94,4"/><path class="cls-15" d="M401.3,256.62l-2.12,2.88"/><path class="cls-15" d="M403.81,255.58,401.27,259"/><path class="cls-15" d="M407.15,256.17l-.85,1.16"/><path class="cls-15" d="M406.15,253.72c-.85,1.41-1.57,2.89-2.34,4.34"/><path class="cls-15" d="M408.68,253.89l-2.6,3.52"/><path class="cls-15" d="M411.55,252.08l-2.94,4"/><path class="cls-15" d="M414.54,252l-1.41,1.92"/><path class="cls-15" d="M417,251l-1.41,1.91"/><line class="cls-15" x1="338.04" y1="405.18" x2="315.69" y2="413.24"/><text class="cls-16" transform="matrix(0.86, -0.5, 0.5, 0.86, 369.28, 809.1)">ww<tspan class="cls-17" x="38.4" y="0">w</tspan><tspan class="cls-18" x="56.32" y="0">.tid</tspan><tspan x="91.72" y="0">y</tspan><tspan class="cls-19" x="104.3" y="0">v</tspan><tspan class="cls-18" x="116.57" y="0">ers</tspan><tspan class="cls-20" x="148.67" y="0">e</tspan><tspan class="cls-18" x="161.4" y="0">.o</tspan><tspan class="cls-21" x="181.3" y="0">r</tspan><tspan class="cls-18" x="189.77" y="0">g</tspan></text></svg>