<?xml version="1.0" encoding="utf-8"?>
<!-- Generator: Adobe Illustrator 22.0.1, SVG Export Plug-In . SVG Version: 6.00 Build 0)  -->
<svg version="1.1" id="Layer_1" xmlns="http://www.w3.org/2000/svg" xmlns:xlink="http://www.w3.org/1999/xlink" x="0px" y="0px"
	 viewBox="0 0 735 852" style="enable-background:new 0 0 735 852;" xml:space="preserve">
<style type="text/css">
	.st0{fill:#ED7D15;}
	.st1{opacity:0.25;fill:url(#SVGID_1_);enable-background:new    ;}
	.st2{fill:#AC5D12;}
	.st3{fill:#E6B35A;}
	.st4{fill:#E5B259;}
	.st5{fill:#FFFFFF;}
	.st6{stroke:#000000;stroke-width:10;stroke-miterlimit:10;}
	.st7{fill:none;stroke:#000000;stroke-width:0.75;stroke-miterlimit:10;}
</style>
<path class="st0" d="M18.2,627.4V224.1l51.6-29.8L367.5,22.5l0,0l296.7,171.3l52.6,30.3v403.3L367.5,829L18.2,627.4z"/>
<title>broom</title>
<linearGradient id="SVGID_1_" gradientUnits="userSpaceOnUse" x1="366.1355" y1="974.39" x2="367.4355" y2="510.87" gradientTransform="matrix(1 0 0 -1 0 852)">
	<stop  offset="0" style="stop-color:#FFFFFF;stop-opacity:0.83"/>
	<stop  offset="0.56" style="stop-color:#FFFFFF;stop-opacity:0.37"/>
	<stop  offset="1" style="stop-color:#FFFFFF;stop-opacity:0"/>
</linearGradient>
<path class="st1" d="M366.9,340.4c128.2,0,238.6-57,287.8-138.8L367.5,35.8l0,0L79.4,202.2C128.8,283.7,238.9,340.4,366.9,340.4z"/>
<path class="st2" d="M734.9,637.4V213.1l-29.3-16.9L427.8,35.8L367.5,1l-60.3,34.8L29.4,196.2L0.1,213.1v424.2l29.3,16.9
	l281.3,162.4l56.9,32.8l56.9-32.8l281.3-162.4L734.9,637.4z M29.4,621.5V231l50-28.9L367.5,35.8l0,0l287.2,165.8l50.9,29.4v390.5
	L367.5,816.7L29.4,621.5z"/>
<path class="st3" d="M367,633.9c0.3-0.3,0.6-0.6,0.9-0.9h-0.3C367.5,633.3,367.3,633.6,367,633.9z"/>
<path class="st4" d="M367,633.9c0.3-0.3,0.6-0.6,0.9-0.9h-0.3C367.5,633.3,367.3,633.6,367,633.9z"/>
<path class="st5" d="M163.3,619.9c0.3-5.3,0.6-13.1,0.6-20v-93.6h13.9v48.6h0.3c5-8.6,13.9-14.2,26.4-14.2c19.2,0,32.8,16,32.7,39.5
	c0,27.7-17.4,41.5-34.7,41.5c-11.2,0-20.2-4.3-25.9-14.6h-0.5l-0.6,12.8H163.3z M177.9,588.9c0,1.7,0.3,3.4,0.6,5.1
	c2.7,9.8,10.9,16.5,21.1,16.5c14.7,0,23.5-12,23.5-29.8c0-15.5-8-28.8-23.1-28.8c-9.6,0-18.6,6.6-21.4,17.3
	c-0.5,1.9-0.7,3.8-0.8,5.8L177.9,588.9z"/>
<path class="st5" d="M249.9,566.6c0-9.1-0.2-17-0.6-24.2h12.3l0.5,15.2h0.6c3.5-10.4,12-17,21.4-17c1.3,0,2.7,0.1,4,0.5v13.3
	c-1.6-0.3-3.2-0.5-4.8-0.5c-9.9,0-17,7.5-18.9,18.1c-0.4,2.2-0.6,4.4-0.6,6.6v41.3h-13.9V566.6z"/>
<path class="st5" d="M365.6,580.5c0,28.6-19.8,41.1-38.6,41.1c-21,0-37.1-15.4-37.1-39.8c0-25.9,17-41.1,38.4-41.1
	C350.5,540.7,365.6,556.8,365.6,580.5z M304.1,581.3c0,17,9.8,29.8,23.5,29.8c13.4,0,23.5-12.6,23.5-30.1c0-13.1-6.6-29.8-23.2-29.8
	S304.1,566.6,304.1,581.3z"/>
<path class="st5" d="M448.3,580.5c0,28.6-19.8,41.1-38.6,41.1c-21,0-37.1-15.4-37.1-39.8c0-25.9,17-41.1,38.4-41.1
	C433.2,540.7,448.3,556.8,448.3,580.5z M386.9,581.3c0,17,9.8,29.8,23.5,29.8c13.4,0,23.5-12.6,23.5-30.1c0-13.1-6.6-29.8-23.2-29.8
	S386.9,566.6,386.9,581.3z"/>
<path class="st5" d="M460.9,563.4c0-8-0.2-14.6-0.6-21h12.3l0.6,12.5h0.5c4.3-7.4,11.5-14.2,24.3-14.2c10.6,0,18.6,6.4,21.9,15.5
	h0.3c2.1-3.9,5.1-7.4,8.6-10.1c4.6-3.5,9.8-5.4,17.1-5.4c10.2,0,25.4,6.7,25.4,33.6v45.6h-13.8V576c0-14.9-5.4-23.8-16.8-23.8
	c-8,0-14.2,5.9-16.6,12.8c-0.7,2.3-1.1,4.6-1.1,7v47.8h-13.8v-46.4c0-12.3-5.4-21.3-16.2-21.3c-8.8,0-15.2,7-17.4,14.1
	c-0.8,2.2-1.2,4.5-1.1,6.9v46.7h-13.8V563.4z"/>
<path class="st6" d="M366.9,291.5c-3.8,0.2-7.5,0.5-11.2,0.4c-2.7-0.1-5.5-0.5-8.1-1.3c-2.8-0.9-3.6-2.9-2.6-5.6
	c1.1-3.1,2.6-6.2,4-9.2c0.6-1.4,1.6-2.6,2.3-4c2.1-4.4,5.1-8.2,8.8-11.4c3.4-2.8,4.7-6.2,4-10.7c-1.6-9.9-2.4-20-4-29.9
	c-1-6.2-3-12.4-4.3-18.6c-1.6-7-3-14-2.7-21.1c0.1-1.9,0.5-3.8,1.2-5.7c1.5-3.7,5.3-5,8.5-2.7c2.1,1.5,3.9,3.4,5.2,5.6
	c5.6,9.1,9.4,19.2,10.9,29.8c1.6,10.6,3,21.3,4.5,32c0.3,2.5,0.6,5,0.9,7.7c3.8-1,7.5-1.9,11.1-2.8s7.2-2,10.9-3.1
	c0.4-0.1,0.8-0.2,1.2-0.4c4.7-2.8,9.5-5.4,14-8.4c4.9-3.2,9.5-6.8,14.2-10.1c2-1.4,4.2-2.7,6.1-4.1c0.7-0.6,1.2-1.4,1.6-2.2
	c0.7-1.6,1.6-3.1,2.5-4.6c1.7-2.1,2.6-4.8,2.6-7.5c0-1.5-0.4-3.3,1.6-4.1c1.9-0.6,4,0,5.3,1.6c0.7,0.8,1.2,1.6,1.7,2.5
	c0.5,1,0.9,2.1,1.3,3.2c2.2-3.7,4.3-6.9,6.2-10.3c0.8-1.3,1.4-2.7,3.1-2.7c0.9,0,2.1,0.5,2.4,1.1c0.6,1.3,0.8,2.8,0.8,4.2
	c-0.2,2.9-0.8,5.8-1.3,9.2c2-1.1,3.6-2.1,5.2-3c1.4-0.8,2.6-2,4-2.5c1.2-0.3,2.4-0.2,3.4,0.4c0.6,0.4,0.9,2.1,0.6,3
	c-1.1,4.3-4,7.9-7.9,9.9c-0.5,0.2-0.9,0.6-1.2,1.1c0.8,0.2,1.6,0.4,2.4,0.5c1.6,0.3,3.3,0.5,4.9,0.8c1.8,0.4,2.6,1.7,3,3.4
	c0.4,1.4-0.3,2.8-1.7,3.4c-1.4,0.7-3,1.3-4.5,1.6c-1.1,0.1-2.1,0.1-3.1-0.2c-2.6-0.5-5.3,0-7.5,1.5c-4.2,3.1-9.7,3.9-14.6,2.3
	c-1.5-0.5-3.1-0.2-4.3,0.7c-10.8,7.1-21.6,14.3-32.6,21.1c-4,2.5-8.7,3.8-13.1,5.7c-3.6,1.5-7.2,3-10.8,4.4
	c-1.9,0.6-3.9,1.1-5.8,1.4c0.2,3.7,0.4,7.5,0.6,11.6c2.9-0.1,5.7-0.2,8.5-0.4c2.4-0.1,4.7-0.2,7-0.5c0.6-0.1,1.2-0.4,1.6-0.8
	c1.8-3,4.9-4.9,8.4-5.4c5.2-0.7,9.5-3.4,13.7-6.2c2.4-1.5,3.9-1.6,5.5-0.3s1.7,3.5,0.9,5.7c-0.6,1.7-1.8,3.1-3.3,3.9
	c-0.6,0.4-1.1,0.8-1.5,1.4c-1.1,1.5-0.8,2.4,0.9,2.9c4.3,1.3,8.1,4.1,10.5,7.9c1.6,2.5,1.5,4.9-0.3,6.4c-0.8,0.6-1.7,0.8-2.7,0.6
	c-1.7-0.7-3.3-1.5-4.8-2.5c-0.9-0.5-1.8-0.9-3.2-1.6c0.4,2.3,0.7,4.1,1,5.8c0.3,2.3,0.6,4.6-1,6.6c-1.5,1.9-3.5,2.3-5.1,0.5
	c-1.2-1.5-2.3-3.2-3.1-5c-1-1.8-1.9-3.6-4.3-4.5c-0.1,1.4-0.3,2.5-0.3,3.7c0,2.1-0.6,4.1-1.8,5.8c-0.9,1.4-2.6,2-4.2,1.6
	c-1.6-0.5-1.9-1.7-1.9-3.2c0.1-0.8,0.1-1.6-0.1-2.5c-0.3-1.2-0.8-2.4-1.6-3.3c-1.7-1.2-2.8-3.1-3.1-5.1c-0.1-1-0.5-1.5-1.6-1.2
	c-4.4,1.1-8.9,2.2-13.5,3.4c0,0.5,0,1.1-0.1,1.6c-0.5,8.8-0.8,17.5-1.5,26.3c-0.5,6.4-1.7,12.7-2.5,19.1c-0.7,5.4-1.3,10.8-2,16.1
	c-0.3,0.8,0.1,1.6,0.9,1.9c0.1,0.1,0.3,0.1,0.5,0.1c0.9,0.2,1.8,0.6,2.7,0.8c0.6,0.1,1.3,0,1.9-0.2c1-0.3,1.8-0.4,2.1,0.8
	c2.1,6.4,4.8,12.6,4.7,19.6c-0.2,9.7-4,17.4-11.7,23.2c-2.6,2-5.5,3.6-8.3,5.3s-2.8,4.1-0.1,6c8.3,5.7,14.3,13.4,19.3,22
	c4.5,7.7,7.2,16.1,9.3,24.7c1.1,4.4,3.8,7,7.7,8.7c4.2,1.9,8.8,3,13.5,3c6.1,0,12.2,0.2,18.4,0.3c1.9,0,2.3,0.5,2,2.4
	c-0.3,2.6-1.8,5-4.1,6.3c-3.1,1.7-6.4,3.3-9.7,4.7c-2,0.9-4.2,1.5-6.8,2.3c1.5,0.7,2.6,1.2,3.7,1.8c0.4,0.3,0.7,0.8,0.8,1.4
	c0,0.3-0.6,0.9-1,1c-6.5,1-12.8,3-19.5,2.9C400,491,393,490,386.8,486c-0.6-0.3-1.2-0.4-1.9-0.4c-4.6,0.2-9.2,0.2-13.8,0.7
	c-1.7,0.2-3.3,1.3-5,2c-0.4,0.3-0.9,0.4-1.4,0.5c-5.6-0.2-10.8,1.8-16,3.3c-3,0.9-6.2,1.4-9.3,2c-1.4,0.4-2.9-0.4-3.4-1.9
	c-0.4-0.8-0.9-1.7-1.5-2.4c-0.4,0.1-0.7,0.2-1.1,0.3c-5,2.3-10.4,2.3-15.7,2.9c-2.2,0.3-4.5,0.5-6.7,0.7s-2.4-0.3-1.7-2.5
	c-6.5,1-11.8-2.1-17.2-5c-0.6-0.3-0.9-1.2-1.4-1.8c0.6-0.5,1.2-0.8,2-1.1c6.2-1.1,12.4-2.5,17.7-6.1c0.2-0.2,0.5-0.4,0.6-0.5
	c0-0.2,0-0.3,0-0.4c-4.6-6.2-7.1-13.4-8.6-20.9c-0.5-3.2-0.5-6.6,0-9.8c1-10.2,5.3-19.9,12.2-27.5c3-3.5,6.6-6.4,10.6-8.6
	c4-2.2,7.9-4.4,11.8-6.7c0.6-0.4,0.9-1.3,1.3-2c0.2-0.4,0.1-1,0.4-1.4c1.5-2.5,1.1-5.2,0.6-7.8c-1.5-8.1-0.1-15.9,2.4-23.6
	c2.1-6.5,5.2-12.5,8.5-18.4c0.9-1.6,1.6-1.6,2.8-0.2c0.3,0.4,0.8,0.7,1.2,0.9c1.3,0.6,2.6,1.2,3.9,1.8c1.8,1,3.9,0.6,5.3-0.9
	c0.3-0.4,0.5-0.9,0.5-1.4c0.4-4,0.7-8.1,1-12.1c0.5-6.8,1.3-13.6,1.6-20.4c0.4-8.1,0.4-16.2,0.5-24.4
	C367.2,292.4,367.1,291.9,366.9,291.5z M380.9,364l0.6,0.3c1.1-2.3,2.8-4.4,3.1-7l-0.8-0.3L380.9,364z"/>
<path class="st5" d="M337.4,404c0.7,0,25.3,6.6,35.8,8c8.8,6.7,15.8,15.6,20.1,25.7c2.7,6.6,5,13.3,6.9,20.2c0.9,3.5,3.3,6.4,6.5,8
	c5,2.8,10.6,4.3,16.4,4.3c6.1-0.1,12.1,0,18.4,0c-0.1,2.1-1.3,4-3.1,5c-3.4,1.8-18.2,8.2-18.8,8.7c1,1,2.2,1.9,3.4,2.7
	c-6.8,1.4-13,2.8-19.6,2.1c-5.7-0.5-17.6-5.5-18.4-5.5c-23.3,1.8-47,8.3-47.5,7.1c0-0.1-2-3.6-5.6-2.3c-4.8,1.7-16.9,2.8-18.2,3
	c0.7-1.5,3.2-1.9,1.3-4.1c-6.7,3.6-13.1,1.9-19.4-1.9c9.1-2.1,14.1-5.2,17.5-6.8c-9.4-18-9-28.4-8.3-32.1
	C310.7,415.3,332,406.3,337.4,404z"/>
<path class="st5" d="M357.6,199.8c-1.9-7.9-2.1-21.3-1.8-22.9c0.7-3.5,3.5-5.5,6.5-2.8c2.1,2,4,4.3,5.4,6.9
	c5.2,9.6,8.6,20.1,9.8,30.9c1.4,11.1,3.2,22.2,4.4,33.4c1.1,9.6,2.3,29.6,2.3,30.2l-16.1,0.9c0-2.8,0.1-5.5,0-8.1
	c-0.1-1.9-4.5-39.2-4.9-42.9C360.2,211.6,358.2,202.3,357.6,199.8z"/>
<path class="st5" d="M351.9,352.8c0.3,0.1,5.6,14.4,5.9,15.4c0.4,1.6,1,2,2.5,1.3c1-0.5,7.6-6.6,10.2-9.1c0.6,1.8,3,9,3.7,11.1
	s1.5,2.2,3.3,1.3c5.2-2.5,8.8-7.5,9.6-13.3c0-0.3,0.2-0.6,0.2-1l0.6-0.1c1.1,3.9,2.6,7.7,3.2,11.7c1.5,10-1.1,18.8-9.1,25.3
	c-2.8,2.3-11.1,9-15.8,8.6c-3.4-0.8-20.8-4.9-22.6-9.3c-1.8-3.4-4.2-14.5,0.1-24.3C345.6,364.4,347.8,355.3,351.9,352.8z"/>
<path class="st5" d="M480.9,209.7c-1.8,3-4.5,5.2-7.8,6.4c-0.8,0.3-1.3,1.7-1.5,2.7c-0.1,0.5,0.9,1.5,1.5,1.7c1.5,0.4,3,0.6,4.5,0.7
	c2.6,0.3,4.3,1.3,4.2,2.6s-2.3,2.5-4.6,2.4s-4.7-0.4-7-0.4c-0.8,0.1-1.6,0.4-2.3,0.9c-4.7,3.6-10.9,5.5-16.8,2.6
	c-0.7-0.2-1.4-0.1-2,0.3c-31.3,25.9-59,32.5-59.2,32.5s-2.6-12.3-1.3-14.6c0.3-0.5,25.6-3.4,55.4-29.9c2.3-2.1,3.3-3.9,5-6.3
	c1.5-1.9,1.4-4,1.5-6.1c-0.8-2.2,0.7-6.8,3.4-1.1c0.6,1.3,2.9,5.9,3.5,6.1s7.1-7.6,8.9-11.3c2.7-6.7,5.7-1.8,0.3,9.8
	c-0.3,0.7,0.1,2.4,1.1,2.5c3.2,0.5,7.8-2.8,10.1-4.2C484.2,200.9,481.9,207.9,480.9,209.7z"/>
<path class="st5" d="M362.3,260.4c0.3,1.3,1,9,1.1,11.9c0,0.5-1.7,2.8-2.6,4.3s-0.3,2.3,1.3,2.2c4.2-0.2,37.1-2.1,38.1-2.1
	c2.6,0,5.9-1.7,8.2-3.7c1.9-1.4,4-2.5,6.2-3.2c2.9-0.6,5.7-1.3,8.1-3.2c1.2-0.9,2.5-1.8,3.9-2.5c1.1-0.6,2.1-1.8,3.4-0.4
	c0.9,1,0.7,3.5-0.5,4.6c-0.9,0.8-1.9,1.5-2.7,2.2c-2,1.7-2.8,3.7-1.8,5.4c0.6,1.1,1.7,1.9,2.8,2.2c19.8,12,7.9,10.5,7.3,10.2
	c-1.4-0.5-5.9-3.4-9-3.2c-0.4,0.4-0.6,0.8-0.6,1.4c0.4,2.8,0.8,5.5,1.3,8.3c0.1,0.8,1.6,10.1-3.9,2c-0.6-0.9-3.9-6.6-5.5-8
	c-1-0.6-2.2-0.7-3.2-0.3c-0.7,0.3-1.1,1.6-1.3,2.6c-0.3,2.1,0.3,4.4-1,6.3c-0.3,0.6-0.7,1.1-1.2,1.5c-0.8,0.4-1.8,0.6-1.8-0.9
	c0,0,0-0.1,0-0.2c0.4-3.9-0.5-7.2-4.1-9.5c-0.8-0.5-1-1.9-1.4-3c-0.7-2.1-1-2.3-3.2-1.8c-3.1,0.8-6.3,1.7-9.4,2.3
	s-35.1,7.7-42.2,3.1c-1.4-1-2-2.4-1.4-3.8c1.2-3,2.6-6,4.1-8.9c1-2,2.5-3.7,3.6-5.6c1-1.5,3.9-6.4,4.3-6.8
	C360.4,262.7,361.3,261.1,362.3,260.4z"/>
<path class="st5" d="M384.4,292.9c0,4.1,0.1,4.1,0,8.1c-0.5,14-3,27.7-4.7,41.6c-0.9,8-2,21-2,22.3l-0.7,0.1
	c-1.2-3.6-2.4-7.1-3.6-10.6l-0.3-0.8c-0.8-2.2-1.6-2.4-3.2-0.7c-1.8,2-3.7,3.8-5.7,5.6c0.8-2.8,1.4-5.6,1.8-8.4
	c0.1-2.7,3-34.5,3.2-54.5C369.6,294.6,380.9,293.4,384.4,292.9z"/>
<path class="st5" d="M359.5,360.8c-0.2,0-3.8-6-3.2-8c0.4-0.7,3,1.5,3.5,1.1C360.1,354.2,359.9,360.2,359.5,360.8z"/>
<path class="st5" d="M380.9,364l3-7.1l0.8,0.3c-0.3,2.7-2,4.7-3.1,7L380.9,364z"/>
<path d="M356.3,355.2l-0.1,1.1l-0.2-1L356.3,355.2L356.3,355.2z"/>
<path class="st5" d="M359.6,356.8c0,0.1,0,0.2,0,0.4c0,0,0.1-0.1,0.1-0.1C359.7,356.9,359.6,356.8,359.6,356.8z"/>
<path class="st5" d="M358.6,357.9v-0.1h0.1C358.7,357.8,358.7,357.9,358.6,357.9z"/>
<line class="st7" x1="356.5" y1="178.9" x2="354" y2="182.2"/>
<line class="st7" x1="356.8" y1="181.1" x2="354.3" y2="184.5"/>
<path class="st7" d="M357.3,183l-2.6,3.4"/>
<path class="st7" d="M357.7,185.4l-3.4,4.6"/>
<path class="st7" d="M358.2,187l-3.4,4.6"/>
<path class="st7" d="M358.7,189.3l-3,4"/>
<path class="st7" d="M359.1,191.4l-3.2,4.3"/>
<path class="st7" d="M359.6,193.3l-3.2,4.4"/>
<path class="st7" d="M360.3,195.9l-3.6,4.8"/>
<path class="st7" d="M360.9,198.2l-3.8,5.1"/>
<path class="st7" d="M361.5,201l-3.6,4.9"/>
<path class="st7" d="M362.2,203.1l-3.7,4.9"/>
<path class="st7" d="M362.9,205.4l-4.2,5.6"/>
<path class="st7" d="M363.6,207.5l-4.3,5.7"/>
<path class="st7" d="M364.3,209.9l-3.8,5.2"/>
<path class="st7" d="M364.8,212.5l-4.2,5.6"/>
<path class="st7" d="M365.2,215.1l-3.9,5.3"/>
<path class="st7" d="M365.4,217.7l-3.8,5.2"/>
<path class="st7" d="M365.9,220.3l-4.2,5.6"/>
<path class="st7" d="M366.4,222.8l-3.9,5.3"/>
<path class="st7" d="M366.6,225.2l-3.8,5.1"/>
<path class="st7" d="M367.3,227.5l-4.3,5.8"/>
<path class="st7" d="M367.8,230l-4.1,5.6"/>
<line class="st7" x1="367.8" y1="232.8" x2="363.5" y2="238.6"/>
<path class="st7" d="M368.5,235.1l-4.9,6.6"/>
<path class="st7" d="M368.7,237.9l-4.5,6"/>
<line class="st7" x1="368.6" y1="241.3" x2="364.3" y2="247.2"/>
<path class="st7" d="M369.2,243.8l-4.8,6.4"/>
<path class="st7" d="M369.4,246.6l-4.3,5.8"/>
<path class="st7" d="M369.7,250.2l-4.2,5.6"/>
<path class="st7" d="M369.9,253.1l-4.3,5.8"/>
<path class="st7" d="M369.9,256.3l-3.6,4.9"/>
<path class="st7" d="M370.1,259.7l-4.2,5.7"/>
<path class="st7" d="M370.1,262.9l-4.1,5.5"/>
<path class="st7" d="M370.1,266.1l-3.4,4.6"/>
<path class="st7" d="M370.3,269.1l-3.8,5.1"/>
<path class="st7" d="M370.4,272.3l-3.7,4.9"/>
<path class="st7" d="M370.6,275.2c-1.1,1.4-1.1,0.7-2.1,2.1"/>
<path class="st7" d="M361.8,264.5c-2,1.4-9.6,8.6-11.6,10"/>
<path class="st7" d="M360.8,267.5c-1.7,1.1-9,8.2-10.7,9.3"/>
<path class="st7" d="M359.9,270.8c-2,1.3-9.6,8.6-11.5,9.9"/>
<path class="st7" d="M358.9,273.8c-1.9,1.3-9.5,8.5-11.4,9.8"/>
<path class="st7" d="M357.8,276.8c-1.6,1.1-10.1,9.2-11.7,10.3"/>
<path class="st7" d="M351.9,283.6c-1.8,1.2-4.1,4.5-5.9,5.6"/>
<path class="st7" d="M353.1,286.2c-1.4,2.2-2.5,4.5-3.7,6.7"/>
<path class="st7" d="M352,284.9c-1.7,2.6-3.3,5.3-4.7,8.1"/>
<path class="st7" d="M355.9,287.3c-1.2,1.8-2.1,3.8-3.1,5.7"/>
<path class="st7" d="M356.8,289.7c1.9-2.6,1-1.9-2,3.4"/>
<path class="st7" d="M360.2,288.7c1.6-2.7,0.7-1.3-2.3,4.3"/>
<path class="st7" d="M362.7,288.9l-3,4.1"/>
<path class="st7" d="M366,288.9l-2.9,4"/>
<path class="st7" d="M370,289c1.9-2.6,1.3-1.8-2.1,2.9"/>
<path class="st7" d="M371.4,289.4c2.3-3.1,1.8-2.4-1.5,2.1"/>
<path class="st7" d="M373.4,289.8l-0.7,0.9"/>
<line class="st7" x1="371.7" y1="293.9" x2="368.4" y2="296.5"/>
<line class="st7" x1="371.4" y1="296.1" x2="368.2" y2="298.8"/>
<path class="st7" d="M371.5,298.1l-3.3,2.7"/>
<path class="st7" d="M371.3,300.5l-4.4,3.6"/>
<path class="st7" d="M371.4,302.2l-4.4,3.6"/>
<path class="st7" d="M371.3,304.5l-3.9,3.2"/>
<path class="st7" d="M371.2,306.6l-4.1,3.4"/>
<path class="st7" d="M371.2,308.7l-4.2,3.5"/>
<path class="st7" d="M371.3,311.3l-4.6,3.8"/>
<path class="st7" d="M371.4,313.7l-4.9,4"/>
<path class="st7" d="M371.2,316.5l-4.7,3.9"/>
<path class="st7" d="M371.4,318.7l-4.8,3.9"/>
<path class="st7" d="M371.5,321.1l-5.5,4.5"/>
<path class="st7" d="M371.7,323.4l-5.5,4.6"/>
<path class="st7" d="M371.8,325.9l-4.9,4.1"/>
<path class="st7" d="M371.6,328.5l-5.4,4.4"/>
<path class="st7" d="M371.4,331.1l-5.1,4.2"/>
<path class="st7" d="M371,333.7l-5,4.1"/>
<path class="st7" d="M370.9,336.3l-5.4,4.4"/>
<path class="st7" d="M370.7,338.9l-5.1,4.2"/>
<path class="st7" d="M370.3,341.3l-4.9,4"/>
<path class="st7" d="M370.5,343.7l-5.6,4.6"/>
<path class="st7" d="M370.4,346.2l-5.4,4.4"/>
<line class="st7" x1="369.7" y1="348.9" x2="364.1" y2="353.5"/>
<path class="st7" d="M369.8,351.3l-6.3,5.2"/>
<path class="st7" d="M369.4,354.1l-5.8,4.8"/>
<line class="st7" x1="368.4" y1="357.4" x2="362.8" y2="362"/>
<path class="st7" d="M368.4,359.9l-6.2,5.1"/>
<path class="st7" d="M367.9,362.8l-5.6,4.6"/>
<line class="st7" x1="341.9" y1="406.2" x2="319.5" y2="414.3"/>
<line class="st7" x1="343.1" y1="408.5" x2="318.3" y2="417.3"/>
<path class="st7" d="M345.2,410.4c-3.6,1.1-27,9.7-30.6,10.8"/>
<path class="st7" d="M335,418.3l-23.6,7"/>
<path class="st7" d="M333.5,421.6l-25,7.4"/>
<path class="st7" d="M330.2,426c-4.5,1.3-18.9,4.7-23.4,6"/>
<path class="st7" d="M327.4,429.6c-4.6,1.4-17.5,4.3-22,5.6"/>
<path class="st7" d="M327.8,432.8c-7.8,1.4-15.8,3.8-23.6,5.2"/>
<path class="st7" d="M326.9,435.9c-5.2,1.5-18.7,4.6-23.8,6.1"/>
<path class="st7" d="M323.2,440.4c-6,1.8-13.5,3.5-19.5,5.3"/>
<path class="st7" d="M319.4,444.5l-16.1,4.8"/>
<path class="st7" d="M319.7,447.5l-17.5,5.2"/>
<path class="st7" d="M319.6,451l-16.5,4.9"/>
<path class="st7" d="M320.3,454.3l-16.1,4.8"/>
<path class="st7" d="M319.9,457.5l-14.9,4.4"/>
<path class="st7" d="M319.2,460.6l-14.4,4.2"/>
<path class="st7" d="M319,463.4l-12.6,3.7"/>
<path class="st7" d="M319.1,466.6l-12.1,3.6"/>
<path class="st7" d="M319.2,469.4l-9.8,2.9"/>
<path class="st7" d="M319.9,472.4c-2.8,0.8-8.8,2.3-11.5,3.1"/>
<path class="st7" d="M321.1,475.2l-8.9,2.6"/>
<path class="st7" d="M322.6,476.8c-9.3,3-18.1,7.6-27.8,10.5"/>
<path class="st7" d="M324.9,478.1c-8.4,3-16.5,7.6-25.2,10.4"/>
<path class="st7" d="M326.6,479.2c-5.6,2.7-16.6,8.1-22.6,10.7"/>
<path class="st7" d="M327.6,481c-4.7,2.5-12.3,6.8-17.2,8.9"/>
<path class="st7" d="M328.2,483.2c-4.3,2.7-10.4,6.8-14.9,9.2"/>
<path class="st7" d="M328.8,485.1c-3.9,2.5-8.7,5.8-12.8,7.9"/>
<path class="st7" d="M330.3,486.4c-3.3,2.1-7.7,5.3-11.2,7.1"/>
<path class="st7" d="M331.8,487.2c-2.5,1.6-6.5,4.4-9.1,5.8"/>
<path class="st7" d="M352.4,354.9c-3,1.4-5.5,3.9-8.1,5.6"/>
<path class="st7" d="M353.6,357.3c-3.5,2.2-6.4,4.6-9.9,6.7"/>
<path class="st7" d="M354.6,360c-2.8,1.9-9.9,6.8-12.7,8.6"/>
<path class="st7" d="M355.5,364.2c-4.8,3.5-10.2,6.1-15.2,9.2"/>
<path class="st7" d="M384.5,356.9c-1.5,3.7-5.7,8.5-7.6,12"/>
<path class="st7" d="M383.6,356.3c-1.3,3-2.7,6-4.3,8.8"/>
<path class="st7" d="M382.9,355.8c-1.1,2.6-2.3,5.1-3.7,7.6"/>
<path class="st7" d="M382.4,355.6c-0.9,2.3-2,4.5-3.1,6.6"/>
<path class="st7" d="M385.6,357.1c-1.5,3.7-5.8,8.6-7.7,12.1"/>
<path class="st7" d="M386.4,357.6c-1.5,3.7-5.7,8.5-7.6,12"/>
<path class="st7" d="M387,358.1c-1.5,3.6-5.6,8.4-7.5,11.8"/>
<path class="st7" d="M355.5,367.7c-5.2,3.2-10.6,6.1-15.8,9.4"/>
<path class="st7" d="M354.5,372.2c-5.1,2.8-10.4,5.5-15.5,8.4"/>
<path class="st7" d="M352.6,376.8c-4.6,2.6-9.2,5-13.8,7.6"/>
<path class="st7" d="M350.9,381.2c-3.9,2.1-7.8,4.2-11.7,6.2"/>
<path class="st7" d="M349.1,386.2c-3,1.7-6.1,3.3-9.1,5"/>
<path class="st7" d="M347,391.7c-2.1,1.2-4.2,2.4-6.3,3.6"/>
<path class="st7" d="M348.2,394.8l-7.8,4.7"/>
<path class="st7" d="M361,352.7c-0.7,2.9-1.6,5.7-2.8,8.5"/>
<path class="st7" d="M359.9,352.4c-0.7,2.7-1.5,5.2-2.6,7.7"/>
<path class="st7" d="M359.1,352c-0.6,2.3-1.3,4.5-2.3,6.6"/>
<path class="st7" d="M358.6,351.9c-0.5,2.1-1.3,4.2-2.2,6.1"/>
<path class="st7" d="M357.5,352.5c-0.4,1.4-1,2.7-1.6,4"/>
<path class="st7" d="M356.6,352.4c-0.3,1.1-0.8,2.2-1.4,3.2"/>
<path class="st7" d="M356.1,352.2c-0.3,1.1-0.8,2.1-1.4,3"/>
<path class="st7" d="M362.1,352.7c-0.9,3.4-2,6.8-3.4,10"/>
<path class="st7" d="M363,353.1c-0.9,3.5-2.1,7-3.5,10.4"/>
<path class="st7" d="M363.6,353.4c-0.7,3.8-2.4,7.3-3.7,10.9"/>
<path class="st7" d="M367.6,401.9c-0.8,1.4-1.5,2.7-2.3,4.1"/>
<path class="st7" d="M366.3,402c-0.8,1.3-1.5,2.6-2.2,3.9"/>
<path class="st7" d="M365.3,402c-0.8,1.2-1.5,2.5-2.1,3.8"/>
<path class="st7" d="M364.6,402.1c-0.7,1.2-1.4,2.4-2.1,3.6"/>
<path class="st7" d="M368.9,401.9c-0.8,1.4-1.6,2.8-2.3,4.2"/>
<path class="st7" d="M370.1,401.8c-0.8,1.5-1.6,3-2.5,4.5"/>
<path class="st7" d="M370.7,402.1c-0.8,1.4-1.5,2.8-2.2,4.1"/>
<path class="st7" d="M360.5,401.4c-0.8,1.2-1.4,2.5-2.1,3.7"/>
<path class="st7" d="M359.4,401c-0.9,1.4-1.6,2.8-2.4,4.1"/>
<path class="st7" d="M358.7,400.6c-0.9,1.4-1.6,2.9-2.5,4.3"/>
<path class="st7" d="M358.2,400.3c-0.5,0.8-1,1.5-1.5,2.3"/>
<path class="st7" d="M361.6,401.7c-0.8,1.2-1.5,2.5-2.2,3.8"/>
<path class="st7" d="M362.6,402c-0.7,1.1-1.3,2.3-2,3.5"/>
<path class="st7" d="M363.4,401.9c-0.7,1.2-1.4,2.5-2.1,3.7"/>
<path class="st7" d="M354.7,398.9c-1.2,1.9-2.2,3.8-3.3,5.8"/>
<path class="st7" d="M353.7,398.4c-1,1.5-2,2.9-3,4.3"/>
<path class="st7" d="M353,398c-0.8,1.2-1.6,2.4-2.5,3.6"/>
<path class="st7" d="M352.5,397.7c-0.6,0.9-1.2,1.8-1.8,2.6"/>
<path class="st7" d="M355.7,399.4c-1.1,1.7-2.1,3.6-3.1,5.4"/>
<path class="st7" d="M356.6,399.7c-1,1.7-2,3.4-3,5.1"/>
<path class="st7" d="M350.1,396.3c-1.1,1.8-2.4,3.5-3.6,5.2"/>
<path class="st7" d="M349.1,395.8c-1.1,1.7-2.2,3.3-3.4,4.9"/>
<path class="st7" d="M351.1,396.8c-1.1,1.7-2.3,3.4-3.5,5"/>
<path class="st7" d="M351.9,397.3c-1.1,1.6-2.2,3.2-3.3,4.8"/>
<path class="st7" d="M357.2,400c-1,1.6-1.8,3.2-2.7,4.8"/>
<path class="st7" d="M385.8,258.3c-0.9,1.5-1.7,3-2.5,4.5"/>
<path class="st7" d="M384.8,257c-0.9,1.2-1.6,2.5-2.3,3.8"/>
<path class="st7" d="M388.7,259.4c-1,1.6-1.9,3.4-2.8,5.1"/>
<path class="st7" d="M389.5,261.9c-0.2,0.3-0.4,0.6-0.6,0.9"/>
<path class="st7" d="M392.9,258.3c-0.8,1.3-1.5,2.8-2.2,4.1"/>
<path class="st7" d="M395.4,258.5l-2.4,3.3"/>
<path class="st7" d="M398.3,256.7l-2.9,4"/>
<path class="st7" d="M401.3,256.6l-2.1,2.9"/>
<path class="st7" d="M403.8,255.6l-2.5,3.4"/>
<path class="st7" d="M407.1,256.2l-0.9,1.1"/>
<path class="st7" d="M406.1,253.7c-0.9,1.4-1.6,2.9-2.3,4.3"/>
<path class="st7" d="M408.7,253.9l-2.6,3.5"/>
<path class="st7" d="M411.5,252.1l-2.9,4"/>
<path class="st7" d="M414.5,252l-1.4,1.9"/>
<path class="st7" d="M417,251l-1.4,1.9"/>
<line class="st7" x1="338" y1="405.2" x2="315.7" y2="413.2"/>
<path class="st5" d="M365.5,797.3l4.5,4.5c1,1,1.9,1.9,2.7,2.9h0.1c-0.4-1.2-0.7-2.5-1-3.8l-1.4-6.3l1.6-0.9l4.7,4.3
	c1.1,1,2.1,2,2.9,2.9h0.1c-0.5-1.3-0.9-2.5-1.2-3.8l-1.6-6.1l1.9-1.1l2.7,12.3l-1.7,1l-4.5-4.1c-1-0.9-2-1.9-2.9-2.9h0
	c0.4,1.3,0.8,2.6,1.1,4l1.2,6l-1.7,1l-9.2-8.6L365.5,797.3z"/>
<path class="st5" d="M382.1,787.6l4.5,4.5c1,1,1.9,1.9,2.7,2.9h0.1c-0.4-1.2-0.7-2.5-1-3.8l-1.4-6.4l1.6-0.9l4.7,4.3
	c1.1,1,2.1,2,2.9,2.9h0.1c-0.5-1.3-0.9-2.5-1.2-3.8l-1.6-6.2l1.9-1.1l2.7,12.4l-1.7,1l-4.5-4.1c-1-0.9-2-1.9-2.9-2.9l0,0
	c0.4,1.3,0.8,2.6,1.1,4l1.2,6l-1.7,1l-9.2-8.6L382.1,787.6z"/>
<path class="st5" d="M398.7,778l4.5,4.5c1,1,1.9,1.9,2.7,2.9h0.1c-0.4-1.2-0.7-2.5-1-3.8l-1.4-6.3l1.6-0.9l4.7,4.3
	c1.1,1,2.1,2,2.9,2.9h0.1c-0.5-1.3-0.9-2.5-1.2-3.8l-1.6-6.1l1.9-1.1l2.7,12.4l-1.7,1l-4.5-4.1c-1-0.9-2-1.9-2.9-2.9l0,0
	c0.4,1.3,0.8,2.6,1.1,4l1.2,6l-1.7,1l-9.2-8.6L398.7,778z"/>
<path class="st5" d="M418.4,779c-0.4-0.7-0.1-1.6,0.6-2c0.7-0.4,1.6-0.1,2,0.6c0.4,0.7,0.1,1.6-0.6,2c-0.7,0.4-1.6,0.2-2-0.5
	C418.5,779.1,418.4,779,418.4,779z"/>
<path class="st5" d="M418.9,762.2l1.8,3l2.7-1.6l0.8,1.5l-2.7,1.6l3.3,5.6c0.8,1.3,1.6,1.8,2.6,1.2c0.4-0.2,0.7-0.5,1-0.8l0.9,1.4
	c-0.4,0.5-1,0.9-1.5,1.2c-0.7,0.5-1.7,0.6-2.5,0.4c-1-0.4-1.9-1.3-2.3-2.3l-3.3-5.7l-1.6,0.9l-0.9-1.5l1.6-0.9l-1.5-2.5L418.9,762.2
	z"/>
<path class="st5" d="M426.3,758c0.4,0.6,0.2,1.5-0.5,1.9c-0.6,0.4-1.5,0.2-1.9-0.5c-0.4-0.6-0.2-1.5,0.4-1.8c0,0,0,0,0.1,0
	c0.6-0.4,1.4-0.2,1.8,0.4C426.3,757.9,426.3,758,426.3,758z M432,772.6l-6.1-10.5l1.9-1.1l6.1,10.5L432,772.6z"/>
<path class="st5" d="M437.6,748.8l7.4,12.6c0.5,0.9,1.2,2,1.7,2.7l-1.7,1l-1.1-1.8l0,0c0.1,1.7-0.8,3.3-2.4,4.1
	c-2.5,1.5-5.7,0.5-7.6-2.7c-2-3.5-1.1-6.9,1.4-8.3c1.2-0.8,2.8-0.9,4.1-0.2l0,0l-3.6-6.2L437.6,748.8z M441,759
	c-0.2-0.3-0.3-0.5-0.6-0.8c-1-1.1-2.7-1.4-4-0.6c-2,1.2-2.1,3.5-0.8,5.9c1.2,2.1,3.3,3.3,5.3,2.1c1.3-0.8,2-2.4,1.5-3.9
	c-0.1-0.3-0.2-0.6-0.4-0.9L441,759z"/>
<path class="st5" d="M444.7,751.2l5.9,4.8c0.6,0.5,1.4,1.2,1.9,1.8l0,0c-0.2-0.7-0.4-1.7-0.6-2.6l-1.5-7.3l2-1.2l1.5,9.1
	c0.7,4.4,0.9,6.8,0.2,8.6c-0.3,1-0.9,1.9-1.6,2.6l-1.4-1.3c0.5-0.6,0.9-1.2,1.1-1.9c0.3-1,0.5-2,0.4-3c0-0.2,0-0.4-0.1-0.5
	c-0.1-0.2-0.3-0.3-0.4-0.4l-9.5-7.4L444.7,751.2z"/>
<path class="st5" d="M455.6,744.8l5.5,4.7c0.8,0.7,1.6,1.4,2.4,2.2h0.1c-0.3-1-0.5-2-0.7-3.2l-1.4-7.1l2-1.2l2,12.8l-1.8,1
	l-10.1-8.1L455.6,744.8z"/>
<path class="st5" d="M469.8,744c0.9,1.9,3.2,2.8,5.2,1.8c0.2-0.1,0.4-0.2,0.5-0.3c1-0.5,1.9-1.3,2.6-2.2l1.1,1.2
	c-0.8,1.1-1.9,2-3.1,2.7c-3.2,1.9-6.4,0.9-8.2-2.3s-1.4-6.7,1.6-8.5c3.4-2,6.1,0.5,7.2,2.4c0.2,0.3,0.3,0.6,0.5,0.9L469.8,744z
	 M474.6,739.4c-0.7-1.2-2.3-2.8-4.4-1.5c-1.9,1.1-1.7,3.4-1.1,4.8L474.6,739.4z"/>
<path class="st5" d="M478.7,735.8c-0.7-1.2-1.4-2.3-2-3.2l1.7-1l1.3,2l0.1,0c-0.4-1.5,0.2-3.2,1.6-4c0.2-0.1,0.4-0.2,0.6-0.2l1,1.8
	c-0.2,0.1-0.5,0.2-0.7,0.3c-1.3,0.8-1.8,2.5-1.1,3.9c0.1,0.3,0.3,0.6,0.4,0.9l3.2,5.6l-1.8,1.2L478.7,735.8z"/>
<path class="st5" d="M489,736.8c1,0,2.1-0.2,3-0.7c1.4-0.8,1.6-1.9,1.1-2.7s-1.4-1.1-3.1-0.8c-2.3,0.4-3.8-0.1-4.5-1.3
	c-1-1.7-0.4-3.9,1.8-5.2c0.9-0.5,1.9-0.8,3-0.8l0.3,1.7c-0.9,0-1.7,0.2-2.5,0.6c-0.9,0.3-1.3,1.4-1,2.3c0,0.1,0,0.1,0.1,0.2
	c0.5,0.9,1.4,0.9,3,0.6c2.2-0.4,3.7,0,4.6,1.5c1.1,1.8,0.4,4-2.1,5.4c-1,0.6-2.2,1-3.4,1L489,736.8z"/>
<path class="st5" d="M497.5,727.9c0.9,1.9,3.2,2.8,5.2,1.8c0.2-0.1,0.4-0.2,0.5-0.3c1-0.5,1.9-1.3,2.6-2.2l1.1,1.2
	c-0.8,1.1-1.9,2-3.1,2.7c-3.2,1.9-6.4,0.9-8.2-2.3s-1.4-6.7,1.6-8.5c3.4-2,6.1,0.5,7.2,2.4c0.2,0.3,0.3,0.6,0.5,0.9L497.5,727.9z
	 M502.3,723.3c-0.7-1.2-2.3-2.8-4.4-1.5c-1.9,1.1-1.7,3.4-1.1,4.8L502.3,723.3z"/>
<path class="st5" d="M509.2,726.1c-0.4-0.7-0.1-1.6,0.6-2c0.7-0.4,1.6-0.1,2,0.6c0.4,0.7,0.1,1.6-0.6,2c-0.7,0.4-1.6,0.2-2-0.5
	C509.3,726.2,509.2,726.1,509.2,726.1z"/>
<path class="st5" d="M521.6,713.3c2.3,3.9,0.6,7.1-2,8.6c-2.8,1.6-6.2,0.8-8.1-2.5c-2-3.5-0.9-6.9,2-8.6S519.7,710.1,521.6,713.3z
	 M513.4,718.2c1.3,2.3,3.7,3.2,5.5,2.2s2.2-3.5,0.8-5.9c-1-1.8-3.2-3.5-5.5-2.2S512.2,716.2,513.4,718.2z"/>
<path class="st5" d="M523.3,709.8c-0.7-1.2-1.3-2.3-2-3.2l1.7-1l1.3,2l0.1,0c-0.4-1.5,0.2-3.2,1.6-4c0.2-0.1,0.4-0.2,0.6-0.2l1,1.8
	c-0.2,0.1-0.5,0.2-0.7,0.3c-1.3,0.8-1.8,2.5-1.1,3.9c0.1,0.3,0.3,0.6,0.4,0.9l3.2,5.6l-1.9,1.1L523.3,709.8z"/>
<path class="st5" d="M537.8,697c0.4,0.8,0.8,1.6,1.6,2.9l3.5,6.1c1.4,2.4,1.8,4.1,1.3,5.6c-0.6,1.5-1.7,2.7-3.1,3.5
	c-1.2,0.7-2.6,1.1-4,1.2l-0.4-1.7c1.3,0,2.5-0.3,3.5-1c1.9-1.1,2.8-3,1.2-5.6l-0.7-1.2l0,0c-0.1,1.6-0.9,3-2.3,3.7
	c-2.6,1.5-5.7,0.4-7.4-2.5c-2.1-3.5-0.9-6.9,1.5-8.3c1.3-0.9,3-0.9,4.3-0.1l0,0l-0.8-1.6L537.8,697z M538.2,702.3
	c-0.2-0.3-0.4-0.6-0.6-0.8c-1-1-2.6-1.2-3.8-0.5c-1.8,1.1-2.2,3.3-0.8,5.8c1.2,2,3.2,3.2,5.3,2c1.2-0.7,1.8-2.1,1.5-3.5
	c-0.1-0.4-0.2-0.8-0.4-1.1L538.2,702.3z"/>
</svg>
