<?xml version="1.0" encoding="utf-8"?>
<!-- Generator: Adobe Illustrator 26.4.1, SVG Export Plug-In . SVG Version: 6.00 Build 0)  -->
<svg version="1.1" id="Layer_1" xmlns="http://www.w3.org/2000/svg" xmlns:xlink="http://www.w3.org/1999/xlink" x="0px" y="0px"
	 viewBox="0 0 2521 2911" style="enable-background:new 0 0 2521 2911;" xml:space="preserve">
<style type="text/css">
	.st0{fill:#ED7D15;}
	.st1{opacity:0.25;fill:url(#SVGID_1_);enable-background:new    ;}
	.st2{fill:#AC5D12;}
	.st3{fill:#E6B35A;}
	.st4{fill:#E5B259;}
	.st5{fill:#FFFFFF;}
	.st6{stroke:#000000;stroke-width:34.3101;stroke-miterlimit:10;}
	.st7{fill:none;stroke:#000000;stroke-width:2.5733;stroke-miterlimit:10;}
</style>
<g>
	<path class="st0" d="M62.1,2149.3V765.5l177-102.2L1260.5,73.8l0,0l1017.9,587.8l180.5,104v1383.8L1260.5,2841L62.1,2149.3z"/>
	
		<linearGradient id="SVGID_1_" gradientUnits="userSpaceOnUse" x1="1255.8353" y1="1047.3713" x2="1260.2958" y2="-543.042" gradientTransform="matrix(1 0 0 -1 0 624)">
		<stop  offset="0" style="stop-color:#FFFFFF;stop-opacity:0.83"/>
		<stop  offset="0.56" style="stop-color:#FFFFFF;stop-opacity:0.37"/>
		<stop  offset="1" style="stop-color:#FFFFFF;stop-opacity:0"/>
	</linearGradient>
	<path class="st1" d="M1258.4,1164.5c439.8,0,818.6-195.6,987.4-476.2l-985.3-568.9l0,0L272.1,690.4
		C441.6,970,819.3,1164.5,1258.4,1164.5z"/>
	<path class="st2" d="M2521,2183.6V727.7l-100.5-58l-953.1-550.4L1260.5,0l-206.9,119.4L100.5,669.8L0,727.7v1455.5l100.5,58
		l965.1,557.2l195.2,112.5l195.2-112.5l965.1-557.2L2521,2183.6z M100.5,2129V789.2L272.1,690l988.4-570.6l0,0l985.3,568.9
		l174.6,100.9V2129l-1160,669.8L100.5,2129z"/>
	<path class="st3" d="M1258.8,2171.6c1-1,2.1-2.1,3.1-3.1h-1C1260.5,2169.5,1259.8,2170.6,1258.8,2171.6z"/>
	<path class="st4" d="M1258.8,2171.6c1-1,2.1-2.1,3.1-3.1h-1C1260.5,2169.5,1259.8,2170.6,1258.8,2171.6z"/>
	<path class="st5" d="M559.9,2123.5c1-18.2,2.1-44.9,2.1-68.6v-321.2h47.7v166.8h1c17.2-29.5,47.7-48.7,90.6-48.7
		c65.9,0,112.5,54.9,112.2,135.5c0,95-59.7,142.4-119.1,142.4c-38.4,0-69.3-14.8-88.9-50.1h-1.7l-2.1,43.9H559.9z M610,2017.2
		c0,5.8,1,11.7,2.1,17.5c9.3,33.6,37.4,56.6,72.4,56.6c50.4,0,80.6-41.2,80.6-102.2c0-53.2-27.4-98.8-79.3-98.8
		c-32.9,0-63.8,22.6-73.4,59.4c-1.7,6.5-2.4,13-2.7,19.9L610,2017.2z"/>
	<path class="st5" d="M857,1940.7c0-31.2-0.7-58.3-2.1-83h42.2l1.7,52.2h2.1c12-35.7,41.2-58.3,73.4-58.3c4.5,0,9.3,0.3,13.7,1.7
		v45.6c-5.5-1-11-1.7-16.5-1.7c-34,0-58.3,25.7-64.8,62.1c-1.4,7.5-2.1,15.1-2.1,22.6v141.7H857V1940.7z"/>
	<path class="st5" d="M1254,1988.4c0,98.1-67.9,141-132.4,141c-72,0-127.3-52.8-127.3-136.6c0-88.9,58.3-141,131.7-141
		C1202.2,1851.8,1254,1907,1254,1988.4z M1043,1991.1c0,58.3,33.6,102.2,80.6,102.2c46,0,80.6-43.2,80.6-103.3
		c0-44.9-22.6-102.2-79.6-102.2S1043,1940.7,1043,1991.1z"/>
	<path class="st5" d="M1537.7,1988.4c0,98.1-67.9,141-132.4,141c-72,0-127.3-52.8-127.3-136.6c0-88.9,58.3-141,131.7-141
		C1485.9,1851.8,1537.7,1907,1537.7,1988.4z M1327.1,1991.1c0,58.3,33.6,102.2,80.6,102.2c46,0,80.6-43.2,80.6-103.3
		c0-44.9-22.6-102.2-79.6-102.2S1327.1,1940.7,1327.1,1991.1z"/>
	<path class="st5" d="M1580.9,1929.7c0-27.4-0.7-50.1-2.1-72.1h42.2l2.1,42.9h1.7c14.8-25.4,39.5-48.7,83.4-48.7
		c36.4,0,63.8,22,75.1,53.2h1c7.2-13.4,17.5-25.4,29.5-34.7c15.8-12,33.6-18.5,58.7-18.5c35,0,87.1,23,87.1,115.3v156.5h-47.3
		v-150.6c0-51.1-18.5-81.7-57.6-81.7c-27.4,0-48.7,20.2-57,43.9c-2.4,7.9-3.8,15.8-3.8,24v164h-47.3V1964
		c0-42.2-18.5-73.1-55.6-73.1c-30.2,0-52.1,24-59.7,48.4c-2.7,7.5-4.1,15.4-3.8,23.7v160.2h-47.3v-193.5L1580.9,1929.7
		L1580.9,1929.7z"/>
	<path class="st6" d="M1258.4,996.8c-13,0.7-25.7,1.7-38.4,1.4c-9.3-0.3-18.9-1.7-27.8-4.5c-9.6-3.1-12.4-10-8.9-19.2
		c3.8-10.6,8.9-21.3,13.7-31.6c2.1-4.8,5.5-8.9,7.9-13.7c7.2-15.1,17.5-28.1,30.2-39.1c11.7-9.6,16.1-21.3,13.7-36.7
		c-5.5-34-8.2-68.6-13.7-102.6c-3.4-21.3-10.3-42.5-14.8-63.8c-5.5-24-10.3-48-9.3-72.4c0.3-6.5,1.7-13,4.1-19.6
		c5.1-12.7,18.2-17.2,29.2-9.3c7.2,5.1,13.4,11.7,17.8,19.2c19.2,31.2,32.2,65.9,37.4,102.2c5.5,36.4,10.3,73.1,15.4,109.8
		c1,8.6,2.1,17.2,3.1,26.4c13-3.4,25.7-6.5,38.1-9.6c12.4-3.1,24.7-6.9,37.4-10.6c1.4-0.3,2.7-0.7,4.1-1.4
		c16.1-9.6,32.6-18.5,48-28.8c16.8-11,32.6-23.3,48.7-34.7c6.9-4.8,14.4-9.3,20.9-14.1c2.4-2.1,4.1-4.8,5.5-7.5
		c2.4-5.5,5.5-10.6,8.6-15.8c5.8-7.2,8.9-16.5,8.9-25.7c0-5.1-1.4-11.3,5.5-14.1c6.5-2.1,13.7,0,18.2,5.5c2.4,2.7,4.1,5.5,5.8,8.6
		c1.7,3.4,3.1,7.2,4.5,11c7.5-12.7,14.8-23.7,21.3-35.3c2.7-4.5,4.8-9.3,10.6-9.3c3.1,0,7.2,1.7,8.2,3.8c2.1,4.5,2.7,9.6,2.7,14.4
		c-0.7,10-2.7,19.9-4.5,31.6c6.9-3.8,12.4-7.2,17.8-10.3c4.8-2.7,8.9-6.9,13.7-8.6c4.1-1,8.2-0.7,11.7,1.4c2.1,1.4,3.1,7.2,2.1,10.3
		c-3.8,14.8-13.7,27.1-27.1,34c-1.7,0.7-3.1,2.1-4.1,3.8c2.7,0.7,5.5,1.4,8.2,1.7c5.5,1,11.3,1.7,16.8,2.7
		c6.2,1.4,8.9,5.8,10.3,11.7c1.4,4.8-1,9.6-5.8,11.7c-4.8,2.4-10.3,4.5-15.4,5.5c-3.8,0.3-7.2,0.3-10.6-0.7
		c-8.9-1.7-18.2,0-25.7,5.1c-14.4,10.6-33.3,13.4-50.1,7.9c-5.1-1.7-10.6-0.7-14.8,2.4c-37.1,24.4-74.1,49.1-111.8,72.4
		c-13.7,8.6-29.8,13-44.9,19.6c-12.4,5.1-24.7,10.3-37.1,15.1c-6.5,2.1-13.4,3.8-19.9,4.8c0.7,12.7,1.4,25.7,2.1,39.8
		c9.9-0.3,19.6-0.7,29.2-1.4c8.2-0.3,16.1-0.7,24-1.7c2.1-0.3,4.1-1.4,5.5-2.7c6.2-10.3,16.8-16.8,28.8-18.5
		c17.8-2.4,32.6-11.7,47-21.3c8.2-5.1,13.4-5.5,18.9-1c5.5,4.5,5.8,12,3.1,19.6c-2.1,5.8-6.2,10.6-11.3,13.4
		c-2.1,1.4-3.8,2.7-5.1,4.8c-3.8,5.1-2.7,8.2,3.1,10c14.8,4.5,27.8,14.1,36,27.1c5.5,8.6,5.1,16.8-1,22c-2.7,2.1-5.8,2.7-9.3,2.1
		c-5.8-2.4-11.3-5.1-16.5-8.6c-3.1-1.7-6.2-3.1-11-5.5c1.4,7.9,2.4,14.1,3.4,19.9c1,7.9,2.1,15.8-3.4,22.6c-5.1,6.5-12,7.9-17.5,1.7
		c-4.1-5.1-7.9-11-10.6-17.2c-3.4-6.2-6.5-12.4-14.8-15.4c-0.3,4.8-1,8.6-1,12.7c0,7.2-2.1,14.1-6.2,19.9c-3.1,4.8-8.9,6.9-14.4,5.5
		c-5.5-1.7-6.5-5.8-6.5-11c0.3-2.7,0.3-5.5-0.3-8.6c-1-4.1-2.7-8.2-5.5-11.3c-5.8-4.1-9.6-10.6-10.6-17.5c-0.3-3.4-1.7-5.1-5.5-4.1
		c-15.1,3.8-30.5,7.5-46.3,11.7c0,1.7,0,3.8-0.3,5.5c-1.7,30.2-2.7,60-5.1,90.2c-1.7,22-5.8,43.6-8.6,65.5
		c-2.4,18.5-4.5,37.1-6.9,55.2c-1,2.7,0.3,5.5,3.1,6.5c0.3,0.3,1,0.3,1.7,0.3c3.1,0.7,6.2,2.1,9.3,2.7c2.1,0.3,4.5,0,6.5-0.7
		c3.4-1,6.2-1.4,7.2,2.7c7.2,22,16.5,43.2,16.1,67.3c-0.7,33.3-13.7,59.7-40.1,79.6c-8.9,6.9-18.9,12.4-28.5,18.2
		c-9.6,5.8-9.6,14.1-0.3,20.6c28.5,19.6,49.1,46,66.2,75.5c15.4,26.4,24.7,55.2,31.9,84.7c3.8,15.1,13,24,26.4,29.9
		c14.4,6.5,30.2,10.3,46.3,10.3c20.9,0,41.9,0.7,63.1,1c6.5,0,7.9,1.7,6.9,8.2c-1,8.9-6.2,17.2-14.1,21.6
		c-10.6,5.8-22,11.3-33.3,16.1c-6.9,3.1-14.4,5.1-23.3,7.9c5.1,2.4,8.9,4.1,12.7,6.2c1.4,1,2.4,2.7,2.7,4.8c0,1-2.1,3.1-3.4,3.4
		c-22.3,3.4-43.9,10.3-66.9,10c-25.4-0.7-49.4-4.1-70.7-17.8c-2.1-1-4.1-1.4-6.5-1.4c-15.8,0.7-31.6,0.7-47.3,2.4
		c-5.8,0.7-11.3,4.5-17.2,6.9c-1.4,1-3.1,1.4-4.8,1.7c-19.2-0.7-37.1,6.2-54.9,11.3c-10.3,3.1-21.3,4.8-31.9,6.9
		c-4.8,1.4-9.9-1.4-11.7-6.5c-1.4-2.7-3.1-5.8-5.1-8.2c-1.4,0.3-2.4,0.7-3.8,1c-17.2,7.9-35.7,7.9-53.9,10c-7.5,1-15.4,1.7-23,2.4
		c-7.5,0.7-8.2-1-5.8-8.6c-22.3,3.4-40.5-7.2-59-17.2c-2.1-1-3.1-4.1-4.8-6.2c2.1-1.7,4.1-2.7,6.9-3.8c21.3-3.8,42.5-8.6,60.7-20.9
		c0.7-0.7,1.7-1.4,2.1-1.7c0-0.7,0-1,0-1.4c-15.8-21.3-24.4-46-29.5-71.7c-1.7-11-1.7-22.6,0-33.6c3.4-35,18.2-68.3,41.9-94.4
		c10.3-12,22.6-22,36.4-29.5c13.7-7.5,27.1-15.1,40.5-23c2.1-1.4,3.1-4.5,4.5-6.9c0.7-1.4,0.3-3.4,1.4-4.8
		c5.1-8.6,3.8-17.8,2.1-26.8c-5.1-27.8-0.3-54.6,8.2-81c7.2-22.3,17.8-42.9,29.2-63.1c3.1-5.5,5.5-5.5,9.6-0.7
		c1,1.4,2.7,2.4,4.1,3.1c4.5,2.1,8.9,4.1,13.4,6.2c6.2,3.4,13.4,2.1,18.2-3.1c1-1.4,1.7-3.1,1.7-4.8c1.4-13.7,2.4-27.8,3.4-41.5
		c1.7-23.3,4.5-46.7,5.5-70c1.4-27.8,1.4-55.6,1.7-83.7C1259.5,999.8,1259.1,998.1,1258.4,996.8z M1306.5,1245.5l2.1,1
		c3.8-7.9,9.6-15.1,10.6-24l-2.7-1L1306.5,1245.5z"/>
	<path class="st5" d="M1157.2,1382.8c2.4,0,86.8,22.6,122.8,27.4c30.2,23,54.2,53.5,69,88.2c9.3,22.6,17.2,45.6,23.7,69.3
		c3.1,12,11.3,22,22.3,27.4c17.2,9.6,36.4,14.8,56.3,14.8c20.9-0.3,41.5,0,63.1,0c-0.3,7.2-4.5,13.7-10.6,17.2
		c-11.7,6.2-62.4,28.1-64.5,29.9c3.4,3.4,7.5,6.5,11.7,9.3c-23.3,4.8-44.6,9.6-67.2,7.2c-19.6-1.7-60.4-18.9-63.1-18.9
		c-79.9,6.2-161.3,28.5-163,24.4c0-0.3-6.9-12.4-19.2-7.9c-16.5,5.8-58,9.6-62.4,10.3c2.4-5.1,11-6.5,4.5-14.1
		c-23,12.4-44.9,6.5-66.6-6.5c31.2-7.2,48.4-17.8,60-23.3c-32.3-61.8-30.9-97.4-28.5-110.1
		C1065.6,1421.5,1138.7,1390.7,1157.2,1382.8z"/>
	<path class="st5" d="M1226.5,682.1c-6.5-27.1-7.2-73.1-6.2-78.6c2.4-12,12-18.9,22.3-9.6c7.2,6.9,13.7,14.8,18.5,23.7
		c17.8,32.9,29.5,69,33.6,106c4.8,38.1,11,76.2,15.1,114.6c3.8,32.9,7.9,101.6,7.9,103.6l-55.2,3.1c0-9.6,0.3-18.9,0-27.8
		c-0.3-6.5-15.4-134.5-16.8-147.2C1235.5,722.6,1228.6,690.7,1226.5,682.1z"/>
	<path class="st5" d="M1207,1207.1c1,0.3,19.2,49.4,20.2,52.8c1.4,5.5,3.4,6.9,8.6,4.5c3.4-1.7,26.1-22.6,35-31.2
		c2.1,6.2,10.3,30.9,12.7,38.1c2.4,7.2,5.1,7.5,11.3,4.5c17.8-8.6,30.2-25.7,32.9-45.6c0-1,0.7-2.1,0.7-3.4l2.1-0.3
		c3.8,13.4,8.9,26.4,11,40.1c5.1,34.3-3.8,64.5-31.2,86.8c-9.6,7.9-38.1,30.9-54.2,29.5c-11.7-2.7-71.4-16.8-77.5-31.9
		c-6.2-11.7-14.4-49.8,0.3-83.4C1185.4,1246.9,1192.9,1215.7,1207,1207.1z"/>
	<path class="st5" d="M1649.6,716.1c-6.2,10.3-15.4,17.8-26.8,22c-2.7,1-4.5,5.8-5.1,9.3c-0.3,1.7,3.1,5.1,5.1,5.8
		c5.1,1.4,10.3,2.1,15.4,2.4c8.9,1,14.8,4.5,14.4,8.9c-0.3,4.5-7.9,8.6-15.8,8.2c-7.9-0.3-16.1-1.4-24-1.4c-2.7,0.3-5.5,1.4-7.9,3.1
		c-16.1,12.4-37.4,18.9-57.6,8.9c-2.4-0.7-4.8-0.3-6.9,1c-107.4,88.9-202.4,111.5-203.1,111.5c-0.7,0-8.9-42.2-4.5-50.1
		c1-1.7,87.8-11.7,190.1-102.6c7.9-7.2,11.3-13.4,17.2-21.6c5.1-6.5,4.8-13.7,5.1-20.9c-2.7-7.5,2.4-23.3,11.7-3.8
		c2.1,4.5,9.9,20.2,12,20.9c2.1,0.7,24.4-26.1,30.5-38.8c9.3-23,19.6-6.2,1,33.6c-1,2.4,0.3,8.2,3.8,8.6c11,1.7,26.8-9.6,34.7-14.4
		C1660.9,685.9,1653,709.9,1649.6,716.1z"/>
	<path class="st5" d="M1242.7,890c1,4.5,3.4,30.9,3.8,40.8c0,1.7-5.8,9.6-8.9,14.8c-3.1,5.1-1,7.9,4.5,7.5
		c14.4-0.7,127.3-7.2,130.7-7.2c8.9,0,20.2-5.8,28.1-12.7c6.5-4.8,13.7-8.6,21.3-11c9.9-2.1,19.6-4.5,27.8-11
		c4.1-3.1,8.6-6.2,13.4-8.6c3.8-2.1,7.2-6.2,11.7-1.4c3.1,3.4,2.4,12-1.7,15.8c-3.1,2.7-6.5,5.1-9.3,7.5c-6.9,5.8-9.6,12.7-6.2,18.5
		c2.1,3.8,5.8,6.5,9.6,7.5c67.9,41.2,27.1,36,25,35c-4.8-1.7-20.2-11.7-30.9-11c-1.4,1.4-2.1,2.7-2.1,4.8c1.4,9.6,2.7,18.9,4.5,28.5
		c0.3,2.7,5.5,34.7-13.4,6.9c-2.1-3.1-13.4-22.6-18.9-27.4c-3.4-2.1-7.5-2.4-11-1c-2.4,1-3.8,5.5-4.5,8.9c-1,7.2,1,15.1-3.4,21.6
		c-1,2.1-2.4,3.8-4.1,5.1c-2.7,1.4-6.2,2.1-6.2-3.1c0,0,0-0.3,0-0.7c1.4-13.4-1.7-24.7-14.1-32.6c-2.7-1.7-3.4-6.5-4.8-10.3
		c-2.4-7.2-3.4-7.9-11-6.2c-10.6,2.7-21.6,5.8-32.3,7.9c-10.6,2.1-120.4,26.4-144.8,10.6c-4.8-3.4-6.9-8.2-4.8-13
		c4.1-10.3,8.9-20.6,14.1-30.5c3.4-6.9,8.6-12.7,12.4-19.2c3.4-5.1,13.4-22,14.8-23.3C1236.1,897.9,1239.2,892.4,1242.7,890z"/>
	<path class="st5" d="M1318.5,1001.6c0,14.1,0.3,14.1,0,27.8c-1.7,48-10.3,95-16.1,142.7c-3.1,27.4-6.9,72.1-6.9,76.5l-2.4,0.3
		c-4.1-12.4-8.2-24.4-12.4-36.4l-1-2.7c-2.7-7.5-5.5-8.2-11-2.4c-6.2,6.9-12.7,13-19.6,19.2c2.7-9.6,4.8-19.2,6.2-28.8
		c0.3-9.3,10.3-118.4,11-187C1267.7,1007.4,1306.5,1003.3,1318.5,1001.6z"/>
	<path class="st5" d="M1233.1,1234.5c-0.7,0-13-20.6-11-27.4c1.4-2.4,10.3,5.1,12,3.8C1235.1,1211.9,1234.4,1232.5,1233.1,1234.5z"
		/>
	<path class="st5" d="M1306.5,1245.5l10.3-24.4l2.7,1c-1,9.3-6.9,16.1-10.6,24L1306.5,1245.5z"/>
	<path d="M1222.1,1215.3l-0.3,3.8l-0.7-3.4L1222.1,1215.3L1222.1,1215.3z"/>
	<path class="st5" d="M1233.4,1220.8c0,0.3,0,0.7,0,1.4l0.3-0.3C1233.7,1221.2,1233.4,1220.8,1233.4,1220.8z"/>
	<path class="st5" d="M1230,1224.6v-0.3h0.3C1230.3,1224.2,1230.3,1224.6,1230,1224.6z"/>
	<line class="st7" x1="1222.8" y1="610.4" x2="1214.2" y2="621.7"/>
	<line class="st7" x1="1223.8" y1="618" x2="1215.2" y2="629.6"/>
	<path class="st7" d="M1225.5,624.5l-8.9,11.7"/>
	<path class="st7" d="M1226.9,632.7l-11.7,15.8"/>
	<path class="st7" d="M1228.6,638.2l-11.7,15.8"/>
	<path class="st7" d="M1230.3,646.1l-10.3,13.7"/>
	<path class="st7" d="M1231.7,653.3l-11,14.8"/>
	<path class="st7" d="M1233.4,659.8l-11,15.1"/>
	<path class="st7" d="M1235.8,668.7l-12.4,16.5"/>
	<path class="st7" d="M1237.9,676.6l-13,17.5"/>
	<path class="st7" d="M1239.9,686.2l-12.4,16.8"/>
	<path class="st7" d="M1242.3,693.4l-12.7,16.8"/>
	<path class="st7" d="M1244.7,701.3l-14.4,19.2"/>
	<path class="st7" d="M1247.1,708.5l-14.8,19.6"/>
	<path class="st7" d="M1249.5,716.8l-13,17.8"/>
	<path class="st7" d="M1251.2,725.7l-14.4,19.2"/>
	<path class="st7" d="M1252.6,734.6l-13.4,18.2"/>
	<path class="st7" d="M1253.3,743.5l-13,17.8"/>
	<path class="st7" d="M1255,752.5l-14.4,19.2"/>
	<path class="st7" d="M1256.7,761l-13.4,18.2"/>
	<path class="st7" d="M1257.4,769.3l-13,17.5"/>
	<path class="st7" d="M1259.8,777.2l-14.8,19.9"/>
	<path class="st7" d="M1261.5,785.7l-14.1,19.2"/>
	<line class="st7" x1="1261.5" y1="795.3" x2="1246.8" y2="815.2"/>
	<path class="st7" d="M1263.9,803.2l-16.8,22.6"/>
	<path class="st7" d="M1264.6,812.8l-15.4,20.6"/>
	<line class="st7" x1="1264.3" y1="824.5" x2="1249.5" y2="844.8"/>
	<path class="st7" d="M1266.3,833.1l-16.5,22"/>
	<path class="st7" d="M1267,842.7l-14.8,19.9"/>
	<path class="st7" d="M1268,855l-14.4,19.2"/>
	<path class="st7" d="M1268.7,865l-14.8,19.9"/>
	<path class="st7" d="M1268.7,876l-12.4,16.8"/>
	<path class="st7" d="M1269.4,887.6l-14.4,19.6"/>
	<path class="st7" d="M1269.4,898.6l-14.1,18.9"/>
	<path class="st7" d="M1269.4,909.6l-11.7,15.8"/>
	<path class="st7" d="M1270.1,919.9l-13,17.5"/>
	<path class="st7" d="M1270.4,930.9l-12.7,16.8"/>
	<path class="st7" d="M1271.1,940.8c-3.8,4.8-3.8,2.4-7.2,7.2"/>
	<path class="st7" d="M1240.9,904.1c-6.9,4.8-32.9,29.5-39.8,34.3"/>
	<path class="st7" d="M1237.5,914.4c-5.8,3.8-30.9,28.1-36.7,31.9"/>
	<path class="st7" d="M1234.4,925.7c-6.9,4.5-32.9,29.5-39.5,34"/>
	<path class="st7" d="M1231,936c-6.5,4.5-32.6,29.2-39.1,33.6"/>
	<path class="st7" d="M1227.2,946.3c-5.5,3.8-34.7,31.6-40.1,35.3"/>
	<path class="st7" d="M1207,969.6c-6.2,4.1-14.1,15.4-20.2,19.2"/>
	<path class="st7" d="M1211.1,978.6c-4.8,7.5-8.6,15.4-12.7,23"/>
	<path class="st7" d="M1207.3,974.1c-5.8,8.9-11.3,18.2-16.1,27.8"/>
	<path class="st7" d="M1220.7,982.3c-4.1,6.2-7.2,13-10.6,19.6"/>
	<path class="st7" d="M1223.8,990.6c6.5-8.9,3.4-6.5-6.9,11.7"/>
	<path class="st7" d="M1235.5,987.1c5.5-9.3,2.4-4.5-7.9,14.8"/>
	<path class="st7" d="M1244,987.8l-10.3,14.1"/>
	<path class="st7" d="M1255.4,987.8l-9.9,13.7"/>
	<path class="st7" d="M1269.1,988.2c6.5-8.9,4.5-6.2-7.2,10"/>
	<path class="st7" d="M1273.9,989.5c7.9-10.6,6.2-8.2-5.1,7.2"/>
	<path class="st7" d="M1280.7,990.9l-2.4,3.1"/>
	<line class="st7" x1="1274.9" y1="1005" x2="1263.6" y2="1013.9"/>
	<line class="st7" x1="1273.9" y1="1012.5" x2="1262.9" y2="1021.8"/>
	<path class="st7" d="M1274.2,1019.4l-11.3,9.3"/>
	<path class="st7" d="M1273.5,1027.6l-15.1,12.4"/>
	<path class="st7" d="M1273.9,1033.5l-15.1,12.4"/>
	<path class="st7" d="M1273.5,1041.4l-13.4,11"/>
	<path class="st7" d="M1273.2,1048.6l-14.1,11.7"/>
	<path class="st7" d="M1273.2,1055.8l-14.4,12"/>
	<path class="st7" d="M1273.5,1064.7l-15.8,13"/>
	<path class="st7" d="M1273.9,1072.9l-16.8,13.7"/>
	<path class="st7" d="M1273.2,1082.5l-16.1,13.4"/>
	<path class="st7" d="M1273.9,1090.1l-16.5,13.4"/>
	<path class="st7" d="M1274.2,1098.3l-18.9,15.4"/>
	<path class="st7" d="M1274.9,1106.2L1256,1122"/>
	<path class="st7" d="M1275.3,1114.8l-16.8,14.1"/>
	<path class="st7" d="M1274.6,1123.7l-18.5,15.1"/>
	<path class="st7" d="M1273.9,1132.6l-17.5,14.4"/>
	<path class="st7" d="M1272.5,1141.5l-17.2,14.1"/>
	<path class="st7" d="M1272.2,1150.5l-18.5,15.1"/>
	<path class="st7" d="M1271.5,1159.4l-17.5,14.4"/>
	<path class="st7" d="M1270.1,1167.6l-16.8,13.7"/>
	<path class="st7" d="M1270.8,1175.9l-19.2,15.8"/>
	<path class="st7" d="M1270.4,1184.4l-18.5,15.1"/>
	<line class="st7" x1="1268" y1="1193.7" x2="1248.8" y2="1209.5"/>
	<path class="st7" d="M1268.4,1201.9l-21.6,17.8"/>
	<path class="st7" d="M1267,1211.5l-19.9,16.5"/>
	<line class="st7" x1="1263.6" y1="1222.9" x2="1244.4" y2="1238.7"/>
	<path class="st7" d="M1263.6,1231.4l-21.3,17.5"/>
	<path class="st7" d="M1261.9,1241.4l-19.2,15.8"/>
	<line class="st7" x1="1172.7" y1="1390.3" x2="1095.8" y2="1418.1"/>
	<line class="st7" x1="1176.8" y1="1398.2" x2="1091.7" y2="1428.4"/>
	<path class="st7" d="M1184,1404.7c-12.4,3.8-92.6,33.3-105,37.1"/>
	<path class="st7" d="M1149,1431.8l-81,24"/>
	<path class="st7" d="M1143.9,1443.1l-85.8,25.4"/>
	<path class="st7" d="M1132.5,1458.2c-15.4,4.5-64.8,16.1-80.3,20.6"/>
	<path class="st7" d="M1122.9,1470.6c-15.8,4.8-60,14.8-75.5,19.2"/>
	<path class="st7" d="M1124.3,1481.6c-26.8,4.8-54.2,13-81,17.8"/>
	<path class="st7" d="M1121.2,1492.2c-17.8,5.1-64.2,15.8-81.7,20.9"/>
	<path class="st7" d="M1108.5,1507.7c-20.6,6.2-46.3,12-66.9,18.2"/>
	<path class="st7" d="M1095.5,1521.7l-55.2,16.5"/>
	<path class="st7" d="M1096.5,1532l-60,17.8"/>
	<path class="st7" d="M1096.2,1544l-56.6,16.8"/>
	<path class="st7" d="M1098.6,1555.3l-55.2,16.5"/>
	<path class="st7" d="M1097.2,1566.3l-51.1,15.1"/>
	<path class="st7" d="M1094.8,1577l-49.4,14.4"/>
	<path class="st7" d="M1094.1,1586.6l-43.2,12.7"/>
	<path class="st7" d="M1094.4,1597.6l-41.5,12.4"/>
	<path class="st7" d="M1094.8,1607.2l-33.6,10"/>
	<path class="st7" d="M1097.2,1617.5c-9.6,2.7-30.2,7.9-39.5,10.6"/>
	<path class="st7" d="M1101.3,1627.1l-30.5,8.9"/>
	<path class="st7" d="M1106.5,1632.5c-31.9,10.3-62.1,26.1-95.4,36"/>
	<path class="st7" d="M1114.3,1637c-28.8,10.3-56.6,26.1-86.5,35.7"/>
	<path class="st7" d="M1120.2,1640.8c-19.2,9.3-57,27.8-77.5,36.7"/>
	<path class="st7" d="M1123.6,1647c-16.1,8.6-42.2,23.3-59,30.5"/>
	<path class="st7" d="M1125.7,1654.5c-14.8,9.3-35.7,23.3-51.1,31.6"/>
	<path class="st7" d="M1127.7,1661c-13.4,8.6-29.8,19.9-43.9,27.1"/>
	<path class="st7" d="M1132.9,1665.5c-11.3,7.2-26.4,18.2-38.4,24.4"/>
	<path class="st7" d="M1138,1668.2c-8.6,5.5-22.3,15.1-31.2,19.9"/>
	<path class="st7" d="M1208.7,1214.3c-10.3,4.8-18.9,13.4-27.8,19.2"/>
	<path class="st7" d="M1212.8,1222.5c-12,7.5-22,15.8-34,23"/>
	<path class="st7" d="M1216.2,1231.8c-9.6,6.5-34,23.3-43.6,29.5"/>
	<path class="st7" d="M1219.3,1246.2c-16.5,12-35,20.9-52.1,31.6"/>
	<path class="st7" d="M1318.8,1221.2c-5.1,12.7-19.6,29.2-26.1,41.2"/>
	<path class="st7" d="M1315.7,1219.1c-4.5,10.3-9.3,20.6-14.8,30.2"/>
	<path class="st7" d="M1313.3,1217.4c-3.8,8.9-7.9,17.5-12.7,26.1"/>
	<path class="st7" d="M1311.6,1216.7c-3.1,7.9-6.9,15.4-10.6,22.6"/>
	<path class="st7" d="M1322.6,1221.8c-5.1,12.7-19.9,29.5-26.4,41.5"/>
	<path class="st7" d="M1325.3,1223.6c-5.1,12.7-19.6,29.2-26.1,41.2"/>
	<path class="st7" d="M1327.4,1225.3c-5.1,12.4-19.2,28.8-25.7,40.5"/>
	<path class="st7" d="M1219.3,1258.2c-17.8,11-36.4,20.9-54.2,32.3"/>
	<path class="st7" d="M1215.9,1273.6c-17.5,9.6-35.7,18.9-53.2,28.8"/>
	<path class="st7" d="M1209.4,1289.4c-15.8,8.9-31.6,17.2-47.3,26.1"/>
	<path class="st7" d="M1203.5,1304.5c-13.4,7.2-26.8,14.4-40.1,21.3"/>
	<path class="st7" d="M1197.4,1321.7c-10.3,5.8-20.9,11.3-31.2,17.2"/>
	<path class="st7" d="M1190.2,1340.6c-7.2,4.1-14.4,8.2-21.6,12.4"/>
	<path class="st7" d="M1194.3,1351.2l-26.8,16.1"/>
	<path class="st7" d="M1238.2,1206.7c-2.4,10-5.5,19.6-9.6,29.2"/>
	<path class="st7" d="M1234.4,1205.7c-2.4,9.3-5.1,17.8-8.9,26.4"/>
	<path class="st7" d="M1231.7,1204.3c-2.1,7.9-4.5,15.4-7.9,22.6"/>
	<path class="st7" d="M1230,1204c-1.7,7.2-4.5,14.4-7.5,20.9"/>
	<path class="st7" d="M1226.2,1206.1c-1.4,4.8-3.4,9.3-5.5,13.7"/>
	<path class="st7" d="M1223.1,1205.7c-1,3.8-2.7,7.5-4.8,11"/>
	<path class="st7" d="M1221.4,1205c-1,3.8-2.7,7.2-4.8,10.3"/>
	<path class="st7" d="M1242,1206.7c-3.1,11.7-6.9,23.3-11.7,34.3"/>
	<path class="st7" d="M1245.1,1208.1c-3.1,12-7.2,24-12,35.7"/>
	<path class="st7" d="M1247.1,1209.1c-2.4,13-8.2,25-12.7,37.4"/>
	<path class="st7" d="M1260.8,1375.6c-2.7,4.8-5.1,9.3-7.9,14.1"/>
	<path class="st7" d="M1256.4,1375.9c-2.7,4.5-5.1,8.9-7.5,13.4"/>
	<path class="st7" d="M1253,1375.9c-2.7,4.1-5.1,8.6-7.2,13"/>
	<path class="st7" d="M1250.6,1376.2c-2.4,4.1-4.8,8.2-7.2,12.4"/>
	<path class="st7" d="M1265.3,1375.6c-2.7,4.8-5.5,9.6-7.9,14.4"/>
	<path class="st7" d="M1269.4,1375.2c-2.7,5.1-5.5,10.3-8.6,15.4"/>
	<path class="st7" d="M1271.5,1376.2c-2.7,4.8-5.1,9.6-7.5,14.1"/>
	<path class="st7" d="M1236.5,1373.8c-2.7,4.1-4.8,8.6-7.2,12.7"/>
	<path class="st7" d="M1232.7,1372.5c-3.1,4.8-5.5,9.6-8.2,14.1"/>
	<path class="st7" d="M1230.3,1371.1c-3.1,4.8-5.5,10-8.6,14.8"/>
	<path class="st7" d="M1228.6,1370.1c-1.7,2.7-3.4,5.1-5.1,7.9"/>
	<path class="st7" d="M1240.3,1374.9c-2.7,4.1-5.1,8.6-7.5,13"/>
	<path class="st7" d="M1243.7,1375.9c-2.4,3.8-4.5,7.9-6.9,12"/>
	<path class="st7" d="M1246.4,1375.6c-2.4,4.1-4.8,8.6-7.2,12.7"/>
	<path class="st7" d="M1216.6,1365.3c-4.1,6.5-7.5,13-11.3,19.9"/>
	<path class="st7" d="M1213.2,1363.5c-3.4,5.1-6.9,10-10.3,14.8"/>
	<path class="st7" d="M1210.8,1362.2c-2.7,4.1-5.5,8.2-8.6,12.4"/>
	<path class="st7" d="M1209,1361.1c-2.1,3.1-4.1,6.2-6.2,8.9"/>
	<path class="st7" d="M1220,1367c-3.8,5.8-7.2,12.4-10.6,18.5"/>
	<path class="st7" d="M1223.1,1368c-3.4,5.8-6.9,11.7-10.3,17.5"/>
	<path class="st7" d="M1200.8,1356.3c-3.8,6.2-8.2,12-12.4,17.8"/>
	<path class="st7" d="M1197.4,1354.6c-3.8,5.8-7.5,11.3-11.7,16.8"/>
	<path class="st7" d="M1204.2,1358.1c-3.8,5.8-7.9,11.7-12,17.2"/>
	<path class="st7" d="M1207,1359.8c-3.8,5.5-7.5,11-11.3,16.5"/>
	<path class="st7" d="M1225.2,1369c-3.4,5.5-6.2,11-9.3,16.5"/>
	<path class="st7" d="M1323.3,882.8c-3.1,5.1-5.8,10.3-8.6,15.4"/>
	<path class="st7" d="M1319.9,878.4c-3.1,4.1-5.5,8.6-7.9,13"/>
	<path class="st7" d="M1333.2,886.6c-3.4,5.5-6.5,11.7-9.6,17.5"/>
	<path class="st7" d="M1336,895.2c-0.7,1-1.4,2.1-2.1,3.1"/>
	<path class="st7" d="M1347.6,882.8c-2.7,4.5-5.1,9.6-7.5,14.1"/>
	<path class="st7" d="M1356.2,883.5l-8.2,11.3"/>
	<path class="st7" d="M1366.2,877.3l-9.9,13.7"/>
	<path class="st7" d="M1376.5,877l-7.2,10"/>
	<path class="st7" d="M1385,873.6l-8.6,11.7"/>
	<path class="st7" d="M1396.4,875.6l-3.1,3.8"/>
	<path class="st7" d="M1392.9,867.1c-3.1,4.8-5.5,10-7.9,14.8"/>
	<path class="st7" d="M1401.9,867.7l-8.9,12"/>
	<path class="st7" d="M1411.5,861.6l-9.9,13.7"/>
	<path class="st7" d="M1421.8,861.2l-4.8,6.5"/>
	<path class="st7" d="M1430.3,857.8l-4.8,6.5"/>
	<line class="st7" x1="1159.3" y1="1386.9" x2="1082.8" y2="1414.3"/>
</g>
</svg>
