<?xml version="1.0" encoding="utf-8"?>
<!-- Generator: Adobe Illustrator 28.1.0, SVG Export Plug-In . SVG Version: 6.00 Build 0)  -->
<svg version="1.1" id="Layer_1" xmlns="http://www.w3.org/2000/svg" xmlns:xlink="http://www.w3.org/1999/xlink" x="0px" y="0px"
	 viewBox="0 0 2521 2911" style="enable-background:new 0 0 2521 2911;" xml:space="preserve">
<style type="text/css">
	.st0{fill:#666666;}
	.st1{fill:#434343;}
	.st2{fill:none;}
	.st3{fill:#FFFFFF;}
	.st4{fill:#999999;}
	.st5{fill:#B7B7B7;}
	.st6{fill:#E6B8AF;}
	.st7{fill:#F4CCCC;}
	.st8{fill:#D9D9D9;}
	.st9{fill:#595959;}
</style>
<g>
	<polygon class="st0" points="30,751.8 30,2159.2 1260.5,2876.3 2491,2159.2 2491,751.8 1260.5,34.7 	"/>
	<path class="st1" d="M1260.5,0L0,734.5v1442L1260.5,2911L2521,2176.5v-1442L1260.5,0z M2491,2159.2l-1230.5,717L30,2159.2V751.8
		l1230.5-717l1230.5,717V2159.2z"/>
</g>
<g>
	<path class="st2" d="M1242.1,1368.5c0-0.7-0.1-1.5-0.1-2.2v-69.3c-12,0.3-23.9,0.6-35.7,0.8v72.7
		C1217.9,1369.7,1229.8,1369,1242.1,1368.5z"/>
	<path class="st2" d="M1275,2065.3h-37.7c-15.9,0-28.2,2.7-36.8,8.2c-8.6,5.4-12.9,13.6-12.9,24.5c0,9.2,3.1,16.5,9.4,22
		c6.3,5.4,15.1,8.2,26.4,8.2c15.9,0,29-4.1,39.3-12.3c10.3-8.2,15.4-19,15.4-32.4v-15.1C1278.1,2066.4,1277.1,2065.3,1275,2065.3z"
		/>
	<path class="st2" d="M1370.3,1029.5l0-0.2l-1.4,1.9c0.2,0,0.5,0,0.7,0C1369.8,1030.6,1370.1,1030.1,1370.3,1029.5z"/>
	<path class="st3" d="M1527.7,1432.6c-38.5,4.9-86.2,8.2-138.2,9.6c0.7,0.2,1.3,0.4,2,0.6c16.2,4.9,23.7,10.1,23.7,16.5v118.4
		c41.8-1.7,80-4.6,111.8-8.7c76.3-9.8,78.5-21.1,78.5-22.3v-133.5C1589.7,1424.7,1544.6,1430.5,1527.7,1432.6z"/>
	<path class="st3" d="M1206.3,1418.2c0,1.4-0.1,2.7-0.2,4c47.1,1.6,90.4,4.7,125.7,9.3c13.7,1.8,25.7,3.7,36.2,5.7
		c60-1,115.5-4.5,159-10.1c76.3-9.8,78.5-21.1,78.5-22.3c0-1.3-2.2-12.5-78.5-22.3c-40.1-5.1-90.4-8.5-145-9.8
		c-4.2,26.6-33.8,47.4-69.7,47.4c-35.3,0-64.6-20-69.5-46c-12.5,0.5-24.7,1.2-36.5,2V1418.2z"/>
	<path class="st4" d="M1206.3,1376c11.8-0.8,24-1.4,36.5-2c-0.3-1.8-0.6-3.7-0.7-5.5c-12.3,0.5-24.2,1.2-35.8,2V1376z"/>
	<path class="st4" d="M1382,1372.7c54.6,1.3,104.9,4.6,145,9.8c76.3,9.8,78.5,21.1,78.5,22.3c0,1.3-2.2,12.5-78.5,22.3
		c-43.5,5.6-99,9.1-159,10.1c-10.5-2.1-22.5-4-36.2-5.7c-35.4-4.5-78.6-7.7-125.7-9.3c-0.2,1.9-0.5,3.7-0.8,5.5
		c47.2,1.6,90.5,4.7,125.9,9.3c76.3,9.8,78.5,21.1,78.5,22.3c0,1.3-2.2,12.5-78.5,22.3c-52.1,6.7-121.3,10.4-195,10.4
		c-73.7,0-142.9-3.7-195-10.4c-76.3-9.8-78.5-21.1-78.5-22.3c0-1.3,2.2-12.5,78.5-22.3c31.8-4.1,70-7,111.7-8.7
		c-0.4-1.8-0.7-3.6-0.9-5.5c-41.6,1.7-79.7,4.7-111.5,8.7c-20.6,2.6-83.3,10.7-83.3,27.8v141.9c0,6.3,7.5,11.6,23.7,16.5
		c14.1,4.3,34.1,8.1,59.7,11.4c52.3,6.7,121.8,10.4,195.7,10.4c73.9,0,143.4-3.7,195.7-10.4c20.6-2.6,83.3-10.7,83.3-27.8v-17.9
		c42-1.7,80.5-4.7,112.6-8.8c20.6-2.6,83.3-10.7,83.3-27.8v-141.9c0-6.3-7.5-11.6-23.7-16.5c-14.1-4.3-34.1-8.1-59.7-11.4
		c-40.2-5.2-90.5-8.5-145.2-9.8C1382.4,1369,1382.2,1370.9,1382,1372.7z M1527,1569c-31.8,4.1-70.1,7-111.8,8.7v-118.4
		c0-6.3-7.5-11.6-23.7-16.5c-0.6-0.2-1.3-0.4-2-0.6c52-1.4,99.7-4.7,138.2-9.6c16.9-2.2,62-8,77.8-19.4v133.5
		C1605.5,1547.9,1603.3,1559.2,1527,1569z M1331.1,1623.5c-52.1,6.7-121.3,10.4-195,10.4c-73.7,0-142.9-3.7-195-10.4
		c-76.3-9.8-78.5-21.1-78.5-22.3v-133.3c3.9,2.8,9.9,5.4,18.1,7.9c14.1,4.3,34.1,8.1,59.7,11.4c52.3,6.7,121.8,10.4,195.7,10.4
		c73.9,0,143.4-3.7,195.7-10.4c16.9-2.2,62-8,77.8-19.4v133.5C1409.6,1602.4,1407.4,1613.7,1331.1,1623.5z"/>
	<path class="st3" d="M1129,1476.5c-38.1,0-69.8-20.9-76.1-48.3c-41.7,1.7-79.9,4.6-111.7,8.7c-76.3,9.8-78.5,21.1-78.5,22.3
		c0,1.3,2.2,12.5,78.5,22.3c52.1,6.7,121.3,10.4,195,10.4c73.7,0,142.9-3.7,195-10.4c76.3-9.8,78.5-21.1,78.5-22.3
		c0-1.3-2.2-12.5-78.5-22.3c-35.4-4.5-78.6-7.7-125.9-9.3C1199.2,1455.4,1167.3,1476.5,1129,1476.5z"/>
	<path class="st3" d="M1409.6,1467.7c-15.8,11.4-60.9,17.2-77.8,19.4c-52.3,6.7-121.8,10.4-195.7,10.4c-73.9,0-143.4-3.7-195.7-10.4
		c-25.5-3.3-45.6-7.1-59.7-11.4c-8.3-2.5-14.2-5.1-18.1-7.9v133.3c0,1.3,2.2,12.5,78.5,22.3c52.1,6.7,121.3,10.4,195,10.4
		c73.7,0,142.9-3.7,195-10.4c76.3-9.8,78.5-21.1,78.5-22.3V1467.7z"/>
	<path class="st3" d="M1062.8,1418.2c0,26,29.7,47.2,66.2,47.2c36.5,0,66.2-21.2,66.2-47.2v-120.2c-8.8,0.2-17.5,0.3-26.1,0.4
		l-0.7,0.9l-0.2-0.9c-14.9,0.2-29.5,0.2-43.8,0.2c-21.2,0-41.8-0.2-61.6-0.5V1418.2z"/>
	<path class="st5" d="M1052.9,1428.2c6.3,27.4,38,48.3,76.1,48.3c38.3,0,70.2-21.1,76.2-48.8c0.4-1.8,0.7-3.7,0.8-5.5
		c0.1-1.3,0.2-2.7,0.2-4V1376v-5.6v-72.7c-3.7,0.1-7.4,0.1-11.1,0.2v120.2c0,26-29.7,47.2-66.2,47.2c-36.5,0-66.2-21.2-66.2-47.2
		V1298c-3.7-0.1-7.4-0.1-11.1-0.2v120.4c0,1.5,0.1,3,0.3,4.6C1052.2,1424.6,1052.5,1426.4,1052.9,1428.2z"/>
	<path class="st3" d="M1312.3,1408.9c32.6,0,59.1-19.2,59.1-42.7v-74.6c-27.1,1.5-54.9,2.8-82.9,3.8c-11.9,0.4-23.6,0.8-35.4,1.2
		v69.6C1253.1,1389.8,1279.7,1408.9,1312.3,1408.9z"/>
	<path class="st5" d="M1371.4,1291.6v74.6c0,23.6-26.5,42.7-59.1,42.7c-32.6,0-59.1-19.2-59.1-42.7v-69.6c-3.7,0.1-7.4,0.2-11.1,0.3
		v69.3c0,0.8,0,1.5,0.1,2.2c0.1,1.9,0.3,3.7,0.7,5.5c4.9,26,34.2,46,69.5,46c35.9,0,65.5-20.7,69.7-47.4c0.3-1.8,0.5-3.7,0.5-5.5
		c0-0.3,0-0.6,0-0.9V1291C1378.8,1291.2,1375.1,1291.4,1371.4,1291.6z"/>
	<path class="st1" d="M1485.8,838.2l-4-28.8c-0.1,0-0.2,0.1-0.4,0.1l3.8,32.4c0.6,5.3-1.2,10.7-5.3,16c-5.1,6.4-13.5,12.3-24.2,17
		c-11,4.8-24,8.2-37.7,9.7c-5.6,0.6-11.1,0.9-16.3,0.9c-32,0-57.2-11.1-59.1-27.4l-0.1-1.2c-0.7,2.7-2.2,5.4-4.3,8
		c-10.2,12.7-35.1,22.9-63.2,25.9c-5.7,0.6-11.2,0.9-16.6,0.9c-29.1,0-52.5-8.6-57.7-21.6c-0.5,3.7-2.2,7.4-5.2,11.1
		c-10.3,12.6-34.4,22.5-61.3,25.2c-4.9,0.5-9.7,0.7-14.3,0.7c-30.6,0-55-10-58.8-24.8c-0.8,3-2.4,6.1-4.8,9
		c-10.2,12.5-32.8,21.8-59,24.3c-4.5,0.4-8.9,0.6-13.2,0.6c-31.3,0-56-11-57.6-26.9l-0.2-2.3c-0.5,0-0.9,0-1.3,0.1
		c-0.5,2.8-1.9,5.5-4.2,8.2c-9.2,10.6-31.1,18.6-56.3,20.9c2.1,16.1,3.9,33.1,5.3,50.6c1.2,15.9,2,31.3,2.5,46
		c1.5-0.2,3-0.3,4.5-0.4c27.7-1.5,50.9,10.5,51.9,26.8l0,0.2c0.9-3.1,2.6-6.2,5.2-9.1c8.6-9.7,25.5-16.5,44.1-17.7
		c28.6-1.8,52.7,10,53.7,26.2l0.4,6.3c0-4.5,1.9-9.1,5.5-13.2c9-10.2,27.3-17.4,47.9-18.7c30.5-2,56.3,9.6,57.4,25.9l0.1,0.7
		c0.9-2,2.1-3.9,3.7-5.9c9.2-10.8,29-18.7,51.7-20.5c30.1-2.4,56,6.9,60.9,21.1c1,0,2-0.1,3-0.1c0.6-1,1.3-2,2.1-3
		c8.7-10.5,27-18.1,47.7-19.9c27.5-2.4,51.3,6.2,56.9,19.7c0.1,0,0.2,0,0.3,0l1.4-1.9l-3.6-64.3c-0.3-5.1,1.7-10.2,5.9-14.8
		c8.8-9.8,26-16.5,45.1-17.5c8.4-0.5,16.4,0.2,23.5,1.8l58.5-78.2C1491.9,851.7,1486.8,845.5,1485.8,838.2z"/>
	<path class="st1" d="M1169.1,1298.3c-0.3,0-0.6,0-0.8,0l0.2,0.9L1169.1,1298.3z"/>
	<path class="st6" d="M1712,1102.5C1711.9,1102.5,1711.9,1102.5,1712,1102.5c-0.2,0-0.4-0.1-0.5-0.2l-21.7-17.9
		c-2.5,0.6-5,1.2-7.6,1.8l2.7,23.8c0,0.2-0.1,0.5-0.3,0.6l-47.5,34.2c-0.1,0.1-0.3,0.1-0.4,0.1c-0.1,0-0.2,0-0.3-0.1l-52.6-22.4
		l0.5,4.9c0,0.2-0.1,0.5-0.3,0.6l-44.5,33.2c-0.1,0.1-0.3,0.1-0.4,0.1c-0.1,0-0.2,0-0.3-0.1l-48.7-23.4l0.5,5.4
		c0,0.3-0.1,0.5-0.3,0.6l-51.8,33.7c-0.1,0.1-0.2,0.1-0.4,0.1c-0.1,0-0.2,0-0.3-0.1l-57.5-23.6c-0.2-0.1-0.4-0.3-0.4-0.6l-0.2-1.9
		l-51.9,33.2c-0.1,0.1-0.2,0.1-0.4,0.1c-0.1,0-0.2,0-0.3-0.1l-57.4-23.9c-0.2-0.1-0.4-0.3-0.4-0.6l-0.6-6.7l-55.9,33.1
		c-0.1,0.1-0.2,0.1-0.4,0.1c-0.1,0-0.2,0-0.3,0l-60.9-24.1c-0.2-0.1-0.4-0.3-0.4-0.6l-0.7-7.9c-0.1,0.1-0.1,0.2-0.2,0.2l-52.7,32.2
		c-0.1,0.1-0.2,0.1-0.4,0.1c-0.1,0-0.2,0-0.3-0.1l-56.6-25.2c-0.2-0.1-0.4-0.3-0.4-0.6l-2.3-34.1c-0.1,0-0.1,0-0.2,0l1.7,26.8
		c0,0.3-0.1,0.5-0.3,0.6l-49.3,31.9c-0.1,0.1-0.2,0.1-0.4,0.1c-0.1,0-0.2,0-0.3-0.1l-53-25.6c-0.2-0.1-0.4-0.3-0.4-0.6l-0.6-8.6
		l0.1,2.6c0,0.2-0.1,0.5-0.3,0.6l-47.9,31.4c-0.1,0.1-0.2,0.1-0.4,0.1c-0.1,0-0.2,0-0.3-0.1l-49.6-25.3l4.1,105.7
		c0.1,1.6,4.2,15.4,130.1,22.6c85,4.9,197.9,5.1,317.8,0.7c254.9-9.5,425.8-35.1,443.6-54.4c0.5-0.6,1.2-1.4,1.1-2.2l-5.8-150.2
		l-14.8,19.1C1712.3,1102.4,1712.1,1102.5,1712,1102.5z"/>
	<path d="M1681.1,1077.3l0.4,3.4c1-0.2,1.9-0.4,2.9-0.7L1681.1,1077.3z"/>
	<path d="M1033.1,1065.4l3.6,55.9c0.1,0,0.1,0,0.2,0L1033.1,1065.4z"/>
	<path class="st4" d="M1684.4,1080c-0.9,0.2-1.9,0.4-2.9,0.7l0.6,5.6c2.6-0.6,5.1-1.2,7.6-1.8L1684.4,1080z"/>
	<path class="st4" d="M1036.9,1121.3c-0.1,0-0.1,0-0.2,0l0.4,5.6c0.1,0,0.1,0,0.2,0L1036.9,1121.3z"/>
	<path class="st4" d="M834.9,1266.7c0.3,7.5,12.1,13.1,38.2,17.9c22.9,4.3,55.6,7.6,97.1,10c25,1.4,52.3,2.5,81.5,3.1
		c3.7,0.1,7.4,0.2,11.1,0.2c19.8,0.4,40.4,0.5,61.6,0.5c14.3,0,29-0.1,43.8-0.2c0.3,0,0.6,0,0.8,0c8.6-0.1,17.3-0.2,26.1-0.4
		c3.7-0.1,7.4-0.1,11.1-0.2c11.8-0.2,23.7-0.5,35.7-0.8c3.7-0.1,7.4-0.2,11.1-0.3c11.7-0.3,23.5-0.7,35.4-1.2
		c28-1,55.8-2.3,82.9-3.8c3.7-0.2,7.4-0.4,11.1-0.6c77.5-4.5,149.5-10.6,208.8-18c58.5-7.3,131.2-19.1,144.7-33.7
		c1.8-2,2.7-4,2.6-6.2l-6.1-156.8l-5.3,6.8l5.8,150.2c0,0.8-0.6,1.6-1.1,2.2c-17.9,19.3-188.7,44.9-443.6,54.4
		c-119.9,4.5-232.7,4.2-317.8-0.7c-125.9-7.3-130-21.1-130.1-22.6l-4.1-105.7l-1.5-0.8c-0.2-0.1-0.4-0.3-0.4-0.6l-1.3-22.7l-90,6.7
		c12-19.5,16.3-88.5,10.1-168.1c-3.5-45.3-9.9-87.8-17.9-119.4c-5.8-22.9-11.9-38-18.1-45.2l66-4.9l5.7,35.9l-4.3-58.6
		c0-0.3,0.1-0.5,0.4-0.7l0.1-0.1l-11.2-71c6.3,3.1,17.1,5.1,33,6.3c10.1,0.7,22,1.1,35.6,1.1c17.6,0,38.2-0.6,61.4-1.9
		c84.7-4.6,196.2-16.9,314.1-34.7c110.4-16.7,215.5-36.6,295.8-56c53.9-13.1,119.9-31.6,136.7-47.2l11.9,75.5l6.2,3.8l-13.9-88.3
		c-1.2-7.5-13.5-11.7-39.8-13.6c-23.1-1.7-55.8-1.5-97,0.8c-84.7,4.6-196.2,16.9-314.1,34.7c-110.4,16.7-215.5,36.6-295.8,56
		c-56.9,13.8-127.1,33.6-138.9,49.7c-1.6,2.2-2.2,4.4-1.9,6.5l15.2,96.4l-74.3,5.5c-2.4,0.2-4.7,1.5-6.7,3.8
		c-11.5,13.4-16.8,68.8-13.8,137.3H571.2C530.9,841.2,488.6,783.6,451,783.6c-0.1,0-0.2,0-0.3,0c-19.5,0.1-36,16.3-45.3,44.3
		c-15.7,47.5-7,118.2,34.1,152c-41.1,33.8-49.9,104.5-34.1,152c9.3,28,25.8,44.2,45.3,44.3c0.1,0,0.2,0,0.3,0
		c37.7,0,79.9-57.7,120.3-163.3h121.4c3.7,32.7,8.7,62.7,14.8,86.5c8.4,33.3,17.4,50.1,26.7,50.1c0.2,0,0.4,0,0.6,0l95.3-7.1
		L834.9,1266.7z M712.8,1098.2c-5.9-23.5-11-53-14.6-85.2h16.1c7.1,0,12.9-5.8,12.9-12.9v-40.4c0-3.4-1.3-6.7-3.8-9.1
		c-2.4-2.4-5.7-3.8-9.1-3.8H693c-3.3-73.8,3.4-123.1,12.5-133.7c1-1.2,2-1.8,2.9-1.9c1-0.1,10.1,0.6,21.5,45.9
		c7.9,31.4,14.2,73.5,17.7,118.5c7.1,91.9-0.1,154.3-10.5,166.5c-1,1.2-2,1.8-2.9,1.9C733.4,1144.2,724.2,1143.5,712.8,1098.2z
		 M450.7,1170.8c-17-0.1-31.6-14.9-40.1-40.5c-15.5-46.8-6.5-116.7,35-148.1c0.7-0.5,1.1-1.3,1.1-2.2c0-0.9-0.4-1.7-1.1-2.2
		c-41.5-31.4-50.5-101.3-35-148.1c8.5-25.6,23.1-40.4,40.1-40.5c0.1,0,0.1,0,0.2,0c16.9,0,36.2,14.2,55.8,41.2
		c19.6,27,39.2,66.1,58.6,116.6h-31.7c-7.1,0-12.9,5.8-12.9,12.9v40.4c0,7.1,5.8,12.9,12.9,12.9h31.7c-19.4,50.5-39,89.6-58.6,116.6
		c-19.5,26.9-38.8,41.2-55.8,41.2C450.9,1170.8,450.8,1170.8,450.7,1170.8z M533.6,1007.5c-4,0-7.3-3.3-7.3-7.3v-40.4
		c0-4,3.3-7.3,7.3-7.3h180.7c2,0,3.8,0.8,5.2,2.1c1.4,1.4,2.1,3.2,2.1,5.2v40.4c0,4-3.3,7.3-7.3,7.3H533.6z M773.5,700.6
		c15.6-21.2,181.1-65.8,431.1-103.5c117.7-17.8,229.1-30.1,313.6-34.6c125-6.7,130.8,6.7,131,8.2c0.1,0.8-0.4,1.7-0.9,2.4
		c-8.3,11.3-57.8,28.7-135.8,47.6c-80.2,19.4-185.1,39.3-295.4,55.9c-117.7,17.8-229.1,30.1-313.6,34.6c-125,6.7-130.8-6.7-131-8.2
		C772.5,702.2,773,701.3,773.5,700.6z"/>
	<path class="st4" d="M1369.2,1032.6c0.1-0.5,0.3-1,0.5-1.5c-0.2,0-0.5,0-0.7,0c-0.1,0-0.2,0-0.3,0
		C1368.8,1031.6,1369,1032.1,1369.2,1032.6z"/>
	<path class="st4" d="M1259.7,1038.1l0.1,0.6c0.5-1.5,1.2-2.9,2.1-4.4c-1,0-2,0.1-3,0.1C1259.3,1035.6,1259.6,1036.8,1259.7,1038.1z
		"/>
	<path class="st7" d="M651.6,1893.8c-26.4-17.2-57-25.8-91.7-25.8c-34.4,0-64.5,8.3-90.5,24.8c-26,16.5-44.2,39.5-54.7,68.8
		c-8,20.1-12,44.2-12,72.3c0,28.1,4,52.1,12,72.3c10.9,30.2,29.2,53.8,55,71c25.8,17.2,55.8,25.8,90.2,25.8
		c34.4,0,64.6-8.2,90.8-24.5c26.2-16.3,44.3-39.2,54.4-68.5c2.5-7.5,3.8-14.4,3.8-20.7c0-3.8-2.1-6.1-6.3-6.9l-88-13.8
		c-4.6-0.8-7.5,1.3-8.8,6.3c0,1.3-0.2,2.1-0.6,2.5c0,1.7-0.2,2.9-0.6,3.8c-3.4,10.5-9,18.5-17,24.2c-8,5.6-17.4,8.5-28.3,8.5
		c-21.8,0-36.7-10.7-44.6-32c-4.2-13.4-6.3-29.1-6.3-47.1c0-20.1,2.3-36,6.9-47.8c7.1-19.7,21.8-29.5,44-29.5
		c10.5,0,19.6,2.5,27.3,7.5c7.8,5,13.5,11.5,17.3,19.5c0.8,2.5,1.7,5.4,2.5,8.8l1.3,5.7c1.3,4.2,3.8,6.3,7.5,6.3h1.3l87.3-13.2
		c4.6-0.8,6.9-3.6,6.9-8.2c-0.8-8.8-2.7-17-5.7-24.5C695.8,1932.7,678,1910.9,651.6,1893.8z"/>
	<path class="st7" d="M2118.9,1876.8c-8.4-5.4-20.1-8.2-35.2-8.2c-26.8,0-48.6,11.1-65.3,33.3c-0.4,1.3-1,1.7-1.9,1.3
		c-0.8-0.4-1.3-1.3-1.3-2.5v-20.1c0-2.1-0.7-3.9-2.2-5.3c-1.5-1.5-3.2-2.2-5.3-2.2h-89.2c-2.1,0-3.9,0.7-5.3,2.2
		c-1.5,1.5-2.2,3.2-2.2,5.3v309.8c0,2.1,0.7,3.9,2.2,5.3c1.5,1.5,3.3,2.2,5.3,2.2h89.2c2.1,0,3.9-0.7,5.3-2.2
		c1.5-1.5,2.2-3.3,2.2-5.3v-165.3c0-13.8,4.5-24.9,13.5-33.3c9-8.4,20-13.4,33-15.1c3.8-0.8,9.2-1.3,16.3-1.3
		c6.7,0,13.8,0.8,21.4,2.5c5.5,2.1,8.4,0.6,8.8-4.4l14.4-87.3C2123.5,1882,2122.3,1878.9,2118.9,1876.8z"/>
	<path class="st7" d="M935,1868c-34.4,0-59.5,12.4-75.4,37.1c-0.8,1.3-1.6,1.8-2.2,1.6c-0.6-0.2-0.9-1.2-0.9-2.8v-138.2
		c0-2.1-0.7-3.9-2.2-5.3c-1.5-1.5-3.2-2.2-5.3-2.2h-89.2c-2.1,0-3.9,0.7-5.3,2.2c-1.5,1.5-2.2,3.2-2.2,5.3v424.8
		c0,2.1,0.7,3.9,2.2,5.3c1.5,1.5,3.3,2.2,5.3,2.2H849c2.1,0,3.9-0.7,5.3-2.2c1.5-1.5,2.2-3.3,2.2-5.3v-184.1
		c0-14.7,4-26.5,11.9-35.5s18.4-13.5,31.4-13.5c12.6,0,22.8,4.6,30.8,13.8c8,9.2,11.9,20.9,11.9,35.2v184.1c0,2.1,0.7,3.9,2.2,5.3
		c1.5,1.5,3.3,2.2,5.3,2.2h89.2c2.1,0,3.9-0.7,5.3-2.2c1.5-1.5,2.2-3.3,2.2-5.3v-206.7c0-35.6-10.5-63.8-31.4-84.5
		C994.5,1878.4,967.7,1868,935,1868z"/>
	<path class="st7" d="M1861.3,1873h-57.2c-2.1,0-3.1-1-3.1-3.1v-76c0-2.1-0.7-3.9-2.2-5.3c-1.5-1.5-3.2-2.2-5.3-2.2h-84.8
		c-2.1,0-3.9,0.7-5.3,2.2c-1.5,1.5-2.2,3.3-2.2,5.3v76c0,2.1-1,3.1-3.1,3.1h-35.8c-2.1,0-3.9,0.7-5.3,2.2c-1.5,1.5-2.2,3.2-2.2,5.3
		v68.5c0,2.1,0.7,3.9,2.2,5.3c1.5,1.5,3.3,2.2,5.3,2.2h35.8c2.1,0,3.1,1,3.1,3.1v157.1c0.4,32.3,9.4,54.1,27,65.7
		c17.6,11.5,44.6,17.3,81.1,17.3c9.2,0,23.9-0.4,44-1.3c5-0.8,7.6-3.6,7.6-8.2v-72.9c0-2.1-0.7-3.9-2.2-5.3
		c-1.5-1.5-3.3-2.2-5.3-2.2h-23.2c-19.3,0-28.9-11.9-28.9-35.8v-114.4c0-2.1,1-3.1,3.1-3.1h57.2c2.1,0,3.9-0.7,5.3-2.2
		c1.5-1.5,2.2-3.3,2.2-5.3v-68.5c0-2.1-0.7-3.9-2.2-5.3C1865.2,1873.8,1863.4,1873,1861.3,1873z"/>
	<path class="st7" d="M1618.7,1873h-57.2c-2.1,0-3.1-1-3.1-3.1v-76c0-2.1-0.7-3.9-2.2-5.3c-1.5-1.5-3.2-2.2-5.3-2.2H1466
		c-2.1,0-3.9,0.7-5.3,2.2c-1.5,1.5-2.2,3.3-2.2,5.3v76c0,2.1-1,3.1-3.1,3.1h-35.8c-2.1,0-3.9,0.7-5.3,2.2c-1.5,1.5-2.2,3.2-2.2,5.3
		v68.5c0,2.1,0.7,3.9,2.2,5.3c1.5,1.5,3.3,2.2,5.3,2.2h35.8c2.1,0,3.1,1,3.1,3.1v157.1c0.4,32.3,9.4,54.1,27,65.7
		c17.6,11.5,44.6,17.3,81.1,17.3c9.2,0,23.9-0.4,44-1.3c5-0.8,7.6-3.6,7.6-8.2v-72.9c0-2.1-0.7-3.9-2.2-5.3
		c-1.5-1.5-3.3-2.2-5.3-2.2h-23.2c-19.3,0-28.9-11.9-28.9-35.8v-114.4c0-2.1,1-3.1,3.1-3.1h57.2c2.1,0,3.9-0.7,5.3-2.2
		c1.5-1.5,2.2-3.3,2.2-5.3v-68.5c0-2.1-0.7-3.9-2.2-5.3C1622.6,1873.8,1620.8,1873,1618.7,1873z"/>
	<path class="st7" d="M1309.6,1882.1c-22.6-9.4-48-14.1-76-14.1c-26.4,0-50.4,4.3-72,12.9c-21.6,8.6-38.7,20.3-51.5,35.2
		s-20,31.5-21.7,49.9c0,2.9,2.5,4.8,7.6,5.7l90.5,12c3.8,0.4,6.7-1.7,8.8-6.3c2.1-5.9,6.8-10.7,14.1-14.4c7.3-3.8,16-5.7,26.1-5.7
		c13.4,0,23.9,3.2,31.4,9.7c7.5,6.5,11.3,15.4,11.3,26.7v11.9c0,2.1-1,3.1-3.1,3.1H1214c-42.7,0-75.3,8.8-97.7,26.4
		c-22.4,17.6-33.6,42.5-33.6,74.8c0,30.6,9.9,53.7,29.8,69.4s46.6,23.6,80.1,23.6c38.5,0,65.8-11.7,81.7-35.2
		c0.8-1.7,1.7-2.4,2.5-2.2c0.8,0.2,1.3,1.1,1.3,2.8v22c0,2.1,0.7,3.9,2.2,5.3c1.5,1.5,3.3,2.2,5.3,2.2h89.2c2.1,0,3.9-0.7,5.3-2.2
		c1.5-1.5,2.2-3.3,2.2-5.3v-214.3c0-20.1-6.5-38.4-19.5-55C1350,1904.6,1332.2,1891.6,1309.6,1882.1z M1278.1,2083.5
		c0,13.4-5.1,24.2-15.4,32.4c-10.3,8.2-23.3,12.3-39.3,12.3c-11.3,0-20.1-2.7-26.4-8.2c-6.3-5.5-9.4-12.8-9.4-22
		c0-10.9,4.3-19.1,12.9-24.5c8.6-5.5,20.8-8.2,36.8-8.2h37.7c2.1,0,3.1,1,3.1,3.1V2083.5z"/>
	<path class="st3" d="M1327.3,1183.4l51.5-33l-7.9-86.4l-2.5-25.2c-0.1-0.8-0.1-1.6,0-2.4l0-0.3c-1.4-15.4-26.8-25.9-56.7-23.3
		c-20.3,1.8-38.2,9.2-46.7,19.4c-3.2,3.8-4.8,7.7-4.9,11.6l1.1,13.6l9.3,102.4L1327.3,1183.4z"/>
	<path class="st8" d="M828,1044.5c-0.3-5.3,1.8-10.5,6-15.3c6.9-7.6,18.8-13.3,32.6-15.7c-0.4-14.4-1.2-29.9-2.5-46.4
		c-1.4-17.5-3.1-34.5-5.3-50.6c-2.9,0.2-5.7,0.3-8.4,0.3c-31.7,0-56.8-10-57.8-24l-3.7-51.1l-5.7-35.9l-66,4.9
		c6.3,7.2,12.3,22.3,18.1,45.2c8,31.7,14.4,74.1,17.9,119.4c6.2,79.6,1.9,148.6-10.1,168.1l90-6.7L828,1044.5z"/>
	<path class="st8" d="M737.2,1142.2c10.4-12.1,17.7-74.6,10.5-166.5c-3.5-45-9.8-87.1-17.7-118.5c-11.5-45.4-20.5-46-21.5-45.9
		c-0.9,0.1-1.9,0.7-2.9,1.9c-9.1,10.6-15.8,59.9-12.5,133.7h21.3c3.4,0,6.7,1.3,9.1,3.8c2.4,2.4,3.8,5.7,3.8,9.1v40.4
		c0,7.1-5.8,12.9-12.9,12.9h-16.1c3.6,32.2,8.6,61.7,14.6,85.2c11.5,45.4,20.6,46,21.5,45.9C735.2,1144,736.2,1143.4,737.2,1142.2z"
		/>
	<path class="st4" d="M864.1,967.1c1.3,16.4,2.1,31.9,2.5,46.4c1.8-0.3,3.6-0.6,5.5-0.8c-0.4-14.7-1.2-30.2-2.5-46
		c-1.4-17.4-3.1-34.5-5.3-50.6c-1.1,0.1-2.3,0.2-3.5,0.3c-0.7,0-1.4,0.1-2.1,0.1C861,932.6,862.7,949.6,864.1,967.1z"/>
	<path class="st3" d="M1258.3,1038.2c-1.3-15.4-28.3-26-60.2-23.5c-22,1.7-41.9,9.6-50.8,20c-2.5,2.9-3.9,5.8-4.5,8.8l2.3,33.6
		l7.1,84.5l60.2,23.8l55.5-32.9L1258.3,1038.2z"/>
	<path class="st3" d="M1141.2,1039c-1-15.5-26.1-26.5-55.9-24.6c-20.2,1.3-38.2,8.3-46.9,18.3c-3.7,4.3-5.5,8.7-5.2,13.2l7.7,114.5
		l55.9,24.9l52.1-31.8L1141.2,1039z"/>
	<path class="st3" d="M1030,1038.8c-1-15.5-24.4-26.6-52.3-24.9c-18.3,1.1-34.8,7.7-43.2,17.2c-3.9,4.4-5.8,9.2-5.4,14l7.4,114.5
		l52.3,25.2l48.6-31.5L1030,1038.8z"/>
	<path class="st3" d="M1477.1,946.6c-3,3.3-4.8,6.9-5.5,10.6c0.1,0.7,0.2,1.4,0.3,2.2l3.4,60c0.5,0.6,1,1.3,1.4,1.9
		c-0.3-5.2,1.6-10.5,5.5-15.3c7.9-9.6,22.7-16.3,39.6-18c20.6-2,39,4.3,47,14.8c0.1-1,0.3-2,0.6-3l-1.2-30.9l-0.7-13.1
		c-0.9-15.5-23.1-26.9-49.6-25.5C1500.8,931.3,1485.2,937.5,1477.1,946.6z"/>
	<path class="st3" d="M835.8,1159l50.4,25.7l47.2-30.9l-6.4-114.6c-0.9-15.5-23.5-26.9-50.4-25.5c-17.4,0.9-33.3,7.2-41.6,16.4
		c-4,4.5-6,9.4-5.7,14.3L835.8,1159z"/>
	<path class="st3" d="M1573.8,991.6c8.1-10.1,24.6-17.7,43.1-19.7c25.4-2.8,47.6,5.4,53.5,18.7l-3.3-28.7c-0.5-4.8,0-9.5,1.7-13.9
		c-8.5-9.5-27.1-15.8-48.4-15c-19.2,0.7-36.6,7.1-45.4,16.5c-3.9,4.2-5.9,8.9-5.7,13.5l1.3,33.5
		C1571.5,994.9,1572.5,993.2,1573.8,991.6z"/>
	<path class="st3" d="M1417.7,934.1c-18.7,1-35.6,7.6-44.1,17.1c-3.9,4.3-5.8,9.1-5.5,13.8l3.5,62.3c0.6-1,1.3-1.9,2-2.8
		c8.7-10.5,26.8-18.2,47.4-20.1c22.9-2.1,43.4,3.5,52.8,13.3l-3.3-58.2C1469.7,943.9,1445.9,932.6,1417.7,934.1z"/>
	<path class="st9" d="M1417.6,932.7c-19.1,1-36.3,7.7-45.1,17.5c-4.1,4.6-6.1,9.7-5.9,14.8l3.6,64.3l0,0.2c-0.3,0.5-0.5,1.1-0.7,1.6
		c-0.2,0.5-0.3,1-0.5,1.5c-0.2-0.5-0.3-1-0.5-1.4c-5.7-13.5-29.5-22.1-56.9-19.7c-20.6,1.8-38.9,9.4-47.7,19.9c-0.8,1-1.5,2-2.1,3
		c-0.9,1.4-1.6,2.9-2.1,4.4l-0.1-0.6c-0.1-1.2-0.4-2.5-0.8-3.6c-4.9-14.2-30.7-23.5-60.9-21.1c-22.7,1.8-42.5,9.6-51.7,20.5
		c-1.6,1.9-2.9,3.9-3.7,5.9l-0.1-0.7c-1.1-16.2-26.8-27.8-57.4-25.9c-20.6,1.3-38.9,8.5-47.9,18.7c-3.7,4.2-5.5,8.7-5.5,13.2
		l-0.4-6.3c-1.1-16.2-25.2-28-53.7-26.2c-18.6,1.2-35.5,7.9-44.1,17.7c-2.5,2.9-4.3,6-5.2,9.1l0-0.2c-0.9-16.2-24.2-28.2-51.9-26.8
		c-1.5,0.1-3,0.2-4.5,0.4c-1.9,0.2-3.7,0.4-5.5,0.8c-13.7,2.4-25.7,8.1-32.6,15.7c-4.2,4.7-6.3,10-6,15.3l5.1,92.3l1.3,22.7
		c0,0.2,0.2,0.5,0.4,0.6l1.5,0.8l49.6,25.3c0.1,0.1,0.2,0.1,0.3,0.1c0.1,0,0.3,0,0.4-0.1l47.9-31.4c0.2-0.1,0.3-0.4,0.3-0.6
		l-0.1-2.6l0.6,8.6c0,0.2,0.2,0.5,0.4,0.6l53,25.6c0.1,0,0.2,0.1,0.3,0.1c0.1,0,0.3,0,0.4-0.1l49.3-31.9c0.2-0.1,0.3-0.4,0.3-0.6
		l-1.7-26.8l-0.4-5.6l-3.6-55.9l3.8,55.9l0.4,5.6l2.3,34.1c0,0.3,0.2,0.5,0.4,0.6l56.6,25.2c0.1,0,0.2,0.1,0.3,0.1
		c0.1,0,0.3,0,0.4-0.1l52.7-32.2c0.1-0.1,0.1-0.1,0.2-0.2l0.7,7.9c0,0.3,0.2,0.5,0.4,0.6l60.9,24.1c0.1,0,0.2,0,0.3,0
		c0.1,0,0.2,0,0.4-0.1l55.9-33.1l0.6,6.7c0,0.3,0.2,0.5,0.4,0.6l57.4,23.9c0.1,0,0.2,0.1,0.3,0.1c0.1,0,0.3,0,0.4-0.1l51.9-33.2
		l0.2,1.9c0,0.3,0.2,0.5,0.4,0.6l57.5,23.6c0.1,0,0.2,0.1,0.3,0.1c0.1,0,0.3,0,0.4-0.1l51.8-33.7c0.2-0.1,0.3-0.4,0.3-0.6l-0.5-5.4
		l48.7,23.4c0.1,0,0.2,0.1,0.3,0.1c0.1,0,0.3,0,0.4-0.1l44.5-33.2c0.2-0.1,0.3-0.4,0.3-0.6l-0.5-4.9l52.6,22.4
		c0.1,0,0.2,0.1,0.3,0.1c0.1,0,0.3,0,0.4-0.1l47.5-34.2c0.2-0.1,0.3-0.4,0.3-0.6l-2.7-23.8l-0.6-5.6l-0.4-3.4l3.3,2.7l5.4,4.4
		l21.7,17.9c0.1,0.1,0.3,0.2,0.4,0.2c0,0,0.1,0,0.1,0c0.2,0,0.4-0.1,0.5-0.3l14.8-19.1l5.3-6.8l4.4-5.7c0.1-0.1,0.2-0.3,0.1-0.5
		l-13.1-114.4c-1.8-16.2-16.1-27.9-31.8-26.2c-7.4,0.8-14.1,4.5-18.8,10.4c-1.7,2.1-3,4.3-4,6.7c-9-9.6-27.7-15.8-49-15
		c-19.6,0.7-37.3,7.2-46.3,17c-2.4,2.6-4.1,5.4-5.1,8.3l-0.1-1.1c-0.9-16.2-23.8-28.2-51.1-26.8c-17.3,0.9-33.3,7.3-41.7,16.7
		c-2.5,2.8-4.2,5.8-5.2,8.8c-3.4-9.3-14.7-16.6-29.7-19.9C1434,933,1426,932.3,1417.6,932.7z M1470.5,959.4l3.3,58.2
		c-9.4-9.8-29.9-15.4-52.8-13.3c-20.6,1.9-38.7,9.6-47.4,20.1c-0.8,0.9-1.4,1.9-2,2.8l-3.5-62.3c-0.3-4.7,1.6-9.4,5.5-13.8
		c8.5-9.5,25.4-16.1,44.1-17.1C1445.9,932.6,1469.7,943.9,1470.5,959.4z M1567.5,955.8l0.7,13.1l1.2,30.9c-0.3,1-0.5,2-0.6,3
		c-7.9-10.5-26.3-16.8-47-14.8c-16.9,1.6-31.7,8.3-39.6,18c-4,4.8-5.8,10.1-5.5,15.3c-0.4-0.7-0.9-1.3-1.4-1.9l-3.4-60
		c0-0.7-0.1-1.4-0.3-2.2c0.6-3.7,2.5-7.3,5.5-10.6c8.1-9.1,23.7-15.3,40.7-16.2C1544.3,928.9,1566.6,940.3,1567.5,955.8z
		 M1569.4,963c-0.2-4.6,1.8-9.3,5.7-13.5c8.8-9.5,26.2-15.8,45.4-16.5c21.3-0.8,39.9,5.4,48.4,15c-1.6,4.4-2.2,9.1-1.7,13.9
		l3.3,28.7c-5.8-13.3-28.1-21.4-53.5-18.7c-18.5,2-35,9.6-43.1,19.7c-1.3,1.6-2.3,3.3-3.1,5L1569.4,963z M1692.3,930.8
		c14.9-1.6,28.5,9.6,30.2,25l13,114.2l-23.8,30.9l-30.2-24.9l-13-114.2c-0.9-7.6,1.2-15.1,5.9-21
		C1678.9,935.1,1685.3,931.6,1692.3,930.8z M1582.9,1127.1l-43.8,32.7l-49.1-23.6l-10.6-107.6c-0.1-1.3-0.4-2.5-0.9-3.8l-0.3-3
		c-0.5-5,1.3-10.2,5.2-15c7.6-9.2,22.4-15.9,38.7-17.5c21.1-2,39.8,4.7,46.7,15.7c0,0.6,0,1.2,0.1,1.8l13.1,114.4
		c0,0.2,0.2,0.5,0.4,0.6l0.1,0L1582.9,1127.1z M1489.1,1142.9l-51.2,33.3l-56.8-23.3l-11.3-114.2c-0.4-4.5,1.2-9,4.8-13.4
		c8.4-10.2,26.2-17.7,46.5-19.6c29.8-2.8,55.2,7.5,56.7,23L1489.1,1142.9z M1267.9,1152.5l-55.5,32.9l-60.2-23.8l-7.1-84.5
		l-2.3-33.6c0.6-3,2.1-5.9,4.5-8.8c8.8-10.4,28.8-18.2,50.8-20c31.9-2.5,58.9,8,60.2,23.5L1267.9,1152.5z M1148.9,1153.5l-52.1,31.8
		l-55.9-24.9l-7.7-114.5c-0.3-4.5,1.4-9,5.2-13.2c8.7-10,26.7-17,46.9-18.3c29.8-1.9,54.8,9.1,55.9,24.6L1148.9,1153.5z
		 M936.6,1159.6l-7.4-114.5c-0.3-4.7,1.6-9.6,5.4-14c8.3-9.5,24.9-16.1,43.2-17.2c27.8-1.7,51.3,9.5,52.3,24.9l7.4,114.5l-48.6,31.5
		L936.6,1159.6z M829.4,1044.4c-0.3-4.9,1.7-9.8,5.7-14.3c8.2-9.2,24.2-15.5,41.6-16.4c26.9-1.4,49.5,10,50.4,25.5l6.4,114.6
		l-47.2,30.9l-50.4-25.7L829.4,1044.4z M1261.3,1057.4l-1.1-13.6c0.1-3.9,1.7-7.8,4.9-11.6c8.5-10.2,26.4-17.6,46.7-19.4
		c29.9-2.6,55.3,7.8,56.7,23.3l0,0.3c0,0.8-0.1,1.6,0,2.4l2.5,25.2l7.9,86.4l-51.5,33l-56.7-23.6L1261.3,1057.4z M1570.2,1006.7
		c-0.5-4.7,1.1-9.6,4.8-14.2c7.9-9.8,24-17.2,42.2-19.2c27.6-3,51.6,7,53.3,22.4l13,114l-46.9,33.7l-53.3-22.7L1570.2,1006.7z"/>
	<path class="st3" d="M1581.9,1121.3l-13.1-114.4c-0.1-0.6-0.1-1.2-0.1-1.8c-6.9-11-25.6-17.7-46.7-15.7
		c-16.3,1.6-31.1,8.3-38.7,17.5c-3.9,4.7-5.7,9.9-5.2,15l0.3,3c0.4,1.2,0.7,2.5,0.9,3.8l10.6,107.6l49.1,23.6l43.8-32.7l-0.5-5.3
		l-0.1,0C1582,1121.7,1581.9,1121.5,1581.9,1121.3z"/>
	<path class="st3" d="M1636.5,1143.4l46.9-33.7l-13-114c-1.8-15.4-25.7-25.5-53.3-22.4c-18.1,2-34.3,9.3-42.2,19.2
		c-3.7,4.6-5.3,9.5-4.8,14.2l13,114L1636.5,1143.4z"/>
	<path class="st3" d="M1477.9,1028.7c-1.5-15.4-27-25.7-56.7-23c-20.2,1.9-38,9.4-46.5,19.6c-3.6,4.4-5.2,8.9-4.8,13.4l11.3,114.2
		l56.8,23.3l51.2-33.3L1477.9,1028.7z"/>
	<path class="st6" d="M849.1,750.5l65.8,22.4l-1.2-12c0-0.3,0.1-0.5,0.3-0.7l63.7-38.5c0.2-0.1,0.4-0.1,0.6-0.1l70.1,25.7
		c0.2,0.1,0.4,0.3,0.4,0.6l64.6-38.7c0.2-0.1,0.4-0.1,0.6-0.1l72.7,25.8c0.3,0.1,0.4,0.3,0.5,0.6l0.3,2.7l66-38.3
		c0.2-0.1,0.4-0.1,0.6-0.1l72.6,23.5l-0.1-0.8c0-0.3,0.1-0.5,0.3-0.7l66.6-41.9c0.2-0.1,0.4-0.1,0.6-0.1l73.4,25.5l-0.3-2.4
		c0-0.3,0.1-0.5,0.3-0.7l58.1-42.1c0.2-0.1,0.4-0.2,0.7-0.1l67.4,25.6c0,0,0.1,0,0.1,0.1l-1.6-11.2c0-0.2,0-0.4,0.2-0.6l36.1-39.6
		c0.2-0.2,0.6-0.3,0.9-0.1l33.1,20.2l-11.9-75.5c-16.7,15.6-82.7,34.1-136.7,47.2c-80.4,19.5-185.4,39.4-295.8,56
		c-117.9,17.8-229.4,30.1-314.1,34.7c-23.3,1.3-43.8,1.9-61.4,1.9c-13.6,0-25.5-0.4-35.6-1.1c-15.9-1.2-26.7-3.2-33-6.3l11.2,71
		l63.4-31.8C848.7,750.4,848.9,750.4,849.1,750.5z"/>
	<path d="M1599.1,722.2l6.9,50.6c0.1,0,0.3-0.1,0.4-0.1L1599.1,722.2z"/>
	<path d="M923,853.6l2,27.9c0.2,0,0.5,0,0.8,0L923,853.6z"/>
	<path d="M1479.2,789.9l1.7,14.1c0.1,0,0.2,0,0.3-0.1L1479.2,789.9z"/>
	<path class="st6" d="M903.6,711.2c84.5-4.5,195.8-16.8,313.6-34.6c110.3-16.6,215.1-36.5,295.4-55.9c78-18.9,127.5-36.2,135.8-47.6
		c0.5-0.7,1-1.6,0.9-2.4c-0.2-1.5-6-14.9-131-8.2c-84.5,4.5-195.8,16.8-313.6,34.6c-250,37.7-415.6,82.3-431.1,103.5
		c-0.5,0.7-1,1.6-0.9,2.4C772.9,704.6,778.6,717.9,903.6,711.2z"/>
	<path class="st4" d="M925.7,881.4c-0.2,0-0.5,0-0.8,0l0.2,2.3c0.1,1.1,0,2.2-0.2,3.3c0.4,0,0.9,0,1.3-0.1L925.7,881.4z"/>
	<path class="st4" d="M1481.1,804c-0.1,0-0.2,0-0.3,0.1l0.7,5.5c0.1,0,0.2-0.1,0.4-0.1L1481.1,804z"/>
	<path class="st4" d="M1606.4,772.7c-0.1,0-0.3,0.1-0.4,0.1l0.8,5.6c0.1,0,0.3-0.1,0.4-0.1L1606.4,772.7z"/>
	<path class="st3" d="M1668.5,961.7l13,114.2l30.2,24.9l23.8-30.9l-13-114.2c-1.8-15.4-15.3-26.6-30.2-25
		c-7.1,0.8-13.4,4.3-17.9,9.9C1669.7,946.6,1667.6,954.1,1668.5,961.7z"/>
	<path class="st3" d="M1339.2,829.1l-12.4-104.3l-72.9-23.6l-66.3,38.5l8.1,78.2l5.3,48.1c1.9,17.1,34.9,27.6,73.7,23.4
		c27.8-3,52.3-12.9,62.3-25.4c3.5-4.3,5-8.7,4.5-13L1339.2,829.1z"/>
	<path class="st3" d="M1194.5,880.3c3.8-4.6,5.5-9.4,5-14l-13.6-130.2l-72-25.6l-64.9,38.9l10.4,104.1l2.7,26.3
		c1.8,17.6,34.1,28.9,72,25.2C1160.7,902.3,1184.4,892.6,1194.5,880.3z"/>
	<path class="st3" d="M1055.3,890.4c3.8-4.6,5.5-9.3,5-14l-12.8-127.9L978.1,723l-63,38.1l1.2,12.1l0.4,0.1c0.3,0.1,0.4,0.3,0.5,0.6
		l2.1,28.4l8.7,86.7c1.7,17.3,32.9,28.6,69.4,25C1022.7,911.7,1045.5,902.4,1055.3,890.4z"/>
	<path class="st3" d="M915.8,774.6l-66.9-22.7L786,783.4l8,109.2c1.1,14.7,31.1,24.8,66.9,22.3c26.4-1.8,49.5-9.9,58.8-20.7
		c3-3.4,4.4-6.9,4.1-10.4L915.8,774.6z"/>
	<path class="st8" d="M506.7,1129.6c19.6-27,39.2-66.1,58.6-116.6h-31.7c-7.1,0-12.9-5.8-12.9-12.9v-40.4c0-7.1,5.8-12.9,12.9-12.9
		h31.7c-19.4-50.5-39-89.6-58.6-116.6c-19.5-26.9-38.8-41.2-55.8-41.2c-0.1,0-0.1,0-0.2,0c-17,0.1-31.6,14.9-40.1,40.5
		c-15.5,46.8-6.5,116.7,35,148.1c0.7,0.5,1.1,1.3,1.1,2.2c0,0.9-0.4,1.7-1.1,2.2c-41.5,31.4-50.5,101.3-35,148.1
		c8.5,25.6,23.1,40.4,40.1,40.5c0.1,0,0.1,0,0.2,0C467.9,1170.8,487.2,1156.5,506.7,1129.6z"/>
	<path class="st3" d="M1469,716.1l-1.3-9.3l-73.8-25.6l-66,41.5l16,135.2c2.2,18.3,35.3,29.7,73.9,25.3c26.8-3,50.8-13.3,61-26.2
		c3.9-5,5.6-10,5-14.9L1469,716.1z"/>
	<path class="st3" d="M1592.8,686.8l-66.7-25.3l-57.5,41.6l18.5,134.9c2.5,18.3,32.4,29.5,66.6,25c22.9-3,43-12.5,52.4-24.8
		c4.1-5.4,5.9-11.1,5.2-16.5L1592.8,686.8z"/>
	<path class="st3" d="M1629.1,635.7l-35.5,38.9l19.6,134.8c2.7,18.3,22.9,30.6,45.2,27.4c12.1-1.7,22.9-7.7,29.4-16.5
		c5-6.7,7.2-14.6,6.1-22.3l-19.6-134.8L1629.1,635.7z"/>
	<path class="st9" d="M1662.4,654.4l-33.1-20.2c-0.3-0.2-0.6-0.1-0.9,0.1l-36.1,39.6c-0.1,0.2-0.2,0.4-0.2,0.6l1.6,11.2
		c0,0,0,0-0.1-0.1l-67.4-25.6c-0.2-0.1-0.5-0.1-0.7,0.1l-58.1,42.1c-0.2,0.2-0.3,0.4-0.3,0.7l0.3,2.4l-73.4-25.5
		c-0.2-0.1-0.4,0-0.6,0.1l-66.6,41.9c-0.2,0.1-0.4,0.4-0.3,0.7l0.1,0.8l-72.6-23.5c-0.2-0.1-0.4,0-0.6,0.1l-66,38.3l-0.3-2.7
		c0-0.3-0.2-0.5-0.5-0.6l-72.7-25.8c-0.2-0.1-0.4,0-0.6,0.1l-64.6,38.7c0-0.3-0.2-0.5-0.4-0.6l-70.1-25.7c-0.2-0.1-0.4-0.1-0.6,0.1
		L914,760.2c-0.2,0.1-0.4,0.4-0.3,0.7l1.2,12l-65.8-22.4c-0.2-0.1-0.4,0-0.5,0l-63.4,31.8l-0.1,0.1c-0.3,0.1-0.4,0.4-0.4,0.7
		l4.3,58.6l3.7,51.1c1,14,26.1,24,57.8,24c2.8,0,5.6-0.1,8.4-0.3c0.7,0,1.4-0.1,2.1-0.1c1.2-0.1,2.3-0.2,3.5-0.3
		c25.3-2.3,47.1-10.3,56.3-20.9c2.3-2.7,3.7-5.4,4.2-8.2c0.2-1.1,0.3-2.2,0.2-3.3l-0.2-2.3l-2-27.9l2.8,27.8l0.6,5.5l0.2,2.3
		c1.6,15.9,26.4,26.9,57.6,26.9c4.3,0,8.7-0.2,13.2-0.6c26.2-2.5,48.8-11.8,59-24.3c2.4-3,4-6,4.8-9c3.8,14.8,28.2,24.8,58.8,24.8
		c4.6,0,9.4-0.2,14.3-0.7c26.9-2.7,50.9-12.5,61.3-25.2c3-3.6,4.7-7.4,5.2-11.1c5.2,13.1,28.5,21.6,57.7,21.6
		c5.3,0,10.9-0.3,16.6-0.9c28.2-3,53-13.2,63.2-25.9c2.1-2.7,3.6-5.4,4.3-8l0.1,1.2c1.9,16.4,27.1,27.4,59.1,27.4
		c5.3,0,10.8-0.3,16.3-0.9c13.6-1.5,26.7-4.9,37.7-9.7c10.8-4.7,19.1-10.6,24.2-17c4.2-5.3,6-10.6,5.3-16l-3.8-32.4l-0.7-5.5
		l-1.7-14.1l1.9,14.1l0.8,5.5l4,28.8c1,7.3,6.1,13.4,13.9,18.1c9.7,5.7,23.6,9.1,39.2,9.1c4.9,0,9.9-0.3,15.1-1
		c23.3-3.1,43.7-12.8,53.3-25.3c4.3-5.7,6.2-11.8,5.4-17.5l-5.9-43.1l-0.8-5.6l-6.9-50.6l7.3,50.5l0.8,5.6l4.6,31.3
		c2.5,17,19.6,29.1,39.6,29.1c2.3,0,4.7-0.2,7.1-0.5c12.5-1.8,23.5-8,30.4-17c5.3-7,7.5-15.3,6.4-23.3l-19.6-135.2
		c0-0.2-0.1-0.4-0.3-0.5l-6.6-4L1662.4,654.4z M1606.2,838.2c-9.4,12.3-29.4,21.8-52.4,24.8c-34.2,4.5-64.1-6.7-66.6-25l-18.5-134.9
		l57.5-41.6l66.7,25.3l18.5,134.9C1612.1,827.1,1610.3,832.8,1606.2,838.2z M1478.9,857c-10.2,12.9-34.1,23.2-61,26.2
		c-38.6,4.4-71.7-7-73.9-25.3l-16-135.2l66-41.5l73.8,25.6l1.3,9.3l14.9,126C1484.5,847,1482.8,852.1,1478.9,857z M1337.1,864
		c-10,12.5-34.5,22.4-62.3,25.4c-38.7,4.1-71.8-6.4-73.7-23.4l-5.3-48.1l-8.1-78.2l66.3-38.5l72.9,23.6l12.4,104.3l2.4,21.9
		C1342.1,855.3,1340.6,859.7,1337.1,864z M1062.2,879.8l-2.7-26.3L1049,749.4l64.9-38.9l72,25.6l13.6,130.2c0.5,4.7-1.2,9.4-5,14
		c-10.1,12.4-33.8,22.1-60.3,24.7C1096.3,908.7,1064,897.4,1062.2,879.8z M927.9,889.1l-8.7-86.7l-2.1-28.4c0-0.3-0.2-0.5-0.5-0.6
		l-0.4-0.1l-1.2-12.1l63-38.1l69.4,25.4l12.8,127.9c0.5,4.7-1.2,9.4-5,14c-9.9,12-32.6,21.3-58,23.8
		C960.8,917.7,929.6,906.4,927.9,889.1z M923.8,883.8c0.3,3.5-1.1,7-4.1,10.4c-9.4,10.8-32.5,18.9-58.8,20.7
		c-35.8,2.4-65.8-7.6-66.9-22.3l-8-109.2l62.9-31.5l66.9,22.7L923.8,883.8z M1687.7,820.3c-6.6,8.8-17.3,14.8-29.4,16.5
		c-22.3,3.1-42.5-9.2-45.2-27.4l-19.6-134.8l35.5-38.9l45.2,27.5l19.6,134.8C1695,805.7,1692.8,813.6,1687.7,820.3z"/>
	<path class="st8" d="M714.3,1007.5c4,0,7.3-3.3,7.3-7.3v-40.4c0-2-0.8-3.8-2.1-5.2c-1.4-1.4-3.2-2.1-5.2-2.1H533.6
		c-4,0-7.3,3.3-7.3,7.3v40.4c0,4,3.3,7.3,7.3,7.3H714.3z"/>
</g>
</svg>
