<svg width="2521" height="2911" viewBox="0 0 2521 2911" fill="none" xmlns="http://www.w3.org/2000/svg">
<g clip-path="url(#clip0_164_82)">
<mask id="mask0_164_82" style="mask-type:alpha" maskUnits="userSpaceOnUse" x="0" y="0" width="2521" height="2911">
<path d="M2420.5 669.8L1467.4 119.4L1260.5 0L1053.6 119.4L100.5 669.8L0 727.7V2183.2L100.5 2241.2L1065.6 2798.4L1260.8 2910.9L1456 2798.4L2421.1 2241.2L2520.9 2183.6V727.7L2420.5 669.8Z" fill="#0E3F86"/>
</mask>
<g mask="url(#mask0_164_82)">
<path d="M899.493 2917.11L1606.56 1795.75L-680.089 -2289.66L-1450.38 -1909.39L-1450.38 1542.29L899.493 2917.11Z" fill="#196CDA"/>
<path d="M2767.85 1095.69L1261 1094.87L-1279.99 5500.29L-517.239 5968.23L2747.44 4063.83L2767.85 1095.69Z" fill="#508DF4"/>
<path d="M856 3186.5L1668.5 1696L728.5 1735.5L239 2664.5L856 3186.5Z" fill="#196CDA"/>
<path d="M-237 -102.64L900.328 1772L1374.5 1169L1092.43 1007.44L292.585 -472L-237 -102.64Z" fill="#0E3F86"/>
<path d="M375 -18.1714L1050.42 1095L5194 1115V346.221L2507.89 -1218L375 -18.1714Z" fill="#0E3F86"/>
</g>
<path d="M1641 1530.5C1641 1740.64 1470.64 1911 1260.5 1911C1050.36 1911 880 1740.64 880 1530.5C880 1320.36 1050.36 1150 1260.5 1150C1470.64 1150 1641 1320.36 1641 1530.5Z" fill="#0E3F86" stroke="white" stroke-width="110"/>
<path d="M545.726 821.898C545.726 804.076 547.865 788.927 552.142 776.452C556.538 763.976 562.42 753.877 569.786 746.154C577.272 738.312 586.005 732.609 595.985 729.044C605.966 725.48 616.599 723.698 627.887 723.698C636.56 723.698 644.343 724.292 651.234 725.48C658.125 726.549 664.007 727.737 668.878 729.044C674.581 730.589 679.512 732.312 683.671 734.213V763.441C679.631 763.085 675.235 762.669 670.482 762.194C666.442 761.956 661.868 761.719 656.759 761.481C651.65 761.125 646.303 760.946 640.719 760.946C631.808 760.946 624.144 761.719 617.728 763.263C611.312 764.808 606.084 767.778 602.045 772.174C598.005 776.452 595.035 782.571 593.133 790.531C591.232 798.373 590.282 808.71 590.282 821.542C590.282 834.612 591.351 845.186 593.49 853.266C595.747 861.345 599.134 867.642 603.649 872.157C608.164 876.553 613.807 879.524 620.58 881.068C627.352 882.494 635.372 883.207 644.64 883.207C650.462 883.207 655.808 883.088 660.68 882.851C665.67 882.494 670.007 882.078 673.69 881.603C677.967 881.128 681.829 880.534 685.275 879.821V909.406C681.473 911.544 676.839 913.445 671.373 915.109C666.739 916.535 660.918 917.842 653.907 919.03C646.897 920.218 638.699 920.812 629.313 920.812C617.788 920.812 606.916 919.208 596.698 916C586.599 912.911 577.747 907.564 570.143 899.96C562.657 892.356 556.717 882.257 552.32 869.662C547.924 856.949 545.726 841.028 545.726 821.898ZM723.421 639.042H765.66V737.064C771.957 734.688 778.73 732.49 785.978 730.47C792.156 728.807 799.225 727.262 807.186 725.836C815.265 724.411 823.583 723.698 832.137 723.698C840.692 723.698 848.415 724.648 855.306 726.549C862.316 728.332 868.198 731.599 872.95 736.352C877.822 740.985 881.564 747.342 884.178 755.421C886.792 763.382 888.099 773.6 888.099 786.076V916H845.682V791.244C845.682 786.254 845.326 781.917 844.613 778.234C843.9 774.432 842.355 771.343 839.979 768.966C837.722 766.471 834.395 764.63 829.999 763.441C825.721 762.253 820.018 761.659 812.889 761.659C807.186 761.659 801.542 762.016 795.958 762.729C790.493 763.441 785.502 764.214 780.987 765.045C775.641 765.996 770.532 767.065 765.66 768.253V916H723.421V639.042ZM939.613 727.975H976.148L978.643 748.471C987.911 742.411 998.307 737.421 1009.83 733.5C1021.36 729.579 1034.31 727.262 1048.68 726.549L1048.33 770.392C1033.48 770.63 1020.59 771.402 1009.65 772.709C998.842 773.897 989.574 776.036 981.851 779.125V916H939.613V727.975ZM1064.91 821.898C1064.91 805.977 1066.63 791.898 1070.08 779.66C1073.52 767.303 1078.87 756.907 1086.12 748.471C1093.49 740.035 1102.75 733.619 1113.92 729.223C1125.09 724.826 1138.46 722.628 1154.02 722.628C1169.59 722.628 1182.95 724.826 1194.12 729.223C1205.41 733.619 1214.68 740.035 1221.92 748.471C1229.17 756.907 1234.52 767.303 1237.96 779.66C1241.41 791.898 1243.13 805.977 1243.13 821.898C1243.13 837.82 1241.41 852.018 1237.96 864.494C1234.52 876.85 1229.17 887.247 1221.92 895.683C1214.68 904.118 1205.41 910.535 1194.12 914.931C1182.95 919.327 1169.59 921.525 1154.02 921.525C1138.46 921.525 1125.09 919.327 1113.92 914.931C1102.75 910.535 1093.49 904.118 1086.12 895.683C1078.87 887.247 1073.52 876.85 1070.08 864.494C1066.63 852.018 1064.91 837.82 1064.91 821.898ZM1154.02 885.702C1163.41 885.702 1171.01 884.336 1176.83 881.603C1182.66 878.751 1187.17 874.652 1190.38 869.306C1193.59 863.84 1195.73 857.187 1196.79 849.345C1197.98 841.384 1198.58 832.235 1198.58 821.898C1198.58 811.68 1197.98 802.65 1196.79 794.809C1195.73 786.848 1193.59 780.194 1190.38 774.848C1187.17 769.382 1182.66 765.283 1176.83 762.55C1171.01 759.699 1163.41 758.273 1154.02 758.273C1144.75 758.273 1137.21 759.699 1131.39 762.55C1125.57 765.283 1120.99 769.382 1117.66 774.848C1114.46 780.194 1112.26 786.848 1111.07 794.809C1110 802.65 1109.47 811.68 1109.47 821.898C1109.47 832.235 1110 841.384 1111.07 849.345C1112.26 857.187 1114.46 863.84 1117.66 869.306C1120.99 874.652 1125.57 878.751 1131.39 881.603C1137.21 884.336 1144.75 885.702 1154.02 885.702ZM1282.17 727.975H1313.18L1318.35 741.876C1325 738.312 1332.07 735.104 1339.56 732.252C1345.97 729.876 1353.22 727.678 1361.3 725.658C1369.5 723.638 1377.94 722.628 1386.61 722.628C1397.06 722.628 1405.68 724.292 1412.45 727.619C1419.34 730.945 1424.69 735.936 1428.49 742.589C1431.46 740.926 1435.32 738.965 1440.08 736.708C1444.83 734.451 1450.18 732.312 1456.12 730.292C1462.06 728.153 1468.59 726.371 1475.72 724.945C1482.85 723.401 1490.33 722.628 1498.18 722.628C1515.52 722.628 1528.18 727.559 1536.14 737.421C1544.22 747.164 1548.26 762.253 1548.26 782.689V916H1505.84V790.888C1505.84 785.185 1505.48 780.432 1504.77 776.63C1504.06 772.709 1502.69 769.56 1500.67 767.184C1498.65 764.689 1495.86 762.907 1492.3 761.837C1488.85 760.768 1484.28 760.233 1478.57 760.233C1474.06 760.233 1469.66 760.53 1465.38 761.125C1461.23 761.6 1457.24 762.253 1453.44 763.085C1449.76 763.917 1446.37 764.808 1443.28 765.758C1440.31 766.709 1437.76 767.541 1435.62 768.253C1435.98 771.343 1436.21 774.61 1436.33 778.056C1436.45 781.501 1436.51 784.293 1436.51 786.432V916H1394.27V790.888C1394.27 785.185 1393.86 780.432 1393.03 776.63C1392.31 772.709 1390.95 769.56 1388.93 767.184C1386.91 764.689 1384.17 762.907 1380.73 761.837C1377.4 760.768 1373.12 760.233 1367.9 760.233C1361.96 760.233 1356.37 760.709 1351.14 761.659C1346.03 762.491 1341.46 763.382 1337.42 764.333C1332.67 765.521 1328.33 766.828 1324.41 768.253V916H1282.17V727.975ZM1587.12 821.898C1587.12 805.977 1588.84 791.898 1592.29 779.66C1595.73 767.303 1601.08 756.907 1608.33 748.471C1615.69 740.035 1624.96 733.619 1636.13 729.223C1647.3 724.826 1660.66 722.628 1676.23 722.628C1691.79 722.628 1705.16 724.826 1716.33 729.223C1727.62 733.619 1736.88 740.035 1744.13 748.471C1751.38 756.907 1756.73 767.303 1760.17 779.66C1763.62 791.898 1765.34 805.977 1765.34 821.898C1765.34 837.82 1763.62 852.018 1760.17 864.494C1756.73 876.85 1751.38 887.247 1744.13 895.683C1736.88 904.118 1727.62 910.535 1716.33 914.931C1705.16 919.327 1691.79 921.525 1676.23 921.525C1660.66 921.525 1647.3 919.327 1636.13 914.931C1624.96 910.535 1615.69 904.118 1608.33 895.683C1601.08 887.247 1595.73 876.85 1592.29 864.494C1588.84 852.018 1587.12 837.82 1587.12 821.898ZM1676.23 885.702C1685.61 885.702 1693.22 884.336 1699.04 881.603C1704.86 878.751 1709.38 874.652 1712.59 869.306C1715.79 863.84 1717.93 857.187 1719 849.345C1720.19 841.384 1720.78 832.235 1720.78 821.898C1720.78 811.68 1720.19 802.65 1719 794.809C1717.93 786.848 1715.79 780.194 1712.59 774.848C1709.38 769.382 1704.86 765.283 1699.04 762.55C1693.22 759.699 1685.61 758.273 1676.23 758.273C1666.96 758.273 1659.42 759.699 1653.59 762.55C1647.77 765.283 1643.2 769.382 1639.87 774.848C1636.66 780.194 1634.46 786.848 1633.28 794.809C1632.21 802.65 1631.67 811.68 1631.67 821.898C1631.67 832.235 1632.21 841.384 1633.28 849.345C1634.46 857.187 1636.66 863.84 1639.87 869.306C1643.2 874.652 1647.77 878.751 1653.59 881.603C1659.42 884.336 1666.96 885.702 1676.23 885.702ZM1817.57 763.085H1789.76V727.975H1817.57V688.231L1859.8 678.786V727.975H1907.21V763.085H1859.8V864.137C1859.8 868.533 1860.1 872.157 1860.7 875.009C1861.41 877.86 1862.6 880.177 1864.26 881.959C1866.04 883.623 1868.48 884.811 1871.57 885.524C1874.78 886.118 1878.87 886.415 1883.86 886.415C1888.5 886.415 1892.66 886.356 1896.34 886.237C1900.14 885.999 1903.35 885.762 1905.96 885.524C1909.05 885.286 1911.79 884.989 1914.16 884.633V912.792C1910 914.455 1905.55 915.941 1900.8 917.248C1896.64 918.317 1891.77 919.267 1886.18 920.099C1880.6 921.05 1874.48 921.525 1867.82 921.525C1858.56 921.525 1850.72 920.634 1844.3 918.852C1838 917.069 1832.83 914.396 1828.79 910.832C1824.87 907.148 1822.02 902.574 1820.24 897.108C1818.46 891.524 1817.57 885.049 1817.57 877.682V763.085ZM1938.23 819.938C1938.23 800.333 1940.78 784.234 1945.89 771.64C1951 759.045 1957.77 749.124 1966.21 741.876C1974.65 734.629 1984.27 729.639 1995.08 726.906C2005.89 724.054 2017 722.628 2028.41 722.628C2042.79 722.628 2054.67 724.589 2064.05 728.51C2073.56 732.431 2081.1 737.956 2086.69 745.084C2092.27 752.095 2096.19 760.53 2098.45 770.392C2100.71 780.254 2101.84 791.125 2101.84 803.007C2101.84 808.591 2101.6 814.354 2101.13 820.294C2100.77 826.235 2100.23 832.354 2099.52 838.651H1981.72C1981.83 847.087 1982.73 854.216 1984.39 860.038C1986.17 865.741 1989.02 870.434 1992.94 874.118C1996.98 877.682 2002.27 880.296 2008.81 881.959C2015.46 883.504 2023.72 884.276 2033.58 884.276C2041.9 884.276 2049.68 884.098 2056.93 883.742C2064.17 883.266 2070.53 882.732 2076 882.138C2082.41 881.544 2088.23 880.771 2093.46 879.821V909.406C2087.4 911.663 2080.81 913.683 2073.68 915.465C2067.62 917.01 2060.55 918.376 2052.47 919.564C2044.39 920.871 2035.78 921.525 2026.63 921.525C2012.61 921.525 2000.13 919.743 1989.2 916.178C1978.27 912.733 1969 907.029 1961.4 899.069C1953.91 890.989 1948.15 880.474 1944.11 867.523C1940.19 854.573 1938.23 838.711 1938.23 819.938ZM2062.81 806.928V800.155C2062.81 793.026 2062.33 786.848 2061.38 781.62C2060.55 776.273 2058.77 771.877 2056.03 768.432C2053.3 764.986 2049.44 762.431 2044.45 760.768C2039.46 759.105 2032.81 758.273 2024.49 758.273C2015.58 758.273 2008.27 759.342 2002.57 761.481C1996.98 763.501 1992.59 766.59 1989.38 770.749C1986.29 774.788 1984.15 779.838 1982.96 785.897C1981.89 791.957 1981.36 798.967 1981.36 806.928H2062.81Z" fill="white"/>
</g>
<defs>
<clipPath id="clip0_164_82">
<rect width="2521" height="2911" fill="white"/>
</clipPath>
</defs>
</svg>
