<?xml version="1.0" encoding="utf-8"?>
<!-- Generator: Adobe Illustrator 24.2.0, SVG Export Plug-In . SVG Version: 6.00 Build 0)  -->
<svg version="1.1" id="Layer_6" xmlns="http://www.w3.org/2000/svg" xmlns:xlink="http://www.w3.org/1999/xlink" x="0px" y="0px"
	 viewBox="0 0 735 852" style="enable-background:new 0 0 735 852;" xml:space="preserve">
<style type="text/css">
	.st0{fill:#016D0E;stroke:#00550C;stroke-miterlimit:10;}
	.st1{enable-background:new    ;}
	.st2{fill:#919191;}
	.st3{fill:#1ABF11;}
	.st4{fill:#016D0E;}
</style>
<g id="Layer_2">
	<path d="M11.9,216C130.3,148.6,248.6,81.1,367,13.7c119.3,68.9,238.7,137.7,358,206.6c0,136.3,0,272.6,0,409
		C607.1,698.1,489.2,767,371.3,835.8C251.5,767.9,131.7,700,11.9,632.1C11.9,493.4,11.9,354.7,11.9,216z"/>
</g>
<g id="Layer_1">
	<path class="st0" d="M705.6,196.2L427.8,35.8L367.5,1l-60.3,34.8L29.4,196.2L0.1,213.1v424.2l29.3,16.9l281.3,162.4l56.9,32.8
		l56.9-32.8l281.3-162.4l29.1-16.8V213.1L705.6,196.2z M715.7,627.4L367.5,828.4L19.3,627.4V225.1l51.5-29.8L367.5,24.1l295.8,170.8
		l52.4,30.3L715.7,627.4L715.7,627.4z"/>
	<g class="st1">
		<path class="st2" d="M546.7,708.3l1.7,0.8c-0.2,0.6-0.6,1.2-1,1.7c-0.5,0.6-1,1-1.7,1.4c-1.5,0.8-2.9,1.1-4.2,0.6
			c-1.3-0.4-2.5-1.4-3.3-2.9c-0.6-1-0.9-2-1-3c-0.1-1,0.1-1.9,0.6-2.8c0.5-0.9,1.2-1.6,2.1-2.1c1.3-0.7,2.6-1,4-0.8l-0.2,1.8
			c-1.1-0.1-2,0.1-2.8,0.6c-0.8,0.5-1.3,1.1-1.4,2c-0.1,0.8,0.1,1.8,0.8,3c0.7,1.1,1.4,1.8,2.1,2.1c0.8,0.3,1.6,0.2,2.4-0.3
			C545.5,710,546.2,709.3,546.7,708.3z"/>
		<path class="st2" d="M554.6,703.2c0.5,0.8,1.2,0.9,2.2,0.4c0.5-0.3,0.9-0.7,1.3-1.2l1.3,1.1c-0.5,0.7-1.2,1.4-2.2,2
			c-1,0.6-1.9,0.7-2.7,0.5s-1.5-0.8-2.1-1.8l-5.3-9.2l-2.9,1.7l-0.9-1.5l4.9-2.8L554.6,703.2z"/>
		<path class="st2" d="M564.9,689.4c1.3,0.5,2.4,1.5,3.3,3c0.9,1.6,1.2,3,1,4.4c-0.2,1.3-1,2.4-2.4,3.2c-1.4,0.8-2.7,1-4,0.5
			c-1.3-0.5-2.4-1.5-3.3-3c-0.9-1.5-1.2-3-1-4.3c0.2-1.4,1-2.4,2.4-3.2C562.3,689.1,563.7,688.9,564.9,689.4z M560.7,693.3
			c0,0.8,0.3,1.8,1,2.9c0.7,1.2,1.4,2,2.1,2.3c0.7,0.4,1.4,0.3,2.1-0.1c0.7-0.4,1.1-1,1.2-1.8s-0.3-1.8-1-3
			c-0.7-1.2-1.4-1.9-2.1-2.3c-0.7-0.4-1.4-0.3-2.1,0.1C561.1,691.9,560.7,692.5,560.7,693.3z"/>
		<path class="st2" d="M579.4,689.4l1.7,0.8c-0.2,0.6-0.6,1.2-1,1.7s-1,1-1.7,1.4c-1.5,0.8-2.9,1.1-4.2,0.6s-2.5-1.4-3.3-2.9
			c-0.6-1-0.9-2-1-3c-0.1-1,0.1-1.9,0.6-2.8c0.5-0.9,1.2-1.6,2.1-2.1c1.3-0.7,2.6-1,4-0.8l-0.2,1.8c-1.1-0.1-2,0.1-2.8,0.6
			c-0.8,0.5-1.3,1.1-1.4,2c-0.1,0.8,0.1,1.8,0.8,3c0.7,1.1,1.4,1.8,2.1,2.1c0.8,0.3,1.6,0.2,2.4-0.3
			C578.3,691.1,578.9,690.4,579.4,689.4z"/>
		<path class="st2" d="M578.8,674.5l7.9,13.7l-2,1.2l-7.8-13.5L578.8,674.5z M587.5,674.9l-1.4,6.5l7.3,2.8l-2.5,1.4l-7.2-2.9
			l1.3-6.6L587.5,674.9z"/>
		<path class="st2" d="M598.7,666.5c1.6,0.9,3.1,2.5,4.4,4.8c0.9,1.6,1.6,3,2,4.1c0.4,1.1,0.6,2,0.5,2.7s-0.5,1.3-1.3,1.7
			c-0.5,0.3-0.9,0.4-1.4,0.3c-0.5-0.1-0.9-0.3-1.3-0.6s-0.7-0.6-1-1l-0.1,0c0.1,0.6,0,1.2-0.2,1.8c-0.2,0.6-0.7,1-1.3,1.4
			c-1,0.6-1.9,0.6-2.8,0.1c-0.9-0.5-1.7-1.4-2.4-2.6c-0.9-1.6-1.3-2.9-1.1-4.1c0.2-1.2,0.8-2.1,2-2.8c0.9-0.5,2-0.8,3.2-0.9l3.1,5.4
			c0.5,0.8,0.9,1.3,1.3,1.5s0.7,0.2,1.1,0c0.3-0.2,0.4-0.5,0.3-1c-0.1-0.5-0.3-1.1-0.7-1.8c-0.4-0.7-1-1.8-1.7-3.2
			c-0.8-1.3-1.5-2.4-2.2-3.1s-1.5-1.2-2.3-1.4c-0.8-0.2-1.8,0-2.8,0.6c-0.7,0.4-1.3,0.9-1.8,1.5s-1,1.5-1.3,2.5l-1.6-0.6
			c0.8-2.3,2.1-3.9,3.9-5C595.2,665.8,597.1,665.6,598.7,666.5z M594.7,675.3c0,0.7,0.4,1.6,1.1,2.8c0.5,0.9,1,1.6,1.5,1.9
			s0.9,0.4,1.4,0.1c0.5-0.3,0.7-0.6,0.8-1s0-0.9-0.1-1.4l-2.6-4.4c-0.4,0-0.8,0.1-1.1,0.3C595,674.1,594.6,674.6,594.7,675.3z"/>
		<path class="st2" d="M612.9,661l1.7,3.7l-1.5,0.8l-1.1-2c-0.7,0.4-1.1,1-1.3,1.8c-0.2,0.8-0.2,1.8,0.1,2.9l2.1,3.6l1.9-1.1
			l0.8,1.5l-5.4,3.1l-0.8-1.5l1.4-0.8l-3.9-6.7l-1.4,0.8l-0.8-1.5l3-1.7l1.6,2c-0.1-1,0-1.9,0.3-2.6c0.3-0.7,0.9-1.3,1.7-1.8
			C611.8,661.3,612.4,661.1,612.9,661z"/>
		<path class="st2" d="M618.4,664.1l-1-1.7l7.5-4.3l1,1.7L618.4,664.1z"/>
		<path class="st2" d="M634.7,657.7c0.5,0.8,1.2,0.9,2.2,0.4c0.5-0.3,0.9-0.7,1.3-1.2l1.3,1.1c-0.5,0.8-1.2,1.4-2.2,2
			c-1,0.6-1.9,0.7-2.7,0.5c-0.9-0.2-1.5-0.8-2.1-1.8l-5.3-9.2l-2.9,1.7l-0.9-1.5l4.9-2.8L634.7,657.7z"/>
		<path class="st2" d="M639.7,639.7c0.4,0.1,0.7,0.3,0.9,0.7c0.2,0.4,0.3,0.7,0.2,1.1c-0.1,0.4-0.4,0.7-0.7,0.9
			c-0.4,0.2-0.8,0.3-1.2,0.2c-0.4-0.1-0.7-0.3-0.9-0.7c-0.2-0.4-0.3-0.8-0.2-1.1c0.1-0.4,0.4-0.7,0.7-0.9
			C638.9,639.7,639.3,639.6,639.7,639.7z M642.6,643.8l4.7,8.1l2.6-1.5l0.9,1.5l-7.5,4.3l-0.9-1.5l2.9-1.6l-3.8-6.6l-2.8,1.6
			l-0.9-1.5L642.6,643.8z"/>
		<path class="st2" d="M651.6,638.8c0.3-0.5,0.7-0.9,1.3-1.2c1.2-0.7,2.4-0.8,3.5-0.2c1.1,0.5,2.1,1.6,3,3.2
			c0.9,1.5,1.2,2.9,1.1,4.2c-0.1,1.3-0.8,2.3-2,3c-1.1,0.6-2.1,0.7-3.2,0.3l0.4,1l-1.8,1l-7.8-13.5l1.9-1.4l3,5.2
			C651.1,639.9,651.3,639.3,651.6,638.8z M658.1,644.8c0-0.8-0.3-1.8-1-2.9c-0.7-1.2-1.4-2-2-2.4c-0.7-0.4-1.3-0.4-2,0
			c-0.4,0.2-0.7,0.6-0.9,1c-0.2,0.5-0.3,1-0.3,1.5l2.6,4.5c0.9,0.5,1.8,0.5,2.5,0C657.7,646.1,658.1,645.5,658.1,644.8z"/>
		<path class="st2" d="M665.8,639.6c0.1-0.5,0.5-0.9,0.9-1.2c0.5-0.3,1-0.4,1.5-0.2s0.9,0.5,1.2,0.9c0.3,0.5,0.4,1,0.2,1.5
			c-0.1,0.5-0.5,0.9-1,1.2c-0.5,0.3-1,0.3-1.5,0.2c-0.5-0.1-0.9-0.5-1.2-1C665.7,640.6,665.6,640.1,665.8,639.6z"/>
		<path class="st2" d="M677.8,625c1.3,0.5,2.4,1.5,3.3,3c0.9,1.6,1.2,3,1,4.4c-0.2,1.4-1,2.4-2.4,3.2c-1.4,0.8-2.7,1-4,0.5
			s-2.4-1.5-3.3-3c-0.9-1.5-1.2-3-1-4.3c0.2-1.4,1-2.4,2.4-3.2C675.2,624.6,676.6,624.5,677.8,625z M673.6,628.8
			c0,0.8,0.3,1.8,1,2.9c0.7,1.2,1.4,2,2.1,2.3c0.7,0.4,1.4,0.3,2.1-0.1c0.7-0.4,1.1-1,1.2-1.8s-0.3-1.8-1-3
			c-0.7-1.2-1.4-1.9-2.1-2.3s-1.4-0.3-2.1,0.1C674,627.5,673.6,628.1,673.6,628.8z"/>
		<path class="st2" d="M689.3,616.9l1.7,3.7l-1.5,0.8l-1.1-2c-0.7,0.4-1.1,1-1.3,1.8c-0.2,0.8-0.2,1.8,0.1,2.9l2.1,3.6l1.9-1.1
			l0.8,1.5l-5.4,3.1l-0.8-1.5l1.4-0.8l-3.9-6.7L682,623l-0.8-1.5l3-1.7l1.6,2c-0.1-1,0-1.9,0.3-2.6c0.3-0.7,0.9-1.3,1.7-1.8
			C688.2,617.2,688.7,617,689.3,616.9z"/>
		<path class="st2" d="M700.9,610.8c-0.3,0.3-0.6,0.6-1,0.9c-0.4,0.3-0.9,0.6-1.6,1c0.7-0.1,1.4,0,1.9,0.2c0.5,0.2,0.9,0.6,1.3,1.2
			c0.4,0.6,0.5,1.3,0.5,1.9c0,0.7-0.2,1.3-0.7,1.9s-1,1.1-1.8,1.6c-0.5,0.3-1,0.5-1.4,0.6c-0.1,0.2-0.1,0.4-0.1,0.5s0.1,0.4,0.1,0.5
			c0.3,0.5,0.8,0.5,1.6,0l1.7-1c0.7-0.4,1.4-0.6,2-0.7c0.7-0.1,1.3,0,1.8,0.2c0.5,0.2,0.9,0.6,1.2,1.1c0.6,1,0.6,1.9,0.1,2.9
			c-0.5,1-1.6,2-3.1,2.8c-1.1,0.6-2,1-2.7,1.1c-0.8,0.1-1.4,0.1-1.9-0.2c-0.5-0.3-1-0.8-1.4-1.4l1.8-1c0.2,0.4,0.4,0.6,0.7,0.7
			c0.3,0.1,0.6,0.1,1,0c0.4-0.1,1-0.3,1.6-0.7c1-0.6,1.6-1.1,1.9-1.6c0.3-0.5,0.3-1,0-1.4c-0.2-0.4-0.6-0.6-1-0.6
			c-0.5,0-1,0.1-1.5,0.5l-1.7,1c-0.9,0.5-1.6,0.7-2.3,0.6c-0.6-0.1-1.1-0.4-1.4-0.9c-0.2-0.3-0.3-0.7-0.3-1.1c0-0.4,0.1-0.8,0.3-1.2
			c-0.7,0-1.4-0.1-1.9-0.4c-0.5-0.3-0.9-0.7-1.3-1.4c-0.4-0.7-0.6-1.4-0.5-2.1c0-0.7,0.3-1.4,0.7-2c0.4-0.6,1.1-1.2,1.8-1.6
			c1-0.6,1.8-1.1,2.4-1.7c0.5-0.5,1-1.1,1.5-1.9L700.9,610.8z M695.2,615.7c-0.1,0.5,0,1.1,0.3,1.7c0.4,0.6,0.8,1,1.3,1.2
			c0.5,0.2,1.1,0.1,1.8-0.3c0.6-0.4,1-0.8,1.1-1.3c0.1-0.5,0-1.1-0.4-1.8c-0.7-1.3-1.7-1.6-3-0.9
			C695.7,614.7,695.3,615.2,695.2,615.7z"/>
	</g>
</g>
<g id="Layer_5">
	<g id="blurred_letters">
		
			<image style="overflow:visible;" width="698" height="236" xlink:href="AF82ED455CD76A69.png"  transform="matrix(1 0 0 1 16 302)">
		</image>
	</g>
	<g id="crisp_letters">
		
			<image style="overflow:visible;opacity:0.75;" width="626" height="164" xlink:href="AF82ED455CD76A6F.png"  transform="matrix(1 0 0 1 52 338)">
		</image>
		<g>
			<g>
				<path class="st3" d="M68,404.1l-0.5-21.3l10.1-13.7l10.7,11.2l0.3,21.5l-10.9,10.7L68,404.1z M68.3,457.7l-0.2-25.5l9.1-11.1
					l12.1,11.6l0.3,26.4l-11.7,11.2L68.3,457.7z M91.5,353.9l35.4-0.3l12.2,10.2l-9.9,10.6l-38.7-0.2l-10.7-9.6L91.5,353.9z
					 M93.1,466.6l38.5-0.5l12.1,10.2l-9.9,10.6H92.1l-9.9-9.6L93.1,466.6z"/>
				<path class="st3" d="M194,404.1l-0.7-34.4l10.1-13.7l10.7,11.2l0.5,34.5l-10.9,10.7L194,404.1z M194.3,457.7l-0.2-25.5l9.1-11.1
					l12.1,11.6l0.3,26.4l-11.7,11.2L194.3,457.7z M219.1,466.6l38.5-0.5l12.1,10.2l-9.9,10.6h-41.7l-9.9-9.6L219.1,466.6z"/>
				<path class="st4" d="M320,404.1l-0.5-21.3l10.1-13.7l10.7,11.2l0.3,21.5l-10.9,10.7L320,404.1z M320.3,457.7l-0.2-25.5l9.1-11.1
					l12.1,11.6l0.3,26.4l-11.7,11.2L320.3,457.7z M343.5,353.9l35.4-0.3l12.2,10.2l-9.9,10.6l-38.7-0.2l-10.7-9.6L343.5,353.9z
					 M345.1,466.6l38.5-0.5l12.1,10.2l-9.9,10.6h-41.7l-9.9-9.6L345.1,466.6z M385.8,400.8l0.8-21.3l9.3-11.2l11.9,11.7l0.5,22.3
					l-9.8,11.1L385.8,400.8z M388.9,457.7l-0.2-25.5l9.1-11.1l12.1,11.6l0.3,22.3l-9.8,12.2L388.9,457.7z"/>
				<path class="st3" d="M446,404.1l-0.5-21.3l10.1-13.7l10.7,11.2l0.3,21.5l-10.9,10.7L446,404.1z M446.3,457.7l-0.2-25.5l9.1-11.1
					l12.1,11.6l0.3,26.4l-11.7,11.2L446.3,457.7z M469.5,353.9l35.4-0.3l12.2,10.2l-9.9,10.6l-38.7-0.2l-10.7-9.6L469.5,353.9z
					 M471.1,466.6l38.5-0.5l12.1,10.2l-9.9,10.6h-41.7l-9.9-9.6L471.1,466.6z"/>
				<path class="st3" d="M572,404.1l-0.7-34.5l10.1-13.7l10.7,11.2l0.5,34.7l-10.9,10.7L572,404.1z M572.5,472.5l-0.3-40.3l9.1-11.1
					l12.1,11.6l0.5,41.3l-11.6,11.2L572.5,472.5z M599.9,405.3h33.2l11.6,11.1l-9.4,11.6l-36.4-0.5L588.7,417L599.9,405.3z
					 M597.8,383.4l42.6-27.8l14.4-0.2l0.3,14.5l-43.8,28.6l-13.6,0.7V383.4z M641.6,477.3l-0.8-45.1l9.1-11.1l12.1,11.6l1,42
					l-9.6,12.2L641.6,477.3z"/>
				<path class="st3" d="M357.3,396.2h15.2v15.2h-15.2V396.2z M357.3,426.6h15.2v15.2h-15.2V426.6z"/>
			</g>
		</g>
	</g>
</g>
</svg>
