<?xml version="1.0" encoding="utf-8"?>
<!-- Generator: Adobe Illustrator 24.0.0, SVG Export Plug-In . SVG Version: 6.00 Build 0)  -->
<svg version="1.1" id="Layer_1" xmlns="http://www.w3.org/2000/svg" xmlns:xlink="http://www.w3.org/1999/xlink" x="0px" y="0px"
	 viewBox="0 0 735 852" style="enable-background:new 0 0 735 852;" xml:space="preserve">
<style type="text/css">
	.st0{fill:url(#SVGID_1_);}
	.st1{fill:#666666;}
	.st2{fill:#FFFFFF;}
	.st3{fill-rule:evenodd;clip-rule:evenodd;fill:#272727;}
	.st4{fill:none;stroke:#EFEFEF;stroke-width:4;stroke-linejoin:round;stroke-miterlimit:10;}
	.st5{fill-rule:evenodd;clip-rule:evenodd;fill:url(#SVGID_2_);}
	.st6{fill:none;stroke:#BF9000;stroke-width:4;stroke-linejoin:round;stroke-miterlimit:10;}
	.st7{fill-rule:evenodd;clip-rule:evenodd;fill:#999999;}
	.st8{fill:none;stroke:#666666;stroke-linejoin:round;stroke-miterlimit:10;}
	.st9{fill-rule:evenodd;clip-rule:evenodd;fill:#FFFFFF;}
	.st10{fill-rule:evenodd;clip-rule:evenodd;fill:#B7B7B7;}
	.st11{fill-rule:evenodd;clip-rule:evenodd;fill:#666666;}
	.st12{fill:none;stroke:#595959;stroke-linejoin:round;stroke-miterlimit:10;}
	.st13{fill-rule:evenodd;clip-rule:evenodd;fill:url(#SVGID_3_);}
	.st14{fill-rule:evenodd;clip-rule:evenodd;fill-opacity:0;}
	.st15{fill:none;stroke:#595959;stroke-width:8;stroke-linejoin:round;stroke-miterlimit:10;}
	.st16{fill:none;stroke:#FFFFFF;stroke-linejoin:round;stroke-miterlimit:10;}
	.st17{fill-rule:evenodd;clip-rule:evenodd;fill:url(#SVGID_4_);}
	.st18{fill:none;stroke:#CCCCCC;stroke-width:3;stroke-linejoin:round;stroke-miterlimit:10;}
	.st19{fill-rule:evenodd;clip-rule:evenodd;fill:#FF0000;}
	.st20{fill:none;stroke:#666666;stroke-width:2;stroke-linejoin:round;stroke-miterlimit:10;}
	.st21{fill-rule:evenodd;clip-rule:evenodd;fill:url(#SVGID_5_);}
	.st22{fill-rule:evenodd;clip-rule:evenodd;fill:url(#SVGID_6_);}
</style>
<g id="Layer_1_1_">
	<g id="Layer_2_1_">
	</g>
	<g>
		
			<radialGradient id="SVGID_1_" cx="365.4997" cy="416.5502" r="442.1299" gradientTransform="matrix(1 0 0 -1 0 854)" gradientUnits="userSpaceOnUse">
			<stop  offset="0" style="stop-color:#4D4D4D"/>
			<stop  offset="1" style="stop-color:#000000"/>
		</radialGradient>
		<polygon class="st0" points="705.6,231 367.5,35.8 367.5,35.8 29.4,231 29.4,621.5 367.5,816.7 705.6,621.5 		"/>
		<path class="st1" d="M734.9,637.4V213.1l-29.3-16.9L427.8,35.8L367.5,1l-60.3,34.8L29.4,196.2L0.1,213.1v424.3l29.3,16.9
			l281.3,162.4l56.9,32.8l56.9-32.8l281.3-162.4L734.9,637.4z M29.4,621.5V231L367.5,35.8l0,0L705.6,231v390.4L367.5,816.7
			L29.4,621.5z"/>
	</g>
	<g>
		<path class="st2" d="M365.5,797.3l4.5,4.5c1,1,1.9,1.9,2.7,2.9h0.1c-0.4-1.2-0.7-2.5-1-3.8l-1.4-6.3l1.6-0.9l4.7,4.3
			c1.1,1,2.1,2,2.9,2.9h0.1c-0.4-1.2-0.8-2.4-1.2-3.9l-1.6-6.1l1.9-1.1l2.7,12.4l-1.7,1l-4.5-4.1c-1-1-2-1.8-2.9-2.9l0,0
			c0.5,1.4,0.8,2.7,1.1,4l1.2,5.9l-1.7,1l-9.2-8.6L365.5,797.3z"/>
		<path class="st2" d="M381.7,787.9l4.5,4.5c1,1,1.9,1.9,2.7,2.9h0.1c-0.4-1.2-0.7-2.5-1-3.8l-1.4-6.3l1.6-0.9l4.7,4.3
			c1.1,1,2.1,2,2.9,2.9h0.1c-0.4-1.2-0.8-2.4-1.2-3.9l-1.6-6.1l1.9-1.1l2.7,12.4l-1.7,1l-4.5-4.1c-1-1-2-1.8-2.9-2.9l0,0
			c0.5,1.4,0.8,2.7,1.1,4l1.2,5.9l-1.7,1l-9.2-8.6L381.7,787.9z"/>
		<path class="st2" d="M397.8,778.5l4.5,4.5c1,1,1.9,1.9,2.7,2.9h0.1c-0.4-1.2-0.7-2.5-1-3.8l-1.4-6.3l1.6-0.9l4.7,4.3
			c1.1,1,2.1,2,2.9,2.9h0.1c-0.4-1.2-0.8-2.4-1.2-3.9l-1.6-6.1l1.9-1.1l2.7,12.4l-1.7,1l-4.5-4.1c-1-1-2-1.8-2.9-2.9l0,0
			c0.5,1.4,0.8,2.7,1.1,4l1.2,5.9l-1.7,1l-9.2-8.6L397.8,778.5z"/>
		<path class="st2" d="M417.1,779.7c-0.5-0.8-0.3-1.7,0.5-2.1c0.8-0.4,1.6-0.2,2.1,0.6s0.3,1.7-0.5,2.1
			C418.4,780.8,417.6,780.5,417.1,779.7z"/>
		<path class="st2" d="M418.5,770.8c-0.7-1.2-1.4-2.3-2-3.2l1.7-1l1.3,2h0.1c-0.3-1.7,0.3-3.2,1.6-4c0.2-0.1,0.4-0.2,0.6-0.2l1,1.8
			c-0.2,0.1-0.4,0.2-0.7,0.3c-1.3,0.8-1.7,2.3-1.1,3.9c0.1,0.3,0.2,0.6,0.4,0.9l3.2,5.6l-1.9,1.1L418.5,770.8z"/>
		<path class="st2" d="M428.4,772.1c0.8,0,2-0.2,2.9-0.7c1.4-0.8,1.6-1.9,1.1-2.7c-0.5-0.9-1.4-1.1-3.1-0.8
			c-2.3,0.4-3.8-0.1-4.5-1.4c-1-1.7-0.4-3.9,1.8-5.2c1.1-0.6,2.2-0.9,2.9-0.8l0.3,1.7c-0.6,0-1.5,0.1-2.5,0.6
			c-1.1,0.7-1.4,1.7-0.9,2.4c0.5,0.9,1.4,0.9,3,0.6c2.2-0.4,3.7,0,4.6,1.6c1.1,1.8,0.4,4-2.1,5.4c-1.1,0.7-2.4,1-3.4,1L428.4,772.1z
			"/>
		<path class="st2" d="M432.8,754.1l1.7,3l2.7-1.6l0.8,1.4l-2.7,1.6l3.3,5.6c0.8,1.3,1.6,1.8,2.6,1.2c0.5-0.3,0.8-0.6,1-0.8l0.9,1.4
			c-0.3,0.4-0.8,0.8-1.5,1.2c-0.9,0.5-1.8,0.6-2.5,0.4c-0.9-0.2-1.6-1.1-2.3-2.3l-3.3-5.7l-1.6,0.9l-0.8-1.4l1.6-0.9l-1.5-2.5
			L432.8,754.1z"/>
		<path class="st2" d="M452.6,756.8c0.6,1.1,1.2,2,1.7,2.8l-1.7,1l-1.1-1.6l0,0c0,1.1-0.5,2.9-2.3,4c-1.6,1-4.1,1.2-6.3-2.5
			l-3.6-6.1l1.9-1.1l3.4,5.8c1.2,2,2.5,3,4.3,2c1.3-0.7,1.6-2.1,1.5-3.2c-0.1-0.3-0.2-0.7-0.4-1.1l-3.7-6.4l1.9-1.1L452.6,756.8z"/>
		<path class="st2" d="M457.5,737.2l7.4,12.6c0.5,0.9,1.2,2,1.7,2.6l-1.7,1l-1.1-1.8l0,0c0.1,1.5-0.7,3.1-2.4,4.1
			c-2.5,1.5-5.7,0.5-7.6-2.7c-2-3.5-1.1-6.9,1.4-8.3c1.6-0.9,3.1-0.8,4.1-0.2l0,0l-3.6-6.2L457.5,737.2z M460.9,747.5
			c-0.1-0.2-0.3-0.6-0.6-0.8c-1-1-2.6-1.4-4-0.6c-2,1.1-2.1,3.6-0.8,5.9c1.2,2.1,3.3,3.3,5.3,2.1c1.3-0.7,1.9-2.3,1.5-3.9
			c-0.1-0.3-0.2-0.6-0.4-0.9L460.9,747.5z"/>
		<path class="st2" d="M463.9,736.1c0.4,0.6,0.2,1.4-0.5,1.9c-0.7,0.4-1.4,0.1-1.8-0.5c-0.4-0.7-0.2-1.5,0.5-1.9
			C462.7,735.2,463.5,735.4,463.9,736.1z M469.6,750.7l-6.1-10.5l1.9-1.1l6.1,10.5L469.6,750.7z"/>
		<path class="st2" d="M481,736.9c2.3,3.9,0.6,7.1-2,8.6c-2.8,1.6-6.2,0.8-8.1-2.5c-2-3.5-0.9-6.9,2-8.6
			C475.8,732.7,479.1,733.7,481,736.9z M472.8,741.9c1.3,2.3,3.7,3.2,5.5,2.2c1.8-1.1,2.2-3.6,0.8-5.9c-1-1.8-3.2-3.5-5.5-2.2
			C471.4,737.3,471.6,739.9,472.8,741.9z"/>
		<path class="st2" d="M484.9,740.3c-0.5-0.8-0.3-1.7,0.5-2.1c0.8-0.4,1.6-0.2,2.1,0.6s0.3,1.7-0.5,2.1
			C486.2,741.4,485.3,741.1,484.9,740.3z"/>
		<path class="st2" d="M497.7,733.8c-0.3,0.5-1.2,1.5-2.7,2.4c-3.2,1.8-6.4,0.9-8.3-2.3s-1-6.8,2.4-8.8c1.1-0.7,2.3-1,2.9-1l0.4,1.7
			c-0.6,0-1.5,0.2-2.5,0.8c-2.4,1.4-2.7,3.9-1.4,6.1c1.4,2.4,3.8,3,5.9,1.8c1.1-0.6,1.6-1.3,2-1.9L497.7,733.8z"/>
		<path class="st2" d="M506.4,722.2c2.3,3.9,0.6,7.1-2,8.6c-2.8,1.6-6.2,0.8-8.1-2.5c-2-3.5-0.9-6.9,2-8.6
			C501.2,718,504.5,719,506.4,722.2z M498.1,727.1c1.3,2.3,3.7,3.2,5.5,2.2c1.8-1.1,2.2-3.6,0.8-5.9c-1-1.8-3.2-3.5-5.5-2.2
			C496.7,722.5,497,725.1,498.1,727.1z"/>
		<path class="st2" d="M507.4,718.5c-0.6-1.1-1.2-2-1.7-2.8l1.7-1l1.1,1.6h0.1c0-1.3,0.4-2.8,2.2-3.8c1.4-0.8,3-0.6,4.2,0.4l0,0
			c0-0.8,0.1-1.5,0.4-2c0.3-0.8,0.9-1.5,1.9-2.1c1.4-0.8,4-1.1,6.1,2.5l3.6,6.2l-1.9,1.1l-3.4-5.9c-1.2-2-2.6-2.8-4.1-1.9
			c-1.1,0.6-1.5,1.9-1.2,3c0.1,0.3,0.2,0.7,0.4,1l3.8,6.5l-1.9,1.1l-3.6-6.3c-1-1.7-2.4-2.4-3.9-1.6c-1.2,0.7-1.5,2.1-1.2,3.3
			c0.1,0.3,0.2,0.7,0.4,1l3.7,6.3l-1.9,1.1L507.4,718.5z"/>
	</g>
	<g>
		<g>
			<g>
				<path class="st3" d="M110.4,266.1L110.4,266.1c0-7.2,5.9-13.1,13.1-13.1h486.8c3.5,0,6.8,1.4,9.2,3.8c2.5,2.5,3.8,5.8,3.8,9.2
					v328c0,7.2-5.9,13.1-13.1,13.1H123.5c-7.2,0-13.1-5.9-13.1-13.1V266.1z"/>
				<path class="st4" d="M110.4,266.1L110.4,266.1c0-7.2,5.9-13.1,13.1-13.1h486.8c3.5,0,6.8,1.4,9.2,3.8c2.5,2.5,3.8,5.8,3.8,9.2
					v328c0,7.2-5.9,13.1-13.1,13.1H123.5c-7.2,0-13.1-5.9-13.1-13.1V266.1z"/>
				
					<radialGradient id="SVGID_2_" cx="-1133.9554" cy="3645.7234" r="8.3642" gradientTransform="matrix(29.2431 0 0 29.2431 33526.2734 -106313.8047)" gradientUnits="userSpaceOnUse">
					<stop  offset="0" style="stop-color:#FFC002"/>
					<stop  offset="1" style="stop-color:#795B04"/>
				</radialGradient>
				<path class="st5" d="M122.8,279.6L122.8,279.6c0-5.2,4.2-9.4,9.4-9.4h467.3c2.5,0,4.9,1,6.7,2.8s2.8,4.2,2.8,6.7v37.6
					c0,5.2-4.2,9.4-9.4,9.4H132.2c-5.2,0-9.4-4.2-9.4-9.4L122.8,279.6z"/>
				<path class="st6" d="M122.8,279.6L122.8,279.6c0-5.2,4.2-9.4,9.4-9.4h467.3c2.5,0,4.9,1,6.7,2.8s2.8,4.2,2.8,6.7v37.6
					c0,5.2-4.2,9.4-9.4,9.4H132.2c-5.2,0-9.4-4.2-9.4-9.4L122.8,279.6z"/>
				<g>
					<g transform="matrix(1.0 0.0 0.0 1.0 1.0 0.0)">
						<g id="g5af0183294_0_0.3_3_">
							<path class="st7" d="M181.5,284.2L195,291v13.7l-13.6,6.8l-13.6-6.8V291L181.5,284.2z"/>
							<path class="st8" d="M181.5,284.2L195,291v13.7l-13.6,6.8l-13.6-6.8V291L181.5,284.2z"/>
						</g>
					</g>
				</g>
				<g id="g5af0183294_0_0.3_2_">
					<path class="st7" d="M181.2,284.2l13.6,6.8v13.7l-13.6,6.8l-13.6-6.8V291L181.2,284.2z"/>
					<path class="st8" d="M181.2,284.2l13.6,6.8v13.7l-13.6,6.8l-13.6-6.8V291L181.2,284.2z"/>
				</g>
				<g>
					<g transform="matrix(1.0 0.0 0.0 1.0 1.0 0.0)">
						<g id="g5af0183294_0_0.4_3_">
							<path class="st9" d="M181.5,285.4l12.4,6.2v12.5l-12.4,6.2l-12.4-6.2v-12.5L181.5,285.4z"/>
							<path class="st8" d="M181.5,285.4l12.4,6.2v12.5l-12.4,6.2l-12.4-6.2v-12.5L181.5,285.4z"/>
						</g>
					</g>
				</g>
				<g id="g5af0183294_0_0.4_2_">
					<path class="st9" d="M181.2,285.4l12.4,6.2v12.5l-12.4,6.2l-12.4-6.2v-12.5L181.2,285.4z"/>
					<path class="st8" d="M181.2,285.4l12.4,6.2v12.5l-12.4,6.2l-12.4-6.2v-12.5L181.2,285.4z"/>
				</g>
				<path class="st10" d="M171.7,297.8L171.7,297.8c0-5.2,4.2-9.5,9.4-9.5l0,0c2.5,0,4.9,1,6.7,2.8s2.8,4.2,2.8,6.7l0,0
					c0,5.2-4.2,9.5-9.4,9.5l0,0C176,307.3,171.7,303,171.7,297.8z"/>
				<path class="st8" d="M171.7,297.8L171.7,297.8c0-5.2,4.2-9.5,9.4-9.5l0,0c2.5,0,4.9,1,6.7,2.8s2.8,4.2,2.8,6.7l0,0
					c0,5.2-4.2,9.5-9.4,9.5l0,0C176,307.3,171.7,303,171.7,297.8z"/>
				<path class="st11" d="M173.8,297.8L173.8,297.8c0-4.1,3.3-7.4,7.4-7.4l0,0c2,0,3.8,0.8,5.2,2.2s2.2,3.3,2.2,5.2l0,0
					c0,4.1-3.3,7.4-7.4,7.4l0,0C177.1,305.2,173.8,301.9,173.8,297.8z"/>
				<path class="st8" d="M173.8,297.8L173.8,297.8c0-4.1,3.3-7.4,7.4-7.4l0,0c2,0,3.8,0.8,5.2,2.2s2.2,3.3,2.2,5.2l0,0
					c0,4.1-3.3,7.4-7.4,7.4l0,0C177.1,305.2,173.8,301.9,173.8,297.8z"/>
				<g>
					<g transform="matrix(1.0 0.0 0.0 1.0 8.0 0.0)">
						<g id="g5af0183294_0_0.5_5_">
							<path class="st11" d="M277.8,297.8L277.8,297.8c0-11.3,9.2-20.4,20.5-20.4l0,0c5.4,0,10.7,2.2,14.5,6c3.9,3.8,6,9,6,14.4l0,0
								c0,11.3-9.2,20.4-20.5,20.4l0,0C287,318.2,277.8,309.1,277.8,297.8z"/>
							<path class="st12" d="M277.8,297.8L277.8,297.8c0-11.3,9.2-20.4,20.5-20.4l0,0c5.4,0,10.7,2.2,14.5,6c3.9,3.8,6,9,6,14.4l0,0
								c0,11.3-9.2,20.4-20.5,20.4l0,0C287,318.2,277.8,309.1,277.8,297.8z"/>
						</g>
					</g>
				</g>
				<g>
					<g transform="matrix(1.0 0.0 0.0 1.0 8.0 0.0)">
						<g id="g5af0183294_0_0.6_5_">
							
								<radialGradient id="SVGID_3_" cx="-1044.3833" cy="3867.085" r="2.8047" gradientTransform="matrix(9.8061 0 0 9.8061 10539.8271 -37623.0234)" gradientUnits="userSpaceOnUse">
								<stop  offset="0" style="stop-color:#FFC002"/>
								<stop  offset="1" style="stop-color:#A79562"/>
							</radialGradient>
							<path class="st13" d="M279,298L279,298c0-10.7,8.7-19.4,19.5-19.4l0,0c5.2,0,10.1,2,13.8,5.7c3.7,3.6,5.7,8.6,5.7,13.7l0,0
								c0,10.7-8.7,19.4-19.5,19.4l0,0C287.7,317.4,279,308.7,279,298z"/>
							<path class="st12" d="M279,298L279,298c0-10.7,8.7-19.4,19.5-19.4l0,0c5.2,0,10.1,2,13.8,5.7c3.7,3.6,5.7,8.6,5.7,13.7l0,0
								c0,10.7-8.7,19.4-19.5,19.4l0,0C287.7,317.4,279,308.7,279,298z"/>
						</g>
					</g>
				</g>
				<g>
					<g transform="matrix(1.0 0.0 0.0 1.0 8.0 0.0)">
						<g id="g5af0183294_0_0.8_11_">
							<path class="st14" d="M279,298l19.8-0.1"/>
							<path class="st15" d="M279,298l19.8-0.1"/>
						</g>
					</g>
				</g>
				<g id="g5af0183294_0_0.8_10_">
					<path class="st14" d="M276.7,298l19.8-0.1"/>
				</g>
				<path class="st7" d="M479.2,297.8L479.2,297.8c0-5.3,4.3-9.5,9.6-9.5l0,0c2.5,0,5,1,6.8,2.8s2.8,4.2,2.8,6.7l0,0
					c0,5.3-4.3,9.5-9.6,9.5l0,0C483.5,307.3,479.2,303.1,479.2,297.8z"/>
				<path class="st12" d="M479.2,297.8L479.2,297.8c0-5.3,4.3-9.5,9.6-9.5l0,0c2.5,0,5,1,6.8,2.8s2.8,4.2,2.8,6.7l0,0
					c0,5.3-4.3,9.5-9.6,9.5l0,0C483.5,307.3,479.2,303.1,479.2,297.8z"/>
				<path class="st9" d="M479.7,297.9L479.7,297.9c0-5,4.1-9.1,9.1-9.1l0,0c2.4,0,4.7,1,6.4,2.7s2.7,4,2.7,6.4l0,0
					c0,5-4.1,9.1-9.1,9.1l0,0C483.8,307,479.7,302.9,479.7,297.9z"/>
				<path class="st12" d="M479.7,297.9L479.7,297.9c0-5,4.1-9.1,9.1-9.1l0,0c2.4,0,4.7,1,6.4,2.7s2.7,4,2.7,6.4l0,0
					c0,5-4.1,9.1-9.1,9.1l0,0C483.8,307,479.7,302.9,479.7,297.9z"/>
				<path class="st7" d="M481.1,297.9L481.1,297.9c0-4.2,3.4-7.6,7.7-7.6l0,0c2,0,4,0.8,5.4,2.2c1.4,1.4,2.2,3.4,2.2,5.4l0,0
					c0,4.2-3.4,7.6-7.7,7.6l0,0C484.5,305.5,481.1,302.1,481.1,297.9z"/>
				<path class="st16" d="M481.1,297.9L481.1,297.9c0-4.2,3.4-7.6,7.7-7.6l0,0c2,0,4,0.8,5.4,2.2c1.4,1.4,2.2,3.4,2.2,5.4l0,0
					c0,4.2-3.4,7.6-7.7,7.6l0,0C484.5,305.5,481.1,302.1,481.1,297.9z"/>
				<path class="st11" d="M482.8,297.9L482.8,297.9c0-3.3,2.7-6,6-6l0,0c1.6,0,3.1,0.6,4.2,1.7s1.8,2.6,1.8,4.2l0,0c0,3.3-2.7,6-6,6
					l0,0C485.4,303.9,482.8,301.2,482.8,297.9z"/>
				<path class="st16" d="M482.8,297.9L482.8,297.9c0-3.3,2.7-6,6-6l0,0c1.6,0,3.1,0.6,4.2,1.7s1.8,2.6,1.8,4.2l0,0c0,3.3-2.7,6-6,6
					l0,0C485.4,303.9,482.8,301.2,482.8,297.9z"/>
				<path class="st7" d="M525.2,297.8L525.2,297.8c0-5.3,4.3-9.5,9.6-9.5l0,0c2.5,0,5,1,6.8,2.8s2.8,4.2,2.8,6.7l0,0
					c0,5.3-4.3,9.5-9.6,9.5l0,0C529.4,307.3,525.2,303.1,525.2,297.8z"/>
				<path class="st12" d="M525.2,297.8L525.2,297.8c0-5.3,4.3-9.5,9.6-9.5l0,0c2.5,0,5,1,6.8,2.8s2.8,4.2,2.8,6.7l0,0
					c0,5.3-4.3,9.5-9.6,9.5l0,0C529.4,307.3,525.2,303.1,525.2,297.8z"/>
				<path class="st9" d="M525.7,297.9L525.7,297.9c0-5,4.1-9.1,9.1-9.1l0,0c2.4,0,4.7,1,6.4,2.7s2.7,4,2.7,6.4l0,0
					c0,5-4.1,9.1-9.1,9.1l0,0C529.8,307,525.7,302.9,525.7,297.9z"/>
				<path class="st12" d="M525.7,297.9L525.7,297.9c0-5,4.1-9.1,9.1-9.1l0,0c2.4,0,4.7,1,6.4,2.7s2.7,4,2.7,6.4l0,0
					c0,5-4.1,9.1-9.1,9.1l0,0C529.8,307,525.7,302.9,525.7,297.9z"/>
				<path class="st7" d="M527.1,297.9L527.1,297.9c0-4.2,3.4-7.6,7.7-7.6l0,0c2,0,4,0.8,5.4,2.2c1.4,1.4,2.2,3.4,2.2,5.4l0,0
					c0,4.2-3.4,7.6-7.7,7.6l0,0C530.5,305.5,527.1,302.1,527.1,297.9z"/>
				<path class="st16" d="M527.1,297.9L527.1,297.9c0-4.2,3.4-7.6,7.7-7.6l0,0c2,0,4,0.8,5.4,2.2c1.4,1.4,2.2,3.4,2.2,5.4l0,0
					c0,4.2-3.4,7.6-7.7,7.6l0,0C530.5,305.5,527.1,302.1,527.1,297.9z"/>
				<path class="st11" d="M528.8,297.9L528.8,297.9c0-3.3,2.7-6,6-6l0,0c1.6,0,3.1,0.6,4.2,1.7c1.1,1.1,1.8,2.6,1.8,4.2l0,0
					c0,3.3-2.7,6-6,6l0,0C531.4,303.9,528.8,301.2,528.8,297.9z"/>
				<path class="st16" d="M528.8,297.9L528.8,297.9c0-3.3,2.7-6,6-6l0,0c1.6,0,3.1,0.6,4.2,1.7c1.1,1.1,1.8,2.6,1.8,4.2l0,0
					c0,3.3-2.7,6-6,6l0,0C531.4,303.9,528.8,301.2,528.8,297.9z"/>
				
					<radialGradient id="SVGID_4_" cx="-1136.9728" cy="3644.7266" r="8.8648" gradientTransform="matrix(30.9833 0 0 30.9833 35592.0156 -112463.8047)" gradientUnits="userSpaceOnUse">
					<stop  offset="0" style="stop-color:#8C8C8C"/>
					<stop  offset="1" style="stop-color:#404040"/>
				</radialGradient>
				<path class="st17" d="M121.8,343.3L121.8,343.3c0-5.2,4.2-9.4,9.4-9.4h467.2c2.5,0,4.9,1,6.7,2.8s2.8,4.2,2.8,6.7v237
					c0,5.2-4.2,9.4-9.4,9.4H131.3c-5.2,0-9.4-4.2-9.4-9.4L121.8,343.3z"/>
				<path class="st18" d="M121.8,343.3L121.8,343.3c0-5.2,4.2-9.4,9.4-9.4h467.2c2.5,0,4.9,1,6.7,2.8s2.8,4.2,2.8,6.7v237
					c0,5.2-4.2,9.4-9.4,9.4H131.3c-5.2,0-9.4-4.2-9.4-9.4L121.8,343.3z"/>
				<g id="g5af0183294_0_0.14_2_">
					<path class="st2" d="M182.5,473.7c-2.1,0.9-4.4,1.6-6.7,2c-2.4,0.4-5,0.6-8.1,0.7c-2.6,0-5.1-0.2-7.3-0.7s-4.1-1.3-5.8-2.5
						c-1.6-1.1-2.9-2.6-3.8-4.5s-1.4-4.1-1.4-6.7c0-2.7,0.5-5.3,1.4-7.7c0.9-2.4,2.4-4.5,4.3-6.3c1.9-1.8,4.3-3.2,7.3-4.3
						c3-1.1,6.5-1.6,10.5-1.7c3.3,0,6.2,0.2,8.6,0.7c2.4,0.5,4.5,1.7,6,3.5l-2.1,9.8l-10.4,0.2c0.1-0.9,0.1-1.6,0.2-2.3
						c0.1-0.7,0.1-1.4,0.1-2.2c0-1.6-0.2-2.8-0.5-3.5c-0.4-0.7-0.9-1-1.8-1c-1.4,0-2.7,0.7-3.7,2.2c-1.1,1.4-1.9,3.1-2.6,5.1
						s-1.2,4-1.5,6.2s-0.5,4-0.5,5.5c0,0.6,0,1.1,0.1,1.7s0.2,1.1,0.3,1.6c0.2,0.5,0.4,0.9,0.7,1.2c0.3,0.3,0.7,0.4,1.3,0.4
						c0.5,0,1.1-0.2,1.8-0.5s1.3-0.8,1.9-1.4c0.6-0.6,1.2-1.5,1.8-2.5s1-2.3,1.3-3.7l10.9-0.2L182.5,473.7z M212.4,441.5
						c6.1-0.1,10.5,0.9,13.2,3c2.9,2.2,4.3,5.9,4.3,11.1c0,3.2-0.5,6.1-1.6,8.7s-2.6,4.7-4.5,6.4c-3.9,3.3-9.5,5-16.8,5.1
						c-6.3,0.1-10.7-1-13.4-3.4c-2.9-2.4-4.3-6.2-4.3-11.1c0-3.3,0.7-6.3,2-9s3.3-5,5.8-6.8C200.9,442.9,206,441.6,212.4,441.5z
						 M207.2,470.6c1.3,0,2.4-0.7,3.3-2.2c0.9-1.4,1.7-3.2,2.3-5.3c0.6-2.1,1-4.2,1.3-6.4c0.3-2.2,0.4-4.1,0.4-5.8
						c0-1.4-0.1-2.5-0.4-3.2c-0.3-0.7-0.9-1.1-1.8-1.1c-1.4,0-2.6,0.8-3.5,2.3c-1,1.5-1.8,3.3-2.4,5.3c-0.6,2-1.1,4.1-1.3,6.3
						c-0.3,2.1-0.4,3.9-0.4,5.2C204.6,469,205.5,470.6,207.2,470.6z M252.7,446.6c1.1-1,2.3-2,3.6-2.9c1.2-0.7,2.5-1.4,4.1-2
						s3.3-1,5.3-1c2.6,0,4.8,0.6,6.6,1.9c1.7,1.3,2.6,3.2,2.6,5.5c0,0.7-0.1,1.5-0.2,2.4c-0.2,0.9-0.3,1.9-0.5,2.9s-0.4,2.1-0.6,3.1
						s-0.4,2-0.6,2.8l-3.2,14.9l-15.5,0.2l4.2-20c0.1-0.7,0.2-1.3,0.4-2c0.2-0.7,0.2-1.3,0.2-1.9c0-0.8-0.2-1.4-0.6-1.9
						s-1-0.7-1.7-0.7c-0.9,0-1.8,0.4-2.6,1c-0.8,0.7-1.5,1.2-1.9,1.7l-5,23.8l-15.6,0.2l6.9-32.9l12.4-0.2l1.4,4.9L252.7,446.6z
						 M297.4,445.9c1.1-1,2.3-2,3.6-2.9c1.2-0.7,2.5-1.4,4.1-2s3.3-1,5.3-1c2.6,0,4.8,0.6,6.6,1.9c1.7,1.3,2.6,3.2,2.6,5.5
						c0,0.7-0.1,1.5-0.2,2.4c-0.2,0.9-0.3,1.9-0.5,2.9s-0.4,2.1-0.6,3.1s-0.4,2-0.6,2.8l-3.2,14.9l-15.5,0.2l4.2-20
						c0.1-0.7,0.2-1.3,0.4-2c0.2-0.7,0.2-1.3,0.2-1.9c0-0.8-0.2-1.4-0.6-1.9s-1-0.7-1.7-0.7c-0.9,0-1.8,0.4-2.6,1
						c-0.8,0.7-1.5,1.2-1.9,1.7l-5,23.8l-15.6,0.2l6.9-32.9l12.4-0.2l1.4,4.9L297.4,445.9z M338.3,457.9c-0.2,1.1-0.3,2.2-0.4,3.2
						s-0.1,1.9-0.1,2.7c0,0.5,0,1,0.1,1.5c0.1,0.6,0.2,1.1,0.3,1.6c0.2,0.5,0.4,0.9,0.8,1.2c0.3,0.3,0.8,0.5,1.4,0.5
						c0.5,0,1-0.2,1.6-0.5s1.2-0.8,1.8-1.3c0.6-0.6,1.1-1.3,1.7-2.1c0.5-0.8,1-1.7,1.3-2.8l12.5-0.2l-2,8.2c-1,0.7-2.2,1.3-3.5,1.7
						c-1.3,0.5-2.7,0.9-4.2,1.2c-1.5,0.3-3,0.5-4.5,0.7s-3,0.2-4.3,0.3c-2.5,0-4.9-0.2-7.1-0.6s-4.1-1.2-5.7-2.3
						c-1.6-1.1-2.9-2.6-3.9-4.4c-0.9-1.8-1.4-4.1-1.4-6.9c0-2.5,0.4-4.9,1.2-7.3c0.8-2.4,2.1-4.5,4-6.4s4.3-3.4,7.5-4.6
						c3.1-1.2,7-1.8,11.7-1.9c5.1-0.1,8.9,0.7,11.5,2.2s3.9,4,3.9,7.3c0,1.4-0.2,2.9-0.6,4.5s-1,3-1.8,4.1L338.3,457.9z
						 M348.4,448.7c0-1.6-0.3-2.6-0.8-3.2s-1.1-0.8-1.8-0.8c-0.8,0-1.6,0.3-2.3,0.8c-0.7,0.5-1.3,1.3-1.9,2.2
						c-0.6,0.9-1.1,1.9-1.5,3.1c-0.5,1.2-0.8,2.4-1.1,3.6l8.7-0.1c0.1-0.6,0.2-1.3,0.3-1.9c0.1-0.6,0.2-1.2,0.3-1.8
						C348.4,449.9,348.4,449.2,348.4,448.7z M397.3,470.5c-2.1,0.9-4.4,1.6-6.7,2s-5,0.6-8.1,0.7c-2.6,0-5.1-0.2-7.3-0.7
						c-2.2-0.5-4.1-1.3-5.8-2.5c-1.6-1.1-2.9-2.6-3.8-4.5c-0.9-1.8-1.4-4.1-1.4-6.7c0-2.7,0.5-5.3,1.4-7.7c0.9-2.4,2.4-4.5,4.3-6.3
						s4.3-3.2,7.3-4.3c3-1.1,6.5-1.6,10.5-1.7c3.3,0,6.2,0.2,8.6,0.7s4.5,1.7,6,3.5l-2.1,9.8l-10.4,0.2c0.1-0.9,0.1-1.6,0.2-2.3
						c0.1-0.7,0.1-1.4,0.1-2.2c0-1.6-0.2-2.8-0.5-3.5c-0.4-0.7-0.9-1-1.8-1c-1.4,0-2.7,0.7-3.7,2.2c-1.1,1.4-1.9,3.1-2.6,5.1
						s-1.2,4-1.5,6.2s-0.5,4-0.5,5.5c0,0.6,0,1.1,0.1,1.7s0.2,1.1,0.3,1.6c0.2,0.5,0.4,0.9,0.7,1.2c0.3,0.3,0.7,0.4,1.3,0.4
						c0.5,0,1.1-0.2,1.8-0.5c0.7-0.3,1.3-0.8,1.9-1.4s1.2-1.5,1.8-2.5c0.6-1,1-2.3,1.3-3.7l10.9-0.2L397.3,470.5z M406.3,439.4
						c1.9-0.4,3.5-0.9,5-1.4c1.4-0.5,2.7-1.2,3.9-2c1.2-0.8,2.3-1.7,3.4-2.9c1.1-1.1,2.3-2.5,3.5-4.2l7.9-0.1l-2.2,10.3l5.9-0.1
						l-1,5.1l-6,0.1l-3.1,14.9c-0.3,1.2-0.5,2.2-0.6,3.1c-0.2,0.9-0.2,1.6-0.2,2.1c0,1,0.4,1.7,1.1,1.9c0.7,0.2,2.1,0.3,4.2,0.3
						l-1.1,5.3c-0.4,0.1-0.9,0.2-1.6,0.3c-0.7,0.1-1.5,0.1-2.4,0.2s-1.8,0.2-2.7,0.2c-0.9,0-1.8,0.1-2.5,0.1c-1.3,0-2.5-0.1-3.7-0.2
						c-1.2-0.2-2.3-0.5-3.3-1s-1.7-1.3-2.3-2.3c-0.6-1-0.9-2.4-0.9-4.1c0-0.6,0-1.4,0.1-2.3s0.2-1.9,0.5-3.1l3.2-15.2l-5.9,0.1
						L406.3,439.4z M447.5,471.6l-15.5,0.2l6.9-32.9l15.6-0.2L447.5,471.6z M456.5,428.7c0,1.2-0.2,2.2-0.7,3.1s-1.1,1.6-1.9,2.2
						s-1.7,1.1-2.7,1.4s-2.1,0.5-3.1,0.5c-2,0-3.7-0.4-5.1-1.4s-2.1-2.5-2.1-4.5c0-1.1,0.2-2.1,0.7-3s1.1-1.6,1.9-2.2
						s1.7-1.1,2.7-1.4s2.1-0.5,3.2-0.5c2,0,3.7,0.4,5,1.4C455.9,425.2,456.5,426.7,456.5,428.7z M479.1,437.5
						c6.1-0.1,10.5,0.9,13.2,3c2.9,2.2,4.3,5.9,4.3,11.1c0,3.2-0.5,6.1-1.6,8.7s-2.6,4.7-4.5,6.4c-3.9,3.3-9.5,5-16.8,5.1
						c-6.3,0.1-10.7-1-13.4-3.4c-2.9-2.4-4.3-6.2-4.3-11.1c0-3.3,0.7-6.3,2-9s3.3-5,5.8-6.8C467.6,438.9,472.7,437.6,479.1,437.5z
						 M473.9,466.7c1.3,0,2.4-0.7,3.3-2.2c0.9-1.4,1.7-3.2,2.3-5.3c0.6-2.1,1-4.2,1.3-6.4c0.3-2.2,0.4-4.1,0.4-5.8
						c0-1.4-0.1-2.5-0.4-3.2s-0.9-1.1-1.8-1.1c-1.4,0-2.6,0.8-3.5,2.3c-1,1.5-1.8,3.3-2.4,5.3s-1.1,4.1-1.3,6.3
						c-0.3,2.1-0.4,3.9-0.4,5.2C471.3,465,472.2,466.7,473.9,466.7z M519.4,442.6c1.1-1,2.3-2,3.6-2.9c1.2-0.7,2.5-1.4,4.1-2
						s3.3-1,5.3-1c2.6,0,4.8,0.6,6.6,1.9c1.7,1.3,2.6,3.2,2.6,5.5c0,0.7-0.1,1.5-0.2,2.4c-0.2,0.9-0.3,1.9-0.5,2.9s-0.4,2.1-0.6,3.1
						c-0.2,1-0.4,2-0.6,2.8l-3.2,14.9l-15.5,0.2l4.2-20c0.1-0.7,0.2-1.3,0.4-2s0.2-1.3,0.2-1.9c0-0.8-0.2-1.4-0.6-1.9
						c-0.4-0.5-1-0.7-1.7-0.7c-0.9,0-1.8,0.4-2.6,1c-0.8,0.7-1.5,1.2-1.9,1.7l-5,23.8l-15.6,0.2l6.9-32.9l12.4-0.2l1.4,4.9
						L519.4,442.6z M567.1,446.7c0.1-0.3,0.1-0.5,0.2-0.8c0.1-0.3,0.1-0.5,0.1-0.8c0-0.9-0.2-1.8-0.5-2.6c-0.3-0.8-1-1.2-1.9-1.2
						s-1.7,0.4-2.6,1.1c-0.9,0.7-1.3,1.7-1.3,3c0,0.8,0.2,1.5,0.6,1.9s1,0.9,1.7,1.2c0.7,0.3,1.5,0.5,2.4,0.7s1.8,0.4,2.6,0.6
						c1.2,0.3,2.4,0.6,3.5,1.1c1.1,0.4,2.1,1,2.9,1.7c0.9,0.7,1.5,1.6,2.1,2.6c0.5,1,0.8,2.3,0.8,3.8c0,2.1-0.5,3.9-1.5,5.4
						s-2.4,2.7-4.1,3.6c-1.8,0.9-3.8,1.6-6.2,2s-4.9,0.6-7.6,0.6c-4.1,0.1-7.5-0.2-10.2-0.8c-2.7-0.6-4.6-1.1-5.6-1.7l1.6-7.7
						l10.3-0.2c-0.1,0.3-0.1,0.5-0.1,0.7s0,0.5,0,0.7c0,1.2,0.3,2.1,0.8,2.8c0.5,0.7,1.5,1,2.8,1c1.5,0,2.5-0.5,3.2-1.3
						c0.6-0.9,1-1.6,1-2.3c0-0.7-0.3-1.3-0.8-1.9c-0.5-0.5-1.2-1-2-1.3c-0.8-0.4-1.7-0.7-2.7-1s-1.9-0.5-2.9-0.8
						c-0.7-0.1-1.4-0.4-2.3-0.7c-0.8-0.3-1.6-0.8-2.4-1.5c-0.8-0.7-1.4-1.5-1.9-2.5s-0.8-2.3-0.8-3.9c0-2.2,0.5-4.1,1.6-5.6
						s2.5-2.7,4.3-3.7s3.7-1.6,5.9-2.1c2.2-0.4,4.4-0.7,6.7-0.7c2.8,0,5.4,0.2,7.9,0.6c2.5,0.5,4.5,1.1,6.1,1.9l-1.8,7.7
						L567.1,446.7z"/>
				</g>
				<g>
					<g transform="matrix(1.0 0.0 0.0 1.0 1.0 0.0)">
						<g id="g5af0183294_0_0.15_3_">
							<path class="st19" d="M590.6,277.4L590.6,277.4c0-1,0.8-1.7,1.7-1.7h6.9l0,0c0.5,0,0.9,0.2,1.2,0.5s0.5,0.8,0.5,1.2v7.1
								c0,1-0.8,1.7-1.7,1.7h-6.9c-1,0-1.7-0.8-1.7-1.7V277.4z"/>
							<path class="st20" d="M590.6,277.4L590.6,277.4c0-1,0.8-1.7,1.7-1.7h6.9l0,0c0.5,0,0.9,0.2,1.2,0.5s0.5,0.8,0.5,1.2v7.1
								c0,1-0.8,1.7-1.7,1.7h-6.9c-1,0-1.7-0.8-1.7-1.7V277.4z"/>
						</g>
					</g>
				</g>
				<g id="g5af0183294_0_0.15_2_">
					<path class="st19" d="M590.3,277.4L590.3,277.4c0-1,0.8-1.7,1.7-1.7h6.9l0,0c0.5,0,0.9,0.2,1.2,0.5s0.5,0.8,0.5,1.2v7.1
						c0,1-0.8,1.7-1.7,1.7H592c-1,0-1.7-0.8-1.7-1.7V277.4z"/>
					<path class="st20" d="M590.3,277.4L590.3,277.4c0-1,0.8-1.7,1.7-1.7h6.9l0,0c0.5,0,0.9,0.2,1.2,0.5s0.5,0.8,0.5,1.2v7.1
						c0,1-0.8,1.7-1.7,1.7H592c-1,0-1.7-0.8-1.7-1.7V277.4z"/>
				</g>
				<g>
					<g transform="matrix(1.0 0.0 0.0 1.0 1.0 0.0)">
						<g id="g5af0183294_0_0.20_3_">
							<path class="st7" d="M235.4,284.2L249,291v13.7l-13.6,6.8l-13.6-6.8V291L235.4,284.2z"/>
							<path class="st8" d="M235.4,284.2L249,291v13.7l-13.6,6.8l-13.6-6.8V291L235.4,284.2z"/>
						</g>
					</g>
				</g>
				<g id="g5af0183294_0_0.20_2_">
					<path class="st7" d="M235.1,284.2l13.6,6.8v13.7l-13.6,6.8l-13.6-6.8V291L235.1,284.2z"/>
					<path class="st8" d="M235.1,284.2l13.6,6.8v13.7l-13.6,6.8l-13.6-6.8V291L235.1,284.2z"/>
				</g>
				<g>
					<g transform="matrix(1.0 0.0 0.0 1.0 1.0 0.0)">
						<g id="g5af0183294_0_0.21_3_">
							<path class="st9" d="M235.4,285.4l12.4,6.2v12.5l-12.4,6.2l-12.4-6.2v-12.5L235.4,285.4z"/>
							<path class="st8" d="M235.4,285.4l12.4,6.2v12.5l-12.4,6.2l-12.4-6.2v-12.5L235.4,285.4z"/>
						</g>
					</g>
				</g>
				<g id="g5af0183294_0_0.21_2_">
					<path class="st9" d="M235.1,285.4l12.4,6.2v12.5l-12.4,6.2l-12.4-6.2v-12.5L235.1,285.4z"/>
					<path class="st8" d="M235.1,285.4l12.4,6.2v12.5l-12.4,6.2l-12.4-6.2v-12.5L235.1,285.4z"/>
				</g>
				<path class="st10" d="M225.7,297.8L225.7,297.8c0-5.2,4.2-9.5,9.4-9.5l0,0c2.5,0,4.9,1,6.7,2.8s2.8,4.2,2.8,6.7l0,0
					c0,5.2-4.2,9.5-9.4,9.5l0,0C229.9,307.3,225.7,303,225.7,297.8z"/>
				<path class="st8" d="M225.7,297.8L225.7,297.8c0-5.2,4.2-9.5,9.4-9.5l0,0c2.5,0,4.9,1,6.7,2.8s2.8,4.2,2.8,6.7l0,0
					c0,5.2-4.2,9.5-9.4,9.5l0,0C229.9,307.3,225.7,303,225.7,297.8z"/>
				<path class="st11" d="M227.7,297.8L227.7,297.8c0-4.1,3.3-7.4,7.4-7.4l0,0c2,0,3.8,0.8,5.2,2.2c1.4,1.4,2.2,3.3,2.2,5.2l0,0
					c0,4.1-3.3,7.4-7.4,7.4l0,0C231,305.2,227.7,301.9,227.7,297.8z"/>
				<path class="st8" d="M227.7,297.8L227.7,297.8c0-4.1,3.3-7.4,7.4-7.4l0,0c2,0,3.8,0.8,5.2,2.2c1.4,1.4,2.2,3.3,2.2,5.2l0,0
					c0,4.1-3.3,7.4-7.4,7.4l0,0C231,305.2,227.7,301.9,227.7,297.8z"/>
			</g>
		</g>
		<g>
			<g>
				<g transform="matrix(1.0 0.0 0.0 1.0 8.0 0.0)">
					<g id="g5af0183294_0_0.5_4_">
						<path class="st11" d="M358.3,318.5L358.3,318.5c-11.2-1.1-19.4-11.1-18.4-22.4l0,0c0.5-5.4,3.2-10.4,7.3-13.9
							c4.2-3.5,9.6-5.1,14.9-4.6l0,0c11.2,1.1,19.4,11.1,18.4,22.4l0,0C379.5,311.3,369.5,319.6,358.3,318.5z"/>
						<path class="st12" d="M358.3,318.5L358.3,318.5c-11.2-1.1-19.4-11.1-18.4-22.4l0,0c0.5-5.4,3.2-10.4,7.3-13.9
							c4.2-3.5,9.6-5.1,14.9-4.6l0,0c11.2,1.1,19.4,11.1,18.4,22.4l0,0C379.5,311.3,369.5,319.6,358.3,318.5z"/>
					</g>
				</g>
			</g>
			<g>
				<g transform="matrix(1.0 0.0 0.0 1.0 8.0 0.0)">
					<g id="g5af0183294_0_0.6_4_">
						
							<radialGradient id="SVGID_5_" cx="-1515.7035" cy="3662.4922" r="2.8057" gradientTransform="matrix(0.9311 -9.7618 9.7618 0.9311 -33980.8164 -17908.2305)" gradientUnits="userSpaceOnUse">
							<stop  offset="0" style="stop-color:#FFC002"/>
							<stop  offset="1" style="stop-color:#A79562"/>
						</radialGradient>
						<path class="st21" d="M358.5,317.4L358.5,317.4c-10.7-1-18.5-10.5-17.5-21.3l0,0c0.5-5.2,3-9.9,7-13.2c4-3.3,9.1-4.9,14.2-4.4
							l0,0c10.7,1,18.5,10.5,17.5,21.3l0,0C378.7,310.5,369.2,318.4,358.5,317.4z"/>
						<path class="st12" d="M358.5,317.4L358.5,317.4c-10.7-1-18.5-10.5-17.5-21.3l0,0c0.5-5.2,3-9.9,7-13.2c4-3.3,9.1-4.9,14.2-4.4
							l0,0c10.7,1,18.5,10.5,17.5,21.3l0,0C378.7,310.5,369.2,318.4,358.5,317.4z"/>
					</g>
				</g>
			</g>
			<g>
				<g transform="matrix(1.0 0.0 0.0 1.0 8.0 0.0)">
					<g id="g5af0183294_0_0.8_9_">
						<path class="st14" d="M358.5,317.4l1.8-19.7"/>
						<path class="st15" d="M358.5,317.4l1.8-19.7"/>
					</g>
				</g>
			</g>
			<g id="g5af0183294_0_0.8_8_">
				<path class="st14" d="M358.3,319.6l1.8-19.7"/>
			</g>
		</g>
		<g>
			<g>
				<g transform="matrix(1.0 0.0 0.0 1.0 8.0 0.0)">
					<g id="g5af0183294_0_0.5_3_">
						<path class="st11" d="M441.9,283L441.9,283c8.4,7.5,9.1,20.5,1.5,28.9l0,0c-3.6,4.1-8.7,6.5-14.1,6.9
							c-5.4,0.3-10.7-1.5-14.8-5.1l0,0c-8.4-7.5-9.1-20.5-1.5-28.9l0,0C420.6,276.3,433.5,275.5,441.9,283z"/>
						<path class="st12" d="M441.9,283L441.9,283c8.4,7.5,9.1,20.5,1.5,28.9l0,0c-3.6,4.1-8.7,6.5-14.1,6.9
							c-5.4,0.3-10.7-1.5-14.8-5.1l0,0c-8.4-7.5-9.1-20.5-1.5-28.9l0,0C420.6,276.3,433.5,275.5,441.9,283z"/>
					</g>
				</g>
			</g>
			<g>
				<g transform="matrix(1.0 0.0 0.0 1.0 8.0 0.0)">
					<g id="g5af0183294_0_0.6_3_">
						
							<radialGradient id="SVGID_6_" cx="-941.074" cy="3176.8298" r="2.8057" gradientTransform="matrix(-6.5311 7.3147 -7.3147 -6.5311 17519.2344 27930.207)" gradientUnits="userSpaceOnUse">
							<stop  offset="0" style="stop-color:#FFC002"/>
							<stop  offset="1" style="stop-color:#A79562"/>
						</radialGradient>
						<path class="st22" d="M441,283.8L441,283.8c8,7.1,8.6,19.4,1.5,27.5l0,0c-3.4,3.9-8.3,6.2-13.4,6.5c-5.2,0.3-10.2-1.4-14-4.9
							l0,0c-8-7.1-8.6-19.4-1.5-27.5l0,0C420.7,277.4,433,276.6,441,283.8z"/>
						<path class="st12" d="M441,283.8L441,283.8c8,7.1,8.6,19.4,1.5,27.5l0,0c-3.4,3.9-8.3,6.2-13.4,6.5c-5.2,0.3-10.2-1.4-14-4.9
							l0,0c-8-7.1-8.6-19.4-1.5-27.5l0,0C420.7,277.4,433,276.6,441,283.8z"/>
					</g>
				</g>
			</g>
			<g>
				<g transform="matrix(1.0 0.0 0.0 1.0 8.0 0.0)">
					<g id="g5af0183294_0_0.8_7_">
						<path class="st14" d="M441,283.8l-13.1,14.8"/>
						<path class="st15" d="M441,283.8l-13.1,14.8"/>
					</g>
				</g>
			</g>
			<g id="g5af0183294_0_0.8_2_">
				<path class="st14" d="M442.6,282.1l-13.1,14.8"/>
			</g>
		</g>
	</g>
</g>
</svg>
