<?xml version="1.0" encoding="UTF-8"?>
<svg id="Layer_1" data-name="Layer 1" xmlns="http://www.w3.org/2000/svg" viewBox="0 0 2521 2911">
  <defs>
    <style>
      .cls-1 {
        fill: #6eb2ff;
      }

      .cls-2 {
        fill: #7ebbff;
      }

      .cls-3 {
        fill: #fff;
      }

      .cls-4 {
        fill: #5eaaff;
      }

      .cls-5 {
        fill: #8ec3ff;
      }
    </style>
  </defs>
  <polygon class="cls-4" points="2521 727.76 2521 2183.26 1260.49 2911 481.19 2461.07 208.36 2303.55 0 2183.26 0 727.76 1260.49 0 2521 727.76"/>
  <circle class="cls-1" cx="1510.73" cy="302.46" r="120.05"/>
  <circle class="cls-2" cx="1343.9" cy="637.25" r="166.82"/>
  <circle class="cls-5" cx="1121.93" cy="1009.08" r="205.01"/>
  <circle class="cls-5" cx="592.08" cy="1963.42" r="204.3"/>
  <path class="cls-2" d="M539.53,2334.27c0,50.73-22.62,96.19-58.34,126.8l-272.83-157.52c14.43-77.55,82.43-136.26,164.17-136.26,92.23,0,167,74.76,167,166.99Z"/>
  <path class="cls-3" d="M546.27,1286.16c-29.29,29.13-58.57,58.26-87.86,87.39-16.45-15.74-47.64-49.3-101.34-49.74-74.38-.6-145.32,63.53-144.1,153.4,1.12,83.4,57.27,147.86,138.53,152.01,58.48,2.98,81.62-17.31,109.71-46.49,28.36,29.75,56.71,59.5,85.07,89.25-26.15,20.98-81.96,73-192.91,71.12-135.78-2.3-264.63-100.73-267.29-260.78-2.97-178.51,133.25-270.91,263.11-272.87,108.54-1.64,165.31,42.55,197.1,76.7Z"/>
  <path class="cls-3" d="M873.77,1209.21c-152.58-.35-272.22,105.17-276.47,246.29-5.23,173.4,109.46,287.83,276.47,287.83,154.58,0,269.08-99.05,276.48-250.69,7.95-162.58-108.87-283.04-276.48-283.43ZM882.67,1628.9c-102.84,0-157.92-68.54-157.99-153.05-.06-79.77,59.8-153.05,148.11-153.05s150.09,69.15,150.09,153.46c0,88.83-67.14,152.63-140.21,152.63Z"/>
  <path class="cls-3" d="M1397.69,1222c0,25.92.37,55.07.41,81.27,0,.85,1.15,1.12,1.52.36,7.7-15.65,25.59-53.89,76.54-78.45,55.78-26.9,107.62-12.03,119.68-8.32v123.24c-13.51-4.39-57.95-19.95-113.73-2.38-46.7,14.71-83.8,68.28-84.41,122.85v270.66h-127.6v-509.23h127.6Z"/>
  <path class="cls-3" d="M1810.61,1222c0,25.92.37,55.07.41,81.27,0,.85,1.15,1.12,1.52.36,7.7-15.65,25.59-53.89,76.54-78.45,55.78-26.9,107.62-12.03,119.68-8.32v123.24c-13.51-4.39-57.95-19.95-113.73-2.38-46.7,14.71-83.8,68.28-84.41,122.85v270.66h-127.6v-509.23h127.6Z"/>
  <path class="cls-3" d="M2223.54,1222c0,25.92.37,55.07.41,81.27,0,.85,1.15,1.12,1.52.36,7.7-15.65,25.59-53.89,76.54-78.45,55.78-26.9,107.62-12.03,119.68-8.32v123.24c-13.51-4.39-57.95-19.95-113.73-2.38-46.7,14.71-83.8,68.28-84.41,122.85v270.66h-127.6v-509.23h127.6Z"/>
</svg>