<?xml version="1.0" encoding="utf-8"?>
<!-- Generator: Adobe Illustrator 26.4.1, SVG Export Plug-In . SVG Version: 6.00 Build 0)  -->
<svg version="1.1" id="Layer_1" xmlns="http://www.w3.org/2000/svg" xmlns:xlink="http://www.w3.org/1999/xlink" x="0px" y="0px"
	 viewBox="0 0 2521 2911" style="enable-background:new 0 0 2521 2911;" xml:space="preserve">
<style type="text/css">
	.st0{fill:none;}
	.st1{fill:#4F4F4F;}
	.st2{fill:#93278F;}
	.st3{fill:#8830EF;}
	.st4{opacity:0.7;fill:#70AF02;enable-background:new    ;}
	.st5{opacity:0.8;fill:#0465AD;enable-background:new    ;}
	.st6{fill:#77C136;}
	.st7{fill:#3C71F7;}
	.st8{opacity:0.7;fill:#D217FF;enable-background:new    ;}
	.st9{opacity:0.7;fill:#FF301A;enable-background:new    ;}
	.st10{opacity:0.7;fill:#FF7517;enable-background:new    ;}
	.st11{opacity:0.7;fill:#03E5A4;enable-background:new    ;}
	.st12{fill:#5527BA;}
	.st13{fill:#019AA6;}
	.st14{fill:#01C8BA;}
	.st15{fill:#01E0E8;}
	.st16{fill:#02E0E8;}
	.st17{fill:#00D7E7;}
	.st18{fill:#0097AF;}
	.st19{fill:#01A772;}
	.st20{fill:#01DE61;}
	.st21{fill:#01FF84;}
	.st22{fill:#02FF85;}
	.st23{fill:#00F88C;}
	.st24{fill:#00A47E;}
	.st25{fill:#FF015D;}
	.st26{fill:#FF6F01;}
	.st27{fill:#FF9801;}
	.st28{fill:#FF6301;}
	.st29{fill:#FF9501;}
	.st30{fill:#FF2522;}
	.st31{fill:#485EFF;}
	.st32{fill:#96BF16;}
	.st33{fill:#BCFF17;}
	.st34{fill:#BDF906;}
	.st35{fill:#BC17BC;}
	.st36{fill:#F540FF;}
	.st37{fill:#BF00BC;}
	.st38{fill:#FF3BFF;}
	.st39{fill:#C900BB;}
	.st40{fill:#EF2CFF;}
	.st41{fill:#E2BC00;}
	.st42{fill:#FFE000;}
	.st43{fill:#DDB300;}
	.st44{fill:#DDA800;}
	.st45{fill:#FFDA00;}
	.st46{fill:#999999;}
	.st47{opacity:0.7;fill:#941AFF;enable-background:new    ;}
	.st48{opacity:0.7;fill:#FF9E1D;enable-background:new    ;}
	.st49{fill:#4D4D4D;}
</style>
<g>
	<g>
		<path d="M1466.7,2548l18.5,32.1l-25.2,43.6h-50.3l-18.5-32.1L1080.4,2771l166.5,96.1l13.6,7.8l30.2-17.4l1199.1-692.3v-207.9
			L1466.7,2548z M2430.4,2140l3.5-2.1c-0.6,0.4-1.2,0.8-1.9,1.2C2431.5,2139.4,2430.9,2139.7,2430.4,2140z"/>
	</g>
	<g>
		<polygon class="st0" points="1761.2,325.1 1785.7,339.3 1834.8,367.6 1919.3,416.4 1260.5,36 1260.5,36 1737.8,311.6 		"/>
		<polygon class="st0" points="1246.9,2867.2 1260.5,2875 1290.7,2857.6 1260.5,2875 		"/>
		<path d="M652.8,2429.4c1.3,3.4,2.6,6.9,3.9,10.3C655.4,2436.3,654.1,2432.8,652.8,2429.4L652.8,2429.4z"/>
		<path d="M1261.2,1893.5c-0.8-2.5-1.3-5.1-1.9-7.6h-0.1C1259.8,1888.5,1260.4,1891,1261.2,1893.5c2,6.7,4.1,13.3,6.1,20h0.1
			C1265.3,1906.8,1263.3,1900.2,1261.2,1893.5z"/>
		<path d="M1332.3,2491.6L1332.3,2491.6C1332.3,2491.6,1332.3,2491.6,1332.3,2491.6C1332.3,2491.6,1332.3,2491.6,1332.3,2491.6z"/>
		<path d="M1629.2,1603.8c-5.9-5.4-13.5-8.9-21.9-9.8C1615.7,1595,1623.3,1598.5,1629.2,1603.8L1629.2,1603.8z"/>
		<path d="M2352,1783.8l-0.7,0.4c0.6,1.7,0.6,3.2,0,4.3l-32.9,56.9c-3.4,5.8-23.8,0.8-53-11.6L1430,2316.2c2.2,1.2,4.5,2.5,6.7,3.8
			c27.5,15.8,49.2,32.8,56.8,43.6c3.4,3.7,4.8,6.5,3.9,8.1c-0.1,0.1-0.1,0.2-0.2,0.3l-2.4,4.1c-0.1,0.3-0.1,0.5-0.3,0.7
			c0,0.1-0.1,0.1-0.1,0.1l-18.3,31.6l458.4-264.7l-27.9-48.4l29.2-50.5h58.3l27.9,48.4l467.7-270v-119l-135.6,78.3
			C2353.7,1783.1,2353,1783.6,2352,1783.8z"/>
		<path d="M1393.8,1766.7l-274.5,158.5c10.1-4.1,20.1-8.2,30.2-12.3c29.2-12,58.2-24.4,87.3-36.9c2.5-1.1,4.7-1.8,6.5-2.3
			l135.2-78.1C1383.8,1786.1,1388.9,1776.5,1393.8,1766.7z"/>
		<path d="M1613.3,1578.1c0.7,0.1,1.2,0.2,1.9,0.3C1614.6,1578.3,1613.9,1578.3,1613.3,1578.1L1613.3,1578.1z"/>
		<path d="M1417.6,1717.4c5.5-11.8,10.8-23.7,16.2-35.6L766,2067.3c2.7-1.1,5.5-2.1,8.1-3.2c48.6-18.9,97.4-37.1,145.8-56.4
			c11.4-4.5,22.9-9.3,34.2-14.1l458-264.4C1414,1725.2,1415.9,1721.3,1417.6,1717.4z"/>
		<path d="M2376,1486.4l113.8-65.7v-51.9l-118.9,68.7C2373.9,1453.6,2375.6,1470,2376,1486.4z"/>
		<path d="M1125.9,1153.4c-2.2-13.9-2.2-14.1-13.9-7.2c-2.8,1.6-5.1,1.9-7.5,1.4c7.1,2.9,14.9,6.4,23.1,10.4
			C1126.7,1156.5,1126.1,1154.9,1125.9,1153.4z"/>
		<path d="M494.7,1056.3l-74.7,43.2c15.6-1.8,31.5-1.4,47.4-0.1c0.6,0.1,1.2,0.1,1.8,0.1l14.1-8.1
			C487.2,1079.5,491,1067.9,494.7,1056.3z"/>
		<path d="M1657.9,1634.3L1657.9,1634.3c0.1-1.3,0.2-2.6,0.2-4c0-0.1,0-0.1,0-0.2c0,0.1,0,0.1,0,0.2
			C1658.1,1631.7,1658,1633,1657.9,1634.3z"/>
		<path d="M1246.4,1251.7c-2.4,0.1-5.7-0.5-9.5-1.4l0,0C1240.8,1251.3,1244,1251.8,1246.4,1251.7z"/>
		<path d="M295.7,1554.5c-1-2.6-2-5.3-2.9-7.9C293.8,1549.2,294.8,1551.8,295.7,1554.5z"/>
		<path d="M2221.9,1203.9l267.9-154.7V880.4l-422.4,243.9C2123.8,1141.5,2175.6,1167.6,2221.9,1203.9z"/>
		<path d="M2261.6,1238.8l228.2-131.8v-34.9l-251.5,145.2C2246.4,1224.2,2254.1,1231.4,2261.6,1238.8z"/>
		<path d="M2289.9,1269.4l199.9-115.4v-20l-211.5,122.1C2282.3,1260.4,2286.2,1264.9,2289.9,1269.4z"/>
		<path d="M2317.8,1307l172-99.3v-32.3L2301.6,1284C2307.3,1291.5,2312.7,1299.2,2317.8,1307z"/>
		<path d="M1048.5,1526.3c19.7-8.5,39.8-16,59.9-23.7c3.9-1.4,7.9-2.4,12-2.9c9.9-1.4,15.4,2.3,18.5,11.9c0.9,2.7,2,5.3,3,8
			c0.5,2.8,0.7,5.7,1.4,8.3c3,10.4,5.9,20.8,8.9,31.2c-3-10.4-5.9-20.8-8.9-31.2c-0.8-2.7-1-5.6-1.4-8.3
			c50-19.2,100.6-37.1,151.6-53.4c40-12.7,79.8-25.9,119.7-38.9l158.4-91.4c4.3-11,8.5-22,12.8-32.9c8.2-21.3,21.2-38.5,39.6-51.9
			c32.2-23.4,64.3-47,99.2-66.2c38.7-21.2,78.1-41.2,119.8-56.3c21.4-7.8,43.6-12.7,66.3-14.7c6-0.5,12-0.8,17.8-2.2
			c4.8-1.1,9.2-3.7,13.8-5.7l0,0c2.2-3.6,5.7-2,8.5-2c7.2,0.3,14.3,0.7,21.4,1.3l518.9-299.6v-59.9l-57.1-33l-1487.9,859
			C979.4,1556.6,1013.9,1541.3,1048.5,1526.3z"/>
		<path d="M1640.6,1624.3L1640.6,1624.3c0.5,2.4,0.7,4.9,0.6,7.4c-0.1,4.7-1.4,9.7-3.8,14.6l0,0c2.4-4.8,3.7-9.9,3.8-14.6
			C1641.3,1629.1,1641.1,1626.6,1640.6,1624.3z"/>
		<path d="M1518.6,1694.7L1518.6,1694.7c5.1,3.9,10.3,7.6,15.8,11h0.1C1529,1702.2,1523.7,1698.6,1518.6,1694.7z"/>
		<path d="M1832.3,1763.7c-4.5-2.7-9.1-5.1-13.8-7.3l-114.4,66c-3.2,6.6-6.6,13.1-10.1,19.5c-2.4,4.5-5.2,8.7-7.6,13.1
			c-7.1,13.1-17.7,21.8-31.7,26.9c-26.7,9.6-53.1,20.2-80,29.3c-19.5,6.6-39,13.1-58.5,19.6l-242.3,139.9
			c16.5,6.9,32.3,15.1,47.2,24.6l542.6-313.3C1853.2,1776.1,1842.7,1769.9,1832.3,1763.7z"/>
		<path d="M1553.1,1716.2l-6.2,3.5c-5.3,13.8-10.6,27.6-15.8,41.4l56.6-32.7C1575.8,1725.6,1564.2,1721.7,1553.1,1716.2z"/>
		<path d="M1727.8,1433.4c2.2-13.2-2-24.4-12.5-32.7c-10.5-8.3-22.3-9.8-34.7-4.4c-9.9,4.3-15.8,12.1-19.7,21.9
			c-3.6,9.4-7.3,18.8-11,28.1c-6.8-1.2-13.7-1.9-20.3-3.9c-24.4-7.1-49.2-13.3-74.3-17.4c-0.1,0-0.2,0-0.3-0.1c0.1,0,0.2,0,0.3,0.1
			c25.2,4.1,49.9,10.3,74.3,17.4c6.6,1.9,13.5,2.6,20.3,3.9c1.7,1.2,3.2,3,5.1,3.6c17.2,5.4,33.4,13.3,49.6,21.1
			c2.8,1.3,5.8,2.2,8.7,3.4l0,0c3.6-9.7,7.4-19.5,10.8-29.2C1725.7,1441.2,1727.2,1437.4,1727.8,1433.4z"/>
		<path d="M1716.6,1476.9c-0.9-0.6-1.6-1.3-2.5-2C1715,1475.6,1715.7,1476.3,1716.6,1476.9z"/>
		<path d="M1357,1831.9c0.9-1.3,1.6-2.6,2.5-3.9l-97.3,56.1c20.7-7.2,41.5-14.1,62-22C1338.7,1856.5,1348.8,1845.2,1357,1831.9z"/>
		<path d="M1155.7,2163.4c-0.5-2.8-1.1-5.6-1.5-8.3C1154.6,2157.8,1155.2,2160.7,1155.7,2163.4c1.5,8.3,3.2,16.6,4.7,24.8l0,0
			C1158.8,2180,1157.2,2171.7,1155.7,2163.4z"/>
		<path d="M992.1,2250.6c-11-2.4-22.2,3.9-26.1,15.2c-2.5,7.2-4.5,14.6-6.7,22l0,0c0.3,0.3,0.6,0.7,1,0.9c5.5,1.8,11,3.7,16.4,5.6
			l33.3-19.2C1011.2,2263.5,1003.7,2253.2,992.1,2250.6z"/>
		<path d="M1488,1667.3c-3.5-3.5-7-7.2-10.5-10.8l0,0C1480.9,1660.2,1484.4,1663.8,1488,1667.3c3.8,3.9,7.7,7.6,11.7,11.3l0,0
			C1495.7,1674.9,1491.8,1671.2,1488,1667.3z"/>
		<path d="M1801.6,1531.3L1801.6,1531.3c3.9,4.3,7.6,8.8,10.8,13.9l0,0C1809.2,1540.1,1805.6,1535.5,1801.6,1531.3z"/>
		<path d="M1307.9,2386.8l0.1-0.2l-83.3,48.1c2-0.7,3.9-0.6,6,0.9c1.5,1,3.1,1.8,4.8,2.5c2.8,1.2,4.2,3.1,4.1,6.2
			c0.1,1.6,0.2,3.2,0.4,4.7c0.3,2.6,1.4,3.7,4.1,2.6c1.6-0.7,3.4-1.4,4.9-2.2c2.8-1.6,5.3-1.2,8.3,0.1c5.5,2.4,8.7,5.5,8.3,12.1
			c-0.3,5.5,1,6.3,5.9,3.6c6.3-3.5,11.6-2.8,17.5,0.9c3.6,2.2,5.7,4.5,6.2,8.7c1.2,10,2,8.4,9.5,5.5c2.6-1,5-1.5,7.4-1.2
			c-24.4-16.1-40.2-30.3-37.7-34.7l32.9-56.9l0,0C1307.5,2387.2,1307.7,2387,1307.9,2386.8z"/>
		<path d="M1989.4,1314.2c-5.5,2.2-10.3,6.1-15.3,9.3c-3.3,1.9-6.4,3.9-9.7,5.9c0,0,0,0,0-0.1c-7.3,2.8-14.5,6-22,8.3
			c-12.4,3.7-24.4,8.5-35.9,14.4c-7.5,3.7-12.2,9.3-15.2,17.1c-4.3,11.1-8.7,22.2-13.1,33.3l144.9-83.7
			C2014.1,1311.1,2001.9,1309.2,1989.4,1314.2z"/>
		<path d="M2167.2,1587.3L2167.2,1587.3c-6.3-6.8-9.1-12.1-7.4-14.9C2158,1575.2,2160.9,1580.4,2167.2,1587.3z"/>
		<path d="M1642.5,1668c2-2,3.9-4.3,5.6-6.7l0,0C1646.5,1663.7,1644.6,1665.9,1642.5,1668z"/>
		<path d="M1552.2,1629.5c-0.1,1.4-0.2,2.8-0.1,4.2C1552,1632.3,1552.1,1630.9,1552.2,1629.5L1552.2,1629.5z"/>
		<path d="M2345.1,1790.9c-1.3,0-2.9-0.1-4.6-0.3l0,0C2342.2,1790.7,2343.7,1790.9,2345.1,1790.9z"/>
		<path d="M2276.5,1494.4c0-0.3,0.1-0.7,0.1-1c0.1-0.6,0.1-1.1,0.1-1.6l-2.6,1.5C2274.9,1493.7,2275.7,1494,2276.5,1494.4z"/>
		<path d="M2126.4,1630.4c0.1-0.5,0.2-0.9,0.4-1.2l32.9-56.9c0.7-1.2,2.3-2,4.6-2.3c-0.9-2.1-1-3.8-0.3-5.1l7-12.2l-195.8,113.1
			c0,0.2,0.1,0.3,0.1,0.5c1.2,13.9,1.4,14.4,14.3,10.2c6.7-2.2,11.3,0.3,16.8,3.2c6.2,3.4,9.1,7.8,9.3,14.7L2126.4,1630.4
			L2126.4,1630.4z"/>
		<path d="M2316.5,1506.8c-3.2,0.6-5.8,1.5-8.4,2.6c2.8,1.4,5.7,2.9,8.6,4.5C2316.7,1511.6,2316.6,1509.3,2316.5,1506.8z"/>
		<path d="M2037.2,1357.4c1.2-7.7-0.1-15.2-2.9-22.4l-168.2,97.1c-6.2,15.2-12.4,30.4-18.5,45.6l190.8-110.2
			C2037,1364.7,2036.6,1361.5,2037.2,1357.4z"/>
		<path d="M2083.1,1383.5c0.2-1.2-0.2-2.5-0.5-3.7c-0.1-0.6-0.6-1.1-1.2-2.1c-4.8-0.9-8.7,2.3-12.8,4.3c-3.4,1.6-6.4,2.1-9.5,0.7
			l-225.9,130.5c-3.5,8.7-7.1,17.5-10.6,26.2l260.3-150.3C2082.7,1387.3,2082.8,1385.4,2083.1,1383.5z"/>
		<path d="M2123.4,1414.2c-0.1-5.3-0.6-10.5-1.1-17.5c-5.8,3-10.4,5.1-14.5,7.7c-3.7,2.4-7,2.6-10.4-0.1c-0.5-0.4-1.1-0.7-1.6-0.9
			c-0.2-0.1-0.4-0.1-0.5-0.2L1817,1563.9c0,0.9-0.1,1.8-0.1,2.6c-0.1,6.6-0.8,13.3,0.3,19.8c0.5,3.1,1.4,5.8,2.5,8.2l304.6-175.9
			C2123.7,1417.4,2123.4,1415.9,2123.4,1414.2z"/>
		<path d="M138.6,1183.4c10.5-2.7,15.2,0.1,19,10.3c0.6,1.5,1.3,3,1.9,4.5c46.5-18.7,93.1-37.3,139.6-55.9l206.4-119.2
			c3-9.5,6-19,9.1-28.5c5.4-17.2,17-29.4,30-40.6c52-44.5,109-81.2,171.9-108.8c20.4-8.9,42.1-12.8,63.7-16.7
			c5.7-1.1,10.9-4.5,16.3-6.9l0,0l0,0l0,0l0,0c14.5,0.2,29-0.6,43.4,0.9c3.7,0.4,7.3,0.8,10.9,1.2l887-512.1L1260.5,36L31.2,745.8
			v488.7c30.8-15.4,61.6-30.8,92.6-45.9C128.5,1186.3,133.5,1184.5,138.6,1183.4z M1346.7,230.2c12.5-7.1,21.6-9.6,27.5-7.4
			c7.1,2.4,12.2,11.2,15.1,26.3l2.4,12.5l-35,19.8l-2-10.2l-80.2,45.7c13.9,70.8,21.5,108.9,22.5,114.4l-34.7,19.7l-30.8-156
			L1346.7,230.2z M1088.1,377.2c0.5,2.8,8,40.7,22.5,114l81.4-46.3l-22.5-114l33.9-19.3l40.4,205.4c2.6,13.5,2.5,24.8-0.5,33.6
			c-3.4,11.2-11.8,20.6-25,28.1l-70.9,40.3l-7.2-43.1l69.7-39.6l-9.9-49.8l-81.4,46.3c-12.2,7-21.4,9.2-27.7,6.8
			c-6.2-2.4-10.8-11.2-13.8-26.2l-23-116.9L1088.1,377.2z M1009,294.4c34.2,173.6,52,263.7,53.3,270.4l0,0c0.1,0.5,0.1,0.5,0,0
			l-34.3,19.5l-53.3-270.4L1009,294.4z M939.7,461.5c8.7-5,17.5-5.7,26.4-2.2c8.8,3.5,14.5,11.8,17,24.7l14.1,71.5
			c3.2,16.2,2,29.4-3.4,39.8c-4.2,8-12,15.2-23.5,21.6l-81,46.1l18.2,92.3l-33.8,19.3l-48.8-247.8L939.7,461.5z M665.9,489.4
			l22.6,114.9l82.9-47.2c11.4-6.5,19.8-8.9,25-7c7.3,2,12.6,11,15.7,27l13.8,72.2c2.6,12.7,1.2,26-4,37.9
			c-5.2,12.4-12,20.9-20.3,25.6l-116.8,66.4l-53.2-270.4L665.9,489.4z M492.2,724.7c3.9-8,11.4-15.2,22.6-21.6l82.2-46.7L574.3,541
			l33.9-19.3l53.4,270.9L547,857.8c-8.7,5-17.3,5.9-25.6,2.9c-9.3-3.8-15.2-12-17.7-24.4l-14.3-72.6
			C486.3,747.4,487.2,734.4,492.2,724.7z M350.7,862.2h26.2l13.1,22.7l-13.1,22.7h-26.2l-13.1-22.7L350.7,862.2z M215,806h50.3
			l25.2,43.6l-25.2,43.6H215l-25.2-43.6L215,806z"/>
		<polygon points="962.2,575.5 948.1,503.9 867.1,550 881.2,621.6 		"/>
		<path d="M258.3,1489.1c5.2-2.5,9-1.4,12.5,2.6c1.6,1.8,3.1,3.8,4.6,5.8l0,0c14.7-6.2,29.2-12.7,44.2-18.5
			c15.2-5.8,26.4-16,33.2-30.5c13.7-29.1,27.5-58.3,40-87.9c10.9-25.8,20.2-52.4,30.2-78.6c4.6,3.4,9.7,6.3,13.7,10.3
			c19.5,19.1,39.5,37.3,64.4,49.2c1.1,0.5,1.8,1.8,2.8,2.8c-7.2,23.7-15,47.2-21.5,71c-1.9,7.1-2,14.6-0.2,21.7
			c3.2,11.6,14.7,18.9,26.4,18.8c12-0.1,22.3-7.5,26.5-20c6-18.3,11.5-36.7,17-55.1c2.4-7.9,4.2-15.8,6.2-23.8
			c-18.9-0.7-36.7-6.3-54.4-12.6c-0.9-0.9-1.6-2.3-2.8-2.8c-25-11.8-45-30.1-64.4-49.2c-4-3.9-9.1-6.8-13.7-10.3
			c-1.2-1.7-2.2-3.8-3.8-5.1c-33.1-26.9-70.5-37.5-111.9-24.8c-3.2,1-6.4,2-9.5,3.1L31.2,1409V1598c34.9-16.8,69.7-33.7,104.7-50.5
			C176.7,1527.9,217.5,1508.7,258.3,1489.1z"/>
		<path d="M710.3,1471.3l16.3-28.2h32.5l11.9,20.6l77.5-44.8c-30.7-5.9-59-18.5-86-34c-31-17.7-63.3-29.7-99.3-30l0,0
			c-10.8,28.9-21.6,57.8-32.3,86.8c-7.8,20.8-21.9,34.2-43,42.4c-85.2,33.1-170.1,67.3-255.1,101.1c-7.4,3-14.9,5.7-22.4,8.4
			c-0.4,9.9-7.6,14-15.2,17.6c-27.4,13-55.1,25.4-82.1,39.1c-60.7,30.6-120.7,62.4-181.6,92.5v148l691-398.9L710.3,1471.3z"/>
		<polygon points="792.2,671.1 778,599.2 696.6,645.4 710.8,717.4 		"/>
		<polygon points="619.4,770.4 605.1,697.9 524.5,743.8 538.8,816.2 		"/>
		<path d="M551.8,1917.9c-44.2,21.2-87.3,44.4-130.8,66.9c-54.5,28.2-109,56.1-163.2,84.9c-67.5,35.9-135.4,71.2-201.6,109.5
			c-0.1,0.1-0.3,0.1-0.4,0.2l27.3,15.8l533.1-307.8C594.7,1897.5,573.2,1907.7,551.8,1917.9z"/>
		<path d="M1041.3,1395.3c-3.3-1.9-6.5-3.8-9.7-5.7c-0.7,2.4-2.3,5.5-4.8,10.1c-0.7,1.2-1.6,2.4-1.9,3.7
			c-4.5,17.5-16.9,20.8-33.3,21.3c-20.3,0.7-40.5,1.1-60.8,0.7L31.2,1944.9v46.5l1021.4-589.7
			C1048.9,1399.6,1045.1,1397.5,1041.3,1395.3z"/>
		<path d="M474.9,2178c57.1-21,114.1-42.5,170.9-64.2l801.8-462.9c1.6-3.7,3.4-7.5,5-11.2c1-2.3,1.4-4.8,2.2-7.2
			c2.9,3.1,5.8,6.2,8.7,9.3l0,0c-2.9-3.1-5.8-6.2-8.7-9.3c-10.6-9.5-21.8-18.2-34.2-25.3c-34.4-19.8-71-23.6-108.9-13.7
			c-21.9,5.8-43.3,13.6-64.9,20.8c-23,7.7-45.9,15.6-68.9,23.5l-1.9,1.1c0.2,16.7-0.7,18.5-16.9,24.7c-24.4,9.3-48.8,18.5-73.4,27.4
			l-559.1,322.8l8,13.9l-16.3,28.2h-32.5l-8-13.9l-330.1,190.6l66.2,38.2c45-15.1,89.8-30.6,134.6-46.2
			C391,2209.8,432.8,2193.5,474.9,2178z"/>
		<path d="M546,1227.5c23.9,0.1,44.2,20.4,43.8,44.3l0,0C590.2,1247.9,569.9,1227.5,546,1227.5c-25.5-0.1-43.8,17.6-43.8,42.4l0,0
			C502.2,1245,520.5,1227.4,546,1227.5z"/>
		<path d="M1061.4,1140c-1.4,2.4,1.2,7,6.9,13l0,0C1062.6,1147,1059.9,1142.4,1061.4,1140c0.5-0.8,1.3-1.3,2.5-1.6
			c4.1-2.7,16.6-0.1,33.9,6.6c-4.7-2.6-7-6.2-6.9-12.8c0.3-10.4-0.9-10.7-10-5.3c-4.8,2.9-8.7,5.3-15,2c-6.2-3.3-8.9-6.8-8.7-13.9
			c0.3-8.1-1.1-8.9-7.6-4.3c-6.2,4.4-11.2,4.3-17.9,0.8c-6.2-3.3-5.6-8.4-5.9-13.2c-0.5-6.6-3-7.3-8.3-4.4c-4.9,2.7-9.4,5.9-16,2.3
			c-6.4-3.5-10.3-6.9-9.6-14.9c0.6-7.2-0.7-7.5-7.6-4.3c-4.2,1.9-7.6,6.2-13.5,3.4c-6.6-3.1-10.5-6.6-10.5-14.7
			c0-8.9-1.6-9.3-8.9-4.5c-11.4,7.4-23.5,1.4-25-12.2c-0.9-8-1.1-8-8.4-4.4c-14.2,7-29.7-2.9-30.7-19.1c-0.4-6.3-1.9-12.5-4.6-18.3
			c-7.9-16.4-24.6-21.2-40.3-11.9c-4.9,2.9-9.3,6.8-13.9,10.3l0,0c-5.7,2.8-11.2,5.7-16.9,8.3c-3.7,1.7-7.8,2.8-11.7,4.2
			c-18.3,6.8-30.8,17.4-36.7,38.2c-12.9,45-29,89.1-43.8,133.5c-0.9,2.6-2,5.1-3,7.6c-9.9-16.7-25-27.4-41.9-36.1
			c-15.6-8.1-31.4-15.8-47.1-23.7c3-10.6,6.8-21,9-31.7c3.3-15.6-5.9-30.1-20.5-33.8c-0.2-0.1-0.5-0.1-0.7-0.1l-33,19.1
			c0,0.1-0.1,0.2-0.1,0.3c-3.1,8.8-5.6,17.8-8.3,26.7l-28.7-5.6l0,0l28.7,5.6c11,3.9,22.1,7.8,33.1,11.8c6.9,2.5,13.7,5.2,20.6,7.8
			c15.7,7.9,31.5,15.6,47.1,23.7c16.8,8.7,31.9,19.5,41.9,36.1c0.3,3.8,0.7,7.6,0.9,11.4c0.2,4.9-0.3,10,0.5,14.9
			c2.2,14.7,13.4,23.3,28.2,21.6c5.5-0.6,10.8-2,15.8-4.3c5.3-2.4,9.7-2.6,14.8,0.3c4.8,2.6,7.4,5.4,7.5,11.4
			c0.1,8.9,1.6,9.5,9.9,5.5c10.1-4.8,24,2.6,26.2,13.7c1.8,9.3,1.8,9.3,10.3,5.7c11.6-5.1,20.4-0.5,22.1,12.4
			c0.9,6.8,3.2,9.1,9.4,5.6c8.3-4.7,15.1-0.8,21,4.2c2.4,2,3.2,6.6,3.7,10.2c1.4,8,1.6,8.2,8.6,5c12-5.6,23.1,0.5,24,13.9
			c0.5,7,3.1,6.6,8.2,4.4c12.9-5.6,22.4,0.2,23.3,14.4c0.3,5.8,2.4,8.1,7.4,4.9c4.1-2.8,7.9-3.4,11.4-2.9l2.2-1.3
			c-12.4-10.6-18.9-18.7-16.8-22.2l28.7-49.7c0.1-0.5,0.1-0.9,0.4-1.2l6.8-11.9c0.1-0.3,0.1-0.7,0.3-1l32.9-56.9
			c-0.1,0.2-0.2,0.4-0.3,0.6l0,0c0.1-0.2,0.1-0.4,0.2-0.5s0.2-0.3,0.3-0.5l4.1-7.2c0.1-0.2,0.1-0.4,0.3-0.6L1061.4,1140z"/>
		<path d="M515.4,1269.1c0-0.3,0.1-0.7,0.1-1C515.4,1268.4,515.4,1268.7,515.4,1269.1z"/>
		<path d="M515.5,1267.6c0.1-0.4,0.1-0.8,0.1-1.2C515.6,1266.8,515.6,1267.2,515.5,1267.6z"/>
		<path d="M408.4,2377.1l-5.2,3l27.9,16.1l125.9-72.7C507.7,2341.8,458.2,2359.7,408.4,2377.1z"/>
		<path d="M979.4,861.6c29.2,14.4,56.7,32.7,82.3,55c57.2,49.7,95.2,110.9,108.5,186.4c2.7,15.4,3.5,30-6.2,43.4
			c-1.4,2-2.2,4.4-3.4,6.6c-4.8,9.6-7.4,14.9-10.8,16.4c5.3,2.8,10.6,5.8,16,8.9c17.7,10.3,33.8,20.6,47.2,30.2l885.2-511
			l-12.4-21.5l16.3-28.2h32.5l12.4,21.5l105.2-60.7l-332.9-192.2l-84.4-48.8L979.4,861.6z M1505.4,741.8H1462l-21.7-37.6l21.7-37.6
			h43.4l21.7,37.6L1505.4,741.8z M1691.7,746.5h-48.8l-24.4-42.3l24.4-42.3h48.8l24.4,42.3L1691.7,746.5z"/>
		<path d="M544.8,1240.7c0.1,0,0.2,0,0.3,0c17.2,0,30,13.5,30,31.5l0,0c0.1-18.1-12.7-31.5-30-31.5c-14.5,0-26.6,10.4-29.2,24.1
			C518.5,1251.1,530.4,1240.9,544.8,1240.7z"/>
		<path d="M575.2,1273.7c0,0.5,0.1,1,0,1.4C575.3,1274.6,575.2,1274.2,575.2,1273.7z"/>
		<path d="M515.4,1270.4c0,0.1,0,0.2,0,0.3l0,0c0-0.3,0-0.7,0-1C515.4,1270,515.4,1270.2,515.4,1270.4z"/>
		<polygon points="1482.5,1153.5 2339.2,658.8 2298.9,635.6 1462.3,1118.6 		"/>
		<path d="M1249.6,1241.5c1.1,1.7,1.6,3.2,1.8,4.5c0.7,1.6,0.7,2.9,0.1,3.9c0,0.1-0.1,0.1-0.1,0.1l-7.4,12.8
			c-0.1,0.2-0.1,0.4-0.3,0.6l-24.2,41.9l187.4-108.2l-20.1-34.9L1249.6,1241.5z"/>
		<path d="M517.8,1283c-1.5-3.6-2.3-7.6-2.4-11.8C515.4,1275.4,516.3,1279.4,517.8,1283z"/>
		<path d="M921.1,838.5l864.7-499.2l-24.6-14.2L887.1,829.8C898.6,832.2,910,835.1,921.1,838.5z"/>
		<path d="M515.7,1266.2c0.1-0.5,0.1-0.9,0.2-1.3C515.8,1265.2,515.8,1265.7,515.7,1266.2z"/>
		<path d="M1409.7,2536.5h37.1l1042.9-602.1V1898l-597.7,345.1l4.7,8l-16.3,28.2h-32.5l-4.7-8l-432,249.4l-1.2,2
			c-0.6,1.1-2.2,1.4-4.7,1.3l-85.7,49.5l3.8,6.6l-14.6,25.3h-29.2l-3.8-6.6L1029,2741.4l31.5,18.2l330.6-190.9L1409.7,2536.5z"/>
		<path d="M1274.3,2523.4c-25.3,1.2-50.5,1.4-75.8-0.7c-19.2-1.5-38-6.1-55.7-13.7c-8.7-3.8-17.5-7.8-26.1-11.9l-118.3,68.3
			c-3.7,4.1-8.4,7.4-13.9,9.8c-5.4,2.4-10.6,4.9-16,7.4l-107.2,61.9l103,59.5l313-180.7C1276.3,2523.3,1275.4,2523.4,1274.3,2523.4z
			"/>
		<path d="M1243.4,1263.9c0.1-0.1,0.3-0.3,0.4-0.5C1243.7,1263.5,1243.6,1263.7,1243.4,1263.9L1243.4,1263.9z"/>
		<path d="M748.3,2401c-7.8,2.3-15.4,5.1-22.9,8.3c-23,10-45.8,20.2-68.7,30.3c1.6,10,0.9,12-8.5,16.5
			c-20.8,9.8-41.7,19.6-62.6,29.2l30.1,17.4l180.2-104C780.6,2395.4,764.7,2396.2,748.3,2401z"/>
		<path class="st1" d="M395.6,1817.3c98.9-45.9,198.1-91.1,297.7-135.4c67.2-30.1,135-58.9,202.4-88.3c16.4-7.2,32.7-14.4,49.1-21.6
			l1487.9-859l-93.5-54l-856.8,494.7l4.9,8.4l-25.2,43.6h-50.3l-4.9-8.4l-187.4,108.2l-8.7,15c-0.1,0.2-0.2,0.3-0.4,0.5l-3.5,6
			c-0.1,0.4-0.1,0.7-0.3,1.1c-0.1,0.1-0.1,0.1-0.1,0.2l-28.6,49.6c-0.1,0.5-0.1,0.9-0.4,1.2c-0.2,0.3-0.5,0.7-0.9,0.9l0,0
			c0.4-0.3,0.7-0.6,0.9-0.9l-32.9,56.9c-4.3,7.5-44.5-7.6-92.3-34L31.2,1991.4v5.7c20.1-10.4,40.2-20.8,60.3-31.2
			C191.7,1913.9,293.3,1864.8,395.6,1817.3z"/>
		<path class="st1" d="M1176.1,1638.9l1.9-1.1c-0.7,0.2-1.2,0.5-1.9,0.7C1176.1,1638.5,1176.1,1638.7,1176.1,1638.9z"/>
		<path class="st1" d="M2060.5,1122.2c2.3,0.7,4.6,1.3,6.8,2l422.4-243.9v-74.7l-518.9,299.6
			C2001.2,1107.9,2031.1,1113.8,2060.5,1122.2z"/>
		<path class="st1" d="M1164.2,1601.1c3,10.4,6,20.9,9,31.4c0.6,2,2,3.9,3,5.8c-1-2-2.4-3.8-3-5.8
			C1170.1,1622.1,1167.2,1611.7,1164.2,1601.1z"/>
		<path class="st1" d="M1450.4,1417.3c28.4-3,56.7-2.4,84.7,3.6c0.9,0.1,1.9,0.1,2.8,0.1c0.1,0,0.1,0,0.1,0c-0.1,0-0.1,0-0.1,0
			c11.2-28.4,22.4-56.8,33.6-85.2l-158.4,91.4c6.6-2.2,13.1-4.3,19.7-6.4C1438.5,1419.2,1444.4,1417.9,1450.4,1417.3z"/>
		<path class="st1" d="M469.6,2027.7l16.3-28.2h32.5l8.3,14.3l559.1-322.8c-6.6,2.4-13.3,4.8-19.9,7.2
			c-71.1,25.4-141.5,52.7-211,82.4c-80.2,34.2-159.8,69.9-238.7,106.8L83.1,2195.2l64.7,37.3L477.9,2042L469.6,2027.7z"/>
		<path class="st1" d="M1549.1,1714.2c-4.1-2.4-8.2-4.7-12.2-7.1c-0.8-0.5-1.6-1-2.4-1.5h-0.1c0.8,0.5,1.6,1,2.4,1.5
			C1540.9,1709.6,1545,1711.9,1549.1,1714.2c-0.7,1.9-1.4,3.7-2.2,5.6l6.2-3.5C1551.8,1715.6,1550.5,1714.9,1549.1,1714.2z"/>
		<path class="st1" d="M1259.1,1885.2c1.1-0.4,2.1-0.7,3.1-1.1l97.3-56.1c6.6-10.6,12.9-21.4,18.9-32.3l-135.2,78.1
			c5.8-1.3,9.1,0.9,13.9,8.3C1257.8,1883.1,1258.5,1884.2,1259.1,1885.2c0,0.3,0.1,0.5,0.1,0.7h0.1
			C1259.3,1885.7,1259.2,1885.4,1259.1,1885.2z"/>
		<path class="st1" d="M1648.2,1661.3L1648.2,1661.3c5.5-7.8,8.9-17,9.7-27l0,0C1657.1,1644.3,1653.7,1653.6,1648.2,1661.3z"/>
		<path class="st1" d="M2301.6,1284l188.2-108.6V1154l-199.9,115.4C2293.9,1274.2,2297.9,1279.1,2301.6,1284z"/>
		<path class="st1" d="M1607.2,1666.7c14.4-0.5,24.9-9.9,30.2-20.5l0,0C1632.1,1656.8,1621.6,1666.1,1607.2,1666.7z"/>
		<path class="st1" d="M1812.4,1545.1L1812.4,1545.1c0.1,0.2,0.3,0.5,0.5,0.7c0.5,0.7,1,1.3,1.6,1.9c-0.6-0.6-1.1-1.2-1.5-1.9
			C1812.7,1545.6,1812.5,1545.3,1812.4,1545.1z"/>
		<path class="st1" d="M2082.8,1389l-260.3,150.3c-1,2.4-2,4.8-2.9,7.2c-0.7,1.4-1.4,2.8-2.2,4.1c-0.1-0.1-0.1-0.1-0.1-0.1
			c0.1,0.1,0.1,0.1,0.1,0.1c-0.1,4.5-0.3,8.9-0.4,13.3l278.3-160.7C2088,1400.4,2083.5,1396,2082.8,1389z"/>
		<path class="st1" d="M1602.9,1666.6c1.4,0.1,2.9,0.1,4.3,0.1C1605.8,1666.7,1604.4,1666.7,1602.9,1666.6z"/>
		<path class="st1" d="M402.3,2379.3c-0.1,0-0.2,0.1-0.3,0.1l1.2,0.7l5.2-3C406.4,2377.8,404.4,2378.5,402.3,2379.3z"/>
		<path class="st1" d="M1575.1,1834.4c1.4-2.1,2.6-4.3,3.7-6.6l-36.2,20.9C1555.1,1850.3,1567.8,1845,1575.1,1834.4z"/>
		<path class="st1" d="M1606.7,1732.6c-6.4-1.1-12.7-2.4-19.1-4l-56.6,32.7c-3.1,8-6.1,16-9.2,24l89.1-51.5
			C1609.6,1733.3,1608.2,1732.8,1606.7,1732.6z"/>
		<path class="st1" d="M2276.7,1491.8c0.7-8.7-1.1-8.9-9.6-4.8c-1.2,0.6-2.6,1.2-3.8,1.8c3.5,1.4,7.1,2.9,10.8,4.5L2276.7,1491.8z"
			/>
		<path class="st1" d="M1745.8,1738c-1.8-0.2-3.7,0.1-5.7,0.3c-1.4-0.4-2.7-1-4.1-1.3l0,0c1.4,0.4,2.8,1,4.1,1.3
			c-11.4,28.4-22.7,56.8-36.1,84.3l114.4-66C1795.6,1745.7,1771.1,1740.5,1745.8,1738z"/>
		<path class="st1" d="M2206.3,1494.7c0,0.1,0,0.1,0,0.1C2206.3,1494.7,2206.3,1494.7,2206.3,1494.7z"/>
		<path class="st1" d="M632,2295.5c-24.9,9.5-49.9,18.8-74.9,28.1l-125.9,72.7l16.2,9.3l202.7-117
			C644.1,2290.9,638.1,2293.2,632,2295.5z"/>
		<path class="st1" d="M1140.6,2080.7c0.1,0.9,0.3,1.6,0.5,2.5C1141,2082.3,1140.8,2081.5,1140.6,2080.7L1140.6,2080.7z"/>
		<path class="st1" d="M1148,2121.3c0.6,3.2,1.2,6.5,1.8,9.7c0.5,2.8,1,5.6,1.5,8.3c-0.5-2.8-1-5.6-1.5-8.3
			C1149.2,2127.7,1148.6,2124.5,1148,2121.3z"/>
		<path class="st1" d="M2173.3,1548.9c0.1-0.3,0.2-0.5,0.3-0.7l32.9-56.9c-0.5,0.8-0.6,1.8-0.4,2.9c-0.2-1.1-0.1-2.1,0.4-2.8
			c1.2-2.2,5-2.8,10.7-2.1c-2.3-3.7-3-6.6-1.9-8.6c2-3.5,9.9-3.5,21.9-0.4c-0.7-2.4-0.7-5.1,0.1-8.4c0.5-2.3-0.1-4.9-0.3-7.6
			c-4.6-0.9-7.8,1.5-10.7,3.6c-6.1,4.5-11.4,4.5-17.8,0.1c-1.1-0.8-2-1.4-2.8-2l-283.2,163.5c0.1,0.1,0.2,0.1,0.3,0.2
			c1,0.9,2,1.5,3.2,2c8.3,3.3,12.6,9.1,11.9,18.2c0,0.9,0.1,1.9,0.4,2.8c0.9,4.1,2,4.9,5.9,3.6c3.6-1.1,7.2-2.4,10.6-3.9
			c3.3-1.6,6-1.1,8.8,0.9c2,1.5,4.1,2.9,6.4,4c3.8,1.8,4.9,4.9,5.3,8.7l195.8-113.1L2173.3,1548.9z"/>
		<path class="st1" d="M2133.6,1425c-1.8-1.3-3.7-2.4-5.7-3.3c-1.6-0.8-2.8-1.8-3.5-3.1l-304.7,175.9c2.6,5.7,6.5,9.7,11,12.3
			l313.3-180.9C2140.5,1427.6,2137.1,1427.7,2133.6,1425z"/>
		<path class="st1" d="M2362.9,1404.7c3.2,10.8,5.8,21.8,8,32.8l118.9-68.7v-67.1l-135.3,78.1
			C2357.6,1387.9,2360.4,1396.2,2362.9,1404.7z"/>
		<path class="st1" d="M632.1,2374.8c-0.1-0.1-0.1-0.3-0.1-0.4l0,0C632,2374.5,632,2374.7,632.1,2374.8
			c6.8,18.2,13.8,36.4,20.7,54.6l0,0C645.9,2411.2,639,2393,632.1,2374.8z"/>
		<path class="st1" d="M1273.9,2070.8l242.3-139.9c-50.9,17-101.8,33.8-152.7,50.5c-22.8,7.5-45.7,14.5-68.6,21.6
			c-1-3.2-2-6.5-3-9.7h-0.1c1,3.2,2,6.4,3,9.7c-1.2,9-6.2,14.7-14.6,18.1c-24.3,9.8-48.4,19.9-72.6,29.8c13.1,2.4,26,5.7,38.7,9.7
			C1255.8,2063.7,1265,2067.1,1273.9,2070.8z"/>
		<path class="st1" d="M2326.3,1320.8l163.5-94.4v-18.7l-172,99.3C2320.8,1311.5,2323.6,1316.1,2326.3,1320.8z"/>
		<path class="st1" d="M855.1,2275.8c9.7-0.3,19.4,0.6,29,1c5.9-19.4,11.9-38.8,17.8-58.2l-169.9,98.1c24.3-10.3,48.8-20.2,73-30.8
			C821.2,2278.8,837.9,2276.3,855.1,2275.8z"/>
		<path class="st1" d="M1267.3,1913.5L1267.3,1913.5c1.6,5.3,3.2,10.6,4.8,15.9h0.1C1270.6,1924.1,1269,1918.8,1267.3,1913.5z"/>
		<path class="st1" d="M996.8,1373.4c2-1.2,4-1.8,5.8-2.2c-6.4-4.3-12.4-8.5-17.7-12.6c1.4,2.4,2,6,2.5,8.9
			C988.3,1373.7,990.4,1377,996.8,1373.4z"/>
		<path class="st1" d="M2150.9,676.1l-16.3,28.2H2102l-3.9-6.7l-885.2,511c18.7,13.4,31.9,25.2,36.6,32.9l137.3-79.3l-0.1-0.3
			l25.2-43.6h50.3l0.1,0.3l836.6-483l-46.7-27L2147,669.3L2150.9,676.1z"/>
		<path class="st1" d="M976.1,1351.9c-1.6-1.3-3.2-2.6-4.6-3.8l-2.2,1.3C971.7,1349.7,973.9,1350.6,976.1,1351.9z"/>
		<path class="st1" d="M864.5,1421.5c-5.4-0.6-10.7-1.4-16-2.4l-77.5,44.8l4.4,7.6l-16.3,28.2h-32.5l-4.4-7.6L31.2,1891v54
			l899.7-519.5C908.8,1425.1,886.6,1424,864.5,1421.5z"/>
		<path class="st1" d="M582.1,1090.9l33-19.1C600.8,1068.5,587.3,1076.2,582.1,1090.9z"/>
		<path class="st1" d="M979.4,861.6l855.5-494l-49.1-28.3L921.1,838.5C941.2,844.6,960.6,852.3,979.4,861.6z"/>
		<path class="st1" d="M228,1282.2c-11.3,4.3-22.5,8.9-33.7,13.3c2.1,11.8-3.7,18.1-14.2,22.6c-44.2,18.7-88.3,37.7-132.2,56.9
			c-5.6,2.4-11.2,4.9-16.7,7.4v26.5l266.6-153.9C274.2,1263,251.2,1273.2,228,1282.2z"/>
		<path class="st1" d="M480.6,1099.9c0.9-2.9,1.9-5.8,2.8-8.7l-14.1,8.1C473,1099.6,476.9,1099.7,480.6,1099.9l64.3,12.5l0,0
			L480.6,1099.9z"/>
		<path class="st1" d="M961.7,2419.6c-0.1,0.3-0.2,0.5-0.3,0.7C961.5,2420.1,961.6,2419.9,961.7,2419.6z"/>
		<path class="st1" d="M962.1,2418.6c-0.1,0.3-0.1,0.5-0.3,0.7C961.9,2419,962,2418.8,962.1,2418.6z"/>
		<path class="st1" d="M938.7,2386.8L938.7,2386.8c-11.8-0.3-21.8,8.4-23.7,19.5C916.9,2395.3,926.8,2386.6,938.7,2386.8z"/>
		<path class="st1" d="M962.4,2417.4c-0.1,0.2-0.1,0.5-0.2,0.7C962.3,2417.9,962.3,2417.6,962.4,2417.4z"/>
		<path class="st1" d="M961.3,2420.7c-0.1,0.3-0.2,0.5-0.3,0.8C961.1,2421.2,961.2,2420.9,961.3,2420.7z"/>
		<path class="st1" d="M962.9,2415.1c0,0.2-0.1,0.4-0.1,0.6C962.8,2415.5,962.9,2415.3,962.9,2415.1z"/>
		<path class="st1" d="M914.6,2410.9c0.4,13.9,10.1,24,23.5,24.4l0,0C924.7,2434.9,915.1,2424.8,914.6,2410.9c0-0.4,0-0.9,0-1.2
			C914.6,2410.1,914.6,2410.5,914.6,2410.9z"/>
		<path class="st1" d="M962.7,2416.3c-0.1,0.2-0.1,0.4-0.1,0.7C962.6,2416.7,962.6,2416.5,962.7,2416.3z"/>
		<path class="st1" d="M907.3,2558.2c11.5,2.1,22.1-4.6,25.9-16.8c3-9.7,5.7-19.4,8.5-29l-52.1,30.1
			C891.7,2550.5,898.3,2556.6,907.3,2558.2z"/>
		<path class="st1" d="M2400.9,1701.7c-0.7,1.2-2.3,2-4.6,2.3c0.9,2.1,1,3.8,0.3,5.1l-8.5,14.8c-0.1,0.5-0.2,0.9-0.4,1.2l-32.9,56.9
			c-0.1,0.2-0.3,0.5-0.5,0.6l135.6-78.3v-85.8l-61.4,35.4L2400.9,1701.7z"/>
		<path class="st1" d="M960.4,2422.5c0.1-0.3,0.3-0.5,0.4-0.8C960.7,2422,960.6,2422.2,960.4,2422.5L960.4,2422.5z"/>
		<path class="st1" d="M2376.1,1487.8c0.1,3.4-0.1,7.2-1.6,10.1c-6.8,12.3-13.9,24.4-21,36.5c26.6,15.8,49.9,31.5,67,45.1l69.3-40
			v-118.8l-113.8,65.7C2376.1,1486.8,2376.1,1487.3,2376.1,1487.8z"/>
		<path class="st1" d="M1977.6,1828.8c-35.9-6.4-68.9-20.4-100.3-38.7c-4.5-2.6-9.1-5.3-13.5-8l-542.6,313.3
			c17.5,11.2,33.8,24.3,48.9,39.5c10.8,10.8,20.4,22.2,29,34.3l587.1-339C1983.3,1829.8,1980.4,1829.3,1977.6,1828.8z"/>
		<path class="st1" d="M940.2,2595.6c-31.5,13.3-63,26.6-94.6,39.9l15.6,9l107.2-61.9C959.2,2587.1,949.8,2591.6,940.2,2595.6z"/>
		<path class="st1" d="M1269.8,2240.3c-0.7-3-1-6.2-1.6-10.4c-3.4,2.1-6.2,3.5-8.5,5.4c-2.6,2.1-5.1,2.7-8,0.7
			c-0.3-0.3-0.8-0.5-1.2-0.6c-5.9-1.6-9.1-5.1-8.9-11.6c0.1-1.5-0.7-3-1.2-5.3c-3,1.5-5.7,2.6-8,4.2c-3,2-5.8,2.1-8.8,0.1
			c-0.7-0.5-1.6-0.9-2.4-1.2c-8-2.7-12.7-7.5-11.3-16.6c0.3-1.7-0.5-3.5-0.9-5.3c-5.3-20.3-24.4-26.1-40.3-12.3
			c-2.4,2-4.9,3.9-7.3,5.8c-0.3-1.6-0.7-3.3-0.9-4.9l0,0c0.3,1.6,0.7,3.3,0.9,4.9c-4.3,2.2-8.7,4.5-13.1,6.7
			c-8.6,4.3-17.3,8.7-25.9,12.9c-4.4,2.2-6.2,6-7.6,10.6c-7,22.8-14.2,45.5-21.4,68.3c-5.8,18.7-11.9,37.3-17.9,55.9
			c-2.4-2.7-4.7-5.4-7-8.1c-1-1.1-2-2.2-3-3.2c1.1,1.1,2.1,2.1,3,3.2c2.4,2.7,4.7,5.4,7,8.1c0.1,2.8,0.3,5.5,0.5,8.3l195-112.6
			C1270.4,2242.4,1270,2241.2,1269.8,2240.3z"/>
		<path class="st1" d="M1328.6,2351c0.1-0.3,0.1-0.5,0.3-0.7l32.9-56.9c-0.3,0.5-0.3,1.2-0.1,2c0,0,0,0,0-0.1
			c-0.2-0.7-0.1-1.4,0.1-1.9c0.9-1.5,3.9-1.7,8.6-0.8c1.8,0.1,3.8,0.5,6,1c-0.6-0.9-0.9-2.1-1.1-3.5c-0.9-11.8-1.2-12.1-10.8-5.7
			c-5.1,3.4-8.3,0-12.4-1.3c-3.2-1-3.8-3-3.9-5.4l-200.6,115.8c2.1,0.7,4.2,1.8,6.3,2.9c3.1,1.7,4.9,3.7,5.4,7.1
			c0.4,2.6,1.2,5.1,2,8c2.6-1.1,4.6-1.6,6.2-2.7c4.8-3.2,9.1-2.2,13.7,0.7c2.6,1.6,3.9,3.4,4.2,6.4c0.3,2.6,1,5.2,1.6,8.5
			c3.4-1.2,6.2-2.1,8.9-3c7.2-2.6,15.9,2.4,17.2,9.9c1.5,8.2,1.6,8.3,9.3,4.4c0.7-0.4,1.4-0.7,2.2-0.9l83.3-48.1L1328.6,2351z"/>
		<path class="st1" d="M1403.4,2302.8c-0.1-3.4-0.9-6.6-1.4-11c-3.7,2-6.9,3.4-9.7,5.4c-0.4,0.3-0.9,0.5-1.2,0.8
			c3.9,1.4,8.1,3.1,12.5,5.1C1403.4,2302.9,1403.4,2302.8,1403.4,2302.8z"/>
		<path class="st1" d="M1005.5,2303.9c-0.9-0.4-1.6-1.4-2.4-2.2c0.5-2.2,1.1-4.3,1.6-6.5c1.6-5.8,3.5-11.6,4.8-17.5
			c0.2-0.9,0.3-1.6,0.4-2.5l-33.3,19.2c7.8,2.6,15.6,5.3,23.4,7.8c0.9,0.3,2-0.3,3-0.5C1003.9,2302.4,1004.6,2303.5,1005.5,2303.9
			c10.4,4.8,21,9.1,31.2,14.2c5.5,2.7,11,5.5,16.1,8.7c-5.2-3.2-10.6-6-16.2-8.7C1026.5,2313,1015.9,2308.7,1005.5,2303.9z"/>
		<path class="st1" d="M2390.2,1711.4c-2.6,0.1-6-0.4-10.1-1.3l0,0C2384.2,1711,2387.5,1711.5,2390.2,1711.4z"/>
		<path class="st1" d="M1053.2,2475.7c-2-0.1-4-0.6-6-0.9l0,0l-12.2-0.1l0,0l-0.2,0.1l0,0c-6.8,19.7-13.3,39.3-20.3,58.8
			c-2.6,7.2-6.2,14-9.3,21.1c-1.8,4.1-4,7.6-6.8,10.6l118.3-68.3c-4-1.9-8-3.9-12-5.8C1088.4,2483,1071.6,2477.2,1053.2,2475.7z"/>
		<path class="st1" d="M939.5,2376c16.4-0.3,35.1,14.3,34.6,33.5C974.6,2390.2,955.9,2375.6,939.5,2376
			c-21.6,0.4-35.7,15.7-35.4,35.6l0,0C903.8,2391.6,917.8,2376.3,939.5,2376z"/>
		<path class="st1" d="M974.2,2414.6L974.2,2414.6C974.2,2414.5,974.2,2414.5,974.2,2414.6L974.2,2414.6z"/>
		<path class="st1" d="M963.2,2411.9c0-0.3,0-0.5,0-0.8l0,0c0,0.3,0,0.7,0,1C963.2,2412.1,963.2,2411.9,963.2,2411.9z"/>
		<path class="st1" d="M2340.5,1790.5L2340.5,1790.5c-16.4-2.2-49-15.3-87.3-35.4l0,0C2291.4,1775.2,2324,1788.4,2340.5,1790.5z"/>
		<path class="st1" d="M2186.8,1793.5l-0.7,0.5c0.9,0.5,1.8,1.1,2.6,1.6c-1.2,2.4-2,4.3-3.2,6.1c-6.1,10.3-12.6,20.4-18.4,31
			c-2.8,5.1-6.1,7.1-11.9,7c-16-0.3-31.9-0.2-47.9-0.3l-677,390.9c3.4,9.9,6,20.2,8,30.9c0.1,0.9,0.4,1.8,0.5,2.6
			c2.6,16.4,2.6,16.4-4.5,31.7c-2.8,5.9-5.7,11.8-8.5,17.7c-0.1,0.2-0.2,0.4-0.3,0.6c1.5,0.8,3,1.6,4.5,2.4l835.6-482.5
			c-21.6-9.2-48.1-22.5-76-38.6C2188.7,1794.6,2187.7,1794.1,2186.8,1793.5z"/>
		<path class="st1" d="M2351.4,1784.2l0.7-0.4c-0.2,0.1-0.5,0.1-0.7,0.2C2351.4,1784.1,2351.4,1784.2,2351.4,1784.2z"/>
		<path class="st1" d="M2185.1,1715.4L2185.1,1715.4c-45.4-29.4-75.1-55.7-70.5-63.7C2110,1659.8,2139.8,1686,2185.1,1715.4z"/>
		<path class="st1" d="M827.5,2459c3.8-10.8,7.8-21.6,11.4-32.5c0.7-2.2,0.3-4.7,0.5-7.1c9.2,8,18.4,15.8,27.5,23.8
			c8,7,16.3,13.3,25.4,18.5l0,0c-9.1-5.2-17.5-11.5-25.4-18.5c-9.1-8-18.3-15.8-27.5-23.8c-3.9-2.6-7.8-5.3-11.8-7.8
			c-10.3-6.4-20.8-10.6-31.6-12.9l-180.2,104l102.9,59.4l89.5-51.7C815.1,2493.5,821.4,2476.3,827.5,2459z"/>
		<path class="st1" d="M2081.7,1708.7l32.9-56.9c0.6-1.1,1.7-1.7,3.4-2.1c-0.7-1.8-0.7-3.3-0.1-4.4l8.5-14.7l-110.9,64
			c0,0.3,0,0.7,0,1.1c-0.1,10.8,0.7,11.2,10.7,6.5c6.4-3.1,11.8-3.2,17.2,1.6c1.7,1.4,3.6,2.6,5.6,3.5c3.2,1.7,4.3,4.1,4.3,7.8
			c-0.1,4.3,0.2,8.7,0.4,14.3c5.5-1.7,10-2.7,14.2-4.6c4-1.8,7.3-1.4,10.6,1.2c0.5,0.4,1.1,0.7,1.6,1.1c11.8,7.8,9.8,4.4,10,17.8
			c0.1,2.7,0.5,5.5,0.9,8.9c3.3-0.7,5.7-1.2,8-1.9c3-0.9,6-1.9,9.1-2.8c5.5-1.7,9.3,0.9,13,3.7l1.4-0.8
			C2094.5,1731.3,2078.2,1714.7,2081.7,1708.7z"/>
		<path class="st1" d="M963.1,2414c0,0.2-0.1,0.4-0.1,0.6C963,2414.4,963,2414.2,963.1,2414z"/>
		<path class="st1" d="M963.1,2412.7c0,0.2,0,0.4-0.1,0.6C963.1,2413.1,963.1,2412.9,963.1,2412.7z"/>
		<path class="st1" d="M2023.3,2095.4l-29.2,50.5h-58.3l-1.2-2.1l-458.4,264.7l-4.7,8.1c-0.1,0.1-0.1,0.3-0.2,0.4
			c-0.1,0.1-0.1,0.3-0.3,0.3l-0.1,0.1c0.1-0.1,0.3-0.3,0.3-0.5l-32.9,56.9c-0.1,0.2-0.2,0.3-0.4,0.5l-5.4,9.4
			c-0.1,0.3-0.3,0.5-0.5,0.6l-21,36.3l432-249.4l-11.6-20.2l16.3-28.2h32.5l11.6,20.2l597.7-345.1v-74.7l-467.7,270L2023.3,2095.4z"
			/>
		<path class="st1" d="M1265.1,2580.1l14.6-25.3h29.2l10.8,18.7l85.7-49.5c-10.9-0.6-38.6-12.4-69.2-30.1c-1.4-0.8-2.7-1.6-4-2.4
			l0,0c-4.3,8.7-8.5,17.2-12.6,25.6c-1.2,2.6-3.3,2.7-5.6,2.9c-12.2,1.1-24.4,2.4-36.7,3.1l-313,180.7l64.7,37.3l246.9-142.5
			L1265.1,2580.1z"/>
		<polygon class="st1" points="1460,2536.5 1466.7,2548 2489.8,1957.3 2489.8,1934.4 1446.9,2536.5 		"/>
		<polygon class="st1" points="1157.1,2842.8 1172.2,2812.2 2484.4,2054.6 2477.8,2070.6 1140.3,2842.8 		"/>
		<polygon class="st1" points="1384.6,2580.1 1391.2,2568.7 1060.6,2759.6 1080.4,2771 1391.2,2591.6 		"/>
		<path class="st2" d="M2057.2,1381.5c-3.7-2.5-7.6-4.6-11.4-6.7c-3.4-1.9-5.9-4.3-7.4-7.2l-190.8,110.2
			c-4.8,11.8-9.5,23.5-14.3,35.2l225.9-130.5C2058.5,1382.3,2057.9,1382,2057.2,1381.5z"/>
		<path class="st2" d="M2278.3,1256.1l211.5-122.1v-27l-228.2,131.8C2267.4,1244.4,2272.9,1250.2,2278.3,1256.1z"/>
		<path class="st2" d="M1499.7,1678.6L1499.7,1678.6c6,5.7,12.4,11,18.9,16.1h0.1C1512.1,1689.7,1505.8,1684.3,1499.7,1678.6z"/>
		<path class="st2" d="M1412.2,1729.2l-458,264.4c21.8-9.3,43.4-18.8,65.3-27.8c33.2-13.7,66.5-27,99.8-40.5l274.5-158.5
			C1400.2,1754.3,1406.3,1741.8,1412.2,1729.2z"/>
		<path class="st2" d="M1640.6,1624.3L1640.6,1624.3c-1.4-8-5.6-15.1-11.4-20.4l0,0C1635,1609.2,1639.2,1616.3,1640.6,1624.3z"/>
		<path class="st2" d="M1798.6,1528.1c1.1,1.1,2,2.1,3.1,3.2l0,0C1800.6,1530.2,1799.6,1529.1,1798.6,1528.1z"/>
		<path class="st3" d="M1734,1736.6c-40.1-0.3-80.2,0.7-120.3-2c-0.9-0.3-1.8-0.6-2.7-0.9l-89.1,51.5c-2.1,5.6-4.3,11.1-6.4,16.7
			c-0.7,2.1-1.3,4.2-1.6,6.4c-3.1,15.8,5.2,31.6,20,38c2.8,1.2,5.8,2,8.7,2.4l36.2-20.9c0.7-1.4,1.2-2.8,1.8-4.3
			c8.5-22.1,17-44.3,25.2-66.4c2.8-7.4,5.3-14.9,7.9-22.3C1653.8,1737.3,1693.9,1736.4,1734,1736.6c0.7,0,1.4,0.1,2.1,0.3l0,0
			C1735.4,1736.7,1734.7,1736.6,1734,1736.6z"/>
		<path class="st3" d="M2200,1454c-0.2-3.2-0.5-6.3-0.8-9.5c-0.1-0.5-0.7-1-1.6-2.4c-4.6,1.8-9.6,3.7-14.3,5.8
			c-3.8,1.8-7.2,1.9-10.5-0.8c-0.8-0.5-1.6-1-2.5-1.4c-12.1-7.4-10.4-3.5-10-17.3c0.1-1.9,0.1-3.8-0.1-5.7c-0.1-0.9-0.7-1.7-1.4-3.5
			c-4.7,2-9.3,3.7-13.7,6c-0.3,0.2-0.7,0.3-1,0.5l-313.2,181c5.8,3.3,12.8,4.3,19.5,3.7c7.2-0.6,14.3-2.6,21.1-5.1
			c5.1-1.8,9.1-1.6,13.3,1.2c1.8,1.2,3.7,2.4,5.7,3.4c3.2,1.6,4.4,4.1,4.4,7.6c0,4.6-0.9,9.5,2.6,14.5c3.4-1.2,7.1-2.1,10.3-3.9
			c5.3-3,10-2.4,14.6,1.1l283.2-163.5C2200.8,1462.5,2200.5,1461.7,2200,1454z"/>
		<path class="st3" d="M590.6,2359.7c6.2-3.2,12.8-5.7,19.3-8.1c7.8-3,14.2-1.2,16.7,8.1c0.3,1.1,1.1,2,1.6,2.9
			c1.2,3.9,2.4,7.9,3.8,11.8l0,0c-1.4-3.9-2.6-7.8-3.8-11.7c30.1-13.4,60-27.1,90.2-40.2c4.5-2,9.1-3.9,13.7-5.8l169.9-98.1
			c2.4-7.8,4.7-15.6,7-23.3c1.7-5.7,4.1-11,7-15.8c-33.6,15-67.6,29.4-101.9,43.2c-54.6,22-109,44.8-164,66l-202.7,117l27.3,15.8
			c21.2-11.3,42.5-22.5,63.7-33.8C555.9,2378.2,573.1,2368.8,590.6,2359.7z"/>
		<path class="st3" d="M1140.6,2080.7c-0.1-0.7-0.3-1.2-0.3-1.9l0,0C1140.4,2079.4,1140.5,2080,1140.6,2080.7L1140.6,2080.7z"/>
		<path class="st3" d="M2354.6,1379.8l135.3-78.1v-75.4l-163.5,94.4C2337.3,1339.4,2346.8,1359,2354.6,1379.8z"/>
		<path class="st3" d="M1272.2,1929.3L1272.2,1929.3c6.5,21.4,13.1,42.7,19.7,64h0.1C1285.3,1972,1278.8,1950.7,1272.2,1929.3z"/>
		<path class="st1" d="M2442.9,1599.6l46.9-27.1v-33.1l-69.3,40C2430,1587,2437.6,1593.8,2442.9,1599.6z"/>
		<path class="st4" d="M2442.9,1599.6l46.9-27.1v-33.1l-69.3,40C2430,1587,2437.6,1593.8,2442.9,1599.6z"/>
		<path class="st1" d="M808.2,2510.4l-89.5,51.7l28.6,16.5l40.4-23.3C795.1,2540.6,801.9,2525.6,808.2,2510.4z"/>
		<path class="st4" d="M808.2,2510.4l-89.5,51.7l28.6,16.5l40.4-23.3C795.1,2540.6,801.9,2525.6,808.2,2510.4z"/>
		<path class="st1" d="M957.8,2426.5c-0.2,0.3-0.5,0.5-0.7,0.8C957.3,2427,957.6,2426.8,957.8,2426.5z"/>
		<path class="st4" d="M957.8,2426.5c-0.2,0.3-0.5,0.5-0.7,0.8C957.3,2427,957.6,2426.8,957.8,2426.5z"/>
		<path class="st1" d="M906.5,2469.9c-2-1.3-4-2.9-6.2-3.9c-2.7-1.3-5.3-2.7-8-4.1l0,0c2.6,1.4,5.2,2.9,8,4.1
			C902.5,2467,904.4,2468.6,906.5,2469.9c-0.9,3.3-1.7,6.5-2.6,9.8c-1,3.4-2,6.8-3,10.3l25.6-14.7
			C919.7,2473.5,913.1,2471.7,906.5,2469.9z"/>
		<path class="st4" d="M906.5,2469.9c-2-1.3-4-2.9-6.2-3.9c-2.7-1.3-5.3-2.7-8-4.1l0,0c2.6,1.4,5.2,2.9,8,4.1
			C902.5,2467,904.4,2468.6,906.5,2469.9c-0.9,3.3-1.7,6.5-2.6,9.8c-1,3.4-2,6.8-3,10.3l25.6-14.7
			C919.7,2473.5,913.1,2471.7,906.5,2469.9z"/>
		<path class="st1" d="M958.5,2425.6c-0.2,0.3-0.4,0.5-0.6,0.8C958.1,2426.1,958.3,2425.9,958.5,2425.6z"/>
		<path class="st4" d="M958.5,2425.6c-0.2,0.3-0.4,0.5-0.6,0.8C958.1,2426.1,958.3,2425.9,958.5,2425.6z"/>
		<path class="st1" d="M1296.4,2256.4c-1.1-0.8-1.1-3.7-1.1-5.7c-0.5-8.7-0.8-9.3-8.1-4.3c-5.8,3.9-10.2,1.7-14.8-1.1
			c-0.7-0.4-1.2-1.2-1.6-2l-195,112.6c0,0.3,0.1,0.7,0.1,1.1c0.4,4.9,0.3,10,1.4,14.7c1.3,5.2,4.3,9.2,8.4,11.5l215-124.1
			C1299.3,2258.3,1297.8,2257.3,1296.4,2256.4z"/>
		<path class="st4" d="M1296.4,2256.4c-1.1-0.8-1.1-3.7-1.1-5.7c-0.5-8.7-0.8-9.3-8.1-4.3c-5.8,3.9-10.2,1.7-14.8-1.1
			c-0.7-0.4-1.2-1.2-1.6-2l-195,112.6c0,0.3,0.1,0.7,0.1,1.1c0.4,4.9,0.3,10,1.4,14.7c1.3,5.2,4.3,9.2,8.4,11.5l215-124.1
			C1299.3,2258.3,1297.8,2257.3,1296.4,2256.4z"/>
		<path class="st1" d="M959.2,2424.7c-0.2,0.3-0.4,0.5-0.6,0.9C958.8,2425.2,959,2424.9,959.2,2424.7z"/>
		<path class="st4" d="M959.2,2424.7c-0.2,0.3-0.4,0.5-0.6,0.9C958.8,2425.2,959,2424.9,959.2,2424.7z"/>
		<path class="st1" d="M956.3,2428.2c-0.3,0.3-0.5,0.5-0.7,0.7C955.8,2428.7,956,2428.5,956.3,2428.2z"/>
		<path class="st4" d="M956.3,2428.2c-0.3,0.3-0.5,0.5-0.7,0.7C955.8,2428.7,956,2428.5,956.3,2428.2z"/>
		<path class="st1" d="M957.1,2427.4c-0.3,0.3-0.5,0.5-0.7,0.8C956.6,2427.9,956.8,2427.6,957.1,2427.4z"/>
		<path class="st4" d="M957.1,2427.4c-0.3,0.3-0.5,0.5-0.7,0.8C956.6,2427.9,956.8,2427.6,957.1,2427.4z"/>
		<path class="st1" d="M955.4,2429c-0.3,0.3-0.5,0.5-0.8,0.7C954.9,2429.5,955.2,2429.3,955.4,2429z"/>
		<path class="st4" d="M955.4,2429c-0.3,0.3-0.5,0.5-0.8,0.7C954.9,2429.5,955.2,2429.3,955.4,2429z"/>
		<path class="st1" d="M2212.7,1732.5L2212.7,1732.5c-9.7-5.7-18.9-11.5-27.6-17.1l0,0C2193.8,1721,2203,1726.8,2212.7,1732.5z"/>
		<path class="st4" d="M2212.7,1732.5L2212.7,1732.5c-9.7-5.7-18.9-11.5-27.6-17.1l0,0C2193.8,1721,2203,1726.8,2212.7,1732.5z"/>
		<path class="st1" d="M2122.3,1751.7l-1.4,0.8c2.3,1.8,4.5,3.6,7,4.7c4.1,1.6,5.1,5.1,5.3,9.1c0.1,3.6,0.7,7.2,1.2,11.4l13.9-8
			C2138.8,1763.5,2130.1,1757.4,2122.3,1751.7z"/>
		<path class="st4" d="M2122.3,1751.7l-1.4,0.8c2.3,1.8,4.5,3.6,7,4.7c4.1,1.6,5.1,5.1,5.3,9.1c0.1,3.6,0.7,7.2,1.2,11.4l13.9-8
			C2138.8,1763.5,2130.1,1757.4,2122.3,1751.7z"/>
		<path class="st1" d="M939.9,2446.4c16.9,0.6,34.2-16.2,34.4-31.9l0,0C974.1,2430.2,956.7,2447,939.9,2446.4z"/>
		<path class="st4" d="M939.9,2446.4c16.9,0.6,34.2-16.2,34.4-31.9l0,0C974.1,2430.2,956.7,2447,939.9,2446.4z"/>
		<path class="st1" d="M960.4,2422.7c-0.1,0.3-0.3,0.5-0.5,0.9C960,2423.3,960.2,2423,960.4,2422.7z"/>
		<path class="st4" d="M960.4,2422.7c-0.1,0.3-0.3,0.5-0.5,0.9C960,2423.3,960.2,2423,960.4,2422.7z"/>
		<path class="st1" d="M959.8,2423.7c-0.2,0.3-0.3,0.5-0.5,0.9C959.4,2424.3,959.6,2423.9,959.8,2423.7z"/>
		<path class="st4" d="M959.8,2423.7c-0.2,0.3-0.3,0.5-0.5,0.9C959.4,2424.3,959.6,2423.9,959.8,2423.7z"/>
		<path class="st1" d="M1986.2,1830.3l-587.1,339c5.6,7.8,10.6,15.9,15.2,24.3l618.9-357.3
			C2017.4,1834.8,2001.8,1832.8,1986.2,1830.3z"/>
		<path class="st4" d="M1986.2,1830.3l-587.1,339c5.6,7.8,10.6,15.9,15.2,24.3l618.9-357.3
			C2017.4,1834.8,2001.8,1832.8,1986.2,1830.3z"/>
		<path class="st1" d="M953.7,2430.5c-0.3,0.2-0.5,0.4-0.9,0.6C953.1,2430.9,953.4,2430.7,953.7,2430.5z"/>
		<path class="st4" d="M953.7,2430.5c-0.3,0.2-0.5,0.4-0.9,0.6C953.1,2430.9,953.4,2430.7,953.7,2430.5z"/>
		<path class="st1" d="M938.1,2435.4L938.1,2435.4c0.1,0,0.3,0,0.5,0c0.3,0,0.5,0,0.7,0c-0.3,0-0.5,0-0.7,0
			C938.5,2435.4,938.3,2435.4,938.1,2435.4z"/>
		<path class="st4" d="M938.1,2435.4L938.1,2435.4c0.1,0,0.3,0,0.5,0c0.3,0,0.5,0,0.7,0c-0.3,0-0.5,0-0.7,0
			C938.5,2435.4,938.3,2435.4,938.1,2435.4z"/>
		<path class="st1" d="M947.7,2433.9c-2.6,1-5.3,1.5-8.2,1.6C942.3,2435.4,945.1,2434.8,947.7,2433.9z"/>
		<path class="st4" d="M947.7,2433.9c-2.6,1-5.3,1.5-8.2,1.6C942.3,2435.4,945.1,2434.8,947.7,2433.9z"/>
		<path class="st1" d="M948.7,2433.4c-0.3,0.1-0.7,0.3-1.1,0.4C948,2433.7,948.4,2433.5,948.7,2433.4z"/>
		<path class="st4" d="M948.7,2433.4c-0.3,0.1-0.7,0.3-1.1,0.4C948,2433.7,948.4,2433.5,948.7,2433.4z"/>
		<path class="st1" d="M949.8,2433c-0.3,0.1-0.7,0.3-1,0.5C949.1,2433.2,949.4,2433.1,949.8,2433z"/>
		<path class="st4" d="M949.8,2433c-0.3,0.1-0.7,0.3-1,0.5C949.1,2433.2,949.4,2433.1,949.8,2433z"/>
		<path class="st1" d="M960.4,2422.5L960.4,2422.5L960.4,2422.5L960.4,2422.5z"/>
		<path class="st4" d="M960.4,2422.5L960.4,2422.5L960.4,2422.5L960.4,2422.5z"/>
		<path class="st1" d="M954.6,2429.8c-0.3,0.2-0.5,0.5-0.8,0.7C954,2430.2,954.3,2430,954.6,2429.8z"/>
		<path class="st4" d="M954.6,2429.8c-0.3,0.2-0.5,0.5-0.8,0.7C954,2430.2,954.3,2430,954.6,2429.8z"/>
		<path class="st1" d="M950.8,2432.4c-0.3,0.2-0.7,0.3-0.9,0.5C950.2,2432.8,950.4,2432.6,950.8,2432.4z"/>
		<path class="st4" d="M950.8,2432.4c-0.3,0.2-0.7,0.3-0.9,0.5C950.2,2432.8,950.4,2432.6,950.8,2432.4z"/>
		<path class="st1" d="M951.7,2431.8c-0.3,0.2-0.6,0.4-0.9,0.5C951.2,2432.2,951.5,2432,951.7,2431.8z"/>
		<path class="st4" d="M951.7,2431.8c-0.3,0.2-0.6,0.4-0.9,0.5C951.2,2432.2,951.5,2432,951.7,2431.8z"/>
		<path class="st1" d="M952.7,2431.2c-0.3,0.2-0.6,0.4-0.9,0.6C952.1,2431.6,952.5,2431.4,952.7,2431.2z"/>
		<path class="st4" d="M952.7,2431.2c-0.3,0.2-0.6,0.4-0.9,0.6C952.1,2431.6,952.5,2431.4,952.7,2431.2z"/>
		<path class="st1" d="M2253.2,1755.2L2253.2,1755.2c-9.5-5-19.3-10.4-29.3-16.1l0,0C2233.9,1744.8,2243.7,1750.2,2253.2,1755.2z"/>
		<path class="st5" d="M2253.2,1755.2L2253.2,1755.2c-9.5-5-19.3-10.4-29.3-16.1l0,0C2233.9,1744.8,2243.7,1750.2,2253.2,1755.2z"/>
		<path class="st1" d="M2067,1838.5c-4.7-0.2-9.4-0.5-14.1-0.7l-633.6,365.8c4.1,8.6,7.8,17.5,10.9,26.7l677-390.9
			C2093.9,1839.3,2080.4,1839.1,2067,1838.5z"/>
		<path class="st5" d="M2067,1838.5c-4.7-0.2-9.4-0.5-14.1-0.7l-633.6,365.8c4.1,8.6,7.8,17.5,10.9,26.7l677-390.9
			C2093.9,1839.3,2080.4,1839.1,2067,1838.5z"/>
		<path class="st1" d="M2450.7,1615.8c-1.3,2.2-4.9,3-10.4,2.6c3.1,4.2,4.2,7.5,3,9.6c0,0,0,0.1-0.1,0.1l-9.3,16
			c-0.1,0.3-0.2,0.5-0.3,0.7l-5.3,9.2l61.4-35.4v-33.1l-40.1,23.1C2451.3,1611.7,2451.7,1614.1,2450.7,1615.8z"/>
		<path class="st5" d="M2450.7,1615.8c-1.3,2.2-4.9,3-10.4,2.6c3.1,4.2,4.2,7.5,3,9.6c0,0,0,0.1-0.1,0.1l-9.3,16
			c-0.1,0.3-0.2,0.5-0.3,0.7l-5.3,9.2l61.4-35.4v-33.1l-40.1,23.1C2451.3,1611.7,2451.7,1614.1,2450.7,1615.8z"/>
		<path class="st1" d="M1348.1,2275.5c-0.1-2.4-0.8-4.7-1.2-7.1l-7.1,3.2c-2,0.9-4.3,2.8-6,2.4c-3.5-0.9-6.8-2.5-9.7-4.6
			c-1.1-0.8-1.3-3.2-1.4-5c-0.1-2-0.3-3.5-0.6-4.7L1110,2382.1c1.1-0.4,2.2-0.7,3.4-1.1c4.7-1.6,12.4-0.4,15.4,3.3
			c0.7,0.9,0.9,2.5,1.1,3.7c0.3,1.8,0.3,3.6,0.7,5.4c0.5,2.9,2.5,4.1,4.8,2.2c4.3-3.5,8.3-3.5,12.3-2.2l200.6-115.8
			C1348.2,2276.9,1348.2,2276.2,1348.1,2275.5z"/>
		<path class="st5" d="M1348.1,2275.5c-0.1-2.4-0.8-4.7-1.2-7.1l-7.1,3.2c-2,0.9-4.3,2.8-6,2.4c-3.5-0.9-6.8-2.5-9.7-4.6
			c-1.1-0.8-1.3-3.2-1.4-5c-0.1-2-0.3-3.5-0.6-4.7L1110,2382.1c1.1-0.4,2.2-0.7,3.4-1.1c4.7-1.6,12.4-0.4,15.4,3.3
			c0.7,0.9,0.9,2.5,1.1,3.7c0.3,1.8,0.3,3.6,0.7,5.4c0.5,2.9,2.5,4.1,4.8,2.2c4.3-3.5,8.3-3.5,12.3-2.2l200.6-115.8
			C1348.2,2276.9,1348.2,2276.2,1348.1,2275.5z"/>
		<path class="st1" d="M2158.9,1776.6l-0.7,0.4c1.4,0.3,2.9,1.1,4.4,2c7.5,5.1,15.3,9.9,23.4,15l0.7-0.5
			C2177,1787.8,2167.7,1782.2,2158.9,1776.6z"/>
		<path class="st5" d="M2158.9,1776.6l-0.7,0.4c1.4,0.3,2.9,1.1,4.4,2c7.5,5.1,15.3,9.9,23.4,15l0.7-0.5
			C2177,1787.8,2167.7,1782.2,2158.9,1776.6z"/>
		<path class="st1" d="M944.3,2477.8l-48,27.7c-2.4,8.1-4.7,16.1-6.8,24.3c-1.2,4.5-1.1,8.8,0,12.7l52.1-30.1
			c0.5-1.6,0.9-3.2,1.3-4.7c2.7-9.5,5.3-19.1,7.9-28.6l-6.1-1.2l6.1,1.2l0,0l-6.1-1.2C944.6,2477.8,944.5,2477.8,944.3,2477.8z"/>
		<path class="st5" d="M944.3,2477.8l-48,27.7c-2.4,8.1-4.7,16.1-6.8,24.3c-1.2,4.5-1.1,8.8,0,12.7l52.1-30.1
			c0.5-1.6,0.9-3.2,1.3-4.7c2.7-9.5,5.3-19.1,7.9-28.6l-6.1-1.2l6.1,1.2l0,0l-6.1-1.2C944.6,2477.8,944.5,2477.8,944.3,2477.8z"/>
		<path class="st1" d="M786.2,2558.1c0.5-0.9,1-1.9,1.4-2.9l-40.4,23.3l9,5.2c3.7-1.7,7.4-3.4,11-5.2
			C775.8,2574.3,781.7,2566.8,786.2,2558.1z"/>
		<path class="st4" d="M786.2,2558.1c0.5-0.9,1-1.9,1.4-2.9l-40.4,23.3l9,5.2c3.7-1.7,7.4-3.4,11-5.2
			C775.8,2574.3,781.7,2566.8,786.2,2558.1z"/>
		<path class="st5" d="M786.2,2558.1c0.5-0.9,1-1.9,1.4-2.9l-40.4,23.3l9,5.2c3.7-1.7,7.4-3.4,11-5.2
			C775.8,2574.3,781.7,2566.8,786.2,2558.1z"/>
		<path class="st1" d="M1312.8,2259.5c-1.9,1.1-4.4,2.4-6.2,1.9c-2-0.6-4-1.4-5.8-2.3l-215,124.1c2.9,1.6,6.3,2.4,10.1,2.2
			c4.7-0.3,9.5-1.7,14.2-3.2l212.1-122.4C1321.3,2254.9,1319.4,2255.8,1312.8,2259.5z"/>
		<path class="st4" d="M1312.8,2259.5c-1.9,1.1-4.4,2.4-6.2,1.9c-2-0.6-4-1.4-5.8-2.3l-215,124.1c2.9,1.6,6.3,2.4,10.1,2.2
			c4.7-0.3,9.5-1.7,14.2-3.2l212.1-122.4C1321.3,2254.9,1319.4,2255.8,1312.8,2259.5z"/>
		<path class="st5" d="M1312.8,2259.5c-1.9,1.1-4.4,2.4-6.2,1.9c-2-0.6-4-1.4-5.8-2.3l-215,124.1c2.9,1.6,6.3,2.4,10.1,2.2
			c4.7-0.3,9.5-1.7,14.2-3.2l212.1-122.4C1321.3,2254.9,1319.4,2255.8,1312.8,2259.5z"/>
		<path class="st1" d="M2148.3,1769.7l-13.9,8c0.1,1.2,0.3,2.4,0.5,3.6c6-1.4,11.2-2.4,16.2-3.9c2.6-0.8,4.9-1,7.2-0.5l0.7-0.4
			C2155.3,1774.2,2151.7,1772,2148.3,1769.7z"/>
		<path class="st4" d="M2148.3,1769.7l-13.9,8c0.1,1.2,0.3,2.4,0.5,3.6c6-1.4,11.2-2.4,16.2-3.9c2.6-0.8,4.9-1,7.2-0.5l0.7-0.4
			C2155.3,1774.2,2151.7,1772,2148.3,1769.7z"/>
		<path class="st5" d="M2148.3,1769.7l-13.9,8c0.1,1.2,0.3,2.4,0.5,3.6c6-1.4,11.2-2.4,16.2-3.9c2.6-0.8,4.9-1,7.2-0.5l0.7-0.4
			C2155.3,1774.2,2151.7,1772,2148.3,1769.7z"/>
		<path class="st1" d="M2223.9,1739.1c-0.5-0.3-0.9-0.5-1.4-0.8C2223,1738.6,2223.4,1738.8,2223.9,1739.1L2223.9,1739.1z"/>
		<path class="st4" d="M2223.9,1739.1c-0.5-0.3-0.9-0.5-1.4-0.8C2223,1738.6,2223.4,1738.8,2223.9,1739.1L2223.9,1739.1z"/>
		<path class="st5" d="M2223.9,1739.1c-0.5-0.3-0.9-0.5-1.4-0.8C2223,1738.6,2223.4,1738.8,2223.9,1739.1L2223.9,1739.1z"/>
		<path class="st1" d="M2222.5,1738.2c-3.3-1.9-6.6-3.8-9.8-5.7l0,0C2215.9,1734.4,2219.2,1736.3,2222.5,1738.2z"/>
		<path class="st4" d="M2222.5,1738.2c-3.3-1.9-6.6-3.8-9.8-5.7l0,0C2215.9,1734.4,2219.2,1736.3,2222.5,1738.2z"/>
		<path class="st5" d="M2222.5,1738.2c-3.3-1.9-6.6-3.8-9.8-5.7l0,0C2215.9,1734.4,2219.2,1736.3,2222.5,1738.2z"/>
		<path class="st1" d="M934.2,2477.1c-2.6-0.6-5.2-1.2-7.8-1.9l-25.6,14.7c-1.5,5.2-3,10.4-4.6,15.6l48-27.7
			C940.9,2477.6,937.4,2477.8,934.2,2477.1z"/>
		<path class="st4" d="M934.2,2477.1c-2.6-0.6-5.2-1.2-7.8-1.9l-25.6,14.7c-1.5,5.2-3,10.4-4.6,15.6l48-27.7
			C940.9,2477.6,937.4,2477.8,934.2,2477.1z"/>
		<path class="st5" d="M934.2,2477.1c-2.6-0.6-5.2-1.2-7.8-1.9l-25.6,14.7c-1.5,5.2-3,10.4-4.6,15.6l48-27.7
			C940.9,2477.6,937.4,2477.8,934.2,2477.1z"/>
		<path class="st1" d="M2033.1,1836.2l-618.9,357.3c1.8,3.3,3.5,6.6,5.1,10.1l633.6-365.8
			C2046.3,1837.3,2039.7,1836.8,2033.1,1836.2z"/>
		<path class="st4" d="M2033.1,1836.2l-618.9,357.3c1.8,3.3,3.5,6.6,5.1,10.1l633.6-365.8
			C2046.3,1837.3,2039.7,1836.8,2033.1,1836.2z"/>
		<path class="st5" d="M2033.1,1836.2l-618.9,357.3c1.8,3.3,3.5,6.6,5.1,10.1l633.6-365.8
			C2046.3,1837.3,2039.7,1836.8,2033.1,1836.2z"/>
		<path class="st1" d="M2449.7,1608.7l40.1-23.1v-13l-46.9,27.1C2446,1603,2448.3,1606.1,2449.7,1608.7z"/>
		<path class="st4" d="M2449.7,1608.7l40.1-23.1v-13l-46.9,27.1C2446,1603,2448.3,1606.1,2449.7,1608.7z"/>
		<path class="st5" d="M2449.7,1608.7l40.1-23.1v-13l-46.9,27.1C2446,1603,2448.3,1606.1,2449.7,1608.7z"/>
		<polygon class="st6" points="1446.9,2536.5 1409.7,2536.5 1391.2,2568.7 1384.6,2580.1 1391.2,2591.6 1409.7,2623.7 1460,2623.7 
			1485.2,2580.1 1466.7,2548 1460,2536.5 		"/>
		<polygon class="st7" points="1279.8,2554.8 1265.1,2580.1 1275.9,2598.8 1279.8,2605.4 1308.9,2605.4 1323.5,2580.1 
			1319.8,2573.5 1308.9,2554.8 		"/>
		<polygon points="1462,666.7 1440.3,704.3 1462,741.8 1505.4,741.8 1527.1,704.3 1505.4,666.7 		"/>
		<polygon class="st8" points="1462,666.7 1440.3,704.3 1462,741.8 1505.4,741.8 1527.1,704.3 1505.4,666.7 		"/>
		<polygon points="2134.6,647.9 2102,647.9 2085.7,676.1 2098.2,697.6 2147,669.4 		"/>
		<polygon class="st9" points="2134.6,647.9 2102,647.9 2085.7,676.1 2098.2,697.6 2147,669.4 		"/>
		<polygon class="st1" points="2134.6,704.3 2150.9,676.1 2147,669.4 2098.2,697.6 2102,704.3 		"/>
		<polygon class="st9" points="2134.6,704.3 2150.9,676.1 2147,669.4 2098.2,697.6 2102,704.3 		"/>
		<polygon points="1642.9,661.9 1618.5,704.3 1642.9,746.5 1691.7,746.5 1716.1,704.3 1691.7,661.9 		"/>
		<polygon class="st10" points="1642.9,661.9 1618.5,704.3 1642.9,746.5 1691.7,746.5 1716.1,704.3 1691.7,661.9 		"/>
		<polygon points="1847.9,2279.3 1880.4,2279.3 1896.7,2251.1 1892.1,2243.1 1843.2,2271.3 		"/>
		<polygon class="st11" points="1847.9,2279.3 1880.4,2279.3 1896.7,2251.1 1892.1,2243.1 1843.2,2271.3 		"/>
		<polygon class="st1" points="1847.9,2222.9 1831.6,2251.1 1843.2,2271.3 1892.1,2243.1 1880.4,2222.9 		"/>
		<polygon class="st11" points="1847.9,2222.9 1831.6,2251.1 1843.2,2271.3 1892.1,2243.1 1880.4,2222.9 		"/>
		<path class="st12" d="M420,1099.4l74.7-43.2c3.6-11,7.2-22.1,10.7-33.2l-206.4,119.2c27.7-11.1,55.3-22.2,82.9-33.5
			C394.5,1103.8,407.2,1100.9,420,1099.4z"/>
		<path class="st12" d="M1761.2,325.1l-23.4-13.5l-887,512.1c12.3,1.5,24.4,3.5,36.2,6L1761.2,325.1z"/>
		<path class="st1" d="M1613.3,1578.1L1613.3,1578.1c-3.1-0.5-6.2-0.9-9.5-0.9c-2.6-0.1-5.1,0.1-7.6,0.5c2.5-0.4,5.1-0.5,7.6-0.5
			C1607,1577.2,1610.3,1577.5,1613.3,1578.1z"/>
		<path class="st1" d="M1477.5,1656.5c-4.7-4.9-9.3-9.9-14-14.9l0,0C1468.1,1646.7,1472.8,1651.7,1477.5,1656.5L1477.5,1656.5z"/>
		<path class="st1" d="M1447.5,1650.9l-801.8,462.9c40.2-15.4,80.2-30.9,120.3-46.5l667.8-385.5
			C1438.4,1671.5,1443,1661.2,1447.5,1650.9z"/>
		<path class="st1" d="M2237.4,1216.5c0.3,0.3,0.6,0.5,0.9,0.8l251.5-145.2v-22.9l-267.9,154.7
			C2227.1,1207.9,2232.2,1212.1,2237.4,1216.5z"/>
		<path class="st1" d="M2033.3,1332.5c-2.6-5.7-6-10.4-10.2-13.9l-144.9,83.7c-3.5,8.9-7.2,17.7-10.8,26.6c-0.5,1.1-0.9,2.2-1.4,3.4
			l168.2-97.1C2034,1334.2,2033.6,1333.3,2033.3,1332.5z"/>
		<path class="st13" d="M180.1,1318.1c10.5-4.5,16.3-10.8,14.2-22.6c-5-12.4-10.4-24.7-14.8-37.3c-7-19.9-13.3-40-20-60l0,0
			c-0.6-1.5-1.4-3-1.9-4.5c-3.7-10.2-8.5-13-19-10.3c-5.1,1.2-10.1,3-14.8,5.2c-31,15.2-61.8,30.5-92.6,45.9v148
			c5.6-2.5,11.1-5,16.7-7.4C91.9,1355.8,135.9,1336.8,180.1,1318.1z"/>
		<path class="st13" d="M295,1611.3c7.7-3.6,14.9-7.7,15.2-17.6l0,0c-4.9-13.1-9.7-26.2-14.5-39.2c-1-2.6-2-5.3-2.9-7.9
			c-5.2-14-10.4-28-15.6-42.1c-0.9-2.3-1.3-4.7-2-7.1c0,0,0,0,0.1,0l0,0c-1.5-1.9-3-3.9-4.6-5.8c-3.5-3.9-7.3-5.1-12.5-2.6
			c-40.7,19.6-81.7,38.8-122.4,58.4c-34.9,16.8-69.7,33.8-104.7,50.5v144.8c60.9-30,121-61.9,181.6-92.5
			C239.9,1636.8,267.7,1624.3,295,1611.3z"/>
		<path class="st14" d="M1002.6,1371.2c-1.8,0.3-3.8,0.9-5.8,2.2c-6.4,3.7-8.5,0.4-9.4-5.8c-0.5-2.9-1.1-6.4-2.5-8.9
			c-3.2-2.4-6-4.6-8.8-6.8c-2.2-1.2-4.5-2.1-6.8-2.5c-3.5-0.5-7.2,0.1-11.4,2.9c-5,3.4-7,0.9-7.4-4.9c-0.9-14.2-10.3-20-23.3-14.4
			c-5.1,2.2-7.8,2.6-8.2-4.4c-0.9-13.3-12-19.5-24-13.9c-7,3.3-7.2,3-8.6-5c-0.7-3.5-1.4-8.1-3.7-10.2c-5.8-5-12.7-8.9-21-4.2
			c-6.2,3.5-8.5,1.2-9.4-5.6c-1.7-12.8-10.4-17.4-22.1-12.4c-8.4,3.7-8.4,3.7-10.3-5.7c-2.2-11.2-16.1-18.5-26.2-13.7
			c-8.3,3.9-9.9,3.4-9.9-5.5c-0.1-6-2.7-8.8-7.5-11.4c-5.1-2.8-9.5-2.7-14.8-0.3c-5.1,2.2-10.4,3.7-15.8,4.3
			c-14.8,1.7-26-7-28.2-21.6c-0.7-4.9-0.3-9.9-0.5-14.9c-0.1-3.8-0.6-7.6-0.9-11.4c-9.9-16.7-25-27.5-41.9-36.1
			c-15.6-8.1-31.4-15.8-47.1-23.7c-6.8-2.6-13.7-5.3-20.6-7.8c-11-4-22.1-7.9-33.1-11.8l-28.7-5.6l-64.3-12.5
			c-3.7-0.2-7.6-0.3-11.4-0.5c-0.6-0.1-1.2-0.1-1.8-0.1c-16-1.2-31.8-1.6-47.4,0.1c-12.8,1.4-25.5,4.3-38,9.4
			c-27.6,11.2-55.3,22.3-82.9,33.5c-46.5,18.7-93.1,37.3-139.6,55.9l0,0c6.6,20,13,40.2,20,60c4.5,12.6,9.9,24.9,14.8,37.3
			c11.2-4.5,22.4-9,33.7-13.3c23.3-9.1,46.1-19.2,69.7-27.1c3.2-1.1,6.4-2.1,9.5-3.1c41.3-12.6,78.7-2,111.9,24.8
			c1.6,1.3,2.6,3.4,3.8,5.1c4.6,3.4,9.7,6.3,13.7,10.3c19.5,19.1,39.4,37.3,64.4,49.2c1.1,0.5,1.8,1.8,2.8,2.8
			c17.7,6.2,35.4,11.8,54.4,12.6l0,0c10.4,0,20.8,0.1,31.2-0.1c24.6-0.5,49.2-1.1,73.7-1.6l0,0l0,0c36,0.3,68.4,12.2,99.3,30
			c27.1,15.5,55.3,28.1,86,34c5.3,1.1,10.6,1.8,16,2.4c22.1,2.5,44.2,3.6,66.4,3.9c20.2,0.3,40.5-0.1,60.8-0.7
			c16.4-0.5,28.7-3.9,33.3-21.3c0.3-1.3,1.2-2.4,1.9-3.7c2.5-4.6,4.1-7.8,4.8-10.1C1021.2,1383.4,1011.5,1377.2,1002.6,1371.2z
			 M546.3,1315.2c-25.4-0.1-44.2-19.4-44.2-45.3l0,0l0,0c0.1-24.8,18.3-42.5,43.8-42.4c23.9,0.1,44.2,20.4,43.8,44.4l0,0l0,0
			C589.4,1297.4,568.1,1316.5,546.3,1315.2z"/>
		<path class="st15" d="M796.5,821.6L796.5,821.6L796.5,821.6z"/>
		<path class="st15" d="M483.4,1091.2c-0.9,2.9-1.9,5.8-2.8,8.7l64.3,12.5l28.7,5.6c2.8-8.9,5.3-17.9,8.3-26.7
			c0-0.1,0.1-0.2,0.1-0.3c5.3-14.7,18.7-22.3,33-19.1c0.2,0.1,0.5,0.1,0.7,0.1c14.6,3.7,23.9,18.3,20.5,33.8
			c-2.3,10.7-6,21.2-9,31.7c15.7,7.9,31.5,15.6,47.1,23.7c16.8,8.7,31.9,19.5,41.9,36.1c1.1-2.6,2.2-5.1,3-7.6
			c14.9-44.4,31-88.5,43.8-133.5c6-20.8,18.4-31.3,36.7-38.2c3.9-1.4,7.9-2.5,11.7-4.2c5.7-2.6,11.3-5.5,16.9-8.3l0,0l0,0
			c-2.2-8.9-4.9-17.8-6.5-26.8c-4.5-25.9-8.5-51.9-12.7-77.7c-4.3-26.5-8.5-53-12.7-79.5c-5.5,2.4-10.6,5.8-16.3,6.9
			c-21.7,3.9-43.3,7.8-63.7,16.7c-62.8,27.5-119.8,64.3-171.9,108.8c-13.1,11.2-24.6,23.5-30,40.6c-3,9.5-6,19-9.1,28.5
			c-3.5,11-7.2,22.1-10.7,33.2C491,1067.9,487.2,1079.5,483.4,1091.2z"/>
		<path class="st14" d="M809.2,901c4.1,26,8.1,51.9,12.7,77.7c1.6,9.1,4.3,17.9,6.5,26.8l0,0c4.6-3.5,8.9-7.4,13.9-10.3
			c15.8-9.3,32.4-4.5,40.3,11.9c2.7,5.7,4.2,11.9,4.6,18.3c1,16.2,16.4,26.1,30.7,19.1c7.4-3.6,7.5-3.5,8.4,4.4
			c1.6,13.7,13.7,19.6,25,12.2c7.4-4.8,8.9-4.4,8.9,4.5c0,8.1,3.9,11.6,10.5,14.7c6,2.8,9.3-1.5,13.5-3.4c6.9-3.1,8.2-2.9,7.6,4.3
			c-0.7,8,3.2,11.4,9.6,14.9c6.6,3.6,11,0.4,16-2.3c5.3-2.9,7.8-2.2,8.3,4.4c0.3,4.8-0.3,9.9,5.9,13.2c6.8,3.5,11.8,3.5,17.9-0.8
			c6.5-4.7,7.8-3.9,7.6,4.3c-0.2,7,2.5,10.6,8.7,13.9c6.2,3.3,10.1,0.9,15-2c9.1-5.5,10.3-5.1,10,5.3c-0.1,6.6,2.2,10.2,6.9,12.8
			c2.2,0.8,4.3,1.7,6.6,2.6c2.4,0.5,4.7,0.2,7.5-1.4c11.8-6.9,11.8-6.6,13.9,7.2c0.3,1.4,0.8,3.2,1.6,4.6
			c7.2,3.5,14.7,7.3,22.4,11.5c3.4-1.6,6-6.8,10.8-16.4c1.1-2.2,1.9-4.7,3.4-6.6c9.7-13.4,8.9-28,6.2-43.4
			c-13.3-75.5-51.3-136.8-108.5-186.4c-25.7-22.3-53.2-40.6-82.3-55c-18.7-9.3-38.2-17-58.3-23.1c-11.1-3.4-22.5-6.3-34-8.7
			c-11.9-2.5-23.9-4.5-36.2-6c-3.6-0.5-7.2-0.9-10.9-1.2c-14.4-1.4-29-0.6-43.4-0.9l0,0l0,0l0,0C800.7,848.1,804.9,874.5,809.2,901z
			"/>
		<path class="st16" d="M589.4,1356.6c-10.4,0.2-20.8,0.1-31.2,0.1l0,0c-2,7.9-3.8,15.9-6.2,23.8c-5.5,18.5-11,36.9-17,55.1
			c-4.1,12.6-14.5,19.9-26.5,20c-11.6,0.1-23.2-7.2-26.4-18.8c-1.8-7.1-1.7-14.6,0.2-21.7c6.6-23.9,14.3-47.4,21.5-71
			c-0.9-0.9-1.6-2.3-2.8-2.8c-24.9-11.8-45-30.1-64.4-49.2c-4-3.9-9.1-6.8-13.7-10.3c-10,26.2-19.3,52.8-30.2,78.6
			c-12.6,29.6-26.3,58.8-40,87.9c-6.8,14.5-17.9,24.6-33.2,30.5c-14.9,5.7-29.4,12.3-44.2,18.5c0,0,0,0-0.1,0c0.7,2.4,1.1,4.8,2,7.1
			c5.2,14,10.4,28,15.6,42.1c1,2.6,2,5.3,2.9,7.9c4.9,13.1,9.7,26.2,14.5,39.2l0,0c7.5-2.8,15-5.5,22.4-8.4
			c85-33.8,169.9-68,255.1-101.1c21.2-8.2,35.3-21.6,43-42.4c10.8-28.9,21.6-57.8,32.3-86.8l0,0
			C638.6,1355.5,614,1356.1,589.4,1356.6z"/>
		<path class="st17" d="M546,1227.5c-25.5-0.1-43.8,17.6-43.8,42.4l0,0c-0.1,26,18.7,45.3,44.2,45.3c21.8,1.3,43.1-17.8,43.5-43.4
			l0,0C590.2,1247.9,569.9,1227.5,546,1227.5z M546.1,1301.8c-12.9,0.1-23.7-7.6-28.3-18.9c-1.5-3.6-2.3-7.6-2.4-11.8
			c0-0.1,0-0.3,0-0.5l0,0l0,0c0-0.1,0-0.2,0-0.3c0-0.2,0-0.5,0-0.7c0-0.2,0-0.5,0-0.7c0-0.3,0.1-0.7,0.1-1c0-0.2,0-0.3,0.1-0.5
			c0.1-0.4,0.1-0.8,0.1-1.2c0-0.1,0-0.2,0.1-0.3c0.1-0.5,0.1-0.9,0.2-1.3v-0.1c2.6-13.7,14.7-24.1,29.2-24.1c17.2,0,30,13.5,30,31.5
			l0,0c0.1,0.5,0.1,1,0.1,1.5c0,0.5,0.1,1,0,1.4C575,1289.8,559.9,1301.7,546.1,1301.8z"/>
		<path class="st18" d="M575.2,1275.2c0-0.5,0-1,0-1.4c0-0.5-0.1-1-0.1-1.5c0.1-18.1-12.7-31.5-30-31.5c-0.1,0-0.2,0-0.3,0
			c-14.4,0.1-26.2,10.4-28.9,24.1v0.1c-0.1,0.5-0.1,0.9-0.2,1.3c0,0.1,0,0.2-0.1,0.3c-0.1,0.4-0.1,0.8-0.1,1.2c0,0.1,0,0.3-0.1,0.5
			c0,0.3-0.1,0.7-0.1,1c0,0.2,0,0.5,0,0.7c0,0.3,0,0.7,0,1l0,0c0,0.1,0,0.3,0,0.5c0.1,4.2,0.9,8.1,2.4,11.8
			c4.6,11.2,15.4,19,28.3,18.9C559.9,1301.7,575,1289.8,575.2,1275.2z"/>
		<path class="st19" d="M656.7,2439.7c-1.3-3.4-2.6-6.9-3.9-10.3c-6.9-18.2-13.9-36.4-20.7-54.6c-0.1-0.1-0.1-0.3-0.1-0.4
			c-1.4-3.9-2.6-7.8-3.8-11.8c-0.5-0.9-1.3-1.8-1.6-2.9c-2.6-9.3-8.9-11.1-16.7-8.1c-6.6,2.5-13.1,4.9-19.3,8.1
			c-17.4,9.1-34.7,18.5-52,27.7c-21.2,11.3-42.5,22.6-63.7,33.8l110.9,64c20.9-9.6,41.7-19.3,62.6-29.2
			C657.6,2451.7,658.3,2449.7,656.7,2439.7z"/>
		<path class="st20" d="M1312.2,2479.1c-2.4-0.3-4.7,0.3-7.4,1.2c-7.4,2.9-8.2,4.5-9.5-5.5c-0.5-4.3-2.6-6.5-6.2-8.7
			c-5.9-3.7-11.2-4.4-17.5-0.9c-4.9,2.7-6.2,1.9-5.9-3.6c0.3-6.6-2.9-9.7-8.3-12.1c-3-1.3-5.5-1.6-8.3-0.1c-1.6,0.9-3.3,1.5-4.9,2.2
			c-2.6,1.2-3.8,0-4.1-2.6c-0.2-1.6-0.4-3.2-0.4-4.7c0.1-3.1-1.3-5.1-4.1-6.2c-1.7-0.7-3.3-1.5-4.8-2.5c-2.1-1.4-4-1.5-6-0.9
			c-0.7,0.2-1.4,0.5-2.2,0.9c-7.7,3.9-7.8,3.8-9.3-4.4c-1.4-7.5-10-12.4-17.2-9.9c-2.7,0.9-5.5,1.8-8.9,3c-0.7-3.4-1.4-5.9-1.6-8.5
			c-0.3-3-1.6-4.7-4.2-6.4c-4.6-2.9-8.9-3.9-13.7-0.7c-1.6,1.1-3.6,1.6-6.2,2.7c-0.8-3-1.6-5.5-2-8c-0.6-3.4-2.3-5.4-5.4-7.1
			c-2.2-1.2-4.2-2.2-6.3-2.9c-4-1.3-8-1.2-12.3,2.2c-2.3,1.8-4.3,0.7-4.8-2.2c-0.3-1.8-0.3-3.6-0.7-5.4c-0.2-1.2-0.3-2.8-1.1-3.7
			c-3-3.7-10.6-4.9-15.4-3.3c-1.1,0.4-2.2,0.7-3.4,1.1c-4.7,1.5-9.4,2.9-14.2,3.2c-3.8,0.3-7.2-0.5-10.1-2.2
			c-4.1-2.3-7.1-6.3-8.4-11.5c-1.2-4.7-1.1-9.8-1.4-14.7c0-0.3-0.1-0.7-0.1-1.1c-0.2-2.8-0.3-5.5-0.5-8.3c-2.4-2.7-4.7-5.4-7-8.1
			c-1-1.1-2-2.2-3-3.2c-3.7-3.7-8-6.8-12.4-9.5c-5.2-3.2-10.6-6-16.1-8.7c-10.3-5.1-20.8-9.5-31.2-14.2c-0.9-0.5-1.6-1.4-2.4-2.2
			c-1.1,0.2-2.2,0.7-3,0.5c-7.8-2.6-15.6-5.2-23.4-7.8c-5.5-1.8-11-3.7-16.4-5.6c-0.4-0.1-0.7-0.6-1-0.9l0,0l0,0
			c-8.6-1.6-17.2-3.3-25.8-4.6c-11.8-1.8-23.5-3.3-35.3-4.9c-4.7-0.6-9.3-1.1-14.1-1.7l0,0c-9.7-0.4-19.4-1.2-29-1
			c-17.2,0.6-34,3.1-50.1,10.1c-24.2,10.6-48.7,20.4-73,30.8c-4.5,1.9-9.1,3.9-13.7,5.8c-30.2,13.1-60.2,26.8-90.2,40.2
			c1.2,3.9,2.4,7.9,3.8,11.7c0.1,0.1,0.1,0.3,0.1,0.4c6.9,18.2,13.8,36.4,20.7,54.6c1.3,3.4,2.6,6.9,3.9,10.3
			c22.9-10.1,45.7-20.3,68.7-30.3c7.4-3.2,15-6,22.9-8.3c16.4-4.9,32.3-5.7,47.6-2.4c10.8,2.3,21.4,6.6,31.6,12.9
			c4,2.5,7.9,5.2,11.8,7.8c9.2,8,18.4,15.8,27.5,23.8c8,7,16.3,13.3,25.4,18.5c2.6,1.4,5.3,2.9,8,4.1c2.2,1.1,4.1,2.6,6.2,3.9
			c6.6,1.7,13.3,3.5,19.9,5.3c2.6,0.7,5.2,1.3,7.8,1.9c3.3,0.7,6.8,0.6,10.1,0.7c0.1,0,0.3,0,0.4,0l6.1,1.2l0,0
			c11.9-0.5,23.8-0.2,35.6-1.6c16-1.8,32.1-2.8,48.3-2.6l0,0l0,0l0.2-0.1l0,0h-0.1c3.9-1.8,8.4-1.8,12.2,0.1l0,0l0,0
			c2,0.3,4,0.8,6,0.9c18.3,1.4,35.2,7.2,51.6,15.4c3.9,2,8,3.9,12,5.8c8.6,4.1,17.3,8.1,26.1,11.9c17.7,7.6,36.5,12.2,55.7,13.7
			c25.2,2.1,50.5,2,75.8,0.7c1.1-0.1,2.1-0.1,3.1-0.2c12.3-0.7,24.5-2.1,36.7-3.1c2.3-0.2,4.3-0.4,5.6-2.9c4-8.5,8.2-16.9,12.6-25.6
			l0,0C1325.1,2487.4,1318.3,2483.2,1312.2,2479.1z M904,2411.5L904,2411.5L904,2411.5c-0.3-19.8,13.7-35.2,35.4-35.6
			c16.4-0.3,35.1,14.2,34.6,33.5c0,0.6-0.1,1.2-0.1,1.9c0.1,1.1,0.2,2.1,0.2,3.2v0.1c-0.1,15.6-17.5,32.5-34.4,31.9
			c-0.1,0-0.1,0-0.2,0C918.5,2445.4,904.4,2432.3,904,2411.5z"/>
		<path class="st21" d="M884.2,2276.7c4.7,0.6,9.3,1.1,14.1,1.7c11.8,1.6,23.5,3.1,35.3,4.9c8.6,1.3,17.2,3,25.8,4.6l0,0
			c2.2-7.3,4.2-14.7,6.7-22c3.9-11.3,15-17.7,26.1-15.2c11.6,2.6,19.1,12.9,17.9,24.4c-0.1,0.9-0.2,1.6-0.4,2.5
			c-1.2,5.9-3.2,11.7-4.8,17.5c-0.6,2.2-1.1,4.3-1.6,6.5c0.8,0.8,1.4,1.8,2.4,2.2c10.4,4.7,21,9.1,31.2,14.2
			c5.5,2.7,11,5.5,16.2,8.7c4.4,2.8,8.6,5.8,12.4,9.5c1.1,1.1,2,2.1,3,3.2c2.4,2.7,4.7,5.4,7,8.1c6-18.7,12.1-37.3,17.9-55.9
			c7.2-22.8,14.3-45.5,21.4-68.3c1.4-4.5,3.2-8.3,7.6-10.6c8.7-4.3,17.3-8.6,25.9-12.9c4.4-2.2,8.8-4.5,13.1-6.7
			c-0.3-1.6-0.7-3.3-0.9-4.9c-1.6-8.3-3.2-16.6-4.7-24.8c-0.5-2.8-1-5.6-1.5-8.3c-1-5.3-1.9-10.4-2.9-15.7c-0.5-2.8-1-5.6-1.5-8.3
			c-0.6-3.2-1.2-6.5-1.8-9.7c-2.3-12.7-4.6-25.4-6.9-38.1c-0.1-0.9-0.3-1.6-0.5-2.5c-0.1-0.7-0.3-1.2-0.3-1.9
			c-56.6,23.7-112.8,48.4-168.2,74.7c-18.6,8.8-37.3,17.4-56.2,25.8c-2.9,4.8-5.3,10.1-7,15.8c-2.3,7.8-4.6,15.6-7,23.3
			C896.1,2237.9,890.1,2257.3,884.2,2276.7L884.2,2276.7z"/>
		<path class="st20" d="M1141.1,2083.2c2.3,12.7,4.6,25.4,6.9,38.1c0.6,3.2,1.2,6.5,1.8,9.7c0.5,2.8,1,5.6,1.5,8.3
			c0.9,5.3,1.9,10.4,2.9,15.7c0.5,2.8,1,5.6,1.5,8.3c1.6,8.3,3.2,16.6,4.7,24.8c0.3,1.6,0.7,3.3,0.9,4.9c2.4-1.9,4.9-3.7,7.3-5.8
			c15.8-13.8,35-8,40.3,12.3c0.5,1.8,1.2,3.6,0.9,5.3c-1.3,9.1,3.3,14,11.3,16.6c0.9,0.3,1.6,0.7,2.4,1.2c3,1.9,5.8,1.8,8.8-0.1
			c2.4-1.6,5.1-2.6,8-4.2c0.5,2.4,1.2,3.8,1.2,5.3c-0.2,6.4,3,10,8.9,11.6c0.5,0.1,0.9,0.3,1.2,0.6c2.8,2,5.3,1.4,8-0.7
			c2.4-1.8,5.1-3.2,8.5-5.4c0.6,4.3,0.9,7.4,1.6,10.4c0.2,1,0.5,2,1,3c0.4,0.9,0.9,1.6,1.6,2c4.6,2.8,9,5.1,14.8,1.1
			c7.3-5,7.6-4.4,8.1,4.3c0.1,2,0,4.8,1.1,5.7c1.4,1,2.9,1.9,4.4,2.7c1.9,0.9,3.8,1.7,5.8,2.3c1.8,0.5,4.3-0.9,6.2-1.9
			c6.6-3.7,8.5-4.5,9.4,0.2c0.2,1.2,0.4,2.8,0.6,4.7c0.1,1.7,0.3,4.2,1.4,5c2.9,2.1,6.2,3.7,9.7,4.6c1.7,0.4,4-1.6,6-2.4l7.1-3.2
			c0.5,2.4,1.2,4.7,1.2,7.1c0,0.7,0.1,1.4,0.1,2.2c0.2,2.4,0.9,4.3,3.9,5.4c4.1,1.3,7.3,4.7,12.4,1.3c9.5-6.4,9.9-6,10.8,5.7
			c0.1,1.4,0.4,2.6,1.1,3.5c4.2,0.9,9.1,2.4,14.6,4.4c0.4-0.2,0.8-0.5,1.2-0.8c2.8-2,6-3.4,9.7-5.4c0.6,4.3,1.3,7.7,1.4,11
			c0,0.1,0,0.1,0,0.2c6.9,3,14.3,6.6,22.1,10.8c0.1-0.2,0.2-0.4,0.3-0.6c2.8-5.9,5.7-11.8,8.5-17.7c7.2-15.2,7.2-15.2,4.5-31.7
			c-0.1-0.9-0.4-1.7-0.5-2.6c-2-10.6-4.7-20.9-8-30.9c-3.1-9.2-6.7-18.1-10.9-26.7c-1.6-3.4-3.4-6.7-5.1-10.1
			c-4.5-8.3-9.7-16.4-15.2-24.3c-8.5-12-18.3-23.5-29-34.3c-15.1-15.2-31.4-28.3-48.9-39.5c-14.9-9.6-30.7-17.7-47.2-24.6
			c-8.9-3.7-18.1-7.1-27.5-10.1c-12.7-4-25.6-7.3-38.7-9.7c-2.7,1.1-5.4,2.2-8,3.3c-19.8,8.1-39.6,16.2-59.3,24.5
			c0.1,0.7,0.3,1.2,0.3,1.9C1140.8,2081.5,1141,2082.3,1141.1,2083.2z"/>
		<path class="st22" d="M968.5,2582.6c5.3-2.5,10.6-5.1,16-7.4c5.5-2.4,10.1-5.7,13.9-9.8c2.8-3,5-6.5,6.8-10.6
			c3-7,6.6-13.9,9.3-21.1c7-19.5,13.6-39.2,20.3-58.8l0,0c-16.2-0.1-32.3,0.8-48.3,2.6c-11.8,1.4-23.7,1.1-35.6,1.6l0,0l0,0h0.1
			h-0.1c-2.6,9.5-5.3,19.1-7.9,28.6c-0.5,1.6-0.9,3.2-1.3,4.7c-2.8,9.7-5.5,19.5-8.5,29c-3.7,12.2-14.4,18.9-25.9,16.8
			c-8.9-1.6-15.5-7.8-17.8-15.7c-1.1-3.9-1.2-8.3,0-12.7c2.2-8.1,4.5-16.2,6.8-24.3c1.5-5.2,3-10.4,4.6-15.6c1-3.4,2-6.8,3-10.3
			c0.9-3.2,1.8-6.5,2.6-9.8c-2-1.3-4-2.9-6.2-3.9c-2.7-1.3-5.3-2.7-8-4.1c-9.1-5.2-17.5-11.5-25.4-18.5c-9.1-8-18.3-15.8-27.5-23.8
			c-0.1,2.4,0.3,4.9-0.5,7.1c-3.6,10.9-7.6,21.7-11.4,32.5c-6.1,17.3-12.4,34.4-19.4,51.3c-6.2,15.2-12.9,30.2-20.5,44.9
			c-0.5,1-1,1.9-1.4,2.9c-4.5,8.7-10.4,16.2-19,20.5c-3.6,1.8-7.3,3.5-11,5.2l89.5,51.7c31.5-13.3,63.1-26.5,94.6-39.9
			C949.8,2591.6,959.2,2587.1,968.5,2582.6z"/>
		<path class="st22" d="M1047.2,2474.8c-3.9-1.9-8.3-1.9-12.2-0.1h0.1L1047.2,2474.8L1047.2,2474.8z"/>
		<path class="st23" d="M939.9,2446.4c16.9,0.6,34.2-16.2,34.4-31.9v-0.1c0-1.1-0.1-2.1-0.2-3.2c0.1-0.7,0.1-1.2,0.1-1.9
			c0.5-19.3-18.2-33.8-34.6-33.5c-21.6,0.4-35.7,15.7-35.4,35.6l0,0c0.3,20.8,14.5,34,35.6,34.9
			C939.7,2446.4,939.7,2446.4,939.9,2446.4z M914.9,2406.3c2-11,11.9-19.7,23.7-19.5l0,0c0.9,0,1.7,0.1,2.6,0.1
			c12.7,1.2,21.7,11,22,24.1l0,0l0,0c0,0.3,0,0.5,0,0.8c0,0.1,0,0.1,0,0.2c0,0.2,0,0.5,0,0.7c0,0.2,0,0.4-0.1,0.6
			c0,0.2-0.1,0.5-0.1,0.7s-0.1,0.4-0.1,0.6c0,0.2-0.1,0.4-0.1,0.6c0,0.2-0.1,0.4-0.1,0.6c-0.1,0.2-0.1,0.4-0.1,0.6
			c-0.1,0.2-0.1,0.4-0.1,0.7c-0.1,0.2-0.1,0.3-0.1,0.5c-0.1,0.2-0.1,0.5-0.2,0.7c-0.1,0.1-0.1,0.3-0.1,0.5c-0.1,0.3-0.1,0.5-0.3,0.7
			c-0.1,0.1-0.1,0.3-0.1,0.4c-0.1,0.3-0.2,0.5-0.3,0.7c-0.1,0.1-0.1,0.2-0.1,0.3c-0.1,0.3-0.2,0.5-0.3,0.8c-0.1,0.1-0.1,0.1-0.1,0.3
			c-0.1,0.3-0.3,0.5-0.4,0.8l0,0c-0.1,0.1-0.1,0.1-0.1,0.2c-0.1,0.3-0.3,0.5-0.5,0.9c0,0.1-0.1,0.1-0.1,0.1
			c-0.2,0.3-0.3,0.5-0.5,0.9c0,0.1-0.1,0.1-0.1,0.1c-0.2,0.3-0.4,0.5-0.6,0.9c0,0.1-0.1,0.1-0.1,0.1c-0.2,0.3-0.4,0.5-0.6,0.8
			l-0.1,0.1c-0.2,0.3-0.5,0.5-0.7,0.8l-0.1,0.1c-0.3,0.3-0.5,0.5-0.7,0.8l-0.1,0.1c-0.3,0.3-0.5,0.5-0.7,0.7l-0.1,0.1
			c-0.3,0.3-0.5,0.5-0.8,0.7l-0.1,0.1c-0.3,0.2-0.5,0.5-0.8,0.7l-0.1,0.1c-0.3,0.2-0.5,0.4-0.9,0.6c0,0-0.1,0.1-0.1,0.1
			c-0.3,0.2-0.6,0.4-0.9,0.6l-0.1,0.1c-0.3,0.2-0.6,0.4-0.9,0.5c0,0-0.1,0-0.1,0.1c-0.3,0.2-0.7,0.3-0.9,0.5c0,0-0.1,0-0.1,0.1
			c-0.3,0.1-0.7,0.3-1,0.5h-0.1c-0.3,0.1-0.7,0.3-1.1,0.4l0,0c-2.6,1-5.3,1.5-8.2,1.6l0,0c0,0,0,0-0.1,0c-0.3,0-0.5,0-0.7,0
			s-0.3,0-0.5,0c-13.3-0.5-23.1-10.6-23.5-24.4c0-0.4,0-0.8,0-1.2C914.7,2408.5,914.7,2407.4,914.9,2406.3z"/>
		<line class="st0" x1="950.9" y1="2479.1" x2="950.9" y2="2479.1"/>
		<line class="st0" x1="950.9" y1="2479.1" x2="944.7" y2="2477.8"/>
		<path class="st24" d="M938.1,2435.4c0.2,0,0.3,0,0.5,0c0.3,0,0.5,0,0.7,0c0,0,0,0,0.1,0l0,0c2.9-0.1,5.7-0.6,8.2-1.6l0,0
			c0.3-0.1,0.7-0.3,1.1-0.4h0.1c0.3-0.1,0.7-0.3,1-0.5c0,0,0.1,0,0.1-0.1c0.3-0.1,0.7-0.3,0.9-0.5c0,0,0.1,0,0.1-0.1
			c0.3-0.2,0.6-0.3,0.9-0.5l0.1-0.1c0.3-0.2,0.6-0.4,0.9-0.6c0.1,0,0.1-0.1,0.1-0.1c0.3-0.2,0.6-0.4,0.9-0.6l0.1-0.1
			c0.3-0.2,0.5-0.4,0.8-0.7l0.1-0.1c0.3-0.2,0.5-0.5,0.8-0.7l0.1-0.1c0.3-0.3,0.5-0.5,0.7-0.7l0.1-0.1c0.3-0.3,0.5-0.5,0.7-0.8
			l0.1-0.1c0.2-0.3,0.5-0.5,0.7-0.8l0.1-0.1c0.2-0.3,0.4-0.5,0.6-0.8c0-0.1,0.1-0.1,0.1-0.1c0.2-0.3,0.4-0.5,0.6-0.9
			c0-0.1,0.1-0.1,0.1-0.1c0.2-0.3,0.3-0.5,0.5-0.9c0-0.1,0.1-0.1,0.1-0.1c0.1-0.3,0.3-0.5,0.5-0.9c0.1-0.1,0.1-0.1,0.1-0.2l0,0
			c0.1-0.3,0.3-0.5,0.4-0.8c0.1-0.1,0.1-0.1,0.1-0.3c0.1-0.3,0.3-0.5,0.3-0.8c0.1-0.1,0.1-0.2,0.1-0.3c0.1-0.3,0.2-0.5,0.3-0.7
			c0.1-0.1,0.1-0.3,0.1-0.4c0.1-0.3,0.1-0.5,0.3-0.7c0.1-0.1,0.1-0.3,0.1-0.5c0.1-0.2,0.1-0.5,0.2-0.7c0.1-0.2,0.1-0.3,0.1-0.5
			c0.1-0.2,0.1-0.4,0.1-0.7c0.1-0.2,0.1-0.4,0.1-0.6c0.1-0.2,0.1-0.4,0.1-0.6c0-0.2,0.1-0.4,0.1-0.6c0-0.2,0.1-0.4,0.1-0.6
			c0-0.2,0.1-0.5,0.1-0.7c0-0.2,0-0.4,0.1-0.6c0-0.2,0-0.5,0-0.7c0-0.3,0-0.7,0-1l0,0c-0.2-13.1-9.3-23-22-24.1
			c-0.9-0.1-1.7-0.1-2.6-0.1c-11.8-0.3-21.8,8.4-23.7,19.5c-0.2,1.1-0.3,2.2-0.3,3.4c0,0.4,0,0.8,0,1.2
			C915.1,2424.8,924.7,2434.9,938.1,2435.4z"/>
		<path class="st25" d="M257.8,2069.8c54.1-28.9,108.7-56.8,163.2-84.9c43.5-22.5,86.7-45.8,130.8-66.9
			c21.4-10.3,42.8-20.4,64.4-30.5c79-36.9,158.5-72.6,238.7-106.8c69.5-29.7,139.9-57,211-82.4c6.6-2.4,13.3-4.8,19.9-7.2
			c24.5-8.9,49-18.1,73.4-27.4c16.2-6.2,17.1-8.1,16.9-24.7c0-0.1,0-0.3,0-0.5c-1-1.9-2.4-3.8-3-5.8c-3-10.4-6-20.9-9-31.4
			c-4-14-8-28.1-12-42.1c-3-10.4-5.9-20.8-8.9-31.2c-0.8-2.7-1-5.6-1.4-8.3c-1-2.6-2-5.3-3-8c-3.2-9.6-8.6-13.3-18.5-11.9
			c-4.1,0.5-8.1,1.5-12,2.9c-20,7.8-40.2,15.2-59.9,23.7c-34.6,15-69.1,30.3-103.7,45.5c-16.4,7.2-32.7,14.4-49.1,21.6
			c-67.4,29.5-135.3,58.2-202.4,88.3c-99.6,44.4-198.8,89.6-297.7,135.4c-102.3,47.5-203.9,96.6-304.1,148.6
			c-20.1,10.4-40.2,20.8-60.3,31.2v168.2l24.6,14.2c0.1-0.1,0.3-0.1,0.4-0.2C122.4,2141,190.3,2105.7,257.8,2069.8z"/>
		<path class="st25" d="M408.4,2377.1c49.7-17.4,99.3-35.3,148.7-53.6c25-9.3,49.9-18.6,74.9-28.1c6-2.3,12.1-4.6,18.1-7
			c54.9-21.2,109.3-44,164-66c34.2-13.8,68.2-28.1,101.9-43.2c18.8-8.4,37.5-17,56.2-25.8c55.5-26.3,111.6-51,168.2-74.7l0,0
			c19.7-8.3,39.5-16.4,59.3-24.5c2.7-1.1,5.4-2.2,8-3.3c24.2-9.9,48.3-20,72.6-29.8c8.4-3.4,13.5-9.1,14.6-18.1c-1-3.2-2-6.4-3-9.7
			c-6.6-21.4-13.1-42.7-19.7-64c-1.6-5.3-3.2-10.6-4.9-15.9c-2-6.6-4.1-13.3-6.1-20c-0.8-2.5-1.3-5.1-1.9-7.6
			c-0.1-0.2-0.1-0.4-0.1-0.6c-0.7-1.1-1.3-2.2-2-3.3c-4.8-7.4-8-9.6-13.9-8.3c-1.8,0.4-4,1.2-6.5,2.3c-29,12.5-58,24.9-87.3,36.9
			c-10.1,4.1-20.1,8.2-30.2,12.3c-33.3,13.5-66.6,26.8-99.8,40.5c-21.9,9-43.6,18.5-65.3,27.8c-11.4,4.8-22.7,9.6-34.2,14.1
			c-48.4,19.3-97.3,37.5-145.8,56.4c-2.7,1.1-5.5,2.1-8.1,3.2c-40,15.6-80.1,31.2-120.3,46.5c-56.8,21.8-113.8,43.2-170.9,64.2
			c-42.1,15.4-83.9,31.7-126.2,46.6c-44.8,15.6-89.6,31.2-134.6,46.2l188,108.6c0.1,0,0.2-0.1,0.3-0.1
			C404.4,2378.5,406.4,2377.8,408.4,2377.1z"/>
		<path class="st26" d="M1488,1667.3c3.8,3.9,7.8,7.6,11.7,11.3c6.1,5.7,12.4,11,18.9,16c5.1,3.9,10.3,7.6,15.8,11
			c0.8,0.5,1.6,1,2.4,1.5c4.1,2.4,8.1,4.7,12.2,7.1c1.3,0.7,2.7,1.4,4,2c11.1,5.4,22.7,9.3,34.6,12.3c6.2,1.6,12.6,2.9,19.1,4
			c1.4,0.3,2.9,0.7,4.3,1.2c0.9,0.3,1.8,0.6,2.7,0.9c40.1,2.6,80.2,1.7,120.3,2c0.7,0,1.4,0.1,2.1,0.3c1.4,0.4,2.7,0.9,4.1,1.3
			c1.9-0.1,3.8-0.5,5.7-0.3c25.3,2.6,49.8,7.8,72.7,18.5c4.7,2.2,9.3,4.6,13.8,7.3c10.4,6.2,20.9,12.4,31.4,18.5
			c4.5,2.6,9,5.3,13.5,8c31.3,18.2,64.3,32.3,100.3,38.7c2.9,0.5,5.8,1,8.7,1.4c15.6,2.5,31.2,4.5,46.9,5.9
			c6.6,0.6,13.2,1.1,19.8,1.5c4.7,0.3,9.4,0.5,14.1,0.7c13.4,0.6,26.9,0.8,40.3,0.9c16,0.1,31.9,0,47.9,0.3c5.8,0.1,9.1-1.9,11.9-7
			c5.8-10.5,12.3-20.6,18.4-31c1.1-1.8,1.9-3.7,3.2-6.1c-0.9-0.5-1.8-1.1-2.6-1.6c-8.1-5.1-15.9-9.8-23.4-15c-1.5-1.1-3-1.7-4.4-2
			c-2.3-0.5-4.6-0.3-7.2,0.5c-5,1.5-10.2,2.5-16.2,3.9c-0.1-1.2-0.3-2.4-0.5-3.6c-0.5-4.1-1.1-7.8-1.2-11.4
			c-0.2-4.1-1.2-7.5-5.3-9.1c-2.6-1.1-4.8-2.9-7-4.7c-3.7-2.8-7.4-5.4-13-3.7c-3,0.9-6,2-9.1,2.8c-2.3,0.7-4.7,1.1-8,1.9
			c-0.3-3.5-0.8-6.2-0.9-8.9c-0.2-13.5,1.8-10-10-17.8c-0.5-0.4-1.1-0.7-1.6-1.1c-3.3-2.5-6.6-3-10.6-1.2c-4.2,1.9-8.7,2.9-14.2,4.6
			c-0.2-5.5-0.5-9.9-0.4-14.3c0.1-3.5-1.1-6-4.3-7.8c-2-1-3.9-2.2-5.6-3.5c-5.4-4.8-10.8-4.7-17.2-1.6c-10,4.7-10.8,4.3-10.7-6.5
			c0-0.4,0-0.7,0-1.1c-0.2-7-3-11.3-9.3-14.7c-5.5-3-10.1-5.4-16.8-3.2c-12.8,4.1-13.1,3.7-14.3-10.2c0-0.2,0-0.3-0.1-0.5
			c-0.4-3.8-1.4-6.9-5.3-8.7c-2.2-1.1-4.4-2.5-6.4-4c-2.8-2-5.5-2.5-8.8-0.9c-3.5,1.6-7,2.9-10.6,3.9c-3.9,1.2-5,0.5-5.9-3.6
			c-0.3-0.9-0.4-1.8-0.4-2.8c0.7-9.1-3.5-14.9-11.9-18.2c-1.2-0.5-2.2-1.2-3.2-2c-0.1-0.1-0.2-0.1-0.3-0.2
			c-4.6-3.5-9.3-4.1-14.6-1.1c-3.2,1.8-6.9,2.6-10.3,3.9c-3.5-5-2.6-9.9-2.6-14.5c0-3.6-1.2-6-4.4-7.6c-2-1-3.9-2.1-5.7-3.4
			c-4.3-2.8-8.3-3-13.3-1.2c-6.8,2.5-13.9,4.5-21.1,5.1c-6.7,0.6-13.7-0.5-19.5-3.7c-4.6-2.6-8.5-6.6-11-12.3
			c-1.1-2.4-1.9-5.2-2.5-8.2c-1.1-6.4-0.4-13.2-0.3-19.8c0-0.9,0-1.8,0.1-2.6c0.1-4.5,0.3-8.9,0.4-13.3c-0.1-0.1-0.1-0.1-0.1-0.1
			c-0.9-0.9-2-1.8-2.9-2.7c-0.6-0.6-1.1-1.2-1.6-1.9c-0.1-0.2-0.3-0.5-0.5-0.7c-3.2-5-6.8-9.6-10.8-13.9c-1-1.1-2-2.2-3.1-3.2
			c-8.9-8.8-19.1-16-30.2-22.3c-17-9.6-34.2-19-51.2-28.6c-0.2-0.1-0.3-0.2-0.5-0.3c-0.9-0.6-1.6-1.3-2.5-2
			c-0.2-0.2-0.5-0.4-0.7-0.5l0,0l0,0c-2.9-1.1-5.9-2-8.7-3.4c-16.2-7.8-32.3-15.7-49.6-21.1c-1.9-0.6-3.4-2.4-5.1-3.6
			c-6.8-1.2-13.7-1.9-20.3-3.9c-24.4-7.1-49.2-13.3-74.3-17.3c-0.1,0-0.2,0-0.3-0.1c-5.8-0.9-11.4-2.6-17.1-3.9c-0.1,0-0.1,0-0.1,0
			c-0.9,0.1-1.9,0-2.8-0.1c-28.1-6-56.3-6.6-84.7-3.6c-5.9,0.6-11.8,1.8-17.5,3.5c-6.6,2.1-13.1,4.3-19.7,6.4
			c-39.9,12.9-79.7,26.2-119.7,38.9c-51.1,16.2-101.6,34.2-151.6,53.4c0.5,2.8,0.7,5.7,1.4,8.3c3,10.4,5.9,20.8,8.9,31.2
			c4,14,8,28.1,12,42.1c3,10.4,6,20.9,9,31.3c0.6,2,1.9,3.9,3,5.8c0.7-0.2,1.2-0.5,1.9-0.7c22.9-7.8,45.9-15.8,68.9-23.5
			c21.6-7.2,42.9-15,64.9-20.8c37.9-9.9,74.5-6.2,108.9,13.7c12.4,7.2,23.6,15.8,34.2,25.3c2.9,3.1,5.8,6.2,8.7,9.3
			c4.7,4.9,9.3,9.9,14,14.9C1480.9,1660.2,1484.4,1663.8,1488,1667.3z M1658.1,1630.2c0,0.1,0,0.1,0,0.2c0,1.3-0.1,2.7-0.2,4
			c-0.8,10-4.2,19.3-9.7,27c-1.7,2.4-3.5,4.6-5.6,6.7c-9.7,9.7-23.3,15.8-39.2,15.6c-24.8-0.2-51-21.6-51.3-49.9
			c0-1.4,0.1-2.8,0.1-4.2l0,0c0-25.4,19.8-48,43.9-51.7c2.5-0.4,5.1-0.5,7.6-0.5c3.3,0.1,6.4,0.4,9.5,0.9c0.7,0.1,1.2,0.2,1.9,0.3
			C1640.8,1583.9,1658.2,1605.7,1658.1,1630.2z"/>
		<path class="st27" d="M1538,1421.1c5.7,1.3,11.3,3,17.1,3.9c0.1,0,0.2,0,0.3,0.1c25.2,4.1,49.9,10.3,74.3,17.3
			c6.6,1.9,13.5,2.6,20.3,3.9c3.7-9.4,7.4-18.8,11-28.1c3.8-9.8,9.7-17.6,19.7-21.9c12.5-5.4,24.2-3.8,34.7,4.4
			c10.5,8.2,14.7,19.5,12.5,32.7c-0.7,4-2.1,7.9-3.5,11.8c-3.5,9.8-7.2,19.5-10.8,29.2l0,0c0.2,0.2,0.5,0.3,0.7,0.5
			c0.8,0.7,1.6,1.4,2.5,2c0.1,0.1,0.3,0.2,0.5,0.3c17,9.5,34.2,19,51.2,28.6c11.1,6.2,21.4,13.5,30.2,22.3c1.1,1.1,2,2.1,3.1,3.2
			c3.9,4.2,7.6,8.8,10.8,13.9c0.1,0.3,0.3,0.5,0.5,0.7c0.5,0.7,1,1.3,1.5,1.9c0.9,0.9,2,1.8,2.9,2.7c0.1,0.1,0.1,0.1,0.1,0.1
			c0.8-1.3,1.6-2.7,2.2-4.1c1-2.4,2-4.8,2.9-7.2c3.5-8.7,7.1-17.5,10.6-26.2c4.8-11.8,9.5-23.5,14.3-35.2
			c6.2-15.2,12.4-30.4,18.5-45.6c0.5-1.1,0.9-2.2,1.4-3.4c3.6-8.9,7.2-17.7,10.8-26.6c4.5-11,8.9-22.1,13.1-33.3
			c3-7.8,7.7-13.3,15.2-17.1c11.5-5.8,23.5-10.7,35.9-14.4c7.5-2.2,14.7-5.5,22-8.3c-1.9-19.7-3.9-39.4-5.8-59
			c-0.9-9.7-1.3-19.5-2.2-29.2c-0.9-9.3-2.2-18.7-3.2-28.1c-0.9-8.1-1.5-16.3-2.4-24.4c-1.1-9.7-2.3-19.3-3.4-29
			c-0.9-8.7-1.6-17.5-2.4-26.3c-0.7-8.1-1.4-16.3-2.3-24.4c-0.1-1.1-1.3-2-2-3l0,0l0,0c-4.6,2-9,4.5-13.8,5.7
			c-5.8,1.4-11.8,1.7-17.8,2.2c-22.7,2-45,7-66.3,14.7c-41.7,15-81,35-119.8,56.3c-35,19.2-67,42.8-99.2,66.2
			c-18.4,13.4-31.4,30.6-39.6,51.9c-4.2,11-8.5,22-12.8,32.9c-11.1,28.4-22.4,56.8-33.6,85.2C1538,1421.1,1538,1421.1,1538,1421.1z"
			/>
		<path class="st28" d="M1942.9,1109c0.9,8.1,1.6,16.2,2.3,24.4c0.8,8.7,1.4,17.5,2.4,26.3c1,9.7,2.3,19.3,3.4,29
			c0.9,8.1,1.5,16.3,2.4,24.4c1.1,9.3,2.4,18.7,3.2,28.1c0.9,9.7,1.3,19.5,2.2,29.2c1.8,19.7,3.8,39.3,5.8,59c0,0,0,0,0,0.1
			c3.2-2,6.4-4,9.7-5.9c5.1-3.2,9.9-7.1,15.3-9.3c12.6-5,24.7-3.1,33.7,4.4c4.1,3.5,7.6,8.1,10.2,13.9c0.4,0.9,0.7,1.7,1.1,2.6
			c2.8,7.2,4.1,14.7,2.9,22.4c-0.6,3.9-0.2,7.3,1.2,10.1c1.4,2.9,3.9,5.3,7.4,7.2c3.9,2.1,7.8,4.3,11.4,6.7c0.7,0.5,1.3,0.8,2,1.1
			c3.2,1.4,6.1,0.9,9.5-0.7c4.1-2,8-5.1,12.8-4.3c0.6,1.1,1.1,1.5,1.2,2.1c0.3,1.2,0.7,2.6,0.5,3.7c-0.3,2-0.4,3.8-0.3,5.5
			c0.7,7,5.2,11.4,12.4,14.3c0.2,0.1,0.4,0.1,0.5,0.2c0.6,0.2,1.1,0.5,1.6,0.9c3.5,2.7,6.7,2.4,10.4,0.1c4.1-2.6,8.6-4.6,14.5-7.7
			c0.5,7,1,12.2,1.1,17.5c0,1.8,0.3,3.2,1,4.4c0.7,1.3,1.8,2.3,3.5,3.1c2,0.9,3.9,2,5.7,3.3c3.5,2.7,6.8,2.6,10.4,0.9
			c0.3-0.1,0.7-0.3,1-0.5c4.4-2.2,9.1-4,13.7-6c0.7,1.8,1.2,2.6,1.4,3.5c0.1,1.9,0.2,3.8,0.1,5.7c-0.4,13.8-2.1,9.9,10,17.3
			c0.9,0.4,1.6,0.9,2.5,1.4c3.4,2.6,6.7,2.6,10.5,0.8c4.7-2.2,9.7-4,14.3-5.8c0.9,1.4,1.6,1.8,1.6,2.4c0.3,3.2,0.6,6.3,0.8,9.5
			c0.5,7.7,0.9,8.5,5.6,11.8c0.8,0.6,1.8,1.2,2.8,2c6.4,4.5,11.7,4.4,17.8-0.1c2.9-2.1,6.1-4.5,10.7-3.6c0.1,2.6,0.8,5.3,0.3,7.6
			c-0.8,3.3-0.7,6-0.1,8.4c7.3,1.8,16.1,4.9,26.1,8.8c1.2-0.7,2.6-1.2,3.8-1.8c8.6-4.1,10.3-3.9,9.6,4.8c-0.1,0.5-0.1,1.1-0.1,1.6
			c-0.1,0.3-0.1,0.7-0.1,1c9.9,4.3,20.4,9.3,31.6,15c2.5-1.1,5.3-2,8.4-2.6c0.1,2.5,0.1,4.8,0.2,7.1c8.9,4.7,18,9.7,27.3,15
			c3.2,1.8,6.3,3.7,9.4,5.5c7.1-12.1,14.2-24.3,21-36.5c1.6-2.8,1.7-6.7,1.6-10.1c0-0.5,0-0.9-0.1-1.4c-0.5-16.4-2.2-32.8-5.2-48.9
			c-2-11-4.7-22-8-32.8c-2.5-8.5-5.3-16.8-8.4-24.9c-7.8-20.8-17.2-40.4-28.3-59.1c-2.8-4.7-5.6-9.3-8.5-13.7
			c-5.1-7.8-10.5-15.5-16.2-22.9c-3.7-5-7.7-9.9-11.7-14.7c-3.7-4.5-7.6-8.9-11.6-13.3c-5.4-5.9-11-11.7-16.7-17.4
			c-7.5-7.4-15.2-14.5-23.3-21.4c-0.3-0.3-0.6-0.5-0.9-0.8c-5.1-4.3-10.3-8.5-15.4-12.6c-46.3-36.2-98.1-62.4-154.5-79.6
			c-2.3-0.7-4.5-1.4-6.8-2c-29.4-8.5-59.3-14.3-89.6-17c-7.1-0.6-14.3-1.1-21.4-1.3c-3-0.1-6.4-1.6-8.5,2l0,0
			C1941.6,1107,1942.7,1108,1942.9,1109z"/>
		<path class="st27" d="M1417.6,1717.4c-1.8,3.9-3.6,7.8-5.5,11.8c-5.9,12.6-12,25.2-18.3,37.6c-5,9.7-10.1,19.4-15.4,28.9
			c-6,10.9-12.4,21.7-18.9,32.3c-0.8,1.3-1.6,2.6-2.5,3.9c-8.3,13.1-18.3,24.4-32.9,30.2c-20.4,8-41.3,14.8-62,22
			c-1.1,0.4-2.1,0.7-3.1,1.1c0.1,0.2,0.1,0.4,0.1,0.6c0.6,2.6,1.2,5.1,1.9,7.6c2,6.6,4.1,13.3,6.1,20c1.6,5.3,3.3,10.6,4.9,15.8
			c6.6,21.4,13.1,42.7,19.7,64c1,3.2,2,6.5,3,9.7c22.9-7.2,45.9-14.1,68.6-21.6c50.9-16.8,101.8-33.6,152.7-50.5
			c19.5-6.5,39-13,58.5-19.6c26.9-9.1,53.3-19.7,80-29.3c14.1-5.1,24.6-13.8,31.7-26.9c2.4-4.5,5.2-8.7,7.6-13.1
			c3.5-6.4,6.8-12.9,10.1-19.5c13.5-27.5,24.8-55.9,36.1-84.3c-1.4-0.4-2.8-1-4.1-1.3c-0.7-0.2-1.4-0.3-2-0.3
			c-40.1-0.3-80.2,0.7-120.3-2c-2.6,7.4-5.1,14.9-7.9,22.3c-8.3,22.2-16.7,44.4-25.2,66.4c-0.5,1.4-1.1,2.9-1.8,4.3
			c-1.1,2.3-2.3,4.5-3.7,6.6c-7.3,10.6-20.1,16-32.5,14.3c-3-0.4-5.9-1.2-8.7-2.4c-14.8-6.4-23.1-22.2-20-38
			c0.4-2.2,0.9-4.3,1.6-6.4c2.1-5.6,4.3-11.1,6.4-16.7c3-8,6.1-16,9.2-24c5.3-13.8,10.6-27.6,15.8-41.4c0.7-1.8,1.4-3.7,2.1-5.6
			c-4.1-2.4-8.2-4.7-12.2-7.1c-0.8-0.5-1.6-1-2.4-1.5c-5.5-3.4-10.7-7-15.8-11c-6.6-5.1-12.9-10.4-18.9-16c-4-3.7-7.9-7.5-11.7-11.3
			c-3.5-3.5-7-7.2-10.5-10.8c-4.7-4.9-9.3-9.9-14-14.9c-2.9-3.1-5.8-6.2-8.7-9.3c-0.7,2.4-1.2,4.9-2.2,7.2c-1.6,3.7-3.4,7.5-5,11.2
			c-4.6,10.3-9.1,20.6-13.7,30.8C1428.5,1693.7,1423.1,1705.6,1417.6,1717.4z"/>
		<path class="st29" d="M1603.8,1577.2c-2.6-0.1-5.1,0.1-7.6,0.5c-24.2,3.7-43.9,26.3-43.9,51.7c-0.1,1.4-0.2,2.8-0.1,4.2
			c0.3,28.4,26.5,49.8,51.3,49.9c15.8,0.1,29.5-5.9,39.2-15.6c2-2,3.9-4.3,5.6-6.6c5.5-7.8,8.9-17,9.7-27c0.1-1.3,0.2-2.6,0.2-4
			c0-0.1,0-0.1,0-0.2c0.1-24.4-17.3-46.3-42.8-51.7c-0.7-0.1-1.2-0.3-1.9-0.3C1610.3,1577.5,1607,1577.2,1603.8,1577.2z
			 M1607.2,1666.7c-1.4,0.1-2.8,0-4.3-0.1c-18.7,1.4-35.8-17.8-35.4-36.9c0.4-20,18.8-36.9,37.8-35.9c0.7,0.1,1.4,0.1,2,0.2
			c8.3,0.9,16,4.5,21.9,9.8c5.8,5.3,9.9,12.4,11.4,20.4c0.5,2.4,0.7,4.9,0.6,7.4c-0.1,4.7-1.4,9.7-3.8,14.6
			C1632.1,1656.8,1621.6,1666.1,1607.2,1666.7z"/>
		<path class="st30" d="M1637.4,1646.2c2.4-4.8,3.7-9.9,3.8-14.6c0.1-2.5-0.1-5-0.6-7.4c-1.4-8-5.6-15.1-11.4-20.4
			c-5.9-5.4-13.5-8.9-21.9-9.8c-0.7-0.1-1.4-0.1-2-0.2c-19-1-37.4,15.9-37.8,35.9c-0.3,19.1,16.7,38.3,35.4,36.9
			c1.4,0.1,2.9,0.1,4.3,0.1C1621.6,1666.1,1632.1,1656.8,1637.4,1646.2z"/>
		<polygon class="st6" points="1462.2,1118.4 1411.9,1118.4 1386.7,1161.9 1386.9,1162.2 1407,1197.1 1411.9,1205.5 1462.2,1205.5 
			1487.3,1161.9 1482.5,1153.5 1462.3,1118.6 		"/>
		<polygon points="726.6,1443.1 710.3,1471.3 722.2,1492 771,1463.8 759.1,1443.1 		"/>
		<polygon class="st11" points="726.6,1443.1 710.3,1471.3 722.2,1492 771,1463.8 759.1,1443.1 		"/>
		<polygon class="st1" points="726.6,1499.5 759.1,1499.5 775.4,1471.3 771,1463.8 722.2,1492 		"/>
		<polygon class="st11" points="726.6,1499.5 759.1,1499.5 775.4,1471.3 771,1463.8 722.2,1492 		"/>
		<polygon class="st31" points="265.3,893.1 290.4,849.6 265.3,806 215,806 189.9,849.6 215,893.1 		"/>
		<path class="st32" d="M1177.7,1378.7c0.2-0.3,0.3-0.8,0.4-1.2l-1.2,2.2C1177.2,1379.4,1177.5,1379.1,1177.7,1378.7z"/>
		<path class="st32" d="M1070.4,1344.4c-50.1-28.9-87.7-58.6-87.1-68.2l-28.7,49.7c-2.1,3.5,4.4,11.7,16.8,22.2
			c1.4,1.2,3,2.5,4.6,3.8c2.7,2.2,5.7,4.5,8.8,6.8c5.4,4,11.3,8.2,17.7,12.6c8.9,6,18.6,12.2,29,18.4c3.2,1.9,6.4,3.8,9.7,5.7
			c3.8,2.2,7.6,4.3,11.2,6.4c47.7,26.4,87.9,41.4,92.3,34l32.9-56.9c-0.2,0.3-0.5,0.7-0.9,0.9l-3,5.1
			C1169.3,1392.7,1122.9,1374.7,1070.4,1344.4z"/>
		<path class="st33" d="M1206.7,1327.8l-0.1,0.2C1206.7,1327.9,1206.7,1327.9,1206.7,1327.8c0.2-0.3,0.3-0.7,0.3-1.1l-1.1,1.8
			C1206.3,1328.3,1206.6,1328.1,1206.7,1327.8z"/>
		<path class="st33" d="M1206.1,1328.6l-25,43.2c-4.7,8-51-10-103.5-40.3c-50.6-29.2-88.5-59.1-87-68.5l-6.8,11.9
			c-0.2,0.4-0.3,0.8-0.4,1.2c-0.7,9.7,36.9,39.3,87.1,68.2c52.5,30.3,98.8,48.4,103.5,40.4l3-5.1l0,0l1.2-2.2l28.6-49.6l0.1-0.2
			C1206.6,1328.1,1206.3,1328.3,1206.1,1328.6z"/>
		<path class="st32" d="M1023.5,1205.6l0.6-1c-0.1,0.1-0.3,0.3-0.3,0.5C1023.6,1205.3,1023.6,1205.5,1023.5,1205.6z"/>
		<path class="st32" d="M1107.4,1280c-52.5-30.3-91.4-61.4-86.7-69.5l2.8-4.8c0.1-0.2,0.1-0.4,0.3-0.6l-32.9,56.9
			c-0.2,0.3-0.3,0.7-0.3,1c-1.4,9.3,36.4,39.3,87,68.5c52.5,30.3,98.8,48.4,103.5,40.3l25-43.2l1.1-1.8l3.5-6
			C1204.3,1327.5,1158.8,1309.6,1107.4,1280z"/>
		<path class="st33" d="M1148.1,1209.5c36.7,21.2,70.4,36.3,88.9,40.9l0,0C1218.4,1245.9,1184.7,1230.7,1148.1,1209.5
			c-36.6-21.2-66.6-42.7-79.8-56.5l0,0C1081.5,1166.8,1111.4,1188.3,1148.1,1209.5z"/>
		<path class="st33" d="M1243.8,1263.3c0.1-0.2,0.2-0.4,0.3-0.6l-0.7,1.1C1243.6,1263.7,1243.7,1263.5,1243.8,1263.3z"/>
		<path class="st33" d="M1243.4,1263.9l-24.8,42.8c-4.7,8.1-51-10-103.5-40.3c-51.3-29.6-89.6-60-86.9-68.9l-4.1,7.2l-0.6,1l0,0
			l-2.8,4.8c-4.7,8,34.2,39.2,86.7,69.5c51.4,29.7,96.9,47.6,103.2,40.8c0.1-0.1,0.3-0.3,0.4-0.5l8.7-15l24.2-41.9
			C1243.7,1263.5,1243.6,1263.7,1243.4,1263.9z"/>
		<path class="st32" d="M1251,1248.2c-4.9,8.5-51-8.9-103-38.9s-90.1-61.3-85.2-69.7c0.3-0.5,0.6-0.8,1.1-1.1
			c-1.2,0.3-2,0.9-2.5,1.6c-1.4,2.4,1.2,7,6.9,13c13.2,13.8,43.2,35.4,79.8,56.5c36.7,21.2,70.3,36.3,88.9,40.9
			c3.9,0.9,7,1.4,9.5,1.4c2.6-0.1,4.3-0.7,5.1-1.9l-0.1,0.1c0-0.1,0.1-0.1,0.1-0.1c0.6-1,0.5-2.3-0.1-3.9
			C1251.5,1246.8,1251.4,1247.6,1251,1248.2z"/>
		<path class="st32" d="M1246.4,1251.7c-2.4,0.1-5.7-0.5-9.5-1.4c-18.5-4.5-52.2-19.7-88.9-40.9c-36.6-21.2-66.6-42.7-79.8-56.5
			c-5.7-6-8.3-10.6-6.9-13l-32.9,56.9c-0.1,0.2-0.2,0.4-0.3,0.6c-2.6,8.9,35.6,39.2,86.9,68.9c52.5,30.3,98.8,48.4,103.5,40.3
			l24.8-42.8l0,0l0.7-1.1l7.4-12.8l0.1-0.1C1250.8,1251,1249.1,1251.7,1246.4,1251.7z"/>
		<path class="st34" d="M1104.4,1147.6c-2.3-0.9-4.5-1.8-6.6-2.6c-17.3-6.6-29.8-9.3-33.9-6.6c-0.5,0.3-0.9,0.7-1.1,1.1
			c-4.9,8.5,33.3,39.8,85.2,69.7c52,30,98.1,47.4,103,38.9c0.3-0.7,0.5-1.4,0.4-2.2c-0.1-1.2-0.7-2.8-1.8-4.5
			c-4.7-7.6-17.9-19.5-36.6-32.9c-13.3-9.6-29.5-20-47.2-30.2c-5.4-3.1-10.7-6.1-16-8.9c-7.8-4.2-15.2-8-22.4-11.5
			C1119.3,1154,1111.5,1150.6,1104.4,1147.6z"/>
		<path class="st35" d="M2225.8,1731.8c-58-33.5-102.7-67.8-107.8-82.1c-1.6,0.4-2.8,1.1-3.4,2.1c-4.6,8,25.2,34.2,70.5,63.7
			c8.7,5.7,17.9,11.4,27.6,17.1c3.2,1.9,6.5,3.8,9.8,5.7c0.5,0.3,0.9,0.5,1.4,0.8c10,5.8,19.8,11.2,29.3,16.1
			c38.2,20,70.8,33.2,87.3,35.4c1.7,0.2,3.2,0.3,4.6,0.3c3.3-0.1,5.5-0.8,6.4-2.4c0.7-1.1,0.6-2.5,0-4.3c0-0.1-0.1-0.1-0.1-0.2
			C2337,1787.3,2284.5,1765.6,2225.8,1731.8z"/>
		<path class="st35" d="M2345.1,1790.9c-1.3,0-2.9-0.1-4.6-0.3c-16.4-2.2-49-15.3-87.3-35.4c-9.5-5-19.3-10.4-29.3-16.1
			c-0.5-0.3-0.9-0.5-1.4-0.8c-3.3-1.9-6.6-3.8-9.8-5.7c-9.7-5.7-18.9-11.5-27.6-17.1c-45.4-29.4-75.2-55.7-70.5-63.7l-32.9,56.9
			c-3.5,6,12.7,22.6,40.5,43c7.8,5.7,16.6,11.8,26,18c3.4,2.3,7,4.5,10.6,6.8c8.8,5.6,18.1,11.2,27.9,17c0.9,0.5,1.9,1.1,2.9,1.6
			c27.9,16.1,54.3,29.4,76,38.6c29.2,12.4,49.6,17.3,53,11.6l32.9-56.9C2350.5,1790,2348.3,1790.8,2345.1,1790.9z"/>
		<path class="st36" d="M2267.7,1658.8c-46.7-26.9-84.7-54.4-100.5-71.6l0,0C2182.9,1604.4,2220.9,1631.8,2267.7,1658.8z"/>
		<path class="st36" d="M2387.6,1725.1c0.2-0.4,0.3-0.8,0.4-1.2l-1.2,2.2C2387.1,1725.7,2387.3,1725.4,2387.6,1725.1z"/>
		<path class="st36" d="M2380.2,1710.1C2380.1,1710.1,2380.1,1710.1,2380.2,1710.1c-12.2-2.7-30.2-9.5-51.5-19.4
			C2349.9,1700.6,2367.9,1707.4,2380.2,1710.1z"/>
		<path class="st36" d="M2386.7,1726l-23.1,39.9c-5.8,10.1-63.5-12.4-128.9-50.2c-63-36.3-110.1-73.7-108.3-85.3l-0.1,0.1l-8.5,14.7
			c-0.7,1.1-0.6,2.6,0.1,4.4c5.3,14.3,49.8,48.6,107.8,82.1c58.7,33.9,111.2,55.5,125.5,52.2c0.3-0.1,0.5-0.1,0.7-0.2
			c0.9-0.3,1.6-0.7,2.2-1.2c0.2-0.2,0.3-0.4,0.5-0.6l32.9-56.9C2387.3,1725.4,2387.1,1725.7,2386.7,1726z"/>
		<path class="st37" d="M2272,1651.5c-57.2-33.1-101.4-66.8-107.6-81.5c-2.3,0.3-3.9,1-4.6,2.3c-1.6,2.9,1.1,8.1,7.4,14.9
			c15.8,17.2,53.8,44.6,100.5,71.6c21.7,12.6,42.6,23.4,61,31.9c21.4,9.9,39.4,16.7,51.5,19.4c4,0.9,7.4,1.3,10.1,1.3
			c3.3-0.1,5.5-0.8,6.4-2.4c0.7-1.2,0.6-3-0.3-5.1C2380.3,1705.8,2329,1684.5,2272,1651.5z"/>
		<path class="st37" d="M2390.2,1711.4c-2.6,0.1-6-0.4-10.1-1.3c-12.2-2.7-30.2-9.5-51.5-19.4c-18.4-8.5-39.2-19.4-61-31.9
			c-46.7-26.9-84.7-54.4-100.5-71.6c-6.3-6.8-9.1-12.1-7.4-14.9l-32.9,56.9c-0.2,0.4-0.3,0.8-0.4,1.2
			c-1.8,11.6,45.3,48.9,108.3,85.3c65.4,37.7,123.1,60.2,128.9,50.2l23.1-39.9l1.2-2.2l8.5-14.8
			C2395.6,1710.6,2393.4,1711.3,2390.2,1711.4z"/>
		<path class="st38" d="M2433.7,1644.8c0.1-0.2,0.2-0.5,0.3-0.7l-0.8,1.3C2433.4,1645.2,2433.6,1645,2433.7,1644.8z"/>
		<path class="st38" d="M2410.5,1684.9c-5.8,10.1-63.5-12.4-128.9-50.2c-63.9-36.9-111.5-74.7-108.2-85.8l-2.3,3.9l-7,12.2
			c-0.7,1.2-0.6,3,0.3,5.1c6.2,14.7,50.4,48.4,107.6,81.5c57.1,33,108.3,54.3,124.3,52.5c2.3-0.3,3.9-1,4.6-2.3l27.5-47.7l5.3-9.2
			c-0.1,0.2-0.3,0.4-0.5,0.6L2410.5,1684.9z"/>
		<path class="st39" d="M2321.9,1567.4c-53-30.4-94.5-61.9-104.8-78.3c-5.7-0.7-9.5-0.1-10.7,2.1c-0.5,0.8-0.6,1.7-0.4,2.8
			c0,0.2,0.1,0.4,0.1,0.6c0,0.1,0,0.1,0,0.1c3.7,13.7,48.9,48.8,108.2,82.9c65.4,37.7,123.1,60.3,128.9,50.2l-0.1,0.1
			c0,0,0-0.1,0.1-0.1c1.2-2,0.1-5.3-3-9.6C2419.9,1616.6,2373.2,1596.9,2321.9,1567.4z"/>
		<path class="st39" d="M2314.4,1577.7c-59.3-34.2-104.5-69.2-108.2-82.9c0-0.1,0-0.1,0-0.1c-0.1-0.2-0.1-0.4-0.1-0.6
			c-0.2-1.1-0.1-2.1,0.4-2.9l-32.9,56.9c-0.1,0.3-0.2,0.5-0.3,0.7c-3.2,11,44.3,48.9,108.2,85.8c65.4,37.7,123.1,60.2,128.9,50.2
			l22.7-39.4l0.8-1.3l9.3-16l0.1-0.1C2437.5,1638,2379.8,1615.5,2314.4,1577.7z"/>
		<path class="st40" d="M2316.7,1513.9c-2.9-1.5-5.8-3-8.6-4.5c-11.2-5.7-21.8-10.7-31.6-15c-0.8-0.3-1.6-0.7-2.4-1.1
			c-3.7-1.6-7.4-3.1-10.8-4.5c-10-3.9-18.8-7-26.1-8.8c-12-3.1-19.8-3.2-21.9,0.4c-1.1,2-0.4,4.9,1.9,8.6
			c10.3,16.4,51.8,47.8,104.8,78.3c51.3,29.4,97.9,49.2,118.4,50.9c5.5,0.5,9.1-0.3,10.4-2.6c1-1.7,0.6-4.1-1.1-7.1
			c-1.4-2.6-3.7-5.7-6.8-9.1c-5.3-5.8-12.9-12.6-22.3-20.1c-17.2-13.6-40.4-29.4-67-45.1c-3.1-1.8-6.2-3.7-9.4-5.5
			C2334.8,1523.5,2325.6,1518.5,2316.7,1513.9z"/>
		<path class="st41" d="M1307.3,2387.5L1307.3,2387.5L1307.3,2387.5c-0.1,0.3-0.2,0.5-0.3,0.9l0.9-1.5
			C1307.7,2387,1307.5,2387.2,1307.3,2387.5z"/>
		<path class="st41" d="M1358.9,2455c-37.5-21.6-65.1-43.8-61.8-49.6l9.9-17.2c0-0.3,0.1-0.6,0.3-0.9l0,0l-32.9,56.9
			c-2.6,4.4,13.2,18.5,37.7,34.7c6.2,4.1,12.9,8.3,20.1,12.6l0,0c1.3,0.8,2.6,1.6,4,2.4c30.6,17.7,58.3,29.5,69.2,30.1
			c2.4,0.1,4-0.3,4.7-1.3l1.2-2l21-36.3C1426.8,2488.4,1394.9,2475.7,1358.9,2455z"/>
		<path class="st42" d="M1364.7,2445.2c-37.5-21.6-65.1-43.8-61.8-49.6l25.6-44.4c0-0.1,0-0.1,0-0.1l-20.6,35.6l-0.1,0.2l-0.9,1.5
			l-9.9,17.2c-3.4,5.8,24.3,27.9,61.8,49.6c35.9,20.8,67.8,33.5,73.3,29.4c0.3-0.2,0.4-0.4,0.5-0.6l5.4-9.4
			C1433.3,2478.9,1401.1,2466.1,1364.7,2445.2z"/>
		<path class="st43" d="M1471.4,2417c0.1-0.1,0.1-0.3,0.2-0.4l-0.5,0.7C1471.3,2417.2,1471.3,2417.1,1471.4,2417z"/>
		<path class="st43" d="M1469.4,2420l-4.9,8.5c-3.4,5.7-36.3-7.2-73.8-28.8c-35.8-20.6-62.6-41.8-62-48.6l-25.6,44.4
			c-3.3,5.7,24.4,27.9,61.8,49.6c36.3,21,68.6,33.7,73.5,29.2c0.1-0.1,0.3-0.3,0.4-0.5l32.9-56.9c-0.1,0.1-0.2,0.3-0.3,0.5l-1.2,2
			C1469.8,2419.7,1469.6,2419.9,1469.4,2420z"/>
		<path class="st42" d="M1496,2372.3c-0.1,0.2-0.3,0.3-0.4,0.5c0.8-0.2,1.4-0.6,1.7-1.1l-0.1,0.3c0.1-0.1,0.1-0.2,0.2-0.3
			c0.9-1.6-0.5-4.4-3.9-8.1C1496.2,2367.3,1497.2,2370.3,1496,2372.3z"/>
		<path class="st42" d="M1361.7,2293.4c-0.3,0.5-0.3,1.1-0.1,1.9c0.1-0.2,0.1-0.3,0.2-0.5c1.1-1.9,4.1-2.6,8.5-2.2
			C1365.7,2291.6,1362.6,2291.8,1361.7,2293.4z"/>
		<path class="st42" d="M1361.7,2293.4l-32.9,56.9c-0.1,0.2-0.2,0.5-0.3,0.7c0,0.1,0,0.1,0,0.1c-0.5,6.9,26.4,28.1,62,48.6
			c37.5,21.6,70.5,34.5,73.8,28.8l4.9-8.5c-5.3,4.2-37.3-8.5-73.3-29.3c-37.5-21.6-65.1-43.8-61.8-49.6l24.6-42.7
			c-0.1,0.2-0.2,0.4-0.2,0.6c0.1-0.2,0.1-0.4,0.2-0.6c0.4-0.7,1.2-1.1,2.4-1.2c-0.1-0.7,0-1.3,0.2-1.9
			C1361.4,2294.5,1361.4,2293.9,1361.7,2293.4z"/>
		<path class="st42" d="M1495.6,2372.8c-0.3,0.4-0.8,0.7-1.3,1c0.4,0.9,0.5,1.6,0.5,2.3l2.4-4.1l0.1-0.3
			C1497,2372.2,1496.4,2372.6,1495.6,2372.8z"/>
		<path class="st44" d="M1494.3,2373.7c-8.3,4-39.3-7.1-73.2-26.7c-33.7-19.5-58.8-40.6-59.7-49.9c-1.2,0.2-2,0.6-2.4,1.2
			c-0.1,0.2-0.2,0.4-0.2,0.6c-1.2,6.6,25.8,28,62,49c37.5,21.6,70.5,34.5,73.8,28.8l-0.1,0.1l0.1-0.1c0.1-0.2,0.2-0.5,0.3-0.7
			C1494.9,2375.4,1494.7,2374.7,1494.3,2373.7z"/>
		<path class="st44" d="M1420.7,2348c-36.3-21-63.3-42.4-62-49c0.1-0.2,0.1-0.4,0.2-0.6l-24.6,42.7c-3.3,5.7,24.4,27.9,61.8,49.6
			c36.1,20.8,68.1,33.5,73.3,29.3c0.2-0.1,0.4-0.3,0.5-0.6l1.2-2l0.1-0.1l0.5-0.7l4.7-8.1l18.3-31.6l0.1-0.1
			C1491.2,2382.5,1458.2,2369.6,1420.7,2348z"/>
		<path class="st45" d="M1403.4,2303c-4.4-1.9-8.5-3.6-12.5-5.1c-5.5-2-10.4-3.5-14.6-4.4c-2.2-0.5-4.3-0.8-6-1
			c-4.5-0.4-7.4,0.3-8.5,2.2c-0.1,0.1-0.1,0.3-0.2,0.5c0,0,0,0,0,0.1c-0.2,0.5-0.3,1.2-0.2,1.9c1,9.3,26,30.4,59.7,49.9
			c34,19.6,64.9,30.7,73.2,26.7c0.5-0.3,1-0.6,1.3-1c0.1-0.1,0.3-0.3,0.4-0.5c1.1-2,0.1-4.9-2.5-8.7c-7.6-10.8-29.3-27.7-56.8-43.6
			c-2.2-1.3-4.5-2.6-6.7-3.8c-1.5-0.9-3-1.6-4.5-2.4C1417.8,2309.6,1410.3,2306,1403.4,2303z"/>
		<path class="st46" d="M503.7,836.2c2.4,12.5,8.3,20.6,17.7,24.4c8.3,3.1,16.8,2.1,25.6-2.9l114.5-65.1l-53.4-270.9l-33.9,19.3
			l22.7,115.4l-82.2,46.7c-11.2,6.4-18.7,13.5-22.6,21.6c-5,9.7-5.9,22.7-2.7,39L503.7,836.2z M605.1,697.9l14.3,72.4l-80.6,45.9
			l-14.3-72.4L605.1,697.9z"/>
		<path class="st46" d="M801.7,712.9c8.3-4.7,15-13.3,20.3-25.6c5.2-12,6.6-25.2,4-37.9l-13.8-72.2c-3.2-16-8.4-25-15.7-27
			c-5.3-1.8-13.6,0.5-25,7l-82.9,47.2l-22.6-114.9l-34.4,19.5l53.3,270.4L801.7,712.9z M778,599.2l14.2,72l-81.4,46.3l-14.2-72
			L778,599.2z"/>
		<path class="st46" d="M907.5,755.4l-18.2-92.3l81-46.1c11.4-6.5,19.3-13.7,23.5-21.6c5.5-10.4,6.6-23.7,3.4-39.8l-14.1-71.5
			c-2.5-12.9-8.2-21.2-17-24.7c-8.8-3.5-17.6-2.8-26.4,2.2l-114.9,65.3l48.8,247.8L907.5,755.4z M948.1,503.9l14.1,71.6l-81,46.1
			L867.1,550L948.1,503.9z"/>
		<path class="st46" d="M1062.3,564.8L1062.3,564.8C1062.4,565.3,1062.4,565.3,1062.3,564.8z"/>
		<path class="st46" d="M1062.3,564.8c-1.3-6.7-19.1-96.9-53.3-270.4l-34.3,19.5l53.3,270.4L1062.3,564.8z"/>
		<path class="st46" d="M1091,539.5c6.2,2.4,15.4,0.1,27.7-6.8l81.4-46.3l9.9,49.8l-69.7,39.6l7.2,43.1l70.9-40.3
			c13.3-7.6,21.6-17,25-28.1c3-8.9,3.2-20.1,0.5-33.6l-40.4-205.4l-33.9,19.3l22.5,114l-81.4,46.3c-14.5-73.3-22-111.3-22.5-114
			l-33.9,19.3l23,116.9C1080.2,528.3,1084.8,537.1,1091,539.5z"/>
		<path class="st46" d="M1297.1,431.3c-1.1-5.5-8.6-43.7-22.5-114.4l80.2-45.7l2,10.2l35-19.8l-2.4-12.5c-3-15-8-23.9-15.1-26.3
			c-5.9-2.1-15.1,0.3-27.5,7.4l-115,64.9l30.8,156L1297.1,431.3z"/>
		<polygon points="376.8,907.5 390,884.9 376.8,862.2 350.7,862.2 337.6,884.9 350.7,907.5 		"/>
		<polygon class="st47" points="376.8,907.5 390,884.9 376.8,862.2 350.7,862.2 337.6,884.9 350.7,907.5 		"/>
		<polygon class="st31" points="1994.2,2145.9 2023.3,2095.4 2022.1,2093.3 1994.2,2044.9 1935.8,2044.9 1906.7,2095.4 
			1934.7,2143.8 1935.8,2145.9 		"/>
		<polygon points="485.9,2055.9 518.5,2055.9 534.8,2027.7 526.7,2013.8 477.9,2042 		"/>
		<polygon class="st48" points="485.9,2055.9 518.5,2055.9 534.8,2027.7 526.7,2013.8 477.9,2042 		"/>
		<polygon class="st1" points="485.9,1999.5 469.6,2027.7 477.9,2042 526.7,2013.8 518.5,1999.5 		"/>
		<polygon class="st48" points="485.9,1999.5 469.6,2027.7 477.9,2042 526.7,2013.8 518.5,1999.5 		"/>
	</g>
	<g>
		<path class="st49" d="M1260.5,2911L0,2183.3V727.8L1260.5,0L2521,727.8v1455.5L1260.5,2911z M62.4,2147.2l1198.1,691.7
			l1198.1-691.7V763.8L1260.5,72.1L62.4,763.8V2147.2z"/>
	</g>
</g>
</svg>
