<?xml version="1.0" encoding="utf-8"?>
<!-- Generator: Adobe Illustrator 22.0.1, SVG Export Plug-In . SVG Version: 6.00 Build 0)  -->
<svg version="1.1" id="Layer_1" xmlns="http://www.w3.org/2000/svg" xmlns:xlink="http://www.w3.org/1999/xlink" x="0px" y="0px"
	 viewBox="0 0 735 852" style="enable-background:new 0 0 735 852;" xml:space="preserve">
<style type="text/css">
	.st0{fill:#005198;}
	.st1{fill:#FFFFFF;}
	.st2{fill:#3374AD;}
	.st3{fill:#E6B35A;}
	.st4{fill:#003E6D;}
	.st5{fill:#213056;}
	.st6{opacity:0.94;fill:#003E6D;enable-background:new    ;}
	.st7{clip-path:url(#SVGID_2_);}
	.st8{opacity:0.94;}
	.st9{clip-path:url(#SVGID_4_);}
	.st10{clip-path:url(#SVGID_6_);}
	.st11{clip-path:url(#SVGID_8_);}
	.st12{clip-path:url(#SVGID_10_);}
	.st13{clip-path:url(#SVGID_12_);}
	.st14{clip-path:url(#SVGID_14_);}
	.st15{clip-path:url(#SVGID_16_);}
	.st16{opacity:0.94;fill:#FFFFFF;enable-background:new    ;}
	.st17{clip-path:url(#SVGID_18_);}
	.st18{clip-path:url(#SVGID_20_);}
	.st19{clip-path:url(#SVGID_22_);}
	.st20{clip-path:url(#SVGID_24_);}
	.st21{clip-path:url(#SVGID_26_);}
	.st22{clip-path:url(#SVGID_28_);}
	.st23{clip-path:url(#SVGID_30_);}
	.st24{clip-path:url(#SVGID_32_);}
	.st25{opacity:0.94;fill:#213056;enable-background:new    ;}
</style>
<title>dbplot</title>
<polyline class="st0" points="367.5,27 367.5,27 21.1,227 21.1,627 367.5,827 713.9,627 713.9,227 367.5,27 "/>
<path class="st1" d="M705.6,349.7V364c0.3-2.9,0.4-5.8,0.3-8.7C705.8,353.5,705.7,351.6,705.6,349.7"/>
<path class="st2" d="M372.2,160.2c-1.2,0-2.3,0-3.5,0s-2.3,0-3.5,0.1s-2.3,0.1-3.5,0.2s-2.3,0.1-3.5,0.2c-8.9,0.7-17.8,1.4-26.7,2.1
	s-17.7,1.6-26.6,2.6s-17.6,2.1-26.3,3.5s-17.4,2.9-25.9,4.8c-12.8,2.8-25.5,6-37.8,9.6c-12.3,3.6-24.3,7.8-36,12.4
	c-11.6,4.6-22.8,9.7-33.8,15.3c-10.7,5.5-21.1,11.6-31.1,18.3c-7.3,4.9-14.4,10.1-21.2,15.7c-6.6,5.5-12.9,11.3-18.8,17.5
	c-5.8,6.1-11.2,12.6-16.1,19.5c-4.9,6.8-9.3,14-13.2,21.4c-2.6,5-4.9,10.2-6.8,15.5c-4,11.1-6,22.7-6.2,34.5
	c-0.1,6.4,0.4,12.8,1.3,19.1c1.1,7.3,2.8,14.6,5.1,21.6c2.3,6.9,5.1,13.7,8.4,20.2c3.4,6.6,7.2,12.9,11.5,18.9
	c4.4,6.2,9.2,12.1,14.3,17.6c12.1,13.2,25.6,24.9,40.4,34.9c6.7,4.5,13.4,8.6,20.2,12.4s13.3,7.2,20,10.4c10.1,4.9,20,9.2,29.8,13.1
	s19.2,7.1,28.6,10s18.6,5.4,27.9,7.6s18.3,4,27.4,5.7c5,0.9,10.1,1.8,15.1,2.5s10,1.5,15,2.1s9.9,1.2,14.9,1.7s9.9,0.8,14.8,1.1
	c3.5,0.2,7,0.4,10.5,0.7l10.5,0.8c3.5,0.2,7,0.5,10.5,0.6s7,0.3,10.4,0.3c0.8,0,1.7,0,2.5,0h2.5l2.5-0.1l2.5-0.1
	c5-0.3,9.9-0.6,14.9-0.9s10-0.5,14.9-0.8s10-0.7,15-1.1s10-0.9,15.1-1.6c8-1,16.1-2.2,24.2-3.5c8.1-1.3,16.2-2.9,24.5-4.6
	c8.2-1.8,16.5-3.8,24.9-6c8.4-2.2,16.9-4.8,25.5-7.7c7.9-2.6,15.8-5.5,23.7-8.7s16.1-6.7,24.2-10.7s16.4-8.5,24.8-13.5
	s17-10.8,25.7-17.2c4.2-3.1,8.3-6.4,12.4-9.8c4.1-3.5,8-7.2,11.9-11.1s7.7-8.2,11.4-12.6s7.3-9.3,10.8-14.3c0.2-0.3,0.4-0.6,0.6-0.9
	s0.4-0.5,0.6-0.8c0.2-0.2,0.4-0.5,0.7-0.6c0.3-0.2,0.6-0.3,0.9-0.4l4.1-8.8l4.2-9c1.4-3.1,2.9-6.1,4.3-9.2s2.9-6.3,4.5-9.5
	c0.2-2.8,0.6-5.6,1-8.5s0.9-5.9,1.4-8.9s0.9-6,1.2-9v-0.2v-14.4c-0.2-3-0.5-5.9-0.9-8.8c-0.6-4.6-1.5-9.2-2.6-13.8
	c-1.1-4.4-2.4-8.8-4.1-13c-1.6-4.2-3.4-8.3-5.6-12.2c-6.9-12.5-15.1-24.2-24.5-35c-9.6-10.9-20.2-20.8-31.7-29.5
	c-11.9-9.1-24.6-17.1-37.9-24.1c-13.9-7.3-28.3-13.7-43-19.2c-8.7-3.3-17.6-6.4-26.6-9.2c-9-2.8-18.2-5.4-27.5-7.8
	c-9.3-2.3-18.8-4.4-28.3-6.1c-9.6-1.7-19.3-3.1-29-4.2c-5.9-0.6-11.9-1.4-17.8-2.1s-11.9-1.5-17.9-2.2s-12-1.3-18-1.7
	S378.2,160.2,372.2,160.2"/>
<path class="st1" d="M547.9,712.5L367.5,816.7l-176.7-102l9,20.3c0.7,1.5,1.4,2.9,2.4,4.2c0.9,1.3,8.9,13,10,14.3s13.3,7.8,14.7,9
	s2.9,2.2,4.4,3.3c3.9,2.6,7.9,5,12.1,7.1c4.1,2.1,8.3,3.9,12.6,5.6c4.3,1.6,114.9,54.8,119.3,56.2h0.1
	c6.3,0,162.3-101.8,164.1-103.8C540.8,727.9,545,718.7,547.9,712.5"/>
<path class="st2" d="M569.4,666.7c-0.8,0.7-1.5,1.5-2.1,2.3c-0.6,0.8-1,1.6-1.5,2.4s-0.9,1.6-1.4,2.4c-0.5,0.8-1.1,1.6-1.8,2.3
	c-2.9,3-6,5.8-9.2,8.4c-3.2,2.5-6.6,4.8-10.1,7c-3.5,2.1-7.1,4-10.8,5.8s-7.5,3.4-11.3,4.9c-5.5,2.1-10.9,4.1-16.4,5.8
	c-5.4,1.7-10.9,3.3-16.2,4.7c-5.4,1.4-10.7,2.6-16.1,3.8s-10.7,2.1-16.1,2.9c-3.6,0.6-7.3,1.1-10.9,1.6c-3.6,0.5-7.2,1-10.8,1.4
	c-3.6,0.4-7.2,0.8-10.8,1.2s-7.2,0.7-10.7,1c-4,0.3-8,0.6-11.9,0.8s-7.9,0.4-11.9,0.5c-3.9,0.1-7.9,0.2-11.8,0.3l-11.8,0.2h-1.9
	c-1.2,0-2.5,0-3.7,0l-3.7-0.1l-3.8-0.1c-1.2,0-2.5-0.1-3.8-0.1L345,726c-1.2,0-2.5-0.1-3.7-0.1l-3.7-0.2c-1.2-0.1-2.5-0.2-3.7-0.3
	c-3.6-0.3-7.3-0.6-11-0.9s-7.4-0.7-11-1s-7.4-0.8-11.1-1.2s-7.4-1-11.2-1.5c-6.6-1-13.2-2.1-19.8-3.4s-13.2-2.8-19.8-4.5
	s-13.3-3.7-20-5.9s-13.5-4.8-20.3-7.7c-2.2-0.9-4.3-1.9-6.5-3c-2.1-1.1-4.2-2.2-6.3-3.4c-2.1-1.2-4.1-2.4-6.1-3.8s-4-2.7-5.9-4.2
	c-1.7-1.3-3.3-2.6-4.8-3.9s-3-2.7-4.4-4.1c-1.4-1.4-2.6-2.9-3.8-4.4c-1.2-1.5-2.2-3.1-3.1-4.8c0.2,0.3,0.3,0.6,0.5,1l0.4,1l0.4,1
	l0.4,1c1.9,3.9,3.7,7.8,5.5,11.6c1.8,3.7,3.5,7.4,5.2,11s3.3,7,4.9,10.4c0.6,1.3,2.4,5.4,4.6,10.3l176.7,102l180.5-104.3
	c1-2.2,1.8-4,2.3-5c1.9-4.1,3.9-8.4,6-12.7c2.1-4.3,4.2-8.9,6.4-13.6C564.8,676.5,567.1,671.7,569.4,666.7"/>
<path class="st2" d="M609.9,579.3c-0.2,0.1-0.4,0.2-0.6,0.3c-0.2,0.1-0.4,0.2-0.5,0.4c-0.1,0.1-0.3,0.3-0.4,0.5
	c-0.1,0.2-0.2,0.3-0.3,0.5c-1.7,3.7-3.9,7.2-6.3,10.5c-2.4,3.2-5.1,6.3-8,9.1c-2.9,2.8-6,5.5-9.2,7.9c-3.2,2.5-6.6,4.8-10,7
	c-6,3.8-11.9,7.2-17.9,10.3s-11.9,5.7-17.8,8.2s-11.8,4.6-17.8,6.5s-11.8,3.7-17.7,5.3c-6.6,1.8-13.2,3.5-19.7,5s-13,2.8-19.4,4
	c-6.4,1.2-12.8,2.2-19.2,3c-6.4,0.9-12.7,1.6-19,2.2l-10.6,1c-3.5,0.3-7.1,0.6-10.6,0.9s-7,0.5-10.5,0.6s-7,0.3-10.5,0.3h-4.4h-4.4
	h-4.4h-4.4h-6c-2,0-4,0-6-0.1s-4-0.1-6-0.2s-4-0.2-6-0.3c-2.9-0.2-5.8-0.3-8.7-0.5s-5.8-0.4-8.7-0.6s-5.8-0.5-8.7-0.7
	s-5.8-0.5-8.7-0.9c-4.1-0.4-8.1-0.9-12.2-1.5s-8.2-1.2-12.3-1.8c-4.1-0.7-8.3-1.4-12.4-2.2c-4.2-0.8-8.3-1.7-12.6-2.6
	c-5.6-1.2-11.1-2.6-16.7-4s-11.2-3-16.8-4.8s-11.3-3.7-17-5.8s-11.5-4.5-17.3-7.1c-3.8-1.7-7.5-3.5-11.2-5.4
	c-3.7-1.9-7.4-4-11.1-6.2c-3.7-2.3-7.3-4.7-10.8-7.3s-7.1-5.5-10.4-8.6c-1.8-1.6-3.4-3.3-5-5c-1.6-1.7-3.1-3.4-4.6-5.2
	c-1.4-1.8-2.8-3.6-4.1-5.5s-2.5-3.8-3.7-5.8c3.1,6.7,6.1,13.3,9,19.7c2.9,6.2,5.7,12.3,8.4,18.2c2.7,5.8,5.3,11.4,7.9,16.9
	c2.5,5.3,5,10.6,7.4,15.7c0.1,0.2,0.2,0.3,0.3,0.5c0.1,0.2,0.2,0.3,0.4,0.5l0.4,0.5c0.1,0.2,0.2,0.3,0.4,0.5
	c2.1,2.8,4.4,5.4,6.9,7.8c2.5,2.4,5.1,4.7,7.9,6.8c2.8,2.1,5.7,4,8.7,5.9s6.2,3.6,9.4,5.2c4.4,2.3,8.8,4.3,13.3,6.2
	s8.8,3.5,13.2,5.1s8.8,2.9,13.2,4.2s8.8,2.5,13.2,3.5c6.3,1.5,12.5,2.9,18.6,4.1c6.1,1.2,12.2,2.3,18.3,3.2s12.1,1.8,18.2,2.5
	s12.1,1.3,18.1,1.8c3.8,0.3,7.6,0.6,11.4,0.8c3.8,0.2,7.6,0.4,11.4,0.6s7.6,0.3,11.3,0.3s7.5,0.2,11.3,0.2h3.5c2.2,0,4.5,0,6.7-0.1
	s4.5-0.1,6.7-0.2s4.5-0.2,6.8-0.3l6.8-0.3c4.1-0.2,8.3-0.5,12.4-0.8c4.1-0.3,8.3-0.6,12.4-1c4.1-0.4,8.3-0.8,12.5-1.3
	s8.4-1,12.5-1.7c6.1-0.9,12.2-1.9,18.3-3c6.1-1.1,12.2-2.4,18.4-3.8c6.2-1.5,12.4-3.1,18.6-5s12.6-4,18.9-6.3
	c3.1-1.2,6.2-2.4,9.2-3.7s6.1-2.7,9.1-4.2s6-3.1,8.9-4.8s5.8-3.5,8.7-5.5c1.7-1.2,3.4-2.4,4.9-3.7s3.1-2.7,4.5-4s2.9-2.8,4.3-4.3
	s2.7-3,4.1-4.5l7.7-16.3c2.7-5.7,5.4-11.6,8.3-17.6l8.9-19L609.9,579.3"/>
<path class="st2" d="M671.8,449.4c-1.5,1.7-2.8,3.4-4,5.3c-1.1,1.8-2.1,3.6-3.1,5.4s-1.9,3.6-3,5.4c-1.1,1.8-2.2,3.6-3.5,5.2
	c-4.8,6.1-10,11.9-15.5,17.5c-5.1,5.1-10.4,9.9-16,14.4c-5.4,4.3-10.9,8.3-16.5,12s-11.2,7-16.9,10.2c-7.1,4-14.2,7.5-21.2,10.8
	s-13.8,6.2-20.6,8.9s-13.5,5.1-20.2,7.3s-13.2,4.2-19.8,6s-13.3,3.5-19.9,5s-13.1,2.8-19.5,4.1s-12.9,2.3-19.3,3.3
	s-12.8,1.8-19.1,2.6c-4.7,0.6-9.5,1-14.1,1.4s-9.4,0.7-14,1s-9.3,0.5-14,0.8s-9.3,0.5-14,0.8l-2.4,0.1l-2.4,0.1c-0.8,0-1.6,0-2.4,0
	H368c-3.2,0-6.5-0.1-9.8-0.2s-6.5-0.3-9.8-0.5s-6.5-0.5-9.8-0.7s-6.6-0.5-9.8-0.7c-4.7-0.3-9.3-0.6-13.9-1s-9.2-0.9-13.9-1.4
	c-4.7-0.6-9.3-1.2-14-1.9c-4.7-0.7-9.4-1.5-14.1-2.2c-9.5-1.6-19.1-3.5-28.7-5.7s-19.4-4.9-29.1-7.9s-19.9-6.6-30-10.6
	c-10.2-4.1-20.6-8.8-31.2-14.1c-4.9-2.4-9.7-5-14.6-7.8s-9.7-5.9-14.5-9.2s-9.7-7-14.4-10.9s-9.6-8.3-14.3-13.1
	c-2.7-2.8-5.4-5.5-8-8.4s-5.1-5.8-7.5-8.9s-4.7-6.3-6.8-9.6c-2.2-3.4-4.1-6.9-5.9-10.5c4.9,10.7,9.6,21.1,14.2,31.1
	c4.5,9.7,8.8,19.1,13,28.2c4.1,8.8,8.1,17.4,12,25.7c3.8,8.1,7.4,15.9,11,23.5c0.1,0.2,0.3,0.5,0.4,0.7c0.2,0.2,0.3,0.5,0.5,0.7
	l0.5,0.7c0.2,0.2,0.3,0.5,0.5,0.7c2.9,4.2,6.2,8.3,9.7,12c3.4,3.6,7,7,10.9,10.1c3.8,3.1,7.7,5.9,11.7,8.6s8,5.1,12.2,7.5
	c5.6,3.2,11.2,6.1,16.9,8.7c5.6,2.6,11.1,5,16.7,7.2s11,4.1,16.5,5.9s10.9,3.4,16.4,4.9s11,2.9,16.5,4.2s10.8,2.4,16.2,3.5
	s10.7,2,16,2.9s10.6,1.6,15.9,2.3c4.9,0.7,9.9,1.3,14.8,1.8s9.9,1,14.8,1.3c4.9,0.4,9.7,0.7,14.6,1c4.9,0.3,9.7,0.4,14.5,0.5
	l3.8,0.1h3.8h3.8h3.8c3.5,0,7,0,10.4-0.1s7-0.1,10.4-0.3s7-0.3,10.5-0.5s7-0.4,10.5-0.7c3-0.2,5.9-0.5,8.9-0.7s5.9-0.5,8.9-0.8
	s5.9-0.6,8.9-1s6-0.7,8.9-1.2c5.9-0.8,11.8-1.8,17.8-2.8c6-1.1,12-2.2,18-3.5s12.1-2.8,18.2-4.4s12.3-3.4,18.6-5.4
	c4.5-1.4,9-3,13.5-4.6s9-3.4,13.6-5.3c4.6-1.9,9.1-4,13.7-6.2s9.1-4.6,13.7-7.2c4.1-2.4,8.2-4.9,12.1-7.6s7.8-5.6,11.6-8.7
	c3.8-3.2,7.4-6.5,10.9-10.1c3.6-3.7,7-7.6,10.1-11.6l11.5-24.4c4.1-8.7,8.2-17.6,12.5-26.8c4.5-9.5,9.1-19.3,13.8-29.4L671.8,449.4"
	/>
<path class="st3" d="M367,633.9c0.3-0.3,0.6-0.6,0.9-0.9h-0.3C367.5,633.3,367.3,633.6,367,633.9z"/>
<path class="st1" d="M365.1,797.3l4.5,4.5c1,1,1.9,1.9,2.7,2.9h0.1c-0.4-1.2-0.7-2.5-1-3.8l-1.4-6.3l1.6-0.9l4.7,4.3
	c1.1,1,2.1,2,2.9,2.9h0.1c-0.5-1.3-0.8-2.6-1.2-3.9l-1.6-6.1l1.9-1.1L381,802l-1.7,1l-4.5-4.1c-1-0.9-2-1.9-2.9-2.9h0
	c0.4,1.3,0.8,2.6,1.1,4l1.2,6l-1.7,1l-9.2-8.6L365.1,797.3z"/>
<path class="st1" d="M381.2,787.9l4.5,4.5c1,1,1.9,1.9,2.7,2.9h0.1c-0.4-1.2-0.7-2.5-1-3.8l-1.4-6.3l1.6-0.9l4.7,4.3
	c1.1,1,2.1,2,2.9,2.9h0.1c-0.5-1.3-0.8-2.6-1.2-3.9l-1.6-6.1l1.9-1.1l2.7,12.4l-1.7,1l-4.5-4.1c-1-0.9-2-1.9-2.9-2.9l0,0
	c0.4,1.3,0.8,2.6,1.1,4l1.2,6l-1.7,1l-9.3-8.7L381.2,787.9z"/>
<path class="st1" d="M397.4,778.5l4.5,4.5c1,1,1.9,1.9,2.7,2.9h0.1c-0.4-1.2-0.7-2.5-1-3.8l-1.4-6.3l1.6-0.9l4.7,4.3
	c1.1,1,2.1,2,2.9,2.9h0.1c-0.5-1.3-0.8-2.6-1.2-3.9l-1.6-6.1l1.9-1.1l2.7,12.4l-1.7,1l-4.5-4.1c-1-0.9-2-1.9-2.9-2.9h0
	c0.4,1.3,0.8,2.6,1.1,4l1.2,6l-1.7,1l-9.2-8.6L397.4,778.5z"/>
<path class="st1" d="M416.7,779.7c-0.5-0.7-0.3-1.6,0.4-2.1c0,0,0.1,0,0.1-0.1c0.7-0.5,1.7-0.3,2.2,0.5c0.5,0.7,0.3,1.7-0.5,2.2
	C418.2,780.7,417.2,780.5,416.7,779.7C416.7,779.8,416.7,779.8,416.7,779.7z"/>
<path class="st1" d="M418,770.8c-0.7-1.2-1.4-2.3-2-3.2l1.7-1l1.3,2h0.1c-0.4-1.5,0.2-3.2,1.6-4c0.2-0.1,0.4-0.2,0.6-0.2l1,1.8
	c-0.2,0.1-0.5,0.2-0.7,0.3c-1.3,0.8-1.8,2.5-1.1,3.9c0.1,0.3,0.3,0.6,0.4,0.9l3.2,5.6l-1.8,1.1L418,770.8z"/>
<path class="st1" d="M427.9,772.1c1,0,2-0.2,3-0.7c1.4-0.8,1.6-1.9,1.1-2.7s-1.4-1.1-3.1-0.8c-2.3,0.4-3.8-0.1-4.5-1.3
	c-1-1.7-0.4-3.9,1.8-5.2c0.9-0.5,1.9-0.8,3-0.8l0.3,1.7c-0.9,0-1.7,0.2-2.5,0.6c-0.9,0.4-1.3,1.4-1,2.3c0,0,0,0.1,0.1,0.1
	c0.5,0.9,1.4,0.9,3,0.6c2.2-0.4,3.7,0,4.6,1.5c1.1,1.8,0.4,4-2.1,5.4c-1,0.6-2.2,1-3.4,1L427.9,772.1z"/>
<path class="st1" d="M432.3,754.1l1.8,3l2.7-1.6l0.9,1.4l-2.7,1.6l3.3,5.6c0.8,1.3,1.5,1.8,2.6,1.2c0.4-0.2,0.7-0.5,1-0.8l0.9,1.4
	c-0.4,0.5-1,0.9-1.5,1.2c-0.7,0.5-1.7,0.6-2.5,0.4c-1-0.4-1.9-1.3-2.3-2.3l-3.3-5.7l-1.6,0.9l-0.8-1.5l1.6-0.9l-1.5-2.5L432.3,754.1
	z"/>
<path class="st1" d="M452.1,756.8c0.6,1.1,1.2,2,1.7,2.8l-1.7,1l-1.1-1.6l0,0c0,1.7-0.9,3.2-2.3,4c-1.6,1-4.1,1.2-6.3-2.5l-3.6-6.1
	l1.9-1.1l3.4,5.8c1.2,2,2.5,3,4.3,2c1.1-0.7,1.7-1.9,1.5-3.2c-0.1-0.4-0.2-0.7-0.4-1.1l-3.7-6.4l1.9-1.1L452.1,756.8z"/>
<path class="st1" d="M457,737.2l7.4,12.6c0.5,0.9,1.2,2,1.7,2.7l-1.7,1l-1.1-1.8l0,0c0.1,1.7-0.9,3.3-2.4,4.1
	c-2.5,1.5-5.7,0.5-7.6-2.7c-2-3.5-1.1-6.9,1.4-8.3c1.2-0.8,2.8-0.9,4.1-0.2h0l-3.6-6.2L457,737.2z M460.4,747.5
	c-0.2-0.3-0.3-0.5-0.5-0.8c-1-1.1-2.7-1.4-4-0.6c-2,1.1-2.1,3.5-0.8,5.9c1.2,2.1,3.3,3.3,5.3,2.1c1.3-0.8,2-2.4,1.5-3.9
	c-0.1-0.3-0.2-0.6-0.4-0.9L460.4,747.5z"/>
<path class="st1" d="M463.4,736.1c0.4,0.7,0.2,1.5-0.5,1.9s-1.5,0.2-1.9-0.5l0,0c-0.4-0.6-0.2-1.4,0.4-1.8c0,0,0,0,0.1,0
	c0.6-0.4,1.4-0.2,1.8,0.4C463.4,736,463.4,736,463.4,736.1z M469.1,750.7l-6.1-10.5l1.9-1.1l6.1,10.4L469.1,750.7z"/>
<path class="st1" d="M480.5,736.9c2.2,3.9,0.5,7.1-2,8.6c-2.8,1.6-6.2,0.8-8.1-2.5c-2-3.5-0.9-6.9,2-8.6S478.7,733.8,480.5,736.9z
	 M472.3,741.9c1.3,2.3,3.7,3.2,5.5,2.2s2.2-3.6,0.8-5.9c-1-1.8-3.2-3.5-5.5-2.2S471.1,739.9,472.3,741.9L472.3,741.9z"/>
<path class="st1" d="M484.4,740.3c-0.4-0.7-0.1-1.6,0.7-2c0.7-0.4,1.6-0.1,2,0.7c0.4,0.7,0.1,1.6-0.6,2c-0.7,0.4-1.6,0.2-2-0.5
	C484.4,740.4,484.4,740.3,484.4,740.3z"/>
<path class="st1" d="M497.2,733.8c-0.7,1-1.6,1.8-2.6,2.3c-3.1,1.8-6.5,0.9-8.3-2.3c-1.8-2.8-1-6.6,1.8-8.5c0.2-0.1,0.4-0.2,0.6-0.3
	c0.9-0.5,1.9-0.9,2.9-1l0.4,1.7c-0.9,0-1.7,0.3-2.5,0.8c-2.4,1.4-2.7,3.9-1.4,6.1c1.4,2.4,3.8,3,5.9,1.8c0.8-0.5,1.5-1.1,2-1.9
	L497.2,733.8z"/>
<path class="st1" d="M505.9,722.2c2.3,3.9,0.6,7.1-2,8.6c-2.8,1.7-6.2,0.8-8.1-2.5c-2-3.5-0.9-6.9,2-8.6S504,719,505.9,722.2z
	 M497.6,727.1c1.3,2.3,3.7,3.2,5.5,2.2s2.2-3.5,0.8-5.9c-1-1.8-3.2-3.5-5.5-2.2S496.5,725.1,497.6,727.1z"/>
<path class="st1" d="M506.9,718.5c-0.6-1.1-1.2-2-1.7-2.8l1.7-1l1.1,1.6h0.1c-0.1-1.6,0.8-3.1,2.2-3.8c1.3-0.8,3-0.6,4.2,0.4l0,0
	c0-0.7,0.1-1.4,0.4-2c0.4-0.9,1-1.6,1.9-2.1c1.4-0.8,4-1.1,6.1,2.5l3.6,6.2l-1.8,1.1l-3.4-6c-1.2-2-2.6-2.8-4.1-1.9
	c-1,0.6-1.5,1.8-1.2,3c0.1,0.4,0.2,0.7,0.4,1l3.8,6.5l-1.9,1.1l-3.7-6.2c-1-1.7-2.4-2.5-3.9-1.6c-1.1,0.7-1.6,2-1.2,3.3
	c0.1,0.4,0.2,0.7,0.4,1l3.7,6.3l-1.9,1.1L506.9,718.5z"/>
<g>
	<polygon class="st4" points="409.9,187.5 409.8,194.6 348.3,194.6 348.3,187.5 	"/>
	<polygon class="st5" points="414.4,238.8 414.3,245.9 412.4,245.9 412.5,238.8 	"/>
	<polygon class="st4" points="344.1,240.6 344.2,247.8 281.7,247.8 281.6,240.6 	"/>
	<polygon class="st5" points="414.5,241.4 414.4,248.6 412.4,248.6 412.5,241.4 	"/>
	<polygon class="st4" points="477,241.4 476.8,248.6 414.4,248.6 414.5,241.4 	"/>
	<polygon class="st5" points="482.1,276.5 481.9,283.6 479.9,283.6 480.1,276.5 	"/>
	<polygon class="st4" points="545.5,279.2 545.1,286.3 482,286.3 482.2,279.2 	"/>
	<polygon class="st5" points="482.2,279.2 482,286.3 480,286.3 480.2,279.2 	"/>
	<polygon class="st4" points="276.5,287.8 276.7,295 213.4,295 213.1,287.8 	"/>
	<polygon class="st4" points="553.5,356.5 553.2,363.7 549.1,363.7 549.5,356.5 	"/>
	<polygon class="st4" points="484.8,356.5 484.6,363.7 480.6,363.7 480.8,356.5 	"/>
	<polygon class="st4" points="278.8,356.5 279,363.7 275,363.7 274.8,356.5 	"/>
	<polygon class="st1" points="480.8,238.8 482.1,276.5 480.1,276.5 480.2,279.2 482.2,279.2 484.8,356.5 480.8,356.5 477,241.4 
		414.5,241.4 412.5,241.4 412.5,238.8 414.4,238.8 	"/>
	<polygon class="st4" points="347.5,356.5 347.5,363.7 343.5,363.7 343.5,356.5 	"/>
	<polygon class="st1" points="549.2,276.5 553.5,356.5 549.5,356.5 545.5,279.2 482.2,279.2 480.2,279.2 480.1,276.5 482.1,276.5 	
		"/>
	<polygon class="st4" points="416.2,356.5 416.1,363.7 412,363.7 412.1,356.5 	"/>
	<polygon class="st1" points="413.6,184.9 414.4,238.8 412.5,238.8 412.5,241.4 414.5,241.4 416.2,356.5 412.1,356.5 409.9,187.5 
		348.3,187.5 347.5,356.5 343.5,356.5 344.1,240.6 344.1,238 344.5,184.9 	"/>
	<polygon class="st1" points="276.6,285.1 276.5,287.8 213.1,287.8 210.2,356.5 206.1,356.5 209.3,285.1 	"/>
	<polygon class="st4" points="210.2,356.5 210.5,363.7 206.4,363.7 206.1,356.5 	"/>
	<polygon class="st1" points="344.1,238 344.1,240.6 281.6,240.6 278.8,356.5 274.8,356.5 276.5,287.8 276.6,285.1 277.8,238 	"/>
	<polygon class="st6" points="546.2,416.8 545.9,424 533.6,424 533.9,416.8 	"/>
	<polygon class="st6" points="580.9,416.8 580.5,424 559.9,424 560.3,416.8 	"/>
	<path class="st4" d="M205.5,431.3l0.3,7.2c0-0.3,0-0.5-0.1-0.8l-0.1-0.8c0-0.3-0.1-0.5-0.1-0.8c0-0.2-0.1-0.5-0.2-0.7l-0.3-7.2
		c0.1,0.2,0.1,0.5,0.2,0.7s0.1,0.5,0.1,0.8s0.1,0.5,0.1,0.8S205.5,431.1,205.5,431.3z"/>
	<g>
		<defs>
			<path id="SVGID_1_" d="M205.5,431.3l0.3,7.2c0-0.3,0-0.5-0.1-0.8l-0.1-0.8c0-0.3-0.1-0.5-0.1-0.8c0-0.2-0.1-0.5-0.2-0.7l-0.3-7.2
				c0.1,0.2,0.1,0.5,0.2,0.7s0.1,0.5,0.1,0.8s0.1,0.5,0.1,0.8S205.5,431.1,205.5,431.3z"/>
		</defs>
		<clipPath id="SVGID_2_">
			<use xlink:href="#SVGID_1_"  style="overflow:visible;"/>
		</clipPath>
		<g class="st7">
			<g class="st8">
				<path class="st4" d="M205.5,431.3l0.3,7.2c0-0.3,0-0.5-0.1-0.8l-0.1-0.8c0-0.3-0.1-0.5-0.1-0.8c0-0.2-0.1-0.5-0.2-0.7l-0.3-7.2
					c0.1,0.2,0.1,0.5,0.2,0.7s0.1,0.5,0.1,0.8s0.1,0.5,0.1,0.8S205.4,431.1,205.5,431.3"/>
			</g>
		</g>
	</g>
	<path class="st4" d="M255.9,429.2l0.2,7.2c-0.1,0.3-0.2,0.6-0.3,1s-0.2,0.7-0.3,1.1s-0.2,0.8-0.2,1.2c-0.1,0.4-0.1,0.8-0.1,1.2
		l-0.2-7.2c0-0.4,0-0.8,0.1-1.3c0.1-0.4,0.1-0.8,0.2-1.2s0.2-0.7,0.3-1.1S255.8,429.5,255.9,429.2z"/>
	<g>
		<defs>
			<path id="SVGID_3_" d="M255.9,429.2l0.2,7.2c-0.1,0.3-0.2,0.6-0.3,1s-0.2,0.7-0.3,1.1s-0.2,0.8-0.2,1.2c-0.1,0.4-0.1,0.8-0.1,1.2
				l-0.2-7.2c0-0.4,0-0.8,0.1-1.3c0.1-0.4,0.1-0.8,0.2-1.2s0.2-0.7,0.3-1.1S255.8,429.5,255.9,429.2z"/>
		</defs>
		<clipPath id="SVGID_4_">
			<use xlink:href="#SVGID_3_"  style="overflow:visible;"/>
		</clipPath>
		<g class="st9">
			<g class="st8">
				<path class="st4" d="M255.9,429.2l0.2,7.2l-0.1,0.5c-0.1,0.2-0.1,0.3-0.2,0.5s-0.1,0.4-0.1,0.5s-0.1,0.4-0.1,0.6l-0.2-7.2
					l0.1-0.6c0.1-0.2,0.1-0.4,0.1-0.5c0.1-0.2,0.1-0.4,0.2-0.5L255.9,429.2"/>
				<path class="st5" d="M255.3,431.3l0.2,7.2l-0.1,0.5l-0.1,0.5c0,0.2-0.1,0.4-0.1,0.5s0,0.4,0,0.6l-0.2-7.2c0-0.2,0-0.4,0-0.6
					s0.1-0.4,0.1-0.5l0.1-0.5L255.3,431.3"/>
				<path class="st5" d="M255,433.5l0.2,7.2v0.2l-0.2-7.2V433.5"/>
			</g>
		</g>
	</g>
	<path class="st4" d="M301.4,437.3l0.1,7.2c0-2.8-0.6-5.6-1.6-8.3c-1-2.6-2.5-4.9-4.4-6.8c-2-2-4.5-3.6-7.2-4.6
		c-3.2-1.2-6.5-1.7-9.9-1.7c-2.4,0-4.8,0.3-7.2,0.9c-2.3,0.6-4.4,1.5-6.5,2.6c-1.9,1.1-3.7,2.5-5.2,4.2c-1.5,1.6-2.7,3.5-3.5,5.6
		l-0.2-7.2c0.8-2.1,2-4,3.5-5.6c1.5-1.7,3.3-3.1,5.2-4.2c2-1.2,4.2-2.1,6.5-2.6c2.3-0.6,4.8-0.9,7.2-0.9c3.4,0,6.7,0.5,9.9,1.7
		c2.7,1,5.2,2.6,7.2,4.6c1.9,1.9,3.5,4.3,4.5,6.8C300.8,431.6,301.4,434.4,301.4,437.3z"/>
	<g>
		<defs>
			<path id="SVGID_5_" d="M301.4,437.3l0.1,7.2c0-2.8-0.6-5.6-1.6-8.3c-1-2.6-2.5-4.9-4.4-6.8c-2-2-4.5-3.6-7.2-4.6
				c-3.2-1.2-6.5-1.7-9.9-1.7c-2.4,0-4.8,0.3-7.2,0.9c-2.3,0.6-4.4,1.5-6.5,2.6c-1.9,1.1-3.7,2.5-5.2,4.2c-1.5,1.6-2.7,3.5-3.5,5.6
				l-0.2-7.2c0.8-2.1,2-4,3.5-5.6c1.5-1.7,3.3-3.1,5.2-4.2c2-1.2,4.2-2.1,6.5-2.6c2.3-0.6,4.8-0.9,7.2-0.9c3.4,0,6.7,0.5,9.9,1.7
				c2.7,1,5.2,2.6,7.2,4.6c1.9,1.9,3.5,4.3,4.5,6.8C300.8,431.6,301.4,434.4,301.4,437.3z"/>
		</defs>
		<clipPath id="SVGID_6_">
			<use xlink:href="#SVGID_5_"  style="overflow:visible;"/>
		</clipPath>
		<g class="st10">
			<g class="st8">
				<path class="st4" d="M301.4,437.3l0.1,7.2c0-2.3-0.4-4.5-1-6.7c-0.6-2.1-1.6-4.1-2.8-5.8c-1.3-1.8-2.8-3.4-4.6-4.6
					c-1.9-1.4-4.1-2.4-6.3-3.1l-0.1-7.2c2.3,0.7,4.4,1.7,6.3,3.1c1.8,1.3,3.3,2.8,4.6,4.6c1.3,1.8,2.2,3.8,2.8,5.8
					C301.1,432.8,301.4,435,301.4,437.3"/>
				<path class="st4" d="M286.6,417l0.1,7.2L286,424l-0.8-0.2c-0.3-0.1-0.5-0.1-0.8-0.2s-0.5-0.1-0.8-0.1l-0.1-7.2l0.8,0.2l0.8,0.2
					l0.8,0.2L286.6,417"/>
				<path class="st4" d="M283.5,416.3l0.1,7.2l-0.7-0.1l-0.8-0.1l-0.8-0.1l-0.8-0.1l-0.2-7.2l0.8,0.1l0.8,0.1l0.7,0.1L283.5,416.3"
					/>
				<path class="st4" d="M280.5,415.9l0.2,7.2h-0.5h-0.5h-1.9l-0.2-7.2h1.9h0.5L280.5,415.9"/>
				<path class="st4" d="M277.5,415.9l0.2,7.2h-0.7l-0.7,0l-0.7,0.1l-0.7,0.1l-0.2-7.2l0.7-0.1l0.7-0.1l0.7,0L277.5,415.9"/>
				<path class="st4" d="M274.7,416.1l0.2,7.2l-0.8,0.1l-0.8,0.1l-0.8,0.1l-0.7,0.2l-0.2-7.2l0.7-0.2l0.8-0.1c0.2,0,0.5-0.1,0.8-0.1
					L274.7,416.1"/>
				<path class="st4" d="M271.7,416.6l0.2,7.2l-1,0.2l-1,0.3l-1,0.3L268,425l-0.2-7.2c0.3-0.1,0.6-0.2,0.9-0.4l0.9-0.3l1-0.3
					L271.7,416.6"/>
				<path class="st4" d="M267.9,417.8l0.2,7.2c-0.9,0.4-1.8,0.8-2.7,1.3c-0.9,0.5-1.7,1-2.5,1.6c-0.8,0.6-1.5,1.2-2.2,1.8
					c-0.7,0.6-1.3,1.3-1.9,2.1l-0.2-7.2c0.6-0.7,1.2-1.4,1.9-2.1c0.7-0.7,1.4-1.3,2.2-1.8c0.8-0.6,1.6-1.1,2.5-1.6
					C266.1,418.6,266.9,418.2,267.9,417.8"/>
				<path class="st4" d="M258.5,424.6l0.2,7.2c-0.2,0.3-0.4,0.6-0.6,0.8s-0.4,0.6-0.6,0.9s-0.4,0.6-0.5,0.9s-0.3,0.6-0.5,0.9
					l-0.2-7.2c0.1-0.3,0.3-0.6,0.5-0.9s0.3-0.6,0.5-0.9s0.4-0.6,0.6-0.9L258.5,424.6"/>
				<path class="st4" d="M256.4,428.1l0.2,7.2l-0.1,0.3l-0.1,0.3l-0.1,0.3c0,0.1-0.1,0.2-0.1,0.3l-0.2-7.2c0-0.1,0.1-0.2,0.1-0.3
					c0-0.1,0.1-0.2,0.1-0.3l0.1-0.3L256.4,428.1"/>
			</g>
		</g>
	</g>
	<path class="st4" d="M514.2,440.5l-0.3,7.2c0-0.2,0-0.4,0-0.5v-0.5c0-0.2,0-0.4,0-0.5s0-0.4,0-0.5c-0.1-2.7-0.7-5.4-1.6-7.9
		c-1-2.7-2.5-5.3-4.5-7.5c-2.1-2.4-4.7-4.2-7.6-5.5c-3.5-1.5-7.2-2.2-11-2.2c-3.6-0.1-7.2,0.6-10.5,1.9c-2.8,1.1-5.3,2.8-7.3,4.9
		c-1.9,2-3.4,4.4-4.3,7c-1,2.6-1.5,5.3-1.5,8l0.2-7.2c0.1-2.8,0.6-5.5,1.5-8c1-2.6,2.4-5,4.3-7c2.1-2.2,4.6-3.8,7.3-4.9
		c3.4-1.3,6.9-1.9,10.5-1.9c3.8-0.1,7.5,0.7,11,2.2c2.9,1.3,5.5,3.2,7.6,5.5c1.9,2.2,3.4,4.7,4.5,7.5c1,2.5,1.5,5.2,1.7,7.9
		c0,0.2,0,0.4,0,0.5v1.1C514.2,440.2,514.2,440.4,514.2,440.5z"/>
	<g>
		<defs>
			<path id="SVGID_7_" d="M514.2,440.5l-0.3,7.2c0-0.2,0-0.4,0-0.5v-0.5c0-0.2,0-0.4,0-0.5s0-0.4,0-0.5c-0.1-2.7-0.7-5.4-1.6-7.9
				c-1-2.7-2.5-5.3-4.5-7.5c-2.1-2.4-4.7-4.2-7.6-5.5c-3.5-1.5-7.2-2.2-11-2.2c-3.6-0.1-7.2,0.6-10.5,1.9c-2.8,1.1-5.3,2.8-7.3,4.9
				c-1.9,2-3.4,4.4-4.3,7c-1,2.6-1.5,5.3-1.5,8l0.2-7.2c0.1-2.8,0.6-5.5,1.5-8c1-2.6,2.4-5,4.3-7c2.1-2.2,4.6-3.8,7.3-4.9
				c3.4-1.3,6.9-1.9,10.5-1.9c3.8-0.1,7.5,0.7,11,2.2c2.9,1.3,5.5,3.2,7.6,5.5c1.9,2.2,3.4,4.7,4.5,7.5c1,2.5,1.5,5.2,1.7,7.9
				c0,0.2,0,0.4,0,0.5v1.1C514.2,440.2,514.2,440.4,514.2,440.5z"/>
		</defs>
		<clipPath id="SVGID_8_">
			<use xlink:href="#SVGID_7_"  style="overflow:visible;"/>
		</clipPath>
		<g class="st11">
			<g class="st8">
				<path class="st4" d="M514.2,440.5l-0.3,7.2c0-0.2,0-0.4,0-0.5v-0.5c0-0.2,0-0.4,0-0.5s0-0.4,0-0.5c-0.1-2.2-0.5-4.4-1.2-6.5
					c-0.7-2.2-1.7-4.4-3-6.4c-2.9-4.4-7.2-7.6-12.2-9.1l0.3-7.2c2.6,0.8,5,2,7.2,3.7c2,1.5,3.6,3.3,5,5.4c1.3,2,2.3,4.1,3,6.4
					c0.7,2.1,1.1,4.3,1.2,6.5c0,0.2,0,0.4,0,0.5v1.1C514.1,440.2,514.1,440.4,514.2,440.5"/>
				<path class="st4" d="M497.8,416.5l-0.3,7.2l-0.8-0.2l-0.8-0.2l-0.8-0.2l-0.8-0.2l0.2-7.2l0.8,0.1l0.8,0.2l0.8,0.2L497.8,416.5"
					/>
				<path class="st4" d="M494.6,415.8l-0.2,7.2l-0.7-0.1l-0.7-0.1l-0.7-0.1l-0.8-0.1l0.2-7.2l0.8,0.1l0.7,0.1l0.7,0.1L494.6,415.8"
					/>
				<path class="st4" d="M491.7,415.4l-0.2,7.2h-0.5h-0.5h-0.5h-1.5l0.2-7.2h1.5h0.5h0.5H491.7"/>
				<path class="st4" d="M488.6,415.4l-0.2,7.2h-0.8l-0.8,0l-0.8,0.1l-0.8,0.1l0.2-7.2l0.8-0.1l0.8-0.1l0.8,0H488.6"/>
				<path class="st4" d="M485.4,415.6l-0.2,7.2l-0.8,0.1l-0.8,0.1l-0.8,0.1l-0.7,0.2l0.2-7.2l0.7-0.2l0.8-0.1l0.8-0.1L485.4,415.6"
					/>
				<path class="st4" d="M482.4,416.1l-0.2,7.2l-0.9,0.2l-0.9,0.3l-0.9,0.3l-0.8,0.3l0.2-7.2c0.3-0.1,0.6-0.2,0.9-0.3l0.9-0.3
					l0.9-0.3L482.4,416.1"/>
				<path class="st4" d="M478.8,417.3l-0.2,7.2c-0.9,0.4-1.8,0.8-2.7,1.3c-0.8,0.5-1.6,1-2.3,1.6c-0.7,0.6-1.4,1.2-2,1.8
					c-0.6,0.6-1.2,1.3-1.7,2.1l0.2-7.2c0.5-0.7,1.1-1.4,1.7-2.1c0.6-0.7,1.3-1.3,2-1.8c0.7-0.6,1.5-1.1,2.4-1.6
					C477,418.1,477.9,417.7,478.8,417.3"/>
				<path class="st4" d="M470,424.1l-0.2,7.2c-0.3,0.4-0.5,0.7-0.7,1.1s-0.5,0.7-0.7,1.1s-0.4,0.8-0.6,1.1s-0.4,0.8-0.5,1.2l0.2-7.2
					c0.2-0.4,0.3-0.8,0.5-1.2s0.4-0.8,0.6-1.1s0.4-0.8,0.7-1.1S469.8,424.5,470,424.1"/>
				<path class="st4" d="M467.5,428.6l-0.2,7.2c-0.1,0.4-0.3,0.7-0.4,1.1s-0.2,0.8-0.4,1.1s-0.2,0.8-0.3,1.2s-0.2,0.8-0.2,1.2
					l0.2-7.2c0.1-0.4,0.1-0.8,0.2-1.2s0.2-0.8,0.3-1.1s0.2-0.8,0.4-1.1S467.4,429,467.5,428.6"/>
				<path class="st5" d="M466.2,433.2l-0.2,7.2c-0.1,0.3-0.1,0.7-0.2,1s-0.1,0.7-0.1,1s-0.1,0.7-0.1,1s0,0.7,0,1l0.2-7.2
					c0-0.3,0-0.7,0-1s0-0.7,0.1-1s0.1-0.7,0.1-1S466.1,433.5,466.2,433.2"/>
			</g>
		</g>
	</g>
	<path class="st4" d="M160.1,449.1l-0.4-7.2v-0.7c0-0.2,0-0.5,0-0.8s0-0.5,0-0.8v-0.8c0.2-3.2,0.9-6.3,2.1-9.3
		c2.4-5.6,7-10,12.8-12.2c3.2-1.2,6.6-1.8,10.1-1.8c2.5,0,5,0.3,7.5,1c2.1,0.6,4.1,1.5,6,2.7c1.7,1.1,3.1,2.4,4.3,4
		c1.1,1.5,1.9,3.1,2.4,4.9l0.3,7.2c-0.5-1.8-1.3-3.4-2.4-4.9c-1.2-1.6-2.7-2.9-4.3-4c-1.9-1.2-3.9-2.1-6-2.7c-2.4-0.7-4.9-1-7.4-1
		c-3.4,0-6.8,0.6-10.1,1.8c-5.8,2.1-10.4,6.5-12.8,12.2c-1.3,2.9-2,6.1-2.1,9.3v0.8c0,0.2,0,0.5,0,0.8s0,0.5,0,0.8
		S160.1,448.9,160.1,449.1z"/>
	<g>
		<defs>
			<path id="SVGID_9_" d="M160.1,449.1l-0.4-7.2v-0.7c0-0.2,0-0.5,0-0.8s0-0.5,0-0.8v-0.8c0.2-3.2,0.9-6.3,2.1-9.3
				c2.4-5.6,7-10,12.8-12.2c3.2-1.2,6.6-1.8,10.1-1.8c2.5,0,5,0.3,7.5,1c2.1,0.6,4.1,1.5,6,2.7c1.7,1.1,3.1,2.4,4.3,4
				c1.1,1.5,1.9,3.1,2.4,4.9l0.3,7.2c-0.5-1.8-1.3-3.4-2.4-4.9c-1.2-1.6-2.7-2.9-4.3-4c-1.9-1.2-3.9-2.1-6-2.7c-2.4-0.7-4.9-1-7.4-1
				c-3.4,0-6.8,0.6-10.1,1.8c-5.8,2.1-10.4,6.5-12.8,12.2c-1.3,2.9-2,6.1-2.1,9.3v0.8c0,0.2,0,0.5,0,0.8s0,0.5,0,0.8
				S160.1,448.9,160.1,449.1z"/>
		</defs>
		<clipPath id="SVGID_10_">
			<use xlink:href="#SVGID_9_"  style="overflow:visible;"/>
		</clipPath>
		<g class="st12">
			<g class="st8">
				<path class="st4" d="M205,428.3l0.3,7.2c-0.3-1.3-0.9-2.5-1.6-3.6c-0.7-1.2-1.6-2.3-2.6-3.2c-1.1-1-2.3-1.9-3.6-2.7
					c-1.4-0.8-2.9-1.4-4.4-1.9l-0.3-7.2c1.5,0.5,3,1.1,4.4,1.9c1.3,0.7,2.5,1.6,3.6,2.6c1,1,1.9,2,2.6,3.2
					C204.1,425.8,204.7,427.1,205,428.3"/>
				<path class="st4" d="M192.8,416.9l0.3,7.2l-0.8-0.2l-0.8-0.2l-0.8-0.2l-0.8-0.1l-0.3-7.2c0.3,0,0.6,0.1,0.8,0.1s0.5,0.1,0.8,0.2
					l0.8,0.2L192.8,416.9"/>
				<path class="st4" d="M189.6,416.1l0.3,7.2l-0.7-0.1l-0.7-0.1l-0.7-0.1l-0.7-0.1l-0.3-7.2c0.2,0,0.5,0,0.7,0.1l0.7,0.1l0.7,0.1
					L189.6,416.1"/>
				<path class="st4" d="M186.8,415.8l0.3,7.2h-0.5h-0.5h-1.9l-0.4-7.2h1.4h0.5h0.5H186.8"/>
				<path class="st4" d="M183.9,415.7l0.4,7.2h-0.8l-0.8,0L182,423l-0.7,0.1l-0.4-7.2l0.7-0.1l0.7-0.1l0.8,0H183.9"/>
				<path class="st4" d="M180.9,416l0.4,7.2l-0.8,0.1l-0.8,0.1l-0.7,0.1l-0.7,0.2l-0.4-7.2l0.7-0.2l0.7-0.1c0.2,0,0.5-0.1,0.8-0.1
					L180.9,416"/>
				<path class="st4" d="M177.9,416.5l0.4,7.2l-0.9,0.2c-0.3,0.1-0.6,0.2-0.9,0.3l-0.9,0.3l-0.9,0.3l-0.4-7.2l0.9-0.3l0.9-0.3
					l0.9-0.3L177.9,416.5"/>
				<path class="st4" d="M174.3,417.6l0.4,7.2c-1.8,0.7-3.5,1.7-5.1,2.8c-0.8,0.6-1.5,1.2-2.2,1.8c-0.7,0.6-1.3,1.3-1.9,2.1
					l-0.4-7.2c0.6-0.7,1.2-1.4,1.9-2.1c0.7-0.7,1.4-1.3,2.2-1.8c0.8-0.6,1.6-1.1,2.4-1.5C172.5,418.4,173.4,418,174.3,417.6"/>
				<path class="st4" d="M165.1,424.3l0.4,7.2c-0.3,0.3-0.5,0.7-0.8,1s-0.5,0.7-0.7,1.1s-0.4,0.7-0.7,1.1s-0.4,0.8-0.6,1.2l-0.4-7.2
					c0.2-0.4,0.4-0.8,0.6-1.2s0.4-0.8,0.7-1.1s0.5-0.7,0.7-1.1S164.9,424.6,165.1,424.3"/>
				<path class="st4" d="M162.3,428.7l0.4,7.2c-0.2,0.4-0.3,0.7-0.5,1.1s-0.3,0.7-0.4,1.1s-0.3,0.8-0.4,1.1s-0.2,0.8-0.3,1.2
					l-0.4-7.2c0.1-0.4,0.2-0.8,0.4-1.2s0.2-0.8,0.4-1.1s0.3-0.7,0.4-1.1S162.2,429,162.3,428.7"/>
				<path class="st4" d="M160.7,433.1l0.4,7.2c-0.1,0.4-0.2,0.8-0.3,1.2s-0.2,0.8-0.2,1.2s-0.1,0.9-0.2,1.3s-0.1,0.9-0.1,1.3
					l-0.4-7.2c0-0.4,0.1-0.9,0.1-1.3s0.1-0.9,0.2-1.3s0.1-0.8,0.2-1.2S160.6,433.5,160.7,433.1"/>
				<path class="st4" d="M159.8,438.2l0.4,7.2c0,0.1,0,0.1,0,0.2s0,0.1,0,0.2c0,0.1,0,0.1,0,0.2c0,0.1,0,0.1,0,0.2v0.8
					c0,0.2,0,0.5,0,0.8s0,0.5,0,0.8s0,0.5,0,0.7l-0.4-7.2v-0.7c0-0.2,0-0.5,0-0.8s0-0.5,0-0.8v-0.8c0-0.1,0-0.1,0-0.2
					c0-0.1,0-0.1,0-0.2c0-0.1,0-0.1,0-0.2S159.8,438.2,159.8,438.2"/>
			</g>
		</g>
	</g>
	<path class="st4" d="M254.8,452.3l-0.2-7.2v-0.5l0.2,7.2V452.3z"/>
	<g>
		<defs>
			<polygon id="SVGID_11_" points="254.8,452.3 254.6,445.1 254.6,444.5 254.8,451.7 			"/>
		</defs>
		<clipPath id="SVGID_12_">
			<use xlink:href="#SVGID_11_"  style="overflow:visible;"/>
		</clipPath>
		<g class="st13">
			<g class="st8">
				<path class="st4" d="M254.6,444.5l0.2,7.2v0.5l-0.2-7.2V444.5"/>
			</g>
		</g>
	</g>
	<polygon class="st6" points="252.9,458.9 253.1,466.1 252.6,466.1 252.4,458.9 	"/>
	<path class="st4" d="M554.3,465.6l-0.4,7.2c-1.1-0.8-2-1.8-2.8-2.9c-0.8-1.1-1.4-2.3-1.9-3.6c-0.5-1.4-0.9-2.9-1.2-4.4
		c-0.3-1.7-0.5-3.3-0.5-5l0.4-7.2c0.1,1.7,0.3,3.3,0.5,5c0.3,1.5,0.7,2.9,1.2,4.4c0.5,1.3,1.1,2.5,1.9,3.6
		C552.3,463.8,553.2,464.8,554.3,465.6z"/>
	<g>
		<defs>
			<path id="SVGID_13_" d="M554.3,465.6l-0.4,7.2c-1.1-0.8-2-1.8-2.8-2.9c-0.8-1.1-1.4-2.3-1.9-3.6c-0.5-1.4-0.9-2.9-1.2-4.4
				c-0.3-1.7-0.5-3.3-0.5-5l0.4-7.2c0.1,1.7,0.3,3.3,0.5,5c0.3,1.5,0.7,2.9,1.2,4.4c0.5,1.3,1.1,2.5,1.9,3.6
				C552.3,463.8,553.2,464.8,554.3,465.6z"/>
		</defs>
		<clipPath id="SVGID_14_">
			<use xlink:href="#SVGID_13_"  style="overflow:visible;"/>
		</clipPath>
		<g class="st14">
			<g class="st8">
				<path class="st4" d="M554.3,465.6l-0.4,7.2c-1.1-0.8-2-1.8-2.8-2.9c-0.8-1.1-1.4-2.3-1.9-3.6c-0.5-1.4-0.9-2.9-1.2-4.4
					c-0.3-1.7-0.5-3.3-0.5-5l0.4-7.2c0.1,1.7,0.3,3.3,0.5,5c0.3,1.5,0.7,2.9,1.2,4.4c0.5,1.3,1.1,2.5,1.9,3.6
					C552.3,463.8,553.2,464.8,554.3,465.6"/>
			</g>
		</g>
	</g>
	<path class="st4" d="M219.3,473.6c-0.1-2.4-0.2-4.8-0.3-7.2c0-1-0.1-2-0.1-3.1s0-2.2,0-3.3s0-2.3,0.1-3.4s0.1-2.3,0.1-3.4l0.3,7.2
		c0,1.1-0.1,2.2-0.1,3.4s0,2.3-0.1,3.4s0,2.3,0,3.3S219.3,472.6,219.3,473.6z"/>
	<g>
		<defs>
			<path id="SVGID_15_" d="M219.3,473.6c-0.1-2.4-0.2-4.8-0.3-7.2c0-1-0.1-2-0.1-3.1s0-2.2,0-3.3s0-2.3,0.1-3.4s0.1-2.3,0.1-3.4
				l0.3,7.2c0,1.1-0.1,2.2-0.1,3.4s0,2.3-0.1,3.4s0,2.3,0,3.3S219.3,472.6,219.3,473.6z"/>
		</defs>
		<clipPath id="SVGID_16_">
			<use xlink:href="#SVGID_15_"  style="overflow:visible;"/>
		</clipPath>
		<g class="st15">
			<g class="st8">
				<path class="st4" d="M219.1,453.2l0.3,7.2c0,1.1-0.1,2.2-0.1,3.4s0,2.3-0.1,3.4s0,2.3,0,3.3s0,2.1,0.1,3.1l-0.3-7.2
					c0-1-0.1-2-0.1-3.1s0-2.2,0-3.3s0-2.3,0.1-3.4S219.1,454.3,219.1,453.2"/>
			</g>
		</g>
	</g>
	<polygon class="st6" points="436.4,469 436.3,476.2 421.7,476.2 421.8,469 	"/>
	<polygon class="st16" points="434.7,381.1 436.4,469 421.8,469 420.4,381.1 	"/>
	<polygon class="st6" points="219.2,469 219.5,476.2 206.4,476.2 206.1,469 	"/>
	<polygon class="st6" points="251.4,469 251.6,476.2 239,476.2 238.8,469 	"/>
	<polygon class="st6" points="252.4,458.9 252.6,466.1 251.6,476.2 251.4,469 	"/>
	<path class="st16" d="M558.9,391.6l0.9,17h20.6l0.5,8.2h-20.6l1.8,32.5c0.1,1.7,0.3,3.4,0.8,5c0.4,1.4,1.1,2.6,2.1,3.7
		c1,1,2.2,1.8,3.5,2.3c1.7,0.6,3.4,0.8,5.2,0.8c1,0,1.8,0,2.7-0.1s1.6-0.1,2.3-0.2s1.3-0.1,1.9-0.2s1.1-0.2,1.5-0.3l1.2,8.4
		c-0.8,0.3-1.6,0.5-2.4,0.6c-0.9,0.2-1.9,0.3-3,0.5s-2.2,0.2-3.5,0.3s-2.6,0.1-4,0.1c-1.6,0-3.3-0.1-4.9-0.3
		c-1.5-0.2-2.9-0.5-4.3-0.9c-1.3-0.4-2.5-0.9-3.8-1.5c-1.1-0.5-2.1-1.2-3.1-2c-1.1-0.8-2-1.8-2.8-2.9c-0.8-1.1-1.4-2.3-1.9-3.6
		c-0.5-1.4-0.9-2.9-1.2-4.4c-0.3-1.7-0.5-3.3-0.5-5l-1.7-32.8h-12.2l-0.4-8.2h12.3l-0.7-14.2L558.9,391.6z"/>
	<path class="st4" d="M583.2,468.7l-0.4,7.2c-0.7,0.2-1.5,0.4-2.4,0.6s-1.9,0.4-3,0.5s-2.2,0.2-3.5,0.3s-2.6,0.1-4,0.1
		c-1.6,0-3.2-0.1-4.8-0.3c-1.5-0.2-2.9-0.5-4.3-0.9c-1.3-0.4-2.5-0.9-3.7-1.5c-1.1-0.6-2.1-1.2-3.1-2l0.4-7.2c0.9,0.8,2,1.5,3.1,2
		c1.2,0.6,2.5,1.1,3.8,1.5c1.4,0.4,2.9,0.7,4.3,0.9c1.6,0.2,3.2,0.3,4.9,0.3c1.4,0,2.8,0,4-0.1s2.4-0.2,3.5-0.3s2.1-0.3,3-0.5
		C581.6,469.2,582.4,469,583.2,468.7z"/>
	<g>
		<defs>
			<path id="SVGID_17_" d="M583.2,468.7l-0.4,7.2c-0.7,0.2-1.5,0.4-2.4,0.6s-1.9,0.4-3,0.5s-2.2,0.2-3.5,0.3s-2.6,0.1-4,0.1
				c-1.6,0-3.2-0.1-4.8-0.3c-1.5-0.2-2.9-0.5-4.3-0.9c-1.3-0.4-2.5-0.9-3.7-1.5c-1.1-0.6-2.1-1.2-3.1-2l0.4-7.2c0.9,0.8,2,1.5,3.1,2
				c1.2,0.6,2.5,1.1,3.8,1.5c1.4,0.4,2.9,0.7,4.3,0.9c1.6,0.2,3.2,0.3,4.9,0.3c1.4,0,2.8,0,4-0.1s2.4-0.2,3.5-0.3s2.1-0.3,3-0.5
				C581.6,469.2,582.4,469,583.2,468.7z"/>
		</defs>
		<clipPath id="SVGID_18_">
			<use xlink:href="#SVGID_17_"  style="overflow:visible;"/>
		</clipPath>
		<g class="st17">
			<g class="st8">
				<path class="st4" d="M583.2,468.7l-0.4,7.2l-0.3,0.1l-0.3,0.1l-0.4,0.1l-0.4,0.1l0.4-7.2l0.4-0.1l0.4-0.1l0.3-0.1L583.2,468.7"
					/>
				<path class="st4" d="M581.8,469.1l-0.4,7.2l-0.9,0.2l-0.9,0.2l-1,0.2l-1,0.1l0.4-7.2l1-0.1l1-0.2c0.3-0.1,0.6-0.1,0.9-0.2
					C581.2,469.3,581.5,469.2,581.8,469.1"/>
				<path class="st4" d="M577.9,469.8l-0.4,7.2l-1.3,0.1c-0.5,0-0.9,0.1-1.4,0.1s-1,0.1-1.5,0.1s-1,0-1.5,0.1l0.4-7.2
					c0.5,0,1,0,1.5-0.1c0.5,0,1-0.1,1.4-0.1c0.5,0,0.9-0.1,1.4-0.1L577.9,469.8"/>
				<path class="st4" d="M572.3,470.2l-0.4,7.2h-3.3h-0.7h-0.7l0.4-7.2h0.7h0.7h0.7H572.3"/>
				<path class="st4" d="M567.6,470.2l-0.4,7.2l-0.9-0.1l-0.9-0.1l-0.8-0.1l-0.8-0.1l0.4-7.2l0.8,0.1l0.8,0.1l0.9,0.1L567.6,470.2"
					/>
				<path class="st4" d="M564.2,469.8l-0.4,7.2l-0.9-0.2l-0.8-0.2l-0.8-0.2l-0.8-0.2l0.4-7.2l0.8,0.2l0.8,0.2l0.8,0.2L564.2,469.8"
					/>
				<path class="st4" d="M560.9,469l-0.4,7.2c-0.7-0.2-1.3-0.4-1.9-0.7s-1.2-0.5-1.7-0.8s-1.1-0.6-1.6-0.9c-0.5-0.3-1-0.7-1.4-1
					l0.4-7.2c0.5,0.4,0.9,0.7,1.4,1c0.5,0.3,1,0.6,1.6,0.9c0.5,0.3,1.1,0.5,1.7,0.8S560.3,468.8,560.9,469"/>
			</g>
		</g>
	</g>
	<path class="st16" d="M219.1,453.2c-0.1,1.4-0.1,2.8-0.1,4.2s-0.1,2.8-0.1,4.2s0,2.7,0,4s0.1,2.4,0.2,3.5h-13.1l-0.2-10.6
		c-1.4,1.8-2.9,3.4-4.7,4.8c-2,1.5-4.1,2.8-6.4,3.8c-2.5,1.1-5.2,2-7.9,2.5c-3,0.6-6.1,0.9-9.2,0.9c-4.6,0-9.1-0.7-13.4-2.2
		c-3.9-1.4-7.5-3.5-10.5-6.3c-2.9-2.7-5.2-6.1-6.7-9.8c-1.5-4-2.2-8.3-1.9-12.6c0.2-4.7,1.4-9.3,3.6-13.5c2-3.9,4.9-7.3,8.3-10.1
		c3.5-2.8,7.4-5,11.7-6.4c4.5-1.5,9.1-2.2,13.8-2.2c2.8,0,5.5,0.2,8.3,0.8c2.3,0.4,4.5,1.1,6.7,2c1.8,0.8,3.5,1.7,5.1,2.9
		c1.3,1,2.4,2.1,3.4,3.4l1.9-35.3H222L219.1,453.2z M205,443.4l0.4-10.5c0-0.3,0-0.7,0-1.1s0-0.8,0-1.2s-0.1-0.8-0.2-1.2
		c-0.1-0.4-0.1-0.7-0.3-1.1c-0.5-1.8-1.3-3.4-2.4-4.9c-1.2-1.6-2.7-2.9-4.3-4c-1.9-1.2-3.9-2.1-6-2.7c-2.4-0.7-4.9-1-7.5-1
		c-3.4,0-6.9,0.6-10.1,1.8c-5.8,2.1-10.4,6.5-12.8,12.2c-1.3,2.9-2,6.1-2.1,9.3c-0.2,2.9,0.1,5.9,1,8.7c1.7,5.5,5.8,10,11.2,12
		c3.3,1.2,6.8,1.8,10.3,1.8c2.4,0,4.8-0.3,7.1-0.9c2.2-0.6,4.4-1.4,6.4-2.6c1.9-1.1,3.6-2.5,5.1-4.2c1.4-1.6,2.6-3.5,3.3-5.6
		c0.1-0.4,0.3-0.7,0.4-1.1c0.1-0.4,0.2-0.8,0.2-1.1s0.1-0.8,0.2-1.2S205,443.8,205,443.4"/>
	<path class="st4" d="M145.5,450.5l-0.4-7.2c0.2,3.9,1.2,7.6,2.9,11.1c1.7,3.3,4,6.2,6.9,8.6c3,2.4,6.4,4.3,10.1,5.5
		c4.1,1.3,8.3,2,12.6,1.9c3.1,0,6.2-0.3,9.2-0.9c2.7-0.6,5.4-1.4,7.9-2.5c2.3-1,4.4-2.3,6.4-3.8c1.8-1.4,3.4-3,4.7-4.8l0.3,7.2
		c-1.3,1.8-2.9,3.4-4.7,4.8c-2,1.5-4.1,2.8-6.4,3.8c-2.5,1.1-5.2,2-7.9,2.5c-3,0.6-6.1,0.9-9.2,0.9c-4.3,0-8.5-0.6-12.6-2
		c-3.7-1.2-7.1-3.1-10.1-5.5c-2.9-2.3-5.2-5.3-6.9-8.6C146.7,458.1,145.7,454.3,145.5,450.5z"/>
	<g>
		<defs>
			<path id="SVGID_19_" d="M145.5,450.5l-0.4-7.2c0.2,3.9,1.2,7.6,2.9,11.1c1.7,3.3,4,6.2,6.9,8.6c3,2.4,6.4,4.3,10.1,5.5
				c4.1,1.3,8.3,2,12.6,1.9c3.1,0,6.2-0.3,9.2-0.9c2.7-0.6,5.4-1.4,7.9-2.5c2.3-1,4.4-2.3,6.4-3.8c1.8-1.4,3.4-3,4.7-4.8l0.3,7.2
				c-1.3,1.8-2.9,3.4-4.7,4.8c-2,1.5-4.1,2.8-6.4,3.8c-2.5,1.1-5.2,2-7.9,2.5c-3,0.6-6.1,0.9-9.2,0.9c-4.3,0-8.5-0.6-12.6-2
				c-3.7-1.2-7.1-3.1-10.1-5.5c-2.9-2.3-5.2-5.3-6.9-8.6C146.7,458.1,145.7,454.3,145.5,450.5z"/>
		</defs>
		<clipPath id="SVGID_20_">
			<use xlink:href="#SVGID_19_"  style="overflow:visible;"/>
		</clipPath>
		<g class="st18">
			<g class="st8">
				<path class="st4" d="M205.9,458.4l0.3,7.2c0,0-0.1,0.1-0.1,0.1l-0.1,0.1l-0.1,0.1l-0.1,0.1l-0.3-7.2l0.1-0.1l0.1-0.1l0.1-0.1
					C205.8,458.5,205.8,458.4,205.9,458.4"/>
				<path class="st4" d="M205.4,458.9l0.3,7.2c-0.7,0.9-1.5,1.7-2.3,2.5c-0.9,0.8-1.8,1.6-2.8,2.3c-1,0.7-2.1,1.4-3.2,2
					c-1.2,0.6-2.4,1.2-3.7,1.7l-0.3-7.2c1.3-0.5,2.5-1.1,3.7-1.7c1.1-0.6,2.2-1.3,3.2-2c1-0.7,1.9-1.5,2.8-2.3
					C203.9,460.6,204.7,459.8,205.4,458.9"/>
				<path class="st4" d="M193.4,467.5l0.3,7.2c-0.4,0.2-0.9,0.3-1.3,0.5s-0.9,0.3-1.3,0.5l-1.4,0.4l-1.4,0.4l-0.4-7.2l1.4-0.4
					c0.5-0.1,0.9-0.3,1.4-0.4s0.9-0.3,1.3-0.5S193,467.7,193.4,467.5"/>
				<path class="st4" d="M188,469.2l0.4,7.2l-1.1,0.2l-1.1,0.2l-1.1,0.2l-1.2,0.2l-0.4-7.2l1.2-0.2c0.4,0,0.8-0.1,1.2-0.2l1.1-0.2
					C187.3,469.4,187.6,469.3,188,469.2"/>
				<path class="st4" d="M183.4,470l0.4,7.2c-0.4,0-0.7,0.1-1.1,0.1l-1.1,0.1l-1.1,0.1l-1.1,0l-0.4-7.2l1.1,0l1.1-0.1l1.1-0.1
					L183.4,470"/>
				<path class="st4" d="M178.9,470.4l0.4,7.2h-2.1h-0.8h-0.8h-0.7l-0.4-7.2l0.8,0h0.8h0.8L178.9,470.4"/>
				<path class="st4" d="M174.6,470.3l0.4,7.2l-1.1-0.1l-1.1-0.1l-1.1-0.1l-1-0.2l-0.4-7.2c0.3,0.1,0.7,0.1,1,0.2s0.7,0.1,1.1,0.1
					l1.1,0.1C173.8,470.2,174.2,470.3,174.6,470.3"/>
				<path class="st4" d="M170.3,469.8l0.4,7.2l-1.2-0.2l-1.2-0.3l-1.2-0.3l-1.2-0.3l-0.4-7.2l1.2,0.3l1.2,0.3l1.2,0.3L170.3,469.8"
					/>
				<path class="st4" d="M165.6,468.6l0.4,7.2c-2.8-0.9-5.6-2.2-8.1-3.8c-2.4-1.5-4.5-3.5-6.3-5.6c-1.8-2.2-3.2-4.6-4.2-7.3
					c-1.1-2.8-1.7-5.7-1.9-8.6l-0.4-7.2c0.2,3,0.8,5.9,1.9,8.6c1,2.6,2.5,5.1,4.2,7.3c1.8,2.2,3.9,4.1,6.3,5.6
					C160,466.4,162.7,467.7,165.6,468.6"/>
			</g>
		</g>
	</g>
	<path class="st4" d="M315.9,436.6l0.1,7.2v0.9c0,0.1,0,0.2,0,0.3c0,4.9-1.1,9.8-3.3,14.2c-2,4-4.8,7.5-8.3,10.2
		c-3.5,2.7-7.4,4.8-11.6,6.1c-4.3,1.4-8.7,2.1-13.2,2c-2.8,0-5.5-0.2-8.2-0.7c-2.5-0.4-4.9-1.1-7.2-2.1c-2.2-0.9-4.3-2.1-6.1-3.6
		c-1.9-1.5-3.5-3.2-4.9-5.2l-0.2-7.2c1.4,2,3,3.7,4.9,5.2c1.9,1.5,3.9,2.7,6.1,3.6c2.3,1,4.8,1.6,7.2,2.1c2.7,0.5,5.5,0.7,8.3,0.7
		c4.5,0,9-0.7,13.2-2c4.2-1.3,8.2-3.4,11.6-6.1c3.5-2.8,6.3-6.2,8.3-10.2c2.2-4.4,3.3-9.3,3.3-14.2v-0.3c0-0.1,0-0.2,0-0.3v-0.3
		C315.9,436.8,315.9,436.7,315.9,436.6z"/>
	<g>
		<defs>
			<path id="SVGID_21_" d="M315.9,436.6l0.1,7.2v0.9c0,0.1,0,0.2,0,0.3c0,4.9-1.1,9.8-3.3,14.2c-2,4-4.8,7.5-8.3,10.2
				c-3.5,2.7-7.4,4.8-11.6,6.1c-4.3,1.4-8.7,2.1-13.2,2c-2.8,0-5.5-0.2-8.2-0.7c-2.5-0.4-4.9-1.1-7.2-2.1c-2.2-0.9-4.3-2.1-6.1-3.6
				c-1.9-1.5-3.5-3.2-4.9-5.2l-0.2-7.2c1.4,2,3,3.7,4.9,5.2c1.9,1.5,3.9,2.7,6.1,3.6c2.3,1,4.8,1.6,7.2,2.1c2.7,0.5,5.5,0.7,8.3,0.7
				c4.5,0,9-0.7,13.2-2c4.2-1.3,8.2-3.4,11.6-6.1c3.5-2.8,6.3-6.2,8.3-10.2c2.2-4.4,3.3-9.3,3.3-14.2v-0.3c0-0.1,0-0.2,0-0.3v-0.3
				C315.9,436.8,315.9,436.7,315.9,436.6z"/>
		</defs>
		<clipPath id="SVGID_22_">
			<use xlink:href="#SVGID_21_"  style="overflow:visible;"/>
		</clipPath>
		<g class="st19">
			<g class="st8">
				<path class="st4" d="M315.9,436.6l0.1,7.2v0.9c0,0.1,0,0.2,0,0.3v0.2c0,0.1,0,0.2,0,0.2v0.2c0,0.1,0,0.2,0,0.2l-0.1-7.2
					c0-0.1,0-0.2,0-0.2c0-0.1,0-0.2,0-0.2V438c0-0.1,0-0.2,0-0.2v-0.3c0-0.1,0-0.2,0-0.3v-0.3C315.9,436.7,315.9,436.6,315.9,436.6"
					/>
				<path class="st4" d="M315.9,438.7l0.1,7.2c0,0.6-0.1,1.1-0.1,1.7s-0.1,1.1-0.2,1.6s-0.1,1.1-0.2,1.6s-0.2,1-0.3,1.5l-0.1-7.2
					c0.1-0.5,0.2-1,0.3-1.5s0.2-1,0.2-1.6s0.1-1.1,0.2-1.6S315.9,439.3,315.9,438.7"/>
				<path class="st4" d="M315.1,445.2l0.1,7.2c-0.1,0.5-0.2,1-0.4,1.5s-0.3,1-0.5,1.5s-0.3,1-0.5,1.4s-0.4,0.9-0.6,1.4l-0.1-7.2
					c0.2-0.5,0.4-0.9,0.6-1.4s0.4-0.9,0.5-1.4s0.3-1,0.4-1.5S314.9,445.7,315.1,445.2"/>
				<path class="st4" d="M313.1,450.9l0.1,7.2c-0.2,0.5-0.5,1.1-0.8,1.6s-0.5,1-0.8,1.5s-0.6,1-0.9,1.5s-0.7,0.9-1,1.4l-0.1-7.2
					c0.4-0.5,0.7-0.9,1-1.4s0.6-1,0.9-1.5s0.6-1,0.8-1.5S312.9,451.5,313.1,450.9"/>
				<path class="st4" d="M309.6,456.8l0.1,7.2c-0.9,1.2-1.9,2.3-3,3.3c-1.1,1-2.2,2-3.4,2.9c-1.2,0.9-2.4,1.7-3.7,2.4
					c-1.3,0.7-2.6,1.4-4,1.9l-0.1-7.2c2.8-1.1,5.4-2.6,7.8-4.3c1.2-0.9,2.3-1.8,3.4-2.9C307.7,459.1,308.7,458,309.6,456.8"/>
				<path class="st4" d="M295.5,467.3l0.1,7.2c-0.5,0.2-1,0.4-1.4,0.5s-1,0.3-1.5,0.5l-1.5,0.4l-1.5,0.4l-0.1-7.2
					c0.5-0.1,1-0.2,1.5-0.4s1-0.3,1.5-0.4s1-0.3,1.5-0.5S295,467.5,295.5,467.3"/>
				<path class="st4" d="M289.6,469.2l0.1,7.2l-1.2,0.3l-1.2,0.2l-1.2,0.2l-1.2,0.2l-0.2-7.2l1.2-0.2l1.2-0.2l1.2-0.2L289.6,469.2"
					/>
				<path class="st4" d="M284.9,470l0.2,7.2l-1.1,0.1l-1.1,0.1l-1.1,0.1h-1.1l-0.2-7.2l1.1,0l1.1-0.1l1.1-0.1
					C284.2,470.1,284.6,470,284.9,470"/>
				<path class="st4" d="M280.6,470.4l0.2,7.2h-2.1h-0.9h-0.9l-0.9-0.1l-0.2-7.2l0.9,0h0.9h0.9L280.6,470.4"/>
				<path class="st4" d="M275.7,470.3l0.2,7.2c-0.4,0-0.8-0.1-1.2-0.1l-1.2-0.1l-1.1-0.1l-1.1-0.2l-0.2-7.2l1.1,0.2l1.1,0.1l1.1,0.1
					L275.7,470.3"/>
				<path class="st4" d="M271.1,469.7l0.2,7.2l-1.1-0.2l-1.1-0.2l-1.1-0.3l-1.1-0.3l-0.2-7.2l1.1,0.3l1.1,0.3l1.1,0.2L271.1,469.7"
					/>
				<path class="st4" d="M266.7,468.6l0.2,7.2c-1.4-0.4-2.8-1-4.1-1.6c-1.3-0.6-2.5-1.3-3.7-2.1c-1.2-0.8-2.2-1.7-3.2-2.7
					c-1-1-2-2.1-2.8-3.3l-0.2-7.2c0.8,1.2,1.8,2.3,2.8,3.3c1,1,2.1,1.9,3.2,2.7c1.2,0.8,2.4,1.5,3.7,2.1
					C263.9,467.7,265.3,468.2,266.7,468.6"/>
			</g>
		</g>
	</g>
	<path class="st16" d="M283,407.2c4.6,0,9.1,0.7,13.5,2.2c3.9,1.3,7.4,3.4,10.5,6.2c2.9,2.7,5.2,6,6.8,9.6c1.6,4,2.4,8.2,2.2,12.5
		c0,4.9-1.1,9.8-3.3,14.2c-2,4-4.8,7.4-8.3,10.2c-3.5,2.7-7.4,4.8-11.6,6.1c-4.3,1.3-8.8,2-13.2,2c-2.8,0-5.5-0.2-8.3-0.7
		c-2.5-0.4-4.9-1.1-7.2-2.1c-2.2-0.9-4.3-2.1-6.1-3.6c-1.9-1.5-3.5-3.2-4.9-5.2h-0.5l-1,10.1h-12.6c0.1-1,0.2-2.2,0.4-3.5
		s0.2-2.6,0.4-4s0.2-2.8,0.3-4.2s0.1-2.8,0.2-4.2l2.4-72.1h14.1l-1.1,37.1h0.3c1.4-1.7,2.9-3.2,4.7-4.5c1.9-1.4,4-2.6,6.1-3.5
		c2.4-1,5-1.7,7.5-2.2C277,407.4,280,407.2,283,407.2z M276.7,461.5c3.5,0,7-0.5,10.3-1.7c2.9-1,5.5-2.7,7.8-4.8
		c2.1-2.1,3.8-4.6,4.9-7.4c1.2-3,1.8-6.2,1.8-9.5c0.1-2.9-0.4-5.8-1.4-8.6c-1.9-5.5-6.2-9.9-11.7-11.9c-3.2-1.2-6.7-1.8-10.1-1.8
		c-2.4,0-4.8,0.3-7.2,0.9c-2.3,0.6-4.4,1.5-6.5,2.6c-2,1.1-3.7,2.5-5.2,4.2c-1.5,1.6-2.7,3.5-3.5,5.6c-0.1,0.3-0.2,0.6-0.3,1
		s-0.2,0.7-0.3,1.1s-0.2,0.8-0.2,1.2c-0.1,0.4-0.1,0.8-0.1,1.3l-0.3,10.9c0,0.3,0,0.7,0,1c0,0.3,0.1,0.7,0.1,1s0.1,0.7,0.2,1l0.2,1
		c0.7,1.9,1.7,3.7,3,5.3c1.4,1.6,3,3,4.8,4.1c2,1.2,4.1,2.1,6.3,2.7C271.6,461.2,274.2,461.5,276.7,461.5"/>
	<path class="st4" d="M529,441.2l-0.3,7.2c-0.1,4.6-1.4,9.1-3.8,13.1c-2.2,3.7-5.3,6.8-8.8,9.1c-3.7,2.4-7.8,4.2-12.2,5.3
		c-4.5,1.2-9.1,1.7-13.7,1.7c-5.2,0-10.3-0.7-15.2-2.2c-4.5-1.3-8.7-3.5-12.4-6.3c-3.5-2.6-6.3-6-8.4-9.9c-2.1-4-3.2-8.4-3.2-13
		c0-0.1,0-0.3,0-0.4V445c0-0.1,0-0.3,0-0.4l0.2-7.2c0,0.1,0,0.3,0,0.4v0.8c0,0.1,0,0.3,0,0.4c0.1,4.5,1.2,9,3.2,13
		c2,3.9,4.9,7.2,8.4,9.9c3.7,2.8,7.9,5,12.4,6.3c5,1.5,10.1,2.2,15.3,2.2c4.6,0,9.2-0.6,13.7-1.7c4.3-1.1,8.4-2.9,12.2-5.3
		c3.6-2.3,6.6-5.4,8.9-9.1C527.6,450.3,528.9,445.8,529,441.2z"/>
	<g>
		<defs>
			<path id="SVGID_23_" d="M529,441.2l-0.3,7.2c-0.1,4.6-1.4,9.1-3.8,13.1c-2.2,3.7-5.3,6.8-8.8,9.1c-3.7,2.4-7.8,4.2-12.2,5.3
				c-4.5,1.2-9.1,1.7-13.7,1.7c-5.2,0-10.3-0.7-15.2-2.2c-4.5-1.3-8.7-3.5-12.4-6.3c-3.5-2.6-6.3-6-8.4-9.9c-2.1-4-3.2-8.4-3.2-13
				c0-0.1,0-0.3,0-0.4V445c0-0.1,0-0.3,0-0.4l0.2-7.2c0,0.1,0,0.3,0,0.4v0.8c0,0.1,0,0.3,0,0.4c0.1,4.5,1.2,9,3.2,13
				c2,3.9,4.9,7.2,8.4,9.9c3.7,2.8,7.9,5,12.4,6.3c5,1.5,10.1,2.2,15.3,2.2c4.6,0,9.2-0.6,13.7-1.7c4.3-1.1,8.4-2.9,12.2-5.3
				c3.6-2.3,6.6-5.4,8.9-9.1C527.6,450.3,528.9,445.8,529,441.2z"/>
		</defs>
		<clipPath id="SVGID_24_">
			<use xlink:href="#SVGID_23_"  style="overflow:visible;"/>
		</clipPath>
		<g class="st20">
			<g class="st8">
				<path class="st4" d="M529,441.2l-0.3,7.2l-0.1,1c0,0.3,0,0.6-0.1,1s-0.1,0.6-0.1,0.9s-0.1,0.6-0.1,0.9l0.3-7.2
					c0-0.3,0.1-0.6,0.1-0.9l0.1-0.9c0-0.3,0.1-0.6,0.1-1S528.9,441.5,529,441.2"/>
				<path class="st4" d="M528.6,445l-0.3,7.2c-0.1,0.5-0.2,0.9-0.3,1.4c-0.1,0.5-0.2,0.9-0.3,1.4s-0.3,0.9-0.4,1.3s-0.3,0.9-0.5,1.3
					l0.3-7.2c0.2-0.4,0.3-0.9,0.5-1.3s0.3-0.9,0.4-1.3s0.2-0.9,0.3-1.4S528.5,445.5,528.6,445"/>
				<path class="st4" d="M527.1,450.3l-0.3,7.2c-0.2,0.5-0.4,1-0.7,1.5s-0.5,1-0.7,1.5s-0.5,0.9-0.8,1.4s-0.6,0.9-0.9,1.3l0.3-7.2
					c0.3-0.4,0.6-0.9,0.9-1.3s0.6-0.9,0.8-1.4s0.5-1,0.7-1.5S526.9,450.8,527.1,450.3"/>
				<path class="st4" d="M524.1,456l-0.3,7.2c-0.9,1.2-1.8,2.3-2.8,3.4c-1,1-2.2,2-3.3,2.9c-1.2,0.9-2.5,1.7-3.8,2.4
					c-1.3,0.7-2.7,1.4-4.1,2l0.3-7.2c1.4-0.6,2.8-1.3,4.1-2c1.3-0.7,2.6-1.6,3.8-2.5c1.2-0.9,2.3-1.9,3.3-2.9
					C522.3,458.3,523.2,457.2,524.1,456"/>
				<path class="st4" d="M510,466.7l-0.3,7.2c-0.5,0.2-1.1,0.4-1.6,0.6s-1.1,0.4-1.7,0.6l-1.7,0.5c-0.6,0.2-1.1,0.3-1.7,0.5l0.3-7.2
					c0.6-0.1,1.1-0.3,1.7-0.5s1.1-0.3,1.7-0.5s1.1-0.4,1.7-0.6S509.5,466.9,510,466.7"/>
				<path class="st4" d="M503.3,468.9l-0.3,7.2l-1.4,0.3l-1.4,0.3l-1.5,0.2c-0.5,0.1-1,0.1-1.5,0.2l0.3-7.2l1.5-0.2l1.5-0.2
					c0.5-0.1,1-0.2,1.4-0.3L503.3,468.9"/>
				<path class="st4" d="M497.5,469.9l-0.3,7.2l-1.4,0.2l-1.4,0.1l-1.4,0.1l-1.4,0l0.2-7.2l1.4,0l1.4-0.1l1.4-0.1L497.5,469.9"/>
				<path class="st4" d="M492,470.4l-0.2,7.2h-2.5h-1h-1c-0.3,0-0.7,0-1-0.1l0.2-7.2l1,0.1h1h1H492"/>
				<path class="st4" d="M486.5,470.2l-0.2,7.2c-0.5,0-0.9-0.1-1.4-0.1l-1.4-0.1c-0.5,0-0.9-0.1-1.3-0.2s-0.9-0.1-1.3-0.2l0.2-7.2
					c0.4,0.1,0.9,0.1,1.3,0.2l1.3,0.2l1.4,0.1L486.5,470.2"/>
				<path class="st4" d="M481.2,469.6l-0.2,7.2c-0.5-0.1-1-0.2-1.5-0.3s-1-0.2-1.5-0.3s-1-0.2-1.5-0.4l-1.4-0.4l0.2-7.2
					c0.5,0.1,0.9,0.3,1.4,0.4s1,0.3,1.5,0.4s1,0.2,1.5,0.3L481.2,469.6"/>
				<path class="st4" d="M475.3,468.2l-0.2,7.2c-3.4-1-6.7-2.5-9.7-4.4c-2.8-1.8-5.4-3.9-7.6-6.5c-2.1-2.5-3.8-5.3-5-8.4
					c-1.2-3.2-1.9-6.6-1.9-10c0-0.1,0-0.3,0-0.4V445c0-0.1,0-0.3,0-0.4l0.2-7.2c0,0.1,0,0.3,0,0.4v0.8c0,0.1,0,0.3,0,0.4
					c0.1,3.4,0.7,6.8,1.9,10c1.2,3,2.9,5.9,5,8.4c2.2,2.5,4.7,4.7,7.6,6.5C468.6,465.7,471.9,467.2,475.3,468.2"/>
			</g>
		</g>
	</g>
	<path class="st16" d="M489.6,407.2c5.3,0,10.5,0.7,15.6,2.2c4.4,1.3,8.6,3.4,12.3,6.3c7,5.3,11.2,13.5,11.5,22.3
		c0.3,5-0.7,10-2.8,14.5c-2.1,4-5.1,7.5-8.7,10.1c-3.8,2.7-8.1,4.7-12.6,5.9c-4.7,1.3-9.5,1.9-14.4,1.9c-5.2,0-10.3-0.7-15.3-2.2
		c-4.5-1.3-8.7-3.5-12.4-6.3c-3.5-2.6-6.3-6-8.4-9.9c-4.2-8.3-4.3-18-0.5-26.5c1.9-3.9,4.7-7.3,8.1-10c3.7-2.8,7.8-4.9,12.3-6.2
		C479.2,407.9,484.4,407.2,489.6,407.2z M490.8,462c3.3,0,6.5-0.6,9.6-1.8c2.8-1.1,5.4-2.8,7.5-4.9c2.1-2.1,3.7-4.7,4.8-7.5
		c1.1-3,1.6-6.2,1.5-9.4c-0.1-2.7-0.7-5.4-1.7-7.9c-1-2.7-2.5-5.3-4.5-7.5c-2.1-2.4-4.7-4.2-7.6-5.5c-3.5-1.5-7.2-2.2-11-2.2
		c-3.7-0.1-7.5,0.6-10.9,2c-2.8,1.2-5.4,3-7.4,5.3c-1.9,2.2-3.3,4.7-4.2,7.5c-0.9,2.7-1.3,5.6-1.2,8.5c0.1,3.2,0.8,6.3,2.1,9.2
		c1.2,2.8,3,5.3,5.2,7.4c2.3,2.1,4.9,3.8,7.9,4.9C484.1,461.4,487.4,462,490.8,462"/>
</g>
<g>
	<path class="st4" d="M331,423.3c0,2.4,0,4.8,0.1,7.2c0-1.4,0-2.7-0.1-4s-0.1-2.5-0.1-3.8s-0.1-2.4-0.1-3.5s-0.1-2.3-0.2-3.4
		l-0.1-7.2c0,1.1,0.1,2.2,0.2,3.4s0.1,2.3,0.1,3.5s0.1,2.5,0.1,3.8S331,421.9,331,423.3z"/>
	<g>
		<defs>
			<path id="SVGID_25_" d="M331,423.3c0,2.4,0,4.8,0.1,7.2c0-1.4,0-2.7-0.1-4s-0.1-2.5-0.1-3.8s-0.1-2.4-0.1-3.5s-0.1-2.3-0.2-3.4
				l-0.1-7.2c0,1.1,0.1,2.2,0.2,3.4s0.1,2.3,0.1,3.5s0.1,2.5,0.1,3.8S331,421.9,331,423.3z"/>
		</defs>
		<clipPath id="SVGID_26_">
			<use xlink:href="#SVGID_25_"  style="overflow:visible;"/>
		</clipPath>
		<g class="st21">
			<g class="st8">
				<path class="st4" d="M331,423.3l0.1,7.2c0-1.4,0-2.7-0.1-4s-0.1-2.5-0.1-3.8s-0.1-2.4-0.1-3.5s-0.1-2.3-0.2-3.4l-0.1-7.2
					c0,1.1,0.1,2.2,0.2,3.4s0.1,2.3,0.1,3.5s0.1,2.5,0.1,3.8S331,421.9,331,423.3"/>
			</g>
		</g>
	</g>
	<path class="st4" d="M391.8,438.7l-0.1,7.2v-0.5c0-2.9-0.6-5.8-1.6-8.6c-1-2.7-2.6-5.1-4.6-7.1c-2.1-2.1-4.6-3.8-7.4-4.8
		c-5.5-2-11.5-2.3-17.2-0.8c-2.2,0.6-4.4,1.5-6.4,2.7c-1.9,1.1-3.6,2.6-5.1,4.2c-1.4,1.6-2.5,3.5-3.2,5.6c-0.1,0.3-0.2,0.7-0.4,1.1
		s-0.2,0.7-0.3,1.1c-0.1,0.4-0.2,0.8-0.2,1.1c-0.1,0.4-0.1,0.8-0.1,1.1v-7.2c0-0.4,0-0.8,0.1-1.1c0.1-0.4,0.1-0.8,0.2-1.1
		c0.1-0.4,0.2-0.8,0.3-1.1s0.2-0.7,0.4-1.1c0.7-2,1.8-3.9,3.2-5.6c1.5-1.7,3.2-3.1,5.1-4.2c2-1.2,4.1-2.1,6.4-2.7
		c5.7-1.5,11.7-1.2,17.3,0.8c2.8,1.1,5.3,2.7,7.4,4.8c2,2,3.6,4.5,4.6,7.1c1.1,2.7,1.6,5.7,1.6,8.6L391.8,438.7L391.8,438.7z"/>
	<g>
		<defs>
			<path id="SVGID_27_" d="M391.8,438.7l-0.1,7.2v-0.5c0-2.9-0.6-5.8-1.6-8.6c-1-2.7-2.6-5.1-4.6-7.1c-2.1-2.1-4.6-3.8-7.4-4.8
				c-5.5-2-11.5-2.3-17.2-0.8c-2.2,0.6-4.4,1.5-6.4,2.7c-1.9,1.1-3.6,2.6-5.1,4.2c-1.4,1.6-2.5,3.5-3.2,5.6
				c-0.1,0.3-0.2,0.7-0.4,1.1s-0.2,0.7-0.3,1.1c-0.1,0.4-0.2,0.8-0.2,1.1c-0.1,0.4-0.1,0.8-0.1,1.1v-7.2c0-0.4,0-0.8,0.1-1.1
				c0.1-0.4,0.1-0.8,0.2-1.1c0.1-0.4,0.2-0.8,0.3-1.1s0.2-0.7,0.4-1.1c0.7-2,1.8-3.9,3.2-5.6c1.5-1.7,3.2-3.1,5.1-4.2
				c2-1.2,4.1-2.1,6.4-2.7c5.7-1.5,11.7-1.2,17.3,0.8c2.8,1.1,5.3,2.7,7.4,4.8c2,2,3.6,4.5,4.6,7.1c1.1,2.7,1.6,5.7,1.6,8.6
				L391.8,438.7L391.8,438.7z"/>
		</defs>
		<clipPath id="SVGID_28_">
			<use xlink:href="#SVGID_27_"  style="overflow:visible;"/>
		</clipPath>
		<g class="st22">
			<g class="st8">
				<path class="st4" d="M391.8,438.7l-0.1,7.2v-0.5c0-2.4-0.3-4.7-1-7c-0.7-2.2-1.7-4.2-3-6.1c-1.3-1.9-2.9-3.5-4.8-4.9
					c-2-1.4-4.2-2.5-6.6-3.2V417c2.4,0.7,4.6,1.8,6.6,3.2c1.9,1.3,3.5,3,4.8,4.9c1.3,1.9,2.3,3.9,3,6.1c0.7,2.3,1,4.6,1,7
					L391.8,438.7"/>
				<path class="st4" d="M376.4,417v7.2l-0.8-0.2l-0.8-0.2l-0.8-0.2l-0.8-0.1v-7.2l0.8,0.1l0.8,0.2l0.8,0.2L376.4,417"/>
				<path class="st4" d="M373.2,416.3v7.2l-0.7-0.1l-0.7-0.1l-0.7-0.1l-0.8-0.1v-7.2c0.2,0,0.5,0,0.8,0.1l0.8,0.1l0.7,0.1
					L373.2,416.3"/>
				<path class="st4" d="M370.3,415.9v7.2h-0.5h-0.5h-1.8v-7.2h1.8h0.5L370.3,415.9"/>
				<path class="st4" d="M367.4,415.9v7.2h-0.7H366l-0.7,0.1l-0.6,0.1V416l0.7-0.1l0.6-0.1h0.7L367.4,415.9"/>
				<path class="st4" d="M364.7,416.1v7.2l-0.7,0.1c-0.2,0-0.5,0.1-0.7,0.1l-0.7,0.1l-0.7,0.2v-7.2l0.7-0.2l0.7-0.1l0.7-0.1
					L364.7,416.1"/>
				<path class="st4" d="M361.8,416.6v7.2l-1,0.2c-0.3,0.1-0.6,0.2-0.9,0.3l-0.9,0.3L358,425v-7.2l0.9-0.4c0.3-0.1,0.6-0.2,0.9-0.3
					l1-0.3L361.8,416.6"/>
				<path class="st4" d="M358,417.8v7.2c-0.9,0.4-1.8,0.8-2.7,1.3c-0.9,0.5-1.7,1-2.5,1.6c-0.8,0.6-1.5,1.2-2.2,1.9
					c-0.7,0.7-1.3,1.4-1.9,2.1v-7.2c0.6-0.7,1.2-1.5,1.9-2.1c0.7-0.7,1.4-1.3,2.2-1.9C354.5,419.5,356.2,418.5,358,417.8"/>
				<path class="st4" d="M348.8,424.6v7.2c-0.2,0.3-0.4,0.5-0.6,0.8s-0.4,0.6-0.5,0.9s-0.3,0.6-0.5,0.9s-0.3,0.6-0.4,0.9v-7.2
					c0.1-0.3,0.3-0.6,0.5-0.9s0.3-0.6,0.5-0.9s0.4-0.6,0.5-0.9S348.6,424.9,348.8,424.6"/>
				<path class="st4" d="M346.7,428.1v7.2c0,0.1-0.1,0.2-0.1,0.3l-0.1,0.3l-0.1,0.3c0,0.1-0.1,0.2-0.1,0.3l-0.2,0.6
					c-0.1,0.2-0.1,0.4-0.2,0.6s-0.1,0.4-0.2,0.6s-0.1,0.4-0.2,0.7v-7.2c0-0.2,0.1-0.4,0.2-0.6s0.1-0.4,0.2-0.6l0.2-0.6l0.2-0.6
					c0-0.1,0.1-0.2,0.1-0.3l0.1-0.3l0.1-0.3C346.6,428.3,346.7,428.2,346.7,428.1"/>
				<path class="st5" d="M345.5,431.9v7.2l-0.1,0.4c0,0.1,0,0.3-0.1,0.5s0,0.3,0,0.4v0.4v-7.2c0-0.1,0-0.3,0-0.4s0-0.3,0-0.4
					s0-0.3,0.1-0.5C345.4,432.1,345.5,432,345.5,431.9"/>
				<path class="st5" d="M345.2,433.6v7.2v0.2v-7.2V433.6"/>
			</g>
		</g>
	</g>
	<path class="st4" d="M345.2,451.5c0-2.4,0-4.8,0-7.2v-0.1v7.2V451.5z"/>
	<g>
		<defs>
			<path id="SVGID_29_" d="M345.2,451.5c0-2.4,0-4.8,0-7.2v-0.1v7.2V451.5z"/>
		</defs>
		<clipPath id="SVGID_30_">
			<use xlink:href="#SVGID_29_"  style="overflow:visible;"/>
		</clipPath>
		<g class="st23">
			<g class="st8">
				<path class="st4" d="M345.2,444.2v7.2v0.1v-7.2V444.2"/>
			</g>
		</g>
	</g>
	<polygon class="st6" points="345.4,460.8 345.5,468 345.1,468 345.1,460.8 	"/>
	<path class="st4" d="M406.3,438.6l-0.1,7.2c0,4.8-1.1,9.5-3.1,13.9c-1.9,3.9-4.6,7.3-8,10c-3.4,2.7-7.3,4.7-11.5,6
		c-6.8,2.1-14.1,2.5-21.1,1.4c-2.3-0.4-4.6-1-6.9-1.9c-2-0.8-4-1.8-5.8-3c-1.7-1.1-3.1-2.5-4.4-4.1v-7.2c1.2,1.6,2.7,2.9,4.4,4.1
		c1.8,1.2,3.7,2.2,5.8,3c2.2,0.8,4.5,1.5,6.9,1.9c2.5,0.4,5.1,0.7,7.7,0.6c4.6,0,9.1-0.7,13.5-2c4.2-1.3,8.1-3.3,11.5-6
		c3.4-2.7,6.1-6.1,8-9.9C405.3,448.1,406.3,443.4,406.3,438.6z"/>
	<g>
		<defs>
			<path id="SVGID_31_" d="M406.3,438.6l-0.1,7.2c0,4.8-1.1,9.5-3.1,13.9c-1.9,3.9-4.6,7.3-8,10c-3.4,2.7-7.3,4.7-11.5,6
				c-6.8,2.1-14.1,2.5-21.1,1.4c-2.3-0.4-4.6-1-6.9-1.9c-2-0.8-4-1.8-5.8-3c-1.7-1.1-3.1-2.5-4.4-4.1v-7.2c1.2,1.6,2.7,2.9,4.4,4.1
				c1.8,1.2,3.7,2.2,5.8,3c2.2,0.8,4.5,1.5,6.9,1.9c2.5,0.4,5.1,0.7,7.7,0.6c4.6,0,9.1-0.7,13.5-2c4.2-1.3,8.1-3.3,11.5-6
				c3.4-2.7,6.1-6.1,8-9.9C405.3,448.1,406.3,443.4,406.3,438.6z"/>
		</defs>
		<clipPath id="SVGID_32_">
			<use xlink:href="#SVGID_31_"  style="overflow:visible;"/>
		</clipPath>
		<g class="st24">
			<g class="st8">
				<polyline class="st4" points="406.3,438.6 406.2,445.8 406.2,445.8 406.2,445.8 406.2,445.8 406.2,445.8 406.3,438.6 
					406.3,438.6 406.3,438.6 406.3,438.6 406.3,438.6 				"/>
				<path class="st4" d="M406.3,438.6l-0.1,7.2c0,0.6,0,1.2-0.1,1.7s-0.1,1.1-0.1,1.7s-0.1,1.1-0.2,1.6s-0.2,1.1-0.3,1.6l0.1-7.2
					c0.1-0.5,0.2-1,0.3-1.6s0.2-1.1,0.2-1.6s0.1-1.1,0.1-1.7S406.3,439.2,406.3,438.6"/>
				<path class="st4" d="M405.6,445.2l-0.1,7.2c-0.1,0.5-0.2,1-0.4,1.5s-0.3,1-0.4,1.5s-0.3,1-0.5,1.4s-0.4,0.9-0.5,1.4l0.1-7.2
					c0.2-0.5,0.4-0.9,0.5-1.4s0.3-0.9,0.5-1.4s0.3-1,0.4-1.5S405.5,445.8,405.6,445.2"/>
				<path class="st4" d="M403.8,451.1l-0.1,7.2c-0.2,0.5-0.5,1.1-0.7,1.6s-0.5,1-0.8,1.5s-0.6,1-0.9,1.4s-0.6,0.9-1,1.4l0.1-7.2
					c0.3-0.5,0.7-0.9,1-1.4c0.3-0.5,0.6-1,0.9-1.4s0.5-1,0.8-1.5S403.6,451.6,403.8,451.1"/>
				<path class="st4" d="M400.5,457l-0.1,7.2c-0.9,1.1-1.8,2.2-2.8,3.2c-1,1-2.1,1.9-3.2,2.8c-1.1,0.9-2.4,1.6-3.6,2.4
					c-1.3,0.7-2.6,1.3-3.9,1.9l0-7.2c1.3-0.6,2.7-1.2,3.9-1.9c1.3-0.7,2.5-1.5,3.6-2.4C396.7,461.3,398.7,459.3,400.5,457"/>
				<path class="st4" d="M386.9,467.2l0,7.2c-0.5,0.2-0.9,0.4-1.4,0.5s-1,0.4-1.5,0.5s-1,0.3-1.5,0.5s-1,0.3-1.5,0.4v-7.2
					c0.5-0.1,1-0.2,1.5-0.4s1-0.3,1.5-0.5s1-0.3,1.5-0.5L386.9,467.2"/>
				<path class="st4" d="M381,469.1v7.2c-0.4,0.1-0.8,0.2-1.2,0.3s-0.8,0.2-1.2,0.2l-1.2,0.2l-1.2,0.2V470l1.2-0.2l1.2-0.2
					c0.4-0.1,0.8-0.1,1.2-0.2S380.6,469.2,381,469.1"/>
				<path class="st4" d="M376.1,470v7.2l-1.1,0.1l-1.2,0.1l-1.2,0.1l-1.2,0v-7.2l1.2,0l1.2-0.1l1.2-0.1L376.1,470"/>
				<path class="st4" d="M371.5,470.4v7.2h-2.1h-0.8h-0.8H367v-7.2h0.8h0.8h0.8H371.5"/>
				<path class="st4" d="M367,470.3v7.2l-1.1-0.1l-1.1-0.1c-0.4,0-0.7-0.1-1.1-0.1l-1.1-0.2v-7.2l1.1,0.2l1.1,0.1l1.1,0.1L367,470.3
					"/>
				<path class="st4" d="M362.5,469.8v7.2l-1.2-0.2l-1.2-0.3l-1.2-0.3l-1.1-0.3v-7.2l1.2,0.4l1.2,0.3c0.4,0.1,0.8,0.2,1.2,0.3
					L362.5,469.8"/>
				<path class="st4" d="M357.8,468.6v7.2c-1.3-0.4-2.5-0.9-3.8-1.4c-1.2-0.5-2.3-1.1-3.4-1.8c-1-0.6-2-1.4-2.9-2.2
					c-0.9-0.8-1.7-1.6-2.4-2.5v-7.2c0.7,0.9,1.5,1.7,2.4,2.5c0.9,0.8,1.9,1.5,2.9,2.2c1.1,0.7,2.2,1.3,3.4,1.8
					C355.3,467.8,356.6,468.2,357.8,468.6"/>
			</g>
		</g>
	</g>
	<path class="st16" d="M372.5,407.2c4.5,0,9,0.7,13.3,2.2c3.9,1.4,7.5,3.4,10.7,6.2c3,2.7,5.5,5.9,7.1,9.6c1.8,3.9,2.7,8.2,2.7,12.5
		c0.1,4.9-0.8,9.8-2.9,14.3c-1.8,4-4.6,7.5-8,10.2c-3.4,2.8-7.4,4.9-11.6,6.1c-4.4,1.4-9,2.1-13.7,2c-2.6,0-5.1-0.2-7.7-0.6
		c-2.3-0.4-4.7-1-6.9-1.9c-2-0.8-4-1.8-5.8-3c-1.7-1.1-3.1-2.5-4.4-4.1h-0.3l-0.2,33.5h-14.6l0.6-66.2c0-1.9,0-3.7,0-5.5
		c0-1.8-0.1-3.4-0.1-5s-0.1-3.1-0.2-4.6s-0.1-2.9-0.2-4.3h12.9l0.6,10.2h0.3c1.5-1.8,3.2-3.5,5.1-4.9c2-1.5,4.1-2.7,6.4-3.6
		c2.5-1,5-1.8,7.7-2.3C366.4,407.5,369.5,407.3,372.5,407.2z M367.7,461.6c3.5,0,7-0.5,10.3-1.7c2.9-1,5.5-2.7,7.6-4.8
		c2.1-2.1,3.7-4.6,4.7-7.4c1.1-3,1.6-6.3,1.6-9.5c0-2.9-0.6-5.8-1.6-8.6c-1-2.7-2.6-5.1-4.6-7.1c-2.1-2.1-4.6-3.8-7.4-4.8
		c-5.5-2.1-11.6-2.4-17.3-0.8c-2.2,0.6-4.4,1.5-6.4,2.7c-1.9,1.1-3.6,2.6-5.1,4.2c-1.4,1.6-2.5,3.5-3.2,5.6
		c-0.1,0.4-0.2,0.7-0.4,1.1s-0.2,0.7-0.3,1.1c-0.1,0.4-0.2,0.8-0.2,1.1c-0.1,0.4-0.1,0.8-0.1,1.1l-0.1,10.4c0,0.4,0,0.8,0,1.2
		s0.1,0.8,0.1,1.1s0.1,0.8,0.2,1.1l0.2,1.1c0.7,1.9,1.7,3.7,3,5.2c1.4,1.6,3.1,3,4.9,4.1c2,1.2,4.2,2.1,6.4,2.7
		C362.6,461.3,365.1,461.7,367.7,461.6"/>
	<polygon class="st25" points="344.9,494.3 345,501.5 330.5,501.5 330.4,494.3 	"/>
</g>
<path class="st4" d="M427.8,35.8L367.5,1l-60.3,34.8L29.4,196.2L0.1,213.1v424.2l29.3,16.9l281.3,162.4l56.9,32.8l56.9-32.8
	l281.3-162.4l29.3-16.9V213.1l-29.3-16.9L427.8,35.8z M705.6,621.5L367.5,816.7L29.4,621.5V231L367.5,35.8l0,0L705.6,231V621.5z"/>
</svg>
