<?xml version="1.0" encoding="utf-8"?>
<!-- Generator: Adobe Illustrator 26.4.1, SVG Export Plug-In . SVG Version: 6.00 Build 0)  -->
<svg version="1.1" id="Layer_1" xmlns="http://www.w3.org/2000/svg" xmlns:xlink="http://www.w3.org/1999/xlink" x="0px" y="0px"
	 viewBox="0 0 2521 2911" style="enable-background:new 0 0 2521 2911;" xml:space="preserve">
<style type="text/css">
	.st0{fill-rule:evenodd;clip-rule:evenodd;fill:url(#SVGID_1_);}
	.st1{fill-rule:evenodd;clip-rule:evenodd;fill:#00FF00;}
	.st2{fill:#666666;}
	.st3{fill-rule:evenodd;clip-rule:evenodd;fill:#FFFF00;}
	.st4{fill-rule:evenodd;clip-rule:evenodd;fill:#FF0000;}
	.st5{fill:#FFFFFF;}
	.st6{fill-rule:evenodd;clip-rule:evenodd;fill:#38761D;}
	.st7{fill-rule:evenodd;clip-rule:evenodd;fill:#7F6000;}
	.st8{fill-rule:evenodd;clip-rule:evenodd;fill:#85200C;}
	.st9{fill:#202020;}
</style>
<g>
	
		<linearGradient id="SVGID_1_" gradientUnits="userSpaceOnUse" x1="-9739.498" y1="-2579.5237" x2="-9799.416" y2="-2579.5483" gradientTransform="matrix(0 46.7631 -46.7631 0 -119382.3828 458295.6562)">
		<stop  offset="0" style="stop-color:#000000"/>
		<stop  offset="0.11" style="stop-color:#000000"/>
		<stop  offset="0.28" style="stop-color:#2D5B16"/>
		<stop  offset="0.47" style="stop-color:#553F00"/>
		<stop  offset="0.6" style="stop-color:#000000"/>
		<stop  offset="1" style="stop-color:#000000"/>
	</linearGradient>
	<path class="st0" d="M1244.7,44.6l1217.6,676.1v1415.1l-1217.6,710.7L27.1,2135.9V720.4L1244.7,44.6z"/>
	<g>
		<g>
			<g>
				<path class="st1" d="M149.7,2013.2L149.7,2013.2c0-7.9,6.2-14.4,13.7-14.4h310.4c3.8,0,7.2,1.4,9.6,4.1
					c2.4,2.7,4.1,6.5,4.1,10.3v58c0,7.9-6.2,14.4-13.7,14.4H163.4c-7.5,0-13.7-6.5-13.7-14.4V2013.2z"/>
			</g>
		</g>
		<g>
			<g>
				<path class="st2" d="M473.8,2089H163.4c-9.5,0-17.1-8-17.1-17.8v-58c0-9.8,7.7-17.8,17.1-17.8h310.4c4.9,0,9.2,1.9,12.2,5.3
					c3.2,3.6,5,8.2,5,12.6v58C490.9,2081,483.2,2089,473.8,2089z M163.4,2002.2c-5.7,0-10.3,4.9-10.3,11v58c0,6.1,4.6,11,10.3,11
					h310.4c5.7,0,10.3-4.9,10.3-11v-58c0-2.7-1.2-5.7-3.3-8c-2.1-2.4-5-2.9-7-2.9H163.4z"/>
			</g>
		</g>
		<g>
			<path class="st1" d="M525.8,2013.2L525.8,2013.2c0-7.9,6.2-14.4,13.7-14.4h310.4c3.8,0,7.2,1.4,9.6,4.1c2.7,2.7,4.1,6.5,4.1,10.3
				v58c0,7.9-6.2,14.4-13.7,14.4H539.5c-7.5,0-13.7-6.5-13.7-14.4V2013.2z"/>
		</g>
		<g>
			<g>
				<path class="st2" d="M849.9,2089H539.5c-9.5,0-17.1-8-17.1-17.8v-58c0-9.8,7.7-17.8,17.1-17.8h310.4c4.9,0,9.2,1.9,12.2,5.3
					c3.1,3.1,5,7.7,5,12.6v58C867.1,2081,859.4,2089,849.9,2089z M539.5,2002.2c-5.7,0-10.3,4.9-10.3,11v58c0,6.1,4.6,11,10.3,11
					h310.4c5.7,0,10.3-4.9,10.3-11v-58c0-3-1.1-5.9-3.1-7.9c-2.3-2.6-5.2-3.1-7.2-3.1H539.5z"/>
			</g>
		</g>
		<g>
			<g>
				<path class="st1" d="M901.8,2013.2L901.8,2013.2c0-7.9,6.2-14.4,13.7-14.4H1226c3.8,0,7.2,1.4,9.6,4.1c2.7,2.7,4.1,6.5,4.1,10.3
					v58c0,7.9-6.2,14.4-13.7,14.4H915.6c-7.5,0-13.7-6.5-13.7-14.4V2013.2z"/>
			</g>
		</g>
		<g>
			<g>
				<g>
					<path class="st2" d="M1226,2089H915.6c-9.5,0-17.1-8-17.1-17.8v-58c0-9.8,7.7-17.8,17.1-17.8H1226c4.9,0,9.2,1.9,12.2,5.3
						c3.1,3.1,5,7.7,5,12.6v58C1243.1,2081,1235.4,2089,1226,2089z M915.6,2002.2c-5.7,0-10.3,4.9-10.3,11v58c0,6.1,4.6,11,10.3,11
						H1226c5.7,0,10.3-4.9,10.3-11v-58c0-3-1.1-5.9-3.1-7.9c-2.3-2.6-5.2-3.1-7.2-3.1H915.6z"/>
				</g>
			</g>
		</g>
		<g>
			<g>
				<path class="st1" d="M1278.5,2013.2L1278.5,2013.2c0-7.9,6.2-14.4,13.7-14.4h310.4c3.8,0,7.2,1.4,9.6,4.1
					c2.4,2.7,4.1,6.5,4.1,10.3v58c0,7.9-6.2,14.4-13.7,14.4h-310.4c-7.5,0-13.7-6.5-13.7-14.4V2013.2z"/>
			</g>
		</g>
		<g>
			<g>
				<g>
					<path class="st2" d="M1602.6,2089h-310.4c-9.5,0-17.1-8-17.1-17.8v-58c0-9.8,7.7-17.8,17.1-17.8h310.4c4.9,0,9.2,1.9,12.2,5.3
						c3.2,3.6,5,8.2,5,12.6v58C1619.8,2081,1612.1,2089,1602.6,2089z M1292.2,2002.2c-5.7,0-10.3,4.9-10.3,11v58
						c0,6.1,4.6,11,10.3,11h310.4c5.7,0,10.3-4.9,10.3-11v-58c0-2.7-1.2-5.7-3.3-8c-2.1-2.4-5-2.9-7-2.9H1292.2z"/>
				</g>
			</g>
		</g>
		<g>
			<g>
				<path class="st1" d="M1654.5,2013.2L1654.5,2013.2c0-7.9,6.2-14.4,13.7-14.4h310.4c3.8,0,7.2,1.4,9.6,4.1
					c2.7,2.7,4.1,6.5,4.1,10.3v58c0,7.9-6.2,14.4-13.7,14.4h-310.4c-7.5,0-13.7-6.5-13.7-14.4L1654.5,2013.2L1654.5,2013.2z"/>
			</g>
		</g>
		<g>
			<g>
				<g>
					<path class="st2" d="M1978.6,2089h-310.4c-9.5,0-17.1-8-17.1-17.8v-58c0-9.8,7.7-17.8,17.1-17.8h310.4c4.9,0,9.2,1.9,12.2,5.3
						c3.1,3.1,5,7.7,5,12.6v58C1995.7,2081,1988,2089,1978.6,2089z M1668.2,2002.2c-5.7,0-10.3,4.9-10.3,11v58c0,6.1,4.6,11,10.3,11
						h310.4c5.7,0,10.3-4.9,10.3-11v-58c0-3-1.1-5.9-3.1-7.9c-2.3-2.6-5.2-3.1-7.2-3.1H1668.2z"/>
				</g>
			</g>
		</g>
		<g>
			<g>
				<path class="st1" d="M149.7,1723.6L149.7,1723.6c0-7.9,6.2-14.4,13.7-14.4h310.4c3.8,0,7.2,1.4,9.6,4.1
					c2.4,2.7,4.1,6.5,4.1,10.3v58c0,7.9-6.2,14.4-13.7,14.4H163.4c-7.5,0-13.7-6.5-13.7-14.4V1723.6z"/>
			</g>
		</g>
		<g>
			<g>
				<g>
					<path class="st2" d="M473.8,1799.4H163.4c-9.5,0-17.1-8-17.1-17.8v-58c0-9.8,7.7-17.8,17.1-17.8h310.4c4.9,0,9.2,1.9,12.2,5.3
						c3.2,3.6,5,8.2,5,12.6v58C490.9,1791.4,483.2,1799.4,473.8,1799.4z M163.4,1712.6c-5.7,0-10.3,4.9-10.3,11v58
						c0,6.1,4.6,11,10.3,11h310.4c5.7,0,10.3-4.9,10.3-11v-58c0-2.7-1.2-5.7-3.3-8c-2.1-2.4-5-2.9-7-2.9H163.4z"/>
				</g>
			</g>
		</g>
		<g>
			<path class="st1" d="M525.8,1723.6L525.8,1723.6c0-7.9,6.2-14.4,13.7-14.4h310.4c3.8,0,7.2,1.4,9.6,4.1c2.7,2.7,4.1,6.5,4.1,10.3
				v58c0,7.9-6.2,14.4-13.7,14.4H539.5c-7.5,0-13.7-6.5-13.7-14.4V1723.6z"/>
		</g>
		<g>
			<g>
				<path class="st2" d="M849.9,1799.4H539.5c-9.5,0-17.1-8-17.1-17.8v-58c0-9.8,7.7-17.8,17.1-17.8h310.4c4.9,0,9.2,1.9,12.2,5.3
					c3.1,3.1,5,7.7,5,12.6v58C867.1,1791.4,859.4,1799.4,849.9,1799.4z M539.5,1712.6c-5.7,0-10.3,4.9-10.3,11v58
					c0,6.1,4.6,11,10.3,11h310.4c5.7,0,10.3-4.9,10.3-11v-58c0-3-1.1-5.9-3.1-7.9c-2.3-2.6-5.1-3.1-7.2-3.1H539.5z"/>
			</g>
		</g>
		<g>
			<g>
				<path class="st1" d="M1278.5,1723.6L1278.5,1723.6c0-7.9,6.2-14.4,13.7-14.4h310.4c3.8,0,7.2,1.4,9.6,4.1
					c2.4,2.7,4.1,6.5,4.1,10.3v58c0,7.9-6.2,14.4-13.7,14.4h-310.4c-7.5,0-13.7-6.5-13.7-14.4V1723.6z"/>
			</g>
		</g>
		<g>
			<g>
				<g>
					<path class="st2" d="M1602.6,1799.4h-310.4c-9.5,0-17.1-8-17.1-17.8v-58c0-9.8,7.7-17.8,17.1-17.8h310.4
						c4.9,0,9.2,1.9,12.2,5.3c3.2,3.6,5,8.2,5,12.6v58C1619.8,1791.4,1612.1,1799.4,1602.6,1799.4z M1292.2,1712.6
						c-5.7,0-10.3,4.9-10.3,11v58c0,6.1,4.6,11,10.3,11h310.4c5.7,0,10.3-4.9,10.3-11v-58c0-2.7-1.2-5.7-3.3-8c-2.1-2.4-5-2.9-7-2.9
						H1292.2z"/>
				</g>
			</g>
		</g>
		<g>
			<g>
				<path class="st1" d="M149.7,1868.4L149.7,1868.4c0-7.9,6.2-14.4,13.7-14.4h310.4c3.8,0,7.2,1.4,9.6,4.1s4.1,6.5,4.1,10.3v58
					c0,7.9-6.2,14.4-13.7,14.4H163.4c-7.5,0-13.7-6.5-13.7-14.4V1868.4z"/>
			</g>
		</g>
		<g>
			<g>
				<g>
					<path class="st2" d="M473.8,1944.2H163.4c-9.5,0-17.1-8-17.1-17.8v-58c0-9.8,7.7-17.8,17.1-17.8h310.4c4.9,0,9.2,1.9,12.2,5.3
						c3.2,3.6,5,8.2,5,12.6v58C490.9,1936.2,483.2,1944.2,473.8,1944.2z M163.4,1857.4c-5.7,0-10.3,4.9-10.3,11v58
						c0,6.1,4.6,11,10.3,11h310.4c5.7,0,10.3-4.9,10.3-11v-58c0-2.7-1.2-5.7-3.3-8c-2.1-2.4-5-2.9-7-2.9H163.4z"/>
				</g>
			</g>
		</g>
		<g>
			<path class="st1" d="M525.8,1868.4L525.8,1868.4c0-7.9,6.2-14.4,13.7-14.4h310.4c3.8,0,7.2,1.4,9.6,4.1c2.7,2.7,4.1,6.5,4.1,10.3
				v58c0,7.9-6.2,14.4-13.7,14.4H539.5c-7.5,0-13.7-6.5-13.7-14.4V1868.4z"/>
		</g>
		<g>
			<g>
				<path class="st2" d="M849.9,1944.2H539.5c-9.5,0-17.1-8-17.1-17.8v-58c0-9.8,7.7-17.8,17.1-17.8h310.4c4.9,0,9.2,1.9,12.2,5.3
					c3.1,3.1,5,7.7,5,12.6v58C867.1,1936.2,859.4,1944.2,849.9,1944.2z M539.5,1857.4c-5.7,0-10.3,4.9-10.3,11v58
					c0,6.1,4.6,11,10.3,11h310.4c5.7,0,10.3-4.9,10.3-11v-58c0-3-1.1-5.9-3.1-7.9c-2.3-2.6-5.1-3.1-7.2-3.1H539.5z"/>
			</g>
		</g>
		<g>
			<g>
				<path class="st1" d="M1278.5,1868.4L1278.5,1868.4c0-7.9,6.2-14.4,13.7-14.4h310.4c3.8,0,7.2,1.4,9.6,4.1s4.1,6.5,4.1,10.3v58
					c0,7.9-6.2,14.4-13.7,14.4h-310.4c-7.5,0-13.7-6.5-13.7-14.4V1868.4z"/>
			</g>
		</g>
		<g>
			<g>
				<g>
					<path class="st2" d="M1602.6,1944.2h-310.4c-9.5,0-17.1-8-17.1-17.8v-58c0-9.8,7.7-17.8,17.1-17.8h310.4
						c4.9,0,9.2,1.9,12.2,5.3c3.2,3.6,5,8.2,5,12.6v58C1619.8,1936.2,1612.1,1944.2,1602.6,1944.2z M1292.2,1857.4
						c-5.7,0-10.3,4.9-10.3,11v58c0,6.1,4.6,11,10.3,11h310.4c5.7,0,10.3-4.9,10.3-11v-58c0-2.7-1.2-5.7-3.3-8c-2.1-2.4-5-2.9-7-2.9
						H1292.2z"/>
				</g>
			</g>
		</g>
		<g>
			<g>
				<path class="st1" d="M1654.5,1868.4L1654.5,1868.4c0-7.9,6.2-14.4,13.7-14.4h310.4c3.8,0,7.2,1.4,9.6,4.1
					c2.7,2.7,4.1,6.5,4.1,10.3v58c0,7.9-6.2,14.4-13.7,14.4h-310.4c-7.5,0-13.7-6.5-13.7-14.4L1654.5,1868.4L1654.5,1868.4z"/>
			</g>
		</g>
		<g>
			<g>
				<g>
					<path class="st2" d="M1978.6,1944.2h-310.4c-9.5,0-17.1-8-17.1-17.8v-58c0-9.8,7.7-17.8,17.1-17.8h310.4
						c4.9,0,9.2,1.9,12.2,5.3c3.1,3.1,5,7.7,5,12.6v58C1995.7,1936.2,1988,1944.2,1978.6,1944.2z M1668.2,1857.4
						c-5.7,0-10.3,4.9-10.3,11v58c0,6.1,4.6,11,10.3,11h310.4c5.7,0,10.3-4.9,10.3-11v-58c0-3-1.1-5.9-3.1-7.9
						c-2.3-2.6-5.1-3.1-7.2-3.1H1668.2z"/>
				</g>
			</g>
		</g>
		<g>
			<path class="st3" d="M525.8,1434.4L525.8,1434.4c0-7.9,6.2-14.4,13.7-14.4h310.4c3.8,0,7.2,1.4,9.6,4.1c2.4,2.7,4.1,6.5,4.1,10.3
				v58c0,7.9-6.2,14.4-13.7,14.4H539.5c-7.5,0-13.7-6.5-13.7-14.4V1434.4z"/>
		</g>
		<g>
			<g>
				<path class="st2" d="M849.9,1510.2H539.5c-9.5,0-17.1-8-17.1-17.8v-58c0-9.8,7.7-17.8,17.1-17.8h310.4c4.9,0,9.2,1.9,12.2,5.3
					c3.2,3.6,5,8.2,5,12.6v58C867.1,1502.2,859.4,1510.2,849.9,1510.2z M539.5,1423.4c-5.7,0-10.3,4.9-10.3,11v58
					c0,6.1,4.6,11,10.3,11h310.4c5.7,0,10.3-4.9,10.3-11v-58c0-2.7-1.2-5.7-3.3-8c-2.1-2.4-5-2.9-7-2.9H539.5z"/>
			</g>
		</g>
		<g>
			<path class="st3" d="M525.8,1579.2L525.8,1579.2c0-7.9,6.2-14.4,13.7-14.4h310.4c3.8,0,7.2,1.4,9.6,4.1s4.1,6.5,4.1,10.3v58
				c0,7.9-6.2,14.4-13.7,14.4H539.5c-7.5,0-13.7-6.5-13.7-14.4V1579.2z"/>
		</g>
		<g>
			<g>
				<path class="st2" d="M849.9,1655H539.5c-9.5,0-17.1-8-17.1-17.8v-58c0-9.8,7.7-17.8,17.1-17.8h310.4c4.9,0,9.2,1.9,12.2,5.3
					c3.2,3.6,5,8.2,5,12.6v58C867.1,1647,859.4,1655,849.9,1655z M539.5,1568.2c-5.7,0-10.3,4.9-10.3,11v58c0,6.1,4.6,11,10.3,11
					h310.4c5.7,0,10.3-4.9,10.3-11v-58c0-2.7-1.2-5.7-3.3-8c-2.1-2.4-5-2.9-7-2.9H539.5z"/>
			</g>
		</g>
		<g>
			<g>
				<path class="st3" d="M1278.5,1579.2L1278.5,1579.2c0-7.9,6.2-14.4,13.7-14.4h310.4c3.8,0,7.2,1.4,9.6,4.1
					c2.7,2.7,4.1,6.5,4.1,10.3v58c0,7.9-6.2,14.4-13.7,14.4h-310.4c-7.5,0-13.7-6.5-13.7-14.4V1579.2z"/>
			</g>
		</g>
		<g>
			<g>
				<g>
					<path class="st2" d="M1602.6,1655h-310.4c-9.5,0-17.1-8-17.1-17.8v-58c0-9.8,7.7-17.8,17.1-17.8h310.4c4.9,0,9.2,1.9,12.2,5.3
						c3.1,3.1,5,7.7,5,12.6v58C1619.8,1647,1612.1,1655,1602.6,1655z M1292.2,1568.2c-5.7,0-10.3,4.9-10.3,11v58
						c0,6.1,4.6,11,10.3,11h310.4c5.7,0,10.3-4.9,10.3-11v-58c0-3-1.1-5.9-3.1-7.9c-2.3-2.6-5.2-3.1-7.2-3.1H1292.2z"/>
				</g>
			</g>
		</g>
		<g>
			<path class="st4" d="M525.8,1289.6L525.8,1289.6c0-7.9,6.2-14.4,13.7-14.4h310.4c3.8,0,7.2,1.4,9.6,4.1c2.4,2.7,4.1,6.5,4.1,10.3
				v58c0,7.9-6.2,14.4-13.7,14.4H539.5c-7.5,0-13.7-6.5-13.7-14.4V1289.6z"/>
		</g>
		<g>
			<g>
				<path class="st2" d="M849.9,1365.4H539.5c-9.5,0-17.1-8-17.1-17.8v-58c0-9.8,7.7-17.8,17.1-17.8h310.4c4.9,0,9.2,1.9,12.2,5.3
					c3.2,3.6,5,8.2,5,12.6v58C867.1,1357.4,859.4,1365.4,849.9,1365.4z M539.5,1278.6c-5.7,0-10.3,4.9-10.3,11v58
					c0,6.1,4.6,11,10.3,11h310.4c5.7,0,10.3-4.9,10.3-11v-58c0-2.7-1.2-5.7-3.3-8c-2.1-2.4-5-2.9-7-2.9H539.5z"/>
			</g>
		</g>
		<g>
			<g>
				<path class="st1" d="M2031.2,2013.2L2031.2,2013.2c0-7.9,6.2-14.4,13.7-14.4h310.4c3.8,0,7.2,1.4,9.6,4.1
					c2.4,2.7,4.1,6.5,4.1,10.3v58c0,7.9-6.2,14.4-13.7,14.4h-310.4c-7.5,0-13.7-6.5-13.7-14.4V2013.2z"/>
			</g>
		</g>
		<g>
			<g>
				<g>
					<path class="st2" d="M2355.3,2089h-310.4c-9.5,0-17.1-8-17.1-17.8v-58c0-9.8,7.7-17.8,17.1-17.8h310.4c4.9,0,9.2,1.9,12.2,5.3
						c3.2,3.6,5,8.2,5,12.6v58C2372.5,2081,2364.8,2089,2355.3,2089z M2044.9,2002.2c-5.7,0-10.3,4.9-10.3,11v58
						c0,6.1,4.6,11,10.3,11h310.4c5.7,0,10.3-4.9,10.3-11v-58c0-2.7-1.2-5.7-3.3-8c-2.1-2.4-5-2.9-7-2.9H2044.9z"/>
				</g>
			</g>
		</g>
		<g>
			<g>
				<path class="st1" d="M2031.2,1723.6L2031.2,1723.6c0-7.9,6.2-14.4,13.7-14.4h310.4c3.8,0,7.2,1.4,9.6,4.1
					c2.4,2.7,4.1,6.5,4.1,10.3v58c0,7.9-6.2,14.4-13.7,14.4h-310.4c-7.5,0-13.7-6.5-13.7-14.4V1723.6z"/>
			</g>
		</g>
		<g>
			<g>
				<g>
					<path class="st2" d="M2355.3,1799.4h-310.4c-9.5,0-17.1-8-17.1-17.8v-58c0-9.8,7.7-17.8,17.1-17.8h310.4
						c4.9,0,9.2,1.9,12.2,5.3c3.2,3.6,5,8.2,5,12.6v58C2372.5,1791.4,2364.8,1799.4,2355.3,1799.4z M2044.9,1712.6
						c-5.7,0-10.3,4.9-10.3,11v58c0,6.1,4.6,11,10.3,11h310.4c5.7,0,10.3-4.9,10.3-11v-58c0-2.7-1.2-5.7-3.3-8c-2.1-2.4-5-2.9-7-2.9
						H2044.9z"/>
				</g>
			</g>
		</g>
		<g>
			<g>
				<path class="st1" d="M2031.2,1868.4L2031.2,1868.4c0-7.9,6.2-14.4,13.7-14.4h310.4c3.8,0,7.2,1.4,9.6,4.1
					c2.4,2.7,4.1,6.5,4.1,10.3v58c0,7.9-6.2,14.4-13.7,14.4h-310.4c-7.5,0-13.7-6.5-13.7-14.4V1868.4z"/>
			</g>
		</g>
		<g>
			<g>
				<g>
					<path class="st2" d="M2355.3,1944.2h-310.4c-9.5,0-17.1-8-17.1-17.8v-58c0-9.8,7.7-17.8,17.1-17.8h310.4
						c4.9,0,9.2,1.9,12.2,5.3c3.2,3.6,5,8.2,5,12.6v58C2372.5,1936.2,2364.8,1944.2,2355.3,1944.2z M2044.9,1857.4
						c-5.7,0-10.3,4.9-10.3,11v58c0,6.1,4.6,11,10.3,11h310.4c5.7,0,10.3-4.9,10.3-11v-58c0-2.7-1.2-5.7-3.3-8c-2.1-2.4-5-2.9-7-2.9
						H2044.9z"/>
				</g>
			</g>
		</g>
		<g id="g740b4d8832_0_0.22_4_">
			<g>
				<path class="st3" d="M2031.2,1434.4L2031.2,1434.4c0-7.9,6.2-14.4,13.7-14.4h310.4c3.8,0,7.2,1.4,9.6,4.1
					c2.4,2.7,4.1,6.5,4.1,10.3v58c0,7.9-6.2,14.4-13.7,14.4h-310.4c-7.5,0-13.7-6.5-13.7-14.4V1434.4z"/>
			</g>
			<g>
				<path class="st2" d="M2355.3,1510.2h-310.4c-9.5,0-17.1-8-17.1-17.8v-58c0-9.8,7.7-17.8,17.1-17.8h310.4c4.9,0,9.2,1.9,12.2,5.3
					c3.2,3.6,5,8.2,5,12.6v58C2372.5,1502.2,2364.8,1510.2,2355.3,1510.2z M2044.9,1423.4c-5.7,0-10.3,4.9-10.3,11v58
					c0,6.1,4.6,11,10.3,11h310.4c5.7,0,10.3-4.9,10.3-11v-58c0-2.7-1.2-5.7-3.3-8c-2.1-2.4-5-2.9-7-2.9H2044.9z"/>
			</g>
		</g>
		<g>
			<g>
				<path class="st3" d="M2031.2,1579.2L2031.2,1579.2c0-7.9,6.2-14.4,13.7-14.4h310.4c3.8,0,7.2,1.4,9.6,4.1
					c2.4,2.7,4.1,6.5,4.1,10.3v58c0,7.9-6.2,14.4-13.7,14.4h-310.4c-7.5,0-13.7-6.5-13.7-14.4V1579.2z"/>
			</g>
		</g>
		<g>
			<g>
				<path class="st2" d="M2355.3,1655h-310.4c-9.5,0-17.1-8-17.1-17.8v-58c0-9.8,7.7-17.8,17.1-17.8h310.4c4.9,0,9.2,1.9,12.2,5.3
					c3.2,3.6,5,8.2,5,12.6v58C2372.5,1647,2364.8,1655,2355.3,1655z M2044.9,1568.2c-5.7,0-10.3,4.9-10.3,11v58
					c0,6.1,4.6,11,10.3,11h310.4c5.7,0,10.3-4.9,10.3-11v-58c0-2.7-1.2-5.7-3.3-8c-2.1-2.4-5-2.9-7-2.9H2044.9z"/>
			</g>
		</g>
		<g>
			<g transform="matrix(1.0 0.0 0.0 1.0 1.0 0.0)">
				<g id="g740b4d8832_0_0.24_5_">
					<g>
						<path class="st5" d="M693.2,1047.1c-6.5,0-11-1.7-13-5.1c-2.1-3.4-3.4-7.9-3.4-13l5.1-61.8c-7.2,12.7-14.7,24.4-23,34.7
							c-8.2,10.3-17.1,19.2-26.4,26.4c-9.3,7.2-18.9,13-28.5,17.2c-9.9,4.1-19.9,6.2-30.2,6.2c-24,0-42.9-9.3-55.9-27.8
							c-13.4-18.5-19.9-45.3-19.9-80.6c0-16.1,1.7-31.9,4.8-48c3.1-16.1,7.5-31.2,13.4-46c5.8-14.8,13-28.1,21.3-40.8
							c8.2-12.7,17.5-23.7,27.4-32.6c9.9-9.3,20.9-16.5,32.9-21.6c12-5.1,24.4-7.9,37.4-7.9c13.7,0,26.4,2.7,37.7,8.6
							s20.9,13.7,29.2,24.4l19.2-163.3H770l-51.1,431.2H693.2z M592.4,1009.3c8.9,0,17.8-2.7,26.8-8.6s17.8-13.7,26.1-24
							c8.6-10.3,16.5-22.6,23.7-36.7c7.2-14.1,13.7-29.5,18.9-46.3l9.3-78.6c-7.2-10.3-15.4-17.8-25.4-22
							c-9.9-4.5-19.6-6.5-29.8-6.5c-14.7,0-27.8,4.5-39.4,13.7c-11.7,9.3-21.6,20.9-30.2,35.7c-8.2,14.4-14.4,30.9-18.9,48.7
							c-4.5,17.8-6.5,35.7-6.5,53.2c0,23.3,4.1,41.2,12,53.2C567,1003.2,578,1009.3,592.4,1009.3z M797.5,1047.1l49.4-431.9h48.7
							l-24.4,210c7.2-12,14.7-23,22.6-32.6c8.2-9.9,16.8-18.2,25.7-25c8.9-6.9,18.2-12,27.8-16.1c9.6-3.8,19.6-5.8,29.5-5.8
							c24,0,42.5,9.3,55.9,27.4c13.4,18.5,19.9,45.3,19.9,80.6c0,16.1-1.7,31.9-4.8,48s-7.5,31.2-13.4,46
							c-5.8,14.4-13,28.1-21.3,40.8c-8.2,12.7-17.5,23.7-27.4,32.9c-9.9,9.3-20.9,16.5-32.9,22c-12,5.1-24.4,7.9-37.4,7.9
							c-15.1,0-28.5-3.4-40.8-9.9c-12-6.5-22-16.1-29.8-28.5L841,1032c-1.4,5.1-3.4,8.9-5.8,11.3c-2.4,2.4-6.2,3.8-11.7,3.8H797.5z
							 M958,787.7c-8.9,0-17.8,3.1-27.1,8.9c-8.9,5.8-17.8,14.1-26.4,24.4c-8.6,10.3-16.5,22.6-23.7,37.1
							c-7.5,14.4-13.7,29.8-19.2,47l-8.9,77.2c7.2,10.6,15.4,18.2,25.4,22.3c9.9,4.5,19.9,6.5,30.2,6.5c9.6,0,18.9-2.1,27.1-6.5
							c8.6-4.5,16.5-10.3,23.3-17.5c7.2-7.2,13.4-15.8,18.9-25.7c5.5-9.9,10.3-20.6,14.1-31.6c3.8-11.3,6.9-23,8.6-35
							c2.1-12,3.1-24,3.1-35.7c0-23.3-4.1-40.8-12-53.2C983.7,793.9,972.8,787.7,958,787.7z"/>
					</g>
					<g>
						<path class="st5" d="M1107.9,1147.6V750.3h29.5c7.2,0,11.7,3.8,13.4,11l4.1,35.3c12-15.4,25.7-27.8,41.2-37.4
							c15.4-9.3,33.3-14.1,53.5-14.1c16.1,0,30.9,3.4,43.9,9.9s24.4,16.1,33.6,29.2c9.3,12.7,16.5,28.8,21.3,47.7
							c5.1,18.9,7.5,40.8,7.5,65.5c0,22-2.7,42.2-8.2,61.1s-13.4,35.3-24,49.1c-10.3,13.7-23,24.7-38.1,32.6
							c-15.1,7.9-32.2,12-51.1,12c-17.5,0-32.2-3.1-44.6-8.9c-12.3-6.2-23.3-14.8-32.6-25.7V1149h-49.4L1107.9,1147.6L1107.9,1147.6
							z M1233.1,787c-16.1,0-30.2,3.8-42.5,11.7c-12,7.9-23.3,18.9-33.6,33.3v143.7c8.9,13,18.9,22,29.8,27.1
							c11,5.1,23,7.9,36.4,7.9c26.1,0,46.3-9.9,60.4-29.5c14.1-19.9,21.3-48,21.3-84.4c0-19.2-1.7-36-4.8-49.7s-7.9-25.4-14.1-34.3
							c-6.2-8.9-13.7-15.4-22.6-19.6C1254.7,789.1,1244.4,787,1233.1,787z M1469.8,615.1v431.9h-49.4V615.1H1469.8z M1670.7,745.5
							c20.6,0,39.1,3.8,55.6,11c16.5,7.2,30.5,17.5,42.2,30.9c11.7,13.4,20.6,29.5,26.8,48.4c6.2,18.9,9.3,39.8,9.3,63.1
							c0,23.3-3.1,44.6-9.3,63.5c-6.2,18.9-15.1,34.7-26.8,48c-11.7,13.4-25.7,23.3-42.2,30.5c-16.5,7.2-35,10.6-55.6,10.6
							s-39.1-3.4-55.6-10.6c-16.5-7.2-30.5-17.5-42.5-30.5c-11.7-13.4-20.6-29.2-27.1-48c-6.2-18.9-9.6-39.8-9.6-63.5
							c0-23.3,3.1-44.3,9.6-63.1c6.2-18.9,15.4-35,27.1-48.4c11.7-13.4,25.7-23.7,42.5-30.9C1631.6,748.9,1650.2,745.5,1670.7,745.5
							z M1670.7,1010.4c27.8,0,48.4-9.9,62.1-29.5s20.6-47,20.6-82.3c0-35.3-6.9-62.8-20.6-82.7s-34.3-29.5-62.1-29.5
							c-14.1,0-26.4,2.4-36.7,7.5c-10.3,5.1-18.9,12.4-26.1,22c-6.9,9.6-12,21.3-15.4,35.3s-5.1,29.8-5.1,47.3
							c0,17.5,1.7,33.3,5.1,47.3s8.6,25.4,15.4,35c6.9,9.6,15.4,16.8,26.1,22C1644.7,1008,1656.7,1010.4,1670.7,1010.4z
							 M1951.3,1051.9c-22.3,0-39.4-6.5-51.4-19.6s-17.8-31.9-17.8-56.6V793.9h-34c-3.1,0-5.5-1-7.5-2.7c-2.1-1.7-3.1-4.8-3.1-8.6
							v-20.9l46-6.2l11.3-91.6c0.3-3.1,1.7-5.5,3.8-7.2c2.1-1.7,4.8-2.7,7.9-2.7h25v102.2h80.6v37.7h-80.6v178.4
							c0,12.4,2.7,22,8.6,27.8c5.8,6.2,13,8.9,22.3,8.9c5.1,0,9.6-0.7,13.4-2.1c3.8-1.4,7.2-3.1,9.9-4.8c2.7-1.7,5.1-3.4,7.2-4.8
							c2.1-1.4,3.8-2.1,5.1-2.1c2.7,0,4.8,1.7,6.9,5.1l14.4,25c-8.6,8.2-18.9,15.1-30.9,19.9
							C1976.4,1049.5,1964,1051.9,1951.3,1051.9z"/>
					</g>
				</g>
			</g>
		</g>
		<g id="g740b4d8832_0_0.24_4_">
			<g>
				<path class="st5" d="M689.8,1047.1c-6.5,0-11-1.7-13-5.1c-2.1-3.4-3.4-7.9-3.4-13l5.1-61.8c-7.2,12.7-14.7,24.4-23,34.7
					c-8.2,10.3-17.1,19.2-26.4,26.4c-9.3,7.2-18.9,13-28.5,17.2c-9.9,4.1-19.9,6.2-30.2,6.2c-24,0-42.9-9.3-55.9-27.8
					c-13.4-18.5-19.9-45.3-19.9-80.6c0-16.1,1.7-31.9,4.8-48c3.1-16.1,7.5-31.2,13.4-46c5.8-14.8,13-28.1,21.3-40.8
					c8.2-12.7,17.5-23.7,27.4-32.6c9.9-9.3,20.9-16.5,32.9-21.6c12-5.1,24.4-7.9,37.4-7.9c13.7,0,26.4,2.7,37.7,8.6
					s20.9,13.7,29.2,24.4l19.2-163.3h48.7l-50.4,431.9h-26.4L689.8,1047.1L689.8,1047.1z M588.9,1009.3c8.9,0,17.8-2.7,26.8-8.6
					s17.8-13.7,26.1-24c8.6-10.3,16.5-22.6,23.7-36.7c7.2-14.1,13.7-29.5,18.9-46.3l9.3-78.6c-7.2-10.3-15.4-17.8-25.4-22
					c-9.9-4.5-19.6-6.5-29.8-6.5c-14.7,0-27.8,4.5-39.4,13.7c-11.7,9.3-21.6,20.9-30.2,35.7c-8.2,14.4-14.4,30.9-18.9,48.7
					c-4.5,17.8-6.5,35.7-6.5,53.2c0,23.3,4.1,41.2,12,53.2C563.2,1003.2,574.5,1009.3,588.9,1009.3z M794,1047.1l49.4-431.9h48.7
					l-24.4,210c7.2-12,14.7-23,22.6-32.6c8.2-9.9,16.8-18.2,25.7-25s18.2-12,27.8-16.1c9.6-3.8,19.6-5.8,29.5-5.8
					c24,0,42.5,9.3,55.9,27.4c13.4,18.5,19.9,45.3,19.9,80.6c0,16.1-1.7,31.9-4.8,48c-3.1,16.1-7.5,31.2-13.4,46
					c-5.8,14.4-13,28.1-21.3,40.8c-8.2,12.7-17.5,23.7-27.4,32.9s-20.9,16.5-32.9,22c-12,5.1-24.4,7.9-37.4,7.9
					c-15.1,0-28.5-3.4-40.8-9.9c-12-6.5-22-16.1-29.8-28.5l-3.8,19.2c-1.4,5.1-3.4,8.9-5.8,11.3s-6.2,3.8-11.7,3.8L794,1047.1
					L794,1047.1z M954.6,787.7c-8.9,0-17.8,3.1-27.1,8.9c-8.9,5.8-17.8,14.1-26.4,24.4c-8.6,10.3-16.5,22.6-23.7,37.1
					c-7.5,14.4-13.7,29.8-19.2,47l-8.9,77.2c7.2,10.6,15.4,18.2,25.4,22.3c9.9,4.5,19.9,6.5,30.2,6.5c9.6,0,18.9-2.1,27.1-6.5
					c8.6-4.5,16.5-10.3,23.3-17.5c7.2-7.2,13.4-15.8,18.9-25.7c5.5-9.9,10.3-20.6,14.1-31.6c3.8-11.3,6.9-23,8.6-35
					c2.1-12,3.1-24,3.1-35.7c0-23.3-4.1-40.8-12-53.2C980.3,793.9,969,787.7,954.6,787.7z"/>
			</g>
			<g>
				<path class="st5" d="M1104.4,1147.6V750.3h29.5c7.2,0,11.7,3.8,13.4,11l4.1,35.3c12-15.4,25.7-27.8,41.2-37.4
					c15.4-9.3,33.3-14.1,53.5-14.1c16.1,0,30.9,3.4,43.9,9.9s24.4,16.1,33.6,29.2c9.3,12.7,16.5,28.8,21.3,47.7
					c5.1,18.9,7.5,40.8,7.5,65.5c0,22-2.7,42.2-8.2,61.1s-13.4,35.3-24,49.1c-10.3,13.7-23,24.7-38.1,32.6
					c-15.1,7.9-32.2,12-51.1,12c-17.5,0-32.2-3.1-44.6-8.9c-12.3-5.8-23.3-14.8-32.6-25.7V1149h-49.4L1104.4,1147.6L1104.4,1147.6z
					 M1229.6,787c-16.1,0-30.2,3.8-42.5,11.7c-12,7.9-23.3,18.9-33.6,33.3v143.7c8.9,13,18.9,22,29.8,27.1c11,5.1,23,7.9,36.4,7.9
					c26.1,0,46.3-9.9,60.4-29.5c14.1-19.9,21.3-48,21.3-84.4c0-19.2-1.7-36-4.8-49.7s-7.9-25.4-14.1-34.3
					c-6.2-8.9-13.7-15.4-22.6-19.6C1250.9,789.1,1240.9,787,1229.6,787z M1466,615.1v431.9h-49.4V615.1H1466z M1667.3,745.5
					c20.6,0,39.1,3.8,55.6,11c16.5,7.2,30.5,17.5,42.2,30.9c11.7,13.4,20.6,29.5,26.8,48.4c6.2,18.9,9.3,39.8,9.3,63.1
					c0,23.3-3.1,44.6-9.3,63.5c-6.2,18.9-15.1,34.7-26.8,48c-11.7,13.4-25.7,23.3-42.2,30.5c-16.5,7.2-35,10.6-55.6,10.6
					s-39.1-3.4-55.6-10.6c-16.5-7.2-30.5-17.5-42.5-30.5c-11.7-13.4-20.6-29.2-27.1-48c-6.2-18.9-9.6-39.8-9.6-63.5
					c0-23.3,3.1-44.3,9.6-63.1c6.2-18.9,15.4-35,27.1-48.4c11.7-13.4,25.7-23.7,42.5-30.9C1628.2,748.9,1646.7,745.5,1667.3,745.5z
					 M1667.3,1010.4c27.8,0,48.4-9.9,62.1-29.5s20.6-47,20.6-82.3c0-35.3-6.9-62.8-20.6-82.7s-34.3-29.5-62.1-29.5
					c-14.1,0-26.4,2.4-36.7,7.5c-10.3,5.1-18.9,12.4-26.1,22c-6.9,9.6-12,21.3-15.4,35.3s-5.1,29.8-5.1,47.3
					c0,17.5,1.7,33.3,5.1,47.3s8.6,25.4,15.4,35c6.9,9.6,15.4,16.8,26.1,22C1640.9,1008,1653.2,1010.4,1667.3,1010.4z
					 M1947.5,1051.9c-22.3,0-39.4-6.5-51.4-19.6s-17.8-31.9-17.8-56.6V793.9h-34c-3.1,0-5.5-1-7.5-2.7c-2.1-1.7-3.1-4.8-3.1-8.6
					v-20.9l46-6.2l11.3-91.6c0.3-3.1,1.7-5.5,3.8-7.2c2.1-1.7,4.8-2.7,7.9-2.7h25v102.2h80.6v37.7h-80.6v178.4
					c0,12.4,2.7,22,8.6,27.8c5.8,6.2,13,8.9,22.3,8.9c5.1,0,9.6-0.7,13.4-2.1c3.8-1.4,7.2-3.1,9.9-4.8c2.7-1.7,5.1-3.4,7.2-4.8
					c2.1-1.4,3.8-2.1,5.1-2.1c2.7,0,4.8,1.7,6.9,5.1l14.4,25c-8.6,8.2-18.9,15.1-30.9,19.9
					C1972.9,1049.5,1960.2,1051.9,1947.5,1051.9z"/>
			</g>
		</g>
		<g>
			<g>
				<path class="st6" d="M1654.5,1723.6L1654.5,1723.6c0-7.9,6.2-14.4,13.7-14.4h310.4c3.8,0,7.2,1.4,9.6,4.1
					c2.4,2.7,4.1,6.5,4.1,10.3v58c0,7.9-6.2,14.4-13.7,14.4h-310.4c-7.5,0-13.7-6.5-13.7-14.4V1723.6z"/>
			</g>
		</g>
		<g>
			<g>
				<path class="st2" d="M1978.6,1799.4h-310.4c-9.5,0-17.1-8-17.1-17.8v-58c0-9.8,7.7-17.8,17.1-17.8h310.4c4.9,0,9.2,1.9,12.2,5.3
					c3.2,3.6,5,8.2,5,12.6v58C1995.7,1791.4,1988,1799.4,1978.6,1799.4z M1668.2,1712.6c-5.7,0-10.3,4.9-10.3,11v58
					c0,6.1,4.6,11,10.3,11h310.4c5.7,0,10.3-4.9,10.3-11v-58c0-2.7-1.2-5.7-3.3-8c-2.1-2.4-5-2.9-7-2.9H1668.2z"/>
			</g>
		</g>
		<g>
			<g>
				<path class="st6" d="M901.8,1868.4L901.8,1868.4c0-7.9,6.2-14.4,13.7-14.4H1226c3.8,0,7.2,1.4,9.6,4.1c2.7,2.7,4.1,6.5,4.1,10.3
					v58c0,7.9-6.2,14.4-13.7,14.4H915.6c-7.5,0-13.7-6.5-13.7-14.4V1868.4z"/>
			</g>
		</g>
		<g>
			<g>
				<path class="st2" d="M1226,1944.2H915.6c-9.5,0-17.1-8-17.1-17.8v-58c0-9.8,7.7-17.8,17.1-17.8H1226c4.9,0,9.2,1.9,12.2,5.3
					c3.1,3.1,5,7.7,5,12.6v58C1243.1,1936.2,1235.4,1944.2,1226,1944.2z M915.6,1857.4c-5.7,0-10.3,4.9-10.3,11v58
					c0,6.1,4.6,11,10.3,11H1226c5.7,0,10.3-4.9,10.3-11v-58c0-3-1.1-5.9-3.1-7.9c-2.3-2.6-5.1-3.1-7.2-3.1H915.6z"/>
			</g>
		</g>
		<g>
			<g>
				<path class="st6" d="M901.8,1723.6L901.8,1723.6c0-7.9,6.2-14.4,13.7-14.4H1226c3.8,0,7.2,1.4,9.6,4.1c2.7,2.7,4.1,6.5,4.1,10.3
					v58c0,7.9-6.2,14.4-13.7,14.4H915.6c-7.5,0-13.7-6.5-13.7-14.4V1723.6z"/>
			</g>
		</g>
		<g>
			<g>
				<path class="st2" d="M1226,1799.4H915.6c-9.5,0-17.1-8-17.1-17.8v-58c0-9.8,7.7-17.8,17.1-17.8H1226c4.9,0,9.2,1.9,12.2,5.3
					c3.1,3.1,5,7.7,5,12.6v58C1243.1,1791.4,1235.4,1799.4,1226,1799.4z M915.6,1712.6c-5.7,0-10.3,4.9-10.3,11v58
					c0,6.1,4.6,11,10.3,11H1226c5.7,0,10.3-4.9,10.3-11v-58c0-3-1.1-5.9-3.1-7.9c-2.3-2.6-5.1-3.1-7.2-3.1H915.6z"/>
			</g>
		</g>
		<g>
			<g>
				<path class="st7" d="M1654.5,1569.2L1654.5,1569.2c0-7.9,6.2-14.4,13.7-14.4h310.4c3.8,0,7.2,1.4,9.6,4.1
					c2.4,2.7,4.1,6.5,4.1,10.3v58c0,7.9-6.2,14.4-13.7,14.4h-310.4c-7.5,0-13.7-6.5-13.7-14.4V1569.2z"/>
			</g>
		</g>
		<g>
			<g>
				<path class="st2" d="M1978.6,1645h-310.4c-9.5,0-17.1-8-17.1-17.8v-58c0-9.8,7.7-17.8,17.1-17.8h310.4c4.9,0,9.2,1.9,12.2,5.3
					c3.2,3.6,5,8.2,5,12.6v58C1995.7,1637,1988,1645,1978.6,1645z M1668.2,1558.3c-5.7,0-10.3,4.9-10.3,11v58c0,6.1,4.6,11,10.3,11
					h310.4c5.7,0,10.3-4.9,10.3-11v-58c0-2.7-1.2-5.7-3.3-8c-2.1-2.4-5-2.9-7-2.9H1668.2z"/>
			</g>
		</g>
		<g>
			<g>
				<path class="st7" d="M901.8,1579.2L901.8,1579.2c0-7.9,6.2-14.4,13.7-14.4H1226c3.8,0,7.2,1.4,9.6,4.1c2.7,2.7,4.1,6.5,4.1,10.3
					v58c0,7.9-6.2,14.4-13.7,14.4H915.6c-7.5,0-13.7-6.5-13.7-14.4V1579.2z"/>
			</g>
		</g>
		<g>
			<g>
				<path class="st2" d="M1226,1655H915.6c-9.5,0-17.1-8-17.1-17.8v-58c0-9.8,7.7-17.8,17.1-17.8H1226c4.9,0,9.2,1.9,12.2,5.3
					c3.1,3.1,5,7.7,5,12.6v58C1243.1,1647,1235.4,1655,1226,1655z M915.6,1568.2c-5.7,0-10.3,4.9-10.3,11v58c0,6.1,4.6,11,10.3,11
					H1226c5.7,0,10.3-4.9,10.3-11v-58c0-3-1.1-5.9-3.1-7.9c-2.3-2.6-5.1-3.1-7.2-3.1H915.6z"/>
			</g>
		</g>
		<g>
			<g>
				<path class="st7" d="M149.7,1569.2L149.7,1569.2c0-7.9,6.2-14.4,13.7-14.4h310.4c3.8,0,7.2,1.4,9.6,4.1
					c2.7,2.7,4.1,6.5,4.1,10.3v58c0,7.9-6.2,14.4-13.7,14.4H163.4c-7.5,0-13.7-6.5-13.7-14.4V1569.2z"/>
			</g>
		</g>
		<g>
			<g>
				<path class="st2" d="M473.8,1645H163.4c-9.5,0-17.1-8-17.1-17.8v-58c0-9.8,7.7-17.8,17.1-17.8h310.4c4.9,0,9.2,1.9,12.2,5.3
					c3.1,3.1,5,7.7,5,12.6v58C490.9,1637,483.2,1645,473.8,1645z M163.4,1558.3c-5.7,0-10.3,4.9-10.3,11v58c0,6.1,4.6,11,10.3,11
					h310.4c5.7,0,10.3-4.9,10.3-11v-58c0-3-1.1-5.9-3.1-7.9c-2.3-2.6-5.1-3.1-7.2-3.1H163.4z"/>
			</g>
		</g>
		<g>
			<g>
				<path class="st7" d="M1654.5,1434.4L1654.5,1434.4c0-7.9,6.2-14.4,13.7-14.4h310.4c3.8,0,7.2,1.4,9.6,4.1
					c2.4,2.7,4.1,6.5,4.1,10.3v58c0,7.9-6.2,14.4-13.7,14.4h-310.4c-7.5,0-13.7-6.5-13.7-14.4V1434.4z"/>
			</g>
		</g>
		<g>
			<g>
				<path class="st2" d="M1978.6,1510.2h-310.4c-9.5,0-17.1-8-17.1-17.8v-58c0-9.8,7.7-17.8,17.1-17.8h310.4c4.9,0,9.2,1.9,12.2,5.3
					c3.2,3.6,5,8.2,5,12.6v58C1995.7,1502.2,1988,1510.2,1978.6,1510.2z M1668.2,1423.4c-5.7,0-10.3,4.9-10.3,11v58
					c0,6.1,4.6,11,10.3,11h310.4c5.7,0,10.3-4.9,10.3-11v-58c0-2.7-1.2-5.7-3.3-8c-2.1-2.4-5-2.9-7-2.9H1668.2z"/>
			</g>
		</g>
		<g>
			<g>
				<path class="st7" d="M1278.5,1434.4L1278.5,1434.4c0-7.9,6.2-14.4,13.7-14.4h310.4c3.8,0,7.2,1.4,9.6,4.1
					c2.7,2.7,4.1,6.5,4.1,10.3v58c0,7.9-6.2,14.4-13.7,14.4h-310.4c-7.5,0-13.7-6.5-13.7-14.4V1434.4z"/>
			</g>
		</g>
		<g>
			<g>
				<path class="st2" d="M1602.6,1510.2h-310.4c-9.5,0-17.1-8-17.1-17.8v-58c0-9.8,7.7-17.8,17.1-17.8h310.4c4.9,0,9.2,1.9,12.2,5.3
					c3.1,3.1,5,7.7,5,12.6v58C1619.8,1502.2,1612.1,1510.2,1602.6,1510.2z M1292.2,1423.4c-5.7,0-10.3,4.9-10.3,11v58
					c0,6.1,4.6,11,10.3,11h310.4c5.7,0,10.3-4.9,10.3-11v-58c0-3-1.1-5.9-3.1-7.9c-2.3-2.6-5.2-3.1-7.2-3.1H1292.2z"/>
			</g>
		</g>
		<g>
			<g>
				<path class="st7" d="M901.8,1437.5L901.8,1437.5c0-7.9,6.2-14.4,13.7-14.4H1226c3.8,0,7.2,1.4,9.6,4.1c2.7,2.7,4.1,6.5,4.1,10.3
					v58c0,7.9-6.2,14.4-13.7,14.4H915.6c-7.5,0-13.7-6.5-13.7-14.4V1437.5z"/>
			</g>
		</g>
		<g>
			<g>
				<path class="st2" d="M1226,1513.3H915.6c-9.5,0-17.1-8-17.1-17.8v-58c0-9.8,7.7-17.8,17.1-17.8H1226c4.9,0,9.2,1.9,12.2,5.3
					c3.1,3.1,5,7.7,5,12.6v58C1243.1,1505.3,1235.4,1513.3,1226,1513.3z M915.6,1426.5c-5.7,0-10.3,4.9-10.3,11v58
					c0,6.1,4.6,11,10.3,11H1226c5.7,0,10.3-4.9,10.3-11v-58c0-3-1.1-5.9-3.1-7.9c-2.3-2.6-5.2-3.1-7.2-3.1H915.6z"/>
			</g>
		</g>
		<g>
			<g>
				<path class="st7" d="M149.7,1424.5L149.7,1424.5c0-7.9,6.2-14.4,13.7-14.4h310.4c3.8,0,7.2,1.4,9.6,4.1
					c2.7,2.7,4.1,6.5,4.1,10.3v58c0,7.9-6.2,14.4-13.7,14.4H163.4c-7.5,0-13.7-6.5-13.7-14.4V1424.5z"/>
			</g>
		</g>
		<g>
			<g>
				<path class="st2" d="M473.8,1500.3H163.4c-9.5,0-17.1-8-17.1-17.8v-58c0-9.8,7.7-17.8,17.1-17.8h310.4c4.9,0,9.2,1.9,12.2,5.3
					c3.1,3.1,5,7.7,5,12.6v58C490.9,1492.3,483.2,1500.3,473.8,1500.3z M163.4,1413.5c-5.7,0-10.3,4.9-10.3,11v58
					c0,6.1,4.6,11,10.3,11h310.4c5.7,0,10.3-4.9,10.3-11v-58c0-3-1.1-5.9-3.1-7.9c-2.3-2.6-5.1-3.1-7.2-3.1H163.4z"/>
			</g>
		</g>
		<g>
			<g>
				<path class="st8" d="M149.7,1289.6L149.7,1289.6c0-7.9,6.2-14.4,13.7-14.4h310.4c3.8,0,7.2,1.4,9.6,4.1
					c2.4,2.7,4.1,6.5,4.1,10.3v58c0,7.9-6.2,14.4-13.7,14.4H163.4c-7.5,0-13.7-6.5-13.7-14.4V1289.6z"/>
			</g>
		</g>
		<g>
			<g>
				<path class="st2" d="M473.8,1365.4H163.4c-9.5,0-17.1-8-17.1-17.8v-58c0-9.8,7.7-17.8,17.1-17.8h310.4c4.9,0,9.2,1.9,12.2,5.3
					c3.2,3.6,5,8.2,5,12.6v58C490.9,1357.4,483.2,1365.4,473.8,1365.4z M163.4,1278.6c-5.7,0-10.3,4.9-10.3,11v58
					c0,6.1,4.6,11,10.3,11h310.4c5.7,0,10.3-4.9,10.3-11v-58c0-2.7-1.2-5.7-3.3-8c-2.1-2.4-5-2.9-7-2.9H163.4z"/>
			</g>
		</g>
		<g>
			<g>
				<path class="st8" d="M901.8,1289.6L901.8,1289.6c0-7.9,6.2-14.4,13.7-14.4H1226c3.8,0,7.2,1.4,9.6,4.1c2.4,2.7,4.1,6.5,4.1,10.3
					v58c0,7.9-6.2,14.4-13.7,14.4H915.6c-7.5,0-13.7-6.5-13.7-14.4V1289.6z"/>
			</g>
		</g>
		<g>
			<g>
				<path class="st2" d="M1226,1365.4H915.6c-9.5,0-17.1-8-17.1-17.8v-58c0-9.8,7.7-17.8,17.1-17.8H1226c4.9,0,9.2,1.9,12.2,5.3
					c3.2,3.6,5,8.2,5,12.6v58C1243.1,1357.4,1235.4,1365.4,1226,1365.4z M915.6,1278.6c-5.7,0-10.3,4.9-10.3,11v58
					c0,6.1,4.6,11,10.3,11H1226c5.7,0,10.3-4.9,10.3-11v-58c0-2.7-1.2-5.7-3.3-8c-2.1-2.4-5-2.9-7-2.9H915.6z"/>
			</g>
		</g>
		<g>
			<g>
				<path class="st8" d="M1278.5,1289.6L1278.5,1289.6c0-7.9,6.2-14.4,13.7-14.4h310.4c3.8,0,7.2,1.4,9.6,4.1
					c2.7,2.7,4.1,6.5,4.1,10.3v58c0,7.9-6.2,14.4-13.7,14.4h-310.4c-7.5,0-13.7-6.5-13.7-14.4V1289.6z"/>
			</g>
		</g>
		<g>
			<g>
				<path class="st2" d="M1602.6,1365.4h-310.4c-9.5,0-17.1-8-17.1-17.8v-58c0-9.8,7.7-17.8,17.1-17.8h310.4c4.9,0,9.2,1.9,12.2,5.3
					c3.1,3.1,5,7.7,5,12.6v58C1619.8,1357.4,1612.1,1365.4,1602.6,1365.4z M1292.2,1278.6c-5.7,0-10.3,4.9-10.3,11v58
					c0,6.1,4.6,11,10.3,11h310.4c5.7,0,10.3-4.9,10.3-11v-58c0-3-1.1-5.9-3.1-7.9c-2.3-2.6-5.1-3.1-7.2-3.1H1292.2z"/>
			</g>
		</g>
		<g>
			<g>
				<path class="st8" d="M1278.5,1289.6L1278.5,1289.6c0-7.9,6.2-14.4,13.7-14.4h310.4c3.8,0,7.2,1.4,9.6,4.1
					c2.4,2.7,4.1,6.5,4.1,10.3v58c0,7.9-6.2,14.4-13.7,14.4h-310.4c-7.5,0-13.7-6.5-13.7-14.4V1289.6z"/>
			</g>
		</g>
		<g>
			<g>
				<path class="st2" d="M1602.6,1365.4h-310.4c-9.5,0-17.1-8-17.1-17.8v-58c0-9.8,7.7-17.8,17.1-17.8h310.4c4.9,0,9.2,1.9,12.2,5.3
					c3.2,3.6,5,8.2,5,12.6v58C1619.8,1357.4,1612.1,1365.4,1602.6,1365.4z M1292.2,1278.6c-5.7,0-10.3,4.9-10.3,11v58
					c0,6.1,4.6,11,10.3,11h310.4c5.7,0,10.3-4.9,10.3-11v-58c0-2.7-1.2-5.7-3.3-8c-2.1-2.4-5-2.9-7-2.9H1292.2z"/>
			</g>
		</g>
		<g>
			<g>
				<path class="st8" d="M1654.5,1289.6L1654.5,1289.6c0-7.9,6.2-14.4,13.7-14.4h310.4c3.8,0,7.2,1.4,9.6,4.1
					c2.7,2.7,4.1,6.5,4.1,10.3v58c0,7.9-6.2,14.4-13.7,14.4h-310.4c-7.5,0-13.7-6.5-13.7-14.4V1289.6z"/>
			</g>
		</g>
		<g>
			<g>
				<path class="st2" d="M1978.6,1365.4h-310.4c-9.5,0-17.1-8-17.1-17.8v-58c0-9.8,7.7-17.8,17.1-17.8h310.4c4.9,0,9.2,1.9,12.2,5.3
					c3.1,3.1,5,7.7,5,12.6v58C1995.7,1357.4,1988,1365.4,1978.6,1365.4z M1668.2,1278.6c-5.7,0-10.3,4.9-10.3,11v58
					c0,6.1,4.6,11,10.3,11h310.4c5.7,0,10.3-4.9,10.3-11v-58c0-3-1.1-5.9-3.1-7.9c-2.3-2.6-5.2-3.1-7.2-3.1H1668.2z"/>
			</g>
		</g>
		<g>
			<g>
				<path class="st8" d="M1654.5,1289.6L1654.5,1289.6c0-7.9,6.2-14.4,13.7-14.4h310.4c3.8,0,7.2,1.4,9.6,4.1
					c2.7,2.7,4.1,6.5,4.1,10.3v58c0,7.9-6.2,14.4-13.7,14.4h-310.4c-7.5,0-13.7-6.5-13.7-14.4V1289.6z"/>
			</g>
		</g>
		<g>
			<g>
				<path class="st2" d="M1978.6,1365.4h-310.4c-9.5,0-17.1-8-17.1-17.8v-58c0-9.8,7.7-17.8,17.1-17.8h310.4c4.9,0,9.2,1.9,12.2,5.3
					c3.1,3.1,5,7.7,5,12.6v58C1995.7,1357.4,1988,1365.4,1978.6,1365.4z M1668.2,1278.6c-5.7,0-10.3,4.9-10.3,11v58
					c0,6.1,4.6,11,10.3,11h310.4c5.7,0,10.3-4.9,10.3-11v-58c0-3-1.1-5.9-3.1-7.9c-2.3-2.6-5.2-3.1-7.2-3.1H1668.2z"/>
			</g>
		</g>
		<g>
			<g>
				<path class="st8" d="M2031.2,1289.6L2031.2,1289.6c0-7.9,6.2-14.4,13.7-14.4h310.4c3.8,0,7.2,1.4,9.6,4.1
					c2.7,2.7,4.1,6.5,4.1,10.3v58c0,7.9-6.2,14.4-13.7,14.4h-310.4c-7.5,0-13.7-6.5-13.7-14.4V1289.6z"/>
			</g>
		</g>
		<g>
			<g>
				<path class="st2" d="M2355.3,1365.4h-310.4c-9.5,0-17.1-8-17.1-17.8v-58c0-9.8,7.7-17.8,17.1-17.8h310.4c4.9,0,9.2,1.9,12.2,5.3
					c3.1,3.1,5,7.7,5,12.6v58C2372.5,1357.4,2364.8,1365.4,2355.3,1365.4z M2044.9,1278.6c-5.7,0-10.3,4.9-10.3,11v58
					c0,6.1,4.6,11,10.3,11h310.4c5.7,0,10.3-4.9,10.3-11v-58c0-3-1.1-5.9-3.1-7.9c-2.3-2.6-5.2-3.1-7.2-3.1H2044.9z"/>
			</g>
		</g>
		<g>
			<path class="st9" d="M2419.8,669.7L1467,119.4L1260.2,0l-206.8,119.4L100.5,669.7L0,727.7v1455.7l100.5,58l964.8,557.2
				l195.2,112.5l195.2-112.5l964.8-557.2l100.5-58V727.7L2419.8,669.7z M2419.8,2128.8l-1159.7,669.7L100.5,2128.8V789.1
				l1159.7-669.7l0,0l1159.7,669.7V2128.8z"/>
		</g>
	</g>
</g>
</svg>
