<?xml version="1.0" encoding="utf-8"?>
<!-- Generator: Adobe Illustrator 24.0.0, SVG Export Plug-In . SVG Version: 6.00 Build 0)  -->
<svg version="1.1" id="Layer_1" xmlns="http://www.w3.org/2000/svg" xmlns:xlink="http://www.w3.org/1999/xlink" x="0px" y="0px"
	 viewBox="0 0 735 852" style="enable-background:new 0 0 735 852;" xml:space="preserve">
<style type="text/css">
	.st0{clip-path:url(#SVGID_2_);}
	.st1{clip-path:url(#SVGID_4_);}
	.st2{fill-rule:evenodd;clip-rule:evenodd;fill-opacity:0;}
	.st3{fill-rule:evenodd;clip-rule:evenodd;fill:url(#SVGID_5_);}
	.st4{fill-rule:evenodd;clip-rule:evenodd;fill:#00FF00;}
	.st5{fill:none;stroke:#666666;stroke-width:2;stroke-linejoin:round;stroke-miterlimit:10;}
	.st6{fill-rule:evenodd;clip-rule:evenodd;fill:#FFFF00;}
	.st7{fill-rule:evenodd;clip-rule:evenodd;fill:#FF0000;}
	.st8{fill:#FFFFFF;}
	.st9{fill-rule:evenodd;clip-rule:evenodd;fill:#38761D;}
	.st10{fill-rule:evenodd;clip-rule:evenodd;fill:#7F6000;}
	.st11{fill-rule:evenodd;clip-rule:evenodd;fill:#85200C;}
	.st12{fill:#E6B35A;}
	.st13{fill:#202020;}
</style>
<g id="Layer_1_1_">
	<g>
		<g>
			<defs>
				<polygon id="SVGID_1_" points="370.5,5.4 729.2,210.7 729.2,629.3 370.5,835.9 3.8,629.3 3.8,210.7 				"/>
			</defs>
			<clipPath id="SVGID_2_">
				<use xlink:href="#SVGID_1_"  style="overflow:visible;"/>
			</clipPath>
			<g class="st0">
				<g>
					<g>
						<defs>
							<rect id="SVGID_3_" x="-27.2" y="11" width="783.2" height="807.6"/>
						</defs>
						<clipPath id="SVGID_4_">
							<use xlink:href="#SVGID_3_"  style="overflow:visible;"/>
						</clipPath>
						<g class="st1">
							<path class="st2" d="M-27.2,11H756v807.6H-27.2V11z"/>
							
								<linearGradient id="SVGID_5_" gradientUnits="userSpaceOnUse" x1="-8603.4902" y1="-2534.416" x2="-8620.8242" y2="-2534.4231" gradientTransform="matrix(0 46.7631 -46.7631 0 -118151.5234 403150.4688)">
								<stop  offset="0" style="stop-color:#000000"/>
								<stop  offset="0.11" style="stop-color:#000000"/>
								<stop  offset="0.28" style="stop-color:#2D5B16"/>
								<stop  offset="0.47" style="stop-color:#553F00"/>
								<stop  offset="0.6" style="stop-color:#000000"/>
								<stop  offset="1" style="stop-color:#000000"/>
							</linearGradient>
							<path class="st3" d="M365.8,14l370.8,195.6V619L365.8,824.6L-5,619V209.5L365.8,14z"/>
							<path d="M370.8,157.1h1.6v9.3h-1.3c-0.9-0.9-2.1-1.8-3.7-2.7c-1.5-0.9-3.1-1.6-4.7-2.1c-1.1-0.4-2.4-0.6-3.7-0.7v-1.8
								c1.1,0,2.4,0.2,3.9,0.7c1.5,0.4,3,1,4.4,1.8s2.6,1.6,3.6,2.5L370.8,157.1L370.8,157.1z"/>
							<g>
								<g transform="matrix(1.0 0.0 0.0 1.0 2.0 0.0)">
									<g id="g740b4d8832_0_0.3_5_">
										<path class="st4" d="M44.4,587.8L44.4,587.8c0-2.3,1.8-4.2,4-4.2h90.5c1.1,0,2.1,0.4,2.8,1.2s1.2,1.9,1.2,3v16.9
											c0,2.3-1.8,4.2-4,4.2H48.4c-2.2,0-4-1.9-4-4.2V587.8z"/>
										<path class="st5" d="M44.4,587.8L44.4,587.8c0-2.3,1.8-4.2,4-4.2h90.5c1.1,0,2.1,0.4,2.8,1.2s1.2,1.9,1.2,3v16.9
											c0,2.3-1.8,4.2-4,4.2H48.4c-2.2,0-4-1.9-4-4.2V587.8z"/>
									</g>
								</g>
							</g>
							<g id="g740b4d8832_0_0.3_4_">
								<path class="st4" d="M43.7,587.8L43.7,587.8c0-2.3,1.8-4.2,4-4.2h90.5c1.1,0,2.1,0.4,2.8,1.2s1.2,1.9,1.2,3v16.9
									c0,2.3-1.8,4.2-4,4.2H47.7c-2.2,0-4-1.9-4-4.2V587.8z"/>
								<path class="st5" d="M43.7,587.8L43.7,587.8c0-2.3,1.8-4.2,4-4.2h90.5c1.1,0,2.1,0.4,2.8,1.2s1.2,1.9,1.2,3v16.9
									c0,2.3-1.8,4.2-4,4.2H47.7c-2.2,0-4-1.9-4-4.2V587.8z"/>
							</g>
							<g>
								<g transform="matrix(1.0 0.0 0.0 1.0 2.0 0.0)">
									<g id="g740b4d8832_0_0.4_5_">
										<path class="st4" d="M154,587.8L154,587.8c0-2.3,1.8-4.2,4-4.2h90.5c1.1,0,2.1,0.4,2.8,1.2s1.2,1.9,1.2,3v16.9
											c0,2.3-1.8,4.2-4,4.2H158c-2.2,0-4-1.9-4-4.2V587.8z"/>
										<path class="st5" d="M154,587.8L154,587.8c0-2.3,1.8-4.2,4-4.2h90.5c1.1,0,2.1,0.4,2.8,1.2s1.2,1.9,1.2,3v16.9
											c0,2.3-1.8,4.2-4,4.2H158c-2.2,0-4-1.9-4-4.2V587.8z"/>
									</g>
								</g>
							</g>
							<g id="g740b4d8832_0_0.4_4_">
								<path class="st4" d="M153.3,587.8L153.3,587.8c0-2.3,1.8-4.2,4-4.2h90.5c1.1,0,2.1,0.4,2.8,1.2c0.8,0.8,1.2,1.9,1.2,3v16.9
									c0,2.3-1.8,4.2-4,4.2h-90.5c-2.2,0-4-1.9-4-4.2V587.8z"/>
								<path class="st5" d="M153.3,587.8L153.3,587.8c0-2.3,1.8-4.2,4-4.2h90.5c1.1,0,2.1,0.4,2.8,1.2c0.8,0.8,1.2,1.9,1.2,3v16.9
									c0,2.3-1.8,4.2-4,4.2h-90.5c-2.2,0-4-1.9-4-4.2V587.8z"/>
							</g>
							<g>
								<g transform="matrix(1.0 0.0 0.0 1.0 1.0 0.0)">
									<g id="g740b4d8832_0_0.5_5_">
										<path class="st4" d="M263.5,587.8L263.5,587.8c0-2.3,1.8-4.2,4-4.2H358c1.1,0,2.1,0.4,2.8,1.2c0.8,0.8,1.2,1.9,1.2,3v16.9
											c0,2.3-1.8,4.2-4,4.2h-90.5c-2.2,0-4-1.9-4-4.2V587.8z"/>
										<path class="st5" d="M263.5,587.8L263.5,587.8c0-2.3,1.8-4.2,4-4.2H358c1.1,0,2.1,0.4,2.8,1.2c0.8,0.8,1.2,1.9,1.2,3v16.9
											c0,2.3-1.8,4.2-4,4.2h-90.5c-2.2,0-4-1.9-4-4.2V587.8z"/>
									</g>
								</g>
							</g>
							<g id="g740b4d8832_0_0.5_4_">
								<path class="st4" d="M263.2,587.8L263.2,587.8c0-2.3,1.8-4.2,4-4.2h90.5c1.1,0,2.1,0.4,2.8,1.2c0.8,0.8,1.2,1.9,1.2,3v16.9
									c0,2.3-1.8,4.2-4,4.2h-90.5c-2.2,0-4-1.9-4-4.2V587.8z"/>
								<path class="st5" d="M263.2,587.8L263.2,587.8c0-2.3,1.8-4.2,4-4.2h90.5c1.1,0,2.1,0.4,2.8,1.2c0.8,0.8,1.2,1.9,1.2,3v16.9
									c0,2.3-1.8,4.2-4,4.2h-90.5c-2.2,0-4-1.9-4-4.2V587.8z"/>
							</g>
							<g>
								<g transform="matrix(1.0 0.0 0.0 1.0 1.0 0.0)">
									<g id="g740b4d8832_0_0.6_5_">
										<path class="st4" d="M372.7,587.8L372.7,587.8c0-2.3,1.8-4.2,4-4.2h90.5c1.1,0,2.1,0.4,2.8,1.2c0.8,0.8,1.2,1.9,1.2,3
											v16.9c0,2.3-1.8,4.2-4,4.2h-90.5c-2.2,0-4-1.9-4-4.2V587.8z"/>
										<path class="st5" d="M372.7,587.8L372.7,587.8c0-2.3,1.8-4.2,4-4.2h90.5c1.1,0,2.1,0.4,2.8,1.2c0.8,0.8,1.2,1.9,1.2,3
											v16.9c0,2.3-1.8,4.2-4,4.2h-90.5c-2.2,0-4-1.9-4-4.2V587.8z"/>
									</g>
								</g>
							</g>
							<g id="g740b4d8832_0_0.6_4_">
								<path class="st4" d="M372.4,587.8L372.4,587.8c0-2.3,1.8-4.2,4-4.2h90.5c1.1,0,2.1,0.4,2.8,1.2s1.2,1.9,1.2,3v16.9
									c0,2.3-1.8,4.2-4,4.2h-90.5c-2.2,0-4-1.9-4-4.2V587.8z"/>
								<path class="st5" d="M372.4,587.8L372.4,587.8c0-2.3,1.8-4.2,4-4.2h90.5c1.1,0,2.1,0.4,2.8,1.2s1.2,1.9,1.2,3v16.9
									c0,2.3-1.8,4.2-4,4.2h-90.5c-2.2,0-4-1.9-4-4.2V587.8z"/>
							</g>
							<g>
								<g transform="matrix(1.0 0.0 0.0 1.0 1.0 0.0)">
									<g id="g740b4d8832_0_0.7_5_">
										<path class="st4" d="M482,587.8L482,587.8c0-2.3,1.8-4.2,4-4.2h90.5c1.1,0,2.1,0.4,2.8,1.2c0.8,0.8,1.2,1.9,1.2,3v16.9
											c0,2.3-1.8,4.2-4,4.2H486c-2.2,0-4-1.9-4-4.2V587.8z"/>
										<path class="st5" d="M482,587.8L482,587.8c0-2.3,1.8-4.2,4-4.2h90.5c1.1,0,2.1,0.4,2.8,1.2c0.8,0.8,1.2,1.9,1.2,3v16.9
											c0,2.3-1.8,4.2-4,4.2H486c-2.2,0-4-1.9-4-4.2V587.8z"/>
									</g>
								</g>
							</g>
							<g id="g740b4d8832_0_0.7_4_">
								<path class="st4" d="M481.6,587.8L481.6,587.8c0-2.3,1.8-4.2,4-4.2h90.5c1.1,0,2.1,0.4,2.8,1.2c0.8,0.8,1.2,1.9,1.2,3v16.9
									c0,2.3-1.8,4.2-4,4.2h-90.5c-2.2,0-4-1.9-4-4.2L481.6,587.8L481.6,587.8z"/>
								<path class="st5" d="M481.6,587.8L481.6,587.8c0-2.3,1.8-4.2,4-4.2h90.5c1.1,0,2.1,0.4,2.8,1.2c0.8,0.8,1.2,1.9,1.2,3v16.9
									c0,2.3-1.8,4.2-4,4.2h-90.5c-2.2,0-4-1.9-4-4.2L481.6,587.8L481.6,587.8z"/>
							</g>
							<g>
								<g transform="matrix(1.0 0.0 0.0 1.0 2.0 0.0)">
									<g id="g740b4d8832_0_0.8_5_">
										<path class="st4" d="M44.4,503.4L44.4,503.4c0-2.3,1.8-4.2,4-4.2h90.5c1.1,0,2.1,0.4,2.8,1.2s1.2,1.9,1.2,3v16.9
											c0,2.3-1.8,4.2-4,4.2H48.4c-2.2,0-4-1.9-4-4.2V503.4z"/>
										<path class="st5" d="M44.4,503.4L44.4,503.4c0-2.3,1.8-4.2,4-4.2h90.5c1.1,0,2.1,0.4,2.8,1.2s1.2,1.9,1.2,3v16.9
											c0,2.3-1.8,4.2-4,4.2H48.4c-2.2,0-4-1.9-4-4.2V503.4z"/>
									</g>
								</g>
							</g>
							<g id="g740b4d8832_0_0.8_4_">
								<path class="st4" d="M43.7,503.4L43.7,503.4c0-2.3,1.8-4.2,4-4.2h90.5c1.1,0,2.1,0.4,2.8,1.2s1.2,1.9,1.2,3v16.9
									c0,2.3-1.8,4.2-4,4.2H47.7c-2.2,0-4-1.9-4-4.2V503.4z"/>
								<path class="st5" d="M43.7,503.4L43.7,503.4c0-2.3,1.8-4.2,4-4.2h90.5c1.1,0,2.1,0.4,2.8,1.2s1.2,1.9,1.2,3v16.9
									c0,2.3-1.8,4.2-4,4.2H47.7c-2.2,0-4-1.9-4-4.2V503.4z"/>
							</g>
							<g>
								<g transform="matrix(1.0 0.0 0.0 1.0 2.0 0.0)">
									<g id="g740b4d8832_0_0.9_5_">
										<path class="st4" d="M154,503.4L154,503.4c0-2.3,1.8-4.2,4-4.2h90.5c1.1,0,2.1,0.4,2.8,1.2s1.2,1.9,1.2,3v16.9
											c0,2.3-1.8,4.2-4,4.2H158c-2.2,0-4-1.9-4-4.2V503.4z"/>
										<path class="st5" d="M154,503.4L154,503.4c0-2.3,1.8-4.2,4-4.2h90.5c1.1,0,2.1,0.4,2.8,1.2s1.2,1.9,1.2,3v16.9
											c0,2.3-1.8,4.2-4,4.2H158c-2.2,0-4-1.9-4-4.2V503.4z"/>
									</g>
								</g>
							</g>
							<g id="g740b4d8832_0_0.9_4_">
								<path class="st4" d="M153.3,503.4L153.3,503.4c0-2.3,1.8-4.2,4-4.2h90.5c1.1,0,2.1,0.4,2.8,1.2c0.8,0.8,1.2,1.9,1.2,3v16.9
									c0,2.3-1.8,4.2-4,4.2h-90.5c-2.2,0-4-1.9-4-4.2V503.4z"/>
								<path class="st5" d="M153.3,503.4L153.3,503.4c0-2.3,1.8-4.2,4-4.2h90.5c1.1,0,2.1,0.4,2.8,1.2c0.8,0.8,1.2,1.9,1.2,3v16.9
									c0,2.3-1.8,4.2-4,4.2h-90.5c-2.2,0-4-1.9-4-4.2V503.4z"/>
							</g>
							<g>
								<g transform="matrix(1.0 0.0 0.0 1.0 1.0 0.0)">
									<g id="g740b4d8832_0_0.10_5_">
										<path class="st4" d="M372.7,503.4L372.7,503.4c0-2.3,1.8-4.2,4-4.2h90.5c1.1,0,2.1,0.4,2.8,1.2c0.8,0.8,1.2,1.9,1.2,3
											v16.9c0,2.3-1.8,4.2-4,4.2h-90.5c-2.2,0-4-1.9-4-4.2V503.4z"/>
										<path class="st5" d="M372.7,503.4L372.7,503.4c0-2.3,1.8-4.2,4-4.2h90.5c1.1,0,2.1,0.4,2.8,1.2c0.8,0.8,1.2,1.9,1.2,3
											v16.9c0,2.3-1.8,4.2-4,4.2h-90.5c-2.2,0-4-1.9-4-4.2V503.4z"/>
									</g>
								</g>
							</g>
							<g id="g740b4d8832_0_0.10_4_">
								<path class="st4" d="M372.4,503.4L372.4,503.4c0-2.3,1.8-4.2,4-4.2h90.5c1.1,0,2.1,0.4,2.8,1.2s1.2,1.9,1.2,3v16.9
									c0,2.3-1.8,4.2-4,4.2h-90.5c-2.2,0-4-1.9-4-4.2V503.4z"/>
								<path class="st5" d="M372.4,503.4L372.4,503.4c0-2.3,1.8-4.2,4-4.2h90.5c1.1,0,2.1,0.4,2.8,1.2s1.2,1.9,1.2,3v16.9
									c0,2.3-1.8,4.2-4,4.2h-90.5c-2.2,0-4-1.9-4-4.2V503.4z"/>
							</g>
							<g>
								<g transform="matrix(1.0 0.0 0.0 1.0 2.0 0.0)">
									<g id="g740b4d8832_0_0.11_5_">
										<path class="st4" d="M44.4,545.6L44.4,545.6c0-2.3,1.8-4.2,4-4.2h90.5c1.1,0,2.1,0.4,2.8,1.2s1.2,1.9,1.2,3v16.9
											c0,2.3-1.8,4.2-4,4.2H48.4c-2.2,0-4-1.9-4-4.2V545.6z"/>
										<path class="st5" d="M44.4,545.6L44.4,545.6c0-2.3,1.8-4.2,4-4.2h90.5c1.1,0,2.1,0.4,2.8,1.2s1.2,1.9,1.2,3v16.9
											c0,2.3-1.8,4.2-4,4.2H48.4c-2.2,0-4-1.9-4-4.2V545.6z"/>
									</g>
								</g>
							</g>
							<g id="g740b4d8832_0_0.11_4_">
								<path class="st4" d="M43.7,545.6L43.7,545.6c0-2.3,1.8-4.2,4-4.2h90.5c1.1,0,2.1,0.4,2.8,1.2s1.2,1.9,1.2,3v16.9
									c0,2.3-1.8,4.2-4,4.2H47.7c-2.2,0-4-1.9-4-4.2V545.6z"/>
								<path class="st5" d="M43.7,545.6L43.7,545.6c0-2.3,1.8-4.2,4-4.2h90.5c1.1,0,2.1,0.4,2.8,1.2s1.2,1.9,1.2,3v16.9
									c0,2.3-1.8,4.2-4,4.2H47.7c-2.2,0-4-1.9-4-4.2V545.6z"/>
							</g>
							<g>
								<g transform="matrix(1.0 0.0 0.0 1.0 2.0 0.0)">
									<g id="g740b4d8832_0_0.12_5_">
										<path class="st4" d="M154,545.6L154,545.6c0-2.3,1.8-4.2,4-4.2h90.5c1.1,0,2.1,0.4,2.8,1.2s1.2,1.9,1.2,3v16.9
											c0,2.3-1.8,4.2-4,4.2H158c-2.2,0-4-1.9-4-4.2V545.6z"/>
										<path class="st5" d="M154,545.6L154,545.6c0-2.3,1.8-4.2,4-4.2h90.5c1.1,0,2.1,0.4,2.8,1.2s1.2,1.9,1.2,3v16.9
											c0,2.3-1.8,4.2-4,4.2H158c-2.2,0-4-1.9-4-4.2V545.6z"/>
									</g>
								</g>
							</g>
							<g id="g740b4d8832_0_0.12_4_">
								<path class="st4" d="M153.3,545.6L153.3,545.6c0-2.3,1.8-4.2,4-4.2h90.5c1.1,0,2.1,0.4,2.8,1.2c0.8,0.8,1.2,1.9,1.2,3v16.9
									c0,2.3-1.8,4.2-4,4.2h-90.5c-2.2,0-4-1.9-4-4.2V545.6z"/>
								<path class="st5" d="M153.3,545.6L153.3,545.6c0-2.3,1.8-4.2,4-4.2h90.5c1.1,0,2.1,0.4,2.8,1.2c0.8,0.8,1.2,1.9,1.2,3v16.9
									c0,2.3-1.8,4.2-4,4.2h-90.5c-2.2,0-4-1.9-4-4.2V545.6z"/>
							</g>
							<g>
								<g transform="matrix(1.0 0.0 0.0 1.0 1.0 0.0)">
									<g id="g740b4d8832_0_0.13_5_">
										<path class="st4" d="M372.7,545.6L372.7,545.6c0-2.3,1.8-4.2,4-4.2h90.5c1.1,0,2.1,0.4,2.8,1.2c0.8,0.8,1.2,1.9,1.2,3
											v16.9c0,2.3-1.8,4.2-4,4.2h-90.5c-2.2,0-4-1.9-4-4.2V545.6z"/>
										<path class="st5" d="M372.7,545.6L372.7,545.6c0-2.3,1.8-4.2,4-4.2h90.5c1.1,0,2.1,0.4,2.8,1.2c0.8,0.8,1.2,1.9,1.2,3
											v16.9c0,2.3-1.8,4.2-4,4.2h-90.5c-2.2,0-4-1.9-4-4.2V545.6z"/>
									</g>
								</g>
							</g>
							<g id="g740b4d8832_0_0.13_4_">
								<path class="st4" d="M372.4,545.6L372.4,545.6c0-2.3,1.8-4.2,4-4.2h90.5c1.1,0,2.1,0.4,2.8,1.2s1.2,1.9,1.2,3v16.9
									c0,2.3-1.8,4.2-4,4.2h-90.5c-2.2,0-4-1.9-4-4.2V545.6z"/>
								<path class="st5" d="M372.4,545.6L372.4,545.6c0-2.3,1.8-4.2,4-4.2h90.5c1.1,0,2.1,0.4,2.8,1.2s1.2,1.9,1.2,3v16.9
									c0,2.3-1.8,4.2-4,4.2h-90.5c-2.2,0-4-1.9-4-4.2V545.6z"/>
							</g>
							<g>
								<g transform="matrix(1.0 0.0 0.0 1.0 1.0 0.0)">
									<g id="g740b4d8832_0_0.14_5_">
										<path class="st4" d="M482,545.6L482,545.6c0-2.3,1.8-4.2,4-4.2h90.5c1.1,0,2.1,0.4,2.8,1.2c0.8,0.8,1.2,1.9,1.2,3v16.9
											c0,2.3-1.8,4.2-4,4.2H486c-2.2,0-4-1.9-4-4.2V545.6z"/>
										<path class="st5" d="M482,545.6L482,545.6c0-2.3,1.8-4.2,4-4.2h90.5c1.1,0,2.1,0.4,2.8,1.2c0.8,0.8,1.2,1.9,1.2,3v16.9
											c0,2.3-1.8,4.2-4,4.2H486c-2.2,0-4-1.9-4-4.2V545.6z"/>
									</g>
								</g>
							</g>
							<g id="g740b4d8832_0_0.14_4_">
								<path class="st4" d="M481.6,545.6L481.6,545.6c0-2.3,1.8-4.2,4-4.2h90.5c1.1,0,2.1,0.4,2.8,1.2c0.8,0.8,1.2,1.9,1.2,3v16.9
									c0,2.3-1.8,4.2-4,4.2h-90.5c-2.2,0-4-1.9-4-4.2L481.6,545.6L481.6,545.6z"/>
								<path class="st5" d="M481.6,545.6L481.6,545.6c0-2.3,1.8-4.2,4-4.2h90.5c1.1,0,2.1,0.4,2.8,1.2c0.8,0.8,1.2,1.9,1.2,3v16.9
									c0,2.3-1.8,4.2-4,4.2h-90.5c-2.2,0-4-1.9-4-4.2L481.6,545.6L481.6,545.6z"/>
							</g>
							<g>
								<g transform="matrix(1.0 0.0 0.0 1.0 1.0 0.0)">
									<g id="g740b4d8832_0_0.15_5_">
										<path class="st6" d="M153.8,419.1L153.8,419.1c0-2.3,1.8-4.2,4-4.2h90.5c1.1,0,2.1,0.4,2.8,1.2c0.8,0.8,1.2,1.9,1.2,3V436
											c0,2.3-1.8,4.2-4,4.2h-90.5c-2.2,0-4-1.9-4-4.2V419.1z"/>
										<path class="st5" d="M153.8,419.1L153.8,419.1c0-2.3,1.8-4.2,4-4.2h90.5c1.1,0,2.1,0.4,2.8,1.2c0.8,0.8,1.2,1.9,1.2,3V436
											c0,2.3-1.8,4.2-4,4.2h-90.5c-2.2,0-4-1.9-4-4.2V419.1z"/>
									</g>
								</g>
							</g>
							<g id="g740b4d8832_0_0.15_4_">
								<path class="st6" d="M153.5,419.1L153.5,419.1c0-2.3,1.8-4.2,4-4.2H248c1.1,0,2.1,0.4,2.8,1.2s1.2,1.9,1.2,3V436
									c0,2.3-1.8,4.2-4,4.2h-90.5c-2.2,0-4-1.9-4-4.2V419.1z"/>
								<path class="st5" d="M153.5,419.1L153.5,419.1c0-2.3,1.8-4.2,4-4.2H248c1.1,0,2.1,0.4,2.8,1.2s1.2,1.9,1.2,3V436
									c0,2.3-1.8,4.2-4,4.2h-90.5c-2.2,0-4-1.9-4-4.2V419.1z"/>
							</g>
							<g>
								<g transform="matrix(1.0 0.0 0.0 1.0 1.0 0.0)">
									<g id="g740b4d8832_0_0.16_5_">
										<path class="st6" d="M153.8,461.3L153.8,461.3c0-2.3,1.8-4.2,4-4.2h90.5c1.1,0,2.1,0.4,2.8,1.2c0.8,0.8,1.2,1.9,1.2,3
											v16.9c0,2.3-1.8,4.2-4,4.2h-90.5c-2.2,0-4-1.9-4-4.2V461.3z"/>
										<path class="st5" d="M153.8,461.3L153.8,461.3c0-2.3,1.8-4.2,4-4.2h90.5c1.1,0,2.1,0.4,2.8,1.2c0.8,0.8,1.2,1.9,1.2,3
											v16.9c0,2.3-1.8,4.2-4,4.2h-90.5c-2.2,0-4-1.9-4-4.2V461.3z"/>
									</g>
								</g>
							</g>
							<g id="g740b4d8832_0_0.16_4_">
								<path class="st6" d="M153.5,461.3L153.5,461.3c0-2.3,1.8-4.2,4-4.2H248c1.1,0,2.1,0.4,2.8,1.2s1.2,1.9,1.2,3v16.9
									c0,2.3-1.8,4.2-4,4.2h-90.5c-2.2,0-4-1.9-4-4.2V461.3z"/>
								<path class="st5" d="M153.5,461.3L153.5,461.3c0-2.3,1.8-4.2,4-4.2H248c1.1,0,2.1,0.4,2.8,1.2s1.2,1.9,1.2,3v16.9
									c0,2.3-1.8,4.2-4,4.2h-90.5c-2.2,0-4-1.9-4-4.2V461.3z"/>
							</g>
							<g>
								<g transform="matrix(1.0 0.0 0.0 1.0 1.0 0.0)">
									<g id="g740b4d8832_0_0.17_5_">
										<path class="st6" d="M372.9,461.3L372.9,461.3c0-2.3,1.8-4.2,4-4.2h90.5c1.1,0,2.1,0.4,2.8,1.2c0.8,0.8,1.2,1.9,1.2,3
											v16.9c0,2.3-1.8,4.2-4,4.2h-90.5c-2.2,0-4-1.9-4-4.2V461.3z"/>
										<path class="st5" d="M372.9,461.3L372.9,461.3c0-2.3,1.8-4.2,4-4.2h90.5c1.1,0,2.1,0.4,2.8,1.2c0.8,0.8,1.2,1.9,1.2,3
											v16.9c0,2.3-1.8,4.2-4,4.2h-90.5c-2.2,0-4-1.9-4-4.2V461.3z"/>
									</g>
								</g>
							</g>
							<g id="g740b4d8832_0_0.17_4_">
								<path class="st6" d="M372.6,461.3L372.6,461.3c0-2.3,1.8-4.2,4-4.2h90.5c1.1,0,2.1,0.4,2.8,1.2c0.8,0.8,1.2,1.9,1.2,3v16.9
									c0,2.3-1.8,4.2-4,4.2h-90.5c-2.2,0-4-1.9-4-4.2V461.3z"/>
								<path class="st5" d="M372.6,461.3L372.6,461.3c0-2.3,1.8-4.2,4-4.2h90.5c1.1,0,2.1,0.4,2.8,1.2c0.8,0.8,1.2,1.9,1.2,3v16.9
									c0,2.3-1.8,4.2-4,4.2h-90.5c-2.2,0-4-1.9-4-4.2V461.3z"/>
							</g>
							<g>
								<g transform="matrix(1.0 0.0 0.0 1.0 1.0 0.0)">
									<g id="g740b4d8832_0_0.18_5_">
										<path class="st7" d="M153.8,376.9L153.8,376.9c0-2.3,1.8-4.2,4-4.2h90.5c1.1,0,2.1,0.4,2.8,1.2c0.8,0.8,1.2,1.9,1.2,3
											v16.9c0,2.3-1.8,4.2-4,4.2h-90.5c-2.2,0-4-1.9-4-4.2V376.9z"/>
										<path class="st5" d="M153.8,376.9L153.8,376.9c0-2.3,1.8-4.2,4-4.2h90.5c1.1,0,2.1,0.4,2.8,1.2c0.8,0.8,1.2,1.9,1.2,3
											v16.9c0,2.3-1.8,4.2-4,4.2h-90.5c-2.2,0-4-1.9-4-4.2V376.9z"/>
									</g>
								</g>
							</g>
							<g id="g740b4d8832_0_0.18_4_">
								<path class="st7" d="M153.5,376.9L153.5,376.9c0-2.3,1.8-4.2,4-4.2H248c1.1,0,2.1,0.4,2.8,1.2s1.2,1.9,1.2,3v16.9
									c0,2.3-1.8,4.2-4,4.2h-90.5c-2.2,0-4-1.9-4-4.2V376.9z"/>
								<path class="st5" d="M153.5,376.9L153.5,376.9c0-2.3,1.8-4.2,4-4.2H248c1.1,0,2.1,0.4,2.8,1.2s1.2,1.9,1.2,3v16.9
									c0,2.3-1.8,4.2-4,4.2h-90.5c-2.2,0-4-1.9-4-4.2V376.9z"/>
							</g>
							<g>
								<g transform="matrix(1.0 0.0 0.0 1.0 1.0 0.0)">
									<g id="g740b4d8832_0_0.19_5_">
										<path class="st4" d="M592.6,587.8L592.6,587.8c0-2.3,1.8-4.2,4-4.2H687c1.1,0,2.1,0.4,2.8,1.2s1.2,1.9,1.2,3v16.9
											c0,2.3-1.8,4.2-4,4.2h-90.5c-2.2,0-4-1.9-4-4.2L592.6,587.8L592.6,587.8z"/>
										<path class="st5" d="M592.6,587.8L592.6,587.8c0-2.3,1.8-4.2,4-4.2H687c1.1,0,2.1,0.4,2.8,1.2s1.2,1.9,1.2,3v16.9
											c0,2.3-1.8,4.2-4,4.2h-90.5c-2.2,0-4-1.9-4-4.2L592.6,587.8L592.6,587.8z"/>
									</g>
								</g>
							</g>
							<g id="g740b4d8832_0_0.19_4_">
								<path class="st4" d="M592.2,587.8L592.2,587.8c0-2.3,1.8-4.2,4-4.2h90.5c1.1,0,2.1,0.4,2.8,1.2s1.2,1.9,1.2,3v16.9
									c0,2.3-1.8,4.2-4,4.2h-90.5c-2.2,0-4-1.9-4-4.2V587.8z"/>
								<path class="st5" d="M592.2,587.8L592.2,587.8c0-2.3,1.8-4.2,4-4.2h90.5c1.1,0,2.1,0.4,2.8,1.2s1.2,1.9,1.2,3v16.9
									c0,2.3-1.8,4.2-4,4.2h-90.5c-2.2,0-4-1.9-4-4.2V587.8z"/>
							</g>
							<g>
								<g transform="matrix(1.0 0.0 0.0 1.0 1.0 0.0)">
									<g id="g740b4d8832_0_0.20_5_">
										<path class="st4" d="M592.6,503.4L592.6,503.4c0-2.3,1.8-4.2,4-4.2H687c1.1,0,2.1,0.4,2.8,1.2s1.2,1.9,1.2,3v16.9
											c0,2.3-1.8,4.2-4,4.2h-90.5c-2.2,0-4-1.9-4-4.2L592.6,503.4L592.6,503.4z"/>
										<path class="st5" d="M592.6,503.4L592.6,503.4c0-2.3,1.8-4.2,4-4.2H687c1.1,0,2.1,0.4,2.8,1.2s1.2,1.9,1.2,3v16.9
											c0,2.3-1.8,4.2-4,4.2h-90.5c-2.2,0-4-1.9-4-4.2L592.6,503.4L592.6,503.4z"/>
									</g>
								</g>
							</g>
							<g id="g740b4d8832_0_0.20_4_">
								<path class="st4" d="M592.2,503.4L592.2,503.4c0-2.3,1.8-4.2,4-4.2h90.5c1.1,0,2.1,0.4,2.8,1.2s1.2,1.9,1.2,3v16.9
									c0,2.3-1.8,4.2-4,4.2h-90.5c-2.2,0-4-1.9-4-4.2V503.4z"/>
								<path class="st5" d="M592.2,503.4L592.2,503.4c0-2.3,1.8-4.2,4-4.2h90.5c1.1,0,2.1,0.4,2.8,1.2s1.2,1.9,1.2,3v16.9
									c0,2.3-1.8,4.2-4,4.2h-90.5c-2.2,0-4-1.9-4-4.2V503.4z"/>
							</g>
							<g>
								<g transform="matrix(1.0 0.0 0.0 1.0 1.0 0.0)">
									<g id="g740b4d8832_0_0.21_5_">
										<path class="st4" d="M592.6,545.6L592.6,545.6c0-2.3,1.8-4.2,4-4.2H687c1.1,0,2.1,0.4,2.8,1.2s1.2,1.9,1.2,3v16.9
											c0,2.3-1.8,4.2-4,4.2h-90.5c-2.2,0-4-1.9-4-4.2L592.6,545.6L592.6,545.6z"/>
										<path class="st5" d="M592.6,545.6L592.6,545.6c0-2.3,1.8-4.2,4-4.2H687c1.1,0,2.1,0.4,2.8,1.2s1.2,1.9,1.2,3v16.9
											c0,2.3-1.8,4.2-4,4.2h-90.5c-2.2,0-4-1.9-4-4.2L592.6,545.6L592.6,545.6z"/>
									</g>
								</g>
							</g>
							<g id="g740b4d8832_0_0.21_4_">
								<path class="st4" d="M592.2,545.6L592.2,545.6c0-2.3,1.8-4.2,4-4.2h90.5c1.1,0,2.1,0.4,2.8,1.2s1.2,1.9,1.2,3v16.9
									c0,2.3-1.8,4.2-4,4.2h-90.5c-2.2,0-4-1.9-4-4.2V545.6z"/>
								<path class="st5" d="M592.2,545.6L592.2,545.6c0-2.3,1.8-4.2,4-4.2h90.5c1.1,0,2.1,0.4,2.8,1.2s1.2,1.9,1.2,3v16.9
									c0,2.3-1.8,4.2-4,4.2h-90.5c-2.2,0-4-1.9-4-4.2V545.6z"/>
							</g>
							<g>
								<g transform="matrix(1.0 0.0 0.0 1.0 1.0 0.0)">
									<g id="g740b4d8832_0_0.22_5_">
										<path class="st6" d="M592.7,419.1L592.7,419.1c0-2.3,1.8-4.2,4-4.2h90.5c1.1,0,2.1,0.4,2.8,1.2c0.8,0.8,1.2,1.9,1.2,3V436
											c0,2.3-1.8,4.2-4,4.2h-90.5c-2.2,0-4-1.9-4-4.2V419.1z"/>
										<path class="st5" d="M592.7,419.1L592.7,419.1c0-2.3,1.8-4.2,4-4.2h90.5c1.1,0,2.1,0.4,2.8,1.2c0.8,0.8,1.2,1.9,1.2,3V436
											c0,2.3-1.8,4.2-4,4.2h-90.5c-2.2,0-4-1.9-4-4.2V419.1z"/>
									</g>
								</g>
							</g>
							<g id="g740b4d8832_0_0.22_4_">
								<path class="st6" d="M592.4,419.1L592.4,419.1c0-2.3,1.8-4.2,4-4.2h90.5c1.1,0,2.1,0.4,2.8,1.2s1.2,1.9,1.2,3V436
									c0,2.3-1.8,4.2-4,4.2h-90.5c-2.2,0-4-1.9-4-4.2V419.1z"/>
								<path class="st5" d="M592.4,419.1L592.4,419.1c0-2.3,1.8-4.2,4-4.2h90.5c1.1,0,2.1,0.4,2.8,1.2s1.2,1.9,1.2,3V436
									c0,2.3-1.8,4.2-4,4.2h-90.5c-2.2,0-4-1.9-4-4.2V419.1z"/>
							</g>
							<g>
								<g transform="matrix(1.0 0.0 0.0 1.0 1.0 0.0)">
									<g id="g740b4d8832_0_0.23_5_">
										<path class="st6" d="M592.7,461.3L592.7,461.3c0-2.3,1.8-4.2,4-4.2h90.5c1.1,0,2.1,0.4,2.8,1.2c0.8,0.8,1.2,1.9,1.2,3
											v16.9c0,2.3-1.8,4.2-4,4.2h-90.5c-2.2,0-4-1.9-4-4.2V461.3z"/>
										<path class="st5" d="M592.7,461.3L592.7,461.3c0-2.3,1.8-4.2,4-4.2h90.5c1.1,0,2.1,0.4,2.8,1.2c0.8,0.8,1.2,1.9,1.2,3
											v16.9c0,2.3-1.8,4.2-4,4.2h-90.5c-2.2,0-4-1.9-4-4.2V461.3z"/>
									</g>
								</g>
							</g>
							<g id="g740b4d8832_0_0.23_4_">
								<path class="st6" d="M592.4,461.3L592.4,461.3c0-2.3,1.8-4.2,4-4.2h90.5c1.1,0,2.1,0.4,2.8,1.2s1.2,1.9,1.2,3v16.9
									c0,2.3-1.8,4.2-4,4.2h-90.5c-2.2,0-4-1.9-4-4.2V461.3z"/>
								<path class="st5" d="M592.4,461.3L592.4,461.3c0-2.3,1.8-4.2,4-4.2h90.5c1.1,0,2.1,0.4,2.8,1.2s1.2,1.9,1.2,3v16.9
									c0,2.3-1.8,4.2-4,4.2h-90.5c-2.2,0-4-1.9-4-4.2V461.3z"/>
							</g>
							<g>
								<g transform="matrix(1.0 0.0 0.0 1.0 1.0 0.0)">
									<g id="g740b4d8832_0_0.24_5_">
										<path class="st2" d="M-4.6,145h741.5v199.4H-4.6V145z"/>
										<path class="st8" d="M201.5,306.2c-1.9,0-3.2-0.5-3.8-1.5s-1-2.3-1-3.8l1.5-18c-2.1,3.7-4.3,7.1-6.7,10.1s-5,5.6-7.7,7.7
											s-5.5,3.8-8.3,5c-2.9,1.2-5.8,1.8-8.8,1.8c-7,0-12.5-2.7-16.3-8.1c-3.9-5.4-5.8-13.2-5.8-23.5c0-4.7,0.5-9.3,1.4-14
											s2.2-9.1,3.9-13.4c1.7-4.3,3.8-8.2,6.2-11.9s5.1-6.9,8-9.5c2.9-2.7,6.1-4.8,9.6-6.3s7.1-2.3,10.9-2.3c4,0,7.7,0.8,11,2.5
											s6.1,4,8.5,7.1l5.6-47.6h14.2L209,306.2H201.5z M172.1,295.2c2.6,0,5.2-0.8,7.8-2.5s5.2-4,7.6-7c2.5-3,4.8-6.6,6.9-10.7
											c2.1-4.1,4-8.6,5.5-13.5l2.7-22.9c-2.1-3-4.5-5.2-7.4-6.4c-2.9-1.3-5.7-1.9-8.7-1.9c-4.3,0-8.1,1.3-11.5,4
											s-6.3,6.1-8.8,10.4c-2.4,4.2-4.2,9-5.5,14.2s-1.9,10.4-1.9,15.5c0,6.8,1.2,12,3.5,15.5
											C164.7,293.4,167.9,295.2,172.1,295.2z M231.9,306.2l14.4-125.9h14.2l-7.1,61.2c2.1-3.5,4.3-6.7,6.6-9.5
											c2.4-2.9,4.9-5.3,7.5-7.3s5.3-3.5,8.1-4.7c2.8-1.1,5.7-1.7,8.6-1.7c7,0,12.4,2.7,16.3,8c3.9,5.4,5.8,13.2,5.8,23.5
											c0,4.7-0.5,9.3-1.4,14s-2.2,9.1-3.9,13.4c-1.7,4.2-3.8,8.2-6.2,11.9c-2.4,3.7-5.1,6.9-8,9.6s-6.1,4.8-9.6,6.4
											c-3.5,1.5-7.1,2.3-10.9,2.3c-4.4,0-8.3-1-11.9-2.9c-3.5-1.9-6.4-4.7-8.7-8.3l-1.1,5.6c-0.4,1.5-1,2.6-1.7,3.3
											c-0.7,0.7-1.8,1.1-3.4,1.1H231.9z M278.7,230.6c-2.6,0-5.2,0.9-7.9,2.6c-2.6,1.7-5.2,4.1-7.7,7.1s-4.8,6.6-6.9,10.8
											c-2.2,4.2-4,8.7-5.6,13.7l-2.6,22.5c2.1,3.1,4.5,5.3,7.4,6.5c2.9,1.3,5.8,1.9,8.8,1.9c2.8,0,5.5-0.6,7.9-1.9
											c2.5-1.3,4.8-3,6.8-5.1c2.1-2.1,3.9-4.6,5.5-7.5s3-6,4.1-9.2c1.1-3.3,2-6.7,2.5-10.2c0.6-3.5,0.9-7,0.9-10.4
											c0-6.8-1.2-11.9-3.5-15.5C286.2,232.4,283,230.6,278.7,230.6z"/>
										<path class="st8" d="M322.4,335.5V219.7h8.6c2.1,0,3.4,1.1,3.9,3.2l1.2,10.3c3.5-4.5,7.5-8.1,12-10.9
											c4.5-2.7,9.7-4.1,15.6-4.1c4.7,0,9,1,12.8,2.9s7.1,4.7,9.8,8.5c2.7,3.7,4.8,8.4,6.2,13.9c1.5,5.5,2.2,11.9,2.2,19.1
											c0,6.4-0.8,12.3-2.4,17.8s-3.9,10.3-7,14.3c-3,4-6.7,7.2-11.1,9.5s-9.4,3.5-14.9,3.5c-5.1,0-9.4-0.9-13-2.6
											c-3.6-1.8-6.8-4.3-9.5-7.5v38.3h-14.4V335.5z M358.9,230.4c-4.7,0-8.8,1.1-12.4,3.4c-3.5,2.3-6.8,5.5-9.8,9.7v41.9
											c2.6,3.8,5.5,6.4,8.7,7.9s6.7,2.3,10.6,2.3c7.6,0,13.5-2.9,17.6-8.6c4.1-5.8,6.2-14,6.2-24.6c0-5.6-0.5-10.5-1.4-14.5
											s-2.3-7.4-4.1-10c-1.8-2.6-4-4.5-6.6-5.7C365.2,231,362.2,230.4,358.9,230.4z M427.9,180.3v125.9h-14.4V180.3H427.9z
											 M486.5,218.3c6,0,11.4,1.1,16.2,3.2c4.8,2.1,8.9,5.1,12.3,9c3.4,3.9,6,8.6,7.8,14.1s2.7,11.6,2.7,18.4s-0.9,13-2.7,18.5
											s-4.4,10.1-7.8,14c-3.4,3.9-7.5,6.8-12.3,8.9s-10.2,3.1-16.2,3.1s-11.4-1-16.2-3.1c-4.8-2.1-8.9-5.1-12.4-8.9
											c-3.4-3.9-6-8.5-7.9-14c-1.8-5.5-2.8-11.6-2.8-18.5c0-6.8,0.9-12.9,2.8-18.4c1.8-5.5,4.5-10.2,7.9-14.1
											c3.4-3.9,7.5-6.9,12.4-9C475.1,219.3,480.5,218.3,486.5,218.3z M486.5,295.5c8.1,0,14.1-2.9,18.1-8.6s6-13.7,6-24
											c0-10.3-2-18.3-6-24.1s-10-8.6-18.1-8.6c-4.1,0-7.7,0.7-10.7,2.2s-5.5,3.6-7.6,6.4c-2,2.8-3.5,6.2-4.5,10.3
											s-1.5,8.7-1.5,13.8c0,5.1,0.5,9.7,1.5,13.8s2.5,7.4,4.5,10.2c2,2.8,4.5,4.9,7.6,6.4C478.9,294.8,482.4,295.5,486.5,295.5z
											 M568.3,307.6c-6.5,0-11.5-1.9-15-5.7c-3.5-3.8-5.2-9.3-5.2-16.5v-53h-9.9c-0.9,0-1.6-0.3-2.2-0.8
											c-0.6-0.5-0.9-1.4-0.9-2.5V223l13.4-1.8l3.3-26.7c0.1-0.9,0.5-1.6,1.1-2.1s1.4-0.8,2.3-0.8h7.3v29.8H586v11h-23.5v52
											c0,3.6,0.8,6.4,2.5,8.1c1.7,1.8,3.8,2.6,6.5,2.6c1.5,0,2.8-0.2,3.9-0.6s2.1-0.9,2.9-1.4c0.8-0.5,1.5-1,2.1-1.4
											s1.1-0.6,1.5-0.6c0.8,0,1.4,0.5,2,1.5l4.2,7.3c-2.5,2.4-5.5,4.4-9,5.8C575.6,306.9,572,307.6,568.3,307.6z"/>
									</g>
								</g>
							</g>
							<g id="g740b4d8832_0_0.24_4_">
								<path class="st2" d="M-5,145h741.5v199.4H-5V145z"/>
								<path class="st8" d="M201.2,306.2c-1.9,0-3.2-0.5-3.8-1.5s-1-2.3-1-3.8l1.5-18c-2.1,3.7-4.3,7.1-6.7,10.1s-5,5.6-7.7,7.7
									s-5.5,3.8-8.3,5c-2.9,1.2-5.8,1.8-8.8,1.8c-7,0-12.5-2.7-16.3-8.1c-3.9-5.4-5.8-13.2-5.8-23.5c0-4.7,0.5-9.3,1.4-14
									s2.2-9.1,3.9-13.4c1.7-4.3,3.8-8.2,6.2-11.9s5.1-6.9,8-9.5c2.9-2.7,6.1-4.8,9.6-6.3s7.1-2.3,10.9-2.3c4,0,7.7,0.8,11,2.5
									s6.1,4,8.5,7.1l5.6-47.6h14.2l-14.7,125.9h-7.7V306.2z M171.8,295.2c2.6,0,5.2-0.8,7.8-2.5s5.2-4,7.6-7
									c2.5-3,4.8-6.6,6.9-10.7s4-8.6,5.5-13.5l2.7-22.9c-2.1-3-4.5-5.2-7.4-6.4c-2.9-1.3-5.7-1.9-8.7-1.9c-4.3,0-8.1,1.3-11.5,4
									s-6.3,6.1-8.8,10.4c-2.4,4.2-4.2,9-5.5,14.2s-1.9,10.4-1.9,15.5c0,6.8,1.2,12,3.5,15.5C164.3,293.4,167.6,295.2,171.8,295.2
									z M231.6,306.2L246,180.3h14.2l-7.1,61.2c2.1-3.5,4.3-6.7,6.6-9.5c2.4-2.9,4.9-5.3,7.5-7.3s5.3-3.5,8.1-4.7
									c2.8-1.1,5.7-1.7,8.6-1.7c7,0,12.4,2.7,16.3,8c3.9,5.4,5.8,13.2,5.8,23.5c0,4.7-0.5,9.3-1.4,14c-0.9,4.7-2.2,9.1-3.9,13.4
									c-1.7,4.2-3.8,8.2-6.2,11.9c-2.4,3.7-5.1,6.9-8,9.6s-6.1,4.8-9.6,6.4c-3.5,1.5-7.1,2.3-10.9,2.3c-4.4,0-8.3-1-11.9-2.9
									c-3.5-1.9-6.4-4.7-8.7-8.3l-1.1,5.6c-0.4,1.5-1,2.6-1.7,3.3c-0.7,0.7-1.8,1.1-3.4,1.1L231.6,306.2L231.6,306.2z
									 M278.4,230.6c-2.6,0-5.2,0.9-7.9,2.6c-2.6,1.7-5.2,4.1-7.7,7.1s-4.8,6.6-6.9,10.8c-2.2,4.2-4,8.7-5.6,13.7l-2.6,22.5
									c2.1,3.1,4.5,5.3,7.4,6.5c2.9,1.3,5.8,1.9,8.8,1.9c2.8,0,5.5-0.6,7.9-1.9c2.5-1.3,4.8-3,6.8-5.1c2.1-2.1,3.9-4.6,5.5-7.5
									s3-6,4.1-9.2c1.1-3.3,2-6.7,2.5-10.2c0.6-3.5,0.9-7,0.9-10.4c0-6.8-1.2-11.9-3.5-15.5C285.9,232.4,282.6,230.6,278.4,230.6z
									"/>
								<path class="st8" d="M322.1,335.5V219.7h8.6c2.1,0,3.4,1.1,3.9,3.2l1.2,10.3c3.5-4.5,7.5-8.1,12-10.9
									c4.5-2.7,9.7-4.1,15.6-4.1c4.7,0,9,1,12.8,2.9s7.1,4.7,9.8,8.5c2.7,3.7,4.8,8.4,6.2,13.9c1.5,5.5,2.2,11.9,2.2,19.1
									c0,6.4-0.8,12.3-2.4,17.8s-3.9,10.3-7,14.3c-3,4-6.7,7.2-11.1,9.5s-9.4,3.5-14.9,3.5c-5.1,0-9.4-0.9-13-2.6
									s-6.8-4.3-9.5-7.5v38.3h-14.4V335.5z M358.6,230.4c-4.7,0-8.8,1.1-12.4,3.4c-3.5,2.3-6.8,5.5-9.8,9.7v41.9
									c2.6,3.8,5.5,6.4,8.7,7.9s6.7,2.3,10.6,2.3c7.6,0,13.5-2.9,17.6-8.6c4.1-5.8,6.2-14,6.2-24.6c0-5.6-0.5-10.5-1.4-14.5
									s-2.3-7.4-4.1-10c-1.8-2.6-4-4.5-6.6-5.7C364.8,231,361.9,230.4,358.6,230.4z M427.5,180.3v125.9h-14.4V180.3H427.5z
									 M486.2,218.3c6,0,11.4,1.1,16.2,3.2c4.8,2.1,8.9,5.1,12.3,9c3.4,3.9,6,8.6,7.8,14.1s2.7,11.6,2.7,18.4s-0.9,13-2.7,18.5
									s-4.4,10.1-7.8,14c-3.4,3.9-7.5,6.8-12.3,8.9s-10.2,3.1-16.2,3.1s-11.4-1-16.2-3.1c-4.8-2.1-8.9-5.1-12.4-8.9
									c-3.4-3.9-6-8.5-7.9-14c-1.8-5.5-2.8-11.6-2.8-18.5c0-6.8,0.9-12.9,2.8-18.4c1.8-5.5,4.5-10.2,7.9-14.1
									c3.4-3.9,7.5-6.9,12.4-9C474.8,219.3,480.2,218.3,486.2,218.3z M486.2,295.5c8.1,0,14.1-2.9,18.1-8.6s6-13.7,6-24
									c0-10.3-2-18.3-6-24.1s-10-8.6-18.1-8.6c-4.1,0-7.7,0.7-10.7,2.2s-5.5,3.6-7.6,6.4c-2,2.8-3.5,6.2-4.5,10.3
									s-1.5,8.7-1.5,13.8c0,5.1,0.5,9.7,1.5,13.8s2.5,7.4,4.5,10.2c2,2.8,4.5,4.9,7.6,6.4C478.5,294.8,482.1,295.5,486.2,295.5z
									 M567.9,307.6c-6.5,0-11.5-1.9-15-5.7c-3.5-3.8-5.2-9.3-5.2-16.5v-53h-9.9c-0.9,0-1.6-0.3-2.2-0.8c-0.6-0.5-0.9-1.4-0.9-2.5
									V223l13.4-1.8l3.3-26.7c0.1-0.9,0.5-1.6,1.1-2.1s1.4-0.8,2.3-0.8h7.3v29.8h23.5v11h-23.5v52c0,3.6,0.8,6.4,2.5,8.1
									c1.7,1.8,3.8,2.6,6.5,2.6c1.5,0,2.8-0.2,3.9-0.6c1.1-0.4,2.1-0.9,2.9-1.4c0.8-0.5,1.5-1,2.1-1.4s1.1-0.6,1.5-0.6
									c0.8,0,1.4,0.5,2,1.5l4.2,7.3c-2.5,2.4-5.5,4.4-9,5.8C575.3,306.9,571.6,307.6,567.9,307.6z"/>
							</g>
							<g>
								<g transform="matrix(1.0 0.0 0.0 1.0 1.0 0.0)">
									<g id="g740b4d8832_0_0.25_5_">
										<path class="st9" d="M482.7,503.4L482.7,503.4c0-2.3,1.8-4.2,4-4.2h90.5c1.1,0,2.1,0.4,2.8,1.2s1.2,1.9,1.2,3v16.9
											c0,2.3-1.8,4.2-4,4.2h-90.5c-2.2,0-4-1.9-4-4.2V503.4z"/>
										<path class="st5" d="M482.7,503.4L482.7,503.4c0-2.3,1.8-4.2,4-4.2h90.5c1.1,0,2.1,0.4,2.8,1.2s1.2,1.9,1.2,3v16.9
											c0,2.3-1.8,4.2-4,4.2h-90.5c-2.2,0-4-1.9-4-4.2V503.4z"/>
									</g>
								</g>
							</g>
							<g id="g740b4d8832_0_0.25_4_">
								<path class="st9" d="M482.3,503.4L482.3,503.4c0-2.3,1.8-4.2,4-4.2h90.5c1.1,0,2.1,0.4,2.8,1.2s1.2,1.9,1.2,3v16.9
									c0,2.3-1.8,4.2-4,4.2h-90.5c-2.2,0-4-1.9-4-4.2V503.4z"/>
								<path class="st5" d="M482.3,503.4L482.3,503.4c0-2.3,1.8-4.2,4-4.2h90.5c1.1,0,2.1,0.4,2.8,1.2s1.2,1.9,1.2,3v16.9
									c0,2.3-1.8,4.2-4,4.2h-90.5c-2.2,0-4-1.9-4-4.2V503.4z"/>
							</g>
							<g>
								<g transform="matrix(1.0 0.0 0.0 1.0 1.0 0.0)">
									<g id="g740b4d8832_0_0.26_5_">
										<path class="st9" d="M263.2,545.6L263.2,545.6c0-2.3,1.8-4.2,4-4.2h90.5c1.1,0,2.1,0.4,2.8,1.2c0.8,0.8,1.2,1.9,1.2,3
											v16.9c0,2.3-1.8,4.2-4,4.2h-90.5c-2.2,0-4-1.9-4-4.2V545.6z"/>
										<path class="st5" d="M263.2,545.6L263.2,545.6c0-2.3,1.8-4.2,4-4.2h90.5c1.1,0,2.1,0.4,2.8,1.2c0.8,0.8,1.2,1.9,1.2,3
											v16.9c0,2.3-1.8,4.2-4,4.2h-90.5c-2.2,0-4-1.9-4-4.2V545.6z"/>
									</g>
								</g>
							</g>
							<g id="g740b4d8832_0_0.26_4_">
								<path class="st9" d="M262.8,545.6L262.8,545.6c0-2.3,1.8-4.2,4-4.2h90.5c1.1,0,2.1,0.4,2.8,1.2c0.8,0.8,1.2,1.9,1.2,3v16.9
									c0,2.3-1.8,4.2-4,4.2h-90.5c-2.2,0-4-1.9-4-4.2V545.6z"/>
								<path class="st5" d="M262.8,545.6L262.8,545.6c0-2.3,1.8-4.2,4-4.2h90.5c1.1,0,2.1,0.4,2.8,1.2c0.8,0.8,1.2,1.9,1.2,3v16.9
									c0,2.3-1.8,4.2-4,4.2h-90.5c-2.2,0-4-1.9-4-4.2V545.6z"/>
							</g>
							<g>
								<g transform="matrix(1.0 0.0 0.0 1.0 1.0 0.0)">
									<g id="g740b4d8832_0_0.27_5_">
										<path class="st9" d="M263.2,503.4L263.2,503.4c0-2.3,1.8-4.2,4-4.2h90.5c1.1,0,2.1,0.4,2.8,1.2c0.8,0.8,1.2,1.9,1.2,3
											v16.9c0,2.3-1.8,4.2-4,4.2h-90.5c-2.2,0-4-1.9-4-4.2V503.4z"/>
										<path class="st5" d="M263.2,503.4L263.2,503.4c0-2.3,1.8-4.2,4-4.2h90.5c1.1,0,2.1,0.4,2.8,1.2c0.8,0.8,1.2,1.9,1.2,3
											v16.9c0,2.3-1.8,4.2-4,4.2h-90.5c-2.2,0-4-1.9-4-4.2V503.4z"/>
									</g>
								</g>
							</g>
							<g id="g740b4d8832_0_0.27_4_">
								<path class="st9" d="M262.8,503.4L262.8,503.4c0-2.3,1.8-4.2,4-4.2h90.5c1.1,0,2.1,0.4,2.8,1.2c0.8,0.8,1.2,1.9,1.2,3v16.9
									c0,2.3-1.8,4.2-4,4.2h-90.5c-2.2,0-4-1.9-4-4.2V503.4z"/>
								<path class="st5" d="M262.8,503.4L262.8,503.4c0-2.3,1.8-4.2,4-4.2h90.5c1.1,0,2.1,0.4,2.8,1.2c0.8,0.8,1.2,1.9,1.2,3v16.9
									c0,2.3-1.8,4.2-4,4.2h-90.5c-2.2,0-4-1.9-4-4.2V503.4z"/>
							</g>
							<g>
								<g transform="matrix(1.0 0.0 0.0 1.0 1.0 0.0)">
									<g id="g740b4d8832_0_0.28_5_">
										<path class="st10" d="M482.8,458.4L482.8,458.4c0-2.3,1.8-4.2,4-4.2h90.5c1.1,0,2.1,0.4,2.8,1.2s1.2,1.9,1.2,3v16.9
											c0,2.3-1.8,4.2-4,4.2h-90.5c-2.2,0-4-1.9-4-4.2V458.4z"/>
										<path class="st5" d="M482.8,458.4L482.8,458.4c0-2.3,1.8-4.2,4-4.2h90.5c1.1,0,2.1,0.4,2.8,1.2s1.2,1.9,1.2,3v16.9
											c0,2.3-1.8,4.2-4,4.2h-90.5c-2.2,0-4-1.9-4-4.2V458.4z"/>
									</g>
								</g>
							</g>
							<g id="g740b4d8832_0_0.28_4_">
								<path class="st10" d="M482.5,458.4L482.5,458.4c0-2.3,1.8-4.2,4-4.2H577c1.1,0,2.1,0.4,2.8,1.2s1.2,1.9,1.2,3v16.9
									c0,2.3-1.8,4.2-4,4.2h-90.5c-2.2,0-4-1.9-4-4.2V458.4z"/>
								<path class="st5" d="M482.5,458.4L482.5,458.4c0-2.3,1.8-4.2,4-4.2H577c1.1,0,2.1,0.4,2.8,1.2s1.2,1.9,1.2,3v16.9
									c0,2.3-1.8,4.2-4,4.2h-90.5c-2.2,0-4-1.9-4-4.2V458.4z"/>
							</g>
							<g>
								<g transform="matrix(1.0 0.0 0.0 1.0 1.0 0.0)">
									<g id="g740b4d8832_0_0.29_5_">
										<path class="st10" d="M263.4,461.3L263.4,461.3c0-2.3,1.8-4.2,4-4.2h90.5c1.1,0,2.1,0.4,2.8,1.2c0.8,0.8,1.2,1.9,1.2,3
											v16.9c0,2.3-1.8,4.2-4,4.2h-90.5c-2.2,0-4-1.9-4-4.2V461.3z"/>
										<path class="st5" d="M263.4,461.3L263.4,461.3c0-2.3,1.8-4.2,4-4.2h90.5c1.1,0,2.1,0.4,2.8,1.2c0.8,0.8,1.2,1.9,1.2,3
											v16.9c0,2.3-1.8,4.2-4,4.2h-90.5c-2.2,0-4-1.9-4-4.2V461.3z"/>
									</g>
								</g>
							</g>
							<g id="g740b4d8832_0_0.29_4_">
								<path class="st10" d="M263,461.3L263,461.3c0-2.3,1.8-4.2,4-4.2h90.5c1.1,0,2.1,0.4,2.8,1.2c0.8,0.8,1.2,1.9,1.2,3v16.9
									c0,2.3-1.8,4.2-4,4.2H267c-2.2,0-4-1.9-4-4.2V461.3z"/>
								<path class="st5" d="M263,461.3L263,461.3c0-2.3,1.8-4.2,4-4.2h90.5c1.1,0,2.1,0.4,2.8,1.2c0.8,0.8,1.2,1.9,1.2,3v16.9
									c0,2.3-1.8,4.2-4,4.2H267c-2.2,0-4-1.9-4-4.2V461.3z"/>
							</g>
							<g>
								<g transform="matrix(1.0 0.0 0.0 1.0 1.0 0.0)">
									<g id="g740b4d8832_0_0.30_5_">
										<path class="st10" d="M44.3,458.4L44.3,458.4c0-2.3,1.8-4.2,4-4.2h90.5c1.1,0,2.1,0.4,2.8,1.2s1.2,1.9,1.2,3v16.9
											c0,2.3-1.8,4.2-4,4.2H48.3c-2.2,0-4-1.9-4-4.2V458.4z"/>
										<path class="st5" d="M44.3,458.4L44.3,458.4c0-2.3,1.8-4.2,4-4.2h90.5c1.1,0,2.1,0.4,2.8,1.2s1.2,1.9,1.2,3v16.9
											c0,2.3-1.8,4.2-4,4.2H48.3c-2.2,0-4-1.9-4-4.2V458.4z"/>
									</g>
								</g>
							</g>
							<g id="g740b4d8832_0_0.30_4_">
								<path class="st10" d="M43.9,458.4L43.9,458.4c0-2.3,1.8-4.2,4-4.2h90.5c1.1,0,2.1,0.4,2.8,1.2c0.8,0.8,1.2,1.9,1.2,3v16.9
									c0,2.3-1.8,4.2-4,4.2H47.9c-2.2,0-4-1.9-4-4.2V458.4z"/>
								<path class="st5" d="M43.9,458.4L43.9,458.4c0-2.3,1.8-4.2,4-4.2h90.5c1.1,0,2.1,0.4,2.8,1.2c0.8,0.8,1.2,1.9,1.2,3v16.9
									c0,2.3-1.8,4.2-4,4.2H47.9c-2.2,0-4-1.9-4-4.2V458.4z"/>
							</g>
							<g>
								<g transform="matrix(1.0 0.0 0.0 1.0 1.0 0.0)">
									<g id="g740b4d8832_0_0.31_5_">
										<path class="st10" d="M482.8,419.1L482.8,419.1c0-2.3,1.8-4.2,4-4.2h90.5c1.1,0,2.1,0.4,2.8,1.2s1.2,1.9,1.2,3V436
											c0,2.3-1.8,4.2-4,4.2h-90.5c-2.2,0-4-1.9-4-4.2V419.1z"/>
										<path class="st5" d="M482.8,419.1L482.8,419.1c0-2.3,1.8-4.2,4-4.2h90.5c1.1,0,2.1,0.4,2.8,1.2s1.2,1.9,1.2,3V436
											c0,2.3-1.8,4.2-4,4.2h-90.5c-2.2,0-4-1.9-4-4.2V419.1z"/>
									</g>
								</g>
							</g>
							<g id="g740b4d8832_0_0.31_4_">
								<path class="st10" d="M482.5,419.1L482.5,419.1c0-2.3,1.8-4.2,4-4.2H577c1.1,0,2.1,0.4,2.8,1.2s1.2,1.9,1.2,3V436
									c0,2.3-1.8,4.2-4,4.2h-90.5c-2.2,0-4-1.9-4-4.2V419.1z"/>
								<path class="st5" d="M482.5,419.1L482.5,419.1c0-2.3,1.8-4.2,4-4.2H577c1.1,0,2.1,0.4,2.8,1.2s1.2,1.9,1.2,3V436
									c0,2.3-1.8,4.2-4,4.2h-90.5c-2.2,0-4-1.9-4-4.2V419.1z"/>
							</g>
							<g>
								<g transform="matrix(1.0 0.0 0.0 1.0 1.0 0.0)">
									<g id="g740b4d8832_0_0.32_5_">
										<path class="st10" d="M373.3,419.1L373.3,419.1c0-2.3,1.8-4.2,4-4.2h90.5c1.1,0,2.1,0.4,2.8,1.2c0.8,0.8,1.2,1.9,1.2,3
											V436c0,2.3-1.8,4.2-4,4.2h-90.5c-2.2,0-4-1.9-4-4.2V419.1z"/>
										<path class="st5" d="M373.3,419.1L373.3,419.1c0-2.3,1.8-4.2,4-4.2h90.5c1.1,0,2.1,0.4,2.8,1.2c0.8,0.8,1.2,1.9,1.2,3V436
											c0,2.3-1.8,4.2-4,4.2h-90.5c-2.2,0-4-1.9-4-4.2V419.1z"/>
									</g>
								</g>
							</g>
							<g id="g740b4d8832_0_0.32_4_">
								<path class="st10" d="M372.9,419.1L372.9,419.1c0-2.3,1.8-4.2,4-4.2h90.5c1.1,0,2.1,0.4,2.8,1.2c0.8,0.8,1.2,1.9,1.2,3V436
									c0,2.3-1.8,4.2-4,4.2h-90.5c-2.2,0-4-1.9-4-4.2V419.1z"/>
								<path class="st5" d="M372.9,419.1L372.9,419.1c0-2.3,1.8-4.2,4-4.2h90.5c1.1,0,2.1,0.4,2.8,1.2c0.8,0.8,1.2,1.9,1.2,3V436
									c0,2.3-1.8,4.2-4,4.2h-90.5c-2.2,0-4-1.9-4-4.2V419.1z"/>
							</g>
							<g>
								<g transform="matrix(1.0 0.0 0.0 1.0 1.0 0.0)">
									<g id="g740b4d8832_0_0.33_5_">
										<path class="st10" d="M263.5,420L263.5,420c0-2.3,1.8-4.2,4-4.2H358c1.1,0,2.1,0.4,2.8,1.2c0.8,0.8,1.2,1.9,1.2,3v16.9
											c0,2.3-1.8,4.2-4,4.2h-90.5c-2.2,0-4-1.9-4-4.2V420z"/>
										<path class="st5" d="M263.5,420L263.5,420c0-2.3,1.8-4.2,4-4.2H358c1.1,0,2.1,0.4,2.8,1.2c0.8,0.8,1.2,1.9,1.2,3v16.9
											c0,2.3-1.8,4.2-4,4.2h-90.5c-2.2,0-4-1.9-4-4.2V420z"/>
									</g>
								</g>
							</g>
							<g id="g740b4d8832_0_0.33_4_">
								<path class="st10" d="M263.2,420L263.2,420c0-2.3,1.8-4.2,4-4.2h90.5c1.1,0,2.1,0.4,2.8,1.2c0.8,0.8,1.2,1.9,1.2,3v16.9
									c0,2.3-1.8,4.2-4,4.2h-90.5c-2.2,0-4-1.9-4-4.2V420z"/>
								<path class="st5" d="M263.2,420L263.2,420c0-2.3,1.8-4.2,4-4.2h90.5c1.1,0,2.1,0.4,2.8,1.2c0.8,0.8,1.2,1.9,1.2,3v16.9
									c0,2.3-1.8,4.2-4,4.2h-90.5c-2.2,0-4-1.9-4-4.2V420z"/>
							</g>
							<g>
								<g transform="matrix(1.0 0.0 0.0 1.0 1.0 0.0)">
									<g id="g740b4d8832_0_0.34_5_">
										<path class="st10" d="M44.1,416.2L44.1,416.2c0-2.3,1.8-4.2,4-4.2h90.5c1.1,0,2.1,0.4,2.8,1.2c0.8,0.8,1.2,1.9,1.2,3v16.9
											c0,2.3-1.8,4.2-4,4.2H48.1c-2.2,0-4-1.9-4-4.2V416.2z"/>
										<path class="st5" d="M44.1,416.2L44.1,416.2c0-2.3,1.8-4.2,4-4.2h90.5c1.1,0,2.1,0.4,2.8,1.2c0.8,0.8,1.2,1.9,1.2,3v16.9
											c0,2.3-1.8,4.2-4,4.2H48.1c-2.2,0-4-1.9-4-4.2V416.2z"/>
									</g>
								</g>
							</g>
							<g id="g740b4d8832_0_0.34_4_">
								<path class="st10" d="M43.7,416.2L43.7,416.2c0-2.3,1.8-4.2,4-4.2h90.5c1.1,0,2.1,0.4,2.8,1.2c0.8,0.8,1.2,1.9,1.2,3v16.9
									c0,2.3-1.8,4.2-4,4.2H47.7c-2.2,0-4-1.9-4-4.2V416.2z"/>
								<path class="st5" d="M43.7,416.2L43.7,416.2c0-2.3,1.8-4.2,4-4.2h90.5c1.1,0,2.1,0.4,2.8,1.2c0.8,0.8,1.2,1.9,1.2,3v16.9
									c0,2.3-1.8,4.2-4,4.2H47.7c-2.2,0-4-1.9-4-4.2V416.2z"/>
							</g>
							<g>
								<g transform="matrix(1.0 0.0 0.0 1.0 1.0 0.0)">
									<g id="g740b4d8832_0_0.35_5_">
										<path class="st11" d="M44.1,376.9L44.1,376.9c0-2.3,1.8-4.2,4-4.2h90.5c1.1,0,2.1,0.4,2.8,1.2c0.8,0.8,1.2,1.9,1.2,3v16.9
											c0,2.3-1.8,4.2-4,4.2H48.1c-2.2,0-4-1.9-4-4.2V376.9z"/>
										<path class="st5" d="M44.1,376.9L44.1,376.9c0-2.3,1.8-4.2,4-4.2h90.5c1.1,0,2.1,0.4,2.8,1.2c0.8,0.8,1.2,1.9,1.2,3v16.9
											c0,2.3-1.8,4.2-4,4.2H48.1c-2.2,0-4-1.9-4-4.2V376.9z"/>
									</g>
								</g>
							</g>
							<g id="g740b4d8832_0_0.35_4_">
								<path class="st11" d="M43.7,376.9L43.7,376.9c0-2.3,1.8-4.2,4-4.2h90.5c1.1,0,2.1,0.4,2.8,1.2s1.2,1.9,1.2,3v16.9
									c0,2.3-1.8,4.2-4,4.2H47.7c-2.2,0-4-1.9-4-4.2V376.9z"/>
								<path class="st5" d="M43.7,376.9L43.7,376.9c0-2.3,1.8-4.2,4-4.2h90.5c1.1,0,2.1,0.4,2.8,1.2s1.2,1.9,1.2,3v16.9
									c0,2.3-1.8,4.2-4,4.2H47.7c-2.2,0-4-1.9-4-4.2V376.9z"/>
							</g>
							<g>
								<g transform="matrix(1.0 0.0 0.0 1.0 1.0 0.0)">
									<g id="g740b4d8832_0_0.36_5_">
										<path class="st11" d="M263.5,376.9L263.5,376.9c0-2.3,1.8-4.2,4-4.2H358c1.1,0,2.1,0.4,2.8,1.2c0.8,0.8,1.2,1.9,1.2,3
											v16.9c0,2.3-1.8,4.2-4,4.2h-90.5c-2.2,0-4-1.9-4-4.2V376.9z"/>
										<path class="st5" d="M263.5,376.9L263.5,376.9c0-2.3,1.8-4.2,4-4.2H358c1.1,0,2.1,0.4,2.8,1.2c0.8,0.8,1.2,1.9,1.2,3v16.9
											c0,2.3-1.8,4.2-4,4.2h-90.5c-2.2,0-4-1.9-4-4.2V376.9z"/>
									</g>
								</g>
							</g>
							<g id="g740b4d8832_0_0.36_4_">
								<path class="st11" d="M263.2,376.9L263.2,376.9c0-2.3,1.8-4.2,4-4.2h90.5c1.1,0,2.1,0.4,2.8,1.2s1.2,1.9,1.2,3v16.9
									c0,2.3-1.8,4.2-4,4.2h-90.5c-2.2,0-4-1.9-4-4.2V376.9z"/>
								<path class="st5" d="M263.2,376.9L263.2,376.9c0-2.3,1.8-4.2,4-4.2h90.5c1.1,0,2.1,0.4,2.8,1.2s1.2,1.9,1.2,3v16.9
									c0,2.3-1.8,4.2-4,4.2h-90.5c-2.2,0-4-1.9-4-4.2V376.9z"/>
							</g>
							<g>
								<g transform="matrix(1.0 0.0 0.0 1.0 1.0 0.0)">
									<g id="g740b4d8832_0_0.37_5_">
										<path class="st11" d="M373.3,376.9L373.3,376.9c0-2.3,1.8-4.2,4-4.2h90.5c1.1,0,2.1,0.4,2.8,1.2c0.8,0.8,1.2,1.9,1.2,3
											v16.9c0,2.3-1.8,4.2-4,4.2h-90.5c-2.2,0-4-1.9-4-4.2V376.9z"/>
										<path class="st5" d="M373.3,376.9L373.3,376.9c0-2.3,1.8-4.2,4-4.2h90.5c1.1,0,2.1,0.4,2.8,1.2c0.8,0.8,1.2,1.9,1.2,3
											v16.9c0,2.3-1.8,4.2-4,4.2h-90.5c-2.2,0-4-1.9-4-4.2V376.9z"/>
									</g>
								</g>
							</g>
							<g id="g740b4d8832_0_0.37_4_">
								<path class="st11" d="M372.9,376.9L372.9,376.9c0-2.3,1.8-4.2,4-4.2h90.5c1.1,0,2.1,0.4,2.8,1.2s1.2,1.9,1.2,3v16.9
									c0,2.3-1.8,4.2-4,4.2h-90.5c-2.2,0-4-1.9-4-4.2V376.9z"/>
								<path class="st5" d="M372.9,376.9L372.9,376.9c0-2.3,1.8-4.2,4-4.2h90.5c1.1,0,2.1,0.4,2.8,1.2s1.2,1.9,1.2,3v16.9
									c0,2.3-1.8,4.2-4,4.2h-90.5c-2.2,0-4-1.9-4-4.2V376.9z"/>
							</g>
							<g>
								<g transform="matrix(1.0 0.0 0.0 1.0 1.0 0.0)">
									<g id="g740b4d8832_0_0.38_5_">
										<path class="st11" d="M483,376.9L483,376.9c0-2.3,1.8-4.2,4-4.2h90.5c1.1,0,2.1,0.4,2.8,1.2c0.8,0.8,1.2,1.9,1.2,3v16.9
											c0,2.3-1.8,4.2-4,4.2H487c-2.2,0-4-1.9-4-4.2V376.9z"/>
										<path class="st5" d="M483,376.9L483,376.9c0-2.3,1.8-4.2,4-4.2h90.5c1.1,0,2.1,0.4,2.8,1.2c0.8,0.8,1.2,1.9,1.2,3v16.9
											c0,2.3-1.8,4.2-4,4.2H487c-2.2,0-4-1.9-4-4.2V376.9z"/>
									</g>
								</g>
							</g>
							<g id="g740b4d8832_0_0.38_4_">
								<path class="st11" d="M482.7,376.9L482.7,376.9c0-2.3,1.8-4.2,4-4.2h90.5c1.1,0,2.1,0.4,2.8,1.2c0.8,0.8,1.2,1.9,1.2,3v16.9
									c0,2.3-1.8,4.2-4,4.2h-90.5c-2.2,0-4-1.9-4-4.2V376.9z"/>
								<path class="st5" d="M482.7,376.9L482.7,376.9c0-2.3,1.8-4.2,4-4.2h90.5c1.1,0,2.1,0.4,2.8,1.2c0.8,0.8,1.2,1.9,1.2,3v16.9
									c0,2.3-1.8,4.2-4,4.2h-90.5c-2.2,0-4-1.9-4-4.2V376.9z"/>
							</g>
							<g>
								<g transform="matrix(1.0 0.0 0.0 1.0 1.0 0.0)">
									<g id="g740b4d8832_0_0.39_5_">
										<path class="st11" d="M592.8,376.9L592.8,376.9c0-2.3,1.8-4.2,4-4.2h90.5c1.1,0,2.1,0.4,2.8,1.2c0.8,0.8,1.2,1.9,1.2,3
											v16.9c0,2.3-1.8,4.2-4,4.2h-90.5c-2.2,0-4-1.9-4-4.2V376.9z"/>
										<path class="st5" d="M592.8,376.9L592.8,376.9c0-2.3,1.8-4.2,4-4.2h90.5c1.1,0,2.1,0.4,2.8,1.2c0.8,0.8,1.2,1.9,1.2,3
											v16.9c0,2.3-1.8,4.2-4,4.2h-90.5c-2.2,0-4-1.9-4-4.2V376.9z"/>
									</g>
								</g>
							</g>
							<g id="g740b4d8832_0_0.39_4_">
								<path class="st11" d="M592.4,376.9L592.4,376.9c0-2.3,1.8-4.2,4-4.2h90.5c1.1,0,2.1,0.4,2.8,1.2c0.8,0.8,1.2,1.9,1.2,3v16.9
									c0,2.3-1.8,4.2-4,4.2h-90.5c-2.2,0-4-1.9-4-4.2V376.9z"/>
								<path class="st5" d="M592.4,376.9L592.4,376.9c0-2.3,1.8-4.2,4-4.2h90.5c1.1,0,2.1,0.4,2.8,1.2c0.8,0.8,1.2,1.9,1.2,3v16.9
									c0,2.3-1.8,4.2-4,4.2h-90.5c-2.2,0-4-1.9-4-4.2V376.9z"/>
							</g>
						</g>
					</g>
				</g>
			</g>
		</g>
	</g>
	<path class="st12" d="M365,666.3c0.3-0.3,0.6-0.6,0.9-0.9h-0.3C365.5,665.7,365.3,666,365,666.3z"/>
	<path class="st13" d="M705.6,196.2L427.8,35.8L367.5,1l-60.3,34.8L29.4,196.2L0.1,213.1v424.3l29.3,16.9l281.3,162.4l56.9,32.8
		l56.9-32.8l281.3-162.4l29.3-16.9V213.1L705.6,196.2z M705.6,621.5L367.5,816.7L29.4,621.5V231L367.5,35.8l0,0L705.6,231V621.5z"/>
	<g>
		<path class="st8" d="M365.5,797.3l4.5,4.5c1,1,1.9,1.9,2.7,2.9h0.1c-0.4-1.2-0.7-2.5-1-3.8l-1.4-6.3l1.6-0.9l4.7,4.3
			c1.1,1,2.1,2,2.9,2.9h0.1c-0.4-1.2-0.8-2.4-1.2-3.9l-1.6-6.1l1.9-1.1l2.7,12.4l-1.7,1l-4.5-4.1c-1-1-2-1.8-2.9-2.9l0,0
			c0.5,1.4,0.8,2.7,1.1,4l1.2,5.9l-1.7,1l-9.2-8.6L365.5,797.3z"/>
		<path class="st8" d="M381.7,787.9l4.5,4.5c1,1,1.9,1.9,2.7,2.9h0.1c-0.4-1.2-0.7-2.5-1-3.8l-1.4-6.3l1.6-0.9l4.7,4.3
			c1.1,1,2.1,2,2.9,2.9h0.1c-0.4-1.2-0.8-2.4-1.2-3.9l-1.6-6.1l1.9-1.1l2.7,12.4l-1.7,1l-4.5-4.1c-1-1-2-1.8-2.9-2.9l0,0
			c0.5,1.4,0.8,2.7,1.1,4l1.2,5.9l-1.7,1l-9.2-8.6L381.7,787.9z"/>
		<path class="st8" d="M397.8,778.5l4.5,4.5c1,1,1.9,1.9,2.7,2.9h0.1c-0.4-1.2-0.7-2.5-1-3.8l-1.4-6.3l1.6-0.9l4.7,4.3
			c1.1,1,2.1,2,2.9,2.9h0.1c-0.4-1.2-0.8-2.4-1.2-3.9l-1.6-6.1l1.9-1.1l2.7,12.4l-1.7,1l-4.5-4.1c-1-1-2-1.8-2.9-2.9l0,0
			c0.5,1.4,0.8,2.7,1.1,4l1.2,5.9l-1.7,1l-9.2-8.6L397.8,778.5z"/>
		<path class="st8" d="M417.1,779.7c-0.5-0.8-0.3-1.7,0.5-2.1c0.8-0.4,1.6-0.2,2.1,0.6s0.3,1.7-0.5,2.1
			C418.4,780.8,417.6,780.5,417.1,779.7z"/>
		<path class="st8" d="M418.5,770.8c-0.7-1.2-1.4-2.3-2-3.2l1.7-1l1.3,2h0.1c-0.3-1.7,0.3-3.2,1.6-4c0.2-0.1,0.4-0.2,0.6-0.2l1,1.8
			c-0.2,0.1-0.4,0.2-0.7,0.3c-1.3,0.8-1.7,2.3-1.1,3.9c0.1,0.3,0.2,0.6,0.4,0.9l3.2,5.6l-1.9,1.1L418.5,770.8z"/>
		<path class="st8" d="M428.4,772.1c0.8,0,2-0.2,2.9-0.7c1.4-0.8,1.6-1.9,1.1-2.7c-0.5-0.9-1.4-1.1-3.1-0.8
			c-2.3,0.4-3.8-0.1-4.5-1.3c-1-1.7-0.4-3.9,1.8-5.2c1.1-0.6,2.2-0.9,2.9-0.8l0.3,1.7c-0.6,0-1.5,0.1-2.5,0.6
			c-1.1,0.7-1.4,1.7-0.9,2.4c0.5,0.9,1.4,0.9,3,0.6c2.2-0.4,3.7,0,4.6,1.6c1.1,1.8,0.4,4-2.1,5.4c-1.1,0.7-2.4,1-3.4,1L428.4,772.1z
			"/>
		<path class="st8" d="M432.8,754.1l1.8,3l2.7-1.6l0.8,1.4l-2.7,1.6l3.3,5.6c0.8,1.3,1.6,1.8,2.6,1.2c0.5-0.3,0.8-0.6,1-0.8l0.9,1.4
			c-0.3,0.4-0.8,0.8-1.5,1.2c-0.9,0.5-1.8,0.7-2.5,0.4c-0.9-0.2-1.6-1.1-2.3-2.3l-3.3-5.7l-1.6,0.9l-0.8-1.4l1.6-0.9l-1.5-2.5
			L432.8,754.1z"/>
		<path class="st8" d="M452.6,756.8c0.6,1.1,1.2,2,1.7,2.8l-1.7,1l-1.1-1.6l0,0c0,1.1-0.5,2.9-2.3,4c-1.6,1-4.1,1.2-6.3-2.5
			l-3.6-6.1l1.9-1.1l3.4,5.8c1.2,2,2.5,3,4.3,2c1.3-0.7,1.6-2.1,1.5-3.2c-0.1-0.3-0.2-0.7-0.4-1.1l-3.7-6.4l1.9-1.1L452.6,756.8z"/>
		<path class="st8" d="M457.5,737.2l7.4,12.6c0.5,0.9,1.2,2,1.7,2.6l-1.7,1l-1.1-1.8l0,0c0.1,1.5-0.7,3.1-2.4,4.1
			c-2.5,1.5-5.7,0.5-7.6-2.7c-2-3.5-1.1-6.9,1.4-8.3c1.6-0.9,3.1-0.8,4.1-0.2l0,0l-3.6-6.2L457.5,737.2z M460.9,747.5
			c-0.1-0.2-0.3-0.5-0.6-0.8c-1-1-2.6-1.4-4-0.6c-2,1.1-2.1,3.6-0.8,5.9c1.2,2.1,3.3,3.3,5.3,2.1c1.3-0.7,2-2.3,1.5-3.9
			c-0.1-0.3-0.2-0.6-0.4-0.9L460.9,747.5z"/>
		<path class="st8" d="M463.9,736.1c0.4,0.6,0.2,1.4-0.5,1.9c-0.7,0.4-1.4,0.1-1.8-0.5c-0.4-0.7-0.2-1.5,0.5-1.9
			C462.7,735.2,463.5,735.4,463.9,736.1z M469.6,750.7l-6.1-10.5l1.9-1.1l6.1,10.5L469.6,750.7z"/>
		<path class="st8" d="M481,736.9c2.2,3.9,0.6,7.1-2,8.6c-2.8,1.6-6.2,0.8-8.1-2.5c-2-3.5-0.9-6.9,1.9-8.6
			C475.8,732.7,479.1,733.7,481,736.9z M472.8,741.9c1.3,2.3,3.7,3.2,5.5,2.2c1.8-1.1,2.2-3.6,0.8-5.9c-1-1.8-3.2-3.5-5.5-2.2
			C471.4,737.3,471.6,739.9,472.8,741.9z"/>
		<path class="st8" d="M484.9,740.3c-0.5-0.8-0.3-1.7,0.5-2.1s1.6-0.2,2.1,0.6s0.3,1.7-0.5,2.1C486.2,741.4,485.3,741.1,484.9,740.3
			z"/>
		<path class="st8" d="M497.7,733.8c-0.3,0.5-1.2,1.5-2.7,2.4c-3.2,1.8-6.4,0.9-8.3-2.3s-1-6.8,2.4-8.8c1.1-0.7,2.3-1,2.9-1l0.4,1.7
			c-0.6,0-1.5,0.2-2.5,0.8c-2.4,1.4-2.7,3.9-1.4,6.1c1.4,2.4,3.8,3,5.9,1.8c1.1-0.6,1.6-1.3,2-1.9L497.7,733.8z"/>
		<path class="st8" d="M506.4,722.2c2.2,3.9,0.6,7.1-2,8.6c-2.8,1.6-6.2,0.8-8.1-2.5c-2-3.5-0.9-6.9,2-8.6
			C501.2,718,504.5,719,506.4,722.2z M498.1,727.1c1.3,2.3,3.7,3.2,5.5,2.2c1.8-1.1,2.2-3.6,0.8-5.9c-1-1.8-3.2-3.5-5.5-2.2
			C496.7,722.5,497,725.1,498.1,727.1z"/>
		<path class="st8" d="M507.4,718.5c-0.6-1.1-1.2-2-1.7-2.8l1.7-1l1.1,1.6h0.1c0-1.3,0.4-2.8,2.2-3.8c1.4-0.8,3-0.6,4.2,0.4l0,0
			c0-0.8,0.1-1.5,0.4-2c0.3-0.8,0.9-1.5,1.9-2.1c1.4-0.8,4-1.1,6.1,2.5l3.6,6.2l-1.9,1.1l-3.4-5.9c-1.2-2-2.6-2.8-4.1-1.9
			c-1.1,0.6-1.5,1.9-1.2,3c0.1,0.3,0.2,0.7,0.4,1l3.8,6.5l-1.9,1.1l-3.6-6.3c-1-1.7-2.4-2.4-3.9-1.6c-1.2,0.7-1.5,2.1-1.2,3.3
			c0.1,0.3,0.2,0.7,0.4,1l3.7,6.3l-1.9,1.1L507.4,718.5z"/>
	</g>
</g>
</svg>
