<svg xmlns="http://www.w3.org/2000/svg" xmlns:xlink="http://www.w3.org/1999/xlink" viewBox="0 0 735 852"><defs><style>.cls-1{fill:none;}.cls-2,.cls-24{fill:#003e6d;}.cls-3{fill:#44515c;}.cls-26,.cls-4{isolation:isolate;}.cls-5{opacity:0.94;}.cls-6{opacity:0.25;mix-blend-mode:multiply;}.cls-7{clip-path:url(#clip-path);}.cls-8{clip-path:url(#clip-path-2);}.cls-9{clip-path:url(#clip-path-3);}.cls-10{opacity:0.95;}.cls-11{clip-path:url(#clip-path-4);}.cls-12,.cls-17,.cls-34{fill:#fff;}.cls-13{clip-path:url(#clip-path-5);}.cls-14{fill:#005198;}.cls-15{fill:#e6b35a;}.cls-16{opacity:0.2;}.cls-17{font-size:25px;font-family:MyriadPro-Regular, Myriad Pro;}.cls-18{letter-spacing:0.01em;}.cls-19{letter-spacing:-0.04em;}.cls-20{letter-spacing:-0.02em;}.cls-21{letter-spacing:-0.01em;}.cls-22{letter-spacing:0em;}.cls-23,.cls-43{fill:#213056;}.cls-24,.cls-26,.cls-34,.cls-43{opacity:0.94;}.cls-25{clip-path:url(#clip-path-6);}.cls-27{clip-path:url(#clip-path-7);}.cls-28{clip-path:url(#clip-path-8);}.cls-29{clip-path:url(#clip-path-9);}.cls-30{clip-path:url(#clip-path-10);}.cls-31{clip-path:url(#clip-path-11);}.cls-32{clip-path:url(#clip-path-12);}.cls-33{clip-path:url(#clip-path-13);}.cls-35{clip-path:url(#clip-path-14);}.cls-36{clip-path:url(#clip-path-15);}.cls-37{clip-path:url(#clip-path-16);}.cls-38{clip-path:url(#clip-path-17);}.cls-39{clip-path:url(#clip-path-18);}.cls-40{clip-path:url(#clip-path-19);}.cls-41{clip-path:url(#clip-path-20);}.cls-42{clip-path:url(#clip-path-21);}</style><clipPath id="clip-path"><path class="cls-1" d="M4625.67,1546.27l-338.12,195.21-338.12-195.21V1155.83l338.12-195.21h0l338.12,195.21Z"/></clipPath><clipPath id="clip-path-2"><polygon class="cls-1" points="4131.48 1330.04 4439.14 1330.04 11018.06 5511.31 -2447.44 5511.31 4131.48 1330.04"/></clipPath><clipPath id="clip-path-3"><path class="cls-1" d="M4624.17,1544.77,4286.05,1740l-338.12-195.21V1154.33l338.12-195.21h0l338.12,195.21Z"/></clipPath><clipPath id="clip-path-4"><polygon class="cls-1" points="4129.98 1328.54 4437.64 1328.54 11016.56 5509.81 -2448.94 5509.81 4129.98 1328.54"/></clipPath><clipPath id="clip-path-5"><polygon class="cls-3" points="369.51 7.4 728.21 214.47 728.21 636.62 369.51 845.03 2.79 636.62 2.79 214.47 369.51 7.4"/></clipPath><clipPath id="clip-path-6"><path class="cls-2" d="M205.47,431.34l.31,7.2c0-.26,0-.52-.05-.78l-.09-.78c0-.26-.08-.51-.14-.75a7.15,7.15,0,0,0-.18-.7l-.31-7.19c.07.22.13.45.19.7s.09.49.13.75.07.51.09.77S205.46,431.09,205.47,431.34Z"/></clipPath><clipPath id="clip-path-7"><path class="cls-2" d="M255.9,429.21l.21,7.19c-.09.31-.19.64-.3,1s-.2.7-.3,1.07-.17.76-.23,1.17a8.41,8.41,0,0,0-.12,1.25l-.21-7.19a10.35,10.35,0,0,1,.11-1.26c.07-.4.15-.79.24-1.16s.2-.73.3-1.07S255.81,429.52,255.9,429.21Z"/></clipPath><clipPath id="clip-path-8"><path class="cls-2" d="M301.42,437.28l.12,7.19a23.65,23.65,0,0,0-1.6-8.29,20,20,0,0,0-4.44-6.81,20.33,20.33,0,0,0-7.21-4.62,27.36,27.36,0,0,0-9.9-1.7,28.33,28.33,0,0,0-7.16.91,26.05,26.05,0,0,0-6.45,2.65,21.41,21.41,0,0,0-5.22,4.2,18.1,18.1,0,0,0-3.45,5.59l-.21-7.19a18.1,18.1,0,0,1,3.46-5.6,21.7,21.7,0,0,1,5.23-4.2,26.33,26.33,0,0,1,6.46-2.64,28.49,28.49,0,0,1,7.18-.92,27.51,27.51,0,0,1,9.92,1.71,20.24,20.24,0,0,1,7.21,4.62,19.8,19.8,0,0,1,4.45,6.81A23.43,23.43,0,0,1,301.42,437.28Z"/></clipPath><clipPath id="clip-path-9"><path class="cls-2" d="M514.19,440.55l-.29,7.19c0-.18,0-.35,0-.53v-.53c0-.18,0-.35,0-.53s0-.36,0-.54a25.76,25.76,0,0,0-1.64-7.93,24.36,24.36,0,0,0-4.47-7.45,22,22,0,0,0-7.57-5.52,26.77,26.77,0,0,0-11-2.16,28.2,28.2,0,0,0-10.51,1.86,20.33,20.33,0,0,0-7.3,4.93,20.88,20.88,0,0,0-4.33,7,24.84,24.84,0,0,0-1.55,8.05l.2-7.19a24.79,24.79,0,0,1,1.55-8.05,20.78,20.78,0,0,1,4.33-7,20.5,20.5,0,0,1,7.32-4.93,28.13,28.13,0,0,1,10.54-1.86,26.9,26.9,0,0,1,11,2.16,22.09,22.09,0,0,1,7.58,5.52,24.16,24.16,0,0,1,4.47,7.45,25.49,25.49,0,0,1,1.65,7.93c0,.18,0,.36,0,.53V440C514.2,440.2,514.2,440.37,514.19,440.55Z"/></clipPath><clipPath id="clip-path-10"><path class="cls-2" d="M160.14,449.11l-.4-7.19,0-.74c0-.25,0-.5,0-.75s0-.5,0-.75l0-.76a27,27,0,0,1,2.14-9.26,22.38,22.38,0,0,1,12.81-12.18,28.33,28.33,0,0,1,10.08-1.75,27.36,27.36,0,0,1,7.46,1,21.81,21.81,0,0,1,6,2.71,17.26,17.26,0,0,1,4.34,4,13.78,13.78,0,0,1,2.42,4.9l.31,7.19a14.18,14.18,0,0,0-2.41-4.9,17.26,17.26,0,0,0-4.34-4,21.6,21.6,0,0,0-6-2.7,27.21,27.21,0,0,0-7.44-1,28.18,28.18,0,0,0-10.06,1.75,22.34,22.34,0,0,0-12.79,12.18,27,27,0,0,0-2.13,9.26l0,.76c0,.25,0,.5,0,.75s0,.5,0,.75S160.12,448.86,160.14,449.11Z"/></clipPath><clipPath id="clip-path-11"><path class="cls-2" d="M254.83,452.27l-.21-7.19v-.54l.21,7.19v.54Z"/></clipPath><clipPath id="clip-path-12"><path class="cls-2" d="M554.3,465.57l-.37,7.19a13.22,13.22,0,0,1-2.77-2.87,15.8,15.8,0,0,1-1.92-3.62,24.14,24.14,0,0,1-1.18-4.36,38.49,38.49,0,0,1-.55-5l.36-7.19a38.49,38.49,0,0,0,.55,5,23.81,23.81,0,0,0,1.18,4.35,15.69,15.69,0,0,0,1.93,3.63A13.45,13.45,0,0,0,554.3,465.57Z"/></clipPath><clipPath id="clip-path-13"><path class="cls-2" d="M219.32,473.63c-.09-2.4-.19-4.79-.28-7.19,0-1-.06-2-.07-3.11s0-2.21,0-3.34,0-2.28.07-3.42.06-2.27.11-3.37l.28,7.19c0,1.1-.08,2.23-.11,3.37s0,2.29-.07,3.42,0,2.26,0,3.34S219.28,472.65,219.32,473.63Z"/></clipPath><clipPath id="clip-path-14"><path class="cls-2" d="M583.2,468.73l-.43,7.2c-.69.22-1.49.42-2.38.61s-1.89.35-3,.48-2.25.24-3.5.32-2.59.11-4,.11a35.84,35.84,0,0,1-4.85-.31,27.83,27.83,0,0,1-4.33-.9,20.51,20.51,0,0,1-3.74-1.47,16.6,16.6,0,0,1-3.07-2l.37-7.19a16.36,16.36,0,0,0,3.08,2,22.18,22.18,0,0,0,3.75,1.47,28.08,28.08,0,0,0,4.33.9,37.86,37.86,0,0,0,4.87.31c1.41,0,2.75,0,4-.12s2.43-.18,3.51-.31,2.08-.3,3-.48A22.16,22.16,0,0,0,583.2,468.73Z"/></clipPath><clipPath id="clip-path-15"><path class="cls-2" d="M145.48,450.47l-.43-7.19A27.94,27.94,0,0,0,148,454.37a27.11,27.11,0,0,0,6.91,8.56A31.71,31.71,0,0,0,165,468.44a39.91,39.91,0,0,0,12.57,1.94,45.18,45.18,0,0,0,9.25-.92,38.28,38.28,0,0,0,7.9-2.53,31.24,31.24,0,0,0,6.4-3.82,24.94,24.94,0,0,0,4.72-4.75l.3,7.2a25.1,25.1,0,0,1-4.7,4.75,32.06,32.06,0,0,1-6.38,3.81,38.29,38.29,0,0,1-7.9,2.54,45.67,45.67,0,0,1-9.22.92,39.78,39.78,0,0,1-12.55-1.95,31.52,31.52,0,0,1-10.1-5.51,26.94,26.94,0,0,1-6.89-8.56A27.89,27.89,0,0,1,145.48,450.47Z"/></clipPath><clipPath id="clip-path-16"><path class="cls-2" d="M315.92,436.56l.1,7.19v.93c0,.1,0,.2,0,.3a32.55,32.55,0,0,1-3.27,14.21,30.24,30.24,0,0,1-8.3,10.2,36.61,36.61,0,0,1-11.62,6.14,43.47,43.47,0,0,1-13.22,2.05,48.16,48.16,0,0,1-8.24-.67,33.31,33.31,0,0,1-7.23-2.06,26.07,26.07,0,0,1-6.12-3.58,24.94,24.94,0,0,1-4.92-5.21l-.22-7.19a24.68,24.68,0,0,0,4.93,5.2,26.23,26.23,0,0,0,6.14,3.59,33.8,33.8,0,0,0,7.24,2.06,48.34,48.34,0,0,0,8.26.66,43.63,43.63,0,0,0,13.24-2,37.07,37.07,0,0,0,11.65-6.14,30.35,30.35,0,0,0,8.31-10.2,32.59,32.59,0,0,0,3.28-14.21v-.31c0-.1,0-.2,0-.31v-.3C315.93,436.76,315.93,436.66,315.92,436.56Z"/></clipPath><clipPath id="clip-path-17"><path class="cls-2" d="M529,441.16l-.32,7.19a27.46,27.46,0,0,1-3.79,13.08,28.51,28.51,0,0,1-8.85,9.11,40.62,40.62,0,0,1-12.17,5.31,53.69,53.69,0,0,1-13.69,1.73,51.73,51.73,0,0,1-15.24-2.21,38.72,38.72,0,0,1-12.37-6.3,29.87,29.87,0,0,1-8.36-9.88A29.15,29.15,0,0,1,451,446.24c0-.14,0-.28,0-.41V445c0-.13,0-.27,0-.4l.17-7.19c0,.13,0,.26,0,.4v.81c0,.14,0,.28,0,.41a29.33,29.33,0,0,0,3.25,13,30.17,30.17,0,0,0,8.38,9.88,39.14,39.14,0,0,0,12.39,6.3,52,52,0,0,0,15.28,2.2,54.42,54.42,0,0,0,13.72-1.72,41,41,0,0,0,12.19-5.31,28.57,28.57,0,0,0,8.87-9.11A27.6,27.6,0,0,0,529,441.16Z"/></clipPath><clipPath id="clip-path-18"><path class="cls-2" d="M331,423.28c0,2.4,0,4.79.07,7.19,0-1.38,0-2.72-.07-4s-.07-2.53-.11-3.75-.09-2.39-.14-3.54-.11-2.28-.16-3.38l-.06-7.19c.05,1.1.1,2.23.16,3.38s.1,2.33.14,3.54.08,2.46.11,3.75S331,421.9,331,423.28Z"/></clipPath><clipPath id="clip-path-19"><path class="cls-2" d="M391.83,438.66l-.06,7.19v-.49a24,24,0,0,0-1.61-8.59,20.94,20.94,0,0,0-4.58-7.1,21.23,21.23,0,0,0-7.41-4.84,28.55,28.55,0,0,0-17.23-.83,25,25,0,0,0-6.37,2.71,21.13,21.13,0,0,0-5.06,4.25,17.11,17.11,0,0,0-3.23,5.57c-.12.34-.25.69-.36,1.06s-.23.74-.32,1.12a11.7,11.7,0,0,0-.23,1.15,8.89,8.89,0,0,0-.09,1.14l0-7.19a7.3,7.3,0,0,1,.09-1.14,11.64,11.64,0,0,1,.22-1.15c.1-.38.21-.75.32-1.12s.24-.72.37-1.07a17.17,17.17,0,0,1,3.23-5.56,21.18,21.18,0,0,1,5.07-4.25,25.18,25.18,0,0,1,6.38-2.71,28.47,28.47,0,0,1,17.27.83,21.3,21.3,0,0,1,7.42,4.83,21,21,0,0,1,4.59,7.11,24,24,0,0,1,1.62,8.59v.49Z"/></clipPath><clipPath id="clip-path-20"><path class="cls-2" d="M345.23,451.48c0-2.4,0-4.79,0-7.19v-.13l0,7.2v.12Z"/></clipPath><clipPath id="clip-path-21"><path class="cls-2" d="M406.31,438.59l-.08,7.19a32.28,32.28,0,0,1-3.11,13.88,28.85,28.85,0,0,1-8,9.95,35.33,35.33,0,0,1-11.49,6,46.08,46.08,0,0,1-21.14,1.35,36.68,36.68,0,0,1-6.86-1.89,27.88,27.88,0,0,1-5.77-3,20,20,0,0,1-4.37-4.06l0-7.19a19.83,19.83,0,0,0,4.38,4.06,27.63,27.63,0,0,0,5.77,3,37.1,37.1,0,0,0,6.88,1.88,44.25,44.25,0,0,0,7.67.65,45.39,45.39,0,0,0,13.51-2,35.35,35.35,0,0,0,11.51-6,28.75,28.75,0,0,0,8-9.94A32.28,32.28,0,0,0,406.31,438.59Z"/></clipPath></defs><title>dbplot</title><g class="cls-4"><g id="Layer_1" data-name="Layer 1"><g class="cls-5"><g class="cls-6"><g class="cls-7"><g class="cls-8"><polyline points="22655.94 17963.74 22655.94 17963.74 -10112.06 -14804.26 -10112.06 -14804.26 22655.94 17963.74"/><polyline points="-10112.06 17963.74 -10112.06 17963.74 22655.94 -14804.26 22655.94 -14804.26 -10112.06 17963.74"/></g></g></g><g class="cls-9"><g class="cls-10"><g class="cls-4"><g class="cls-11"><polyline class="cls-12" points="22654.44 17962.24 22654.44 17962.24 -10113.56 -14805.76 -10113.56 -14805.76 22654.44 17962.24"/><polyline class="cls-12" points="-10113.56 17962.24 -10113.56 17962.24 22654.44 -14805.76 22654.44 -14805.76 -10113.56 17962.24"/></g></g></g></g></g><polygon class="cls-3" points="369.51 7.4 728.21 214.47 728.21 636.62 369.51 845.03 2.79 636.62 2.79 214.47 369.51 7.4"/><g class="cls-13"><circle class="cls-14" cx="365.5" cy="437.45" r="442.13" transform="translate(-202.27 386.57) rotate(-45)"/><path class="cls-14" d="M683.21,107.07c0,129.59-141.14,234.64-315.24,234.64S52.72,236.66,52.72,107.07,193.86-127.56,368-127.56,683.21-22.51,683.21,107.07Z"/></g><path class="cls-15" d="M367,633.9c.29-.29.61-.59.94-.89h-.26C367.49,633.31,367.26,633.61,367,633.9Z"/><path class="cls-3" d="M705.61,196.21,427.81,35.82,367.5,1,307.19,35.82,29.37,196.22.09,213.13V637.38l29.28,16.91L310.65,816.68l56.85,32.83,56.85-32.83L705.61,654.3l29.3-16.92V213.13Zm0,425.26L367.49,816.68,29.37,621.47V231L367.49,35.82h0L705.61,231Z"/><g id="xwNXnP.tif" class="cls-16"><g class="cls-4"><path class="cls-12" d="M372.17,160.18c-1.16,0-2.31,0-3.47,0s-2.32,0-3.47.09-2.32.09-3.47.15-2.32.14-3.47.23c-8.93.67-17.84,1.35-26.74,2.11s-17.74,1.61-26.57,2.6-17.58,2.12-26.31,3.48-17.36,2.91-25.93,4.75q-19.26,4.14-37.84,9.61-18.4,5.46-36,12.36-17.38,6.85-33.75,15.26A328.5,328.5,0,0,0,114,229.09a253.45,253.45,0,0,0-21.2,15.68A211,211,0,0,0,74,262.29a185.84,185.84,0,0,0-16.14,19.45,175.75,175.75,0,0,0-13.21,21.4,120.48,120.48,0,0,0-6.78,15.47,106.25,106.25,0,0,0-6.19,34.47A117.59,117.59,0,0,0,33,372.19a132.2,132.2,0,0,0,5.08,21.6A139.72,139.72,0,0,0,46.52,414,155.63,155.63,0,0,0,58,432.92a178.51,178.51,0,0,0,14.3,17.65,229.22,229.22,0,0,0,40.4,34.91c6.68,4.55,13.41,8.65,20.15,12.43s13.33,7.16,20,10.39q15.1,7.35,29.75,13.05,14.46,5.67,28.61,10c9.35,2.89,18.63,5.39,27.86,7.58s18.28,4,27.38,5.66c5.05.9,10.09,1.76,15.11,2.54s10,1.5,15,2.14,9.92,1.2,14.86,1.67,9.88.84,14.82,1.11c3.51.19,7,.43,10.53.68l10.5.78c3.5.25,7,.47,10.48.63s7,.26,10.44.26c.84,0,1.68,0,2.53,0l2.53,0,2.53-.1,2.53-.15c5-.32,9.91-.6,14.87-.87s10-.53,14.93-.83,10-.65,15-1.07,10-.94,15.1-1.59q12.06-1.53,24.19-3.53c8.12-1.35,16.27-2.87,24.46-4.62s16.53-3.76,24.89-6,16.94-4.84,25.54-7.73c7.86-2.64,15.77-5.5,23.69-8.68s16.08-6.74,24.18-10.69S601.59,500,609.92,495s17-10.77,25.7-17.17Q641.94,473.2,648,468c4.06-3.51,8-7.21,11.9-11.13s7.72-8.17,11.4-12.6S678.62,435,682.1,430c.21-.3.4-.59.6-.87s.4-.55.61-.79a5.34,5.34,0,0,1,.7-.65,3.55,3.55,0,0,1,.87-.44l4.11-8.76,4.22-9,4.33-9.24,4.45-9.49c.23-2.77.61-5.63,1-8.53s.93-5.91,1.39-8.9.88-6,1.16-9a70.82,70.82,0,0,0,.32-8.93q-.25-7.41-1.18-14.42a124.22,124.22,0,0,0-2.57-13.77,108.79,108.79,0,0,0-4.06-13A97.53,97.53,0,0,0,692.46,302a197.42,197.42,0,0,0-24.52-34.95,217.79,217.79,0,0,0-31.69-29.52,271.14,271.14,0,0,0-37.91-24.11,374.2,374.2,0,0,0-43-19.22q-13.1-5-26.58-9.24t-27.48-7.79q-14-3.51-28.33-6.11c-9.59-1.72-19.27-3.13-29.05-4.17-5.94-.64-11.87-1.37-17.82-2.12s-11.92-1.51-17.89-2.19-12-1.29-18-1.72-12-.69-18.07-.69"/><path class="cls-12" d="M569.39,666.69a14.25,14.25,0,0,0-2.07,2.34c-.56.79-1,1.6-1.49,2.4s-.9,1.61-1.41,2.4a16.35,16.35,0,0,1-1.8,2.35,83.21,83.21,0,0,1-9.24,8.4,98.21,98.21,0,0,1-10.14,6.95c-3.49,2.09-7.12,4-10.85,5.78s-7.49,3.37-11.35,4.88q-8.22,3.19-16.39,5.81t-16.21,4.7q-8,2.1-16.1,3.75t-16.06,2.95q-5.46.89-10.89,1.63t-10.82,1.39q-5.38.63-10.77,1.17t-10.74,1q-6,.51-11.92.82t-11.86.51q-5.92.18-11.83.3l-11.81.22h-1.91c-1.23,0-2.47,0-3.71-.05l-3.74-.12-3.76-.12c-1.25,0-2.5-.08-3.75-.09L345,726c-1.24,0-2.49-.08-3.73-.13s-2.49-.12-3.72-.2-2.47-.17-3.7-.27c-3.65-.3-7.31-.6-11-.92s-7.35-.67-11-1.05-7.39-.78-11.09-1.24-7.44-.95-11.18-1.52c-6.62-1-13.22-2.12-19.8-3.42s-13.24-2.78-19.84-4.49-13.32-3.66-20-5.89-13.52-4.8-20.32-7.7q-3.3-1.39-6.48-3t-6.28-3.37c-2.06-1.19-4.09-2.44-6.07-3.76s-4-2.73-5.86-4.2c-1.67-1.29-3.28-2.59-4.81-3.93s-3-2.72-4.37-4.15a50.75,50.75,0,0,1-3.81-4.43,39.94,39.94,0,0,1-3.14-4.8l.46,1,.45,1,.45.95.44,1q2.78,5.89,5.47,11.59c1.76,3.73,3.5,7.39,5.19,11s3.28,7,4.85,10.41,12.14,27.31,13.57,30.55a26.61,26.61,0,0,0,2.36,4.18c.92,1.33,8.85,13,10,14.27s13.3,7.83,14.68,9,2.85,2.25,4.42,3.32a105.86,105.86,0,0,0,12.07,7.13,135.43,135.43,0,0,0,12.63,5.56c4.27,1.63,114.87,54.85,119.28,56.18S537.57,732.77,539.44,730.69c1.82-3.89,8.9-19.15,10.81-23.2l6-12.71,6.36-13.57,6.82-14.52"/><path class="cls-12" d="M609.92,579.33a3.62,3.62,0,0,0-.63.27,2.82,2.82,0,0,0-.51.38,2.93,2.93,0,0,0-.4.46,3.85,3.85,0,0,0-.3.53,60.18,60.18,0,0,1-6.33,10.49,76.5,76.5,0,0,1-8,9.06,103.57,103.57,0,0,1-9.25,7.91c-3.21,2.46-6.56,4.78-10,7-6,3.83-11.92,7.25-17.92,10.32s-11.87,5.73-17.83,8.17-11.84,4.57-17.78,6.52-11.78,3.69-17.68,5.31q-9.93,2.71-19.74,4.95t-19.38,4q-9.6,1.74-19.16,3.05t-19.05,2.2l-10.65,1c-3.53.32-7.06.62-10.59.88s-7,.48-10.55.64-7,.26-10.52.28l-4.37,0-4.36,0-4.36,0h-4.37l-6,0c-2,0-4,0-6-.09s-4-.09-6-.16-4-.16-6.05-.27c-2.9-.16-5.8-.32-8.7-.5s-5.82-.38-8.72-.59-5.82-.45-8.73-.71-5.83-.55-8.74-.87c-4.07-.45-8.15-.94-12.24-1.5s-8.21-1.17-12.33-1.84-8.28-1.4-12.44-2.2-8.36-1.66-12.57-2.59c-5.55-1.24-11.1-2.56-16.66-4s-11.19-3-16.79-4.78-11.32-3.68-17-5.81-11.49-4.5-17.28-7.1c-3.78-1.7-7.53-3.5-11.23-5.43s-7.43-4-11.06-6.25-7.26-4.68-10.79-7.3-7.05-5.5-10.45-8.59q-2.66-2.43-5-5T136.77,592c-1.44-1.79-2.8-3.63-4.1-5.51s-2.54-3.84-3.72-5.82q4.59,10.1,9,19.66,4.29,9.33,8.42,18.19,4,8.65,7.88,16.89,3.76,8,7.38,15.72a4.39,4.39,0,0,0,.27.47c.11.16.23.31.35.47l.38.46c.13.16.26.31.37.47a68,68,0,0,0,6.91,7.84,80.18,80.18,0,0,0,7.91,6.75c2.77,2.08,5.69,4,8.73,5.88s6.16,3.56,9.4,5.21q6.62,3.38,13.26,6.17c4.39,1.86,8.79,3.54,13.21,5.09s8.77,2.93,13.19,4.22,8.78,2.45,13.19,3.53q9.38,2.33,18.62,4.15c6.13,1.23,12.24,2.3,18.32,3.25s12.11,1.77,18.16,2.48S316,708.85,322,709.37q5.73.5,11.44.84c3.79.23,7.59.42,11.37.58s7.56.27,11.34.35,7.54.15,11.3.19h3.45q3.35,0,6.71-.06t6.74-.17c2.25-.08,4.51-.16,6.76-.26l6.78-.33q6.19-.33,12.38-.79t12.39-1c4.15-.4,8.29-.85,12.45-1.34s8.36-1.05,12.55-1.66q9.15-1.32,18.28-3t18.38-3.85c6.18-1.46,12.37-3.1,18.57-5s12.56-4,18.9-6.34c3.08-1.15,6.15-2.36,9.18-3.66s6.08-2.68,9.07-4.15,6-3.06,8.89-4.76,5.84-3.54,8.68-5.5c1.73-1.19,3.37-2.44,4.94-3.73s3.09-2.66,4.55-4,2.88-2.83,4.26-4.3,2.74-3,4.07-4.52l7.67-16.34,8.26-17.6,8.92-19,9.66-20.6"/><path class="cls-12" d="M671.78,449.42a39.59,39.59,0,0,0-3.95,5.33c-1.13,1.8-2.12,3.62-3.09,5.44s-1.91,3.61-3,5.39a44.76,44.76,0,0,1-3.52,5.23,204.1,204.1,0,0,1-15.53,17.47,197.66,197.66,0,0,1-16,14.41c-5.38,4.34-10.89,8.33-16.49,12s-11.17,7-16.88,10.18c-7.14,4-14.2,7.53-21.19,10.81s-13.78,6.19-20.6,8.88-13.48,5.09-20.17,7.3-13.24,4.19-19.83,6-13.3,3.52-19.88,5-13.06,2.85-19.54,4.06-12.88,2.29-19.29,3.26-12.77,1.84-19.14,2.62c-4.73.58-9.44,1-14.15,1.44s-9.37.7-14.05,1-9.33.51-14,.75-9.3.48-13.95.75l-2.39.13-2.38.08c-.8,0-1.59,0-2.39,0l-2.38,0c-3.25,0-6.51-.09-9.77-.23s-6.52-.33-9.79-.55l-9.82-.69c-3.28-.23-6.56-.46-9.84-.65-4.64-.26-9.26-.61-13.9-1s-9.27-.93-13.92-1.5-9.34-1.2-14-1.9-9.41-1.45-14.14-2.25c-9.54-1.61-19.1-3.5-28.68-5.73s-19.37-4.87-29.15-7.91S195.11,548,185,544c-10.25-4.11-20.65-8.78-31.24-14.11-4.87-2.44-9.72-5-14.55-7.84s-9.71-5.87-14.51-9.17-9.67-6.95-14.43-10.89-9.61-8.32-14.33-13.06c-2.74-2.75-5.41-5.55-8-8.41s-5.11-5.84-7.48-8.89-4.68-6.27-6.8-9.59a107.59,107.59,0,0,1-5.92-10.47q7.31,16.08,14.23,31.1,6.69,14.55,13,28.19,6.15,13.24,12,25.69,5.65,12.11,11,23.52a7.06,7.06,0,0,0,.4.68c.15.22.32.45.49.67l.54.68c.17.23.34.45.5.68a100.37,100.37,0,0,0,9.72,12,116.41,116.41,0,0,0,10.89,10.1c3.76,3.08,7.68,5.94,11.7,8.61s8,5.12,12.15,7.46q8.44,4.79,16.87,8.73c5.56,2.61,11.12,5,16.67,7.15s11,4.09,16.54,5.88,10.93,3.41,16.39,4.92,11,2.93,16.46,4.21,10.82,2.44,16.19,3.5,10.7,2,16,2.88,10.61,1.64,15.92,2.34q7.41,1,14.78,1.77t14.66,1.4q7.3.6,14.58,1t14.55.52l3.84.06,3.84,0,3.83,0h3.84c3.48,0,6.95,0,10.43-.08s7-.14,10.44-.26,7-.28,10.47-.47,7-.43,10.51-.71c3-.24,5.91-.48,8.87-.74s5.92-.53,8.88-.83,5.94-.61,8.9-1,5.95-.73,8.93-1.15q8.87-1.25,17.79-2.81c6-1.06,12-2.23,18-3.55s12.12-2.78,18.23-4.41,12.34-3.44,18.58-5.43q6.74-2.16,13.49-4.59t13.59-5.3q6.84-2.87,13.68-6.18T574,600.6c4.13-2.36,8.18-4.87,12.11-7.57s7.82-5.62,11.55-8.73a145.22,145.22,0,0,0,10.89-10.08,141,141,0,0,0,10.12-11.64l11.44-24.4,12.55-26.75L656.5,482l15.28-32.57"/></g></g><text class="cls-17" transform="matrix(0.86, -0.5, 0.5, 0.86, 368.81, 809.1)"><tspan class="cls-18">ww</tspan><tspan class="cls-19" x="37.4" y="0">w</tspan><tspan x="54.82" y="0">.rstudi</tspan><tspan class="cls-20" x="120.07" y="0">o</tspan><tspan x="133.2" y="0">.</tspan><tspan class="cls-21" x="138.37" y="0">c</tspan><tspan class="cls-22" x="149.42" y="0">om</tspan></text><path class="cls-2" d="M705.61,196.21,427.81,35.82,367.5,1,307.19,35.82,29.37,196.22.09,213.13V637.38l29.28,16.91L310.65,816.68l56.85,32.83,56.85-32.83L705.61,654.3l29.3-16.92V213.13Zm0,425.26L367.49,816.68,29.37,621.47V231L367.49,35.82h0L705.61,231Z"/><g class="cls-4"><polygon class="cls-2" points="409.85 187.47 409.77 194.62 348.3 194.62 348.27 187.47 409.85 187.47"/><polygon class="cls-23" points="414.44 238.79 414.34 245.95 412.4 245.95 412.49 238.79 414.44 238.79"/><polygon class="cls-2" points="344.14 240.59 344.17 247.76 281.74 247.76 281.59 240.59 344.14 240.59"/><polygon class="cls-23" points="414.47 241.42 414.38 248.58 412.44 248.58 412.53 241.42 414.47 241.42"/><polygon class="cls-2" points="477.03 241.42 476.82 248.58 414.38 248.58 414.47 241.42 477.03 241.42"/><polygon class="cls-23" points="482.12 276.48 481.9 283.65 479.93 283.65 480.15 276.48 482.12 276.48"/><polygon class="cls-2" points="545.45 279.17 545.11 286.34 481.99 286.34 482.21 279.17 545.45 279.17"/><polygon class="cls-23" points="482.21 279.17 481.99 286.34 480.02 286.34 480.24 279.17 482.21 279.17"/><polygon class="cls-2" points="276.53 287.83 276.69 295.01 213.41 295.01 213.13 287.83 276.53 287.83"/><polygon class="cls-2" points="553.51 356.54 553.15 363.73 549.12 363.73 549.48 356.54 553.51 356.54"/><polygon class="cls-2" points="484.84 356.54 484.61 363.73 480.59 363.73 480.81 356.54 484.84 356.54"/><polygon class="cls-2" points="278.84 356.54 279 363.73 274.98 363.73 274.81 356.54 278.84 356.54"/><polygon class="cls-12" points="480.84 238.79 482.12 276.48 480.15 276.48 480.24 279.17 482.21 279.17 484.84 356.54 480.81 356.54 477.03 241.42 414.47 241.42 412.53 241.42 412.49 238.79 414.44 238.79 480.84 238.79"/><polygon class="cls-2" points="347.5 356.54 347.53 363.73 343.52 363.73 343.48 356.54 347.5 356.54"/><polygon class="cls-12" points="549.25 276.48 553.51 356.54 549.48 356.54 545.45 279.17 482.21 279.17 480.24 279.17 480.15 276.48 482.12 276.48 549.25 276.48"/><polygon class="cls-2" points="416.17 356.54 416.07 363.73 412.05 363.73 412.15 356.54 416.17 356.54"/><polygon class="cls-12" points="413.64 184.91 414.44 238.79 412.49 238.79 412.53 241.42 414.47 241.42 416.17 356.54 412.15 356.54 409.85 187.47 348.27 187.47 347.5 356.54 343.48 356.54 344.14 240.59 344.15 237.97 344.45 184.91 413.64 184.91"/><polygon class="cls-12" points="276.59 285.13 276.53 287.83 213.13 287.83 210.17 356.54 206.14 356.54 209.29 285.13 276.59 285.13"/><polygon class="cls-2" points="210.17 356.54 210.46 363.73 206.44 363.73 206.14 356.54 210.17 356.54"/><polygon class="cls-12" points="344.15 237.97 344.14 240.59 281.59 240.59 278.84 356.54 274.81 356.54 276.53 287.83 276.59 285.13 277.77 237.97 344.15 237.97"/><polygon class="cls-24" points="546.22 416.84 545.86 424.03 533.6 424.03 533.93 416.84 546.22 416.84"/><polygon class="cls-24" points="580.92 416.84 580.51 424.03 559.92 424.03 560.3 416.84 580.92 416.84"/><path class="cls-2" d="M205.47,431.34l.31,7.2c0-.26,0-.52-.05-.78l-.09-.78c0-.26-.08-.51-.14-.75a7.15,7.15,0,0,0-.18-.7l-.31-7.19c.07.22.13.45.19.7s.09.49.13.75.07.51.09.77S205.46,431.09,205.47,431.34Z"/><g class="cls-25"><g class="cls-26"><path class="cls-2" d="M205.47,431.34l.31,7.2c0-.26,0-.52-.05-.78l-.09-.78c0-.26-.08-.51-.14-.75a7.15,7.15,0,0,0-.18-.7l-.31-7.19c.07.22.13.45.19.7s.09.49.13.75.07.51.09.77,0,.53.05.78"/></g></g><path class="cls-2" d="M255.9,429.21l.21,7.19c-.09.31-.19.64-.3,1s-.2.7-.3,1.07-.17.76-.23,1.17a8.41,8.41,0,0,0-.12,1.25l-.21-7.19a10.35,10.35,0,0,1,.11-1.26c.07-.4.15-.79.24-1.16s.2-.73.3-1.07S255.81,429.52,255.9,429.21Z"/><g class="cls-27"><g class="cls-26"><path class="cls-2" d="M255.9,429.21l.21,7.19-.15.49c-.05.17-.1.34-.16.52s-.1.36-.15.54-.1.37-.15.57l-.21-7.2.15-.56q.08-.28.15-.54c.06-.18.11-.35.16-.52l.15-.49"/><path class="cls-23" d="M255.29,431.32l.21,7.2-.12.5-.09.52c0,.18-.06.36-.08.54s0,.37,0,.56l-.21-7.19c0-.19,0-.38,0-.56s.05-.36.08-.54l.09-.52.12-.51"/><path class="cls-23" d="M255,433.45l.21,7.19v.23l-.21-7.19v-.23"/></g></g><path class="cls-2" d="M301.42,437.28l.12,7.19a23.65,23.65,0,0,0-1.6-8.29,20,20,0,0,0-4.44-6.81,20.33,20.33,0,0,0-7.21-4.62,27.36,27.36,0,0,0-9.9-1.7,28.33,28.33,0,0,0-7.16.91,26.05,26.05,0,0,0-6.45,2.65,21.41,21.41,0,0,0-5.22,4.2,18.1,18.1,0,0,0-3.45,5.59l-.21-7.19a18.1,18.1,0,0,1,3.46-5.6,21.7,21.7,0,0,1,5.23-4.2,26.33,26.33,0,0,1,6.46-2.64,28.49,28.49,0,0,1,7.18-.92,27.51,27.51,0,0,1,9.92,1.71,20.24,20.24,0,0,1,7.21,4.62,19.8,19.8,0,0,1,4.45,6.81A23.43,23.43,0,0,1,301.42,437.28Z"/><g class="cls-28"><g class="cls-26"><path class="cls-2" d="M301.42,437.28l.12,7.19a24,24,0,0,0-1-6.67,20.53,20.53,0,0,0-2.83-5.84,19.47,19.47,0,0,0-4.59-4.65,21.45,21.45,0,0,0-6.31-3.09l-.15-7.19a21.51,21.51,0,0,1,6.32,3.09,19.33,19.33,0,0,1,4.6,4.65,20.55,20.55,0,0,1,2.84,5.84,24,24,0,0,1,1,6.67"/><path class="cls-2" d="M286.62,417l.15,7.19L286,424l-.78-.19c-.26-.07-.53-.13-.8-.18s-.54-.11-.82-.15l-.15-7.2.82.16.8.17.78.2.76.22"/><path class="cls-2" d="M283.46,416.28l.15,7.2-.72-.12-.75-.1-.75-.08-.77-.06-.16-7.19.77.06.76.08.74.1.73.11"/><path class="cls-2" d="M280.46,415.93l.16,7.19-.55,0-.55,0h-1.9l-.17-7.2h1.91l.55,0,.55,0"/><path class="cls-2" d="M277.45,415.86l.17,7.2-.69,0-.69.05-.68.06-.68.07-.17-7.19.68-.07.68-.06.69-.05.69,0"/><path class="cls-2" d="M274.71,416.07l.17,7.19-.76.11-.75.12-.75.15-.74.16-.18-7.19.74-.16.75-.15c.25,0,.5-.09.76-.12l.76-.11"/><path class="cls-2" d="M271.7,416.61l.18,7.19-1,.25-1,.29-.95.31-.93.36-.19-7.19c.31-.13.62-.24.94-.36l.94-.32,1-.28,1-.25"/><path class="cls-2" d="M267.87,417.82l.19,7.19a24.48,24.48,0,0,0-2.69,1.26,24.76,24.76,0,0,0-2.48,1.56,21.89,21.89,0,0,0-2.22,1.84,18.86,18.86,0,0,0-1.91,2.09l-.21-7.19a21.14,21.14,0,0,1,1.92-2.1,24.52,24.52,0,0,1,2.22-1.83,22.65,22.65,0,0,1,2.49-1.56,24.48,24.48,0,0,1,2.69-1.26"/><path class="cls-2" d="M258.55,424.57l.21,7.19c-.22.28-.42.56-.62.84s-.39.58-.58.87-.35.6-.52.9-.32.62-.47.94l-.21-7.19c.15-.32.31-.63.48-.94s.34-.6.52-.9.37-.59.57-.87l.62-.84"/><path class="cls-2" d="M256.36,428.12l.21,7.19-.12.27-.12.27-.11.27c0,.1-.07.19-.11.28l-.21-7.19c0-.09.07-.19.11-.28s.08-.18.11-.27l.12-.27.12-.27"/></g></g><path class="cls-2" d="M514.19,440.55l-.29,7.19c0-.18,0-.35,0-.53v-.53c0-.18,0-.35,0-.53s0-.36,0-.54a25.76,25.76,0,0,0-1.64-7.93,24.36,24.36,0,0,0-4.47-7.45,22,22,0,0,0-7.57-5.52,26.77,26.77,0,0,0-11-2.16,28.2,28.2,0,0,0-10.51,1.86,20.33,20.33,0,0,0-7.3,4.93,20.88,20.88,0,0,0-4.33,7,24.84,24.84,0,0,0-1.55,8.05l.2-7.19a24.79,24.79,0,0,1,1.55-8.05,20.78,20.78,0,0,1,4.33-7,20.5,20.5,0,0,1,7.32-4.93,28.13,28.13,0,0,1,10.54-1.86,26.9,26.9,0,0,1,11,2.16,22.09,22.09,0,0,1,7.58,5.52,24.16,24.16,0,0,1,4.47,7.45,25.49,25.49,0,0,1,1.65,7.93c0,.18,0,.36,0,.53V440C514.2,440.2,514.2,440.37,514.19,440.55Z"/><g class="cls-29"><g class="cls-26"><path class="cls-2" d="M514.19,440.55l-.29,7.19c0-.18,0-.35,0-.53v-.53c0-.18,0-.35,0-.53s0-.36,0-.54a25.2,25.2,0,0,0-1.15-6.49,24.74,24.74,0,0,0-3-6.35,22.23,22.23,0,0,0-12.23-9.07l.26-7.19a22.48,22.48,0,0,1,7.21,3.67,22.17,22.17,0,0,1,5,5.4,24.45,24.45,0,0,1,3,6.35,25.2,25.2,0,0,1,1.15,6.49c0,.18,0,.36,0,.53V440c0,.18,0,.35,0,.53"/><path class="cls-2" d="M497.77,416.51l-.26,7.19-.76-.21-.78-.2-.79-.17-.82-.16.25-7.19.82.15.8.18.78.2.76.21"/><path class="cls-2" d="M494.61,415.77l-.25,7.19-.71-.11-.72-.09-.74-.08-.75-.06.25-7.19.75.06.74.08.72.09.71.11"/><path class="cls-2" d="M491.69,415.43l-.25,7.19-.53,0-.54,0-.54,0h-1.51l.24-7.19h1.51l.55,0,.54,0,.53,0"/><path class="cls-2" d="M488.56,415.37l-.24,7.19-.81,0-.79.05-.78.07-.76.08.23-7.19.77-.08.78-.07.79-.05.81,0"/><path class="cls-2" d="M485.41,415.6l-.23,7.19-.79.11-.76.13-.75.15-.74.16.23-7.19.74-.16.75-.15.77-.13.78-.11"/><path class="cls-2" d="M482.37,416.15l-.23,7.19-.93.24-.9.27-.87.3-.84.33.22-7.19c.28-.12.56-.23.85-.33l.87-.3.9-.27.93-.24"/><path class="cls-2" d="M478.82,417.29l-.22,7.19a22.83,22.83,0,0,0-2.67,1.31,20.51,20.51,0,0,0-2.34,1.6,18.82,18.82,0,0,0-2,1.84,18.59,18.59,0,0,0-1.72,2.06l.2-7.19a19.86,19.86,0,0,1,1.73-2.06,18.82,18.82,0,0,1,2-1.84,19.79,19.79,0,0,1,2.35-1.6,20.05,20.05,0,0,1,2.67-1.31"/><path class="cls-2" d="M470,424.1l-.2,7.19c-.26.35-.5.71-.73,1.07s-.45.73-.66,1.11-.4.76-.59,1.14-.36.78-.52,1.18l.2-7.19c.17-.4.34-.79.52-1.18s.38-.77.59-1.14.43-.75.66-1.11.48-.72.73-1.07"/><path class="cls-2" d="M467.54,428.6l-.2,7.19c-.15.37-.29.74-.42,1.12s-.25.75-.36,1.13-.21.77-.3,1.16-.18.77-.25,1.16l.2-7.19c.07-.39.15-.78.25-1.17s.19-.77.3-1.15.23-.76.36-1.13.27-.75.42-1.12"/><path class="cls-23" d="M466.21,433.17l-.2,7.19c-.06.34-.12.67-.17,1s-.09.67-.12,1-.07.67-.09,1,0,.68-.05,1l.2-7.19c0-.34,0-.67.05-1s.05-.67.09-1,.07-.67.12-1,.11-.67.17-1"/></g></g><path class="cls-2" d="M160.14,449.11l-.4-7.19,0-.74c0-.25,0-.5,0-.75s0-.5,0-.75l0-.76a27,27,0,0,1,2.14-9.26,22.38,22.38,0,0,1,12.81-12.18,28.33,28.33,0,0,1,10.08-1.75,27.36,27.36,0,0,1,7.46,1,21.81,21.81,0,0,1,6,2.71,17.26,17.26,0,0,1,4.34,4,13.78,13.78,0,0,1,2.42,4.9l.31,7.19a14.18,14.18,0,0,0-2.41-4.9,17.26,17.26,0,0,0-4.34-4,21.6,21.6,0,0,0-6-2.7,27.21,27.21,0,0,0-7.44-1,28.18,28.18,0,0,0-10.06,1.75,22.34,22.34,0,0,0-12.79,12.18,27,27,0,0,0-2.13,9.26l0,.76c0,.25,0,.5,0,.75s0,.5,0,.75S160.12,448.86,160.14,449.11Z"/><g class="cls-30"><g class="cls-26"><path class="cls-2" d="M205,428.34l.31,7.19a13.71,13.71,0,0,0-1.56-3.64,15.6,15.6,0,0,0-2.62-3.23,18.71,18.71,0,0,0-3.58-2.66,22,22,0,0,0-4.44-1.92l-.33-7.19a21.88,21.88,0,0,1,4.45,1.92,18.86,18.86,0,0,1,3.59,2.65,15.87,15.87,0,0,1,2.62,3.23,13.77,13.77,0,0,1,1.56,3.65"/><path class="cls-2" d="M192.79,416.89l.33,7.19-.76-.22-.78-.2-.8-.18-.81-.15-.34-7.19c.28,0,.55.09.82.15s.53.11.79.18l.78.2.77.22"/><path class="cls-2" d="M189.63,416.14l.34,7.19-.69-.11-.7-.1-.71-.07-.73-.06-.34-7.19c.25,0,.49,0,.73.06l.71.07.7.1.69.11"/><path class="cls-2" d="M186.8,415.8l.34,7.19-.5,0-.5,0h-1.9l-.35-7.19h1.4l.51,0,.5,0,.5,0"/><path class="cls-2" d="M183.89,415.74l.35,7.19-.76,0-.75.05-.74.06-.72.08-.36-7.19.73-.08.74-.06.75-.05.76,0"/><path class="cls-2" d="M180.91,416l.36,7.19-.77.11-.75.12-.74.14-.73.17-.36-7.2.73-.16.74-.14c.25,0,.5-.09.76-.12l.76-.11"/><path class="cls-2" d="M177.92,416.49l.36,7.2-.93.23q-.45.12-.9.27l-.88.29-.86.32-.37-7.19.86-.32.89-.3.9-.26.93-.24"/><path class="cls-2" d="M174.34,417.61l.37,7.19a23,23,0,0,0-5.1,2.81,21,21,0,0,0-2.17,1.81,23.18,23.18,0,0,0-1.91,2.06l-.39-7.19a23.4,23.4,0,0,1,1.92-2.06,21.14,21.14,0,0,1,2.18-1.81,20.08,20.08,0,0,1,2.43-1.55,23.34,23.34,0,0,1,2.67-1.26"/><path class="cls-2" d="M165.14,424.29l.39,7.19c-.27.34-.54.68-.79,1s-.49.7-.73,1.07-.45.74-.67,1.12-.41.76-.61,1.16l-.39-7.2c.2-.39.4-.78.61-1.16s.44-.75.68-1.11.47-.72.72-1.07.52-.7.79-1"/><path class="cls-2" d="M162.34,428.66l.39,7.2c-.17.35-.33.71-.49,1.07s-.3.73-.44,1.1-.28.75-.4,1.14-.24.77-.34,1.16l-.4-7.19c.11-.4.23-.78.35-1.17s.25-.76.39-1.13.29-.74.45-1.1.32-.72.49-1.08"/><path class="cls-2" d="M160.66,433.14l.4,7.19c-.11.4-.21.81-.3,1.22s-.17.83-.25,1.25-.13.85-.19,1.28-.09.86-.13,1.3l-.4-7.19c0-.44.08-.87.14-1.3s.12-.86.19-1.28.15-.84.24-1.25.2-.82.3-1.22"/><path class="cls-2" d="M159.79,438.19l.4,7.19c0,.06,0,.12,0,.18s0,.12,0,.19a1.09,1.09,0,0,1,0,.18c0,.06,0,.12,0,.18l0,.76c0,.25,0,.5,0,.75s0,.5,0,.75,0,.49,0,.74l-.4-7.19,0-.74c0-.25,0-.5,0-.75s0-.5,0-.75l0-.76c0-.06,0-.12,0-.18a1.15,1.15,0,0,1,0-.19c0-.06,0-.12,0-.18s0-.12,0-.18"/></g></g><path class="cls-2" d="M254.83,452.27l-.21-7.19v-.54l.21,7.19v.54Z"/><g class="cls-31"><g class="cls-26"><path class="cls-2" d="M254.62,444.54l.21,7.19v.54l-.21-7.19v-.54"/></g></g><polygon class="cls-24" points="252.87 458.87 253.09 466.06 252.59 466.06 252.37 458.87 252.87 458.87"/><path class="cls-2" d="M554.3,465.57l-.37,7.19a13.22,13.22,0,0,1-2.77-2.87,15.8,15.8,0,0,1-1.92-3.62,24.14,24.14,0,0,1-1.18-4.36,38.49,38.49,0,0,1-.55-5l.36-7.19a38.49,38.49,0,0,0,.55,5,23.81,23.81,0,0,0,1.18,4.35,15.69,15.69,0,0,0,1.93,3.63A13.45,13.45,0,0,0,554.3,465.57Z"/><g class="cls-32"><g class="cls-26"><path class="cls-2" d="M554.3,465.57l-.37,7.19a13.22,13.22,0,0,1-2.77-2.87,15.8,15.8,0,0,1-1.92-3.62,24.14,24.14,0,0,1-1.18-4.36,38.49,38.49,0,0,1-.55-5l.36-7.19a38.49,38.49,0,0,0,.55,5,23.81,23.81,0,0,0,1.18,4.35,15.69,15.69,0,0,0,1.93,3.63,13.45,13.45,0,0,0,2.77,2.87"/></g></g><path class="cls-2" d="M219.32,473.63c-.09-2.4-.19-4.79-.28-7.19,0-1-.06-2-.07-3.11s0-2.21,0-3.34,0-2.28.07-3.42.06-2.27.11-3.37l.28,7.19c0,1.1-.08,2.23-.11,3.37s0,2.29-.07,3.42,0,2.26,0,3.34S219.28,472.65,219.32,473.63Z"/><g class="cls-33"><g class="cls-26"><path class="cls-2" d="M219.15,453.2l.28,7.19c0,1.1-.08,2.23-.11,3.37s0,2.29-.07,3.42,0,2.26,0,3.34,0,2.13.07,3.11l-.28-7.19c0-1-.06-2-.07-3.11s0-2.21,0-3.34,0-2.28.07-3.42.06-2.27.11-3.37"/></g></g><polygon class="cls-24" points="436.4 468.99 436.26 476.18 421.68 476.18 421.79 468.99 436.4 468.99"/><polygon class="cls-34" points="434.67 381.07 436.4 468.99 421.79 468.99 420.4 381.07 434.67 381.07"/><polygon class="cls-24" points="219.19 468.99 219.47 476.18 206.37 476.18 206.06 468.99 219.19 468.99"/><polygon class="cls-24" points="251.4 468.99 251.62 476.18 239.02 476.18 238.78 468.99 251.4 468.99"/><polygon class="cls-24" points="252.37 458.87 252.59 466.06 251.62 476.18 251.4 468.99 252.37 458.87"/><path class="cls-34" d="M558.93,391.62l.92,17h20.58l.5,8.24H560.3l1.76,32.46a19.94,19.94,0,0,0,.83,5,10,10,0,0,0,2.06,3.72,8.53,8.53,0,0,0,3.5,2.3,15.21,15.21,0,0,0,5.18.79c1,0,1.84,0,2.67-.07s1.59-.1,2.29-.17,1.34-.15,1.91-.24,1.09-.18,1.54-.28l1.16,8.35a22.16,22.16,0,0,1-2.39.62c-.89.18-1.89.34-3,.48s-2.25.24-3.51.31-2.59.12-4,.12a37.86,37.86,0,0,1-4.87-.31,28.08,28.08,0,0,1-4.33-.9,22.18,22.18,0,0,1-3.75-1.47,16.36,16.36,0,0,1-3.08-2,13.45,13.45,0,0,1-2.77-2.87,15.69,15.69,0,0,1-1.93-3.63,23.81,23.81,0,0,1-1.18-4.35,38.49,38.49,0,0,1-.55-5l-1.66-32.84H533.93l-.39-8.24H545.8l-.71-14.18Z"/><path class="cls-2" d="M583.2,468.73l-.43,7.2c-.69.22-1.49.42-2.38.61s-1.89.35-3,.48-2.25.24-3.5.32-2.59.11-4,.11a35.84,35.84,0,0,1-4.85-.31,27.83,27.83,0,0,1-4.33-.9,20.51,20.51,0,0,1-3.74-1.47,16.6,16.6,0,0,1-3.07-2l.37-7.19a16.36,16.36,0,0,0,3.08,2,22.18,22.18,0,0,0,3.75,1.47,28.08,28.08,0,0,0,4.33.9,37.86,37.86,0,0,0,4.87.31c1.41,0,2.75,0,4-.12s2.43-.18,3.51-.31,2.08-.3,3-.48A22.16,22.16,0,0,0,583.2,468.73Z"/><g class="cls-35"><g class="cls-26"><path class="cls-2" d="M583.2,468.73l-.43,7.2-.33.1-.35.1-.36.1-.37.09.42-7.19.38-.1.36-.09.35-.1.33-.11"/><path class="cls-2" d="M581.78,469.13l-.42,7.19-.87.2-.92.18-1,.16-1.05.15.42-7.19,1-.15,1-.17q.48-.08.93-.18c.3-.06.59-.12.86-.19"/><path class="cls-2" d="M577.94,469.82l-.42,7.19-1.29.14c-.45.05-.9.09-1.37.12s-1,.07-1.45.09-1,.05-1.51.06l.4-7.19q.78,0,1.53-.06t1.44-.09c.47,0,.93-.07,1.37-.12l1.3-.14"/><path class="cls-2" d="M572.3,470.23l-.4,7.19h-3.34l-.66,0-.66,0,.4-7.19.66,0,.67,0,.67,0h2.66"/><path class="cls-2" d="M567.64,470.17l-.4,7.19-.88-.07-.86-.09-.84-.11-.82-.13.39-7.2.83.13.84.11.86.1.88.07"/><path class="cls-2" d="M564.23,469.76l-.39,7.2-.86-.16-.84-.19-.81-.2-.8-.23.39-7.19.8.23.81.2.84.18.86.16"/><path class="cls-2" d="M560.92,469l-.39,7.19c-.65-.2-1.28-.42-1.88-.66s-1.18-.51-1.73-.79-1.08-.59-1.58-.92a15.18,15.18,0,0,1-1.41-1.05l.37-7.19a14.79,14.79,0,0,0,1.42,1,17.27,17.27,0,0,0,1.58.93c.55.28,1.13.55,1.73.79s1.24.46,1.89.66"/></g></g><path class="cls-34" d="M219.15,453.2c-.06,1.35-.1,2.75-.13,4.16s-.06,2.82-.06,4.19,0,2.71,0,4,.09,2.42.18,3.47H206.06l-.2-10.63a24.94,24.94,0,0,1-4.72,4.75,31.24,31.24,0,0,1-6.4,3.82,38.28,38.28,0,0,1-7.9,2.53,45.18,45.18,0,0,1-9.25.92,39.45,39.45,0,0,1-13.45-2.25,30.79,30.79,0,0,1-10.54-6.34,26.68,26.68,0,0,1-6.67-9.79,29.44,29.44,0,0,1-1.87-12.59,32.67,32.67,0,0,1,3.58-13.49,32,32,0,0,1,8.28-10.11,37.19,37.19,0,0,1,11.69-6.35,43.43,43.43,0,0,1,13.81-2.21,43.91,43.91,0,0,1,8.28.75,32.86,32.86,0,0,1,6.7,2,23.92,23.92,0,0,1,5.07,2.91,16,16,0,0,1,3.4,3.44l1.85-35.27H222ZM205,443.41l.45-10.48c0-.34,0-.71,0-1.1s0-.79,0-1.19-.09-.81-.16-1.2a7.09,7.09,0,0,0-.26-1.1,13.78,13.78,0,0,0-2.42-4.9,17.26,17.26,0,0,0-4.34-4,21.81,21.81,0,0,0-6-2.71,27.36,27.36,0,0,0-7.46-1,28.33,28.33,0,0,0-10.08,1.75,22.38,22.38,0,0,0-12.81,12.18,27,27,0,0,0-2.14,9.26,24.44,24.44,0,0,0,1,8.67,18.57,18.57,0,0,0,11.19,12,27.72,27.72,0,0,0,10.26,1.79,28.55,28.55,0,0,0,7.13-.9,25.36,25.36,0,0,0,6.39-2.6,20.75,20.75,0,0,0,5.11-4.16,17.31,17.31,0,0,0,3.32-5.56,11.4,11.4,0,0,0,.36-1.13c.1-.38.18-.76.25-1.15s.12-.79.17-1.2.07-.84.09-1.28"/><path class="cls-2" d="M145.48,450.47l-.43-7.19A27.94,27.94,0,0,0,148,454.37a27.11,27.11,0,0,0,6.91,8.56A31.71,31.71,0,0,0,165,468.44a39.91,39.91,0,0,0,12.57,1.94,45.18,45.18,0,0,0,9.25-.92,38.28,38.28,0,0,0,7.9-2.53,31.24,31.24,0,0,0,6.4-3.82,24.94,24.94,0,0,0,4.72-4.75l.3,7.2a25.1,25.1,0,0,1-4.7,4.75,32.06,32.06,0,0,1-6.38,3.81,38.29,38.29,0,0,1-7.9,2.54,45.67,45.67,0,0,1-9.22.92,39.78,39.78,0,0,1-12.55-1.95,31.52,31.52,0,0,1-10.1-5.51,26.94,26.94,0,0,1-6.89-8.56A27.89,27.89,0,0,1,145.48,450.47Z"/><g class="cls-36"><g class="cls-26"><path class="cls-2" d="M205.86,458.36l.3,7.2a1.13,1.13,0,0,1-.1.13l-.1.14-.11.13-.1.14-.31-7.2.11-.13.1-.13.1-.14a1.71,1.71,0,0,0,.11-.14"/><path class="cls-2" d="M205.44,458.9l.31,7.2a24.84,24.84,0,0,1-2.33,2.52,26.75,26.75,0,0,1-2.79,2.31,30.72,30.72,0,0,1-3.24,2,34.49,34.49,0,0,1-3.67,1.73l-.33-7.2a32.61,32.61,0,0,0,3.67-1.72,31.49,31.49,0,0,0,3.25-2,28,28,0,0,0,2.8-2.31,23.91,23.91,0,0,0,2.33-2.53"/><path class="cls-2" d="M193.39,467.5l.33,7.2c-.42.16-.85.33-1.28.48s-.88.31-1.33.45l-1.36.41-1.41.36-.35-7.19,1.41-.37c.47-.12.92-.26,1.37-.4s.9-.29,1.33-.45.87-.32,1.29-.49"/><path class="cls-2" d="M188,469.21l.35,7.19-1.11.25-1.13.22-1.15.19-1.17.16-.35-7.19,1.17-.17c.39-.05.77-.12,1.16-.19l1.13-.22c.37-.07.74-.16,1.1-.24"/><path class="cls-2" d="M183.43,470l.35,7.19c-.36,0-.73.09-1.1.12l-1.11.1-1.13.07-1.15.05-.36-7.19,1.15-.05,1.13-.07,1.12-.1,1.1-.12"/><path class="cls-2" d="M178.93,470.37l.36,7.19H177.2l-.76,0-.75,0-.74,0-.37-7.19.75.05.75,0,.75,0h2.1"/><path class="cls-2" d="M174.58,470.28l.37,7.19-1.08-.09-1.07-.11-1.06-.14-1-.17-.38-7.2c.34.07.69.12,1,.17s.71.1,1.06.15l1.07.11c.36,0,.73.07,1.09.09"/><path class="cls-2" d="M170.32,469.76l.38,7.2-1.23-.24-1.2-.27-1.17-.31-1.16-.34-.39-7.19,1.16.34,1.18.31,1.2.27,1.23.23"/><path class="cls-2" d="M165.55,468.61l.39,7.19a32.72,32.72,0,0,1-8.05-3.78,28,28,0,0,1-6.32-5.64,26.46,26.46,0,0,1-4.24-7.26,28.41,28.41,0,0,1-1.85-8.65l-.43-7.19a28.48,28.48,0,0,0,1.86,8.65,26.24,26.24,0,0,0,4.25,7.26,28.18,28.18,0,0,0,6.32,5.63,32.52,32.52,0,0,0,8.07,3.79"/></g></g><path class="cls-2" d="M315.92,436.56l.1,7.19v.93c0,.1,0,.2,0,.3a32.55,32.55,0,0,1-3.27,14.21,30.24,30.24,0,0,1-8.3,10.2,36.61,36.61,0,0,1-11.62,6.14,43.47,43.47,0,0,1-13.22,2.05,48.16,48.16,0,0,1-8.24-.67,33.31,33.31,0,0,1-7.23-2.06,26.07,26.07,0,0,1-6.12-3.58,24.94,24.94,0,0,1-4.92-5.21l-.22-7.19a24.68,24.68,0,0,0,4.93,5.2,26.23,26.23,0,0,0,6.14,3.59,33.8,33.8,0,0,0,7.24,2.06,48.34,48.34,0,0,0,8.26.66,43.63,43.63,0,0,0,13.24-2,37.07,37.07,0,0,0,11.65-6.14,30.35,30.35,0,0,0,8.31-10.2,32.59,32.59,0,0,0,3.28-14.21v-.31c0-.1,0-.2,0-.31v-.3C315.93,436.76,315.93,436.66,315.92,436.56Z"/><g class="cls-37"><g class="cls-26"><path class="cls-2" d="M315.92,436.56l.1,7.19v.93c0,.1,0,.2,0,.3v.24c0,.08,0,.16,0,.23v.24a1.69,1.69,0,0,0,0,.23l-.1-7.19a1.93,1.93,0,0,0,0-.24,1.69,1.69,0,0,0,0-.23V438a1.93,1.93,0,0,0,0-.24v-.31c0-.1,0-.2,0-.31v-.3c0-.11,0-.21,0-.31"/><path class="cls-2" d="M315.89,438.73l.1,7.19c0,.56-.06,1.12-.1,1.67s-.11,1.1-.18,1.63-.15,1.07-.24,1.59-.19,1-.31,1.54l-.09-7.19c.11-.51.22-1,.31-1.54s.17-1.05.24-1.59.13-1.08.17-1.63.08-1.11.1-1.67"/><path class="cls-2" d="M315.07,445.16l.09,7.19c-.12.51-.24,1-.38,1.51s-.29,1-.45,1.46-.33.95-.51,1.42-.37.92-.57,1.37l-.1-7.2c.2-.45.39-.9.57-1.37s.35-.93.52-1.41.3-1,.44-1.46.27-1,.39-1.51"/><path class="cls-2" d="M313.15,450.91l.1,7.2c-.24.53-.5,1.06-.77,1.58s-.55,1-.84,1.51-.6,1-.92,1.45-.66.93-1,1.38l-.11-7.19c.35-.45.68-.91,1-1.38s.63-1,.93-1.45.58-1,.84-1.52.53-1,.77-1.58"/><path class="cls-2" d="M309.61,456.84l.11,7.19a31.18,31.18,0,0,1-3,3.32,32.87,32.87,0,0,1-3.38,2.85,35.41,35.41,0,0,1-3.74,2.39,36.3,36.3,0,0,1-4,1.92l-.13-7.19a36.06,36.06,0,0,0,7.79-4.31,33,33,0,0,0,3.38-2.86,30.13,30.13,0,0,0,3-3.31"/><path class="cls-2" d="M295.48,467.32l.13,7.19c-.47.19-.95.38-1.43.55s-1,.34-1.45.5l-1.47.44-1.49.38-.14-7.19c.5-.12,1-.25,1.49-.39s1-.28,1.47-.44,1-.32,1.46-.49,1-.36,1.43-.55"/><path class="cls-2" d="M289.63,469.19l.14,7.19-1.16.26-1.16.23-1.18.2-1.17.16-.16-7.19,1.18-.16,1.18-.2,1.17-.23,1.16-.26"/><path class="cls-2" d="M284.94,470l.16,7.19-1.07.12-1.07.1-1.07.07-1.08,0-.16-7.19,1.08-.05,1.07-.06,1.07-.1c.36,0,.72-.07,1.07-.12"/><path class="cls-2" d="M280.65,470.37l.16,7.19h-2.15l-.93,0-.92,0-.91-.06-.17-7.19.91.05.92,0,.93,0h2.16"/><path class="cls-2" d="M275.73,470.26l.17,7.19c-.4,0-.79-.06-1.17-.09l-1.16-.12-1.13-.15-1.11-.18-.18-7.19,1.11.17,1.14.15,1.15.13,1.18.09"/><path class="cls-2" d="M271.15,469.72l.18,7.19-1.15-.22-1.13-.25-1.11-.29-1.08-.31-.19-7.19,1.08.31,1.11.29,1.13.25,1.16.22"/><path class="cls-2" d="M266.67,468.65l.19,7.19a28.45,28.45,0,0,1-4.07-1.6,25.68,25.68,0,0,1-3.67-2.14,25.37,25.37,0,0,1-3.24-2.72,25.79,25.79,0,0,1-2.79-3.32l-.22-7.19a25.85,25.85,0,0,0,2.8,3.32,24.79,24.79,0,0,0,3.25,2.72,25.68,25.68,0,0,0,3.67,2.14,30.61,30.61,0,0,0,4.08,1.6"/></g></g><path class="cls-34" d="M283,407.25a40.2,40.2,0,0,1,13.46,2.2,30.48,30.48,0,0,1,10.48,6.2,27.05,27.05,0,0,1,6.75,9.64,30.77,30.77,0,0,1,2.23,12.5A32.59,32.59,0,0,1,312.64,452a30.35,30.35,0,0,1-8.31,10.2,37.07,37.07,0,0,1-11.65,6.14,43.63,43.63,0,0,1-13.24,2,48.34,48.34,0,0,1-8.26-.66,33.8,33.8,0,0,1-7.24-2.06,26.23,26.23,0,0,1-6.14-3.59,24.68,24.68,0,0,1-4.93-5.2h-.5l-1,10.12H238.78c.12-1.05.24-2.22.36-3.47s.24-2.6.35-4,.2-2.79.29-4.19.15-2.81.19-4.16l2.44-72.13h14.1l-1.1,37.13h.33a24.29,24.29,0,0,1,4.69-4.52,29.09,29.09,0,0,1,6.14-3.45,36.93,36.93,0,0,1,7.54-2.21A49.55,49.55,0,0,1,283,407.25Zm-6.34,54.27a29.68,29.68,0,0,0,10.27-1.7,21.75,21.75,0,0,0,7.75-4.78,21.15,21.15,0,0,0,4.92-7.38,26.54,26.54,0,0,0,1.82-9.49,24.12,24.12,0,0,0-1.38-8.59,19.85,19.85,0,0,0-11.68-11.94,27.39,27.39,0,0,0-10.13-1.79,28.49,28.49,0,0,0-7.18.92,26.33,26.33,0,0,0-6.46,2.64,21.7,21.7,0,0,0-5.23,4.2,18.1,18.1,0,0,0-3.46,5.6c-.09.31-.19.63-.3,1s-.2.7-.3,1.07-.17.76-.24,1.16a10.35,10.35,0,0,0-.11,1.26l-.33,10.86a8.8,8.8,0,0,0,0,1c0,.34.07.68.12,1s.11.67.18,1l.21,1a16.67,16.67,0,0,0,3,5.26,19.65,19.65,0,0,0,4.78,4.1,24,24,0,0,0,6.29,2.66,29,29,0,0,0,7.48.95"/><path class="cls-2" d="M529,441.16l-.32,7.19a27.46,27.46,0,0,1-3.79,13.08,28.51,28.51,0,0,1-8.85,9.11,40.62,40.62,0,0,1-12.17,5.31,53.69,53.69,0,0,1-13.69,1.73,51.73,51.73,0,0,1-15.24-2.21,38.72,38.72,0,0,1-12.37-6.3,29.87,29.87,0,0,1-8.36-9.88A29.15,29.15,0,0,1,451,446.24c0-.14,0-.28,0-.41V445c0-.13,0-.27,0-.4l.17-7.19c0,.13,0,.26,0,.4v.81c0,.14,0,.28,0,.41a29.33,29.33,0,0,0,3.25,13,30.17,30.17,0,0,0,8.38,9.88,39.14,39.14,0,0,0,12.39,6.3,52,52,0,0,0,15.28,2.2,54.42,54.42,0,0,0,13.72-1.72,41,41,0,0,0,12.19-5.31,28.57,28.57,0,0,0,8.87-9.11A27.6,27.6,0,0,0,529,441.16Z"/><g class="cls-38"><g class="cls-26"><path class="cls-2" d="M529,441.16l-.32,7.19-.06,1c0,.32,0,.63-.09.95s-.07.63-.11.94-.09.61-.14.92l.32-7.19c0-.31.1-.61.14-.92l.12-.94c0-.32.06-.64.08-1s0-.64.06-1"/><path class="cls-2" d="M528.6,445l-.32,7.19q-.12.71-.27,1.41c-.11.46-.22.91-.34,1.36s-.26.89-.4,1.33-.3.86-.46,1.28l.31-7.19c.17-.42.32-.85.47-1.29s.27-.87.4-1.32.23-.9.34-1.37.19-.93.27-1.4"/><path class="cls-2" d="M527.12,450.33l-.31,7.19c-.2.51-.42,1-.65,1.51s-.47,1-.72,1.45-.53.93-.81,1.39-.58.89-.89,1.32l.32-7.19c.31-.43.6-.87.88-1.33s.56-.91.81-1.38.5-1,.73-1.45.44-1,.64-1.51"/><path class="cls-2" d="M524.06,456l-.32,7.19a27.59,27.59,0,0,1-2.83,3.37,30.75,30.75,0,0,1-3.33,2.9,35.07,35.07,0,0,1-3.76,2.44,41.25,41.25,0,0,1-4.12,2l.29-7.2a39.11,39.11,0,0,0,4.12-2,34.31,34.31,0,0,0,3.77-2.45,29.8,29.8,0,0,0,3.34-2.9,27.72,27.72,0,0,0,2.84-3.36"/><path class="cls-2" d="M510,466.7l-.29,7.2c-.54.22-1.08.43-1.63.63s-1.1.4-1.66.58l-1.7.52c-.57.16-1.15.31-1.73.45l.28-7.19c.58-.14,1.15-.3,1.73-.46s1.13-.33,1.7-.51,1.11-.38,1.67-.58,1.09-.41,1.63-.64"/><path class="cls-2" d="M503.26,468.89l-.28,7.19-1.42.32-1.43.29-1.45.24c-.48.08-1,.14-1.45.2l.26-7.19,1.46-.2,1.45-.25c.48-.08,1-.18,1.43-.28l1.43-.32"/><path class="cls-2" d="M497.49,469.94l-.26,7.19-1.37.16-1.37.12-1.38.09-1.37.05.25-7.19,1.38-.05,1.37-.09,1.38-.12,1.37-.16"/><path class="cls-2" d="M492,470.36l-.25,7.19H489.2l-1,0-1,0q-.48,0-1-.06l.24-7.19,1,.06,1,0,1,0H492"/><path class="cls-2" d="M486.54,470.25l-.24,7.19c-.45,0-.91-.06-1.36-.11l-1.35-.14c-.45-.05-.9-.11-1.34-.18s-.88-.13-1.31-.21l.23-7.19q.65.12,1.32.21l1.33.18,1.36.14,1.36.11"/><path class="cls-2" d="M481.17,469.61l-.23,7.19c-.51-.08-1-.18-1.51-.28s-1-.21-1.47-.33-1-.23-1.45-.36l-1.42-.41.22-7.2c.47.15.94.28,1.42.41s1,.26,1.45.37,1,.23,1.48.33l1.51.28"/><path class="cls-2" d="M475.31,468.22l-.22,7.2a40.51,40.51,0,0,1-9.67-4.36,32.39,32.39,0,0,1-7.56-6.46,28.45,28.45,0,0,1-5-8.35,29.6,29.6,0,0,1-1.93-10c0-.14,0-.28,0-.41V445c0-.13,0-.27,0-.4l.17-7.19c0,.13,0,.26,0,.4v.81c0,.14,0,.28,0,.41a29.61,29.61,0,0,0,1.93,10,28.5,28.5,0,0,0,5,8.35,32.68,32.68,0,0,0,7.57,6.46,40.07,40.07,0,0,0,9.69,4.35"/></g></g><path class="cls-34" d="M489.56,407.25a52.77,52.77,0,0,1,15.6,2.22,38.3,38.3,0,0,1,12.29,6.26A29.36,29.36,0,0,1,529,438a29,29,0,0,1-2.85,14.49,27.78,27.78,0,0,1-8.74,10.08,39.7,39.7,0,0,1-12.6,5.87,54.17,54.17,0,0,1-14.38,1.9,52,52,0,0,1-15.28-2.2,39.14,39.14,0,0,1-12.39-6.3,30.17,30.17,0,0,1-8.38-9.88,30.66,30.66,0,0,1-.51-26.45,27.84,27.84,0,0,1,8.11-10,37.52,37.52,0,0,1,12.29-6.2A53.25,53.25,0,0,1,489.56,407.25ZM490.8,462a25.92,25.92,0,0,0,9.61-1.77,22,22,0,0,0,7.53-4.93,21.12,21.12,0,0,0,4.8-7.48,23.88,23.88,0,0,0,1.45-9.42,25.49,25.49,0,0,0-1.65-7.93,24.16,24.16,0,0,0-4.47-7.45,22.09,22.09,0,0,0-7.58-5.52,26.9,26.9,0,0,0-11-2.16,28,28,0,0,0-10.93,2,20.27,20.27,0,0,0-7.43,5.32,21.07,21.07,0,0,0-4.19,7.48,25.15,25.15,0,0,0-1.19,8.49,24.43,24.43,0,0,0,2.06,9.23,23,23,0,0,0,5.23,7.41,24,24,0,0,0,7.85,4.92A27.25,27.25,0,0,0,490.8,462"/></g><g class="cls-4"><path class="cls-2" d="M331,423.28c0,2.4,0,4.79.07,7.19,0-1.38,0-2.72-.07-4s-.07-2.53-.11-3.75-.09-2.39-.14-3.54-.11-2.28-.16-3.38l-.06-7.19c.05,1.1.1,2.23.16,3.38s.1,2.33.14,3.54.08,2.46.11,3.75S331,421.9,331,423.28Z"/><g class="cls-39"><g class="cls-26"><path class="cls-2" d="M331,423.28l.07,7.19c0-1.38,0-2.72-.07-4s-.07-2.53-.11-3.75-.09-2.39-.14-3.54-.11-2.28-.16-3.38l-.06-7.19c.05,1.1.1,2.23.16,3.38s.1,2.33.14,3.54.08,2.46.11,3.75.05,2.63.06,4"/></g></g><path class="cls-2" d="M391.83,438.66l-.06,7.19v-.49a24,24,0,0,0-1.61-8.59,20.94,20.94,0,0,0-4.58-7.1,21.23,21.23,0,0,0-7.41-4.84,28.55,28.55,0,0,0-17.23-.83,25,25,0,0,0-6.37,2.71,21.13,21.13,0,0,0-5.06,4.25,17.11,17.11,0,0,0-3.23,5.57c-.12.34-.25.69-.36,1.06s-.23.74-.32,1.12a11.7,11.7,0,0,0-.23,1.15,8.89,8.89,0,0,0-.09,1.14l0-7.19a7.3,7.3,0,0,1,.09-1.14,11.64,11.64,0,0,1,.22-1.15c.1-.38.21-.75.32-1.12s.24-.72.37-1.07a17.17,17.17,0,0,1,3.23-5.56,21.18,21.18,0,0,1,5.07-4.25,25.18,25.18,0,0,1,6.38-2.71,28.47,28.47,0,0,1,17.27.83,21.3,21.3,0,0,1,7.42,4.83,21,21,0,0,1,4.59,7.11,24,24,0,0,1,1.62,8.59v.49Z"/><g class="cls-40"><g class="cls-26"><path class="cls-2" d="M391.83,438.66l-.06,7.19v-.49a24.27,24.27,0,0,0-1-7,21.51,21.51,0,0,0-3-6.11,20.31,20.31,0,0,0-4.8-4.86,22.36,22.36,0,0,0-6.57-3.22l0-7.19a22.35,22.35,0,0,1,6.59,3.22,20.35,20.35,0,0,1,4.81,4.86,21.51,21.51,0,0,1,3,6.11,24.22,24.22,0,0,1,1.05,7v.49"/><path class="cls-2" d="M376.41,417l0,7.19-.76-.21-.78-.2-.8-.18-.82-.15,0-7.19.82.15.8.18.78.19.76.22"/><path class="cls-2" d="M373.25,416.28l0,7.19-.72-.11-.74-.1-.74-.08-.77-.06,0-7.19c.25,0,.51,0,.76.06l.75.08.74.09.72.12"/><path class="cls-2" d="M370.28,415.93l0,7.19-.53,0-.55,0h-1.84v-7.2h1.84l.55,0,.54,0"/><path class="cls-2" d="M367.35,415.86v7.2l-.66,0-.66,0-.66.06-.65.07v-7.19l.66-.07.65-.06.66,0,.67,0"/><path class="cls-2" d="M364.71,416.06v7.19l-.73.11c-.25,0-.49.07-.73.12l-.73.14-.72.16v-7.19l.72-.16.72-.14.74-.13.73-.1"/><path class="cls-2" d="M361.8,416.59v7.19l-1,.25c-.31.08-.63.18-.94.28l-.93.31-.9.35,0-7.19.92-.35c.3-.11.61-.22.92-.31l.95-.29,1-.24"/><path class="cls-2" d="M358.05,417.78l0,7.19a22.29,22.29,0,0,0-2.7,1.28,23.9,23.9,0,0,0-2.46,1.57,21.83,21.83,0,0,0-2.19,1.85,18.57,18.57,0,0,0-1.87,2.11l0-7.19a18.68,18.68,0,0,1,1.87-2.11,21.74,21.74,0,0,1,2.2-1.85,24.2,24.2,0,0,1,5.16-2.85"/><path class="cls-2" d="M348.82,424.59l0,7.19c-.21.27-.41.55-.6.83s-.37.57-.55.86-.34.59-.49.9-.31.61-.44.92l0-7.19c.14-.32.29-.62.45-.93s.32-.6.49-.89.36-.58.55-.86.39-.56.6-.83"/><path class="cls-2" d="M346.73,428.1l0,7.19c0,.1-.09.2-.13.3l-.13.31-.12.31c0,.11-.07.21-.11.32l-.21.6c-.07.2-.14.41-.2.62s-.13.43-.19.64-.11.44-.16.66l0-7.2c0-.22.1-.43.16-.65s.12-.43.18-.64l.21-.63.21-.6c0-.1.07-.21.11-.31l.12-.31.12-.31c0-.1.09-.2.13-.3"/><path class="cls-23" d="M345.49,431.85l0,7.2-.09.44c0,.15-.05.3-.07.45s0,.3-.05.44l0,.44,0-7.19c0-.14,0-.29,0-.44s0-.29.05-.44.05-.3.08-.45a3.58,3.58,0,0,1,.09-.45"/><path class="cls-23" d="M345.25,433.63l0,7.19V441l0-7.19v-.18"/></g></g><path class="cls-2" d="M345.23,451.48c0-2.4,0-4.79,0-7.19v-.13l0,7.2v.12Z"/><g class="cls-41"><g class="cls-26"><path class="cls-2" d="M345.19,444.16l0,7.2v.12l0-7.19v-.13"/></g></g><polygon class="cls-24" points="345.44 460.76 345.47 467.95 345.14 467.95 345.11 460.76 345.44 460.76"/><path class="cls-2" d="M406.31,438.59l-.08,7.19a32.28,32.28,0,0,1-3.11,13.88,28.85,28.85,0,0,1-8,9.95,35.33,35.33,0,0,1-11.49,6,46.08,46.08,0,0,1-21.14,1.35,36.68,36.68,0,0,1-6.86-1.89,27.88,27.88,0,0,1-5.77-3,20,20,0,0,1-4.37-4.06l0-7.19a19.83,19.83,0,0,0,4.38,4.06,27.63,27.63,0,0,0,5.77,3,37.1,37.1,0,0,0,6.88,1.88,44.25,44.25,0,0,0,7.67.65,45.39,45.39,0,0,0,13.51-2,35.35,35.35,0,0,0,11.51-6,28.75,28.75,0,0,0,8-9.94A32.28,32.28,0,0,0,406.31,438.59Z"/><g class="cls-42"><g class="cls-26"><polyline class="cls-2" points="406.31 438.59 406.23 445.78 406.23 445.8 406.23 445.81 406.23 445.82 406.23 445.83 406.31 438.64 406.31 438.63 406.31 438.61 406.31 438.6 406.31 438.59"/><path class="cls-2" d="M406.31,438.64l-.08,7.19c0,.58,0,1.16-.06,1.72s-.08,1.13-.14,1.68-.13,1.09-.21,1.63-.17,1.06-.28,1.58l.08-7.19c.11-.52.2-1.05.28-1.58s.16-1.08.21-1.63.11-1.11.14-1.68.05-1.14.06-1.72"/><path class="cls-2" d="M405.62,445.25l-.08,7.19c-.1.52-.22,1-.35,1.53s-.26,1-.41,1.47-.31,1-.48,1.43-.35.93-.54,1.39l.07-7.19c.2-.46.38-.92.55-1.39s.33-.94.48-1.43.29-1,.41-1.48.25-1,.35-1.52"/><path class="cls-2" d="M403.83,451.07l-.07,7.19c-.23.53-.47,1.06-.73,1.57s-.52,1-.8,1.51-.58,1-.88,1.44-.63.93-1,1.38l.07-7.19q.5-.68,1-1.38c.31-.47.6-.95.89-1.44s.55-1,.8-1.51.5-1,.72-1.57"/><path class="cls-2" d="M400.46,457l-.07,7.19a28.91,28.91,0,0,1-2.81,3.23,28.6,28.6,0,0,1-3.23,2.79,32.39,32.39,0,0,1-3.61,2.35,35.6,35.6,0,0,1-3.93,1.9l.05-7.19a38.64,38.64,0,0,0,3.94-1.9,32.39,32.39,0,0,0,3.61-2.35,29.76,29.76,0,0,0,6-6"/><path class="cls-2" d="M386.86,467.24l-.05,7.19c-.47.19-.94.38-1.43.55s-1,.35-1.45.5-1,.31-1.49.45-1,.27-1.51.39l0-7.19c.51-.12,1-.25,1.51-.39s1-.29,1.49-.45,1-.32,1.46-.5l1.43-.55"/><path class="cls-2" d="M381,469.13l0,7.19c-.39.1-.79.19-1.19.27s-.8.17-1.2.24l-1.22.2-1.22.18,0-7.2,1.23-.17,1.22-.2c.4-.08.8-.15,1.2-.24s.8-.17,1.2-.27"/><path class="cls-2" d="M376.12,470l0,7.2-1.15.13-1.16.1-1.16.07-1.17.05,0-7.19,1.17-.05,1.16-.07,1.16-.11,1.15-.13"/><path class="cls-2" d="M371.48,470.37l0,7.19h-2.13l-.8,0-.79,0-.78,0v-7.19l.79,0,.79,0,.8,0h2.14"/><path class="cls-2" d="M367,470.28v7.19l-1.13-.09-1.1-.12c-.37-.05-.74-.09-1.1-.15l-1.07-.17v-7.19l1.08.17,1.1.15,1.11.11,1.12.1"/><path class="cls-2" d="M362.55,469.75v7.19l-1.22-.23-1.19-.26-1.16-.3-1.14-.33v-7.19L359,469l1.17.29c.39.1.79.19,1.19.27l1.21.23"/><path class="cls-2" d="M357.84,468.63v7.19a33.87,33.87,0,0,1-3.75-1.41,28.2,28.2,0,0,1-3.36-1.8,22.64,22.64,0,0,1-2.89-2.16,18.06,18.06,0,0,1-2.38-2.5l0-7.19a18.64,18.64,0,0,0,2.38,2.5,22.07,22.07,0,0,0,2.9,2.16,26.11,26.11,0,0,0,3.36,1.79,32.86,32.86,0,0,0,3.76,1.42"/></g></g><path class="cls-34" d="M372.48,407.25a40.17,40.17,0,0,1,13.31,2.18,32.41,32.41,0,0,1,10.67,6.16,28.57,28.57,0,0,1,7.15,9.59,30.81,30.81,0,0,1,2.7,12.49,32.76,32.76,0,0,1-2.86,14.27,28.71,28.71,0,0,1-8,10.24,34.93,34.93,0,0,1-11.62,6.15,45.24,45.24,0,0,1-13.69,2.05,44.25,44.25,0,0,1-7.67-.65,37.1,37.1,0,0,1-6.88-1.88,27.63,27.63,0,0,1-5.77-3,19.83,19.83,0,0,1-4.38-4.06h-.33l-.17,33.52H330.39l.59-66.19q0-2.88,0-5.49c0-1.75-.06-3.42-.1-5s-.11-3.14-.17-4.64-.13-2.93-.2-4.34h12.9l.6,10.21h.33a28.67,28.67,0,0,1,5.08-4.88,30.73,30.73,0,0,1,6.38-3.63,37.23,37.23,0,0,1,7.68-2.27A49.86,49.86,0,0,1,372.48,407.25Zm-4.83,54.4a29.37,29.37,0,0,0,10.3-1.72,21,21,0,0,0,7.62-4.83,20.52,20.52,0,0,0,4.7-7.42,26.74,26.74,0,0,0,1.56-9.51,24,24,0,0,0-1.62-8.59,21,21,0,0,0-4.59-7.11,21.3,21.3,0,0,0-7.42-4.83,28.47,28.47,0,0,0-17.27-.83,25.18,25.18,0,0,0-6.38,2.71,21.18,21.18,0,0,0-5.07,4.25,17.17,17.17,0,0,0-3.23,5.56c-.13.35-.25.7-.37,1.07s-.22.74-.32,1.12a11.64,11.64,0,0,0-.22,1.15,7.3,7.3,0,0,0-.09,1.14l-.06,10.35c0,.41,0,.81.05,1.2s.09.78.15,1.15.13.75.2,1.11l.24,1.06a16,16,0,0,0,3,5.25,19.75,19.75,0,0,0,4.92,4.1,24.81,24.81,0,0,0,6.41,2.67,29,29,0,0,0,7.45.95"/><polygon class="cls-43" points="344.94 494.28 344.98 501.47 330.45 501.47 330.39 494.28 344.94 494.28"/></g></g></g></svg>