<svg xmlns="http://www.w3.org/2000/svg" xmlns:xlink="http://www.w3.org/1999/xlink" viewBox="0 0 7725.71 5649.82"><defs><style>.cls-1,.cls-52{fill:none;}.cls-1{stroke:#4d4d4d;stroke-width:95px;}.cls-1,.cls-3,.cls-39,.cls-4{stroke-miterlimit:10;}.cls-2{clip-path:url(#clip-path);}.cls-3,.cls-4{stroke:#000;}.cls-4{fill:#4f4f4f;}.cls-5{fill:#93278f;}.cls-6{fill:#8830ef;}.cls-7{fill:#70af02;opacity:0.7;}.cls-8{fill:#0465ad;opacity:0.8;}.cls-9{fill:#77c136;}.cls-10{fill:#3c71f7;}.cls-11{fill:#d217ff;}.cls-11,.cls-12,.cls-13,.cls-14,.cls-15,.cls-53,.cls-54{opacity:0.7;}.cls-12{fill:#08b77d;}.cls-13{fill:#ff301a;}.cls-14{fill:#ff7517;}.cls-15{fill:#03e5a4;}.cls-16{fill:#5527ba;}.cls-17{fill:#019aa6;}.cls-18{fill:#01c8ba;}.cls-19{fill:#01e0e8;}.cls-20{fill:#02e0e8;}.cls-21{fill:#00d7e7;}.cls-22{fill:#0097af;}.cls-23{fill:#01a772;}.cls-24{fill:#01de61;}.cls-25{fill:#01ff84;}.cls-26{fill:#02ff85;}.cls-27{fill:#00f88c;}.cls-28{fill:#00a47e;}.cls-29{fill:#ff015d;}.cls-30{fill:#ff6f01;}.cls-31{fill:#ff9801;}.cls-32{fill:#ff6301;}.cls-33{fill:#ff9501;}.cls-34{fill:#ff2522;}.cls-35{fill:#485eff;}.cls-36{isolation:isolate;}.cls-37{fill:#96bf16;}.cls-38{fill:#bcff17;}.cls-39{fill:#bdf906;stroke:#c1ff00;}.cls-40{fill:#bc17bc;}.cls-41{fill:#f540ff;}.cls-42{fill:#bf00bc;}.cls-43{fill:#ff3bff;}.cls-44{fill:#c900bb;}.cls-45{fill:#ef2cff;}.cls-46{fill:#e2bc00;}.cls-47{fill:#ffe000;}.cls-48{fill:#ddb300;}.cls-49{fill:#dda800;}.cls-50{fill:#ffda00;}.cls-51{fill:#999;}.cls-53{fill:#941aff;}.cls-54{fill:#ff9e1d;}</style><clipPath id="clip-path" transform="translate(1699.24 510.16)"><polygon class="cls-1" points="3797.14 3307.58 3797.14 1147.7 1926.63 67.76 56.12 1147.7 56.12 3307.58 1926.63 4387.51 3797.14 3307.58"/></clipPath></defs><g id="Layer_3" data-name="Layer 3"><g class="cls-2"><rect class="cls-3" x="1142.87" y="69.11" width="5000" height="5000"/><rect class="cls-4" x="-1180.44" y="1944.38" width="6317.09" height="142.23" transform="translate(956.51 1769.24) rotate(-30)"/><rect class="cls-4" x="-1213.59" y="2246.83" width="6556.18" height="98.42" transform="translate(827.81 1850.02) rotate(-30)"/><rect class="cls-4" x="-1086.12" y="2697.83" width="6556.18" height="28.2" transform="translate(636.95 1969.47) rotate(-30)"/><rect class="cls-4" x="-993.2" y="2809.09" width="6317.09" height="212.32" transform="translate(531.72 1983.4) rotate(-30)"/><rect class="cls-4" x="-1109.98" y="1745.33" width="6317.09" height="71.11" transform="translate(1083.25 1773.03) rotate(-30)"/><rect class="cls-4" x="-1468.98" y="1133.23" width="6317.09" height="74.71" transform="translate(1340.31 1511.77) rotate(-30)"/><rect class="cls-4" x="-704.48" y="2979.02" width="6317.09" height="373.72" transform="translate(445.08 2161.34) rotate(-30)"/><rect class="cls-4" x="-543.12" y="3408.11" width="6556.18" height="98.42" transform="translate(337 2340.83) rotate(-30)"/><rect class="cls-4" x="-98.76" y="3315.35" width="6556.18" height="30.18" transform="translate(459.97 2546.02) rotate(-30)"/><text x="1699.24" y="510.16"/><rect class="cls-5" x="-1137.09" y="2725.26" width="6317.09" height="35.56" transform="translate(598.55 1888.38) rotate(-30)"/><rect class="cls-6" x="-1109.98" y="2896.21" width="6317.09" height="99.31" transform="translate(500.76 1929.11) rotate(-30)"/><rect class="cls-7" x="-989.52" y="3300.12" width="6317.09" height="60.65" transform="translate(324.62 2040.87) rotate(-30)"/><rect class="cls-8" x="-476.63" y="3054.27" width="6317.09" height="60.65" transform="translate(516.25 2264.37) rotate(-30)"/><polygon class="cls-9" points="3967.76 4448.97 3929.49 4515.26 3852.94 4515.26 3814.67 4448.97 3852.94 4382.68 3929.49 4382.68 3967.76 4448.97"/><polygon class="cls-10" points="3721.8 4448.97 3699.58 4487.47 3655.13 4487.47 3632.9 4448.97 3655.13 4410.48 3699.58 4410.48 3721.8 4448.97"/><polygon class="cls-11" points="4031.57 1594.67 3998.55 1651.87 3932.5 1651.87 3899.47 1594.67 3932.5 1537.47 3998.55 1537.47 4031.57 1594.67"/><polygon class="cls-12" points="2220.54 3482.61 2187.52 3539.81 2121.47 3539.81 2088.44 3482.61 2121.47 3425.41 2187.52 3425.41 2220.54 3482.61"/><polygon class="cls-13" points="4980.64 1551.77 4955.87 1594.67 4906.33 1594.67 4881.56 1551.77 4906.33 1508.87 4955.87 1508.87 4980.64 1551.77"/><polygon class="cls-14" points="4319.15 1594.67 4281.99 1659.02 4207.69 1659.02 4170.53 1594.67 4207.69 1530.32 4281.99 1530.32 4319.15 1594.67"/><polygon class="cls-15" points="4593.93 3948.39 4569.16 3991.29 4519.62 3991.29 4494.85 3948.39 4519.62 3905.49 4569.16 3905.49 4593.93 3948.39"/><rect class="cls-16" x="-1672.32" y="1163.34" width="6317.09" height="35.56" transform="translate(1307.8 1411.51) rotate(-30)"/><rect class="cls-4" x="-1303.79" y="2664.09" width="6556.18" height="30.18" transform="translate(624.16 1856.25) rotate(-30)"/><path class="cls-17" d="M304.24,1984.21c3.24,18-5.56,27.58-21.59,34.36q-100.84,42.65-201.12,86.61C-54.08,2164.94-185.61,2233-316.86,2301.67c-207.26,108.45-405.79,231.83-605.86,352.62-170.11,102.7-331.86,217.8-495,330.89-40.35,28-81.2,55.24-122.1,82.41-38.82,25.78-78.4,27.36-117.88,1.37-33.25-21.9-47-55.53-39.62-94.79,7.71-41,29.31-74.51,60.21-100.83q66.08-56.25,135.69-108.3c127.62-95.39,264.23-177,401.77-256.89,139-80.68,278.52-160.4,419.48-237.51C-551,2200-419.93,2132.62-289,2065.16c111.88-57.65,224.71-113.45,337.19-169.92Q122.4,1858,197,1821.4a116.2,116.2,0,0,1,22.52-7.92c16-4.07,23.18.14,28.89,15.69.86,2.35,2,4.62,2.93,6.92,10.09,30.46,19.77,61.06,30.42,91.32C288.48,1946.61,296.69,1965.3,304.24,1984.21Z" transform="translate(1699.24 510.16)"/><path class="cls-17" d="M480.75,2437.84c-.55,15.15-11.53,21.33-23.19,26.86-41.68,19.79-83.81,38.71-125,59.47-95.15,47.95-189.26,98-284.91,144.95C-79.26,2731.38-206.16,2793.84-335,2852c-208,93.89-419.57,179.64-632.92,260.7-116.89,44.4-236,82.36-357.8,111.41-42.41,10.12-84.25,7.07-124.56-10.33-42.42-18.3-69.59-67.18-62.17-110.45,4.24-24.69,21.54-38,41.46-49,34.9-19.27,73.32-28.86,111.39-38.95,176.27-46.72,347.64-107.78,516.83-175.33,227.59-90.87,450.61-192.25,674.63-291.42C-38.76,2491.35,88,2429,215.38,2367.6c62-29.85,124.24-59.09,186.26-88.85,7.85-3.77,13.69-2.15,19,3.9,2.46,2.8,4.65,5.84,7,8.77,1,3.61,1.66,7.32,2.95,10.8Q455.57,2370.06,480.75,2437.84Z" transform="translate(1699.24 510.16)"/><path class="cls-18" d="M304.24,1984.21c-7.55-18.91-15.76-37.6-22.51-56.8-10.65-30.26-20.33-60.86-30.42-91.32,112.89-45.29,225.87-90.35,338.61-136,42.16-17.07,85.72-18.06,130-14.58,6.66.52,13.34.66,20,1L881.42,1714c16.79,6,33.6,11.9,50.35,18,10.48,3.81,20.86,7.9,31.28,11.86,23.91,12,48,23.76,71.71,36.06,25.53,13.23,48.54,29.59,63.66,55,.45,5.78,1.06,11.56,1.31,17.35.33,7.52-.43,15.18.7,22.57,3.4,22.35,20.42,35.5,42.89,32.9a81.47,81.47,0,0,0,24.15-6.46c8-3.68,14.7-3.87,22.52.37,7.27,3.94,11.32,8.2,11.37,17.29.07,13.56,2.41,14.39,15.12,8.36,15.3-7.26,36.53,3.85,39.83,20.85,2.74,14.13,2.74,14.13,15.55,8.56,17.72-7.7,31-.73,33.6,18.78,1.36,10.3,4.94,13.8,14.29,8.52,12.58-7.1,23-1.25,31.91,6.39,3.68,3.14,4.75,10.06,5.73,15.48,2.18,12.1,2.46,12.52,13.07,7.55,18.27-8.54,35.22.84,36.51,21.06.68,10.67,4.67,10.13,12.52,6.74,19.7-8.51,34.12.34,35.42,21.9.53,8.77,3.64,12.41,11.26,7.35,15.32-10.18,27.36-1.65,38.54,6.8,4,3,5.4,10.69,6.27,16.49,1.4,9.41,4.64,14.46,14.34,8.85,13.74-7.95,24.37-.79,35.76,5.87,21.59,12.63,21.75,12.34,10.05,34.28-1,1.85-2.38,3.6-2.89,5.57-6.89,26.57-25.65,31.63-50.63,32.43-64.66,2.07-129.09,2.4-193.49-4.88-56.2-6.36-107-27.84-155.25-55.51-47.06-27-96.3-45.16-151.14-45.62-37.4.8-74.81,1.69-112.22,2.36-15.82.28-31.66.1-47.49.13-28.8-1.11-55.89-9.62-82.75-19.14-1.39-1.45-2.51-3.46-4.2-4.26-38-18-68.42-45.8-98-74.81-6.13-6-13.82-10.41-20.79-15.55-1.93-2.61-3.41-5.78-5.85-7.76-50.44-40.89-107.34-57-170.22-37.77-41.06,12.56-80.52,30.4-120.66,46C338.38,1970.54,321.33,1977.43,304.24,1984.21Zm535.65,29.89c33.17,2,65.63-27.15,66.24-66.08.56-36.34-30.34-67.36-66.71-67.47-38.8-.11-66.61,26.78-66.72,64.52C772.59,1984.6,801.24,2014,839.89,2014.1Z" transform="translate(1699.24 510.16)"/><path class="cls-19" d="M1098.42,1834.88c-15.12-25.38-38.13-41.74-63.66-55-23.76-12.3-47.8-24.06-71.71-36.06,4.65-16.06,10.26-31.91,13.73-48.22,5.05-23.67-9-45.75-31.24-51.47s-43.36,6.12-51.38,29.13c-4.68,13.42-8.52,27.13-12.74,40.7L739.9,1686.5c17.26-53.41,34.82-106.72,51.66-160.25,8.21-26.07,25.82-44.73,45.74-61.76,79.21-67.71,165.88-123.63,261.47-165.52,31.06-13.61,64-19.47,97-25.44,8.62-1.56,16.57-6.89,24.83-10.5q9.67,60.45,19.35,120.88c6.34,39.46,12.45,79,19.27,118.35,2.38,13.77,6.55,27.23,9.91,40.83-8.56,4.23-17,8.71-25.72,12.6-5.73,2.56-11.87,4.17-17.76,6.36-27.9,10.4-46.85,26.42-55.92,58.07-19.6,68.46-44.12,135.51-66.68,203.12C1101.72,1827.19,1100,1831,1098.42,1834.88Z" transform="translate(1699.24 510.16)"/><path class="cls-18" d="M1269.12,1543.09c-3.36-13.6-7.53-27.06-9.91-40.83-6.82-39.39-12.93-78.89-19.27-118.35q-9.72-60.44-19.35-120.88c22,.34,44.25-.92,66.11,1.28,127.19,12.82,240.64,59.24,337.38,143.3,87,75.58,144.87,168.7,165.09,283.63,4.13,23.45,5.39,45.65-9.37,66.1-2.18,3-3.39,6.73-5.07,10.11-15.93,32-16.42,32.29-47,11.7-3.13-2.11-5.3-7.21-5.94-11.23-3.35-21.1-3.33-21.48-21.21-11-6.37,3.73-11.12,2.92-17.4.22-9.88-4.26-14.91-9.76-14.65-21.53.35-15.79-1.41-16.32-15.25-8-7.33,4.4-13.26,8-22.76,3s-13.61-10.44-13.27-21.16c.39-12.45-1.61-13.62-11.52-6.56-9.4,6.7-17,6.62-27.29,1.25-9.51-5-8.46-12.84-9-20.15-.78-10.14-4.57-11.1-12.62-6.7-7.51,4.1-14.29,9-24.33,3.52-9.72-5.36-15.58-10.48-14.6-22.67.89-11-1.09-11.36-11.59-6.63-6.43,2.9-11.53,9.4-20.63,5.17-10.07-4.67-16-10-16-22.29,0-13.5-2.36-14.09-13.59-6.81-17.26,11.19-35.66,2.21-38.1-18.6-1.41-12.09-1.62-12.2-12.78-6.67-21.65,10.74-45.21-4.38-46.69-29a76.52,76.52,0,0,0-7-27.75c-12-25-37.36-32.25-61.33-18.06C1282.69,1531.87,1276.11,1537.83,1269.12,1543.09Z" transform="translate(1699.24 510.16)"/><path class="cls-20" d="M858,2077.21c15.83,0,31.67.15,47.49-.13,37.41-.67,74.82-1.56,112.22-2.36q-24.57,66-49.15,132c-11.81,31.66-33.32,52-65.51,64.47-129.74,50.4-258.84,102.45-388.2,153.84-11.29,4.48-22.74,8.57-34.12,12.84q-25.12-67.8-50.2-135.62c-1.29-3.48-2-7.19-2.95-10.8,22.39-9.42,44.56-19.45,67.25-28.11,23.23-8.87,40.14-24.39,50.5-46.4,20.87-44.34,41.79-88.69,60.87-133.81,16.64-39.33,30.78-79.72,46-119.65,7,5.14,14.66,9.55,20.79,15.55,29.61,29,60.06,56.78,98,74.81,1.69.8,2.81,2.81,4.2,4.26-11,36-22.75,71.81-32.73,108.1a65.54,65.54,0,0,0-.29,33c4.77,17.7,22.44,28.74,40.1,28.61,18.29-.14,34-11.35,40.31-30.44,9.15-27.81,17.54-55.89,25.92-83.95C852.15,2101.43,854.9,2089.27,858,2077.21Z" transform="translate(1699.24 510.16)"/><path class="cls-21" d="M839.89,2014.1c-38.65-.06-67.3-29.5-67.19-69,.11-37.74,27.92-64.63,66.72-64.52,36.37.11,67.27,31.13,66.71,67.47C905.52,1987,873.06,2016.12,839.89,2014.1Zm43.84-65.42c.07-27.47-19.45-48-45.66-48a45.26,45.26,0,0,0-45.24,45.74c0,26.62,20.62,47.61,46.74,47.34C861.93,1993.57,886.67,1972.94,883.73,1948.68Z" transform="translate(1699.24 510.16)"/><path class="cls-22" d="M883.73,1948.68c2.94,24.26-21.8,44.89-44.16,45.13-26.12.27-46.69-20.72-46.74-47.34a45.26,45.26,0,0,1,45.24-45.74C864.28,1900.71,883.8,1921.21,883.73,1948.68Z" transform="translate(1699.24 510.16)"/><path class="cls-23" d="M1007.94,3725.21c2.35,15.25,1.26,18.33-13,25.08-39.45,18.63-79,37.11-118.73,55.11-78.32,35.46-155,74.16-230.38,115.46-77.45,42.45-154.9,84.94-231.56,128.81-46.21,26.45-91.16,55.15-136.22,83.56-99.73,62.86-199.58,125.55-298.56,189.59-47.88,31-94.28,64.3-140.67,97.51-81.07,58-161.56,116.84-242.4,175.18-18.39,13.28-37.1,26.13-55.88,38.86-20.9,14.17-43.76,20.29-68.57,13.12-43.67-12.62-65.38-45.35-56.18-90.06,5.51-26.77,19.15-49.45,38.05-68.5a738.26,738.26,0,0,1,57-52.12c71.44-58.28,146.18-112.06,223.45-162.42,100.79-65.7,203-129.17,305.9-191.4,128.86-77.91,260.59-150.81,392.46-223.42,65.33-36,130.54-72.17,196.14-107.65,66.2-35.8,132.81-70.83,199.23-106.23,26.39-14.06,52.62-28.42,79.16-42.17,9.42-4.88,19.46-8.63,29.42-12.38,11.9-4.5,21.56-1.84,25.41,12.35.43,1.59,1.59,3,2.41,4.44,2,6.16,3.74,12.4,6,18.45Q989.1,3675.84,1007.94,3725.21Z" transform="translate(1699.24 510.16)"/><path class="cls-23" d="M1156.5,4081.68c-.17,8.44-4.38,14-11.79,17.84-16.49,8.49-32.62,17.73-49.3,25.83-91.56,44.44-180.7,93.38-269.54,143-60,33.5-121,65.17-182.35,96.18-61.63,31.16-123.69,61.56-186.45,90.36-98.68,45.27-197.91,89.33-297.28,133.07-58.8,25.88-117.89,51.19-177.6,74.89Q-139,4711-264.37,4747.48c-25.53,7.49-51.49,12.77-78.29,9.42-24.12-3-47.87-8-65.94-25.92-19.5-19.3-29.92-42.53-26.09-70.67,1.6-11.8,7.57-21.19,16.69-28.72,13.69-11.31,29.33-19.27,45.9-25.14,21.68-7.69,43.59-14.79,65.57-21.59,55.14-17,110.18-34.35,164.39-54.21,80.33-29.45,159.68-61.36,238.42-94.84,97.73-41.55,194.12-86.06,290.15-131.33,83-39.12,165.7-78.83,248.48-118.39,49-23.41,98.06-46.65,146.75-70.68,31.1-15.36,61.41-32.33,92.35-48,47.18-24,94.67-47.32,141.89-71.21q35-17.68,69.38-36.38c14.34-7.73,16.7-7.51,25.91,5.79q17.54,44.19,35,88.39C1149.83,4063.12,1153.08,4072.43,1156.5,4081.68Z" transform="translate(1699.24 510.16)"/><path class="cls-24" d="M1007.94,3725.21q-18.77-49.41-37.49-98.83c-2.27-6.05-4-12.29-6-18.45,45.75-20.43,91.33-41.26,137.3-61.19,43.77-19,88.16-36.53,131.87-55.65,24.47-10.71,50-14.53,76.17-15.4,14.7-.49,29.47.91,44.21,1.46,7.11.85,14.24,1.6,21.35,2.55,17.9,2.4,35.82,4.69,53.68,7.42,13.14,2,26.18,4.65,39.26,7,.5.46.92,1.14,1.5,1.34,20.18,6.86,40.36,13.73,60.59,20.43,1.33.44,3.09-.43,4.65-.69,1.2,1.15,2.21,2.72,3.63,3.37,15.81,7.24,31.91,13.88,47.47,21.61,17.41,8.64,34.85,17.5,48,32.54,3.58,4.09,7.13,8.2,10.69,12.3.28,4.75.46,9.5.85,14.24.6,7.49.36,15.23,2.22,22.41,3.49,13.48,14.31,21.77,28.26,20.8,9-.63,18-3.71,26.73-6.59,7.17-2.37,18.9-.65,23.38,5,1.14,1.44,1.3,3.76,1.63,5.71.46,2.71.48,5.48,1,8.17.84,4.43,3.81,6.24,7.34,3.4,10-8,18.84-4.05,28.31,1.07,4.74,2.57,7.39,5.59,8.24,10.78.63,3.92,1.91,7.74,3.07,12.23,3.89-1.63,7-2.41,9.44-4.06,7.32-4.87,13.81-3.4,20.8,1,3.92,2.49,5.94,5.22,6.44,9.7.44,4,1.49,7.94,2.49,13,5.23-1.78,9.39-3.18,13.52-4.61,11-3.85,24.17,3.63,26.22,15,2.27,12.52,2.36,12.69,14.09,6.74,4.37-2.22,8.2-3,12.48-.11a40.85,40.85,0,0,0,7.29,3.83c4.35,1.76,6.45,4.74,6.33,9.48a60,60,0,0,0,.61,7.18c.4,3.89,2.16,5.68,6.16,3.89,2.51-1.13,5.11-2.09,7.5-3.43,4.28-2.41,8-1.93,12.57.09,8.28,3.69,13.17,8.42,12.68,18.44-.4,8.41,1.46,9.57,9,5.46,9.62-5.27,17.59-4.28,26.64,1.43,5.46,3.44,8.69,6.81,9.5,13.29,1.88,15.23,3.09,12.75,14.42,8.4,6.9-2.65,12.73-3.06,19.29,1.17,7.43,4.79,15.59,8.45,24,12.92-7.1,14.47-14,28.23-20.59,42.12-1.86,3.89-5,4.15-8.51,4.44-20.2,1.7-40.37,4-60.61,5-38.46,1.84-76.95,2.08-115.39-1.12a267.38,267.38,0,0,1-84.69-20.87q-29.29-12.7-57.86-27.06c-24.83-12.51-50.59-21.35-78.46-23.5-3.07-.24-6.1-.92-9.15-1.4a21.46,21.46,0,0,0-18.64-.06l-.27.13a604.12,604.12,0,0,0-73.49,4c-17.9,2.06-36.09,1.68-54.15,2.38l.06,0-9.4-1.9c-5.37-.35-10.9,0-16.07-1.18-14.14-3.28-28.12-7.21-42.17-10.88-3.13-2-6.09-4.38-9.43-6-18.71-8.91-35.31-20.84-50.78-34.55-13.8-12.24-27.88-24.15-41.84-36.21-6-4-11.87-8.14-18-11.92-37.78-23.37-78.1-28.7-120.61-16.12a309.65,309.65,0,0,0-34.77,12.73C1077.54,3694.26,1042.78,3709.82,1007.94,3725.21ZM1490.66,3682c2.71-30.74-26.73-54.29-52.57-53.83-32.95.59-54.29,23.89-53.85,54.13.46,31.64,22,51.66,54.1,53.07C1465.92,3736.59,1494.45,3707.12,1490.66,3682Z" transform="translate(1699.24 510.16)"/><path class="cls-25" d="M1644.81,3585c-3.56-4.1-7.11-8.21-10.69-12.3-13.15-15-30.59-23.9-48-32.54-15.56-7.73-31.66-14.37-47.47-21.61-1.42-.65-2.43-2.22-3.63-3.37.83-3.31,1.6-6.64,2.5-9.94,2.45-8.91,5.4-17.72,7.32-26.74,4.06-19.1-7.68-36.82-26.65-41-16.77-3.72-33.8,6-39.7,23.25-3.77,11-6.83,22.24-10.21,33.37-13.08-2.35-26.12-5-39.26-7-17.86-2.73-35.78-5-53.68-7.42-7.11-.95-14.24-1.7-21.35-2.55,12.6-41.36,25.48-82.64,37.68-124.11,6.87-23.36,21.1-41,39-56.84,47.21-41.86,97.93-78.79,152.94-109.65,32.34-18.15,65-35.89,101.73-44,9.71-2.14,19.49-4,29.29-5.78,6.9-1.23,13.22-3.52,18.56-8.19.85,1,2.25,1.93,2.47,3.07,2.3,12.07,4.4,24.17,6.58,36.25q7.9,43.8,15.84,87.6c3,16.44,6,32.89,9,49.33,2.82,15.07,5.76,30.13,8.64,45.19-6.65,3.39-13.28,6.82-20,10.17q-19.69,9.89-39.43,19.69c-6.7,3.33-9.54,9.24-11.64,16.05q-16.07,52-32.52,104C1663.19,3528.32,1654,3556.65,1644.81,3585Z" transform="translate(1699.24 510.16)"/><path class="cls-24" d="M1775.73,3350c-2.88-15.06-5.82-30.12-8.64-45.19-3.07-16.44-6-32.89-9-49.33q-8-43.8-15.84-87.6c-2.18-12.08-4.28-24.18-6.58-36.25-.22-1.14-1.62-2-2.47-3.07,3.69-4.48,8.91-2.9,13.46-3a489.42,489.42,0,0,1,158.43,22.93c71.61,22.86,135,59.6,188.15,113.05,53.4,53.71,89.76,116.88,103.91,191.95.25,1.35.62,2.68.84,4,4,25,4,25-6.9,48.21-4.25,9-8.74,17.9-12.94,26.93-1.81,3.89-3.9,4.95-8,2.81-6.37-3.36-12.95-6.37-19.59-9.18-4.35-1.85-6.23-4.7-6.45-9.43-.24-5.08-1.3-10.11-2.22-16.75-5.59,3.05-10.5,5.23-14.84,8.24-4.5,3.13-8.58,3.74-13.26.73a34.65,34.65,0,0,0-6.51-3.08c-4-1.53-5.51-4.17-5.86-8.57-1.41-17.89-1.95-18.41-16.42-8.65-7.78,5.24-12.66,0-18.84-2s-6-6.44-6.19-11.41c-.14-3.61-1.22-7.19-1.89-10.78l-10.77,4.77c-3,1.35-6.48,4.33-9.07,3.72a45.09,45.09,0,0,1-14.73-7c-1.7-1.16-2-4.94-2.2-7.58-1.23-14.88-2.56-14.52-15.12-7.56-2.86,1.58-6.68,3.59-9.36,2.85a50.57,50.57,0,0,1-15.64-7.56c-1.74-1.25-1.56-5.6-1.72-8.57-.7-13.24-1.2-14.08-12.32-6.51-8.8,6-15.55,2.57-22.53-1.67-2.11-1.27-3.2-4.92-3.86-7.7-1.1-4.59-1.47-9.36-2.41-15.86-5.2,3.22-9.38,5.32-13,8.17-4,3.18-7.73,4.08-12.07,1.06a5.87,5.87,0,0,0-1.82-.95c-9-2.4-13.91-7.84-13.63-17.55.07-2.26-1-4.55-1.79-8.1-4.53,2.32-8.6,4-12.22,6.35-4.58,3-8.84,3.17-13.38.22a16,16,0,0,0-3.68-1.83c-12.21-4.05-19.29-11.41-17.25-25.31.38-2.57-.68-5.42-1.38-8.07-8.14-30.86-37.19-39.67-61.32-18.69C1783.26,3344.31,1779.43,3347.1,1775.73,3350Z" transform="translate(1699.24 510.16)"/><path class="cls-26" d="M1455.49,3785.09c18.06-.7,36.25-.32,54.15-2.38a604.12,604.12,0,0,1,73.49-4c-10.26,29.87-20.28,59.83-30.93,89.56-3.93,10.95-9.44,21.34-14.08,32.05-6.32,14.58-16.94,24.52-31.42,31-22.55,10.13-44.58,21.47-67.33,31.12-88.19,37.42-176.59,74.36-264.9,111.49-6,2.53-12,5.16-18,7.74-3.42-9.25-6.67-18.56-10.28-27.72q-17.4-44.24-35-88.39c21.64-9.57,43.59-18.49,64.78-29,13.15-6.5,22.09-18,28.92-31.16,25.25-48.47,44.71-99.35,62.92-150.76,5.83-16.48,11.79-32.91,17.33-49.49,1.1-3.3.53-7.16.73-10.76,14,12.06,28,24,41.83,36.21,15.47,13.71,32.07,25.64,50.78,34.55,3.34,1.59,6.3,4,9.43,6-1.34,5-2.62,9.94-4,14.88-7.32,25.4-15,50.69-21.89,76.21-5.51,20.55,6.81,39.52,27.14,43.29,17.5,3.24,33.71-7,39.35-25.46,5.23-17.06,10-34.25,14.93-51.42C1447.52,3814.18,1451.46,3799.62,1455.49,3785.09Z" transform="translate(1699.24 510.16)"/><path class="cls-26" d="M1583.4,3778.58a21.46,21.46,0,0,1,18.64.06Z" transform="translate(1699.24 510.16)"/><path class="cls-27" d="M1490.66,3682c3.79,25.1-24.74,54.57-52.32,53.37-32.1-1.41-53.64-21.43-54.1-53.07-.44-30.24,20.9-53.54,53.85-54.13C1463.93,3627.73,1493.37,3651.28,1490.66,3682Zm-53.75-37.27c-20.39-.41-37.15,16.65-36.56,36.63.63,21.38,15.77,36.91,36.49,37.28a36.58,36.58,0,0,0,37.36-37C1473.83,3660.39,1458.2,3644.69,1436.91,3644.75Z" transform="translate(1699.24 510.16)"/><path class="cls-26" d="M1455.55,3785.14l-9.4-1.9Z" transform="translate(1699.24 510.16)"/><path class="cls-28" d="M1436.91,3644.75c21.29-.06,36.92,15.64,37.29,36.88a36.58,36.58,0,0,1-37.36,37c-20.72-.37-35.86-15.9-36.49-37.28C1399.76,3661.4,1416.52,3644.34,1436.91,3644.75Z" transform="translate(1699.24 510.16)"/><path class="cls-29" d="M1798.21,2505.92c.28,26-.83,28.77-25.71,38.3q-70.7,27.09-142,52.68c-108.23,38.71-215.34,80.22-321,125.4q-232.85,99.52-461.22,208.9c-67.19,32.18-132.86,67.59-199.06,101.83-82.87,42.87-165.92,85.38-248.26,129.24C298.24,3217,194.89,3270.7,94.15,3328.87Q-123.9,3454.8-337.42,3588.49c-60.33,37.75-122,73.34-183.39,109.45-21.36,12.58-44.38,21.19-69.79,20-41-1.89-74.42-19.51-98.71-52.06-20.32-27.23-22.18-58.74-14.13-91,7.11-28.52,21-53.63,39.56-76.2,23.76-28.82,52.57-52.1,82.44-74.13,67.05-49.46,138-93.08,208.36-137.47,82.25-51.87,168.12-97.43,253.7-143.37,88.54-47.53,178.08-93.21,267.28-139.5,152.41-79.09,307-153.84,462.69-226.14q225.69-104.8,453-206.13c102.21-45.83,205.36-89.56,308-134.44,77.54-33.91,154.8-68.45,232.46-102.08,30-13,60.62-24.31,91.08-36.1a82.38,82.38,0,0,1,18.18-4.42c15.14-2.11,23.48,3.49,28.25,18.09,1.33,4.09,3,8.08,4.48,12.11.72,4.24,1.06,8.6,2.22,12.72q22.6,79.64,45.49,159.18C1794.65,2500.13,1796.7,2503,1798.21,2505.92Z" transform="translate(1699.24 510.16)"/><path class="cls-29" d="M1978.88,3060.81c-1.79,13.72-9.46,22.32-22.24,27.5-41,16.6-81.7,33.77-122.65,50.42-116.69,47.43-232.42,97-346.24,151-79.06,37.51-159.32,72.3-240.47,105-92.25,37.21-184,75.72-277,111q-173.86,66-349.46,127.48c-152,52.94-304.72,104-457.46,154.78-85.32,28.38-172.63,50-259.93,71.37Q-168,3877-239.83,3892.67c-26.77,5.82-53.92,10.06-81.52,9.65-34.69-.52-67.92-8-98.94-23.24-48.62-23.91-70.42-65.35-71.39-117.9-.5-27.13,11.86-48.74,35.57-63.79,29.32-18.61,61.66-29.15,94.92-37.06,58.45-13.89,117.15-26.76,175.71-40.19,146.75-33.66,290.88-76.66,433.86-123.44,97.27-31.82,194.11-65,290.71-98.82,64.42-22.53,128-47.36,192.1-70.85,152.52-55.93,304.13-114.26,455.46-173.34,73.87-28.84,148.22-56.46,221.88-85.82,50.89-20.27,100.81-43,151.46-63.87,65.77-27.14,131.92-53.33,197.72-80.39,44.45-18.27,88.64-37.16,132.78-56.16,15.89-6.83,21.43-5.68,31,9.13,1,1.61,2,3.3,3,5,1,4.19,1.9,8.44,3.16,12.56Q1953.2,2977.47,1978.88,3060.81Z" transform="translate(1699.24 510.16)"/><path class="cls-30" d="M1798.21,2505.92c-1.51-3-3.56-5.79-4.46-8.93q-22.9-79.54-45.49-159.18c-1.16-4.12-1.5-8.48-2.22-12.72,76.14-29.21,153-56.45,230.72-81.18,70.85-22.53,141.37-46.09,212.13-68.91a133.32,133.32,0,0,1,26.64-5.45c43.23-4.64,86.28-3.7,128.95,5.47a26.91,26.91,0,0,0,4.32.19c8.85,2.05,17.61,4.64,26.56,6.08,38.33,6.18,75.86,15.57,113.11,26.37,10,2.91,20.56,4,30.86,5.85,2.59,1.89,4.92,4.63,7.81,5.54,26.24,8.18,50.76,20.32,75.46,32.07,4.27,2,8.83,3.44,13.26,5.14,1.83,1.48,3.49,3.27,5.52,4.4,25.95,14.53,52,28.86,77.93,43.46,27.08,15.26,50.89,34.22,67.8,60.88,1.75,2.77,4.58,4.85,6.91,7.24-.24,8.11-.63,16.2-.67,24.31-.06,10-1.22,20.32.52,30.07,5.33,29.88,28.75,38.73,50.3,36.9,10.86-.92,21.81-3.95,32.07-7.75,7.66-2.84,13.83-2.5,20.32,1.77a90.39,90.39,0,0,0,8.7,5.11c4.83,2.47,6.67,6.16,6.68,11.64,0,7-1.34,14.4,4,22,5.16-1.88,10.79-3.16,15.64-5.86,8.28-4.59,15.5-3.64,22.62,2a19,19,0,0,0,4.87,3.07c12.64,5,19.07,13.85,18.08,27.69a15,15,0,0,0,.56,4.29c1.41,6.19,3.07,7.35,9,5.52a122.43,122.43,0,0,0,16.22-6c5-2.38,9.13-1.74,13.41,1.41a62.49,62.49,0,0,0,9.79,6.1c6.07,2.9,7.54,7.85,8.07,14.05,1.79,21.2,2.16,21.85,21.7,15.51,10.17-3.3,17.2.43,25.46,4.92,10,5.44,14.18,12.47,14.08,24-.15,16.4,1.11,17.13,16.33,9.88,9.81-4.68,18-4.91,26.24,2.37a44.61,44.61,0,0,0,8.51,5.4c4.77,2.57,6.63,6.34,6.48,11.76-.19,6.65.31,13.31.58,21.76,8.27-2.6,15.25-4.11,21.61-7,6.1-2.74,11.07-2.08,16.09,1.76.76.59,1.63,1,2.43,1.56,17.93,11.92,14.9,6.66,15.2,27.11.06,4.15.75,8.28,1.27,13.56,4.95-1.15,8.57-1.85,12.09-2.86,4.62-1.32,9.15-2.94,13.75-4.34,13.61-4.14,20.29,8.53,30.49,12.67,6.18,2.5,7.71,7.67,8,13.94.31,7.06,1.56,14.09,2.6,22.84,9.16-2.19,17-3.66,24.65-6,6.47-2,11.78-1.56,17.6,2.43,12.64,8.66,25.81,16.56,39.56,25.28-1.85,3.6-3.15,6.52-4.78,9.26-9.35,15.7-19.21,31.12-28,47.13-4.24,7.73-9.33,10.83-18.14,10.68-44.73-.75-89.52.28-134.18-1.78a1058,1058,0,0,1-136.15-14.74c-54.71-9.71-104.88-31.13-152.61-58.87q-34.29-19.93-68.41-40.2c-40.63-24-85.25-34.51-131.61-39.16-2.82-.28-5.72.25-8.59.4-3.13-.87-6.25-2.48-9.38-2.51-61-.4-122,1-183-3-3.56-1.06-7.05-2.48-10.67-3.12-30.48-5.38-60.1-13.39-87.65-27.93-6.21-3.59-12.48-7.09-18.64-10.78-27.7-16.59-51.7-37.83-74.37-60.55-17.23-17.28-33.67-35.35-50.47-53.07-16.12-14.47-33.11-27.69-52-38.54-52.38-30.11-108.07-35.89-165.67-20.76-33.35,8.76-65.89,20.68-98.66,31.6C1869.93,2481.19,1834.11,2493.66,1798.21,2505.92Zm572.3-13.62c-3.75,46.32,38.23,82.08,77.8,82.43,48.28.44,83-36.71,83.3-81.07.31-42.57-34.47-80.09-82.65-80.88C2407.13,2412.09,2370.55,2449.55,2370.51,2492.3Z" transform="translate(1699.24 510.16)"/><path class="cls-31" d="M2519.33,2213.51c-10.3-1.9-20.85-2.94-30.86-5.85-37.25-10.8-74.78-20.19-113.11-26.37-9-1.44-17.71-4-26.56-6.08,23.54-59.88,47.4-119.64,70.52-179.68,12.46-32.36,32.25-58.57,60.26-79,49-35.63,97.76-71.5,151-100.68,58.95-32.33,118.84-62.73,182.27-85.66a393.46,393.46,0,0,1,100.88-22.43c9.08-.77,18.32-1.24,27.12-3.35,7.28-1.74,14-5.69,21-8.66,1.06,1.54,2.89,3,3.07,4.64,1.34,12.35,2.37,24.74,3.47,37.12,1.19,13.34,2.2,26.69,3.58,40,1.53,14.71,3.47,29.39,5.06,44.1,1.33,12.35,2.3,24.75,3.64,37.11,1.55,14.23,3.59,28.41,4.94,42.66,1.4,14.76,2,29.59,3.36,44.36,2.78,30,5.84,59.91,8.78,89.87-11.15,4.25-22.08,9.23-33.5,12.58a329.87,329.87,0,0,0-54.68,21.91c-11.43,5.73-18.56,14.08-23.12,26-11.7,30.48-24.11,60.7-36.37,91q-36.24,89.48-72.65,178.87a62.56,62.56,0,0,1-3.39,6.29c-2.33-2.39-5.16-4.47-6.91-7.24-16.91-26.66-40.72-45.62-67.8-60.88-25.91-14.6-52-28.93-77.93-43.46-2-1.13-3.69-2.92-5.52-4.4,5.53-14.82,11.17-29.61,16.54-44.48,2.11-5.85,4.32-11.79,5.31-17.89,3.27-20.13-3-37.24-19-49.8s-33.86-14.93-52.81-6.74c-15.09,6.52-24.13,18.43-29.89,33.31Q2527.71,2192.09,2519.33,2213.51Z" transform="translate(1699.24 510.16)"/><path class="cls-32" d="M2997.73,2035.67c-2.94-30-6-59.9-8.78-89.87-1.37-14.77-2-29.6-3.36-44.36-1.35-14.25-3.39-28.43-4.94-42.66-1.34-12.36-2.31-24.76-3.64-37.11-1.59-14.71-3.53-29.39-5.06-44.1-1.38-13.32-2.39-26.67-3.58-40-1.1-12.38-2.13-24.77-3.47-37.12-.18-1.64-2-3.1-3.07-4.64,3.3-5.53,8.58-3.16,13.07-3,57.51,2,113.79,11.76,169,27.73,99.74,28.87,190,75.83,269.1,143.38,90.6,77.41,156.8,171.35,191.13,286.4a477.13,477.13,0,0,1,20,126.45c.12,5.11-.08,11-2.44,15.27-12.53,22.72-25.78,45.06-38.85,67.49-.94,1.62-2.39,2.94-4.67,5.68-13.24-7.55-26.66-14.78-39.53-22.9-2.49-1.56-3.61-6.5-3.95-10-.82-8.42-.8-16.92-1.17-26.71-10.82,2-18.54,6.88-26.33,11.13-5.24,2.86-9.74,3.52-14.59-.11a4.85,4.85,0,0,0-1.22-.78c-14.69-5-20.25-14.6-18.66-30.53,1.57-15.7-.59-16.41-14.43-9.7-3.46,1.67-7.08,3.17-10.22,5.34-6.37,4.37-11.73,3.15-18.56-.09-12.67-6-20.21-13.59-16.64-28.68.83-3.51-.22-7.47-.41-11.5-7-1.36-11.89,2.33-16.27,5.54-9.31,6.82-17.42,6.88-27.14.11-11.48-8-12-7.26-12.89-21-.32-4.79-.69-9.58-1.19-14.36-.09-.79-1-1.49-2.45-3.57-7,2.84-14.57,5.56-21.8,8.93-5.77,2.7-10.92,2.87-16-1.16a37.07,37.07,0,0,0-3.75-2.13c-18.38-11.28-15.8-5.3-15.19-26.28a71,71,0,0,0-.15-8.63c-.12-1.33-1-2.59-2.07-5.26-7.11,3-14.23,5.64-20.93,9.08-6.17,3.18-11.65,3.77-17.41-.7a47.53,47.53,0,0,0-8.73-5c-4.91-2.35-6.81-6-6.85-11.45-.05-8-.9-16-1.57-26.58-8.92,4.65-15.78,7.68-22,11.66-5.63,3.57-10.59,4-15.88-.09a9.6,9.6,0,0,0-2.51-1.42c-14.21-5.21-21.93-14.46-19.34-30.4.3-1.81-.34-3.82-.76-5.68-.19-.87-.88-1.62-1.81-3.22-7.29-1.3-13.28,3.53-19.45,6.49s-11.55,3.43-17.45-.56c-5.57-3.76-11.53-7-17.4-10.25-10.38-5.82-14.88-14.12-13-26.3,2-13.14-.66-25.89-6-38-12.25-27.58-38.82-39-66.77-27.82-8.32,3.32-15.58,9.29-23.32,14.07C3007.38,2029.61,3002.56,2032.65,2997.73,2035.67Z" transform="translate(1699.24 510.16)"/><path class="cls-31" d="M2222.23,2496.9c16.8,17.72,33.24,35.79,50.47,53.07,22.67,22.72,46.67,44,74.37,60.55,6.16,3.69,12.43,7.19,18.64,10.78q-25.53,66.64-51,133.32a60.94,60.94,0,0,0-2.52,9.75,52,52,0,0,0,30.37,57.8c22.49,9.51,49.07,2,62.8-18.1a81.72,81.72,0,0,0,8.35-16.7q19.43-50.48,38.4-101.11c4.22-11.21,8-22.6,12-33.91,60.95,4.07,122,2.63,183,3,3.13,0,6.25,1.64,9.38,2.51-21.38,53.53-42.77,107.06-70.29,157.85-3.66,6.76-7.87,13.22-11.54,20-10.82,19.88-26.86,33.24-48.23,40.91-40.68,14.6-80.83,30.74-121.76,44.55-106.92,36.1-214.11,71.41-321.28,106.75-34.66,11.43-69.61,22-104.42,32.89q-25.65-83.36-51.27-166.72c-1.26-4.12-2.11-8.37-3.16-12.56,33-11.64,66.38-22.48,99-35.2,22.11-8.63,37.45-25.86,50-45.87,35.12-55.82,64.7-114.54,92.21-174.34,18.06-39.26,35.5-78.8,53.12-118.27C2220.36,2504.38,2221.11,2500.56,2222.23,2496.9Z" transform="translate(1699.24 510.16)"/><path class="cls-33" d="M2370.51,2492.3c0-42.75,36.62-80.21,78.45-79.52,48.18.79,83,38.31,82.65,80.88-.32,44.36-35,81.51-83.3,81.07C2408.74,2574.38,2366.76,2538.62,2370.51,2492.3Zm77.14,56.48c35.61,2.87,57.8-28.9,58.29-53.22.63-31-24.21-55.78-54.69-57.4-28.85-1.54-56.92,24.18-57.47,54.55C2393.25,2521.68,2419.19,2551,2447.65,2548.78Z" transform="translate(1699.24 510.16)"/><path class="cls-34" d="M2447.65,2548.78c-28.46,2.23-54.4-27.1-53.87-56.07.55-30.37,28.62-56.09,57.47-54.55,30.48,1.62,55.32,26.44,54.69,57.4C2505.45,2519.88,2483.26,2551.65,2447.65,2548.78Z" transform="translate(1699.24 510.16)"/><polygon class="cls-9" points="3971 2291.05 3932.73 2357.34 3856.19 2357.34 3817.91 2291.05 3856.19 2224.76 3932.73 2224.76 3971 2291.05"/><polygon class="cls-15" points="2887.75 2761.92 2862.99 2804.82 2813.45 2804.82 2788.68 2761.92 2813.45 2719.02 2862.99 2719.02 2887.75 2761.92"/><polygon class="cls-35" points="2149.81 1815.77 2111.54 1882.05 2035 1882.05 1996.73 1815.77 2035 1749.48 2111.54 1749.48 2149.81 1815.77"/><g class="cls-36"><ellipse class="cls-37" cx="1655.96" cy="2027.24" rx="25.63" ry="167.08" transform="translate(771.58 2957.88) rotate(-60)"/><path class="cls-37" d="M1800.66,2110.78l-50,86.61c-7.08,12.25-77.6-15.21-157.51-61.35s-139-93.48-131.89-105.74l50-86.6c-7.08,12.26,52,59.6,131.89,105.74S1793.58,2123,1800.66,2110.78Z" transform="translate(1699.24 510.16)"/></g><g class="cls-36"><path class="cls-38" d="M1713,1927.56c79.92,46.15,139,93.49,131.9,105.74s-77.6-15.21-157.52-61.36-139-93.47-131.89-105.73S1633.06,1881.42,1713,1927.56Z" transform="translate(1699.24 510.16)"/><path class="cls-38" d="M1844.87,2033.3l-50,86.6c-7.08,12.26-77.6-15.21-157.52-61.35s-139-93.48-131.89-105.74l50-86.6c-7.07,12.26,52,59.6,131.89,105.73S1837.79,2045.56,1844.87,2033.3Z" transform="translate(1699.24 510.16)"/></g><g class="cls-36"><path class="cls-37" d="M1723.92,1908c79.92,46.14,139,93.48,131.89,105.74s-77.59-15.22-157.51-61.36-139-93.47-131.89-105.73S1644,1861.83,1723.92,1908Z" transform="translate(1699.24 510.16)"/><path class="cls-37" d="M1855.81,2013.71l-50,86.6c-7.07,12.25-77.59-15.22-157.51-61.35s-139-93.48-131.89-105.73l50-86.61c-7.07,12.26,52,59.6,131.89,105.73S1848.74,2026,1855.81,2013.71Z" transform="translate(1699.24 510.16)"/></g><g class="cls-36"><path class="cls-38" d="M1769.37,1829.48c79.93,46.15,139,93.48,131.89,105.74s-77.59-15.21-157.51-61.36-139-93.47-131.89-105.72S1689.46,1783.35,1769.37,1829.48Z" transform="translate(1699.24 510.16)"/><path class="cls-38" d="M1901.26,1935.22l-50,86.6c-7.07,12.25-77.59-15.21-157.51-61.35s-139-93.48-131.89-105.73l50-86.6c-7.07,12.25,52,59.59,131.89,105.72S1894.19,1947.47,1901.26,1935.22Z" transform="translate(1699.24 510.16)"/></g><g class="cls-36"><path class="cls-37" d="M1781.13,1808.9c79.91,46.14,139,93.47,131.89,105.73s-77.6-15.21-157.51-61.35-139-93.48-131.89-105.73S1701.21,1762.76,1781.13,1808.9Z" transform="translate(1699.24 510.16)"/><path class="cls-37" d="M1913,1914.63l-50,86.6c-7.08,12.26-77.6-15.21-157.51-61.35s-139-93.47-131.89-105.73l50-86.6c-7.08,12.25,52,59.59,131.89,105.73S1905.94,1926.89,1913,1914.63Z" transform="translate(1699.24 510.16)"/></g><ellipse class="cls-39" cx="1768.98" cy="1829.46" rx="27.06" ry="165.36" transform="translate(999.37 2956.87) rotate(-60)"/><g class="cls-36"><path class="cls-40" d="M3422.33,2602.6c99.5,57.45,173,116.39,164.21,131.65s-96.61-18.94-196.11-76.39-173-116.39-164.22-131.65S3322.83,2545.15,3422.33,2602.6Z" transform="translate(1699.24 510.16)"/><path class="cls-40" d="M3586.54,2734.25l-50,86.6c-8.81,15.27-96.61-18.94-196.11-76.39s-173-116.38-164.22-131.65l50-86.6c-8.82,15.26,64.72,74.2,164.22,131.65S3577.73,2749.51,3586.54,2734.25Z" transform="translate(1699.24 510.16)"/></g><g class="cls-36"><path class="cls-41" d="M3477.37,2506.11c99.51,57.46,173,116.4,164.22,131.66s-96.62-18.94-196.13-76.39-173-116.39-164.21-131.65S3377.87,2448.67,3477.37,2506.11Z" transform="translate(1699.24 510.16)"/><path class="cls-41" d="M3641.59,2637.77l-50,86.6c-8.81,15.26-96.62-18.94-196.13-76.39s-173-116.39-164.21-131.65l50-86.6c-8.81,15.26,64.71,74.2,164.21,131.65S3632.78,2653,3641.59,2637.77Z" transform="translate(1699.24 510.16)"/></g><g class="cls-36"><path class="cls-42" d="M3491,2481.73c99.5,57.45,173,116.39,164.21,131.65s-96.61-18.94-196.11-76.39-173-116.39-164.22-131.65S3391.49,2424.28,3491,2481.73Z" transform="translate(1699.24 510.16)"/><path class="cls-42" d="M3655.21,2613.38l-50,86.6c-8.81,15.26-96.61-18.94-196.11-76.39s-173-116.39-164.22-131.65l50-86.6c-8.81,15.26,64.71,74.2,164.22,131.65S3646.4,2628.64,3655.21,2613.38Z" transform="translate(1699.24 510.16)"/></g><g class="cls-36"><path class="cls-43" d="M3547.59,2384c99.5,57.45,173,116.39,164.22,131.65s-96.62-19-196.12-76.39-173-116.39-164.21-131.65S3448.09,2326.55,3547.59,2384Z" transform="translate(1699.24 510.16)"/><path class="cls-43" d="M3711.81,2515.65l-50,86.6c-8.81,15.27-96.62-18.94-196.12-76.39s-173-116.38-164.21-131.65l50-86.6c-8.81,15.26,64.71,74.2,164.21,131.65S3703,2530.91,3711.81,2515.65Z" transform="translate(1699.24 510.16)"/></g><g class="cls-36"><path class="cls-44" d="M3562.22,2358.36c99.51,57.45,173,116.4,164.22,131.66s-96.62-18.94-196.13-76.4-173-116.38-164.21-131.64S3462.72,2300.91,3562.22,2358.36Z" transform="translate(1699.24 510.16)"/><path class="cls-44" d="M3726.44,2490l-50,86.6c-8.81,15.26-96.62-18.94-196.13-76.39s-173-116.39-164.21-131.65l50-86.6c-8.81,15.26,64.71,74.2,164.21,131.64S3717.63,2505.28,3726.44,2490Z" transform="translate(1699.24 510.16)"/></g><ellipse class="cls-45" cx="3549.13" cy="2382.69" rx="33.7" ry="205.89" transform="matrix(0.5, -0.87, 0.87, 0.5, 1410.33, 4775.14)"/><g class="cls-36"><path class="cls-46" d="M2110.2,3689.45c57,32.9,99.1,66.66,94.05,75.4s-55.34-10.85-112.32-43.75-99.11-66.67-94.06-75.41S2053.21,3656.54,2110.2,3689.45Z" transform="translate(1699.24 510.16)"/><path class="cls-46" d="M2204.25,3764.85l-50,86.6c-5,8.74-55.34-10.85-112.32-43.75s-99.11-66.67-94.06-75.4l50-86.61c-5,8.74,37.07,42.5,94.06,75.41S2199.21,3773.58,2204.25,3764.85Z" transform="translate(1699.24 510.16)"/></g><g class="cls-36"><path class="cls-47" d="M2144.72,3630.19c57,32.9,99.1,66.66,94.06,75.4s-55.34-10.85-112.34-43.75-99.09-66.67-94-75.41S2087.73,3597.29,2144.72,3630.19Z" transform="translate(1699.24 510.16)"/><path class="cls-47" d="M2238.78,3705.59l-50,86.6c-5.05,8.74-55.34-10.85-112.34-43.75s-99.09-66.66-94-75.41l50-86.6c-5,8.74,37.07,42.51,94,75.41S2233.73,3714.33,2238.78,3705.59Z" transform="translate(1699.24 510.16)"/></g><g class="cls-36"><path class="cls-48" d="M2153.53,3615.21c57,32.91,99.1,66.67,94,75.41s-55.33-10.85-112.33-43.76-99.1-66.66-94.06-75.4S2096.54,3582.31,2153.53,3615.21Z" transform="translate(1699.24 510.16)"/><path class="cls-48" d="M2247.58,3690.62l-50,86.6c-5,8.74-55.33-10.85-112.33-43.75s-99.1-66.67-94.06-75.41l50-86.6c-5,8.74,37.07,42.5,94.06,75.4S2242.54,3699.36,2247.58,3690.62Z" transform="translate(1699.24 510.16)"/></g><g class="cls-36"><path class="cls-47" d="M2193,3546.25c57,32.9,99.1,66.65,94.05,75.39s-55.34-10.84-112.33-43.74-99.1-66.67-94.05-75.41S2136,3513.34,2193,3546.25Z" transform="translate(1699.24 510.16)"/><path class="cls-47" d="M2287,3621.64l-50,86.61c-5.05,8.74-55.34-10.85-112.33-43.75s-99.1-66.67-94.05-75.41l50-86.6c-5,8.74,37.05,42.5,94.05,75.41S2282,3630.39,2287,3621.64Z" transform="translate(1699.24 510.16)"/></g><g class="cls-36"><path class="cls-49" d="M2188.72,3554c57,32.9,99.1,66.66,94.05,75.4s-55.33-10.85-112.32-43.75-99.11-66.67-94.06-75.4S2131.73,3521.06,2188.72,3554Z" transform="translate(1699.24 510.16)"/><path class="cls-49" d="M2282.77,3629.37l-37.5,65c-5,8.74-55.33-10.85-112.32-43.75s-99.11-66.67-94.06-75.4l37.5-65c-5,8.73,37.07,42.49,94.06,75.4S2277.73,3638.11,2282.77,3629.37Z" transform="translate(1699.24 510.16)"/></g><ellipse class="cls-50" cx="2182.89" cy="3563.6" rx="23.78" ry="117.93" transform="translate(-295.48 4182.4) rotate(-60)"/><path class="cls-51" d="M933.94,806.79,1015.15,1219l-174.23,99.06q-20,11.37-38.91,4.36-21.28-8.76-26.88-37.24l-21.72-110.25q-7.33-37.21,4.12-59.35,8.91-18.33,34.39-32.83L917,1011.67,882.38,836.1Zm-4.52,268.08-122.67,69.75,21.72,110.25,122.67-69.75Z" transform="translate(1699.24 510.16)"/><path class="cls-51" d="M1021.79,757.63l34.45,174.86,126.23-71.77q26.07-14.82,38.09-10.72,16.71,4.54,23.9,41.07l21,109.88a97.17,97.17,0,0,1-6.09,57.74q-11.89,28.24-30.86,39L1050.71,1198.8,969.64,787.28Zm68.34,346.91L1214,1034.12l-21.58-109.55L1068.55,995Z" transform="translate(1699.24 510.16)"/><path class="cls-51" d="M1504.55,749.44,1526,858.29q7.27,36.93-5.2,60.59-9.61,18.12-35.69,32.93l-123.27,70.09,27.67,140.45L1338,1191.66l-74.29-377.1,174.83-99.4q20-11.37,40.13-3.3T1504.55,749.44Zm-53.33,30.32L1328,849.85l21.44,108.85,123.27-70.09Z" transform="translate(1699.24 510.16)"/><path class="cls-51" d="M1625,872.3,1572.82,902l-81.07-411.52,52.15-29.65Q1628.29,889.17,1625,872.3Z" transform="translate(1699.24 510.16)"/><path class="cls-51" d="M1901.27,799.55q6.07,30.9-.72,51.16-7.79,25.51-38.12,42.76L1754.57,954.8l-11-65.62,106.09-60.32-15-75.84L1710.9,823.44q-27.9,15.87-42.14,10.35t-21-39.85l-35-177.84,51.56-29.31q1.23,6.27,34.17,173.45l123.86-70.42-34.17-173.46,51.56-29.31Z" transform="translate(1699.24 510.16)"/><path class="cls-51" d="M2073.14,441l-3-15.45L1948,495q31.82,161.52,34.31,174.15l-52.75,30-46.76-237.36,175-98.69q28.44-16.19,41.92-11.34,16.26,5.59,23,40l3.73,19Z" transform="translate(1699.24 510.16)"/><line class="cls-52" x1="2870.63" y1="2632.36" x2="2885.75" y2="3497.21"/><line class="cls-52" x1="4358.25" y1="2520.03" x2="4373.36" y2="3384.88"/><polygon class="cls-53" points="2301.22 1869.45 2281.3 1903.94 2241.48 1903.94 2221.57 1869.45 2241.48 1834.97 2281.3 1834.97 2301.22 1869.45"/><polygon class="cls-35" points="4786.58 3711.48 4742.22 3788.32 4653.5 3788.32 4609.14 3711.48 4653.5 3634.64 4742.22 3634.64 4786.58 3711.48"/><polygon class="cls-54" points="2521.55 3608.33 2496.78 3651.23 2447.24 3651.23 2422.47 3608.33 2447.24 3565.43 2496.78 3565.43 2521.55 3608.33"/><path class="cls-51" d="M2704.61,3772.5c-11.06-19.16-5.8-38,7.66-45.81,6.79-3.92,12.75-4,20.41-2.73l-6.3-9.78-13.09-22.68,10.07-5.81L2773.2,3772l-8.25,4.76-4.83-6.42-.37.21c-2,7.14-6.08,14.66-13,18.65C2732,3797.76,2716,3792.14,2704.61,3772.5Zm49.84-9.71L2736.67,3732c-7.56-1.62-13-.72-17.87,2.08-9.46,5.46-11.73,18.89-4,32.35,8.12,14.06,19,19.12,29.27,13.17C2749.57,3776.45,2752.76,3771.05,2754.45,3762.79Z" transform="translate(1699.24 510.16)"/><path class="cls-51" d="M2798.8,3749.16l-.37.21,2.65,6.55-8,4.62-49.84-86.33,9.94-5.74,13.58,23.53,5.92,10.8c2.61-7.8,7.12-15.1,13.67-18.88,15.28-8.82,30.19-1.75,40.69,16.44,11.62,20.12,6.41,38.81-7.05,46.58C2814.53,3750.09,2806.74,3750.88,2798.8,3749.16Zm18-42.73c-7.49-13-16.89-19.18-28-12.74-5,2.87-8.58,8.66-11.15,17.1l17.85,30.91c7.81,1.48,14.12.1,18-2.14C2823.16,3734,2825.2,3721,2816.8,3706.43Z" transform="translate(1699.24 510.16)"/><path class="cls-51" d="M2826.11,3662.91l8.24-4.77,4.77,6.3.37-.21c2.74-7.56,7.12-15.1,14-19.09,15.15-8.75,30.07-1.68,40.64,16.63,11.55,20,6.33,38.69-7.12,46.46-5.46,3.15-12.39,3.76-20.29,2.66l6.19,10.17,11.48,19.88-9.94,5.74Zm57.74,4.81c-7.49-13-16.89-19.18-28-12.74-5,2.87-8.33,8.52-11.14,17.1l17.85,30.91c7.92,1.41,14.12.1,18-2.14C2890.21,3695.25,2892.25,3682.27,2883.85,3667.72Z" transform="translate(1699.24 510.16)"/><path class="cls-51" d="M2920.56,3671.1l-43-74.45,9.94-5.74,43.4,75.18c1.82,3.15,3.85,3.59,5.31,2.75a9.83,9.83,0,0,0,2-1.5l5.67,6.74a15.4,15.4,0,0,1-5.13,4.26C2931.29,3682.68,2925.53,3679.71,2920.56,3671.1Z" transform="translate(1699.24 510.16)"/><path class="cls-51" d="M2966.32,3692.69l-2.61-9a20.29,20.29,0,0,0,5-1.74c6.67-3.85,7.83-11.64,6-20.31l-1.18-5.14-57.73-45.39,10.3-6,30.83,25.68c4.76,4,10.32,8.92,15.29,13.32l.49-.28c-1.38-6.31-3.19-13.36-4.62-19.48l-8.28-38.7,9.7-5.6,14.63,76.58c2.6,14,1.65,26.37-10.24,33.23A22.49,22.49,0,0,1,2966.32,3692.69Z" transform="translate(1699.24 510.16)"/><path class="cls-51" d="M2980.93,3573.52l8.25-4.76,7,10.18.36-.21c-.27-9.71,3.06-17.94,9.73-21.79a17.07,17.07,0,0,1,7-2.43l3.1,9.85a19.15,19.15,0,0,0-6.26,2.32c-5,2.87-8.81,9.94-7.07,22.19l21.84,37.83-10,5.74Z" transform="translate(1699.24 510.16)"/><path class="cls-51" d="M3044.55,3607.27c-2.66-4.61-1.2-9.65,2.8-12s9-1,11.63,3.63a8.34,8.34,0,1,1-14.43,8.33Z" transform="translate(1699.24 510.16)"/><path class="cls-51" d="M3065.92,3578.76l-18.83-32.61-8.73,5-4.34-7.52,8.87-5.92-8.31-17.19,8.37-4.83,9.52,16.49,15.88-9.17,4.69,8.12-15.88,9.17,18.9,32.74c4.2,7.27,8.88,10.06,15.67,6.14a24.88,24.88,0,0,0,5.76-5.42l6.28,6.39a42.13,42.13,0,0,1-9.65,8.49C3081.51,3596,3072.64,3590.4,3065.92,3578.76Z" transform="translate(1699.24 510.16)"/><path class="cls-51" d="M3069.16,3497.85c-2.24-3.88-.68-8.18,3.2-10.42s8.38-1.44,10.62,2.44.68,8.17-3.2,10.41S3071.33,3501.6,3069.16,3497.85Zm12.53,17.5,9.94-5.74,34,58.92-9.94,5.74Z" transform="translate(1699.24 510.16)"/><path class="cls-51" d="M3124.35,3530.16c-11.06-19.16-5.8-38,7.66-45.81,6.79-3.92,12.75-4,20.41-2.73l-6.3-9.78L3133,3449.17l10.07-5.81,49.84,86.32-8.25,4.76-4.84-6.42-.36.21c-2,7.15-6.08,14.67-13,18.66C3151.71,3555.43,3135.69,3549.8,3124.35,3530.16Zm49.84-9.7-17.78-30.8c-7.56-1.61-13-.72-17.87,2.08-9.46,5.46-11.73,18.89-4,32.35,8.12,14.06,19,19.12,29.27,13.17C3169.31,3534.11,3172.49,3528.71,3174.19,3520.46Z" transform="translate(1699.24 510.16)"/><path class="cls-51" d="M3220.81,3545.76l-2.61-9a20.29,20.29,0,0,0,5-1.74c6.66-3.85,7.83-11.64,6.05-20.31l-1.18-5.14-57.74-45.39,10.31-5.95,30.83,25.68c4.76,4,10.32,8.92,15.29,13.32l.49-.28c-1.39-6.31-3.19-13.35-4.62-19.48l-8.29-38.7,9.7-5.6,14.64,76.58c2.59,14,1.64,26.37-10.24,33.23A22.56,22.56,0,0,1,3220.81,3545.76Z" transform="translate(1699.24 510.16)"/><path class="cls-51" d="M3226.93,3431.49l10.31-5.95,30.47,27c5.06,4.84,10.43,9.66,15.47,14.19l.48-.28c-1.52-6.56-3-13.62-4.67-20.42l-8.17-39.9,9.82-5.67,13.17,71-11.64,6.72Z" transform="translate(1699.24 510.16)"/><path class="cls-51" d="M3304.27,3426.28c-11.13-19.28-4.95-38.53,8.51-46.3,15-8.68,29.75-2.79,39.48,14.07a44.53,44.53,0,0,1,2.93,5.91l-39.77,23c7.94,12.06,20.2,15.66,31.47,9.15a30.7,30.7,0,0,0,12-13.08l7.3,4.52a40.54,40.54,0,0,1-15.9,17.26C3334.54,3449.87,3315.4,3445.56,3304.27,3426.28Zm38.42-28.65c-6.86-11.88-15.9-15.23-25.12-9.91-8.24,4.77-11.91,15.77-6.4,28.11Z" transform="translate(1699.24 510.16)"/><path class="cls-51" d="M3351.69,3359.46l8.24-4.76,7,10.18.37-.21c-.27-9.71,3.06-17.93,9.73-21.78a16.89,16.89,0,0,1,7-2.43l3.1,9.85a18.88,18.88,0,0,0-6.25,2.32c-5,2.87-8.82,9.93-7.08,22.19l21.84,37.82-9.94,5.74Z" transform="translate(1699.24 510.16)"/><path class="cls-51" d="M3416.9,3391.49,3418,3382c7.47,1.18,14.36,1.08,21.4-3,7.76-4.48,9.26-10.84,6.32-15.93-3.5-6.07-12.08-4.67-19.9-3.39-10.12,1.8-21.64,3.12-27.38-6.82-5.46-9.46-2.14-21.07,10.59-28.42a34,34,0,0,1,22.15-3.91l-1.09,9c-5.75-.72-11.25-.45-16.46,2.56-7.4,4.27-8.48,10.23-5.89,14.71,3.22,5.58,10.83,3.93,19,2.63,10.31-1.75,21.79-3.69,28.23,7.46,5.53,9.58,2.52,22-11.43,30A41,41,0,0,1,3416.9,3391.49Z" transform="translate(1699.24 510.16)"/><path class="cls-51" d="M3456.79,3338.22c-11.13-19.27-4.95-38.52,8.51-46.29,15-8.68,29.75-2.79,39.48,14.06a44.53,44.53,0,0,1,2.93,5.91l-39.77,23c7.94,12.07,20.2,15.66,31.47,9.15a30.7,30.7,0,0,0,12-13.08l7.3,4.52a40.54,40.54,0,0,1-15.9,17.26C3487.06,3361.81,3467.92,3357.5,3456.79,3338.22Zm38.42-28.64c-6.86-11.89-15.9-15.23-25.12-9.91-8.24,4.76-11.91,15.77-6.4,28.11Z" transform="translate(1699.24 510.16)"/><path class="cls-51" d="M3532.67,3325.45c-2.66-4.6-1.21-9.65,2.79-12s9-1,11.64,3.63a8.34,8.34,0,1,1-14.43,8.33Z" transform="translate(1699.24 510.16)"/><path class="cls-51" d="M3545.78,3286.84c-11.41-19.76-5.06-38.45,9.36-46.78s33.79-4.48,45.2,15.28c11.27,19.53,4.93,38.22-9.5,46.55S3557.05,3306.36,3545.78,3286.84Zm44.26-25.55c-7.84-13.57-19.95-18.87-30.14-13s-11.65,19-3.81,32.59,19.93,18.57,30,12.76S3597.81,3274.75,3590,3261.29Z" transform="translate(1699.24 510.16)"/><path class="cls-51" d="M3598.78,3216.8,3607,3212l7,10.18.37-.21c-.27-9.7,3.06-17.93,9.73-21.78a16.89,16.89,0,0,1,7-2.43l3.1,9.85A18.88,18.88,0,0,0,3628,3210c-5,2.87-8.82,9.94-7.08,22.19l21.84,37.83-9.94,5.74Z" transform="translate(1699.24 510.16)"/><path class="cls-51" d="M3675.68,3266c-2.87-5-2.32-11.59.91-18.3l-.28-.49a12.55,12.55,0,0,1-10.74-6.57c-2.87-5-1.72-10.81.12-14.62l-.28-.48a24.11,24.11,0,0,1-16.8-11.48c-7.42-12.85-1.93-26.85,10.07-33.78a27.24,27.24,0,0,1,9.21-3.38l20.49-11.83,4.41,7.64-12.13,7a19.71,19.71,0,0,1,11.85,9.33c7.28,12.6,2.26,26-9.75,32.95a23.66,23.66,0,0,1-10,3c-1,3-1.59,5.93.3,9.21,2.17,3.76,6.14,5,14.14.4l11.4-6.58c13.7-7.91,23.06-7.65,28.73,2.17,6.3,10.91.24,27-18.07,37.59C3694.8,3276.15,3681.56,3276.19,3675.68,3266Zm42.75-28.72c-3.15-5.45-8.44-4.82-16.08-.41l-10.19,5.88a33.31,33.31,0,0,1-8.2,3.44c-2.49,5.48-2.28,10-.32,13.44,3.64,6.3,12.38,6.59,23.05.43C3718,3253.55,3722,3243.46,3718.43,3237.28ZM3683.28,3194c-5-8.61-13.49-10.48-20.4-6.49s-9.55,12.3-4.58,20.91,13.82,10.78,20.61,6.86S3688.25,3202.65,3683.28,3194Z" transform="translate(1699.24 510.16)"/></g><polygon class="cls-1" points="5496.38 3817.73 5496.38 1657.86 3625.87 577.92 1755.36 1657.86 1755.36 3817.73 3625.87 4897.67 5496.38 3817.73"/></g></svg>