<?xml version="1.0" encoding="utf-8"?>
<!-- Generator: Adobe Illustrator 26.4.1, SVG Export Plug-In . SVG Version: 6.00 Build 0)  -->
<svg version="1.1" id="Layer_1" xmlns="http://www.w3.org/2000/svg" xmlns:xlink="http://www.w3.org/1999/xlink" x="0px" y="0px"
	 viewBox="0 0 2521 2911" style="enable-background:new 0 0 2521 2911;" xml:space="preserve">
<style type="text/css">
	.st0{fill:#009BD7;}
	.st1{fill:#005373;}
	.st2{fill:#007EB4;}
	.st3{opacity:0.94;}
	.st4{fill:#FFFFFF;}
</style>
<g>
	<polygon class="st0" points="2521,727.6 2521,2181.7 1260.5,2911 1260.5,1454.5 	"/>
	<polygon class="st1" points="0,727.6 0,2181.7 1260.5,2911 1260.5,1454.5 	"/>
	<polygon class="st2" points="0,727.6 1260.5,0 2521,727.6 1260.5,1454.5 	"/>
	<path d="M1909.3,374.3v247.8l-648.8-375L218.9,852v1206.3l1041.3,603.9l1045-605.2V602.5L1909.3,374.3z M1911.3,1832.2
		l-652.6,377.4l-653.2-375.6v-758.5l655-375.6l651.2,375.6L1911.3,1832.2z"/>
	<g class="st3">
		<path class="st4" d="M513.6,1234.5v350.2c0,30.6,1,63.6,2.4,83.9h-63.1l-2.7-47.1h-1c-16.8,33-50.8,53.6-91.6,53.6
			c-66.9,0-119.7-60.5-119.7-152.3c-0.7-99.7,58-158.8,125.6-158.8c38.4,0,66.2,17.2,78.9,39.2h1v-168.7L513.6,1234.5L513.6,1234.5z
			 M442.9,1494.7c0-6.5-0.7-13.1-1.7-19.6c-6.2-29.2-28.8-53.3-61.1-53.3c-45.3,0-70.7,42.6-70.7,98.3c0,54.3,25.4,94.2,70.3,94.2
			c28.8,0,54.2-20.6,61.1-53.3c1.7-7.2,2.4-14.4,2.4-22v-44.3H442.9z"/>
		<path class="st4" d="M647.4,1540.7c1.7,53.6,41.5,77,86.1,77c32.9,0,56.3-4.8,77.5-13.4l10.3,51.9c-31.2,12.7-64.2,18.9-97.8,18.2
			c-90.9,0-144.4-59.1-144.4-150.2c0-82.5,47.3-160.2,136.9-160.2c90.9,0,120.8,79.4,120.8,144.7c0,10.7-0.7,21.3-2.4,31.6
			L647.4,1540.7z M770.2,1488.2c0.7-27.5-11-72.9-58-72.9c-43.9,0-62.1,42.3-64.8,72.9H770.2z"/>
		<path class="st4" d="M944.9,1371l45.3,150.9c8.2,26.1,13.7,50.2,18.9,74.6h1.7c5.1-24.4,11.7-47.8,18.9-74.6l44.3-150.9h75.1
			l-107,297.6h-69.6L868,1371H944.9z"/>
		<path class="st4" d="M1293.4,1287.8v84.9h72.4v40.9h-72.4V1573c0,36.8,9.9,57.4,38.1,57.4c9.9,0,19.9-1,29.2-3.8l2.4,40.2
			c-9.9,4.1-25.4,7.2-44.9,7.2c-23.7,0-42.5-7.9-54.6-22.7c-14.4-15.8-19.6-42.3-19.6-77v-161.2h-43.2v-40.9h43.2v-70.8
			L1293.4,1287.8z"/>
		<path class="st4" d="M1659.9,1518.1c0,109.3-71.4,157.1-138.6,157.1c-75.5,0-133.5-58.8-133.5-152.3c0-99,61.1-157.1,137.9-157.1
			C1605.6,1365.8,1659.9,1427.7,1659.9,1518.1z M1438.9,1521.1c0,64.6,35,113.8,84.4,113.8c48.4,0,84.4-48.1,84.4-114.8
			c0-50.2-23.7-113.8-83.4-113.8S1438.9,1464.8,1438.9,1521.1z"/>
		<path class="st4" d="M1957.3,1518.1c0,109.3-71.4,157.1-138.6,157.1c-75.5,0-133.5-58.8-133.5-152.3c0-99,61.1-157.1,138.3-157.1
			C1903.1,1365.8,1957.3,1427.7,1957.3,1518.1z M1736.4,1521.1c0,64.6,35,113.8,84.4,113.8c48.4,0,84.7-48.1,84.7-114.8
			c0-50.2-23.7-113.8-83.4-113.8C1762.4,1406.4,1736.4,1464.8,1736.4,1521.1z"/>
		<path class="st4" d="M2002.6,1234.5h50.8v433.7h-50.8V1234.5z"/>
		<path class="st4" d="M2113.1,1613.3c19.9,13.1,42.9,20.6,66.9,21.3c36.7,0,54.2-19.6,54.2-44c0-25.8-14.4-39.5-51.8-54.3
			c-50.1-18.9-73.8-48.1-73.8-83.9c0-47.8,36.4-86.6,96.1-86.6c24-0.3,47.7,6.2,68.6,18.2l-12.7,39.2c-16.8-11-36.7-17.2-57-17.2
			c-29.8,0-46.7,18.2-46.7,40.2c0,24.4,16.8,35.4,52.8,50.2c48.4,19.6,73.1,45,73.1,89.4c0,51.9-38.1,88.7-104.3,88.7
			c-30.5,0-58.7-7.9-78.2-20.3L2113.1,1613.3z"/>
	</g>
</g>
</svg>
