<?xml version="1.0" encoding="utf-8"?>
<!-- Generator: Adobe Illustrator 24.0.0, SVG Export Plug-In . SVG Version: 6.00 Build 0)  -->
<svg version="1.1" id="Layer_1" xmlns="http://www.w3.org/2000/svg" xmlns:xlink="http://www.w3.org/1999/xlink" x="0px" y="0px"
	 viewBox="0 0 735 852" style="enable-background:new 0 0 735 852;" xml:space="preserve">
<style type="text/css">
	.st0{fill:#C49A6C;}
	.st1{fill:#3C2415;}
	.st2{opacity:0.9;}
</style>
<g id="Layer_1_1_">
	<g>
		<polygon class="st0" points="705.6,231 367.5,35.8 367.5,35.8 29.4,231 29.4,621.5 367.5,816.7 705.6,621.5 		"/>
		<path class="st1" d="M734.9,637.4V213.1l-29.3-16.9L427.8,35.8L367.5,1l-60.3,34.8L29.4,196.2L0.1,213.1v424.3l29.3,16.9
			l281.3,162.4l56.9,32.8l56.9-32.8l281.3-162.4L734.9,637.4z M29.4,621.5V231L367.5,35.8l0,0L705.6,231v390.4L367.5,816.7
			L29.4,621.5z"/>
	</g>
	<g class="st2">
		<path class="st1" d="M365.5,797.3l4.5,4.5c1,1,1.9,1.9,2.7,2.9h0.1c-0.4-1.2-0.7-2.5-1-3.8l-1.4-6.3l1.6-0.9l4.7,4.3
			c1.1,1,2.1,2,2.9,2.9h0.1c-0.4-1.2-0.8-2.4-1.2-3.9l-1.6-6.1l1.9-1.1l2.7,12.4l-1.7,1l-4.5-4.1c-1-1-2-1.8-2.9-2.9l0,0
			c0.5,1.4,0.8,2.7,1.1,4l1.2,5.9l-1.7,1l-9.2-8.6L365.5,797.3z"/>
		<path class="st1" d="M381.7,787.9l4.5,4.5c1,1,1.9,1.9,2.7,2.9h0.1c-0.4-1.2-0.7-2.5-1-3.8l-1.4-6.3l1.6-0.9l4.7,4.3
			c1.1,1,2.1,2,2.9,2.9h0.1c-0.4-1.2-0.8-2.4-1.2-3.9l-1.6-6.1l1.9-1.1l2.7,12.4l-1.7,1l-4.5-4.1c-1-1-2-1.8-2.9-2.9l0,0
			c0.5,1.4,0.8,2.7,1.1,4l1.2,5.9l-1.7,1l-9.2-8.6L381.7,787.9z"/>
		<path class="st1" d="M397.8,778.5l4.5,4.5c1,1,1.9,1.9,2.7,2.9h0.1c-0.4-1.2-0.7-2.5-1-3.8l-1.4-6.3l1.6-0.9l4.7,4.3
			c1.1,1,2.1,2,2.9,2.9h0.1c-0.4-1.2-0.8-2.4-1.2-3.9l-1.6-6.1l1.9-1.1l2.7,12.4l-1.7,1l-4.5-4.1c-1-1-2-1.8-2.9-2.9l0,0
			c0.5,1.4,0.8,2.7,1.1,4l1.2,5.9l-1.7,1l-9.2-8.6L397.8,778.5z"/>
		<path class="st1" d="M417.1,779.7c-0.5-0.8-0.3-1.7,0.5-2.1c0.8-0.4,1.6-0.2,2.1,0.6s0.3,1.7-0.5,2.1
			C418.4,780.8,417.6,780.5,417.1,779.7z"/>
		<path class="st1" d="M418.5,770.8c-0.7-1.2-1.4-2.3-2-3.2l1.7-1l1.3,2l0.1-0.1c-0.3-1.7,0.3-3.2,1.6-4c0.2-0.1,0.4-0.2,0.6-0.2
			l1,1.8c-0.2,0.1-0.4,0.2-0.7,0.3c-1.3,0.8-1.7,2.3-1.1,3.9c0.1,0.3,0.2,0.6,0.4,0.9l3.2,5.6l-1.9,1.1L418.5,770.8z"/>
		<path class="st1" d="M428.4,772.1c0.8,0,2-0.2,2.9-0.7c1.4-0.8,1.6-1.9,1.1-2.7c-0.5-0.9-1.4-1.1-3.1-0.8
			c-2.3,0.4-3.8-0.1-4.5-1.4c-1-1.7-0.4-3.9,1.8-5.2c1.1-0.6,2.2-0.9,2.9-0.8l0.3,1.7c-0.6,0-1.5,0.1-2.5,0.6
			c-1.1,0.7-1.4,1.7-0.9,2.4c0.5,0.9,1.4,0.9,3,0.6c2.2-0.4,3.7,0,4.6,1.6c1.1,1.8,0.4,4-2.1,5.4c-1.1,0.7-2.4,1-3.4,1L428.4,772.1z
			"/>
		<path class="st1" d="M432.8,754.1l1.7,3l2.7-1.6l0.8,1.4l-2.7,1.6l3.3,5.6c0.8,1.3,1.6,1.8,2.6,1.2c0.5-0.3,0.8-0.6,1-0.8l0.9,1.4
			c-0.3,0.4-0.8,0.8-1.5,1.2c-0.9,0.5-1.8,0.6-2.5,0.4c-0.9-0.2-1.6-1.1-2.3-2.3l-3.3-5.7l-1.6,0.9l-0.8-1.4l1.6-0.9l-1.5-2.5
			L432.8,754.1z"/>
		<path class="st1" d="M452.6,756.8c0.6,1.1,1.2,2,1.7,2.8l-1.7,1l-1.1-1.6l0,0c0,1.1-0.5,2.9-2.3,4c-1.6,1-4.1,1.2-6.3-2.5
			l-3.6-6.1l1.9-1.1l3.4,5.8c1.2,2,2.5,3,4.3,2c1.3-0.7,1.6-2.1,1.5-3.2c-0.1-0.3-0.2-0.7-0.4-1.1l-3.7-6.4l1.9-1.1L452.6,756.8z"/>
		<path class="st1" d="M457.5,737.2l7.4,12.6c0.5,0.9,1.2,2,1.7,2.6l-1.7,1l-1.1-1.8l0,0c0.1,1.5-0.7,3.1-2.4,4.1
			c-2.5,1.5-5.7,0.5-7.6-2.7c-2-3.5-1.1-6.9,1.4-8.3c1.6-0.9,3.1-0.8,4.1-0.2l0,0l-3.6-6.2L457.5,737.2z M460.9,747.5
			c-0.1-0.2-0.3-0.5-0.6-0.8c-1-1-2.6-1.4-4-0.6c-2,1.1-2.1,3.6-0.8,5.9c1.2,2.1,3.3,3.3,5.3,2.1c1.3-0.7,2-2.3,1.5-3.9
			c-0.1-0.3-0.2-0.6-0.4-0.9L460.9,747.5z"/>
		<path class="st1" d="M463.9,736.1c0.4,0.6,0.2,1.4-0.5,1.9c-0.7,0.4-1.4,0.1-1.8-0.5c-0.4-0.7-0.2-1.5,0.5-1.9
			C462.7,735.2,463.5,735.4,463.9,736.1z M469.6,750.7l-6.1-10.5l1.9-1.1l6.1,10.5L469.6,750.7z"/>
		<path class="st1" d="M481,736.9c2.3,3.9,0.6,7.1-2,8.6c-2.8,1.6-6.2,0.8-8.1-2.5c-2-3.5-0.9-6.9,2-8.6
			C475.8,732.7,479.1,733.7,481,736.9z M472.8,741.9c1.3,2.3,3.7,3.2,5.5,2.2c1.8-1.1,2.2-3.6,0.8-5.9c-1-1.8-3.2-3.5-5.5-2.2
			C471.4,737.3,471.6,739.9,472.8,741.9z"/>
		<path class="st1" d="M484.9,740.3c-0.5-0.8-0.3-1.7,0.5-2.1c0.8-0.4,1.6-0.2,2.1,0.6s0.3,1.7-0.5,2.1
			C486.2,741.4,485.3,741.1,484.9,740.3z"/>
		<path class="st1" d="M497.7,733.8c-0.3,0.5-1.2,1.5-2.7,2.4c-3.2,1.8-6.4,0.9-8.3-2.3s-1-6.8,2.4-8.8c1.1-0.7,2.3-1,2.9-1l0.4,1.7
			c-0.6,0-1.5,0.2-2.5,0.8c-2.4,1.4-2.7,3.9-1.4,6.1c1.4,2.4,3.8,3,5.9,1.8c1.1-0.6,1.6-1.3,2-1.9L497.7,733.8z"/>
		<path class="st1" d="M506.4,722.2c2.3,3.9,0.6,7.1-2,8.6c-2.8,1.6-6.2,0.8-8.1-2.5c-2-3.5-0.9-6.9,2-8.6
			C501.2,718,504.5,719,506.4,722.2z M498.1,727.1c1.3,2.3,3.7,3.2,5.5,2.2c1.8-1.1,2.2-3.6,0.8-5.9c-1-1.8-3.2-3.5-5.5-2.2
			C496.7,722.5,497,725.1,498.1,727.1z"/>
		<path class="st1" d="M507.4,718.5c-0.6-1.1-1.2-2-1.7-2.8l1.7-1l1.1,1.6h0.1c0-1.3,0.4-2.8,2.2-3.8c1.4-0.8,3-0.6,4.2,0.4l0,0
			c0-0.8,0.1-1.5,0.4-2c0.3-0.8,0.9-1.5,1.9-2.1c1.4-0.8,4-1.1,6.1,2.5l3.6,6.2l-1.9,1.1l-3.4-5.9c-1.2-2-2.6-2.8-4.1-1.9
			c-1.1,0.6-1.5,1.9-1.2,3c0.1,0.3,0.2,0.7,0.4,1l3.8,6.5l-1.9,1.1l-3.6-6.3c-1-1.7-2.4-2.4-3.9-1.6c-1.2,0.7-1.5,2.1-1.2,3.3
			c0.1,0.3,0.2,0.7,0.4,1l3.7,6.3l-1.9,1.1L507.4,718.5z"/>
	</g>
	<g id="Artwork_1_">
		<g>
			<path class="st1" d="M518.8,575.1c-1.2,0-2.2-0.4-3.1-1.2c-1.7-1.7-1.7-4.4,0-6.1c40-40,62.1-93.2,62.1-149.8s-22-110-62-150
				c-40.1-40-93.2-62.1-149.8-62.1S256.1,228,216.2,268s-62.1,93.2-62.1,149.8s22,109.8,62.1,149.8c1.7,1.7,1.7,4.4,0,6.1
				c-1.7,1.7-4.4,1.7-6.1,0c-41.6-41.6-64.6-97.1-64.6-156s23-114.3,64.6-156c41.6-41.6,97.1-64.6,156-64.6s114.3,23,156,64.6
				c41.6,41.6,64.6,97.1,64.6,156s-23,114.3-64.6,156C521.1,574.7,519.9,575.1,518.8,575.1z"/>
		</g>
		<g>
			<g>
				<path class="st1" d="M197.4,599.4c0,14.8-5.4,21.3-12.1,21.3c-9,0-12.1-10.4-12.1-20.9c0-11.9,3.8-21.3,12.4-21.3
					C195.2,578.4,197.4,589.6,197.4,599.4z M181.7,599.6c-0.1,9.7,1.1,14,3.8,14c2.6,0,3.5-4.6,3.5-14c0-8.8-0.9-14-3.5-14
					C182.9,585.5,181.6,590,181.7,599.6z"/>
			</g>
			<g>
				<path class="st1" d="M124,494.6L124,494.6l-7.1,3.7l-1.4-6.5l9.5-4.9h7.3v41.3H124V494.6L124,494.6z"/>
			</g>
			<g>
				<path class="st1" d="M98.5,419.8v-5.6l4.1-5.3c5.4-6.8,9.7-12.5,9.7-18.4c0-3.3-1.8-5.7-5.3-5.7c-2.6,0-4.7,1.2-6.2,2.1
					l-1.4-6.4c1.9-1.2,5.5-2.5,9.2-2.5c9,0,11.9,6.1,11.9,11.9c0,7.8-4.8,14-9.6,19.5l-2.5,2.9v0.1h12.7v7.3H98.5V419.8z"/>
			</g>
			<g>
				<path class="st1" d="M130.6,306.9c1.6,1,3.9,1.6,6.1,1.6c4,0,6.2-2.5,6.2-6c0-4.6-3.5-6.5-7.8-6.5h-1.2v-6.1h0.9
					c3.1-0.1,7-1.3,7-5.4c0-3-1.9-4.8-4.8-4.8c-1.8,0-3.7,0.7-5.2,1.6l-1.1-6.2c1.7-1.1,5.1-2.1,8.6-2.1c7.2,0,10.9,4.7,10.9,10
					c0,4.1-2.3,7.6-6,9.3v0.1c4,1.3,7,4.9,7,10.5c0,6.2-4.8,12.5-13.8,12.5c-3.4,0-6.2-0.9-8.2-1.8L130.6,306.9z"/>
			</g>
			<g>
				<path class="st1" d="M214.4,232v-9.9h-14.2v-5.8l13.5-25.8h8v24.8h4.1v6.6h-4v9.9L214.4,232L214.4,232z M214.4,215.5V207
					c0-2.2,0.3-4.6,0.5-6.8h-0.3c-1,2.3-1.8,4.1-2.9,6.4l-4.4,8.7v0.1h7.1V215.5z"/>
			</g>
			<g>
				<path class="st1" d="M322.3,152.4h-11l-1,7.4c0.4,0,0.9,0,1.2,0c1.8,0.1,5.4,0.9,7.8,3.1c2.3,2.2,3.6,5.4,3.6,9.5
					c0,8.1-5.4,14.6-14.3,14.6c-2.9,0-6.1-0.8-7.8-1.6l1.2-6.6c1.5,0.8,3.7,1.4,6,1.4c4,0,6.7-2.6,6.7-7c0-5.6-4.2-7.4-8.9-7.4
					c-1.2,0-2.1,0-2.9,0.1l2.3-20.8h17.1L322.3,152.4L322.3,152.4z"/>
			</g>
			<g>
				<path class="st1" d="M533.8,586.8L533.8,586.8l-7.1,3.7l-1.4-6.5l9.5-4.9h7.3v41.3h-8.3V586.8L533.8,586.8z"/>
				<path class="st1" d="M560.9,586.8L560.9,586.8l-7.1,3.7l-1.4-6.5l9.5-4.9h7.3v41.3h-8.3V586.8L560.9,586.8z"/>
			</g>
			<g>
				<path class="st1" d="M593,494.6L593,494.6l-7.1,3.7l-1.4-6.5l9.5-4.9h7.3v41.3H593V494.6L593,494.6z"/>
				<path class="st1" d="M634.3,507.3c0,14.8-5.4,21.3-12.1,21.3c-9,0-12.1-10.4-12.1-20.9c0-11.9,3.8-21.3,12.4-21.3
					C632.1,486.4,634.3,497.4,634.3,507.3z M618.6,507.5c-0.1,9.7,1.1,14,3.8,14c2.6,0,3.5-4.6,3.5-14c0-8.8-0.9-14-3.5-14
					S618.5,497.9,618.6,507.5z"/>
			</g>
			<g>
				<path class="st1" d="M615.5,413.3c1.6,0,2.4-0.1,3.8-0.3c1.6-0.3,3.5-1.2,4.8-2.5c1.8-1.7,3.3-4.6,4-8.4H628
					c-1.3,1.4-3.3,2.5-6,2.5c-5.4,0-9.7-4.8-9.7-12.3c0-7.1,4.4-14.5,12.3-14.5c7.7,0,11.7,7,11.7,17c0,9.3-3,15.9-6.8,20
					c-2.5,2.7-6.1,4.6-10.2,5.2c-1.3,0.2-2.6,0.2-3.8,0.2V413.3L615.5,413.3z M620.5,391.7c0.1,4,1.3,7.3,3.8,7.3
					c1.4,0,2.7-1.1,3.2-2.1c0.3-0.9,0.4-1.6,0.4-4.4c0-5.5-1.5-8.6-3.7-8.6C622,384,620.4,386.7,620.5,391.7z"/>
			</g>
			<g>
				<path class="st1" d="M581.2,304c0-5.2,2.9-8.8,6.2-11v-0.1c-3.5-2.3-5.1-5.9-5.1-9.1c0-6.7,5.4-10.9,11.7-10.9
					c6,0,10.7,4,10.7,10.2c0,2.7-1.1,6.4-5.4,9.1v0.1c3.8,2.1,6.3,6,6.3,10.8c0,7.6-5.6,12.1-12.4,12.1
					C586.2,315.2,581.2,310.7,581.2,304z M597.6,303.5c0-3.8-2.4-6.4-4.8-7.6c-2.1,1.4-3.6,4-3.6,7.2c0,3.6,1.4,6.6,4.3,6.6
					C596.2,309.6,597.6,307,597.6,303.5z M590.1,283.5c0,2.9,1.6,5,4,6.2c1.8-1,2.9-3.5,2.9-6c0-2.8-1-5.4-3.4-5.4
					C591.3,278.4,590.1,281,590.1,283.5z"/>
			</g>
			<g>
				<path class="st1" d="M533.3,190.7v5.5l-13,35.8h-8.2l12.7-33.9V198h-14.1v-7.3H533.3L533.3,190.7z"/>
			</g>
			<g>
				<path class="st1" d="M431.2,151.4c-1.1,0.1-2.1,0.2-3.5,0.5c-5.5,1.2-8.2,5.8-9.2,11h0.2c1.4-2,3.7-3.3,6.3-3.3
					c5.6,0,9.3,5,9.3,12.9c0,7.2-3.7,14.6-11.7,14.6c-7.8,0-12.6-6.8-12.6-17c0-9,3-15.2,6.8-19.2c2.7-3,6.6-5,10.1-5.6
					c2-0.4,3.3-0.4,4.2-0.5v6.6H431.2z M426.3,172.3c-0.1-3.5-1.2-6.8-3.8-6.8c-1.3,0-2.6,0.9-3.4,2.8c-0.3,0.5-0.5,1.7-0.5,3.7
					c0,5.4,1.5,9,4,9C425.3,181,426.3,177.3,426.3,172.3z"/>
			</g>
		</g>
		<g>
			<g>
				<g>
					<path class="st1" d="M367.5,179.9c-2.4,0-4.3-1.9-4.3-4.3v-30.2c0-2.4,1.9-4.3,4.3-4.3s4.3,1.9,4.3,4.3v30.2
						C371.8,178,369.8,179.9,367.5,179.9z"/>
				</g>
			</g>
			<g>
				<g>
					<path class="st1" d="M266.8,201.8c-1.6,0-3.2-1-3.9-2.5l-12.5-27.5c-1-2.2,0-4.7,2.1-5.8c2.2-1,4.7,0,5.8,2.1l12.6,27.5
						c1,2.2,0,4.7-2.1,5.8C268,201.7,267.4,201.8,266.8,201.8z"/>
				</g>
			</g>
			<g>
				<g>
					<path class="st1" d="M184.3,263.5c-1,0-2-0.4-2.8-1.1l-22.9-19.8c-1.8-1.5-2-4.3-0.5-6.1c1.5-1.7,4.3-2,6.1-0.5l22.9,19.8
						c1.8,1.5,2,4.3,0.5,6.1C186.8,263,185.6,263.5,184.3,263.5z"/>
				</g>
			</g>
			<g>
				<g>
					<path class="st1" d="M135.1,353.9c-0.4,0-0.8-0.1-1.2-0.2l-29-8.6c-2.3-0.7-3.7-3.1-3-5.4s3.1-3.7,5.4-3l29,8.6
						c2.3,0.7,3.7,3.1,3,5.4C138.6,352.8,136.9,353.9,135.1,353.9z"/>
				</g>
			</g>
			<g>
				<g>
					<path class="st1" d="M97.8,461c-2.1,0-3.9-1.5-4.2-3.7c-0.4-2.4,1.3-4.5,3.7-4.9l29.9-4.3c2.4-0.4,4.5,1.3,4.9,3.7
						c0.4,2.3-1.3,4.5-3.7,4.9L98.5,461C98.2,461,98,461,97.8,461z"/>
				</g>
			</g>
			<g>
				<g>
					<path class="st1" d="M138.3,569.6c-1.4,0-2.8-0.7-3.7-2c-1.2-2-0.7-4.7,1.3-6l25.4-16.3c2-1.2,4.7-0.7,6,1.3
						c1.2,2,0.7,4.7-1.3,6l-25.4,16.3C140,569.4,139.1,569.6,138.3,569.6z"/>
				</g>
			</g>
			<g>
				<g>
					<path class="st1" d="M468.1,201.8c-0.6,0-1.2-0.1-1.8-0.4c-2.2-1-3.2-3.6-2.1-5.8l12.6-27.5c1-2.2,3.6-3.2,5.8-2.1
						c2.2,1,3.2,3.6,2.1,5.8L472,199.3C471.3,200.9,469.7,201.8,468.1,201.8z"/>
				</g>
			</g>
			<g>
				<g>
					<path class="st1" d="M550.6,263.5c-1.2,0-2.4-0.5-3.3-1.5c-1.5-1.8-1.3-4.5,0.5-6.1l22.9-19.8c1.8-1.5,4.5-1.3,6.1,0.5
						c1.5,1.8,1.3,4.5-0.5,6.1l-22.9,19.8C552.6,263.2,551.5,263.5,550.6,263.5z"/>
				</g>
			</g>
			<g>
				<g>
					<path class="st1" d="M599.8,353.9c-1.8,0-3.6-1.2-4.1-3.1c-0.7-2.3,0.7-4.7,2.9-5.4l29-8.6c2.3-0.7,4.7,0.7,5.4,2.9
						c0.7,2.3-0.7,4.7-2.9,5.4l-29,8.6C600.7,353.9,600.3,353.9,599.8,353.9z"/>
				</g>
			</g>
			<g>
				<g>
					<path class="st1" d="M637.1,461c-0.2,0-0.4,0-0.6,0l-29.9-4.3c-2.4-0.4-4-2.5-3.7-4.9c0.4-2.4,2.5-4,4.9-3.7l29.9,4.3
						c2.4,0.4,4,2.5,3.7,4.9C641.1,459.4,639.2,461,637.1,461z"/>
				</g>
			</g>
			<g>
				<g>
					<path class="st1" d="M596.7,569.5c-0.8,0-1.6-0.2-2.3-0.7l-25.5-16.3c-2-1.2-2.6-3.9-1.3-6c1.2-2,3.9-2.6,6-1.3l25.5,16.3
						c2,1.2,2.6,3.9,1.3,6C599.5,568.8,598.1,569.5,596.7,569.5z"/>
				</g>
			</g>
		</g>
		<g>
			<path class="st1" d="M366,599.5c-100.1,0-181.6-81.5-181.6-181.6S265.8,236.2,366,236.2s181.6,81.5,181.6,181.6
				S466.1,599.5,366,599.5z M366,253.5c-90.6,0-164.3,73.7-164.3,164.3S275.3,582.2,366,582.2s164.3-73.7,164.3-164.3
				S456.6,253.5,366,253.5z"/>
		</g>
		<g>
			<path class="st1" d="M489,548.1c-2.2,0-4.4-0.9-6.1-2.5l-91.2-91.2c-3.4-3.4-3.4-8.8,0-12.2c3.4-3.4,8.8-3.4,12.2,0l91.2,91.2
				c3.4,3.4,3.4,8.8,0,12.2C493.4,547.3,491.2,548.1,489,548.1z"/>
		</g>
	</g>
	<g>
		<path class="st0" d="M413.1,621.3h10.3v88.6h-10.3V621.3z"/>
		<path class="st0" d="M450.5,711.1c-6.2,0-12-1.6-16-4.1l2.7-8.3c3,2.2,8.5,4.3,13.7,4.3c7.6,0,11.1-4,11.1-8.9
			c0-5.2-2.9-8.1-10.6-11.1c-10.2-3.8-15-9.8-15-17.1c0-9.7,7.4-17.7,19.7-17.7c5.8,0,10.8,1.8,14,3.7l-2.6,8
			c-2.3-1.5-6.4-3.5-11.7-3.5c-6.1,0-9.5,3.7-9.5,8.3c0,5,3.4,7.3,10.8,10.2c9.9,4,14.9,9.2,14.9,18.2
			C471.9,703.6,464.1,711.1,450.5,711.1z"/>
		<path class="st1" d="M318.3,621.3h-10.4v36.1h-0.2c-2.7-4.9-8.5-9.2-17.2-9.2c-13.9,0-25.7,12.4-25.6,32.4
			c0,18.3,10.6,30.7,24.4,30.7c9.3,0,16.3-5.1,19.5-11.9h0.2l0.5,10.5h9.3c-0.4-4.1-0.5-10.2-0.5-15.6L318.3,621.3L318.3,621.3z
			 M307.9,674.1v10.5c0,1.8-0.1,3.2-0.5,4.7c-1.9,8.3-8.2,13.1-15.1,13.1c-11.2,0-16.8-10.1-16.8-22.3c0-13.3,6.4-23.3,17.1-23.3
			c7.8,0,13.4,5.7,14.9,12.7C307.9,670.9,308,672.7,307.9,674.1L307.9,674.1z"/>
		<rect x="333.3" y="649.6" class="st1" width="10.3" height="60.3"/>
		<path class="st1" d="M338.3,639.3c4.1,0,6.7-3,6.6-6.8c0-3.8-2.5-6.8-6.3-6.9c-3.7,0-6.5,3-6.5,6.9S334.7,639.3,338.3,639.3z"/>
		<path class="st1" d="M398.5,672.8c0-12.1-4.2-24.7-21.6-24.7c-7.2,0-14,2.2-18.7,5.4l2.4,7.3c4-2.8,9.5-4.5,14.8-4.5
			c11.7,0,13,8.9,13,14v1.3c-21.9-0.2-34.2,7.9-34.2,22.4c0,8.6,5.9,17.3,17.4,17.3c8.1,0,14.3-4.2,17.4-8.9h0.4l0.8,7.6l0,0h9.3
			c-0.8-4.1-1-9.2-1-14.4L398.5,672.8L398.5,672.8z M388.6,689.6c0,1.2-0.2,2.5-0.6,3.5c-1.7,5.1-6.4,10.1-13.8,10.1
			c-5.3,0-9.7-3.4-9.7-10.5c0-11.7,12.8-13.9,24.1-13.6V689.6z"/>
		<rect x="413.1" y="621.3" class="st1" width="10.3" height="88.6"/>
		<path class="st1" d="M456.9,674.8c-7.4-2.9-10.8-5.2-10.8-10.2c0-4.5,3.4-8.3,9.5-8.3c5.3,0,9.4,2.1,11.7,3.5l2.6-8
			c-3.1-2-8.2-3.7-14-3.7c-12.3,0-19.7,8-19.7,17.7c0,7.3,4.8,13.3,15,17.1c7.7,3,10.6,5.9,10.6,11.1c0,4.9-3.5,8.9-11.1,8.9
			c-5.2,0-10.6-2.2-13.7-4.3l-2.7,8.3c4,2.6,9.8,4.1,16,4.1c13.6,0,21.3-7.5,21.3-18.1C471.9,684.1,466.8,678.8,456.9,674.8z"/>
	</g>
</g>
</svg>
