<?xml version="1.0" encoding="utf-8"?>
<!-- Generator: Adobe Illustrator 26.4.1, SVG Export Plug-In . SVG Version: 6.00 Build 0)  -->
<svg version="1.1" id="Layer_1" xmlns="http://www.w3.org/2000/svg" xmlns:xlink="http://www.w3.org/1999/xlink" x="0px" y="0px"
	 viewBox="0 0 2521 2911" style="enable-background:new 0 0 2521 2911;" xml:space="preserve">
<style type="text/css">
	.st0{fill:#C49A6C;}
	.st1{fill:#3C2415;}
</style>
<g id="Layer_1_1_">
	<g>
		<polygon class="st0" points="2420.5,789.1 1260.5,119.4 1260.5,119.4 100.5,789.1 100.5,2128.8 1260.5,2798.5 2420.5,2128.8 		"/>
		<path class="st1" d="M2521,2183.3V727.7l-100.5-58l-953.1-550.3L1260.5,0l-206.9,119.4L100.5,669.7L0,727.7v1455.7l100.5,58
			l965.1,557.2l195.2,112.5l195.2-112.5l965.1-557.2L2521,2183.3z M100.5,2128.8V789.1l1160-669.7l0,0l1160,669.7v1339.4l-1160,670
			L100.5,2128.8z"/>
	</g>
	<g id="Artwork_1_">
		<g>
			<path class="st1" d="M1779.6,1969.6c-4.1,0-7.5-1.4-10.6-4.1c-5.8-5.8-5.8-15.1,0-20.9c137.2-137.2,213.1-319.7,213.1-513.9
				s-75.5-377.4-212.7-514.6C1631.7,778.8,1449.5,703,1255.4,703S878.3,778.8,741.4,916s-213.1,319.7-213.1,513.9
				s75.5,376.7,213.1,513.9c5.8,5.8,5.8,15.1,0,20.9c-5.8,5.8-15.1,5.8-20.9,0c-142.7-142.7-221.6-333.1-221.6-535.2
				s78.9-392.1,221.6-535.2c142.7-142.7,333.1-221.6,535.2-221.6s392.1,78.9,535.2,221.6c142.7,142.7,221.6,333.1,221.6,535.2
				s-78.9,392.1-221.6,535.2C1787.5,1968.2,1783.4,1969.6,1779.6,1969.6z"/>
		</g>
		<g>
			<g>
				<path class="st1" d="M676.9,2053c0,50.8-18.5,73.1-41.5,73.1c-30.9,0-41.5-35.7-41.5-71.7c0-40.8,13-73.1,42.5-73.1
					C669.4,1980.9,676.9,2019.3,676.9,2053z M623,2053.7c-0.3,33.3,3.8,48,13,48c8.9,0,12-15.8,12-48c0-30.2-3.1-48-12-48
					C627.2,2005.3,622.7,2020.7,623,2053.7z"/>
			</g>
			<g>
				<path class="st1" d="M425.1,1693.4L425.1,1693.4l-24.4,12.7l-4.8-22.3l32.6-16.8h25v141.7h-28.5V1693.4L425.1,1693.4z"/>
			</g>
			<g>
				<path class="st1" d="M337.6,1436.8v-19.2l14.1-18.2c18.5-23.3,33.3-42.9,33.3-63.1c0-11.3-6.2-19.6-18.2-19.6
					c-8.9,0-16.1,4.1-21.3,7.2l-4.8-22c6.5-4.1,18.9-8.6,31.6-8.6c30.9,0,40.8,20.9,40.8,40.8c0,26.8-16.5,48-32.9,66.9l-8.6,9.9
					v0.3h43.6v25h-77.5V1436.8z"/>
			</g>
			<g>
				<path class="st1" d="M447.7,1049.5c5.5,3.4,13.4,5.5,20.9,5.5c13.7,0,21.3-8.6,21.3-20.6c0-15.8-12-22.3-26.8-22.3H459v-20.9
					h3.1c10.6-0.3,24-4.5,24-18.5c0-10.3-6.5-16.5-16.5-16.5c-6.2,0-12.7,2.4-17.8,5.5l-3.8-21.3c5.8-3.8,17.5-7.2,29.5-7.2
					c24.7,0,37.4,16.1,37.4,34.3c0,14.1-7.9,26.1-20.6,31.9v0.3c13.7,4.5,24,16.8,24,36c0,21.3-16.5,42.9-47.3,42.9
					c-11.7,0-21.3-3.1-28.1-6.2L447.7,1049.5z"/>
			</g>
			<g>
				<path class="st1" d="M735.2,792.5v-34h-48.7v-19.9l46.3-88.5h27.4v85.1h14.1v22.6h-13.7v34L735.2,792.5L735.2,792.5z
					 M735.2,735.9v-29.2c0-7.5,1-15.8,1.7-23.3h-1c-3.4,7.9-6.2,14.1-9.9,22l-15.1,29.8v0.3h24.4L735.2,735.9L735.2,735.9z"/>
			</g>
			<g>
				<path class="st1" d="M1105.4,519.4h-37.7l-3.4,25.4c1.4,0,3.1,0,4.1,0c6.2,0.3,18.5,3.1,26.8,10.6c7.9,7.5,12.4,18.5,12.4,32.6
					c0,27.8-18.5,50.1-49.1,50.1c-9.9,0-20.9-2.7-26.8-5.5l4.1-22.6c5.1,2.7,12.7,4.8,20.6,4.8c13.7,0,23-8.9,23-24
					c0-19.2-14.4-25.4-30.5-25.4c-4.1,0-7.2,0-9.9,0.3l7.9-71.4h58.7L1105.4,519.4L1105.4,519.4z"/>
			</g>
			<g>
				<path class="st1" d="M1831.1,2009.7L1831.1,2009.7l-24.4,12.7l-4.8-22.3l32.6-16.8h25V2125h-28.5V2009.7L1831.1,2009.7z"/>
				<path class="st1" d="M1924,2009.7L1924,2009.7l-24.4,12.7l-4.8-22.3l32.6-16.8h25V2125H1924V2009.7L1924,2009.7z"/>
			</g>
			<g>
				<path class="st1" d="M2034.2,1693.4L2034.2,1693.4l-24.4,12.7l-4.8-22.3l32.6-16.8h25v141.7h-28.5V1693.4L2034.2,1693.4z"/>
				<path class="st1" d="M2175.9,1737c0,50.8-18.5,73.1-41.5,73.1c-30.9,0-41.5-35.7-41.5-71.7c0-40.8,13-73.1,42.5-73.1
					C2168.3,1665.3,2175.9,1703,2175.9,1737z M2122,1737.7c-0.3,33.3,3.8,48,13,48c8.9,0,12-15.8,12-48c0-30.2-3.1-48-12-48
					S2121.6,1704.7,2122,1737.7z"/>
			</g>
			<g>
				<path class="st1" d="M2111.4,1414.5c5.5,0,8.2-0.3,13-1c5.5-1,12-4.1,16.5-8.6c6.2-5.8,11.3-15.8,13.7-28.8h-0.3
					c-4.5,4.8-11.3,8.6-20.6,8.6c-18.5,0-33.3-16.5-33.3-42.2c0-24.4,15.1-49.7,42.2-49.7c26.4,0,40.1,24,40.1,58.3
					c0,31.9-10.3,54.5-23.3,68.6c-8.6,9.3-20.9,15.8-35,17.8c-4.5,0.7-8.9,0.7-13,0.7V1414.5L2111.4,1414.5z M2128.5,1340.4
					c0.3,13.7,4.5,25,13,25c4.8,0,9.3-3.8,11-7.2c1-3.1,1.4-5.5,1.4-15.1c0-18.9-5.1-29.5-12.7-29.5
					C2133.7,1314,2128.2,1323.2,2128.5,1340.4z"/>
			</g>
			<g>
				<path class="st1" d="M1993.7,1039.5c0-17.8,9.9-30.2,21.3-37.7v-0.3c-12-7.9-17.5-20.2-17.5-31.2c0-23,18.5-37.4,40.1-37.4
					c20.6,0,36.7,13.7,36.7,35c0,9.3-3.8,22-18.5,31.2v0.3c13,7.2,21.6,20.6,21.6,37.1c0,26.1-19.2,41.5-42.5,41.5
					C2010.8,1077.9,1993.7,1062.5,1993.7,1039.5z M2049.9,1037.8c0-13-8.2-22-16.5-26.1c-7.2,4.8-12.4,13.7-12.4,24.7
					c0,12.4,4.8,22.6,14.8,22.6C2045.1,1058.7,2049.9,1049.8,2049.9,1037.8z M2024.2,969.2c0,9.9,5.5,17.2,13.7,21.3
					c6.2-3.4,9.9-12,9.9-20.6c0-9.6-3.4-18.5-11.7-18.5C2028.3,951.7,2024.2,960.6,2024.2,969.2z"/>
			</g>
			<g>
				<path class="st1" d="M1829.3,650.8v18.9l-44.6,122.8h-28.1l43.6-116.3v-0.3h-48.4v-25H1829.3L1829.3,650.8z"/>
			</g>
			<g>
				<path class="st1" d="M1479,516c-3.8,0.3-7.2,0.7-12,1.7c-18.9,4.1-28.1,19.9-31.6,37.7h0.7c4.8-6.9,12.7-11.3,21.6-11.3
					c19.2,0,31.9,17.2,31.9,44.3c0,24.7-12.7,50.1-40.1,50.1c-26.8,0-43.2-23.3-43.2-58.3c0-30.9,10.3-52.1,23.3-65.9
					c9.3-10.3,22.6-17.2,34.7-19.2c6.9-1.4,11.3-1.4,14.4-1.7V516H1479z M1462.2,587.7c-0.3-12-4.1-23.3-13-23.3
					c-4.5,0-8.9,3.1-11.7,9.6c-1,1.7-1.7,5.8-1.7,12.7c0,18.5,5.1,30.9,13.7,30.9C1458.8,617.5,1462.2,604.8,1462.2,587.7z"/>
			</g>
		</g>
		<g>
			<g>
				<g>
					<path class="st1" d="M1260.5,613.8c-8.2,0-14.8-6.5-14.8-14.8V495.4c0-8.2,6.5-14.8,14.8-14.8c8.2,0,14.8,6.5,14.8,14.8V599
						C1275.3,607.2,1268.4,613.8,1260.5,613.8z"/>
				</g>
			</g>
			<g>
				<g>
					<path class="st1" d="M915,688.9c-5.5,0-11-3.4-13.4-8.6L858.7,586c-3.4-7.5,0-16.1,7.2-19.9c7.5-3.4,16.1,0,19.9,7.2l43.2,94.3
						c3.4,7.5,0,16.1-7.2,19.9C919.1,688.6,917.1,688.9,915,688.9z"/>
				</g>
			</g>
			<g>
				<g>
					<path class="st1" d="M632,900.6c-3.4,0-6.9-1.4-9.6-3.8l-78.6-67.9c-6.2-5.1-6.9-14.8-1.7-20.9c5.1-5.8,14.8-6.9,20.9-1.7
						l78.6,67.9c6.2,5.1,6.9,14.8,1.7,20.9C640.5,898.9,636.4,900.6,632,900.6z"/>
				</g>
			</g>
			<g>
				<g>
					<path class="st1" d="M463.2,1210.7c-1.4,0-2.7-0.3-4.1-0.7l-99.5-29.5c-7.9-2.4-12.7-10.6-10.3-18.5
						c2.4-7.9,10.6-12.7,18.5-10.3l99.5,29.5c7.9,2.4,12.7,10.6,10.3,18.5C475.2,1206.9,469.3,1210.7,463.2,1210.7z"/>
				</g>
			</g>
			<g>
				<g>
					<path class="st1" d="M335.2,1578.1c-7.2,0-13.4-5.1-14.4-12.7c-1.4-8.2,4.5-15.4,12.7-16.8l102.6-14.8
						c8.2-1.4,15.4,4.5,16.8,12.7c1.4,7.9-4.5,15.4-12.7,16.8l-102.6,14.8C336.6,1578.1,335.9,1578.1,335.2,1578.1z"/>
				</g>
			</g>
			<g>
				<g>
					<path class="st1" d="M474.1,1950.7c-4.8,0-9.6-2.4-12.7-6.9c-4.1-6.9-2.4-16.1,4.5-20.6l87.1-55.9c6.9-4.1,16.1-2.4,20.6,4.5
						c4.1,6.9,2.4,16.1-4.5,20.6l-87.1,55.9C480,1950,476.9,1950.7,474.1,1950.7z"/>
				</g>
			</g>
			<g>
				<g>
					<path class="st1" d="M1605.6,688.9c-2.1,0-4.1-0.3-6.2-1.4c-7.5-3.4-11-12.4-7.2-19.9l43.2-94.3c3.4-7.5,12.4-11,19.9-7.2
						c7.5,3.4,11,12.4,7.2,19.9l-43.6,94.3C1616.6,685.8,1611.1,688.9,1605.6,688.9z"/>
				</g>
			</g>
			<g>
				<g>
					<path class="st1" d="M1888.7,900.6c-4.1,0-8.2-1.7-11.3-5.1c-5.1-6.2-4.5-15.4,1.7-20.9l78.6-67.9c6.2-5.1,15.4-4.5,20.9,1.7
						c5.1,6.2,4.5,15.4-1.7,20.9l-78.6,67.9C1895.6,899.5,1891.8,900.6,1888.7,900.6z"/>
				</g>
			</g>
			<g>
				<g>
					<path class="st1" d="M2057.5,1210.7c-6.2,0-12.4-4.1-14.1-10.6c-2.4-7.9,2.4-16.1,9.9-18.5l99.5-29.5
						c7.9-2.4,16.1,2.4,18.5,9.9c2.4,7.9-2.4,16.1-9.9,18.5L2062,1210C2060.6,1210.7,2059.2,1210.7,2057.5,1210.7z"/>
				</g>
			</g>
			<g>
				<g>
					<path class="st1" d="M2185.5,1578.1c-0.7,0-1.4,0-2.1,0l-102.6-14.8c-8.2-1.4-13.7-8.6-12.7-16.8c1.4-8.2,8.6-13.7,16.8-12.7
						l102.6,14.8c8.2,1.4,13.7,8.6,12.7,16.8C2199.2,1572.7,2192.7,1578.1,2185.5,1578.1z"/>
				</g>
			</g>
			<g>
				<g>
					<path class="st1" d="M2046.9,1950.4c-2.7,0-5.5-0.7-7.9-2.4l-87.5-55.9c-6.9-4.1-8.9-13.4-4.5-20.6c4.1-6.9,13.4-8.9,20.6-4.5
						l87.5,55.9c6.9,4.1,8.9,13.4,4.5,20.6C2056.5,1948,2051.7,1950.4,2046.9,1950.4z"/>
				</g>
			</g>
		</g>
		<g>
			<path class="st1" d="M1255.4,2053.3c-343.4,0-623-279.6-623-623s279.3-623.4,623-623.4s623,279.6,623,623
				S1598.8,2053.3,1255.4,2053.3z M1255.4,866.3c-310.8,0-563.7,252.8-563.7,563.7s252.5,564,563.7,564s563.7-252.8,563.7-563.7
				S1566.2,866.3,1255.4,866.3z"/>
		</g>
		<g>
			<path class="st1" d="M1677.4,1877c-7.5,0-15.1-3.1-20.9-8.6l-312.9-312.9c-11.7-11.7-11.7-30.2,0-41.9
				c11.7-11.7,30.2-11.7,41.9,0l312.9,312.9c11.7,11.7,11.7,30.2,0,41.9C1692.4,1874.2,1684.9,1877,1677.4,1877z"/>
		</g>
	</g>
	<g>
		<path class="st0" d="M1416.9,2128.1h35.3v304h-35.3V2128.1z"/>
		<path class="st0" d="M1545.3,2436.2c-21.3,0-41.2-5.5-54.9-14.1l9.3-28.5c10.3,7.5,29.2,14.8,47,14.8c26.1,0,38.1-13.7,38.1-30.5
			c0-17.8-9.9-27.8-36.4-38.1c-35-13-51.5-33.6-51.5-58.7c0-33.3,25.4-60.7,67.6-60.7c19.9,0,37.1,6.2,48,12.7l-8.9,27.4
			c-7.9-5.1-22-12-40.1-12c-20.9,0-32.6,12.7-32.6,28.5c0,17.2,11.7,25,37.1,35c34,13.7,51.1,31.6,51.1,62.4
			C1618.7,2410.5,1591.9,2436.2,1545.3,2436.2z"/>
		<path class="st1" d="M1091.7,2128.1H1056V2252h-0.7c-9.3-16.8-29.2-31.6-59-31.6c-47.7,0-88.2,42.5-87.8,111.2
			c0,62.8,36.4,105.3,83.7,105.3c31.9,0,55.9-17.5,66.9-40.8h0.7l1.7,36h31.9c-1.4-14.1-1.7-35-1.7-53.5L1091.7,2128.1
			L1091.7,2128.1z M1056,2309.2v36c0,6.2-0.3,11-1.7,16.1c-6.5,28.5-28.1,44.9-51.8,44.9c-38.4,0-57.6-34.7-57.6-76.5
			c0-45.6,22-79.9,58.7-79.9c26.8,0,46,19.6,51.1,43.6C1056,2298.3,1056.4,2304.4,1056,2309.2L1056,2309.2z"/>
		<rect x="1143.2" y="2225.2" class="st1" width="35.3" height="206.9"/>
		<path class="st1" d="M1160.3,2189.9c14.1,0,23-10.3,22.6-23.3c0-13-8.6-23.3-21.6-23.7c-12.7,0-22.3,10.3-22.3,23.7
			S1148,2189.9,1160.3,2189.9z"/>
		<path class="st1" d="M1366.9,2304.8c0-41.5-14.4-84.7-74.1-84.7c-24.7,0-48,7.5-64.2,18.5l8.2,25c13.7-9.6,32.6-15.4,50.8-15.4
			c40.1,0,44.6,30.5,44.6,48v4.5c-75.1-0.7-117.3,27.1-117.3,76.8c0,29.5,20.2,59.4,59.7,59.4c27.8,0,49.1-14.4,59.7-30.5h1.4
			l2.7,26.1l0,0h31.9c-2.7-14.1-3.4-31.6-3.4-49.4L1366.9,2304.8L1366.9,2304.8z M1332.9,2362.4c0,4.1-0.7,8.6-2.1,12
			c-5.8,17.5-22,34.7-47.3,34.7c-18.2,0-33.3-11.7-33.3-36c0-40.1,43.9-47.7,82.7-46.7V2362.4z"/>
		<rect x="1416.9" y="2128.1" class="st1" width="35.3" height="304"/>
		<path class="st1" d="M1567.2,2311.6c-25.4-9.9-37.1-17.8-37.1-35c0-15.4,11.7-28.5,32.6-28.5c18.2,0,32.2,7.2,40.1,12l8.9-27.4
			c-10.6-6.9-28.1-12.7-48-12.7c-42.2,0-67.6,27.4-67.6,60.7c0,25,16.5,45.6,51.5,58.7c26.4,10.3,36.4,20.2,36.4,38.1
			c0,16.8-12,30.5-38.1,30.5c-17.8,0-36.4-7.5-47-14.8l-9.3,28.5c13.7,8.9,33.6,14.1,54.9,14.1c46.7,0,73.1-25.7,73.1-62.1
			C1618.7,2343.6,1601.2,2325.4,1567.2,2311.6z"/>
	</g>
</g>
</svg>
