<?xml version="1.0" encoding="utf-8"?>
<!-- Generator: Adobe Illustrator 24.2.3, SVG Export Plug-In . SVG Version: 6.00 Build 0)  -->
<svg version="1.1" id="Layer_1" xmlns="http://www.w3.org/2000/svg" xmlns:xlink="http://www.w3.org/1999/xlink" x="0px" y="0px"
	 viewBox="0 0 735 852" style="enable-background:new 0 0 735 852;" xml:space="preserve">
<style type="text/css">
	.st0{clip-path:url(#SVGID_2_);}
	.st1{fill:url(#SVGID_3_);}
	.st2{clip-path:url(#SVGID_5_);fill:url(#SVGID_6_);}
	.st3{clip-path:url(#SVGID_8_);}
	.st4{fill:#FF6C67;}
	.st5{clip-path:url(#SVGID_10_);}
	.st6{fill:#00D0D3;}
	.st7{clip-path:url(#SVGID_12_);fill:url(#SVGID_13_);}
	.st8{clip-path:url(#SVGID_15_);}
	.st9{fill:none;}
	.st10{fill-rule:evenodd;clip-rule:evenodd;fill:#00D0D3;}
	.st11{clip-path:url(#SVGID_17_);}
</style>
<g>
	<g>
		<g>
			<g>
				<g>
					<defs>
						<polygon id="SVGID_1_" points="3.3,215 3.3,637 368.7,847.9 734.1,637 734.1,215 368.7,4.1 						"/>
					</defs>
					<clipPath id="SVGID_2_">
						<use xlink:href="#SVGID_1_"  style="overflow:visible;"/>
					</clipPath>
					<g class="st0">
						<g>
							
								<radialGradient id="SVGID_3_" cx="368.7" cy="778" r="394.6624" gradientTransform="matrix(1 0 0 -1 0 1204)" gradientUnits="userSpaceOnUse">
								<stop  offset="0" style="stop-color:#7F83F7"/>
								<stop  offset="0.1889" style="stop-color:#7174E0"/>
								<stop  offset="0.5849" style="stop-color:#4E4EA6"/>
								<stop  offset="1" style="stop-color:#262262"/>
							</radialGradient>
							<polygon class="st1" points="3.3,215 3.3,637 368.7,847.9 734.1,637 734.1,215 368.7,4.1 							"/>
						</g>
					</g>
				</g>
			</g>
		</g>
		<g>
			<g>
				<g>
					<defs>
						<polygon id="SVGID_4_" points="3.3,215 3.3,637 368.7,847.9 734.1,637 734.1,215 368.7,4.1 						"/>
					</defs>
					<clipPath id="SVGID_5_">
						<use xlink:href="#SVGID_4_"  style="overflow:visible;"/>
					</clipPath>
					
						<radialGradient id="SVGID_6_" cx="87.6948" cy="1299.6139" r="150.7791" gradientTransform="matrix(0.6079 -0.2188 -0.292 -0.8113 650.8276 1414.8143)" gradientUnits="userSpaceOnUse">
						<stop  offset="0" style="stop-color:#FF6C67"/>
						<stop  offset="1" style="stop-color:#FF6C67;stop-opacity:0"/>
					</radialGradient>
					<path class="st2" d="M416.3,308.3c24.3,67.5,3,137.1-47.6,155.3S257.3,441.8,233,374.2s-3-137.1,47.6-155.3
						S392,240.7,416.3,308.3z"/>
				</g>
			</g>
		</g>
		<g>
			<g>
				<g>
					<defs>
						<polygon id="SVGID_7_" points="3.3,215 3.3,637 368.7,847.9 734.1,637 734.1,215 368.7,4.1 						"/>
					</defs>
					<clipPath id="SVGID_8_">
						<use xlink:href="#SVGID_7_"  style="overflow:visible;"/>
					</clipPath>
					<g class="st3">
						<g>
							<g>
								<path class="st4" d="M-42.8,605.8c15.5,7.8,30.3,17.2,46.7,22.9c7.4,2.6,15.2,4.3,23.1,4.6c8.9,0.4,17.9-1.1,26.4-3.7
									c12.6-3.8,23.9-10.6,35.2-17c12.5-7.1,25.2-14.3,38.8-19c11.6-4.1,24.9-6.8,36.5-1.8c1.2,0.5,2.5,1.2,3.7,1.9
									c2.5,1.4,4.7-2.4,2.2-3.8c-11.3-6.6-24.8-6-37.1-2.6c-13.9,3.8-27,10.7-39.5,17.7c-6.1,3.4-12.1,6.9-18.2,10.2
									c-2.7,1.5-5.5,3-8.2,4.3c-2.4,1.2-5,2.4-7.3,3.3c-15.4,6.2-32.2,7.9-48.2,3.5c-16.2-4.5-30.7-13.5-45.4-21.2
									c-2.1-1.1-4.2-2.2-6.3-3.2C-43.1,600.7-45.4,604.5-42.8,605.8L-42.8,605.8z"/>
							</g>
						</g>
						<g>
							<g>
								<path class="st4" d="M257,781.7c-10.3-7.4-21.4-13.8-31.4-21.7c-4.4-3.4-8.4-7.2-12.1-11.4c-4.2-4.9-7.8-10.3-10.9-15.9
									c-4-7.2-7.2-14.8-9.2-22.8c-2-8.2-2.9-16.6-3.3-25c-0.7-16.8,0.5-33.8-1.1-50.6c-0.8-8.1-2.1-16.3-4.8-24
									c-2.2-6.4-5.4-12.9-10.6-17.5c-1.2-1.1-2.5-2-3.9-2.9c-2.4-1.5-4.7,2.3-2.2,3.8c5.4,3.4,8.9,8.9,11.3,14.7
									c3,7.3,4.6,15.2,5.5,23.1c2,16.9,0.8,33.8,1.3,50.8c0.3,8.4,1,16.8,2.7,25c1.7,8.5,4.7,16.6,8.7,24.2
									c5.8,11.1,13.2,21.4,22.8,29.5c9.5,8,20.2,14.3,30.3,21.3c1.6,1.1,3.1,2.2,4.7,3.3c1,0.7,2.5,0.2,3-0.8
									C258.5,783.6,258,782.4,257,781.7L257,781.7z"/>
							</g>
						</g>
					</g>
				</g>
			</g>
		</g>
		<g>
			<g>
				<g>
					<defs>
						<polygon id="SVGID_9_" points="3.3,215 3.3,637 368.7,847.9 734.1,637 734.1,215 368.7,4.1 						"/>
					</defs>
					<clipPath id="SVGID_10_">
						<use xlink:href="#SVGID_9_"  style="overflow:visible;"/>
					</clipPath>
					<g class="st5">
						<g>
							<g>
								<path class="st6" d="M116.5,702c11.5,5.8,22.8,12.3,34.9,16.7c7.9,2.9,16,5.7,24.3,7.3c8.2,1.6,16.6,1.9,25,0.9
									c16.1-2.1,30.9-8.8,45.3-15.9c12.4-6.1,24.5-13.1,37.3-18.3c12.1-5,26.7-9.5,39.6-4.7c1.4,0.5,2.8,1.2,4.1,2
									c2.5,1.4,4.7-2.4,2.2-3.8c-12.3-7.2-27.2-4.8-40-0.4c-12.9,4.4-24.8,11.1-36.9,17.2c-14.3,7.1-28.8,14.8-44.5,18.3
									c-7.8,1.7-15.8,2.3-23.7,1.6c-8.9-0.8-17.4-3.5-25.8-6.3c-5.7-1.9-11.2-4-16.6-6.6c-5.7-2.7-11.3-5.8-17-8.7
									c-1.9-1-3.9-2-5.8-3C116.2,696.9,114,700.8,116.5,702L116.5,702z"/>
							</g>
						</g>
						<g>
							<g>
								<path class="st6" d="M416.4,877.9c-10.3-7.3-21.1-14-30.5-22.3c-5.5-4.9-10.7-10.2-15.5-15.8c-5.2-6-9.4-12.8-12.5-20
									c-5.8-13.7-7.4-28.6-7.9-43.4c-0.6-15.2,0-30.5-1.6-45.7c-0.8-7.9-2.1-15.9-4.6-23.5c-2.2-6.7-5.4-13.3-10.7-18.1
									c-1.2-1.1-2.6-2.1-4-3c-2.4-1.5-4.7,2.3-2.2,3.8c5.5,3.5,9.1,9.3,11.5,15.2c2.9,7.3,4.4,15.1,5.3,22.9
									c1.8,15.2,1.4,30.5,1.8,45.7c0.4,14.9,1.7,30.1,7,44.2c2.8,7.4,6.5,14.4,11.3,20.6c4.8,6.2,10.4,12,16.1,17.4
									c8.9,8.4,19.1,15.1,29.2,22.1c1.7,1.2,3.5,2.4,5.2,3.7c1,0.7,2.5,0.2,3-0.8C417.9,879.9,417.4,878.6,416.4,877.9
									L416.4,877.9z"/>
							</g>
						</g>
					</g>
				</g>
			</g>
		</g>
		<g>
			<g>
				<g>
					<defs>
						<polygon id="SVGID_11_" points="3.3,215 3.3,637 368.7,847.9 734.1,637 734.1,215 368.7,4.1 						"/>
					</defs>
					<clipPath id="SVGID_12_">
						<use xlink:href="#SVGID_11_"  style="overflow:visible;"/>
					</clipPath>
					
						<radialGradient id="SVGID_13_" cx="458.8777" cy="667.952" r="70.0977" gradientTransform="matrix(1.0157 4.371912e-02 -4.371912e-02 -1.1215 -4.7798 1190.6964)" gradientUnits="userSpaceOnUse">
						<stop  offset="0" style="stop-color:#00D0D3"/>
						<stop  offset="0.983" style="stop-color:#00D0D3;stop-opacity:1.695943e-02"/>
						<stop  offset="1" style="stop-color:#00D0D3;stop-opacity:0"/>
					</radialGradient>
					<path class="st7" d="M455.3,526.2c-40.9,14.7-84.4-2.3-97.2-37.9c-12.8-35.6,9.9-76.5,50.8-91.2s84.4,2.3,97.2,37.9
						C518.9,470.6,496.2,511.5,455.3,526.2z"/>
				</g>
			</g>
		</g>
		<g>
			<g>
				<g>
					<defs>
						<polygon id="SVGID_14_" points="3.3,215 3.3,637 368.7,847.9 734.1,637 734.1,215 368.7,4.1 						"/>
					</defs>
					<clipPath id="SVGID_15_">
						<use xlink:href="#SVGID_14_"  style="overflow:visible;"/>
					</clipPath>
					<g class="st8">
						<g>
							<g>
								<g>
									<g>
										<g>
											
												<rect x="445.1" y="240.7" transform="matrix(0.5075 -0.8617 0.8617 0.5075 2.6027 530.3046)" class="st9" width="40.1" height="44.4"/>
										</g>
										
											<rect x="454.1" y="271.9" transform="matrix(0.5075 -0.8617 0.8617 0.5075 -10.7356 529.4506)" class="st10" width="7.4" height="4.4"/>
										
											<rect x="460.8" y="260.3" transform="matrix(0.5075 -0.8617 0.8617 0.5075 2.6092 529.5214)" class="st10" width="7.4" height="4.4"/>
										
											<rect x="467.6" y="248.8" transform="matrix(0.5075 -0.8617 0.8617 0.5075 15.909 529.7407)" class="st10" width="7.4" height="4.4"/>
									</g>
								</g>
								<g>
									<g>
										<g>
											
												<rect x="424.8" y="275.1" transform="matrix(0.5075 -0.8617 0.8617 0.5075 -37.1074 529.7725)" class="st9" width="40.1" height="44.4"/>
										</g>
										
											<rect x="433.8" y="306.4" transform="matrix(0.5075 -0.8617 0.8617 0.5075 -50.4425 528.9255)" class="st10" width="7.4" height="4.4"/>
										
											<rect x="440.5" y="295" transform="matrix(0.5075 -0.8617 0.8617 0.5075 -37.2728 529.1134)" class="st10" width="7.4" height="4.4"/>
										
											<rect x="447.2" y="283.4" transform="matrix(0.5075 -0.8617 0.8617 0.5075 -23.9848 529.1843)" class="st10" width="7.4" height="4.4"/>
									</g>
								</g>
								<g>
									<g>
										<g>
											
												<rect x="404.3" y="309.8" transform="matrix(0.5075 -0.8617 0.8617 0.5075 -77.0646 529.1797)" class="st9" width="40.1" height="44.4"/>
										</g>
										
											<rect x="413.3" y="341" transform="matrix(0.5075 -0.8617 0.8617 0.5075 -90.3391 528.3634)" class="st10" width="7.4" height="4.4"/>
										
											<rect x="420.1" y="329.5" transform="matrix(0.5075 -0.8617 0.8617 0.5075 -77.0823 528.5797)" class="st10" width="7.4" height="4.4"/>
										
											<rect x="426.9" y="318.1" transform="matrix(0.5075 -0.8617 0.8617 0.5075 -63.8671 528.7761)" class="st10" width="7.4" height="4.4"/>
									</g>
								</g>
								<g>
									<g>
										<g>
											
												<rect x="383.9" y="344.4" transform="matrix(0.5075 -0.8617 0.8617 0.5075 -116.9587 528.6227)" class="st9" width="40.1" height="44.4"/>
										</g>
										
											<rect x="393" y="375.7" transform="matrix(0.5075 -0.8617 0.8617 0.5075 -130.2345 527.9064)" class="st10" width="7.4" height="4.4"/>
										
											<rect x="399.7" y="364.1" transform="matrix(0.5075 -0.8617 0.8617 0.5075 -116.9762 528.0234)" class="st10" width="7.4" height="4.4"/>
										
											<rect x="406.5" y="352.6" transform="matrix(0.5075 -0.8617 0.8617 0.5075 -103.6764 528.2426)" class="st10" width="7.4" height="4.4"/>
									</g>
								</g>
								<g>
									<g>
										<g>
											
												<rect x="363.7" y="379" transform="matrix(0.5075 -0.8617 0.8617 0.5075 -156.657 528.2393)" class="st9" width="40.1" height="44.4"/>
										</g>
										
											<rect x="372.7" y="410.2" transform="matrix(0.5075 -0.8617 0.8617 0.5075 -169.932 527.4213)" class="st10" width="7.4" height="4.4"/>
										
											<rect x="379.4" y="398.7" transform="matrix(0.5075 -0.8617 0.8617 0.5075 -156.7233 527.5544)" class="st10" width="7.4" height="4.4"/>
										
											<rect x="386.1" y="387.2" transform="matrix(0.5075 -0.8617 0.8617 0.5075 -143.5704 527.6862)" class="st10" width="7.4" height="4.4"/>
									</g>
								</g>
								<g>
									<g>
										<g>
											
												<rect x="343.4" y="413.6" transform="matrix(0.5075 -0.8617 0.8617 0.5075 -196.5034 527.7687)" class="st9" width="40.1" height="44.4"/>
										</g>
										
											<rect x="352.4" y="444.8" transform="matrix(0.5075 -0.8617 0.8617 0.5075 -209.7782 526.9511)" class="st10" width="7.4" height="4.4"/>
										
											<rect x="359" y="433.2" transform="matrix(0.5075 -0.8617 0.8617 0.5075 -196.4968 526.9855)" class="st10" width="7.4" height="4.4"/>
										
											<rect x="365.8" y="421.8" transform="matrix(0.5075 -0.8617 0.8617 0.5075 -183.3172 527.2172)" class="st10" width="7.4" height="4.4"/>
									</g>
								</g>
								<g>
									<g>
										<g>
											
												<rect x="322.9" y="448.2" transform="matrix(0.5075 -0.8617 0.8617 0.5075 -236.3972 527.2123)" class="st9" width="40.1" height="44.4"/>
										</g>
										
											<rect x="331.9" y="479.3" transform="matrix(0.5075 -0.8617 0.8617 0.5075 -249.6364 526.3593)" class="st10" width="7.4" height="4.4"/>
										
											<rect x="338.6" y="467.8" transform="matrix(0.5075 -0.8617 0.8617 0.5075 -236.3908 526.4289)" class="st10" width="7.4" height="4.4"/>
										
											<rect x="345.4" y="456.3" transform="matrix(0.5075 -0.8617 0.8617 0.5075 -223.0909 526.6481)" class="st10" width="7.4" height="4.4"/>
									</g>
								</g>
								<g>
									<g>
										<g>
											
												<rect x="302.5" y="482.7" transform="matrix(0.5075 -0.8617 0.8617 0.5075 -276.1709 526.6433)" class="st9" width="40.1" height="44.4"/>
										</g>
										
											<rect x="311.5" y="513.9" transform="matrix(0.5075 -0.8617 0.8617 0.5075 -289.4457 525.8257)" class="st10" width="7.4" height="4.4"/>
										
											<rect x="318.3" y="502.5" transform="matrix(0.5075 -0.8617 0.8617 0.5075 -276.2728 526.0208)" class="st10" width="7.4" height="4.4"/>
										
											<rect x="325" y="490.9" transform="matrix(0.5075 -0.8617 0.8617 0.5075 -262.985 526.0918)" class="st10" width="7.4" height="4.4"/>
									</g>
								</g>
								<g>
									<g>
										<g>
											
												<rect x="282.1" y="517.3" transform="matrix(0.5075 -0.8617 0.8617 0.5075 -316.0648 526.0872)" class="st9" width="40.1" height="44.4"/>
										</g>
										
											<rect x="291.1" y="548.5" transform="matrix(0.5075 -0.8617 0.8617 0.5075 -329.3396 525.2693)" class="st10" width="7.4" height="4.4"/>
										
											<rect x="297.9" y="537" transform="matrix(0.5075 -0.8617 0.8617 0.5075 -316.0825 525.4872)" class="st10" width="7.4" height="4.4"/>
										
											<rect x="304.7" y="525.6" transform="matrix(0.5075 -0.8617 0.8617 0.5075 -302.867 525.6837)" class="st10" width="7.4" height="4.4"/>
									</g>
								</g>
								<g>
									<g>
										<g>
											
												<rect x="261.8" y="552" transform="matrix(0.5075 -0.8617 0.8617 0.5075 -355.9601 525.6299)" class="st9" width="40.1" height="44.4"/>
										</g>
										
											<rect x="270.8" y="583.2" transform="matrix(0.5075 -0.8617 0.8617 0.5075 -369.2349 524.8122)" class="st10" width="7.4" height="4.4"/>
										
											<rect x="277.6" y="571.7" transform="matrix(0.5075 -0.8617 0.8617 0.5075 -355.9775 525.0302)" class="st10" width="7.4" height="4.4"/>
										
											<rect x="284.3" y="560.1" transform="matrix(0.5075 -0.8617 0.8617 0.5075 -342.6764 525.1499)" class="st10" width="7.4" height="4.4"/>
									</g>
								</g>
								<g>
									<g>
										<g>
											
												<rect x="241.5" y="586.5" transform="matrix(0.5075 -0.8617 0.8617 0.5075 -395.6572 525.1467)" class="st9" width="40.1" height="44.4"/>
										</g>
										
											<rect x="250.5" y="617.7" transform="matrix(0.5075 -0.8617 0.8617 0.5075 -408.9321 524.3299)" class="st10" width="7.4" height="4.4"/>
										
											<rect x="257.2" y="606.2" transform="matrix(0.5075 -0.8617 0.8617 0.5075 -395.7234 524.4638)" class="st10" width="7.4" height="4.4"/>
										
											<rect x="263.9" y="594.7" transform="matrix(0.5075 -0.8617 0.8617 0.5075 -382.5703 524.5936)" class="st10" width="7.4" height="4.4"/>
									</g>
								</g>
								<g>
									<g>
										<g>
											
												<rect x="221.2" y="621.1" transform="matrix(0.5075 -0.8617 0.8617 0.5075 -435.5034 524.6762)" class="st9" width="40.1" height="44.4"/>
										</g>
										
											<rect x="230.1" y="652.2" transform="matrix(0.5075 -0.8617 0.8617 0.5075 -448.7425 523.8232)" class="st10" width="7.4" height="4.4"/>
										
											<rect x="236.8" y="640.7" transform="matrix(0.5075 -0.8617 0.8617 0.5075 -435.4968 523.8929)" class="st10" width="7.4" height="4.4"/>
										
											<rect x="243.6" y="629.3" transform="matrix(0.5075 -0.8617 0.8617 0.5075 -422.3175 524.1248)" class="st10" width="7.4" height="4.4"/>
									</g>
								</g>
								<g>
									<g>
										<g>
											
												<rect x="200.7" y="655.7" transform="matrix(0.5075 -0.8617 0.8617 0.5075 -475.3974 524.1201)" class="st9" width="40.1" height="44.4"/>
										</g>
										
											<rect x="209.7" y="686.9" transform="matrix(0.5075 -0.8617 0.8617 0.5075 -488.6363 523.2669)" class="st10" width="7.4" height="4.4"/>
										
											<rect x="216.4" y="675.3" transform="matrix(0.5075 -0.8617 0.8617 0.5075 -475.3911 523.3386)" class="st10" width="7.4" height="4.4"/>
										
											<rect x="223.2" y="663.8" transform="matrix(0.5075 -0.8617 0.8617 0.5075 -462.0914 523.5575)" class="st10" width="7.4" height="4.4"/>
									</g>
								</g>
								<g>
									<g>
										<g>
											
												<rect x="180.3" y="690.2" transform="matrix(0.5075 -0.8617 0.8617 0.5075 -515.171 523.551)" class="st9" width="40.1" height="44.4"/>
										</g>
										
											<rect x="189.3" y="721.4" transform="matrix(0.5075 -0.8617 0.8617 0.5075 -528.4464 522.7352)" class="st10" width="7.4" height="4.4"/>
										
											<rect x="196.1" y="710" transform="matrix(0.5075 -0.8617 0.8617 0.5075 -515.2729 522.9284)" class="st10" width="7.4" height="4.4"/>
										
											<rect x="202.8" y="698.4" transform="matrix(0.5075 -0.8617 0.8617 0.5075 -501.9848 522.9991)" class="st10" width="7.4" height="4.4"/>
									</g>
								</g>
								<g>
									<g>
										<g>
											
												<rect x="159.9" y="724.8" transform="matrix(0.5075 -0.8617 0.8617 0.5075 -555.0649 522.9945)" class="st9" width="40.1" height="44.4"/>
										</g>
										
											<rect x="168.9" y="756" transform="matrix(0.5075 -0.8617 0.8617 0.5075 -568.3397 522.1768)" class="st10" width="7.4" height="4.4"/>
										
											<rect x="175.7" y="744.6" transform="matrix(0.5075 -0.8617 0.8617 0.5075 -555.0824 522.3948)" class="st10" width="7.4" height="4.4"/>
										
											<rect x="182.5" y="733.1" transform="matrix(0.5075 -0.8617 0.8617 0.5075 -541.867 522.5911)" class="st10" width="7.4" height="4.4"/>
									</g>
								</g>
							</g>
						</g>
					</g>
				</g>
			</g>
		</g>
		<g>
			<g>
				<g>
					<defs>
						<polygon id="SVGID_16_" points="3.3,215 3.3,637 368.7,847.9 734.1,637 734.1,215 368.7,4.1 						"/>
					</defs>
					<clipPath id="SVGID_17_">
						<use xlink:href="#SVGID_16_"  style="overflow:visible;"/>
					</clipPath>
					<g class="st11">
						<path class="st6" d="M384.5,128.5l0.7-1.2c-2.6,0.9-5,1.5-7.1,1.8c-2.2,0.3-4.3,0.2-6.4-0.2s-4.2-1.2-6.3-2.4
							c-2.8-1.6-5.1-3.6-6.8-6.2c-1.7-2.5-2.8-5.4-3.3-8.6s-0.4-6.5,0.4-10s2.1-7,4.1-10.4c4.1-7.3,9.1-12,15-14.1
							s11.7-1.5,17.6,1.8c3.4,1.9,5.9,4.1,7.5,6.5c1.7,2.5,2.9,5.5,3.8,9.2l9.7-17.3c1.4-2.4,2.9-3.9,4.5-4.6s3.4-0.5,5.1,0.5
							c1.8,1,2.8,2.3,3.1,4s-0.1,3.6-1.4,5.8l-29.1,51.6c-1.3,2.2-2.7,3.6-4.4,4.1c-1.7,0.5-3.3,0.3-4.9-0.6c-1.6-0.9-2.6-2.2-3-4
							C382.9,132.6,383.3,130.6,384.5,128.5z M371.2,98.3c-1.8,3.2-2.8,6.2-3.1,8.9c-0.3,2.8,0.1,5.2,1.2,7.3
							c1.1,2.1,2.6,3.7,4.7,4.9c2.1,1.2,4.2,1.7,6.5,1.6s4.6-1,6.9-2.6s4.3-4.1,6.2-7.4c1.8-3.1,2.8-6.1,3-8.9s-0.2-5.3-1.2-7.5
							c-1.1-2.2-2.6-3.8-4.7-5s-4.4-1.7-6.8-1.4c-2.4,0.3-4.7,1.3-6.9,3C374.8,92.9,372.9,95.3,371.2,98.3z"/>
						<path class="st6" d="M438.3,113.7l-19.1,33.8c-1.3,2.3-2.9,3.8-4.7,4.4c-1.8,0.6-3.5,0.4-5.3-0.6c-1.7-1-2.8-2.4-3.1-4.2
							c-0.4-1.8,0.1-3.9,1.4-6.2l18.9-33.5c1.3-2.3,2.8-3.8,4.6-4.3c1.7-0.6,3.5-0.4,5.2,0.6s2.8,2.4,3.2,4.1
							C439.9,109.7,439.5,111.6,438.3,113.7z M439.4,98.3c-1.6-0.9-2.7-2.2-3.3-3.9c-0.6-1.7-0.4-3.4,0.7-5.2
							c0.9-1.7,2.3-2.7,4.1-3.1c1.8-0.4,3.5-0.2,5,0.7c1.5,0.9,2.6,2.1,3.2,3.7s0.4,3.4-0.6,5.2c-1,1.8-2.4,2.9-4.1,3.3
							C442.6,99.5,440.9,99.2,439.4,98.3z"/>
						<path class="st6" d="M473.7,167.4c-1.8,3.2-4.2,5.6-7,7c-2.9,1.4-6.2,1.8-9.9,1.3c-3.7-0.5-7.8-2.1-12.2-4.5
							c-4.2-2.4-7.4-5-9.7-8c-2.3-3-3.6-5.8-3.9-8.6c-0.3-2.7,0-5.1,1.1-7c0.7-1.3,1.8-2.1,3.2-2.5c1.4-0.4,2.8-0.2,4.2,0.6
							c1.2,0.7,2,1.5,2.3,2.5s0.5,2.2,0.5,3.6c0,2.8,0.6,5.1,1.7,7.1s3.1,3.8,6,5.4c2.3,1.3,4.6,1.9,6.6,1.7c2.1-0.2,3.5-1,4.3-2.3
							c1.2-2.1,1.2-4,0.2-5.8s-3.1-4.2-6.2-7c-3.5-3.3-6.1-6.2-8.1-8.7c-1.9-2.5-3.1-5.1-3.6-7.8s0-5.3,1.5-7.9
							c1.3-2.3,3.3-4.2,5.8-5.5c2.6-1.3,5.6-1.8,9-1.5s7.1,1.5,10.9,3.7c3,1.7,5.6,3.6,7.6,5.5c2.1,2,3.6,4,4.6,5.9
							c1,2,1.6,3.8,1.7,5.6s-0.2,3.3-0.9,4.5c-0.8,1.3-1.8,2.2-3.2,2.5c-1.4,0.3-2.9,0.1-4.6-0.9c-1.2-0.7-2-1.6-2.5-2.8
							s-0.8-2.7-1.2-4.7c-0.2-1.6-0.8-3.1-1.6-4.5c-0.8-1.4-2.2-2.6-4.3-3.8c-2.1-1.2-4.1-1.7-6-1.6c-1.9,0.1-3.2,0.8-4,2.2
							c-0.7,1.2-0.8,2.5-0.2,3.9s1.6,2.8,3.1,4.3s3.5,3.5,6.1,5.9c3.1,2.9,5.5,5.7,7.1,8.2s2.5,5,2.8,7.3
							C475.3,163,474.9,165.2,473.7,167.4z"/>
						<path class="st6" d="M525.1,197.4c-0.8,1.5-2.1,2.8-3.9,3.9c-1.8,1.2-4,2-6.7,2.5c-2.6,0.5-5.6,0.4-8.8-0.2
							c-3.2-0.6-6.5-1.9-9.9-3.8c-7.2-4.1-11.7-9.4-13.4-15.9c-1.7-6.5-0.5-13.3,3.5-20.4c2.7-4.8,6-8.5,10-11.2
							c3.9-2.6,8.2-4,12.9-4s9.4,1.3,14.3,4.1c3,1.7,5.6,3.7,7.6,6s3.5,4.7,4.5,7.1c1,2.4,1.5,4.6,1.5,6.7c0,2.1-0.3,3.9-1.1,5.2
							c-0.8,1.4-2,2.3-3.6,2.7s-3.1,0.2-4.6-0.7c-1-0.5-1.6-1.3-2-2.1c-0.4-0.9-0.6-2.1-0.8-3.6c-0.2-3-0.8-5.4-1.7-7.4
							s-2.6-3.6-5-5c-3.5-2-7-2.2-10.6-0.7s-6.8,4.6-9.4,9.3c-1.2,2.2-2.1,4.4-2.6,6.5s-0.6,4.2-0.3,6c0.3,1.9,1,3.6,2.1,5.1
							s2.5,2.7,4.2,3.7c2.3,1.3,4.7,1.9,6.9,1.8c2.3-0.1,4.7-1,7.2-2.5c1.5-0.9,2.8-1.5,4.1-1.8c1.2-0.3,2.5-0.1,3.7,0.6
							c1.4,0.8,2.3,2,2.6,3.6C525.9,194.8,525.8,196.2,525.1,197.4z"/>
						<path class="st6" d="M548.2,207.3l-5.5,9.8c-1.3,2.4-2.9,3.8-4.7,4.4c-1.8,0.6-3.5,0.4-5.2-0.6c-1.7-0.9-2.7-2.3-3.1-4.1
							c-0.4-1.8,0.1-3.9,1.4-6.2l18.4-32.6c3-5.3,6.3-6.8,10.1-4.7c1.9,1.1,3,2.5,3.2,4.2s-0.4,3.8-1.7,6.2c2.8-1.6,5.2-2.6,7.4-3
							s4.5,0.1,6.9,1.5c2.5,1.4,4.5,3.3,6.1,5.9c1.6,2.5,1.9,4.8,0.7,6.8c-0.8,1.4-2,2.3-3.5,2.7s-2.8,0.2-4-0.4
							c-0.4-0.2-1.3-1.1-2.7-2.5c-1.4-1.5-2.6-2.5-3.9-3.2c-1.7-1-3.4-1.3-5-1s-3.2,1.1-4.8,2.6c-1.6,1.4-3.2,3.3-4.8,5.6
							C552,200.9,550.2,203.8,548.2,207.3z"/>
						<path class="st6" d="M600.3,205l-19.1,33.8c-1.3,2.3-2.9,3.8-4.7,4.4c-1.8,0.6-3.5,0.4-5.3-0.6c-1.7-1-2.8-2.4-3.1-4.2
							s0.1-3.9,1.4-6.2l18.9-33.5c1.3-2.3,2.8-3.8,4.6-4.3c1.7-0.6,3.5-0.4,5.2,0.6s2.8,2.4,3.2,4.1
							C601.9,201,601.5,202.9,600.3,205z M601.4,189.7c-1.6-0.9-2.7-2.2-3.3-3.9s-0.4-3.4,0.7-5.2c0.9-1.7,2.3-2.7,4.1-3.1
							c1.8-0.4,3.5-0.2,5,0.7s2.6,2.1,3.2,3.7c0.6,1.6,0.4,3.4-0.6,5.2s-2.4,2.9-4.1,3.3C604.6,190.8,602.9,190.5,601.4,189.7z"/>
						<path class="st6" d="M641.2,251.8l-8.8,15.6c-1.4,2.5-3,4-4.8,4.6s-3.6,0.4-5.5-0.6c-1.8-1-2.9-2.4-3.3-4.3
							c-0.4-1.9,0.1-4,1.5-6.5l10.5-18.6c1.7-2.9,2.9-5.3,3.6-7c0.7-1.7,0.9-3.4,0.6-4.9c-0.3-1.5-1.4-2.9-3.3-3.9
							c-3.8-2.2-7.1-2.3-9.8-0.3c-2.7,1.9-5.4,5.4-8.2,10.3l-8.9,15.8c-1.4,2.4-3,4-4.8,4.6s-3.6,0.4-5.4-0.6
							c-1.8-1-2.9-2.4-3.3-4.3c-0.4-1.9,0-4,1.4-6.5l18.9-33.5c1.2-2.2,2.7-3.6,4.4-4.2c1.7-0.6,3.3-0.4,5,0.5
							c1.6,0.9,2.6,2.2,3.1,3.9s0.2,3.5-0.9,5.3l-0.6,1.1c3.4-1.3,6.6-1.8,9.5-1.7c3,0.2,5.9,1,8.7,2.6c2.9,1.7,5.1,3.7,6.6,6
							c1.5,2.4,2.2,5.1,2.2,8.3c3.3-1.3,6.4-1.9,9.4-1.8c2.9,0.1,5.7,0.9,8.5,2.5c3.2,1.8,5.6,4,7.2,6.5c1.6,2.6,2.3,5.3,2.1,8.3
							c-0.2,2.7-1.6,6.3-4.1,10.8l-12.9,22.8c-1.4,2.5-3,4-4.8,4.6s-3.6,0.4-5.4-0.6c-1.8-1-2.9-2.4-3.3-4.3c-0.4-1.9,0-4,1.4-6.5
							l11.1-19.7c1.4-2.5,2.4-4.6,3.1-6.2c0.6-1.6,0.8-3.2,0.4-4.8c-0.4-1.6-1.5-2.9-3.4-4c-1.5-0.9-3.3-1.2-5.2-1.1
							c-1.9,0.1-3.7,0.8-5.3,1.9C646.4,243.5,644,246.8,641.2,251.8z"/>
					</g>
				</g>
			</g>
		</g>
	</g>
</g>
<g>
	<path class="st6" d="M375.3,822l4.5,4.5c1,1,1.9,1.9,2.7,2.9h0.1c-0.4-1.2-0.7-2.5-1-3.8l-1.4-6.3l1.6-0.9l4.7,4.3
		c1.1,1,2.1,2,2.9,2.9h0.1c-0.4-1.2-0.8-2.4-1.2-3.9l-1.6-6.1l1.9-1.1l2.7,12.4l-1.7,1l-4.5-4.1c-1-1-2-1.8-2.9-2.9l0,0
		c0.5,1.4,0.8,2.7,1.1,4l1.2,5.9l-1.7,1l-9.2-8.6L375.3,822z"/>
	<path class="st6" d="M391.5,812.6l4.5,4.5c1,1,1.9,1.9,2.7,2.9h0.1c-0.4-1.2-0.7-2.5-1-3.8l-1.4-6.3l1.6-0.9l4.7,4.3
		c1.1,1,2.1,2,2.9,2.9h0.1c-0.4-1.2-0.8-2.4-1.2-3.9l-1.6-6.1l1.9-1.1l2.7,12.4l-1.7,1l-4.5-4.1c-1-1-2-1.8-2.9-2.9l0,0
		c0.5,1.4,0.8,2.7,1.1,4l1.2,5.9l-1.7,1l-9.2-8.6L391.5,812.6z"/>
	<path class="st6" d="M407.7,803.1l4.5,4.5c1,1,1.9,1.9,2.7,2.9h0.1c-0.4-1.2-0.7-2.5-1-3.8l-1.4-6.3l1.6-0.9l4.7,4.3
		c1.1,1,2.1,2,2.9,2.9h0.1c-0.4-1.2-0.8-2.4-1.2-3.9l-1.6-6.1l1.9-1.1l2.7,12.4l-1.7,1l-4.5-4.1c-1-1-2-1.8-2.9-2.9l0,0
		c0.5,1.4,0.8,2.7,1.1,4l1.2,5.9l-1.7,1l-9.2-8.6L407.7,803.1z"/>
	<path class="st6" d="M426.9,804.4c-0.5-0.8-0.3-1.7,0.5-2.1s1.6-0.2,2.1,0.6s0.3,1.7-0.5,2.1C428.3,805.5,427.4,805.2,426.9,804.4z
		"/>
	<path class="st6" d="M428.3,795.5c-0.7-1.2-1.4-2.3-2-3.2l1.7-1l1.3,2l0.1-0.1c-0.3-1.7,0.3-3.2,1.6-4c0.2-0.1,0.4-0.2,0.6-0.2
		l1,1.8c-0.2,0.1-0.4,0.2-0.7,0.3c-1.3,0.8-1.7,2.3-1.1,3.9c0.1,0.3,0.2,0.6,0.4,0.9l3.2,5.6l-1.9,1.1L428.3,795.5z"/>
	<path class="st6" d="M438.2,796.8c0.8,0,2-0.2,2.9-0.7c1.4-0.8,1.6-1.9,1.1-2.7c-0.5-0.9-1.4-1.1-3.1-0.8c-2.3,0.4-3.8-0.1-4.5-1.4
		c-1-1.7-0.4-3.9,1.8-5.2c1.1-0.6,2.2-0.9,2.9-0.8l0.3,1.7c-0.6,0-1.5,0.1-2.5,0.6c-1.1,0.7-1.4,1.7-0.9,2.4c0.5,0.9,1.4,0.9,3,0.6
		c2.2-0.4,3.7,0,4.6,1.6c1.1,1.8,0.4,4-2.1,5.4c-1.1,0.7-2.4,1-3.4,1L438.2,796.8z"/>
	<path class="st6" d="M442.6,778.8l1.7,3l2.7-1.6l0.8,1.4l-2.7,1.6l3.3,5.6c0.8,1.3,1.5,1.8,2.6,1.2c0.5-0.3,0.8-0.6,1-0.8l0.9,1.4
		c-0.3,0.4-0.8,0.8-1.5,1.2c-0.9,0.5-1.8,0.6-2.5,0.4c-0.9-0.2-1.6-1.1-2.3-2.3l-3.3-5.7l-1.6,0.9l-0.8-1.4l1.6-0.9l-1.5-2.5
		L442.6,778.8z"/>
	<path class="st6" d="M462.4,781.5c0.6,1.1,1.2,2,1.7,2.8l-1.7,1l-1.1-1.6l0,0c0,1.1-0.5,2.9-2.3,4c-1.6,1-4.1,1.2-6.3-2.5l-3.6-6.1
		l1.9-1.1l3.4,5.8c1.2,2,2.5,3,4.3,2c1.3-0.7,1.6-2.1,1.5-3.2c-0.1-0.3-0.2-0.7-0.4-1.1l-3.7-6.4l1.9-1.1L462.4,781.5z"/>
	<path class="st6" d="M467.3,761.9l7.4,12.6c0.5,0.9,1.2,2,1.7,2.6l-1.7,1l-1.1-1.8l0,0c0.1,1.5-0.7,3.1-2.4,4.1
		c-2.5,1.5-5.7,0.5-7.6-2.7c-2-3.5-1.1-6.9,1.4-8.3c1.6-0.9,3.1-0.8,4.1-0.2l0,0l-3.6-6.2L467.3,761.9z M470.7,772.1
		c-0.1-0.2-0.3-0.5-0.6-0.8c-1-1-2.6-1.4-4-0.6c-2,1.1-2.1,3.6-0.8,5.9c1.2,2.1,3.3,3.3,5.3,2.1c1.3-0.7,1.9-2.3,1.5-3.9
		c-0.1-0.3-0.2-0.6-0.4-0.9L470.7,772.1z"/>
	<path class="st6" d="M473.7,760.8c0.4,0.6,0.2,1.4-0.5,1.9c-0.7,0.4-1.4,0.1-1.8-0.5c-0.4-0.7-0.2-1.5,0.5-1.9
		C472.6,759.8,473.3,760.1,473.7,760.8z M479.4,775.4l-6.1-10.5l1.9-1.1l6.1,10.5L479.4,775.4z"/>
	<path class="st6" d="M490.8,761.6c2.3,3.9,0.6,7.1-2,8.6c-2.8,1.6-6.2,0.8-8.1-2.5c-2-3.5-0.9-6.9,2-8.6
		C485.6,757.4,488.9,758.4,490.8,761.6z M482.6,766.6c1.3,2.3,3.7,3.2,5.5,2.2c1.8-1.1,2.2-3.6,0.8-5.9c-1-1.8-3.2-3.5-5.5-2.2
		S481.4,764.6,482.6,766.6z"/>
	<path class="st6" d="M494.7,765c-0.5-0.8-0.3-1.7,0.5-2.1c0.8-0.4,1.6-0.2,2.1,0.6s0.3,1.7-0.5,2.1C496,766,495.1,765.8,494.7,765z
		"/>
	<path class="st6" d="M507.5,758.5c-0.3,0.5-1.2,1.5-2.7,2.4c-3.2,1.8-6.5,0.9-8.3-2.3c-1.9-3.2-1-6.8,2.4-8.8c1.1-0.7,2.3-1,2.9-1
		l0.4,1.7c-0.6,0-1.5,0.2-2.5,0.8c-2.4,1.4-2.7,3.9-1.4,6.1c1.4,2.4,3.8,3,5.9,1.8c1.1-0.6,1.6-1.3,2-1.9L507.5,758.5z"/>
	<path class="st6" d="M516.2,746.9c2.3,3.9,0.6,7.1-2,8.6c-2.8,1.6-6.2,0.8-8.1-2.5c-2-3.5-0.9-6.9,2-8.6
		C511,742.7,514.3,743.7,516.2,746.9z M507.9,751.8c1.3,2.3,3.7,3.2,5.5,2.2c1.8-1.1,2.2-3.6,0.8-5.9c-1-1.8-3.2-3.5-5.5-2.2
		S506.8,749.8,507.9,751.8z"/>
	<path class="st6" d="M517.2,743.1c-0.6-1.1-1.2-2-1.7-2.8l1.7-1l1.1,1.6h0.1c0-1.3,0.4-2.8,2.2-3.8c1.4-0.8,3-0.6,4.2,0.4l0,0
		c0-0.8,0.1-1.5,0.4-2c0.3-0.8,0.9-1.5,1.9-2.1c1.4-0.8,4-1.1,6.1,2.5l3.6,6.2l-1.9,1.1l-3.4-5.9c-1.2-2-2.6-2.8-4.1-1.9
		c-1.1,0.6-1.5,1.9-1.2,3c0.1,0.3,0.2,0.7,0.4,1l3.8,6.5l-1.9,1.1l-3.6-6.3c-1-1.7-2.4-2.4-3.9-1.6c-1.2,0.7-1.5,2.1-1.2,3.3
		c0.1,0.3,0.2,0.7,0.4,1l3.7,6.3l-1.9,1.1L517.2,743.1z"/>
</g>
</svg>
