<?xml version="1.0" encoding="utf-8"?>
<!-- Generator: Adobe Illustrator 27.0.0, SVG Export Plug-In . SVG Version: 6.00 Build 0)  -->
<svg version="1.1" id="Layer_1" xmlns="http://www.w3.org/2000/svg" xmlns:xlink="http://www.w3.org/1999/xlink" x="0px" y="0px"
	 viewBox="0 0 2521 2911" style="enable-background:new 0 0 2521 2911;" xml:space="preserve">
<style type="text/css">
	.st0{clip-path:url(#SVGID_00000067234740407305780300000016799107511194090656_);}
	.st1{fill:url(#SVGID_00000070092336151529229960000010472514683538032822_);}
	
		.st2{clip-path:url(#SVGID_00000023964170749105014860000000156297163951441288_);fill:url(#SVGID_00000164503649281434240410000017875726876202281362_);}
	.st3{clip-path:url(#SVGID_00000049944396313568683120000001284249950914727056_);}
	.st4{fill:#FF6C67;}
	.st5{clip-path:url(#SVGID_00000138539764966091532260000007756096226860009110_);}
	.st6{fill:#00D0D3;}
	
		.st7{clip-path:url(#SVGID_00000175295521521650539300000004347278715474732183_);fill:url(#SVGID_00000069377759010548621120000004715991126782251147_);}
	.st8{clip-path:url(#SVGID_00000052096304781000111300000014797950284704723855_);}
	.st9{fill:none;}
	.st10{fill-rule:evenodd;clip-rule:evenodd;fill:#00D0D3;}
	.st11{clip-path:url(#SVGID_00000161617572333150443300000009007808054414874016_);}
</style>
<g>
	<g>
		<g>
			<g>
				<g>
					<g>
						<g>
							<defs>
								<polygon id="SVGID_1_" points="0,727.6 0,2183.4 1260.5,2911 2521,2183.4 2521,727.6 1260.5,0 								"/>
							</defs>
							<clipPath id="SVGID_00000119079556767989935190000015381647938488847530_">
								<use xlink:href="#SVGID_1_"  style="overflow:visible;"/>
							</clipPath>
							<g style="clip-path:url(#SVGID_00000119079556767989935190000015381647938488847530_);">
								<g>
									
										<radialGradient id="SVGID_00000004539529952185304070000011246239480190177431_" cx="365.4" cy="-14.1" r="394.6624" gradientTransform="matrix(3.4496 0 0 3.4499 0 1504.1431)" gradientUnits="userSpaceOnUse">
										<stop  offset="0" style="stop-color:#7F83F7"/>
										<stop  offset="0.1889" style="stop-color:#7174E0"/>
										<stop  offset="0.5849" style="stop-color:#4E4EA6"/>
										<stop  offset="1" style="stop-color:#262262"/>
									</radialGradient>
									<polygon style="fill:url(#SVGID_00000004539529952185304070000011246239480190177431_);" points="0,727.6 0,2183.4 
										1260.5,2911 2521,2183.4 2521,727.6 1260.5,0 									"/>
								</g>
							</g>
						</g>
					</g>
				</g>
			</g>
			<g>
				<g>
					<g>
						<g>
							<defs>
								<polygon id="SVGID_00000094585491647397455880000011264992917840181158_" points="0,727.6 0,2183.4 1260.5,2911 
									2521,2183.4 2521,727.6 1260.5,0 								"/>
							</defs>
							<clipPath id="SVGID_00000000200391761479185230000009126103744767834770_">
								<use xlink:href="#SVGID_00000094585491647397455880000011264992917840181158_"  style="overflow:visible;"/>
							</clipPath>
							
								<radialGradient id="SVGID_00000080198652306848426060000008020779426261808315_" cx="511.6455" cy="-190.7719" r="150.7791" gradientTransform="matrix(2.097 -0.7548 1.0073 2.7989 227.7665 2083.2771)" gradientUnits="userSpaceOnUse">
								<stop  offset="0" style="stop-color:#FF6C67"/>
								<stop  offset="1" style="stop-color:#FF6C67;stop-opacity:0"/>
							</radialGradient>
							
								<path style="clip-path:url(#SVGID_00000000200391761479185230000009126103744767834770_);fill:url(#SVGID_00000080198652306848426060000008020779426261808315_);" d="
								M1424.7,1049.5c83.8,232.9,10.3,473-164.2,535.8s-384.3-75.2-468.1-308.4S782,803.8,956.6,741S1340.9,816.2,1424.7,1049.5z"
								/>
						</g>
					</g>
				</g>
			</g>
			<g>
				<g>
					<g>
						<g>
							<defs>
								<polygon id="SVGID_00000104699881035465751730000014645270450007914642_" points="0,727.6 0,2183.4 1260.5,2911 
									2521,2183.4 2521,727.6 1260.5,0 								"/>
							</defs>
							<clipPath id="SVGID_00000164505615264022925090000006362604500809120140_">
								<use xlink:href="#SVGID_00000104699881035465751730000014645270450007914642_"  style="overflow:visible;"/>
							</clipPath>
							<g style="clip-path:url(#SVGID_00000164505615264022925090000006362604500809120140_);">
								<g>
									<g>
										<path class="st4" d="M-159,2075.8c53.5,26.9,104.5,59.3,161.1,79c25.5,9,52.4,14.8,79.7,15.9c30.7,1.4,61.7-3.8,91.1-12.8
											c43.5-13.1,82.4-36.6,121.4-58.6c43.1-24.5,86.9-49.3,133.8-65.5c40-14.1,85.9-23.5,125.9-6.2c4.1,1.7,8.6,4.1,12.8,6.6
											c8.6,4.8,16.2-8.3,7.6-13.1c-39-22.8-85.6-20.7-128-9c-48,13.1-93.1,36.9-136.3,61.1c-21,11.7-41.7,23.8-62.8,35.2
											c-9.3,5.2-19,10.3-28.3,14.8c-8.3,4.1-17.2,8.3-25.2,11.4c-53.1,21.4-111.1,27.3-166.3,12.1
											c-55.9-15.5-105.9-46.6-156.6-73.1c-7.2-3.8-14.5-7.6-21.7-11C-160.1,2058.2-168,2071.3-159,2075.8L-159,2075.8z"/>
									</g>
								</g>
								<g>
									<g>
										<path class="st4" d="M875.2,2682.6c-35.5-25.5-73.8-47.6-108.3-74.9c-15.2-11.7-29-24.8-41.7-39.3
											c-14.5-16.9-26.9-35.5-37.6-54.9c-13.8-24.8-24.8-51.1-31.7-78.7c-6.9-28.3-10-57.3-11.4-86.2
											c-2.4-58,1.7-116.6-3.8-174.6c-2.8-27.9-7.2-56.2-16.6-82.8c-7.6-22.1-18.6-44.5-36.6-60.4c-4.1-3.8-8.6-6.9-13.5-10
											c-8.3-5.2-16.2,7.9-7.6,13.1c18.6,11.7,30.7,30.7,39,50.7c10.3,25.2,15.9,52.4,19,79.7c6.9,58.3,2.8,116.6,4.5,175.3
											c1,29,3.4,58,9.3,86.2c5.9,29.3,16.2,57.3,30,83.5c20,38.3,45.5,73.8,78.7,101.8c32.8,27.6,69.7,49.3,104.5,73.5
											c5.5,3.8,10.7,7.6,16.2,11.4c3.4,2.4,8.6,0.7,10.3-2.8C880.3,2689.2,878.6,2685,875.2,2682.6L875.2,2682.6z"/>
									</g>
								</g>
							</g>
						</g>
					</g>
				</g>
			</g>
			<g>
				<g>
					<g>
						<g>
							<defs>
								<polygon id="SVGID_00000090258253971252613390000002218005486501486487_" points="0,727.6 0,2183.4 1260.5,2911 
									2521,2183.4 2521,727.6 1260.5,0 								"/>
							</defs>
							<clipPath id="SVGID_00000162344446310564617120000001102424536673011109_">
								<use xlink:href="#SVGID_00000090258253971252613390000002218005486501486487_"  style="overflow:visible;"/>
							</clipPath>
							<g style="clip-path:url(#SVGID_00000162344446310564617120000001102424536673011109_);">
								<g>
									<g>
										<path class="st6" d="M390.5,2407.7c39.7,20,78.7,42.4,120.4,57.6c27.3,10,55.2,19.7,83.8,25.2c28.3,5.5,57.3,6.6,86.2,3.1
											c55.5-7.2,106.6-30.4,156.3-54.9c42.8-21,84.5-45.2,128.7-63.1c41.7-17.2,92.1-32.8,136.6-16.2c4.8,1.7,9.7,4.1,14.1,6.9
											c8.6,4.8,16.2-8.3,7.6-13.1c-42.4-24.8-93.8-16.6-138-1.4c-44.5,15.2-85.6,38.3-127.3,59.3
											c-49.3,24.5-99.3,51.1-153.5,63.1c-26.9,5.9-54.5,7.9-81.8,5.5c-30.7-2.8-60-12.1-89-21.7c-19.7-6.6-38.6-13.8-57.3-22.8
											c-19.7-9.3-39-20-58.6-30c-6.6-3.4-13.5-6.9-20-10.3C389.5,2390.1,381.9,2403.5,390.5,2407.7L390.5,2407.7z"/>
									</g>
								</g>
								<g>
									<g>
										<path class="st6" d="M1425,3014.5c-35.5-25.2-72.8-48.3-105.2-76.9c-19-16.9-36.9-35.2-53.5-54.5
											c-17.9-20.7-32.4-44.2-43.1-69c-20-47.3-25.5-98.7-27.3-149.7c-2.1-52.4,0-105.2-5.5-157.7c-2.8-27.3-7.2-54.9-15.9-81.1
											c-7.6-23.1-18.6-45.9-36.9-62.4c-4.1-3.8-9-7.2-13.8-10.3c-8.3-5.2-16.2,7.9-7.6,13.1c19,12.1,31.4,32.1,39.7,52.4
											c10,25.2,15.2,52.1,18.3,79c6.2,52.4,4.8,105.2,6.2,157.7c1.4,51.4,5.9,103.8,24.1,152.5c9.7,25.5,22.4,49.7,39,71.1
											c16.6,21.4,35.9,41.4,55.5,60c30.7,29,65.9,52.1,100.7,76.2c5.9,4.1,12.1,8.3,17.9,12.8c3.4,2.4,8.6,0.7,10.3-2.8
											C1430.2,3021.4,1428.5,3016.9,1425,3014.5L1425,3014.5z"/>
									</g>
								</g>
							</g>
						</g>
					</g>
				</g>
			</g>
			<g>
				<g>
					<g>
						<g>
							<defs>
								<polygon id="SVGID_00000036950786443100823730000018059184603667831455_" points="0,727.6 0,2183.4 1260.5,2911 
									2521,2183.4 2521,727.6 1260.5,0 								"/>
							</defs>
							<clipPath id="SVGID_00000100382898241026756890000005553144036760310453_">
								<use xlink:href="#SVGID_00000036950786443100823730000018059184603667831455_"  style="overflow:visible;"/>
							</clipPath>
							
								<radialGradient id="SVGID_00000165953863515689508300000003506492452977675962_" cx="444.9357" cy="66.2964" r="70.0977" gradientTransform="matrix(3.5038 0.1508 0.1508 3.869 -89.7585 1254.8777)" gradientUnits="userSpaceOnUse">
								<stop  offset="0" style="stop-color:#00D0D3"/>
								<stop  offset="0.983" style="stop-color:#00D0D3;stop-opacity:1.695943e-02"/>
								<stop  offset="1" style="stop-color:#00D0D3;stop-opacity:0"/>
							</radialGradient>
							
								<path style="clip-path:url(#SVGID_00000100382898241026756890000005553144036760310453_);fill:url(#SVGID_00000165953863515689508300000003506492452977675962_);" d="
								M1559.2,1801.2c-141.1,50.7-291.2-7.9-335.3-130.8c-44.2-122.8,34.2-263.9,175.2-314.6s291.1,7.9,335.3,130.8
								C1778.6,1609.4,1700.3,1750.5,1559.2,1801.2z"/>
						</g>
					</g>
				</g>
			</g>
			<g>
				<g>
					<g>
						<g>
							<defs>
								<polygon id="SVGID_00000166657153860418748360000000666514083582670729_" points="0,727.6 0,2183.4 1260.5,2911 
									2521,2183.4 2521,727.6 1260.5,0 								"/>
							</defs>
							<clipPath id="SVGID_00000034795188132835786880000013255361940002932904_">
								<use xlink:href="#SVGID_00000166657153860418748360000000666514083582670729_"  style="overflow:visible;"/>
							</clipPath>
							<g style="clip-path:url(#SVGID_00000034795188132835786880000013255361940002932904_);">
								<g>
									<g>
										<g>
											<g>
												<g>
													
														<rect x="1524.2" y="816.3" transform="matrix(0.5075 -0.8617 0.8617 0.5075 15.4811 1812.7814)" class="st9" width="138.3" height="153.2"/>
												</g>
												
													<rect x="1555.1" y="923.8" transform="matrix(0.5075 -0.8617 0.8617 0.5075 -30.3073 1809.7024)" class="st10" width="25.5" height="15.2"/>
												
													<rect x="1578.3" y="883.8" transform="matrix(0.5075 -0.8617 0.8617 0.5075 15.6126 1810.0714)" class="st10" width="25.5" height="15.2"/>
												
													<rect x="1601.9" y="844.2" transform="matrix(0.5075 -0.8617 0.8617 0.5075 61.3526 1810.9059)" class="st10" width="25.5" height="15.2"/>
											</g>
										</g>
										<g>
											<g>
												<g>
													
														<rect x="1454" y="935" transform="matrix(0.5075 -0.8617 0.8617 0.5075 -121.4444 1810.7166)" class="st9" width="138.3" height="153.2"/>
												</g>
												
													<rect x="1485.1" y="1042.7" transform="matrix(0.5075 -0.8617 0.8617 0.5075 -167.2526 1808.0013)" class="st10" width="25.5" height="15.2"/>
												
													<rect x="1508.4" y="1003.5" transform="matrix(0.5075 -0.8617 0.8617 0.5075 -121.9872 1808.7338)" class="st10" width="25.5" height="15.2"/>
												
													<rect x="1531.5" y="963.5" transform="matrix(0.5075 -0.8617 0.8617 0.5075 -76.164 1808.9341)" class="st10" width="25.5" height="15.2"/>
											</g>
										</g>
										<g>
											<g>
												<g>
													
														<rect x="1383.4" y="1054.7" transform="matrix(0.5075 -0.8617 0.8617 0.5075 -259.3073 1808.8324)" class="st9" width="138.3" height="153.2"/>
												</g>
												
													<rect x="1414.4" y="1162.3" transform="matrix(0.5075 -0.8617 0.8617 0.5075 -305.0995 1806.0072)" class="st10" width="25.5" height="15.2"/>
												
													<rect x="1437.9" y="1122.7" transform="matrix(0.5075 -0.8617 0.8617 0.5075 -259.4236 1806.7087)" class="st10" width="25.5" height="15.2"/>
												
													<rect x="1461.5" y="1083.2" transform="matrix(0.5075 -0.8617 0.8617 0.5075 -213.7638 1807.5952)" class="st10" width="25.5" height="15.2"/>
											</g>
										</g>
										<g>
											<g>
												<g>
													
														<rect x="1312.9" y="1174" transform="matrix(0.5075 -0.8617 0.8617 0.5075 -396.8227 1806.8586)" class="st9" width="138.3" height="153.2"/>
												</g>
												
													<rect x="1344.4" y="1281.8" transform="matrix(0.5075 -0.8617 0.8617 0.5075 -442.5763 1804.5465)" class="st10" width="25.5" height="15.2"/>
												
													<rect x="1367.4" y="1242" transform="matrix(0.5075 -0.8617 0.8617 0.5075 -396.9406 1804.7368)" class="st10" width="25.5" height="15.2"/>
												
													<rect x="1391" y="1202.4" transform="matrix(0.5075 -0.8617 0.8617 0.5075 -351.2005 1805.5712)" class="st10" width="25.5" height="15.2"/>
											</g>
										</g>
										<g>
											<g>
												<g>
													
														<rect x="1243.5" y="1293.3" transform="matrix(0.5075 -0.8617 0.8617 0.5075 -533.8367 1805.771)" class="st9" width="138.3" height="153.2"/>
												</g>
												
													<rect x="1274.5" y="1400.9" transform="matrix(0.5075 -0.8617 0.8617 0.5075 -579.6247 1802.9415)" class="st10" width="25.5" height="15.2"/>
												
													<rect x="1297.6" y="1361.3" transform="matrix(0.5075 -0.8617 0.8617 0.5075 -534.1255 1803.3541)" class="st10" width="25.5" height="15.2"/>
												
													<rect x="1320.5" y="1321.7" transform="matrix(0.5075 -0.8617 0.8617 0.5075 -488.7175 1803.5989)" class="st10" width="25.5" height="15.2"/>
											</g>
										</g>
										<g>
											<g>
												<g>
													
														<rect x="1173.3" y="1412.6" transform="matrix(0.5075 -0.8617 0.8617 0.5075 -671.1855 1804.0902)" class="st9" width="138.3" height="153.2"/>
												</g>
												
													<rect x="1204.3" y="1520.2" transform="matrix(0.5075 -0.8617 0.8617 0.5075 -716.9743 1801.2621)" class="st10" width="25.5" height="15.2"/>
												
													<rect x="1227.2" y="1480.4" transform="matrix(0.5075 -0.8617 0.8617 0.5075 -671.3961 1801.3763)" class="st10" width="25.5" height="15.2"/>
												
													<rect x="1250.7" y="1441" transform="matrix(0.5075 -0.8617 0.8617 0.5075 -625.9019 1802.2169)" class="st10" width="25.5" height="15.2"/>
											</g>
										</g>
										<g>
											<g>
												<g>
													
														<rect x="1102.7" y="1532.2" transform="matrix(0.5075 -0.8617 0.8617 0.5075 -809.0445 1802.1141)" class="st9" width="138.3" height="153.2"/>
												</g>
												
													<rect x="1133.5" y="1639.5" transform="matrix(0.5075 -0.8617 0.8617 0.5075 -854.6632 1798.9891)" class="st10" width="25.5" height="15.2"/>
												
													<rect x="1156.8" y="1599.7" transform="matrix(0.5075 -0.8617 0.8617 0.5075 -808.9125 1799.4037)" class="st10" width="25.5" height="15.2"/>
												
													<rect x="1180.4" y="1560.1" transform="matrix(0.5075 -0.8617 0.8617 0.5075 -763.1721 1800.2382)" class="st10" width="25.5" height="15.2"/>
											</g>
										</g>
										<g>
											<g>
												<g>
													
														<rect x="1032.3" y="1651.2" transform="matrix(0.5075 -0.8617 0.8617 0.5075 -946.3153 1800.1356)" class="st9" width="138.3" height="153.2"/>
												</g>
												
													<rect x="1063.3" y="1758.9" transform="matrix(0.5075 -0.8617 0.8617 0.5075 -992.1039 1797.3074)" class="st10" width="25.5" height="15.2"/>
												
													<rect x="1086.8" y="1719.4" transform="matrix(0.5075 -0.8617 0.8617 0.5075 -946.5122 1798.0658)" class="st10" width="25.5" height="15.2"/>
												
													<rect x="1109.9" y="1679.4" transform="matrix(0.5075 -0.8617 0.8617 0.5075 -900.6896 1798.2657)" class="st10" width="25.5" height="15.2"/>
											</g>
										</g>
										<g>
											<g>
												<g>
													
														<rect x="961.8" y="1770.5" transform="matrix(0.5075 -0.8617 0.8617 0.5075 -1083.833 1798.1641)" class="st9" width="138.3" height="153.2"/>
												</g>
												
													<rect x="992.8" y="1878.2" transform="matrix(0.5075 -0.8617 0.8617 0.5075 -1129.6207 1795.3353)" class="st10" width="25.5" height="15.2"/>
												
													<rect x="1016.3" y="1838.6" transform="matrix(0.5075 -0.8617 0.8617 0.5075 -1083.9492 1796.0404)" class="st10" width="25.5" height="15.2"/>
												
													<rect x="1039.9" y="1799.1" transform="matrix(0.5075 -0.8617 0.8617 0.5075 -1038.2892 1796.9279)" class="st10" width="25.5" height="15.2"/>
											</g>
										</g>
										<g>
											<g>
												<g>
													
														<rect x="891.8" y="1890.1" transform="matrix(0.5075 -0.8617 0.8617 0.5075 -1221.3088 1796.703)" class="st9" width="138.3" height="153.2"/>
												</g>
												
													<rect x="922.8" y="1997.7" transform="matrix(0.5075 -0.8617 0.8617 0.5075 -1267.0973 1793.8746)" class="st10" width="25.5" height="15.2"/>
												
													<rect x="946.3" y="1958.1" transform="matrix(0.5075 -0.8617 0.8617 0.5075 -1221.4255 1794.5808)" class="st10" width="25.5" height="15.2"/>
												
													<rect x="969.4" y="1918.3" transform="matrix(0.5075 -0.8617 0.8617 0.5075 -1175.7251 1794.903)" class="st10" width="25.5" height="15.2"/>
											</g>
										</g>
										<g>
											<g>
												<g>
													
														<rect x="821.9" y="2009.2" transform="matrix(0.5075 -0.8617 0.8617 0.5075 -1358.3622 1795.1025)" class="st9" width="138.3" height="153.2"/>
												</g>
												
													<rect x="852.9" y="2116.8" transform="matrix(0.5075 -0.8617 0.8617 0.5075 -1404.1533 1792.2753)" class="st10" width="25.5" height="15.2"/>
												
													<rect x="876" y="2077.2" transform="matrix(0.5075 -0.8617 0.8617 0.5075 -1358.6566 1792.6895)" class="st10" width="25.5" height="15.2"/>
												
													<rect x="898.9" y="2037.6" transform="matrix(0.5075 -0.8617 0.8617 0.5075 -1313.2424 1792.9312)" class="st10" width="25.5" height="15.2"/>
											</g>
										</g>
										<g>
											<g>
												<g>
													
														<rect x="751.7" y="2128.5" transform="matrix(0.5075 -0.8617 0.8617 0.5075 -1495.7108 1793.4225)" class="st9" width="138.3" height="153.2"/>
												</g>
												
													<rect x="782.4" y="2236.1" transform="matrix(0.5075 -0.8617 0.8617 0.5075 -1541.6715 1790.2935)" class="st10" width="25.5" height="15.2"/>
												
													<rect x="805.6" y="2196.3" transform="matrix(0.5075 -0.8617 0.8617 0.5075 -1495.9211 1790.7085)" class="st10" width="25.5" height="15.2"/>
												
													<rect x="829.1" y="2156.9" transform="matrix(0.5075 -0.8617 0.8617 0.5075 -1450.4279 1791.5485)" class="st10" width="25.5" height="15.2"/>
											</g>
										</g>
										<g>
											<g>
												<g>
													
														<rect x="681.1" y="2248.1" transform="matrix(0.5075 -0.8617 0.8617 0.5075 -1633.5712 1791.4464)" class="st9" width="138.3" height="153.2"/>
												</g>
												
													<rect x="712.2" y="2355.6" transform="matrix(0.5075 -0.8617 0.8617 0.5075 -1679.193 1788.6644)" class="st10" width="25.5" height="15.2"/>
												
													<rect x="735.2" y="2315.6" transform="matrix(0.5075 -0.8617 0.8617 0.5075 -1633.4451 1788.7388)" class="st10" width="25.5" height="15.2"/>
												
													<rect x="758.8" y="2276" transform="matrix(0.5075 -0.8617 0.8617 0.5075 -1587.704 1789.5721)" class="st10" width="25.5" height="15.2"/>
											</g>
										</g>
										<g>
											<g>
												<g>
													
														<rect x="610.7" y="2367.1" transform="matrix(0.5075 -0.8617 0.8617 0.5075 -1770.8414 1789.4679)" class="st9" width="138.3" height="153.2"/>
												</g>
												
													<rect x="641.7" y="2474.8" transform="matrix(0.5075 -0.8617 0.8617 0.5075 -1816.6365 1786.641)" class="st10" width="25.5" height="15.2"/>
												
													<rect x="665.2" y="2435.3" transform="matrix(0.5075 -0.8617 0.8617 0.5075 -1771.0378 1787.3979)" class="st10" width="25.5" height="15.2"/>
												
													<rect x="688.3" y="2395.3" transform="matrix(0.5075 -0.8617 0.8617 0.5075 -1725.2139 1787.5983)" class="st10" width="25.5" height="15.2"/>
											</g>
										</g>
										<g>
											<g>
												<g>
													
														<rect x="540.2" y="2486.4" transform="matrix(0.5075 -0.8617 0.8617 0.5075 -1908.3578 1787.4957)" class="st9" width="138.3" height="153.2"/>
												</g>
												
													<rect x="571.2" y="2594.1" transform="matrix(0.5075 -0.8617 0.8617 0.5075 -1954.1464 1784.6672)" class="st10" width="25.5" height="15.2"/>
												
													<rect x="595" y="2554.7" transform="matrix(0.5075 -0.8617 0.8617 0.5075 -1908.479 1785.7153)" class="st10" width="25.5" height="15.2"/>
												
													<rect x="618.3" y="2515" transform="matrix(0.5075 -0.8617 0.8617 0.5075 -1862.8142 1786.2599)" class="st10" width="25.5" height="15.2"/>
											</g>
										</g>
									</g>
								</g>
							</g>
						</g>
					</g>
				</g>
			</g>
			<g>
				<g>
					<g>
						<g>
							<defs>
								<polygon id="SVGID_00000123439491475855441640000006889623055659554187_" points="0,727.6 0,2183.4 1260.5,2911 
									2521,2183.4 2521,727.6 1260.5,0 								"/>
							</defs>
							<clipPath id="SVGID_00000172432412712267659680000012671494071283623359_">
								<use xlink:href="#SVGID_00000123439491475855441640000006889623055659554187_"  style="overflow:visible;"/>
							</clipPath>
							<g style="clip-path:url(#SVGID_00000172432412712267659680000012671494071283623359_);">
								<path class="st6" d="M1315,429.2l2.4-4.1c-9,3.1-17.2,5.2-24.5,6.2c-7.6,1-14.8,0.7-22.1-0.7c-7.2-1.4-14.5-4.1-21.7-8.3
									c-9.7-5.5-17.6-12.4-23.5-21.4c-5.9-8.6-9.7-18.6-11.4-29.7c-1.7-11-1.4-22.4,1.4-34.5s7.2-24.1,14.1-35.9
									c14.1-25.2,31.4-41.4,51.7-48.6c20.4-7.2,40.4-5.2,60.7,6.2c11.7,6.6,20.4,14.1,25.9,22.4c5.9,8.6,10,19,13.1,31.7
									l33.5-59.7c4.8-8.3,10-13.5,15.5-15.9c5.5-2.4,11.7-1.7,17.6,1.7c6.2,3.4,9.7,7.9,10.7,13.8c1,5.9-0.3,12.4-4.8,20
									l-100.4,178c-4.5,7.6-9.3,12.4-15.2,14.1c-5.9,1.7-11.4,1-16.9-2.1c-5.5-3.1-9-7.6-10.3-13.8
									C1309.5,443.3,1310.9,436.4,1315,429.2z M1269.1,325c-6.2,11-9.7,21.4-10.7,30.7c-1,9.7,0.3,17.9,4.1,25.2
									c3.8,7.2,9,12.8,16.2,16.9c7.2,4.1,14.5,5.9,22.4,5.5c7.9-0.3,15.9-3.4,23.8-9c7.9-5.5,14.8-14.1,21.4-25.5
									c6.2-10.7,9.7-21,10.3-30.7c0.7-9.7-0.7-18.3-4.1-25.9c-3.8-7.6-9-13.1-16.2-17.2s-15.2-5.9-23.5-4.8
									c-8.3,1-16.2,4.5-23.8,10.3C1281.5,306.3,1275,314.6,1269.1,325z"/>
								<path class="st6" d="M1500.6,378.1l-65.9,116.6c-4.5,7.9-10,13.1-16.2,15.2c-6.2,2.1-12.1,1.4-18.3-2.1
									c-5.9-3.4-9.7-8.3-10.7-14.5c-1.4-6.2,0.3-13.5,4.8-21.4l65.2-115.6c4.5-7.9,9.7-13.1,15.9-14.8c5.9-2.1,12.1-1.4,17.9,2.1
									c5.9,3.4,9.7,8.3,11,14.1C1506.1,364.3,1504.7,370.9,1500.6,378.1z M1504.4,325c-5.5-3.1-9.3-7.6-11.4-13.5
									c-2.1-5.9-1.4-11.7,2.4-17.9c3.1-5.9,7.9-9.3,14.1-10.7c6.2-1.4,12.1-0.7,17.2,2.4c5.2,3.1,9,7.2,11,12.8s1.4,11.7-2.1,17.9
									c-3.4,6.2-8.3,10-14.1,11.4C1515.4,329.1,1509.6,328.1,1504.4,325z"/>
								<path class="st6" d="M1622.7,563.4c-6.2,11-14.5,19.3-24.1,24.1c-10,4.8-21.4,6.2-34.2,4.5c-12.8-1.7-26.9-7.2-42.1-15.5
									c-14.5-8.3-25.5-17.2-33.5-27.6c-7.9-10.3-12.4-20-13.5-29.7c-1-9.3,0-17.6,3.8-24.1c2.4-4.5,6.2-7.2,11-8.6
									c4.8-1.4,9.7-0.7,14.5,2.1c4.1,2.4,6.9,5.2,7.9,8.6c1,3.4,1.7,7.6,1.7,12.4c0,9.7,2.1,17.6,5.9,24.5
									c3.8,6.9,10.7,13.1,20.7,18.6c7.9,4.5,15.9,6.6,22.8,5.9c7.2-0.7,12.1-3.4,14.8-7.9c4.1-7.2,4.1-13.8,0.7-20
									c-3.4-6.2-10.7-14.5-21.4-24.1c-12.1-11.4-21-21.4-27.9-30c-6.6-8.6-10.7-17.6-12.4-26.9c-1.7-9.3,0-18.3,5.2-27.3
									c4.5-7.9,11.4-14.5,20-19c9-4.5,19.3-6.2,31-5.2s24.5,5.2,37.6,12.8c10.3,5.9,19.3,12.4,26.2,19
									c7.2,6.9,12.4,13.8,15.9,20.4c3.4,6.9,5.5,13.1,5.9,19.3c0.3,6.2-0.7,11.4-3.1,15.5c-2.8,4.5-6.2,7.6-11,8.6
									c-4.8,1-10,0.3-15.9-3.1c-4.1-2.4-6.9-5.5-8.6-9.7s-2.8-9.3-4.1-16.2c-0.7-5.5-2.8-10.7-5.5-15.5c-2.8-4.8-7.6-9-14.8-13.1
									s-14.1-5.9-20.7-5.5c-6.6,0.3-11,2.8-13.8,7.6c-2.4,4.1-2.8,8.6-0.7,13.5c2.1,4.8,5.5,9.7,10.7,14.8s12.1,12.1,21,20.4
									c10.7,10,19,19.7,24.5,28.3c5.5,8.6,8.6,17.2,9.7,25.2C1628.2,548.2,1626.9,555.8,1622.7,563.4z"/>
								<path class="st6" d="M1800,666.9c-2.8,5.2-7.2,9.7-13.5,13.5c-6.2,4.1-13.8,6.9-23.1,8.6c-9,1.7-19.3,1.4-30.4-0.7
									c-11-2.1-22.4-6.6-34.2-13.1c-24.8-14.1-40.4-32.4-46.2-54.9c-5.9-22.4-1.7-45.9,12.1-70.4c9.3-16.6,20.7-29.3,34.5-38.6
									c13.5-9,28.3-13.8,44.5-13.8s32.4,4.5,49.3,14.1c10.3,5.9,19.3,12.8,26.2,20.7c6.9,7.9,12.1,16.2,15.5,24.5
									c3.4,8.3,5.2,15.9,5.2,23.1c0,7.2-1,13.5-3.8,17.9c-2.8,4.8-6.9,7.9-12.4,9.3c-5.5,1.4-10.7,0.7-15.9-2.4
									c-3.4-1.7-5.5-4.5-6.9-7.2c-1.4-3.1-2.1-7.2-2.8-12.4c-0.7-10.3-2.8-18.6-5.9-25.5s-9-12.4-17.2-17.2
									c-12.1-6.9-24.1-7.6-36.6-2.4c-12.4,5.2-23.5,15.9-32.4,32.1c-4.1,7.6-7.2,15.2-9,22.4s-2.1,14.5-1,20.7
									c1,6.6,3.4,12.4,7.2,17.6c3.8,5.2,8.6,9.3,14.5,12.8c7.9,4.5,16.2,6.6,23.8,6.2c7.9-0.3,16.2-3.4,24.8-8.6
									c5.2-3.1,9.7-5.2,14.1-6.2c4.1-1,8.6-0.3,12.8,2.1c4.8,2.8,7.9,6.9,9,12.4C1802.8,657.9,1802.4,662.7,1800,666.9z"/>
								<path class="st6" d="M1879.7,701l-19,33.8c-4.5,8.3-10,13.1-16.2,15.2c-6.2,2.1-12.1,1.4-17.9-2.1
									c-5.9-3.1-9.3-7.9-10.7-14.1c-1.4-6.2,0.3-13.5,4.8-21.4l63.5-112.5c10.3-18.3,21.7-23.5,34.8-16.2
									c6.6,3.8,10.3,8.6,11,14.5c0.7,5.9-1.4,13.1-5.9,21.4c9.7-5.5,17.9-9,25.5-10.3c7.6-1.4,15.5,0.3,23.8,5.2
									c8.6,4.8,15.5,11.4,21,20.4c5.5,8.6,6.6,16.6,2.4,23.5c-2.8,4.8-6.9,7.9-12.1,9.3c-5.2,1.4-9.7,0.7-13.8-1.4
									c-1.4-0.7-4.5-3.8-9.3-8.6c-4.8-5.2-9-8.6-13.5-11c-5.9-3.4-11.7-4.5-17.2-3.4c-5.5,1-11,3.8-16.6,9
									c-5.5,4.8-11,11.4-16.6,19.3C1892.8,678.9,1886.6,688.9,1879.7,701z"/>
								<path class="st6" d="M2059.4,693.1l-65.9,116.6c-4.5,7.9-10,13.1-16.2,15.2c-6.2,2.1-12.1,1.4-18.3-2.1
									c-5.9-3.4-9.7-8.3-10.7-14.5c-1-6.2,0.3-13.5,4.8-21.4l65.2-115.6c4.5-7.9,9.7-13.1,15.9-14.8c5.9-2.1,12.1-1.4,17.9,2.1
									c5.9,3.4,9.7,8.3,11,14.1C2065,679.3,2063.6,685.8,2059.4,693.1z M2063.2,640.3c-5.5-3.1-9.3-7.6-11.4-13.5
									c-2.1-5.9-1.4-11.7,2.4-17.9c3.1-5.9,7.9-9.3,14.1-10.7c6.2-1.4,12.1-0.7,17.2,2.4s9,7.2,11,12.8c2.1,5.5,1.4,11.7-2.1,17.9
									s-8.3,10-14.1,11.4C2074.3,644.1,2068.4,643.1,2063.2,640.3z"/>
								<path class="st6" d="M2200.5,854.5l-30.4,53.8c-4.8,8.6-10.3,13.8-16.6,15.9c-6.2,2.1-12.4,1.4-19-2.1
									c-6.2-3.4-10-8.3-11.4-14.8c-1.4-6.6,0.3-13.8,5.2-22.4l36.2-64.2c5.9-10,10-18.3,12.4-24.1c2.4-5.9,3.1-11.7,2.1-16.9
									s-4.8-10-11.4-13.5c-13.1-7.6-24.5-7.9-33.8-1c-9.3,6.6-18.6,18.6-28.3,35.5l-30.7,54.5c-4.8,8.3-10.3,13.8-16.6,15.9
									c-6.2,2.1-12.4,1.4-18.6-2.1c-6.2-3.4-10-8.3-11.4-14.8c-1.4-6.6,0-13.8,4.8-22.4l65.2-115.6c4.1-7.6,9.3-12.4,15.2-14.5
									c5.9-2.1,11.4-1.4,17.2,1.7c5.5,3.1,9,7.6,10.7,13.5s0.7,12.1-3.1,18.3l-2.1,3.8c11.7-4.5,22.8-6.2,32.8-5.9
									c10.3,0.7,20.4,3.4,30,9c10,5.9,17.6,12.8,22.8,20.7c5.2,8.3,7.6,17.6,7.6,28.6c11.4-4.5,22.1-6.6,32.4-6.2
									c10,0.3,19.7,3.1,29.3,8.6c11,6.2,19.3,13.8,24.8,22.4c5.5,9,7.9,18.3,7.2,28.6c-0.7,9.3-5.5,21.7-14.1,37.3l-44.5,78.7
									c-4.8,8.6-10.3,13.8-16.6,15.9c-6.2,2.1-12.4,1.4-18.6-2.1c-6.2-3.4-10-8.3-11.4-14.8c-1.4-6.6,0-13.8,4.8-22.4l38.3-68
									c4.8-8.6,8.3-15.9,10.7-21.4c2.1-5.5,2.8-11,1.4-16.6s-5.2-10-11.7-13.8c-5.2-3.1-11.4-4.1-17.9-3.8
									c-6.6,0.3-12.8,2.8-18.3,6.6C2218.5,825.9,2210.2,837.3,2200.5,854.5z"/>
							</g>
						</g>
					</g>
				</g>
			</g>
		</g>
	</g>
</g>
</svg>
