<?xml version="1.0" encoding="utf-8"?>
<!-- Generator: Adobe Illustrator 24.2.0, SVG Export Plug-In . SVG Version: 6.00 Build 0)  -->
<svg version="1.1" id="Layer_1" xmlns="http://www.w3.org/2000/svg" xmlns:xlink="http://www.w3.org/1999/xlink" x="0px" y="0px"
	 viewBox="0 0 735 852" style="enable-background:new 0 0 735 852;" xml:space="preserve">
<style type="text/css">
	.st0{fill:#1A5B72;}
	.st1{fill:#0C2E3D;stroke:#0C2E3D;stroke-width:0.5;stroke-miterlimit:10;}
	.st2{fill:#FFFFFF;stroke:#0C2E3D;stroke-width:0.5;stroke-miterlimit:10;}
	.st3{fill:#8FDAF5;}
	.st4{display:none;}
	.st5{display:inline;fill:#FFFFFF;}
	.st6{display:inline;fill:#1A5B72;}
	.st7{fill:#FFFFFF;stroke:#FFFFFF;stroke-miterlimit:10;}
</style>
<g id="Layer_1_3_">
	<g id="Layer_1_2_">
		<g id="Layer_1_1_">
			<g id="background">
				<path class="st0" d="M18.2,627.4V224.1l51.6-29.8L367.5,22.5l0,0l296.7,171.3l52.6,30.3v403.3L367.5,829L18.2,627.4z"/>
				<path class="st1" d="M734.9,637.4V213.1l-29.3-16.9L427.8,35.8L367.5,1l-60.3,34.8L29.4,196.2L0.1,213.1v424.2l29.3,16.9
					l281.3,162.4l56.9,32.8l56.9-32.8l281.3-162.4L734.9,637.4z M29.4,621.5V231l50-28.9L367.5,35.8l0,0l287.2,165.8l50.9,29.4
					v390.5L367.5,816.7L29.4,621.5z"/>
			</g>
			<g id="design">
				<path class="st2" d="M367.5,94.7c-4.6,22.8-9.9,45.4-16.4,67.8c-13.5,47-37.2,90-58,134c-19.9,42.1-37.8,91.2-22.9,137.7
					c11.5,36,43.3,64.5,80.6,71c5.6,1,11.1,1.4,16.6,1.3c5.5,0.1,11-0.4,16.6-1.3c37.3-6.5,69.1-35.1,80.6-71
					c14.9-46.5-3-95.7-22.9-137.7c-20.8-43.9-44.5-87-58-134C377.4,140.2,372.1,117.5,367.5,94.7z"/>
			</g>
			<path class="st3" d="M436.4,345.8c4.2,7,19.8,34.8,12.6,70.3c-1.4,7-8.1,40-37.9,58.4c-10.3,6.4-20.2,9-26.9,10.3
				c10.9-7.5,30.7-23.4,43.4-50.6c1.8-3.8,10.1-21.9,11.8-47.4C440.8,369.8,438.6,355.6,436.4,345.8z"/>
		</g>
		<g id="text" class="st4">
			<path class="st5" d="M237.5,571.5c-1.9-1.9-13.5-13.2-27.6-10.9c-17.3,2.8-24.1,23.4-26.7,31.2c-1.4,4.3-11.9,36.3,5.9,48.8
				c10,7,25.6,5.5,39-2.6c-0.3,1.1-1.4,7.4,2.6,12c2.9,3.2,8,5.3,10.1,3.7c1.3-1.1,0.9-3.4,0.3-6.6c-0.8-5.6-0.5-11.4-1.5-16.9
				c-1.7-9.4,2.2-17.7,8.2-37.8c0-0.3,2.9-11.1,8.6-32.7c9.3-35.7,11.5-46.5,5.7-52.1c-2.1-1.9-5.6-3.8-7.4-2.8
				c-2.3,1.4-0.5,7-0.3,13.9c0.1,5.5-1.4,10.8-4.7,21C247.1,547.6,243.3,558.6,237.5,571.5z"/>
			<path class="st6" d="M236.8,582.8c-1.6-2.8-4.3-4.1-8.6-6.3c-4.1-2-8.6-4.3-13.9-3.7c-7.6,0.8-12.3,6.9-14.8,10.1
				c-6.8,8.6-7.1,18.3-7.1,22.3c-0.1,5-0.2,9.5,2.5,14.3c3,5.3,8.6,9.7,15.8,10.6c6.5,0.8,13.2-1.4,17.5-5.9
				c3.4-3.5,2.3-5.3,6.5-22.4C237.5,590.5,239.2,586.8,236.8,582.8z"/>
			<path class="st5" d="M285.5,599.3c-4.2,2.9-5,8.1-5.6,11.4c-1.8,10.4-3.9,20.6-5.6,30.9c-1.3,8-1.3,16.2-3.4,24
				c-1.1,4.1-2.5,8.3-0.4,10.5c1.9,1.9,5.8,1.7,8.4,0.1c4.4-3,2.5-9.8,2.9-20.2c0.3-9.1,3.2-18.6,8.8-37.7
				c3.6-12.1,6.2-18.5,3.6-20.6C292,596.1,287.8,597.5,285.5,599.3z"/>
			<path class="st5" d="M291.2,570.6c-3.7,2.3-4.1,8-1,11c2.4,2.4,6.7,2.7,9.5,0.2c2.5-2.3,2.9-6.1,1.3-8.7
				C298.9,569.8,294.3,568.6,291.2,570.6z"/>
			<path class="st5" d="M358,613c-4.3-3.5-10.7-8.9-18.1-7.4c-9.8,1.9-13.6,14.3-14.8,18.1c-0.9,2.9-5,16.2,1.6,23.9
				c7.2,8.2,20.6,2.8,24.7,10.7c2.4,4.6-0.5,10-0.8,10.7c-3.3,6-11.2,8.6-16.5,6.6c-5.4-2.1-5.9-8.5-9-8.2c-2.9,0.2-5.9,5.6-4.9,9.9
				c1.6,6.9,13.4,8.6,16.5,9c3.8,0.6,13,1.9,21.4-4.1c6-4.3,12-12.7,10.7-21.4c-1.6-11-14.1-17.6-18.1-19.7
				c-7.9-4.2-13.1-3.8-14.8-8.2c-1.7-4.4,1-10.8,4.9-12.3c0,0,2.2-0.9,14,4.1c8.6-2.2,9-3.3,9-3.3C364.8,618.6,359.7,614.3,358,613z
				"/>
			<path class="st5" d="M396.6,552.2c-2.4,0.9-1.9,7.1-1.4,14c2.5,30.8,4.7,39.8,0,43.3c-4.5,3.4-11.4-1.1-14,2.8
				c-1.6,2.5-0.6,7.1,2.1,9.1c3.7,2.7,8.2-1.5,11.9,0.7c3.2,1.9,3,7.1,2.8,17.5c-0.5,21.4-0.4,25.1,0,29.3c1.1,10.8,1.8,17.7,7,21
				c6.9,4.4,17.4-0.3,23.1-4.9c6.7-5.5,12.8-16.1,9.1-22.4c-2.5-4.2-9-6.1-11.2-4.2c-2.1,1.8,1.1,5.7-0.7,11.9c-1.2,4-4.5,9-8.4,9.1
				c-5,0.1-8.5-7.7-9.1-9.1c-3.5-7.8-0.2-11.4-0.7-25.1c-0.4-12.2-3.4-18.6,0-21c3.2-2.3,8.1,2,11.2-0.7c2.4-2.1,2.4-7.5,0-9.8
				c-3.1-2.9-7.9,1.1-11.2-1.4c-3-2.3-0.9-7.2-0.7-20.3c0.1-8.2-0.7-6.3-0.7-16.1c0-10.2,0.9-14.4-2.1-18.9
				C401.8,554.4,398.6,551.4,396.6,552.2z"/>
			<path class="st5" d="M448.2,594.7c-6.6,10,5.2,19.6,6.9,45.5c0.2,2.8,0.6,11.5,2.7,22.9c1.2,6.5,2.5,11.7,6.9,14.4
				c2.7,1.7,6.7,2.6,8,1.1c1.4-1.7-1.7-5.3-4.1-11.8c-1.2-3.4-1.2-4.8-2.7-17.4c-1.7-14.8-1.3-10.3-2.5-21.4
				c-0.5-5.4-1.3-12.3-2.5-21.4c-1.8-13.1-2.7-16.5-4.9-17.1C453.5,588.9,450.1,591.9,448.2,594.7z"/>
			<path class="st5" d="M444.6,565.7c-2.7,2-5.5,6.3-4.1,9.1c1.4,2.6,5.7,2.8,7.4,2.7c3.9,0,10.9-1.5,11.6-5.6
				c0.5-3.4-3.3-7.4-7.4-8.2C448.1,563.1,445.1,565.3,444.6,565.7z"/>
			<path class="st5" d="M469.4,541.3c6.8,11.4,11,24.8,19.5,51.6c6.8,21.6,10.2,32.4,11.9,39.7c2.8,12.1,4.3,22.2,11.5,25.2
				c4.4,1.8,10.4,0.9,11.6-1.7c1.3-3-3.8-7.5-7.6-11.9c-7.6-9-6.4-14.6-13.6-40c-7.7-26.9-9-20.8-13.6-40c-2.9-12-4-21.3-12.1-29
				c-4.7-4.4-11.5-8.2-13-6.7C462.5,530.1,466.7,536.7,469.4,541.3z"/>
			<path class="st5" d="M504.9,507.8c-2.5,2.1,3.4,11.9,12.1,30.7c1.8,3.9-1-2.1,15.7,37.6c5.4,13,12.8,25.3,16.9,38.7
				c2.8,9.5,4.5,18.3,10.3,19.8c3.5,0.9,8-0.8,9.3-3.7s-1-6.6-3.2-10.2c-2-3.3-4-5.2-5.1-6.5c-4.7-5.2-6-10.6-8-16.4
				c-3.2-9.5-3.2-5.7-14.3-32.3c-10.3-24.6-15.5-37-15.7-37.6c-0.7-3.3-2-10.5-7.8-15.8C511.7,509.3,506.7,506.3,504.9,507.8z"/>
		</g>
	</g>
	<g id="text_cuts" class="st4">
		<path class="st5" d="M143.2,578.1c0,22.5-15.4,36.1-35.6,36.1H96.8v-5.6h8.9c21.2,0,30.9-13.8,30.9-30.4c0-18-12.4-28.6-29.9-28.6
			h-9.9V544h10.9C129.8,544.2,143.2,558.6,143.2,578.1z"/>
		<polygon class="st5" points="195.4,563.6 195.4,614.3 189.3,614.3 189.3,557.4 		"/>
		<path class="st5" d="M298.7,595c0,9.7-7.4,18.4-24.5,19.2l-5.4-5.4c1,0.1,1.9,0.1,3,0.1c14.6,0,20.8-6.2,20.8-13.4
			c0-7.6-4-12.4-23-15.7c-18.5-3.1-23.8-8.8-23.8-18c0-10.6,9.6-17.1,22.7-17.6l5.5,5.5c-1.2-0.1-2.5-0.2-4-0.2
			c-10.7,0-18.1,3.8-18.1,11.7c0,6.4,2.7,10.7,19.4,13.4C294.8,578.5,298.7,585.9,298.7,595z"/>
		<polygon class="st5" points="398.6,544.2 398.6,549.8 370.7,549.8 370.7,598.2 364.5,591.9 364.5,549.8 336.7,549.8 336.7,544.2 
					"/>
		<polygon class="st5" points="446.1,563.6 446.1,614.3 440,614.3 440,557.4 		"/>
		<polygon class="st5" points="546.6,608.6 545.5,614.3 496.7,614.3 496.7,557.7 502.7,563.7 502.7,608.6 		"/>
		<polygon class="st5" points="638.3,608.6 637.2,614.3 588.4,614.3 588.4,557.3 594.4,563.3 594.4,608.6 		"/>
	</g>
</g>
<g id="text_1_">
	<path class="st7" d="M142.6,590.5c0,22.5-15.4,36.2-35.6,36.2H95v-5.6h10.1c21.2,0,30.9-13.8,30.9-30.4c0-18-12.5-28.6-29.9-28.6
		H95v-5.6h12.1C129.2,556.5,142.6,571,142.6,590.5z"/>
	<polygon class="st7" points="194.8,575.3 194.8,626.7 188.6,626.7 188.6,569.1 	"/>
	<path class="st7" d="M299.3,608.1c0,10.2-7.9,19.4-26.2,20l-5.7-5.7c1.2,0.1,2.5,0.2,3.9,0.2c15.3,0,21.7-6.4,21.7-14
		c0-8-4.1-13-24-16.4c-19.3-3.3-24.8-9.2-24.8-18.8c0-11.1,10.2-18.1,24.1-18.4l5.8,5.8c-1.4-0.1-3-0.2-4.7-0.2
		c-11.1,0-18.9,3.9-18.9,12.2c0,6.7,2.8,11.1,20.2,14C295.2,590.8,299.3,598.6,299.3,608.1z"/>
	<polygon class="st7" points="398,556.5 398,562.2 370.1,562.2 370.1,611.6 363.9,605.4 363.9,562.2 336.1,562.2 336.1,556.5 	"/>
	<polygon class="st7" points="445.5,575 445.5,626.7 439.4,626.7 439.4,568.9 	"/>
	<polygon class="st7" points="546,621 544.9,626.7 496,626.7 496,568.5 502,574.5 502,621 	"/>
	<polygon class="st7" points="637.7,621 636.6,626.7 587.8,626.7 587.8,570.3 593.8,576.3 593.8,621 	"/>
</g>
</svg>
