<svg xmlns="http://www.w3.org/2000/svg" xmlns:xlink="http://www.w3.org/1999/xlink" viewBox="0 0 5745.56 5327.8"><defs><style>.cls-1{fill:none;stroke:#4d4d4d;stroke-miterlimit:10;stroke-width:100px;}.cls-2{clip-path:url(#clip-path);}.cls-3{fill:#00b700;}.cls-3,.cls-32,.cls-33,.cls-34,.cls-35,.cls-37,.cls-6{opacity:0.8;}.cls-4{fill:#464646;}.cls-5{fill:#999;}.cls-7{fill:#00a1ad;}.cls-15,.cls-31,.cls-36,.cls-7{opacity:0.7;}.cls-8{fill:#3d3dc4;}.cls-9{fill:#023dff;}.cls-10{fill:#02ffd8;}.cls-11{fill:#01c7ff;}.cls-12{fill:#0287ff;}.cls-13{fill:#0187ff;}.cls-14{fill:#0086ff;}.cls-16{fill:#6d00a0;}.cls-17{fill:#9e009e;}.cls-18{opacity:0.6;}.cls-19{fill:#009e40;}.cls-20{fill:#568700;}.cls-21{fill:#ffc200;}.cls-22{fill:#f97f12;}.cls-23{fill:#ff9806;}.cls-24{fill:#ff6d1a;}.cls-25{fill:#ff995b;}.cls-26{fill:#ffcd23;}.cls-27{fill:#c51d28;}.cls-28{fill:#ca0274;}.cls-29{fill:#ff6203;}.cls-30{fill:#fd5f01;}.cls-31{fill:#f7931e;}.cls-32{fill:#869900;}.cls-33{fill:#b500bf;}.cls-34{fill:#00a1b2;}.cls-35{fill:#af008e;}.cls-36{fill:#ffb600;}.cls-37{fill:#adba00;}</style><clipPath id="clip-path" transform="translate(1091.13 313.72)"><polygon class="cls-1" points="3699.48 3222.43 3699.48 1114.5 1873.95 60.53 48.43 1114.5 48.43 3222.43 1873.95 4276.4 3699.48 3222.43"/></clipPath></defs><g id="mask"><g class="cls-2"><polygon class="cls-3" points="2437.8 2928.25 2399.7 2994.24 2323.5 2994.24 2285.4 2928.25 2323.5 2862.26 2399.7 2862.26 2437.8 2928.25"/><rect x="745.56" width="5000" height="5000"/><path class="cls-4" d="M4637.33,1788.85v500c-6.36,3-13,5.51-19,9q-823.06,475.08-1646.06,950.3L776.9,4515.62Q637.26,4596.23,497.72,4677c-6.58,3.81-14.72,5.79-18.5,13.53H-319.93v-42.73c12.55-1.61,22-9.73,32.39-15.71q534.75-308.52,1069.38-617.3l1419-819.24,1683.56-972Q4260.87,2006.23,4637.33,1788.85Z" transform="translate(1091.13 313.72)"/><path class="cls-4" d="M4637.33,2340.13v303.42c-6.37,2.89-13,5.27-19.07,8.74q-186.89,107.7-373.62,215.62Q3343.05,3388.46,2441.47,3909,1775.68,4293.4,1109.9,4677.8c-6.74,3.89-13.06,8.49-19.57,12.75H569c5.36-9.29,15.55-12,23.94-16.82Q1592.7,4096.23,2592.65,3519q1013.78-585.3,2027.59-1170.56C4625.72,2345.3,4631.62,2342.89,4637.33,2340.13Z" transform="translate(1091.13 313.72)"/><path class="cls-4" d="M-319.93,3763.2c7.69-3.6,15.7-6.66,23-10.89q531-306.43,1061.94-613,557.78-322,1115.57-644.06,795.51-459.29,1591-918.58,580-334.86,1160-669.71c1.82-1.06,3.83-1.8,5.75-2.69V1135c-7,3.2-14.31,5.85-20.94,9.67q-240.55,138.67-481,277.58L2587.18,2316.12,1042.67,3207.86-180,3913.77Q-239.19,3948-298.43,3982c-6.64,3.8-12.75,9.59-21.5,7.67Z" transform="translate(1091.13 313.72)"/><path class="cls-4" d="M4637.33,647.82q-856.57,494.49-1713.15,989Q2160.1,2077.93,1396,2519.1q-841.77,486-1683.6,971.89c-10.38,6-19.9,14-32.37,15.8V3288.85c10.4-1,18.31-7.59,26.85-12.52Q-22,3120,249,2963.44l1522.58-879.1,2172-1254q327.46-189.06,654.9-378.16,19.4-11.21,38.84-22.36Z" transform="translate(1091.13 313.72)"/><path class="cls-4" d="M4637.33,1570.9v136.75c-7.2,4.58-14.24,9.43-21.61,13.69q-221.9,128.25-443.84,256.37l-2260.1,1304.9L-109.75,4449.74q-93.41,53.92-186.86,107.74c-7.23,4.15-13.83,10.5-23.32,9.14V4429.87c9.4.94,16.07-5.2,23.32-9.39q518.1-299,1036.1-598.17,976.88-564,1953.78-1128,960.24-554.4,1920.45-1108.82C4621.73,1580.86,4629.47,1575.77,4637.33,1570.9Z" transform="translate(1091.13 313.72)"/><path class="cls-4" d="M4637.33,3139.27c-7.23,4.54-14.31,9.33-21.7,13.59q-939.6,542.57-1879.24,1085-380.11,219.45-760.14,439c-6.57,3.79-14.75,5.75-18.41,13.61H1586.05c1.68-8.92,9.25-12.2,15.88-16.1,22.71-13.37,45.54-26.51,68.36-39.68q1380.95-797.3,2761.91-1594.59,102.65-59.26,205.13-118.86Z" transform="translate(1091.13 313.72)"/><path class="cls-4" d="M-319.93,2378.59c8.82-4.6,17.83-8.88,26.44-13.85Q710.08,1785.41,1713.6,1206,2854.93,547,3996.29-111.93q168.33-97.18,336.77-194.19c9.2.31,18.4.87,27.59.89,42.51.1,85,0,127.53.12,8.36,0,17.12-1.6,24.71,3.84Q4331.62-196.58,4150.35-91.9,2855.47,655.73,1560.59,1403.35,792.91,1846.57,25.2,2289.75q-160.93,92.91-321.89,185.8c-7.29,4.2-14,10.1-23.24,9.88Z" transform="translate(1091.13 313.72)"/><path class="cls-4" d="M4637.33,1263.2q-537.45,310.24-1074.89,620.48-671.58,387.71-1343.12,775.48l-1591,918.61q-462.51,267-925.08,534c-7.29,4.21-15.4,7-23.13,10.45v-89.75c10.33,1.54,17.37-5.57,25.17-10.07Q4,3850.09,302.68,3677.53q836.94-483.18,1673.89-966.33,714.85-412.71,1429.67-825.47Q4010.13,1537.07,4614,1188.39c8-4.62,15.57-9.94,23.35-14.93Z" transform="translate(1091.13 313.72)"/><path class="cls-4" d="M-319.93,2553.8c7.1,2.65,12.35-1.78,17.79-4.89,23.49-13.43,46.87-27,70.3-40.56Q1288.7,1630.49,2809.22,752.63q903.62-521.7,1807.25-1043.38c6.68-3.85,13.89-6.79,20.86-10.15v47c-5.68,2.86-11.52,5.45-17,8.62Q3569.49,361.38,2518.7,968.08,1545.61,1529.91,572.48,2091.7q-432.9,249.93-865.83,499.82c-8.6,5-17.71,9.06-26.58,13.56Z" transform="translate(1091.13 313.72)"/><path class="cls-4" d="M4637.33,117.9Q3405.22,829.28,2173.1,1540.63q-1222,705.48-2444,1410.92c-11.1,6.41-22.07,13.06-33.35,19.15-4.92,2.65-10.46,4.15-15.72,6.18v-47c7.68-3.65,15.66-6.79,23-11q510.67-294.67,1021.24-589.53Q1602.14,1822.49,2480,1315.67q1072.08-619,2144.2-1237.86c4.29-2.47,8.77-4.62,13.16-6.91Z" transform="translate(1091.13 313.72)"/><path class="cls-4" d="M3736-300.64Q3531.6-182.56,3327.23-64.49q-1515,874.72-3030,1749.42-296,170.88-592,341.67c-7.8,4.5-14.84,11.59-25.16,10.11v-47c9.3.5,16-5.48,23.28-9.67q149-85.83,297.89-171.92L3146.34-7.67q258.07-149,516.18-298c17.74.15,35.48.23,53.22.5C3722.74-305,3730.08-306,3736-300.64Z" transform="translate(1091.13 313.72)"/><path class="cls-4" d="M4637.33,1459.79c-7.24,4.53-14.33,9.3-21.72,13.56Q3715.52,1993.07,2815.4,2512.72L980,3572.39q-637.38,368-1274.81,735.92c-7.85,4.53-15,11.32-25.16,10.45v-21.37c7.6-3.87,15.4-7.4,22.77-11.65q1308.93-755.61,2617.81-1511.32Q3469.5,2111.11,4618.37,1447.83c6.1-3.52,12.63-6.29,19-9.41Z" transform="translate(1091.13 313.72)"/><path class="cls-4" d="M4637.33,2827.31c-7.75,5-15.28,10.42-23.26,15q-589,340.18-1178.09,680.25Q2434.48,4100.8,1433,4679c-6.13,3.54-11.93,7.67-17.88,11.52h-38.46c3.8-7.72,11.92-9.73,18.5-13.54q153.38-88.83,306.92-177.37L4045.24,3146.85q288.49-166.56,577-333.09c4.9-2.83,10-5.22,15.07-7.82Z" transform="translate(1091.13 313.72)"/><path class="cls-5" d="M4521.94-309.45l-9,8.18c-7.59-5.44-16.35-3.81-24.71-3.84-42.51-.15-85,0-127.53-.12-9.19,0-18.39-.58-27.59-.89a6.51,6.51,0,0,1,.85-3.33Z" transform="translate(1091.13 313.72)"/><path class="cls-5" d="M3736-300.64c-5.89-5.32-13.23-4.38-20.23-4.49-17.74-.27-35.48-.35-53.22-.5a35.2,35.2,0,0,1,.45-3.82h81.2C3743.2-304.87,3741.08-301.36,3736-300.64Z" transform="translate(1091.13 313.72)"/><g class="cls-6"><polygon class="cls-7" points="4482.93 2418.86 44.98 4981.11 0 4903.19 305.63 4726.73 1383.28 4104.55 4437.94 2340.95 4482.93 2418.86"/><polygon class="cls-8" points="4575.5 2418.44 4484.32 2419.97 4437.41 2341.78 4481.67 2262.06 4572.84 2260.52 4619.75 2338.71 4575.5 2418.44"/></g><path class="cls-9" d="M2409.85,2438c14.36,16.06,19.56,36.34,23.62,56.38,5,24.89-12.52,43.5-38,41.07-10.55-1-19.66.93-28.84,5-48.29,21.2-95.53,44.51-139.15,74.31-50,34.17-97.36,71.7-140.62,114.39-56.24,55.5-112.72,110.78-170.3,164.89-70,65.83-141.45,130.36-219.31,186.93-47.16,34.27-96.74,65.23-145.45,97.34-15.44,10.17-31.67,19.13-47.4,28.88-61.83,38.31-126.42,71.25-193.22,100-36,15.45-71.39,32.22-107.81,46.48-45.69,17.89-91.79,34.92-138.36,50.37-125.14,41.52-246.36,92.62-366.23,147.17-54.45,24.78-107,53.21-159.6,81.62-6.26,3.38-12.53,6.74-18.78,10.16-17.47,9.58-34.19,7.48-50.29-3.32-11.45-7.67-19.89-18.17-27.48-29.49-14.82-22.13-24.85-46.27-31.2-72.09-10.13-41.2-14.58-82.68-7.08-124.83,1.12-6.3,2.55-12.56,4.28-18.71,7.68-27.24,22.26-48.67,48.81-61.31,27.65-13.16,55.34-25.95,84.3-36.11,77.27-27.1,156.33-48.26,234.73-71.66,113.16-33.8,226.16-68.22,336.45-110.77,67.76-26.15,134.29-55.23,198.64-88.86,34-17.77,66.5-38.53,99-59.08,74.65-47.29,146.58-98.4,213.17-156.66,26.77-23.42,53.26-47.29,78.45-72.39,21.64-21.57,42.12-44.47,61.56-68.06,38.47-46.69,75.68-94.43,113.78-141.43,34.52-42.57,69.2-85,104.51-126.93,12.32-14.63,26.24-28,40.28-41.06,13-12,28.57-18.35,46.84-16.67,3.38.31,6.92-1.13,10.39-1.77,5.62,5.31,10.56,11.72,17,15.73a273.62,273.62,0,0,0,51.4,25.13c47.27,17.13,95.44,31.32,145.19,39.49,13.91,2.28,28,3.48,41.87,6,15.53,2.87,30.81,3.76,46.22-.51C2393,2424.25,2403.67,2425.16,2409.85,2438Z" transform="translate(1091.13 313.72)"/><path class="cls-9" d="M2020.46,2247.87c-9.9,26.15-31.54,37.69-56.56,43.91-20,5-40.36,8.59-60.69,12q-62.1,10.5-124.37,20.1c-54.18,8.34-108.32,17-162.66,24.18-102.36,13.48-200.2,43.21-295.83,80.89-87.53,34.48-172.45,74.59-253.71,122.12-23.33,13.64-46.34,27.93-68.7,43.1-95.62,64.9-184.54,138.13-270.72,215.11-83.94,75-164.35,153.69-247.16,229.85-36.7,33.76-74.23,66.58-115.42,94.89-8.79,6-17.94,11.58-27.07,17.1-11.28,6.82-23.64,9.45-36.79,9.12a151.68,151.68,0,0,1-58-13c-50.41-22.3-93.46-54.35-126.43-98.88a201.29,201.29,0,0,1-20.64-34.79A107.35,107.35,0,0,1,87,2983c-2.69-20,4.27-36.32,22.24-47.1,17.7-10.62,35.19-21.61,52.95-32.13,72.4-42.88,140.54-92,208.44-141.5,60.44-44.08,119.56-89.81,176.3-138.59,21.05-18.11,42.47-35.79,63.43-54a2268.23,2268.23,0,0,1,199.32-154.06c34.58-23.88,68.34-49,104.92-69.68,47.69-27,96-52.85,144.24-78.84,16.91-9.11,34.47-17,51.61-25.7,59.75-30.38,121.62-55.9,184.92-77.63,74.7-25.65,149.76-50.3,226.1-70.84,62.54-16.82,125.26-33.13,187.23-51.87,71.65-21.67,141.57-48.09,205.31-88.42,24.64-15.6,49.21-31.33,73.5-47.47,11.26-7.49,20.34-16.62,26.41-29.73,9.11-19.69,30.18-24.78,48.74-12.22,19.06,12.89,34.63,29.48,42.86,51.72,4.87,8,5.95,15.42-1.16,23.15-16.59,18-26.54,40.25-35.53,62.45-14.57,36-27.53,72.68-35.61,110.81-4.67,22.06-10.49,44.08-12.53,66.42C2018.55,2201,2020.36,2224.5,2020.46,2247.87Z" transform="translate(1091.13 313.72)"/><path class="cls-10" d="M2341.26,1790c-2.33-6-5-11.83-6.94-17.9-2.71-8.25-.59-15.5,5.92-21.23a111.59,111.59,0,0,1,10.17-7.78q37.73-26.16,75.53-52.21,54.57-37.44,109.24-74.74c1.17-.8,2.32-1.64,3.49-2.45,14-9.73,27.49-20.49,42.29-28.87,14.29-8.08,31.36-8.09,47.17-11.68q209.17-47.5,418.54-94.2,122.86-27.59,245.77-55c8.92-2,18.07-3,27.11-4.38,5.21,7.53,10.78,14.83,15.55,22.63,14.11,23.08,28,46.31,41.8,69.55,7,11.78,7,12-5.44,19.17-21.6,12.4-43.35,24.54-65,36.84-11.76,6.67-23.57,13.26-35.16,20.22-6.49,3.91-12.69,5.51-20.13,2.42-7.86-3.26-16.14-5.53-24.2-8.33-9.66-3.36-19.27-5.22-29-.15-6.7,3.5-13.79,3.08-20.86,1.7-17.88-3.5-33.7-.26-47,13-2.17,2.17-6.28,3.29-9.5,3.32-8,.09-14.1,2.78-16.41,10.77-2.55,8.82-8.07,12.61-17.13,12.87a16.43,16.43,0,0,0-9.63,4.08c-9.51,8.51-18.67,17.41-27.76,26.37-7.52,7.42-10.69,16.4-9.77,27.13.71,8.36,1.42,16.51-1.9,25.1-5.36,13.87-13.87,22.78-27.13,30.24-63.88,35.94-127,73.26-190.44,110-33.86,19.59-67.86,38.92-101.78,58.37-3-2.78-6.5-5.15-8.84-8.39a321.81,321.81,0,0,0-78.62-76.75c-35.41-24.36-74.77-39.38-117.07-47.62-27.51-5.36-55.13-5.36-82.48-3.19-23.74,1.88-47.22,8.09-69.94,16.17C2355.12,1787.38,2348.09,1788.38,2341.26,1790Z" transform="translate(1091.13 313.72)"/><path class="cls-10" d="M2724.41,1915.38q81.63-46.55,163.26-93.09c45.77-26.08,91.78-51.76,137.23-78.41,15.43-9.05,29.74-5,44.62-.48a14.83,14.83,0,0,1,5.42,3.37c14,12.66,29.89,11.1,46.23,6.38,6.82-2,13.74-3.69,20.4-6.1,3.89-1.41,8.74-3.06,10.77-6.17,6.43-9.88,14.79-12,25.71-9.84a11.54,11.54,0,0,0,12.62-6.26c3.16-6.27,8.35-8.51,14.61-11,12.81-5.16,23.39-13.91,27.85-27.61,3.19-9.81,7.45-18.21,16.4-24,6.34-4.13,8.68-11,10-18.21,1.62-9.11,3.55-18.17,5.19-27.28,1.47-8.17,5.35-14,13-18.29,34.13-19.2,68-38.89,101.94-58.38,1.85-1.06,3.82-2.68,5.72-2.67a14.31,14.31,0,0,1,7.39,2.32c1.63,1.07,2.5,3.38,3.55,5.23q24.22,42.73,48.38,85.5c6.32,11.24,6.26,11.44-1.84,20.15q-64.72,69.63-129.56,139.17-58.22,62.55-116.43,125.12c-48.58,52.06-97.41,103.89-145.79,156.14-35.32,38.13-70,76.84-105.22,115.06a44.22,44.22,0,0,1-13.72,9.58c-40.64,19-81.51,37.44-122.12,56.47-29.65,13.9-58.94,28.55-88.51,42.6-15.43,7.33-31,14.45-46.73,21-14.12,5.89-19.46,4.15-29.73-7.69q-4.87-5.64-9.72-11.31l27-23.78c28.14-24.74,49.57-54.95,65-88.47,17.22-37.32,30-76.47,27.87-118.77-.63-12.75-.12-25.56-.25-38.34,0-5,.2-10-.79-14.85-5.86-28.43-13.34-56.38-25.29-83C2726.81,1925,2725.85,1920.08,2724.41,1915.38Z" transform="translate(1091.13 313.72)"/><path class="cls-11" d="M2724.41,1915.38c1.44,4.7,2.4,9.61,4.4,14.06,12,26.6,19.43,54.55,25.29,83,1,4.8.74,9.89.79,14.85.13,12.78-.38,25.59.25,38.34,2.13,42.3-10.65,81.45-27.87,118.77-15.47,33.52-36.9,63.73-65,88.47l-27,23.78c-4.9,2.71-10,5.15-14.68,8.17-37.41,24-78.2,38.71-122.16,44.77-4.23.18-8.82-.64-12.64.72-12.43,4.44-25.23,3.51-37.83,2.85-14.74-.76-29.39-3.13-44.06-4.88-1.38-.16-2.65-1-4-1.3-29.37-5.73-56.54-17.17-83.13-30.65-35.88-18.17-66.82-41.88-90.94-74.39-4.95-6.67-12.17-11.65-18.35-17.41-1.53-11.93-7.56-21.35-16.3-29.26-3.08-10.12-5.53-20.49-9.35-30.32-10.12-26-17.38-52.47-16.81-80.68.3-14.94-.14-29.9.13-44.85.45-25.8,6-50.81,15.46-74.56,7.56-19,17.71-37.11,27.31-55.29,4.95-9.35,11.22-18,16.89-27,5.25-5.7,10.52-11.38,15.73-17.11,24-26.35,51.5-48,83.42-64,6.15-3.1,11.59-7.6,17.36-11.45,6.83-1.6,13.86-2.6,20.43-4.93,22.72-8.08,46.2-14.29,69.94-16.17,27.35-2.17,55-2.17,82.48,3.19,42.3,8.24,81.66,23.26,117.07,47.62a321.81,321.81,0,0,1,78.62,76.75c2.34,3.24,5.87,5.61,8.84,8.39C2717.64,1909.94,2719.64,1913.42,2724.41,1915.38Zm-260,354.18c12.57-1.84,25.2-3.41,37.72-5.56,53.18-9.12,95.22-37.27,127.1-79.43,27.74-36.66,40.19-79.55,39.88-125.68-.06-8.4-3.2-16.74-3.48-25.16-.69-20.43-8-39-16.25-57a191.74,191.74,0,0,0-35.5-52.84c-20.88-22-45.25-38.2-73.4-49.75-23.39-9.6-47.78-12.88-72.32-16.1-11.37-1.49-22.49,2.23-33.71,3.39-45.94,4.73-83.64,26.44-117,56.23-23.72,21.16-38.91,48.58-49.61,78.39-8.69,24.24-14.59,49.34-12.37,75,2,23.15,6.51,45.93,15.25,68.12,13.19,33.52,34,61.05,61.39,83.09C2370.32,2253.09,2414.61,2268.91,2464.44,2269.56Z" transform="translate(1091.13 313.72)"/><path class="cls-12" d="M2224.75,1882.58c-5.67,9-11.94,17.62-16.89,27-9.6,18.18-19.75,36.24-27.31,55.29-9.42,23.75-15,48.76-15.46,74.56-.27,14.95.17,29.91-.13,44.85-.57,28.21,6.69,54.68,16.81,80.68,3.82,9.83,6.27,20.2,9.35,30.32-23.21,13.76-46.46,27.46-69.62,41.32a38.89,38.89,0,0,1-18.08,5.44c-27.67,1.72-55.31,3.87-83,5.86-.1-23.37-1.91-46.9.21-70.07,2-22.34,7.86-44.36,12.53-66.42,8.08-38.13,21-74.82,35.61-110.81,9-22.2,18.94-44.41,35.53-62.45,7.11-7.73,6-15.18,1.16-23.15,6.3.94,10.67-2.88,15.28-6.14,15-10.63,29.92-21.45,45.17-31.74,7-4.72,14.61-8.58,22.13-12.49,7.79-4.06,15.27-2.63,21.66,3C2215,1872.25,2219.77,1877.56,2224.75,1882.58Z" transform="translate(1091.13 313.72)"/><path class="cls-13" d="M2207.42,2224.51c6.18,5.76,13.4,10.74,18.35,17.41,24.12,32.51,55.06,56.22,90.94,74.39,26.59,13.48,53.76,24.92,83.13,30.65,1.38.27,2.65,1.14,4,1.3,14.67,1.75,29.32,4.12,44.06,4.88,12.6.66,25.4,1.59,37.83-2.85,3.82-1.36,8.41-.54,12.63-.72,1.49,6.85,3.18,13.67,4.42,20.56,1.81,10-1.14,18.38-10.47,23.23-15.62,8.13-31.41,15.94-47.25,23.63-9.5,4.61-19.39,8.44-28.77,13.28-2.75,1.41-4.33,5.08-6.46,7.7-6.19-12.81-16.83-13.72-28.72-10.42-15.41,4.27-30.69,3.38-46.22.51-13.86-2.56-28-3.76-41.87-6-49.75-8.17-97.92-22.36-145.19-39.49a273.62,273.62,0,0,1-51.4-25.13c-6.43-4-11.37-10.42-17-15.73,9.75-14.74,20.48-28.94,29-44.35,12.58-22.64,30.33-38.4,53.9-48.87C2177.91,2241.58,2192.45,2232.56,2207.42,2224.51Z" transform="translate(1091.13 313.72)"/><path class="cls-14" d="M2464.44,2269.56c-49.83-.65-94.12-16.47-132.34-47.24-27.38-22-48.2-49.57-61.39-83.09-8.74-22.19-13.25-45-15.25-68.12-2.22-25.68,3.68-50.78,12.37-75,10.7-29.81,25.89-57.23,49.61-78.39,33.4-29.79,71.1-51.5,117-56.23,11.22-1.16,22.34-4.88,33.71-3.39,24.54,3.22,48.93,6.5,72.32,16.1,28.15,11.55,52.52,27.74,73.4,49.75a191.74,191.74,0,0,1,35.5,52.84c8.2,18,15.56,36.53,16.25,57,.28,8.42,3.42,16.76,3.48,25.16.31,46.13-12.14,89-39.88,125.68-31.88,42.16-73.92,70.31-127.1,79.43C2489.64,2266.15,2477,2267.72,2464.44,2269.56Z" transform="translate(1091.13 313.72)"/><g class="cls-15"><rect class="cls-16" x="-939.37" y="1964.5" width="2079.85" height="147.37" transform="translate(85.51 637.06) rotate(-30)"/><polygon class="cls-17" points="2357.2 1777.98 2276.38 1905.64 2125.41 1899.48 2055.26 1765.65 2136.08 1637.99 2287.06 1644.15 2357.2 1777.98"/></g><g class="cls-18"><rect class="cls-19" x="-693.71" y="3699.35" width="3088.22" height="116.38" transform="translate(-673.7 1242.33) rotate(-30)"/><polygon class="cls-20" points="3499.73 3256.97 3432.76 3362.76 3307.65 3357.65 3249.52 3246.76 3316.49 3140.96 3441.6 3146.07 3499.73 3256.97"/></g><g class="cls-18"><polygon class="cls-21" points="4562.78 2882.98 282.9 5327.8 251.6 5274.15 4531.48 2829.33 4562.78 2882.98"/><polygon class="cls-22" points="4652.06 2882.57 4564.13 2884.04 4518.89 2809.43 4561.57 2733.36 4649.5 2731.9 4694.74 2806.5 4652.06 2882.57"/></g><path class="cls-23" d="M2526.09,3455.34c-55.44,19.3-53.39,19.3-53.37,78.78,0,37-6.47,74.16-12.42,110.86-.81,5-16.15,11.83-23.71,10.71-23.05-3.41-45.32-12.25-68.38-15.4-38.89-5.3-68.21,7.67-95.54,39.87C2050.16,3942.36,1791,4158,1470.1,4290.33c-58.77,24.24-124.72,31.17-187.48,45.55-5.77,1.33-13.5.52-18.54-2.38-43.46-25-85.45-113.74-78.51-164.42,4.84-35.3,22.16-49.15,57.73-52.63,391.24-38.23,686.56-225.49,882.74-567.76,6.55-11.42,26.9-17.21,42-20.9,18.4-4.5,29.56-10.68,40.81-28.88,16.46-26.65,43.63-46.59,65.54-70,4.49-4.81,5.85-12.53,8.66-18.92-6.38-.36-13-2-19.08-.89-36.94,6.61-73.83,13.54-110.56,21.18-5.71,1.19-12.26,5.39-15.52,10.17-21.94,32.21-50.66,38.83-89.68,38.13-231.69-4.12-437.57,75-626.66,203.61-111.9,76.1-207,168.65-277.52,285.35-14.19,23.48-38.21,22-61,14.71-50-16-109.74-99.82-108.91-152.61.1-6.45,4.5-13.46,8.44-19.15,81.36-117.53,196.28-195.33,318.33-262.94,238.45-132.1,491.8-222.69,761.57-266.35,17.48-2.83,38.42-15.68,47.8-30.26,16.28-25.34,30.68-54.83,35-84.17,4.67-32,19-33.19,40.27-22.89,38.76,18.77,78.15,37.41,113.5,61.62,20.65,14.14,31.59,14.44,45.58-4.59,5.12-7,12.66-12.15,19.09-18.14-.13,7.52-.85,15.08-.3,22.55,2.72,36.53-.78,75.13,10,109.13C2396.91,3388.35,2452,3433.44,2526.09,3455.34Z" transform="translate(1091.13 313.72)"/><path class="cls-24" d="M2587.92,3041.14c57.51-42.17,117.1-78.9,185.36-103.65,243-88.12,484.58-179.89,726.72-270.27,4.81-1.8,10-5.37,14.48-4.68,8.2,1.27,16,5.1,24,7.86-4.05,5.54-6.88,13.18-12.32,16.31q-370.38,213.55-741,426.65c-9.68,5.59-17,15.3-25.39,23.08,11.29-3.1,23.85-4,33.68-9.62q367.93-211.2,735.53-423c7-4,16.91-3.06,25.47-4.42-3.47,9.76-4,22.93-10.86,28.74-55.37,47.16-111.9,93-168.11,139.14-158.4,130.14-315.47,262-476.15,389.23-41.71,33-94.71,51.82-142.53,77.16-.51-5.92-2.75-12.3-1.3-17.69,31.94-118.68-35.91-235.16-154.83-265.76C2595.91,3049,2592.13,3044.25,2587.92,3041.14Z" transform="translate(1091.13 313.72)"/><path class="cls-25" d="M2587.92,3041.14c4.21,3.11,8,7.89,12.69,9.1,118.92,30.6,186.77,147.08,154.83,265.76-1.45,5.39.79,11.77,1.31,17.69-4.47,4.67-10.15,8.67-13.23,14.13-48.07,85.4-122.46,117.17-217.43,107.52-74.1-21.9-129.18-67-152.71-140.94-10.82-34-7.32-72.6-10-109.13-.55-7.47.17-15,.3-22.55,33.12-68.58,81-119.91,159.46-134.35C2544.43,3044.45,2566.3,3043.47,2587.92,3041.14Zm-23.31,62c-82.79-.06-151.92,66.91-152.42,147.65-.51,82.95,67.91,152.31,150.45,152.51,83.83.2,153-67.28,153.27-149.65C2716.25,3169.92,2649.19,3103.22,2564.61,3103.17Z" transform="translate(1091.13 313.72)"/><path class="cls-26" d="M2564.61,3103.17c84.58,0,151.64,66.75,151.3,150.51-.32,82.37-69.44,149.85-153.27,149.65-82.54-.2-151-69.56-150.45-152.51C2412.69,3170.08,2481.82,3103.11,2564.61,3103.17Z" transform="translate(1091.13 313.72)"/><path class="cls-27" d="M1519.83,1992.09c-2.94,1.93-5.72,4.19-8.85,5.72-115.55,56.36-199.07,144.45-256.33,258.58-2.55,5.07-5.19,10.1-7.79,15.15-6.58-2.41-13.41-4.29-19.68-7.32-23-11.13-45.86-22.77-68.88-34-24.27-11.8-48.66-23.37-73-34.94-5.45-2.58-9.61-6-10.56-12.33,3.32-7,6.4-14.16,10-21,35.4-67.47,61.07-138.58,79.38-212.42.83-3.35.44-7,.62-10.51,1.54-3.08,3.74-6,4.54-9.24,7.22-29.52,13.81-59.2,21.36-88.64a618.29,618.29,0,0,1,42.28-115.48c18.49-38.35,38.27-75.94,62.33-111.18,3-4.45,4.32-10.09,6.42-15.18,15.4-17.61,31-35.06,46.17-52.86,66.36-77.83,144.44-141,235.37-188A944.36,944.36,0,0,1,1916.23,1258c95.7-10.5,190.37-6.35,283.74,18.28,13,3.45,25.82,7.9,38.69,12,2.6.83,5,2.21,9.88,4.39-4.15,3.52-6.71,6.41-9.87,8.28-43.48,25.69-87.12,51.13-130.54,76.93-7.88,4.68-15.11,7.08-23.94,2.5-7.73-4-14.79-1.09-22.07,3a117.51,117.51,0,0,1-23.37,9.51c-14.45,4.41-16.86,6.85-17.93,22.26-.29,4.19,0,8.43,0,13.67-22.46,13.2-44.43,26.17-66.47,39-8.24,4.8-17.14,1.92-25-.16-14.4-3.81-27.88-5.37-40.92,3.47a7.45,7.45,0,0,1-4.05,1.21c-20.27-.3-37,7.49-52.32,20.53-5,4.22-13,5.37-19.82,6.74-9.9,2-19.12,5-27.59,10.71-14.12,9.56-28.51,18.74-42.92,27.86-17.73,11.21-25.55,31.47-19,51.49,3.09,9.39,7.36,18.39,11.1,27.57-12.09,7-25.76,11.73-34.72,23.85,1.55,3.11,2.65,5.7,4.07,8.1,26.72,45.28,53.19,90.7,80.35,135.72,11.68,19.36,3.62,32.37-8.49,40.26-6,3.88-12.31,7.12-18.24,11Q1657,1901.8,1557.36,1967.5c-11.19,7.37-22.19,15-33.28,22.56l.49-.17Zm104.59-366c-24-2.48-44.46,15-47.57,44.37-2.45,23.2,21.58,45.39,46.76,45.63,24.44.24,44.72-19.82,45.73-44C1670.26,1649.94,1651,1623.37,1624.42,1626.13Z" transform="translate(1091.13 313.72)"/><path class="cls-28" d="M1074.69,2183c1,6.32,5.11,9.75,10.56,12.33,24.39,11.57,48.78,23.14,73,34.94,23,11.2,45.83,22.84,68.88,34,6.27,3,13.1,4.91,19.68,7.32,6.53,4.16,12.8,8.8,19.64,12.37,13.81,7.19,27.93,13.8,40.86,20.14,4.25,22.09,7.93,93.59,5.78,110.84-13.36,6.79-27.05,4.2-40.57-.66-7.82-2.81-12.84-8.88-15.48-16.67-2.28-6.73-4.09-13.62-6.11-20.44-1.8-6.08-2.88-12.57-10.5-17-2.78,1.65-6.94,3-9.34,5.83-3.63,4.28-6.28,9.47-8.92,14.5-33.64,63.95-75.38,122.39-121.89,177.45C954,2731.08,780.11,2869,574.43,2965.67c-69.81,32.83-142.3,58.08-218.16,73-16.75,3.28-33.86,4.73-50.58,8.11-9.86,2-16.22-1.6-22.45-8.38-22-23.94-37.6-51.77-49.93-81.55a326.68,326.68,0,0,1-23.8-99.28c-1.62-20,.1-39.54,5.71-56.49,34.9-8,67.82-14.08,99.84-23.28,82-23.59,157.79-61.26,230.26-105.73,137.06-84.11,256.84-188.65,363.19-308.9a1555.79,1555.79,0,0,0,127.83-165.6c2-3,4-5.91,5.9-8.91,4.48-7,10.63-9.38,18.28-6C1065.36,2184.82,1069.9,2185.79,1074.69,2183Z" transform="translate(1091.13 313.72)"/><path class="cls-28" d="M904.75,1903c-1.66,6.83-3.31,13.66-5.34,22-7.88,1.25-15.4,3-23,3.57-163.67,13.28-321.42,51.65-473.94,112-103.64,41-202.09,91.76-292.38,157.56-48.48,35.33-93.53,74.49-132.16,120.62-8.18,9.77-15.81,20-24.45,31-5.39-1.12-11.06-1.56-16.14-3.53-9.26-3.59-18.68-7.24-27.15-12.33q-87.74-52.77-128.8-146.73c-1.7-3.91-2.83-8.06-4.39-12-3.69-9.42-1.9-17.2,4.33-25.54,32.9-44.13,70.16-84.18,111.07-120.88,94-84.33,200-150.5,313.61-204.68,129.79-61.88,265.34-106.11,407.13-130.93,63.26-11.07,126.81-17.73,191.1-16.06,6.4.17,12.9.52,19.19-.36,4.5-.62,8.73-3.15,15.25-5.67-3.86-6.21-6.23-11.15-9.65-15.22a151.26,151.26,0,0,0-15-15.15c-14.87-13.24-8.74-43,6.93-55,5.25-4,10.46-3.41,15.74.13,11.82,7.93,23.7,15.76,35.54,23.66,10.07,6.72,19.89,13.83,30.22,20.11,9.61,5.84,13.27,13.47,12.45,24.85-1.28,17.71-1,35.52-1.46,53.29q-2.46,47.76-4.92,95.53-.64,12.75-1.13,25.51Q906,1865.81,904.75,1903Z" transform="translate(1091.13 313.72)"/><path class="cls-29" d="M1524.08,1990.06c11.09-7.53,22.09-15.19,33.28-22.56q99.67-65.7,199.46-131.25c5.93-3.9,12.29-7.14,18.24-11,12.11-7.89,20.17-20.9,8.49-40.26-27.16-45-53.63-90.44-80.35-135.72-1.42-2.4-2.52-5-4.07-8.1,9-12.12,22.63-16.88,34.72-23.85,3.17,2.73,6.56,5.26,9.48,8.24,16,16.35,36.31,19.39,56.05,8.6,14.35-7.84,29.2-14.8,43.28-23.08,7.83-4.6,15.82-10.06,21.42-17,7.93-9.83,17-16.73,28.77-21,10.91-3.94,19.53-11.14,26-21.18a57,57,0,0,1,14.31-15.41c8.72-6.18,14.2-13.9,16-24.18,2.44-13.8,10.7-22.21,22.76-28.84,20.55-11.29,40.4-23.85,59.66-35.34,2.64.2,4.2-.09,5.36.47,20.8,9.94,20.64,9.81,36.25-5.76a61.35,61.35,0,0,1,15.25-11.34c8.23-4.18,14-9.63,15.06-19.09.68-6.29,4.28-10.05,9.53-13.16q71.64-42.4,143.18-85c.49-.29,1.36.07,3.3.22,1.6,7.48-.92,14.82-2.48,22.1-27.05,125.78-83.54,237.28-166.34,335.07-133.77,158-303,258.28-504.36,305C1565.68,1981.39,1544.85,1985.59,1524.08,1990.06Z" transform="translate(1091.13 313.72)"/><path class="cls-29" d="M904.75,1903q1.31-37.15,2.62-74.31.46-12.76,1.13-25.51,2.44-47.76,4.92-95.53c47,6.18,93.4.69,139.58-8.08a734.59,734.59,0,0,0,165.86-52.45c29.19-13.18,56.38-29.78,82.77-47.78-2.1,5.08-3.38,10.72-6.42,15.17-24.06,35.24-43.84,72.83-62.33,111.18a618.29,618.29,0,0,0-42.28,115.48c-7.55,29.44-14.14,59.12-21.36,88.64-.8,3.25-3,6.16-4.54,9.24-25.48-5.88-50.88-12.2-76.48-17.56C1027.75,1908.77,966.5,1903.25,904.75,1903Z" transform="translate(1091.13 313.72)"/><path class="cls-29" d="M1519.83,1992.09l4.74-2.2Z" transform="translate(1091.13 313.72)"/><path class="cls-30" d="M1624.42,1626.13c26.58-2.76,45.84,23.81,44.92,46-1,24.2-21.29,44.26-45.73,44-25.18-.24-49.21-22.43-46.76-45.63C1580,1641.11,1600.42,1623.65,1624.42,1626.13Z" transform="translate(1091.13 313.72)"/><polygon class="cls-31" points="2297.3 3041.84 2255.84 3041.84 2235.11 3077.75 2255.84 3113.66 2297.3 3113.66 2318.04 3077.75 2297.3 3041.84"/><polygon class="cls-32" points="3854.63 1628.26 3811.88 1696.72 3731.22 1693.94 3693.3 1622.69 3736.04 1554.22 3816.7 1557.01 3854.63 1628.26"/><polygon class="cls-33" points="4416.47 2431.26 4357.67 2431.26 4328.27 2482.18 4357.67 2533.11 4416.47 2533.11 4445.86 2482.18 4416.47 2431.26"/><polygon class="cls-34" points="4208.86 2709.37 4157.89 2709.37 4132.41 2753.51 4157.89 2797.65 4208.86 2797.65 4234.34 2753.51 4208.86 2709.37"/><polygon class="cls-35" points="4544.56 1788.2 4513.55 1788.2 4498.05 1761.34 4513.55 1734.49 4544.56 1734.49 4560.06 1761.34 4544.56 1788.2"/><polygon class="cls-36" points="1856.25 2682.11 1781.16 2682.11 1743.62 2617.08 1781.16 2552.05 1856.25 2552.05 1893.8 2617.08 1856.25 2682.11"/></g><polygon class="cls-1" points="4790.61 3536.15 4790.61 1428.22 2965.09 374.25 1139.56 1428.22 1139.56 3536.15 2965.09 4590.12 4790.61 3536.15"/><path class="cls-5" d="M1058.26,673.49l79.37,410-172,98.2Q945.89,1193,927.26,1186q-21-8.73-26.45-37.07l-21.22-109.67q-7.17-37,4.16-59,8.82-18.21,34-32.59l123.44-70.48-33.81-174.63Zm-4.92,266.56-121.1,69.15,21.23,109.67,121.1-69.15Z" transform="translate(1091.13 313.72)"/><path class="cls-5" d="M1368.34,761.74l21,108.27q7.11,36.75-5.23,60.25-9.51,18-35.25,32.68l-121.68,69.48,27,139.71-50.9,29.06-72.61-375.11,172.58-98.54q19.74-11.28,39.58-3.21T1368.34,761.74Zm-52.65,30.06L1194,861.28l21,108.27,121.68-69.47Z" transform="translate(1091.13 313.72)"/><path class="cls-5" d="M1486.88,884.11l-51.48,29.4-79.24-409.34,51.48-29.4Q1490.13,900.89,1486.88,884.11Z" transform="translate(1091.13 313.72)"/><path class="cls-5" d="M1759.47,812.25q6,30.72-.79,50.87Q1751,888.48,1721,905.58l-106.48,60.79-10.68-65.27,104.72-59.79L1694,765.87l-122.26,69.81q-27.56,15.74-41.59,10.22t-20.64-39.66l-34.24-176.91,50.9-29.06q1.2,6.24,33.4,172.54L1681.8,703l-33.4-172.54,50.9-29.06Z" transform="translate(1091.13 313.72)"/><path class="cls-5" d="M1929.59,456l-3-15.37-120.51,68.81q31.1,160.67,33.53,173.23l-52.07,29.73-45.7-236.1,172.71-97.84q28.1-16,41.37-11.21,16,5.6,22.65,39.82l3.65,18.86Z" transform="translate(1091.13 313.72)"/><polygon class="cls-37" points="2433.08 2938.45 2390.34 3006.91 2309.68 3004.13 2271.76 2932.88 2314.5 2864.42 2395.16 2867.2 2433.08 2938.45"/><path class="cls-5" d="M2648.59,3671.38c-11.14-19.43-5.49-38.68,8.44-46.67,7-4,13.16-4.11,21-2.9l-6.36-9.92-13.18-23,10.42-6,50.2,87.55-8.54,4.89-4.9-6.5-.37.21c-2.16,7.29-6.44,15-13.59,19.07C2676.42,3696.92,2660,3691.3,2648.59,3671.38ZM2700,3661.2,2682.07,3630c-7.76-1.59-13.39-.65-18.41,2.23-9.8,5.61-12.29,19.3-4.47,32.95,8.18,14.26,19.27,19.34,29.94,13.22C2694.78,3675.12,2698.13,3669.61,2700,3661.2Z" transform="translate(1091.13 313.72)"/><path class="cls-5" d="M2705.46,3598.9,2714,3594l4.83,6.38.37-.22c2.92-7.71,7.51-15.41,14.67-19.52,15.69-9,31-1.89,41.59,16.67,11.64,20.29,6.05,39.35-7.89,47.34-5.65,3.24-12.78,3.89-20.9,2.83l6.25,10.31,11.56,20.16-10.3,5.91Zm59.33,4.54c-7.54-13.15-17.14-19.42-28.69-12.79-5.15,2.95-8.68,8.73-11.67,17.47l18,31.36c8.13,1.38,14.52,0,18.54-2.3C2771,3631.42,2773.25,3618.2,2764.79,3603.44Z" transform="translate(1091.13 313.72)"/><path class="cls-5" d="M2802.5,3606.65l-43.29-75.49,10.29-5.91,43.72,76.24c1.83,3.2,3.92,3.63,5.42,2.77a10.27,10.27,0,0,0,2.12-1.54l5.76,6.83a16.37,16.37,0,0,1-5.34,4.37C2813.39,3618.38,2807.51,3615.39,2802.5,3606.65Z" transform="translate(1091.13 313.72)"/><path class="cls-5" d="M2849.3,3628.34l-2.57-9.14a21.19,21.19,0,0,0,5.14-1.8c6.9-4,8.19-11.89,6.48-20.71l-1.16-5.22-58.82-45.84,10.67-6.12,31.4,25.95c4.84,4.08,10.5,9,15.56,13.46l.5-.29c-1.35-6.42-3.11-13.57-4.51-19.8l-8-39.34,10-5.76,14.11,77.86c2.5,14.25,1.37,26.82-10.94,33.88A23.76,23.76,0,0,1,2849.3,3628.34Z" transform="translate(1091.13 313.72)"/><path class="cls-5" d="M2865.79,3507l8.54-4.9,7.08,10.32.38-.22c-.16-9.87,3.37-18.27,10.27-22.23a17.79,17.79,0,0,1,7.24-2.51l3.06,10a20.1,20.1,0,0,0-6.46,2.4c-5.15,3-9.19,10.17-7.55,22.63l22,38.36-10.29,5.91Z" transform="translate(1091.13 313.72)"/><path class="cls-5" d="M2930.81,3540.93c-2.68-4.68-1.13-9.82,3-12.19s9.24-1,11.92,3.62a8.61,8.61,0,1,1-14.94,8.57Z" transform="translate(1091.13 313.72)"/><path class="cls-5" d="M2953.13,3511.78l-19-33.07-9,5.18-4.37-7.62,9.19-6.09-8.34-17.44,8.67-5,9.58,16.72,16.45-9.43,4.73,8.24-16.45,9.43,19,33.2c4.23,7.38,9,10.19,16,6.16a26.11,26.11,0,0,0,6-5.56L2992,3513c-2.76,3.05-6.26,6.53-10,8.69C2969,3529.18,2959.9,3523.59,2953.13,3511.78Z" transform="translate(1091.13 313.72)"/><path class="cls-5" d="M2957.45,3429.41c-2.25-3.94-.6-8.32,3.42-10.62s8.64-1.52,10.89,2.41.6,8.32-3.42,10.62S2959.64,3433.22,2957.45,3429.41Zm12.67,17.73,10.3-5.9,34.26,59.76-10.29,5.9Z" transform="translate(1091.13 313.72)"/><path class="cls-5" d="M3013.82,3462c-11.14-19.42-5.5-38.67,8.44-46.66,7-4,13.16-4.12,21-2.91l-6.35-9.92-13.19-23,10.42-6,50.21,87.55-8.54,4.9-4.9-6.51-.38.22c-2.16,7.28-6.43,15-13.59,19.07C3041.64,3487.5,3025.24,3481.87,3013.82,3462Zm51.38-10.18-17.91-31.23c-7.75-1.6-13.39-.66-18.41,2.22-9.79,5.62-12.29,19.3-4.46,32.95,8.18,14.27,19.26,19.34,29.94,13.23C3060,3465.7,3063.35,3460.18,3065.2,3451.77Z" transform="translate(1091.13 313.72)"/><path class="cls-5" d="M3112.83,3477.23l-2.57-9.14a20.82,20.82,0,0,0,5.14-1.81c6.9-4,8.2-11.89,6.48-20.7l-1.16-5.22-58.82-45.84,10.67-6.12,31.4,25.95c4.84,4.08,10.5,9,15.56,13.46l.5-.29c-1.35-6.42-3.11-13.58-4.51-19.8l-8.05-39.34,10.05-5.76,14.11,77.86c2.5,14.25,1.37,26.82-10.94,33.88A23.76,23.76,0,0,1,3112.83,3477.23Z" transform="translate(1091.13 313.72)"/><path class="cls-5" d="M3120.53,3360.9l10.67-6.12,31,27.31c5.15,4.89,10.61,9.77,15.74,14.34l.5-.29c-1.49-6.66-2.93-13.84-4.56-20.75l-7.91-40.56,10.17-5.83,12.67,72.14-12.05,6.91Z" transform="translate(1091.13 313.72)"/><path class="cls-5" d="M3200.13,3355.12c-11.21-19.55-4.61-39.18,9.32-47.18,15.57-8.92,30.64-3,40.44,14.07a44.62,44.62,0,0,1,2.94,6l-41.19,23.61c8,12.23,20.58,15.81,32.26,9.12a32.29,32.29,0,0,0,12.51-13.39l7.45,4.56a42.53,42.53,0,0,1-16.56,17.66C3231,3378.93,3211.34,3374.67,3200.13,3355.12Zm39.87-29.4c-6.91-12-16.17-15.4-25.71-9.93-8.54,4.9-12.45,16.12-6.93,28.65Z" transform="translate(1091.13 313.72)"/><path class="cls-5" d="M3249.72,3286.81l8.54-4.89,7.08,10.32.38-.22c-.16-9.88,3.37-18.27,10.28-22.23a17.78,17.78,0,0,1,7.23-2.52l3.07,10a20.15,20.15,0,0,0-6.47,2.4c-5.14,3-9.18,10.17-7.54,22.63l22,38.36-10.29,5.9Z" transform="translate(1091.13 313.72)"/><path class="cls-5" d="M3316.39,3319l1.27-9.72c7.67,1.16,14.76,1,22.05-3.16,8-4.61,9.65-11.09,6.69-16.26-3.52-6.15-12.36-4.68-20.42-3.32-10.43,1.89-22.3,3.31-28.08-6.78-5.5-9.59-1.94-21.43,11.24-29a35.61,35.61,0,0,1,22.84-4.11l-1.23,9.21c-5.91-.7-11.57-.39-17,2.7-7.66,4.39-8.85,10.47-6.24,15,3.24,5.65,11.09,3.93,19.48,2.55,10.62-1.84,22.46-3.89,28.95,7.42,5.57,9.71,2.31,22.36-12.13,30.64A42.86,42.86,0,0,1,3316.39,3319Z" transform="translate(1091.13 313.72)"/><path class="cls-5" d="M3358.07,3264.55c-11.21-19.55-4.61-39.18,9.33-47.17,15.56-8.93,30.63-3,40.43,14.07a44.56,44.56,0,0,1,2.94,6l-41.19,23.62c8,12.23,20.58,15.81,32.26,9.11a32.27,32.27,0,0,0,12.51-13.38l7.45,4.55a42.49,42.49,0,0,1-16.56,17.67C3388.92,3288.37,3369.28,3284.1,3358.07,3264.55Zm39.87-29.4c-6.91-12.05-16.17-15.39-25.71-9.92-8.54,4.89-12.44,16.12-6.93,28.64Z" transform="translate(1091.13 313.72)"/><path class="cls-5" d="M3436.27,3251.08c-2.68-4.67-1.12-9.81,3-12.18s9.24-1.06,11.92,3.62a8.61,8.61,0,1,1-14.94,8.56Z" transform="translate(1091.13 313.72)"/><path class="cls-5" d="M3450.23,3211.71c-11.49-20-4.74-39.11,10.2-47.68s34.81-4.76,46.3,15.28c11.35,19.8,4.6,38.86-10.34,47.43S3461.58,3231.51,3450.23,3211.71Zm45.83-26.28c-7.9-13.77-20.29-19.08-30.84-13s-12.22,19.43-4.32,33.2,20.27,18.77,30.69,12.79S3503.88,3199.08,3496.06,3185.43Z" transform="translate(1091.13 313.72)"/><path class="cls-5" d="M3505.59,3140.09l8.54-4.89,7.08,10.32.38-.22c-.16-9.88,3.37-18.27,10.28-22.23a17.78,17.78,0,0,1,7.23-2.52l3.07,10a20.15,20.15,0,0,0-6.47,2.4c-5.14,2.95-9.18,10.17-7.54,22.63l22,38.36-10.3,5.9Z" transform="translate(1091.13 313.72)"/><path class="cls-5" d="M3584.08,3189.69c-2.89-5-2.25-11.78,1.16-18.64l-.28-.49a12.64,12.64,0,0,1-11-6.62c-2.89-5-1.63-11,.31-14.88l-.28-.49a24.19,24.19,0,0,1-17.15-11.57c-7.48-13-1.65-27.32,10.78-34.45a28.53,28.53,0,0,1,9.51-3.49l21.22-12.17,4.44,7.75-12.56,7.2a19.79,19.79,0,0,1,12.08,9.41c7.33,12.79,2,26.47-10.44,33.6a24.9,24.9,0,0,1-10.36,3.16c-1.08,3.07-1.71,6,.2,9.37,2.18,3.81,6.24,5.07,14.53.32l11.8-6.76c14.19-8.14,23.81-7.94,29.53,2,6.34,11.07-.09,27.5-19,38.37C3603.61,3199.9,3590,3200,3584.08,3189.69Zm44.32-29.5c-3.18-5.53-8.63-4.85-16.54-.32l-10.54,6.05a34.8,34.8,0,0,1-8.48,3.55c-2.63,5.6-2.47,10.24-.49,13.68,3.66,6.4,12.64,6.64,23.69.31C3627.72,3176.76,3632,3166.47,3628.4,3160.19Zm-35.62-43.78c-5-8.73-13.74-10.59-20.9-6.48s-10,12.58-5,21.31,14.08,10.88,21.12,6.85S3597.78,3125.14,3592.78,3116.41Z" transform="translate(1091.13 313.72)"/></g></svg>