<?xml version="1.0" encoding="utf-8"?>
<!-- Generator: Adobe Illustrator 26.4.1, SVG Export Plug-In . SVG Version: 6.00 Build 0)  -->
<svg version="1.1" id="Layer_1" xmlns="http://www.w3.org/2000/svg" xmlns:xlink="http://www.w3.org/1999/xlink" x="0px" y="0px"
	 viewBox="0 0 2521 2911" style="enable-background:new 0 0 2521 2911;" xml:space="preserve">
<style type="text/css">
	.st0{fill:none;}
	.st1{fill:#464646;}
	.st2{opacity:0.7;fill:#00A1AD;enable-background:new    ;}
	.st3{fill:#3D3DC4;}
	.st4{fill:#023DFF;}
	.st5{fill:#02FFD8;}
	.st6{fill:#01C7FF;}
	.st7{fill:#0287FF;}
	.st8{fill:#0187FF;}
	.st9{fill:#0086FF;}
	.st10{fill:#6D00A0;}
	.st11{fill:#9E009E;}
	.st12{fill:#009E40;}
	.st13{fill:#568700;}
	.st14{fill:#FFC200;}
	.st15{fill:#F97F12;}
	.st16{fill:#FF9806;}
	.st17{fill:#FF6D1A;}
	.st18{fill:#FF995B;}
	.st19{fill:#FFCD23;}
	.st20{fill:#C51D28;}
	.st21{fill:#CA0274;}
	.st22{fill:#FF6203;}
	.st23{fill:#FD5F01;}
	.st24{opacity:0.7;fill:#F7931E;enable-background:new    ;}
	.st25{opacity:0.8;fill:#869900;enable-background:new    ;}
	.st26{opacity:0.8;fill:#B500BF;enable-background:new    ;}
	.st27{opacity:0.8;fill:#00A1B2;enable-background:new    ;}
	.st28{opacity:0.8;fill:#AF008E;enable-background:new    ;}
	.st29{opacity:0.7;fill:#FFB600;enable-background:new    ;}
	.st30{fill:#999999;}
	.st31{opacity:0.8;fill:#ADBA00;enable-background:new    ;}
	.st32{fill:#4D4D4D;}
</style>
<g>
	<g>
		<polygon class="st0" points="1260.5,38.8 1648.4,262.7 1676.1,278.8 1873.3,392.6 1936.8,429.3 1977.6,452.9 2005.4,468.8 
			2194.7,578.2 2222.5,594.2 2404.1,699 2472.8,738.8 		"/>
		<path class="st0" d="M1260.5,2872.2L2473.4,2172L1260.5,2872.2z"/>
		<path d="M1025.3,1335.6c7.5-5,14.9-10.2,22.4-15.2C1040.2,1325.4,1032.8,1330.5,1025.3,1335.6z"/>
		<path d="M610.4,1241.8c0,0.1,0,0.3,0,0.4l0,0C610.4,1242.1,610.4,1241.9,610.4,1241.8z"/>
		<path d="M1194,1224.9c6.4-4.2,11.1-10.4,9.1-19.2C1205.1,1214.4,1200.4,1220.6,1194,1224.9c-4,2.6-8.3,4.7-12.3,7.3
			c-44.7,29.4-89.4,58.8-134,88.2c44.6-29.4,89.3-58.9,134.1-88.2C1185.8,1229.6,1190.1,1227.4,1194,1224.9z"/>
		<path d="M820.2,1105.1c19.6-8.9,37.9-20,55.6-32.1c-1.4,3.4-2.3,7.2-4.3,10.2c-3,4.4-5.8,8.7-8.6,13.2l0,0
			c2.8-4.4,5.6-8.9,8.6-13.2c2-3,2.9-6.8,4.3-10.2c10.4-11.8,20.8-23.6,31.1-35.6c8.5-10,17.3-19.6,26.4-28.8
			c-76.7,44.3-153.4,88.5-230,132.8c1.8-0.3,3.6-0.7,5.4-1C747.2,1133.1,784.6,1121.2,820.2,1105.1z"/>
		<path d="M1097.7,1091c14.8,1.4,25.1,16.3,25.3,29.5C1122.9,1107.3,1112.4,1092.4,1097.7,1091z"/>
		<path d="M609.2,1274.9c0,0.7-0.1,1.4-0.1,2.2C609.2,1276.4,609.2,1275.7,609.2,1274.9L609.2,1274.9z"/>
		<path d="M1092.8,1091L1092.8,1091c-16.1-1.7-29.9,10.1-32,29.8c-0.1,1-0.1,1.9-0.1,2.9c0-0.9,0-1.9,0.1-2.9
			C1063,1101.1,1076.7,1089.4,1092.8,1091z"/>
		<path d="M1227.5,2238c49.3-13.5,99.3-24.5,150.3-33.1l43.6-25.1c10.1-16.3,18.8-34.8,21.4-53.3c1.2-8.5,3.5-13.8,6.7-16.6
			l-163.6,94.4L1227.5,2238z"/>
		<path d="M2321.3,1306.9l19.8-0.3l31.5,52.6l-28.6,51.4c47.8-27.6,95.6-55.2,143.4-82.8v-116.8c-30.7,17.7-61.4,35.4-92.1,53.2
			C2370.7,1278.4,2346,1292.6,2321.3,1306.9z"/>
		<path d="M1528.5,2471.5c-9.1,10.7-18.2,21.2-27.5,31.7c33.1-19.1,66.1-38.2,99.1-57.3c-2.5-0.5-4.9-0.9-7.4-1.3
			C1566.6,2441.1,1546.9,2449.9,1528.5,2471.5z"/>
		<path d="M696.1,1063.9l-0.4-0.8l-79.8,46c0,0.3,0,0.6-0.1,0.9c-0.2,3-0.3,5.8-0.5,8.8c31.4-18.1,62.8-36.2,94.2-54.4L696.1,1063.9
			z"/>
		<path d="M2051.6,1390c-8.7,9.4-17.3,18.9-26,28.4c88.2-50.9,176.5-101.9,264.7-152.8c65.7-37.9,131.4-75.9,197.1-113.8v-28.6
			l-405.1,233.9C2072,1368,2061.8,1379,2051.6,1390z"/>
		<path d="M2232.1,952.2c3.5,5,7.3,9.9,10.4,15.2c9.5,15.5,18.8,31.1,28.1,46.7c4.7,7.9,4.7,8.1-3.6,12.9
			c-14.5,8.3-29.2,16.5-43.7,24.7c-7.9,4.5-15.9,8.9-23.7,13.6c-4.4,2.6-8.5,3.7-13.5,1.6c-5.3-2.2-10.8-3.7-16.3-5.6
			c-6.5-2.3-13-3.5-19.5-0.1c-4.5,2.4-9.3,2.1-14,1.1c-12-2.4-22.6-0.2-31.6,8.7c-1.5,1.5-4.2,2.2-6.4,2.2c-5.4,0.1-9.5,1.9-11,7.3
			c-1.7,5.9-5.4,8.5-11.5,8.7c-2.4,0.2-4.7,1.1-6.5,2.8c-6.4,5.7-12.6,11.7-18.7,17.7c-5,5-7.2,11-6.6,18.2
			c0.5,5.6,0.9,11.1-1.3,16.9c-3.6,9.3-9.3,15.3-18.2,20.3c-42.9,24.1-85.4,49.3-128,73.9c-22.8,13.2-45.6,26.1-68.4,39.2l0,0
			c-0.7,3.4,0.6,5.8,3.8,7.1c36.6-20.8,73.1-41.7,109.8-62.6c30.8-17.5,61.7-34.8,92.2-52.7c10.4-6.1,20-3.4,30-0.3
			c1.3,0.5,2.6,1.3,3.6,2.3c9.4,8.5,20.1,7.5,31.1,4.3c4.6-1.3,9.2-2.5,13.7-4.1c2.6-0.9,5.8-2.1,7.3-4.2c4.3-6.7,9.9-8.1,17.3-6.6
			c3.4,0.7,6.9-1.1,8.5-4.2c2.2-4.2,5.6-5.7,9.8-7.4c8.6-3.5,15.7-9.3,18.8-18.5c2.2-6.6,5-12.2,11-16.1c4.2-2.8,5.8-7.4,6.7-12.2
			c1.1-6.1,2.4-12.2,3.5-18.3c1-5.5,3.6-9.4,8.7-12.3c22.9-12.9,45.7-26.1,68.5-39.2c1.3-0.7,2.6-1.8,3.8-1.8c1.7,0.1,3.5,0.6,5,1.5
			c1.1,0.7,1.7,2.3,2.4,3.5c7.2,12.7,14.4,25.4,21.6,38.1c9.7-5.6,19.4-11.2,29-16.7c51.1-29.5,102.1-58.9,153.2-88.4v-172
			c-91,52.6-182,105.1-273.1,157.6C2220.2,953.8,2226.2,953.1,2232.1,952.2z M2301.2,953h20.8l10.4,18l-10.4,18.1h-20.8l-10.4-18.1
			L2301.2,953z"/>
		<path d="M2250.4,1360.6l10.5-18.8c-256.1,147.9-512.1,295.7-768.2,443.5l-99.7,57.6c-10.6,10.4-21.1,20.7-31.7,31.1L2250.4,1360.6
			z"/>
		<path d="M2268.2,1391.3l12.5,21.6l-37.1,21.4l12.2,21.1l-5.2,9c29.9-17.3,59.8-34.5,89.7-51.8l-58.7,1L2268.2,1391.3z"/>
		<path d="M723.4,1465.3c1.2-2.5,2.4-5,3.5-7.6c-4.3,2.5-8.6,5-12.9,7.5C717.2,1466.6,720.2,1467.1,723.4,1465.3
			c0.6,4.3,3.4,6.6,7.1,8.3c13.6,6.5,27.1,12.8,40.6,19.4c0,0,0,0,0.1,0c-13.5-6.5-27.1-13-40.6-19.4
			C726.8,1471.8,724,1469.5,723.4,1465.3z"/>
		<path d="M1496.7,1898.2l2.4,0.1c20.6-11.9,41.1-23.7,61.6-35.6c215.4-124.3,430.7-248.7,646.1-373h-10.4l-12.2-21.1l-1054.9,609
			c-27.9,19.6-56.9,37.8-85.3,56.5c-10.4,6.9-21.3,12.8-31.9,19.4c-41.5,25.7-85,47.9-129.8,67.2c-1.2,0.5-2.5,1.1-3.7,1.6
			L506.9,2437l29.6,17.1c319.6-184.6,639.2-369,958.9-553.6L1496.7,1898.2z"/>
		<path d="M470.7,2384.8c-10,4.6-20,9.3-29.8,14.2l5.4,3.2l50.1-29C487.9,2377,479.3,2380.9,470.7,2384.8z"/>
		<path d="M1849.2,1337.9C1849.2,1337.9,1849.2,1337.8,1849.2,1337.9c-3.5-14.7-7.9-29.1-14.1-42.9c-1.4-3-2-6.3-3-9.5
			c0.9,3.2,1.6,6.5,3,9.5C1841.3,1308.8,1845.7,1323.1,1849.2,1337.9z"/>
		<path d="M760.9,553.3l116-66.2c8.9-5,17.7-5.8,26.6-2.2c8.9,3.6,14.6,12,17.1,25.1l14.1,72.8c3.2,16.5,2,30-3.5,40.5
			c-4.2,8.1-12.2,15.4-23.7,22L825.9,692l7.9,41.1l313.4-180.9l-7.6-39.2l-82.2,46.9c-12.4,7.1-21.6,9.3-28,6.9
			c-6.3-2.5-10.9-11.4-13.8-26.7l-23-118.9l34.2-19.6c0.5,2.8,8,41.5,22.4,115.9l82.1-46.9l-22.4-115.9l34.2-19.6l38.2,197.3
			l467.1-269.6l-387.9-224L33.6,747.2V1195l766-442.2L760.9,553.3z M1287.8,252.5c12.6-7.2,21.8-9.7,27.8-7.5
			c7.2,2.5,12.2,11.4,15.3,26.7l2.4,12.7l-35.4,20.2l-2-10.4l-81,46.2c13.9,72,21.4,110.8,22.5,116.4l-35,20l-30.7-158.7
			L1287.8,252.5z M947.1,317.2c37,190.9,54.7,282.6,53.2,275.1l-34.6,19.8L912.5,337L947.1,317.2z M624.2,795.2
			c-9.4-3.9-15.3-12.2-17.8-24.9l-14.2-73.7c-3.2-16.6-2.3-29.8,2.8-39.7c4-8.1,11.6-15.5,22.9-21.9l82.9-47.4l-22.7-117.3
			l34.2-19.6l53.4,275.6l-115.6,66C641.2,797.4,632.6,798.4,624.2,795.2z"/>
		<path d="M1611.5,1628.9c0.9,0.2,1.9,0.5,2.8,0.9C1613.4,1629.3,1612.5,1629.1,1611.5,1628.9L1611.5,1628.9z"/>
		<path d="M1778.7,1549.3c-2.2-2.6-4.4-5-6.5-7.6l18.1-16c0.1-0.1,0.2-0.2,0.3-0.3l-0.2,0.1c-0.1,0.1-0.1,0.1-0.2,0.2l-18.1,16
			c-3.3,1.8-6.7,3.4-9.9,5.5c-15.3,9.8-31.5,17.3-48.5,22.6l-31.3,18.1c0.2,1.1,0.4,2.2,0.6,3.2c1.2,6.7-0.7,12.4-7.1,15.6
			c-10.5,5.4-21.1,10.7-31.7,15.9c-6.4,3.1-13,5.6-19.4,8.9c-1.8,0.9-2.9,3.4-4.4,5.2l0,0c3.1,3.4,5.5,7.2,7.5,11.2
			c53-30.6,105.9-61.2,158.8-91.7C1784.4,1555.1,1781.9,1552.9,1778.7,1549.3z"/>
		<polygon points="709,629.9 627.6,676.4 641.8,750.1 723.2,703.6 		"/>
		<path d="M1458.4,1982.2l-6.8-12.9l27.5-43.4l-819.5,473.1c-36.4,21-72.9,42.1-109.3,63.1l25.1,14.5l876.3-505.9L1458.4,1982.2z"/>
		<path d="M347.5,1149.7l301.6-174.1l8.1,14l-8.3-15.7l54.3-85.8l101.5,4.2l47.1,89.9l-0.1,0.1c100.3-57.9,200.6-115.8,300.8-173.7
			c240.2-138.7,480.4-277.4,720.6-416l-197.2-113.9c-163.6,94.4-327.1,188.9-490.7,283.3c0,6-0.8,11.4-2.4,16.2
			c-3.4,11.4-11.9,20.9-25.3,28.6l-71.6,40.9l-4.2-25.8c-80.9,46.7-161.7,93.4-242.6,140.1l4.6,24l-34.2,19.6l-4.6-23.8
			C603.6,898,402.1,1014.3,200.7,1130.6c-55.7,32.2-111.5,64.3-167.2,96.5v55.4c33.9-21.6,69.3-40.9,105.9-58.3
			C206.5,1192.1,275.8,1167.1,347.5,1149.7z"/>
		<path d="M1781.6,1326.6c-5.9-13.1-14-25.1-23.9-35.5c-14-14.8-30.4-25.7-49.3-33.5c-3.8-1.5-7.6-2.9-11.5-4c0,0,0,0-0.1,0
			c3.9,1.1,7.7,2.4,11.6,4c18.9,7.7,35.3,18.6,49.3,33.5C1767.7,1301.6,1775.7,1313.6,1781.6,1326.6c5.5,12.2,10.5,24.6,10.9,38.4
			c0.1,1.7,0.3,3.4,0.6,5.2l0,0c-0.3-1.7-0.5-3.5-0.6-5.2C1792.1,1351.2,1787.2,1338.7,1781.6,1326.6z"/>
		<path d="M439.6,1546.2l25.2-43.7h50.5l19.6,34c71.1-41.1,142.2-82.1,213.3-123.1c14.8-33.9,26.3-68.9,35.2-104.9
			c0.5-2.2,0.3-4.7,0.4-7.1c1-2.1,2.5-4,3-6.2c4.8-19.8,9.3-39.8,14.4-59.5c6.9-26.7,16.4-52.8,28.4-77.6c2.3-4.8,4.6-9.5,7.1-14.3
			l0,0c-2.4,4.8-4.7,9.5-7.1,14.3c-12,24.9-21.6,50.9-28.4,77.6c-5.1,19.8-9.5,39.7-14.4,59.5c-0.5,2.2-2,4.2-3,6.2
			c-17.1-4-34.2-8.2-51.4-11.8c-40.7-8.5-81.8-12.2-123.3-12.4c-1.1,4.6-2.2,9.2-3.6,14.8c-5.3,0.8-10.4,2-15.5,2.4
			c-5.7,0.5-11.4,1-17,1.5c-62.4,36-124.8,72-187.2,108.1c-117.4,67.7-234.8,135.6-352.2,203.3V1826
			c141.9-81.9,283.8-163.8,425.6-245.7L439.6,1546.2z"/>
		<path d="M65.4,2023.5c-3-6.5-4.9-13.4-5.8-20.6c-1.8-13.4,2.9-24.4,14.9-31.7c11.9-7.1,23.7-14.5,35.6-21.6
			c11.1-6.6,22-13.4,32.9-20.4c-0.5-3.6-0.8-7.1-1.1-10.7c-1.1-13.4,0.1-26.5,3.8-38c23.5-5.4,45.6-9.5,67.1-15.7
			c14.6-4.2,28.8-9.1,42.9-14.4c38.7-28.4,76.6-57.8,113-89.1c14.1-12.2,28.6-24.1,42.6-36.3c42.7-37,87.4-71.5,133.9-103.6
			c23.3-16.1,45.9-32.9,70.5-46.8c3.8-2.2,7.7-4.3,11.5-6.5c25.1-29.8,48.6-60.9,70.3-93.2c0.2-0.3,0.3-0.5,0.5-0.7
			c-58,33.5-116.1,67-174.1,100.5l-8.7,15.1h-17.4c-154.8,89.3-309.5,178.7-464.3,268v209.8c14.2-8.3,28.6-16.5,42.8-24.7
			C72.2,2036.8,68.6,2030.2,65.4,2023.5z"/>
		<path d="M1520.3,1355.7c-0.5,1.9-0.9,3.7-1.3,5.6C1519.3,1359.5,1519.8,1357.6,1520.3,1355.7L1520.3,1355.7z"/>
		<path d="M1264.9,1675.2c10.1-5.8,20.2-11.6,30.2-17.5c12.6-15.3,25.2-30.5,37.9-45.7c8.3-9.8,17.6-18.8,27.1-27.6
			c8.7-8.1,19.2-12.4,31.5-11.2c2.3,0.2,4.6-0.7,7-1.2l-0.1-0.1c6.6-9.9,13.8-19.4,19.5-29.8c8.5-15.2,20.4-25.8,36.2-32.9
			c10.5-4.6,20.2-10.7,30.3-16.1c4.2,3.9,9,7.2,12.4,11.7c6.5,8.8,13.8,16.7,21.8,23.7l0,0c-7.9-7.1-15.3-14.9-21.8-23.7
			c-3.3-4.5-8.2-7.8-12.4-11.7c-1-8-5.1-14.4-11-19.7c-2.1-6.8-3.7-13.8-6.3-20.4c-6.8-17.5-11.7-35.3-11.3-54.2
			c0.1-2.1,0.1-4.1,0.1-6.2c0,0,0,0-0.1,0c0,2.1,0,4.1-0.1,6.2c-0.4,19,4.5,36.8,11.3,54.2c2.6,6.6,4.2,13.6,6.3,20.4
			c-15.6,9.3-31.3,18.5-46.8,27.8c-3.7,2.2-7.9,3.4-12.2,3.6c-18.6,1.1-37.2,2.6-55.8,4c-6.7,17.5-21.2,25.3-38,29.5
			c-13.4,3.4-27.2,5.8-40.8,8.1c-27.8,4.7-55.7,9.2-83.6,13.5c-13.7,2.1-27.4,4.2-41.1,6.3c-72.1,41.6-144.2,83.3-216.3,124.9
			c-18.9,10.9-37.8,21.8-56.7,32.7l20.4,38.2l-28.7,46l-54.2-1.9l-18.8-35.4c-165.1,95.3-330.2,190.6-495.3,285.9
			c-19,16.9-38.6,33.1-59.7,47.7c-5.9,4-12,7.8-18.2,11.5c-7.6,4.6-15.9,6.3-24.7,6.1c-3.1-0.1-6.2-0.3-9.3-0.7
			c-39,22.5-78,45-116.9,67.5l149,86c96.4-55.6,192.8-111.3,289.2-166.9C765.1,1963.7,1015.1,1819.5,1264.9,1675.2z M783.9,1831.6
			h27.9l13.9,24.1l-13.9,24.1h-27.9l-13.9-24.1L783.9,1831.6z"/>
		<path d="M2236,1489.7h-1.3c-113.9,65.7-227.6,131.5-341.5,197.1L1525,1899.4l55.6,2.3l16.2,30.9c71.4-41.2,142.8-82.5,214.2-123.7
			c83.1-48,166.3-96,249.5-144l-15.6-27l17.1-29.6h34.3l15.6,27c125.1-72.2,250.3-144.5,375.4-216.7v-74.7
			c-83.6,48.3-167.2,96.5-250.8,144.8L2236,1489.7z"/>
		<path d="M363.7,1337.4c-110,63.5-220.1,127-330.1,190.5v47.2c155.9-90,311.6-179.9,467.5-269.9
			C454.6,1313.1,408.8,1323.8,363.7,1337.4z"/>
		<path d="M1288.9,843.6c4.8-0.5,9.5-1,14.2-1.4c195.3-112.8,390.6-225.5,585.9-338.3c29.5-17.1,59-34.1,88.5-51.1l-40.9-23.6
			c-251.1,145-502.2,289.9-753.3,434.9C1218,854.4,1253.2,847.5,1288.9,843.6z"/>
		<path d="M1814.1,2287.7c-13.8,12.5-29.4,21.4-46.6,26.9l-104.6,60.4c-0.1,12.1-1.2,24.2-2.8,36.3c27.8-16.1,55.6-32.1,83.3-48.1
			c247.9-143.2,495.9-286.3,743.9-429.5v-34.7c-162.9,94-325.8,188.1-488.7,282.2L1814.1,2287.7z"/>
		<path d="M1362.5,840c39.4,0.7,78.4,5.6,117.1,15.9c8.7,2.3,17.3,5.3,26,8.1c1.7,0.5,3.4,1.5,6.7,3c-2.8,2.4-4.5,4.3-6.7,5.6
			c-29.2,17.3-58.5,34.3-87.7,51.7c-5.3,3.2-10.1,4.8-16.1,1.7c-5.2-2.7-9.9-0.7-14.9,2c-5,2.7-10.3,4.8-15.7,6.4
			c-9.7,3-11.4,4.6-12,15c-0.2,2.8,0,5.6,0,9.2c-15.1,8.9-29.8,17.6-44.7,26.2c-5.5,3.2-11.5,1.3-16.8-0.1
			c-9.7-2.6-18.8-3.6-27.5,2.4c-0.8,0.5-1.7,0.8-2.8,0.8c-13.6-0.2-24.9,5-35.2,13.8c-3.4,2.8-8.7,3.6-13.3,4.5
			c-6.7,1.3-12.8,3.4-18.5,7.2c-9.5,6.5-19.2,12.6-28.8,18.8c-11.9,7.5-17.2,21.2-12.8,34.6c2.1,6.3,5,12.4,7.5,18.5
			c-8.1,4.7-17.3,7.9-23.3,16.1c0,0,0,0,0,0.1c6-8.1,15.2-11.4,23.3-16c2.2,1.8,4.4,3.6,6.4,5.5c10.8,11,24.4,13,37.7,5.8
			c9.6-5.2,19.6-9.9,29.1-15.5c5.2-3.1,10.6-6.8,14.4-11.4c5.3-6.6,11.4-11.2,19.4-14.1c7.3-2.6,13.1-7.5,17.5-14.2
			c2.6-4,5.8-7.5,9.6-10.4c5.8-4.2,9.5-9.3,10.8-16.3c1.6-9.3,7.2-14.9,15.3-19.4c13.8-7.6,27.2-16.1,40.1-23.7
			c1.7,0.1,2.8-0.1,3.6,0.3c14,6.7,13.8,6.6,24.3-3.9c3-3,6.5-5.6,10.2-7.6c5.5-2.8,9.4-6.5,10.1-12.8c0.5-4.2,2.9-6.7,6.4-8.9
			c32.1-19,64.2-38,96.2-57.1c0.3-0.2,0.9,0.1,2.2,0.1c1.1,5-0.6,9.9-1.7,14.9c-6.6,30.7-15.9,60.2-27.6,88.4
			c59.1-34.1,118.3-68.3,177.4-102.4c175.6-101.4,351.2-202.8,526.9-304.2L2005.5,469c-103.8,59.9-207.7,119.9-311.6,179.9
			C1583.4,712.5,1472.9,776.3,1362.5,840z"/>
		<path d="M1832.8,833.7l25.5,47.9l-28.8,46l-54.2-1.9l-25.5-47.9l10.6-16.9c-97,56-194,112-291.1,168
			c-17.5,32.7-38.6,63.5-63.2,92.6c-89.9,106.2-203.6,173.6-339,205c-13.8,3.2-27.8,6-41.7,9l-3,1.4c-1.9,1.3-3.8,2.8-6,3.8
			c-53.2,25.9-96.3,61.9-130.5,106.6c45.4-15.5,91.1-30.2,137.6-42.7c42-11.3,84.2-22.2,125.8-34.9c48.1-14.6,95.2-32.3,138-59.4
			c16.5-10.5,33.1-21,49.4-31.9c7.6-5,13.6-11.2,17.7-20c6.1-13.2,20.3-16.7,32.7-8.2c9.1,6.1,16.9,13.5,22.7,22.6l159.8-92.2
			c0.7-2.2,2.1-4.1,4.1-5.8c2.2-1.9,4.4-3.6,6.9-5.2c16.9-11.7,33.8-23.4,50.7-35.1c24.5-16.8,48.9-33.5,73.4-50.2
			c0.8-0.5,1.5-1.1,2.4-1.6c9.4-6.5,18.5-13.8,28.4-19.4c9.6-5.4,21.1-5.4,31.7-7.9c10.6-2.4,21.3-4.8,31.9-7.3l604.7-349.1
			l-181.5-104.8c-137.8,79.6-275.6,159.1-413.4,238.7L1832.8,833.7z"/>
		<polygon points="899.4,603.1 885.3,530.3 803.5,577 817.7,649.8 		"/>
		<path d="M1574.8,2047.3l-15.9-0.7l-105.7,61c4.4-1.4,10.1,0.1,16.7,3.4c12.6,6.1,25.4,12.2,37.9,18.8l801.7-462.9l23.9-42.7
			l51.4-0.9l102.5-59.2v-53.7l-902.8,521.3L1574.8,2047.3z"/>
		<path d="M1410,1582.5c-0.5-0.3-1-0.7-1.5-1.1C1409,1581.8,1409.6,1582.2,1410,1582.5c2.6,1.5,5,3,7.6,4.4l0,0
			C1415.1,1585.6,1412.5,1584.1,1410,1582.5z"/>
		<path d="M1237.4,2858.8l23.1,13.4L2473.4,2172l14-8.1v-26.7c-281.8,162.7-563.7,325.4-845.5,488.1
			C1507.1,2703.1,1372.3,2781,1237.4,2858.8z"/>
		<path class="st1" d="M2392.6,1623.4l30.4,50.1l-28.7,51.1l-59.1,1l-13-21.4l12.1,20.7l-368.8,210.7
			c129.5-47.8,258.6-96.6,387.9-144.9c3.2-1.2,6.7-3.6,9.7-3.2c5.5,0.9,10.8,3.4,16.1,5.3c-2.7,3.7-4.6,8.9-8.3,11
			c-165.9,95.7-331.9,191.3-498,286.7c-6.5,3.8-11.4,10.3-17.1,15.5c7.6-2.1,16.1-2.7,22.6-6.5c164.9-94.6,329.7-189.4,494.3-284.3
			c4.7-2.7,11.4-2.1,17.1-3c-2.4,6.6-2.7,15.4-7.3,19.3c-37.2,31.7-75.2,62.5-113,93.5c-106.5,87.4-212,176.1-320,261.6
			c-28,22.2-63.6,34.8-95.8,51.9c-0.3-4-1.9-8.3-0.9-11.9c20.3-75.4-19.4-149.5-91.3-174.7l0,0c72,25.2,111.6,99.3,91.3,174.7
			c-0.9,3.6,0.5,7.9,0.9,11.9c-3,3.2-6.8,5.8-8.9,9.5c-8.9,15.9-19.3,29-30.8,39.6l184.6-106.6c162.9-94.1,325.8-188.1,488.7-282.2
			v-334.7l-102.5,59.2L2392.6,1623.4z"/>
		<path class="st1" d="M1429.9,2383.1c4.4-7.7,18.1-11.6,28.2-14c12.4-3,19.9-7.2,27.4-19.4c11.1-17.9,29.3-31.3,44-47
			c3-3.2,4-8.4,5.8-12.7c-4.3-0.3-8.7-1.3-12.8-0.6c-24.8,4.4-49.6,9.1-74.3,14.2c-3.8,0.8-8.3,3.6-10.4,6.9
			c-14.7,21.6-34.1,26.1-60.3,25.6c-46-0.8-90.4,3.2-133.5,11.6l-416.4,237.9c-7.1,8.1-14,16.5-20.6,25.1l205.9,118.9
			C1190.1,2673.4,1329.4,2558.5,1429.9,2383.1z"/>
		<path class="st1" d="M1632.8,2077.5c12.9-11.4,27.8-20.2,45.4-25.9L2313,1689l-8.2-13.5l4.8-8.5l-801.7,462.8
			c5.8,3,11.4,6.1,17.1,9.3L1632.8,2077.5z"/>
		<path class="st1" d="M1698.8,2320.4c-1.3-0.4-2.7-0.8-4-1.2C1696.1,2319.6,1697.5,2320,1698.8,2320.4c-37.2,13-35.9,13-35.9,53
			c0,0.5,0,1.1,0,1.7l104.6-60.4C1746.9,2321.2,1723.9,2322.9,1698.8,2320.4z"/>
		<path class="st1" d="M1599.4,2234.7c12.5,32.1,34.6,55.4,63.6,71.1C1634,2290.3,1611.9,2266.9,1599.4,2234.7z"/>
		<path class="st1" d="M1826.4,2184.9c0.1-17.2-4.1-33.4-11.6-47.5C1822.3,2151.5,1826.5,2167.6,1826.4,2184.9L1826.4,2184.9z"/>
		<path class="st1" d="M1387.2,2203.4c11.8-1.9,25.8-10.6,32.1-20.4c0.7-1.1,1.4-2.2,2.1-3.3l-43.6,25.1
			C1380.9,2204.4,1384.1,2203.9,1387.2,2203.4z"/>
		<path class="st1" d="M1826.4,2185.7c-0.3,21.3-7.4,41.1-19.2,57.3C1819,2226.8,1826.1,2207,1826.4,2185.7z"/>
		<path class="st1" d="M1664.6,2306.7c-0.2-0.1-0.5-0.2-0.7-0.3C1664.2,2306.5,1664.4,2306.6,1664.6,2306.7z"/>
		<path class="st1" d="M1724.7,2083.7L1724.7,2083.7c-7.9,0-15.7,0.9-23.1,2.6l-0.1,0.1C1709,2084.6,1716.7,2083.7,1724.7,2083.7z"
			/>
		<path class="st1" d="M1649.9,2115.9L1649.9,2115.9c-16.9,17.7-27.5,41.4-27.6,67.1v0.1v-0.1
			C1622.4,2157.3,1633,2133.6,1649.9,2115.9z"/>
		<path class="st1" d="M1660.2,2411.3c-1.5,12.2-3.6,24.4-5.6,36.6c-0.5,3.4-10.8,7.9-15.9,7.2c-13-1.9-25.7-6.4-38.5-9.1
			c-33.1,19.1-66.1,38.2-99.1,57.3c-105.1,118.8-222.5,221.9-357.5,301.4l93.9,54.2c134.8-77.8,269.7-155.7,404.5-233.5
			c281.8-162.7,563.7-325.4,845.5-488.1v-203.4c-247.9,143.2-495.9,286.3-743.9,429.5C1715.8,2379.2,1687.9,2395.2,1660.2,2411.3z"
			/>
		<path class="st1" d="M2305.3,1074.5c3.6,6.5,7.3,12.9,11,19.4c4.2,7.5,4.2,7.7-1.2,13.5c-29,31.2-58,62.4-87.1,93.6
			c-26.1,28-52.2,56.1-78.2,84.1c-22.4,24-44.9,48-67.3,72l405.1-233.9V969.3c-51.1,29.5-102.1,58.9-153.2,88.4
			C2324.6,1063.4,2314.9,1069,2305.3,1074.5z"/>
		<path class="st1" d="M1834.1,1466.2c11.6-25.1,20.2-51.4,18.8-79.8c-0.4-8.6-0.1-17.2-0.1-25.7c0-3.4,0.1-6.7-0.5-9.9
			c-0.9-4.3-1.8-8.6-2.8-12.8l0,0c1,4.2,1.9,8.5,2.8,12.8c0.7,3.2,0.5,6.7,0.5,9.9c0.1,8.6-0.3,17.2,0.1,25.7
			C1854.2,1414.8,1845.6,1441.2,1834.1,1466.2c-10.4,22.4-24.7,42.7-43.5,59.3l0.2-0.1C1809.5,1508.8,1823.8,1488.6,1834.1,1466.2z"
			/>
		<path class="st1" d="M275.7,2279.6c5.2-18.3,15-32.7,32.8-41.2c18.6-8.9,37.2-17.4,56.7-24.3c52-18.2,105-32.5,157.7-48.2
			c76.1-22.7,152-45.8,226.1-74.5c45.6-17.5,90.3-37.1,133.5-59.7c22.9-12,44.7-25.9,66.5-39.7c50.1-31.8,98.5-66.1,143.3-105.3
			c18-15.7,35.8-31.8,52.8-48.7c14.5-14.5,28.3-29.9,41.4-45.8c25.9-31.4,50.9-63.4,76.5-95c10.8-13.2,21.5-26.5,32.3-39.7
			c-10.1,5.8-20.2,11.6-30.2,17.5c-249.9,144.3-499.8,288.6-749.8,432.9c-96.4,55.6-192.8,111.3-289.2,166.9l45.4,26.2
			c0.3-3,0.8-6,1.3-9.1C273.5,2287.9,274.5,2283.7,275.7,2279.6z"/>
		<path class="st1" d="M1601.4,1629.7c-10.4,2.9-20.6,2.3-31.1,0.3c-9.3-1.7-18.8-2.6-28.2-4c-33.5-5.5-65.8-15.1-97.6-26.5
			c-9.3-3.4-18.3-7.5-27-12.4l0,0c8.7,4.8,17.7,9.1,27,12.4c31.8,11.5,64.1,21,97.6,26.5c9.3,1.5,18.8,2.4,28.2,4
			C1580.8,1632,1591.1,1632.6,1601.4,1629.7c3.6-1,7.1-1.5,10.1-0.8l0,0C1608.4,1628.2,1605,1628.7,1601.4,1629.7z"/>
		<path class="st1" d="M1713.8,1569.8c-10.9,3.4-22.1,5.8-33.6,7.5c0,0,0,0-0.1,0c0.7,3.6,1.6,7.1,2.4,10.6L1713.8,1569.8z"/>
		<path class="st1" d="M1592.3,1569.7c-11.8-4-23.1-9.1-34.2-14.8c-14.4-7.3-27.6-15.9-39.3-26.3l0,0c11.8,10.4,24.9,19,39.3,26.3
			C1569.3,1560.5,1580.6,1565.7,1592.3,1569.7z"/>
		<path class="st1" d="M1794.9,1381.9c0.1,9.7-0.7,19.2-2.4,28.4C1794.2,1401,1795,1391.6,1794.9,1381.9c0-4-1-7.9-1.7-11.8l0,0
			C1793.9,1374.1,1794.9,1378,1794.9,1381.9z"/>
		<path class="st1" d="M1525.2,1339.7c7.2-20,17.4-38.4,33.3-52.7c22.4-20,47.8-34.6,78.6-37.8c7.5-0.8,15-3.3,22.6-2.3
			c12.5,1.6,24.9,3.3,37.1,6.9c0,0,0,0,0.1,0c-12.2-3.5-24.6-5.2-37.1-6.9c-7.7-1-15.1,1.5-22.6,2.3c-30.8,3.2-56.2,17.7-78.6,37.8
			C1542.6,1301.2,1532.4,1319.6,1525.2,1339.7c-1.9,5.2-3.6,10.6-5,16.1l0,0C1521.6,1350.4,1523.4,1345,1525.2,1339.7z"/>
		<path class="st1" d="M1456.2,1368.8c0.3-17.3,4-34.1,10.4-50.1c5.1-12.8,11.9-24.9,18.3-37.2c3.3-6.3,7.5-12.1,11.4-18.1
			c3.5-3.8,7.1-7.7,10.6-11.5c16.1-17.7,34.6-32.3,56.1-43c4.1-2.1,7.8-5.1,11.7-7.7c4.6-1.1,9.3-1.7,13.7-3.3
			c15.3-5.4,31.1-9.6,47-10.9c8.1-0.6,16.1-1,24.2-0.9c-8.1-0.1-16.2,0.3-24.2,0.9c-15.9,1.3-31.7,5.4-47,10.9
			c-4.4,1.5-9.1,2.2-13.8,3.3c-1.5-4-3.4-7.9-4.6-12c-1-3-1-5.8-0.1-8.5l-159.8,92.3c2.4,3.8,4.4,7.8,6.1,12.2c0,0,0,0,0,0.1
			c4.2,0.6,7.1-1.9,10.2-4.2c10.1-7.1,20.1-14.4,30.4-21.3c4.7-3.2,9.8-5.8,14.9-8.4c5.2-2.8,10.3-1.7,14.6,2
			c3.6,3.1,6.8,6.7,10.1,10c-3.8,6-8,11.8-11.4,18.1c-6.5,12.2-13.3,24.3-18.3,37.2C1460.2,1334.6,1456.5,1351.4,1456.2,1368.8
			c-0.2,8,0,16-0.1,24c0,0,0,0,0.1,0C1456.2,1384.8,1456.1,1376.8,1456.2,1368.8z"/>
		<path class="st1" d="M1799.3,1048.2c83.1-18.8,166.2-37.5,249.3-56.1c55-12.4,110.1-24.7,165.2-37c0.2-0.1,0.3-0.1,0.5-0.1
			c91-52.6,182-105.1,273.1-157.6v-50.2l-14.6-8.4l-68.8-39.7L1799.3,1048.2z"/>
		<path class="st1" d="M164.2,2113.3c-33.9-15-62.8-36.6-85-66.5c-0.9-1.3-1.9-2.6-2.8-4c-14.2,8.3-28.6,16.5-42.8,24.7v96.2
			l43.4,25.1c39-22.5,78-45,116.9-67.5C183.7,2120.2,173.7,2117.5,164.2,2113.3z"/>
		<path class="st1" d="M888.4,1630.6c-42,16.5-83.1,35.1-123.1,55.9c-8,10.4-16.3,20.7-24.8,30.8c-98.3,116.3-215.2,209-353.5,274
			c-6.7,3.2-13.4,6.2-20.2,9.1c-14.3,13.5-28.7,26.9-43.2,40.3c-5.9,5.4-11.8,10.8-17.8,16.1c165.1-95.3,330.2-190.6,495.3-285.9
			l-6.7-12.5l28.7-46l54.2,1.9l5.1,9.6c18.9-10.9,37.8-21.8,56.7-32.7c72.1-41.6,144.2-83.3,216.3-124.9
			c-22.7,3.5-45.5,6.9-68.3,9.9C1018.5,1585.2,952.7,1605.3,888.4,1630.6z"/>
		<path class="st1" d="M1488.6,2039.8l-473.9,273.6c69.2-30.2,140.1-55.4,212.8-75.3l58.5-33.7l163.6-94.4c1.1-1,2.4-1.7,3.7-2.2
			l105.7-61l-68.2-2.8L1488.6,2039.8z"/>
		<path class="st1" d="M743.7,2469.8l-90.1,52l24.8,14.3C698.2,2511.6,720.1,2489.7,743.7,2469.8z"/>
		<path class="st1" d="M2113.6,1637.9l-17.1,29.6h-34.3l-1.5-2.6c-83.1,48-166.3,96-249.5,144c-71.4,41.2-142.8,82.5-214.2,123.7
			l22.9,43.6l-35.2,55.6l902.8-521.2v-92.1c-125.1,72.2-250.3,144.5-375.4,216.7L2113.6,1637.9z"/>
		<path class="st1" d="M271.5,1369.6c-69.6,27.6-135.8,61.7-196.5,105.9c-14.3,10.4-28.2,21.4-41.5,33v19.6
			c110-63.5,220.1-127.1,330.1-190.6C332.7,1346.8,302,1357.5,271.5,1369.6z"/>
		<path class="st1" d="M851.9,982.3l-54.2,85.7l-88-3.6c-31.4,18.1-62.8,36.2-94.2,54.4c-0.3,9-0.3,18-0.5,27
			c29.7,3.9,59.1,0.9,88.3-4.4c76.7-44.3,153.4-88.5,230-132.8c38.5-39.2,82.3-71.9,131.8-97.5c37.9-19.6,77.6-35.4,118.4-47
			c251.1-145,502.2-289.9,753.3-434.9l-63.4-36.6c-240.2,138.7-480.4,277.4-720.6,416C1052.5,866.6,952.1,924.5,851.9,982.3z"/>
		<path class="st1" d="M2025.7,1418.3c-14.9,16.3-29.7,32.7-44.7,49c-2.6,2.7-5.8,4.9-9.2,6.5c-27.3,12.8-54.8,25.1-82.1,38
			c-19.9,9.3-39.6,19.2-59.5,28.6c-10.4,4.9-20.8,9.7-31.4,14.1c-5.2,2.2-8.5,2.8-11.7,1.6c-53,30.6-105.9,61.2-158.8,91.7
			c4.2,8.4,6.5,17.6,8.3,26.7c3.4,16.7-8.4,29.2-25.5,27.6c-7.1-0.7-13.2,0.6-19.4,3.4c-32.5,14.2-64.2,29.9-93.5,49.9
			c-33.6,23-65.5,48.2-94.5,76.9c-3.6,3.5-7.1,7-10.7,10.6l99.7-57.6c256.1-147.9,512.1-295.7,768.2-443.5l19-34.2l41.5-0.7
			c24.7-14.2,49.4-28.5,74.1-42.7c30.7-17.7,61.4-35.4,92.1-53.2v-59.3c-65.7,37.9-131.4,75.9-197.1,113.8
			C2202.1,1316.4,2113.8,1367.4,2025.7,1418.3z"/>
		<path class="st1" d="M610.3,1242.2L610.3,1242.2c-0.4,10.9-0.8,21.8-1.1,32.7l0,0C609.6,1264.1,610,1253.1,610.3,1242.2z"/>
		<path class="st1" d="M573.1,1295.8c-24.2,2.4-48.2,5.5-72,9.5c-155.9,90-311.6,180-467.5,269.9v32.1
			c117.4-67.7,234.8-135.6,352.2-203.3C448.2,1367.9,510.7,1331.9,573.1,1295.8z"/>
		<path class="st1" d="M863,1096.4c-9.5,15.3-18.1,31.1-26.2,47.2l0,0C844.8,1127.5,853.3,1111.6,863,1096.4L863,1096.4z"/>
		<path class="st1" d="M1303.2,842.2c19.8-1.7,39.6-2.5,59.3-2.2c110.4-63.8,220.9-127.6,331.3-191.3
			c103.8-59.9,207.7-119.9,311.6-179.9l-27.8-16.1c-29.5,17.1-59,34.1-88.5,51.1C1693.8,616.7,1498.5,729.5,1303.2,842.2z"/>
		<path class="st1" d="M464.8,1589.9l-5.6-9.7c-141.9,81.9-283.8,163.9-425.6,245.7v32.1c154.8-89.3,309.5-178.7,464.3-268
			L464.8,1589.9L464.8,1589.9z"/>
		<path class="st1" d="M713.8,1465.1c0.1,0,0.1,0.1,0.2,0.1c4.3-2.5,8.6-5,12.9-7.5c1-2.2,2.1-4.4,3.2-6.5
			c6.5-12.4,12.6-25.1,18.1-37.8c-71.1,41.1-142.2,82.1-213.3,123.1l5.6,9.7l-16.5,28.6c58-33.5,116.1-67,174.1-100.5
			c1.1-1.7,2.4-3.5,3.4-5.2C704.5,1464.4,708.6,1462.8,713.8,1465.1z"/>
		<path class="st1" d="M1490.4,984.8c-6.3,15.1-13.2,29.8-21,44.2c97-56,194-112,291.1-168l18.2-29.2l30.4,1.1
			c137.8-79.6,275.6-159.1,413.4-238.7l-27.8-16.1c-175.6,101.4-351.2,202.8-526.9,304.2C1608.7,916.5,1549.6,950.7,1490.4,984.8z"
			/>
		<path class="st1" d="M805.2,781.6l-5.6-28.8L33.6,1195v32c55.7-32.2,111.5-64.3,167.2-96.5C402.2,1014.2,603.7,897.9,805.2,781.6z
			"/>
		<path class="st1" d="M1183.5,544.1c1.3,6.5,1.9,12.6,1.9,18c163.6-94.4,327.1-188.9,490.7-283.3l-27.8-16l-467.1,269.6
			L1183.5,544.1z"/>
		<path class="st1" d="M1149.3,563.5l-2.2-11.4L833.7,733l5.6,28.8c80.9-46.7,161.7-93.4,242.6-140.1l-3-18.1L1149.3,563.5z"/>
		<path class="st1" d="M1479.2,1925.9l16.1-25.4c-319.6,184.6-639.2,369-958.9,553.6l14,8.1c36.4-21,72.9-42.1,109.3-63.1
			L1479.2,1925.9z"/>
		<path class="st1" d="M1560.7,1862.7c-20.6,11.9-41.1,23.7-61.6,35.6l26.1,1.1l368.2-212.5c113.9-65.7,227.6-131.5,341.5-197.1
			h-27.9C1991.5,1614.1,1776.1,1738.4,1560.7,1862.7z"/>
		<path class="st1" d="M2342.8,1412.7l-2.6,0.1c-29.9,17.3-59.8,34.5-89.7,51.8l-13.9,24.1c83.6-48.3,167.2-96.5,250.8-144.8v-16.1
			c-47.8,27.6-95.6,55.2-143.4,82.8L2342.8,1412.7z"/>
		<path d="M809.8,2252.1c-30.7,12-61.7,23.5-93,33.9c-75.1,24.9-148.2,55-220.3,87.3l-50.1,29l60.5,34.9l371.7-214.7
			C855.6,2232.4,833.1,2242.9,809.8,2252.1z"/>
		<path class="st2" d="M809.8,2252.1c-30.7,12-61.7,23.5-93,33.9c-75.1,24.9-148.2,55-220.3,87.3l-50.1,29l60.5,34.9l371.7-214.7
			C855.6,2232.4,833.1,2242.9,809.8,2252.1z"/>
		<path d="M2196.4,1421.3h39.5l7.5,13.1l37.1-21.4l-12.5-21.6l-18.1-30.2l0.3-0.5l-889,513.3c-23.9,23.3-47.9,46.4-72.1,69.2
			c-47,44.2-95.1,87.6-147.4,125.6c-4.1,3-8.3,6-12.4,8.9l1055-609l-7.5-13.1L2196.4,1421.3z"/>
		<path class="st2" d="M2196.4,1421.3h39.5l7.5,13.1l37.1-21.4l-12.5-21.6l-18.1-30.2l0.3-0.5l-889,513.3
			c-23.9,23.3-47.9,46.4-72.1,69.2c-47,44.2-95.1,87.6-147.4,125.6c-4.1,3-8.3,6-12.4,8.9l1055-609l-7.5-13.1L2196.4,1421.3z"/>
		<polygon class="st3" points="2250.1,1361.2 2268.2,1391.3 2281.6,1413.7 2340.2,1412.7 2342.8,1412.7 2344,1410.5 2372.6,1359.1 
			2341.1,1306.5 2321.3,1306.9 2279.8,1307.5 2260.8,1341.8 2250.4,1360.6 		"/>
		<path class="st4" d="M496.5,2373.2c72.2-32.3,145.2-62.4,220.3-87.3c31.3-10.4,62.3-21.8,93-33.9c23.3-9.1,45.8-19.7,68.8-29.6
			c1.2-0.5,2.5-1.1,3.7-1.6c44.9-19.4,88.3-41.5,129.8-67.2c10.6-6.6,21.5-12.6,31.9-19.4c28.5-18.8,57.4-37,85.3-56.5
			c4.2-3,8.3-5.8,12.4-8.9c52.4-38,100.3-81.4,147.4-125.6c24.3-22.9,48.3-46,72.1-69.2c10.6-10.3,21.1-20.7,31.7-31.1
			c3.6-3.5,7.1-7,10.7-10.6c29.1-28.7,60.9-53.9,94.5-76.9c29.3-20,61.1-35.7,93.5-49.9c6.2-2.8,12.3-4,19.4-3.4
			c17.1,1.6,28.9-10.9,25.5-27.6c-1.9-9.1-4.1-18.4-8.3-26.7c-2-4-4.4-7.7-7.5-11.2l0,0l0,0c-1.7-3.5-3.9-5.6-6.4-6.9
			c-0.9-0.4-1.8-0.7-2.8-0.9c-3.1-0.6-6.5-0.2-10.1,0.8c-10.4,2.9-20.6,2.3-31.1,0.3c-9.3-1.7-18.8-2.5-28.2-4
			c-33.5-5.5-65.8-15.1-97.6-26.5c-9.3-3.4-18.4-7.6-27-12.4c-2.6-1.4-5-2.9-7.5-4.4c-0.5-0.3-1.1-0.7-1.6-1.1
			c-3.6-2.7-6.5-6.3-9.8-9.5c-2.4,0.4-4.7,1.4-7,1.2c-12.3-1.1-22.7,3.2-31.5,11.2c-9.4,8.8-18.8,17.7-27.1,27.6
			c-12.8,15.1-25.4,30.4-37.9,45.7c-10.8,13.2-21.6,26.4-32.3,39.7c-25.6,31.6-50.6,63.6-76.5,95c-13,15.9-26.8,31.3-41.4,45.8
			c-16.9,16.9-34.7,32.9-52.8,48.7c-44.8,39.2-93.1,73.5-143.3,105.3c-21.8,13.8-43.7,27.8-66.5,39.7c-43.3,22.6-88,42.1-133.5,59.7
			c-74.1,28.6-150.1,51.8-226.1,74.5c-52.7,15.7-105.9,30-157.7,48.2c-19.5,6.9-38,15.5-56.7,24.3c-17.8,8.5-27.6,22.9-32.8,41.2
			c-1.1,4.1-2.2,8.3-2.9,12.6c-0.5,3-1,6-1.3,9.1l169.6,97.7c9.9-4.9,19.8-9.6,29.8-14.2C479.3,2380.9,487.9,2377,496.5,2373.2z"/>
		<path class="st4" d="M1359.1,1461.8c1.3-15,5.3-29.8,8.4-44.6c5.4-25.6,14.1-50.3,23.9-74.5c6-14.9,12.7-29.8,23.9-41.9
			c4.8-5.2,4-10.2,0.8-15.5h0.1c0,0,0,0,0-0.1c-1.6-4.4-3.7-8.5-6.1-12.2c-5.8-9.1-13.6-16.4-22.7-22.6c-12.5-8.5-26.6-5-32.7,8.2
			c-4.1,8.8-10.2,14.9-17.7,20c-16.3,10.8-32.9,21.4-49.4,31.9c-42.8,27.1-89.9,44.9-138,59.4c-41.7,12.6-83.8,23.6-125.8,34.9
			c-46.4,12.5-92.1,27.2-137.6,42.7c-15.7,20.6-29.6,43-41.7,67.1c-1.7,3.4-3.5,6.8-5.2,10.1c-4.4-1.6-9-2.9-13.2-4.9
			c-15.5-7.5-30.8-15.3-46.3-22.9c-2.8-1.3-5.6-2.8-8.5-4.1c0,0,0,0-0.1,0c2.8,1.3,5.6,2.8,8.5,4.1c15.5,7.5,30.8,15.3,46.3,22.9
			c4.2,2,8.8,3.3,13.2,4.9c4.4,2.8,8.6,5.9,13.2,8.3c9.3,4.8,18.8,9.3,27.5,13.5c2.8,14.9,5.3,62.9,3.9,74.5
			c-9,4.6-18.2,2.8-27.3-0.5c-5.2-1.9-8.6-6-10.4-11.2c-1.5-4.5-2.8-9.1-4.1-13.7c-1.2-4.1-1.9-8.5-7.1-11.4c-1.9,1.1-4.6,2-6.3,3.9
			c-2.4,2.9-4.2,6.4-6,9.7c-16.5,31.3-35.8,60.6-57.1,88.4c40-20.8,81.1-39.4,123.1-55.9c64.3-25.3,130-45.3,198.8-54.4
			c22.8-3,45.6-6.4,68.3-9.9c13.7-2.1,27.4-4.2,41.1-6.3c27.9-4.3,55.8-8.8,83.6-13.5c13.6-2.3,27.4-4.7,40.8-8.1
			c16.8-4.2,31.3-12,38-29.5l0,0C1358.9,1493.2,1357.7,1477.4,1359.1,1461.8z"/>
		<path class="st4" d="M611.7,1586.4c5.3-6,10.5-12,15.6-18.1c-3.8,2.2-7.7,4.3-11.5,6.5c-24.6,13.9-47.2,30.8-70.5,46.8
			c-46.5,32-91.3,66.6-133.9,103.6c-14.1,12.2-28.5,24.1-42.6,36.3c-36.4,31.3-74.3,60.8-113,89.1c39-15.1,76.1-34.6,111.9-56.6
			C459.6,1737.5,540.2,1667.2,611.7,1586.4z"/>
		<path class="st4" d="M366.9,2000.5c-40.7,17.6-82.7,31.3-126.4,39.9c-11.3,2.2-22.8,3.2-34,5.4c-6.7,1.3-10.9-1.1-15.1-5.6
			c-14.8-16.1-25.3-34.8-33.5-54.8c-7.4-17.9-12.4-36.8-14.9-56.1c-10.8,7-21.8,13.8-32.9,20.4c-12,7.1-23.7,14.4-35.6,21.6
			c-12.1,7.3-16.7,18.2-14.9,31.7c0.9,7.1,2.9,14,5.8,20.6c3.2,6.8,6.9,13.2,11.1,19.4c0.9,1.3,1.8,2.7,2.8,4
			c22.2,29.9,51.1,51.5,85,66.5c9.5,4.2,19.5,6.9,29.7,8.1c3.1,0.3,6.2,0.6,9.3,0.7c8.9,0.2,17.1-1.5,24.7-6.1
			c6.1-3.7,12.3-7.5,18.2-11.5c21-14.4,40.7-30.7,59.7-47.7c6-5.3,12-10.8,17.8-16.1C338.2,2027.3,352.6,2013.9,366.9,2000.5z"/>
		<path class="st5" d="M1735.7,1063.2c-9.9,5.6-19,12.8-28.4,19.4c-0.8,0.5-1.5,1.1-2.4,1.6c-24.5,16.7-49,33.5-73.4,50.2
			c-16.9,11.7-33.9,23.4-50.7,35.1c-2.4,1.6-4.6,3.4-6.9,5.2c-1.9,1.7-3.4,3.7-4.1,5.8c-0.9,2.6-0.9,5.4,0.1,8.5
			c1.3,4.1,3.1,8,4.6,12c4.6-1.1,9.3-1.7,13.8-3.3c15.3-5.4,31.1-9.6,47-10.9c8.1-0.6,16.1-1,24.2-0.9c10.4,0.1,20.8,1,31.3,3
			c28.4,5.5,54.9,15.7,78.7,32c20.4,14,38.3,31.5,52.8,51.6c1.5,2.2,4,3.8,5.9,5.6c22.8-13,45.6-26.1,68.4-39.2
			c42.6-24.7,85.1-49.8,128-73.9c8.9-5,14.7-11,18.2-20.3c2.2-5.8,1.7-11.2,1.3-16.9c-0.6-7.2,1.5-13.2,6.6-18.2
			c6.1-6,12.2-12,18.7-17.7c1.8-1.6,4.1-2.6,6.5-2.8c6.1-0.2,9.8-2.8,11.5-8.7c1.5-5.4,5.6-7.2,11-7.3c2.2,0,4.9-0.7,6.4-2.2
			c8.9-8.9,19.6-11.1,31.6-8.7c4.8,0.9,9.5,1.2,14-1.1c6.5-3.4,13-2.2,19.5,0.1c5.4,1.9,11,3.4,16.3,5.6c5,2.1,9.1,1,13.5-1.6
			c7.8-4.7,15.7-9.1,23.7-13.6c14.5-8.3,29.2-16.4,43.7-24.7c8.3-4.8,8.3-5,3.6-12.9c-9.3-15.6-18.6-31.3-28.1-46.7
			c-3.2-5.2-6.9-10.1-10.4-15.2c-5.9,0.9-11.9,1.5-17.7,2.8c-0.2,0.1-0.3,0.1-0.5,0.1c-55,12.3-110.2,24.6-165.2,37
			c-83.1,18.5-166.3,37.2-249.3,56.1c-10.6,2.4-21.3,4.8-31.9,7.3C1756.8,1057.8,1745.3,1057.8,1735.7,1063.2z"/>
		<path class="st5" d="M1849.2,1337.8c1,4.2,1.9,8.5,2.8,12.8c0.7,3.2,0.5,6.6,0.5,9.9c0.1,8.6-0.3,17.2,0.1,25.7
			c1.4,28.4-7.1,54.7-18.8,79.8c-10.3,22.4-24.6,42.6-43.3,59.1c-0.1,0.1-0.2,0.2-0.3,0.3l-18.1,16c2.2,2.6,4.4,5.1,6.5,7.6
			c3.2,3.6,5.6,5.8,8.3,6.8c3.2,1.1,6.6,0.5,11.7-1.6c10.6-4.4,21-9.2,31.4-14.1c19.9-9.5,39.6-19.3,59.5-28.6
			c27.3-12.8,54.8-25.2,82.1-38c3.4-1.5,6.6-3.7,9.2-6.5c15-16.3,29.8-32.7,44.7-49c8.6-9.5,17.3-19,26-28.4
			c10.2-11,20.4-22,30.6-32.9c22.4-24,44.9-48,67.3-72c26.1-28,52.2-56.1,78.2-84.1c29-31.2,58.1-62.4,87.1-93.6
			c5.4-5.8,5.5-6,1.2-13.5c-3.6-6.5-7.3-12.9-11-19.4c-7.2-12.7-14.4-25.4-21.6-38.1c-0.7-1.3-1.3-2.8-2.4-3.5
			c-1.5-0.9-3.2-1.5-5-1.5c-1.3,0-2.6,1.1-3.8,1.8c-22.8,13.1-45.6,26.3-68.5,39.2c-5.1,2.9-7.7,6.8-8.7,12.3
			c-1.1,6.1-2.4,12.2-3.5,18.3c-0.9,4.8-2.5,9.5-6.7,12.2c-6,3.9-8.9,9.5-11,16.1c-3,9.2-10.1,15.1-18.8,18.5
			c-4.2,1.7-7.7,3.2-9.8,7.4c-1.5,3.2-5,4.9-8.5,4.2c-7.3-1.5-13,0-17.3,6.6c-1.3,2.1-4.6,3.2-7.3,4.2c-4.5,1.6-9.1,2.8-13.7,4.1
			c-11,3.2-21.6,4.2-31.1-4.3c-1-1-2.3-1.8-3.6-2.3c-10-3-19.6-5.8-30,0.3c-30.5,17.9-61.5,35.2-92.2,52.7
			c-36.6,20.8-73.1,41.7-109.8,62.6c0.9,3.2,1.6,6.5,3,9.5C1841.3,1308.8,1845.8,1323.1,1849.2,1337.8z"/>
		<path class="st6" d="M1822.3,1272.7c-14.5-20.1-32.4-37.6-52.8-51.6c-23.8-16.4-50.3-26.5-78.7-32c-10.4-2-20.8-2.9-31.3-3
			c-8.1-0.1-16.1,0.3-24.2,0.9c-15.9,1.3-31.7,5.4-47,10.9c-4.4,1.5-9.1,2.2-13.7,3.3c-3.9,2.6-7.5,5.6-11.7,7.7
			c-21.4,10.8-39.9,25.3-56.1,43c-3.5,3.8-7.1,7.7-10.6,11.5c-3.8,6-8,11.8-11.4,18.1c-6.5,12.2-13.3,24.4-18.3,37.2
			c-6.4,16-10.1,32.8-10.4,50.1c-0.1,8,0,16,0,23.9c0,2.1,0,4.1-0.1,6.2c-0.4,19,4.5,36.8,11.3,54.2c2.6,6.6,4.2,13.6,6.3,20.4
			c5.8,5.3,9.9,11.6,11,19.7c4.2,3.9,9,7.2,12.4,11.7c6.5,8.8,13.8,16.7,21.8,23.7c11.8,10.4,24.9,19,39.3,26.3
			c11.2,5.6,22.4,10.8,34.2,14.8c7.1,2.4,14.2,4.4,21.6,5.8c0.9,0.2,1.7,0.7,2.7,0.9c9.9,1.2,19.7,2.8,29.6,3.3
			c8.5,0.5,17.1,1.1,25.4-1.9c2.6-0.9,5.6-0.3,8.5-0.5l0,0c0,0,0,0,0.1,0c11.6-1.6,22.7-4.1,33.6-7.5c17-5.3,33.1-12.8,48.5-22.6
			c3.2-2,6.6-3.7,9.9-5.5l18.1-16c0.1-0.1,0.1-0.1,0.2-0.2c18.8-16.6,33.1-36.8,43.5-59.3c11.6-25.1,20.2-51.4,18.8-79.8
			c-0.4-8.6-0.1-17.2-0.1-25.7c-0.1-3.4,0.1-6.8-0.5-9.9c-0.9-4.3-1.8-8.6-2.8-12.8c-3.5-14.7-7.9-29.1-14.2-42.9
			c-1.3-3-2-6.3-3-9.5c-3.2-1.3-4.6-3.6-3.8-7.1l0,0C1826.3,1276.5,1823.9,1274.9,1822.3,1272.7z M1794.9,1381.9
			c0.1,9.7-0.7,19.2-2.4,28.4c-3.6,20.2-11.6,39.2-24.5,56.1c-21.4,28.4-49.7,47.2-85.4,53.4c-8.4,1.4-16.9,2.5-25.3,3.7
			c-33.5-0.4-63.2-11.1-88.9-31.7c-18.4-14.8-32.4-33.3-41.3-55.9c-5.8-14.9-8.9-30.2-10.2-45.8c-0.8-9.7,0.1-19.3,2-28.8
			c0.4-1.9,0.8-3.7,1.3-5.6c1.4-5.4,3.1-10.8,5-16.1c7.2-20,17.4-38.4,33.3-52.7c22.4-20,47.8-34.6,78.6-37.8
			c7.5-0.8,15-3.3,22.6-2.3c12.5,1.6,25,3.3,37.1,6.9c3.8,1.1,7.7,2.4,11.5,4c18.9,7.8,35.3,18.7,49.3,33.5
			c9.9,10.4,17.9,22.4,23.9,35.5c5.5,12.1,10.5,24.6,10.9,38.3c0.1,1.7,0.3,3.5,0.6,5.2C1793.9,1374.1,1794.9,1378,1794.9,1381.9z"
			/>
		<path class="st7" d="M1456.2,1368.8c0.3-17.3,4-34.1,10.4-50.1c5.1-12.8,11.9-24.9,18.3-37.2c3.3-6.3,7.5-12.1,11.4-18.1
			c-3.4-3.4-6.6-6.9-10.1-10c-4.3-3.8-9.3-4.8-14.6-2c-5,2.6-10.1,5.2-14.9,8.4c-10.2,6.9-20.3,14.2-30.4,21.3
			c-3.1,2.2-6,4.7-10.2,4.2h-0.1c3.2,5.4,4,10.4-0.8,15.5c-11.2,12.1-17.8,27-23.9,41.9c-9.8,24.2-18.5,48.9-23.9,74.5
			c-3.2,14.9-7.1,29.6-8.4,44.6c-1.4,15.6-0.2,31.4-0.1,47.1l0,0c18.6-1.3,37.2-2.8,55.8-4c4.3-0.2,8.5-1.5,12.2-3.6
			c15.6-9.3,31.2-18.5,46.8-27.8c-2.1-6.8-3.7-13.8-6.3-20.4c-6.8-17.5-11.7-35.3-11.3-54.2c0.1-2.1,0.1-4.1,0.1-6.2
			C1456.2,1384.8,1456,1376.8,1456.2,1368.8z"/>
		<path class="st8" d="M1625,1631.5c6.3-3.2,13-5.8,19.4-8.9c10.6-5.2,21.2-10.4,31.7-15.9c6.3-3.3,8.3-8.9,7.1-15.6
			c-0.2-1.1-0.4-2.2-0.6-3.2c-0.7-3.6-1.5-7.1-2.4-10.6l0,0c-2.8,0.1-5.9-0.4-8.5,0.5c-8.3,3-16.9,2.4-25.4,1.9
			c-9.9-0.5-19.8-2.1-29.6-3.3c-0.9-0.1-1.7-0.7-2.7-0.9c-7.4-1.4-14.6-3.4-21.6-5.8c-11.8-4-23.1-9.1-34.3-14.8
			c-14.4-7.3-27.6-15.9-39.3-26.3c-7.9-7.1-15.3-14.9-21.8-23.7c-3.4-4.5-8.2-7.8-12.4-11.7c-10.1,5.4-19.8,11.5-30.3,16.1
			c-15.9,7.1-27.8,17.6-36.2,32.9c-5.7,10.3-12.9,19.9-19.5,29.8l0.1,0.1c3.3,3.2,6.3,6.8,9.8,9.5c0.5,0.3,1,0.7,1.5,1.1
			c2.5,1.5,5,3,7.6,4.5c8.7,4.8,17.7,9,27,12.4c31.8,11.5,64.1,21,97.6,26.5c9.3,1.5,18.8,2.3,28.2,4c10.4,1.9,20.7,2.6,31.1-0.3
			c3.6-1,7.1-1.4,10.1-0.8c0.9,0.2,1.9,0.5,2.8,0.9c2.6,1.2,4.7,3.4,6.4,6.9l0,0C1622.1,1634.9,1623.2,1632.4,1625,1631.5z"/>
		<path class="st9" d="M1793.2,1370.2c-0.3-1.7-0.5-3.4-0.6-5.2c-0.5-13.8-5.4-26.2-10.9-38.3c-5.9-13.1-14-25.1-23.9-35.5
			c-14-14.8-30.4-25.7-49.3-33.5c-3.8-1.5-7.7-2.9-11.6-4c-12.2-3.5-24.6-5.2-37.1-6.9c-7.7-1-15.1,1.5-22.6,2.3
			c-30.8,3.2-56.2,17.7-78.6,37.8c-15.9,14.2-26.1,32.7-33.3,52.7c-1.9,5.3-3.6,10.7-5,16.1c-0.5,1.9-0.9,3.7-1.3,5.6
			c-1.9,9.4-2.9,19-2,28.8c1.3,15.5,4.4,30.8,10.2,45.8c8.9,22.5,22.9,41.1,41.3,55.9c25.7,20.7,55.4,31.3,88.9,31.7
			c8.5-1.2,16.9-2.3,25.3-3.7c35.8-6.1,64-25.1,85.4-53.4c12.8-16.9,20.8-35.9,24.5-56.1c1.7-9.2,2.4-18.7,2.4-28.4
			C1794.9,1378,1793.9,1374.1,1793.2,1370.2z"/>
		<path class="st10" d="M657.3,989.7l-8.1-14l-301.6,174.1c21.6-5.2,43.5-9.8,65.6-13.7c42.5-7.5,85.2-11.9,128.4-10.8
			c4.3,0.1,8.7,0.3,12.9-0.3c3-0.4,5.8-2.1,10.2-3.8c-2.6-4.2-4.2-7.5-6.5-10.2c-3.1-3.6-6.5-7.1-10.1-10.2c-10-8.9-5.8-28.9,4.6-37
			c3.5-2.7,7.1-2.3,10.6,0.1c7.9,5.3,15.9,10.6,23.9,15.9c6.8,4.5,13.4,9.3,20.3,13.5c6.2,3.8,8.7,8.7,8.4,15.8l79.8-46L657.3,989.7
			z"/>
		<polygon class="st11" points="696.1,1063.9 709.7,1064.4 797.6,1068 851.9,982.3 851.9,982.3 804.8,892.3 703.3,888.2 649,973.9 
			657.3,989.7 695.7,1063.1 		"/>
		<path class="st12" d="M875.4,2382.4c45.6-25.3,92.1-48.3,139.3-69l473.9-273.6l-30.2-57.5l-6.7-11.5l-876.3,505.9l78.2,45.2
			l90.1-52C783.9,2436.1,828.9,2408.1,875.4,2382.4z"/>
		<polygon class="st13" points="1496.7,1898.2 1495.3,1900.6 1479.2,1925.9 1451.7,1969.3 1458.4,1982.2 1488.6,2039.8 
			1490.8,2043.9 1559,2046.7 1574.8,2047.3 1584.6,2031.8 1619.9,1976.3 1596.9,1932.6 1580.7,1901.7 1525.1,1899.4 1499,1898.4 		
			"/>
		<path class="st14" d="M1678.2,2051.6c5.9-1.9,12.1-3.5,18.6-4.7c14.3-2.6,29-3.3,43.6-4.8c38.6-28.4,78.7-53,124.6-69.6
			c33.5-12.2,67-24.4,100.5-36.8l368.9-210.7l-12.1-20.7l-9.2-15.2L1678.2,2051.6z"/>
		<path class="st14" d="M1632.8,2077.5l-107.9,61.6c7.3,4.2,14.4,8.6,21.3,13.3c13.8,9.5,21.2,9.7,30.6-3.1
			c3.4-4.7,8.5-8.1,12.8-12.2c0,0,0,0,0-0.1C1601,2113.7,1614.9,2093.3,1632.8,2077.5z"/>
		<path class="st14" d="M1649.8,2115.9L1649.8,2115.9c13.7-14.4,31.7-24.9,51.7-29.5l0.1-0.1
			C1681.5,2091,1663.6,2101.5,1649.8,2115.9z"/>
		<path class="st14" d="M1740.4,2042c2.8,2.1,5.4,5.3,8.5,6.1c4.4,1.1,8.6,2.4,12.8,3.9l0,0c-4.2-1.5-8.4-2.8-12.7-3.9
			C1745.7,2047.3,1743.2,2044.1,1740.4,2042z"/>
		<path class="st14" d="M956.4,2472.9c-47.9,32.6-91.3,69.7-128.6,112.6l416.4-237.9C1141.3,2367.6,1046,2411.9,956.4,2472.9z"/>
		<polygon class="st15" points="2313,1688.9 2322.2,1704.1 2335.2,1725.6 2394.3,1724.6 2423,1673.5 2392.6,1623.4 2384.9,1623.5 
			2333.5,1624.3 2309.6,1667 2304.8,1675.4 		"/>
		<path class="st16" d="M1501,2503.2c9.3-10.5,18.4-21,27.5-31.7c18.3-21.6,38-30.4,64.2-26.8c2.5,0.3,5,0.8,7.4,1.3
			c12.9,2.6,25.5,7.1,38.5,9.1c5.1,0.7,15.4-3.8,15.9-7.2c1.9-12.1,4-24.3,5.6-36.6c1.5-12.1,2.6-24.2,2.8-36.3c0-0.5,0-1.1,0-1.7
			c0-40-1.4-40,35.9-53c-1.3-0.4-2.7-0.8-4-1.2c-10.7-3.4-20.8-7.5-30.2-12.4c-0.2-0.1-0.5-0.2-0.7-0.3c-0.3-0.1-0.6-0.3-0.9-0.5
			c-29-15.7-51.1-38.9-63.6-71.1c-1.1-3-2.2-6-3.2-9.1c-7.3-22.9-4.9-48.8-6.7-73.3c-0.3-5,0.1-10.1,0.2-15.1
			c-4.3,4-9.4,7.5-12.8,12.2c-9.4,12.8-16.7,12.6-30.6,3.1c-6.9-4.7-14-9.1-21.3-13.3c-5.6-3.2-11.3-6.3-17.1-9.3
			c-12.5-6.5-25.3-12.6-37.9-18.8c-6.7-3.2-12.2-4.8-16.7-3.4c-1.3,0.4-2.6,1.1-3.7,2.2c-3.2,2.8-5.4,8.1-6.7,16.6
			c-2.7,18.5-11.4,37-21.4,53.3c-0.7,1.1-1.3,2.2-2.1,3.3c-6.3,9.8-20.4,18.4-32.1,20.4c-3.2,0.5-6.3,1-9.4,1.5
			c-50.9,8.6-101.1,19.6-150.3,33.1c-72.8,20-143.7,45.2-212.8,75.3c-47.2,20.7-93.7,43.7-139.3,69c-46.5,25.7-91.4,53.7-131.6,87.5
			c-23.7,19.8-45.6,41.7-65.3,66.3l128.7,74.3c6.7-8.6,13.6-16.9,20.6-25.1c37.4-42.9,80.7-80,128.6-112.6
			c89.6-61,184.8-105.3,287.7-125.3c43.1-8.3,87.5-12.4,133.5-11.6c26.2,0.5,45.5-4,60.3-25.6c2.2-3.2,6.6-6,10.4-6.9
			c24.7-5.1,49.5-9.8,74.3-14.2c4.1-0.7,8.5,0.3,12.8,0.6c-1.9,4.3-2.8,9.5-5.8,12.7c-14.7,15.7-33,29.2-44,47
			c-7.5,12.2-15.1,16.4-27.4,19.4c-10.1,2.5-23.8,6.4-28.2,14c-100.5,175.4-239.8,290.2-416.8,346.3l130.4,75.3
			C1278.5,2725.2,1395.9,2621.9,1501,2503.2z"/>
		<path class="st17" d="M1740.4,2042c2.8,2.1,5.4,5.3,8.6,6.1c4.4,1.1,8.6,2.4,12.7,3.9c72,25.2,111.6,99.3,91.3,174.7
			c-1,3.6,0.5,7.9,0.9,11.9c32.1-17,67.7-29.7,95.8-51.9c108-85.5,213.6-174.1,320-261.6c37.8-31,75.7-61.8,113-93.5
			c4.6-3.9,5-12.8,7.3-19.3c-5.8,0.9-12.4,0.3-17.1,3c-164.7,94.9-329.5,189.7-494.3,284.3c-6.6,3.8-15.1,4.4-22.6,6.5
			c5.6-5.2,10.6-11.8,17.1-15.5c166.1-95.5,332.1-191.1,498-286.7c3.6-2.1,5.6-7.3,8.3-11c-5.4-1.9-10.6-4.4-16.1-5.3
			c-3-0.5-6.5,1.9-9.7,3.2c-129.3,48.3-258.4,97.1-387.9,144.9c-33.5,12.4-66.9,24.6-100.5,36.8
			C1819.1,1989,1779,2013.7,1740.4,2042z"/>
		<path class="st18" d="M1740.4,2042c-14.5,1.5-29.2,2.2-43.6,4.8c-6.5,1.2-12.7,2.8-18.6,4.7c-17.5,5.7-32.5,14.6-45.4,25.9
			c-17.9,15.7-31.8,36.2-43.1,59.6c0,0,0,0,0,0.1c-0.1,5-0.5,10.1-0.2,15.1c1.8,24.5-0.5,50.5,6.7,73.3c1,3.1,2.1,6.1,3.2,9.1
			c12.6,32.2,34.7,55.4,63.6,71.1c0.3,0.2,0.6,0.3,0.9,0.5c0.2,0.1,0.5,0.2,0.7,0.3c9.4,4.9,19.4,9.1,30.2,12.4
			c1.3,0.4,2.7,0.8,4,1.2c25.1,2.6,48.1,0.8,68.7-5.8c17.2-5.5,32.8-14.4,46.6-26.9c11.6-10.6,21.9-23.7,30.8-39.6
			c2.1-3.7,5.9-6.4,8.9-9.5c-0.3-4-1.9-8.3-0.9-11.9c20.3-75.4-19.4-149.5-91.3-174.7c-4.2-1.5-8.4-2.8-12.8-3.9
			C1745.7,2047.3,1743.2,2044.1,1740.4,2042z M1724.7,2083.7L1724.7,2083.7c39.5,0,73.2,21.6,90.1,53.6
			c7.5,14.1,11.6,30.2,11.6,47.5l0,0l0,0c0,0.3,0,0.5,0,0.9c-0.3,21.3-7.3,41.1-19.2,57.3c-18.8,25.7-49.4,42.5-83.7,42.4
			c-55.4-0.1-101.5-46.7-101.1-102.4v-0.1c0.1-25.7,10.7-49.3,27.6-67.1c13.7-14.4,31.7-24.9,51.8-29.6
			C1709.1,2084.6,1716.8,2083.7,1724.7,2083.7z"/>
		<path class="st19" d="M1649.9,2115.9c-16.9,17.7-27.5,41.4-27.6,67.1v0.1c-0.3,55.7,45.6,102.3,101.1,102.4
			c34.3,0.1,65-16.7,83.7-42.4c11.9-16.3,19-36,19.2-57.3c0-0.3,0-0.5,0-0.9l0,0c0.1-17.2-4.1-33.4-11.6-47.5
			c-16.9-32.1-50.7-53.6-90.1-53.6c-7.9,0-15.7,0.9-23.2,2.6C1681.5,2091,1663.6,2101.5,1649.9,2115.9z"/>
		<path class="st20" d="M726.9,1457.7c-1.1,2.5-2.4,5-3.5,7.6c0.6,4.2,3.4,6.6,7.1,8.3c13.5,6.5,27.1,12.9,40.6,19.4
			c2.8,1.3,5.6,2.7,8.5,4.1c15.5,7.5,30.8,15.4,46.3,22.9c4.2,2,8.8,3.3,13.2,4.9c1.7-3.4,3.5-6.8,5.2-10.1
			c12.1-24.2,26-46.6,41.7-67.1c34.2-44.7,77.4-80.7,130.5-106.6c2.1-1,4-2.6,6-3.8l3-1.4c-0.1,0-0.1,0-0.1,0
			c7.5-5.1,14.9-10.2,22.4-15.2c44.6-29.4,89.3-58.9,134-88.2c4-2.6,8.2-4.8,12.2-7.4c6.4-4.2,11-10.4,9.1-19.2
			c-0.5-2.4-1.6-5-3.4-7.9c-18.3-30.2-36-60.8-54-91.2c-0.9-1.6-1.7-3.4-2.8-5.4l0,0c0,0,0,0,0-0.1c6-8.1,15.2-11.4,23.3-16.1
			c-2.5-6.2-5.4-12.2-7.5-18.5c-4.4-13.4,0.9-27.1,12.8-34.6c9.7-6.1,19.4-12.3,28.8-18.8c5.7-3.8,11.9-5.8,18.5-7.2
			c4.6-0.9,9.9-1.7,13.3-4.5c10.3-8.7,21.6-14,35.2-13.8c0.9,0,1.9-0.3,2.8-0.8c8.7-5.9,17.8-4.9,27.5-2.4
			c5.3,1.4,11.3,3.4,16.8,0.1c14.8-8.6,29.6-17.3,44.7-26.2c0-3.5-0.2-6.4,0-9.2c0.7-10.4,2.4-12,12-15c5.4-1.5,10.7-3.7,15.7-6.4
			c4.9-2.8,9.6-4.7,14.9-2c5.9,3.1,10.8,1.5,16.1-1.7c29.2-17.3,58.5-34.4,87.7-51.7c2.2-1.3,3.8-3.2,6.7-5.6
			c-3.3-1.5-4.9-2.4-6.7-3c-8.7-2.8-17.3-5.8-26-8.1c-38.7-10.2-77.8-15.2-117.1-15.9c-19.7-0.3-39.5,0.4-59.3,2.2
			c-4.8,0.4-9.5,0.9-14.2,1.4c-35.8,3.8-71,10.8-105.4,20.6c-40.9,11.6-80.5,27.4-118.4,47c-49.5,25.5-93.2,58.2-131.8,97.5
			c-9.1,9.3-17.9,18.9-26.4,28.8c-10.2,12-20.7,23.7-31.1,35.6c-1.4,3.4-2.3,7.2-4.3,10.2c-3,4.4-5.8,8.7-8.6,13.2
			c-9.5,15.3-18.1,31.1-26.2,47.2c-2.4,4.8-4.7,9.5-7.1,14.3c-12,24.9-21.6,50.9-28.4,77.6c-5.1,19.8-9.5,39.7-14.4,59.5
			c-0.5,2.2-2,4.2-3,6.2c-0.1,2.4,0.1,4.8-0.4,7.1c-8.9,36-20.5,71.1-35.2,104.9c-5.6,12.8-11.6,25.4-18.1,37.8
			C728.9,1453.2,727.9,1455.5,726.9,1457.7z M1123,1121.9c-0.7,16.3-14.3,29.8-30.7,29.6c-15.9-0.1-31.1-13.3-31.5-27.8
			c0-0.9,0-1.9,0.1-2.9c2.1-19.8,15.9-31.5,32-29.8l0,0c1.7-0.2,3.3-0.2,4.9,0c14.8,1.4,25.1,16.3,25.3,29.5
			C1123,1121,1123,1121.4,1123,1121.9z"/>
		<path class="st21" d="M191.4,2040.2c4.2,4.6,8.5,7,15.1,5.6c11.2-2.3,22.7-3.2,34-5.4c43.7-8.6,85.8-22.3,126.4-39.9
			c6.8-3,13.5-6,20.2-9.1c138.2-65,255.1-157.7,353.5-274c8.5-10.1,16.8-20.4,24.8-30.8c21.4-27.9,40.7-57.2,57.1-88.4
			c1.7-3.4,3.6-6.9,6-9.7c1.6-1.9,4.4-2.8,6.3-3.9c5.1,3,5.8,7.3,7.1,11.4c1.3,4.6,2.6,9.2,4.1,13.7c1.7,5.2,5.2,9.3,10.4,11.2
			c9.1,3.3,18.3,5,27.3,0.5c1.4-11.6-1-59.7-3.9-74.5c-8.7-4.2-18.1-8.7-27.5-13.5c-4.6-2.4-8.8-5.5-13.2-8.3
			c-4.4-1.6-9-2.9-13.2-4.9c-15.5-7.5-30.8-15.3-46.3-22.9c-2.8-1.3-5.6-2.8-8.5-4.1c-13.5-6.5-27-13-40.6-19.4
			c-3.6-1.7-6.5-4-7.1-8.3c-3.2,1.8-6.2,1.3-9.3-0.1c-0.1,0-0.1-0.1-0.2-0.1c-5.1-2.3-9.3-0.7-12.3,4c-1.1,1.7-2.3,3.5-3.4,5.2
			c-0.2,0.3-0.3,0.5-0.5,0.7c-21.7,32.4-45.2,63.5-70.3,93.2c-5.1,6-10.4,12.1-15.6,18.1c-71.4,80.8-152,151.1-244.1,207.6
			c-35.8,22-72.9,41.5-111.9,56.6c-14,5.4-28.3,10.3-42.9,14.4c-21.5,6.2-43.6,10.3-67.1,15.7c-3.8,11.4-4.9,24.5-3.8,38
			c0.3,3.6,0.7,7.1,1.1,10.7c2.5,19.2,7.5,38.1,14.9,56.1C166.1,2005.4,176.6,2024.1,191.4,2040.2z"/>
		<path class="st21" d="M271.5,1369.6c30.4-12,61.2-22.8,92.2-32.1c45.1-13.6,90.9-24.4,137.4-32.1c23.8-4,47.8-7.1,72-9.5
			c5.6-0.5,11.4-1.1,17-1.5c5.1-0.4,10.1-1.5,15.5-2.4c1.3-5.6,2.5-10.2,3.6-14.8c0-0.7,0.1-1.4,0.1-2.2c0.3-11,0.7-21.8,1.1-32.7
			c0-0.1,0-0.3,0-0.4c0.2-4.9,0.3-9.7,0.5-14.7c0.2-5.7,0.5-11.4,0.7-17.1c1.1-21.4,2.2-42.8,3.3-64.2l0,0c0.2-9,0.2-18,0.5-27
			c0.1-3,0.3-5.8,0.5-8.8c0-0.3,0-0.6,0.1-0.9c0.3-7.1-2.2-12-8.4-15.8c-6.9-4.2-13.5-9-20.3-13.5c-7.9-5.3-15.9-10.6-23.9-15.9
			c-3.6-2.4-7.1-2.8-10.6-0.1c-10.6,8.1-14.7,28.1-4.6,37c3.6,3.2,7,6.6,10.1,10.2c2.3,2.8,3.9,6,6.5,10.2
			c-4.4,1.7-7.3,3.4-10.2,3.8c-4.2,0.6-8.6,0.3-12.9,0.3c-43.2-1.1-85.9,3.4-128.4,10.8c-22.1,3.9-44,8.5-65.6,13.7
			c-71.7,17.4-141,42.3-208,74.3c-36.6,17.5-72,36.8-105.9,58.3v226c13.2-11.6,27.2-22.5,41.5-33
			C135.7,1431.2,201.9,1397.1,271.5,1369.6z"/>
		<path class="st22" d="M1145.8,1106.6c17.9,30.4,35.8,61,54,91.2c1.7,2.8,2.8,5.4,3.4,7.9c2,8.7-2.7,15.1-9.1,19.2
			c-4,2.6-8.3,4.8-12.2,7.4c-44.7,29.4-89.4,58.7-134.1,88.2c-7.5,5-14.9,10.1-22.4,15.2c0.1,0,0.1,0,0.1,0l0.2-0.1l-0.2,0.1
			c13.9-3,27.8-5.8,41.7-9c135.4-31.4,249.1-98.8,339-205c24.6-29,45.7-59.9,63.2-92.6c7.7-14.4,14.7-29.1,21-44.2
			c11.8-28.2,21-57.7,27.6-88.4c1.1-4.9,2.8-9.8,1.7-14.9c-1.3-0.1-1.9-0.3-2.2-0.1c-32.1,19.1-64.1,38.1-96.2,57.1
			c-3.5,2.1-6,4.6-6.4,8.9c-0.7,6.4-4.6,10-10.1,12.8c-3.8,2-7.3,4.6-10.2,7.6c-10.5,10.5-10.4,10.6-24.3,3.9
			c-0.8-0.4-1.8-0.2-3.6-0.3c-13,7.7-26.3,16.1-40.1,23.7c-8.1,4.4-13.6,10.1-15.3,19.4c-1.2,6.9-4.9,12.1-10.8,16.3
			c-3.8,2.8-7.1,6.3-9.6,10.4c-4.4,6.7-10.1,11.6-17.5,14.2c-7.9,2.9-14,7.5-19.4,14.1c-3.8,4.6-9.1,8.3-14.4,11.4
			c-9.5,5.6-19.4,10.2-29.1,15.5c-13.2,7.3-27,5.2-37.7-5.8c-1.9-2-4.2-3.7-6.4-5.5c-8.1,4.7-17.3,7.9-23.3,16l0,0
			C1144,1103.2,1144.8,1105,1145.8,1106.6z"/>
		<path class="st22" d="M871.6,1083.2c2-3,2.9-6.8,4.3-10.2c-17.7,12.1-36,23.3-55.6,32.1c-35.6,16.1-73.1,28-111.5,35.3
			c-1.8,0.3-3.6,0.7-5.4,1c-29.2,5.3-58.6,8.3-88.3,4.4l0,0c-1.1,21.4-2.2,42.8-3.3,64.2c-0.3,5.7-0.5,11.4-0.7,17.1
			c-0.2,4.9-0.3,9.7-0.5,14.7c0,0.1,0,0.3,0,0.4c-0.4,10.9-0.7,21.8-1.1,32.7c0,0.7-0.1,1.4-0.1,2.2c41.5,0.1,82.7,3.9,123.3,12.4
			c17.2,3.6,34.3,7.9,51.4,11.8c1-2.1,2.5-4,3-6.2c4.8-19.8,9.3-39.8,14.4-59.5c6.9-26.7,16.4-52.8,28.4-77.6
			c2.3-4.8,4.6-9.5,7.1-14.3c8.1-16.1,16.7-31.9,26.2-47.2C865.7,1091.9,868.6,1087.6,871.6,1083.2z"/>
		<line class="st0" x1="1025.5" y1="1335.6" x2="1025.7" y2="1335.5"/>
		<line class="st0" x1="1025.5" y1="1335.6" x2="1022.5" y2="1337"/>
		<path class="st23" d="M1097.7,1091c-1.6-0.1-3.2-0.1-4.9,0c-16.1-1.7-29.8,10.1-32,29.8c-0.1,0.9-0.1,1.9-0.1,2.9
			c0.5,14.5,15.7,27.6,31.5,27.8c16.4,0.2,30-13.3,30.7-29.6c0-0.5,0-0.9,0-1.4C1122.8,1107.3,1112.4,1092.4,1097.7,1091z"/>
		<polygon points="811.7,1879.9 825.7,1855.8 811.7,1831.6 783.9,1831.6 769.9,1855.8 783.9,1879.9 		"/>
		<polygon class="st24" points="811.7,1879.9 825.7,1855.8 811.7,1831.6 783.9,1831.6 769.9,1855.8 783.9,1879.9 		"/>
		<path d="M1775.5,925.7l54.2,1.9l28.8-46l-25.5-47.9l-23.7-0.8c-16.2,9.3-32.5,18.8-48.7,28.1l-10.6,16.9L1775.5,925.7z"/>
		<path class="st25" d="M1775.5,925.7l54.2,1.9l28.8-46l-25.5-47.9l-23.7-0.8c-16.2,9.3-32.5,18.8-48.7,28.1l-10.6,16.9
			L1775.5,925.7z"/>
		<path class="st1" d="M1778.7,831.8l-18.2,29.2c16.2-9.3,32.5-18.8,48.7-28.1L1778.7,831.8z"/>
		<path class="st25" d="M1778.7,831.8l-18.2,29.2c16.2-9.3,32.5-18.8,48.7-28.1L1778.7,831.8z"/>
		<path d="M2236,1489.7l0.6-1.1c-0.6,0.3-1.3,0.7-1.9,1.1H2236z"/>
		<path class="st26" d="M2236,1489.7l0.6-1.1c-0.6,0.3-1.3,0.7-1.9,1.1H2236z"/>
		<path d="M2243.6,1434.4l-59.3,34.2l12.2,21.1h10.4c14.6-8.4,29.2-16.8,43.7-25.3l5.2-9L2243.6,1434.4z"/>
		<path class="st26" d="M2243.6,1434.4l-59.3,34.2l12.2,21.1h10.4c14.6-8.4,29.2-16.8,43.7-25.3l5.2-9L2243.6,1434.4z"/>
		<path class="st1" d="M2234.7,1489.7c0.6-0.3,1.3-0.7,1.9-1.1l13.9-24.1c-14.6,8.4-29.2,16.8-43.7,25.3L2234.7,1489.7
			L2234.7,1489.7z"/>
		<path class="st26" d="M2234.7,1489.7c0.6-0.3,1.3-0.7,1.9-1.1l13.9-24.1c-14.6,8.4-29.2,16.8-43.7,25.3L2234.7,1489.7
			L2234.7,1489.7z"/>
		<polygon points="2236,1421.3 2196.4,1421.3 2176.7,1455.5 2184.3,1468.6 2243.6,1434.4 		"/>
		<polygon class="st2" points="2236,1421.3 2196.4,1421.3 2176.7,1455.5 2184.3,1468.6 2243.6,1434.4 		"/>
		<polygon class="st26" points="2236,1421.3 2196.4,1421.3 2176.7,1455.5 2184.3,1468.6 2243.6,1434.4 		"/>
		<path d="M2096.4,1608.2h-34.3l-17.1,29.6l15.6,27c17.1-9.9,34.3-19.8,51.3-29.6L2096.4,1608.2z"/>
		<path class="st27" d="M2096.4,1608.2h-34.3l-17.1,29.6l15.6,27c17.1-9.9,34.3-19.8,51.3-29.6L2096.4,1608.2z"/>
		<path class="st1" d="M2096.4,1667.5l17.1-29.6l-1.5-2.6c-17.1,9.9-34.3,19.8-51.3,29.6l1.5,2.6H2096.4z"/>
		<path class="st27" d="M2096.4,1667.5l17.1-29.6l-1.5-2.6c-17.1,9.9-34.3,19.8-51.3,29.6l1.5,2.6H2096.4z"/>
		<polygon points="2322.1,989.1 2332.5,971 2322.1,953 2301.2,953 2290.8,971 2301.2,989.1 		"/>
		<polygon class="st28" points="2322.1,989.1 2332.5,971 2322.1,953 2301.2,953 2290.8,971 2301.2,989.1 		"/>
		<path d="M515.3,1589.9l8.7-15.1c-8.7,5-17.4,10-26.1,15.1H515.3z"/>
		<path class="st29" d="M515.3,1589.9l8.7-15.1c-8.7,5-17.4,10-26.1,15.1H515.3z"/>
		<path d="M534.9,1536.5l-19.6-34h-50.5l-25.2,43.7l19.6,34c9.5-5.5,19.1-11,28.6-16.5C503.5,1554.6,519.2,1545.5,534.9,1536.5z"/>
		<path class="st29" d="M534.9,1536.5l-19.6-34h-50.5l-25.2,43.7l19.6,34c9.5-5.5,19.1-11,28.6-16.5
			C503.5,1554.6,519.2,1545.5,534.9,1536.5z"/>
		<path class="st1" d="M534.9,1536.5c-15.7,9.1-31.4,18.1-47.1,27.2c-9.5,5.5-19.1,11-28.6,16.5l5.6,9.7h33.1
			c8.7-5,17.4-10,26.1-15.1l16.5-28.6L534.9,1536.5z"/>
		<path class="st29" d="M534.9,1536.5c-15.7,9.1-31.4,18.1-47.1,27.2c-9.5,5.5-19.1,11-28.6,16.5l5.6,9.7h33.1
			c8.7-5,17.4-10,26.1-15.1l16.5-28.6L534.9,1536.5z"/>
		<path class="st30" d="M712.3,450.8l-34.2,19.6l22.7,117.3l-82.9,47.4c-11.3,6.5-18.9,13.7-22.9,21.9c-5.1,9.9-6,23.1-2.8,39.7
			l14.2,73.7c2.4,12.7,8.4,21,17.8,24.9c8.3,3.2,16.9,2.2,25.8-2.9l115.6-66L712.3,450.8z M641.8,750.1l-14.2-73.7l81.4-46.4
			l14.2,73.7L641.8,750.1z"/>
		<path class="st30" d="M825.9,692l81.8-46.7c11.6-6.6,19.4-13.9,23.7-22c5.5-10.6,6.7-24.1,3.5-40.5L920.7,510
			c-2.6-13.2-8.3-21.5-17.1-25.1s-17.7-2.9-26.6,2.2l-116,66.2l38.6,199.5l5.6,28.8l4.6,23.8l34.2-19.6l-4.6-24l-5.6-28.8L825.9,692
			z M885.3,530.3l14.1,72.8l-81.8,46.7L803.5,577L885.3,530.3z"/>
		<path class="st30" d="M1000.3,592.3c1.5,7.5-16.3-84.2-53.2-275.1L912.5,337l53.2,275.1L1000.3,592.3z"/>
		<path class="st30" d="M1181.3,532.4l-38.2-197.3l-34.2,19.6l22.4,115.9l-82.2,46.9c-14.4-74.5-21.9-113.2-22.4-115.9l-34.2,19.6
			l23,118.9c3,15.3,7.6,24.2,13.8,26.7c6.3,2.5,15.6,0.2,28-6.9l82.2-46.9l7.6,39.2l2.2,11.4l-70.4,40.2l3,18.1l4.2,25.8l71.6-40.9
			c13.4-7.7,21.9-17.2,25.3-28.6c1.6-4.7,2.4-10.1,2.4-16.2c0-5.4-0.6-11.5-1.9-18L1181.3,532.4z"/>
		<path class="st30" d="M1237.4,457c-1.1-5.6-8.6-44.4-22.5-116.4l81-46.2l2,10.4l35.4-20.2l-2.4-12.7c-3-15.3-8.1-24.3-15.3-26.7
			c-5.9-2.2-15.2,0.3-27.8,7.5l-116.1,65.7l30.7,158.7L1237.4,457z"/>
		<path d="M801.2,1770.9l18.8,35.4l54.2,1.9l28.7-46l-20.4-38.2C855.4,1739.6,828.3,1755.2,801.2,1770.9z"/>
		<path class="st31" d="M801.2,1770.9l18.8,35.4l54.2,1.9l28.7-46l-20.4-38.2C855.4,1739.6,828.3,1755.2,801.2,1770.9z"/>
		<path class="st1" d="M823.2,1712.4l-28.7,46l6.7,12.5c27.2-15.7,54.3-31.3,81.4-47l-5.1-9.6L823.2,1712.4z"/>
		<path class="st31" d="M823.2,1712.4l-28.7,46l6.7,12.5c27.2-15.7,54.3-31.3,81.4-47l-5.1-9.6L823.2,1712.4z"/>
	</g>
	<g>
		<path class="st32" d="M1260.5,2911l-16.8-9.7L16.8,2192.9L0,2183.3V727.7L1260.5,0L2521,727.7v1455.5l-16.8,9.7l-1226.9,708.4
			L1260.5,2911z M67.2,2144.5l1193.3,689l1193.3-689V766.6l-1193.3-689L67.2,766.6V2144.5z"/>
	</g>
</g>
</svg>
