<svg id="Layer_1" data-name="Layer 1" xmlns="http://www.w3.org/2000/svg" xmlns:xlink="http://www.w3.org/1999/xlink" viewBox="0 0 735 852"><defs><style>.cls-1{fill:none;}.cls-2{clip-path:url(#clip-path);}.cls-3,.cls-6{opacity:0.25;}.cls-3{fill:url(#linear-gradient);}.cls-4{clip-path:url(#clip-path-2);}.cls-5{fill:#ed7d15;}.cls-6{fill:url(#linear-gradient-2);}.cls-7{fill:#ac5d12;}.cls-8{fill:#e6b35a;}.cls-9{opacity:0.94;}.cls-10{font-size:160px;letter-spacing:-0.02em;}.cls-10,.cls-11,.cls-17{fill:#fff;}.cls-10,.cls-11{font-family:MyriadPro-Regular, Myriad Pro;}.cls-11{font-size:25px;}.cls-12{letter-spacing:0.01em;}.cls-13{letter-spacing:-0.04em;}.cls-14{letter-spacing:-0.02em;}.cls-15{letter-spacing:-0.01em;}.cls-16{letter-spacing:0em;}</style><clipPath id="clip-path"><polygon class="cls-1" points="369.51 961.64 728.21 1168.71 728.21 1590.87 369.51 1799.27 2.79 1590.87 2.79 1168.71 369.51 961.64"/></clipPath><linearGradient id="linear-gradient" x1="366.25" y1="831.85" x2="367.55" y2="1295.38" gradientUnits="userSpaceOnUse"><stop offset="0" stop-color="#fff" stop-opacity="0.83"/><stop offset="0.56" stop-color="#fff" stop-opacity="0.37"/><stop offset="1" stop-color="#fff" stop-opacity="0"/></linearGradient><clipPath id="clip-path-2"><polygon class="cls-1" points="369.51 7.4 728.21 214.47 728.21 636.62 369.51 845.03 2.79 636.62 2.79 214.47 369.51 7.4"/></clipPath><linearGradient id="linear-gradient-2" x1="366.25" y1="-122.39" x2="367.55" y2="341.13" xlink:href="#linear-gradient"/></defs><title> </title><g class="cls-2"><ellipse class="cls-3" cx="366.89" cy="1060.05" rx="315.24" ry="234.63"/></g><g class="cls-4"><circle class="cls-5" cx="365.5" cy="437.45" r="442.13"/><ellipse class="cls-6" cx="366.89" cy="105.8" rx="315.24" ry="234.63"/></g><path class="cls-7" d="M705.61,196.21,427.81,35.82,367.5,1,307.19,35.82,29.37,196.22.09,213.13V637.38l29.28,16.91,281.28,162.4,56.85,32.82,56.85-32.82L705.61,654.3l29.3-16.92V213.13Zm0,425.26L367.49,816.68,29.37,621.47V231L367.49,35.82h0L705.61,231Z"/><path class="cls-8" d="M367,633.9c.29-.29.6-.59.93-.89h-.26Z"/><g class="cls-9"><text class="cls-10" transform="translate(203.74 594.43) scale(1 1.06)">dplyr</text></g><text class="cls-11" transform="matrix(0.86, -0.5, 0.5, 0.86, 369.28, 809.1)"><tspan class="cls-12">ww</tspan><tspan class="cls-13" x="37.4" y="0">w</tspan><tspan x="54.82" y="0">.rstudi</tspan><tspan class="cls-14" x="120.07" y="0">o</tspan><tspan x="133.2" y="0">.</tspan><tspan class="cls-15" x="138.37" y="0">c</tspan><tspan class="cls-16" x="149.42" y="0">om</tspan></text><path class="cls-17" d="M582.71,343.2c-3.8-2-8.1-4.25-11.81-6.16-20.88-10.74-41.71-21.6-62.69-32.15-17.3-8.7-35.3-15.49-54.45-19-13.32-2.43-26.79-3-40.26-3.75-11.25-.63-22.49-1.56-33.74-2.2-8.55-.49-14.18-4.89-17.9-12.37-1.65-3.31-3.26-6.75-6.39-9.08a4.06,4.06,0,0,1-.94-1.6,5.49,5.49,0,0,0-5.92-3.26,100.9,100.9,0,0,0-14.27,1.86c-7.34,1.73-14.53,4.1-21.81,6.09-1.86.51-2.74,1.24-2.47,3.36a53.61,53.61,0,0,1,.06,6.58l-19.53-6.34a3.47,3.47,0,0,0-4.26,1.4l-12-1.17-.13-6.42a10.26,10.26,0,0,0-1.55-.43c-11.36-1.41-21.71-5.89-32.07-10.39a10.21,10.21,0,0,0-4-.8q-30.56.18-61.12.5c-3.09,0-6.18.46-9.28.66a7.24,7.24,0,0,1-1.58-.24l-.36.12c-2.85,1.47-4.15,3.83-4.53,7a34.55,34.55,0,0,1-1.73,5.84l.12.36a18.9,18.9,0,0,0,2,2.26c2,1.63,4.12,3.17,6.2,4.73,1.07.79,2.14,1.6,3.28,2.29,11.35,6.9,20.82,16.14,30.91,24.62,5.63,4.72,11.15,9.57,16.74,14.33a6.22,6.22,0,0,0,1.93,1.16q16,5.54,32.05,11a2.17,2.17,0,0,0,1.75-.39c1.21-1,2.29-2.16,3.48-3.32a33.19,33.19,0,0,0,16.38,4.37l-1.59,8.72,14,5.16c-1.69,1.89-3.2,3.65-4.79,5.34a1.65,1.65,0,0,0-.35,2.31c5.48,9.26,11,18.48,18.1,26.66a43.75,43.75,0,0,0,6.06,5.43c1.08.86,5.35.64,7.1-.42a5.42,5.42,0,0,0,2,0,49.48,49.48,0,0,0,8.75-2.55c8.17-3.58,15.39-2,22.2,3.31,8.57,6.74,17.28,13.31,25.85,20,10.07,7.92,20,16,30.94,22.75a188.6,188.6,0,0,0,48.06,20.77c12.66,3.56,25.4,6.87,38.14,10.14a1.87,1.87,0,0,1,1.43.06c1.68.74,3.62.39,5.4.7a8.38,8.38,0,0,1,2.79,1.2c1.5.33,3,.55,4.51,1,.77.23,1.54.52,2.3.81a70.3,70.3,0,0,1,11.07,3.14l13.36,3.4h0c3.08.86,6.3,1.39,9.19,2.69l.11.06c.23-.49.46-1,.66-1.49a39.69,39.69,0,0,0,.92-3.95,1.9,1.9,0,0,1,.8-1.09,51.26,51.26,0,0,0,.38-5.18c0-2.31,1.79-4.56,2-6.9.26-3.57-1.91-6.32-4.39-8.71-4.64-4.48-10.35-7.15-16.37-9-12.66-3.91-25.4-7.57-38.12-11.31-14.31-4.2-28.76-8.08-42-15.07-10.95-5.76-21.72-11.88-32.45-18A249.24,249.24,0,0,1,372,356.7c-4.69-4-9.95-7.23-15-10.72-3.22-2.22-6.27-4.5-7.54-8.47-.91-2.84-3.18-4.56-5.65-5.92-7.33-4-14.65-8.09-22.07-12-4.44-2.32-9.08-4.26-13.57-6.48a1.66,1.66,0,0,0-2.39.52c-3.12,3.57-3.15,3.54-7.53,1.69l-3.57-1.49a28.4,28.4,0,0,0,9.22-16.15c2.26-.28,4.09,2.23,6.48.86,0,.18.07.48.08.79.11,4,.1,4.05,4,5.12,9.91,2.69,19.82,5.4,29.77,7.94a44.13,44.13,0,0,0,8.82,1.31,13.27,13.27,0,0,0,5.84-1,16.78,16.78,0,0,1,9-1.52c6.73.78,13.47,2.06,20.21,2.12,28.41.25,55.8,6.69,83.15,13.32,11.82,2.87,22.81,8.12,33.8,13.25,13.17,6.15,26.28,12.42,39.48,18.49a94.92,94.92,0,0,0,10.73,3.86,29.59,29.59,0,0,0,3.78.87,1.62,1.62,0,0,1,1.68,0,4.08,4.08,0,0,0,.42.22,9.75,9.75,0,0,1,1.12.07l2.13.11.15,0,1.28-.08c1.18-.26,2.33-.65,3.3-1a11,11,0,0,0,3.65-2.25c.77-.63,2.45-1.13,2.91-2a2,2,0,0,1,.44-.57c.25-1.12.5-2.26.85-3.37a3.56,3.56,0,0,1,1.07-1.43c1.84-1.65,3.77-6.44,4.38-9l-.09,0ZM217.68,277a9.13,9.13,0,0,1-3.58.52c-1.35-.06-2.44-.48-3.68.24a1.93,1.93,0,0,1-2.86-1c-.07-.19-.12-.32-.16-.43H207a8.16,8.16,0,0,1-2.23-.07,4.61,4.61,0,0,1-2.09-1c-.5-.42-.61-.71-1.05-.68-.86.05-1.52.76-2.48.7a3.17,3.17,0,0,1-2.06-.94c-1-1-1.72-2.09-3.29-1.93a1.9,1.9,0,0,1-1.9-1.32c-.51-2.57-3.1-3.92-3.6-6.57a2,2,0,0,1,1.23-2.4,3.87,3.87,0,0,1,2.86.14c.78.28,0,.57,1,.05a5.89,5.89,0,0,1,1.49-.65,4.49,4.49,0,0,1,3,.56c.61.31,1.47,1.2,2.13.93a1.78,1.78,0,0,1,1.48.14,1.63,1.63,0,0,1,1.69.86c.8,1.35,2,2.47,3.61,1.67a1.94,1.94,0,0,1,2.86,1c.6,1.57,3.28,1.74,4.65,2.11,1.86.51,3.84,1.22,5,2.91A3.27,3.27,0,0,1,217.68,277Z"/><path d="M243.57,305.64l.16-14.33L242,291l-.19,14.54ZM238.09,292c0,4,.16,7.91.27,11.86,0,.05.07.1.22.32L240,304l-.1-13-.86-.18C238.71,291.19,238.09,291.59,238.09,292ZM236,289.33l-1.78.32.74,12,1.8.17Zm-4.07,10.19.21-11.68-.71-.21a8.41,8.41,0,0,0-1.13,2.63c-.16,3-.09,5.92-.1,9Zm-5.69-10.32c-.1,2.89-.25,5.77-.4,8.85l1.83,0,.33-10C226.77,287.62,226.29,288,226.25,289.2Zm-5.37,5.32.73-9.54-.73-.13c-2.47,2.45-.82,5.94-1.89,8.94Zm2.21-6.78c-.38,2.48-.62,5-.92,7.62l1.74.19,1.13-8.62-.78-.34C223.84,287,223.15,287.31,223.08,287.74Zm-8.66-4.39-.77-.42c-.41.42-1.07.79-1.18,1.28-.39,1.71-.52,3.48-.89,5.2-.28,1.3.09,1.8,1.7,1.54Zm.77,8c-.06.3.72.77,1.11,1.16l.52-.15.78-8.5-.62-.07C214.58,285.91,215.69,288.87,215.18,291.41Zm-6.05-2.22.85-6.64c-2.35-.27-1.84,1.27-2,2.32s-.34,2.24-.54,3.56Zm-22.83-20.78-1.79-.13c-.05,1.81-.19,3.51-.09,5.19,0,.45.77.86,1.18,1.29l.54-.39Zm-2.68-1.36-1.78.38a39.18,39.18,0,0,1-.26,4c-.21,1.28.3,1.59,1.74,1.4Zm-3.37,3,.58-5.08c-2,.07-2.26.64-2.23,5Zm23.48,15.74,2.13.95.71-5.85C203.4,282,205.38,284.59,203.74,285.85ZM348,303.17c-.38,1.13-.85,2-.69,2.11,1.07.94,1.1,3.09,3.92,2.88Zm-.82,5.46.8-.64-2.6-4.33-1.57,1.5ZM176.8,268.5l1-5.06c-2.57.48-1.86,2.56-2.82,3.88Zm174,36.32c1.62.55.95,3.53,3.82,2.93C353.24,304,352.79,303.59,350.82,304.81ZM173.57,267c1.38-2.27,1.41-3.64-.17-5.24C173.55,263.81,171.19,265.4,173.57,267ZM169,264.37c2-.43,2.08-1.72,2.22-2.83.06-.49-.44-1-.68-1.57l-.76.21Zm33.84,20.08.62-4.3C200.93,281.65,200.78,283.18,202.83,284.45Zm-36-24c.14-.48-.41-1.17-.66-1.76l-.57.12-.75,2.58.5.41C165.91,261.36,166.7,261,166.87,260.45Zm30.9,21.71c2.22.13,1.73-1.36,1.73-2.65C197.49,279.56,197.63,280.83,197.77,282.17Zm145,22.71c-.54.78-1.24,1.42-1.12,1.67.26.57.94.94,1.45,1.39l.51-.49Z"/><path d="M568.7,354.09a31.65,31.65,0,0,1-13.47-3q-17-7.64-33.86-15.67c-13.48-6.4-27-12.72-41-17.77-12.58-4.52-25.62-6.78-38.82-8-26-2.49-52-4.65-78-6.95-3.85-.34-7.71-.58-11.53-1.13-8.92-1.28-12.23-4.83-12.93-13.8a44.05,44.05,0,0,1,1.48-16.93c1.73-5.44,5.21-9.06,11.21-10.1l-.19-1.68c-5.11.65-8.9,3.15-11.05,7.57a33.85,33.85,0,0,0-2.82,9,46.44,46.44,0,0,0,0,15.69c.9,5.27,3.71,9,8.79,10.73,2.56.87,5.28,1.27,8.08,1.92,1.36,2.85,2.09,3.44,3.85,2.68L356.87,304c2.27.14,2.89,2.18,4.36,3.3l1.42-.77-1.35-2c2.23-.9,3.27.76,4.3,2.08.76,1,1.28,1,2.15.09l-1-1.92c3.21-.1,3.32,4.6,7,4l-2.56-3.53.27-.28,5.4,5.21c.79-2.48-1.1-3.2-1.77-4.48,1.26-.29,1.26-.29,4.17,3.79l1.41-.8c-.28-.53-.49-1-.74-1.41s-.56-.84-.85-1.27c1.5-.38,1.49-.37,2.93,1.26.83.94,1.69,1.85,2.62,2.87l1.24-1.15-2.42-2.9c1.67.07,3-.32,4,1.31a26.69,26.69,0,0,0,3.44,3.65l.94-1.5-2.8-3.09c2.95,0,3.59,3.73,6.77,3.3L394,307c1.62-.76,2.09.81,2.95,1.48s1.87,1.7,2.89,2.66l1.31-1.08-2.45-2.63c2.78-.86,3.9,1.27,5.44,2.63a10.42,10.42,0,0,0,2,1.11l.43-.55L404.78,308c3.24-.25,2-.39,5.57,3.57a4.13,4.13,0,0,0,.68-.12c.29-.1.56-.25,1-.45l-1.85-2.7,2.48.16,3.31,4.3,1.4-1.17-2.17-2.75c1.42-.23,2.4,0,3.15,1.19a14.88,14.88,0,0,0,2.16,2.64,5.66,5.66,0,0,0,1.66.79,6.42,6.42,0,0,0-.34-1.94,16.18,16.18,0,0,0-1.78-2.27c1.5,0,2.5-.17,3.29,1.39.49,1,1,3.09,3.36,2.09l-1.73-3,3.27.25c-.18,2.13,1.39,3.83,3.17,3.23-.26-.5-.5-1-.76-1.46s-.5-.86-.91-1.55c3.29.09,3.51,2.92,4.87,4.75l1.61-.52-1.71-3.59c2.53-.63,3.06,1.26,3.93,2.82a9.79,9.79,0,0,0,1.48,1.65l.61-.41-1.12-3.47a2.61,2.61,0,0,1,3.35,1.58,23.36,23.36,0,0,0,1.41,2.9,17.82,17.82,0,0,0,1.66,2l.72-.45-2.14-5.62,2.77.35c-.09,2,1.81,5.25,3.36,5.37l-1.64-5.08,1.61.15c.82,2.07,1.51,3.91,2.3,5.7a1.32,1.32,0,0,0,1.12-.08,1.51,1.51,0,0,0,.2-1.27c-.46-1.23-1.06-2.41-1.69-3.79,1.24-.15,2-.34,2.37,1.07a15.7,15.7,0,0,0,1.73,3.72c.26.46.86.72,1.3,1.08l.63-.33-1.35-5,2,.25,2.08,6.42.87-.19-.7-5.82,2.59.55c.6,2.42.19,5.14,2.26,6.8l.94-.34-1.63-6,1.88.31c.75,2.31,1.36,4.38,2.13,6.39.12.33.89.42,1.36.61l.5-.33-1.56-6,2.17.58,1.57,7h1.82l-1.4-6.15c2.45.2,3.32,1.34,3.52,4.85.06,1,0,1.94,1.84,2.07l-.46-5.85c.78.73,1.59,1.15,1.87,1.8.57,1.33.83,2.79,1.28,4.18.23.7.59,1.35,1.06,2.4,1.32-2.56.2-4.48-.29-6.47,2.76.53,2.76.53,3.59,6.95l1.76,0-.58-5.16c1.64.33,2.79,3.72,2.89,8.79-2.05-.8-4.05-1.56-6-2.35-10.36-4.16-21.27-6.28-32.1-8.69-15.9-3.54-31.86-6.83-48.15-8-7.95-.59-15.92-.81-23.87-1.39-4.42-.32-8.8-1.06-13.21-1.58a13.83,13.83,0,0,0-8.77,1.81c-2,1.14-4.11,1-6.29.75-9.81-1.18-19.21-4.1-28.68-6.7-3.18-.87-6.32-1.89-9.51-2.72a1.88,1.88,0,0,1-1.71-2.17q0-17.46-.28-34.93c0-1.21.26-1.86,1.49-2.14s2.42-.76,3.63-1.15l-.11.35a5.67,5.67,0,0,1,2.64-.61,2,2,0,0,0,1.09-.23l-1.22-.15c1.53-.5,3.12-1.54,4.58-1.38l.54.08a30.84,30.84,0,0,1,5.8-.88l-2.23-.54c4.24-.93,8-1.83,11.71-2.54,2.23-.42,4.52-.53,6.78-.81,2.71-.34,5,.3,6.58,2.68,2.14,3.14,4.44,6.17,6.58,9.32,1.28,1.88,2.37,3.89,3.57,5.82,2.6,4.15,6.26,6.9,11.12,7.56,7.08,1,14.19,1.81,21.32,2.32,15,1.06,30,1.48,44.92,2.85,21,1.92,41,8.06,59.79,17.38,24.17,12,48.08,24.44,72.12,36.68,2.83,1.44,5.74,2.71,8.78,4.13l.72-1.16c-3.8-2-7.47-4-11.18-5.9-20.88-10.74-41.71-21.6-62.69-32.15-17.3-8.7-35.3-15.49-54.45-19-13.32-2.43-26.79-3-40.26-3.76-11.25-.63-22.49-1.56-33.74-2.2-8.55-.49-14.18-4.89-17.9-12.37-1.65-3.31-3.26-6.75-6.39-9.08a4.06,4.06,0,0,1-.94-1.6,5.49,5.49,0,0,0-5.92-3.26,100.89,100.89,0,0,0-14.27,1.86c-7.34,1.73-14.53,4.1-21.81,6.09-1.86.51-2.74,1.24-2.47,3.36a53.58,53.58,0,0,1,.06,6.58l-19.53-6.34a3.47,3.47,0,0,0-4.39,1.63,25.58,25.58,0,0,0-1,2.57l3.75,2.11,1-1.37-2.61-1.67c1-2,2.49-1.87,4.16-1.08.67.32,1.39.55,2.08.82l.35.24,3.2.73a12.78,12.78,0,0,0,.13,2.89c1.24,4,2.58,8.06,3.82,11.9,1.91.2,2.26-.36,1.8-1.6-1.56-4.14-3.1-8.29-4.77-12.77l3.2,1a6.15,6.15,0,0,0,0,2.1c1.85,4.08,3.78,8.13,5.73,12.27l1.71-.55-6.39-13.46,3.4,1.12a6.17,6.17,0,0,0,.1,2.15c1.1,2.34,2.34,4.61,3.53,6.9.28.55.78,1.11.79,1.67.09,4.92.1,9.83.13,15l-2.37-1,.08,0-1.75-.42-.78-6.2c-2.44,1.73-.6,3.78-1.48,5.39l-1.66-.45c-1.37,10.92-7.65,18.17-17.31,22.74-9.86,4.66-19.43,3.63-28.86-1.84l-4.37,4.19c-30.54-18.69-61.58-36.69-90.77-57.6l2.44-6.47c.56.14,1.1.25,1.62.42,7.17,2.37,14.32,4.78,21.5,7.09,1.21.39,1.64,1,1.46,2.15a2.71,2.71,0,0,0,0,.38c0,2.73.07,2.89,2.67,3.48.05,1.52-.57,3.55,1.5,4.11.89.24,2.07-.58,3.19-.94.44,1.11.62,3.08,1.64,3.72s2.8-.21,4.45-.43c1.74,2.89,1.74,2.89,5.1.71.87,1,1.58,2.55,2.66,2.9.82.26,2.12-1,3.5-1.72,1.82,1.9,3.86,1,5.91-.68,1.12-.9,2.34-.55,3.59-.11Q234.65,281.63,247,286c.23.08.47.14.69.2,2.75-3.37,2.78-3.68.55-5.23l1.85.27a22.45,22.45,0,0,1,8.81-9.82c6.58-3.9,13.76-4.43,21.15-3.69.63.06,1.26.17,1.88.24,1.24.15,1.24.15,1.54-1.65l-9.19-.87-.13-6.42a10.25,10.25,0,0,0-1.55-.43c-11.36-1.41-21.71-5.89-32.07-10.39a10.22,10.22,0,0,0-4-.8q-30.56.18-61.12.5c-3.09,0-6.18.46-9.28.66a7.23,7.23,0,0,1-1.58-.24l-.36.12c-2.85,1.47-4.15,3.83-4.53,7a34.56,34.56,0,0,1-1.73,5.84l.12.36a18.88,18.88,0,0,0,2,2.26c2,1.63,4.12,3.17,6.2,4.73,1.07.79,2.14,1.6,3.28,2.29,11.35,6.9,20.82,16.14,30.91,24.62,5.63,4.72,11.15,9.57,16.74,14.33a6.21,6.21,0,0,0,1.93,1.16q16,5.54,32.05,11a2.17,2.17,0,0,0,1.75-.39c1.21-1,2.29-2.16,3.48-3.32a33.19,33.19,0,0,0,16.38,4.37l-1.59,8.72,14,5.16c-1.69,1.89-3.2,3.65-4.79,5.34a1.65,1.65,0,0,0-.35,2.31c5.48,9.26,11,18.48,18.1,26.66a43.78,43.78,0,0,0,6.06,5.43,3.39,3.39,0,0,0,4.22.23,11.77,11.77,0,0,0-1.53-1.21c-1.2-.65-2.64-1-3.63-1.86-5.88-5.13-9.9-11.72-14.5-18.39l1,.2a5.36,5.36,0,0,1-1.23-1.31l-.33.17-3-4.81,1.22.35a10.66,10.66,0,0,1-1-1.5l-.41.09-.1.57-1.64-2.7c-1.7-2.83-1.65-2.79.51-5.37a2.11,2.11,0,0,1,2.35-.92c.24-.55.52-1.07.81-1.59l-.35-.12-.14-.5c.4-.15.84-.45,1.22-.57a22.22,22.22,0,0,1,1.41-1.87,2.62,2.62,0,0,1,1.33-1.51c.63-.68,1.28-1.34,1.93-2l-.09,0c.85-1.39,1.23-2,1.91-2.1.47-.65.94-1.26,1.4-1.81h0l.08-.1.12-.14,1.39-1.65.19.07a11,11,0,0,1,1.73-1.23l-.64-.22c2.71-3,5.32-5.87,7.85-8.79a1.48,1.48,0,0,1,2.12-.35c9,4.45,18,8.76,27,13.32a77.88,77.88,0,0,1,9.33,5.88,7.6,7.6,0,0,1,2.83,3.44c1.41,4.28,4.43,7,8,9.29,9.44,5.91,17.85,13.16,26.6,20,12.24,9.55,25.68,17.29,39.24,24.77,8.11,4.47,16.21,9,24.59,12.94,12,5.65,24.89,9.05,37.61,12.8,13.32,3.92,26.63,7.89,39.87,12.06a31.21,31.21,0,0,1,14,8.6c3.18,3.48,3.78,7,1.73,10.44l-3.2-4.3,2.21-1.07-.35-1.68c-1.9.5-3.82,2.54-5.28-.1.72-1.47,3.77.67,3.53-2.34-2.37-.8-4.49,1.37-6.85.61.56-1.83,4-.62,3.06-3.75L526,438.83c.66-2.51,4-1.17,3.81-4.49l-7,3c.75-1.94,3.73-1.18,3.12-4.06l-6.19,3c.2-2.58,3.83-2.45,3.17-5.75l-6.18,4.82c.1-2.56,3.76-2.54,2.64-5.78a41.9,41.9,0,0,0-3.72,3.41c-.93,1.08-1.77,1.19-3.1.37a17.24,17.24,0,0,1,2.31-2c1-.61,1.37-1.2.31-2.46a42.67,42.67,0,0,0-3.54,2.9c-1,1-1.87,1.16-3.25.26l4.11-3.36-.45-1.78c-1.61,1.26-3.06,2.24-4.32,3.42-1.55,1.46-1.49,1.53-3.55.51.58-1.79,3.47-1.93,3.16-5.06l-6.17,4.81c-.52-2.52,3.27-2.85,1.59-5.75l-4.15,4.66-1.79-.47,2.81-4.87-.82-.61-4.19,4.83-2.17-.59,2.8-4.24-1.44-1.07-3.19,4.79-1.45-.41c-.75-2,3.06-2.68.94-5.28l-3.35,4.63-2.34-.64c-.15-2.08,3.12-2.68,2-5.16-2.48.56-2.75,3.81-4.92,4.58l-.61-.57,1.71-3.94-1.28-1.37L478.85,424l-2.42-.72,2.54-4.15L477.65,418l-3,4.73-2-.47,2.57-4.07c-1.88-.68-2.38-.26-4.28,3.47l-2.63-.73c.48-.79.83-1.44,1.26-2s1-1.18,1.52-1.87l-1.19-1.46-3.52,4.74-2.2-.74c.77-1.34,1.5-2.53,2.12-3.77.11-.22-.24-.68-.37-1-2.39.35-2.07,3.72-4.76,4.25l2-5.57c-1.72.31-1.76.37-3.73,4.46l-1.69-.39,2.48-4.22-1.57-.6c-1.29,1.35-1.45,3.59-4.09,4l2.6-5.16c-2.83.55-3.22,2.67-4.37,4.16l-2.11-.8,2.82-3.7c-2-.76-2-.76-4.26,3.14l-1.76-.62c-.15-2.09,3.11-2.68,1.8-5.66-1.22,1.48-2.28,2.59-3.13,3.84-.52.77-.87,1.22-1.72.51l-1-.56-2.29-.65,3-4.67c-3.55-.58-3.4,3.26-5.59,3.58-.67-2.37,2.93-3.11,1.27-6.05l-3.56,4.83-2.09-1c-.28-2.27,3.25-2.84,1.94-5.91L432,406.67l-1.36-.55,2.93-5.42c-3,.16-3.23,2.65-4.56,4.34l-1.73-.81c.57-2.48,3.68-3.27,3.67-6.28-2.65.94-3.77,3.16-5.41,5l-1.35-.76,3.52-4.76-.36-.44c-2.29.42-3.27,2.64-4.87,4.13l-2-1.33a25.2,25.2,0,0,1,3.3-2.7c1.08-.62,1.14-1.15.21-2.4-1.41,1.13-2.78,2.27-4.2,3.35a4.85,4.85,0,0,1-1.33.49c0-.49-.08-1.14.18-1.44,1.05-1.21,2.23-2.31,3.62-3.72-3.53-.86-4.3,2.44-6.19,3.69l-.47-.51,3.41-3.94-1-1.37-4.14,4.22-2-1.31,3.59-4.11-.52-.48c-2.13.15-3.16,1.87-4.39,3.3-1.58-.59-1.61-1-.38-2.42a24,24,0,0,0,1.48-2.2l-.79-.67L407.27,391l-1.45-.92,2.24-2.84-1.07-1.3-2.69,2.93L403,388l2.57-3.66-1.34-1.08-2.76,3.63-2.43-1.64,2.12-3.62-1.54-.86-2.07,3.3L396,383l1.3-4.2-.67-.38-2.46,3.21-1.65-1.16,1.84-2.69-1.52-.82L391,379.34l-1.82-1.25,1.85-3.35c-2.45-1.25-2.2,1.64-3.67,2l-1.86-1.29,1.87-3.06-1.28-1.18-2.07,3-1.31-.95,1.89-2.31-1.3-1.1-2.14,2.27-1.78-1.23,1.1-3.5-.7-.33-2.27,2.36-1.82-1.3,1.24-3.81c-2.23-.4-2,1.52-2.92,2.44l-1.43-1,1.89-2.9-1.55-.69-1.83,2.36-1.49-.94L372,359.7c-2.86-1.22-2.46,2.07-4.34,2.36l-1.4-.95,1.56-2.15-1.7-1-1.24,1.94-1.57-1.08,1.26-2-1.22-1.21-1.54,2L360,356.33l1.75-2.27c-1.75-.76-1.75-.76-3.13,1.06l-1.6-1,1.29-3.41-1.66-.5-1.05,2.43c-2.47-1.09-2.48-1.21-1.7-3.43.17-.49-.18-1.15-.4-2.3l-2.12,2.84-1.45-1.09c.51-.91,1.91-1.67.13-2.73l-1.79,1.53-1.67-1.25,1.78-3-.33-.53a6.23,6.23,0,0,0-3.3,2.22l-.54-.52,2.16-3.3-1.45-.87-2.25,3-2-1.41,2.63-2.82-1.41-1-2.73,2.7-1.9-1.19,3.32-2.81c-.66-.94-1.14-1.65-2.2-.52a8.23,8.23,0,0,1-2.11,1.6,7.11,7.11,0,0,1-1.89.43l-.31-.63a31.42,31.42,0,0,1,2.79-2.65c1-.74,1.2-1.37,0-2.48-1.29,1.23-2.56,2.52-3.93,3.71a2.25,2.25,0,0,1-1.66.61A12.61,12.61,0,0,0,320,339.18a44.76,44.76,0,0,0-13.76,17.2c-2.78,6.21-1.89,12.24,2.14,16.49,1.15-.4,1.39-.86.58-2a12.5,12.5,0,0,1-1.66-12.28A41.34,41.34,0,0,1,322,339.92a9.65,9.65,0,0,1,10.49-.75,80.64,80.64,0,0,1,10.1,6.39c6.77,4.92,13.34,10.13,20.11,15q26.92,19.56,54,39c14.48,10.36,30.81,16.84,47.7,21.93,15.24,4.59,30.6,8.77,45.88,13.25,7.24,2.12,14.55,4.17,20.93,8.42,3.56,2.37,6.68,5.22,7.14,9.79.19,1.83-.27,3.72-.47,6l.88.62c.21-.22.38-.33.45-.49,1.12-2.38.92-4.85,1-7.41,0-2.31,1.79-4.56,2-6.9.26-3.57-1.91-6.32-4.39-8.71-4.64-4.48-10.35-7.15-16.37-9-12.66-3.91-25.4-7.57-38.12-11.31-14.31-4.2-28.76-8.08-42-15.07-10.95-5.76-21.72-11.88-32.45-18A249.26,249.26,0,0,1,372,356.7c-4.69-4-9.95-7.23-15-10.72-3.22-2.22-6.27-4.5-7.54-8.47-.91-2.84-3.18-4.56-5.65-5.92-7.33-4-14.65-8.09-22.07-12-4.44-2.32-9.08-4.26-13.57-6.48a1.66,1.66,0,0,0-2.39.52c-3.12,3.57-3.15,3.54-7.53,1.69l-3.57-1.49a28.41,28.41,0,0,0,9.22-16.15c2.26-.28,4.09,2.23,6.48.86,0,.18.07.48.08.79.11,4,.1,4,4,5.12,9.91,2.69,19.82,5.4,29.77,7.94a44.14,44.14,0,0,0,8.82,1.31,13.27,13.27,0,0,0,5.84-1,16.78,16.78,0,0,1,9-1.52c6.73.78,13.47,2.06,20.21,2.12,28.41.25,55.8,6.69,83.15,13.32,11.82,2.87,22.81,8.12,33.8,13.25,13.17,6.15,26.28,12.42,39.48,18.49a94.89,94.89,0,0,0,10.73,3.86,53.81,53.81,0,0,0,5.66,1.22l.17.24c.72.06,1.44.07,2.16.06l-.26-.18c4.07-.06,7.71-.44,10.7-2.86a1.64,1.64,0,0,1,.71-.85c.05,0,.44-.29.45-.28a4.52,4.52,0,0,0,.39-.42c.15-.17.28-.35.42-.53l.08-.11.2-.3.07-.09c.3-1.28.56-2.59,1-3.87a3.56,3.56,0,0,1,1.07-1.43,11.66,11.66,0,0,0,3.78-6.17l-1.65-.37C578.26,351.88,574.16,354,568.7,354.09ZM309.85,278.62,307,272.56C310.45,273.39,310.88,274.34,309.85,278.62Zm-90.12-4a19.52,19.52,0,0,1-3.17,1.92,3.11,3.11,0,0,1-2.5-.06c-1.41-1-2.41-.85-3.42.41-.3.37-.66.68-1,1.05-1.91-3.64-2.35-3.75-5.52-1.74-.93-.88-1.73-2.25-2.72-2.41s-2.17.88-3.41,1.47c-.45-1.39-.55-3-1.39-4-1.32-1.52-2.59-.15-3.66.85a2.38,2.38,0,0,1-.29-.33.6.6,0,0,1-.12-.35c.37-1.91,0-3.39-2.18-3.88-.22,0-.5-.61-.46-.89.19-1.28.18-2.44-1.27-2.9a11.85,11.85,0,0,1,2.12-1.14,2.15,2.15,0,0,1,1.71.12c2.05,1.75,2.22,1.79,4.24,0,2.39,2.6,3.06,2.73,5.55,1a9.89,9.89,0,0,0,1.7,1.92c.78.51,1.94,1.23,2.6,1,1.68-.62,2.15.24,3,1.35.51.7,2,1.5,2.47,1.23,1.31-.78,1.74-.18,2.35.73.2.3.71.4,1.1.54,1.48.54,3,1,4.38,1.55a11.36,11.36,0,0,0-.19,1.38A9.14,9.14,0,0,0,219.73,274.63Zm23-23.66,6.67,2.78-.35.67-6.59-2.8Zm-6.06-2.09,4.46,3.51-.37.52-4.48-3.48Zm-4.93-.05,4.51,2.7-.36.69-4.59-2.46Zm-7.06,1.59-6.63-.76C221.41,248.86,223.07,249.09,224.73,250.41Zm-59.6,2.79c.21-2.43,1.64-3.17,3.93-3.19,8.79-.05,17.59-.61,26.36-.26,24.36,1,48.38,4.74,72.24,9.58,4.93,1,4.93,1,4.75,6.3-10.55.9-19.15,4.89-24,14.85-9.24-3.34-18.29-6.67-27.38-9.84-2.44-.85-4.53-1.8-5.22-4.55a5.2,5.2,0,0,0-.91-1.38L212,267.19c-.23-.53-.4-.86-.53-1.22-1.12-3.15-1.86-3.42-4.49-1.47-1.09.81-1.57.51-1.77-.71a7.81,7.81,0,0,0-.33-1.48c-.7-1.85-2.09-2.12-3.5-.69-.5.5-1,1-1.13,1.23-1.07-1.21-1.82-2.75-2.95-3.1-.71-.22-2,1.34-3,2.14-2-1.8-3.27-2.15-4.72-.63-1,1.07-1.83.93-3,.54-6.67-2.25-13.36-4.44-20-6.66-.58-.19-1.14-.44-1.74-.68A8.23,8.23,0,0,0,165.13,253.21Zm38.08,41.87-.59.23-1.21-3C204,292.52,203.2,293.94,203.21,295.08Zm3.68,3.36c-2.07-.82-2.31-2.37-1.61-4.36C207.75,295.29,207.82,295.5,206.89,298.44Zm2.28-2c2.44,1.41.53,3.36,1.53,5.13C207.6,300.16,209.3,298.25,209.17,296.39Zm5,8.2c-3.44-1.33-1.53-4-2.1-6.43l3.06,1.87Zm3.12,3.4c-.62-1-1.49-1.82-1.47-2.58a20,20,0,0,1,1-4.14C218.65,302.1,218.77,303.43,217.3,308Zm3.68,1.68-1.75-.63,1-6.28c.76,1,1.63,1.55,1.6,2.1A36.07,36.07,0,0,1,221,309.67Zm3.63,1.28-1.76-.72.69-4.78C225.69,306.32,225.93,307.88,224.61,310.95Zm3.06.94c-1.14-.61-1.14-.61-.23-4.51C228.68,309,227.86,310.43,227.67,311.88Zm3.29,1.18-1.54-.45c.13-.72.22-1.27.32-1.82s.2-1,.31-1.6C231.48,310.08,231.92,312.14,231,313.07Zm11.61,4-7.25-2.51.23-2.12,7.16,4.28Zm30.73,13.13c.45-2.38.83-4.61,1.32-6.81.09-.39.62-.67.94-1l.46.3a55,55,0,0,1-.24,6.18,2.06,2.06,0,0,0,.83,2.32Zm3.47,1h0a7,7,0,0,0,.77-2c.15-2,.1-4,.23-6,0-.5.48-1,.74-1.46l.62.25.36,10.5Zm6.89,3.25c-1-1-2.23-1.62-2.32-2.37-.31-2.8-.09-5.65-.38-8.46-.24-2.35,1-2.91,2.86-3C283.77,325,283.72,329.41,283.66,334.52Zm4.23-2.11c0,.91-.8,1.81-1.23,2.71l-.75-.21a11.75,11.75,0,0,1-.24-1.72c0-3.91.15-7.82.08-11.72,0-1.57.43-2.49,2-2.77C287.83,323.35,288,327.88,287.89,332.4Zm4.13-5c-.13,1.29-1,2.51-1.53,3.76l-.9-.21c.07-3.81.31-7.63.13-11.44-.1-2.2,1.05-2.93,3-3.83C292.49,319.78,292.4,323.6,292,327.39Zm6.4-10,2.85,1.22-3.43,3.86Zm-1.93,1.13c-.32,1.66-.35,3.39-.7,5a16.31,16.31,0,0,1-1.2,2.9l-.61-.18L294.5,316C296.26,316.07,296.81,316.9,296.49,318.56Zm196,13.73L491.29,324c1.85.4,2.66,2.68,3.15,9Zm4.14,1.77L494.86,325c1.49.86,3.12,1.24,3.42,2.08a78.65,78.65,0,0,1,2,8.63Zm5.38,2.41-1.37-8.87c3.75,2.46,2,6.77,4,9.49,1.28,0,1.57-.56,1.2-1.81-.52-1.77-.82-3.6-1.35-6,1.36.9,2.56,1.27,3,2.06a17.14,17.14,0,0,1,1.31,4.51,36.37,36.37,0,0,1,.34,3.93Zm9.18,4.15-1.37-8.88c1,.76,2.4,1.22,2.62,2,.77,2.68,1.15,5.48,1.74,8.57Zm4.07,2.17c1.24-3.08-1-5.64-.35-8.49a4.42,4.42,0,0,1,1.61,1.93c.69,2.53,1.19,5.11,1.76,7.67Zm3.08,1.15,1.52-.73L518.61,336c1.55,1,3.34,1.45,3.71,2.45a71.43,71.43,0,0,1,2.13,8.92Zm10.7,5.43L526,347.93c.42-3.24-1.4-5.82-1.32-8.63,2.42.79,2.46.78,3.1,2.93s1.27,4.59,1.9,6.89Zm1.85.93c.75-3.14-.57-5.79-1.39-9l2.78,1.79,2.19,8.89Zm6.26,2.89a1.16,1.16,0,0,1-.56-.67c-.75-2.78-1.47-5.57-2.24-8.55,1.73.55,3,1,3.3,2.93a39.17,39.17,0,0,0,1.64,6c.17.52.91.86,1.39,1.28l.71-.49-2.29-7.06.54-.4c.91.57,2.31.94,2.65,1.75,1.13,2.66,1.88,5.49,3,8.8C542.21,355.46,539.68,354.34,537.16,353.19Zm9,4c1.45-3.05-1-5.46-1.23-8.32l3.12,1.37c-.83,3.08,1.53,5.41,1.57,8.3Zm5.79,2.23-2.64-8.15.5-.4c.76.47,1.77.76,2.25,1.43,1.38,1.93,2.54,4,3.79,6,.5.8,1,1.58,1.82,2.8Zm6.39-.43c-.9-2.07-2.57-3.81-4-5.84,5.52.39,7,4.76,9.59,8.47C561.19,361.9,559.42,361.5,558.31,358.94Zm7.41,2.13a62.59,62.59,0,0,1-3.69-5.8c4.13,0,4.42,3.83,6.41,6C567.44,361.43,566.13,361.6,565.72,361.07Zm4.78-.43-3.26-4.54c2-.23,2-.23,5.08,3.42Zm3.24-2.36-2.09-2.37,3.59-1.16Z"/><path d="M537.3,463.31l.52.26c.3-.5.61-1,.94-1.47a17,17,0,0,0-4.11-1.77c-26.49-6.92-53.08-13.45-79.59-20.29a195.86,195.86,0,0,1-77.13-39.44c-10.19-8.46-20.82-16.39-31.3-24.5-1.85-1.43-3.93-2.56-5.9-3.84a17.25,17.25,0,0,0-15.47-1.81c-3.2,1-6.38,2.14-9.61,3.06-1.37.39-2.86.35-4.27.61a7.66,7.66,0,0,0-1.66.73l.11.76a12.1,12.1,0,0,0,3.52.23,49.48,49.48,0,0,0,8.75-2.55c8.17-3.58,15.39-2,22.2,3.31,8.57,6.74,17.28,13.31,25.85,20,10.07,7.92,20,16,30.94,22.75a188.6,188.6,0,0,0,48.06,20.77c14.09,4,28.28,7.62,42.46,11.24a4.37,4.37,0,0,1,1.26.55c.93.17,1.84.41,2.76.64a13.51,13.51,0,0,1,1.72.5,1.86,1.86,0,0,1,.35,0l-.08-.07,9.26,2.27a2.2,2.2,0,0,1,.51,0,17.78,17.78,0,0,1,3.66,1.15,1.88,1.88,0,0,1,.49,0l0,0,.14,0a1.65,1.65,0,0,1,.46.12l16,4.08h0C531.19,461.48,534.42,462,537.3,463.31Z"/><path d="M293.9,268.42l-.35-.24-1.08,1.2.71,2.72-.31.17L291,270.61l-1.09,1.25c5.45,6,9.37,12.55,9.7,21l1.49.21c.16-.24.28-.33.28-.43a32.62,32.62,0,0,0-4.46-14.78,30.06,30.06,0,0,1-2-5.41C294.55,271.11,294.26,269.76,293.9,268.42Z"/><path d="M241.76,305.56l1.81.08.16-14.33L242,291Z"/><path d="M239,290.79c-.33.4-.95.8-.94,1.2,0,4,.16,7.91.27,11.86,0,.05.07.1.22.32L240,304l-.1-13Z"/><path d="M236.77,301.86,236,289.33l-1.78.32.74,12Z"/><path d="M230.21,299.24l1.73.28.21-11.68-.71-.21a8.41,8.41,0,0,0-1.13,2.63C230.15,293.22,230.23,296.19,230.21,299.24Z"/><path d="M228,288c-1.25-.41-1.73,0-1.77,1.17-.1,2.89-.25,5.77-.4,8.85l1.83,0Z"/><path d="M219,293.8l1.9.72.73-9.54-.73-.13C218.4,287.31,220.06,290.8,219,293.8Z"/><path d="M224.25,286.61c-.41.38-1.1.71-1.17,1.14-.38,2.48-.62,5-.92,7.62l1.74.19,1.13-8.62Z"/><path d="M213.27,291l1.14-7.6-.77-.42c-.41.42-1.07.79-1.18,1.28-.39,1.71-.52,3.48-.89,5.2C211.29,290.71,211.66,291.21,213.27,291Z"/><path d="M217,283.84c-2.38,2.06-1.28,5-1.78,7.56-.06.3.72.77,1.11,1.16l.52-.15.78-8.5Z"/><path d="M207.43,288.42l1.71.76.85-6.64c-2.35-.27-1.84,1.27-2,2.32S207.62,287.1,207.43,288.42Z"/><path d="M186.14,274.37l.16-6-1.79-.13c-.05,1.81-.19,3.51-.09,5.19,0,.45.77.86,1.18,1.29Z"/><path d="M183.34,272.85l.29-5.8-1.78.38a39.18,39.18,0,0,1-.26,4C181.38,272.74,181.9,273,183.34,272.85Z"/><path d="M308,296.75l1.78-.23-1-5.47-.75,0c-1.78,1.79.21,3.82.05,5.72Z"/><path d="M443.43,411.86l1,.56c1-1.66,2.47-3.12,2.5-5.32A5.06,5.06,0,0,0,443.43,411.86Z"/><path d="M178.61,270l1.65.07.58-5.08C178.81,265.09,178.58,265.66,178.61,270Z"/><path d="M206.58,280.94c-3.18,1.06-1.19,3.65-2.84,4.9l2.13.95Z"/><path d="M351.18,308.16l-3.23-5c-.38,1.13-.85,2-.69,2.11C348.33,306.22,348.36,308.37,351.18,308.16Z"/><path d="M343.77,305.16l3.36,3.46.8-.64-2.6-4.33Z"/><path d="M175,267.31l1.82,1.18,1-5.06C175.22,263.91,175.94,266,175,267.31Z"/><path d="M354.64,307.74c-1.4-3.77-1.85-4.14-3.82-2.93C352.44,305.36,351.77,308.34,354.64,307.74Z"/><path d="M173.4,261.81c.15,2-2.21,3.59.17,5.24C175,264.77,175,263.4,173.4,261.81Z"/><path d="M169.76,260.17l-.78,4.2c2-.43,2.08-1.72,2.22-2.83.06-.49-.44-1-.68-1.57Z"/><path d="M203.45,280.15c-2.52,1.5-2.67,3-.62,4.3Z"/><path d="M165.39,261.79c.52-.44,1.31-.79,1.47-1.34s-.41-1.17-.66-1.76l-.57.12-.75,2.58Z"/><path d="M199.5,279.51c-2,0-1.88,1.31-1.73,2.65C200,282.29,199.5,280.81,199.5,279.51Z"/><path d="M343.59,307.45l-.83-2.57c-.54.78-1.24,1.42-1.12,1.67.26.57.94.94,1.45,1.39Z"/><path d="M246.22,258.36l-1.4.45,1.37,10.51c1.3-.05,1.86-.27,1.6-1.68-.43-2.28-.51-4.62-.83-6.93A14.56,14.56,0,0,0,246.22,258.36Z"/><path d="M249.76,269.91l1.81-.29c-.59-3.19-1.15-6.3-1.73-9.4-.24-1.27-.87-1.39-1.83-.63Z"/><path d="M255,269.93c-.18-1.65-.29-3.31-.57-4.94-.22-1.3-.85-2.55-.95-3.85s-.81-1.31-2.05-1.32c.3,1.53.6,2.92.85,4.32.28,1.6.46,3.22.81,4.8.11.51.66.92,1,1.37Z"/><path d="M238.91,258.33l-1.77.57,1,9.87c1,.41,1.74.42,1.6-1.11Z"/><path d="M243.32,268.49c.36-.39,1.08-.84,1-1.16-.44-2.86-1-5.7-1.57-8.54,0-.22-.27-.4-.64-.92-.4.66-1,1.21-1,1.67.42,2.91,1,5.8,1.5,8.69Z"/><path d="M234.64,267.47l1.8-.39-.63-9.11-.48-.3c-.38.52-1.1,1-1.09,1.55C234.26,261.91,234.48,264.6,234.64,267.47Z"/><path d="M231.68,266.47l1.8,0-.69-8.85-1.74.66Z"/><path d="M228.66,265.1h1.4c.11-.17.24-.28.23-.37-.25-2.12-.45-4.25-.83-6.35-.09-.47-.81-.82-1.25-1.23l-.56.43Z"/><path d="M226.32,257.64a5.2,5.2,0,0,0-.76,1.71c-.06,1.55.07,3.11.13,4.92l1.73.68-.12-7.1Z"/><path d="M224.39,262.88c-.38-1.89-.69-3.79-1.2-5.65-.1-.37-1-.53-1.77-.95.38,2.4.59,4.2,1,6,.1.45.82.77,1.26,1.14Z"/><path d="M217.9,257.4c1.28,1.23-.42,3.79,2.62,4.72a44.87,44.87,0,0,0-.63-4.71c-.08-.34-1-.48-1.53-.7Z"/><path d="M215.4,255.66c-.36.45-1.11,1.11-1,1.31.62,1.14-.54,3.16,2.14,3.6l-.4-4.58Z"/><path d="M192,256.78c1.36.19,1.89-.3,1.55-1.44-.27-.94.34-2.72-2-2.07Z"/><path d="M188.63,256.63l2.08.15-.07-3.67C187.74,253.23,189.51,255.37,188.63,256.63Z"/><path d="M187.67,255.54c-.48-1.21.42-3-2-2.85l.14,3.08Z"/><path d="M183.61,255l-.4-2.87-.78-.11a9,9,0,0,0-.61,2.42c0,.35.83.69,1.29,1Z"/><path d="M211,256.62l.61,2.27c1.15.08,1.78-.11,1.5-1.43S212.29,255.91,211,256.62Z"/><path d="M180.35,252.09l-2.15.7,1.47,2.28.67-.3Z"/></svg>