<?xml version="1.0" encoding="utf-8"?>
<!-- Generator: Adobe Illustrator 26.4.1, SVG Export Plug-In . SVG Version: 6.00 Build 0)  -->
<svg version="1.1" id="Calque_1" xmlns="http://www.w3.org/2000/svg" xmlns:xlink="http://www.w3.org/1999/xlink" x="0px" y="0px"
	 viewBox="0 0 2546 2939.9" style="enable-background:new 0 0 2546 2939.9;" xml:space="preserve">
<style type="text/css">
	.st0{fill:#F26BAA;}
	.st1{fill:none;}
	.st2{fill:#A7D5E8;}
	.st3{fill:#FFFFFF;}
	.st4{fill:#FFD748;}
</style>
<polygon class="st0" points="1297.2,1482.8 1297.5,2881.3 2507.2,2180.7 2508.6,783.6 "/>
<polygon class="st1" points="2533.5,742.1 2532.3,2196.1 1273,2925.4 1272.6,1470 "/>
<g>
	<polyline points="1449.3,1679.7 1425.8,1693.2 1426.4,1894.7 1449.9,1881.2 1449.3,1679.7 	"/>
	<polyline points="1678.1,1547.5 1654.7,1561.1 1655.1,1726.7 1654.6,1727 1558.9,1616.4 1528,1634.2 1528.6,1835.7 1552.1,1822.2 
		1551.6,1656.5 1552.1,1656.2 1648.9,1766.3 1678.7,1749.1 1678.1,1547.5 	"/>
	<path d="M1458,2144.7l32.5-111.4l0.4-0.3l32.6,73.8L1458,2144.7 M1502.4,1991.1l-21.3,12.3l-75.7,245.6l27.4-15.8l17-59.7
		l82.4-47.6l17.5,39.8l27.4-15.8L1502.4,1991.1"/>
	<path d="M1451.7,2540.3l-0.2-70l34.7-20c11.4-6.6,20.5-8.8,27.2-6.7c6.7,2.1,10.1,9.2,10.1,21.1c0.1,6.7-1.2,13.4-3.9,19.6
		c-2.5,5.7-5.7,11.1-9.5,16c-3.6,4.5-7.6,8.5-12.1,12.1c-3.8,2.9-7.7,5.6-11.9,8.1L1451.7,2540.3 M1451.5,2446.5l-0.2-59.8l37-21.3
		c9.4-5.4,16.4-6.5,20.8-3.2s6.6,9,6.6,17c0.1,5.3-0.8,10.5-2.5,15.4c-1.7,4.8-4,9.3-6.9,13.4c-2.9,4.2-6.4,7.9-10.3,11.2
		c-3.9,3.3-8.1,6.3-12.5,8.8L1451.5,2446.5 M1487.9,2341.5l-60.1,34.7l0.6,201.5l59.4-34.3c8.5-4.9,16.5-10.8,23.7-17.4
		c7.2-6.6,13.7-13.9,19.3-22c5.4-7.8,9.8-16.2,13-25.1c3.1-8.6,4.7-17.7,4.7-26.8c0.2-5.9-0.8-11.8-3-17.3c-1.6-4.3-4.4-8.1-8-11
		c-3.4-2.5-7.6-3.9-11.9-4c-4.6-0.2-9.4,1.1-14.7,3.8v-0.6c8.6-8.3,15.9-17.9,21.5-28.5c5.5-10.2,8.3-21.5,8.2-33.1
		c0-8.6-1.4-15.2-4.1-20c-2.3-4.5-6.3-7.8-11-9.3c-4.7-1.4-10.3-1.3-16.7,0.3C1501.5,2334.6,1494.4,2337.6,1487.9,2341.5"/>
	<path d="M1696,2402.7c-10,5.8-19,8.8-26.9,9.1c-8,0.3-14.8-1.4-20.5-5.4s-10.2-9.8-13.3-17.8c-3.1-8-4.7-17.5-4.8-28.4
		c0-11.4,1.6-22.8,4.6-33.9c3-11.5,7.5-22.6,13.1-33.1c5.7-10.5,12.5-20.2,20.5-29.1c7.8-8.7,16.8-16.1,26.9-21.9
		c9.9-5.7,18.9-8.7,26.9-9.1c7.3-0.5,14.5,1.4,20.6,5.3c5.7,4,10.1,9.9,13.3,17.9s4.7,17.5,4.7,28.5c0,11.4-1.6,22.8-4.6,33.8
		c-6.1,23.1-17.7,44.4-33.7,62.2C1715.1,2389.5,1706,2396.9,1696,2402.7 M1695.4,2216.6c-13.5,7.9-25.8,17.7-36.4,29.2
		c-11,11.7-20.5,24.7-28.4,38.8c-7.9,14-14,28.8-18.5,44.3c-4.4,14.9-6.6,30.3-6.6,45.8c0,15,2.3,27.6,6.8,37.9
		c4.6,10.3,10.7,17.9,18.7,22.8s17.4,6.9,28.5,5.9s23.3-5.3,36.5-12.9c13.5-7.8,25.8-17.7,36.4-29.1c11-11.7,20.6-24.7,28.4-38.8
		c7.9-14,14.1-28.9,18.5-44.3c4.3-14.8,6.5-30.2,6.6-45.7c0-15-2.3-27.7-6.8-38c-4.6-10.4-10.8-17.9-18.7-22.8s-17.4-6.9-28.5-5.9
		C1720.8,2204.7,1708.6,2209,1695.4,2216.6"/>
	<polyline points="1984.5,2054.9 1955.1,2071.8 1910.8,2174.9 1865.6,2123.5 1835.6,2140.9 1894,2202.9 1831.5,2345.1 
		1860.6,2328.3 1910.2,2212.1 1960.1,2270.8 1990.9,2253 1927,2183.5 1984.5,2054.9 	"/>
</g>
<polyline class="st2" points="637.8,2286.9 37.6,1994.7 38.1,2182.2 1248.8,2883.5 1244.3,2696.6 1241.3,2694.5 637.8,2286.9 "/>
<path class="st2" d="M36.2,1514.8l1,358.2l225.8,100.2c0,0-2.9-148.2-2.9-156.2c0-11.6-3.1-18.4-11.4-35
	c-10.1-19.9-44.8-62.9-44.8-62.9L36.2,1514.8"/>
<path class="st2" d="M1243,2212.2l-3,0.1l-172.6,8.8c0,0-34.6,2.8-44.6,11c-8.3,6.9-11.3,10.2-11.3,21.7l0.4,154.4L1241,2573l3,2.2
	L1243,2212.2"/>
<path class="st2" d="M1248.6,1483.9L36.7,784.1l-0.9,595.3L241,1636.2c6.5,7.4,12.3,15.4,17.5,23.9c8.9,14.6,15.6,31.6,19,41.1
	c9.8,27.4,19.9,70.7,19.9,70.7s11.5-177.7,173.7-83.4c162.2,94.3,165.9,289.4,165.9,289.4s2.5-191.5,164.7-97.3
	c162.2,94.2,174.8,286,174.8,286s9.9-31.7,19.5-47.8c3.4-5.5,10-14.8,18.9-19.1c5.4-2.5,11.4-3.8,17.4-3.6l207.4-19.1l3-0.3
	L1248.6,1483.9"/>
<path d="M360.6,2028.1l-0.5-190.6c0,0,0.1-88.1,112.5-22.8c103.8,60.3,108.8,135.7,108.8,149.3c0,1.4,0,2.2,0,2.2l0.7,190.7
	l-47-27.2c-14.3,17.3-36,20.9-60.4,6.7s-46.2-43.1-60.6-77L360.6,2028.1 M692.5,2028.5c0-13.6,4.6-83.4,108.3-23.1
	c112.4,65.3,113,154,113,154l0.6,190.7l-53.5-31c-14.3,17.2-36,20.9-60.4,6.7s-46.2-43.1-60.6-77.1l-48.1-28l0.7-190
	C692.5,2030.8,692.4,2030,692.5,2028.5 M1251.4,2075.9l-8.9,0.8l-3,0.3l-207.4,19.1c-6-0.2-12,1.1-17.4,3.6
	c-8.8,4.3-15.5,13.5-18.9,19.1c-9.7,16.1-19.5,47.8-19.5,47.8s-12.5-191.7-174.8-286S637,1977.7,637,1977.7s-3.6-195.1-165.8-289.3
	s-173.7,83.4-173.7,83.4s-10.2-43.3-19.9-70.7c-3.4-9.5-10.1-26.5-19-41.1c-5.1-8.5-11-16.4-17.5-23.9L35.8,1379.4l-3-3.7l-12-14.9
	l-0.1,0.4l0.5,135.5l12,14.6l3,3.6l167.7,204.4c0,0,34.7,43,44.8,62.9c8.3,16.6,11.4,23.4,11.4,35c0,8,2.9,156.2,2.9,156.2
	L37.3,1873.1l-3-1.3l-11.9-5.2l-0.1-0.1l0.3,120.9l12.1,5.9l3,1.4l600.2,292.2l603.5,407.6l3,2l9,6l-0.3-120.9l-9-6.5l-3-2.2
	l-229.1-164.7l-0.4-154.4c0-11.6,3-14.8,11.3-21.7c10.1-8.2,44.6-11,44.6-11l172.6-8.8l3-0.1l9-0.4l-0.4-135.5L1251.4,2075.9"/>
<path class="st3" d="M472.6,1814.7c-112.4-65.3-112.5,22.8-112.5,22.8l0.5,190.6l53.6,31.2c-1.1-2.5-2.1-5.1-3.1-7.6
	c-1.6-4.1-3.1-8.3-4.5-12.5c-5.6-17.1-9-34.9-10.2-52.9c1.4-17.7,7.3-31.3,16.2-39.9c-9,8.7-14.8,22.2-16.2,39.9
	c-0.3-3.6-0.5-7.2-0.5-10.6c-0.2-63.6,34.8-94.8,78.1-69.6c43.3,25.2,78.6,97.1,78.7,160.8c0,3.4-0.1,6.8-0.4,10.1
	c-1.5-19.4-7.5-39.8-16.5-59c9,19.1,15,39.5,16.5,59c-0.9,16.4-4.4,30.3-9.9,41.2c-1.3,2.6-2.7,5-4.4,7.3c-1,1.4-2,2.8-3.1,4.1
	l47,27.2l-0.7-190.7c0,0,0-0.7,0-2.2C581.4,1950.4,576.4,1875,472.6,1814.7"/>
<path class="st3" d="M800.8,2005.4c-103.8-60.3-108.4,9.5-108.3,23.1c0,1.4,0.1,2.2,0.1,2.2l-0.7,190l48.1,28
	c-1.1-2.5-2.1-5.1-3.1-7.7c-1.6-4.2-3.2-8.4-4.5-12.5c-5.6-17.1-9-34.9-10.1-52.9c1.4-17.7,7.3-31.3,16.2-39.9
	c-9,8.7-14.8,22.2-16.2,39.9c-0.3-3.5-0.5-7.2-0.5-10.6c-0.2-63.6,34.8-94.8,78.1-69.6c43.3,25.2,78.6,97.1,78.7,160.8
	c0,3.4-0.1,6.9-0.4,10.2c-1.5-19.4-7.5-39.8-16.5-59c9,19.1,15,39.5,16.5,59c-0.9,16.4-4.4,30.4-9.9,41.3c-1.3,2.6-2.8,5-4.4,7.3
	c-1,1.4-2,2.8-3.1,4l53.5,31l-0.6-190.7C913.8,2159.3,913.2,2070.8,800.8,2005.4"/>
<path d="M474.2,1945.8c-25.1-14.6-47.3-13.3-61.6,0.6c-9,8.7-14.8,22.2-16.2,39.9c1.2,18,4.6,35.8,10.2,52.9
	c1.4,4.2,2.8,8.4,4.5,12.5c1,2.6,2,5.1,3.1,7.6c14.4,33.9,36.2,62.8,60.6,77c24.4,14.2,46.1,10.5,60.4-6.7c1.1-1.3,2.1-2.7,3.1-4.1
	c1.7-2.3,3.2-4.8,4.4-7.3c5.4-10.9,8.9-24.8,9.9-41.2c-1.5-19.4-7.5-39.8-16.5-59c-3.6-7.6-7.7-15-12.2-22.2
	c9,19.5,11.2,36.4,4.5,40.2c-2.7,1.5-6.4,0.8-10.7-1.7c-8.6-5-19.5-17.2-28.6-33.1c-13.7-23.8-18.4-46.8-10.3-51.4
	c0.4-0.2,0.9-0.4,1.4-0.6C478.1,1948.1,476.2,1946.9,474.2,1945.8"/>
<path d="M800,2135.1c-25.1-14.5-47.3-13.3-61.6,0.6c-9,8.7-14.8,22.2-16.2,39.9c1.2,18,4.6,35.7,10.1,52.9c1.3,4.2,2.8,8.4,4.5,12.5
	c1,2.6,2,5.2,3.1,7.7c14.4,33.9,36.2,62.9,60.6,77.1c24.4,14.2,46.1,10.5,60.4-6.7c1.1-1.3,2.1-2.6,3.1-4c1.7-2.3,3.2-4.8,4.4-7.3
	c5.4-10.9,8.9-24.9,9.9-41.3c-1.5-19.4-7.5-39.8-16.5-59c-3.6-7.6-7.7-15.1-12.2-22.2c9,19.5,11.2,36.4,4.5,40.2
	c-2.7,1.5-6.4,0.8-10.7-1.7c-8.6-5-19.5-17.2-28.6-33.1c-13.7-23.8-18.4-46.8-10.3-51.4c0.4-0.2,0.9-0.4,1.4-0.6
	c-1.9-1.3-3.8-2.5-5.7-3.6"/>
<path d="M474.1,1906.1c-43.3-25.2-78.3,6-78.1,69.6c0,3.4,0.2,7.1,0.5,10.6c1.4-17.7,7.3-31.3,16.2-39.9
	c14.3-13.8,36.5-15.1,61.6-0.6c1.9,1.1,3.8,2.3,5.7,3.6c2.5-0.7,5.7,0.1,9.3,2.3c8.6,5,19.5,17.2,28.6,33.1
	c2.2,3.8,4.1,7.5,5.8,11.2c4.6,7.1,8.7,14.5,12.3,22.1c9,19.1,15,39.5,16.5,59c0.3-3.2,0.4-6.7,0.4-10.1
	C552.6,2003.2,517.5,1931.2,474.1,1906.1"/>
<path d="M799.9,2095.4c-43.3-25.2-78.3,6-78.1,69.6c0,3.4,0.2,7.1,0.5,10.6c1.4-17.7,7.3-31.3,16.2-39.9
	c14.3-13.8,36.5-15.1,61.6-0.6c1.9,1.1,3.8,2.3,5.7,3.6c2.5-0.7,5.7,0.1,9.3,2.3c8.6,5,19.5,17.2,28.6,33.1
	c2.2,3.8,4.1,7.5,5.8,11.2c4.6,7.1,8.6,14.5,12.3,22.1c9,19.1,15,39.5,16.5,59c0.3-3.2,0.4-6.7,0.4-10.2
	C878.5,2192.5,843.3,2120.5,799.9,2095.4"/>
<path class="st3" d="M815.1,2140.9c-3.6-2.1-6.8-2.9-9.3-2.3c-0.5,0.1-1,0.3-1.4,0.6c-8.1,4.6-3.4,27.6,10.3,51.4
	c9.1,15.9,20,28.1,28.6,33.1c4.3,2.5,8,3.2,10.7,1.7c6.8-3.9,4.6-20.8-4.5-40.2c-1.7-3.7-3.6-7.4-5.8-11.2
	C834.6,2158.1,823.7,2145.9,815.1,2140.9"/>
<path class="st3" d="M489.3,1951.6c-3.6-2.1-6.8-2.9-9.3-2.3c-0.5,0.1-1,0.3-1.4,0.6c-8.1,4.6-3.4,27.6,10.3,51.4
	c9.1,15.9,20,28.1,28.6,33.1c4.3,2.5,8,3.2,10.7,1.7c6.8-3.9,4.6-20.8-4.5-40.2c-1.7-3.7-3.6-7.4-5.8-11.2
	C508.7,1968.7,497.8,1956.5,489.3,1951.6"/>
<polygon class="st1" points="1272.6,1470 12.5,742.2 1273.2,15.3 2533.5,742.1 "/>
<polyline class="st4" points="1273,43.9 61.9,742.1 1272.8,1441.4 2484.1,742.1 1273,43.9 "/>
<g>
	<polygon class="st1" points="2484.1,742.1 1273,43.9 61.9,742.1 1272.8,1441.4 	"/>
	<polygon class="st1" points="1253,2581.7 1244,2575.2 1243,2212.3 1252,2211.8 1251.6,2076.4 1251.5,2075.9 1242.6,2076.6 
		1248.5,1483.9 36.7,784.1 35.8,1379.4 35.8,1379.3 32.9,1375.6 20.9,1360.7 20.8,1361.1 21.3,1496.6 33.2,1511.2 36.2,1514.8 
		37.3,1873.1 34.3,1871.7 22.3,1866.5 22.2,1866.4 22.6,1987.3 34.6,1993.3 37.6,1994.7 38.1,2182.2 1248.8,2883.5 1244.4,2696.6 
		1253.4,2702.6 	"/>
	<polygon class="st1" points="1297.7,2882.7 2507.4,2182 2508.8,784.9 1297.5,1484.1 	"/>
	<path d="M2533.5,742.1L2533.5,742.1L2533.5,742.1L1273.2,15.3L12.5,742.1l0,0l1.6,1453.9L1273,2925.4l0,0l1259.3-729.3
		L2533.5,742.1L2533.5,742.1L2533.5,742.1z M1273,43.9l1211.1,698.2l-1211.3,699.2L61.9,742.1L1273,43.9z M1248.8,2883.5
		L38.1,2182.2l-0.5-187.5l-3-1.4l-12.1-5.9l-0.3-120.9l0.1,0.1l11.9,5.2l3,1.3l-1-358.2l-3-3.6l-12-14.6l-0.5-135.6l0.1-0.4l12,14.9
		l3,3.7v0l0.9-595.3l1211.8,699.8l-5.9,592.7l8.9-0.8l0.1,0.5l0.4,135.5l-9,0.4l1,362.9l9,6.5l0.3,120.9l-9-6L1248.8,2883.5z
		 M2507.4,2182l-1209.7,700.7l-0.3-1398.5l1211.3-699.2L2507.4,2182z"/>
</g>
<g>
	<path d="M711.3,932.8l-95.6-55.5l20.8-12c7.6-4.4,15.6-7.9,24-10.6c8.4-2.7,17.2-4.5,26-5.1c8.8-0.7,17.7-0.2,26.3,1.5
		c8.8,1.7,17.3,4.9,25,9.4c9.1,5.3,15.4,10.6,18.7,16c3.4,5.3,4.4,10.6,3.1,15.8s-4.6,10.3-9.9,15.3c-6.2,5.6-13,10.5-20.2,14.6
		L711.3,932.8 M600.6,848l-53,30.6l161.1,93.6l57.7-33.3c11.9-6.9,21.6-14.5,29-22.7c7.3-8.3,11.8-16.8,13.3-25.5
		c1.6-8.7-0.2-17.3-5.2-26c-5.1-8.6-14.1-16.7-27.1-24.3c-14-8.3-29.2-14.2-45.1-17.4c-15-3.1-30.4-4-45.6-2.8
		c-15.1,1.2-29.9,4.3-44.2,9.3C627.2,834.4,613.5,840.6,600.6,848"/>
	<path d="M869.2,805.3l-30.7-40.4l69.8,17.8L869.2,805.3 M807.3,728.7l-29.2,16.9L870,879.2l38.9-22.5l-20.7-27.5l62.2-35.9
		l47.9,11.9l39.8-23L807.3,728.7"/>
	<polyline points="990.2,623.1 863.6,696.2 895,714.5 940.7,688.1 1070.4,763.5 1105.7,743.1 975.9,667.7 1021.6,641.3 990.2,623.1 
			"/>
	<path d="M1137.1,650.6l-30.7-40.4l69.8,17.8L1137.1,650.6 M1075.2,574l-29.1,16.8l91.9,133.6l38.9-22.5l-20.8-27.5l62.2-35.9
		l47.9,11.8l39.8-23L1075.2,574"/>
	<path d="M843.9,987.9c-7.2,4-13.8,9.1-19.5,15.1c-5.2,5.5-8.4,11.2-9.6,17.1c-1.2,5.9-0.2,12.1,2.9,17.3
		c3.1,5.7,8.9,11.1,17.6,16.2c8.3,5,17.6,8.2,27.2,9.3c9,1.1,18.1,0.9,27.1-0.3c8.8-1.3,17.5-3.2,26-5.9c8.5-2.6,16.5-4.9,24-7
		c6.9-1.9,13.9-3.2,21.1-3.8c5.9-0.6,11.8,0.6,17,3.4c2.9,1.7,4.7,3.6,5.4,5.6c0.7,2.1,0.6,4.3-0.4,6.3c-1.2,2.4-2.9,4.6-4.9,6.3
		c-2.3,2.2-4.9,4.1-7.7,5.7c-6.6,3.6-13.7,6.2-21,7.5c-8.2,1.6-16.6,2.1-25,1.3l2.7,30.6c13.6-0.1,27.1-1.9,40.3-5.4
		c11.8-3.2,23.2-7.8,33.8-13.9c7.5-4.2,14.4-9.4,20.4-15.5c5.4-5.5,8.6-11.2,9.9-17.1c1.2-6,0.1-12.2-3.2-17.4
		c-3.3-5.8-9.4-11.3-18.4-16.5c-8.6-5.2-18.1-8.5-28-9.9c-9-1.2-18.1-1.1-27.1,0.1c-8.6,1.2-17.2,3.1-25.5,5.8c-8.1,2.6-16,5-23.2,7
		c-6.6,2-13.4,3.3-20.3,4.1c-5.8,0.7-11.6-0.5-16.6-3.4c-3-1.8-4.9-3.7-5.5-5.8c-0.6-2.1-0.3-4.4,0.8-6.4c1.2-2.3,2.9-4.4,4.9-6.1
		c2.1-2,4.5-3.7,7-5.1c5.2-2.8,10.7-5,16.5-6.5c6.4-1.8,13.1-2.5,19.7-2l-2.4-29.5c-12.1,0.3-24.2,2.2-35.8,5.7
		C863.5,978.1,853.4,982.4,843.9,987.9"/>
	<path d="M1003.3,895.8c-12.5,7.2-22.1,15-28.7,23.4c-6.7,8.4-10.1,16.9-10.4,25.6c-0.3,8.7,2.6,17.4,8.7,25.9
		c6.2,8.6,15.7,16.6,28.6,24.1c12.9,7.5,26.9,13.1,41.4,16.7c29.3,7.2,59.9,6.9,89.1-0.8c14.2-3.7,27.8-9.2,40.5-16.5
		c11-6.3,19.4-13.8,25.2-22.5s7.4-17.7,4.7-27.2l-51.5,4.2c1.9,5,1.5,10.6-1,15.4c-2.6,5-7.4,9.6-14.6,13.8
		c-6.8,3.8-14.1,6.5-21.7,8c-8.3,1.7-16.7,2.4-25.2,2c-8.8-0.4-17.5-1.7-26-4c-8.5-2.3-16.7-5.7-24.4-10.1
		c-7.4-4.3-13.2-9-17.2-14.1c-4-5.1-6.3-10.1-6.8-15.2c-0.4-5.2,1-10.5,3.9-14.8c3.1-4.8,8-9.1,14.6-12.9c6.5-3.8,13.6-6.5,20.9-8.1
		c7.4-1.6,15-2.2,22.6-1.7l4.8-28.6c-7.6-0.6-15.3-0.5-22.9,0.3c-7.1,0.7-14.1,2-21,3.7c-6.3,1.6-12.5,3.6-18.5,6
		C1013.3,890.5,1008.2,892.9,1003.3,895.8"/>
	<polyline points="1125.4,830.1 1090.2,850.4 1251.3,944.1 1286.6,923.7 1125.4,830.1 	"/>
	<polyline points="1273.8,744.4 1165,807.2 1326.2,900.9 1439,835.7 1406.3,816.7 1328.7,861.5 1295.9,842.4 1365.4,802.3 
		1332.6,783.3 1263.1,823.4 1233.1,805.9 1306.6,763.5 1273.8,744.4 	"/>
	<polyline points="1463.9,634.6 1428.7,655 1540.7,720.1 1540.2,720.3 1360.2,694.5 1312.2,722.2 1473.4,815.9 1508.7,795.5 
		1394,728.8 1394.4,728.6 1579,754.9 1625.1,728.3 1463.9,634.6 	"/>
	<path d="M1576.3,565c-12.5,7.2-22,15-28.7,23.4c-6.6,8.4-10.1,16.9-10.4,25.6c-0.3,8.7,2.6,17.3,8.8,25.9
		c6.2,8.6,15.7,16.6,28.6,24.1c13,7.5,26.9,13.1,41.5,16.6c14.6,3.6,29.7,5.4,44.8,5.2c15-0.2,29.8-2.2,44.3-6
		c14.2-3.7,27.8-9.2,40.5-16.5c11-6.4,19.5-13.9,25.2-22.5s7.3-17.7,4.7-27.2l-51.5,4.1c1.9,5,1.4,10.7-1.1,15.4
		c-2.5,5-7.4,9.6-14.6,13.8c-6.7,3.8-14,6.5-21.6,8c-8.3,1.7-16.7,2.4-25.2,2c-8.8-0.4-17.5-1.7-26-4c-8.5-2.3-16.7-5.7-24.3-10.1
		c-7.4-4.3-13.2-9-17.3-14c-3.7-4.3-6-9.6-6.7-15.2c-0.4-5.2,0.9-10.4,3.9-14.8c3-4.8,7.9-9,14.5-12.9c6.5-3.8,13.6-6.5,21-8.1
		c7.4-1.6,15-2.2,22.6-1.7l4.8-28.6c-7.6-0.6-15.3-0.5-22.9,0.3c-13.5,1.3-26.8,4.6-39.4,9.7C1586.4,559.7,1581.2,562.2,1576.3,565"
		/>
	<polyline points="1773.8,455.7 1665,518.5 1826.2,612.2 1939,547 1906.3,528 1828.7,572.8 1795.9,553.7 1865.4,513.6 1832.6,494.6 
		1763.1,534.7 1733.1,517.2 1806.6,474.8 1773.8,455.7 	"/>
</g>
<g>
	<path d="M1273,43.3l1235.5,713.3v1426.6l-4.3,2.5l-1226.9,708.4l-4.3,2.5l-4.3-2.5L41.8,2185.7l0,0l0,0l-4.2-2.4V756.6L1273,43.3
		 M1273,14.4L12.5,742.1v1455.6l16.8,9.6l1226.9,708.4l16.8,9.7l16.8-9.7l1226.9-708.4l16.8-9.7V742.1L1273,14.4L1273,14.4z"/>
</g>
</svg>
