<svg id="Calque_1" data-name="Calque 1" xmlns="http://www.w3.org/2000/svg" xmlns:xlink="http://www.w3.org/1999/xlink" viewBox="0 0 2211.61 2558.53"><defs><style>.cls-1,.cls-10{fill:none;}.cls-2{isolation:isolate;}.cls-3{clip-path:url(#clip-path);}.cls-4{fill:#f26baa;}.cls-5{clip-path:url(#clip-path-2);}.cls-6{fill:#a7d5e8;}.cls-7{fill:#fff;}.cls-8{clip-path:url(#clip-path-3);}.cls-9{fill:#ffd748;}.cls-10{stroke:#000;stroke-miterlimit:10;stroke-width:2px;}</style><clipPath id="clip-path" transform="translate(-0.22 1.37)"><polygon class="cls-1" points="2208.2 641.49 2211.81 1914.19 1104.22 2553.66 1100.61 1280.96 2208.2 641.49"/></clipPath><clipPath id="clip-path-2" transform="translate(-0.22 1.37)"><polygon class="cls-1" points="1104.22 2553.66 3.85 1914.19 0.24 641.49 1100.61 1280.96 1104.22 2553.66"/></clipPath><clipPath id="clip-path-3" transform="translate(-0.22 1.37)"><polygon class="cls-1" points="1100.61 1280.96 0.24 641.49 1107.83 2.02 2208.2 641.49 1100.61 1280.96"/></clipPath></defs><g class="cls-2"><g class="cls-3"><path class="cls-4" d="M1294.65,2137l-30.44,17.57.18,61.37,30.24-17.46a95.11,95.11,0,0,0,10.41-7.07,66.9,66.9,0,0,0,10.59-10.62,65.13,65.13,0,0,0,8.33-14,41.74,41.74,0,0,0,3.38-17.19q0-15.68-8.87-18.51c-5.88-1.84-13.8.1-23.82,5.88m1.75-74.46-32.4,18.7.15,52.39,28.1-16.22a73.64,73.64,0,0,0,10.94-7.72,51,51,0,0,0,9-9.8,48.17,48.17,0,0,0,6.08-11.72,39.66,39.66,0,0,0,2.22-13.54c0-7-2-12-5.82-14.92s-10-1.94-18.25,2.83m181.77-108a97,97,0,0,0-23.59,19.24,134.06,134.06,0,0,0-17.94,25.49,130.36,130.36,0,0,0-11.52,29,113.69,113.69,0,0,0-4,29.71c0,9.61,1.42,18,4.18,24.92s6.59,12.22,11.64,15.66,11,5,18,4.73,14.87-3,23.62-8a95.67,95.67,0,0,0,23.53-19.21,132.32,132.32,0,0,0,29.51-54.55,115.31,115.31,0,0,0,4-29.63c0-9.65-1.42-18-4.14-25s-6.64-12.19-11.64-15.66a29.55,29.55,0,0,0-18.08-4.69c-7,.33-14.86,3-23.56,8m-179.41-183.36-.39.23-28.51,97.66,57.47-33.17-28.57-64.72m-54.89,477.62-.5-176.7,52.73-30.44a73.85,73.85,0,0,1,18.33-7.83c5.67-1.42,10.52-1.52,14.63-.29a16.29,16.29,0,0,1,9.67,8.14c2.36,4.21,3.55,10,3.57,17.57a60.76,60.76,0,0,1-7.21,29,97.46,97.46,0,0,1-18.82,25v.51c4.6-2.32,8.9-3.46,12.86-3.32a17.79,17.79,0,0,1,10.44,3.48,22.45,22.45,0,0,1,7,9.61,39.73,39.73,0,0,1,2.59,15.2,67.93,67.93,0,0,1-4.09,23.52,94,94,0,0,1-11.44,22,114.67,114.67,0,0,1-16.88,19.25,117.67,117.67,0,0,1-20.81,15.28l-52.09,30.07m487.61-458.51-50.34,112.81,56,60.93-27,15.6-43.71-51.53-43.52,101.89-25.5,14.73,54.81-124.61-51.26-54.44,26.39-15.23,39.63,45.12,38.85-90.43,25.7-14.84m-252.85,327.47q-17.37,10-32,11.32c-9.74.9-18.06-.87-25-5.18s-12.42-11-16.36-20-6-20.12-6-33.26a142.78,142.78,0,0,1,5.8-40.13,181.16,181.16,0,0,1,16.19-38.82,173.82,173.82,0,0,1,24.91-34,138.52,138.52,0,0,1,31.94-25.58c11.58-6.69,22.19-10.45,31.93-11.29s18.11.85,25,5.18,12.41,11,16.4,20,5.93,20.14,6,33.33a143.68,143.68,0,0,1-5.76,40.05,182.76,182.76,0,0,1-16.24,38.85,172,172,0,0,1-24.91,34,137.67,137.67,0,0,1-31.89,25.55m-254.91-157.26,66.4-215.32,18.66-10.78,65.45,139.21-24,13.86-15.37-34.89-72.22,41.7-14.88,52.34-24,13.88m18.46-310.64-.51-176.7,20.58-11.88.5,176.7-20.57,11.88m200.1-147,.44-.25-.41-145.25,20.57-11.88.5,176.7-26.14,15.09-84.85-96.51-.44.26.41,145.25-20.57,11.88-.5-176.7,27-15.6,84,97M2186.54,679,1122.43,1293.37l3.46,1222.81L2190,1901.82,2186.54,679" transform="translate(-0.22 1.37)"/><path d="M1125.89,2516.18l-3.46-1222.81L2186.54,679,2190,1901.82,1125.89,2516.18M2208.22,641.46,1100.61,1280.94l3.61,1272.73,1107.61-639.48-3.61-1272.73" transform="translate(-0.22 1.37)"/><polyline points="1262.03 1462.72 1241.46 1474.6 1241.96 1651.29 1262.53 1639.42 1262.03 1462.72"/><polyline points="1462.66 1346.88 1442.09 1358.76 1442.5 1504.01 1442.07 1504.27 1358.1 1407.25 1331.07 1422.86 1331.58 1599.55 1352.15 1587.68 1351.74 1442.42 1352.18 1442.17 1437.02 1538.67 1463.17 1523.58 1462.66 1346.88"/><path d="M1269.86,1869.13l28.51-97.66.39-.23,28.57,64.72-57.47,33.17m38.92-134.67-18.66,10.78-66.4,215.32,24-13.88,14.88-52.34,72.22-41.7,15.37,34.89,24-13.86-65.45-139.21" transform="translate(-0.22 1.37)"/><path d="M1264.39,2216l-.18-61.37,30.44-17.57c10-5.78,17.94-7.72,23.82-5.88s8.84,8.06,8.87,18.51a41.74,41.74,0,0,1-3.38,17.19,65.13,65.13,0,0,1-8.33,14,66.9,66.9,0,0,1-10.59,10.62,95.11,95.11,0,0,1-10.41,7.07L1264.39,2216m-.24-82.31-.15-52.39,32.4-18.7c8.26-4.77,14.37-5.71,18.25-2.83s5.8,7.9,5.82,14.92a39.66,39.66,0,0,1-2.22,13.54,48.17,48.17,0,0,1-6.08,11.72,51,51,0,0,1-9,9.8,73.64,73.64,0,0,1-10.94,7.72l-28.1,16.22m31.95-92-52.73,30.44.5,176.7,52.09-30.07a117.67,117.67,0,0,0,20.81-15.28,114.67,114.67,0,0,0,16.88-19.25,94,94,0,0,0,11.44-22,67.93,67.93,0,0,0,4.09-23.52,39.73,39.73,0,0,0-2.59-15.2,22.45,22.45,0,0,0-7-9.61,17.79,17.79,0,0,0-10.44-3.48c-4-.14-8.26,1-12.86,3.32v-.51a97.46,97.46,0,0,0,18.82-25,60.76,60.76,0,0,0,7.21-29c0-7.53-1.21-13.36-3.57-17.57a16.29,16.29,0,0,0-9.67-8.14c-4.11-1.23-9-1.13-14.63.29a73.85,73.85,0,0,0-18.33,7.83" transform="translate(-0.22 1.37)"/><path d="M1478.57,2095.36q-13.12,7.57-23.62,8c-7,.27-13-1.26-18-4.73S1428,2090,1425.28,2083s-4.15-15.31-4.18-24.92a113.69,113.69,0,0,1,4-29.71,130.36,130.36,0,0,1,11.52-29,134.06,134.06,0,0,1,17.94-25.49,97,97,0,0,1,23.59-19.24c8.7-5,16.57-7.65,23.56-8a29.55,29.55,0,0,1,18.08,4.69c5,3.47,8.88,8.65,11.64,15.66s4.11,15.35,4.14,25a115.31,115.31,0,0,1-4,29.63,132.32,132.32,0,0,1-29.51,54.55,95.67,95.67,0,0,1-23.53,19.21m-.47-163.22a138.52,138.52,0,0,0-31.94,25.58,173.82,173.82,0,0,0-24.91,34,181.16,181.16,0,0,0-16.19,38.82,142.78,142.78,0,0,0-5.8,40.13c0,13.14,2,24.2,6,33.26s9.39,15.72,16.36,20,15.28,6.08,25,5.18,20.4-4.63,32-11.32a137.67,137.67,0,0,0,31.89-25.55,172,172,0,0,0,24.91-34,182.76,182.76,0,0,0,16.24-38.85,143.68,143.68,0,0,0,5.76-40.05c0-13.19-2-24.25-6-33.33s-9.44-15.7-16.4-20-15.29-6.08-25-5.18-20.35,4.6-31.93,11.29" transform="translate(-0.22 1.37)"/><polyline points="1731.26 1791.73 1705.56 1806.57 1666.71 1896.99 1627.08 1851.87 1600.7 1867.11 1651.95 1921.54 1597.14 2046.15 1622.65 2031.43 1666.16 1929.53 1709.87 1981.07 1736.89 1965.47 1680.92 1904.53 1731.26 1791.73"/></g></g><g class="cls-2"><g class="cls-5"><path class="cls-6" d="M550.72,1993.77,24.45,1737.6,24.91,1902,1083,2516.91l-.46-163.92-2.67-1.79L550.72,1993.77M23.26,1316.82l.89,314.11,198,87.85s-2.56-129.91-2.58-137c0-10.18-2.7-16.14-10-30.67-8.89-17.48-39.28-55.16-39.28-55.16l-147-179.17m1058.09,611.55-2.66.13-151.33,7.72s-30.32,2.45-39.14,9.64c-7.25,6.06-9.91,8.91-9.88,19.05l.39,135.41,200.86,144.33,2.67,1.92-.91-318.2m-1.8-635.18L21.45,678.28l1.47,519.79,179.84,225.14a149.86,149.86,0,0,1,15.32,20.94c7.83,12.8,13.72,27.71,16.69,36,8.58,24,17.48,62,17.48,62s10.11-155.81,152.33-73.16S550,1722.72,550,1722.72s2.23-167.92,144.41-85.3,153.25,250.74,153.25,250.74,8.66-27.78,17.13-41.88c3-4.86,8.81-13,16.55-16.72a34,34,0,0,1,15.25-3.18l181.81-16.72,2.67-.23-1.47-516.24" transform="translate(-0.22 1.37)"/><path d="M22.92,1198.07,21.45,678.28l1058.1,614.91,1.47,516.24,7.79-.67.1.44.33,118.78-7.89.39.91,318.2,7.9,5.71.3,106-7.9-5.29.46,163.92L24.91,1902l-.46-164.41-2.62-1.27-10.57-5.21-.3-106,.1.05,10.47,4.6,2.62,1.16-.89-314.11-2.63-3.19-10.49-12.76L9.71,1182l.09-.33,10.5,13.08,2.62,3.28M1100.62,1281,.24,641.49l3.6,1272.68,1100.39,639.48L1100.62,1281" transform="translate(-0.22 1.37)"/><path d="M307.65,1766.91l-.43-167.16s.12-77.29,98.68-20c91,52.91,95.41,119,95.44,130.9,0,1.24,0,1.89,0,1.89l.62,167.21-41.23-23.85c-12.5,15.14-31.54,18.34-52.94,5.91s-40.5-37.83-53.12-67.54l-47-27.35m291,.29c0-11.94,4-73.13,95-20.23,98.56,57.28,99.11,135,99.11,135l.52,167.22-46.93-27.22c-12.53,15.1-31.54,18.34-53,5.9s-40.52-37.82-53.15-67.56l-42.18-24.51.62-166.61s-.05-.7-.05-1.94m490.15,41.56-7.79.67-2.67.23-181.81,16.72a34,34,0,0,0-15.25,3.18c-7.74,3.75-13.57,11.86-16.55,16.72-8.47,14.1-17.13,41.88-17.13,41.88s-11-168.09-153.25-250.74S550,1722.72,550,1722.72s-3.19-171.08-145.37-253.7-152.33,73.16-152.33,73.16-8.9-38-17.48-62c-3-8.32-8.86-23.23-16.69-36a149.86,149.86,0,0,0-15.32-20.94L22.92,1198.07l-2.62-3.28L9.8,1181.71l-.09.33.43,118.83,10.49,12.76,2.63,3.19L170.31,1496s30.39,37.68,39.28,55.16c7.32,14.53,10,20.49,10,30.67,0,7,2.58,137,2.58,137l-198-87.85-2.62-1.16-10.47-4.6-.1-.05.3,106,10.57,5.21,2.62,1.27,526.27,256.17,529.17,357.43,2.67,1.79,7.9,5.29-.3-106-7.9-5.71-2.67-1.92L878.73,2100.32l-.39-135.41c0-10.14,2.63-13,9.88-19.05,8.82-7.19,39.14-9.64,39.14-9.64l151.33-7.72,2.66-.13,7.89-.39-.33-118.78-.1-.44" transform="translate(-0.22 1.37)"/><path class="cls-7" d="M405.9,1579.74c-98.56-57.28-98.68,20-98.68,20l.43,167.16,47,27.35q-1.41-3.32-2.71-6.69c-1.43-3.58-2.73-7.3-3.92-11a188.48,188.48,0,0,1-8.93-46.42c1.26-15.52,6.37-27.43,14.22-35-7.85,7.59-13,19.5-14.22,35-.25-3.12-.4-6.29-.41-9.31-.16-55.79,30.52-83.1,68.52-61s68.88,85.17,69,141c0,3-.08,6-.31,8.89-1.35-17-6.55-34.93-14.47-51.69,7.92,16.76,13.12,34.66,14.47,51.69-.82,14.42-3.87,26.61-8.64,36.15a45.33,45.33,0,0,1-3.88,6.43c-.86,1.27-1.77,2.47-2.7,3.6l41.23,23.85-.62-167.21s0-.65,0-1.89c0-11.92-4.4-78-95.44-130.9" transform="translate(-0.22 1.37)"/><path class="cls-7" d="M693.67,1747c-91-52.9-95.06,8.29-95,20.23,0,1.24.05,1.94.05,1.94l-.62,166.61,42.18,24.51c-.94-2.22-1.85-4.48-2.72-6.75-1.44-3.64-2.78-7.33-3.93-11a189.36,189.36,0,0,1-8.88-46.34c1.26-15.51,6.37-27.42,14.22-35-7.85,7.59-13,19.5-14.22,35-.25-3.11-.4-6.28-.41-9.3-.16-55.79,30.52-83.1,68.52-61s68.88,85.17,69,140.95c0,3-.08,6.06-.31,8.9-1.35-17-6.55-34.93-14.47-51.69,7.92,16.76,13.12,34.66,14.47,51.69-.82,14.42-3.87,26.66-8.64,36.21a48.12,48.12,0,0,1-3.89,6.43c-.85,1.25-1.75,2.43-2.68,3.55l46.93,27.22-.52-167.22s-.55-77.67-99.11-135" transform="translate(-0.22 1.37)"/><path d="M407.27,1694.67c-22-12.76-41.46-11.62-54,.5-7.85,7.59-13,19.5-14.22,35a188.48,188.48,0,0,0,8.93,46.42c1.19,3.66,2.49,7.38,3.92,11q1.3,3.38,2.71,6.69c12.62,29.71,31.71,55.1,53.12,67.54s40.44,9.23,52.94-5.91c.93-1.13,1.84-2.33,2.7-3.6a45.33,45.33,0,0,0,3.88-6.43c4.77-9.54,7.82-21.73,8.64-36.15-1.35-17-6.55-34.93-14.47-51.69a174.71,174.71,0,0,0-10.74-19.44c7.93,17.06,9.86,31.88,3.91,35.27-2.34,1.35-5.62.74-9.39-1.45-7.55-4.39-17.09-15.09-25.11-29-12-20.9-16.09-41.07-9-45.1a5.22,5.22,0,0,1,1.22-.5q-2.49-1.66-5-3.14" transform="translate(-0.22 1.37)"/><path d="M692.94,1860.68c-22-12.75-41.45-11.62-54,.51-7.85,7.59-13,19.5-14.22,35a189.36,189.36,0,0,0,8.88,46.34c1.15,3.64,2.49,7.33,3.93,11,.87,2.27,1.78,4.53,2.72,6.75,12.63,29.74,31.75,55.12,53.15,67.56s40.42,9.2,53-5.9c.93-1.12,1.83-2.3,2.68-3.55a48.12,48.12,0,0,0,3.89-6.43c4.77-9.55,7.82-21.79,8.64-36.21-1.35-17-6.55-34.93-14.47-51.69a175.75,175.75,0,0,0-10.74-19.45c7.93,17.07,9.86,31.89,3.91,35.28-2.34,1.35-5.62.74-9.39-1.45-7.55-4.39-17.09-15.09-25.11-29-12-20.91-16.09-41.07-9-45.1a5.22,5.22,0,0,1,1.22-.5q-2.49-1.66-5-3.15" transform="translate(-0.22 1.37)"/><path d="M407.17,1659.86c-38-22.08-68.68,5.23-68.52,61,0,3,.16,6.19.41,9.31,1.26-15.52,6.37-27.43,14.22-35,12.53-12.12,32-13.26,54-.5q2.53,1.47,5,3.14c2.2-.6,5,.12,8.17,2,7.55,4.39,17.09,15.08,25.11,29,1.91,3.32,3.62,6.61,5.11,9.83A174.71,174.71,0,0,1,461.43,1758c7.92,16.76,13.12,34.66,14.47,51.69.23-2.84.32-5.87.31-8.89-.16-55.79-31-118.88-69-141" transform="translate(-0.22 1.37)"/><path d="M692.85,1825.88c-38-22.08-68.68,5.23-68.52,61,0,3,.16,6.19.41,9.3,1.26-15.51,6.37-27.42,14.22-35,12.53-12.13,32-13.26,54-.51q2.55,1.48,5,3.15c2.2-.6,5,.12,8.17,2,7.55,4.38,17.08,15.08,25.11,29,1.91,3.31,3.61,6.61,5.11,9.82A175.75,175.75,0,0,1,747.11,1924c7.92,16.76,13.12,34.66,14.47,51.69.23-2.84.31-5.87.31-8.9-.16-55.78-31-118.87-69-140.95" transform="translate(-0.22 1.37)"/><path class="cls-7" d="M706.15,1865.79c-3.16-1.84-6-2.56-8.17-2a5.22,5.22,0,0,0-1.22.5c-7.07,4-3,24.19,9,45.1,8,13.9,17.56,24.6,25.11,29,3.77,2.19,7.05,2.8,9.39,1.45,6-3.39,4-18.21-3.91-35.28-1.5-3.21-3.2-6.51-5.11-9.82-8-13.9-17.56-24.6-25.11-29" transform="translate(-0.22 1.37)"/><path class="cls-7" d="M420.47,1699.77c-3.16-1.84-6-2.56-8.17-2a5.22,5.22,0,0,0-1.22.5c-7.07,4-3,24.2,9,45.1,8,13.9,17.56,24.6,25.11,29,3.77,2.19,7.05,2.8,9.39,1.45,5.95-3.39,4-18.21-3.91-35.27-1.49-3.22-3.2-6.51-5.11-9.83-8-13.9-17.56-24.59-25.11-29" transform="translate(-0.22 1.37)"/></g></g><g class="cls-2"><g class="cls-8"><path class="cls-9" d="M726.7,659.31l26.88,35.38,34.31-19.81L726.7,659.31M961.64,523.67l26.88,35.38,34.3-19.81-61.18-15.57M549.55,747.3l-18.23,10.53,83.8,48.69,16.07-9.28a96.07,96.07,0,0,0,17.75-12.78c4.66-4.37,7.55-8.86,8.65-13.43s.2-9.22-2.74-13.88-8.43-9.37-16.44-14a69.61,69.61,0,0,0-21.91-8.27,86,86,0,0,0-23.08-1.35A99.49,99.49,0,0,0,570.59,738a109.89,109.89,0,0,0-21,9.28m539.12,69.09L947.35,734.27l30.93-17.86,141.32,82.13-30.93,17.85m65.62-37.88L1013,696.38l95.38-55.07L1137.1,658l-64.45,37.22L1099,710.55l60.88-35.16,28.74,16.7-60.88,35.16,28.73,16.7,68-39.27,28.74,16.7-99,57.13M1342,620.21l.39-.23-98.21-57.07,30.93-17.86,141.32,82.13L1376,650.51l-161.86-23.08-.39.23,100.59,58.45L1283.39,704l-141.32-82.12,42-24.27L1342,620.21m250.73-94.82-141.31-82.13,95.38-55.06,28.74,16.7-64.45,37.21,26.36,15.32,60.88-35.15L1627,439l-60.88,35.15,28.73,16.7,68-39.27,28.74,16.7-99,57.13M842,929.67a35.71,35.71,0,0,0,6.75-5,18.6,18.6,0,0,0,4.27-5.56,7.53,7.53,0,0,0,.32-5.53c-.57-1.8-2.12-3.44-4.7-4.93a25.28,25.28,0,0,0-14.93-3A98.06,98.06,0,0,0,815.25,909c-6.58,1.83-13.66,3.89-21.07,6.15a150.28,150.28,0,0,1-22.83,5.13,93.07,93.07,0,0,1-23.77.28,60.35,60.35,0,0,1-23.82-8.18c-7.62-4.43-12.75-9.17-15.45-14.19a21.52,21.52,0,0,1-2.5-15.21c1.1-5.13,3.91-10.13,8.46-15a73.36,73.36,0,0,1,17.12-13.26,126.35,126.35,0,0,1,26.42-11.31,121.23,121.23,0,0,1,31.39-5l2.1,25.85a52.06,52.06,0,0,0-17.3,1.77,62.55,62.55,0,0,0-14.45,5.7,34.4,34.4,0,0,0-6.11,4.49,18.39,18.39,0,0,0-4.27,5.33,7.36,7.36,0,0,0-.72,5.59c.58,1.86,2.18,3.52,4.85,5.07a23.75,23.75,0,0,0,14.54,3,100.73,100.73,0,0,0,17.8-3.59c6.39-1.83,13.22-3.92,20.34-6.18a133,133,0,0,1,22.34-5.07,90.45,90.45,0,0,1,23.77-.06,65.16,65.16,0,0,1,24.55,8.72q11.79,6.85,16.13,14.47a20.67,20.67,0,0,1,2.79,15.26c-1.1,5.14-3.95,10.1-8.66,14.95a78.86,78.86,0,0,1-17.9,13.6,123.38,123.38,0,0,1-29.63,12.22A144.72,144.72,0,0,1,804,964.31l-2.38-26.86a76.81,76.81,0,0,0,21.92-1.18,60.64,60.64,0,0,0,18.45-6.6m177.68-69.29a143.78,143.78,0,0,1-35.54,14.5,158.76,158.76,0,0,1-78.13.68,136.5,136.5,0,0,1-36.35-14.62q-17-9.86-25.11-21.1t-7.66-22.74c.28-7.64,3.3-15.12,9.14-22.48s14.15-14.2,25.14-20.54a111.77,111.77,0,0,1,13.48-6.49,121.71,121.71,0,0,1,16.21-5.3A127,127,0,0,1,919.25,759a119,119,0,0,1,20.12-.25l-4.23,25.1a72.63,72.63,0,0,0-19.83,1.5A63.34,63.34,0,0,0,897,792.5c-5.81,3.36-10.07,7.11-12.77,11.31a20.5,20.5,0,0,0-3.43,13c.46,4.46,2.43,8.89,6,13.32s8.57,8.55,15.08,12.33a87,87,0,0,0,21.38,8.85,104.56,104.56,0,0,0,22.77,3.5A91.94,91.94,0,0,0,968,853a64.29,64.29,0,0,0,19-7c6.3-3.64,10.56-7.67,12.83-12.07a16.29,16.29,0,0,0,.9-13.46l45.17-3.64q3.66,12.48-4.08,23.84t-22.12,19.75M1522.12,570.3a144.13,144.13,0,0,1-35.54,14.5,159.12,159.12,0,0,1-38.84,5.22,156.7,156.7,0,0,1-39.24-4.57,136.86,136.86,0,0,1-36.4-14.58q-17-9.87-25.06-21.13c-5.41-7.51-8-15.07-7.71-22.71s3.35-15.15,9.14-22.49,14.2-14.22,25.15-20.54a112.66,112.66,0,0,1,13.53-6.51,124.45,124.45,0,0,1,34.53-8.52,116.87,116.87,0,0,1,20.11-.26l-4.23,25.11a71.25,71.25,0,0,0-19.78,1.47,63.85,63.85,0,0,0-18.4,7.14c-5.82,3.35-10.08,7.1-12.73,11.28a20,20,0,0,0-3.43,12.95,25.61,25.61,0,0,0,5.91,13.34c3.53,4.43,8.62,8.52,15.13,12.3a86.79,86.79,0,0,0,21.33,8.89,105.66,105.66,0,0,0,22.82,3.47,92.06,92.06,0,0,0,22.08-1.78,63.66,63.66,0,0,0,18.93-7q9.52-5.5,12.83-12.08a16.3,16.3,0,0,0,1-13.48l45.13-3.61q3.64,12.48-4.08,23.83t-22.13,19.75M612.92,841.08,471.65,759l46.43-26.81a206.56,206.56,0,0,1,35.79-16.28,156.48,156.48,0,0,1,38.77-8.15,144.28,144.28,0,0,1,40,2.46,128.3,128.3,0,0,1,39.56,15.29c11.46,6.66,19.35,13.74,23.79,21.3s5.95,15.12,4.6,22.76-5.25,15.13-11.67,22.38S674,805.84,663.5,811.88l-50.58,29.2m141.37-81.62L673.71,642.33l25.6-14.78,202.31,46.86-34.9,20.14-42-10.41-54.53,31.48,18.18,24.15-34.11,19.69m21.9-144.41-27.52-16,111-64.1,27.52,16-40,23.11,113.75,66.1L930,658l-113.75-66.1-40.07,23.14m213.09,8.74L908.7,506.66l25.55-14.76,202.35,46.84-34.89,20.14-42-10.38L1005.16,580l18.22,24.12-34.1,19.69m118.4-596.68L43.57,641.48l1057.23,614.4L2164.92,641.51,1107.68,27.11" transform="translate(-0.22 1.37)"/><path d="M1100.8,1255.88,43.57,641.48,1107.68,27.11l1057.24,614.4L1100.8,1255.88M1107.83,2,.22,641.48,1100.61,1281,2208.22,641.48,1107.83,2" transform="translate(-0.22 1.37)"/><path d="M615.12,806.52l-83.8-48.69,18.23-10.53a109.89,109.89,0,0,1,21-9.28,99.49,99.49,0,0,1,22.83-4.51,86,86,0,0,1,23.08,1.35,69.61,69.61,0,0,1,21.91,8.27q12,7,16.44,14c2.94,4.66,3.84,9.31,2.74,13.88s-4,9.06-8.65,13.43a96.07,96.07,0,0,1-17.75,12.78l-16.07,9.28m-97-74.34L471.65,759l141.27,82.09,50.58-29.2q15.69-9.06,25.39-19.94c6.42-7.25,10.31-14.73,11.67-22.38s-.16-15.2-4.6-22.76-12.33-14.64-23.79-21.3a128.3,128.3,0,0,0-39.56-15.29,144.28,144.28,0,0,0-40-2.46,156.48,156.48,0,0,0-38.77,8.15,206.56,206.56,0,0,0-35.79,16.28" transform="translate(-0.22 1.37)"/><path d="M753.58,694.69,726.7,659.31l61.19,15.57-34.31,19.81m-54.27-67.14-25.6,14.78,80.58,117.13,34.11-19.69-18.18-24.15,54.53-31.48,42,10.41,34.9-20.14L699.31,627.55" transform="translate(-0.22 1.37)"/><polyline points="859.47 536.33 748.45 600.42 775.98 616.42 816.05 593.29 929.79 659.39 960.72 641.53 846.98 575.43 887 552.32 859.47 536.33"/><path d="M988.52,559.05l-26.88-35.38,61.18,15.57-34.3,19.81M934.25,491.9,908.7,506.66l80.58,117.13,34.1-19.69L1005.16,580l54.53-31.48,42,10.38,34.89-20.14L934.25,491.9" transform="translate(-0.22 1.37)"/><path d="M731.39,854.79a73.36,73.36,0,0,0-17.12,13.26c-4.55,4.82-7.36,9.82-8.46,15a21.52,21.52,0,0,0,2.5,15.21c2.7,5,7.83,9.76,15.45,14.19a60.35,60.35,0,0,0,23.82,8.18,93.07,93.07,0,0,0,23.77-.28,150.28,150.28,0,0,0,22.83-5.13c7.41-2.26,14.49-4.32,21.07-6.15a98.06,98.06,0,0,1,18.48-3.36,25.28,25.28,0,0,1,14.93,3c2.58,1.49,4.13,3.13,4.7,4.93a7.53,7.53,0,0,1-.32,5.53,18.6,18.6,0,0,1-4.27,5.56,35.71,35.71,0,0,1-6.75,5,60.64,60.64,0,0,1-18.45,6.6,76.81,76.81,0,0,1-21.92,1.18L804,964.31a144.72,144.72,0,0,0,35.34-4.71A123.38,123.38,0,0,0,869,947.38a78.86,78.86,0,0,0,17.9-13.6c4.71-4.85,7.56-9.81,8.66-14.95a20.67,20.67,0,0,0-2.79-15.26q-4.34-7.62-16.13-14.47a65.16,65.16,0,0,0-24.55-8.72,90.45,90.45,0,0,0-23.77.06A133,133,0,0,0,806,885.51c-7.12,2.26-14,4.35-20.34,6.18a100.73,100.73,0,0,1-17.8,3.59,23.75,23.75,0,0,1-14.54-3c-2.67-1.55-4.27-3.21-4.85-5.07a7.36,7.36,0,0,1,.72-5.59,18.39,18.39,0,0,1,4.27-5.33,34.4,34.4,0,0,1,6.11-4.49,62.55,62.55,0,0,1,14.45-5.7,52.06,52.06,0,0,1,17.3-1.77l-2.1-25.85a121.23,121.23,0,0,0-31.39,5,126.35,126.35,0,0,0-26.42,11.31" transform="translate(-0.22 1.37)"/><path d="M871.19,774.08q-16.49,9.51-25.14,20.54c-5.84,7.36-8.86,14.84-9.14,22.48s2.25,15.23,7.66,22.74,13.8,14.53,25.11,21.1A136.5,136.5,0,0,0,906,875.56a158.76,158.76,0,0,0,78.13-.68,143.78,143.78,0,0,0,35.54-14.5q14.43-8.34,22.12-19.75t4.08-23.84l-45.17,3.64a16.29,16.29,0,0,1-.9,13.46c-2.27,4.4-6.53,8.43-12.83,12.07a64.29,64.29,0,0,1-19,7,91.94,91.94,0,0,1-22.07,1.77,104.56,104.56,0,0,1-22.77-3.5,87,87,0,0,1-21.38-8.85q-9.76-5.67-15.08-12.33c-3.53-4.43-5.5-8.86-6-13.32a20.5,20.5,0,0,1,3.43-13c2.7-4.2,7-7.95,12.77-11.31a63.34,63.34,0,0,1,18.36-7.11,72.63,72.63,0,0,1,19.83-1.5l4.23-25.1a119,119,0,0,0-20.12.25,127,127,0,0,0-18.37,3.25,121.71,121.71,0,0,0-16.21,5.3,111.77,111.77,0,0,0-13.48,6.49" transform="translate(-0.22 1.37)"/><polyline points="978.06 717.78 947.13 735.64 1088.45 817.77 1119.38 799.91 978.06 717.78"/><polyline points="1108.14 642.68 1012.76 697.75 1154.08 779.88 1253.03 722.75 1224.29 706.05 1156.27 745.32 1127.53 728.62 1188.42 693.47 1159.68 676.76 1098.79 711.92 1072.43 696.6 1136.88 659.39 1108.14 642.68"/><polyline points="1274.87 546.43 1243.94 564.28 1342.14 621.36 1341.75 621.58 1183.88 598.96 1141.86 623.22 1283.18 705.34 1314.11 687.49 1213.52 629.03 1213.91 628.81 1375.77 651.88 1416.18 628.55 1274.87 546.43"/><path d="M1373.62,484q-16.42,9.48-25.15,20.54T1339.33,527c-.29,7.64,2.3,15.2,7.71,22.71s13.75,14.55,25.06,21.13a136.86,136.86,0,0,0,36.4,14.58,156.7,156.7,0,0,0,39.24,4.57,159.12,159.12,0,0,0,38.84-5.22,144.13,144.13,0,0,0,35.54-14.5q14.52-8.37,22.13-19.75t4.08-23.83l-45.13,3.61a16.3,16.3,0,0,1-1,13.48q-3.32,6.57-12.83,12.08a63.66,63.66,0,0,1-18.93,7,92.06,92.06,0,0,1-22.08,1.78,105.66,105.66,0,0,1-22.82-3.47,86.79,86.79,0,0,1-21.33-8.89c-6.51-3.78-11.6-7.87-15.13-12.3a25.61,25.61,0,0,1-5.91-13.34,20,20,0,0,1,3.43-12.95c2.65-4.18,6.91-7.93,12.73-11.28a63.85,63.85,0,0,1,18.4-7.14,71.25,71.25,0,0,1,19.78-1.47l4.23-25.11a116.87,116.87,0,0,0-20.11.26,124.45,124.45,0,0,0-34.53,8.52,112.66,112.66,0,0,0-13.53,6.51" transform="translate(-0.22 1.37)"/><polyline points="1546.55 389.57 1451.17 444.64 1592.49 526.76 1691.44 469.63 1662.7 452.93 1594.68 492.2 1565.94 475.5 1626.83 440.35 1598.09 423.65 1537.2 458.8 1510.84 443.48 1575.29 406.27 1546.55 389.57"/></g></g><polygon class="cls-10" points="2205.34 1922.72 1100.66 2557.37 1.1 1913.91 6.21 635.8 1110.88 1.16 2210.45 644.62 2205.34 1922.72"/></svg>