<svg id="Layer_1" data-name="Layer 1" xmlns="http://www.w3.org/2000/svg" xmlns:xlink="http://www.w3.org/1999/xlink" viewBox="0 0 800 600"><defs><style>.cls-1,.cls-10{fill:none;}.cls-2{isolation:isolate;}.cls-3{clip-path:url(#clip-path);}.cls-4{fill:#f26baa;}.cls-5{clip-path:url(#clip-path-2);}.cls-6{fill:#a7d5e8;}.cls-7{fill:#fff;}.cls-8{clip-path:url(#clip-path-3);}.cls-9{fill:#ffd748;}.cls-10{stroke:#000;stroke-miterlimit:10;stroke-width:2px;}</style><clipPath id="clip-path"><polygon class="cls-1" points="637.64 177.53 638.38 436.49 413.01 566.61 412.27 307.64 637.64 177.53"/></clipPath><clipPath id="clip-path-2"><polygon class="cls-1" points="413.01 566.61 189.11 436.49 188.38 177.53 412.27 307.64 413.01 566.61"/></clipPath><clipPath id="clip-path-3"><polygon class="cls-1" points="412.27 307.64 188.38 177.53 413.74 47.41 637.64 177.53 412.27 307.64"/></clipPath></defs><g class="cls-2"><g class="cls-3"><path class="cls-4" d="M451.76,481.83l-6.2,3.58,0,12.49,6.15-3.56a18.19,18.19,0,0,0,2.12-1.44,13.32,13.32,0,0,0,2.15-2.16,13.12,13.12,0,0,0,1.7-2.84,8.61,8.61,0,0,0,.69-3.5c0-2.12-.61-3.38-1.81-3.76s-2.81,0-4.84,1.19m.35-15.15-6.59,3.81,0,10.66,5.72-3.3a15.38,15.38,0,0,0,2.22-1.57,10.54,10.54,0,0,0,1.83-2,9.81,9.81,0,0,0,1.24-2.38,8.36,8.36,0,0,0,.45-2.76,3.57,3.57,0,0,0-1.19-3c-.78-.59-2-.4-3.71.57m37-22a19.71,19.71,0,0,0-4.8,3.92,27,27,0,0,0-6,11.09,23.46,23.46,0,0,0-.82,6,13.82,13.82,0,0,0,.86,5.07A6.57,6.57,0,0,0,480.7,474a5.82,5.82,0,0,0,3.67,1,10.6,10.6,0,0,0,4.81-1.63,19.35,19.35,0,0,0,4.79-3.91,26.69,26.69,0,0,0,3.66-5.19,27.08,27.08,0,0,0,2.34-5.9,23.35,23.35,0,0,0,.81-6,14.35,14.35,0,0,0-.84-5.09,6.72,6.72,0,0,0-2.37-3.19,6,6,0,0,0-3.68-1,10.75,10.75,0,0,0-4.79,1.62M452.59,407.4l-.08.05-5.8,19.87,11.69-6.75-5.81-13.17m-11.17,97.19-.1-36,10.73-6.19a14.72,14.72,0,0,1,3.73-1.59,5.61,5.61,0,0,1,3-.06,3.32,3.32,0,0,1,2,1.65,7.38,7.38,0,0,1,.73,3.58,12.32,12.32,0,0,1-1.47,5.9,19.74,19.74,0,0,1-3.83,5.08v.11a5.62,5.62,0,0,1,2.62-.68,3.68,3.68,0,0,1,2.13.71,4.68,4.68,0,0,1,1.42,2,7.85,7.85,0,0,1,.53,3.09A13.79,13.79,0,0,1,462,487a19.07,19.07,0,0,1-2.33,4.47,23.13,23.13,0,0,1-3.43,3.92,25,25,0,0,1-4.24,3.11l-10.6,6.12m99.22-93.3L530.4,434.24l11.38,12.4-5.49,3.18-8.9-10.49-8.85,20.73-5.19,3,11.15-25.35-10.43-11.08,5.37-3.1,8.06,9.18,7.91-18.4,5.23-3m-51.45,66.63a16,16,0,0,1-6.51,2.31,8,8,0,0,1-5.09-1.06,8.73,8.73,0,0,1-3.33-4.07,17,17,0,0,1-1.22-6.77,28.87,28.87,0,0,1,1.18-8.16,36.47,36.47,0,0,1,3.3-7.9,35,35,0,0,1,5.06-6.92,28.2,28.2,0,0,1,6.5-5.21,16.16,16.16,0,0,1,6.5-2.3,8,8,0,0,1,5.09,1.06A8.73,8.73,0,0,1,504,443a17,17,0,0,1,1.21,6.78,29.19,29.19,0,0,1-1.17,8.15,37,37,0,0,1-3.3,7.9,35.37,35.37,0,0,1-5.07,6.92,27.9,27.9,0,0,1-6.49,5.2m-51.87-32,13.51-43.82,3.8-2.19L468,428.24l-4.89,2.82L459.94,424l-14.7,8.48-3,10.65-4.9,2.83m3.76-63.21-.1-36,4.18-2.41.1,35.95-4.18,2.42M481.8,352.8l.08-.05-.08-29.56,4.19-2.41.1,36-5.32,3.07L463.5,340.16l-.08.06.08,29.55-4.19,2.42-.1-35.95,5.5-3.18L481.8,352.8M633.23,185.16l-216.52,125L417.42,559,633.94,434l-.71-248.81"/><path d="M417.42,559l-.71-248.81,216.52-125L633.94,434,417.42,559M637.64,177.52,412.27,307.64l.74,259L638.38,436.49l-.74-259"/><polyline points="445.16 344.35 440.98 346.76 441.08 382.72 445.26 380.3 445.16 344.35"/><polyline points="485.99 320.78 481.8 323.19 481.88 352.75 481.8 352.8 464.71 333.06 459.21 336.24 459.31 372.19 463.5 369.77 463.42 340.22 463.5 340.17 480.77 359.8 486.09 356.73 485.99 320.78"/><path d="M446.71,427.32l5.8-19.87.08-.05,5.81,13.17-11.69,6.75m7.92-27.4-3.8,2.19-13.51,43.82,4.9-2.83,3-10.65,14.7-8.48,3.12,7.09,4.89-2.82-13.32-28.32"/><path d="M445.6,497.9l0-12.49,6.2-3.58c2-1.17,3.65-1.57,4.84-1.19s1.8,1.64,1.81,3.76a8.61,8.61,0,0,1-.69,3.5,13.12,13.12,0,0,1-1.7,2.84,13.32,13.32,0,0,1-2.15,2.16,18.19,18.19,0,0,1-2.12,1.44l-6.15,3.56m-.05-16.75,0-10.66,6.59-3.81c1.68-1,2.93-1.16,3.71-.57a3.57,3.57,0,0,1,1.19,3,8.36,8.36,0,0,1-.45,2.76,9.81,9.81,0,0,1-1.24,2.38,10.54,10.54,0,0,1-1.83,2,15.38,15.38,0,0,1-2.22,1.57l-5.72,3.3m6.5-18.71-10.73,6.19.1,36,10.6-6.12a25,25,0,0,0,4.24-3.11,23.13,23.13,0,0,0,3.43-3.92A19.07,19.07,0,0,0,462,487a13.79,13.79,0,0,0,.83-4.78,7.85,7.85,0,0,0-.53-3.09,4.68,4.68,0,0,0-1.42-2,3.68,3.68,0,0,0-2.13-.71,5.62,5.62,0,0,0-2.62.68V477a19.74,19.74,0,0,0,3.83-5.08,12.32,12.32,0,0,0,1.47-5.9,7.38,7.38,0,0,0-.73-3.58,3.32,3.32,0,0,0-2-1.65,5.61,5.61,0,0,0-3,.06,14.72,14.72,0,0,0-3.73,1.59"/><path d="M489.18,473.35a10.6,10.6,0,0,1-4.81,1.63,5.82,5.82,0,0,1-3.67-1,6.57,6.57,0,0,1-2.36-3.18,13.82,13.82,0,0,1-.86-5.07,23.46,23.46,0,0,1,.82-6,27,27,0,0,1,6-11.09,19.71,19.71,0,0,1,4.8-3.92,10.75,10.75,0,0,1,4.79-1.62,6,6,0,0,1,3.68,1,6.72,6.72,0,0,1,2.37,3.19,14.35,14.35,0,0,1,.84,5.09,23.35,23.35,0,0,1-.81,6,27.08,27.08,0,0,1-2.34,5.9,26.69,26.69,0,0,1-3.66,5.19,19.35,19.35,0,0,1-4.79,3.91m-.1-33.21a28.2,28.2,0,0,0-6.5,5.21,35,35,0,0,0-5.06,6.92,36.47,36.47,0,0,0-3.3,7.9,28.87,28.87,0,0,0-1.18,8.16,17,17,0,0,0,1.22,6.77,8.73,8.73,0,0,0,3.33,4.07,8,8,0,0,0,5.09,1.06,16,16,0,0,0,6.51-2.31,27.9,27.9,0,0,0,6.49-5.2,35.37,35.37,0,0,0,5.07-6.92,37,37,0,0,0,3.3-7.9,29.19,29.19,0,0,0,1.17-8.15A17,17,0,0,0,504,443a8.73,8.73,0,0,0-3.34-4.07,8,8,0,0,0-5.09-1.06,16.16,16.16,0,0,0-6.5,2.3"/><polyline points="540.64 411.29 535.41 414.31 527.5 432.71 519.44 423.53 514.07 426.63 524.5 437.7 513.35 463.06 518.54 460.06 527.39 439.33 536.29 449.82 541.78 446.64 530.4 434.24 540.64 411.29"/></g></g><g class="cls-2"><g class="cls-5"><path class="cls-6" d="M300.38,452.68,193.3,400.56l.1,33.45L408.69,559.13l-.09-33.36-.54-.36L300.38,452.68M193.06,314.94l.18,63.91,40.3,17.88s-.52-26.44-.53-27.87c0-2.07-.55-3.28-2-6.24-1.81-3.56-8-11.22-8-11.22l-29.92-36.46m215.3,124.43-.55,0L377,441s-6.17.5-8,2c-1.48,1.24-2,1.82-2,3.88l.08,27.55L408,503.73l.54.39-.18-64.75M408,310.13,192.69,185l.3,105.77,36.59,45.81a29.87,29.87,0,0,1,3.12,4.26,42.53,42.53,0,0,1,3.4,7.33c1.74,4.88,3.55,12.62,3.55,12.62s2.06-31.71,31-14.89,29.58,51.62,29.58,51.62.45-34.17,29.38-17.36,31.18,51,31.18,51a52.13,52.13,0,0,1,3.49-8.52,9.08,9.08,0,0,1,3.37-3.4,6.87,6.87,0,0,1,3.1-.65l37-3.4.55-.05-.3-105"/><path d="M193,290.78,192.69,185,408,310.13l.3,105,1.58-.13,0,.09.07,24.16-1.6.08.18,64.75,1.61,1.16.06,21.57-1.61-1.08.09,33.36L193.4,434l-.1-33.45-.53-.26-2.15-1.06-.06-21.57h0l2.13.94.53.23-.18-63.91-.53-.65-2.14-2.6-.09-24.18,0-.06,2.14,2.66.53.67m219.29,16.86L188.37,177.53l.74,259L413,566.6l-.73-259"/><path d="M250.93,406.52l-.09-34s0-15.73,20.08-4.07c18.52,10.76,19.41,24.21,19.42,26.63,0,.25,0,.39,0,.39l.12,34-8.39-4.85c-2.54,3.08-6.41,3.73-10.77,1.2s-8.24-7.7-10.81-13.74l-9.55-5.57m59.21.06c0-2.43.81-14.88,19.33-4.12,20.06,11.66,20.17,27.46,20.17,27.46l.1,34-9.55-5.54c-2.54,3.07-6.41,3.73-10.77,1.2s-8.24-7.7-10.81-13.75l-8.59-5,.13-33.9s0-.15,0-.4M409.87,415l-1.58.13-.55.05-37,3.4a6.87,6.87,0,0,0-3.1.65,9.08,9.08,0,0,0-3.37,3.4,52.13,52.13,0,0,0-3.49,8.52s-2.24-34.2-31.18-51-29.38,17.36-29.38,17.36-.65-34.81-29.58-51.62-31,14.89-31,14.89-1.81-7.74-3.55-12.62a42.53,42.53,0,0,0-3.4-7.33,29.87,29.87,0,0,0-3.12-4.26L193,290.78l-.53-.67-2.14-2.66,0,.06.09,24.18,2.14,2.6.53.65L223,351.4s6.18,7.66,8,11.22c1.49,3,2,4.17,2,6.24,0,1.43.53,27.87.53,27.87l-40.3-17.88-.53-.23-2.13-.94h0l.06,21.57,2.15,1.06.53.26,107.08,52.12,107.68,72.73.54.36,1.61,1.08-.06-21.57-1.61-1.16-.54-.39-40.87-29.37-.08-27.55c0-2.06.53-2.64,2-3.88,1.79-1.46,8-2,8-2l30.79-1.57.55,0,1.6-.08-.07-24.16,0-.09"/><path class="cls-7" d="M270.92,368.44c-20.06-11.66-20.08,4.07-20.08,4.07l.09,34,9.55,5.57c-.19-.45-.37-.91-.55-1.36-.29-.73-.55-1.49-.8-2.24a38.32,38.32,0,0,1-1.81-9.44,10.89,10.89,0,0,1,2.89-7.13,10.89,10.89,0,0,0-2.89,7.13c-.05-.63-.08-1.28-.09-1.9,0-11.35,6.21-16.9,13.94-12.41s14,17.33,14.05,28.68c0,.62,0,1.23-.06,1.81a30.67,30.67,0,0,0-2.94-10.52,30.67,30.67,0,0,1,2.94,10.52,19.06,19.06,0,0,1-1.76,7.36,8.82,8.82,0,0,1-.79,1.3,8.35,8.35,0,0,1-.55.74l8.39,4.85-.12-34s0-.14,0-.39c0-2.42-.9-15.87-19.42-26.63"/><path class="cls-7" d="M329.47,402.46c-18.52-10.76-19.34,1.69-19.33,4.12,0,.25,0,.4,0,.4l-.13,33.9,8.59,5c-.2-.45-.38-.91-.56-1.37-.29-.74-.56-1.49-.8-2.23a38.69,38.69,0,0,1-1.8-9.43,10.89,10.89,0,0,1,2.89-7.13,10.89,10.89,0,0,0-2.89,7.13c-.05-.63-.09-1.28-.09-1.89,0-11.36,6.21-16.91,13.94-12.42s14,17.33,14.05,28.68c0,.62,0,1.23-.06,1.81a30.89,30.89,0,0,0-2.94-10.52A30.89,30.89,0,0,1,343.29,449a19,19,0,0,1-1.76,7.37,9.89,9.89,0,0,1-.79,1.31c-.17.25-.36.49-.55.72l9.55,5.54-.1-34s-.11-15.8-20.17-27.46"/><path d="M271.19,391.82c-4.46-2.59-8.43-2.36-11,.1a10.89,10.89,0,0,0-2.89,7.13,38.32,38.32,0,0,0,1.81,9.44c.25.75.51,1.51.8,2.24.18.45.36.91.55,1.36,2.57,6,6.46,11.21,10.81,13.74s8.23,1.88,10.77-1.2a8.35,8.35,0,0,0,.55-.74,8.82,8.82,0,0,0,.79-1.3,19.06,19.06,0,0,0,1.76-7.36,30.67,30.67,0,0,0-2.94-10.52,36.12,36.12,0,0,0-2.19-3.95c1.61,3.47,2,6.48.8,7.17a2,2,0,0,1-1.91-.29,16.77,16.77,0,0,1-5.11-5.9c-2.45-4.25-3.28-8.36-1.84-9.18l.25-.1c-.34-.22-.68-.44-1-.64"/><path d="M329.32,425.6c-4.46-2.59-8.43-2.36-11,.1a10.89,10.89,0,0,0-2.89,7.13,38.69,38.69,0,0,0,1.8,9.43c.24.74.51,1.49.8,2.23.18.46.36.92.56,1.37,2.57,6.05,6.46,11.22,10.81,13.75s8.23,1.87,10.77-1.2c.19-.23.38-.47.55-.72a9.89,9.89,0,0,0,.79-1.31,19,19,0,0,0,1.76-7.37,30.89,30.89,0,0,0-2.94-10.52,36.12,36.12,0,0,0-2.19-3.95c1.61,3.47,2,6.49.79,7.17a2,2,0,0,1-1.91-.29,17,17,0,0,1-5.11-5.9c-2.45-4.25-3.27-8.36-1.83-9.18l.25-.1c-.34-.22-.68-.44-1-.64"/><path d="M271.17,384.74c-7.73-4.49-14,1.06-13.94,12.41,0,.62,0,1.27.09,1.9a10.89,10.89,0,0,1,2.89-7.13c2.55-2.46,6.52-2.69,11-.1.35.2.69.42,1,.64a2.3,2.3,0,0,1,1.66.4,16.77,16.77,0,0,1,5.11,5.9,22.52,22.52,0,0,1,1,2,36.12,36.12,0,0,1,2.19,3.95,30.67,30.67,0,0,1,2.94,10.52c0-.58.06-1.19.06-1.81,0-11.35-6.31-24.19-14.05-28.68"/><path d="M329.3,418.52c-7.73-4.49-14,1.06-13.94,12.42,0,.61,0,1.26.09,1.89a10.89,10.89,0,0,1,2.89-7.13c2.55-2.46,6.52-2.69,11-.1.35.2.69.42,1,.64a2.3,2.3,0,0,1,1.66.4,16.77,16.77,0,0,1,5.11,5.9,22.52,22.52,0,0,1,1,2,36.12,36.12,0,0,1,2.19,3.95A30.89,30.89,0,0,1,343.29,449c0-.58.06-1.19.06-1.81,0-11.35-6.32-24.19-14.05-28.68"/><path class="cls-7" d="M332,426.64a2.3,2.3,0,0,0-1.66-.4l-.25.1c-1.44.82-.62,4.93,1.83,9.18a17,17,0,0,0,5.11,5.9,2,2,0,0,0,1.91.29c1.22-.68.82-3.7-.79-7.17a22.52,22.52,0,0,0-1-2,16.77,16.77,0,0,0-5.11-5.9"/><path class="cls-7" d="M273.88,392.86a2.3,2.3,0,0,0-1.66-.4l-.25.1c-1.44.82-.61,4.93,1.84,9.18a16.77,16.77,0,0,0,5.11,5.9,2,2,0,0,0,1.91.29c1.21-.69.81-3.7-.8-7.17a22.52,22.52,0,0,0-1-2,16.77,16.77,0,0,0-5.11-5.9"/></g></g><g class="cls-2"><g class="cls-8"><path class="cls-9" d="M336.19,181.15l5.47,7.2,7-4-12.45-3.17M384,153.55l5.47,7.2,7-4L384,153.55m-83.85,45.51-3.71,2.14,17.05,9.91,3.27-1.89a20.16,20.16,0,0,0,3.61-2.6,5.64,5.64,0,0,0,1.76-2.74,3.59,3.59,0,0,0-.56-2.82,9.37,9.37,0,0,0-3.34-2.85,14,14,0,0,0-4.46-1.68,17.25,17.25,0,0,0-4.7-.28,19.87,19.87,0,0,0-4.64.92,21.78,21.78,0,0,0-4.28,1.89m109.69,14.06L381.09,196.4l6.29-3.63,28.76,16.71-6.3,3.64m13.36-7.71L394.44,188.7l19.41-11.21,5.85,3.4-13.12,7.57,5.37,3.12,12.39-7.16,5.84,3.4L417.79,195l5.85,3.39,13.84-8,5.85,3.4L423.2,205.41m38.18-32.21.08,0-20-11.61,6.29-3.64,28.76,16.71-8.22,4.75-32.94-4.69-.08,0,20.47,11.9-6.3,3.63-28.75-16.71,8.55-4.94,32.12,4.61m51-19.3-28.75-16.71L503.06,126l5.84,3.4L495.79,137l5.36,3.11,12.39-7.15,5.85,3.4L507,143.47l5.85,3.4,13.84-8,5.85,3.4L512.4,153.9M359.66,236.16a7.47,7.47,0,0,0,1.37-1,3.66,3.66,0,0,0,.87-1.13,1.5,1.5,0,0,0,.06-1.12,1.92,1.92,0,0,0-.95-1,5.14,5.14,0,0,0-3-.61,19.35,19.35,0,0,0-3.76.68c-1.34.37-2.78.79-4.29,1.25a30,30,0,0,1-4.64,1,19.11,19.11,0,0,1-4.84.05,12.3,12.3,0,0,1-4.85-1.66,8,8,0,0,1-3.14-2.89,4.38,4.38,0,0,1-.51-3.09,6.5,6.5,0,0,1,1.72-3,14.67,14.67,0,0,1,3.49-2.7,25.62,25.62,0,0,1,5.37-2.3,24.42,24.42,0,0,1,6.39-1l.43,5.25a10.42,10.42,0,0,0-3.52.37,12.08,12.08,0,0,0-2.94,1.16,6.79,6.79,0,0,0-1.25.91,3.73,3.73,0,0,0-.87,1.08,1.49,1.49,0,0,0-.14,1.14,2,2,0,0,0,1,1,4.83,4.83,0,0,0,3,.61,20.36,20.36,0,0,0,3.62-.73q2-.57,4.14-1.26a26.67,26.67,0,0,1,4.55-1,18.15,18.15,0,0,1,4.83,0,13.24,13.24,0,0,1,5,1.78,8.67,8.67,0,0,1,3.28,2.94,4.24,4.24,0,0,1,.57,3.11,6.28,6.28,0,0,1-1.76,3,16.46,16.46,0,0,1-3.64,2.77,25.08,25.08,0,0,1-6,2.48,29.29,29.29,0,0,1-7.19,1l-.49-5.46a15.81,15.81,0,0,0,4.46-.24,12.41,12.41,0,0,0,3.76-1.35m36.15-14.1a29.09,29.09,0,0,1-7.23,3,32.41,32.41,0,0,1-7.91,1.06,31.84,31.84,0,0,1-8-.93,27.51,27.51,0,0,1-7.39-3,16.24,16.24,0,0,1-5.11-4.29,7.32,7.32,0,0,1-1.56-4.63,7.73,7.73,0,0,1,1.86-4.58,17.8,17.8,0,0,1,5.11-4.18,23.61,23.61,0,0,1,2.75-1.32,26,26,0,0,1,7-1.73,24.15,24.15,0,0,1,4.09-.06l-.86,5.11a14.62,14.62,0,0,0-4,.31,13,13,0,0,0-3.74,1.44,7.53,7.53,0,0,0-2.6,2.3,4.15,4.15,0,0,0-.69,2.64,5.16,5.16,0,0,0,1.21,2.71,10.8,10.8,0,0,0,3.07,2.51,17.74,17.74,0,0,0,4.35,1.8,21,21,0,0,0,4.63.71,18.46,18.46,0,0,0,4.49-.36,12.92,12.92,0,0,0,3.87-1.43,6.38,6.38,0,0,0,2.61-2.46,3.3,3.3,0,0,0,.18-2.73l9.19-.74a5.49,5.49,0,0,1-.83,4.85,13.22,13.22,0,0,1-4.5,4M498,163a29.13,29.13,0,0,1-7.23,3,32.21,32.21,0,0,1-15.89.13,27.89,27.89,0,0,1-7.4-3,16.21,16.21,0,0,1-5.1-4.3,7.37,7.37,0,0,1-1.57-4.62,7.77,7.77,0,0,1,1.86-4.58,17.75,17.75,0,0,1,5.11-4.18,22.27,22.27,0,0,1,2.76-1.32,24.4,24.4,0,0,1,3.29-1.08,24.74,24.74,0,0,1,3.73-.66,24.29,24.29,0,0,1,4.1,0l-.87,5.11a14.2,14.2,0,0,0-4,.3,13.31,13.31,0,0,0-3.75,1.45,7.39,7.39,0,0,0-2.59,2.3,4.07,4.07,0,0,0-.69,2.63,5.17,5.17,0,0,0,1.2,2.72,10.84,10.84,0,0,0,3.08,2.5,17.69,17.69,0,0,0,4.34,1.81,21.09,21.09,0,0,0,4.64.7,18.46,18.46,0,0,0,4.49-.36,13.23,13.23,0,0,0,3.86-1.42,6.38,6.38,0,0,0,2.61-2.46,3.32,3.32,0,0,0,.19-2.74l9.18-.74a5.48,5.48,0,0,1-.83,4.85,13.06,13.06,0,0,1-4.5,4m-185,55.1L284.3,201.43l9.44-5.45a42.11,42.11,0,0,1,7.28-3.31,32.07,32.07,0,0,1,7.89-1.66,29.15,29.15,0,0,1,8.14.5,25.94,25.94,0,0,1,8.05,3.11,13.06,13.06,0,0,1,4.84,4.33,6.64,6.64,0,0,1,.93,4.64,9.42,9.42,0,0,1-2.37,4.55,20.74,20.74,0,0,1-5.17,4.06L313,218.14m28.77-16.61-16.4-23.83,5.21-3,41.16,9.53-7.1,4.1-8.54-2.12-11.09,6.41,3.7,4.91-6.94,4m4.45-29.38-5.6-3.26,22.59-13,5.6,3.25-8.14,4.71,23.14,13.45-6.29,3.63-23.14-13.45-8.16,4.71m43.36,1.78-16.4-23.84,5.2-3,41.18,9.53-7.1,4.1L404,158.6,392.85,165l3.71,4.91-6.94,4M413.71,52.52l-216.52,125,215.12,125,216.52-125-215.12-125"/><path d="M412.31,302.54l-215.12-125,216.52-125,215.12,125-216.52,125m1.43-255.13L188.37,177.52l223.9,130.12L637.64,177.52,413.74,47.41"/><path d="M313.49,211.11l-17.05-9.91,3.71-2.14a21.78,21.78,0,0,1,4.28-1.89,19.87,19.87,0,0,1,4.64-.92,17.25,17.25,0,0,1,4.7.28,14,14,0,0,1,4.46,1.68,9.37,9.37,0,0,1,3.34,2.85,3.59,3.59,0,0,1,.56,2.82,5.64,5.64,0,0,1-1.76,2.74,20.16,20.16,0,0,1-3.61,2.6l-3.27,1.89M293.74,196l-9.44,5.45L313,218.14l10.29-5.94a20.74,20.74,0,0,0,5.17-4.06,9.42,9.42,0,0,0,2.37-4.55,6.64,6.64,0,0,0-.93-4.64,13.06,13.06,0,0,0-4.84-4.33,25.94,25.94,0,0,0-8.05-3.11,29.15,29.15,0,0,0-8.14-.5,32.07,32.07,0,0,0-7.89,1.66,42.11,42.11,0,0,0-7.28,3.31"/><path d="M341.66,188.35l-5.47-7.2,12.45,3.17-7,4m-11-13.66-5.21,3,16.4,23.83,6.94-4-3.7-4.91,11.09-6.41,8.54,2.12,7.1-4.1-41.16-9.53"/><polyline points="363.25 155.85 340.66 168.89 346.26 172.15 354.42 167.44 377.56 180.89 383.85 177.25 360.71 163.81 368.85 159.1 363.25 155.85"/><path d="M389.47,160.75l-5.47-7.2,12.45,3.17-7,4m-11.05-13.66-5.2,3,16.4,23.84,6.94-4L392.85,165,404,158.6l8.55,2.12,7.1-4.1-41.18-9.53"/><path d="M337.15,220.93a14.67,14.67,0,0,0-3.49,2.7,6.5,6.5,0,0,0-1.72,3,4.38,4.38,0,0,0,.51,3.09,8,8,0,0,0,3.14,2.89,12.3,12.3,0,0,0,4.85,1.66,19.11,19.11,0,0,0,4.84-.05,30,30,0,0,0,4.64-1c1.51-.46,2.95-.88,4.29-1.25a19.35,19.35,0,0,1,3.76-.68,5.14,5.14,0,0,1,3,.61,1.92,1.92,0,0,1,.95,1,1.5,1.5,0,0,1-.06,1.12,3.66,3.66,0,0,1-.87,1.13,7.47,7.47,0,0,1-1.37,1,12.41,12.41,0,0,1-3.76,1.35,15.81,15.81,0,0,1-4.46.24l.49,5.46a29.29,29.29,0,0,0,7.19-1,25.08,25.08,0,0,0,6-2.48,16.46,16.46,0,0,0,3.64-2.77,6.28,6.28,0,0,0,1.76-3,4.24,4.24,0,0,0-.57-3.11,8.67,8.67,0,0,0-3.28-2.94,13.24,13.24,0,0,0-5-1.78,18.15,18.15,0,0,0-4.83,0,26.67,26.67,0,0,0-4.55,1q-2.18.69-4.14,1.26a20.36,20.36,0,0,1-3.62.73,4.83,4.83,0,0,1-3-.61,2,2,0,0,1-1-1,1.49,1.49,0,0,1,.14-1.14,3.73,3.73,0,0,1,.87-1.08,6.79,6.79,0,0,1,1.25-.91,12.08,12.08,0,0,1,2.94-1.16,10.42,10.42,0,0,1,3.52-.37l-.43-5.25a24.42,24.42,0,0,0-6.39,1,25.62,25.62,0,0,0-5.37,2.3"/><path d="M365.59,204.5a17.8,17.8,0,0,0-5.11,4.18,7.73,7.73,0,0,0-1.86,4.58,7.32,7.32,0,0,0,1.56,4.63,16.24,16.24,0,0,0,5.11,4.29,27.51,27.51,0,0,0,7.39,3,31.84,31.84,0,0,0,8,.93,32.41,32.41,0,0,0,7.91-1.06,29.09,29.09,0,0,0,7.23-3,13.22,13.22,0,0,0,4.5-4,5.49,5.49,0,0,0,.83-4.85l-9.19.74a3.3,3.3,0,0,1-.18,2.73,6.38,6.38,0,0,1-2.61,2.46,12.92,12.92,0,0,1-3.87,1.43,18.46,18.46,0,0,1-4.49.36,21,21,0,0,1-4.63-.71,17.74,17.74,0,0,1-4.35-1.8,10.8,10.8,0,0,1-3.07-2.51,5.16,5.16,0,0,1-1.21-2.71,4.15,4.15,0,0,1,.69-2.64,7.53,7.53,0,0,1,2.6-2.3,13,13,0,0,1,3.74-1.44,14.62,14.62,0,0,1,4-.31l.86-5.11a24.15,24.15,0,0,0-4.09.06,26,26,0,0,0-7,1.73,23.61,23.61,0,0,0-2.75,1.32"/><polyline points="387.38 192.77 381.09 196.41 409.84 213.12 416.14 209.48 387.38 192.77"/><polyline points="413.85 177.49 394.44 188.7 423.2 205.41 443.33 193.78 437.48 190.38 423.64 198.37 417.8 194.98 430.18 187.82 424.34 184.43 411.95 191.58 406.58 188.46 419.7 180.89 413.85 177.49"/><polyline points="447.77 157.9 441.48 161.54 461.46 173.15 461.38 173.2 429.26 168.59 420.71 173.53 449.46 190.24 455.76 186.61 435.29 174.71 435.37 174.67 468.31 179.36 476.53 174.62 447.77 157.9"/><path d="M467.82,145.48a17.75,17.75,0,0,0-5.11,4.18,7.77,7.77,0,0,0-1.86,4.58,7.37,7.37,0,0,0,1.57,4.62,16.21,16.21,0,0,0,5.1,4.3,27.89,27.89,0,0,0,7.4,3,32.21,32.21,0,0,0,15.89-.13,29.13,29.13,0,0,0,7.23-3,13.06,13.06,0,0,0,4.5-4,5.48,5.48,0,0,0,.83-4.85l-9.18.74a3.32,3.32,0,0,1-.19,2.74,6.38,6.38,0,0,1-2.61,2.46,13.23,13.23,0,0,1-3.86,1.42,18.46,18.46,0,0,1-4.49.36,21.09,21.09,0,0,1-4.64-.7,17.69,17.69,0,0,1-4.34-1.81,10.84,10.84,0,0,1-3.08-2.5,5.17,5.17,0,0,1-1.2-2.72,4.07,4.07,0,0,1,.69-2.63,7.39,7.39,0,0,1,2.59-2.3,13.31,13.31,0,0,1,3.75-1.45,14.2,14.2,0,0,1,4-.3l.87-5.11a24.29,24.29,0,0,0-4.1,0,24.74,24.74,0,0,0-3.73.66,24.4,24.4,0,0,0-3.29,1.08,22.27,22.27,0,0,0-2.76,1.32"/><polyline points="503.06 125.99 483.65 137.19 512.4 153.9 532.54 142.28 526.69 138.88 512.85 146.87 507 143.47 519.39 136.32 513.54 132.92 501.15 140.07 495.79 136.96 508.9 129.39 503.06 125.99"/></g></g><polygon class="cls-10" points="637.1 437.95 412.33 567.08 188.59 436.15 189.63 176.09 414.41 46.95 638.14 177.88 637.1 437.95"/></svg>