<?xml version="1.0" encoding="utf-8"?>
<!-- Generator: Adobe Illustrator 26.4.1, SVG Export Plug-In . SVG Version: 6.00 Build 0)  -->
<svg version="1.1" id="Layer_15" xmlns="http://www.w3.org/2000/svg" xmlns:xlink="http://www.w3.org/1999/xlink" x="0px" y="0px"
	 viewBox="0 0 2521 2911" style="enable-background:new 0 0 2521 2911;" xml:space="preserve">
<style type="text/css">
	.st0{fill:none;}
	.st1{fill:#3E3E3E;}
	.st2{fill:#454545;}
	.st3{fill:#3F3F3F;}
	.st4{opacity:0.7;fill:#6EB204;enable-background:new    ;}
	.st5{fill:#007F7C;}
	.st6{fill:#FBB03B;}
	.st7{opacity:0.8;fill:#93278F;enable-background:new    ;}
	.st8{fill:#A5005E;}
	.st9{opacity:0.9;fill:#003AA0;enable-background:new    ;}
	.st10{opacity:0.8;fill:#7632F9;enable-background:new    ;}
	.st11{fill:#AF0287;}
	.st12{fill:#FF7300;}
	.st13{fill:#0092FF;}
	.st14{opacity:0.7;fill:#9C34F7;enable-background:new    ;}
	.st15{opacity:0.9;fill:#E26100;enable-background:new    ;}
	.st16{fill:#01FFA7;}
	.st17{fill:#17FC9E;}
	.st18{opacity:0.8;fill:#6E9B00;enable-background:new    ;}
	.st19{opacity:0.6;fill:#AFC100;enable-background:new    ;}
	.st20{opacity:0.7;fill:#00896F;enable-background:new    ;}
	.st21{opacity:0.6;fill:#D3B400;enable-background:new    ;}
	.st22{opacity:0.6;fill:#EF266F;enable-background:new    ;}
	.st23{opacity:0.7;fill:#2974ED;enable-background:new    ;}
	.st24{opacity:0.8;fill:#EDC729;enable-background:new    ;}
	.st25{fill:#FFC00C;}
	.st26{fill:#4D4D4D;}
	.st27{fill:#FE33FE;}
	.st28{fill:#999999;}
	.st29{opacity:0.6;fill:#F15A24;enable-background:new    ;}
</style>
<g>
	<g>
		<polygon class="st0" points="2486.6,2163.4 2486.6,2163.4 1624.8,2660.9 		"/>
		<polygon class="st0" points="1625.8,250.6 1636.5,256.8 1656.9,268.6 1727.9,309.6 1763.8,330.3 1804.6,353.9 1829.9,368.5 
			2187.4,574.9 2216.8,591.8 2284.4,630.9 2298.8,639.2 2312.5,647.1 2317,649.7 2361.9,675.6 2486.6,747.6 1260.5,39.7 
			1260.5,39.7 1400.3,120.5 		"/>
		<path d="M1688.8,1296c0.6,1.1,1.3,2.1,1.9,3.3c2.8,5,5.5,10.1,7.9,15.3c1.4,3.1,2.8,6.3,4.3,9.4l407.5-235.3v131.2l-377.7,218.1
			c3.3,20.5,6.6,41.1,9.6,61.6c2,13.5,4.1,27,5.6,40.6l738.8-427.4V835.4c-132.3,76.4-264.7,152.8-396.9,229.2
			C1956,1141.7,1822.4,1218.9,1688.8,1296z M2167.2,1053.9l22.4-12.8v131.3l-22.4,12.8v-9.1l14.1-8V1055l-14.1,8V1053.9z
			 M2110.5,1088.5l22.5-12.7v9.1l-14.1,8l-0.1,113.1l14.1-8v9.1l-22.5,12.7L2110.5,1088.5z"/>
		<path d="M1729.3,927.7c-25.9-1.1-51.3-5.3-76.7-10.1c-21.5,12.5-43.1,24.8-64.6,37.3c9.4,4.1,18.4,9.4,27.1,15.1
			c12.5,8.3,23.7,17.8,33.8,28.5l123-71.2C1757.7,928.1,1743.6,928.3,1729.3,927.7z"/>
		<path d="M1296.1,2283.8c-3.4-1.1-6.6-2.3-9.4-4.7c-2.8-2.4-4-6.3-2.6-9.6c0.8-2,2-3.9,3-5.9c0.3-0.6,0.6-1.2,0.8-1.8
			c-72.2,41.6-144.2,83.3-216.4,124.9c-108.3,62.5-216.7,125.1-325,187.6l31.1,18l528.7-305.9
			C1302.9,2285.8,1299.5,2284.9,1296.1,2283.8z"/>
		<path d="M1937.2,1112.4c-7.4,11-16.1,21.2-27.3,28.7c-19.6,13.1-41,20.8-64.8,20.1c-10.6-0.3-21.1-2-31.1-5.2
			c-50.9,29.4-101.9,58.8-152.8,88.2c2.3,5.8,4.9,11.5,7.9,17c4.4,8.1,9.1,16,13.6,23.9c19.2-11.1,38.4-22.2,57.6-33.3
			c4.9-2.8,9.6-6,14.3-9.1c5.8-3.1,11.8-6,17.5-9.3c238.2-137.5,476.4-275,714.6-412.5v-53.6c-178.2,103-356.5,206-534.8,309
			C1949.4,1089.1,1944.6,1101.3,1937.2,1112.4z"/>
		<path d="M2272.6,1693.4c-118.2,68.2-236.4,136.4-354.5,204.6c-45.7,26.4-91.5,52.8-137.2,79.2c4.3,3.7,9.4,6.4,15,7.9
			c6.4,1.8,12.8,3.8,19.2,5.1c0.8,0.2,1.6,0.3,2.4,0.5l490.6-283.9h-27.7L2272.6,1693.4z"/>
		<path d="M1643.2,1038.7l-8.8,5.1c5.6,11.5,10.3,23.3,13.8,35.7c0.3,1.1,0.6,2.2,0.8,3.3c5.8-3.3,11.6-6.7,17.4-10
			C1659.5,1060.8,1651.8,1049.4,1643.2,1038.7z"/>
		<path d="M1625.1,1049.1l-19.7,11.4c0.1,2.3,0.1,4.6,0.2,7c0.4,13.2,0.9,26.3,1.3,39.6c12.3-7.1,24.6-14.1,36.9-21.2
			C1639,1072.9,1632.7,1060.7,1625.1,1049.1z"/>
		<path d="M1621.6,2069.2c-10.9,6.3-21.8,12.6-32.7,18.9c1.6,7.3,2.9,14.6,4,22c0.5,3.5,0.8,6.9,0.8,10.2l58.3-33.7
			c-1.6-0.4-3.3-0.8-4.8-1.2C1636.8,2082.4,1628.2,2077.1,1621.6,2069.2z"/>
		<path d="M1602.6,1022.8c0,0.8-0.1,1.7-0.1,2.4l2.9-1.7C1604.9,1023.2,1603.9,1023.2,1602.6,1022.8z"/>
		<polygon points="1625.8,250.6 1631.2,259.9 1636.5,256.8 		"/>
		<path d="M164.1,1834.3H204l1069.8-618.8c-0.1-14.7-0.3-29.3-0.3-44.1c0-12.7,1.6-25.3,4.6-37.7
			c-114.1,65.8-228.2,131.7-342.2,197.6l3.3,5.6l-31.7,54.9h-63.4l-3.3-5.6C572,1541.4,303.3,1696.5,34.5,1851.7v80.7l109.7-63.5
			L164.1,1834.3z"/>
		<path d="M211,1917.4h-46.8l-10.7-18.6c-39.7,22.9-79.3,45.8-119,68.6v52c53-30.6,105.9-61.3,159-91.9
			C199.3,1924.2,205.1,1920.9,211,1917.4z"/>
		<path d="M456,1963.5c-1.5-7.3-2.4-14.7-2.6-22.2c-133.9,77.3-267.8,154.6-401.8,231.9L98,2200l365-210.8
			C460.2,1980.9,457.8,1972.4,456,1963.5z"/>
		<path d="M650,2171.3c-21.8-11.9-44.7-21.4-67.2-31.6c-8.4-3.8-16.5-8.6-23.8-14.3c-2.4-1.9-4.9-3.8-7.2-5.8l-296.5,171.2
			l97.4,56.3l300.7-174C652.3,2172.5,651.1,2171.9,650,2171.3z"/>
		<path d="M467.4,2001.2c-119,68.7-238,137.4-357,206.1l31.2,18l339.8-196.1C475.9,2020.1,471.3,2010.8,467.4,2001.2z"/>
		<path d="M1952.3,2025.3c5.8,2.1,11.5,4.4,17.2,6.7c26.9,10.8,51,26.4,73.8,44.1c4.5,3.5,8.4,7.8,12.4,12c3.1,3.2,5.1,7.1,6.9,11.2
			c2.3,5.2,0,13.5-7.9,15.7c-2.1,0.6-4.3,0.9-6.6,0.8c-7.1-0.3-14.1-0.8-21.2-1.3c-5.3-0.4-10.6-1-15.8-1.4
			c-4.9-0.4-9.7-0.1-14.1,2.5c-4.4,2.6-9.3,2.5-14.1,1.6c-13.5-2.6-26.9-5-40.4-7.8c-16.5-3.3-33.1-5.6-49.8-7.4
			c-21.7-2.4-43.5-3.7-65.3-4.5c-114.3,66-228.5,131.9-342.8,197.9c-203.6,117.6-407.3,235.2-610.9,352.8l25.8,15l827-477.5v0.6
			l31.6-18v13.4l-20.8,11.8l-0.2,167l20.8-11.8v13.4l-33.1,18.8v-0.3l-224.7,129.8l8.1,14.1l-43.2,74.8h-86.4l-8.1-14.1
			l-302.8,174.8l192.9,111.4l364.3-210.3l861.7-497.6v-446.6c-8.8,5.1-17.6,10.1-26.3,15.2C2291,1829.8,2121.6,1927.5,1952.3,2025.3
			z M1824,2323.5l-33.2,18.7l0.1-13.4l20.8-11.8l0.6-166.9l-20.8,11.8l0.1-13.4l33.2-18.7L1824,2323.5z"/>
		<path d="M642.6,1659.9c21-14,43.1-26.2,66.1-36.5c9.3-4.2,18.5-8.6,27.8-12.5c0.9-0.4,1.8-0.8,2.7-1.1
			c69-40.3,138.1-80.5,207-120.9c108.5-63.1,217.2-126.1,325.8-188.9c1.6-5.5,2.2-11.2,2.1-17.1c-0.2-10.3-0.3-20.7-0.3-31
			L225.4,1857.3l10.7,18.6l-23.4,40.6c127.2-74,254.4-147.9,381.5-222.1c7.9-6.2,16.1-12.1,24.3-17.9
			C626.6,1670.9,634.5,1665.3,642.6,1659.9z"/>
		<path d="M586.4,527.9l35.5-19.5l10.3,55.6l316.2-182.5l-8.7-47.1l35.9-19.7c3,16.1,5.8,31.5,8.6,46.2l416.3-240.4l-139.8-80.7
			L34.4,747.6v161.5l562.4-324.7L586.4,527.9z"/>
		<polygon points="219.5,1240.5 252.8,1221.6 252.8,1235.1 231.9,1247 231.9,1263.7 307.8,1219.7 307.9,1206.2 286.9,1218 
			287,1204.5 320.4,1185.8 320.3,1212.5 1804.6,353.9 1763.8,330.3 34.4,1328.7 34.4,1349.5 219.5,1242.7 		"/>
		<path d="M285,1662.4l-35.4-61.4l35.4-61.4h70.9l35.4,61.4l-9.4,16.3c145.2-83.9,290.4-167.7,435.7-251.6l8.6-4.9l-13.8-23.8
			l31.7-54.9h63.4l13.8,23.8l370.4-213.8c4.4-11.6,9.5-23,15.6-34c6.9-12.5,15.5-23.6,26.5-32.9c3.1-2.6,6.1-5.1,9.3-7.5
			c11.5-8.9,22.8-18,33.5-28c22-20.6,47.1-37.6,74.3-50.5c7.2-3.4,14.3-7.3,21.7-9.8c7.4-2.6,13-7.3,17.7-13.2
			c5.6-6.9,11.2-13.6,17-20.3c3.6-3.9,7.8-7.3,12.4-9.8c5.6-3.2,11-3.1,16.3,0.4c11.1,7.4,21.3,15.8,29.6,26.3
			c3.8,4.8,7,10,9.5,15.6l36.1-20.8c-11-3.4-21.8-7.2-32.5-11.2c-7.9-2.9-16-5.6-24.2-8.1c-15.2-4.5-30.6-6.4-46.4-3
			c-3.5,0.8-7.1,1.1-10.6,1c-9.4-0.1-13.7-3.6-16.2-12.8c-0.6-2.2-1-4.4-1.4-6.6c-8.3-3.2-19,2.8-24.1-7.9l-16.1,1.9
			c-1,3.8-2,7.5-3,11.5c-1.2,0.4-2.4,1.1-3.6,1c-12.5-1-25-2.1-37.5-3.3c-45-4.3-90.1-8.6-135-12.9c-2.2-0.2-4.4-0.6-6.3-0.9
			c-0.8-1-1.8-1.6-1.8-2.4c-0.5-14.3,2-28.4,2.9-43.4c11.1-1.1,21,0.4,31.2,2.1v13.6c3.1,4.1,7.4,3.4,11.2,3.7c25,2.2,50,4.2,75,6.3
			c8,0.7,16.1,1.4,24.1,2c3.5,0.3,7.1,0.1,11.3,0.1c0.9-4.9,1.8-9.6,2.8-14.8h24.8c3.4-9.3,4.6-20.4,4.2-38.1
			c-2.1-0.8-4.4-1.9-6.9-2.3c-6.1-0.9-12.3-0.6-19.1-2.2v-16c-13.8-3.3-108.5-12.4-120.3-11.6c-1,4.4-2.1,9.1-3.1,13.6
			c-9.4,1.8-17,1.3-30.8-2c0.2-15.1,2.3-30.1,3.4-45.9c2.9-0.4,5.5-1.3,7.9-1.1c12,0.9,24.1,2.1,36.1,3.3
			c43.7,4.3,87.4,8.6,131,12.9c2.6,0.3,5.2,0.8,8.2,1.2c0.8,3.8,1.4,7.2,2.1,11l14.5,1.7c4.3-2,5-8.3,10.6-7.6
			c4.4,0.5,8.9,0.9,14.2,1.5c0.9-2.2,1.9-4.5,2.9-6.8c3.8-8.3,8.1-10.5,17.1-8.6c1.3,0.3,2.6,0.8,3.8,1.2
			c17.1,5.3,34.4,5.4,51.8,2.1c23.3-4.5,46.4-9.8,69.9-13.1c32.4-4.7,65-6.4,97.8-4.2c20.2,1.4,39.9,5,59.6,9.6
			c33.6,7.9,67.3,15.8,100.9,23.6l296-170.9L1830,368.3l-131,75.8h4.4l20.1,34.8l-20.1,34.8h-40.1l-20.1-34.8l2.2-3.8L320.1,1241.9
			l-0.8,139.1l-33.5,18.8l0.1-13.5l21-11.8l0.8-125.4l-75.8,43.9l-0.1,122.3l21-11.9v13.5l-33,18.7v0.9l-185.2,107v274.5
			c89.8-51.9,179.6-103.7,269.5-155.6H285z M928.5,1018.4h96.1l48,83.2l-48,83.2h-96.1l-48.1-83.2L928.5,1018.4z"/>
		<path d="M1656.9,268.6L1221.4,520l1.3,6.6c2.4,13.3,2.1,24.4-1.2,33.2c-3.8,11.1-12.6,20.5-26.5,28.1l-74.2,40.8l-6.5-42.6
			l73-40.1l-1.1-5.8L853.4,732.5l7.3,39.3l-35.5,19.5l-7.1-38.4L34.4,1205.3v81.9l1693.4-977.7L1656.9,268.6z"/>
		<path d="M2406.5,1634.2l-13.8,23.8l93.9-54.3v-33.9c-29.4,17-58.6,33.9-88,50.8L2406.5,1634.2z"/>
		<path d="M1928.1,902.6c-0.3,8-3.4,11.1-11.4,12.2c-2.6,0.4-5.4,0.4-8.1,0.5c-20.1,0.8-40.1,2.6-60.1,4.8l-136.2,78.7
			c15.3,5.3,30.7,3.8,46.2-3.1c3-1.3,5.1-4.8,7.4-7.5c16.1-19.2,36.9-30.6,61.3-35.2c16-3.1,31.2-2.6,45.9,1.3
			c8.9-5.1,17.9-10.3,26.8-15.3c153.9-88,308.1-175.3,462-263.3l-44.9-25.9l-393,226.9C1927.1,884.8,1928.4,893.5,1928.1,902.6z"/>
		<path d="M1818.5,783.9c-37-9-74.7-14.5-113-14c-43.3,0.6-85.7,6.6-126.5,21.6c-5.9,2.2-11.9,4.1-17.8,6c-9.5,3.1-19,5.7-28.5-0.4
			c-8.8,5.5-18.5,6.6-31.2,7.3c4.1,2.3,5.6,3.4,7.3,3.9c4.3,1.2,8.9,1.4,12.8,3.3c6.1,3,11.6,6.1,18.9,5.1c3.2-0.4,6.9,1.5,10.1,2.9
			c11.4,5.2,22.7,10.6,34,16c19.4,9.3,39.2,17.6,59.8,24c11.6,3.6,23.4,6.4,35.3,8.4l143.7-83
			C1821.7,784.7,1820.1,784.3,1818.5,783.9z"/>
		<path d="M1936.9,764.8c0.1,3.1-0.2,6.3-0.9,9.3c-3.1,13.3-8.8,25.2-18.2,34.9c-8.5,0.4-15.6-2.3-23-4.3c-10.5-2.9-21-5.8-31.5-8.8
			c-28.9,16.7-57.9,33.4-86.8,50.1c-3.7,2.1-7.1,4.6-10.6,6.9c-4.6,2.4-9.3,4.6-13.8,7.2c-6.9,4-13.8,7.9-20.7,12
			c40.9-0.1,81.4-4.8,121.6-12.6c14.4-2.8,29-4.3,43.7-4.3l387.6-224.2l-67.6-39c-94.6,54.6-189.1,109.1-283.6,163.8
			C1935.6,757.6,1936.7,760.6,1936.9,764.8z"/>
		<path d="M1708.4,1018.9c-3.4-4.1-6.3-8.4-8.1-13.1l-30.9,17.8c3.9,5.4,7.4,11.1,9.4,17.6c0.1,0.9-0.1,1.8-0.7,2.4
			c-0.4,0.3-1.8,0-2.3-0.5c-4.6-5.1-9.1-10.3-13.8-15.3l-8.9,5.1c2.4,3.4,4.8,6.9,7.1,10.5c5.3,7.9,9.9,16.3,13.8,25
			c17.9-10.3,35.7-20.5,53.6-30.8C1720.3,1032.4,1714.2,1025.9,1708.4,1018.9z"/>
		<path class="st1" d="M1287.8,2261.9c0.4-1,0.8-1.9,1.3-2.9c-1.2-0.6-2-1.4-2.6-1.3c-6,1.4-12,3-18,4.6c-2.1,0.6-4.2,1.3-6.4,1.8
			c-3.6,0.7-7.1-2.4-7.3-5.9c-0.4-5.1,1.4-9.6,3.3-14.1c1.4-3.7,3.3-7.1,4.9-10.3c-0.7-1.3-0.9-2.3-1.6-2.8c-1.4-1-2.4-2-3.1-3.1
			l-555.6,321.4l43.7,25.2c108.3-62.5,216.7-125.1,325-187.6C1143.6,2345.2,1215.7,2303.5,1287.8,2261.9z"/>
		<path class="st1" d="M1281,2165.9c5.8-9.9,12.1-19.6,19.6-28.3c6.1-7.1,12.1-14.1,18.1-21.2c1.2-1.3,2.1-2.7,1.3-4.6
			c-0.4-0.2-0.8-0.5-1.3-0.4c-11.5,0.9-22.9,1.8-34.3,2.7c-2.2,0.2-4.4,0.7-6.6,0.9c-16.8,1.3-33.5,2-50.3,3.7
			c-26.5,2.7-53,2.1-79.5,3.1c-39.8,1.5-79.6,1.6-119.5,1.6c-8.9,0-17.8,0-26.7,0l-86.6,50.1c3.4,1.7,6.8,3.4,10.1,5.1
			c26.5,13.3,53.4,25.7,79.9,39c15,7.5,29.6,16,44.3,24c7.1,3.9,12.7,9.5,17.5,16c3,4.1,1.3,8.9-3.6,10.6c-2.9,1.1-6.1,1.2-9.1,0.3
			c-6.3-1.9-12.1-0.9-18,1.9c-6.9,3.3-14.3,4.5-21.9,4.6c-14.1,0.2-28.3,0.4-42.4-2.1c-7.4-1.3-14.9-1.8-22.4-2.4
			c-2.2-0.2-4.4,0-6.5,0.6c-7,2.2-14.1,1.8-21.1,0.7c-40.3-6-79.9-14.9-118-29.8c-1.4-0.6-2.9-1.1-4.4-1.7l-315.9,182.7l179.8,103.8
			l614.2-355.3C1278.9,2169.5,1279.9,2167.7,1281,2165.9z"/>
		<path class="st1" d="M888.1,2118.9c-3.9-0.3-7.9-0.4-12-0.7c-9.3-0.6-18.5-1.7-27.8-1.9c-14.1-0.3-28.3-0.2-42.4-0.1
			c-2.1,0-4.3,0.8-6.4,1.4c-0.6,0.2-0.9,1.3-1.1,1.9c-0.1,0.4,0.1,0.9,0.5,1.2c1.4,0.9,3,1.8,4.6,2.5c15.1,5.8,30.2,12,45,18.5
			L888.1,2118.9C888.1,2118.9,888.1,2118.9,888.1,2118.9z"/>
		<path class="st1" d="M2272.6,1693.4l-22.7-39.2l-492,284.5c2.7,5.6,5.4,11.1,8.1,16.6c1.8,3.6,3.8,7,5.7,10.5
			c2.3,4.4,5.4,8.3,9.1,11.5c45.7-26.4,91.5-52.8,137.2-79.2C2036.3,1829.8,2154.5,1761.6,2272.6,1693.4z"/>
		<path class="st1" d="M1755.6,1606c0.4,3.4,0.8,6.9,1.3,10.4l729.8-422.2v-59.1l-736.6,426.2
			C1751.6,1576.2,1753.8,1591.1,1755.6,1606z"/>
		<path class="st1" d="M2398.6,1620.6c29.4-17,58.6-33.9,88-50.8v-52.6l-110.7,64.1L2398.6,1620.6z"/>
		<path class="st1" d="M673.9,2183.8l-301.6,174.5l51.1,29.5l306-177C710.8,2201.9,692.2,2193.2,673.9,2183.8z"/>
		<path class="st1" d="M1617,2062.8c-3.4-5.6-6.6-11.5-9.8-17.3c-1.3-2.3-2.3-4.7-3.6-7.4c-8.9,2.3-16.8,6.1-25,10
			c0.3,2.1,0.3,3.9,0.8,5.4c3.8,11.4,6.9,23,9.4,34.7c10.9-6.3,21.8-12.6,32.7-18.9C1620,2067.2,1618.4,2065.1,1617,2062.8z"/>
		<path class="st1" d="M2161.8,1486.2l-25.7,44.6h-51.5l-14.7-25.4l-304.3,176c0.1,1.1,0.3,2.3,0.4,3.4c1.5,12.7,2.6,25.5,2.9,38.4
			c0.5,18.1,0.8,36.3,0.1,54.4c-0.9,24.8-4.2,49.3-13.1,72.8c-4.7,12.4-9.4,24.8-14.1,37.2c-1.1,2.9-2.1,5.8-3.2,9
			c0.9,2.2,1.8,4.5,2.6,6.8l513.2-296.9l26-44.9h51.7l154.4-89.3v-207.8l-339.4,196.4L2161.8,1486.2z"/>
		<path class="st1" d="M453.6,1931.9c1-14.5,1.3-29.2,4-43.6c2.5-13,6.4-25.7,11.8-37.9c9.7-22,21.6-42.6,35-62.4
			c7.7-11.5,16.7-21.7,25.5-32.3c19.1-23.1,40.9-43.2,64.4-61.5c-127.1,74.1-254.3,148.1-381.5,222.1l-0.6,1H211
			c-5.9,3.4-11.7,6.8-17.6,10.2c-53,30.6-105.9,61.3-159,91.9v143.9l17.2,10c133.9-77.3,267.8-154.6,401.8-231.9
			C453.3,1938.3,453.3,1935.1,453.6,1931.9z"/>
		<path class="st1" d="M1766.5,1125.5c-15.4-15.9-22.8-35.4-25.7-56.8c-0.9-6.4-0.4-13.1-0.3-19.7c0.1-2.9-0.4-4.5-3.2-5.9
			c-3.4-1.6-6.6-3.5-9.6-5.6c-17.9,10.3-35.8,20.5-53.6,30.8c2.4,5.4,4.6,11,6.4,16.6c1.3,4.2,2.4,8.5,3.4,12.8
			c0.2,0.8-0.4,1.6-0.7,2.4c-1.1-0.6-2.6-0.9-3.2-1.8c-2.1-3.9-3.9-7.9-5.9-11.9c-2.4-4.7-4.9-9.3-7.6-13.8
			c-5.8,3.3-11.6,6.7-17.4,10c1,4.5,1.7,9.1,2.3,13.6c0.3,1.6-0.4,3.6-3.2,3.9c-1.3-4.9-2.8-9.7-4.5-14.5
			c-12.3,7.1-24.6,14.1-36.9,21.2c0.1,2.3,0.1,4.6,0.2,6.9c0.1,7.5,1.9,15,5,21.8c2.2,4.8,4.3,9.8,6.8,14.4
			c16.1,29.5,28.9,60.6,41.4,91.8c0.3,0.8,0.6,1.6,0.9,2.3c50.9-29.4,101.9-58.8,152.8-88.2c-6.7-2.1-13.1-4.8-19.3-8.2
			C1783.8,1142,1774.9,1134.2,1766.5,1125.5z"/>
		<path class="st1" d="M1899.8,938.9c-8.9,5.1-17.9,10.3-26.8,15.3c10.8,2.8,21.3,7.4,31.5,13.7c12,7.4,21.4,17.1,29.8,28.2
			c11.9,15.6,17.4,33.4,19,52.6c0.1,1.5,0.3,3,0.4,4.5c0.1,1.4,0,2.8,0,4.1c-0.1,6.4-0.8,12.8-1.9,19
			c178.3-102.9,356.5-205.9,534.8-309v-19.7l-124.7-72C2208,763.5,2053.7,850.8,1899.8,938.9z"/>
		<path class="st1" d="M739.2,1609.8c21.3-8.6,43.6-13.8,65.7-19.8c30.7-8.4,62-14.5,93.4-19.3c53.9-8.2,106.1-23.3,157.7-40.4
			c21.4-7.1,42.2-15.7,63-24.5c17.9-7.6,35.3-16.5,51.9-26.6c13.6-8.1,27-17,40.9-24.7c8.8-4.9,13.6-12.2,16.2-21.5
			c0.8-3,1.6-6,2.1-9c4.5-25.7,12-50.8,22.4-74.7c6.3-14.6,11.8-29.5,17.8-44.3c0.6-1.6,1.2-3.3,1.7-4.9
			c-108.7,62.8-217.3,125.8-325.8,188.9C877.3,1529.2,808.2,1569.6,739.2,1609.8z"/>
		<path class="st2" d="M1827.4,2097.3c-12.3-0.4-24.6-0.7-36.9-0.9l-935,540.9l18.3,10.5c203.6-117.6,407.3-235.2,610.9-352.8
			C1598.9,2229.3,1713.2,2163.3,1827.4,2097.3z"/>
		<path class="st2" d="M1952.3,2025.3c169.3-97.7,338.7-195.5,508-293.3c8.8-5.1,17.6-10.1,26.3-15.2v-23l-558.2,322.9
			C1936.4,2019.5,1944.4,2022.3,1952.3,2025.3z"/>
		<path class="st2" d="M1585,953.6c1,0.4,1.9,0.8,2.9,1.3c21.5-12.5,43.1-24.8,64.6-37.3c-3.3-0.6-6.4-1.3-9.7-1.9
			c-10.7-2.1-21.2-4.9-31.7-8.1l-36.1,20.8c1.1,2.5,2.1,5.1,2.9,7.6C1579.9,941.9,1581.7,947.9,1585,953.6z"/>
		<path class="st2" d="M1926.7,752.8c2.8,0.6,4.9,1.5,6.4,2.8c94.6-54.6,189.1-109.1,283.6-163.8l-29.4-17l-296,170.9
			c3.8,0.9,7.6,1.8,11.5,2.7C1910.8,750.3,1918.8,751.1,1926.7,752.8z"/>
		<path class="st2" d="M826.1,1360.8l-8.6,4.9c-145.2,83.9-290.4,167.7-435.7,251.6l-26,45.1h-52
			c-89.8,51.8-179.6,103.7-269.4,155.5v33.8c268.8-155.2,537.6-310.3,806.4-465.5L826.1,1360.8z"/>
		<path class="st2" d="M1291.5,1092.1L921.2,1306l14.6,25.4c114.1-65.8,228.2-131.7,342.2-197.6c0.8-3.1,1.6-6.3,2.6-9.3
			C1284,1113.5,1287.5,1102.7,1291.5,1092.1z"/>
		<path class="st2" d="M1765.9,852.9c3.5-2.3,6.9-4.8,10.6-6.9c28.9-16.7,57.8-33.4,86.8-50.1c-13.3-3.8-26.6-7.4-40.1-10.8
			l-143.7,83c14.5,2.4,29.2,3.7,44.1,3.9c2.6,0.1,5.2,0.1,7.8,0.1c6.9-4,13.8-7.9,20.7-12C1756.6,857.5,1761.3,855.3,1765.9,852.9z"
			/>
		<path class="st3" d="M463,1989.3l-365,210.8l12.5,7.2c119-68.7,238-137.4,357-206.1C465.8,1997.3,464.3,1993.3,463,1989.3z"/>
		<path class="st3" d="M1754.6,1242.8c-4.8,3-9.4,6.3-14.3,9.1c-19.2,11.1-38.4,22.2-57.6,33.3c2.1,3.6,4.2,7.2,6.3,10.8
			c133.6-77.2,267.2-154.3,400.8-231.4c132.3-76.4,264.7-152.8,396.9-229.2V821c-238.2,137.5-476.4,275-714.6,412.5
			C1766.3,1236.8,1760.4,1239.8,1754.6,1242.8z"/>
		<path class="st2" d="M1712.3,998.8l136.3-78.7c-3.3,0.3-6.5,0.7-9.8,1.1L1707.7,997C1709.2,997.6,1710.8,998.3,1712.3,998.8z"/>
		<path class="st2" d="M1624.9,1048.8c-0.6-0.9-1.3-1.9-1.9-2.9l-17.8,10.3c0.1,1.4,0.1,2.9,0.1,4.3l19.7-11.4
			C1625,1049,1625,1049,1624.9,1048.8z"/>
		<path class="st2" d="M1699,1002l-31.9,18.5c0.3,0.4,0.6,0.8,0.8,1.1c0.5,0.6,0.9,1.3,1.4,1.9l30.9-17.8
			C1699.8,1004.5,1699.3,1003.3,1699,1002z"/>
		<path class="st2" d="M1923.9,876.6l393-226.9l-4.4-2.6l-390.2,225.7C1922.9,874,1923.5,875.3,1923.9,876.6z"/>
		<path class="st2" d="M1660.7,1026.5c-0.4-0.5-0.9-1-1.4-1.5l-8.4,4.9c0.8,1.1,1.5,2.1,2.2,3.1l8.9-5.1
			C1661.6,1027.4,1661.1,1026.9,1660.7,1026.5z"/>
		<path class="st2" d="M1640.8,1035.7l-8.1,4.7c0.6,1.1,1.1,2.3,1.7,3.4l8.8-5.1C1642.4,1037.7,1641.6,1036.7,1640.8,1035.7z"/>
		<path class="st2" d="M152.2,1896.8L34.4,1965v2.6c39.7-22.9,79.3-45.8,119-68.6L152.2,1896.8z"/>
		<path class="st2" d="M225.4,1857.3l1048.5-605.4c0-1.3,0-2.6,0-3.9L224.2,1855.2L225.4,1857.3z"/>
		<path class="st1" d="M888.1,2118.9l-39.7,23c22.6,9.9,44.8,20.5,66.9,31.5l86.6-50.1c-18.1-0.1-36.2-0.3-54.3-0.8
			C927.8,2121.9,908,2120.2,888.1,2118.9z"/>
		<path class="st4" d="M888.1,2118.9l-39.7,23c22.6,9.9,44.8,20.5,66.9,31.5l86.6-50.1c-18.1-0.1-36.2-0.3-54.3-0.8
			C927.8,2121.9,908,2120.2,888.1,2118.9z"/>
		<path class="st1" d="M729.5,2210.9c-0.1,0-0.1-0.1-0.2-0.1l-306,177l60.7,35l315.9-182.7C776.2,2231,752.4,2221.9,729.5,2210.9z"
			/>
		<path class="st4" d="M729.5,2210.9c-0.1,0-0.1-0.1-0.2-0.1l-306,177l60.7,35l315.9-182.7C776.2,2231,752.4,2221.9,729.5,2210.9z"
			/>
		<path class="st1" d="M1758.4,1628.4c2.4,17.6,5.1,35.3,7.3,53l304.3-176l-11.1-19.1l25.7-44.6h51.5l11,19.1l339.4-196.4v-70.2
			l-729.8,422.2C1757.3,1620.4,1757.8,1624.4,1758.4,1628.4z"/>
		<path class="st4" d="M1758.4,1628.4c2.4,17.6,5.1,35.3,7.3,53l304.3-176l-11.1-19.1l25.7-44.6h51.5l11,19.1l339.4-196.4v-70.2
			l-729.8,422.2C1757.3,1620.4,1757.8,1624.4,1758.4,1628.4z"/>
		<path class="st5" d="M1758,1938.7l492-284.6l-11.5-19.9l16.1-27.8l-513.2,296.9c0.8,1.8,1.5,3.6,2.3,5.4
			C1748.4,1918.7,1753.1,1928.8,1758,1938.7z"/>
		<polygon class="st5" points="2364.5,1561.5 2375.9,1581.3 2486.6,1517.2 2486.6,1472.2 2332.2,1561.5 		"/>
		<path class="st5" d="M1258.6,2216.8c1.3-2.8,2.9-5.4,4.7-8c2.8-3.9,5.9-7.7,9-11.6c0.3-0.7,0.8-1.6,0.8-2.4
			c-0.6-8.4,1.5-16.1,5-23.5l-614.2,355.3l39,22.5l555.6-321.4C1256.2,2224.5,1256.7,2220.8,1258.6,2216.8z"/>
		<path class="st6" d="M1748.8,1549.5c0.4,3.9,0.8,7.9,1.2,11.8l736.6-426.2v-22.5L1747.8,1540
			C1748.1,1543.1,1748.5,1546.3,1748.8,1549.5z"/>
		<path class="st6" d="M653.4,2173.1l-300.7,174l19.5,11.3l301.6-174.5C667,2180.4,660.2,2176.8,653.4,2173.1z"/>
		<path d="M2364.5,1707h-56.3l-490.6,283.9c9.6,1.9,19.2,3.6,28.9,4.9c15.5,2.1,30.8,5.3,45.8,9.5c13.3-7.7,26.7-15.4,40-23.1
			c184.8-106.7,369.5-213.4,554.3-320v-58.3l-93.9,54.3L2364.5,1707z"/>
		<path class="st7" d="M2364.5,1707h-56.3l-490.6,283.9c9.6,1.9,19.2,3.6,28.9,4.9c15.5,2.1,30.8,5.3,45.8,9.5
			c13.3-7.7,26.7-15.4,40-23.1c184.8-106.7,369.5-213.4,554.3-320v-58.3l-93.9,54.3L2364.5,1707z"/>
		<path d="M1736.3,2095.3c-1.3-0.1-2.6-0.2-3.8-0.3c-9.7-0.8-19.5-0.3-29.2-0.8c-17.2-0.9-34.4-3.1-51.1-7.4c-0.1,0-0.2-0.1-0.3-0.1
			l-58.3,33.7c-0.1,13-4.4,24.9-13,35.7c-6.9,8.8-15.1,16.2-23.5,23.3c-10.1,8.5-20.7,16.7-31.5,24.3
			c-23.3,16.2-47.6,30.5-73.8,41.7c-12.6,5.4-24.9,11.5-37.2,17.3c-22,10.6-45.1,18-68.8,23.5c-13.3,3.1-26.5,3.1-39.5,0.3
			l-528.7,305.9l48.8,28.2l129.4-74.7C1215.9,2395.7,1476.1,2245.5,1736.3,2095.3z"/>
		<path class="st7" d="M1736.3,2095.3c-1.3-0.1-2.6-0.2-3.8-0.3c-9.7-0.8-19.5-0.3-29.2-0.8c-17.2-0.9-34.4-3.1-51.1-7.4
			c-0.1,0-0.2-0.1-0.3-0.1l-58.3,33.7c-0.1,13-4.4,24.9-13,35.7c-6.9,8.8-15.1,16.2-23.5,23.3c-10.1,8.5-20.7,16.7-31.5,24.3
			c-23.3,16.2-47.6,30.5-73.8,41.7c-12.6,5.4-24.9,11.5-37.2,17.3c-22,10.6-45.1,18-68.8,23.5c-13.3,3.1-26.5,3.1-39.5,0.3
			l-528.7,305.9l48.8,28.2l129.4-74.7C1215.9,2395.7,1476.1,2245.5,1736.3,2095.3z"/>
		<path class="st2" d="M1932.3,1982.1c-13.3,7.7-26.7,15.4-40,23.1c4.1,1.1,8.2,2.4,12.3,3.7c8,2.5,16,5.1,23.9,7.9l558.2-322.9
			v-31.8C2301.8,1768.7,2117,1875.4,1932.3,1982.1z"/>
		<path class="st7" d="M1932.3,1982.1c-13.3,7.7-26.7,15.4-40,23.1c4.1,1.1,8.2,2.4,12.3,3.7c8,2.5,16,5.1,23.9,7.9l558.2-322.9
			v-31.8C2301.8,1768.7,2117,1875.4,1932.3,1982.1z"/>
		<path class="st2" d="M1777.5,2096.4c-13.8-0.1-27.5-0.1-41.2-1.1c-260.2,150.2-520.4,300.4-780.6,450.6l-129.4,74.7l29.2,16.8
			l935-540.9C1786.2,2096.5,1781.9,2096.4,1777.5,2096.4z"/>
		<path class="st7" d="M1777.5,2096.4c-13.8-0.1-27.5-0.1-41.2-1.1c-260.2,150.2-520.4,300.4-780.6,450.6l-129.4,74.7l29.2,16.8
			l935-540.9C1786.2,2096.5,1781.9,2096.4,1777.5,2096.4z"/>
		<polygon class="st8" points="1335.3,2524.3 1378.5,2449.4 1465,2449.4 1500.1,2510.2 1725,2380.3 1725.2,2186.9 1726.6,2186.1 
			1726.6,2185.5 899.7,2662.9 1067.6,2759.8 1370.4,2585 		"/>
		<polygon points="219.7,1435.6 219.3,1435.8 219.4,1300.1 34.4,1407.2 34.4,1543.5 219.7,1436.4 		"/>
		<polygon class="st9" points="219.7,1435.6 219.3,1435.8 219.4,1300.1 34.4,1407.2 34.4,1543.5 219.7,1436.4 		"/>
		<polygon points="219.5,1242.7 34.4,1349.5 34.4,1377.9 219.5,1270.9 		"/>
		<polygon class="st9" points="219.5,1242.7 34.4,1349.5 34.4,1377.9 219.5,1270.9 		"/>
		<polygon points="320.3,1212.5 320.1,1241.9 1645.4,475.2 1663.3,444.3 1698.9,444.3 1829.9,368.5 1804.6,353.9 		"/>
		<polygon class="st10" points="320.3,1212.5 320.1,1241.9 1645.4,475.2 1663.3,444.3 1698.9,444.3 1829.9,368.5 1804.6,353.9 		"/>
		<polygon points="231.9,1263.7 231.9,1293 307.6,1249.1 307.8,1219.7 		"/>
		<polygon class="st10" points="231.9,1263.7 231.9,1293 307.6,1249.1 307.8,1219.7 		"/>
		<polygon points="219.5,1270.9 34.4,1377.9 34.4,1407.2 219.4,1300.1 		"/>
		<polygon class="st9" points="219.5,1270.9 34.4,1377.9 34.4,1407.2 219.4,1300.1 		"/>
		<polygon class="st10" points="219.5,1270.9 34.4,1377.9 34.4,1407.2 219.4,1300.1 		"/>
		<polygon class="st11" points="1725,2380.3 1725,2380.5 1758.1,2361.7 1758.1,2348.4 1737.3,2360.2 1737.4,2193.3 1758.3,2181.5 
			1758.3,2168.1 1726.6,2186.1 1725.2,2186.9 		"/>
		<polygon class="st11" points="1791.4,2161.9 1812.2,2150.2 1811.6,2317.1 1790.8,2328.8 1790.8,2342.2 1824,2323.5 1824.6,2129.9 
			1791.4,2148.5 		"/>
		<polygon class="st12" points="2181.3,1168.2 2167.2,1176.2 2167.2,1185.2 2189.6,1172.5 2189.6,1041.2 2167.2,1053.9 2167.2,1063 
			2181.3,1055 		"/>
		<polygon class="st12" points="2132.9,1198 2118.8,1206 2118.9,1092.8 2132.9,1084.8 2132.9,1075.7 2110.5,1088.5 2110.4,1219.8 
			2132.9,1207 		"/>
		<polygon class="st13" points="231.9,1247 252.8,1235.1 252.8,1221.6 219.5,1240.5 219.5,1242.7 219.5,1270.9 219.4,1300.1 
			219.3,1435.8 219.7,1435.6 252.7,1416.9 252.7,1403.3 231.7,1415.2 231.9,1293 231.9,1263.7 		"/>
		<polygon class="st13" points="320.4,1185.8 287,1204.5 286.9,1218 307.9,1206.2 307.8,1219.7 307.6,1249.1 307,1374.5 
			285.9,1386.3 285.8,1399.8 319.3,1381 320.1,1241.9 320.3,1212.5 		"/>
		<path d="M216.2,1841.5l1057.6-610.6c0-4.4,0-8.7-0.1-13.1c0-0.8,0-1.6,0-2.4L204,1834.3h8.1L216.2,1841.5z"/>
		<path class="st14" d="M216.2,1841.5l1057.6-610.6c0-4.4,0-8.7-0.1-13.1c0-0.8,0-1.6,0-2.4L204,1834.3h8.1L216.2,1841.5z"/>
		<polygon points="140.1,1875.9 144.1,1869 34.4,1932.4 34.4,1946.5 144.2,1883.1 		"/>
		<polygon class="st14" points="140.1,1875.9 144.1,1869 34.4,1932.4 34.4,1946.5 144.2,1883.1 		"/>
		<path d="M1626.5,1019.7c-1.3-1.2-2.7-2.3-4.1-3.2c-0.2-0.1-0.7,0.1-0.9,0.3c-0.3,0.2-0.8,0.9-0.7,1.1c1.6,3.1,3.1,6.3,4.9,9.3
			c0.1,0.1,0.1,0.3,0.3,0.4c1.8-1,3.5-2.1,5.3-3.1C1629.7,1023,1628.1,1021.4,1626.5,1019.7z"/>
		<path class="st14" d="M1626.5,1019.7c-1.3-1.2-2.7-2.3-4.1-3.2c-0.2-0.1-0.7,0.1-0.9,0.3c-0.3,0.2-0.8,0.9-0.7,1.1
			c1.6,3.1,3.1,6.3,4.9,9.3c0.1,0.1,0.1,0.3,0.3,0.4c1.8-1,3.5-2.1,5.3-3.1C1629.7,1023,1628.1,1021.4,1626.5,1019.7z"/>
		<path d="M1901.1,855.1c6,0.1,10.2,2.1,13.7,5.8c128-73.9,256-147.7,383.9-221.7l-14.4-8.3L1896.8,855
			C1898.3,855,1899.7,855.1,1901.1,855.1z"/>
		<path class="st14" d="M1901.1,855.1c6,0.1,10.2,2.1,13.7,5.8c128-73.9,256-147.7,383.9-221.7l-14.4-8.3L1896.8,855
			C1898.3,855,1899.7,855.1,1901.1,855.1z"/>
		<path d="M1645.7,1011.5c-1.1-1.1-3.1-1.4-4.8-1.8c-0.4-0.1-1.8,1.3-1.6,1.7c0.4,1.7,1.1,3.3,2,4.8c0.4,0.6,0.9,1.3,1.3,1.8
			c2.1-1.2,4.2-2.4,6.3-3.6C1647.7,1013.5,1646.7,1012.5,1645.7,1011.5z"/>
		<path class="st14" d="M1645.7,1011.5c-1.1-1.1-3.1-1.4-4.8-1.8c-0.4-0.1-1.8,1.3-1.6,1.7c0.4,1.7,1.1,3.3,2,4.8
			c0.4,0.6,0.9,1.3,1.3,1.8c2.1-1.2,4.2-2.4,6.3-3.6C1647.7,1013.5,1646.7,1012.5,1645.7,1011.5z"/>
		<path d="M1771.9,927.3l-123,71.2c3.2,3.4,6.3,6.9,9.3,10.5c48.6-28,97.2-56.1,145.8-84.2C1793.3,925.9,1782.6,926.7,1771.9,927.3z
			"/>
		<path class="st14" d="M1771.9,927.3l-123,71.2c3.2,3.4,6.3,6.9,9.3,10.5c48.6-28,97.2-56.1,145.8-84.2
			C1793.3,925.9,1782.6,926.7,1771.9,927.3z"/>
		<path d="M1605.5,1023.7c0,0-0.1-0.1-0.1-0.1l-2.9,1.7c-0.1,1.4-0.1,2.7,0.1,3.9c0.8,3.6,1.3,7.3,1.7,10.9c3.4-2,6.9-3.9,10.3-5.9
			C1611.8,1030.5,1608.8,1027,1605.5,1023.7z"/>
		<path class="st14" d="M1605.5,1023.7c0,0-0.1-0.1-0.1-0.1l-2.9,1.7c-0.1,1.4-0.1,2.7,0.1,3.9c0.8,3.6,1.3,7.3,1.7,10.9
			c3.4-2,6.9-3.9,10.3-5.9C1611.8,1030.5,1608.8,1027,1605.5,1023.7z"/>
		<path class="st2" d="M1614.6,1034.1c-3.4,2-6.9,3.9-10.3,5.9c0.6,5.4,0.8,10.8,0.9,16.1l17.8-10.3
			C1620.3,1041.9,1617.6,1037.9,1614.6,1034.1z"/>
		<path class="st14" d="M1614.6,1034.1c-3.4,2-6.9,3.9-10.3,5.9c0.6,5.4,0.8,10.8,0.9,16.1l17.8-10.3
			C1620.3,1041.9,1617.6,1037.9,1614.6,1034.1z"/>
		<path class="st2" d="M224.2,1855.2L1273.8,1248c0-5.7,0-11.3-0.1-17L216.2,1841.5L224.2,1855.2z"/>
		<path class="st14" d="M224.2,1855.2L1273.8,1248c0-5.7,0-11.3-0.1-17L216.2,1841.5L224.2,1855.2z"/>
		<path class="st2" d="M1631.2,1024.6c-1.8,1-3.5,2.1-5.3,3.1c2.4,4.2,4.7,8.4,6.9,12.7l8.1-4.7
			C1637.7,1031.9,1634.5,1028.2,1631.2,1024.6z"/>
		<path class="st14" d="M1631.2,1024.6c-1.8,1-3.5,2.1-5.3,3.1c2.4,4.2,4.7,8.4,6.9,12.7l8.1-4.7
			C1637.7,1031.9,1634.5,1028.2,1631.2,1024.6z"/>
		<path class="st2" d="M1648.8,1014.5c-2.1,1.2-4.2,2.4-6.3,3.6c2.8,3.9,5.6,7.9,8.3,11.8l8.4-4.9
			C1655.9,1021.4,1652.4,1017.9,1648.8,1014.5z"/>
		<path class="st14" d="M1648.8,1014.5c-2.1,1.2-4.2,2.4-6.3,3.6c2.8,3.9,5.6,7.9,8.3,11.8l8.4-4.9
			C1655.9,1021.4,1652.4,1017.9,1648.8,1014.5z"/>
		<path class="st2" d="M1698,997.1c-0.1-1.3,0.4-2.6,0.7-3.9c1.2,0.3,2.3,0.6,3.4,1.1c1.8,1,3.7,1.9,5.5,2.7l131.1-75.8
			c-1.7,0.2-3.3,0.4-5,0.6c-10,1.1-19.8,2.2-29.8,3.1c-48.6,28-97.2,56.1-145.8,84.2c3.1,3.7,6.1,7.5,8.9,11.5l31.9-18.5
			C1698.6,1000.5,1698.2,998.8,1698,997.1z"/>
		<path class="st14" d="M1698,997.1c-0.1-1.3,0.4-2.6,0.7-3.9c1.2,0.3,2.3,0.6,3.4,1.1c1.8,1,3.7,1.9,5.5,2.7l131.1-75.8
			c-1.7,0.2-3.3,0.4-5,0.6c-10,1.1-19.8,2.2-29.8,3.1c-48.6,28-97.2,56.1-145.8,84.2c3.1,3.7,6.1,7.5,8.9,11.5l31.9-18.5
			C1698.6,1000.5,1698.2,998.8,1698,997.1z"/>
		<polygon class="st2" points="144.2,1883.1 34.4,1946.5 34.4,1965 152.2,1896.8 		"/>
		<polygon class="st14" points="144.2,1883.1 34.4,1946.5 34.4,1965 152.2,1896.8 		"/>
		<path class="st2" d="M1917.7,864.4c1.8,2.8,3.4,5.5,4.7,8.4l390.2-225.7l-13.8-7.9c-128,73.9-256,147.7-383.9,221.7
			C1915.8,861.9,1916.8,863.1,1917.7,864.4z"/>
		<path class="st14" d="M1917.7,864.4c1.8,2.8,3.4,5.5,4.7,8.4l390.2-225.7l-13.8-7.9c-128,73.9-256,147.7-383.9,221.7
			C1915.8,861.9,1916.8,863.1,1917.7,864.4z"/>
		<path d="M1729.9,1420.9c0.9,5.6,1.8,11.3,2.8,17l377.7-218.1v-131.2l-407.5,235.3c4.8,11,9.2,22.2,12.8,33.7
			C1722.2,1378.3,1726.4,1399.6,1729.9,1420.9z"/>
		<path class="st15" d="M1729.9,1420.9c0.9,5.6,1.8,11.3,2.8,17l377.7-218.1v-131.2l-407.5,235.3c4.8,11,9.2,22.2,12.8,33.7
			C1722.2,1378.3,1726.4,1399.6,1729.9,1420.9z"/>
		<path d="M515,2079.6c-10.4-14.9-20.5-29.9-30.3-45.2c-1.1-1.8-2.3-3.6-3.3-5.4l-339.8,196.1l113.6,65.6l296.5-171.2
			C537.8,2108,525.4,2094.5,515,2079.6z"/>
		<path class="st15" d="M515,2079.6c-10.4-14.9-20.5-29.9-30.3-45.2c-1.1-1.8-2.3-3.6-3.3-5.4l-339.8,196.1l113.6,65.6l296.5-171.2
			C537.8,2108,525.4,2094.5,515,2079.6z"/>
		<path class="st16" d="M1817.5,1990.8c-0.8-0.2-1.6-0.3-2.4-0.5c-6.5-1.3-12.8-3.2-19.2-5.1c-5.6-1.5-10.7-4.3-15-7.9
			c-3.7-3.2-6.8-7-9.1-11.5c-1.9-3.5-3.9-6.9-5.7-10.5c-2.7-5.6-5.4-11.1-8.1-16.6c-4.8-9.9-9.6-20-14.3-30
			c-0.8-1.8-1.6-3.6-2.3-5.4c-0.9-2.3-1.8-4.5-2.6-6.8c1.1-3.2,2.1-6.1,3.2-9c4.7-12.4,9.4-24.8,14.1-37.2
			c8.9-23.4,12.1-47.9,13.1-72.8c0.7-18.1,0.4-36.2-0.1-54.4c-0.4-12.8-1.4-25.7-2.9-38.4c-0.1-1.1-0.3-2.3-0.4-3.4
			c-2.2-17.7-4.9-35.4-7.3-53c-0.6-4-1.1-8-1.6-12c-0.4-3.4-0.8-6.9-1.3-10.4c-1.8-14.9-3.9-29.8-5.6-44.7
			c-0.4-3.9-0.9-7.9-1.2-11.8c-0.3-3.1-0.6-6.3-0.9-9.4c-1.5-13.6-3.6-27-5.6-40.6c-3-20.5-6.3-41.1-9.6-61.6
			c-0.9-5.6-1.8-11.3-2.8-17c-3.4-21.4-7.6-42.7-14.2-63.3c-3.6-11.5-8-22.7-12.8-33.7c-1.4-3.1-2.8-6.3-4.3-9.4
			c-2.4-5.2-5.1-10.3-7.9-15.3c-0.6-1.1-1.3-2.1-1.9-3.3c-2.1-3.6-4.1-7.2-6.3-10.8c-4.6-7.9-9.3-15.9-13.6-23.9
			c-2.9-5.5-5.6-11.2-7.9-17c-0.3-0.8-0.6-1.6-0.9-2.3c-12.5-31.2-25.2-62.3-41.4-91.8c-2.6-4.6-4.6-9.6-6.8-14.4
			c-3.1-6.8-4.9-14.3-5-21.8c-0.1-2.3-0.1-4.6-0.2-6.9c-0.3-13.2-0.8-26.3-1.3-39.6c-0.1-2.3-0.1-4.6-0.2-7c0-1.4-0.1-2.9-0.1-4.3
			c-0.1-5.4-0.3-10.8-0.9-16.1c-0.4-3.6-0.9-7.3-1.7-10.9c-0.3-1.3-0.3-2.6-0.1-3.9c0.1-0.8,0.1-1.6,0.1-2.4
			c1.3,0.4,2.3,0.4,2.8,0.8c0,0,0.1,0.1,0.1,0.1c3.3,3.3,6.3,6.8,9.1,10.5c2.9,3.8,5.7,7.8,8.3,11.8c0.6,0.9,1.3,1.9,1.9,2.9
			c0.1,0.1,0.1,0.2,0.2,0.3c7.6,11.6,13.9,23.8,18.6,36.7c1.8,4.8,3.3,9.5,4.5,14.5c2.8-0.4,3.4-2.3,3.2-3.9
			c-0.6-4.6-1.3-9.1-2.3-13.6c-0.3-1.1-0.5-2.2-0.8-3.3c-3.4-12.4-8.2-24.2-13.8-35.7c-0.6-1.1-1.1-2.3-1.7-3.4
			c-2.2-4.3-4.4-8.5-6.9-12.7c-0.1-0.1-0.1-0.3-0.3-0.4c-1.8-3.1-3.3-6.2-4.9-9.3c-0.1-0.2,0.5-0.8,0.7-1.1c0.2-0.3,0.8-0.4,0.9-0.3
			c1.4,0.9,2.9,2,4.1,3.2c1.6,1.6,3.1,3.3,4.6,4.9c3.3,3.6,6.6,7.3,9.6,11.1c0.8,1,1.6,2,2.4,3c8.6,10.8,16.3,22.2,23.2,34
			c2.6,4.5,5.2,9.1,7.6,13.8c2,3.9,3.8,8,5.9,11.9c0.5,0.9,2.1,1.2,3.2,1.8c0.3-0.8,0.9-1.8,0.7-2.4c-1-4.3-2-8.6-3.4-12.8
			c-1.9-5.7-4-11.3-6.4-16.6c-3.9-8.7-8.5-17-13.8-25c-2.3-3.5-4.7-7-7.1-10.5c-0.8-1.1-1.4-2.1-2.2-3.1c-2.8-3.9-5.6-7.8-8.3-11.8
			c-0.4-0.6-0.9-1.3-1.3-1.8c-0.9-1.5-1.6-3.1-2-4.8c-0.1-0.4,1.2-1.8,1.6-1.7c1.7,0.3,3.7,0.6,4.8,1.8c1.1,1,2.1,1.9,3.1,2.9
			c3.6,3.4,7.1,6.9,10.5,10.5c0.4,0.5,0.9,1,1.4,1.5c0.4,0.4,0.9,0.9,1.3,1.4c4.7,5,9.2,10.3,13.8,15.3c0.4,0.5,1.9,0.8,2.3,0.5
			c0.6-0.6,0.9-1.5,0.7-2.4c-1.9-6.5-5.6-12.2-9.4-17.6c-0.4-0.7-0.9-1.3-1.4-1.9c-0.3-0.4-0.6-0.8-0.8-1.1
			c-2.9-3.9-5.8-7.8-8.9-11.5c-3-3.6-6.1-7.1-9.3-10.5c-10.1-10.7-21.3-20.3-33.8-28.5c-8.7-5.7-17.6-11-27.1-15.1
			c-0.9-0.4-1.9-0.8-2.9-1.3c-3.4-5.8-5.1-11.7-7-17.6c-0.8-2.6-1.8-5.2-2.9-7.6c-2.5-5.6-5.7-10.8-9.5-15.6
			c-8.3-10.5-18.5-18.9-29.6-26.3c-5.3-3.5-10.6-3.6-16.3-0.4c-4.7,2.6-8.9,5.9-12.4,9.8c-5.8,6.7-11.5,13.5-17,20.3
			c-4.8,5.9-10.3,10.7-17.7,13.2c-7.4,2.5-14.5,6.4-21.7,9.8c-27.3,12.8-52.4,29.9-74.3,50.5c-10.7,10-22,19.1-33.5,28
			c-3.1,2.4-6.2,4.9-9.3,7.5c-11,9.2-19.5,20.3-26.5,32.9c-6.1,11-11.2,22.4-15.6,34c-4.1,10.6-7.6,21.4-10.9,32.3
			c-0.9,3.1-1.8,6.2-2.6,9.3c-3,12.3-4.6,25-4.6,37.7c0,14.7,0.2,29.3,0.3,44.1c0,0.8,0,1.6,0,2.4c0,4.4,0,8.7,0.1,13.1
			c0,5.7,0,11.3,0.1,17c0,1.3,0,2.6,0,3.9c0.1,10.3,0.1,20.7,0.3,31c0.1,5.9-0.5,11.6-2.1,17.1c-0.5,1.6-1,3.3-1.7,4.9
			c-5.9,14.8-11.5,29.7-17.8,44.3c-10.3,24-17.8,49-22.4,74.7c-0.5,3.1-1.3,6.1-2.1,9c-2.6,9.3-7.4,16.6-16.2,21.5
			c-13.9,7.8-27.2,16.6-40.9,24.7c-16.6,10.1-34,19-51.9,26.6c-20.8,8.8-41.6,17.3-63,24.5c-51.6,17.2-103.8,32.2-157.7,40.4
			c-31.4,4.8-62.7,10.8-93.4,19.3c-22.1,6.1-44.4,11.3-65.7,19.8c-0.9,0.4-1.8,0.7-2.7,1.1c-9.4,3.9-18.5,8.3-27.8,12.5
			c-23,10.3-45.1,22.5-66.1,36.5c-8.1,5.4-16,11-24,16.6c-8.3,5.8-16.4,11.7-24.3,17.9c-23.5,18.2-45.3,38.4-64.4,61.5
			c-8.8,10.6-17.8,20.8-25.5,32.3c-13.3,19.8-25.3,40.4-35,62.4c-5.3,12.1-9.3,24.8-11.8,37.9c-2.8,14.4-3.1,29-4,43.6
			c-0.2,3.2-0.3,6.3-0.2,9.5c0.2,7.4,1.2,14.9,2.6,22.2c1.8,8.8,4.1,17.3,6.9,25.7c1.4,4,2.8,7.9,4.4,11.9c3.9,9.6,8.6,19,14,28
			c1.1,1.8,2.2,3.6,3.3,5.4c9.8,15.2,20,30.3,30.3,45.2c10.5,14.9,22.8,28.3,36.7,40c2.4,2,4.8,3.9,7.2,5.8
			c7.3,5.7,15.3,10.5,23.8,14.3c22.6,10.2,45.5,19.6,67.2,31.6c1.1,0.6,2.3,1.3,3.4,1.9c6.8,3.7,13.6,7.2,20.5,10.7
			c18.3,9.3,36.9,18.1,55.4,27c0.1,0,0.1,0.1,0.2,0.1c22.9,11,46.7,20,70.3,29.2c1.4,0.6,2.9,1.1,4.4,1.7c38,15,77.7,23.8,118,29.8
			c6.9,1,14.1,1.4,21.1-0.7c2.1-0.6,4.3-0.8,6.5-0.6c7.5,0.6,15,1.1,22.4,2.4c14.1,2.6,28.2,2.3,42.4,2.1c7.6-0.1,15-1.3,21.9-4.6
			c5.8-2.8,11.6-3.8,18-1.9c3,0.9,6.2,0.8,9.1-0.3c4.8-1.6,6.6-6.4,3.6-10.6c-4.8-6.5-10.4-12.1-17.5-16
			c-14.7-8.1-29.3-16.5-44.3-24c-26.5-13.3-53.4-25.7-79.9-39c-3.4-1.7-6.8-3.4-10.1-5.1c-22.1-11-44.3-21.5-66.9-31.5
			c-14.8-6.5-29.9-12.7-45-18.5c-1.6-0.7-3.1-1.6-4.6-2.5c-0.4-0.3-0.6-0.8-0.5-1.2c0.3-0.7,0.6-1.8,1.1-1.9
			c2.1-0.6,4.3-1.4,6.4-1.4c14.1-0.1,28.3-0.3,42.4,0.1c9.3,0.2,18.5,1.3,27.8,1.9c4,0.3,7.9,0.4,12,0.7l0,0
			c19.8,1.2,39.7,2.9,59.5,3.5c18.1,0.6,36.2,0.8,54.3,0.8c8.9,0,17.8,0,26.7,0c39.8-0.1,79.6-0.1,119.5-1.6
			c26.5-1,53.1-0.4,79.5-3.1c16.7-1.7,33.5-2.4,50.3-3.7c2.2-0.2,4.4-0.7,6.6-0.9c11.5-0.9,22.9-1.8,34.3-2.7c0.4,0,0.9,0.3,1.3,0.4
			c0.8,1.9-0.2,3.3-1.3,4.6c-6.1,7.1-12.1,14.1-18.1,21.2c-7.5,8.8-13.8,18.4-19.6,28.3c-1.1,1.8-2.1,3.6-2.9,5.5
			c-3.5,7.3-5.6,15-5,23.5c0.1,0.8-0.5,1.7-0.8,2.4c-3.1,3.9-6.2,7.7-9,11.6c-1.8,2.5-3.4,5.2-4.7,8c-1.8,3.9-2.4,7.8-0.3,11
			c0.7,1.1,1.7,2.1,3.1,3.1c0.6,0.4,0.9,1.5,1.6,2.8c-1.6,3.3-3.5,6.7-4.9,10.3c-1.8,4.5-3.6,9-3.3,14.1c0.3,3.5,3.8,6.6,7.3,5.9
			c2.1-0.4,4.3-1.2,6.4-1.8c5.9-1.6,12-3.1,18-4.6c0.6-0.1,1.4,0.7,2.6,1.3c-0.4,0.9-0.8,1.9-1.3,2.9c-0.3,0.6-0.5,1.2-0.8,1.8
			c-0.9,2-2.1,3.9-3,5.9c-1.4,3.3-0.1,7.2,2.6,9.6c2.7,2.4,6,3.6,9.4,4.7c3.4,1.1,6.8,1.9,10.2,2.7c13,2.8,26.2,2.8,39.5-0.3
			c23.7-5.6,46.8-13,68.8-23.5c12.3-5.9,24.7-12,37.2-17.3c26.2-11.2,50.5-25.5,73.8-41.7c10.9-7.6,21.4-15.8,31.5-24.3
			c8.4-7.1,16.6-14.5,23.5-23.3c8.5-10.8,12.8-22.7,13-35.7c0-3.3-0.3-6.8-0.8-10.2c-1.1-7.4-2.4-14.7-4-22
			c-2.6-11.7-5.7-23.3-9.4-34.7c-0.5-1.6-0.5-3.3-0.8-5.4c8.3-3.8,16-7.7,25-10c1.3,2.8,2.4,5.1,3.6,7.4c3.2,5.8,6.3,11.7,9.8,17.3
			c1.4,2.3,2.9,4.4,4.6,6.4c6.6,7.9,15.2,13.1,25.5,16.1c1.6,0.5,3.3,0.8,4.8,1.2c0.1,0,0.2,0.1,0.3,0.1c16.8,4.4,33.9,6.6,51.1,7.4
			c9.7,0.5,19.5,0,29.2,0.8c1.3,0.1,2.6,0.2,3.8,0.3c13.8,1,27.5,1,41.2,1.1c4.4,0,8.7,0.1,13.1,0.1c12.3,0.1,24.6,0.4,36.9,0.9
			c21.8,0.8,43.6,2.1,65.3,4.5c16.7,1.8,33.3,4.1,49.8,7.4c13.5,2.8,26.9,5.1,40.4,7.8c4.9,0.9,9.7,1.1,14.1-1.6
			c4.4-2.6,9.2-2.9,14.1-2.5c5.3,0.4,10.6,1.1,15.8,1.4c7.1,0.5,14.1,1,21.2,1.3c2.2,0.1,4.4-0.2,6.6-0.8
			c7.9-2.3,10.2-10.6,7.9-15.7c-1.8-4.1-3.9-8-6.9-11.2c-4-4.1-7.9-8.4-12.4-12c-22.8-17.6-46.9-33.2-73.8-44.1
			c-5.7-2.3-11.5-4.5-17.2-6.7c-7.9-2.9-15.8-5.8-23.8-8.5c-7.9-2.7-15.9-5.3-23.9-7.9c-4.1-1.3-8.1-2.5-12.3-3.7
			c-15-4.2-30.4-7.4-45.8-9.5C1836.7,1994.5,1827.1,1992.7,1817.5,1990.8z M1630.7,1001.8c0.1-0.4,0.9-0.2,0.8,0.2l2.2,1.5v0.9
			c0.1,0.3,0.1,0.5,0,0.8v-0.8c-0.1-0.6-0.6-1.2-1.3-1.4c-0.4-0.1-0.8-0.1-1.1-0.3C1630.9,1002.6,1630.5,1002.2,1630.7,1001.8z"/>
		<path class="st17" d="M1633.6,1004.4v0.8C1633.6,1004.8,1633.6,1004.6,1633.6,1004.4z"/>
		<path class="st17" d="M1631.2,1002.7c0.4,0.1,0.8,0.2,1.1,0.3c0.7,0.2,1.1,0.8,1.3,1.4v-0.9l-2.2-1.5c0.1-0.4-0.6-0.6-0.8-0.2
			C1630.4,1002.2,1630.9,1002.6,1631.2,1002.7z"/>
		<polygon points="1024.6,1184.7 1072.6,1101.5 1024.6,1018.4 928.5,1018.4 880.4,1101.5 928.5,1184.7 		"/>
		<polygon class="st18" points="1024.6,1184.7 1072.6,1101.5 1024.6,1018.4 928.5,1018.4 880.4,1101.5 928.5,1184.7 		"/>
		<polygon points="907.4,1282.1 844,1282.1 812.4,1336.9 826.1,1360.8 921.2,1306 		"/>
		<polygon class="st19" points="907.4,1282.1 844,1282.1 812.4,1336.9 826.1,1360.8 921.2,1306 		"/>
		<path d="M844,1391.8h63.4l31.7-54.9l-3.3-5.6c-31.7,18.3-63.4,36.6-95.1,54.9L844,1391.8z"/>
		<path class="st19" d="M844,1391.8h63.4l31.7-54.9l-3.3-5.6c-31.7,18.3-63.4,36.6-95.1,54.9L844,1391.8z"/>
		<path class="st2" d="M826.1,1360.8l14.6,25.4c31.7-18.3,63.4-36.6,95.1-54.9l-14.6-25.4L826.1,1360.8z"/>
		<path class="st19" d="M826.1,1360.8l14.6,25.4c31.7-18.3,63.4-36.6,95.1-54.9l-14.6-25.4L826.1,1360.8z"/>
		<path d="M355.9,1539.6H285l-35.4,61.4l35.4,61.4h18.9c26-15,52-30,78-45.1l9.4-16.3L355.9,1539.6z"/>
		<path class="st20" d="M355.9,1539.6H285l-35.4,61.4l35.4,61.4h18.9c26-15,52-30,78-45.1l9.4-16.3L355.9,1539.6z"/>
		<path class="st2" d="M355.9,1662.4l26-45.1c-26,15-52,30-78,45.1H355.9z"/>
		<path class="st20" d="M355.9,1662.4l26-45.1c-26,15-52,30-78,45.1H355.9z"/>
		<polygon points="164.1,1834.3 144.1,1869 204,1834.3 		"/>
		<polygon class="st21" points="164.1,1834.3 144.1,1869 204,1834.3 		"/>
		<path d="M225.4,1857.3l-65.6,37.9c-2.1,1.3-4.3,2.4-6.4,3.7l10.7,18.6h46.8c0.6-0.3,1.1-0.7,1.7-1l23.4-40.6L225.4,1857.3z"/>
		<path class="st21" d="M225.4,1857.3l-65.6,37.9c-2.1,1.3-4.3,2.4-6.4,3.7l10.7,18.6h46.8c0.6-0.3,1.1-0.7,1.7-1l23.4-40.6
			L225.4,1857.3z"/>
		<path class="st1" d="M212.1,1917.4l0.6-1c-0.6,0.3-1.1,0.7-1.7,1H212.1z"/>
		<path class="st21" d="M212.1,1917.4l0.6-1c-0.6,0.3-1.1,0.7-1.7,1H212.1z"/>
		<path class="st2" d="M225.4,1857.3l-1.2-2.1l-71.9,41.6l1.2,2c2.1-1.3,4.3-2.4,6.4-3.7L225.4,1857.3z"/>
		<path class="st21" d="M225.4,1857.3l-1.2-2.1l-71.9,41.6l1.2,2c2.1-1.3,4.3-2.4,6.4-3.7L225.4,1857.3z"/>
		<polygon points="212.1,1834.3 204,1834.3 144.1,1869 140.1,1875.9 144.2,1883.1 216.2,1841.5 		"/>
		<polygon class="st14" points="212.1,1834.3 204,1834.3 144.1,1869 140.1,1875.9 144.2,1883.1 216.2,1841.5 		"/>
		<polygon class="st21" points="212.1,1834.3 204,1834.3 144.1,1869 140.1,1875.9 144.2,1883.1 216.2,1841.5 		"/>
		<polygon class="st2" points="216.2,1841.5 144.2,1883.1 152.2,1896.8 224.2,1855.2 		"/>
		<polygon class="st14" points="216.2,1841.5 144.2,1883.1 152.2,1896.8 224.2,1855.2 		"/>
		<polygon class="st21" points="216.2,1841.5 144.2,1883.1 152.2,1896.8 224.2,1855.2 		"/>
		<path d="M2280.5,1707h27.7l84.5-48.9l13.8-23.8l-7.8-13.6c-42,24.2-84,48.5-126,72.7L2280.5,1707z"/>
		<path class="st22" d="M2280.5,1707h27.7l84.5-48.9l13.8-23.8l-7.8-13.6c-42,24.2-84,48.5-126,72.7L2280.5,1707z"/>
		<path class="st1" d="M2272.6,1693.4c42-24.2,84-48.5,126-72.7l-22.7-39.4l-125.9,72.8L2272.6,1693.4z"/>
		<path class="st22" d="M2272.6,1693.4c42-24.2,84-48.5,126-72.7l-22.7-39.4l-125.9,72.8L2272.6,1693.4z"/>
		<polygon class="st1" points="2280.5,1561.5 2254.5,1606.4 2332.2,1561.5 		"/>
		<polygon class="st22" points="2280.5,1561.5 2254.5,1606.4 2332.2,1561.5 		"/>
		<polygon class="st5" points="2250,1654.1 2375.9,1581.3 2364.5,1561.5 2332.2,1561.5 2254.5,1606.4 2238.4,1634.2 		"/>
		<polygon class="st22" points="2250,1654.1 2375.9,1581.3 2364.5,1561.5 2332.2,1561.5 2254.5,1606.4 2238.4,1634.2 		"/>
		<polygon points="2364.5,1707 2392.7,1658 2308.2,1707 		"/>
		<polygon class="st7" points="2364.5,1707 2392.7,1658 2308.2,1707 		"/>
		<polygon class="st22" points="2364.5,1707 2392.7,1658 2308.2,1707 		"/>
		<polygon points="1378.5,2599.1 1465,2599.1 1508.2,2524.3 1500.1,2510.2 1370.4,2585 		"/>
		<polygon class="st23" points="1378.5,2599.1 1465,2599.1 1508.2,2524.3 1500.1,2510.2 1370.4,2585 		"/>
		<polygon class="st8" points="1378.5,2449.4 1335.3,2524.3 1370.4,2585 1500.1,2510.2 1465,2449.4 		"/>
		<polygon class="st23" points="1378.5,2449.4 1335.3,2524.3 1370.4,2585 1500.1,2510.2 1465,2449.4 		"/>
		<polygon class="st1" points="2136.1,1530.8 2161.8,1486.2 2147.1,1460.7 2070,1505.4 2084.7,1530.8 		"/>
		<polygon class="st24" points="2136.1,1530.8 2161.8,1486.2 2147.1,1460.7 2070,1505.4 2084.7,1530.8 		"/>
		<polygon class="st1" points="2136.1,1441.6 2084.7,1441.6 2058.9,1486.2 2070,1505.4 2147.1,1460.7 		"/>
		<polygon class="st4" points="2136.1,1441.6 2084.7,1441.6 2058.9,1486.2 2070,1505.4 2147.1,1460.7 		"/>
		<polygon class="st24" points="2136.1,1441.6 2084.7,1441.6 2058.9,1486.2 2070,1505.4 2147.1,1460.7 		"/>
		<path class="st25" d="M1652.6,917.6c25.3,4.9,50.8,9,76.7,10.1c14.3,0.6,28.5,0.4,42.6-0.4c10.7-0.6,21.4-1.4,32.1-2.4
			c10-0.9,19.8-2,29.8-3.1c1.7-0.2,3.3-0.4,5-0.6c3.3-0.4,6.5-0.7,9.8-1.1c20-2.1,40-3.9,60.1-4.8c2.7-0.1,5.4-0.1,8.1-0.5
			c8-1.1,11.1-4.3,11.4-12.2c0.3-9.1-1-17.8-4.2-26.1c-0.5-1.3-1-2.5-1.6-3.8c-1.3-2.9-2.9-5.6-4.7-8.4c-0.9-1.3-1.8-2.6-2.8-3.6
			c-3.4-3.7-7.7-5.6-13.7-5.8c-1.4,0-2.9,0-4.4,0c-14.6,0.1-29.3,1.5-43.7,4.3c-40.2,7.8-80.7,12.6-121.6,12.6c-2.6,0-5.2,0-7.8-0.1
			c-14.8-0.2-29.5-1.4-44.1-3.9c-11.9-2-23.7-4.8-35.3-8.4c-20.5-6.4-40.4-14.8-59.8-24c-11.3-5.4-22.6-10.8-34-16
			c-3.2-1.4-6.9-3.4-10.1-2.9c-7.3,1-12.8-2.1-18.9-5.1c-3.9-1.9-8.6-2.1-12.8-3.3c-1.7-0.5-3.2-1.7-7.3-3.9
			c12.7-0.6,22.4-1.8,31.2-7.3c9.5,6,19,3.5,28.5,0.4c5.9-2,11.9-3.9,17.8-6c40.8-15,83.2-21,126.5-21.6c38.3-0.6,75.9,4.9,113,14
			c1.6,0.4,3.3,0.8,4.9,1.2c13.4,3.4,26.7,7,40.1,10.8c10.5,2.9,21,5.9,31.5,8.8c7.3,2,14.5,4.8,23,4.3c9.4-9.6,15.1-21.6,18.2-34.9
			c0.7-3.1,1-6.2,0.9-9.3c-0.2-4.3-1.3-7.3-3.7-9.3c-1.6-1.3-3.7-2.3-6.4-2.8c-7.9-1.6-16-2.5-23.8-4.3c-3.8-0.9-7.6-1.8-11.5-2.7
			c-33.7-7.8-67.3-15.6-100.9-23.6c-19.7-4.6-39.4-8.3-59.6-9.6c-32.8-2.2-65.4-0.4-97.8,4.2c-23.5,3.4-46.6,8.6-69.9,13.1
			c-17.4,3.4-34.7,3.2-51.8-2.1c-1.3-0.4-2.5-0.9-3.8-1.2c-9-1.9-13.3,0.3-17.1,8.6c-1,2.3-2,4.6-2.9,6.8c-5.3-0.6-9.8-1-14.2-1.5
			c-5.6-0.6-6.3,5.6-10.6,7.6l-14.5-1.7c-0.7-3.8-1.4-7.1-2.1-11c-3-0.4-5.6-0.9-8.2-1.2c-43.7-4.3-87.3-8.6-131-12.9
			c-12-1.2-24.1-2.4-36.1-3.3c-2.4-0.2-5,0.7-7.9,1.1c-1.1,15.8-3.3,30.8-3.4,45.9c13.8,3.3,21.4,3.7,30.8,2c1-4.6,2.1-9.2,3.1-13.6
			c11.8-0.8,106.5,8.4,120.3,11.6v16c6.8,1.6,13.1,1.3,19.1,2.2c2.4,0.4,4.8,1.6,6.9,2.3c0.5,17.7-0.8,28.8-4.2,38.1h-24.8
			c-0.9,5.3-1.8,10-2.8,14.8c-4.3,0-7.8,0.2-11.3-0.1c-8-0.6-16.1-1.4-24.1-2c-25-2.1-50-4.1-75-6.3c-3.8-0.3-8.1,0.4-11.2-3.7V813
			c-10.3-1.6-20.2-3.2-31.2-2.1c-0.9,15-3.4,29-2.9,43.4c0,0.7,1,1.4,1.8,2.4c1.9,0.3,4.1,0.7,6.3,0.9c45,4.3,90.1,8.6,135,12.9
			c12.5,1.2,25,2.3,37.5,3.3c1.2,0.1,2.4-0.7,3.6-1c1.1-4,2.1-7.8,3-11.5l16.1-1.9c5.1,10.6,15.8,4.7,24.1,7.9
			c0.5,2.2,0.9,4.4,1.4,6.6c2.5,9.2,6.8,12.6,16.2,12.8c3.6,0.1,7.1-0.3,10.6-1c15.8-3.4,31.2-1.5,46.4,3c8.1,2.4,16.2,5.1,24.2,8.1
			c10.8,4,21.6,7.8,32.5,11.2c10.4,3.2,20.9,6,31.7,8.1C1646.1,916.3,1649.4,917,1652.6,917.6z"/>
		<path d="M779.9,546.9l120.3-66.1c9.2-5,18.3-5.9,27.3-2.5c9.1,3.4,14.8,11.5,17.1,24.2l13.1,70.5c2.9,16,1.5,29.1-4.4,39.4
			c-4.5,7.9-12.8,15.1-24.7,21.7l-84.8,46.6l5.6,30.4l332.8-192.1l-4.1-22.1l-85.2,46.8c-12.8,7-22.4,9.4-28.8,7.1
			s-11-10.9-13.7-25.7l-21.3-115.3l35.4-19.4l20.8,112.4l85.2-46.8l-20.8-112.4l35.5-19.5l32.4,174.5l413.7-238.8l-5.4-9.3
			l-225.5-130.2L984,360.8c28.5,153.6,42.1,227.1,40.8,220.5L988.9,601l-40.7-219.6L632.1,564l39.2,211.6l-119.8,65.9
			c-9.2,5.1-18,6.1-26.5,3.2c-9.6-3.7-15.5-11.6-17.8-24l-13.2-71.5c-2.9-16.1-1.8-29,3.6-38.6c4.2-8,12.1-15.2,23.8-21.7l86-47.3
			l-10.6-57.3L34.4,909v272.7l779.7-450.1L779.9,546.9z M1344.2,236.8c13.1-7.2,22.6-9.8,28.7-7.8c7.3,2.3,12.3,11,15.1,25.8
			l2.3,12.3l-36.7,20.2l-1.9-10l-84,46.2l20.9,112.8l-36.3,20l-28.5-153.8L1344.2,236.8z M730,731.9c-9.3-3.8-15.1-11.9-17.3-24.2
			l-13.3-71.5l-19.1,10.5l-7.6-41l19.1-10.5l-10.1-54.6l35.5-19.5l10.1,54.6l18.3-10.1l7.6,41l-18.3,10.1l13.2,71.5l18.3-10.1
			l7.6,40.9l-18.3,10.1C746.8,734.1,738.3,735,730,731.9z"/>
		<polygon points="921,593.2 907.9,522.7 823.1,569.3 836.2,639.8 		"/>
		<polygon points="530.6,729 543.8,800.5 628.2,754.1 615,682.7 		"/>
		<polygon class="st26" points="814.1,731.6 34.4,1181.7 34.4,1205.3 818.1,753 		"/>
		<polygon class="st26" points="1631.2,259.9 1217.5,498.8 1221.4,520 1656.9,268.6 1636.5,256.8 		"/>
		<polygon class="st26" points="1182.2,519.1 849.4,711.3 853.4,732.6 1186.2,540.4 		"/>
		<polygon class="st26" points="1727.9,309.6 34.4,1287.3 34.4,1328.7 1763.8,330.3 		"/>
		<path class="st27" d="M1827.1,953c-24.4,4.7-45.1,16-61.3,35.2c-2.3,2.7-4.4,6.2-7.4,7.5c-15.5,6.9-30.9,8.3-46.2,3.1
			c-1.6-0.5-3.1-1.1-4.6-1.8c-1.8-0.8-3.7-1.7-5.5-2.7c-1.1-0.5-2.3-0.9-3.4-1.1c-0.3,1.3-0.9,2.6-0.7,3.9c0.2,1.7,0.5,3.4,0.9,4.9
			c0.4,1.3,0.8,2.5,1.3,3.8c1.9,4.8,4.8,9,8.1,13.1c5.8,7,12,13.5,19.3,18.7c3,2.1,6.2,4,9.6,5.6c2.9,1.3,3.3,3,3.2,5.9
			c-0.2,6.6-0.6,13.3,0.3,19.7c2.9,21.4,10.3,40.8,25.7,56.8c8.4,8.7,17.3,16.5,28.1,22.3c6.2,3.3,12.6,6.1,19.3,8.2
			c10.1,3.2,20.5,4.9,31.1,5.2c23.8,0.8,45.2-6.9,64.8-20.1c11.2-7.5,19.9-17.7,27.3-28.7c7.4-11.1,12.3-23.3,14.6-36.1
			c1.2-6.2,1.8-12.5,1.9-19c0-1.4,0.1-2.8,0-4.1c-0.1-1.5-0.3-3-0.4-4.5c-1.6-19.3-7.1-37-19-52.6c-8.4-11.1-17.8-20.8-29.8-28.2
			c-10.2-6.3-20.7-10.9-31.5-13.7C1858.3,950.5,1843.1,950,1827.1,953z"/>
		<path class="st28" d="M586.4,527.9l10.5,56.4l10.6,57.3l-86,47.3c-11.7,6.4-19.7,13.6-23.8,21.7c-5.4,9.6-6.6,22.5-3.6,38.6
			l13.2,71.5c2.3,12.3,8.2,20.3,17.8,24c8.5,2.9,17.3,1.9,26.5-3.2l119.8-65.9L632.1,564l-10.3-55.6L586.4,527.9z M628.2,754.1
			l-84.4,46.4L530.6,729l84.4-46.4L628.2,754.1z"/>
		<path class="st28" d="M766.5,678.2l-18.3,10.1l-13.2-71.5l18.3-10.1l-7.6-41l-18.3,10.1l-10.1-54.6l-35.5,19.5l10.1,54.6
			l-19.1,10.5l7.6,41l19.1-10.5l13.3,71.5c2.3,12.3,8.1,20.4,17.3,24.2c8.3,3.1,16.8,2.1,25.7-2.7l18.3-10.1L766.5,678.2z"/>
		<path class="st28" d="M849.4,711.3l-5.6-30.4l84.8-46.6c12-6.6,20.2-13.8,24.7-21.7c5.9-10.3,7.3-23.5,4.4-39.4l-13-70.6
			c-2.4-12.8-8.1-20.8-17.1-24.2c-9.1-3.4-18.1-2.5-27.3,2.5l-120.3,66.1L814,731.6l3.9,21.3l7.1,38.4l35.5-19.5l-7.3-39.3
			L849.4,711.3z M823.1,569.3l84.8-46.6l13.1,70.5l-84.8,46.6L823.1,569.3z"/>
		<path class="st28" d="M939.5,334.3l8.7,47.1L988.9,601l35.9-19.7c1.3,6.6-12.4-66.8-40.8-220.5c-2.7-14.7-5.6-30.1-8.6-46.2
			L939.5,334.3z"/>
		<path class="st28" d="M1217.5,498.8l-32.4-174.6l-35.5,19.5l20.8,112.4l-85.2,46.8l-20.8-112.4L1029,410l21.3,115.3
			c2.8,14.8,7.3,23.4,13.7,25.7c6.4,2.3,16-0.1,28.8-7.1l85.2-46.8l4.1,22.1l3.9,21.3l1.1,5.8l-73,40.1l6.5,42.6l74.2-40.8
			c14-7.6,22.8-17,26.5-28.1c3.3-8.8,3.7-19.9,1.2-33.2l-1.3-6.6L1217.5,498.8z"/>
		<path class="st28" d="M1252.3,456.3l36.3-20l-20.9-112.8l84-46.2l1.9,10l36.7-20.2l-2.3-12.3c-2.8-14.9-7.8-23.5-15.1-25.8
			c-6.1-2-15.6,0.6-28.7,7.8l-120.4,65.6L1252.3,456.3z"/>
		<polygon points="1643.2,479 1663.3,513.8 1703.4,513.8 1723.5,479 1703.4,444.3 1698.9,444.3 1645.4,475.2 		"/>
		<polygon class="st29" points="1643.2,479 1663.3,513.8 1703.4,513.8 1723.5,479 1703.4,444.3 1698.9,444.3 1645.4,475.2 		"/>
		<polygon points="1645.4,475.2 1698.9,444.3 1663.3,444.3 		"/>
		<polygon class="st10" points="1645.4,475.2 1698.9,444.3 1663.3,444.3 		"/>
		<polygon class="st29" points="1645.4,475.2 1698.9,444.3 1663.3,444.3 		"/>
	</g>
	<g>
		<path class="st26" d="M1260.5,2911L0,2183.2V727.7L1260.5,0L2521,727.7v1455.5l-17.2,9.9L1260.5,2911z M68.8,2143.5l1191.7,688
			l1191.7-688v-1376l-1191.7-688L68.8,767.5V2143.5z"/>
	</g>
</g>
</svg>
