<svg id="Layer_15" data-name="Layer 15" xmlns="http://www.w3.org/2000/svg" xmlns:xlink="http://www.w3.org/1999/xlink" viewBox="0 0 7669.92 5987.4"><defs><style>.cls-1,.cls-36{fill:none;}.cls-1{stroke:#4d4d4d;stroke-miterlimit:10;stroke-width:110px;}.cls-2{clip-path:url(#clip-path);}.cls-3{fill:#3e3e3e;}.cls-4{fill:#454545;}.cls-5{fill:#3f3f3f;}.cls-6{fill:#939393;}.cls-7{fill:#a4a4a4;}.cls-8{fill:#a8a8a8;}.cls-9{fill:#949494;}.cls-10{fill:#999;}.cls-11{fill:#979797;}.cls-12{fill:#6eb204;}.cls-12,.cls-22,.cls-28,.cls-31{opacity:0.7;}.cls-13{fill:#007f7c;}.cls-14{fill:#fbb03b;}.cls-15{fill:#93278f;}.cls-15,.cls-18,.cls-26,.cls-32{opacity:0.8;}.cls-16{fill:#a5005e;}.cls-17{fill:#003aa0;}.cls-17,.cls-23{opacity:0.9;}.cls-18{fill:#7632f9;}.cls-19{fill:#af0287;}.cls-20{fill:#ff7300;}.cls-21{fill:#0092ff;}.cls-22{fill:#9c34f7;}.cls-23{fill:#e26100;}.cls-24{fill:#01ffa7;}.cls-25{fill:#17fc9e;}.cls-26{fill:#6e9b00;}.cls-27{fill:#afc100;}.cls-27,.cls-29,.cls-30,.cls-39{opacity:0.6;}.cls-28{fill:#00896f;}.cls-29{fill:#d3b400;}.cls-30{fill:#ef266f;}.cls-31{fill:#2974ed;}.cls-32{fill:#edc729;}.cls-33{fill:#83d600;}.cls-34{fill:#ffc00c;}.cls-35{fill:#4d4d4d;}.cls-37{opacity:0.5;}.cls-38{fill:#fe33fe;}.cls-39{fill:#f15a24;}</style><clipPath id="clip-path" transform="translate(2383.91 600.88)"><polygon class="cls-1" points="59.15 1197.62 59.15 3459.94 2018.38 4591.1 3977.61 3459.94 3977.61 1197.62 2018.38 66.46 59.15 1197.62"/></clipPath></defs><g class="cls-2"><rect x="1812.79" width="5305.13" height="5305.13"/><path class="cls-3" d="M4741.94,1374V2071.5c-4.06,1.88-8.28,3.47-12.14,5.69q-76.5,44.07-152.92,88.31Q3823,2600.74,3069.15,3036q-676.43,390.51-1352.87,781Q1034,4210.87,351.7,4604.84q-88.21,50.94-176.19,102.28c-7.54.17-15.08.5-22.62.5q-355.18,0-710.38-.05c-.37-4.48-1-9-1-13.45q0-129.44.21-258.88c6.45-3.91,12.81-7.95,19.34-11.72q502.83-290.33,1005.68-580.6,864.54-499.11,1729.06-998.25,1259.53-727.18,2519.06-1454.41C4723.94,1385,4732.9,1379.41,4741.94,1374Z" transform="translate(2383.91 600.88)"/><path class="cls-3" d="M4741.94,540.55V785.14a10.3,10.3,0,0,0-2.16.7c-207.36,120.81-414.36,242.26-622.13,362.37Q3075.8,1750.49,2033.5,2352,748.18,3094.05-537.26,3835.9c-6.53,3.76-13.26,7.16-19.9,10.73-.42-3.73-1.2-7.46-1.21-11.19q-.17-114.92-.19-229.84c0-7.63.89-15,5.32-21.51Q-120,3333.75,313.16,3083.3q601.92-349.82,1203-701.06,399.25-232.22,799.46-462.77,361.82-208.74,724.35-416.24c258.76-148,518.21-294.8,777-442.76,218.82-125.12,437-251.27,655.71-376.65,34.69-19.89,69.38-40.2,105.75-56.56,28.33-12.75,55.18-27.75,82.2-42.69,22.46-12.42,44.61-25.37,67-37.88C4732.15,544.17,4737.16,542.57,4741.94,540.55Z" transform="translate(2383.91 600.88)"/><path class="cls-3" d="M4741.94,3534.52V4146c-7.67,4.79-15.19,9.84-23,14.35q-370.47,214-741,427.89-102.9,59.43-205.62,119.16c-12.07.09-24.14.24-36.2.24H2751.68c-7.54,0-15.12.37-22.62-.24-5.13-.41-10.14-2.22-15.21-3.4q218.46-126.09,436.92-252.17,787.58-454.67,1575.16-909.32C4731.08,3539.54,4736.59,3537.17,4741.94,3534.52Z" transform="translate(2383.91 600.88)"/><path class="cls-3" d="M-556.54,1977.38q169.66-97.79,339.32-195.58Q641.56,1286,1500.3,790.19L3270.75-232q250-144.33,500-288.6c17.06-9.84,33.79-20.11,47.23-34.73,11.2-12.19,22.55-24.41,27.13-41h262.71c-3.36,7.69-11.31,9.52-17.59,13.17q-105.69,61.38-211.64,122.34-957.45,553-1914.92,1106-1108.44,640.08-2217,1280-150,86.58-299.84,173.27c-6.39-5.71-5.5-13.46-5.54-20.79-.12-26.78-.18-53.55.06-80.33C-558.55,1990.65-557.26,1984-556.54,1977.38Z" transform="translate(2383.91 600.88)"/><path class="cls-4" d="M435.42,4703.9l1095.89-632.67q780.26-450.45,1560.51-900.91,811.62-468.57,1623.21-937.2c9.14-5.27,17.95-11.1,26.91-16.67V2307c-6.72,3.21-13.69,6-20.13,9.71q-393.2,226.89-786.3,453.94-779.43,450-1558.87,900Q1598.2,4120.1,819.77,4569.57,704.09,4636.35,588.34,4703c-8.74,1.53-17.47,4.26-26.24,4.38-35.75.51-71.51.42-107.26.07C448.36,4707.43,441.89,4705.15,435.42,4703.9Z" transform="translate(2383.91 600.88)"/><path class="cls-3" d="M2259.68,4703q237.15-137,474.32-273.89,641.45-369.2,1283.11-738,349.37-200.62,699.54-399.81c8.51-4.86,16.86-10,25.29-15v126.83c-6,2.84-12.33,5.25-18.07,8.6q-311.79,181.74-623.54,363.58-706.51,409.92-1413.45,819.14Q2589,4651.21,2491.17,4708c-9-.12-18.06-.33-27.09-.33-59.45,0-118.9.06-178.36-.11C2276.88,4707.55,2267.5,4709.4,2259.68,4703Z" transform="translate(2383.91 600.88)"/><path class="cls-4" d="M4741.94,259.72c-4,1.89-8.27,3.5-12.13,5.72Q3786.38,810.09,2843,1354.84c-5.85,3.38-11.35,7.35-17,11.05-7.33,3.81-14.83,7.35-22,11.48q-1396,805.89-2792,1611.87Q-260.44,3146.58-533,3303.82c-7.72,4.46-14.91,10.24-25.5,12.15-1.45-3.28-3.28-6.35-4.15-9.68-.76-2.85-.55-6-.55-9-.07-33.3-.69-29.55,24.94-44.36q924.41-533.76,1848.83-1067.5L3763.29,769.35q483.28-279,966.58-558.06c3.87-2.23,8-4,12.07-5.92Z" transform="translate(2383.91 600.88)"/><path class="cls-3" d="M4741.94,4259.23v371.42l-132.4,76.29c-11.31.24-22.61.68-33.92.68q-284,.06-568,0c-7.54,0-15.13.31-22.61-.38-4.31-.4-8.47-2.52-12.69-3.87q209.5-121,419-242Q4566.6,4360.21,4741.94,4259.23Z" transform="translate(2383.91 600.88)"/><path class="cls-3" d="M4741.94,3099.69c-29.32,17.13-58.55,34.4-87.95,51.37q-1339.27,773.3-2678.57,1546.55c-5.22,3-10.31,6.24-15.47,9.37-17.15.24-34.31.86-51.45.52-6.47-.12-12.9-2.47-19.35-3.8q909.57-525.14,1819.13-1050.27,505.75-292,1011.57-583.87c7.06-4.08,14.71-7.11,22.09-10.63Z" transform="translate(2383.91 600.88)"/><path class="cls-5" d="M2807.82,1988.94c9.31-4.93,18.78-9.57,27.89-14.83q776.42-448.17,1552.79-896.43,166.64-96.23,333.31-192.39c6.42-3.7,13.41-6.4,20.13-9.56v22.64c-6,2.9-12.31,5.41-18.1,8.76q-690.3,398.45-1380.54,797Q2119.66,2410.62,896,3117.07q-712.83,411.53-1425.66,823c-9,5.19-17.49,11.66-27.7,14.24-6.12-10.22-6.53-15.23-.62-19.75s12.61-8.26,19.13-12Q-293.78,3781-48.66,3639.43L2253.54,2310.3q265.73-153.4,531.39-306.88C2792.74,1998.9,2800.2,1993.78,2807.82,1988.94Z" transform="translate(2383.91 600.88)"/><path class="cls-6" d="M3772.32,4707.4c.1,1.6.21,3.19.31,4.78H2708.21l5.64-8.17c5.07,1.18,10.08,3,15.21,3.4,7.5.61,15.08.24,22.62.24h984.44C3748.18,4707.64,3760.25,4707.49,3772.32,4707.4Z" transform="translate(2383.91 600.88)"/><path class="cls-6" d="M175.51,4707.12c.24,1.69.49,3.37.73,5.06H-557.53l0-4.61q355.19,0,710.38.05C160.43,4707.62,168,4707.29,175.51,4707.12Z" transform="translate(2383.91 600.88)"/><path class="cls-6" d="M4609.54,4706.94c.35,1.75.7,3.49,1,5.24H3967.4c0-3.85.66-7.32,4.92-8.79,4.22,1.35,8.38,3.47,12.69,3.87,7.48.69,15.07.38,22.61.38q284,0,568,0C4586.93,4707.62,4598.23,4707.18,4609.54,4706.94Z" transform="translate(2383.91 600.88)"/><path class="cls-7" d="M-557.49,4707.57c0,1.53,0,3.07,0,4.61h-6.8c-.75,0-2.16,0-2.17,0-.12-1.5-.09-3-.09-4.52V4435.88l8.26-.64q-.12,129.45-.21,258.88C-558.54,4698.61-557.86,4703.09-557.49,4707.57Z" transform="translate(2383.91 600.88)"/><path class="cls-7" d="M-557.16,3846.63l-9.43.42V3588.87l13.35-4.78c-4.43,6.51-5.33,13.88-5.32,21.51q.09,114.92.19,229.84C-558.36,3839.17-557.58,3842.9-557.16,3846.63Z" transform="translate(2383.91 600.88)"/><path class="cls-8" d="M-556.54,1977.38c-.72,6.64-2,13.27-2.07,19.91-.24,26.78-.18,53.55-.06,80.33,0,7.33-.85,15.08,5.54,20.79l-13.46,4.8v-122.3Z" transform="translate(2383.91 600.88)"/><path class="cls-9" d="M2491.17,4708a16.25,16.25,0,0,1-.38,4.17H2250.73c2-4,3.31-8.69,8.95-9.15,7.82,6.37,17.2,4.52,26,4.54,59.46.17,118.91.08,178.36.11C2473.11,4707.68,2482.14,4707.89,2491.17,4708Z" transform="translate(2383.91 600.88)"/><path class="cls-10" d="M435.42,4703.9c6.47,1.25,12.94,3.53,19.42,3.59,35.75.35,71.51.44,107.26-.07,8.77-.12,17.5-2.85,26.24-4.38q-2.22,4.57-4.45,9.14h-154Z" transform="translate(2383.91 600.88)"/><path class="cls-11" d="M1889.15,4703.7c6.45,1.33,12.88,3.68,19.35,3.8,17.14.34,34.3-.28,51.45-.52l.9,5.2h-77Z" transform="translate(2383.91 600.88)"/><path class="cls-4" d="M-557.82,3502.76c-6.85-10.24-6.74-18.86-3.54-26.28,2.13-4.94,8.05-8.48,12.76-12,4.2-3.15,9.06-5.41,13.63-8.05L2247.59,1849.9Q3322.18,1229.47,4396.75,609c4.58-2.64,9.06-5.53,13.88-7.63,8.35-3.63,15.57-1.36,19.64,5.57,3.78,6.43,1.7,13.77-6,19.5a119.19,119.19,0,0,1-11.59,7q-351,202.64-702,405.27L259.44,3031.39q-395.13,228.12-790.27,456.22C-539.25,3492.47-547.78,3497.13-557.82,3502.76Z" transform="translate(2383.91 600.88)"/><rect class="cls-12" x="-1117.4" y="3018.59" width="6388.04" height="97.02" transform="translate(1127.18 2052.99) rotate(-30.05)"/><rect class="cls-13" x="-882.69" y="3324.25" width="6388.04" height="62.32" transform="translate(1014.35 2209.27) rotate(-30.05)"/><rect class="cls-14" x="-1111.04" y="2879.42" width="6388.04" height="31.16" transform="translate(1214.21 2033.04) rotate(-30.05)"/><rect class="cls-15" x="-703.94" y="3435.91" width="6388.04" height="124.65" transform="translate(966.86 2317.98) rotate(-30.05)"/><polygon class="cls-16" points="5147.11 4405.96 2407.98 5987.4 2407.98 5677.54 5147.11 4096.1 5147.11 4405.96"/><polygon class="cls-17" points="2739.13 2899.27 0 4480.71 0 4170.85 2739.13 2589.41 2739.13 2899.27"/><rect class="cls-18" x="-569.25" y="1371.24" width="4149.49" height="40.48" transform="translate(1889.48 1541.78) rotate(-30.05)"/><path class="cls-19" d="M2760.54,3807l.3-309.46,52.9-30,0,21.35-33.24,18.85-.26,266.75,33.24-18.85,0,21.36Z" transform="translate(2383.91 600.88)"/><path class="cls-19" d="M2919.81,3406.42l-1.07,309.45-53,29.86.07-21.36,33.28-18.76.92-266.74-33.28,18.76.07-21.36Z" transform="translate(2383.91 600.88)"/><path class="cls-20" d="M3503.1,1666.74l0,209.8-35.84,20.36v-14.48l22.52-12.79,0-180.85-22.53,12.8V1687.1Z" transform="translate(2383.91 600.88)"/><path class="cls-20" d="M3376.44,1952.13l.21-209.8L3412.5,1722v14.48L3390,1749.26l-.18,180.84,22.53-12.77v14.47Z" transform="translate(2383.91 600.88)"/><path class="cls-21" d="M354.59,2297.28l.3-312,53.32-30.23,0,21.53-33.51,19-.26,268.92,33.51-19,0,21.53Z" transform="translate(2383.91 600.88)"/><path class="cls-21" d="M516.19,1897.72l-1.82,312-53.46,30,.12-21.53,33.6-18.84,1.57-268.91-33.6,18.83.12-21.52Z" transform="translate(2383.91 600.88)"/><rect class="cls-22" x="-357.74" y="2000.97" width="4614.09" height="45.01" transform="translate(1632.66 1848.97) rotate(-30.05)"/><polygon class="cls-23" points="5760.2 2553.1 819.33 5405.72 819.33 5196.11 5760.2 2343.5 5760.2 2553.1"/><path class="cls-24" d="M2022.24,3572.23c-1.11-2-1.47-3.63-2.48-4.35-8.6-6.16-8.37-14.11-4.49-22.55a79.21,79.21,0,0,1,7.5-12.75c4.52-6.32,9.47-12.33,14.38-18.63.36-1.12,1.27-2.49,1.17-3.78-1.25-17,4.34-32,12.71-46.26,9.31-15.88,19.3-31.27,31.32-45.27q14.51-16.89,29-33.83c1.85-2.15,3.44-4.33,2.12-7.38-.65-.26-1.32-.79-2-.74q-27.43,2.07-54.85,4.28c-3.52.29-7,1.12-10.51,1.38-26.78,2-53.63,3.21-80.34,5.9-42.29,4.27-84.72,3.4-127.08,5-63.61,2.45-127.23,2.54-190.85,2.63-43.13.06-86.27,0-129.38-1.27-31.75-.89-63.45-3.69-95.18-5.63-6.35-.39-12.71-.66-19.06-1.1-14.8-1-29.58-2.7-44.4-3-22.6-.54-45.22-.29-67.84-.12-3.44,0-6.92,1.19-10.26,2.23-.86.26-1.42,2-1.79,3.13a2.11,2.11,0,0,0,.77,1.88,47,47,0,0,0,7.36,4c66.7,25.6,131.24,55.92,195,88,42.27,21.29,85.26,41.15,127.56,62.38,24,12,47.27,25.47,70.79,38.42,11.34,6.25,20.32,15.23,27.9,25.62,4.79,6.57,2,14.27-5.7,16.91a23.4,23.4,0,0,1-14.59.53c-10.1-3.09-19.45-1.45-28.74,3-11,5.3-22.8,7.17-35,7.32-22.62.29-45.19.7-67.66-3.38-11.78-2.15-23.84-2.82-35.81-3.84a27.8,27.8,0,0,0-10.4.94c-11.16,3.46-22.54,2.77-33.65,1.12-64.41-9.56-127.67-23.79-188.51-47.64-40.11-15.72-80.51-30.72-119.4-49.43-42.66-20.52-85.54-40.57-127.08-63.34-34.75-19.05-71.35-34.19-107.41-50.46a189,189,0,0,1-38-22.82,331.69,331.69,0,0,1-70.26-73.14q-24.83-35.67-48.45-72.17c-22.43-34.81-37.44-72.83-45.76-113.34-3.4-16.59-5.1-33.5-3.94-50.59,1.58-23.25,2-46.56,6.43-69.58A281.61,281.61,0,0,1,754.18,2960c15.45-35.07,34.53-68,55.87-99.72,12.27-18.26,26.73-34.7,40.69-51.57,40.86-49.42,89.42-90.26,141.83-126.78,12.76-8.89,25.48-17.84,38.4-26.48a724,724,0,0,1,105.67-58.31c14.81-6.66,29.45-13.72,44.42-20,35.29-14.79,72.53-23.37,109.27-33.48,49.07-13.52,99-23.2,149.25-30.84,86.18-13.1,169.54-37.16,252-64.64,34.21-11.39,67.53-25.08,100.71-39.08a671.65,671.65,0,0,0,83-42.48c21.84-13,43.1-27.1,65.29-39.49,14.15-7.9,21.81-19.51,25.93-34.35,1.32-4.76,2.58-9.57,3.42-14.43A533.88,533.88,0,0,1,2005.69,2159c10-23.37,18.9-47.2,28.41-70.78,4.57-11.32,6.28-22.89,6.06-35.18-.63-34.63-.45-69.28-.61-103.92-.12-24.75-.38-49.49-.4-74.24a256.68,256.68,0,0,1,11.41-75.08c11.08-36.62,23.72-72.42,42.35-106,11.11-20,24.81-37.74,42.36-52.45,4.87-4.09,9.79-8.13,14.81-12,18.38-14.31,36.51-28.78,53.6-44.78a462.86,462.86,0,0,1,118.82-80.68c11.49-5.44,22.76-11.64,34.74-15.68s20.66-11.64,28.34-21.15q13.32-16.48,27.19-32.51a74,74,0,0,1,19.84-15.72c8.95-5.09,17.63-4.92,26,.68,17.69,11.84,34,25.24,47.31,42.08a115.83,115.83,0,0,1,19.89,37.17c3,9.42,5.73,18.89,11.2,28.09,16.74,6.75,32.59,16,47.94,26.08,33.48,22.08,61.13,50.14,84.45,82.56,7,9.72,13.82,19.68,17.28,31.38a4.42,4.42,0,0,1-1.12,3.79c-.56.49-2.84,0-3.56-.79-8.12-8.82-15.92-17.94-24.14-26.66q-11.62-12.31-24-23.92c-1.84-1.73-5-2.25-7.69-2.77-.73-.14-2.8,2-2.63,2.67a24.8,24.8,0,0,0,3.23,7.65c10,14.53,20.61,28.71,30.32,43.45a271.24,271.24,0,0,1,32.34,66.51c2.15,6.7,3.77,13.58,5.38,20.43.28,1.16-.73,2.61-1.14,3.93-1.73-1-4.24-1.46-5.05-2.92-3.42-6.17-6.2-12.69-9.45-19-20.29-39.13-45-75.13-75.88-106.75a47.22,47.22,0,0,0-6.6-5.11c-.26-.19-1.13.19-1.52.54s-1.3,1.36-1.15,1.66c2.52,5,5,10.06,7.83,14.93,15.21,26.42,27.89,54,36.08,83.4,2.45,8.78,3.7,17.93,5,27,.37,2.55-.65,5.66-5.06,6.25-7.66-29.42-20.52-56.68-37.2-82.17-9.3-14.2-18.85-28.23-31-40.21-.84-.83-2.53-.81-4.59-1.41,0,3.56-.59,7,.09,10.22,4.34,20.21,3.88,40.76,4.54,61.23.8,24.72,1.72,49.44,2.22,74.16a87.64,87.64,0,0,0,8,34.86c3.49,7.72,6.81,15.56,10.88,23,25.83,47.21,46.21,96.87,66.17,146.73a277.91,277.91,0,0,0,14,30.82c11.22,20.44,23.28,40.41,34.78,60.69,4.52,8,8.78,16.1,12.61,24.42,10.33,22.47,19.81,45.32,27.29,68.91,10.49,33,17.24,67,22.69,101.16,6.67,41.84,13.59,83.63,19.76,125.54,3.9,26.55,8.05,53.05,10.47,79.83,2.72,30.23,7.17,60.3,10.87,90.43,1.47,11.92,2.86,23.84,4.48,35.73,4.11,30.08,8.79,60.09,12.36,90.24,2.41,20.33,4.14,40.82,4.7,61.28.8,29,1.18,58,.06,86.95-1.54,39.63-6.74,78.82-20.94,116.27q-11.26,29.7-22.58,59.4c-1.74,4.61-3.29,9.3-5.09,14.4,2.59,6.41,4.9,13.1,7.91,19.45q17.7,37.35,35.81,74.5c2.78,5.71,6.08,11.17,9.11,16.76a62,62,0,0,0,38.56,31c10.17,2.94,20.36,6,30.72,8.07,16.61,3.33,33.3,6.45,50.09,8.65a542.44,542.44,0,0,1,92.82,21.05c35,11.05,69.69,23.14,103.79,36.85,43,17.28,81.48,42.17,117.92,70.39,7.21,5.59,13.45,12.49,19.82,19.1,4.92,5.12,8.21,11.32,11.13,17.88,3.69,8.28,0,21.54-12.57,25.14a33.57,33.57,0,0,1-10.46,1.21c-11.29-.45-22.58-1.17-33.85-2-8.45-.61-16.86-1.65-25.31-2.29-7.83-.61-15.47-.17-22.57,4s-14.76,4-22.64,2.46c-21.48-4.2-43-8-64.49-12.35-26.34-5.3-52.88-9-79.58-11.86-61.22-6.64-122.65-8.32-184.15-8.74-24-.17-48-.15-72-2.24-15.47-1.34-31.11-.49-46.64-1.31-27.54-1.45-54.85-4.86-81.6-11.94-2.73-.72-5.5-1.27-8.21-2.07-20.5-6-36.84-17.72-48-36.07-5.5-9-10.51-18.38-15.61-27.66-2-3.65-3.64-7.49-5.76-11.9-14.32,3.6-26.76,9.74-39.94,15.87.45,3.37.39,6.17,1.23,8.67a537.69,537.69,0,0,1,21.54,90.54c4.12,27.42-2.34,51.7-19.47,73.47-11,14-24.12,25.91-37.61,37.25-16.21,13.62-33,26.7-50.36,38.79-37.18,25.88-76.07,48.82-117.86,66.69-20.13,8.61-39.8,18.27-59.54,27.74-35.2,16.89-72.15,28.66-110,37.56-26.74,6.28-53.29,4.47-79.43-3.83-5.41-1.72-10.62-3.72-15-7.53s-6.42-10-4.25-15.3c1.33-3.25,3.22-6.27,4.76-9.44,1.19-2.46,2.22-5,3.3-7.45-1.86-1-3.2-2.29-4.16-2.06-9.61,2.29-19.16,4.81-28.71,7.31-3.4.89-6.72,2.15-10.16,2.8-5.67,1.06-11.31-3.86-11.74-9.51-.62-8.08,2.24-15.33,5.16-22.51C2016.67,3582.92,2019.73,3577.4,2022.24,3572.23Z" transform="translate(2383.91 600.88)"/><path class="cls-25" d="M2614.52,1606.51l0,2.6a3,3,0,0,0-2-3.47,18.27,18.27,0,0,1-1.82-.35c-.58-.22-1.09-.86-.85-1.43s1.39-.3,1.16.28" transform="translate(2383.91 600.88)"/><polygon class="cls-26" points="3871.77 2231.12 3795.02 2364.05 3871.77 2496.98 4025.26 2496.98 4102.01 2364.05 4025.26 2231.12 3871.77 2231.12"/><polygon class="cls-27" points="3838.07 2652.57 3736.8 2652.57 3686.17 2740.27 3736.8 2827.97 3838.07 2827.97 3888.7 2740.27 3838.07 2652.57"/><polygon class="cls-28" points="2956.76 3064.01 2843.45 3064.01 2786.8 3162.13 2843.45 3260.26 2956.76 3260.26 3013.41 3162.13 2956.76 3064.01"/><polygon class="cls-29" points="2726.98 3535.06 2650.32 3535.06 2611.99 3601.45 2650.32 3667.84 2726.98 3667.84 2765.31 3601.45 2726.98 3535.06"/><polygon class="cls-30" points="6166.35 3099.05 6032.13 3099.05 5965.02 3215.28 6032.13 3331.52 6166.35 3331.52 6233.46 3215.28 6166.35 3099.05"/><polygon class="cls-31" points="4728.99 4517.94 4590.91 4517.94 4521.88 4637.52 4590.91 4757.09 4728.99 4757.09 4798.03 4637.52 4728.99 4517.94"/><polygon class="cls-32" points="5801.49 2907.53 5719.23 2907.53 5678.09 2978.77 5719.23 3050.01 5801.49 3050.01 5842.62 2978.77 5801.49 2907.53"/><polygon class="cls-33" points="2771.87 2146.63 2705.14 2146.63 2671.77 2204.42 2705.14 2262.21 2771.87 2262.21 2805.23 2204.42 2771.87 2146.63"/><path class="cls-34" d="M2368.81,1388.29c-13.2-5.1-30.41,4.46-38.54-12.58l-25.71,3.1c-1.58,6-3.16,12-4.84,18.37-1.88.56-3.86,1.78-5.74,1.63q-30-2.43-59.86-5.24-107.91-10.21-215.81-20.57c-3.53-.34-7-1-10.11-1.4-1.25-1.58-2.83-2.65-2.87-3.78-.78-22.89,3.19-45.36,4.6-69.34,17.72-1.77,33.5.73,49.89,3.37v21.68c4.87,6.57,11.79,5.39,17.89,5.92,39.91,3.49,79.85,6.73,119.78,10.07,12.83,1.08,25.65,2.35,38.5,3.25,5.6.39,11.26.07,18.14.07,1.43-7.8,2.8-15.27,4.35-23.7h39.67c5.51-14.83,7.44-32.61,6.67-60.93-3.39-1.16-7.13-3.06-11.06-3.67-9.72-1.5-19.74-1-30.62-3.48v-25.62c-22-5.21-173.37-19.85-192.2-18.59-1.6,7.08-3.27,14.51-4.91,21.81-15,2.77-27.22,2-49.21-3.16.28-24.09,3.67-48.08,5.46-73.28,4.69-.7,8.76-2.07,12.69-1.76,19.25,1.52,38.48,3.41,57.71,5.3Q2197.35,1166,2302,1176.34c4.18.41,8.31,1.19,13.09,1.89,1.17,6.14,2.19,11.51,3.32,17.48l23.19,2.74c6.85-3.22,8-13.26,17-12.25,7.07.79,14.16,1.52,22.68,2.43,1.49-3.52,3-7.24,4.64-10.9,6.06-13.35,12.92-16.8,27.35-13.72,2.09.44,4.09,1.3,6.14,1.94,27.28,8.46,54.89,8.69,82.74,3.32,37.21-7.17,74.24-15.65,111.72-21,51.74-7.45,103.89-10.24,156.26-6.74,32.27,2.16,63.81,8,95.18,15.42q89.79,21.18,179.65,42c12.53,2.89,25.39,4.29,38,6.88,11.07,2.28,15.77,8,16.22,19.35a56.4,56.4,0,0,1-1.37,14.88c-4.94,21.21-14,40.26-29.1,55.66-13.58.69-25-3.7-36.69-6.88-40.7-11.09-81.12-23.28-122.08-33.24-59.24-14.4-119.37-23.16-180.57-22.29-69.16,1-136.87,10.45-202.11,34.46-9.39,3.45-19,6.47-28.44,9.63-15.19,5-30.4,9.05-45.59-.6-14.11,8.82-29.64,10.53-49.92,11.57,6.62,3.6,9,5.48,11.72,6.25,6.77,1.93,14.27,2.18,20.42,5.24,9.68,4.8,18.55,9.79,30.23,8.14,5.09-.72,11.06,2.35,16.19,4.69,18.21,8.3,36.26,17,54.33,25.61,31,14.79,62.68,28.1,95.47,38.36,41.22,12.9,83.55,19.17,126.78,19.72,69.7.89,138.53-6.87,206.84-20.18a366,366,0,0,1,76.8-6.86c12.31.22,20,5.31,26.37,14.94,12.35,18.59,17.39,39.1,16.73,61.09-.39,12.75-5.46,17.79-18.21,19.51-4.24.57-8.56.63-12.85.81-40.05,1.67-79.87,5.7-119.71,10.12-55.44,6.14-110.94,12-167,9.59-46.67-2-92.39-10.11-138-19.2-35.16-7-69-18.5-102.57-30.92q-19.11-7.08-38.64-12.94c-24.3-7.25-48.93-10.31-74.15-4.8a75.53,75.53,0,0,1-17,1.64c-15.1-.22-21.87-5.74-25.91-20.41C2370.19,1395.3,2369.58,1391.79,2368.81,1388.29Z" transform="translate(2383.91 600.88)"/><rect x="-291.69" y="818.54" width="3012.46" height="388.16" transform="translate(2040.32 1343.82) rotate(-30)"/><rect class="cls-35" x="-753.87" y="1101.82" width="4370.02" height="32.62" transform="translate(5613.52 1971.75) rotate(150)"/><rect class="cls-35" x="-2361.63" y="1296.74" width="7500.73" height="57.39" transform="translate(5638.04 2379.81) rotate(150)"/><path class="cls-36" d="M-1109.07,785.88" transform="translate(2383.91 600.88)"/><g class="cls-37"><path class="cls-38" d="M3126.12,1692.57c-.51,31.82-8.81,61.59-26.48,88-11.8,17.62-25.77,33.86-43.65,45.89-31.28,21-65.54,33.26-103.58,32.08a178.64,178.64,0,0,1-80.64-21.42c-17.18-9.31-31.39-21.7-44.87-35.62-24.65-25.45-36.4-56.49-41-90.7-1.4-10.34-.74-21-.44-31.5.13-4.55-.58-7.25-5.15-9.36-18.91-8.71-33.13-23.1-46.28-38.87-8.58-10.29-15-21.4-16.54-34.85-.23-2,.74-4.11,1.15-6.17a30.25,30.25,0,0,1,5.5,1.79c29.6,16.13,59.77,15.7,89.94,2.3,4.79-2.12,8.2-7.68,11.83-12,25.81-30.7,58.88-48.86,97.9-56.34,44.29-8.48,85.36.14,123.66,23.86,19.07,11.8,34.16,27.31,47.62,45,19,25,27.77,53.36,30.36,84.12.2,2.4.54,4.78.67,7.18C3126.21,1688.13,3126.12,1690.35,3126.12,1692.57Z" transform="translate(2383.91 600.88)"/></g></g><polygon class="cls-1" points="2443.07 1798.5 2443.07 4060.82 4402.29 5191.98 6361.52 4060.82 6361.52 1798.5 4402.29 667.34 2443.07 1798.5"/><path class="cls-10" d="M997.82,815.41l79,426.88L885.31,1347.56q-22,12.09-42.38,5.07-22.92-8.79-28.38-38.29l-21.14-114.17q-7.12-38.54,5.81-61.68,10.08-19.15,38.11-34.56l137.47-75.56-33.66-181.8Zm-10.9,278.41-134.87,74.12,21.14,114.17L1008.06,1208Z" transform="translate(2383.91 600.88)"/><path class="cls-10" d="M1091.16,1036.53,1079,971.08l30.63-16.83L1093.51,867l56.68-31.15,16.16,87.27L1195.67,907l12.12,65.45-29.32,16.12,21.14,114.17,29.32-16.12,12.12,65.45-29.32,16.12q-21.26,11.68-41.07,4.34-22.29-9.13-27.73-38.64l-21.15-114.17Z" transform="translate(2383.91 600.88)"/><path class="cls-10" d="M1513.62,806l20.88,112.72q7.08,38.25-7,63-10.86,18.95-39.51,34.69l-135.53,74.48,26.93,145.44-56.68,31.15-72.31-390.51L1442.6,771.27q22-12.07,43.68-4T1513.62,806ZM1455,838.18l-135.53,74.48,20.88,112.72,135.52-74.48Z" transform="translate(2383.91 600.88)"/><path class="cls-10" d="M1641.74,931.84l-57.34,31.51L1505.49,537.2l57.34-31.51Q1645,949.3,1641.74,931.84Z" transform="translate(2383.91 600.88)"/><path class="cls-10" d="M1957.93,844.59q5.92,32-1.91,53.14-9,26.6-42.38,44.92l-118.59,65.17-10.43-68,116.63-64.09-14.54-78.54-136.18,74.84q-30.67,16.86-46,11.32t-21.93-41.07l-34.1-184.17L1705.16,627l33.25,179.62,136.18-74.84-33.26-179.62L1898,521Z" transform="translate(2383.91 600.88)"/><path class="cls-10" d="M2167.05,462.06l-3-16-134.22,73.77,33.39,180.34-58,31.87-45.52-245.79L2152.1,381.34q31.28-17.19,45.81-12.36,17.53,5.59,24.14,41.22l3.64,19.63Z" transform="translate(2383.91 600.88)"/><polygon class="cls-39" points="5109.98 1313.73 5045.83 1313.73 5013.75 1369.29 5045.83 1424.85 5109.98 1424.85 5142.06 1369.29 5109.98 1313.73"/><path class="cls-10" d="M2793.63,3976.72c-12.24-21.22-6.41-42.13,8.49-50.73,7.52-4.34,14.11-4.39,22.6-3l-7-10.84-14.5-25.1,11.15-6.44,55.18,95.59-9.13,5.28-5.35-7.11-.41.23c-2.23,7.91-6.73,16.24-14.38,20.66C2823.93,4004.69,2806.19,3998.46,2793.63,3976.72Zm55.2-10.75-19.69-34.1c-8.37-1.79-14.42-.8-19.79,2.3-10.48,6-13,20.92-4.38,35.82,9,15.58,21,21.18,32.41,14.59C2843.42,3981.09,2847,3975.11,2848.83,3966Z" transform="translate(2383.91 600.88)"/><path class="cls-10" d="M2881.85,3942.25,2861,3906.13l-9.67,5.59-4.8-8.33,9.82-6.56-9.2-19,9.26-5.35,10.54,18.26,17.59-10.16,5.19,9-17.59,10.15,20.93,36.25c4.65,8.06,9.84,11.15,17.36,6.81a27.75,27.75,0,0,0,6.38-6l7,7.08c-2.93,3.3-6.66,7.07-10.69,9.4C2899.11,3961.29,2889.29,3955.14,2881.85,3942.25Z" transform="translate(2383.91 600.88)"/><path class="cls-10" d="M2899.31,3872l9.13-5.27,5.28,7,.4-.23c3-8.38,7.89-16.73,15.54-21.15,16.78-9.68,33.29-1.86,45,18.42,12.79,22.15,7,42.85-7.89,51.45-6,3.49-13.71,4.16-22.46,3l6.86,11.25,12.71,22-11,6.36Zm63.94,5.33c-8.3-14.37-18.71-21.25-31.06-14.11-5.51,3.17-9.23,9.44-12.34,18.93l19.77,34.24c8.77,1.56,15.63.1,19.93-2.38C2970.29,3907.84,2972.55,3893.47,2963.25,3877.36Z" transform="translate(2383.91 600.88)"/><path class="cls-10" d="M3003.89,3881.1l-47.59-82.43,11-6.36,48.06,83.24c2,3.49,4.26,4,5.87,3a10.9,10.9,0,0,0,2.27-1.66l6.28,7.47a17.14,17.14,0,0,1-5.69,4.71C3015.77,3893.93,3009.39,3890.63,3003.89,3881.1Z" transform="translate(2383.91 600.88)"/><path class="cls-10" d="M3054.57,3905l-2.89-10a22.13,22.13,0,0,0,5.51-1.93c7.38-4.26,8.67-12.88,6.7-22.49l-1.31-5.68-63.93-50.27,11.41-6.59,34.15,28.44c5.27,4.48,11.42,9.87,16.93,14.75l.53-.31c-1.53-7-3.52-14.79-5.11-21.57l-9.17-42.86,10.74-6.2,16.2,84.8c2.88,15.53,1.82,29.2-11.33,36.8A25.13,25.13,0,0,1,3054.57,3905Z" transform="translate(2383.91 600.88)"/><path class="cls-10" d="M3070.75,3773.05l9.13-5.28,7.76,11.28.4-.24c-.3-10.74,3.39-19.85,10.77-24.12a18.7,18.7,0,0,1,7.76-2.69l3.43,10.91a21.21,21.21,0,0,0-6.93,2.57c-5.5,3.18-9.75,11-7.83,24.57l24.19,41.89-11,6.35Z" transform="translate(2383.91 600.88)"/><path class="cls-10" d="M3141.19,3810.42c-2.94-5.1-1.33-10.68,3.1-13.24s9.93-1.08,12.88,4a9.23,9.23,0,1,1-16,9.22Z" transform="translate(2383.91 600.88)"/><path class="cls-10" d="M3164.86,3778.86,3144,3742.74l-9.66,5.58-4.81-8.32,9.82-6.56-9.2-19,9.26-5.34,10.55,18.25,17.58-10.15,5.2,9-17.59,10.16,20.93,36.25c4.65,8.05,9.83,11.15,17.35,6.81a27.35,27.35,0,0,0,6.38-6l7,7.08c-2.92,3.3-6.66,7.07-10.69,9.39C3182.11,3797.89,3172.3,3791.75,3164.86,3778.86Z" transform="translate(2383.91 600.88)"/><path class="cls-10" d="M3168.44,3689.26c-2.48-4.3-.75-9.06,3.54-11.54s9.28-1.6,11.76,2.7.75,9-3.54,11.53S3170.84,3693.42,3168.44,3689.26Zm13.87,19.37,11-6.35,37.67,65.25-11,6.35Z" transform="translate(2383.91 600.88)"/><path class="cls-10" d="M3229.55,3725c-12.25-21.21-6.42-42.12,8.48-50.73,7.52-4.34,14.12-4.38,22.6-3l-7-10.83-14.49-25.11,11.14-6.43,55.19,95.59-9.13,5.27-5.36-7.11-.4.23c-2.23,7.92-6.74,16.24-14.39,20.66C3259.84,3753,3242.11,3746.79,3229.55,3725Zm55.19-10.75-19.68-34.1c-8.38-1.79-14.43-.8-19.8,2.3-10.47,6.05-13,20.92-4.38,35.83,9,15.57,21,21.17,32.41,14.58C3279.33,3729.41,3282.86,3723.44,3284.74,3714.29Z" transform="translate(2383.91 600.88)"/><path class="cls-10" d="M3336.36,3742.31l-2.89-10a22.39,22.39,0,0,0,5.51-1.93c7.39-4.26,8.67-12.88,6.71-22.49l-1.31-5.69L3280.45,3652l11.41-6.59,34.14,28.44c5.27,4.47,11.43,9.87,16.93,14.75l.54-.31c-1.53-7-3.53-14.79-5.12-21.57l-9.17-42.86,10.74-6.2,16.21,84.8c2.87,15.53,1.82,29.2-11.34,36.8A24.94,24.94,0,0,1,3336.36,3742.31Z" transform="translate(2383.91 600.88)"/><path class="cls-10" d="M3343.14,3615.78l11.41-6.59,33.75,29.92c5.6,5.36,11.55,10.7,17.12,15.71l.54-.31c-1.68-7.26-3.33-15.08-5.18-22.61l-9-44.18,10.88-6.28L3417.2,3660l-12.89,7.44Z" transform="translate(2383.91 600.88)"/><path class="cls-10" d="M3428.78,3610c-12.33-21.34-5.48-42.66,9.42-51.26,16.65-9.61,33-3.09,43.72,15.57a49,49,0,0,1,3.24,6.54l-44,25.43c8.78,13.36,22.36,17.34,34.84,10.13a34,34,0,0,0,13.3-14.48l8.08,5c-3.54,6.88-8.74,14-17.6,19.12C3462.29,3636.13,3441.1,3631.36,3428.78,3610Zm42.54-31.72c-7.59-13.16-17.61-16.86-27.81-11-9.13,5.27-13.19,17.46-7.09,31.12Z" transform="translate(2383.91 600.88)"/><path class="cls-10" d="M3481.29,3536l9.13-5.27,7.76,11.27.4-.23c-.3-10.75,3.39-19.86,10.77-24.12a18.7,18.7,0,0,1,7.76-2.69l3.43,10.91a21,21,0,0,0-6.93,2.56c-5.5,3.18-9.75,11-7.83,24.58l24.19,41.88-11,6.36Z" transform="translate(2383.91 600.88)"/><path class="cls-10" d="M3553.49,3571.49l1.24-10.57c8.28,1.31,15.91,1.2,23.7-3.29,8.59-5,10.25-12,7-17.65-3.88-6.71-13.37-5.17-22-3.75-11.2,2-24,3.46-30.32-7.55-6-10.48-2.37-23.34,11.73-31.48a37.64,37.64,0,0,1,24.53-4.32l-1.2,10c-6.37-.8-12.47-.5-18.24,2.83-8.19,4.73-9.39,11.33-6.52,16.3,3.56,6.17,12,4.35,21,2.9,11.41-1.93,24.13-4.09,31.26,8.27,6.13,10.6,2.78,24.35-12.65,33.26A45.41,45.41,0,0,1,3553.49,3571.49Z" transform="translate(2383.91 600.88)"/><path class="cls-10" d="M3597.67,3512.51c-12.33-21.35-5.48-42.67,9.42-51.27,16.65-9.61,32.94-3.09,43.72,15.57a49.07,49.07,0,0,1,3.24,6.55l-44,25.42c8.79,13.36,22.37,17.34,34.85,10.13,6.18-3.56,10.25-8.6,13.3-14.48l8.08,5c-3.54,6.88-8.74,14-17.61,19.12C3631.18,3538.62,3610,3533.85,3597.67,3512.51Zm42.54-31.73c-7.59-13.16-17.61-16.86-27.81-11-9.13,5.27-13.19,17.46-7.1,31.13Z" transform="translate(2383.91 600.88)"/><path class="cls-10" d="M3681.69,3498.37c-3-5.1-1.34-10.69,3.09-13.25s9.94-1.08,12.88,4a9.23,9.23,0,1,1-16,9.23Z" transform="translate(2383.91 600.88)"/><path class="cls-10" d="M3696.21,3455.62c-12.64-21.89-5.62-42.59,10.36-51.82s37.42-5,50,16.93c12.48,21.62,5.46,42.32-10.52,51.55S3708.69,3477.23,3696.21,3455.62Zm49-28.3c-8.68-15-22.09-20.9-33.37-14.39s-12.9,21.06-4.22,36.1,22.07,20.55,33.21,14.12S3753.81,3442.22,3745.21,3427.32Z" transform="translate(2383.91 600.88)"/><path class="cls-10" d="M3754.89,3378.06l9.13-5.28,7.76,11.28.4-.24c-.29-10.74,3.4-19.86,10.78-24.12a18.7,18.7,0,0,1,7.76-2.69l3.43,10.91a21,21,0,0,0-6.93,2.57c-5.51,3.18-9.76,11-7.83,24.57l24.18,41.89-11,6.35Z" transform="translate(2383.91 600.88)"/><path class="cls-10" d="M3840.05,3432.54c-3.18-5.51-2.58-12.84,1-20.27l-.31-.54a13.91,13.91,0,0,1-11.9-7.27c-3.17-5.51-1.9-12,.14-16.2l-.31-.53a26.68,26.68,0,0,1-18.61-12.71c-8.22-14.23-2.13-29.73,11.16-37.41a30.34,30.34,0,0,1,10.19-3.74l22.69-13.1,4.89,8.46-13.43,7.75a21.82,21.82,0,0,1,13.12,10.33c8.06,14,2.5,28.81-10.79,36.49a26.41,26.41,0,0,1-11.12,3.37c-1.12,3.33-1.76,6.57.33,10.19,2.4,4.16,6.79,5.57,15.65.45l12.62-7.29c15.18-8.75,25.54-8.47,31.82,2.4,7,12.08.27,29.92-20,41.62C3861.21,3443.77,3846.56,3443.81,3840.05,3432.54Zm47.33-31.81c-3.49-6-9.35-5.34-17.81-.46l-11.28,6.52a36.69,36.69,0,0,1-9.07,3.8c-2.77,6.07-2.53,11.13-.36,14.89,4,7,13.7,7.3,25.52.48C3886.86,3418.75,3891.33,3407.58,3887.38,3400.73Zm-38.92-47.88c-5.5-9.53-14.94-11.6-22.59-7.18s-10.57,13.62-5.07,23.15,15.3,11.93,22.82,7.59S3854,3362.39,3848.46,3352.85Z" transform="translate(2383.91 600.88)"/></svg>