<svg width="2513" height="2898" viewBox="0 0 2513 2898" fill="none" xmlns="http://www.w3.org/2000/svg">
<path d="M2510 2173.5L1255.01 2898L0 2173.5V724.5L1255.01 -6.86646e-05L2510 724.5V2173.5Z" fill="#231F20"/>
<path d="M1257 2898L1240.26 2888.34L17.74 2183.11L1 2173.55V724.45L1257 0L2513 724.45V2173.45L2496.26 2183.11L1273.74 2888.34L1257 2898ZM67.9601 2134.92L1257 2820.85L2446.04 2134.92V763.176L1257 77.2535L67.9601 763.176V2134.92Z" fill="#333132"/>
<path d="M813.794 1569.8C611.935 1569.8 448.924 1406.79 448.924 1204.93C448.924 1003.07 611.935 840.056 813.794 840.056C1015.65 840.056 1178.66 1003.07 1178.66 1204.93C1178.66 1406.79 1015.65 1569.8 813.794 1569.8Z" fill="#FAEE1C"/>
<path d="M819.769 1160.43L804.136 1130.1C802.3 1125.96 797.245 1124.58 793.108 1126.42C777.024 1133.77 760.006 1140.21 742.087 1146.19C718.646 1153.99 691.985 1162.74 668.543 1176.52C640.497 1193.99 600.055 1234.9 581.669 1254.67C576.146 1260.64 576.613 1270.3 582.586 1275.81L596.384 1288.22C602.357 1293.27 611.083 1293.27 616.605 1287.75C628.551 1275.81 640.964 1264.31 652.91 1253.28C668.543 1239.5 685.094 1225.25 700.26 1218.35C736.114 1200.88 779.326 1191.23 816.098 1172.38C820.236 1169.63 821.604 1164.57 819.769 1160.43Z" fill="black"/>
<path d="M885.988 1211.91L855.656 1196.28C851.518 1194 846.463 1195.83 844.16 1199.97C834.967 1218.35 827.159 1237.66 820.719 1256.96C813.361 1278.1 806.921 1297.87 798.195 1315.79C783.029 1344.75 753.599 1374.17 728.322 1399.46C722.816 1404.97 722.816 1413.71 727.871 1419.68L740.735 1433.93C746.257 1439.9 755.45 1440.37 761.423 1434.85C774.754 1422.9 787.618 1410.49 800.031 1397.16C816.581 1379.69 833.583 1360.39 844.611 1338.78C863.931 1300.17 872.19 1260.18 889.658 1222.94C891.51 1218.81 890.125 1214.22 885.988 1211.91Z" fill="black"/>
<path d="M889.226 1145.47C879.035 1145.47 870.759 1137.2 870.759 1127C870.759 1116.81 879.035 1108.52 889.226 1108.52C899.417 1108.52 907.692 1116.81 907.692 1127C907.692 1137.2 899.417 1145.47 889.226 1145.47ZM1011.87 1052.41L1005.9 1046.44L922.246 1104.35L912.136 1094.24L970.047 1011.05L964.074 1005.06C961.321 1001.86 956.732 1001.86 953.512 1004.15L889.612 1050.11C886.859 1051.95 885.024 1054.72 883.639 1057.94L866.638 1096.54L821.59 1122.74L836.756 1152.15L838.125 1154.92L855.142 1147.56L870.308 1162.73L862.951 1179.28C863.868 1179.73 864.335 1179.73 865.253 1180.2L895.134 1195.36L921.329 1150.32L960.403 1133.32C963.623 1131.93 965.909 1130.1 968.211 1127.34L1014.18 1063.44C1015.09 1059.77 1014.64 1055.17 1011.87 1052.41Z" fill="black"/>
<path d="M1696.48 1569.8C1494.62 1569.8 1331.61 1406.79 1331.61 1204.93C1331.61 1003.07 1494.62 840.056 1696.48 840.056C1898.34 840.056 2061.35 1003.07 2061.35 1204.93C2061.35 1406.79 1898.34 1569.8 1696.48 1569.8Z" fill="#FAEE1C"/>
<path d="M1891.57 1150.8H1820V1258.81H1891.57C1921.25 1258.81 1945.91 1234.16 1945.91 1204.48C1945.91 1174.58 1921.25 1150.8 1891.57 1150.8Z" fill="#231F20"/>
<path d="M1469.29 1204.93C1469.29 1288.29 1537.15 1356.15 1620.52 1356.15C1703.88 1356.15 1771.76 1288.29 1771.76 1204.93C1771.76 1121.56 1703.88 1053.7 1620.52 1053.7C1537.15 1053.7 1469.29 1121.56 1469.29 1204.93Z" fill="#231F20"/>
<path d="M739.636 1837.46C728.783 1819.34 709.789 1808.75 685.366 1808.75C641.949 1808.75 606 1846 606 1904.71C606 1963.75 641.949 2001 685.366 2001C709.789 2001 728.783 1990.41 739.636 1972.29V1996.66H780V1749H739.636V1837.46ZM741.334 1904.76C741.334 1947.03 720.301 1967.85 694.185 1967.85C667.05 1967.85 648.056 1943.96 648.056 1904.71C648.056 1866.48 667.05 1841.9 694.185 1841.9C720.301 1841.9 741.334 1862.4 741.334 1904.76Z" fill="#F9EE2F"/>
<path d="M932.426 1996.64H974V1812H932.426V1910.51C932.426 1943.71 921.248 1967.71 890.159 1967.71C859.065 1967.71 855.569 1943.37 855.569 1918.33V1812H814V1928.27C814 1972.18 832.167 2001 876.881 2001C902.382 2001 921.6 1990.37 932.426 1971.15V1996.64Z" fill="#F9EE2F"/>
<path d="M1088.77 1807C1033.41 1807 998 1849.07 998 1904.17C998 1959.28 1033.41 2001 1087.05 2001C1126.59 2001 1164.75 1976.51 1173 1933.11H1133.12C1127.62 1957.9 1108.02 1966.86 1087.74 1966.86C1063.67 1966.86 1040.29 1947.92 1040.29 1903.83C1040.29 1860.09 1062.98 1841.15 1088.77 1841.15C1111.11 1841.15 1127.96 1854.92 1131.74 1874.56H1171.63C1164.41 1833.56 1129.34 1807 1088.77 1807Z" fill="#F9EE2F"/>
<path d="M1197 1749V1996H1237.57V1937.36L1257 1916.57L1314.61 1996H1362L1283.93 1887.93L1354.16 1812.58H1305.41L1237.57 1886.22V1749H1197Z" fill="#F9EE2F"/>
<path d="M1410.12 1902.7C1410.12 1860.49 1431.05 1840.07 1457.81 1840.07C1486.64 1840.07 1503.45 1864.24 1503.45 1902.7C1503.45 1941.85 1486.64 1965.68 1457.81 1965.68C1431.05 1965.68 1410.12 1944.91 1410.12 1902.7ZM1371 1810.99V2054H1411.83V1970.11C1422.81 1988.18 1442.03 1998.74 1466.74 1998.74C1512.03 1998.74 1546 1961.59 1546 1902.66C1546 1844.15 1512.03 1807 1466.74 1807C1442.03 1807 1422.81 1817.57 1411.83 1835.64V1810.99H1371Z" fill="#F9EE2F"/>
<path d="M1614 1749H1570V1996H1614V1749Z" fill="#F9EE2F"/>
<path d="M1662.27 2054C1703.75 2054 1715.74 2041.44 1733.22 1994.26L1798 1812H1756.19L1714.37 1943.01L1672.55 1812H1628L1694.83 1993.58L1692.78 1998C1684.55 2021.76 1677.01 2023.11 1659.19 2023.11H1643.76V2054H1662.27Z" fill="#F9EE2F"/>
<path d="M1914 1812.69C1910.88 1812.34 1906.37 1812 1903.24 1812C1880.7 1812.34 1862.66 1824.63 1852.59 1845.11V1812.34H1812V1996H1853.29V1899.73C1853.29 1862.86 1868.2 1852.62 1894.22 1852.62C1900.47 1852.62 1907.06 1852.96 1914 1853.65V1812.69Z" fill="#F9EE2F"/>
</svg>
