<svg width="2521" height="2911" viewBox="0 0 2521 2911" fill="none" xmlns="http://www.w3.org/2000/svg">
<path d="M2517.99 2183.25L1259 2911L0 2183.25V727.75L1259 1.52588e-05L2517.99 727.75V2183.25Z" fill="#231F20"/>
<path d="M1261 2911L1244.21 2901.3L17.7965 2192.9L1.00317 2183.3V727.7L1261 0L2521 727.7V2183.2L2504.21 2192.9L1277.79 2901.3L1261 2911ZM68.1764 2144.5L1261 2833.5L2453.83 2144.5V766.6L1261 77.6L68.1764 766.6V2144.5Z" fill="#333132"/>
<path d="M816.385 1576.84C613.883 1576.84 450.353 1413.1 450.353 1210.33C450.353 1007.57 613.883 843.825 816.385 843.825C1018.89 843.825 1182.42 1007.57 1182.42 1210.33C1182.42 1413.1 1018.89 1576.84 816.385 1576.84Z" fill="#FAEE1C"/>
<path d="M822.378 1165.64L806.696 1135.17C804.855 1131.02 799.783 1129.62 795.632 1131.47C779.497 1138.86 762.426 1145.33 744.45 1151.33C720.934 1159.17 694.187 1167.95 670.671 1181.8C642.536 1199.34 601.965 1240.44 583.52 1260.29C577.98 1266.29 578.449 1276 584.441 1281.53L598.282 1294C604.274 1299.08 613.028 1299.08 618.568 1293.53C630.552 1281.53 643.005 1269.98 654.989 1258.9C670.671 1245.06 687.275 1230.75 702.489 1223.81C738.457 1206.26 781.807 1196.58 818.696 1177.64C822.847 1174.87 824.22 1169.8 822.378 1165.64Z" fill="black"/>
<path d="M888.808 1217.35L858.38 1201.65C854.229 1199.35 849.157 1201.2 846.848 1205.35C837.626 1223.82 829.792 1243.21 823.332 1262.6C815.951 1283.83 809.49 1303.69 800.736 1321.69C785.522 1350.79 755.998 1380.33 730.641 1405.74C725.117 1411.27 725.117 1420.05 730.189 1426.05L743.093 1440.36C748.633 1446.36 757.855 1446.83 763.847 1441.29C777.22 1429.29 790.125 1416.82 802.578 1403.43C819.181 1385.88 836.237 1366.49 847.3 1344.79C866.681 1306.01 874.967 1265.84 892.491 1228.43C894.348 1224.27 892.959 1219.66 888.808 1217.35Z" fill="black"/>
<path d="M892.056 1150.61C881.833 1150.61 873.531 1142.3 873.531 1132.06C873.531 1121.82 881.833 1113.49 892.056 1113.49C902.28 1113.49 910.582 1121.82 910.582 1132.06C910.582 1142.3 902.28 1150.61 892.056 1150.61ZM1015.1 1057.13L1009.1 1051.13L925.182 1109.31L915.039 1099.15L973.135 1015.59L967.143 1009.57C964.381 1006.35 959.778 1006.35 956.548 1008.65L892.444 1054.82C889.682 1056.67 887.841 1059.45 886.452 1062.68L869.397 1101.46L824.206 1127.77L839.42 1157.32L840.793 1160.1L857.865 1152.71L873.079 1167.95L865.698 1184.57C866.619 1185.02 867.087 1185.02 868.008 1185.49L897.984 1200.73L924.262 1155.48L963.46 1138.4C966.691 1137.01 968.984 1135.16 971.294 1132.4L1017.4 1068.21C1018.33 1064.53 1017.87 1059.9 1015.1 1057.13Z" fill="black"/>
<path d="M1701.88 1576.84C1499.38 1576.84 1335.85 1413.1 1335.85 1210.33C1335.85 1007.57 1499.38 843.825 1701.88 843.825C1904.39 843.825 2067.91 1007.57 2067.91 1210.33C2067.91 1413.1 1904.39 1576.84 1701.88 1576.84Z" fill="#FAEE1C"/>
<path d="M1897.6 1155.96H1825.79V1264.46H1897.6C1927.36 1264.46 1952.11 1239.7 1952.11 1209.88C1952.11 1179.85 1927.36 1155.96 1897.6 1155.96Z" fill="#231F20"/>
<path d="M1473.97 1210.33C1473.97 1294.07 1542.05 1362.24 1625.68 1362.24C1709.31 1362.24 1777.4 1294.07 1777.4 1210.33C1777.4 1126.59 1709.31 1058.43 1625.68 1058.43C1542.05 1058.43 1473.97 1126.59 1473.97 1210.33Z" fill="#231F20"/>
<path d="M741.991 1845.7C731.103 1827.5 712.049 1816.86 687.548 1816.86C643.993 1816.86 607.929 1854.28 607.929 1913.25C607.929 1972.56 643.993 2009.98 687.548 2009.98C712.049 2009.98 731.103 1999.34 741.991 1981.14V2005.62H782.483V1756.85H741.991V1845.7ZM743.694 1913.3C743.694 1955.76 722.594 1976.67 696.395 1976.67C669.174 1976.67 650.119 1952.68 650.119 1913.25C650.119 1874.85 669.174 1850.17 696.395 1850.17C722.594 1850.17 743.694 1870.75 743.694 1913.3Z" fill="#F9EE2F"/>
<path d="M935.394 2005.6H977.101V1820.13H935.394V1919.08C935.394 1952.43 924.18 1976.54 892.993 1976.54C861.8 1976.54 858.292 1952.08 858.292 1926.93V1820.13H816.591V1936.92C816.591 1981.02 834.816 2009.98 879.672 2009.98C905.255 2009.98 924.533 1999.29 935.394 1979.99V2005.6Z" fill="#F9EE2F"/>
<path d="M1092.23 1815.11C1036.7 1815.11 1001.18 1857.36 1001.18 1912.72C1001.18 1968.07 1036.7 2009.98 1090.51 2009.98C1130.17 2009.98 1168.46 1985.38 1176.73 1941.78H1136.72C1131.21 1966.69 1111.55 1975.68 1091.2 1975.68C1067.05 1975.68 1043.6 1956.65 1043.6 1912.37C1043.6 1868.43 1066.36 1849.41 1092.23 1849.41C1114.65 1849.41 1131.55 1863.24 1135.35 1882.96H1175.36C1168.11 1841.79 1132.93 1815.11 1092.23 1815.11Z" fill="#F9EE2F"/>
<path d="M1200.81 1756.85V2004.95H1241.51V1946.05L1261 1925.16L1318.8 2004.95H1366.34L1288.02 1896.4L1358.47 1820.71H1309.57L1241.51 1894.68V1756.85H1200.81Z" fill="#F9EE2F"/>
<path d="M1414.61 1911.24C1414.61 1868.84 1435.6 1848.32 1462.45 1848.32C1491.37 1848.32 1508.24 1872.6 1508.24 1911.24C1508.24 1950.56 1491.37 1974.49 1462.45 1974.49C1435.6 1974.49 1414.61 1953.64 1414.61 1911.24ZM1375.36 1819.12V2063.21H1416.33V1978.95C1427.34 1997.1 1446.62 2007.71 1471.41 2007.71C1516.84 2007.71 1550.92 1970.39 1550.92 1911.19C1550.92 1852.43 1516.84 1815.11 1471.41 1815.11C1446.62 1815.11 1427.34 1825.72 1416.33 1843.87V1819.12H1375.36Z" fill="#F9EE2F"/>
<path d="M1619.14 1756.85H1575V2004.95H1619.14V1756.85Z" fill="#F9EE2F"/>
<path d="M1667.56 2063.21C1709.17 2063.21 1721.21 2050.6 1738.74 2003.21L1803.72 1820.13H1761.78L1719.83 1951.73L1677.88 1820.13H1633.18L1700.23 2002.53L1698.17 2006.96C1689.91 2030.83 1682.35 2032.19 1664.47 2032.19H1649V2063.21H1667.56Z" fill="#F9EE2F"/>
<path d="M1920.09 1820.82C1916.96 1820.47 1912.44 1820.13 1909.3 1820.13C1886.68 1820.47 1868.59 1832.82 1858.49 1853.39V1820.47H1817.77V2004.95H1859.19V1908.26C1859.19 1871.22 1874.15 1860.93 1900.25 1860.93C1906.52 1860.93 1913.13 1861.28 1920.09 1861.96V1820.82Z" fill="#F9EE2F"/>
</svg>
