<svg id="Layer_1" data-name="Layer 1" xmlns="http://www.w3.org/2000/svg" xmlns:xlink="http://www.w3.org/1999/xlink" viewBox="0 0 735 852"><defs><style>.cls-1{fill:#1e7b42;}.cls-2{clip-path:url(#clip-path);}.cls-3{fill:#144f85;}.cls-4{fill:#e6b35a;}.cls-5{font-size:160px;letter-spacing:-0.04em;}.cls-15,.cls-5,.cls-9{fill:#fff;}.cls-5,.cls-9{font-family:MyriadPro-Regular, Myriad Pro;}.cls-6{letter-spacing:-0.03em;}.cls-7{letter-spacing:-0.04em;}.cls-8{fill:#173e6c;}.cls-9{font-size:25px;}.cls-10{letter-spacing:0.01em;}.cls-11{letter-spacing:-0.04em;}.cls-12{letter-spacing:-0.02em;}.cls-13{letter-spacing:-0.01em;}.cls-14{letter-spacing:0em;}.cls-15,.cls-16{fill-rule:evenodd;}.cls-16,.cls-17{fill:#231f20;}</style><clipPath id="clip-path"><polygon class="cls-1" points="369.51 7.4 728.21 214.47 728.21 636.62 369.51 845.03 2.79 636.62 2.79 214.47 369.51 7.4"/></clipPath></defs><title> </title><polygon class="cls-1" points="369.51 7.4 728.21 214.47 728.21 636.62 369.51 845.03 2.79 636.62 2.79 214.47 369.51 7.4"/><g class="cls-2"><circle class="cls-3" cx="365.5" cy="437.45" r="442.13"/><ellipse class="cls-3" cx="366.89" cy="105.8" rx="315.24" ry="234.63"/></g><path class="cls-4" d="M367,633.9c.29-.29.6-.59.93-.89h-.26Z"/><text class="cls-5" transform="translate(145.09 594.87)">f<tspan class="cls-6" x="39.52" y="0">e</tspan><tspan class="cls-7" x="114.56" y="0">a</tspan><tspan class="cls-6" x="185.92" y="0">ther</tspan></text><path class="cls-8" d="M705.61,196.21,427.81,35.82,367.5,1,307.19,35.82,29.37,196.22.09,213.13V637.38l29.28,16.91,281.28,162.4,56.85,32.82,56.85-32.82L705.61,654.3l29.3-16.92V213.13Zm0,425.26L367.49,816.68,29.37,621.47V231L367.49,35.82h0L705.61,231Z"/><text class="cls-9" transform="matrix(0.86, -0.5, 0.5, 0.86, 369.28, 809.1)"><tspan class="cls-10">ww</tspan><tspan class="cls-11" x="37.4" y="0">w</tspan><tspan x="54.82" y="0">.rstudi</tspan><tspan class="cls-12" x="120.07" y="0">o</tspan><tspan x="133.2" y="0">.</tspan><tspan class="cls-13" x="138.37" y="0">c</tspan><tspan class="cls-14" x="149.42" y="0">om</tspan></text><path class="cls-15" d="M360.82,205.76c-31.71,78-51.67,152.79-59,238.52-1.6,18.59-.86,37.81-1.48,57.55,2.16-6.93,8.08-16.63,9.36-28.4,1.79-94.07,14.34-165.08,51.16-267.67Z"/><path class="cls-16" d="M309.72,446.56l0-.14,0-.25.05-.24a4.94,4.94,0,0,0-.9-4.05,3.69,3.69,0,0,0-3-1.36h-.36c-1.27.08-4.26.44-4.64,2l-.65,2.59-1.87-1.91-1.91-2c-3.82-4-7.43-7.73-10.81-7.73-2.08,0-4.18,1.44-6.42,4.4l-2.68,3.54,0-4.44a16.26,16.26,0,0,1,4.31-11.71,11.48,11.48,0,0,1,6.65-3.38c-4.54-4-9.5-6.2-16.36-9.31l-5-2.28,1.73-1.53a14.75,14.75,0,0,1,10.07-3.65,24.74,24.74,0,0,1,8.57,1.72c-3.62-7.59-5.68-17-6-27.54.17-11.09,2.17-36.46,6.07-45.13l1.53-3.42,1.25,3.53.44,1.21c-2-10.81-2.35-21.64-1-30.69,1.53-10,10.5-46.28,15.27-55,4.27-7.78,9.94-19.28,10.64-20.7.28-1.11,2-7.22,8-19.8,6.31-13.15,16-28.23,16.82-29.41,1.48-3,3.18-5.73,4.83-8.41s3.3-5.38,4.73-8.25c.42-.8,10-18.93,15.87-26.84l.6-.81a106.59,106.59,0,0,1,7.55-9.37l3-3.12-.39,3.55a8.49,8.49,0,0,1,3.64-3.44,4.27,4.27,0,0,0,.48-.28,72.91,72.91,0,0,1,17.38-11.77c10-5,15.69-7.38,20.77-7.38a21.64,21.64,0,0,1,7.73,1.62c1.91.71,3.68,3.05,5.4,7.17,6.18,14.82,10.25,49.38,3.6,64-5,10.89-8.49,17.05-11.65,21.33a41,41,0,0,1,6.49-1.17l3.88-.48-2.56,3c-4.37,5-7.23,16.31-10.25,28.24-3.52,13.9-7.17,28.26-13.89,36.68-1.89,2.81-3.57,5.75-5.2,8.58s-3.19,5.56-5,8.33a71.55,71.55,0,0,1,0,13c-.19,3-.38,6-.27,9.22v.18c-.06.65-1.43,16-5.62,27.25-1,2.8-2,5.45-2.88,8a146.59,146.59,0,0,1-6.78,17,47.62,47.62,0,0,1-7.77,11.46,114.54,114.54,0,0,0,13-10.22l3-2.77-.52,4.06c-3.73,29.06-18,36.85-28.81,41.2a20.17,20.17,0,0,1,11.32,3.83l3.29,2.21-3.93.53c-7.93,1.07-13.45,4.58-18.78,8a71.65,71.65,0,0,1-6.66,3.93,8.18,8.18,0,0,1,5.17,7l.11,1.78-1.78-.2a86.59,86.59,0,0,0-9.32-.65,20.28,20.28,0,0,0-7.25,1.07,43.15,43.15,0,0,1,5.6,2,18.71,18.71,0,0,0,7.33,1.93h1.71l-.24,1.69c-.84,6-7,6-9.92,6-1.12,0-2.3,0-3.53-.08s-2.62-.09-4-.09c-6.53,0-13,1.06-16.53,8.72l-2.26,5Z"/><path class="cls-17" d="M418,105.3a20.33,20.33,0,0,1,7.21,1.52c7.83,2.89,16.27,51.3,8.15,69.13S421,198.78,415.84,203.79c5.47-4,6.66-4.66,13.92-5.56-9.72,11.22-11.79,49.52-24.22,65-3.87,5.74-6.7,11.68-10.57,17.43,1,8.12-.47,14.68-.21,22.62,0,0-1.36,15.63-5.53,26.86-3.65,9.8-6.09,17.86-9.59,24.79-5.9,11.68-11,13.94-17.69,20.63A123.28,123.28,0,0,0,387.26,358c-5.07,39.42-29.26,38.28-38.6,44.76a44,44,0,0,1,10.89-1.87,18.58,18.58,0,0,1,10.87,3.58c-14.79,2-21.83,12.37-31.79,14.06a13.37,13.37,0,0,1,1.76-.12c4.86,0,8.23,2.83,8.47,6.5a88.2,88.2,0,0,0-9.49-.66,20.2,20.2,0,0,0-11.93,3.23c8.33.89,11.52,4.73,17.6,4.78-.57,4-3.94,4.72-8.44,4.72-2.29,0-4.86-.18-7.5-.18-6.82,0-14.07,1.18-17.9,9.6,0,0,0-.08,0-.12.69-3.29-1.19-7.22-5.38-7.22l-.45,0c-2.84.19-5.47,1-6,3.12-4.87-4.95-9.16-10.15-13.79-10.15-2.41,0-4.9,1.41-7.61,5,0-8.83,5.52-13.67,10.79-13.67a8.26,8.26,0,0,1,2.73.46c-6.24-6.8-12.66-9.27-22.69-13.87a13.32,13.32,0,0,1,9.07-3.27,25.3,25.3,0,0,1,12.09,3.57c-1.36-2.22-7.45-12.1-8-30.94.17-11.11,2.18-36.1,5.94-44.47,1.29,3.64,3.81,10.23,6.89,14.7-4.36-13.53-6.69-30.3-4.53-44.45,1.56-10.18,10.51-46.1,15.11-54.49s10.74-20.9,10.74-20.9,1.39-6,8-19.67a309.11,309.11,0,0,1,16.77-29.32c2.92-5.87,6.68-10.87,9.6-16.74,0,0,9.82-18.71,15.73-26.61a117.32,117.32,0,0,1,8-10,66.34,66.34,0,0,0-.06,11.14c1.47-13.34,5.49-13.27,6.74-14.35a71.48,71.48,0,0,1,17.07-11.57c10.26-5.12,15.47-7.22,20.1-7.22m0-3c-5.38,0-11.2,2.43-21.44,7.54a74.11,74.11,0,0,0-17.63,11.93l-.28.15c-.32.17-.64.36-1,.57l.39-3.53L372,125.21a107.43,107.43,0,0,0-7.67,9.51l-.6.81c-6,8-15.57,26.24-16,27v.06c-1.4,2.81-3,5.4-4.67,8.14s-3.35,5.45-4.85,8.44a307,307,0,0,0-16.87,29.51c-5.83,12.14-7.68,18.39-8.09,19.92-.93,1.88-6.4,13-10.54,20.51-4.84,8.82-13.9,45.43-15.44,55.48a91.57,91.57,0,0,0-.06,24.35l-2.08,4.63c-4.35,9.69-6.07,36.85-6.2,45.65v.14c.21,6.94,1.28,16.27,4.79,25a23.76,23.76,0,0,0-5.86-.77,16.21,16.21,0,0,0-11.06,4l-3.46,3.05,4.2,1.92,2.9,1.32c5.6,2.54,9.9,4.49,13.72,7.27a13.5,13.5,0,0,0-4.45,3A17.74,17.74,0,0,0,274.95,437l0,8.88,5.35-7.08c1.91-2.52,3.66-3.8,5.22-3.8,2.74,0,6.29,3.7,9.73,7.27l1.92,2,3.75,3.81,1.3-5.19h0s.6-.68,3.29-.86h.26a2.23,2.23,0,0,1,1.85.8,3.46,3.46,0,0,1,.59,2.8l-.11.5.06.5c0,.06,0,.12,0,.19l1.16,10.79,4.54-10c3-6.51,8.2-7.84,15.17-7.84,1.31,0,2.63,0,3.91.09s2.43.08,3.59.08c3.11,0,10.38,0,11.41-7.3l.47-3.39-3.42,0c-2.43,0-4.34-.81-6.77-1.82l-.38-.16c.46,0,.94,0,1.46,0a85.22,85.22,0,0,1,9.16.64l3.55.4-.23-3.57a9.29,9.29,0,0,0-3.63-6.78c1.48-.85,2.94-1.78,4.43-2.73,5.2-3.31,10.57-6.74,18.17-7.76l7.85-1.06-6.58-4.41a24.43,24.43,0,0,0-6.8-3.3c10.23-5,21.63-14.5,24.95-40.3l1-8.13-6,5.53c-1.56,1.42-3.21,2.84-4.93,4.22.66-1.12,1.33-2.35,2-3.68a147.68,147.68,0,0,0,6.85-17.14c.9-2.54,1.84-5.17,2.87-8,4.27-11.48,5.65-27,5.71-27.64l0-.18v-.18c-.11-3.14.08-6.16.27-9.07a74.78,74.78,0,0,0,0-12.7c1.73-2.66,3.28-5.34,4.77-8,1.6-2.8,3.26-5.69,5.11-8.44,6.91-8.68,10.58-23.18,14.14-37.2,3-11.75,5.79-22.85,9.93-27.63l5.11-5.9-7.75,1c-1.09.13-2.05.27-2.93.41a145.84,145.84,0,0,0,9.64-18.46c7-15.45,2.68-50.2-3.58-65.19-1.91-4.59-3.9-7.13-6.26-8A23,23,0,0,0,418,102.3Z"/><path class="cls-15" d="M293.81,415.36c-.56-1-9.28-22.46-9-40.4.18-10.65,1.59-24.23,4-31.38,2.48,3.94,8.65,20,13.34,23.21-4.71-11.34-9.24-35.14-9.58-42.82-.32-7.22-.45-15.44.28-20.17.37-2.42,1.21-6.33,2.33-11-.31,11.42.08,24.39,2.63,32.94-2.08-24.79-1.91-50.34,10-73.81,4.38-8,10.24-20.06,10.24-20.06s1.33-5.72,7.61-18.87c2.29-4.8,5-9.84,7.61-14.32a50,50,0,0,0,2.59,14.36c-.7-6.35-1-12-1.1-16.91,3.81-6.51,6.9-11.26,6.9-11.26,2.79-5.63,6.65-10.37,9.44-16,0,0,8.86-18.38,14.48-26a97.22,97.22,0,0,1,7.08-8.53c-.59,1.61-.39,10.9,1,17.11,1.43-12.78,4.34-21.41,5.53-22.45a79,79,0,0,1,17.48-11.91c14.72-7.44,19.29-10.26,26.72-7.51,1.61.59,3.18,3.25,4.59,7.24a106.22,106.22,0,0,0-9.82,7.54q5.32-3,10.4-5.76c4.72,15.1,7.12,44.87,1.29,57.76-7.75,17.12-18.94,30.07-22.38,32.47,6.7.53,10.26-5.3,17.15-6.18-5.53,7.16-8.45,26.85-13.92,43-6.3,8.88-12.95,16.76-18.9,20.83,5.11-2.14,10.9-7.74,16.64-14.78a45.42,45.42,0,0,1-6,10.78l-8.63,12.92c-.81,1.21-6,6-11.58,12,3.91-2.59,7.11-4.86,9.57-5.7.19,6.29.1,13.81.29,20.11,0,0-1.32,15-5.31,25.75-3.49,9.4-6.16,18.59-9.5,25.24-5.63,11.21-23.26,24.66-31,35.53,12.05-10,28.92-14.11,35.9-21.84a45.5,45.5,0,0,1-1.95,7.51c-4.28,3.61-9.15,7.49-14.66,11.59A74.06,74.06,0,0,0,379.15,377c-8.09,17.6-26.58,18.13-42.39,30.73,7.37,1,16.44-6.37,25.14-3.26-8.52,2.21-23.92,16.59-40.09,15.6,2.38,4.27,17-3.52,22.75,2-12.76-1.66-16.51,4.2-23.56,7.06,9.27-1.45,14.33,3.75,20.19,4.42-7.49,4.33-18.49-7-30.76,10.22-.35.49-1.33,15.5-1.67,16-2.53-.81-4.13-10.76-6.47-12.89-.24-.22-.66-6.81-.9-7C294.18,433.12,287.53,424,280,433c3.18-8.76,10.66-8.18,16.21-6.24-4.64-9-12.77-12.41-22.28-16.8,7.22-2.46,17.51,3.89,19.88,5.41Z"/><path class="cls-16" d="M329.73,350.46c9.62-19.28,33.24-15.24,44.32-46.27-9.58,24.52-37.35,26.23-44.32,46.27Z"/><path class="cls-16" d="M366.69,210.5c13.33-16.93,35.64-8.19,52.77-36.34-14.34,22.07-41.88,18.12-52.77,36.34Z"/><path class="cls-16" d="M391.2,153.77c8.21-7.84,15.81-16,30.28-25.23-4.26,2-16.19,8.16-28.6,22.2a356.83,356.83,0,0,1,26.95-41.29c-21.9,20.49-41.16,49.7-57.53,84.15-.52-3-.21-7.86,2.39-26.07-5.72,19.06-6.92,33.09-9.13,40.91q-3.76,8.67-7.3,17.7c-.82-13,2.12-39.92,11.81-64.37-14.4,34.52-14.21,59.78-13.52,68.78-4.66,12.2-9,24.83-13,37.76-.66-15.15-10.19-30-7.07-49.51-5,25,5.07,36.63,6.43,51.59-3.76,12.2-7.23,24.66-10.41,37.29-4.23-8.74-8.3-29.17-6-49.45-4.73,27.35,2.13,45.84,5.25,52.45-6.27,25.27-11.37,51.18-15.24,76.92-1.58-1.9-3.29-5.17-8.13-19.91,2.3,13.65,5.39,23.16,6.76,29.43q-1.24,8.93-2.29,17.82l-.3,2.59a753.16,753.16,0,0,0-5,79.46c-.07,9.66.45,13.4,6.31,2,3.33-6.48,5.85-15.42,7.09-23.34a733.86,733.86,0,0,1,8.38-93.93c8.66-12.29,31.52-33.63,62.19-49.85-39.68,20.55-55.83,37.84-61.48,45.29,4-25.86,9.47-52.66,16.32-79.37,6.68-7.76,21.63-19.36,40.78-27.52-24,8.43-35.16,18-39.53,22.7,3.79-14.41,8-28.78,12.65-42.94,2.64-3.69,7.38-8.2,16.77-13.8a51.86,51.86,0,0,0-14.86,8,582.11,582.11,0,0,1,30.85-74.8c3.22-3.64,8.89-8.09,20.54-13.42a65,65,0,0,0-17.38,7.25Q388.6,158.47,391.2,153.77ZM308.37,473.31l-5,21.24c-2.7,6.46-3.47,7.48-3.36,0,2-134.6,43.83-292.93,108.15-371.71C344.43,215.07,310.34,362.75,308.37,473.31Z"/><path class="cls-15" d="M401.88,193.76c-13.94,15.86-22.22,7.39-34.47,18.28,9.87-15.53,21.2-6.58,34.47-18.28Z"/><path class="cls-15" d="M368.88,342.49c-15.25,13.75-30.19,21.75-46.09,38,4.64-6.93,19.76-23.55,46.09-38Z"/></svg>