<?xml version="1.0" encoding="utf-8"?>
<!-- Generator: Adobe Illustrator 26.4.1, SVG Export Plug-In . SVG Version: 6.00 Build 0)  -->
<svg version="1.1" id="Layer_1" xmlns="http://www.w3.org/2000/svg" xmlns:xlink="http://www.w3.org/1999/xlink" x="0px" y="0px"
	 viewBox="0 0 2521 2911" style="enable-background:new 0 0 2521 2911;" xml:space="preserve">
<style type="text/css">
	.st0{fill:#144F85;}
	.st1{fill:#173E6C;}
	.st2{fill:#E6B35A;}
	.st3{fill:#FFFFFF;}
	.st4{fill:#231F20;}
</style>
<g>
	<path class="st0" d="M62.1,2145.9V762.1l177-102.2L1260.2,70.3l0,0l1017.7,587.8l180.4,104v1383.8l-1198.1,691.7L62.1,2145.9z"/>
	<path class="st1" d="M2419.8,669.8L1467,119.4L1260.2,0l-206.8,119.4L100.5,669.8L0,727.7v1455.5l100.5,58l964.8,557.2l195.2,112.5
		l195.2-112.5l964.8-557.2l100.5-58V727.7L2419.8,669.8z M2419.8,2129l-1159.7,669.8L100.5,2129V789.2l1159.7-669.8l0,0
		l1159.7,669.8V2129z"/>
	<path class="st2" d="M1258.4,2171.6c1-1,2.1-2.1,3.1-3.1h-1C1260.2,2169.5,1259.5,2170.6,1258.4,2171.6z"/>
	<path class="st3" d="M542.3,2037.8v-228.9h-37.4v-36.7h37.4v-12.7c0-37.4,8.2-71.4,30.9-92.6c17.5-16.5,40.8-25,64.8-24.7
		c14.1,0,28.1,2.4,41.2,7.5l-6.5,37.4c-9.6-4.1-20.2-6.2-30.9-6.2c-41.2,0-51.4,36.4-51.4,76.9v14.4h64.1v36.7h-64.5v228.9H542.3z"
		/>
	<path class="st3" d="M699.7,1913.6c1,65.2,42.9,92.3,91.2,92.3c34.6,0,55.6-6.2,73.4-13.7l8.2,34.7c-17.1,7.5-46,16.5-88.5,16.5
		c-81.6,0-130.7-53.9-130.7-133.8S700.7,1766,777.9,1766c86.8,0,109.8,76.2,109.8,125.2c0,7.5-0.7,15.1-1.7,22.6L699.7,1913.6
		L699.7,1913.6z M841.4,1878.9c0.7-30.9-12.7-78.6-66.9-78.6c-48.7,0-70.3,44.9-74.1,78.6H841.4z"/>
	<path class="st3" d="M1077.3,2037.8l-3.8-33.6h-1.7c-14.7,20.9-43.2,39.5-81.3,39.5c-53.8,0-81.3-37.7-81.3-76.2
		c0-64.2,56.9-99.5,159.8-98.8v-5.5c0-22-6.2-61.4-60.4-61.4c-24.4,0-48.4,6.9-69.3,19.9l-11-31.9c22-14.4,53.8-23.7,87.1-23.7
		c81.3,0,101.2,55.6,101.2,108.8v99.5c-0.3,21.3,1,42.5,4.5,63.5L1077.3,2037.8L1077.3,2037.8z M1070.1,1901.9
		c-52.8-1-112.5,8.2-112.5,59.7c0,31.2,20.9,46.3,45.6,46.3c28.8,0.7,54.9-17.2,64.1-44.6c1.7-4.8,2.7-10.3,2.7-15.4V1901.9z"/>
	<path class="st3" d="M1233.1,1695.7v76.2h69.3v36.7h-69.3V1952c0,32.9,9.3,51.5,36.4,51.5c9.6,0,18.9-1,28.1-3.4l2.1,36.4
		c-13.7,4.8-28.1,6.9-42.9,6.5c-22.6,0-40.5-7.2-52.1-20.2c-13.7-14.4-18.5-37.7-18.5-69.3v-144.8h-41.2v-36.7h41.2V1708
		L1233.1,1695.7z"/>
	<path class="st3" d="M1339,1648h48.4v165.7h1c8.2-14.4,20.2-26.1,34.6-34c15.1-8.9,31.9-13.4,49.4-13.7c35.7,0,92.6,22,92.6,113.6
		v158.2h-48v-152.7c0-42.9-15.8-78.9-61.4-78.9c-31.2,0-55.9,22-64.8,48.4c-2.7,7.2-3.8,15.1-3.4,23v160.2h-48V1648H1339z"/>
	<path class="st3" d="M1652.9,1913.6c1,65.2,42.9,92.3,91.2,92.3c34.6,0,55.6-6.2,73.4-13.7l8.2,34.7c-17.1,7.5-46,16.5-88.5,16.5
		c-81.6,0-130.7-53.9-130.7-133.8s47.3-143.4,124.5-143.4c86.8,0,109.8,76.2,109.8,125.2c0,7.5-0.7,15.1-1.7,22.6L1652.9,1913.6
		L1652.9,1913.6z M1794.5,1878.9c0.7-30.9-12.7-78.6-66.9-78.6c-48.7,0-70.3,44.9-74.1,78.6H1794.5z"/>
	<path class="st3" d="M1883.4,1854.9c0-31.2-0.7-58.3-2.1-83h42.2l1.7,52.2h2.1c12-35.7,41.2-58.3,73.4-58.3c4.5,0,9.3,0.3,13.7,1.7
		v45.6c-5.5-1-11-1.7-16.5-1.7c-34,0-58.3,25.7-64.8,62.1c-1.4,7.5-2.1,15.1-2.1,22.6v141.7h-47.7V1854.9z"/>
	<path class="st3" d="M1237.2,702.7c-108.7,267.6-177.3,524.3-202.4,818.3c-5.5,63.8-3.1,129.7-5.1,197.3
		c7.5-23.7,27.8-57,32.2-97.4C1068.1,1298.4,1111,1054.4,1237.2,702.7L1237.2,702.7z"/>
	<path class="st4" d="M1061.9,1528.9v-0.3v-0.7v-0.7c1-4.8,0-10-3.1-13.7c-2.4-3.1-6.2-4.8-10.3-4.8h-1.4
		c-4.5,0.3-14.4,1.4-15.8,6.9l-2.1,8.9l-6.5-6.5l-6.5-6.9c-13-13.7-25.4-26.4-37-26.4c-7.2,0-14.4,4.8-22,15.1l-9.3,12V1496
		c-0.7-14.8,4.8-29.2,14.7-40.1c6.2-6.2,14.1-10.3,22.6-11.7c-15.4-13.7-32.6-21.3-56.3-31.9l-17.1-7.9l5.8-5.1
		c9.6-8.2,22-12.7,34.6-12.4c9.9,0.3,19.9,2.1,29.5,5.8c-12.3-26.1-19.6-58.3-20.6-94.4c0.7-38.1,7.5-125.2,20.9-154.7l5.1-11.7
		l4.1,12c0.3,1.4,1,2.7,1.4,4.1c-6.9-37.1-8.2-74.1-3.4-105.3c5.1-34.3,36-158.9,52.5-188.7c14.7-26.8,34.3-66.2,36.4-71
		c1-3.8,6.9-24.7,27.4-67.9c21.6-44.9,54.9-96.8,57.6-100.9c5.1-10.3,11-19.6,16.5-28.8c5.5-9.3,11.3-18.5,16.1-28.5
		c1.4-2.7,34.3-64.8,54.5-92l2.1-2.7c7.9-11.3,16.8-22,25.7-32.3l10.3-10.6l-1.4,12.4c2.7-5.1,7.2-9.3,12.3-11.7
		c0.7-0.3,1-0.7,1.7-1c17.8-16.1,38.1-29.9,59.7-40.5c34.3-17.2,53.8-25.4,71.3-25.4c9.3,0.3,18.2,2.1,26.4,5.5
		c6.5,2.4,12.7,10.3,18.5,24.7c21.3,50.8,35,169.5,12.3,219.6c-17.1,37.4-29.2,58.3-39.8,73.1c7.2-2.1,14.7-3.4,22.3-4.1l13.4-1.7
		l-8.6,10.3c-15.1,17.2-24.7,55.9-35,96.8c-12,47.7-24.7,97.1-47.7,125.9c-6.5,9.6-12.3,19.6-17.8,29.5c-5.5,10-11,19.2-17.1,28.5
		c1.4,14.8,1.4,29.9,0,44.6c-0.7,10.6-1,20.9-1,31.6v0.7c0,2.1-4.8,54.9-19.2,93.3c-3.4,9.6-6.9,18.9-9.9,27.4
		c-6.5,19.9-14.4,39.5-23.3,58.3c-6.9,14.4-15.8,27.4-26.8,39.5c15.8-10.6,30.5-22.3,44.6-35l10.3-9.6l-1.7,14.1
		c-12.7,99.8-61.7,126.6-98.8,141.4c14.1,0.3,27.4,4.8,38.8,13l11.3,7.5l-13.4,1.7c-27.1,3.8-46.3,15.8-64.5,27.4
		c-7.2,4.8-15.1,9.3-23,13.4c9.9,3.8,16.8,13,17.8,24l0.3,6.2l-6.2-0.7c-10.6-1.4-21.3-2.1-31.9-2.1c-8.6-0.3-16.8,1-24.7,3.8
		c6.5,1.7,13,4.1,19.2,6.9c7.9,3.8,16.5,6.2,25,6.5h5.8l-0.7,5.8c-2.7,20.6-24,20.6-34,20.6c-3.8,0-7.9,0-12-0.3s-8.9-0.3-13.7-0.3
		c-22.3,0-44.6,3.8-56.6,29.9l-7.9,17.2L1061.9,1528.9z"/>
	<path class="st4" d="M1433.4,357.9c8.6,0.3,16.8,2.1,24.7,5.1c26.8,10,55.9,176,27.8,237.1s-42.5,78.2-60,95.4
		c18.9-13.7,23-16.1,47.7-19.2c-33.3,38.4-40.5,169.8-83,223c-13.4,19.6-23,40.1-36.4,59.7c3.4,27.8-1.7,50.4-0.7,77.5
		c0,0-4.8,53.5-18.9,92.3c-12.3,33.6-20.9,61.4-32.9,85.1c-20.2,40.1-37.7,47.7-60.7,70.7c31.2-16.5,60.4-36.7,86.8-60
		c-17.5,135.2-100.5,131.4-132.4,153.7c12-3.8,24.7-5.8,37.4-6.5c13.4,0,26.4,4.5,37.4,12.4c-50.8,6.9-74.8,42.5-109.1,48.4
		c2.1-0.3,4.1-0.3,6.2-0.3c16.8,0,28.1,9.6,29.2,22.3c-10.6-1.4-21.6-2.1-32.6-2.4c-14.4-0.7-28.8,3.1-40.8,11
		c28.5,3.1,39.4,16.1,60.4,16.5c-2.1,13.7-13.4,16.1-28.8,16.1c-7.9,0-16.8-0.7-25.7-0.7c-23.3,0-48.4,4.1-61.4,32.9v-0.3
		c2.4-11.3-4.1-24.7-18.5-24.7h-1.7c-9.6,0.7-18.9,3.4-20.6,10.6c-16.8-17.2-31.6-34.7-47.3-34.7c-8.2,0-16.8,4.8-26.1,17.2
		c0-30.2,18.9-47,37-47c3.1,0,6.5,0.7,9.3,1.7c-21.3-23.3-43.6-31.9-77.9-47.7c8.6-7.5,19.9-11.7,31.2-11.3
		c14.7,0.7,28.8,4.8,41.5,12.4c-4.8-7.5-25.7-41.5-27.4-106c0.7-38.1,7.5-123.9,20.2-152.7c4.5,12.4,13,35,23.7,50.4
		c-15.1-46.3-23-104-15.4-152.7c5.5-35,36-158.2,51.8-187c15.8-28.8,36.7-71.7,36.7-71.7s4.8-20.6,27.4-67.6
		c17.5-34.7,36.7-68.3,57.6-100.5c9.9-20.2,23-37.4,32.9-57.3c0,0,33.6-64.2,53.8-91.3c8.6-12,17.8-23.3,27.4-34.3
		c-1,12.7-1,25.4-0.3,38.1c5.1-45.6,18.9-45.6,23-49.4c17.5-16.1,37.4-29.5,58.7-39.8C1399.8,365.4,1417.6,358.2,1433.4,357.9
		 M1433.7,347.9c-18.5,0-38.4,8.2-73.4,25.7c-22,10.6-42.5,24.4-60.4,40.8l-1,0.7c-1,0.7-2.1,1.4-3.4,2.1l1.4-12l-20.9,21.3
		c-9.3,10.3-18.2,21.3-26.4,32.6l-2.1,2.7c-20.6,27.4-53.5,89.9-54.9,92.6l0,0l0,0c-4.8,9.6-10.3,18.5-16.1,27.8
		s-11.7,18.5-16.8,28.8c-21.3,32.6-40.5,66.6-58,101.2c-19.9,41.5-26.4,63.1-27.8,68.3c-3.1,6.5-22,44.6-36,70.3
		c-16.5,30.2-47.7,155.8-52.8,190.4c-3.8,27.8-3.8,55.9-0.3,83.7l-7.2,15.8c-15.1,33.3-20.9,126.6-21.3,156.5v0.3
		c0.7,29.2,6.2,58.3,16.5,85.8c-6.5-1.7-13.4-2.7-20.2-2.7c-14.1-0.3-27.4,4.5-38.1,13.7l-12,10.6l14.4,6.5l9.9,4.5
		c19.2,8.6,34,15.4,47,25c-5.8,2.4-11,5.8-15.1,10.3c-11,12-16.8,27.8-16.1,44.3v30.5l18.5-24.4c6.5-8.6,12.7-13,17.8-13
		c9.3,0,21.6,12.7,33.3,25c2.1,2.4,4.5,4.5,6.5,6.9l13,13l4.5-17.8l0,0c0,0,2.1-2.4,11.3-3.1h1c2.4,0,4.8,1,6.5,2.7
		c2.1,2.7,2.7,6.2,2.1,9.6l-0.3,1.7l0.3,1.7v0.7l4.1,37.1l15.4-34.3c10.3-22.3,28.1-26.8,52.1-26.8c4.5,0,8.9,0,13.4,0.3
		c4.5,0.3,8.2,0.3,12.3,0.3c10.6,0,35.7,0,39.1-25l1.7-11.7H1183c-8.2,0-14.7-2.7-23.3-6.2l-1.4-0.3c1.7,0,3.1,0,5.1,0
		c10.6,0,20.9,1,31.6,2.1l12,1.4l-0.7-12.4c-0.7-9.3-5.1-17.8-12.3-23.3c5.1-3.1,9.9-6.2,15.1-9.3c17.8-11.3,36.4-23,62.4-26.8
		l27.1-3.8l-22.6-15.1c-7.2-4.8-15.1-8.9-23.3-11.3c35-17.2,74.1-49.8,85.7-138.3l3.4-27.8l-20.6,18.9c-5.5,4.8-11,9.6-16.8,14.4
		c2.4-3.8,4.5-7.9,6.9-12.7c8.9-19.2,16.8-38.8,23.7-58.7c3.1-8.6,6.2-17.8,9.9-27.4c14.7-39.5,19.6-92.6,19.6-94.7v-1.4
		c-0.3-10.6,0.3-20.9,1-31.2c1.4-14.4,1.4-29.2,0-43.6c5.8-8.9,11.3-18.2,16.5-27.4c5.5-9.6,11.3-19.6,17.5-29.2
		c23.7-29.9,36.4-79.6,48.4-127.6c10.3-40.5,19.9-78.6,34-94.7l17.5-20.2l-26.8,3.4c-3.8,0.3-6.9,1-9.9,1.4
		c12.3-20.2,23.7-41.5,32.9-63.1c24-52.8,9.3-172.2-12.3-223.7c-6.5-15.8-13.4-24.4-21.6-27.4C1452.6,350,1443,347.9,1433.7,347.9
		L1433.7,347.9z"/>
	<path class="st3" d="M1007.4,1421.9c-2.1-3.4-31.9-77.2-30.9-138.6c0.7-36.4,5.5-83,13.7-107.7c8.6,13.4,29.5,68.6,45.6,79.6
		c-16.1-38.8-31.6-120.4-32.9-146.9c-1-24.7-1.7-52.8,1-69.3c1.4-8.2,4.1-21.6,7.9-37.7c-1,39.1,0.3,83.7,8.9,112.9
		c-7.2-85.1-6.5-172.6,34.3-253.2c15.1-27.8,35-69,35-69s4.5-19.6,26.1-64.8c7.9-16.5,17.1-34,26.1-49.1c0.7,16.8,3.4,33.3,8.9,49.4
		c-2.4-22-3.4-41.2-3.8-58c13-22.3,23.7-38.8,23.7-38.8c9.6-19.2,22.6-35.7,32.2-54.9c0,0,30.5-63.1,49.7-89.2
		c7.5-10.3,15.8-19.9,24.4-29.2c-2.1,5.5-1.4,37.4,3.4,58.7c4.8-43.9,14.7-73.4,18.9-76.9c18.2-16.1,38.1-29.9,60-40.8
		c50.4-25.4,66.2-35.3,91.6-25.7c5.5,2.1,11,11.3,15.8,24.7c-11.7,7.9-23,16.5-33.6,25.7c12.3-6.9,24-13.4,35.7-19.9
		c16.1,51.8,24.4,154.1,4.5,198.3c-26.8,58.7-65.2,103.3-76.8,111.5c23,1.7,35.3-18.2,58.7-21.3c-18.9,24.7-29.2,92.3-47.7,147.5
		c-21.6,30.5-44.6,57.6-64.8,71.4c17.5-7.2,37.4-26.4,56.9-50.8c-5.1,13-12,25.7-20.6,37.1l-29.5,44.3c-2.7,4.1-20.6,20.6-39.8,41.2
		c13.4-8.9,24.4-16.8,32.9-19.6c0.7,21.6,0.3,47.4,1,69c0,0-4.5,51.5-18.2,88.5c-12,32.3-21.3,63.8-32.6,86.5
		c-19.2,38.4-79.9,84.4-106.3,121.8c41.5-34.3,99.1-48.4,123.1-74.8c-1.4,8.9-3.8,17.5-6.9,25.7c-14.7,12.4-31.2,25.7-50.4,39.8
		c16.5-8.2,32.2-17.8,46.6-29.5c-27.8,60.4-91.2,62.1-145.4,105.3c25.4,3.4,56.3-22,86.1-11c-29.2,7.5-82,57-137.5,53.5
		c8.2,14.8,58.3-12,78.2,6.9c-43.9-5.8-56.6,14.4-80.9,24.4c31.9-5.1,49,13,69.3,15.1c-25.7,14.8-63.5-24-105.6,35
		c-1.4,1.7-4.5,53.2-5.8,54.9c-8.6-2.7-14.1-37.1-22.3-44.3c-0.7-0.7-2.4-23.3-3.1-24c-24.7-23.3-47.7-54.6-73.4-23.7
		c11-30.2,36.7-28.1,55.6-21.3c-15.8-30.9-43.9-42.5-76.5-57.6C963.8,1394.8,999.1,1416.7,1007.4,1421.9L1007.4,1421.9z"/>
	<path class="st4" d="M1130.5,1199.2c32.9-66.2,113.9-52.2,151.9-158.9C1249.9,1124.4,1154.5,1130.2,1130.5,1199.2z"/>
	<path class="st4" d="M1257.4,718.8c45.6-58,122.1-28.1,181.1-124.6C1389.1,669.8,1294.8,656.4,1257.4,718.8z"/>
	<path class="st4" d="M1341.4,524.3c28.1-27.1,54.2-54.9,103.9-86.5c-14.7,6.9-55.6,28.1-98.1,76.2c27.4-49.4,58.3-96.8,92.3-141.7
		c-75.1,70.3-141.3,170.5-197.2,288.9c-1.7-10.3-0.7-27.1,8.2-89.6c-19.6,65.5-23.7,113.6-31.2,140.3c-8.6,19.9-16.8,40.1-25,60.7
		c-2.7-44.6,7.2-136.9,40.5-221c-49.4,118.4-48.7,205.2-46.3,236.1c-16.1,41.9-30.9,85.1-44.6,129.7c-2.4-51.8-35-102.9-24.4-169.8
		c-17.1,85.8,17.5,125.6,22,177c-13,41.9-24.7,84.7-35.7,128c-14.4-29.9-28.5-100.2-20.6-169.8c-16.1,94,7.2,157.5,17.8,180.1
		c-21.6,86.8-39.1,175.7-52.1,263.9c-5.5-6.5-11.3-17.8-27.8-68.3c7.9,46.7,18.5,79.3,23.3,100.9c-2.7,20.6-5.5,40.8-7.9,61.1
		l-1,8.9c-10.6,90.6-16.1,181.5-17.1,272.8c-0.3,32.9,1.4,46,21.6,6.9c11.3-22.3,19.9-52.8,24.4-79.9
		c2.7-108.1,12.3-215.5,28.8-322.2c29.8-42.2,108-115.3,213.3-171.2c-136.2,70.3-191.4,129.7-210.9,155.4
		c13.7-88.9,32.6-180.8,55.9-272.4c23-26.8,74.1-66.6,139.9-94.4c-82.3,28.8-120.7,61.8-135.5,77.9c13-49.4,27.4-98.8,43.2-147.2
		c8.9-12.7,25.4-28.1,57.6-47.4c-18.5,6.2-35.7,15.4-51.1,27.4c29.2-87.8,64.5-173.6,105.6-256.7c11-12.4,30.5-27.8,70.3-46
		c-20.9,5.5-41.2,13.7-59.7,24.7C1329.8,545.9,1335.6,534.9,1341.4,524.3z M1057.4,1620.5l-17.1,72.7c-9.3,22.3-12,25.7-11.7,0
		c6.9-461.8,150.2-1005,370.8-1275.4C1180.9,734.6,1064,1241.4,1057.4,1620.5z"/>
	<path class="st3" d="M1378.1,661.5c-47.7,54.6-76.1,25.4-118.3,62.8C1293.8,670.8,1332.5,701.3,1378.1,661.5z"/>
	<path class="st3" d="M1265,1171.7c-52.1,47.4-103.6,74.8-158.1,130.4C1122.6,1278.5,1174.4,1221.2,1265,1171.7z"/>
</g>
</svg>
