<?xml version="1.0" encoding="utf-8"?>
<!-- Generator: Adobe Illustrator 22.0.1, SVG Export Plug-In . SVG Version: 6.00 Build 0)  -->
<svg version="1.1" id="Layer_1" xmlns="http://www.w3.org/2000/svg" xmlns:xlink="http://www.w3.org/1999/xlink" x="0px" y="0px"
	 viewBox="0 0 735 852" style="enable-background:new 0 0 735 852;" xml:space="preserve">
<style type="text/css">
	.st0{fill:#144F85;}
	.st1{fill:#173E6C;}
	.st2{fill:#E6B35A;}
	.st3{fill:#FFFFFF;}
	.st4{fill:#231F20;}
</style>
<path class="st0" d="M18.2,626.4V223.1l51.6-29.8L367.5,21.5l0,0l296.7,171.3l52.6,30.3v403.3L367.5,828L18.2,626.4z"/>
<title>feather</title>
<path class="st1" d="M705.6,196.2L427.8,35.8L367.5,1l-60.3,34.8L29.4,196.2L0.1,213.1v424.2l29.3,16.9l281.3,162.4l56.9,32.8
	l56.9-32.8l281.3-162.4l29.3-16.9V213.1L705.6,196.2z M705.6,621.5L367.5,816.7L29.4,621.5V231L367.5,35.8l0,0L705.6,231V621.5z"/>
<path class="st2" d="M367,633.9c0.3-0.3,0.6-0.6,0.9-0.9h-0.3C367.5,633.3,367.3,633.6,367,633.9z"/>
<path class="st3" d="M158.2,594.9v-66.7h-10.9v-10.7h10.9v-3.7c0-10.9,2.4-20.8,9-27c5.1-4.8,11.9-7.3,18.9-7.2
	c4.1,0,8.2,0.7,12,2.2l-1.9,10.9c-2.8-1.2-5.9-1.8-9-1.8c-12,0-15,10.6-15,22.4v4.2h18.7v10.7h-18.8v66.7L158.2,594.9z"/>
<path class="st3" d="M204.1,558.7c0.3,19,12.5,26.9,26.6,26.9c10.1,0,16.2-1.8,21.4-4l2.4,10.1c-5,2.2-13.4,4.8-25.8,4.8
	c-23.8,0-38.1-15.7-38.1-39s13.8-41.8,36.3-41.8c25.3,0,32,22.2,32,36.5c0,2.2-0.2,4.4-0.5,6.6H204.1z M245.4,548.6
	c0.2-9-3.7-22.9-19.5-22.9c-14.2,0-20.5,13.1-21.6,22.9H245.4z"/>
<path class="st3" d="M314.2,594.9l-1.1-9.8h-0.5c-4.3,6.1-12.6,11.5-23.7,11.5c-15.7,0-23.7-11-23.7-22.2c0-18.7,16.6-29,46.6-28.8
	V544c0-6.4-1.8-17.9-17.6-17.9c-7.1,0-14.1,2-20.2,5.8l-3.2-9.3c6.4-4.2,15.7-6.9,25.4-6.9c23.7,0,29.5,16.2,29.5,31.7v29
	c-0.1,6.2,0.3,12.4,1.3,18.5H314.2z M312.1,555.3c-15.4-0.3-32.8,2.4-32.8,17.4c0,9.1,6.1,13.5,13.3,13.5c8.4,0.2,16-5,18.7-13
	c0.5-1.4,0.8-3,0.8-4.5V555.3z"/>
<path class="st3" d="M359.6,495.2v22.2h20.2v10.7h-20.2v41.8c0,9.6,2.7,15,10.6,15c2.8,0,5.5-0.3,8.2-1l0.6,10.6
	c-4,1.4-8.2,2-12.5,1.9c-6.6,0-11.8-2.1-15.2-5.9c-4-4.2-5.4-11-5.4-20.2v-42.2h-12v-10.7h12v-18.6L359.6,495.2z"/>
<path class="st3" d="M390.5,481.3h14.1v48.3h0.3c2.4-4.2,5.9-7.6,10.1-9.9c4.4-2.6,9.3-3.9,14.4-4c10.4,0,27,6.4,27,33.1v46.1h-14
	v-44.5c0-12.5-4.6-23-17.9-23c-9.1,0-16.3,6.4-18.9,14.1c-0.8,2.1-1.1,4.4-1,6.7v46.7h-14V481.3z"/>
<path class="st3" d="M482,558.7c0.3,19,12.5,26.9,26.6,26.9c10.1,0,16.2-1.8,21.4-4l2.4,10.1c-5,2.2-13.4,4.8-25.8,4.8
	c-23.8,0-38.1-15.7-38.1-39s13.8-41.8,36.3-41.8c25.3,0,32,22.2,32,36.5c0,2.2-0.2,4.4-0.5,6.6H482z M523.3,548.6
	c0.2-9-3.7-22.9-19.5-22.9c-14.2,0-20.5,13.1-21.6,22.9H523.3z"/>
<path class="st3" d="M549.2,541.6c0-9.1-0.2-17-0.6-24.2h12.3l0.5,15.2h0.6c3.5-10.4,12-17,21.4-17c1.3,0,2.7,0.1,4,0.5v13.3
	c-1.6-0.3-3.2-0.5-4.8-0.5c-9.9,0-17,7.5-18.9,18.1c-0.4,2.2-0.6,4.4-0.6,6.6v41.3h-13.9V541.6z"/>
<path class="st3" d="M365.5,797.3l4.5,4.5c1,1,1.9,1.9,2.7,2.9h0.1c-0.4-1.2-0.7-2.5-1-3.8l-1.4-6.3l1.6-0.9l4.7,4.3
	c1.1,1,2.1,2,2.9,2.9h0.1c-0.5-1.3-0.9-2.6-1.2-3.9l-1.6-6.1l1.9-1.1l2.7,12.4l-1.7,1l-4.5-4.1c-1-0.9-2-1.9-2.9-2.9h0
	c0.4,1.3,0.8,2.6,1.1,4l1.2,6l-1.7,1l-9.2-8.6L365.5,797.3z"/>
<path class="st3" d="M381.7,787.9l4.5,4.5c1,1,1.9,1.9,2.7,2.9h0.1c-0.4-1.2-0.7-2.5-1-3.8l-1.4-6.3l1.6-0.9l4.7,4.3
	c1.1,1,2.1,2,2.9,2.9h0.1c-0.5-1.3-0.9-2.6-1.2-3.9l-1.6-6.1l1.9-1.1l2.7,12.4l-1.7,1l-4.5-4.1c-1-1-2-1.8-2.9-2.9l0,0
	c0.4,1.3,0.8,2.6,1.1,4l1.2,6l-1.7,1l-9.3-8.7L381.7,787.9z"/>
<path class="st3" d="M397.9,778.5l4.5,4.5c1,1,1.9,1.9,2.7,2.9h0.1c-0.4-1.2-0.7-2.5-1-3.8l-1.4-6.3l1.6-0.9l4.7,4.3
	c1.1,1,2.1,2,2.9,2.9h0.1c-0.5-1.3-0.9-2.6-1.2-3.9l-1.6-6.1l1.9-1.1l2.7,12.4l-1.7,1l-4.5-4.1c-1-1-2-1.8-2.9-2.9l0,0
	c0.4,1.3,0.8,2.6,1.1,4l1.2,6l-1.7,1l-9.2-8.6L397.9,778.5z"/>
<path class="st3" d="M417.1,779.7c-0.5-0.7-0.3-1.6,0.4-2.1c0,0,0.1,0,0.1-0.1c0.7-0.4,1.6-0.2,2,0.5c0,0,0,0.1,0.1,0.1
	c0.5,0.7,0.3,1.6-0.4,2.1s-1.6,0.3-2.1-0.4C417.2,779.8,417.2,779.8,417.1,779.7z"/>
<path class="st3" d="M418.5,770.8c-0.7-1.2-1.4-2.3-2-3.2l1.7-1l1.3,2h0.1c-0.4-1.5,0.2-3.2,1.6-4c0.2-0.1,0.4-0.2,0.6-0.2l1,1.8
	c-0.2,0.1-0.5,0.2-0.7,0.3c-1.3,0.8-1.8,2.5-1.1,3.9c0.1,0.3,0.3,0.6,0.4,0.9l3.2,5.6l-1.9,1.1L418.5,770.8z"/>
<path class="st3" d="M428.4,772.1c1,0,2-0.2,3-0.7c1.4-0.8,1.6-1.9,1.1-2.7s-1.4-1.1-3.1-0.8c-2.3,0.4-3.8-0.1-4.5-1.3
	c-1-1.7-0.4-3.9,1.8-5.2c0.9-0.5,1.9-0.8,3-0.8l0.3,1.7c-0.9,0-1.7,0.2-2.5,0.6c-0.9,0.4-1.3,1.4-1,2.3c0,0,0,0.1,0.1,0.1
	c0.5,0.9,1.4,0.9,3,0.6c2.2-0.4,3.7,0,4.6,1.5c1.1,1.8,0.4,4-2.1,5.4c-1,0.6-2.2,1-3.4,1L428.4,772.1z"/>
<path class="st3" d="M432.8,754.1l1.8,3l2.7-1.6l0.8,1.4l-2.7,1.6l3.3,5.6c0.8,1.3,1.5,1.8,2.6,1.2c0.4-0.2,0.7-0.5,1-0.8l0.9,1.4
	c-0.4,0.5-0.9,0.9-1.5,1.2c-0.7,0.5-1.7,0.6-2.5,0.4c-1-0.5-1.9-1.3-2.3-2.3l-3.3-5.7l-1.6,0.9l-0.9-1.4l1.6-1l-1.5-2.5L432.8,754.1
	z"/>
<path class="st3" d="M452.6,756.8c0.6,1.1,1.2,2,1.7,2.8l-1.7,1l-1.1-1.6l0,0c0,1.7-0.9,3.2-2.3,4c-1.6,1-4.1,1.2-6.3-2.5l-3.6-6.1
	l1.9-1.1l3.3,5.8c1.1,2,2.5,3,4.3,2c1.1-0.7,1.7-1.9,1.5-3.2c-0.1-0.4-0.2-0.7-0.4-1.1l-3.7-6.4l1.9-1.1L452.6,756.8z"/>
<path class="st3" d="M457.5,737.2l7.4,12.6c0.5,0.9,1.2,2,1.7,2.7l-1.7,1l-1.1-1.8l0,0c0.1,1.7-0.8,3.3-2.4,4.1
	c-2.5,1.5-5.7,0.5-7.6-2.7c-2-3.5-1.1-6.9,1.4-8.3c1.2-0.8,2.8-0.9,4.1-0.2l0,0l-3.6-6.2L457.5,737.2z M460.9,747.5
	c-0.2-0.3-0.3-0.5-0.5-0.8c-1-1.1-2.7-1.4-4-0.6c-2,1.1-2.1,3.5-0.8,5.9c1.2,2.1,3.3,3.3,5.3,2.1c1.3-0.8,2-2.4,1.5-3.9
	c-0.1-0.3-0.2-0.6-0.4-0.9L460.9,747.5z"/>
<path class="st3" d="M463.9,736.1c0.3,0.7,0.1,1.5-0.6,1.8c-0.6,0.3-1.4,0.1-1.7-0.5c-0.4-0.6-0.2-1.5,0.5-1.9c0,0,0,0,0,0
	C462.6,735.2,463.5,735.4,463.9,736.1C463.9,736,463.9,736,463.9,736.1z M469.6,750.7l-6.1-10.5l1.9-1.1l6.1,10.5L469.6,750.7z"/>
<path class="st3" d="M481,736.9c2.2,3.9,0.5,7.1-2,8.6c-2.8,1.6-6.2,0.8-8.1-2.5c-2-3.5-0.9-6.9,2-8.6S479.1,733.8,481,736.9z
	 M472.8,741.9c1.3,2.3,3.6,3.2,5.5,2.2s2.2-3.6,0.8-5.9c-1-1.8-3.2-3.5-5.5-2.2S471.6,739.9,472.8,741.9L472.8,741.9z"/>
<path class="st3" d="M484.9,740.3c-0.5-0.7-0.3-1.6,0.4-2c0,0,0.1,0,0.1-0.1c0.7-0.5,1.7-0.3,2.2,0.5c0.5,0.7,0.3,1.7-0.5,2.2
	C486.3,741.3,485.4,741.1,484.9,740.3C484.9,740.3,484.9,740.3,484.9,740.3z"/>
<path class="st3" d="M497.7,733.8c-0.7,1-1.6,1.8-2.6,2.3c-3.1,1.8-6.5,0.9-8.3-2.3c-1.8-2.9-1-6.7,1.8-8.5c0.2-0.1,0.4-0.2,0.6-0.3
	c0.9-0.5,1.9-0.9,3-1l0.4,1.7c-0.9,0-1.7,0.3-2.5,0.8c-2.4,1.4-2.7,3.9-1.4,6.1c1.4,2.4,3.8,3,5.9,1.8c0.8-0.5,1.5-1.1,2-1.9
	L497.7,733.8z"/>
<path class="st3" d="M506.4,722.2c2.2,3.9,0.6,7.1-2,8.6c-2.8,1.7-6.2,0.8-8.1-2.5c-2-3.5-1-6.9,2-8.6S504.5,719,506.4,722.2z
	 M498.1,727.1c1.3,2.3,3.7,3.2,5.5,2.2s2.2-3.5,0.8-5.9c-1-1.8-3.2-3.5-5.5-2.2S497,725.1,498.1,727.1z"/>
<path class="st3" d="M507.4,718.5c-0.6-1.1-1.2-2-1.7-2.8l1.7-1l1.1,1.6h0.1c-0.1-1.6,0.8-3.1,2.2-3.8c1.3-0.8,3-0.6,4.2,0.4l0,0
	c0-0.7,0.1-1.4,0.4-2c0.4-0.9,1-1.6,1.9-2.1c1.4-0.8,4-1.1,6.1,2.5l3.6,6.2l-1.9,1.1l-3.4-5.9c-1.2-2-2.6-2.8-4.1-1.9
	c-1,0.6-1.5,1.8-1.2,3c0.1,0.4,0.2,0.7,0.4,1l3.8,6.5l-1.9,1.1l-3.6-6.3c-1-1.7-2.4-2.5-3.9-1.6c-1.1,0.7-1.6,2-1.2,3.3
	c0.1,0.4,0.2,0.7,0.4,1l3.7,6.3l-1.9,1.1L507.4,718.5z"/>
<path class="st3" d="M360.8,205.8c-31.7,78-51.7,152.8-59,238.5c-1.6,18.6-0.9,37.8-1.5,57.5c2.2-6.9,8.1-16.6,9.4-28.4
	C311.5,379.4,324,308.3,360.8,205.8L360.8,205.8z"/>
<path class="st4" d="M309.7,446.6v-0.1v-0.2l0-0.2c0.3-1.4,0-2.9-0.9-4c-0.7-0.9-1.8-1.4-3-1.4h-0.4c-1.3,0.1-4.2,0.4-4.6,2
	l-0.6,2.6l-1.9-1.9l-1.9-2c-3.8-4-7.4-7.7-10.8-7.7c-2.1,0-4.2,1.4-6.4,4.4l-2.7,3.5V437c-0.2-4.3,1.4-8.5,4.3-11.7
	c1.8-1.8,4.1-3,6.6-3.4c-4.5-4-9.5-6.2-16.4-9.3l-5-2.3l1.7-1.5c2.8-2.4,6.4-3.7,10.1-3.6c2.9,0.1,5.8,0.6,8.6,1.7
	c-3.6-7.6-5.7-17-6-27.5c0.2-11.1,2.2-36.5,6.1-45.1l1.5-3.4l1.2,3.5c0.1,0.4,0.3,0.8,0.4,1.2c-2-10.8-2.4-21.6-1-30.7
	c1.5-10,10.5-46.3,15.3-55c4.3-7.8,10-19.3,10.6-20.7c0.3-1.1,2-7.2,8-19.8c6.3-13.1,16-28.2,16.8-29.4c1.5-3,3.2-5.7,4.8-8.4
	s3.3-5.4,4.7-8.3c0.4-0.8,10-18.9,15.9-26.8l0.6-0.8c2.3-3.3,4.9-6.4,7.5-9.4l3-3.1l-0.4,3.6c0.8-1.5,2.1-2.7,3.6-3.4
	c0.2-0.1,0.3-0.2,0.5-0.3c5.2-4.7,11.1-8.7,17.4-11.8c10-5,15.7-7.4,20.8-7.4c2.7,0.1,5.3,0.6,7.7,1.6c1.9,0.7,3.7,3,5.4,7.2
	c6.2,14.8,10.2,49.4,3.6,64c-5,10.9-8.5,17-11.6,21.3c2.1-0.6,4.3-1,6.5-1.2l3.9-0.5l-2.5,3c-4.4,5-7.2,16.3-10.2,28.2
	c-3.5,13.9-7.2,28.3-13.9,36.7c-1.9,2.8-3.6,5.7-5.2,8.6s-3.2,5.6-5,8.3c0.4,4.3,0.4,8.7,0,13c-0.2,3.1-0.3,6.1-0.3,9.2v0.2
	c0,0.6-1.4,16-5.6,27.2c-1,2.8-2,5.5-2.9,8c-1.9,5.8-4.2,11.5-6.8,17c-2,4.2-4.6,8-7.8,11.5c4.6-3.1,8.9-6.5,13-10.2l3-2.8l-0.5,4.1
	c-3.7,29.1-18,36.9-28.8,41.2c4.1,0.1,8,1.4,11.3,3.8l3.3,2.2l-3.9,0.5c-7.9,1.1-13.5,4.6-18.8,8c-2.1,1.4-4.4,2.7-6.7,3.9
	c2.9,1.1,4.9,3.8,5.2,7l0.1,1.8l-1.8-0.2c-3.1-0.4-6.2-0.6-9.3-0.6c-2.5-0.1-4.9,0.3-7.2,1.1c1.9,0.5,3.8,1.2,5.6,2
	c2.3,1.1,4.8,1.8,7.3,1.9h1.7l-0.2,1.7c-0.8,6-7,6-9.9,6c-1.1,0-2.3,0-3.5-0.1s-2.6-0.1-4-0.1c-6.5,0-13,1.1-16.5,8.7l-2.3,5
	L309.7,446.6z"/>
<path class="st4" d="M418,105.3c2.5,0.1,4.9,0.6,7.2,1.5c7.8,2.9,16.3,51.3,8.1,69.1s-12.4,22.8-17.5,27.8c5.5-4,6.7-4.7,13.9-5.6
	c-9.7,11.2-11.8,49.5-24.2,65c-3.9,5.7-6.7,11.7-10.6,17.4c1,8.1-0.5,14.7-0.2,22.6c0,0-1.4,15.6-5.5,26.9
	c-3.6,9.8-6.1,17.9-9.6,24.8c-5.9,11.7-11,13.9-17.7,20.6c9.1-4.8,17.6-10.7,25.3-17.5c-5.1,39.4-29.3,38.3-38.6,44.8
	c3.5-1.1,7.2-1.7,10.9-1.9c3.9,0,7.7,1.3,10.9,3.6c-14.8,2-21.8,12.4-31.8,14.1c0.6-0.1,1.2-0.1,1.8-0.1c4.9,0,8.2,2.8,8.5,6.5
	c-3.1-0.4-6.3-0.6-9.5-0.7c-4.2-0.2-8.4,0.9-11.9,3.2c8.3,0.9,11.5,4.7,17.6,4.8c-0.6,4-3.9,4.7-8.4,4.7c-2.3,0-4.9-0.2-7.5-0.2
	c-6.8,0-14.1,1.2-17.9,9.6c0,0,0-0.1,0-0.1c0.7-3.3-1.2-7.2-5.4-7.2h-0.5c-2.8,0.2-5.5,1-6,3.1c-4.9-5-9.2-10.1-13.8-10.1
	c-2.4,0-4.9,1.4-7.6,5c0-8.8,5.5-13.7,10.8-13.7c0.9,0,1.9,0.2,2.7,0.5c-6.2-6.8-12.7-9.3-22.7-13.9c2.5-2.2,5.8-3.4,9.1-3.3
	c4.3,0.2,8.4,1.4,12.1,3.6c-1.4-2.2-7.5-12.1-8-30.9c0.2-11.1,2.2-36.1,5.9-44.5c1.3,3.6,3.8,10.2,6.9,14.7
	c-4.4-13.5-6.7-30.3-4.5-44.5c1.6-10.2,10.5-46.1,15.1-54.5s10.7-20.9,10.7-20.9s1.4-6,8-19.7c5.1-10.1,10.7-19.9,16.8-29.3
	c2.9-5.9,6.7-10.9,9.6-16.7c0,0,9.8-18.7,15.7-26.6c2.5-3.5,5.2-6.8,8-10c-0.3,3.7-0.3,7.4-0.1,11.1c1.5-13.3,5.5-13.3,6.7-14.4
	c5.1-4.7,10.9-8.6,17.1-11.6C408.2,107.5,413.4,105.4,418,105.3 M418.1,102.4c-5.4,0-11.2,2.4-21.4,7.5c-6.4,3.1-12.4,7.1-17.6,11.9
	l-0.3,0.2c-0.3,0.2-0.6,0.4-1,0.6l0.4-3.5l-6.1,6.2c-2.7,3-5.3,6.2-7.7,9.5l-0.6,0.8c-6,8-15.6,26.2-16,27l0,0l0,0
	c-1.4,2.8-3,5.4-4.7,8.1s-3.4,5.4-4.9,8.4c-6.2,9.5-11.8,19.4-16.9,29.5c-5.8,12.1-7.7,18.4-8.1,19.9c-0.9,1.9-6.4,13-10.5,20.5
	c-4.8,8.8-13.9,45.4-15.4,55.5c-1.1,8.1-1.1,16.3-0.1,24.4l-2.1,4.6c-4.4,9.7-6.1,36.9-6.2,45.6v0.1c0.2,8.5,1.8,17,4.8,25
	c-1.9-0.5-3.9-0.8-5.9-0.8c-4.1-0.1-8,1.3-11.1,4l-3.5,3.1l4.2,1.9l2.9,1.3c5.6,2.5,9.9,4.5,13.7,7.3c-1.7,0.7-3.2,1.7-4.4,3
	c-3.2,3.5-4.9,8.1-4.7,12.9v8.9l5.4-7.1c1.9-2.5,3.7-3.8,5.2-3.8c2.7,0,6.3,3.7,9.7,7.3c0.6,0.7,1.3,1.3,1.9,2l3.8,3.8l1.3-5.2l0,0
	c0,0,0.6-0.7,3.3-0.9h0.3c0.7,0,1.4,0.3,1.9,0.8c0.6,0.8,0.8,1.8,0.6,2.8l-0.1,0.5l0.1,0.5v0.2l1.2,10.8l4.5-10
	c3-6.5,8.2-7.8,15.2-7.8c1.3,0,2.6,0,3.9,0.1s2.4,0.1,3.6,0.1c3.1,0,10.4,0,11.4-7.3l0.5-3.4H345c-2.4,0-4.3-0.8-6.8-1.8l-0.4-0.1
	c0.5,0,0.9,0,1.5,0c3.1,0,6.1,0.3,9.2,0.6l3.5,0.4l-0.2-3.6c-0.2-2.7-1.5-5.2-3.6-6.8c1.5-0.9,2.9-1.8,4.4-2.7
	c5.2-3.3,10.6-6.7,18.2-7.8l7.9-1.1l-6.6-4.4c-2.1-1.4-4.4-2.6-6.8-3.3c10.2-5,21.6-14.5,25-40.3l1-8.1l-6,5.5
	c-1.6,1.4-3.2,2.8-4.9,4.2c0.7-1.1,1.3-2.3,2-3.7c2.6-5.6,4.9-11.3,6.9-17.1c0.9-2.5,1.8-5.2,2.9-8c4.3-11.5,5.7-27,5.7-27.6v-0.4
	c-0.1-3.1,0.1-6.1,0.3-9.1c0.4-4.2,0.4-8.5,0-12.7c1.7-2.6,3.3-5.3,4.8-8c1.6-2.8,3.3-5.7,5.1-8.5c6.9-8.7,10.6-23.2,14.1-37.2
	c3-11.8,5.8-22.9,9.9-27.6l5.1-5.9l-7.8,1c-1.1,0.1-2,0.3-2.9,0.4c3.6-5.9,6.9-12.1,9.6-18.4c7-15.4,2.7-50.2-3.6-65.2
	c-1.9-4.6-3.9-7.1-6.3-8C423.6,103,420.8,102.4,418.1,102.4L418.1,102.4z"/>
<path class="st3" d="M293.8,415.4c-0.6-1-9.3-22.5-9-40.4c0.2-10.6,1.6-24.2,4-31.4c2.5,3.9,8.6,20,13.3,23.2
	c-4.7-11.3-9.2-35.1-9.6-42.8c-0.3-7.2-0.5-15.4,0.3-20.2c0.4-2.4,1.2-6.3,2.3-11c-0.3,11.4,0.1,24.4,2.6,32.9
	c-2.1-24.8-1.9-50.3,10-73.8c4.4-8.1,10.2-20.1,10.2-20.1s1.3-5.7,7.6-18.9c2.3-4.8,5-9.9,7.6-14.3c0.2,4.9,1,9.7,2.6,14.4
	c-0.7-6.4-1-12-1.1-16.9c3.8-6.5,6.9-11.3,6.9-11.3c2.8-5.6,6.6-10.4,9.4-16c0,0,8.9-18.4,14.5-26c2.2-3,4.6-5.8,7.1-8.5
	c-0.6,1.6-0.4,10.9,1,17.1c1.4-12.8,4.3-21.4,5.5-22.4c5.3-4.7,11.1-8.7,17.5-11.9c14.7-7.4,19.3-10.3,26.7-7.5
	c1.6,0.6,3.2,3.3,4.6,7.2c-3.4,2.3-6.7,4.8-9.8,7.5c3.6-2,7-3.9,10.4-5.8c4.7,15.1,7.1,44.9,1.3,57.8c-7.8,17.1-19,30.1-22.4,32.5
	c6.7,0.5,10.3-5.3,17.1-6.2c-5.5,7.2-8.5,26.9-13.9,43c-6.3,8.9-13,16.8-18.9,20.8c5.1-2.1,10.9-7.7,16.6-14.8
	c-1.5,3.8-3.5,7.5-6,10.8l-8.6,12.9c-0.8,1.2-6,6-11.6,12c3.9-2.6,7.1-4.9,9.6-5.7c0.2,6.3,0.1,13.8,0.3,20.1c0,0-1.3,15-5.3,25.8
	c-3.5,9.4-6.2,18.6-9.5,25.2c-5.6,11.2-23.3,24.6-31,35.5c12.1-10,28.9-14.1,35.9-21.8c-0.4,2.6-1.1,5.1-2,7.5
	c-4.3,3.6-9.1,7.5-14.7,11.6c4.8-2.4,9.4-5.2,13.6-8.6c-8.1,17.6-26.6,18.1-42.4,30.7c7.4,1,16.4-6.4,25.1-3.2
	c-8.5,2.2-23.9,16.6-40.1,15.6c2.4,4.3,17-3.5,22.8,2c-12.8-1.7-16.5,4.2-23.6,7.1c9.3-1.5,14.3,3.8,20.2,4.4
	c-7.5,4.3-18.5-7-30.8,10.2c-0.4,0.5-1.3,15.5-1.7,16c-2.5-0.8-4.1-10.8-6.5-12.9c-0.2-0.2-0.7-6.8-0.9-7
	c-7.2-6.8-13.9-15.9-21.4-6.9c3.2-8.8,10.7-8.2,16.2-6.2c-4.6-9-12.8-12.4-22.3-16.8C281.1,407.5,291.4,413.9,293.8,415.4
	L293.8,415.4z"/>
<path class="st4" d="M329.7,350.5c9.6-19.3,33.2-15.2,44.3-46.3C364.5,328.7,336.7,330.4,329.7,350.5z"/>
<path class="st4" d="M366.7,210.5c13.3-16.9,35.6-8.2,52.8-36.3C405.1,196.2,377.6,192.3,366.7,210.5z"/>
<path class="st4" d="M391.2,153.8c8.2-7.9,15.8-16,30.3-25.2c-4.3,2-16.2,8.2-28.6,22.2c8-14.4,17-28.2,26.9-41.3
	c-21.9,20.5-41.2,49.7-57.5,84.2c-0.5-3-0.2-7.9,2.4-26.1c-5.7,19.1-6.9,33.1-9.1,40.9c-2.5,5.8-4.9,11.7-7.3,17.7
	c-0.8-13,2.1-39.9,11.8-64.4c-14.4,34.5-14.2,59.8-13.5,68.8c-4.7,12.2-9,24.8-13,37.8c-0.7-15.1-10.2-30-7.1-49.5
	c-5,25,5.1,36.6,6.4,51.6c-3.8,12.2-7.2,24.7-10.4,37.3c-4.2-8.7-8.3-29.2-6-49.5c-4.7,27.4,2.1,45.9,5.2,52.5
	c-6.3,25.3-11.4,51.2-15.2,76.9c-1.6-1.9-3.3-5.2-8.1-19.9c2.3,13.6,5.4,23.1,6.8,29.4c-0.8,6-1.6,11.9-2.3,17.8l-0.3,2.6
	c-3.1,26.4-4.7,52.9-5,79.5c-0.1,9.6,0.4,13.4,6.3,2c3.3-6.5,5.8-15.4,7.1-23.3c0.8-31.5,3.6-62.8,8.4-93.9
	c8.7-12.3,31.5-33.6,62.2-49.9c-39.7,20.5-55.8,37.8-61.5,45.3c4-25.9,9.5-52.7,16.3-79.4c6.7-7.8,21.6-19.4,40.8-27.5
	c-24,8.4-35.2,18-39.5,22.7c3.8-14.4,8-28.8,12.6-42.9c2.6-3.7,7.4-8.2,16.8-13.8c-5.4,1.8-10.4,4.5-14.9,8
	c8.5-25.6,18.8-50.6,30.8-74.8c3.2-3.6,8.9-8.1,20.5-13.4c-6.1,1.6-12,4-17.4,7.2C387.8,160.1,389.5,156.9,391.2,153.8z
	 M308.4,473.3l-5,21.2c-2.7,6.5-3.5,7.5-3.4,0c2-134.6,43.8-292.9,108.1-371.7C344.4,215.1,310.3,362.8,308.4,473.3z"/>
<path class="st3" d="M401.9,193.8c-13.9,15.9-22.2,7.4-34.5,18.3C377.3,196.5,388.6,205.4,401.9,193.8z"/>
<path class="st3" d="M368.9,342.5c-15.2,13.8-30.2,21.8-46.1,38C327.4,373.6,342.5,356.9,368.9,342.5z"/>
</svg>
