<?xml version="1.0" encoding="UTF-8"?>
<svg id="Layer_1" xmlns="http://www.w3.org/2000/svg" version="1.1" viewBox="0 0 2521 2911">
  <!-- Generator: Adobe Illustrator 29.7.1, SVG Export Plug-In . SVG Version: 2.1.1 Build 8)  -->
  <defs>
    <style>
      .st0 {
        fill: #828e7b;
      }

      .st1 {
        fill: #4a664d;
      }

      .st2 {
        fill: #274e31;
      }

      .st3 {
        fill: #274d31;
      }

      .st4 {
        fill: #174124;
      }

      .st5 {
        fill: #b6eea0;
      }

      .st6 {
        fill: #a8a898;
      }

      .st7 {
        fill: #4c674e;
      }

      .st8 {
        fill: #123e20;
      }

      .st9 {
        fill: #95fe83;
      }

      .st10 {
        fill: #e9d6cc;
      }
    </style>
  </defs>
  <g id="Layer_11" data-name="Layer_1">
    <path class="st10" d="M1260.5,0L0,727.7v1455.5l1260.8,727.7,1260.2-727.3V727.7L1260.5,0Z"/>
  </g>
  <g id="Layer_12" data-name="Layer_1">
    <path class="st2" d="M1260.5,127l1150.5,664.2v1328.9l-1150.2,663.8L109.9,2119.7V791.2L1260.5,127M1260.5,0L0,727.7v1455.5l1260.8,727.7,1260.2-727.3V727.7L1260.5,0h0Z"/>
  </g>
  <g>
    <g>
      <g id="Layer_13" data-name="Layer_1">
        <path class="st8" d="M809.7,707.1l-122.4,70.8v141.6l122.4,70.8,122.3-70.8v-141.7l-122.4-70.8Z"/>
      </g>
      <g id="Layer_14" data-name="Layer_1">
        <path class="st8" d="M951.1,942.9l-122.4,70.8v141.6l122.4,70.8,122.3-70.8v-141.7l-122.4-70.8Z"/>
      </g>
    </g>
    <g id="Layer_15" data-name="Layer_1">
      <path class="st6" d="M809.6,1650.3l-122.4,70.8v141.6l122.4,70.8,122.3-70.8v-141.7l-122.4-70.8Z"/>
    </g>
    <g>
      <g id="Layer_16" data-name="Layer_1">
        <path class="st5" d="M1224.4,1414.5l-122.4,70.8v141.6l122.4,70.8,122.3-70.8v-141.7l-122.4-70.8Z"/>
      </g>
      <g>
        <g id="Layer_17" data-name="Layer_1">
          <path class="st3" d="M1356.4,1650.3l-122.4,70.8v141.6l122.4,70.8,122.3-70.8v-141.7l-122.4-70.8Z"/>
        </g>
        <g id="Layer_18" data-name="Layer_1">
          <path class="st8" d="M1083,1650.3l-122.4,70.8v141.6l122.4,70.8,122.3-70.8v-141.7l-122.4-70.8Z"/>
        </g>
      </g>
    </g>
    <g id="Layer_19" data-name="Layer_1">
      <path class="st9" d="M1224.4,942.9l-122.4,70.8v141.6l122.4,70.8,122.3-70.8v-141.7l-122.4-70.8Z"/>
    </g>
    <g id="Layer_110" data-name="Layer_1">
      <path class="st8" d="M1356.4,1178.7l-122.4,70.8v141.6l122.4,70.8,122.3-70.8v-141.7l-122.4-70.8Z"/>
    </g>
    <g>
      <g id="Layer_111" data-name="Layer_1">
        <path class="st8" d="M1752.1,1391.2v-141.7l-122.3-70.8-122.4,70.8v141.6l122.4,70.8,122.4-70.8Z"/>
      </g>
      <g>
        <g id="Layer_112" data-name="Layer_1">
          <path class="st7" d="M1893.5,1155.4v-141.7l-122.3-70.8-122.4,70.8v141.6l122.4,70.8,122.4-70.8Z"/>
        </g>
        <g id="Layer_113" data-name="Layer_1">
          <path class="st0" d="M1620.1,1155.4v-141.7l-122.3-70.8-122.4,70.8v141.6l122.4,70.8,122.4-70.8Z"/>
        </g>
      </g>
    </g>
    <g>
      <g id="Layer_114" data-name="Layer_1">
        <path class="st8" d="M1073.4,1627v-141.7l-122.3-70.8-122.4,70.8v141.6l122.4,70.8,122.4-70.8Z"/>
      </g>
      <g>
        <g id="Layer_115" data-name="Layer_1">
          <path class="st1" d="M1205.4,1391.2v-141.7l-122.3-70.8-122.4,70.8v141.6l122.4,70.8,122.4-70.8Z"/>
        </g>
        <g id="Layer_116" data-name="Layer_1">
          <path class="st8" d="M932,1391.2v-141.7l-122.3-70.8-122.4,70.8v141.6l122.4,70.8,122.4-70.8Z"/>
        </g>
      </g>
    </g>
  </g>
  <g>
    <path class="st4" d="M1464.4,2513.6c-3.9,2.2-7.6,4-11.3,5.2-3.6,1.3-6.9,2.2-9.9,2.7l-12-21c3.3-.5,6.5-1.3,9.6-2.2,3.2-.9,6.3-2.3,9.5-4.1,7.4-4.2,11.4-10.4,12.1-18.6.7-8.2-.8-18.6-4.7-31.1l-58.5-182.5-28.5,16.2-3.9-11.8,25.1-26.4-5.4-17.9c-3.5-11.4-5.6-21.6-6.3-30.3-.7-8.8,0-16.4,2-23.1,2-6.6,5.4-12.5,10.2-17.6,4.8-5.1,11-9.8,18.5-14.1,5-2.8,10.4-5.2,16.3-7,5.9-1.8,10.9-2.9,15-3.3l4.4,22.6c-3.6.6-7.3,1.5-11.2,2.5-3.9,1.1-7.8,2.8-11.8,5-8.5,4.8-13.7,11-15.9,18.4-2.1,7.5-.9,18.4,3.6,32.8l5.6,18.5,35.2-20.1,7.2,21-35.4,20.2,59.6,185.7c3.8,12.3,6,23.5,6.3,33.7.4,10.1-1.5,19.1-5.5,26.8-4,7.8-10.7,14.3-20,19.6ZM1487.7,2148.4c-4,2.3-8,3-11.9,2.1-4-.8-7.2-3.4-9.6-7.7-1.9-3.3-3-6.7-3.3-10.4-.3-3.6.3-7.1,1.9-10.3,1.5-3.2,4.2-5.8,7.8-7.9,4.4-2.5,8.3-3.2,11.8-2.2,3.5,1,6.4,3.6,8.7,7.7,3.3,5.9,4.3,11.5,2.9,16.9-1.4,5.4-4.2,9.3-8.4,11.7ZM1541.6,2372.3l-58.4-183.3,24.9-14.2,58.4,183.3-24.9,14.2Z"/>
    <path class="st4" d="M1611.7,2332.4l-82.8-260.4,24.8-14.1,82.9,260.3-24.9,14.2Z"/>
    <path class="st4" d="M1733.6,2266.9c-10.8,6.2-21.4,8.7-31.5,7.6-10.2-1.1-18.9-8-26.2-20.8-1.8-3.1-3.5-6.6-5.1-10.4-1.7-3.9-3.2-8-4.5-12.4l-32.9-102.4-25.2,14.4-4.2-12.8,21.2-25.9-1.8-44.8,14.8-8.4,13.2,42.3,42.1-24,6.9,21.2-41.9,23.9,32.9,102.8c.9,3.2,2,6.5,3.2,10,1.3,3.5,2.7,6.7,4.4,9.6,2.8,5,6.5,8.4,11,10.2,4.5,1.9,9.8,1.1,15.8-2.4,3.8-2.2,7.2-4.6,10.2-7.2,3-2.7,6.1-5.7,9.3-9.2l10.9,19.1c-1.8,2.6-4.9,5.9-9.3,9.9-4.4,4-8.8,7.3-13.3,9.8Z"/>
    <path class="st4" d="M1780.5,2236.2l-58.4-183.3,20.3-11.6,14.1,33.8,1.5-.9c.9-8.1,2.3-16.1,4-24.1,1.7-8,4.7-15.5,8.9-22.4,4.2-6.9,10.3-12.6,18.2-17.1,3-1.7,6.1-3.3,9.4-4.7,3.3-1.4,6.5-2.5,9.6-3.2l7.3,25.3c-3,.9-5.9,2-8.6,3.1-2.7,1.1-5.4,2.5-8.1,4-7.6,4.3-13.5,10.3-17.7,17.9-4.2,7.6-7,16.2-8.4,25.6-1.4,9.5-1.5,19.3-.5,29.3,1.1,10.1,3.1,19.8,6,29.2l27.2,84.7-24.9,14.2Z"/>
    <path class="st4" d="M1959.8,2137.1c-12.5,7.1-24.8,10.7-36.8,10.8-12,0-23-3.3-33.2-9.9-10.2-6.6-18.9-16.4-26.2-29.2-5.9-10.3-10.6-21.2-14-32.6-3.5-11.4-5.5-22.9-6.2-34.4-.7-11.6.4-22.7,3-33.4,2.7-10.7,7.2-20.5,13.6-29.3,6.4-8.9,14.9-16.3,25.6-22.4,12.7-7.3,25.1-10.9,37-10.9,11.9,0,23,3.3,33.2,10,10.2,6.7,19,16.5,26.4,29.4,5.8,10.1,10.4,20.9,13.9,32.2,3.5,11.3,5.6,22.7,6.3,34.3.7,11.5-.3,22.6-3,33.3-2.7,10.7-7.2,20.5-13.7,29.4-6.4,8.9-15.1,16.5-25.9,22.7ZM1949.6,2115.7c6.2-3.5,11.3-8.2,15.4-13.9,4.1-5.8,7-12.4,8.8-19.9,1.8-7.5,2.3-15.8,1.6-24.8-.7-9-2.7-18.6-6.1-28.7-3.3-10.1-8.1-20.6-14.2-31.4-3.7-6.5-8.4-12.1-14.1-16.8-5.7-4.8-12.3-7.7-19.6-8.7-7.3-1-15.2.9-23.7,5.7-7,4-12.6,9.1-16.9,15.3-4.3,6.3-7.2,13.4-8.9,21.3-1.7,7.9-2.1,16.4-1.2,25.4.8,9,2.8,18.3,6,27.8,3.1,9.5,7.4,19,12.8,28.5,7.4,13,16.4,21.3,26.9,24.9,10.5,3.6,21.6,2,33.3-4.7Z"/>
  </g>
</svg>