<?xml version="1.0" encoding="utf-8"?>
<!-- Generator: Adobe Illustrator 26.4.1, SVG Export Plug-In . SVG Version: 6.00 Build 0)  -->
<svg version="1.1" id="Layer_1" xmlns="http://www.w3.org/2000/svg" xmlns:xlink="http://www.w3.org/1999/xlink" x="0px" y="0px"
	 viewBox="0 0 2521 2911" style="enable-background:new 0 0 2521 2911;" xml:space="preserve">
<style type="text/css">
	.st0{fill:#361132;}
	.st1{fill:#F1E8E6;}
	.st2{fill:#F59C1C;}
	.st3{fill:#ED8E87;}
	.st4{fill:#844C80;}
	.st5{fill:url(#SVGID_1_);}
</style>
<g>
	<path class="st0" d="M2072.3,1839.6c-9.6-18.9-24.4-28.1-44.6-28.1c-12,0-22,3.8-30.2,10.6c-8.2,7.2-14.8,16.1-19.9,26.4
		c-5.1,10.3-8.9,21.6-11.3,33.6c-2.4,12-3.4,22.3-3.4,31.6h123.9C2086.7,1883,2081.9,1858.4,2072.3,1839.6z"/>
	<path class="st0" d="M1127.4,1811.8c-12,0-22,3.8-30.2,11s-14.8,16.1-19.9,26.4c-5.1,10.6-8.9,21.6-11.3,33.6s-3.4,22.3-3.4,31.6
		h123.9c0-30.9-4.8-55.6-14.4-74.5C1162.4,1821,1147.6,1811.8,1127.4,1811.8z"/>
	<path class="st0" d="M2420.6,2129.2v-792.1c-0.7-1-1-2.7-1-5c0-2,0.2-4.4,1-5.8v-537L2246,688.4l-985.3-568.9L272.1,690.1
		l-171.5,99.2v1339.9l1160,669.8L2420.6,2129.2z M2391.8,1332.4c0.3-6.2-0.3-13.4,3.4-20.2c2.7,7.5,2.7,14.1,3.1,20.2
		c0,3.4-1.4,5.1-3.4,5.5C2392.8,1338.3,2391.4,1335.9,2391.8,1332.4z M2367.1,1299.5c3.8,13,3.4,24,3.8,35c0,3.8-0.3,7.2-3.4,7.2
		c-2.7,0-3.4-3.1-3.4-6.9C2364,1323.9,2363.6,1312.9,2367.1,1299.5z M2340,1288.2c2.4,20.2,3.4,40.1,2.4,60.4
		c-0.3,6.9-2.1,3.8-3.4,1.7c-1-1.7-2.1-4.1-2.4-6.2C2335.8,1325.6,2336.9,1306.7,2340,1288.2z M2312.2,1280.6
		c2.7,24.7,2.7,49.4,3.4,74.1c0,3.8-1,6.9-3.8,6.9c-2.4,0.3-2.7-3.1-2.7-6.2C2308.7,1330.4,2308,1305.3,2312.2,1280.6z M2284,1274.8
		c3.4,29.9,3.8,59.7,3.8,89.9c0,3.8,0.7,8.9-2.7,9.3c-3.4,0.3-3.8-4.1-3.8-8.2C2280.3,1335.5,2281.6,1305,2284,1274.8z
		 M2253.8,1295.7c0.7-8.9-0.3-17.8,3.1-30.2c2.7,40.5,2.7,76.9,2.1,113.6c0,2.7,0,6.9-2.4,6.9c-3.4,0-3.1-5.1-3.4-8.9
		C2251.8,1349.9,2253.5,1322.8,2253.8,1295.7z M123.2,1507.1c-4.5,0.3-4.1-4.5-3.8-9.3c0.7-4.1-0.7-12.4,2.7-12.4
		c4.5,0.3,2.7,9.3,3.8,14.4C126.6,1503.7,125.9,1506.8,123.2,1507.1z M153.4,1507.1c0,2.7-1,4.8-2.7,5.1c-2.1,0.3-3.4-2.1-3.4-5.1
		c-0.7-12.7-0.3-25.4,3.4-37.4C153.7,1481.7,153.4,1494.4,153.4,1507.1z M181.1,1510.2c0,3.4-0.3,7.2-3.1,7.5
		c-2.7,0.3-3.4-3.1-3.4-6.9c0-19.2-0.7-39.1,3.1-58.3C181.5,1471.4,181.1,1491,181.1,1510.2z M208.9,1515.3c0,3.4-0.7,7.2-3.1,7.9
		c-3.1,0.7-3.4-3.1-3.4-6.9c-0.3-27.4-0.3-54.9,1.4-82.3c0-1,1-2.1,1.7-3.1c1,0.7,2.4,0.7,3.4,1
		C208.9,1459.7,208.9,1487.5,208.9,1515.3z M236.4,1516.7c0,3.4,0,7.9-2.4,8.6c-3.4,0.7-3.4-4.8-3.8-8.6
		c-1.4-24.7,0.3-49.1,0.7-73.8c0.3-15.1,0.7-29.9,1.4-44.9c0.3,0.3,1.4,0.3,2.1,0C236.7,1437.4,236.7,1477.2,236.4,1516.7z
		 M261.1,1522.5c-2.7-0.3-2.7-5.8-2.7-9.6c-0.7-48-0.7-96.4,2.1-144.5c-0.3-1,0.3-1.4,1.4-3.8c0.7,16.1,1.4,30.9,1.7,45.6
		c0.3,34,0.7,68.3,1,102.2C264.5,1516.7,264.9,1522.9,261.1,1522.5z M2227.8,1265.2c1.4,0,2.4,0,3.4,0c0,14.1,0,28.1,0,42.2
		c0.3,24,0.7,48,1,72.1c0,4.8,0.3,11.3-4.1,11c-3.8-0.3-2.7-6.9-2.7-11C2225.4,1341.4,2224.7,1302.9,2227.8,1265.2z M2198.3,1324.9
		c0-20.6,1-41.2,1.7-62.1c4.5,41.2,5.1,82.3,4.5,123.9c0,2.7,0,6.9-2.7,6.2c-3.1-0.7-3.4-5.1-3.4-9.3
		C2198.3,1364,2197.9,1344.5,2198.3,1324.9z M2173.2,1267.6c3.1,39.8,3.4,79.9,3.1,119.7c0,3.1,0,7.9-3.1,7.5
		c-2.4,0-2.7-3.8-2.7-6.5C2169.4,1347.9,2170.5,1307.7,2173.2,1267.6z M2145.1,1290.2c0.7,0,1.4,0,2.1,0c0.7,35.3,1.4,71,2.1,106.4
		c0,4.1,0.3,10.3-3.4,10.3c-4.1,0-3.1-6.2-3.1-10.3C2142.3,1360.9,2142,1325.6,2145.1,1290.2z M2117.6,1321.5
		c3.8,29.2,3.8,58.7,3.8,88.2c0,3.8,0.3,9.3-2.7,9.6c-3.1,0.3-3.4-4.8-3.4-8.6C2113.9,1380.8,2115.6,1351,2117.6,1321.5z
		 M2090.5,1353c2.1,23.7,3.8,46.7,2.4,70.3c0,2.7,0,6.5-2.4,6.9c-1.7,0-2.7-2.1-2.7-4.8C2086.4,1400.7,2086.8,1376.7,2090.5,1353z
		 M2062.7,1363c2.7,17.5,3.1,35.3,3.4,53.2c0,4.5-0.3,8.2-3.8,8.2c-3.5,0-3.4-4.8-3.4-8.6C2059.3,1398.3,2059,1380.1,2062.7,1363z
		 M2034.3,1364.7c4.5,13,3.4,27.1,3.8,40.8c0,3.1,0.3,7.5-2.7,7.9c-3.1,0.3-3.8-3.8-4.1-7.9
		C2031.2,1391.8,2032.2,1378.4,2034.3,1364.7z M2007.2,1355.1c4.5-0.7,1.4,12.4,3.1,19.2c-1,7.2,2.7,19.9-3.1,20.2
		c-6.2,0-3.1-12.7-3.1-19.6C2004.4,1367.8,2002,1355.4,2007.2,1355.1z M1975.9,1365.4c0.3-13-0.3-26.4,3.4-41.2
		c3.8,15.1,3.4,28.8,3.4,42.5c0,3.4-1.4,5.5-3.4,5.5C1976.6,1372.2,1975.6,1369.2,1975.9,1365.4z M1951.2,1287.8
		c3.8,17.5,3.8,35.7,3.4,53.9c0,3.1-0.7,6.2-3.1,5.8c-2.7-0.3-3.1-4.1-3.4-7.5C1947.8,1322.5,1949.2,1305.3,1951.2,1287.8z
		 M1951.6,1822.1c9.3-14.4,20.6-25.7,34-33.6c13.4-7.9,28.1-12,44.6-12c18.2,0,33.3,3.8,46,11.7c12.7,7.9,22.6,18.5,30.5,32.3
		c7.9,13.7,13.4,29.5,16.8,47.7s5.1,37.4,5.1,58v22.3h-165.7c0,16.7,1.4,32.3,4.5,46.3c2.7,14.1,7.2,26.4,12.7,37.1
		c5.5,10.6,12.7,18.9,21.3,24.7c8.6,5.8,18.5,8.9,30.2,8.9c14.8,0,26.8-4.5,36-13.7c9.3-8.9,16.1-19.9,21.3-32.6l30.9,17.8
		c-7.5,18.5-18.5,34-32.9,46.7c-14.8,12.7-33.3,18.9-55.9,18.9c-34.3,0-60.7-14.4-79.6-43.2c-18.9-28.8-28.5-68.6-28.5-119.1
		c0-24,2.4-46,7.5-66.2C1935.1,1853.6,1942.3,1836.5,1951.6,1822.1z M1924.1,1245.3c2.1,23.7,3.8,47,2.7,71c0,3.4-0.3,7.5-3.4,7.2
		c-1.7,0-2.7-2.4-2.7-5.1C1920.4,1294,1919.7,1269.3,1924.1,1245.3z M1896,1197.9c3.4,32.3,3.8,64.5,3.4,96.8c0,4.5-0.3,10-4.1,9.6
		c-3.4-0.3-2.4-5.8-2.7-9.6C1891.9,1262.5,1893.3,1230.2,1896,1197.9z M1867.9,1157.5c3.8,41.9,4.1,84.1,3.4,126.3
		c0,3.8,0.3,8.9-3.1,9.3c-2.1,0.3-2.4-3.8-2.7-6.9C1863.7,1242.9,1866.1,1200.3,1867.9,1157.5z M1839.7,1128.6
		c4.1,14.1,2.4,27.4,2.7,40.1c1,36,2.1,72.4,1.4,108.4c0,4.1,0,7.9-0.3,12c-0.3,2.4-0.7,5.1-2.7,4.8c-1.7-0.3-2.7-1.7-3.1-4.5
		c-0.3-2.4-0.3-5.1-0.3-7.5C1837.3,1231.2,1836.6,1180.8,1839.7,1128.6z M1811.3,1148.2c0.3-9.6,0-18.9,0-28.5c0.7,0,1.7,0,2.7,0
		c0.7,26.4,1.7,52.5,2.1,78.9c0.3,32.6,0.3,65.2,0.3,97.8c0,5.5,1.7,15.8-3.4,15.8c-4.1,0-3.1-9.6-3.1-15.1
		C1809.2,1247.4,1810.2,1197.9,1811.3,1148.2z M1782.1,1247.7c-0.3-40.1,0.7-80.3,1.4-120.8c1,0,1.7,0,2.7,0
		c2.1,77.9,3.8,156.1,1,236.8C1779,1324.2,1782.4,1285.4,1782.1,1247.7z M1757.7,1140.3c2.1,81.7,5.5,163.7,1.7,249.1
		c-3.8-10.3-4.8-17.5-4.8-25C1753.6,1289.6,1754.3,1215.1,1757.7,1140.3z M1729.6,1180.4c4.1,79.3,4.5,158.9,3.4,238.1
		c-2.1,0.3-3.8,0.3-5.5,0.3C1724.5,1339.7,1728.2,1260.1,1729.6,1180.4z M1718.3,1821c0.3,11,0.7,21.6,0.7,31.6h1.4
		c5.8-20.6,15.1-37.4,28.5-50.4c13-13,29.5-19.6,49.4-19.6c16.5,0,29.8,3.4,39.8,10.6c9.9,6.9,17.8,16.1,23.3,27.4
		c5.5,11.3,8.9,24,10.6,38.4c1.7,14.1,2.7,28.5,2.7,42.2V2099h-40.5v-197.6c0-9.6-0.7-18.9-1.7-28.8c-1-9.6-3.4-18.5-6.9-26.4
		c-3.4-7.9-8.6-14.8-14.8-19.9c-6.5-5.1-14.8-7.5-25-7.5c-10.3,0-19.6,2.7-27.4,8.2c-7.9,5.5-14.8,13-20.2,23
		c-5.5,9.6-9.9,20.9-13,33.3c-3.1,12.7-4.5,25.7-4.5,39.1V2099h-40.8v-229.2c0-6.5,0-13.7-0.3-21.3c-0.3-7.5-0.3-15.1-0.7-22.3
		s-0.3-13.7-0.7-19.9c-0.3-5.8-0.7-10.6-1-13.7h39.5C1717.2,1800.5,1717.9,1809.7,1718.3,1821z M1702.2,1221.6
		c3.1,90.6,4.8,181.5,1,272.8c0-11.3,0-23,0-34.3c-0.3,0-1,0-1.4-0.3c-0.3,3.1-0.3,6.2-0.7,9.3
		C1698,1430.9,1698.4,1267.6,1702.2,1221.6z M1674.4,1257c3.4,83,5.5,166.1,0.7,249.4C1668.5,1423.4,1671.6,1340.3,1674.4,1257z
		 M1645.5,1268.6c5.8,28.8,6.2,216.2,0.3,237.4C1640.1,1426.8,1644.9,1347.5,1645.5,1268.6z M1619.1,1266.6
		c2.7,76.5,5.5,153.4,0.3,230.2C1613.6,1420.3,1615.7,1343.4,1619.1,1266.6z M1591,1247.4c3.8,73.4,5.8,147.2,0.7,221
		C1585.2,1394.9,1588.2,1321.1,1591,1247.4z M1563.9,1197.6c3.4,73.4,4.1,143.1,1.4,215.1
		C1558.1,1397.3,1557.4,1240.2,1563.9,1197.6z M1535.8,1145.8c3.4,70,5.5,140.3,0.7,210.7C1530.6,1286.1,1532,1216.1,1535.8,1145.8z
		 M1506.6,1072c5.8,14.8,6.9,175,1,202.1C1502.5,1207.2,1504.2,1140.3,1506.6,1072z M1479.1,983.8c5.1,26.8,6.2,193.9,0.3,217.5
		C1473.7,1126.2,1477.4,1054.9,1479.1,983.8z M1466.1,1944.9c0.3-20.2,1-35.3,1.4-39.5c1-16.5,2.7-59.4,6.9-171.2
		c11,0,22.3-0.3,32.9-0.7c-0.7,59.7-2.4,101.9-4.1,130c-1.7,29.2-2.1,42.9-2.7,70.3c-0.3,10.6-0.7,28.1,0.3,50.4
		c2.1,47,6.9,60.7,16.1,70.7c3.1,3.1,11.3,12,22.3,11.7c8.9-0.3,15.1-6.9,17.8-9.6c20.6-21.3,22.3-65.9,23-84.1
		c2.1-62.4,2.7-93.3,2.7-96.4c-1.7-51.5-3.8-98.8-5.8-141c11.3,0,22.3,0,33.6,0c3.1,64.2,4.8,120.4,6.2,168.5
		c0,0,1.7,61.4-8.6,121.5c-1,6.5-2.7,13-2.7,13c-0.7,2.4-9.3,34.3-28.1,52.2c-7.5,7.2-15.8,11.6-24.4,13.7c0,27.3-0.3,54.8-0.3,82.3
		c12.4,8.2,18.2,23,15.1,36.7s-15.4,26.4-31.6,26.1c-16.2-0.3-28.1-13.4-30.9-27.4c-2.7-14.1,4.1-28.5,16.8-36.4
		c0.6-27.6,1-55.2,1.6-82.9c-12.2-4.2-23.6-12.7-32.5-24.5c-11.3-14.8-16.5-32.6-18.5-39.1c-3.4-11-6.2-26.4-6.5-70
		C1465.8,1959.3,1466.1,1950.1,1466.1,1944.9z M1452,899.1c3.1,73.1,6.5,146.2,0,219.3C1447.9,1045.3,1447.9,972.2,1452,899.1z
		 M1424.3,816.7c5.5,60,5.1,203.5-0.3,248.1C1419.8,979,1419.8,898.1,1424.3,816.7z M1396.5,733.4c4.8,87.8,4.1,175.3,0.7,263.2
		C1391.7,908.7,1393.4,821.2,1396.5,733.4z M1365.6,821.9c0-50.4,0-100.5,3.1-150.6c5.1,101.2,3.8,202.4,1.7,303.3
		c0.3,1.3-0.1,1.8-0.1,2.7c0,0.4,0.1,0.7,0.1,1.1c-0.1-0.4-0.1-0.8-0.1-1.1C1365.3,923.5,1365.6,872.7,1365.6,821.9z M1341.2,604
		c4.1,116.3,4.8,232.3,0,348.6C1337.8,836.3,1335.4,720,1341.2,604z M1313.4,561.8c3.1,65.2,3.1,130.4,3.4,195.6
		c0.3,64.8-2.1,129.7-2.1,194.9c0-4.5-0.3-8.9-0.3-13c-0.3,0-0.7,0-1-0.3c-0.3,4.5-0.7,8.9-0.7,13.4
		C1309.7,821.9,1309,691.8,1313.4,561.8z M1285.6,530.2c4.5,35.7,4.8,423.7,0.3,460.8C1280.8,936.8,1281.2,564.9,1285.6,530.2z
		 M1269.2,1787.4h39.5v-84.7h40.1v84.7h54.2v33.3h-54.2v192.1c0,18.5,2.7,31.9,7.9,40.5c5.5,8.6,13.4,12.7,24,12.7
		c3.8,0,7.5-0.3,11.7-1.7c4.1-1,7.5-2.1,10.6-3.4l1.7,32.6c-4.1,2.4-9.9,4.5-16.5,5.8c-6.5,1.7-13.4,2.4-20.2,2.4
		c-21.3,0-36.7-7.5-45.3-22.3c-8.9-14.8-13.4-34.7-13.4-59.4v-199.4h-40.1L1269.2,1787.4L1269.2,1787.4z M1202.9,513.1
		c4.5,80.3,4.1,604.6-0.3,653.6C1199.1,1120.4,1196.7,540.2,1202.9,513.1z M1174.7,517.5c4.5,245.3,5.1,490.7,0.3,736.7
		C1172,1008.9,1169.2,763.2,1174.7,517.5z M1146.9,544.7c5.1,244.6,4.1,489.3,0.7,733.9C1143.9,1033.9,1142.1,789.3,1146.9,544.7z
		 M1119.5,580.7c3.4,251.8,6.2,503.7,0.3,755.9C1115.4,1084.7,1115,832.5,1119.5,580.7z M1091.4,611.2
		c5.5,259.7,4.1,519.1,2.4,778.9c0-5.5-0.3-10.6-0.3-16.1c-0.3,0-0.7,0-1.4,0c0,12.4,0,24.4,0,36.7
		C1088.3,1144.1,1086.6,877.5,1091.4,611.2z M1061.5,798.9c0.3-47.4,0-94.4,0-141.7c0.7,0,1.7,0,2.7,0
		c4.5,253.6,4.5,507.1,2.1,761.4c-3.1-13.7-3.8-28.1-3.8-42.5C1060.8,1183.5,1060.8,991,1061.5,798.9z M1036.5,722.7
		c3.4,241.2,6.2,482.4,0.7,723.6C1031.3,1204.8,1032.7,963.9,1036.5,722.7z M925.6,1010.6c4.5,177,4.5,354.1,1.4,531.5
		c0-8.2,0-16.8,0-25c-0.3,0-0.7,0-1.4,0c-0.3,8.2-0.3,16.5-0.7,24.7C921.5,1364.7,921.9,1187.7,925.6,1010.6z M897.2,1103.2
		c4.8,34,6.2,394.6,1.4,435.4C893.4,1491,892.7,1220.2,897.2,1103.2z M869.7,1172.9c6.2,36.7,5.8,334.5,0,361.3
		C864.2,1413.4,868.4,1293,869.7,1172.9z M843,1224c3.4,104,5.1,207.9,1,311.5c0-6.9,0-14.1,0-20.9c-0.3,0-0.7,0-1-0.3
		c-0.3,5.1-0.7,10.6-1.4,19.6C838.5,1428.2,839.2,1325.9,843,1224z M814.5,1274.8c4.1,25.4,5.5,151,2.4,235
		c-2.1-1.7-0.7-5.5-1.7-7.5c-2.4,1-0.3,5.8-2.1,7.5C810.4,1431.6,812.1,1353.7,814.5,1274.8z M787.4,1314.9
		c3.1,60.7,5.5,121.5,1,182.2C780.9,1436.4,786,1375.7,787.4,1314.9z M759.9,1335.9c4.5,55.9,4.5,111.9,1.7,170.2
		c-0.3-12-0.7-21.3-1-30.9c-0.7,0-1,0-1,0c-0.3,3.4-0.3,7.2-0.7,10.6C755.8,1435.7,756.5,1385.6,759.9,1335.9z M648.8,1295.7
		c3.4,26.1,4.1,52.8,3.4,79.6c0,3.8-0.3,8.9-3.4,8.9c-3.4,0-3.1-5.5-3.1-8.9C644.7,1348.6,646,1322.5,648.8,1295.7z M621.7,1253.2
		c2.4,35,3.4,67.9,2.1,102.6C616.9,1347.2,615.8,1275.8,621.7,1253.2z M566.4,1157.1c0.3,9.6,1,19.2,1.4,29.2
		c1.4,31.2,1.7,62.1,1,93.3c0,4.5,1,11.7-3.8,11.3c-3.8-0.3-2.7-6.9-3.1-11C561.3,1238.8,563,1197.9,566.4,1157.1z M534.9,1228.8
		c0-37.4,0-75.1,0-112.5c0.7-0.3,1.7-0.3,2.7-0.3c3.1,17.5,2.4,35.7,2.7,53.5c0.3,32.6,0.3,65.2,0.3,97.8c0,3.1,0.7,8.2-1.7,8.9
		c-3.1,0.7-3.4-4.5-3.8-8.2C533.5,1254.9,534.9,1241.9,534.9,1228.8z M510.5,1085.1c2.1,58,4.1,116,3.1,174c0,2.4-0.3,5.1-0.7,7.5
		c-0.3,2.7-0.7,6.5-3.1,5.8c-1.7-0.3-2.1-3.1-2.4-5.8c0-1,0-2.1,0-3.1C506.4,1204.1,506.4,1144.4,510.5,1085.1z M480,1131.7
		c0.3-16.8,0-33.6,0-50.1c1-0.3,2.4,0,3.4,0c2.1,64.5,3.1,129,2.1,193.9c0,4.1,0.7,10.6-3.4,10c-3.4-0.3-2.7-6.9-2.7-11
		C477.9,1226.8,479.3,1179.1,480,1131.7z M452.2,1165.7c0-24,0-47.7,0-71.7c1,0,2.4,0,3.8,0c2.4,74.8,2.4,149.9,2.1,225.8
		c-5.8-3.8-5.8-11-5.8-17.2C452.2,1257,452.2,1211.3,452.2,1165.7z M292.3,1506.4c-0.3,3.8,0,9.3-3.1,9.3c-3.1-0.3-2.7-5.8-2.7-9.6
		c-0.7-56.6-0.3-113.2,1.4-169.8c-0.7-2.1,0-3.8,1-9.3c3.1,28.1,2.1,52.8,2.7,77.2c0.7,30.5,0.7,61.1,1,91.6
		C292.7,1499.2,292.7,1503,292.3,1506.4z M316.7,1497.1c-4.1,0-3.4-8.2-3.4-13.4c-1.4-47.7,0.3-95.4,0.7-143.1c0-16.8,0-33.6,0-50.4
		c1,0.3,2.1,0.3,3.1,0.7c2.1,29.5,2.1,59,2.1,88.5c0,35,0.3,70.3,0,105.3C319.1,1489.3,320.4,1497.1,316.7,1497.1z M344.8,1473.5
		c-3.8,0.3-3.1-7.2-3.4-12c-1-71.7-1-143.8,3.8-216.2c0.7,25.7,1.7,51.8,2.1,77.5c0.3,46,1.7,92.3,0.3,138.3
		C347.5,1465.9,348.2,1473.5,344.8,1473.5z M371.6,1441.2c-4.1,0-2.4-8.9-2.7-13.7c-1.4-50.8-0.3-101.2,0-152
		c0.7-26.8-0.3-53.2,2.7-79.9c3.1,40.1,2.7,80.6,3.1,121.5c0.3,36.7,0.3,73.1,0,109.8C374.7,1431.6,376.4,1441.2,371.6,1441.2z
		 M399,1396.6c-3.4,0-2.7-6.9-3.1-11c-1.4-76.9,0.3-153.4,2.1-229.9c0.3-0.3,0.7-0.7,2.1-2.4c2.4,40.5,2.1,79.6,2.4,118.7
		c0.3,37.7,0,75.1-0.3,112.9C402.1,1389.4,403.5,1396.6,399,1396.6z M427.1,1352.3c-3.4,0.3-3.1-5.5-3.1-8.9
		c-0.3-40.8-0.3-81.3-0.3-122.1c0.3-34.3,0.7-68.3,2.4-102.6c2.7,3.1,2.1,7.5,2.1,11.3c1.4,69.3,3.1,138.6,1.7,207.9
		c0,2.1,0,4.1,0,6.2C429.5,1347.5,429.5,1352.3,427.1,1352.3z M571.9,1653.6c-6.2-2.1-12-3.1-17.8-3.1c-8.2,0-15.1,2.1-20.6,6.2
		s-9.9,9.6-13.4,16.1c-3.4,6.5-5.5,14.1-6.9,22.6c-1.4,8.6-1.7,17.2-1.7,26.4v64.8h51.8v33.3h-51.8V2093h-40.8v-273h-41.5v-33.3
		h41.5v-64.8c0-31.2,6.5-56.6,19.2-76.2c12.7-19.6,32.6-29.2,60-29.2c9.6,0,17.8,1.4,25.4,3.8L571.9,1653.6z M596.3,1312.5
		c0,3.4,0,8.9-3.4,8.2c-3.1-0.7-2.4-5.5-2.4-8.6c-0.3-36-1-72.4,3.1-108.4C595.9,1239.8,597.7,1276.2,596.3,1312.5z M654.3,2092.8
		h-40.8v-306.4h40.8V2092.8z M653.2,1714c-5.5,5.5-12,8.2-18.9,8.2c-7.9,0-14.4-2.7-19.6-8.2s-7.5-12.7-7.5-21.3
		c0-8.2,2.4-15.1,7.5-20.9s11.7-8.6,19.6-8.6c7.5,0,13.7,2.7,19.2,8.6c5.5,5.5,7.9,12.7,7.9,20.9
		C661.5,1701.3,658.7,1708.5,653.2,1714z M678.3,1416.5c-6.2-11.7-7.2-60-1.4-98.5C680.3,1346.5,681,1393.5,678.3,1416.5z
		 M705,1439.5c-4.1,0.7-2.4-4.1-3.1-6.2c-2.4-14.4-1-28.8-0.7-43.2c0-17.5,1-34.7,1.7-51.8c4.8,31.6,5.5,63.5,4.1,95.4
		C707.1,1435.7,708.1,1438.8,705,1439.5z M732.1,1463.5c-5.8-39.8-2.7-79.6,0-119.7C734.2,1383.6,738.3,1423.4,732.1,1463.5z
		 M946.9,2092.8h-40.1v-197.6c0-9.6-0.7-18.9-1.7-28.8c-1-9.6-3.4-18.5-6.9-26.4c-3.4-7.9-8.6-14.8-14.8-19.9
		c-6.5-5.1-14.8-7.5-25-7.5c-10.2,0-19.6,2.7-27.4,8.2c-7.9,5.5-14.8,13-20.2,23c-5.5,9.6-9.9,20.9-13,33.3
		c-3.1,12.7-4.8,25.7-4.8,39.1v176.7h-41v-229.2c0-6.5,0-13.7-0.3-21.3c-0.3-7.5-0.3-15.1-0.7-22.3c-0.3-7.2-0.3-13.7-0.7-19.9
		c-0.3-5.8-0.7-10.6-1-13.7h39.5c0.7,7.9,1.4,17.2,1.7,28.5c0.3,11,0.7,21.6,0.7,31.6h1.4c5.8-20.6,15.1-37.4,28.5-50.4
		c13-13,29.5-19.6,49.4-19.6c16.5,0,29.8,3.4,39.8,10.6c9.9,6.9,17.8,16.1,23.3,27.4c5.5,11.3,8.9,24,10.6,38.4
		c1.7,14.1,2.7,28.5,2.7,42.2V2092.8z M954.1,1511.2c-5.5-36.7-5.1-518.8-0.3-567.5C958.2,1010.6,958.6,1467.6,954.1,1511.2z
		 M982.9,1482c-6.2-13.4-7.2-366.4-2.1-622.4C984.7,1066.5,986.7,1273.4,982.9,1482z M1010.4,1478.3c0-18.2,0-36.4,0-54.6
		c-0.3,0-1,0-1.4,0c0,14.1,0,27.8,0,41.9c-4.1-229.2-4.5-458.1-0.3-687.3C1013.8,1011.3,1012.8,1244.6,1010.4,1478.3z
		 M1228.2,1948.7h-165.7c0,16.7,1.4,32.3,4.5,46.3c2.7,14.1,7.2,26.4,12.7,37.1c5.5,10.6,12.7,18.9,21.3,24.7s18.5,8.9,30.2,8.9
		c14.8,0,26.8-4.5,36-13.7c9.3-8.9,16.1-19.9,21.3-32.6l30.9,17.8c-7.5,18.5-18.5,34-32.9,46.7c-14.8,12.7-33.3,18.9-55.9,18.9
		c-34.3,0-60.7-14.4-79.6-43.2c-18.9-28.8-28.5-68.6-28.5-119.1c0-24,2.4-46,7.5-66.2c4.8-20.2,12-37.4,21.3-51.8s20.6-25.7,34-33.6
		s28.1-12,44.6-12c18.2,0,33.3,3.8,46,11.7c12.7,7.9,22.6,18.5,30.5,32.3c7.9,13.7,13.4,29.5,16.8,47.7s5.1,37.4,5.1,58v22.1H1228.2
		z M1229.6,1098.1c-2.7-194.5-4.5-388.8,0-583.6C1234.1,604,1234.8,1075.1,1229.6,1098.1z M1257.8,512.7
		c4.8,174,4.1,347.6,0.7,521.2C1255,860.3,1252.6,686.7,1257.8,512.7z"/>
	<path class="st1" d="M634.4,1663.2c-7.9,0-14.4,2.7-19.6,8.6s-7.5,12.7-7.5,20.9c0,8.6,2.4,15.8,7.5,21.3s11.7,8.2,19.6,8.2
		c6.9,0,13.4-2.7,18.9-8.2s8.2-12.7,8.2-21.3c0-8.2-2.4-15.4-7.9-20.9C648.1,1666,641.9,1663.2,634.4,1663.2z"/>
	<path class="st1" d="M489.9,1645.7c-12.7,19.6-19.2,44.9-19.2,76.2v64.8h-41.5v33.3h41.5v273.1h40.8V1820h51.8v-33.3h-51.8v-64.8
		c0-9.3,0.3-17.8,1.7-26.4s3.4-16.1,6.9-22.6c3.4-6.5,7.9-12,13.4-16.1s12.4-6.2,20.6-6.2c5.8,0,11.7,1,17.8,3.1l3.4-33.3
		c-7.5-2.4-15.8-3.8-25.4-3.8C522.5,1616.5,502.6,1626.2,489.9,1645.7z"/>
	<rect x="613.4" y="1786.4" class="st1" width="40.8" height="306.4"/>
	<path class="st1" d="M933.5,1814.5c-5.5-11.3-13.4-20.6-23.3-27.4c-9.9-7.2-23.3-10.6-39.8-10.6c-19.9,0-36.4,6.5-49.4,19.6
		c-13.4,13-22.6,29.9-28.5,50.4h-1.4c0-10-0.3-20.6-0.7-31.6c-0.3-11.3-1-20.6-1.7-28.5h-39.5c0.3,3.1,0.7,7.9,1,13.7
		c0.3,6.2,0.3,12.7,0.7,19.9c0.3,7.2,0.3,14.8,0.7,22.3c0.3,7.5,0.3,14.8,0.3,21.3v229.2h40.8v-176.7c0-13.4,1.7-26.4,4.8-39.1
		c3.1-12.4,7.5-23.7,13-33.3c5.5-10,12.4-17.5,20.2-23c7.9-5.5,17.2-8.2,27.4-8.2c10.2,0,18.5,2.4,25,7.5c6.2,5.1,11.3,12,14.8,19.9
		c3.4,7.9,5.8,16.8,6.9,26.4c1,10,1.7,19.2,1.7,28.8v197.6h40.1v-197.6c0-13.7-1-28.1-2.7-42.2
		C942.5,1838.5,939,1825.8,933.5,1814.5z"/>
	<path class="st1" d="M1206.3,1820.7c-7.9-13.7-17.8-24.4-30.5-32.3c-12.7-7.9-27.8-11.7-46-11.7c-16.5,0-31.2,4.1-44.6,12
		s-24.7,19.2-34,33.6s-16.5,31.6-21.3,51.8c-5.1,20.2-7.5,42.2-7.5,66.2c0,50.4,9.6,90.2,28.5,119.1c18.9,28.8,45.3,43.2,79.6,43.2
		c22.6,0,41.2-6.2,55.9-18.9c14.4-12.7,25.4-28.1,32.9-46.7l-30.9-17.8c-5.1,12.7-12,23.7-21.3,32.6c-9.3,9.3-21.3,13.7-36,13.7
		c-11.7,0-21.6-3.1-30.2-8.9s-15.8-14.1-21.3-24.7s-9.9-23-12.7-37.1c-3.1-14-4.4-29.6-4.5-46.3h165.7v-22.3c0-20.6-1.7-39.8-5.1-58
		C1219.7,1850.2,1214.2,1834.4,1206.3,1820.7z M1062.5,1914.4c0-9.3,1-19.6,3.4-31.6c2.4-12,6.2-23,11.3-33.6
		c5.1-10.3,11.7-19.2,19.9-26.4c8.2-7.2,18.2-11,30.2-11c20.2,0,35,9.3,44.6,28.1c9.6,18.9,14.4,43.6,14.4,74.5H1062.5z"/>
	<path class="st2" d="M1309.3,2020.1c0,24.7,4.5,44.6,13.4,59.4c8.6,14.8,24,22.3,45.3,22.3c6.9,0,13.7-0.7,20.2-2.4
		c6.5-1.4,12.4-3.4,16.5-5.8l-1.7-32.6c-3.1,1.4-6.5,2.4-10.6,3.4c-4.1,1.4-7.9,1.7-11.7,1.7c-10.6,0-18.5-4.1-24-12.7
		c-5.1-8.6-7.9-22-7.9-40.5v-192.1h54.2v-33.3h-54.2v-84.7h-40.1v84.7h-39.5v33.3h40.1L1309.3,2020.1L1309.3,2020.1z"/>
	<path class="st3" d="M1092,1374c0.7,0,1,0,1.4,0c0,5.5,0.3,10.6,0.3,16.1c1.7-259.7,3.1-519.1-2.4-778.9
		c-4.8,266.3-3.1,532.9,0.7,799.5C1092,1398.3,1092,1386.3,1092,1374z"/>
	<path class="st3" d="M1119.5,580.7c-4.5,251.8-4.1,504,0.3,755.9C1125.7,1084.4,1122.9,832.5,1119.5,580.7z"/>
	<path class="st3" d="M1036.5,722.7c-3.8,241.2-5.1,482.1,0.7,723.6C1042.6,1205.2,1039.9,963.9,1036.5,722.7z"/>
	<path class="st3" d="M1066.3,1418.6c2.4-254.2,2.4-507.8-2.1-761.4c-1,0-2.1,0-2.7,0c0,47.4,0.3,94.4,0,141.7
		c-0.7,192.1-0.7,384.6,1,577.1C1062.5,1390.4,1063.2,1404.8,1066.3,1418.6z"/>
	<path class="st3" d="M1146.9,544.7c-4.8,244.6-3.1,489.3,0.7,733.9C1151.1,1033.9,1152.1,789.3,1146.9,544.7z"/>
	<path class="st3" d="M1174.7,517.5c-5.5,245.7-2.7,491.3,0.3,736.7C1179.9,1008.2,1179.2,762.9,1174.7,517.5z"/>
	<path class="st3" d="M1009,1465.6c0-14.1,0-27.8,0-41.9c0.3,0,1,0,1.4,0c0,18.2,0,36.4,0,54.6c2.4-233.7,3.4-467-1.7-700
		C1004.6,1007.5,1004.9,1236.4,1009,1465.6z"/>
	<path class="st3" d="M1202.9,513.1c-6.2,27.1-3.8,607.3-0.3,653.6C1207,1117.7,1207.3,593.4,1202.9,513.1z"/>
	<path class="st3" d="M982.9,1482c3.8-208.6,1.7-415.5-2.1-622.4C975.7,1115.6,976.8,1468.7,982.9,1482z"/>
	<path class="st3" d="M954.1,1511.2c4.5-43.6,4.1-500.6-0.3-567.5C949,992.4,948.6,1474.5,954.1,1511.2z"/>
	<path class="st3" d="M1229.6,1098.1c5.1-23,4.5-494.1,0-583.6C1225.2,709.3,1226.9,903.6,1229.6,1098.1z"/>
	<path class="st3" d="M1257.8,512.7c-5.1,174-2.7,347.6,0.7,521.2C1262,860.3,1262.7,686.7,1257.8,512.7z"/>
	<path class="st3" d="M925.6,1517c0.7,0,1,0,1.4,0c0,8.2,0,16.8,0,25c3.1-177.4,3.1-354.4-1.4-531.5c-3.8,177-4.1,354.1-0.7,531.1
		C925.3,1533.5,925.3,1525.3,925.6,1517z"/>
	<path class="st3" d="M1285.6,530.2c-4.5,34.7-4.8,406.6,0.3,460.8C1290.4,954,1290.1,565.9,1285.6,530.2z"/>
	<path class="st3" d="M897.2,1103.2c-4.5,117-3.8,387.7,1.4,435.4C903.3,1497.8,902,1137.2,897.2,1103.2z"/>
	<path class="st3" d="M1313.4,938.9c0.3,0.3,0.7,0.3,1,0.3c0,4.1,0.3,8.6,0.3,13c0-65.2,2.4-130,2.1-194.9
		c-0.3-65.2-0.3-130.4-3.4-195.6c-4.5,130-3.8,260.1-0.7,390.5C1312.7,947.8,1313.1,943.4,1313.4,938.9z"/>
	<path class="st3" d="M869.7,1172.9c-1.4,120.1-5.5,240.5,0,361.3C875.6,1507.4,875.9,1209.6,869.7,1172.9z"/>
	<path class="st3" d="M1341.2,604c-5.8,116-3.4,232.3,0,348.6C1346,836.3,1345.3,720.3,1341.2,604z"/>
	<path class="st3" d="M1370.4,974.6c2.1-100.9,3.4-202.1-1.7-303.3c-3.1,50.1-3.1,100.2-3.1,150.6c0,50.8-0.3,101.6,4.7,155.4
		C1370.3,976.4,1370.6,975.9,1370.4,974.6z"/>
	<path class="st3" d="M1370.4,978.4c0-0.4-0.1-0.7-0.1-1.1C1370.3,977.6,1370.3,977.9,1370.4,978.4z"/>
	<path class="st3" d="M843,1514.3c0.3,0.3,0.7,0.3,1,0.3c0,6.9,0,14.1,0,20.9c4.1-103.6,2.4-207.6-1-311.5
		c-3.8,101.9-4.5,204.2-1.4,309.8C842.3,1524.9,842.6,1519.4,843,1514.3z"/>
	<path class="st3" d="M1674.4,1257c-2.7,83.4-5.8,166.4,0.7,249.4C1679.9,1423,1677.8,1340,1674.4,1257z"/>
	<path class="st3" d="M1396.5,733.4c-3.1,87.8-4.8,175.3,0.7,263.2C1400.6,908.7,1401.3,821.2,1396.5,733.4z"/>
	<path class="st3" d="M402.4,1272.1c-0.3-39.1,0-78.2-2.4-118.7c-1.4,1.7-1.7,2.1-2.1,2.4c-1.7,76.5-3.4,153-2.1,229.9
		c0.3,4.1-0.3,11,3.1,11c4.5,0,3.1-7.2,3.1-11.7C402.4,1347.2,402.8,1309.8,402.4,1272.1z"/>
	<path class="st3" d="M347.2,1322.8c-0.3-25.7-1.4-51.8-2.1-77.5c-4.8,72.4-4.8,144.5-3.8,216.2c0.3,4.8-0.3,12.4,3.4,12
		c3.4,0,2.7-7.5,2.7-12.4C348.9,1415.1,347.5,1368.8,347.2,1322.8z"/>
	<path class="st3" d="M1733,1418.6c1-79.3,0.7-158.9-3.4-238.1c-1.4,79.6-5.1,159.2-2.1,238.5
		C1729.3,1418.9,1731,1418.9,1733,1418.6z"/>
	<path class="st3" d="M429.9,1337.9c1.4-69.3-0.3-138.6-1.7-207.9c0-3.8,0.7-8.2-2.1-11.3c-1.7,34.3-2.1,68.3-2.4,102.6
		c0,40.8,0,81.3,0.3,122.1c0,3.4-0.3,9.3,3.1,8.9c2.4,0,2.4-4.8,2.7-8.2C429.9,1342.1,429.9,1340,429.9,1337.9z"/>
	<path class="st3" d="M1645.5,1268.6c-0.7,78.9-5.5,158.2,0.3,237.4C1651.7,1484.8,1651.4,1297.5,1645.5,1268.6z"/>
	<path class="st3" d="M1759.4,1389.4c3.8-85.4,0.3-167.4-1.7-249.1c-3.4,74.8-4.1,149.3-3.1,224.1
		C1754.6,1371.9,1755.7,1379.1,1759.4,1389.4z"/>
	<path class="st3" d="M1424.3,816.7c-4.5,81.3-4.5,162.3-0.3,248.1C1429.4,1020.2,1429.7,876.8,1424.3,816.7z"/>
	<path class="st3" d="M1701.8,1459.7c0.3,0.3,1,0.3,1.4,0.3c0,11.3,0,23,0,34.3c3.8-91.3,2.1-182.2-1-272.8
		c-3.8,46-4.1,209.3-1,247.4C1701.5,1465.9,1701.5,1462.8,1701.8,1459.7z"/>
	<path class="st3" d="M815.2,1502.3c1,2.1-0.3,5.8,1.7,7.5c3.1-84.1,1.7-209.6-2.4-235c-2.4,78.9-4.1,156.8-1.4,235
		C814.8,1508.1,812.8,1503.3,815.2,1502.3z"/>
	<path class="st3" d="M374.7,1317c-0.3-40.8,0-81.3-3.1-121.5c-3.1,26.8-2.1,53.2-2.7,79.9c-0.3,50.8-1.4,101.2,0,152
		c0.3,4.8-1.4,13.7,2.7,13.7c4.8,0,3.1-9.6,3.1-14.4C375,1390.1,375,1353.7,374.7,1317z"/>
	<path class="st3" d="M1452,899.1c-4.1,73.1-4.1,146.2,0,219.3C1458.6,1045.3,1455.1,972.2,1452,899.1z"/>
	<path class="st3" d="M1591,1247.4c-2.7,73.8-5.8,147.5,0.7,221C1596.8,1394.6,1594.8,1320.8,1591,1247.4z"/>
	<path class="st3" d="M482,1285.4c4.1,0.7,3.4-5.8,3.4-10c1-64.8,0-129.4-2.1-193.9c-1,0-2.4-0.3-3.4,0c0,16.5,0.3,33.3,0,50.1
		c-0.7,47.4-2.1,95-0.7,142.7C479.3,1278.6,478.6,1285.1,482,1285.4z"/>
	<path class="st3" d="M1563.9,1197.6c-6.5,42.5-5.8,199.7,1.4,215.1C1568,1340.7,1567.3,1271,1563.9,1197.6z"/>
	<path class="st3" d="M1619.1,1266.6c-3.4,76.9-5.5,153.7,0.3,230.2C1624.6,1419.9,1621.9,1343.1,1619.1,1266.6z"/>
	<path class="st3" d="M1479.1,983.8c-1.7,71-5.5,142.4,0.3,217.5C1485.3,1177.7,1484.3,1010.6,1479.1,983.8z"/>
	<path class="st3" d="M458,1319.8c0.3-75.8,0.3-151-2.1-225.8c-1.4,0-2.7,0-3.8,0c0,24,0,47.7,0,71.7c0,45.6,0,91.3,0,136.9
		C452.2,1308.8,452.2,1316,458,1319.8z"/>
	<path class="st3" d="M319.1,1379.5c0-29.5,0-59-2.1-88.5c-1-0.3-2.1-0.3-3.1-0.7c0,16.8,0,33.6,0,50.4
		c-0.3,47.7-2.1,95.4-0.7,143.1c0,5.1-0.7,13.4,3.4,13.4c3.8,0,2.4-7.9,2.4-12.4C319.4,1449.8,319.1,1414.5,319.1,1379.5z"/>
	<path class="st3" d="M1506.6,1072c-2.4,68.3-4.1,135.2,1,202.1C1513.5,1247,1512.4,1086.8,1506.6,1072z"/>
	<path class="st3" d="M1535.8,1145.8c-3.8,70.3-5.1,140.3,0.7,210.7C1541.2,1286.1,1539.2,1215.8,1535.8,1145.8z"/>
	<path class="st3" d="M1813,1312.2c5.1,0,3.4-10.3,3.4-15.8c0-32.6,0-65.2-0.3-97.8c-0.3-26.4-1.4-52.5-2.1-78.9c-1,0-2.1,0-2.7,0
		c0,9.6,0.3,18.9,0,28.5c-1,49.8-2.1,99.2-1.4,148.9C1809.9,1302.6,1808.9,1312.2,1813,1312.2z"/>
	<path class="st3" d="M1787.2,1363.7c2.7-80.6,1-158.9-1-236.8c-1,0-1.7,0-2.7,0c-0.7,40.5-1.7,80.6-1.4,120.8
		C1782.4,1285.4,1779,1324.2,1787.2,1363.7z"/>
	<path class="st3" d="M507.4,1266.6c0.3,2.7,0.7,5.5,2.4,5.8c2.4,0.7,2.7-3.1,3.1-5.8c0.3-2.4,0.7-5.1,0.7-7.5c1-58-1-116-3.1-174
		c-4.1,59.4-4.1,119.1-3.1,178.4C507.4,1264.5,507.4,1265.5,507.4,1266.6z"/>
	<path class="st3" d="M787.4,1314.9c-1.4,60.7-6.5,121.5,1,182.2C792.9,1436.4,790.5,1375.7,787.4,1314.9z"/>
	<path class="st3" d="M288.9,1327c-1,5.5-1.7,7.2-1,9.3c-1.7,56.6-2.1,113.2-1.4,169.8c0,3.8-0.3,9.3,2.7,9.6c3.1,0,2.7-5.5,3.1-9.3
		c0.3-3.4,0.3-7.2,0.3-10.6c-0.3-30.5-0.3-61.1-1-91.6C290.9,1379.8,292,1355.1,288.9,1327z"/>
	<path class="st3" d="M263.5,1410.3c-0.3-14.8-1-29.5-1.7-45.6c-1,2.4-1.7,2.7-1.4,3.8c-2.7,48-2.7,96.4-2.1,144.5
		c0,3.8,0,9.3,2.7,9.6c3.8,0.3,3.4-5.8,3.4-10C264.2,1478.6,263.8,1444.3,263.5,1410.3z"/>
	<path class="st3" d="M1837.7,1289.6c0.3,2.7,1.4,4.1,3.1,4.5c2.1,0.3,2.4-2.4,2.7-4.8c0.3-4.1,0.3-7.9,0.3-12
		c0.7-36-0.3-72.4-1.4-108.4c-0.3-12.7,1.4-26.1-2.7-40.1c-3.1,52.2-2.4,102.6-2.4,153.4C1837.3,1284.4,1837.3,1287.2,1837.7,1289.6
		z"/>
	<path class="st3" d="M539,1276.2c2.4-0.7,1.7-5.8,1.7-8.9c0-32.6,0-65.2-0.3-97.8c-0.3-17.8,0.3-36-2.7-53.5c-1,0-2.1,0-2.7,0.3
		c0,37.4,0,75.1,0,112.5c0,13-1.4,26.1,0.3,39.1C535.6,1271.7,535.9,1276.9,539,1276.2z"/>
	<path class="st3" d="M759.6,1475.2c0,0,0.3,0,1,0c0.3,9.6,0.7,18.9,1,30.9c2.7-58.3,2.7-114.3-1.7-170.2
		c-3.4,49.8-4.1,99.8-1,149.9C759.3,1482.4,759.3,1478.6,759.6,1475.2z"/>
	<path class="st3" d="M565.1,1290.9c4.8,0.3,3.8-6.9,3.8-11.3c0.7-31.2,0.3-62.1-1-93.3c-0.3-10-1-19.6-1.4-29.2
		c-3.4,40.8-5.1,81.7-4.5,122.8C562.3,1284.1,561.3,1290.6,565.1,1290.9z"/>
	<path class="st3" d="M2201.7,1392.8c2.7,0.7,2.7-3.4,2.7-6.2c0.7-41.5,0-82.7-4.5-123.9c-0.7,20.9-1.7,41.5-1.7,62.1
		c-0.3,19.6,0,39.1,0,58.7C2198.3,1387.7,2198.6,1392.2,2201.7,1392.8z"/>
	<path class="st3" d="M232.3,1398c-0.7,15.1-1,29.9-1.4,44.9c-0.3,24.7-2.1,49.1-0.7,73.8c0.3,3.8,0.3,9.3,3.8,8.6
		c2.4-0.7,2.4-5.1,2.4-8.6c0.3-39.5,0.3-79.3-2.1-118.7C233.6,1398.3,232.6,1398.3,232.3,1398z"/>
	<path class="st3" d="M1868.2,1293c3.4-0.3,3.1-5.5,3.1-9.3c0.7-42.2,0.3-84.4-3.4-126.3c-1.7,42.9-4.1,85.4-2.4,128.7
		C1865.8,1289.2,1866.1,1293.3,1868.2,1293z"/>
	<path class="st3" d="M2145.8,1406.9c3.8,0,3.4-6.2,3.4-10.3c-0.7-35.3-1.4-71-2.1-106.4c-0.7,0-1.4,0-2.1,0
		c-3.1,35.3-2.7,70.7-2.4,106.4C2142.7,1400.7,2141.6,1406.9,2145.8,1406.9z"/>
	<path class="st3" d="M732.1,1463.5c6.2-40.1,2.1-79.9,0-119.7C729.4,1383.9,726.3,1423.7,732.1,1463.5z"/>
	<path class="st3" d="M2228.1,1390.4c4.5,0.3,4.1-6.2,4.1-11c-0.3-24-0.7-48-1-72.1c0-14.1,0-28.1,0-42.2c-1,0-2.1,0-3.4,0
		c-3.1,37.7-2.4,76.2-2.4,114.3C2225.4,1383.6,2224.3,1390.1,2228.1,1390.4z"/>
	<path class="st3" d="M590.5,1312.2c0,3.1-0.7,7.9,2.4,8.6c3.4,0.7,3.4-4.8,3.4-8.2c1.4-36.4-0.3-72.7-2.7-108.8
		C589.4,1239.8,590.1,1276.2,590.5,1312.2z"/>
	<path class="st3" d="M2173.2,1394.9c3.1,0.3,3.1-4.5,3.1-7.5c0.3-39.8,0-79.9-3.1-119.7c-2.7,40.1-3.8,80.3-2.7,120.8
		C2170.5,1391.1,2170.8,1394.9,2173.2,1394.9z"/>
	<path class="st3" d="M1895.3,1304.3c3.8,0.3,4.1-5.1,4.1-9.6c0.3-32.3,0-64.5-3.4-96.8c-2.7,32.3-4.1,64.5-3.4,96.8
		C1892.9,1298.5,1891.9,1304,1895.3,1304.3z"/>
	<path class="st3" d="M2256.6,1386c2.4,0,2.4-4.1,2.4-6.9c0.7-36.7,0.7-73.1-2.1-113.6c-3.4,12.4-2.4,21.3-3.1,30.2
		c-0.3,27.1-2.1,54.2-0.7,81.3C2253.5,1380.8,2253.1,1386,2256.6,1386z"/>
	<path class="st3" d="M703,1338.3c-0.7,17.2-1.7,34.3-1.7,51.8c-0.3,14.4-1.7,28.8,0.7,43.2c0.7,2.1-1,6.9,3.1,6.2
		c3.1-0.7,2.1-3.8,2.1-5.8C708.5,1401.8,707.8,1369.8,703,1338.3z"/>
	<path class="st3" d="M2285.1,1374c3.4-0.3,2.7-5.5,2.7-9.3c0-30.2-0.3-60-3.8-89.9c-2.4,30.2-3.8,60.7-2.7,90.9
		C2281.3,1369.8,2281.6,1374.3,2285.1,1374z"/>
	<path class="st3" d="M2118.7,1419.3c3.1-0.3,2.7-5.8,2.7-9.6c0-29.5,0-59-3.8-88.2c-2.1,29.5-3.8,59.4-2.4,89.2
		C2115.2,1414.5,2115.6,1419.6,2118.7,1419.3z"/>
	<path class="st3" d="M648.8,1384.3c3.1,0,3.4-5.1,3.4-8.9c0.7-26.8,0-53.5-3.4-79.6c-2.7,26.8-4.1,52.8-3.1,79.6
		C645.7,1378.8,645.3,1384.3,648.8,1384.3z"/>
	<path class="st3" d="M621.7,1253.2c-5.8,22.6-4.8,94,2.1,102.6C625.1,1321.1,624.1,1288.2,621.7,1253.2z"/>
	<path class="st3" d="M678.3,1416.5c2.7-23,2.1-70-1.4-98.5C671.1,1356.5,672.1,1404.8,678.3,1416.5z"/>
	<path class="st3" d="M203.8,1434c-1.7,27.4-1.7,54.9-1.4,82.3c0,3.8,0.3,7.5,3.4,6.9c2.4-0.7,3.1-4.5,3.1-7.9c0-27.8,0-55.6,0-83.4
		c-1-0.3-2.4-0.3-3.4-1C204.8,1432,203.8,1433,203.8,1434z"/>
	<path class="st3" d="M1923.4,1323.5c3.1,0.3,3.4-3.8,3.4-7.2c1-24-0.7-47.4-2.7-71c-4.5,24-3.8,48.7-3.4,73.1
		C1920.7,1321.1,1921.7,1323.5,1923.4,1323.5z"/>
	<path class="st3" d="M2311.8,1361.6c2.7,0,3.8-3.1,3.8-6.9c-0.7-24.7-0.7-49.4-3.4-74.1c-4.1,24.7-3.4,49.8-3.1,74.8
		C2309.1,1358.5,2309.4,1362,2311.8,1361.6z"/>
	<path class="st3" d="M174.6,1510.9c0,3.8,0.7,7.2,3.4,6.9c2.7-0.3,3.1-4.1,3.1-7.5c0-19.2,0.3-38.8-3.4-57.6
		C173.9,1471.8,174.6,1491.7,174.6,1510.9z"/>
	<path class="st3" d="M2090.5,1430.2c2.4-0.3,2.4-4.1,2.4-6.9c1.4-23.7-0.3-46.7-2.4-70.3c-3.8,23.7-4.1,47.7-2.7,72.4
		C2087.8,1428.2,2088.8,1430.2,2090.5,1430.2z"/>
	<path class="st3" d="M2062.4,1424.4c3.4,0,3.8-3.8,3.8-8.2c-0.3-17.8-0.7-35.7-3.4-53.2c-3.8,17.2-3.4,35.3-3.8,52.8
		C2059,1419.6,2059,1424.4,2062.4,1424.4z"/>
	<path class="st3" d="M2338.9,1350.3c1.4,2.1,3.1,5.1,3.4-1.7c1-20.2,0-40.1-2.4-60.4c-3.1,18.5-4.1,37.4-3.4,55.9
		C2336.9,1346.2,2337.9,1348.6,2338.9,1350.3z"/>
	<path class="st3" d="M1951.6,1347.5c2.4,0.3,3.1-2.7,3.1-5.8c0.3-18.2,0.3-36.4-3.4-53.9c-2.1,17.5-3.4,34.7-3.1,52.2
		C1948.5,1343.4,1948.8,1347.2,1951.6,1347.5z"/>
	<path class="st3" d="M2035.3,1413.4c3.1-0.3,2.7-4.8,2.7-7.9c-0.3-13.7,0.7-27.8-3.8-40.8c-2.1,13.7-3.1,27.1-3.1,40.8
		C2031.5,1409.6,2032.2,1413.8,2035.3,1413.4z"/>
	<path class="st3" d="M1979.4,1372.2c2.1,0,3.4-2.1,3.4-5.5c0-13.7,0.3-27.4-3.4-42.5c-3.8,14.8-3.1,28.1-3.4,41.2
		C1975.6,1369.2,1976.6,1372.2,1979.4,1372.2z"/>
	<path class="st3" d="M147.2,1507.1c0,3.1,1.4,5.5,3.4,5.1c1.7-0.3,2.7-2.4,2.7-5.1c0-12.7,0.3-25.4-2.7-37.4
		C146.8,1481.7,146.5,1494.4,147.2,1507.1z"/>
	<path class="st3" d="M2367.4,1341.7c3.1,0,3.4-3.4,3.4-7.2c-0.3-11,0-22-3.8-35c-3.4,13.4-3.1,24.4-3.1,35.3
		C2364,1338.6,2364.7,1341.7,2367.4,1341.7z"/>
	<path class="st3" d="M2007.2,1394.6c5.8-0.3,2.1-13,3.1-20.2c-1.7-6.9,1.4-19.9-3.1-19.2c-5.1,0.3-2.7,12.7-3.1,19.9
		C2004.1,1381.9,2001,1394.6,2007.2,1394.6z"/>
	<path class="st3" d="M2394.8,1337.9c2.1-0.3,3.4-2.1,3.4-5.5c-0.3-6.2-0.3-12.7-3.1-20.2c-3.8,6.9-3.1,14.1-3.4,20.2
		C2391.4,1335.9,2392.8,1338.3,2394.8,1337.9z"/>
	<path class="st3" d="M122.1,1485.5c-3.4,0-2.1,8.2-2.7,12.4c-0.3,4.8-0.7,9.6,3.8,9.3c2.7-0.3,3.4-3.4,2.7-7.2
		C124.9,1494.7,126.6,1485.8,122.1,1485.5z"/>
	<path class="st3" d="M2420.6,1337.1v-10.8c-0.9,1.4-1,3.9-1,5.8C2419.5,1334.3,2419.9,1336.1,2420.6,1337.1z"/>
	<path class="st4" d="M2420.6,669.9l-953.1-550.4L1260.6,0.1l-206.9,119.4L100.5,669.9L0,727.9v1455.5l100.5,58l965.1,557.2
		l195.2,112.5l195.2-112.5l965.1-557.2l99.8-57.6V727.9L2420.6,669.9z M100.5,789.3L272,690.1l988.4-570.6l985.3,568.9l174.6,100.9
		v537v10.8v792.1l-1160,669.8l-1160-669.8V789.3H100.5z"/>
	<path class="st0" d="M1523.6,2102.9c-0.6,27.6-1,55.2-1.6,82.9c-12.7,7.9-19.6,22.3-16.8,36.4c2.7,14.1,14.8,27.1,30.9,27.4
		c16.1,0.3,28.5-12.4,31.6-26.1s-2.7-28.5-15.1-36.7c0-27.5,0.3-55.1,0.3-82.3C1543.2,2106.9,1533.2,2106.2,1523.6,2102.9z"/>
	
		<linearGradient id="SVGID_1_" gradientUnits="userSpaceOnUse" x1="1536.5129" y1="2622.6001" x2="1536.5129" y2="2774.9504" gradientTransform="matrix(1 0 0 1 0 -525.3451)">
		<stop  offset="0" style="stop-color:#F59C1C"/>
		<stop  offset="0.1127" style="stop-color:#E8931D"/>
		<stop  offset="0.3206" style="stop-color:#C67A21"/>
		<stop  offset="0.6007" style="stop-color:#8F5228"/>
		<stop  offset="0.939" style="stop-color:#441B30"/>
		<stop  offset="1" style="stop-color:#361132"/>
	</linearGradient>
	<path class="st5" d="M1523.6,2102.9c-0.6,27.6-1,55.2-1.6,82.9c-12.7,7.9-19.6,22.3-16.8,36.4c2.7,14.1,14.8,27.1,30.9,27.4
		c16.1,0.3,28.5-12.4,31.6-26.1s-2.7-28.5-15.1-36.7c0-27.5,0.3-55.1,0.3-82.3C1543.2,2106.9,1533.2,2106.2,1523.6,2102.9z"/>
	<path class="st2" d="M1472.6,2039.3c2.1,6.5,7.2,24.4,18.5,39.1c8.9,11.8,20.3,20.3,32.5,24.5c9.5,3.3,19.5,4,29.3,1.6
		c8.5-2.1,16.8-6.6,24.4-13.7c18.9-17.8,27.4-49.8,28.1-52.2c0,0,1.7-6.5,2.7-13c10.3-60,8.6-121.5,8.6-121.5
		c-1.4-48-3.1-104.3-6.2-168.5c-11.3,0-22.3,0-33.6,0c2.1,42.2,4.1,89.6,5.8,141c0,3.1-0.7,34-2.7,96.4c-0.7,18.2-2.4,62.8-23,84.1
		c-2.7,2.7-8.9,9.3-17.8,9.6c-11,0.3-19.2-8.6-22.3-11.7c-9.3-10-14.1-23.7-16.1-70.7c-1-22.3-0.7-39.8-0.3-50.4
		c0.7-27.4,1-41.2,2.7-70.3c1.7-28.1,3.4-70.3,4.1-130c-10.6,0.3-22,0.7-32.9,0.7c-4.1,111.9-5.8,154.7-6.9,171.2
		c-0.3,4.1-1,19.2-1.4,39.5c0,5.1-0.3,14.4,0,24.4C1466.5,2012.8,1469.2,2028.3,1472.6,2039.3z"/>
	<path class="st2" d="M1678.1,1806.3c0.3,6.2,0.3,12.7,0.7,19.9s0.3,14.8,0.7,22.3c0.3,7.5,0.3,14.8,0.3,21.3V2099h40.8v-176.7
		c0-13.4,1.4-26.4,4.5-39.1c3.1-12.4,7.5-23.7,13-33.3c5.5-10,12.4-17.5,20.2-23c7.9-5.5,17.2-8.2,27.4-8.2c10.3,0,18.5,2.4,25,7.5
		c6.2,5.1,11.3,12,14.8,19.9c3.4,7.9,5.8,16.8,6.9,26.4c1,10,1.7,19.2,1.7,28.8V2099h40.5v-197.6c0-13.7-1-28.1-2.7-42.2
		c-1.7-14.4-5.1-27.1-10.6-38.4c-5.5-11.3-13.4-20.6-23.3-27.4c-9.9-7.2-23.3-10.6-39.8-10.6c-19.9,0-36.4,6.5-49.4,19.6
		c-13.4,13-22.6,29.9-28.5,50.4h-1.4c0-10-0.3-20.6-0.7-31.6c-0.3-11.3-1-20.6-1.7-28.5h-39.4
		C1677.5,1795.7,1677.8,1800.5,1678.1,1806.3z"/>
	<path class="st2" d="M1951.2,2059.2c18.9,28.8,45.3,43.2,79.6,43.2c22.6,0,41.2-6.2,55.9-18.9c14.4-12.7,25.4-28.1,32.9-46.7
		l-30.9-17.8c-5.1,12.7-12,23.7-21.3,32.6c-9.3,9.3-21.3,13.7-36,13.7c-11.7,0-21.6-3.1-30.2-8.9c-8.6-5.8-15.8-14.1-21.3-24.7
		s-9.9-23-12.7-37.1c-3.1-14-4.4-29.6-4.5-46.3h165.7V1926c0-20.6-1.7-39.8-5.1-58c-3.4-18.2-8.9-34-16.8-47.7s-17.8-24.4-30.5-32.3
		s-27.8-11.7-46-11.7c-16.5,0-31.2,4.1-44.6,12c-13.4,7.9-24.7,19.2-34,33.6s-16.5,31.6-21.3,51.8c-5.1,20.2-7.5,42.2-7.5,66.2
		C1922.8,1990.5,1932.4,2030.3,1951.2,2059.2z M1966.3,1882.1c2.4-12,6.2-23.3,11.3-33.6c5.1-10.3,11.7-19.2,19.9-26.4
		c8.2-6.9,18.2-10.6,30.2-10.6c20.2,0,35,9.3,44.6,28.1c9.6,18.8,14.4,43.4,14.4,74.1h-123.9
		C1962.9,1904.4,1963.9,1894.1,1966.3,1882.1z"/>
</g>
</svg>
