<?xml version="1.0" encoding="utf-8"?>
<!-- Generator: Adobe Illustrator 24.2.0, SVG Export Plug-In . SVG Version: 6.00 Build 0)  -->
<svg version="1.1" id="Layer_1" xmlns="http://www.w3.org/2000/svg" xmlns:xlink="http://www.w3.org/1999/xlink" x="0px" y="0px"
	 viewBox="0 0 735 852" style="enable-background:new 0 0 735 852;" xml:space="preserve">
<style type="text/css">
	.st0{fill:#361132;}
	.st1{enable-background:new    ;}
	.st2{fill:#F1E8E6;}
	.st3{fill:#F59C1C;}
	.st4{fill:#ED8E87;}
	.st5{fill:#844C80;stroke:#844C80;stroke-miterlimit:10;}
	.st6{fill:url(#SVGID_1_);}
</style>
<path class="st0" d="M18.2,628.2V224.9l51.6-29.8L367.5,23.3l296.7,171.3l52.6,30.3v403.3L367.5,829.8L18.2,628.2z"/>
<g class="st1">
	<path class="st2" d="M166.8,483.7c-1.8-0.6-3.5-0.9-5.2-0.9c-2.4,0-4.4,0.6-6,1.8c-1.6,1.2-2.9,2.8-3.9,4.7c-1,1.9-1.6,4.1-2,6.6
		c-0.4,2.5-0.5,5-0.5,7.7v18.9h15.1v9.7h-15.1v79.6h-11.9v-79.6h-12.1v-9.7h12.1v-18.9c0-9.1,1.9-16.5,5.6-22.2
		c3.7-5.7,9.5-8.5,17.5-8.5c2.8,0,5.2,0.4,7.4,1.1L166.8,483.7z M192.9,495.1c0,2.5-0.8,4.6-2.4,6.2c-1.6,1.6-3.5,2.4-5.5,2.4
		c-2.3,0-4.2-0.8-5.7-2.4c-1.5-1.6-2.2-3.7-2.2-6.2c0-2.4,0.7-4.4,2.2-6.1c1.5-1.7,3.4-2.5,5.7-2.5c2.2,0,4,0.8,5.6,2.5
		C192.2,490.6,192.9,492.7,192.9,495.1z M178.9,611.7v-89.3h11.9v89.3H178.9z"/>
	<path class="st2" d="M264.4,611.7v-57.6c0-2.8-0.2-5.5-0.5-8.4c-0.3-2.8-1-5.4-2-7.7c-1-2.3-2.5-4.3-4.3-5.8
		c-1.9-1.5-4.3-2.2-7.3-2.2c-3,0-5.7,0.8-8,2.4c-2.3,1.6-4.3,3.8-5.9,6.7c-1.6,2.8-2.9,6.1-3.8,9.7c-0.9,3.7-1.4,7.5-1.4,11.4v51.5
		h-11.9v-66.8c0-1.9,0-4-0.1-6.2c-0.1-2.2-0.1-4.4-0.2-6.5c-0.1-2.1-0.1-4-0.2-5.8c-0.1-1.7-0.2-3.1-0.3-4h11.5
		c0.2,2.3,0.4,5,0.5,8.3c0.1,3.2,0.2,6.3,0.2,9.2h0.4c1.7-6,4.4-10.9,8.3-14.7c3.8-3.8,8.6-5.7,14.4-5.7c4.8,0,8.7,1,11.6,3.1
		c2.9,2,5.2,4.7,6.8,8c1.6,3.3,2.6,7,3.1,11.2c0.5,4.1,0.8,8.3,0.8,12.3v57.6H264.4z"/>
	<path class="st2" d="M309.8,569.6c0,4.9,0.4,9.5,1.3,13.6c0.8,4.1,2.1,7.7,3.7,10.8c1.6,3.1,3.7,5.5,6.2,7.2
		c2.5,1.7,5.4,2.6,8.8,2.6c4.3,0,7.8-1.3,10.5-4c2.7-2.6,4.7-5.8,6.2-9.5l9,5.2c-2.2,5.4-5.4,9.9-9.6,13.6
		c-4.3,3.7-9.7,5.5-16.3,5.5c-10,0-17.7-4.2-23.2-12.6c-5.5-8.4-8.3-20-8.3-34.7c0-7,0.7-13.4,2.2-19.3c1.4-5.9,3.5-10.9,6.2-15.1
		c2.7-4.2,6-7.5,9.9-9.8c3.9-2.3,8.2-3.5,13-3.5c5.3,0,9.7,1.1,13.4,3.4c3.7,2.3,6.6,5.4,8.9,9.4c2.3,4,3.9,8.6,4.9,13.9
		c1,5.3,1.5,10.9,1.5,16.9v6.5H309.8z M345.9,559.7c0-9-1.4-16.2-4.2-21.7c-2.8-5.5-7.1-8.2-13-8.2c-3.5,0-6.4,1.1-8.8,3.2
		c-2.4,2.1-4.3,4.7-5.8,7.7c-1.5,3.1-2.6,6.3-3.3,9.8c-0.7,3.5-1,6.5-1,9.2H345.9z"/>
</g>
<g class="st1">
	<path class="st3" d="M404.7,613.6c-1.9,0.5-3.9,0.7-5.9,0.7c-6.2,0-10.7-2.2-13.2-6.5c-2.6-4.3-3.9-10.1-3.9-17.3v-58.1H370v-9.7
		h11.5v-24.7h11.7v24.7H409v9.7h-15.8v56c0,5.4,0.8,9.3,2.3,11.8c1.6,2.5,3.9,3.7,7,3.7c1.1,0,2.2-0.1,3.4-0.5
		c1.2-0.3,2.2-0.6,3.1-1l0.5,9.5C408.3,612.6,406.6,613.2,404.7,613.6z"/>
</g>
<g>
	<g>
		<path class="st4" d="M318.9,406.9c0-1.6-0.1-3.1-0.1-4.7c-0.1,0-0.2,0-0.4,0c0,3.6,0,7.1,0,10.7c-1.1-77.7-1.6-155.4-0.2-233
			C319.8,255.6,319.4,331.2,318.9,406.9z"/>
		<path class="st4" d="M326.5,391.3c-1.3-73.4-1.4-146.9-0.1-220.3C327.4,244.4,328.2,317.8,326.5,391.3z"/>
		<path class="st4" d="M302.2,212.4c1,70.3,1.8,140.6,0.2,210.9C300.7,352.9,301.1,282.7,302.2,212.4z"/>
		<path class="st4" d="M310.3,193.3c1.3,73.9,1.3,147.8,0.6,221.9c-0.9-4-1.1-8.2-1.1-12.4c-0.5-56.1-0.5-112.2-0.3-168.2
			c0.1-13.8,0-27.5,0-41.3C309.7,193.3,310,193.3,310.3,193.3z"/>
		<path class="st4" d="M334.6,374.4c-1.1-71.3-1.6-142.6-0.2-213.9C335.9,231.8,335.6,303.1,334.6,374.4z"/>
		<path class="st4" d="M342.6,367.3c-0.9-71.5-1.7-143.1-0.1-214.7C343.8,224.1,344,295.6,342.6,367.3z"/>
		<path class="st4" d="M294.6,432.6c0-5.3,0-10.6,0-15.9c-0.1,0-0.3,0-0.4,0c0,4.1,0,8.1,0,12.2c-1.2-66.8-1.3-133.5-0.1-200.3
			C295.6,296.5,295.3,364.5,294.6,432.6z"/>
		<path class="st4" d="M350.7,151.3c1.3,23.4,1.2,176.2-0.1,190.5C349.6,328.3,348.9,159.2,350.7,151.3z"/>
		<path class="st4" d="M286,252.3c1.1,60.3,1.7,120.6,0.6,181.4C284.8,429.8,284.5,326.9,286,252.3z"/>
		<path class="st4" d="M278.2,442.2c-1.6-10.7-1.5-151.2-0.1-165.4C279.4,296.3,279.5,429.5,278.2,442.2z"/>
		<path class="st4" d="M358.5,151.7c1.3,26.1,1.5,163.4,0,170.1C357.7,265.1,357.2,208.5,358.5,151.7z"/>
		<path class="st4" d="M366.7,151.2c1.4,50.7,1.2,101.3,0.2,151.9C365.9,252.5,365.2,201.9,366.7,151.2z"/>
		<path class="st4" d="M269.9,296.3c1.3,51.6,1.3,103.2,0.4,154.9c0-2.4,0-4.9,0-7.3c-0.1,0-0.2,0-0.4,0c-0.1,2.4-0.1,4.8-0.2,7.2
			C268.7,399.5,268.8,347.9,269.9,296.3z"/>
		<path class="st4" d="M374.9,290.6c-1.5-15.8-1.4-124.2-0.1-134.3C376.1,166.7,376.2,279.8,374.9,290.6z"/>
		<path class="st4" d="M262,450.2c-1.5-13.9-1.7-92.8-0.4-126.9C263,333.2,263.4,438.3,262,450.2z"/>
		<path class="st4" d="M383.3,279.3c0-1.3-0.1-2.6-0.1-3.8c-0.1,0-0.2,0-0.3-0.1c-0.1,1.3-0.2,2.6-0.2,3.9
			c-0.9-38-1.1-75.9,0.2-113.8c0.9,19,0.9,38,1,57C384,241.4,383.3,260.3,383.3,279.3z"/>
		<path class="st4" d="M253.6,448.9c-1.6-35.2-0.4-70.3,0-105.3C255.4,354.3,255.3,441.1,253.6,448.9z"/>
		<path class="st4" d="M391,177.8c1.2,33.9,1.4,67.7,0,101.6C390,245.5,389.3,211.6,391,177.8z"/>
		<path class="st4" d="M399.5,286.9c-1.5-15.8-1.4-30.7-1.4-45.6c0-14.7,0-29.3,0.9-43.9c1.5,29.5,1.1,59,0.5,88.4
			C399.6,286.3,399.4,286.4,399.5,286.9z"/>
		<path class="st4" d="M246.1,449.3c0-2,0-4.1,0-6.1c-0.1,0-0.2,0-0.3-0.1c-0.1,1.5-0.2,3.1-0.4,5.7c-0.9-30.8-0.7-60.6,0.4-90.3
			C246.8,388.8,247.3,419.1,246.1,449.3z"/>
		<path class="st4" d="M488.3,440.8c-1.9-24.2-1-48.4-0.2-72.7C489.1,392.3,489.7,416.5,488.3,440.8z"/>
		<path class="st4" d="M407.3,292.2c-1.6-25.6-1.1-51.1-0.2-76.7C408.5,241.1,408.3,266.6,407.3,292.2z"/>
		<path class="st4" d="M116.7,337.9c0.7,11.8,0.6,23.2,0.7,34.6c0.1,11,0,21.9-0.1,32.9c0,1.3,0.4,3.4-0.9,3.4c-1,0-0.8-2-0.9-3.2
			c-0.4-22.4,0.1-44.7,0.6-67C116.2,338.5,116.3,338.4,116.7,337.9z"/>
		<path class="st4" d="M100.7,364.7c0.2,7.5,0.5,15.1,0.6,22.6c0.1,13.4,0.5,26.9,0.1,40.3c0,1.4,0.2,3.6-0.8,3.6
			c-1.1,0.1-0.9-2.1-1-3.5C99.3,406.8,99.3,385.8,100.7,364.7z"/>
		<path class="st4" d="M503.6,415.3c-0.9-23.1,0.2-46.3,0.6-69.5c1.2,23.1,1.3,46.3,1,69.4C504.6,415.3,504.1,415.3,503.6,415.3z"/>
		<path class="st4" d="M124.3,327.8c0.8,0.9,0.6,2.2,0.6,3.3c0.4,20.2,0.9,40.4,0.5,60.6c0,0.6,0,1.2,0,1.8c-0.1,1-0.1,2.4-0.8,2.4
			c-1,0.1-0.9-1.6-0.9-2.6c-0.1-11.9-0.1-23.7-0.1-35.6C123.7,347.7,123.8,337.8,124.3,327.8z"/>
		<path class="st4" d="M479.8,440.7c-1.7-23.1-0.3-46.2-0.1-69.2C481.4,379.9,481.5,434.5,479.8,440.7z"/>
		<path class="st4" d="M512.9,406.7c-1.1-3-1.4-5.1-1.4-7.3c-0.3-21.8-0.1-43.5,0.9-65.3C513,357.9,514,381.8,512.9,406.7z"/>
		<path class="st4" d="M415.2,239.8c1.6,17.5,1.5,59.3-0.1,72.3C413.9,287.1,413.9,263.5,415.2,239.8z"/>
		<path class="st4" d="M496.2,357.8c0.9,26.4,1.4,52.9,0.3,79.5c0-3.3,0-6.7,0-10c-0.1,0-0.3,0-0.4-0.1c-0.1,0.9-0.1,1.8-0.2,2.7
			C495,418.8,495.1,371.2,496.2,357.8z"/>
		<path class="st4" d="M237.5,373.3c1.2,7.4,1.6,44,0.7,68.5c-0.6-0.5-0.2-1.6-0.5-2.2c-0.7,0.3-0.1,1.7-0.6,2.2
			C236.3,419,236.8,396.3,237.5,373.3z"/>
		<path class="st4" d="M108.4,350.2c0.9,11.7,0.8,23.5,0.9,35.4c0.1,10.7,0.1,21.3,0,32c0,1.4,0.5,4.2-0.9,4.2c-1.2,0-0.7-2.6-0.8-4
			c-0.4-14.8-0.1-29.5,0-44.3C107.8,365.7,107.5,358,108.4,350.2z"/>
		<path class="st4" d="M423.3,327.7c-1.2-21.3-1.2-42.6,0-63.9C424.2,285.1,425.2,306.4,423.3,327.7z"/>
		<path class="st4" d="M463.8,365.3c1.1,21.4,1.7,42.9,0.2,64.4C462.1,408.3,463,386.8,463.8,365.3z"/>
		<path class="st4" d="M141,317c0.6,18.8,0.9,37.6,0.6,56.5c0,1.2,0.2,3.1-1,2.9c-1-0.1-0.8-2-0.8-3.2c-0.4-13.9,0-27.8,0.2-41.6
			c0.1-4.9,0-9.8,0-14.6C140.3,316.9,140.7,317,141,317z"/>
		<path class="st4" d="M455.9,350.8c1,21.4,1.2,41.7,0.4,62.7C454.2,409,454,363.2,455.9,350.8z"/>
		<path class="st4" d="M472.1,438c-1.7-22.3-1.1-44.7-0.1-67.1C472.8,393.2,473.6,415.6,472.1,438z"/>
		<path class="st4" d="M431.3,351.9c-1.7-21.9-0.6-42.7-0.1-63.4C432.7,296.3,433,345,431.3,351.9z"/>
		<path class="st4" d="M133,320.6c0.7,21.8,0.7,43.7,0.6,65.8c-1.7-1.1-1.7-3.2-1.7-5c0-13.3,0-26.6,0-39.9c0-7,0-13.9,0-20.9
			C132.2,320.6,132.6,320.6,133,320.6z"/>
		<path class="st4" d="M92.5,378c0.6,8.6,0.6,17.2,0.6,25.8c0,10.2,0.1,20.5,0,30.7c0,1.3,0.4,3.6-0.7,3.6c-1.2,0-1-2.4-1-3.9
			c-0.4-13.9,0.1-27.8,0.2-41.7c0-4.9,0-9.8,0-14.7C91.9,377.9,92.2,377.9,92.5,378z"/>
		<path class="st4" d="M439.5,373.1c-1.5-19.5-1-39-0.3-58.9C440.9,318.5,441.2,365.2,439.5,373.1z"/>
		<path class="st4" d="M447.7,335.7c1,20.4,1.6,40.9,0.2,61.4C446.2,376.6,446.6,356.2,447.7,335.7z"/>
		<path class="st4" d="M528.8,328.1c0.2,7.7,0.5,15.3,0.6,23c0.1,9.5,0.1,19,0.1,28.5c0,1.6,0.5,4.6-1,4.6c-1.2,0-0.9-2.8-0.9-4.4
			c-0.2-14.5,0.1-28.9,0.4-43.4c0.1-2.8,0-5.5,0-8.3C528.2,328.1,528.5,328.1,528.8,328.1z"/>
		<path class="st4" d="M520.7,330.2c0.6,22.7,1.1,45.5,0.3,69c-2.4-11.5-1.4-22.8-1.5-33.8c-0.1-11.7,0.2-23.4,0.4-35.2
			C520.2,330.2,520.4,330.2,520.7,330.2z"/>
		<path class="st4" d="M148.9,318c0.6,16.9,1.2,33.8,0.9,50.7c0,0.7-0.1,1.5-0.2,2.2c-0.1,0.8-0.2,1.9-0.9,1.7
			c-0.5-0.1-0.6-0.9-0.7-1.7c0-0.3,0-0.6,0-0.9C147.7,352.7,147.7,335.3,148.9,318z"/>
		<path class="st4" d="M229.6,385c0.9,17.7,1.6,35.4,0.3,53.1C227.7,420.4,229.2,402.7,229.6,385z"/>
		<path class="st4" d="M84.3,388.5c0.9,8.2,0.6,15.4,0.8,22.5c0.2,8.9,0.2,17.8,0.3,26.7c0,1,0,2.1-0.1,3.1c-0.1,1.1,0,2.7-0.9,2.7
			c-0.9-0.1-0.8-1.7-0.8-2.8c-0.2-16.5-0.1-33,0.4-49.5C83.8,390.6,84,390.1,84.3,388.5z"/>
		<path class="st4" d="M76.4,399.5c0.2,4.7,0.4,9,0.5,13.3c0.1,9.9,0.2,19.9,0.3,29.8c0,1.2,0.1,3-1,2.9c-0.8-0.1-0.8-1.7-0.8-2.8
			c-0.2-14-0.2-28.1,0.6-42.1C75.9,400.3,76.1,400.2,76.4,399.5z"/>
		<path class="st4" d="M536.3,330.7c1.2,4.1,0.7,8,0.8,11.7c0.3,10.5,0.6,21.1,0.4,31.6c0,1.2,0,2.3-0.1,3.5
			c-0.1,0.7-0.2,1.5-0.8,1.4c-0.5-0.1-0.8-0.5-0.9-1.3c-0.1-0.7-0.1-1.5-0.1-2.2C535.6,360.6,535.4,345.9,536.3,330.7z"/>
		<path class="st4" d="M156.8,327c0.9,5.1,0.7,10.4,0.8,15.6c0.1,9.5,0.1,19,0.1,28.5c0,0.9,0.2,2.4-0.5,2.6c-0.9,0.2-1-1.3-1.1-2.4
			c-0.5-3.8-0.1-7.6-0.1-11.4c0-10.9,0-21.9,0-32.8C156.2,327,156.5,327,156.8,327z"/>
		<path class="st4" d="M221.5,431.7c-0.1,1-0.1,2.1-0.2,3.1c-0.9-14.6-0.7-29.2,0.3-43.7c1.3,16.3,1.3,32.6,0.5,49.6
			c-0.1-3.5-0.2-6.2-0.3-9C221.6,431.7,221.5,431.7,221.5,431.7z"/>
		<path class="st4" d="M165.2,339c0.1,2.8,0.3,5.6,0.4,8.5c0.4,9.1,0.5,18.1,0.3,27.2c0,1.3,0.3,3.4-1.1,3.3c-1.1-0.1-0.8-2-0.9-3.2
			C163.7,362.8,164.2,350.9,165.2,339z"/>
		<path class="st4" d="M641.3,369.8c1.3,12,1.5,24,1.3,36.1c0,0.8,0,2-0.8,1.8c-0.9-0.2-1-1.5-1-2.7c0-5.7-0.1-11.4,0-17.1
			C640.8,381.9,641.1,375.9,641.3,369.8z"/>
		<path class="st4" d="M68.4,409.2c0.7,11.5,0.7,23.1,0.6,34.6c0,1,0,2.3-0.7,2.5c-1,0.2-1-1.4-1.1-2.5c-0.4-7.2,0.1-14.3,0.2-21.5
			c0.1-4.4,0.2-8.7,0.4-13.1C67.9,409.3,68.2,409.3,68.4,409.2z"/>
		<path class="st4" d="M544.5,339.1c1.1,12.2,1.2,24.5,1,36.8c0,1.1,0.1,2.6-0.9,2.7c-0.6,0.1-0.7-1.1-0.8-2
			C543.3,364,544,351.6,544.5,339.1z"/>
		<path class="st4" d="M625.9,377.8c0.2,10.3,0.4,20.7,0.6,31c0,1.2,0.1,3-1,3c-1.2,0-0.9-1.8-0.9-3c-0.1-10.4-0.2-20.7,0.7-31
			C625.5,377.8,625.7,377.8,625.9,377.8z"/>
		<path class="st4" d="M213.5,428.3c-1.7-11.6-0.8-23.2,0-34.9C214.1,405,215.3,416.6,213.5,428.3z"/>
		<path class="st4" d="M650.4,370.5c0,4.1,0,8.2,0,12.3c0.1,7,0.2,14,0.3,21c0,1.4,0.1,3.3-1.2,3.2c-1.1-0.1-0.8-2-0.8-3.2
			c0-11.1-0.2-22.3,0.7-33.3C649.8,370.5,650.1,370.5,650.4,370.5z"/>
		<path class="st4" d="M173.1,352.6c0.7,10.5,1.2,21.1,0.8,31.7c0,1,0,2.6-1,2.4c-0.9-0.2-0.7-1.6-0.7-2.5
			C172.1,373.7,171.9,363.1,173.1,352.6z"/>
		<path class="st4" d="M633.5,371.2c0.9,11.6,1,23.3,0.9,34.9c0,0.9,0,2.3-0.9,2.2c-0.7,0-0.8-1.1-0.8-1.9
			C632.4,394.6,632.7,382.9,633.5,371.2z"/>
		<path class="st4" d="M552.7,350.9c1,9.4,1.1,18.8,1,28.2c0,1.3-0.1,2.9-1.2,2.8c-1-0.1-0.7-1.7-0.8-2.8
			C551.5,369.7,551.9,360.3,552.7,350.9z"/>
		<path class="st4" d="M657.9,370.6c0.8,11.8,0.8,22.4,0.6,33.1c0,0.8,0,2-0.7,2c-1,0-0.9-1.5-1-2.6c-0.4-7.9,0.1-15.8,0.2-23.7
			C657.2,376.8,656.9,374.2,657.9,370.6z"/>
		<path class="st4" d="M205,391.8c1.4,9.2,1.6,18.5,1.2,27.8c0,0.6,0.3,1.5-0.6,1.7c-1.2,0.2-0.7-1.2-0.9-1.8
			c-0.7-4.2-0.3-8.4-0.2-12.6C204.5,401.8,204.8,396.8,205,391.8z"/>
		<path class="st4" d="M665.8,373.3c1,8.7,1.1,17.4,1.1,26.2c0,1.1,0.2,2.6-0.8,2.7c-1,0.1-1.1-1.2-1.1-2.4
			C664.7,391,665.1,382.1,665.8,373.3z"/>
		<path class="st4" d="M617.3,386.9c1.1,8.5,1.1,17.1,1.1,25.7c0,1.1,0.1,2.7-0.8,2.8c-0.9,0.1-1-1.4-1-2.5
			C616.2,404.2,616.7,395.5,617.3,386.9z"/>
		<path class="st4" d="M189.2,379.4c1,7.6,1.2,15.4,1,23.2c0,1.1-0.1,2.6-1,2.6c-1,0-0.9-1.6-0.9-2.6
			C188,394.8,188.4,387.2,189.2,379.4z"/>
		<path class="st4" d="M181.3,367c0.7,10.2,1,19.8,0.6,29.9C179.9,394.4,179.6,373.6,181.3,367z"/>
		<path class="st4" d="M197.4,385.9c1,8.3,1.2,22,0.4,28.7C196,411.2,195.7,397.1,197.4,385.9z"/>
		<path class="st4" d="M61,419.1c0,8.1,0,16.2,0,24.3c0,1-0.2,2.1-0.9,2.3c-0.9,0.2-1-0.9-1-2c-0.1-8-0.1-16,0.4-24
			c0-0.3,0.3-0.6,0.5-0.9C60.3,419,60.7,419,61,419.1z"/>
		<path class="st4" d="M560.9,364.7c0.6,6.9,1.1,13.7,0.8,20.7c0,1-0.1,2.2-1,2.1c-0.5,0-0.8-0.7-0.8-1.5
			C559.8,378.9,559.6,371.7,560.9,364.7z"/>
		<path class="st4" d="M674,375c0.8,7.2,0.8,14.4,1,21.6c0,1.1-0.3,2-1.1,2c-0.7,0.1-0.8-0.9-0.8-1.8C673,389.5,672.8,382.2,674,375
			z"/>
		<path class="st4" d="M51.9,425.1c1.1,5.5,1,11.2,1,16.8c0,1-0.1,2.1-0.9,2.2c-0.8,0.1-1-0.9-1-2C51,436.5,50.8,430.7,51.9,425.1z"
			/>
		<path class="st4" d="M609.4,396.1c0.6,6.9,1.1,13.6,0.7,20.5c0,0.8,0,1.9-0.7,2c-0.5,0-0.8-0.6-0.8-1.4
			C608.2,410,608.3,403,609.4,396.1z"/>
		<path class="st4" d="M601.3,399c0.8,5.1,0.9,10.3,1,15.5c0,1.3-0.1,2.4-1.1,2.4c-1,0-1-1.4-1-2.5C600.3,409.3,600.2,404,601.3,399
			z"/>
		<path class="st4" d="M682.1,377.2c0.7,5.9,1,11.7,0.7,17.6c-0.1,2-0.6,1.1-1,0.5c-0.3-0.5-0.6-1.2-0.7-1.8
			C680.9,388.1,681.2,382.6,682.1,377.2z"/>
		<path class="st4" d="M568.8,377.1c1.1,5.1,1.1,10.4,1,15.7c0,0.9-0.2,1.8-0.9,1.7c-0.8-0.1-0.9-1.2-1-2.2
			C567.8,387.2,568.2,382.2,568.8,377.1z"/>
		<path class="st4" d="M593,399.5c1.3,3.8,1,7.9,1.1,11.9c0,0.9,0.1,2.2-0.8,2.3c-0.9,0.1-1.1-1.1-1.2-2.3
			C592.1,407.4,592.4,403.5,593,399.5z"/>
		<path class="st4" d="M577,387.7c1.1,4.4,1,8.4,1,12.4c0,1-0.4,1.6-1,1.6c-0.8,0-1.1-0.9-1-2C576.1,395.9,575.9,392,577,387.7z"/>
		<path class="st4" d="M44,430.1c0.9,3.5,0.8,7.2,0.8,10.9c0,0.8-0.3,1.4-0.8,1.5c-0.6,0.1-1-0.6-1-1.5
			C42.8,437.3,42.9,433.6,44,430.1z"/>
		<path class="st4" d="M690,380.5c1.1,3.8,1,7,1.1,10.2c0,1.1-0.1,2.1-1,2.1c-0.8,0-1-0.9-1-2C689.1,387.6,689,384.4,690,380.5z"/>
		<path class="st4" d="M586,402.3c-0.3,2.1,0.8,5.8-0.9,5.9c-1.8,0-0.9-3.7-0.9-5.7c0.1-2.1-0.6-5.7,0.9-5.8
			C586.4,396.5,585.5,400.3,586,402.3z"/>
		<path class="st4" d="M698.2,384.2c0.8,2.2,0.8,4.1,0.9,5.9c0,1-0.4,1.5-1,1.6c-0.6,0.1-1-0.6-0.9-1.6
			C697.3,388.3,697.1,386.2,698.2,384.2z"/>
		<path class="st4" d="M34.9,438.3c0.2-1.2-0.2-3.6,0.8-3.6c1.3,0.1,0.8,2.7,1.1,4.2c0.2,1.1,0,2-0.8,2.1
			C34.7,441.1,34.8,439.7,34.9,438.3z"/>
		<path class="st4" d="M707.1,389.8c0,0.9-0.1,1.7-0.7,1.9c-0.8,0.2-1.1-0.5-1.1-1.7c0-0.8,0.1-1.9,0.7-2
			C706.8,387.8,707.1,388.7,707.1,389.8z"/>
		<path class="st4" d="M27.6,437c0.6,0.1,0.9,0.7,1,1.6c0.1,0.9-0.2,1.4-0.7,1.4c-0.5,0.1-1-0.1-1.1-1.2
			C26.8,437.9,27.1,437.3,27.6,437z"/>
	</g>
</g>
<path id="XMLID_1_" class="st5" d="M734.9,638.2V213.9L705.6,197L427.8,36.6L367.5,1.8l-60.3,34.8L29.4,197L0.1,213.9v424.2
	L29.4,655l281.3,162.4l56.9,32.8l56.9-32.8L705.8,655L734.9,638.2z M29.4,622.3V231.8l50-28.9L367.5,36.6l0,0l287.2,165.8l50.9,29.4
	v390.5L367.5,817.5L29.4,622.3z"/>
<linearGradient id="SVGID_1_" gradientUnits="userSpaceOnUse" x1="447.9858" y1="613.0138" x2="447.9858" y2="657.429">
	<stop  offset="0" style="stop-color:#F59C1C"/>
	<stop  offset="0.1127" style="stop-color:#E8931D"/>
	<stop  offset="0.3206" style="stop-color:#C67A21"/>
	<stop  offset="0.6007" style="stop-color:#8F5228"/>
	<stop  offset="0.939" style="stop-color:#441B30"/>
	<stop  offset="1" style="stop-color:#361132"/>
</linearGradient>
<path class="st6" d="M444.2,613c-0.2,8.6-0.3,17.2-0.5,25.8c-3.7,2.3-5.7,6.5-4.9,10.6c0.8,4.1,4.3,7.9,9,8c4.7,0.1,8.3-3.6,9.2-7.6
	c0.9-4-0.8-8.3-4.4-10.7c0-8.7,0.1-17.4,0.1-26C449.9,613,447.1,613,444.2,613z"/>
<path class="st3" d="M429.8,507.2c-1.2,32.6-1.7,45.1-2,49.9c-0.1,1.2-0.3,5.6-0.4,11.5c0,1.5-0.1,4.2,0,7.1
	c0.1,12.7,0.9,17.2,1.9,20.4c0.6,1.9,2.1,7.1,5.4,11.4c6.4,8.5,17.2,11.1,25.1,3.6c5.5-5.2,8-14.5,8.2-15.2c0,0,0.5-1.9,0.8-3.8
	c3-17.5,2.5-35.4,2.5-35.4c-0.4-14-0.9-30.4-1.8-49.1c-3.3,0-6.5,0-9.8,0c0.6,12.3,1.2,26.1,1.7,41.1c0,0.9-0.2,9.9-0.8,28.1
	c-0.2,5.3-0.7,18.3-6.7,24.5c-0.8,0.8-2.6,2.7-5.2,2.8c-3.2,0.1-5.6-2.5-6.5-3.4c-2.7-2.9-4.1-6.9-4.7-20.6
	c-0.3-6.5-0.2-11.6-0.1-14.7c0.2-8,0.3-12,0.8-20.5c0.5-8.2,1-20.5,1.2-37.9C436.3,507.1,433,507.2,429.8,507.2z"/>
<g>
	<path class="st3" d="M534.7,613.5v-57.6c0-2.8-0.2-5.5-0.5-8.4c-0.3-2.8-1-5.4-2-7.7c-1-2.3-2.5-4.3-4.3-5.8
		c-1.9-1.5-4.3-2.2-7.3-2.2c-3,0-5.7,0.8-8,2.4c-2.3,1.6-4.3,3.8-5.9,6.7c-1.6,2.8-2.9,6.1-3.8,9.7c-0.9,3.7-1.3,7.5-1.3,11.4v51.5
		h-11.9v-66.8c0-1.9,0-4-0.1-6.2c-0.1-2.2-0.1-4.4-0.2-6.5c-0.1-2.1-0.1-4-0.2-5.8c-0.1-1.7-0.2-3.1-0.3-4h11.5
		c0.2,2.3,0.4,5,0.5,8.3c0.1,3.2,0.2,6.3,0.2,9.2h0.4c1.7-6,4.4-10.9,8.3-14.7c3.8-3.8,8.6-5.7,14.4-5.7c4.8,0,8.7,1,11.6,3.1
		c2.9,2,5.2,4.7,6.8,8c1.6,3.3,2.6,7,3.1,11.2c0.5,4.1,0.8,8.3,0.8,12.3v57.6H534.7z"/>
</g>
<g>
	<path class="st3" d="M572.2,569.5c0,4.9,0.4,9.5,1.3,13.6c0.8,4.1,2.1,7.7,3.7,10.8c1.6,3.1,3.7,5.5,6.2,7.2
		c2.5,1.7,5.4,2.6,8.8,2.6c4.3,0,7.8-1.3,10.5-4c2.7-2.6,4.7-5.8,6.2-9.5l9,5.2c-2.2,5.4-5.4,9.9-9.6,13.6
		c-4.3,3.7-9.7,5.5-16.3,5.5c-10,0-17.7-4.2-23.2-12.6c-5.5-8.4-8.3-20-8.3-34.7c0-7,0.7-13.4,2.2-19.3c1.4-5.9,3.5-10.9,6.2-15.1
		c2.7-4.2,6-7.5,9.9-9.8c3.9-2.3,8.2-3.5,13-3.5c5.3,0,9.7,1.1,13.4,3.4c3.7,2.3,6.6,5.4,8.9,9.4s3.9,8.6,4.9,13.9
		c1,5.3,1.5,10.9,1.5,16.9v6.5H572.2z M608.3,559.6c0-9-1.4-16.2-4.2-21.7c-2.8-5.5-7.1-8.2-13-8.2c-3.5,0-6.4,1.1-8.8,3.1
		c-2.4,2.1-4.3,4.7-5.8,7.7s-2.6,6.3-3.3,9.8c-0.7,3.5-1,6.5-1,9.2H608.3z"/>
</g>
<g>
	<g class="st1">
		<path class="st4" d="M367.1,802.2l-2.8-4.9l-1.3,0.8l-0.6-1.1l1.3-0.9l-1.2-2.6l1.3-0.7l1.4,2.5l2.4-1.4l0.7,1.2l-2.4,1.4l2.8,4.9
			c0.6,1.1,1.3,1.5,2.3,0.9c0.3-0.2,0.7-0.5,0.9-0.8l0.9,1c-0.4,0.5-0.9,1-1.5,1.3C369.5,804.8,368.1,803.9,367.1,802.2z"/>
		<path class="st4" d="M367.7,790c-0.3-0.6-0.1-1.2,0.5-1.6c0.6-0.3,1.3-0.2,1.6,0.4c0.3,0.6,0.1,1.2-0.5,1.6
			C368.7,790.7,368,790.6,367.7,790z M369.5,792.7l1.5-0.9l5.1,8.9l-1.5,0.9L369.5,792.7z"/>
		<path class="st4" d="M375.9,794.9c-1.6-2.9-0.8-5.7,1.2-6.9c1-0.6,1.9-0.6,3.1-0.4l-0.9-1.5l-2-3.4l1.5-0.9l7.4,13l-1.2,0.7
			l-0.7-1h-0.1c-0.3,1.1-0.9,2.2-2,2.8C380,798.7,377.6,797.9,375.9,794.9z M383.4,793.5l-2.7-4.6c-1.1-0.2-2-0.1-2.7,0.3
			c-1.4,0.8-1.8,2.8-0.6,4.8c1.2,2.1,2.8,2.9,4.4,2C382.7,795.5,383.1,794.7,383.4,793.5z"/>
		<path class="st4" d="M390.4,797.3l-0.4-1.4c0.2,0,0.5-0.1,0.8-0.3c1-0.6,1.2-1.7,0.9-3l-0.2-0.8l-8.6-6.9l1.5-0.9l4.6,3.9
			c0.7,0.6,1.5,1.3,2.3,2h0.1c-0.2-0.9-0.5-2-0.7-2.9l-1.2-5.8l1.5-0.8l2.1,11.5c0.4,2.1,0.2,4-1.6,5
			C391.1,797.2,390.7,797.3,390.4,797.3z"/>
		<path class="st4" d="M392.7,779.5l1.2-0.7l0.9,1.2l0,0c0.3-1.3,0.8-2.5,1.9-3.1c1.4-0.8,2.5-0.5,3.4,0.3c0.4-1.5,0.9-2.7,2-3.4
			c1.8-1,3.4-0.3,4.7,1.9l3.2,5.6l-1.5,0.9l-3.1-5.4c-0.9-1.7-1.9-2.1-3-1.4c-0.7,0.4-1.1,1.2-1.4,2.6l3.7,6.4l-1.5,0.9l-3.1-5.4
			c-0.9-1.7-1.9-2.1-3-1.4c-0.7,0.4-1.1,1.2-1.4,2.6l3.7,6.4l-1.5,0.9L392.7,779.5z"/>
		<path class="st4" d="M409.7,775.7c-1.7-3-0.7-5.8,1.4-7c2.2-1.2,5.1-0.6,6.8,2.3c1.7,2.9,0.7,5.7-1.5,7
			C414.2,779.2,411.3,778.6,409.7,775.7z M416.3,771.8c-1.2-2-3-2.8-4.5-2c-1.5,0.9-1.8,2.8-0.6,4.9c1.2,2,3,2.8,4.5,1.9
			C417.2,775.8,417.5,773.9,416.3,771.8z"/>
		<path class="st4" d="M419.6,770c-1.6-2.9-0.8-5.7,1.2-6.9c1-0.6,1.9-0.6,3.1-0.4l-0.9-1.5l-1.9-3.4l1.5-0.9l7.4,13l-1.2,0.7
			l-0.7-1l0,0c-0.3,1.1-0.9,2.2-2,2.8C423.7,773.8,421.3,772.9,419.6,770z M427.1,768.6l-2.7-4.6c-1.1-0.2-2-0.1-2.7,0.3
			c-1.4,0.8-1.8,2.8-0.6,4.8c1.2,2.1,2.8,2.9,4.4,2C426.3,770.6,426.8,769.8,427.1,768.6z"/>
		<path class="st4" d="M429.7,764.2c-1.6-2.9-0.7-5.8,1.3-6.9c2.3-1.3,4.5-0.4,5.9,2.1c0.2,0.3,0.3,0.6,0.4,0.9l-6,3.4
			c1.2,1.8,3,2.4,4.7,1.4c0.9-0.5,1.4-1.2,1.8-2l1.1,0.7c-0.5,1-1.2,1.9-2.4,2.6C434.2,767.8,431.3,767.1,429.7,764.2z M435.4,760
			c-1-1.8-2.4-2.3-3.8-1.5c-1.2,0.7-1.8,2.3-1,4.2L435.4,760z"/>
		<path class="st4" d="M440.9,761.3l-6.4-11.2l1.5-0.9l6.5,11.3c0.3,0.5,0.6,0.5,0.8,0.4c0.1,0,0.2-0.1,0.3-0.2l0.9,1
			c-0.2,0.2-0.4,0.4-0.8,0.6C442.5,763.1,441.6,762.6,440.9,761.3z"/>
		<path class="st4" d="M445,760l0.2-1.4c1.1,0.2,2.2,0.2,3.2-0.4c1.2-0.7,1.4-1.6,1-2.4c-0.5-0.9-1.8-0.7-3-0.5
			c-1.5,0.3-3.3,0.4-4.1-1.1c-0.8-1.4-0.3-3.2,1.6-4.3c1.1-0.6,2.3-0.7,3.3-0.6l-0.2,1.4c-0.9-0.1-1.7-0.1-2.5,0.4
			c-1.1,0.6-1.3,1.5-0.9,2.2c0.5,0.8,1.6,0.6,2.8,0.4c1.6-0.2,3.3-0.5,4.2,1.1c0.8,1.4,0.4,3.3-1.7,4.5
			C447.7,760.1,446.2,760.2,445,760z"/>
		<path class="st4" d="M453.3,755.3c-0.4-0.7-0.2-1.4,0.4-1.8c0.6-0.3,1.4-0.1,1.7,0.5c0.4,0.7,0.2,1.4-0.4,1.8
			C454.5,756.2,453.7,756,453.3,755.3z"/>
		<path class="st4" d="M455.5,749.5c-1.7-3-0.7-5.8,1.4-7c2.2-1.2,5.1-0.6,6.8,2.3c1.7,2.9,0.7,5.7-1.5,7
			C460.1,753,457.2,752.4,455.5,749.5z M462.2,745.6c-1.2-2-3-2.8-4.5-2c-1.5,0.9-1.8,2.8-0.6,4.9c1.2,2,3,2.8,4.5,1.9
			C463.1,749.6,463.4,747.7,462.2,745.6z"/>
		<path class="st4" d="M463.5,739l1.2-0.7l1,1.5l0,0c0-1.5,0.5-2.7,1.5-3.3c0.4-0.2,0.7-0.3,1-0.4l0.5,1.5c-0.4,0.1-0.6,0.1-0.9,0.3
			c-0.7,0.4-1.3,1.5-1.1,3.3l3.2,5.7l-1.5,0.9L463.5,739z"/>
		<path class="st4" d="M475.2,746.3c-0.4-0.8-0.4-1.8,0.2-2.7v-0.1c-0.6,0-1.2-0.3-1.6-1s-0.2-1.6,0-2.2v-0.1
			c-0.9-0.1-1.9-0.7-2.5-1.7c-1.1-1.9-0.3-4,1.5-5.1c0.5-0.3,1-0.4,1.4-0.5l3.1-1.8l0.7,1.2l-1.8,1c0.6,0.2,1.3,0.7,1.8,1.4
			c1.1,1.9,0.3,3.9-1.5,4.9c-0.4,0.2-1,0.4-1.5,0.5c-0.2,0.5-0.2,0.9,0,1.4c0.3,0.6,0.9,0.8,2.1,0.1l1.7-1c2.1-1.2,3.5-1.1,4.3,0.3
			c0.9,1.6,0,4.1-2.7,5.6C478.1,747.8,476.1,747.9,475.2,746.3z M476.4,735.5c-0.7-1.3-2-1.6-3.1-1s-1.4,1.8-0.7,3.1
			c0.7,1.3,2.1,1.6,3.1,1S477.2,736.8,476.4,735.5z M481.6,742c-0.5-0.8-1.3-0.7-2.4-0.1l-1.5,0.9c-0.3,0.2-0.8,0.4-1.2,0.5
			c-0.4,0.8-0.3,1.5-0.1,2c0.5,1,1.8,1,3.5,0.1S482.2,743,481.6,742z"/>
	</g>
</g>
</svg>
