<?xml version="1.0" encoding="utf-8"?>
<!-- Generator: Adobe Illustrator 26.4.1, SVG Export Plug-In . SVG Version: 6.00 Build 0)  -->
<svg version="1.1" id="Layer_1" xmlns="http://www.w3.org/2000/svg" xmlns:xlink="http://www.w3.org/1999/xlink" x="0px" y="0px"
	 viewBox="0 0 2521 2911" style="enable-background:new 0 0 2521 2911;" xml:space="preserve">
<style type="text/css">
	.st0{fill:#383838;}
	.st1{fill:#2C848C;}
	.st2{fill:#B0DDF1;}
	.st3{fill:#6DC963;}
	.st4{fill:#385F88;}
	.st5{fill:#30768B;}
	.st6{fill:#3E3775;}
	.st7{fill:#3D417C;}
	.st8{fill:#42125B;}
	.st9{fill:#3E2D6F;}
	.st10{fill:#3C5188;}
	.st11{fill:#34698A;}
	.st12{fill:#41A87B;}
	.st13{fill:#2E788B;}
	.st14{fill:#389F81;}
	.st15{fill:#3D4881;}
	.st16{fill:#46AE78;}
	.st17{fill:#356789;}
	.st18{fill:#3F2F70;}
	.st19{fill:#40276A;}
	.st20{fill:#2C818B;}
	.st21{fill:#83CE5C;}
	.st22{fill:#4CB373;}
	.st23{fill:#ABD54F;}
	.st24{fill:#5AC16C;}
	.st25{fill:#40A77C;}
	.st26{fill:#2E9589;}
	.st27{fill:#336D8A;}
	.st28{fill:#2B8C8B;}
	.st29{fill:#326F8A;}
	.st30{fill:#395C89;}
	.st31{fill:#49B175;}
	.st32{fill:#2F7C8B;}
	
		.st33{opacity:0.35;clip-path:url(#SVGID_00000063606702514534556970000000065610742629678208_);fill:#383838;enable-background:new    ;}
	.st34{enable-background:new    ;}
	.st35{clip-path:url(#SVGID_00000178174390799186667390000003215156288480458410_);}
	.st36{fill:#FFFFFF;}
</style>
<g>
	<polygon class="st0" points="13.2,910.9 19.8,906.4 21.2,911.9 30.2,909.2 39.3,917.9 53.6,908.8 53.7,908.1 45.9,913.3 
		40.7,914.7 49.3,907.4 54.2,901.2 45.2,909.2 35.1,910.9 35.1,903.6 30.2,904 22.9,909.2 20.5,905.3 21.9,897 21.2,890.7 
		13.6,895.6 5.6,905.3 1,914.4 0,915.3 0,921.6 8,912.3 	"/>
	<polygon class="st0" points="1409.2,348.2 1409.9,352.8 1409.9,352.4 	"/>
	<polygon class="st0" points="1314.4,1547.3 1308.8,1542 1314.4,1547.6 1320.6,1537.9 1327.2,1541 1327.4,1540.9 1320.6,1537.5 	"/>
	<polygon class="st0" points="53.9,907.1 53.7,908.1 53.7,908.1 	"/>
	<polygon class="st0" points="1274.8,1129.5 1281,1133.7 1275.1,1129.5 	"/>
	<polygon class="st0" points="1337.7,1528.1 1335.6,1520.5 1333.1,1537.2 1329.6,1539.6 1333.1,1537.5 1333.5,1537.2 1335.6,1521.2 
		1337.3,1528.1 1337.3,1528.5 1343.6,1533.3 1348.4,1546.2 1343.9,1533.3 	"/>
	<polygon class="st0" points="1290.7,1508.3 1284.8,1509 1284.8,1509.4 1290.7,1508.7 1297.3,1517.4 1308.8,1542 1297.7,1517.4 	"/>
	<polygon class="st0" points="2271.5,2115.1 2278.4,2109.2 2285,2103 2278.1,2108.9 	"/>
	<polygon class="st0" points="2285.7,2102.3 2331.6,2185.7 2329.5,2178.7 2325,2160.3 2313.9,2112.4 2307.3,2088.4 2305.2,2084.5 
		2300,2089.8 2290.9,2097.4 2285.7,2101.9 2285,2103 	"/>
	<polygon class="st0" points="2086.9,1803.4 2086.6,1803.8 2088.3,1826.7 	"/>
	<polygon class="st0" points="2247.8,2135.3 2254.4,2129.7 2257.6,2128 2264.2,2121.7 2270.4,2115.8 2271.5,2115.1 2270.1,2115.8 
		2264.2,2121.4 2257.2,2127.6 2254.1,2129.4 2247.8,2134.9 2247.5,2135.6 	"/>
	<polygon class="st0" points="53.6,908.8 51.8,923.4 51.8,923.3 53.6,908.8 	"/>
	<polygon class="st0" points="2358.4,2246.2 2346.9,2225.3 2335.8,2201.7 2346.5,2225.3 	"/>
	<polygon class="st0" points="1696.3,1555.2 1681,1536.5 1664,1520.5 1681,1536.8 1696.3,1555.6 1702.6,1557.7 1710.6,1565.3 
		1702.6,1557.3 	"/>
	<polygon class="st0" points="1587.5,1617.1 1587.9,1617.5 1588.6,1600.8 1594.8,1598 1588.6,1600.4 	"/>
	<polygon class="st0" points="1605.3,1571.6 1599,1575.7 1594.8,1598 1595.2,1598 1599.3,1575.7 1605.3,1571.9 1609.1,1558 
		1616.4,1565.7 1609.1,1557.7 	"/>
	<polygon class="st0" points="1572.9,1602.2 1579.9,1605.6 1587.5,1617.1 1580.2,1605.6 	"/>
	<polygon class="st0" points="1549.6,1595.6 1543,1592.1 1549.6,1595.9 1554.2,1581.3 1559.7,1580.6 1553.8,1581.3 	"/>
	<polygon class="st0" points="1528.4,1579.2 1529.8,1575.7 1536.1,1579.2 1529.8,1575.4 	"/>
	<polygon class="st0" points="2205.1,2171.4 2212,2165.2 2232.2,2149.2 2246.8,2136.3 2247.5,2135.6 2246.8,2136 2231.9,2148.8 
		2212,2164.8 2205.1,2171.1 2201.6,2172.8 2189.8,2182.6 2202,2173.2 	"/>
	<polygon class="st0" points="1635.5,1534.7 1626.1,1550.7 1622.6,1563.2 1626.1,1551.1 1635.5,1535.1 1643.8,1546.9 1648.3,1548.3 
		1644.2,1546.9 	"/>
	<polygon class="st0" points="1657.7,1538.2 1658.8,1522.6 1664,1520.5 1658.4,1522.6 	"/>
	<polygon class="st0" points="1648.3,1548.3 1654.6,1545.9 1657.7,1538.2 1654.6,1545.5 	"/>
	<polygon class="st0" points="1361.3,1575.7 1366.8,1569.1 1374.1,1576.8 1366.8,1568.8 	"/>
	<polygon class="st0" points="1399.2,1574.7 1402.6,1583.7 1408.2,1592.4 1403,1583.7 	"/>
	<polygon class="st0" points="1444,1595.6 1439.1,1582 1438.4,1565.3 1432.2,1569.5 1438.1,1565.7 1438.8,1582 1443.6,1595.6 
		1450.3,1596.3 1452.3,1604.6 1450.6,1595.9 	"/>
	<polygon class="st0" points="1351.6,1576.4 1358.2,1574 1361.3,1575.7 1358.2,1573.7 	"/>
	<polygon class="st0" points="1466.6,1617.8 1461,1626.5 1466.6,1618.1 1473.8,1590.1 1473.5,1590 	"/>
	<polygon class="st0" points="1477.2,1591.7 1480.5,1593.5 1484.3,1607.7 1480.8,1593.5 	"/>
	<polygon class="st0" points="1514.5,1619.5 1515.2,1603.2 1514.9,1603.2 1514.2,1619.5 1518.4,1635.5 1520.8,1638 1518.7,1635.5 	
		"/>
	<polygon class="st0" points="1523.6,1602.9 1524.6,1634.5 1520.8,1638 1524.6,1634.8 1525,1634.8 1523.9,1602.9 1529.1,1590 
		1528.4,1579.2 1528.8,1589.7 	"/>
	<polygon class="st0" points="1500.3,1620.2 1500.6,1620.2 1509.3,1604.2 1514.4,1603.3 1509,1603.9 	"/>
	<polygon class="st0" points="2149.8,2185.3 2139.4,2165.5 2133.8,2140.9 2139.1,2165.5 	"/>
	<polygon class="st0" points="2008,1613.3 2004.9,1597.6 2004.9,1589.7 2004.6,1597.6 	"/>
	<polygon class="st0" points="2010.5,1600.4 2008,1613.3 2008,1614 	"/>
	<polygon class="st0" points="1935.1,2195.1 1940.6,2220.1 1962.5,2262.5 1965.6,2263.5 1970.2,2287.2 1978.2,2312.5 1978.5,2312.5 
		1970.5,2287.2 1966,2263.2 1962.9,2262.1 1952.4,2242 1941,2220.1 1935.4,2195.1 1927.4,2174.6 1927.4,2174.2 1923.6,2171.4 
		1927.1,2174.6 	"/>
	<polygon class="st0" points="2171.7,2197.2 2172.4,2196.5 2171.1,2197.4 2164.8,2203.4 	"/>
	<polygon class="st0" points="2019.9,1620.2 2020.6,1617.8 2011.2,1600.4 2010.8,1600.4 2020.2,1617.8 	"/>
	<polygon class="st0" points="1408.2,1592.8 1414.5,1585.5 1408.2,1592.4 	"/>
	<polygon class="st0" points="1616.4,1566 1622.6,1563.2 1616.4,1565.7 	"/>
	<polygon class="st0" points="2047.7,1698.8 2056.3,1713.3 2056.7,1713.4 2048,1698.8 2047.7,1680.7 2047.3,1681.1 	"/>
	<polygon class="st0" points="2065.4,1735.6 2067.5,1740.5 2068.5,1743.6 2068,1741.1 2067.8,1740.8 2065.7,1735.6 2057.4,1729.7 
		2049.7,1714.8 2057.4,1730.1 	"/>
	<polygon class="st0" points="2070.9,1748.1 2071.3,1748.5 2078.2,1750.9 2080.3,1753.7 2081.2,1758 2080.7,1753.7 2078.2,1750.6 
		2071.3,1748.1 2068.5,1743.6 	"/>
	<polygon class="st0" points="2076.9,1761 2077.5,1758.9 2081.4,1758.9 2081.3,1758.6 2077.5,1758.6 	"/>
	<polygon class="st0" points="1387,1582.7 1392.9,1577.1 1387,1582.4 	"/>
	<polygon class="st0" points="2049.4,1711.3 2054.8,1712.8 2049.4,1710.9 	"/>
	<polygon class="st0" points="2043.1,1686.6 2047.1,1681.4 2042.8,1686.3 2039,1690.1 2039,1690.4 	"/>
	<polygon class="st0" points="2034.5,1656 2034.1,1661.2 2033.8,1679.7 2034.1,1679.7 2034.5,1661.2 2034.8,1656 2025.4,1649.4 
		2019.9,1632.4 2025.1,1649.4 	"/>
	<path class="st0" d="M1858.3,2008.8l18.1,26.8l8.7,18.4l14.2,41l5.9,34.8l10.1,19.1l-9.7-19.1l-1.7-11.1l0.7,5.6l-2.8-17l2.1,11.5
		l-4.2-23.6l-6.3-19.8l4.9,16l-10.8-31.6l5.9,15.6l-8-21.5l-8.7-18.1l-9-13.6l-72.6-310v-0.7h-0.3L1858.3,2008.8z M1862.1,2013.7
		l3.5,5.9l-5.9-9L1862.1,2013.7z M1855.5,1994.9l-1.7-8l-0.7-4.2L1855.5,1994.9z M1841.9,1930.6l-1.7-7l-0.7-3.5L1841.9,1930.6z
		 M1826.3,1857.3l2.1,10.4l-3.5-15.6L1826.3,1857.3z M1814.1,1800.6l1.7,8.7l-2.8-12.2L1814.1,1800.6z M1802.3,1746l1.7,8.3
		l-2.8-12.9L1802.3,1746z"/>
	<polygon class="st0" points="2127.9,2111.7 2129.7,2108.5 2130.4,2108.2 2130.3,2107.9 2129.7,2108.2 	"/>
	<polygon class="st0" points="2127.6,2090.1 2116.1,2072 2115.8,2072 	"/>
	<polygon class="st0" points="1078.7,1186.9 1030.8,1716.9 1079.1,1186.9 1080.5,1174.7 1083.6,1171.6 1080.1,1174.7 	"/>
	<polygon class="st0" points="1710.6,1565.3 1728.6,1567.8 1731.4,1571.2 1728.6,1567.4 	"/>
	<polygon class="st0" points="2122.7,2066.1 2116.1,2072 2123.1,2066.1 2114.7,2044.6 	"/>
	<polygon class="st0" points="2150.2,2214.2 2161.3,2205.5 2164.8,2203.4 2161.3,2205.1 2150.5,2213.8 2149.8,2185.3 2150.2,2213.5 
			"/>
	<polygon class="st0" points="54.2,908.5 54.2,907.8 54,907.9 54,908.6 	"/>
	<polygon class="st0" points="506.1,855 500.4,867.1 496.6,875.1 500.4,867.5 	"/>
	<polygon class="st0" points="2084.5,1838.5 2092.5,1843 2084.8,1838.5 2090.1,1834 2088.3,1826.7 2089.7,1834 	"/>
	<polygon class="st0" points="2081.7,1810 2074.8,1808.9 2074.8,1809.3 	"/>
	<polygon class="st0" points="2073,1789.8 2073.1,1790.1 2077.5,1780.1 2076.9,1761 2077.2,1780.1 	"/>
	<polygon class="st0" points="2101.5,1998 2101.5,1998.4 2108.1,1997.3 2109.2,2005.3 2108.5,2008.1 2107.8,2024.8 2108.8,2008.1 
		2109.5,2005.7 2108.5,1997 2101.9,1998 2104.7,1981 2101.1,1965 2104.3,1980.6 	"/>
	<polygon class="st0" points="2093.2,1877.8 2093.9,1900.7 2093.5,1877.8 2094.2,1863.9 2094.2,1846.5 2093.9,1863.9 	"/>
	<polygon class="st0" points="2100.5,1938.6 2100.1,1960.5 2100.1,1960.5 2100.8,1938.6 2093.9,1930.9 2090.8,1910.8 2093.5,1930.9 
			"/>
	<polygon class="st0" points="2090.8,1910.8 2091.4,1908.3 2093.9,1900.7 2091.1,1908.3 	"/>
	<polygon class="st0" points="163,1360.3 163.7,1349.2 165.1,1337 166.1,1325.9 166.8,1314.1 168.2,1301.9 169.2,1291.5 
		170.3,1279.6 170.3,1278.6 171.7,1267.1 172,1256.7 172.9,1246.6 171.7,1257.1 171.3,1267.1 169.9,1278.6 169.9,1279.6 
		168.6,1291.5 167.9,1302.2 166.5,1314.1 165.8,1325.9 164.7,1337 163.3,1349.2 162.6,1360.3 161.3,1372.8 160.6,1385.3 
		161.6,1372.8 	"/>
	<polygon class="st0" points="202.6,910.9 201.9,918.2 201.9,919.2 202.4,915.1 	"/>
	<polygon class="st0" points="204.7,891.1 204.7,886.9 204.3,891.4 203,907.4 202.7,909.9 203.3,907.1 	"/>
	<polygon class="st0" points="159.2,1398.3 159.2,1398.5 159.5,1400.8 159.5,1400.6 	"/>
	<polygon class="st0" points="175.2,1227.2 175.2,1227.2 175.9,1217.1 176.5,1206.3 176.9,1203.2 177.9,1192.4 176.5,1203.2 
		176.2,1206.3 175.5,1217.1 174.8,1227.2 173.8,1235.5 173.1,1244.5 174.1,1235.2 	"/>
	<polygon class="st0" points="228.7,778.5 227.8,779.9 228.9,778.2 	"/>
	<polygon class="st0" points="205.7,878.2 205.7,877.9 205.7,877.2 205.7,877.2 206.1,870.2 206.4,867.8 211.6,810.1 211.6,809.8 
		212.3,803.5 221.8,788.9 211.6,804.2 211.3,810.1 211.3,810.5 211.3,810.8 206.1,868.5 205.7,870.9 205.4,877.9 205.4,878.6 
		204.7,886.6 205,886.2 	"/>
	<polygon class="st0" points="179.7,1171.9 180.7,1161.5 180.7,1156.6 182.1,1147.2 182.5,1137.8 184.2,1122.7 185.6,1106.9 
		185.9,1098.6 186.6,1089.5 188.4,1075.6 189.1,1067.3 189.4,1061.4 189.8,1059.4 190.9,1047.4 191.1,1039.8 191.8,1031.2 
		193.6,1017.3 195,1001.3 195.3,995.4 196,990.1 200.2,942.9 200.2,942.5 200.5,935.6 199.8,942.9 199.8,943.6 195.7,990.8 
		195,996.1 194.6,1002 193.2,1017.9 191.5,1031.8 190.8,1040.2 190.1,1049.6 189.4,1058.3 188.7,1061.7 188.7,1068 188,1076.3 
		186.3,1090.2 185.6,1099.3 184.9,1109 184.2,1118 181.8,1138.5 181.8,1147.6 180.4,1157.3 180.4,1161.8 179.3,1172.3 178.6,1182.7 
		177.9,1192.4 179,1182.7 	"/>
	<polygon class="st0" points="619.3,509.1 617.6,508.8 613.4,508.8 609.6,508.8 605.4,508.8 601.2,508.1 597.1,508.1 596,508.1 
		591.8,507.8 589.1,507.4 582.1,507.1 582.1,507.1 589.1,507.8 591.8,508.1 596,508.5 597.1,508.5 601.6,508.5 605.7,509.1 
		609.9,509.1 614.1,509.1 617.5,509.4 620,509.5 659.3,511.2 662.7,511.2 651.4,510.6 	"/>
	<polygon class="st0" points="246.7,751.4 246.4,752.1 244,755.7 246.7,751.7 	"/>
	<rect x="577.4" y="504.6" class="st0" width="0" height="4.5"/>
	<polygon class="st0" points="651.4,510.6 654.1,510.7 542.2,504.2 542.2,504.2 	"/>
	
		<rect x="375.7" y="555.4" transform="matrix(0.5547 -0.8321 0.8321 0.5547 -294.8051 559.8927)" class="st0" width="0" height="0"/>
	<polygon class="st0" points="538.3,503.9 609.5,375.5 608,376.3 537.2,503.8 	"/>
	<polygon class="st0" points="1709.2,257.9 1714.4,266.6 1714.7,270.7 1718.9,274.6 1720.3,278.7 1723.8,282.2 1726.2,286 
		1727.6,290.5 1728.6,294.7 1732.8,303.8 1734.5,307.9 1737.3,316.6 1739.4,320.8 1746,328.8 1750.2,331.9 1753.6,338.9 1757.1,343 
		1759.9,347.2 1765.8,353.8 1771.7,357.3 1776.6,357.6 1779.4,355.5 1783.9,348.9 1787.7,340.9 1788.4,339.5 1789.8,334.3 
		1789.8,329.1 1789.8,324.6 1787.4,310.7 1787,301.3 1786.3,296.5 1786,295.4 1706.7,249.6 1706.7,250.2 	"/>
	<polygon class="st0" points="1266.1,37.5 1321.7,29.9 1325.1,29.3 1274.4,0 1192.5,46.2 1200,45.5 	"/>
	<polygon class="st0" points="663.4,511.2 661.1,511.1 662.7,511.2 	"/>
	<polygon class="st0" points="1.7,876.5 7.3,860.5 7.3,859.8 4.2,863.3 9.7,855.3 14.2,846.6 16.3,839.3 16.7,832.7 18.4,824.4 
		27.5,801.8 31.3,787.5 36.5,772.9 45.5,764.6 53.9,752.8 71.2,723.2 84.1,708.3 91.7,700.6 97.3,692 102.5,685 106,678.1 
		110.5,671.4 118.3,652.9 0,719.8 0,879.8 	"/>
	<polygon class="st0" points="2490.8,702.7 2498.4,708.6 2511.6,717.7 2516.6,717.2 2497.1,706 2496.7,705.9 	"/>
	<polygon class="st0" points="2488,2202.7 2488.6,2205.5 2504.4,2196.4 2492.2,2194.7 	"/>
	<polygon class="st0" points="2375.4,2267.7 2375,2267 2358.4,2246.2 2374.7,2267.4 2376.7,2270.6 2376.9,2270.5 2375.5,2267.8 	"/>
	<polygon class="st0" points="1999,2438.3 1997.6,2410.2 1990,2383.1 1987.2,2356.7 1979.2,2333.7 1978.2,2312.5 1978.8,2333.7 
		1986.8,2356.7 1989.6,2383.1 1997.3,2410.2 1998.3,2438.3 2003.2,2467.5 2003.2,2487.6 2003.5,2487.4 2003.5,2467.5 	"/>
	<polygon class="st0" points="2444.4,2231.2 2452.6,2226.5 2450.5,2224.3 	"/>
	<polygon class="st0" points="2507.4,2134.9 2501.2,2112.4 2491.8,2091.5 2480,2072.7 2476.2,2072.4 2466.1,2057.4 2471,2067.5 
		2475.8,2087.7 2483.8,2111.7 2513.3,2191.2 2521,2186.7 2521,2156.8 2518.9,2155.1 	"/>
	<polygon class="st0" points="564,2483.2 649.9,2470 760.7,2444.3 858.1,2422.7 955,2395.9 959.2,2393.9 968.6,2365.4 968.6,2365 
		1003.7,1987.2 1030.8,1716.9 1003.3,1987.2 968.2,2365 958.8,2393.5 955,2395.6 858.1,2422.4 760.7,2443.9 649.9,2469.3 
		564,2482.8 563.7,2482.8 561.3,2496.4 560.5,2505.3 560.8,2505.5 561.6,2496.4 	"/>
	<polygon class="st0" points="1995.5,1594.9 1994.8,1595.6 1995.5,1595.2 2001.8,1592.4 2004.9,1589.7 2004.9,1589.3 2001.4,1592.4 
			"/>
	<polygon class="st0" points="1918,1642.1 1910,1647 1918.4,1642.1 1921.2,1641.1 1926,1637.3 1920.8,1640.7 	"/>
	<polygon class="st0" points="1933.3,1633.8 1939.2,1629.6 1942.4,1628.2 1938.9,1629.6 	"/>
	<polygon class="st0" points="1985.8,1600.8 1984.1,1601.8 1979.5,1605.3 1984.1,1602.2 1986.1,1600.8 1991.4,1598.7 1994.8,1595.6 
		1991,1598.3 	"/>
	<polygon class="st0" points="1947.6,1624.1 1942.4,1628.2 1947.6,1624.4 1957,1620.2 1961.8,1616.4 1956.6,1620.2 	"/>
	<polygon class="st0" points="1886.4,904.3 1886.4,904.3 1885,894.6 	"/>
	<polygon class="st0" points="1741.1,1586.5 1745.3,1573.7 1765.5,1574.7 1745.3,1573.3 	"/>
	<polygon class="st0" points="1876,1667.5 1877.7,1666.1 1888.5,1660.2 1877.4,1666.1 	"/>
	<polygon class="st0" points="1810.3,1702.9 1803.7,1706.4 1803,1707.1 1802.7,1707.3 1801.3,1708.5 1803.7,1706.8 1810.6,1702.9 
		1811.3,1702.6 1812,1702.3 1826.3,1694.3 1812,1701.9 	"/>
	<polygon class="st0" points="1846.4,1683.1 1857.6,1677.2 1863.8,1674.5 1857.6,1676.9 	"/>
	<polygon class="st0" points="1834.6,1690.4 1837.4,1688.4 1841.9,1685.6 1837.1,1688 	"/>
	<polygon class="st0" points="1867.3,1671.7 1863.8,1674.5 1867.6,1671.7 1873.2,1668.5 1876,1667.5 1872.9,1668.5 	"/>
	<polygon class="st1" points="106,678.1 102.5,685 97.3,692 91.7,700.6 84.1,708.3 71.2,723.2 53.9,752.8 45.5,764.6 36.5,772.9 
		31.3,787.5 27.5,801.8 18.4,824.4 16.7,832.7 16.3,839.3 14.2,846.6 9.7,855.3 4.2,863.3 7.3,859.8 7.3,860.5 1.7,876.5 0,879.8 
		0,915.3 1,914.4 5.6,905.3 13.6,895.6 21.2,890.7 21.9,897 20.5,905.3 22.9,909.2 30.2,904 35.1,903.6 35.1,910.9 45.2,909.2 
		54.2,901.2 49.3,907.4 40.7,914.7 45.9,913.3 53.7,908.1 53.9,907.1 54,907.9 54.2,907.8 54.2,908.5 54,908.6 54.6,913.7 53.2,921 
		51.8,923.8 51.8,923.3 51.8,923.4 53.6,908.8 39.3,917.9 30.2,909.2 21.2,911.9 19.8,906.4 13.2,910.9 8,912.3 0,921.6 0,1872.1 
		11.5,1845.1 28.8,1810 41,1796.8 51.8,1778 90.7,1736.7 103.9,1717.9 105.3,1703.3 104.3,1674.5 112.6,1655 116.4,1639 122,1623.7 
		127.9,1603.2 132.8,1573 139,1556.6 146.3,1541.7 148.7,1516.3 148.7,1512.1 150.1,1499.6 150.5,1498.2 150.5,1497.2 151.2,1488.9 
		153.3,1467 154.3,1455.2 155,1448.5 156,1436 156.7,1428.7 157.4,1416.9 159,1404.6 159.2,1403.4 159.5,1400.8 159.2,1398.5 
		159.2,1398.3 159.2,1398.2 160.6,1385.3 161.3,1372.8 162.6,1360.3 163.3,1349.2 164.7,1337 165.8,1325.9 166.5,1314.1 
		167.9,1302.2 168.6,1291.5 169.9,1279.6 169.9,1278.6 171.3,1267.1 171.7,1257.1 172.9,1246.6 173.1,1245.2 173.1,1244.5 
		173.8,1235.5 174.8,1227.2 175.5,1217.1 176.2,1206.3 176.5,1203.2 177.9,1192.4 177.9,1192.4 177.9,1192.4 178.6,1182.7 
		179.3,1172.3 180.4,1161.8 180.4,1157.3 181.8,1147.6 181.8,1138.5 184.2,1118 184.9,1109 185.6,1099.3 186.3,1090.2 188,1076.3 
		188.7,1068 188.7,1061.7 189.4,1058.3 190.1,1049.6 190.8,1040.2 191.5,1031.8 193.2,1017.9 194.6,1002 195,996.1 195.7,990.8 
		199.8,943.6 199.8,942.9 200.5,935.6 200.5,934.9 200.9,932.1 201.9,919.2 201.9,919.2 201.9,918.2 202.6,910.9 202.6,910.2 
		202.7,909.9 203,907.4 204.3,891.4 204.7,886.9 204.7,886.6 204.7,886.6 205.4,878.6 205.4,877.9 205.7,870.9 206.1,868.5 
		211.3,810.8 211.3,810.5 211.3,810.1 211.6,804.2 221.8,788.9 226.6,781.6 227.8,779.9 228.7,778.5 228.9,778.2 229.7,777.1 
		239.4,762.5 241.2,759.7 244,755.7 246.4,752.1 246.7,751.4 247.1,750.7 247.4,750 255.8,737.8 258.9,732.3 264.5,724.3 
		265.9,722.2 270.4,714.9 274.2,709.7 276.6,706.2 280.1,699.9 285.7,692.3 289.1,686.7 293.7,679.8 298.5,672.1 300.6,669 
		305.8,661.4 310,654.8 318,643 321.5,637.7 328.1,627.3 329.5,625.6 332.9,620 337.8,612.7 338.1,612.4 345.4,600.9 348.2,596.7 
		353.1,589.8 355.2,586.3 358.3,581.8 360.7,578 363.5,573.4 367.7,567.2 375.7,555.4 375.7,555.4 375.7,555.4 376.4,554 
		377.7,552.1 379.5,549.1 386.5,538.7 387.5,537 388.9,534.9 393.8,527.6 395.5,524.8 397.9,521 414.6,495.6 417.5,491.2 
		416.3,491.1 411.5,490.4 407.4,489.7 118.3,652.9 110.5,671.4 	"/>
	<rect x="53.3" y="908.5" transform="matrix(0.124 -0.9923 0.9923 0.124 -854.4123 849.0677)" class="st1" width="0.7" height="0"/>
	<polygon class="st2" points="53.6,908.8 51.8,923.3 51.8,923.8 53.2,921 54.6,913.7 54,908.6 54,907.9 53.9,907.1 53.7,908.1 	"/>
	<polygon class="st3" points="1814.1,1800.6 1813.1,1797.1 1815.9,1809.3 	"/>
	<polygon class="st3" points="1826.3,1857.3 1824.9,1852 1828.4,1867.7 	"/>
	<polygon class="st3" points="1802.3,1746 1801.3,1741.5 1804,1754.4 	"/>
	<polygon class="st3" points="1855.5,1994.9 1853,1982.7 1853.7,1986.9 	"/>
	<polygon class="st3" points="1841.9,1930.6 1839.5,1920.2 1840.2,1923.6 	"/>
	<polygon class="st3" points="1862.1,2013.7 1859.6,2010.5 1865.6,2019.6 	"/>
	<polygon class="st3" points="2300,2089.8 2305.2,2084.5 2285.7,2101.9 2290.9,2097.4 	"/>
	<polygon class="st4" points="2358.4,2246.2 2346.5,2225.3 2335.8,2201.7 2331.6,2185.7 2285.7,2102.3 2285,2103 2278.4,2109.2 
		2271.5,2115.1 2270.4,2115.8 2264.2,2121.7 2257.6,2128 2254.4,2129.7 2247.8,2135.3 2247.5,2135.6 2246.8,2136.3 2232.2,2149.2 
		2212,2165.2 2205.1,2171.4 2202,2173.2 2189.8,2182.6 2184.6,2187.4 2181.5,2189.2 2172.4,2196.5 2171.7,2197.2 2164.8,2203.4 
		2161.3,2205.5 2150.2,2214.2 2150.2,2213.5 2149.8,2185.3 2139.1,2165.5 2133.8,2140.9 2122.7,2119.3 2127.9,2111.7 2129.7,2108.2 
		2130.3,2107.9 2127.6,2090.1 2115.8,2072 2116.1,2072 2122.7,2066.1 2114.7,2044.6 2107.8,2024.8 2108.5,2008.1 2109.2,2005.3 
		2108.1,1997.3 2101.5,1998.4 2101.5,1998 2104.3,1980.6 2101.1,1965 2100.1,1960.8 2100.1,1960.5 2100.1,1960.5 2100.5,1938.6 
		2093.5,1930.9 2090.8,1910.8 2091.1,1908.3 2093.9,1900.7 2093.2,1877.8 2093.9,1863.9 2094.2,1846.5 2092.5,1843 2084.5,1838.5 
		2089.7,1834 2088.3,1826.7 2086.6,1803.8 2081.7,1810 2074.8,1809.3 2074.8,1808.9 2073,1790.2 2073.1,1790.1 2073,1789.8 
		2077.2,1780.1 2076.9,1761 2077.5,1758.6 2081.3,1758.6 2081.2,1758 2080.3,1753.7 2078.2,1750.9 2071.3,1748.5 2070.9,1748.1 
		2068.5,1743.6 2067.5,1740.5 2065.4,1735.6 2057.4,1730.1 2049.7,1714.8 2049.4,1711.3 2049.4,1711.3 2049.4,1710.9 2054.8,1712.8 
		2056.3,1713.3 2047.7,1698.8 2047.3,1681.1 2047.1,1681.4 2043.1,1686.6 2039,1690.4 2039,1690.1 2034.1,1679.7 2033.8,1679.7 
		2034.1,1661.2 2034.5,1656 2025.1,1649.4 2019.9,1632.4 2019.9,1620.2 2020.2,1617.8 2010.8,1600.4 2010.5,1600.4 2008,1614 
		2008,1613.3 2004.6,1597.6 2004.9,1589.7 2001.8,1592.4 1995.5,1595.2 1994.8,1595.6 1991.4,1598.7 1986.1,1600.8 1984.1,1602.2 
		1979.5,1605.3 1972.9,1609.8 1967.4,1612.2 1961.8,1616.4 1957,1620.2 1947.6,1624.4 1942.4,1628.2 1939.2,1629.6 1933.3,1633.8 
		1927.8,1636.2 1926,1637.3 1921.2,1641.1 1918.4,1642.1 1910,1647 1909,1647.7 1908.3,1648 1888.5,1660.2 1877.7,1666.1 
		1876,1667.5 1873.2,1668.5 1867.6,1671.7 1863.8,1674.5 1857.6,1677.2 1846.4,1683.1 1844.7,1684.5 1841.9,1685.6 1837.4,1688.4 
		1834.6,1690.4 1826.3,1694.3 1812,1702.3 1811.3,1702.6 1810.6,1702.9 1803.7,1706.8 1801.3,1708.5 1795,1711.3 1795,1712 
		1867.6,2022 1876.7,2035.5 1885.4,2053.6 1893.4,2075.2 1899.6,2095 1903.8,2118.6 1905.5,2129.7 1915.3,2148.8 1923.6,2171.4 
		1927.4,2174.2 1927.4,2174.6 1935.4,2195.1 1941,2220.1 1952.4,2242 1962.9,2262.1 1966,2263.2 1970.5,2287.2 1978.5,2312.5 
		1978.2,2312.5 1979.2,2333.7 1987.2,2356.7 1990,2383.1 1997.6,2410.2 1999,2438.3 2003.5,2467.5 2003.5,2487.4 2376.7,2270.6 
		2374.7,2267.4 	"/>
	<polygon class="st3" points="2331.6,2185.7 2331.9,2186 2325,2160.3 2329.5,2178.7 	"/>
	<polygon class="st2" points="1898.2,2091.2 1893.4,2075.2 1887.4,2059.5 	"/>
	<polygon class="st2" points="1904.5,2124.2 1903.8,2118.6 1901.7,2107.1 	"/>
	<polygon class="st2" points="2123.1,2066.1 2112,2035.9 2107.8,2024.8 2114.7,2044.6 	"/>
	<polygon class="st2" points="2107.8,2024.8 2109.5,2005.7 2108.8,2008.1 	"/>
	<polygon class="st2" points="2171.1,2197.4 2170,2198.2 2162,2204.4 2161.3,2205.1 2164.8,2203.4 	"/>
	<polygon class="st2" points="2212,2164.8 2210,2166.2 2202.7,2172.1 2201.6,2172.8 2205.1,2171.1 	"/>
	<polygon class="st2" points="2090.8,1910.8 2093.9,1900.7 2091.4,1908.3 	"/>
	<polygon class="st2" points="2264.2,2121.4 2270.1,2115.8 2271.5,2115.1 2278.1,2108.9 2285,2103 2285.7,2101.9 2254.8,2128.7 
		2254.1,2129.4 2257.2,2127.6 	"/>
	<polygon class="st2" points="2247.8,2134.9 2246.8,2136 2247.5,2135.6 	"/>
	<polygon class="st2" points="2189.8,2182.6 2188.1,2183.6 2182.5,2188.1 2181.5,2189.2 2184.6,2187.4 	"/>
	<polygon class="st2" points="2034.1,1679.7 2034.8,1656 2034.5,1661.2 	"/>
	<polygon class="st2" points="2019.9,1632.4 2020.6,1617.8 2019.9,1620.2 	"/>
	<polygon class="st2" points="2020.6,1617.5 2020.6,1616.4 2015.7,1601.5 2011.2,1600.4 2020.6,1617.8 	"/>
	<polygon class="st2" points="2071.3,1748.1 2070.9,1747.1 2068,1741.1 2068.5,1743.6 	"/>
	<polygon class="st2" points="2076.9,1761 2081.4,1758.9 2077.5,1758.9 	"/>
	<polygon class="st2" points="2093.9,1900.7 2094.2,1863.9 2093.5,1877.8 	"/>
	<polygon class="st2" points="2047.1,1681.4 2047.3,1681.1 2047.7,1680.7 2040.4,1688.7 2039,1690.1 2042.8,1686.3 	"/>
	<polygon class="st2" points="2127.9,2111.7 2122.7,2119.3 2130.4,2108.2 2129.7,2108.5 	"/>
	<polygon class="st2" points="2376.9,2270.5 2377.3,2270.2 2375.5,2267.8 	"/>
	<polygon class="st2" points="2335.8,2201.7 2331.9,2186 2331.6,2185.7 	"/>
	<polygon class="st2" points="1886.4,904.3 1889.9,902.2 1885,894.6 	"/>
	<polygon class="st2" points="1876.3,1666.8 1874.2,1667.8 1872.9,1668.5 1876,1667.5 1877.4,1666.1 	"/>
	<polygon class="st2" points="1836.7,1688.4 1827.7,1693.2 1826.3,1694.3 1834.6,1690.4 1837.1,1688 	"/>
	<polygon class="st2" points="1795,1711.3 1801.3,1708.5 1802.7,1707.3 	"/>
	<polygon class="st2" points="1843.3,1684.9 1841.9,1685.6 1844.7,1684.5 1846.4,1683.1 1845.4,1683.5 	"/>
	<polygon class="st2" points="1986.8,1600.1 1985.8,1600.8 1991,1598.3 1994.8,1595.6 1994.1,1595.9 	"/>
	<polygon class="st2" points="1866.2,1672.4 1858.6,1676.2 1857.6,1676.9 1863.8,1674.5 1867.3,1671.7 	"/>
	<polygon class="st2" points="1982.3,1602.9 1928.5,1635.5 1927.8,1636.2 1933.3,1633.8 1938.9,1629.6 1942.4,1628.2 1947.6,1624.1 
		1956.6,1620.2 1961.8,1616.4 1967.4,1612.2 1972.9,1609.8 1979.5,1605.3 1984.1,1601.8 	"/>
	<polygon class="st2" points="1909,1647.7 1910,1647 1908.3,1648 	"/>
	<polygon class="st2" points="1919.1,1641.4 1918,1642.1 1920.8,1640.7 1926,1637.3 1924.3,1638.3 	"/>
	<polygon class="st2" points="1995.5,1594.9 2001.4,1592.4 2004.9,1589.3 1996.6,1594.2 	"/>
	<polygon class="st5" points="1176,675.3 1181.6,575.5 1177.4,573.1 1131.9,580.4 1089.2,586 1085.3,586.3 1079.4,587 1076.7,587.7 
		1072.8,588 1068.7,588.4 1065.2,588.7 1059.6,589.4 1056.8,590.1 1053,590.5 1048.9,590.8 1048.2,590.8 1045,591.2 1042.9,591.5 
		1041.2,591.5 1040.2,591.5 1039.1,591.9 1035.6,592.2 1015.5,594.6 974.5,598.5 970.7,598.8 966.8,599.2 964.7,599.2 955,599.9 
		951.2,600.2 947.4,600.6 945.3,600.6 922.4,602.3 919.2,602.6 915.7,602.6 915.1,602.6 897.7,604 882.4,604.7 881,605.1 
		880.6,605.1 867.1,605.8 864.3,606.1 862.9,605.8 852.1,606.5 846.9,624.9 846.2,627.3 829.6,684 829.6,684.3 823.7,704.5 
		823.3,706.2 823,706.9 805.2,767.4 804.9,768.8 804.5,769.5 798.6,790.3 797.9,793.1 797.2,794.5 792.7,810.5 792.4,811.2 
		776.4,865.7 775.7,868.5 775,870.2 769.1,891.4 768,895.3 767,897.7 746.5,967.9 744.8,974.5 738.2,996.4 736.8,1001.6 
		735.4,1006.1 734.7,1008.9 732.6,1016.6 731.2,1020.4 726,1037.8 723.2,1048.5 721.1,1055.5 718,1065.9 715.9,1072.9 709,1096.8 
		707.2,1103.1 705.8,1106.9 697.8,1134.4 703.4,1134 711.1,1133.3 715.6,1133 743,1130.9 745.5,1130.9 763.9,1129.5 777.4,1128.5 
		785.8,1127.8 806.6,1126.4 834.4,1123.3 846.2,1121.9 903.2,1116 976.6,1105.2 1018.6,1099.3 1041.6,1095.1 1058.9,1092 
		1091.3,1086.1 1153.8,1074.6 	"/>
	<polygon class="st2" points="805.2,767.4 804.5,769.5 804.9,768.8 	"/>
	<polygon class="st2" points="823.7,704.5 823,706.9 823.3,706.2 	"/>
	<polygon class="st2" points="798.6,790.3 797.2,794.5 797.9,793.1 	"/>
	<polygon class="st2" points="709,1096.8 705.8,1106.9 707.2,1103.1 	"/>
	<polygon class="st2" points="734.7,1008.9 731.2,1020.4 732.6,1016.6 	"/>
	<polygon class="st2" points="726,1037.8 721.1,1055.5 723.2,1048.5 	"/>
	<polygon class="st2" points="769.1,891.4 767,897.7 768,895.3 	"/>
	<polygon class="st2" points="776.4,865.7 775,870.2 775.7,868.5 	"/>
	<polygon class="st2" points="738.2,996.4 735.4,1006.1 736.8,1001.6 	"/>
	<polygon class="st6" points="636.3,570.7 635.3,572.7 633.9,575.5 622.1,601.9 619.1,608 617.2,612 611.7,624.5 611,626.3 
		610,628.1 607.5,633.8 607.5,633.9 606.8,635.3 606.1,636.3 605.7,637.7 595.7,659.6 594.1,662.5 591.3,668.5 590.5,670.4 
		588.4,674.9 569.6,716.3 567,721.8 565.8,724.6 564,728.1 542.5,775.4 538.3,784.5 536.9,787.5 533.6,794.9 521.6,820.9 
		521.3,821.2 517.5,830.3 516.8,832 513,840 506.1,855 500.4,867.5 496.6,875.1 468.8,935.9 466.4,941.5 462.2,950.5 448.3,980.8 
		444.1,990.1 435.1,1009.6 410.8,1062.8 408.4,1069 403.1,1080.2 398.3,1090.2 387.8,1113.2 383,1123.6 377.4,1135.4 399.7,1136.5 
		435.5,1138.5 453.9,1138.9 476.5,1139.2 486.2,1139.2 492.5,1139.2 501.1,1139.6 522.7,1139.9 585.2,1138.9 596.7,1138.9 
		608.5,1138.5 650.2,1136.8 652.3,1136.5 660,1136.1 663.1,1136.1 669.7,1135.8 671.8,1135.8 679.4,1135.4 685,1135.1 697.8,1134.4 
		705.8,1106.9 709,1096.8 715.9,1072.9 718,1065.9 721.1,1055.5 726,1037.8 731.2,1020.4 734.7,1008.9 735.4,1006.1 738.2,996.4 
		744.8,974.5 746.5,967.9 767,897.7 769.1,891.4 775,870.2 776.4,865.7 792.4,811.2 792.7,810.5 797.2,794.5 798.6,790.3 
		804.5,769.5 805.2,767.4 823,706.9 823.7,704.5 829.6,684.3 829.6,684 846.2,627.3 846.9,624.9 852.1,606.5 842.4,606.8 840,607.2 
		838.6,606.8 835.1,607.2 834.4,607.2 832,607.2 826.4,607.2 824.7,607.5 820.5,607.5 816.7,607.8 814.3,607.5 810.4,607.8 
		808.8,607.9 807.3,608.2 805.1,608 800.7,608.1 799.7,608.2 797.2,608.2 793.8,608.2 791.3,608.5 789.9,608.2 783.7,608.5 
		779.5,608.9 775,608.5 771.2,608.9 769.1,608.9 758,609.2 761.8,598.5 762.5,595.7 764.6,590.8 767,584.2 767,583.9 767.4,582.5 
		770.8,573.4 771.5,571 772.6,567.9 780.2,546.7 781.6,542.2 784,535.9 784.4,534.9 785.8,531.7 787.9,526.2 788.6,523.7 
		789.6,520.6 792.4,513.3 789.2,513.3 785.1,513.3 784.7,513.3 773.6,513.3 772.2,513.3 767.7,513.3 766.7,513.3 756.9,513.3 
		754.8,513.7 753.8,513.3 740.9,513.7 736.8,513.3 727.7,513.3 723.6,513.3 714.9,513 714.5,513.3 710,513 705.5,513 701.3,513 
		696.8,513 693,512.6 679.8,512.3 663.4,511.2 642.2,558.2 	"/>
	<polygon class="st2" points="247.1,750.7 246.7,751.4 247.4,750 	"/>
	<polygon class="st2" points="185.9,1098.6 185.6,1106.9 188.4,1075.6 186.6,1089.5 	"/>
	<polygon class="st2" points="182.1,1147.2 184.2,1122.7 182.5,1137.8 	"/>
	<polygon class="st2" points="264.5,724.3 258.9,732.3 255.8,737.8 265.9,722.2 	"/>
	<polygon class="st2" points="191.1,1039.8 190.9,1047.4 193.6,1017.3 191.8,1031.2 	"/>
	<polygon class="st2" points="189.1,1067.3 189.8,1059.4 189.4,1061.4 	"/>
	<polygon class="st2" points="195,1001.3 196,990.1 195.3,995.4 	"/>
	<polygon class="st2" points="377.7,552.1 376.4,554 375.7,555.4 375.7,555.4 	"/>
	<polygon class="st2" points="205.7,877.2 206.4,867.8 206.1,870.2 	"/>
	<polygon class="st2" points="200.2,942.9 200.9,932.1 200.5,934.9 200.5,935.6 200.2,942.5 	"/>
	<polygon class="st2" points="203.3,907.1 202.7,909.9 202.6,910.2 202.6,910.9 202.4,915.1 	"/>
	<polygon class="st2" points="205,886.2 204.7,886.6 204.7,886.6 204.7,886.9 204.7,891.1 	"/>
	<polygon class="st2" points="246.7,751.7 244,755.7 241.2,759.7 239.4,762.5 	"/>
	<polygon class="st2" points="363.5,573.4 360.7,578 367.7,567.2 	"/>
	<polygon class="st2" points="151.2,1488.9 150.5,1497.2 150.5,1498.2 	"/>
	<polygon class="st2" points="154.3,1455.2 153.3,1467 155,1448.5 	"/>
	<polygon class="st2" points="176.5,1206.3 175.9,1217.1 175.2,1227.2 182.1,1147.2 180.7,1156.6 180.7,1161.5 179.7,1171.9 
		179,1182.7 177.9,1192.4 177.9,1192.4 177.9,1192.4 176.9,1203.2 	"/>
	<polygon class="st2" points="171.7,1267.1 175.2,1227.2 174.1,1235.2 173.1,1244.5 173.1,1245.2 172.9,1246.6 172,1256.7 	"/>
	<polygon class="st2" points="318,643 310,654.8 305.8,661.4 300.6,669 298.5,672.1 293.7,679.8 289.1,686.7 285.7,692.3 
		280.1,699.9 276.6,706.2 	"/>
	<polygon class="st2" points="270.4,714.9 265.9,722.2 274.2,709.7 	"/>
	<polygon class="st2" points="355.2,586.3 353.1,589.8 358.3,581.8 	"/>
	<polygon class="st2" points="150.1,1499.6 148.7,1512.1 148.7,1516.3 	"/>
	<polygon class="st2" points="337.8,612.7 332.9,620 329.5,625.6 338.1,612.4 	"/>
	<polygon class="st2" points="395.5,524.8 393.8,527.6 397.9,521 	"/>
	<polygon class="st2" points="159,1404.6 157.4,1416.9 156.7,1428.7 156,1436 	"/>
	<polygon class="st2" points="171.7,1267.1 170.3,1278.6 170.3,1279.6 169.2,1291.5 168.2,1301.9 166.8,1314.1 166.1,1325.9 
		165.1,1337 163.7,1349.2 163,1360.3 161.6,1372.8 160.6,1385.3 159.2,1398.2 159.2,1398.3 159.5,1400.6 	"/>
	<polygon class="st2" points="387.5,537 386.5,538.7 388.9,534.9 	"/>
	<polygon class="st2" points="567,721.8 564,728.1 565.8,724.6 	"/>
	<polygon class="st2" points="605.7,637.7 606.1,636.3 594.1,662.5 595.7,659.6 	"/>
	<polygon class="st2" points="591.3,668.5 588.4,674.9 590.5,670.4 	"/>
	<polygon class="st2" points="636.3,570.7 642.2,558.2 663.4,511.2 635.3,572.7 	"/>
	<polygon class="st2" points="633.9,575.5 619.1,608 622.1,601.9 	"/>
	<polygon class="st2" points="611.7,624.5 610,628.1 611,626.3 	"/>
	<polygon class="st2" points="607.5,633.8 606.8,635.3 607.5,633.9 	"/>
	<polygon class="st2" points="538.3,784.5 533.6,794.9 536.9,787.5 	"/>
	<polygon class="st2" points="387.8,1113.2 398.3,1090.2 403.1,1080.2 408.4,1069 410.8,1062.8 377.4,1135.4 383,1123.6 	"/>
	<polygon class="st2" points="506.1,855 513,840 516.8,832 517.5,830.3 521.3,821.2 496.6,875.1 500.4,867.1 	"/>
	<polygon class="st2" points="448.3,980.8 462.2,950.5 466.4,941.5 468.8,935.9 435.1,1009.6 444.1,990.1 	"/>
	<polygon class="st7" points="1127,274.9 1126.7,279.4 1126.4,282.2 1125.7,285.3 1125.3,289.8 1125,290.5 1124.6,295.4 
		1124.3,298.9 1123.6,303.8 1123.2,306.5 1122.9,307.2 1122.9,311.4 1121.5,319.7 1121.1,324.6 1119.4,337.5 1119.4,337.8 
		1119.1,342 1118.4,347.2 1117.3,354.5 1117,356.6 1116.6,360.4 1115.9,365.6 1115.5,368.6 1115.2,371 1114.9,374.6 1114.5,377.8 
		1114.2,382.3 1113.5,386.8 1112.8,389.9 1112.8,389.9 1112.5,394.5 1111.8,399.3 1111.1,404.5 1110.4,409.4 1129.1,407.3 
		1131.7,407.1 1134.3,406.6 1136.1,406.6 1143,405.9 1146.2,405.2 1148.2,405.2 1152.4,404.9 1155.2,404.2 1159,403.8 1163.2,403.1 
		1167.4,402.5 1169.8,402.5 1171.5,402.1 1175,401.4 1178.5,401.1 1179.9,401.1 1184.4,400.4 1186.8,399.7 1191,399.3 1191.3,399.3 
		1196.9,398.6 1198.6,398.3 1202.1,397.9 1203.2,397.6 1206.6,396.9 1210.5,396.5 1214.6,395.8 1218.4,395.5 1222.3,395.2 
		1226.4,394.1 1229.2,393.8 1231.7,393.4 1238.6,392 1240,392 1241.4,392 1244.2,391.3 1246.6,391 1250.8,390.3 1256.3,389.2 
		1260.5,388.6 1264.3,387.9 1266.8,387.9 1269.9,387.2 1275.8,385.8 1279.6,385.4 1284.8,384.4 1288.7,384 1300.8,381.6 
		1303.2,381.3 1310.5,379.9 1316.5,378.5 1317.8,378.5 1332.4,375.7 1337,380.6 1342.5,383.7 1344.3,384.4 1348.1,385.8 
		1351.6,388.2 1352.6,388.6 1356.1,386.1 1358.2,380.9 1361.6,380.6 1365.5,380.6 1368.9,378.8 1371.4,378.5 1376.9,376.4 
		1380.1,375 1382.8,377.1 1386.7,380.9 1389.8,380.6 1393.6,381.9 1394.3,383.3 1397.4,382.3 1401.3,386.1 1405.1,387.2 1407.5,392 
		1411.3,395.5 1414.8,396.2 1411.7,386.1 1407.9,382.6 1406.5,377.8 1407.5,372.9 1408.2,371.9 1409.6,362.1 1408.5,357.3 
		1409.9,352.8 1409.2,348.2 1409.6,352.4 1409.6,352.8 1409.2,348.2 1409.2,347.9 1405.4,344.4 1403.7,339.9 1405.1,338.5 
		1405.1,333.6 1402.6,329.8 1400.9,325 1406.5,323.6 1405.4,316.3 1398.8,263.8 1391.5,208.5 1388.7,205.4 1388.4,205 1385.6,203.7 
		1382.8,203.7 1378.3,196.7 1375.5,193.9 1376.2,191.1 1378.7,187 1381.4,184.2 1382.5,180 1383.5,172.4 1347,179.3 1345,179.7 
		1323.1,183.5 1310.9,185.2 1307.1,186.3 1305.7,186.3 1299.1,187.3 1298.7,187.3 1293.9,188.4 1292.1,188.4 1286.9,189.1 
		1284.1,189.8 1283.1,189.8 1274.7,191.1 1274.4,191.1 1274.1,191.1 1262.6,193.2 1256,193.9 1254.6,194.3 1253.9,194.3 
		1249.7,194.6 1249.4,195 1248.7,195 1248,195 1242.8,195.7 1239.6,196.4 1236.9,196.4 1236.2,196.7 1233.4,197.1 1229.9,197.4 
		1229.6,197.4 1226.4,198.1 1223.7,198.1 1223,198.4 1219.8,198.8 1216.7,199.1 1216,199.1 1213.2,199.8 1209.8,200.2 1196.2,201.9 
		1187.2,203 1185.4,203.3 1182.3,203.3 1181.6,203.3 1178.1,203.7 1177.8,204 1175.4,204.4 1172.2,204.7 1169.4,204.7 1168.8,204.7 
		1165.3,205.4 1161.8,205.7 1159,206.1 1157.3,206.1 1154.2,206.4 1152.8,206.4 1150,206.8 1147.2,207.5 1144.1,207.8 1140.3,207.8 
		1139.6,208.2 1136.1,208.5 1136.1,209.2 1136.1,210.6 1135.4,214.1 1135.4,216.9 1134.7,221.7 1134,225.9 1134,228 1133.5,230.8 
		1133.3,233.2 1132.6,237.7 1132.6,238.4 1132.6,239.5 1131.9,243.6 1131.9,246.1 1131.2,249.9 1131.2,250.2 1129.8,262 
		1128.1,266.9 1127.7,270.7 	"/>
	<polygon class="st2" points="1409.6,352.4 1409.2,348.2 1409.6,352.8 	"/>
	<polygon class="st2" points="1244.2,391.3 1241.4,392 1246.6,391 	"/>
	<polygon class="st2" points="1368.9,378.8 1365.5,380.6 1371.4,378.5 	"/>
	<polygon class="st2" points="1348.1,385.8 1344.3,384.4 1342.5,383.7 1351.6,388.2 	"/>
	<polygon class="st2" points="1361.6,380.6 1358.2,380.9 1365.5,380.6 	"/>
	<polygon class="st2" points="1316.5,378.5 1310.5,379.9 1317.8,378.5 	"/>
	<polygon class="st2" points="1300.8,381.6 1288.7,384 1303.2,381.3 	"/>
	<polygon class="st2" points="1178.5,401.1 1175,401.4 1171.5,402.1 1179.9,401.1 	"/>
	<polygon class="st2" points="1148.2,405.2 1146.2,405.2 1143,405.9 1152.4,404.9 	"/>
	<polygon class="st2" points="1382.8,377.1 1380.1,375 1386.7,380.9 	"/>
	<polygon class="st2" points="1134.3,406.6 1131.7,407.1 1136.1,406.6 	"/>
	<polygon class="st2" points="1191,399.3 1186.8,399.7 1184.4,400.4 1191.3,399.3 	"/>
	<polygon class="st2" points="1167.4,402.5 1163.2,403.1 1159,403.8 1155.2,404.2 1152.4,404.9 1169.8,402.5 	"/>
	<polygon class="st2" points="1198.6,398.3 1196.9,398.6 1202.1,397.9 	"/>
	<polygon class="st2" points="1218.4,395.5 1214.6,395.8 1210.5,396.5 1206.6,396.9 1203.2,397.6 1222.3,395.2 	"/>
	<polygon class="st2" points="1264.3,387.9 1260.5,388.6 1256.3,389.2 1250.8,390.3 1266.8,387.9 	"/>
	<polygon class="st2" points="1284.8,384.4 1279.6,385.4 1275.8,385.8 1269.9,387.2 1288.7,384 	"/>
	<polygon class="st2" points="1238.6,392 1231.7,393.4 1240,392 	"/>
	<polygon class="st2" points="1226.4,394.1 1222.3,395.2 1229.2,393.8 	"/>
	<polygon class="st8" points="1150.7,89.3 1150.3,91.1 1149.6,97.7 1149.6,98.7 1149.6,99 1148.9,102.2 1148.9,102.9 1148.9,103.9 
		1146.9,119.9 1146.9,121.3 1146.5,124.8 1146.2,125.1 1145.8,129.3 1145.8,131.4 1145.1,134.5 1144.8,136.6 1144.1,143.5 
		1144.1,144.9 1143.6,147.2 1143.4,149.1 1143,152.9 1142,159.2 1141.6,162.6 1141.6,165.1 1140.9,168.9 1140.6,171.7 1140.6,172.7 
		1140.3,175.9 1139.9,179.3 1139.7,180.6 1139.2,184.5 1138.5,187.7 1138.5,189.4 1138.2,193.2 1137.8,196.7 1137.1,200.2 
		1136.1,208.5 1139.6,208.2 1140.3,207.8 1144.1,207.8 1147.2,207.5 1150,206.8 1152.8,206.4 1154.2,206.4 1157.3,206.1 1159,206.1 
		1161.8,205.7 1165.3,205.4 1168.8,204.7 1169.4,204.7 1172.2,204.7 1175.4,204.4 1177.8,204 1178.1,203.7 1181.6,203.3 
		1182.3,203.3 1185.4,203.3 1187.2,203 1196.2,201.9 1209.8,200.2 1213.2,199.8 1216,199.1 1216.7,199.1 1219.8,198.8 1223,198.4 
		1223.7,198.1 1226.4,198.1 1229.6,197.4 1229.9,197.4 1233.4,197.1 1236.2,196.7 1236.9,196.4 1239.6,196.4 1242.8,195.7 1248,195 
		1248.7,195 1249.4,195 1249.7,194.6 1253.9,194.3 1254.6,194.3 1256,193.9 1262.6,193.2 1274.1,191.1 1274.4,191.1 1274.7,191.1 
		1283.1,189.8 1284.1,189.8 1286.9,189.1 1292.1,188.4 1293.9,188.4 1298.7,187.3 1299.1,187.3 1305.7,186.3 1307.1,186.3 
		1310.9,185.2 1323.1,183.5 1345,179.7 1347,179.3 1383.5,172.4 1382.5,168.9 1382.1,165.4 1380.4,158.5 1380.1,154.7 1379,151.5 
		1374.8,146.7 1373.4,143.5 1373.4,139.7 1371.7,136.9 1370,124.4 1370,120.9 1367.9,117.8 1367.5,113 1366.1,106.3 1365.5,100.1 
		1364.1,97 1364.4,93.8 1364.1,90.7 1362,84.1 1357.1,75.8 1357.5,73.7 1353.3,64.3 1352.2,61.2 1351.9,55.6 1351.2,53.9 
		1351.6,51.1 1350.2,45.9 1350.5,43.9 1325.1,29.3 1321.7,29.9 1266.1,37.5 1200,45.5 1192.5,46.2 1153.1,68.5 1150.7,88.6 	"/>
	<polygon class="st2" points="867.1,605.8 862.9,605.8 864.3,606.1 	"/>
	<polygon class="st2" points="919.2,602.6 922.4,602.3 915.1,602.6 915.7,602.6 	"/>
	<polygon class="st2" points="1040.2,591.5 1035.6,592.2 1039.1,591.9 	"/>
	<polygon class="st2" points="882.4,604.7 880.6,605.1 881,605.1 	"/>
	<polygon class="st2" points="951.2,600.2 955,599.9 945.3,600.6 947.4,600.6 	"/>
	<polygon class="st2" points="970.7,598.8 974.5,598.5 964.7,599.2 966.8,599.2 	"/>
	<polygon class="st2" points="1072.8,588 1076.7,587.7 1079.4,587 1065.2,588.7 1068.7,588.4 	"/>
	<polygon class="st2" points="1045,591.2 1041.2,591.5 1042.9,591.5 	"/>
	<polygon class="st2" points="1053,590.5 1056.8,590.1 1059.6,589.4 1048.2,590.8 1048.9,590.8 	"/>
	<polygon class="st2" points="1124.3,298.9 1124.6,295.4 1123.2,306.5 1123.6,303.8 	"/>
	<polygon class="st2" points="1125.3,289.8 1125.7,285.3 1126.4,282.2 1126.7,279.4 1127,274.9 1127.7,270.7 1128.1,266.9 
		1125,290.5 	"/>
	<polygon class="st2" points="1119.1,342 1119.4,337.8 1117.3,354.5 1118.4,347.2 	"/>
	<polygon class="st2" points="1114.2,382.3 1114.5,377.8 1114.9,374.6 1115.2,371 1112.8,389.9 1113.5,386.8 	"/>
	<polygon class="st2" points="1111.8,399.3 1112.5,394.5 1112.8,389.9 1110.4,409.4 1111.1,404.5 	"/>
	<polygon class="st2" points="1116.6,360.4 1117,356.6 1115.5,368.6 1115.9,365.6 	"/>
	<polygon class="st2" points="1121.5,319.7 1122.9,311.4 1122.9,307.2 1119.4,337.5 1121.1,324.6 	"/>
	<polygon class="st2" points="1146.9,121.3 1146.9,119.9 1146.2,125.1 1146.5,124.8 	"/>
	<polygon class="st2" points="1144.1,143.5 1143.6,147.2 1144.1,144.9 	"/>
	<polygon class="st2" points="1150.7,88.6 1150.3,91.1 1150.7,89.3 	"/>
	<polygon class="st2" points="1137.8,196.7 1138.2,193.2 1138.5,189.4 1138.5,187.7 1136.1,208.5 1137.1,200.2 	"/>
	<polygon class="st2" points="1140.3,175.9 1140.6,172.7 1139.7,180.6 1139.9,179.3 	"/>
	<polygon class="st2" points="1145.8,131.4 1145.8,129.3 1144.8,136.6 1145.1,134.5 	"/>
	<polygon class="st2" points="1141.6,165.1 1141.6,162.6 1140.6,171.7 1140.9,168.9 	"/>
	<polygon class="st2" points="1131.9,243.6 1131.2,249.9 1131.9,246.1 	"/>
	<polygon class="st2" points="1134,225.9 1133.5,230.8 1134,228 	"/>
	<polygon class="st2" points="1135.4,214.1 1134.7,221.7 1135.4,216.9 	"/>
	<polygon class="st2" points="840,607.2 842.4,606.8 838.6,606.8 	"/>
	<polygon class="st2" points="767,583.9 767,584.2 767.4,582.5 	"/>
	<polygon class="st2" points="771.2,608.9 775,608.5 769.1,608.9 	"/>
	<polygon class="st2" points="762.5,595.7 761.8,598.5 764.6,590.8 	"/>
	<polygon class="st2" points="788.6,523.7 787.9,526.2 789.6,520.6 	"/>
	<polygon class="st2" points="784.4,534.9 784,535.9 781.6,542.2 780.2,546.7 785.8,531.7 	"/>
	<polygon class="st2" points="771.5,571 770.8,573.4 772.6,567.9 	"/>
	<polygon class="st2" points="791.3,608.5 793.8,608.2 789.9,608.2 	"/>
	<polygon class="st2" points="779.5,608.9 783.7,608.5 775,608.5 	"/>
	<polygon class="st2" points="799.7,608.2 800.7,608.1 797.2,608.2 	"/>
	<polygon class="st2" points="807.3,608.2 808.8,607.9 805.1,608 	"/>
	<polygon class="st2" points="816.7,607.8 820.5,607.5 824.7,607.5 826.4,607.2 814.3,607.5 	"/>
	<polygon class="st9" points="542.2,504.2 538.3,503.9 542.2,504.2 	"/>
	<polygon class="st9" points="609.9,509.1 605.7,509.1 617.5,509.4 614.1,509.1 	"/>
	<polygon class="st9" points="542.2,504.2 654.1,510.7 658.6,510.9 661.1,511.1 663.4,511.2 679.8,512.3 693,512.6 696.8,513 
		701.3,513 705.5,513 710,513 714.5,513.3 714.9,513 723.6,513.3 727.7,513.3 736.8,513.3 740.9,513.7 753.8,513.3 754.8,513.7 
		756.9,513.3 766.7,513.3 767.7,513.3 772.2,513.3 773.6,513.3 784.7,513.3 785.1,513.3 789.2,513.3 792.4,513.3 863.3,314.9 
		861.2,311.4 860.1,307.2 860.1,303.8 859.8,299.6 856.7,298.9 849,309 848,311.7 842.1,310.7 838.2,312.4 835.1,310.7 831.6,311.7 
		828.5,312.1 825,311.4 821.9,310 820.2,311 819.8,311.4 815.3,315.6 811.8,316.3 808.4,315.6 804.9,315.2 801.8,315.2 797.9,318 
		795.8,322.5 794.1,323.9 792,320.1 791.3,315.9 793.1,311.4 792.4,307.9 794.8,303.4 794.8,300.3 795.2,295.8 792.7,292.6 
		788.6,294.4 787.2,290.9 787.5,286.4 791,280.5 791.7,276.6 792,272.5 792,272.4 609.5,375.5 538.3,503.9 	"/>
	<polygon class="st9" points="597.1,508.5 596,508.5 605.7,509.1 601.6,508.5 	"/>
	<polygon class="st9" points="582.1,507.1 579.7,507.1 579.7,507.1 591.8,508.1 589.1,507.8 	"/>
	<polygon class="st9" points="552.2,505 556.1,505.3 554.3,505 	"/>
	<polygon class="st4" points="791.7,276.6 791,280.5 787.5,286.4 787.2,290.9 788.6,294.4 792.7,292.6 795.2,295.8 794.8,300.3 
		794.8,303.4 792.4,307.9 793.1,311.4 791.3,315.9 792,320.1 794.1,323.9 795.8,322.5 797.9,318 801.8,315.2 804.9,315.2 
		808.4,315.6 811.8,316.3 815.3,315.6 819.8,311.4 820.2,311 821.9,310 825,311.4 828.5,312.1 831.6,311.7 835.1,310.7 838.2,312.4 
		842.1,310.7 848,311.7 849,309 856.7,298.9 859.8,299.6 860.1,303.8 860.1,307.2 861.2,311.4 863.3,314.9 874.4,284.3 878.6,280.8 
		944.2,279.4 1008.5,276.6 1079.8,271.4 1128.1,266.9 1129.8,262 1131.2,250.2 1131.2,249.9 1131.9,243.6 1132.6,239.5 
		1132.6,238.4 1132.6,237.7 1133.3,233.2 1133.5,230.8 1134,225.9 1134.7,221.7 1135.4,214.1 1136.1,210.6 1136.1,209.2 
		1136.1,208.5 1138.5,187.7 1139.2,184.5 1139.7,180.6 1140.6,172.7 1140.6,171.7 1141.6,162.6 1142,159.2 1143,152.9 1143.4,149.1 
		1143.6,147.2 1144.1,143.5 1144.8,136.6 1145.8,129.3 1146.2,125.1 1146.9,119.9 1148.9,103.9 1148.9,102.9 1148.9,102.2 
		1149.6,99 1149.6,98.7 1149.6,97.7 1150.3,91.1 1150.7,88.6 1153.1,68.5 792,272.4 792,272.5 	"/>
	<polygon class="st2" points="552.2,505 554.3,505 556.1,505.3 572.7,506.4 575.2,506.7 575.2,506.7 579.7,507.1 582.1,507.1 
		582.1,507.1 589.1,507.4 591.8,507.8 596,508.1 597.1,508.1 601.2,508.1 605.4,508.8 609.6,508.8 613.4,508.8 617.6,508.8 
		619.3,509.1 651.4,510.6 542.2,504.2 538.3,503.9 542.2,504.3 	"/>
	<polygon class="st2" points="662.7,511.2 662.7,511.2 661.1,511.1 658.6,510.9 654.1,510.7 651.4,510.6 	"/>
	<polygon class="st10" points="416.3,491.1 417.5,491.2 418.1,490.4 487.9,499.1 537.2,503.8 608,376.3 407.4,489.7 411.5,490.4 	
		"/>
	<polygon class="st11" points="787.9,526.2 785.8,531.7 780.2,546.7 772.6,567.9 770.8,573.4 767.4,582.5 767,584.2 764.6,590.8 
		761.8,598.5 758,609.2 769.1,608.9 775,608.5 783.7,608.5 789.9,608.2 793.8,608.2 797.2,608.2 800.7,608.1 805.1,608 808.8,607.9 
		810.4,607.8 814.3,607.5 826.4,607.2 832,607.2 834.4,607.2 835.1,607.2 838.6,606.8 842.4,606.8 852.1,606.5 862.9,605.8 
		867.1,605.8 880.6,605.1 882.4,604.7 897.7,604 915.1,602.6 922.4,602.3 945.3,600.6 955,599.9 964.7,599.2 974.5,598.5 
		1015.5,594.6 1035.6,592.2 1040.2,591.5 1041.2,591.5 1045,591.2 1048.2,590.8 1059.6,589.4 1065.2,588.7 1079.4,587 1085.3,586.3 
		1089.2,586 1110.4,409.4 1112.8,389.9 1112.8,389.9 1115.2,371 1115.5,368.6 1117,356.6 1117.3,354.5 1119.4,337.8 1119.4,337.5 
		1122.9,307.2 1123.2,306.5 1124.6,295.4 1125,290.5 1128.1,266.9 1079.8,271.4 1008.5,276.6 944.2,279.4 878.6,280.8 874.4,284.3 
		863.3,314.9 792.4,513.3 789.6,520.6 	"/>
	<polygon class="st12" points="160.9,1508.3 173.4,1493.4 188,1459.7 196.7,1432.2 203.3,1417.6 213.4,1398.5 222.8,1371.7 
		228.3,1358.9 237.4,1345.3 243.3,1320.7 252.7,1304 263.8,1292.2 272.1,1287.6 274.9,1294.2 281.5,1292.2 282.5,1302.6 
		279.4,1316.1 285.3,1316.5 298.2,1299.8 311,1280 377.4,1135.4 410.8,1062.8 435.1,1009.6 468.8,935.9 496.6,875.1 521.3,821.2 
		521.6,820.9 533.6,794.9 538.3,784.5 542.5,775.4 564,728.1 567,721.8 569.6,716.3 588.4,674.9 591.3,668.5 594.1,662.5 
		606.1,636.3 606.8,635.3 607.5,633.8 610,628.1 611.7,624.5 617.2,612 619.1,608 633.9,575.5 635.3,572.7 663.4,511.2 662.7,511.2 
		662.7,511.2 659.3,511.2 620,509.5 617.5,509.4 605.7,509.1 596,508.5 591.8,508.1 579.7,507.1 575.2,506.7 572.7,506.4 
		556.1,505.3 552.2,505 542.2,504.3 538.3,503.9 537.2,503.8 487.9,499.1 418.1,490.4 417.5,491.2 414.6,495.6 397.9,521 
		393.8,527.6 388.9,534.9 386.5,538.7 379.5,549.1 377.7,552.1 375.7,555.4 375.7,555.4 367.7,567.2 360.7,578 358.3,581.8 
		353.1,589.8 348.2,596.7 345.4,600.9 338.1,612.4 329.5,625.6 328.1,627.3 321.5,637.7 318,643 276.6,706.2 274.2,709.7 
		265.9,722.2 255.8,737.8 247.4,750 246.7,751.4 246.7,751.7 239.4,762.5 229.7,777.1 228.9,778.2 227.8,779.9 226.6,781.6 
		221.8,788.9 212.3,803.5 211.6,809.8 211.6,810.1 206.4,867.8 205.7,877.2 205.7,877.2 205.7,877.9 205.7,878.2 205,886.2 
		204.7,891.1 203.3,907.1 202.4,915.1 201.9,919.2 201.9,919.2 200.9,932.1 200.2,942.9 196,990.1 195,1001.3 193.6,1017.3 
		190.9,1047.4 189.8,1059.4 189.1,1067.3 188.4,1075.6 185.6,1106.9 184.2,1122.7 182.1,1147.2 175.2,1227.2 175.2,1227.2 
		171.7,1267.1 159.5,1400.6 159.5,1400.8 159.2,1403.4 159,1404.6 156,1436 155,1448.5 153.3,1467 151.2,1488.9 150.5,1498.2 
		150.1,1499.6 148.7,1516.3 146.3,1541.7 	"/>
	<polygon class="st13" points="685,1135.1 679.4,1135.4 671.8,1135.8 669.7,1135.8 663.1,1136.1 660,1136.1 652.3,1136.5 
		650.2,1136.8 608.5,1138.5 596.7,1138.9 585.2,1138.9 522.7,1139.9 501.1,1139.6 492.5,1139.2 486.2,1139.2 476.5,1139.2 
		453.9,1138.9 435.5,1138.5 399.7,1136.5 377.4,1135.4 311,1280 298.2,1299.8 285.3,1316.5 279.4,1316.1 282.5,1302.6 281.5,1292.2 
		274.9,1294.2 272.1,1287.6 263.8,1292.2 252.7,1304 243.3,1320.7 237.4,1345.3 228.3,1358.9 222.8,1371.7 213.4,1398.5 
		203.3,1417.6 196.7,1432.2 188,1459.7 173.4,1493.4 160.9,1508.3 146.3,1541.7 139,1556.6 132.8,1573 127.9,1603.2 122,1623.7 
		116.4,1639 112.6,1655 104.3,1674.5 105.3,1703.3 103.9,1717.9 90.7,1736.7 51.8,1778 41,1796.8 28.8,1810 11.5,1845.1 0,1872.1 
		0,2186.7 335.1,2377.2 697.8,1134.4 	"/>
	<polygon class="st14" points="563.7,2482.8 564,2482.8 649.9,2469.3 760.7,2443.9 858.1,2422.4 955,2395.6 958.8,2393.5 
		968.2,2365 1003.3,1987.2 1030.8,1716.9 1078.7,1186.9 1080.1,1174.7 1083.6,1171.6 1091.3,1086.1 1058.9,1092 1041.6,1095.1 
		1018.6,1099.3 976.6,1105.2 903.2,1116 846.2,1121.9 834.4,1123.3 806.6,1126.4 785.8,1127.8 777.4,1128.5 763.9,1129.5 
		745.5,1130.9 743,1130.9 715.6,1133 711.1,1133.3 703.4,1134 697.8,1134.4 335.1,2377.2 560.5,2505.3 561.3,2496.4 	"/>
	<polygon class="st15" points="1177.4,573.1 1181.6,575.5 1176,675.3 1239,664.5 1358.5,639.1 1419.7,624.5 1497.2,603.3 
		1492,599.2 1491.3,592.9 1487.4,587.7 1485.7,581.4 1481.5,578.3 1477.4,573.1 1472.8,562 1469,557.1 1468,550.9 1465.9,545.3 
		1461.7,542.2 1461,524.4 1457.2,512.6 1456.9,511.2 1456.2,505.7 1456.2,499.4 1452.7,494.9 1452.7,487.6 1449.9,482.7 
		1449.6,476.5 1445.7,474.7 1445,469.5 1441.6,470.2 1441.6,468.1 1440.2,462.9 1439.5,457.4 1439.5,452.2 1438.1,447.3 1435,442.1 
		1434.3,437.2 1428.4,429.6 1427.3,424.7 1423.5,419.8 1423.1,415 1421.8,410.4 1419,405.6 1419.3,402.1 1418.3,396.5 1414.8,396.2 
		1411.3,395.5 1407.5,392 1405.1,387.2 1401.3,386.1 1397.4,382.3 1394.3,383.3 1393.6,381.9 1389.8,380.6 1386.7,380.9 1380.1,375 
		1376.9,376.4 1371.4,378.5 1365.5,380.6 1358.2,380.9 1356.1,386.1 1352.6,388.6 1351.6,388.2 1342.5,383.7 1337,380.6 
		1332.4,375.7 1317.8,378.5 1310.5,379.9 1303.2,381.3 1288.7,384 1269.9,387.2 1266.8,387.9 1250.8,390.3 1246.6,391 1241.4,392 
		1240,392 1231.7,393.4 1229.2,393.8 1222.3,395.2 1203.2,397.6 1202.1,397.9 1196.9,398.6 1191.3,399.3 1184.4,400.4 1179.9,401.1 
		1171.5,402.1 1169.8,402.5 1152.4,404.9 1143,405.9 1136.1,406.6 1131.7,407.1 1129.1,407.3 1110.4,409.4 1089.2,586 1131.9,580.4 
			"/>
	<polygon class="st4" points="1358.5,639.1 1239,664.5 1176,675.3 1153.8,1074.6 1254.2,1052.4 1392.9,1016.2 1527.1,974.9 
		1597.6,950.2 1546.5,685.4 1541.7,681.2 1537.8,679.8 1529.1,668.3 1528.1,661 1522.5,657.2 1517.3,649.9 1514.9,643.6 
		1517.3,631.8 1518,625.2 1522.2,624.9 1522.2,622.8 1520.5,616.2 1516.6,609.9 1513.2,608.9 1510.4,614.1 1497.2,603.3 
		1419.7,624.5 	"/>
	<polygon class="st16" points="1998.3,2438.3 1997.3,2410.2 1989.6,2383.1 1986.8,2356.7 1978.8,2333.7 1978.2,2312.5 
		1970.2,2287.2 1965.6,2263.5 1962.5,2262.5 1940.6,2220.1 1935.1,2195.1 1927.1,2174.6 1923.6,2171.4 1915.3,2148.8 1905.2,2129.7 
		1899.3,2095 1885,2054 1876.3,2035.5 1858.3,2008.8 1794.7,1711.3 1765.5,1574.7 1745.3,1573.7 1741.1,1586.5 1733.1,1576.8 
		1731.4,1571.2 1728.6,1567.8 1710.6,1565.3 1702.6,1557.7 1696.3,1555.6 1681,1536.8 1664,1520.5 1658.8,1522.6 1657.7,1538.2 
		1654.6,1545.9 1648.3,1548.3 1643.8,1546.9 1635.5,1535.1 1626.1,1551.1 1622.6,1563.2 1616.4,1566 1616.4,1565.7 1609.1,1558 
		1605.3,1571.9 1599.3,1575.7 1595.2,1598 1594.8,1598 1588.6,1600.8 1587.9,1617.5 1587.5,1617.1 1579.9,1605.6 1572.9,1602.2 
		1566,1595.6 1559.7,1580.6 1554.2,1581.3 1549.6,1595.9 1543,1592.1 1536.1,1579.2 1529.8,1575.7 1528.4,1579.2 1529.1,1590 
		1523.9,1602.9 1525,1634.8 1524.6,1634.8 1520.8,1638 1518.4,1635.5 1514.2,1619.5 1514.9,1603.2 1514.4,1603.3 1509.3,1604.2 
		1500.6,1620.2 1500.3,1620.2 1494,1619.5 1490.2,1605.3 1484.3,1607.7 1480.5,1593.5 1477.2,1591.7 1473.8,1590.1 1466.6,1618.1 
		1461,1626.5 1454.8,1625.8 1452.3,1604.6 1450.3,1596.3 1443.6,1595.6 1438.8,1582 1438.1,1565.7 1432.2,1569.5 1419.7,1571.2 
		1414.5,1585.5 1408.2,1592.8 1408.2,1592.4 1402.6,1583.7 1399.2,1574.7 1392.9,1577.1 1387,1582.7 1387,1582.4 1374.1,1576.8 
		1366.8,1569.1 1361.3,1575.7 1358.2,1574 1351.6,1576.4 1349.1,1560.8 1348.4,1546.2 1343.6,1533.3 1337.3,1528.5 1337.3,1528.1 
		1335.6,1521.2 1333.5,1537.2 1333.1,1537.5 1329.6,1539.6 1327.6,1541 1327.4,1540.9 1327.2,1541 1320.6,1537.9 1314.4,1547.6 
		1308.8,1542 1297.3,1517.4 1290.7,1508.7 1284.8,1509.4 1284.8,1509 1284.8,1483.7 1281,1133.7 1274.8,1129.5 1269.5,1130.2 
		1242.4,1137.8 1174.7,1153.1 1083.6,1171.6 1080.5,1174.7 1079.1,1186.9 1030.8,1716.9 1003.7,1987.2 968.6,2365 968.6,2365.4 
		959.2,2393.9 955,2395.9 858.1,2422.7 760.7,2444.3 649.9,2470 564,2483.2 561.6,2496.4 560.8,2505.5 1274.4,2911 2003.2,2487.6 
		2003.2,2467.5 	"/>
	<polygon class="st17" points="1659.5,1204.6 1647.7,1157 1611.9,1023.5 1597.6,950.2 1527.1,974.9 1392.9,1016.2 1254.2,1052.4 
		1153.8,1074.6 1091.3,1086.1 1083.6,1171.6 1174.7,1153.1 1242.4,1137.8 1269.5,1130.2 1274.8,1129.5 1275.1,1129.5 1281,1133.7 
		1284.8,1483.7 1284.8,1509 1290.7,1508.3 1297.7,1517.4 1308.8,1542 1314.4,1547.3 1320.6,1537.5 1327.4,1540.9 1327.6,1541 
		1329.6,1539.6 1333.1,1537.2 1335.6,1520.5 1337.7,1528.1 1343.9,1533.3 1348.4,1546.2 1349.1,1560.8 1351.6,1576.4 1358.2,1573.7 
		1361.3,1575.7 1366.8,1568.8 1374.1,1576.8 1387,1582.4 1392.9,1577.1 1399.2,1574.7 1403,1583.7 1408.2,1592.4 1414.5,1585.5 
		1419.7,1571.2 1432.2,1569.5 1438.4,1565.3 1439.1,1582 1444,1595.6 1450.6,1595.9 1452.3,1604.6 1454.8,1625.8 1461,1626.5 
		1466.6,1617.8 1473.5,1590 1473.8,1590.1 1477.2,1591.7 1480.8,1593.5 1484.3,1607.7 1490.2,1605.3 1494,1619.5 1500.3,1620.2 
		1509,1603.9 1514.4,1603.3 1514.9,1603.2 1515.2,1603.2 1514.5,1619.5 1518.7,1635.5 1520.8,1638 1524.6,1634.5 1523.6,1602.9 
		1528.8,1589.7 1528.4,1579.2 1529.8,1575.4 1536.1,1579.2 1543,1592.1 1549.6,1595.6 1553.8,1581.3 1559.7,1580.6 1566,1595.6 
		1572.9,1602.2 1580.2,1605.6 1587.5,1617.1 1588.6,1600.4 1594.8,1598 1599,1575.7 1605.3,1571.6 1609.1,1557.7 1616.4,1565.7 
		1622.6,1563.2 1626.1,1550.7 1635.5,1534.7 1644.2,1546.9 1648.3,1548.3 1654.6,1545.5 1657.7,1538.2 1658.4,1522.6 1664,1520.5 
		1681,1536.5 1696.3,1555.2 1702.6,1557.3 1710.6,1565.3 1728.6,1567.4 	"/>
	<polygon class="st18" points="1351.6,51.1 1351.2,53.9 1351.9,55.6 1352.2,61.2 1353.3,64.3 1357.5,73.7 1357.1,75.8 1362,84.1 
		1364.1,90.7 1364.4,93.8 1364.1,97 1365.5,100.1 1366.1,106.3 1367.5,113 1367.9,117.8 1370,120.9 1370,124.4 1371.7,136.9 
		1373.4,139.7 1373.4,143.5 1374.8,146.7 1379,151.5 1380.1,154.7 1380.4,158.5 1382.1,165.4 1382.5,168.9 1383.5,172.4 1382.5,180 
		1381.4,184.2 1378.7,187 1376.2,191.1 1375.5,193.9 1378.3,196.7 1382.8,203.7 1385.6,203.7 1388.4,205 1388.7,205.4 1391.5,208.5 
		1398.8,263.8 1405.4,316.3 1406.5,323.6 1444.3,315.2 1506.6,299.9 1556.9,286.4 1592.4,275.9 1590.3,271.8 1590,270.4 
		1588.2,266.2 1584.1,255.4 1580.2,250.9 1576.1,247.4 1572.6,245.4 1569.5,245.4 1565.6,243.6 1558,238.1 1552.1,230.4 
		1546.9,227.6 1542.3,226.6 1538.9,224.9 1536.1,221.4 1530.5,221 1527.1,220 1523.2,216.9 1517.3,213.4 1518,209.2 1516.6,202.6 
		1513.5,195 1513.9,190.8 1511.8,183.8 1512.8,174.1 1507.9,167.5 1505.2,167.5 1502.4,164.4 1501.3,160.6 1503.1,157.1 
		1503.8,152.9 1503.8,149.8 1508.3,143.5 1512.8,139.4 1513.3,137.9 1350.5,43.9 1350.2,45.9 	"/>
	<polygon class="st19" points="1402.6,329.8 1405.1,333.6 1405.1,338.5 1403.7,339.9 1405.4,344.4 1409.2,347.9 1409.2,348.2 
		1409.9,352.4 1409.9,352.8 1408.5,357.3 1409.6,362.1 1408.2,371.9 1407.5,372.9 1406.5,377.8 1407.9,382.6 1411.7,386.1 
		1414.8,396.2 1418.3,396.5 1419.3,402.1 1419,405.6 1421.8,410.4 1423.1,415 1423.5,419.8 1427.3,424.7 1428.4,429.6 1434.3,437.2 
		1435,442.1 1438.1,447.3 1439.5,452.2 1439.5,457.4 1440.2,462.9 1441.6,468.1 1441.6,470.2 1445,469.5 1445.7,474.7 1449.6,476.5 
		1449.9,482.7 1452.7,487.6 1452.7,494.9 1456.2,499.4 1456.2,505.7 1456.9,511.2 1457.2,512.6 1461,524.4 1461.7,542.2 
		1465.9,545.3 1468,550.9 1517,539.4 1547.2,530.7 1611.5,508.5 1638.3,497 1641.7,502.5 1650.8,508.8 1654.9,514 1657,514.7 
		1658.4,510.5 1657,504.3 1653.2,499.4 1654.6,493.5 1661.2,484.5 1660.9,478.9 1659.1,473.4 1658.8,469.5 1661.2,458.1 
		1657.4,446.9 1648.3,438.6 1646.3,427.8 1646.3,422.3 1657.7,415.3 1659.8,410.8 1665.7,405.2 1667.5,400.4 1665,389.6 
		1667.1,379.9 1664,364.9 1661.2,360.4 1656.7,356.6 1652.5,354.5 1648.3,351.7 1646.3,346.2 1637.6,340.6 1634.1,337.1 
		1634.1,336.1 1629.2,327.7 1619.2,327 1615,325.6 1612.2,321.8 1610.1,316.3 1607,312.4 1604.2,305.1 1601.4,298.5 1602.1,289.5 
		1599.3,285.7 1596.9,285 1594.5,280.8 1593.1,279.4 1592.4,275.9 1556.9,286.4 1506.6,299.9 1444.3,315.2 1406.5,323.6 1400.9,325 
			"/>
	<polygon class="st1" points="1894.1,884.5 1899.6,886.6 1897.5,873.4 1892.7,866.1 1894.4,858.4 1889.2,846.6 1887.1,837.9 
		1884,831 1876,826.5 1873.2,831.7 1861.7,817.4 1851.3,802.8 1851.3,793.8 1849.2,785.1 1839.8,771.9 1833.6,755.2 1828.4,753.8 
		1823.2,749.6 1818.3,742.7 1808.9,736.8 1805.8,741.7 1802.3,732.6 1799.9,733.3 1783.5,721.8 1772.1,709.3 1769.3,702.7 
		1767.2,695.1 1767.5,687.8 1765.8,675.3 1765.5,664.2 1761.6,652.3 1761.6,643.3 1760.9,640.9 1751.2,634.6 1747.4,635 
		1742.5,633.6 1741.1,634.6 1740.8,641.6 1737.3,644.3 1732.4,638.8 1720.3,611.3 1716.1,605.8 1711.2,601.6 1699.1,594.6 
		1696,588.7 1691.1,585.6 1685.5,580 1678.9,575.5 1676.5,570 1672.7,564.1 1667.1,552.2 1665,549.8 1660.5,538.3 1657.7,526.9 
		1656.7,520.6 1657,514.7 1654.9,514 1650.8,508.8 1641.7,502.5 1638.3,497 1611.5,508.5 1547.2,530.7 1517,539.4 1468,550.9 
		1469,557.1 1472.8,562 1477.4,573.1 1481.5,578.3 1485.7,581.4 1487.4,587.7 1491.3,592.9 1492,599.2 1497.2,603.3 1510.4,614.1 
		1513.2,608.9 1516.6,609.9 1520.5,616.2 1522.2,622.8 1522.2,624.9 1518,625.2 1517.3,631.8 1514.9,643.6 1517.3,649.9 
		1522.5,657.2 1528.1,661 1529.1,668.3 1537.8,679.8 1541.7,681.2 1546.5,685.4 1597.6,950.2 1611.9,1023.5 1669.5,1002 
		1757.5,965.1 1853,920.6 1858.6,924.5 1864.9,931.8 1868.7,940.1 1871.8,949.8 1871.1,959.6 1868,966.5 1867.6,977.3 1868.3,987.4 
		1873.5,996.4 1903.4,978.7 1901.3,962.7 1901,953 1894.1,945.3 1897.2,934.9 1891.3,926.2 1894.7,921.3 1890.6,913.3 1886.4,904.3 
		1885,894.6 1889.9,902.2 1891.3,909.2 1893.4,901.2 1890.9,890.1 	"/>
	<polygon class="st20" points="1868.3,987.4 1867.6,977.3 1868,966.5 1871.1,959.6 1871.8,949.8 1868.7,940.1 1864.9,931.8 
		1858.6,924.5 1853,920.6 1757.5,965.1 1669.5,1002 1611.9,1023.5 1647.7,1157 1659.5,1204.6 1728.6,1567.4 1731.4,1571.2 
		1733.1,1576.8 1741.1,1586.5 1745.3,1573.3 1765.5,1574.7 1794.7,1711.3 1795,1711.3 1802.7,1707.3 1803,1707.1 1803.7,1706.4 
		1810.3,1702.9 1812,1701.9 1826.3,1694.3 1827.7,1693.2 1836.7,1688.4 1837.1,1688 1841.9,1685.6 1843.3,1684.9 1845.4,1683.5 
		1846.4,1683.1 1857.6,1676.9 1858.6,1676.2 1866.2,1672.4 1867.3,1671.7 1872.9,1668.5 1874.2,1667.8 1876.3,1666.8 1877.4,1666.1 
		1888.5,1660.2 1908.3,1648 1910,1647 1918,1642.1 1919.1,1641.4 1924.3,1638.3 1926,1637.3 1927.8,1636.2 1928.5,1635.5 
		1982.3,1602.9 1984.1,1601.8 1985.8,1600.8 1986.8,1600.1 1994.1,1595.9 1994.8,1595.6 1995.5,1594.9 1996.6,1594.2 2004.9,1589.3 
		1999.4,1568.1 1994.5,1555.2 1999.7,1553.2 1999.7,1550 1990.7,1526.1 1988.6,1524 1981.3,1507.6 1979.2,1494.4 1979.2,1495.8 
		1972.6,1494.1 1975,1481.9 1969.1,1473.6 1967.7,1488.2 1966.3,1471.8 1959,1459.7 1961.5,1447.9 1953.1,1435 1955.2,1428 
		1958,1432.9 1961.1,1422.8 1954.2,1421.1 1951,1410.7 1956.6,1408.2 1955.6,1399.9 1951,1388.8 1947.9,1374.2 1942.4,1367.9 
		1951.4,1349.2 1945.1,1337.7 1941.7,1325.5 1942.4,1321 1936.1,1312.7 1942.7,1314.1 1941.3,1306.4 1942.7,1292.9 1938.2,1281 
		1943.1,1279.3 1944.8,1274.8 1944.8,1260.5 1941,1251.5 1939.6,1235.5 1934.4,1231.3 1929.5,1212.9 1934.4,1223.7 1937.1,1216.4 
		1930.5,1211.5 1925.7,1194.8 1930.5,1206.3 1934,1203.9 1925,1179.2 1929.5,1186.2 1933,1178.9 1934.7,1167.4 1930.2,1155.9 
		1927.4,1153.5 1926.7,1150.4 1929.5,1142.4 1928.5,1130.9 1931.9,1126.4 1931.6,1121.9 1920.1,1095.4 1917,1082.2 1913.5,1086.8 
		1911.1,1075.3 1914.2,1070.1 1918,1076.3 1917,1066.6 1911.4,1057.9 1913.2,1053 1913.2,1045.4 1914.6,1038.8 1908,1030.5 
		1907.3,1028.4 1908.3,1021.8 1911.1,1015.9 1912.8,1006.8 1906.9,997.8 1910.7,992.6 1906.9,983.5 1903.4,978.7 1873.5,996.4 	"/>
	<polygon class="st21" points="2483.1,2191.9 2289.2,1735.3 2056,1097.2 2049.4,1093 2044.5,1086.8 2043.1,1086.1 2004.2,1110 
		1927.4,1153.5 1930.2,1155.9 1934.7,1167.4 1933,1178.9 1929.5,1186.2 1925,1179.2 1934,1203.9 1930.5,1206.3 1925.7,1194.8 
		1930.5,1211.5 1937.1,1216.4 1934.4,1223.7 1929.5,1212.9 1934.4,1231.3 1939.6,1235.5 1941,1251.5 1944.8,1260.5 1944.8,1274.8 
		1943.1,1279.3 1938.2,1281 1942.7,1292.9 1941.3,1306.4 1942.7,1314.1 1936.1,1312.7 1942.4,1321 1941.7,1325.5 1945.1,1337.7 
		1951.4,1349.2 1942.4,1367.9 1947.9,1374.2 1951,1388.8 1955.6,1399.9 1956.6,1408.2 1951,1410.7 1954.2,1421.1 1961.1,1422.8 
		1958,1432.9 1955.2,1428 1953.1,1435 1961.5,1447.9 1959,1459.7 1966.3,1471.8 1967.7,1488.2 1969.1,1473.6 1975,1481.9 
		1972.6,1494.1 1979.2,1495.8 1979.2,1494.4 1981.3,1507.6 1988.6,1524 1990.7,1526.1 1999.7,1550 1999.7,1553.2 1994.5,1555.2 
		1999.4,1568.1 2004.9,1589.3 2004.9,1589.7 2004.9,1597.6 2008,1613.3 2010.5,1600.4 2010.8,1600.4 2011.2,1600.4 2015.7,1601.5 
		2020.6,1616.4 2020.6,1617.5 2020.6,1617.8 2019.9,1632.4 2025.4,1649.4 2034.8,1656 2034.1,1679.7 2039,1690.1 2040.4,1688.7 
		2047.7,1680.7 2048,1698.8 2056.7,1713.4 2056.3,1713.3 2054.8,1712.8 2049.4,1711.3 2049.4,1711.3 2049.7,1714.8 2057.4,1729.7 
		2065.7,1735.6 2067.8,1740.8 2068,1741.1 2070.9,1747.1 2071.3,1748.1 2078.2,1750.6 2080.7,1753.7 2081.2,1758 2081.3,1758.6 
		2081.4,1758.9 2076.9,1761 2077.5,1780.1 2073.1,1790.1 2073,1790.2 2074.8,1808.9 2081.7,1810 2086.6,1803.8 2086.9,1803.4 
		2088.3,1826.7 2090.1,1834 2084.8,1838.5 2092.5,1843 2094.2,1846.5 2094.2,1863.9 2093.9,1900.7 2090.8,1910.8 2093.9,1930.9 
		2100.8,1938.6 2100.1,1960.5 2100.1,1960.8 2101.1,1965 2104.7,1981 2101.9,1998 2108.5,1997 2109.5,2005.7 2107.8,2024.8 
		2112,2035.9 2123.1,2066.1 2116.1,2072 2127.6,2090.1 2130.3,2107.9 2130.4,2108.2 2122.7,2119.3 2133.8,2140.9 2139.4,2165.5 
		2149.8,2185.3 2150.5,2213.8 2161.3,2205.1 2162,2204.4 2170,2198.2 2171.1,2197.4 2172.4,2196.5 2181.5,2189.2 2182.5,2188.1 
		2188.1,2183.6 2189.8,2182.6 2201.6,2172.8 2202.7,2172.1 2210,2166.2 2212,2164.8 2231.9,2148.8 2246.8,2136 2247.8,2134.9 
		2254.1,2129.4 2254.8,2128.7 2285.7,2101.9 2305.2,2084.5 2307.3,2088.4 2313.9,2112.4 2325,2160.3 2331.9,2186 2335.8,2201.7 
		2346.9,2225.3 2358.4,2246.2 2375,2267 2375.4,2267.7 2375.5,2267.8 2377.3,2270.2 2444.4,2231.2 2450.5,2224.3 2452.6,2226.5 
		2488.6,2205.5 2488,2202.7 	"/>
	<polygon class="st22" points="2490.8,1541 2485.2,1524.3 2471.3,1496.2 2467.5,1480.9 2467.1,1467.7 2459.5,1454.5 2451.5,1449.9 
		2442.1,1428 2432.4,1413.1 2428.9,1408.2 2415.4,1395.4 2399.7,1371.4 2389.6,1358.9 2382,1345.7 2377.5,1339.8 2262.1,1146.5 
		2172.8,1002.3 2214.8,972.1 2233.9,961.3 2229.8,952.3 2216.2,924.8 2221.8,916.8 2221.4,907.1 2216.2,895.3 2213.4,885.5 
		2212.7,876.1 2215.9,863.6 2223.5,860.5 2225.2,856 2224.9,829.6 2226.6,816.4 2230.5,815.3 2228.7,807 2221.8,790.7 2227,791.3 
		2223.9,783.7 2223.5,779.5 2224.6,774 2232.2,780.2 2235,779.5 2234.3,770.1 2231.9,762.5 2232.2,755.6 2236.4,747.6 2242.3,751.7 
		2241.6,742.7 2235.7,726.4 2235,718.4 2237.1,714.5 2231.2,701.3 2226.6,694 2223.2,684 2218.3,686 2214.8,689.9 2213.1,691.6 
		2207.9,697.2 2192.2,707.9 2166.2,726.4 2158.9,729.5 2152.6,733.7 2146.7,737.8 2143.2,743 2127.6,750.3 2114.4,759 2100.5,766.7 
		2080.3,775.4 2069.2,784.1 2047,795.9 2023.7,805.6 2001.4,819.8 1982.7,829.2 1963.6,841.4 1957.6,839.7 1949,842.4 1957.6,857.4 
		1960.4,866.4 1893.4,901.2 1891.3,909.2 1889.9,902.2 1886.4,904.3 1886.4,904.3 1890.6,913.3 1894.7,921.3 1891.3,926.2 
		1897.2,934.9 1894.1,945.3 1901,953 1901.3,962.7 1903.4,978.7 1906.9,983.5 1910.7,992.6 1906.9,997.8 1912.8,1006.8 
		1911.1,1015.9 1908.3,1021.8 1907.3,1028.4 1908,1030.5 1914.6,1038.8 1913.2,1045.4 1913.2,1053 1911.4,1057.9 1917,1066.6 
		1918,1076.3 1914.2,1070.1 1911.1,1075.3 1913.5,1086.8 1917,1082.2 1920.1,1095.4 1931.6,1121.9 1931.9,1126.4 1928.5,1130.9 
		1929.5,1142.4 1926.7,1150.4 1927.4,1153.5 2004.2,1110 2043.1,1086.1 2044.5,1086.8 2049.4,1093 2056,1097.2 2289.2,1735.3 
		2483.1,2191.9 2488,2202.7 2492.2,2194.7 2504.4,2196.4 2513.3,2191.2 2483.8,2111.7 2475.8,2087.7 2471,2067.5 2466.1,2057.4 
		2476.2,2072.4 2480,2072.7 2491.8,2091.5 2501.2,2112.4 2507.4,2134.9 2518.9,2155.1 2521,2156.8 2521,2040.2 2509.5,2026.5 
		2499.8,2019.6 2473.7,1982.7 2465,1956.3 2464.7,1937.9 2521,1881.3 2521,1599 2503.3,1570.9 	"/>
	<polygon class="st23" points="2510.2,1135.4 2509.2,1133.3 2502.2,1130.9 2495.6,1121.2 2487.6,1116.6 2480,1106.9 2476.5,1100 
		2469.9,1096.1 2457.1,1086.4 2451.5,1086.1 2445.2,1081.2 2435.9,1070.4 2426.1,1061.4 2412.6,1054.4 2396.6,1044.4 2369.1,1016.9 
		2362.5,1008.2 2352.4,998.5 2345.5,990.1 2336.8,983.5 2331.9,987.4 2316.3,975.5 2311.4,975.2 2304.5,971.4 2297.9,963 
		2294.1,953 2288.8,925.2 2286.1,918.2 2233.9,961.3 2214.8,972.1 2172.8,1002.3 2262.1,1146.5 2377.5,1339.8 2382,1345.7 
		2389.6,1358.9 2399.7,1371.4 2415.4,1395.4 2428.9,1408.2 2432.4,1413.1 2442.1,1428 2451.5,1449.9 2459.5,1454.5 2467.1,1467.7 
		2467.5,1480.9 2471.3,1496.2 2485.2,1524.3 2490.8,1541 2503.3,1570.9 2521,1599 2521,1144.6 2520.3,1144.5 	"/>
	<polygon class="st3" points="2465,1956.3 2473.7,1982.7 2499.8,2019.6 2509.5,2026.5 2521,2040.2 2521,1881.3 2464.7,1937.9 	"/>
	<polygon class="st24" points="2393.8,862.9 2391.4,860.9 2386.2,853.2 2379.6,844.9 2366,834.4 2363.9,838.6 2355.9,832 
		2341,839.7 2303.1,864.3 2300.7,868.2 2299.3,874.4 2294.4,882.8 2295.1,897 2291.3,899.4 2286.1,918.2 2288.8,925.2 2294.1,953 
		2297.9,963 2304.5,971.4 2311.4,975.2 2316.3,975.5 2331.9,987.4 2336.8,983.5 2345.5,990.1 2352.4,998.5 2362.5,1008.2 
		2369.1,1016.9 2396.6,1044.4 2412.6,1054.4 2426.1,1061.4 2435.9,1070.4 2445.2,1081.2 2451.5,1086.1 2457.1,1086.4 2469.9,1096.1 
		2476.5,1100 2480,1106.9 2487.6,1116.6 2495.6,1121.2 2502.2,1130.9 2509.2,1133.3 2510.2,1135.4 2520.3,1144.5 2521,1144.6 
		2521,879.4 2435.9,827.1 	"/>
	<polygon class="st9" points="1508.3,143.5 1503.8,149.8 1503.8,152.9 1503.1,157.1 1501.3,160.6 1502.4,164.4 1505.2,167.5 
		1507.9,167.5 1512.8,174.1 1511.8,183.8 1513.9,190.8 1513.5,195 1516.6,202.6 1518,209.2 1517.3,213.4 1523.2,216.9 1527.1,220 
		1530.5,221 1536.1,221.4 1538.9,224.9 1542.3,226.6 1546.9,227.6 1552.1,230.4 1558,238.1 1565.6,243.6 1569.5,245.4 1572.6,245.4 
		1576.1,247.4 1580.2,250.9 1584.1,255.4 1588.2,266.2 1590,270.4 1590.3,271.8 1592.4,275.9 1593.1,279.4 1594.5,280.8 1596.9,285 
		1599.3,285.7 1602.1,289.5 1601.4,298.5 1604.2,305.1 1607,312.4 1610.1,316.3 1612.2,321.8 1615,325.6 1619.2,327 1629.2,327.7 
		1634.1,336.1 1690.4,318.7 1731.1,304.1 1732.8,303.8 1728.6,294.7 1727.6,290.5 1726.2,286 1723.8,282.2 1720.3,278.7 
		1718.9,274.6 1714.7,270.7 1714.4,266.6 1709.2,257.9 1706.7,250.2 1706.7,249.6 1513.3,137.9 1512.8,139.4 	"/>
	<polygon class="st25" points="1787,301.3 1787.4,310.7 1789.8,324.6 1789.8,329.1 1789.8,334.3 1788.4,339.5 1787.7,340.9 
		1789.1,340.6 1805.8,334 1832.6,322.3 1786,295.4 1786.3,296.5 	"/>
	<polygon class="st26" points="1637.6,340.6 1646.3,346.2 1648.3,351.7 1652.5,354.5 1656.7,356.6 1661.2,360.4 1664,364.9 
		1667.1,379.9 1665,389.6 1667.5,400.4 1665.7,405.2 1659.8,410.8 1657.7,415.3 1646.3,422.3 1646.3,427.8 1648.3,438.6 
		1657.4,446.9 1661.2,458.1 1658.8,469.5 1659.1,473.4 1660.9,478.9 1661.2,484.5 1654.6,493.5 1653.2,499.4 1657,504.3 
		1658.4,510.5 1657,514.7 1656.7,520.6 1657.7,526.9 1660.5,538.3 1665,549.8 1667.1,552.2 1672.7,564.1 1676.5,570 1678.9,575.5 
		1685.5,580 1691.1,585.6 1696,588.7 1699.1,594.6 1711.2,601.6 1716.1,605.8 1720.3,611.3 1732.4,638.8 1737.3,644.3 1740.8,641.6 
		1741.1,634.6 1742.5,633.6 1747.4,635 1751.2,634.6 1760.9,640.9 1761.6,643.3 1761.6,652.3 1765.5,664.2 1765.8,675.3 
		1767.5,687.8 1767.2,695.1 1769.3,702.7 1772.1,709.3 1783.5,721.8 1799.9,733.3 1802.3,732.6 1805.8,741.7 1808.9,736.8 
		1818.3,742.7 1823.2,749.6 1828.4,753.8 1833.6,755.2 1839.8,771.9 1849.2,785.1 1851.3,793.8 1851.3,802.8 1861.7,817.4 
		1873.2,831.7 1876,826.5 1884,831 1880.2,827.1 1877,818.5 1878.1,801.4 1880.8,797.3 1885.7,797.6 1890.9,800 1900.3,802.5 
		1905.2,805.9 1909.7,806.3 1909.3,795.5 1905.5,788.2 1899.6,781.6 1896.1,774 1894.7,766.3 1897.5,762.2 1900,755.9 1906.2,750 
		1906.2,742 1900.3,735 1896.8,727.8 1896.8,720.1 1895.8,712.5 1894.7,710 1889.5,703.1 1888.8,695.8 1884.3,682.2 1884.7,681.5 
		1880.8,667.3 1879.5,666.2 1877.7,658.6 1879.1,652 1879.5,644.7 1879.1,629.4 1877,622.4 1876,609.2 1876.7,607.5 1874.9,600.6 
		1867.6,588.7 1865.9,581.8 1860.7,576.9 1854.8,570 1852.3,563.7 1852,556.8 1848.2,551.5 1849.2,544.2 1766.5,355.9 1765.8,353.8 
		1759.9,347.2 1757.1,343 1753.6,338.9 1750.2,331.9 1746,328.8 1739.4,320.8 1737.3,316.6 1734.5,307.9 1732.8,303.8 1731.1,304.1 
		1690.4,318.7 1634.1,336.1 1634.1,337.1 	"/>
	<polygon class="st27" points="1789.1,340.6 1787.7,340.9 1783.9,348.9 1779.4,355.5 1776.6,357.6 1771.7,357.3 1765.8,353.8 
		1766.5,355.9 1849.2,544.2 1848.2,551.5 1852,556.8 1852.3,563.7 1854.8,570 1860.7,576.9 1865.9,581.8 1867.6,588.7 1874.9,600.6 
		1876.7,607.5 1876,609.2 1877,622.4 1879.1,629.4 1879.5,644.7 1879.1,652 1877.7,658.6 1879.5,666.2 1880.8,667.3 1884.7,681.5 
		1884.3,682.2 1888.8,695.8 1889.5,703.1 1894.7,710 1899.3,710 1898.9,702.7 1895.1,696.1 1903.4,696.1 1905.9,690.9 1909.3,698.2 
		1911.8,694.4 1908.3,688.1 1913.2,686 1915.6,681.5 1930.2,686.4 1936.1,690.6 1935.4,683.3 1934.4,680.5 1934.4,673.2 
		1937.1,669.7 1938.2,663.5 1943.7,669.7 1947.9,670.1 1953.8,673.5 1951.7,666.2 1951.7,658.9 1948.6,652 1949,644.7 1951,639.1 
		1946.5,633.2 1951.4,635.3 1958.7,644.7 1963.2,646.4 1971.2,645.4 1973.3,640.9 1970.9,633.6 1967.7,626.6 1964.6,613.1 
		1968.8,612.7 1969.8,606.1 1965.3,593.3 1967.4,588.4 1967.7,581.8 1966,574.8 1961.5,568.2 1958.3,562 1961.5,560.6 1963.9,557.5 
		1969.8,560.9 1972.6,549.8 1978.2,544.6 1976.4,538.7 1970.2,533.5 1969.1,527.6 1963.6,520.6 1963.9,517.5 1892.7,382.6 
		1872.5,345.3 1832.6,322.3 1805.8,334 	"/>
	<polygon class="st28" points="1896.8,720.1 1896.8,727.8 1900.3,735 1906.2,742 1906.2,750 1900,755.9 1897.5,762.2 1894.7,766.3 
		1896.1,774 1899.6,781.6 1905.5,788.2 1909.3,795.5 1909.7,806.3 1905.2,805.9 1900.3,802.5 1890.9,800 1885.7,797.6 1880.8,797.3 
		1878.1,801.4 1877,818.5 1880.2,827.1 1884,831 1887.1,837.9 1889.2,846.6 1894.4,858.4 1892.7,866.1 1897.5,873.4 1899.6,886.6 
		1894.1,884.5 1890.9,890.1 1893.4,901.2 1960.4,866.4 1957.6,857.4 1949,842.4 1957.6,839.7 1963.6,841.4 1982.7,829.2 
		2001.4,819.8 2023.7,805.6 2047,795.9 2069.2,784.1 2080.3,775.4 2100.5,766.7 2114.4,759 2127.6,750.3 2143.2,743 2146.7,737.8 
		2148.8,726 2152.3,723.2 2153,716.6 2156.4,710.4 2158.2,707.2 2155,699.6 2156.1,693 2157.8,688.5 2157.5,685 2157.1,681.2 
		2155.7,677.7 2154,674.2 2154.7,670.8 2155,667.3 2153.3,663.5 2151.9,660 2150.5,652 2153.7,631.5 2151.9,598.5 2144.6,599.9 
		2132.5,592.9 2116.5,578.3 2110.2,573.1 2106,567.5 2091.8,556.1 2087.6,544.2 2083.8,538.3 2081.4,535.6 2078.9,531.7 
		2073.4,526.9 2067.5,522.7 2064,523 2058.1,518.5 2050.4,509.1 2048,513.7 2047.3,519.9 2048,526.2 2044.9,526.9 2043.1,530.7 
		2037.2,526.5 2032.4,526.5 2029.6,527.9 2029.9,534.2 2026.5,535.6 2015,527.9 2012.9,527.9 2006.7,530.7 2002.5,530.7 
		1991.7,520.3 1986.5,514.4 1975.7,510.9 1971.6,515.1 1966.7,511.9 1963.9,517.5 1963.6,520.6 1969.1,527.6 1970.2,533.5 
		1976.4,538.7 1978.2,544.6 1972.6,549.8 1969.8,560.9 1963.9,557.5 1961.5,560.6 1958.3,562 1961.5,568.2 1966,574.8 1967.7,581.8 
		1967.4,588.4 1965.3,593.3 1969.8,606.1 1968.8,612.7 1964.6,613.1 1967.7,626.6 1970.9,633.6 1973.3,640.9 1971.2,645.4 
		1963.2,646.4 1958.7,644.7 1951.4,635.3 1946.5,633.2 1951,639.1 1949,644.7 1948.6,652 1951.7,658.9 1951.7,666.2 1953.8,673.5 
		1947.9,670.1 1943.7,669.7 1938.2,663.5 1937.1,669.7 1934.4,673.2 1934.4,680.5 1935.4,683.3 1936.1,690.6 1930.2,686.4 
		1915.6,681.5 1913.2,686 1908.3,688.1 1911.8,694.4 1909.3,698.2 1905.9,690.9 1903.4,696.1 1895.1,696.1 1898.9,702.7 1899.3,710 
		1894.7,710 1895.8,712.5 	"/>
	<polygon class="st29" points="1963.9,517.5 1966.7,511.9 1971.6,515.1 1975.7,510.9 1986.5,514.4 1991.7,520.3 2002.5,530.7 
		2006.7,530.7 2012.9,527.9 2015,527.9 2026.5,535.6 2029.9,534.2 2029.6,527.9 2032.4,526.5 2037.2,526.5 2043.1,530.7 
		2044.9,526.9 2048,526.2 2047.3,519.9 2048,513.7 2050.4,509.1 2058.1,518.5 2064,523 2067.5,522.7 2073.4,526.9 2078.9,531.7 
		2079.6,532.4 2082.1,530.3 2084.8,525.1 2084.8,518.9 2081.4,513 2083.1,508.1 2076.9,497.7 2073.7,494.6 2071.6,488.6 
		2071.6,486.2 2068.5,480.3 2066.8,474.7 2066.1,468.5 2070.3,469.9 2078.2,477.2 2076.5,471.3 2075.5,465.4 2070.3,460.8 
		2070.1,459.4 1872.5,345.3 1892.7,382.6 	"/>
	<polygon class="st30" points="2075.5,465.4 2076.5,471.3 2078.2,477.2 2070.3,469.9 2066.1,468.5 2066.8,474.7 2068.5,480.3 
		2071.6,486.2 2071.6,488.6 2073.7,494.6 2076.9,497.7 2083.1,508.1 2081.4,513 2084.8,518.9 2084.8,525.1 2082.1,530.3 
		2079.6,532.4 2078.9,531.7 2081.4,535.6 2083.8,538.3 2087.6,544.2 2091.8,556.1 2106,567.5 2110.2,573.1 2116.5,578.3 
		2132.5,592.9 2144.6,599.9 2151.9,598.5 2154.7,604.7 2161.3,610.6 2168.6,615.8 2174.2,618.6 2179.7,621.1 2182.5,621.4 
		2185.6,621.8 2187.7,611 2186,604.4 2189.8,605.8 2194,607.2 2195.4,606.5 2197.1,605.4 2200.9,596.7 2202,595.3 2203,593.9 
		2200.9,588.4 2197.8,582.1 2204.7,583.9 2205.4,572.1 2209.6,572.1 2211.3,562 2211.3,560.9 2207.2,555.4 2206.1,548.8 
		2199.9,543.2 2195,532.1 2194.8,531.4 2070.1,459.4 2070.3,460.8 	"/>
	<polygon class="st31" points="2243.3,675.6 2237.1,679.1 2234.3,680.8 2231.2,682.6 2230.8,682.6 2223.2,684 2226.6,694 
		2231.2,701.3 2237.1,714.5 2235,718.4 2235.7,726.4 2241.6,742.7 2242.3,751.7 2236.4,747.6 2232.2,755.6 2231.9,762.5 
		2234.3,770.1 2235,779.5 2232.2,780.2 2224.6,774 2223.5,779.5 2223.9,783.7 2227,791.3 2221.8,790.7 2228.7,807 2230.5,815.3 
		2226.6,816.4 2224.9,829.6 2225.2,856 2223.5,860.5 2215.9,863.6 2212.7,876.1 2213.4,885.5 2216.2,895.3 2221.4,907.1 
		2221.8,916.8 2216.2,924.8 2229.8,952.3 2233.9,961.3 2286.1,918.2 2291.3,899.4 2295.1,897 2294.4,882.8 2299.3,874.4 
		2300.7,868.2 2303.1,864.3 2341,839.7 2355.9,832 2363.9,838.6 2366,834.4 2379.6,844.9 2386.2,853.2 2391.4,860.9 2393.8,862.9 
		2435.9,827.1 2521,879.4 2521,719.8 2516.6,717.2 2511.6,717.7 2498.4,708.6 2490.8,702.7 2496.7,705.9 2497.1,706 2329.6,609.2 
		2272.9,655.5 	"/>
	<polygon class="st32" points="2199.9,543.2 2206.1,548.8 2207.2,555.4 2211.3,560.9 2211.3,562 2209.6,572.1 2205.4,572.1 
		2204.7,583.9 2197.8,582.1 2200.9,588.4 2203,593.9 2202,595.3 2200.9,596.7 2197.1,605.4 2195.4,606.5 2194,607.2 2189.8,605.8 
		2186,604.4 2187.7,611 2185.6,621.8 2182.5,621.4 2179.7,621.1 2174.2,618.6 2168.6,615.8 2161.3,610.6 2154.7,604.7 2151.9,598.5 
		2153.7,631.5 2150.5,652 2151.9,660 2153.3,663.5 2155,667.3 2154.7,670.8 2154,674.2 2155.7,677.7 2157.1,681.2 2157.5,685 
		2157.8,688.5 2156.1,693 2155,699.6 2158.2,707.2 2156.4,710.4 2153,716.6 2152.3,723.2 2148.8,726 2146.7,737.8 2152.6,733.7 
		2158.9,729.5 2166.2,726.4 2192.2,707.9 2207.9,697.2 2213.1,691.6 2214.8,689.9 2218.3,686 2223.2,684 2230.8,682.6 2231.2,682.6 
		2234.3,680.8 2237.1,679.1 2243.3,675.6 2272.9,655.5 2329.6,609.2 2194.8,531.4 2195,532.1 	"/>
	<polyline class="st4" points="2305.2,2084.5 2300,2089.8 2290.9,2097.4 2106.5,2250.6 2331.6,2185.7 2329.5,2178.7 2325,2160.3 
		2313.9,2112.4 2307.3,2088.4 2305.2,2084.5 	"/>
</g>
<g>
	<defs>
		<polygon id="SVGID_1_" points="2521,2186.7 2521,719.8 1274.4,0 0,719.8 0,2186.7 1274.4,2911 		"/>
	</defs>
	<clipPath id="SVGID_00000009571566145220742530000000970312421115580552_">
		<use xlink:href="#SVGID_1_"  style="overflow:visible;"/>
	</clipPath>
	
		<rect x="-9.7" y="-25.7" style="opacity:0.35;clip-path:url(#SVGID_00000009571566145220742530000000970312421115580552_);fill:#383838;enable-background:new    ;" width="2554.4" height="2961"/>
</g>
<g class="st34">
	<g>
		<defs>
			<polygon id="SVGID_00000101084131035899841170000006571385889583518087_" points="27.5,1695 100.1,1375.6 2385.1,1263.7 
				2498.1,1556.3 			"/>
		</defs>
		<clipPath id="SVGID_00000100353076172565806610000012683641416520065921_">
			<use xlink:href="#SVGID_00000101084131035899841170000006571385889583518087_"  style="overflow:visible;"/>
		</clipPath>
		<g style="clip-path:url(#SVGID_00000100353076172565806610000012683641416520065921_);">
			<path class="st36" d="M221,1403.4c-0.3,0-0.7,0-0.7,0h-0.7c-0.3,0-0.7,0-0.7,0h-0.7c-7.3,0.3-14.2,1.4-20.9,2.4
				c-6.6,1-12.9,2.8-18.8,4.5c-5.9,1.7-11.5,4.2-16.7,6.6c-5.2,2.4-10.4,5.6-14.9,8.7c-5.6,4.2-10.8,8.3-15.6,13.2
				c-4.5,4.9-8.7,10.1-12.5,15.3c-3.5,5.6-6.6,11.1-9,17.4c-2.4,5.9-4.2,12.2-5.6,18.8l-1.7,8l-30.9,2.1l-5.2,25.7l30.9-2.1
				l-33,168.2l41.4-3.1l31.3-168.2l51.4-3.5l4.5-25.7l-51.1,3.5l1.7-9c1.4-7.3,3.5-14.6,6.6-21.2c3.1-6.6,7.3-12.5,12.2-17.7
				c5.2-5.2,11.5-9.7,18.8-12.9c7.6-3.1,16.3-5.2,26.4-5.9c0.3,0,0.3,0,0.7,0s0.3,0,0.7,0s0.3,0,0.7,0s0.3,0,0.7,0
				c3.5,0,6.6-0.3,9.4-0.3s5.6,0.3,7.6,0.3c2.4,0.3,4.5,0.7,6.3,1c1.7,0.3,3.5,1,4.9,1.4l-41.4,251.3l41-3.1l41.4-269
				c-3.5-1.4-7.3-2.8-11.8-3.8c-4.2-1-9-2.1-13.9-2.4c-4.9-0.7-10.1-1-15.6-1.4C232.8,1403,226.9,1403.4,221,1403.4"/>
			<path class="st36" d="M331.2,1557.3c1.7-5.9,4.2-12.5,7.6-19.1c3.5-6.6,8-12.9,13.9-18.8c5.6-5.9,12.2-10.8,19.8-14.6
				c7.6-3.8,16.7-6.3,26.4-7h0.3h0.3h0.3h0.3c10.8-0.7,19.1,1,25.7,4.2c6.6,3.1,11.5,7.3,14.9,12.5c3.5,5.2,5.2,11.1,6.3,17
				s1,12.2,0.3,17.4L331.2,1557.3 M407.3,1473.6c-0.3,0-0.3,0-0.7,0s-0.3,0-0.7,0s-0.3,0-0.7,0c-0.3,0-0.3,0-0.7,0
				c-15.6,1-30.2,4.9-43.1,10.4c-13.2,5.9-24.7,13.9-34.8,23.3c-10.1,9.7-18.4,20.9-24.7,33.4c-6.6,12.5-10.8,26.4-12.9,40.7
				c-2.1,14.2-1.4,27.5,1.4,38.9c3.1,11.5,8.7,21.5,16.7,29.5c8,8,18.4,14.2,31.3,18.1c12.9,3.8,27.5,5.6,44.5,4.5
				c0.3,0,0.3,0,0.7,0c0.3,0,0.3,0,0.7,0s0.7,0,0.7,0c0.3,0,0.7,0,0.7,0c9-0.7,17.4-1.7,25-3.1c7.6-1.4,14.6-2.8,21.2-4.5
				c6.3-1.7,12.2-3.5,17-5.2c4.9-1.7,9.4-3.5,13.2-5.2l-4.2-25.4c-3.8,1.7-8,3.5-12.5,4.9c-4.5,1.4-9,3.1-14.2,4.2
				c-5.2,1.4-10.4,2.4-16.7,3.5c-5.9,1-12.5,1.7-19.8,2.1c-0.3,0-0.3,0-0.7,0s-0.3,0-0.7,0c-0.3,0-0.3,0-0.7,0s-0.3,0-0.7,0
				c-10.1,0.7-19.5,0-27.8-2.1c-8.3-2.1-16-5.6-21.9-10.8c-5.9-4.9-10.8-11.5-13.6-19.8c-2.8-8.3-3.8-18.1-2.4-29.9l155-11.1
				c0.3-1,0.3-2.1,0.7-3.1c0.3-1,0.7-2.4,0.7-3.8c0.3-1.4,0.7-2.8,0.7-4.5c0.3-1.7,0.3-3.1,0.7-4.9c0.7-8.7,0.7-18.4-1.4-27.8
				c-1.7-9.4-5.2-19.1-11.1-27.1c-5.6-8.3-13.6-15.3-24.3-20.2C437.9,1475.3,424.3,1472.9,407.3,1473.6"/>
			<path class="st36" d="M690.2,1458.3l-41.7,2.8l-32.3,41c-2.1,2.4-3.8,5.2-5.9,7.6c-2.1,2.4-3.8,5.2-5.9,8c-2.1,2.8-3.8,5.2-5.9,8
				c-2.1,2.8-3.8,5.6-5.9,8.7h-1.4c-1.7-2.4-3.1-4.9-4.9-7.3c-1.7-2.4-3.1-4.9-4.9-7.3c-1.7-2.4-3.1-4.9-4.9-7.3s-3.5-4.9-5.2-7.3
				l-27.5-37.2l-43.4,3.1l65.3,85.8l-87.2,105l44.8-3.5l35.8-46.9c2.4-3.1,4.5-5.9,6.6-9c2.1-2.8,4.5-5.9,6.6-8.7s4.2-5.9,6.3-8.7
				s4.2-5.9,6.3-8.7h1c1.7,2.8,3.5,5.6,5.2,8c1.7,2.8,3.5,5.2,5.2,8s3.5,5.2,5.2,8c1.7,2.8,3.8,5.2,5.6,8l29.9,41.7l45.9-3.5
				l-71.6-94.5L690.2,1458.3"/>
			<path class="st36" d="M790.3,1615c-10.4,0.7-19.8-1-27.5-4.2c-7.6-3.1-14.2-8-19.5-13.9c-5.2-5.9-8.7-13.6-11.1-21.5
				c-2.4-8-3.5-17-3.1-26.8c0.3-10.4,2.1-20.2,5.6-29.2c3.1-8.7,7.6-16.7,13.2-23.6c5.6-6.6,12.5-12.2,20.5-16.3
				c8-3.8,17-6.6,26.8-7.3h0.3h0.3h0.3h0.3c7-0.3,13.6,0.3,19.5,1.7c5.9,1.7,11.5,4.2,16,7.3s8.7,7,11.8,11.5c3.1,4.2,5.6,9,7,14.2
				c0.3,1,0.7,2.1,0.7,3.5c0.3,1,0.3,2.4,0.7,3.5c0,1.4,0.3,2.4,0.3,3.8c0,1,0,2.4,0,3.5v32.7c0,1.4,0,2.8,0,3.8
				c0,1.4,0,2.4-0.3,3.8c0,1.4-0.3,2.4-0.7,3.5s-0.3,2.4-0.7,3.5c-1.7,6.6-4.9,12.9-8.3,18.1c-3.8,5.6-8.3,10.1-13.6,14.2
				c-5.2,3.8-11.1,7.3-17.4,9.4c-6.3,2.4-12.9,3.8-19.5,4.2h-0.3h-0.3H791C790.3,1615,790.3,1615,790.3,1615 M890.4,1363.1
				l-37.2,2.4l-0.3,105.3h-1c-2.4-3.5-5.2-6.6-9-9.7c-3.8-2.8-8.3-5.6-13.2-7.6c-5.2-2.1-10.8-3.8-17.4-4.9s-13.6-1.4-21.2-1h-0.3
				h-0.3h-0.3h-0.3c-12.9,1-25.4,4.2-36.8,9c-11.5,5.2-21.9,12.5-30.9,21.5c-9,9-16.7,19.8-21.9,32.3c-5.6,12.5-8.7,26.8-9.4,42.4
				c-0.7,14.2,1.4,27.1,5.2,38.6c4.2,11.5,10.1,21.5,18.1,29.5c8,8,17.7,14.2,28.5,18.4c11.1,3.8,23.3,5.9,36.5,4.9h0.3h0.3h0.3h0.3
				c9-0.7,17.4-2.4,25.4-4.9c7.6-2.4,14.9-5.9,21.5-9.7c6.3-3.8,12.2-8.3,17-13.6c4.9-4.9,8.7-10.4,11.8-16h1l1.7,33.7l35.8-2.8
				c-0.3-3.5-0.7-7-1-11.1c-0.3-3.8-0.3-8.3-0.7-12.5c0-4.2-0.3-8.7-0.3-13.2s0-8.7,0-13.2L890.4,1363.1"/>
			<path class="st36" d="M1001.9,1601.8c-4.9,0.3-9.7,0-13.9-1c-4.5-1-8.3-2.8-11.8-5.6c-3.5-2.4-6.3-5.9-8-9.7
				c-2.1-3.8-3.1-8.7-3.1-14.2c-0.3-9.4,2.8-16.7,7.6-22.9c5.2-6.3,12.2-10.8,20.9-14.6c8.7-3.8,18.4-6.3,28.8-8
				c10.4-1.7,21.2-2.8,32-3.5l1.4,32.3c0,1,0,1.7,0,2.8c0,1-0.3,1.7-0.3,2.8c0,1-0.3,1.7-0.7,2.8c-0.3,1-0.3,1.7-0.7,2.8
				c-1.4,4.2-3.5,8.3-6.3,12.2c-2.8,3.8-6.3,7.6-10.8,11.1c-4.2,3.5-9.4,6.3-14.9,8.3c-5.6,2.1-12.2,3.5-19.1,4.2h-0.3h-0.3
				C1002.3,1601.8,1002.3,1601.8,1001.9,1601.8L1001.9,1601.8 M1009.9,1432.2c-0.3,0-0.3,0-0.7,0c-0.3,0-0.3,0-0.7,0s-0.3,0-0.7,0
				c-0.3,0-0.3,0-0.7,0c-6.6,0.3-12.9,1.4-19.5,2.4c-6.3,1-12.5,2.8-18.1,4.5c-5.9,1.7-11.5,3.8-16.3,6.3
				c-5.2,2.4-10.1,4.9-14.2,7.6l9,20.9c3.8-2.4,7.6-4.5,11.8-6.3c4.2-2.1,8.7-3.8,13.6-5.2c4.5-1.4,9.4-2.8,14.2-3.8
				c4.9-1,9.7-1.7,14.6-2.1h0.3h0.3h0.3h0.3c10.4-0.7,18.4,0.7,24.7,3.1c6.3,2.4,11.1,5.9,14.2,9.7c3.5,4.2,5.6,8.7,6.6,13.2
				c1.4,4.5,1.7,9,2.1,12.5l0.3,3.8c-20.5,1.4-38.6,4.2-54.2,8c-15.6,4.2-29.2,9.4-39.6,16c-10.8,6.6-19.1,14.6-24.3,23.6
				c-5.6,9-8.3,19.5-8,30.9c0,7,1.4,13.6,4.5,19.8c2.8,6.3,7,11.8,12.5,16.7c5.6,4.9,12.5,8.7,20.5,11.1c8.3,2.4,17.7,3.8,28.5,3.1
				h0.3h0.3h0.3h0.3c7.6-0.7,14.9-2.1,21.9-4.2c6.6-2.1,12.9-4.5,18.4-7.6c5.6-3.1,10.4-6.6,14.6-10.4c4.2-3.8,7.6-7.6,10.8-11.8
				h1.4l4.2,24l35.8-2.8c-0.7-3.1-1.7-6.6-2.4-10.4c-0.7-3.5-1.4-7.3-1.7-11.1s-1-8-1.4-11.8c-0.3-4.2-0.7-8-1-12.2l-3.8-69.9
				c-0.3-9-2.1-18.1-4.9-26.4c-2.8-8.3-7-16-13.2-22.6c-5.9-6.6-13.9-11.8-24.3-15.3C1038.1,1433.3,1025.6,1431.5,1009.9,1432.2"/>
			<path class="st36" d="M1198.3,1419.4c-0.3,0-0.3,0-0.7,0s-0.3,0-0.7,0s-0.3,0-0.7,0s-0.3,0-0.7,0c-11.1,0.7-20.9,2.8-29.5,6.3
				c-8.7,3.1-16,7.6-21.5,12.9c-5.9,5.2-10.1,11.1-13.2,17.7c-2.8,6.6-4.2,13.6-3.5,20.9c0.3,5.6,1.7,10.4,4.5,15.3
				c2.4,4.9,6.3,9.4,11.1,13.2c4.9,4.2,11.1,7.6,18.4,11.1c7.3,3.1,15.6,5.9,25.7,8.3c7.3,1.7,13.6,3.5,18.8,5.6s9.4,4.2,12.9,6.6
				c3.5,2.4,5.9,5.2,7.6,8.3s2.8,6.6,3.1,10.8c0.3,3.8,0,7.6-1.4,11.1c-1.4,3.5-3.8,6.6-7,9.4c-3.1,2.8-7.3,5.2-12.5,7
				c-5.2,1.7-11.1,3.1-18.4,3.5h-0.3h-0.3h-0.3h-0.3c-4.9,0.3-9.7,0-14.2-0.3c-4.9-0.3-9.4-1.4-13.9-2.1c-4.5-1-8.7-2.1-12.5-3.5
				s-7.3-2.8-10.1-4.2l-8,27.1c3.8,1.7,8,3.1,12.5,4.2c4.5,1.4,9,2.4,14.2,3.1c4.9,0.7,10.1,1.4,15.6,1.7s10.8,0.3,16.7,0
				c0.3,0,0.3,0,0.7,0c0.3,0,0.3,0,0.7,0s0.3,0,0.7,0s0.3,0,0.7,0c12.9-1,24.3-3.1,34.1-7c9.7-3.5,17.7-8.3,24.3-13.9
				c6.3-5.6,11.1-12.2,13.9-19.1c2.8-7.3,3.8-14.9,3.1-23.3c-0.7-7-2.4-13.2-5.6-18.4c-2.8-5.6-7-10.1-11.8-14.2
				c-5.2-4.2-11.1-7.6-18.4-10.8c-7.3-3.1-15.6-5.9-25-8.3c-7-1.7-13.2-3.5-18.4-5.2c-5.2-1.7-9.4-3.8-12.9-5.9
				c-3.5-2.1-5.9-4.5-8-7.3c-1.7-2.8-2.8-5.9-3.1-9.7c-0.3-3.5,0.3-6.6,1.7-9.7c1.4-3.1,3.5-5.9,6.3-8.3c2.8-2.4,6.3-4.5,10.4-5.9
				c4.2-1.4,9-2.4,14.6-3.1h0.3h0.3h0.3h0.3c4.5-0.3,9,0,13.2,0.3c4.2,0.3,8,1,11.5,1.7c3.5,0.7,6.6,1.7,9.7,2.8
				c2.8,1,5.2,2.1,7.3,2.8l7-24c-2.8-1-6.3-2.4-9.7-3.5s-7.6-1.7-11.8-2.4c-4.2-0.7-8.7-1.4-13.2-1.4
				C1208,1419,1203.2,1419,1198.3,1419.4"/>
			<path class="st36" d="M1316.1,1334.6l-36.5,2.4l28.8,263.8l38.9-2.8l-13.2-112.6c-0.3-1.7-0.3-3.1-0.3-4.5s0-2.8,0-4.2
				c0-1.4,0-2.4,0.3-3.8c0.3-1,0.3-2.4,1-3.5c1-4.5,3.1-9,5.9-13.2c2.8-4.2,5.9-8,10.1-11.1c3.8-3.1,8.7-5.9,13.6-8
				c5.2-2.1,10.8-3.5,16.7-3.8h0.3h0.3h0.3h0.3c8.7-0.3,16,0.7,22.2,3.1c6.3,2.4,11.5,5.9,16,10.4c4.2,4.5,7.6,10.1,10.4,16.3
				c2.4,6.3,4.2,12.9,5.2,20.2l15.3,107l38.6-2.8l-17-110.5c-2.4-15.3-7-27.5-12.9-36.8c-5.9-9.4-13.2-16.7-21.2-21.9
				c-8-5.2-16.3-8.3-24.3-10.1c-8-1.7-16-2.4-22.9-2.1h-0.3h-0.3h-0.3h-0.3c-3.5,0.3-7,0.7-10.1,1.4c-3.1,0.7-6.6,1.4-9.7,2.4
				c-3.1,1-5.9,2.1-9,3.5c-2.8,1.4-5.6,2.8-8,4.2c-2.8,1.4-5.2,3.1-7.6,5.2c-2.4,1.7-4.5,3.8-6.6,5.9c-2.1,2.1-3.8,4.2-5.6,6.6
				c-1.7,2.1-3.1,4.5-4.2,7h-0.7L1316.1,1334.6"/>
			<path class="st36" d="M1630.6,1553.5c-7,0.3-13.6-0.3-19.8-1.7s-12.2-3.8-17.7-7c-5.6-3.1-10.4-7-14.6-11.5
				c-4.2-4.5-8-9.7-10.8-15.3c-0.3-1-0.7-1.7-1-2.8s-0.7-2.1-1-3.1c-0.3-1-0.7-2.1-1-3.1c-0.3-1-0.3-2.1-0.7-3.1l-5.9-32.7
				c-0.3-1.4-0.3-2.4-0.3-3.8c0-1,0-2.4,0-3.5s0-2.1,0-3.1c0-1,0-2.1,0.3-3.1c0.7-6.3,2.8-12.2,5.6-17c2.8-5.2,6.6-9.7,10.8-13.2
				c4.5-3.8,9.4-6.6,14.9-9c5.6-2.1,11.5-3.5,17.7-3.8h0.3h0.3h0.3h0.3c9.7-0.3,18.4,1,26.4,3.8c8,2.8,15.3,7.3,21.2,12.9
				c6.3,5.6,11.5,12.5,15.6,20.2s7.3,16,9,25c2.1,10.4,2.8,20.2,1.7,28.8c-1,8.7-3.8,16.7-8,23.3c-4.2,6.6-9.7,12.2-17,16
				s-15.6,6.3-25.7,7.3h-0.3h-0.3C1631.3,1553.5,1631.3,1553.5,1630.6,1553.5C1631,1553.5,1631,1553.5,1630.6,1553.5 M1531.2,1320.3
				l-35.8,2.4l35.4,212.7c0.7,4.2,1.4,8.3,2.1,12.9c0.7,4.2,1,8.7,1.7,12.9s1,8.3,1.4,12.2s0.7,7.6,1,10.8l33.4-2.4l-3.8-31.3h1.4
				c4.9,5.9,10.1,10.8,15.6,14.6c5.6,4.2,11.5,7.3,17.7,9.7c6.3,2.4,12.9,4.2,19.8,5.2c7,1,13.9,1.4,21.2,0.7c0.3,0,0.3,0,0.7,0
				s0.3,0,0.7,0s0.3,0,0.7,0c0.3,0,0.3,0,0.7,0c11.8-1,23.3-3.8,33.4-9c10.1-4.9,19.1-12.2,26.1-21.2c7-9,12.2-19.8,14.6-32.7
				c2.4-12.5,2.1-27.1-1.4-43.1c-2.8-13.6-7.6-25.7-13.9-36.1c-6.3-10.4-14.2-19.5-23.3-26.8c-9-7.3-19.1-12.9-30.2-16.3
				c-11.1-3.5-22.6-5.2-35.1-4.5h-0.3h-0.3h-0.3h-0.3c-8,0.7-15.6,1.7-22.2,3.8c-6.6,2.1-12.5,4.5-17.7,7.6
				c-5.2,3.1-9.7,7-13.6,11.1s-7,9-9.4,14.2h-0.7L1531.2,1320.3"/>
			<path class="st36" d="M1853,1538.9c-9,0.3-18.1-1-26.4-3.8c-8.3-3.1-16-7.6-22.9-13.6c-7-5.9-12.9-13.2-17.7-21.2
				c-4.9-8-8.7-17.4-10.8-27.1c-2.1-8.7-2.8-17-2.1-25.4c0.7-8.3,2.4-16,5.9-22.6s8.7-12.5,15.6-17c7-4.2,15.6-7,26.4-7.6h0.3h0.3
				h0.3h0.3c10.4-0.7,20.2,1.4,28.5,4.9c8.3,3.5,16,8.7,22.2,14.9c6.3,6.3,11.8,13.6,16,20.9c4.2,7.6,7.3,15.3,9.4,22.9
				c2.8,10.1,3.5,19.5,2.8,28.5c-0.7,8.7-3.1,16.7-7.3,23.3c-3.8,6.6-9.4,12.2-16,16.3c-6.6,4.2-14.6,6.6-23.6,7.3h-0.3h-0.3
				C1853.4,1538.9,1853.4,1538.9,1853,1538.9L1853,1538.9 M1817.9,1376.6c-0.3,0-0.3,0-0.7,0c-0.3,0-0.3,0-0.7,0c-0.3,0-0.3,0-0.7,0
				c-0.3,0-0.3,0-0.7,0c-13.9,1-26.4,3.8-37.2,8.7c-10.8,4.9-20.2,11.8-27.5,20.2c-7.3,8.7-12.2,18.8-14.6,30.6
				c-2.4,11.8-2.4,25.4,1,40.7c3.1,14.2,8.7,26.8,16,37.9c7.3,11.1,16.7,20.5,27.1,28.2c10.8,7.6,22.6,13.6,35.4,17
				c12.9,3.8,26.4,5.2,40.3,4.5c0.3,0,0.3,0,0.7,0c0.3,0,0.3,0,0.7,0c0.3,0,0.3,0,0.7,0c0.3,0,0.3,0,0.7,0c12.5-1,25-3.8,35.8-8.7
				c11.1-4.9,20.9-11.5,28.5-20.2c7.6-8.7,12.9-19.5,15.3-32s1.7-27.1-2.8-43.8c-3.8-13.2-9.4-25.4-16.7-36.1
				c-7.3-10.4-16.3-19.5-26.8-26.8c-10.4-7.3-21.9-12.5-34.4-16C1845.4,1377.7,1831.8,1375.9,1817.9,1376.6"/>
			<path class="st36" d="M2044.5,1525.4c-4.5,0.3-9.4,0-13.9-1c-4.5-1-8.7-2.8-12.5-5.2c-3.8-2.4-7.3-5.6-10.1-9.4
				c-2.8-3.8-5.2-8.3-6.6-13.6c-2.4-8.7-1.7-16,1.7-21.9c3.5-5.9,9-10.4,16.3-13.9c7.3-3.5,16.3-5.9,25.7-7.6
				c9.4-1.7,19.8-2.8,29.9-3.1l9.7,30.9c0.3,0.7,0.3,1.7,0.7,2.4c0,1,0.3,1.7,0.3,2.8c0,1,0,1.7,0,2.8c0,1,0,1.7,0,2.8
				c-0.3,3.8-1.4,8-3.1,11.8c-1.7,3.8-4.2,7.3-7.3,10.4c-3.1,3.1-7.3,5.9-12.2,8s-10.8,3.5-17.4,3.8c0,0,0,0-0.3,0c0,0,0,0-0.3,0
				C2044.9,1525.4,2044.9,1525.4,2044.5,1525.4L2044.5,1525.4 M2009.4,1363.7c-0.3,0-0.3,0-0.7,0c-0.3,0-0.3,0-0.7,0s-0.3,0-0.7,0
				c-0.3,0-0.3,0-0.7,0c-6.3,0.3-12.2,1-18.1,2.4c-5.9,1-11.1,2.4-16.3,4.2c-5.2,1.7-10.1,3.8-14.2,5.9c-4.5,2.1-8.3,4.5-11.8,7.3
				l13.9,20.2c2.8-2.1,6.3-4.2,9.7-6.3c3.5-1.7,7.6-3.5,11.5-4.9c4.2-1.4,8.3-2.4,12.9-3.5c4.5-1,9-1.4,13.6-1.7h0.3h0.3h0.3h0.3
				c9.7-0.3,17.7,0.7,24.7,2.8c6.6,2.1,12.2,5.6,16.3,9.4c4.2,3.8,7.3,8.3,9.7,12.5c2.4,4.2,3.8,8.7,5.2,12.2l1,3.5
				c-19.5,1.4-36.1,3.8-50,7.6c-14.2,3.8-25.7,9-34.1,15.3c-8.7,6.3-14.6,13.9-17.7,22.6c-3.1,8.7-3.1,18.4,0,29.5
				c1.7,6.6,4.9,12.9,9,18.8c4.2,5.9,9.7,11.5,16.3,16c6.6,4.5,14.2,8.3,22.6,10.8c8.3,2.4,18.1,3.5,28.2,3.1h0.3h0.3h0.3h0.3
				c7.3-0.7,13.9-1.7,19.8-3.8c5.9-2.1,11.1-4.5,15.6-7.3c4.5-2.8,8.3-6.3,11.5-9.7c3.1-3.5,5.6-7.3,7.3-11.1h1.4l10.1,22.9
				l34.1-2.4c-1.7-3.1-3.1-6.3-4.9-9.7c-1.4-3.5-3.1-7-4.5-10.8c-1.4-3.8-2.8-7.6-4.2-11.5s-2.8-7.6-3.8-11.8l-21.2-66.7
				c-2.8-8.7-6.3-17.4-11.1-25.4s-10.8-15.3-18.4-21.5c-7.3-6.3-16.3-11.1-27.1-14.6C2036.5,1364.4,2024,1362.7,2009.4,1363.7"/>
			<path class="st36" d="M2213.4,1349.5C2213.1,1349.5,2213.1,1349.5,2213.4,1349.5c-0.3,0-0.3,0-0.7,0h-0.3h-0.3
				c-5.9,0.3-11.5,1.7-16.3,3.8c-4.9,2.1-9,4.9-12.9,8.3c-3.5,3.5-6.6,7.6-8.7,12.5c-2.1,4.9-3.5,10.1-3.5,16h-1.7l-12.5-33.4
				l-30.9,2.1c1.7,3.8,3.1,8,4.9,12.2c1.7,4.2,3.1,8.3,4.9,12.9s3.1,9,4.9,13.6c1.7,4.9,3.1,9.7,4.9,14.6l41,123l36.8-2.8
				l-32.7-95.9c-0.3-1.4-1-2.8-1.4-4.2c-0.3-1.4-0.7-2.4-1-3.8s-0.3-2.4-0.7-3.8c-0.3-1-0.3-2.4-0.7-3.5c-0.7-5.9-0.7-11.8,0.3-16.7
				c1-5.2,3.1-9.7,5.9-13.6c2.8-3.8,6.6-7,11.1-9.4c4.5-2.4,10.1-3.8,16.3-4.2h0.3h0.3h0.3h0.3c1,0,2.1,0,2.8,0c1,0,1.7,0,2.8,0
				s1.7,0,2.4,0c0.7,0,1.7,0,2.4,0.3l-10.4-28.8c-0.7,0-1.4-0.3-2.4-0.3c-1,0-1.4,0-2.1,0s-1.4,0-2.4,0
				C2214.8,1349.5,2214.1,1349.5,2213.4,1349.5"/>
			<path class="st36" d="M2378.2,1498.6c-9.7,0.7-18.8-0.7-27.5-3.8c-8.7-2.8-16.3-7.3-23.6-13.2c-7-5.6-13.2-12.5-18.8-20.2
				c-5.2-7.6-9.7-16-12.9-24.7c-3.5-9.7-5.6-18.8-5.9-27.1c-0.3-8.3,1-15.6,3.8-21.9c2.8-6.3,7.3-11.5,13.2-14.9
				c5.9-3.8,13.6-5.9,22.6-6.6h0.3h0.3h0.3h0.3c6.6-0.3,12.9,0.3,19.1,1.7c6.3,1.4,12.2,3.8,17.7,6.6c5.6,2.8,10.8,6.6,15.3,10.4
				c4.5,4.2,8.7,8.7,11.8,13.2c0.7,1,1.4,2.1,2.1,3.1c0.7,1,1.4,2.1,1.7,3.5c0.7,1,1,2.4,1.7,3.5c0.3,1,1,2.1,1.4,3.1l12.2,30.2
				c0.3,1.4,1,2.4,1.4,3.8c0.3,1,0.7,2.4,1,3.5c0.3,1,0.7,2.4,0.7,3.5c0.3,1,0.3,2.1,0.7,3.5c0.7,6.3,0.3,11.8-1,16.7
				c-1.4,4.9-4.2,9.4-7.3,13.2c-3.5,3.8-7.6,6.6-12.5,8.7c-4.9,2.1-10.8,3.5-16.7,3.8h-0.3h-0.3
				C2379.2,1498.2,2378.5,1498.6,2378.2,1498.6C2378.5,1498.6,2378.2,1498.6,2378.2,1498.6 M2377.8,1264l-34.4,2.4l39.3,98h-0.7
				c-3.5-3.1-7.6-6.3-12.2-9s-9.7-5.2-15.6-7.3c-5.6-2.1-11.8-3.5-18.1-4.5c-6.6-1-13.2-1.4-20.5-1h-0.3h-0.3h-0.3h-0.3
				c-11.8,0.7-22.2,3.8-31.3,8.7c-9,4.9-16,11.5-21.2,19.8c-5.2,8.3-8,18.4-8.3,30.2c-0.3,11.8,1.7,25,7.3,39.6
				c4.9,13.2,11.5,25.4,19.5,36.1s17.7,19.8,28.1,27.5c10.4,7.6,21.9,13.2,33.7,17c11.8,3.8,24,5.2,36.1,4.9h0.3h0.3h0.3h0.3
				c8.3-0.7,15.6-2.1,21.9-4.5c6.3-2.4,11.8-5.2,16.3-9c4.5-3.5,8.3-8,10.8-12.5c2.8-4.5,4.5-9.7,5.2-14.9h0.7l14.2,31.3l32.7-2.4
				c-1.7-3.1-3.1-6.6-4.9-10.1c-1.7-3.8-3.5-7.6-5.2-11.8c-1.7-4.2-3.5-8.3-5.2-12.2c-1.7-4.2-3.5-8.3-5.2-12.2L2377.8,1264"/>
		</g>
	</g>
</g>
</svg>
