<svg xmlns="http://www.w3.org/2000/svg" xmlns:xlink="http://www.w3.org/1999/xlink" viewBox="0 0 735 852"><defs><style>.cls-1,.cls-17{fill:none;}.cls-2{isolation:isolate;}.cls-3{fill:#523f2d;}.cls-4{fill:#a75f33;}.cls-5{fill:#be7641;}.cls-6{opacity:0.15;}.cls-7{fill:#603912;}.cls-8{fill:#dba976;}.cls-9{fill:#be8f63;}.cls-10{opacity:0.39;}.cls-11{fill:#fff;}.cls-12{opacity:0.4;}.cls-13{opacity:0.63;}.cls-14{fill:#954c21;}.cls-15{opacity:0.6;}.cls-16{clip-path:url(#clip-path);}.cls-17{stroke:#be7641;stroke-miterlimit:10;stroke-width:8px;}.cls-18{opacity:0.3;mix-blend-mode:multiply;}.cls-19{clip-path:url(#clip-path-2);}.cls-20{clip-path:url(#clip-path-3);}.cls-21{fill:#404040;}.cls-22{fill:#666;}.cls-23{stroke:#666;stroke-width:6.12px;}</style><clipPath id="clip-path"><path class="cls-1" d="M366.19,529.58s1.25,86.57.61,304C386.7,841,710.26,624.77,710.26,624.77l-4-272Z"/></clipPath><clipPath id="clip-path-2"><polygon class="cls-1" points="366.19 153.76 366.19 489.03 274.81 480.51 29.32 348.68 366.19 153.76"/></clipPath><clipPath id="clip-path-3"><polygon class="cls-1" points="381.35 792.86 381.3 775.4 534.59 686.9 534.64 704.36 381.35 792.86"/></clipPath></defs><title> </title><g class="cls-2"><g id="Layer_1" data-name="Layer 1"><path class="cls-3" d="M705.56,196.21,427.76,35.82,367.44,1,307.13,35.82,29.31,196.22,0,213.13V637.38l29.28,16.91,281.28,162.4,56.85,32.82,56.85-32.82L705.56,654.3l29.3-16.92V213.13ZM367.44,816.68,29.31,621.47V363.92L705.56,350V621.47Z"/><polygon class="cls-3" points="29.32 363.92 29.32 621.47 367.44 816.68 705.56 621.47 705.56 349.98 29.32 363.92"/><polygon class="cls-4" points="366.19 153.76 706.28 352.79 697.46 631.34 366.19 489.03 366.19 153.76"/><polygon class="cls-5" points="366.19 153.76 366.19 489.03 33.32 638.87 29.32 348.68 366.19 153.76"/><g class="cls-6"><polygon class="cls-7" points="366.19 153.76 366.81 228.07 366.8 265.35 366.8 339.91 366.8 414.47 366.8 451.75 366.19 489.03 365.59 451.75 365.59 414.47 365.59 339.91 365.59 265.35 365.58 228.07 366.19 153.76"/><polygon class="cls-7" points="366.19 489.03 407.9 511.73 449.3 534.98 532.12 581.47 614.93 627.97 656.34 651.21 691.41 632 655.76 652.31 614.35 629.06 531.53 582.57 448.72 536.07 407.31 512.82 366.19 489.03"/><polygon class="cls-7" points="366.19 489.03 324.87 512.11 283.26 534.64 200.04 579.69 116.83 624.75 75.22 647.28 33.32 638.87 74.65 646.17 116.26 623.65 199.47 578.59 282.69 533.53 324.3 511 366.19 489.03"/></g><polygon class="cls-8" points="366.19 529.58 366.19 833.76 710.26 624.77 706.28 352.79 366.19 529.58"/><polygon class="cls-9" points="366.19 833.76 19.88 628.7 29.32 348.68 366.19 529.58 366.19 833.76"/><g class="cls-10"><polygon class="cls-11" points="366.19 529.58 366.81 571.4 366.8 613.22 366.8 696.86 366.8 780.5 366.8 822.32 366.19 833.76 365.59 822.32 365.59 780.5 365.59 696.86 365.59 613.22 365.58 571.4 366.19 529.58"/></g><g class="cls-12"><polygon class="cls-11" points="366.19 153.76 408.96 177.94 451.47 202.82 536.5 252.58 621.52 302.34 664.03 327.21 706.28 352.79 663.52 328.61 621 303.73 535.98 253.97 450.96 204.21 408.45 179.33 366.19 153.76"/><polygon class="cls-11" points="29.32 348.68 71.71 370.74 113.82 393.35 198.04 438.58 282.26 483.81 324.37 506.42 366.19 529.58 323.8 507.52 281.69 484.91 197.47 439.68 113.25 394.46 71.14 371.85 29.32 348.68"/><polygon class="cls-11" points="366.19 529.58 408.43 506.93 450.94 484.83 535.96 440.63 620.99 396.43 663.5 374.33 706.28 352.79 664.05 375.44 621.54 397.54 536.51 441.74 451.49 485.94 408.98 508.04 366.19 529.58"/><polygon class="cls-11" points="366.19 153.76 324.34 178.7 282.23 202.95 198.01 251.44 113.79 299.94 71.68 324.19 29.34 348.67 71.17 322.79 113.28 298.55 197.5 250.05 281.72 201.56 323.83 177.31 366.19 153.76"/></g><g id="text8207" class="cls-13"><path id="path8212" d="M187.18,554.83l.94,62,11.59,6.66-.89-62.58,14,7.32-.14-10.81-14-7.2-.15-10.28q-.07-4.86,2.27-5.4t6.7,1.63a33.89,33.89,0,0,1,3.39,2,22,22,0,0,1,3.42,2.42l-.14-10.73a35.55,35.55,0,0,0-4-2.82,43,43,0,0,0-3.81-2.15c-6.53-3.2-11.45-4-14.8-2.57s-4.8,5.09-4.71,11l.17,10.89-11.7-6,.17,10.49,11.69,6.11h0"/><path id="path8214" d="M233.11,605.51a29.9,29.9,0,0,1,1.62-11.15,13,13,0,0,1,5.05-6.34,12.24,12.24,0,0,1,7.53-1.61,26,26,0,0,1,9.49,3,41.71,41.71,0,0,1,9.52,6.9,49.11,49.11,0,0,1,13.52,22.13A45.59,45.59,0,0,1,282,632.1a27.72,27.72,0,0,1-2,11.53,11.92,11.92,0,0,1-5.25,6.18,13.41,13.41,0,0,1-8,1,26.42,26.42,0,0,1-9.44-3.43,45.46,45.46,0,0,1-9.48-7.27,52.94,52.94,0,0,1-7.62-9.66A53.77,53.77,0,0,1,235,618.69a49.76,49.76,0,0,1-1.89-13.18h0m-13-7.08A62.76,62.76,0,0,0,222.59,615a69.69,69.69,0,0,0,7.06,16.28,75.52,75.52,0,0,0,27.78,27q9.42,5.42,16.52,6.54,7.3,1.06,12.33-1.48a16.85,16.85,0,0,0,7.57-8.7,37.42,37.42,0,0,0,2.48-14.7,62.9,62.9,0,0,0-2.67-17.56,67.28,67.28,0,0,0-7.76-17.15A75.81,75.81,0,0,0,273.39,590a70.8,70.8,0,0,0-16.68-11.71q-9.24-4.73-16.19-5.22T229,575.53a16.65,16.65,0,0,0-6.79,8.84,38.57,38.57,0,0,0-2.11,14.07h0"/><path id="path8216" d="M311.73,608.31l.33,79.7,14.15,8.12-.1-35.67a40.74,40.74,0,0,1,1.65-12.8,12.82,12.82,0,0,1,5.42-7.43q3.76-2.25,10-1.2t15.27,5.77V630.37q-12.2-6.57-20-5.8t-12.94,7.86l-.34-.18-.05-17.06-13.4-6.88h0"/></g><polygon class="cls-14" points="366.19 153.73 366.19 493.29 279.54 497.48 366.19 153.73"/><g class="cls-15"><g class="cls-16"><line class="cls-17" x1="343.23" y1="546.61" x2="543.06" y2="722.52"/><line class="cls-17" x1="331.63" y1="558.2" x2="531.46" y2="734.11"/><line class="cls-17" x1="320.67" y1="569.16" x2="520.5" y2="745.08"/><line class="cls-17" x1="309.08" y1="580.76" x2="508.91" y2="756.67"/><line class="cls-17" x1="297.97" y1="591.87" x2="497.8" y2="767.78"/><line class="cls-17" x1="286.37" y1="603.46" x2="486.2" y2="779.37"/><line class="cls-17" x1="274.59" y1="615.24" x2="474.42" y2="791.16"/><line class="cls-17" x1="263" y1="626.84" x2="462.83" y2="802.75"/><line class="cls-17" x1="252.03" y1="637.8" x2="451.86" y2="813.71"/><line class="cls-17" x1="240.44" y1="649.39" x2="440.27" y2="825.31"/><line class="cls-17" x1="229.33" y1="660.5" x2="429.16" y2="836.42"/><line class="cls-17" x1="217.74" y1="672.1" x2="417.57" y2="848.01"/><line class="cls-17" x1="207.17" y1="682.67" x2="407" y2="858.58"/><line class="cls-17" x1="195.57" y1="694.26" x2="395.4" y2="870.18"/><line class="cls-17" x1="184.61" y1="705.22" x2="384.44" y2="881.14"/><line class="cls-17" x1="173.02" y1="716.82" x2="372.84" y2="892.73"/><line class="cls-17" x1="161.91" y1="727.93" x2="361.74" y2="903.84"/><line class="cls-17" x1="150.31" y1="739.52" x2="350.14" y2="915.44"/><line class="cls-17" x1="549.43" y1="344.42" x2="749.26" y2="520.34"/><line class="cls-17" x1="537.84" y1="356.02" x2="737.67" y2="531.93"/><line class="cls-17" x1="526.87" y1="366.98" x2="726.7" y2="542.89"/><line class="cls-17" x1="515.28" y1="378.57" x2="715.11" y2="554.49"/><line class="cls-17" x1="504.17" y1="389.68" x2="762.85" y2="616.72"/><line class="cls-17" x1="492.58" y1="401.28" x2="751.25" y2="628.32"/><line class="cls-17" x1="480.79" y1="413.06" x2="739.47" y2="640.1"/><line class="cls-17" x1="469.2" y1="424.65" x2="727.88" y2="651.69"/><line class="cls-17" x1="458.24" y1="435.61" x2="716.92" y2="662.65"/><line class="cls-17" x1="446.64" y1="447.21" x2="705.32" y2="674.25"/><line class="cls-17" x1="435.53" y1="458.32" x2="694.21" y2="685.36"/><line class="cls-17" x1="423.94" y1="469.91" x2="682.62" y2="696.95"/><line class="cls-17" x1="413.37" y1="480.48" x2="672.05" y2="707.52"/><line class="cls-17" x1="401.77" y1="492.08" x2="660.45" y2="719.12"/><line class="cls-17" x1="390.81" y1="503.04" x2="649.49" y2="730.08"/><line class="cls-17" x1="379.22" y1="514.63" x2="637.9" y2="741.67"/><line class="cls-17" x1="368.11" y1="525.74" x2="626.79" y2="752.78"/><line class="cls-17" x1="356.51" y1="537.34" x2="615.19" y2="764.38"/><line class="cls-17" x1="620.55" y1="280.44" x2="820.38" y2="456.35"/><line class="cls-17" x1="608.95" y1="292.03" x2="808.78" y2="467.95"/><line class="cls-17" x1="597.99" y1="303" x2="797.82" y2="478.91"/><line class="cls-17" x1="586.4" y1="314.59" x2="786.23" y2="490.51"/><line class="cls-17" x1="575.29" y1="325.7" x2="775.12" y2="501.61"/><line class="cls-17" x1="563.69" y1="337.29" x2="763.52" y2="513.21"/></g></g><g class="cls-18"><g class="cls-19"><line class="cls-17" x1="16.74" y1="298.65" x2="216.57" y2="474.56"/><line class="cls-17" x1="5.15" y1="310.24" x2="204.98" y2="486.16"/><line class="cls-17" x1="-5.82" y1="321.21" x2="194.01" y2="497.12"/><line class="cls-17" x1="-17.41" y1="332.8" x2="182.42" y2="508.71"/><line class="cls-17" x1="-28.52" y1="343.91" x2="171.31" y2="519.82"/><line class="cls-17" x1="-40.11" y1="355.5" x2="159.72" y2="531.42"/><line class="cls-17" x1="-51.89" y1="367.28" x2="147.94" y2="543.2"/><line class="cls-17" x1="-63.49" y1="378.88" x2="136.34" y2="554.79"/><line class="cls-17" x1="-74.45" y1="389.84" x2="125.38" y2="565.76"/><line class="cls-17" x1="-86.05" y1="401.44" x2="113.78" y2="577.35"/><line class="cls-17" x1="-97.15" y1="412.54" x2="102.68" y2="588.46"/><line class="cls-17" x1="-108.75" y1="424.14" x2="91.08" y2="600.05"/><line class="cls-17" x1="-119.32" y1="434.71" x2="80.51" y2="610.62"/><line class="cls-17" x1="-130.91" y1="446.3" x2="68.92" y2="622.22"/><line class="cls-17" x1="-141.88" y1="457.27" x2="57.95" y2="633.18"/><line class="cls-17" x1="-153.47" y1="468.86" x2="46.36" y2="644.78"/><line class="cls-17" x1="-164.58" y1="479.97" x2="35.25" y2="655.88"/><line class="cls-17" x1="-176.17" y1="491.56" x2="23.66" y2="667.48"/><line class="cls-17" x1="222.94" y1="96.46" x2="422.77" y2="272.38"/><line class="cls-17" x1="211.35" y1="108.06" x2="411.18" y2="283.97"/><line class="cls-17" x1="200.39" y1="119.02" x2="400.22" y2="294.94"/><line class="cls-17" x1="188.79" y1="130.62" x2="388.62" y2="306.53"/><line class="cls-17" x1="177.68" y1="141.72" x2="436.36" y2="368.76"/><line class="cls-17" x1="166.09" y1="153.32" x2="424.77" y2="380.36"/><line class="cls-17" x1="154.31" y1="165.1" x2="412.99" y2="392.14"/><line class="cls-17" x1="142.71" y1="176.69" x2="401.39" y2="403.73"/><line class="cls-17" x1="131.75" y1="187.66" x2="390.43" y2="414.7"/><line class="cls-17" x1="120.16" y1="199.25" x2="378.83" y2="426.29"/><line class="cls-17" x1="109.05" y1="210.36" x2="367.73" y2="437.4"/><line class="cls-17" x1="97.45" y1="221.95" x2="356.13" y2="448.99"/><line class="cls-17" x1="86.88" y1="232.52" x2="345.56" y2="459.56"/><line class="cls-17" x1="75.29" y1="244.12" x2="333.97" y2="471.16"/><line class="cls-17" x1="64.33" y1="255.08" x2="323" y2="482.12"/><line class="cls-17" x1="52.73" y1="266.68" x2="311.41" y2="493.72"/><line class="cls-17" x1="41.62" y1="277.78" x2="300.3" y2="504.82"/><line class="cls-17" x1="30.03" y1="289.38" x2="288.71" y2="516.42"/><line class="cls-17" x1="294.06" y1="32.48" x2="493.89" y2="208.4"/><line class="cls-17" x1="282.47" y1="44.08" x2="482.3" y2="219.99"/><line class="cls-17" x1="271.51" y1="55.04" x2="471.34" y2="230.95"/><line class="cls-17" x1="259.91" y1="66.63" x2="459.74" y2="242.55"/><line class="cls-17" x1="248.8" y1="77.74" x2="448.63" y2="253.66"/><line class="cls-17" x1="237.21" y1="89.34" x2="437.04" y2="265.25"/></g></g><g id="text7207"><path id="path7212" class="cls-8" d="M429.19,627l12.76-6.69q-.74-6.7-3.5-10.35a12.6,12.6,0,0,0-7.13-5,19.44,19.44,0,0,0-10,.12,48.64,48.64,0,0,0-12.17,4.47A62.37,62.37,0,0,0,393,621.26a68.85,68.85,0,0,0-11.81,15.42,71.41,71.41,0,0,0-7,17.7A75.48,75.48,0,0,0,371.88,673a47.91,47.91,0,0,0,2.35,15.95,19.2,19.2,0,0,0,7.16,9.41q4.8,3,11.71,2.15T409,694.62a64.43,64.43,0,0,0,23.07-21A65.7,65.7,0,0,0,442.46,645l-12.62,6.81a40.77,40.77,0,0,1-6.42,18A39.67,39.67,0,0,1,408.85,683q-6,3.32-10.42,3.21a10.39,10.39,0,0,1-7.18-2.75A17.49,17.49,0,0,1,387.1,676a41.9,41.9,0,0,1-1.24-10.5,66.24,66.24,0,0,1,1.22-12.6,51.6,51.6,0,0,1,4-12.41,46.27,46.27,0,0,1,7.6-11.06,41,41,0,0,1,11.58-8.64q8-4.14,12.76-2.36t6.19,8.59h0"/><path id="path7214" class="cls-8" d="M518.59,631.52a27.47,27.47,0,0,1-8,6.4q-4.38,2.44-7.07,1.26-2.56-1.41-2.6-7.65a60.67,60.67,0,0,1-24.71,25.58,44.09,44.09,0,0,1-9.33,4,15.15,15.15,0,0,1-7.61.41,8.62,8.62,0,0,1-5.27-3.83q-1.87-3.27-1.89-9.25a33,33,0,0,1,2.09-12.17,39.65,39.65,0,0,1,5.49-9.82,52.24,52.24,0,0,1,7.83-8.28q4.45-3.73,9-7,4.81-3.6,9-6.29,4.35-2.9,7.59-5.51a27.85,27.85,0,0,0,5.1-5.52,11.6,11.6,0,0,0,1.84-6.47q0-4.14-1.51-5.9a4.74,4.74,0,0,0-3.65-2,11.54,11.54,0,0,0-5,.79,42.7,42.7,0,0,0-5.44,2.35,40.84,40.84,0,0,0-12.36,9.53q-5,5.6-5.37,14.44l-11.95,6.26a40.8,40.8,0,0,1,2.78-13.8,44.09,44.09,0,0,1,6.71-11.5,52.91,52.91,0,0,1,9.43-9.34,76,76,0,0,1,20.73-11.13,18.81,18.81,0,0,1,8.46-1.19,8.12,8.12,0,0,1,6,3.27q2.27,3,2.32,9.56l.26,39.15a33.9,33.9,0,0,0,.44,6.27q.54,1.77,3.18.32a18.41,18.41,0,0,0,3.41-2.62l.07,9.7h0M500,602.36a29.63,29.63,0,0,1-5.63,5.68q-3.51,2.62-7.45,5.33-3.82,2.49-7.79,5.37a49.15,49.15,0,0,0-7.17,6,29.75,29.75,0,0,0-5.27,7.24,18.49,18.49,0,0,0-1.92,8.65,8.73,8.73,0,0,0,1.14,4.86,5.48,5.48,0,0,0,3.09,1.81,10.15,10.15,0,0,0,4.46-.48,28.14,28.14,0,0,0,5.26-2.29,47,47,0,0,0,9.85-7.08,48.61,48.61,0,0,0,6.61-8,35.92,35.92,0,0,0,3.73-7.71,21.64,21.64,0,0,0,1.17-6.45L500,602.36h0"/><path id="path7216" class="cls-8" d="M543.39,543.2,543.21,521l-10.81,5.34.17,22.38-11.37,5.78.08,10.93,11.37-5.86.37,47.71a26.56,26.56,0,0,0,1,7.94,5.26,5.26,0,0,0,2.73,3.45,7.86,7.86,0,0,0,4.87-.23,52.41,52.41,0,0,0,7.22-3.44l8.15-4.54-.1-10.74L552,602.38q-2.51,1.38-4.15,2.14a4.25,4.25,0,0,1-2.41.31,1.89,1.89,0,0,1-1.28-1.32,16.53,16.53,0,0,1-.28-3.32L543.48,554l12.92-6.66-.1-10.67-12.91,6.57h0"/><path id="path7218" class="cls-8" d="M574.91,577.28l-10.41,5.64q.31,6.69,2.57,10.31a9.87,9.87,0,0,0,6,4.41,17.24,17.24,0,0,0,8.42-.56,47,47,0,0,0,9.85-4.22,67,67,0,0,0,9.23-6.27,45,45,0,0,0,8.27-8.23,39.83,39.83,0,0,0,5.83-10.16,30.39,30.39,0,0,0,2.18-12q-.06-5.07-1.83-7.57a7.33,7.33,0,0,0-4.46-3.28,13.41,13.41,0,0,0-6.33-.38,57.74,57.74,0,0,0-7.31,1.51q-3.56.9-7.13,2a41.61,41.61,0,0,1-6.48,1.17,10.09,10.09,0,0,1-4.86-.83q-1.84-1.16-1.87-4.25a10.76,10.76,0,0,1,1.17-5.12,17,17,0,0,1,3.11-4.43,25,25,0,0,1,4.19-3.7,42.13,42.13,0,0,1,4.65-2.81,20.22,20.22,0,0,1,4.87-1.81,10,10,0,0,1,4.5-.37,5.26,5.26,0,0,1,3.33,2,8.54,8.54,0,0,1,1.58,4.87l9.86-5.16q-.42-6.26-2.43-9.49a8.28,8.28,0,0,0-5.41-4.13,13.81,13.81,0,0,0-7.64.29,48,48,0,0,0-17.85,9.21A44.65,44.65,0,0,0,573,531.4a39,39,0,0,0-5.43,9.16,27.08,27.08,0,0,0-2,10.56q.07,7.08,3.17,9.43a11.66,11.66,0,0,0,7.62,2.2,47.64,47.64,0,0,0,9.92-1.91,79.25,79.25,0,0,1,9.67-2.51,16,16,0,0,1,7.45-.24q2.95.77,3,5.33a14.44,14.44,0,0,1-1.34,6.3,20.44,20.44,0,0,1-3.6,5.18,30.45,30.45,0,0,1-4.7,4.12,51.32,51.32,0,0,1-5,3.16,33.75,33.75,0,0,1-6.1,2.66,13.9,13.9,0,0,1-5.32.67,6.11,6.11,0,0,1-3.8-2.31,10.7,10.7,0,0,1-1.65-5.91h0"/></g><g id="text7207-2" data-name="text7207" class="cls-13"><path id="path7212-2" data-name="path7212" d="M429.19,627l12.76-6.69q-.74-6.7-3.5-10.35a12.6,12.6,0,0,0-7.13-5,19.44,19.44,0,0,0-10,.12,48.64,48.64,0,0,0-12.17,4.47A62.37,62.37,0,0,0,393,621.26a68.85,68.85,0,0,0-11.81,15.42,71.41,71.41,0,0,0-7,17.7A75.48,75.48,0,0,0,371.88,673a47.91,47.91,0,0,0,2.35,15.95,19.2,19.2,0,0,0,7.16,9.41q4.8,3,11.71,2.15T409,694.62a64.43,64.43,0,0,0,23.07-21A65.7,65.7,0,0,0,442.46,645l-12.62,6.81a40.77,40.77,0,0,1-6.42,18A39.67,39.67,0,0,1,408.85,683q-6,3.32-10.42,3.21a10.39,10.39,0,0,1-7.18-2.75A17.49,17.49,0,0,1,387.1,676a41.9,41.9,0,0,1-1.24-10.5,66.24,66.24,0,0,1,1.22-12.6,51.6,51.6,0,0,1,4-12.41,46.27,46.27,0,0,1,7.6-11.06,41,41,0,0,1,11.58-8.64q8-4.14,12.76-2.36t6.19,8.59h0"/><path id="path7214-2" data-name="path7214" d="M518.59,631.52a27.47,27.47,0,0,1-8,6.4q-4.38,2.44-7.07,1.26-2.56-1.41-2.6-7.65a60.67,60.67,0,0,1-24.71,25.58,44.09,44.09,0,0,1-9.33,4,15.15,15.15,0,0,1-7.61.41,8.62,8.62,0,0,1-5.27-3.83q-1.87-3.27-1.89-9.25a33,33,0,0,1,2.09-12.17,39.65,39.65,0,0,1,5.49-9.82,52.24,52.24,0,0,1,7.83-8.28q4.45-3.73,9-7,4.81-3.6,9-6.29,4.35-2.9,7.59-5.51a27.85,27.85,0,0,0,5.1-5.52,11.6,11.6,0,0,0,1.84-6.47q0-4.14-1.51-5.9a4.74,4.74,0,0,0-3.65-2,11.54,11.54,0,0,0-5,.79,42.7,42.7,0,0,0-5.44,2.35,40.84,40.84,0,0,0-12.36,9.53q-5,5.6-5.37,14.44l-11.95,6.26a40.8,40.8,0,0,1,2.78-13.8,44.09,44.09,0,0,1,6.71-11.5,52.91,52.91,0,0,1,9.43-9.34,76,76,0,0,1,20.73-11.13,18.81,18.81,0,0,1,8.46-1.19,8.12,8.12,0,0,1,6,3.27q2.27,3,2.32,9.56l.26,39.15a33.9,33.9,0,0,0,.44,6.27q.54,1.77,3.18.32a18.41,18.41,0,0,0,3.41-2.62l.07,9.7h0M500,602.36a29.63,29.63,0,0,1-5.63,5.68q-3.51,2.62-7.45,5.33-3.82,2.49-7.79,5.37a49.15,49.15,0,0,0-7.17,6,29.75,29.75,0,0,0-5.27,7.24,18.49,18.49,0,0,0-1.92,8.65,8.73,8.73,0,0,0,1.14,4.86,5.48,5.48,0,0,0,3.09,1.81,10.15,10.15,0,0,0,4.46-.48,28.14,28.14,0,0,0,5.26-2.29,47,47,0,0,0,9.85-7.08,48.61,48.61,0,0,0,6.61-8,35.92,35.92,0,0,0,3.73-7.71,21.64,21.64,0,0,0,1.17-6.45L500,602.36h0"/><path id="path7216-2" data-name="path7216" d="M543.39,543.2,543.21,521l-10.81,5.34.17,22.38-11.37,5.78.08,10.93,11.37-5.86.37,47.71a26.56,26.56,0,0,0,1,7.94,5.26,5.26,0,0,0,2.73,3.45,7.86,7.86,0,0,0,4.87-.23,52.41,52.41,0,0,0,7.22-3.44l8.15-4.54-.1-10.74L552,602.38q-2.51,1.38-4.15,2.14a4.25,4.25,0,0,1-2.41.31,1.89,1.89,0,0,1-1.28-1.32,16.53,16.53,0,0,1-.28-3.32L543.48,554l12.92-6.66-.1-10.67-12.91,6.57h0"/><path id="path7218-2" data-name="path7218" d="M574.91,577.28l-10.41,5.64q.31,6.69,2.57,10.31a9.87,9.87,0,0,0,6,4.41,17.24,17.24,0,0,0,8.42-.56,47,47,0,0,0,9.85-4.22,67,67,0,0,0,9.23-6.27,45,45,0,0,0,8.27-8.23,39.83,39.83,0,0,0,5.83-10.16,30.39,30.39,0,0,0,2.18-12q-.06-5.07-1.83-7.57a7.33,7.33,0,0,0-4.46-3.28,13.41,13.41,0,0,0-6.33-.38,57.74,57.74,0,0,0-7.31,1.51q-3.56.9-7.13,2a41.61,41.61,0,0,1-6.48,1.17,10.09,10.09,0,0,1-4.86-.83q-1.84-1.16-1.87-4.25a10.76,10.76,0,0,1,1.17-5.12,17,17,0,0,1,3.11-4.43,25,25,0,0,1,4.19-3.7,42.13,42.13,0,0,1,4.65-2.81,20.22,20.22,0,0,1,4.87-1.81,10,10,0,0,1,4.5-.37,5.26,5.26,0,0,1,3.33,2,8.54,8.54,0,0,1,1.58,4.87l9.86-5.16q-.42-6.26-2.43-9.49a8.28,8.28,0,0,0-5.41-4.13,13.81,13.81,0,0,0-7.64.29,48,48,0,0,0-17.85,9.21A44.65,44.65,0,0,0,573,531.4a39,39,0,0,0-5.43,9.16,27.08,27.08,0,0,0-2,10.56q.07,7.08,3.17,9.43a11.66,11.66,0,0,0,7.62,2.2,47.64,47.64,0,0,0,9.92-1.91,79.25,79.25,0,0,1,9.67-2.51,16,16,0,0,1,7.45-.24q2.95.77,3,5.33a14.44,14.44,0,0,1-1.34,6.3,20.44,20.44,0,0,1-3.6,5.18,30.45,30.45,0,0,1-4.7,4.12,51.32,51.32,0,0,1-5,3.16,33.75,33.75,0,0,1-6.1,2.66,13.9,13.9,0,0,1-5.32.67,6.11,6.11,0,0,1-3.8-2.31,10.7,10.7,0,0,1-1.65-5.91h0"/></g><g class="cls-2"><g class="cls-20"><path class="cls-21" d="M396.13,772.32l-1.83,1.06-1.44,6.72c-.33,1.57-.61,3-.77,4.26l-.06,0c-.23-1.06-.54-2.12-.92-3.31l-1.6-4.95L388,777,386.31,784c-.33,1.48-.66,2.93-.9,4.26l-.06,0c-.19-1.1-.47-2.16-.77-3.3l-1.37-5.18-1.9,1.09,3.11,9.95,1.69-1,1.63-6.52c.35-1.47.66-2.86.91-4.42l0,0a26.57,26.57,0,0,0,.92,3.33l1.57,4.7,1.69-1,3.25-13.62"/><path class="cls-21" d="M411.9,763.22l-1.83,1.06L408.63,771c-.33,1.57-.61,3-.77,4.26l-.06,0c-.23-1.06-.53-2.13-.91-3.31l-1.6-4.95-1.56.9-1.65,6.92c-.33,1.48-.67,2.94-.9,4.26l-.06,0c-.19-1.1-.47-2.16-.77-3.3L399,770.68l-1.9,1.09,3.11,9.95,1.69-1,1.63-6.52c.36-1.47.67-2.86.92-4.42l0,0a29.38,29.38,0,0,0,.92,3.33l1.58,4.69,1.69-1,3.25-13.62"/><path class="cls-21" d="M427.67,754.11l-1.83,1.06-1.44,6.72c-.33,1.57-.61,3-.77,4.26l-.06,0a34.12,34.12,0,0,0-.92-3.31l-1.59-5-1.56.9-1.65,6.92c-.33,1.48-.66,2.93-.89,4.25l-.06,0c-.19-1.1-.47-2.16-.77-3.3l-1.36-5.18-1.9,1.1,3.11,9.95,1.69-1,1.63-6.52c.35-1.47.67-2.86.91-4.42l0,0a27.9,27.9,0,0,0,.92,3.33l1.57,4.7,1.69-1,3.25-13.62"/><path class="cls-21" d="M429.55,762a2.7,2.7,0,0,0-1.26,2.26c0,.87.51,1.23,1.22.82h0a2.67,2.67,0,0,0,1.26-2.26c0-.89-.52-1.23-1.25-.81"/><path class="cls-21" d="M437.58,748.13a6.85,6.85,0,0,0-2.81,4.2l-.09.05-.06-2.27L433,751c.07,1.06.1,2.22.1,3.61l0,8.06,1.83-1.06,0-6.25a7.56,7.56,0,0,1,.08-1,5.81,5.81,0,0,1,2.48-4.17,3.07,3.07,0,0,1,.64-.3v-2a2.14,2.14,0,0,0-.53.23"/><path class="cls-21" d="M443.05,745a6.82,6.82,0,0,0-3.51,5.47c0,1.4.88,2.07,2.71,1.76,1.37-.21,1.9,0,1.9,1.06a3.51,3.51,0,0,1-2,2.88,4,4,0,0,1-2.45.57l-.46,1.89a5.17,5.17,0,0,0,2.87-.83,7,7,0,0,0,3.8-5.74c0-1.74-.91-2.24-2.69-2-1.33.19-1.94.11-1.95-.86a3.22,3.22,0,0,1,1.71-2.59,3.36,3.36,0,0,1,2.09-.53l.46-1.81a4.47,4.47,0,0,0-2.51.72"/><path class="cls-21" d="M450.54,738.1l-1.81,1.7V742l-1.58.91v1.62l1.58-.91,0,6.4c0,1.38.19,2.31.72,2.64s1.14.26,2-.24a7.53,7.53,0,0,0,1.65-1.27l-.09-1.55a5.26,5.26,0,0,1-1.08.77c-1,.59-1.39,0-1.39-1.47l0-6.32L453.2,741v-1.62l-2.65,1.53V738.1"/><path class="cls-21" d="M463.82,733.24,462,734.31l0,7.2a4.44,4.44,0,0,1-.17,1.19,6,6,0,0,1-2.43,3.34c-1.69,1-2.28-.18-2.29-2.41l0-6.49-1.85,1.07,0,6.85c0,4.12,1.93,4,3.53,3.1a8.39,8.39,0,0,0,3.36-4.13l0,0,.11,1.86,1.65-1c-.07-.89-.1-1.94-.1-3.15l0-8.52"/><path class="cls-21" d="M471.08,739.34c-2,1.16-3-.22-3-2.6,0-2.59,1.12-5.18,3-6.29,1.39-.8,2.4-.27,2.68.92a3.67,3.67,0,0,1,.09.85v2a4.82,4.82,0,0,1-.08,1,6.22,6.22,0,0,1-2.71,4.12m4.61-18.43L473.84,722l0,7,0,0c-.46-.68-1.52-.92-3.08,0-2.48,1.43-4.58,5-4.55,8.93,0,3.56,1.91,4.86,4.38,3.44a8.21,8.21,0,0,0,3.47-4.31l0,0,.09,2,1.67-1c-.07-.76-.1-1.94-.1-3l0-14.17"/><path class="cls-21" d="M480.64,723.53l-1.85,1.07,0,11.72,1.85-1.07,0-11.72m-.94-4.09a2.46,2.46,0,0,0-1.16,2c0,.73.47,1,1.13.66a2.36,2.36,0,0,0,1.17-2c0-.75-.44-1.07-1.14-.67"/><path class="cls-21" d="M488,729.69c-1.81,1-3.1-.15-3.11-2.72,0-2.22.93-5.09,3.12-6.36s3.07.75,3.07,2.74c0,2.64-1.32,5.32-3.08,6.34M488,719a10.78,10.78,0,0,0-5,9.14c0,3.7,2.14,4.8,4.91,3.21a10.78,10.78,0,0,0,5.06-9.15c0-3.59-2-4.89-4.93-3.2"/><path class="cls-21" d="M495.63,723.83a2.71,2.71,0,0,0-1.26,2.26c0,.87.52,1.23,1.23.82h0a2.67,2.67,0,0,0,1.26-2.26c0-.89-.51-1.23-1.25-.81"/><path class="cls-21" d="M503.89,709.86a11.22,11.22,0,0,0-5.46,9.39c0,3.58,2,4.85,5.09,3.07a11.89,11.89,0,0,0,2.93-2.4l-.32-1.41a9.42,9.42,0,0,1-2.27,1.89c-2,1.17-3.55.37-3.56-2.34a7.62,7.62,0,0,1,3.59-6.51,3.93,3.93,0,0,1,2.15-.68l.42-1.89a5.8,5.8,0,0,0-2.57.87"/><path class="cls-21" d="M512.73,715.41c-1.81,1-3.1-.15-3.11-2.72,0-2.22.93-5.09,3.12-6.36s3.07.75,3.07,2.74c0,2.64-1.32,5.32-3.08,6.34m.05-10.7a10.78,10.78,0,0,0-5,9.14c0,3.7,2.14,4.8,4.91,3.21a10.78,10.78,0,0,0,5.06-9.15c0-3.59-2-4.89-4.93-3.2"/><path class="cls-21" d="M531.25,694a6.73,6.73,0,0,0-2.25,2.12,10.09,10.09,0,0,0-1.13,2.18l0,0c-.44-1.12-1.5-1.49-2.89-.68a7.7,7.7,0,0,0-3.2,4l-.06,0-.09-1.84-1.62.94c.07.93.09,1.92.09,3.13l0,8.55,1.81-1,0-7.07a4.06,4.06,0,0,1,.14-1.13,5.72,5.72,0,0,1,2.29-3.45c1.41-.81,2.13.12,2.14,2l0,7,1.81-1,0-7.24a5,5,0,0,1,.14-1.15,5.41,5.41,0,0,1,2.18-3.2c1.5-.87,2.22.07,2.23,2.32l0,6.64,1.81-1,0-6.9c0-4.06-2-3.93-3.37-3.15"/></g></g><path class="cls-3" d="M705.56,196.21,427.76,35.82,367.44,1,307.13,35.82,29.31,196.22,0,213.13V637.38l29.28,16.91,281.28,162.4,56.85,32.82,56.85-32.82L705.56,654.3l29.3-16.92V213.13Zm0,425.26L367.44,816.68,29.31,621.47V231L367.44,35.82h0L705.56,231Z"/><g id="layer2"><g id="layer8"><g id="g6465"><g id="path6459"><path d="M313.49,275.87c-21.05,13.79-33.88,43.71-39,66.58l-2,30.33L540.71,464c13.43,11.51-75.15-128.18-83.06-144-11.89-23.79-15-11.28-35.83-19.61-24.06-9.63-8.79-14.92-48.27-21.5-19.93-3.32-40-2.27-60.06-3Z"/><path class="cls-22" d="M541.88,468.33a5,5,0,0,1-2.94-1.07L268.64,375.34l2.31-33.68c5.32-23.93,18.76-54.59,40.53-68.85l1-.64,1.16,0c5.76.21,11.64.27,17.32.34,14.14.15,28.77.31,43.21,2.72,25,4.17,29.31,8.13,34.28,12.72,2.9,2.68,5.9,5.45,14.75,9a44.78,44.78,0,0,0,15.56,3.3c8.92.57,14,1.63,22.18,18.07,2.64,5.29,14.89,25.36,29.07,48.59,12.66,20.75,27,44.26,37.91,62.81,6,10.14,10.28,17.75,13.19,23.24,4.65,8.78,6,12.06,3.27,14.41A3.84,3.84,0,0,1,541.88,468.33ZM276.32,370.22l259.39,88.21c-8.58-16.56-35.08-60-52-87.67-14.85-24.34-26.59-43.57-29.37-49.13-6.72-13.45-9.47-13.62-16.1-14a52.42,52.42,0,0,1-17.82-3.81c-10.1-4-13.76-7.42-17-10.4-4.28-3.95-7.66-7.07-30.52-10.88-13.88-2.31-28.22-2.47-42.09-2.62-5.34-.06-10.86-.12-16.32-.3-19.31,13.28-31.42,41.28-36.39,63.41Z"/></g><g id="path6455"><path d="M311.73,337.39c-7.69-38.44,9.46-76,14.89-112L431,228.72c-8.2,26.48,17.85,55.67,17.85,81.72"/><path class="cls-22" d="M308.14,338.11c-5.46-27.27,1.16-53.86,7.55-79.56,2.9-11.67,5.64-22.69,7.31-33.73l.49-3.22,112.4,3.62-1.42,4.59c-4.3,13.91,2,29.49,8.17,44.56,4.84,11.9,9.85,24.21,9.85,36.07h-7.32c0-10.43-4.52-21.54-9.31-33.31-6-14.75-12.18-30-9.5-44.89l-96.64-3.11c-1.75,10.36-4.38,20.93-6.93,31.19-6.2,24.92-12.61,50.69-7.48,76.36Z"/></g></g><g id="path6445"><path d="M407.81,136.62c9.3-9.92,16.7-22.31,29.18-28.66,10.16,2.23,6,15.63,6.71,23.21-.49,12.57-3.12,25-6.37,37.05,0,9.3,4.9,17.77,5.11,27.08,1.94,14.79-2.13,31.57-14,41.29-7.62,5.52-18.29,2.08-25.68,7.68a28.13,28.13,0,0,1-19.39,9.66c-8.39.66-17.74.11-24.86-4.78C352,244,346.21,237.7,338.08,235.3c-12.73-6.74-25.93-17.87-26.35-33.43-.38-10.24,6.71-19.17,6.6-29.25C313.6,154,312.24,134.2,316,115.29c3.89-9.12,13.73-2.38,16.77,3.66,6.1,6.64,12.07,13.51,19.39,18.84,18.24-4.7,37.14-1.6,55.66-1.17Z"/><path class="cls-22" d="M377.9,256.5c-8.62,0-15.45-1.79-20.74-5.42L357,251c-1.51-1.2-3-2.47-4.44-3.7-4.83-4.13-9.4-8-15.18-9.75l-.22-.07-.21-.11c-10.09-5.35-27.1-17.06-27.6-35.43-.21-5.66,1.65-10.84,3.44-15.85,1.61-4.5,3.14-8.75,3.16-13.17-5.06-20.07-5.85-40.15-2.29-58.08l0-.24.09-.22c2.12-5,5.7-5.82,7.65-5.88,5.22-.2,10.73,4.45,13.2,9.1l1.81,2c5,5.5,10.2,11.17,16.16,15.68,13.61-3.28,27.57-2.45,41.08-1.64,4.3.26,8.73.52,13.08.64,2.31-2.53,4.56-5.25,6.74-7.89,6.38-7.72,13-15.71,22.38-20.49l.75-.38.82.18c9.58,2.11,9,12,8.63,19.16A45,45,0,0,0,446,131v.31c-.43,10.93-2.39,22.43-6.37,37.26.07,4.3,1.23,8.44,2.46,12.82s2.51,9,2.64,13.78c1.76,13.63-1.23,32.12-14.88,43.28l-.11.08c-4.28,3.1-9.19,3.67-13.94,4.23-4.28.5-8.33,1-11.51,3.29a30.43,30.43,0,0,1-20.83,10.26Q380.58,256.5,377.9,256.5Zm-18-9.23c5.46,3.72,13.08,5.14,23.29,4.33A25.84,25.84,0,0,0,401,242.73l.34-.31c4.22-3.2,9.18-3.78,14-4.34,4.32-.5,8.41-1,11.69-3.33,8-6.56,15.61-20.26,13.13-39.13l0-.25c-.09-4.28-1.25-8.39-2.47-12.75-1.29-4.59-2.62-9.33-2.64-14.37v-.31l.08-.3c3.92-14.56,5.86-25.79,6.29-36.39a49.64,49.64,0,0,1,.09-6.66c.42-7.49.35-12.62-4.19-14.12-8.12,4.38-13.95,11.44-20.11,18.89-2.45,3-5,6-7.65,8.87l-.71.76-1,0c-4.76-.11-9.61-.4-14.3-.68-13.51-.8-27.49-1.64-40.72,1.78l-1.07.28-.89-.65c-6.71-4.88-12.31-11-17.73-17l-2-2.2-.22-.24-.15-.29c-1.66-3.31-5.89-6.94-9-6.83-.54,0-2.15.07-3.4,2.82-3.38,17.28-2.57,36.66,2.36,56.05l.07.27v.28c.06,5.35-1.72,10.29-3.43,15.07s-3.35,9.34-3.17,14.12c.43,15.91,15.7,26.43,24.91,31.34,6.63,2,11.73,6.39,16.66,10.61C357,244.92,358.46,246.14,359.88,247.27Z"/></g><g id="path6437"><path d="M390.74,195.58c2.42-12,11.89-17.29,24.2-9.82C409.41,195.45,404.07,199.05,390.74,195.58Z"/><path class="cls-22" d="M399.26,199a36.29,36.29,0,0,1-9.07-1.33l-2-.52.41-2c1.36-6.76,4.82-11.67,9.74-13.83,3.58-1.57,9.56-2.4,17.75,2.57L417.9,185l-1.06,1.85C412.54,194.38,407.91,199,399.26,199ZM393.4,194c10,2.14,14.25-.58,18.51-7.39-4.46-2.26-8.51-2.69-11.81-1.24C397,186.69,394.66,189.72,393.4,194Z"/></g><g id="path6439"><path d="M362.69,195.78c2.21-15.55-14.31-13.51-23.56-12.61C345.19,196.06,351.48,198.5,362.69,195.78Z"/><path class="cls-22" d="M355.58,199.09c-8.29,0-13.7-4.56-18.56-14.93l-1.41-3,4.06-.39c6.86-.67,17.24-1.69,22.47,3.77,2.6,2.72,3.57,6.61,2.86,11.57l-.22,1.57-1.54.37A32.69,32.69,0,0,1,355.58,199.09Zm-12.81-13.92c5,9.08,10,10.31,17.77,8.7.15-2.7-.44-4.7-1.77-6.1C355.62,184.48,348.5,184.68,342.77,185.17Z"/></g><g id="path6443"><path d="M362.7,237.77c5.56-2.78,13.06-7.18,14.06-17,.3,12.18,8.11,16.28,17.58,15.23"/><path class="cls-22" d="M363.75,239.86l-2.09-4.18c6.15-3.08,12-7,12.78-15.14l4.66.18c.12,4.7,1.44,8.19,3.94,10.38,3.21,2.8,7.77,3,11,2.59l.52,4.65c-6,.66-11.08-.62-14.63-3.72a14.73,14.73,0,0,1-3.71-5C372.76,235.36,367,238.23,363.75,239.86Z"/></g><g id="path6447"><path class="cls-22" d="M325.79,247.72l-3.52-3.08c8.83-10.1,22.21-23.53,36.31-23.65l0,4.67C345,225.78,330.54,242.29,325.79,247.72Z"/></g><g id="path6449"><path class="cls-22" d="M336.34,251.82l-3.52-3.08c7.13-8.14,13.72-15.3,22.24-20.39l2.4,4C349.52,237.11,343.2,244,336.34,251.82Z"/></g><g id="path6451"><path class="cls-22" d="M434.15,240.23a219,219,0,0,1-21.25-7.38c-7.51-2.9-15.28-5.91-23.21-7.84l1.1-4.54c8.23,2,16.14,5.06,23.79,8a215.28,215.28,0,0,0,20.8,7.23Z"/></g><g id="path6453"><path class="cls-22" d="M421.14,256.33c-7.36-10.3-14.77-16.89-25.58-22.74l2.22-4.11c11.48,6.21,19.35,13.21,27.15,24.13Z"/></g><g id="path6504"><path class="cls-22" d="M430.51,160a2.4,2.4,0,0,1-1.68-.68,69.09,69.09,0,0,1-5.85-6.57c-2.57-3.18-4.6-5.7-9-8.45L412,143l1.61-2.45c8.24-12.53,14.82-20.81,20.14-20.5a5.06,5.06,0,0,1,4.29,3.08l.13.33c1.26,3.92-.09,13-1.43,20-2.89,14.91-4.4,15.84-5,16.19A2.43,2.43,0,0,1,430.51,160Zm-12-18.32a39.58,39.58,0,0,1,8.12,8.13c.95,1.17,1.92,2.37,3.05,3.64,2-7,5.34-23.82,4.11-28.35a1,1,0,0,0-.28-.35C433,124.58,429.79,124.76,418.51,141.65Z"/></g><g id="path6506"><path class="cls-22" d="M324.67,164.91l-.37,0a2.7,2.7,0,0,1-2.09-1.5c-3.41-6.82-4.91-21-3.22-30.45.38-3.37,1.3-7.93,4.81-9,4.57-1.42,9.53,4.27,15.27,10.87a80.06,80.06,0,0,0,7.54,8l1.47,1.24-.93,1.68c-2.5,4.51-10.39,11-15.67,13.7-.23.24-.69.76-1,1.15C328.06,163.2,326.46,164.91,324.67,164.91Zm6.89-5.64Zm-6.18-30.93a.65.65,0,0,0-.2,0s-1.06.6-1.57,5.16l0,.16c-1.34,7.37-.42,18.77,1.86,25.36.56-.59,1.12-1.24,1.46-1.62a8.31,8.31,0,0,1,2.23-2.13A46.2,46.2,0,0,0,342,144.89c-2.12-2-4.33-4.58-6.49-7.05C332.82,134.72,327.27,128.34,325.38,128.34Z"/></g></g></g><g id="layer3"><g id="layer4"><g id="path5941"><path d="M268,283.2c4.39,3.58,3.94,10.09,8.34,13.48,38.43,21.06,77,28.23,122.73,51.46,36.33,23.44,44.53,80.34,32.17,112.12-6.68,28.56-43.06,5.66-59.58,0-15-5.15-31.77-7.76-47.07-12.25-13.39-3.93-26.75-15.32-41.11-15.32-21-6-42.33-13.9-62.56-20.83-15.14-5.19-93-1-85.79-23.28,1-15.67-6.23-39.56,0-50.24,15.48-19,54.65-21.46,76.86-31.25,15.77-8.5,38.26-27.54,56-23.89Z"/><path class="cls-22" d="M414.22,477.43c-10.44,0-22.75-5.38-33.16-9.93-3.89-1.7-7.57-3.31-10.45-4.3a271.72,271.72,0,0,0-26.45-7.05c-6.79-1.57-13.81-3.2-20.48-5.16-5.44-1.6-10.84-4.35-16.07-7-7.91-4-16.09-8.18-24.17-8.18H283l-.42-.12c-16-4.58-32.15-10.23-47.78-15.69-5-1.76-10-3.5-14.93-5.19-4.13-1.42-14.55-2.15-25.59-2.93-30.4-2.14-54.19-4.57-61-14.6A10.7,10.7,0,0,1,132,388c.3-5.59-.48-12.51-1.24-19.22-1.42-12.6-2.76-24.5,1.64-32l.28-.4c10.85-13.3,31.5-18.68,51.46-23.88,9.83-2.56,19.11-5,26.44-8.19,3.69-2,7.81-4.61,12.17-7.38,14.6-9.27,31.15-19.78,45.83-16.76l.75.15.59.48c2.81,2.29,4,5.33,5.07,8,.86,2.18,1.61,4.07,3,5.27,19.27,10.53,38.59,17.55,59,25,20,7.28,40.74,14.81,63.38,26.3l.28.16c38.77,25,45.6,84.12,33.46,115.65-1.65,6.85-5,11.6-10.09,14.13A21.77,21.77,0,0,1,414.22,477.43ZM283.89,429.58c9.4.14,18.11,4.57,26.54,8.86,5.2,2.65,10.11,5.15,15,6.58,6.5,1.91,13.43,3.51,20.13,5.06a276,276,0,0,1,27.07,7.23c3.13,1.07,6.92,2.73,10.93,4.48,12.09,5.28,28.64,12.52,37.74,8,3.42-1.71,5.67-5.05,6.87-10.2l.13-.42c6.11-15.7,6.87-37.13,2-57.33-5.4-22.61-17.07-40.7-32.87-51-22.25-11.28-42.73-18.73-62.54-25.93-20.76-7.55-40.37-14.67-60.13-25.5l-.4-.27c-2.89-2.23-4.11-5.32-5.19-8a15,15,0,0,0-2.69-5c-12.08-1.94-27.12,7.62-40.43,16.07-4.5,2.86-8.75,5.56-12.67,7.67l-.22.11c-7.8,3.44-17.36,5.93-27.49,8.57-18.9,4.92-38.43,10-48.05,21.6-3.21,5.81-1.94,17.09-.71,28,.8,7.11,1.63,14.47,1.25,20.66l0,.39-.12.37a4.53,4.53,0,0,0,.45,4.26c5.61,8.31,36.07,10.45,56.23,11.87,12.44.87,22.27,1.57,27.17,3.25s9.93,3.44,15,5.2C252.27,419.5,268.21,425.07,283.89,429.58Z"/></g><g id="g6407"><g id="path5910"><path d="M175.59,351.42a296.89,296.89,0,0,0,65.48-18.09c24.83-9.83,25.89-43,25.9-69.85,0-2.23,1.95-4.41,1.95-6.53,0,0-2.13-11.46-5.75-17.16-17.29-27.3-68.08-41.13-95.65-40.62-5.58.46-33.8-18.76-36.41-16.08-2.82,2.9,1.47,17.42,1.47,20.6,0,4.73,5.13,31.91,1,36.18-14,14.39-24.07,49.12-7.33,66.33,3.33,26.13,18.3,57.6,50.82,44.22"/><path class="cls-22" d="M162.4,356.72a29.63,29.63,0,0,1-15.14-4.06c-12.14-7.06-21.07-23.86-24-45.07-16.81-18.55-7-54.37,8.05-69.9,1.94-2.71-.3-20.27-1-26-.48-3.79-.83-6.53-.83-8a46.79,46.79,0,0,0-.79-4.71c-1.7-8.7-2.68-15.09.21-18.07s7.82-.45,21.76,7.16c5.79,3.16,14.54,7.94,16.67,8H169c29.22,0,79.43,14.65,96.81,42.09,3.89,6.14,6.09,17.77,6.18,18.26l.05.28v.29a10.78,10.78,0,0,1-1.23,4.46,7.11,7.11,0,0,0-.72,2.07c0,24.58,0,61.72-27.87,72.74a298,298,0,0,1-66.17,18.27l-.05-.34A40.1,40.1,0,0,1,162.4,356.72ZM133.26,186.27c-.16,2.87,1,9,1.53,11.51a37,37,0,0,1,.91,5.9c0,1,.38,4,.78,7.19,2.27,17.87,2.79,27.59-.68,31.16-13.3,13.68-22.44,46.46-7.33,62l.72.75.13,1c2.52,19.77,10.4,35.27,21.07,41.48,7.18,4.17,15.75,4.26,25.48.26l.27.65a296.45,296.45,0,0,0,63.75-17.74c22.1-8.75,24-37.88,24-67a11.25,11.25,0,0,1,1.26-4.61,10.29,10.29,0,0,0,.66-1.73c-.66-3.33-2.66-11.6-5.24-15.68-7.33-11.57-22.39-22-42.43-29.49-16.75-6.23-36.08-9.93-50.46-9.69-3.27.19-8.66-2.54-20-8.73C143,191,136.4,187.38,133.26,186.27Z"/></g><g id="path5902"><path d="M220.06,261.47c16-.48,58.5-35.89,38.6,5-1.64,3.37-1.48,10.31-4.89,12.06-1.24.64-2.78-.84-3.42-1.51-7.38-7.58-19.75-13.41-30.3-15.58Z"/><path class="cls-22" d="M253.12,281.83c-1.37,0-3.06-.63-5-2.62-6.4-6.58-17.93-12.48-28.69-14.7l.53-6.16c4.53-.13,12.54-4,19.62-7.37,11.65-5.59,20.85-10,25.45-5.38,3.41,3.43,2.35,10.09-3.57,22.25a20.23,20.23,0,0,0-1.06,3.83c-.8,3.67-1.7,7.84-5.2,9.64A4.52,4.52,0,0,1,253.12,281.83Zm-21.77-20.25c8.35,3.22,16.09,8,21.24,13.29l.3.3a21,21,0,0,0,1.43-4.81,23.83,23.83,0,0,1,1.54-5.23c6.17-12.7,4.79-15.07,4.73-15.17-2-1.17-12.63,3.9-18.32,6.63C238.6,258.36,234.87,260.15,231.35,261.58Z"/></g><g id="path5906"><path d="M137.47,196.14c2.7,9.67,19.06,25.64,19.06,35.17,0,2-3.91,0-5.86,0-1.36,0-8.37.94-9.28,0C139.5,229.38,140.36,203.56,137.47,196.14Z"/><path class="cls-22" d="M155.47,235.32a13.1,13.1,0,0,1-3.19-.54,11.82,11.82,0,0,0-1.62-.35c-.21,0-1,.07-1.65.12-5.67.48-8.32.53-9.86-1.07s-1.81-4.35-2.36-15.6c-.34-6.93-.76-15.4-1.87-19.54q-.25-.7-.44-1.37l5.9-2c.16.42.31.87.45,1.37,1.38,3.65,4.79,8.52,8.09,13.25,5.52,7.89,10.73,15.35,10.73,21.69a3.88,3.88,0,0,1-1.49,3.15A4.22,4.22,0,0,1,155.47,235.32Zm-11.69-6.69h0c1.45,0,3.7-.19,4.71-.28s1.72-.14,2.18-.14a9.86,9.86,0,0,1,2.24.31c-1.41-4.33-5.44-10.11-9.09-15.33l-1.12-1.6c.11,2,.21,4,.31,6C143.2,221.56,143.44,226.34,143.78,228.63Zm-1.1-.07"/></g><g id="path5913"><path d="M136.5,326.79c3.36,22.85,33,2-.49,2"/><path class="cls-22" d="M146,340.61c-5.12,0-11.1-3.43-12.56-13.36l2.59-.38v-1.17c15.3,0,18.72,4.26,18.89,7.83s-3.18,6.58-7.81,7C146.72,340.59,146.36,340.61,146,340.61Zm-4.25-8.44a5.38,5.38,0,0,0,3.2,2.11,4.93,4.93,0,0,0,3.35-.46C147.51,333.35,145.68,332.57,141.73,332.17Z"/></g><g id="path5915"><path d="M165.82,312.22c2.59-3.53,4.36-7,8.31-9,2.68-1.38,20.87,2.37,22.48,4,.33.34-3.37,3.47-3.42,3.52C184.23,319.91,173,306.66,165.82,312.22Z"/><path class="cls-22" d="M185.48,317.16a30.55,30.55,0,0,1-9.11-1.84c-4.17-1.32-6.82-2.05-8.66-.64l-4.41-4.3c.5-.68,1-1.35,1.41-2,2-2.94,4.12-6,8-8,.78-.4,2.87-1.48,13.65.58,7,1.33,11.18,2.69,12.48,4l.94,1,0,1.4c-.07,1.51-.85,2.5-4.4,5.57h0A13.25,13.25,0,0,1,185.48,317.16Zm-12.61-9.22a42,42,0,0,1,5.37,1.44c5.64,1.78,9.27,2.69,12.7-.84l.13-.12c-5.06-1.32-13.53-2.79-15.7-2.39A10.19,10.19,0,0,0,172.88,307.95Zm21.8,1.68Zm-19.4-3.58Z"/></g><g id="path5917"><path d="M145.29,298.15c-.54-13.46-24.48-34.78-11.24-7.54C135.91,294.43,142.61,294.47,145.29,298.15Z"/><path class="cls-22" d="M148.81,308.26l-6-8.27c-.78-1.06-2.5-1.79-4.33-2.56-2.68-1.13-5.71-2.4-7.19-5.45-5.17-10.64-5-14.2-3.11-16.29a4.44,4.44,0,0,1,5-1C138.47,276.6,148,288.87,148.4,298ZM134.15,283a65.67,65.67,0,0,0,2.71,6.23c.39.8,1.77,1.47,3.25,2.11A36.72,36.72,0,0,0,134.15,283Z"/></g><g id="path5919"><path d="M144.8,338.85c-1.09,17.57,27,11.18,33.23.5"/><path class="cls-22" d="M156.35,352.91a19.92,19.92,0,0,1-5.77-.79c-6.06-1.84-9.3-6.75-8.88-13.46l6.21.38c-.24,3.86,1.18,6.12,4.48,7.12,7,2.14,19.47-2.41,23-8.38l5.38,3.14C176.71,347.8,165.59,352.91,156.35,352.91Z"/></g><g id="path5923"><path d="M165.33,337.85c14.06,1.7,29.54,9.68,41.54,17.08"/><path class="cls-22" d="M205.23,357.58c-15.75-9.72-29.31-15.32-40.28-16.64l.75-6.18c11.87,1.43,26.27,7.33,42.8,17.53Z"/></g><g id="path5925"><path d="M161.91,338.35c12.64,11.8,27.46,21.47,44,27.13"/><path class="cls-22" d="M204.88,368.43c-16.05-5.5-31.22-14.86-45.09-27.8l4.25-4.55c13.23,12.35,27.65,21.25,42.87,26.47Z"/></g><g id="path5927"><path d="M132.59,328.3c-6.78-1.14-40.07,2.42-46.74,3.57"/><path class="cls-22" d="M86.37,334.93l-1.05-6.13c6.7-1.15,40.29-4.83,47.78-3.57l-1,6.14C125.9,330.33,93.38,333.73,86.37,334.93Z"/></g><g id="path5929"><path d="M133.08,324.28c-5.27.65-29.07-1.62-34.21-1.62"/><path class="cls-22" d="M130.29,327.51c-4.37,0-11.51-.47-20-1.06-4.93-.34-9.58-.67-11.39-.67v-6.22c2,0,6.57.32,11.83.68,8,.56,19,1.33,22,1l.76,6.18A27.58,27.58,0,0,1,130.29,327.51Z"/></g></g><g id="g6420"><g id="path5933"><path d="M227.65,385.84s-7.71,1-18.79,2.42c-24.45,3.25-65.29,11-75.87,27.56C116.54,436,125.31,453,145.63,456.64c13.72,2.9,24.75-8.95,34.72-15.72C196.14,430.21,329,422,345.92,423.11"/><path class="cls-22" d="M150,460.22a24,24,0,0,1-4.93-.52c-11.2-2-19.37-7.91-22.43-16.18-3.25-8.78-.46-19.26,7.86-29.53,6-9.26,24.49-21.72,78-28.82,11-1.46,18.74-2.42,18.82-2.43l.76,6.18c-.08,0-7.83,1-18.77,2.42-39.54,5.25-66.38,14.78-73.66,26.15l-.21.29c-7,8.53-9.43,16.9-7,23.57,2.28,6.16,8.75,10.62,17.74,12.23l.1,0c9.53,2,17.89-4.38,26-10.57,2.19-1.68,4.25-3.26,6.35-4.68C195.81,426.67,331,419,346.12,420l-.4,6.21c-8.35-.53-46.3,1.3-82.73,4.48-44.56,3.88-74.8,8.67-80.9,12.81-1.95,1.32-3.94,2.85-6.06,4.47C168.48,453.76,160,460.22,150,460.22Z"/></g><g id="path5935"><path d="M143.87,431.6c-6.27,6.71-8.9,13.79-6.37,23.09"/><path class="cls-22" d="M134.5,455.51c-2.66-9.74-.4-18,7.1-26l4.55,4.25c-6,6.46-7.73,12.49-5.64,20.15Z"/></g><g id="path5937"><path d="M159.45,436.73c-5.5,5.32-5.14,10.86-3,18.54"/><path class="cls-22" d="M153.4,456.09c-1.95-7.14-3.25-14.69,3.89-21.59l4.33,4.47c-4.33,4.19-4.16,8.33-2.21,15.49Z"/></g></g></g><g id="path5834"><path d="M503.66,458.82c8.32-42.1,124.93-3.94,120.68,16-1.79,8.37-110.72-8.56-120.68-16Z"/><path class="cls-22" d="M612.91,479.85c-16,0-42.21-3.74-51.61-5.16C537.57,471.1,507.81,465.37,502,461l-1.39-1,.34-1.7c1.73-8.73,7.86-15.1,17.74-18.42,28.57-9.57,84.72,7.61,102.41,23.4,4.74,4.23,6.73,8.32,5.92,12.14-.22,1-1,2.42-3.25,3.28S617.69,479.85,612.91,479.85ZM506.84,457.44c6.43,2.82,28,7.76,57.29,12.11,36.4,5.4,53.92,5.42,57.56,4.06-.08-1.64-1.59-3.87-4.25-6.24-16.39-14.63-70.5-31.17-97-22.28C513.21,447.51,508.64,451.66,506.84,457.44Z"/></g><g id="path5832"><path d="M378.22,509.12c75.31,36.36,148.56,16.1,228.54,8.72,28.55-7.48,53.28,5.66,77.66,11.15,24.89,5.61,30.87-46.55,7.74-57.17-53.14-24.42-115.33-3.66-167.75-9-18,0-98.35-41.69-103.77-28.06-6.73,16.91-25.66,76.07-42.42,74.36Z"/><path class="cls-22" d="M477,532.77c-33.37,0-66.4-5.1-100-21.31l1.4-4.94c2.83.29,9.06-2.16,19-21.81,6.78-13.38,12.74-29.53,17.1-41.33,1.42-3.83,2.64-7.15,3.61-9.59,3.93-9.88,27-1.75,64.52,12.82,17.2,6.68,35,13.58,41.68,13.6h.26c18.81,1.92,38.63.45,59.61-1.1,36.63-2.71,74.5-5.51,109,10.33,7.15,3.29,12.38,10.39,14.71,20a48.69,48.69,0,0,1-1,26c-4.19,12.37-12.81,18.37-23.09,16.05-6.36-1.43-12.84-3.41-19.1-5.32-18.1-5.52-36.82-11.23-57.32-5.86l-.42.07c-15.5,1.43-30.93,3.37-45.85,5.24C532.56,529.27,504.69,532.77,477,532.77Zm-91.59-23.18c57.87,25.63,114.84,18.47,175,10.91,14.89-1.87,30.29-3.81,45.8-5.24,21.85-5.65,41.22.25,60,6,6.46,2,12.56,3.83,18.73,5.22,10.67,2.41,15.44-8,17-12.63,6-17.65-1-35-10.92-39.63-33.23-15.27-70.43-12.52-106.4-9.86-21.17,1.57-41.18,3-60.4,1.1-7.72-.09-24.27-6.52-43.42-14-13.84-5.37-28.15-10.93-39.47-14.15-16.83-4.8-18.26-1.73-18.32-1.6-.95,2.39-2.16,5.67-3.56,9.47C409.36,472.66,397.77,501.57,385.46,509.59Z"/></g><g id="path5830"><path d="M361,378.42c-22.74-33.18,184.07,65.72,135.27,75.87-9.54,2-32.64-18.62-46.81-9.61-30.25,19.24-51.24,98.56-97.53,74.72"/><path class="cls-22" d="M368.69,526.62a39,39,0,0,1-18-4.76l2.52-4.89c12.7,6.54,24,5.34,35.63-3.79,10.62-8.35,20-22.13,29-35.47,9.91-14.61,19.26-28.42,30.15-35.34,9.9-6.3,22.93-.29,33.39,4.53,5.65,2.6,11.5,5.3,14.33,4.71,3.11-.65,5-1.7,5.26-2.9s0-7.33-24.5-23.57c-18.18-12-44.86-26.18-69.62-36.89-30.89-13.36-42.4-14.45-44.78-13.68a8.25,8.25,0,0,0,1.22,2.3L358.78,380c-2.52-3.68-2.92-6.64-1.18-8.81,1.47-1.83,5.36-6.68,41.72,7.94A519.74,519.74,0,0,1,469.15,414c9.5,5.75,38.41,23.27,37.37,35-.25,2.78-2.12,6.42-9.64,8-4.61,1-10.7-1.85-17.76-5.1-9.73-4.49-20.77-9.57-28.13-4.89-9.93,6.32-19,19.66-28.55,33.79C407.69,502.54,391.37,526.62,368.69,526.62Z"/></g><g id="g6383"><g id="path5802"><path d="M248,424.92c19.7-17.85,31.77-25.23,37.07-42.33,2.52-8.12.2-22.42,2.59-33.65.53-2.47,44.56,7,47.83,9.4,41.4,31,60.71,65.83,48.79,121.69-13.47,63.12-124.52,57.81-138.12-7.55-1.62-7.78-49.76-21.84-45.55-29.23,6.22-10.92,37.74-14.85,47.39-18.33Z"/><path class="cls-22" d="M320,527.3h-.25c-17.33,0-34.31-4.9-47.81-13.68C256.82,503.79,247,489.76,243.51,473c-1-2.48-13.47-8.24-20.94-11.68-14.31-6.59-23.16-10.86-24.68-15.62a4.69,4.69,0,0,1,.37-3.85c5.17-9.07,23.24-13.28,37.76-16.66,4.35-1,8.15-1.9,10.59-2.72,3.77-3.41,7.31-6.48,10.45-9.2,13.35-11.58,21.41-18.57,25.43-31.53,1.15-3.73,1.19-9.26,1.22-15.12,0-6.14.07-12.48,1.31-18.29a3.09,3.09,0,0,1,2-2.25c5.05-1.9,46.4,7.21,50.16,10,46.16,34.58,61.07,71.8,49.83,124.46C381,509,354.66,527.29,320,527.3Zm-116.76-83c1.53,2.8,14.06,8.57,21.64,12.06,14.69,6.76,23,10.82,24,15.56,7.11,34.16,41.71,49.81,70.86,49.88h.2c24.33,0,55-11.08,61.67-42.35,5.66-26.53,4.28-48.93-4.23-68.49-7.85-18-21.68-34.06-43.52-50.42-3-1.81-35.84-9.09-43.81-9.29a100.68,100.68,0,0,0-.86,15.44c0,6.28-.07,12.21-1.47,16.72-4.48,14.46-13.47,22.26-27.08,34.06-3.23,2.8-6.89,6-10.77,9.5l-.4.37-.51.18c-2.71,1-6.88,1.95-11.71,3.07C225.4,433.34,207.56,437.5,203.23,444.29Z"/></g><path d="M327.45,437.42c-28.74,30.43,6.47,31.07,0,0Z"/><path class="cls-22" d="M319.16,463.55a5.91,5.91,0,0,1-5-2.53c-1.69-2.42-4-9.77,11-25.7l4-4.26,1.19,5.74c3,14.22-2.13,23.47-8.11,26.06A8.05,8.05,0,0,1,319.16,463.55Zm0-6.12h0a3.73,3.73,0,0,0,2.23-1.22c2-1.94,3.82-5.82,3.79-11.54C319,452.49,318.75,456.56,319.16,457.43Z"/><path class="cls-22" d="M293.39,480.19c-11.95-.55-18.63,3.62-20,8a4.93,4.93,0,0,0,2.14,5.83,6.55,6.55,0,0,0,3.44.89c4.33,0,10.16-3.32,16.39-9.48l5-4.91ZM291,484.52c-15.17,15-19.88-.87-.89,0Z"/><path class="cls-23" d="M307.22,509.37c21.83,16.35,23.58-21.82,0,0Z"/><g id="path5814"><path d="M355.76,501.69c-4.18,7.34-10.8,16.38-27.18,12.91,1.51,9.67-3.13,12.42-5.29,15.61"/><path class="cls-22" d="M325.57,531.76,321,528.67a24.34,24.34,0,0,1,1.64-2.08c2.08-2.46,4.24-5,3.21-11.57l-.62-3.94,3.91.83c14.52,3.07,20.12-4.37,24.22-11.58l4.78,2.72c-2.94,5.16-9.56,16.79-26.53,14.84.08,6.55-2.78,9.92-4.77,12.27A20.06,20.06,0,0,0,325.57,531.76Z"/></g><g id="path5816"><path class="cls-22" d="M340.39,496.17l-4.28-3.46c15.06-18.67,36.66-25.34,59.54-32.4,6.6-2,13.42-4.14,20.15-6.57l1.87,5.18c-6.85,2.47-13.74,4.59-20.4,6.65C375.22,472.38,354.39,478.81,340.39,496.17Z"/></g><g id="path5818"><path d="M344.87,495.49c16.61-7.65,38.13-12.26,54.68-9"/><path class="cls-22" d="M346,498l-2.3-5c14.94-6.88,37.59-12.9,56.37-9.16l-1.08,5.4C384.38,486.31,364.08,489.67,346,498Z"/></g><g id="path5820"><path d="M309.45,515c-10.38,5.94-18.09,12.63-23,22.92"/><path class="cls-22" d="M289,539.05l-5-2.35c4.65-9.82,12.08-17.27,24.09-24.13l2.73,4.78C299.69,523.7,293.16,530.19,289,539.05Z"/></g><g id="path5822"><path d="M312.7,520.32c-3.51,7.19-5.59,17-6.91,23.21"/><path class="cls-22" d="M308.48,544.1,303.1,543l0-.23c1.38-6.45,3.46-16.2,7.07-23.61l4.95,2.42c-3.32,6.8-5.32,16.15-6.64,22.34Z"/></g><g id="path5824"><path d="M310.45,362.67c77.41,30.75,4.54,15.27,2.61,17.43,0,0-10.61-2.3-14.51.45C288.44,348.65,299.9,358.48,310.45,362.67Z"/><path class="cls-22" d="M297.06,385l-1.14-3.58c-5.45-17.2-4.68-22.39-1.84-24.88,3.27-2.87,8-.65,13.06,1.7,1.43.67,2.9,1.36,4.32,1.92,13,5.18,22.64,9.38,28.55,12.5,6.07,3.2,9.42,5.68,8.63,8.87-1.08,4.29-7.65,4-24.78,2-3.46-.39-7.66-.87-9.36-.88l-.45.5-1.57-.34c-3.81-.82-10.36-1.39-12.34,0Zm17.41-7.83c1.91,0,4.91.33,10,.91,4.53.51,12,1.36,16.37,1.36h0c-3.57-2.2-11.91-6.41-31.42-14.16h0c-1.57-.62-3.12-1.35-4.61-2-2.26-1.06-6-2.81-7.12-2.52-.26.4-1.34,3,2.61,16.24,4.42-1,10.16-.12,12.55.35A8.93,8.93,0,0,1,314.47,377.13Z"/></g><g id="path5826"><path d="M250.58,447.37c-24.68-16.84-42.08-4.18-34.08-.14l24.68,12.47C244.88,461.57,247.38,453,250.58,447.37Z"/><path class="cls-22" d="M242.21,462.72a5,5,0,0,1-2.27-.56l-24.68-12.47a5.72,5.72,0,0,1-3.48-5c0-2.44,1.67-4.75,4.67-6.36,6.67-3.58,20-4,35.69,6.74l2.1,1.43-1.26,2.2c-.76,1.34-1.52,2.93-2.24,4.46-2.09,4.4-3.89,8.21-7,9.26A4.82,4.82,0,0,1,242.21,462.72Zm-24.84-18.17a2.41,2.41,0,0,0,.37.23l24.43,12.34c1-.83,2.6-4.21,3.59-6.28.4-.84.8-1.69,1.22-2.53-11.48-7.17-21.2-7.7-26.64-5.67A6.15,6.15,0,0,0,217.37,444.55Z"/></g></g></g><g id="layer6"><g id="path6025"><path d="M656.13,358.06c-13.59-.82-58.31-2-67.63-9-.92-.69-13.05-4.88-13.17-4.72-.39.55,6.07,4.55,6.62,5.16,4.28,4.72-6.35,9.74-3.1,16.08,4.73,9.2,6.76,18.82,2.07,25.41-2.56,4.29-10.51,18.58-9.82,22.88.08.51,10-3.6,10.68-3.89,4.66-2,11.71-4.49,15.88-7.51,9-6.55,34.18-11.58,38.85-15.55,8.85-7,15.76-19.08,19.6-28.89Z"/><path class="cls-22" d="M571.06,416.33A2,2,0,0,1,570,416l-1-.56-.21-1.18c-.91-5.62,8.28-21.39,10.13-24.49l.11-.16c4.82-6.77.66-17.26-2.25-22.92-2.27-4.41.23-8.25,2.06-11.06,1.94-3,2.09-3.69,1.46-4.43-.28-.22-1.13-.81-1.82-1.28-4.22-2.89-5.23-3.71-5.47-5.06l-.18-1,.6-.9a2.43,2.43,0,0,1,1.59-1c.64-.1.93-.15,7.56,2.19s7.08,2.74,7.41,3c7.52,5.59,44,7.38,59.56,8.15,2.7.13,5,.25,6.79.35l3.29.2-1.2,3.07c-1.83,4.69-8.72,20.69-20.35,29.89-2.29,1.95-7.67,3.73-16.24,6.47s-18,5.77-22.7,9.14c-3.52,2.54-8.63,4.62-13.14,6.45-1.14.47-2.23.91-3.21,1.32C574.95,415.52,572.3,416.33,571.06,416.33Zm11.88-24c-3.74,6.28-7.51,13.85-8.91,18.2,2.43-.92,5.55-2.19,6.82-2.73,1-.43,2.12-.88,3.29-1.36,4-1.64,9.08-3.68,12.13-5.89,5.27-3.81,15.25-7,24-9.82,6.35-2,12.91-4.13,14.66-5.61,6.63-5.25,13.07-14.37,17.64-24.84l-3.37-.17c-25.78-1.27-54-3.12-62.09-9-.31-.16-1.06-.46-2-.84,1,3-1,5.93-2.31,8-1.91,2.93-2.71,4.5-1.81,6.25C586.93,376.07,587.61,385.68,582.94,392.32ZM587.06,351l0,0Z"/></g><g id="g6338"><g id="path6027"><path d="M547.43,317.6c-11.34-1.28-22.38,1.17-33,4.6-11.12,4.28-27.37,7.09-39,8.28-9.89.7-19.39-4.46-29-3.78-10.59-.07,6.61,27,9.31,31.46,3.36,18.42,1.23,30.3,2.76,40.82,2.5,8.07,6.93,17.69,14.17,21.68,4.38,4.76,29.17,6.17,39.13,15.28,11.38,7.47,21.54,10.46,31.91,1.81,2.64-2.21,7.87-3.67,9.82-6.82,1.53-2.48,7.55-2.89,9.12-4.64,1.77-2.22,4.72-1.65,6.77-3.36.86-.72,10.11-9.45,10.68-10.75.23-.52,8.75-10.41,10.59-11.55,6-8.1,4.95-21.88-.11-45.49-4.75-4.59-9.38-12.18-7.43-18.78.87-6.62,2-12,1.36-18.24-1-7.92-3.17-25.68-14.26-16.42-11.08,4.9-12.9,11-22.79,15.91Z"/><path class="cls-22" d="M530.34,445.45c-7.1,0-13.83-3.53-19.88-7.5l-.3-.24c-5.27-4.82-15.7-7.47-24.09-9.61-7.15-1.82-12.4-3.15-14.89-5.52-7.92-4.57-12.52-14.95-15-22.9l-.08-.37a101.15,101.15,0,0,1-.69-14,143.22,143.22,0,0,0-2-26.29l-.24-.39c-10.71-17.4-14.35-27.18-11.8-31.71a5.33,5.33,0,0,1,4.93-2.64c5.1-.35,10.08.82,14.9,1.94s9.38,2.19,14,1.85c11.3-1.15,27.36-3.89,38.35-8.12l.12,0c8.94-2.89,20.76-6,33.28-4.78a41.53,41.53,0,0,0,9.27-6.79,45.2,45.2,0,0,1,12.7-8.71c3.4-2.75,6.54-3.58,9.35-2.48,6.23,2.44,7.67,13.69,8.53,20.42l0,.24c.57,5.42-.12,10.15-.84,15.16-.17,1.19-.35,2.42-.52,3.7l-.08.37c-1.56,5.28,2.29,12,6.79,16.38l.53.51.15.72c6.54,30.55,4.84,40.53-.32,47.43l-.27.37-.39.24c-1.41.94-8.91,9.47-9.81,10.77a1.58,1.58,0,0,0,.17-.31c-.93,2.14-11.24,11.55-11.34,11.63a10.16,10.16,0,0,1-4,1.85,4.39,4.39,0,0,0-2.43,1.16l-.09.11c-1.12,1.25-3,1.86-4.95,2.5-1.32.43-3.52,1.15-3.92,1.79-1.55,2.51-4.4,4-6.91,5.35a21.38,21.38,0,0,0-3.41,2.06C540.15,443.82,535.16,445.45,530.34,445.45ZM513.24,434c12.57,8.21,20.68,8.73,28.9,1.87a24.83,24.83,0,0,1,4.24-2.61c2.07-1.1,4.21-2.23,5.08-3.63,1.32-2.14,4.08-3,6.51-3.83a13.52,13.52,0,0,0,2.86-1.14,8.71,8.71,0,0,1,4.8-2.68,6.12,6.12,0,0,0,2.23-.92c1-.82,9.22-8.68,10.1-10a1.08,1.08,0,0,0-.09.17c.54-1.24,8.43-10.13,11-12.28,5.44-7.63,3.93-21.45-.56-42.6-4.92-5-9.65-13.09-7.59-20.47.16-1.23.33-2.42.5-3.58.71-4.91,1.33-9.15.82-13.91l0-.19c-.53-4.14-1.94-15.15-5.52-16.56-1.4-.55-3.38.74-4.79,1.92l-.26.22-.31.14a40.45,40.45,0,0,0-11.74,8,45.14,45.14,0,0,1-11,7.83l-.63.31-.7-.08c-11.84-1.33-23.27,1.69-31.92,4.48-11.43,4.39-27.94,7.22-39.6,8.4-5.42.38-10.54-.81-15.5-2-4.71-1.09-9.16-2.13-13.56-1.82h-.19c-.21,0-.71,0-.81.19-.38.68-1.62,5.17,11.71,26.83l.71,1.16.08.44a146.52,146.52,0,0,1,2.13,27.56,99.72,99.72,0,0,0,.61,13.15c2.25,7.19,6.32,16.44,13,20.11l.34.19.26.29c1.38,1.5,7.47,3.05,12.84,4.42C496.08,425.7,507.06,428.49,513.24,434Z"/></g><g id="path6009"><path d="M537.72,415.88c-3-.54-21.12,1.92-18.6,5C520.2,422.19,530,429.27,531,429,533.89,428.36,540.11,418.07,537.72,415.88Z"/><path class="cls-22" d="M530.93,431.45c-.91,0-2.45-.61-7.22-4-.54-.38-5.35-3.77-6.45-5.11a3.22,3.22,0,0,1-.33-3.75c2.47-4.21,18.88-5.54,21.21-5.12l.68.12.51.47c.9.83,1.81,2.46,1,5.57-1.06,4-5.29,10.88-8.74,11.68A2.77,2.77,0,0,1,530.93,431.45Zm.51-4.77Zm-9.07-6.13a82.51,82.51,0,0,0,8.49,5.87c1.69-1.32,4.38-5.89,4.91-8.2a58.55,58.55,0,0,0-6.84.76A38.08,38.08,0,0,0,522.38,420.55Z"/></g><g id="path6011"><path d="M512,397.88c-.09-9.81-16.4-19.07-22.26-9.57-.65,1.05-.38,2.15,0,3.41,2,6.69,11.56,9.46,15.58,8.36,3.19-.88,4.22-2.25,7.69-2.35"/><path class="cls-22" d="M503.33,402.7c-5.54,0-13.81-3.35-15.88-10.3a6.2,6.2,0,0,1,.26-5.35c2.72-4.4,7.67-6.11,13.26-4.55,6.56,1.83,13.38,8.07,13.45,15.36H513l.07,2.25a8.54,8.54,0,0,0-3.8,1,21.19,21.19,0,0,1-3.32,1.25A10.07,10.07,0,0,1,503.33,402.7Zm-6.36-16a5.74,5.74,0,0,0-5.17,2.84c-.12.19.13,1,.26,1.47,1.59,5.35,9.79,7.5,12.65,6.73a16.76,16.76,0,0,0,2.62-1,20.64,20.64,0,0,1,2-.82c-1.15-4.06-5.54-7.68-9.65-8.82A10.25,10.25,0,0,0,497,386.72Z"/></g><g id="path6013"><path d="M540.56,392.85c-2.86-11.89,7.7-22.47,18.93-16.72,4.5,2.3.44,10.65-6.1,14.1C548.55,393.21,544.13,390.65,540.56,392.85Z"/><path class="cls-22" d="M539,396.64l-.77-3.22a17.7,17.7,0,0,1,5.84-18.11A15,15,0,0,1,560.59,374a5.89,5.89,0,0,1,3.21,5.4c0,4.48-4,10.15-9.21,12.92a15.23,15.23,0,0,1-8.57,1.92c-1.74,0-3.12,0-4.19.66Zm14.14-19.71a9.75,9.75,0,0,0-6.1,2.15,12.54,12.54,0,0,0-4.53,10.57c3.49-.59,6.53.45,9.62-1.45l.14-.08c4-2.1,6.74-6.26,6.72-8.68,0-.79-.3-1-.6-1.16A11.53,11.53,0,0,0,553.14,376.93Z"/></g><g id="path6015"><path d="M483.39,341c-3.26-4.05-8.77-6.08-13.73-7.58a43.79,43.79,0,0,0-8.58-1.32c-2.67-.26-11.44-1.92-13.4-.28-1.47,1.23,2.21,6,2.59,7,2.34,6.05,13,27.38,18.84,25.11,5.37-2.09,6.46-12.28,10.64-15.77.82-.69,3.74-6.16,3.64-7.17Z"/><path class="cls-22" d="M468.2,366.52a6,6,0,0,1-2.44-.55c-7.45-3.28-16.39-22.81-17.73-26.26,0-.08-.33-.55-.54-.89-1.62-2.62-4.06-6.57-1.35-8.83,2-1.69,6-1.5,13.11-.53.85.12,1.56.22,2.06.26l.88.08a41,41,0,0,1,8.17,1.33c5.61,1.7,11.3,3.89,14.9,8.37l.44.55.07.7c.23,2.17-3.44,8.39-4.49,9.26-1.39,1.16-2.54,3.75-3.65,6.26-1.73,3.92-3.7,8.35-7.65,9.89A4.89,4.89,0,0,1,468.2,366.52Zm-18.17-33a29.07,29.07,0,0,0,1.55,2.75,11.13,11.13,0,0,1,.94,1.68c2.7,7,10.72,21.63,15.19,23.6a1.09,1.09,0,0,0,.54.14c2.11-.82,3.58-4.15,5-7.37,1.32-3,2.68-6.05,4.88-7.93a29.14,29.14,0,0,0,2.6-4.77c-2.86-2.91-7.32-4.56-11.77-5.91a36.72,36.72,0,0,0-7.22-1.15l-.89-.08c-.54-.05-1.32-.16-2.25-.29A52.18,52.18,0,0,0,450,333.55Zm28.19,12.8,0,0Zm2.8-5.49Zm-31.9-7.1h0Z"/></g><g id="path6017"><path d="M574.58,347c-4.92.56-8.69-2.05-12.52-4.46-2.48-1.56-4.86-2.12-6.73-4.4a21,21,0,0,1-2.65-4.52c-2.24-5.79-2.25-11,2.48-16.3,6-4.21,9.61-7.33,14-9.65,1.74-1.51,7.12-6.13,8.92-3.94,2.42,2.94,1.6,9.67,2.23,13.74.87,5.7-1.47,10.71-2,16.1-.36,4-1.06,10.47-3.71,13.42Z"/><path class="cls-22" d="M573.24,349.49c-4.7,0-8.45-2.37-11.8-4.49l-.66-.42c-.71-.44-1.42-.8-2.17-1.18a14.38,14.38,0,0,1-5.14-3.72,23.43,23.43,0,0,1-3-5.18c-1.79-4.63-3.43-11.6,2.93-18.76l.19-.21.23-.16c2-1.38,3.71-2.67,5.24-3.81a75.37,75.37,0,0,1,8.72-5.87c4.17-3.59,7.06-5.1,9.35-4.91a3.94,3.94,0,0,1,2.79,1.44c2.18,2.65,2.33,7,2.47,10.78a38.68,38.68,0,0,0,.28,4.13c.62,4.06-.18,7.68-1,11.18a43.7,43.7,0,0,0-1,5.5c-.53,5.79-1.42,11.59-4.32,14.81l-.61.68-.9.1A14.11,14.11,0,0,1,573.24,349.49Zm-16.46-30.35c-3.5,4-4,8-1.86,13.63a18.81,18.81,0,0,0,2.26,3.86,10.13,10.13,0,0,0,3.6,2.49c.78.39,1.66.84,2.56,1.4l.67.42c3.16,2,5.92,3.75,9.22,3.75h.1c1.81-2.9,2.36-8.93,2.57-11.32a48.09,48.09,0,0,1,1.08-6.1c.71-3.21,1.39-6.24.9-9.41a41.78,41.78,0,0,1-.33-4.68c-.09-2.68-.21-6-1.14-7.55-.61.16-2.24.86-5.73,3.88l-.2.18-.24.13a68.74,68.74,0,0,0-8.37,5.62C560.38,316.54,558.69,317.79,556.77,319.14Z"/></g><g id="path6035"><path d="M547.14,433.94c-3.07,1.9-15.24,4-15.09-3.91-2.49,6.17-8.64,15.31-15.83,8.72"/><path class="cls-22" d="M521.3,443.44a9.82,9.82,0,0,1-6.7-2.91l3.24-3.54c2.21,2,3.72,1.68,4.22,1.57,3-.68,6.08-5.22,7.77-9.42l4.62.95a2.43,2.43,0,0,0,1.24,2.49c2.73,1.56,8.56.33,10.19-.67L548.4,436c-2.68,1.65-10.43,3.42-15.09.76a7.49,7.49,0,0,1-1.43-1.05c-1.93,3.15-4.87,6.66-8.77,7.55A8.24,8.24,0,0,1,521.3,443.44Z"/></g><g id="path6037"><path d="M548.73,416.48c19.57-9.95,40-6,61.33-3.94"/><path class="cls-22" d="M549.82,418.62l-2.17-4.28c17.72-9,35.63-7.08,54.6-5,2.67.29,5.35.58,8,.84l-.46,4.78c-2.72-.26-5.42-.55-8.11-.84C583.5,412.12,566.28,410.26,549.82,418.62Z"/></g><g id="path6039"><path d="M551.55,421.26a121.54,121.54,0,0,1,42.17-3.33"/><path class="cls-22" d="M552.15,423.58,551,418.93a124.67,124.67,0,0,1,43-3.39l-.46,4.78A119.89,119.89,0,0,0,552.15,423.58Z"/></g><g id="path6041"><path class="cls-22" d="M479.32,442.59l-3.88-2.83c9.24-12.69,16.69-20.7,35.19-16.63l-1,4.69C493.55,424.29,487.91,430.79,479.32,442.59Z"/></g><g id="path6043"><path class="cls-22" d="M489.19,443.41l-2.52-4.08c1.45-.89,2.88-1.82,4.31-2.75,7.12-4.61,14.48-9.37,23.91-10.15l.4,4.78c-8.23.68-14.77,4.92-21.7,9.4C492.13,441.55,490.67,442.5,489.19,443.41Z"/></g></g><g id="g6351"><g id="path6019"><path d="M647.67,384.88c-5.85-7.12-4.5-9.43-2.39-16.2,13.59-43.68,68-12.23,41.11,1.43-7.43,3.77-15.18,6.15-22.48,9.86-5.86,3-10,3.74-16.24,4.91Z"/><path class="cls-22" d="M646.72,387.51l-.9-1.1c-6-7.31-5.28-10.7-3.25-17.08L643,368c7-22.56,23.39-24.3,30.1-24,11.13.5,21.15,7,22.83,14.71.68,3.13.48,9-8.44,13.58-3.82,1.94-7.73,3.52-11.52,5.06s-7.42,3-11,4.8c-6.09,3.09-10.52,3.93-16.66,5.09Zm25-38.77c-15.92,0-22.14,14.37-24.1,20.66l-.44,1.38c-1.63,5.11-2.15,6.74,1.51,11.48,5.31-1,9.07-1.83,14.18-4.43,3.73-1.89,7.6-3.46,11.34-5s7.51-3,11.15-4.89c3.17-1.61,6.77-4.35,5.92-8.29-1.06-4.93-8.69-10.49-18.35-10.92Z"/></g><g id="path6332"><path class="cls-22" d="M659.09,383.56C657,379.38,655.9,376.14,656,371l5,0c0,4.2.81,6.67,2.62,10.31Z"/></g><g id="path6334"><path class="cls-22" d="M677.19,373.74l-.27-1c-.83-3.24-1.55-6-4.33-9.45l3.86-3.14c3.47,4.26,4.39,7.87,5.29,11.36l.26,1Z"/></g><g id="path6336"><path class="cls-22" d="M669.37,378.8l-.34-1.16a45.14,45.14,0,0,0-3.88-10.12l4.32-2.47a49.1,49.1,0,0,1,4.34,11.21l.33,1.14Z"/></g></g></g></g></g></svg>