<?xml version="1.0" encoding="utf-8"?>
<!-- Generator: Adobe Illustrator 26.5.0, SVG Export Plug-In . SVG Version: 6.00 Build 0)  -->
<svg version="1.1" id="Layer_1" xmlns="http://www.w3.org/2000/svg" xmlns:xlink="http://www.w3.org/1999/xlink" x="0px" y="0px"
	 viewBox="0 0 2521 2911" style="enable-background:new 0 0 2521 2911;" xml:space="preserve">
<style type="text/css">
	.st0{fill:#523F2D;}
	.st1{fill:#A75F33;}
	.st2{fill:#BE7641;}
	.st3{opacity:0.15;}
	.st4{fill:#603912;}
	.st5{fill:#DBA976;}
	.st6{fill:#BE8F63;}
	.st7{opacity:0.39;}
	.st8{fill:#FFFFFF;}
	.st9{opacity:0.4;}
	.st10{opacity:0.628;}
	.st11{opacity:0.6;}
	.st12{clip-path:url(#SVGID_00000175315098625779632220000009903608990856185780_);}
	.st13{clip-path:url(#SVGID_00000049216745432109895160000015333308528343147144_);}
	.st14{fill:#B06333;}
	.st15{fill:#666666;}
</style>
<g>
	<path class="st0" d="M2420.6,669.7l-953.1-550.2L1260.6,0l-206.9,119.5L100.5,669.8L0,727.8v1455.5l100.5,58l965,557.1l195,112.6
		l195-112.6l964.9-557.1l100.5-58V727.8L2420.6,669.7z M1260.6,2798.4l-1160-669.7v-883.6l2320.1-47.8v931.4L1260.6,2798.4z"/>
	<polygon class="st0" points="100.5,1245.1 100.5,2128.7 1260.6,2798.4 2420.6,2128.7 2420.6,1197.3 	"/>
</g>
<g>
	<polygon class="st1" points="1256.3,524.1 2423.1,1206.9 2392.8,2162.6 1256.3,1674.3 	"/>
	<polygon class="st2" points="1256.3,524.1 1256.3,1674.3 114.2,2188.4 100.5,1192.8 	"/>
	<g class="st3">
		<polygon class="st4" points="1256.3,524.1 1258.3,779 1258.3,906.9 1258.3,1162.7 1258.3,1418.5 1258.3,1546.4 1256.3,1674.3 
			1254.1,1546.4 1254.1,1418.5 1254.1,1162.7 1254.1,906.9 1254.1,779 		"/>
		<polygon class="st4" points="1256.3,1674.3 1399.4,1752.2 1541.4,1831.9 1825.6,1991.5 2109.7,2151 2251.8,2230.7 2372.1,2164.8 
			2249.7,2234.5 2107.7,2154.7 1823.6,1995.2 1539.4,1835.7 1397.4,1755.9 		"/>
		<polygon class="st4" points="1256.3,1674.3 1114.5,1753.5 971.7,1830.8 686.2,1985.3 400.7,2139.9 258,2217.2 114.2,2188.4 
			256,2213.4 398.8,2136.1 684.3,1981.6 969.8,1827 1112.5,1749.7 		"/>
	</g>
	<polygon class="st5" points="1256.3,1813.4 1256.3,2857 2436.7,2140 2423.1,1206.9 	"/>
	<polygon class="st6" points="1256.3,2857 68.1,2153.5 100.5,1192.8 1256.3,1813.4 	"/>
	<g class="st7">
		<polygon class="st8" points="1256.3,1813.4 1258.3,1956.9 1258.3,2100.4 1258.3,2387.3 1258.3,2674.3 1258.3,2817.7 1256.3,2857 
			1254.1,2817.7 1254.1,2674.3 1254.1,2387.3 1254.1,2100.4 1254.1,1956.9 		"/>
	</g>
	<g class="st9">
		<polygon class="st8" points="1256.3,524.1 1403.1,607 1548.9,692.4 1840.6,863.1 2132.3,1033.8 2278.1,1119.2 2423.1,1206.9 
			2276.4,1123.9 2130.5,1038.6 1838.8,867.9 1547.1,697.2 1401.3,611.8 		"/>
		<polygon class="st8" points="100.5,1192.8 245.9,1268.5 390.4,1346.1 679.3,1501.2 968.3,1656.4 1112.7,1734 1256.3,1813.4 
			1110.8,1737.8 966.3,1660.2 677.4,1505 388.5,1349.9 244,1272.3 		"/>
		<polygon class="st8" points="1256.3,1813.4 1401.2,1735.7 1547.1,1659.9 1838.8,1508.3 2130.4,1356.6 2276.3,1280.8 
			2423.1,1206.9 2278.2,1284.6 2132.3,1360.4 1840.6,1512.1 1549,1663.7 1403.1,1739.5 		"/>
		<polygon class="st8" points="1256.3,524.1 1112.6,609.7 968.2,692.8 679.2,859.2 390.3,1025.6 245.8,1108.8 100.6,1192.8 
			244.1,1104 388.6,1020.8 677.5,854.4 966.4,688.1 1110.9,604.9 		"/>
	</g>
</g>
<g id="text8207_2_" transform="matrix(0.55542846,0,0,0.55126427,-671.42844,-262.9678)" class="st10">
	<path id="path8212_2_" d="M2364.9,3923.8l5.8,385.9l71.6,41.4l-5.5-389.5l86.5,45.5l-0.9-67.3l-86.5-44.8l-0.9-64
		c-0.3-20.2,4.4-31.4,14-33.6c9.7-2.2,23.4,1.1,41.4,10.1c6.4,3.2,13.4,7.3,21,12.3c7.6,4.4,14.6,9.4,21.1,15.1l-0.8-66.8
		c-7.1-5.9-15.3-11.7-24.6-17.5c-8.7-5.5-16.6-10-23.6-13.4c-40.3-19.9-70.7-25.2-91.4-16c-20,8.8-29.7,31.7-29.1,68.7l1,67.8
		l-72.3-37.4l1.1,65.3L2364.9,3923.8L2364.9,3923.8"/>
	<path id="path8214_2_" d="M2648.6,4239.2c-0.3-28.4,3-51.5,10-69.4c7.6-18.2,18-31.4,31.2-39.5c13.3-8.1,28.8-11.5,46.5-10
		c18.5,1.8,38,8.1,58.6,18.9c20.7,10.9,40.3,25.2,58.8,42.9c19.2,18.2,35.9,38.8,50.2,61.9c14.3,23.2,25.4,48.5,33.4,75.8
		c8.6,27.1,13,55.4,13.2,84.8s-3.8,53.3-12.1,71.7c-7.6,18.1-18.4,30.9-32.4,38.5c-14,6.9-30.4,8.9-49.4,6.1
		c-18.2-2.4-37.7-9.6-58.3-21.4c-20.5-11.7-40-26.8-58.6-45.2c-17.8-18-33.5-38-47-60.1c-13.5-22.6-24.3-47-32.3-73.1
		C2652.8,4294.9,2648.9,4267.5,2648.6,4239.2L2648.6,4239.2 M2568.3,4195.2c0.4,34,5.5,68.3,15.3,102.8
		c9.8,34.6,24.3,68.3,43.6,101.3c19.4,32.5,43.3,63.3,71.8,92.3c28.8,28.6,62,53.9,99.8,75.8c38.8,22.5,72.9,36.1,102.1,40.7
		c30.1,4.4,55.5,1.4,76.2-9.2c20.8-11.2,36.4-29.3,46.8-54.1c10.4-25,15.5-55.5,15.3-91.5c-0.2-36.1-5.7-72.5-16.5-109.3
		c-10.8-37.3-26.8-72.9-47.9-106.7c-21.1-34.3-46.9-65.9-77.3-94.9c-29.6-28.4-64-52.7-103-72.8c-38-19.6-71.4-30.4-100-32.5
		c-28.5-2-52.1,3.1-71.1,15.5c-18.9,11.7-32.8,30-41.9,55C2572.2,4131.9,2567.9,4161.1,2568.3,4195.2L2568.3,4195.2"/>
	<path id="path8216_2_" d="M3134.2,4256.6l2.1,496l87.4,50.6l-0.6-222c-0.1-32.3,3.3-58.8,10.2-79.7c6.9-21.5,18.1-36.9,33.5-46.3
		c15.5-9.4,36-11.9,61.6-7.5c25.8,4.4,57.2,16.4,94.3,35.9v-89.8c-50.2-27.2-91.2-39.2-123.3-36.1c-31.8,3.1-58.4,19.4-80,48.9
		l-2.1-1.1l-0.3-106.2L3134.2,4256.6L3134.2,4256.6"/>
</g>
<g class="st11">
	<g>
		<g>
			<defs>
				<path id="SVGID_1_" d="M1256.3,1813.4c0,0,4.3,297,2.1,1042.8c68.2,25.6,1178.3-716.2,1178.3-716.2l-13.6-933.1L1256.3,1813.4z"
					/>
			</defs>
			<clipPath id="SVGID_00000075879204350229493310000012403613023014571425_">
				<use xlink:href="#SVGID_1_"  style="overflow:visible;"/>
			</clipPath>
			<g style="clip-path:url(#SVGID_00000075879204350229493310000012403613023014571425_);">
				<g>
					
						<rect x="1506.8" y="1716.9" transform="matrix(0.6608 -0.7506 0.7506 0.6608 -1115.6418 1878.5891)" class="st2" width="27.4" height="913.4"/>
				</g>
				<g>
					
						<rect x="1467.1" y="1756.7" transform="matrix(0.6608 -0.7506 0.7506 0.6608 -1159.0552 1862.3032)" class="st2" width="27.4" height="913.4"/>
				</g>
				<g>
					
						<rect x="1429.5" y="1794.3" transform="matrix(0.6608 -0.7506 0.7506 0.6608 -1200.028 1846.8311)" class="st2" width="27.4" height="913.4"/>
				</g>
				<g>
					
						<rect x="1389.7" y="1834.2" transform="matrix(0.6608 -0.7506 0.7506 0.6608 -1243.4203 1830.4648)" class="st2" width="27.4" height="913.4"/>
				</g>
				<g>
					
						<rect x="1351.6" y="1872.2" transform="matrix(0.6608 -0.7506 0.7506 0.6608 -1284.9358 1814.7885)" class="st2" width="27.4" height="913.4"/>
				</g>
				<g>
					
						<rect x="1311.8" y="1912.1" transform="matrix(0.6608 -0.7506 0.7506 0.6608 -1328.3224 1798.4242)" class="st2" width="27.4" height="913.4"/>
				</g>
				<g>
					
						<rect x="1271.4" y="1952.4" transform="matrix(0.6608 -0.7506 0.7506 0.6608 -1372.3372 1781.7979)" class="st2" width="27.4" height="913.4"/>
				</g>
				<g>
					
						<rect x="1231.6" y="1992.3" transform="matrix(0.6608 -0.7506 0.7506 0.6608 -1415.7236 1765.4341)" class="st2" width="27.4" height="913.4"/>
				</g>
				<g>
					
						<rect x="1194" y="2029.9" transform="matrix(0.6608 -0.7506 0.7506 0.6608 -1456.6968 1749.9612)" class="st2" width="27.4" height="913.4"/>
				</g>
				<g>
					
						<rect x="1154.3" y="2069.6" transform="matrix(0.6608 -0.7506 0.7506 0.6608 -1499.9746 1733.609)" class="st2" width="27.4" height="913.4"/>
				</g>
				<g>
					
						<rect x="1116.1" y="2107.8" transform="matrix(0.6608 -0.7506 0.7506 0.6608 -1541.604 1717.9191)" class="st2" width="27.4" height="913.4"/>
				</g>
				<g>
					
						<rect x="1076.3" y="2147.5" transform="matrix(0.6608 -0.7506 0.7506 0.6608 -1584.8936 1701.5337)" class="st2" width="27.4" height="913.4"/>
				</g>
				<g>
					
						<rect x="1040.1" y="2183.7" transform="matrix(0.6608 -0.7506 0.7506 0.6608 -1624.3949 1686.6407)" class="st2" width="27.4" height="913.4"/>
				</g>
				<g>
					
						<rect x="1000.3" y="2223.6" transform="matrix(0.6608 -0.7506 0.7506 0.6608 -1667.7844 1670.2758)" class="st2" width="27.4" height="913.4"/>
				</g>
				<g>
					
						<rect x="962.7" y="2261.1" transform="matrix(0.6608 -0.7506 0.7506 0.6608 -1708.7544 1654.8042)" class="st2" width="27.4" height="913.4"/>
				</g>
				<g>
					
						<rect x="922.9" y="2301" transform="matrix(0.6608 -0.7506 0.7506 0.6608 -1752.1488 1638.4371)" class="st2" width="27.4" height="913.4"/>
				</g>
				<g>
					
						<rect x="884.8" y="2339.1" transform="matrix(0.6608 -0.7506 0.7506 0.6608 -1793.6644 1622.7605)" class="st2" width="27.4" height="913.4"/>
				</g>
				<g>
					
						<rect x="845.1" y="2378.8" transform="matrix(0.6608 -0.7506 0.7506 0.6608 -1836.9425 1606.4083)" class="st2" width="27.4" height="913.4"/>
				</g>
				<g>
					
						<rect x="2214.3" y="1023.2" transform="matrix(0.6608 -0.7506 0.7506 0.6608 -355.0135 2174.322)" class="st2" width="27.4" height="913.4"/>
				</g>
				<g>
					
						<rect x="2174.5" y="1063" transform="matrix(0.6608 -0.7506 0.7506 0.6608 -398.4046 2157.957)" class="st2" width="27.4" height="913.4"/>
				</g>
				<g>
					
						<rect x="2136.9" y="1100.6" transform="matrix(0.6608 -0.7506 0.7506 0.6608 -439.3746 2142.4856)" class="st2" width="27.4" height="913.4"/>
				</g>
				<g>
					
						<rect x="2097.1" y="1140.3" transform="matrix(0.6608 -0.7506 0.7506 0.6608 -482.6632 2126.1006)" class="st2" width="27.4" height="913.4"/>
				</g>
				<g>
					
						<rect x="2159.4" y="1132.3" transform="matrix(0.6596 -0.7516 0.7516 0.6596 -555.0717 2219.6855)" class="st2" width="27.4" height="1180.8"/>
				</g>
				<g>
					
						<rect x="2119.6" y="1172.1" transform="matrix(0.6596 -0.7516 0.7516 0.6596 -598.5487 2203.3281)" class="st2" width="27.4" height="1180.8"/>
				</g>
				<g>
					
						<rect x="2079.2" y="1212.5" transform="matrix(0.6596 -0.7516 0.7516 0.6596 -642.6517 2186.71)" class="st2" width="27.4" height="1180.8"/>
				</g>
				<g>
					
						<rect x="2039.5" y="1252.2" transform="matrix(0.6596 -0.7516 0.7516 0.6596 -686.046 2170.3777)" class="st2" width="27.4" height="1180.8"/>
				</g>
				<g>
					
						<rect x="2001.8" y="1289.9" transform="matrix(0.6596 -0.7516 0.7516 0.6596 -727.1768 2154.8899)" class="st2" width="27.4" height="1180.8"/>
				</g>
				<g>
					
						<rect x="1962.1" y="1329.6" transform="matrix(0.6596 -0.7516 0.7516 0.6596 -770.5737 2138.5571)" class="st2" width="27.4" height="1180.8"/>
				</g>
				<g>
					
						<rect x="1924" y="1367.7" transform="matrix(0.6596 -0.7516 0.7516 0.6596 -812.1699 2122.8887)" class="st2" width="27.4" height="1180.8"/>
				</g>
				<g>
					
						<rect x="1884.2" y="1407.5" transform="matrix(0.6596 -0.7516 0.7516 0.6596 -855.6485 2106.5308)" class="st2" width="27.4" height="1180.8"/>
				</g>
				<g>
					
						<rect x="1847.9" y="1443.8" transform="matrix(0.6596 -0.7516 0.7516 0.6596 -895.2151 2091.5986)" class="st2" width="27.4" height="1180.8"/>
				</g>
				<g>
					
						<rect x="1808.1" y="1483.6" transform="matrix(0.6596 -0.7516 0.7516 0.6596 -938.6912 2075.2415)" class="st2" width="27.4" height="1180.8"/>
				</g>
				<g>
					
						<rect x="1770.5" y="1521.2" transform="matrix(0.6596 -0.7516 0.7516 0.6596 -979.7404 2059.7783)" class="st2" width="27.4" height="1180.8"/>
				</g>
				<g>
					
						<rect x="1730.8" y="1560.9" transform="matrix(0.6596 -0.7516 0.7516 0.6596 -1023.1352 2043.4459)" class="st2" width="27.4" height="1180.8"/>
				</g>
				<g>
					
						<rect x="1692.6" y="1599.1" transform="matrix(0.6596 -0.7516 0.7516 0.6596 -1064.8126 2027.7529)" class="st2" width="27.4" height="1180.8"/>
				</g>
				<g>
					
						<rect x="1652.9" y="1638.8" transform="matrix(0.6596 -0.7516 0.7516 0.6596 -1108.2118 2011.42)" class="st2" width="27.4" height="1180.8"/>
				</g>
				<g>
					
						<rect x="2458.3" y="803.7" transform="matrix(0.6608 -0.7506 0.7506 0.6608 -107.4889 2283.0127)" class="st2" width="27.4" height="913.4"/>
				</g>
				<g>
					
						<rect x="2418.5" y="843.5" transform="matrix(0.6608 -0.7506 0.7506 0.6608 -150.8766 2266.6482)" class="st2" width="27.4" height="913.4"/>
				</g>
				<g>
					
						<rect x="2380.9" y="881.1" transform="matrix(0.6608 -0.7506 0.7506 0.6608 -191.847 2251.1765)" class="st2" width="27.4" height="913.4"/>
				</g>
				<g>
					
						<rect x="2341.1" y="920.9" transform="matrix(0.6608 -0.7506 0.7506 0.6608 -235.2441 2234.7791)" class="st2" width="27.4" height="913.4"/>
				</g>
				<g>
					
						<rect x="2302.9" y="959" transform="matrix(0.6608 -0.7506 0.7506 0.6608 -276.7357 2219.0237)" class="st2" width="27.4" height="913.4"/>
				</g>
				<g>
					
						<rect x="2263.3" y="998.7" transform="matrix(0.6608 -0.7506 0.7506 0.6608 -320.0405 2202.75)" class="st2" width="27.4" height="913.4"/>
				</g>
			</g>
		</g>
	</g>
</g>
<g id="text7207_2_" transform="matrix(0.74180606,0,0,0.72641886,-480.59153,245.92264)">
	<path id="path7212_2_" class="st5" d="M2632.8,2618l59-31.6c-2.3-21.1-7.7-37.4-16.2-48.9c-8.5-12-19.5-19.9-33-23.5
		c-13.1-3.9-28.4-3.7-46.1,0.6c-17.3,3.6-36.1,10.6-56.3,21.1c-28.2,14.6-53.1,33-74.7,55.1c-21.7,21.8-39.9,46.1-54.6,72.8
		c-14.3,26.1-25.1,54-32.3,83.6c-7.2,29.1-10.8,58.4-10.8,87.8c0,29.4,3.6,54.5,10.9,75.3c7.7,20,18.8,34.8,33.1,44.5
		c14.8,9.3,32.9,12.7,54.2,10.1c21.6-2.8,46.2-12,73.6-27.7c45.6-26,81-59,106.7-99.1c25.9-40.1,41.9-85,47.9-135.1l-58.4,32.2
		c-3.5,31.3-13.4,59.7-29.7,85c-15.9,25.2-38.3,46-67.4,62.3c-18.6,10.4-34.6,15.5-48.2,15.1c-13.6-0.4-24.7-4.7-33.2-13
		c-8.5-8.8-14.9-20.6-19.2-35.3c-3.8-15-5.7-31.5-5.7-49.6c0-19.6,1.9-39.4,5.7-59.5c3.8-20.6,9.9-40.1,18.4-58.6
		c8.9-18.7,20.7-36.1,35.2-52.2c14.4-16,32.3-29.6,53.5-40.8c24.8-13,44.4-16.7,59-11.2C2618.7,2583,2628.2,2596.5,2632.8,2618
		L2632.8,2618"/>
	<path id="path7214_2_" class="st5" d="M3046.2,2639.3c-8.9,11.1-21.2,21.2-37.1,30.2c-13.5,7.7-24.4,9.7-32.7,6
		c-7.9-4.4-11.9-16.5-12-36.1c-14.4,27.8-31.3,51.8-50.9,71.9c-19.3,19.5-40.4,35.8-63.3,48.9c-15,8.5-29.3,14.8-43.1,18.8
		c-13.4,3.8-25.1,4.4-35.2,1.9c-10.1-2.5-18.2-8.5-24.4-18.1c-5.8-10.3-8.7-24.9-8.7-43.7c-0.1-21.2,3.1-40.4,9.7-57.5
		c6.5-17.1,15-32.5,25.4-46.4c10.8-14.5,22.9-27.6,36.2-39.1c13.7-11.7,27.6-22.8,41.6-33.3c14.8-11.3,28.8-21.2,41.8-29.7
		c13.4-9.1,25.1-17.8,35.1-26c10-8.7,17.8-17.3,23.6-26.1c5.8-9.2,8.6-19.3,8.5-30.5c-0.1-13-2.4-22.3-7-27.8
		c-4.2-5.7-9.8-8.9-16.9-9.3c-6.7-0.7-14.4,0.5-23.2,3.7c-8.4,3-16.8,6.7-25.2,11.1c-22.8,12-41.8,27-57.1,45
		c-15.4,17.6-23.7,40.4-24.8,68.2l-55.3,29.6c0.8-23.5,5.1-45.2,12.8-65.2c7.8-19.9,18.1-38,31-54.3c12.9-16.7,27.4-31.4,43.6-44.1
		c16.6-12.9,34.1-24.1,52.6-33.7c14.7-7.6,29.1-13.9,43.2-18.9c14.5-5.2,27.5-7.1,39.1-5.6c11.5,1,20.8,6.1,27.8,15.5
		c7,9.3,10.6,24.4,10.7,45.2l1.2,184.9c0.1,13.9,0.8,23.8,2,29.6c1.7,5.6,6.6,6.1,14.7,1.5c4.5-2.5,9.7-6.6,15.8-12.4L3046.2,2639.3
		L3046.2,2639.3 M2960.5,2501.5c-6.6,9.2-15.3,18.1-26,26.8c-10.8,8.3-22.3,16.6-34.4,25.2c-11.8,7.8-23.8,16.3-36,25.4
		c-12.3,8.6-23.4,18-33.2,28.2s-18,21.6-24.4,34.2c-6,11.9-9,25.6-8.9,40.9c0,10.1,1.8,17.7,5.3,23c3.9,4.5,8.7,7.4,14.3,8.5
		c6,0.9,12.9,0.2,20.6-2.3c7.7-2.4,15.8-6,24.3-10.8c17.8-10,33-21.2,45.6-33.5c12.5-12.7,22.7-25.3,30.6-37.7
		c7.8-12.9,13.6-25,17.3-36.4c3.7-11.9,5.5-22,5.4-30.4L2960.5,2501.5L2960.5,2501.5"/>
	<path id="path7216_2_" class="st5" d="M3160.9,2222.1l-0.9-104.9l-50,25.2l0.8,105.7l-52.6,27.3l0.4,51.6l52.6-27.7l1.7,225.3
		c0.1,16.5,1.6,29,4.5,37.5c2.8,8.5,7.1,13.9,12.6,16.3c6,2.1,13.5,1.8,22.5-1.1c9.4-3.5,20.6-9,33.4-16.3l37.7-21.5l-0.4-50.7
		l-22.6,12.7c-7.7,4.4-14.1,7.7-19.2,10.1c-4.7,1.7-8.4,2.2-11.1,1.5c-2.8-0.7-4.7-2.8-5.9-6.3c-0.8-3.7-1.2-8.9-1.3-15.7
		l-1.8-218.3l59.8-31.5l-0.4-50.4L3160.9,2222.1L3160.9,2222.1"/>
	<path id="path7218_2_" class="st5" d="M3306.7,2383.1l-48.2,26.6c1,21.1,4.9,37.3,11.9,48.7c7,10.9,16.1,17.9,27.5,20.8
		c11.4,2.5,24.3,1.6,38.9-2.7c14.5-4.3,29.7-10.9,45.6-19.9c14.3-8.2,28.5-18,42.7-29.6c14.5-11.3,27.2-24.3,38.2-38.8
		c11.4-14.7,20.3-30.7,27-48c7-17.4,10.3-36.2,10.1-56.5c-0.2-16-3-27.9-8.5-35.8c-5.1-8.1-12-13.2-20.6-15.5
		c-8.3-2.9-18.1-3.5-29.3-1.8c-10.9,1.5-22.1,3.9-33.8,7.1c-11,2.8-22,5.9-33,9.2c-11.1,2.9-21.1,4.7-30,5.5
		c-8.9,0.4-16.4-0.9-22.5-3.9c-5.7-3.6-8.5-10.3-8.6-20.1c-0.1-8.8,1.7-16.9,5.4-24.2c3.7-7.7,8.5-14.7,14.4-20.9
		c5.9-6.7,12.4-12.5,19.4-17.5c7.4-5.2,14.5-9.6,21.5-13.3c7.7-4,15.2-6.9,22.5-8.5c7.7-2.3,14.6-2.9,20.8-1.8
		c6.2,1.1,11.3,4.3,15.4,9.6c4,4.8,6.5,12.5,7.3,23l45.6-24.3c-1.3-19.7-5-34.6-11.3-44.8c-6.2-10.6-14.6-17.1-25-19.5
		c-10.2-3-21.9-2.5-35.3,1.4c-13.5,3.5-28.3,9.4-44.4,17.7c-12.5,6.5-25.2,15.1-38.2,25.7c-12.6,10.1-24.1,21.9-34.5,35.3
		c-10.1,12.8-18.5,27.3-25.1,43.3c-6.3,15.9-9.4,32.5-9.2,49.9c0.2,22.3,5.1,37.2,14.7,44.5c9.5,7.4,21.3,10.8,35.2,10.4
		c14.2-1.1,29.5-4.1,45.9-9c16.2-5.3,31.1-9.3,44.7-11.9c13.9-3.2,25.4-3.6,34.5-1.1c9.1,2.4,13.7,10.8,13.9,25.2
		c0.1,10.4-1.9,20.3-6.2,29.7c-4.3,9-9.8,17.1-16.6,24.5c-6.5,7.2-13.7,13.7-21.7,19.5s-15.7,10.8-23,14.9
		c-9.6,5.4-19,9.6-28.2,12.6c-8.9,2.8-17.1,3.8-24.6,3.1c-7.1-1.3-13-5-17.6-10.9C3309.7,2404.6,3307.2,2395.3,3306.7,2383.1
		L3306.7,2383.1"/>
</g>
<g id="text7207_1_" transform="matrix(0.74180606,0,0,0.72641886,-480.59153,245.92264)" class="st10">
	<path id="path7212_1_" d="M2632.8,2618l59-31.6c-2.3-21.1-7.7-37.4-16.2-48.9c-8.5-12-19.5-19.9-33-23.5
		c-13.1-3.9-28.4-3.7-46.1,0.6c-17.3,3.6-36.1,10.6-56.3,21.1c-28.2,14.6-53.1,33-74.7,55.1c-21.7,21.8-39.9,46.1-54.6,72.8
		c-14.3,26.1-25.1,54-32.3,83.6c-7.2,29.1-10.8,58.4-10.8,87.8c0,29.4,3.6,54.5,10.9,75.3c7.7,20,18.8,34.8,33.1,44.5
		c14.8,9.3,32.9,12.7,54.2,10.1c21.6-2.8,46.2-12,73.6-27.7c45.6-26,81-59,106.7-99.1c25.9-40.1,41.9-85,47.9-135.1l-58.4,32.2
		c-3.5,31.3-13.4,59.7-29.7,85c-15.9,25.2-38.3,46-67.4,62.3c-18.6,10.4-34.6,15.5-48.2,15.1c-13.6-0.4-24.7-4.7-33.2-13
		c-8.5-8.8-14.9-20.6-19.2-35.3c-3.8-15-5.7-31.5-5.7-49.6c0-19.6,1.9-39.4,5.7-59.5c3.8-20.6,9.9-40.1,18.4-58.6
		c8.9-18.7,20.7-36.1,35.2-52.2c14.4-16,32.3-29.6,53.5-40.8c24.8-13,44.4-16.7,59-11.2C2618.7,2583,2628.2,2596.5,2632.8,2618
		L2632.8,2618"/>
	<path id="path7214_1_" d="M3046.2,2639.3c-8.9,11.1-21.2,21.2-37.1,30.2c-13.5,7.7-24.4,9.7-32.7,6c-7.9-4.4-11.9-16.5-12-36.1
		c-14.4,27.8-31.3,51.8-50.9,71.9c-19.3,19.5-40.4,35.8-63.3,48.9c-15,8.5-29.3,14.8-43.1,18.8c-13.4,3.8-25.1,4.4-35.2,1.9
		c-10.1-2.5-18.2-8.5-24.4-18.1c-5.8-10.3-8.7-24.9-8.7-43.7c-0.1-21.2,3.1-40.4,9.7-57.5c6.5-17.1,15-32.5,25.4-46.4
		c10.8-14.5,22.9-27.6,36.2-39.1c13.7-11.7,27.6-22.8,41.6-33.3c14.8-11.3,28.8-21.2,41.8-29.7c13.4-9.1,25.1-17.8,35.1-26
		c10-8.7,17.8-17.3,23.6-26.1c5.8-9.2,8.6-19.3,8.5-30.5c-0.1-13-2.4-22.3-7-27.8c-4.2-5.7-9.8-8.9-16.9-9.3
		c-6.7-0.7-14.4,0.5-23.2,3.7c-8.4,3-16.8,6.7-25.2,11.1c-22.8,12-41.8,27-57.1,45c-15.4,17.6-23.7,40.4-24.8,68.2l-55.3,29.6
		c0.8-23.5,5.1-45.2,12.8-65.2c7.8-19.9,18.1-38,31-54.3c12.9-16.7,27.4-31.4,43.6-44.1c16.6-12.9,34.1-24.1,52.6-33.7
		c14.7-7.6,29.1-13.9,43.2-18.9c14.5-5.2,27.5-7.1,39.1-5.6c11.5,1,20.8,6.1,27.8,15.5c7,9.3,10.6,24.4,10.7,45.2l1.2,184.9
		c0.1,13.9,0.8,23.8,2,29.6c1.7,5.6,6.6,6.1,14.7,1.5c4.5-2.5,9.7-6.6,15.8-12.4L3046.2,2639.3L3046.2,2639.3 M2960.5,2501.5
		c-6.6,9.2-15.3,18.1-26,26.8c-10.8,8.3-22.3,16.6-34.4,25.2c-11.8,7.8-23.8,16.3-36,25.4c-12.3,8.6-23.4,18-33.2,28.2
		s-18,21.6-24.4,34.2c-6,11.9-9,25.6-8.9,40.9c0,10.1,1.8,17.7,5.3,23c3.9,4.5,8.7,7.4,14.3,8.5c6,0.9,12.9,0.2,20.6-2.3
		c7.7-2.4,15.8-6,24.3-10.8c17.8-10,33-21.2,45.6-33.5c12.5-12.7,22.7-25.3,30.6-37.7c7.8-12.9,13.6-25,17.3-36.4
		c3.7-11.9,5.5-22,5.4-30.4L2960.5,2501.5L2960.5,2501.5"/>
	<path id="path7216_1_" d="M3160.9,2222.1l-0.9-104.9l-50,25.2l0.8,105.7l-52.6,27.3l0.4,51.6l52.6-27.7l1.7,225.3
		c0.1,16.5,1.6,29,4.5,37.5c2.8,8.5,7.1,13.9,12.6,16.3c6,2.1,13.5,1.8,22.5-1.1c9.4-3.5,20.6-9,33.4-16.3l37.7-21.5l-0.4-50.7
		l-22.6,12.7c-7.7,4.4-14.1,7.7-19.2,10.1c-4.7,1.7-8.4,2.2-11.1,1.5c-2.8-0.7-4.7-2.8-5.9-6.3c-0.8-3.7-1.2-8.9-1.3-15.7
		l-1.8-218.3l59.8-31.5l-0.4-50.4L3160.9,2222.1L3160.9,2222.1"/>
	<path id="path7218_1_" d="M3306.7,2383.1l-48.2,26.6c1,21.1,4.9,37.3,11.9,48.7c7,10.9,16.1,17.9,27.5,20.8
		c11.4,2.5,24.3,1.6,38.9-2.7c14.5-4.3,29.7-10.9,45.6-19.9c14.3-8.2,28.5-18,42.7-29.6c14.5-11.3,27.2-24.3,38.2-38.8
		c11.4-14.7,20.3-30.7,27-48c7-17.4,10.3-36.2,10.1-56.5c-0.2-16-3-27.9-8.5-35.8c-5.1-8.1-12-13.2-20.6-15.5
		c-8.3-2.9-18.1-3.5-29.3-1.8c-10.9,1.5-22.1,3.9-33.8,7.1c-11,2.8-22,5.9-33,9.2c-11.1,2.9-21.1,4.7-30,5.5
		c-8.9,0.4-16.4-0.9-22.5-3.9c-5.7-3.6-8.5-10.3-8.6-20.1c-0.1-8.8,1.7-16.9,5.4-24.2c3.7-7.7,8.5-14.7,14.4-20.9
		c5.9-6.7,12.4-12.5,19.4-17.5c7.4-5.2,14.5-9.6,21.5-13.3c7.7-4,15.2-6.9,22.5-8.5c7.7-2.3,14.6-2.9,20.8-1.8
		c6.2,1.1,11.3,4.3,15.4,9.6c4,4.8,6.5,12.5,7.3,23l45.6-24.3c-1.3-19.7-5-34.6-11.3-44.8c-6.2-10.6-14.6-17.1-25-19.5
		c-10.2-3-21.9-2.5-35.3,1.4c-13.5,3.5-28.3,9.4-44.4,17.7c-12.5,6.5-25.2,15.1-38.2,25.7c-12.6,10.1-24.1,21.9-34.5,35.3
		c-10.1,12.8-18.5,27.3-25.1,43.3c-6.3,15.9-9.4,32.5-9.2,49.9c0.2,22.3,5.1,37.2,14.7,44.5c9.5,7.4,21.3,10.8,35.2,10.4
		c14.2-1.1,29.5-4.1,45.9-9c16.2-5.3,31.1-9.3,44.7-11.9c13.9-3.2,25.4-3.6,34.5-1.1c9.1,2.4,13.7,10.8,13.9,25.2
		c0.1,10.4-1.9,20.3-6.2,29.7c-4.3,9-9.8,17.1-16.6,24.5c-6.5,7.2-13.7,13.7-21.7,19.5s-15.7,10.8-23,14.9
		c-9.6,5.4-19,9.6-28.2,12.6c-8.9,2.8-17.1,3.8-24.6,3.1c-7.1-1.3-13-5-17.6-10.9C3309.7,2404.6,3307.2,2395.3,3306.7,2383.1
		L3306.7,2383.1"/>
</g>
<path class="st0" d="M2420.6,669.7l-953.1-550.2L1260.6,0l-206.9,119.5L100.5,669.8L0,727.8v1455.5l100.5,58l965,557.1l195,112.6
	l195-112.6l964.9-557.1l100.5-58V727.8L2420.6,669.7z M2420.6,2128.7l-1160,669.7l-1160-669.7V789.2l1160-669.7l0,0l1160,669.7
	V2128.7z"/>
<g>
	<defs>
		<polygon id="SVGID_00000114758325565802550630000013452522781810871453_" points="1256.3,527.1 1256.3,1674.3 942.8,1635.1 
			100.5,1192.8 		"/>
	</defs>
	<clipPath id="SVGID_00000068663843764818710880000010093307095287720882_">
		<use xlink:href="#SVGID_00000114758325565802550630000013452522781810871453_"  style="overflow:visible;"/>
	</clipPath>
	<g style="clip-path:url(#SVGID_00000068663843764818710880000010093307095287720882_);">
		<g>
			
				<rect x="386.4" y="866.3" transform="matrix(0.6607 -0.7506 0.7506 0.6607 -857.3006 749.2023)" class="st14" width="27.4" height="913.4"/>
		</g>
		<g>
			
				<rect x="346.7" y="905.9" transform="matrix(0.6607 -0.7506 0.7506 0.6607 -900.5716 732.7963)" class="st14" width="27.4" height="913.4"/>
		</g>
		<g>
			
				<rect x="309" y="943.6" transform="matrix(0.6607 -0.7506 0.7506 0.6607 -941.6285 717.2954)" class="st14" width="27.4" height="913.4"/>
		</g>
		<g>
			
				<rect x="269.3" y="983.3" transform="matrix(0.6607 -0.7506 0.7506 0.6607 -984.9237 700.9681)" class="st14" width="27.4" height="913.4"/>
		</g>
		<g>
			
				<rect x="231.2" y="1021.4" transform="matrix(0.6607 -0.7506 0.7506 0.6607 -1026.4467 685.2872)" class="st14" width="27.4" height="913.4"/>
		</g>
		<g>
			
				<rect x="191.4" y="1061.2" transform="matrix(0.6607 -0.7506 0.7506 0.6607 -1069.8196 668.9357)" class="st14" width="27.4" height="913.4"/>
		</g>
		<g>
			
				<rect x="151" y="1101.6" transform="matrix(0.6607 -0.7506 0.7506 0.6607 -1113.8508 652.2985)" class="st14" width="27.4" height="913.4"/>
		</g>
		<g>
			
				<rect x="111.2" y="1141.4" transform="matrix(0.6607 -0.7506 0.7506 0.6607 -1157.2249 635.947)" class="st14" width="27.4" height="913.4"/>
		</g>
		<g>
			
				<rect x="73.6" y="1179" transform="matrix(0.6607 -0.7506 0.7506 0.6607 -1198.2019 620.4708)" class="st14" width="27.4" height="913.4"/>
		</g>
		<g>
			
				<rect x="33.8" y="1218.8" transform="matrix(0.6607 -0.7506 0.7506 0.6607 -1241.5771 604.1188)" class="st14" width="27.4" height="913.4"/>
		</g>
		<g>
			
				<rect x="-4.3" y="1256.9" transform="matrix(0.6607 -0.7506 0.7506 0.6607 -1283.1001 588.4379)" class="st14" width="27.4" height="913.4"/>
		</g>
		<g>
			
				<rect x="-44.1" y="1296.7" transform="matrix(0.6607 -0.7506 0.7506 0.6607 -1326.4749 572.0859)" class="st14" width="27.4" height="913.4"/>
		</g>
		<g>
			
				<rect x="-80.4" y="1333" transform="matrix(0.6607 -0.7506 0.7506 0.6607 -1366.0093 557.1103)" class="st14" width="27.4" height="913.4"/>
		</g>
		<g>
			
				<rect x="-120.1" y="1372.7" transform="matrix(0.6607 -0.7506 0.7506 0.6607 -1409.3024 540.7834)" class="st14" width="27.4" height="913.4"/>
		</g>
		<g>
			
				<rect x="-157.8" y="1410.4" transform="matrix(0.6607 -0.7506 0.7506 0.6607 -1450.3593 525.283)" class="st14" width="27.4" height="913.4"/>
		</g>
		<g>
			
				<rect x="-197.5" y="1450.1" transform="matrix(0.6607 -0.7506 0.7506 0.6607 -1493.6553 508.955)" class="st14" width="27.4" height="913.4"/>
		</g>
		<g>
			
				<rect x="-235.7" y="1488.3" transform="matrix(0.6607 -0.7506 0.7506 0.6607 -1535.2571 493.2499)" class="st14" width="27.4" height="913.4"/>
		</g>
		<g>
			
				<rect x="-275.4" y="1528" transform="matrix(0.6607 -0.7506 0.7506 0.6607 -1578.5522 476.9225)" class="st14" width="27.4" height="913.4"/>
		</g>
		<g>
			
				<rect x="1093.8" y="172.6" transform="matrix(0.6607 -0.7506 0.7506 0.6607 -96.6007 1044.8593)" class="st14" width="27.4" height="913.4"/>
		</g>
		<g>
			
				<rect x="1054.1" y="212.4" transform="matrix(0.6607 -0.7506 0.7506 0.6607 -139.9747 1028.5073)" class="st14" width="27.4" height="913.4"/>
		</g>
		<g>
			
				<rect x="1016.5" y="250" transform="matrix(0.6607 -0.7506 0.7506 0.6607 -180.9529 1013.0311)" class="st14" width="27.4" height="913.4"/>
		</g>
		<g>
			
				<rect x="976.7" y="289.8" transform="matrix(0.6607 -0.7506 0.7506 0.6607 -224.3269 996.6796)" class="st14" width="27.4" height="913.4"/>
		</g>
		<g>
			
				<rect x="1039.6" y="281.8" transform="matrix(0.6596 -0.7516 0.7516 0.6596 -297.0517 1088.5663)" class="st14" width="27.4" height="1180.8"/>
		</g>
		<g>
			
				<rect x="999.7" y="321.6" transform="matrix(0.6596 -0.7516 0.7516 0.6596 -340.4861 1072.142)" class="st14" width="27.4" height="1180.8"/>
		</g>
		<g>
			
				<rect x="959.4" y="362" transform="matrix(0.6596 -0.7516 0.7516 0.6596 -384.6257 1055.5897)" class="st14" width="27.4" height="1180.8"/>
		</g>
		<g>
			
				<rect x="919.5" y="401.8" transform="matrix(0.6596 -0.7516 0.7516 0.6596 -428.0605 1039.1654)" class="st14" width="27.4" height="1180.8"/>
		</g>
		<g>
			
				<rect x="881.9" y="439.4" transform="matrix(0.6596 -0.7516 0.7516 0.6596 -469.1181 1023.6943)" class="st14" width="27.4" height="1180.8"/>
		</g>
		<g>
			
				<rect x="842.2" y="479.2" transform="matrix(0.6596 -0.7516 0.7516 0.6596 -512.5764 1007.3489)" class="st14" width="27.4" height="1180.8"/>
		</g>
		<g>
			
				<rect x="804.1" y="517.3" transform="matrix(0.6596 -0.7516 0.7516 0.6596 -554.1805 991.6737)" class="st14" width="27.4" height="1180.8"/>
		</g>
		<g>
			
				<rect x="764.3" y="557.1" transform="matrix(0.6596 -0.7516 0.7516 0.6596 -597.6379 975.3279)" class="st14" width="27.4" height="1180.8"/>
		</g>
		<g>
			
				<rect x="728" y="593.4" transform="matrix(0.6596 -0.7516 0.7516 0.6596 -637.2747 960.4368)" class="st14" width="27.4" height="1180.8"/>
		</g>
		<g>
			
				<rect x="688.3" y="633.1" transform="matrix(0.6596 -0.7516 0.7516 0.6596 -680.6541 944.1153)" class="st14" width="27.4" height="1180.8"/>
		</g>
		<g>
			
				<rect x="650.6" y="670.8" transform="matrix(0.6596 -0.7516 0.7516 0.6596 -721.791 928.6207)" class="st14" width="27.4" height="1180.8"/>
		</g>
		<g>
			
				<rect x="610.9" y="710.5" transform="matrix(0.6596 -0.7516 0.7516 0.6596 -765.1465 912.2204)" class="st14" width="27.4" height="1180.8"/>
		</g>
		<g>
			
				<rect x="572.8" y="748.6" transform="matrix(0.6596 -0.7516 0.7516 0.6596 -806.7735 896.6237)" class="st14" width="27.4" height="1180.8"/>
		</g>
		<g>
			
				<rect x="533" y="788.4" transform="matrix(0.6596 -0.7516 0.7516 0.6596 -850.2073 880.1992)" class="st14" width="27.4" height="1180.8"/>
		</g>
		<g>
			
				<rect x="1337.8" y="-46.9" transform="matrix(0.6607 -0.7506 0.7506 0.6607 150.9342 1153.5397)" class="st14" width="27.4" height="913.4"/>
		</g>
		<g>
			
				<rect x="1298.1" y="-7.1" transform="matrix(0.6607 -0.7506 0.7506 0.6607 107.5603 1137.1882)" class="st14" width="27.4" height="913.4"/>
		</g>
		<g>
			
				<rect x="1260.5" y="30.5" transform="matrix(0.6607 -0.7506 0.7506 0.6607 66.582 1121.7117)" class="st14" width="27.4" height="913.4"/>
		</g>
		<g>
			
				<rect x="1220.7" y="70.3" transform="matrix(0.6607 -0.7506 0.7506 0.6607 23.208 1105.3602)" class="st14" width="27.4" height="913.4"/>
		</g>
		<g>
			
				<rect x="1182.6" y="108.4" transform="matrix(0.6607 -0.7506 0.7506 0.6607 -18.315 1089.6792)" class="st14" width="27.4" height="913.4"/>
		</g>
		<g>
			
				<rect x="1142.8" y="148.2" transform="matrix(0.6607 -0.7506 0.7506 0.6607 -61.6892 1073.328)" class="st14" width="27.4" height="913.4"/>
		</g>
	</g>
</g>
<g>
	<g id="layer2_1_">
		<g id="layer8_1_">
			<g id="g6465_1_" transform="matrix(0.6387036,0,0,0.6387036,-1212.9791,-292.85892)">
				<g id="path6459_1_">
					<path d="M3582.9,1934.9c-113.1,74.1-182,234.8-209.3,357.6l-10.9,162.9l1440.9,489.9c72.1,61.8-403.7-688.5-446.2-773.5
						c-63.9-127.8-80.5-60.6-192.4-105.3c-129.3-51.7-47.2-80.1-259.3-115.5C3798.5,1933.2,3690.7,1938.9,3582.9,1934.9
						L3582.9,1934.9z"/>
					<path class="st15" d="M4809.8,2968.7c-4.4,0-9.8-1.5-15.8-5.8l-1452-493.7l12.4-180.9c28.6-128.6,100.8-293.2,217.7-369.8
						l5.2-3.4l6.3,0.2c30.9,1.1,62.5,1.5,93,1.8c76,0.8,154.5,1.7,232.1,14.6c134.4,22.4,157.4,43.7,184.1,68.3
						c15.6,14.4,31.7,29.3,79.2,48.3c36.9,14.7,61.7,16.3,83.6,17.7c47.9,3,75,8.7,119.1,97.1c14.2,28.4,80,136.2,156.1,261
						c68,111.4,145.1,237.7,203.6,337.4c32,54.5,55.2,95.3,70.9,124.8c25,47.1,32.4,64.8,17.6,77.4
						C4820.7,2965.7,4816.1,2968.7,4809.8,2968.7z M3383.2,2441.7l1393.4,473.8c-46.1-89-188.4-322.2-279.1-470.9
						c-79.8-130.8-142.8-234-157.7-263.9c-36.1-72.2-50.9-73.2-86.5-75.4c-22.4-1.4-53-3.4-95.7-20.4
						c-54.3-21.7-73.9-39.9-91.3-55.9c-23-21.2-41.1-38-163.9-58.4c-74.6-12.4-151.6-13.3-226.1-14.1c-28.7-0.3-58.3-0.6-87.7-1.6
						c-103.7,71.4-168.8,221.7-195.5,340.6L3383.2,2441.7z"/>
				</g>
				<g id="path6455_1_">
					<path d="M3573.5,2265.4c-41.3-206.5,50.8-408.4,80-601.7l560.5,18.1c-44,142.2,95.9,299,95.9,438.9"/>
					<path class="st15" d="M3554.2,2269.2c-29.3-146.5,6.2-289.3,40.6-427.4c15.6-62.7,30.3-121.9,39.3-181.2l2.6-17.3l603.8,19.4
						l-7.6,24.6c-23.1,74.7,10.9,158.4,43.9,239.4c26,63.9,52.9,130,52.9,193.7h-39.3c0-56-24.3-115.7-50-178.9
						c-32.2-79.2-65.4-160.9-51-241.1l-519.1-16.7c-9.4,55.6-23.5,112.4-37.2,167.5c-33.3,133.9-67.7,272.3-40.2,410.2
						L3554.2,2269.2z"/>
				</g>
			</g>
			<g id="path6445_1_">
				<path d="M1399.1,465.3c31.9-34,57.3-76.5,100.1-98.3c34.9,7.7,20.6,53.6,23,79.6c-1.7,43.1-10.7,85.7-21.9,127.1
					c0.1,31.9,16.8,61,17.5,92.9c6.7,50.8-7.3,108.3-48.1,141.7c-26.2,18.9-62.7,7.1-88.1,26.4c-17.2,19.4-40.6,31.6-66.5,33.1
					c-28.8,2.3-60.9,0.4-85.3-16.4c-22.1-17.5-42.1-39.3-70-47.5c-43.7-23.1-89-61.3-90.4-114.7c-1.3-35.1,23-65.8,22.7-100.3
					c-16.2-63.9-20.9-131.8-8-196.7c13.3-31.3,47.1-8.2,57.5,12.6c20.9,22.8,41.4,46.4,66.5,64.7
					C1270.7,453.2,1335.6,463.8,1399.1,465.3L1399.1,465.3z"/>
				<path class="st15" d="M1296.5,876.6c-29.6,0-53-6.1-71.1-18.6l-0.4-0.3c-5.2-4.1-10.3-8.5-15.2-12.7
					c-16.6-14.2-32.2-27.6-52.1-33.4l-0.8-0.2l-0.7-0.4c-34.6-18.3-93-58.5-94.7-121.6c-0.7-19.4,5.7-37.2,11.8-54.4
					c5.5-15.4,10.8-30,10.8-45.2c-17.4-68.8-20.1-137.7-7.9-199.3l0.2-0.8l0.3-0.8c7.3-17,19.6-20,26.2-20.2
					c17.9-0.7,36.8,15.3,45.3,31.2c2.1,2.3,4.1,4.5,6.2,6.8c17.2,18.9,35,38.3,55.4,53.8c46.7-11.3,94.6-8.4,140.9-5.6
					c14.7,0.9,30,1.8,44.9,2.2c7.9-8.7,15.7-18,23.1-27.1c21.9-26.5,44.5-53.9,76.8-70.3l2.6-1.3l2.8,0.6c32.9,7.2,31,41,29.6,65.7
					c-0.4,7.8-0.8,15.1-0.3,21v0.5v0.5c-1.5,37.5-8.2,76.9-21.8,127.8c0.2,14.7,4.2,29,8.4,44c4.2,15.1,8.6,30.7,9,47.3
					c6,46.8-4.2,110.2-51.1,148.5l-0.4,0.3c-14.7,10.6-31.5,12.6-47.8,14.5c-14.7,1.7-28.6,3.3-39.5,11.3
					c-18.9,21-44.3,33.5-71.5,35.2C1309,876.3,1302.6,876.6,1296.5,876.6z M1234.6,844.9c18.7,12.8,44.9,17.6,79.9,14.9
					c23.4-1.4,45-12.2,61.1-30.5l1.2-1.1c14.5-11,31.5-13,47.9-14.9c14.8-1.7,28.8-3.4,40.1-11.4c27.4-22.5,53.6-69.5,45.1-134.2
					l-0.1-0.9c-0.3-14.7-4.3-28.8-8.5-43.7c-4.4-15.7-9-32-9.1-49.3v-1.1l0.3-1c13.4-50,20.1-88.5,21.6-124.8
					c-0.6-6.9-0.1-14.7,0.3-22.8c1.4-25.7,1.2-43.3-14.4-48.4c-27.9,15-47.9,39.2-69,64.8c-8.4,10.2-17.1,20.7-26.2,30.4l-2.5,2.6
					l-3.6-0.1c-16.3-0.4-33-1.4-49-2.3c-46.4-2.8-94.3-5.6-139.7,6.1l-3.7,0.9l-3.1-2.2c-23-16.8-42.2-37.8-60.8-58.2
					c-2.3-2.5-4.6-5-6.9-7.5l-0.8-0.8l-0.5-1c-5.7-11.3-20.2-23.8-31-23.4c-1.8,0.1-7.4,0.2-11.7,9.7
					c-11.6,59.3-8.8,125.8,8.1,192.3l0.2,0.9v1c0.2,18.4-5.9,35.3-11.8,51.7c-5.9,16.5-11.5,32-10.9,48.4
					c1.5,54.6,53.8,90.7,85.5,107.5c22.7,6.9,40.2,21.9,57.2,36.4C1224.8,836.8,1229.7,841,1234.6,844.9z"/>
			</g>
			<g id="path6437_1_">
				<path d="M1340.5,667.6c8.3-41.2,40.8-59.3,83-33.7C1404.6,667.1,1386.3,679.5,1340.5,667.6z"/>
				<path class="st15" d="M1369.8,679.4c-9,0-19.2-1.5-31.1-4.6l-6.9-1.8l1.4-7c4.7-23.2,16.5-40,33.4-47.4
					c12.3-5.4,32.8-8.2,60.9,8.8l6.3,3.8l-3.6,6.4C1415.3,663.4,1399.4,679.4,1369.8,679.4z M1349.7,662c34.2,7.3,48.9-2,63.5-25.3
					c-15.3-7.7-29.2-9.2-40.5-4.3C1362,637.1,1354,647.5,1349.7,662z"/>
			</g>
			<g id="path6439_1_">
				<path d="M1244.2,668.2c7.6-53.4-49.1-46.3-80.8-43.3C1184.2,669.2,1205.7,677.6,1244.2,668.2z"/>
				<path class="st15" d="M1219.8,679.6c-28.4,0-47-15.7-63.7-51.2l-4.8-10.3l13.9-1.4c23.6-2.3,59.1-5.8,77.1,12.9
					c8.9,9.3,12.2,22.7,9.8,39.7l-0.8,5.4l-5.3,1.3C1236.5,678.4,1227.8,679.6,1219.8,679.6z M1175.9,631.8
					c17.2,31.2,34.4,35.4,60.9,29.8c0.5-9.3-1.5-16.1-6.1-20.9C1219.9,629.5,1195.5,630.2,1175.9,631.8z"/>
			</g>
			<g id="path6443_1_">
				<path d="M1244.2,812.3c19.1-9.5,44.8-24.6,48.2-58.3c1,41.8,27.8,55.9,60.3,52.3"/>
				<path class="st15" d="M1247.8,819.5l-7.2-14.3c21.1-10.6,41-24.1,43.8-51.9l16,0.6c0.4,16.1,4.9,28.1,13.5,35.6
					c11,9.6,26.7,10.1,37.9,8.9l1.8,15.9c-20.7,2.3-38-2.1-50.2-12.8c-5.4-4.7-9.6-10.4-12.7-17.2
					C1278.9,804,1259.1,813.9,1247.8,819.5z"/>
			</g>
			<g id="path6447_1_">
				<path class="st15" d="M1117.6,846.4l-12.1-10.6c30.3-34.6,76.2-80.7,124.6-81.1l0.1,16C1183.5,771.2,1133.9,827.8,1117.6,846.4z
					"/>
			</g>
			<g id="path6449_1_">
				<path class="st15" d="M1153.8,860.5l-12.1-10.6c24.5-27.9,47.1-52.5,76.3-69.9l8.2,13.8C1199,810,1177.3,833.6,1153.8,860.5z"/>
			</g>
			<g id="path6451_1_">
				<path class="st15" d="M1489.5,820.8c-25.2-6.9-49.5-16.3-72.9-25.3c-25.8-10-52.4-20.3-79.6-26.9l3.8-15.6
					c28.2,6.9,55.4,17.4,81.6,27.5c23.1,8.9,47,18.2,71.4,24.8L1489.5,820.8z"/>
			</g>
			<g id="path6453_1_">
				<path class="st15" d="M1444.8,876c-25.2-35.3-50.7-57.9-87.7-78l7.6-14.1c39.4,21.3,66.4,45.3,93.2,82.8L1444.8,876z"/>
			</g>
			<g id="path6504_1_">
				<path class="st15" d="M1477,545.4c-2.1,0-4.2-0.8-5.8-2.3c-8.6-8.4-14.7-15.9-20.1-22.5c-8.8-10.9-15.8-19.5-30.7-29l-6.9-4.4
					l5.5-8.4c28.3-43,50.8-71.4,69.1-70.3c3.6,0.2,10.4,1.9,14.7,10.6l0.5,1.1c4.3,13.4-0.3,44.6-4.9,68.5
					c-9.9,51.1-15.1,54.3-17,55.5C1480,545,1478.5,545.4,1477,545.4z M1435.8,482.6c12.8,9.2,20.1,18.3,27.9,27.9
					c3.3,4,6.6,8.1,10.5,12.5c6.8-24,18.3-81.7,14.1-97.3c-0.5-0.8-0.8-1.1-0.9-1.2C1485.5,424,1474.5,424.6,1435.8,482.6z"/>
			</g>
			<g id="path6506_1_">
				<path class="st15" d="M1113.8,562.3c-0.4,0-0.8,0-1.3-0.1c-3.1-0.4-5.7-2.3-7.2-5.2c-11.7-23.4-16.9-72.1-11.1-104.5
					c1.3-11.6,4.5-27.2,16.5-31c15.7-4.9,32.7,14.6,52.4,37.3c8.8,10.1,18,20.6,25.9,27.3l5,4.3l-3.2,5.8
					c-8.6,15.5-35.7,37.7-53.8,47c-0.8,0.8-2.4,2.6-3.6,4C1125.4,556.5,1119.9,562.3,1113.8,562.3z M1137.4,543L1137.4,543
					L1137.4,543z M1116.2,436.9c-0.2,0-0.5,0-0.7,0.1c0,0-3.6,2.1-5.4,17.7l-0.1,0.5c-4.6,25.3-1.4,64.4,6.4,87c1.9-2,3.9-4.2,5-5.6
					c4.1-4.6,5.6-6.3,7.6-7.3c13.6-6.8,34.4-23.2,44.2-35.7c-7.3-7-14.9-15.7-22.3-24.2C1141.7,458.8,1122.7,436.9,1116.2,436.9z"/>
			</g>
		</g>
	</g>
	<g id="layer3_1_">
		<g id="layer4_1_">
			<g id="path5941_1_">
				<path d="M919.2,968.2c15,12.3,13.5,34.6,28.6,46.2c131.9,72.2,264.1,96.9,421.1,176.6c124.6,80.4,152.8,275.6,110.4,384.6
					c-22.9,98-147.7,19.4-204.4,0c-51.5-17.7-109-26.6-161.5-42c-45.9-13.5-91.8-52.5-141-52.5c-72.1-20.7-145.2-47.7-214.6-71.5
					c-52-17.8-319.2-3.3-294.3-79.9c3.3-53.8-21.4-135.7,0-172.4c53.1-65.1,187.5-73.6,263.7-107.2
					C781.2,1021,858.3,955.7,919.2,968.2L919.2,968.2z"/>
				<path class="st15" d="M1421.1,1634.5c-35.8,0-78.1-18.5-113.8-34.1c-13.4-5.8-26-11.3-35.9-14.7c-28.8-9.9-60.3-17.2-90.7-24.2
					c-23.3-5.4-47.4-11-70.3-17.7c-18.7-5.5-37.2-14.9-55.1-24c-27.1-13.8-55.2-28.1-82.9-28.1h-1.5l-1.4-0.4
					c-54.8-15.7-110.3-35.1-163.9-53.8c-17.2-6-34.3-12-51.2-17.8c-14.2-4.9-49.9-7.4-87.8-10c-104.3-7.3-185.9-15.7-209.1-50.1
					c-6.3-9.4-7.9-20.3-4.6-31.7c1-19.2-1.7-42.9-4.3-65.9c-4.9-43.2-9.5-84.1,5.6-109.9l0.9-1.4c37.2-45.6,108.1-64.1,176.6-81.9
					c33.7-8.8,65.6-17.1,90.7-28.1c12.7-6.8,26.8-15.8,41.8-25.3c50.1-31.8,106.9-67.9,157.2-57.5l2.6,0.5l2,1.7
					c9.6,7.8,13.8,18.3,17.4,27.5c3,7.5,5.5,14,10.4,18.1c66.1,36.1,132.4,60.2,202.5,85.7c68.7,25,139.8,50.8,217.4,90.2l1,0.5
					c133,85.8,156.5,288.6,114.8,396.8c-5.7,23.5-17.3,39.8-34.6,48.5C1444.7,1632.4,1433.3,1634.5,1421.1,1634.5z M973.9,1470.4
					c32.2,0.5,62.1,15.7,91,30.4c17.8,9.1,34.7,17.7,51.5,22.6c22.3,6.5,46.1,12,69.1,17.4c31,7.2,63,14.6,92.9,24.8
					c10.7,3.7,23.7,9.4,37.5,15.4c41.5,18.1,98.3,42.9,129.5,27.3c11.7-5.9,19.5-17.3,23.6-35l0.4-1.4c21-53.9,23.6-127.4,7-196.7
					c-18.5-77.6-58.6-139.6-112.8-174.8c-76.3-38.7-146.6-64.3-214.6-89c-71.2-25.9-138.5-50.3-206.3-87.5l-1.4-0.9
					c-9.9-7.7-14.1-18.2-17.8-27.6c-2.7-6.8-5.1-12.9-9.2-17.2c-41.5-6.6-93,26.1-138.7,55.1c-15.4,9.8-30,19.1-43.5,26.3l-0.8,0.4
					c-26.8,11.8-59.6,20.3-94.3,29.4c-64.8,16.9-131.8,34.4-164.8,74.1c-11,19.9-6.7,58.6-2.4,96.1c2.7,24.4,5.6,49.6,4.3,70.9
					l-0.1,1.3l-0.4,1.3c-1.9,5.8-1.4,10.3,1.5,14.6c19.2,28.5,123.7,35.9,192.9,40.7c42.7,3,76.4,5.4,93.2,11.1
					c16.9,5.8,34.1,11.8,51.3,17.8C865.4,1435.8,920.1,1454.9,973.9,1470.4z"/>
			</g>
			<g id="g6407_1_" transform="translate(-31.25,-50)">
				<g id="path5910_1_">
					<path d="M633.6,1252.2c72.5-10.9,155.4-33.6,224.7-62.1c85.2-33.7,88.8-147.5,88.9-239.6c0-7.6,6.7-15.1,6.7-22.4
						c0,0-7.3-39.3-19.7-58.9C874.9,775.5,700.6,728.1,606,729.8c-19.1,1.6-116-64.3-124.9-55.2c-9.7,10,5,59.8,5,70.7
						c0,16.2,17.6,109.5,3.4,124.1c-48,49.4-82.6,168.5-25.1,227.6c11.4,89.7,62.8,197.6,174.4,151.7"/>
					<path class="st15" d="M588.3,1270.4c-18.6,0-36-4.6-52-13.9c-41.7-24.2-72.3-81.9-82.3-154.6c-57.7-63.6-24.2-186.5,27.6-239.8
						c6.6-9.3-1-69.5-3.5-89.3c-1.7-13-2.8-22.4-2.8-27.4c0-2.2-1.5-9.9-2.7-16.1c-5.8-29.9-9.2-51.8,0.7-62
						c9.8-10.1,26.8-1.6,74.6,24.6c19.9,10.9,49.9,27.3,57.2,27.4h0.3h0.2c1.7,0,3.5,0,5.2,0c100.3,0,272.5,50.3,332.1,144.4
						c13.3,21.1,20.9,60.9,21.2,62.6l0.2,1v1c0,5.9-2.2,10.9-4.2,15.3c-1.2,2.6-2.5,5.5-2.5,7.1c0,84.3-0.1,211.7-95.6,249.6
						c-69.6,28.6-152.4,51.5-227,62.7l-0.2-1.2C618.7,1267.5,603.1,1270.4,588.3,1270.4z M488.3,685.6c-0.5,9.8,3.5,30.8,5.3,39.5
						c2,10.2,3.1,16.1,3.1,20.2c0,3.6,1.3,13.8,2.7,24.7c7.8,61.3,9.6,94.7-2.3,106.9c-45.6,46.9-77,159.4-25.1,212.7l2.5,2.6
						l0.5,3.5c8.7,67.8,35.7,121,72.3,142.3c24.6,14.3,54,14.6,87.4,0.9l0.9,2.2c71.1-11,152.6-33.6,218.7-60.8
						c75.8-30,82.2-130,82.3-229.8c0-6.1,2.4-11.5,4.3-15.8c0.9-2,2-4.5,2.3-5.9c-2.2-11.4-9.1-39.8-18-53.8
						c-25.1-39.7-76.8-75.6-145.6-101.2c-57.5-21.4-123.8-34.1-173.1-33.2c-11.2,0.6-29.7-8.7-68.6-30
						C521.9,701.9,499.1,689.4,488.3,685.6z"/>
				</g>
				<g id="path5902_1_">
					<path d="M786.1,943.6c54.9-1.6,200.7-123.1,132.4,17.2c-5.6,11.5-5.1,35.4-16.8,41.4c-4.3,2.2-9.5-2.9-11.7-5.2
						C864.8,971,822.3,951.1,786.1,943.6L786.1,943.6z"/>
					<path class="st15" d="M899.6,1013.5c-4.7,0-10.5-2.2-17.1-9c-21.9-22.6-61.5-42.8-98.4-50.4l1.8-21.1
						c15.5-0.5,43-13.7,67.3-25.3c40-19.2,71.5-34.3,87.3-18.5c11.7,11.8,8.1,34.6-12.2,76.3c-1.4,2.9-2.5,8.1-3.6,13.1
						c-2.7,12.6-5.8,26.9-17.9,33.1C904.7,1012.7,902.3,1013.5,899.6,1013.5z M824.9,944c28.6,11.1,55.2,27.4,72.9,45.6
						c0.4,0.4,0.7,0.7,1,1c2.2-3.8,3.8-11.5,4.9-16.5c1.4-6.2,2.8-12.7,5.3-17.9c21.2-43.6,16.4-51.7,16.2-52
						c-7-4-43.3,13.4-62.9,22.8C849.7,932.9,836.9,939.1,824.9,944z"/>
				</g>
				<g id="path5906_1_">
					<path d="M502.8,719.5c9.3,33.2,65.4,88,65.4,120.7c0,6.9-13.4,0-20.1,0c-4.7,0-28.7,3.2-31.9,0
						C509.8,833.5,512.7,744.9,502.8,719.5z"/>
					<path class="st15" d="M564.5,853.9c-3.7,0-7.4-1-10.9-1.9c-1.8-0.5-4.6-1.2-5.5-1.2c-0.7,0-3.5,0.2-5.7,0.4
						c-19.5,1.7-28.5,1.8-33.8-3.7c-5.2-5.4-6.2-14.9-8.1-53.5c-1.2-23.8-2.6-52.8-6.4-67c-0.6-1.6-1.1-3.2-1.5-4.7l20.2-6.7
						c0.6,1.4,1.1,3,1.6,4.7c4.7,12.5,16.4,29.2,27.8,45.4c18.9,27.1,36.8,52.7,36.8,74.4c0,4.4-1.8,8.2-5.1,10.8
						C570.9,853.2,567.8,853.9,564.5,853.9z M524.4,830.9L524.4,830.9c5,0,12.7-0.7,16.2-0.9c3.8-0.3,5.9-0.5,7.5-0.5
						c2.5,0,5.1,0.5,7.7,1.1c-4.8-14.9-18.7-34.7-31.2-52.6c-1.3-1.8-2.6-3.7-3.8-5.5c0.4,6.8,0.7,13.7,1.1,20.6
						C522.5,806.7,523.3,823.1,524.4,830.9z"/>
				</g>
				<g id="path5913_1_">
					<path d="M499.4,1167.7c11.5,78.4,113.1,6.9-1.7,6.9"/>
					<path class="st15" d="M532,1215.1c-17.6,0-38.1-11.8-43.1-45.8l8.9-1.3v-4c52.5,0,64.2,14.6,64.8,26.9
						c0.6,12.2-10.9,22.6-26.8,24.1C534.5,1215.1,533.3,1215.1,532,1215.1z M517.4,1186.2c3,3.9,6.7,6.3,11,7.2
						c4.9,1,9.2-0.2,11.5-1.6C537.2,1190.2,530.9,1187.6,517.4,1186.2z"/>
				</g>
				<g id="path5915_1_">
					<path d="M600,1117.7c8.9-12.1,15-24.1,28.5-31c9.2-4.7,71.6,8.1,77.1,13.8c1.1,1.2-11.6,11.9-11.7,12.1
						C663.2,1144.1,624.8,1098.7,600,1117.7z"/>
					<path class="st15" d="M667.5,1134.7c-11.2,0-22.1-3.4-31.3-6.3c-14.3-4.5-23.4-7-29.7-2.2l-15.1-14.8c1.7-2.3,3.3-4.6,4.9-6.9
						c6.9-10.1,14.1-20.5,27.4-27.3c2.7-1.4,9.8-5.1,46.8,2c23.9,4.6,38.3,9.2,42.8,13.8l3.2,3.3l-0.1,4.8
						c-0.2,5.2-2.9,8.6-15.1,19.1h-0.1C690.5,1131.2,678.8,1134.7,667.5,1134.7z M624.3,1103.1c6.3,1.1,12.5,3.1,18.4,4.9
						c19.3,6.1,31.8,9.2,43.6-2.9c0,0,0.2-0.2,0.4-0.4c-17.4-4.5-46.4-9.6-53.9-8.2C629.5,1098.3,626.8,1100.5,624.3,1103.1z
						 M699.1,1108.8L699.1,1108.8L699.1,1108.8z M632.5,1096.6L632.5,1096.6L632.5,1096.6z"/>
				</g>
				<g id="path5917_1_">
					<path d="M529.6,1069.5c-1.9-46.2-84-119.3-38.6-25.9C497.4,1056.7,520.4,1056.8,529.6,1069.5z"/>
					<path class="st15" d="M541.7,1104.1l-20.7-28.4c-2.7-3.6-8.6-6.1-14.9-8.8c-9.2-3.9-19.6-8.3-24.7-18.7
						c-17.7-36.5-17.1-48.7-10.7-55.9c4.1-4.6,10.5-5.9,17.1-3.5c18.3,6.6,51.1,48.7,52.4,80.1L541.7,1104.1z M491.4,1017.5
						c1.9,5.2,4.8,12.1,9.3,21.4c1.3,2.7,6.1,5.1,11.1,7.2C506.1,1035,498.1,1024.5,491.4,1017.5z"/>
				</g>
				<g id="path5919_1_">
					<path d="M527.9,1209.1c-3.7,60.3,92.6,38.4,114,1.7"/>
					<path class="st15" d="M567.6,1257.3c-7,0-13.7-0.9-19.8-2.7c-20.8-6.3-31.9-23.2-30.5-46.2l21.3,1.3
						c-0.8,13.2,4.1,21,15.4,24.4c24.1,7.3,66.8-8.3,78.8-28.7l18.4,10.8C637.4,1239.8,599.3,1257.3,567.6,1257.3z"/>
				</g>
				<g id="path5923_1_">
					<path d="M598.4,1205.6c48.2,5.8,101.3,33.2,142.5,58.6"/>
					<path class="st15" d="M735.3,1273.3c-54.1-33.3-100.5-52.6-138.2-57.1l2.6-21.2c40.7,4.9,90.1,25.1,146.8,60.1L735.3,1273.3z"
						/>
				</g>
				<g id="path5925_1_">
					<path d="M586.6,1207.4c43.4,40.5,94.2,73.7,150.9,93.1"/>
					<path class="st15" d="M734,1310.6c-55.1-18.9-107.1-51-154.7-95.4l14.6-15.6c45.4,42.4,94.9,72.9,147.1,90.8L734,1310.6z"/>
				</g>
				<g id="path5927_1_">
					<path d="M486,1172.9c-23.3-3.9-137.5,8.3-160.3,12.2"/>
					<path class="st15" d="M327.5,1195.6l-3.6-21c23-3.9,138.2-16.6,163.9-12.2l-3.5,21C463.1,1179.9,351.5,1191.5,327.5,1195.6z"/>
				</g>
				<g id="path5929_1_">
					<path d="M487.7,1159.1c-18.1,2.2-99.7-5.5-117.4-5.5"/>
					<path class="st15" d="M478.1,1170.2c-15,0-39.5-1.6-68.7-3.6c-16.9-1.2-32.9-2.3-39.1-2.3v-21.4c7,0,22.5,1.1,40.6,2.3
						c27.5,1.9,65.2,4.6,75.5,3.3l2.6,21.2C486.3,1170,482.7,1170.2,478.1,1170.2z"/>
				</g>
			</g>
			<g id="g6420_1_" transform="matrix(0.9647752,-0.2630757,0.2630757,0.9647752,59.892263,-54.60903)">
				<g id="path5933_1_">
					<path d="M333.9,1516.1c0,0-26.4-3.8-64.4-8.9c-83.9-11.3-226.1-22.4-276,22.7c-72.6,51.9-59,116.1,5,146.5
						c42.8,22,90-7.3,129.1-20.7c62-21.2,509.2,71.7,564.1,90.5"/>
					<path class="st15" d="M9.7,1692.2c-5.3-1.4-10.6-3.5-15.9-6.2c-35.2-16.8-57-43.7-59.7-73.8c-2.8-32,15.9-64.2,52.7-90.6
						c28.3-25.2,100.7-49.8,284.1-25c37.6,5.1,64.2,8.9,64.5,9l-3.1,21.1c-0.3,0-26.8-3.9-64.3-8.9c-135.6-18.3-233.1-11-267.4,20.1
						l-1,0.8c-30.7,22-46.5,47.4-44.3,71.7c2,22.4,19.4,43,47.7,56.5l0.3,0.1c29.7,15.3,63.2,1.7,95.5-11.5c8.8-3.6,17-6.9,25.2-9.8
						c67.5-23.1,521.8,73.6,571,90.5l-6.9,20.2c-27.1-9.3-154.4-37.5-277.9-59.8c-151-27.4-255.4-38.8-279.3-30.6
						c-7.6,2.6-15.6,5.9-24.1,9.3C76.8,1687.6,43.1,1701.3,9.7,1692.2z"/>
				</g>
				<g id="path5935_1_">
					<path d="M15.3,1592c-26.8,16.5-41.9,37.6-41.9,70.7"/>
					<path class="st15" d="M-37.3,1662.7c0-34.6,14.9-60,47-79.8l11.2,18.2c-25.8,15.9-36.8,34.4-36.8,61.6L-37.3,1662.7z"/>
				</g>
				<g id="path5937_1_">
					<path d="M62.3,1623c-23,12.6-26.8,31.3-26.8,58.6"/>
					<path class="st15" d="M24.8,1681.7c0-25.4,2.5-51.6,32.4-68l10.3,18.7c-18.1,9.9-21.3,23.8-21.3,49.3H24.8z"/>
				</g>
			</g>
		</g>
		<g id="path5834_1_">
			<path d="M1727.9,1570.7c28.6-144.4,428.6-13.5,414,54.9C2135.8,1654.3,1762.1,1596.2,1727.9,1570.7L1727.9,1570.7z"/>
			<path class="st15" d="M2102.7,1642.8c-54.8,0-144.8-12.8-177.1-17.7c-81.4-12.3-183.5-32-203.4-46.9l-4.8-3.6l1.2-5.8
				c5.9-30,27-51.8,60.9-63.2c98-32.8,290.7,26.1,351.3,80.3c16.3,14.5,23.1,28.5,20.3,41.7c-0.7,3.5-3.3,8.3-11.1,11.2
				C2132.4,1641.7,2119.2,1642.8,2102.7,1642.8z M1738.9,1565.9c22.1,9.7,96,26.6,196.6,41.5c124.9,18.5,185,18.6,197.5,13.9
				c-0.3-5.6-5.4-13.3-14.6-21.4c-56.2-50.2-241.9-106.9-332.8-76.4C1760.7,1531.9,1745,1546.1,1738.9,1565.9z"/>
		</g>
		<g id="path5832_1_">
			<path d="M1297.6,1743.2c258.4,124.7,509.7,55.2,784,29.9c98-25.7,182.8,19.4,266.4,38.3c85.4,19.3,105.9-159.7,26.6-196.2
				c-182.3-83.8-395.7-12.6-575.5-30.9c-61.7-0.1-337.4-143-356-96.3C1420,1546.1,1355.1,1749.1,1297.6,1743.2L1297.6,1743.2z"/>
			<path class="st15" d="M1636.6,1824.4c-114.5,0-227.8-17.5-343-73.1l4.8-17c9.7,1,31.1-7.4,65.3-74.8
				c23.3-45.9,43.7-101.3,58.7-141.8c4.9-13.2,9.1-24.5,12.4-32.9c13.5-33.9,92.6-6,221.4,44c59,22.9,120,46.6,143,46.7h0.9
				c64.5,6.6,132.5,1.6,204.5-3.8c125.7-9.3,255.6-18.9,373.8,35.4c24.5,11.3,42.5,35.7,50.5,68.7c7,28.7,5.6,62.1-3.6,89.3
				c-14.4,42.4-44,63-79.2,55.1c-21.8-4.9-44-11.7-65.5-18.2c-62.1-18.9-126.3-38.5-196.7-20.1l-1.4,0.3
				c-53.2,4.9-106.1,11.6-157.3,18C1827.1,1812.4,1731.5,1824.4,1636.6,1824.4z M1322.4,1744.9c198.5,87.9,394,63.4,600.5,37.4
				c51.1-6.4,103.9-13.1,157.1-18c75-19.4,141.4,0.9,205.7,20.5c22.2,6.8,43.1,13.1,64.2,17.9c36.6,8.3,53-27.6,58.3-43.3
				c20.5-60.6-3.3-120.2-37.4-135.9c-114-52.4-241.6-43-365-33.8c-72.6,5.4-141.3,10.4-207.2,3.8c-26.5-0.3-83.3-22.4-149-47.9
				c-47.5-18.4-96.6-37.5-135.4-48.6c-57.7-16.5-62.7-6-62.8-5.5c-3.3,8.2-7.4,19.4-12.2,32.5
				C1404.4,1618.1,1364.7,1717.3,1322.4,1744.9z"/>
		</g>
		<g id="path5830_1_">
			<path d="M1238.6,1294.9c-78-113.8,631.5,225.5,464.1,260.3c-32.7,6.8-112-63.9-160.6-33c-103.8,66-175.8,338.1-334.6,256.4"/>
			<path class="st15" d="M1264.8,1803.3c-19.1,0-39.6-5-61.6-16.3l8.6-16.8c43.6,22.4,82.4,18.3,122.3-13
				c36.4-28.6,68.5-75.9,99.5-121.7c34-50.1,66.1-97.5,103.5-121.3c34-21.6,78.6-1,114.6,15.6c19.4,8.9,39.4,18.2,49.2,16.2
				c10.7-2.2,17.2-5.8,18-9.9c0.7-3.7,0-25.2-84.1-80.9c-62.4-41.3-153.9-89.8-238.9-126.6c-106-45.8-145.5-49.6-153.6-46.9
				c0.4,1.3,1.3,3.8,4.2,7.9l-15.6,10.7c-8.7-12.6-10-22.8-4-30.2c5-6.3,18.4-22.9,143.1,27.3c77.4,31.1,169.2,76.9,239.6,119.6
				c32.6,19.7,131.8,79.8,128.2,120.2c-0.8,9.5-7.3,22-33.1,27.4c-15.8,3.3-36.7-6.3-60.9-17.5c-33.4-15.4-71.2-32.8-96.5-16.8
				c-34.1,21.7-65.1,67.4-98,115.9C1398.7,1720.7,1342.7,1803.3,1264.8,1803.3z"/>
		</g>
		<g id="g6383_1_">
			<g id="path5802_1_">
				<path d="M850.9,1454.4c67.6-61.2,109-86.6,127.2-145.2c8.6-27.9,0.7-76.9,8.9-115.5c1.8-8.5,152.9,23.9,164.1,32.3
					c142,106.4,208.3,225.8,167.4,417.5c-46.2,216.5-427.2,198.3-473.9-25.9c-5.6-26.7-170.7-74.9-156.3-100.3
					C709.6,1479.8,817.8,1466.3,850.9,1454.4L850.9,1454.4z"/>
				<path class="st15" d="M1097.7,1805.6c-0.3,0-0.6,0-0.9,0c-59.5-0.2-117.7-16.8-164-46.9c-51.9-33.7-85.6-81.9-97.5-139.2
					c-3.3-8.5-46.2-28.3-71.8-40.1c-49.1-22.6-79.4-37.3-84.7-53.6c-1.5-4.6-1-9.2,1.3-13.2c17.7-31.1,79.7-45.6,129.5-57.2
					c14.9-3.5,28-6.5,36.3-9.3c12.9-11.7,25.1-22.2,35.8-31.6c45.8-39.7,73.5-63.7,87.2-108.2c4-12.8,4.1-31.8,4.2-51.9
					c0.1-21.1,0.2-42.8,4.5-62.8c0.8-3.5,3.3-6.4,6.9-7.7c17.3-6.5,159.2,24.7,172.1,34.4c158.4,118.6,209.5,246.3,171,427
					C1307,1742.8,1216.7,1805.6,1097.7,1805.6z M697.1,1520.8c5.2,9.6,48.2,29.4,74.2,41.4c50.4,23.2,79.1,37.1,82.4,53.4
					c24.4,117.2,143.1,170.9,243.1,171.1c0.2,0,0.5,0,0.7,0c83.5,0,188.7-38,211.6-145.3c19.4-91,14.7-167.9-14.5-235
					c-26.9-61.9-74.4-116.9-149.3-173c-10.5-6.2-123-31.2-150.3-31.9c-2.7,16.6-2.9,35-3,53c-0.1,21.5-0.2,41.9-5,57.3
					c-15.4,49.6-46.2,76.4-92.9,116.9c-11.1,9.6-23.6,20.5-37,32.6l-1.4,1.3l-1.8,0.6c-9.3,3.3-23.6,6.7-40.2,10.5
					C773.2,1483.3,712,1497.5,697.1,1520.8z"/>
			</g>
			<g>
				<path d="M1123.3,1497.3C1024.7,1601.7,1145.5,1603.9,1123.3,1497.3L1123.3,1497.3z"/>
				<path class="st15" d="M1094.8,1586.9c-6.9,0-13.1-3-17-8.7c-5.8-8.3-13.8-33.5,37.9-88.2l13.8-14.6l4.1,19.7
					c10.1,48.8-7.3,80.5-27.8,89.4C1102.1,1586.1,1098.4,1586.9,1094.8,1586.9z M1094.9,1565.9L1094.9,1565.9c1,0,3.9-0.6,7.7-4.2
					c7-6.6,13.1-20,13-39.6C1094.2,1548.9,1093.5,1562.9,1094.9,1565.9z"/>
			</g>
			<path class="st15" d="M1006.5,1644c-41-1.9-63.9,12.4-68.5,27.4c-2.4,8,0.5,15.8,7.4,20c3.4,2.1,7.4,3.1,11.8,3.1
				c14.9,0,34.9-11.4,56.2-32.5l17-16.9L1006.5,1644z M998.3,1658.9c-52,51.5-68.2-3-3.1,0H998.3z"/>
			<g>
				<path d="M1053.9,1744.1C1128.8,1800.2,1134.8,1669.2,1053.9,1744.1L1053.9,1744.1z"/>
				<path class="st15" d="M1088.6,1769c-11.3,0-25.1-4.6-41-16.5l-10.1-7.6l9.2-8.6c40.7-37.7,61.3-26.3,68.2-19.6
					c10.5,10,10.5,28.2,0,40.5C1109.2,1764.1,1100.2,1769,1088.6,1769z M1071.4,1742.9c14.1,7.5,23.3,5.7,27.6,0.7
					c3.4-4,3.6-9.7,1.5-11.8C1098.5,1730,1089.5,1729,1071.4,1742.9z"/>
			</g>
			<g id="path5814_1_">
				<path d="M1220.4,1717.7c-14.3,25.2-37,56.2-93.3,44.3c5.2,33.2-10.7,42.6-18.1,53.6"/>
				<path class="st15" d="M1116.9,1820.9l-15.6-10.6c1.7-2.5,3.7-4.9,5.6-7.1c7.1-8.4,14.5-17.1,11-39.7l-2.1-13.5l13.4,2.8
					c49.8,10.5,69-15,83.1-39.7l16.4,9.3c-10.1,17.7-32.8,57.6-91,50.9c0.3,22.5-9.5,34-16.4,42.1
					C1119.6,1817.4,1118,1819.2,1116.9,1820.9z"/>
			</g>
			<g id="path5816_1_">
				<path class="st15" d="M1167.7,1698.8l-14.7-11.9c51.7-64,125.8-86.9,204.3-111.1c22.6-7,46-14.2,69.1-22.5l6.4,17.8
					c-23.5,8.5-47.1,15.8-70,22.8C1287.3,1617.2,1215.7,1639.3,1167.7,1698.8z"/>
			</g>
			<g id="path5818_1_">
				<path d="M1183.1,1696.5c57-26.2,130.8-42.1,187.6-30.7"/>
				<path class="st15" d="M1187,1705l-7.9-17.2c51.3-23.6,129-44.3,193.4-31.4l-3.7,18.5C1318.7,1665,1249,1676.5,1187,1705z"/>
			</g>
			<g id="path5820_1_">
				<path d="M1061.5,1763.2c-35.6,20.4-62.1,43.3-78.8,78.6"/>
				<path class="st15" d="M991.3,1845.9l-17.1-8.1c16-33.7,41.4-59.2,82.6-82.8l9.4,16.4C1028.1,1793.3,1005.7,1815.5,991.3,1845.9z
					"/>
			</g>
			<g id="path5822_1_">
				<path d="M1072.7,1781.7c-12.1,24.7-19.2,58.5-23.7,79.6"/>
				<path class="st15" d="M1058.2,1863.3l-18.5-3.9l0.2-0.8c4.7-22.1,11.9-55.6,24.3-81l17,8.3c-11.4,23.3-18.2,55.4-22.8,76.6
					L1058.2,1863.3z"/>
			</g>
			<g id="path5824_1_">
				<path d="M1065,1240.8c265.6,105.5,15.6,52.4,9,59.8c0,0-36.4-7.9-49.8,1.5C989.5,1192.7,1028.8,1226.4,1065,1240.8z"/>
				<path class="st15" d="M1019,1317.3l-3.9-12.3c-18.7-59-16.1-76.8-6.3-85.4c11.2-9.9,27.5-2.2,44.8,5.8c4.9,2.3,10,4.7,14.8,6.6
					c44.7,17.8,77.7,32.2,97.9,42.9c20.8,11,32.3,19.5,29.6,30.4c-3.7,14.7-26.2,13.6-85,6.9c-11.9-1.3-26.3-3-32.1-3l-1.5,1.7
					l-5.4-1.2c-13.1-2.8-35.5-4.8-42.3,0L1019,1317.3z M1078.8,1290.4c6.5,0,16.9,1.1,34.3,3.1c15.6,1.8,41.1,4.7,56.2,4.7l0,0
					c-12.2-7.5-40.9-22-107.8-48.6l0,0c-5.4-2.1-10.7-4.6-15.8-7c-7.8-3.6-20.6-9.6-24.4-8.6c-0.9,1.4-4.6,10.5,8.9,55.7
					c15.1-3.5,34.9-0.4,43.1,1.2C1074.7,1290.5,1076.5,1290.4,1078.8,1290.4z"/>
			</g>
			<g id="path5826_1_">
				<path d="M859.6,1531.4c-84.7-57.8-144.4-14.4-116.9-0.5c0,0,0,0,84.7,42.8C840,1580.1,848.6,1550.6,859.6,1531.4z"/>
				<path class="st15" d="M830.9,1584c-2.6,0-5.3-0.6-7.8-1.9l-84.7-42.8c-7.5-3.8-11.8-10-11.9-17.1c-0.1-8.4,5.7-16.3,16-21.8
					c22.9-12.3,68.7-13.6,122.4,23.1l7.2,4.9l-4.3,7.6c-2.6,4.6-5.2,10-7.7,15.3c-7.2,15.1-13.4,28.2-23.9,31.8
					C834.5,1583.7,832.7,1584,830.9,1584z M745.6,1521.7c0.3,0.2,0.7,0.5,1.3,0.8l83.8,42.3c3.4-2.9,8.9-14.4,12.3-21.5
					c1.4-2.9,2.8-5.8,4.2-8.7c-39.4-24.6-72.7-26.4-91.4-19.5C749.3,1517.6,746.5,1520.4,745.6,1521.7z"/>
			</g>
		</g>
	</g>
	<g id="layer6_1_">
		<g id="path6025_1_">
			<path d="M2251,1225c-46.6-2.8-200.1-7-232-30.8c-3.2-2.4-44.8-16.8-45.2-16.2c-1.3,1.9,20.8,15.6,22.7,17.7
				c14.7,16.2-21.8,33.4-10.6,55.2c16.2,31.6,23.2,64.6,7.1,87.2c-8.8,14.7-36.1,63.8-33.7,78.5c0.3,1.8,34.2-12.3,36.6-13.4
				c16-6.8,40.2-15.4,54.5-25.8c31-22.5,117.3-39.7,133.3-53.3C2214.1,1300,2237.8,1258.6,2251,1225L2251,1225z"/>
			<path class="st15" d="M1959.2,1424.9c-1.8,0-2.7-0.5-3.7-1.1l-3.5-1.9l-0.7-4.1c-3.1-19.3,28.4-73.4,34.7-84l0.4-0.6
				c16.5-23.2,2.3-59.2-7.7-78.6c-7.8-15.1,0.8-28.3,7.1-37.9c6.7-10.2,7.2-12.6,5-15.2c-1-0.8-3.9-2.8-6.3-4.4
				c-14.5-9.9-17.9-12.7-18.8-17.4l-0.6-3.4l2.1-3.1c1.3-1.8,3.3-3,5.4-3.4c2.2-0.3,3.2-0.5,25.9,7.5c22.2,7.8,24.3,9.4,25.4,10.2
				c25.8,19.2,150.9,25.3,204.3,28c9.2,0.5,17.2,0.8,23.3,1.2l11.3,0.7l-4.1,10.5c-6.3,16.1-29.9,71-69.8,102.6
				c-7.9,6.7-26.3,12.8-55.7,22.2c-29,9.3-61.9,19.8-77.9,31.3c-12.1,8.7-29.6,15.8-45.1,22.1c-3.9,1.6-7.7,3.1-11,4.5
				C1972.5,1422.1,1963.4,1424.9,1959.2,1424.9z M1999.9,1342.5c-12.8,21.5-25.8,47.5-30.6,62.4c8.3-3.2,19.1-7.5,23.4-9.4
				c3.4-1.5,7.3-3,11.3-4.7c13.9-5.6,31.2-12.6,41.6-20.2c18.1-13.1,52.3-24,82.5-33.7c21.8-7,44.3-14.2,50.3-19.3
				c22.7-18,44.8-49.3,60.5-85.2c-3.6-0.2-7.4-0.4-11.6-0.6c-88.5-4.4-185.1-10.7-213-31c-1.1-0.6-3.6-1.6-7-2.9
				c3.3,10.3-3.3,20.4-7.9,27.5c-6.5,10.1-9.3,15.5-6.2,21.4C2013.6,1286.8,2015.9,1319.7,1999.9,1342.5z M2014.1,1200.8
				C2014.1,1200.8,2014.2,1200.8,2014.1,1200.8C2014.1,1200.9,2014.1,1200.8,2014.1,1200.8z"/>
		</g>
		<g id="g6338_1_" transform="matrix(0.9095487,0,0,0.89745374,60.186329,25.908364)">
			<g id="path6027_1_">
				<path d="M1998.7,1181.4c-42.8-4.9-84.4,4.5-124.4,17.6c-41.9,16.4-103.2,27.1-147.3,31.6c-37.3,2.7-73.1-17.1-109.4-14.5
					c-39.9-0.3,24.9,103.3,35.1,120.3c12.7,70.4,4.6,115.8,10.4,156c9.4,30.8,26.1,67.6,53.4,82.9c16.5,18.2,110,23.6,147.6,58.4
					c42.9,28.6,81.3,40,120.3,6.9c10-8.4,29.7-14,37-26.1c5.8-9.5,28.5-11,34.4-17.7c6.7-8.5,17.8-6.3,25.5-12.8
					c3.3-2.8,38.1-36.1,40.3-41.1c0.9-2,33-39.8,39.9-44.1c22.8-30.9,18.7-83.6-0.4-173.9c-17.9-17.5-35.4-46.6-28-71.8
					c3.3-25.3,7.6-45.7,5.1-69.7c-3.8-30.3-12-98.2-53.8-62.8C2042.9,1139.3,2036,1162.8,1998.7,1181.4L1998.7,1181.4z"/>
				<path class="st15" d="M1934.2,1670.1c-26.8,0-52.2-13.5-75-28.7l-1.1-0.9c-19.9-18.4-59.2-28.6-90.9-36.7
					c-27-7-46.8-12.1-56.2-21.1c-29.9-17.5-47.2-57.1-56.5-87.5l-0.3-1.4c-2.4-16.8-2.5-33.8-2.6-53.5c-0.1-28.1-0.3-60-7.4-100.5
					l-0.9-1.5c-40.4-66.5-54.1-103.9-44.5-121.2c2.1-3.8,7.3-10,18.6-10.1c19.2-1.3,38,3.1,56.2,7.4c18.2,4.3,35.4,8.4,52.8,7.1
					c42.6-4.4,103.2-14.9,144.7-31.1l0.5-0.2c33.7-11,78.3-23,125.5-18.3c15.1-7.9,24.8-16.7,35-26c12.4-11.3,25.2-22.9,47.9-33.3
					c12.8-10.5,24.7-13.7,35.3-9.5c23.5,9.3,28.9,52.3,32.2,78l0.1,0.9c2.2,20.7-0.4,38.8-3.2,57.9c-0.7,4.6-1.3,9.3-2,14.1
					l-0.3,1.4c-5.9,20.2,8.6,46,25.6,62.6l2,1.9l0.6,2.7c24.7,116.8,18.2,154.9-1.2,181.3l-1,1.4l-1.5,0.9
					c-5.3,3.6-33.6,36.2-37,41.2c0.4-0.5,0.5-0.9,0.6-1.2c-3.5,8.2-42.4,44.2-42.8,44.5c-5,4.2-10.6,5.8-15.1,7.1
					c-4.7,1.3-7.4,2.2-9.2,4.4l-0.3,0.4c-4.2,4.8-11.2,7.1-18.7,9.6c-5,1.6-13.3,4.4-14.8,6.9c-5.8,9.6-16.6,15.4-26.1,20.5
					c-5,2.7-9.8,5.3-12.9,7.9C1971.2,1663.9,1952.4,1670.1,1934.2,1670.1z M1869.7,1626.5c47.4,31.4,78,33.4,109,7.2
					c4.5-3.8,10.4-7,16-10c7.8-4.2,15.9-8.5,19.1-13.9c5-8.2,15.4-11.6,24.6-14.7c3.7-1.2,9.3-3.1,10.8-4.4
					c5.5-6.7,12.5-8.7,18.1-10.3c3.4-1,6.4-1.8,8.4-3.5c3.7-3.1,34.8-33.2,38.1-38.4c-0.2,0.3-0.3,0.5-0.3,0.7
					c2-4.7,31.8-38.7,41.7-46.9c20.5-29.2,14.8-82-2.1-162.9c-18.5-19-36.4-50.1-28.6-78.3c0.6-4.7,1.3-9.3,1.9-13.7
					c2.7-18.8,5-35,3.1-53.2l-0.1-0.7c-2-15.8-7.3-57.9-20.8-63.3c-5.3-2.1-12.7,2.8-18.1,7.3l-1,0.8l-1.2,0.5
					c-20.8,9.3-32.2,19.7-44.3,30.7c-11.1,10.1-22.7,20.6-41.4,29.9l-2.4,1.2l-2.6-0.3c-44.7-5.1-87.8,6.5-120.4,17.1
					c-43.1,16.8-105.4,27.6-149.4,32.1c-20.4,1.4-39.8-3.1-58.5-7.5c-17.8-4.2-34.6-8.2-51.2-7h-0.4h-0.3c-0.8,0-2.7,0.1-3.1,0.7
					c-1.4,2.6-6.1,19.8,44.2,102.6l2.7,4.5l0.3,1.7c7.7,42.9,7.9,76.1,8,105.4c0.1,18.7,0.2,35,2.3,50.3
					c8.5,27.5,23.8,62.8,48.9,76.9l1.3,0.7l1,1.1c5.2,5.7,28.2,11.7,48.4,16.9C1805,1594.6,1846.4,1605.3,1869.7,1626.5z"/>
			</g>
			<g id="path6009_1_">
				<path d="M1962,1557.1c-11.3-2-79.7,7.4-70.2,19c4.1,5.1,41,32.1,45,31.2C1947.6,1604.8,1971.1,1565.5,1962,1557.1z"/>
				<path class="st15" d="M1936.4,1616.6c-3.4,0-9.2-2.3-27.2-15.1c-2.1-1.5-20.2-14.4-24.3-19.5c-3.4-4.2-3.9-9.7-1.2-14.3
					c9.3-16.1,71.2-21.2,80-19.6l2.6,0.5l1.9,1.8c3.4,3.2,6.8,9.4,3.7,21.3c-4,15.4-19.9,41.6-33,44.6
					C1938.2,1616.5,1937.4,1616.6,1936.4,1616.6z M1938.4,1598.4L1938.4,1598.4L1938.4,1598.4z M1904.2,1575
					c8.8,7,25.2,18.7,32,22.4c6.4-5.1,16.5-22.5,18.5-31.3c-5.7,0.2-15,1.1-25.8,2.9C1916.6,1571.1,1908.8,1573.3,1904.2,1575z"/>
			</g>
			<g id="path6011_1_">
				<path d="M1865.1,1488.3c-0.3-37.5-61.9-72.9-84-36.6c-2.4,4-1.4,8.2,0,13c7.5,25.6,43.6,36.2,58.8,31.9c12-3.4,15.9-8.6,29-9"/>
				<path class="st15" d="M1832.3,1506.7c-20.9,0-52.1-12.8-59.9-39.4c-1.5-5.1-3.7-12.7,1-20.5c10.2-16.8,28.9-23.3,50-17.4
					c24.7,7,50.5,30.9,50.7,58.7h-5.2l0.3,8.6c-6.3,0.2-9.5,1.7-14.3,3.9c-3.4,1.6-7.2,3.3-12.5,4.8
					C1839.4,1506.3,1836,1506.7,1832.3,1506.7z M1808.3,1445.7c-7.1,0-14.4,2.6-19.5,10.9c-0.5,0.7,0.5,3.9,1,5.6
					c6,20.5,36.9,28.7,47.7,25.7c3.9-1.1,6.8-2.4,9.9-3.8c2.4-1.1,4.8-2.2,7.6-3.1c-4.3-15.5-20.9-29.3-36.4-33.7
					C1815.4,1446.3,1811.9,1445.7,1808.3,1445.7z"/>
			</g>
			<g id="path6013_1_">
				<path d="M1972.8,1469.1c-10.8-45.4,29.1-85.9,71.4-63.9c17,8.8,1.7,40.7-23,53.9C2002.9,1470.5,1986.2,1460.7,1972.8,1469.1z"/>
				<path class="st15" d="M1966.9,1483.6l-2.9-12.3c-6.3-26.4,2.4-53.6,22-69.2c17.7-14.2,41-16,62.3-5c7.6,4,12.1,11.5,12.1,20.6
					c0.1,17.1-15.1,38.8-34.8,49.4c-11.9,7.3-23.2,7.3-32.3,7.3c-6.6,0-11.8,0-15.8,2.5L1966.9,1483.6z M2020.2,1408.2
					c-8.3,0-16.2,2.8-23,8.2c-11.6,9.3-17.9,24.4-17.1,40.4c13.1-2.3,24.6,1.7,36.3-5.5l0.5-0.3c15-8,25.4-23.9,25.4-33.2
					c0-3-1.1-3.8-2.3-4.4C2033.5,1409.9,2026.7,1408.2,2020.2,1408.2z"/>
			</g>
			<g id="path6015_1_">
				<path d="M1757.1,1270.9c-12.3-15.5-33.1-23.2-51.8-29c-10.4-3.2-21.4-4-32.4-5.1c-10.1-1-43.1-7.3-50.5-1.1
					c-5.5,4.7,8.3,23,9.8,26.8c8.8,23.1,49.1,104.7,71.1,96c20.2-8,24.4-46.9,40.1-60.3C1746.5,1295.7,1757.5,1274.8,1757.1,1270.9
					L1757.1,1270.9z"/>
				<path class="st15" d="M1699.8,1368.4c-2.7,0-5.7-0.6-9.2-2.1c-28.1-12.5-61.8-87.2-66.9-100.4c-0.2-0.3-1.3-2.1-2-3.4
					c-6.1-10-15.3-25.1-5.1-33.8c7.6-6.5,22.6-5.7,49.5-2c3.2,0.4,5.9,0.8,7.8,1l3.3,0.3c10.1,1,20.5,2,30.8,5.1
					c21.2,6.5,42.6,14.9,56.2,32l1.7,2.1l0.3,2.7c0.9,8.3-13,32.1-16.9,35.4c-5.2,4.4-9.6,14.3-13.8,23.9c-6.5,15-14,31.9-28.9,37.8
					C1704.8,1367.8,1702.6,1368.4,1699.8,1368.4z M1631.3,1242.4c1.6,3.6,4.5,8.3,5.8,10.5c1.9,3.1,2.9,4.8,3.5,6.4
					c10.2,26.7,40.5,82.7,57.3,90.2c1.3,0.6,1.9,0.5,2,0.5c8-3.1,13.5-15.9,18.9-28.2c5-11.4,10.1-23.1,18.4-30.3
					c2.1-2.5,7.5-12.6,9.8-18.2c-10.8-11.1-27.6-17.4-44.4-22.6c-8.5-2.6-17.6-3.5-27.2-4.4l-3.4-0.3c-2-0.2-5-0.6-8.5-1.1
					C1657.2,1244,1639.6,1241.6,1631.3,1242.4z M1737.6,1291.3C1737.6,1291.3,1737.5,1291.3,1737.6,1291.3
					C1737.5,1291.3,1737.6,1291.3,1737.6,1291.3z M1748.1,1270.3L1748.1,1270.3L1748.1,1270.3z M1627.8,1243.2L1627.8,1243.2
					L1627.8,1243.2z"/>
			</g>
			<g id="path6017_1_">
				<path d="M2101.1,1293.9c-18.5,2.2-32.8-7.8-47.2-17c-9.4-6-18.3-8.1-25.4-16.8c-3.1-3.8-8-12.1-10-17.3
					c-8.4-22.1-8.5-41.9,9.4-62.3c22.6-16.1,36.2-28,52.6-36.9c6.6-5.8,26.8-23.4,33.6-15.1c9.1,11.2,6,37,8.4,52.5
					c3.3,21.8-5.6,40.9-7.4,61.5C2113.7,1257.7,2111.1,1282.6,2101.1,1293.9L2101.1,1293.9z"/>
				<path class="st15" d="M2096,1303.3c-17.7,0-31.9-9.1-44.5-17.2l-2.5-1.6c-2.7-1.7-5.3-3.1-8.2-4.5c-6.6-3.4-13.4-6.8-19.4-14.2
					c-3.5-4.3-9-13.4-11.4-19.8c-6.7-17.7-12.9-44.4,11-71.7l0.7-0.8l0.9-0.6c7.4-5.3,14-10.2,19.8-14.5
					c11.6-8.7,21.7-16.3,32.9-22.4c15.7-13.7,26.6-19.5,35.3-18.8c4.3,0.4,7.9,2.3,10.5,5.5c8.2,10.1,8.8,26.6,9.3,41.2
					c0.2,5.9,0.4,11.4,1.1,15.8c2.3,15.5-0.7,29.4-3.6,42.7c-1.6,7.2-3.1,14.1-3.7,21c-2,22.1-5.3,44.3-16.3,56.6l-2.3,2.6l-3.4,0.4
					C2100,1303.2,2098,1303.3,2096,1303.3z M2033.9,1187.3c-13.2,15.5-15.2,30.6-7,52.1c1.6,4.3,6.1,11.7,8.5,14.8
					c3.6,4.4,8,6.7,13.6,9.5c2.9,1.5,6.3,3.2,9.7,5.4l2.5,1.6c11.9,7.6,22.3,14.3,34.8,14.3c0.1,0,0.2,0,0.4,0
					c6.8-11.1,8.9-34.1,9.7-43.3c0.7-8.1,2.4-15.8,4.1-23.3c2.7-12.3,5.2-23.9,3.4-36c-0.8-5.4-1-11.5-1.3-17.9
					c-0.4-10.3-0.8-22.8-4.3-28.9c-2.3,0.6-8.5,3.3-21.6,14.8l-0.8,0.7l-0.9,0.5c-10.4,5.6-19.7,12.6-31.6,21.5
					C2047.5,1177.4,2041.2,1182.1,2033.9,1187.3z"/>
			</g>
			<g id="path6035_1_">
				<path d="M1997.6,1626.2c-11.6,7.2-57.5,15.5-56.9-14.9c-9.4,23.6-32.6,58.5-59.7,33.3"/>
				<path class="st15" d="M1900.1,1662.5c-7.1,0-15.9-2.5-25.3-11.1l12.2-13.5c8.3,7.7,14,6.4,15.9,6c11.4-2.6,22.9-20,29.3-36
					l17.4,3.6c-0.1,5.9,2.3,8.1,4.7,9.5c10.3,6,32.3,1.3,38.4-2.6l9.5,15.6c-10.1,6.3-39.3,13.1-56.9,2.9c-2-1.2-3.8-2.5-5.4-4
					c-7.3,12.1-18.4,25.5-33.1,28.8C1905,1662.1,1902.7,1662.5,1900.1,1662.5z"/>
			</g>
			<g id="path6037_1_">
				<path d="M2003.6,1559.4c73.8-38,150.8-22.9,231.3-15.1"/>
				<path class="st15" d="M2007.7,1567.6l-8.2-16.4c66.9-34.4,134.4-27.1,205.9-19.2c10.1,1.1,20.2,2.2,30.4,3.2l-1.7,18.3
					c-10.2-1-20.4-2.1-30.6-3.2C2134.7,1542.7,2069.8,1535.6,2007.7,1567.6z"/>
			</g>
			<g id="path6039_1_">
				<path d="M2014.2,1577.7c52.1-13.5,105-18,159.1-12.7"/>
				<path class="st15" d="M2016.5,1586.6l-4.5-17.8c53.4-13.9,107.9-18.2,162.2-13l-1.7,18.3
					C2120.3,1569,2067.8,1573.2,2016.5,1586.6z"/>
			</g>
			<g id="path6041_1_">
				<path class="st15" d="M1741.8,1659.2l-14.6-10.8c34.9-48.5,62.9-79.1,132.7-63.6l-3.9,17.9
					C1795.5,1589.2,1774.2,1614.1,1741.8,1659.2z"/>
			</g>
			<g id="path6043_1_">
				<path class="st15" d="M1779,1662.3l-9.5-15.6c5.5-3.4,10.9-7,16.3-10.5c26.9-17.6,54.6-35.8,90.2-38.8l1.5,18.3
					c-31,2.6-55.7,18.8-81.9,35.9C1790.1,1655.2,1784.6,1658.9,1779,1662.3z"/>
			</g>
		</g>
		<g id="g6351_1_" transform="matrix(0.84357734,-0.5370077,0.5370077,0.84357734,241.28174,346.58678)">
			<g id="path6019_1_">
				<path d="M1149.7,1882.3c-3.8-31.4,4.4-35.6,22.9-51.3c119.8-101.4,219.3,89.9,116.4,79.9c-28.4-2.8-55.3-10.2-83.2-12.9
					C1183.3,1895.8,1169.9,1890.4,1149.7,1882.3L1149.7,1882.3z"/>
				<path class="st15" d="M1142.1,1888.1l-0.6-4.8c-3.9-32.2,4.4-40.7,22.1-55.4l3.7-3.1c61.9-52.4,112.4-27.2,131.3-14
					c31.3,21.9,48.4,59.1,39,84.6c-3.8,10.3-15.3,27.1-49.4,23.8c-14.6-1.4-28.9-4.1-42.7-6.6c-13.9-2.6-27-5-40.6-6.3
					c-23.3-2.3-37.7-8-57.6-16L1142.1,1888.1z M1285.8,1821.9c-46.1-29.3-90.5,0.8-107.8,15.4c-1.3,1.1-2.6,2.2-3.8,3.2
					c-14.1,11.8-18.6,15.6-16.8,36c17.2,6.9,29.6,11.4,49.2,13.3c14.3,1.4,28.4,4,42,6.5c13.4,2.5,27.3,5,41.3,6.4
					c12.1,1.2,27.6-0.1,32.4-13.1c6-16.2-5.8-46.4-33-65.4C1288.1,1823.4,1286.9,1822.6,1285.8,1821.9z"/>
			</g>
			<g id="path6332_1_">
				<path class="st15" d="M1185.2,1899.5c1.7-15.9,4.4-27.3,14.1-42.2l14.3,9.3c-7.8,12.1-9.9,20.8-11.4,34.7L1185.2,1899.5z"/>
			</g>
			<g id="path6334_1_">
				<path class="st15" d="M1255.7,1904.4l1.1-3.5c3.6-10.9,6.7-20.3,4.9-35.3l17-2c2.2,18.7-1.8,30.9-5.6,42.6l-1.1,3.4
					L1255.7,1904.4z"/>
			</g>
			<g id="path6336_1_">
				<path class="st15" d="M1223.7,1904.7l1.2-4c3.2-10.9,6.8-23.3,7.4-36.4l17.1,0.8c-0.7,15.2-4.6,28.6-8.1,40.4l-1.1,3.9
					L1223.7,1904.7z"/>
			</g>
		</g>
	</g>
</g>
</svg>
