<?xml version="1.0" encoding="utf-8"?>
<!-- Generator: Adobe Illustrator 22.0.1, SVG Export Plug-In . SVG Version: 6.00 Build 0)  -->
<svg version="1.1" id="Layer_1" xmlns="http://www.w3.org/2000/svg" xmlns:xlink="http://www.w3.org/1999/xlink" x="0px" y="0px"
	 viewBox="0 0 735 852" style="enable-background:new 0 0 735 852;" xml:space="preserve">
<style type="text/css">
	.st0{fill:#968C81;}
	.st1{fill:#523F2D;}
	.st2{fill:#A75F33;}
	.st3{fill:#BE7641;}
	.st4{fill:#DBA976;}
	.st5{fill:#BE8F63;}
	.st6{fill:#C4956A;}
	.st7{fill:#FFFFFF;}
	.st8{fill:#404040;}
	.st9{fill:#666666;}
</style>
<path class="st0" d="M18.2,626.4V223.1l51.6-29.8L367.5,21.5l0,0l296.7,171.3l52.6,30.3v403.3L367.5,828L18.2,626.4z"/>
<title>forcats</title>
<path class="st1" d="M705.6,196.2L427.8,35.8L367.4,1l0,0L350,11.1l-42.9,24.8L29.3,196.2L0,213.1l0,0v424.2l0,0l24.2,14l5.1,3
	l59.5,34.3l221.8,128.1l56.9,32.8l56.9-32.8l281.3-162.4l29.3-16.9l0,0V213.1l0,0L705.6,196.2z M705.6,352.4v130.1
	c1,2.3,1.8,4.6,2.4,7c2,8.6,1.7,17.6-1,26c-0.4,1.2-0.9,2.3-1.4,3.4v102.6L367.4,816.7l-0.6-0.4l-1.2-0.7L29.3,621.5V348.7l0,0
	l41.8-25.9l42.1-24.2l3.5-2c-6.8-19.3,2-46,14.5-58.8c1.9-2.7-0.3-20.3-1-26c-0.5-3.8-0.8-6.5-0.8-8c0-0.6-0.4-2.9-0.8-4.7
	c-1.7-8.7-2.7-15.1,0.2-18.1c2.9-3,7.8-0.4,21.8,7.2c5.8,3.2,14.5,8,16.7,8h0.1h1.5c22.2,0,56.6,8.5,79.5,24.7l33.2-19.1l32.2-18.7
	c1.2-3.2,1.9-6.6,2.1-10.1c-5.1-20.1-5.9-40.2-2.3-58.1l0-0.2l0.1-0.2c2.1-5,5.7-5.8,7.6-5.9c5.2-0.2,10.7,4.4,13.2,9.1
	c0.6,0.7,1.2,1.3,1.8,2c5,5.5,10.2,11.2,16.2,15.7c13.6-3.3,27.6-2.4,41.1-1.6c4.3,0.3,8.7,0.5,13.1,0.6c2.3-2.5,4.6-5.2,6.7-7.9
	c6.4-7.7,13-15.7,22.4-20.5l0.7-0.4l0.8,0.2c9.6,2.1,9,12,8.6,19.2c-0.2,2-0.2,4.1-0.1,6.1v0.1v0.1c-0.4,10.9-2.4,22.4-6.4,37.3
	c0.1,4.3,1.2,8.4,2.5,12.8s2.5,9,2.6,13.8c0.2,1.3,0.3,2.6,0.4,4l6.3,3.7l85,49.8l85,49.8l42.6,24.8L705.6,352.4L705.6,352.4z"/>
<path class="st1" d="M372.1,526.4c-1.1,0.1-2.3,0.2-3.4,0.2c-3.9,0-7.7-0.7-11.4-2l8.9,4.9L372.1,526.4z"/>
<path class="st2" d="M663.5,328.6L621,303.7L536,254l-85-49.8l-5.8-3.4c0.3,11.4-2.7,24.7-11.8,34.3c0.7,0.2,1.3,0.4,2,0.6l-1.2,4.5
	l-1.1-0.3c0.1,11.1,4.9,22.9,9.6,34.5c4.1,10.1,8.3,20.5,9.5,30.7c2.7,2.6,5.5,6.7,8.8,13.3c0.8,1.7,2.6,4.8,5.1,8.9
	c3,0.7,6.1,1,9.2,0.8c11.3-1.1,27.4-3.9,38.3-8.1h0.1c9-2.9,20.8-6,33.3-4.8c3.4-1.8,6.5-4.1,9.3-6.8c3.7-3.6,8-6.6,12.7-8.7
	c3.4-2.8,6.5-3.6,9.3-2.5c6.2,2.4,7.7,13.7,8.5,20.4v0.2c0.6,5.4-0.1,10.1-0.8,15.2c-0.2,1.2-0.3,2.4-0.5,3.7l-0.1,0.4
	c-0.8,2.7-0.2,5.7,1.2,8.6c1.2,0.3,2.3,0.8,3.3,1.5c7.5,5.5,43.6,7.4,59.3,8.1c5.5-7.6,14.5-11.8,23.8-11.4
	c10.8,0.5,20.6,6.6,22.7,14.1l9.8-4.9v-0.8L663.5,328.6z"/>
<path class="st2" d="M643.7,383.5c-0.7,0.8-1.5,1.6-2.2,2.3l2.8-1.5C644,384.1,643.8,383.8,643.7,383.5z"/>
<path class="st2" d="M625.4,394.1l-3.7,1.2c-8.5,2.7-18,5.8-22.7,9.1c-2.2,1.5-4.5,2.8-7,3.9c1.7,0.1,3.4,0.3,5.1,0.5l23.8-12.4
	L625.4,394.1z"/>
<path class="st2" d="M581.4,414.4l-0.5,0.6c1.4,0,2.9,0,4.3,0l1.9-1L581.4,414.4z"/>
<path class="st3" d="M249.8,221.6c6.3,4.5,11.7,10.1,16,16.5c3.9,6.1,6.1,17.8,6.2,18.3l0.1,0.3v0.3c-0.1,1.6-0.5,3.1-1.2,4.5
	c-0.3,0.7-0.6,1.4-0.7,2.1c0,5.3,0,11.1-0.3,17.2l0.1,0.1c2.8,2.3,4,5.3,5.1,8c0.9,2.2,1.6,4.1,3,5.3c3.2,1.8,6.4,3.4,9.6,5
	c6.4-10.6,14.3-20,23.8-26.2l0.9-0.6c1.1-4.6,2.2-9.2,3.3-13.7c2.7-10.7,5.2-20.9,6.9-31.1c-6.9-6.2-12.9-14.7-13.2-25.5
	c-0.2-5.7,1.6-10.8,3.5-15.8c0.1-0.3,0.2-0.6,0.3-1L282.2,203L249.8,221.6z"/>
<path class="st3" d="M201.4,438.1c-1.1,0.2-2.1,0.4-3.1,0.6l1.6,0.9C200.4,439.1,200.9,438.6,201.4,438.1z"/>
<path class="st3" d="M71.7,370.7l42.1,22.6l24.2,13c1.2-0.9,2.5-1.8,3.9-2.6c-3.9-1.7-6.8-3.8-8.6-6.4c-1.9-2.7-2.4-6.2-1.3-9.3
	c0.3-5.6-0.5-12.5-1.2-19.2c-1.4-12.6-2.8-24.5,1.6-32l0.1-0.1c-1-1.7-1.9-3.6-2.7-5.5c-9.6-0.2-37,2.6-43.4,3.7l-1.1-6.1
	c3.2-0.5,12.4-1.7,22.1-2.5c-3.8-0.3-7.1-0.5-8.6-0.5v-6.2c2,0,6.6,0.3,11.8,0.7c4.9,0.3,10.8,0.8,15.4,0.9c-1.3-4.5-2.2-9-2.8-13.6
	c-2.6-2.8-4.6-6.1-6-9.7l-3.5,2l-42.1,24.3l-42.3,24.5l0,0l0,0L71.7,370.7z"/>
<path class="st4" d="M512.8,706.3c-2.2,1.3-3.1,4.1-3.1,6.4c0,2.6,1.3,3.8,3.1,2.7s3.1-3.7,3.1-6.3
	C515.8,707.1,514.9,705.1,512.8,706.3z"/>
<path class="st4" d="M488,720.6c-2.2,1.3-3.1,4.1-3.1,6.4c0,2.6,1.3,3.8,3.1,2.7s3.1-3.7,3.1-6.3C491.1,721.4,490.2,719.3,488,720.6
	z"/>
<path class="st4" d="M471.1,730.5c-1.9,1.1-3,3.7-3,6.3c0,2.4,1,3.8,3,2.6c1.4-0.9,2.4-2.4,2.7-4.1c0.1-0.3,0.1-0.7,0.1-1v-2
	c0-0.3,0-0.6-0.1-0.8C473.5,730.2,472.5,729.7,471.1,730.5z"/>
<path class="st4" d="M469,647.3c1.5,0.2,3,0,4.5-0.5c1.8-0.6,3.6-1.4,5.3-2.3c3.6-1.9,6.9-4.3,9.9-7.1c2.5-2.4,4.7-5.1,6.6-8
	c1.5-2.4,2.8-5,3.7-7.7c0.7-2.1,1.1-4.3,1.2-6.5l-0.1-12.9c-1.6,2.1-3.5,4-5.6,5.7c-2.3,1.8-4.8,3.5-7.5,5.3
	c-2.5,1.7-5.1,3.5-7.8,5.4c-2.6,1.8-5,3.8-7.2,6c-2.1,2.1-3.9,4.6-5.3,7.2c-1.3,2.7-2,5.7-1.9,8.7c-0.1,1.7,0.3,3.4,1.1,4.9
	C466.7,646.4,467.8,647,469,647.3z"/>
<path class="st4" d="M683.8,531.5c-6.4-1.4-12.8-3.4-19.1-5.3c-16.8-5.1-34.1-10.4-52.9-6.8c1.2,2.7,1.9,5.7,2,8.7l-9.9,5.2
	c0-1.7-0.6-3.4-1.6-4.9c-0.8-1.1-2-1.8-3.3-2c-1.5-0.2-3-0.1-4.5,0.4c-1.7,0.4-3.3,1-4.9,1.8c-1.6,0.8-3.2,1.8-4.7,2.8
	c-1.5,1.1-2.9,2.3-4.2,3.7c-1.3,1.3-2.3,2.8-3.1,4.4c-0.8,1.6-1.2,3.3-1.2,5.1c0,2.1,0.6,3.5,1.9,4.2c1.5,0.7,3.2,1,4.9,0.8
	c2.2-0.2,4.4-0.6,6.5-1.2c2.4-0.7,4.8-1.3,7.1-2c2.4-0.7,4.8-1.2,7.3-1.5c2.1-0.4,4.3-0.3,6.3,0.4c1.9,0.5,3.5,1.6,4.5,3.3
	c1.2,1.7,1.8,4.2,1.8,7.6c0.1,4.1-0.6,8.2-2.2,12c-1.4,3.7-3.4,7.1-5.8,10.2c-2.4,3.1-5.2,5.9-8.3,8.2c-2.9,2.3-6,4.4-9.2,6.3
	c-3.1,1.8-6.4,3.2-9.8,4.2c-2.7,0.9-5.6,1.1-8.4,0.6c-2.5-0.6-4.6-2.2-6-4.4c-1.5-2.4-2.4-5.8-2.6-10.3l10.4-5.6
	c0,2.1,0.5,4.1,1.6,5.9c0.9,1.2,2.3,2,3.8,2.3c1.8,0.1,3.6-0.1,5.3-0.7c2.1-0.7,4.2-1.6,6.1-2.7c1.7-1,3.4-2,5-3.2
	c1.7-1.2,3.3-2.6,4.7-4.1c1.5-1.5,2.7-3.3,3.6-5.2c0.9-2,1.4-4.1,1.3-6.3c0-3-1-4.8-3-5.3c-2.5-0.5-5-0.4-7.5,0.2
	c-3.3,0.6-6.5,1.5-9.7,2.5c-3.2,1-6.6,1.6-9.9,1.9c-2.7,0.2-5.4-0.6-7.6-2.2c-2.1-1.6-3.1-4.7-3.2-9.4c0-3.6,0.6-7.2,2-10.6
	c1.4-3.3,3.2-6.4,5.4-9.1c2.2-2.8,4.7-5.3,7.5-7.5l1-0.8c-6.8,0.8-13.6,1.7-20.3,2.5c-6,0.8-12,1.5-17.9,2.2l0.1,15.3l0,0l12.9-6.6
	l0.1,10.7l-13,6.7l0.4,46.2c0,1.1,0.1,2.2,0.3,3.3c0.2,0.6,0.7,1.1,1.3,1.3c0.8,0.1,1.7,0,2.4-0.3c1.1-0.5,2.5-1.2,4.2-2.1l4.9-2.7
	l0.1,10.7l-8.2,4.5c-2.3,1.3-4.7,2.5-7.2,3.4c-1.6,0.6-3.3,0.7-4.9,0.2c-1.4-0.7-2.4-2-2.7-3.5c-0.7-2.6-1.1-5.3-1-7.9l-0.4-47.7
	l-11.4,5.9l-0.1-10.9l11.4-5.8l-0.2-19.5c-18.7,2.1-37.1,3.6-55.4,3.6c-28.5,0-56.8-3.7-85.3-14.9c-5.9,4.5-12.2,7.6-19.2,8.5
	l-6.4,3.2l0.6,41.8v244.9l0.6,0.4l338.1-195.2V518.9C701,528.9,693.1,533.6,683.8,531.5z M512.7,717c-2.8,1.6-4.9,0.5-4.9-3.2
	c0-3.7,1.9-7.2,5-9.1c2.9-1.7,4.9-0.4,4.9,3.2C517.7,711.6,515.8,715.1,512.7,717L512.7,717z M503.5,722.3c-3.1,1.8-5.1,0.5-5.1-3.1
	c0.1-3.9,2.1-7.4,5.5-9.4c0.8-0.5,1.7-0.8,2.6-0.9l-0.4,1.9c-0.8,0-1.5,0.3-2.1,0.7c-2.2,1.4-3.6,3.9-3.6,6.5c0,2.7,1.5,3.5,3.6,2.3
	c0.9-0.5,1.6-1.1,2.3-1.9l0.3,1.4C505.6,720.9,504.6,721.7,503.5,722.3L503.5,722.3z M495.6,726.9c-0.7,0.4-1.2,0-1.2-0.8
	c0-0.9,0.5-1.8,1.3-2.2c0.7-0.4,1.2-0.1,1.2,0.8C496.9,725.6,496.4,726.4,495.6,726.9L495.6,726.9z M458.8,748.2
	c-1.6,0.9-3.5,1-3.5-3.1v-6.9l1.9-1.1v6.5c0,2.2,0.6,3.4,2.3,2.4c1.2-0.8,2.1-2,2.4-3.3c0.1-0.4,0.2-0.8,0.2-1.2v-7.2l1.9-1.1v8.5
	c0,1.2,0,2.3,0.1,3.2l-1.6,1l-0.1-1.9h0C461.5,745.8,460.3,747.2,458.8,748.2L458.8,748.2z M454.2,636.2c1.4-3.5,3.2-6.8,5.5-9.8
	c2.3-3,4.9-5.8,7.8-8.3c3-2.5,6-4.8,9-7c3.2-2.4,6.2-4.5,9-6.3c2.9-1.9,5.4-3.8,7.6-5.5c1.9-1.6,3.7-3.5,5.1-5.5
	c1.2-1.9,1.9-4.2,1.8-6.5c0-2.8-0.5-4.7-1.5-5.9c-0.8-1.2-2.2-1.9-3.6-2c-1.7-0.1-3.4,0.2-5,0.8c-1.9,0.7-3.7,1.4-5.4,2.4
	c-4.7,2.3-8.9,5.6-12.4,9.5c-3.3,3.7-5.1,8.6-5.4,14.5l-11.9,6.2c0.1-4.7,1.1-9.4,2.8-13.8c1.6-4.2,3.9-8,6.7-11.5
	c2.7-3.5,5.9-6.6,9.4-9.3c6.3-4.8,13.3-8.5,20.7-11.1c2.7-1,5.6-1.4,8.5-1.2c2.4,0.2,4.6,1.4,6,3.3c1.5,2,2.3,5.2,2.3,9.6l0.3,39.2
	c-0.1,2.1,0.1,4.2,0.4,6.3c0.4,1.2,1.4,1.3,3.2,0.3c1.2-0.7,2.4-1.6,3.4-2.6l0.1,9.7l0,0c-2.2,2.6-5,4.8-8,6.4
	c-2.9,1.6-5.3,2.1-7.1,1.3c-1.7-0.9-2.6-3.5-2.6-7.7c-5.5,10.8-14.1,19.7-24.7,25.6c-2.9,1.7-6.1,3-9.3,4c-2.5,0.8-5.1,0.9-7.6,0.4
	c-2.2-0.5-4.1-1.9-5.3-3.8c-1.2-2.2-1.9-5.3-1.9-9.2C452,644.3,452.7,640.2,454.2,636.2L454.2,636.2z M534.6,698.8v5.3l-1.8,1v-6.6
	c0-2.3-0.7-3.2-2.2-2.3c-1.1,0.8-1.9,1.9-2.2,3.2c-0.1,0.4-0.1,0.8-0.2,1.2v7.2l-1.8,1v-7c0-1.9-0.7-2.8-2.1-2
	c-1.2,0.8-2,2.1-2.3,3.5c-0.1,0.4-0.1,0.7-0.1,1.1v7.1l-1.8,1v-8.5c0-1.2,0-2.2-0.1-3.1l1.6-0.9l0.1,1.8h0.1c0.6-1.7,1.7-3.1,3.2-4
	c1.4-0.8,2.5-0.5,2.9,0.7l0,0c0.3-0.8,0.7-1.5,1.1-2.2c0.6-0.9,1.3-1.6,2.2-2.1c1.3-0.8,3.4-0.9,3.4,3.1L534.6,698.8z M493,722.2
	c0,3.7-1.9,7.2-5.1,9.2c-2.8,1.6-4.9,0.5-4.9-3.2c0-3.7,1.9-7.2,5-9.1C491,717.3,493,718.6,493,722.2z M479.7,722.1
	c-0.7,0.4-1.1,0.1-1.1-0.7c0-0.8,0.5-1.6,1.2-2c0.7-0.4,1.1-0.1,1.1,0.7C480.9,720.9,480.4,721.7,479.7,722.1L479.7,722.1z
	 M480.7,735.2l-1.9,1.1v-11.7l1.9-1.1V735.2z M474.4,721.7l1.3-0.8v14.2c0,1,0,2.2,0.1,3l-1.7,1l-0.1-2l0,0
	c-0.6,1.8-1.9,3.3-3.5,4.3c-2.5,1.4-4.4,0.1-4.4-3.4c0-3.9,2.1-7.5,4.5-8.9c1.6-0.9,2.6-0.7,3.1,0h0v-7L474.4,721.7z M450.6,748.8
	c0,1.5,0.4,2.1,1.4,1.5c0.4-0.2,0.8-0.5,1.1-0.8l0.1,1.5c-0.5,0.5-1,0.9-1.6,1.3c-0.9,0.5-1.6,0.6-2,0.2s-0.7-1.3-0.7-2.6v-6.4
	l-1.6,0.9v-1.6l1.6-0.9v-2.1l1.8-1.7v2.8l2.6-1.5v1.6l-2.6,1.5L450.6,748.8z M442.3,752.2c-1.8,0.3-2.7-0.4-2.7-1.8
	c0.2-2.3,1.5-4.4,3.5-5.5c0.7-0.5,1.6-0.7,2.5-0.7l-0.5,1.8c-0.7-0.1-1.5,0.1-2.1,0.5c-1,0.5-1.6,1.5-1.7,2.6c0,1,0.6,1,2,0.9
	c1.8-0.2,2.7,0.2,2.7,2c-0.2,2.4-1.6,4.6-3.8,5.7c-0.9,0.6-1.9,0.9-2.9,0.8l0.5-1.9c0.9,0.1,1.7-0.1,2.4-0.6c1.1-0.5,1.9-1.6,2-2.9
	C444.2,752.2,443.6,752,442.3,752.2L442.3,752.2z M435,761.7l-1.8,1.1v-8.1c0-1.4,0-2.6-0.1-3.6l1.6-0.9l0.1,2.3h0.1
	c0.4-1.7,1.4-3.2,2.8-4.2c0.2-0.1,0.3-0.2,0.5-0.2v2c-0.2,0.1-0.4,0.2-0.6,0.3c-1.4,1-2.3,2.5-2.5,4.2c-0.1,0.3-0.1,0.7-0.1,1
	L435,761.7z M430.8,762.8c0,0.9-0.5,1.8-1.3,2.3l0,0c-0.7,0.4-1.2,0-1.2-0.8c0-0.9,0.5-1.8,1.3-2.2
	C430.3,761.5,430.8,761.9,430.8,762.8L430.8,762.8z M427.7,754.1l-3.3,13.6l-1.7,1l-1.6-4.7c-0.4-1.1-0.7-2.2-0.9-3.3h0
	c-0.2,1.5-0.6,3-0.9,4.4l-1.6,6.5l-1.7,1l-3.1-10l1.9-1.1l1.4,5.2c0.3,1.1,0.6,2.2,0.8,3.3h0.1c0.2-1.3,0.6-2.8,0.9-4.2l1.6-6.9
	l1.6-0.9l1.6,5c0.4,1.2,0.7,2.3,0.9,3.3h0.1c0.2-1.3,0.4-2.7,0.8-4.2l1.4-6.7L427.7,754.1z M411.9,763.2l-3.2,13.6l-1.7,1l-1.6-4.7
	c-0.4-1.1-0.7-2.2-0.9-3.3l0,0c-0.2,1.6-0.6,3-0.9,4.4l-1.6,6.5l-1.7,1l-3.1-10l1.9-1.1l1.4,5.2c0.3,1.1,0.6,2.2,0.8,3.3h0.1
	c0.2-1.3,0.6-2.8,0.9-4.2l1.6-6.9l1.6-0.9l1.6,5c0.4,1.2,0.7,2.2,0.9,3.3h0.1c0.2-1.3,0.4-2.7,0.8-4.3l1.4-6.7L411.9,763.2z
	 M381.3,780.9l1.9-1.1l1.4,5.2c0.3,1.1,0.6,2.2,0.8,3.3h0.1c0.2-1.3,0.6-2.8,0.9-4.3l1.7-7l1.6-0.9l1.6,5c0.4,1.2,0.7,2.2,0.9,3.3
	h0.1c0.2-1.3,0.4-2.7,0.8-4.3l1.4-6.7l1.8-1.1l-3.2,13.6l-1.7,1l-1.6-4.7c-0.4-1.1-0.7-2.2-0.9-3.3l0,0c-0.2,1.5-0.6,2.9-0.9,4.4
	l-1.6,6.5l-1.7,1L381.3,780.9L381.3,780.9z M374.3,654.4c1.5-6.2,3.9-12.1,7-17.7c3.2-5.7,7.1-10.9,11.7-15.4
	c4.7-4.7,10.2-8.7,16.1-11.7c3.8-2,7.9-3.5,12.2-4.5c3.3-0.9,6.7-1,10-0.1c2.9,0.8,5.4,2.5,7.1,5c1.8,2.4,3,5.9,3.5,10.3l-12.8,6.7
	l0,0c-1-4.6-3.1-7.4-6.2-8.6c-3.1-1.2-7.4-0.4-12.8,2.4c-4.3,2.2-8.3,5.1-11.6,8.6c-3.1,3.3-5.6,7-7.6,11.1c-1.9,4-3.2,8.1-4,12.4
	c-0.8,4.2-1.2,8.4-1.2,12.6c0,3.5,0.4,7.1,1.3,10.5c0.7,2.8,2.2,5.4,4.1,7.5c2,1.8,4.5,2.8,7.2,2.8c2.9,0.1,6.4-1,10.4-3.2
	c5.9-3.1,10.9-7.6,14.6-13.2c3.5-5.4,5.7-11.6,6.4-18l12.6-6.8c-1.2,10.2-4.7,20-10.4,28.6c-5.9,8.8-13.8,16-23.1,21
	c-5.9,3.3-11.2,5.3-15.9,5.8c-4.7,0.6-8.6-0.1-11.7-2.1c-3.3-2.3-5.8-5.6-7.2-9.4c-1.7-5.1-2.5-10.5-2.4-15.9
	C371.9,666.7,372.7,660.5,374.3,654.4L374.3,654.4z"/>
<path class="st4" d="M695.9,358.7c0.7,3.1,0.5,9-8.4,13.6c-3.8,1.9-7.7,3.5-11.5,5.1s-7.4,3-11,4.8c-6.1,3.1-10.5,3.9-16.7,5.1
	l-1.6,0.3l-0.9-1.1c-0.3-0.4-0.6-0.7-0.8-1.1l-7.6,4c-1,0.7-2.1,1.2-3.3,1.7l-12.5,6.5l-22,11.4l2.8,0.3c2.7,0.3,5.4,0.6,8,0.8
	l-0.2,2.4l0,0l-0.2,2.4c-2.7-0.3-5.4-0.6-8.1-0.9l-6-0.6l-5.5,0.4l-2.5,1.3c2.1,0.1,4.1,0.2,6.2,0.4l-0.2,2.4l0,0l-0.2,2.4
	c-4.9-0.5-9.9-0.6-14.8-0.5l-5.5,2.8c-1.3,1.2-2.2,2.1-2.3,2.1c-1.2,0.9-2.5,1.5-4,1.9c-0.9,0.1-1.8,0.5-2.4,1.2l-0.1,0.1
	c-1.1,1.2-3,1.9-5,2.5c-1.3,0.4-3.5,1.1-3.9,1.8c-1.5,2.5-4.4,4-6.9,5.4h-0.1c22.9,2,48.8,10.5,64.2,19.8
	c27.4-1.1,54.9,0.4,80.5,12.1c5.3,2.4,9.5,7,12.3,13V353.2l-9.7,5.2C695.9,358.5,695.9,358.6,695.9,358.7z"/>
<path class="st5" d="M365.6,780.5V571.4l0.6-41.8l-10.7-5.6c-1.6-0.6-3.2-1.3-4.7-2.1l0.1-0.1c-6.9,2.7-14.1,4.4-21.5,5.1
	c-0.7,1.2-1.6,2.3-2.5,3.3c-0.5,0.5-0.9,1.1-1.3,1.6l-2.3-1.5l0,0l-2.3-1.6c0.3-0.5,0.7-1,1.1-1.4c-0.7,0-1.4,0-2.1,0h-0.2
	c-2.3,0-4.6-0.1-6.8-0.3c-1.8,5.5-3.3,11.1-4.4,16.8v0.2l-2.7-0.6l0,0l-2.7-0.5v-0.2c1.1-5.5,2.5-10.9,4.2-16.3
	c-2.6-0.3-5.1-0.8-7.6-1.4c-4.5,3.8-8.2,8.6-10.7,14l-5-2.3c2.3-4.9,5.5-9.4,9.4-13.3c-7.6-2.2-14.8-5.5-21.5-9.8
	c-15-9.9-24.9-23.9-28.4-40.7c-1-2.5-13.5-8.2-20.9-11.7c-14.3-6.6-23.2-10.9-24.7-15.6c-0.4-1.3-0.3-2.7,0.4-3.9
	c0.3-0.5,0.6-0.9,0.9-1.3l-1.7-0.9l-1.1-0.6c-7.3,1.5-12.2,3-14.3,4.4c-1.9,1.3-3.9,2.9-6.1,4.5c-7.6,5.8-16,12.2-26.1,12.2
	c-1.7,0-3.3-0.2-4.9-0.5c-11.2-2-19.4-7.9-22.4-16.2c-3.2-8.8-0.5-19.3,7.9-29.5c1.8-2.6,4-4.9,6.5-6.8l-23.7-12.7l-42.1-22.6
	l-41.8-23.2v272.8l336.3,194.2V780.5z M311.7,608.3L311.7,608.3l13.4,6.9l0,17.1l0.3,0.2c3.5-4.7,7.8-7.4,13-7.9s11.8,1.4,20,5.8
	v14.4c-6-3.1-11.1-5.1-15.3-5.8c-4.1-0.7-7.5-0.3-10,1.2c-2.7,1.7-4.6,4.4-5.4,7.4c-1.2,4.2-1.8,8.5-1.6,12.8l0.1,35.7l-14.2-8.1
	L311.7,608.3L311.7,608.3z M285.9,605.2c3.4,5.3,6,11.1,7.8,17.2c1.7,5.7,2.6,11.6,2.7,17.6c0.2,5-0.7,10-2.5,14.7
	c-1.4,3.7-4.1,6.8-7.6,8.7c-3.4,1.7-7.5,2.2-12.3,1.5s-10.2-2.9-16.5-6.5c-11.5-6.4-21-15.7-27.8-27c-3-5.1-5.4-10.6-7.1-16.3
	c-1.6-5.4-2.4-10.9-2.5-16.5l0,0c-0.2-4.8,0.5-9.5,2.1-14.1c1.2-3.6,3.6-6.8,6.8-8.8c3.1-2,6.9-2.8,11.5-2.5s10,2.1,16.2,5.2
	c6.1,3.1,11.7,7,16.7,11.7C278.2,594.5,282.4,599.6,285.9,605.2z M187,544.2l-0.2-10.9c-0.1-6,1.5-9.6,4.7-11
	c3.4-1.5,8.3-0.6,14.8,2.6c1.1,0.5,2.4,1.3,3.8,2.2c1.4,0.8,2.7,1.8,4,2.8l0.1,10.7c-1.1-0.9-2.2-1.7-3.4-2.4
	c-1.1-0.7-2.2-1.4-3.4-2c-2.9-1.4-5.1-2-6.7-1.6s-2.3,2.2-2.3,5.4l0.1,10.3l14,7.2l0.1,10.8l-14-7.3l0.9,62.6l-11.6-6.7l-0.9-62l0,0
	l-11.7-6.1l-0.2-10.5L187,544.2z"/>
<path class="st5" d="M266.3,596.3c-2.8-2.7-6-5.1-9.5-6.9c-2.9-1.6-6.2-2.6-9.5-3c-2.6-0.3-5.3,0.3-7.5,1.6
	c-2.3,1.5-4.1,3.7-5.1,6.3c-1.2,3.6-1.8,7.4-1.6,11.2l0,0c0,4.4,0.7,8.9,1.9,13.1c1.3,4.1,3,8.1,5.2,11.7c2.2,3.5,4.7,6.7,7.6,9.7
	c2.8,2.8,6,5.3,9.5,7.3c2.9,1.7,6.1,2.9,9.4,3.4c2.7,0.5,5.5,0.1,8-1c2.4-1.4,4.3-3.6,5.2-6.2c1.5-3.7,2.2-7.6,2-11.5
	c0-4.6-0.7-9.2-2.1-13.6C277.4,610,272.8,602.4,266.3,596.3L266.3,596.3z"/>
<polygon class="st6" points="366.8,780.5 366.8,696.9 366.8,613.2 366.8,571.4 366.2,529.6 365.6,571.4 365.6,613.2 365.6,696.9 
	365.6,780.5 365.6,815.6 366.8,816.3 "/>
<path class="st0" d="M664,327.2l-42.5-24.9l-85-49.8l-85-49.8l-6.3-3.7c0,0.6,0,1.1,0.1,1.7l5.8,3.4l85,49.8l85,49.8l42.5,24.9
	l42,23.8l0,0L664,327.2z"/>
<path class="st0" d="M357.3,524.6c-0.6-0.2-1.2-0.4-1.8-0.7l10.7,5.6L357.3,524.6z"/>
<path class="st0" d="M71.1,371.8l42.1,22.6l23.7,12.7c0.4-0.3,0.7-0.5,1.1-0.8l-24.2-13l-42.1-22.6l-42.4-22.1L71.1,371.8z"/>
<path class="st7" d="M199.1,440.6c0.2-0.3,0.5-0.7,0.8-1l-1.6-0.9l-1.9,0.4l1.1,0.6L199.1,440.6z"/>
<path class="st7" d="M695.8,358.4l9.7-5.2l0,0l-9.8,4.9L695.8,358.4z"/>
<path class="st0" d="M625.4,394.1l-4.4,2.3l-23.8,12.4l2.2,0.2l22.1-11.5l12.5-6.5C631.9,392,629,393,625.4,394.1z"/>
<path class="st0" d="M644.2,384.3l-2.8,1.5c-1.1,1.1-2.2,2.1-3.4,3c-0.2,0.2-0.4,0.4-0.7,0.5l7.6-4
	C644.7,385,644.5,384.7,644.2,384.3z"/>
<path class="st0" d="M587.2,414l-1.9,1l2.5,0.1l2.5-1.3L587.2,414z"/>
<path class="st0" d="M576,420c-1,1-2,1.9-2.8,2.7l5.5-2.8C577.8,419.9,576.9,419.9,576,420z"/>
<path class="st0" d="M372.6,526.4h-0.5l-5.9,3.2L372.6,526.4z"/>
<path class="st0" d="M249.8,221.6l32.5-18.6l31-17.8c0.2-0.7,0.5-1.4,0.7-2.1l-32.2,18.6l-33.2,19.1L249.8,221.6z"/>
<path class="st0" d="M71.7,324.2l42.1-24.2l3.5-2c-0.2-0.5-0.3-0.9-0.5-1.4l-3.5,2l-42.1,24.2l-41.8,25.9l0,0L71.7,324.2z"/>
<path d="M187.2,554.8L187.2,554.8l0.9,62l11.6,6.7l-0.9-62.6l14,7.3l-0.1-10.8l-14-7.2l-0.2-10.2c-0.1-3.2,0.7-5,2.3-5.4
	c1.6-0.4,3.8,0.2,6.7,1.6c1.2,0.6,2.3,1.3,3.4,2c1.2,0.7,2.4,1.5,3.4,2.4l-0.1-10.7c-1.3-1-2.6-2-4-2.8c-1.4-0.9-2.7-1.6-3.8-2.2
	c-6.5-3.2-11.4-4-14.8-2.6s-4.8,5.1-4.7,11l0.2,10.9l-11.7-6l0.2,10.5L187.2,554.8z"/>
<path d="M273.4,590c-5-4.7-10.6-8.6-16.7-11.7c-6.2-3.1-11.6-4.9-16.2-5.2c-4.6-0.3-8.4,0.5-11.5,2.5c-3.2,2.1-5.6,5.2-6.8,8.8
	c-1.6,4.5-2.3,9.3-2.1,14.1l0,0c0.1,5.6,0.9,11.2,2.5,16.5c1.7,5.7,4,11.2,7.1,16.3c6.8,11.3,16.3,20.6,27.8,27
	c6.3,3.6,11.8,5.8,16.5,6.5c4.9,0.7,9,0.2,12.3-1.5c3.5-1.9,6.1-5,7.6-8.7c1.8-4.7,2.6-9.7,2.5-14.7c-0.1-6-1-11.9-2.7-17.6
	c-1.8-6.1-4.4-11.8-7.8-17.2C282.4,599.6,278.2,594.5,273.4,590z M282,632.1c0.2,3.9-0.5,7.9-2,11.5c-1,2.6-2.8,4.8-5.2,6.2
	c-2.5,1.1-5.3,1.5-8,1c-3.3-0.5-6.5-1.7-9.4-3.4c-3.5-2-6.7-4.4-9.5-7.3c-2.9-2.9-5.5-6.2-7.6-9.7c-2.2-3.7-4-7.6-5.2-11.8
	c-1.2-4.3-1.9-8.7-1.9-13.2l0,0c-0.2-3.8,0.4-7.6,1.6-11.2c1-2.6,2.7-4.8,5.1-6.3c2.3-1.3,4.9-1.9,7.5-1.6c3.3,0.4,6.6,1.4,9.5,3
	c3.5,1.8,6.7,4.2,9.5,6.9c6.4,6,11.1,13.7,13.5,22.1C281.3,622.9,282,627.5,282,632.1z"/>
<path d="M326.2,696.1l-0.1-35.7c-0.1-4.3,0.4-8.6,1.6-12.8c0.8-3.1,2.8-5.7,5.4-7.4c2.5-1.5,5.8-1.9,10-1.2s9.3,2.6,15.3,5.8v-14.4
	c-8.1-4.4-14.8-6.3-20-5.8c-5.2,0.5-9.5,3.1-13,7.9l-0.3-0.2l0-17.1l-13.4-6.9L312,688L326.2,696.1z"/>
<path d="M381.4,698.3c3.2,2,7.1,2.7,11.7,2.1c4.6-0.6,9.9-2.5,15.9-5.9c9.3-5,17.2-12.2,23.1-21c5.7-8.6,9.2-18.4,10.4-28.6
	l-12.6,6.8c-0.7,6.4-2.9,12.6-6.4,18c-3.7,5.5-8.7,10.1-14.6,13.2c-4,2.2-7.5,3.3-10.4,3.2c-2.7,0-5.2-0.9-7.2-2.8
	c-2-2.1-3.4-4.7-4.1-7.5c-0.9-3.4-1.3-7-1.2-10.5c0-4.2,0.4-8.4,1.2-12.6c0.8-4.3,2.1-8.5,4-12.4c2-4,4.5-7.8,7.6-11.1
	c3.3-3.5,7.2-6.5,11.6-8.6c5.3-2.8,9.6-3.5,12.8-2.4s5.2,4,6.2,8.6l0,0l12.8-6.7c-0.5-4.5-1.7-7.9-3.5-10.3c-1.7-2.5-4.2-4.2-7.1-5
	c-3.3-0.8-6.7-0.8-10,0.1c-4.2,0.9-8.3,2.4-12.2,4.5c-6,3-11.5,7-16.2,11.7c-4.6,4.6-8.6,9.7-11.8,15.4c-3.1,5.6-5.5,11.5-7,17.7
	c-1.5,6.1-2.3,12.3-2.3,18.6c-0.1,5.4,0.7,10.8,2.4,16C375.6,692.7,378.1,696,381.4,698.3z"/>
<path d="M459.3,661.5c2.5,0.5,5.1,0.4,7.6-0.4c3.3-1,6.4-2.3,9.3-4c10.6-5.9,19.2-14.8,24.7-25.6c0,4.2,0.9,6.7,2.6,7.7
	c1.8,0.8,4.1,0.4,7.1-1.3c3-1.6,5.8-3.8,8-6.4l0,0l-0.1-9.7c-1,1-2.2,1.9-3.4,2.6c-1.7,1-2.8,0.9-3.2-0.3c-0.3-2.1-0.5-4.2-0.4-6.3
	l-0.3-39.2c0-4.4-0.8-7.6-2.3-9.6c-1.4-1.9-3.6-3.1-6-3.3c-2.9-0.3-5.8,0.2-8.5,1.2c-7.4,2.6-14.4,6.4-20.7,11.1
	c-3.5,2.7-6.7,5.8-9.4,9.3c-2.8,3.5-5.1,7.3-6.7,11.5c-1.7,4.4-2.7,9.1-2.8,13.8l11.9-6.2c0.3-5.9,2-10.7,5.4-14.5
	c3.5-3.9,7.7-7.2,12.4-9.5c1.8-0.9,3.6-1.7,5.4-2.4c1.6-0.6,3.3-0.9,5-0.8c1.5,0.1,2.8,0.8,3.6,2c1,1.2,1.5,3.1,1.5,5.9
	c0,2.3-0.6,4.5-1.8,6.5c-1.4,2.1-3.2,3.9-5.1,5.5c-2.2,1.7-4.7,3.6-7.6,5.5c-2.8,1.8-5.8,3.9-9,6.3c-3,2.2-6,4.5-9,7
	c-2.9,2.5-5.5,5.2-7.8,8.3c-2.3,3-4.1,6.3-5.5,9.8c-1.5,3.9-2.2,8-2.1,12.2c0,4,0.6,7.1,1.9,9.2C455.2,659.6,457.1,661,459.3,661.5z
	 M466.7,631.9c1.4-2.7,3.2-5.1,5.3-7.2c2.2-2.2,4.6-4.2,7.2-6c2.7-1.9,5.3-3.7,7.8-5.4c2.6-1.8,5.1-3.6,7.5-5.3
	c2.1-1.6,4-3.5,5.6-5.7l0.1,12.9c-0.1,2.2-0.5,4.4-1.2,6.5c-0.9,2.7-2.2,5.3-3.7,7.7c-1.9,2.9-4.1,5.6-6.6,8c-3,2.8-6.3,5.2-9.9,7.1
	c-1.7,0.9-3.4,1.7-5.3,2.3c-1.4,0.5-3,0.7-4.5,0.5c-1.2-0.2-2.3-0.9-3.1-1.8c-0.8-1.5-1.2-3.2-1.1-4.9
	C464.7,637.6,465.4,634.6,466.7,631.9z"/>
<path d="M521.2,554.5l0.1,10.9l11.4-5.9l0.4,47.7c-0.1,2.7,0.3,5.4,1,7.9c0.4,1.5,1.4,2.8,2.7,3.5c1.6,0.4,3.3,0.4,4.9-0.2
	c2.5-1,4.9-2.1,7.2-3.4l8.2-4.5l-0.1-10.7l-4.9,2.7c-1.7,0.9-3.1,1.6-4.2,2.1c-0.8,0.3-1.6,0.4-2.4,0.3c-0.6-0.2-1.1-0.7-1.3-1.3
	c-0.2-1.1-0.3-2.2-0.3-3.3l-0.4-46.2l12.9-6.7l-0.1-10.7l-12.9,6.6l0,0l-0.1-15.3c-3.6,0.4-7.2,0.9-10.8,1.3l0.2,19.5L521.2,554.5z"
	/>
<path d="M573,531.4c-2.2,2.8-4,5.9-5.4,9.2c-1.4,3.3-2,6.9-2,10.6c0,4.7,1.1,7.9,3.2,9.4c2.2,1.6,4.9,2.4,7.6,2.2
	c3.4-0.3,6.7-0.9,9.9-1.9c3.2-1,6.4-1.9,9.7-2.5c2.4-0.7,5-0.8,7.5-0.2c2,0.5,3,2.3,3,5.3c0,2.2-0.4,4.3-1.3,6.3
	c-0.9,1.9-2.1,3.7-3.6,5.2c-1.4,1.5-3,2.9-4.7,4.1c-1.6,1.2-3.3,2.2-5,3.2c-1.9,1.1-4,2-6.1,2.7c-1.7,0.6-3.5,0.8-5.3,0.7
	c-1.5-0.3-2.9-1.1-3.8-2.3c-1.1-1.8-1.7-3.8-1.6-5.9l-10.4,5.6c0.2,4.5,1.1,7.9,2.6,10.3c1.3,2.2,3.5,3.8,6,4.4
	c2.8,0.5,5.7,0.3,8.4-0.6c3.4-1,6.7-2.4,9.8-4.2c3.2-1.8,6.3-3.9,9.2-6.3c3.1-2.4,5.9-5.1,8.3-8.2c2.4-3.1,4.4-6.5,5.8-10.2
	c1.5-3.8,2.3-7.9,2.2-12c0-3.4-0.7-5.9-1.8-7.6c-1-1.6-2.6-2.8-4.5-3.3c-2.1-0.6-4.2-0.8-6.3-0.4c-2.5,0.3-4.9,0.8-7.3,1.5
	c-2.4,0.6-4.7,1.2-7.1,2c-2.1,0.6-4.3,1-6.5,1.2c-1.7,0.1-3.3-0.2-4.9-0.8c-1.2-0.8-1.8-2.2-1.9-4.2c0-1.8,0.4-3.5,1.2-5.1
	c0.8-1.6,1.8-3.1,3.1-4.4c1.3-1.4,2.7-2.6,4.2-3.7c1.5-1,3-2,4.7-2.8c1.5-0.8,3.2-1.4,4.9-1.8c1.5-0.5,3-0.6,4.5-0.4
	c1.3,0.2,2.5,0.9,3.3,2c1,1.4,1.6,3.1,1.6,4.9l9.9-5.2c-0.1-3-0.8-5.9-2-8.7c-1.5,0.3-2.9,0.6-4.4,1l-0.4,0.1
	c-8.6,0.8-17.1,1.8-25.6,2.8l-1,0.8C577.6,526.1,575.2,528.6,573,531.4z"/>
<path class="st8" d="M386.1,789.8l1.6-6.5c0.4-1.5,0.7-2.9,0.9-4.4l0,0c0.2,1.1,0.5,2.2,0.9,3.3l1.6,4.7l1.7-1l3.2-13.6l-1.8,1.1
	l-1.4,6.7c-0.3,1.6-0.6,3-0.8,4.3H392c-0.2-1.1-0.5-2.1-0.9-3.3l-1.6-5L388,777l-1.7,7c-0.3,1.5-0.7,2.9-0.9,4.3h-0.1
	c-0.2-1.1-0.5-2.2-0.8-3.3l-1.4-5.2l-1.9,1.1l0,0l3.1,9.9L386.1,789.8z"/>
<path class="st8" d="M407.9,775.3L407.9,775.3c-0.3-1.1-0.6-2.1-1-3.3l-1.6-5l-1.6,0.9l-1.6,6.9c-0.3,1.5-0.7,2.9-0.9,4.2h-0.1
	c-0.2-1.1-0.5-2.2-0.8-3.3l-1.3-5.1l-1.9,1.1l3.1,10l1.7-1l1.6-6.5c0.4-1.5,0.7-2.9,0.9-4.4l0,0c0.2,1.1,0.5,2.2,0.9,3.3l1.6,4.7
	l1.7-1l3.2-13.6l-1.8,1.1l-1.4,6.7C408.3,772.6,408,774,407.9,775.3z"/>
<path class="st8" d="M423.6,766.2L423.6,766.2c-0.3-1-0.6-2.1-1-3.3l-1.6-5l-1.6,0.9l-1.6,6.9c-0.3,1.5-0.7,2.9-0.9,4.2h-0.1
	c-0.2-1.1-0.5-2.2-0.8-3.3l-1.4-5.2l-1.9,1.1l3.1,10l1.7-1l1.6-6.5c0.4-1.5,0.7-2.9,0.9-4.4h0c0.2,1.1,0.5,2.2,0.9,3.3l1.6,4.7
	l1.7-1l3.3-13.6l-1.8,1.1l-1.4,6.7C424.1,763.5,423.8,764.9,423.6,766.2z"/>
<path class="st8" d="M429.5,762c-0.8,0.5-1.2,1.3-1.3,2.2c0,0.9,0.5,1.2,1.2,0.8l0,0c0.8-0.5,1.3-1.3,1.3-2.3
	C430.8,761.9,430.3,761.5,429.5,762z"/>
<path class="st8" d="M437.5,750.2c0.2-0.1,0.4-0.2,0.6-0.3v-2c-0.2,0.1-0.4,0.1-0.5,0.2c-1.4,1-2.5,2.5-2.8,4.2h-0.1l-0.1-2.3
	L433,751c0.1,1,0.1,2.2,0.1,3.6v8.1l1.8-1.1v-6.2c0-0.3,0-0.7,0.1-1C435.2,752.7,436.1,751.2,437.5,750.2z"/>
<path class="st8" d="M442.2,756.1c-0.7,0.4-1.6,0.6-2.4,0.6l-0.5,1.9c1,0,2-0.3,2.9-0.8c2.2-1.1,3.7-3.3,3.9-5.8
	c0-1.7-0.9-2.2-2.7-2c-1.3,0.2-1.9,0.1-2-0.9c0.1-1.1,0.7-2.1,1.7-2.6c0.6-0.4,1.4-0.6,2.1-0.5l0.5-1.8c-0.9,0-1.8,0.2-2.5,0.7
	c-2,1.1-3.3,3.2-3.5,5.5c0,1.4,0.9,2.1,2.7,1.8c1.4-0.2,1.9,0,1.9,1.1C444.1,754.5,443.3,755.6,442.2,756.1z"/>
<path class="st8" d="M453.2,739.4l-2.6,1.5v-2.8l-1.8,1.7v2.2l-1.6,0.9v1.6l1.6-0.9v6.4c0,1.4,0.2,2.3,0.7,2.6s1.1,0.3,2-0.2
	c0.6-0.3,1.2-0.8,1.6-1.3l-0.1-1.5c-0.3,0.3-0.7,0.6-1.1,0.8c-1,0.6-1.4,0-1.4-1.5v-6.3l2.6-1.6L453.2,739.4z"/>
<path class="st8" d="M462.1,744L462.1,744l0.1,1.9l1.6-1c-0.1-0.9-0.1-1.9-0.1-3.2v-8.5l-1.8,1.1v7.2c0,0.4-0.1,0.8-0.2,1.2
	c-0.4,1.4-1.3,2.6-2.4,3.3c-1.7,1-2.3-0.2-2.3-2.4v-6.5l-1.9,1.1v6.9c0,4.1,1.9,4,3.5,3.1l0,0C460.3,747.2,461.5,745.7,462.1,744z"
	/>
<path class="st8" d="M473.8,729c-0.5-0.7-1.5-0.9-3.1,0c-2.5,1.4-4.6,5-4.5,8.9c0,3.6,1.9,4.9,4.4,3.4c1.6-1,2.8-2.5,3.5-4.3l0,0
	l0.1,2l1.7-1c-0.1-0.8-0.1-1.9-0.1-3v-14.2l-1.3,0.8l-0.5,0.3L473.8,729L473.8,729z M473.9,734.3c0,0.3,0,0.7-0.1,1
	c-0.3,1.7-1.3,3.2-2.7,4.1c-2,1.2-3-0.2-3-2.6c0-2.6,1.1-5.2,3-6.3c1.4-0.8,2.4-0.3,2.7,0.9c0.1,0.3,0.1,0.6,0.1,0.8L473.9,734.3z"
	/>
<path class="st8" d="M479.7,719.4c-0.7,0.4-1.1,1.2-1.2,2c0,0.7,0.5,1,1.1,0.7c0.7-0.4,1.2-1.2,1.2-2
	C480.8,719.4,480.4,719,479.7,719.4z"/>
<polygon class="st8" points="478.8,736.3 480.7,735.2 480.6,723.5 478.8,724.6 "/>
<path class="st8" d="M488,719c-3.1,2-5,5.4-5,9.1c0,3.7,2.1,4.8,4.9,3.2c3.2-2,5.1-5.4,5.1-9.2C493,718.6,491,717.3,488,719z
	 M488,729.7c-1.8,1-3.1-0.1-3.1-2.7c0-2.2,0.9-5.1,3.1-6.4s3.1,0.8,3.1,2.7C491.1,726,489.8,728.7,488,729.7L488,729.7z"/>
<path class="st8" d="M496.9,724.6c0-0.9-0.5-1.2-1.2-0.8c-0.8,0.5-1.2,1.3-1.3,2.2c0,0.9,0.5,1.2,1.2,0.8l0,0
	C496.4,726.4,496.9,725.6,496.9,724.6z"/>
<path class="st8" d="M506.5,719.9l-0.3-1.4c-0.7,0.7-1.4,1.4-2.3,1.9c-2,1.2-3.5,0.4-3.6-2.3c0-2.6,1.4-5.1,3.6-6.5
	c0.6-0.4,1.4-0.7,2.1-0.7l0.4-1.9c-0.9,0.1-1.8,0.4-2.6,0.9c-3.3,2-5.4,5.5-5.5,9.4c0,3.6,2,4.8,5.1,3.1l0,0
	C504.6,721.7,505.6,720.9,506.5,719.9z"/>
<path class="st8" d="M517.7,707.9c0-3.6-2-4.9-4.9-3.2c-3.1,2-5,5.4-5,9.1c0,3.7,2.1,4.8,4.9,3.2l0,0
	C515.8,715.1,517.7,711.6,517.7,707.9z M512.7,715.4c-1.8,1-3.1-0.2-3.1-2.7c0-2.2,0.9-5.1,3.1-6.4s3.1,0.8,3.1,2.7
	C515.8,711.7,514.5,714.4,512.7,715.4L512.7,715.4z"/>
<path class="st8" d="M531.2,694c-0.9,0.5-1.7,1.2-2.2,2.1c-0.5,0.7-0.8,1.4-1.1,2.2l0,0c-0.4-1.1-1.5-1.5-2.9-0.7
	c-1.5,0.9-2.6,2.3-3.2,4h-0.1l-0.1-1.8l-1.6,0.9c0.1,0.9,0.1,1.9,0.1,3.1v8.5l1.8-1v-7.1c0-0.4,0-0.8,0.1-1.1
	c0.3-1.4,1.1-2.6,2.3-3.5c1.4-0.8,2.1,0.1,2.1,2v7l1.8-1v-7.2c0-0.4,0.1-0.8,0.2-1.2c0.3-1.3,1.1-2.4,2.2-3.2
	c1.5-0.9,2.2,0.1,2.2,2.3v6.6l1.8-1v-5.3v-1.6C534.6,693.1,532.6,693.3,531.2,694z"/>
<path d="M496.4,433.1c0.8-0.5,1.6-0.9,2.4-1.4c-2.1-0.7-4.2-1.4-6.4-2C493.9,430.9,495.2,432,496.4,433.1z"/>
<path d="M500,436.6c3.5,3.7,6,7.4,6.5,10.8c2.5-2.7,5.5-4.8,8.9-6.2c-0.2-0.2-0.5-0.4-0.8-0.6l0,0c-1.4-0.8-2.8-1.7-4.2-2.6
	l-0.3-0.2c-1.6-1.4-3.5-2.6-5.5-3.6C503.1,434.9,501.5,435.7,500,436.6z"/>
<path d="M294.2,302.2c4.1,1.9,8.1,3.6,12.2,5.3c0.6-8.2,1.8-16.3,3.5-24.4C303.8,288.6,298.5,295.1,294.2,302.2z"/>
<path d="M332,234.5c-1-0.6-1.9-1.2-2.9-1.9c-0.4,2-0.8,3.9-1.2,5.9C329.2,237.1,330.6,235.8,332,234.5z"/>
<path d="M435.9,277.1c-4.9-12-9.9-24.3-10.1-36.4c-3.2,1.1-6.5,1.8-9.9,2c3.3,3.4,6.4,7,9.1,10.9l-3.8,2.7c-3.2-4.6-7-8.9-11.1-12.7
	c-2,0.4-4,1.2-5.7,2.4c-5.3,6-12.8,9.7-20.8,10.3c-1.9,0.1-3.8,0.2-5.6,0.2c-8.6,0-15.5-1.8-20.7-5.4L357,251
	c-1.5-1.2-3-2.5-4.4-3.7c-2.3-2-4.6-3.9-6.9-5.6c-3.1,3.1-6.2,6.5-9.4,10.1l-3.5-3.1c3-3.4,5.8-6.6,8.8-9.5
	c-1.3-0.7-2.7-1.3-4.2-1.7l-0.2-0.1l-0.2-0.1l-0.8-0.4c-3.7,3.3-7.1,6.9-10.4,10.6c-1,4.3-2,8.5-3.1,12.7c-4.1,16.4-8.2,33.2-9.2,50
	c7.7,3,15.5,5.8,23.4,8.7c20,7.3,40.7,14.8,63.4,26.3l0.3,0.2c17.7,11.4,28.8,30,34.4,49.8c8.4,4.2,16.7,8.6,24.4,13
	c-1.3-2.8-2.4-5.7-3.3-8.6l-0.1-0.4c-0.6-4.6-0.8-9.3-0.7-14c0.1-8.8-0.5-17.6-2-26.3l-0.2-0.4c-10.7-17.4-14.4-27.2-11.8-31.7
	c1-1.7,2.9-2.8,4.9-2.6c3.4-0.2,6.7,0.1,10,0.9c-0.8-1.5-1.5-2.7-1.9-3.5c-2.8-5.6-4.9-8.9-6.9-10.9l1.4-0.3h-3.7
	C445.2,300,440.6,288.9,435.9,277.1z"/>
<path d="M326.9,157.4c0.6-0.8,1.4-1.6,2.2-2.1c4.9-2.7,9.2-6.2,12.8-10.4c-2.1-2-4.3-4.6-6.5-7c-2.7-3.1-8.3-9.5-10.2-9.5
	c-0.1,0-0.1,0-0.2,0c0,0-1.1,0.6-1.6,5.1v0.2c-1.3,7.4-0.4,18.8,1.9,25.4C326,158.4,326.6,157.8,326.9,157.4z"/>
<path d="M426.6,149.8c1,1.2,1.9,2.4,3,3.6c2-7,5.3-23.8,4.1-28.3c-0.1-0.1-0.2-0.3-0.3-0.3c-0.5-0.1-3.7,0-15,16.9
	C421.6,144,424.3,146.7,426.6,149.8z"/>
<path d="M335.7,231.3c6.9-5.7,14.8-10.2,22.9-10.3v4.7c-6.3,0.1-12.7,3.6-18.3,7.9c1.7,0.6,3.3,1.4,4.8,2.2c3.1-2.8,6.4-5.3,9.9-7.5
	l2.4,4c-2.9,1.8-5.7,3.8-8.3,6.1c2.3,1.6,4.4,3.4,6.5,5.2c1.4,1.2,2.8,2.4,4.2,3.5c5.5,3.7,13.1,5.1,23.3,4.3
	c6.9-0.4,13.3-3.6,17.9-8.9l0.3-0.3c1.3-1,2.8-1.8,4.3-2.4c-3.2-2.4-6.6-4.6-10.1-6.4l2.2-4.1c4.8,2.6,9.4,5.6,13.6,9.1
	c1.3-0.2,2.6-0.4,3.9-0.5c2.6-0.2,5.2-0.7,7.7-1.4c-3.4-1.2-6.8-2.5-10.1-3.8c-7.5-2.9-15.3-5.9-23.2-7.8l1.1-4.6
	c8.2,2,16.1,5.1,23.8,8c4.5,1.7,9.1,3.5,13.8,5.1c7.5-6.9,14.1-20.1,11.8-37.9v-0.2c-0.1-4.3-1.2-8.4-2.5-12.8
	c-1.3-4.6-2.6-9.3-2.6-14.4v-0.3l0.1-0.3c3.9-14.6,5.9-25.8,6.3-36.4c-0.1-2.2-0.1-4.4,0.1-6.7c0.4-7.5,0.3-12.6-4.2-14.1
	c-8.1,4.4-14,11.4-20.1,18.9c-2.5,3-5,6-7.6,8.9l-0.7,0.8h-1c-4.8-0.1-9.6-0.4-14.3-0.7c-13.5-0.8-27.5-1.6-40.7,1.8l-1.1,0.3
	l-0.9-0.6c-6.7-4.9-12.3-11-17.7-17l-2-2.2l-0.2-0.2l-0.1-0.3c-1.7-3.3-5.9-6.9-9-6.8c-0.5,0-2.1,0.1-3.4,2.8
	c-3.4,17.3-2.6,36.7,2.4,56.1l0.1,0.3v0.3c0.1,5.4-1.7,10.3-3.4,15.1s-3.4,9.3-3.2,14.1C314.5,215.9,326.5,225.8,335.7,231.3z
	 M355.6,199.1c-8.3,0-13.7-4.6-18.6-14.9l-1.4-3l4.1-0.4c6.9-0.7,17.2-1.7,22.5,3.8c2.6,2.7,3.6,6.6,2.9,11.6l-0.2,1.6l-1.5,0.4
	C360.7,198.7,358.2,199,355.6,199.1z M383,231.1c3.2,2.8,7.8,3,11,2.6l0.5,4.6c-6,0.7-11.1-0.6-14.6-3.7c-1.6-1.4-2.8-3.1-3.7-5
	c-3.5,5.8-9.3,8.6-12.5,10.2l-2.1-4.2c6.2-3.1,12-7,12.8-15.1l4.7,0.2C379.2,225.4,380.5,228.9,383,231.1L383,231.1z M390.2,197.7
	l-2-0.5l0.4-2c1.4-6.8,4.8-11.7,9.7-13.8c3.6-1.6,9.6-2.4,17.8,2.6l1.8,1.1l-1.1,1.9c-4.3,7.5-8.9,12.2-17.6,12.2
	C396.2,199,393.1,198.5,390.2,197.7L390.2,197.7z M413.6,140.5c8.2-12.5,14.8-20.8,20.1-20.5c1.9,0.1,3.5,1.3,4.3,3.1l0.1,0.3
	c1.3,3.9-0.1,13-1.4,20c-2.9,14.9-4.4,15.8-5,16.2c-0.4,0.2-0.8,0.4-1.3,0.4c-0.6,0-1.2-0.2-1.7-0.7c-2.1-2.1-4-4.3-5.9-6.6
	c-2.6-3.2-4.6-5.7-9-8.4l-2-1.3L413.6,140.5z M319,132.9c0.4-3.4,1.3-7.9,4.8-9c4.6-1.4,9.5,4.3,15.3,10.9c2.3,2.8,4.8,5.5,7.5,8
	l1.5,1.2l-0.9,1.7c-2.5,4.5-10.4,11-15.7,13.7c-0.2,0.2-0.7,0.8-1,1.1c-2.4,2.7-4,4.4-5.8,4.4c-0.1,0-0.3,0-0.4,0
	c-0.9-0.1-1.7-0.7-2.1-1.5C318.8,156.6,317.3,142.4,319,132.9z"/>
<path d="M400.1,185.3c-3.1,1.4-5.4,4.4-6.7,8.6c10,2.1,14.2-0.6,18.5-7.4C407.5,184.3,403.4,183.9,400.1,185.3z"/>
<path class="st9" d="M416.8,186.9l1.1-1.9l-1.8-1.1c-8.2-5-14.2-4.1-17.8-2.6c-4.9,2.2-8.4,7.1-9.7,13.8l-0.4,2l2,0.5
	c3,0.8,6,1.3,9.1,1.3C407.9,199,412.5,194.4,416.8,186.9z M393.4,194c1.3-4.2,3.6-7.3,6.7-8.6c3.3-1.4,7.4-1,11.8,1.2
	C407.6,193.4,403.4,196.1,393.4,194z"/>
<path d="M342.8,185.2c5,9.1,10,10.3,17.8,8.7c0.1-2.7-0.4-4.7-1.8-6.1C355.6,184.5,348.5,184.7,342.8,185.2z"/>
<path class="st9" d="M364.8,197.7l0.2-1.6c0.7-4.9-0.3-8.8-2.9-11.6c-5.2-5.5-15.6-4.4-22.5-3.8l-4.1,0.4l1.4,3
	c4.9,10.4,10.3,14.9,18.6,14.9c2.6,0,5.2-0.4,7.7-1L364.8,197.7z M360.5,193.9c-7.7,1.6-12.8,0.4-17.8-8.7c5.7-0.5,12.9-0.7,16,2.6
	C360.1,189.2,360.7,191.2,360.5,193.9z"/>
<path class="st9" d="M374.4,220.5c-0.8,8.1-6.6,12.1-12.8,15.1l2.1,4.2c3.2-1.6,9-4.5,12.5-10.2c0.9,1.9,2.1,3.6,3.7,5
	c3.5,3.1,8.6,4.4,14.6,3.7l-0.5-4.6c-3.3,0.4-7.8,0.2-11-2.6c-2.5-2.2-3.8-5.7-3.9-10.4L374.4,220.5z"/>
<path class="st9" d="M423,152.7c1.8,2.3,3.8,4.5,5.9,6.6c0.4,0.4,1,0.7,1.7,0.7c0.5,0,0.9-0.1,1.3-0.4c0.6-0.4,2.1-1.3,5-16.2
	c1.4-6.9,2.7-16,1.4-20l-0.1-0.3c-0.7-1.7-2.4-2.9-4.3-3.1c-5.3-0.3-11.9,8-20.1,20.5L412,143l2,1.3
	C418.4,147,420.4,149.5,423,152.7z M433.5,124.7c0.1,0.1,0.2,0.2,0.3,0.3c1.2,4.5-2.1,21.3-4.1,28.3c-1.1-1.3-2.1-2.5-3-3.6
	c-2.3-3.1-5-5.8-8.1-8.1C429.8,124.8,433,124.6,433.5,124.7L433.5,124.7z"/>
<path class="st9" d="M324.3,164.9c0.1,0,0.3,0,0.4,0c1.8,0,3.4-1.7,5.8-4.4c0.4-0.4,0.8-0.9,1-1.1c5.3-2.7,13.2-9.2,15.7-13.7
	l0.9-1.7l-1.5-1.2c-2.7-2.5-5.2-5.2-7.5-8c-5.7-6.6-10.7-12.3-15.3-10.9c-3.5,1.1-4.4,5.7-4.8,9c-1.7,9.4-0.2,23.6,3.2,30.4
	C322.5,164.2,323.3,164.8,324.3,164.9z M323.6,133.7v-0.2c0.5-4.6,1.5-5.1,1.6-5.1c0.1,0,0.1,0,0.2,0c1.9,0,7.4,6.4,10.2,9.5
	c2.1,2.5,4.4,5,6.5,7c-3.6,4.2-8,7.7-12.9,10.4c-0.9,0.6-1.6,1.3-2.2,2.1c-0.3,0.4-0.9,1-1.5,1.6
	C323.2,152.4,322.2,141.1,323.6,133.7L323.6,133.7z"/>
<path d="M136.4,209.9c-0.2-3.9-0.6-7.8-1.4-11.6c0,0,0-0.1,0-0.2c0.4,1.8,0.7,3.6,0.8,5.5C135.7,204.6,136,207.1,136.4,209.9z"/>
<path d="M132.7,321.2v0.4c0.6,1.9,1.3,3.7,2,5.5l1.3-0.2v-1.2c15.3,0,18.7,4.3,18.9,7.8c0,2.2-1.2,4.3-3.1,5.4l-7-0.1l3.1,0.2
	c-0.2,3.9,1.2,6.1,4.5,7.1s8.1,0.5,12.4-1c-1.7-1.4-3.4-2.9-5.1-4.5l4.2-4.5l1.4,1.2l0.3-2.6c8.5,1,18.2,4.3,29.1,9.8
	c15.4-3.5,30.5-8.2,45.1-14.1c22.1-8.8,24-37.9,24-67c0-0.4,0-0.8,0.1-1.1c-0.7,1.7-1.5,3.5-2.5,5.5c-0.5,1.2-0.8,2.5-1.1,3.8
	c-0.8,3.7-1.7,7.8-5.2,9.6c-0.6,0.3-1.4,0.5-2.1,0.5c-1.4,0-3.1-0.6-5-2.6c-6.4-6.6-17.9-12.5-28.7-14.7l0.5-6.2
	c4.5-0.1,12.5-4,19.6-7.4c9.4-4.5,17.2-8.2,22.2-7.1c-0.4-0.8-0.8-1.7-1.3-2.4c-7.3-11.6-22.4-22-42.4-29.5
	c-16.8-6.2-36.1-9.9-50.5-9.7c-3.3,0.2-8.7-2.5-20-8.7c-4.6-2.5-11.3-6.1-14.4-7.3c-0.1,2.6,0.8,7.8,1.4,10.7l5.8-1.9
	c0.2,0.4,0.3,0.9,0.5,1.4c1.4,3.6,4.8,8.5,8.1,13.2c5.5,7.9,10.7,15.4,10.7,21.7c0,1.2-0.5,2.4-1.5,3.1c-0.8,0.6-1.7,0.9-2.7,0.9
	c-1.1,0-2.2-0.2-3.2-0.5c-0.5-0.2-1.1-0.3-1.6-0.4c-0.2,0-1,0.1-1.6,0.1c-5.7,0.5-8.3,0.5-9.9-1.1c-0.4-0.4-0.7-0.9-0.9-1.4
	c-0.1,4.9-0.8,8.2-2.5,9.9c-13.3,13.7-22.4,46.5-7.3,62l0.7,0.8l0.1,1C130,311,131.1,316.2,132.7,321.2L132.7,321.2z M176.4,315.3
	c-4.2-1.3-6.8-2-8.6-0.6l-4.4-4.3c0.5-0.7,1-1.4,1.4-2c2-2.9,4.1-6,8-8c0.8-0.4,2.9-1.5,13.6,0.6c7,1.3,11.2,2.7,12.5,4l0.9,1v1.4
	c-0.1,1.5-0.8,2.5-4.4,5.6l0,0c-2.5,2.7-6.1,4.2-9.8,4.2C182.4,317,179.3,316.4,176.4,315.3z M128.1,275.7c1.3-1.3,3.3-1.7,5-1
	c5.3,1.9,14.9,14.2,15.3,23.4l0.4,10.2l-6-8.3c-0.8-1.1-2.5-1.8-4.3-2.6c-2.7-1.1-5.7-2.4-7.2-5.5
	C126.1,281.3,126.3,277.8,128.1,275.7z"/>
<path d="M178.2,344.2c-0.7,0.7-1.4,1.3-2.1,1.9c0.8,0.6,1.6,1.2,2.4,1.7c2.1-0.3,4.1-0.7,6.3-1.1
	C182.4,345.7,180.3,344.9,178.2,344.2z"/>
<path d="M260.6,250c-2-1.2-12.6,3.9-18.3,6.6c-3.7,1.8-7.4,3.5-10.9,5c8.4,3.2,16.1,8,21.2,13.3l0.3,0.3c0.7-1.5,1.1-3.2,1.4-4.8
	c0.3-1.8,0.8-3.6,1.6-5.2C262,252.4,260.7,250.1,260.6,250z"/>
<path d="M143.8,228.6c1.4,0,3.7-0.2,4.7-0.3s1.7-0.1,2.2-0.1c0.8,0,1.5,0.1,2.2,0.3c-1.4-4.3-5.4-10.1-9.1-15.3
	c-0.4-0.5-0.8-1.1-1.1-1.6c0.1,2,0.2,4,0.3,6C143.2,221.6,143.4,226.3,143.8,228.6L143.8,228.6z"/>
<path d="M144.9,334.3c1.1,0.2,2.3,0.1,3.4-0.5c-0.8-0.5-2.6-1.2-6.6-1.6C142.5,333.2,143.6,334,144.9,334.3z"/>
<path d="M191,308.5l0.1-0.1c-5.1-1.3-13.5-2.8-15.7-2.4c-0.9,0.5-1.8,1.2-2.5,1.9c1.8,0.4,3.6,0.8,5.4,1.4
	C183.9,311.2,187.5,312.1,191,308.5z"/>
<path class="st9" d="M195.3,313L195.3,313c3.6-3.1,4.3-4.1,4.4-5.6V306l-0.9-1c-1.3-1.4-5.5-2.7-12.5-4c-10.8-2.1-12.9-1-13.6-0.6
	c-3.9,2-5.9,5-8,8c-0.4,0.7-0.9,1.3-1.4,2l4.4,4.3c1.8-1.4,4.5-0.7,8.6,0.6c2.9,1.1,6,1.7,9.1,1.8
	C189.2,317.3,192.8,315.7,195.3,313z M172.9,308c0.7-0.8,1.6-1.4,2.5-1.9c2.2-0.4,10.6,1.1,15.7,2.4l-0.1,0.1
	c-3.4,3.5-7.1,2.6-12.7,0.9C176.5,308.8,174.7,308.4,172.9,308z"/>
<path d="M136.9,289.2c0.4,0.8,1.8,1.5,3.2,2.1c-1.6-3-3.6-5.9-5.9-8.3C134.9,285.1,135.8,287.2,136.9,289.2z"/>
<path class="st9" d="M138.4,297.4c1.8,0.8,3.6,1.5,4.3,2.6l6,8.3l-0.4-10.3c-0.4-9.2-9.9-21.4-15.3-23.4c-1.7-0.7-3.7-0.3-5,1
	c-1.9,2.1-2.1,5.6,3.1,16.3C132.7,295,135.8,296.3,138.4,297.4z M134.1,283c2.4,2.5,4.4,5.3,5.9,8.3c-1.5-0.6-2.9-1.3-3.2-2.1
	C135.8,287.2,134.9,285.1,134.1,283z"/>
<path d="M171.1,342.1l-0.3-0.1l0.1,0.1L171.1,342.1z"/>
<path d="M221.9,428.7c4.7-1.3,9.6-2.5,14.1-3.5c4.4-1,8.1-1.9,10.6-2.7c3.8-3.4,7.3-6.5,10.5-9.2c13.4-11.6,21.4-18.6,25.4-31.5
	c1.2-3.7,1.2-9.3,1.2-15.1c0-6.1,0.1-12.5,1.3-18.3c0.2-1,1-1.9,2-2.2c5-1.9,46.4,7.2,50.1,10c6.9,5.1,13.4,10.7,19.6,16.6
	c0.2-0.6,0.5-1.1,0.9-1.6c1.5-1.8,5.4-6.7,41.7,7.9c8.9,3.6,18.5,7.8,28,12.4c-6.2-17.8-16.5-32-29.9-40.7
	c-22.2-11.3-42.7-18.7-62.5-25.9c-20.8-7.5-40.4-14.7-60.1-25.5l-0.4-0.3c-2.9-2.2-4.1-5.3-5.2-8c0-0.1-0.1-0.3-0.2-0.4
	c-2.1,19.1-8.2,38.1-26.8,45.5c-12.7,5.2-25.8,9.4-39.2,12.8c1.8,1,3.6,2.1,5.5,3.3l-3.3,5.3c-3.9-2.4-7.6-4.5-11.2-6.4
	c-2.7,0.6-5.3,1.1-7.9,1.6c6.6,4,13.6,7.3,20.9,9.8l-2,5.9c-9.9-3.4-19.3-8.2-27.9-14.1l-0.9,0.1l-0.1-0.3c-4.3,1.6-9,2.5-13.6,2.6
	c-5.3,0-10.5-1.4-15.1-4.1c-4.2-2.5-7.8-5.8-10.7-9.8c-1.8,6.2-0.7,15.9,0.4,25.2c0.8,7.1,1.6,14.5,1.2,20.7v0.4l-0.1,0.4
	c-0.6,1.4-0.4,3,0.4,4.3c1.7,2.5,5.6,4.5,10.9,6c12-5.5,30.6-10.8,59.1-14.6c11-1.5,18.8-2.4,18.8-2.4l0.8,6.2
	c-0.1,0-7.8,1-18.8,2.4c-39.5,5.2-66.4,14.8-73.7,26.1l-0.2,0.3c-6.9,8.5-9.4,16.9-6.9,23.6c1,2.7,2.8,5,5,6.8
	c-0.1-6.7,2.6-12.8,8.1-18.7l4.6,4.2c-5.5,5.9-7.4,11.4-6.1,18.2c2,0.8,4,1.3,6.1,1.7h0.1c2.1,0.5,4.4,0.5,6.5,0.1
	c-1.5-6.4-1.9-13.1,4.5-19.2l4.3,4.5c-3.8,3.7-4.1,7.3-2.9,12.9c4.7-2.1,9.1-5.5,13.5-8.9c2.2-1.7,4.3-3.2,6.4-4.7
	C184,434.7,200.8,431.5,221.9,428.7z"/>
<polygon points="137.5,454.7 137.5,454.7 137.5,454.7 "/>
<path d="M530.3,445.5c-2.5,0-4.9-0.4-7.2-1.1c-0.9,0.2-1.8,0.5-2.7,0.8c-6.6,2.2-10.9,5.8-13,10.8c7.5,2.6,13.6,4.3,17,4.3h0.3
	c18.8,1.9,38.6,0.5,59.6-1.1c5.9-0.4,11.9-0.9,17.9-1.2c-16.8-8-41.2-14.8-61.3-15.3C537.7,444.5,534,445.4,530.3,445.5z"/>
<path d="M691.1,474.2c-33.2-15.3-70.4-12.5-106.4-9.9c-21.2,1.6-41.2,3-60.4,1.1c-5.6-0.1-16-3.5-28.6-8.3
	c-4.5,0.3-10.1-2.3-16.5-5.3c-9.7-4.5-20.8-9.6-28.1-4.9c-9.9,6.3-19,19.7-28.5,33.8c-8,11.8-16.5,24.3-26.1,33.2
	c54.2,20.3,107.8,13.6,164.2,6.5c14.9-1.9,30.3-3.8,45.8-5.2c21.8-5.6,41.2,0.2,60,6c6.5,2,12.6,3.8,18.7,5.2
	c10.7,2.4,15.4-8,17-12.6C708,496.2,701,478.8,691.1,474.2z"/>
<path class="st9" d="M693.2,469.5c-25.6-11.8-53-13.2-80.5-12.1c-15.5-9.2-41.3-17.7-64.2-19.8h0.1c2.5-1.3,5.4-2.9,6.9-5.4
	c0.4-0.6,2.6-1.4,3.9-1.8c2-0.6,3.8-1.2,5-2.5l0.1-0.1c0.7-0.6,1.5-1,2.4-1.2c1.5-0.3,2.8-1,4-1.9c0,0,1-0.9,2.3-2.1
	c0.8-0.8,1.8-1.7,2.8-2.7c0.9,0,1.7-0.1,2.6-0.1c5-0.1,9.9,0,14.8,0.5l0.2-2.4l0,0l0.2-2.4c-2.1-0.2-4.1-0.3-6.2-0.4l-2.5-0.1
	c-1.4,0-2.9,0-4.3,0l0.5-0.6l-7,0.5l-0.4,0.4c-7.8,0.5-15.5,1.7-23,3.7l1.2,4.6c5.3-1.4,10.8-2.4,16.3-3c-0.2,0.2-0.5,0.4-0.6,0.5
	c-0.7,0.4-1.4,0.8-2.2,0.9c-1.8,0.4-3.5,1.3-4.8,2.7c-0.9,0.5-1.9,0.9-2.9,1.1c-2.4,0.8-5.2,1.7-6.5,3.8c-0.8,1.3-2.8,2.4-4.8,3.5
	l-0.8-1.2c-1.6,1-7.5,2.2-10.2,0.7c-0.9-0.5-1.4-1.5-1.2-2.5L534,430c3-2.8,5.1-6.4,6.3-10.3c0.8-3.1-0.1-4.7-1-5.6l-0.5-0.5
	l-0.7-0.1c-2.3-0.4-18.7,0.9-21.2,5.1c-0.7,1.2-0.6,2.7,0.3,3.7c1.1,1.3,5.9,4.7,6.5,5.1c1.7,1.2,3.5,2.4,5.3,3.4
	c-1.8,3.6-4.4,7.1-7,7.7c-0.8,0.2-1.7,0.1-2.4-0.3l0.8-0.1c-2.5-1.2-4.9-2.5-7.2-4.1c-0.8-0.7-1.7-1.4-2.6-2
	c1.5-0.4,3.1-0.7,4.7-0.8l-0.4-4.8c-1.7,0.1-3.5,0.4-5.2,0.9l0.9-4.1c-8.5-1.9-14.6-1.2-19.6,1.3l-3.7-1c-5.4-1.4-11.5-2.9-12.8-4.4
	l-0.3-0.3l-0.3-0.2c-6.7-3.7-10.7-12.9-13-20.1c-0.5-4.4-0.7-8.8-0.6-13.1c0.1-8.9-0.5-17.9-2-26.7c2.5,3.5,5.1,6.3,7.5,7.4
	c0.8,0.4,1.6,0.5,2.4,0.5c0.6,0,1.2-0.1,1.8-0.3c4-1.5,5.9-6,7.7-9.9c1.1-2.5,2.3-5.1,3.6-6.3c1-0.9,4.7-7.1,4.5-9.3l-0.1-0.7
	l-0.4-0.5c-2.5-3.1-6.1-5.1-9.9-6.6h0.2c11.7-1.2,28.2-4,39.6-8.4c8.7-2.8,20.1-5.8,31.9-4.5l0.7,0.1l0.6-0.3
	c1.1-0.5,2.2-1.1,3.1-1.7c-4.2,6.3-2.8,12.3-1.2,16.5c0.8,1.8,1.8,3.6,3,5.2c1.4,1.6,3.2,2.9,5.1,3.7c0.7,0.4,1.5,0.7,2.2,1.2
	l0.7,0.4c3.3,2.1,7.1,4.5,11.8,4.5c0.5,0,1.1,0,1.6-0.1l0.9-0.1l0.6-0.7c2.9-3.2,3.8-9,4.3-14.8c0.2-1.9,0.5-3.7,1-5.5l0.3-1.5
	c-0.2,1.8-0.4,3.6-0.7,5.5c-0.2,1.2-0.3,2.4-0.5,3.6c-2.1,7.4,2.7,15.5,7.6,20.5c4.5,21.1,6,35,0.6,42.6c-2.9,2.7-5.7,5.6-8.2,8.7
	c-11.2-0.2-22.2,1.2-33,6.7l2.2,4.3c14.7-7.5,29.9-6.8,46-5.2l6,0.6c2.7,0.3,5.4,0.6,8.1,0.9l0.2-2.4l0,0l0.2-2.4
	c-2.7-0.3-5.4-0.5-8-0.8l-2.8-0.3l-2.2-0.2c-1.7-0.2-3.4-0.4-5.1-0.5c2.5-1.1,4.8-2.3,7-3.9c4.7-3.4,14.2-6.4,22.7-9.1l3.7-1.2
	c3.4-1.1,6.3-2.1,8.5-3.1c1.1-0.5,2.3-1,3.3-1.7c0.2-0.2,0.5-0.3,0.7-0.5c1.2-0.9,2.3-1.9,3.4-3c0.8-0.8,1.5-1.5,2.2-2.3
	c0.2,0.3,0.4,0.6,0.6,0.9s0.5,0.7,0.7,1s0.5,0.7,0.8,1.1l0.9,1.1l1.6-0.3c6.1-1.2,10.6-2,16.7-5.1c3.5-1.8,7.2-3.3,11-4.8
	s7.7-3.1,11.5-5.1c8.9-4.5,9.1-10.5,8.4-13.6c0-0.1-0.1-0.2-0.1-0.3l-0.1-0.3c-2-7.5-11.8-13.6-22.7-14.1
	c-9.4-0.5-18.3,3.8-23.9,11.3c-15.7-0.8-51.8-2.6-59.3-8.1c-1-0.6-2.2-1.1-3.3-1.5c-1.4-2.9-2-6-1.2-8.6l0.1-0.4
	c0.2-1.3,0.3-2.5,0.5-3.7c0.7-5,1.4-9.7,0.8-15.2v-0.2c-0.9-6.7-2.3-18-8.5-20.4c-2.8-1.1-6-0.3-9.3,2.5c-4.7,2.2-9,5.1-12.7,8.7
	c-2.8,2.7-5.9,5-9.3,6.8c-12.5-1.2-24.3,1.9-33.3,4.8h-0.1c-11,4.2-27,7-38.4,8.1c-3.1,0.2-6.2-0.1-9.2-0.8
	c-2.5-4.2-4.2-7.3-5.1-8.9c-3.3-6.6-6-10.7-8.8-13.3c-1.2-10.2-5.4-20.6-9.5-30.7c-4.7-11.5-9.5-23.3-9.6-34.4l1.1,0.3l1.2-4.5
	c-0.7-0.2-1.3-0.4-2-0.6c9.1-9.6,12.1-22.9,11.8-34.3c0-0.6,0-1.2-0.1-1.7c-0.1-1.4-0.2-2.7-0.4-4c-0.1-4.8-1.4-9.4-2.6-13.8
	s-2.4-8.5-2.5-12.8c4-14.8,5.9-26.3,6.4-37.3V131v-0.1c-0.1-2-0.1-4.1,0.1-6.1c0.4-7.2,1-17-8.6-19.2l-0.8-0.2l-0.7,0.4
	c-9.4,4.8-16,12.8-22.4,20.5c-2.2,2.6-4.4,5.4-6.7,7.9c-4.4-0.1-8.8-0.4-13.1-0.6c-13.5-0.8-27.5-1.6-41.1,1.6
	c-6-4.5-11.1-10.2-16.2-15.7c-0.6-0.7-1.2-1.3-1.8-2c-2.5-4.7-8-9.3-13.2-9.1c-1.9,0.1-5.5,0.9-7.6,5.9l-0.1,0.2l0,0.2
	c-3.6,17.9-2.8,38,2.3,58.1c-0.2,3.5-0.9,6.9-2.1,10.2c-0.2,0.7-0.5,1.4-0.7,2.1c-0.1,0.3-0.2,0.6-0.3,1c-1.8,5-3.7,10.2-3.5,15.8
	c0.3,10.8,6.3,19.2,13.2,25.5c-1.7,10.2-4.2,20.4-6.9,31.1c-1.1,4.5-2.3,9.1-3.3,13.7l-0.9,0.6c-9.5,6.2-17.5,15.6-23.8,26.2
	c-3.2-1.6-6.4-3.2-9.6-5c-1.4-1.2-2.2-3.1-3-5.3c-1.1-2.7-2.3-5.7-5.1-8l-0.1-0.1c0.3-6.1,0.3-11.9,0.3-17.2
	c0.1-0.7,0.4-1.4,0.7-2.1c0.7-1.4,1.1-2.9,1.1-4.4v-0.3l-0.1-0.3c-0.1-0.5-2.3-12.1-6.2-18.3c-4.3-6.4-9.7-12-16-16.5l-1.3-0.9
	C225.6,204.5,191.2,196,169,196h-1.5h-0.1c-2.1,0-10.9-4.8-16.7-8c-13.9-7.6-18.9-10.1-21.8-7.2s-1.9,9.4-0.2,18.1
	c0.4,1.8,0.8,4.1,0.8,4.7c0,1.4,0.4,4.2,0.8,8c0.7,5.8,3,23.3,1,26c-12.5,12.8-21.3,39.5-14.5,58.8c0.2,0.5,0.3,0.9,0.5,1.4
	c1.4,3.6,3.4,6.8,6,9.7c0.6,4.6,1.6,9.1,2.8,13.6c-4.6-0.2-10.6-0.6-15.4-0.9c-5.3-0.4-9.8-0.7-11.8-0.7v6.2c1.5,0,4.8,0.2,8.6,0.5
	c-9.7,0.9-18.9,2-22.1,2.5l1.1,6.1c6.4-1.1,33.8-4,43.4-3.7c0.9,1.9,1.8,3.7,2.7,5.5l-0.1,0.1c-4.4,7.5-3.1,19.4-1.6,32
	c0.8,6.7,1.5,13.6,1.2,19.2c-1,3.1-0.5,6.5,1.3,9.2c1.8,2.6,4.7,4.7,8.6,6.4c-1.4,0.9-2.8,1.8-3.9,2.6c-0.4,0.3-0.7,0.5-1.1,0.8
	c-2.5,1.9-4.7,4.2-6.5,6.8c-8.3,10.3-11.1,20.8-7.9,29.5c3.1,8.3,11.2,14.2,22.4,16.2c1.6,0.3,3.3,0.5,4.9,0.5
	c10.1,0,18.5-6.5,26.1-12.2c2.1-1.6,4.1-3.1,6.1-4.5c2.1-1.4,7-2.9,14.3-4.4l1.9-0.4c1-0.2,2-0.4,3.1-0.6c-0.5,0.5-1,0.9-1.5,1.5
	c-0.3,0.3-0.5,0.6-0.8,1c-0.3,0.4-0.6,0.9-0.9,1.3c-0.7,1.2-0.8,2.6-0.4,3.9c1.5,4.8,10.4,9,24.7,15.6c7.5,3.4,20,9.2,20.9,11.7
	c3.5,16.7,13.3,30.8,28.4,40.6c6.6,4.3,13.9,7.6,21.5,9.8c-3.9,3.9-7.1,8.4-9.4,13.4l5,2.3c2.5-5.4,6.2-10.2,10.7-14
	c2.5,0.6,5.1,1,7.6,1.4c-1.7,5.3-3.1,10.8-4.2,16.3v0.2l2.7,0.6l0,0l2.7,0.6v-0.2c1.1-5.7,2.6-11.3,4.4-16.9
	c2.3,0.2,4.5,0.3,6.8,0.3h0.3c0.7,0,1.4,0,2.1,0c-0.4,0.5-0.8,0.9-1.1,1.4l2.3,1.5l0,0l2.3,1.5c0.4-0.6,0.8-1.1,1.3-1.6
	c0.9-1,1.7-2.1,2.5-3.3c7.4-0.7,14.6-2.4,21.5-5.1l-0.1,0.1c1.5,0.8,3.1,1.5,4.7,2.1c0.6,0.2,1.2,0.5,1.8,0.7c3.7,1.3,7.5,2,11.4,2
	c1.1,0,2.3-0.1,3.4-0.2h0.5c7-0.9,13.3-4,19.2-8.5c28.5,11.2,56.8,14.9,85.3,14.9c18.3,0,36.7-1.5,55.4-3.6
	c3.6-0.4,7.2-0.8,10.8-1.3c5.9-0.7,11.9-1.5,17.9-2.2c6.7-0.8,13.4-1.7,20.3-2.5c8.5-1,17-2,25.6-2.8l0.4-0.1c1.5-0.4,3-0.7,4.4-1
	c18.8-3.5,36.1,1.7,52.9,6.8c6.3,1.9,12.7,3.9,19.1,5.3c9.3,2.1,17.2-2.6,21.7-12.6c0.5-1.1,1-2.2,1.4-3.4c2.7-8.4,3-17.4,1-26
	c-0.6-2.4-1.4-4.7-2.4-7C702.8,476.4,698.5,471.9,693.2,469.5z M702,513.8c-1.6,4.6-6.3,15-17,12.6c-6.2-1.4-12.3-3.2-18.7-5.2
	c-18.7-5.7-38.1-11.6-60-6c-15.5,1.4-30.9,3.4-45.8,5.2c-56.4,7.1-110,13.8-164.2-6.5c9.7-9,18.1-21.4,26.1-33.2
	c9.6-14.1,18.6-27.4,28.6-33.8c7.4-4.7,18.4,0.4,28.1,4.9c6.4,3,12.1,5.6,16.5,5.3c12.6,4.8,23,8.2,28.6,8.3
	c19.2,1.9,39.2,0.5,60.4-1.1c36-2.7,73.2-5.4,106.4,9.9C701,478.8,708,496.2,702,513.8z M384.5,489l-6.4,1
	c-8.3,18.2-26.2,27.4-43.8,30.5l-3.5,3.1c0.6-1.9,0.9-3.8,0.8-5.7c17,2,23.6-9.7,26.5-14.8l-4.8-2.7c-4.1,7.2-9.7,14.7-24.2,11.6
	l-3.9-0.8l0.6,4c0.4,2.2,0.4,4.4-0.2,6.5c-1.9,0.1-3.8,0.2-5.7,0.2h-0.2c-1.5,0-3.1-0.1-4.6-0.2l0-0.1l-4.9-2.4
	c-0.3,0.7-0.6,1.3-0.9,2c-1.2-0.2-2.5-0.3-3.7-0.5c1.6-1.1,3.4-2.2,5.2-3.2l-2.7-4.8c-3.4,1.9-6.6,4.1-9.7,6.5
	c-22.7-5.8-44.1-21.1-49.5-47.1c-1-4.7-9.4-8.8-24-15.6c-7.6-3.5-20.1-9.2-21.6-12.1c4.3-6.8,22.2-11,34-13.7
	c4.8-1.1,9-2.1,11.7-3.1l0.5-0.2l0.4-0.4c3.9-3.5,7.5-6.7,10.8-9.5c13.6-11.8,22.6-19.6,27.1-34.1c1.4-4.5,1.4-10.4,1.5-16.7
	c-0.1-5.2,0.2-10.3,0.9-15.4c8,0.2,40.8,7.5,43.8,9.3c21.8,16.4,35.7,32.4,43.5,50.4c6.8,15.6,9,33.1,6.8,53
	c-18.5,6-35.6,13.3-48.1,28.8l4.3,3.5c11-13.6,26.2-20.5,43-26.2c-0.5,3.1-1.1,6.2-1.7,9.4c-0.3,1.2-0.6,2.4-0.9,3.5
	c-12.8,1.3-25.3,4.6-37,10l2.3,5c18.1-8.3,38.4-11.7,53-8.8l1.1-5.4c-4.5-0.9-9-1.2-13.6-1.1c0.2-0.7,0.4-1.4,0.5-2.1
	c0.9-4.3,1.6-8.4,2.2-12.5c2.7-0.8,5.4-1.7,8.1-2.5c6.7-2,13.5-4.2,20.4-6.6l-1.9-5.2c-6.7,2.4-13.5,4.5-20.1,6.6l-5.7,1.8
	c3.2-33-5.6-59.8-28.2-84.1l1.6-1.1c-0.5-0.7-0.9-1.5-1.2-2.3c2.4-0.8,13.9,0.3,44.8,13.7c20.4,8.9,40.3,19,59.4,30.5
	c1.4,1.5,3.1,2.8,4.9,3.9c1.8,1.5,4,2.5,6.2,3.1c2.2,1.5,4.3,2.9,6.1,4.2c-2.9,3.1-5.6,6.3-8,9.8l3.9,2.8c2.4-3.5,5.1-6.7,8-9.8
	c1.6,1.2,3,2.3,4.2,3.4l-0.6,0.4c-1.4,0.9-2.9,1.9-4.3,2.7l2.5,4.1c1.5-0.9,2.9-1.9,4.4-2.8l1.6-1c5.9,5.8,5.9,8.5,5.8,9.1
	c-0.2,1.2-2.1,2.3-5.2,2.9c-2.8,0.6-8.7-2.1-14.3-4.7c-10.5-4.8-23.5-10.8-33.4-4.5c-10.9,6.9-20.2,20.7-30.1,35.4
	c-9,13.3-18.4,27.1-29,35.5c-10.4,8.1-20.5,10-31.6,5.6C370,512.1,379.6,501.9,384.5,489z M172.2,443c-4.4,3.4-8.8,6.8-13.5,8.9
	c-1.3-5.6-0.9-9.2,2.9-12.9l-4.3-4.5c-6.4,6.1-6,12.8-4.5,19.2c-2.2,0.4-4.4,0.3-6.5-0.1h-0.1c-2.1-0.4-4.1-0.9-6.1-1.7
	c-1.3-6.7,0.6-12.3,6.1-18.2l-4.6-4.2c-5.5,5.9-8.2,12-8.1,18.7c-2.2-1.8-4-4.1-5-6.8c-2.5-6.7,0-15,6.9-23.6l0.2-0.3
	c7.3-11.4,34.1-20.9,73.7-26.1c10.9-1.5,18.7-2.4,18.8-2.4l-0.8-6.2c-0.1,0-7.9,1-18.8,2.4c-28.5,3.8-47,9.1-59.1,14.6
	c-5.2-1.5-9.2-3.5-10.9-6c-0.9-1.3-1-2.9-0.4-4.3l0.1-0.4v-0.4c0.4-6.2-0.4-13.5-1.2-20.7c-1.1-9.4-2.1-19-0.4-25.2
	c2.9,3.9,6.5,7.2,10.7,9.8c4.6,2.7,9.8,4.1,15.1,4.1c4.6-0.1,9.3-0.9,13.6-2.6l0.1,0.3l0.9-0.1c8.6,5.9,18,10.6,27.9,14.1l2-5.9
	c-7.3-2.5-14.3-5.8-20.9-9.8c2.6-0.5,5.3-1,7.9-1.6c3.6,1.9,7.4,4,11.2,6.4l3.3-5.3c-1.9-1.1-3.7-2.2-5.5-3.3
	c13.4-3.3,26.5-7.6,39.2-12.8c18.6-7.3,24.8-26.3,26.8-45.5c0.1,0.1,0.1,0.3,0.2,0.4c1.1,2.7,2.3,5.8,5.2,8l0.4,0.3
	c19.8,10.8,39.4,18,60.1,25.5c19.8,7.2,40.3,14.6,62.5,25.9c13.3,8.6,23.7,22.9,29.9,40.7c-9.6-4.6-19.1-8.9-28-12.4
	c-36.4-14.6-40.3-9.8-41.7-7.9c-0.4,0.5-0.7,1-0.9,1.6c-6.1-6-12.7-11.5-19.6-16.6c-3.8-2.8-45.1-11.9-50.1-10c-1,0.3-1.8,1.2-2,2.2
	c-1.2,5.8-1.3,12.1-1.3,18.3c0,5.9-0.1,11.4-1.2,15.1c-4,13-12.1,20-25.4,31.5c-3.1,2.7-6.7,5.8-10.4,9.2c-2.4,0.8-6.2,1.7-10.6,2.7
	c-4.5,1-9.4,2.2-14.1,3.5c-21.1,2.7-38,6-43.3,9.6C176.5,439.8,174.4,441.4,172.2,443z M129.2,304.8l-0.7-0.8
	c-15.1-15.5-6-48.3,7.3-62c1.7-1.8,2.4-5,2.5-9.9c0.2,0.5,0.5,1,0.9,1.4c1.6,1.6,4.2,1.5,9.9,1.1c0.6-0.1,1.4-0.1,1.6-0.1
	c0.5,0.1,1.1,0.2,1.6,0.4c1,0.3,2.1,0.5,3.2,0.5c1,0,1.9-0.3,2.7-0.9c1-0.8,1.5-1.9,1.5-3.1c0-6.3-5.2-13.8-10.7-21.7
	c-3.3-4.7-6.7-9.6-8.1-13.2c-0.1-0.5-0.3-0.9-0.5-1.4l-5.8,1.9c-0.6-2.9-1.5-8.1-1.4-10.7c3.1,1.1,9.8,4.7,14.4,7.3
	c11.3,6.2,16.7,8.9,20,8.7c14.4-0.2,33.7,3.5,50.5,9.7c20,7.4,35.1,17.9,42.4,29.5c0.5,0.8,0.9,1.6,1.3,2.4
	c-5.1-1.1-12.9,2.6-22.2,7.1c-7.1,3.4-15.1,7.2-19.6,7.4l-0.5,6.2c10.8,2.2,22.3,8.1,28.7,14.7c1.9,2,3.6,2.6,5,2.6
	c0.7,0,1.4-0.2,2.1-0.5c3.5-1.8,4.4-6,5.2-9.6c0.2-1.3,0.6-2.6,1.1-3.8c1-2,1.8-3.8,2.5-5.5c-0.1,0.4-0.1,0.8-0.1,1.1
	c0,29.1-1.9,58.2-24,67c-14.6,5.9-29.7,10.6-45.1,14.1c-10.9-5.5-20.6-8.8-29.1-9.8l-0.3,2.6l-1.4-1.3l-4.2,4.5
	c1.7,1.6,3.4,3.1,5.1,4.5c-4.3,1.5-9,2.1-12.4,1s-4.7-3.3-4.5-7.1l-3.1-0.2l7,0.1c1.9-1.1,3.1-3.2,3.1-5.4
	c-0.2-3.6-3.6-7.8-18.9-7.8v1.2l-1.3,0.2c-0.7-1.8-1.4-3.6-2-5.5v-0.4h-0.1c-1.6-5-2.7-10.2-3.3-15.4L129.2,304.8z M142.7,211.6
	c0.4,0.5,0.7,1.1,1.1,1.6c3.6,5.2,7.7,11,9.1,15.3c-0.7-0.2-1.5-0.3-2.2-0.3c-0.5,0-1.1,0-2.2,0.1s-3.3,0.3-4.7,0.3l0,0
	c-0.3-2.3-0.6-7.1-0.8-11C142.9,215.6,142.8,213.6,142.7,211.6z M134.9,198.2c0,0.1,0,0.1,0,0.2c0.8,3.8,1.3,7.7,1.4,11.6
	c-0.4-2.8-0.7-5.3-0.7-6.2C135.5,201.8,135.3,200,134.9,198.2z M148.3,333.8c-1,0.5-2.2,0.7-3.4,0.5c-1.3-0.3-2.4-1-3.2-2.1
	C145.7,332.6,147.5,333.4,148.3,333.8z M171.1,342.1l-0.1,0.1l-0.1-0.1L171.1,342.1z M176.1,346.1c0.8-0.6,1.5-1.2,2.1-1.9
	c2.1,0.7,4.3,1.6,6.5,2.5c-2.1,0.4-4.2,0.8-6.3,1.1C177.6,347.2,176.8,346.7,176.1,346.1L176.1,346.1z M252.9,275.2l-0.3-0.3
	c-5.1-5.3-12.9-10.1-21.2-13.3c3.5-1.4,7.2-3.2,10.9-5c5.7-2.7,16.3-7.8,18.3-6.6c0.1,0.1,1.4,2.5-4.7,15.2
	c-0.7,1.7-1.2,3.4-1.6,5.2C254.1,272,253.6,273.6,252.9,275.2L252.9,275.2z M320.7,172.6v-0.3l-0.1-0.3c-4.9-19.4-5.8-38.8-2.4-56.1
	c1.2-2.8,2.9-2.8,3.4-2.8c3.1-0.1,7.4,3.5,9,6.8l0.1,0.3l0.2,0.2l2,2.2c5.4,5.9,11,12.1,17.7,17l0.9,0.6l1.1-0.3
	c13.2-3.4,27.2-2.6,40.7-1.8c4.7,0.3,9.5,0.6,14.3,0.7h1l0.7-0.8c2.7-2.8,5.2-5.9,7.6-8.9c6.1-7.4,12-14.5,20.1-18.9
	c4.5,1.5,4.6,6.6,4.2,14.1c-0.2,2.2-0.2,4.4-0.1,6.7c-0.4,10.6-2.4,21.8-6.3,36.4l-0.1,0.3v0.3c0,5,1.4,9.8,2.6,14.4
	c1.2,4.4,2.4,8.5,2.5,12.8v0.2c2.3,17.8-4.3,31-11.8,37.9c-4.7-1.6-9.3-3.3-13.8-5.1c-7.6-3-15.6-6-23.8-8l-1,4.5
	c7.9,1.9,15.7,4.9,23.2,7.8c3.3,1.3,6.7,2.6,10.1,3.8c-2.5,0.7-5.1,1.2-7.7,1.4c-1.3,0.1-2.6,0.3-3.9,0.5c-4.2-3.5-8.7-6.6-13.6-9.1
	l-2.2,4.1c3.5,1.9,6.9,4,10.1,6.4c-1.6,0.6-3,1.4-4.3,2.4l-0.3,0.3c-4.5,5.2-10.9,8.4-17.8,8.9c-10.2,0.8-17.8-0.6-23.3-4.3
	c-1.4-1.1-2.9-2.4-4.2-3.5c-2.1-1.8-4.2-3.6-6.5-5.2c2.6-2.3,5.3-4.3,8.3-6.1l-2.4-4c-3.6,2.2-6.9,4.7-9.9,7.5
	c-1.5-0.9-3.2-1.6-4.8-2.2c5.6-4.3,12-7.9,18.3-7.9V221c-8.1,0.1-16,4.6-22.9,10.3c-9.1-5.5-21.2-15.4-21.6-29.5
	c-0.2-4.8,1.5-9.3,3.2-14.1S320.7,178,320.7,172.6z M445.2,310.4h3.7l-1.4,0.3c2,2,4.1,5.3,6.9,10.9c0.4,0.9,1.1,2,1.9,3.5
	c-3.3-0.7-6.6-1-10-0.9c-2-0.1-3.9,0.9-4.9,2.6c-2.5,4.5,1.1,14.3,11.8,31.7l0.2,0.4c1.5,8.7,2.1,17.5,2,26.3
	c-0.1,4.7,0.1,9.4,0.7,14l0.1,0.4c0.9,2.9,2,5.8,3.3,8.6c-7.7-4.4-16-8.8-24.4-13c-5.6-19.8-16.6-38.4-34.4-49.8l-0.3-0.2
	c-22.6-11.5-43.4-19-63.4-26.3c-8-2.9-15.8-5.7-23.4-8.7c0.9-16.9,5.1-33.6,9.2-50c1-4.2,2.1-8.4,3.1-12.7
	c3.2-3.7,6.7-7.3,10.4-10.6l0.8,0.4l0.2,0.1l0.2,0.1c1.4,0.4,2.8,1,4.2,1.7c-2.9,3-5.8,6.1-8.8,9.5l3.5,3.1c3.2-3.6,6.2-7,9.4-10.1
	c2.4,1.7,4.6,3.6,6.9,5.6c1.4,1.2,2.9,2.5,4.4,3.7l0.1,0.1c5.3,3.6,12.1,5.4,20.7,5.4c1.8,0,3.6-0.1,5.6-0.2
	c8-0.5,15.5-4.3,20.8-10.3c1.7-1.2,3.6-2,5.7-2.4c4.2,3.8,7.9,8.1,11.1,12.7l3.8-2.7c-2.7-3.9-5.8-7.5-9.1-10.9
	c3.4-0.2,6.7-0.9,9.9-2c0.3,12.2,5.3,24.5,10.1,36.5C440.6,288.9,445.2,300,445.2,310.4z M478.2,346.4c-2.2,1.9-3.6,5-4.9,7.9
	c-1.4,3.2-2.9,6.5-5,7.4c-0.2,0-0.4-0.1-0.5-0.1c-4.5-2-12.5-16.6-15.2-23.6c-0.3-0.6-0.6-1.1-0.9-1.7c-0.6-0.9-1.1-1.8-1.5-2.8
	c2.9,0,5.7,0.2,8.6,0.7c0.9,0.1,1.7,0.2,2.2,0.3l0.9,0.1c2.4,0.1,4.9,0.5,7.2,1.1c4.5,1.4,8.9,3,11.8,5.9
	C480,343.3,479.2,344.9,478.2,346.4L478.2,346.4z M445.6,329.3c0.1-0.2,0.6-0.2,0.8-0.2h0.2c0.5,0,1,0,1.5,0c-0.7,0.2-1.4,0.5-2,1
	c-0.3,0.3-0.6,0.5-0.8,0.9C445.3,330.4,445.4,329.8,445.6,329.3L445.6,329.3z M510.5,438c1.4,0.9,2.8,1.8,4.2,2.6l0,0
	c0.3,0.2,0.5,0.4,0.8,0.6c-3.4,1.4-6.4,3.6-8.9,6.2c-0.4-3.4-2.9-7.1-6.5-10.8c1.5-0.9,3.1-1.7,4.7-2.5c2,0.9,3.8,2.1,5.5,3.6
	L510.5,438z M531.9,435.7c0.4,0.4,0.9,0.8,1.4,1c1.8,0.9,3.8,1.4,5.8,1.4c-3.3,2.1-7.2,2.9-11,2.4
	C529.6,439.1,530.8,437.5,531.9,435.7L531.9,435.7z M584.3,459.2c-21,1.5-40.8,3-59.6,1.1h-0.3c-3.3,0-9.5-1.8-17-4.3
	c2.1-5,6.5-8.6,13-10.8c0.9-0.3,1.8-0.5,2.7-0.8c2.3,0.7,4.8,1.1,7.2,1.1c3.7,0,7.3-1,10.5-2.8c20.1,0.5,44.5,7.2,61.3,15.3
	C596.2,458.2,590.2,458.7,584.3,459.2L584.3,459.2z M496.4,433.2c-1.2-1.1-2.6-2.2-4-3.4c2.1,0.6,4.3,1.2,6.4,2
	C498,432.2,497.2,432.7,496.4,433.2L496.4,433.2z M332,234.5c-1.4,1.3-2.8,2.6-4.1,4c0.4-2,0.8-4,1.2-5.9
	C330.1,233.3,331,233.9,332,234.5z M306.5,307.5c-4.1-1.7-8.1-3.4-12.2-5.3c4.2-7.1,9.5-13.6,15.8-19.1
	C308.3,291.1,307.1,299.3,306.5,307.5L306.5,307.5z M528.9,419c2.3-0.4,4.5-0.6,6.8-0.8c-0.5,2.3-3.2,6.9-4.9,8.2
	c-3-1.8-5.8-3.7-8.5-5.9C524.5,419.8,526.7,419.3,528.9,419z M508.5,427.6c-1.3,0.4-2.6,0.8-3.8,1.3c-1.6-0.7-3.4-1.4-5.1-2
	C502.6,426.8,505.6,427,508.5,427.6L508.5,427.6z M573.3,344.7L573.3,344.7c-3.4,0-6.2-1.8-9.3-3.7l-0.7-0.4c-0.9-0.6-1.8-1-2.6-1.4
	c-1.4-0.6-2.6-1.4-3.6-2.5c-0.9-1.2-1.7-2.5-2.3-3.9c-2.2-5.6-1.6-9.6,1.9-13.6c1.9-1.4,3.6-2.6,5.1-3.7c2.6-2.1,5.4-4,8.4-5.6
	l0.2-0.1l0.2-0.2c3.5-3,5.1-3.7,5.7-3.9c0.9,1.6,1,4.9,1.1,7.5c0,1.6,0.1,3.1,0.3,4.7c0.5,3.2-0.2,6.2-0.9,9.4c-0.5,2-0.9,4-1.1,6.1
	C575.7,335.8,575.1,341.8,573.3,344.7L573.3,344.7z M567.7,305.7c-0.9,0.5-1.8,1-2.7,1.6c1-0.7,2-1.3,3-1.9L567.7,305.7z
	 M672.9,348.8c9.7,0.4,17.3,6,18.3,10.9c0.8,3.9-2.8,6.7-5.9,8.3c-1.3,0.7-2.7,1.3-4,1.9c-0.9-3.6-2.5-6.9-4.9-9.7l-3.8,3.1
	c2,2.5,3.4,5.4,4.1,8.6l-2.5,1l-1.2,0.5c-0.8-2.9-2-5.7-3.5-8.3l-4.3,2.5c1.3,2.5,2.4,5.1,3.2,7.8c-1.8,0.8-3.7,1.6-5.5,2.6
	l-0.7,0.3c-0.9-2.3-1.3-4.7-1.2-7.1h-5c-0.1,3.1,0.5,6.2,1.6,9.1c-2.9,0.9-5.9,1.7-8.9,2.2c-3.7-4.7-3.1-6.4-1.5-11.5
	c0.2-0.4,0.3-0.9,0.4-1.4c2-6.3,8.2-20.7,24.1-20.7L672.9,348.8z M643,368l-0.4,1.4c-1.2,3.7-1.9,6.4-1.2,9.4
	c-1.9,2.3-4.1,4.5-6.4,6.4c-1.7,1.5-8.3,3.6-14.7,5.6c-8.8,2.8-18.8,6-24,9.8c-1.7,1.2-3.4,2.2-5.3,3c0.3-0.3,0.6-0.6,1-0.8l0.4-0.2
	l0.3-0.4c5.2-6.9,6.9-16.9,0.3-47.4l-0.2-0.7l-0.4-0.4c11.2,3.8,33,5.3,53.9,6.4C645,362.6,643.9,365.2,643,368z"/>
<path d="M388.9,513.2c10.6-8.3,20-22.1,29-35.5c9.9-14.6,19.3-28.4,30.1-35.4c9.9-6.3,22.9-0.3,33.4,4.5c5.6,2.6,11.5,5.3,14.3,4.7
	c3.1-0.6,5-1.7,5.2-2.9c0.1-0.7,0.1-3.3-5.8-9.1l-1.6,1c-1.5,0.9-2.9,1.9-4.4,2.8l-2.5-4.1c1.5-0.9,2.9-1.8,4.3-2.7l0.6-0.4
	c-1.2-1.1-2.6-2.2-4.2-3.4c-2.9,3-5.6,6.3-8,9.8l-3.9-2.8c2.4-3.5,5.1-6.7,8-9.8c-1.8-1.3-3.9-2.7-6.1-4.2c-2.3-0.6-4.4-1.7-6.2-3.1
	c-1.8-1.1-3.4-2.4-4.9-3.9c-19.1-11.4-39-21.6-59.4-30.5c-30.9-13.4-42.4-14.5-44.8-13.7c0.3,0.8,0.7,1.6,1.2,2.3l-1.6,1.1
	c22.5,24.4,31.4,51.1,28.2,84.1l5.7-1.8c6.6-2,13.4-4.1,20.1-6.6l1.9,5.2c-6.9,2.5-13.7,4.6-20.4,6.6c-2.7,0.8-5.4,1.7-8.1,2.5
	c-0.6,4.1-1.3,8.2-2.2,12.5c-0.1,0.7-0.3,1.4-0.5,2.1c4.6-0.1,9.1,0.3,13.6,1.1l-1.1,5.4c-14.6-2.9-34.9,0.4-53,8.8l-2.3-5
	c11.7-5.4,24.2-8.7,37-10c0.3-1.2,0.6-2.3,0.9-3.5c0.7-3.2,1.2-6.3,1.7-9.4c-16.7,5.6-32,12.5-43,26.2l-4.3-3.5
	c12.5-15.5,29.5-22.7,48.1-28.8c2.2-19.9,0-37.4-6.8-53c-7.9-18-21.7-34.1-43.5-50.4c-3-1.8-35.8-9.1-43.8-9.3
	c-0.7,5.1-1,10.3-0.9,15.4c0,6.3-0.1,12.2-1.5,16.7c-4.5,14.5-13.5,22.3-27.1,34.1c-3.2,2.8-6.9,6-10.8,9.5l-0.4,0.4l-0.5,0.2
	c-2.7,1-6.9,2-11.7,3.1c-11.9,2.8-29.7,6.9-34,13.7c1.5,2.8,14.1,8.6,21.6,12.1c14.7,6.8,23,10.8,24,15.6
	c5.4,26,26.7,41.3,49.5,47.1c3.1-2.4,6.3-4.5,9.7-6.5l2.7,4.8c-1.9,1.1-3.6,2.1-5.2,3.2c1.2,0.2,2.5,0.4,3.7,0.5
	c0.3-0.7,0.6-1.3,0.9-2l4.9,2.4l0,0.1c1.6,0.1,3.1,0.2,4.6,0.2h0.2c1.9,0,3.8-0.1,5.7-0.2c0.5-2.1,0.6-4.4,0.2-6.5l-0.6-4l3.9,0.8
	c14.5,3.1,20.1-4.4,24.2-11.6l4.8,2.7c-2.9,5.1-9.6,16.8-26.5,14.8c0,1.9-0.2,3.9-0.8,5.7l3.5-3.1c17.6-3.1,35.5-12.3,43.8-30.5
	l6.4-1c-5,12.9-14.5,23.2-27.2,29.8C368.4,523.1,378.5,521.3,388.9,513.2z M325.2,435.3l4-4.3l1.2,5.7c3,14.2-2.1,23.5-8.1,26.1
	c-1,0.4-2.1,0.7-3.2,0.7c-2,0.1-3.9-0.9-5-2.5C312.5,458.6,310.2,451.2,325.2,435.3L325.2,435.3z M294.1,356.5
	c3.3-2.9,8-0.6,13.1,1.7c1.4,0.7,2.9,1.4,4.3,1.9c13,5.2,22.6,9.4,28.5,12.5c6.1,3.2,9.4,5.7,8.6,8.9c-1.1,4.3-7.6,4-24.8,2
	c-3.5-0.4-7.7-0.9-9.4-0.9l-0.5,0.5l-1.6-0.3c-3.8-0.8-10.4-1.4-12.4,0l-3.1,2.2l-1.1-3.6C290.5,364.2,291.2,359,294.1,356.5z
	 M215.3,449.7c-2-0.9-3.4-2.8-3.5-5c0-2.4,1.7-4.8,4.7-6.4c6.7-3.6,20-4,35.7,6.8l2.1,1.4l-1.3,2.2c-0.8,1.3-1.5,2.9-2.2,4.5
	c-2.1,4.4-3.9,8.2-6.9,9.3c-0.5,0.2-1,0.3-1.6,0.3c-0.8,0-1.6-0.2-2.3-0.6L215.3,449.7z M275.6,494c-2-1.2-2.9-3.6-2.1-5.8
	c1.3-4.4,8-8.5,20-8l7,0.3l-5,4.9c-6.2,6.2-12.1,9.5-16.4,9.5C277.8,494.9,276.6,494.6,275.6,494z"/>
<path d="M291,484.5h-0.9C271.1,483.6,275.9,499.5,291,484.5z"/>
<path d="M319.2,457.4c0.9-0.1,1.7-0.6,2.2-1.2c2-1.9,3.8-5.8,3.8-11.5C319,452.5,318.8,456.6,319.2,457.4L319.2,457.4z"/>
<path class="st9" d="M319.2,463.5c1.1,0,2.2-0.2,3.2-0.7c6-2.6,11.1-11.9,8.1-26.1l-1.2-5.7l-4,4.3c-15,15.9-12.7,23.3-11,25.7
	C315.4,462.6,317.2,463.6,319.2,463.5z M325.2,444.7c0,5.7-1.7,9.6-3.8,11.5c-0.6,0.7-1.4,1.1-2.2,1.2l0,0
	C318.8,456.6,319,452.5,325.2,444.7L325.2,444.7z"/>
<path class="st9" d="M295.4,485.4l5-4.9l-7-0.3c-12-0.5-18.6,3.6-20,8c-0.7,2.2,0.1,4.6,2.1,5.8c1,0.6,2.2,0.9,3.4,0.9
	C283.3,494.9,289.2,491.6,295.4,485.4z M290.1,484.5h0.9C275.9,499.5,271.1,483.6,290.1,484.5L290.1,484.5z"/>
<polygon points="323.3,530.2 323.3,530.2 323.3,530.2 "/>
<polygon points="305.8,543.5 305.8,543.5 305.8,543.5 "/>
<path d="M312.9,377.2c0.5-0.1,1.1-0.1,1.6-0.1c1.9,0,4.9,0.3,10,0.9c4.5,0.5,12,1.4,16.4,1.4l0,0c-3.6-2.2-11.9-6.4-31.4-14.2
	c-1.6-0.6-3.1-1.4-4.6-2c-2.3-1.1-6-2.8-7.1-2.5c-0.3,0.4-1.3,3,2.6,16.2C304.7,375.9,310.5,376.8,312.9,377.2z"/>
<path class="st9" d="M297.1,385l3.1-2.2c2-1.4,8.5-0.8,12.4,0l1.6,0.3l0.5-0.5c1.7,0,5.9,0.5,9.4,0.9c17.1,1.9,23.7,2.3,24.8-2
	c0.8-3.2-2.6-5.7-8.6-8.9c-5.9-3.1-15.5-7.3-28.5-12.5c-1.4-0.6-2.9-1.2-4.3-1.9c-5-2.4-9.8-4.6-13.1-1.7c-2.8,2.5-3.6,7.7,1.9,24.9
	L297.1,385z M297.7,360.7c1.1-0.3,4.9,1.5,7.1,2.5c1.5,0.7,3,1.4,4.6,2c19.5,7.8,27.9,12,31.4,14.2l0,0c-4.4,0-11.8-0.8-16.4-1.4
	c-5.1-0.6-8.1-0.9-10-0.9c-0.5,0-1.1,0-1.6,0.1c-2.4-0.5-8.1-1.4-12.5-0.4C296.4,363.7,297.4,361.1,297.7,360.7L297.7,360.7z"/>
<path d="M220.3,442.6c-1.2,0.3-2.2,1-3,1.9c0.1,0.1,0.2,0.2,0.4,0.2l24.4,12.4c1-0.8,2.6-4.2,3.6-6.3c0.4-0.8,0.8-1.7,1.2-2.5
	C235.5,441.1,225.8,440.6,220.3,442.6z"/>
<path class="st9" d="M239.9,462.2c0.7,0.4,1.5,0.6,2.3,0.6c0.5,0,1.1-0.1,1.6-0.3c3.1-1,4.9-4.9,6.9-9.3c0.7-1.5,1.5-3.1,2.2-4.5
	l1.3-2.2l-2.1-1.4c-15.7-10.7-29-10.3-35.7-6.8c-3,1.6-4.7,3.9-4.7,6.4c0.1,2.2,1.5,4.1,3.5,5L239.9,462.2z M245.8,450.8
	c-1,2.1-2.6,5.4-3.6,6.3l-24.4-12.4c-0.1-0.1-0.3-0.1-0.4-0.2c0.8-0.9,1.8-1.6,3-1.9c5.4-2,15.2-1.5,26.6,5.7
	C246.6,449.1,246.1,450,245.8,450.8L245.8,450.8z"/>
<path d="M592.7,353.9l0.2,0.7c6.5,30.5,4.8,40.5-0.3,47.4l-0.3,0.4l-0.4,0.2c-0.4,0.3-0.7,0.5-1,0.8c1.9-0.8,3.6-1.8,5.3-3
	c5.3-3.8,15.2-7,24-9.8c6.3-2,12.9-4.1,14.7-5.6c2.4-1.9,4.5-4,6.4-6.4c-0.7-3,0-5.7,1.2-9.4l0.5-1.3c0.8-2.8,1.9-5.4,3.3-8
	c-20.9-1.1-42.7-2.6-53.9-6.4L592.7,353.9z"/>
<path d="M567.7,305.7l0.3-0.2c-1,0.6-2,1.2-3,1.9C565.9,306.8,566.8,306.2,567.7,305.7z"/>
<path d="M446.1,330c0.6-0.5,1.3-0.8,2-1c-0.5,0-1,0-1.5,0h-0.2c-0.2,0-0.7,0-0.8,0.2c-0.2,0.5-0.3,1-0.2,1.6
	C445.6,330.5,445.8,330.2,446.1,330z"/>
<path d="M508.5,427.6c-2.9-0.6-5.9-0.8-8.9-0.6c1.8,0.6,3.5,1.2,5.1,2C506,428.4,507.3,428,508.5,427.6z"/>
<path d="M528.1,440.5c3.8,0.6,7.8-0.3,11-2.4c-2,0-4-0.4-5.8-1.4c-0.5-0.3-1-0.6-1.4-1C530.8,437.5,529.5,439.1,528.1,440.5z"/>
<path d="M530.9,426.4c1.7-1.3,4.4-5.9,4.9-8.2c-2.3,0.1-4.6,0.4-6.8,0.8c-2.2,0.3-4.4,0.8-6.6,1.6
	C525.1,422.7,527.9,424.6,530.9,426.4z"/>
<path d="M509.3,396c-1.1-4.1-5.5-7.7-9.6-8.8c-0.9-0.3-1.8-0.4-2.7-0.4c-2.1-0.1-4.1,1-5.2,2.9c-0.1,0.2,0.1,1,0.3,1.5
	c1.6,5.4,9.8,7.5,12.6,6.7c0.9-0.3,1.8-0.6,2.6-1C508,396.5,508.6,396.2,509.3,396z"/>
<path class="st9" d="M513,397.9h1.4c-0.1-7.3-6.9-13.5-13.5-15.4c-5.6-1.6-10.5,0.1-13.2,4.5c-0.9,1.7-1,3.6-0.3,5.4
	c2.1,7,10.3,10.3,15.9,10.3c0.9,0,1.8-0.1,2.6-0.3c1.1-0.3,2.3-0.7,3.3-1.2c1.2-0.6,2.5-1,3.8-1L513,397.9z M492,391
	c-0.1-0.5-0.4-1.3-0.3-1.5c1.1-1.8,3.1-2.9,5.2-2.9c0.9,0,1.8,0.1,2.7,0.4c4.1,1.1,8.5,4.8,9.6,8.8c-0.7,0.2-1.4,0.5-2,0.8
	c-0.8,0.4-1.7,0.7-2.6,1C501.8,398.5,493.6,396.4,492,391L492,391z"/>
<path d="M559,379.4c0-0.8-0.3-1-0.6-1.2c-1.6-0.9-3.4-1.3-5.3-1.3c-2.2,0-4.4,0.8-6.1,2.1c-3.1,2.6-4.8,6.5-4.5,10.6
	c3.5-0.6,6.5,0.5,9.6-1.5l0.1-0.1C556.2,386,559,381.9,559,379.4z"/>
<path class="st9" d="M563.8,379.4c0.1-2.3-1.2-4.4-3.2-5.4c-5.3-2.9-11.8-2.4-16.5,1.3c-5.3,4.4-7.6,11.5-5.8,18.1l0.8,3.2l2.8-1.7
	c1.1-0.7,2.5-0.7,4.2-0.7c3,0.2,6-0.5,8.6-1.9C559.8,389.5,563.8,383.9,563.8,379.4z M552.1,388.2c-3.1,1.9-6.1,0.9-9.6,1.5
	c-0.3-4,1.4-8,4.5-10.6c1.7-1.4,3.9-2.1,6.1-2.1c1.8,0,3.6,0.5,5.3,1.3c0.3,0.1,0.6,0.4,0.6,1.2C559,381.9,556.2,386,552.1,388.2
	L552.1,388.2z"/>
<path d="M469,335.7c-2.4-0.6-4.8-1-7.2-1.1l-0.9-0.1c-0.5,0-1.3-0.2-2.2-0.3c-2.8-0.5-5.7-0.7-8.6-0.7c0.5,0.9,1,1.9,1.5,2.8
	c0.4,0.5,0.7,1.1,0.9,1.7c2.7,7,10.7,21.6,15.2,23.6c0.2,0.1,0.4,0.1,0.5,0.1c2.1-0.8,3.6-4.2,5-7.4c1.3-3,2.7-6.1,4.9-7.9
	c1-1.5,1.9-3.1,2.6-4.8C477.9,338.7,473.4,337.1,469,335.7z"/>
<path d="M577.9,317.9c-0.2-1.6-0.3-3.1-0.3-4.7c-0.1-2.7-0.2-6-1.1-7.5c-0.6,0.2-2.2,0.9-5.7,3.9l-0.2,0.2l-0.2,0.1
	c-2.9,1.7-5.7,3.5-8.4,5.6c-1.5,1.1-3.2,2.4-5.1,3.7c-3.5,4-4,8-1.9,13.6c0.6,1.4,1.3,2.7,2.3,3.9c1,1.1,2.2,1.9,3.6,2.5
	c0.8,0.4,1.7,0.8,2.6,1.4l0.7,0.4c3.2,2,5.9,3.7,9.2,3.7h0.1c1.8-2.9,2.3-8.9,2.6-11.3c0.2-2.1,0.6-4.1,1.1-6.1
	C577.7,324.1,578.4,321,577.9,317.9z"/>
<path d="M549.8,418.6l-2.2-4.3c10.9-5.5,21.8-6.9,33-6.7c2.6-3.1,5.3-6,8.2-8.7c5.4-7.6,3.9-21.5-0.6-42.6c-4.9-5-9.6-13.1-7.6-20.5
	c0.2-1.2,0.3-2.4,0.5-3.6c0.3-1.9,0.5-3.7,0.7-5.5l-0.3,1.5c-0.5,1.8-0.8,3.6-1,5.5c-0.5,5.8-1.4,11.6-4.3,14.8l-0.6,0.7l-0.9,0.1
	c-0.5,0.1-1.1,0.1-1.6,0.1c-4.7,0-8.5-2.4-11.8-4.5l-0.7-0.4c-0.7-0.4-1.4-0.8-2.2-1.2c-2-0.9-3.7-2.1-5.1-3.7
	c-1.2-1.6-2.2-3.3-3-5.2c-1.6-4.1-3.1-10.1,1.2-16.5c-1,0.6-2,1.2-3.1,1.7l-0.6,0.3l-0.7-0.1c-11.8-1.3-23.3,1.7-31.9,4.5
	c-11.4,4.4-27.9,7.2-39.6,8.4h-0.2c3.8,1.5,7.4,3.5,9.9,6.6l0.4,0.5l0.1,0.7c0.2,2.2-3.4,8.4-4.5,9.3c-1.4,1.2-2.5,3.8-3.6,6.3
	c-1.7,3.9-3.7,8.4-7.7,9.9c-0.6,0.2-1.2,0.3-1.8,0.3c-0.8,0-1.7-0.2-2.4-0.5c-2.5-1.1-5.1-3.9-7.5-7.4c1.5,8.8,2.1,17.8,2,26.7
	c-0.1,4.4,0.1,8.8,0.6,13.1c2.2,7.2,6.3,16.5,13,20.1l0.3,0.2l0.3,0.3c1.4,1.5,7.5,3.1,12.8,4.4l3.7,1c5.1-2.5,11.2-3.1,19.6-1.3
	l-0.9,4.1c1.7-0.4,3.4-0.7,5.2-0.9l0.4,4.8c-1.6,0.1-3.2,0.4-4.7,0.8c0.9,0.6,1.8,1.3,2.6,2c2.3,1.5,4.7,2.9,7.2,4.1l-0.8,0.1
	c0.7,0.4,1.6,0.5,2.4,0.3c2.6-0.6,5.2-4,7-7.7c-1.9-1-3.6-2.1-5.3-3.4c-0.5-0.4-5.3-3.8-6.5-5.1c-0.9-1-1-2.6-0.3-3.7
	c2.5-4.2,18.9-5.5,21.2-5.1l0.7,0.1l0.5,0.5c0.9,0.8,1.8,2.5,1,5.6c-1.2,3.9-3.4,7.5-6.4,10.3l0.5,0.1c-0.1,1,0.3,2,1.2,2.5
	c2.7,1.6,8.6,0.3,10.2-0.7l0.8,1.2c2-1,4-2.1,4.8-3.5c1.3-2.1,4.1-3,6.5-3.8c1-0.3,2-0.7,2.9-1.1c1.3-1.4,3-2.3,4.8-2.7
	c0.8-0.2,1.6-0.5,2.2-0.9c0.1-0.1,0.3-0.3,0.6-0.5c-5.5,0.6-10.9,1.6-16.3,3l-1.2-4.6c7.5-1.9,15.2-3.2,23-3.7l0.4-0.4l7-0.5
	l5.8-0.4l3.1-0.2l5.5-0.4C579.7,411.8,564.5,411.2,549.8,418.6z M509.3,401.1c-1.1,0.5-2.2,0.9-3.3,1.2c-0.9,0.2-1.8,0.3-2.6,0.3
	c-5.5,0-13.8-3.3-15.9-10.3c-0.7-1.7-0.6-3.7,0.3-5.4c2.7-4.4,7.7-6.1,13.2-4.5c6.6,1.8,13.4,8.1,13.4,15.4H513l0.1,2.3
	C511.7,400.2,510.5,400.5,509.3,401.1L509.3,401.1z M541.8,394.9l-2.8,1.7l-0.8-3.2c-1.7-6.7,0.5-13.7,5.8-18.1
	c4.7-3.7,11.3-4.2,16.5-1.3c2,1,3.3,3.1,3.2,5.4c0,4.5-4,10.1-9.2,12.9c-2.6,1.5-5.6,2.1-8.6,1.9
	C544.3,394.2,542.9,394.2,541.8,394.9z"/>
<path d="M647.6,369.4c-0.2,0.5-0.3,0.9-0.4,1.4c-1.6,5.1-2.1,6.8,1.5,11.5c3-0.5,6-1.2,8.9-2.2c-1.1-2.9-1.6-6-1.5-9.1h5
	c-0.1,2.4,0.3,4.9,1.2,7.1l0.7-0.3c1.8-0.9,3.7-1.8,5.5-2.6c-0.8-2.7-1.8-5.3-3.2-7.8l4.3-2.5c1.5,2.6,2.6,5.4,3.5,8.3l1.2-0.5
	l2.5-1c-0.7-3.1-2.1-6.1-4.1-8.6l3.8-3.1c2.3,2.8,4,6.2,4.9,9.7c1.3-0.6,2.7-1.2,4-1.9c3.2-1.6,6.8-4.4,5.9-8.3
	c-1.1-4.9-8.7-10.5-18.3-10.9h-1.2C655.8,348.7,649.5,363.1,647.6,369.4z"/>
</svg>
