<?xml version="1.0" encoding="utf-8"?>
<!-- Generator: Adobe Illustrator 22.0.1, SVG Export Plug-In . SVG Version: 6.00 Build 0)  -->
<svg version="1.1" id="Layer_1" xmlns="http://www.w3.org/2000/svg" xmlns:xlink="http://www.w3.org/1999/xlink" x="0px" y="0px"
	 viewBox="0 0 735 852" style="enable-background:new 0 0 735 852;" xml:space="preserve">
<style type="text/css">
	.st0{clip-path:url(#SVGID_2_);}
	.st1{opacity:0.2;fill:url(#SVGID_3_);}
	.st2{fill:#FFFFFF;}
	.st3{fill:#42285B;}
	.st4{opacity:0.9;}
	.st5{opacity:0.5;}
</style>
<g>
	<g>
		<defs>
			<polygon id="SVGID_1_" points="369.5,7.4 728.2,214.5 728.2,636.6 369.5,845 2.8,636.6 2.8,214.5 			"/>
		</defs>
		<use xlink:href="#SVGID_1_"  style="overflow:visible;fill:#54346F;"/>
		<clipPath id="SVGID_2_">
			<use xlink:href="#SVGID_1_"  style="overflow:visible;"/>
		</clipPath>
		<g class="st0">
			<linearGradient id="SVGID_3_" gradientUnits="userSpaceOnUse" x1="366.0242" y1="-78.829" x2="366.0242" y2="390.4361">
				<stop  offset="0" style="stop-color:#FFFFFF;stop-opacity:0.83"/>
				<stop  offset="1" style="stop-color:#FFFFFF;stop-opacity:0"/>
			</linearGradient>
			<path class="st1" d="M652,191c-6-4.1-11.9-8.1-18.1-11.8c-6.2-3.7-12.7-6.4-19.1-9.6c-12.2-6.1-23.1-14.5-34.5-22
				c-12.7-8.3-25.9-16.1-38.8-24.2c-11.9-7.4-24-14.3-36.3-21.2c-11.2-6.2-23.2-10.3-35.2-14.7c-11.1-4-22.4-8.3-32.3-14.9
				c-8.1-5.5-15.7-11.8-23.3-18c-14.6-11.7-32.9-27.3-52.9-26.1c-10.7,0.7-21.2,7.1-30.2,12.2c-10.5,6-20.7,12.7-31.1,18.7
				c-24.4,14-50.1,25.4-74.6,39.1c-24.3,13.7-47.7,29-71.6,43.4c-11.9,7.2-23.7,14.3-36.5,19.8c-12.7,5.5-26,10.1-37.8,17.3
				c-8.5,5.2-15.3,13.2-22.5,20.5c27.5,108.7,155.7,190.9,309.7,190.9c151,0,277.1-79,308-184.5C667,201.3,659.5,196.1,652,191z"/>
		</g>
	</g>
	<g>
		<path class="st2" d="M365.5,797.3l4.5,4.5c1,1,1.9,1.9,2.7,2.9l0.1,0c-0.4-1.2-0.7-2.5-1-3.8l-1.4-6.3l1.6-0.9l4.7,4.3
			c1.1,1,2.1,2,2.9,2.9l0.1,0c-0.4-1.2-0.8-2.4-1.2-3.9l-1.6-6.1l1.9-1.1l2.7,12.4l-1.7,1l-4.5-4.1c-1-1-2-1.8-2.9-2.9l0,0
			c0.5,1.4,0.8,2.7,1.1,4l1.2,5.9l-1.7,1l-9.2-8.6L365.5,797.3z"/>
		<path class="st2" d="M381.7,787.9l4.5,4.5c1,1,1.9,1.9,2.7,2.9l0.1,0c-0.4-1.2-0.7-2.5-1-3.8l-1.4-6.3l1.6-0.9l4.7,4.3
			c1.1,1,2.1,2,2.9,2.9l0.1,0c-0.4-1.2-0.8-2.4-1.2-3.9l-1.6-6.1l1.9-1.1l2.7,12.4l-1.7,1l-4.5-4.1c-1-1-2-1.8-2.9-2.9l0,0
			c0.5,1.4,0.8,2.7,1.1,4l1.2,5.9l-1.7,1l-9.2-8.6L381.7,787.9z"/>
		<path class="st2" d="M397.9,778.5l4.5,4.5c1,1,1.9,1.9,2.7,2.9l0.1,0c-0.4-1.2-0.7-2.5-1-3.8l-1.4-6.3l1.6-0.9l4.7,4.3
			c1.1,1,2.1,2,2.9,2.9l0.1,0c-0.4-1.2-0.8-2.4-1.2-3.9l-1.6-6.1l1.9-1.1l2.7,12.4l-1.7,1l-4.5-4.1c-1-1-2-1.8-2.9-2.9l0,0
			c0.5,1.4,0.8,2.7,1.1,4l1.2,5.9l-1.7,1l-9.2-8.6L397.9,778.5z"/>
		<path class="st2" d="M417.1,779.7c-0.5-0.8-0.3-1.7,0.5-2.1c0.8-0.4,1.6-0.2,2.1,0.6c0.5,0.8,0.3,1.7-0.5,2.1
			C418.4,780.8,417.6,780.5,417.1,779.7z"/>
		<path class="st2" d="M418.5,770.8c-0.7-1.2-1.4-2.3-2-3.2l1.7-1l1.3,2l0.1-0.1c-0.3-1.7,0.3-3.2,1.6-4c0.2-0.1,0.4-0.2,0.6-0.2
			l1,1.8c-0.2,0.1-0.4,0.2-0.7,0.3c-1.3,0.8-1.7,2.3-1.1,3.9c0.1,0.3,0.2,0.6,0.4,0.9l3.2,5.6l-1.9,1.1L418.5,770.8z"/>
		<path class="st2" d="M428.4,772.1c0.8,0,2-0.2,2.9-0.7c1.4-0.8,1.6-1.9,1.1-2.7c-0.5-0.9-1.4-1.1-3.1-0.8
			c-2.3,0.4-3.8-0.1-4.5-1.4c-1-1.7-0.4-3.9,1.8-5.2c1.1-0.6,2.2-0.9,2.9-0.8l0.3,1.7c-0.6,0-1.5,0.1-2.5,0.6
			c-1.1,0.7-1.4,1.7-0.9,2.4c0.5,0.9,1.4,0.9,3,0.6c2.2-0.4,3.7,0,4.6,1.6c1.1,1.8,0.4,4-2.1,5.4c-1.1,0.7-2.4,1-3.4,1L428.4,772.1z
			"/>
		<path class="st2" d="M432.8,754.1l1.8,3l2.7-1.6l0.8,1.4l-2.7,1.6l3.3,5.6c0.8,1.3,1.6,1.8,2.6,1.2c0.5-0.3,0.8-0.6,1-0.8l0.9,1.4
			c-0.3,0.4-0.8,0.8-1.5,1.2c-0.9,0.5-1.8,0.6-2.5,0.4c-0.9-0.2-1.6-1.1-2.3-2.3l-3.3-5.7l-1.6,0.9l-0.8-1.4l1.6-0.9l-1.5-2.5
			L432.8,754.1z"/>
		<path class="st2" d="M452.6,756.8c0.6,1.1,1.2,2,1.7,2.8l-1.7,1l-1.1-1.6l0,0c0,1.1-0.5,2.9-2.3,4c-1.6,1-4.1,1.2-6.3-2.5
			l-3.6-6.1l1.9-1.1l3.4,5.8c1.2,2,2.5,3,4.3,2c1.3-0.7,1.6-2.1,1.5-3.2c-0.1-0.3-0.2-0.7-0.4-1.1l-3.7-6.4l1.9-1.1L452.6,756.8z"/>
		<path class="st2" d="M457.5,737.2l7.4,12.6c0.5,0.9,1.2,2,1.7,2.6l-1.7,1l-1.1-1.8l0,0c0.1,1.5-0.7,3.1-2.4,4.1
			c-2.5,1.5-5.7,0.5-7.6-2.7c-2-3.5-1.1-6.9,1.4-8.3c1.6-0.9,3.1-0.8,4.1-0.2l0,0l-3.6-6.2L457.5,737.2z M460.9,747.5
			c-0.1-0.2-0.3-0.5-0.6-0.8c-1-1-2.6-1.4-4-0.6c-2,1.1-2.1,3.6-0.8,5.9c1.2,2.1,3.3,3.3,5.3,2.1c1.3-0.7,2-2.3,1.5-3.9
			c-0.1-0.3-0.2-0.6-0.4-0.9L460.9,747.5z"/>
		<path class="st2" d="M463.9,736.1c0.4,0.6,0.2,1.4-0.5,1.9c-0.7,0.4-1.4,0.1-1.8-0.5c-0.4-0.7-0.2-1.5,0.5-1.9
			C462.7,735.2,463.5,735.4,463.9,736.1z M469.6,750.7l-6.1-10.5l1.9-1.1l6.1,10.5L469.6,750.7z"/>
		<path class="st2" d="M481,736.9c2.2,3.9,0.6,7.1-2,8.6c-2.8,1.6-6.2,0.8-8.1-2.5c-2-3.5-0.9-6.9,1.9-8.6
			C475.8,732.7,479.1,733.7,481,736.9z M472.8,741.9c1.3,2.3,3.7,3.2,5.5,2.2c1.8-1.1,2.2-3.6,0.8-5.9c-1-1.8-3.2-3.5-5.5-2.2
			C471.4,737.3,471.6,739.9,472.8,741.9z"/>
		<path class="st2" d="M484.9,740.3c-0.5-0.8-0.3-1.7,0.5-2.1c0.8-0.4,1.6-0.2,2.1,0.6c0.5,0.8,0.3,1.7-0.5,2.1
			C486.2,741.4,485.3,741.1,484.9,740.3z"/>
		<path class="st2" d="M497.7,733.8c-0.3,0.5-1.2,1.5-2.7,2.4c-3.2,1.8-6.4,0.9-8.3-2.3c-1.9-3.2-1-6.8,2.4-8.8c1.1-0.7,2.3-1,2.9-1
			l0.4,1.7c-0.6,0-1.5,0.2-2.5,0.8c-2.4,1.4-2.7,3.9-1.4,6.1c1.4,2.4,3.8,3,5.9,1.8c1.1-0.6,1.6-1.3,2-1.9L497.7,733.8z"/>
		<path class="st2" d="M506.4,722.2c2.2,3.9,0.6,7.1-2,8.6c-2.8,1.6-6.2,0.8-8.1-2.5c-2-3.5-0.9-6.9,2-8.6
			C501.2,718,504.5,719,506.4,722.2z M498.1,727.1c1.3,2.3,3.7,3.2,5.5,2.2c1.8-1.1,2.2-3.6,0.8-5.9c-1-1.8-3.2-3.5-5.5-2.2
			C496.7,722.5,497,725.1,498.1,727.1z"/>
		<path class="st2" d="M507.4,718.5c-0.6-1.1-1.2-2-1.7-2.8l1.7-1l1.1,1.6l0.1,0c0-1.3,0.4-2.8,2.2-3.8c1.4-0.8,3-0.6,4.2,0.4l0,0
			c0-0.8,0.1-1.5,0.4-2c0.3-0.8,0.9-1.5,1.9-2.1c1.4-0.8,4-1.1,6.1,2.5l3.6,6.2l-1.9,1.1l-3.4-5.9c-1.2-2-2.6-2.8-4.1-1.9
			c-1.1,0.6-1.5,1.9-1.2,3c0.1,0.3,0.2,0.7,0.4,1l3.8,6.5l-1.9,1.1l-3.6-6.3c-1-1.7-2.4-2.4-3.9-1.6c-1.2,0.7-1.5,2.1-1.2,3.3
			c0.1,0.3,0.2,0.7,0.4,1l3.7,6.3l-1.9,1.1L507.4,718.5z"/>
	</g>
	<g>
		<path class="st3" d="M705.6,196.2L427.8,35.8L367.5,1l-60.3,34.8L29.4,196.2L0.1,213.1v424.3l29.3,16.9l281.3,162.4l56.9,32.8
			l56.9-32.8l281.3-162.4l29.3-16.9V213.1L705.6,196.2z M705.6,621.5L367.5,816.7L29.4,621.5V231L367.5,35.8h0L705.6,231V621.5z"/>
	</g>
	<g>
		<g class="st4">
			<path class="st2" d="M599.9,300.1H332.2l-19.3-36.4c-8-15.1-23.6-24.5-40.8-24.5H132.8c-1,0-1.9,0.9-1.9,1.9v367.6
				c0,1,0.8,1.9,1.9,1.9h467.1c1,0,1.9-0.9,1.9-1.9V302C601.8,301,600.9,300.1,599.9,300.1z"/>
		</g>
		<g>
			<g>
				<path class="st3" d="M337.8,582.7V442.6h-22.9v-22.5h22.9v-7.7c0-22.9,5-43.7,18.8-56.8c11.1-10.8,25.9-15.1,39.7-15.1
					c10.4,0,19.5,2.4,25.2,4.7l-4,22.9c-4.4-2-10.4-3.7-18.8-3.7c-25.2,0-31.6,22.2-31.6,47v8.7h39.3v22.5H367v140.1H337.8z"/>
			</g>
			<g>
				<path class="st3" d="M393.5,568.9c4,2.6,11.1,5.4,17.8,5.4c9.8,0,14.5-4.9,14.5-11.1c0-6.5-3.8-10-13.8-13.7
					c-13.4-4.8-19.7-12.2-19.7-21.1c0-12,9.7-21.8,25.7-21.8c7.5,0,14.2,2.2,18.3,4.6l-3.4,9.8c-2.9-1.8-8.3-4.3-15.2-4.3
					c-8,0-12.5,4.6-12.5,10.2c0,6.2,4.5,8.9,14.2,12.6c12.9,4.9,19.5,11.4,19.5,22.5c0,13.1-10.2,22.3-27.8,22.3
					c-8.2,0-15.7-2-20.9-5.1L393.5,568.9z"/>
			</g>
		</g>
		<g class="st5">
			<g>
				<g>
					<path class="st3" d="M601.8,520.1c0,0,0.1,0.2,0.1,0.2c-0.2-0.5-0.3-1-0.6-1.3c-1.1-1.3-2.2-2.6-3.6-3.6
						c-1.2-0.8-2.3-1.8-3.5-2.8c-1.3-1.1-2.6-2.2-4-3.2c-0.2-0.2-0.7-0.2-0.9-0.1c-0.2,0.1-0.3,0.6-0.3,0.8c0.4,1.4,0.8,2.8,1.2,4.2
						c0.2,0.6,0,1.1-0.4,1.8c-0.4-1.6-0.8-3-1.1-4.3c-0.2-1-0.5-2-0.6-3c-0.1-0.7,0-1.4-0.1-2c-0.1-0.9-0.3-1.9-0.5-2.8
						c-0.4-1.7-1.6-2.9-2.5-4.3c-0.4-0.7-1.2-1.1-1.9-1.6c-1.1-0.8-2.1-1.6-3.2-2.4c-0.9-0.6-1.8-1-2.7-1.6
						c-0.5-0.3-0.9-0.8-1.3-1.2c-0.6-0.6-1.1-1.3-1.7-2c-0.9-1-1.7-2-2.7-2.9c-1.2-1.1-2.4-2.2-3.6-3.3c-0.2-0.1-0.4-0.2-0.6-0.2
						c-0.8-0.2-1.6-0.3-2.3-0.5c-1.3-0.3-2.4-0.1-3.6,0.4c-1.3,0.5-2.3,1.3-3.5,2c-1.9,1.1-3.7,2.3-5.6,3.2c-1,0.5-2.1,1-3.4,1
						c-1.6,0-3.1,0.5-4.7,0.6c-0.9,0.1-1.8,0.1-2.7-0.1c-1.5-0.2-2.9-0.6-4.4-0.9c-0.3-0.1-0.5-0.2-0.8-0.3c0-0.1,0-0.2,0.1-0.3
						c0.5,0.1,1.1,0.1,1.6,0.2c0.1-0.1,0.1-0.1,0.2-0.2c-0.3-0.3-0.7-0.5-1-0.8c0,0-0.1,0-0.1,0c-2.4-0.6-4.8-1.3-7.2-2
						c-0.3-0.1-0.6-0.6-1-0.6c-0.8-0.1-1.7,0-2.6,0.2l1.5,1.1l-0.1,0.3c-0.5-0.2-1.1-0.2-1.5-0.5c-0.7-0.5-1.2-1.4-2-1.8
						c-0.8-0.4-1.8-0.5-2.7-0.7c-0.1,0-0.2,0.5-0.4,0.8c-0.2,0.3-0.3,0.5-0.5,0.7c-0.1-0.2-0.3-0.4-0.4-0.7
						c-0.3-1.5-2.2-2.8-3.4-2.7c-0.4,0-0.9,0.1-1.3,0.3c-0.1,0-0.1,0.5-0.1,0.7c0,0.3,0.1,0.5,0.1,0.8c-0.1,0-0.2,0.1-0.3,0.1
						c-0.2-0.2-0.3-0.5-0.5-0.7c-0.5-0.9-1.3-1.3-2.2-1.7c-0.9-0.4-1.7-0.8-2.7-0.9c-1.1-0.1-2.2,0-3.4,0.1c-0.7,0-1.3,0-2,0.1
						c-1.4,0.3-2.7,0.9-4,1.2c-1.6,0.4-2.7,1.5-4,2.3c-0.8,0.5-1.6,0.8-2.5,1c-0.5,0.1-0.9,0.5-1.3,0.7c-0.4,0.2-0.8,0.3-1.2,0.5
						c-0.2,0.1-0.4,0.5-0.6,0.6c-1,0.8-2,1.6-2.9,2.4c-0.2-0.4,1-2.1,1.9-2.9c1-0.8,2-1.6,3.1-2.6c-0.5-0.1-0.9-0.3-1.3-0.2
						c-1.7,0.3-3.6,0.2-4.9,1.6c-0.6,0.6-1.4,1.1-1.7,2c-0.4,1.2-1.4,2.2-1.9,3.4c-0.5,0.9-0.8,1.9-1.1,2.9c-0.4,1.1-1,2.2-1.1,3.4
						c-0.2,1.4-0.4,2.9-0.1,4.3c0.1,0.7,0,1.4,0.1,2c0.1,1,0.1,1.9,0.2,2.9c0.2,1.2,0.2,1.2,1.5,1c1.2-0.2,2.4-0.2,3.5-0.3
						c1.3,0,2.6,0,3.9,0c0.2,0,0.4,0.2,0.8,0.3c-0.3,0.1-0.4,0.2-0.5,0.2c-1.5,0-3.1-0.3-4.6,0c-1.4,0.3-2.9,0.2-4.3,1
						c-0.7,0.4-1.3,0.6-1.8,1.3c-0.5,0.6-0.8,2.7-0.3,3.4c0.2,0.3,0.4,0.6,0.6,0.8c0.6,0.9,1.2,1.2,2.4,1.1
						c-0.1-0.7-0.2-1.3-0.3-1.9c0.6-0.4,1.2-0.9,1.9-1.3c0.6-0.3,1.3-0.3,1.9-0.4c0.6-0.1,1.1-0.1,1.7-0.1c1.2,0.1,2.4,0.2,3.6,0.3
						c1.3,0,2.6,0,3.9,0c0.2,0,0.5,0,0.7,0.1c3.7,0.8,7.4,1.5,11.1,2.4c1.2,0.3,2.3,1,3.5,1.5c0.8,0.3,1.7,0.5,2.4,1
						c1.3,0.8,2.8,0.7,4,1.3c1.9,1.1,4.1,1.2,6.1,1.6c1.1,0.2,2.4,0,3.4,0.4c1.5,0.7,3.1,0.8,4.6,1.4c1.3,0.5,2.4,1.5,3.6,2.3
						c0.8,0.5,1.6,1,2.3,1.6c0.8,0.6,1.6,1.4,2.5,1.7c1.8,0.6,3.8,0.9,5.7,1.2c0.1,0,0.3-0.2,0.4-0.2c0.7,0.4,1.3,0.8,1.9,1.2
						c0.1,0.1,0.2,0.1,0.3,0.2c0.7,1.5,2.2,1.3,3.4,1.4c1.1,0.1,2.2-0.3,3.3-0.5c0.8-0.1,1.5-0.1,2.3-0.1c0.9,0,2-0.2,2.8,0.2
						c1.9,1.1,4.1,1.1,6.2,1.6c0.7,0.2,1.6,0,2.4,0c0.8-0.1,1.6-0.2,2.4-0.3c0.8-0.1,1.5-0.4,2.3-0.6c0.6-0.1,1.3-0.2,1.9-0.3
						c0.6-0.1,1.1-0.4,1.6-0.6c1.2-0.4,2.4-0.7,3.5-1.2c1-0.5,1.9-1.1,2.8-1.8c0.8-0.7,1.8-1.3,2.1-2.2c0.5-1.6,1.3-3.5-0.1-5.1
						c0,0,0-0.2,0-0.2c0.1,0,0.1-0.1,0.2-0.1c0.3,0.5,0.7,1,0.9,1.5c0.5,1.2,0.8,2.4,0.4,3.6c-0.3,0.9-1,1.6-1.6,2.5
						c-0.6,0.9-1.2,1.8-1.7,2.7c-0.5,1-1.4,1.6-2.4,1.7c-1.2,0.2-2.5,0.5-3.7,0.6c-1.4,0.1-2.8,0-4.2,0.1c-0.3,0-0.6,0.2-0.9,0.2
						c-1.5,0.3-3.1,0.4-4.5,1c-1.3,0.6-2.6,0.4-3.9,0.8c-0.7,0.2-1.5-0.2-2.3-0.4c-0.9-0.2-1.9-0.1-2.6-0.6
						c-1.3-0.9-2.8-0.9-4.2-1.2c-0.8-0.2-1.8,0-2.9,0c1.3,0.8,1.3,2.1,1.8,3.1c0.8,1.3,0.6,2.9,1.1,4.2c0.4,0.9,0.3,2,0.4,3.1
						c0.1,0.8,0.2,1.7,0.3,2.5c0,0.2-0.1,0.4-0.1,0.7c-0.1,0.9-0.1,1.7-0.1,2.6c0.1,0,0.2,0,0.2,0.1c0.1-0.1,0.2-0.1,0.3-0.2
						c0.4-0.8,1-1.5,1.3-2.3c0.7-1.8,2.3-3,3.3-4.6c0.4-0.6,1-1.1,1.6-1.5c1.4-1,2.9-2,4.4-2.9c0.7-0.4,1.5-0.5,2.2-0.9
						c1-0.6,2.1-0.5,3.2-0.8c0.6-0.2,1.2-0.2,1.8-0.3c0,0.1,0.1,0.2,0.1,0.3c-0.5,0.2-1.1,0.4-1.6,0.6c-0.7,0.2-1.4,0.4-2.1,0.7
						c-0.9,0.4-1.7,0.9-2.5,1.3c-0.4,0.2-0.9,0.4-1.3,0.5c-0.1,0-0.1,0-0.2,0.1c-1,0.8-1.9,1.7-2.9,2.5c-0.5,0.4-1,0.9-1.4,1.4
						c-0.9,1.2-1.9,2.3-2.8,3.5c-0.6,0.8-1.2,1.6-1.8,2.4c-0.6,0.9-1,1.8-1.5,2.7c-0.4,0.7-0.9,1.3-1.5,1.8
						c-0.9,0.9-1.9,1.7-2.8,2.6c-0.3,0.3-0.4,0.8-0.4,1.2c-0.2,1.4-1,2.5-1.8,3.6c-0.4,0.6-1,1.2-1.5,1.8c-0.3,0.3-0.5,0.6-0.9,0.9
						c-1.5,1.1-2.9,2.3-4.5,3.3c-1.2,0.7-2.5,1.2-3.8,1.8c-0.8,0.4-1.6,0.8-2.4,1.2c-1,0.4-2.1,0.8-3.2,1.2
						c-1.7,0.7-3.5,1.2-4.6,2.8c0,0-0.1,0.1-0.1,0.1c-1.9,1.4-3.7,2.8-5.7,4c-0.9,0.5-2,0.6-3,1c-1.1,0.4-2.1,0.8-3.2,1.2
						c-0.8,0.3-1.6,0.5-2.4,0.7c-1.1,0.3-2.3,0.6-3.4,0.9c-0.5,0.1-1,0.2-1.5,0.2c-0.8,0.1-1.6,0.2-2.3,0.1
						c-1.4-0.2-2.7-0.6-4.1-0.8c-1.6-0.3-2.9-1-4.2-1.8c-0.3-0.2-0.5-0.7-0.8-1c-0.2-0.2-0.5-0.4-0.7-0.6c-0.1,0.3-0.3,0.5-0.4,0.8
						c-0.1,0.5-0.4,1.2-0.2,1.5c0.5,0.6,1.2,1,1.9,1.5c0.6,0.4,1.3,0.7,2,1c-0.9,0.5-0.6,1-0.2,1.6c0.3,0.4,0.7,0.9,0.9,1.4
						c0.4,1,1.4,1.3,2.1,1.9c0.1,0.1,0.5,0,0.6-0.1c0.4-0.9,0.9-0.4,1.4-0.1c0.3,0.2,0.5,0.3,0.8,0.4c1.6,0.3,3.1,0.8,4.7,1
						c0.9,0.1,1.9-0.1,2.9-0.2c0.5,0,0.9-0.1,1.4-0.2c0.8,0,1.6,0,2.4-0.1c1.9-0.1,3.9,0.5,5.5-1c0.4-0.3,0.9-0.5,1.3-0.8
						c0.8-0.6,1.7-0.9,2.7-1.1c0.6-0.1,1.1-0.5,1.6-1c0.8-0.7,1.8-0.5,2.7-0.8c0.7-0.2,1.5-0.4,2.3-0.6c1.3-0.4,2.5-0.9,3.8-1.3
						c2.1-0.6,4.3-0.9,6.2-2.3c0.8-0.6,1.9-0.8,2.9-1.2c0.5-0.2,0.9-0.5,1.2-0.9c-2.6,0.4-5.1,0.8-7.6,1.6c0-0.1,0-0.3-0.1-0.4
						c2.7-0.8,5.4-1.7,8.2-2.4c1.3-0.3,2.8-0.5,4.1-0.6c0.6-0.1,1.3,0.1,2,0c1.6-0.4,2.9,0.4,4.4,0.5c0.8,0,1.7-0.2,2.5-0.2
						c0.7-0.1,1.3,0,2-0.1c1.7-0.3,3.5,0.4,5.2-0.3c0.5-0.2,1.1-0.4,1.6-0.6c0.8-0.4,1.5-0.8,2.3-1.1c0.4-0.2,0.9-0.3,1.3-0.5
						c1.5-0.6,3.1-1.1,4.5-1.8c1.3-0.6,2.5-1.3,3.5-2.1c1.1-1,2.3-2,2.9-3.5c0.3-0.8,0.9-1.4,1.3-2.1c0-0.1,0.1-0.2,0.1-0.2
						c0.3-1,0.6-1.9,1-2.9c0.4-0.9,0.9-1.8,1.4-2.7c0,0,0-0.1,0-0.1c0.4-1.2,0.9-2.3,1.2-3.5c0.3-1.2,0.6-2.4,0.8-3.7
						c0.1-0.8-0.2-1.7-0.3-2.5c0-0.1,0-0.1,0-0.2c0.1-1.1,0.1-2.1,0.2-3.2c0-0.3-0.1-0.7-0.1-1c0-0.2,0-0.5,0-0.5
						c0.7-0.4,0.5-1.1,0.8-1.6c0.4-0.7,0.9-1.4,1.4-2.1c0.8-1.1,1.9-1.9,2.4-3.3c0.2-0.5,0.6-0.9,0.7-1.4c0.2-1.7,0-3.2-1.5-4.5
						c-1.1-1-2.3-1.8-3.6-2.5c0,0,0-0.1,0-0.2c0.6-0.1,1.2-0.2,1.7-0.5c0.4-0.2,0.7-0.7,1.1-1c0.6-0.6,1.3-1.2,2-1.7
						c0.6-0.4,0.8-0.9,0.3-1.5c-0.7-1-1.4-1.9-2.2-2.8c-0.3-0.4-0.9-0.7-1.4-0.9c-2-0.7-3.5-2.1-5-3.4c-1.1-0.9-2.1-2-2.3-3.6
						c-0.1-0.8-0.4-1.6-0.6-2.4c-0.1-0.2,0.1-0.5,0.1-0.7c0.1,0,0.2,0,0.3,0c0.1,0.6,0.1,1.1,0.2,1.7c0,0.2,0,0.3,0.1,0.5
						c1,1.8,2.5,3.2,4.1,4.4c0.8,0.6,1.7,0.9,2.5,1.5c1.5,1,3,2.1,4.5,3.2c1.1,0.9,1.7,3.5,1,4.7c-0.1,0.1-0.2,0.2-0.4,0.3
						c-0.6,0.4-1.2,0.8-1.8,1.2c-1.1,0.7-1.1,1.6,0,2.3c1.5,0.9,2.3,2.3,2.7,3.9c0.1,0.4-0.2,1-0.2,1.5c-0.2,1.1-0.7,2.1-1.4,3
						c-0.9,1.4-2.2,2.4-3.1,3.8c-0.4,0.7-0.8,1.5-1,2.2c-0.1,0.4,0.1,1,0.1,1.4c0.1,0.8,0.4,1.7,0.3,2.5c-0.1,1.1,0.1,2,0.4,3
						c0.2,0.6,0.3,1.3,0.4,2c0.1,0.5,0.2,1,0.2,1.4c0,0.7,0,1.5,0.1,2.2c0,1.1,0.1,2.2,0.1,3.2c0,0.2,0,0.5-0.1,0.7
						c-0.2,1-0.5,2-0.6,2.9c-0.1,0.9,0.2,2-0.2,2.8c-1.1,2.1-1,4.5-1.9,6.6c-0.5,1.1-0.5,2.4-1.1,3.3c-0.7,1.1-0.8,2.5-1.8,3.5
						c-0.5,0.5-1.1,1.2-1.5,1.9c-0.1,0.2-0.3,0.3-0.5,0.4c-0.9,0.6-1.8,1.2-2.8,1.8c-1.4,0.9-3.1,1.4-4.7,1.8c-1,0.2-2,0.5-3,0.6
						c-0.7,0.1-1.5,0-2.2,0.1c-0.9,0.1-1.8,0.1-2.7,0.2c-0.1,0-0.2,0-0.3,0c-1.5,0-3-0.1-4.5,0c-1.3,0.1-2.5,0.3-3.7,0.6
						c-0.2,0.1-0.5,0.9-0.4,1c0.3,0.4,0.9,0.7,1.4,0.9c1.3,0.4,2.7,0.7,4,0.8c1.2,0.1,2.5,0,3.7,0c0.7,0,1.3,0,2-0.1
						c0.3,0,0.6-0.2,0.9-0.2c1.4-0.3,2.7-0.6,4.1-0.9c0.6-0.1,1.3-0.1,2-0.1c1-0.1,2.1-0.2,3.1-0.2c0.3,0,0.6,0.1,1.1,0.2
						c-0.9,0.9-1.9,1.3-3,1.6c-2.6,0.6-5.2,1.3-7.8,1.9c-1.3,0.3-2.7,0.3-4.1,0.6c-1.8,0.4-3.6,0.1-5.4-0.2c-1.2-0.2-2.4,0-3.6,0.2
						c-0.3,0-0.6,0.6-0.9,0.9c0.6,1.2,1.8,1.8,3,2.1c0.5,0.1,1.1,0.2,1.6,0.3c1.9,0.5,3.7,0.1,5.6-0.3c1.4-0.3,2.8-0.5,4.3-0.8
						c0.4-0.1,0.8-0.1,1.2-0.2l0.1,0.4c-1.1,0.6-2.3,1.1-3.4,1.7c-0.1,0.1-0.2,0.1-0.3,0.2c-0.4,0.2-0.9,0.5-1.3,0.7
						c5.3-0.5,10.6-0.9,15.7-2.3c2.4-0.7,4.9-1.6,6.9-3.3c2.2-1.9,3.8-4.7,5-7.3c0,0,0,0,0-0.1c0.2-2.4,0.5-4.7,0.9-7
						c1.3-6.7,2.6-13.4,4-20.1c0.5-2.7,0.9-4.6,1.5-7.3C601.8,540,601.8,529.7,601.8,520.1z M506.7,490.5c-0.7,0.9-1.6,1.6-3,1.6
						c0.2-0.2,0.4-0.4,0.7-0.5c0.5-0.3,0.6-0.7,0.5-1.2c-0.2-0.5-0.6-0.9-1.2-0.8c-1,0.3-1.9,0.6-2.9,1c-1,0.5-1.6,1.3-1.8,2.5
						c0,0.2-0.2,0.5-0.4,0.7c-0.1-0.9,0-1.7,0.4-2.5c0.1-0.2,0.4-0.4,0.4-0.7c0.5-1.7,2.5-3.7,4.2-3.7c1.1,0,2.4-0.1,3,1.2
						C507.1,488.7,507.1,490,506.7,490.5z M517.2,492.8C517.2,492.8,517.2,492.7,517.2,492.8c0.6-0.5,1.2-0.8,1.8-1.2L517.2,492.8z
						 M537.4,497.5c-0.1-0.1-0.3-0.2-0.3-0.4c-0.7-1.3-1.9-1.8-3.2-2.1c-0.8-0.2-1.6-0.4-2.3-0.5c-0.2,0-0.5,0-0.6,0.2
						c-0.1,0.1,0,0.4,0.1,0.6c0.2,0.3,0.4,0.6,0.6,0.9c0.7,1,1.2,2.1,1.5,3.3c0.2,0.6,0.5,1.1,0.7,1.7c0.2,1,0.3,2.1,0.5,3.1
						c0.1,0.8,0.2,1.7,0.3,2.5c0,0,0,0.1,0,0.1c-0.3,1.7,0.1,3.6-0.6,5.2c0,0.1-0.1,0.1-0.2,0.3c-0.1-0.2-0.3-0.3-0.3-0.4
						c0.1-1.1,0.2-2.2,0.2-3.3c0-1.1-0.1-2.2-0.1-3.3c0-0.7-0.1-1.3-0.1-2c0-0.4-0.2-0.8-0.2-1.1c-0.3-2.6-1.3-4.9-2.9-6.9
						c-0.6-0.7-1.5-1.3-2.4-1.8c-0.7-0.4-1.4-0.6-2.1-0.9c-0.2-0.1-0.8,0-0.8,0.1c-0.1,0.3-0.1,0.8,0,1.1c0.5,1.5,1,2.9,1.4,4.3
						c0.3,1.1,0.5,2.3,0.6,3.4c0.1,1.9-0.1,3.8-0.7,5.6c0,0.1-0.1,0.1-0.1,0.2c-0.1-0.1-0.2-0.1-0.2-0.1c0-1.1,0.1-2.1,0.1-3.2
						c0-1-0.1-2-0.2-3.1c0-0.5-0.1-1.1-0.2-1.6c-0.1-0.9-0.1-1.9-0.5-2.8c-0.6-1.3-1.3-2.6-2.1-3.8c-0.6-0.8-1.4-1.5-2.5-1.7
						c-0.2,0-0.4-0.1-0.6-0.2c0-0.1,0-0.2,0-0.2c0.2,0,0.4-0.1,0.6,0c1.7,0.4,3.5,0.4,5.1,1.2c2.5,1.1,5.1,1.2,7.6,2
						c1.3,0.4,2.5,1.1,3.8,1.6c0.8,0.3,1.6,0.6,2.4,1c0.9,0.5,1.7,1.1,2.5,1.6c0.2,0.1,0.2,0.4,0.3,0.7c-0.5-0.3-1-0.6-1.5-0.9
						c-0.7-0.6-1.4-1.2-2.5-1.1c0.1,0.2,0.1,0.3,0.2,0.5c0.7,1.5,1.5,3,2.2,4.5c0.1,0.2,0,0.5-0.1,0.7c-0.3-0.4-0.8-0.8-1-1.3
						C539.4,499.8,538.5,498.6,537.4,497.5z M540.9,502.7c0.2,0.4,0.5,0.7,0.6,1.1c0.3,1,0.6,2,0.8,3c0,0.2-0.1,0.4-0.3,0.8
						c-0.5-1.6-0.8-2.9-1.2-4.2C540.7,503.1,540.8,502.9,540.9,502.7z M542.3,515.2c-0.2-0.3-0.3-0.4-0.3-0.5
						c0.1-1.2,0.2-2.3,0.2-3.5c0-0.9-0.1-1.8-0.2-2.6c0-0.2,0.1-0.5,0.1-0.7c0.1,0,0.2,0,0.3,0.1C542.6,510.3,543,512.6,542.3,515.2
						z M549.1,519c0,0.2-0.2,0.4-0.3,0.8c-0.1-0.8-0.3-1.4-0.3-2c0-0.9,0.1-1.8,0.1-2.6c0-0.5,0-1-0.1-1.5c-0.3-1.5-0.6-3-1-4.5
						c-0.5-1.6-1-3.2-1.6-4.7c-0.5-1.2-1.4-2.2-2.1-3.3c-0.4-0.6-0.8-1.3-1.1-2c0.3,0.2,0.7,0.3,0.9,0.6c0.8,1.1,1.6,2.3,2.3,3.5
						c0.5,0.9,0.8,1.8,1.2,2.8c0.5,1.5,1,3,1.5,4.6c0.3,0.9,0.3,1.9,0.6,2.9c0.3,1.2,0.4,2.4,0.2,3.6
						C549,517.6,549.2,518.3,549.1,519z M552.1,497c2.9-0.1,4.9-2.2,7.2-3.5c0.8-0.5,1.5-1.1,2.4-1.5c0.5-0.3,1.1-0.4,1.6-0.7
						c0.1,0.2,0.2,0.3,0.3,0.5c-0.2,0-0.4,0-0.6,0c0,0.3-0.1,0.6,0.1,0.8c1.1,0.9,2.3,1.7,3.4,2.6c0.6,0.5,1,1.1,1.6,1.7
						c0.4,0.4,0.7,0.8,1.2,1.4c-1.2,0-1.6-1.6-2.8-1.3c0.1,0.8,0,1.7,0.3,2.4c0.2,0.7,0.8,1.3,1.3,1.9c0.1,0.2,0.3,0.3,0.4,0.5
						c0.1,0.4,0.3,1,0.1,1.1c-0.7,0.7-1.5,1.4-2.4,1.9c-0.7,0.4-1.6,0.3-2.3,0.6c-1.1,0.3-1.9,0-2.9-0.5c-1.3-0.7-2-1.8-3-2.8
						c-1-1.1-2.2-2.1-3.5-3c-0.7-0.5-1.6-0.7-2.4-1.1c-0.2-0.1-0.4-0.3-0.6-0.5C551.6,497.2,551.8,497,552.1,497z M570,511.4
						c-0.9,0.2-1.7,0.5-2.6,0.6c-0.6,0.1-1.3,0.1-2,0.2c-1.3,0.1-2.7,0.5-4,0.1c-0.4-0.1-1,0.2-1.4,0.1c-1-0.5-2.1-1-3-1.7
						c-0.9-0.8-1.7-1.8-2.3-2.9c-0.6-1.1-0.9-2.4-1.4-3.6c-0.3-0.7-0.6-1.3-0.8-2c-0.3-0.9-0.6-1.8-0.9-2.7c0-0.1,0.1-0.2,0.1-0.4
						c0.1,0,0.2-0.1,0.3-0.1c0.4,0.9,0.9,1.9,1.3,2.8c0.3,0.6,0.6,1.2,0.8,1.9c0.3,0.8,0.5,1.7,0.9,2.4c0.6,1,1.4,2,2.1,3
						c0.1,0.2,0.3,0.3,0.4,0.5c0.1,0.2,0.2,0.5,0.4,0.5c1.3,0.5,2.6,1.1,4,1.3c1.4,0.2,2.9-0.2,4.4-0.3c1.3-0.1,2.5-0.3,3.7-0.6
						c0.6-0.1,1.1-0.5,1.6-0.7c0.1-0.1,0.3-0.1,0.5-0.2C571.9,510.8,571.4,511.2,570,511.4z M573.4,508.1c0.5-2.5,0.3-4.8-1.5-6.8
						C573.9,502.3,574.8,506.2,573.4,508.1z M582.4,519.7l-1.6-0.3l0-0.2l1.6,0.3L582.4,519.7z M584.7,504.6c-0.2,0.9,0,2-0.9,2.7
						c-0.2,0.2-0.3,0.7-0.4,1c-0.1,0-0.2-0.1-0.3-0.1c0.1-0.4,0-0.8,0.2-1.1c1-1.3,1-3.2-0.3-4.1c-0.6-0.4-1.3-0.6-1.9-0.9
						c-0.5-0.3-1-0.6-1.5-0.9l0.1-0.2c0.2,0,0.4,0,0.6,0.1c0.5,0.2,1,0.6,1.5,0.7c1.1,0.1,1.7,1,2.5,1.6
						C584.6,503.6,584.8,504.2,584.7,504.6z"/>
				</g>
				<g>
					<path class="st3" d="M579.7,501c0.2,0,0.4,0,0.6,0.1c0.5,0.2,1,0.6,1.5,0.7c1.1,0.1,1.7,1,2.5,1.6c0.3,0.2,0.4,0.8,0.4,1.2
						c-0.2,0.9,0,2-0.9,2.7c-0.2,0.2-0.3,0.7-0.4,1c-0.1,0-0.2,0-0.3-0.1c0.1-0.4,0-0.8,0.2-1.1c1-1.3,1-3.2-0.3-4.1
						c-0.6-0.4-1.3-0.6-1.9-0.9c-0.5-0.3-1-0.6-1.5-0.9C579.7,501.2,579.7,501.1,579.7,501z"/>
				</g>
				<g>
					<path class="st3" d="M519.6,491.2c-0.8,0.5-1.6,1.1-2.4,1.6c0,0,0-0.1-0.1-0.1C518,492.2,518.8,491.7,519.6,491.2
						C519.6,491.2,519.6,491.2,519.6,491.2z"/>
				</g>
				<g>
					
						<ellipse transform="matrix(0.2046 -0.9788 0.9788 0.2046 -45.8525 982.4982)" class="st3" cx="581.6" cy="519.5" rx="0.2" ry="1.1"/>
				</g>
				<g>
					<path class="st3" d="M552.9,541.1c-1.6,1.6-3.7,1.8-5.8,2.4c0.5,0.4,4.3-0.4,6-1.3c0.1,1.2,0,2.4,0.2,3.6
						c0.1,0.9,0,1.7-0.1,2.6c-0.1,1-0.8,1.3-1.5,1.6c-1.2,0.4-2.5,0.7-3.7,1c-0.7,0.1-1.5,0-2.2,0.1c-0.2,0-0.4,0-0.7,0.1
						c1.8,1,4.1,0,6,1.2c-0.5,0.2-0.9,0.4-1.3,0.4c-1.3,0.1-2.5,0.1-3.8,0.2c-0.8,0.1-1.7,0.2-2.5,0.3c-0.2,0-0.5,0-0.7-0.1
						c-1.7-0.4-3.5-0.8-5.2-1.1c-1.3-0.2-2.3-0.9-3.4-1.5c-2-1.1-3.6-2.7-5.4-4c-0.9-0.7-1.9-1.6-2.8-2.4c-1.1-0.9-2.2-1.7-3.7-2
						c-0.6-0.1-1.1-0.3-1.7-0.3c-1.2-0.1-2.4-0.2-3.7-0.3c-0.3,0-0.7,0.2-1,0.2c-1,0-1.7-0.6-2.1-1.6c0.7-0.6,1.4-1.3,2.3-1.7
						c0.6-0.4,1.4-0.5,2.2-0.6c0.8-0.1,1.7-0.2,2.5-0.3c0.2,0,0.5,0,0.8,0.1c2,0.4,3.9,1.1,5.7,2c0.8,0.4,1.6,0.6,2.4,1
						c1.1,0.5,2.1,1,3.2,1.5c0.2,0.1,0.4,0.1,0.6,0.2c0.8,0.2,1.5,0.4,2.3,0.5c1.6,0.2,3.2,0.6,4.7,0.5c1.7-0.1,3.3-0.5,5-0.8
						c0.9-0.2,1.7-0.4,2.5-0.7c0.2-0.1,0.4-0.2,0.5-0.3c0.8-0.4,1.6-0.8,2.5-1.2C551.6,540,552.5,540.4,552.9,541.1z M540.7,551
						c0,0.1,0,0.2,0,0.3c1.3,0.1,2.5,0.1,3.8,0.2C543.3,550.6,542,551,540.7,551z"/>
				</g>
				<g>
					<path class="st3" d="M525.3,570.9c-1.5-0.9-1.7-2.2-2.1-3.4c-0.2-0.8-0.5-1.6-0.9-2.4c-0.1-0.2-0.8-0.4-1-0.3
						c-0.7,0.5-1.3,1.1-1.9,1.7c-0.2,0.2-0.4,0.6-0.5,0.9c-0.1,0.1-0.2,0.3-0.2,0.4c0.3,1.2,0.5,2.4,0.8,3.6c0.1,0.6,0.5,1,0.6,1.6
						c0.1,0.3,0,0.7-0.2,1c-0.1,0.1-0.5,0.1-0.7,0.1c-0.2-0.1-0.4-0.4-0.5-0.6c-0.3-0.9-0.7-1.9-1-2.8c-0.3-0.8-0.5-1.7-1-2.5
						c-0.5-0.9-1.7-0.8-2.3,0c-0.5,0.6-0.7,1.2-0.8,2c0,0.2-0.2,0.4-0.3,0.4c-0.2,0-0.5-0.1-0.6-0.3c-0.4-0.4-0.5-1.1-1.4-0.6
						c-0.5,0.3-1,0.3-1.4,0.8c-0.5,0.6-0.6,1.2-0.8,1.9c-0.2,0.6-0.6,1.1-1,1.9c-0.1-0.9-0.2-1.5-0.2-2.2c0.1-0.8-0.2-1.2-0.9-1.4
						c-0.2,0-0.4,0-0.5-0.1c-0.3-0.1-0.6-0.3-0.9-0.5c0.3-0.3,0.6-0.6,0.9-0.8c0.8-0.4,1.6-0.6,2.5-0.9c0.7-0.3,1.5-0.5,2.2-0.8
						c0.1,0,0.2,0,0.2-0.1c2.8-1.7,5.7-3.4,8.5-5.3c1.2-0.8,2.1-2.2,3.2-3.1c1.6-1.2,2.5-3.1,3.9-4.4c0.4-0.3,0.5-0.9,0.8-1.3
						c0.5-0.9,1-1.7,1.5-2.6c0.3-0.6,1.2-0.8,1.7-0.4c0.3,0.2,0.6,0.4,1,0.6c0.7,0.4,1.4,1,2.2,1.3c0.7,0.3,1.1,0.7,1.5,1.3
						c0.2,0.4,0.2,0.7-0.2,0.9c-1.1,0.5-2.3,0.9-3.4,1.6c-1.2,0.7-2.3,1.6-3.5,2.5c-0.3,0.2-0.6,0.4-0.8,0.6
						c-0.2,0.2-0.2,0.4-0.3,0.6c0.2,0.1,0.5,0.2,0.7,0.2c1.2-0.3,2.5-0.6,3.7-1c1.1-0.4,2.1-1,3.2-1.3c1.2-0.2,2.1-1.1,3.4-0.9
						c0.2,0,0.4-0.1,0.6-0.2c0.6,0.4,1.2,0.8,1.7,1.2c0.2,0.2,0.4,0.4,0.7,0.6c0.3,0.2,0.6,0.4,0.9,0.6c0.5,0.3,1,0.6,1.5,0.8
						c0,0,0.1,0.1,0.1,0.1c-0.3,0.6-0.5,1.2-0.9,1.7c-0.1,0.1-0.8-0.1-1.1-0.3c-0.6-0.6-1.1-1.3-1.7-1.9c-0.4-0.5-0.9-1-1.3-1.5
						c-1.8,0.4-1.9,2-1.8,3.1c0.1,1.1,0,2.5,1.4,3.1c-0.7,0.8-2.1,0.7-2.7-0.1c-0.7-1-1.4-2.1-2.1-3.1c-0.7-1.1-1.7-1-2.6,0
						c-1,1.1-0.8,2.2-0.4,3.4c0.3,0.9,0.6,1.7,0.9,2.5c0.1,0.4,0,0.7-0.5,0.6c-0.8-0.1-1.6-0.2-2.1-1.1c-0.8-1.6-1.8-3.2-2.7-4.8
						c-1.6,0.7-2.4,2-2.3,3.6c0.1,1.1,0,2.3,0.8,3.3c0.3,0.4,0.6,1,0.6,1.6C525.9,570.2,525.5,570.6,525.3,570.9z"/>
				</g>
				<g>
					<path class="st3" d="M548.8,486.3c-0.1,0.5-0.2,1.1-0.3,1.6c-0.3,0.7-0.6,1.4-0.9,2.1c0,0.1-0.2,0.1-0.4,0.2
						c-1.2,0.2-2.3,0.5-3.5,0.5c-1.2,0.1-2.4-0.3-3.1-1.3c-1-1.3-1.8-2.8-2.1-4.4c-0.1-0.6,0.4-1.1,1-1.4c1.1-0.6,2.2-1.2,3.2-2.1
						c0.7-0.6,1.3-1.5,1.8-2.4c0.3-0.6,0.3-1.3,0.3-2c0-0.3,0-0.5,0-0.8c0.4,0.1,0.9,0,1,0.2c1.1,1.4,2.2,2.7,3.1,4.2
						c0.3,0.4,0.2,1.1,0.3,1.7c0.1,1.2,0.1,2.4-0.3,3.5C548.8,486,548.8,486.1,548.8,486.3z"/>
				</g>
				<g>
					<path class="st3" d="M539,473.3c-0.1,1.6-1,2.8-2.3,3.8c-0.5,0.4-1.8,0.4-2.3,0c-1.1-0.8-1.7-1.8-1.8-3.1
						c0-0.1-0.1-0.3-0.1-0.4c-0.6-1.1-0.6-1.1,0.5-1.8c0.7-0.5,1.1-1.2,1.5-2c0.7-1.3,0.9-2.6,1.2-4c0.2-0.7,0.8-0.4,1-0.2
						c1.1,0.8,2,1.8,2.3,3.2C539.4,470.3,539.4,471.8,539,473.3z"/>
				</g>
				<g>
					<path class="st3" d="M530.3,458.8c0.8,0.6,1.5,0.9,2,1.4c1.2,0.9,2.1,2.1,2.8,3.4c0.3,0.5,0.3,1.2,0.2,1.8
						c-0.2,1.3-0.3,2.6-1.2,3.7c-0.4,0.5-0.8,0.9-1.2,1.3c-0.3,0.3-0.6,0.7-1,1c-0.2,0.1-0.7,0.2-0.8,0.1c-1.3-1.1-2.1-2.5-2.3-4.2
						c-0.1-0.8,0.2-1.6,0.4-2.3c0.2-0.8,0.1-1.7,0.9-2.3c0.3-0.2,0.2-0.9,0.2-1.3C530.3,460.5,530.3,459.8,530.3,458.8z"/>
				</g>
				<g>
					<path class="st3" d="M543.5,477.5c0.1,1.4-1,2.5-1.9,3.5c-0.3,0.3-0.5,0.6-0.7,0.9c-0.9,1-2.1,1-3.1,0.4
						c-0.6-0.3-1.2-1.2-1.4-1.9c-0.2-0.6,0.1-1.2,0.8-1.7c0.5-0.3,0.8-1,1.1-1.6c0.4-0.6,0.6-1.3,0.9-2c0.3-0.7,0.6-1.3,0.8-2
						c0.1-0.4,0-0.8-0.1-1.2c-0.1-0.5,0.1-0.8,0.6-0.6c0.7,0.2,1.3,0.6,1.9,1C543.7,473.3,544.1,475.3,543.5,477.5z"/>
				</g>
				<g>
					<path class="st3" d="M516.5,527.7c-0.1,0.6-0.4,1.3-0.4,1.9c0,1.2-0.1,2.5,0.3,3.7c0.1,0.3-0.1,0.8-0.2,1.2
						c-0.4-0.2-0.9-0.2-1.1-0.5c-0.8-1.2-1.5-2.5-2.1-3.8c-0.2-0.5-0.1-1.1-0.2-1.7c-0.1-0.7-0.2-1.3-0.3-2c0-0.1-0.1-0.2-0.1-0.2
						c0.1-1.5,0.3-2.9,0.5-4.4c0.1-0.5,1.2-1.2,1.7-1.1c0.9,0.2,1.9,0.3,2.8,0.6c0.6,0.2,0.9,0.6,0.7,1.2c-0.3,0.9-0.2,1.8-0.9,2.7
						C516.6,525.9,516.6,526.9,516.5,527.7C516.5,527.7,516.5,527.7,516.5,527.7z"/>
				</g>
				<g>
					<path class="st3" d="M509.5,519.4c1.9,0.4,2.1,0.5,1.4,2.3c-0.6,1.6-1.1,3.1-1.3,4.7c-0.2,1.3-0.1,2.5,0.2,3.8
						c0.1,0.4,0,0.8-0.1,1.2c-0.3-0.1-0.6-0.2-0.9-0.4c-1.5-1.3-2.5-2.9-2.9-4.8c-0.2-1.1-0.5-2.2-0.2-3.4c0.1-0.3-0.3-0.8-0.2-1.1
						c0.2-0.7,0.5-1.5,0.9-2.1c0.3-0.3,1-0.4,1.5-0.4C508.6,519.1,509.1,519.3,509.5,519.4z"/>
				</g>
				<g>
					<path class="st3" d="M535.8,540.9c-1.1-0.2-2-0.5-2.9-0.6c-1.4-0.2-1.9-1.2-2-2.6c-0.1-0.9,0-1.6,0.1-2.5
						c0-0.2,0.2-0.5,0.4-0.6c0.2,0,0.5,0.2,0.6,0.4c0.8,1.2,1.7,2.3,2.8,3.1c0.2,0.2,0.5,0.3,0.8,0.4c0.2,0.1,0.5,0.1,0.7,0.2
						c1.1,0.8,1.9,0.5,2.1-0.8c0.3-1.7,0.4-1.7,1.8-0.7c0.6,0.4,1.2,1,1.9,1.4c0.5,0.3,1.2,0.5,1.7,0.8c0.3,0.2,1-0.1,0.9,0.6
						c0,0.7-0.4,1-1.1,1.1c-1.2,0.2-2.5,0.1-3.7,0.2C538.4,541.6,537,541,535.8,540.9z"/>
				</g>
				<g>
					<path class="st3" d="M520.1,525.3c0.1-0.5,0.2-0.8,0.2-1.2c0.1-0.7,0.2-1.3,1.2-1c1.2-0.8,1.9,0.7,3,0.7c0.1,0,0.3,0.3,0.3,0.4
						c-0.2,0.6-0.5,1.2-0.7,1.8c-0.1,0.2-0.2,0.4-0.2,0.6c-0.3,1.3-0.6,2.7-0.8,4c-0.1,0.6,0.2,1.2,0.3,1.8c0,0.4-0.1,0.8-0.1,1.2
						c-0.3-0.2-0.6-0.3-0.9-0.5c-0.4-0.3-0.8-0.6-1-1c-0.6-1-1-2-1.1-3.2C520,527.7,519.7,526.4,520.1,525.3z"/>
				</g>
				<g>
					<path class="st3" d="M529.9,525.7c0.6,0.3,1.2,0.5,1.6,0.9c0.2,0.2,0.1,0.9,0,1.3c-0.1,0.4-0.4,0.7-0.5,1
						c-0.3,0.8-0.8,1.6-0.9,2.4c-0.1,1.3,0.1,2.6,0.2,3.9c0,0.3,0,0.6,0,0.9c-0.3-0.1-0.9-0.1-1-0.3c-0.8-1.3-1.7-2.7-2.3-4.1
						c-0.3-0.6-0.1-1.5-0.1-2.3c0-0.7-0.1-1.5,0-2.2c0.2-1.2,1.1-1.8,2.3-1.5c0.2,0,0.4,0.1,0.7,0.1
						C529.8,525.8,529.9,525.7,529.9,525.7z"/>
				</g>
				<g>
					<path class="st3" d="M503.1,517c0.6,0.3,1.2,0.6,1.7,1c0.2,0.2,0,0.8-0.1,1.2c-0.1,0.3-0.4,0.6-0.5,0.9
						c-0.4,1.3-0.9,2.5-1.2,3.8c-0.1,0.7,0.1,1.5,0.2,2.2c0,0.4-0.1,0.8-0.2,1.2c-0.3-0.2-0.6-0.3-0.9-0.6c-1.3-1.1-1.5-2.7-1.9-4.2
						c-0.2-0.9,0-1.9,0.1-2.9c0-0.3,0.1-0.6,0.2-0.9C500.8,516.9,501.1,516.7,503.1,517z"/>
				</g>
				<g>
					<path class="st3" d="M492.2,524.1c-1,0-1.7-0.2-2.1-1.1c-0.5-1-1-1.9-1.5-2.9c-0.2-0.4-0.2-0.9-0.2-1.4c0-1.2-0.3-2.3,0.2-3.4
						c0.1-0.3,0.7-0.6,1-0.6c0.8,0.1,1.7,0.3,2.5,0.5c0.7,0.2,1,1.3,0.5,1.6c-0.6,0.4-0.5,1-0.7,1.6c0,0.2-0.1,0.3-0.1,0.5
						C491.4,520.7,491.6,522.4,492.2,524.1z"/>
				</g>
				<g>
					<path class="st3" d="M537.1,538c-0.8,0-1.6-0.1-2-0.9c-0.5-1-1.1-1.9-1.5-2.9c-0.2-0.4-0.2-1-0.2-1.5c0-1.1-0.3-2.2,0.2-3.3
						c0.2-0.3,0.7-0.7,1.1-0.7c0.8,0,1.6,0.3,2.4,0.5c0.8,0.2,1,1.2,0.5,1.8c-0.2,0.3-0.4,0.6-0.5,1c-0.2,0.7-0.2,1.4-0.4,2
						C536.1,535.3,536.7,536.6,537.1,538z"/>
				</g>
				<g>
					<path class="st3" d="M527.7,454.6c0.6,0.6,1,1,1.4,1.4c0.9,1.1,1,2.3,0.7,3.6c-0.1,0.5-0.1,1.1-0.3,1.6
						c-0.3,0.8-0.8,1.5-1.2,2.2c-0.3,0.5-0.6,1-0.9,1.6c-0.1,0-0.2,0-0.3,0c-0.5-1.1-1.2-2.1-1.5-3.2c-0.2-0.7,0.1-1.7,0.5-2.3
						c0.4-0.7,1.1-1.2,1.2-2c0-0.1,0.1-0.3,0.2-0.4c0.5-0.4,0.6-0.8,0.3-1.4C527.6,455.4,527.7,455.1,527.7,454.6z"/>
				</g>
				<g>
					<path class="st3" d="M519.2,576c-0.5,1.3-1.7,1.2-2.6,1.5c-0.8,0.2-1-0.7-1.2-1.3c-0.3-0.6-0.5-1.4-0.7-2.1
						c-0.1-0.3-0.1-0.6-0.1-1c0-0.8-0.1-1.6,0.1-2.4c0.3-0.8,0.9-1.6,1.5-2.3C516.8,571.3,517.8,573.8,519.2,576z"/>
				</g>
				<g>
					<path class="st3" d="M525.4,563.9c0.2-0.2,0.8-0.8,1-0.7c0.5,0.3,0.8,0.9,1.1,1.4c0.5,0.7,1,1.5,1.4,2.2
						c0.1,0.2,0.3,0.4,0.5,0.6c0.4,0.4,0.7,0.8,1.1,1.1c0.6,0.5,0.6,1-0.1,1.5c-0.6,0.4-1.2,1.2-2.1,0.7c-0.5-0.3-1.1-0.6-1.5-1.1
						c-0.6-0.8-1-1.8-1.5-2.7c0,0,0-0.1,0-0.1C525.3,565.9,525.4,565,525.4,563.9z"/>
				</g>
				<g>
					<path class="st3" d="M508.4,579.3c-0.2,1-0.6,1.3-1.4,1.2c-0.2,0-0.3,0-0.5,0c-0.9,0.2-1.1,0.1-1.3-0.9
						c-0.1-0.7-0.4-1.4-0.5-2.1c-0.1-0.6-0.1-1.1-0.1-1.7c0.1-1,0.4-2,0.6-3c0.1-0.6,0.5-1,1.1-0.9c0.6,0.1,0.8,0.6,0.6,1.3
						c-0.3,1.1,0.3,2,0.5,2.9c0.2,0.9,0.6,1.7,0.9,2.6C508.5,579,508.4,579.3,508.4,579.3z"/>
				</g>
				<g>
					<path class="st3" d="M522.4,574c-0.3-0.3-0.7-0.5-0.9-0.8c-0.9-1-1.4-2.3-1.5-3.6c-0.1-1.1,0.4-2.3,0.7-3.4c0,0,0.7,0,0.8,0.2
						c0.4,0.7,0.6,1.4,0.9,2.1c0.4,0.7,0.7,1.4,1.2,2.1c0.4,0.6,1,1.2,1.5,1.8c0.1,0.1,0,0.3,0,0.5C524.7,573.3,523,574,522.4,574z"
						/>
				</g>
				<g>
					<path class="st3" d="M509.8,573.5c0.4-0.8,0.7-1.7,1.2-2.4c0.1-0.2,0.6-0.3,0.9-0.2c0.1,0,0.3,0.4,0.3,0.7
						c0.2,1.1,0.2,2.3,0.4,3.4c0.2,0.9,0.6,1.7,0.9,2.6c0.1,0.2,0,0.5-0.1,0.7c-0.3,0.9-1.2,0.7-1.8,0.9c-0.2,0.1-0.8-0.2-1-0.5
						c-0.6-0.7-0.8-1.5-0.7-2.5C509.9,575.4,509.8,574.5,509.8,573.5z"/>
				</g>
				<g>
					<path class="st3" d="M531.6,562.2c0-0.2,0-0.4,0.1-0.5c0.3-0.3,0.6-0.7,1-0.8c0.2,0,0.7,0.5,0.8,0.8c0.2,1,0.7,1.7,1.5,2.3
						c0.7,0.6,1.4,1.2,2.1,1.9c0.4,0.4,0.6,0.9-0.1,1.3c-0.6,0.3-1,0.7-1.6,1c-0.2,0.1-0.7,0.2-0.7,0.1c-1-1.2-2-2.4-2.8-3.8
						C531.4,563.9,531.6,563,531.6,562.2C531.5,562.2,531.6,562.2,531.6,562.2z"/>
				</g>
				<g>
					<path class="st3" d="M543.3,538.4c-0.8-0.1-1.5,0-1.9-0.8c-0.5-0.8-1.1-1.5-1.5-2.3c-0.3-0.6-0.4-1.3-0.5-2
						c-0.1-0.5-0.2-1.1-0.1-1.6c0.1-0.9,0.7-1.3,1.7-1.3c2,0.2,2.1,0.3,1.7,2.2c-0.2,1.2-0.3,2.4-0.3,3.5
						C542.5,536.9,543,537.6,543.3,538.4z"/>
				</g>
				<g>
					<path class="st3" d="M487.5,522.7c-1,0.1-1.6-0.5-2-1.1c-0.7-1-1.4-2.1-1.8-3.3c-0.3-0.9-0.1-2,0.1-3c0.1-0.3,0.9-0.4,1.4-0.6
						c0,0,0.1,0,0.2,0c2,0.3,2.1,0.3,1.6,2.2C486.5,518.7,486.9,520.6,487.5,522.7z"/>
				</g>
				<g>
					<path class="st3" d="M497.7,520.3c-0.2,1.3-0.1,2.4,0.3,3.6c0,0.1-0.1,0.5-0.2,0.5c-0.2,0-0.5,0-0.7-0.2
						c-1.1-1.1-1.6-2.4-2-3.9c-0.4-1.4,0.3-2.5,0.4-3.8c0-0.1,0.4-0.4,0.5-0.3c0.8,0.1,1.6,0.3,2.4,0.5c0.5,0.1,0.6,0.9,0.2,1.5
						C498.4,518.9,498.1,519.6,497.7,520.3z"/>
				</g>
				<g>
					<path class="st3" d="M504.3,579.4c-0.6,0.2-1.2,0.5-1.8,0.6c-1,0.2-1-0.8-1.1-1.3c-0.3-1.4-0.6-2.8-0.1-4.2
						c0.2-0.5,0.5-1,0.8-1.5c0.1-0.1,0.6,0,0.6,0.1c0.2,0.4,0.4,0.9,0.3,1.3c-0.2,1,0.1,1.9,0.5,2.8
						C504,577.8,504.1,578.6,504.3,579.4z"/>
				</g>
				<g>
					<path class="st3" d="M540.6,564.8c-0.1,0-0.3-0.1-0.4-0.2c-0.8-1-2.1-1.8-2.1-3.3c0-0.7,0.2-1.4,0.4-2.2c0,0,0.6,0,0.7,0.1
						c0.3,0.3,0.5,0.6,0.7,1c0.5,1.2,1.6,1.9,2.6,2.6c0.6,0.4,0.5,0.7,0,1c-0.6,0.4-1.2,0.7-1.8,1.1
						C540.7,564.9,540.7,564.8,540.6,564.8z"/>
				</g>
				<g>
					<path class="st3" d="M548.9,489.9c0.2-0.7,0-1.5,0.8-2.1c0.2-0.1,0.2-0.4,0.2-0.6c0.2-0.9,0.4-1.9,0.6-2.8
						c0.1-0.2,0.2-0.5,0.4-0.6c0.2,0,0.5,0.2,0.6,0.3c0.6,0.9,1.2,1.8,1.8,2.8c0.1,0.2,0.2,0.5,0.1,0.6c-0.1,0.1-0.4,0.2-0.6,0.2
						c-0.5-0.1-0.7,0.1-1,0.5c-0.8,0.8-1.7,1.4-2.6,2.1C549.2,490.2,549.1,490.1,548.9,489.9z"/>
				</g>
				<g>
					<path class="st3" d="M547,534.4c0,0.8,0.1,1.6,0.1,2.4c0,0.3-0.2,0.6-0.3,0.9c-0.3-0.2-0.6-0.3-0.8-0.5
						c-0.9-1.3-1.5-2.7-1.2-4.4c0.2-0.8,0.6-1.1,1.4-0.9c0.3,0.1,0.6,0,0.8,0.2c0.2,0.1,0.5,0.5,0.4,0.7c0,0.5-0.2,1.1-0.3,1.6
						C547.2,534.4,547.1,534.4,547,534.4z"/>
				</g>
				<g>
					<path class="st3" d="M497.6,574.5c0.4-0.8,0.7-1.5,1.1-2.1c0.1-0.1,0.4-0.2,0.5-0.1c0.1,0.1,0.3,0.3,0.3,0.4
						c0.1,1.6,0.2,3.2,1,4.7c0.1,0.2,0,0.7-0.2,0.8c-0.9,0.7-2,0.1-2.2-1C497.9,576.3,497.8,575.3,497.6,574.5z"/>
				</g>
				<g>
					<path class="st3" d="M565.6,496.2c-0.2,0.2-0.3,0.3-0.5,0.4c-0.8,0.6-1.6,1.2-2.5,1.6c-0.8,0.4-1.7,0.6-2.7,0.1
						c-0.9-0.5-2.1-0.9-3.3-0.5c-0.2,0.1-0.4-0.3-0.7-0.4c0.4-0.4,0.8-0.8,1.2-1.1c0.5-0.3,1-0.6,1.5-0.9c0.8-0.6,1.5-1.4,2.3-1.7
						c0.6-0.2,1.6,0.1,2.3,0.5c0.8,0.4,1.4,1.1,2.1,1.7C565.4,495.8,565.5,496,565.6,496.2z"/>
				</g>
				<g>
					<path class="st3" d="M540.7,551c1.3-0.1,2.6-0.5,3.8,0.5c-1.3-0.1-2.5-0.1-3.8-0.2C540.7,551.2,540.7,551.1,540.7,551z"/>
				</g>
			</g>
			<g>
				<path class="st3" d="M524.4,452.7c2.9,1.3,3.1,3.2,0.7,6.2C522.3,457.5,522.1,455.9,524.4,452.7z"/>
			</g>
		</g>
	</g>
</g>
<title>fs</title>
</svg>
