<?xml version="1.0" encoding="utf-8"?>
<!-- Generator: Adobe Illustrator 26.5.0, SVG Export Plug-In . SVG Version: 6.00 Build 0)  -->
<svg version="1.1" id="Layer_1" xmlns="http://www.w3.org/2000/svg" xmlns:xlink="http://www.w3.org/1999/xlink" x="0px" y="0px"
	 viewBox="0 0 2521 2911" style="enable-background:new 0 0 2521 2911;" xml:space="preserve">
<style type="text/css">
	.st0{fill:#54346F;}
	.st1{clip-path:url(#SVGID_00000083771109120186411570000013051841229933765543_);}
	.st2{opacity:0.2;fill:url(#SVGID_00000054238991120206197240000017924136440742546842_);enable-background:new    ;}
	.st3{fill:#42285B;}
	.st4{opacity:0.9;}
	.st5{fill:#FFFFFF;}
	.st6{opacity:0.5;}
</style>
<g>
	<g>
		<g>
			<polygon id="SVGID_1_" class="st0" points="1267,22 2497.3,732.5 2497.3,2180.6 1267,2895.6 9.3,2180.6 9.3,732.5 			"/>
		</g>
		<g>
			<defs>
				<polygon id="SVGID_00000143588322974200975690000014342239538928485535_" points="1267,22 2497.3,732.5 2497.3,2180.6 
					1267,2895.6 9.3,2180.6 9.3,732.5 				"/>
			</defs>
			<clipPath id="SVGID_00000144337773179501059170000002168535484348086920_">
				<use xlink:href="#SVGID_00000143588322974200975690000014342239538928485535_"  style="overflow:visible;"/>
			</clipPath>
			<g style="clip-path:url(#SVGID_00000144337773179501059170000002168535484348086920_);">
				
					<linearGradient id="SVGID_00000062884144252779971190000006291234241048767139_" gradientUnits="userSpaceOnUse" x1="1255.184" y1="1125.8741" x2="1255.184" y2="-484.0618" gradientTransform="matrix(1 0 0 -1 0 852)">
					<stop  offset="0" style="stop-color:#FFFFFF;stop-opacity:0.83"/>
					<stop  offset="1" style="stop-color:#FFFFFF;stop-opacity:0"/>
				</linearGradient>
				
					<path style="opacity:0.2;fill:url(#SVGID_00000062884144252779971190000006291234241048767139_);enable-background:new    ;" d="
					M2236,651.8c-20.6-14.1-40.8-27.8-62.1-40.5c-21.3-12.7-43.6-22-65.5-32.9c-41.8-20.9-79.2-49.7-118.3-75.5
					c-43.6-28.5-88.8-55.2-133.1-83c-40.8-25.4-82.3-49.1-124.5-72.7c-38.4-21.3-79.6-35.3-120.7-50.4
					c-38.1-13.7-76.8-28.5-110.8-51.1c-27.8-18.9-53.8-40.5-79.9-61.8c-50.1-40.1-112.8-93.7-181.4-89.5
					c-36.7,2.4-72.7,24.4-103.6,41.9c-36,20.6-71,43.6-106.7,64.2c-83.7,48-171.8,87.1-255.9,134.1c-83.3,47-163.6,99.5-245.6,148.9
					c-40.8,24.7-81.3,49.1-125.2,67.9c-43.6,18.9-89.2,34.7-129.7,59.4c-29.2,17.8-52.5,45.3-77.2,70.3
					c94.3,372.9,534,654.9,1062.3,654.9c517.9,0,950.4-271,1056.4-633C2287.4,687.2,2261.7,669.3,2236,651.8z"/>
			</g>
		</g>
	</g>
	<g>
		<path class="st3" d="M2419.8,669.7L1467,119.4L1260.2,0l-206.8,119.4L100.5,669.7L0,727.7v1455.7l100.5,58l964.8,557.2
			l195.2,112.5l195.2-112.5l964.8-557.2l100.5-58V727.7L2419.8,669.7z M2419.8,2128.8l-1159.7,669.7L100.5,2128.8V789.1
			l1159.7-669.7l0,0l1159.7,669.7V2128.8z"/>
	</g>
	<g>
		<g class="st4">
			<path class="st5" d="M2057.3,1026.1h-918.2l-66.2-124.9c-27.4-51.8-80.9-84.1-139.9-84.1H455.2c-3.4,0-6.5,3.1-6.5,6.5v1261.1
				c0,3.4,2.7,6.5,6.5,6.5h1602.1c3.4,0,6.5-3.1,6.5-6.5V1032.7C2063.8,1029.2,2060.7,1026.1,2057.3,1026.1z"/>
		</g>
		<g>
			<g>
				<path class="st3" d="M1158.3,1995.7V1515h-78.5v-77.2h78.5v-26.4c0-78.6,17.1-149.9,64.5-194.9c38.1-37.1,88.8-51.8,136.2-51.8
					c35.7,0,66.9,8.2,86.4,16.1l-13.7,78.6c-15.1-6.9-35.7-12.7-64.5-12.7c-86.4,0-108.4,76.2-108.4,161.2v29.8h134.8v77.2h-135.1
					v480.6H1158.3z"/>
			</g>
			<g>
				<path class="st3" d="M1349.3,1948.3c13.7,8.9,38.1,18.5,61.1,18.5c33.6,0,49.7-16.8,49.7-38.1c0-22.3-13-34.3-47.3-47
					c-46-16.5-67.6-41.9-67.6-72.4c0-41.2,33.3-74.8,88.1-74.8c25.7,0,48.7,7.5,62.8,15.8l-11.7,33.6c-9.9-6.2-28.5-14.8-52.1-14.8
					c-27.4,0-42.9,15.8-42.9,35c0,21.3,15.4,30.5,48.7,43.2c44.2,16.8,66.9,39.1,66.9,77.2c0,44.9-35,76.5-95.4,76.5
					c-28.1,0-53.8-6.9-71.7-17.5L1349.3,1948.3z"/>
			</g>
		</g>
		<g class="st6">
			<g>
				<g>
					<path class="st3" d="M2063.8,1780.9l0.3,0.7c-0.7-1.7-1-3.4-2.1-4.5c-3.8-4.5-7.5-8.9-12.3-12.4c-4.1-2.7-7.9-6.2-12-9.6
						c-4.5-3.8-8.9-7.5-13.7-11c-0.7-0.7-2.4-0.7-3.1-0.3s-1,2.1-1,2.7c1.4,4.8,2.7,9.6,4.1,14.4c0.7,2.1,0,3.8-1.4,6.2
						c-1.4-5.5-2.7-10.3-3.8-14.8c-0.7-3.4-1.7-6.9-2.1-10.3c-0.3-2.4,0-4.8-0.3-6.9c-0.3-3.1-1-6.5-1.7-9.6
						c-1.4-5.8-5.5-9.9-8.6-14.8c-1.4-2.4-4.1-3.8-6.5-5.5c-3.8-2.7-7.2-5.5-11-8.2c-3.1-2.1-6.2-3.4-9.3-5.5
						c-1.7-1-3.1-2.7-4.5-4.1c-2.1-2.1-3.8-4.5-5.8-6.9c-3.1-3.4-5.8-6.9-9.3-9.9c-4.1-3.8-8.2-7.5-12.3-11.3
						c-0.7-0.3-1.4-0.7-2.1-0.7c-2.7-0.7-5.5-1-7.9-1.7c-4.5-1-8.2-0.3-12.3,1.4c-4.5,1.7-7.9,4.5-12,6.9c-6.5,3.8-12.7,7.9-19.2,11
						c-3.4,1.7-7.2,3.4-11.7,3.4c-5.5,0-10.6,1.7-16.1,2.1c-3.1,0.3-6.2,0.3-9.3-0.3c-5.1-0.7-9.9-2.1-15.1-3.1
						c-1-0.3-1.7-0.7-2.7-1c0-0.3,0-0.7,0.3-1c1.7,0.3,3.8,0.3,5.5,0.7c0.3-0.3,0.3-0.3,0.7-0.7c-1-1-2.4-1.7-3.4-2.7h-0.3
						c-8.2-2.1-16.5-4.5-24.7-6.9c-1-0.3-2.1-2.1-3.4-2.1c-2.7-0.3-5.8,0-8.9,0.7l5.1,3.8l-0.3,1c-1.7-0.7-3.8-0.7-5.1-1.7
						c-2.4-1.7-4.1-4.8-6.9-6.2s-6.2-1.7-9.3-2.4c-0.3,0-0.7,1.7-1.4,2.7s-1,1.7-1.7,2.4c-0.3-0.7-1-1.4-1.4-2.4
						c-1-5.1-7.5-9.6-11.7-9.3c-1.4,0-3.1,0.3-4.5,1c-0.3,0-0.3,1.7-0.3,2.4c0,1,0.3,1.7,0.3,2.7c-0.3,0-0.7,0.3-1,0.3
						c-0.7-0.7-1-1.7-1.7-2.4c-1.7-3.1-4.5-4.5-7.5-5.8c-3.1-1.4-5.8-2.7-9.3-3.1c-3.8-0.3-7.5,0-11.7,0.3c-2.4,0-4.5,0-6.9,0.3
						c-4.8,1-9.3,3.1-13.7,4.1c-5.5,1.4-9.3,5.1-13.7,7.9c-2.7,1.7-5.5,2.7-8.6,3.4c-1.7,0.3-3.1,1.7-4.5,2.4s-2.7,1-4.1,1.7
						c-0.7,0.3-1.4,1.7-2.1,2.1c-3.4,2.7-6.9,5.5-9.9,8.2c-0.7-1.4,3.4-7.2,6.5-9.9c3.4-2.7,6.9-5.5,10.6-8.9
						c-1.7-0.3-3.1-1-4.5-0.7c-5.8,1-12.3,0.7-16.8,5.5c-2.1,2.1-4.8,3.8-5.8,6.9c-1.4,4.1-4.8,7.5-6.5,11.7
						c-1.7,3.1-2.7,6.5-3.8,9.9c-1.4,3.8-3.4,7.5-3.8,11.7c-0.7,4.8-1.4,9.9-0.3,14.8c0.3,2.4,0,4.8,0.3,6.9
						c0.3,3.4,0.3,6.5,0.7,9.9c0.7,4.1,0.7,4.1,5.1,3.4c4.1-0.7,8.2-0.7,12-1c4.5,0,8.9,0,13.4,0c0.7,0,1.4,0.7,2.7,1
						c-1,0.3-1.4,0.7-1.7,0.7c-5.1,0-10.6-1-15.8,0c-4.8,1-9.9,0.7-14.7,3.4c-2.4,1.4-4.5,2.1-6.2,4.5c-1.7,2.1-2.7,9.3-1,11.7
						c0.7,1,1.4,2.1,2.1,2.7c2.1,3.1,4.1,4.1,8.2,3.8c-0.3-2.4-0.7-4.5-1-6.5c2.1-1.4,4.1-3.1,6.5-4.5c2.1-1,4.5-1,6.5-1.4
						c2.1-0.3,3.8-0.3,5.8-0.3c4.1,0.3,8.2,0.7,12.3,1c4.5,0,8.9,0,13.4,0c0.7,0,1.7,0,2.4,0.3c12.7,2.7,25.4,5.1,38.1,8.2
						c4.1,1,7.9,3.4,12,5.1c2.7,1,5.8,1.7,8.2,3.4c4.5,2.7,9.6,2.4,13.7,4.5c6.5,3.8,14.1,4.1,20.9,5.5c3.8,0.7,8.2,0,11.7,1.4
						c5.1,2.4,10.6,2.7,15.8,4.8c4.5,1.7,8.2,5.1,12.3,7.9c2.7,1.7,5.5,3.4,7.9,5.5c2.7,2.1,5.5,4.8,8.6,5.8
						c6.2,2.1,13,3.1,19.6,4.1c0.3,0,1-0.7,1.4-0.7c2.4,1.4,4.5,2.7,6.5,4.1c0.3,0.3,0.7,0.3,1,0.7c2.4,5.1,7.5,4.5,11.7,4.8
						c3.8,0.3,7.5-1,11.3-1.7c2.7-0.3,5.1-0.3,7.9-0.3c3.1,0,6.9-0.7,9.6,0.7c6.5,3.8,14.1,3.8,21.3,5.5c2.4,0.7,5.5,0,8.2,0
						c2.7-0.3,5.5-0.7,8.2-1c2.7-0.3,5.1-1.4,7.9-2.1c2.1-0.3,4.5-0.7,6.5-1c2.1-0.3,3.8-1.4,5.5-2.1c4.1-1.4,8.2-2.4,12-4.1
						c3.4-1.7,6.5-3.8,9.6-6.2c2.7-2.4,6.2-4.5,7.2-7.5c1.7-5.5,4.5-12-0.3-17.5v-0.7c0.3,0,0.3-0.3,0.7-0.3c1,1.7,2.4,3.4,3.1,5.1
						c1.7,4.1,2.7,8.2,1.4,12.4c-1,3.1-3.4,5.5-5.5,8.6s-4.1,6.2-5.8,9.3c-1.7,3.4-4.8,5.5-8.2,5.8c-4.1,0.7-8.6,1.7-12.7,2.1
						c-4.8,0.3-9.6,0-14.4,0.3c-1,0-2.1,0.7-3.1,0.7c-5.1,1-10.6,1.4-15.4,3.4c-4.5,2.1-8.9,1.4-13.4,2.7c-2.4,0.7-5.1-0.7-7.9-1.4
						c-3.1-0.7-6.5-0.3-8.9-2.1c-4.5-3.1-9.6-3.1-14.4-4.1c-2.7-0.7-6.2,0-9.9,0c4.5,2.7,4.5,7.2,6.2,10.6c2.7,4.5,2.1,9.9,3.8,14.4
						c1.4,3.1,1,6.9,1.4,10.6c0.3,2.7,0.7,5.8,1,8.6c0,0.7-0.3,1.4-0.3,2.4c-0.3,3.1-0.3,5.8-0.3,8.9c0.3,0,0.7,0,0.7,0.3
						c0.3-0.3,0.7-0.3,1-0.7c1.4-2.7,3.4-5.1,4.5-7.9c2.4-6.2,7.9-10.3,11.3-15.8c1.4-2.1,3.4-3.8,5.5-5.1c4.8-3.4,9.9-6.9,15.1-9.9
						c2.4-1.4,5.1-1.7,7.5-3.1c3.4-2.1,7.2-1.7,11-2.7c2.1-0.7,4.1-0.7,6.2-1c0,0.3,0.3,0.7,0.3,1c-1.7,0.7-3.8,1.4-5.5,2.1
						c-2.4,0.7-4.8,1.4-7.2,2.4c-3.1,1.4-5.8,3.1-8.6,4.5c-1.4,0.7-3.1,1.4-4.5,1.7c-0.3,0-0.3,0-0.7,0.3c-3.4,2.7-6.5,5.8-9.9,8.6
						c-1.7,1.4-3.4,3.1-4.8,4.8c-3.1,4.1-6.5,7.9-9.6,12c-2.1,2.7-4.1,5.5-6.2,8.2c-2.1,3.1-3.4,6.2-5.1,9.3
						c-1.4,2.4-3.1,4.5-5.1,6.2c-3.1,3.1-6.5,5.8-9.6,8.9c-1,1-1.4,2.7-1.4,4.1c-0.7,4.8-3.4,8.6-6.2,12.4c-1.4,2.1-3.4,4.1-5.1,6.2
						c-1,1-1.7,2.1-3.1,3.1c-5.1,3.8-9.9,7.9-15.4,11.3c-4.1,2.4-8.6,4.1-13,6.2c-2.7,1.4-5.5,2.7-8.2,4.1c-3.4,1.4-7.2,2.7-11,4.1
						c-5.8,2.4-12,4.1-15.8,9.6l-0.3,0.3c-6.5,4.8-12.7,9.6-19.6,13.7c-3.1,1.7-6.9,2.1-10.3,3.4c-3.8,1.4-7.2,2.7-11,4.1
						c-2.7,1-5.5,1.7-8.2,2.4c-3.8,1-7.9,2.1-11.7,3.1c-1.7,0.3-3.4,0.7-5.1,0.7c-2.7,0.3-5.5,0.7-7.9,0.3
						c-4.8-0.7-9.3-2.1-14.1-2.7c-5.5-1-9.9-3.4-14.4-6.2c-1-0.7-1.7-2.4-2.7-3.4c-0.7-0.7-1.7-1.4-2.4-2.1c-0.3,1-1,1.7-1.4,2.7
						c-0.3,1.7-1.4,4.1-0.7,5.1c1.7,2.1,4.1,3.4,6.5,5.1c2.1,1.4,4.5,2.4,6.9,3.4c-3.1,1.7-2.1,3.4-0.7,5.5c1,1.4,2.4,3.1,3.1,4.8
						c1.4,3.4,4.8,4.5,7.2,6.5c0.3,0.3,1.7,0,2.1-0.3c1.4-3.1,3.1-1.4,4.8-0.3c1,0.7,1.7,1,2.7,1.4c5.5,1,10.6,2.7,16.1,3.4
						c3.1,0.3,6.5-0.3,9.9-0.7c1.7,0,3.1-0.3,4.8-0.7c2.7,0,5.5,0,8.2-0.3c6.5-0.3,13.4,1.7,18.9-3.4c1.4-1,3.1-1.7,4.5-2.7
						c2.7-2.1,5.8-3.1,9.3-3.8c2.1-0.3,3.8-1.7,5.5-3.4c2.7-2.4,6.2-1.7,9.3-2.7c2.4-0.7,5.1-1.4,7.9-2.1c4.5-1.4,8.6-3.1,13-4.5
						c7.2-2.1,14.7-3.1,21.3-7.9c2.7-2.1,6.5-2.7,9.9-4.1c1.7-0.7,3.1-1.7,4.1-3.1c-8.9,1.4-17.5,2.7-26.1,5.5c0-0.3,0-1-0.3-1.4
						c9.3-2.7,18.5-5.8,28.1-8.2c4.5-1,9.6-1.7,14.1-2.1c2.1-0.3,4.5,0.3,6.9,0c5.5-1.4,9.9,1.4,15.1,1.7c2.7,0,5.8-0.7,8.6-0.7
						c2.4-0.3,4.5,0,6.9-0.3c5.8-1,12,1.4,17.8-1c1.7-0.7,3.8-1.4,5.5-2.1c2.7-1.4,5.1-2.7,7.9-3.8c1.4-0.7,3.1-1,4.5-1.7
						c5.1-2.1,10.6-3.8,15.4-6.2c4.5-2.1,8.6-4.5,12-7.2c3.8-3.4,7.9-6.9,9.9-12c1-2.7,3.1-4.8,4.5-7.2c0-0.3,0.3-0.7,0.3-0.7
						c1-3.4,2.1-6.5,3.4-9.9c1.4-3.1,3.1-6.2,4.8-9.3v-0.3c1.4-4.1,3.1-7.9,4.1-12s2.1-8.2,2.7-12.7c0.3-2.7-0.7-5.8-1-8.6
						c0-0.3,0-0.3,0-0.7c0.3-3.8,0.3-7.2,0.7-11c0-1-0.3-2.4-0.3-3.4c0-0.7,0-1.7,0-1.7c2.4-1.4,1.7-3.8,2.7-5.5
						c1.4-2.4,3.1-4.8,4.8-7.2c2.7-3.8,6.5-6.5,8.2-11.3c0.7-1.7,2.1-3.1,2.4-4.8c0.7-5.8,0-11-5.1-15.4c-3.8-3.4-7.9-6.2-12.3-8.6
						c0,0,0-0.3,0-0.7c2.1-0.3,4.1-0.7,5.8-1.7c1.4-0.7,2.4-2.4,3.8-3.4c2.1-2.1,4.5-4.1,6.9-5.8c2.1-1.4,2.7-3.1,1-5.1
						c-2.4-3.4-4.8-6.5-7.5-9.6c-1-1.4-3.1-2.4-4.8-3.1c-6.9-2.4-12-7.2-17.1-11.7c-3.8-3.1-7.2-6.9-7.9-12.4
						c-0.3-2.7-1.4-5.5-2.1-8.2c-0.3-0.7,0.3-1.7,0.3-2.4c0.3,0,0.7,0,1,0c0.3,2.1,0.3,3.8,0.7,5.8c0,0.7,0,1,0.3,1.7
						c3.4,6.2,8.6,11,14.1,15.1c2.7,2.1,5.8,3.1,8.6,5.1c5.1,3.4,10.3,7.2,15.4,11c3.8,3.1,5.8,12,3.4,16.1c-0.3,0.3-0.7,0.7-1.4,1
						c-2.1,1.4-4.1,2.7-6.2,4.1c-3.8,2.4-3.8,5.5,0,7.9c5.1,3.1,7.9,7.9,9.3,13.4c0.3,1.4-0.7,3.4-0.7,5.1
						c-0.7,3.8-2.4,7.2-4.8,10.3c-3.1,4.8-7.5,8.2-10.6,13c-1.4,2.4-2.7,5.1-3.4,7.5c-0.3,1.4,0.3,3.4,0.3,4.8
						c0.3,2.7,1.4,5.8,1,8.6c-0.3,3.8,0.3,6.9,1.4,10.3c0.7,2.1,1,4.5,1.4,6.9c0.3,1.7,0.7,3.4,0.7,4.8c0,2.4,0,5.1,0.3,7.5
						c0,3.8,0.3,7.5,0.3,11c0,0.7,0,1.7-0.3,2.4c-0.7,3.4-1.7,6.9-2.1,9.9s0.7,6.9-0.7,9.6c-3.8,7.2-3.4,15.4-6.5,22.6
						c-1.7,3.8-1.7,8.2-3.8,11.3c-2.4,3.8-2.7,8.6-6.2,12c-1.7,1.7-3.8,4.1-5.1,6.5c-0.3,0.7-1,1-1.7,1.4c-3.1,2.1-6.2,4.1-9.6,6.2
						c-4.8,3.1-10.6,4.8-16.1,6.2c-3.4,0.7-6.9,1.7-10.3,2.1c-2.4,0.3-5.1,0-7.5,0.3c-3.1,0.3-6.2,0.3-9.3,0.7c-0.3,0-0.7,0-1,0
						c-5.1,0-10.3-0.3-15.4,0c-4.5,0.3-8.6,1-12.7,2.1c-0.7,0.3-1.7,3.1-1.4,3.4c1,1.4,3.1,2.4,4.8,3.1c4.5,1.4,9.3,2.4,13.7,2.7
						c4.1,0.3,8.6,0,12.7,0c2.4,0,4.5,0,6.9-0.3c1,0,2.1-0.7,3.1-0.7c4.8-1,9.3-2.1,14.1-3.1c2.1-0.3,4.5-0.3,6.9-0.3
						c3.4-0.3,7.2-0.7,10.6-0.7c1,0,2.1,0.3,3.8,0.7c-3.1,3.1-6.5,4.5-10.3,5.5c-8.9,2.1-17.8,4.5-26.8,6.5c-4.5,1-9.3,1-14.1,2.1
						c-6.2,1.4-12.3,0.3-18.5-0.7c-4.1-0.7-8.2,0-12.3,0.7c-1,0-2.1,2.1-3.1,3.1c2.1,4.1,6.2,6.2,10.3,7.2c1.7,0.3,3.8,0.7,5.5,1
						c6.5,1.7,12.7,0.3,19.2-1c4.8-1,9.6-1.7,14.7-2.7c1.4-0.3,2.7-0.3,4.1-0.7l0.3,1.4c-3.8,2.1-7.9,3.8-11.7,5.8
						c-0.3,0.3-0.7,0.3-1,0.7c-1.4,0.7-3.1,1.7-4.5,2.4c18.2-1.7,36.4-3.1,53.8-7.9c8.2-2.4,16.8-5.5,23.7-11.3
						c7.5-6.5,13-16.1,17.1-25c0,0,0,0,0-0.3c0.7-8.2,1.7-16.1,3.1-24c4.5-23,8.9-46,13.7-69c1.7-9.3,3.1-15.8,5.1-25
						C2063.8,1849.2,2063.8,1813.8,2063.8,1780.9z M1737.6,1679.4c-2.4,3.1-5.5,5.5-10.3,5.5c0.7-0.7,1.4-1.4,2.4-1.7
						c1.7-1,2.1-2.4,1.7-4.1c-0.7-1.7-2.1-3.1-4.1-2.7c-3.4,1-6.5,2.1-9.9,3.4c-3.4,1.7-5.5,4.5-6.2,8.6c0,0.7-0.7,1.7-1.4,2.4
						c-0.3-3.1,0-5.8,1.4-8.6c0.3-0.7,1.4-1.4,1.4-2.4c1.7-5.8,8.6-12.7,14.4-12.7c3.8,0,8.2-0.3,10.3,4.1
						C1739,1673.2,1739,1677.6,1737.6,1679.4z M1773.6,1687.2C1773.6,1687.2,1773.6,1686.9,1773.6,1687.2c2.1-1.7,4.1-2.7,6.2-4.1
						L1773.6,1687.2z M1842.9,1703.4c-0.3-0.3-1-0.7-1-1.4c-2.4-4.5-6.5-6.2-11-7.2c-2.7-0.7-5.5-1.4-7.9-1.7c-0.7,0-1.7,0-2.1,0.7
						c-0.3,0.3,0,1.4,0.3,2.1c0.7,1,1.4,2.1,2.1,3.1c2.4,3.4,4.1,7.2,5.1,11.3c0.7,2.1,1.7,3.8,2.4,5.8c0.7,3.4,1,7.2,1.7,10.6
						c0.3,2.7,0.7,5.8,1,8.6v0.3c-1,5.8,0.3,12.4-2.1,17.8c0,0.3-0.3,0.3-0.7,1c-0.3-0.7-1-1-1-1.4c0.3-3.8,0.7-7.5,0.7-11.3
						c0-3.8-0.3-7.5-0.3-11.3c0-2.4-0.3-4.5-0.3-6.9c0-1.4-0.7-2.7-0.7-3.8c-1-8.9-4.5-16.8-9.9-23.7c-2.1-2.4-5.1-4.5-8.2-6.2
						c-2.4-1.4-4.8-2.1-7.2-3.1c-0.7-0.3-2.7,0-2.7,0.3c-0.3,1-0.3,2.7,0,3.8c1.7,5.1,3.4,9.9,4.8,14.8c1,3.8,1.7,7.9,2.1,11.7
						c0.3,6.5-0.3,13-2.4,19.2c0,0.3-0.3,0.3-0.3,0.7c-0.3-0.3-0.7-0.3-0.7-0.3c0-3.8,0.3-7.2,0.3-11c0-3.4-0.3-6.9-0.7-10.6
						c0-1.7-0.3-3.8-0.7-5.5c-0.3-3.1-0.3-6.5-1.7-9.6c-2.1-4.5-4.5-8.9-7.2-13c-2.1-2.7-4.8-5.1-8.6-5.8c-0.7,0-1.4-0.3-2.1-0.7
						c0-0.3,0-0.7,0-0.7c0.7,0,1.4-0.3,2.1,0c5.8,1.4,12,1.4,17.5,4.1c8.6,3.8,17.5,4.1,26.1,6.9c4.5,1.4,8.6,3.8,13,5.5
						c2.7,1,5.5,2.1,8.2,3.4c3.1,1.7,5.8,3.8,8.6,5.5c0.7,0.3,0.7,1.4,1,2.4c-1.7-1-3.4-2.1-5.1-3.1c-2.4-2.1-4.8-4.1-8.6-3.8
						c0.3,0.7,0.3,1,0.7,1.7c2.4,5.1,5.1,10.3,7.5,15.4c0.3,0.7,0,1.7-0.3,2.4c-1-1.4-2.7-2.7-3.4-4.5
						C1849.8,1711.3,1846.7,1707.1,1842.9,1703.4z M1854.9,1721.2c0.7,1.4,1.7,2.4,2.1,3.8c1,3.4,2.1,6.9,2.7,10.3
						c0,0.7-0.3,1.4-1,2.7c-1.7-5.5-2.7-9.9-4.1-14.4C1854.2,1722.6,1854.6,1721.9,1854.9,1721.2z M1859.7,1764.1
						c-0.7-1-1-1.4-1-1.7c0.3-4.1,0.7-7.9,0.7-12c0-3.1-0.3-6.2-0.7-8.9c0-0.7,0.3-1.7,0.3-2.4c0.3,0,0.7,0,1,0.3
						C1860.7,1747.3,1862.1,1755.2,1859.7,1764.1z M1883,1777.1c0,0.7-0.7,1.4-1,2.7c-0.3-2.7-1-4.8-1-6.9c0-3.1,0.3-6.2,0.3-8.9
						c0-1.7,0-3.4-0.3-5.1c-1-5.1-2.1-10.3-3.4-15.4c-1.7-5.5-3.4-11-5.5-16.1c-1.7-4.1-4.8-7.5-7.2-11.3c-1.4-2.1-2.7-4.5-3.8-6.9
						c1,0.7,2.4,1,3.1,2.1c2.7,3.8,5.5,7.9,7.9,12c1.7,3.1,2.7,6.2,4.1,9.6c1.7,5.1,3.4,10.3,5.1,15.8c1,3.1,1,6.5,2.1,9.9
						c1,4.1,1.4,8.2,0.7,12.4C1882.7,1772.3,1883.4,1774.7,1883,1777.1z M1893.3,1701.7c9.9-0.3,16.8-7.5,24.7-12
						c2.7-1.7,5.1-3.8,8.2-5.1c1.7-1,3.8-1.4,5.5-2.4c0.3,0.7,0.7,1,1,1.7c-0.7,0-1.4,0-2.1,0c0,1-0.3,2.1,0.3,2.7
						c3.8,3.1,7.9,5.8,11.7,8.9c2.1,1.7,3.4,3.8,5.5,5.8c1.4,1.4,2.4,2.7,4.1,4.8c-4.1,0-5.5-5.5-9.6-4.5c0.3,2.7,0,5.8,1,8.2
						c0.7,2.4,2.7,4.5,4.5,6.5c0.3,0.7,1,1,1.4,1.7c0.3,1.4,1,3.4,0.3,3.8c-2.4,2.4-5.1,4.8-8.2,6.5c-2.4,1.4-5.5,1-7.9,2.1
						c-3.8,1-6.5,0-9.9-1.7c-4.5-2.4-6.9-6.2-10.3-9.6c-3.4-3.8-7.5-7.2-12-10.3c-2.4-1.7-5.5-2.4-8.2-3.8c-0.7-0.3-1.4-1-2.1-1.7
						C1891.6,1702.3,1892.3,1701.7,1893.3,1701.7z M1954.7,1751.1c-3.1,0.7-5.8,1.7-8.9,2.1c-2.1,0.3-4.5,0.3-6.9,0.7
						c-4.5,0.3-9.3,1.7-13.7,0.3c-1.4-0.3-3.4,0.7-4.8,0.3c-3.4-1.7-7.2-3.4-10.3-5.8c-3.1-2.7-5.8-6.2-7.9-9.9
						c-2.1-3.8-3.1-8.2-4.8-12.4c-1-2.4-2.1-4.5-2.7-6.9c-1-3.1-2.1-6.2-3.1-9.3c0-0.3,0.3-0.7,0.3-1.4c0.3,0,0.7-0.3,1-0.3
						c1.4,3.1,3.1,6.5,4.5,9.6c1,2.1,2.1,4.1,2.7,6.5c1,2.7,1.7,5.8,3.1,8.2c2.1,3.4,4.8,6.9,7.2,10.3c0.3,0.7,1,1,1.4,1.7
						c0.3,0.7,0.7,1.7,1.4,1.7c4.5,1.7,8.9,3.8,13.7,4.5s9.9-0.7,15.1-1c4.5-0.3,8.6-1,12.7-2.1c2.1-0.3,3.8-1.7,5.5-2.4
						c0.3-0.3,1-0.3,1.7-0.7C1961.2,1749,1959.5,1750.4,1954.7,1751.1z M1966.4,1739.7c1.7-8.6,1-16.5-5.1-23.3
						C1968.1,1719.8,1971.2,1733.2,1966.4,1739.7z M1997.2,1779.5l-5.5-1v-0.7l5.5,1V1779.5z M2005.1,1727.7c-0.7,3.1,0,6.9-3.1,9.3
						c-0.7,0.7-1,2.4-1.4,3.4c-0.3,0-0.7-0.3-1-0.3c0.3-1.4,0-2.7,0.7-3.8c3.4-4.5,3.4-11-1-14.1c-2.1-1.4-4.5-2.1-6.5-3.1
						c-1.7-1-3.4-2.1-5.1-3.1l0.3-0.7c0.7,0,1.4,0,2.1,0.3c1.7,0.7,3.4,2.1,5.1,2.4c3.8,0.3,5.8,3.4,8.6,5.5
						C2004.8,1724.3,2005.5,1726.4,2005.1,1727.7z"/>
				</g>
				<g>
					<path class="st3" d="M1988,1715.4c0.7,0,1.4,0,2.1,0.3c1.7,0.7,3.4,2.1,5.1,2.4c3.8,0.3,5.8,3.4,8.6,5.5c1,0.7,1.4,2.7,1.4,4.1
						c-0.7,3.1,0,6.9-3.1,9.3c-0.7,0.7-1,2.4-1.4,3.4c-0.3,0-0.7,0-1-0.3c0.3-1.4,0-2.7,0.7-3.8c3.4-4.5,3.4-11-1-14.1
						c-2.1-1.4-4.5-2.1-6.5-3.1c-1.7-1-3.4-2.1-5.1-3.1C1988,1716.1,1988,1715.7,1988,1715.4z"/>
				</g>
				<g>
					<path class="st3" d="M1781.8,1681.8c-2.7,1.7-5.5,3.8-8.2,5.5c0,0,0-0.3-0.3-0.3C1776.4,1685.2,1779.1,1683.5,1781.8,1681.8
						L1781.8,1681.8z"/>
				</g>
				<g>
					
						<ellipse transform="matrix(0.2047 -0.9788 0.9788 0.2047 -154.8654 3367.2263)" class="st3" cx="1994.6" cy="1778.9" rx="0.7" ry="3.8"/>
				</g>
				<g>
					<path class="st3" d="M1896.1,1853c-5.5,5.5-12.7,6.2-19.9,8.2c1.7,1.4,14.7-1.4,20.6-4.5c0.3,4.1,0,8.2,0.7,12.4
						c0.3,3.1,0,5.8-0.3,8.9c-0.3,3.4-2.7,4.5-5.1,5.5c-4.1,1.4-8.6,2.4-12.7,3.4c-2.4,0.3-5.1,0-7.5,0.3c-0.7,0-1.4,0-2.4,0.3
						c6.2,3.4,14.1,0,20.6,4.1c-1.7,0.7-3.1,1.4-4.5,1.4c-4.5,0.3-8.6,0.3-13,0.7c-2.7,0.3-5.8,0.7-8.6,1c-0.7,0-1.7,0-2.4-0.3
						c-5.8-1.4-12-2.7-17.8-3.8c-4.5-0.7-7.9-3.1-11.7-5.1c-6.9-3.8-12.3-9.3-18.5-13.7c-3.1-2.4-6.5-5.5-9.6-8.2
						c-3.8-3.1-7.5-5.8-12.7-6.9c-2.1-0.3-3.8-1-5.8-1c-4.1-0.3-8.2-0.7-12.7-1c-1,0-2.4,0.7-3.4,0.7c-3.4,0-5.8-2.1-7.2-5.5
						c2.4-2.1,4.8-4.5,7.9-5.8c2.1-1.4,4.8-1.7,7.5-2.1s5.8-0.7,8.6-1c0.7,0,1.7,0,2.7,0.3c6.9,1.4,13.4,3.8,19.6,6.9
						c2.7,1.4,5.5,2.1,8.2,3.4c3.8,1.7,7.2,3.4,11,5.1c0.7,0.3,1.4,0.3,2.1,0.7c2.7,0.7,5.1,1.4,7.9,1.7c5.5,0.7,11,2.1,16.1,1.7
						c5.8-0.3,11.3-1.7,17.1-2.7c3.1-0.7,5.8-1.4,8.6-2.4c0.7-0.3,1.4-0.7,1.7-1c2.7-1.4,5.5-2.7,8.6-4.1
						C1891.6,1849.2,1894.7,1850.6,1896.1,1853z M1854.2,1886.9c0,0.3,0,0.7,0,1c4.5,0.3,8.6,0.3,13,0.7
						C1863.1,1885.5,1858.7,1886.9,1854.2,1886.9z"/>
				</g>
				<g>
					<path class="st3" d="M1801.4,1955.2c-5.1-3.1-5.8-7.5-7.2-11.7c-0.7-2.7-1.7-5.5-3.1-8.2c-0.3-0.7-2.7-1.4-3.4-1
						c-2.4,1.7-4.5,3.8-6.5,5.8c-0.7,0.7-1.4,2.1-1.7,3.1c-0.3,0.3-0.7,1-0.7,1.4c1,4.1,1.7,8.2,2.7,12.4c0.3,2.1,1.7,3.4,2.1,5.5
						c0.3,1,0,2.4-0.7,3.4c-0.3,0.3-1.7,0.3-2.4,0.3c-0.7-0.3-1.4-1.4-1.7-2.1c-1-3.1-2.4-6.5-3.4-9.6c-1-2.7-1.7-5.8-3.4-8.6
						c-1.7-3.1-5.8-2.7-7.9,0c-1.7,2.1-2.4,4.1-2.7,6.9c0,0.7-0.7,1.4-1,1.4c-0.7,0-1.7-0.3-2.1-1c-1.4-1.4-1.7-3.8-4.8-2.1
						c-1.7,1-3.4,1-4.8,2.7c-1.7,2.1-2.1,4.1-2.7,6.5c-0.7,2.1-2.1,3.8-3.4,6.5c-0.3-3.1-0.7-5.1-0.7-7.5c0.3-2.7-0.7-4.1-3.1-4.8
						c-0.7,0-1.4,0-1.7-0.3c-1-0.3-2.1-1-3.1-1.7c1-1,2.1-2.1,3.1-2.7c2.7-1.4,5.5-2.1,8.6-3.1c2.4-1,5.1-1.7,7.5-2.7
						c0.3,0,0.7,0,0.7-0.3c9.6-5.8,19.6-11.7,29.2-18.2c4.1-2.7,7.2-7.5,11-10.6c5.5-4.1,8.6-10.6,13.4-15.1c1.4-1,1.7-3.1,2.7-4.5
						c1.7-3.1,3.4-5.8,5.1-8.9c1-2.1,4.1-2.7,5.8-1.4c1,0.7,2.1,1.4,3.4,2.1c2.4,1.4,4.8,3.4,7.5,4.5c2.4,1,3.8,2.4,5.1,4.5
						c0.7,1.4,0.7,2.4-0.7,3.1c-3.8,1.7-7.9,3.1-11.7,5.5c-4.1,2.4-7.9,5.5-12,8.6c-1,0.7-2.1,1.4-2.7,2.1c-0.7,0.7-0.7,1.4-1,2.1
						c0.7,0.3,1.7,0.7,2.4,0.7c4.1-1,8.6-2.1,12.7-3.4c3.8-1.4,7.2-3.4,11-4.5c4.1-0.7,7.2-3.8,11.7-3.1c0.7,0,1.4-0.3,2.1-0.7
						c2.1,1.4,4.1,2.7,5.8,4.1c0.7,0.7,1.4,1.4,2.4,2.1c1,0.7,2.1,1.4,3.1,2.1c1.7,1,3.4,2.1,5.1,2.7l0.3,0.3
						c-1,2.1-1.7,4.1-3.1,5.8c-0.3,0.3-2.7-0.3-3.8-1c-2.1-2.1-3.8-4.5-5.8-6.5c-1.4-1.7-3.1-3.4-4.5-5.1c-6.2,1.4-6.5,6.9-6.2,10.6
						c0.3,3.8,0,8.6,4.8,10.6c-2.4,2.7-7.2,2.4-9.3-0.3c-2.4-3.4-4.8-7.2-7.2-10.6c-2.4-3.8-5.8-3.4-8.9,0
						c-3.4,3.8-2.7,7.5-1.4,11.7c1,3.1,2.1,5.8,3.1,8.6c0.3,1.4,0,2.4-1.7,2.1c-2.7-0.3-5.5-0.7-7.2-3.8c-2.7-5.5-6.2-11-9.3-16.5
						c-5.5,2.4-8.2,6.9-7.9,12.4c0.3,3.8,0,7.9,2.7,11.3c1,1.4,2.1,3.4,2.1,5.5C1803.5,1952.8,1802.1,1954.2,1801.4,1955.2z"/>
				</g>
				<g>
					<path class="st3" d="M1882,1664.9c-0.3,1.7-0.7,3.8-1,5.5c-1,2.4-2.1,4.8-3.1,7.2c0,0.3-0.7,0.3-1.4,0.7
						c-4.1,0.7-7.9,1.7-12,1.7c-4.1,0.3-8.2-1-10.6-4.5c-3.4-4.5-6.2-9.6-7.2-15.1c-0.3-2.1,1.4-3.8,3.4-4.8c3.8-2.1,7.5-4.1,11-7.2
						c2.4-2.1,4.5-5.1,6.2-8.2c1-2.1,1-4.5,1-6.9c0-1,0-1.7,0-2.7c1.4,0.3,3.1,0,3.4,0.7c3.8,4.8,7.5,9.3,10.6,14.4
						c1,1.4,0.7,3.8,1,5.8c0.3,4.1,0.3,8.2-1,12C1882,1663.9,1882,1664.3,1882,1664.9z"/>
				</g>
				<g>
					<path class="st3" d="M1848.4,1620.3c-0.3,5.5-3.4,9.6-7.9,13c-1.7,1.4-6.2,1.4-7.9,0c-3.8-2.7-5.8-6.2-6.2-10.6
						c0-0.3-0.3-1-0.3-1.4c-2.1-3.8-2.1-3.8,1.7-6.2c2.4-1.7,3.8-4.1,5.1-6.9c2.4-4.5,3.1-8.9,4.1-13.7c0.7-2.4,2.7-1.4,3.4-0.7
						c3.8,2.7,6.9,6.2,7.9,11C1849.8,1610.1,1849.8,1615.2,1848.4,1620.3z"/>
				</g>
				<g>
					<path class="st3" d="M1818.6,1570.6c2.7,2.1,5.1,3.1,6.9,4.8c4.1,3.1,7.2,7.2,9.6,11.7c1,1.7,1,4.1,0.7,6.2
						c-0.7,4.5-1,8.9-4.1,12.7c-1.4,1.7-2.7,3.1-4.1,4.5c-1,1-2.1,2.4-3.4,3.4c-0.7,0.3-2.4,0.7-2.7,0.3c-4.5-3.8-7.2-8.6-7.9-14.4
						c-0.3-2.7,0.7-5.5,1.4-7.9c0.7-2.7,0.3-5.8,3.1-7.9c1-0.7,0.7-3.1,0.7-4.5C1818.6,1576.4,1818.6,1574,1818.6,1570.6z"/>
				</g>
				<g>
					<path class="st3" d="M1863.8,1634.8c0.3,4.8-3.4,8.6-6.5,12c-1,1-1.7,2.1-2.4,3.1c-3.1,3.4-7.2,3.4-10.6,1.4
						c-2.1-1-4.1-4.1-4.8-6.5c-0.7-2.1,0.3-4.1,2.7-5.8c1.7-1,2.7-3.4,3.8-5.5c1.4-2.1,2.1-4.5,3.1-6.9c1-2.4,2.1-4.5,2.7-6.9
						c0.3-1.4,0-2.7-0.3-4.1c-0.3-1.7,0.3-2.7,2.1-2.1c2.4,0.7,4.5,2.1,6.5,3.4C1864.5,1620.3,1865.9,1627.2,1863.8,1634.8z"/>
				</g>
				<g>
					<path class="st3" d="M1771.2,1807c-0.3,2.1-1.4,4.5-1.4,6.5c0,4.1-0.3,8.6,1,12.7c0.3,1-0.3,2.7-0.7,4.1
						c-1.4-0.7-3.1-0.7-3.8-1.7c-2.7-4.1-5.1-8.6-7.2-13c-0.7-1.7-0.3-3.8-0.7-5.8c-0.3-2.4-0.7-4.5-1-6.9c0-0.3-0.3-0.7-0.3-0.7
						c0.3-5.1,1-9.9,1.7-15.1c0.3-1.7,4.1-4.1,5.8-3.8c3.1,0.7,6.5,1,9.6,2.1c2.1,0.7,3.1,2.1,2.4,4.1c-1,3.1-0.7,6.2-3.1,9.3
						C1771.6,1800.8,1771.6,1804.2,1771.2,1807L1771.2,1807z"/>
				</g>
				<g>
					<path class="st3" d="M1747.2,1778.5c6.5,1.4,7.2,1.7,4.8,7.9c-2.1,5.5-3.8,10.6-4.5,16.1c-0.7,4.5-0.3,8.6,0.7,13
						c0.3,1.4,0,2.7-0.3,4.1c-1-0.3-2.1-0.7-3.1-1.4c-5.1-4.5-8.6-9.9-9.9-16.5c-0.7-3.8-1.7-7.5-0.7-11.7c0.3-1-1-2.7-0.7-3.8
						c0.7-2.4,1.7-5.1,3.1-7.2c1-1,3.4-1.4,5.1-1.4C1744.1,1777.5,1745.8,1778.2,1747.2,1778.5z"/>
				</g>
				<g>
					<path class="st3" d="M1837.4,1852.3c-3.8-0.7-6.9-1.7-9.9-2.1c-4.8-0.7-6.5-4.1-6.9-8.9c-0.3-3.1,0-5.5,0.3-8.6
						c0-0.7,0.7-1.7,1.4-2.1c0.7,0,1.7,0.7,2.1,1.4c2.7,4.1,5.8,7.9,9.6,10.6c0.7,0.7,1.7,1,2.7,1.4c0.7,0.3,1.7,0.3,2.4,0.7
						c3.8,2.7,6.5,1.7,7.2-2.7c1-5.8,1.4-5.8,6.2-2.4c2.1,1.4,4.1,3.4,6.5,4.8c1.7,1,4.1,1.7,5.8,2.7c1,0.7,3.4-0.3,3.1,2.1
						c0,2.4-1.4,3.4-3.8,3.8c-4.1,0.7-8.6,0.3-12.7,0.7C1846.3,1854.7,1841.5,1852.6,1837.4,1852.3z"/>
				</g>
				<g>
					<path class="st3" d="M1783.6,1798.7c0.3-1.7,0.7-2.7,0.7-4.1c0.3-2.4,0.7-4.5,4.1-3.4c4.1-2.7,6.5,2.4,10.3,2.4
						c0.3,0,1,1,1,1.4c-0.7,2.1-1.7,4.1-2.4,6.2c-0.3,0.7-0.7,1.4-0.7,2.1c-1,4.5-2.1,9.3-2.7,13.7c-0.3,2.1,0.7,4.1,1,6.2
						c0,1.4-0.3,2.7-0.3,4.1c-1-0.7-2.1-1-3.1-1.7c-1.4-1-2.7-2.1-3.4-3.4c-2.1-3.4-3.4-6.9-3.8-11
						C1783.2,1807,1782.2,1802.5,1783.6,1798.7z"/>
				</g>
				<g>
					<path class="st3" d="M1817.2,1800.1c2.1,1,4.1,1.7,5.5,3.1c0.7,0.7,0.3,3.1,0,4.5c-0.3,1.4-1.4,2.4-1.7,3.4
						c-1,2.7-2.7,5.5-3.1,8.2c-0.3,4.5,0.3,8.9,0.7,13.4c0,1,0,2.1,0,3.1c-1-0.3-3.1-0.3-3.4-1c-2.7-4.5-5.8-9.3-7.9-14.1
						c-1-2.1-0.3-5.1-0.3-7.9c0-2.4-0.3-5.1,0-7.5c0.7-4.1,3.8-6.2,7.9-5.1c0.7,0,1.4,0.3,2.4,0.3
						C1816.8,1800.5,1817.2,1800.1,1817.2,1800.1z"/>
				</g>
				<g>
					<path class="st3" d="M1725.3,1770.3c2.1,1,4.1,2.1,5.8,3.4c0.7,0.7,0,2.7-0.3,4.1c-0.3,1-1.4,2.1-1.7,3.1
						c-1.4,4.5-3.1,8.6-4.1,13c-0.3,2.4,0.3,5.1,0.7,7.5c0,1.4-0.3,2.7-0.7,4.1c-1-0.7-2.1-1-3.1-2.1c-4.5-3.8-5.1-9.3-6.5-14.4
						c-0.7-3.1,0-6.5,0.3-9.9c0-1,0.3-2.1,0.7-3.1C1717.4,1769.9,1718.4,1769.2,1725.3,1770.3z"/>
				</g>
				<g>
					<path class="st3" d="M1687.9,1794.6c-3.4,0-5.8-0.7-7.2-3.8c-1.7-3.4-3.4-6.5-5.1-9.9c-0.7-1.4-0.7-3.1-0.7-4.8
						c0-4.1-1-7.9,0.7-11.7c0.3-1,2.4-2.1,3.4-2.1c2.7,0.3,5.8,1,8.6,1.7c2.4,0.7,3.4,4.5,1.7,5.5c-2.1,1.4-1.7,3.4-2.4,5.5
						c0,0.7-0.3,1-0.3,1.7C1685.1,1783,1685.8,1788.8,1687.9,1794.6z"/>
				</g>
				<g>
					<path class="st3" d="M1841.9,1842.3c-2.7,0-5.5-0.3-6.9-3.1c-1.7-3.4-3.8-6.5-5.1-9.9c-0.7-1.4-0.7-3.4-0.7-5.1
						c0-3.8-1-7.5,0.7-11.3c0.7-1,2.4-2.4,3.8-2.4c2.7,0,5.5,1,8.2,1.7c2.7,0.7,3.4,4.1,1.7,6.2c-0.7,1-1.4,2.1-1.7,3.4
						c-0.7,2.4-0.7,4.8-1.4,6.9C1838.4,1833.1,1840.5,1837.5,1841.9,1842.3z"/>
				</g>
				<g>
					<path class="st3" d="M1809.6,1556.2c2.1,2.1,3.4,3.4,4.8,4.8c3.1,3.8,3.4,7.9,2.4,12.4c-0.3,1.7-0.3,3.8-1,5.5
						c-1,2.7-2.7,5.1-4.1,7.5c-1,1.7-2.1,3.4-3.1,5.5c-0.3,0-0.7,0-1,0c-1.7-3.8-4.1-7.2-5.1-11c-0.7-2.4,0.3-5.8,1.7-7.9
						c1.4-2.4,3.8-4.1,4.1-6.9c0-0.3,0.3-1,0.7-1.4c1.7-1.4,2.1-2.7,1-4.8C1809.3,1558.9,1809.6,1557.9,1809.6,1556.2z"/>
				</g>
				<g>
					<path class="st3" d="M1780.5,1972.7c-1.7,4.5-5.8,4.1-8.9,5.1c-2.7,0.7-3.4-2.4-4.1-4.5c-1-2.1-1.7-4.8-2.4-7.2
						c-0.3-1-0.3-2.1-0.3-3.4c0-2.7-0.3-5.5,0.3-8.2c1-2.7,3.1-5.5,5.1-7.9C1772.2,1956.6,1775.7,1965.1,1780.5,1972.7z"/>
				</g>
				<g>
					<path class="st3" d="M1801.7,1931.2c0.7-0.7,2.7-2.7,3.4-2.4c1.7,1,2.7,3.1,3.8,4.8c1.7,2.4,3.4,5.1,4.8,7.5
						c0.3,0.7,1,1.4,1.7,2.1c1.4,1.4,2.4,2.7,3.8,3.8c2.1,1.7,2.1,3.4-0.3,5.1c-2.1,1.4-4.1,4.1-7.2,2.4c-1.7-1-3.8-2.1-5.1-3.8
						c-2.1-2.7-3.4-6.2-5.1-9.3v-0.3C1801.4,1938,1801.7,1934.9,1801.7,1931.2z"/>
				</g>
				<g>
					<path class="st3" d="M1743.4,1984c-0.7,3.4-2.1,4.5-4.8,4.1c-0.7,0-1,0-1.7,0c-3.1,0.7-3.8,0.3-4.5-3.1
						c-0.3-2.4-1.4-4.8-1.7-7.2c-0.3-2.1-0.3-3.8-0.3-5.8c0.3-3.4,1.4-6.9,2.1-10.3c0.3-2.1,1.7-3.4,3.8-3.1s2.7,2.1,2.1,4.5
						c-1,3.8,1,6.9,1.7,9.9s2.1,5.8,3.1,8.9C1743.8,1983,1743.4,1984,1743.4,1984z"/>
				</g>
				<g>
					<path class="st3" d="M1791.5,1965.8c-1-1-2.4-1.7-3.1-2.7c-3.1-3.4-4.8-7.9-5.1-12.4c-0.3-3.8,1.4-7.9,2.4-11.7
						c0,0,2.4,0,2.7,0.7c1.4,2.4,2.1,4.8,3.1,7.2c1.4,2.4,2.4,4.8,4.1,7.2c1.4,2.1,3.4,4.1,5.1,6.2c0.3,0.3,0,1,0,1.7
						C1799.3,1963.4,1793.5,1965.8,1791.5,1965.8z"/>
				</g>
				<g>
					<path class="st3" d="M1748.2,1964.1c1.4-2.7,2.4-5.8,4.1-8.2c0.3-0.7,2.1-1,3.1-0.7c0.3,0,1,1.4,1,2.4
						c0.7,3.8,0.7,7.9,1.4,11.7c0.7,3.1,2.1,5.8,3.1,8.9c0.3,0.7,0,1.7-0.3,2.4c-1,3.1-4.1,2.4-6.2,3.1c-0.7,0.3-2.7-0.7-3.4-1.7
						c-2.1-2.4-2.7-5.1-2.4-8.6C1748.6,1970.6,1748.2,1967.5,1748.2,1964.1z"/>
				</g>
				<g>
					<path class="st3" d="M1823,1925.3c0-0.7,0-1.4,0.3-1.7c1-1,2.1-2.4,3.4-2.7c0.7,0,2.4,1.7,2.7,2.7c0.7,3.4,2.4,5.8,5.1,7.9
						c2.4,2.1,4.8,4.1,7.2,6.5c1.4,1.4,2.1,3.1-0.3,4.5c-2.1,1-3.4,2.4-5.5,3.4c-0.7,0.3-2.4,0.7-2.4,0.3c-3.4-4.1-6.9-8.2-9.6-13
						C1822.3,1931.2,1823,1928.1,1823,1925.3C1822.7,1925.3,1823,1925.3,1823,1925.3z"/>
				</g>
				<g>
					<path class="st3" d="M1863.1,1843.7c-2.7-0.3-5.1,0-6.5-2.7c-1.7-2.7-3.8-5.1-5.1-7.9c-1-2.1-1.4-4.5-1.7-6.9
						c-0.3-1.7-0.7-3.8-0.3-5.5c0.3-3.1,2.4-4.5,5.8-4.5c6.9,0.7,7.2,1,5.8,7.5c-0.7,4.1-1,8.2-1,12
						C1860.4,1838.5,1862.1,1840.9,1863.1,1843.7z"/>
				</g>
				<g>
					<path class="st3" d="M1671.7,1789.8c-3.4,0.3-5.5-1.7-6.9-3.8c-2.4-3.4-4.8-7.2-6.2-11.3c-1-3.1-0.3-6.9,0.3-10.3
						c0.3-1,3.1-1.4,4.8-2.1c0,0,0.3,0,0.7,0c6.9,1,7.2,1,5.5,7.5C1668.3,1776.1,1669.7,1782.6,1671.7,1789.8z"/>
				</g>
				<g>
					<path class="st3" d="M1706.7,1781.6c-0.7,4.5-0.3,8.2,1,12.4c0,0.3-0.3,1.7-0.7,1.7c-0.7,0-1.7,0-2.4-0.7
						c-3.8-3.8-5.5-8.2-6.9-13.4c-1.4-4.8,1-8.6,1.4-13c0-0.3,1.4-1.4,1.7-1c2.7,0.3,5.5,1,8.2,1.7c1.7,0.3,2.1,3.1,0.7,5.1
						C1709.1,1776.8,1708.1,1779.2,1706.7,1781.6z"/>
				</g>
				<g>
					<path class="st3" d="M1729.4,1984.4c-2.1,0.7-4.1,1.7-6.2,2.1c-3.4,0.7-3.4-2.7-3.8-4.5c-1-4.8-2.1-9.6-0.3-14.4
						c0.7-1.7,1.7-3.4,2.7-5.1c0.3-0.3,2.1,0,2.1,0.3c0.7,1.4,1.4,3.1,1,4.5c-0.7,3.4,0.3,6.5,1.7,9.6
						C1728.3,1978.9,1728.7,1981.6,1729.4,1984.4z"/>
				</g>
				<g>
					<path class="st3" d="M1853.9,1934.3c-0.3,0-1-0.3-1.4-0.7c-2.7-3.4-7.2-6.2-7.2-11.3c0-2.4,0.7-4.8,1.4-7.5c0,0,2.1,0,2.4,0.3
						c1,1,1.7,2.1,2.4,3.4c1.7,4.1,5.5,6.5,8.9,8.9c2.1,1.4,1.7,2.4,0,3.4c-2.1,1.4-4.1,2.4-6.2,3.8
						C1854.2,1934.6,1854.2,1934.3,1853.9,1934.3z"/>
				</g>
				<g>
					<path class="st3" d="M1882.3,1677.3c0.7-2.4,0-5.1,2.7-7.2c0.7-0.3,0.7-1.4,0.7-2.1c0.7-3.1,1.4-6.5,2.1-9.6
						c0.3-0.7,0.7-1.7,1.4-2.1c0.7,0,1.7,0.7,2.1,1c2.1,3.1,4.1,6.2,6.2,9.6c0.3,0.7,0.7,1.7,0.3,2.1c-0.3,0.3-1.4,0.7-2.1,0.7
						c-1.7-0.3-2.4,0.3-3.4,1.7c-2.7,2.7-5.8,4.8-8.9,7.2C1883.4,1678.3,1883,1678,1882.3,1677.3z"/>
				</g>
				<g>
					<path class="st3" d="M1875.8,1830c0,2.7,0.3,5.5,0.3,8.2c0,1-0.7,2.1-1,3.1c-1-0.7-2.1-1-2.7-1.7c-3.1-4.5-5.1-9.3-4.1-15.1
						c0.7-2.7,2.1-3.8,4.8-3.1c1,0.3,2.1,0,2.7,0.7c0.7,0.3,1.7,1.7,1.4,2.4c0,1.7-0.7,3.8-1,5.5
						C1876.5,1830,1876.2,1830,1875.8,1830z"/>
				</g>
				<g>
					<path class="st3" d="M1706.4,1967.5c1.4-2.7,2.4-5.1,3.8-7.2c0.3-0.3,1.4-0.7,1.7-0.3c0.3,0.3,1,1,1,1.4
						c0.3,5.5,0.7,11,3.4,16.1c0.3,0.7,0,2.4-0.7,2.7c-3.1,2.4-6.9,0.3-7.5-3.4C1707.4,1973.7,1707.1,1970.3,1706.4,1967.5z"/>
				</g>
				<g>
					<path class="st3" d="M1939.6,1698.9c-0.7,0.7-1,1-1.7,1.4c-2.7,2.1-5.5,4.1-8.6,5.5c-2.7,1.4-5.8,2.1-9.3,0.3
						c-3.1-1.7-7.2-3.1-11.3-1.7c-0.7,0.3-1.4-1-2.4-1.4c1.4-1.4,2.7-2.7,4.1-3.8c1.7-1,3.4-2.1,5.1-3.1c2.7-2.1,5.1-4.8,7.9-5.8
						c2.1-0.7,5.5,0.3,7.9,1.7c2.7,1.4,4.8,3.8,7.2,5.8C1938.9,1697.5,1939.3,1698.2,1939.6,1698.9z"/>
				</g>
				<g>
					<path class="st3" d="M1854.2,1886.9c4.5-0.3,8.9-1.7,13,1.7c-4.5-0.3-8.6-0.3-13-0.7
						C1854.2,1887.6,1854.2,1887.3,1854.2,1886.9z"/>
				</g>
			</g>
			<g>
				<path class="st3" d="M1798.3,1549.7c9.9,4.5,10.6,11,2.4,21.3C1791.1,1566.1,1790.4,1560.7,1798.3,1549.7z"/>
			</g>
		</g>
	</g>
</g>
</svg>
