<svg xmlns="http://www.w3.org/2000/svg" xmlns:xlink="http://www.w3.org/1999/xlink" viewBox="0 0 735 852"><defs><style>.cls-1{fill:#de5a27;}.cls-2{fill:#ba6f38;}.cls-3{fill:none;}.cls-4{isolation:isolate;}.cls-5{clip-path:url(#clip-path);}.cls-6{fill:#54346f;}.cls-7{opacity:0.2;fill:url(#linear-gradient);}.cls-8{clip-path:url(#clip-path-2);}.cls-17,.cls-9{opacity:0.25;}.cls-9{fill:url(#linear-gradient-2);}.cls-10{font-size:25px;font-family:MyriadPro-Regular, Myriad Pro;}.cls-10,.cls-23,.cls-25{fill:#fff;}.cls-11{letter-spacing:0.01em;}.cls-12{letter-spacing:-0.04em;}.cls-13{letter-spacing:-0.02em;}.cls-14{letter-spacing:-0.01em;}.cls-15{letter-spacing:0em;}.cls-16{opacity:0.94;}.cls-17{mix-blend-mode:multiply;}.cls-18{clip-path:url(#clip-path-3);}.cls-19{clip-path:url(#clip-path-4);}.cls-20{clip-path:url(#clip-path-5);}.cls-21{opacity:0.95;}.cls-22{clip-path:url(#clip-path-6);}.cls-24{fill:#42285b;}.cls-25{opacity:0.9;}.cls-26{opacity:0.5;}</style><clipPath id="clip-path"><polygon class="cls-1" points="369.51 7.4 728.21 214.47 728.21 636.62 369.51 845.03 2.79 636.62 2.79 214.47 369.51 7.4"/></clipPath><linearGradient id="linear-gradient" x1="366.89" y1="-78.83" x2="366.89" y2="390.44" gradientUnits="userSpaceOnUse"><stop offset="0" stop-color="#fff" stop-opacity="0.83"/><stop offset="0.56" stop-color="#fff" stop-opacity="0.37"/><stop offset="1" stop-color="#fff" stop-opacity="0"/></linearGradient><clipPath id="clip-path-2"><polygon class="cls-2" points="369.51 937.85 728.21 1144.92 728.21 1567.08 369.51 1775.48 2.79 1567.08 2.79 1144.92 369.51 937.85"/></clipPath><linearGradient id="linear-gradient-2" x1="367.33" y1="809.33" x2="368.63" y2="1272.86" xlink:href="#linear-gradient"/><clipPath id="clip-path-3"><path class="cls-3" d="M-6506.34,3518.55l-338.12,195.22-338.12-195.22V3128.12l338.12-195.22h0l338.12,195.22Z"/></clipPath><clipPath id="clip-path-4"><polygon class="cls-3" points="-7000.53 3302.32 -6692.87 3302.32 -113.95 7483.59 -13579.45 7483.59 -7000.53 3302.32"/></clipPath><clipPath id="clip-path-5"><path class="cls-3" d="M-6507.84,3517.05-6846,3712.27l-338.12-195.22V3126.62L-6846,2931.4h0l338.12,195.22Z"/></clipPath><clipPath id="clip-path-6"><polygon class="cls-3" points="-7002.03 3300.82 -6694.37 3300.82 -115.45 7482.09 -13580.95 7482.09 -7002.03 3300.82"/></clipPath></defs><title>fs</title><g class="cls-4"><g id="Layer_1" data-name="Layer 1"><polygon class="cls-1" points="369.51 7.4 728.21 214.47 728.21 636.62 369.51 845.03 2.79 636.62 2.79 214.47 369.51 7.4"/><g class="cls-5"><circle class="cls-6" cx="365.5" cy="437.45" r="442.13" transform="translate(-202.27 386.57) rotate(-45)"/><path class="cls-7" d="M682.13,155.8c0,129.58-141.13,234.64-315.24,234.64S51.65,285.38,51.65,155.8,192.79-78.83,366.89-78.83,682.13,26.22,682.13,155.8Z"/></g><polygon class="cls-2" points="369.51 937.85 728.21 1144.92 728.21 1567.08 369.51 1775.48 2.79 1567.08 2.79 1144.92 369.51 937.85"/><g class="cls-8"><path class="cls-9" d="M683.21,1037.53c0,129.58-141.14,234.63-315.24,234.63S52.72,1167.11,52.72,1037.53,193.86,802.9,368,802.9,683.21,908,683.21,1037.53Z"/></g><text class="cls-10" transform="matrix(0.86, -0.5, 0.5, 0.86, 369.28, 809.1)"><tspan class="cls-11">ww</tspan><tspan class="cls-12" x="37.4" y="0">w</tspan><tspan x="54.82" y="0">.rstudi</tspan><tspan class="cls-13" x="120.07" y="0">o</tspan><tspan x="133.2" y="0">.</tspan><tspan class="cls-14" x="138.37" y="0">c</tspan><tspan class="cls-15" x="149.42" y="0">om</tspan></text><g class="cls-16"><g class="cls-17"><g class="cls-18"><g class="cls-19"><polyline points="11523.93 19936.02 11523.93 19936.02 -21244.07 -12831.98 -21244.07 -12831.98 11523.93 19936.02"/><polyline points="-21244.07 19936.02 -21244.07 19936.02 11523.93 -12831.98 11523.93 -12831.98 -21244.07 19936.02"/></g></g></g><g class="cls-20"><g class="cls-21"><g class="cls-4"><g class="cls-22"><polyline class="cls-23" points="11522.43 19934.52 11522.43 19934.52 -21245.57 -12833.48 -21245.57 -12833.48 11522.43 19934.52"/><polyline class="cls-23" points="-21245.57 19934.52 -21245.57 19934.52 11522.43 -12833.48 11522.43 -12833.48 -21245.57 19934.52"/></g></g></g></g></g><path class="cls-24" d="M705.61,196.21,427.81,35.82,367.5,1,307.19,35.82,29.37,196.22.09,213.13V637.38l29.28,16.91L310.65,816.68l56.85,32.83,56.85-32.83L705.61,654.3l29.3-16.92V213.13Zm0,425.26L367.49,816.68,29.37,621.47V231L367.49,35.82h0L705.61,231Z"/><path class="cls-25" d="M599.88,300.13H332.16L312.88,263.7a46,46,0,0,0-40.76-24.54H132.82a1.9,1.9,0,0,0-1.89,1.9V608.65a1.9,1.9,0,0,0,1.89,1.9H599.88a1.9,1.9,0,0,0,1.9-1.9V302A1.9,1.9,0,0,0,599.88,300.13Z"/><path class="cls-24" d="M337.75,582.71V442.57H314.9V420.05h22.85v-7.73c0-22.85,5.05-43.68,18.82-56.79,11.09-10.75,25.88-15.12,39.66-15.12a68.59,68.59,0,0,1,25.2,4.7l-4,22.85c-4.37-2-10.42-3.69-18.82-3.69-25.2,0-31.59,22.18-31.59,47.05v8.73h39.32v22.52H367V582.71Z"/><path class="cls-24" d="M393.51,568.86a35.44,35.44,0,0,0,17.84,5.39c9.85,0,14.46-4.93,14.46-11.08,0-6.46-3.84-10-13.84-13.69-13.38-4.76-19.69-12.15-19.69-21.07,0-12,9.69-21.84,25.69-21.84a37.17,37.17,0,0,1,18.3,4.61L432.89,521a29,29,0,0,0-15.23-4.31c-8,0-12.46,4.62-12.46,10.15,0,6.16,4.46,8.92,14.15,12.62,12.92,4.92,19.54,11.38,19.54,22.45,0,13.08-10.16,22.3-27.84,22.3-8.16,0-15.69-2-20.92-5.07Z"/><g class="cls-26"><path class="cls-24" d="M601.78,520.06l.09.23a4.57,4.57,0,0,0-.64-1.31,20.33,20.33,0,0,0-3.56-3.56c-1.22-.85-2.33-1.83-3.49-2.76-1.34-1.06-2.65-2.15-4-3.18a1.07,1.07,0,0,0-.95-.1.93.93,0,0,0-.27.83c.36,1.4.79,2.78,1.17,4.17a2,2,0,0,1-.39,1.75c-.41-1.57-.8-3-1.14-4.35-.24-1-.47-2-.63-3-.11-.67,0-1.36-.11-2-.12-.94-.29-1.87-.49-2.79-.37-1.69-1.56-2.92-2.49-4.28a8.09,8.09,0,0,0-1.88-1.58c-1.07-.81-2.14-1.63-3.25-2.37-.86-.58-1.82-1-2.68-1.59a7.33,7.33,0,0,1-1.33-1.22c-.58-.64-1.1-1.32-1.67-2-.88-1-1.73-2-2.67-2.94-1.16-1.14-2.4-2.19-3.63-3.26a1.39,1.39,0,0,0-.61-.25L564.8,484a6.23,6.23,0,0,0-3.63.36,22.26,22.26,0,0,0-3.5,2c-1.88,1.08-3.68,2.33-5.63,3.23a7.64,7.64,0,0,1-3.39,1,38.49,38.49,0,0,0-4.72.65,10.85,10.85,0,0,1-2.73-.09c-1.47-.22-2.92-.56-4.37-.87A7.86,7.86,0,0,1,536,490l.06-.29,1.59.18.16-.22-1-.76s-.06,0-.08,0c-2.39-.65-4.79-1.28-7.17-2-.35-.1-.62-.56-1-.6a8.2,8.2,0,0,0-2.6.15l1.49,1.09-.11.29a5.27,5.27,0,0,1-1.52-.54c-.73-.54-1.24-1.39-2-1.81a8.86,8.86,0,0,0-2.69-.67c-.08,0-.23.5-.38.75s-.35.49-.53.73a2.49,2.49,0,0,1-.38-.69,3.94,3.94,0,0,0-3.43-2.74,3.28,3.28,0,0,0-1.28.29c-.11.05-.08.48-.07.73a7,7,0,0,0,.13.78l-.27.1c-.17-.23-.35-.46-.5-.71a4.64,4.64,0,0,0-2.16-1.71,7.1,7.1,0,0,0-2.67-.9,31.47,31.47,0,0,0-3.36.08,9.75,9.75,0,0,0-2,.12c-1.36.35-2.66.89-4,1.21-1.59.38-2.69,1.52-4,2.31a8,8,0,0,1-2.53,1,6,6,0,0,0-1.33.73,12.85,12.85,0,0,0-1.2.53c-.24.14-.36.46-.58.65-1,.81-2,1.61-2.92,2.38-.16-.35,1-2.13,1.92-2.86s2-1.62,3.1-2.56a3.76,3.76,0,0,0-1.29-.25c-1.7.29-3.57.25-4.88,1.58-.6.61-1.38,1.06-1.73,2a33.53,33.53,0,0,1-1.93,3.37,23.91,23.91,0,0,0-1.11,2.93,17.09,17.09,0,0,0-1.1,3.38,13.73,13.73,0,0,0-.11,4.34,15.34,15.34,0,0,1,.07,2c.06,1,.11,1.94.25,2.9.18,1.24.21,1.19,1.53,1s2.36-.22,3.54-.26,2.59,0,3.88,0a2.85,2.85,0,0,1,.81.3c-.29.14-.38.23-.47.23a23.84,23.84,0,0,0-4.63,0c-1.41.28-2.9.22-4.26,1a4.93,4.93,0,0,0-1.84,1.26,4.41,4.41,0,0,0-.33,3.35c.19.29.39.56.58.85a2.17,2.17,0,0,0,2.4,1.1c-.09-.66-.17-1.32-.25-1.94a11.82,11.82,0,0,1,1.85-1.26,6.42,6.42,0,0,1,1.92-.38,10.83,10.83,0,0,1,1.71-.08c1.2.06,2.39.23,3.58.27s2.57,0,3.85,0a3.17,3.17,0,0,1,.68.09c3.69.77,7.4,1.47,11.06,2.35a21.05,21.05,0,0,1,3.52,1.55,15.1,15.1,0,0,1,2.36,1c1.25.82,2.83.67,4,1.34,1.94,1.07,4.07,1.23,6.12,1.55,1.1.17,2.36,0,3.38.41,1.49.66,3.1.83,4.57,1.42a20.37,20.37,0,0,1,3.57,2.29c.78.51,1.56,1,2.32,1.56a11,11,0,0,0,2.48,1.71,57,57,0,0,0,5.66,1.23c.12,0,.28-.15.35-.19l1.86,1.2c.1.06.24.09.28.18.71,1.5,2.23,1.26,3.43,1.41a14.81,14.81,0,0,0,3.31-.46,19.74,19.74,0,0,1,2.31-.07c.93,0,2-.22,2.77.19,1.95,1.12,4.14,1.11,6.2,1.64a7.92,7.92,0,0,0,2.38,0,22.11,22.11,0,0,0,2.43-.31c.78-.14,1.55-.39,2.33-.56s1.3-.18,1.93-.34,1.09-.38,1.63-.56a32.35,32.35,0,0,0,3.52-1.19,13.7,13.7,0,0,0,2.77-1.83c.8-.65,1.82-1.34,2.11-2.23.54-1.64,1.31-3.46-.11-5.13,0,0,0-.16,0-.24l.21-.14a10.05,10.05,0,0,1,.94,1.52,5.32,5.32,0,0,1,.42,3.6,11.88,11.88,0,0,1-1.56,2.47c-.58.91-1.19,1.8-1.69,2.75a3.2,3.2,0,0,1-2.45,1.73c-1.24.2-2.48.46-3.73.55-1.4.11-2.8,0-4.2.08a5.76,5.76,0,0,0-.88.24,19.85,19.85,0,0,0-4.48,1c-1.27.61-2.59.43-3.85.77a5.46,5.46,0,0,1-2.25-.39,7.08,7.08,0,0,1-2.57-.6c-1.29-.93-2.78-.9-4.18-1.22a13.38,13.38,0,0,0-2.9,0c1.34.77,1.29,2.09,1.85,3.07.78,1.34.57,2.87,1.15,4.24a11.23,11.23,0,0,1,.38,3c.09.84.23,1.66.32,2.49a5.52,5.52,0,0,1-.09.68c0,.86-.1,1.72-.14,2.58l.24.07c.1-.07.24-.12.3-.21a18.92,18.92,0,0,0,1.29-2.32c.74-1.82,2.31-3,3.33-4.63a5.82,5.82,0,0,1,1.62-1.5c1.45-1,2.92-2,4.44-2.89.67-.4,1.52-.49,2.2-.89a12.29,12.29,0,0,1,3.18-.81c.59-.16,1.2-.21,1.8-.31l.09.26c-.55.21-1.09.43-1.64.61-.71.24-1.45.39-2.13.68-.86.37-1.68.85-2.54,1.26-.41.2-.86.35-1.29.53a.67.67,0,0,0-.15.06c-1,.83-1.92,1.66-2.85,2.51a13,13,0,0,0-1.39,1.39c-1,1.16-1.86,2.35-2.77,3.54-.61.79-1.24,1.57-1.78,2.41s-1,1.81-1.53,2.68a11.06,11.06,0,0,1-1.5,1.84c-.91.91-1.93,1.71-2.83,2.63a2,2,0,0,0-.4,1.18,8.08,8.08,0,0,1-1.8,3.56,20.31,20.31,0,0,1-1.54,1.8,5.51,5.51,0,0,1-.86.88c-1.47,1.11-2.92,2.28-4.48,3.26a37,37,0,0,1-3.81,1.82c-.8.38-1.57.83-2.39,1.17-1,.43-2.13.76-3.18,1.17-1.7.67-3.47,1.24-4.64,2.8a.35.35,0,0,1-.11.13c-1.89,1.36-3.73,2.8-5.7,4a14.69,14.69,0,0,1-3,1c-1.07.37-2.1.83-3.17,1.21-.77.28-1.57.5-2.37.71-1.14.31-2.28.61-3.43.89a10.34,10.34,0,0,1-1.45.21,11.2,11.2,0,0,1-2.31.07c-1.38-.2-2.73-.59-4.11-.82a11,11,0,0,1-4.24-1.83c-.34-.22-.49-.69-.78-1a4.83,4.83,0,0,0-.75-.58,3.75,3.75,0,0,0-.4.77c-.12.52-.42,1.24-.2,1.54a6.84,6.84,0,0,0,1.87,1.48c.59.37,1.25.65,2,1-.91.49-.59,1-.17,1.59a6.58,6.58,0,0,1,.88,1.36c.4,1,1.4,1.29,2.13,1.91a.6.6,0,0,0,.56-.11c.43-.91.91-.42,1.41-.1a2.6,2.6,0,0,0,.81.38c1.56.35,3.12.76,4.7,1a14.44,14.44,0,0,0,2.85-.16c.47,0,.93-.13,1.39-.15.8,0,1.59,0,2.39-.06,1.87-.08,3.86.51,5.47-1a14.12,14.12,0,0,1,1.28-.84,6.33,6.33,0,0,1,2.67-1.12,3.67,3.67,0,0,0,1.58-1c.78-.72,1.79-.49,2.67-.77s1.53-.36,2.29-.59c1.28-.4,2.54-.88,3.83-1.25,2.13-.61,4.34-.92,6.2-2.31a15.73,15.73,0,0,1,2.87-1.24,3.92,3.92,0,0,0,1.24-.92,52.56,52.56,0,0,0-7.64,1.57l-.06-.42c2.72-.8,5.44-1.66,8.19-2.38a30,30,0,0,1,4.13-.61,14.3,14.3,0,0,0,2,0c1.55-.4,2.94.39,4.41.47a16.65,16.65,0,0,0,2.52-.24c.65-.06,1.32,0,2-.14,1.74-.29,3.52.37,5.24-.26.54-.2,1.09-.38,1.62-.62.78-.35,1.54-.77,2.32-1.12.42-.2.89-.31,1.31-.49,1.5-.65,3.06-1.07,4.55-1.76A15.47,15.47,0,0,0,580.3,569a8.75,8.75,0,0,0,2.88-3.5,13.45,13.45,0,0,1,1.28-2.14.7.7,0,0,0,.09-.24c.35-.95.64-1.93,1.05-2.86s.94-1.77,1.41-2.65l0-.08c.4-1.18.86-2.34,1.19-3.54a23.24,23.24,0,0,0,.76-3.69,11.84,11.84,0,0,0-.26-2.49.45.45,0,0,1,0-.16c.06-1.07.15-2.15.19-3.22a9,9,0,0,0-.1-1c0-.19,0-.5,0-.55.67-.37.48-1.11.76-1.63a19.2,19.2,0,0,1,1.43-2.08c.8-1.09,1.93-1.94,2.38-3.3.16-.51.65-1,.7-1.45a4.8,4.8,0,0,0-1.5-4.53,18.79,18.79,0,0,0-3.56-2.48s0-.1,0-.15a8.5,8.5,0,0,0,1.68-.46c.41-.21.68-.69,1-1a25.67,25.67,0,0,1,2-1.66c.6-.44.75-.92.31-1.51-.72-1-1.43-1.93-2.22-2.82a3.49,3.49,0,0,0-1.36-.9,17.55,17.55,0,0,1-5-3.43,5.76,5.76,0,0,1-2.32-3.61,15.23,15.23,0,0,0-.63-2.4c-.06-.19.08-.45.13-.68h.27l.21,1.72a1.47,1.47,0,0,0,.07.48,13.58,13.58,0,0,0,4.08,4.45c.77.59,1.73.94,2.54,1.49,1.52,1,3,2.11,4.47,3.22a4.53,4.53,0,0,1,1,4.74,1,1,0,0,1-.38.32L593,526.45c-1.13.74-1.12,1.6,0,2.31a6.31,6.31,0,0,1,2.73,3.94c.12.45-.16,1-.24,1.5a7.19,7.19,0,0,1-1.39,3c-.93,1.35-2.19,2.41-3.06,3.78a8.67,8.67,0,0,0-1,2.24,4,4,0,0,0,.12,1.44,11.25,11.25,0,0,1,.28,2.49,7.4,7.4,0,0,0,.36,3,18.46,18.46,0,0,1,.36,2c.07.48.16,1,.19,1.44,0,.74,0,1.48.06,2.21,0,1.09.11,2.17.15,3.25a2.56,2.56,0,0,1-.08.67c-.2,1-.46,1.95-.59,2.94s.19,2-.21,2.77c-1.11,2.11-1,4.53-1.86,6.63-.46,1.11-.51,2.36-1.11,3.3-.7,1.1-.81,2.45-1.79,3.48a10.5,10.5,0,0,0-1.52,1.87,1.61,1.61,0,0,1-.5.43c-.93.62-1.84,1.24-2.78,1.84a15,15,0,0,1-4.71,1.76c-1,.22-2,.49-3,.63-.73.11-1.49,0-2.23.08-.9,0-1.79.14-2.69.21-.11,0-.22,0-.33,0-1.51,0-3-.1-4.54,0a22.32,22.32,0,0,0-3.72.58c-.22.05-.54.89-.43,1a3,3,0,0,0,1.36.88,26.72,26.72,0,0,0,4,.84,30.17,30.17,0,0,0,3.68,0c.66,0,1.32,0,2-.1a7,7,0,0,0,.87-.23c1.36-.3,2.72-.62,4.09-.87a16.32,16.32,0,0,1,2-.12c1-.07,2.06-.16,3.1-.2a5.22,5.22,0,0,1,1.09.22,6.19,6.19,0,0,1-3,1.56c-2.61.63-5.21,1.3-7.84,1.87-1.33.29-2.72.34-4,.61a14.59,14.59,0,0,1-5.39-.22,12.79,12.79,0,0,0-3.59.17c-.33,0-.59.57-.9.9a4.41,4.41,0,0,0,3,2.15c.52.14,1.06.21,1.59.34a12.08,12.08,0,0,0,5.57-.32c1.41-.32,2.84-.52,4.27-.77l1.22-.22.14.41-3.41,1.71c-.1,0-.19.13-.29.19l-1.28.71c5.3-.45,10.63-.86,15.75-2.33a18.48,18.48,0,0,0,6.86-3.25,20.64,20.64,0,0,0,5-7.29l0-.06a67,67,0,0,1,.93-7q1.95-10.09,4-20.15c.54-2.68.93-4.59,1.48-7.27C601.78,540,601.78,529.66,601.78,520.06Zm-95-29.59a3.54,3.54,0,0,1-3,1.6,4,4,0,0,1,.68-.49.93.93,0,0,0,.47-1.22,1,1,0,0,0-1.18-.77,17.78,17.78,0,0,0-2.86,1.05,3.06,3.06,0,0,0-1.76,2.5,1.07,1.07,0,0,1-.39.67,3.66,3.66,0,0,1,.45-2.47,3.16,3.16,0,0,0,.43-.69c.46-1.68,2.53-3.7,4.2-3.68,1.06,0,2.4-.08,3.05,1.25A3.11,3.11,0,0,1,506.75,490.47Zm10.46,2.32-.06-.08,1.86-1.14Zm20.2,4.68a1.91,1.91,0,0,1-.33-.37,4.48,4.48,0,0,0-3.15-2.12c-.77-.2-1.56-.36-2.35-.49a.68.68,0,0,0-.57.17c-.09.13,0,.42.07.6a6.16,6.16,0,0,0,.59.94,9.87,9.87,0,0,1,1.48,3.31c.16.58.54,1.11.67,1.69.22,1,.34,2.09.48,3.15.11.83.19,1.67.28,2.5,0,0,0,.06,0,.08-.34,1.74.09,3.56-.62,5.25,0,.07-.09.14-.16.26-.15-.21-.26-.3-.26-.38.07-1.1.2-2.21.22-3.32s-.06-2.18-.11-3.27c0-.65,0-1.31-.12-2,0-.39-.17-.76-.21-1.14a12.65,12.65,0,0,0-2.93-6.86,9.21,9.21,0,0,0-2.35-1.76,10.82,10.82,0,0,0-2.14-.88c-.25-.08-.79,0-.82.1a2.09,2.09,0,0,0,0,1.11c.46,1.45,1,2.87,1.44,4.34a14.75,14.75,0,0,1,.58,3.42,16.51,16.51,0,0,1-.67,5.63c0,.08-.11.14-.13.17s-.23-.09-.23-.11c0-1.08.12-2.15.12-3.22s-.09-2.05-.16-3.07c0-.54-.11-1.08-.19-1.62a11.57,11.57,0,0,0-.51-2.79,17.34,17.34,0,0,0-2.13-3.78,4.19,4.19,0,0,0-2.48-1.71,2.79,2.79,0,0,1-.61-.22,2,2,0,0,0,0-.23,2.3,2.3,0,0,1,.64,0,23.47,23.47,0,0,1,5.08,1.15c2.46,1.13,5.12,1.19,7.62,2,1.3.42,2.52,1.09,3.79,1.63.79.33,1.62.57,2.37,1a23.52,23.52,0,0,1,2.55,1.64c.17.13.19.45.26.7A16,16,0,0,1,541,498a3.28,3.28,0,0,0-2.48-1.09c.08.17.13.31.2.45.74,1.51,1.5,3,2.21,4.53.09.18,0,.46-.06.7a5.87,5.87,0,0,1-1-1.34A10.27,10.27,0,0,0,537.41,497.47Zm3.48,5.21a6.71,6.71,0,0,1,.58,1.13c.31,1,.56,2,.8,2.95,0,.18-.14.4-.28.79-.46-1.57-.85-2.9-1.21-4.24A1.45,1.45,0,0,1,540.89,502.68Zm1.4,12.51c-.22-.32-.34-.4-.33-.48.07-1.15.21-2.3.23-3.45,0-.88-.15-1.76-.2-2.64a2.8,2.8,0,0,1,.09-.7l.34.05C542.55,510.29,543,512.62,542.29,515.19Zm6.84,3.78c0,.18-.15.36-.34.76a16.73,16.73,0,0,1-.3-2c0-.88.08-1.77.08-2.65a8,8,0,0,0-.15-1.54c-.3-1.51-.57-3-1-4.5a33.62,33.62,0,0,0-1.65-4.74,28.7,28.7,0,0,0-2.1-3.3c-.41-.65-.76-1.33-1.13-2a3.11,3.11,0,0,1,1,.64,40.36,40.36,0,0,1,2.28,3.5A18.59,18.59,0,0,1,547,506c.52,1.51,1,3,1.45,4.56.26.94.33,1.94.56,2.89a8.3,8.3,0,0,1,.16,3.61A12.82,12.82,0,0,0,549.13,519Zm2.92-22c2.93-.11,4.91-2.16,7.22-3.52.8-.48,1.54-1.08,2.35-1.54a11.07,11.07,0,0,1,1.63-.65c.09.15.18.31.28.46l-.59.05c0,.26-.07.64.07.75,1.11.9,2.3,1.7,3.4,2.61a16.05,16.05,0,0,1,1.55,1.73l1.19,1.37c-1.23,0-1.64-1.61-2.76-1.32a10.24,10.24,0,0,0,.3,2.4,8.09,8.09,0,0,0,1.26,1.87c.13.19.34.34.39.54.1.38.31,1,.13,1.14a10.64,10.64,0,0,1-2.39,1.9,12.79,12.79,0,0,1-2.31.56,3.54,3.54,0,0,1-2.9-.54,12.3,12.3,0,0,1-3-2.84,22.25,22.25,0,0,0-3.47-3,13.46,13.46,0,0,0-2.41-1.07,3.11,3.11,0,0,1-.63-.53C551.62,497.19,551.83,497,552.05,497Zm18,14.49c-.86.18-1.7.47-2.56.64a15.87,15.87,0,0,1-2,.2,12.17,12.17,0,0,1-4,.12c-.42-.11-1,.22-1.36.05a12.26,12.26,0,0,1-3-1.72,11.34,11.34,0,0,1-2.26-2.89,30.2,30.2,0,0,1-1.36-3.59c-.26-.66-.6-1.29-.84-2-.32-.88-.59-1.77-.86-2.66,0-.1.09-.25.14-.37l.31-.09c.45.94.9,1.87,1.34,2.81.28.63.58,1.25.84,1.88a19.86,19.86,0,0,0,.94,2.44c.6,1,1.37,2,2.07,3,.13.17.3.31.44.48s.24.46.42.53a17.68,17.68,0,0,0,4,1.26,19.74,19.74,0,0,0,4.38-.33,35.34,35.34,0,0,0,3.73-.6,7.52,7.52,0,0,0,1.58-.73l.47-.22A2.72,2.72,0,0,1,570,511.45Zm3.42-3.36c.47-2.47.3-4.8-1.46-6.82C573.92,502.28,574.77,506.21,573.42,508.09Zm9,11.66-1.58-.33.05-.24,1.58.33Zm2.31-15.14c-.22.92,0,2-.88,2.74-.25.21-.27.68-.4,1l-.31-.08a2.72,2.72,0,0,1,.24-1.07,2.89,2.89,0,0,0-.27-4.11,13.27,13.27,0,0,0-1.93-.94c-.52-.27-1-.59-1.52-.89l.09-.25a2.76,2.76,0,0,1,.64.1,6.43,6.43,0,0,0,1.47.67c1.11.14,1.69,1.05,2.52,1.58A1.42,1.42,0,0,1,584.7,504.61Z"/><path class="cls-24" d="M579.72,501a2.76,2.76,0,0,1,.64.1,6.43,6.43,0,0,0,1.47.67c1.11.14,1.69,1.05,2.52,1.58a1.42,1.42,0,0,1,.35,1.22c-.22.92,0,2-.88,2.74-.25.21-.27.68-.4,1l-.31-.08a2.72,2.72,0,0,1,.24-1.07,2.89,2.89,0,0,0-.27-4.11,13.27,13.27,0,0,0-1.93-.94c-.52-.27-1-.59-1.52-.89Z"/><path class="cls-24" d="M519.58,491.19l-2.37,1.6-.06-.08,2.44-1.5Z"/><ellipse class="cls-24" cx="581.62" cy="519.46" rx="0.17" ry="1.14" transform="translate(-45.86 982.49) rotate(-78.19)"/><path class="cls-24" d="M552.91,541.14c-1.6,1.56-3.74,1.81-5.81,2.36.46.38,4.25-.42,6-1.25a34.13,34.13,0,0,0,.21,3.58,8.9,8.9,0,0,1-.1,2.63,1.9,1.9,0,0,1-1.49,1.56,25,25,0,0,1-3.71,1,12.85,12.85,0,0,1-2.24.06,1.24,1.24,0,0,0-.66.12c1.82,1,4.06,0,6,1.21a7.26,7.26,0,0,1-1.32.39c-1.26.09-2.52.08-3.78.16-.84.06-1.67.21-2.51.3a2.71,2.71,0,0,1-.68-.09c-1.73-.36-3.45-.77-5.2-1.07a11.47,11.47,0,0,1-3.37-1.5,37.15,37.15,0,0,1-5.41-4c-1-.75-1.86-1.62-2.8-2.42a7.47,7.47,0,0,0-3.68-2c-.57-.08-1.12-.27-1.68-.33q-1.83-.2-3.66-.3c-.34,0-.69.18-1,.19a2.21,2.21,0,0,1-2.13-1.64,17.27,17.27,0,0,1,2.26-1.73,7,7,0,0,1,2.19-.6c.83-.14,1.68-.21,2.52-.28a2.73,2.73,0,0,1,.75.07,19,19,0,0,1,5.7,2c.77.42,1.64.65,2.44,1,1.08.48,2.13,1,3.19,1.5a2.28,2.28,0,0,0,.58.17c.75.16,1.5.36,2.26.46a27.33,27.33,0,0,0,4.74.49,34.7,34.7,0,0,0,5-.84c.86-.17,1.7-.43,2.55-.66a3.54,3.54,0,0,0,.52-.25c.82-.41,1.63-.85,2.47-1.22C551.6,540,552.48,540.44,552.91,541.14Zm-12.23,9.91,0,.29,3.82.22C543.28,550.59,542,551,540.68,551.05Z"/><path class="cls-24" d="M525.31,570.92c-1.49-.86-1.69-2.17-2.07-3.39a13.66,13.66,0,0,0-.86-2.37,1.07,1.07,0,0,0-1-.28,13.35,13.35,0,0,0-1.87,1.74,4.32,4.32,0,0,0-.54.88c-.07.12-.18.26-.16.37.25,1.22.49,2.45.81,3.65.14.56.49,1.05.64,1.6a1.51,1.51,0,0,1-.16,1c-.05.11-.5.14-.68,0a1.2,1.2,0,0,1-.46-.63c-.35-.92-.65-1.85-1-2.78a18.18,18.18,0,0,0-1-2.52,1.4,1.4,0,0,0-2.33,0,4.15,4.15,0,0,0-.85,2c0,.16-.21.45-.3.44a1.08,1.08,0,0,1-.62-.31c-.37-.42-.51-1.07-1.38-.59-.46.25-.95.29-1.37.77a4.93,4.93,0,0,0-.82,1.89,14.9,14.9,0,0,1-1,1.87,13,13,0,0,1-.19-2.17,1.11,1.11,0,0,0-.92-1.36,2.61,2.61,0,0,1-.5-.11c-.3-.15-.58-.34-.87-.51a4.14,4.14,0,0,1,.9-.78c.79-.36,1.63-.64,2.45-.94l2.25-.82a1,1,0,0,0,.24-.08c2.84-1.73,5.74-3.39,8.49-5.25,1.22-.83,2.06-2.2,3.24-3.12,1.59-1.24,2.46-3.07,3.86-4.45a6,6,0,0,0,.81-1.31c.49-.87,1-1.75,1.47-2.62a1.22,1.22,0,0,1,1.69-.41c.31.22.64.41,1,.6a13,13,0,0,0,2.19,1.26,2.6,2.6,0,0,1,1.49,1.26c.24.41.23.71-.21.91a36.79,36.79,0,0,0-3.37,1.56c-1.22.73-2.32,1.65-3.48,2.49a5.22,5.22,0,0,0-.8.6,2.18,2.18,0,0,0-.28.64c.22.07.47.24.67.19a37.83,37.83,0,0,0,3.66-1,29.12,29.12,0,0,1,3.23-1.26c1.16-.22,2.13-1.08,3.39-.91.19,0,.41-.15.57-.21.6.41,1.17.77,1.72,1.17.24.18.42.43.66.62a7.27,7.27,0,0,0,.86.59c.5.29,1,.56,1.51.84,0,0,.1.11.09.13a8.84,8.84,0,0,1-.89,1.7c-.09.13-.83-.06-1.09-.3a24.21,24.21,0,0,1-1.69-1.94c-.44-.53-.89-1-1.31-1.53-1.78.42-1.85,2-1.79,3.14s0,2.52,1.42,3.09a1.8,1.8,0,0,1-2.68-.12c-.71-1-1.37-2.09-2.06-3.14s-1.72-1-2.58,0a3.07,3.07,0,0,0-.41,3.4c.29.86.63,1.69.92,2.55.13.4,0,.7-.49.63-.81-.13-1.6-.21-2.06-1.11-.82-1.62-1.76-3.18-2.67-4.78a3.53,3.53,0,0,0-2.32,3.59,5.52,5.52,0,0,0,.83,3.31,3.35,3.35,0,0,1,.65,1.58C525.89,570.19,525.5,570.57,525.31,570.92Z"/><path class="cls-24" d="M548.8,486.26a12.17,12.17,0,0,1-.35,1.59,21.4,21.4,0,0,1-.92,2.09c0,.09-.23.14-.36.16a34.79,34.79,0,0,1-3.5.53,3.57,3.57,0,0,1-3.15-1.26,11,11,0,0,1-2.13-4.38c-.14-.62.43-1.1,1-1.41a15,15,0,0,0,3.18-2.08,8.13,8.13,0,0,0,1.77-2.4,5.87,5.87,0,0,0,.34-2,5.59,5.59,0,0,0,0-.82c.35.07.86,0,1,.22,1.09,1.35,2.15,2.73,3.11,4.17a3.84,3.84,0,0,1,.28,1.66,8.64,8.64,0,0,1-.28,3.54C548.84,486,548.82,486.15,548.8,486.26Z"/><path class="cls-24" d="M539,473.34a5.22,5.22,0,0,1-2.25,3.8,2.49,2.49,0,0,1-2.33,0,4,4,0,0,1-1.81-3.1,1,1,0,0,0-.14-.39c-.58-1.07-.57-1.05.47-1.77a5.31,5.31,0,0,0,1.51-2,15.48,15.48,0,0,0,1.25-4c.16-.69.77-.42,1-.23a5.72,5.72,0,0,1,2.35,3.24A8.88,8.88,0,0,1,539,473.34Z"/><path class="cls-24" d="M530.27,458.85c.84.56,1.45.92,2,1.36a10,10,0,0,1,2.81,3.39,3.18,3.18,0,0,1,.15,1.84,8.05,8.05,0,0,1-1.2,3.72c-.36.45-.78.85-1.18,1.27a6.48,6.48,0,0,1-1,1,.87.87,0,0,1-.81.05,6.22,6.22,0,0,1-2.33-4.22,6.46,6.46,0,0,1,.44-2.34c.22-.79.08-1.69.86-2.33.26-.21.22-.85.24-1.3C530.29,460.52,530.27,459.77,530.27,458.85Z"/><path class="cls-24" d="M543.47,477.47c.06,1.44-1,2.47-1.94,3.54-.26.28-.49.59-.75.86a2.46,2.46,0,0,1-3.12.41,3.5,3.5,0,0,1-1.41-1.88,1.57,1.57,0,0,1,.81-1.71,4.36,4.36,0,0,0,1.12-1.55c.35-.65.62-1.34.91-2a18.71,18.71,0,0,0,.81-2,3.27,3.27,0,0,0-.06-1.2c-.07-.46,0-.83.56-.64a8.81,8.81,0,0,1,1.87,1C543.69,473.3,544.14,475.3,543.47,477.47Z"/><path class="cls-24" d="M516.45,527.7a9.3,9.3,0,0,0-.37,1.92,12.24,12.24,0,0,0,.3,3.71c.11.35-.11.8-.18,1.21-.39-.17-.94-.23-1.13-.52a39,39,0,0,1-2.14-3.78,6.36,6.36,0,0,1-.23-1.67c-.09-.66-.22-1.32-.33-2,0-.08-.09-.16-.08-.24.15-1.46.27-2.92.46-4.38a1.92,1.92,0,0,1,1.7-1.12c.92.17,1.85.34,2.76.58a.94.94,0,0,1,.74,1.22,6.32,6.32,0,0,1-.92,2.67c-.47.56-.4,1.57-.57,2.38Z"/><path class="cls-24" d="M509.51,519.36c1.9.4,2.11.48,1.45,2.26a21.6,21.6,0,0,0-1.33,4.74,9.42,9.42,0,0,0,.24,3.8.66.66,0,1,1-.95.76,8.5,8.5,0,0,1-2.88-4.84,7.56,7.56,0,0,1-.17-3.41c.09-.33-.26-.78-.17-1.1a5.84,5.84,0,0,1,.94-2.07c.27-.34,1-.37,1.53-.39A5.35,5.35,0,0,1,509.51,519.36Z"/><path class="cls-24" d="M535.81,541c-1.15-.24-2-.46-2.94-.61-1.41-.23-1.93-1.23-2-2.6a9.56,9.56,0,0,1,.14-2.46c0-.21.22-.54.37-.56a.76.76,0,0,1,.59.35,11.66,11.66,0,0,0,2.84,3.14,3.66,3.66,0,0,0,.77.44,3.91,3.91,0,0,1,.73.24c1.09.76,1.88.47,2.14-.82.35-1.69.38-1.7,1.77-.7.63.44,1.21,1,1.86,1.35s1.16.5,1.73.77c.34.15,1-.08.92.62a1.1,1.1,0,0,1-1.05,1.12c-1.22.21-2.48.13-3.68.24C538.38,541.62,537,541,535.81,541Z"/><path class="cls-24" d="M520.08,525.33c.11-.54.19-.85.24-1.16.09-.69.21-1.34,1.17-1,1.23-.83,1.94.7,3,.68.09,0,.29.32.26.43-.21.62-.48,1.21-.73,1.81a4.83,4.83,0,0,0-.22.64c-.28,1.33-.62,2.67-.81,4a8.45,8.45,0,0,0,.27,1.75,6,6,0,0,1-.13,1.18,8.86,8.86,0,0,1-.9-.53,4.19,4.19,0,0,1-1-1,7.75,7.75,0,0,1-1.12-3.19A8.29,8.29,0,0,1,520.08,525.33Z"/><path class="cls-24" d="M529.89,525.7a5.93,5.93,0,0,1,1.62.9c.21.21.07.85,0,1.27a5.89,5.89,0,0,1-.51,1,9.51,9.51,0,0,0-.92,2.45,30,30,0,0,0,.16,3.9c0,.3,0,.6,0,.89-.35-.09-.87-.07-1-.3a32.06,32.06,0,0,1-2.28-4.09,6.17,6.17,0,0,1-.06-2.28,14.67,14.67,0,0,1,0-2.2,1.74,1.74,0,0,1,2.3-1.54l.67.14Z"/><path class="cls-24" d="M503.11,517a8.85,8.85,0,0,1,1.66,1c.19.18,0,.79-.07,1.17s-.38.59-.49.91a30.43,30.43,0,0,0-1.2,3.8,9.6,9.6,0,0,0,.17,2.24,5.9,5.9,0,0,1-.17,1.17,7.6,7.6,0,0,1-.9-.57c-1.32-1.07-1.52-2.7-1.91-4.18a9.14,9.14,0,0,1,.07-2.85,7.12,7.12,0,0,1,.18-.92C500.84,516.91,501.13,516.72,503.11,517Z"/><path class="cls-24" d="M492.19,524.14c-1,0-1.67-.2-2.07-1.06s-1.05-1.9-1.49-2.89a3.51,3.51,0,0,1-.17-1.35c0-1.16-.31-2.35.22-3.44a1.31,1.31,0,0,1,1-.59,14.49,14.49,0,0,1,2.51.5c.66.18,1,1.26.52,1.65s-.54,1-.7,1.57c0,.16-.06.34-.11.5A7.77,7.77,0,0,0,492.19,524.14Z"/><path class="cls-24" d="M537.1,538c-.85,0-1.57-.07-2-.89-.5-1-1.07-1.94-1.52-3a3.73,3.73,0,0,1-.24-1.5c0-1.09-.34-2.24.2-3.27a1.44,1.44,0,0,1,1.08-.69,11.34,11.34,0,0,1,2.43.47,1.13,1.13,0,0,1,.5,1.78,3,3,0,0,0-.54,1c-.18.66-.22,1.36-.44,2C536.09,535.34,536.69,536.58,537.1,538Z"/><path class="cls-24" d="M527.69,454.64c.58.6,1,1,1.37,1.41a4,4,0,0,1,.7,3.59,8.31,8.31,0,0,1-.33,1.59,22.29,22.29,0,0,1-1.17,2.21c-.29.53-.62,1-.93,1.55H527a17.28,17.28,0,0,1-1.5-3.21,3.42,3.42,0,0,1,.49-2.32c.39-.67,1.11-1.15,1.19-2a.72.72,0,0,1,.24-.43,1,1,0,0,0,.27-1.4C527.58,455.42,527.68,455.12,527.69,454.64Z"/><path class="cls-24" d="M519.2,576c-.48,1.3-1.7,1.19-2.63,1.46s-1-.74-1.25-1.26a9.61,9.61,0,0,1-.66-2.09,3.85,3.85,0,0,1-.11-.95,8,8,0,0,1,.08-2.36,6.76,6.76,0,0,1,1.55-2.31A24.36,24.36,0,0,0,519.2,576Z"/><path class="cls-24" d="M525.37,563.87c.24-.17.84-.77,1-.68a4.87,4.87,0,0,1,1.15,1.35c.5.74,1,1.51,1.45,2.25a3.72,3.72,0,0,0,.48.57c.36.38.7.79,1.09,1.13.61.54.62,1-.09,1.47s-1.24,1.15-2.13.68a4.15,4.15,0,0,1-1.48-1.12,26.08,26.08,0,0,1-1.46-2.71.19.19,0,0,1,0-.08C525.34,565.88,525.35,565,525.37,563.87Z"/><path class="cls-24" d="M508.36,579.3c-.17,1-.63,1.32-1.42,1.21a1.2,1.2,0,0,0-.5,0c-.9.25-1.13.07-1.3-.86-.12-.7-.36-1.37-.47-2.07a6,6,0,0,1-.05-1.69c.14-1,.42-2,.6-3,.11-.65.53-1,1.09-.93a.91.91,0,0,1,.64,1.27c-.31,1.06.3,2,.53,2.94s.63,1.73.92,2.62A1.12,1.12,0,0,1,508.36,579.3Z"/><path class="cls-24" d="M522.36,574a11.06,11.06,0,0,1-1-.85,6.14,6.14,0,0,1-1.53-3.61,11.29,11.29,0,0,1,.68-3.41s.68,0,.76.17c.36.67.59,1.41.93,2.09a16.32,16.32,0,0,0,1.19,2.07c.44.64,1,1.2,1.46,1.81a.54.54,0,0,1,0,.48A4.51,4.51,0,0,1,522.36,574Z"/><path class="cls-24" d="M509.8,573.54c.39-.84.74-1.67,1.19-2.44.12-.2.59-.29.88-.25.14,0,.3.43.33.68.15,1.14.18,2.31.42,3.44a26.25,26.25,0,0,0,.93,2.61,1.09,1.09,0,0,1-.06.66c-.29.9-1.2.69-1.83.93-.25.1-.79-.22-1-.5a3.2,3.2,0,0,1-.74-2.46C509.94,575.35,509.83,574.48,509.8,573.54Z"/><path class="cls-24" d="M531.58,562.2c0-.16,0-.38.11-.49.29-.31.6-.73.95-.78s.69.48.78.82a4.06,4.06,0,0,0,1.52,2.3,18.45,18.45,0,0,1,2,1.9c.4.42.63.9-.13,1.29-.55.29-1,.7-1.58,1-.21.11-.66.18-.75.06a31.87,31.87,0,0,1-2.81-3.75,5.89,5.89,0,0,1-.23-2.34Z"/><path class="cls-24" d="M543.34,538.42c-.83-.12-1.51,0-2-.8s-1.08-1.48-1.47-2.29a7.33,7.33,0,0,1-.49-2,5.53,5.53,0,0,1-.1-1.62,1.36,1.36,0,0,1,1.65-1.26c2,.16,2.06.27,1.72,2.23a15.05,15.05,0,0,0-.26,3.54A7.82,7.82,0,0,0,543.34,538.42Z"/><path class="cls-24" d="M487.52,522.73a2.15,2.15,0,0,1-2-1.12,12.37,12.37,0,0,1-1.78-3.29,6.64,6.64,0,0,1,.08-3c.06-.28.92-.4,1.41-.58,0,0,.11,0,.17,0,2,.27,2.06.29,1.55,2.23C486.49,518.74,486.94,520.59,487.52,522.73Z"/><path class="cls-24" d="M497.72,520.28a7.83,7.83,0,0,0,.27,3.58c.05.15-.09.5-.16.5a.89.89,0,0,1-.67-.15,8.63,8.63,0,0,1-2-3.91c-.38-1.4.31-2.55.42-3.82a.68.68,0,0,1,.55-.33c.82.12,1.63.29,2.43.49.48.12.55.87.21,1.52S498.07,519.57,497.72,520.28Z"/><path class="cls-24" d="M504.28,579.43a12.38,12.38,0,0,1-1.79.56c-1,.17-1-.82-1.08-1.33a5.62,5.62,0,0,1,.76-5.66c.06-.1.6,0,.63,0a2.56,2.56,0,0,1,.3,1.34,3.88,3.88,0,0,0,.54,2.76A11.58,11.58,0,0,1,504.28,579.43Z"/><path class="cls-24" d="M540.62,564.76c-.13,0-.32-.06-.39-.15-.78-1.05-2.08-1.79-2.12-3.26a7.82,7.82,0,0,1,.43-2.15,1.1,1.1,0,0,1,.74.1,3.17,3.17,0,0,1,.67,1,7.31,7.31,0,0,0,2.62,2.62c.56.43.51.66,0,1L540.73,565Z"/><path class="cls-24" d="M548.93,490c.25-.7,0-1.53.76-2.1.15-.12.19-.4.24-.61.21-.95.38-1.9.6-2.84.06-.22.21-.53.37-.57s.47.16.59.34c.64.91,1.24,1.83,1.83,2.77a.75.75,0,0,1,.09.61.64.64,0,0,1-.55.18c-.51-.13-.66.14-1,.48a25.18,25.18,0,0,1-2.59,2.12Z"/><path class="cls-24" d="M547,534.44c0,.82.11,1.63.1,2.44a3.25,3.25,0,0,1-.32.92c-.26-.16-.61-.25-.77-.48a5.38,5.38,0,0,1-1.17-4.41,1.05,1.05,0,0,1,1.39-.95,2.35,2.35,0,0,1,.82.19,1,1,0,0,1,.45.7,9.88,9.88,0,0,1-.3,1.59Z"/><path class="cls-24" d="M497.63,574.48c.4-.83.71-1.5,1.06-2.14a.53.53,0,0,1,.51-.11.54.54,0,0,1,.25.44,10.33,10.33,0,0,0,1,4.73.9.9,0,0,1-.21.82,1.36,1.36,0,0,1-2.21-1C497.92,576.26,497.76,575.31,497.63,574.48Z"/><path class="cls-24" d="M565.6,496.2c-.2.18-.34.31-.49.42a18.1,18.1,0,0,1-2.51,1.61,2.78,2.78,0,0,1-2.73,0,4.3,4.3,0,0,0-3.34-.51c-.17.05-.45-.29-.68-.44a15.47,15.47,0,0,1,1.2-1.1c.46-.35,1-.6,1.46-.93a10.08,10.08,0,0,1,2.35-1.7,3.38,3.38,0,0,1,2.26.47,12.87,12.87,0,0,1,2.14,1.65A2.49,2.49,0,0,1,565.6,496.2Z"/><path class="cls-24" d="M540.68,551.05c1.29-.07,2.6-.46,3.79.51l-3.82-.22Z"/><path class="cls-24" d="M524.4,452.66c2.86,1.26,3.08,3.16.7,6.2C522.28,457.46,522.1,455.89,524.4,452.66Z"/></g></g></g></svg>