<svg id="Layer_1" data-name="Layer 1" xmlns="http://www.w3.org/2000/svg" viewBox="0 0 735 852"><defs><style>.cls-1{fill:#f2f2f2;}.cls-2{fill:#fff;}.cls-3{fill:#e6b35a;}.cls-4{fill:#424242;}.cls-5{fill:#51a7f9;}.cls-6{fill:#a8d6ff;}.cls-7{fill:#0365c0;}.cls-8{fill:#164f86;}.cls-9{fill:#002452;}.cls-10{fill:#000643;}</style></defs><title>ggplot2</title><path class="cls-1" d="M682.22,241.82V358.76h23.39V231l-5-2.88A38.75,38.75,0,0,1,682.22,241.82Z"/><path class="cls-1" d="M630.85,203.32a38.3,38.3,0,0,1,3.22-13.59l-107.4-62v75.76Q578.83,203.42,630.85,203.32Z"/><path class="cls-1" d="M640.46,230.91l-59.52,38a38.67,38.67,0,0,1-54.27,49v40.81l152.05,0V242.86a38.65,38.65,0,0,1-38.26-12Z"/><path class="cls-1" d="M409.71,409.59A38.68,38.68,0,0,1,372,362.21h-2.87V516.58q77,0,154-.06V362.22H447.38a39.09,39.09,0,0,1,1,8.71A38.67,38.67,0,0,1,409.71,409.59Z"/><path class="cls-1" d="M145.6,358.73a38.67,38.67,0,0,1,62.18-45.52V207q-68.35-.06-136.38-.21l-16.71,9.65V358.75Z"/><path class="cls-1" d="M523.17,203.48V125.7l-154-88.92V203.57Q446.18,203.57,523.17,203.48Z"/><path class="cls-1" d="M207.78,128,77.44,203.28q65,.14,130.34.2Z"/><path class="cls-1" d="M365.66,203.57V36.88L211.28,126v77.48Q288.35,203.57,365.66,203.57Z"/><path class="cls-1" d="M409.71,332.25a38.53,38.53,0,0,1,29,13.08l71.38-45.51a38.63,38.63,0,0,1,13.11-47.4V207q-76.95.09-154,.09V302l23.69,34.14A38.55,38.55,0,0,1,409.71,332.25Z"/><path class="cls-1" d="M574.55,258.71,634,220.8a38.62,38.62,0,0,1-3.19-14q-52,.09-104.14.15v43.25a38.66,38.66,0,0,1,47.88,8.49Z"/><path class="cls-1" d="M54.69,362.25v38.38a38.62,38.62,0,0,1,14.16,10.29l73.94-48.69Z"/><path class="cls-1" d="M682.22,516.33l23.39,0v-154H682.22Z"/><path class="cls-1" d="M51.19,218.44,29.37,231V358.76H51.19Z"/><path class="cls-1" d="M286.61,249.26A38.67,38.67,0,1,1,352,277.21l13.68,19.71V207.07h-2.81q-75.86,0-151.57-.08V317.14l78.79-51.89A38.47,38.47,0,0,1,286.61,249.26Z"/><path class="cls-1" d="M383,343l-13.84-20v35.69H373A38.65,38.65,0,0,1,383,343Z"/><path class="cls-1" d="M325.28,287.93a38.57,38.57,0,0,1-28.61-12.65l-80.74,53.16a39.08,39.08,0,0,1,1.35,10.15,38.42,38.42,0,0,1-5.65,20.13h154V318l-23.53-33.9A38.5,38.5,0,0,1,325.28,287.93Z"/><path class="cls-1" d="M178.61,377.26a38.51,38.51,0,0,1-24.05-8.4L75.24,421.08a38.71,38.71,0,0,1-20.55,50.84v44.43q76.37.12,153.09.17V364A38.58,38.58,0,0,1,178.61,377.26Z"/><path class="cls-1" d="M516.59,309.89l-71.45,45.55q.71,1.6,1.26,3.27h76.77v-43A38.85,38.85,0,0,1,516.59,309.89Z"/><path class="cls-1" d="M526.67,520V674.16h87.68L678.72,637V519.84Q602.85,520,526.67,520Z"/><polygon class="cls-1" points="526.67 724.78 608.29 677.66 526.67 677.66 526.67 724.78"/><path class="cls-1" d="M365.66,516.58V362.21H211.28V516.53Q288.4,516.57,365.66,516.58Z"/><polygon class="cls-1" points="369.16 677.66 369.16 815.72 523.17 726.8 523.17 677.66 369.16 677.66"/><polygon class="cls-1" points="211.28 677.66 211.28 726.49 365.66 815.63 365.66 677.66 211.28 677.66"/><path class="cls-1" d="M363.3,520.08q-76.05,0-152-.05V674.16H365.66V520.08Z"/><path class="cls-1" d="M682.22,519.83V635l23.39-13.51V519.8Z"/><path class="cls-1" d="M369.16,674.16h154V520q-76.95.06-154,.06Z"/><path class="cls-1" d="M526.67,362.22v154.3q76.16-.06,152.05-.18V362.26Z"/><path class="cls-1" d="M51.19,473.2a38.81,38.81,0,0,1-21.82.34v42.77l21.82,0Z"/><path class="cls-1" d="M29.37,519.81V621.47l21.82,12.59V519.84Z"/><path class="cls-1" d="M51.19,399.35V362.26H29.37V399a38.7,38.7,0,0,1,21.82.35Z"/><polygon class="cls-1" points="126.7 677.66 207.78 724.47 207.78 677.66 126.7 677.66"/><path class="cls-1" d="M207.78,520q-76.69-.06-153.09-.17V636.08l65.94,38.08h87.15Z"/><path class="cls-2" d="M207.78,313.21a38.82,38.82,0,0,1,3.15,4.16l.35-.23V207q75.68.07,151.57.08h2.81v89.85l3.5,5.05v-94.9q77,0,154-.09v45.44a38.13,38.13,0,0,1,3.5-2.2V207q52.13,0,104.14-.15c0-.5,0-1,0-1.5,0-.67,0-1.34.08-2q-52,.09-104.18.16V127.72l-3.5-2v77.78q-76.95.09-154,.09V36.78l-1.67-1h0l-1.83,1.06V203.57q-77.27,0-154.38-.08V126l-3.5,2v75.45q-65.31-.06-130.34-.2l-6,3.49q68,.14,136.38.21Z"/><path class="cls-2" d="M51.19,399.35c1.19.37,2.36.8,3.5,1.28V362.25l88.1,0,3.55-2.34c-.25-.38-.5-.77-.74-1.16l-90.91,0V216.42l-3.5,2V358.76H29.37v3.5H51.19Z"/><path class="cls-2" d="M705.61,519.8v-3.5l-23.39,0V362.26h23.39v-3.5H682.22V241.82c-1.15.4-2.31.75-3.5,1v115.9l-152.05,0V317.91a38,38,0,0,1-3.5-2.19v43H446.4c.38,1.15.7,2.31,1,3.5h75.79v154.3q-76.95.06-154,.06V362.21H372c.28-1.19.61-2.36,1-3.5h-3.86V323l-3.5-5v40.74h-154a38.89,38.89,0,0,1-3.85,5.25V516.52q-76.69-.06-153.09-.17V471.92c-1.14.48-2.31.91-3.5,1.28v43.14l-21.82,0v3.5l21.82,0V634.06l3.5,2V519.85q76.37.12,153.09.17V674.16H120.63l6.07,3.5h81.08v46.81l3.5,2V677.66H365.66v138l1.83,1,1.67-1V677.66h154V726.8l3.5-2V677.66h81.62l6.06-3.5H526.67V520q76.16-.06,152.05-.18V637l3.5-2V519.83ZM211.28,362.22H365.66V516.58q-77.24,0-154.38-.05Zm0,311.94V520q75.93,0,152,.05h2.36V674.16ZM367,633.9c.23-.29.46-.59.68-.89H368C367.64,633.31,367.32,633.61,367,633.9Zm156.14,40.26h-154V520.08q77,0,154-.06Zm3.5-157.64V362.22l152.05,0V516.34Q602.85,516.46,526.67,516.52Z"/><path class="cls-3" d="M367,633.9c.29-.29.61-.59.94-.89h-.26C367.49,633.31,367.26,633.61,367,633.9Z"/><path class="cls-4" d="M146.34,359.89l-3.55,2.34L68.85,410.92a38.24,38.24,0,0,1,6.39,10.16l79.32-52.22A38.77,38.77,0,0,1,146.34,359.89Z"/><path class="cls-4" d="M445.14,355.44l71.45-45.55a38.55,38.55,0,0,1-6.53-10.07l-71.38,45.51A38.61,38.61,0,0,1,445.14,355.44Z"/><path class="cls-4" d="M580.94,268.87l59.52-38A39,39,0,0,1,634,220.8l-59.45,37.91A38.75,38.75,0,0,1,580.94,268.87Z"/><path class="cls-4" d="M392.85,336.11,369.16,302l-3.5-5.05L352,277.21a38.68,38.68,0,0,1-9.85,6.86L365.66,318l3.5,5L383,343A38.86,38.86,0,0,1,392.85,336.11Z"/><path class="cls-4" d="M215.93,328.44l80.74-53.16a38.83,38.83,0,0,1-6.6-10l-78.79,51.89-.35.23A38.51,38.51,0,0,1,215.93,328.44Z"/><path class="cls-5" d="M215.93,328.44a38.67,38.67,0,1,0-70.33,30.29c.24.39.49.78.74,1.16a38.67,38.67,0,0,0,69.59-31.45Z"/><path class="cls-6" d="M51.19,473.2c1.19-.37,2.36-.8,3.5-1.28a38.71,38.71,0,0,0,20.55-50.84,38.24,38.24,0,0,0-6.39-10.16,38.62,38.62,0,0,0-14.16-10.29c-1.14-.48-2.31-.91-3.5-1.28A38.7,38.7,0,0,0,29.37,399v74.54a38.81,38.81,0,0,0,21.82-.34Z"/><path class="cls-7" d="M364,249.26a38.81,38.81,0,1,0-12,27.95A38.67,38.67,0,0,0,364,249.26Z"/><path class="cls-8" d="M438.68,345.33A38.67,38.67,0,0,0,373,358.71c-.38,1.14-.71,2.31-1,3.5a38.68,38.68,0,1,0,75.35,0c-.28-1.19-.6-2.35-1-3.5s-.79-2.2-1.26-3.27A38.61,38.61,0,0,0,438.68,345.33Z"/><path class="cls-9" d="M584,284.07a38.67,38.67,0,0,0-57.37-33.85,38.13,38.13,0,0,0-3.5,2.2,38.64,38.64,0,0,0,0,63.3,38,38,0,0,0,3.5,2.19A38.66,38.66,0,0,0,584,284.07Z"/><path class="cls-10" d="M630.77,205.32c0,.5,0,1,0,1.5a38.66,38.66,0,0,0,47.91,36c1.19-.29,2.35-.64,3.5-1a38.75,38.75,0,0,0,18.42-13.66l-66.57-38.43a38.3,38.3,0,0,0-3.22,13.59C630.81,204,630.77,204.65,630.77,205.32Z"/><path class="cls-4" d="M705.61,196.21,427.81,35.82,367.5,1,307.19,35.82,29.37,196.22.09,213.13V637.38l29.28,16.91L310.65,816.68l56.85,32.83,56.85-32.83L705.61,654.3l29.3-16.92V213.13ZM682.22,635l-3.5,2-64.37,37.16-6.06,3.5-81.62,47.12-3.5,2-154,88.92-1.67,1-1.83-1L211.28,726.49l-3.5-2L126.7,677.66l-6.07-3.5L54.69,636.08l-3.5-2L29.37,621.47V231l21.82-12.6,3.5-2,16.71-9.65,6-3.49L207.78,128l3.5-2L365.66,36.88l1.83-1.06h0l1.67,1,154,88.92,3.5,2,107.4,62,66.57,38.43,5,2.88V621.47Z"/><path class="cls-4" d="M198.06,512.79c-.32,5.93-.64,12.55-.64,22.55V583c0,18.83-3.52,30.36-11,37.48-7.52,7.47-18.4,9.84-28.16,9.84-9.28,0-19.52-2.37-25.76-6.78L136,612.17a41.76,41.76,0,0,0,22.72,6.45c14.4,0,25-8,25-28.66V580.8h-.32c-4.32,7.63-12.64,13.74-24.64,13.74-19.2,0-33-17.3-33-40,0-27.82,17.12-43.59,34.88-43.59,13.44,0,20.8,7.46,24.16,14.25h.32l.64-12.38ZM183.5,545.18a22.42,22.42,0,0,0-.8-6.78c-2.56-8.65-9.44-15.78-19.68-15.78-13.44,0-23,12-23,31,0,16.11,7.68,29.51,22.88,29.51,8.64,0,16.48-5.76,19.52-15.26a27.45,27.45,0,0,0,1.12-8Z"/><path class="cls-4" d="M282.38,512.79c-.32,5.93-.64,12.55-.64,22.55V583c0,18.83-3.52,30.36-11,37.48-7.52,7.47-18.4,9.84-28.16,9.84-9.28,0-19.52-2.37-25.76-6.78l3.52-11.37A41.76,41.76,0,0,0,243,618.62c14.4,0,25-8,25-28.66V580.8h-.32c-4.32,7.63-12.64,13.74-24.64,13.74-19.2,0-33-17.3-33-40,0-27.82,17.12-43.59,34.88-43.59,13.44,0,20.8,7.46,24.16,14.25h.32l.64-12.38Zm-14.56,32.39a22.42,22.42,0,0,0-.8-6.78c-2.56-8.65-9.44-15.78-19.68-15.78-13.44,0-23,12-23,31,0,16.11,7.68,29.51,22.88,29.51,8.64,0,16.48-5.76,19.52-15.26a27.45,27.45,0,0,0,1.12-8Z"/><path class="cls-4" d="M299,539.58c0-10.51-.33-19-.65-26.79H311l.64,14.07H312c5.76-10,14.87-15.94,27.52-15.94,18.72,0,32.8,16.79,32.8,41.72,0,29.51-17,44.1-35.2,44.1-10.25,0-19.2-4.75-23.84-12.89h-.33v44.61H299Zm13.91,21.88a35.55,35.55,0,0,0,.65,6.11c2.56,10.34,11,17.47,21.12,17.47,14.88,0,23.52-12.89,23.52-31.72,0-16.45-8.16-30.53-23-30.53-9.6,0-18.57,7.3-21.28,18.49a25.57,25.57,0,0,0-1,6.11Z"/><path class="cls-4" d="M384.93,474.46H399V594.87H384.93Z"/><path class="cls-4" d="M487.65,553.15c0,30.36-19.84,43.59-38.56,43.59-21,0-37.12-16.28-37.12-42.23,0-27.48,17-43.59,38.4-43.59C472.61,510.92,487.65,528.05,487.65,553.15Zm-61.44.85c0,18,9.76,31.55,23.52,31.55,13.44,0,23.52-13.4,23.52-31.89,0-13.91-6.56-31.54-23.2-31.54S426.21,538.4,426.21,554Z"/><path class="cls-4" d="M517.25,489.21v23.58h20.16v11.36H517.25v44.27c0,10.17,2.72,15.94,10.56,15.94a29.58,29.58,0,0,0,8.16-1l.64,11.2c-2.72,1.18-7,2-12.48,2-6.56,0-11.84-2.2-15.2-6.28-4-4.41-5.44-11.7-5.44-21.37V524.15h-12V512.79h12V493.11Z"/><path class="cls-4" d="M543.65,594.87v-9.15l11-11.37c26.56-26.79,38.56-41,38.72-57.66,0-11.2-5.12-21.54-20.64-21.54-9.44,0-17.28,5.09-22.08,9.33L546.21,494a44.14,44.14,0,0,1,29.44-11.19c22.4,0,31.84,16.28,31.84,32.05,0,20.35-13.92,36.81-35.84,59.19l-8.32,8.14v.34h46.72v12.38Z"/><path class="cls-4" d="M376.92,790.59l4.47,4.51c1,1,1.9,1.91,2.72,2.87l.06,0c-.37-1.2-.68-2.53-1-3.85l-1.4-6.33,1.6-.93,4.66,4.28c1.12,1,2.06,2,2.92,2.88l.06,0a36.54,36.54,0,0,1-1.17-3.86L388.28,784l1.88-1.1,2.72,12.42-1.73,1-4.51-4c-1-1-1.95-1.82-2.92-2.9l-.05,0a34.08,34.08,0,0,1,1.06,4l1.21,5.94-1.72,1L375,791.72Z"/><path class="cls-4" d="M393.08,781.18l4.47,4.51c1,1,1.89,1.91,2.72,2.87l.06,0c-.38-1.2-.68-2.53-1-3.85l-1.4-6.33,1.6-.93,4.66,4.29c1.12,1,2.06,1.95,2.92,2.87l.06,0a39,39,0,0,1-1.18-3.86l-1.56-6.11,1.88-1.1L409,785.89l-1.73,1-4.51-4c-1-1-1.95-1.82-2.92-2.9l-.05,0a34.08,34.08,0,0,1,1.06,4l1.21,5.95-1.73,1-9.24-8.62Z"/><path class="cls-4" d="M409.24,771.77l4.47,4.51c1,1,1.89,1.91,2.72,2.87l.06,0c-.38-1.2-.68-2.52-1-3.85l-1.4-6.33,1.6-.93,4.66,4.29c1.12,1,2.06,2,2.91,2.87l.07,0a39,39,0,0,1-1.18-3.86l-1.56-6.11,1.88-1.1,2.71,12.42-1.72,1L419,773.43c-1-1-1.95-1.82-2.93-2.9l0,0a34.08,34.08,0,0,1,1.06,4l1.21,5.95-1.73,1-9.24-8.62Z"/><path class="cls-4" d="M428.52,773a1.48,1.48,0,0,1,.5-2.12,1.58,1.58,0,1,1-.5,2.12Z"/><path class="cls-4" d="M429.91,764.1c-.72-1.23-1.35-2.27-2-3.21l1.66-1,1.26,2,.08-.05a3.64,3.64,0,0,1,1.57-4,2.54,2.54,0,0,1,.57-.25l1.05,1.8a3.37,3.37,0,0,0-.69.31,3.08,3.08,0,0,0-1.13,3.92,6.34,6.34,0,0,0,.43.94L436,770.2l-1.88,1.1Z"/><path class="cls-4" d="M439.77,765.39a5.8,5.8,0,0,0,3-.7c1.38-.81,1.63-1.88,1.12-2.74s-1.35-1.09-3.06-.79c-2.27.42-3.76-.1-4.49-1.35-1-1.69-.42-3.86,1.82-5.17a6.2,6.2,0,0,1,2.95-.85l.33,1.66a4.76,4.76,0,0,0-2.49.64,1.78,1.78,0,0,0-.92,2.45c.5.86,1.36.88,3,.61,2.22-.36,3.67,0,4.58,1.56,1.07,1.83.4,4-2.09,5.41a6.89,6.89,0,0,1-3.35,1Z"/><path class="cls-4" d="M444.17,747.41l1.75,3,2.72-1.58.84,1.45-2.72,1.58,3.29,5.64c.75,1.29,1.55,1.82,2.6,1.2a5,5,0,0,0,1-.77l.92,1.37a5.16,5.16,0,0,1-1.54,1.24,3.05,3.05,0,0,1-2.52.4,4.46,4.46,0,0,1-2.31-2.3l-3.32-5.7-1.62.95-.85-1.45,1.62-.94L442.6,749Z"/><path class="cls-4" d="M464,750.09c.63,1.08,1.2,2,1.74,2.8l-1.68,1-1.1-1.64-.05,0a4.52,4.52,0,0,1-2.32,4c-1.64,1-4.13,1.2-6.27-2.48l-3.56-6.11,1.9-1.11L456,752.3c1.15,2,2.54,3,4.27,2a3.07,3.07,0,0,0,1.1-4.26l-3.73-6.41,1.9-1.11Z"/><path class="cls-4" d="M468.87,730.51l7.36,12.64c.54.93,1.18,2,1.66,2.65l-1.71,1L475,745l-.05,0a4.47,4.47,0,0,1-2.36,4.13c-2.53,1.47-5.72.47-7.57-2.71-2-3.46-1.13-6.86,1.42-8.34a4,4,0,0,1,4.08-.24l0,0L467,731.62Zm3.42,10.25a4,4,0,0,0-.55-.75,3.24,3.24,0,0,0-4-.61c-2,1.15-2.12,3.56-.78,5.87,1.24,2.11,3.29,3.26,5.34,2.06a3.3,3.3,0,0,0,1.47-3.89,4.41,4.41,0,0,0-.39-.87Z"/><path class="cls-4" d="M475.28,729.39a1.36,1.36,0,0,1-2.36,1.37,1.34,1.34,0,0,1,.5-1.88A1.3,1.3,0,0,1,475.28,729.39ZM481,744l-6.09-10.45,1.9-1.11,6.09,10.45Z"/><path class="cls-4" d="M492.38,730.25c2.25,3.86.55,7.11-2,8.58-2.83,1.65-6.22.84-8.15-2.46-2-3.5-.94-6.89,1.95-8.57S490.52,727.05,492.38,730.25Zm-8.23,4.93c1.33,2.29,3.65,3.25,5.51,2.17s2.18-3.55.81-5.91c-1-1.77-3.22-3.5-5.47-2.19S483,733.2,484.15,735.18Z"/><path class="cls-4" d="M496.25,733.61a1.48,1.48,0,0,1,.5-2.12,1.57,1.57,0,1,1-.5,2.12Z"/><path class="cls-4" d="M509.05,727.13a8,8,0,0,1-2.65,2.36c-3.15,1.83-6.45.89-8.31-2.31a6.15,6.15,0,0,1,2.38-8.82,7.38,7.38,0,0,1,2.95-1l.43,1.72a5.08,5.08,0,0,0-2.5.78c-2.39,1.4-2.66,3.92-1.39,6.11,1.41,2.42,3.83,3,5.91,1.79a6.25,6.25,0,0,0,2-1.87Z"/><path class="cls-4" d="M517.74,715.48c2.25,3.86.56,7.11-2,8.58-2.83,1.65-6.22.84-8.14-2.46-2-3.5-.95-6.88,1.95-8.57S515.88,712.28,517.74,715.48Zm-8.23,4.94c1.33,2.29,3.66,3.25,5.51,2.16s2.19-3.55.82-5.9c-1-1.78-3.23-3.51-5.48-2.2S508.35,718.43,509.51,720.42Z"/><path class="cls-4" d="M518.8,711.77c-.63-1.08-1.17-1.95-1.74-2.78l1.67-1,1.06,1.64.07,0a4.14,4.14,0,0,1,2.16-3.83,3.57,3.57,0,0,1,4.18.37l0,0a5,5,0,0,1,.38-2A4.14,4.14,0,0,1,528.5,702c1.38-.8,4-1.09,6.08,2.54l3.58,6.15-1.86,1.09-3.44-5.92c-1.17-2-2.61-2.79-4.14-1.9a2.84,2.84,0,0,0-1.24,3,3.46,3.46,0,0,0,.4,1l3.76,6.46-1.86,1.08-3.65-6.26c-1-1.66-2.4-2.45-3.85-1.6A3,3,0,0,0,521,711a3.2,3.2,0,0,0,.39,1l3.67,6.3-1.85,1.08Z"/></svg>