<svg id="Layer_1" data-name="Layer 1" xmlns="http://www.w3.org/2000/svg" xmlns:xlink="http://www.w3.org/1999/xlink" viewBox="0 0 735 852"><defs><style>.cls-1{fill:#dcddde;}.cls-2{fill:#77aab6;}.cls-3{clip-path:url(#clip-path);}.cls-4{fill:#f2f2f2;}.cls-13,.cls-5{fill:none;stroke-miterlimit:10;}.cls-5{stroke:#fff;stroke-width:3.5px;}.cls-6{fill:#000643;}.cls-7{fill:#e6b35a;}.cls-8{font-size:160px;letter-spacing:-0.03em;}.cls-19,.cls-20,.cls-8{fill:#424242;}.cls-20,.cls-8{font-family:MyriadPro-Regular, Myriad Pro;}.cls-9{letter-spacing:-0.04em;}.cls-10{letter-spacing:-0.03em;}.cls-11{clip-path:url(#clip-path-2);}.cls-12{fill:#fff;opacity:0.25;}.cls-13{stroke:#424242;stroke-width:12px;}.cls-14{fill:#51a7f9;}.cls-15{fill:#a8d6ff;}.cls-16{fill:#0365c0;}.cls-17{fill:#164f86;}.cls-18{fill:#002452;}.cls-20{font-size:25px;}.cls-21{letter-spacing:0.01em;}.cls-22{letter-spacing:-0.04em;}.cls-23{letter-spacing:-0.02em;}.cls-24{letter-spacing:-0.01em;}.cls-25{letter-spacing:0em;}</style><clipPath id="clip-path"><polygon class="cls-1" points="369.51 7.4 728.21 214.47 728.21 636.62 369.51 845.03 2.79 636.62 2.79 214.47 369.51 7.4"/></clipPath><clipPath id="clip-path-2"><polygon class="cls-2" points="369.51 961.64 728.21 1168.71 728.21 1590.87 369.51 1799.27 2.79 1590.87 2.79 1168.71 369.51 961.64"/></clipPath></defs><title> </title><polygon class="cls-1" points="369.51 7.4 728.21 214.47 728.21 636.62 369.51 845.03 2.79 636.62 2.79 214.47 369.51 7.4"/><g class="cls-3"><circle class="cls-4" cx="365.5" cy="437.45" r="442.13"/></g><line class="cls-5" x1="680.47" y1="198.11" x2="680.47" y2="656.44"/><line class="cls-5" x1="524.92" y1="106.89" x2="524.92" y2="745.18"/><line class="cls-5" x1="367.41" y1="10.41" x2="367.41" y2="835.44"/><line class="cls-5" x1="209.53" y1="109.89" x2="209.53" y2="745.92"/><line class="cls-5" x1="52.94" y1="200" x2="52.94" y2="650.96"/><path class="cls-5" d="M47,205c210.76.47,420.76.47,632.12,0"/><path class="cls-5" d="M11.17,360.52q350.4-.12,702.08,0"/><path class="cls-5" d="M10.51,518q352.9.62,705.72,0"/><line class="cls-5" x1="105.97" y1="675.91" x2="644.77" y2="675.91"/><path class="cls-6" d="M722,397.6c.41-5.48.75-11,.92-16.45.32-9.92-.35-19.72-.63-29.62-.07-2.56-.1-5.12-.12-7.68H722Z"/><path class="cls-6" d="M722,531.93v27.39c.28-1.72.55-3.44.77-5.17C723.71,546.56,722.92,539.33,722,531.93Z"/><path class="cls-7" d="M367,633.9c.29-.29.6-.59.93-.89h-.26Z"/><text class="cls-8" transform="translate(119.66 594.87) scale(1 1.06)">g<tspan class="cls-9" x="84.32" y="0">g</tspan><tspan class="cls-10" x="167.68" y="0">plot2</tspan></text><polygon class="cls-2" points="369.51 961.64 728.21 1168.71 728.21 1590.87 369.51 1799.27 2.79 1590.87 2.79 1168.71 369.51 961.64"/><g class="cls-11"><ellipse class="cls-12" cx="366.89" cy="1060.05" rx="315.24" ry="234.63"/></g><polyline class="cls-13" points="669.44 205.32 409.71 370.92 325.28 249.26 22.04 448.93"/><circle class="cls-14" cx="178.61" cy="338.59" r="38.67"/><circle class="cls-15" cx="39.67" cy="436.27" r="38.67"/><circle class="cls-16" cx="325.28" cy="249.26" r="38.67"/><circle class="cls-17" cx="409.71" cy="370.92" r="38.67"/><circle class="cls-18" cx="545.37" cy="284.07" r="38.67"/><path class="cls-6" d="M673.59,182.27c-6.11-4.5-13.41-7.87-19.63-12.39a38.67,38.67,0,1,0,54.16,35.43c0-.29,0-.59,0-.88C695.87,198.28,684.6,190.39,673.59,182.27Z"/><path class="cls-19" d="M705.61,196.21,427.81,35.82,367.5,1,307.19,35.82,29.37,196.22.09,213.13V637.38l29.28,16.91,281.28,162.4,56.85,32.82,56.85-32.82L705.61,654.3l29.3-16.92V213.13Zm0,425.26L367.49,816.68,29.37,621.47V231L367.49,35.82h0L705.61,231Z"/><text class="cls-20" transform="matrix(0.86, -0.5, 0.5, 0.86, 380.67, 802.4)"><tspan class="cls-21">ww</tspan><tspan class="cls-22" x="37.4" y="0">w</tspan><tspan x="54.82" y="0">.rstudi</tspan><tspan class="cls-23" x="120.07" y="0">o</tspan><tspan x="133.2" y="0">.</tspan><tspan class="cls-24" x="138.37" y="0">c</tspan><tspan class="cls-25" x="149.42" y="0">om</tspan></text></svg>