<?xml version="1.0" encoding="utf-8"?>
<!-- Generator: Adobe Illustrator 26.5.0, SVG Export Plug-In . SVG Version: 6.00 Build 0)  -->
<svg version="1.1" id="Layer_1" xmlns="http://www.w3.org/2000/svg" xmlns:xlink="http://www.w3.org/1999/xlink" x="0px" y="0px"
	 viewBox="0 0 2521 2911" style="enable-background:new 0 0 2521 2911;" xml:space="preserve">
<style type="text/css">
	.st0{fill:#F2F2F2;}
	.st1{fill:#FFFFFF;}
	.st2{fill:#E6B35A;}
	.st3{fill:#424242;}
	.st4{fill:#51A7F9;}
	.st5{fill:#A8D6FF;}
	.st6{fill:#0365C0;}
	.st7{fill:#164F86;}
	.st8{fill:#002452;}
	.st9{fill:#000643;}
</style>
<g>
	<path class="st0" d="M2340.2,826.2v401.2h80.2V789.1l-17.2-9.9C2387.5,800.9,2365.5,817.2,2340.2,826.2z"/>
	<path class="st0" d="M2164,694.1c0.8-16.1,4.5-31.9,11-46.6l-368.5-212.7v259.9C1925.9,694.5,2045,694.3,2164,694.1z"/>
	<path class="st0" d="M2197,788.8l-204.2,130.4c28.7,67.4-2.7,145.3-70.1,174c-37.5,16-80.4,13.8-116.1-5.9v140h521.6V829.8
		c-48,11.8-98.6-4-131.3-41.2V788.8z"/>
	<path class="st0" d="M1405.3,1401.8c-73.3,0-132.7-59.3-132.8-132.6c0-10.1,1.1-20.1,3.4-29.9h-9.8v529.6
		c176.1,0,352.2-0.1,528.3-0.2v-529.4h-259.9c2.3,9.8,3.4,19.8,3.4,29.9C1538,1342.4,1478.6,1401.8,1405.3,1401.8z"/>
	<path class="st0" d="M499.2,1227.3c-38.1-62.6-18.3-144.2,44.3-182.3c55.2-33.6,126.6-22.6,169,26.1V706.7
		c-156.3-0.1-312.3-0.4-467.9-0.7l-57.3,33.1v488.2L499.2,1227.3z"/>
	<path class="st0" d="M1794.6,694.7V427.8l-528.3-305.1V695C1442.4,695,1618.5,694.9,1794.6,694.7z"/>
	<path class="st0" d="M712.5,435.7L265.4,694c148.7,0.3,297.7,0.5,447.2,0.7V435.7z"/>
	<path class="st0" d="M1254.2,695V123.1L724.5,428.8v265.8C900.8,694.9,1077.4,695,1254.2,695z"/>
	<path class="st0" d="M1405.3,1136.4c38.1-0.1,74.3,16.3,99.5,44.9l244.9-156.1c-25.9-58-7-126.2,45-162.6V706.7
		c-176,0.2-352.1,0.3-528.3,0.3v325.6l81.3,117.1C1365.6,1141,1385.3,1136.5,1405.3,1136.4z"/>
	<path class="st0" d="M1970.8,884.1l204-130.1c-6.6-15.2-10.3-31.5-10.9-48c-118.9,0.2-238,0.4-357.3,0.5v148.4
		C1861.3,824.7,1929.8,836.8,1970.8,884.1L1970.8,884.1z"/>
	<path class="st0" d="M187.3,1239.3V1371c18.7,7.9,35.3,20,48.6,35.3l253.7-167L187.3,1239.3z"/>
	<path class="st0" d="M2340.2,1768h80.2v-528.3h-80.2V1768z"/>
	<path class="st0" d="M175.3,746l-74.9,43.1v438.3h74.9V746z"/>
	<path class="st0" d="M983,851.7c0-73.3,59.4-132.7,132.7-132.7c73.3,0,132.7,59.4,132.7,132.7c0,36.2-14.8,70.9-41,95.9l46.9,67.6
		V707h-9.6c-173.5,0-346.8-0.1-520-0.3v377.9l270.3-178C987.1,889.3,983,870.6,983,851.7z"/>
	<path class="st0" d="M1313.7,1173.3l-47.5-68.6v122.4h13.2C1286.3,1206.7,1298,1188.2,1313.7,1173.3z"/>
	<path class="st0" d="M1115.7,984.4c-37.4,0-73-15.7-98.2-43.4l-277,182.4c3.1,11.4,4.6,23.1,4.6,34.8c0,24.4-6.7,48.3-19.4,69.1
		h528.3v-139.7l-80.7-116.3C1155.4,979.9,1135.6,984.4,1115.7,984.4z"/>
	<path class="st0" d="M612.5,1290.8c-30,0-59.1-10.1-82.5-28.8l-272.1,179.2c28.8,67.5-2.6,145.5-70.1,174.2
		c-0.1,0.1-0.3,0.1-0.4,0.2V1768c174.7,0.3,349.7,0.5,525.2,0.6v-523.3C687.4,1274.3,650.8,1290.9,612.5,1290.8z"/>
	<path class="st0" d="M1772,1059.7L1526.9,1216c1.6,3.7,3.1,7.4,4.3,11.2h263.4v-147.5C1786.3,1073.9,1778.7,1067.2,1772,1059.7z"/>
	<path class="st0" d="M1806.6,1780.5v528.9h300.8l220.8-127.5V1780C2154.7,1780.4,1980.8,1780.5,1806.6,1780.5z"/>
	<polygon class="st0" points="1806.6,2483.1 2086.6,2321.4 1806.6,2321.4 	"/>
	<path class="st0" d="M1254.2,1768.8v-529.6H724.5v529.4C900.9,1768.7,1077.5,1768.8,1254.2,1768.8z"/>
	<polygon class="st0" points="1266.2,2321.4 1266.2,2795.1 1794.6,2490 1794.6,2321.4 	"/>
	<polygon class="st0" points="724.5,2321.4 724.5,2489 1254.2,2794.8 1254.2,2321.4 	"/>
	<path class="st0" d="M1246.1,1780.8c-173.9,0-347.8-0.1-521.5-0.2v528.8h529.6v-528.6H1246.1z"/>
	<path class="st0" d="M2340.2,1780v395.1l80.2-46.3v-348.9L2340.2,1780z"/>
	<path class="st0" d="M1266.2,2309.4h528.3v-528.9c-176,0.1-352.1,0.2-528.3,0.2V2309.4z"/>
	<path class="st0" d="M1806.6,1239.2v529.4c174.2-0.1,348.1-0.3,521.6-0.6v-528.6L1806.6,1239.2z"/>
	<path class="st0" d="M175.3,1620c-24.3,7.5-50.3,7.9-74.9,1.2v146.7h74.9V1620z"/>
	<path class="st0" d="M100.5,1779.9v348.8l74.9,43.2V1780L100.5,1779.9z"/>
	<path class="st0" d="M175.3,1366.6v-127.2h-74.9v126C125,1358.6,151,1359.1,175.3,1366.6z"/>
	<polygon class="st0" points="434.4,2321.4 712.5,2482 712.5,2321.4 	"/>
	<path class="st0" d="M712.5,1780.5c-175.4-0.1-350.5-0.3-525.2-0.6v398.8l226.2,130.6h299V1780.5z"/>
	<path class="st1" d="M712.5,1071.1c3.9,4.5,7.5,9.3,10.8,14.3l1.2-0.8V706.7c173.1,0.2,346.4,0.3,520,0.3h9.6v308.3l12,17.3V707
		c176.1,0,352.2-0.1,528.3-0.3v155.9c3.9-2.7,7.9-5.3,12-7.5V706.7c119.2,0,238.3-0.2,357.3-0.5c0-1.7,0-3.4,0-5.1
		c0-2.3,0-4.6,0.3-6.9c-118.9,0.2-238.1,0.4-357.4,0.5v-260l-12-6.9v266.8c-176,0.2-352.1,0.3-528.3,0.3V122.8l-5.7-3.4l0,0
		l-6.3,3.6v572c-176.7,0-353.3-0.1-529.6-0.3V428.8l-12,6.9v258.8c-149.4-0.1-298.4-0.4-447.2-0.7l-20.6,12
		c155.5,0.3,311.5,0.6,467.9,0.7L712.5,1071.1z"/>
	<path class="st1" d="M175.3,1366.6c4.1,1.3,8.1,2.7,12,4.4v-131.7h302.3l12.2-8c-0.9-1.3-1.7-2.6-2.5-4H187.3V739l-12,6.9v481.5
		h-74.9v12h74.9V1366.6z"/>
	<path class="st1" d="M2420.5,1779.9v-12h-80.2v-528.5h80.2v-12h-80.2V826.2c-3.9,1.4-7.9,2.6-12,3.4v397.6h-521.6v-140
		c-4.1-2.3-8.1-4.8-12-7.5v147.5h-263.4c1.3,3.9,2.4,7.9,3.4,12h260v529.4c-176,0.1-352.1,0.2-528.3,0.2v-529.6h9.6
		c1-4.1,2.1-8.1,3.4-12h-13.2v-122.5l-12-17.2v139.8H725.8c-3.9,6.4-8.3,12.4-13.2,18v523.3c-175.4-0.1-350.5-0.3-525.2-0.6v-152.4
		c-3.9,1.6-7.9,3.1-12,4.4v148h-74.9v12h74.9v391.9l12,6.9V1780c174.7,0.3,349.7,0.5,525.2,0.6v528.8h-299l20.8,12h278.2V2482
		l12,6.9v-167.5h529.6v473.4l6.3,3.4l5.7-3.4v-473.4h528.3V2490l12-6.9v-161.7h280l20.8-12h-300.8v-528.9
		c174.2-0.1,348.1-0.3,521.6-0.6v402l12-6.9V1780L2420.5,1779.9z M724.5,1239.2h529.6v529.6c-176.7,0-353.2-0.1-529.6-0.2V1239.2z
		 M724.5,2309.4v-528.9c173.7,0,347.5,0.1,521.5,0.2h8.1v528.7L724.5,2309.4z M1258.8,2171.3c0.8-1,1.6-2,2.3-3.1h1.1
		C1261,2169.3,1259.9,2170.3,1258.8,2171.3z M1794.5,2309.4h-528.3v-528.6c176.1,0,352.2-0.1,528.3-0.2V2309.4z M1806.5,1768.6
		v-529.4h521.6V1768c-173.5,0.3-347.3,0.5-521.5,0.6H1806.5z"/>
	<path class="st2" d="M1258.8,2171.3c1-1,2.1-2,3.2-3.1h-0.9C1260.5,2169.3,1259.7,2170.3,1258.8,2171.3z"/>
	<path class="st3" d="M501.8,1231.3l-12.2,8l-253.7,167c9.1,10.4,16.5,22.2,21.9,34.9L530,1262
		C519,1253.3,509.5,1242.9,501.8,1231.3z"/>
	<path class="st3" d="M1526.9,1216l245.1-156.3c-9.2-10.3-16.8-21.9-22.4-34.5l-244.9,156.1
		C1513.9,1191.6,1521.3,1203.3,1526.9,1216z"/>
	<path class="st3" d="M1992.8,919L2197,788.6c-9.1-10.3-16.6-22-22.2-34.5l-204,130.1C1979.9,894.5,1987.3,906.3,1992.8,919z"/>
	<path class="st3" d="M1347.5,1149.7l-81.3-117l-12-17.3l-46.9-67.7c-10,9.6-21.4,17.5-33.8,23.5l80.7,116.4l12,17.2l47.5,68.6
		C1323.6,1163.7,1335,1155.7,1347.5,1149.7z"/>
	<path class="st3" d="M740.5,1123.4l277-182.4c-9.3-10.2-16.9-21.8-22.6-34.3l-270.3,178l-1.2,0.8
		C731,1097.1,736.8,1109.9,740.5,1123.4z"/>
	<path class="st4" d="M740.5,1123.4c-19.3-70.7-92.2-112.4-162.9-93.1s-112.4,92.2-93.1,162.9c3.3,12,8.2,23.5,14.7,34.2
		c0.8,1.3,1.7,2.7,2.5,4c40.4,61.2,122.6,78,183.8,37.7C733.4,1237.4,755.5,1178.6,740.5,1123.4z"/>
	<path class="st5" d="M175.3,1620c4.1-1.3,8.1-2.7,12-4.4c67.6-28.5,99.2-106.4,70.7-174c-0.1-0.1-0.1-0.3-0.2-0.4
		c-5.4-12.7-12.8-24.5-21.9-34.9c-13.3-15.3-29.9-27.4-48.6-35.3c-3.9-1.6-7.9-3.1-12-4.4c-24.3-7.6-50.3-8-74.9-1.2v255.7
		C125,1627.9,151,1627.5,175.3,1620z"/>
	<path class="st6" d="M1248.5,851.7c0.2-73.5-59.2-133.3-132.8-133.5s-133.3,59.2-133.5,132.8c-0.2,73.5,59.2,133.3,132.8,133.5
		c34.4,0.1,67.5-13.1,92.4-36.9C1233.6,922.6,1248.4,888,1248.5,851.7z"/>
	<path class="st7" d="M1504.7,1181.3c-48.5-54.9-132.3-60.1-187.3-11.7c-17.5,15.5-30.7,35.3-38.1,57.6c-1.3,3.9-2.4,7.9-3.4,12
		c-16.6,71.4,27.8,142.7,99.2,159.3c71.4,16.6,142.7-27.8,159.3-99.2c4.6-19.8,4.6-40.3,0-60.1c-1-4.1-2.1-8.1-3.4-12
		s-2.7-7.5-4.3-11.2C1521.2,1203.3,1513.8,1191.6,1504.7,1181.3z"/>
	<path class="st8" d="M2003.3,971.1c0-73.3-59.4-132.7-132.7-132.7c-22.4,0-44.5,5.7-64.2,16.5c-4.1,2.3-8.1,4.8-12,7.5
		c-60,42-74.5,124.7-32.5,184.6c8.9,12.7,19.9,23.7,32.5,32.5c3.9,2.7,7.9,5.2,12,7.5c64.1,35.5,144.8,12.2,180.3-51.9
		C1997.6,1015.7,2003.3,993.6,2003.3,971.1z"/>
	<path class="st9" d="M2163.7,701c0,1.7,0,3.4,0,5.1c2.9,73.2,64.6,130.2,137.8,127.3c9-0.4,17.9-1.6,26.6-3.8c4.1-1,8.1-2.2,12-3.4
		c25.3-8.9,47.3-25.2,63.2-46.9l-228.4-131.8c-6.5,14.7-10.3,30.5-11,46.6C2163.9,696.4,2163.7,698.7,2163.7,701z"/>
	<path class="st3" d="M2420.5,669.7l-953.1-550.3L1260.5,0l-206.9,119.5L100.5,669.7L0,727.8v1455.5l100.5,58l965,557.1l195,112.6
		l195-112.6l964.9-557.1l100.5-58V727.8L2420.5,669.7z M2340.2,2175.1l-12,6.9l-220.8,127.5l-20.8,12l-280,161.7l-12,6.9
		L1266.2,2795l-5.7,3.4l-6.3-3.4L724.5,2489l-12-6.9l-278.2-160.7l-20.8-12l-226.2-130.6l-12-6.9l-74.9-43.3V789.1l74.9-43.2l12-6.9
		l57.3-33.1l20.6-12l447.3-258.2l12-6.9l529.6-305.7l6.3-3.6l0,0l5.7,3.4l528.3,305.1l12,6.9L2175,647.5l228.4,131.8l17.2,9.9
		v1339.4L2340.2,2175.1z"/>
	<path class="st3" d="M679.2,1755.8c-1.1,20.3-2.2,43.1-2.2,77.4v163.5c0,64.6-12.1,104.2-37.7,128.6
		c-25.8,25.6-63.1,33.8-96.6,33.8c-31.8,0-67-8.1-88.4-23.3l12-39c23.3,14.7,50.4,22.4,77.9,22.1c49.4,0,85.8-27.4,85.8-98.3v-31.4
		h-1.1c-14.8,26.2-43.4,47.1-84.5,47.1c-65.9,0-113.2-59.4-113.2-137.2c0-95.4,58.7-149.5,119.7-149.5c46.1,0,71.4,25.6,82.9,48.9
		h1.1l2.2-42.5L679.2,1755.8z M629.2,1866.9c0.3-7.8-0.6-15.7-2.7-23.3c-8.8-29.7-32.4-54.1-67.5-54.1c-46.1,0-78.9,41.2-78.9,106.4
		c0,55.3,26.3,101.2,78.5,101.2c29.6,0,56.5-19.8,67-52.4c2.6-8.9,3.9-18.2,3.8-27.4L629.2,1866.9z"/>
	<path class="st3" d="M968.5,1755.8c-1.1,20.3-2.2,43.1-2.2,77.4v163.5c0,64.6-12.1,104.2-37.7,128.6
		c-25.8,25.6-63.1,33.8-96.6,33.8c-31.8,0-67-8.1-88.4-23.3l12.1-39c23.3,14.7,50.2,22.4,77.7,22.1c49.4,0,85.8-27.4,85.8-98.3
		v-31.4H918c-14.8,26.2-43.4,47.1-84.5,47.1c-65.9,0-113.2-59.4-113.2-137.2c0-95.4,58.7-149.5,119.7-149.5
		c46.1,0,71.4,25.6,82.9,48.9h1.1l2.2-42.5L968.5,1755.8z M918.5,1866.9c0.3-7.8-0.6-15.7-2.7-23.3c-8.8-29.7-32.4-54.1-67.5-54.1
		c-46.1,0-78.9,41.2-78.9,106.4c0,55.3,26.3,101.2,78.5,101.2c29.6,0,56.5-19.8,67-52.4c2.6-8.9,3.9-18.2,3.8-27.4L918.5,1866.9z"/>
	<path class="st3" d="M1025.5,1847.7c0-36.1-1.1-65.2-2.2-91.9h43.4l2.2,48.3h1.2c19.8-34.3,51-54.7,94.4-54.7
		c64.2,0,112.5,57.6,112.5,143.1c0,101.2-58.3,151.3-120.8,151.3c-35.2,0-65.9-16.3-81.8-44.2h-1.1v153h-47.9V1847.7z
		 M1073.2,1922.8c0.1,7,0.9,14.1,2.2,21c8.8,35.5,37.7,59.9,72.5,59.9c51,0,80.7-44.2,80.7-108.8c0-56.4-28-104.7-78.9-104.7
		c-32.9,0-63.7,25-73,63.4c-2,6.8-3.1,13.9-3.4,21L1073.2,1922.8z"/>
	<path class="st3" d="M1320.3,1624.3h48.3v413.1h-48.3V1624.3z"/>
	<path class="st3" d="M1672.7,1894.3c0,104.2-68.1,149.5-132.3,149.5c-72,0-127.4-55.9-127.4-144.9c0-94.3,58.3-149.5,131.7-149.5
		C1621.1,1749.4,1672.7,1808.2,1672.7,1894.3z M1461.9,1897.2c0,61.8,33.5,108.2,80.7,108.2c46.1,0,80.7-46,80.7-109.4
		c0-47.7-22.5-108.2-79.6-108.2C1486.6,1787.8,1461.9,1843.7,1461.9,1897.2z"/>
	<path class="st3" d="M1774.3,1674.9v80.9h69.2v39h-69.2v151.9c0,34.9,9.3,54.7,36.2,54.7c9.4,0.2,18.9-1,28-3.4l2.2,38.4
		c-9.3,4-24,6.9-42.8,6.9c-22.5,0-40.6-7.5-52.1-21.5c-13.7-15.1-18.7-40.1-18.7-73.3v-153.6h-41.2v-39h41.2v-67.5L1774.3,1674.9z"
		/>
	<path class="st3" d="M1864.8,2037.4V2006l37.7-39c91.1-91.9,132.3-140.7,132.8-197.8c0-38.4-17.6-73.9-70.8-73.9
		c-32.4,0-59.3,17.5-75.8,32l-15.2-36c27.8-24.8,63.8-38.4,101-38.4c76.8,0,109.2,55.9,109.2,110c0,69.8-47.8,126.3-123,203.1
		l-28.5,27.9v1.2h160.3v42.5L1864.8,2037.4z"/>
</g>
</svg>
