<svg xmlns="http://www.w3.org/2000/svg" xmlns:xlink="http://www.w3.org/1999/xlink" viewBox="0 0 735 852"><defs><style>.cls-1{fill:none;}.cls-2{isolation:isolate;}.cls-3{opacity:0.94;}.cls-14,.cls-4{opacity:0.25;}.cls-16,.cls-17,.cls-22,.cls-4{mix-blend-mode:multiply;}.cls-5{clip-path:url(#clip-path);}.cls-6{clip-path:url(#clip-path-2);}.cls-7{clip-path:url(#clip-path-3);}.cls-8{opacity:0.95;}.cls-9{clip-path:url(#clip-path-4);}.cls-10,.cls-23,.cls-29{fill:#fff;}.cls-11{clip-path:url(#clip-path-5);}.cls-12{fill:url(#linear-gradient);}.cls-13{opacity:0.4;mix-blend-mode:color-burn;font-size:35px;fill:#61474f;font-family:SourceSansPro-Bold, Source Sans Pro;font-weight:700;}.cls-14{fill:url(#linear-gradient-2);}.cls-15{fill:#da5225;}.cls-16{opacity:0.2;}.cls-17,.cls-22{fill:#bbbdbf;}.cls-17{opacity:0.6;}.cls-18{fill:#8c8b78;}.cls-19{fill:#616052;}.cls-20{fill:#eae6ce;}.cls-21{fill:#f05a28;}.cls-22{opacity:0.5;}.cls-23{font-size:25px;font-family:MyriadPro-Regular, Myriad Pro;}.cls-24{letter-spacing:0.01em;}.cls-25{letter-spacing:-0.04em;}.cls-26{letter-spacing:-0.02em;}.cls-27{letter-spacing:-0.01em;}.cls-28{letter-spacing:0em;}.cls-29{font-size:214px;font-family:PuffPaint, Puff Paint;letter-spacing:-0.03em;}</style><clipPath id="clip-path"><path class="cls-1" d="M-7435.82-1388l-338.13,195.22L-8112.07-1388v-390.43l338.12-195.21h0l338.13,195.21Z"/></clipPath><clipPath id="clip-path-2"><polygon class="cls-1" points="-7930.02 -1604.22 -7622.36 -1604.22 -1043.44 2577.05 -14508.94 2577.05 -7930.02 -1604.22"/></clipPath><clipPath id="clip-path-3"><path class="cls-1" d="M-7437.32-1389.5l-338.13,195.22-338.12-195.22v-390.43l338.12-195.21h0l338.13,195.21Z"/></clipPath><clipPath id="clip-path-4"><polygon class="cls-1" points="-7931.52 -1605.72 -7623.86 -1605.72 -1044.94 2575.55 -14510.44 2575.55 -7931.52 -1605.72"/></clipPath><clipPath id="clip-path-5"><path class="cls-1" d="M705.61,196.21,427.81,35.82,367.49,1,307.18,35.82,29.36,196.22.08,213.13V637.38l29.28,16.91L310.64,816.68l56.85,32.83,56.86-32.83L705.61,654.3l29.3-16.92V213.13Z"/></clipPath><linearGradient id="linear-gradient" x1="165.16" y1="175.5" x2="736.39" y2="922.39" gradientTransform="translate(416.37 -130.32) rotate(45)" gradientUnits="userSpaceOnUse"><stop offset="0" stop-color="#fafafa"/><stop offset="0.05" stop-color="#f6f6f6"/><stop offset="0.41" stop-color="#ddd"/><stop offset="0.73" stop-color="#cecece"/><stop offset="1" stop-color="#c9c9c9"/></linearGradient><linearGradient id="linear-gradient-2" x1="367.32" y1="-121.12" x2="368.62" y2="342.4" gradientUnits="userSpaceOnUse"><stop offset="0" stop-color="#fff" stop-opacity="0.83"/><stop offset="0.56" stop-color="#fff" stop-opacity="0.37"/><stop offset="1" stop-color="#fff" stop-opacity="0"/></linearGradient></defs><title>glue</title><g class="cls-2"><g id="Layer_1" data-name="Layer 1"><g class="cls-3"><g class="cls-4"><g class="cls-5"><g class="cls-6"><polyline points="10594.44 15029.48 10594.44 15029.48 -22173.56 -17738.52 -22173.56 -17738.52 10594.44 15029.48"/><polyline points="-22173.56 15029.48 -22173.56 15029.48 10594.44 -17738.52 10594.44 -17738.52 -22173.56 15029.48"/></g></g></g><g class="cls-7"><g class="cls-8"><g class="cls-2"><g class="cls-9"><polyline class="cls-10" points="10592.94 15027.98 10592.94 15027.98 -22175.06 -17740.02 -22175.06 -17740.02 10592.94 15027.98"/><polyline class="cls-10" points="-22175.06 15027.98 -22175.06 15027.98 10592.94 -17740.02 10592.94 -17740.02 -22175.06 15027.98"/></g></g></g></g></g><g class="cls-11"><circle class="cls-12" cx="365.5" cy="437.45" r="442.13" transform="translate(-202.27 386.57) rotate(-45)"/><text class="cls-13" transform="translate(-206.03 26.13)"><tspan xml:space="preserve">{ }  { }  { } { }  { }  { } { }  { }  { } { }  { }  { } { }  { }  { } { }  { }  { } { }  { }  { } { }  { }  { } { }  { </tspan><tspan x="0" y="42" xml:space="preserve">}  { } { }  { }  { } { }  { }  { } { }  { }  { } { }  { }  { } { }  { }  { } { }  { }  { } { }  { }  { } { }  { }  { } </tspan><tspan x="0" y="84" xml:space="preserve">{ }  { }  { } { }  { }  { } { }  { }  { } { }  { }  { } { }  { }  { } { }  { }  { } { }  { }  { } { }  { }  { } { }  { </tspan><tspan x="0" y="126" xml:space="preserve">}  { } { }  { }  { } { }  { }  { } { }  { }  { } { }  { }  { } { }  { }  { } { }  { }  { } { }  { }  { } { }  { }  { } </tspan><tspan x="0" y="168" xml:space="preserve">{ }  { }  { } { }  { }  { } { }  { }  { } { }  { }  { } { }  { }  { } { }  { }  { } { }  { }  { } { }  { }  { } { }  { </tspan><tspan x="0" y="210" xml:space="preserve">}  { } { }  { }  { } { }  { }  { } { }  { }  { } { }  { }  { } { }  { }  { } { }  { }  { } { }  { }  { } { }  { }  { } </tspan><tspan x="0" y="252" xml:space="preserve">{ }  { }  { } { }  { }  { } { }  { }  { } { }  { }  { } { }  { }  { } { }  { }  { } { }  { }  { } { }  { }  { } { }  { </tspan><tspan x="0" y="294" xml:space="preserve">}  { } { }  { }  { } { }  { }  { } { }  { }  { } { }  { }  { } { }  { }  { } { }  { }  { } { }  { }  { } { }  { }  { } </tspan><tspan x="0" y="336" xml:space="preserve">{ }  { }  { } { }  { }  { } { }  { }  { } { }  { }  { } { }  { }  { } { }  { }  { } { }  { }  { } { }  { }  { } { }  { </tspan><tspan x="0" y="378" xml:space="preserve">}  { } { }  { }  { } { }  { }  { } { }  { }  { } { }  { }  { } { }  { }  { } { }  { }  { } { }  { }  { } { }  { }  { } </tspan><tspan x="0" y="420" xml:space="preserve">{ }  { }  { } { }  { }  { } { }  { }  { } { }  { }  { } { }  { }  { } { }  { }  { } { }  { }  { } { }  { }  { } { }  { </tspan><tspan x="0" y="462" xml:space="preserve">}  { } { }  { }  { } { }  { }  { } { }  { }  { } { }  { }  { } { }  { }  { } { }  { }  { } { }  { }  { } { }  { }  { } </tspan><tspan x="0" y="504" xml:space="preserve">{ }  { }  { } { }  { }  { } { }  { }  { } { }  { }  { } { }  { }  { } { }  { }  { } { }  { }  { } { }  { }  { } { }  { </tspan><tspan x="0" y="546" xml:space="preserve">}  { } { }  { }  { } { }  { }  { } { }  { }  { } { }  { }  { } { }  { }  { } { }  { }  { } { }  { }  { } { }  { }  { } </tspan><tspan x="0" y="588" xml:space="preserve">{ }  { }  { } { }  { }  { } { }  { }  { } { }  { }  { } { }  { }  { } { }  { }  { } { }  { }  { } { }  { }  { } { }  { </tspan><tspan x="0" y="630" xml:space="preserve">}  { } { }  { }  { } { }  { }  { } { }  { }  { } { }  { }  { } { }  { }  { } { }  { }  { } { }  { }  { } { }  { }  { } </tspan><tspan x="0" y="672" xml:space="preserve">{ }  { }  { } { }  { }  { } { }  { }  { } { }  { }  { } { }  { }  { } { }  { }  { } { }  { }  { } { }  { }  { } { }  { </tspan><tspan x="0" y="714" xml:space="preserve">}  { } { }  { }  { } { }  { }  { } { }  { }  { } { }  { }  { } { }  { }  { } { }  { }  { } { }  { }  { } { }  { }  { } </tspan><tspan x="0" y="756" xml:space="preserve">{ }  { }  { } { }  { }  { } { }  { }  { } { }  { }  { } { }  { }  { } { }  { }  { } { }  { }  { } { }  { }  { } { }  { </tspan><tspan x="0" y="798" xml:space="preserve">}  { } { }  { }  { } { }  { }  { } { }  { }  { } { }  { }  { } { }  { }  { } { }  { }  { } { }  { }  { } { }  { }  { } </tspan></text><path class="cls-14" d="M683.21,107.07c0,129.59-141.14,234.64-315.25,234.64S52.72,236.66,52.72,107.07,193.86-127.56,368-127.56,683.21-22.51,683.21,107.07Z"/><path class="cls-15" d="M418.2,334.51q.26-9.93.26-20.12c0-112.3-23.48-203.33-52.44-203.33s-52.44,91-52.44,203.33q0,10.19.26,20.12Z"/><g class="cls-16"><path d="M366,111.06c-3.85,0-7,91-7,203.33q0,10.19,0,20.12H373q0-9.93,0-20.12C373,202.09,369.87,111.06,366,111.06Z"/><path d="M343.44,130.83a128.53,128.53,0,0,0-6.91,15.43c-1.85,36.6-3,98.25-3,168.13q0,10.19,0,20.12h13.87q0-9.93,0-20.12C347.41,233.44,345.79,163.54,343.44,130.83Z"/><path d="M320.87,211c-4.63,30.3-7.29,65.65-7.29,103.41q0,10.19.26,20.12h8q0-9.93,0-20.12C321.83,276.63,321.48,241.28,320.87,211Z"/><path d="M411.17,211c-.61,30.3-1,65.65-1,103.41q0,10.19,0,20.12h8q.26-9.93.26-20.12C418.46,276.63,415.8,241.28,411.17,211Z"/><path d="M395.52,146.26a130.08,130.08,0,0,0-6.92-15.43c-2.35,32.71-4,102.61-4,183.56q0,10.19,0,20.12h13.87q0-9.93,0-20.12C398.56,244.51,397.36,182.86,395.52,146.26Z"/></g><path class="cls-17" d="M403.23,171.12c-6.49,42.79-39.91,98.57-89.64,144.53q0,9.54.25,18.86H418.2q.26-9.93.26-20.12C418.46,258.5,412.64,207.88,403.23,171.12Z"/><path class="cls-18" d="M277.07,329.15H455a26.55,26.55,0,0,1,26.55,26.55V395A26.54,26.54,0,0,1,455,421.54H277.08A26.55,26.55,0,0,1,250.53,395v-39.3A26.54,26.54,0,0,1,277.07,329.15Z"/><path class="cls-19" d="M286.82,401.33a7.42,7.42,0,0,1-7.42,7.42h0a7.42,7.42,0,0,1-7.42-7.42V350.6a7.43,7.43,0,0,1,7.42-7.43h0a7.43,7.43,0,0,1,7.42,7.43Z"/><path class="cls-19" d="M321.47,401.33a7.42,7.42,0,0,1-7.42,7.42h0a7.43,7.43,0,0,1-7.43-7.42V350.6a7.43,7.43,0,0,1,7.43-7.43h0a7.43,7.43,0,0,1,7.42,7.43Z"/><path class="cls-19" d="M356.12,401.33a7.43,7.43,0,0,1-7.43,7.42h0a7.42,7.42,0,0,1-7.42-7.42V350.6a7.43,7.43,0,0,1,7.42-7.43h0a7.43,7.43,0,0,1,7.43,7.43Z"/><path class="cls-19" d="M390.77,401.33a7.43,7.43,0,0,1-7.43,7.42h0a7.42,7.42,0,0,1-7.42-7.42V350.6a7.43,7.43,0,0,1,7.42-7.43h0a7.43,7.43,0,0,1,7.43,7.43Z"/><path class="cls-19" d="M425.41,401.33a7.42,7.42,0,0,1-7.42,7.42h0a7.42,7.42,0,0,1-7.42-7.42V350.6a7.43,7.43,0,0,1,7.42-7.43h0a7.43,7.43,0,0,1,7.42,7.43Z"/><path class="cls-19" d="M460.06,401.33a7.42,7.42,0,0,1-7.42,7.42h0a7.43,7.43,0,0,1-7.43-7.42V350.6a7.43,7.43,0,0,1,7.43-7.43h0a7.43,7.43,0,0,1,7.42,7.43Z"/><path class="cls-20" d="M181.66,405H550.38a35.07,35.07,0,0,1,35.07,35.07v591.45a35.08,35.08,0,0,1-35.08,35.08H181.66a35.08,35.08,0,0,1-35.08-35.08V440.13A35.08,35.08,0,0,1,181.66,405Z"/><path class="cls-21" d="M541.13,971.84a28,28,0,0,1-28,28H218.9a28,28,0,0,1-28-28v-472a28,28,0,0,1,28-28H513.14a28,28,0,0,1,28,28Z"/><path class="cls-21" d="M541.13,515.17V499.86a28,28,0,0,0-28-28H218.9a28,28,0,0,0-28,28V749Z"/><path class="cls-22" d="M550.38,405.05h-7.06c16.83,91,1.39,200.9-50,306.1C413.68,874,272.2,975.78,146.59,973.31v58.26a35.08,35.08,0,0,0,35.07,35.08H550.38a35.08,35.08,0,0,0,35.07-35.08V440.13A35.07,35.07,0,0,0,550.38,405.05Z"/><path class="cls-10" d="M389.14,841.05l5.92-6.3,10.13-6.14,5.25-4.35L480,785.17l29.38-15.51,4-3.67,6.18-2.47,8.18-5.1,13.71-7.24,69.9-40.06,5.23-2.76,23.18-13,3.61-2.69,9.11-3.23,2-1L673.64,679l7.86-5.74,2.55.37c10.07-8.16,20.15-16.31,31.06-23.33,14-9.05,28.83-16.71,43.29-25l3.3-9.49-.93-3.49-.28-2.23-2.84-5.65L751,596.11l-5.12-3.65-2.91-.85-1.28-.92-5.8-1.7L731,590.77l-4.57,2.41-1-.28L719.89,595l-1,1.31L716,598.69l-1.64,1.67L711,603.68l-.65.34-2.3,2-1,2.92-2.63,3-2,2.63-4.3,6.25-2,2.63L692.82,630l-1.35,3.89-4.57,2.41-1.33,2.29L683,639.94l-1.33,2.29-6.53,3.44-3.24.13-1.65,1.66-4.91,3.38-1.3.69-10.13,6.14-2.3,2L647,662.09l-13.73,8.84-5.88,3.1-10.13,6.13-1.64,1.67-3.6,2.69-5.23,2.76-4.25,3-1,1.32-3.92,2.07-27.45,16.06-3.94,3.67-8.48,4.48-1,1.32-4.57,2.41-1.62.06L548,723.09l-2.63,3L529,734.68l-4.25,3-42.44,22.39-1,1.32-17.63,9.3-39.85,22.62-14.68,6.94L382.4,814.42l-7.5,3.16-3.24.12-7.18,3.79-3.28,3.33-2.95,2.34L355.54,835l.9,5.09-.34,1,.92,3.49.29,2.23,2.25,1.19,2.23,2.8,3.87,1.14,3.89-.47,2.59.22,13.71-7.23,1-1.32ZM725.46,612.74l-.62-1.25.33-1,2-1,.63,1.26L726.43,613Zm4.48,4-2.25-1.2.36-2.57L732,610.9l1.6,1.54.29,2.23Zm4.48,4-1.94-.56,0-1.61,1.32-2.29,2.28-.4,1.25,2.51-1,1.32Zm-2.66,4.58-.32-.63,0-1.6,1.93.57-.68,1.94Zm-149.07,93-2,1-1.29-.91L571,722.87l-.63-1.26,5.23-2.76,4.25-3,2.28-.41,0,1.6ZM653,672.43l1.94.56-.68,2-6.53,3.45.32.63,1.62-.07.32.63-2,1-4.54.81-12.38,4.94-.32-.63,1.33-2.29Zm-42.41,20.79.95,1.89-3.92,2.06-1-1.88Zm-14.05,8.2,3.92-2.06,1.26,2.51-3.92,2.07Zm-9.18,8-9.14,4.82-.63-1.25,9.14-4.82Zm-17.61,7.7,1.29.91.63,1.26-9.8,5.17-1.66,3.26,0,1.6L553,733.14l-1-.28,3.29-3.33-.31-.62-2.28.4,3-3.95,11.1-5.86Zm-19.7,18.34-3.92,2.07-1-.28,4.57-2.42Zm-2.52-5,1.94.56-.34,1L542,735.8l-1.62.06-3,3.95-5.2,1.16-.63-1.26,12.41-6.55Zm-19,14.79-.65.35-2.91-.86,1-1.31,2.62-1.38,1,.28Zm-10.4,2.31.63,1.26-.07,4.8-3.27,1.72-1-.28,3-2.35-1.28-.91-2.91-.85,1.65-1.67Zm-12.82,12.32,5.23-2.76-.34,1L505,760.86Zm-2.29,2-6.53,3.44-.32-.63,5.88-3.1Zm-15.92,2.84,20.25-10.69,1.26,2.52L506,758l-2.59-.23-4.25,3-14,6.61-1-.29Zm-5.92,6.3-3.91,2.06.36-2.57,4.57-2.41,1.28.91ZM461,780.12l.63,1.25-1.33,2.29-2.9-.85,1.32-2.29Zm-45.05,23.77L428.64,798l4.25-3,4.23-1.44,1.26,2.51-1,2.92-2.95,2.35L431.16,803l-1-.29L428.86,805l-3.9.47-5.22,2.75-1.64,1.67-2.61,1.37-2.28.41-2.63,3L408,816l-3.19-3.09,1-2.91Zm-33.13,27.8-4.54.81-1.28-.91.67-2-2.58-.22-.95-1.89,3.27-1.72,2.9.85,1.28.91,2.61-1.37-1.57-3.15,9.79-5.16,1.94.56-.68,1.95L392,822.06l.63,1.26-2.32,3.6-3.56-.5-1.3.69-1.67,3.26.63,1.26ZM398.44,825l-3.87-1.13.34-1,2.3-2L400.4,824Zm-34,22.72-1.62.06-.63-1.26.34-1,3.24-.12.63,1.26Z"/><path class="cls-10" d="M724.86,670l1.53-2h2.05l.08-.16c1.72-13.83,3.16-27.7,4.06-41.64l-.06-.16V603.44l.52-10.66V566.14l1-37.95V462.26l-2-22v-14l-1.53-59.26,1.53-33.3v-6.66l2.56-42.62V261.83l.2-.45q-.15-10.08-.33-20.15l-1.92.63-2-2.67v-4.66l1.53-2-2-2.66-1,3.33-2.05-2.66h-2.55v-2H729l1.53-2,3.71,1.21c0-.4,0-.81,0-1.21h-.11l.11-.08q-.18-9.61-.35-19.24l-4.36.67-7.16,4.67-2.55,6.66-5.62,7.32-1.53,3.33-7.16,9.32v10l8.69,16.65.51,13.31-1,47.29,1.53,37.95-1.53,23.31v16l.51,5.32v38l-1.53,7.32-.52,19.32.52,16.64v16.65l1,14.65-1,14v26l2,34-1,8.65-1,11.32-2.05,7.33-1,4-2,6.66v4l-.51,2.67v12l3.58,9.33,7.66,8h3.07Zm4.09-25.3-2.05,3.33-1.53-1.33-2-2,3.06-1.33Zm-5.83-133.18-1,3.33,3.06,4-1,2.66h-4.09V508.21l3.07-2v-8h-1.54l-.5,1.33h-1V486.9l1-.66v-1.33l2-8-2-11.31-1.54-2v-3.33l1.54-2v-2.66h2.55l.51,8v16.64l1,4.67-1,2.66-1.54,2.66,2.56,2v5.33l-1,4,2.55,7.33Zm2-222.4-1,16.64-.51,4-.51-6,.51-7.32V289.8h-2.05V273.15h3.58v7.33l-1,6.66ZM723.57,429l-.51,8h-2v-5.32l.51-3.33V421l1.53-4ZM722.3,307.78v.67l-1,1.33v-2Zm.71,23.3v30l-.52,1.33-1.53-2v-2l-1.53-14L721,333.75ZM721.28,377v2.67h-1Zm-1.84,22.64,2-5.32h1.56v15.31l-.51,4-3.1-4Zm4.39-144.49h1.54v3.32h-2l-.52-1.33Zm-6.43-16,4.09-3.33v2l-2,3.33h-2Zm-1.74,6h1.53v3.33l-1,.66-.51-.66Zm1.53,72.58v2h-1v-.66Zm-1.53,166.47h1.53v5.33l-1,.66-.51-.66Zm.57,11.32h1.47l.11,16.65h-1.64l-1-8.66Zm-1.59,43.28h1.53v3.33h-1.53Zm0,18.65,1-1.33v-4l.51-.66,1,2v7.33l-1.53,2.66v-2l-1-.66Zm3.06,13.32v5.32l-1.53,2-.51-3.33v-8.66l1-.66Zm0,78.57-.51.67-1.53-2v-2.67h2Zm-1.53-61.93.06-6,1.47-2,.11,6Zm2.1-58.6-1,4-1.08,4,.06-15.32h2Zm.07-214.41h-1.06l-1-1.34,1-4.65h1.06Zm4.2-54.61v2h-3.07l-1-1.33Zm-2.79,216.42v4l-.51-1.33Zm2.82,79.24v-4l-1-.67,1-4-2.56-2v-4h2l1.53-4,.51,4v16.65l-.51,8.65,1.53,18-1.53,6.66-1.53-4.66-2.56-24.64Zm-.27,46.61v2.67h-1l-.51,2V604.1Zm-2.55,8.66,1-2,.51,2-1.53,2ZM721,647.38h2.56V652l-.51.67-2-.67Z"/><path class="cls-10" d="M23.74,654.59l4.41.95,8.65-1.47,9.06,5.07,12.54,9.38.94,1.32,7.36,6.48L87,690l5.18,2.9,1.59,1.67,35.48,23,5.83,3.26,3.83,3.72,28.48,15.93,16.13,10.59,2.58,1.45,3.54,2.77,20.3,13.72L238.42,785l15.24,7.73,10,6.39,12.95,7.24,9.35,6,3.59,1.22,2.24,2,14.24,8,4.12,4.67,2.3.5.94,1.32,2.59,1.44.94,1.32,1.94,1.09,1.41-2.37,6.48,3.62-1.41,2.37,3.23,1.81,1.35-.82,1.65.13.59,1.91,3.88,2.17,4.95.4,1.23,2.27-.7,1.18,1.29.72.35-.59,3-.69,7.76,4.35,2.3.5,3.24,1.81,1.58,1.67,2.6,1.45,4-.91,1.24,2.26,2.3.5,2.88,2.4-.06,1.54,1.94,1.09,2.36-1.05,1.29.72-.06,1.55,1.3.73,1.7-1.42,2.95.86,3.17,3.35,6.48,3.62,4.29,0,4.24,1.57,2.94.86.94,1.32,2.94.85,2.95.86,4-.92,3.94.63,5.59.76,1.65.13,9.23.44,5.77-3.87,2.47-4.14,1.47-3.91,1.76-3,1.47-3.91-.77-6-.29-1-1.47-4.77-1.94-1.08.59,1.9-1,.23-2.41-6.08-.59-1.91-2.24-2-2.53-3L422,826.13l-7.59-.3-10.65,1.93-6.29.42-2.3-.49-2.3-.49-6.58-.54-6.89-1.48-2.94-.86-4.24-1.58-3.94-.62-6.18-2.68-1.64-.13-3.24-1.81-1.24-2.26L354,814.15l-2.71,1.64L348.05,814l-.36.59,1.3.72-1.65-.13-5.18-2.9.35-.59-1.94-1.08-.7,1.18-2.59-1.45.7-1.18-3.23-1.81-3.36,1.27-4.88-1.94,1.06-1.77,3.88,2.17.7-1.18-12.65-6.29-10.35-5.8-3.59-1.21-4.18-3.13-5.18-2.9L291,785.2l-1.23-2.27-2-1.09-2,.47-1,.22-.59-1.9-5.18-2.9-3.59-1.22-.3-1-15.53-8.69-4.89-1.94-1.88-2.64-4.59-1-10.36-5.79-1.65-.14-3.23-1.8-1.65-.14-13.24-8.19-7.77-4.35-2.88-2.4-3.89-2.17-2.23-2-4.54-2.54L193,728,139.25,698l-3.53-2.76-4.53-2.54-6.71-6.12-7.12-4-7.71-5.89-6.48-3.62-2.88-2.4-23.3-13-7.06-5.53L65.1,648.6l-2.24-2-5.12-4.44-5.06-6-9-6.62-4.76-5-2.72-7L31.37,614l-2.53-3-4.53-2.54-1.65-.14-1,.24L20,608.41l-1.94-1.09-4,.91-3.94-.63-2.71,1.65-.35.58-2.35,1.06-2,.46-.35.59.29.95L-3,622.35l-1.23,6.41-.47,3.69.39,1.73C5.41,640.5,14.61,647.49,23.74,654.59ZM425.55,844.71l.41-2.14,2-.46,1.29.73.59,1.91-1.06,1.77ZM323.28,813.53l-.42,2.14-1,.22-2.6-1.45,1.41-2.36Zm-16.19-9,4.18,3.12,3.89,2.17.23,2.5-2,.46-2.59-1.45-1.88-2.63L306,807.8l-7.41-4.94-.94-1.31-2.65.09L282,794.4l-2.24-2-4.54-2.54L274,787.55l2-.45Zm-44.67-25-.05,1.55-1.71,1.41L240,770.86l-2.18-3.58,1.35-.82Zm104.69,54.62-.35.59-2,.46-1.29-.73,1.06-1.77ZM56.39,651.62l5.83,3.26.94,1.32L67,659.92l0,1.54-8.42-4.71-5.41-5.39-1.41,2.36-6.47-3.62L42,646.75,43.09,645l6.83,3,1.35-.82ZM15.14,623.81l.7-1.18,1-.23-.23-2.5-1.3-.72,1.06-1.78.65.37.58,1.91,1.6,1.67-1.06,1.78,1.59,1.68-.42,2.13-2,.46ZM14,637.35l-1.59-1.67-2.6-1.45.83-4.27.7-1.18,1.3.72.29,1,1.65.14,3.06-2.24,1.23,2.27.54,3.45-2.83,4.73Zm103.51,59.48-.94-1.31-13.24-8.2-2.24-2-7.42-4.94-.59-1.91,2-.46,1.29.73,1.59,1.67,8.71,5.67,4.18,3.12L127,699.77l3.89,2.17,8.3,7.8-9.42-4.48Zm51.79,29,9.06,5.07,2.24,2,23,13.63,7.76,4.35,8.37,6.25-.71,1.18-3.3-.27L204,751.53l-.94-1.31-5.12-4.44-20.07-11.22-3.17-3.36L168.56,727Z"/><path class="cls-10" d="M32,612.62l1.31-.7v-6.24l-4.59-6.24-.65-2.78-.66-2.08-.65-4.16v-2.08l-.65-6.94-.66-3.47-1.31-21.51v-2.08l-.66-9.71-.65-.7-.65-9-.65-.7V522.43l-.66-2.78V502.31l.66-13.88-2-2.77,2-.69V471.09l-1.32-2.78v-52l1.32-16V380.9l.65-6.93.65-7.64.65-2.08.66-9.71,1.31-4.86v-44.4l1.31-2.78V280.31l.65-2.08-.65-3.48V257.41l.65-1.39-.65-2.77-.65-11.8-.66-2.08v-4.85l.66-2.08.65-3.48,2-4.85v-2.78l.7-1c.46-6.34.92-12.77,1.3-19.25l-2.65.81-3.27.7-2.62-1.4,1.3-.69,3.28-1.39h4.09c.08-1.51.14-3,.21-4.55l-1.68,1.78L26.79,195l-3.28-2.08H16.32v-2.08l4.58-2.08h5.24l2.61,1.39v2.77h.66l1.82-1.45c.14-3.68.24-7.37.25-11H17L15,179l-2.62,1.38H3.88l-2,.69-13.74.7-2,.7-2.62.69-2,.69h-3.28L-25.57,186h-.54c.23,2.55.44,5.09.68,7.63h1.17l2.61,1.39-3.55,1.08c.14,1.49.3,3,.45,4.47h5.07v6.25H-22.3l-1.3-1.39-.68-.14c.56,5.59,1.12,11.18,1.74,16.77l2.21,1.41.65,5.54,1.31,12.49,2.62,4.17v4.16l1.31,2.08.65,2.08V256l1.31,2.09v8.32h.66v8.32l1.3,3.48v6.23l.66,3.48v22.2l.65,1.38,1.31,18-2,11.1v49.26h.65v4.16l-.65,2.78v4.86l1.31,1.38-1.31,3.47v4.16l.65,2.08-.65,15.27,2,4.85h-2v1.39l.65.7v36.07l.66,2.08v5.55l-1.31,2.08v8.33l1.31,6.93-1.31,1.39,1.31,28.45v4.16l.65,2.08v10.41l.66,2.08.65,4.16.65,1.39.66,18,.66,6.93-.66,13.19-3.27,9-.66,1.39-.65,1.39-2.62,6.25-1.31,11.09,1.31,6.25v5.55l.66,2.77v.69l1.3,2.78,2,3.47,3.93,5.55L0,647.31H3.88v-1.39h.65v2.77l2.63,2.08,2,.7H15l5.23-2.08,3.27-2.08,3.93-5.55L28.1,639l.65-2.08.66-1.39,1.3-2.08,2-9.71L34,620.94l-.65-2.08ZM20.24,267.12,21.82,265h1v5.55l-1,2.08-1.58-2.08Zm-.65,61.06.65-2.08,1.32,2.77h-2ZM5.53,192.89l1.31-2.77H14v2.08l-1.31.69H8.8v1.39H4.22l-2-.7ZM-1.35,213l3.27-2.08v-.69l-2-2.09-.66-3.46,2.62-2.08H6.5l1.31,2.08-2.62,4.16-.66,2.08v2.77l-1.95,3.47L0,219.25l-1.31-2.08Zm.82,133.21-.66-11.11L-.53,333V312.91l.67-1.39v2.09L1.45,326.1l.65,2.08L1.45,331v8.33L.14,346.91ZM0,404.49v2.08l-1.31-1.39Zm0-156.1L-2,247l1.31-.69L.61,247.7ZM-1.2,435.71v-3.47l.66-1.39.65,1.39v19.42l1.31,4.17v4.85l.65,3.47V469l-.65,2.08L.11,487.74H-2V440.56ZM1.49,551.57l.66.69,2,7.63v9.71h2l1.31,11.11-2,1.38-1.31-3.46-1.31-.7-.65-2.78-.66-9.71L.18,561.28ZM-15.92,195l-3.92-.69,3.92-1.39H-6.1v1.39H-12l-.65.69Zm3.44,19.43h-3.27v-2.08l2-2.08,2.62-1.39,2,.69v2.08Zm2.62,2.77-2-2.77h5.23l1.31,1.38v3.47l-1.31,1.39H-7.9Zm.65,18.73V225.5h2l.65,2.77v7.63Zm3.93,5.55H-6.59l-1.31-2.08L-6.59,238l.65-1.39,1.32-.7h3.27v-1.38l-2.62-.7V225.5l2-2.08H0V229l2.62,2.78L0,235.9l1.3,1.39v4.16L0,242.84H-2l-2.61-2.08ZM10.23,603.6l-2.69.69-2.7,1.39-2,3.47H.13l-.67-.69-.68,2.08-2,1.38-1.35,4.86H-5.94v-3.47l1.35-5.55h2.7l1.35-4.86,2.7-2.77h2l1.35,2.77.67-4.16H8.88l2.7,2.78,4,1.38Zm13.94,0H20.24L17,602.21v-2.08H20.9l2,2.08,2,.69Z"/><path class="cls-10" d="M351.23-32.51c-23.6-11.85-44.77-27.2-65.18-43.63l-1.34,2.5-3.53,3.23L276.91-59l-1.77,1.61-3.89,5.59-1.43,4.36-2.13,4v3.4l-5,9.28-2.15,12.49L264-7.95l6,5.75,7,2.06,10.21-.51,13.4-4.77,11.28-2.5,12-.41,7,2.05,7.72,7.55,1,1.41,3.87,2.92L349.19,12l14.75,9.6L376.24,29l4.56,5L384,36.58l1.4.75,4.22,4,5.26,5.37L438.42,70l3.86,2.92,28.12,15,10.18,8,1.41.76L483,98.1l4.21,4,8.44,4.51,19.69,7.13,1.41.75,12,4.69,26,13.91,6,2.34L598,155.31l1.75,1.79,6.33,3.38,2.47.47L620.47,169l17.57,9.4,1.05,1.41,6.33,3.39,2.46.46,2.46,2.17,7,3.76,6.68,4.42,2.1,1.12,7.38,4.8,2.11,2.83,3.15,2.55,9.83,8.66,3.15,4.25,4.21,4,2.46,3.87,8.42,7.91,6.67,4.43,8.09,3.47,6,.64,9.87-3.25,3.89-3.89,3.19-6,1.42-4.35,1.42-2.65-2.78-10,1.78-3.32,1.75,1.8,1.06-.29.66-2.8c-3.4-1.53-6.7-2.94-9.64-4.32-9.57-4.5-19.31-8.64-29-13l-3.55,1.32-5.62-3-1.76-.09-1.06-1.42L688.75,180l-5.62-3-1.42,1-2.81-1.51-.34-2.74-9.14-4.89-3.16-2.54-6-2.34-1.76-1.8-4.21-2.25-.35-1-2.82-1.5-10.89-6.68-7.73-4.14-5.27-3.67-1.06,2-2.11-1.13V142l-3.15-2.54-5.28-3.67-1.39-2.46.34,2.74-2.11-1.12-6.67-6.13-2.11-1.13-1.05-1.41-5.62-3-7-5.46L588.27,116l-8.43-4.51L576,108.57l-12.65-6.77-11.24-7.72-1.41-.75-3.15-2.54-.35-2.74-4.21-4,0-4.29c-18.38-9.87-36.58-20-54.4-30.7L485,50.52l-6-.64-4.91-2.63L464.58,43l-7.38-4.8L437.52,27.7,433,24.41l-3.52-1.88-6.67-4.43L420,16.6l-6.32-5.09L405.2,7l-.7-2.08L392.56-1.46,389.39-4l-2.81-1.5-1-1.42L382-8.81l-1-1.41-4.22-2.26-1.4-2.46L373.59-15l-1-1.42-2.45-3.86-4.22-2.26-.7-2.08L360.26-29v-.49A33.18,33.18,0,0,1,351.23-32.51ZM367.57-5.45l3.51,1.88,1.75,1.79.71.38,3.51,3.58,5.62,3,1.05,1.42,7.73,4.13,2.46,2.18,3.51,1.87.69,5.48-1.06.29-2.11-1.13-2.8-3.2-2.82-1.51-.34-1-2.11-1.12L383.36,9l-2.82.19L378.09,7,367.2-1.38l-2.46-2.17-2.8-3.2.71-1.33L364.75-7l1.05,1.42Zm91,56.34,3.88,1.22.34,1-1.41,1ZM444.5,45.07l-2.81-1.5.71-1.32,1.4.75ZM441,41.5l-3.51-1.89-.35-1,4.57,1.6Zm-5.26-3.68L434,37.74l-1.75-1.8,2.82-.19,1.05,1.41Zm-32-17.95L405.85,21l-1.06,2-4.92-2.63,1.06-2V16.66Zm21.1,7.87-1-1.41,7,3.76-.35.66L428,30.29l-1.77-.09ZM352.78-6.54,350-8l.35-.66,1.77-1.62.36-.66,3.16.84,1.76.09,2.1,4.53-2.12.58Zm-21.46-7.21.71-1.33,2.81,1.51,5.64-.4,1.42-2.65-1-1.41,1.06-.29,3.51,1.88v1.7l-2.13,4-3.53-.18-3.52-.17Zm36.88,27.4-2.11-2.83-3.5-3.58-2.8-4.91L358.74.92l.35-.67,14.06,7.52,12,8.09,1,1.42,3.17,2.54,3.5,5.28L385.07,21l-1.75-1.79-5.27-3.67-1.75-1.79-4.57-3.3L370,8.63l-3.52-1.88.35,1L370,10.33l1.74,5.2ZM432.14,53l1.07-.29,4.21,2.25-.36.67-2.81.2ZM689.36,205.88v-1.7l2.82,1.5.34,1-.35.66Zm37.6,21-.71,1.32-1.41,1L722.73,228l-1.05-1.41,3.88-.49Zm-25-15.91-.35.67-1.41.95-1.41-.75-3.15-4.25,1.06-.29ZM682.7,196.35l-3.17.86-4.21-4,1.76.09Zm49.59,18.84-.36.67-1.41.95-2.11-1.13,1.06-2ZM585,135.59l9.48,5.92,2.46,2.17,9.84,5.26,12.65,8.47,17.57,9.4,16.52,9.69,7.73,4.13,1.05,1.41,10.54,7.35,2.8,3.2-3.52-.18-4.91-4.33-6.33-3.38-3.16-.84-2.81-3.21-2.11-1.13v-1.7l-4.23-.55-25-14.2-3.51-1.88-1.75-1.79-5.63-3-5.27-3.67-19.68-10.53-4.92-4.33-1.76-.09-13.35-7.14.35-.66,5.28,2,.35-.66-11.95-6.39,13.72,4.78,2.11,2.83,2.81,1.5,1.39,2.45ZM552.34,119l5.27,3.68-.7-.38-5.28-2-3.87-1.22-4.56-3.29-7.73-4.14.7-1.32,9.84,5.26,2.82-.2ZM466.58,73.09l-1.06.29-11.24-6-1.4-4.16-5.62-3-2.12.57-.69-2.08-3.17-.84-.34-1-2.46-2.16-1.4-2.46-3.52-1.88-4.92-.92-10.19-6.31-4.58.11-2.81-1.5.7-1.33,3.17.84.36-.66L410,36.87l-1-1.42-4.22-2.25,3.87,1.22,19,10.15,1.75,1.79,3.17.84,13.7,8.18L462.39,64l-1.07,2-1.76-.08-1.75-.09-2.47-.47,2.81,1.51,2.12-.58,1.39,4.16,2.82-.2Zm-2.78-8.31,3.51,1.88,1.05,1.41-.71,1.33-2.11.57L462,68.09ZM737.93,213.09l-1.07,2-1.4-.75,1.06-2,1.06-.28ZM517.28,76.33l-.71,1.32-2.11-1.13,3.16,4.25,1,3.12-3.52,1.52L513,87.69l-2.8-3.21-.71,1.33L510.89,90l-1.42,2.66-2.81-1.5-2.8-3.21-1.4-2.46.7-1.32,3.54-1.53-1-6.52,1.07-2,2.81,1.5,2.82-.19,1.76.08,1.41-1ZM398.14,11.75l-1.05-1.41.35-.66,2.47.46.69,2.07Zm66.43,34.68.71-1.33,5.62,3-.36.66-1.05.29Zm11.6,3.65-.7,1.33-2.11-1.13.71-1.33ZM385.85.92l-.7,1.32L381.63.37l-.7-2.08-1.05-1.42,1.06-.28ZM374.61-6.8l-.71,1.33-4.21-2.26-12.31-5.72L354.22-16l.36-.66,1.06-.29,1.05,1.42,3.51,1.87,1.76,1.8,1.76-1.62,5.63,3,3.52.18Zm15.48,4.87-.71,1.32-2.81-1.5.71-1.33Z"/><rect class="cls-10" x="533.14" y="112.33" width="0.75" height="0.8" transform="translate(182.5 530.02) rotate(-61.86)"/><rect class="cls-10" x="545.1" y="117.92" width="0.75" height="2.39" transform="translate(183.18 543.94) rotate(-61.86)"/><rect class="cls-10" x="526.13" y="105.17" width="0.75" height="0.8" transform="translate(185.11 520.05) rotate(-61.86)"/><polygon class="cls-10" points="648.31 162.61 648.67 161.95 647.26 161.19 646.91 161.86 646.56 162.52 648.31 162.61"/><path class="cls-10" d="M654.29,166.66l.35-.66Z"/><rect class="cls-10" x="448.32" y="45.87" width="1.5" height="1.59" transform="translate(196.13 420.66) rotate(-61.86)"/><rect class="cls-10" x="559.93" y="106.19" width="0.75" height="0.8" transform="translate(202.07 550.4) rotate(-61.86)"/><polygon class="cls-10" points="418.85 28.8 417.8 27.39 416.75 27.67 418.85 28.8"/><rect class="cls-10" x="468.92" y="52" width="0.75" height="1.6" transform="translate(201.42 441.73) rotate(-61.86)"/><rect class="cls-10" x="444.32" y="38.39" width="0.75" height="0.8" transform="translate(200.77 412.63) rotate(-61.86)"/><polygon class="cls-10" points="457.53 46.07 456.82 45.7 459.63 47.2 457.53 46.07"/><polygon class="cls-10" points="406.93 15.6 407.28 14.94 405.18 13.81 405.52 14.85 406.93 15.6"/><polygon class="cls-10" points="461.41 43.89 459.3 42.76 461.06 44.55 461.41 43.89"/><rect class="cls-10" x="517.96" y="69.47" width="1.5" height="1.59" transform="translate(212.12 494.53) rotate(-61.86)"/><rect class="cls-10" x="405.34" y="7.82" width="0.75" height="3.19" transform="translate(206.08 362.74) rotate(-61.86)"/><rect class="cls-10" x="410.62" y="11.83" width="0.75" height="0.8" transform="translate(206.38 368.88) rotate(-61.86)"/><polygon class="cls-10" points="518.73 66.86 518.02 66.49 517.67 67.15 518.73 66.86"/><path class="cls-10" d="M48.22,179.7,14.05,197.76,9.46,199l-6,2.7-2.88.23L-.86,202l-2.89.23-2.58.75-1.4,1.51-3.41,1.95-3.33,4.74,0,1.4,1.18.75-.26.85-.87-.21-1,3.44-3.37,3.35-1.36,2.9-2.54,2.16-.52,1.72-.18,3.66-.22,2.26.74,5.26,4.59,8.05,4.41,2.46,6.17,2.88L-2.5,252l2.31.1,2.89-.22L9,249.7l4.55-2.6,4.77-4.85,3.37-3.34-.31-.54,2.85-1.62L27.55,232l1.05-3.45,1.71-1,.78-2.58,6.53-4.43,4.19-4.52,5.38-3.78,1.41-1.51,12.51-7.14,3.72-1.41,25.58-14.59,5.43-2.38,2.8-3,1.44-.11,8.27-4,1.4-1.52,10.81-6.16,5.73-1.84,16.49-9.4,4.24-3.13,5.69-3.25,7.21-.56,1.51.37c12-8.37,23.53-17.33,35.13-26.29l2.69-2.9,1.41-1.51,16.49-9.4,3.67-2.81,6.26-3.57,2-1.83,2-.44,2-1.83.56-.33,1.4-1.5,11.95-6.81,1.4-1.51,4.81-3.46,20.47-11.67L277.3,74l6.25-3.56,2-1.84,11.38-6.49,1.44-.11,23.88-13.61,2.59-.77,13.42-5.52,15.22-3.7,7.44-2.82,6.83-3.89,1.39-1.51,3.11-2.48,2.71-5.82.22-2.25.4-5.92-1.27-3.54L370,2.62,365,.48,357.19,0l-3.46.55-1.66,2.37L350.59,1.6l-3.42,1.95-2,.43L337.5,9.06l-4.72,6.25L321.4,21.8l-1.66,2.36.92,1.61-2.85,1.63-2.05-1-3.11,2.49-6.82,3.89-2.05-1L290.7,39.31,290.17,41l-1.14.65-.61-1.08L269.65,51.3l-1.39,1.51-2.85,1.63.92,1.61-4.33.33-12.21,7.67-2.27,1.3-3.68,2.8L237,72.05l.87.21,1.45-.11-.53,1.72-3.19-.31-4.86,2L222.54,81l-9.1,5.18-9.93,6.37-.83,1.19-2.32-.1-.83,1.18-9.1,5.19-2.58.76-9.1,5.19-1.43-.34q-5,3.58-10.08,7.1l1.32.48,1.49,1.28.87.21.31.54L170.7,117l-1.49-1.29-1.18-.74L166,113.63q-19.44,13.5-39.75,25.77l.34.6-1.71,1-.56-.43c-2.6,1.55-5.19,3.12-7.82,4.64a25.16,25.16,0,0,1-11.42,3.52l-1.63.93,0,1.4-1.71,1-1.75-.43L98.35,154l-2.59.76-.83,1.19-2.27,1.29-1.44.11-6,2.71-1.66,2.37-2.32-.1-6.82,3.89-1.93,3.23-.87-.21.52-1.72-1.44.11-5.12,2.92L64.18,172l-1.44.11-1.14.65.3.54L61.38,175,58,177l-2,.44-1.14.65-1.75-.42-.83,1.18-1.71,1Zm103.23-48.91h3.76l2.58-.76.92,1.61-.13,5.05-1.4,1.51L159,140l-.27.86-2.27,1.3-2.63-.64-.91-1.6,1.09-2.06-1.83-3.21ZM285.52,59.32l2.24-2.7.87.22-.52,1.72.87.21,1.14-.65,1.93-3.23,2.27-1.3,2.93,1.18-4,2.26-.27.87-12.77,8-3.1,2.48L272.58,71l-3.46.55-.92-1.61-1.75-.43-.3-.54,7.39-4.21,1.45-.11,4-2.27,1.18.75L283.29,62l.57-.33Zm-76.15,44.84.52-1.72,4-2.27.88.22-.84,1.18.31.54,6.83-3.89.61,1.07,0,1.4.35,1.93-15.36,8.75-3.8-1.38,2.28-1.3ZM235,91l1.7-1,.62,1.07-1.14.65-.88-.21ZM165.27,128.6l2.28-1.3.61,1.07-2.28,1.3Zm-25.63,13.19,2.62.64.92,1.61L139.77,146l-1.75-.42-1.22-2.15ZM97.33,168l.92,1.61-4,2.27-.92-1.61ZM8.45,222.29l-1.23-2.15L8,217.56l2.27-1.3,1.23,2.15L10.72,221Zm-7,7.54L.22,227.69l5.69-3.25,1.17.75-.26.86-2.8,3Zm113.48-64-2.58.76-5.69,3.24L99,174.92l-19.33,11-1.44.12-9.1,5.19-7.74,2.28L60,195l-6.25,3.57-3.15,1.09L46,202.28l-.92-1.61,4.55-2.59,4.51-4-.35-1.94,11.94-6.81,1.44-.11,1.18.75,2.59-.76,5.42-2.38,1.44-.11,1.4-1.51,17.06-9.73,3.46-.55,11.37-6.49,3.94-3.66-.61-1.07,3.1-2.49,8-3.14.31.54,0,1.39,7.13-3.35,1.22,2.14Zm29-15.14-2.05-1-.92-1.61,1.09-2,6-1.32.87.22-.48,3.12L146,150.26Zm6.52-4.43,2.28-1.29,2.62.63.3.54-3.41,1.94-2.62-.63ZM11.11,233.57,8,236.05l-3.19-.31L5,233.48l.52-1.73L11,229.37l.91,1.61Zm152.36-88.3-2.05-1-.92-1.61,2-1.83,2-1.83,1.74.42-1.57,5.17Zm32.77-25.8-5.34,5.18-4.73,6.25-1.35,2.9-.88-.21-1.48-1.28-4.6,1.19-2.62-.63-.92-1.61,4.25-3.14-.4-3.33,2.41-6.34.88.21,1.79,1.82,2.58-.76,3.41-2-1.53-2.68,2.84-1.62.61,1.07-1.35,2.91,2.85-1.63,2.93,1.18,2.27-1.3-.35-1.93,2.84-1.62.61,1.07,2.32.1-.83,1.19ZM347.51,24l4-.87,5.16-1.52,2.05,1-1.35,2.9-1.14.65-2.58.77-2,.43-5.51-.41.21-2.26Zm-23.4,10.5,1.75.43-.22,2.26,3.24,1.7-.83,1.19-2.33-.1-1.17-.75-.27.86.92,1.61L319,45.24l-6.57,3-2.84,1.62-10,5L299,53.79l.83-1.18-1.23-2.15,4-2.27,4.06.52,2.27-1.29,0-1.4,2-.43,1.7-1,2.58-.76,6.26-3.57-1.84-3.21,2.54-2.16ZM162.78,122.91l.31.53-.22,2.26-2,.44-.91-1.61Z"/><polygon class="cls-20" points="363 19.41 362.43 19.73 363.39 22.74 364 23.81 364.57 23.49 363.35 21.34 363 19.41"/><polygon class="cls-10" points="91.12 173.01 90.81 172.47 88.8 172.91 87.97 174.09 89.42 173.98 91.12 173.01"/><polygon class="cls-10" points="86.27 175.07 85.39 174.85 84.82 175.18 85.13 175.72 86.27 175.07"/><rect class="cls-20" x="266.34" y="71.53" width="0.65" height="0.62" transform="translate(-0.57 141.52) rotate(-29.69)"/><rect class="cls-20" x="167.41" y="124.96" width="1.31" height="1.23" transform="translate(-40.14 99.74) rotate(-29.69)"/><rect class="cls-20" x="335.86" y="26.3" width="0.65" height="1.85" transform="translate(30.65 170.1) rotate(-29.69)"/><rect class="cls-20" x="274.09" y="50.77" width="0.66" height="0.62" transform="translate(10.73 142.64) rotate(-29.69)"/></g><text class="cls-23" transform="matrix(0.86, -0.5, 0.5, 0.86, 369.22, 809.1)"><tspan class="cls-24">ww</tspan><tspan class="cls-25" x="37.4" y="0">w</tspan><tspan x="54.82" y="0">.rstudi</tspan><tspan class="cls-26" x="120.07" y="0">o</tspan><tspan x="133.2" y="0">.</tspan><tspan class="cls-27" x="138.37" y="0">c</tspan><tspan class="cls-28" x="149.42" y="0">om</tspan></text><text class="cls-29" transform="translate(235.75 655.1)">glue</text></g></g></svg>