<svg id="Layer_1" data-name="Layer 1" xmlns="http://www.w3.org/2000/svg" xmlns:xlink="http://www.w3.org/1999/xlink" viewBox="0 0 735 852"><defs><style>.cls-1{fill:#77aab6;}.cls-2{clip-path:url(#clip-path);}.cls-3{fill:#005590;}.cls-4{fill:#e6b35a;}.cls-5{font-size:138px;letter-spacing:-0.03em;}.cls-5,.cls-9{fill:#fff;font-family:MyriadPro-Regular, Myriad Pro;}.cls-6{letter-spacing:-0.03em;}.cls-7{letter-spacing:-0.04em;}.cls-8{fill:#004064;}.cls-9{font-size:25px;}.cls-10{letter-spacing:0.01em;}.cls-11{letter-spacing:-0.04em;}.cls-12{letter-spacing:-0.02em;}.cls-13{letter-spacing:-0.01em;}.cls-14{letter-spacing:0em;}.cls-15{fill:url(#linear-gradient);}.cls-16{fill:url(#linear-gradient-2);}.cls-17{fill:url(#linear-gradient-3);}.cls-18{fill:url(#linear-gradient-4);}.cls-19{fill:url(#linear-gradient-5);}</style><clipPath id="clip-path"><polygon class="cls-1" points="369.51 7.4 728.21 214.47 728.21 636.62 369.51 845.03 2.79 636.62 2.79 214.47 369.51 7.4"/></clipPath><linearGradient id="linear-gradient" x1="329.38" y1="432.87" x2="305.15" y2="295.51" gradientUnits="userSpaceOnUse"><stop offset="0" stop-color="#fff"/><stop offset="0.48" stop-color="#fdfdfd"/><stop offset="0.65" stop-color="#f6f6f6"/><stop offset="0.77" stop-color="#ebebeb"/><stop offset="0.87" stop-color="#dadada"/><stop offset="0.96" stop-color="#c4c4c4"/><stop offset="1" stop-color="#b5b5b5"/></linearGradient><linearGradient id="linear-gradient-2" x1="444.63" y1="398.08" x2="328.64" y2="355.86" gradientUnits="userSpaceOnUse"><stop offset="0" stop-color="#fff"/><stop offset="0.43" stop-color="#fdfdfd"/><stop offset="0.61" stop-color="#f6f6f6"/><stop offset="0.75" stop-color="#e9e9e9"/><stop offset="0.86" stop-color="#d8d8d8"/><stop offset="0.96" stop-color="#c1c1c1"/><stop offset="1" stop-color="#b5b5b5"/></linearGradient><linearGradient id="linear-gradient-3" x1="421.32" y1="210.4" x2="351.95" y2="330.55" gradientUnits="userSpaceOnUse"><stop offset="0" stop-color="#fff"/><stop offset="0.35" stop-color="#fdfdfd"/><stop offset="0.55" stop-color="#f4f4f4"/><stop offset="0.71" stop-color="#e6e6e6"/><stop offset="0.85" stop-color="#d2d2d2"/><stop offset="0.98" stop-color="#b9b9b9"/><stop offset="1" stop-color="#b5b5b5"/></linearGradient><linearGradient id="linear-gradient-4" x1="298.47" y1="215.2" x2="428.47" y2="192.27" gradientUnits="userSpaceOnUse"><stop offset="0" stop-color="#fff"/><stop offset="0.21" stop-color="#fafafa"/><stop offset="0.46" stop-color="#ececec"/><stop offset="0.73" stop-color="#d5d5d5"/><stop offset="1" stop-color="#b5b5b5"/></linearGradient><linearGradient id="linear-gradient-5" x1="329.38" y1="325.85" x2="305.15" y2="188.47" gradientUnits="userSpaceOnUse"><stop offset="0" stop-color="#fff"/><stop offset="0.24" stop-color="#fbfbfb"/><stop offset="0.47" stop-color="#f0f0f0"/><stop offset="0.69" stop-color="#ddd"/><stop offset="0.91" stop-color="#c3c3c3"/><stop offset="1" stop-color="#b5b5b5"/></linearGradient></defs><title> </title><polygon class="cls-1" points="369.51 7.4 728.21 214.47 728.21 636.62 369.51 845.03 2.79 636.62 2.79 214.47 369.51 7.4"/><g class="cls-2"><circle class="cls-3" cx="365.5" cy="437.45" r="442.13"/></g><path class="cls-4" d="M367,633.9c.29-.29.6-.59.93-.89h-.26Z"/><text class="cls-5" transform="translate(36.85 576.46)">googled<tspan class="cls-6" x="454.43" y="0">r</tspan><tspan x="495.69" y="0">i</tspan><tspan class="cls-7" x="523.56" y="0">v</tspan><tspan x="584.14" y="0">e</tspan></text><path class="cls-8" d="M705.61,196.21,427.81,35.82,367.5,1,307.19,35.82,29.37,196.22.09,213.13V637.38l29.28,16.91,281.28,162.4,56.85,32.82,56.85-32.82L705.61,654.3l29.3-16.92V213.13Zm0,425.26L367.49,816.68,29.37,621.47V231L367.49,35.82h0L705.61,231Z"/><text class="cls-9" transform="matrix(0.86, -0.5, 0.5, 0.86, 369.28, 809.1)"><tspan class="cls-10">ww</tspan><tspan class="cls-11" x="37.4" y="0">w</tspan><tspan x="54.82" y="0">.rstudi</tspan><tspan class="cls-12" x="120.07" y="0">o</tspan><tspan x="133.2" y="0">.</tspan><tspan class="cls-13" x="138.37" y="0">c</tspan><tspan class="cls-14" x="149.42" y="0">om</tspan></text><path class="cls-15" d="M294.14,297.45l46.25,26.69V430.93l-46.25-26.7Z"/><path class="cls-16" d="M340.4,323.57V377l92.49,53.4V377Z"/><path class="cls-17" d="M340.43,323.9l0-53.4,92.45-53.45,0,53.4Z"/><path class="cls-18" d="M386.62,243.77l46.22-26.72L340.32,163.7,294.1,190.42Z"/><path class="cls-19" d="M294.17,297.22l46.26,26.68-.08-106.8L294.1,190.42Z"/></svg>