<svg id="Layer_1" data-name="Layer 1" xmlns="http://www.w3.org/2000/svg" xmlns:xlink="http://www.w3.org/1999/xlink" viewBox="0 0 735 852"><defs><style>.cls-1{fill:#ba6f38;}.cls-2{clip-path:url(#clip-path);}.cls-3{fill:#005590;}.cls-4{fill:#004064;}.cls-5{fill:#e6b35a;}.cls-6{opacity:0.94;}.cls-7{font-size:119.7px;letter-spacing:-0.02em;}.cls-15,.cls-19,.cls-7,.cls-8{fill:#fff;}.cls-7,.cls-8{font-family:MyriadPro-Regular, Myriad Pro;}.cls-8{font-size:25px;}.cls-9{letter-spacing:0.01em;}.cls-10{letter-spacing:-0.04em;}.cls-11{letter-spacing:-0.02em;}.cls-12{letter-spacing:-0.01em;}.cls-13{letter-spacing:0em;}.cls-14{opacity:0.5;}.cls-16,.cls-17,.cls-18,.cls-20,.cls-21,.cls-22,.cls-23,.cls-24,.cls-25{fill:none;}.cls-16,.cls-17,.cls-19,.cls-20,.cls-21,.cls-22,.cls-23,.cls-24,.cls-25{stroke:#000;stroke-miterlimit:10;}.cls-16{stroke-linecap:round;stroke-width:2.38px;}.cls-17,.cls-25{stroke-linecap:square;}.cls-17,.cls-21{stroke-width:0.62px;}.cls-19,.cls-24,.cls-25{stroke-width:1.25px;}.cls-20{stroke-width:0.31px;}.cls-22{stroke-width:0.78px;}.cls-23{stroke-width:0.47px;}.cls-26{fill:#110b0c;}</style><clipPath id="clip-path"><polygon class="cls-1" points="369.51 7.4 728.21 214.47 728.21 636.62 369.51 845.03 2.79 636.62 2.79 214.47 369.51 7.4"/></clipPath></defs><title> </title><polygon class="cls-1" points="369.51 7.4 728.21 214.47 728.21 636.62 369.51 845.03 2.79 636.62 2.79 214.47 369.51 7.4"/><g class="cls-2"><circle class="cls-3" cx="363.84" cy="433.77" r="442.13"/></g><path class="cls-4" d="M705.61,196.21,427.81,35.82,367.5,1,307.19,35.82,29.37,196.22.09,213.13V637.38l29.28,16.91,281.28,162.4,56.85,32.82,56.85-32.82L705.61,654.3l29.3-16.92V213.13Zm0,425.26L367.49,816.68,29.37,621.47V231L367.49,35.82h0L705.61,231Z"/><path class="cls-5" d="M367,633.9c.29-.29.6-.59.93-.89h-.26Z"/><g class="cls-6"><text class="cls-7" transform="translate(46.32 601.32) scale(1 1.06)">googlesheets</text></g><text class="cls-8" transform="matrix(0.86, -0.5, 0.5, 0.86, 369.28, 809.1)"><tspan class="cls-9">ww</tspan><tspan class="cls-10" x="37.4" y="0">w</tspan><tspan x="54.82" y="0">.rstudi</tspan><tspan class="cls-11" x="120.07" y="0">o</tspan><tspan x="133.2" y="0">.</tspan><tspan class="cls-12" x="138.37" y="0">c</tspan><tspan class="cls-13" x="149.42" y="0">om</tspan></text><g class="cls-14"><path class="cls-15" d="M223.91,438.35a25.47,25.47,0,0,0,25.44,25.44H366.9l.37,0a20.38,20.38,0,0,1,5.5-38.39,19.58,19.58,0,0,0-5.87-.9h-.41l-5.17.17-.29-4.18c-1.5.91-3,1.8-4.5,2.67l-2.08,1.21-.27.16-.32-.54.27-.16,2.08-1.21c1.57-.91,3.19-1.86,4.77-2.83v0c0-.65-.13-1.29-.23-1.93-1.49.91-3,1.8-4.47,2.67l-1.93,1.13-.32-.54L356,420c1.54-.9,3.12-1.84,4.67-2.79a22.62,22.62,0,0,0-.57-2.36c-1.51.91-3.06,1.79-4.56,2.65l-2.44,1.41-.28.16-.32-.55.28-.16,2.45-1.41c1.51-.87,3.08-1.77,4.6-2.68l.07,0a22.81,22.81,0,0,0-.91-2.34l-.11.07c-1.45.88-2.95,1.73-4.39,2.55-.94.53-1.88,1.07-2.81,1.61l-.28.16-.32-.55.28-.16,2.82-1.62c1.44-.82,2.93-1.67,4.38-2.54l.18-.11c-.25-.51-.52-1-.81-1.48-1.23.73-2.47,1.44-3.68,2.12-.93.53-1.87,1.05-2.79,1.59l-.28.16-.32-.55.28-.16c.93-.54,1.86-1.07,2.8-1.6,1.21-.68,2.45-1.39,3.67-2.12-.3-.48-.62-1-1-1.42-1.28.76-2.57,1.51-3.83,2.22l-2.52,1.44-.28.16-.32-.55.28-.16,2.53-1.45c1.24-.7,2.5-1.43,3.75-2.18a23.13,23.13,0,0,0-1.6-1.84c-1.5.9-3,1.78-4.54,2.66l-2.52,1.46-.28.16-.32-.55.27-.16,2.53-1.46c1.47-.85,2.94-1.7,4.4-2.57a23.32,23.32,0,0,0-1.87-1.66c-1.59,1-3.22,1.92-4.8,2.84l-2.09,1.22-.27.16-.32-.55.27-.16,2.09-1.22c1.5-.87,3.06-1.78,4.57-2.7a23.2,23.2,0,0,0-2.06-1.36l-.09.06c-1.69,1-3.44,2.06-5.12,3l-2.1,1.22-.27.16-.32-.55.27-.16,2.1-1.22c1.61-.94,3.28-1.91,4.9-2.9a22.91,22.91,0,0,0-2.77-1.29l.29.47-.27.17c-1.65,1-3.35,2-5,3l-2.1,1.23-.32-.55L341,403c1.64-1,3.34-1.94,5-3l.21-.13a22.77,22.77,0,0,0-6.39-1.42l.29.47-.27.17c-1.63,1-3.31,2-4.93,2.95l-1.87,1.1-.32-.55,1.87-1.1c1.62-1,3.29-1.93,4.92-2.94l.16-.1c-.52,0-1-.08-1.57-.08s-.89,0-1.33.05l-.13.08c-1.68,1-3.41,2.06-5.08,3l-1.54.91-.32-.55,1.54-.91c1.35-.79,2.73-1.61,4.09-2.44a23,23,0,0,0-4.45,1L326.25,401l-1.77-4.46a30.8,30.8,0,0,0-3.62-6.6l-.08,0c-1.42.86-2.88,1.69-4.29,2.49-.92.52-1.84,1-2.75,1.58l-.27.16-.31-.54.27-.16,2.76-1.58c1.41-.8,2.87-1.63,4.28-2.48l0,0q-.79-1.05-1.65-2l-.25.15c-1.37.83-2.78,1.63-4.15,2.4-.92.52-1.84,1-2.76,1.57l-.27.16-.31-.54.27-.16c.92-.53,1.84-1.06,2.77-1.58,1.36-.77,2.77-1.57,4.13-2.39l.16-.09q-.83-.89-1.72-1.7l.1.17-.27.16c-1.46.89-3,1.75-4.44,2.59l-2.47,1.41-.27.16-.31-.54.27-.16,2.47-1.42c1.46-.83,3-1.69,4.42-2.58l.15-.09c-.69-.61-1.41-1.18-2.14-1.73l.12.2-.27.16c-1.54.92-3.09,1.82-4.64,2.72L307,387.76l-.27.16-.31-.54.27-.16,2.45-1.42c1.55-.89,3.1-1.79,4.63-2.71l.13-.08c-.7-.5-1.42-1-2.17-1.42h0c-1.58,1-3.2,1.91-4.77,2.82l-2,1.19-.27.16-.32-.54.27-.16,2-1.19c1.48-.86,3-1.74,4.48-2.65-.75-.42-1.52-.8-2.3-1.16-1.6,1-3.23,1.93-4.82,2.85l-2.06,1.2-.27.16-.32-.54.27-.16,2.06-1.2c1.46-.85,3-1.73,4.43-2.62-.75-.32-1.52-.61-2.3-.87l0,0c-1.62,1-3.3,2-4.92,2.92l-2,1.18-.32-.54,2-1.18c1.47-.86,3-1.74,4.47-2.65-.81-.24-1.64-.45-2.48-.62h0c-1.53.92-3.07,1.81-4.6,2.71l-2.51,1.46-.32-.54,2.51-1.46,4-2.36q-1.12-.2-2.25-.32c-1.59,1-3.22,1.94-4.8,2.87l-1.77,1-.32-.54,1.77-1c1.34-.79,2.72-1.6,4.08-2.43-.71,0-1.42-.08-2.13-.08l-.65,0c-1.39.84-2.79,1.68-4.16,2.48l-1.57.93-.32-.54,1.57-.93,3.19-1.9c-.61,0-1.22.1-1.82.18-1.18.7-2.37,1.38-3.56,2.06L287,380.72l-.31-.54,1.86-1.06,2.17-1.25a30.48,30.48,0,0,0-22.45,17.72L266,400.65l-1.18-.64-.3.24-1.68,1.39-.24.2-.4-.48.24-.2,1.68-1.39.1-.08-1.8-1-.83.69-1.75,1.44-.24.2-.4-.48.24-.2,1.75-1.45.64-.53-.71-.39c-.34-.19-.71-.34-1.07-.49l-4,3.29-.4-.48,3.73-3.08a13.79,13.79,0,0,0-1.76-.52l.08.1-.24.2-2.61,2.18-1.52,1.27L253,400l1.52-1.27,2.54-2.12a13.83,13.83,0,0,0-2-.22l-.13.11c-1.08.92-2.16,1.82-3.25,2.73l-1.3,1.09-.4-.48,1.3-1.09,2.81-2.36c-.45,0-.9.06-1.34.12l-.12.1c-1.12.94-2.25,1.86-3.38,2.77l-1.63,1.32-.39-.48,1.63-1.32q1.32-1.07,2.63-2.16a13.79,13.79,0,0,0-10.64,13.4c0,.22,0,.43,0,.65l.15,3.31-3,1.48A25.31,25.31,0,0,0,223.91,438.35Zm114-36.49c1.56-.91,3.13-1.82,4.68-2.75l.27-.16.33.55-.27.16c-1.56.93-3.12,1.84-4.69,2.76l-2.58,1.51-.32-.55Zm-15.29-7.72.33.53-.27.16c-1.66,1-3,1.79-4.48,2.68l-2,1.17-.32-.54,2-1.17c1.51-.88,2.81-1.64,4.46-2.67Zm-7.84,2.16,2.42-1.4c1.47-.84,3-1.71,4.47-2.6l.27-.16.32.53-.27.16c-1.48.89-3,1.77-4.48,2.61l-2.42,1.39-.27.16-.31-.54Z"/><path d="M315.14,396.83l2.42-1.39c1.47-.84,3-1.72,4.48-2.61l.27-.16-.32-.53-.27.16c-1.48.89-3,1.76-4.47,2.6l-2.42,1.4-.27.16.31.54Z"/><path d="M315.94,398.14l.32.54,2-1.17c1.51-.88,2.81-1.65,4.48-2.68l.27-.16-.33-.53-.26.16c-1.66,1-3,1.79-4.46,2.67Z"/><path d="M338.27,402.41c1.56-.91,3.13-1.82,4.69-2.76l.27-.16-.33-.55-.27.16c-1.55.93-3.12,1.84-4.68,2.75l-2.59,1.51.32.55Z"/><path class="cls-15" d="M510.56,447.67l-1.89,1.09-.27.16-.32-.54.27-.16,1.89-1.1c.89-.51,1.56-.9,2.87-1.7q.22-1,.36-2c-1.57,1-2.83,1.71-4.28,2.56l-2,1.17-.32-.54,2-1.17c1.51-.88,2.81-1.64,4.46-2.67l.24-.15c.06-.56.1-1.12.12-1.69-1.39.83-2.81,1.65-4.19,2.44l-2.39,1.38-.27.16-.31-.54.27-.16,2.4-1.38c1.48-.85,3-1.73,4.5-2.62h0c0-.09,0-.19,0-.28,0-.5,0-1-.05-1.5-1.29.77-2.6,1.52-3.87,2.25-.92.52-1.84,1-2.75,1.58l-.27.16-.31-.54.27-.16,2.76-1.58c1.36-.77,2.76-1.57,4.13-2.4q-.08-.87-.21-1.73c-1.25.75-2.53,1.48-3.78,2.18-.91.51-1.82,1-2.73,1.56l-.27.16-.31-.54.27-.16c.91-.53,1.82-1,2.74-1.56,1.31-.74,2.66-1.5,4-2.29-.13-.69-.28-1.38-.46-2-1.38.83-2.78,1.64-4.15,2.42l-2.44,1.4-.27.16-.31-.54.27-.16,2.44-1.4c1.41-.8,2.87-1.63,4.28-2.49-.2-.68-.44-1.35-.7-2-1.43.86-2.87,1.69-4.32,2.53l-2.44,1.42-.27.16-.31-.54.27-.16,2.45-1.42c1.47-.85,2.94-1.7,4.39-2.57-.27-.62-.55-1.24-.86-1.84-1.46.89-3,1.77-4.41,2.61l-2,1.19-.27.16-.32-.54.27-.16,2-1.19c1.45-.84,3-1.72,4.42-2.61q-.46-.82-1-1.6c-1.5.91-3,1.81-4.51,2.67L503,430l-.27.16-.32-.54.27-.16,2.06-1.2c1.47-.86,3-1.74,4.48-2.65-.41-.59-.85-1.17-1.31-1.72-1.57,1-3.17,1.9-4.73,2.81l-2.06,1.2-.32-.54,2.06-1.21c1.52-.89,3.09-1.8,4.62-2.74q-.6-.68-1.25-1.32c-1.41.84-2.82,1.67-4.23,2.49l-2.31,1.35-.27.16-.32-.54.27-.16,2.32-1.35q2-1.19,4.08-2.4c-.4-.37-.81-.73-1.24-1.07-1.56,1-3.15,1.89-4.69,2.8l-1.76,1-.32-.54,1.76-1c1.48-.87,3-1.76,4.48-2.68q-.67-.52-1.39-1c-1.48.9-3,1.79-4.44,2.65l-1.55.92-.32-.54,1.56-.92c1.37-.81,2.78-1.64,4.17-2.49-.61-.38-1.24-.75-1.88-1.08l-.15.09c-1.25.74-2.5,1.46-3.76,2.18L494.41,421l-.31-.54,1.84-1.05c1.19-.68,2.38-1.36,3.56-2.06l-2.1-1,.13-2.73c0-.21,0-.42,0-.63-.91.55-1.83,1.1-2.73,1.62l-1.35.79-.17.1-.21-.35.17-.1,1.35-.79c1-.56,1.95-1.14,2.91-1.73,0-.44,0-.87-.1-1.3-.91.56-1.84,1.11-2.74,1.64l-1.28.75-.21-.35,1.28-.76c.95-.56,1.92-1.14,2.88-1.72-.05-.33-.11-.66-.19-1l-2.5,1.46-1.56.9-.18.1-.2-.35.18-.1,1.56-.9c.86-.49,1.74-1,2.6-1.51a13.78,13.78,0,0,0-.5-1.53c-.86.52-1.73,1-2.58,1.5l-1.78,1-.18.1-.2-.35.18-.1,1.79-1c.87-.49,1.76-1,2.63-1.53-.14-.33-.3-.66-.47-1l-2.11,1.22-1.78,1-.18.1-.2-.35.18-.1,1.79-1,2.11-1.22c-.18-.32-.36-.63-.56-.93-.75.45-1.51.89-2.25,1.31l-1.62.93-.18.1-.2-.35.18-.1,1.62-.93,2.21-1.29a14,14,0,0,0-1-1.2c-.93.56-1.87,1.1-2.8,1.64l-1.57.91-.18.1-.2-.35.18-.1L491,405c.91-.53,1.82-1.06,2.73-1.6a14,14,0,0,0-1.14-1.08c-1,.61-2,1.2-3,1.77l-1.33.77-.17.1-.21-.35.17-.1,1.33-.78c.94-.55,1.91-1.11,2.86-1.69a13.88,13.88,0,0,0-1.27-.88l0,0c-1.08.66-2.19,1.31-3.26,1.93l-1.33.77-.17.1-.21-.35.17-.1,1.33-.78c1-.6,2.09-1.21,3.12-1.85a13.8,13.8,0,0,0-1.77-.85l.2.33-.17.11c-1.05.65-2.13,1.28-3.18,1.89l-1.33.78-.21-.35,1.33-.78c1-.61,2.12-1.24,3.17-1.88l.16-.1a13.76,13.76,0,0,0-4.11-.92l.2.33-.17.11c-1,.63-2.08,1.26-3.11,1.86l-1.21.71-.21-.35,1.21-.71c1-.6,2.07-1.22,3.1-1.85l.15-.09c-.31,0-.61,0-.93,0s-.64,0-1,.06l-.09.05c-1.06.65-2.14,1.29-3.19,1.91l-1,.6-.21-.35,1-.61,2.57-1.54a13.82,13.82,0,0,0-4.72,1.53l-4,2.17-.68-1.56-.16.1c-1.54.95-2.24,1.35-3.2,1.91l-1.89,1.09-.27.16-.32-.54.27-.16,1.89-1.1c1-.55,1.66-1,3.19-1.9l.24-.15-.89-2,0,0c-1.64,1-2.94,1.78-4.43,2.65l-2,1.16-.32-.54,2-1.16c1.51-.88,2.81-1.65,4.47-2.68-.21-.44-.41-.88-.63-1.31-1.41.84-2.84,1.67-4.23,2.46l-2.39,1.38-.27.16-.31-.54.27-.16,2.4-1.38c1.39-.8,2.83-1.63,4.24-2.47q-.59-1.06-1.26-2.07c-1.23.74-2.49,1.45-3.71,2.15-.92.52-1.84,1-2.75,1.58l-.27.16-.31-.54.27-.16,2.76-1.58c1.21-.68,2.45-1.39,3.66-2.12-.5-.71-1-1.41-1.57-2.07-1.27.76-2.57,1.5-3.84,2.22-.92.52-1.84,1-2.76,1.57l-.27.16-.31-.54.27-.16c.92-.53,1.84-1.06,2.77-1.58,1.23-.7,2.5-1.42,3.74-2.16q-.72-.83-1.5-1.6c-1.41.86-2.86,1.69-4.27,2.49l-2.47,1.41-.27.16-.31-.54.27-.16,2.47-1.42c1.35-.77,2.75-1.57,4.11-2.39q-.9-.85-1.86-1.63c-1.53.92-3.07,1.81-4.61,2.7l-2.44,1.42-.27.16-.31-.54.27-.16,2.45-1.42c1.47-.85,2.94-1.7,4.4-2.58-.68-.52-1.38-1-2.09-1.46-1.49.91-3,1.79-4.48,2.65l-2.07,1.21-.27.16-.32-.54.27-.16,2.07-1.21c1.38-.8,2.8-1.63,4.19-2.48q-1.08-.65-2.2-1.21c-1.54.94-3.12,1.86-4.65,2.75l-2.06,1.2-.27.16-.32-.54.27-.16,2.06-1.2c1.42-.82,2.88-1.68,4.31-2.55-.72-.34-1.47-.64-2.22-.92-1.61,1-3.27,2-4.88,2.9l-2,1.2-.32-.54,2.05-1.2c1.46-.85,3-1.73,4.42-2.62q-1.16-.4-2.36-.7l-.12.07c-1.5.9-3,1.78-4.53,2.66l-2.31,1.35-.27.16-.32-.54.27-.16,2.32-1.35q2.05-1.2,4.1-2.41-1.06-.23-2.14-.39l-.21.13c-1.61,1-3.27,2-4.87,2.91l-1.77,1-.32-.54,1.77-1c1.44-.85,2.92-1.72,4.38-2.61-.86-.09-1.72-.15-2.59-.17-1.53.94-3.09,1.86-4.6,2.75l-1.62,1-.32-.54,1.62-1c1.22-.72,2.47-1.46,3.72-2.22-.68,0-1.36,0-2,.1l.09.16-.27.16c-1.25.74-2.5,1.46-3.76,2.18l-1.84,1.05-.31-.54,1.84-1.05q1.59-.9,3.16-1.83a29.65,29.65,0,0,0-24,18.59l-1.46,3.67L411,402.15a22.69,22.69,0,0,0-29.77,20l-.28,4-4.19-.14h-.51a19.49,19.49,0,0,0,0,39,19.26,19.26,0,0,0,8.95-2.18l2.41-1.25,2.13,1.69a22.44,22.44,0,0,0,14.12,4.94,22.67,22.67,0,0,0,11.34-3l2.1-1.21,2.1,1.21a22.71,22.71,0,0,0,20.16,1.26l2.5-1.05,2,1.85a22.67,22.67,0,0,0,32.83-2l1.79-2.13,2.65.82a25,25,0,0,0,31.6-17.57C511.93,446.88,511.32,447.23,510.56,447.67Zm-28.5-45-.21-.35,1.63-1c1-.58,2-1.17,3-1.76l.17-.1.21.35-.17.1c-1,.6-2,1.18-3,1.76Z"/><path d="M514,445.59a25.91,25.91,0,0,0-10.78-27.14l-.18-.29-.14.09a26.5,26.5,0,0,0-2.66-1.54l-1.91-.95.1-2.13c0-.23,0-.46,0-.69a14.7,14.7,0,0,0-2.49-8.2h0l-.21-.35,0,0a14.77,14.77,0,0,0-19.1-4.48l-3.12,1.7-1.43-3.25a30.77,30.77,0,0,0-2.55-4.63l.06,0-.32-.53-.09.05a30.78,30.78,0,0,0-11.71-10.09l0,0h0a30.71,30.71,0,0,0-42.1,16.26l-1.14,2.86-2.93-1a23.6,23.6,0,0,0-31,20.76l-.22,3.15-3.3-.11h-.54c-.3,0-.6,0-.9,0a20.69,20.69,0,0,0-8.44-1.8h-.45l-4,.14-.26-3.77a24,24,0,0,0-4.8-12.82l-.1-.17h0a24.13,24.13,0,0,0-26.79-8.28l-3.51,1.16-1.36-3.43a31.64,31.64,0,0,0-58.39-1l-1.71,3.9-3.74-2a15,15,0,0,0-22.08,13.15c0,.24,0,.47,0,.7l.11,2.54-2.28,1.14A26.62,26.62,0,0,0,249.36,465H366.9a20.8,20.8,0,0,0,2.75-.2,20.26,20.26,0,0,0,16-1.17l1.88-1,1.66,1.32a23.35,23.35,0,0,0,14.7,5.14,23.6,23.6,0,0,0,11.8-3.17l1.64-.95,1.64.95a23.64,23.64,0,0,0,21,1.32l1.95-.82,1.55,1.44a23.6,23.6,0,0,0,34.17-2.11l1.39-1.66,2.07.64a26,26,0,0,0,33-19.13h0ZM488.7,465a25,25,0,0,1-7.39-1.11l-2.65-.82-1.79,2.13a22.67,22.67,0,0,1-32.83,2l-2-1.85-2.5,1.05a22.71,22.71,0,0,1-20.16-1.26l-2.1-1.21-2.1,1.21a22.67,22.67,0,0,1-11.34,3,22.44,22.44,0,0,1-14.12-4.94l-2.12-1.69-2.41,1.25a19.26,19.26,0,0,1-8.95,2.18,19.49,19.49,0,0,1,0-39h.51l4.19.14.28-4a22.69,22.69,0,0,1,29.77-20l3.75,1.24,1.46-3.67a29.65,29.65,0,0,1,24-18.59q-1.57.93-3.16,1.83L435.23,384l.31.54,1.84-1.05c1.26-.72,2.52-1.43,3.76-2.18l.27-.16-.09-.16c.67-.06,1.35-.09,2-.1-1.24.75-2.49,1.5-3.72,2.22l-1.62,1,.32.54,1.62-1c1.51-.89,3.07-1.81,4.6-2.75.87,0,1.74.08,2.59.17-1.46.89-2.94,1.77-4.38,2.61l-1.77,1,.32.54,1.77-1c1.6-.94,3.26-1.92,4.87-2.91l.21-.13q1.08.16,2.14.39-2,1.22-4.1,2.41l-2.32,1.35-.27.16.32.54.27-.16,2.31-1.35c1.51-.88,3-1.76,4.53-2.66l.12-.07q1.2.3,2.36.7c-1.47.9-3,1.77-4.42,2.62l-2.05,1.2.32.54,2-1.2c1.61-.94,3.27-1.9,4.88-2.9.75.28,1.49.58,2.22.92-1.43.87-2.89,1.72-4.31,2.55l-2.06,1.2-.27.16.32.54.27-.16,2.06-1.2c1.53-.89,3.11-1.81,4.65-2.75q1.13.56,2.2,1.21c-1.39.85-2.81,1.68-4.19,2.48l-2.07,1.21-.27.16.32.54.27-.16,2.07-1.21c1.48-.86,3-1.74,4.48-2.65.72.46,1.42.94,2.09,1.46-1.46.88-2.93,1.73-4.4,2.58l-2.45,1.42-.27.16.31.54.27-.16,2.44-1.42c1.54-.89,3.08-1.78,4.61-2.7q1,.77,1.86,1.63c-1.36.82-2.75,1.62-4.11,2.39l-2.47,1.42-.27.16.31.54.27-.16,2.47-1.41c1.41-.8,2.86-1.63,4.27-2.49q.78.77,1.5,1.6c-1.24.74-2.5,1.46-3.74,2.16-.92.52-1.85,1-2.77,1.58l-.27.16.31.54.27-.16c.92-.53,1.84-1.05,2.76-1.57,1.26-.71,2.57-1.45,3.84-2.22.55.66,1.07,1.36,1.57,2.07-1.22.73-2.46,1.44-3.66,2.12L462,397.4l-.27.16.31.54.27-.16c.91-.53,1.83-1.06,2.75-1.58,1.22-.69,2.47-1.41,3.71-2.15q.67,1,1.26,2.07c-1.41.84-2.84,1.67-4.24,2.47l-2.4,1.38-.27.16.31.54.27-.16,2.39-1.38c1.39-.8,2.83-1.62,4.23-2.46.22.43.43.87.63,1.31-1.66,1-3,1.79-4.47,2.68l-2,1.16.32.54,2-1.16c1.5-.88,2.79-1.64,4.43-2.65l0,0,.89,2-.24.15c-1.53.94-2.22,1.34-3.19,1.9l-1.89,1.1-.27.16.32.54.27-.16,1.89-1.09c1-.56,1.67-1,3.2-1.91l.16-.1.68,1.56,4-2.17a13.82,13.82,0,0,1,4.72-1.53l-2.57,1.54-1,.61.21.35,1-.6c1-.62,2.13-1.26,3.19-1.91l.09-.05c.32,0,.64-.06,1-.06s.62,0,.93,0l-.15.09c-1,.63-2.08,1.25-3.1,1.85l-1.21.71.21.35,1.21-.71c1-.6,2.08-1.22,3.11-1.86l.17-.11-.2-.33a13.76,13.76,0,0,1,4.11.92l-.16.1c-1,.65-2.13,1.28-3.17,1.88l-1.33.78.21.35,1.33-.78c1-.61,2.13-1.24,3.18-1.89l.17-.11-.2-.33a13.8,13.8,0,0,1,1.77.85c-1,.63-2.09,1.25-3.12,1.85l-1.33.78-.17.1.21.35.17-.1,1.33-.77c1.07-.62,2.18-1.27,3.26-1.93l0,0a13.88,13.88,0,0,1,1.27.88c-.95.58-1.91,1.15-2.86,1.69l-1.33.78-.17.1.21.35.17-.1,1.33-.77c1-.57,2-1.17,3-1.77a14,14,0,0,1,1.14,1.08c-.9.54-1.81,1.07-2.73,1.6l-1.58.91-.18.1.2.35.18-.1,1.57-.91c.94-.54,1.87-1.08,2.8-1.64a14,14,0,0,1,1,1.2l-2.21,1.29-1.62.93-.18.1.2.35.18-.1,1.62-.93c.74-.42,1.5-.87,2.25-1.31.2.3.39.61.56.93l-2.11,1.22-1.79,1-.18.1.2.35.18-.1,1.78-1,2.11-1.22c.17.32.33.64.47,1-.87.53-1.76,1-2.63,1.53L492,410l-.18.1.2.35.18-.1,1.78-1c.85-.48,1.73-1,2.58-1.5a13.78,13.78,0,0,1,.5,1.53c-.86.52-1.74,1-2.6,1.51l-1.56.9-.18.1.2.35.18-.1,1.56-.9,2.5-1.46c.08.33.14.65.19,1-1,.59-1.93,1.16-2.88,1.72l-1.28.76.21.35,1.28-.75c.9-.53,1.83-1.08,2.74-1.64.05.43.08.86.1,1.3-1,.59-2,1.17-2.91,1.73l-1.35.79-.17.1.21.35.17-.1,1.35-.79c.9-.52,1.82-1.07,2.73-1.62,0,.21,0,.42,0,.63l-.13,2.73,2.1,1c-1.18.7-2.37,1.38-3.56,2.06l-1.84,1.05.31.54,1.84-1.05c1.26-.72,2.52-1.43,3.76-2.18l.15-.09c.65.33,1.27.7,1.88,1.08-1.39.85-2.79,1.68-4.17,2.49l-1.56.92.32.54,1.55-.92c1.46-.86,3-1.75,4.44-2.65q.71.48,1.39,1c-1.49.91-3,1.81-4.48,2.68l-1.76,1,.32.54,1.76-1c1.54-.91,3.13-1.84,4.69-2.8.43.35.84.7,1.24,1.07q-2,1.21-4.08,2.4l-2.32,1.35-.27.16.32.54.27-.16,2.31-1.35c1.41-.82,2.82-1.65,4.23-2.49q.65.64,1.25,1.32c-1.53.94-3.1,1.86-4.62,2.74l-2.06,1.21.32.54,2.06-1.2c1.56-.91,3.16-1.84,4.73-2.81.47.55.9,1.13,1.31,1.72-1.49.91-3,1.79-4.48,2.65l-2.06,1.2-.27.16.32.54L503,430l2.06-1.2c1.49-.86,3-1.75,4.51-2.67q.52.78,1,1.6c-1.46.89-3,1.77-4.42,2.61l-2,1.19-.27.16.32.54.27-.16,2-1.19c1.45-.84,2.95-1.72,4.41-2.61.31.6.6,1.21.86,1.84-1.46.87-2.92,1.72-4.39,2.57l-2.45,1.42-.27.16.31.54.27-.16,2.44-1.42c1.44-.83,2.89-1.67,4.32-2.53.26.66.5,1.33.7,2-1.41.86-2.87,1.69-4.28,2.49l-2.44,1.4-.27.16.31.54.27-.16,2.44-1.4c1.37-.78,2.78-1.58,4.15-2.42.18.67.33,1.36.46,2-1.31.79-2.66,1.55-4,2.29-.91.52-1.83,1-2.74,1.56l-.27.16.31.54.27-.16c.91-.53,1.82-1,2.73-1.56,1.24-.7,2.52-1.43,3.78-2.18q.13.86.21,1.73c-1.36.83-2.77,1.62-4.13,2.4l-2.76,1.58-.27.16.31.54.27-.16c.91-.53,1.83-1.06,2.75-1.58,1.28-.72,2.59-1.47,3.87-2.25,0,.5.05,1,.05,1.5,0,.09,0,.19,0,.28h0c-1.49.89-3,1.77-4.5,2.62l-2.4,1.38-.27.16.31.54.27-.16,2.39-1.38c1.38-.79,2.8-1.61,4.19-2.44,0,.57-.06,1.13-.12,1.69l-.24.15c-1.66,1-3,1.79-4.46,2.67l-2,1.17.32.54,2-1.17c1.45-.85,2.71-1.59,4.28-2.56q-.14,1-.36,2c-1.3.8-2,1.19-2.87,1.7l-1.89,1.1-.27.16.32.54.27-.16,1.89-1.09c.77-.44,1.37-.79,2.35-1.39A25.07,25.07,0,0,1,488.7,465ZM241,414.09l-.15-3.31c0-.21,0-.43,0-.65a13.79,13.79,0,0,1,10.64-13.4q-1.31,1.09-2.63,2.16l-1.63,1.32.39.48,1.63-1.32c1.13-.92,2.27-1.83,3.38-2.77l.12-.1c.44-.06.89-.1,1.34-.12l-2.81,2.36-1.3,1.09.4.48,1.3-1.09c1.09-.91,2.17-1.81,3.25-2.73l.13-.11a13.83,13.83,0,0,1,2,.22l-2.54,2.12L253,400l.4.48,1.52-1.27,2.61-2.18.24-.2-.08-.1a13.79,13.79,0,0,1,1.76.52l-3.73,3.08.4.48,4-3.29c.36.16.72.31,1.07.49l.71.39-.64.53-1.75,1.45-.24.2.4.48.24-.2,1.75-1.44.83-.69,1.8,1-.1.08-1.68,1.39-.24.2.4.48.24-.2,1.68-1.39.3-.24,1.18.64,2.23-5.07a30.48,30.48,0,0,1,22.45-17.72l-2.17,1.25-1.86,1.06.31.54,1.86-1.06c1.19-.68,2.38-1.36,3.56-2.06.6-.07,1.21-.14,1.82-.18l-3.19,1.9-1.57.93.32.54,1.57-.93c1.37-.81,2.77-1.64,4.16-2.48l.65,0c.72,0,1.43,0,2.13.08-1.36.83-2.73,1.64-4.08,2.43l-1.77,1,.32.54,1.77-1c1.58-.93,3.21-1.89,4.8-2.87q1.14.12,2.25.32l-4,2.36-2.51,1.46.32.54,2.51-1.46c1.54-.9,3.08-1.79,4.6-2.71h0c.84.18,1.67.38,2.48.62-1.48.91-3,1.79-4.47,2.65l-2,1.18.32.54,2-1.18c1.62-.94,3.29-1.92,4.92-2.92l0,0c.78.26,1.55.55,2.3.87-1.47.9-3,1.77-4.43,2.62l-2.06,1.2-.27.16.32.54.27-.16,2.06-1.2c1.59-.92,3.22-1.87,4.82-2.85.78.35,1.55.74,2.3,1.16-1.48.91-3,1.79-4.48,2.65l-2,1.19-.27.16.32.54.27-.16,2-1.19c1.57-.91,3.19-1.85,4.77-2.82h0c.74.44,1.46.92,2.17,1.42l-.13.08c-1.53.92-3.08,1.82-4.63,2.71l-2.45,1.42-.27.16.31.54.27-.16,2.44-1.42c1.55-.9,3.1-1.79,4.64-2.72l.27-.16-.12-.2c.74.54,1.46,1.12,2.14,1.73l-.15.09c-1.46.89-3,1.75-4.42,2.58l-2.47,1.42-.27.16.31.54.27-.16,2.47-1.41c1.46-.83,3-1.69,4.44-2.59l.27-.16-.1-.17q.89.82,1.72,1.7l-.16.09c-1.36.82-2.77,1.62-4.13,2.39-.92.52-1.85,1-2.77,1.58l-.27.16.31.54.27-.16c.92-.53,1.84-1.05,2.76-1.57,1.37-.77,2.78-1.57,4.15-2.4l.25-.15q.87,1,1.65,2l0,0c-1.41.86-2.87,1.68-4.28,2.48l-2.76,1.58-.27.16.31.54.27-.16c.91-.53,1.83-1.06,2.75-1.58,1.41-.8,2.88-1.63,4.29-2.49l.08,0a30.8,30.8,0,0,1,3.62,6.6l1.77,4.46,4.56-1.51a23,23,0,0,1,4.45-1c-1.37.83-2.75,1.65-4.09,2.44l-1.54.91.32.55,1.54-.91c1.67-1,3.4-2,5.08-3l.13-.08c.44,0,.88-.05,1.33-.05s1.05,0,1.57.08l-.16.1c-1.62,1-3.3,2-4.92,2.94l-1.87,1.1.32.55,1.87-1.1c1.62-1,3.3-1.94,4.93-2.95l.27-.17-.29-.47a22.77,22.77,0,0,1,6.39,1.42L346,400c-1.64,1-3.34,2-5,3l-2.1,1.23.32.55,2.1-1.23c1.64-1,3.35-1.95,5-3l.27-.17-.29-.47a22.91,22.91,0,0,1,2.77,1.29c-1.62,1-3.29,2-4.9,2.9l-2.1,1.22-.27.16.32.55.27-.16,2.1-1.22c1.69-1,3.43-2,5.12-3l.09-.06a23.2,23.2,0,0,1,2.06,1.36c-1.51.93-3.06,1.83-4.57,2.7l-2.09,1.22-.27.16.32.55.27-.16,2.09-1.22c1.58-.92,3.21-1.87,4.8-2.84a23.32,23.32,0,0,1,1.87,1.66c-1.46.87-2.93,1.72-4.4,2.57L347.22,409l-.27.16.32.55.28-.16,2.52-1.46c1.52-.88,3-1.75,4.54-2.66a23.13,23.13,0,0,1,1.6,1.84c-1.25.75-2.51,1.47-3.75,2.18l-2.53,1.45-.28.16.32.55.28-.16,2.52-1.44c1.26-.72,2.56-1.46,3.83-2.22.34.46.65.94,1,1.42-1.22.72-2.46,1.43-3.67,2.12-.94.53-1.87,1.06-2.8,1.6l-.28.16.32.55.28-.16c.93-.54,1.86-1.07,2.79-1.59,1.21-.69,2.46-1.4,3.68-2.12.28.48.56,1,.81,1.48l-.18.11c-1.44.88-2.93,1.72-4.38,2.54l-2.82,1.62-.28.16.32.55.28-.16c.93-.54,1.87-1.08,2.81-1.61,1.45-.82,2.94-1.67,4.39-2.55l.11-.07a22.81,22.81,0,0,1,.91,2.34l-.07,0c-1.52.92-3.09,1.81-4.6,2.68l-2.45,1.41-.28.16.32.55.28-.16,2.44-1.41c1.5-.86,3-1.75,4.56-2.65a22.62,22.62,0,0,1,.57,2.36c-1.55,1-3.13,1.89-4.67,2.79L354,421.1l.32.54,1.93-1.13c1.47-.86,3-1.76,4.47-2.67.1.64.18,1.28.23,1.93v0c-1.58,1-3.2,1.91-4.77,2.83l-2.08,1.21-.27.16.32.54.27-.16,2.08-1.21c1.48-.86,3-1.75,4.5-2.67l.29,4.18,5.17-.17h.41a19.58,19.58,0,0,1,5.87.9,20.38,20.38,0,0,0-5.5,38.39l-.37,0H249.36A25.44,25.44,0,0,1,238,415.57Z"/><path d="M486.85,399.81l-.21-.35-.17.1c-1,.6-2,1.18-3,1.76l-1.63,1,.21.35,1.63-1c1-.58,2-1.17,3-1.76Z"/></g><path class="cls-16" d="M331.57,410.27c20.48,40,67.81,15.21,70.4,1.17"/><path class="cls-17" d="M328.43,400.36c2.36-1.38,2.76-1.56,5.09-3"/><path class="cls-17" d="M366.5,430.52c2.36-1.38,4.74-2.72,7.08-4.13"/><path class="cls-17" d="M365.71,428c2.27-1.33,4.56-2.63,6.8-4"/><path class="cls-17" d="M364.3,425.88c2.35-1.38,4.73-2.72,7.05-4.16"/><path class="cls-18" d="M334.73,334.15q0,1.35-.06,2.49Q334.7,335.5,334.73,334.15Z"/><path class="cls-18" d="M404.12,361.46v0Z"/><path class="cls-18" d="M404.2,364.71c.35,13.17.65,23.28.65,23.28a50.45,50.45,0,0,1-2.59,16,50.45,50.45,0,0,0,2.59-16S404.55,377.88,404.2,364.71Z"/><path class="cls-18" d="M333.94,265.28c.05,1.25.1,2.63.15,4.14C334,267.91,334,266.54,333.94,265.28Z"/><path class="cls-18" d="M403.58,338.24c0,2.31.1,4.65.15,7C403.67,342.89,403.62,340.54,403.58,338.24Z"/><path class="cls-18" d="M334.25,345.93c0,.78-.05,1.59-.08,2.42C334.19,347.52,334.22,346.71,334.25,345.93Z"/><path class="cls-18" d="M334.56,338.82c0-.59.07-1.26.1-2,0,.74-.06,1.42-.1,2s-.08,1.3-.11,2.08C334.48,340.12,334.52,339.42,334.56,338.82Z"/><path class="cls-18" d="M404.86,307.09a1.44,1.44,0,0,0-.61,1.09A1.44,1.44,0,0,1,404.86,307.09Z"/><path class="cls-18" d="M334.49,285.54c.35-9.81.45-26.65.45-27,0,.37-.1,16.25-.44,26.64Z"/><path class="cls-18" d="M403.9,352.65l0,1.83Z"/><path class="cls-18" d="M403.26,311.54q0-.93,0-1.92,0,1,0,1.92c0,6.22.1,16.09.31,26.7C403.36,327.63,403.22,317.76,403.26,311.54Z"/><path class="cls-18" d="M333.65,259.1c0,.54.06,1.12.09,1.75C333.71,260.22,333.68,259.64,333.65,259.1Z"/><path class="cls-18" d="M332.46,308.31c0-.22,0-.46,0-.72,0,.27,0,.51,0,.72,0,3.87-.24,22.93-.41,39.82C332.22,331.24,332.41,312.17,332.46,308.31Z"/><path class="cls-18" d="M331.73,377.85c0,.48,0,1,0,1.57C331.74,378.86,331.73,378.33,331.73,377.85Z"/><path class="cls-18" d="M333.59,375.46c0-.9,0-1.85,0-2.83C333.62,373.61,333.61,374.56,333.59,375.46Z"/><path class="cls-18" d="M383.58,368.62c.89-.33,3.76-3,4.85-7.09l-.18-.1C387.09,365.61,384.48,368.28,383.58,368.62Z"/><path class="cls-18" d="M329.18,353.92c0,1.67-.06,3.07-.12,4.16C329.11,357,329.15,355.59,329.18,353.92Z"/><path class="cls-18" d="M375.83,376.87A29.69,29.69,0,0,1,370.1,378,26.8,26.8,0,0,0,375.83,376.87Z"/><path class="cls-18" d="M333.49,382.68v0Z"/><path class="cls-18" d="M335.38,400.8a68.52,68.52,0,0,1-1.91-16.38s0-.63,0-1.74c0,1.11,0,1.74,0,1.74A68.52,68.52,0,0,0,335.38,400.8Z"/><path class="cls-18" d="M372.74,372.7a11.93,11.93,0,0,1-1.27.05h0A12,12,0,0,0,372.74,372.7Z"/><path class="cls-18" d="M364.3,370.67a18.11,18.11,0,0,1-3.14-1.32,18.11,18.11,0,0,0,3.14,1.32c1,.9,3.09,2,7.14,2.08C367.39,372.69,365.32,371.57,364.3,370.67Z"/><path class="cls-19" d="M334.95,258.52l-.7-17.8h0L333,210c.72-11.75,6.38-17.8,12.19-20.91,6.57-3.52,11.49-3.29,11.49-3.29,26.74,5.47,28.47,31.36,28.47,31.36-.45,4.6-.08,94.3.05,109,0,15.48-1,26.32-1,26.32-.55,16.89-14.81,17.85-14.81,17.85a19.55,19.55,0,0,1-6.07-.78c-5.78-1.73-9.26-6.09-11.34-10.55-.44-.94-.81-1.89-1.14-2.82L348,325.78l-.92-9.52L346,316l-1.29-.27-.52-.09-1.28-.23a17.84,17.84,0,0,0-2.65.79,16.12,16.12,0,0,0-1.72.78c.31,7.54.57,4,.59,11.66h0v0c0,2.42,0,4.5-.09,6.1.15,4.59.63,9.71.81,11.62a49.7,49.7,0,0,0,.11,5.45,45.69,45.69,0,0,0,3.17,10.49,34,34,0,0,0,5.31,7.65,31.08,31.08,0,0,0,8.32,6.41c.55.14,1.11.25,1.68.34a23.39,23.39,0,0,0,5.57,2c17.68,4.33,26.61-9.8,27.75-11.75a35.55,35.55,0,0,0,3.78-15l-.44-26,0-1,.94-96.8c0-.29,0-.65,0-1.07.06-3.24.08-8.15,0-10.58-.1-4.71-.42-5.53-1.66-10q-.5-1.83-1.05-3.63c-.77-1.71-1.48-3.1-1.48-3.1-3.15-9.25-13-23.47-25-26.68-7.34-2-17.8-1.51-25.78,3-21,11.79-17.27,31.65-16.75,46s3.16,52.6,3.16,52.6c.59,21.66-.18,89.23-.18,89.23.62,11.42-4.77,39.47,10.66,56.2s41.69,9.73,41.69,9.73c30-11.28,28.14-41.3,27.75-47.21S405.88,331,405.88,331c-.35-13-.33-21-.33-21a10.37,10.37,0,0,1,.62-3.71c-.2.52.22-2.13.15-3.93-2.06-1-7.68-1.44-9.27-1.42h0s-.28,5,.25,46.8c0,.11,2.49,29.5,2.76,39,.3,10.64-3.26,29.68-23.68,35.33a74.68,74.68,0,0,1-12.93.75c-5.46-1-11.31-2.48-12.93-2.89l-1-.44a24.53,24.53,0,0,1-7.77-7.8s-6.11-8.87-6.33-19.21c0,0-.8-25.22.17-32.24.94-6.83.94-5.35.91.08.08-10.68.21-21.25.42-26.51,0,0,0,.16,0,.45a45,45,0,0,1,.12-4.95c-.09-1.74-.32-6.39-.27-10.55,0,.47-.09.89-.13,1.27l-1.74-61.47m69,96,0-1.83Zm.17,6.88v0Zm-72.37,18.05c0-.56,0-1.09,0-1.57C331.73,378.33,331.74,378.86,331.74,379.42Z"/><path class="cls-17" d="M397.9,316.37c2.28-1.34,4.57-2.65,6.84-4"/><path class="cls-17" d="M398.21,313.35c2.13-1.26,4.26-2.49,6.37-3.79"/><path class="cls-17" d="M398.48,310.12c2.07-1.23,4.16-2.44,6.21-3.71"/><path class="cls-17" d="M399.23,305.62c1.78-1,3.57-2,5.33-3.07"/><path class="cls-17" d="M398,328.25c2.36-1.38,4.74-2.72,7.08-4.13"/><path class="cls-17" d="M398.09,325.35c2.27-1.33,4.56-2.63,6.8-4"/><path class="cls-17" d="M397.8,322.5c2.35-1.38,4.73-2.72,7.05-4.16"/><path class="cls-17" d="M398.08,319.5c2.22-1.31,4.46-2.58,6.66-3.94"/><path class="cls-17" d="M398.47,339.88c2.3-1.34,4.62-2.63,6.9-4"/><path class="cls-17" d="M398.42,337c2.34-1.37,4.72-2.66,7-4.07"/><path class="cls-17" d="M398.28,334c2.29-1.34,4.63-2.59,6.9-4"/><path class="cls-17" d="M398.1,331.31c2.3-1.34,4.63-2.61,6.9-4"/><path class="cls-17" d="M399,353.16c.57-.36,5.92-3.33,6.49-3.7"/><path class="cls-17" d="M398.34,348.51c2.37-1.39,4.78-2.71,7.12-4.15"/><path class="cls-17" d="M398.42,345.46c2.36-1.38,4.73-2.73,7.06-4.17"/><path class="cls-17" d="M398.54,342.59c2.29-1.35,4.6-2.68,6.86-4.09"/><path class="cls-17" d="M401.73,387.49c1.63-1,3.26-2.07,4.89-3.09"/><path class="cls-17" d="M401.65,384.7l4.87-3.08"/><path class="cls-17" d="M403.2,380.64l3.13-2"/><path class="cls-17" d="M404.54,377l1.75-1.1"/><path class="cls-17" d="M401.8,392.76c1.63-1,3.25-2,4.85-3"/><path class="cls-17" d="M401.58,390.55c1.73-1.07,3.45-2.16,5.17-3.24"/><path class="cls-17" d="M400.76,409l2.44-1.55"/><path class="cls-17" d="M399.49,408.12l2.78-1.76"/><path class="cls-20" d="M327.86,236.67l5.28-3.24"/><path class="cls-20" d="M327.57,233.85c1.71-1.08,3.44-2.14,5.16-3.22"/><path class="cls-20" d="M326.31,231.51c2.17-1.37,4.36-2.7,6.53-4.08"/><path class="cls-20" d="M325.65,229c2.32-1.47,4.67-2.89,7-4.36"/><path class="cls-20" d="M327.71,249c2-1.21,3.92-2.39,5.88-3.6"/><path class="cls-20" d="M327.73,246c1.94-1.21,3.89-2.38,5.82-3.59"/><path class="cls-20" d="M327.91,242.77c1.82-1.14,3.64-2.27,5.45-3.43"/><path class="cls-20" d="M327.69,240c1.86-1.17,3.74-2.32,5.59-3.51"/><path class="cls-20" d="M328.37,260.22c1.9-1.17,3.86-2.23,5.76-3.39"/><path class="cls-20" d="M327.82,257.6c2-1.26,4-2.37,6-3.61"/><path class="cls-20" d="M327.53,254.6c2.05-1.32,4.18-2.48,6.25-3.76"/><path class="cls-20" d="M327.41,251.87c2-1.28,4.11-2.49,6.14-3.78"/><path class="cls-20" d="M329.1,273.53l4.43-2.91"/><path class="cls-20" d="M329.18,270.55c1.47-1,2.94-1.94,4.39-2.93"/><path class="cls-20" d="M329,267.51c1.5-1,3-2,4.5-3"/><path class="cls-20" d="M328.81,263.46c1.87-1.21,3.75-2.4,5.59-3.65"/><path class="cls-20" d="M329.26,285.75c1.58-1,3.17-2.06,4.75-3.1"/><path class="cls-20" d="M329.38,282.71c1.49-1,3-2,4.48-3"/><path class="cls-20" d="M329.23,279.7c1.48-1,3-1.94,4.43-2.92"/><path class="cls-20" d="M329.07,276.89c1.5-1,3-2,4.5-3"/><path class="cls-20" d="M329.39,297.92c1.91-1.28,3.85-2.51,5.77-3.77"/><path class="cls-20" d="M329.09,295.14c1.85-1.29,3.77-2.48,5.66-3.71"/><path class="cls-20" d="M329,292.06c1.83-1.26,3.72-2.43,5.58-3.64"/><path class="cls-20" d="M329.31,288.92c1.66-1.11,3.35-2.17,5-3.27"/><path class="cls-20" d="M331.3,310.67c1.41-1,2.87-1.85,4.3-2.77"/><path class="cls-20" d="M329,307c2.14-1.51,4.36-2.89,6.55-4.32"/><path class="cls-20" d="M329.66,303.46c2-1.32,4-2.6,5.92-3.91"/><path class="cls-20" d="M329.43,300.73c1.94-1.3,3.89-2.58,5.83-3.88"/><path class="cls-20" d="M325.78,225.54c2.27-1.26,4.43-2.72,6.65-4.09"/><path class="cls-20" d="M326.14,221.94c2.06-1.31,4.06-2.71,6.09-4.07"/><path class="cls-20" d="M325.38,218.72c2.26-1.47,4.5-3,6.75-4.48"/><path class="cls-21" d="M326.18,213.64c2-1.33,3.91-2.69,5.86-4"/><path class="cls-21" d="M326.35,210.11c1.93-1.27,3.85-2.57,5.78-3.83"/><path class="cls-21" d="M325.77,207.42l6.22-4.31"/><path class="cls-21" d="M325.74,204.47l6.37-4.58"/><path class="cls-21" d="M326,201.61l8.2-5.9"/><path class="cls-21" d="M325.87,199l8.26-5.94"/><path class="cls-21" d="M326,196c2.71-2,5.43-3.9,8.14-5.86"/><path class="cls-21" d="M326,193.42c2.75-2,5.51-4,8.26-5.95"/><path class="cls-21" d="M325.92,190.74c2.18-1.52,4.37-3,6.54-4.56"/><path class="cls-20" d="M385.48,335.14c3-2.07,6.09-3.93,9.17-5.82"/><path class="cls-20" d="M385.67,332.07c2.93-2.06,6-3.92,9-5.81"/><path class="cls-20" d="M385.76,328.83c2.91-2,5.94-3.83,8.93-5.71"/><path class="cls-20" d="M385.73,325.91c2.86-2,5.85-3.77,8.8-5.61"/><path class="cls-20" d="M386.46,346.74c2.63-1.83,5.38-3.47,8.1-5.14"/><path class="cls-20" d="M386.2,343.91c2.75-2,5.65-3.67,8.51-5.44"/><path class="cls-20" d="M385.71,341.16c2.94-2,6-3.9,9-5.81"/><path class="cls-20" d="M385.68,338.25c2.93-2,6-3.89,9-5.79"/><path class="cls-20" d="M390.68,352.66c.54-.36,1.1-.7,1.66-1"/><path class="cls-20" d="M390,349.91c.76-.52,1.54-1,2.33-1.48"/><path class="cls-20" d="M388.25,348.26c2-1.4,4.17-2.64,6.26-3.93"/><path class="cls-20" d="M387.22,371.83c.63-.45,1.26-.88,1.9-1.31"/><path class="cls-20" d="M386.65,369.3c1.19-.84,2.4-1.65,3.61-2.46"/><path class="cls-20" d="M386,366.6c1.75-1.23,3.52-2.41,5.3-3.6"/><path class="cls-20" d="M389.54,359.94c.92-.64,1.86-1.24,2.79-1.85"/><path class="cls-20" d="M388.22,320.58a10.43,10.43,0,0,0-1,.64,77.77,77.77,0,0,0,7.33-4.29"/><path class="cls-20" d="M389.66,316.58c1.71-1.09,3.39-2.25,5.08-3.39"/><path class="cls-20" d="M387.2,314.45c2.5-1.57,4.94-3.24,7.4-4.87"/><path class="cls-20" d="M386.58,311c2.74-1.81,5.44-3.69,8.14-5.56"/><path class="cls-20" d="M387.2,304.16c2.5-1.57,4.94-3.24,7.4-4.87"/><path class="cls-20" d="M387.2,296.32c2.5-1.57,4.94-3.24,7.4-4.87"/><path class="cls-20" d="M386.58,300.74c2.74-1.81,5.44-3.69,8.14-5.56"/><path class="cls-20" d="M385.41,287.85c3-2.07,6.09-3.93,9.17-5.82"/><path class="cls-20" d="M385.59,284.78c2.93-2.06,6-3.92,9-5.81"/><path class="cls-20" d="M385.69,281.54c2.91-2,5.94-3.83,8.93-5.71"/><path class="cls-20" d="M385.66,278.63c2.86-2,5.85-3.77,8.8-5.61"/><path class="cls-20" d="M385.63,293.88c2.94-2,6-3.9,9-5.81"/><path class="cls-20" d="M385.6,291c2.93-2,6-3.89,9-5.79"/><path class="cls-20" d="M388.17,306.94c2-1.4,4.17-2.64,6.26-3.93"/><path class="cls-20" d="M388.14,273.3a10.43,10.43,0,0,0-1,.64,77.77,77.77,0,0,0,7.33-4.29"/><path class="cls-20" d="M387.12,267.16c2.5-1.57,4.94-3.24,7.4-4.87"/><path class="cls-20" d="M385.41,256.25c3-2.07,6.09-3.93,9.17-5.82"/><path class="cls-20" d="M385.59,253.18c2.93-2.06,6-3.92,9-5.81"/><path class="cls-20" d="M385.69,249.94c2.91-2,5.94-3.83,8.93-5.71"/><path class="cls-20" d="M385.66,247c2.86-2,5.85-3.77,8.8-5.61"/><path class="cls-20" d="M386.39,270.84c2.7-1.88,5.31-3.42,8.1-5.14"/><path class="cls-20" d="M386.12,265c2.75-2,5.65-3.67,8.51-5.44"/><path class="cls-20" d="M385.63,262.28c2.94-2,6-3.9,9-5.81"/><path class="cls-20" d="M385.6,259.36c2.93-2,6-3.89,9-5.79"/><path class="cls-20" d="M388.14,241.7a10.43,10.43,0,0,0-1,.64A77.77,77.77,0,0,0,394.5,238"/><path class="cls-20" d="M389.59,237.69c1.71-1.09,3.39-2.25,5.08-3.39"/><path class="cls-20" d="M387.12,235.56c2.5-1.57,4.94-3.24,7.4-4.87"/><path class="cls-20" d="M386.51,231.49c2.74-1.81,5.44-3.69,8.14-5.56"/><path class="cls-20" d="M386.79,229c2.7-1.7,5.34-3.5,8-5.26"/><path class="cls-20" d="M386.52,226.21c2.86-2,5.71-3.94,8.56-5.92"/><path class="cls-20" d="M386.58,223.3c2.87-2.09,5.75-4.15,8.63-6.22"/><path class="cls-20" d="M386.64,220.57c2.79-2,5.61-4,8.41-6.07"/><path class="cls-20" d="M386.8,217.78c2.6-1.9,5.22-3.76,7.83-5.64"/><path class="cls-20" d="M387.15,214.56c2.27-1.66,4.56-3.29,6.84-4.93"/><path class="cls-20" d="M387.38,211.88c2-1.46,4-2.91,6-4.36"/><path class="cls-20" d="M387.71,208.85c1.62-1.16,3.26-2.29,4.9-3.43"/><path class="cls-20" d="M377.62,195.23c1.45-3.52,3.12-6.94,4.74-10.38"/><path class="cls-20" d="M376.24,192.55c1.42-3.48,3-6.87,4.61-10.27"/><path class="cls-20" d="M374.69,189.79c1.31-3.18,2.79-6.26,4.24-9.36"/><path class="cls-20" d="M373.2,187.37c1.18-2.87,2.51-5.65,3.82-8.45"/><path class="cls-20" d="M384.27,204.34c1.28-3.11,2.76-6.13,4.19-9.16"/><path class="cls-20" d="M382.63,202.13c1.32-3.29,2.88-6.46,4.38-9.66"/><path class="cls-20" d="M380.84,200.13c1.42-3.48,3-6.86,4.61-10.26"/><path class="cls-20" d="M379.35,197.71c1.15-2.81,2.43-5.55,3.71-8.29"/><path class="cls-20" d="M388.84,204.84c.38-.89.79-1.77,1.21-2.64"/><path class="cls-20" d="M386.52,204.54c1-2.39,2.15-4.71,3.25-7"/><path class="cls-20" d="M372.6,181.42c-.18.37-.34.74-.49,1.12a51.86,51.86,0,0,0,2.6-5"/><path class="cls-22" d="M350.38,178.8l-3.93-4.92"/><path class="cls-22" d="M347.65,179.78,344,175.22"/><path class="cls-22" d="M345.37,181.27l-4-5"/><path class="cls-22" d="M342.59,182.63l-3.77-4.71"/><path class="cls-22" d="M340.5,184.09l-3.75-4.68"/><path class="cls-22" d="M337.94,185.43c-1.12-1.4-2.22-2.82-3.32-4.24"/><path class="cls-23" d="M343.9,352.5c2.1-1.31,4.23-2.59,6.34-3.89"/><path class="cls-23" d="M343.37,349.85c2.2-1.41,4.43-2.78,6.65-4.17"/><path class="cls-23" d="M342.76,347.09c2.31-1.48,4.66-2.89,7-4.36"/><path class="cls-23" d="M342.34,344.43c2.39-1.53,4.81-3,7.21-4.5"/><path class="cls-23" d="M347.38,362.6c1.54-1,3.09-1.89,4.62-2.87"/><path class="cls-23" d="M346.3,360.24c1.78-1.11,3.57-2.2,5.33-3.34"/><path class="cls-23" d="M345.31,357.77c2.11-1.34,4.24-2.65,6.33-4"/><path class="cls-23" d="M344.7,355.21c2.07-1.3,4.15-2.58,6.2-3.91"/><path class="cls-23" d="M349.67,366.75c.6-.36,1.19-.72,1.78-1.1"/><path class="cls-23" d="M348.52,364.59c.94-.58,1.88-1.16,2.8-1.78"/><path class="cls-23" d="M342.18,341.08c2.4-1.27,4.66-2.81,7-4.24"/><path class="cls-23" d="M343.23,337.12c2.06-1.31,4.06-2.71,6.09-4.07"/><path class="cls-23" d="M341.81,334.32c2.56-1.64,3.87-2.77,6.42-4.44"/><path class="cls-23" d="M341.86,329.77c2.5-1.69,3.79-2.81,6.27-4.54"/><path class="cls-23" d="M341.41,326.61c2.69-1.72,4.14-2.94,6.82-4.69"/><path class="cls-23" d="M343,320.61l4.45-3.2"/><path class="cls-23" d="M342.92,323.87l4.3-3"/><path class="cls-20" d="M326.73,366.23c2.67-1.85,5.44-3.52,8.19-5.22"/><path class="cls-20" d="M326.92,363.16c2.62-1.84,5.34-3.51,8-5.21"/><path class="cls-20" d="M327,359.92c2.6-1.81,5.32-3.44,8-5.12"/><path class="cls-20" d="M327,357c2.72-1.89,5.55-3.58,8.34-5.33"/><path class="cls-20" d="M327.71,377.84c2.23-1.55,4.55-3,6.85-4.37"/><path class="cls-20" d="M327.45,375c2.28-1.62,4.68-3.06,7-4.53"/><path class="cls-20" d="M327,372.26c2.46-1.72,5-3.29,7.55-4.88"/><path class="cls-20" d="M326.93,369.34c2.54-1.77,5.19-3.38,7.8-5"/><path class="cls-21" d="M332.14,386.58c.82-.53,1.66-1,2.5-1.51"/><path class="cls-21" d="M331.93,383.76c.87-.58,1.77-1.11,2.67-1.64"/><path class="cls-20" d="M331.28,381c1.05-.72,2.16-1.36,3.25-2"/><path class="cls-20" d="M329.49,379.36c1.66-1.14,3.39-2.17,5.1-3.22"/><path class="cls-21" d="M331.59,394.72l2.76-1.84"/><path class="cls-20" d="M330.79,391c1.27-.88,2.57-1.71,3.86-2.54"/><path class="cls-20" d="M329.47,351.68a10.43,10.43,0,0,0-1,.64,68.91,68.91,0,0,0,6.67-3.89"/><path class="cls-20" d="M330.91,347.67c1.57-1,3.1-2.06,4.65-3.1"/><path class="cls-20" d="M328.44,345.54c2.5-1.57,4.94-3.24,7.4-4.87"/><path class="cls-20" d="M327.83,341.47c2.62-1.74,5.21-3.53,7.81-5.32"/><path class="cls-20" d="M328,337.83c2.54-1.6,5-3.29,7.54-5"/><path class="cls-20" d="M327.77,335.06q3.88-2.65,7.73-5.34"/><path class="cls-20" d="M327.83,332.15c2.56-1.87,5.13-3.71,7.71-5.56"/><path class="cls-20" d="M327.88,329.42c2.57-1.88,5.16-3.74,7.75-5.59"/><path class="cls-20" d="M328,326.63c2.53-1.84,5.07-3.66,7.61-5.48"/><path class="cls-20" d="M328.39,323.41c2.49-1.82,5-3.61,7.5-5.41"/><path class="cls-20" d="M328.62,320.73c2.38-1.74,4.78-3.46,7.18-5.18"/><path class="cls-20" d="M329,317.69c2.28-1.64,4.6-3.22,6.9-4.82"/><path class="cls-21" d="M333.23,406.32l2.35-1.69"/><path class="cls-20" d="M331.28,405l3.71-2.68"/><path class="cls-20" d="M330.43,403l4.15-3"/><path class="cls-20" d="M330.78,399.77l3.06-2.22"/><path class="cls-20" d="M331,397.09l2-1.49"/><path class="cls-24" d="M383.34,422.47l4.36,2.25"/><path class="cls-24" d="M390.51,418.52l3.53,2.15"/><path class="cls-24" d="M392.65,417l3.52,2.13"/><path class="cls-25" d="M395.23,415.53l3.16,1.92"/><path class="cls-25" d="M397.62,414.23l1.76,1.07"/><path class="cls-24" d="M385.7,420.9c1.37.88,2.75,1.74,4.14,2.59"/><path class="cls-24" d="M388,420l3.82,2.33"/><path class="cls-24" d="M380.05,425.07c1.14.73,2.3,1.44,3.45,2.15"/><path class="cls-24" d="M381.68,423.69,385.5,426"/><path class="cls-24" d="M363.27,425.73l2.73,4.35"/><path class="cls-24" d="M370.46,424.78c1,1.77,1.93,3.54,2.88,5.32"/><path class="cls-24" d="M373,424.66l2.87,5.29"/><path class="cls-24" d="M376.74,426.32l1.84,3.4"/><path class="cls-24" d="M380.12,427.74l1,1.9"/><path class="cls-24" d="M365.65,424.93c.89,1.78,1.82,3.53,2.76,5.28"/><path class="cls-24" d="M367.86,425c.93,1.75,1.88,3.5,2.82,5.24"/><path class="cls-24" d="M359,425.79c.71,1.39,1.44,2.76,2.18,4.14"/><path class="cls-24" d="M361.28,425.88l2.22,4.12"/><path class="cls-24" d="M342.44,419.72l1,4.7"/><path class="cls-24" d="M349.78,423.84q.27,1.74.53,3.48"/><path class="cls-24" d="M352.2,424.72q.27,1.73.54,3.47"/><path class="cls-24" d="M354.73,425.13q.3,1.95.6,3.89"/><path class="cls-24" d="M345.23,422.48q.21,1.5.44,3"/><path class="cls-24" d="M347.31,423.44l.46,3"/><path class="cls-24" d="M338.38,417.68c.21,1.58.44,3.15.68,4.72"/><path class="cls-24" d="M340.31,417.79c.27,1.86.56,3.72.85,5.57"/><path class="cls-26" d="M346.87,203.56s-19.59,2.05-30,13.51-3.36,25-1.81,25.35-3.68-11,6.39-21.2c0,0,8.54-11.38,26.36-15.17C347.81,206,349,206.4,346.87,203.56Z"/><path class="cls-26" d="M375,202.69s19.65-1.44,31.92,8,7.74,24.06,6.25,24.63,1.67-11.49-10-19.74c0,0-10.42-9.69-28.62-10.28C374.49,205.3,373.39,205.87,375,202.69Z"/><path class="cls-15" d="M389.94,279.67c-5-.06-10.4-4.87-13.19-12.23-3.4-9-1.6-18.29,4-20.86a7.27,7.27,0,0,1,3.13-.65c5,.06,10.39,4.87,13.19,12.23,3.4,9,1.6,18.29-4,20.85A7.25,7.25,0,0,1,389.94,279.67Zm-3.49-44.36a11.5,11.5,0,0,0-3.78.59c-8.82,2.92-13.15,15.94-9.68,29.08,3,11.29,10.76,19,18.48,19.08a11.52,11.52,0,0,0,3.77-.59c8.82-2.93,13.15-15.94,9.68-29.08C401.95,243.1,394.18,235.4,386.46,235.31Z"/><path class="cls-26" d="M407.41,253.64l-.57.15A38.4,38.4,0,0,1,408.13,264a29.6,29.6,0,0,1-3.34,13.81,15.82,15.82,0,0,1-8.69,7.76,12.72,12.72,0,0,1-4.17.65c-4.17,0-8.4-2.12-12-5.75a33.37,33.37,0,0,1-8.21-15,38.39,38.39,0,0,1-1.29-10.24,29.58,29.58,0,0,1,3.34-13.81,15.82,15.82,0,0,1,8.69-7.76,12.7,12.7,0,0,1,4.17-.65c4.17,0,8.4,2.12,12,5.75a33.37,33.37,0,0,1,8.21,15l.57-.15.57-.15A34.54,34.54,0,0,0,399.47,238c-3.77-3.79-8.27-6-12.83-6.1a13.87,13.87,0,0,0-4.55.71,17,17,0,0,0-9.35,8.31,30.74,30.74,0,0,0-3.48,14.36,39.58,39.58,0,0,0,1.33,10.55,34.54,34.54,0,0,0,8.51,15.51c3.77,3.79,8.27,6,12.83,6.1a13.85,13.85,0,0,0,4.55-.71,17,17,0,0,0,9.35-8.31A30.75,30.75,0,0,0,409.31,264,39.59,39.59,0,0,0,408,253.49Z"/><path class="cls-26" d="M391.49,284.06C383.76,284,376,276.27,373,265c-3.47-13.14.86-26.16,9.68-29.08a11.5,11.5,0,0,1,3.78-.59c7.72.09,15.49,7.79,18.48,19.08,3.47,13.14-.86,26.16-9.68,29.08A11.52,11.52,0,0,1,391.49,284.06Zm-4.85-51h0a12.7,12.7,0,0,0-4.17.65,15.82,15.82,0,0,0-8.69,7.76,29.58,29.58,0,0,0-3.34,13.81,38.39,38.39,0,0,0,1.29,10.24,33.37,33.37,0,0,0,8.21,15c3.61,3.63,7.83,5.7,12,5.75h0a12.72,12.72,0,0,0,4.17-.65,15.82,15.82,0,0,0,8.69-7.76A29.6,29.6,0,0,0,408.13,264a38.4,38.4,0,0,0-1.29-10.24l.57-.15-.57.15a33.37,33.37,0,0,0-8.21-15C395,235.17,390.81,233.1,386.64,233Z"/><path class="cls-26" d="M386.64,232.46a13.28,13.28,0,0,0-4.36.68c-10,3.32-15,17.88-11.12,32.51,3.31,12.54,12,21.07,20.77,21.17a13.3,13.3,0,0,0,4.36-.68c10-3.32,15-17.87,11.12-32.51l-.57.15A38.4,38.4,0,0,1,408.13,264a29.6,29.6,0,0,1-3.34,13.81,15.82,15.82,0,0,1-8.69,7.76,12.72,12.72,0,0,1-4.17.65h0c-4.17,0-8.39-2.12-12-5.75a33.37,33.37,0,0,1-8.21-15,38.39,38.39,0,0,1-1.29-10.24,29.58,29.58,0,0,1,3.34-13.81,15.82,15.82,0,0,1,8.69-7.76,12.7,12.7,0,0,1,4.17-.65h0c4.17,0,8.39,2.12,12,5.75a33.37,33.37,0,0,1,8.21,15l.57-.15C404.1,241.1,395.37,232.57,386.64,232.46Z"/><path class="cls-15" d="M376.76,267.44c-3.4-9-1.6-18.29,4-20.86s12.92,2.63,16.32,11.58,1.6,18.29-4,20.85S380.15,276.39,376.76,267.44Z"/><path class="cls-26" d="M384.85,252a5.16,5.16,0,0,0-2.12.42c-3.86,1.66-5.27,7.74-3.17,13.6,1.73,4.81,5.3,8,8.66,8a5.16,5.16,0,0,0,2.12-.42c3.85-1.66,5.27-7.75,3.17-13.6C391.78,255.22,388.21,252.07,384.85,252Z"/><path class="cls-15" d="M334.56,283.46h-.14c-6.17-.19-10.42-8.07-9.51-17.6s6.58-17,12.7-16.93h.13c6.17.19,10.42,8.07,9.5,17.61S340.67,283.53,334.56,283.46ZM338,238.2c-8.73-.1-17.5,9.31-20.06,21.9-2.7,13.32,2.57,25.16,11.77,26.44a11.73,11.73,0,0,0,1.5.11c8.73.1,17.5-9.31,20.06-21.9,2.7-13.32-2.56-25.16-11.77-26.44A12,12,0,0,0,338,238.2Z"/><path class="cls-26" d="M353.84,265.17l-.58-.12a35.78,35.78,0,0,1-8.53,17.19c-4,4.27-8.79,6.75-13.52,6.69a13.13,13.13,0,0,1-1.66-.13c-4.17-.58-7.61-3.11-10-7a27.48,27.48,0,0,1-3.7-14.81,37.59,37.59,0,0,1,.76-7,35.78,35.78,0,0,1,8.53-17.2c4-4.27,8.79-6.75,13.52-6.69a13.08,13.08,0,0,1,1.66.13c4.17.58,7.6,3.11,10,7A27.47,27.47,0,0,1,354,258a37.64,37.64,0,0,1-.76,7l.58.12.58.12a38.82,38.82,0,0,0,.79-7.25,28.63,28.63,0,0,0-3.88-15.44,15.33,15.33,0,0,0-10.86-7.51,14.34,14.34,0,0,0-1.81-.14c-5.16-.06-10.25,2.63-14.4,7.06a36.94,36.94,0,0,0-8.82,17.76,38.81,38.81,0,0,0-.78,7.24,28.64,28.64,0,0,0,3.88,15.44A15.33,15.33,0,0,0,329.39,290a14.37,14.37,0,0,0,1.81.14c5.16.06,10.25-2.63,14.39-7.06a36.93,36.93,0,0,0,8.82-17.76Z"/><path class="cls-26" d="M331.22,286.65a11.73,11.73,0,0,1-1.5-.11c-9.2-1.28-14.46-13.12-11.77-26.44,2.56-12.6,11.33-22,20.06-21.9a12,12,0,0,1,1.5.11c9.2,1.28,14.47,13.12,11.77,26.44C348.72,277.35,340,286.76,331.22,286.65Zm7.41-50.53c-4.73-.06-9.53,2.43-13.52,6.69a35.78,35.78,0,0,0-8.53,17.2,37.59,37.59,0,0,0-.76,7,27.48,27.48,0,0,0,3.7,14.81c2.42,3.86,5.86,6.39,10,7a13.13,13.13,0,0,0,1.66.13h0c4.73.06,9.53-2.43,13.51-6.69A35.78,35.78,0,0,0,353.26,265a37.64,37.64,0,0,0,.76-7,27.47,27.47,0,0,0-3.7-14.81c-2.42-3.86-5.86-6.39-10-7a13.08,13.08,0,0,0-1.66-.13Z"/><path class="cls-26" d="M331.23,288.94h0a13.13,13.13,0,0,1-1.66-.13c-4.17-.58-7.61-3.11-10-7a27.48,27.48,0,0,1-3.7-14.81,37.59,37.59,0,0,1,.76-7,35.78,35.78,0,0,1,8.53-17.2c4-4.26,8.79-6.75,13.52-6.69h0a13.08,13.08,0,0,1,1.66.13c4.17.58,7.6,3.11,10,7A27.47,27.47,0,0,1,354,258a37.64,37.64,0,0,1-.76,7,35.78,35.78,0,0,1-8.53,17.19C340.75,286.51,336,289,331.23,288.94Zm7.43-53.4c-9.9-.12-19.79,10.34-22.63,24.36-3,14.84,3,28,13.46,29.5a13.73,13.73,0,0,0,1.73.13c9.89.12,19.78-10.34,22.63-24.36,3-14.84-3-28-13.46-29.5A13.71,13.71,0,0,0,338.65,235.53Z"/><path class="cls-15" d="M324.92,265.85c.92-9.53,6.66-17.11,12.83-16.92s10.42,8.07,9.5,17.61-6.67,17.11-12.83,16.92S324,275.39,324.92,265.85Z"/><path class="cls-26" d="M337.32,253.72c-4.11,0-8,4.72-8.66,10.79s2.12,11.36,6.31,11.58h.21c4.11,0,8-4.72,8.66-10.79s-2.12-11.36-6.3-11.58Z"/></svg>