<?xml version="1.0" encoding="utf-8"?>
<!-- Generator: Adobe Illustrator 22.0.1, SVG Export Plug-In . SVG Version: 6.00 Build 0)  -->
<svg version="1.1" id="Layer_1" xmlns="http://www.w3.org/2000/svg" xmlns:xlink="http://www.w3.org/1999/xlink" x="0px" y="0px"
	 viewBox="0 0 735 852" style="enable-background:new 0 0 735 852;" xml:space="preserve">
<style type="text/css">
	.st0{fill:#005590;}
	.st1{fill:#004064;}
	.st2{fill:#E6B35A;}
	.st3{fill:#F0F5F8;}
	.st4{fill:#FFFFFF;}
	.st5{fill:#80AAC8;}
	.st6{fill:#002A48;}
	.st7{fill:#110B0C;}
</style>
<polyline class="st0" points="716.5,225.5 367.5,24 18.5,225.5 18.5,628.5 367.5,830 716.5,628.5 716.5,225.5 "/>
<title>googlesheets</title>
<path class="st1" d="M734.9,637.4V213.1l-29.3-16.9L427.8,35.8L367.5,1l-60.3,34.8L29.4,196.2L0.1,213.1v424.2l29.3,16.9
	l281.3,162.4l56.9,32.8l56.9-32.8l281.3-162.4L734.9,637.4z M29.4,621.5V231L367.5,35.8L705.6,231v390.5L367.5,816.7L29.4,621.5z"/>
<path class="st2" d="M367,633.9c0.3-0.3,0.6-0.6,0.9-0.9h-0.3C367.5,633.3,367.3,633.6,367,633.9z"/>
<path class="st3" d="M78.6,592.6c-11.4,0-17.1-10-17.1-22.1c0-14.2,7.2-23.2,17.2-23.2c7.7,0,12.8,5.3,14.7,11.8
	c0.5,1.7,0.7,3.4,0.6,5.1v11c0,2-0.3,4.1-0.8,6C91,588.2,85.1,592.6,78.6,592.6 M77,538.6c-13.3,0-26.1,11.8-26.1,32.6
	c0,17,10.3,30,24.7,30c9,0,15.2-4.6,18.4-10.3h0.2v6.8c0,15.5-7.9,21.4-18.7,21.4c-6,0.1-11.9-1.6-17-4.8l-2.6,8.5
	c4.7,3.3,12.3,5.1,19.3,5.1c7.3,0,15.4-1.8,21.1-7.4c5.6-5.3,8.3-14,8.3-28v-35.8c0-7.5,0.2-12.4,0.5-16.9h-9.2l-0.5,9.3H95
	C92.5,544.1,87,538.5,77,538.6"/>
<path class="st3" d="M143.6,594.3c-10.3,0-17.6-10.2-17.6-23.6c0-11.7,5.4-23.9,17.8-23.9s17.4,13.2,17.4,23.6
	C161.2,584.3,153.7,594.3,143.6,594.3 M144.1,538.5c-16,0-28.7,12-28.7,32.6c0,19.4,12.1,31.6,27.8,31.6c14,0,28.9-9.9,28.9-32.6
	C172,551.3,160.8,538.5,144.1,538.5"/>
<path class="st3" d="M207,594.3c-10.3,0-17.6-10.2-17.6-23.6c0-11.7,5.4-23.9,17.8-23.9s17.4,13.2,17.4,23.6
	C224.6,584.3,217,594.3,207,594.3 M207.5,538.5c-16,0-28.7,12-28.7,32.6c0,19.4,12.1,31.6,27.8,31.6c14,0,28.9-9.9,28.9-32.6
	C235.4,551.3,224.1,538.5,207.5,538.5"/>
<path class="st3" d="M269.8,592.6c-11.4,0-17.1-10-17.1-22.1c0-14.2,7.2-23.2,17.2-23.2c7.7,0,12.8,5.3,14.7,11.8
	c0.4,1.7,0.6,3.4,0.6,5.1v11c0,2-0.3,4.1-0.8,6C282.1,588.2,276.3,592.6,269.8,592.6 M268.1,538.6c-13.3,0-26.1,11.8-26.1,32.6
	c0,17,10.3,30,24.7,30c9,0,15.2-4.6,18.4-10.3h0.2v6.8c0,15.5-7.9,21.4-18.7,21.4c-6,0.1-11.9-1.6-17-4.8l-2.6,8.5
	c4.7,3.3,12.3,5.1,19.3,5.1c7.3,0,15.4-1.8,21.1-7.4c5.6-5.3,8.3-14,8.3-28v-35.8c0-7.5,0.2-12.4,0.5-16.9h-9.2l-0.5,9.3h-0.2
	C283.7,544.1,278.2,538.5,268.1,538.6"/>
<polyline class="st3" points="321.3,511.2 310.7,511.2 310.7,601.3 321.3,601.3 321.3,511.2 "/>
<path class="st3" d="M342.6,564.7c0.8-7.7,5.5-18.2,16.2-18.2c11.9,0,14.7,11,14.6,18.2H342.6 M359.6,538.5
	c-16.9,0-27.2,14.6-27.2,33.1s10.7,31,28.5,31c9.2,0,15.6-2,19.3-3.8l-1.8-8c-4,1.8-8.5,3.2-16,3.2c-10.5,0-19.6-6.2-19.9-21.3h40.7
	c0.2-1.7,0.3-3.5,0.4-5.2C383.6,556.2,378.6,538.5,359.6,538.5"/>
<path class="st3" d="M411.8,538.5c-12.5,0-20,8.1-20,18c0,7.4,4.9,13.5,15.3,17.4c7.8,3,10.8,6,10.8,11.3c0,5.1-3.6,9.1-11.2,9.1
	c-5-0.2-9.8-1.7-13.9-4.4l-2.6,8.5c4.9,2.8,10.6,4.3,16.3,4.2c13.8,0,21.7-7.6,21.7-18.4c0-9.1-5.1-14.5-15.2-18.5
	c-7.5-3-11-5.3-11-10.4c0-4.6,3.5-8.4,9.7-8.4c4.2,0,8.3,1.2,11.9,3.6l2.6-8.1C421.7,539.8,416.8,538.4,411.8,538.5"/>
<path class="st3" d="M449.7,511.2h-10.5v90.1h10.5v-37c-0.1-1.8,0.1-3.6,0.7-5.3c1.9-6.1,7.3-11.2,14.1-11.2
	c9.9,0,13.4,8.4,13.4,18.3v35.3h10.5v-36.6c0-21.2-12.5-26.3-20.2-26.3c-3.8,0-7.5,1.1-10.8,3.2c-3.2,1.9-5.8,4.6-7.5,7.9h-0.2
	V511.2"/>
<path class="st3" d="M509.2,564.7c0.8-7.7,5.5-18.2,16.2-18.2c11.8,0,14.7,11,14.6,18.2H509.2 M526.2,538.5
	c-16.9,0-27.2,14.6-27.2,33.1s10.6,31,28.5,31c9.2,0,15.6-2,19.3-3.8l-1.8-8c-4,1.8-8.5,3.2-16,3.2c-10.5,0-19.6-6.2-19.9-21.3h40.7
	c0.2-1.7,0.3-3.5,0.3-5.2C550.2,556.2,545.2,538.5,526.2,538.5"/>
<path class="st3" d="M566.8,564.7c0.8-7.7,5.5-18.2,16.2-18.2c11.8,0,14.7,11,14.6,18.2H566.8 M583.8,538.5
	c-16.9,0-27.2,14.6-27.2,33.1s10.7,31,28.5,31c9.2,0,15.6-2,19.3-3.8l-1.8-8c-4,1.8-8.5,3.2-16,3.2c-10.5,0-19.6-6.2-19.9-21.3h40.7
	c0.2-1.7,0.3-3.5,0.4-5.2C607.8,556.2,602.8,538.5,583.8,538.5"/>
<path class="st3" d="M631.1,522.3l-10.3,2.9v14.7h-9v8.5h9v33.5c0,7.2,1.1,12.7,4.1,16c2.5,3,6.5,4.7,11.4,4.7
	c3.2,0.1,6.4-0.4,9.3-1.5l-0.5-8.4c-2,0.5-4,0.8-6.1,0.8c-5.9,0-7.9-4.3-7.9-11.9v-33.1h15.1v-8.5h-15.1V522.3"/>
<path class="st3" d="M673.2,538.5c-12.5,0-20,8.1-20,18c0,7.4,4.9,13.5,15.3,17.4c7.8,3,10.8,6,10.8,11.3c0,5.1-3.6,9.1-11.2,9.1
	c-5-0.2-9.8-1.7-13.9-4.4l-2.6,8.5c4.9,2.8,10.6,4.3,16.3,4.2c13.8,0,21.7-7.6,21.7-18.4c0-9.1-5.2-14.5-15.2-18.5
	c-7.5-3-11-5.3-11-10.4c0-4.6,3.5-8.4,9.7-8.4c4.2,0,8.3,1.2,11.8,3.6l2.6-8.1C683.1,539.8,678.2,538.4,673.2,538.5"/>
<path class="st4" d="M365.5,797.3l4.5,4.5c1,1,1.9,1.9,2.7,2.9h0.1c-0.4-1.2-0.7-2.5-1-3.8l-1.4-6.3l1.6-0.9l4.7,4.3
	c1.1,1,2.1,2,2.9,2.9h0.1c-0.5-1.3-0.9-2.5-1.2-3.8l-1.6-6.1l1.9-1.1l2.7,12.3l-1.7,1l-4.5-4.1c-1-0.9-2-1.9-2.9-2.9l0,0
	c0.4,1.3,0.8,2.6,1.1,4l1.2,6l-1.7,1l-9.2-8.6L365.5,797.3z"/>
<path class="st4" d="M381.7,787.9l4.5,4.5c1,1,1.9,1.9,2.7,2.9h0.1c-0.4-1.2-0.7-2.5-1-3.8l-1.4-6.3l1.6-0.9l4.7,4.3
	c1.1,1,2.1,2,2.9,2.9h0.1c-0.5-1.3-0.9-2.6-1.2-3.9l-1.6-6.2l1.9-1.1l2.7,12.4l-1.7,1l-4.5-4.1c-1-0.9-2-1.9-2.9-2.9l0,0
	c0.4,1.3,0.8,2.6,1.1,4l1.2,6l-1.7,1l-9.2-8.6L381.7,787.9z"/>
<path class="st4" d="M397.8,778.5l4.5,4.5c1,1,1.9,1.9,2.7,2.9h0.1c-0.4-1.2-0.7-2.5-1-3.8l-1.4-6.3l1.6-0.9l4.7,4.3
	c1.1,1,2.1,2,2.9,2.9h0.1c-0.5-1.3-0.9-2.6-1.2-3.9l-1.6-6.1l1.9-1.1l2.7,12.4l-1.7,1l-4.5-4.1c-1-0.9-2-1.9-2.9-2.9l0,0
	c0.4,1.3,0.8,2.6,1.1,4l1.2,6l-1.7,1l-9.2-8.6L397.8,778.5z"/>
<path class="st4" d="M417.1,779.7c-0.5-0.7-0.3-1.6,0.4-2.1c0,0,0.1,0,0.1-0.1c0.8-0.4,1.7-0.1,2.1,0.7c0.3,0.7,0.1,1.6-0.6,2
	C418.5,780.8,417.6,780.5,417.1,779.7C417.1,779.8,417.1,779.8,417.1,779.7z"/>
<path class="st4" d="M418.5,770.8c-0.7-1.2-1.4-2.3-2-3.2l1.7-1l1.2,2h0.1c-0.4-1.5,0.2-3.2,1.6-4c0.2-0.1,0.4-0.2,0.6-0.2l1,1.8
	c-0.2,0.1-0.5,0.2-0.7,0.3c-1.3,0.8-1.8,2.5-1.1,3.9c0.1,0.3,0.3,0.6,0.4,0.9l3.2,5.6l-1.8,1.1L418.5,770.8z"/>
<path class="st4" d="M428.4,772.1c1,0,2-0.2,2.9-0.7c1.4-0.8,1.6-1.9,1.1-2.7s-1.4-1.1-3.1-0.8c-2.3,0.4-3.8-0.1-4.5-1.4
	c-1-1.7-0.4-3.8,1.8-5.2c0.9-0.5,1.9-0.8,3-0.8l0.3,1.7c-0.9,0-1.7,0.2-2.5,0.6c-0.9,0.3-1.3,1.4-1,2.3c0,0.1,0,0.1,0.1,0.2
	c0.5,0.9,1.4,0.9,3,0.6c2.2-0.4,3.7,0,4.6,1.5c1.1,1.8,0.4,4-2.1,5.4c-1,0.6-2.2,1-3.4,1L428.4,772.1z"/>
<path class="st4" d="M432.8,754.1l1.8,3l2.7-1.6l0.8,1.4l-2.7,1.6l3.3,5.6c0.8,1.3,1.5,1.8,2.6,1.2c0.4-0.2,0.7-0.5,1-0.8l0.9,1.4
	c-0.4,0.5-1,0.9-1.5,1.2c-0.7,0.5-1.7,0.6-2.5,0.4c-1-0.4-1.9-1.3-2.3-2.3l-3.3-5.7l-1.6,0.9l-0.8-1.5l1.6-0.9l-1.5-2.5L432.8,754.1
	z"/>
<path class="st4" d="M452.6,756.8c0.6,1.1,1.2,2,1.8,2.8l-1.7,1l-1.1-1.6l0,0c0,1.7-0.9,3.2-2.3,4c-1.6,1-4.1,1.2-6.3-2.5l-3.6-6.1
	l1.9-1.1l3.4,5.8c1.2,2,2.5,3,4.3,2c1.1-0.7,1.7-1.9,1.5-3.2c-0.1-0.4-0.2-0.7-0.4-1.1l-3.7-6.4l1.9-1.1L452.6,756.8z"/>
<path class="st4" d="M457.5,737.2l7.4,12.6c0.5,0.9,1.2,2,1.7,2.7l-1.7,1l-1.1-1.8l0,0c0.1,1.7-0.9,3.3-2.4,4.1
	c-2.5,1.5-5.7,0.5-7.6-2.7c-2-3.5-1.1-6.9,1.4-8.3c1.2-0.8,2.8-0.9,4.1-0.2l0,0l-3.6-6.2L457.5,737.2z M460.9,747.5
	c-0.2-0.3-0.3-0.5-0.5-0.8c-1-1.1-2.7-1.4-4-0.6c-2,1.1-2.1,3.5-0.8,5.9c1.2,2.1,3.3,3.3,5.3,2.1c1.3-0.8,2-2.4,1.5-3.9
	c-0.1-0.3-0.2-0.6-0.4-0.9L460.9,747.5z"/>
<path class="st4" d="M463.9,736.1c0.4,0.6,0.2,1.5-0.5,1.9c-0.6,0.4-1.5,0.2-1.9-0.5c-0.4-0.6-0.2-1.5,0.4-1.9c0,0,0,0,0.1,0
	C462.6,735.2,463.4,735.4,463.9,736.1C463.8,736,463.9,736,463.9,736.1z M469.6,750.7l-6.1-10.5l1.9-1.1l6.1,10.5L469.6,750.7z"/>
<path class="st4" d="M481,736.9c2.3,3.9,0.6,7.1-2,8.6c-2.8,1.6-6.2,0.8-8.1-2.5c-2-3.5-0.9-6.9,2-8.6S479.1,733.8,481,736.9z
	 M472.8,741.9c1.3,2.3,3.7,3.2,5.5,2.2s2.2-3.6,0.8-5.9c-1-1.8-3.2-3.5-5.5-2.2S471.6,739.9,472.8,741.9L472.8,741.9z"/>
<path class="st4" d="M484.9,740.3c-0.5-0.7-0.3-1.6,0.4-2c0,0,0.1,0,0.1-0.1c0.8-0.4,1.7-0.2,2.1,0.6c0.4,0.8,0.2,1.7-0.6,2.1l0,0
	C486.2,741.3,485.3,741.1,484.9,740.3C484.9,740.4,484.9,740.3,484.9,740.3z"/>
<path class="st4" d="M497.7,733.8c-0.7,1-1.6,1.8-2.6,2.3c-3.2,1.8-6.5,0.9-8.3-2.3c-1.8-2.8-1-6.6,1.8-8.5c0.2-0.1,0.4-0.2,0.6-0.3
	c0.9-0.5,1.9-0.9,3-1l0.4,1.7c-0.9,0-1.7,0.3-2.5,0.8c-2.4,1.4-2.7,3.9-1.4,6.1c1.4,2.4,3.8,3,5.9,1.8c0.8-0.5,1.5-1.1,2-1.9
	L497.7,733.8z"/>
<path class="st4" d="M506.4,722.2c2.2,3.9,0.5,7.1-2,8.6c-2.8,1.6-6.2,0.8-8.1-2.5c-2-3.5-0.9-6.9,2-8.6S504.5,719,506.4,722.2z
	 M498.1,727.1c1.3,2.3,3.6,3.2,5.5,2.2s2.2-3.6,0.8-5.9c-1-1.8-3.2-3.5-5.5-2.2S497,725.1,498.1,727.1z"/>
<path class="st4" d="M507.4,718.5c-0.6-1.1-1.2-2-1.7-2.8l1.7-1l1.1,1.6h0.1c-0.1-1.6,0.8-3.1,2.2-3.8c1.3-0.8,3-0.6,4.2,0.4l0,0
	c0-0.7,0.1-1.4,0.4-2c0.4-0.9,1-1.6,1.9-2.1c1.4-0.8,4-1.1,6.1,2.5l3.6,6.2l-1.9,1.1l-3.5-5.9c-1.2-2-2.6-2.8-4.1-1.9
	c-1,0.6-1.5,1.8-1.2,3c0.1,0.4,0.2,0.7,0.4,1l3.8,6.5l-1.8,1.1l-3.6-6.3c-1-1.7-2.4-2.5-3.9-1.6c-1.1,0.7-1.6,2-1.2,3.3
	c0.1,0.4,0.2,0.7,0.4,1l3.7,6.3l-1.9,1.1L507.4,718.5z"/>
<path class="st5" d="M335.4,403.4L335.4,403.4l2.6-1.5c1.6-0.9,3.1-1.8,4.7-2.8l0.3-0.2l0.3,0.5l-0.3,0.2c-1.5,0.9-3.1,1.9-4.7,2.8
	l-2.6,1.5L335.4,403.4 M315.9,398.1L315.9,398.1l2-1.2c1.5-0.9,2.8-1.6,4.5-2.7l0.3-0.2l0.3,0.5l-0.3,0.2c-1.7,1-3,1.8-4.5,2.7
	l-2,1.2L315.9,398.1 M314.5,396.4L314.5,396.4l0.3-0.1l2.4-1.4c1.5-0.8,3-1.7,4.5-2.6l0.3-0.2l0.3,0.5l-0.3,0.2
	c-1.5,0.9-3,1.8-4.5,2.6l-2.4,1.4l-0.3,0.2L314.5,396.4 M296.2,377.3h-0.6c-1.4,0.9-2.8,1.7-4.2,2.5l-1.6,0.9l-0.3-0.5l1.6-0.9
	c1-0.6,2.1-1.2,3.2-1.9c-0.6,0-1.2,0.1-1.8,0.2c-1.2,0.7-2.4,1.4-3.6,2.1l-1.8,1.1l-0.3-0.5l1.9-1.1l2.2-1.3
	c-10,1.8-18.4,8.5-22.5,17.7l-2.3,5.1l-1.2-0.6l-0.3,0.2l-1.7,1.4l-0.2,0.2l-0.4-0.5l0.2-0.2l1.7-1.4l0.1-0.1l-1.8-1l-0.8,0.7
	l-1.8,1.4l-0.2,0.2l-0.4-0.5l0.2-0.2l1.7-1.4l0.6-0.5l-0.7-0.4c-0.4-0.2-0.7-0.3-1.1-0.5l-4,3.3l-0.4-0.5l3.7-3.1
	c-0.6-0.2-1.2-0.4-1.8-0.5l0.1,0.1l-0.2,0.2c-0.9,0.7-1.7,1.5-2.6,2.2l-1.5,1.3L253,400l1.5-1.3l2.5-2.1c-0.7-0.1-1.3-0.2-2-0.2
	l-0.1,0.1c-1.1,0.9-2.2,1.8-3.2,2.7l-1.3,1.1l-0.4-0.5l1.3-1.1l2.8-2.4c-0.5,0-0.9,0-1.4,0.1l-0.1,0.1c-1.1,0.9-2.2,1.9-3.4,2.8
	l-1.6,1.3l-0.4-0.5l1.6-1.3l2.6-2.1c-6.2,1.5-10.6,7-10.6,13.4c0,0.2,0,0.4,0,0.6l0.2,3.3l-3,1.5c-12.6,6.3-17.7,21.5-11.5,34.1
	c4.3,8.6,13.1,14.1,22.8,14.1h117.9c-7-3.4-11.4-10.5-11.4-18.3l0,0c0-9.9,7.2-18.4,16.9-20.1c-1.9-0.6-3.9-0.9-5.9-0.9h-0.4
	l-5.2,0.2l-0.3-4.2c-1.5,0.9-3,1.8-4.5,2.7l-2.1,1.2l-0.3,0.2l-0.3-0.5l0.3-0.2l2.1-1.2c1.6-0.9,3.2-1.9,4.8-2.8l0,0
	c0-0.7-0.1-1.3-0.2-1.9c-1.5,0.9-3,1.8-4.5,2.7l-1.9,1.1l-0.3-0.5l2-1.1c1.5-0.9,3.1-1.8,4.7-2.8c-0.1-0.8-0.3-1.6-0.6-2.4
	c-1.5,0.9-3,1.8-4.5,2.7l-2.4,1.4l-0.3,0.2l-0.3-0.5l0.3-0.2l2.5-1.4c1.5-0.9,3.1-1.8,4.6-2.7h0.1c-0.3-0.8-0.6-1.6-0.9-2.3
	l-0.1,0.1c-1.5,0.9-3,1.7-4.4,2.5l-2.8,1.6l-0.3,0.2l-0.3-0.5l0.3-0.2l2.8-1.6c1.4-0.8,2.9-1.7,4.4-2.5l0.2-0.1
	c-0.2-0.5-0.5-1-0.8-1.5c-1.2,0.7-2.5,1.4-3.7,2.1c-0.9,0.5-1.9,1.1-2.8,1.6l-0.3,0.2l-0.3-0.5l0.3-0.2c0.9-0.5,1.9-1.1,2.8-1.6
	c1.2-0.7,2.5-1.4,3.7-2.1c-0.3-0.5-0.6-1-1-1.4c-1.3,0.8-2.6,1.5-3.8,2.2c-0.8,0.5-1.7,1-2.5,1.4l-0.3,0.2l-0.3-0.5l0.3-0.2
	c0.8-0.5,1.7-1,2.5-1.5c1.2-0.7,2.5-1.4,3.8-2.2c-0.5-0.6-1-1.3-1.6-1.9c-1.5,0.9-3,1.8-4.5,2.7l-2.5,1.5l-0.3,0.2l-0.3-0.5l0.3-0.2
	c0.8-0.5,1.7-1,2.5-1.5c1.5-0.9,2.9-1.7,4.4-2.6c-0.6-0.6-1.2-1.1-1.9-1.7c-1.6,1-3.2,1.9-4.8,2.9l-2.1,1.2l-0.3,0.2l-0.3-0.5
	l0.3-0.2l2.1-1.2c1.5-0.9,3.1-1.8,4.6-2.7c-0.7-0.5-1.3-0.9-2.1-1.4l-0.1,0.1c-1.7,1-3.4,2-5.1,3l-2.1,1.2l-0.3,0.2l-0.3-0.5
	l0.3-0.2l2.1-1.2c1.6-0.9,3.3-1.9,4.9-2.9c-0.9-0.5-1.8-0.9-2.8-1.3l0.3,0.5l-0.3,0.2c-1.6,1-3.4,2-5,3l-2.1,1.2l-0.3-0.5l2.1-1.3
	c1.6-1,3.3-1.9,5-3l0.2-0.1c-2.1-0.8-4.2-1.3-6.4-1.4l0.3,0.5l-0.3,0.2c-1.6,1-3.3,2-4.9,3l-1.9,1.1l-0.3-0.5l1.9-1.1
	c1.6-1,3.3-1.9,4.9-2.9l0.2-0.1c-0.5,0-1-0.1-1.6-0.1s-0.9,0-1.3,0.1l-0.1,0.1c-1.7,1-3.4,2.1-5.1,3l-1.5,0.9l-0.3-0.5l1.5-0.9
	c1.4-0.8,2.7-1.6,4.1-2.4c-1.5,0.2-3,0.5-4.5,1l-4.6,1.5l-1.8-4.5c-0.9-2.3-2.1-4.6-3.6-6.6l-0.1,0c-1.4,0.9-2.9,1.7-4.3,2.5
	c-0.9,0.5-1.8,1-2.8,1.6l-0.3,0.1l-0.3-0.5l0.3-0.1c0.9-0.5,1.8-1.1,2.8-1.6c1.4-0.8,2.9-1.6,4.3-2.5l0,0c-0.5-0.7-1.1-1.4-1.6-2
	l-0.2,0.1c-1.4,0.8-2.8,1.6-4.1,2.4c-0.9,0.5-1.9,1-2.8,1.6l-0.3,0.2l-0.3-0.5l0.3-0.2l2.8-1.6c1.4-0.8,2.8-1.6,4.1-2.4l0.2-0.1
	c-0.5-0.6-1.1-1.1-1.7-1.7l0.1,0.2l-0.3,0.2c-1.5,0.9-3,1.8-4.4,2.6l-2.5,1.4l-0.3,0.2l-0.3-0.5l0.3-0.2l2.5-1.4
	c1.5-0.8,3-1.7,4.4-2.6l0.1-0.1c-0.7-0.6-1.4-1.2-2.1-1.7l0.1,0.2l-0.3,0.2c-1.5,0.9-3.1,1.8-4.6,2.7c-0.8,0.5-1.6,0.9-2.5,1.4
	l-0.3,0.1l-0.3-0.5l0.3-0.2l2.4-1.4c1.5-0.9,3.1-1.8,4.6-2.7l0.1-0.1c-0.7-0.5-1.4-1-2.2-1.4l0,0c-1.6,1-3.2,1.9-4.8,2.8l-2,1.2
	l-0.3,0.1l-0.3-0.5l0.3-0.2l2-1.2c1.5-0.9,3-1.8,4.5-2.6c-0.7-0.4-1.5-0.8-2.3-1.2c-1.6,1-3.2,1.9-4.8,2.9l-2,1.2l-0.3,0.2l-0.3-0.5
	l0.3-0.2l2.1-1.2c1.5-0.8,3-1.7,4.4-2.6c-0.8-0.3-1.5-0.6-2.3-0.9l0,0c-1.6,1-3.3,2-4.9,2.9l-2,1.2l-0.3-0.5l2-1.2
	c1.5-0.9,3-1.7,4.5-2.6c-0.8-0.2-1.6-0.5-2.5-0.6l0,0c-1.5,0.9-3.1,1.8-4.6,2.7l-2.5,1.5l-0.3-0.5l2.5-1.5c1.3-0.8,2.7-1.6,4-2.4
	c-0.7-0.1-1.5-0.2-2.2-0.3c-1.6,1-3.2,1.9-4.8,2.9l-1.8,1l-0.3-0.5l1.8-1c1.3-0.8,2.7-1.6,4.1-2.4c-0.7,0-1.4-0.1-2.1-0.1"/>
<path class="st6" d="M322,392.1l-0.3,0.2c-1.5,0.9-3,1.8-4.5,2.6l-2.4,1.4l-0.3,0.1l0.3,0.5l0.3-0.2l2.4-1.4c1.5-0.8,3-1.7,4.5-2.6
	l0.3-0.2L322,392.1"/>
<path class="st6" d="M322.7,394.1l-0.3,0.2c-1.7,1-3,1.8-4.5,2.7l-2,1.2l0.3,0.5l2-1.2c1.5-0.9,2.8-1.6,4.5-2.7l0.3-0.2L322.7,394.1
	"/>
<path class="st6" d="M342.9,398.9l-0.3,0.2c-1.6,0.9-3.1,1.8-4.7,2.8l-2.6,1.5l0.3,0.5l2.6-1.5c1.6-0.9,3.1-1.8,4.7-2.8l0.3-0.2
	L342.9,398.9"/>
<path class="st5" d="M481.9,402.3L481.9,402.3l1.6-1c1-0.6,2-1.2,3-1.8l0.2-0.1l0.2,0.4l-0.2,0.1c-1,0.6-2,1.2-3,1.8l-1.6,1
	L481.9,402.3 M443.4,380.9c-0.7,0-1.4,0-2,0.1l0.1,0.1l-0.3,0.2c-1.2,0.8-2.5,1.5-3.8,2.2l-1.8,1l-0.3-0.5l1.9-1
	c1-0.6,2.1-1.2,3.2-1.8c-10.8,1.3-20.1,8.4-24,18.6l-1.5,3.7l-3.8-1.2c-11.9-3.9-24.7,2.5-28.7,14.4c-0.6,1.8-1,3.7-1.1,5.6l-0.3,4
	l-4.2-0.1h-0.5c-10.8,0-19.5,8.7-19.5,19.5s8.7,19.5,19.5,19.5l0,0c3.1,0,6.2-0.7,9-2.2l2.4-1.2l2.1,1.7c7.3,5.8,17.4,6.6,25.5,1.9
	l2.1-1.2l2.1,1.2c6.2,3.6,13.6,4,20.2,1.3l2.5-1.1l2,1.9c9.1,8.5,23.5,8.1,32-1.1c0.3-0.3,0.5-0.6,0.8-0.9l1.8-2.1l2.7,0.8
	c13.2,4.1,27.2-3.3,31.3-16.5c0.1-0.4,0.2-0.7,0.3-1.1c-1,0.6-1.6,1-2.4,1.4l-1.9,1.1l-0.3,0.2l-0.3-0.5l0.3-0.1l1.9-1.1
	c0.9-0.5,1.6-0.9,2.9-1.7c0.2-0.7,0.3-1.3,0.4-2c-1.6,1-2.8,1.7-4.3,2.6l-2,1.2l-0.3-0.5l2-1.2c1.5-0.9,2.8-1.6,4.5-2.7l0.2-0.1
	c0.1-0.6,0.1-1.1,0.1-1.7c-1.4,0.8-2.8,1.6-4.2,2.4c-0.8,0.5-1.6,0.9-2.4,1.4l-0.3,0.1l-0.3-0.5l0.3-0.1c0.8-0.5,1.6-0.9,2.4-1.4
	c1.5-0.9,3-1.7,4.5-2.6l0,0c0-0.1,0-0.2,0-0.3c0-0.5,0-1-0.1-1.5c-1.3,0.8-2.6,1.5-3.9,2.2c-0.9,0.5-1.8,1-2.8,1.6l-0.3,0.2
	l-0.3-0.5l0.3-0.2c0.9-0.5,1.8-1.1,2.8-1.6c1.4-0.8,2.8-1.6,4.1-2.4c0-0.6-0.1-1.2-0.2-1.7c-1.2,0.8-2.5,1.5-3.8,2.2
	c-0.9,0.5-1.8,1-2.7,1.6l-0.3,0.2l-0.3-0.5l0.3-0.2c0.9-0.5,1.8-1,2.7-1.6c1.3-0.7,2.7-1.5,4-2.3c-0.1-0.7-0.3-1.4-0.5-2
	c-1.4,0.8-2.8,1.6-4.1,2.4l-2.4,1.4l-0.3,0.2l-0.3-0.5l0.3-0.2l2.4-1.4c1.4-0.8,2.9-1.6,4.3-2.5c-0.2-0.7-0.4-1.4-0.7-2
	c-1.4,0.9-2.9,1.7-4.3,2.5l-2.4,1.4l-0.3,0.2l-0.3-0.5l0.3-0.2l2.5-1.4c1.5-0.9,2.9-1.7,4.4-2.6c-0.3-0.6-0.5-1.2-0.9-1.8
	c-1.5,0.9-3,1.8-4.4,2.6l-2,1.2l-0.3,0.2l-0.3-0.5l0.3-0.2l2-1.2c1.5-0.9,3-1.7,4.4-2.6c-0.3-0.5-0.6-1.1-1-1.6
	c-1.5,0.9-3,1.8-4.5,2.7L503,430l-0.3,0.2l-0.3-0.5l0.3-0.1c0.7-0.4,1.4-0.8,2.1-1.2c1.5-0.9,3-1.8,4.5-2.6
	c-0.4-0.6-0.9-1.2-1.3-1.7c-1.6,1-3.2,1.9-4.7,2.8l-2.1,1.2l-0.3-0.5l2.1-1.2c1.5-0.9,3.1-1.8,4.6-2.7c-0.4-0.5-0.8-0.9-1.2-1.3
	c-1.4,0.8-2.8,1.7-4.2,2.5l-2.3,1.4l-0.3,0.2l-0.3-0.5l0.3-0.1l2.3-1.4c1.4-0.8,2.7-1.6,4.1-2.4c-0.4-0.4-0.8-0.7-1.2-1.1
	c-1.6,1-3.1,1.9-4.7,2.8l-1.8,1l-0.3-0.5l1.8-1c1.5-0.9,3-1.8,4.5-2.7c-0.4-0.3-0.9-0.7-1.4-1c-1.5,0.9-3,1.8-4.4,2.6l-1.5,0.9
	l-0.3-0.5l1.5-0.9c1.4-0.8,2.8-1.6,4.2-2.5c-0.6-0.4-1.2-0.7-1.9-1.1l-0.1,0.1c-1.2,0.7-2.5,1.5-3.8,2.2l-1.8,1l-0.3-0.5l1.9-1.1
	c1.2-0.7,2.4-1.4,3.6-2.1l-2.1-1l0.1-2.7c0-0.2,0-0.4,0-0.6c-0.9,0.5-1.8,1.1-2.7,1.6l-1.4,0.8l-0.2,0.1l-0.2-0.4l0.2-0.1l1.4-0.8
	c1-0.6,1.9-1.1,2.9-1.7c0-0.4,0-0.9-0.1-1.3l-2.7,1.6l-1.3,0.8l-0.2-0.4l1.3-0.8l2.9-1.7c-0.1-0.3-0.1-0.7-0.2-1l-2.5,1.5l-1.5,0.9
	l-0.2,0.1l-0.2-0.4l0.2-0.1l1.6-0.9c0.9-0.5,1.7-1,2.6-1.5c-0.1-0.5-0.3-1-0.5-1.5c-0.9,0.5-1.7,1-2.6,1.5l-1.8,1l-0.2,0.1l-0.2-0.4
	l0.2-0.1c0.6-0.4,1.2-0.7,1.8-1c0.9-0.5,1.8-1,2.6-1.5c-0.1-0.3-0.3-0.7-0.5-1c-0.7,0.4-1.4,0.8-2.1,1.2l-1.8,1l-0.2,0.1l-0.2-0.4
	l0.2-0.1c0.6-0.4,1.2-0.7,1.8-1s1.4-0.8,2.1-1.2c-0.2-0.3-0.4-0.6-0.6-0.9c-0.8,0.5-1.5,0.9-2.2,1.3l-1.6,0.9l-0.2,0.1l-0.2-0.4
	l0.2-0.1c0.5-0.3,1.1-0.6,1.6-0.9c0.7-0.4,1.5-0.9,2.2-1.3c-0.3-0.4-0.6-0.8-1-1.2l-2.8,1.6l-1.6,0.9l-0.2,0.1l-0.2-0.4l0.2-0.1
	l1.6-0.9c0.9-0.5,1.8-1.1,2.7-1.6c-0.4-0.4-0.7-0.7-1.1-1.1c-1,0.6-2,1.2-3,1.8l-1.3,0.8l-0.2,0.1l-0.2-0.4l0.2-0.1l1.3-0.8
	c0.9-0.5,1.9-1.1,2.9-1.7c-0.4-0.3-0.8-0.6-1.3-0.9h0c-1.1,0.7-2.2,1.3-3.3,1.9l-1.3,0.8l-0.2,0.1l-0.2-0.4l0.2-0.1l1.3-0.8
	c1-0.6,2.1-1.2,3.1-1.9c-0.6-0.3-1.2-0.6-1.8-0.9l0.2,0.3l-0.2,0.1c-1,0.6-2.1,1.3-3.2,1.9l-1.3,0.8l-0.2-0.4l1.3-0.8
	c1-0.6,2.1-1.2,3.2-1.9l0.2-0.1c-1.3-0.5-2.7-0.8-4.1-0.9l0.2,0.3l-0.2,0.1c-1,0.6-2.1,1.2-3.1,1.9l-1.2,0.7l-0.2-0.4l1.2-0.7
	c1-0.6,2.1-1.2,3.1-1.9l0.1-0.1c-0.3,0-0.6,0-0.9,0s-0.6,0-1,0.1l-0.1,0c-1,0.7-2.1,1.3-3.2,1.9l-1,0.6l-0.2-0.4l1-0.6
	c0.8-0.5,1.7-1,2.6-1.5c-1.7,0.2-3.2,0.7-4.7,1.5l-4,2.2l-0.7-1.6l-0.2,0.1c-1.5,0.9-2.2,1.4-3.2,1.9l-1.9,1.1l-0.3,0.2l-0.3-0.5
	l0.3-0.2l1.9-1.1c1-0.5,1.7-1,3.2-1.9l0.2-0.1l-0.9-2l0,0c-1.6,1-2.9,1.8-4.4,2.6l-2,1.2l-0.3-0.5l2-1.2c1.5-0.9,2.8-1.6,4.5-2.7
	c-0.2-0.4-0.4-0.9-0.6-1.3c-1.4,0.8-2.9,1.7-4.2,2.5l-2.4,1.4l-0.3,0.1l-0.3-0.5l0.3-0.1l2.4-1.4c1.4-0.8,2.8-1.6,4.2-2.5
	c-0.4-0.7-0.8-1.4-1.3-2.1c-1.2,0.7-2.5,1.5-3.7,2.1l-2.8,1.6l-0.3,0.2l-0.3-0.5l0.3-0.2l2.8-1.6c1.2-0.7,2.5-1.4,3.7-2.1
	c-0.5-0.7-1-1.4-1.6-2.1c-1.3,0.8-2.6,1.5-3.8,2.2c-0.9,0.5-1.9,1-2.8,1.6l-0.3,0.1l-0.3-0.5l0.3-0.2c0.9-0.5,1.8-1.1,2.8-1.6
	c1.2-0.7,2.5-1.4,3.7-2.1c-0.5-0.6-1-1.1-1.5-1.6c-1.4,0.9-2.9,1.7-4.3,2.5l-2.5,1.4l-0.3,0.1l-0.3-0.5l0.3-0.1l2.5-1.4
	c1.4-0.8,2.8-1.6,4.1-2.4c-0.6-0.6-1.2-1.1-1.9-1.6c-1.5,0.9-3.1,1.8-4.6,2.7l-2.5,1.4l-0.3,0.2l-0.3-0.5l0.3-0.2l2.5-1.4
	c1.5-0.9,2.9-1.7,4.4-2.6c-0.7-0.5-1.4-1-2.1-1.5c-1.5,0.9-3,1.8-4.5,2.6c-0.7,0.4-1.4,0.8-2.1,1.2l-0.3,0.2l-0.3-0.5l0.3-0.2
	l2.1-1.2c1.4-0.8,2.8-1.6,4.2-2.5c-0.7-0.4-1.5-0.8-2.2-1.2c-1.5,0.9-3.1,1.9-4.6,2.8l-2.1,1.2l-0.3,0.2l-0.3-0.5l0.3-0.1l2.1-1.2
	c1.4-0.8,2.9-1.7,4.3-2.5c-0.7-0.3-1.5-0.6-2.2-0.9c-1.6,1-3.3,2-4.9,2.9l-2,1.2l-0.3-0.5l2-1.2c1.5-0.9,3-1.7,4.4-2.6
	c-0.8-0.3-1.6-0.5-2.4-0.7l-0.1,0.1c-1.5,0.9-3,1.8-4.5,2.7l-2.3,1.4l-0.3,0.1l-0.3-0.5l0.3-0.2l2.3-1.4c1.4-0.8,2.7-1.6,4.1-2.4
	c-0.7-0.1-1.4-0.3-2.1-0.4l-0.2,0.1c-1.6,1-3.3,2-4.9,2.9l-1.8,1l-0.3-0.5l1.8-1c1.4-0.9,2.9-1.7,4.4-2.6c-0.9-0.1-1.7-0.1-2.6-0.2
	c-1.5,0.9-3.1,1.9-4.6,2.8l-1.6,1l-0.3-0.5l1.6-1l3.7-2.2"/>
<path class="st6" d="M441.3,381L441.3,381c0.7-0.1,1.4-0.1,2-0.1l0,0l-3.7,2.2l-1.6,1l0.3,0.5l1.6-1c1.5-0.9,3.1-1.8,4.6-2.8
	c0.9,0,1.7,0.1,2.6,0.2l0,0c-1.5,0.9-2.9,1.8-4.4,2.6l-1.8,1l0.3,0.5l1.8-1c1.6-0.9,3.3-1.9,4.9-2.9l0.2-0.1
	c0.7,0.1,1.4,0.2,2.1,0.4l0,0c-1.4,0.8-2.7,1.6-4.1,2.4l-2.3,1.4l-0.3,0.2l0.3,0.5l0.3-0.1l2.3-1.4c1.5-0.9,3-1.8,4.5-2.7l0.1-0.1
	c0.8,0.2,1.6,0.4,2.4,0.7l0,0c-1.5,0.9-3,1.8-4.4,2.6l-2,1.2l0.3,0.5l2-1.2c1.6-0.9,3.3-1.9,4.9-2.9c0.8,0.3,1.5,0.6,2.2,0.9l0,0
	c-1.4,0.9-2.9,1.7-4.3,2.5l-2.1,1.2l-0.3,0.1l0.3,0.5l0.3-0.2l2.1-1.2c1.5-0.9,3.1-1.8,4.6-2.8c0.8,0.4,1.5,0.8,2.2,1.2l0,0
	c-1.4,0.8-2.8,1.7-4.2,2.5l-2.1,1.2l-0.3,0.2l0.3,0.5l0.3-0.2c0.7-0.4,1.4-0.8,2.1-1.2c1.5-0.9,3-1.7,4.5-2.6c0.7,0.5,1.4,1,2.1,1.5
	l0,0c-1.5,0.9-2.9,1.7-4.4,2.6l-2.5,1.4l-0.3,0.2l0.3,0.5l0.3-0.2l2.5-1.4c1.5-0.9,3.1-1.8,4.6-2.7c0.6,0.5,1.3,1,1.9,1.6l0,0
	c-1.4,0.8-2.8,1.6-4.1,2.4l-2.5,1.4l-0.3,0.1l0.3,0.5l0.3-0.1l2.5-1.4c1.4-0.8,2.9-1.6,4.3-2.5c0.5,0.5,1,1,1.5,1.6l0,0
	c-1.2,0.7-2.5,1.5-3.7,2.1c-0.9,0.5-1.9,1-2.8,1.6l-0.3,0.2l0.3,0.5l0.3-0.1c0.9-0.5,1.8-1.1,2.8-1.6c1.3-0.7,2.6-1.5,3.8-2.2
	c0.5,0.7,1.1,1.4,1.6,2.1l0,0c-1.2,0.7-2.5,1.4-3.7,2.1l-2.7,1.6l-0.3,0.2l0.3,0.5l0.3-0.2l2.8-1.6c1.2-0.7,2.5-1.4,3.7-2.1
	c0.4,0.7,0.9,1.4,1.3,2.1l0,0c-1.4,0.8-2.9,1.7-4.2,2.5l-2.4,1.4l-0.3,0.1l0.3,0.5l0.3-0.1l2.4-1.4c1.4-0.8,2.8-1.6,4.2-2.5
	c0.2,0.4,0.4,0.9,0.6,1.3l0,0c-1.7,1-3,1.8-4.5,2.7l-2,1.2l0.3,0.5l2-1.2c1.5-0.9,2.8-1.6,4.4-2.6l0,0l0.9,2l-0.2,0.1
	c-1.5,0.9-2.2,1.3-3.2,1.9l-1.9,1.1l-0.3,0.2l0.3,0.5l0.3-0.2l1.9-1.1c1-0.6,1.7-1,3.2-1.9l0.2-0.1l0.7,1.6l4-2.2
	c1.5-0.8,3.1-1.3,4.7-1.5l0,0c-0.9,0.5-1.7,1-2.6,1.5l-1,0.6l0.2,0.4l1-0.6c1-0.6,2.1-1.2,3.2-1.9l0.1,0c0.3,0,0.6-0.1,1-0.1
	s0.6,0,0.9,0l0,0l-0.1,0.1c-1,0.6-2.1,1.2-3.1,1.9l-1.2,0.7l0.2,0.4l1.2-0.7c1-0.6,2.1-1.2,3.1-1.9l0.2-0.1l-0.2-0.3
	c1.4,0.1,2.8,0.4,4.1,0.9l0,0l-0.2,0.1c-1,0.6-2.1,1.3-3.2,1.9l-1.3,0.8l0.2,0.4l1.3-0.8c1-0.6,2.1-1.2,3.2-1.9l0.2-0.1l-0.2-0.3
	c0.6,0.2,1.2,0.5,1.8,0.9l0,0c-1,0.6-2.1,1.2-3.1,1.9l-1.3,0.8l-0.2,0.1l0.2,0.4l0.2-0.1l1.3-0.8c1.1-0.6,2.2-1.3,3.3-1.9h0
	c0.4,0.3,0.9,0.6,1.3,0.9l0,0c-0.9,0.6-1.9,1.1-2.9,1.7l-1.3,0.8l-0.2,0.1l0.2,0.4l0.2-0.1l1.3-0.8c1-0.6,2-1.2,3-1.8
	c0.4,0.3,0.8,0.7,1.1,1.1l0,0c-0.9,0.5-1.8,1.1-2.7,1.6l-1.6,0.9l-0.2,0.1l0.2,0.4l0.2-0.1l1.6-0.9l2.8-1.6c0.3,0.4,0.7,0.8,1,1.2
	l0,0c-0.7,0.4-1.5,0.9-2.2,1.3c-0.5,0.3-1.1,0.6-1.6,0.9l-0.2,0.1l0.2,0.4l0.2-0.1l1.6-0.9c0.7-0.4,1.5-0.9,2.2-1.3
	c0.2,0.3,0.4,0.6,0.6,0.9l0,0c-0.7,0.4-1.4,0.8-2.1,1.2s-1.2,0.7-1.8,1l-0.2,0.1l0.2,0.4l0.2-0.1l1.8-1c0.7-0.4,1.4-0.8,2.1-1.2
	c0.2,0.3,0.3,0.6,0.5,1l0,0c-0.9,0.5-1.8,1-2.6,1.5c-0.6,0.3-1.2,0.7-1.8,1l-0.2,0.1l0.2,0.4l0.2-0.1l1.8-1c0.9-0.5,1.7-1,2.6-1.5
	c0.2,0.5,0.4,1,0.5,1.5l0,0c-0.9,0.5-1.7,1-2.6,1.5l-1.6,0.9l-0.2,0.1l0.2,0.4l0.2-0.1l1.5-0.9l2.5-1.5c0.1,0.3,0.1,0.6,0.2,1l0,0
	l-2.9,1.7l-1.3,0.8l0.2,0.4l1.3-0.8l2.7-1.6c0.1,0.4,0.1,0.9,0.1,1.3l0,0c-1,0.6-2,1.2-2.9,1.7l-1.4,0.8l-0.2,0.1l0.2,0.4l0.2-0.1
	l1.4-0.8c0.9-0.5,1.8-1.1,2.7-1.6l0,0c0,0.2,0,0.4,0,0.6l-0.1,2.7l2.1,1l0,0c-1.2,0.7-2.4,1.4-3.6,2.1l-1.9,1.1l0.3,0.5l1.8-1
	c1.2-0.7,2.5-1.4,3.8-2.2l0.1-0.1c0.6,0.3,1.3,0.7,1.9,1.1l0,0c-1.4,0.9-2.8,1.7-4.2,2.5l-1.5,0.9l0.3,0.5l1.5-0.9
	c1.5-0.9,3-1.8,4.4-2.6c0.5,0.3,0.9,0.7,1.4,1l0,0c-1.5,0.9-3,1.8-4.5,2.7l-1.8,1l0.3,0.5l1.8-1c1.5-0.9,3.1-1.9,4.7-2.8
	c0.4,0.3,0.8,0.7,1.2,1.1l0,0c-1.3,0.8-2.7,1.6-4.1,2.4l-2.3,1.4l-0.3,0.1l0.3,0.5l0.3-0.2l2.3-1.4c1.4-0.8,2.8-1.6,4.2-2.5
	c0.4,0.4,0.9,0.9,1.2,1.3l0,0c-1.5,0.9-3.1,1.9-4.6,2.7l-2.1,1.2l0.3,0.5l2.1-1.2c1.6-0.9,3.2-1.8,4.7-2.8c0.5,0.6,0.9,1.1,1.3,1.7
	l0,0c-1.5,0.9-3,1.8-4.5,2.6c-0.7,0.4-1.4,0.8-2.1,1.2l-0.3,0.1l0.3,0.5l0.2-0.1l2.1-1.2c1.5-0.9,3-1.8,4.5-2.7c0.4,0.5,0.7,1,1,1.6
	l0,0c-1.5,0.9-3,1.8-4.4,2.6l-2,1.2l-0.3,0.2l0.3,0.5l0.3-0.2l2-1.2c1.5-0.9,3-1.7,4.4-2.6c0.3,0.6,0.6,1.2,0.9,1.8l0,0
	c-1.5,0.9-2.9,1.7-4.4,2.6l-2.5,1.4l-0.3,0.2l0.3,0.5l0.3-0.2l2.4-1.4c1.4-0.8,2.9-1.7,4.3-2.5c0.3,0.7,0.5,1.3,0.7,2l0,0
	c-1.4,0.9-2.9,1.7-4.3,2.5l-2.4,1.4l-0.3,0.2l0.3,0.5l0.3-0.2l2.4-1.4c1.4-0.8,2.8-1.6,4.1-2.4c0.2,0.7,0.3,1.4,0.5,2l0,0
	c-1.3,0.8-2.7,1.5-4,2.3c-0.9,0.5-1.8,1-2.7,1.6l-0.3,0.2l0.3,0.5l0.3-0.2c0.9-0.5,1.8-1,2.7-1.6c1.2-0.7,2.5-1.4,3.8-2.2
	c0.1,0.6,0.2,1.1,0.2,1.7l0,0c-1.4,0.8-2.8,1.6-4.1,2.4c-0.9,0.5-1.8,1-2.8,1.6l-0.3,0.2l0.3,0.5l0.3-0.2c0.9-0.5,1.8-1.1,2.8-1.6
	c1.3-0.7,2.6-1.5,3.9-2.2c0,0.5,0.1,1,0.1,1.5l0,0c0,0.1,0,0.2,0,0.3l0,0c-1.5,0.9-3,1.8-4.5,2.6c-0.8,0.5-1.6,0.9-2.4,1.4l-0.3,0.1
	l0.3,0.5l0.3-0.1c0.8-0.5,1.6-0.9,2.4-1.4c1.4-0.8,2.8-1.6,4.2-2.4l0,0c0,0.6-0.1,1.1-0.1,1.7l-0.2,0.1c-1.6,1-3,1.8-4.5,2.7l-2,1.2
	l0.3,0.5l2-1.2c1.5-0.9,2.7-1.6,4.3-2.6l0,0c-0.1,0.7-0.2,1.3-0.4,2c-1.3,0.8-2,1.2-2.9,1.7l-1.9,1.1l-0.3,0.1l0.3,0.5l0.3-0.2
	l1.9-1.1c0.8-0.4,1.4-0.8,2.3-1.4l0,0c-3.5,13.4-17.1,21.4-30.5,17.9c-0.4-0.1-0.7-0.2-1.1-0.3l-2.7-0.8l-1.8,2.1
	c-8,9.6-22.3,10.8-31.9,2.8c-0.3-0.3-0.6-0.5-0.9-0.8l-2-1.9l-2.5,1.1c-6.6,2.8-14,2.3-20.2-1.3l-2.1-1.2l-2.1,1.2
	c-8.1,4.7-18.2,3.9-25.5-1.9l-2.1-1.7l-2.4,1.2c-2.8,1.4-5.8,2.2-9,2.2c-10.8,0-19.5-8.7-19.5-19.5l0,0c0-10.7,8.7-19.4,19.5-19.5
	h0.5l4.2,0.1l0.3-4c0.8-12.5,11.7-21.9,24.2-21.1c1.9,0.1,3.8,0.5,5.6,1.1l3.8,1.2l1.5-3.7c4-10.1,13.2-17.3,24-18.6l0,0
	c-1,0.6-2.1,1.2-3.2,1.8l-1.8,1.1l0.3,0.5l1.8-1c1.3-0.7,2.5-1.4,3.8-2.2l0.3-0.2L441.3,381 M289.8,380.8l1.6-0.9
	c1.4-0.8,2.8-1.6,4.2-2.5h0.6c0.7,0,1.4,0,2.1,0.1l0,0c-1.4,0.8-2.7,1.6-4.1,2.4l-1.8,1l0.3,0.5l1.8-1c1.6-0.9,3.2-1.9,4.8-2.9
	c0.8,0.1,1.5,0.2,2.2,0.3l0,0c-1.3,0.8-2.7,1.6-4,2.4l-2.5,1.5l0.3,0.5l2.5-1.5c1.5-0.9,3.1-1.8,4.6-2.7l0,0
	c0.8,0.2,1.7,0.4,2.5,0.6l0,0c-1.5,0.9-3,1.8-4.5,2.6l-2,1.2l0.3,0.5l2-1.2c1.6-0.9,3.3-1.9,4.9-2.9l0,0c0.8,0.3,1.5,0.5,2.3,0.9
	l0,0c-1.5,0.9-3,1.8-4.4,2.6l-2.1,1.2l-0.3,0.2l0.3,0.5l0.3-0.2l2-1.2c1.6-0.9,3.2-1.9,4.8-2.9c0.8,0.4,1.6,0.7,2.3,1.2l0,0
	c-1.5,0.9-3,1.8-4.5,2.6l-2,1.2l-0.3,0.2l0.3,0.5l0.3-0.1l2-1.2c1.6-0.9,3.2-1.9,4.8-2.8l0,0c0.8,0.4,1.5,0.9,2.2,1.4l0,0l-0.1,0.1
	c-1.5,0.9-3.1,1.8-4.6,2.7l-2.4,1.4l-0.3,0.2l0.3,0.5l0.3-0.1c0.8-0.5,1.6-1,2.5-1.4c1.5-0.9,3.1-1.8,4.6-2.7l0.3-0.2l-0.1-0.2
	c0.7,0.5,1.5,1.1,2.1,1.7l0,0l-0.1,0.1c-1.5,0.9-3,1.8-4.4,2.6l-2.5,1.4l-0.3,0.2l0.3,0.5l0.3-0.2l2.5-1.4c1.5-0.8,3-1.7,4.4-2.6
	l0.3-0.2l-0.1-0.2c0.6,0.5,1.2,1.1,1.7,1.7l0,0l-0.2,0.1c-1.4,0.8-2.8,1.6-4.1,2.4l-2.7,1.5l-0.3,0.2l0.3,0.5l0.3-0.2
	c0.9-0.5,1.8-1,2.8-1.6c1.4-0.8,2.8-1.6,4.1-2.4l0.2-0.1c0.6,0.6,1.1,1.3,1.6,2l0,0c-1.4,0.9-2.9,1.7-4.3,2.5
	c-0.9,0.5-1.8,1-2.8,1.6l-0.3,0.1l0.3,0.5l0.3-0.1c0.9-0.5,1.8-1.1,2.8-1.6c1.4-0.8,2.9-1.6,4.3-2.5l0.1,0c1.5,2,2.7,4.3,3.6,6.6
	l1.8,4.5l4.6-1.5c1.4-0.5,2.9-0.8,4.5-1l0,0c-1.4,0.8-2.8,1.6-4.1,2.4l-1.5,0.9l0.3,0.5l1.5-0.9c1.7-1,3.4-2,5.1-3l0.1-0.1
	c0.4,0,0.9-0.1,1.3-0.1s1.1,0,1.6,0.1l0,0l-0.2,0.1c-1.6,1-3.3,2-4.9,2.9l-1.9,1.1l0.3,0.5l1.9-1.1c1.6-1,3.3-1.9,4.9-3l0.3-0.2
	l-0.3-0.5c2.2,0.2,4.3,0.6,6.4,1.4l0,0L346,400c-1.6,1-3.3,2-5,3l-2.1,1.2l0.3,0.5l2.1-1.2c1.6-1,3.4-1.9,5-3l0.3-0.2l-0.3-0.5
	c0.9,0.4,1.9,0.8,2.8,1.3l0,0c-1.6,1-3.3,2-4.9,2.9l-2.1,1.2l-0.3,0.2l0.3,0.5l0.3-0.2l2.1-1.2c1.7-1,3.4-2,5.1-3l0.1-0.1
	c0.7,0.4,1.4,0.9,2.1,1.4l0,0c-1.5,0.9-3.1,1.8-4.6,2.7l-2.1,1.2l-0.3,0.2l0.3,0.5l0.3-0.2l2.1-1.2c1.6-0.9,3.2-1.9,4.8-2.9
	c0.6,0.5,1.3,1.1,1.9,1.7l0,0c-1.5,0.9-2.9,1.7-4.4,2.6c-0.9,0.5-1.7,1-2.5,1.5l-0.3,0.2l0.3,0.5l0.3-0.2l2.5-1.5
	c1.5-0.9,3-1.8,4.5-2.7c0.6,0.6,1.1,1.2,1.6,1.9l0,0c-1.2,0.7-2.5,1.5-3.8,2.2c-0.8,0.5-1.7,1-2.5,1.5l-0.3,0.2l0.3,0.5l0.3-0.2
	c0.8-0.5,1.7-1,2.5-1.4c1.3-0.7,2.5-1.5,3.8-2.2c0.3,0.5,0.6,0.9,1,1.4l0,0c-1.2,0.7-2.5,1.4-3.7,2.1c-0.9,0.5-1.9,1-2.8,1.6
	l-0.3,0.2l0.3,0.5l0.3-0.2c0.9-0.5,1.9-1.1,2.8-1.6c1.2-0.7,2.5-1.4,3.7-2.1c0.3,0.5,0.6,1,0.8,1.5l0,0l-0.2,0.1
	c-1.4,0.9-2.9,1.7-4.4,2.5l-2.8,1.6l-0.3,0.2l0.3,0.5l0.3-0.2l2.8-1.6c1.4-0.8,2.9-1.7,4.4-2.5l0.1-0.1c0.3,0.8,0.7,1.5,0.9,2.3l0,0
	h-0.1c-1.5,0.9-3.1,1.8-4.6,2.7l-2.5,1.4l-0.3,0.2l0.3,0.5l0.3-0.2l2.4-1.4c1.5-0.9,3-1.8,4.5-2.7c0.2,0.8,0.4,1.6,0.6,2.4l0,0
	c-1.5,1-3.1,1.9-4.7,2.8l-2,1.2l0.3,0.5l1.9-1.1c1.5-0.9,3-1.8,4.5-2.7c0.1,0.6,0.2,1.3,0.2,1.9l0,0l0,0c-1.6,1-3.2,1.9-4.8,2.8
	l-2.1,1.2l-0.3,0.2l0.3,0.5l0.3-0.2l2.1-1.2c1.5-0.9,3-1.8,4.5-2.7l0.3,4.2l5.2-0.2h0.4c2,0,4,0.3,5.9,0.9l0,0
	c-9.8,1.7-16.9,10.2-16.9,20.1l0,0c0,7.8,4.4,14.9,11.4,18.3H249.4c-14,0-25.4-11.4-25.4-25.4l0,0c0-9.7,5.4-18.5,14.1-22.8l3-1.5
	l-0.2-3.3c0-0.2,0-0.4,0-0.6l0,0c0-6.4,4.4-11.9,10.6-13.4l0,0l-2.6,2.1l-1.6,1.3l0.4,0.5l1.6-1.3c1.1-0.9,2.3-1.8,3.4-2.8l0.1-0.1
	c0.4-0.1,0.9-0.1,1.4-0.1l0,0l-2.8,2.4l-1.3,1.1l0.4,0.5l1.3-1.1c1.1-0.9,2.2-1.8,3.2-2.7l0.1-0.1c0.7,0,1.3,0.1,2,0.2l0,0l-2.5,2.1
	L253,400l0.4,0.5l1.5-1.3c0.9-0.7,1.7-1.5,2.6-2.2l0.2-0.2l-0.1-0.1c0.6,0.1,1.2,0.3,1.8,0.5l0,0l-3.7,3.1l0.4,0.5l4-3.3
	c0.4,0.2,0.7,0.3,1.1,0.5l0.7,0.4l-0.6,0.5l-1.7,1.4l-0.2,0.2l0.4,0.5l0.2-0.2l1.8-1.4l0.8-0.7l1.8,1l-0.1,0.1l-1.7,1.4l-0.2,0.2
	l0.4,0.5l0.2-0.2l1.7-1.4l0.3-0.2l1.2,0.6l2.2-5.1c4.1-9.3,12.5-15.9,22.5-17.7l0,0l-2.2,1.3l-1.9,1.1l0.3,0.5l1.9-1.1
	c1.2-0.7,2.4-1.4,3.6-2.1c0.6-0.1,1.2-0.1,1.8-0.2l0,0c-1.1,0.6-2.1,1.3-3.2,1.9l-1.6,0.9L289.8,380.8 M296.2,376.2
	c-12.6,0-23.9,7.4-29,18.9l-1.7,3.9l-3.7-2c-7.3-3.9-16.4-1.2-20.3,6.1c-1.2,2.2-1.8,4.6-1.8,7c0,0.2,0,0.5,0,0.7l0.1,2.5l-2.3,1.1
	c-13.1,6.6-18.5,22.6-11.9,35.7c4.5,9,13.7,14.7,23.8,14.7h117.5c0.9,0,1.8-0.1,2.8-0.2c5.3,1.8,11.1,1.4,16-1.2l1.9-1l1.7,1.3
	c4.2,3.3,9.4,5.2,14.7,5.1c4.1,0,8.2-1.1,11.8-3.2l1.6-1l1.6,1c6.4,3.7,14.2,4.2,21,1.3l2-0.8l1.5,1.5c9.5,8.9,24.5,8.4,33.4-1.2
	c0.3-0.3,0.6-0.6,0.8-0.9l1.4-1.7l2.1,0.6c13.7,4.2,28.3-3.5,32.5-17.2c0.2-0.6,0.4-1.3,0.5-1.9l0,0c2.3-10.4-1.9-21.2-10.8-27.1
	l-0.2-0.3l-0.1,0.1c-0.9-0.6-1.8-1.1-2.7-1.5l-1.9-1l0.1-2.1c0-0.2,0-0.5,0-0.7c0-2.9-0.9-5.8-2.5-8.2l0,0l-0.2-0.3l0,0
	c-4.3-6.1-12.5-8-19.1-4.5l-3.1,1.7l-1.4-3.2c-0.7-1.6-1.6-3.2-2.5-4.6h0.1l-0.3-0.5l-0.1,0.1c-3-4.3-7-7.8-11.7-10.1l0,0l0,0
	c-15.2-7.5-33.6-1.2-41.1,14c-0.4,0.7-0.7,1.5-1,2.2l-1.1,2.9l-2.9-1c-12.4-4.1-25.7,2.6-29.8,14.9c-0.6,1.9-1,3.8-1.2,5.8l-0.2,3.1
	l-3.3-0.1h-0.5c-0.3,0-0.6,0-0.9,0c-2.7-1.2-5.5-1.8-8.4-1.8h-0.5l-4,0.1l-0.3-3.8c-0.3-4.6-2-9.1-4.8-12.8l-0.1-0.2l0,0
	c-6.3-8.2-17-11.5-26.8-8.3l-3.5,1.2l-1.4-3.4c-4.7-12.1-16.4-20-29.4-20"/>
<path class="st6" d="M486.6,399.5l-0.2,0.1c-1,0.6-2,1.2-3,1.8l-1.6,1l0.2,0.3l1.6-1c1-0.6,2-1.2,3-1.8l0.2-0.1L486.6,399.5"/>
<path d="M364.9,433.2c-10.5,0-24.9-3.9-34.3-22.4c-0.3-0.6-0.1-1.3,0.5-1.6c0.6-0.3,1.3-0.1,1.6,0.5c10.9,21.2,28.6,22,38.3,20.6
	c12.3-1.8,28.4-10.7,29.9-19.1c0.1-0.6,0.7-1.1,1.4-1c0.6,0.1,1.1,0.7,1,1.4l0,0c-1.5,8-15.4,18.6-31.9,21
	C369.1,433,367,433.2,364.9,433.2z"/>
<path d="M328.3,400.8l-0.3-0.5l0.3-0.2l1.9-1.1c1-0.6,1.7-1,3.2-1.9l0.3-0.2l0.3,0.5l-0.3,0.2c-1.5,1-2.2,1.4-3.2,1.9l-1.9,1.1
	L328.3,400.8z"/>
<path d="M366.4,431l-0.3-0.5l0.3-0.2l2.5-1.4c1.5-0.9,3.1-1.8,4.6-2.7l0.3-0.2l0.3,0.5l-0.3,0.2c-1.5,0.9-3.1,1.8-4.6,2.7l-2.5,1.4
	L366.4,431z"/>
<path d="M365.6,428.4l-0.3-0.5l0.3-0.1l2-1.2c1.6-0.9,3.2-1.9,4.8-2.8l0.3-0.2l0.3,0.5l-0.3,0.2c-1.6,1-3.2,1.9-4.8,2.8l-2,1.2
	L365.6,428.4z"/>
<path d="M364.2,426.3l-0.3-0.5l0.3-0.2l2.1-1.2c1.6-1,3.3-1.9,5-3l0.3-0.2l0.3,0.5l-0.3,0.2c-1.6,1-3.4,2-5,3l-2.1,1.2L364.2,426.3z
	"/>
<path class="st4" d="M335,258.5l-0.7-17.8L333,210c0.7-11.7,6.4-17.8,12.2-20.9c6.6-3.5,11.5-3.3,11.5-3.3
	c26.8,5.5,28.5,31.4,28.5,31.4c-0.5,4.6-0.1,94.3,0,109c0,15.5-1,26.3-1,26.3c-0.5,16.9-14.8,17.9-14.8,17.9
	c-2.1,0.1-4.1-0.2-6.1-0.8c-5.8-1.7-9.3-6.1-11.3-10.5c-0.4-0.9-0.8-1.9-1.1-2.8l-2.9-30.4l-0.9-9.5L346,316l-1.3-0.3l-0.5-0.1
	l-1.3-0.2c-0.9,0.2-1.8,0.5-2.6,0.8c-0.6,0.2-1.2,0.5-1.7,0.8c0.3,7.5,0.6,4,0.6,11.7l0,0l0,0c0,2.4,0,4.5-0.1,6.1
	c0.1,4.6,0.6,9.7,0.8,11.6c-0.1,1.8,0,3.6,0.1,5.5c0.6,3.6,1.7,7.1,3.2,10.5c1.4,2.8,3.2,5.3,5.3,7.6c2.4,2.6,5.2,4.8,8.3,6.4
	c0.5,0.1,1.1,0.2,1.7,0.3c1.8,0.9,3.6,1.6,5.6,2c17.7,4.3,26.6-9.8,27.7-11.8c2.4-4.7,3.6-9.8,3.8-15l-0.4-26l0-1l0.9-96.8
	c0-0.3,0-0.6,0-1.1c0-3.2,0.1-8.1,0-10.6c-0.1-4.7-0.4-5.5-1.7-10c-0.3-1.2-0.7-2.4-1-3.6c-0.8-1.7-1.5-3.1-1.5-3.1
	c-3.2-9.3-13-23.5-25-26.7c-7.3-2-17.8-1.5-25.8,3c-21,11.8-17.3,31.6-16.8,46s3.2,52.6,3.2,52.6c0.6,21.6-0.2,89.2-0.2,89.2
	c0.6,11.4-4.8,39.5,10.7,56.2s41.7,9.7,41.7,9.7c30-11.3,28.1-41.3,27.8-47.2s-1.6-51.7-1.6-51.7c-0.4-13-0.3-21-0.3-21
	c0-1.3,0.2-2.5,0.6-3.7c-0.2,0.5,0.2-2.1,0.1-3.9c-2.1-1-7.7-1.4-9.3-1.4l0,0c0,0-0.3,5,0.2,46.8c0,0.1,2.5,29.5,2.8,39
	c0.3,10.6-3.3,29.7-23.7,35.3c-4.3,0.6-8.6,0.9-12.9,0.8c-5.5-1-11.3-2.5-12.9-2.9l-1-0.4c-3.1-2-5.8-4.6-7.8-7.8
	c0,0-6.1-8.9-6.3-19.2c0,0-0.8-25.2,0.2-32.2c0.9-6.8,0.9-5.4,0.9,0.1c0.1-10.7,0.2-21.2,0.4-26.5c0,0,0,0.2,0,0.4
	c-0.1-1.7,0-3.3,0.1-5c-0.1-1.7-0.3-6.4-0.3-10.5c0,0.5-0.1,0.9-0.1,1.3L335,258.5 M404,354.5c0-0.6,0-1.2,0-1.8
	C403.9,353.3,403.9,353.9,404,354.5L404,354.5z M404.2,361.4L404.2,361.4z M331.8,379.5c0-0.6,0-1.1,0-1.6
	C331.7,378.3,331.7,378.9,331.8,379.5L331.8,379.5z"/>
<path d="M366.9,431.9c-9,0-20.9-2.1-29.4-11.3c-12.4-13.5-11.5-34-11-47.6c0.1-3.5,0.3-6.6,0.1-8.9c0-0.7,0.8-67.9,0.2-89.2
	c0-0.4-2.6-38.4-3.2-52.6c0-1.5-0.1-3.1-0.2-4.8c-0.8-13.8-1.8-31,17.3-41.7c8.4-4.7,19.2-4.9,26.2-3c12.3,3.3,22.2,17.8,25.4,27.1
	c0,0,0.7,1.4,1.5,3.1c0.4,1.3,0.8,2.5,1.1,3.7l0.3,0.9c1,3,1.5,6.1,1.4,9.2c0,2.4,0,7.4,0,10.6c0,0.4,0,0.8,0,1.1l-0.9,96.8l0,1
	l0.5,26c-0.2,5.3-1.5,10.5-3.9,15.3c-1,1.7-10.2,16.5-28.5,12.1c-1.9-0.4-3.8-1.1-5.6-2c-0.6-0.1-1.2-0.2-1.6-0.3l-0.1,0
	c-3.2-1.7-6-3.9-8.5-6.5c-2.1-2.3-4-5-5.4-7.8c-1.5-3.4-2.6-7-3.2-10.7c-0.1-1.9-0.2-3.7-0.1-5.6c-0.2-1.9-0.7-7-0.8-11.6
	c0.1-1.6,0.1-3.6,0.1-6.1l0,0c0-2.1,0-4.1-0.2-6.2c-0.1-0.9-0.2-2.1-0.4-5.5v-0.4l0.4-0.2c0.6-0.3,1.2-0.6,1.8-0.8
	c0.9-0.3,1.8-0.6,2.7-0.8h0.1h0.1l1.1,0.2l0.7,0.1l1.3,0.3l1.1,0.3l0.4,0.1l3.8,40.2c0.3,1,0.7,1.9,1.1,2.7c2.5,5.4,6.2,8.8,11,10.2
	c1.9,0.5,3.9,0.8,5.9,0.8c2.5-0.3,4.8-1.2,6.9-2.5c4.6-3,7.1-8,7.3-14.7c0-0.1,1-11,1-26.3c-0.1-14.1-0.5-103.7-0.1-109
	c-0.1-1.2-2.5-25.6-28-30.8c0,0-4.8-0.2-11.1,3.2c-7.3,3.9-11.3,10.8-11.9,20.4l1.9,48.5l1.7,60.2h0.2c0,4.1,0.2,8.7,0.3,10.5
	c-0.1,1.7-0.2,3.3-0.1,5h-0.1c-0.2,4.6-0.3,13.4-0.4,26.1h-0.9c-1,6.9-0.2,31.9-0.2,32.1c0.2,10,6.2,18.8,6.2,18.9
	c1.9,3.1,4.5,5.7,7.6,7.6l0.9,0.4c1.7,0.4,7.4,1.8,12.8,2.9c4.3,0.1,8.5-0.1,12.7-0.8c22.2-6.1,23.3-28.1,23.2-34.7
	c-0.2-8.6-2.3-33.8-2.8-38.8v-0.2c-0.5-41.4-0.3-46.7-0.2-46.9v-0.6h0.7c1.4,0,7.2,0.4,9.5,1.5l0.3,0.2v0.4c0,1,0,2.1-0.1,3.1
	c0,0.4-0.1,0.7-0.1,0.8h-0.4l0.5,0.1c-0.1,0.6-0.2,0.9-0.3,1.2c-0.2,0.8-0.3,1.5-0.3,2.3c0,0.1,0,8.2,0.3,21
	c0,0.5,1.2,45.8,1.6,51.6c2.1,31.6-16.7,43.5-28.2,47.8C375.6,431.3,371.3,431.8,366.9,431.9z M357.9,172.7
	c-5.8-0.1-11.5,1.3-16.5,4C323,187,324,203.7,324.7,217.2c0.1,1.6,0.2,3.3,0.2,4.8c0.5,14.1,3.1,52.2,3.2,52.6
	c0.6,21.5-0.2,88.6-0.2,89.3c0.1,2.4,0,5.5-0.1,9c-0.6,13.4-1.4,33.7,10.6,46.8c15,16.3,40.8,9.6,41.1,9.5
	c11-4.2,29.3-15.8,27.3-46.6c-0.4-5.9-1.5-51.2-1.6-51.7c-0.3-12.9-0.3-21-0.3-21.1c0-0.9,0.1-1.8,0.3-2.7c0.1-0.2,0.2-0.5,0.3-0.9
	c0-0.3,0-0.7,0-1c0.1-0.7,0.1-1.7,0.1-2.6c-2.6-0.7-5.3-1.1-8-1.2c-0.1,2.2-0.2,11.5,0.3,46.2v0.1c0.4,5,2.5,30.2,2.7,38.9
	c0.2,6.8-1.2,13.6-4.1,19.8c-4.1,8.1-10.8,13.6-20,16.1c-4.3,0.6-8.7,0.9-13.1,0.8c-5.6-1-11.4-2.5-13-2.9h-0.1l-1-0.5
	c-3.2-2-6-4.8-8-8c-0.2-0.4-6.2-9.1-6.4-19.5c0-1-0.8-25.4,0.2-32.4c0.5-3.5,0.6-4.6,1-5c0.1-10.3,0.2-17.5,0.4-21.4l0,0
	c0-1.5,0-3,0.1-4.5c-0.1-1.5-0.3-5.4-0.3-9.2h-0.1l-1.8-61.5l-1.9-48.5c0.6-10,5-17.4,12.5-21.5c6.6-3.6,11.6-3.4,11.8-3.4
	c27,5.5,29,31.7,29.1,31.9v0.1c-0.5,4.6-0.1,94.7,0,108.9c0,15.4-1,26.3-1,26.4c-0.4,13.8-10.3,18.1-15.4,18.4
	c-2.1,0.1-4.2-0.2-6.3-0.8c-5.1-1.5-9.1-5.2-11.7-10.9c-0.4-0.9-0.8-1.8-1.2-2.9v-0.1l-3.7-39.4l-0.7-0.2l-1.3-0.3l-0.7-0.1l-1-0.2
	c-0.8,0.2-1.7,0.4-2.5,0.7c-0.4,0.2-0.9,0.4-1.3,0.6c0.1,3,0.2,4.1,0.3,5c0.2,2.1,0.3,4.1,0.2,6.2v0.2c0,2.5,0,4.6-0.1,6.1
	c0.1,4.5,0.6,9.5,0.8,11.5c-0.1,1.8,0,3.7,0.1,5.5c0.6,3.5,1.7,7,3.1,10.3c1.4,2.7,3.1,5.2,5.2,7.5c2.3,2.5,5.1,4.6,8.1,6.2
	c0.5,0.1,0.9,0.2,1.5,0.3l0.2,0.1c1.7,0.9,3.5,1.5,5.4,2c17.4,4.2,26.1-9.8,27.1-11.5c2.3-4.6,3.5-9.6,3.7-14.7l-0.4-26l0-1
	l0.9-96.8c0-0.3,0-0.6,0-1c0.1-3.2,0.1-8.2,0-10.6c0-3-0.4-6.1-1.4-8.9l-0.3-0.9c-0.3-1.2-0.7-2.4-1-3.6c-0.7-1.6-1.4-3-1.4-3
	c-3.1-9.1-12.8-23.2-24.6-26.4C363.9,173,360.9,172.7,357.9,172.7L357.9,172.7z M331.1,379.4c0-0.6,0-1.1,0-1.6h1.2v1.6L331.1,379.4
	z M404.7,361.4h-1.2l1.2-0.1V361.4z M403.3,354.4l0-1.8h1.2v1.8H403.3z"/>
<path d="M397.8,316.8l-0.3-0.5l0.3-0.2l2.3-1.4c1.5-0.9,3-1.8,4.5-2.7l0.3-0.2l0.3,0.5l-0.3,0.2c-1.5,0.9-3,1.8-4.5,2.7l-2.3,1.4
	L397.8,316.8z"/>
<path d="M398.1,313.8l-0.3-0.5l1.8-1c1.6-0.9,3.3-1.9,4.9-2.9l0.3-0.2l0.3,0.5l-0.3,0.2c-1.6,1-3.3,2-4.9,2.9L398.1,313.8z"/>
<path d="M398.4,310.5L398,310l1.5-0.9c1.6-1,3.3-2,4.9-3l0.3-0.2l0.3,0.5l-0.3,0.2c-1.6,1-3.3,2-4.9,3L398.4,310.5z"/>
<path d="M399.1,306l-0.3-0.5l1.9-1c1.2-0.7,2.5-1.4,3.7-2.2l0.3-0.2l0.3,0.5l-0.3,0.2c-1.2,0.7-2.5,1.5-3.8,2.2L399.1,306z"/>
<path d="M397.9,328.7l-0.3-0.5l0.3-0.1l2.5-1.4c1.5-0.9,3.1-1.8,4.6-2.7l0.3-0.2l0.3,0.5l-0.3,0.2c-1.5,0.9-3.1,1.8-4.6,2.7
	l-2.5,1.4L397.9,328.7z"/>
<path d="M398,325.8l-0.3-0.5l0.3-0.2l2.1-1.2c1.6-0.9,3.2-1.8,4.7-2.8l0.3-0.2l0.3,0.5l-0.3,0.2c-1.6,1-3.2,1.9-4.8,2.8
	c-0.7,0.4-1.4,0.8-2.1,1.2L398,325.8z"/>
<path d="M397.7,322.9l-0.3-0.5l0.3-0.1l2.1-1.2c1.6-1,3.3-1.9,5-3l0.3-0.2l0.3,0.5l-0.3,0.2c-1.6,1-3.4,2-5,3l-2,1.2L397.7,322.9z"
	/>
<path d="M398,319.9l-0.3-0.5l2-1.2c1.6-0.9,3.3-1.9,4.9-2.9l0.3-0.2l0.3,0.5l-0.3,0.2c-1.6,1-3.3,2-4.9,2.9L398,319.9z"/>
<path d="M398.4,340.3l-0.3-0.5l0.3-0.2l2.4-1.4c1.5-0.9,3-1.7,4.5-2.6l0.3-0.2l0.3,0.5l-0.3,0.2c-1.5,0.9-3,1.8-4.5,2.6l-2.4,1.4
	L398.4,340.3z"/>
<path d="M398.3,337.4l-0.3-0.5l0.3-0.2c0.9-0.5,1.8-1,2.8-1.6c1.4-0.8,2.9-1.6,4.3-2.5l0.3-0.2l0.3,0.5l-0.3,0.2
	c-1.4,0.9-2.9,1.7-4.3,2.5c-0.9,0.5-1.8,1-2.8,1.6L398.3,337.4z"/>
<path d="M398.2,334.5l-0.3-0.5l0.3-0.2c0.9-0.5,1.8-1,2.7-1.6c1.4-0.8,2.8-1.6,4.2-2.4l0.3-0.2l0.3,0.5l-0.3,0.2
	c-1.4,0.8-2.8,1.6-4.2,2.4c-0.9,0.5-1.8,1-2.7,1.6L398.2,334.5z"/>
<path d="M398,331.7l-0.3-0.5l0.3-0.2c0.8-0.5,1.6-0.9,2.5-1.4c1.5-0.8,3-1.7,4.4-2.6l0.3-0.2l0.3,0.5l-0.3,0.2
	c-1.5,0.9-3,1.8-4.4,2.6l-2.5,1.4L398,331.7z"/>
<path d="M398.9,353.6l-0.3-0.5l0.3-0.2l3.3-1.9c1.4-0.8,2.9-1.6,3.2-1.8l0.3-0.2l0.3,0.5l-0.3,0.2c-0.3,0.2-1.7,1-3.2,1.8
	s-3,1.7-3.3,1.9L398.9,353.6z"/>
<path d="M398.2,348.9l-0.3-0.5l0.3-0.2l2.6-1.5c1.5-0.9,3-1.7,4.5-2.7l0.3-0.2l0.3,0.5l-0.3,0.2c-1.5,0.9-3.1,1.8-4.6,2.7
	c-0.9,0.5-1.7,1-2.6,1.5L398.2,348.9z"/>
<path d="M398.3,345.9l-0.3-0.5l0.3-0.2l2-1.2c1.6-1,3.4-2,5-3l0.3-0.2l0.3,0.5l-0.3,0.2c-1.7,1-3.4,2-5,3l-2,1.2L398.3,345.9z"/>
<path d="M398.4,343l-0.3-0.5l2-1.2c1.7-1,3.5-2,5.2-3.1l0.3-0.2l0.3,0.5l-0.3,0.2c-1.7,1.1-3.5,2.1-5.2,3.1L398.4,343z"/>
<path d="M401.6,387.9l-0.3-0.5l0.5-0.3c1.6-1,3.1-2,4.7-3l0.3-0.2l0.3,0.5l-0.3,0.2c-1.6,1-3.1,2-4.7,3L401.6,387.9z"/>
<path d="M401.5,385.1l-0.3-0.5l0.3-0.2l2.6-1.6l2.5-1.6l0.3,0.5l-2.5,1.6c-0.9,0.5-1.7,1.1-2.6,1.6L401.5,385.1z"/>
<rect x="402.6" y="379.3" transform="matrix(0.8451 -0.5346 0.5346 0.8451 -140.2666 275.2254)" width="4.3" height="0.6"/>
<rect x="404.1" y="376.1" transform="matrix(0.8451 -0.5346 0.5346 0.8451 -138.4279 275.0678)" width="2.7" height="0.6"/>
<path d="M401.7,393.2l-0.3-0.5l0.3-0.1c1.7-1,3.4-2,4.8-3l0.3-0.2l0.3,0.5l-0.3,0.2c-1.4,0.9-3.1,2-4.9,3L401.7,393.2z"/>
<path d="M401.5,391l-0.3-0.5l0.3-0.2c1.3-0.8,2.6-1.6,3.9-2.5l1.5-1l0.3,0.5l-1.5,1l-3.9,2.5L401.5,391z"/>
<rect x="400.2" y="407.9" transform="matrix(0.8437 -0.5369 0.5369 0.8437 -156.3027 279.615)" width="3.5" height="0.6"/>
<rect x="398.9" y="406.9" transform="matrix(0.8462 -0.5329 0.5329 0.8462 -155.3298 276.2558)" width="3.9" height="0.6"/>
<path d="M327.9,236.8l-0.2-0.3l2.7-1.6l2.6-1.6l0.2,0.3l-2.6,1.6C329.7,235.7,328.8,236.3,327.9,236.8z"/>
<path d="M327.6,234l-0.2-0.3l3-1.9l2.1-1.4l0.2,0.3l-2.2,1.3L327.6,234z"/>
<path d="M326.4,231.6l-0.2-0.3l3-1.9c1.2-0.7,2.4-1.4,3.5-2.2l0.2,0.3l-3.5,2.2L326.4,231.6z"/>
<path d="M325.7,229.1l-0.2-0.3c1.2-0.7,2.4-1.5,3.5-2.2s2.3-1.4,3.5-2.2l0.2,0.3c-1.2,0.7-2.3,1.5-3.5,2.2S326.9,228.4,325.7,229.1z
	"/>
<path d="M327.8,249.1l-0.2-0.3l3.1-1.9l2.8-1.7l0.2,0.3l-2.8,1.7L327.8,249.1z"/>
<path d="M327.8,246.1l-0.2-0.3l2.5-1.5c1.1-0.7,2.2-1.4,3.3-2.1l0.2,0.3c-1.1,0.7-2.2,1.4-3.4,2.1L327.8,246.1z"/>
<path d="M328,242.9l-0.2-0.3l1.8-1.1c1.2-0.8,2.5-1.5,3.7-2.3l0.2,0.3c-1.2,0.8-2.4,1.6-3.7,2.3L328,242.9z"/>
<path d="M327.8,240.1l-0.2-0.3l1.8-1.1c1.2-0.8,2.5-1.6,3.8-2.4l0.2,0.3c-1.3,0.8-2.5,1.6-3.8,2.4L327.8,240.1z"/>
<path d="M328.5,260.4l-0.2-0.3c1-0.6,2.1-1.2,3.1-1.8s1.8-1,2.7-1.6l0.2,0.3c-0.9,0.5-1.8,1.1-2.7,1.6S329.5,259.7,328.5,260.4z"/>
<path d="M327.9,257.7l-0.2-0.3c1.1-0.7,2.2-1.4,3.3-2c0.9-0.5,1.8-1.1,2.7-1.6l0.2,0.3c-0.9,0.6-1.8,1.1-2.7,1.6
	C330.1,256.4,329,257,327.9,257.7z"/>
<path d="M327.6,254.7l-0.2-0.3c1.2-0.8,2.4-1.5,3.5-2.1c0.9-0.5,1.8-1.1,2.7-1.6l0.2,0.3c-0.9,0.6-1.8,1.1-2.7,1.6
	C330,253.3,328.8,254,327.6,254.7z"/>
<path d="M327.5,252l-0.2-0.3c0.9-0.6,1.8-1.1,2.7-1.6c1.1-0.7,2.3-1.4,3.5-2.2l0.2,0.3c-1.1,0.7-2.3,1.5-3.5,2.1L327.5,252z"/>
<path d="M329.2,273.7l-0.2-0.3l1.6-1.1l2.8-1.9l0.2,0.3l-2.8,1.9L329.2,273.7z"/>
<path d="M329.3,270.7l-0.2-0.3l0.5-0.3c1.3-0.9,2.6-1.7,3.9-2.6l0.2,0.3l-3.9,2.6L329.3,270.7z"/>
<path d="M329.1,267.6l-0.2-0.3l0.2-0.1l4.3-2.9l0.2,0.3c-1.4,1-2.9,2-4.3,2.9L329.1,267.6z"/>
<path d="M328.9,263.6l-0.2-0.3l1.8-1.1c1.3-0.8,2.6-1.6,3.8-2.5l0.2,0.3c-1.3,0.9-2.6,1.7-3.8,2.5L328.9,263.6z"/>
<path d="M329.3,285.9l-0.2-0.3l2.5-1.6l2.3-1.5l0.2,0.3l-2.3,1.5L329.3,285.9z"/>
<path d="M329.5,282.8l-0.2-0.3l1.9-1.2c0.9-0.6,1.7-1.1,2.6-1.7l0.2,0.3c-0.9,0.6-1.7,1.1-2.6,1.7L329.5,282.8z"/>
<path d="M329.3,279.8l-0.2-0.3l1.6-1.1l2.8-1.9l0.2,0.3l-2.8,1.9L329.3,279.8z"/>
<path d="M329.1,277l-0.2-0.3l1.3-0.9c1.1-0.7,2.1-1.4,3.2-2.1l0.2,0.3l-3.2,2.1L329.1,277z"/>
<path d="M329.5,298l-0.2-0.3c1.2-0.8,2.4-1.6,3.6-2.4l2.2-1.4l0.2,0.3l-2.2,1.4C331.9,296.5,330.7,297.2,329.5,298z"/>
<path d="M329.2,295.3L329,295c1.3-0.9,2.7-1.8,4-2.6l1.7-1.1l0.2,0.3l-1.7,1.1C331.9,293.5,330.5,294.4,329.2,295.3z"/>
<path d="M329.1,292.2l-0.2-0.2c1.3-0.9,2.6-1.7,3.9-2.6l1.7-1.1l0.2,0.3l-1.7,1.1C331.7,290.5,330.3,291.3,329.1,292.2z"/>
<path d="M329.4,289l-0.2-0.3c1-0.7,2.1-1.4,3.1-2c0.6-0.4,1.3-0.8,1.9-1.3l0.2,0.3l-1.9,1.3C331.5,287.7,330.4,288.4,329.4,289z"/>
<path d="M331.4,310.8l-0.2-0.3c1-0.7,2.1-1.4,3.1-2l1.2-0.8l0.2,0.3l-1.2,0.8C333.5,309.5,332.4,310.1,331.4,310.8z"/>
<path d="M329.1,307.2l-0.2-0.3c1.5-1,3-2,4.5-3l2.1-1.3l0.2,0.3l-2.1,1.3C332.1,305.1,330.6,306.1,329.1,307.2z"/>
<path d="M329.8,303.6l-0.2-0.3c1-0.7,2-1.3,3-2s2-1.3,3-2l0.2,0.3c-1,0.7-2,1.3-3,2S330.7,302.9,329.8,303.6z"/>
<path d="M329.5,300.9l-0.2-0.3l2.3-1.5l3.5-2.4l0.2,0.2l-3.6,2.4C331,299.9,330.3,300.4,329.5,300.9z"/>
<path d="M325.9,225.7l-0.1-0.3c1.5-0.9,3.1-1.8,4.5-2.8c0.7-0.4,1.4-0.9,2.1-1.3l0.2,0.3c-0.7,0.4-1.4,0.9-2.1,1.3
	C329,223.8,327.4,224.8,325.9,225.7z"/>
<path d="M326.2,222.1l-0.2-0.3c1.4-0.9,2.8-1.9,4.2-2.8l1.9-1.3l0.2,0.3l-1.9,1.3C329.1,220.2,327.6,221.2,326.2,222.1z"/>
<path d="M325.5,218.9l-0.2-0.3c1.3-0.8,2.6-1.7,3.9-2.6l2.9-1.9l0.2,0.3l-2.9,1.9C328.1,217.1,326.8,218,325.5,218.9z"/>
<path d="M326.4,213.9l-0.4-0.5c1.7-1.2,3.4-2.4,5.2-3.6l0.7-0.5l0.4,0.5l-0.7,0.5C329.8,211.5,328.1,212.7,326.4,213.9z"/>
<path d="M326.5,210.4l-0.3-0.5l2.7-1.8c1-0.7,2-1.4,3.1-2l0.3,0.5c-1,0.7-2,1.4-3.1,2L326.5,210.4z"/>
<path d="M326,207.7l-0.4-0.5l5-3.4l1.3-0.9l0.4,0.5l-1.3,0.9L326,207.7z"/>
<path d="M325.9,204.7l-0.4-0.5l4.3-3.1l2.1-1.5l0.4,0.5l-2.1,1.5L325.9,204.7z"/>
<path d="M326.2,201.9l-0.4-0.5l3.9-2.8l4.3-3.1l0.4,0.5l-4.4,3.1L326.2,201.9z"/>
<path d="M326.1,199.3l-0.4-0.5l3.6-2.6l4.6-3.4l0.4,0.5l-4.7,3.4L326.1,199.3z"/>
<path d="M326.1,196.2l-0.4-0.5l3.4-2.4c1.6-1.1,3.2-2.3,4.8-3.4l0.4,0.5l-4.8,3.4L326.1,196.2z"/>
<path d="M326.2,193.7l-0.4-0.5l3.5-2.5l4.8-3.4l0.4,0.5l-4.8,3.4C328.5,192,327.4,192.8,326.2,193.7z"/>
<path d="M326.1,191l-0.4-0.5l2.3-1.6c1.4-1,2.8-2,4.2-2.9l0.4,0.5c-1.4,1-2.8,2-4.2,2.9C327.6,189.9,326.9,190.4,326.1,191z"/>
<path d="M385.6,335.3l-0.2-0.2c2.5-1.7,5-3.3,7.5-4.8l1.6-1l0.2,0.3l-1.6,1C390.6,332,388,333.6,385.6,335.3z"/>
<path d="M385.8,332.2l-0.2-0.3c2.5-1.7,5.1-3.3,7.6-4.9l1.5-0.9l0.2,0.3l-1.5,0.9C390.8,328.9,388.2,330.5,385.8,332.2z"/>
<path d="M385.9,329l-0.2-0.2c2.2-1.5,4.5-2.9,6.6-4.3l2.3-1.4l0.2,0.3l-2.3,1.4C390.3,326,388,327.5,385.9,329z"/>
<path d="M385.8,326l-0.2-0.3c2.1-1.5,4.4-2.9,6.6-4.2l2.2-1.4l0.2,0.3l-2.2,1.4C390.2,323.2,388,324.5,385.8,326z"/>
<path d="M386.5,346.9l-0.2-0.3c2.1-1.5,4.4-2.9,6.6-4.2l1.5-0.9l0.2,0.3c-0.5,0.3-1,0.6-1.5,0.9C390.9,344,388.7,345.4,386.5,346.9z
	"/>
<path d="M386.3,344l-0.2-0.2c2.2-1.5,4.5-3,6.7-4.3l1.8-1.1l0.2,0.3l-1.8,1.1C390.8,341.1,388.5,342.5,386.3,344z"/>
<path d="M385.8,341.3l-0.2-0.2c2.3-1.6,4.6-3.1,6.9-4.5l2.1-1.3l0.2,0.3l-2.1,1.3C390.4,338.2,388.1,339.7,385.8,341.3z"/>
<path d="M385.8,338.4l-0.2-0.2c2.2-1.6,4.6-3,6.8-4.4l2.2-1.4l0.2,0.3l-2.2,1.4C390.3,335.4,388,336.8,385.8,338.4z"/>
<path d="M390.8,352.8l-0.2-0.3c0.5-0.4,1.1-0.7,1.7-1l0.2,0.3C391.9,352.1,391.3,352.4,390.8,352.8z"/>
<path d="M390.1,350l-0.2-0.2c0.7-0.5,1.4-0.9,2.3-1.5l0.2,0.3C391.5,349.1,390.8,349.6,390.1,350z"/>
<path d="M388.3,348.4l-0.2-0.3c1.5-1,3.1-2,4.7-3l1.5-1l0.2,0.3l-1.6,1C391.5,346.4,389.9,347.3,388.3,348.4z"/>
<path d="M387.3,372l-0.2-0.2c0.7-0.5,1.3-0.9,1.9-1.3l0.2,0.3C388.6,371,388,371.5,387.3,372z"/>
<path d="M386.7,369.4l-0.2-0.2c1.1-0.8,2.3-1.6,3.4-2.3l0.2-0.2l0.2,0.3l-0.2,0.1C389,367.9,387.9,368.6,386.7,369.4z"/>
<path d="M386.1,366.7l-0.2-0.2c1.5-1.1,3-2.1,4.5-3.1l0.8-0.5l0.2,0.3l-0.8,0.5C389.1,364.6,387.5,365.7,386.1,366.7z"/>
<path d="M389.6,360.1l-0.2-0.3c0.8-0.6,1.6-1.1,2.4-1.6l0.4-0.2l0.2,0.3l-0.4,0.2C391.3,359,390.4,359.5,389.6,360.1z"/>
<path d="M387.3,321.4l-0.2-0.3c0.3-0.2,0.7-0.5,1-0.6l0.1,0.1c1.5-0.8,3-1.7,4.5-2.7c0.6-0.4,1.2-0.8,1.8-1.1l0.2,0.3
	c-0.6,0.4-1.2,0.7-1.8,1.1C391.1,319.3,389.2,320.4,387.3,321.4z"/>
<path d="M389.8,316.7l-0.2-0.3c1.2-0.8,2.5-1.6,3.7-2.5l1.4-0.9l0.2,0.3l-1.4,0.9C392.2,315.1,391,315.9,389.8,316.7z"/>
<path d="M387.3,314.6l-0.2-0.3c1.8-1.1,3.5-2.3,5.2-3.4l2.1-1.4l0.2,0.3l-2.1,1.4C390.8,312.3,389,313.5,387.3,314.6z"/>
<path d="M386.7,311.2l-0.2-0.3c2.5-1.6,4.9-3.4,7.3-5l0.8-0.5l0.2,0.3l-0.8,0.5C391.6,307.8,389.1,309.5,386.7,311.2z"/>
<path d="M387.3,304.3l-0.2-0.3c1.8-1.1,3.5-2.3,5.2-3.4l2.1-1.4l0.2,0.3l-2.1,1.4C390.8,302,389,303.2,387.3,304.3z"/>
<path d="M387.3,296.5l-0.2-0.3c1.8-1.1,3.5-2.3,5.3-3.4l2.1-1.4l0.2,0.3l-2.1,1.4C390.8,294.1,389,295.3,387.3,296.5z"/>
<path d="M386.7,300.9l-0.2-0.3c2.5-1.6,4.9-3.3,7.3-5l0.9-0.6l0.2,0.2l-0.9,0.6C391.6,297.5,389.1,299.2,386.7,300.9z"/>
<path d="M385.5,288l-0.2-0.3c2.5-1.7,5.1-3.3,7.6-4.8l1.6-1l0.2,0.3l-1.6,1C390.5,284.7,388,286.3,385.5,288z"/>
<path d="M385.7,284.9l-0.2-0.2c2.5-1.7,5-3.3,7.5-4.9l1.5-0.9l0.2,0.3l-1.5,0.9C390.7,281.6,388.1,283.2,385.7,284.9z"/>
<path d="M385.8,281.7l-0.2-0.2c2.2-1.5,4.5-2.9,6.7-4.3l2.2-1.4l0.2,0.3l-2.2,1.4C390.2,278.7,388,280.2,385.8,281.7z"/>
<path d="M385.8,278.8l-0.2-0.3c2.1-1.5,4.4-2.9,6.6-4.2l2.2-1.4l0.2,0.3l-2.2,1.4C390.1,275.9,387.9,277.3,385.8,278.8z"/>
<path d="M385.7,294l-0.2-0.3c2.3-1.6,4.7-3.1,7-4.5l2-1.3l0.2,0.3l-2,1.3C390.4,290.9,388,292.4,385.7,294z"/>
<path d="M385.7,291.1l-0.2-0.3c2.2-1.6,4.6-3,6.9-4.4l2.1-1.4l0.2,0.3l-2.2,1.4C390.3,288.1,387.9,289.5,385.7,291.1z"/>
<path d="M388.3,307.1l-0.2-0.2c1.5-1.1,3.1-2,4.7-3l1.6-1l0.2,0.3l-1.6,1C391.4,305,389.8,306,388.3,307.1z"/>
<path d="M387.2,274.1l-0.2-0.3c0.3-0.2,0.7-0.5,1-0.6l0.1,0.1c1.5-0.8,3-1.8,4.5-2.7c0.6-0.4,1.2-0.8,1.8-1.1l0.2,0.3l-1.8,1.1
	C391,272.1,389.2,273.1,387.2,274.1z"/>
<path d="M387.2,267.3L387,267c1.8-1.1,3.5-2.3,5.2-3.4l2.1-1.4l0.2,0.3l-2.1,1.4C390.7,265,389,266.2,387.2,267.3z"/>
<path d="M385.5,256.4l-0.2-0.3c2.5-1.7,5-3.3,7.5-4.8l1.6-1l0.2,0.3l-1.6,1C390.5,253.1,388,254.7,385.5,256.4z"/>
<path d="M385.7,253.3l-0.2-0.2c2.5-1.7,5-3.3,7.5-4.9l1.5-0.9l0.2,0.3l-1.5,0.9C390.7,250,388.1,251.6,385.7,253.3z"/>
<path d="M385.8,250.1l-0.2-0.2c2.2-1.5,4.5-2.9,6.7-4.3c0.8-0.5,1.5-0.9,2.3-1.4l0.2,0.3l-2.2,1.4
	C390.2,247.1,388,248.6,385.8,250.1z"/>
<path d="M385.8,247.2l-0.2-0.3c2.1-1.5,4.4-2.9,6.5-4.2l2.2-1.4l0.2,0.3l-2.2,1.4C390.1,244.3,387.9,245.7,385.8,247.2z"/>
<path d="M386.5,271l-0.2-0.2c2.2-1.5,4.3-2.8,6.5-4.2l1.6-1l0.2,0.3l-1.6,1C390.7,268.2,388.6,269.5,386.5,271z"/>
<path d="M386.2,265.2l-0.2-0.3c2.2-1.5,4.5-3,6.7-4.3l1.8-1.1l0.2,0.3l-1.8,1.1C390.7,262.2,388.4,263.6,386.2,265.2z"/>
<path d="M385.7,262.4l-0.2-0.3c2.3-1.6,4.6-3.1,7-4.5c0.7-0.4,1.4-0.9,2.1-1.3l0.2,0.3l-2.1,1.3C390.4,259.3,388,260.8,385.7,262.4z
	"/>
<path d="M385.7,259.5l-0.2-0.2c2.2-1.6,4.6-3,6.9-4.4l2.1-1.4l0.2,0.3l-2.2,1.4C390.3,256.5,387.9,257.9,385.7,259.5z"/>
<path d="M387.2,242.5l-0.2-0.3c0.3-0.2,0.7-0.5,1-0.6l0.1,0.1c1.5-0.8,3-1.8,4.5-2.7c0.6-0.4,1.2-0.7,1.8-1.1l0.2,0.3l-1.8,1.1
	C391,240.5,389.2,241.5,387.2,242.5z"/>
<path d="M389.7,237.8l-0.2-0.3c1.3-0.8,2.5-1.7,3.8-2.5l1.3-0.9l0.2,0.3c-0.4,0.3-0.9,0.6-1.3,0.9
	C392.2,236.2,390.9,237,389.7,237.8z"/>
<path d="M387.2,235.7l-0.2-0.3c1.8-1.1,3.5-2.3,5.2-3.4l2.2-1.5l0.2,0.3l-2.2,1.5C390.7,233.4,389,234.6,387.2,235.7z"/>
<path d="M386.6,231.6l-0.2-0.3c2.5-1.6,4.9-3.3,7.3-5l0.8-0.6l0.2,0.2l-0.9,0.6C391.5,228.3,389,230,386.6,231.6z"/>
<path d="M386.9,229.1l-0.2-0.3c1.9-1.2,3.8-2.4,5.6-3.6l2.4-1.6l0.2,0.3l-2.4,1.6C390.6,226.7,388.8,227.9,386.9,229.1z"/>
<path d="M386.6,226.3l-0.2-0.3c2.5-1.7,5.1-3.5,7.6-5.2l1-0.7l0.2,0.2l-1,0.7C391.7,222.8,389.1,224.6,386.6,226.3z"/>
<path d="M386.7,223.4l-0.2-0.2c2.3-1.6,4.6-3.3,6.8-4.9l1.9-1.3l0.2,0.2l-1.9,1.3C391.2,220.1,388.9,221.8,386.7,223.4z"/>
<path d="M386.7,220.7l-0.2-0.2c2.2-1.6,4.4-3.2,6.5-4.7l1.9-1.4l0.2,0.2l-1.9,1.4C391.1,217.5,388.9,219.1,386.7,220.7z"/>
<path d="M386.9,217.9l-0.2-0.2c2-1.5,4.1-3,6.2-4.5l1.6-1.2l0.2,0.2l-1.6,1.2C391,214.9,389,216.4,386.9,217.9z"/>
<path d="M387.2,214.7l-0.2-0.3c1.8-1.3,3.6-2.6,5.3-3.8l1.5-1.1l0.2,0.3l-1.5,1.1C390.8,212.1,389,213.4,387.2,214.7z"/>
<path d="M387.5,212l-0.2-0.3l5-3.6l1.1-0.8l0.2,0.2l-1.1,0.8C390.8,209.6,389.1,210.8,387.5,212z"/>
<path d="M387.8,209l-0.2-0.2c1.2-0.9,2.5-1.8,3.8-2.6l1.1-0.8l0.2,0.3l-1.1,0.8C390.3,207.2,389,208.1,387.8,209z"/>
<path d="M377.8,195.3l-0.3-0.1c1.2-2.9,2.5-5.8,3.9-8.5l0.9-1.8l0.3,0.1l-0.9,1.8C380.3,189.5,379,192.4,377.8,195.3z"/>
<path d="M376.4,192.6l-0.3-0.1c1.2-2.9,2.5-5.8,3.9-8.6l0.8-1.6l0.3,0.1l-0.8,1.6C378.9,186.8,377.6,189.7,376.4,192.6z"/>
<path d="M374.8,189.9l-0.3-0.1c1.1-2.6,2.3-5.2,3.4-7.6c0.3-0.6,0.5-1.1,0.8-1.7l0.3,0.1l-0.8,1.7
	C377.1,184.7,375.9,187.3,374.8,189.9z"/>
<path d="M373.3,187.4l-0.3-0.1c1-2.6,2.2-5.1,3.4-7.6l0.4-0.9l0.3,0.1l-0.4,0.9C375.6,182.3,374.4,184.9,373.3,187.4z"/>
<path d="M384.4,204.4l-0.3-0.1c1-2.5,2.2-5,3.4-7.5l0.8-1.7l0.3,0.1l-0.8,1.7C386.6,199.4,385.5,201.9,384.4,204.4z"/>
<path d="M382.8,202.2l-0.3-0.1c1-2.6,2.3-5.2,3.4-7.7c0.3-0.7,0.6-1.3,0.9-2l0.3,0.1l-1,2C385,197,383.8,199.6,382.8,202.2z"/>
<path d="M381,200.2l-0.3-0.1c1.1-2.7,2.3-5.3,3.5-7.9c0.4-0.8,0.7-1.6,1.1-2.4l0.3,0.1c-0.4,0.8-0.7,1.6-1.1,2.4
	C383.3,194.9,382.1,197.5,381,200.2z"/>
<path d="M379.5,197.8l-0.3-0.1c1.1-2.7,2.3-5.4,3.5-7.9l0.2-0.4l0.3,0.1l-0.2,0.4C381.8,192.4,380.6,195.1,379.5,197.8z"/>
<path d="M389,204.9l-0.3-0.1c0.3-0.8,0.7-1.6,1.2-2.6l0.3,0.1C389.7,203.3,389.3,204.1,389,204.9z"/>
<path d="M386.7,204.6l-0.3-0.1c0.8-1.8,1.6-3.6,2.4-5.3c0.3-0.6,0.5-1.1,0.8-1.7l0.3,0.1c-0.3,0.6-0.5,1.2-0.8,1.7
	C388.3,201,387.4,202.8,386.7,204.6z"/>
<path d="M372.2,182.6l-0.3-0.1c0.1-0.4,0.3-0.7,0.5-1.1l0.1,0.1c0.7-1.3,1.4-2.7,2-4l0.3,0.1C374.1,179.3,373.2,181,372.2,182.6z"/>
<rect x="348" y="173.2" transform="matrix(0.7815 -0.6239 0.6239 0.7815 -33.9124 255.9041)" width="0.8" height="6.3"/>
<rect x="344.3" y="175.9" transform="matrix(0.7828 -0.6222 0.6222 0.7828 -36.4006 253.2975)" width="0.8" height="5.8"/>
<rect x="343" y="175.5" transform="matrix(0.7813 -0.6242 0.6242 0.7813 -36.4655 253.4021)" width="0.8" height="6.4"/>
<path d="M342.3,182.9l-3.1-3.9l-0.7-0.9l0.6-0.5l0.7,0.9l3.1,3.9L342.3,182.9z"/>
<path d="M340.2,184.3c-1.3-1.6-2.5-3.1-3.8-4.7l0.6-0.5l3.8,4.7L340.2,184.3z"/>
<path d="M337.6,185.7c-1.1-1.4-2.2-2.8-3.3-4.2l0.6-0.5c1.1,1.4,2.2,2.8,3.3,4.2L337.6,185.7z"/>
<path d="M344,352.7l-0.2-0.4l3.8-2.3l2.6-1.6l0.2,0.4c-0.9,0.5-1.7,1.1-2.6,1.6L344,352.7z"/>
<path d="M343.5,350l-0.2-0.4c1.5-0.9,3-1.9,4.5-2.8l2.2-1.4l0.2,0.4l-2.2,1.4C346.5,348.2,345,349.1,343.5,350z"/>
<path d="M342.9,347.3l-0.2-0.4c1.2-0.8,2.4-1.5,3.7-2.3l3.3-2.1l0.2,0.4c-1.1,0.7-2.2,1.4-3.3,2.1S344.1,346.5,342.9,347.3z"/>
<path d="M342.5,344.6l-0.2-0.4c1.3-0.8,2.6-1.6,3.9-2.5c1.1-0.7,2.2-1.4,3.3-2l0.2,0.4c-1.1,0.7-2.2,1.4-3.3,2
	C345.1,343,343.8,343.8,342.5,344.6z"/>
<path d="M347.5,362.8l-0.2-0.4l1-0.6l3.6-2.2l0.2,0.4c-1.2,0.8-2.4,1.5-3.6,2.2L347.5,362.8z"/>
<path d="M346.4,360.4l-0.2-0.4l1.4-0.9c1.3-0.8,2.6-1.6,3.9-2.5l0.3,0.4c-1.3,0.8-2.6,1.7-3.9,2.5L346.4,360.4z"/>
<path d="M345.4,358l-0.2-0.4l1.7-1.1c1.5-1,3.1-1.9,4.6-2.9l0.3,0.4c-1.5,1-3.1,2-4.6,3L345.4,358z"/>
<path d="M344.8,355.4l-0.2-0.4l1.8-1.1c1.4-0.9,2.9-1.8,4.4-2.8l0.2,0.4c-1.5,0.9-2.9,1.9-4.4,2.8L344.8,355.4z"/>
<path d="M349.8,367l-0.2-0.4c0.6-0.4,1.2-0.7,1.8-1.1l0.3,0.4C351,366.2,350.4,366.6,349.8,367z"/>
<path d="M348.6,364.8l-0.2-0.4l0.1-0.1c0.9-0.5,1.8-1.1,2.6-1.7l0.3,0.4c-0.9,0.6-1.8,1.1-2.7,1.7L348.6,364.8z"/>
<path d="M342.3,341.3l-0.2-0.4c1.7-0.9,3.4-2,5-3l2-1.3l0.2,0.4l-2,1.3C345.7,339.3,344,340.4,342.3,341.3z"/>
<path d="M343.4,337.3l-0.2-0.4c1.4-0.9,2.8-1.9,4.2-2.8l1.9-1.3l0.3,0.4l-1.9,1.3C346.2,335.5,344.8,336.4,343.4,337.3z"/>
<path d="M341.9,334.5l-0.3-0.4c1.4-0.9,2.3-1.6,3.4-2.3s1.9-1.3,3.1-2.1l0.2,0.4c-1.2,0.8-2.1,1.5-3,2.1S343.3,333.6,341.9,334.5z"
	/>
<path d="M342,330l-0.3-0.4c1.4-0.9,2.3-1.6,3.4-2.4c0.9-0.6,1.8-1.3,2.9-2.1l0.3,0.4c-1.1,0.8-2,1.5-2.9,2.1
	C344.3,328.3,343.4,329,342,330z"/>
<path d="M341.5,326.8l-0.2-0.4c1.4-0.9,2.5-1.7,3.6-2.5s2-1.4,3.2-2.2l0.2,0.4c-1.3,0.8-2.3,1.5-3.2,2.2S343,325.9,341.5,326.8z"/>
<path d="M343.1,320.8l-0.3-0.4l3.1-2.2l1.3-1l0.3,0.4l-1.3,1L343.1,320.8z"/>
<path d="M343.1,324.1l-0.3-0.4l2.8-2l1.5-1l0.3,0.4l-1.5,1C344.9,322.8,344,323.4,343.1,324.1z"/>
<path d="M326.8,366.4l-0.2-0.2c2.3-1.6,4.7-3,7-4.5l1.2-0.8l0.2,0.3l-1.2,0.8C331.5,363.3,329.1,364.8,326.8,366.4z"/>
<path d="M327,363.3l-0.2-0.2c2.3-1.6,4.6-3.1,6.9-4.5l1.1-0.7l0.2,0.3l-1.1,0.7C331.6,360.2,329.3,361.7,327,363.3z"/>
<path d="M327.1,360l-0.2-0.2c2-1.4,4.2-2.8,6.3-4l1.8-1.1l0.2,0.3l-1.8,1C331.3,357.3,329.1,358.6,327.1,360z"/>
<path d="M327.1,357.1l-0.2-0.3c2.1-1.4,4.2-2.8,6.4-4.1l2-1.2l0.2,0.3l-2,1.2C331.3,354.4,329.1,355.7,327.1,357.1z"/>
<path d="M327.8,378l-0.2-0.3c1.9-1.3,3.9-2.5,5.8-3.7l1-0.6l0.2,0.3l-1,0.6C331.7,375.4,329.7,376.6,327.8,378z"/>
<path d="M327.5,375.1l-0.2-0.3c1.9-1.4,3.9-2.6,5.9-3.8l1.1-0.7l0.2,0.3l-1.1,0.7C331.5,372.5,329.5,373.8,327.5,375.1z"/>
<path d="M327,372.4l-0.2-0.3c2-1.4,4.1-2.8,6.2-4l1.3-0.9l0.2,0.3l-1.4,0.8C331.2,369.6,329.1,371,327,372.4z"/>
<path d="M327,369.5l-0.2-0.2c2-1.4,4.2-2.8,6.3-4.1l1.5-1l0.2,0.3l-1.5,1C331.2,366.7,329.1,368,327,369.5z"/>
<path d="M332.3,386.8l-0.4-0.5c0.7-0.5,1.5-0.9,2.2-1.3l0.3-0.2l0.3,0.5l-0.3,0.2C333.8,386,333,386.4,332.3,386.8z"/>
<path d="M332.1,384l-0.3-0.5c0.8-0.5,1.5-1,2.3-1.4l0.4-0.2l0.3,0.5l-0.4,0.2C333.6,383.1,332.8,383.5,332.1,384z"/>
<path d="M331.4,381.1l-0.2-0.3c0.9-0.6,1.8-1.2,2.8-1.7l0.5-0.3l0.2,0.3l-0.5,0.3C333.2,380,332.2,380.5,331.4,381.1z"/>
<path d="M329.6,379.5l-0.2-0.3c1.3-0.9,2.7-1.8,4.1-2.6l1-0.6l0.2,0.3l-1,0.6C332.3,377.7,330.9,378.6,329.6,379.5z"/>
<rect x="331.3" y="393.5" transform="matrix(0.8316 -0.5554 0.5554 0.8316 -162.6454 251.269)" width="3.3" height="0.6"/>
<path d="M330.9,391.2l-0.2-0.3c1-0.7,2.1-1.4,3.1-2l0.8-0.5l0.2,0.3l-0.8,0.5C332.9,389.8,331.9,390.5,330.9,391.2z"/>
<path d="M328.6,352.5l-0.2-0.3c0.4-0.3,0.7-0.5,1-0.6l0.1,0.1c1.4-0.7,2.7-1.5,4-2.4c0.5-0.3,1.1-0.7,1.6-1l0.2,0.3l-1.6,1
	C332,350.7,330.3,351.6,328.6,352.5z"/>
<path d="M331,347.8l-0.2-0.3c1.2-0.8,2.4-1.6,3.5-2.4l1.1-0.7l0.2,0.3l-1.1,0.7C333.4,346.2,332.2,347,331,347.8z"/>
<path d="M328.5,345.7l-0.2-0.3c1.8-1.1,3.5-2.3,5.2-3.4l2.2-1.4l0.2,0.3l-2.2,1.4C332.1,343.4,330.3,344.6,328.5,345.7z"/>
<path d="M327.9,341.6l-0.2-0.3c2.5-1.7,5.1-3.4,7.5-5.1l0.3-0.2l0.2,0.3l-0.3,0.2C333,338.2,330.4,339.9,327.9,341.6z"/>
<path d="M328.1,338l-0.2-0.3c1.9-1.2,3.8-2.5,5.7-3.7c0.6-0.4,1.2-0.8,1.8-1.2l0.2,0.3l-1.8,1.2C332,335.5,330,336.8,328.1,338z"/>
<path d="M327.9,335.2l-0.2-0.3c2.6-1.8,5.2-3.6,7.7-5.3l0.2,0.3C333,331.6,330.4,333.4,327.9,335.2z"/>
<path d="M327.9,332.3l-0.2-0.2c2.4-1.7,4.8-3.5,7.1-5.2l0.6-0.4l0.2,0.3l-0.6,0.4C332.7,328.8,330.3,330.5,327.9,332.3z"/>
<path d="M328,329.5l-0.2-0.2c2.3-1.7,4.7-3.4,7-5l0.8-0.5l0.2,0.2l-0.8,0.5L328,329.5z"/>
<path d="M328.1,326.8l-0.2-0.3c1.9-1.4,3.9-2.8,5.8-4.2l1.8-1.3l0.2,0.2l-1.8,1.3C332,323.9,330.1,325.4,328.1,326.8z"/>
<path d="M328.5,323.5l-0.2-0.2c1.8-1.3,3.7-2.7,5.5-4l2-1.4l0.2,0.3l-2,1.4C332.2,320.8,330.3,322.2,328.5,323.5z"/>
<path d="M328.7,320.9l-0.2-0.2l5.4-3.9l1.8-1.3l0.2,0.3l-1.8,1.3C332.3,318.2,330.5,319.5,328.7,320.9z"/>
<path d="M329,317.8l-0.2-0.2c1.6-1.1,3.2-2.2,4.7-3.3l2.2-1.5l0.2,0.3l-2.2,1.5C332.2,315.6,330.6,316.7,329,317.8z"/>
<path d="M333.4,406.6l-0.4-0.5l2.4-1.7l0.4,0.5L333.4,406.6z"/>
<path d="M331.4,405.2l-0.2-0.2l3.7-2.7l0.2,0.2L331.4,405.2z"/>
<path d="M330.5,403.1l-0.2-0.3c1.4-1,2.8-2,4.1-3l0.2,0.2C333.3,401.1,331.9,402.1,330.5,403.1z"/>
<path d="M330.9,399.9l-0.2-0.2l3.1-2.2l0.2,0.2L330.9,399.9z"/>
<path d="M331.1,397.2l-0.2-0.2l2-1.5l0.2,0.3L331.1,397.2z"/>
<rect x="384.9" y="421.2" transform="matrix(0.4576 -0.8892 0.8892 0.4576 -167.5394 572.5792)" width="1.2" height="4.9"/>
<path d="M393.7,421.2l-3.5-2.1l0.6-1.1c1.2,0.7,2.4,1.4,3.5,2.1L393.7,421.2z"/>
<rect x="393.8" y="416" transform="matrix(0.5173 -0.8558 0.8558 0.5173 -167.4192 539.3724)" width="1.2" height="4.1"/>
<rect x="396.2" y="414" transform="matrix(0.5188 -0.8549 0.8549 0.5188 -165.0746 539.6448)" width="1.2" height="4.9"/>
<rect x="397.9" y="413.1" transform="matrix(0.5191 -0.8547 0.8547 0.5191 -162.8812 540.0928)" width="1.2" height="3.3"/>
<path d="M389.5,424c-1.4-0.9-2.8-1.7-4.1-2.6l0.7-1c1.4,0.9,2.8,1.7,4.1,2.6L389.5,424z"/>
<path d="M391.5,422.8l-0.9-0.5l-2.9-1.8l0.7-1.1l2.9,1.8l0.9,0.5L391.5,422.8z"/>
<path d="M383.2,427.8c-1.2-0.7-2.3-1.4-3.5-2.1l0.7-1.1c1.1,0.7,2.3,1.4,3.4,2.1L383.2,427.8z"/>
<path d="M385.2,426.5l-1-0.6c-0.9-0.6-1.9-1.1-2.8-1.7l0.6-1.1l2.8,1.7l1,0.6L385.2,426.5z"/>
<rect x="364" y="425.4" transform="matrix(0.8471 -0.5314 0.5314 0.8471 -171.667 259.1826)" width="1.2" height="5.1"/>
<path d="M372.8,430.4c-0.9-1.7-1.9-3.5-2.8-5.2l-0.1-0.1l1.1-0.6l0,0.1c1,1.7,1.9,3.5,2.8,5.2L372.8,430.4z"/>
<polygon points="375.3,430.2 372.5,425 373.6,424.4 376.4,429.7 "/>
<rect x="377" y="426.1" transform="matrix(0.8795 -0.4759 0.4759 0.8795 -158.1847 231.3258)" width="1.2" height="3.9"/>
<rect x="380" y="427.6" transform="matrix(0.8795 -0.4759 0.4759 0.8795 -158.1604 232.8237)" width="1.2" height="2.2"/>
<path d="M367.9,430.5c-0.9-1.7-1.9-3.5-2.8-5.3l1.1-0.5c0.9,1.8,1.9,3.6,2.8,5.3L367.9,430.5z"/>
<path d="M370.1,430.6l-0.5-1c-0.8-1.4-1.5-2.8-2.3-4.3l1.1-0.6c0.8,1.4,1.5,2.8,2.3,4.2l0.5,1L370.1,430.6z"/>
<path d="M360.7,430.2c-0.7-1.4-1.5-2.8-2.2-4.1l1.1-0.6c0.7,1.4,1.4,2.8,2.2,4.1L360.7,430.2z"/>
<path d="M363,430.3l-0.5-1c-0.6-1.1-1.1-2.1-1.7-3.2l1.1-0.6c0.6,1.1,1.1,2.1,1.7,3.2l0.5,1L363,430.3z"/>
<rect x="342.3" y="419.7" transform="matrix(0.977 -0.2134 0.2134 0.977 -82.1594 82.8967)" width="1.2" height="4.8"/>
<path d="M349.7,427.4c-0.2-1.2-0.4-2.3-0.5-3.5l1.2-0.2c0.2,1.2,0.4,2.3,0.5,3.5L349.7,427.4z"/>
<path d="M352.1,428.3c-0.2-1.1-0.4-2.2-0.5-3.3v-0.1l1.2-0.2v0.1c0.2,1.1,0.4,2.2,0.5,3.3L352.1,428.3z"/>
<rect x="354.4" y="425.1" transform="matrix(0.9882 -0.153 0.153 0.9882 -61.1573 59.3439)" width="1.2" height="3.9"/>
<path d="M345.1,425.6c-0.1-1-0.3-2-0.4-3l1.2-0.2c0.1,1,0.3,2,0.4,3L345.1,425.6z"/>
<rect x="346.9" y="423.4" transform="matrix(0.9885 -0.1514 0.1514 0.9885 -60.3468 57.5266)" width="1.2" height="3"/>
<path d="M338.4,422.5c-0.2-1.6-0.5-3.1-0.7-4.7l1.2-0.2c0.2,1.6,0.4,3.1,0.7,4.7L338.4,422.5z"/>
<path d="M340.5,423.5l-0.2-1.2c-0.2-1.4-0.4-2.9-0.6-4.3l1.2-0.2c0.2,1.5,0.4,2.9,0.6,4.3l0.2,1.2L340.5,423.5z"/>
<path class="st7" d="M346.9,203.6c0,0-19.6,2.1-30,13.5s-3.4,25.1-1.8,25.3s-3.7-11,6.4-21.2c0,0,8.5-11.4,26.4-15.2
	C347.8,206,349,206.4,346.9,203.6z"/>
<path class="st7" d="M375,202.7c0,0,19.6-1.4,31.9,8s7.7,24.1,6.3,24.6s1.7-11.5-10-19.7c0,0-10.4-9.7-28.6-10.3
	C374.5,205.3,373.4,205.9,375,202.7z"/>
<path class="st4" d="M389.9,279.7c-5-0.1-10.4-4.9-13.2-12.2c-3.4-9-1.6-18.3,4-20.9c1-0.4,2.1-0.7,3.1-0.6
	c5,0.1,10.4,4.9,13.2,12.2c3.4,9,1.6,18.3-4,20.9C392.1,279.5,391,279.7,389.9,279.7z M386.5,235.3c-1.3,0-2.6,0.2-3.8,0.6
	c-8.8,2.9-13.1,15.9-9.7,29.1c3,11.3,10.8,19,18.5,19.1c1.3,0,2.6-0.2,3.8-0.6c8.8-2.9,13.1-15.9,9.7-29.1
	C402,243.1,394.2,235.4,386.5,235.3L386.5,235.3z"/>
<path class="st7" d="M407.4,253.6l-0.6,0.1c0.9,3.3,1.3,6.8,1.3,10.2c0,4.8-1.1,9.5-3.3,13.8c-1.8,3.6-4.9,6.4-8.7,7.8
	c-1.3,0.4-2.8,0.7-4.2,0.6c-4.2,0-8.4-2.1-12-5.8c-4-4.2-6.8-9.4-8.2-15c-0.9-3.3-1.3-6.8-1.3-10.2c0-4.8,1.1-9.5,3.3-13.8
	c1.8-3.6,4.9-6.4,8.7-7.8c1.3-0.5,2.7-0.7,4.2-0.6c4.2,0,8.4,2.1,12,5.8c4,4.2,6.8,9.4,8.2,15L407.4,253.6l0.6-0.2
	c-1.4-5.8-4.4-11.1-8.5-15.5c-3.8-3.8-8.3-6-12.8-6.1c-1.5,0-3.1,0.2-4.5,0.7c-4.1,1.5-7.4,4.5-9.4,8.3c-2.3,4.4-3.5,9.4-3.5,14.4
	c0,3.6,0.4,7.1,1.3,10.5c1.4,5.8,4.4,11.2,8.5,15.5c3.8,3.8,8.3,6,12.8,6.1c1.5,0,3.1-0.2,4.5-0.7c4.1-1.5,7.4-4.4,9.4-8.3
	c2.3-4.5,3.5-9.4,3.5-14.4c0-3.5-0.4-7.1-1.3-10.5L407.4,253.6z"/>
<path class="st7" d="M391.5,284.1c-7.7-0.1-15.5-7.8-18.5-19.1c-3.5-13.1,0.9-26.2,9.7-29.1c1.2-0.4,2.5-0.6,3.8-0.6
	c7.7,0.1,15.5,7.8,18.5,19.1c3.5,13.1-0.9,26.2-9.7,29.1C394,283.9,392.8,284.1,391.5,284.1z M386.6,233.1L386.6,233.1
	c-1.4,0-2.8,0.2-4.2,0.6c-3.8,1.4-6.9,4.2-8.7,7.8c-2.2,4.3-3.4,9-3.3,13.8c0,3.5,0.4,6.9,1.3,10.2c1.4,5.6,4.2,10.8,8.2,15
	c3.6,3.6,7.8,5.7,12,5.8l0,0c1.4,0,2.8-0.2,4.2-0.6c3.8-1.4,6.9-4.2,8.7-7.8c2.2-4.3,3.4-9,3.3-13.8c0-3.5-0.4-6.9-1.3-10.2l0.6-0.1
	l-0.6,0.1c-1.4-5.6-4.2-10.8-8.2-15C395,235.2,390.8,233.1,386.6,233.1L386.6,233.1z"/>
<path class="st7" d="M386.6,232.5c-1.5,0-3,0.2-4.4,0.7c-10,3.3-15,17.9-11.1,32.5c3.3,12.5,12,21.1,20.8,21.2
	c1.5,0,2.9-0.2,4.4-0.7c10-3.3,15-17.9,11.1-32.5l-0.6,0.1c0.9,3.3,1.3,6.8,1.3,10.2c0,4.8-1.1,9.5-3.3,13.8
	c-1.8,3.6-4.9,6.4-8.7,7.8c-1.3,0.4-2.8,0.7-4.2,0.6l0,0c-4.2,0-8.4-2.1-12-5.8c-4-4.2-6.8-9.4-8.2-15c-0.9-3.3-1.3-6.8-1.3-10.2
	c0-4.8,1.1-9.5,3.3-13.8c1.8-3.6,4.9-6.4,8.7-7.8c1.3-0.5,2.7-0.7,4.2-0.6l0,0c4.2,0,8.4,2.1,12,5.8c4,4.2,6.8,9.4,8.2,15l0.6-0.1
	C404.1,241.1,395.4,232.6,386.6,232.5z"/>
<path class="st4" d="M376.8,267.4c-3.4-9-1.6-18.3,4-20.9s12.9,2.6,16.3,11.6c3.4,8.9,1.6,18.3-4,20.9S380.1,276.4,376.8,267.4z"/>
<path class="st7" d="M384.9,252c-0.7,0-1.5,0.1-2.1,0.4c-3.9,1.7-5.3,7.7-3.2,13.6c1.7,4.8,5.3,8,8.7,8c0.7,0,1.5-0.1,2.1-0.4
	c3.9-1.7,5.3-7.8,3.2-13.6C391.8,255.2,388.2,252.1,384.9,252z"/>
<path class="st4" d="M334.6,283.5h-0.1c-6.2-0.2-10.4-8.1-9.5-17.6s6.6-17,12.7-16.9h0.1c6.2,0.2,10.4,8.1,9.5,17.6
	S340.7,283.5,334.6,283.5z M338,238.2c-8.7-0.1-17.5,9.3-20.1,21.9c-2.7,13.3,2.6,25.2,11.8,26.4c0.5,0.1,1,0.1,1.5,0.1
	c8.7,0.1,17.5-9.3,20-21.9c2.7-13.3-2.6-25.2-11.8-26.4C339,238.2,338.5,238.2,338,238.2z"/>
<path class="st7" d="M353.8,265.2l-0.6-0.1c-1.2,6.4-4.2,12.3-8.5,17.2c-4,4.3-8.8,6.8-13.5,6.7c-0.6,0-1.1,0-1.7-0.1
	c-4.2-0.6-7.6-3.1-10-7c-2.6-4.5-3.9-9.6-3.7-14.8c0-2.4,0.3-4.7,0.8-7c1.2-6.4,4.2-12.4,8.5-17.2c4-4.3,8.8-6.8,13.5-6.7
	c0.6,0,1.1,0,1.7,0.1c4.2,0.7,7.9,3.3,10,7c2.6,4.5,3.9,9.6,3.7,14.8c0,2.4-0.3,4.7-0.8,7L353.8,265.2l0.5,0.1
	c0.5-2.4,0.8-4.8,0.8-7.2c0.2-5.4-1.2-10.8-3.9-15.4c-2.3-4-6.3-6.8-10.9-7.5c-0.6-0.1-1.2-0.1-1.8-0.1c-5.2-0.1-10.2,2.6-14.4,7.1
	c-4.5,5-7.6,11.1-8.8,17.8c-0.5,2.4-0.8,4.8-0.8,7.2c-0.2,5.4,1.2,10.8,3.9,15.4c2.3,4.1,6.3,6.8,10.9,7.6c0.6,0.1,1.2,0.1,1.8,0.1
	c5.2,0.1,10.2-2.6,14.4-7.1c4.5-5,7.5-11.1,8.8-17.8L353.8,265.2z"/>
<path class="st7" d="M331.2,286.6c-0.5,0-1,0-1.5-0.1c-9.2-1.3-14.5-13.1-11.8-26.4c2.6-12.6,11.3-22,20.1-21.9c0.5,0,1,0,1.5,0.1
	c9.2,1.3,14.5,13.1,11.8,26.4C348.7,277.4,340,286.8,331.2,286.6z M338.6,236.1c-4.7-0.1-9.5,2.4-13.5,6.7
	c-4.4,4.8-7.3,10.8-8.5,17.2c-0.5,2.3-0.7,4.6-0.8,7c-0.2,5.2,1.1,10.3,3.7,14.8c2.4,3.9,5.9,6.4,10,7c0.5,0.1,1.1,0.1,1.7,0.1l0,0
	c4.7,0,9.5-2.4,13.5-6.7c4.4-4.8,7.3-10.8,8.5-17.2c0.5-2.3,0.7-4.6,0.8-7c0.2-5.2-1.1-10.3-3.7-14.8c-2.1-3.7-5.8-6.3-10-7
	C339.7,236.2,339.2,236.1,338.6,236.1L338.6,236.1z"/>
<path class="st7" d="M331.2,288.9L331.2,288.9c-0.6,0-1.1,0-1.7-0.1c-4.2-0.6-7.6-3.1-10-7c-2.6-4.5-3.9-9.6-3.7-14.8
	c0-2.4,0.3-4.7,0.8-7c1.2-6.4,4.2-12.4,8.5-17.2c4-4.3,8.8-6.8,13.5-6.7l0,0c0.6,0,1.1,0,1.7,0.1c4.2,0.7,7.9,3.3,10,7
	c2.6,4.5,3.9,9.6,3.7,14.8c0,2.4-0.3,4.7-0.8,7c-1.2,6.4-4.2,12.3-8.5,17.2C340.8,286.5,336,289,331.2,288.9z M338.7,235.5
	c-9.9-0.1-19.8,10.3-22.6,24.4c-3,14.8,3,28,13.5,29.5c0.6,0.1,1.2,0.1,1.7,0.1c9.9,0.1,19.8-10.3,22.6-24.4
	c3-14.9-3-28.1-13.5-29.5C339.8,235.6,339.2,235.5,338.7,235.5L338.7,235.5z"/>
<path class="st4" d="M324.9,265.9c0.9-9.5,6.7-17.1,12.8-16.9s10.4,8.1,9.5,17.6s-6.7,17.1-12.8,16.9S324,275.4,324.9,265.9z"/>
<path class="st7" d="M337.3,253.7c-4.1-0.1-8,4.7-8.6,10.8s2.1,11.4,6.3,11.6h0.2c4.1,0,8-4.7,8.7-10.8s-2.1-11.4-6.3-11.6
	L337.3,253.7z"/>
</svg>
