<?xml version="1.0" encoding="utf-8"?>
<!-- Generator: Adobe Illustrator 26.5.0, SVG Export Plug-In . SVG Version: 6.00 Build 0)  -->
<svg version="1.1" id="Layer_1" xmlns="http://www.w3.org/2000/svg" xmlns:xlink="http://www.w3.org/1999/xlink" x="0px" y="0px"
	 viewBox="0 0 2521 2911" style="enable-background:new 0 0 2521 2911;" xml:space="preserve">
<style type="text/css">
	.st0{fill:#005590;}
	.st1{fill:#004064;}
	.st2{fill:#E6B35A;}
	.st3{fill:#F0F5F8;}
	.st4{fill:#80AAC8;}
	.st5{fill:#002A48;}
	.st6{fill:#FFFFFF;}
	.st7{fill:#110B0C;}
</style>
<g>
	<polyline class="st0" points="2457.9,770.3 1260.5,78.9 63.1,770.3 63.1,2153.1 1260.5,2844.4 2457.9,2153.1 2457.9,770.3 	"/>
	<path class="st1" d="M2521,2183.6V727.7l-100.5-58l-953.1-550.4L1260.5,0l-206.9,119.4L100.5,669.8L0,727.7v1455.5l100.5,58
		l965.1,557.2l195.2,112.5l195.2-112.5l965.1-557.2L2521,2183.6z M100.5,2129V789.2l1160-669.8l1160,669.8V2129l-1160,669.8
		L100.5,2129z"/>
	<path class="st2" d="M1258.8,2171.6c1-1,2.1-2.1,3.1-3.1h-1C1260.5,2169.5,1259.8,2170.6,1258.8,2171.6z"/>
	<path class="st3" d="M269.3,2029.9c-39.1,0-58.7-34.3-58.7-75.8c0-48.7,24.7-79.6,59-79.6c26.4,0,43.9,18.2,50.4,40.5
		c1.7,5.8,2.4,11.7,2.1,17.5v37.7c0,6.9-1,14.1-2.7,20.6C311.9,2014.8,291.6,2029.9,269.3,2029.9 M263.8,1844.6
		c-45.6,0-89.5,40.5-89.5,111.9c0,58.3,35.3,102.9,84.7,102.9c30.9,0,52.1-15.8,63.1-35.3h0.7v23.3c0,53.2-27.1,73.4-64.2,73.4
		c-20.6,0.3-40.8-5.5-58.3-16.5l-8.9,29.2c16.1,11.3,42.2,17.5,66.2,17.5c25,0,52.8-6.2,72.4-25.4c19.2-18.2,28.5-48,28.5-96.1
		v-122.8c0-25.7,0.7-42.5,1.7-58h-31.6l-1.7,31.9h-1.4C317,1863.5,298.1,1844.3,263.8,1844.6"/>
	<path class="st3" d="M492.3,2035.7c-35.3,0-60.4-35-60.4-81c0-40.1,18.5-82,61.1-82s59.7,45.3,59.7,81
		C552.7,2001.4,527,2035.7,492.3,2035.7 M494,1844.3c-54.9,0-98.5,41.2-98.5,111.9c0,66.6,41.5,108.4,95.4,108.4
		c48,0,99.2-34,99.2-111.9C589.8,1888.2,551.3,1844.3,494,1844.3"/>
	<path class="st3" d="M709.8,2035.7c-35.3,0-60.4-35-60.4-81c0-40.1,18.5-82,61.1-82s59.7,45.3,59.7,81
		C770.2,2001.4,744.2,2035.7,709.8,2035.7 M711.6,1844.3c-54.9,0-98.5,41.2-98.5,111.9c0,66.6,41.5,108.4,95.4,108.4
		c48,0,99.2-34,99.2-111.9C807.3,1888.2,768.5,1844.3,711.6,1844.3"/>
	<path class="st3" d="M925.3,2029.9c-39.1,0-58.7-34.3-58.7-75.8c0-48.7,24.7-79.6,59-79.6c26.4,0,43.9,18.2,50.4,40.5
		c1.4,5.8,2.1,11.7,2.1,17.5v37.7c0,6.9-1,14.1-2.7,20.6C967.5,2014.8,947.6,2029.9,925.3,2029.9 M919.5,1844.6
		c-45.6,0-89.5,40.5-89.5,111.9c0,58.3,35.3,102.9,84.7,102.9c30.9,0,52.1-15.8,63.1-35.3h0.7v23.3c0,53.2-27.1,73.4-64.2,73.4
		c-20.6,0.3-40.8-5.5-58.3-16.5l-8.9,29.2c16.1,11.3,42.2,17.5,66.2,17.5c25,0,52.8-6.2,72.4-25.4c19.2-18.2,28.5-48,28.5-96.1
		v-122.8c0-25.7,0.7-42.5,1.7-58h-31.6l-1.7,31.9h-0.7C973,1863.5,954.1,1844.3,919.5,1844.6"/>
	<polyline class="st3" points="1102,1750.6 1065.6,1750.6 1065.6,2059.7 1102,2059.7 1102,1750.6 	"/>
	<path class="st3" d="M1175.1,1934.1c2.7-26.4,18.9-62.4,55.6-62.4c40.8,0,50.4,37.7,50.1,62.4H1175.1 M1233.4,1844.3
		c-58,0-93.3,50.1-93.3,113.6c0,63.5,36.7,106.4,97.8,106.4c31.6,0,53.5-6.9,66.2-13l-6.2-27.4c-13.7,6.2-29.2,11-54.9,11
		c-36,0-67.2-21.3-68.3-73.1h139.6c0.7-5.8,1-12,1.4-17.8C1315.7,1905,1298.6,1844.3,1233.4,1844.3"/>
	<path class="st3" d="M1412.5,1844.3c-42.9,0-68.6,27.8-68.6,61.8c0,25.4,16.8,46.3,52.5,59.7c26.8,10.3,37.1,20.6,37.1,38.8
		c0,17.5-12.4,31.2-38.4,31.2c-17.2-0.7-33.6-5.8-47.7-15.1l-8.9,29.2c16.8,9.6,36.4,14.8,55.9,14.4c47.3,0,74.4-26.1,74.4-63.1
		c0-31.2-17.5-49.8-52.1-63.5c-25.7-10.3-37.7-18.2-37.7-35.7c0-15.8,12-28.8,33.3-28.8c14.4,0,28.5,4.1,40.8,12.4l8.9-27.8
		C1446.5,1848.7,1429.6,1843.9,1412.5,1844.3"/>
	<path class="st3" d="M1542.5,1750.6h-36v309.1h36v-127c-0.3-6.2,0.3-12.4,2.4-18.2c6.5-20.9,25-38.4,48.4-38.4
		c34,0,46,28.8,46,62.8v121.1h36v-125.6c0-72.7-42.9-90.2-69.3-90.2c-13,0-25.7,3.8-37.1,11c-11,6.5-19.9,15.8-25.7,27.1h-0.7
		V1750.6"/>
	<path class="st3" d="M1746.7,1934.1c2.7-26.4,18.9-62.4,55.6-62.4c40.5,0,50.4,37.7,50.1,62.4H1746.7 M1805,1844.3
		c-58,0-93.3,50.1-93.3,113.6c0,63.5,36.4,106.4,97.8,106.4c31.6,0,53.5-6.9,66.2-13l-6.2-27.4c-13.7,6.2-29.2,11-54.9,11
		c-36,0-67.2-21.3-68.3-73.1h139.6c0.7-5.8,1-12,1-17.8C1887.3,1905,1870.2,1844.3,1805,1844.3"/>
	<path class="st3" d="M1944.3,1934.1c2.7-26.4,18.9-62.4,55.6-62.4c40.5,0,50.4,37.7,50.1,62.4H1944.3 M2002.6,1844.3
		c-58,0-93.3,50.1-93.3,113.6c0,63.5,36.7,106.4,97.8,106.4c31.6,0,53.5-6.9,66.2-13l-6.2-27.4c-13.7,6.2-29.2,11-54.9,11
		c-36,0-67.2-21.3-68.3-73.1h139.6c0.7-5.8,1-12,1.4-17.8C2084.9,1905,2067.8,1844.3,2002.6,1844.3"/>
	<path class="st3" d="M2164.9,1788.7l-35.3,10v50.4h-30.9v29.2h30.9v114.9c0,24.7,3.8,43.6,14.1,54.9c8.6,10.3,22.3,16.1,39.1,16.1
		c11,0.3,22-1.4,31.9-5.1l-1.7-28.8c-6.9,1.7-13.7,2.7-20.9,2.7c-20.2,0-27.1-14.8-27.1-40.8v-113.6h51.8v-29.2h-51.8V1788.7"/>
	<path class="st3" d="M2309.3,1844.3c-42.9,0-68.6,27.8-68.6,61.8c0,25.4,16.8,46.3,52.5,59.7c26.8,10.3,37.1,20.6,37.1,38.8
		c0,17.5-12.4,31.2-38.4,31.2c-17.2-0.7-33.6-5.8-47.7-15.1l-8.9,29.2c16.8,9.6,36.4,14.8,55.9,14.4c47.3,0,74.4-26.1,74.4-63.1
		c0-31.2-17.8-49.8-52.1-63.5c-25.7-10.3-37.7-18.2-37.7-35.7c0-15.8,12-28.8,33.3-28.8c14.4,0,28.5,4.1,40.5,12.4l8.9-27.8
		C2343.3,1848.7,2326.5,1843.9,2309.3,1844.3"/>
	<path class="st4" d="M1150.4,1380.7L1150.4,1380.7l8.9-5.1c5.5-3.1,10.6-6.2,16.1-9.6l1-0.7l1,1.7l-1,0.7
		c-5.1,3.1-10.6,6.5-16.1,9.6l-8.9,5.1L1150.4,1380.7 M1083.5,1362.5L1083.5,1362.5l6.9-4.1c5.1-3.1,9.6-5.5,15.4-9.3l1-0.7l1,1.7
		l-1,0.7c-5.8,3.4-10.3,6.2-15.4,9.3l-6.9,4.1L1083.5,1362.5 M1078.7,1356.7L1078.7,1356.7l1-0.3l8.2-4.8c5.1-2.7,10.3-5.8,15.4-8.9
		l1-0.7l1,1.7l-1,0.7c-5.1,3.1-10.3,6.2-15.4,8.9l-8.2,4.8l-1,0.7L1078.7,1356.7 M1015.9,1291.1h-2.1c-4.8,3.1-9.6,5.8-14.4,8.6
		l-5.5,3.1l-1-1.7l5.5-3.1c3.4-2.1,7.2-4.1,11-6.5c-2.1,0-4.1,0.3-6.2,0.7c-4.1,2.4-8.2,4.8-12.4,7.2l-6.2,3.8l-1-1.7l6.5-3.8
		l7.5-4.5c-34.3,6.2-63.1,29.2-77.2,60.7l-7.9,17.5l-4.1-2.1l-1,0.7l-5.8,4.8l-0.7,0.7l-1.4-1.7l0.7-0.7l5.8-4.8l0.3-0.3l-6.2-3.4
		l-2.7,2.4l-6.2,4.8l-0.7,0.7l-1.4-1.7l0.7-0.7l5.8-4.8l2.1-1.7l-2.4-1.4c-1.4-0.7-2.4-1-3.8-1.7l-13.7,11.3l-1.4-1.7l12.7-10.6
		c-2.1-0.7-4.1-1.4-6.2-1.7l0.3,0.3l-0.7,0.7c-3.1,2.4-5.8,5.1-8.9,7.5l-5.1,4.5l-1-1.7l5.1-4.5l8.6-7.2c-2.4-0.3-4.5-0.7-6.9-0.7
		l-0.3,0.3c-3.8,3.1-7.5,6.2-11,9.3l-4.5,3.8l-1.4-1.7l4.5-3.8l9.6-8.2c-1.7,0-3.1,0-4.8,0.3l-0.3,0.3c-3.8,3.1-7.5,6.5-11.7,9.6
		l-5.5,4.5l-1.4-1.7l5.5-4.5l8.9-7.2c-21.3,5.1-36.4,24-36.4,46c0,0.7,0,1.4,0,2.1l0.7,11.3l-10.3,5.1
		c-43.2,21.6-60.7,73.8-39.5,117c14.8,29.5,44.9,48.4,78.2,48.4h404.5c-24-11.7-39.1-36-39.1-62.8l0,0c0-34,24.7-63.1,58-69
		c-6.5-2.1-13.4-3.1-20.2-3.1h-1.4l-17.8,0.7l-1-14.4c-5.1,3.1-10.3,6.2-15.4,9.3l-7.2,4.1l-1,0.7l-1-1.7l1-0.7l7.2-4.1
		c5.5-3.1,11-6.5,16.5-9.6l0,0c0-2.4-0.3-4.5-0.7-6.5c-5.1,3.1-10.3,6.2-15.4,9.3l-6.5,3.8l-1-1.7l6.9-3.8
		c5.1-3.1,10.6-6.2,16.1-9.6c-0.3-2.7-1-5.5-2.1-8.2c-5.1,3.1-10.3,6.2-15.4,9.3l-8.2,4.8l-1,0.7l-1-1.7l1-0.7l8.6-4.8
		c5.1-3.1,10.6-6.2,15.8-9.3h0.3c-1-2.7-2.1-5.5-3.1-7.9l-0.3,0.3c-5.1,3.1-10.3,5.8-15.1,8.6l-9.6,5.5l-1,0.7l-1-1.7l1-0.7l9.6-5.5
		c4.8-2.7,9.9-5.8,15.1-8.6l0.7-0.3c-0.7-1.7-1.7-3.4-2.7-5.1c-4.1,2.4-8.6,4.8-12.7,7.2c-3.1,1.7-6.5,3.8-9.6,5.5l-1,0.7l-1-1.7
		l1-0.7c3.1-1.7,6.5-3.8,9.6-5.5c4.1-2.4,8.6-4.8,12.7-7.2c-1-1.7-2.1-3.4-3.4-4.8c-4.5,2.7-8.9,5.1-13,7.5
		c-2.7,1.7-5.8,3.4-8.6,4.8l-1,0.7l-1-1.7l1-0.7c2.7-1.7,5.8-3.4,8.6-5.1c4.1-2.4,8.6-4.8,13-7.5c-1.7-2.1-3.4-4.5-5.5-6.5
		c-5.1,3.1-10.3,6.2-15.4,9.3l-8.6,5.1l-1,0.7l-1-1.7l1-0.7c2.7-1.7,5.8-3.4,8.6-5.1c5.1-3.1,9.9-5.8,15.1-8.9
		c-2.1-2.1-4.1-3.8-6.5-5.8c-5.5,3.4-11,6.5-16.5,10l-7.2,4.1l-1,0.7l-1-1.7l1-0.7l7.2-4.1c5.1-3.1,10.6-6.2,15.8-9.3
		c-2.4-1.7-4.5-3.1-7.2-4.8l-0.3,0.3c-5.8,3.4-11.7,6.9-17.5,10.3l-7.2,4.1l-1,0.7l-1-1.7l1-0.7l7.2-4.1c5.5-3.1,11.3-6.5,16.8-10
		c-3.1-1.7-6.2-3.1-9.6-4.5l1,1.7l-1,0.7c-5.5,3.4-11.7,6.9-17.2,10.3l-7.2,4.1l-1-1.7l7.2-4.5c5.5-3.4,11.3-6.5,17.2-10.3l0.7-0.3
		c-7.2-2.7-14.4-4.5-22-4.8l1,1.7l-1,0.7c-5.5,3.4-11.3,6.9-16.8,10.3l-6.5,3.8l-1-1.7l6.5-3.8c5.5-3.4,11.3-6.5,16.8-10l0.7-0.3
		c-1.7,0-3.4-0.3-5.5-0.3c-2.1,0-3.1,0-4.5,0.3l-0.3,0.3c-5.8,3.4-11.7,7.2-17.5,10.3l-5.1,3.1l-1-1.7l5.1-3.1
		c4.8-2.7,9.3-5.5,14.1-8.2c-5.1,0.7-10.3,1.7-15.4,3.4l-15.8,5.1l-6.2-15.4c-3.1-7.9-7.2-15.8-12.4-22.6h-0.3
		c-4.8,3.1-9.9,5.8-14.8,8.6c-3.1,1.7-6.2,3.4-9.6,5.5l-1,0.3l-1-1.7l1-0.3c3.1-1.7,6.2-3.8,9.6-5.5c4.8-2.7,9.9-5.5,14.8-8.6l0,0
		c-1.7-2.4-3.8-4.8-5.5-6.9l-0.7,0.3c-4.8,2.7-9.6,5.5-14.1,8.2c-3.1,1.7-6.5,3.4-9.6,5.5l-1,0.7l-1-1.7l1-0.7l9.6-5.5
		c4.8-2.7,9.6-5.5,14.1-8.2l0.7-0.3c-1.7-2.1-3.8-3.8-5.8-5.8l0.3,0.7l-1,0.7c-5.1,3.1-10.3,6.2-15.1,8.9l-8.6,4.8l-1,0.7l-1-1.7
		l1-0.7l8.6-4.8c5.1-2.7,10.3-5.8,15.1-8.9l0.3-0.3c-2.4-2.1-4.8-4.1-7.2-5.8l0.3,0.7l-1,0.7c-5.1,3.1-10.6,6.2-15.8,9.3
		c-2.7,1.7-5.5,3.1-8.6,4.8l-1,0.3l-1-1.7l1-0.7l8.2-4.8c5.1-3.1,10.6-6.2,15.8-9.3l0.3-0.3c-2.4-1.7-4.8-3.4-7.5-4.8l0,0
		c-5.5,3.4-11,6.5-16.5,9.6l-6.9,4.1l-1,0.3l-1-1.7l1-0.7l6.9-4.1c5.1-3.1,10.3-6.2,15.4-8.9c-2.4-1.4-5.1-2.7-7.9-4.1
		c-5.5,3.4-11,6.5-16.5,10l-6.9,4.1l-1,0.7l-1-1.7l1-0.7l7.2-4.1c5.1-2.7,10.3-5.8,15.1-8.9c-2.7-1-5.1-2.1-7.9-3.1l0,0
		c-5.5,3.4-11.3,6.9-16.8,10l-6.9,4.1l-1-1.7l6.9-4.1c5.1-3.1,10.3-5.8,15.4-8.9c-2.7-0.7-5.5-1.7-8.6-2.1l0,0
		c-5.1,3.1-10.6,6.2-15.8,9.3l-8.6,5.1l-1-1.7l8.6-5.1c4.5-2.7,9.3-5.5,13.7-8.2c-2.4-0.3-5.1-0.7-7.5-1c-5.5,3.4-11,6.5-16.5,10
		l-6.2,3.4l-1-1.7l6.2-3.4c4.5-2.7,9.3-5.5,14.1-8.2c-2.4,0-4.8-0.3-7.2-0.3"/>
	<path class="st5" d="M1104.4,1341.9l-1,0.7c-5.1,3.1-10.3,6.2-15.4,8.9l-8.2,4.8l-1,0.3l1,1.7l1-0.7l8.2-4.8
		c5.1-2.7,10.3-5.8,15.4-8.9l1-0.7L1104.4,1341.9"/>
	<path class="st5" d="M1106.8,1348.8l-1,0.7c-5.8,3.4-10.3,6.2-15.4,9.3l-6.9,4.1l1,1.7l6.9-4.1c5.1-3.1,9.6-5.5,15.4-9.3l1-0.7
		L1106.8,1348.8"/>
	<path class="st5" d="M1176.1,1365.3l-1,0.7c-5.5,3.1-10.6,6.2-16.1,9.6l-8.9,5.1l1,1.7l8.9-5.1c5.5-3.1,10.6-6.2,16.1-9.6l1-0.7
		L1176.1,1365.3"/>
	<path class="st4" d="M1653,1376.9L1653,1376.9l5.5-3.4c3.4-2.1,6.9-4.1,10.3-6.2l0.7-0.3l0.7,1.4l-0.7,0.3
		c-3.4,2.1-6.9,4.1-10.3,6.2l-5.5,3.4L1653,1376.9 M1520.9,1303.5c-2.4,0-4.8,0-6.9,0.3l0.3,0.3l-1,0.7c-4.1,2.7-8.6,5.1-13,7.5
		l-6.2,3.4l-1-1.7l6.5-3.4c3.4-2.1,7.2-4.1,11-6.2c-37.1,4.5-69,28.8-82.3,63.8l-5.1,12.7l-13-4.1c-40.8-13.4-84.7,8.6-98.5,49.4
		c-2.1,6.2-3.4,12.7-3.8,19.2l-1,13.7l-14.4-0.3h-1.7c-37.1,0-66.9,29.9-66.9,66.9s29.8,66.9,66.9,66.9l0,0
		c10.6,0,21.3-2.4,30.9-7.5l8.2-4.1l7.2,5.8c25,19.9,59.7,22.6,87.5,6.5l7.2-4.1l7.2,4.1c21.3,12.4,46.7,13.7,69.3,4.5l8.6-3.8
		l6.9,6.5c31.2,29.2,80.6,27.8,109.8-3.8c1-1,1.7-2.1,2.7-3.1l6.2-7.2l9.3,2.7c45.3,14.1,93.3-11.3,107.4-56.6
		c0.3-1.4,0.7-2.4,1-3.8c-3.4,2.1-5.5,3.4-8.2,4.8l-6.5,3.8l-1,0.7l-1-1.7l1-0.3l6.5-3.8c3.1-1.7,5.5-3.1,9.9-5.8
		c0.7-2.4,1-4.5,1.4-6.9c-5.5,3.4-9.6,5.8-14.8,8.9l-6.9,4.1l-1-1.7l6.9-4.1c5.1-3.1,9.6-5.5,15.4-9.3l0.7-0.3
		c0.3-2.1,0.3-3.8,0.3-5.8c-4.8,2.7-9.6,5.5-14.4,8.2c-2.7,1.7-5.5,3.1-8.2,4.8l-1,0.3l-1-1.7l1-0.3c2.7-1.7,5.5-3.1,8.2-4.8
		c5.1-3.1,10.3-5.8,15.4-8.9l0,0c0-0.3,0-0.7,0-1c0-1.7,0-3.4-0.3-5.1c-4.5,2.7-8.9,5.1-13.4,7.5c-3.1,1.7-6.2,3.4-9.6,5.5l-1,0.7
		l-1-1.7l1-0.7c3.1-1.7,6.2-3.8,9.6-5.5c4.8-2.7,9.6-5.5,14.1-8.2c0-2.1-0.3-4.1-0.7-5.8c-4.1,2.7-8.6,5.1-13,7.5
		c-3.1,1.7-6.2,3.4-9.3,5.5l-1,0.7l-1-1.7l1-0.7c3.1-1.7,6.2-3.4,9.3-5.5c4.5-2.4,9.3-5.1,13.7-7.9c-0.3-2.4-1-4.8-1.7-6.9
		c-4.8,2.7-9.6,5.5-14.1,8.2l-8.2,4.8l-1,0.7l-1-1.7l1-0.7l8.2-4.8c4.8-2.7,9.9-5.5,14.8-8.6c-0.7-2.4-1.4-4.8-2.4-6.9
		c-4.8,3.1-9.9,5.8-14.8,8.6l-8.2,4.8l-1,0.7l-1-1.7l1-0.7l8.6-4.8c5.1-3.1,9.9-5.8,15.1-8.9c-1-2.1-1.7-4.1-3.1-6.2
		c-5.1,3.1-10.3,6.2-15.1,8.9l-6.9,4.1l-1,0.7l-1-1.7l1-0.7l6.9-4.1c5.1-3.1,10.3-5.8,15.1-8.9c-1-1.7-2.1-3.8-3.4-5.5
		c-5.1,3.1-10.3,6.2-15.4,9.3l-7.9,1.4l-1,0.7l-1-1.7l1-0.3c2.4-1.4,4.8-2.7,7.2-4.1c5.1-3.1,10.3-6.2,15.4-8.9
		c-1.4-2.1-3.1-4.1-4.5-5.8c-5.5,3.4-11,6.5-16.1,9.6l-7.2,4.1l-1-1.7l7.2-4.1c5.1-3.1,10.6-6.2,15.8-9.3c-1.4-1.7-2.7-3.1-4.1-4.5
		c-4.8,2.7-9.6,5.8-14.4,8.6l-7.9,4.8l-1,0.7l-1-1.7l1-0.3l7.9-4.8c4.8-2.7,9.3-5.5,14.1-8.2c-1.4-1.4-2.7-2.4-4.1-3.8
		c-5.5,3.4-10.6,6.5-16.1,9.6l-6.2,3.4l-1-1.7l6.2-3.4c5.1-3.1,10.3-6.2,15.4-9.3c-1.4-1-3.1-2.4-4.8-3.4
		c-5.1,3.1-10.3,6.2-15.1,8.9l-5.1,3.1l-1-1.7l5.1-3.1c4.8-2.7,9.6-5.5,14.4-8.6c-2.1-1.4-4.1-2.4-6.5-3.8l-0.3,0.3
		c-4.1,2.4-8.6,5.1-13,7.5l-6.2,3.4l-1-1.7l6.5-3.8c4.1-2.4,8.2-4.8,12.4-7.2l-7.2-3.4l0.3-9.3c0-0.7,0-1.4,0-2.1
		c-3.1,1.7-6.2,3.8-9.3,5.5l-4.8,2.7l-0.7,0.3l-0.7-1.4l0.7-0.3l4.8-2.7c3.4-2.1,6.5-3.8,9.9-5.8c0-1.4,0-3.1-0.3-4.5l-9.3,5.5
		l-4.5,2.7l-0.7-1.4l4.5-2.7l9.9-5.8c-0.3-1-0.3-2.4-0.7-3.4l-8.6,5.1l-5.1,3.1l-0.7,0.3l-0.7-1.4l0.7-0.3l5.5-3.1
		c3.1-1.7,5.8-3.4,8.9-5.1c-0.3-1.7-1-3.4-1.7-5.1c-3.1,1.7-5.8,3.4-8.9,5.1l-6.2,3.4l-0.7,0.3l-0.7-1.4l0.7-0.3
		c2.1-1.4,4.1-2.4,6.2-3.4c3.1-1.7,6.2-3.4,8.9-5.1c-0.3-1-1-2.4-1.7-3.4c-2.4,1.4-4.8,2.7-7.2,4.1l-6.2,3.4l-0.7,0.3l-0.7-1.4
		l0.7-0.3c2.1-1.4,4.1-2.4,6.2-3.4s4.8-2.7,7.2-4.1c-0.7-1-1.4-2.1-2.1-3.1c-2.7,1.7-5.1,3.1-7.5,4.5l-5.5,3.1l-0.7,0.3l-0.7-1.4
		l0.7-0.3c1.7-1,3.8-2.1,5.5-3.1c2.4-1.4,5.1-3.1,7.5-4.5c-1-1.4-2.1-2.7-3.4-4.1l-9.6,5.5l-5.5,3.1l-0.7,0.3l-0.7-1.4l0.7-0.3
		l5.5-3.1c3.1-1.7,6.2-3.8,9.3-5.5c-1.4-1.4-2.4-2.4-3.8-3.8c-3.4,2.1-6.9,4.1-10.3,6.2l-4.5,2.7l-0.7,0.3l-0.7-1.4l0.7-0.3l4.5-2.7
		c3.1-1.7,6.5-3.8,9.9-5.8c-1.4-1-2.7-2.1-4.5-3.1l0,0c-3.8,2.4-7.5,4.5-11.3,6.5l-4.5,2.7l-0.7,0.3l-0.7-1.4l0.7-0.3l4.5-2.7
		c3.4-2.1,7.2-4.1,10.6-6.5c-2.1-1-4.1-2.1-6.2-3.1l0.7,1l-0.7,0.3c-3.4,2.1-7.2,4.5-11,6.5l-4.5,2.7l-0.7-1.4l4.5-2.7
		c3.4-2.1,7.2-4.1,11-6.5l0.7-0.3c-4.5-1.7-9.3-2.7-14.1-3.1l0.7,1l-0.7,0.3c-3.4,2.1-7.2,4.1-10.6,6.5l-4.1,2.4l-0.7-1.4l4.1-2.4
		c3.4-2.1,7.2-4.1,10.6-6.5l0.3-0.3c-1,0-2.1,0-3.1,0c-1,0-2.1,0-3.4,0.3h-0.3c-3.4,2.4-7.2,4.5-11,6.5l-3.4,2.1l-0.7-1.4l3.4-2.1
		c2.7-1.7,5.8-3.4,8.9-5.1c-5.8,0.7-11,2.4-16.1,5.1l-13.7,7.5l-2.4-5.5l-0.7,0.3c-5.1,3.1-7.5,4.8-11,6.5l-6.5,3.8l-1,0.7l-1-1.7
		l1-0.7l6.5-3.8c3.4-1.7,5.8-3.4,11-6.5l0.7-0.3l-3.1-6.9l0,0c-5.5,3.4-9.9,6.2-15.1,8.9l-6.9,4.1l-1-1.7l6.9-4.1
		c5.1-3.1,9.6-5.5,15.4-9.3c-0.7-1.4-1.4-3.1-2.1-4.5c-4.8,2.7-9.9,5.8-14.4,8.6l-8.2,4.8l-1,0.3l-1-1.7l1-0.3l8.2-4.8
		c4.8-2.7,9.6-5.5,14.4-8.6c-1.4-2.4-2.7-4.8-4.5-7.2c-4.1,2.4-8.6,5.1-12.7,7.2l-9.6,5.5l-1,0.7l-1-1.7l1-0.7l9.6-5.5
		c4.1-2.4,8.6-4.8,12.7-7.2c-1.7-2.4-3.4-4.8-5.5-7.2c-4.5,2.7-8.9,5.1-13,7.5c-3.1,1.7-6.5,3.4-9.6,5.5l-1,0.3l-1-1.7l1-0.7
		c3.1-1.7,6.2-3.8,9.6-5.5c4.1-2.4,8.6-4.8,12.7-7.2c-1.7-2.1-3.4-3.8-5.1-5.5c-4.8,3.1-9.9,5.8-14.8,8.6l-8.6,4.8l-1,0.3l-1-1.7
		l1-0.3l8.6-4.8c4.8-2.7,9.6-5.5,14.1-8.2c-2.1-2.1-4.1-3.8-6.5-5.5c-5.1,3.1-10.6,6.2-15.8,9.3l-8.6,4.8l-1,0.7l-1-1.7l1-0.7
		l8.6-4.8c5.1-3.1,9.9-5.8,15.1-8.9c-2.4-1.7-4.8-3.4-7.2-5.1c-5.1,3.1-10.3,6.2-15.4,8.9c-2.4,1.4-4.8,2.7-7.2,4.1l-1,0.7l-1-1.7
		l1-0.7l7.2-4.1c4.8-2.7,9.6-5.5,14.4-8.6c-2.4-1.4-5.1-2.7-7.5-4.1c-5.1,3.1-10.6,6.5-15.8,9.6l-7.2,4.1l-1,0.7l-1-1.7l1-0.3
		l7.2-4.1c4.8-2.7,9.9-5.8,14.8-8.6c-2.4-1-5.1-2.1-7.5-3.1c-5.5,3.4-11.3,6.9-16.8,10l-6.9,4.1l-1-1.7l6.9-4.1
		c5.1-3.1,10.3-5.8,15.1-8.9c-2.7-1-5.5-1.7-8.2-2.4l-0.3,0.3c-5.1,3.1-10.3,6.2-15.4,9.3l-7.9,4.8l-1,0.3l-1-1.7l1-0.7l7.9-4.8
		c4.8-2.7,9.3-5.5,14.1-8.2c-2.4-0.3-4.8-1-7.2-1.4l-0.7,0.3c-5.5,3.4-11.3,6.9-16.8,10l-6.2,3.4l-1-1.7l6.2-3.4
		c4.8-3.1,9.9-5.8,15.1-8.9c-3.1-0.3-5.8-0.3-8.9-0.7c-5.1,3.1-10.6,6.5-15.8,9.6l-5.5,3.4l-1-1.7l5.5-3.4l12.7-7.5"/>
	<path class="st5" d="M1513.7,1303.8L1513.7,1303.8c2.4-0.3,4.8-0.3,6.9-0.3l0,0l-12.7,7.5l-5.5,3.4l1,1.7l5.5-3.4
		c5.1-3.1,10.6-6.2,15.8-9.6c3.1,0,5.8,0.3,8.9,0.7l0,0c-5.1,3.1-9.9,6.2-15.1,8.9l-6.2,3.4l1,1.7l6.2-3.4c5.5-3.1,11.3-6.5,16.8-10
		l0.7-0.3c2.4,0.3,4.8,0.7,7.2,1.4l0,0c-4.8,2.7-9.3,5.5-14.1,8.2l-7.9,4.8l-1,0.7l1,1.7l1-0.3l7.9-4.8c5.1-3.1,10.3-6.2,15.4-9.3
		l0.3-0.3c2.7,0.7,5.5,1.4,8.2,2.4l0,0c-5.1,3.1-10.3,6.2-15.1,8.9l-6.9,4.1l1,1.7l6.9-4.1c5.5-3.1,11.3-6.5,16.8-10
		c2.7,1,5.1,2.1,7.5,3.1l0,0c-4.8,3.1-9.9,5.8-14.8,8.6l-7.2,4.1l-1,0.3l1,1.7l1-0.7l7.2-4.1c5.1-3.1,10.6-6.2,15.8-9.6
		c2.7,1.4,5.1,2.7,7.5,4.1l0,0c-4.8,2.7-9.6,5.8-14.4,8.6l-7.2,4.1l-1,0.7l1,1.7l1-0.7c2.4-1.4,4.8-2.7,7.2-4.1
		c5.1-3.1,10.3-5.8,15.4-8.9c2.4,1.7,4.8,3.4,7.2,5.1l0,0c-5.1,3.1-9.9,5.8-15.1,8.9l-8.6,4.8l-1,0.7l1,1.7l1-0.7l8.6-4.8
		c5.1-3.1,10.6-6.2,15.8-9.3c2.1,1.7,4.5,3.4,6.5,5.5l0,0c-4.8,2.7-9.6,5.5-14.1,8.2l-8.6,4.8l-1,0.3l1,1.7l1-0.3l8.6-4.8
		c4.8-2.7,9.9-5.5,14.8-8.6c1.7,1.7,3.4,3.4,5.1,5.5l0,0c-4.1,2.4-8.6,5.1-12.7,7.2c-3.1,1.7-6.5,3.4-9.6,5.5l-1,0.7l1,1.7l1-0.3
		c3.1-1.7,6.2-3.8,9.6-5.5c4.5-2.4,8.9-5.1,13-7.5c1.7,2.4,3.8,4.8,5.5,7.2l0,0c-4.1,2.4-8.6,4.8-12.7,7.2l-9.3,5.5l-1,0.7l1,1.7
		l1-0.7l9.6-5.5c4.1-2.4,8.6-4.8,12.7-7.2c1.4,2.4,3.1,4.8,4.5,7.2l0,0c-4.8,2.7-9.9,5.8-14.4,8.6l-8.2,4.8l-1,0.3l1,1.7l1-0.3
		l8.2-4.8c4.8-2.7,9.6-5.5,14.4-8.6c0.7,1.4,1.4,3.1,2.1,4.5l0,0c-5.8,3.4-10.3,6.2-15.4,9.3l-6.9,4.1l1,1.7l6.9-4.1
		c5.1-3.1,9.6-5.5,15.1-8.9l0,0l3.1,6.9l-0.7,0.3c-5.1,3.1-7.5,4.5-11,6.5l-6.5,3.8l-1,0.7l1,1.7l1-0.7l6.5-3.8
		c3.4-2.1,5.8-3.4,11-6.5l0.7-0.3l2.4,5.5l13.7-7.5c5.1-2.7,10.6-4.5,16.1-5.1l0,0c-3.1,1.7-5.8,3.4-8.9,5.1l-3.4,2.1l0.7,1.4
		l3.4-2.1c3.4-2.1,7.2-4.1,11-6.5h0.3c1,0,2.1-0.3,3.4-0.3c1.4,0,2.1,0,3.1,0l0,0l-0.3,0.3c-3.4,2.1-7.2,4.1-10.6,6.5l-4.1,2.4
		l0.7,1.4l4.1-2.4c3.4-2.1,7.2-4.1,10.6-6.5l0.7-0.3l-0.7-1c4.8,0.3,9.6,1.4,14.1,3.1l0,0l-0.7,0.3c-3.4,2.1-7.2,4.5-11,6.5
		l-4.5,2.7l0.7,1.4l4.5-2.7c3.4-2.1,7.2-4.1,11-6.5l0.7-0.3l-0.7-1c2.1,0.7,4.1,1.7,6.2,3.1l0,0c-3.4,2.1-7.2,4.1-10.6,6.5l-4.5,2.7
		l-0.7,0.3l0.7,1.4l0.7-0.3l4.5-2.7c3.8-2.1,7.5-4.5,11.3-6.5l0,0c1.4,1,3.1,2.1,4.5,3.1l0,0c-3.1,2.1-6.5,3.8-9.9,5.8l-4.5,2.7
		l-0.7,0.3l0.7,1.4l0.7-0.3l4.5-2.7c3.4-2.1,6.9-4.1,10.3-6.2c1.4,1,2.7,2.4,3.8,3.8l0,0c-3.1,1.7-6.2,3.8-9.3,5.5l-5.5,3.1
		l-0.7,0.3l0.7,1.4l0.7-0.3l5.5-3.1l9.6-5.5c1,1.4,2.4,2.7,3.4,4.1l0,0c-2.4,1.4-5.1,3.1-7.5,4.5c-1.7,1-3.8,2.1-5.5,3.1l-0.7,0.3
		l0.7,1.4l0.7-0.3l5.5-3.1c2.4-1.4,5.1-3.1,7.5-4.5c0.7,1,1.4,2.1,2.1,3.1l0,0c-2.4,1.4-4.8,2.7-7.2,4.1s-4.1,2.4-6.2,3.4l-0.7,0.3
		l0.7,1.4l0.7-0.3l6.2-3.4c2.4-1.4,4.8-2.7,7.2-4.1c0.7,1,1,2.1,1.7,3.4l0,0c-3.1,1.7-6.2,3.4-8.9,5.1c-2.1,1-4.1,2.4-6.2,3.4
		l-0.7,0.3l0.7,1.4l0.7-0.3l6.2-3.4c3.1-1.7,5.8-3.4,8.9-5.1c0.7,1.7,1.4,3.4,1.7,5.1l0,0c-3.1,1.7-5.8,3.4-8.9,5.1l-5.5,3.1
		l-0.7,0.3l0.7,1.4l0.7-0.3l5.1-3.1l8.6-5.1c0.3,1,0.3,2.1,0.7,3.4l0,0l-9.9,5.8l-4.5,2.7l0.7,1.4l4.5-2.7l9.3-5.5
		c0.3,1.4,0.3,3.1,0.3,4.5l0,0c-3.4,2.1-6.9,4.1-9.9,5.8l-4.8,2.7l-0.7,0.3l0.7,1.4l0.7-0.3l4.8-2.7c3.1-1.7,6.2-3.8,9.3-5.5l0,0
		c0,0.7,0,1.4,0,2.1l-0.3,9.3l7.2,3.4l0,0c-4.1,2.4-8.2,4.8-12.4,7.2l-6.5,3.8l1,1.7l6.2-3.4c4.1-2.4,8.6-4.8,13-7.5l0.3-0.3
		c2.1,1,4.5,2.4,6.5,3.8l0,0c-4.8,3.1-9.6,5.8-14.4,8.6l-5.1,3.1l1,1.7l5.1-3.1c5.1-3.1,10.3-6.2,15.1-8.9c1.7,1,3.1,2.4,4.8,3.4
		l0,0c-5.1,3.1-10.3,6.2-15.4,9.3l-6.2,3.4l1,1.7l6.2-3.4c5.1-3.1,10.6-6.5,16.1-9.6c1.4,1,2.7,2.4,4.1,3.8l0,0
		c-4.5,2.7-9.3,5.5-14.1,8.2l-7.9,4.8l-1,0.3l1,1.7l1-0.7l7.9-4.8c4.8-2.7,9.6-5.5,14.4-8.6c1.4,1.4,3.1,3.1,4.1,4.5l0,0
		c-5.1,3.1-10.6,6.5-15.8,9.3l-7.2,4.1l1,1.7l7.2-4.1c5.5-3.1,11-6.2,16.1-9.6c1.7,2.1,3.1,3.8,4.5,5.8l0,0
		c-5.1,3.1-10.3,6.2-15.4,8.9c-2.4,1.4-4.8,2.7-7.2,4.1l-1,0.3l1,1.7l0.7-0.3l7.2-4.1c5.1-3.1,10.3-6.2,15.4-9.3
		c1.4,1.7,2.4,3.4,3.4,5.5l0,0c-5.1,3.1-10.3,6.2-15.1,8.9l-6.9,4.1l-1,0.7l1,1.7l1-0.7l6.9-4.1c5.1-3.1,10.3-5.8,15.1-8.9
		c1,2.1,2.1,4.1,3.1,6.2l0,0c-5.1,3.1-9.9,5.8-15.1,8.9l-8.6,4.8l-1,0.7l1,1.7l1-0.7l8.2-4.8c4.8-2.7,9.9-5.8,14.8-8.6
		c1,2.4,1.7,4.5,2.4,6.9l0,0c-4.8,3.1-9.9,5.8-14.8,8.6l-8.2,4.8l-1,0.7l1,1.7l1-0.7l8.2-4.8c4.8-2.7,9.6-5.5,14.1-8.2
		c0.7,2.4,1,4.8,1.7,6.9l0,0c-4.5,2.7-9.3,5.1-13.7,7.9c-3.1,1.7-6.2,3.4-9.3,5.5l-1,0.7l1,1.7l1-0.7c3.1-1.7,6.2-3.4,9.3-5.5
		c4.1-2.4,8.6-4.8,13-7.5c0.3,2.1,0.7,3.8,0.7,5.8l0,0c-4.8,2.7-9.6,5.5-14.1,8.2c-3.1,1.7-6.2,3.4-9.6,5.5l-1,0.7l1,1.7l1-0.7
		c3.1-1.7,6.2-3.8,9.6-5.5c4.5-2.4,8.9-5.1,13.4-7.5c0,1.7,0.3,3.4,0.3,5.1l0,0c0,0.3,0,0.7,0,1l0,0c-5.1,3.1-10.3,6.2-15.4,8.9
		c-2.7,1.7-5.5,3.1-8.2,4.8l-1,0.3l1,1.7l1-0.3c2.7-1.7,5.5-3.1,8.2-4.8c4.8-2.7,9.6-5.5,14.4-8.2l0,0c0,2.1-0.3,3.8-0.3,5.8
		l-0.7,0.3c-5.5,3.4-10.3,6.2-15.4,9.3l-6.9,4.1l1,1.7l6.9-4.1c5.1-3.1,9.3-5.5,14.8-8.9l0,0c-0.3,2.4-0.7,4.5-1.4,6.9
		c-4.5,2.7-6.9,4.1-9.9,5.8l-6.5,3.8l-1,0.3l1,1.7l1-0.7l6.5-3.8c2.7-1.4,4.8-2.7,7.9-4.8l0,0c-12,46-58.7,73.4-104.6,61.4
		c-1.4-0.3-2.4-0.7-3.8-1l-9.3-2.7l-6.2,7.2c-27.4,32.9-76.5,37.1-109.4,9.6c-1-1-2.1-1.7-3.1-2.7l-6.9-6.5l-8.6,3.8
		c-22.6,9.6-48,7.9-69.3-4.5l-7.2-4.1l-7.2,4.1c-27.8,16.1-62.4,13.4-87.5-6.5l-7.2-5.8l-8.2,4.1c-9.6,4.8-19.9,7.5-30.9,7.5
		c-37.1,0-66.9-29.9-66.9-66.9l0,0c0-36.7,29.8-66.6,66.9-66.9h1.7l14.4,0.3l1-13.7c2.7-42.9,40.1-75.1,83-72.4
		c6.5,0.3,13,1.7,19.2,3.8l13,4.1l5.1-12.7c13.7-34.7,45.3-59.4,82.3-63.8l0,0c-3.4,2.1-7.2,4.1-11,6.2l-6.2,3.8l1,1.7l6.2-3.4
		c4.5-2.4,8.6-4.8,13-7.5l1-0.7L1513.7,1303.8 M993.9,1303.2l5.5-3.1c4.8-2.7,9.6-5.5,14.4-8.6h2.1c2.4,0,4.8,0,7.2,0.3l0,0
		c-4.8,2.7-9.3,5.5-14.1,8.2l-6.2,3.4l1,1.7l6.2-3.4c5.5-3.1,11-6.5,16.5-10c2.7,0.3,5.1,0.7,7.5,1l0,0c-4.5,2.7-9.3,5.5-13.7,8.2
		l-8.6,5.1l1,1.7l8.6-5.1c5.1-3.1,10.6-6.2,15.8-9.3l0,0c2.7,0.7,5.8,1.4,8.6,2.1l0,0c-5.1,3.1-10.3,6.2-15.4,8.9l-6.9,4.1l1,1.7
		l6.9-4.1c5.5-3.1,11.3-6.5,16.8-10l0,0c2.7,1,5.1,1.7,7.9,3.1l0,0c-5.1,3.1-10.3,6.2-15.1,8.9l-7.2,4.1l-1,0.7l1,1.7l1-0.7l6.9-4.1
		c5.5-3.1,11-6.5,16.5-10c2.7,1.4,5.5,2.4,7.9,4.1l0,0c-5.1,3.1-10.3,6.2-15.4,8.9l-6.9,4.1l-1,0.7l1,1.7l1-0.3l6.9-4.1
		c5.5-3.1,11-6.5,16.5-9.6l0,0c2.7,1.4,5.1,3.1,7.5,4.8l0,0l-0.3,0.3c-5.1,3.1-10.6,6.2-15.8,9.3l-8.2,4.8l-1,0.7l1,1.7l1-0.3
		c2.7-1.7,5.5-3.4,8.6-4.8c5.1-3.1,10.6-6.2,15.8-9.3l1-0.7l-0.3-0.7c2.4,1.7,5.1,3.8,7.2,5.8l0,0l-0.3,0.3
		c-5.1,3.1-10.3,6.2-15.1,8.9l-8.6,4.8l-1,0.7l1,1.7l1-0.7l8.6-4.8c5.1-2.7,10.3-5.8,15.1-8.9l1-0.7l-0.3-0.7
		c2.1,1.7,4.1,3.8,5.8,5.8l0,0l-0.7,0.3c-4.8,2.7-9.6,5.5-14.1,8.2l-9.3,5.1l-1,0.7l1,1.7l1-0.7c3.1-1.7,6.2-3.4,9.6-5.5
		c4.8-2.7,9.6-5.5,14.1-8.2l0.7-0.3c2.1,2.1,3.8,4.5,5.5,6.9l0,0c-4.8,3.1-9.9,5.8-14.8,8.6c-3.1,1.7-6.2,3.4-9.6,5.5l-1,0.3l1,1.7
		l1-0.3c3.1-1.7,6.2-3.8,9.6-5.5c4.8-2.7,9.9-5.5,14.8-8.6h0.3c5.1,6.9,9.3,14.8,12.4,22.6l6.2,15.4l15.8-5.1
		c4.8-1.7,9.9-2.7,15.4-3.4l0,0c-4.8,2.7-9.6,5.5-14.1,8.2l-5.1,3.1l1,1.7l5.1-3.1c5.8-3.4,11.7-6.9,17.5-10.3l0.3-0.3
		c1.4,0,3.1-0.3,4.5-0.3s3.8,0,5.5,0.3l0,0l-0.7,0.3c-5.5,3.4-11.3,6.9-16.8,10l-6.5,3.8l1,1.7l6.5-3.8c5.5-3.4,11.3-6.5,16.8-10.3
		l1-0.7l-1-1.7c7.5,0.7,14.8,2.1,22,4.8l0,0l0,2.4c-5.5,3.4-11.3,6.9-17.2,10.3l-7.2,4.1l1,1.7l7.2-4.1c5.5-3.4,11.7-6.5,17.2-10.3
		l1-0.7l-1-1.7c3.1,1.4,6.5,2.7,9.6,4.5l0,0c-5.5,3.4-11.3,6.9-16.8,10l-7.2,4.1l-1,0.7l1,1.7l1-0.7l7.2-4.1
		c5.8-3.4,11.7-6.9,17.5-10.3l0.3-0.3c2.4,1.4,4.8,3.1,7.2,4.8l0,0c-5.1,3.1-10.6,6.2-15.8,9.3l-7.2,4.1l-1,0.7l1,1.7l1-0.7l7.2-4.1
		c5.5-3.1,11-6.5,16.5-10c2.1,1.7,4.5,3.8,6.5,5.8l0,0c-5.1,3.1-9.9,5.8-15.1,8.9c-3.1,1.7-5.8,3.4-8.6,5.1l-1,0.7l1,1.7l1-0.7
		l8.6-5.1c5.1-3.1,10.3-6.2,15.4-9.3c2.1,2.1,3.8,4.1,5.5,6.5l0,0c-4.1,2.4-8.6,5.1-13,7.5c-2.7,1.7-5.8,3.4-8.6,5.1l-1,0.7l1,1.7
		l1-0.7c2.7-1.7,5.8-3.4,8.6-4.8c4.5-2.4,8.6-5.1,13-7.5c1,1.7,2.1,3.1,3.4,4.8l0,0c-4.1,2.4-8.6,4.8-12.7,7.2
		c-3.1,1.7-6.5,3.4-9.6,5.5l-1,0.7l1,1.7l1-0.7c3.1-1.7,6.5-3.8,9.6-5.5c4.1-2.4,8.6-4.8,12.7-7.2c1,1.7,2.1,3.4,2.7,5.1l0,0
		l-0.7,0.3c-4.8,3.1-9.9,5.8-15.1,8.6l-9.6,5.5l-1,0.7l1,1.7l1-0.7l9.6-5.5c4.8-2.7,9.9-5.8,15.1-8.6l0.3-0.3c1,2.7,2.4,5.1,3.1,7.9
		l0,0h-0.3c-5.1,3.1-10.6,6.2-15.8,9.3l-8.6,4.8l-1,0.7l1,1.7l1-0.7l8.2-4.8c5.1-3.1,10.3-6.2,15.4-9.3c0.7,2.7,1.4,5.5,2.1,8.2l0,0
		c-5.1,3.4-10.6,6.5-16.1,9.6l-6.9,4.1l1,1.7l6.5-3.8c5.1-3.1,10.3-6.2,15.4-9.3c0.3,2.1,0.7,4.5,0.7,6.5l0,0l0,0
		c-5.5,3.4-11,6.5-16.5,9.6l-7.2,4.1l-1,0.7l1,1.7l1-0.7l7.2-4.1c5.1-3.1,10.3-6.2,15.4-9.3l1,14.4l17.8-0.7h1.4
		c6.9,0,13.7,1,20.2,3.1l0,0c-33.6,5.8-58,35-58,69l0,0c0,26.8,15.1,51.1,39.1,62.8H855.3c-48,0-87.1-39.1-87.1-87.2l0,0
		c0-33.3,18.5-63.5,48.4-78.2l10.3-5.1l-0.7-11.3c0-0.7,0-1.4,0-2.1l0,0c0-22,15.1-40.8,36.4-46l0,0l-8.9,7.2l-5.5,4.5l1.4,1.7
		l5.5-4.5c3.8-3.1,7.9-6.2,11.7-9.6l0.3-0.3c1.4-0.3,3.1-0.3,4.8-0.3l0,0l-9.6,8.2l-4.5,3.8l1.4,1.7l4.5-3.8c3.8-3.1,7.5-6.2,11-9.3
		l0.3-0.3c2.4,0,4.5,0.3,6.9,0.7l0,0l-8.6,7.2l-5.5,5.8l1.4,1.7l5.1-4.5c3.1-2.4,5.8-5.1,8.9-7.5l0.7-0.7l-0.3-0.3
		c2.1,0.3,4.1,1,6.2,1.7l0,0l-12.7,10.6l1.4,1.7l13.7-11.3c1.4,0.7,2.4,1,3.8,1.7l2.4,1.4l-2.1,1.7l-5.8,4.8l-0.7,0.7l1.4,1.7
		l0.7-0.7l6.2-4.8l2.7-2.4l6.2,3.4l-0.3,0.3l-5.8,4.8l-0.7,0.7l1.4,1.7l0.7-0.7l5.8-4.8l1-0.7l4.1,2.1l7.5-17.5
		c14.1-31.9,42.9-54.6,77.2-60.7l0,0l-7.5,4.5l-6.5,3.8l1,1.7l6.5-3.8c4.1-2.4,8.2-4.8,12.4-7.2c2.1-0.3,4.1-0.3,6.2-0.7l0,0
		c-3.8,2.1-7.2,4.5-11,6.5l-5.5,3.1L993.9,1303.2 M1015.9,1287.4c-43.2,0-82,25.4-99.5,64.8l-5.8,13.4l-12.7-6.9
		c-25-13.4-56.3-4.1-69.6,20.9c-4.1,7.5-6.2,15.8-6.2,24c0,0.7,0,1.7,0,2.4l0.3,8.6l-7.9,3.8c-44.9,22.6-63.5,77.5-40.8,122.5
		c15.4,30.9,47,50.4,81.7,50.4h403.1c3.1,0,6.2-0.3,9.6-0.7c18.2,6.2,38.1,4.8,54.9-4.1l6.5-3.4l5.8,4.5
		c14.4,11.3,32.3,17.8,50.4,17.5c14.1,0,28.1-3.8,40.5-11l5.5-3.4l5.5,3.4c22,12.7,48.7,14.4,72,4.5l6.9-2.7l5.1,5.1
		c32.6,30.5,84.1,28.8,114.6-4.1c1-1,2.1-2.1,2.7-3.1l4.8-5.8l7.2,2.1c47,14.4,97.1-12,111.5-59c0.7-2.1,1.4-4.5,1.7-6.5l0,0
		c7.9-35.7-6.5-72.7-37.1-93l-0.7-1l-0.3,0.3c-3.1-2.1-6.2-3.8-9.3-5.1l-6.5-3.4l0.3-7.2c0-0.7,0-1.7,0-2.4c0-10-3.1-19.9-8.6-28.1
		l0,0l-0.7-1l0,0c-14.8-20.9-42.9-27.4-65.5-15.4l-10.6,5.8l-4.8-11c-2.4-5.5-5.5-11-8.6-15.8h0.3l-1-1.7l-0.3,0.3
		c-10.3-14.8-24-26.8-40.1-34.7l0,0l0,0c-52.1-25.7-115.3-4.1-141,48c-1.4,2.4-2.4,5.1-3.4,7.5l-3.8,10l-9.9-3.4
		c-42.5-14.1-88.2,8.9-102.2,51.1c-2.1,6.5-3.4,13-4.1,19.9l-0.7,10.6l-11.3-0.3h-1.7c-1,0-2.1,0-3.1,0c-9.3-4.1-18.9-6.2-28.8-6.2
		h-1.7l-13.7,0.3l-1-13c-1-15.8-6.9-31.2-16.5-43.9l-0.3-0.7l0,0c-21.6-28.1-58.3-39.5-91.9-28.5l-12,4.1l-4.8-11.7
		c-16.1-41.5-56.3-68.6-100.9-68.6"/>
	<path class="st5" d="M1669.1,1367.3l-0.7,0.3c-3.4,2.1-6.9,4.1-10.3,6.2l-5.5,3.4l0.7,1l5.5-3.4c3.4-2.1,6.9-4.1,10.3-6.2l0.7-0.3
		L1669.1,1367.3"/>
	<path d="M1251.6,1482.9c-36,0-85.4-13.4-117.7-76.9c-1-2.1-0.3-4.5,1.7-5.5c2.1-1,4.5-0.3,5.5,1.7c37.4,72.7,98.1,75.5,131.4,70.7
		c42.2-6.2,97.4-36.7,102.6-65.5c0.3-2.1,2.4-3.8,4.8-3.4c2.1,0.3,3.8,2.4,3.4,4.8l0,0c-5.1,27.4-52.8,63.8-109.4,72.1
		C1266,1482.3,1258.8,1482.9,1251.6,1482.9z"/>
	<path d="M1126,1371.8l-1-1.7l1-0.7l6.5-3.8c3.4-2.1,5.8-3.4,11-6.5l1-0.7l1,1.7l-1,0.7c-5.1,3.4-7.5,4.8-11,6.5l-6.5,3.8
		L1126,1371.8z"/>
	<path d="M1256.7,1475.4l-1-1.7l1-0.7l8.6-4.8c5.1-3.1,10.6-6.2,15.8-9.3l1-0.7l1,1.7l-1,0.7c-5.1,3.1-10.6,6.2-15.8,9.3l-8.6,4.8
		L1256.7,1475.4z"/>
	<path d="M1254,1466.5l-1-1.7l1-0.3l6.9-4.1c5.5-3.1,11-6.5,16.5-9.6l1-0.7l1,1.7l-1,0.7c-5.5,3.4-11,6.5-16.5,9.6l-6.9,4.1
		L1254,1466.5z"/>
	<path d="M1249.2,1459.3l-1-1.7l1-0.7l7.2-4.1c5.5-3.4,11.3-6.5,17.2-10.3l1-0.7l1,1.7l-1,0.7c-5.5,3.4-11.7,6.9-17.2,10.3l-7.2,4.1
		L1249.2,1459.3z"/>
	<path class="st6" d="M1149,883.5l-2.4-61.1l-4.5-105.3c2.4-40.1,22-61.1,41.9-71.7c22.6-12,39.5-11.3,39.5-11.3
		c91.9,18.9,97.8,107.7,97.8,107.7c-1.7,15.8-0.3,323.6,0,374c0,53.2-3.4,90.2-3.4,90.2c-1.7,58-50.8,61.4-50.8,61.4
		c-7.2,0.3-14.1-0.7-20.9-2.7c-19.9-5.8-31.9-20.9-38.8-36c-1.4-3.1-2.7-6.5-3.8-9.6l-9.9-104.3l-3.1-32.6l-3.8-1.4l-4.5-1l-1.7-0.3
		l-4.5-0.7c-3.1,0.7-6.2,1.7-8.9,2.7c-2.1,0.7-4.1,1.7-5.8,2.7c1,25.7,2.1,13.7,2.1,40.1l0,0l0,0c0,8.2,0,15.4-0.3,20.9
		c0.3,15.8,2.1,33.3,2.7,39.8c-0.3,6.2,0,12.4,0.3,18.9c2.1,12.4,5.8,24.4,11,36c4.8,9.6,11,18.2,18.2,26.1
		c8.2,8.9,17.8,16.5,28.5,22c1.7,0.3,3.8,0.7,5.8,1c6.2,3.1,12.4,5.5,19.2,6.9c60.7,14.8,91.3-33.6,95-40.5
		c8.2-16.1,12.4-33.6,13-51.5l-1.4-89.2v-3.4l3.1-332.1c0-1,0-2.1,0-3.8c0-11,0.3-27.8,0-36.4c-0.3-16.1-1.4-18.9-5.8-34.3
		c-1-4.1-2.4-8.2-3.4-12.4c-2.7-5.8-5.1-10.6-5.1-10.6c-11-31.9-44.6-80.6-85.8-91.6c-25-6.9-61.1-5.1-88.5,10.3
		c-72,40.5-59.4,108.4-57.6,157.8s11,180.5,11,180.5c2.1,74.1-0.7,306.1-0.7,306.1c2.1,39.1-16.5,135.5,36.7,192.8
		c53.2,57.3,143.1,33.3,143.1,33.3c102.9-38.8,96.4-141.7,95.4-162c-1-20.2-5.5-177.4-5.5-177.4c-1.4-44.6-1-72.1-1-72.1
		c0-4.5,0.7-8.6,2.1-12.7c-0.7,1.7,0.7-7.2,0.3-13.4c-7.2-3.4-26.4-4.8-31.9-4.8l0,0c0,0-1,17.2,0.7,160.6
		c0,0.3,8.6,101.2,9.6,133.8c1,36.4-11.3,101.9-81.3,121.1c-14.8,2.1-29.5,3.1-44.3,2.7c-18.9-3.4-38.8-8.6-44.3-10l-3.4-1.4
		c-10.6-6.9-19.9-15.8-26.8-26.8c0,0-20.9-30.5-21.6-65.9c0,0-2.7-86.5,0.7-110.5c3.1-23.3,3.1-18.5,3.1,0.3
		c0.3-36.7,0.7-72.7,1.4-90.9c0,0,0,0.7,0,1.4c-0.3-5.8,0-11.3,0.3-17.2c-0.3-5.8-1-22-1-36c0,1.7-0.3,3.1-0.3,4.5L1149,883.5
		 M1385.7,1212.9c0-2.1,0-4.1,0-6.2C1385.4,1208.8,1385.4,1210.9,1385.7,1212.9L1385.7,1212.9z M1386.4,1236.6L1386.4,1236.6z
		 M1138,1298.7c0-2.1,0-3.8,0-5.5C1137.7,1294.6,1137.7,1296.6,1138,1298.7L1138,1298.7z"/>
	<path d="M1258.4,1478.5c-30.9,0-71.7-7.2-100.9-38.8c-42.5-46.3-39.5-116.7-37.7-163.3c0.3-12,1-22.6,0.3-30.5
		c0-2.4,2.7-233,0.7-306.1c0-1.4-8.9-131.8-11-180.5c0-5.1-0.3-10.6-0.7-16.5c-2.7-47.4-6.2-106.4,59.4-143.1
		c28.8-16.1,65.9-16.8,89.9-10.3c42.2,11.3,76.2,61.1,87.1,93c0,0,2.4,4.8,5.1,10.6c1.4,4.5,2.7,8.6,3.8,12.7l1,3.1
		c3.4,10.3,5.1,20.9,4.8,31.6c0,8.2,0,25.4,0,36.4c0,1.4,0,2.7,0,3.8l-3.1,332.1v3.4l1.7,89.2c-0.7,18.2-5.1,36-13.4,52.5
		c-3.4,5.8-35,56.6-97.8,41.5c-6.5-1.4-13-3.8-19.2-6.9c-2.1-0.3-4.1-0.7-5.5-1h-0.3c-11-5.8-20.6-13.4-29.2-22.3
		c-7.2-7.9-13.7-17.2-18.5-26.8c-5.1-11.7-8.9-24-11-36.7c-0.3-6.5-0.7-12.7-0.3-19.2c-0.7-6.5-2.4-24-2.7-39.8
		c0.3-5.5,0.3-12.4,0.3-20.9l0,0c0-7.2,0-14.1-0.7-21.3c-0.3-3.1-0.7-7.2-1.4-18.9v-1.4l1.4-0.7c2.1-1,4.1-2.1,6.2-2.7
		c3.1-1,6.2-2.1,9.3-2.7h0.3h0.3l3.8,0.7l2.4,0.3l4.5,1l3.8,1l1.4,0.3l13,137.9c1,3.4,2.4,6.5,3.8,9.3c8.6,18.5,21.3,30.2,37.7,35
		c6.5,1.7,13.4,2.7,20.2,2.7c8.6-1,16.5-4.1,23.7-8.6c15.8-10.3,24.4-27.4,25-50.4c0-0.3,3.4-37.7,3.4-90.2
		c-0.3-48.4-1.7-355.8-0.3-374c-0.3-4.1-8.6-87.8-96.1-105.7c0,0-16.5-0.7-38.1,11c-25,13.4-38.8,37.1-40.8,70l6.5,166.4l5.8,206.6
		h0.7c0,14.1,0.7,29.9,1,36c-0.3,5.8-0.7,11.3-0.3,17.2h-0.3c-0.7,15.8-1,46-1.4,89.6h-3.1c-3.4,23.7-0.7,109.5-0.7,110.1
		c0.7,34.3,21.3,64.5,21.3,64.8c6.5,10.6,15.4,19.6,26.1,26.1l3.1,1.4c5.8,1.4,25.4,6.2,43.9,10c14.8,0.3,29.2-0.3,43.6-2.7
		c76.2-20.9,79.9-96.4,79.6-119.1c-0.7-29.5-7.9-116-9.6-133.1v-0.7c-1.7-142.1-1-160.2-0.7-160.9v-2.1h2.4c4.8,0,24.7,1.4,32.6,5.1
		l1,0.7v1.4c0,3.4,0,7.2-0.3,10.6c0,1.4-0.3,2.4-0.3,2.7h-1.4l1.7,0.3c-0.3,2.1-0.7,3.1-1,4.1c-0.7,2.7-1,5.1-1,7.9
		c0,0.3,0,28.1,1,72.1c0,1.7,4.1,157.1,5.5,177c7.2,108.4-57.3,149.3-96.8,164C1288.3,1476.4,1273.5,1478.1,1258.4,1478.5z
		 M1227.6,589.1c-19.9-0.3-39.5,4.5-56.6,13.7c-63.1,35.3-59.7,92.6-57.3,139c0.3,5.5,0.7,11.3,0.7,16.5
		c1.7,48.4,10.6,179.1,11,180.5c2.1,73.8-0.7,304-0.7,306.4c0.3,8.2,0,18.9-0.3,30.9c-2.1,46-4.8,115.6,36.4,160.6
		c51.5,55.9,140,32.9,141,32.6c37.7-14.4,100.5-54.2,93.7-159.9c-1.4-20.2-5.1-175.7-5.5-177.4c-1-44.3-1-72.1-1-72.4
		c0-3.1,0.3-6.2,1-9.3c0.3-0.7,0.7-1.7,1-3.1c0-1,0-2.4,0-3.4c0.3-2.4,0.3-5.8,0.3-8.9c-8.9-2.4-18.2-3.8-27.4-4.1
		c-0.3,7.5-0.7,39.5,1,158.5v0.3c1.4,17.2,8.6,103.6,9.3,133.5c0.7,23.3-4.1,46.7-14.1,67.9c-14.1,27.8-37.1,46.7-68.6,55.2
		c-14.8,2.1-29.8,3.1-44.9,2.7c-19.2-3.4-39.1-8.6-44.6-10h-0.3l-3.4-1.7c-11-6.9-20.6-16.5-27.4-27.4c-0.7-1.4-21.3-31.2-22-66.9
		c0-3.4-2.7-87.2,0.7-111.2c1.7-12,2.1-15.8,3.4-17.2c0.3-35.3,0.7-60,1.4-73.4l0,0c0-5.1,0-10.3,0.3-15.4c-0.3-5.1-1-18.5-1-31.6
		h-0.3l-6.2-211l-6.5-166.4c2.1-34.3,17.2-59.7,42.9-73.8c22.6-12.4,39.8-11.7,40.5-11.7c92.6,18.9,99.5,108.8,99.8,109.5v0.3
		c-1.7,15.8-0.3,324.9,0,373.7c0,52.8-3.4,90.2-3.4,90.6c-1.4,47.4-35.3,62.1-52.8,63.1c-7.2,0.3-14.4-0.7-21.6-2.7
		c-17.5-5.1-31.2-17.8-40.1-37.4c-1.4-3.1-2.7-6.2-4.1-10v-0.3l-12.7-135.2l-2.4-0.7l-4.5-1l-2.4-0.3l-3.4-0.7
		c-2.7,0.7-5.8,1.4-8.6,2.4c-1.4,0.7-3.1,1.4-4.5,2.1c0.3,10.3,0.7,14.1,1,17.2c0.7,7.2,1,14.1,0.7,21.3v0.7c0,8.6,0,15.8-0.3,20.9
		c0.3,15.4,2.1,32.6,2.7,39.5c-0.3,6.2,0,12.7,0.3,18.9c2.1,12,5.8,24,10.6,35.3c4.8,9.3,10.6,17.8,17.8,25.7
		c7.9,8.6,17.5,15.8,27.8,21.3c1.7,0.3,3.1,0.7,5.1,1l0.7,0.3c5.8,3.1,12,5.1,18.5,6.9c59.7,14.4,89.5-33.6,93-39.5
		c7.9-15.8,12-32.9,12.7-50.4l-1.4-89.2v-3.4l3.1-332.1c0-1,0-2.1,0-3.4c0.3-11,0.3-28.1,0-36.4c0-10.3-1.4-20.9-4.8-30.5l-1-3.1
		c-1-4.1-2.4-8.2-3.4-12.4c-2.4-5.5-4.8-10.3-4.8-10.3c-10.6-31.2-43.9-79.6-84.4-90.6C1248.1,590.2,1237.9,589.1,1227.6,589.1
		L1227.6,589.1z M1135.6,1298.4c0-2.1,0-3.8,0-5.5h4.1v5.5H1135.6z M1388.1,1236.6h-4.1l4.1-0.3V1236.6z M1383.3,1212.6v-6.2h4.1
		v6.2H1383.3z"/>
	<path d="M1364.5,1083.6l-1-1.7l1-0.7l7.9-4.8c5.1-3.1,10.3-6.2,15.4-9.3l1-0.7l1,1.7l-1,0.7c-5.1,3.1-10.3,6.2-15.4,9.3l-7.9,4.8
		L1364.5,1083.6z"/>
	<path d="M1365.5,1073.3l-1-1.7l6.2-3.4c5.5-3.1,11.3-6.5,16.8-10l1-0.7l1,1.7l-1,0.7c-5.5,3.4-11.3,6.9-16.8,10L1365.5,1073.3z"/>
	<path d="M1366.5,1061.9l-1.4-1.7l5.1-3.1c5.5-3.4,11.3-6.9,16.8-10.3l1-0.7l1,1.7l-1,0.7c-5.5,3.4-11.3,6.9-16.8,10.3
		L1366.5,1061.9z"/>
	<path d="M1368.9,1046.5l-1-1.7l6.5-3.4c4.1-2.4,8.6-4.8,12.7-7.5l1-0.7l1,1.7l-1,0.7c-4.1,2.4-8.6,5.1-13,7.5L1368.9,1046.5z"/>
	<path d="M1364.8,1124.4l-1-1.7l1-0.3l8.6-4.8c5.1-3.1,10.6-6.2,15.8-9.3l1-0.7l1,1.7l-1,0.7c-5.1,3.1-10.6,6.2-15.8,9.3l-8.6,4.8
		L1364.8,1124.4z"/>
	<path d="M1365.1,1114.4l-1-1.7l1-0.7l7.2-4.1c5.5-3.1,11-6.2,16.1-9.6l1-0.7l1,1.7l-1,0.7c-5.5,3.4-11,6.5-16.5,9.6
		c-2.4,1.4-4.8,2.7-7.2,4.1L1365.1,1114.4z"/>
	<path d="M1364.1,1104.5l-1-1.7l1-0.3l7.2-4.1c5.5-3.4,11.3-6.5,17.2-10.3l1-0.7l1,1.7l-1,0.7c-5.5,3.4-11.7,6.9-17.2,10.3l-6.9,4.1
		L1364.1,1104.5z"/>
	<path d="M1365.1,1094.2l-1-1.7l6.9-4.1c5.5-3.1,11.3-6.5,16.8-10l1-0.7l1,1.7l-1,0.7c-5.5,3.4-11.3,6.9-16.8,10L1365.1,1094.2z"/>
	<path d="M1366.5,1164.2l-1-1.7l1-0.7l8.2-4.8c5.1-3.1,10.3-5.8,15.4-8.9l1-0.7l1,1.7l-1,0.7c-5.1,3.1-10.3,6.2-15.4,8.9l-8.2,4.8
		L1366.5,1164.2z"/>
	<path d="M1366.2,1154.2l-1-1.7l1-0.7c3.1-1.7,6.2-3.4,9.6-5.5c4.8-2.7,9.9-5.5,14.8-8.6l1-0.7l1,1.7l-1,0.7
		c-4.8,3.1-9.9,5.8-14.8,8.6c-3.1,1.7-6.2,3.4-9.6,5.5L1366.2,1154.2z"/>
	<path d="M1365.8,1144.3l-1-1.7l1-0.7c3.1-1.7,6.2-3.4,9.3-5.5c4.8-2.7,9.6-5.5,14.4-8.2l1-0.7l1,1.7l-1,0.7
		c-4.8,2.7-9.6,5.5-14.4,8.2c-3.1,1.7-6.2,3.4-9.3,5.5L1365.8,1144.3z"/>
	<path d="M1365.1,1134.7l-1-1.7l1-0.7c2.7-1.7,5.5-3.1,8.6-4.8c5.1-2.7,10.3-5.8,15.1-8.9l1-0.7l1,1.7l-1,0.7
		c-5.1,3.1-10.3,6.2-15.1,8.9l-8.6,4.8L1365.1,1134.7z"/>
	<path d="M1368.2,1209.8l-1-1.7l1-0.7l11.3-6.5c4.8-2.7,9.9-5.5,11-6.2l1-0.7l1,1.7l-1,0.7c-1,0.7-5.8,3.4-11,6.2
		c-5.1,2.7-10.3,5.8-11.3,6.5L1368.2,1209.8z"/>
	<path d="M1365.8,1193.7l-1-1.7l1-0.7l8.9-5.1c5.1-3.1,10.3-5.8,15.4-9.3l1-0.7l1,1.7l-1,0.7c-5.1,3.1-10.6,6.2-15.8,9.3
		c-3.1,1.7-5.8,3.4-8.9,5.1L1365.8,1193.7z"/>
	<path d="M1366.2,1183.4l-1-1.7l1-0.7l6.9-4.1c5.5-3.4,11.7-6.9,17.2-10.3l1-0.7l1,1.7l-1,0.7c-5.8,3.4-11.7,6.9-17.2,10.3l-6.9,4.1
		L1366.2,1183.4z"/>
	<path d="M1366.5,1173.5l-1-1.7l6.9-4.1c5.8-3.4,12-6.9,17.8-10.6l1-0.7l1,1.7l-1,0.7c-5.8,3.8-12,7.2-17.8,10.6L1366.5,1173.5z"/>
	<path d="M1377.5,1327.5l-1-1.7l1.7-1c5.5-3.4,10.6-6.9,16.1-10.3l1-0.7l1,1.7l-1,0.7c-5.5,3.4-10.6,6.9-16.1,10.3L1377.5,1327.5z"
		/>
	<path d="M1377.1,1317.9l-1-1.7l1-0.7l8.9-5.5l8.6-5.5l1,1.7l-8.6,5.5c-3.1,1.7-5.8,3.8-8.9,5.5L1377.1,1317.9z"/>
	<rect x="1380.8" y="1298.2" transform="matrix(0.8451 -0.5346 0.5346 0.8451 -479.5401 943.4507)" width="14.8" height="2.1"/>
	<rect x="1386" y="1287.1" transform="matrix(0.8451 -0.5346 0.5346 0.8451 -473.2213 943.0505)" width="9.3" height="2.1"/>
	<path d="M1377.8,1345.7l-1-1.7l1-0.3c5.8-3.4,11.7-6.9,16.5-10.3l1-0.7l1,1.7l-1,0.7c-4.8,3.1-10.6,6.9-16.8,10.3L1377.8,1345.7z"
		/>
	<path d="M1377.1,1338.2l-1-1.7l1-0.7c4.5-2.7,8.9-5.5,13.4-8.6l5.1-3.4l1,1.7l-5.1,3.4l-13.4,8.6L1377.1,1338.2z"/>
	<rect x="1372.8" y="1396.2" transform="matrix(0.8436 -0.5369 0.5369 0.8436 -534.5737 958.7616)" width="12" height="2.1"/>
	<rect x="1368.3" y="1392.8" transform="matrix(0.8462 -0.5329 0.5329 0.8462 -531.263 947.1726)" width="13.4" height="2.1"/>
	<path d="M1124.6,809.1l-0.7-1l9.3-5.5l8.9-5.5l0.7,1l-8.9,5.5C1130.8,805.3,1127.7,807.4,1124.6,809.1z"/>
	<path d="M1123.6,799.5l-0.7-1l10.3-6.5l7.2-4.8l0.7,1l-7.5,4.5L1123.6,799.5z"/>
	<path d="M1119.5,791.2l-0.7-1l10.3-6.5c4.1-2.4,8.2-4.8,12-7.5l0.7,1l-12,7.5L1119.5,791.2z"/>
	<path d="M1117.1,782.6l-0.7-1c4.1-2.4,8.2-5.1,12-7.5c3.8-2.4,7.9-4.8,12-7.5l0.7,1c-4.1,2.4-7.9,5.1-12,7.5
		C1125,777.5,1121.2,780.2,1117.1,782.6z"/>
	<path d="M1124.3,851.3l-0.7-1l10.6-6.5l9.6-5.8l0.7,1l-9.6,5.8L1124.3,851.3z"/>
	<path d="M1124.3,841l-0.7-1l8.6-5.1c3.8-2.4,7.5-4.8,11.3-7.2l0.7,1c-3.8,2.4-7.5,4.8-11.7,7.2L1124.3,841z"/>
	<path d="M1125,830l-0.7-1l6.2-3.8c4.1-2.7,8.6-5.1,12.7-7.9l0.7,1c-4.1,2.7-8.2,5.5-12.7,7.9L1125,830z"/>
	<path d="M1124.3,820.4l-0.7-1l6.2-3.8c4.1-2.7,8.6-5.5,13-8.2l0.7,1c-4.5,2.7-8.6,5.5-13,8.2L1124.3,820.4z"/>
	<path d="M1126.7,890l-0.7-1c3.4-2.1,7.2-4.1,10.6-6.2c3.4-2.1,6.2-3.4,9.3-5.5l0.7,1c-3.1,1.7-6.2,3.8-9.3,5.5
		S1130.1,887.6,1126.7,890z"/>
	<path d="M1124.6,880.8l-0.7-1c3.8-2.4,7.5-4.8,11.3-6.9c3.1-1.7,6.2-3.8,9.3-5.5l0.7,1c-3.1,2.1-6.2,3.8-9.3,5.5
		C1132.2,876.3,1128.4,878.4,1124.6,880.8z"/>
	<path d="M1123.6,870.5l-0.7-1c4.1-2.7,8.2-5.1,12-7.2c3.1-1.7,6.2-3.8,9.3-5.5l0.7,1c-3.1,2.1-6.2,3.8-9.3,5.5
		C1131.8,865.7,1127.7,868.1,1123.6,870.5z"/>
	<path d="M1123.3,861.2l-0.7-1c3.1-2.1,6.2-3.8,9.3-5.5c3.8-2.4,7.9-4.8,12-7.5l0.7,1c-3.8,2.4-7.9,5.1-12,7.2L1123.3,861.2z"/>
	<path d="M1129.1,935.7l-0.7-1l5.5-3.8l9.6-6.5l0.7,1l-9.6,6.5L1129.1,935.7z"/>
	<path d="M1129.4,925.4l-0.7-1l1.7-1c4.5-3.1,8.9-5.8,13.4-8.9l0.7,1l-13.4,8.9L1129.4,925.4z"/>
	<path d="M1128.8,914.7l-0.7-1l0.7-0.3l14.8-10l0.7,1c-4.8,3.4-9.9,6.9-14.8,10L1128.8,914.7z"/>
	<path d="M1128.1,901l-0.7-1l6.2-3.8c4.5-2.7,8.9-5.5,13-8.6l0.7,1c-4.5,3.1-8.9,5.8-13,8.6L1128.1,901z"/>
	<path d="M1129.4,977.5l-0.7-1l8.6-5.5l7.9-5.1l0.7,1l-7.9,5.1L1129.4,977.5z"/>
	<path d="M1130.1,966.9l-0.7-1l6.5-4.1c3.1-2.1,5.8-3.8,8.9-5.8l0.7,1c-3.1,2.1-5.8,3.8-8.9,5.8L1130.1,966.9z"/>
	<path d="M1129.4,956.6l-0.7-1l5.5-3.8l9.6-6.5l0.7,1l-9.6,6.5L1129.4,956.6z"/>
	<path d="M1128.8,947l-0.7-1l4.5-3.1c3.8-2.4,7.2-4.8,11-7.2l0.7,1l-11,7.2L1128.8,947z"/>
	<path d="M1130.1,1019.1l-0.7-1c4.1-2.7,8.2-5.5,12.4-8.2l7.5-4.8l0.7,1l-7.5,4.8C1138.4,1013.9,1134.2,1016.3,1130.1,1019.1z"/>
	<path d="M1129.1,1009.8l-0.7-1c4.5-3.1,9.3-6.2,13.7-8.9l5.8-3.8l0.7,1l-5.8,3.8C1138.4,1003.6,1133.6,1006.7,1129.1,1009.8z"/>
	<path d="M1128.8,999.2l-0.7-0.7c4.5-3.1,8.9-5.8,13.4-8.9l5.8-3.8l0.7,1l-5.8,3.8C1137.7,993.3,1132.9,996.1,1128.8,999.2z"/>
	<path d="M1129.8,988.2l-0.7-1c3.4-2.4,7.2-4.8,10.6-6.9c2.1-1.4,4.5-2.7,6.5-4.5l0.7,1l-6.5,4.5
		C1137,983.7,1133.2,986.1,1129.8,988.2z"/>
	<path d="M1136.6,1063l-0.7-1c3.4-2.4,7.2-4.8,10.6-6.9l4.1-2.7l0.7,1l-4.1,2.7C1143.9,1058.5,1140.1,1060.6,1136.6,1063z"/>
	<path d="M1128.8,1050.6l-0.7-1c5.1-3.4,10.3-6.9,15.4-10.3l7.2-4.5l0.7,1l-7.2,4.5C1139,1043.4,1133.9,1046.8,1128.8,1050.6z"/>
	<path d="M1131.2,1038.3l-0.7-1c3.4-2.4,6.9-4.5,10.3-6.9c3.4-2.4,6.9-4.5,10.3-6.9l0.7,1c-3.4,2.4-6.9,4.5-10.3,6.9
		C1138,1033.8,1134.2,1035.9,1131.2,1038.3z"/>
	<path d="M1130.1,1029l-0.7-1l7.9-5.1l12-8.2l0.7,0.7l-12.4,8.2C1135.3,1025.6,1132.9,1027.3,1130.1,1029z"/>
	<path d="M1117.8,771l-0.3-1c5.1-3.1,10.6-6.2,15.4-9.6c2.4-1.4,4.8-3.1,7.2-4.5l0.7,1c-2.4,1.4-4.8,3.1-7.2,4.5
		C1128.4,764.5,1122.9,767.9,1117.8,771z"/>
	<path d="M1118.8,758.6l-0.7-1c4.8-3.1,9.6-6.5,14.4-9.6l6.5-4.5l0.7,1l-6.5,4.5C1128.8,752.1,1123.6,755.5,1118.8,758.6z"/>
	<path d="M1116.4,747.7l-0.7-1c4.5-2.7,8.9-5.8,13.4-8.9l9.9-6.5l0.7,1l-9.9,6.5C1125.3,741.5,1120.9,744.6,1116.4,747.7z"/>
	<path d="M1119.5,730.5l-1.4-1.7c5.8-4.1,11.7-8.2,17.8-12.4l2.4-1.7l1.4,1.7l-2.4,1.7C1131.2,722.3,1125.3,726.4,1119.5,730.5z"/>
	<path d="M1119.8,718.5l-1-1.7l9.3-6.2c3.4-2.4,6.9-4.8,10.6-6.9l1,1.7c-3.4,2.4-6.9,4.8-10.6,6.9L1119.8,718.5z"/>
	<path d="M1118.1,709.2l-1.4-1.7l17.2-11.7l4.5-3.1l1.4,1.7l-4.5,3.1L1118.1,709.2z"/>
	<path d="M1117.8,698.9l-1.4-1.7l14.8-10.6l7.2-5.1l1.4,1.7l-7.2,5.1L1117.8,698.9z"/>
	<path d="M1118.8,689.3l-1.4-1.7l13.4-9.6l14.8-10.6l1.4,1.7l-15.1,10.6L1118.8,689.3z"/>
	<path d="M1118.5,680.4l-1.4-1.7l12.4-8.9l15.8-11.7l1.4,1.7l-16.1,11.7L1118.5,680.4z"/>
	<path d="M1118.5,669.8l-1.4-1.7l11.7-8.2c5.5-3.8,11-7.9,16.5-11.7l1.4,1.7l-16.5,11.7L1118.5,669.8z"/>
	<path d="M1118.8,661.2l-1.4-1.7l12-8.6l16.5-11.7l1.4,1.7l-16.5,11.7C1126.7,655.4,1122.9,658.1,1118.8,661.2z"/>
	<path d="M1118.5,651.9l-1.4-1.7l7.9-5.5c4.8-3.4,9.6-6.9,14.4-10l1.4,1.7c-4.8,3.4-9.6,6.9-14.4,10
		C1123.6,648.1,1121.2,649.9,1118.5,651.9z"/>
	<path d="M1322.6,1147l-0.7-0.7c8.6-5.8,17.2-11.3,25.7-16.5l5.5-3.4l0.7,1l-5.5,3.4C1339.8,1135.7,1330.8,1141.2,1322.6,1147z"/>
	<path d="M1323.3,1136.4l-0.7-1c8.6-5.8,17.5-11.3,26.1-16.8l5.1-3.1l0.7,1l-5.1,3.1C1340.4,1125.1,1331.5,1130.6,1323.3,1136.4z"/>
	<path d="M1323.6,1125.4l-0.7-0.7c7.5-5.1,15.4-10,22.6-14.8l7.9-4.8l0.7,1l-7.9,4.8C1338.7,1115.1,1330.8,1120.3,1323.6,1125.4z"/>
	<path d="M1323.3,1115.1l-0.7-1c7.2-5.1,15.1-10,22.6-14.4l7.5-4.8l0.7,1l-7.5,4.8C1338.4,1105.5,1330.8,1110,1323.3,1115.1z"/>
	<path d="M1325.7,1186.8l-0.7-1c7.2-5.1,15.1-10,22.6-14.4l5.1-3.1l0.7,1c-1.7,1-3.4,2.1-5.1,3.1
		C1340.8,1176.9,1333.2,1181.7,1325.7,1186.8z"/>
	<path d="M1325,1176.9l-0.7-0.7c7.5-5.1,15.4-10.3,23-14.8l6.2-3.8l0.7,1l-6.2,3.8C1340.4,1166.9,1332.5,1171.7,1325,1176.9z"/>
	<path d="M1323.3,1167.6l-0.7-0.7c7.9-5.5,15.8-10.6,23.7-15.4l7.2-4.5l0.7,1l-7.2,4.5C1339.1,1157,1331.2,1162.1,1323.3,1167.6z"/>
	<path d="M1323.3,1157.7l-0.7-0.7c7.5-5.5,15.8-10.3,23.3-15.1l7.5-4.8l0.7,1l-7.5,4.8C1338.7,1147.4,1330.8,1152.2,1323.3,1157.7z"
		/>
	<path d="M1340.4,1207.1l-0.7-1c1.7-1.4,3.8-2.4,5.8-3.4l0.7,1C1344.2,1204.7,1342.2,1205.7,1340.4,1207.1z"/>
	<path d="M1338,1197.5l-0.7-0.7c2.4-1.7,4.8-3.1,7.9-5.1l0.7,1C1342.8,1194.4,1340.4,1196.1,1338,1197.5z"/>
	<path d="M1331.9,1192l-0.7-1c5.1-3.4,10.6-6.9,16.1-10.3l5.1-3.4l0.7,1l-5.5,3.4C1342.8,1185.1,1337.4,1188.2,1331.9,1192z"/>
	<path d="M1328.4,1273l-0.7-0.7c2.4-1.7,4.5-3.1,6.5-4.5l0.7,1C1332.9,1269.5,1330.8,1271.2,1328.4,1273z"/>
	<path d="M1326.4,1264l-0.7-0.7c3.8-2.7,7.9-5.5,11.7-7.9l0.7-0.7l0.7,1l-0.7,0.3C1334.3,1258.9,1330.5,1261.3,1326.4,1264z"/>
	<path d="M1324.3,1254.8l-0.7-0.7c5.1-3.8,10.3-7.2,15.4-10.6l2.7-1.7l0.7,1l-2.7,1.7C1334.6,1247.6,1329.1,1251.3,1324.3,1254.8z"
		/>
	<path d="M1336.3,1232.1l-0.7-1c2.7-2.1,5.5-3.8,8.2-5.5l1.4-0.7l0.7,1l-1.4,0.7C1342.2,1228.4,1339.1,1230.1,1336.3,1232.1z"/>
	<path d="M1328.4,1099.3l-0.7-1c1-0.7,2.4-1.7,3.4-2.1l0.3,0.3c5.1-2.7,10.3-5.8,15.4-9.3c2.1-1.4,4.1-2.7,6.2-3.8l0.7,1
		c-2.1,1.4-4.1,2.4-6.2,3.8C1341.5,1092.1,1334.9,1095.9,1328.4,1099.3z"/>
	<path d="M1337,1083.2l-0.7-1c4.1-2.7,8.6-5.5,12.7-8.6l4.8-3.1l0.7,1l-4.8,3.1C1345.2,1077.7,1341.1,1080.5,1337,1083.2z"/>
	<path d="M1328.4,1076l-0.7-1c6.2-3.8,12-7.9,17.8-11.7l7.2-4.8l0.7,1l-7.2,4.8C1340.4,1068.1,1334.3,1072.2,1328.4,1076z"/>
	<path d="M1326.4,1064.3l-0.7-1c8.6-5.5,16.8-11.7,25-17.2l2.7-1.7l0.7,1l-2.7,1.7C1343.2,1052.7,1334.6,1058.5,1326.4,1064.3z"/>
	<path d="M1328.4,1040.7l-0.7-1c6.2-3.8,12-7.9,17.8-11.7l7.2-4.8l0.7,1l-7.2,4.8C1340.4,1032.8,1334.3,1036.9,1328.4,1040.7z"/>
	<path d="M1328.4,1013.9l-0.7-1c6.2-3.8,12-7.9,18.2-11.7l7.2-4.8l0.7,1l-7.2,4.8C1340.4,1005.7,1334.3,1009.8,1328.4,1013.9z"/>
	<path d="M1326.4,1029l-0.7-1c8.6-5.5,16.8-11.3,25-17.2l3.1-2.1l0.7,0.7l-3.1,2.1C1343.2,1017.3,1334.6,1023.2,1326.4,1029z"/>
	<path d="M1322.3,984.7l-0.7-1c8.6-5.8,17.5-11.3,26.1-16.5l5.5-3.4l0.7,1l-5.5,3.4C1339.4,973.4,1330.8,978.9,1322.3,984.7z"/>
	<path d="M1322.9,974.1l-0.7-0.7c8.6-5.8,17.2-11.3,25.7-16.8l5.1-3.1l0.7,1l-5.1,3.1C1340.1,962.8,1331.2,968.3,1322.9,974.1z"/>
	<path d="M1323.3,963.1l-0.7-0.7c7.5-5.1,15.4-10,23-14.8l7.5-4.8l0.7,1l-7.5,4.8C1338.4,952.8,1330.8,958,1323.3,963.1z"/>
	<path d="M1323.3,953.2l-0.7-1c7.2-5.1,15.1-10,22.6-14.4l7.5-4.8l0.7,1l-7.5,4.8C1338,943.2,1330.5,948,1323.3,953.2z"/>
	<path d="M1322.9,1005.3l-0.7-1c7.9-5.5,16.1-10.6,24-15.4l6.9-4.5l0.7,1l-6.9,4.5C1339.1,994.7,1330.8,999.8,1322.9,1005.3z"/>
	<path d="M1322.9,995.4l-0.7-1c7.5-5.5,15.8-10.3,23.7-15.1l7.2-4.8l0.7,1l-7.5,4.8C1338.7,985.1,1330.5,989.9,1322.9,995.4z"/>
	<path d="M1331.9,1050.3l-0.7-0.7c5.1-3.8,10.6-6.9,16.1-10.3l5.5-3.4l0.7,1l-5.5,3.4C1342.5,1043.1,1337,1046.5,1331.9,1050.3z"/>
	<path d="M1328.1,937.1l-0.7-1c1-0.7,2.4-1.7,3.4-2.1l0.3,0.3c5.1-2.7,10.3-6.2,15.4-9.3c2.1-1.4,4.1-2.7,6.2-3.8l0.7,1l-6.2,3.8
		C1341.1,930.2,1334.9,933.6,1328.1,937.1z"/>
	<path d="M1328.1,913.7l-0.7-1c6.2-3.8,12-7.9,17.8-11.7l7.2-4.8l0.7,1l-7.2,4.8C1340.1,905.8,1334.3,909.9,1328.1,913.7z"/>
	<path d="M1322.3,876.3l-0.7-1c8.6-5.8,17.2-11.3,25.7-16.5l5.5-3.4l0.7,1l-5.5,3.4C1339.4,865,1330.8,870.5,1322.3,876.3z"/>
	<path d="M1322.9,865.7l-0.7-0.7c8.6-5.8,17.2-11.3,25.7-16.8l5.1-3.1l0.7,1l-5.1,3.1C1340.1,854.4,1331.2,859.8,1322.9,865.7z"/>
	<path d="M1323.3,854.7l-0.7-0.7c7.5-5.1,15.4-10,23-14.8c2.7-1.7,5.1-3.1,7.9-4.8l0.7,1l-7.5,4.8
		C1338.4,844.4,1330.8,849.6,1323.3,854.7z"/>
	<path d="M1323.3,844.8l-0.7-1c7.2-5.1,15.1-10,22.3-14.4l7.5-4.8l0.7,1l-7.5,4.8C1338,834.8,1330.5,839.6,1323.3,844.8z"/>
	<path d="M1325.7,926.4l-0.7-0.7c7.5-5.1,14.8-9.6,22.3-14.4l5.5-3.4l0.7,1l-5.5,3.4C1340.1,916.8,1332.9,921.3,1325.7,926.4z"/>
	<path d="M1324.7,906.5l-0.7-1c7.5-5.1,15.4-10.3,23-14.8l6.2-3.8l0.7,1l-6.2,3.8C1340.1,896.2,1332.2,901,1324.7,906.5z"/>
	<path d="M1322.9,896.9l-0.7-1c7.9-5.5,15.8-10.6,24-15.4c2.4-1.4,4.8-3.1,7.2-4.5l0.7,1l-7.2,4.5
		C1339.1,886.3,1330.8,891.4,1322.9,896.9z"/>
	<path d="M1322.9,887l-0.7-0.7c7.5-5.5,15.8-10.3,23.7-15.1l7.2-4.8l0.7,1l-7.5,4.8C1338.7,876.7,1330.5,881.5,1322.9,887z"/>
	<path d="M1328.1,828.6l-0.7-1c1-0.7,2.4-1.7,3.4-2.1l0.3,0.3c5.1-2.7,10.3-6.2,15.4-9.3c2.1-1.4,4.1-2.4,6.2-3.8l0.7,1l-6.2,3.8
		C1341.1,821.8,1334.9,825.2,1328.1,828.6z"/>
	<path d="M1336.7,812.5l-0.7-1c4.5-2.7,8.6-5.8,13-8.6l4.5-3.1l0.7,1c-1.4,1-3.1,2.1-4.5,3.1C1345.2,807,1340.8,809.8,1336.7,812.5z
		"/>
	<path d="M1328.1,805.3l-0.7-1c6.2-3.8,12-7.9,17.8-11.7l7.5-5.1l0.7,1l-7.5,5.1C1340.1,797.4,1334.3,801.5,1328.1,805.3z"/>
	<path d="M1326,791.2l-0.7-1c8.6-5.5,16.8-11.3,25-17.2l2.7-2.1l0.7,0.7l-3.1,2.1C1342.8,779.9,1334.3,785.7,1326,791.2z"/>
	<path d="M1327.1,782.6l-0.7-1c6.5-4.1,13-8.2,19.2-12.4l8.2-5.5l0.7,1l-8.2,5.5C1339.8,774.4,1333.6,778.5,1327.1,782.6z"/>
	<path d="M1326,773l-0.7-1c8.6-5.8,17.5-12,26.1-17.8l3.4-2.4l0.7,0.7l-3.4,2.4C1343.5,761,1334.6,767.2,1326,773z"/>
	<path d="M1326.4,763.1l-0.7-0.7c7.9-5.5,15.8-11.3,23.3-16.8l6.5-4.5l0.7,0.7l-6.5,4.5C1341.8,751.8,1333.9,757.6,1326.4,763.1z"/>
	<path d="M1326.4,753.8l-0.7-0.7c7.5-5.5,15.1-11,22.3-16.1l6.5-4.8l0.7,0.7l-6.5,4.8C1341.5,742.8,1333.9,748.3,1326.4,753.8z"/>
	<path d="M1327.1,744.2l-0.7-0.7c6.9-5.1,14.1-10.3,21.3-15.4l5.5-4.1l0.7,0.7l-5.5,4.1C1341.1,733.9,1334.3,739.1,1327.1,744.2z"/>
	<path d="M1328.1,733.2l-0.7-1c6.2-4.5,12.4-8.9,18.2-13l5.1-3.8l0.7,1l-5.1,3.8C1340.4,724.3,1334.3,728.8,1328.1,733.2z"/>
	<path d="M1329.1,724l-0.7-1l17.2-12.4l3.8-2.7l0.7,0.7l-3.8,2.7C1340.4,715.7,1334.6,719.9,1329.1,724z"/>
	<path d="M1330.1,713.7l-0.7-0.7c4.1-3.1,8.6-6.2,13-8.9l3.8-2.7l0.7,1l-3.8,2.7C1338.7,707.5,1334.3,710.6,1330.1,713.7z"/>
	<path d="M1295.8,666.7l-1-0.3c4.1-10,8.6-19.9,13.4-29.2l3.1-6.2l1,0.3l-3.1,6.2C1304.4,646.8,1300,656.7,1295.8,666.7z"/>
	<path d="M1291,657.4l-1-0.3c4.1-10,8.6-19.9,13.4-29.5l2.7-5.5l1,0.3l-2.7,5.5C1299.6,637.5,1295.2,647.5,1291,657.4z"/>
	<path d="M1285.5,648.1l-1-0.3c3.8-8.9,7.9-17.8,11.7-26.1c1-2.1,1.7-3.8,2.7-5.8l1,0.3l-2.7,5.8
		C1293.4,630.3,1289.3,639.2,1285.5,648.1z"/>
	<path d="M1280.4,639.6l-1-0.3c3.4-8.9,7.5-17.5,11.7-26.1l1.4-3.1l1,0.3l-1.4,3.1C1288.3,622.1,1284.2,631,1280.4,639.6z"/>
	<path d="M1318.5,697.9l-1-0.3c3.4-8.6,7.5-17.2,11.7-25.7l2.7-5.8l1,0.3l-2.7,5.8C1326,680.7,1322.3,689.3,1318.5,697.9z"/>
	<path d="M1313,690.4l-1-0.3c3.4-8.9,7.9-17.8,11.7-26.4c1-2.4,2.1-4.5,3.1-6.9l1,0.3l-3.4,6.9
		C1320.5,672.5,1316.4,681.4,1313,690.4z"/>
	<path d="M1306.8,683.5l-1-0.3c3.8-9.3,7.9-18.2,12-27.1c1.4-2.7,2.4-5.5,3.8-8.2l1,0.3c-1.4,2.7-2.4,5.5-3.8,8.2
		C1314.7,665.3,1310.6,674.2,1306.8,683.5z"/>
	<path d="M1301.7,675.3l-1-0.3c3.8-9.3,7.9-18.5,12-27.1l0.7-1.4l1,0.3l-0.7,1.4C1309.6,656.7,1305.4,666,1301.7,675.3z"/>
	<path d="M1334.3,699.6l-1-0.3c1-2.7,2.4-5.5,4.1-8.9l1,0.3C1336.7,694.1,1335.3,696.9,1334.3,699.6z"/>
	<path d="M1326.4,698.6l-1-0.3c2.7-6.2,5.5-12.4,8.2-18.2c1-2.1,1.7-3.8,2.7-5.8l1,0.3c-1,2.1-1.7,4.1-2.7,5.8
		C1331.9,686.2,1328.8,692.4,1326.4,698.6z"/>
	<path d="M1276.6,623.1l-1-0.3c0.3-1.4,1-2.4,1.7-3.8l0.3,0.3c2.4-4.5,4.8-9.3,6.9-13.7l1,0.3
		C1283.1,611.8,1280.1,617.6,1276.6,623.1z"/>
	<rect x="1193.6" y="590.9" transform="matrix(0.7815 -0.6239 0.6239 0.7815 -114.2841 877.0358)" width="2.7" height="21.6"/>
	<rect x="1180.8" y="600.1" transform="matrix(0.7828 -0.6223 0.6223 0.7828 -122.8314 868.1342)" width="2.7" height="19.9"/>
	<rect x="1176.4" y="598.6" transform="matrix(0.7813 -0.6242 0.6242 0.7813 -122.9035 868.5154)" width="2.7" height="22"/>
	<path d="M1174,624.1l-10.6-13.4l-2.4-3.1l2.1-1.7l2.4,3.1l10.6,13.4L1174,624.1z"/>
	<path d="M1166.8,628.9c-4.5-5.5-8.6-10.6-13-16.1l2.1-1.7l13,16.1L1166.8,628.9z"/>
	<path d="M1157.9,633.7c-3.8-4.8-7.5-9.6-11.3-14.4l2.1-1.7c3.8,4.8,7.5,9.6,11.3,14.4L1157.9,633.7z"/>
	<path d="M1179.9,1206.7l-0.7-1.4l13-7.9l8.9-5.5l0.7,1.4c-3.1,1.7-5.8,3.8-8.9,5.5L1179.9,1206.7z"/>
	<path d="M1178.2,1197.5l-0.7-1.4c5.1-3.1,10.3-6.5,15.4-9.6l7.5-4.8l0.7,1.4l-7.5,4.8C1188.5,1191.3,1183.3,1194.4,1178.2,1197.5z"
		/>
	<path d="M1176.1,1188.2l-0.7-1.4c4.1-2.7,8.2-5.1,12.7-7.9l11.3-7.2l0.7,1.4c-3.8,2.4-7.5,4.8-11.3,7.2
		C1185,1182.7,1180.2,1185.5,1176.1,1188.2z"/>
	<path d="M1174.7,1178.9l-0.7-1.4c4.5-2.7,8.9-5.5,13.4-8.6c3.8-2.4,7.5-4.8,11.3-6.9l0.7,1.4c-3.8,2.4-7.5,4.8-11.3,6.9
		C1183.6,1173.5,1179.2,1176.2,1174.7,1178.9z"/>
	<path d="M1191.9,1241.4l-0.7-1.4l3.4-2.1l12.4-7.5l0.7,1.4c-4.1,2.7-8.2,5.1-12.4,7.5L1191.9,1241.4z"/>
	<path d="M1188.1,1233.2l-0.7-1.4l4.8-3.1c4.5-2.7,8.9-5.5,13.4-8.6l1,1.4c-4.5,2.7-8.9,5.8-13.4,8.6L1188.1,1233.2z"/>
	<path d="M1184.7,1224.9l-0.7-1.4l5.8-3.8c5.1-3.4,10.6-6.5,15.8-10l1,1.4c-5.1,3.4-10.6,6.9-15.8,10.3L1184.7,1224.9z"/>
	<path d="M1182.6,1216l-0.7-1.4l6.2-3.8c4.8-3.1,9.9-6.2,15.1-9.6l0.7,1.4c-5.1,3.1-9.9,6.5-15.1,9.6L1182.6,1216z"/>
	<path d="M1199.8,1255.8l-0.7-1.4c2.1-1.4,4.1-2.4,6.2-3.8l1,1.4C1203.9,1253.1,1201.8,1254.4,1199.8,1255.8z"/>
	<path d="M1195.7,1248.3l-0.7-1.4l0.3-0.3c3.1-1.7,6.2-3.8,8.9-5.8l1,1.4c-3.1,2.1-6.2,3.8-9.3,5.8L1195.7,1248.3z"/>
	<path d="M1174,1167.6l-0.7-1.4c5.8-3.1,11.7-6.9,17.2-10.3l6.9-4.5l0.7,1.4l-6.9,4.5C1185.7,1160.8,1179.9,1164.5,1174,1167.6z"/>
	<path d="M1177.8,1153.9l-0.7-1.4c4.8-3.1,9.6-6.5,14.4-9.6l6.5-4.5l1,1.4l-6.5,4.5C1187.4,1147.7,1182.6,1150.8,1177.8,1153.9z"/>
	<path d="M1172.7,1144.3l-1-1.4c4.8-3.1,7.9-5.5,11.7-7.9c3.8-2.4,6.5-4.5,10.6-7.2l0.7,1.4c-4.1,2.7-7.2,5.1-10.3,7.2
		S1177.5,1141.2,1172.7,1144.3z"/>
	<path d="M1173,1128.9l-1-1.4c4.8-3.1,7.9-5.5,11.7-8.2c3.1-2.1,6.2-4.5,9.9-7.2l1,1.4c-3.8,2.7-6.9,5.1-9.9,7.2
		C1180.9,1123,1177.8,1125.4,1173,1128.9z"/>
	<path d="M1171.3,1117.9l-0.7-1.4c4.8-3.1,8.6-5.8,12.4-8.6c3.8-2.7,6.9-4.8,11-7.5l0.7,1.4c-4.5,2.7-7.9,5.1-11,7.5
		C1180.6,1111.7,1176.4,1114.8,1171.3,1117.9z"/>
	<path d="M1176.8,1097.3l-1-1.4l10.6-7.5l4.5-3.4l1,1.4l-4.5,3.4L1176.8,1097.3z"/>
	<path d="M1176.8,1108.6l-1-1.4l9.6-6.9l5.1-3.4l1,1.4l-5.1,3.4C1183,1104.1,1179.9,1106.2,1176.8,1108.6z"/>
	<path d="M1120.9,1253.7l-0.7-0.7c7.9-5.5,16.1-10.3,24-15.4l4.1-2.7l0.7,1l-4.1,2.7C1137,1243.1,1128.8,1248.3,1120.9,1253.7z"/>
	<path d="M1121.5,1243.1l-0.7-0.7c7.9-5.5,15.8-10.6,23.7-15.4l3.8-2.4l0.7,1l-3.8,2.4C1137.3,1232.5,1129.4,1237.6,1121.5,1243.1z"
		/>
	<path d="M1121.9,1231.8l-0.7-0.7c6.9-4.8,14.4-9.6,21.6-13.7l6.2-3.8l0.7,1l-6.2,3.4C1136.3,1222.5,1128.8,1227,1121.9,1231.8z"/>
	<path d="M1121.9,1221.8l-0.7-1c7.2-4.8,14.4-9.6,22-14.1l6.9-4.1l0.7,1l-6.9,4.1C1136.3,1212.6,1128.8,1217,1121.9,1221.8z"/>
	<path d="M1124.3,1293.5l-0.7-1c6.5-4.5,13.4-8.6,19.9-12.7l3.4-2.1l0.7,1l-3.4,2.1C1137.7,1284.6,1130.8,1288.7,1124.3,1293.5z"/>
	<path d="M1123.3,1283.6l-0.7-1c6.5-4.8,13.4-8.9,20.2-13l3.8-2.4l0.7,1l-3.8,2.4C1137,1274.7,1130.1,1279.1,1123.3,1283.6z"/>
	<path d="M1121.5,1274.3l-0.7-1c6.9-4.8,14.1-9.6,21.3-13.7l4.5-3.1l0.7,1l-4.8,2.7C1136,1264.7,1128.8,1269.5,1121.5,1274.3z"/>
	<path d="M1121.5,1264.4l-0.7-0.7c6.9-4.8,14.4-9.6,21.6-14.1l5.1-3.4l0.7,1l-5.1,3.4C1136,1254.8,1128.8,1259.2,1121.5,1264.4z"/>
	<path d="M1139.7,1323.7l-1.4-1.7c2.4-1.7,5.1-3.1,7.5-4.5l1-0.7l1,1.7l-1,0.7C1144.9,1321,1142.1,1322.4,1139.7,1323.7z"/>
	<path d="M1139,1314.1l-1-1.7c2.7-1.7,5.1-3.4,7.9-4.8l1.4-0.7l1,1.7l-1.4,0.7C1144.2,1311,1141.4,1312.4,1139,1314.1z"/>
	<path d="M1136.6,1304.2l-0.7-1c3.1-2.1,6.2-4.1,9.6-5.8l1.7-1l0.7,1l-1.7,1C1142.8,1300.4,1139.4,1302.1,1136.6,1304.2z"/>
	<path d="M1130.5,1298.7l-0.7-1c4.5-3.1,9.3-6.2,14.1-8.9l3.4-2.1l0.7,1l-3.4,2.1C1139.7,1292.5,1134.9,1295.6,1130.5,1298.7z"/>
	<rect x="1136.3" y="1346.8" transform="matrix(0.8316 -0.5554 0.5554 0.8316 -556.2969 861.3079)" width="11.3" height="2.1"/>
	<path d="M1134.9,1338.8l-0.7-1c3.4-2.4,7.2-4.8,10.6-6.9l2.7-1.7l0.7,1l-2.7,1.7C1141.8,1334,1138.4,1336.4,1134.9,1338.8z"/>
	<path d="M1127,1206.1l-0.7-1c1.4-1,2.4-1.7,3.4-2.1l0.3,0.3c4.8-2.4,9.3-5.1,13.7-8.2c1.7-1,3.8-2.4,5.5-3.4l0.7,1l-5.5,3.4
		C1138.7,1199.9,1132.9,1203,1127,1206.1z"/>
	<path d="M1135.3,1189.9l-0.7-1c4.1-2.7,8.2-5.5,12-8.2l3.8-2.4l0.7,1l-3.8,2.4C1143.5,1184.4,1139.4,1187.2,1135.3,1189.9z"/>
	<path d="M1126.7,1182.7l-0.7-1c6.2-3.8,12-7.9,17.8-11.7l7.5-4.8l0.7,1l-7.5,4.8C1139,1174.8,1132.9,1178.9,1126.7,1182.7z"/>
	<path d="M1124.6,1168.7l-0.7-1c8.6-5.8,17.5-11.7,25.7-17.5l1-0.7l0.7,1l-1,0.7C1142.1,1157,1133.2,1162.8,1124.6,1168.7z"/>
	<path d="M1125.3,1156.3l-0.7-1c6.5-4.1,13-8.6,19.6-12.7c2.1-1.4,4.1-2.7,6.2-4.1l0.7,1l-6.2,4.1
		C1138.7,1147.7,1131.8,1152.2,1125.3,1156.3z"/>
	<path d="M1124.6,1146.7l-0.7-1c8.9-6.2,17.8-12.4,26.4-18.2l0.7,1C1142.1,1134.3,1133.2,1140.5,1124.6,1146.7z"/>
	<path d="M1124.6,1136.7l-0.7-0.7c8.2-5.8,16.5-12,24.4-17.8l2.1-1.4l0.7,1l-2.1,1.4C1141.1,1124.7,1132.9,1130.6,1124.6,1136.7z"/>
	<path d="M1125,1127.1l-0.7-0.7c7.9-5.8,16.1-11.7,24-17.2l2.7-1.7l0.7,0.7l-2.7,1.7L1125,1127.1z"/>
	<path d="M1125.3,1117.9l-0.7-1c6.5-4.8,13.4-9.6,19.9-14.4l6.2-4.5l0.7,0.7l-6.2,4.5C1138.7,1107.9,1132.2,1113.1,1125.3,1117.9z"
		/>
	<path d="M1126.7,1106.6l-0.7-0.7c6.2-4.5,12.7-9.3,18.9-13.7l6.9-4.8l0.7,1l-6.9,4.8C1139.4,1097.3,1132.9,1102.1,1126.7,1106.6z"
		/>
	<path d="M1127.4,1097.6l-0.7-0.7l18.5-13.4l6.2-4.5l0.7,1l-6.2,4.5C1139.7,1088.4,1133.6,1092.8,1127.4,1097.6z"/>
	<path d="M1128.4,1087l-0.7-0.7c5.5-3.8,11-7.5,16.1-11.3l7.5-5.1l0.7,1l-7.5,5.1C1139.4,1079.4,1133.9,1083.2,1128.4,1087z"/>
	<path d="M1143.5,1391.7l-1.4-1.7l8.2-5.8l1.4,1.7L1143.5,1391.7z"/>
	<path d="M1136.6,1386.9l-0.7-0.7l12.7-9.3l0.7,0.7L1136.6,1386.9z"/>
	<path d="M1133.6,1379.7l-0.7-1c4.8-3.4,9.6-6.9,14.1-10.3l0.7,0.7C1143.2,1372.8,1138.4,1376.2,1133.6,1379.7z"/>
	<path d="M1134.9,1368.7l-0.7-0.7l10.6-7.5l0.7,0.7L1134.9,1368.7z"/>
	<path d="M1135.6,1359.4l-0.7-0.7l6.9-5.1l0.7,1L1135.6,1359.4z"/>
	<rect x="1320.5" y="1441.8" transform="matrix(0.4576 -0.8892 0.8892 0.4576 -572.0967 1962.6139)" width="4.1" height="16.8"/>
	<path d="M1350.4,1441.8l-12-7.2l2.1-3.8c4.1,2.4,8.2,4.8,12,7.2L1350.4,1441.8z"/>
	<rect x="1350.6" y="1424.1" transform="matrix(0.5173 -0.8558 0.8558 0.5173 -571.8214 1848.5228)" width="4.1" height="14.1"/>
	<rect x="1359" y="1417.2" transform="matrix(0.5188 -0.8549 0.8549 0.5188 -563.7507 1849.6173)" width="4.1" height="16.8"/>
	<rect x="1364.7" y="1414.1" transform="matrix(0.5191 -0.8547 0.8547 0.5191 -556.2303 1851.0104)" width="4.1" height="11.3"/>
	<path d="M1336,1451.4c-4.8-3.1-9.6-5.8-14.1-8.9l2.4-3.4c4.8,3.1,9.6,5.8,14.1,8.9L1336,1451.4z"/>
	<path d="M1342.8,1447.3l-3.1-1.7l-9.9-6.2l2.4-3.8l9.9,6.2l3.1,1.7L1342.8,1447.3z"/>
	<path d="M1314.4,1464.4c-4.1-2.4-7.9-4.8-12-7.2l2.4-3.8c3.8,2.4,7.9,4.8,11.7,7.2L1314.4,1464.4z"/>
	<path d="M1321.2,1460l-3.4-2.1c-3.1-2.1-6.5-3.8-9.6-5.8l2.1-3.8l9.6,5.8l3.4,2.1L1321.2,1460z"/>
	<rect x="1248.5" y="1456.2" transform="matrix(0.8471 -0.5314 0.5314 0.8471 -587.3149 888.5901)" width="4.1" height="17.5"/>
	<path d="M1278.7,1473.3c-3.1-5.8-6.5-12-9.6-17.8l-0.3-0.3l3.8-2.1v0.3c3.4,5.8,6.5,12,9.6,17.8L1278.7,1473.3z"/>
	<polygon points="1287.3,1472.7 1277.7,1454.8 1281.4,1452.8 1291,1470.9 	"/>
	<rect x="1293.2" y="1458.7" transform="matrix(0.8795 -0.4759 0.4759 0.8795 -541.3492 793.0535)" width="4.1" height="13.4"/>
	<rect x="1303.4" y="1463.9" transform="matrix(0.8795 -0.4759 0.4759 0.8795 -541.1685 798.1719)" width="4.1" height="7.5"/>
	<path d="M1261.9,1473.7c-3.1-5.8-6.5-12-9.6-18.2l3.8-1.7c3.1,6.2,6.5,12.4,9.6,18.2L1261.9,1473.7z"/>
	<path d="M1269.4,1474l-1.7-3.4c-2.7-4.8-5.1-9.6-7.9-14.8l3.8-2.1c2.7,4.8,5.1,9.6,7.9,14.4l1.7,3.4L1269.4,1474z"/>
	<path d="M1237.2,1472.7c-2.4-4.8-5.1-9.6-7.5-14.1l3.8-2.1c2.4,4.8,4.8,9.6,7.5,14.1L1237.2,1472.7z"/>
	<path d="M1245.1,1473l-1.7-3.4c-2.1-3.8-3.8-7.2-5.8-11l3.8-2.1c2.1,3.8,3.8,7.2,5.8,11l1.7,3.4L1245.1,1473z"/>
	<rect x="1174.1" y="1436.7" transform="matrix(0.977 -0.2134 0.2134 0.977 -281.2622 284.3011)" width="4.1" height="16.5"/>
	<path d="M1199.4,1463c-0.7-4.1-1.4-7.9-1.7-12l4.1-0.7c0.7,4.1,1.4,7.9,1.7,12L1199.4,1463z"/>
	<path d="M1207.7,1466.1c-0.7-3.8-1.4-7.5-1.7-11.3v-0.3l4.1-0.7v0.3c0.7,3.8,1.4,7.5,1.7,11.3L1207.7,1466.1z"/>
	<rect x="1215.5" y="1455.1" transform="matrix(0.9882 -0.153 0.153 0.9882 -209.3432 203.5266)" width="4.1" height="13.4"/>
	<path d="M1183.6,1456.9c-0.3-3.4-1-6.9-1.4-10.3l4.1-0.7c0.3,3.4,1,6.9,1.4,10.3L1183.6,1456.9z"/>
	<rect x="1189.8" y="1449.4" transform="matrix(0.9885 -0.1514 0.1514 0.9885 -206.4941 197.224)" width="4.1" height="10.3"/>
	<path d="M1160.7,1446.2c-0.7-5.5-1.7-10.6-2.4-16.1l4.1-0.7c0.7,5.5,1.4,10.6,2.4,16.1L1160.7,1446.2z"/>
	<path d="M1167.9,1449.7l-0.7-4.1c-0.7-4.8-1.4-10-2.1-14.8l4.1-0.7c0.7,5.1,1.4,10,2.1,14.8l0.7,4.1L1167.9,1449.7z"/>
	<path class="st7" d="M1189.8,695.2c0,0-67.2,7.2-102.9,46.3c-35.7,39.1-11.7,86.1-6.2,86.8s-12.7-37.7,22-72.7
		c0,0,29.2-39.1,90.6-52.2C1192.9,703.4,1197,704.8,1189.8,695.2z"/>
	<path class="st7" d="M1286.2,692.1c0,0,67.2-4.8,109.4,27.4s26.4,82.7,21.6,84.4c-4.8,1.7,5.8-39.5-34.3-67.6
		c0,0-35.7-33.3-98.1-35.3C1284.5,701,1280.7,703,1286.2,692.1z"/>
	<path class="st6" d="M1337.4,956.3c-17.2-0.3-35.7-16.8-45.3-41.9c-11.7-30.9-5.5-62.8,13.7-71.7c3.4-1.4,7.2-2.4,10.6-2.1
		c17.2,0.3,35.7,16.8,45.3,41.9c11.7,30.9,5.5,62.8-13.7,71.7C1344.9,955.6,1341.1,956.3,1337.4,956.3z M1325.7,803.9
		c-4.5,0-8.9,0.7-13,2.1c-30.2,10-44.9,54.6-33.3,99.8c10.3,38.8,37.1,65.2,63.5,65.5c4.5,0,8.9-0.7,13-2.1
		c30.2-10,44.9-54.6,33.3-99.8C1378.9,830.7,1352.1,804.3,1325.7,803.9L1325.7,803.9z"/>
	<path class="st7" d="M1397.4,866.7l-2.1,0.3c3.1,11.3,4.5,23.3,4.5,35c0,16.5-3.8,32.6-11.3,47.4c-6.2,12.4-16.8,22-29.8,26.8
		c-4.5,1.4-9.6,2.4-14.4,2.1c-14.4,0-28.8-7.2-41.2-19.9c-13.7-14.4-23.3-32.3-28.1-51.5c-3.1-11.3-4.5-23.3-4.5-35
		c0-16.5,3.8-32.6,11.3-47.4c6.2-12.4,16.8-22,29.8-26.8c4.5-1.7,9.3-2.4,14.4-2.1c14.4,0,28.8,7.2,41.2,19.9
		c13.7,14.4,23.3,32.3,28.1,51.5L1397.4,866.7l2.1-0.7c-4.8-19.9-15.1-38.1-29.2-53.2c-13-13-28.5-20.6-43.9-20.9
		c-5.1,0-10.6,0.7-15.4,2.4c-14.1,5.1-25.4,15.4-32.3,28.5c-7.9,15.1-12,32.3-12,49.4c0,12.4,1.4,24.4,4.5,36
		c4.8,19.9,15.1,38.4,29.2,53.2c13,13,28.5,20.6,43.9,20.9c5.1,0,10.6-0.7,15.4-2.4c14.1-5.1,25.4-15.1,32.3-28.5
		c7.9-15.4,12-32.3,12-49.4c0-12-1.4-24.4-4.5-36L1397.4,866.7z"/>
	<path class="st7" d="M1342.8,971.4c-26.4-0.3-53.2-26.8-63.5-65.5c-12-44.9,3.1-89.9,33.3-99.8c4.1-1.4,8.6-2.1,13-2.1
		c26.4,0.3,53.2,26.8,63.5,65.5c12,44.9-3.1,89.9-33.3,99.8C1351.4,970.7,1347.3,971.4,1342.8,971.4z M1326,796.4L1326,796.4
		c-4.8,0-9.6,0.7-14.4,2.1c-13,4.8-23.7,14.4-29.8,26.8c-7.5,14.8-11.7,30.9-11.3,47.4c0,12,1.4,23.7,4.5,35
		c4.8,19.2,14.4,37.1,28.1,51.5c12.4,12.4,26.8,19.6,41.2,19.9l0,0c4.8,0,9.6-0.7,14.4-2.1c13-4.8,23.7-14.4,29.8-26.8
		c7.5-14.8,11.7-30.9,11.3-47.4c0-12-1.4-23.7-4.5-35l2.1-0.3l-2.1,0.3c-4.8-19.2-14.4-37.1-28.1-51.5
		C1354.8,803.6,1340.4,796.4,1326,796.4L1326,796.4z"/>
	<path class="st7" d="M1326,794.3c-5.1,0-10.3,0.7-15.1,2.4c-34.3,11.3-51.5,61.4-38.1,111.5c11.3,42.9,41.2,72.4,71.4,72.7
		c5.1,0,9.9-0.7,15.1-2.4c34.3-11.3,51.5-61.4,38.1-111.5l-2.1,0.3c3.1,11.3,4.5,23.3,4.5,35c0,16.5-3.8,32.6-11.3,47.4
		c-6.2,12.4-16.8,22-29.8,26.8c-4.5,1.4-9.6,2.4-14.4,2.1l0,0c-14.4,0-28.8-7.2-41.2-19.9c-13.7-14.4-23.3-32.3-28.1-51.5
		c-3.1-11.3-4.5-23.3-4.5-35c0-16.5,3.8-32.6,11.3-47.4c6.2-12.4,16.8-22,29.8-26.8c4.5-1.7,9.3-2.4,14.4-2.1l0,0
		c14.4,0,28.8,7.2,41.2,19.9c13.7,14.4,23.3,32.3,28.1,51.5l2.1-0.3C1386.1,823.8,1356.2,794.7,1326,794.3z"/>
	<path class="st6" d="M1292.4,914.1c-11.7-30.9-5.5-62.8,13.7-71.7c19.2-8.9,44.3,8.9,55.9,39.8c11.7,30.5,5.5,62.8-13.7,71.7
		C1329.1,962.8,1303.7,944.9,1292.4,914.1z"/>
	<path class="st7" d="M1320.2,861.2c-2.4,0-5.1,0.3-7.2,1.4c-13.4,5.8-18.2,26.4-11,46.7c5.8,16.5,18.2,27.4,29.8,27.4
		c2.4,0,5.1-0.3,7.2-1.4c13.4-5.8,18.2-26.8,11-46.7C1343.9,872.2,1331.5,861.6,1320.2,861.2z"/>
	<path class="st6" d="M1147.6,969.3h-0.3c-21.3-0.7-35.7-27.8-32.6-60.4c3.1-32.6,22.6-58.3,43.6-58h0.3
		c21.3,0.7,35.7,27.8,32.6,60.4C1188.1,943.9,1168.6,969.3,1147.6,969.3z M1159.3,813.9c-29.8-0.3-60,31.9-69,75.1
		c-9.3,45.6,8.9,86.5,40.5,90.6c1.7,0.3,3.4,0.3,5.1,0.3c29.8,0.3,60-31.9,68.6-75.1c9.3-45.6-8.9-86.5-40.5-90.6
		C1162.7,813.9,1161,813.9,1159.3,813.9z"/>
	<path class="st7" d="M1213.5,906.5l-2.1-0.3c-4.1,22-14.4,42.2-29.2,59c-13.7,14.8-30.2,23.3-46.3,23c-2.1,0-3.8,0-5.8-0.3
		c-14.4-2.1-26.1-10.6-34.3-24c-8.9-15.4-13.4-32.9-12.7-50.8c0-8.2,1-16.1,2.7-24c4.1-22,14.4-42.5,29.2-59
		c13.7-14.8,30.2-23.3,46.3-23c2.1,0,3.8,0,5.8,0.3c14.4,2.4,27.1,11.3,34.3,24c8.9,15.4,13.4,32.9,12.7,50.8c0,8.2-1,16.1-2.7,24
		L1213.5,906.5l1.7,0.3c1.7-8.2,2.7-16.5,2.7-24.7c0.7-18.5-4.1-37.1-13.4-52.8c-7.9-13.7-21.6-23.3-37.4-25.7
		c-2.1-0.3-4.1-0.3-6.2-0.3c-17.8-0.3-35,8.9-49.4,24.4c-15.4,17.2-26.1,38.1-30.2,61.1c-1.7,8.2-2.7,16.5-2.7,24.7
		c-0.7,18.5,4.1,37.1,13.4,52.8c7.9,14.1,21.6,23.3,37.4,26.1c2.1,0.3,4.1,0.3,6.2,0.3c17.8,0.3,35-8.9,49.4-24.4
		c15.4-17.2,25.7-38.1,30.2-61.1L1213.5,906.5z"/>
	<path class="st7" d="M1136,979.9c-1.7,0-3.4,0-5.1-0.3c-31.6-4.5-49.7-44.9-40.5-90.6c8.9-43.2,38.8-75.5,69-75.1
		c1.7,0,3.4,0,5.1,0.3c31.6,4.5,49.7,44.9,40.5,90.6C1196,948.4,1166.2,980.6,1136,979.9z M1161.3,806.7c-16.1-0.3-32.6,8.2-46.3,23
		c-15.1,16.5-25,37.1-29.2,59c-1.7,7.9-2.4,15.8-2.7,24c-0.7,17.8,3.8,35.3,12.7,50.8c8.2,13.4,20.2,22,34.3,24
		c1.7,0.3,3.8,0.3,5.8,0.3l0,0c16.1,0,32.6-8.2,46.3-23c15.1-16.5,25-37.1,29.2-59c1.7-7.9,2.4-15.8,2.7-24
		c0.7-17.8-3.8-35.3-12.7-50.8c-7.2-12.7-19.9-21.6-34.3-24C1165.1,807,1163.4,806.7,1161.3,806.7L1161.3,806.7z"/>
	<path class="st7" d="M1136,987.8L1136,987.8c-2.1,0-3.8,0-5.8-0.3c-14.4-2.1-26.1-10.6-34.3-24c-8.9-15.4-13.4-32.9-12.7-50.8
		c0-8.2,1-16.1,2.7-24c4.1-22,14.4-42.5,29.2-59c13.7-14.8,30.2-23.3,46.3-23l0,0c2.1,0,3.8,0,5.8,0.3c14.4,2.4,27.1,11.3,34.3,24
		c8.9,15.4,13.4,32.9,12.7,50.8c0,8.2-1,16.1-2.7,24c-4.1,22-14.4,42.2-29.2,59C1168.9,979.6,1152.4,988.2,1136,987.8z
		 M1161.7,804.6c-34-0.3-67.9,35.3-77.5,83.7c-10.3,50.8,10.3,96.1,46.3,101.2c2.1,0.3,4.1,0.3,5.8,0.3c34,0.3,67.9-35.3,77.5-83.7
		c10.3-51.1-10.3-96.4-46.3-101.2C1165.5,805,1163.4,804.6,1161.7,804.6L1161.7,804.6z"/>
	<path class="st6" d="M1114.3,908.9c3.1-32.6,23-58.7,43.9-58s35.7,27.8,32.6,60.4c-3.1,32.6-23,58.7-43.9,58
		C1126,968.6,1111.3,941.5,1114.3,908.9z"/>
	<path class="st7" d="M1156.9,867.1c-14.1-0.3-27.4,16.1-29.5,37.1c-2.1,20.9,7.2,39.1,21.6,39.8h0.7c14.1,0,27.4-16.1,29.8-37.1
		c2.4-20.9-7.2-39.1-21.6-39.8L1156.9,867.1z"/>
</g>
</svg>
