<?xml version="1.0" encoding="utf-8"?>
<!-- Generator: Adobe Illustrator 22.0.1, SVG Export Plug-In . SVG Version: 6.00 Build 0)  -->
<svg version="1.1" id="Layer_1" xmlns="http://www.w3.org/2000/svg" xmlns:xlink="http://www.w3.org/1999/xlink" x="0px" y="0px"
	 viewBox="0 0 735 852" style="enable-background:new 0 0 735 852;" xml:space="preserve">
<style type="text/css">
	.st0{fill:#005590;}
	.st1{fill:#004064;}
	.st2{fill:#E6B35A;}
	.st3{fill:#FFFFFF;}
	.st4{fill:url(#SVGID_1_);}
	.st5{fill:url(#SVGID_2_);}
	.st6{fill:url(#SVGID_3_);}
	.st7{fill:url(#SVGID_4_);}
	.st8{fill:url(#SVGID_5_);}
</style>
<path class="st0" d="M711.7,226.5L368.8,12.4L24.8,226.5v396.6l343.4,198.3l343.4-198.3V226.5z"/>
<title>googledrive</title>
<path class="st1" d="M734.9,637.4V213.1l-29.3-16.9L427.8,35.8L367.5,1l-60.3,34.8L29.4,196.2L0.1,213.1v424.2l29.3,16.9
	l281.3,162.4l56.9,32.8l56.9-32.8l281.3-162.4L734.9,637.4z M29.4,621.5V231L367.5,35.8l0,0L705.6,231v390.5L367.5,816.7L29.4,621.5
	z"/>
<path class="st2" d="M367,633.9c0.3-0.3,0.6-0.6,0.9-0.9h-0.3C367.5,633.3,367.3,633.6,367,633.9z"/>
<path class="st3" d="M104.5,509.7c-0.3,4.8-0.6,10.2-0.6,18.3v38.8c0,15.3-3,24.7-9.5,30.5c-6.5,6.1-15.9,8-24.3,8
	c-8,0-16.8-1.9-22.2-5.5l3-9.2c5.9,3.5,12.7,5.3,19.6,5.2c12.4,0,21.5-6.5,21.5-23.3V565h-0.3c-3.7,6.2-10.9,11.2-21.3,11.2
	c-16.6,0-28.4-14.1-28.4-32.6c0-22.6,14.8-35.5,30.1-35.5c11.6,0,17.9,6.1,20.8,11.6h0.3l0.6-10.1L104.5,509.7z M91.9,536
	c0.1-1.9-0.2-3.7-0.7-5.5c-2.2-7-8.1-12.8-17-12.8c-11.6,0-19.9,9.8-19.9,25.3c0,13.1,6.6,24,19.7,24c7.7,0,14.6-5,16.9-12.4
	c0.7-2.1,1-4.3,1-6.5V536z"/>
<path class="st3" d="M180.1,542.5c0,24.7-17.1,35.5-33.2,35.5c-18.1,0-32-13.2-32-34.4c0-22.4,14.6-35.5,33.1-35.5
	C167.1,508.1,180.1,522.1,180.1,542.5z M127.1,543.2c0,14.6,8.4,25.7,20.3,25.7c11.6,0,20.3-10.9,20.3-25.9c0-11.3-5.6-25.7-20-25.7
	S127.1,530.5,127.1,543.2L127.1,543.2z"/>
<path class="st3" d="M251.4,542.5c0,24.7-17.1,35.5-33.3,35.5c-18.1,0-32-13.2-32-34.4c0-22.4,14.6-35.5,33.1-35.5
	C238.5,508.1,251.4,522.1,251.4,542.5z M198.4,543.2c0,14.6,8.4,25.7,20.3,25.7c11.6,0,20.3-10.9,20.3-25.9c0-11.3-5.7-25.7-20-25.7
	S198.4,530.5,198.4,543.2L198.4,543.2z"/>
<path class="st3" d="M319.9,509.7c-0.3,4.8-0.6,10.2-0.6,18.3v38.8c0,15.3-3,24.7-9.5,30.5c-6.5,6.1-15.9,8-24.3,8
	c-8,0-16.8-1.9-22.2-5.5l3-9.2c5.9,3.5,12.7,5.3,19.6,5.2c12.4,0,21.5-6.5,21.5-23.3V565h-0.3c-3.7,6.2-10.9,11.2-21.2,11.2
	c-16.6,0-28.4-14.1-28.4-32.6c0-22.6,14.8-35.5,30.1-35.5c11.6,0,17.9,6.1,20.8,11.6h0.3l0.5-10.1L319.9,509.7z M307.3,536
	c0.1-1.9-0.2-3.7-0.7-5.5c-2.2-7-8.1-12.8-17-12.8c-11.6,0-19.9,9.8-19.9,25.3c0,13.1,6.6,24,19.7,24c7.7,0,14.5-5.1,16.8-12.4
	c0.7-2.1,1-4.3,1-6.5L307.3,536z"/>
<path class="st3" d="M335.1,478.5h12.1v98h-12.1V478.5z"/>
<path class="st3" d="M370,545.3c0.3,16.4,10.8,23.2,22.9,23.2c8.7,0,13.9-1.5,18.5-3.5l2.1,8.7c-4.3,1.9-11.6,4.1-22.2,4.1
	c-20.6,0-32.8-13.5-32.8-33.7s11.9-36,31.3-36c21.8,0,27.6,19.2,27.6,31.5c0,1.9-0.2,3.8-0.4,5.7H370z M405.6,536.6
	c0.1-7.7-3.2-19.7-16.8-19.7c-12.3,0-17.7,11.3-18.6,19.7H405.6z"/>
<path class="st3" d="M485.6,478.5v80.7c0,5.9,0.1,12.7,0.5,17.2h-10.9l-0.5-11.6h-0.3c-3.7,7.5-11.9,13.1-22.8,13.1
	c-16.1,0-28.6-13.7-28.6-34c-0.1-22.2,13.7-35.9,29.9-35.9c10.2,0,17.1,4.8,20.1,10.2h0.3v-39.8L485.6,478.5L485.6,478.5z
	 M473.5,536.8c0-1.7-0.2-3.4-0.5-5.1c-1.8-8.2-9.1-14.1-17.5-14.1c-12.6,0-20,11-20,25.8c0,13.5,6.6,24.7,19.7,24.7
	c8.1,0,15.6-5.4,17.8-14.5c0.4-1.7,0.6-3.5,0.5-5.2V536.8z"/>
<path class="st3" d="M501.4,530.5c0-7.9-0.1-14.6-0.5-20.8h10.6l0.4,13.1h0.5c3-9,10.3-14.6,18.5-14.6c1.2,0,2.3,0.1,3.5,0.4V520
	c-1.4-0.3-2.7-0.4-4.1-0.4c-8.5,0-14.6,6.5-16.3,15.6c-0.3,1.9-0.5,3.8-0.5,5.7v35.6h-12L501.4,530.5z"/>
<path class="st3" d="M556.1,490.9c0.1,4.1-2.9,7.5-7.7,7.5c-4,0.1-7.3-3.1-7.3-7.1c0-0.1,0-0.2,0-0.3c-0.1-4.1,3.1-7.5,7.2-7.6
	c0.1,0,0.3,0,0.4,0c4-0.1,7.3,3,7.5,7C556.2,490.5,556.2,490.7,556.1,490.9z M542.6,576.5v-66.8h12.2v66.8H542.6z"/>
<path class="st3" d="M575.2,509.7l13.1,37.5c2.1,5.6,3.9,11.3,5.4,17.1h0.4c1.5-5.5,3.5-11,5.7-17.1l13-37.5h12.7l-26.2,66.8h-11.6
	l-25.4-66.8H575.2z"/>
<path class="st3" d="M637.8,545.3c0.3,16.4,10.8,23.2,22.9,23.2c8.7,0,13.9-1.5,18.5-3.5l2.1,8.7c-4.3,1.9-11.6,4.1-22.2,4.1
	c-20.6,0-32.8-13.5-32.8-33.7s11.9-36,31.3-36c21.8,0,27.6,19.2,27.6,31.5c0,1.9-0.2,3.8-0.4,5.7H637.8z M673.4,536.6
	c0.1-7.7-3.2-19.7-16.8-19.7c-12.3,0-17.7,11.3-18.6,19.7H673.4z"/>
<path class="st3" d="M365.5,797.3l4.5,4.5c1,1,1.9,1.9,2.7,2.9h0.1c-0.4-1.2-0.7-2.5-1-3.8l-1.4-6.3l1.6-0.9l4.7,4.3
	c1.1,1,2.1,2,2.9,2.9h0.1c-0.5-1.3-0.9-2.5-1.2-3.8l-1.6-6.1l1.9-1.1l2.7,12.3l-1.7,1l-4.5-4.1c-1-1-2-1.8-2.9-2.9l0,0
	c0.4,1.3,0.8,2.6,1.1,4l1.2,6l-1.7,1l-9.2-8.6L365.5,797.3z"/>
<path class="st3" d="M381.7,787.9l4.5,4.5c1,1,1.9,1.9,2.7,2.9h0.1c-0.4-1.2-0.7-2.5-1-3.8l-1.4-6.3l1.6-0.9l4.7,4.3
	c1.1,1,2.1,2,2.9,2.9h0.1c-0.5-1.3-0.9-2.5-1.2-3.8l-1.6-6.1l1.9-1.1l2.7,12.4l-1.7,1l-4.5-4.1c-1-1-2-1.8-2.9-2.9l0,0
	c0.4,1.3,0.8,2.6,1.1,4l1.2,6l-1.7,1l-9.3-8.7L381.7,787.9z"/>
<path class="st3" d="M397.9,778.5l4.5,4.5c1,1,1.9,1.9,2.7,2.9h0.1c-0.4-1.2-0.7-2.5-1-3.8l-1.4-6.3l1.6-0.9l4.7,4.3
	c1.1,1,2.1,2,2.9,2.9h0.1c-0.5-1.3-0.9-2.6-1.2-3.9l-1.6-6.1l1.9-1.1l2.7,12.4l-1.7,1l-4.5-4.1c-1-1-2-1.8-2.9-2.9l0,0
	c0.4,1.3,0.8,2.6,1.1,4l1.2,6l-1.7,1l-9.2-8.6L397.9,778.5z"/>
<path class="st3" d="M417.1,779.7c-0.4-0.7-0.1-1.6,0.6-2s1.6-0.1,2,0.6c0.4,0.7,0.1,1.6-0.6,2C418.5,780.8,417.6,780.5,417.1,779.7
	C417.2,779.8,417.1,779.8,417.1,779.7z"/>
<path class="st3" d="M418.5,770.8c-0.7-1.2-1.4-2.3-2-3.2l1.7-1l1.2,2h0.1c-0.4-1.5,0.2-3.2,1.6-4c0.2-0.1,0.4-0.2,0.6-0.2l1,1.8
	c-0.2,0.1-0.5,0.2-0.7,0.3c-1.3,0.8-1.8,2.5-1.1,3.9c0.1,0.3,0.3,0.6,0.4,0.9l3.2,5.6l-1.8,1.1L418.5,770.8z"/>
<path class="st3" d="M428.4,772.1c1,0,2-0.2,3-0.7c1.4-0.8,1.6-1.9,1.1-2.7s-1.4-1.1-3.1-0.8c-2.3,0.4-3.8-0.1-4.5-1.3
	c-1-1.7-0.4-3.9,1.8-5.2c0.9-0.5,1.9-0.8,3-0.8l0.3,1.7c-0.9,0-1.7,0.2-2.5,0.6c-0.9,0.3-1.3,1.4-1,2.3c0,0.1,0,0.1,0.1,0.2
	c0.5,0.9,1.4,0.9,3,0.6c2.2-0.4,3.7,0,4.6,1.6c1.1,1.8,0.4,4-2.1,5.4c-1,0.6-2.2,1-3.4,1L428.4,772.1z"/>
<path class="st3" d="M432.8,754.1l1.8,3l2.7-1.6l0.8,1.5l-2.7,1.6l3.3,5.6c0.8,1.3,1.5,1.8,2.6,1.2c0.4-0.2,0.7-0.5,1-0.8l0.9,1.4
	c-0.4,0.5-1,0.9-1.5,1.2c-0.7,0.5-1.7,0.6-2.5,0.4c-1-0.4-1.9-1.3-2.3-2.3l-3.3-5.7l-1.6,0.9l-0.8-1.5l1.6-0.9l-1.5-2.5L432.8,754.1
	z"/>
<path class="st3" d="M452.6,756.8c0.6,1.1,1.2,2,1.8,2.8l-1.7,1l-1.1-1.6l0,0c0,1.7-0.9,3.2-2.3,4c-1.6,1-4.1,1.2-6.3-2.5l-3.5-6.1
	l1.9-1.1l3.3,5.8c1.1,2,2.5,3,4.3,2c1.1-0.7,1.7-1.9,1.5-3.2c-0.1-0.4-0.2-0.7-0.4-1.1l-3.7-6.4l1.9-1.1L452.6,756.8z"/>
<path class="st3" d="M457.5,737.2l7.4,12.6c0.5,0.9,1.2,2,1.7,2.7l-1.7,1l-1.1-1.8l0,0c0.1,1.7-0.9,3.3-2.4,4.1
	c-2.5,1.5-5.7,0.5-7.6-2.7c-2-3.5-1.1-6.9,1.4-8.3c1.2-0.8,2.8-0.9,4.1-0.2l0,0l-3.6-6.2L457.5,737.2z M460.9,747.4
	c-0.2-0.3-0.3-0.5-0.5-0.8c-1-1.1-2.7-1.4-4-0.6c-2,1.1-2.1,3.5-0.8,5.9c1.2,2.1,3.3,3.3,5.3,2.1c1.3-0.8,2-2.4,1.5-3.9
	c-0.1-0.3-0.2-0.6-0.4-0.9L460.9,747.4z"/>
<path class="st3" d="M463.9,736.1c0.4,0.6,0.2,1.5-0.5,1.9c-0.6,0.4-1.5,0.2-1.9-0.5c-0.4-0.6-0.2-1.5,0.4-1.8c0,0,0,0,0.1,0
	c0.6-0.4,1.4-0.2,1.8,0.4C463.8,736,463.9,736,463.9,736.1z M469.6,750.7l-6.1-10.5l1.9-1.1l6.1,10.5L469.6,750.7z"/>
<path class="st3" d="M481,736.9c2.2,3.9,0.5,7.1-2,8.6c-2.8,1.7-6.2,0.8-8.1-2.5c-2-3.5-0.9-6.9,2-8.6S479.1,733.7,481,736.9z
	 M472.8,741.9c1.3,2.3,3.7,3.2,5.5,2.2s2.2-3.6,0.8-5.9c-1-1.8-3.2-3.5-5.5-2.2S471.6,739.9,472.8,741.9L472.8,741.9z"/>
<path class="st3" d="M484.9,740.3c-0.4-0.7-0.1-1.6,0.6-2s1.6-0.1,2,0.6c0.4,0.7,0.1,1.6-0.6,2C486.2,741.3,485.3,741.1,484.9,740.3
	L484.9,740.3z"/>
<path class="st3" d="M497.7,733.8c-0.7,1-1.6,1.8-2.6,2.3c-3.1,1.8-6.5,0.9-8.3-2.3c-1.8-2.8-1-6.6,1.8-8.5c0.2-0.1,0.4-0.2,0.6-0.3
	c0.9-0.5,1.9-0.9,3-1l0.4,1.7c-0.9,0-1.7,0.3-2.5,0.8c-2.4,1.4-2.7,3.9-1.4,6.1c1.4,2.4,3.8,3,5.9,1.8c0.8-0.5,1.5-1.1,2-1.9
	L497.7,733.8z"/>
<path class="st3" d="M506.4,722.2c2.2,3.9,0.5,7.1-2,8.6c-2.8,1.6-6.2,0.8-8.1-2.5c-2-3.5-0.9-6.9,2-8.6S504.5,719,506.4,722.2z
	 M498.1,727.1c1.3,2.3,3.7,3.2,5.5,2.2s2.2-3.6,0.8-5.9c-1-1.8-3.2-3.5-5.5-2.2S497,725.1,498.1,727.1z"/>
<path class="st3" d="M507.4,718.5c-0.6-1.1-1.2-2-1.7-2.8l1.7-1l1.1,1.6h0.1c-0.1-1.6,0.8-3.1,2.2-3.8c1.3-0.8,3-0.6,4.2,0.4l0,0
	c0-0.7,0.1-1.4,0.4-2c0.4-0.9,1-1.6,1.9-2.1c1.4-0.8,4-1.1,6.1,2.5l3.6,6.2l-1.9,1.1l-3.5-5.9c-1.2-2-2.6-2.8-4.1-1.9
	c-1,0.6-1.5,1.8-1.2,3c0.1,0.4,0.2,0.7,0.4,1l3.8,6.5l-1.9,1.1l-3.6-6.3c-1-1.7-2.4-2.4-3.9-1.6c-1.3,1-1.7,2.8-0.9,4.3l3.7,6.3
	l-1.9,1.1L507.4,718.5z"/>
<g>
	<linearGradient id="SVGID_1_" gradientUnits="userSpaceOnUse" x1="329.3832" y1="432.3138" x2="305.1622" y2="294.9499">
		<stop  offset="0" style="stop-color:#FFFFFF"/>
		<stop  offset="0.4779" style="stop-color:#FDFDFD"/>
		<stop  offset="0.65" style="stop-color:#F6F6F6"/>
		<stop  offset="0.7727" style="stop-color:#EBEBEB"/>
		<stop  offset="0.8719" style="stop-color:#DADADA"/>
		<stop  offset="0.9559" style="stop-color:#C4C4C4"/>
		<stop  offset="1" style="stop-color:#B5B5B5"/>
	</linearGradient>
	<path class="st4" d="M294.1,296.9l46.2,26.7v106.8l-46.2-26.7V296.9z"/>
	<linearGradient id="SVGID_2_" gradientUnits="userSpaceOnUse" x1="444.6408" y1="397.5189" x2="328.6516" y2="355.3023">
		<stop  offset="0" style="stop-color:#FFFFFF"/>
		<stop  offset="0.4303" style="stop-color:#FDFDFD"/>
		<stop  offset="0.6135" style="stop-color:#F6F6F6"/>
		<stop  offset="0.7496" style="stop-color:#E9E9E9"/>
		<stop  offset="0.8626" style="stop-color:#D8D8D8"/>
		<stop  offset="0.9601" style="stop-color:#C1C1C1"/>
		<stop  offset="1" style="stop-color:#B5B5B5"/>
	</linearGradient>
	<path class="st5" d="M340.4,323l0,53.4l92.5,53.4l0-53.4L340.4,323z"/>
	<g>
		<linearGradient id="SVGID_3_" gradientUnits="userSpaceOnUse" x1="421.3284" y1="210.4037" x2="351.9597" y2="330.5538">
			<stop  offset="0" style="stop-color:#FFFFFF"/>
			<stop  offset="0.3478" style="stop-color:#FDFDFD"/>
			<stop  offset="0.5484" style="stop-color:#F4F4F4"/>
			<stop  offset="0.7116" style="stop-color:#E6E6E6"/>
			<stop  offset="0.8547" style="stop-color:#D2D2D2"/>
			<stop  offset="0.9834" style="stop-color:#B9B9B9"/>
			<stop  offset="1" style="stop-color:#B5B5B5"/>
		</linearGradient>
		<path class="st6" d="M340.4,323.9l0-53.4l92.4-53.4l0,53.4L340.4,323.9z"/>
		<linearGradient id="SVGID_4_" gradientUnits="userSpaceOnUse" x1="298.4733" y1="215.2012" x2="428.4798" y2="192.2775">
			<stop  offset="0" style="stop-color:#FFFFFF"/>
			<stop  offset="0.2137" style="stop-color:#FAFAFA"/>
			<stop  offset="0.4628" style="stop-color:#ECECEC"/>
			<stop  offset="0.7296" style="stop-color:#D5D5D5"/>
			<stop  offset="1" style="stop-color:#B5B5B5"/>
		</linearGradient>
		<path class="st7" d="M386.6,243.8l46.2-26.7l-92.5-53.4l-46.2,26.7L386.6,243.8z"/>
		<linearGradient id="SVGID_5_" gradientUnits="userSpaceOnUse" x1="329.3836" y1="325.8528" x2="305.1603" y2="188.4756">
			<stop  offset="0" style="stop-color:#FFFFFF"/>
			<stop  offset="0.2441" style="stop-color:#FBFBFB"/>
			<stop  offset="0.4713" style="stop-color:#F0F0F0"/>
			<stop  offset="0.6918" style="stop-color:#DDDDDD"/>
			<stop  offset="0.9069" style="stop-color:#C3C3C3"/>
			<stop  offset="1" style="stop-color:#B5B5B5"/>
		</linearGradient>
		<path class="st8" d="M294.2,297.2l46.3,26.7l-0.1-106.8l-46.3-26.7L294.2,297.2z"/>
	</g>
</g>
</svg>
