<?xml version="1.0" encoding="utf-8"?>
<!-- Generator: Adobe Illustrator 26.5.0, SVG Export Plug-In . SVG Version: 6.00 Build 0)  -->
<svg version="1.1" id="Layer_1" xmlns="http://www.w3.org/2000/svg" xmlns:xlink="http://www.w3.org/1999/xlink" x="0px" y="0px"
	 viewBox="0 0 2521 2911" style="enable-background:new 0 0 2521 2911;" xml:space="preserve">
<style type="text/css">
	.st0{fill:#005590;}
	.st1{fill:#004064;}
	.st2{fill:#E6B35A;}
	.st3{fill:#FFFFFF;}
	.st4{fill:url(#SVGID_1_);}
	.st5{fill:url(#SVGID_00000022526900769781431580000009573816586232082070_);}
	.st6{fill:url(#SVGID_00000079445797734305635300000008205438288122414985_);}
	.st7{fill:url(#SVGID_00000152242990485217901120000011199136386884532892_);}
	.st8{fill:url(#SVGID_00000158746127466269959650000008655997753291353751_);}
</style>
<g>
	<path class="st0" d="M2441.4,773.7L1265,39.1L84.7,773.7v1360.8l1178.2,680.4l1178.2-680.4V773.7H2441.4z"/>
	<path class="st1" d="M2521,2183.6V727.7l-100.5-58l-953.1-550.4L1260.5,0l-206.9,119.4L100.5,669.8L0,727.7v1455.5l100.5,58
		l965.1,557.2l195.2,112.5l195.2-112.5l965.1-557.2L2521,2183.6z M100.5,2129V789.2l1160-669.8l0,0l1160,669.8V2129l-1160,669.8
		L100.5,2129z"/>
	<path class="st2" d="M1258.8,2171.6c1-1,2.1-2.1,3.1-3.1h-1C1260.5,2169.5,1259.8,2170.6,1258.8,2171.6z"/>
	<path class="st3" d="M358.2,1745.4c-1,16.5-2.1,35-2.1,62.8v133.1c0,52.5-10.3,84.7-32.6,104.7c-22.3,20.9-54.6,27.4-83.4,27.4
		c-27.4,0-57.6-6.5-76.2-18.9l10.3-31.6c20.2,12,43.6,18.2,67.2,17.8c42.5,0,73.8-22.3,73.8-79.9v-25.7h-1
		c-12.7,21.3-37.4,38.4-73.1,38.4c-57,0-97.4-48.4-97.4-111.9c0-77.5,50.8-121.8,103.3-121.8c39.8,0,61.4,20.9,71.4,39.8h1l2.1-34.7
		L358.2,1745.4z M315,1835.7c0.3-6.5-0.7-12.7-2.4-18.9c-7.5-24-27.8-43.9-58.3-43.9c-39.8,0-68.3,33.6-68.3,86.8
		c0,44.9,22.6,82.3,67.6,82.3c26.4,0,50.1-17.2,58-42.5c2.4-7.2,3.4-14.8,3.4-22.3V1835.7z"/>
	<path class="st3" d="M617.6,1858c0,84.7-58.7,121.8-113.9,121.8c-62.1,0-109.8-45.3-109.8-118c0-76.9,50.1-121.8,113.6-121.8
		C573,1739.9,617.6,1788,617.6,1858z M435.7,1860.4c0,50.1,28.8,88.2,69.6,88.2c39.8,0,69.6-37.4,69.6-88.9
		c0-38.8-19.2-88.2-68.6-88.2S435.7,1816.8,435.7,1860.4L435.7,1860.4z"/>
	<path class="st3" d="M862.2,1858c0,84.7-58.7,121.8-114.2,121.8c-62.1,0-109.8-45.3-109.8-118c0-76.9,50.1-121.8,113.6-121.8
		C817.9,1739.9,862.2,1788,862.2,1858z M680.3,1860.4c0,50.1,28.8,88.2,69.6,88.2c39.8,0,69.6-37.4,69.6-88.9
		c0-38.8-19.6-88.2-68.6-88.2C702,1771.5,680.3,1816.8,680.3,1860.4L680.3,1860.4z"/>
	<path class="st3" d="M1097.2,1745.4c-1,16.5-2.1,35-2.1,62.8v133.1c0,52.5-10.3,84.7-32.6,104.7c-22.3,20.9-54.6,27.4-83.4,27.4
		c-27.4,0-57.6-6.5-76.2-18.9l10.3-31.6c20.2,12,43.6,18.2,67.2,17.8c42.5,0,73.8-22.3,73.8-79.9v-25.7h-1
		c-12.7,21.3-37.4,38.4-72.7,38.4c-57,0-97.4-48.4-97.4-111.9c0-77.5,50.8-121.8,103.3-121.8c39.8,0,61.4,20.9,71.4,39.8h1l1.7-34.7
		L1097.2,1745.4z M1054,1835.7c0.3-6.5-0.7-12.7-2.4-18.9c-7.5-24-27.8-43.9-58.3-43.9c-39.8,0-68.3,33.6-68.3,86.8
		c0,44.9,22.6,82.3,67.6,82.3c26.4,0,49.7-17.5,57.6-42.5c2.4-7.2,3.4-14.8,3.4-22.3L1054,1835.7z"/>
	<path class="st3" d="M1149.3,1638.4h41.5v336.3h-41.5V1638.4z"/>
	<path class="st3" d="M1269.1,1867.6c1,56.3,37.1,79.6,78.6,79.6c29.8,0,47.7-5.1,63.5-12l7.2,29.9c-14.8,6.5-39.8,14.1-76.2,14.1
		c-70.7,0-112.5-46.3-112.5-115.6s40.8-123.5,107.4-123.5c74.8,0,94.7,65.9,94.7,108.1c0,6.5-0.7,13-1.4,19.6H1269.1z
		 M1391.2,1837.7c0.3-26.4-11-67.6-57.6-67.6c-42.2,0-60.7,38.8-63.8,67.6H1391.2z"/>
	<path class="st3" d="M1665.7,1638.4v276.9c0,20.2,0.3,43.6,1.7,59H1630l-1.7-39.8h-1c-12.7,25.7-40.8,44.9-78.2,44.9
		c-55.2,0-98.1-47-98.1-116.7c-0.3-76.2,47-123.2,102.6-123.2c35,0,58.7,16.5,69,35h1V1638L1665.7,1638.4L1665.7,1638.4z
		 M1624.2,1838.4c0-5.8-0.7-11.7-1.7-17.5c-6.2-28.1-31.2-48.4-60-48.4c-43.2,0-68.6,37.7-68.6,88.5c0,46.3,22.6,84.7,67.6,84.7
		c27.8,0,53.5-18.5,61.1-49.8c1.4-5.8,2.1-12,1.7-17.8V1838.4z"/>
	<path class="st3" d="M1719.9,1816.8c0-27.1-0.3-50.1-1.7-71.4h36.4l1.4,44.9h1.7c10.3-30.9,35.3-50.1,63.5-50.1
		c4.1,0,7.9,0.3,12,1.4v39.1c-4.8-1-9.3-1.4-14.1-1.4c-29.2,0-50.1,22.3-55.9,53.5c-1,6.5-1.7,13-1.7,19.6v122.1h-41.2
		L1719.9,1816.8z"/>
	<path class="st3" d="M1907.6,1680.9c0.3,14.1-9.9,25.7-26.4,25.7c-13.7,0.3-25-10.6-25-24.4c0-0.3,0-0.7,0-1
		c-0.3-14.1,10.6-25.7,24.7-26.1c0.3,0,1,0,1.4,0c13.7-0.3,25,10.3,25.7,24C1907.9,1679.6,1907.9,1680.2,1907.6,1680.9z
		 M1861.2,1974.6v-229.2h41.9v229.2H1861.2z"/>
	<path class="st3" d="M1973.1,1745.4l44.9,128.7c7.2,19.2,13.4,38.8,18.5,58.7h1.4c5.1-18.9,12-37.7,19.6-58.7l44.6-128.7h43.6
		l-89.9,229.2H2016l-87.1-229.2H1973.1z"/>
	<path class="st3" d="M2187.9,1867.6c1,56.3,37.1,79.6,78.6,79.6c29.8,0,47.7-5.1,63.5-12l7.2,29.9c-14.8,6.5-39.8,14.1-76.2,14.1
		c-70.7,0-112.5-46.3-112.5-115.6s40.8-123.5,107.4-123.5c74.8,0,94.7,65.9,94.7,108.1c0,6.5-0.7,13-1.4,19.6H2187.9z M2310,1837.7
		c0.3-26.4-11-67.6-57.6-67.6c-42.2,0-60.7,38.8-63.8,67.6H2310z"/>
	<g>
		
			<linearGradient id="SVGID_1_" gradientUnits="userSpaceOnUse" x1="1129.4838" y1="-627.989" x2="1046.3711" y2="-156.6345" gradientTransform="matrix(1 0 0 -1 0 852)">
			<stop  offset="0" style="stop-color:#FFFFFF"/>
			<stop  offset="0.4779" style="stop-color:#FDFDFD"/>
			<stop  offset="0.65" style="stop-color:#F6F6F6"/>
			<stop  offset="0.7727" style="stop-color:#EBEBEB"/>
			<stop  offset="0.8719" style="stop-color:#DADADA"/>
			<stop  offset="0.9559" style="stop-color:#C4C4C4"/>
			<stop  offset="1" style="stop-color:#B5B5B5"/>
		</linearGradient>
		<path class="st4" d="M1008.7,1015.3l158.5,91.6v366.4l-158.5-91.6V1015.3z"/>
		
			<linearGradient id="SVGID_00000111908287577115475990000004931364612352197779_" gradientUnits="userSpaceOnUse" x1="1525.2039" y1="-508.4901" x2="1127.1981" y2="-363.628" gradientTransform="matrix(1 0 0 -1 0 852)">
			<stop  offset="0" style="stop-color:#FFFFFF"/>
			<stop  offset="0.4303" style="stop-color:#FDFDFD"/>
			<stop  offset="0.6135" style="stop-color:#F6F6F6"/>
			<stop  offset="0.7496" style="stop-color:#E9E9E9"/>
			<stop  offset="0.8626" style="stop-color:#D8D8D8"/>
			<stop  offset="0.9601" style="stop-color:#C1C1C1"/>
			<stop  offset="1" style="stop-color:#B5B5B5"/>
		</linearGradient>
		<path style="fill:url(#SVGID_00000111908287577115475990000004931364612352197779_);" d="M1167.5,1104.8v183.2l317.4,183.2v-183.2
			L1167.5,1104.8z"/>
		<g>
			
				<linearGradient id="SVGID_00000003790549955106595330000003176850458968747422_" gradientUnits="userSpaceOnUse" x1="1444.9944" y1="133.3544" x2="1207.0646" y2="-278.752" gradientTransform="matrix(1 0 0 -1 0 852)">
				<stop  offset="0" style="stop-color:#FFFFFF"/>
				<stop  offset="0.3478" style="stop-color:#FDFDFD"/>
				<stop  offset="0.5484" style="stop-color:#F4F4F4"/>
				<stop  offset="0.7116" style="stop-color:#E6E6E6"/>
				<stop  offset="0.8547" style="stop-color:#D2D2D2"/>
				<stop  offset="0.9834" style="stop-color:#B9B9B9"/>
				<stop  offset="1" style="stop-color:#B5B5B5"/>
			</linearGradient>
			<path style="fill:url(#SVGID_00000003790549955106595330000003176850458968747422_);" d="M1167.5,1107.9V924.7l317-183.2v183.2
				L1167.5,1107.9z"/>
			
				<linearGradient id="SVGID_00000047046175914716540620000002144064470858889652_" gradientUnits="userSpaceOnUse" x1="1023.6823" y1="117.0241" x2="1469.5277" y2="195.6388" gradientTransform="matrix(1 0 0 -1 0 852)">
				<stop  offset="0" style="stop-color:#FFFFFF"/>
				<stop  offset="0.2137" style="stop-color:#FAFAFA"/>
				<stop  offset="0.4628" style="stop-color:#ECECEC"/>
				<stop  offset="0.7296" style="stop-color:#D5D5D5"/>
				<stop  offset="1" style="stop-color:#B5B5B5"/>
			</linearGradient>
			<path style="fill:url(#SVGID_00000047046175914716540620000002144064470858889652_);" d="M1326,833.1l158.5-91.6l-317.4-183.2
				l-158.5,91.6L1326,833.1z"/>
			
				<linearGradient id="SVGID_00000005951229217783396400000005953836493112364985_" gradientUnits="userSpaceOnUse" x1="1129.837" y1="-262.6286" x2="1046.704" y2="208.843" gradientTransform="matrix(1 0 0 -1 0 852)">
				<stop  offset="0" style="stop-color:#FFFFFF"/>
				<stop  offset="0.2441" style="stop-color:#FBFBFB"/>
				<stop  offset="0.4713" style="stop-color:#F0F0F0"/>
				<stop  offset="0.6918" style="stop-color:#DDDDDD"/>
				<stop  offset="0.9069" style="stop-color:#C3C3C3"/>
				<stop  offset="1" style="stop-color:#B5B5B5"/>
			</linearGradient>
			<path style="fill:url(#SVGID_00000005951229217783396400000005953836493112364985_);" d="M1009,1016.3l158.8,91.6l-0.3-366.4
				l-158.8-91.6L1009,1016.3z"/>
		</g>
	</g>
</g>
</svg>
