<?xml version="1.0" encoding="utf-8"?>
<!-- Generator: Adobe Illustrator 26.5.0, SVG Export Plug-In . SVG Version: 6.00 Build 0)  -->
<svg version="1.1" id="Layer_1" xmlns="http://www.w3.org/2000/svg" xmlns:xlink="http://www.w3.org/1999/xlink" x="0px" y="0px"
	 viewBox="0 0 2521 2911" style="enable-background:new 0 0 2521 2911;" xml:space="preserve">
<style type="text/css">
	.st0{fill:#FDFCBB;}
	.st1{fill:#134F85;}
	.st2{fill:#FFF200;}
</style>
<g>
	<g>
		<polygon class="st0" points="1260.5,119.4 273.1,689.7 100.5,789.2 100.5,2129 1260.5,2798.8 2420.5,2129 2420.5,789.2 
			2250.6,691 		"/>
		<path class="st1" d="M2420.5,669.8l-953.1-550.4L1260.5,0l-206.9,119.4L100.5,669.8L0,727.7v1455.5l100.5,58l965.1,557.2
			l195.2,112.5l195.2-112.5l965.1-557.2l99.8-57.6V727.7L2420.5,669.8z M2420.5,2129l-1160,669.8L100.5,2129V789.2l172.6-99.5
			l987.4-570.3L2250.6,691l169.8,98.1V2129z"/>
	</g>
	<g>
		<g>
			<g>
				<g>
					<path class="st1" d="M1578.9,1213.6c-11.3,67.3-3.1,140,3.8,207.2c2.4,24,40.1,23.7,37.4,0c-4.1-35-7.5-70.3-11-105.7
						c-3.4-34-4.8-68.6-12-101.9C1595.4,1205,1580.3,1204.7,1578.9,1213.6L1578.9,1213.6z"/>
				</g>
			</g>
			<g>
				<g>
					<path class="st1" d="M1602.9,1331.3c7.9-8.2,12.7-18.9,20.6-26.8c3.8-3.8,9.9-7.9,15.4-5.8c6.9,2.4,5.1,11.7,5.5,17.5
						c0.7,30.2-0.3,60.4,0,90.2c0.3,22.6,33.3,22.3,35,0c1.7-26.1,0.3-52.8-3.1-78.6c-2.4-18.2-3.1-42.5-20.9-52.8
						c-13.4-7.9-31.6-5.1-43.6,4.1c-16.5,12.7-20.6,30.2-17.5,49.1C1594.7,1333,1600.2,1333.7,1602.9,1331.3L1602.9,1331.3z"/>
				</g>
			</g>
		</g>
		<g>
			<g>
				<g>
					<path class="st1" d="M1727.1,1294.2c11.7,4.5,25.4-3.8,36.7-6.9c7.5-2.1,15.4-3.4,23.3-4.1c3.8-0.3,7.5-0.7,11.3-0.7
						c-4.5-4.1-6.2-4.1-5.5,0.7c-3.1,4.1-1.7,18.5-2.4,24c-1,9.3-1.7,18.2-2.7,27.4c-2.1,18.2-4.5,36.4-6.9,54.6
						c-3.1,24,36.7,25,38.4,0c1.7-26.1,3.1-52.5,5.5-78.6c1.7-17.8,9.6-45.6-8.6-58c-14.4-10-40.5-2.7-55.2,2.4
						c-15.1,5.1-37.4,13.7-39.5,31.6C1720.9,1290.1,1724,1293.2,1727.1,1294.2L1727.1,1294.2z"/>
				</g>
			</g>
			<g>
				<g>
					<path class="st1" d="M1806.7,1319.6c-0.7-21.3-24-29.2-42.5-25.4c-22.3,4.8-36,25-41.9,45.6c-6.5,22.3-7.2,52.8,15.8,66.6
						c23.3,14.1,54.6-5.8,70-23.7c12.7-14.8-3.4-38.8-21.6-27.8c-5.8,3.4-20.2,17.8-27.4,17.5c-5.1-0.3,0.3-22.3,1.7-26.1
						c6.2-17.2,20.2-23.7,37.7-20.6C1802.6,1326.5,1807,1324.1,1806.7,1319.6L1806.7,1319.6z"/>
				</g>
			</g>
		</g>
		<g>
			<g>
				<g>
					<path class="st1" d="M1861.6,1280.9c14.4,5.5,31.9,2.4,47,1.7c15.8-0.7,33.3,0.7,48-4.5s18.2-29.9,0-33.6
						c-16.8-3.4-34.3,0.3-51.5,2.1c-15.8,1.7-32.9,1.7-47,9.3C1847.5,1262,1851.3,1277.1,1861.6,1280.9L1861.6,1280.9z"/>
				</g>
			</g>
			<g>
				<g>
					<path class="st1" d="M1900.7,1220.1c-13,38.1-15.1,80.3-15.1,120.1c0,16.1,0.3,33.6,13,44.9s29.5,11.7,42.2,0.7
						c14.1-12.7-1.4-31.9-16.8-29.2c-2.7,0.3,0.7-122.5,0.3-133.5C1924,1209.1,1905.2,1207.4,1900.7,1220.1L1900.7,1220.1z"/>
				</g>
			</g>
		</g>
		<path class="st2" d="M2248.6,1504.6c-30.9-59.7-110.5-75.8-171.9-76.5c2.7-8.9,4.5-18.2,5.5-27.1c-12.7,4.1-26.4,6.5-41.9,6.9
			c-324.6,2.4-657,81.7-943.8,234.7c-20.2,10.6-39.8,15.8-58.7,16.1c-55.6-45.6-83-134.2-105-210.7c-2.7-9.3-6.2-17.8-9.9-25.7
			c5.5-8.6,12-16.5,20.2-23c301.9-244,658-212,1022.4-212c143.8,0,31.9-25-13.4-30.5c29.5-1.4,58.7-2.4,88.2-2.7
			c4.1,0,7.9,0.3,11.7,0.3c9.3-42.5,0.7-96.1-34.3-123.5c-54.6-42.9-113.2-78.2-175-106c-12.4-42.2-44.9-76.5-91.6-92
			c-170.9-57-355.1-72.4-533.5-49.1c-114.2,15.1-359.2,51.5-433.7,154.1c-27.1,37.4-26.1,86.5-47.7,127
			c-19.6,36.4-52.8,65.5-79.3,96.8c-68.3,79.6-120.4,171.6-172.2,262.8c-12.7,22-25,44.3-37.7,66.2c-14.4,25.7-29.2,51.5-43.6,76.9
			c-29.5,51.8-58.7,103.6-88.2,155.4c-32.9,58.3-67.2,121.8-58.7,188c17.8,140.3,201,92.6,293,143.4
			c167.8,92.6,346.9,35.3,522.9,14.4c23.7-2.7,47.3-5.5,70.3-10.3c43.9-9.3,85.4-26.4,126.9-43.2c2.4-1,4.8-2.1,7.2-3.1
			c42.2,37.7,102.9,51.1,165.7,10.6l59.4-38.4c30.2,3.1,61.8-2.4,91.9-18.5c94.3-50.4,181.1-113.2,261.1-184.3
			c2.7-2.4,5.1-5.1,7.9-7.9c76.9-27.1,154-51.8,232.6-72.4c52.1-13.7,108.8-28.5,141.7-71c14.4-18.9,22.6-42.2,24-66.2
			C2262,1544,2257.9,1523.1,2248.6,1504.6z"/>
		<g>
			<g>
				<g>
					<path class="st1" d="M481.7,1628.1c38.8,96.4,140.3,147.5,233.6,179.4c113.2,38.8,236.7,42.5,354.8,34.7
						c245-16.5,489.9-68.3,724.3-140.3c124.5-38.4,251.8-79.6,353-164c18.5-15.4,15.8-47,0-62.8c-18.2-18.2-44.6-15.4-62.8,0
						c-78.6,66.6-179.4,100.2-275.8,131.8c-110.8,36.4-223.7,66.9-337.6,92.6c-113.9,25.7-229.2,46.7-344.8,60.4
						c-113.2,13.4-230.2,19.2-342.4-5.1c-53.2-11.3-105-27.1-153.7-51.8c-48.7-24.7-95.7-53.2-144.1-79.3
						C484.4,1622.9,480.7,1625.3,481.7,1628.1L481.7,1628.1z"/>
				</g>
			</g>
			<g>
				<g>
					<path class="st1" d="M739.7,1016c16.8,2.4,27.8,2.4,43.6-5.1c15.8-7.5,30.9-15.1,46.3-23.7c27.8-15.1,55.9-29.5,84.4-42.9
						c56.6-27.1,114.9-50.4,175-69.3c116.6-36.7,238.8-56.3,361.3-48.4c116.6,7.5,231.9,42.2,329.7,107.1
						c85.8,57,155.4,136.6,206.5,226.1c30.5,53.5,52.5,104.3,70.3,163c8.9,29.2,16.5,58.3,22.3,88.2c6.5,32.3,9.6,54.6,12.4,85.4
						c2.1,24.4,19.6,45.6,45.6,45.6c22.6,0,48-20.9,45.6-45.6c-23.3-234.7-130.4-462.9-320.4-608
						c-208.6-159.5-496.4-178.8-742.1-105c-72,21.6-141.7,50.4-209.3,83.4c-33.6,16.5-66.9,34.3-99.5,53.2
						c-15.8,9.3-31.9,18.2-46.7,28.8c-8.2,6.2-18.5,11.7-25.7,19.2c-6.9,6.9-8.9,16.8-11.7,25.7
						C724.9,1002.6,730.8,1014.6,739.7,1016L739.7,1016z"/>
				</g>
			</g>
			<g>
				<g>
					<path class="st1" d="M2193,1472c31.9-7.2,53.5,35,49.1,61.8c-6.2,38.1-46.7,65.9-75.8,86.8c-17.5,12.4-35,25.4-52.5,37.7
						c-21.6,15.4-45.3,28.1-68.3,41.2c-42.5,24.7-88.2,44.9-132.4,65.9c-89.9,42.9-177.7,89.2-271.4,124.2
						c-92.6,34.3-186,66.2-281.3,92.3c-94.3,25.7-187,55.9-283,76.5c-95,20.2-192.1,36-289.2,39.8c-90.9,3.4-184.2-3.8-268.6-40.1
						c-74.8-32.3-128-83.4-165.4-151.7c-12.7-23.3-16.8-31.2-24-55.2c-3.1-10-5.5-20.2-7.5-30.2c-0.3-2.1-2.1-12.4-1-3.8
						c-1-6.2-1.4-12.7-1.7-19.2c-0.7-11.3-0.3-22.3,0.3-33.6c0-0.3,2.1-15.8,0.7-6.9c1-6.5,2.4-12.7,3.8-19.2
						c5.1-22.3,10.6-37.4,20.2-55.6c43.9-82.3,124.9-133.1,203.5-180.8c39.8-24,4.8-83-36.4-62.1c-83.7,43.2-167.8,97.8-225.4,173.6
						c-58.7,77.2-75.5,175-48.7,267.6c26.4,92,90.9,169.5,170.2,221.7c88.5,58.3,197.3,80.6,301.6,84.1c108.4,3.4,217.9-13,324.2-34
						c106-20.6,210.7-47.3,313.6-80.3c52.5-16.8,103.3-40.1,153.4-62.1c49.4-21.6,98.5-43.6,146.5-67.9
						c96.8-48.7,195.6-94.4,289.2-148.9c47-27.4,92.6-57,140-83.4c23.3-13,46.3-25.7,70.7-37.1c22.3-10.3,44.3-21.3,65.2-34.3
						c36.4-23,71-60.7,75.5-105.3c3.8-38.4-18.5-81.7-54.2-98.1c-18.5-8.6-37.1-6.9-55.6,1C2157,1445.5,2172.8,1476.8,2193,1472
						L2193,1472z"/>
				</g>
			</g>
			<g>
				<g>
					<path class="st1" d="M531.8,1603c11-8.9,12.4-22.3,16.1-35.3c3.4-12.4,5.5-25,8.2-37.7c5.5-26.1,12-52.2,19.6-77.9
						c14.4-49.8,30.9-99.2,50.8-147.2c19.6-46.7,41.5-92,61.8-137.9c10.3-23.3,19.6-47,29.5-70.7c9.6-23,17.8-49.4,31.2-70.3
						c14.4-22.3,0-53.5-24.4-60.4c-24.7-6.9-53.2,12.7-51.8,39.5c1.4,23.7-8.9,51.5-16.8,73.8c-7.9,22.6-17.8,44.9-27.4,66.9
						c-20.9,48-43.2,95.7-63.1,144.1c-20.2,49.4-37.4,99.8-49.4,152c-5.8,25-10.6,50.4-14.8,75.8c-3.8,22.6-14.1,60.7,0.7,81
						C509.5,1609.9,521.1,1611.6,531.8,1603L531.8,1603z"/>
				</g>
			</g>
			<g>
				<g>
					<path class="st1" d="M704,996.8c1.4,20.6,28.8,31.9,44.9,38.8c23.7,10,47,20.6,70.7,30.2c47.3,19.2,95.4,36,142.4,55.6
						c19.6,8.2,42.9-8.6,48-27.4c5.8-21.6-7.2-40.8-27.4-48c-49.4-17.5-99.8-37.1-151.3-49.1C815.5,993,701.6,959.7,704,996.8
						L704,996.8z"/>
				</g>
			</g>
			<g>
				<g>
					<path class="st1" d="M969.2,1082.2c-51.1,105.3-83,219.6-107.7,333.9c-12.4,57.3-23,114.9-31.6,172.9
						c-8.6,58.3-19.2,118.7-20.6,178.1c-0.3,18.2,14.4,34.3,32.3,36.4c16.1,2.1,38.4-8.2,40.8-26.8c7.9-58,10.6-116.7,18.9-175
						c7.5-55.9,17.2-111.5,28.5-167.1c23-112.9,54.2-223.7,78.9-335.9C1013.5,1076,980.2,1059.2,969.2,1082.2L969.2,1082.2z"/>
				</g>
			</g>
			<g>
				<g>
					<path class="st1" d="M990.1,1086.3c43.2-10.6,85.1-25.7,128-37.4c44.3-12,89.2-20.6,134.5-26.4c43.2-5.5,86.8-7.9,130-7.5
						c45.6,0.3,90.9,6.5,136.2,6.5c8.6,0,10.3-12.7,2.1-15.1c-43.2-12-90.2-13-135.2-13.4c-45.6,0-90.9,3.1-135.9,8.9
						c-45.3,6.2-89.9,15.1-133.8,27.1s-89.2,27.1-128,51.5C985,1082.5,986.7,1087,990.1,1086.3L990.1,1086.3z"/>
				</g>
			</g>
			<g>
				<g>
					<path class="st1" d="M1291.4,1742.3c2.4-21.6,5.5-43.2,6.9-64.8c1-17.8,6.2-38.4-5.8-52.8c-3.4-4.1-11.7-4.1-15.1,0
						c-12,14.4-6.9,35.3-5.8,52.8c1.4,21.6,4.5,43.2,6.9,64.8C1279.4,1750.6,1290.7,1750.6,1291.4,1742.3L1291.4,1742.3z"/>
				</g>
			</g>
			<g>
				<g>
					<path class="st1" d="M1283.5,1626.4c2.4,9.3,13,10.3,21.3,11.3c16.5,2.4,32.9,2.1,49.4,2.4c34,0.7,68.3,1,102.6,0.3
						c18.9-0.3,18.9-29.2,0-29.5c-36.4-0.3-72.7,0-109.1,0.7C1340.4,1612,1279,1609.6,1283.5,1626.4L1283.5,1626.4z"/>
				</g>
			</g>
			<g>
				<g>
					<path class="st1" d="M1458.5,1631.9c0.3,17.5,2.7,34.7,3.1,52.2c0.3,16.1-2.4,33.6,1.4,49.4c3.1,13.4,20.6,11,24.7,0
						c6.2-15.8,3.8-36.4,2.1-52.8c-1.7-17.2-4.1-35.3-10.3-51.8C1474.9,1618.8,1458.5,1619.5,1458.5,1631.9L1458.5,1631.9z"/>
				</g>
			</g>
			<g>
				<g>
					<path class="st1" d="M1791.9,1631.9c0.3-18.5-1.7-36.7-1.4-55.2c0-18.5,1.7-36.7,1.7-55.2c0-20.6-28.8-19.2-30.9,0
						c-4.1,36-3.4,78.6,4.1,114.3C1768.3,1651.1,1791.6,1647,1791.9,1631.9L1791.9,1631.9z"/>
				</g>
			</g>
			<g>
				<g>
					<path class="st1" d="M1770.7,1525.2c32.9,4.1,69-7.2,100.9-14.1c34-7.2,71.4-10.6,103.6-23c13.4-5.1,13-27.8-3.8-26.8
						c-34.7,2.1-70.3,14.1-104.3,21.6c-32.9,7.2-71.4,11.7-100.2,29.9C1761.1,1516.6,1764.2,1524.5,1770.7,1525.2L1770.7,1525.2z"/>
				</g>
			</g>
			<g>
				<g>
					<path class="st1" d="M1961.4,1474.4c-7.5,14.8-3.1,33.3-2.4,49.4c0.7,19.9-0.3,39.5-2.1,59c-1.7,19.6,29.2,19.6,30.5,0
						c1.7-20.6,1.7-41.5-0.3-62.1c-1.4-15.8-2.1-36-14.1-47.7C1969.7,1469.9,1963.5,1469.9,1961.4,1474.4L1961.4,1474.4z"/>
				</g>
			</g>
			<g>
				<g>
					<path class="st1" d="M1392.2,1183.1c32.6,2.4,67.9-9.3,99.8-14.1c34.7-5.5,69.6-9.3,104.6-11.7c34-2.4,67.9-3.1,101.9-3.1
						c17.5,0,35,0.7,52.5,1.4c15.8,0.7,33.6,4.8,48.7-0.3c8.2-2.7,11.3-15.4,2.7-19.9c-13.7-7.2-29.5-6.2-44.9-7.2
						c-18.5-1-37.4-1.7-55.9-1.7c-36-0.3-72.4,1.4-108.4,4.5c-34,2.7-67.6,7.2-101.2,12.7c-32.9,5.5-74.1,9.6-102.9,27.4
						C1383.3,1174.8,1386.1,1182.7,1392.2,1183.1L1392.2,1183.1z"/>
				</g>
			</g>
		</g>
		<g>
			<g>
				<path class="st1" d="M1008,1384.1c-1.4,37.4,4.8,75.5,10.3,112.5c5.5,38.4,13.4,76.2,21.6,113.9c5.1,23.3,41.5,13.4,36-10
					c-8.6-36.4-16.5-73.1-24.4-109.8c-7.9-36.4-13.7-73.8-25-109.1C1023.1,1371.4,1008.3,1373.5,1008,1384.1L1008,1384.1z"/>
			</g>
		</g>
		<g>
			<g>
				<path class="st1" d="M1048.1,1506.6c6.5-9.3,10.3-20.2,16.8-29.5c3.8-5.5,11.3-13,18.9-11.3c8.9,2.4,8.6,12.7,9.6,19.6
					c4.5,32.3,7.5,64.5,11.3,96.8c2.7,21.6,36,23,35,0c-1.4-27.8-5.8-56.6-12.4-83.4c-4.8-19.2-8.2-47-28.1-57
					c-16.5-7.9-37.1-1.7-49.1,11c-14.1,15.4-16.1,33.3-11.3,52.2C1039.9,1510.1,1045.7,1510.1,1048.1,1506.6L1048.1,1506.6z"/>
			</g>
		</g>
		<g>
			<g>
				<g>
					<path class="st1" d="M1154.8,1413.3c14.8,1.7,31.6-11.7,45.3-17.2c7.9-3.1,16.1-5.1,24.4-7.2c4.1-1,10.3-1,13.7-2.7
						c3.1-0.3,3.4-0.3,0.3-0.7c-3.8-1.4-4.5,0.7-2.1,6.5c-2.7,19.6,1,41.5,1,61.1c0.3,22.6,0,45.3-0.3,67.9c0,24.7,39.5,24.7,38.4,0
						c-1.4-31.6-3.1-63.5-3.8-95c-0.7-20.2,5.8-55.2-13-69c-17.2-12.7-46-1-63.1,6.2c-17.8,7.5-46.3,20.6-48.7,42.2
						C1146.3,1409.9,1150.7,1412.6,1154.8,1413.3L1154.8,1413.3z"/>
				</g>
			</g>
			<g>
				<g>
					<path class="st1" d="M1253.3,1434.2c-6.9-23.3-33.3-27.1-53.9-19.9c-27.4,10-38.8,40.1-41.5,66.9c-2.7,25.7,3.1,58.7,31.2,67.9
						c28.1,9.3,60-19.9,74.8-41.2c12.4-18.2-13.4-32.9-27.8-21.6c-5.8,4.8-11,10.3-16.8,15.1c-2.4,2.1-11,10.3-14.8,10.3
						c-12-0.3-8.6-25-7.5-32.9c3.8-25.7,22-42.2,48.7-36.4C1249.9,1442.8,1254.7,1439,1253.3,1434.2L1253.3,1434.2z"/>
				</g>
			</g>
		</g>
		<g>
			<g>
				<g>
					<path class="st1" d="M1308.2,1346.7c-12.7,19.9-6.2,54.2-4.8,76.9c1,13,2.1,26.1,3.4,39.1c1.4,14.1,1.4,28.5,8.6,40.8
						c6.9,11.7,26.8,10.3,30.2-3.8c2.7-12.4,0-22.6-2.1-35.3c-2.4-14.8-4.5-29.5-6.2-44.3c-1.7-13-3.1-26.1-4.5-39.5
						c-1.4-12-1.4-24-8.9-34C1319.9,1341.2,1312.3,1340.6,1308.2,1346.7L1308.2,1346.7z"/>
				</g>
			</g>
			<g>
				<g>
					<path class="st1" d="M1325.7,1399.9c3.8-3.8,7.9-6.2,11-11c4.1-5.8,7.2-11.3,12-16.5c5.5-5.8,16.5-17.8,24.4-10.6
						c14.4,13.4,40.8-4.5,28.5-22c-15.8-22.3-43.9-18.2-62.1-1.4c-8.2,7.5-14.8,17.2-19.6,27.1c-5.5,12-6.5,20.2-2.1,32.6
						C1318.8,1400.9,1322.9,1402.3,1325.7,1399.9L1325.7,1399.9z"/>
				</g>
			</g>
		</g>
		<g>
			<g>
				<g>
					<path class="st1" d="M1507.5,1338.2c-9.6-22.3-39.5-20.2-55.6-6.9c-20.9,17.2-30.2,51.5-31.2,77.5
						c-0.7,23.7,11.7,49.1,35.3,56.6c25.4,8.2,45.3-9.6,58.7-29.5c9.9-14.8-12.4-31.9-24.7-19.2c-5.1,5.5-13.7,17.2-22.6,15.4
						c-12.4-2.4-12.4-21.3-11-29.9c1.7-11.3,5.5-24.7,10.6-35c6.9-14.1,14.1-15.4,28.1-13.4
						C1505.1,1356,1511.6,1347.4,1507.5,1338.2L1507.5,1338.2z"/>
				</g>
			</g>
			<g>
				<g>
					<path class="st1" d="M1492.1,1229c-5.5,15.8-3.8,34.3-4.1,50.8c0,18.2,0.7,36.4,1.4,54.2c1.4,36,4.1,72.4,7.2,108.4
						c2.1,21.6,36,22,34.3,0c-3.1-36-5.1-72.4-6.9-108.4c-0.7-18.2-1.4-36.4-2.1-54.2c-0.7-16.5,0.3-35-5.1-50.8
						C1512.7,1217,1496.2,1217,1492.1,1229L1492.1,1229z"/>
				</g>
			</g>
		</g>
	</g>
</g>
</svg>
