<?xml version="1.0" encoding="utf-8"?>
<!-- Generator: Adobe Illustrator 23.1.1, SVG Export Plug-In . SVG Version: 6.00 Build 0)  -->
<svg version="1.1" id="Layer_1" xmlns="http://www.w3.org/2000/svg" xmlns:xlink="http://www.w3.org/1999/xlink" x="0px" y="0px"
	 viewBox="0 0 735 852" style="enable-background:new 0 0 735 852;" xml:space="preserve">
<style type="text/css">
	.st0{fill:#FDFCBB;}
	.st1{fill:#134F85;}
	.st2{fill:#FFF200;}
</style>
<polygon class="st0" points="715.1,224.7 367.5,24 367.5,24 19.8,224.7 19.8,626.2 367.5,826.9 715.1,626.2 "/>
<title>rvest</title>
<path class="st1" d="M734.9,637.4V213.1l-29.3-16.9L427.8,35.8L367.5,1l-60.3,34.8L29.4,196.2L0.1,213.1v424.2l29.3,16.9
	l281.3,162.4l56.9,32.8l56.9-32.8l281.3-162.4L734.9,637.4z M29.4,621.5V231l50.3-29L367.5,35.8l0,0l288.6,166.6l49.5,28.6v390.5
	L367.5,816.7L29.4,621.5z"/>
<path class="st1" d="M365.5,797.3l4.5,4.5c1,1,1.9,1.9,2.7,2.9h0.1c-0.4-1.2-0.7-2.5-1-3.8l-1.4-6.3l1.6-0.9l4.7,4.3
	c1.1,1,2.1,2,2.9,2.9h0.1c-0.5-1.3-0.9-2.5-1.2-3.8l-1.6-6.1l1.9-1.1l2.7,12.3l-1.7,1l-4.5-4.1c-1-0.9-2-1.9-2.9-2.9l0,0
	c0.4,1.3,0.8,2.6,1.1,4l1.2,6l-1.7,1l-9.2-8.6L365.5,797.3z"/>
<path class="st1" d="M381.6,787.9l4.5,4.5c1,1,1.9,1.9,2.7,2.9h0.1c-0.4-1.2-0.7-2.5-1-3.8l-1.4-6.3l1.6-0.9l4.7,4.3
	c1.1,1,2.1,2,2.9,2.9h0.1c-0.5-1.3-0.8-2.6-1.2-3.9l-1.6-6.2l1.9-1.1l2.7,12.4l-1.7,1l-4.5-4.1c-1-0.9-2-1.9-2.9-2.9l0,0
	c0.4,1.3,0.8,2.6,1.1,4l1.2,6l-1.7,1l-9.3-8.6L381.6,787.9z"/>
<path class="st1" d="M397.8,778.5l4.5,4.5c1,1,1.9,1.9,2.7,2.9h0.1c-0.4-1.2-0.7-2.5-1-3.8l-1.4-6.3l1.6-0.9l4.7,4.3
	c1.1,1,2.1,2,2.9,2.9h0.1c-0.5-1.3-0.8-2.6-1.2-3.9l-1.6-6.1l1.9-1.1l2.7,12.4l-1.7,1l-4.5-4.1c-1-0.9-2-1.9-2.9-2.9l0,0
	c0.4,1.3,0.8,2.6,1.1,4l1.2,6l-1.7,1l-9.2-8.6L397.8,778.5z"/>
<path class="st1" d="M417.1,779.7c-0.5-0.7-0.3-1.6,0.4-2.1c0,0,0.1,0,0.1-0.1c0.8-0.4,1.7-0.1,2.1,0.7c0.3,0.7,0.1,1.6-0.6,2
	C418.4,780.8,417.5,780.5,417.1,779.7C417.1,779.8,417.1,779.8,417.1,779.7z"/>
<path class="st1" d="M418.5,770.8c-0.7-1.2-1.4-2.3-2-3.2l1.7-1l1.3,2h0.1c-0.4-1.5,0.2-3.2,1.6-4c0.2-0.1,0.4-0.2,0.6-0.2l1,1.8
	c-0.2,0.1-0.5,0.2-0.7,0.3c-1.3,0.8-1.8,2.5-1.1,3.9c0.1,0.3,0.3,0.6,0.4,0.9l3.2,5.6l-1.8,1.1L418.5,770.8z"/>
<path class="st1" d="M428.3,772.1c1,0,2-0.2,2.9-0.7c1.4-0.8,1.6-1.9,1.1-2.7s-1.4-1.1-3.1-0.8c-2.3,0.4-3.8-0.1-4.5-1.3
	c-1-1.7-0.4-3.8,1.8-5.2c0.9-0.5,1.9-0.8,2.9-0.8l0.3,1.7c-0.9,0-1.7,0.2-2.5,0.6c-0.9,0.4-1.3,1.4-1,2.3c0,0,0,0.1,0.1,0.1
	c0.5,0.9,1.4,0.9,3,0.6c2.2-0.4,3.7,0,4.6,1.5c1.1,1.8,0.4,4-2.1,5.4c-1,0.6-2.2,1-3.4,1L428.3,772.1z"/>
<path class="st1" d="M432.7,754.1l1.7,3l2.7-1.6l0.8,1.5l-2.7,1.6l3.3,5.6c0.8,1.3,1.5,1.8,2.6,1.2c0.4-0.2,0.7-0.5,1-0.8l0.9,1.4
	c-0.4,0.5-1,0.9-1.5,1.2c-0.7,0.5-1.7,0.6-2.5,0.4c-1-0.4-1.9-1.3-2.3-2.3l-3.3-5.7l-1.6,0.9L431,759l1.6-0.9l-1.5-2.5L432.7,754.1z
	"/>
<path class="st1" d="M452.5,756.8c0.6,1.1,1.2,2,1.8,2.8l-1.7,1l-1.1-1.6l0,0c0,1.7-0.9,3.2-2.3,4c-1.6,1-4.1,1.2-6.3-2.5l-3.6-6.1
	l1.9-1.1l3.4,5.8c1.2,2,2.5,3,4.3,2c1.1-0.7,1.7-1.9,1.5-3.2c-0.1-0.4-0.2-0.7-0.4-1.1l-3.7-6.4l1.9-1.1L452.5,756.8z"/>
<path class="st1" d="M457.4,737.2l7.4,12.6c0.5,0.9,1.2,2,1.7,2.7l-1.7,1l-1.1-1.8l0,0c0.1,1.7-0.9,3.3-2.4,4.1
	c-2.5,1.5-5.7,0.5-7.6-2.7c-2-3.5-1.1-6.9,1.4-8.3c1.2-0.8,2.8-0.9,4.1-0.2l0,0l-3.6-6.2L457.4,737.2z M460.8,747.5
	c-0.1-0.3-0.3-0.5-0.5-0.8c-1-1.1-2.7-1.4-4-0.6c-2,1.1-2.1,3.5-0.8,5.9c1.2,2.1,3.3,3.3,5.3,2.1c1.3-0.8,2-2.4,1.5-3.9
	c-0.1-0.3-0.2-0.6-0.4-0.9L460.8,747.5z"/>
<path class="st1" d="M463.8,736.1c0.4,0.6,0.2,1.5-0.5,1.9c-0.6,0.4-1.5,0.2-1.9-0.5c-0.4-0.6-0.2-1.5,0.4-1.8c0,0,0,0,0.1,0
	C462.6,735.2,463.4,735.4,463.8,736.1C463.8,736,463.8,736,463.8,736.1z M469.5,750.7l-6.1-10.5l1.9-1.1l6.1,10.5L469.5,750.7z"/>
<path class="st1" d="M480.9,736.9c2.2,3.9,0.6,7.1-2,8.6c-2.8,1.6-6.2,0.8-8.1-2.5c-2-3.5-1-6.9,2-8.6S479.1,733.8,480.9,736.9z
	 M472.7,741.9c1.3,2.3,3.7,3.2,5.5,2.2s2.2-3.6,0.8-5.9c-1-1.8-3.2-3.5-5.5-2.2S471.5,739.9,472.7,741.9L472.7,741.9z"/>
<path class="st1" d="M484.8,740.3c-0.5-0.7-0.3-1.6,0.4-2.1c0,0,0.1,0,0.1-0.1c0.8-0.4,1.7,0,2.1,0.8c0.3,0.7,0.1,1.5-0.5,2
	c-0.7,0.4-1.6,0.2-2-0.5C484.8,740.4,484.8,740.3,484.8,740.3z"/>
<path class="st1" d="M497.6,733.8c-0.7,1-1.6,1.8-2.6,2.3c-3.2,1.8-6.5,0.9-8.3-2.3c-1.8-2.8-1-6.6,1.8-8.5c0.2-0.1,0.4-0.2,0.6-0.3
	c0.9-0.6,1.9-0.9,3-1l0.4,1.7c-0.9,0-1.7,0.3-2.5,0.8c-2.4,1.4-2.7,3.9-1.4,6.1c1.4,2.4,3.8,3,5.9,1.8c0.8-0.5,1.5-1.1,2-1.9
	L497.6,733.8z"/>
<path class="st1" d="M506.3,722.2c2.2,3.9,0.5,7.1-2,8.6c-2.8,1.6-6.2,0.8-8.1-2.5c-2-3.5-0.9-6.9,2-8.6S504.4,719,506.3,722.2z
	 M498.1,727.1c1.3,2.3,3.7,3.2,5.5,2.2s2.2-3.5,0.8-5.9c-1-1.8-3.2-3.5-5.5-2.2S496.9,725.1,498.1,727.1z"/>
<path class="st1" d="M507.4,718.5c-0.6-1.1-1.2-2-1.7-2.8l1.7-1l1.1,1.6h0.1c-0.1-1.6,0.8-3.1,2.2-3.8c1.3-0.8,3-0.6,4.2,0.4l0,0
	c0-0.7,0.1-1.4,0.4-2c0.4-0.9,1-1.6,1.9-2.1c1.4-0.8,4-1.1,6.1,2.5l3.6,6.2l-1.8,1.1l-3.5-5.9c-1.2-2-2.6-2.8-4.1-1.9
	c-1,0.6-1.5,1.8-1.2,3c0.1,0.4,0.2,0.7,0.4,1l3.8,6.5l-1.9,1.1l-3.6-6.3c-1-1.7-2.4-2.5-3.9-1.6c-1.3,1-1.7,2.8-0.9,4.3l3.7,6.3
	l-1.9,1.1L507.4,718.5z"/>
<g>
	<g>
		<g>
			<g>
				<path class="st1" d="M460.3,354.7c-3.3,19.6-0.9,40.8,1.1,60.4c0.7,7,11.7,6.9,10.9,0c-1.2-10.2-2.2-20.5-3.2-30.8
					c-1-9.9-1.4-20-3.5-29.7C465.1,352.2,460.7,352.1,460.3,354.7L460.3,354.7z"/>
			</g>
		</g>
		<g>
			<g>
				<path class="st1" d="M467.3,389c2.3-2.4,3.7-5.5,6-7.8c1.1-1.1,2.9-2.3,4.5-1.7c2,0.7,1.5,3.4,1.6,5.1c0.2,8.8-0.1,17.6,0,26.3
					c0.1,6.6,9.7,6.5,10.2,0c0.5-7.6,0.1-15.4-0.9-22.9c-0.7-5.3-0.9-12.4-6.1-15.4c-3.9-2.3-9.2-1.5-12.7,1.2
					c-4.8,3.7-6,8.8-5.1,14.3C464.9,389.5,466.5,389.7,467.3,389L467.3,389z"/>
			</g>
		</g>
	</g>
	<g>
		<g>
			<g>
				<path class="st1" d="M503.5,378.2c3.4,1.3,7.4-1.1,10.7-2c2.2-0.6,4.5-1,6.8-1.2c1.1-0.1,2.2-0.2,3.3-0.2
					c-1.3-1.2-1.8-1.2-1.6,0.2c-0.9,1.2-0.5,5.4-0.7,7c-0.3,2.7-0.5,5.3-0.8,8c-0.6,5.3-1.3,10.6-2,15.9c-0.9,7,10.7,7.3,11.2,0
					c0.5-7.6,0.9-15.3,1.6-22.9c0.5-5.2,2.8-13.3-2.5-16.9c-4.2-2.9-11.8-0.8-16.1,0.7c-4.4,1.5-10.9,4-11.5,9.2
					C501.7,377,502.6,377.9,503.5,378.2L503.5,378.2z"/>
			</g>
		</g>
		<g>
			<g>
				<path class="st1" d="M526.7,385.6c-0.2-6.2-7-8.5-12.4-7.4c-6.5,1.4-10.5,7.3-12.2,13.3c-1.9,6.5-2.1,15.4,4.6,19.4
					c6.8,4.1,15.9-1.7,20.4-6.9c3.7-4.3-1-11.3-6.3-8.1c-1.7,1-5.9,5.2-8,5.1c-1.5-0.1,0.1-6.5,0.5-7.6c1.8-5,5.9-6.9,11-6
					C525.5,387.6,526.8,386.9,526.7,385.6L526.7,385.6z"/>
			</g>
		</g>
	</g>
	<g>
		<g>
			<g>
				<path class="st1" d="M542.7,374.3c4.2,1.6,9.3,0.7,13.7,0.5c4.6-0.2,9.7,0.2,14-1.3c4.3-1.5,5.3-8.7,0-9.8c-4.9-1-10,0.1-15,0.6
					c-4.6,0.5-9.6,0.5-13.7,2.7C538.6,368.8,539.7,373.2,542.7,374.3L542.7,374.3z"/>
			</g>
		</g>
		<g>
			<g>
				<path class="st1" d="M554.1,356.6c-3.8,11.1-4.4,23.4-4.4,35c0,4.7,0.1,9.8,3.8,13.1c3.7,3.3,8.6,3.4,12.3,0.2
					c4.1-3.7-0.4-9.3-4.9-8.5c-0.8,0.1,0.2-35.7,0.1-38.9C560.9,353.4,555.4,352.9,554.1,356.6L554.1,356.6z"/>
			</g>
		</g>
	</g>
	<path class="st2" d="M655.5,439.5c-9-17.4-32.2-22.1-50.1-22.3c0.8-2.6,1.3-5.3,1.6-7.9c-3.7,1.2-7.7,1.9-12.2,2
		c-94.6,0.7-191.5,23.8-275.1,68.4c-5.9,3.1-11.6,4.6-17.1,4.7c-16.2-13.3-24.2-39.1-30.6-61.4c-0.8-2.7-1.8-5.2-2.9-7.5
		c1.6-2.5,3.5-4.8,5.9-6.7C363,337.7,466.8,347,573,347c41.9,0,9.3-7.3-3.9-8.9c8.6-0.4,17.1-0.7,25.7-0.8c1.2,0,2.3,0.1,3.4,0.1
		c2.7-12.4,0.2-28-10-36c-15.9-12.5-33-22.8-51-30.9c-3.6-12.3-13.1-22.3-26.7-26.8C460.7,227.1,407,222.6,355,229.4
		c-33.3,4.4-104.7,15-126.4,44.9c-7.9,10.9-7.6,25.2-13.9,37c-5.7,10.6-15.4,19.1-23.1,28.2c-19.9,23.2-35.1,50-50.2,76.6
		c-3.7,6.4-7.3,12.9-11,19.3c-4.2,7.5-8.5,15-12.7,22.4c-8.6,15.1-17.1,30.2-25.7,45.3c-9.6,17-19.6,35.5-17.1,54.8
		c5.2,40.9,58.6,27,85.4,41.8c48.9,27,101.1,10.3,152.4,4.2c6.9-0.8,13.8-1.6,20.5-3c12.8-2.7,24.9-7.7,37-12.6
		c0.7-0.3,1.4-0.6,2.1-0.9c12.3,11,30,14.9,48.3,3.1l17.3-11.2c8.8,0.9,18-0.7,26.8-5.4c27.5-14.7,52.8-33,76.1-53.7
		c0.8-0.7,1.5-1.5,2.3-2.3c22.4-7.9,44.9-15.1,67.8-21.1c15.2-4,31.7-8.3,41.3-20.7c4.2-5.5,6.6-12.3,7-19.3
		C659.4,451,658.2,444.9,655.5,439.5z"/>
	<g>
		<g>
			<g>
				<path class="st1" d="M140.5,475.5c11.3,28.1,40.9,43,68.1,52.3c33,11.3,69,12.4,103.4,10.1c71.4-4.8,142.8-19.9,211.1-40.9
					c36.3-11.2,73.4-23.2,102.9-47.8c5.4-4.5,4.6-13.7,0-18.3c-5.3-5.3-13-4.5-18.3,0c-22.9,19.4-52.3,29.2-80.4,38.4
					c-32.3,10.6-65.2,19.5-98.4,27c-33.2,7.5-66.8,13.6-100.5,17.6c-33,3.9-67.1,5.6-99.8-1.5c-15.5-3.3-30.6-7.9-44.8-15.1
					c-14.2-7.2-27.9-15.5-42-23.1C141.3,474,140.2,474.7,140.5,475.5L140.5,475.5z"/>
			</g>
		</g>
		<g>
			<g>
				<path class="st1" d="M215.7,297.1c4.9,0.7,8.1,0.7,12.7-1.5c4.6-2.2,9-4.4,13.5-6.9c8.1-4.4,16.3-8.6,24.6-12.5
					c16.5-7.9,33.5-14.7,51-20.2c34-10.7,69.6-16.4,105.3-14.1c34,2.2,67.6,12.3,96.1,31.2c25,16.6,45.3,39.8,60.2,65.9
					c8.9,15.6,15.3,30.4,20.5,47.5c2.6,8.5,4.8,17,6.5,25.7c1.9,9.4,2.8,15.9,3.6,24.9c0.6,7.1,5.7,13.3,13.3,13.3
					c6.6,0,14-6.1,13.3-13.3c-6.8-68.4-38-134.9-93.4-177.2c-60.8-46.5-144.7-52.1-216.3-30.6c-21,6.3-41.3,14.7-61,24.3
					c-9.8,4.8-19.5,10-29,15.5c-4.6,2.7-9.3,5.3-13.6,8.4c-2.4,1.8-5.4,3.4-7.5,5.6c-2,2-2.6,4.9-3.4,7.5
					C211.4,293.2,213.1,296.7,215.7,297.1L215.7,297.1z"/>
			</g>
		</g>
		<g>
			<g>
				<path class="st1" d="M639.3,430c9.3-2.1,15.6,10.2,14.3,18c-1.8,11.1-13.6,19.2-22.1,25.3c-5.1,3.6-10.2,7.4-15.3,11
					c-6.3,4.5-13.2,8.2-19.9,12c-12.4,7.2-25.7,13.1-38.6,19.2c-26.2,12.5-51.8,26-79.1,36.2c-27,10-54.2,19.3-82,26.9
					c-27.5,7.5-54.5,16.3-82.5,22.3c-27.7,5.9-56,10.5-84.3,11.6c-26.5,1-53.7-1.1-78.3-11.7c-21.8-9.4-37.3-24.3-48.2-44.2
					c-3.7-6.8-4.9-9.1-7-16.1c-0.9-2.9-1.6-5.9-2.2-8.8c-0.1-0.6-0.6-3.6-0.3-1.1c-0.3-1.8-0.4-3.7-0.5-5.6
					c-0.2-3.3-0.1-6.5,0.1-9.8c0-0.1,0.6-4.6,0.2-2c0.3-1.9,0.7-3.7,1.1-5.6c1.5-6.5,3.1-10.9,5.9-16.2c12.8-24,36.4-38.8,59.3-52.7
					c11.6-7,1.4-24.2-10.6-18.1c-24.4,12.6-48.9,28.5-65.7,50.6c-17.1,22.5-22,51-14.2,78c7.7,26.8,26.5,49.4,49.6,64.6
					c25.8,17,57.5,23.5,87.9,24.5c31.6,1,63.5-3.8,94.5-9.9c30.9-6,61.4-13.8,91.4-23.4c15.3-4.9,30.1-11.7,44.7-18.1
					c14.4-6.3,28.7-12.7,42.7-19.8c28.2-14.2,57-27.5,84.3-43.4c13.7-8,27-16.6,40.8-24.3c6.8-3.8,13.5-7.5,20.6-10.8
					c6.5-3,12.9-6.2,19-10c10.6-6.7,20.7-17.7,22-30.7c1.1-11.2-5.4-23.8-15.8-28.6c-5.4-2.5-10.8-2-16.2,0.3
					C628.8,422.3,633.4,431.4,639.3,430L639.3,430z"/>
			</g>
		</g>
		<g>
			<g>
				<path class="st1" d="M155.1,468.2c3.2-2.6,3.6-6.5,4.7-10.3c1-3.6,1.6-7.3,2.4-11c1.6-7.6,3.5-15.2,5.7-22.7
					c4.2-14.5,9-28.9,14.8-42.9c5.7-13.6,12.1-26.8,18-40.2c3-6.8,5.7-13.7,8.6-20.6c2.8-6.7,5.2-14.4,9.1-20.5
					c4.2-6.5,0-15.6-7.1-17.6c-7.2-2-15.5,3.7-15.1,11.5c0.4,6.9-2.6,15-4.9,21.5c-2.3,6.6-5.2,13.1-8,19.5
					c-6.1,14-12.6,27.9-18.4,42c-5.9,14.4-10.9,29.1-14.4,44.3c-1.7,7.3-3.1,14.7-4.3,22.1c-1.1,6.6-4.1,17.7,0.2,23.6
					C148.6,470.2,152,470.7,155.1,468.2L155.1,468.2z"/>
			</g>
		</g>
		<g>
			<g>
				<path class="st1" d="M205.3,291.5c0.4,6,8.4,9.3,13.1,11.3c6.9,2.9,13.7,6,20.6,8.8c13.8,5.6,27.8,10.5,41.5,16.2
					c5.7,2.4,12.5-2.5,14-8c1.7-6.3-2.1-11.9-8-14c-14.4-5.1-29.1-10.8-44.1-14.3C237.8,290.4,204.6,280.7,205.3,291.5L205.3,291.5z
					"/>
			</g>
		</g>
		<g>
			<g>
				<path class="st1" d="M282.6,316.4c-14.9,30.7-24.2,64-31.4,97.3c-3.6,16.7-6.7,33.5-9.2,50.4c-2.5,17-5.6,34.6-6,51.9
					c-0.1,5.3,4.2,10,9.4,10.6c4.7,0.6,11.2-2.4,11.9-7.8c2.3-16.9,3.1-34,5.5-51c2.2-16.3,5-32.5,8.3-48.7
					c6.7-32.9,15.8-65.2,23-97.9C295.5,314.6,285.8,309.7,282.6,316.4L282.6,316.4z"/>
			</g>
		</g>
		<g>
			<g>
				<path class="st1" d="M288.7,317.6c12.6-3.1,24.8-7.5,37.3-10.9c12.9-3.5,26-6,39.2-7.7c12.6-1.6,25.3-2.3,37.9-2.2
					c13.3,0.1,26.5,1.9,39.7,1.9c2.5,0,3-3.7,0.6-4.4c-12.6-3.5-26.3-3.8-39.4-3.9c-13.3,0-26.5,0.9-39.6,2.6
					c-13.2,1.8-26.2,4.4-39,7.9c-12.8,3.5-26,7.9-37.3,15C287.2,316.5,287.7,317.8,288.7,317.6L288.7,317.6z"/>
			</g>
		</g>
		<g>
			<g>
				<path class="st1" d="M376.5,508.8c0.7-6.3,1.6-12.6,2-18.9c0.3-5.2,1.8-11.2-1.7-15.4c-1-1.2-3.4-1.2-4.4,0
					c-3.5,4.2-2,10.3-1.7,15.4c0.4,6.3,1.3,12.6,2,18.9C373,511.2,376.3,511.2,376.5,508.8L376.5,508.8z"/>
			</g>
		</g>
		<g>
			<g>
				<path class="st1" d="M374.2,475c0.7,2.7,3.8,3,6.2,3.3c4.8,0.7,9.6,0.6,14.4,0.7c9.9,0.2,19.9,0.3,29.9,0.1
					c5.5-0.1,5.5-8.5,0-8.6c-10.6-0.1-21.2,0-31.8,0.2C390.8,470.8,372.9,470.1,374.2,475L374.2,475z"/>
			</g>
		</g>
		<g>
			<g>
				<path class="st1" d="M425.2,476.6c0.1,5.1,0.8,10.1,0.9,15.2c0.1,4.7-0.7,9.8,0.4,14.4c0.9,3.9,6,3.2,7.2,0
					c1.8-4.6,1.1-10.6,0.6-15.4c-0.5-5-1.2-10.3-3-15.1C430,472.8,425.2,473,425.2,476.6L425.2,476.6z"/>
			</g>
		</g>
		<g>
			<g>
				<path class="st1" d="M522.4,476.6c0.1-5.4-0.5-10.7-0.4-16.1c0-5.4,0.5-10.7,0.5-16.1c0-6-8.4-5.6-9,0
					c-1.2,10.5-1,22.9,1.2,33.3C515.5,482.2,522.3,481,522.4,476.6L522.4,476.6z"/>
			</g>
		</g>
		<g>
			<g>
				<path class="st1" d="M516.2,445.5c9.6,1.2,20.1-2.1,29.4-4.1c9.9-2.1,20.8-3.1,30.2-6.7c3.9-1.5,3.8-8.1-1.1-7.8
					c-10.1,0.6-20.5,4.1-30.4,6.3c-9.6,2.1-20.8,3.4-29.2,8.7C513.4,443,514.3,445.3,516.2,445.5L516.2,445.5z"/>
			</g>
		</g>
		<g>
			<g>
				<path class="st1" d="M571.8,430.7c-2.2,4.3-0.9,9.7-0.7,14.4c0.2,5.8-0.1,11.5-0.6,17.2c-0.5,5.7,8.5,5.7,8.9,0
					c0.5-6,0.5-12.1-0.1-18.1c-0.4-4.6-0.6-10.5-4.1-13.9C574.2,429.4,572.4,429.4,571.8,430.7L571.8,430.7z"/>
			</g>
		</g>
		<g>
			<g>
				<path class="st1" d="M405.9,345.8c9.5,0.7,19.8-2.7,29.1-4.1c10.1-1.6,20.3-2.7,30.5-3.4c9.9-0.7,19.8-0.9,29.7-0.9
					c5.1,0,10.2,0.2,15.3,0.4c4.6,0.2,9.8,1.4,14.2-0.1c2.4-0.8,3.3-4.5,0.8-5.8c-4-2.1-8.6-1.8-13.1-2.1
					c-5.4-0.3-10.9-0.5-16.3-0.5c-10.5-0.1-21.1,0.4-31.6,1.3c-9.9,0.8-19.7,2.1-29.5,3.7c-9.6,1.6-21.6,2.8-30,8
					C403.3,343.4,404.1,345.7,405.9,345.8L405.9,345.8z"/>
			</g>
		</g>
	</g>
	<g>
		<g>
			<path class="st1" d="M293.9,404.4c-0.4,10.9,1.4,22,3,32.8c1.6,11.2,3.9,22.2,6.3,33.2c1.5,6.8,12.1,3.9,10.5-2.9
				c-2.5-10.6-4.8-21.3-7.1-32c-2.3-10.6-4-21.5-7.3-31.8C298.3,400.7,294,401.3,293.9,404.4L293.9,404.4z"/>
		</g>
	</g>
	<g>
		<g>
			<path class="st1" d="M305.6,440.1c1.9-2.7,3-5.9,4.9-8.6c1.1-1.6,3.3-3.8,5.5-3.3c2.6,0.7,2.5,3.7,2.8,5.7
				c1.3,9.4,2.2,18.8,3.3,28.2c0.8,6.3,10.5,6.7,10.2,0c-0.4-8.1-1.7-16.5-3.6-24.3c-1.4-5.6-2.4-13.7-8.2-16.6
				c-4.8-2.3-10.8-0.5-14.3,3.2c-4.1,4.5-4.7,9.7-3.3,15.2C303.2,441.1,304.9,441.1,305.6,440.1L305.6,440.1z"/>
		</g>
	</g>
	<g>
		<g>
			<g>
				<path class="st1" d="M336.7,412.9c4.3,0.5,9.2-3.4,13.2-5c2.3-0.9,4.7-1.5,7.1-2.1c1.2-0.3,3-0.3,4-0.8c0.9-0.1,1-0.1,0.1-0.2
					c-1.1-0.4-1.3,0.2-0.6,1.9c-0.8,5.7,0.3,12.1,0.3,17.8c0.1,6.6,0,13.2-0.1,19.8c0,7.2,11.5,7.2,11.2,0
					c-0.4-9.2-0.9-18.5-1.1-27.7c-0.2-5.9,1.7-16.1-3.8-20.1c-5-3.7-13.4-0.3-18.4,1.8c-5.2,2.2-13.5,6-14.2,12.3
					C334.2,411.9,335.5,412.7,336.7,412.9L336.7,412.9z"/>
			</g>
		</g>
		<g>
			<g>
				<path class="st1" d="M365.4,419c-2-6.8-9.7-7.9-15.7-5.8c-8,2.9-11.3,11.7-12.1,19.5c-0.8,7.5,0.9,17.1,9.1,19.8
					c8.2,2.7,17.5-5.8,21.8-12c3.6-5.3-3.9-9.6-8.1-6.3c-1.7,1.4-3.2,3-4.9,4.4c-0.7,0.6-3.2,3-4.3,3c-3.5-0.1-2.5-7.3-2.2-9.6
					c1.1-7.5,6.4-12.3,14.2-10.6C364.4,421.5,365.8,420.4,365.4,419L365.4,419z"/>
			</g>
		</g>
	</g>
	<g>
		<g>
			<g>
				<path class="st1" d="M381.4,393.5c-3.7,5.8-1.8,15.8-1.4,22.4c0.3,3.8,0.6,7.6,1,11.4c0.4,4.1,0.4,8.3,2.5,11.9
					c2,3.4,7.8,3,8.8-1.1c0.8-3.6,0-6.6-0.6-10.3c-0.7-4.3-1.3-8.6-1.8-12.9c-0.5-3.8-0.9-7.6-1.3-11.5c-0.4-3.5-0.4-7-2.6-9.9
					C384.8,391.9,382.6,391.7,381.4,393.5L381.4,393.5z"/>
			</g>
		</g>
		<g>
			<g>
				<path class="st1" d="M386.5,409c1.1-1.1,2.3-1.8,3.2-3.2c1.2-1.7,2.1-3.3,3.5-4.8c1.6-1.7,4.8-5.2,7.1-3.1
					c4.2,3.9,11.9-1.3,8.3-6.4c-4.6-6.5-12.8-5.3-18.1-0.4c-2.4,2.2-4.3,5-5.7,7.9c-1.6,3.5-1.9,5.9-0.6,9.5
					C384.5,409.3,385.7,409.7,386.5,409L386.5,409z"/>
			</g>
		</g>
	</g>
	<g>
		<g>
			<g>
				<path class="st1" d="M439.5,391c-2.8-6.5-11.5-5.9-16.2-2c-6.1,5-8.8,15-9.1,22.6c-0.2,6.9,3.4,14.3,10.3,16.5
					c7.4,2.4,13.2-2.8,17.1-8.6c2.9-4.3-3.6-9.3-7.2-5.6c-1.5,1.6-4,5-6.6,4.5c-3.6-0.7-3.6-6.2-3.2-8.7c0.5-3.3,1.6-7.2,3.1-10.2
					c2-4.1,4.1-4.5,8.2-3.9C438.8,396.2,440.7,393.7,439.5,391L439.5,391z"/>
			</g>
		</g>
		<g>
			<g>
				<path class="st1" d="M435,359.2c-1.6,4.6-1.1,10-1.2,14.8c0,5.3,0.2,10.6,0.4,15.8c0.4,10.5,1.2,21.1,2.1,31.6
					c0.6,6.3,10.5,6.4,10,0c-0.9-10.5-1.5-21.1-2-31.6c-0.2-5.3-0.4-10.6-0.6-15.8c-0.2-4.8,0.1-10.2-1.5-14.8
					C441,355.7,436.2,355.7,435,359.2L435,359.2z"/>
			</g>
		</g>
	</g>
</g>
</svg>
