<?xml version="1.0" encoding="utf-8"?>
<!-- Generator: Adobe Illustrator 22.0.1, SVG Export Plug-In . SVG Version: 6.00 Build 0)  -->
<svg version="1.1" id="Layer_1" xmlns="http://www.w3.org/2000/svg" xmlns:xlink="http://www.w3.org/1999/xlink" x="0px" y="0px"
	 viewBox="0 0 735 852" style="enable-background:new 0 0 735 852;" xml:space="preserve">
<style type="text/css">
	.st0{fill:#144F85;}
	.st1{fill:#173E6C;}
	.st2{fill:#E6B35A;}
	.st3{fill:#FFFFFF;}
	.st4{fill:#FEFEFE;}
</style>
<title>haven</title>
<polygon class="st0" points="713.9,226 367.5,26 367.5,26 21.1,226 21.1,626 367.5,826 713.9,626 "/>
<path class="st1" d="M734.9,637.4V213.1l-29.3-16.9L427.8,35.8L367.5,1l-60.3,34.8L29.4,196.2L0.1,213.1v424.2l29.3,16.9
	l281.3,162.4l56.9,32.8l56.9-32.8l281.3-162.4L734.9,637.4z M29.4,621.5V231L367.5,35.8l0,0L705.6,231v390.5L367.5,816.7L29.4,621.5
	z"/>
<path class="st2" d="M367,633.9c0.3-0.3,0.6-0.6,0.9-0.9h-0.3C367.5,633.3,367.3,633.6,367,633.9z"/>
<path class="st3" d="M184.9,506.3H199v48.3h0.3c2.4-4.2,5.9-7.6,10.1-9.9c4.4-2.6,9.3-3.9,14.4-4c10.4,0,27,6.4,27,33.1v46.1h-14
	v-44.5c0-12.5-4.6-23-17.9-23c-9.1,0-16.3,6.4-18.9,14.1c-0.8,2.1-1.1,4.4-1,6.7v46.7h-14.1V506.3z"/>
<path class="st3" d="M311.5,619.9l-1.1-9.8h-0.5c-4.3,6.1-12.6,11.5-23.7,11.5c-15.7,0-23.7-11-23.7-22.2c0-18.7,16.6-29,46.6-28.8
	V569c0-6.4-1.8-17.9-17.6-17.9c-7.1,0-14.1,2-20.2,5.8l-3.2-9.3c6.4-4.2,15.7-6.9,25.4-6.9c23.7,0,29.4,16.2,29.4,31.7v29
	c-0.1,6.2,0.3,12.4,1.3,18.6L311.5,619.9z M309.4,580.4c-15.4-0.3-32.8,2.4-32.8,17.4c0,9.1,6.1,13.4,13.3,13.4
	c8.4,0.2,16-5,18.7-13c0.5-1.4,0.8-3,0.8-4.5V580.4z"/>
<path class="st3" d="M344.8,542.5L360,586c2.4,6.5,4.5,13.1,6.2,19.8h0.5c1.8-6.4,4-12.8,6.6-19.8l15-43.5H403l-30.4,77.4h-13.4
	l-29.4-77.4L344.8,542.5z"/>
<path class="st3" d="M417.4,583.7c0.3,19,12.5,26.9,26.6,26.9c10.1,0,16.2-1.8,21.4-4l2.4,10.1c-5,2.2-13.4,4.8-25.8,4.8
	c-23.8,0-38.1-15.7-38.1-39s13.8-41.8,36.3-41.8c25.3,0,32,22.2,32,36.5c0,2.2-0.2,4.4-0.5,6.6L417.4,583.7z M458.7,573.6
	c0.2-9-3.7-22.9-19.5-22.9c-14.2,0-20.5,13.1-21.6,22.9H458.7z"/>
<path class="st3" d="M484.6,563.4c0-8-0.2-14.6-0.6-21h12.5l0.8,12.8h0.3c3.8-7.4,12.8-14.6,25.6-14.6c10.7,0,27.4,6.4,27.4,33v46.2
	h-14.1v-44.6c0-12.5-4.6-22.9-17.9-22.9c-9.3,0-16.5,6.6-18.9,14.4c-0.7,2.1-1,4.3-1,6.6v46.6h-14V563.4z"/>
<path class="st3" d="M365.5,797.3l4.5,4.5c1,1,1.9,1.9,2.7,2.9h0.1c-0.4-1.2-0.7-2.5-1-3.8l-1.4-6.3l1.6-0.9l4.7,4.3
	c1.1,1,2.1,2,2.9,2.9h0.1c-0.5-1.3-0.9-2.5-1.2-3.8l-1.6-6.1l1.9-1.1l2.7,12.3l-1.7,1l-4.5-4.1c-1-0.9-2-1.9-2.9-2.9h0
	c0.4,1.3,0.8,2.6,1.1,4l1.2,6l-1.7,1l-9.2-8.6L365.5,797.3z"/>
<path class="st3" d="M381.7,787.9l4.5,4.5c1,1,1.9,1.9,2.7,2.9h0.1c-0.4-1.2-0.7-2.5-1-3.8l-1.4-6.3l1.6-0.9l4.7,4.3
	c1.1,1,2.1,2,2.9,2.9h0.1c-0.5-1.3-0.9-2.6-1.2-3.9l-1.6-6.1l1.9-1.1l2.7,12.4l-1.7,1l-4.5-4.1c-1-1-2-1.8-2.9-2.9l0,0
	c0.4,1.3,0.8,2.6,1.1,4l1.2,6l-1.7,1l-9.3-8.7L381.7,787.9z"/>
<path class="st3" d="M397.9,778.5l4.5,4.5c1,1,1.9,1.9,2.7,2.9h0.1c-0.4-1.2-0.7-2.5-1-3.8l-1.4-6.3l1.6-0.9l4.7,4.3
	c1.1,1,2.1,2,2.9,2.9h0.1c-0.5-1.3-0.9-2.6-1.2-3.9l-1.6-6.1l1.9-1.1l2.7,12.4l-1.7,1l-4.5-4.1c-1-1-2-1.8-2.9-2.9l0,0
	c0.4,1.3,0.8,2.6,1.1,4l1.2,6l-1.7,1l-9.2-8.6L397.9,778.5z"/>
<path class="st3" d="M417.1,779.7c-0.5-0.7-0.3-1.6,0.4-2.1c0,0,0.1,0,0.1-0.1c0.7-0.5,1.7-0.3,2.2,0.5c0.5,0.7,0.3,1.7-0.5,2.2
	C418.6,780.7,417.6,780.5,417.1,779.7C417.2,779.8,417.1,779.8,417.1,779.7z"/>
<path class="st3" d="M418.5,770.8c-0.7-1.2-1.4-2.3-2-3.2l1.7-1l1.3,2h0.1c-0.4-1.5,0.2-3.2,1.6-4c0.2-0.1,0.4-0.2,0.6-0.2l1,1.8
	c-0.2,0.1-0.5,0.2-0.7,0.3c-1.3,0.8-1.8,2.5-1.1,3.9c0.1,0.3,0.3,0.6,0.4,0.9l3.2,5.6l-1.9,1.1L418.5,770.8z"/>
<path class="st3" d="M428.4,772.1c1,0,2-0.2,3-0.7c1.4-0.8,1.6-1.9,1.1-2.7s-1.4-1.1-3.1-0.8c-2.3,0.4-3.8-0.1-4.5-1.3
	c-1-1.7-0.4-3.9,1.8-5.2c0.9-0.5,1.9-0.8,3-0.8l0.3,1.7c-0.9,0-1.7,0.2-2.5,0.6c-0.9,0.4-1.3,1.4-1,2.3c0,0,0,0.1,0.1,0.1
	c0.5,0.9,1.4,0.9,3,0.6c2.2-0.4,3.7,0,4.6,1.5c1.1,1.8,0.4,4-2.1,5.4c-1,0.6-2.2,1-3.4,1L428.4,772.1z"/>
<path class="st3" d="M432.8,754.1l1.8,3l2.7-1.6l0.8,1.4l-2.7,1.6l3.3,5.6c0.8,1.3,1.5,1.8,2.6,1.2c0.4-0.2,0.7-0.5,1-0.8l0.9,1.4
	c-0.4,0.5-0.9,0.9-1.5,1.2c-0.7,0.5-1.7,0.6-2.5,0.4c-1-0.5-1.9-1.3-2.3-2.3l-3.3-5.7l-1.6,0.9l-0.9-1.5l1.6-0.9l-1.5-2.5
	L432.8,754.1z"/>
<path class="st3" d="M452.6,756.8c0.6,1.1,1.2,2,1.7,2.8l-1.7,1l-1.1-1.6l0,0c0,1.7-0.9,3.2-2.3,4c-1.6,1-4.1,1.2-6.3-2.5l-3.6-6.1
	l1.9-1.1l3.3,5.8c1.1,2,2.5,3,4.3,2c1.1-0.7,1.7-1.9,1.5-3.2c-0.1-0.4-0.2-0.7-0.4-1.1l-3.7-6.4l1.9-1.1L452.6,756.8z"/>
<path class="st3" d="M457.5,737.2l7.4,12.6c0.5,0.9,1.2,2,1.7,2.7l-1.7,1l-1.1-1.8l0,0c0.1,1.7-0.9,3.3-2.4,4.1
	c-2.5,1.5-5.7,0.5-7.6-2.7c-2-3.5-1.1-6.9,1.4-8.3c1.2-0.8,2.8-0.9,4.1-0.2l0,0l-3.6-6.2L457.5,737.2z M460.9,747.5
	c-0.2-0.3-0.3-0.5-0.5-0.8c-1-1.1-2.7-1.4-4-0.6c-2,1.1-2.1,3.5-0.8,5.9c1.2,2.1,3.3,3.3,5.3,2.1c1.3-0.8,2-2.4,1.5-3.9
	c-0.1-0.3-0.2-0.6-0.4-0.9L460.9,747.5z"/>
<path class="st3" d="M463.9,736.1c0.4,0.7,0.1,1.5-0.5,1.9c-0.7,0.4-1.5,0.1-1.9-0.5c-0.4-0.7-0.2-1.5,0.5-1.9
	C462.6,735.2,463.5,735.4,463.9,736.1C463.9,736,463.9,736.1,463.9,736.1z M469.6,750.7l-6.1-10.5l1.9-1.1l6.1,10.5L469.6,750.7z"/>
<path class="st3" d="M481,736.9c2.2,3.9,0.5,7.1-2,8.6c-2.8,1.6-6.2,0.8-8.1-2.5c-2-3.5-0.9-6.9,2-8.6S479.1,733.8,481,736.9z
	 M472.8,741.9c1.3,2.3,3.6,3.2,5.5,2.2s2.2-3.6,0.8-5.9c-1-1.8-3.2-3.5-5.5-2.2S471.6,739.9,472.8,741.9L472.8,741.9z"/>
<path class="st3" d="M484.9,740.3c-0.4-0.7-0.1-1.6,0.6-2c0.7-0.4,1.6-0.1,2,0.6c0.4,0.7,0.1,1.6-0.6,2c-0.7,0.4-1.6,0.2-2-0.5
	C484.9,740.4,484.9,740.3,484.9,740.3z"/>
<path class="st3" d="M497.7,733.8c-0.7,1-1.6,1.8-2.6,2.3c-3.1,1.8-6.5,0.9-8.3-2.3c-1.8-2.9-1-6.7,1.8-8.5c0.2-0.1,0.4-0.2,0.6-0.3
	c0.9-0.5,1.9-0.9,3-1l0.4,1.7c-0.9,0-1.7,0.3-2.5,0.8c-2.4,1.4-2.7,3.9-1.4,6.1c1.4,2.4,3.8,3,5.9,1.8c0.8-0.5,1.5-1.1,2-1.9
	L497.7,733.8z"/>
<path class="st3" d="M506.4,722.2c2.2,3.9,0.6,7.1-2,8.6c-2.8,1.6-6.2,0.8-8.1-2.5c-2-3.5-1-6.9,2-8.6S504.5,719,506.4,722.2z
	 M498.1,727.1c1.3,2.3,3.7,3.2,5.5,2.2s2.2-3.5,0.8-5.9c-1-1.8-3.2-3.5-5.5-2.2S497,725.1,498.1,727.1z"/>
<path class="st3" d="M507.4,718.5c-0.6-1.1-1.2-2-1.7-2.8l1.7-1l1.1,1.6h0.1c-0.1-1.6,0.8-3.1,2.2-3.8c1.3-0.8,3-0.6,4.2,0.4l0,0
	c0-0.7,0.1-1.4,0.4-2c0.4-0.9,1-1.6,1.9-2.1c1.4-0.8,4-1.1,6.1,2.5l3.6,6.2l-1.9,1.1l-3.4-5.9c-1.2-2-2.6-2.8-4.1-1.9
	c-1,0.6-1.5,1.8-1.2,3c0.1,0.4,0.2,0.7,0.4,1l3.8,6.5l-1.9,1.1l-3.6-6.3c-1-1.7-2.4-2.5-3.9-1.6c-1.1,0.7-1.6,2-1.2,3.3
	c0.1,0.4,0.2,0.7,0.4,1l3.7,6.3l-1.9,1.1L507.4,718.5z"/>
<path class="st4" d="M316.5,235.3h88.6l-3.1,10.8c-27.5,4.2-55.4,4.2-82.9,0C318.2,242.5,317.4,238.9,316.5,235.3z"/>
<path d="M360.6,251.7c-14,0-28-1.1-41.9-3.2l-1.7-0.2l-3.7-15.5h95.1l-4.5,15.5l-1.6,0.2C388.5,250.7,374.6,251.7,360.6,251.7z
	 M321.1,243.9c26.2,3.8,52.8,3.8,78.9,0l1.8-6.1h-82.1L321.1,243.9z"/>
<path class="st4" d="M330.1,234.8v-38.1h61.3v38.1L330.1,234.8z M382.6,224.8v-18H376v18H382.6z M365.3,224.8v-18h-8.9v18H365.3z
	 M346.7,224.8v-18H340v18H346.7z"/>
<path d="M393,236.3h-64.4v-41.1H393V236.3z M331.7,233.3H390v-35.1h-58.4L331.7,233.3z M384.2,226.3h-9.6v-21h9.6V226.3z
	 M377.5,223.3h3.6v-15h-3.6V223.3z M366.8,226.3h-11.9v-21h11.9V226.3z M357.9,223.3h5.9v-15h-5.9V223.3z M348.2,226.3h-9.6v-21h9.6
	V226.3z M341.6,223.3h3.6v-15h-3.6V223.3z"/>
<path d="M388.8,199.4v32.7h-56v-32.7H388.8 M394.1,194h-66.7v43.5h66.7V194L394.1,194z"/>
<path class="st4" d="M325.7,196.7V194c0-11,12.1-16.8,21.8-21.4c2.1-1,4.1-1.9,5.8-2.9c-0.8-1.3-1.3-2.9-1.3-4.4
	c0-4.8,3.9-8.7,8.7-8.7c4.8,0,8.7,3.9,8.7,8.7l0,0c0,1.6-0.5,3.2-1.3,4.5c1.8,1,4,2,6.2,3.1c9.6,4.5,21.5,10.2,21.5,21.1v2.7
	L325.7,196.7z"/>
<path d="M360.7,159.5c3.3,0,5.9,2.6,6,5.8c0,2.1-1.2,4-3,5c8.3,5.9,29.3,10.8,29.3,23.7h-64.6c0-12.8,21-18,29.2-23.7
	c-1.8-1-2.9-2.9-2.9-5C354.7,162,357.4,159.4,360.7,159.5 M360.7,154.1c-6.2,0-11.3,5-11.4,11.2c0,1.1,0.2,2.2,0.5,3.2
	c-1.1,0.5-2.3,1.1-3.5,1.7c-9.8,4.7-23.3,11.1-23.3,23.8v5.4h75.4V194c0-12.6-13.3-18.9-23-23.5c-1.3-0.6-2.6-1.2-3.8-1.8
	c0.3-1.1,0.5-2.2,0.5-3.3C372,159.1,366.9,154.1,360.7,154.1L360.7,154.1z"/>
<path class="st4" d="M367.1,466.7h-12.6V495l-2.6-0.1c-24-0.7-53.2-3.8-63.2-10.2l-1.4-0.9l0.3-1.6c1.2-7.1,2.1-11.6,2.9-16
	c0.9-4.7,1.8-9.2,3-16.5c0.9-5.4,5.9-8.2,10.4-8.2c0.6,0,1.1,0,1.7,0.2c18.1,3.9,36.5,5.9,55,5.9c18.9,0,37.8-2.1,56.4-6
	c0.5-0.1,1-0.1,1.5-0.1c3.6,0,9.3,2.5,10.1,7.8c0.9,5.1,1.5,8.9,2.1,12.3c1.1,6.3,2,11.3,3.4,20.8l0.2,1.6l-1.3,0.9
	c-13.2,8.7-48.7,10.2-63.3,10.4h-2.5L367.1,466.7z"/>
<path d="M418.4,443.9c2.7,0,7,1.9,7.7,5.7c2.4,14.5,3.3,18.5,5.5,33c-9.8,6.5-35.2,9.6-62,10v-28.4H352v28.3
	c-27.6-0.8-53.5-4.3-62-9.8c2.4-14.5,3.6-18.1,5.9-32.6c0.7-4.4,5.1-6.1,7.9-6.1c0.4,0,0.8,0,1.2,0.1c18.2,4,36.9,6,55.5,6
	c19.1,0,38.2-2.1,56.9-6C417.8,443.9,418.1,443.9,418.4,443.9 M418.4,438.9c-0.7,0-1.3,0.1-2,0.2c-18.3,3.9-37.1,5.9-55.8,5.9
	c-18.3,0-36.6-2-54.5-5.9c-0.7-0.2-1.5-0.2-2.2-0.2c-5.6,0-11.8,3.5-12.9,10.3c-1.2,7.3-2,11.8-3,16.5c-0.9,4.4-1.8,9-2.9,16.1
	l-0.5,3.2l2.7,1.8c13.1,8.5,52.7,10.3,64.5,10.6l5.1,0.1v-28.4h7.6v28.5l5.1-0.1c18.4-0.3,51.3-2,64.6-10.8l2.7-1.7l-0.5-3.2
	c-1.4-9.4-2.3-14.5-3.4-20.8c-0.6-3.4-1.2-7.2-2.1-12.2C430,442.6,423.8,438.9,418.4,438.9L418.4,438.9z"/>
<path class="st4" d="M360.3,447.1c-15.2,0-30.3-1.5-45.2-4.4l0,0l-3.5-0.7l-5.8-1.2l2.1-22.2l0,0l3.1-34.2l0,0l1.5-16.3l0.3-3.5
	l1.4-14.5l9.6-102.8l3.3,0.4c11,1.5,22.1,2.2,33.2,2.2c11.2,0,22.4-0.8,33.6-2.2l3.3-0.4l11,115.7l0,0l3.1,32.8l0,0l1.5,15.7l0,0
	l2.8,29.4l-2.8,0.6l-1.5,0.3l-0.9,0.2l-4.7,1v-0.1C390.7,445.6,375.5,447.1,360.3,447.1z M316.2,432.3c30.9-2.5,66.4-9.6,86.9-17.5
	l-1.4-15.4c-22.6,8.1-57.4,15.4-84.1,17.7L316.2,432.3z M320.7,383.8c27.1-2.6,57.1-9,78-16.7l-1.3-14.6
	c-22,6.5-54.6,13.1-75.2,15.2L320.7,383.8z M325.1,335.9c24.8-2.6,52.4-8.3,69.4-14.4l-1.4-15.1c-20,5.9-47.4,11.2-66.6,13.9
	L325.1,335.9z M329.4,289.2c16.8-2.4,43.6-7.4,60.9-13.2l-1.3-14.3c-13.9,4.1-37.4,8.6-58,11L329.4,289.2z"/>
<path d="M360.3,448.6c-14.7,0-29.4-1.4-43.9-4.1l0,0l-1.6-0.3l-10.7-2.2l18.3-196.4l4.9,0.7c10.9,1.5,21.9,2.2,32.9,2.2
	c11.2,0,22.3-0.8,33.4-2.2l4.9-0.6l14.3,151.1l0,0l4.3,45.3l-4.1,0.9c-0.5,0.1-1,0.2-1.4,0.3l-1,0.2l-6.3,1.4v-0.2
	C389.8,447.2,375.1,448.6,360.3,448.6z M314.4,441.1l1,0.2c14.8,2.9,29.8,4.3,44.9,4.3c15.1,0,30.2-1.4,45-4.2l1.6-0.3v0.1l4.1-0.9
	l1.4-0.3l1.5-0.3l-4.2-44.9l0,0l-2.8-29.1l0,0l-0.2-2.6L395.8,249l-1.8,0.2c-11.2,1.5-22.5,2.2-33.8,2.2c-11.2,0-22.3-0.8-33.3-2.2
	l-1.8-0.2l-12.8,136.9l0,0l-5,53.7L314.4,441.1z M314.5,433.9l1.7-18.2l1.2-0.1c26.6-2.2,61-9.5,83.7-17.6l1.8-0.7l1.7,18.4
	l-1.1,0.4c-20.5,7.9-56.4,15.1-87.3,17.6L314.5,433.9z M318.9,418.5l-1.1,12.1c29.7-2.5,63.6-9.3,83.6-16.8l-1.1-12.3
	C377.8,409.4,344.9,416.2,318.9,418.5L318.9,418.5z M319,385.5l1.8-19.2l1.2-0.1c20.6-2.1,52.8-8.6,74.9-15.1l1.8-0.5l1.6,17.6
	l-1.1,0.4c-21,7.8-51.1,14.2-78.4,16.8L319,385.5z M323.5,369l-1.2,13.2c26.1-2.7,54.5-8.8,74.8-16.1l-1.1-11.7
	C374.3,360.7,343.8,366.8,323.5,369z M323.4,337.6l1.7-18.6l1.2-0.2c17.4-2.5,45.2-7.6,66.3-13.9l1.8-0.5l1.7,18l-1.1,0.4
	c-17.2,6.2-44.6,11.8-69.7,14.5L323.4,337.6z M327.9,321.7l-1.2,12.5c23.6-2.6,49.7-8,66.1-13.7l-1.1-12.1
	C371.2,314.3,345,319.2,327.9,321.7L327.9,321.7z M327.8,291l1.8-19.6l1.2-0.1c20.6-2.4,43.8-6.8,57.8-11l1.8-0.5l1.6,17.2l-1.1,0.4
	c-17.2,5.8-43.7,10.8-61.2,13.3L327.8,291z M332.3,274.1l-1.2,13.4c16.9-2.5,41.2-7.1,57.6-12.5l-1-11.3
	C373.7,267.6,351.9,271.7,332.3,274.1z"/>
<path d="M394.3,251l9,95.4l0.1,0.8l0,0l2,20.8l0,0c0.8,8.6,1.6,17.1,2.5,25.7l0,0l2.1,21.8l0,0c0.7,7.1,1.3,14.3,2,21.4l0.1,1.3l0,0
	l0,0c-0.8,0.2-1.6,0.3-2.3,0.5l-1.2,0.3l0,0c-15.9,3.2-32,4.9-48.2,4.9c-16.1,0-32.2-1.7-48-5l0,0l-3-0.6l0.2-2.2l2-21.6l0,0
	c0.8-8.9,1.6-17.8,2.4-26.8l0,0l2.1-22.7l0,0l1.4-14.5l9.2-99.4c11.1,1.5,22.3,2.3,33.6,2.3C371.7,253.2,383,252.5,394.3,251
	 M320.9,243.7l-0.6,6.7l-9.3,99.4l-1.4,14.5l-0.7,7l0,0l-1,10.2l0,0l-0.5,5.5c-0.8,8.9-1.7,17.8-2.5,26.8l-0.7,7.6l0,0l-1.3,14.1
	l-0.2,2.2l-0.5,5.7l5.6,1.2l3,0.6l7.1,1.5v-0.1c14,2.5,28.1,3.8,42.3,3.8c14.2,0,28.4-1.3,42.4-3.7v0.2l7.1-1.6l1.2-0.3l0.9-0.2
	l1.5-0.3l5.5-1.2l-0.5-5.7v-0.1l-0.1-1.3c-0.5-5-0.9-9.9-1.4-14.9l-0.6-6.5l-0.9-9.1l0,0l-0.8-8l0,0l-0.5-4.7l-2.4-25.7l-0.8-8.5
	l0,0l-1.2-12.2l-0.1-0.8l-9-95.4l-0.6-6.6l-6.6,0.9c-11,1.5-22.1,2.2-33.1,2.2c-10.9,0-21.9-0.7-32.7-2.2L320.9,243.7L320.9,243.7z"
	/>
<rect x="317.9" y="239" transform="matrix(0.8553 -0.5182 0.5182 0.8553 -77.0457 202.9728)" width="13.8" height="0.8"/>
<rect x="318.2" y="243.4" transform="matrix(0.8553 -0.5182 0.5182 0.8553 -79.2502 203.8195)" width="14.1" height="0.8"/>
<rect x="329.2" y="198.6" transform="matrix(0.8553 -0.5182 0.5182 0.8553 -55.0583 200.8838)" width="5.9" height="0.8"/>
<rect x="328.6" y="201.1" transform="matrix(0.8553 -0.5182 0.5182 0.8553 -56.0555 202.2527)" width="11" height="0.8"/>
<rect x="328.8" y="204.6" transform="matrix(0.8553 -0.5182 0.5182 0.8553 -57.8127 202.9386)" width="11.2" height="0.8"/>
<rect x="328.9" y="208.9" transform="matrix(0.8553 -0.5182 0.5182 0.8553 -60.0657 203.5746)" width="11.1" height="0.8"/>
<rect x="329.4" y="211.8" transform="matrix(0.8553 -0.5182 0.5182 0.8553 -61.4952 204.2676)" width="11.1" height="0.8"/>
<rect x="327.7" y="216.5" transform="matrix(0.8553 -0.5182 0.5182 0.8553 -63.9906 204.5717)" width="13.1" height="0.8"/>
<rect x="327" y="220.5" transform="matrix(0.8553 -0.5182 0.5182 0.8553 -66.1305 205.0173)" width="14" height="0.8"/>
<rect x="327.2" y="224.2" transform="matrix(0.8553 -0.5182 0.5182 0.8553 -67.974 205.7186)" width="14.2" height="0.8"/>
<rect x="327.1" y="182.5" transform="matrix(0.9182 -0.396 0.396 0.9182 -44.7745 148.965)" width="22.6" height="0.8"/>
<rect x="326.2" y="186.1" transform="matrix(0.9331 -0.3597 0.3597 0.9331 -44.4347 134.1561)" width="24.2" height="0.8"/>
<rect x="325.5" y="189.4" transform="matrix(0.9333 -0.3592 0.3592 0.9333 -45.6071 134.1518)" width="25.5" height="0.8"/>
<rect x="331.2" y="191.3" transform="matrix(0.9331 -0.3597 0.3597 0.9331 -46.0772 135.721)" width="21" height="0.8"/>
<rect x="352.9" y="162.5" transform="matrix(0.9182 -0.396 0.396 0.9182 -35.4232 154.2429)" width="5.8" height="0.8"/>
<rect x="353.2" y="166.4" transform="matrix(0.9331 -0.3595 0.3595 0.9331 -36.1887 139.0439)" width="5.1" height="0.8"/>
<rect x="340.2" y="171.9" transform="matrix(0.9331 -0.3595 0.3595 0.9331 -38.5411 137.3548)" width="19.7" height="0.8"/>
<rect x="338.2" y="175.9" transform="matrix(0.9331 -0.3597 0.3597 0.9331 -40.0537 137.2068)" width="21" height="0.8"/>
<rect x="335.4" y="194.2" transform="matrix(0.9331 -0.3597 0.3597 0.9331 -46.8199 137.4375)" width="21" height="0.8"/>
<rect x="331" y="226.2" transform="matrix(0.8553 -0.5182 0.5182 0.8553 -68.7304 207.0015)" width="10.4" height="0.8"/>
<rect x="326.4" y="230.8" transform="matrix(0.8553 -0.5182 0.5182 0.8553 -71.3563 206.9031)" width="16.5" height="0.8"/>
<path d="M312.1,409.6l-0.3-0.7c6.4-2.9,18.9-9.3,26.3-13.2c3.5-1.8,6.1-3.2,6.8-3.4l0.3,0.7c-0.6,0.3-3.2,1.6-6.7,3.4
	C330.5,400.6,318.5,406.8,312.1,409.6z"/>
<path d="M311.7,413.9l-0.3-0.7c2.3-1,8.5-4.2,14.9-7.5c7.4-3.8,15.1-7.8,18.5-9.3l0.3,0.7c-3.4,1.5-11,5.4-18.5,9.2
	C320.2,409.7,314.1,412.8,311.7,413.9z"/>
<path d="M310.2,418.8l-0.3-0.7c3-1.4,10.4-5.1,17.5-8.7s14.5-7.4,17.5-8.7l0.3,0.7c-3,1.4-10.4,5.1-17.5,8.7
	S313.3,417.4,310.2,418.8z"/>
<path d="M310.2,422.6l-0.3-0.7c3-1.4,10.4-5.1,17.5-8.7s14.5-7.4,17.5-8.7l0.3,0.7c-3,1.4-10.4,5.1-17.5,8.7
	S313.3,421.2,310.2,422.6z"/>
<path d="M312.1,393.5l-0.3-0.7c5.3-2.4,10.6-5.1,15.8-7.8l1.3-0.7l0.3,0.7l-1.3,0.7C322.8,388.3,317.5,391,312.1,393.5z"/>
<path d="M311.7,397.7l-0.3-0.7c6-2.7,11.9-5.8,17.6-8.8c3.3-1.7,6.8-3.5,10.1-5.2l0.3,0.7c-3.4,1.7-6.8,3.5-10.1,5.2
	C323.6,391.9,317.7,395,311.7,397.7z"/>
<path d="M310.2,402.6l-0.3-0.7c3-1.4,10.4-5.1,17.5-8.7s14.5-7.4,17.5-8.7l0.3,0.7c-3,1.4-10.4,5.1-17.5,8.7
	S313.3,401.2,310.2,402.6z"/>
<path d="M310.2,406.4l-0.3-0.7c3-1.4,10.4-5.1,17.5-8.7s14.5-7.4,17.5-8.7l0.3,0.7c-3,1.4-10.4,5.1-17.5,8.7
	S313.3,405.1,310.2,406.4z"/>
<path d="M312.1,377.9l-0.3-0.7c2.9-1.3,5.7-2.7,8.3-4l0.3,0.7C317.8,375.2,315,376.6,312.1,377.9z"/>
<path d="M339.6,364.1l-0.4-0.7l1.4-0.7c1.4-0.7,2.8-1.5,4.3-2.2l0.3,0.7c-1.4,0.7-2.9,1.4-4.3,2.2L339.6,364.1z"/>
<path d="M311.7,382.1l-0.3-0.7c2.4-1.1,4.8-2.3,7.1-3.5l1.4-0.7l0.3,0.7l-1.4,0.7C316.6,379.8,314.2,381,311.7,382.1z"/>
<path d="M310.4,386.9l-0.3-0.7c3.1-1.4,6.5-3.1,10.5-5.1l0.3,0.7C316.9,383.9,313.5,385.5,310.4,386.9z"/>
<path d="M310.2,390.9l-0.3-0.7c3.6-1.6,7.2-3.5,10.7-5.2l2.5-1.3l0.3,0.7l-2.5,1.3C317.4,387.4,313.9,389.2,310.2,390.9z"/>
<path d="M312.1,361.7l-0.3-0.7c6.4-2.9,18.9-9.3,26.3-13.2c3.5-1.8,6.1-3.2,6.8-3.5l0.3,0.7c-0.6,0.3-3.2,1.6-6.7,3.4
	C330.5,352.6,318.5,358.8,312.1,361.7z"/>
<path d="M311.7,366l-0.3-0.7c2.3-1,8.5-4.2,14.9-7.5c7.4-3.8,15.1-7.8,18.5-9.3l0.3,0.7c-3.4,1.5-11,5.4-18.5,9.2
	C320.2,361.8,314.1,364.9,311.7,366z"/>
<path d="M311.3,370.3l-0.3-0.7c5.2-2.5,10.5-5.2,15.5-7.8c6-3.1,12.2-6.4,18.5-9.2l0.3,0.7c-6.2,2.8-12.4,6-18.4,9.2
	C321.7,365.1,316.5,367.9,311.3,370.3z"/>
<path d="M311.1,374.3l-0.3-0.7c4.1-1.9,8-3.9,11-5.5l0.3,0.7C319.1,370.4,315.2,372.4,311.1,374.3z"/>
<path d="M326.5,366.5l-0.4-0.7l0.3-0.2c6-3.1,12.2-6.4,18.5-9.2l0.3,0.7c-6.2,2.8-12.4,6-18.4,9.2L326.5,366.5z"/>
<path d="M312.6,345.2l-0.3-0.7c5.6-2.6,11.1-5.4,17.1-8.5l0.4,0.7C323.7,339.8,318.2,342.6,312.6,345.2z"/>
<path d="M312.3,349.4l-0.3-0.7c5.1-2.4,10.2-5.1,15.1-7.6c4.3-2.3,8.8-4.6,13.3-6.8l0.3,0.7c-4.5,2.2-8.9,4.5-13.3,6.8
	C322.5,344.3,317.4,347,312.3,349.4z"/>
<path d="M312.3,353.5l-0.3-0.7c4.7-2.3,9.4-4.7,13.9-7.1c6.2-3.2,12.5-6.5,19-9.4l0.3,0.7c-6.4,2.9-12.8,6.2-19,9.4
	C321.7,348.8,317,351.3,312.3,353.5z"/>
<path d="M312.3,357.4l-0.3-0.7c4.7-2.3,9.4-4.7,13.9-7.1c6.2-3.2,12.5-6.5,19-9.4l0.3,0.7c-6.4,2.9-12.8,6.2-19,9.4
	C321.7,352.7,317,355.1,312.3,357.4z"/>
<path d="M315.7,327.5l-0.3-0.7c4-1.9,7.8-3.9,11.1-5.6l0.3,0.7C323.6,323.6,319.7,325.6,315.7,327.5z"/>
<path d="M333,318.7l-0.4-0.7c3.9-2,8-4.1,12.3-6.2l0.3,0.7C341,314.6,336.8,316.7,333,318.7z"/>
<path d="M314.9,331.9l-0.3-0.7c3.2-1.6,6.3-3.2,9.3-4.8l0.4,0.7C321.3,328.7,318.1,330.3,314.9,331.9z"/>
<path d="M314,336.5l-0.3-0.7c3.2-1.6,6.3-3.2,10-5.1l0.4,0.7C320.3,333.3,317.2,334.9,314,336.5z"/>
<path d="M313,340.9l-0.3-0.7c4.1-2,8.1-4.1,12.2-6.2l0.3,0.7C321.1,336.8,317.1,338.9,313,340.9z"/>
<path d="M317.7,311l-0.3-0.7c4.3-2.1,8.6-4.3,12.7-6.5c4.8-2.5,9.8-5.1,14.8-7.5l0.3,0.7c-5,2.4-10,5-14.8,7.5
	C326.2,306.7,322,308.9,317.7,311z"/>
<path d="M317.3,315.2l-0.3-0.7c3-1.5,6.1-3.1,9.1-4.7c6.1-3.2,12.4-6.5,18.8-9.4l0.3,0.7c-6.4,2.9-12.6,6.2-18.7,9.3
	C323.4,312,320.4,313.6,317.3,315.2z"/>
<path d="M317.1,319.4l-0.3-0.7c3.1-1.6,6.3-3.2,9.4-4.8c6.1-3.2,12.4-6.4,18.7-9.3l0.3,0.7c-6.3,2.9-12.6,6.1-18.7,9.3
	C323.5,316.2,320.3,317.8,317.1,319.4z"/>
<path d="M316.5,323.6l-0.3-0.7c3.3-1.6,6.6-3.4,9.9-5.1c6.1-3.2,12.5-6.5,18.9-9.4l0.3,0.7c-6.4,2.9-12.7,6.2-18.8,9.4
	C323.1,320.2,319.8,321.9,316.5,323.6z"/>
<path d="M318.7,294.4l-0.3-0.7c4-2,8.1-4.1,12-6.2l0.6-0.3l0.4,0.7l-0.6,0.3C326.8,290.2,322.7,292.4,318.7,294.4z"/>
<path d="M318.5,298.4l-0.3-0.7c2.8-1.4,5.5-2.8,8.3-4.3c3.6-1.9,7.4-3.9,11.1-5.7l0.3,0.7c-3.7,1.9-7.5,3.8-11.1,5.7
	C324,295.5,321.2,297,318.5,298.4z"/>
<path d="M318,302.8l-0.3-0.7c2.9-1.5,5.9-3,8.8-4.5c6-3.1,12.2-6.3,18.4-9.1l0.3,0.7c-6.2,2.8-12.4,6-18.4,9.1
	C324,299.7,321,301.3,318,302.8z"/>
<path d="M318,306.6l-0.3-0.7c2.9-1.5,5.9-3,8.8-4.5c6-3.1,12.2-6.3,18.4-9.1l0.3,0.7c-6.2,2.8-12.4,6-18.4,9.1
	C324,303.6,321,305.1,318,306.6z"/>
<path d="M319.7,276.7l-0.3-0.7c3.7-1.8,7.5-3.8,11.1-5.7c4.7-2.5,9.5-5,14.4-7.3l0.3,0.7c-4.8,2.3-9.7,4.8-14.3,7.3
	C327.2,272.9,323.4,274.9,319.7,276.7z"/>
<path d="M319.4,280.8l-0.3-0.7c2.6-1.3,5.1-2.6,7.7-4c5.9-3.1,12-6.2,18.1-9l0.3,0.7c-6.1,2.8-12.2,5.9-18,9
	C324.5,278.1,322,279.5,319.4,280.8z"/>
<path d="M319,285.1l-0.3-0.7c2.8-1.4,5.6-2.9,8.3-4.3l2.2-1.1l0.4,0.7l-2.2,1.1C324.6,282.3,321.8,283.7,319,285.1z"/>
<path d="M318.7,289.2l-0.3-0.7c2.8-1.4,5.6-2.9,8.5-4.4l2-1l0.3,0.7l-2,1C324.3,286.3,321.5,287.8,318.7,289.2z"/>
<path d="M322.2,259.3l-0.3-0.7c3.1-1.6,6.3-3.2,9.4-4.9c4.4-2.3,9-4.7,13.6-6.9l0.3,0.7c-4.6,2.2-9.1,4.6-13.6,6.9
	C328.5,256,325.4,257.7,322.2,259.3z"/>
<path d="M321.7,263.5l-0.4-0.7c2.2-1.1,4.3-2.2,6.5-3.3c5.5-2.9,11.3-5.9,17.1-8.5l0.3,0.7c-5.8,2.6-11.5,5.6-17,8.5
	C326,261.2,323.8,262.4,321.7,263.5z"/>
<path d="M320.7,268.1l-0.3-0.7c2.4-1.2,4.9-2.5,7.3-3.8c5.6-2.9,11.4-5.9,17.3-8.6l0.3,0.7c-5.9,2.6-11.7,5.7-17.3,8.6
	C325.5,265.6,323.1,266.9,320.7,268.1z"/>
<path d="M320,272.3l-0.3-0.7c2.5-1.3,5.1-2.6,7.6-3.9c5.7-3,11.6-6,17.6-8.8l0.3,0.7c-6,2.7-11.9,5.8-17.6,8.7
	C325.1,269.7,322.6,271,320,272.3z"/>
<path d="M320.5,250.1l-0.3-0.7l3-1.6c3.8-1.9,7.7-3.9,11.6-5.7l0.3,0.7c-3.9,1.8-7.8,3.8-11.5,5.7L320.5,250.1z"/>
<path d="M321.7,254.6l-0.3-0.7l4.7-2.4c4.6-2.4,9.4-4.9,14.3-7.1l0.3,0.7c-4.8,2.2-9.6,4.6-14.2,7L321.7,254.6z"/>
<rect x="308.5" y="425.7" transform="matrix(0.9126 -0.4088 0.4088 0.9126 -146.7925 165.3069)" width="9.5" height="0.8"/>
<rect x="308.9" y="429.9" transform="matrix(0.9126 -0.4088 0.4088 0.9126 -148.5466 165.5657)" width="8.2" height="0.8"/>
<rect x="306.2" y="434.3" transform="matrix(0.9126 -0.4088 0.4088 0.9126 -150.3391 165.962)" width="13.7" height="0.8"/>
<path d="M295,449.2l-0.3-0.7c5.9-3.1,27.8-13.7,37.2-17.1l0.3,0.7C322.8,435.5,300.9,446.1,295,449.2z"/>
<path d="M315.2,443.9l-0.3-0.7c3.6-1.6,8.5-3.9,13.2-6.1s9.5-4.5,13.2-6.1l0.3,0.7c-3.6,1.6-8.5,3.9-13.2,6.1
	S318.8,442.3,315.2,443.9z"/>
<rect x="292.6" y="448.7" transform="matrix(0.9126 -0.4088 0.4088 0.9126 -157.0783 163.2649)" width="21.5" height="0.8"/>
<path d="M292.7,458.9l-0.3-0.7c2.8-1.5,8.2-4.1,13.4-6.7s10.6-5.3,13.4-6.7l0.3,0.7c-2.8,1.5-8.2,4.1-13.4,6.7
	S295.5,457.5,292.7,458.9z"/>
<path d="M292.5,463.3l-0.3-0.7c2.4-1.2,8.3-4.4,14.1-7.5s11.7-6.3,14.1-7.5l0.4,0.7c-2.4,1.2-8.4,4.4-14.1,7.5
	S294.9,462,292.5,463.3z"/>
<path d="M291.5,467.3l-0.4-0.7c2.3-1.2,8.2-4.3,13.9-7.4s11.6-6.2,14-7.4l0.3,0.7c-2.4,1.2-8.3,4.4-14,7.4S293.8,466.1,291.5,467.3z
	"/>
<path d="M290.6,471.3l-0.3-0.7c2.5-1.3,8.6-4.6,14.5-7.7s12-6.4,14.5-7.7l0.3,0.7c-2.5,1.3-8.6,4.6-14.5,7.7S293.1,470,290.6,471.3z
	"/>
<path d="M289.7,475.7l-0.3-0.7c2.4-1.2,8.3-4.4,14.1-7.5s11.7-6.2,14.1-7.5l0.3,0.7c-2.4,1.2-8.3,4.4-14.1,7.5
	S292.1,474.4,289.7,475.7z"/>
<path d="M289.1,479.3l-0.3-0.7c2.3-1.2,8.2-4.3,13.8-7.4s11.5-6.2,13.8-7.4l0.3,0.7c-2.3,1.2-8.2,4.3-13.8,7.4
	S291.4,478.1,289.1,479.3z"/>
<path d="M289.4,483.1c-0.1,0-0.1,0-0.2-0.1l-0.2-0.3c0-0.8,17-9.7,28.5-15.5l0.3,0.7c-16.1,8.1-24.3,12.7-27,14.4l0.1,0.2
	C290.4,482.8,289.9,483,289.4,483.1z"/>
<path d="M292.4,485.3l-0.3-0.7c1.9-1,7.3-3.9,12.5-6.7s10.6-5.7,12.5-6.6l0.3,0.7c-1.9,1-7.2,3.9-12.4,6.6S294.3,484.4,292.4,485.3z
	"/>
<path d="M294.5,488.6l-0.3-0.7c1.1-0.6,5.8-3.1,10.3-5.5s9.2-5,10.4-5.6l0.3,0.7c-1.2,0.6-5.9,3.1-10.4,5.6S295.6,488,294.5,488.6z"
	/>
</svg>
