<svg id="Layer_1" data-name="Layer 1" xmlns="http://www.w3.org/2000/svg" xmlns:xlink="http://www.w3.org/1999/xlink" viewBox="0 0 735 852"><defs><style>.cls-1{fill:#de5a27;}.cls-2{clip-path:url(#clip-path);}.cls-3{fill:#144f85;}.cls-4{fill:#e6b35a;}.cls-5{font-size:160px;letter-spacing:-0.03em;}.cls-5,.cls-9{fill:#fff;font-family:MyriadPro-Regular, Myriad Pro;}.cls-6{letter-spacing:-0.04em;}.cls-7{letter-spacing:-0.04em;}.cls-8{letter-spacing:-0.03em;}.cls-9{font-size:25px;}.cls-10{letter-spacing:0.01em;}.cls-11{letter-spacing:-0.04em;}.cls-12{letter-spacing:-0.02em;}.cls-13{letter-spacing:-0.01em;}.cls-14{letter-spacing:0em;}.cls-15{fill:#173e6c;}.cls-16,.cls-17,.cls-18,.cls-19,.cls-20{fill:#fefefe;}.cls-16,.cls-17,.cls-20,.cls-21{stroke:#000;stroke-miterlimit:10;}.cls-16{stroke-width:5px;}.cls-16,.cls-17,.cls-19{fill-rule:evenodd;}.cls-17,.cls-20{stroke-width:3px;}.cls-21{fill:none;stroke-width:0.75px;}</style><clipPath id="clip-path"><polygon class="cls-1" points="369.51 7.4 728.21 214.47 728.21 636.62 369.51 845.03 2.79 636.62 2.79 214.47 369.51 7.4"/></clipPath></defs><title> </title><polygon class="cls-1" points="369.51 7.4 728.21 214.47 728.21 636.62 369.51 845.03 2.79 636.62 2.79 214.47 369.51 7.4"/><g class="cls-2"><circle class="cls-3" cx="365.5" cy="437.45" r="442.13"/><ellipse class="cls-3" cx="366.89" cy="105.8" rx="315.24" ry="234.63"/></g><path class="cls-4" d="M367,633.9c.29-.29.6-.59.93-.89h-.26Z"/><text class="cls-5" transform="translate(173.25 619.89)">h<tspan class="cls-6" x="83.68" y="0">a</tspan><tspan class="cls-7" x="154.4" y="0">v</tspan><tspan class="cls-8" x="224.64" y="0">en</tspan></text><text class="cls-9" transform="matrix(0.86, -0.5, 0.5, 0.86, 369.28, 809.1)"><tspan class="cls-10">ww</tspan><tspan class="cls-11" x="37.4" y="0">w</tspan><tspan x="54.82" y="0">.rstudi</tspan><tspan class="cls-12" x="120.07" y="0">o</tspan><tspan x="133.2" y="0">.</tspan><tspan class="cls-13" x="138.37" y="0">c</tspan><tspan class="cls-14" x="149.42" y="0">om</tspan></text><path class="cls-15" d="M705.61,196.21,427.81,35.82,367.5,1,307.19,35.82,29.37,196.22.09,213.13V637.38l29.28,16.91,281.28,162.4,56.85,32.82,56.85-32.82L705.61,654.3l29.3-16.92V213.13Zm0,425.26L367.49,816.68,29.37,621.47V231L367.49,35.82h0L705.61,231Z"/><path class="cls-16" d="M316.51,235.28H405.1q-1.55,5.4-3.12,10.8a272.34,272.34,0,0,1-82.93,0Z"/><path class="cls-17" d="M330.14,234.79V196.71h61.32v38.09Zm52.49-10v-18H376v18Zm-17.37,0v-18h-8.9v18Zm-18.59,0v-18H340v18Z"/><path d="M388.78,199.39v32.72h-56V199.39h56m5.37-5.37H327.46v43.45h66.68V194Z"/><path class="cls-18" d="M325.68,196.66V194c0-11,12.1-16.75,21.83-21.38,2.07-1,4.07-1.94,5.78-2.86a8.34,8.34,0,0,1-1.3-4.45,8.71,8.71,0,0,1,17.42,0,8.35,8.35,0,0,1-1.34,4.52c1.81,1,4,2,6.17,3.06,9.57,4.54,21.48,10.19,21.48,21.11v2.68Z"/><path d="M360.7,159.46a5.93,5.93,0,0,1,6,5.82,5.78,5.78,0,0,1-3,5C372,176.22,393,181.1,393,194H328.37c0-12.8,21-18,29.23-23.71a5.77,5.77,0,0,1-2.92-5,5.93,5.93,0,0,1,6-5.82m0-5.37a11.31,11.31,0,0,0-11.39,11.19,10.89,10.89,0,0,0,.49,3.23c-1.09.54-2.26,1.09-3.44,1.66C336.5,174.87,323,181.29,323,194v5.37h75.4V194c0-12.62-13.3-18.93-23-23.53-1.32-.63-2.61-1.24-3.81-1.84a10.92,10.92,0,0,0,.52-3.32A11.3,11.3,0,0,0,360.7,154.1Z"/><path class="cls-19" d="M367.13,466.68H354.48V495l-2.57-.07c-24-.69-53.24-3.74-63.24-10.24l-1.37-.89.26-1.61c1.17-7.1,2.06-11.64,2.93-16,.93-4.71,1.81-9.17,3-16.55.86-5.37,5.89-8.18,10.4-8.18a8.06,8.06,0,0,1,1.7.17,259.29,259.29,0,0,0,55,5.93,273.22,273.22,0,0,0,56.36-6,7.09,7.09,0,0,1,1.45-.14c3.57,0,9.26,2.49,10.16,7.83.85,5.07,1.51,8.85,2.1,12.26,1.1,6.33,2,11.34,3.39,20.76l.24,1.58-1.33.88c-13.24,8.74-48.67,10.17-63.29,10.38l-2.54,0Z"/><path d="M418.4,443.88c2.71,0,7,1.88,7.69,5.74,2.42,14.45,3.31,18.5,5.49,33-9.83,6.49-35.18,9.58-61.95,10V464.18H352v28.26c-27.62-.79-53.47-4.32-61.95-9.84,2.38-14.48,3.6-18.1,5.93-32.59.7-4.38,5.09-6.07,7.94-6.07a5.58,5.58,0,0,1,1.17.11,260.67,260.67,0,0,0,55.53,6A274.44,274.44,0,0,0,417.46,444a4.54,4.54,0,0,1,.93-.09m0-5a9.53,9.53,0,0,0-2,.2,270.71,270.71,0,0,1-55.84,6,256.85,256.85,0,0,1-54.46-5.87,10.57,10.57,0,0,0-2.23-.23c-5.58,0-11.79,3.53-12.87,10.28-1.18,7.34-2.05,11.77-3,16.46-.87,4.41-1.77,9-2.94,16.11l-.53,3.22,2.74,1.78c13.13,8.53,52.71,10.31,64.53,10.64l5.14.15v-28.4h7.64v28.46l5.07-.07c18.43-.27,51.34-2,64.63-10.79L437,485l-.48-3.16c-1.42-9.45-2.29-14.46-3.4-20.8-.59-3.37-1.25-7.19-2.1-12.26-1-6.21-7.23-9.91-12.62-9.91Z"/><path class="cls-20" d="M360.34,447.09a236.71,236.71,0,0,1-45.15-4.37v0l-3.54-.73-5.85-1.24,2.07-22.21h0L311,384.39h0l1.52-16.28.32-3.52,1.36-14.51,9.57-102.78,3.33.45A247.81,247.81,0,0,0,360.28,250a257.58,257.58,0,0,0,33.58-2.23l3.31-.44,11,115.66h0l3.12,32.76h0l1.49,15.72h0l2.77,29.35-2.79.62-1.48.3-.88.18-4.71,1v-.12A247.3,247.3,0,0,1,360.34,447.09Zm-44.18-14.78c30.91-2.46,66.35-9.57,86.9-17.46l-1.41-15.36c-22.64,8.12-57.35,15.44-84.08,17.68Zm4.5-48.5c27.16-2.61,57.07-9,78-16.74l-1.34-14.64c-21.95,6.49-54.57,13.08-75.17,15.17Zm4.45-47.95c24.83-2.59,52.4-8.3,69.38-14.39L393.1,306.4c-20,5.92-47.4,11.21-66.56,13.94Zm4.32-46.61c16.8-2.38,43.65-7.36,60.88-13.22L389,261.77c-13.89,4.08-37.42,8.56-58,11Z"/><path d="M394.27,250.95l9,95.4.08.82h0l2,20.76h0q1.23,12.85,2.45,25.72h0l2.07,21.84h0q1,10.68,2,21.42l.13,1.32h0v0c-.78.17-1.56.31-2.33.47l-1.19.26v0a243.78,243.78,0,0,1-48.17,4.88,232.44,232.44,0,0,1-48-5v0l-3-.65.21-2.23,2-21.63h0Q312.72,401,314,387.61h0l2.12-22.72h0l1.36-14.51,9.26-99.44a249.9,249.9,0,0,0,33.56,2.26,259.62,259.62,0,0,0,34-2.26m-73.35-7.28-.62,6.68L311,349.79l-1.36,14.51-.66,7h0l-.95,10.19h0l-.51,5.49q-1.25,13.35-2.49,26.76l-.7,7.57h0l-1.31,14.06-.21,2.23-.53,5.7,5.6,1.19,3,.65,7.08,1.51v-.15a239.77,239.77,0,0,0,42.27,3.77,249.62,249.62,0,0,0,42.4-3.69l0,.24,7.14-1.56L411,445l.85-.17,1.5-.3,5.55-1.2-.49-5.66v-.08l-.13-1.33q-.7-7.45-1.4-14.87l-.62-6.55-.86-9.15h0l-.76-8h0l-.45-4.69-2.45-25.72-.81-8.54h0l-1.16-12.21-.08-.82-9-95.4-.63-6.65-6.62.87a254.37,254.37,0,0,1-33.15,2.2,244.59,244.59,0,0,1-32.7-2.2l-6.65-.9Z"/><line class="cls-21" x1="330.72" y1="235.86" x2="318.94" y2="243.01"/><path class="cls-21" d="M331.27,240.15l-12,7.3"/><path class="cls-21" d="M334.6,197.5l-5,3"/><line class="cls-21" x1="338.75" y1="198.65" x2="329.36" y2="204.35"/><path class="cls-21" d="M339.18,202.07l-9.59,5.82"/><path class="cls-21" d="M339.15,206.46l-9.49,5.76"/><path class="cls-21" d="M339.68,209.37l-9.49,5.76"/><path class="cls-21" d="M339.83,213.47l-11.19,6.79"/><path class="cls-21" d="M339.93,217.29,328,224.54"/><path class="cls-21" d="M340.38,220.87l-12.19,7.39"/><path class="cls-21" d="M348.73,178.47,328,187.42"/><path class="cls-21" d="M349.59,182.13,327,190.84"/><path class="cls-21" d="M350.14,185.19l-23.81,9.19"/><path class="cls-21" d="M351.5,187.89l-19.64,7.58"/><path class="cls-21" d="M358.5,161.79l-5.33,2.3"/><path class="cls-21" d="M358.1,165.93l-4.74,1.83"/><path class="cls-21" d="M359.2,168.78l-18.36,7.09"/><path class="cls-21" d="M358.51,172.44,338.87,180"/><path class="cls-21" d="M355.74,190.75l-19.64,7.58"/><path class="cls-21" d="M340.65,223.87l-8.89,5.39"/><path class="cls-21" d="M341.78,226.92l-14.14,8.58"/><path class="cls-21" d="M345,392.68c-2,.88-23.74,12.43-33.09,16.62"/><path class="cls-21" d="M345,396.77c-6.36,2.85-28.43,14.53-33.42,16.77"/><path class="cls-21" d="M345.06,400.93c-6.09,2.73-28.9,14.74-35,17.47"/><path class="cls-21" d="M345.06,404.8c-6.09,2.73-28.9,14.74-35,17.47"/><path class="cls-21" d="M329.05,384.68c-5.66,2.89-11.32,5.82-17.12,8.43"/><path class="cls-21" d="M339.32,383.32c-9.26,4.63-18.32,9.75-27.74,14"/><path class="cls-21" d="M345.06,384.75c-6.09,2.73-28.9,14.74-35,17.47"/><path class="cls-21" d="M345.06,388.61c-6.09,2.73-28.9,14.74-35,17.47"/><path class="cls-21" d="M320.24,373.59c-2.75,1.36-5.5,2.72-8.3,4"/><path class="cls-21" d="M345,360.94c-1.9.9-3.76,1.9-5.62,2.87"/><path class="cls-21" d="M320.18,377.53c-2.85,1.45-5.69,2.94-8.6,4.27"/><path class="cls-21" d="M320.78,381.45c-3.48,1.79-7,3.53-10.55,5.15"/><path class="cls-21" d="M323.27,384c-4.37,2.23-8.72,4.52-13.19,6.54"/><path class="cls-21" d="M345,344.75c-2,.88-23.74,12.43-33.09,16.62"/><path class="cls-21" d="M345,348.84c-6.36,2.85-28.43,14.53-33.42,16.77"/><path class="cls-21" d="M345.06,353c-11.53,5.21-22.51,11.6-33.95,17"/><path class="cls-21" d="M322,368.48c-3.65,1.88-7.31,3.73-11,5.48"/><path class="cls-21" d="M345.06,356.87c-6.36,2.88-12.55,6.11-18.74,9.34"/><path class="cls-21" d="M329.59,336.27c-5.66,3-11.33,5.91-17.15,8.56"/><path class="cls-21" d="M340.55,334.59c-9.57,4.62-18.79,9.91-28.4,14.43"/><path class="cls-21" d="M345.06,336.69c-11.18,5.05-21.87,11.17-32.91,16.5"/><path class="cls-21" d="M345.06,340.55c-11.18,5.05-21.87,11.17-32.91,16.5"/><path class="cls-21" d="M326.7,321.57c-3.69,1.91-7.39,3.81-11.13,5.6"/><path class="cls-21" d="M345,312.24c-4.12,2-8.19,4.05-12.24,6.16"/><path class="cls-21" d="M324.08,326.8c-3.09,1.61-6.19,3.22-9.31,4.77"/><path class="cls-21" d="M323.84,331.09c-3.32,1.72-6.65,3.44-10,5.09"/><path class="cls-21" d="M325,334.34c-4,2.1-8.09,4.2-12.19,6.2"/><path class="cls-21" d="M345,296.69c-9.29,4.42-18.28,9.49-27.53,14"/><path class="cls-21" d="M345,300.78c-9.47,4.27-18.59,9.37-27.86,14"/><path class="cls-21" d="M345.06,304.95c-9.55,4.31-18.75,9.43-28.11,14.13"/><path class="cls-21" d="M345.06,308.81c-9.75,4.41-19.15,9.64-28.72,14.43"/><path class="cls-21" d="M331.19,287.5c-4.21,2.2-8.42,4.41-12.69,6.51"/><path class="cls-21" d="M337.69,288.06c-6.51,3.23-12.9,6.69-19.38,10"/><path class="cls-21" d="M345.06,288.76c-9.23,4.17-18.14,9.1-27.18,13.66"/><path class="cls-21" d="M345.06,292.63c-9.23,4.17-18.14,9.1-27.18,13.66"/><path class="cls-21" d="M345,263.38c-8.6,4.1-16.94,8.77-25.48,13"/><path class="cls-21" d="M345,267.47c-8.76,4-17.21,8.63-25.77,13"/><path class="cls-21" d="M329.38,279.37c-3.51,1.82-7,3.66-10.54,5.44"/><path class="cls-21" d="M329,283.45c-3.48,1.81-7,3.62-10.45,5.39"/><path class="cls-21" d="M345,247.2c-7.76,3.7-15.3,7.9-23,11.75"/><path class="cls-21" d="M345,251.28c-8,3.6-15.71,7.85-23.51,11.84"/><path class="cls-21" d="M345.06,255.45c-8.34,3.77-16.4,8.2-24.56,12.34"/><path class="cls-21" d="M345.06,259.32c-8.57,3.87-16.85,8.43-25.23,12.68"/><path class="cls-21" d="M334.93,242.55c-5,2.24-9.77,4.8-14.61,7.27"/><path class="cls-21" d="M340.49,244.78c-6.42,2.9-12.66,6.27-18.94,9.47"/><path class="cls-21" d="M317.65,424.09l-8.71,3.9"/><path class="cls-21" d="M316.77,428.6l-7.48,3.35"/><path class="cls-21" d="M319.31,431.88l-12.51,5.61"/><path class="cls-21" d="M332,431.78c-9.09,3.26-30.86,13.77-37.14,17"/><path class="cls-21" d="M341.42,431.31c-7.3,3.27-19.09,9-26.39,12.26"/><path class="cls-21" d="M313.2,444.69l-19.64,8.8"/><path class="cls-21" d="M319.34,445.18c-5.6,2.89-21.25,10.53-26.85,13.43"/><path class="cls-21" d="M320.47,448c-4.8,2.48-23.38,12.5-28.19,15"/><path class="cls-21" d="M319.16,452.19c-4.69,2.42-23.16,12.38-27.84,14.81"/><path class="cls-21" d="M319.47,455.53c-5.09,2.63-24,12.8-29,15.43"/><path class="cls-21" d="M317.73,460.36c-4.8,2.48-23.38,12.5-28.19,15"/><path class="cls-21" d="M316.58,464.26c-4.63,2.39-23,12.32-27.66,14.71"/><path class="cls-21" d="M317.68,467.6c-24.42,12.33-31.54,16.94-26.94,14.56"/><path class="cls-21" d="M317.18,471.7c-3.72,1.92-21.22,11.38-24.94,13.31"/><path class="cls-21" d="M315,477.1c-2.32,1.2-18.42,9.94-20.74,11.14"/></svg>