<?xml version="1.0" encoding="utf-8"?>
<!-- Generator: Adobe Illustrator 26.5.0, SVG Export Plug-In . SVG Version: 6.00 Build 0)  -->
<svg version="1.1" id="Layer_1" xmlns="http://www.w3.org/2000/svg" xmlns:xlink="http://www.w3.org/1999/xlink" x="0px" y="0px"
	 viewBox="0 0 2521 2911" style="enable-background:new 0 0 2521 2911;" xml:space="preserve">
<style type="text/css">
	.st0{fill:#144F85;}
	.st1{fill:#173E6C;}
	.st2{fill:#E6B35A;}
	.st3{fill:#FFFFFF;}
	.st4{fill:#FEFEFE;}
</style>
<g>
	<g>
		<polygon class="st0" points="100.5,789.2 100.5,2129 1260.5,2798.8 2420.5,2129 2420.5,789.2 1260.5,119.4 		"/>
		<path class="st1" d="M2420.5,669.8l-953.1-550.4L1260.5,0l-206.9,119.4L100.5,669.8L0,727.7v1455.5l100.5,58l965.1,557.2
			l195.2,112.5l195.2-112.5l965.1-557.2l99.8-57.6V727.7L2420.5,669.8z M2420.5,2129l-1160,669.8L100.5,2129V789.2l1160-669.8
			l1160,669.8V2129z"/>
	</g>
	<path class="st2" d="M1258.8,2171.6c1-1,2.1-2.1,3.1-3.1h-1C1260.5,2169.5,1259.8,2170.6,1258.8,2171.6z"/>
	<path class="st3" d="M634,1733.8h48.4v165.7h1c8.2-14.4,20.2-26.1,34.7-34c15.1-8.9,31.9-13.4,49.4-13.7c35.7,0,92.6,22,92.6,113.6
		v158.2h-48v-152.7c0-42.9-15.8-78.9-61.4-78.9c-31.2,0-55.9,22-64.8,48.4c-2.7,7.2-3.8,15.1-3.4,23v160.2H634L634,1733.8
		L634,1733.8z"/>
	<path class="st3" d="M1068.4,2123.5l-3.8-33.6h-1.7c-14.8,20.9-43.2,39.5-81.3,39.5c-53.9,0-81.3-37.7-81.3-76.2
		c0-64.2,57-99.5,159.9-98.8v-5.5c0-22-6.2-61.4-60.4-61.4c-24.4,0-48.4,6.9-69.3,19.9l-11-31.9c22-14.4,53.9-23.7,87.1-23.7
		c81.3,0,100.9,55.6,100.9,108.8v99.5c-0.3,21.3,1,42.5,4.5,63.8L1068.4,2123.5z M1061.2,1988c-52.8-1-112.5,8.2-112.5,59.7
		c0,31.2,20.9,46,45.6,46c28.8,0.7,54.9-17.2,64.2-44.6c1.7-4.8,2.7-10.3,2.7-15.4V1988z"/>
	<path class="st3" d="M1182.6,1858l52.1,149.3c8.2,22.3,15.4,44.9,21.3,67.9h1.7c6.2-22,13.7-43.9,22.6-67.9l51.5-149.3h50.4
		L1278,2123.5h-46L1131.2,1858H1182.6z"/>
	<path class="st3" d="M1431.7,1999.3c1,65.2,42.9,92.3,91.3,92.3c34.7,0,55.6-6.2,73.4-13.7l8.2,34.7c-17.2,7.5-46,16.5-88.5,16.5
		c-81.7,0-130.7-53.9-130.7-133.8s47.3-143.4,124.5-143.4c86.8,0,109.8,76.2,109.8,125.2c0,7.5-0.7,15.1-1.7,22.6L1431.7,1999.3z
		 M1573.4,1964.7c0.7-30.9-12.7-78.6-66.9-78.6c-48.7,0-70.3,44.9-74.1,78.6H1573.4z"/>
	<path class="st3" d="M1662.3,1929.7c0-27.4-0.7-50.1-2.1-72.1h42.9l2.7,43.9h1c13-25.4,43.9-50.1,87.8-50.1c36.7,0,94,22,94,113.2
		v158.5h-48.4v-153c0-42.9-15.8-78.6-61.4-78.6c-31.9,0-56.6,22.6-64.8,49.4c-2.4,7.2-3.4,14.8-3.4,22.6v159.9h-48v-193.9H1662.3z"
		/>
	<path class="st4" d="M1085.5,803.9h304l-10.6,37.1c-94.3,14.4-190.1,14.4-284.4,0C1091.4,828.6,1088.6,816.3,1085.5,803.9z"/>
	<path d="M1236.8,860.2c-48,0-96.1-3.8-143.8-11l-5.8-0.7l-12.7-53.2h326.3l-15.4,53.2l-5.5,0.7
		C1332.5,856.8,1284.9,860.2,1236.8,860.2z M1101.3,833.4c89.9,13,181.1,13,270.7,0l6.2-20.9h-281.7L1101.3,833.4z"/>
	<path class="st4" d="M1132.2,802.2V671.5h210.3v130.7L1132.2,802.2z M1312.3,767.9v-61.8h-22.6v61.8H1312.3z M1253,767.9v-61.8
		h-30.5v61.8H1253z M1189.1,767.9v-61.8h-23v61.8H1189.1z"/>
	<path d="M1348,807.4H1127v-141H1348V807.4z M1137.7,797.1h200V676.6h-200.4L1137.7,797.1z M1317.8,773h-32.9V701h32.9V773z
		 M1294.8,762.7h12.4v-51.5h-12.4V762.7z M1258.1,773h-40.8V701h40.8V773z M1227.6,762.7h20.2v-51.5h-20.2V762.7z M1194.3,773h-32.9
		V701h32.9V773z M1171.6,762.7h12.4v-51.5h-12.4V762.7z"/>
	<path d="M1333.6,680.7v112.2h-192.1V680.7H1333.6 M1351.8,662.2h-228.8v149.3h228.8L1351.8,662.2L1351.8,662.2z"/>
	<path class="st4" d="M1117.1,671.5v-9.3c0-37.7,41.5-57.6,74.8-73.4c7.2-3.4,14.1-6.5,19.9-10c-2.7-4.5-4.5-10-4.5-15.1
		c0-16.5,13.4-29.9,29.8-29.9c16.5,0,29.8,13.4,29.8,29.9l0,0c0,5.5-1.7,11-4.5,15.4c6.2,3.4,13.7,6.9,21.3,10.6
		c32.9,15.4,73.8,35,73.8,72.4v9.3L1117.1,671.5z"/>
	<path d="M1237.2,543.8c11.3,0,20.2,8.9,20.6,19.9c0,7.2-4.1,13.7-10.3,17.2c28.5,20.2,100.5,37.1,100.5,81.3h-221.6
		c0-43.9,72-61.8,100.2-81.3c-6.2-3.4-9.9-10-9.9-17.2C1216.6,552.4,1225.8,543.5,1237.2,543.8 M1237.2,525.3
		c-21.3,0-38.8,17.2-39.1,38.4c0,3.8,0.7,7.5,1.7,11c-3.8,1.7-7.9,3.8-12,5.8c-33.6,16.1-79.9,38.1-79.9,81.7v18.5h258.7v-18.5
		c0-43.2-45.6-64.8-78.9-80.6c-4.5-2.1-8.9-4.1-13-6.2c1-3.8,1.7-7.5,1.7-11.3C1275.9,542.5,1258.4,525.3,1237.2,525.3L1237.2,525.3
		z"/>
	<path class="st4" d="M1259.1,1597.9h-43.2v97.1l-8.9-0.3c-82.3-2.4-182.5-13-216.8-35l-4.8-3.1l1-5.5c4.1-24.4,7.2-39.8,9.9-54.9
		c3.1-16.1,6.2-31.6,10.3-56.6c3.1-18.5,20.2-28.1,35.7-28.1c2.1,0,3.8,0,5.8,0.7c62.1,13.4,125.2,20.2,188.7,20.2
		c64.8,0,129.7-7.2,193.5-20.6c1.7-0.3,3.4-0.3,5.1-0.3c12.4,0,31.9,8.6,34.7,26.8c3.1,17.5,5.1,30.5,7.2,42.2
		c3.8,21.6,6.9,38.8,11.7,71.4l0.7,5.5l-4.5,3.1c-45.3,29.9-167.1,35-217.2,35.7h-8.6L1259.1,1597.9z"/>
	<path d="M1435.1,1519.7c9.3,0,24,6.5,26.4,19.6c8.2,49.8,11.3,63.5,18.9,113.2c-33.6,22.3-120.8,32.9-212.7,34.3v-97.4h-60.4v97.1
		c-94.7-2.7-183.6-14.8-212.7-33.6c8.2-49.8,12.4-62.1,20.2-111.9c2.4-15.1,17.5-20.9,27.1-20.9c1.4,0,2.7,0,4.1,0.3
		c62.4,13.7,126.6,20.6,190.4,20.6c65.5,0,131.1-7.2,195.2-20.6C1433.1,1519.7,1434.1,1519.7,1435.1,1519.7 M1435.1,1502.5
		c-2.4,0-4.5,0.3-6.9,0.7c-62.8,13.4-127.3,20.2-191.4,20.2c-62.8,0-125.6-6.9-187-20.2c-2.4-0.7-5.1-0.7-7.5-0.7
		c-19.2,0-40.5,12-44.3,35.3c-4.1,25-6.9,40.5-10.3,56.6c-3.1,15.1-6.2,30.9-9.9,55.2l-1.7,11l9.3,6.2
		c44.9,29.2,180.8,35.3,221.3,36.4l17.5,0.3v-97.4h26.1v97.8l17.5-0.3c63.1-1,176-6.9,221.6-37.1l9.3-5.8l-1.7-11
		c-4.8-32.3-7.9-49.8-11.7-71.4c-2.1-11.7-4.1-24.7-7.2-41.9C1474.9,1515.2,1453.7,1502.5,1435.1,1502.5L1435.1,1502.5z"/>
	<path class="st4" d="M1235.8,1530.6c-52.1,0-104-5.1-155.1-15.1l0,0l-12-2.4l-19.9-4.1l7.2-76.2l0,0l10.6-117.3l0,0l5.1-55.9l1-12
		l4.8-49.8l32.9-352.7l11.3,1.4c37.7,5.1,75.8,7.5,113.9,7.5c38.4,0,76.9-2.7,115.3-7.5l11.3-1.4l37.7,397l0,0l10.6,112.5l0,0
		l5.1,53.9l0,0l9.6,100.9l-9.6,2.1l-5.1,1l-3.1,0.7l-16.1,3.4v-0.3C1340.1,1525.5,1287.9,1530.6,1235.8,1530.6z M1084.5,1479.9
		c106-8.6,227.8-32.9,298.1-60l-4.8-52.8c-77.5,27.8-196.9,52.8-288.5,60.7L1084.5,1479.9z M1099.9,1313.4
		c93-8.9,195.9-30.9,267.6-57.3l-4.5-50.1c-75.5,22.3-187.3,44.9-258,52.2L1099.9,1313.4z M1115,1149.1
		c85.1-8.9,179.8-28.5,238.1-49.4l-4.8-51.8c-68.6,20.2-162.6,38.4-228.5,47.7L1115,1149.1z M1129.8,988.9
		c57.6-8.2,149.6-25.4,208.9-45.3l-4.5-49.1c-47.7,14.1-128.3,29.5-199,37.7L1129.8,988.9z"/>
	<path d="M1235.8,1535.8c-50.4,0-100.9-4.8-150.6-14.1l0,0l-5.5-1l-36.7-7.5l62.8-673.9l16.8,2.4c37.4,5.1,75.1,7.5,112.9,7.5
		c38.4,0,76.5-2.7,114.6-7.5l16.8-2.1l49.1,518.4l0,0l14.8,155.4l-14.1,3.1c-1.7,0.3-3.4,0.7-4.8,1l-3.4,0.7l-21.6,4.8v-0.7
		C1337,1531,1286.6,1535.8,1235.8,1535.8z M1078.3,1510.1l3.4,0.7c50.8,10,102.2,14.8,154,14.8s103.6-4.8,154.4-14.4l5.5-1v0.3
		l14.1-3.1l4.8-1l5.1-1l-14.4-154.1l0,0l-9.6-99.8l0,0l-0.7-8.9l-37.4-391.5l-6.2,0.7c-38.4,5.1-77.2,7.5-116,7.5
		c-38.4,0-76.5-2.7-114.2-7.5l-6.2-0.7l-43.9,469.7l0,0l-17.2,184.3L1078.3,1510.1z M1078.7,1485.4l5.8-62.4l4.1-0.3
		c91.3-7.5,209.3-32.6,287.2-60.4l6.2-2.4l5.8,63.1l-3.8,1.4c-70.3,27.1-193.5,51.8-299.5,60.4L1078.7,1485.4z M1093.8,1432.5
		l-3.8,41.5c101.9-8.6,218.2-31.9,286.8-57.6l-3.8-42.2C1295.8,1401.3,1183,1424.6,1093.8,1432.5L1093.8,1432.5z M1094.1,1319.3
		l6.2-65.9l4.1-0.3c70.7-7.2,181.1-29.5,257-51.8l6.2-1.7l5.5,60.4l-3.8,1.4c-72,26.8-175.3,48.7-269,57.6L1094.1,1319.3z
		 M1109.5,1262.7l-4.1,45.3c89.5-9.3,187-30.2,256.6-55.2l-3.8-40.1C1283.8,1234.2,1179.2,1255.1,1109.5,1262.7z M1109.2,1154.9
		l5.8-63.8l4.1-0.7c59.7-8.6,155.1-26.1,227.5-47.7l6.2-1.7l5.8,61.8l-3.8,1.4c-59,21.3-153,40.5-239.1,49.8L1109.2,1154.9z
		 M1124.6,1100.4l-4.1,42.9c81-8.9,170.5-27.4,226.8-47l-3.8-41.5C1273.2,1075,1183.3,1091.8,1124.6,1100.4L1124.6,1100.4z
		 M1124.3,995l6.2-67.3l4.1-0.3c70.7-8.2,150.3-23.3,198.3-37.7l6.2-1.7l5.5,59l-3.8,1.4c-59,19.9-149.9,37.1-210,45.6L1124.3,995z
		 M1139.7,937.1l-4.1,46c58-8.6,141.4-24.4,197.6-42.9l-3.4-38.8C1281.8,914.7,1207,928.8,1139.7,937.1z"/>
	<path d="M1352.4,857.8l30.9,327.3l0.3,2.7l0,0l6.9,71.4l0,0c2.7,29.5,5.5,58.7,8.6,88.2l0,0l7.2,74.8l0,0
		c2.4,24.4,4.5,49.1,6.9,73.4l0.3,4.5l0,0l0,0c-2.7,0.7-5.5,1-7.9,1.7l-4.1,1l0,0c-54.6,11-109.8,16.8-165.4,16.8
		c-55.2,0-110.5-5.8-164.7-17.2l0,0l-10.3-2.1l0.7-7.5l6.9-74.1l0,0c2.7-30.5,5.5-61.1,8.2-92l0,0l7.2-77.9l0,0l4.8-49.8l31.6-341.1
		c38.1,5.1,76.5,7.9,115.3,7.9C1274.9,865.3,1313.7,862.9,1352.4,857.8 M1100.6,832.7l-2.1,23l-31.9,341.1l-4.8,49.8l-2.4,24l0,0
		l-3.4,35l0,0l-1.7,18.9c-2.7,30.5-5.8,61.1-8.6,92l-2.4,26.1l0,0l-4.5,48.4l-0.7,7.5l-1.7,19.6l19.2,4.1l10.3,2.1l24.4,5.1v-0.3
		c48,8.6,96.4,13,145.1,13c48.7,0,97.4-4.5,145.5-12.7v0.7l24.4-5.5l4.1-1l3.1-0.7l5.1-1l18.9-4.1l-1.7-19.6v-0.3l-0.3-4.5
		c-1.7-17.2-3.1-34-4.8-51.1l-2.1-22.3l-3.1-31.2l0,0l-2.7-27.4l0,0l-1.7-16.1l-8.2-88.2l-2.7-29.2l0,0l-4.1-41.9l-0.3-2.7
		l-30.9-327.3l-2.1-22.6l-22.6,3.1c-37.7,5.1-75.8,7.5-113.6,7.5c-37.4,0-75.1-2.4-112.2-7.5L1100.6,832.7L1100.6,832.7z"/>
	<rect x="1090.4" y="816.7" transform="matrix(0.8553 -0.5182 0.5182 0.8553 -262.6728 695.7291)" width="47.3" height="2.7"/>
	<rect x="1091.4" y="831.7" transform="matrix(0.8553 -0.5182 0.5182 0.8553 -270.2264 698.7217)" width="48.4" height="2.7"/>
	<rect x="1129.1" y="677.9" transform="matrix(0.8553 -0.5182 0.5182 0.8553 -187.1016 688.6858)" width="20.2" height="2.7"/>
	<rect x="1127.1" y="686.5" transform="matrix(0.8553 -0.5182 0.5182 0.8553 -190.5644 693.4214)" width="37.7" height="2.7"/>
	<rect x="1127.8" y="698.5" transform="matrix(0.8553 -0.5182 0.5182 0.8553 -196.6749 695.7283)" width="38.4" height="2.7"/>
	<rect x="1128.1" y="713.3" transform="matrix(0.8553 -0.5182 0.5182 0.8553 -204.2901 697.89)" width="38.1" height="2.7"/>
	<rect x="1129.8" y="723.3" transform="matrix(0.8553 -0.5182 0.5182 0.8553 -209.2231 700.228)" width="38.1" height="2.7"/>
	<rect x="1124.1" y="739.3" transform="matrix(0.8553 -0.5182 0.5182 0.8553 -217.8836 701.3848)" width="44.9" height="2.7"/>
	<rect x="1121.6" y="753.1" transform="matrix(0.8553 -0.5182 0.5182 0.8553 -225.129 702.8702)" width="48" height="2.7"/>
	<rect x="1122.4" y="765.8" transform="matrix(0.8553 -0.5182 0.5182 0.8553 -231.5623 705.3005)" width="48.7" height="2.7"/>
	<rect x="1121.8" y="622.7" transform="matrix(0.9182 -0.396 0.396 0.9182 -152.2814 510.6744)" width="77.5" height="2.7"/>
	<rect x="1118.9" y="635.1" transform="matrix(0.9331 -0.3597 0.3597 0.9331 -151.27 460.0103)" width="83" height="2.7"/>
	<rect x="1116.4" y="646.4" transform="matrix(0.9333 -0.3592 0.3592 0.9333 -155.2557 459.9866)" width="87.5" height="2.7"/>
	<rect x="1136" y="652.9" transform="matrix(0.9331 -0.3597 0.3597 0.9331 -156.8998 465.3999)" width="72.1" height="2.7"/>
	<rect x="1210.3" y="554.2" transform="matrix(0.9182 -0.396 0.396 0.9182 -120.2516 528.7234)" width="19.9" height="2.7"/>
	<rect x="1211.4" y="567.5" transform="matrix(0.9331 -0.3595 0.3595 0.9331 -122.9402 476.7203)" width="17.5" height="2.7"/>
	<rect x="1166.8" y="586.3" transform="matrix(0.9331 -0.3595 0.3595 0.9331 -131.0218 470.9569)" width="67.6" height="2.7"/>
	<rect x="1160.1" y="600.1" transform="matrix(0.9331 -0.3597 0.3597 0.9331 -136.2789 470.5209)" width="72.1" height="2.7"/>
	<rect x="1150.5" y="662.9" transform="matrix(0.9331 -0.3597 0.3597 0.9331 -159.5246 471.276)" width="72.1" height="2.7"/>
	<rect x="1135.4" y="772.7" transform="matrix(0.8553 -0.5182 0.5182 0.8553 -234.1883 709.6853)" width="35.7" height="2.7"/>
	<rect x="1119.6" y="788.6" transform="matrix(0.8553 -0.5182 0.5182 0.8553 -243.2158 709.2018)" width="56.6" height="2.7"/>
	<path d="M1070.4,1402l-1-2.4c22-10,64.8-31.9,90.2-45.3c12-6.2,20.9-11,23.3-11.7l1,2.4c-2.1,1-11,5.5-23,11.7
		C1133.6,1371.1,1092.4,1392.4,1070.4,1402z"/>
	<path d="M1069.1,1416.7l-1-2.4c7.9-3.4,29.2-14.4,51.1-25.7c25.4-13,51.8-26.8,63.5-31.9l1,2.4c-11.7,5.1-37.7,18.5-63.5,31.6
		C1098.2,1402.3,1077.3,1413,1069.1,1416.7z"/>
	<path d="M1063.9,1433.5l-1-2.4c10.3-4.8,35.7-17.5,60-29.9s49.7-25.4,60-29.9l1,2.4c-10.3,4.8-35.7,17.5-60,29.9
		C1099.6,1416,1074.5,1428.7,1063.9,1433.5z"/>
	<path d="M1063.9,1446.6l-1-2.4c10.3-4.8,35.7-17.5,60-29.9s49.7-25.4,60-29.9l1,2.4c-10.3,4.8-35.7,17.5-60,29.9
		C1099.6,1429.1,1074.5,1441.8,1063.9,1446.6z"/>
	<path d="M1070.4,1346.7l-1-2.4c18.2-8.2,36.4-17.5,54.2-26.8l4.5-2.4l1,2.4l-4.5,2.4C1107.1,1328.9,1089,1338.2,1070.4,1346.7z"/>
	<path d="M1069.1,1361.1l-1-2.4c20.6-9.3,40.8-19.9,60.4-30.2c11.3-5.8,23.3-12,34.7-17.8l1,2.4c-11.7,5.8-23.3,12-34.7,17.8
		C1109.9,1341.2,1089.6,1351.9,1069.1,1361.1z"/>
	<path d="M1063.9,1378l-1-2.4c10.3-4.8,35.7-17.5,60-29.9s49.7-25.4,60-29.9l1,2.4c-10.3,4.8-35.7,17.5-60,29.9
		C1099.6,1360.5,1074.5,1373.2,1063.9,1378z"/>
	<path d="M1063.9,1391l-1-2.4c10.3-4.8,35.7-17.5,60-29.9c24.4-12.4,49.7-25.4,60-29.9l1,2.4c-10.3,4.8-35.7,17.5-60,29.9
		C1099.6,1373.5,1074.5,1386.5,1063.9,1391z"/>
	<path d="M1070.4,1293.2l-1-2.4c9.9-4.5,19.6-9.3,28.5-13.7l1,2.4C1090,1283.9,1080.4,1288.7,1070.4,1293.2z"/>
	<path d="M1164.8,1245.9l-1.4-2.4l4.8-2.4c4.8-2.4,9.6-5.1,14.8-7.5l1,2.4c-4.8,2.4-9.9,4.8-14.8,7.5L1164.8,1245.9z"/>
	<path d="M1069.1,1307.6l-1-2.4c8.2-3.8,16.5-7.9,24.4-12l4.8-2.4l1,2.4l-4.8,2.4C1085.9,1299.7,1077.6,1303.8,1069.1,1307.6z"/>
	<path d="M1064.6,1324.1l-1-2.4c10.6-4.8,22.3-10.6,36-17.5l1,2.4C1086.9,1313.8,1075.2,1319.3,1064.6,1324.1z"/>
	<path d="M1063.9,1337.8l-1-2.4c12.4-5.5,24.7-12,36.7-17.8l8.6-4.5l1,2.4l-8.6,4.5C1088.6,1325.8,1076.6,1332,1063.9,1337.8z"/>
	<path d="M1070.4,1237.6l-1-2.4c22-10,64.8-31.9,90.2-45.3c12-6.2,20.9-11,23.3-12l1,2.4c-2.1,1-11,5.5-23,11.7
		C1133.6,1206.4,1092.4,1227.7,1070.4,1237.6z"/>
	<path d="M1069.1,1252.4l-1-2.4c7.9-3.4,29.2-14.4,51.1-25.7c25.4-13,51.8-26.8,63.5-31.9l1,2.4c-11.7,5.1-37.7,18.5-63.5,31.6
		C1098.2,1238,1077.3,1248.6,1069.1,1252.4z"/>
	<path d="M1067.7,1267.1l-1-2.4c17.8-8.6,36-17.8,53.2-26.8c20.6-10.6,41.9-22,63.5-31.6l1,2.4c-21.3,9.6-42.5,20.6-63.1,31.6
		C1103.4,1249.3,1085.5,1258.9,1067.7,1267.1z"/>
	<path d="M1067,1280.9l-1-2.4c14.1-6.5,27.4-13.4,37.7-18.9l1,2.4C1094.4,1267.5,1081.1,1274.3,1067,1280.9z"/>
	<path d="M1119.8,1254.1l-1.4-2.4l1-0.7c20.6-10.6,41.9-22,63.5-31.6l1,2.4c-21.3,9.6-42.5,20.6-63.1,31.6L1119.8,1254.1z"/>
	<path d="M1072.1,1181l-1-2.4c19.2-8.9,38.1-18.5,58.7-29.2l1.4,2.4C1110.2,1162.5,1091.4,1172.1,1072.1,1181z"/>
	<path d="M1071.1,1195.4l-1-2.4c17.5-8.2,35-17.5,51.8-26.1c14.8-7.9,30.2-15.8,45.6-23.3l1,2.4c-15.4,7.5-30.5,15.4-45.6,23.3
		C1106.1,1177.9,1088.6,1187.2,1071.1,1195.4z"/>
	<path d="M1071.1,1209.5l-1-2.4c16.1-7.9,32.3-16.1,47.7-24.4c21.3-11,42.9-22.3,65.2-32.3l1,2.4c-22,10-43.9,21.3-65.2,32.3
		C1103.4,1193.4,1087.2,1201.9,1071.1,1209.5z"/>
	<path d="M1071.1,1222.9l-1-2.4c16.1-7.9,32.3-16.1,47.7-24.4c21.3-11,42.9-22.3,65.2-32.3l1,2.4c-22,10-43.9,21.3-65.2,32.3
		C1103.4,1206.7,1087.2,1215,1071.1,1222.9z"/>
	<path d="M1082.8,1120.3l-1-2.4c13.7-6.5,26.8-13.4,38.1-19.2l1,2.4C1109.9,1106.9,1096.5,1113.8,1082.8,1120.3z"/>
	<path d="M1142.1,1090.1l-1.4-2.4c13.4-6.9,27.4-14.1,42.2-21.3l1,2.4C1169.6,1076,1155.2,1083.2,1142.1,1090.1z"/>
	<path d="M1080,1135.4l-1-2.4c11-5.5,21.6-11,31.9-16.5l1.4,2.4C1102,1124.4,1091,1129.9,1080,1135.4z"/>
	<path d="M1076.9,1151.2l-1-2.4c11-5.5,21.6-11,34.3-17.5l1.4,2.4C1098.6,1140.2,1087.9,1145.7,1076.9,1151.2z"/>
	<path d="M1073.5,1166.3l-1-2.4c14.1-6.9,27.8-14.1,41.9-21.3l1,2.4C1101.3,1152.2,1087.6,1159.4,1073.5,1166.3z"/>
	<path d="M1089.6,1063.7l-1-2.4c14.8-7.2,29.5-14.8,43.6-22.3c16.5-8.6,33.6-17.5,50.8-25.7l1,2.4c-17.2,8.2-34.3,17.2-50.8,25.7
		C1118.8,1048.9,1104.4,1056.5,1089.6,1063.7z"/>
	<path d="M1088.3,1078.1l-1-2.4c10.3-5.1,20.9-10.6,31.2-16.1c20.9-11,42.5-22.3,64.5-32.3l1,2.4c-22,10-43.2,21.3-64.2,31.9
		C1109.2,1067.1,1098.9,1072.6,1088.3,1078.1z"/>
	<path d="M1087.6,1092.5l-1-2.4c10.6-5.5,21.6-11,32.3-16.5c20.9-11,42.5-22,64.2-31.9l1,2.4c-21.6,10-43.2,20.9-64.2,31.9
		C1109.5,1081.5,1098.6,1087,1087.6,1092.5z"/>
	<path d="M1085.5,1106.9l-1-2.4c11.3-5.5,22.6-11.7,34-17.5c20.9-11,42.9-22.3,64.8-32.3l1,2.4c-22,10-43.6,21.3-64.5,32.3
		C1108.2,1095.2,1096.8,1101.1,1085.5,1106.9z"/>
	<path d="M1093.1,1006.7l-1-2.4c13.7-6.9,27.8-14.1,41.2-21.3l2.1-1l1.4,2.4l-2.1,1C1120.9,992.3,1106.8,999.8,1093.1,1006.7z"/>
	<path d="M1092.4,1020.4l-1-2.4c9.6-4.8,18.9-9.6,28.5-14.8c12.4-6.5,25.4-13.4,38.1-19.6l1,2.4c-12.7,6.5-25.7,13-38.1,19.6
		C1111.3,1010.5,1101.7,1015.6,1092.4,1020.4z"/>
	<path d="M1090.7,1035.5l-1-2.4c9.9-5.1,20.2-10.3,30.2-15.4c20.6-10.6,41.9-21.6,63.1-31.2l1,2.4c-21.3,9.6-42.5,20.6-63.1,31.2
		C1111.3,1024.9,1101,1030.4,1090.7,1035.5z"/>
	<path d="M1090.7,1048.6l-1-2.4c9.9-5.1,20.2-10.3,30.2-15.4c20.6-10.6,41.9-21.6,63.1-31.2l1,2.4c-21.3,9.6-42.5,20.6-63.1,31.2
		C1111.3,1038.3,1101,1043.4,1090.7,1048.6z"/>
	<path d="M1096.5,946l-1-2.4c12.7-6.2,25.7-13,38.1-19.6c16.1-8.6,32.6-17.2,49.4-25l1,2.4c-16.5,7.9-33.3,16.5-49.1,25
		C1122.2,932.9,1109.2,939.8,1096.5,946z"/>
	<path d="M1095.5,960l-1-2.4c8.9-4.5,17.5-8.9,26.4-13.7c20.2-10.6,41.2-21.3,62.1-30.9l1,2.4c-20.9,9.6-41.9,20.2-61.8,30.9
		C1113,950.8,1104.4,955.6,1095.5,960z"/>
	<path d="M1094.1,974.8l-1-2.4c9.6-4.8,19.2-10,28.5-14.8l7.5-3.8l1.4,2.4l-7.5,3.8C1113.3,965.2,1103.7,970,1094.1,974.8z"/>
	<path d="M1093.1,988.9l-1-2.4c9.6-4.8,19.2-10,29.2-15.1l6.9-3.4l1,2.4l-6.9,3.4C1112.3,978.9,1102.7,984.1,1093.1,988.9z"/>
	<path d="M1105.1,886.3l-1-2.4c10.6-5.5,21.6-11,32.3-16.8c15.1-7.9,30.9-16.1,46.7-23.7l1,2.4c-15.8,7.5-31.2,15.8-46.7,23.7
		C1126.7,874.9,1116.1,880.8,1105.1,886.3z"/>
	<path d="M1103.4,900.7l-1.4-2.4c7.5-3.8,14.8-7.5,22.3-11.3c18.9-10,38.8-20.2,58.7-29.2l1,2.4c-19.9,8.9-39.5,19.2-58.3,29.2
		C1118.1,892.8,1110.6,896.9,1103.4,900.7z"/>
	<path d="M1099.9,916.5l-1-2.4c8.2-4.1,16.8-8.6,25-13c19.2-10,39.1-20.2,59.4-29.5l1,2.4c-20.2,8.9-40.1,19.6-59.4,29.5
		C1116.4,907.9,1108.2,912.3,1099.9,916.5z"/>
	<path d="M1097.5,930.9l-1-2.4c8.6-4.5,17.5-8.9,26.1-13.4c19.6-10.3,39.8-20.6,60.4-30.2l1,2.4c-20.6,9.3-40.8,19.9-60.4,29.9
		C1115,922,1106.5,926.4,1097.5,930.9z"/>
	<path d="M1099.2,854.7l-1-2.4l10.3-5.5c13-6.5,26.4-13.4,39.8-19.6l1,2.4c-13.4,6.2-26.8,13-39.5,19.6L1099.2,854.7z"/>
	<path d="M1103.4,870.1l-1-2.4l16.1-8.2c15.8-8.2,32.3-16.8,49.1-24.4l1,2.4c-16.5,7.5-32.9,15.8-48.7,24L1103.4,870.1z"/>
	<rect x="1058.1" y="1457.2" transform="matrix(0.9126 -0.4088 0.4088 0.9126 -502.4409 566.7466)" width="32.6" height="2.7"/>
	<rect x="1059.5" y="1471.6" transform="matrix(0.9126 -0.4088 0.4088 0.9126 -508.4037 567.6321)" width="28.1" height="2.7"/>
	<rect x="1050.2" y="1486.7" transform="matrix(0.9126 -0.4088 0.4088 0.9126 -514.5482 569.0216)" width="47" height="2.7"/>
	<path d="M1011.8,1537.8l-1-2.4c20.2-10.6,95.4-47,127.6-58.7l1,2.4C1107.1,1490.8,1032,1527.2,1011.8,1537.8z"/>
	<path d="M1081.1,1519.7l-1-2.4c12.4-5.5,29.2-13.4,45.3-20.9c16.1-7.5,32.6-15.4,45.3-20.9l1,2.4c-12.4,5.5-29.2,13.4-45.3,20.9
		C1110.2,1506.3,1093.4,1514.2,1081.1,1519.7z"/>
	<rect x="1003.5" y="1536.1" transform="matrix(0.9126 -0.4088 0.4088 0.9126 -537.6718 559.73)" width="73.8" height="2.7"/>
	<path d="M1003.9,1571.1l-1-2.4c9.6-5.1,28.1-14.1,46-23s36.4-18.2,46-23l1,2.4c-9.6,5.1-28.1,14.1-46,23
		S1013.5,1566.3,1003.9,1571.1z"/>
	<path d="M1003.2,1586.2l-1-2.4c8.2-4.1,28.5-15.1,48.4-25.7s40.1-21.6,48.4-25.7l1.4,2.4c-8.2,4.1-28.8,15.1-48.4,25.7
		C1032.3,1571.1,1011.4,1581.8,1003.2,1586.2z"/>
	<path d="M999.8,1600l-1.4-2.4c7.9-4.1,28.1-14.8,47.7-25.4c19.6-10.6,39.8-21.3,48-25.4l1,2.4c-8.2,4.1-28.5,15.1-48,25.4
		C1027.5,1584.9,1007.6,1595.8,999.8,1600z"/>
	<path d="M996.7,1613.7l-1-2.4c8.6-4.5,29.5-15.8,49.7-26.4s41.2-22,49.7-26.4l1,2.4c-8.6,4.5-29.5,15.8-49.7,26.4
		S1005.2,1609.2,996.7,1613.7z"/>
	<path d="M993.6,1628.8l-1-2.4c8.2-4.1,28.5-15.1,48.4-25.7c19.9-10.6,40.1-21.3,48.4-25.7l1,2.4c-8.2,4.1-28.5,15.1-48.4,25.7
		C1022.1,1613.7,1001.8,1624.3,993.6,1628.8z"/>
	<path d="M991.5,1641.1l-1-2.4c7.9-4.1,28.1-14.8,47.3-25.4c19.2-10.6,39.5-21.3,47.3-25.4l1,2.4c-7.9,4.1-28.1,14.8-47.3,25.4
		C1019.7,1626.4,999.4,1637,991.5,1641.1z"/>
	<path d="M992.5,1654.2c-0.3,0-0.3,0-0.7-0.3l-0.7-1c0-2.7,58.3-33.3,97.8-53.2l1,2.4c-55.2,27.8-83.4,43.6-92.6,49.4l0.3,0.7
		C996,1653.1,994.3,1653.8,992.5,1654.2z"/>
	<path d="M1002.8,1661.7l-1-2.4c6.5-3.4,25-13.4,42.9-23c17.8-9.6,36.4-19.6,42.9-22.6l1,2.4c-6.5,3.4-24.7,13.4-42.5,22.6
		C1028.2,1648,1009.4,1658.6,1002.8,1661.7z"/>
	<path d="M1010,1673l-1-2.4c3.8-2.1,19.9-10.6,35.3-18.9c15.4-8.2,31.6-17.2,35.7-19.2l1,2.4c-4.1,2.1-20.2,10.6-35.7,19.2
		C1029.9,1662.7,1013.8,1671,1010,1673z"/>
</g>
</svg>
