<svg id="Layer_1" data-name="Layer 1" xmlns="http://www.w3.org/2000/svg" xmlns:xlink="http://www.w3.org/1999/xlink" viewBox="0 0 735 852"><defs><style>.cls-1{fill:#36a85d;}.cls-2{fill:#e6b35a;}.cls-3{fill:#fff;}.cls-4{fill:#c3e5cf;}.cls-5{fill:#22834a;}.cls-6{opacity:0.25;fill:url(#linear-gradient);}</style><linearGradient id="linear-gradient" x1="366.14" y1="-122.4" x2="367.44" y2="341.13" gradientUnits="userSpaceOnUse"><stop offset="0" stop-color="#fff" stop-opacity="0.83"/><stop offset="0.56" stop-color="#fff" stop-opacity="0.37"/><stop offset="1" stop-color="#fff" stop-opacity="0"/></linearGradient></defs><title>hms</title><path class="cls-1" d="M29.37,621.47V231l50.25-29L367.49,35.82h0L656.07,202.43,705.61,231V621.47L367.49,816.68Z"/><path class="cls-2" d="M367,633.9c.29-.29.61-.59.94-.89h-.26C367.49,633.31,367.26,633.61,367,633.9Z"/><path class="cls-3" d="M241.5,504.85h14.08v48.32h.32A26.13,26.13,0,0,1,266,543.25a29,29,0,0,1,14.4-4c10.4,0,27,6.4,27,33.12v46.08H293.34V574c0-12.48-4.64-23-17.92-23-9.12,0-16.32,6.4-18.88,14.08a17,17,0,0,0-1,6.72v46.72H241.5Z"/><path class="cls-3" d="M325.18,562c0-8-.16-14.56-.64-21h12.32l.64,12.48H338c4.32-7.36,11.52-14.24,24.32-14.24,10.56,0,18.56,6.4,21.92,15.52h.32a31.9,31.9,0,0,1,8.64-10.08c4.64-3.52,9.76-5.44,17.12-5.44,10.24,0,25.44,6.72,25.44,33.6v45.6H422V574.61c0-14.88-5.44-23.84-16.8-23.84-8,0-14.24,5.92-16.64,12.8a23.19,23.19,0,0,0-1.12,7v47.84H373.66v-46.4c0-12.32-5.44-21.28-16.16-21.28-8.8,0-15.2,7-17.44,14.08a19.41,19.41,0,0,0-1.12,6.88v46.72H325.18Z"/><path class="cls-3" d="M451.58,604.05a36.9,36.9,0,0,0,18.56,5.6c10.24,0,15-5.12,15-11.52,0-6.72-4-10.4-14.4-14.24-13.92-5-20.48-12.64-20.48-21.92,0-12.48,10.08-22.72,26.72-22.72a38.65,38.65,0,0,1,19,4.8l-3.52,10.24a30.14,30.14,0,0,0-15.84-4.48c-8.32,0-13,4.8-13,10.56,0,6.4,4.64,9.28,14.72,13.12,13.44,5.12,20.32,11.84,20.32,23.36,0,13.6-10.56,23.2-29,23.2-8.48,0-16.32-2.08-21.76-5.28Z"/><path class="cls-3" d="M402,780.41c-.71-1.23-1.35-2.28-2-3.21l1.66-1,1.26,2,.09,0a3.63,3.63,0,0,1,1.56-4,2.36,2.36,0,0,1,.58-.25l1,1.79a3.37,3.37,0,0,0-.69.31,3.1,3.1,0,0,0-1.12,3.93,5.83,5.83,0,0,0,.43.94l3.24,5.57-1.88,1.09Z"/><path class="cls-3" d="M411.88,781.7a5.7,5.7,0,0,0,2.94-.71c1.38-.8,1.63-1.87,1.13-2.73s-1.36-1.09-3.07-.79c-2.27.42-3.76-.1-4.48-1.35-1-1.69-.43-3.86,1.82-5.17a5.93,5.93,0,0,1,2.95-.85l.32,1.66a4.69,4.69,0,0,0-2.49.64,1.77,1.77,0,0,0-.92,2.44c.51.87,1.36.89,3,.62,2.22-.37,3.68,0,4.58,1.55,1.07,1.84.4,4-2.08,5.41a6.94,6.94,0,0,1-3.36,1Z"/><path class="cls-3" d="M416.28,763.72l1.74,3,2.73-1.58.84,1.44-2.72,1.59,3.28,5.63c.75,1.3,1.55,1.82,2.61,1.21a4.52,4.52,0,0,0,1-.78l.92,1.38a5.56,5.56,0,0,1-1.53,1.24,3.06,3.06,0,0,1-2.52.4,4.51,4.51,0,0,1-2.32-2.3l-3.32-5.7-1.62.94-.84-1.45,1.62-.94-1.46-2.5Z"/><path class="cls-3" d="M436.06,766.4c.63,1.08,1.2,2,1.75,2.8l-1.69,1-1.1-1.64,0,0a4.57,4.57,0,0,1-2.33,4c-1.64,1-4.13,1.19-6.27-2.48l-3.56-6.11,1.9-1.11,3.37,5.79c1.16,2,2.54,3,4.27,2a3.17,3.17,0,0,0,1.5-3.19,3.09,3.09,0,0,0-.39-1.07l-3.74-6.42,1.9-1.1Z"/><path class="cls-3" d="M441,746.82l7.35,12.64c.54.92,1.18,2,1.66,2.65l-1.71,1-1.14-1.77,0,0a4.5,4.5,0,0,1-2.37,4.13c-2.53,1.47-5.72.46-7.56-2.71-2.05-3.47-1.14-6.86,1.41-8.35a4.07,4.07,0,0,1,4.09-.24l0,0-3.64-6.24Zm3.41,10.24a3.38,3.38,0,0,0-4.57-1.35c-2,1.14-2.13,3.55-.78,5.86,1.23,2.12,3.29,3.26,5.34,2.07a3.3,3.3,0,0,0,1.46-3.89,3.33,3.33,0,0,0-.39-.87Z"/><path class="cls-3" d="M447.38,745.69a1.36,1.36,0,0,1-2.35,1.38,1.34,1.34,0,0,1,.49-1.88A1.3,1.3,0,0,1,447.38,745.69Zm5.68,14.63L447,749.86l1.9-1.1L455,759.21Z"/><path class="cls-3" d="M464.48,746.55c2.25,3.87.56,7.11-2,8.59-2.83,1.64-6.22.84-8.14-2.47-2-3.49-.94-6.88,1.95-8.56S462.62,743.36,464.48,746.55Zm-8.23,4.94c1.34,2.29,3.66,3.25,5.52,2.17s2.18-3.56.81-5.91c-1-1.77-3.23-3.5-5.48-2.19S455.09,749.5,456.25,751.49Z"/><path class="cls-3" d="M468.35,749.91a1.48,1.48,0,0,1,.5-2.11,1.58,1.58,0,1,1-.5,2.11Z"/><path class="cls-3" d="M481.16,743.44a8.2,8.2,0,0,1-2.65,2.35c-3.16,1.84-6.45.89-8.32-2.3a6.15,6.15,0,0,1,2.39-8.82,7.23,7.23,0,0,1,2.95-1l.42,1.72a5.17,5.17,0,0,0-2.49.79c-2.4,1.4-2.66,3.92-1.39,6.1,1.4,2.42,3.83,3,5.9,1.8a6.26,6.26,0,0,0,2-1.88Z"/><path class="cls-3" d="M489.84,731.78c2.26,3.87.56,7.12-2,8.59-2.83,1.64-6.21.84-8.14-2.46-2-3.5-.94-6.89,1.95-8.57S488,728.59,489.84,731.78Zm-8.23,4.94c1.34,2.29,3.66,3.25,5.52,2.17s2.18-3.55.81-5.91c-1-1.77-3.22-3.5-5.47-2.19S480.46,734.74,481.61,736.72Z"/><path class="cls-3" d="M490.9,728.08c-.63-1.08-1.17-2-1.73-2.78l1.66-1L491.9,726l.06,0a4.18,4.18,0,0,1,2.17-3.83,3.57,3.57,0,0,1,4.17.37l.05,0a5,5,0,0,1,.37-2,4.14,4.14,0,0,1,1.88-2.08c1.39-.81,4-1.09,6.08,2.54l3.58,6.15-1.85,1.08L505,722.17c-1.17-2-2.61-2.79-4.14-1.89a2.83,2.83,0,0,0-1.24,3,3.57,3.57,0,0,0,.4,1l3.76,6.46-1.86,1.08-3.64-6.26c-1-1.67-2.41-2.45-3.86-1.61a3.31,3.31,0,0,0-.86,4.29l3.68,6.31-1.86,1.08Z"/><path class="cls-3" d="M365.5,23.21c-5.8,0-20.45,12.61-19.84,25.15v.06l21.83-12.6h0l21.82,12.6c-.47-10.28-15.09-25.21-23.81-25.21"/><path class="cls-4" d="M367.49,35.82h0l-21.83,12.6v56.35q8.59-.45,17.3-.45c8.88,0,17.65.46,26.36,1.14V48.92c0-.17,0-.33,0-.5l-21.82-12.6"/><path class="cls-3" d="M389.32,804.08l-21.83,12.6-21.83-12.6v.36c4.65,6.61,17.35,19.75,23.15,19.75,8.88,0,16.56-12.83,20.51-19.07v-1"/><path class="cls-4" d="M363,747.6c-5.8,0-11.56.18-17.3.43v56.05l21.83,12.6,21.83-12.6V748.59c-8.73-.59-17.5-1-26.36-1"/><path class="cls-3" d="M207.91,128q-10.07,5.42-19.76,11.39v0L207.91,128"/><path class="cls-4" d="M210.87,126.38l-3,1.57-19.75,11.41,28.21,48.85q11.06-6.9,22.72-12.93l-28.22-48.9"/><path class="cls-3" d="M42.56,223.42c-3.47.2-14.18.09-16.32,3.83s.43,11.32,3.13,18.36V231l13.19-7.62"/><path class="cls-4" d="M42.59,223.42h0L29.37,231v14.57c.06.16.12.33.19.49l48.9,28.22c4.05-7.74,8.38-15.32,13-22.68L42.59,223.42"/><path class="cls-4" d="M86.25,409.52H29.82c-.27,5.94-.45,11.89-.45,17.9,0,8.67.38,17.23.94,25.75H86.85c-.65-8.51-1.09-17.08-1.09-25.75,0-6,.18-12,.49-17.9"/><path class="cls-3" d="M29.37,606.84c-.46,1.29-11.43,10.48-11,11.15,3.54,6.29,14.59,9.23,18.47,15.31a.11.11,0,0,0,.1.05c.39,0,1.66-1.06,2.93-2.12a15.51,15.51,0,0,1,2.81-2.11l-13.26-7.65V606.84"/><path class="cls-4" d="M78.2,578.53l-48.83,28.2s0,.06,0,.11v14.63l13.26,7.65.11,0a.13.13,0,0,1,.11,0l48.87-28.22c-4.78-7.28-9.31-14.74-13.52-22.4"/><path class="cls-3" d="M192.84,715.85l0,0c7.46,4.51,14.86,9,22.62,13l-22.58-13"/><path class="cls-4" d="M221,667.07l-28.16,48.78,22.58,13h0l28.5-49.2c-7.82-3.93-15.49-8.08-22.92-12.62"/><path class="cls-3" d="M529.4,129.3l8.37,4.83.22-.38q-4.34-2.17-8.59-4.45"/><path class="cls-4" d="M515.06,121.13,486.87,170c7.46,4.5,14.86,9,22.62,13l28.28-48.81-8.37-4.83c-4.86-2.6-9.65-5.31-14.34-8.17"/><path class="cls-3" d="M548.08,712.42l-21.66,12.5.11.18c7.35-4,14.5-8.25,21.55-12.68"/><path class="cls-4" d="M520.84,662.94c-7.33,4.68-14.83,9.15-22.54,13.27l28.12,48.71,21.66-12.5,1-.61-28.21-48.87"/><path class="cls-3" d="M705.61,606.56v14.91l-13.24,7.64,0,0a8.54,8.54,0,0,0,2.81.47c9.46,0,19.08-14.9,10.41-23h0"/><path class="cls-4" d="M656.73,578.34q-6.16,11.56-13.2,22.58l48.84,28.19,13.24-7.64V606.56l-48.88-28.22"/><path class="cls-3" d="M706.17,409.52h-.56v43.65h.07c.56-8.52.94-17.08.94-25.75,0-6-.18-12-.45-17.9"/><path class="cls-4" d="M705.61,409.52H649.73c.32,5.92.5,11.89.5,17.9,0,8.67-.44,17.24-1.09,25.75h56.47V409.52"/><path class="cls-3" d="M699.72,221.46a12,12,0,0,0-6.8,2.13l-.1.06L705.61,231v15.43c12.56-12.74,4-25-5.89-25"/><path class="cls-4" d="M692.82,223.65,644.08,251.8c4.53,7.43,8.7,15.1,12.63,22.89l48.9-28.22V231l-12.79-7.39"/><path class="cls-4" d="M486.39,211.15l-5-2.59a1.9,1.9,0,0,0-.88-.21c-1.58,0-3.6,1.67-4.92,4.21L406.94,339.93l-33.29,61.78a31.25,31.25,0,0,0-5.76-.62h-.51a31.46,31.46,0,0,0-20.71,7.76L241.22,348.63a9.4,9.4,0,0,0-4.58-1.44,2.69,2.69,0,0,0-2.45,1.07l-2.89,4.82c-.94,1.57.7,4.27,3.65,6l101.89,65.36A31.68,31.68,0,0,0,339.15,447c1.49,3.46,5.05,7.87,10,11.38.16.12.33.24.51.35s.49.34.75.5l.29.19a30.36,30.36,0,0,0,16.17,4.92,27.24,27.24,0,0,0,3.1-.18,31.39,31.39,0,0,0,19.09-8.61,27.94,27.94,0,0,0,9.07-16.19,31.38,31.38,0,0,0,.69-6.82c0-.65,0-1.3,0-1.94a31.43,31.43,0,0,0-9-20.08l36.57-72.83,60-119.48C488,215.14,488,212,486.39,211.15ZM381,432.84a13.62,13.62,0,0,1-13.58,13.41h-.24a13.56,13.56,0,0,1-8.62-3.24,11.5,11.5,0,0,1-.95-.9,13.79,13.79,0,0,1-3.84-9.47v-.22a13.51,13.51,0,0,1,3.17-8.5h0l.13-.16h0c.17-.19.35-.37.52-.55h0c.18-.18.35-.36.53-.53h0l.17-.14h0l.28-.25,0,0a13.59,13.59,0,0,1,8.75-3.23h.25A13.6,13.6,0,0,1,378,424.13c.27.34.53.7.77,1.06a13.61,13.61,0,0,1,2.21,7.45C381,432.71,381,432.78,381,432.84Z"/><path class="cls-5" d="M367.39,419h0a13.59,13.59,0,0,0-8.75,3.23l0,0-.28.25h0l-.17.14h0c-.18.17-.35.35-.53.53h0c-.17.18-.35.36-.52.55h0l-.13.16h0a13.51,13.51,0,0,0-3.17,8.5v.22a13.79,13.79,0,0,0,3.84,9.47,11.5,11.5,0,0,0,.95.9,13.56,13.56,0,0,0,8.62,3.24h.24A13.62,13.62,0,0,0,381,432.84h0c0-.06,0-.13,0-.2a13.61,13.61,0,0,0-2.21-7.45c-.24-.36-.5-.72-.77-1.06A13.6,13.6,0,0,0,367.61,419h-.22"/><path class="cls-5" d="M734.91,637.38V213.13l-29.3-16.92L427.81,35.82,367.5,1,307.19,35.82,29.37,196.22.09,213.13V637.38l29.28,16.91L310.65,816.68l56.85,32.83,56.85-32.83L705.61,654.3ZM29.37,621.47V231l50.25-29L367.49,35.82h0L656.07,202.43,705.61,231V621.47L367.49,816.68Z"/><path class="cls-6" d="M366.9,340.43c128.23,0,238.57-57,287.81-138.79L367.5,35.82h0L79.38,202.16C128.79,283.68,238.94,340.43,366.9,340.43Z"/></svg>