<?xml version="1.0" encoding="utf-8"?>
<!-- Generator: Adobe Illustrator 26.5.0, SVG Export Plug-In . SVG Version: 6.00 Build 0)  -->
<svg version="1.1" id="Layer_1" xmlns="http://www.w3.org/2000/svg" xmlns:xlink="http://www.w3.org/1999/xlink" x="0px" y="0px"
	 viewBox="0 0 2521 2911" style="enable-background:new 0 0 2521 2911;" xml:space="preserve">
<style type="text/css">
	.st0{fill:#36A85D;}
	.st1{fill:#E6B35A;}
	.st2{fill:#FFFFFF;}
	.st3{fill:#C3E5CF;}
	.st4{fill:#22834A;}
	.st5{opacity:0.25;fill:url(#SVGID_1_);enable-background:new    ;}
</style>
<g>
	<path class="st0" d="M100.5,2128.7V789.1l172.4-99.5l987.6-570.1l0,0L2250.5,691l170,98v1339.6l-1160,669.7L100.5,2128.7z"/>
	<path class="st1" d="M1258.8,2171.3c1-1,2.1-2,3.2-3.1h-0.9C1260.5,2169.3,1259.7,2170.3,1258.8,2171.3z"/>
	<path class="st2" d="M828.2,1728.6h48.3v165.8h1.1c8.2-14.3,20.2-26.1,34.7-34c15-8.8,32-13.5,49.4-13.7c35.7,0,92.6,22,92.6,113.6
		v158.1h-48.2v-152.5c0-42.8-15.9-78.9-61.5-78.9c-31.3,0-56,22-64.8,48.3c-2.7,7.4-3.9,15.2-3.4,23.1v160.3h-48.2V1728.6z"/>
	<path class="st2" d="M1115.3,1924.6c0-27.4-0.5-50-2.2-72h42.3l2.2,42.8h1.7c14.8-25.2,39.5-48.9,83.4-48.9
		c36.2,0,63.7,22,75.2,53.2h1.1c7.3-13.5,17.4-25.3,29.6-34.6c15.9-12.1,33.5-18.7,58.7-18.7c35.1,0,87.3,23.1,87.3,115.3v156.4
		h-47.2v-150.4c0-51-18.7-81.8-57.6-81.8c-27.4,0-48.9,20.3-57.1,43.9c-2.5,7.8-3.8,15.9-3.8,24v164.1h-47.3V1959
		c0-42.3-18.7-73-55.4-73c-30.2,0-52.1,24-59.8,48.3c-2.7,7.6-4,15.6-3.8,23.6v160.3h-47.2V1924.6z"/>
	<path class="st2" d="M1549,2068.9c19.1,12,41.1,18.6,63.7,19.2c35.1,0,51.5-17.6,51.5-39.5c0-23.1-13.7-35.7-49.4-48.9
		c-47.8-17.2-70.3-43.4-70.3-75.2c0-42.8,34.6-77.9,91.7-77.9c22.8-0.2,45.2,5.5,65.2,16.5l-12.1,35.1
		c-16.3-10.1-35.2-15.4-54.3-15.4c-28.5,0-44.6,16.5-44.6,36.2c0,22,15.9,31.8,50.5,45c46.1,17.6,69.7,40.6,69.7,80.1
		c0,46.7-36.2,79.6-99.5,79.6c-29.1,0-56-7.1-74.7-18.1L1549,2068.9z"/>
	<path class="st2" d="M1253.6,76.2c-19.9,0-70.2,43.3-68.1,86.3v0.2l74.9-43.2l0,0l74.9,43.2C1333.7,127.4,1283.6,76.2,1253.6,76.2"
		/>
	<path class="st3" d="M1260.5,119.5L1260.5,119.5l-74.9,43.2V356c19.6-1,39.4-1.5,59.4-1.5c30.5,0,60.6,1.6,90.4,3.9v-194
		c0-0.6,0-1.1,0-1.7L1260.5,119.5"/>
	<path class="st2" d="M1335.4,2755.1l-74.9,43.2l-74.9-43.2v1.2c16,22.7,59.5,67.8,79.4,67.8c30.5,0,56.8-44,70.4-65.4v-3.4"/>
	<path class="st3" d="M1245.1,2561.4c-19.9,0-39.7,0.6-59.4,1.5v192.3l74.9,43.2l74.9-43.2v-190.4
		C1305.5,2562.7,1275.5,2561.3,1245.1,2561.4"/>
	<path class="st2" d="M713,435.7c-23,12.4-45.6,25.4-67.8,39.1l0,0L713,435.7"/>
	<path class="st3" d="M723.1,430.1l-10.3,5.4l-67.8,39.1l96.8,167.6c25.3-15.8,51.3-30.6,77.9-44.4L723,430.1"/>
	<path class="st2" d="M145.7,763.1c-11.9,0.7-48.6,0.3-56,13.1c-7.3,12.8,1.5,38.8,10.7,63v-50.1l45.3-26.1"/>
	<path class="st3" d="M145.8,763.1L145.8,763.1l-45.4,26v50c0.2,0.5,0.4,1.1,0.7,1.7l167.8,96.8c13.9-26.6,28.7-52.6,44.6-77.8
		L145.8,763.1"/>
	<path class="st3" d="M295.6,1401.5H102c-0.9,20.4-1.5,40.8-1.5,61.4c0,29.7,1.3,59.1,3.2,88.3h194c-2.2-29.2-3.7-58.6-3.7-88.3
		C293.9,1442.3,294.5,1421.8,295.6,1401.5"/>
	<path class="st2" d="M100.5,2078.5c-1.6,4.4-39.2,36-37.7,38.3c12.1,21.6,50.1,31.7,63.4,52.5c0.1,0.1,0.2,0.2,0.3,0.2
		c1.3,0,5.7-3.6,10.1-7.3c2.9-2.8,6.2-5.2,9.6-7.2l-45.5-26.2v-50.2"/>
	<path class="st3" d="M268,1981.3l-167.5,96.7c0,0,0,0.2,0,0.4v50.2l45.5,26.2h0.4c0.1-0.1,0.3-0.1,0.4,0l167.7-96.8
		c-16.4-25-31.9-50.6-46.4-76.8"/>
	<path class="st2" d="M661.3,2452.4L661.3,2452.4c25.6,15.5,51,30.9,77.6,44.6l-77.5-44.6"/>
	<path class="st3" d="M757.9,2285.1l-96.6,167.4l77.5,44.6l0,0l97.8-168.8c-26.8-13.5-53.1-27.7-78.6-43.3"/>
	<path class="st2" d="M1815.9,440.2l28.7,16.6l0.8-1.3C1835.5,450.5,1825.7,445.4,1815.9,440.2"/>
	<path class="st3" d="M1766.7,412.1L1670,579.8c25.6,15.4,51,30.9,77.6,44.6l97-167.5l-28.7-16.6c-16.7-8.9-33.1-18.2-49.2-28"/>
	<path class="st2" d="M1880,2440.7l-74.3,42.9l0.4,0.6C1831.3,2470.5,1855.8,2455.9,1880,2440.7"/>
	<path class="st3" d="M1786.6,2270.9c-25.1,16.1-50.9,31.4-77.3,45.5l96.5,167.1l74.3-42.9l3.4-2.1l-96.8-167.7"/>
	<path class="st2" d="M2420.5,2077.5v51.2l-45.4,26.2l0,0c3.1,1.1,6.4,1.6,9.6,1.6C2417.2,2156.5,2450.2,2105.4,2420.5,2077.5
		L2420.5,2077.5"/>
	<path class="st3" d="M2252.8,1980.7c-14.1,26.4-29.2,52.3-45.3,77.5l167.6,96.7l45.4-26.2v-51.2L2252.8,1980.7"/>
	<path class="st2" d="M2422.4,1401.5h-1.9v149.8h0.2c1.9-29.2,3.2-58.6,3.2-88.3C2423.9,1442.3,2423.3,1421.8,2422.4,1401.5"/>
	<path class="st3" d="M2420.5,1401.5h-191.7c1.1,20.3,1.7,40.8,1.7,61.4c0,29.7-1.5,59.1-3.7,88.3h193.7V1401.5"/>
	<path class="st2" d="M2400.3,756.3c-8.3,0-16.5,2.6-23.3,7.3l-0.3,0.2l43.9,25.2V842c43.1-43.7,13.7-85.8-20.2-85.8"/>
	<path class="st3" d="M2376.6,763.8l-167.2,96.6c15.5,25.5,29.8,51.8,43.3,78.5l167.8-96.8v-53.1l-43.9-25.4"/>
	<path class="st3" d="M1668.4,721l-17.2-8.9c-0.9-0.5-2-0.7-3-0.7c-5.4,0-12.4,5.7-16.9,14.4l-235.5,437l-114.2,211.9
		c-6.5-1.3-13.1-2-19.8-2.1h-1.7c-26.1,0-51.4,9.4-71.1,26.6l-361.8-206.6c-4.7-3-10.1-4.7-15.7-4.9c-3.3-0.4-6.5,1-8.4,3.7
		l-9.9,16.5c-3.2,5.4,2.4,14.6,12.5,20.6l349.6,224.2c-7,25.9-4.2,53.5,7.9,77.4c5.1,11.9,17.3,27,34.3,39c0.5,0.4,1.1,0.8,1.7,1.2
		c0.6,0.4,1.7,1.2,2.6,1.7l1,0.7c16.5,10.8,35.8,16.6,55.5,16.9c3.6,0,7.1-0.2,10.6-0.6c24.6-2.1,47.7-12.5,65.5-29.5
		c16.4-14.4,27.4-34,31.1-55.5c1.6-7.7,2.4-15.5,2.4-23.4c0-2.2,0-4.5,0-6.7c-1.7-25.9-12.6-50.4-30.9-68.9l125.5-249.9l205.8-409.9
		C1673.9,734.7,1673.9,723.9,1668.4,721z M1306.8,1481.5c-0.4,25.5-21.1,45.9-46.6,46h-0.8c-10.9-0.1-21.3-4.1-29.6-11.1
		c-1.1-1-2.2-2-3.3-3.1c-8.4-8.7-13.1-20.4-13.2-32.5v-0.8c0.2-10.7,4-21,10.9-29.2l0,0l0.4-0.5l0,0c0.6-0.7,1.2-1.3,1.8-1.9l0,0
		c0.6-0.6,1.2-1.2,1.8-1.8l0,0l0.6-0.5l0,0l1-0.9l0,0c8.4-7.1,19-11,30-11.1h0.9c13.9,0.2,27,6.5,35.8,17.4c0.9,1.2,1.8,2.4,2.6,3.6
		c5,7.6,7.6,16.5,7.6,25.6C1306.8,1481.1,1306.8,1481.3,1306.8,1481.5z"/>
	<path class="st4" d="M1260.1,1434L1260.1,1434c-11,0-21.6,4-30,11.1l0,0l-1,0.9l0,0l-0.6,0.5l0,0c-0.6,0.6-1.2,1.2-1.8,1.8l0,0
		c-0.6,0.6-1.2,1.2-1.8,1.9l0,0l-0.4,0.5l0,0c-6.9,8.2-10.7,18.5-10.9,29.2v0.8c0.1,12.1,4.8,23.7,13.2,32.5c1,1.1,2.1,2.1,3.3,3.1
		c8.3,7,18.7,11,29.6,11.1h0.8c25.3-0.2,45.8-20.5,46.3-45.8l0,0c0-0.2,0-0.4,0-0.7c0-9.1-2.6-18-7.6-25.6c-0.8-1.2-1.7-2.5-2.6-3.6
		c-8.7-10.9-21.8-17.4-35.7-17.6H1260.1"/>
	<path class="st4" d="M2521,2183.2V727.8l-100.5-58l-953.1-550.3L1260.5,0l-206.9,119.5L100.5,669.7L0,727.8v1455.5l100.5,58
		l965,557.1l195,112.6l195-112.6l964.9-557.1L2521,2183.2z M100.5,2128.7V789.1l172.4-99.5l987.6-570.1l0,0L2250.5,691l170,98
		v1339.6l-1160,669.7L100.5,2128.7z"/>
	
		<linearGradient id="SVGID_1_" gradientUnits="userSpaceOnUse" x1="1255.8186" y1="1275.3508" x2="1260.2786" y2="-314.8907" gradientTransform="matrix(1 0 0 -1 0 852)">
		<stop  offset="0" style="stop-color:#FFFFFF;stop-opacity:0.83"/>
		<stop  offset="0.56" style="stop-color:#FFFFFF;stop-opacity:0.37"/>
		<stop  offset="1" style="stop-color:#FFFFFF;stop-opacity:0"/>
	</linearGradient>
	<path class="st5" d="M1258.4,1164.5c439.9,0,818.5-195.6,987.4-476.1l-985.4-568.9l0,0L272,690.1
		C441.5,969.8,819.4,1164.5,1258.4,1164.5z"/>
</g>
</svg>
