<svg xmlns="http://www.w3.org/2000/svg" xmlns:xlink="http://www.w3.org/1999/xlink" viewBox="0 0 735 852"><defs><style>.cls-1{fill:#ba6f38;}.cls-2{isolation:isolate;}.cls-3{clip-path:url(#clip-path);}.cls-4{fill:#36a85d;}.cls-5{opacity:0.25;fill:url(#linear-gradient);}.cls-6{fill:#e6b35a;}.cls-7{font-size:160px;letter-spacing:-0.03em;}.cls-14,.cls-7,.cls-8{fill:#fff;}.cls-7,.cls-8{font-family:MyriadPro-Regular, Myriad Pro;}.cls-8{font-size:25px;}.cls-9{letter-spacing:-0.06em;}.cls-10{letter-spacing:-0.02em;}.cls-11{letter-spacing:-0.01em;}.cls-12{fill:#298f4d;}.cls-13{opacity:0.7;mix-blend-mode:hard-light;}.cls-15{fill:none;}.cls-16{opacity:0.5;}.cls-17{fill:#22834a;}</style><clipPath id="clip-path"><polygon class="cls-1" points="369.51 7.4 728.21 214.47 728.21 636.62 369.51 845.03 2.79 636.62 2.79 214.47 369.51 7.4"/></clipPath><linearGradient id="linear-gradient" x1="367.33" y1="-121.12" x2="368.63" y2="342.4" gradientUnits="userSpaceOnUse"><stop offset="0" stop-color="#fff" stop-opacity="0.83"/><stop offset="0.56" stop-color="#fff" stop-opacity="0.37"/><stop offset="1" stop-color="#fff" stop-opacity="0"/></linearGradient></defs><title> </title><g class="cls-2"><g id="Layer_1" data-name="Layer 1"><polygon class="cls-1" points="369.51 7.4 728.21 214.47 728.21 636.62 369.51 845.03 2.79 636.62 2.79 214.47 369.51 7.4"/><g class="cls-3"><circle class="cls-4" cx="365.5" cy="437.45" r="442.13"/><ellipse class="cls-5" cx="367.97" cy="107.08" rx="315.24" ry="234.63"/></g><path class="cls-6" d="M367,633.9c.29-.29.6-.59.93-.89h-.26Z"/><text class="cls-7" transform="translate(229.82 618.45)">hms</text><text class="cls-8" transform="matrix(0.86, -0.5, 0.5, 0.86, 369.28, 809.1)"><tspan xml:space="preserve">       </tspan><tspan class="cls-9" x="37.1" y="0"> </tspan><tspan x="40.9" y="0">rstudi</tspan><tspan class="cls-10" x="100.97" y="0">o</tspan><tspan x="114.1" y="0">.</tspan><tspan class="cls-11" x="119.27" y="0">c</tspan><tspan x="130.32" y="0">om</tspan></text><path class="cls-12" d="M705.61,196.21,427.81,35.82,367.5,1,307.19,35.82,29.37,196.22.09,213.13V637.38l29.28,16.91,281.28,162.4,56.85,32.82,56.85-32.82L705.61,654.3l29.3-16.92V213.13Zm0,425.26L367.49,816.68,29.37,621.47V231L367.49,35.82h0L705.61,231Z"/><g class="cls-13"><path class="cls-14" d="M365.5,23.21c-5.8,0-20.45,12.61-19.84,25.15v56.4q8.59-.45,17.3-.45c8.88,0,17.65.45,26.36,1.14V48.92C389.32,38.63,374.37,23.21,365.5,23.21Z"/><path class="cls-14" d="M363,747.6c-5.8,0-11.55.18-17.3.43v56.4c4.65,6.61,17.35,19.75,23.15,19.75,8.88,0,16.56-12.83,20.51-19.06V748.59C380.59,748,371.82,747.6,363,747.6Z"/><path class="cls-14" d="M188.14,139.34l28.22,48.87q11.06-6.9,22.72-12.93l-28.22-48.9Q199.27,132.5,188.14,139.34Z"/><path class="cls-14" d="M29.56,246.1l48.9,28.23q6.08-11.62,13-22.68L42.59,223.42c-3.44.2-14.2.08-16.35,3.83S26.79,238.92,29.56,246.1Z"/><path class="cls-14" d="M86.26,409.52H29.82c-.27,5.94-.45,11.89-.45,17.9,0,8.67.38,17.23.94,25.75H86.85c-.65-8.51-1.09-17.08-1.09-25.75C85.76,421.41,85.94,415.44,86.26,409.52Z"/><path class="cls-14" d="M29.37,606.73c.38.69-11.45,10.57-11.06,11.26,3.54,6.29,14.6,9.23,18.47,15.31.39.61,5.67-4.75,6.06-4.15l48.87-28.22c-4.77-7.27-9.31-14.73-13.51-22.39Z"/><path class="cls-14" d="M243.92,679.69c-7.82-3.94-15.49-8.09-22.92-12.62L192.8,715.9c7.46,4.51,14.86,9,22.62,13l28.5-49.19"/><path class="cls-14" d="M538,133.75c-7.82-3.94-15.49-8.09-22.92-12.62L486.87,170c7.46,4.51,14.86,9,22.62,13L538,133.75"/><path class="cls-14" d="M520.84,662.94c-7.33,4.69-14.83,9.15-22.54,13.27l28.22,48.89c7.69-4.15,15.16-8.64,22.53-13.29Z"/><path class="cls-14" d="M656.73,578.34q-6.16,11.58-13.2,22.58l48.87,28.21c10.17,3.51,22.76-13.62,13.22-22.57Z"/><path class="cls-14" d="M706.17,409.52H649.73c.31,5.92.5,11.89.5,17.9,0,8.67-.44,17.24-1.09,25.75h56.55c.55-8.52.94-17.08.94-25.75C706.62,421.41,706.44,415.46,706.17,409.52Z"/><path class="cls-14" d="M692.92,223.59,644.08,251.8c4.53,7.43,8.7,15.11,12.63,22.9l48.9-28.22C721.09,230.78,704.44,215.8,692.92,223.59Z"/><circle class="cls-15" cx="357.59" cy="423.19" transform="translate(-196.37 413.63) rotate(-48.81)"/><circle class="cls-15" cx="357.07" cy="423.74" transform="translate(-195.05 376.6) rotate(-45)"/><circle class="cls-15" cx="356.94" cy="423.9" transform="translate(-197.05 437.82) rotate(-51.34)"/><circle class="cls-15" cx="358.12" cy="422.66" transform="translate(-194.88 455.56) rotate(-53.13)"/><circle class="cls-15" cx="358.29" cy="422.52" transform="translate(-162.42 233.43) rotate(-29.74)"/><path class="cls-14" d="M486.39,211.15l-5-2.59c-1.62-.84-4.22.95-5.8,4l-102,189.15a31.54,31.54,0,0,0-27,7.13L241.22,348.63c-3-1.77-6.1-1.94-7-.37l-2.89,4.82c-.94,1.56.7,4.27,3.65,6l101.9,65.35A31.61,31.61,0,0,0,339.15,447c1.48,3.45,5,7.87,10,11.38l.51.35.75.5.29.18A29.66,29.66,0,0,0,370,464.15a31.42,31.42,0,0,0,19.09-8.61,28,28,0,0,0,9.07-16.19,31.53,31.53,0,0,0,.69-6.82q0-1,0-1.93a31.45,31.45,0,0,0-9-20.08L486.44,218.2C488,215.14,488,212,486.39,211.15ZM358.29,422.52h0A13.6,13.6,0,0,1,378,424.13q.41.51.77,1.06A13.62,13.62,0,0,1,358.56,443q-.5-.42-1-.89a13.71,13.71,0,0,1-1.19-1.43,13.57,13.57,0,0,1,.51-16.77h0l.13-.16h0c.16-.19.34-.37.52-.55h0c.17-.18.35-.36.53-.53h0Z"/><path class="cls-4" d="M358.12,422.66c-.18.17-.36.35-.53.53h0c-.17.18-.35.36-.52.55h0l-.13.16h0a13.57,13.57,0,0,0-.51,16.77,13.71,13.71,0,0,0,1.19,1.43q.45.47,1,.89a13.62,13.62,0,0,0,20.24-17.81q-.36-.55-.77-1.06a13.6,13.6,0,0,0-19.74-1.62h0l-.17.15Z"/></g><g class="cls-16"><circle class="cls-4" cx="367.39" cy="279.68" r="13.62" transform="translate(81.95 642.61) rotate(-89.1)"/></g><path class="cls-17" d="M705.61,196.21,427.81,35.82,367.5,1,307.19,35.82,29.37,196.22.09,213.13V637.38l29.28,16.91,281.28,162.4,56.85,32.82,56.85-32.82L705.61,654.3l29.3-16.92V213.13Zm0,425.26L367.49,816.68,29.37,621.47V231L367.49,35.82h0L705.61,231Z"/></g></g></svg>