<?xml version="1.0" encoding="UTF-8" standalone="no"?>
<svg
   xmlns:dc="http://purl.org/dc/elements/1.1/"
   xmlns:cc="http://creativecommons.org/ns#"
   xmlns:rdf="http://www.w3.org/1999/02/22-rdf-syntax-ns#"
   xmlns:svg="http://www.w3.org/2000/svg"
   xmlns="http://www.w3.org/2000/svg"
   xmlns:sodipodi="http://sodipodi.sourceforge.net/DTD/sodipodi-0.dtd"
   xmlns:inkscape="http://www.inkscape.org/namespaces/inkscape"
   inkscape:version="1.0 (4035a4f, 2020-05-01)"
   sodipodi:docname="htmltools3.svg"
   id="svg1186"
   version="1.1"
   viewBox="0 0 4153.42 4795.93">
  <metadata
     id="metadata1190">
    <rdf:RDF>
      <cc:Work
         rdf:about="">
        <dc:format>image/svg+xml</dc:format>
        <dc:type
           rdf:resource="http://purl.org/dc/dcmitype/StillImage" />
      </cc:Work>
    </rdf:RDF>
  </metadata>
  <sodipodi:namedview
     inkscape:current-layer="svg1186"
     inkscape:window-maximized="0"
     inkscape:window-y="497"
     inkscape:window-x="2019"
     inkscape:cy="2397.9651"
     inkscape:cx="2076.71"
     inkscape:zoom="0.21017821"
     showgrid="false"
     id="namedview1188"
     inkscape:window-height="1257"
     inkscape:window-width="1578"
     inkscape:pageshadow="2"
     inkscape:pageopacity="0"
     guidetolerance="10"
     gridtolerance="10"
     objecttolerance="10"
     borderopacity="1"
     bordercolor="#666666"
     pagecolor="#ffffff" />
  <defs
     id="defs1162">
    <style
       id="style1157">
    tspan { white-space:pre; }
    .fill { fill:#f16529; }     <!-- Flame -->

    .border { fill:#e44d26; }     <!-- Halloween orange -->

    .txt { font-size:25px;fill:#000000;font-family: 'Metropolis Extra Bold', sans-serif; }
    .txt-white { fill:#ffffff; }
    .txt-grey { fill:#ebebeb; }
    .txt-blk { fill:#000000; }
    .cls-1,.cls-10,.cls-5,.cls-6,.cls-7,.cls-8{fill:none;stroke-miterlimit:10;}.cls-1{stroke:#e44d26;stroke-width:130px;}.cls-2{clip-path:url(#clip-path);}.cls-3{fill:#f16529;}.cls-4{fill:#353535;}.cls-5,.cls-6,.cls-7{stroke:#494949;}.cls-5{stroke-width:350px;}.cls-6{stroke-width:300px;}.cls-7{stroke-width:160px;}.cls-8{stroke:#00ffa3;}.cls-10,.cls-8{stroke-width:90px;}.cls-9{fill:#008471;}.cls-10{stroke:#3effa3;}.cls-11{fill:#00ffa3;}.cls-12{fill:#b2b2b2;}</style>
    <clipPath
       id="clip-path">
      <path
         id="path1159"
         d="M4088.35,3559.43V1236.55L2076.68,75.1,1052.52,666.4,65,1236.55V3559.43L2076.68,4720.87Z"
         class="cls-1" />
    </clipPath>
  </defs>
  <g
     data-name="Layer 2"
     id="Layer_2">
    <g
       id="g1168"
       clip-path="url(#clip-path)"
       class="cls-2">
      <rect
         id="rect1164"
         height="5000"
         width="5000"
         y="-102.01"
         x="-425.86"
         class="cls-3" />
      <rect
         id="rect1166"
         height="5000"
         width="2576.71"
         y="-100"
         x="-500"
         class="border" />
    </g>
    <path
       id="path1170"
       d="M4088.35,3559.43V1236.55L2076.68,75.1,1052.52,666.4,65,1236.55V3559.43L2076.68,4720.87Z"
       class="border cls-1" />
  </g>
  <g
     transform="matrix(23,0,0,26,2068.71,2397.965)"
     class="txt"
     dominant-baseline="middle"
     id="Layer">
    <g
       class="txt-grey"
       style="text-anchor:end;fill:#ebebeb"
       id="text1177"
       aria-label="&lt;html">
      <path
         id="path1954"
         style="font-style:italic;white-space:pre"
         d="m -60.040234,4.4625001 0.675,-3.375 -7.825,-3.2 9.2,-3.25 0.65,-3.35 -12.775,4.9 -0.675,3.375 z" />
      <path
         id="path1956"
         style="white-space:pre"
         d="m -46.675,-6.7624999 c -1.625,0 -3,0.675 -3.775,1.775 V -11.0125 h -4.225 V 6.4625001 h 4.225 v -7.45 c 0,-1.275 1,-2.25 2.3,-2.25 1.3,0 2.2,1 2.2,2.425 v 7.275 h 4.05 v -8.225 c 0,-2.925 -1.975,-5 -4.775,-5 z" />
      <path
         id="path1958"
         style="white-space:pre"
         d="m -32.145313,2.8125001 c -0.25,0.25 -0.724999,0.425 -1.199999,0.425 -0.675001,0 -1.175001,-0.575 -1.175001,-1.4 v -4.925 h 2.675001 v -3.375 h -2.675001 V -10.0125 h -4.049999 v 3.5500001 h -1.700001 v 3.375 h 1.700001 v 5.7 c 0,2.425 1.7,4.15 4.125,4.15 1.1,0 2.375,-0.5 3.149999,-1.225 z" />
      <path
         id="path1960"
         style="white-space:pre"
         d="m -13.314062,-6.7624999 c -1.950001,0 -3.475,0.9 -4.15,2.3 -0.85,-1.425 -2.375,-2.3 -4.125,-2.3 -1.550001,0 -2.800001,0.75 -3.425001,1.925 v -1.625 h -4.25 v 12.9 h 4.25 v -7.625 c 0,-1.175 0.875,-2.05 2.150001,-2.05 1.2,0 2.05,0.925 2.05,2.225 v 7.45 h 4.05 v -7.625 c 0,-1.175 0.899999,-2.05 2.174999,-2.05 1.200001,0 2.05,0.925 2.05,2.225 v 7.45 h 4.0500005 v -8.2 c 0,-2.925 -2.1249995,-5 -4.8249995,-5 z" />
      <path
         id="path1962"
         style="white-space:pre"
         d="m -5.7980469,6.4625001 h 4.225 V -11.0125 h -4.225 z" />
    </g>
    <g
       class="txt-white"
       style="text-anchor:start;fill:#ffffff"
       id="text1183"
       aria-label="tools&gt;">
      <path
         id="path1965"
         style="white-space:pre"
         d="m 9.925,2.8125001 c -0.25,0.25 -0.725,0.425 -1.2,0.425 -0.675,0 -1.175,-0.575 -1.175,-1.4 v -4.925 h 2.675 v -3.375 H 7.55 V -10.0125 H 3.5 v 3.5500001 H 1.8 v 3.375 h 1.7 v 5.7 c 0,2.425 1.7,4.15 4.125,4.15 1.1,0 2.375,-0.5 3.15,-1.225 z" />
      <path
         id="path1967"
         style="white-space:pre"
         d="m 18.935938,6.7625001 c 3.949999,0 7.174999,-3.05 7.174999,-6.775 0,-3.725 -3.225,-6.75 -7.174999,-6.75 -3.95,0 -7.2,3.025 -7.2,6.75 0,3.725 3.25,6.775 7.2,6.775 z m 0,-3.525 c -1.725001,0 -3.150001,-1.475 -3.150001,-3.25 0,-1.775 1.425,-3.225 3.150001,-3.225 1.75,0 3.149999,1.45 3.149999,3.225 0,1.775 -1.399999,3.25 -3.149999,3.25 z" />
      <path
         id="path1969"
         style="white-space:pre"
         d="m 34.365625,6.7625001 c 3.95,0 7.175,-3.05 7.175,-6.775 0,-3.725 -3.225,-6.75 -7.175,-6.75 -3.95,0 -7.2,3.025 -7.2,6.75 0,3.725 3.25,6.775 7.2,6.775 z m 0,-3.525 c -1.725,0 -3.15,-1.475 -3.15,-3.25 0,-1.775 1.425,-3.225 3.15,-3.225 1.75,0 3.15,1.45 3.15,3.225 0,1.775 -1.4,3.25 -3.15,3.25 z" />
      <path
         id="path1971"
         style="white-space:pre"
         d="m 43.645313,6.4625001 h 4.224999 V -11.0125 h -4.224999 z" />
      <path
         id="path1973"
         style="white-space:pre"
         d="m 55.844531,6.7625001 c 3.35,0 5.45,-1.675 5.45,-4.275 0,-2.925 -2.6,-3.7 -4.875,-4.25 -1.525,-0.4 -2.175,-0.525 -2.175,-1.075 0,-0.55 0.6,-0.975 1.425,-0.975 1.2,0 2.65,0.625 3.775,1.35 l 1.475,-2.65 c -1.45,-0.95 -3.325,-1.65 -5.25,-1.65 -3.225,0 -5.225,1.85 -5.225,4.325 0,2.8 2.35,3.45 4.85,4.025 1.3,0.3 2.2,0.6 2.2,1.225 0,0.6 -0.475,0.925 -1.55,0.925 -1.375,0 -3.15,-0.625 -4.45,-1.525 l -1.625,2.6 c 1.55,1.225 3.825,1.95 5.975,1.95 z" />
      <path
         id="path1975"
         style="font-style:italic;white-space:pre"
         d="m 63.795703,4.4625001 12.8,-4.9 0.65,-3.375 -10.75,-4.9 -0.65,3.35 7.825,3.25 -9.2,3.2 z" />
    </g>
  </g>
</svg>
