<?xml version="1.0" encoding="utf-8"?>
<!-- Generator: Adobe Illustrator 26.5.0, SVG Export Plug-In . SVG Version: 6.00 Build 0)  -->
<svg version="1.1"
	 id="svg1186" xmlns:svg="http://www.w3.org/2000/svg" xmlns:cc="http://creativecommons.org/ns#" xmlns:sodipodi="http://sodipodi.sourceforge.net/DTD/sodipodi-0.dtd" xmlns:rdf="http://www.w3.org/1999/02/22-rdf-syntax-ns#" xmlns:inkscape="http://www.inkscape.org/namespaces/inkscape" xmlns:dc="http://purl.org/dc/elements/1.1/" inkscape:version="1.0 (4035a4f, 2020-05-01)" sodipodi:docname="htmltools3.svg"
	 xmlns="http://www.w3.org/2000/svg" xmlns:xlink="http://www.w3.org/1999/xlink" x="0px" y="0px" viewBox="0 0 2521 2911"
	 style="enable-background:new 0 0 2521 2911;" xml:space="preserve">
<style type="text/css">
	.st0{fill:#F16529;}
	.st1{fill:#E44D26;}
	.st2{fill:#EBEBEB;}
	.st3{fill:#FFFFFF;}
</style>
<sodipodi:namedview  bordercolor="#666666" borderopacity="1" gridtolerance="10" guidetolerance="10" id="namedview1188" inkscape:current-layer="svg1186" inkscape:cx="2076.71" inkscape:cy="2397.9651" inkscape:pageopacity="0" inkscape:pageshadow="2" inkscape:window-height="1257" inkscape:window-maximized="0" inkscape:window-width="1578" inkscape:window-x="2019" inkscape:window-y="497" inkscape:zoom="0.21017821" objecttolerance="10" pagecolor="#ffffff" showgrid="false">
	</sodipodi:namedview>
<g>
	<g>
		<polygon class="st0" points="1260.5,2819.9 2442.1,2137.7 2442.1,773.3 1260.5,91.1 		"/>
		<polygon class="st1" points="1260.5,91.1 658.6,438.6 78.9,773.3 78.9,2137.7 1260.5,2819.9 1260.5,2819.9 1260.5,91.1 		"/>
		<path class="st1" d="M1260.5,0L0,727.8v1455.5l1240.8,716.4l19.7,11.4L2521,2183.3V727.8L1260.5,0z M2442.1,2137.7l-1181.6,682.2
			l0,0L78.9,2137.7V773.3l579.7-334.7l601.9-347.5l0,0l1181.6,682.2V2137.7z"/>
	</g>
	<g id="Layer" transform="matrix(23,0,0,26,2068.71,2397.965)">
		<g id="text1177">
			<path id="path1954" class="st2" d="M-71.8-33.5l0.4-2l-4.7-1.9l5.6-2l0.4-2l-7.8,3l-0.4,2L-71.8-33.5z"/>
			<path id="path1956" class="st2" d="M-63.7-40.4c-1,0-1.8,0.4-2.3,1.1v-3.7h-2.6v10.6h2.6v-4.5c0-0.8,0.6-1.4,1.4-1.4
				c0.8,0,1.3,0.6,1.3,1.5v4.4h2.5v-5C-60.8-39.1-62-40.4-63.7-40.4L-63.7-40.4z"/>
			<path id="path1958" class="st2" d="M-54.9-34.5c-0.2,0.2-0.4,0.3-0.7,0.3c-0.4,0-0.7-0.3-0.7-0.8v-3h1.6v-2h-1.6v-2.2h-2.5v2.2
				h-1v2h1v3.5c0,1.5,1,2.5,2.5,2.5c0.7,0,1.4-0.3,1.9-0.7L-54.9-34.5z"/>
			<path id="path1960" class="st2" d="M-43.4-40.4c-1.2,0-2.1,0.5-2.5,1.4c-0.5-0.9-1.4-1.4-2.5-1.4c-0.9,0-1.7,0.5-2.1,1.2v-1h-2.6
				v7.8h2.6V-37c0-0.7,0.5-1.2,1.3-1.2c0.7,0,1.2,0.6,1.2,1.4v4.5h2.5V-37c0-0.7,0.5-1.2,1.3-1.2c0.7,0,1.2,0.6,1.2,1.4v4.5h2.5v-5
				C-40.5-39.1-41.8-40.4-43.4-40.4L-43.4-40.4z"/>
			<path id="path1962" class="st2" d="M-38.9-32.3h2.6v-10.6h-2.6V-32.3z"/>
		</g>
		<g id="text1183">
			<path id="path1965" class="st3" d="M-29.3-34.5c-0.2,0.2-0.4,0.3-0.7,0.3c-0.4,0-0.7-0.3-0.7-0.8v-3h1.6v-2h-1.6v-2.2h-2.5v2.2
				h-1v2h1v3.5c0,1.5,1,2.5,2.5,2.5c0.7,0,1.4-0.3,1.9-0.7L-29.3-34.5z"/>
			<path id="path1967" class="st3" d="M-23.9-32.1c2.4,0,4.4-1.9,4.4-4.1c0-2.3-2-4.1-4.4-4.1s-4.4,1.8-4.4,4.1
				C-28.2-34-26.3-32.1-23.9-32.1z M-23.9-34.3c-1,0-1.9-0.9-1.9-2c0-1.1,0.9-2,1.9-2c1.1,0,1.9,0.9,1.9,2
				C-21.9-35.2-22.8-34.3-23.9-34.3z"/>
			<path id="path1969" class="st3" d="M-14.5-32.1c2.4,0,4.4-1.9,4.4-4.1c0-2.3-2-4.1-4.4-4.1s-4.4,1.8-4.4,4.1
				C-18.9-34-16.9-32.1-14.5-32.1z M-14.5-34.3c-1,0-1.9-0.9-1.9-2c0-1.1,0.9-2,1.9-2c1.1,0,1.9,0.9,1.9,2
				C-12.6-35.2-13.4-34.3-14.5-34.3z"/>
			<path id="path1971" class="st3" d="M-8.9-32.3h2.6v-10.6h-2.6V-32.3z"/>
			<path id="path1973" class="st3" d="M-1.5-32.1c2,0,3.3-1,3.3-2.6c0-1.8-1.6-2.2-3-2.6C-2-37.6-2.4-37.6-2.4-38s0.4-0.6,0.9-0.6
				c0.7,0,1.6,0.4,2.3,0.8l0.9-1.6c-0.9-0.6-2-1-3.2-1c-2,0-3.2,1.1-3.2,2.6c0,1.7,1.4,2.1,2.9,2.4c0.8,0.2,1.3,0.4,1.3,0.7
				c0,0.4-0.3,0.6-0.9,0.6c-0.8,0-1.9-0.4-2.7-0.9l-1,1.6C-4.1-32.6-2.8-32.1-1.5-32.1L-1.5-32.1z"/>
			<path id="path1975" class="st3" d="M3.4-33.5l7.8-3l0.4-2l-6.5-3l-0.4,2l4.7,2l-5.6,1.9L3.4-33.5z"/>
		</g>
	</g>
</g>
</svg>
