<?xml version="1.0" encoding="utf-8"?>
<!-- Generator: Adobe Illustrator 28.0.0, SVG Export Plug-In . SVG Version: 6.00 Build 0)  -->
<svg version="1.1" id="Layer_1" xmlns="http://www.w3.org/2000/svg" xmlns:xlink="http://www.w3.org/1999/xlink" x="0px" y="0px"
	 viewBox="0 0 2521 2911" style="enable-background:new 0 0 2521 2911;" xml:space="preserve">
<style type="text/css">
	.st0{display:none;fill-rule:evenodd;clip-rule:evenodd;fill:#0E217F;fill-opacity:0;}
	.st1{display:none;fill-rule:evenodd;clip-rule:evenodd;fill:#0E217F;}
	.st2{fill:#BE3455;}
	.st3{fill:url(#SVGID_1_);}
	.st4{fill:#F0F0F7;}
	.st5{opacity:0.55;fill:#FFFFFF;enable-background:new    ;}
	.st6{enable-background:new    ;}
	.st7{clip-path:url(#SVGID_00000157991512118632858010000013325403978848428448_);}
	.st8{fill:#AAAABC;}
	.st9{fill:#BF0D3E;}
</style>
<g id="Layer_2_00000035524481608002928000000010340855119023820160_">
	<g>
		<path class="st0" d="M271.7,773.4H2287v2015.5H271.7V773.4z"/>
		<path class="st1" d="M680.3,2224.8c8.2,10,8.9,22.6,8.6,36.4v55.6c-1.7,18.5-6.5,34.7-28.8,39.1c-12.4,1.7-25-0.7-34.3-8.2
			c-7.9-8.2-10.6-18.2-10.3-30.5v-76.9c1.7-9.3,8.6-18.2,17.5-23.3C648.4,2211.4,668.3,2212.1,680.3,2224.8z M1197.4,2222
			c9.9,10.6,11.7,23.7,10.6,38.8h-22.6c0.7-8.2,0-16.1-3.8-22.6c-3.8-3.8-10.6-5.1-15.1-2.1l-4.5,6.5l-0.7,83c1,3.8,2.7,9.3,7.9,10
			c6.2,0.7,12.4-0.7,14.4-6.5c2.7-7.9,1-17.5,1.7-25.7c-5.1-0.7-9.9,0-15.1,0v-19.2h38.8v70.3h-11l-5.1-10c-6.2,8.2-14.4,12.7-25,12
			c-8.9,0-16.1-3.8-22.6-10c-7.2-9.3-8.9-20.6-7.9-32.6l0.7-73.4c1-8.2,6.5-16.1,13.7-21.6C1165.1,2211,1185,2211.4,1197.4,2222
			L1197.4,2222z M1742.9,2223.1c5.5,7.2,11,16.5,7.9,24.4l-20.6,2.1c-1-6.2-3.4-12.7-9.3-15.1c-5.5-1-11.7,0.7-14.4,6.2
			c-6.2,27.8,30.9,36,41.5,58c6.5,12,8.9,30.5,0.7,42.5c-9.3,13.7-26.4,16.1-42.5,13.7c-9.3-2.1-17.8-11-21.6-19.2l-3.8-18.2
			l22.6-3.4c1,6.5,1.7,13.4,7.2,18.2c3.4,3.4,9.3,2.7,13.7,1.7c6.2-2.7,7.9-8.9,6.5-15.1c-9.9-28.8-53.5-39.1-48-74.8
			c1-8.9,3.4-16.5,9.9-22.6C1705.8,2211,1730.2,2209.3,1742.9,2223.1L1742.9,2223.1z M361.6,2296.8c6.5-27.1,11.7-54.2,17.2-81.3
			h31.6v139h-20.6v-107.4c-8.2,35.7-15.4,71.4-22.3,107.4h-11.7c-7.2-36-14.4-71.4-20.9-107.4h-1v107.4h-20.6v-139h31.6
			L361.6,2296.8z M518.7,2354.5h-23.3c-2.1-10-2.1-20.6-4.5-30.5h-26.1l-4.5,29.9l-23.3,0.7l26.1-139h29.5L518.7,2354.5
			L518.7,2354.5z M582.9,2335.6c-1,7.2-6.5,15.1-13.7,17.8c-7.9,3.8-17.8,2.7-27.1,3.4v-20.9c6.5,0,14.4,0.7,17.2-6.5l0.7-113.6
			h23.7L582.9,2335.6z M786,2231.6c6.5,15.1,7.9,36.4-1,50.8c-2.7,3.8-6.2,7.2-10.6,9.3l19.9,62.4h-24.4l-16.1-56.6
			c-3.4-2.1-7.9,0.7-12.4-0.7v57H717v-139C741.8,2217.6,772.3,2208.3,786,2231.6z M888.9,2332.8l37.7,0.7v20.9h-61.4v-139h23.7
			V2332.8L888.9,2332.8z M1019,2236.4h-39.8l-0.7,35.3h30.9v20.9h-30.5c-0.7,13.4,0,26.4-0.7,39.8c14.4,1,28.8,0.7,43.2,0.7v20.9
			h-66.9v-139h64.2L1019,2236.4L1019,2236.4L1019,2236.4z M1116.1,2353.8h-22.6l-4.5-29.9c-7.9-1.7-17.2,0.7-25.4,0l-5.1,30.5h-23.3
			l25.4-139h29.8L1116.1,2353.8L1116.1,2353.8z M1263.6,2326.7c1,3.8,5.1,7.9,9.3,8.9c6.2,0.7,12.7-0.7,15.4-6.5
			c2.1-37.1-0.7-75.8,0-113.6h24.4v111.9c-2.1,10-7.2,20.6-17.2,25c-12.7,6.5-33.3,6.2-44.3-3.4c-9.3-7.9-11.7-18.2-11.7-29.9
			v-103.6h24L1263.6,2326.7L1263.6,2326.7L1263.6,2326.7z M1402.2,2236.4h-39.5v35.3h30.9v20.9h-30.9v40.5h42.9v21.3h-66.9v-139
			h63.8L1402.2,2236.4L1402.2,2236.4L1402.2,2236.4z M1543.9,2231.6c6.2,12,6.5,31.9-2.7,43.2l-8.9,7.2c8.2,2.7,15.1,11,17.2,19.2
			c3.4,15.1,1,31.6-7.9,43.2c-16.5,16.5-43.6,7.2-65.9,10v-139C1499.6,2217.6,1529.8,2208.3,1543.9,2231.6L1543.9,2231.6z
			 M1655.4,2353.8h-23.3l-4.5-29.9h-25.7l-4.5,30.5h-22.6l25.4-139h29.8L1655.4,2353.8z M1840.3,2236.4h-39.8v35.3h30.5v20.9h-30.5
			v40.5h42.5v21.3h-66.9v-139h64.2L1840.3,2236.4L1840.3,2236.4z M1935.7,2231.6c6.2,12,6.5,31.9-2.7,43.2l-8.6,6.9
			c7.9,2.7,15.1,11,16.5,19.2c3.4,15.1,1.7,31.6-7.9,43.2c-16.5,16.5-43.6,7.2-65.9,10v-139
			C1891.4,2217.6,1922.3,2208.3,1935.7,2231.6L1935.7,2231.6z M2045.8,2353.8h-22.6l-4.5-29.9h-26.1l-4.5,30.5h-23.3l25.4-139h29.8
			L2045.8,2353.8L2045.8,2353.8z M2092.8,2333.2h37.1v21.3h-60.7v-139h23.7v117.7H2092.8z M2180.7,2333.2h37.7v21.3H2157v-139h23.7
			V2333.2L2180.7,2333.2z"/>
		<path class="st1" d="M663.2,2241.9v86.5c-1,3.8-5.1,6.2-8.9,6.5c-8.6,0-14.1-4.1-14.1-9.6c0-27.8-0.7-53.9,0-82.7
			c1-4.5,4.8-7.2,9.6-7.9C655,2234.7,661.5,2235.4,663.2,2241.9L663.2,2241.9z M763,2239.9c6.2,8.2,5.1,23.3,1,31.9
			c-5.5,7.2-14.4,5.1-22.3,5.1v-40.8C749,2236.4,757.9,2233.7,763,2239.9z M1521.6,2242.6c2.7,6.5,3.4,17.2-0.7,23.3
			c-5.1,6.5-13.4,6.5-20.9,6.2v-36C1507.9,2236.1,1517.8,2234.4,1521.6,2242.6L1521.6,2242.6z M1913.4,2242.6
			c2.7,6.5,3.4,17.2-0.7,23.3c-5.1,6.5-13.4,6.5-20.9,6.2v-36C1900,2236.1,1909.6,2234.4,1913.4,2242.6L1913.4,2242.6z M1624.2,2302
			h-17.8l8.9-58L1624.2,2302z M2014.6,2302h-18.2l8.9-58L2014.6,2302z M1066.7,2302.3l8.9-57.6l8.9,57.6H1066.7z M469,2302l8.9-56.3
			l8.9,56.3H469z M1521.6,2297.5c6.2,7.2,5.5,18.9,3.4,27.8c-1.7,5.5-7.9,8.9-13.4,9.3H1500v-42.2
			C1507.9,2292.4,1516.1,2291.7,1521.6,2297.5z M1914.1,2297.5c5.5,7.2,5.1,18.9,2.7,27.8c-1.7,5.5-7.9,8.9-12.7,9.3h-12.4v-42.2
			C1899.7,2292.4,1908.6,2291.7,1914.1,2297.5L1914.1,2297.5z"/>
		<path class="st1" d="M2245.2,2168.5c5.1,5.1,7.9,11.7,7.9,18.9c0,7.5-2.7,13.7-7.9,18.9c-5.1,5.1-11.3,7.9-18.9,7.9
			s-13.7-2.7-18.9-7.9c-5.1-5.1-7.5-11.7-7.5-18.9s2.4-13.7,7.9-18.9c5.1-5.1,11.3-7.9,18.9-7.9
			C2233.8,2160.9,2240,2163.3,2245.2,2168.5z M2248.2,2165.8c-5.8-5.8-13.7-9.3-22-8.9c-8.2,0-16.1,3.1-22,8.9
			c-5.8,5.8-9.3,13.7-8.9,22c0,8.6,3.1,15.8,8.9,22s13.4,9.3,22,9.3s15.8-3.1,22-9.3s8.9-13.4,8.9-22
			C2257.5,2179.1,2254.4,2171.6,2248.2,2165.8L2248.2,2165.8z M2231.1,2186c-1.4,0.3-3.1,0.7-5.8,0.7h-5.5v-12.4h5.1
			c3.4,0,5.8,0.3,7.2,1.4c1.4,0.7,2.4,2.4,2.4,5.1C2234.5,2183.2,2233.5,2185.3,2231.1,2186L2231.1,2186z M2213.9,2204.5h5.8v-13.4
			h4.8c3.1,0,5.5,0.3,6.5,1c2.1,1.4,3.1,3.8,3.1,7.9v2.7v1v0.3v0.3h5.5l-0.3-0.3c-0.3-0.7-0.3-1-0.3-1.7s0-1.7,0-2.4v-2.4
			c0-2.1-0.7-3.8-1.7-5.1c-1.4-1.7-3.1-2.7-5.8-3.4c2.1-0.3,3.8-1,4.8-1.7c2.1-1.4,3.4-3.8,3.4-6.9c0-4.1-1.7-7.2-5.1-8.6
			c-2.1-0.7-5.1-1.4-9.3-1.4h-12L2213.9,2204.5L2213.9,2204.5L2213.9,2204.5z"/>
	</g>
</g>
<g>
	<g>
		<g>
			<g>
				<path class="st2" d="M1163.4,1783.5c-3.7,13.7-8.4,26.7-10.3,40.1c-0.6,4.1,5.6,12,9.9,13.1c4.6,1.2,13.6-2.3,15.6-6.3
					C1187.7,1812.6,1189.7,1795.2,1163.4,1783.5z"/>
			</g>
		</g>
	</g>
</g>
<linearGradient id="SVGID_1_" gradientUnits="userSpaceOnUse" x1="359.8438" y1="2363.0259" x2="2136.6606" y2="574.6295" gradientTransform="matrix(1 0 0 -1 0 2912)">
	<stop  offset="0.2483" style="stop-color:#102649"/>
	<stop  offset="1" style="stop-color:#041A3A"/>
</linearGradient>
<polygon class="st3" points="2521,2183.6 2521,727.8 2420.5,669.8 1467.4,119.4 1260.5,0 1053.6,119.4 100.5,669.8 0,727.8 
	0,2183.2 100.5,2241.2 1065.6,2798.5 1260.8,2911 1456.1,2798.5 2421.2,2241.2 "/>
<g>
	<path class="st4" d="M1845.9,922.3c0.1-0.1,0.3-0.2,0.4-0.3l-4.3,39.2c-0.3,0.4-0.6,0.9-1.1,1.4c20.6-19.7,24.1,8.5,15.2,23.8
		c-54,127-127.4,125.5-287.5,167.4c-381.9,68.2-743.1-15.9-1096.8,159.6c-1.4,0.2-2.1,1.5-1.9,2.8c0.2,1.4,1.4,2.1,2.8,1.9
		c137.4-4.1,285.4,82.3,354.3,200c0.3,0.7,0.8,1,1.5,1.2c1.5,0.5,2.7-0.2,3.1-1.7c70.3-245.6,404.1-276.2,631-296.8
		c226.8-20.6,443.8-68.5,449.9-308.4C1912.6,873.1,1876,895.4,1845.9,922.3z"/>
	<path class="st4" d="M630.2,1086l67.5-4.3l0.5-2c3.1-15.6,6.2-29.1,9.2-40.9s6.4-27.6,10.2-46.1c3.8-18.4,7.6-34.5,11.4-47.5
		c3.9-13,9.2-28.6,15.9-46.5c6.4-16.9,15.1-33,26-47.3c9.5-12.5,21-23.2,34.3-32c15.1-9.5,22.2-11.5,25.5-11.8h1.1
		c3.9,0,8.5,1.2,9.2,11.4c0.4,6.6-1.8,19.1-6.9,37.3c-23.7,73.6-34.5,130.8-32,170c2.3,35.3,17.6,52.2,46.1,50.3
		c32.2-2,59.6-20.1,98.1-90.9c0.5-1.2,1.8-2,3.4-1.8c1.2,0.5,2,1.8,1.8,3.4c-0.3,7.9,0,15.6,0.5,23.2c2.3,38.3,16.3,57.8,41.1,57.8
		h3c13.5-0.9,27.9-8.2,42.9-21.8c19.2-15.6,40-39.3,63.5-70.4c0.9-1.2,1.8-2.1,3.4-1.8c1.3,0.3,2,1.8,1.8,3.4
		c-0.3,7.9,0,15.6,0.5,23.2c2.3,38.3,16.3,57.8,41.1,57.8h3c15.1-1,31.4-10,48.3-26.8c6.9-6.9,46.9-42.8,58.8-55.4
		c6.5-6.4,13.1-13.1,19.9-20.2c29.3-24.5,52-51.9,67.9-82.3c5.3-0.9,12.9-2.1,22.8-3.7c9.9-1.6,19.2-3.1,28.1-4.6s16.8-2.9,23.9-4.3
		c-13.6,15.9-26,31.9-37.1,47.9c-11.1,16.1-19.5,31-25.2,44.8c-5.8,13.8-8.9,26.1-9,36.9c-0.4,18.4,2.9,32.6,9.8,42.4
		c6.9,9.8,15.6,14.9,26.2,15.1c9.1,0.2,19.5-3.4,31.3-10.5c11.8-7.3,24.5-17,38.4-29.4s30.2-28.6,52.9-50.8
		c22.7-22.2,13.6-28.4,0.4-25.3c-13.1,3.1-65.8,45.7-81.1,45.4c-14.6-0.3-21.9-6.4-21.6-18.2c0.2-8.6,5-21.3,14.4-38
		s20.9-32.2,34.6-46.3c11.6-11.6,19.8-20.6,24.5-26.6c4.8-6.1,7.3-11.8,7.4-17.1c0.2-8.3-1.1-16.7-3.7-25.1
		c-2.7-8.4-6-13.7-10.3-16.1c-2-1.1-5.7-1.6-11-1.7c-13.6-0.3-46.5,3.2-98.7,10.3c8.1-12.9,12.1-21.6,12.2-25.9
		c0.1-4.8-2.4-7.3-7.4-7.4c-3.3-0.1-6.7,0.8-10.3,2.5c-9.1,3.4-19.4,11-30.7,22.9c-11.3,11.9-20.9,24.7-28.8,38.4
		c-7.8,13.7-11.9,25.2-12,34.3c-0.2,8.1,1.6,14.2,5.1,18.2c3.5,4.1,9.4,7.6,17.5,10.5c-5.4,8.3-12.7,18-21.7,28.9
		c-3.8,4.5-8.6,8.1-12.8,12.3c-20.7,20.8-34.4,33-48.6,42c0,0-0.1,0-0.1,0.1c-3.4,1.9-6.9,3.6-10.5,5.3c-2.7,1.2-5.4,2.3-7.8,3.2
		c-7.3,2.7-14.6,4.6-21.7,5.1h-0.7c-2.3,0-9.2,0-10.5-18.2c-1.1-13.8,1.5-32.2,7.4-55.2c5.8-23,11.5-41.5,16.4-55
		c3.1-8.3,41.5-120.2,71.7-207.6l11.3,0.1c7.4,0.2,13.7,0.3,18.9,0.4c5.1,0.1,10.3,0.3,15.2,0.4c5,0.2,11.3,0.3,18.6,0.4
		c21.3-21.2,38.7-41.8,52.4-61.8c-4-0.3-9.5-0.5-16.5-0.9s-15.1-0.8-24-1.2l-54.3,0.2c6.8-19.5,11.8-33.7,13.9-39.2
		c10.2-26.3,18.6-42.7,25-48.8c0.5-0.4,0.7-1.2,0.7-2c0-1.5-1.2-2.6-2.8-2.6l-21.1,4.3c-30.4,7.6-47.1,26-56.1,45.6
		c-2.6,5.8-9.5,22.7-18.9,46.1c-2.2,0.4-4.3,0.6-6.4,1.1c-11.1,2-20.4,5.8-27.7,10.9c-7.4,5.2-15.1,13.1-23.1,23.7
		c-9.9,12.5-14.7,21.8-14.3,27.9c0.1,1.2,0.6,1.7,1.7,1.6c1.1,0,2.9-0.4,5.7-1.2c2.7-0.7,5.7-1.4,8.8-2c7.1-1.6,17.7-2.7,31.9-3.1
		c-36.1,91.2-82.5,210.4-87.5,228.6c-0.3,0.5-0.3,0.7-0.5,1.2c-30.9,77.9-60.3,108.8-84.7,115.6c0-0.1,0-0.1,0-0.2
		c-2.5,0.7-4.9,1.1-7.2,1c-2.7-0.4-9.4-0.5-10.6-18.7c-0.2-2.4-0.1-29.4,7.4-55.2c6.6-22.8,11.5-41.5,16.4-55
		c3.1-8.3,42-121.8,72.3-209.4c3.2-0.4,6.4-0.7,9.5-1.1c5.2-0.5,11.7-1.2,19.4-2.1c19.4-22.2,34.9-43.5,46.6-63.7
		c-4.2,0.3-9.9,0.8-17.2,1.4c-7.4,0.6-15.7,1.3-25.1,2.1l-11.9,1.6c6.6-19,11.5-32.8,13.5-38.1c10.2-26.3,18.6-42.7,25-48.8
		c0.5-0.4,0.7-1.2,0.7-2c0-1.5-1.2-2.6-2.8-2.6l-21.1,4.3c-30.4,7.6-47.1,26-56.1,45.6c-2.7,6-10.3,24.6-20.5,50.1l-2.2,0.4
		c-20.9,3.3-37,6.6-48.2,10c-11.2,3.4-20.4,8-27.4,13.7c-7.1,5.8-14.1,14.1-21,24.8c-8.8,12.8-12.6,22-11.3,27.5
		c0.2,1,0.9,1.4,1.9,1.2c1.1-0.2,3-0.8,5.8-1.8c2.7-1.1,5.7-2,8.9-3.1c7.6-2.6,19.4-5.1,35.4-7.6c4.9-0.8,9.1-1.4,12.7-1.9
		s7.4-1,11.5-1.4l9.9-1.2c-35.8,90.4-80.3,205-85.2,222.8c-0.3,0.5-0.3,0.7-0.5,1.2c-34.5,86.9-57.5,114.1-83.4,115.7h-0.7
		c-2.1,0-8.1,0-9.2-15.3c-0.8-12,1-28.6,5.6-49.3c1.5-8.1,4-18.7,7.4-30.6c3.3-12,5.8-21.4,7.9-28.6c2.1-6.9,4.6-16.1,7.7-27.1
		c3.4-11,6.2-21,8.7-29.4c2.8-9.1,3.8-19,3-28.6c-1.8-26.4-16.4-38.9-43.8-37.1c-14.6,1.2-28.6,5.1-41.4,11.8
		c-8.7,4.3-16.8,9.7-24.5,15.6c-1,1.1-2.7,1-3.8,0s-1.1-2.7,0-3.8c44.2-64.1,76.2-121.6,95.3-171c10.5-27.8,15.3-50.1,14.3-66.7
		c-1.8-24.8-14.5-36.9-38.6-35.3c-22.7,1.5-44.2,13-63.4,34.5c-20.2,23.2-36.8,49.6-49.1,77.7c-15.9,36.1-29.4,73.3-40.9,111.2
		c-13.3,43.4-29.7,104-47.5,179.6c-17.9,75.6-32,131.6-41.9,166.1v1.1C627.4,1084.9,628.7,1086,630.2,1086z M765.7,780.4
		c17.1-59.3,35-113.2,53.4-160.5c26.5-68.5,44.2-83.8,54.1-84.3l0.5,0.3c1.2,0,5.7,0,6.4,11.2c0.5,9.1-4.3,29.9-14.8,61
		c-16.9,45.7-48.8,104.2-94.8,174.5c-0.7,1.1-2,1.2-3,1.1C766.2,783.2,765.1,782,765.7,780.4z"/>
	<path class="st4" d="M1891.6,909.7c-0.1,0.1-44.4,11.4-44.6,11.5c-11.3,9.4-30.3,25.6-68.3,44.8c-11.2,5.7-34.4,12.2-67.9,6.5
		c-31-5.3-58.6-19.1-82-26.8c-23.5-7.7-43.7-11.5-60.6-11.5h-6c6.6-12.5,22.8-27.7,48.4-45.7s46.9-31.4,63.8-40.4
		s40.3-21.2,70.2-36.4c85.9-44.6,133.5-96.3,142.6-155.2c0.9-8.9,1.2-15.1,1.2-18.8c-0.1-23.2-6.7-42.2-20-56.9
		c-13.2-14.7-28.8-24.5-46.6-29.6c-17.9-5-38.2-7.5-60.9-7.4c-35.7,0.2-72.3,8.8-109.7,25.9c-18.7,9-34.3,21.7-46.7,38
		c-12.4,16.4-18.6,35.3-18.5,56.6c0.1,12,2.8,21.4,8.5,28.1c5.6,6.6,12.9,10,22.1,9.9c9.1,0,18.9-3.6,29.1-10.8
		c-1.8-5.3-2.7-11.6-2.7-18.7c-0.1-25,11-49,33.2-72.1c22.2-23,45.1-34.6,68.5-34.7c23.4-0.1,40.8,5.7,52.3,17.2
		c11.4,11.6,17.2,27.6,17.3,48.1c0.1,20.6-8.1,41.5-24.5,63c-28,36.2-75.1,79.1-141.4,128.4c-24,18-47.1,36.6-69.4,55.8
		c-48,41.7-71.9,84.4-71.8,128.2c0.1,17,7.7,25.4,22.9,25.3c7.2,0,12.8-3.6,17-10.8s5.8-26.3,10.2-33.5c4.4-7.2,11.4-13.6,19.7-10.8
		c47.7,16,95.1,58.2,128.4,64.8c23.2,4.6,68.7,0.4,92.9-14.9c23.6-14.8,53.6-34.8,63.3-48.6c0.4-0.5,27.1-54.8,27.4-55.2
		L1891.6,909.7z"/>
</g>
<g>
	<g>
		<circle class="st2" cx="468.1" cy="1586.2" r="94.2"/>
		<path class="st5" d="M396.4,1528.5l-2.3,7c-0.3,0.9,0.2,1.8,1.1,2.1c0.9,0.3,1.8-0.2,2.1-1c0,0,2.3-6.8,3.1-9.2
			c1.1,0.2,2.2,0.5,3.2,0.7l-1.7,10c-0.2,0.9,0.5,1.8,1.4,1.9c0.9,0.2,1.8-0.5,1.9-1.4c0,0,1.3-7.4,1.7-9.9c1.4,0.3,2.9,0.5,4.3,0.8
			l-0.4,9.8c0,0.9,0.7,1.7,1.6,1.7s1.7-0.7,1.7-1.6c0,0,0.2-6.2,0.4-9.4c1.8,0.3,3.6,0.6,5.4,0.8l-0.2,9.1c0,0.9,0.7,1.7,1.6,1.7
			s1.7-0.7,1.7-1.6c0,0,0.1-6.3,0.2-8.7c2,0.3,4.1,0.5,6.1,0.7l0.7,8.4c0.1,0.9,0.9,1.6,1.8,1.5s1.6-0.9,1.5-1.8
			c0,0-0.4-5.4-0.6-7.8c2.1,0.2,4.2,0.4,6.3,0.5l1.3,8.4c0.1,0.9,1,1.5,1.9,1.4s1.5-1,1.4-1.9c0,0-0.8-4.8-1.2-7.7
			c2.1,0.1,4.3,0.2,6.4,0.3l2.6,8.1c0.3,0.9,1.2,1.4,2.1,1.1s1.4-1.2,1.1-2.1c0,0-1.4-4.5-2.2-7c2.8,0.1,5.5,0,8.3,0l3.4,8.7
			c0.3,0.9,1.3,1.3,2.2,0.9c0.9-0.3,1.3-1.3,0.9-2.2c0,0-1.9-4.7-3-7.5c2.5-0.1,4.9-0.2,7.4-0.4l3.9,8.3c0.4,0.8,1.4,1.2,2.2,0.8
			c0.8-0.4,1.2-1.4,0.8-2.2c0,0-2.1-4.4-3.3-7.2c2.3-0.2,4.6-0.4,6.9-0.6l5.7,8.5c0.5,0.8,1.5,1,2.3,0.5s1-1.5,0.5-2.3
			c0,0-3-4.5-4.8-7.1c2.3-0.3,4.6-0.6,6.9-1l6,8.4c0.5,0.7,1.6,0.9,2.3,0.4c0.8-0.5,0.9-1.6,0.4-2.3c0,0-3.2-4.4-5.1-7.1
			c1.8-0.3,3.7-0.7,5.5-1l6.4,9.1c0.5,0.8,1.6,0.9,2.3,0.4s0.9-1.6,0.4-2.3c0,0-3.7-5.2-5.6-8c2.2-0.5,4.4-1,6.6-1.6l5.1,9.4
			c0.4,0.8,1.4,1.1,2.2,0.7s1.1-1.4,0.7-2.2c0,0-3.3-6-4.7-8.7c1.5-0.4,3-0.8,4.6-1.3l5.9,9.3c0.5,0.8,1.5,1,2.3,0.5
			c0.1-0.1,0.3-0.2,0.4-0.3c0.5-0.5,0.5-1.3,0.1-2c0,0-3.6-5.6-5.4-8.5c1.7-0.5,3.5-1.1,5.2-1.7c1.7,2.6,5.9,9,5.9,9
			c0.5,0.8,1.5,1,2.3,0.5s1-1.5,0.5-2.3c0,0-3.6-5.5-5.4-8.3c0.7-0.2,1.4-0.5,2.1-0.8c-0.9-0.9-1.7-1.7-2.6-2.6
			c-0.4,0.1-0.8,0.3-1.2,0.4c-0.4-0.8-1-1.8-1.5-2.9c-0.1-0.1-0.2-0.2-0.3-0.3c-1.6-1.4-3.3-2.6-4.9-3.9c-0.2,0.4-0.2,1,0,1.4
			l3.6,6.8c-1.7,0.6-3.4,1.1-5,1.6c-0.8-2.5-2.4-7.9-2.4-7.9c-0.3-0.9-1.2-1.4-2.1-1.1c-0.9,0.3-1.4,1.2-1.1,2.1l2.4,7.9
			c-1.4,0.4-2.9,0.8-4.3,1.2c-0.7-2.7-1.8-7.5-1.8-7.5c-0.2-0.9-1.1-1.4-2-1.2c-0.9,0.2-1.4,1.1-1.2,2l1.8,7.6
			c-2.2,0.6-4.5,1.1-6.7,1.6c0-2.6-0.1-7.6-0.1-7.6c0-0.9-0.8-1.6-1.7-1.6s-1.6,0.8-1.6,1.7l0.1,8.3c-2,0.4-4,0.8-6,1.1
			c-0.1-2.2-0.2-6.6-0.2-6.6c0-0.9-0.8-1.6-1.7-1.6s-1.6,0.8-1.6,1.7l0.2,7c-2.3,0.4-4.6,0.7-6.9,1c0-2.5-0.1-7.3-0.1-7.3
			c0-0.9-0.8-1.6-1.7-1.6s-1.6,0.8-1.6,1.7l0.1,7.7c-2.3,0.3-4.5,0.4-6.8,0.6c0.3-2.3,0.9-6.8,0.9-6.8c0.1-0.9-0.5-1.7-1.4-1.9
			c-0.9-0.1-1.7,0.5-1.9,1.4l-1,7.5c-2.4,0.2-4.8,0.3-7.2,0.4c0.5-2.4,1.5-7.1,1.5-7.1c0.2-0.9-0.4-1.8-1.3-2s-1.8,0.4-2,1.3
			l-1.6,7.8c-2.5,0-5.1,0.1-7.6,0c1-2.5,2.6-6.5,2.6-6.5c0.3-0.9-0.1-1.8-0.9-2.2c-0.8-0.3-1.8,0.1-2.2,0.9l-3.1,7.6
			c-2.1-0.1-4.2-0.1-6.2-0.3c1.1-2.3,3.1-6.3,3.1-6.3c0.4-0.8,0.1-1.8-0.7-2.2c-0.8-0.4-1.8-0.1-2.2,0.7l-3.7,7.5
			c-1.8-0.1-3.5-0.2-5.3-0.4c1.5-2.6,3.7-6.4,3.7-6.4c0.5-0.8,0.2-1.8-0.6-2.3s-1.8-0.2-2.3,0.6l-4.4,7.7c-1.8-0.2-3.5-0.4-5.3-0.6
			c1.8-2.5,4.4-6,4.4-6c0.5-0.7,0.4-1.8-0.4-2.3c-0.7-0.5-1.8-0.4-2.3,0.4l-5.4,7.4c-1.8-0.3-3.5-0.5-5.3-0.8c2-2.2,5.5-6.1,5.5-6.1
			c0.6-0.7,0.5-1.7-0.2-2.3c-0.7-0.6-1.7-0.6-2.3,0.1l-6.9,7.6c-1-0.2-2-0.4-3.1-0.6c2.2-2.4,5.3-5.9,5.3-5.9
			c0.6-0.7,0.5-1.7-0.2-2.3c-0.7-0.6-1.7-0.6-2.3,0.1l-6.6,7.3c-0.8-0.2-1.6-0.4-2.4-0.5c0,0,5.3-5,5.4-5.1c0.5-0.6,0.5-1.6-0.1-2.2
			c-0.2-0.2-0.5-0.4-0.8-0.4c-2.7,2.5-5.3,5.1-7.8,8C398.4,1526,397.4,1527.2,396.4,1528.5z"/>
		<path class="st5" d="M395.2,1642.8l-2.6-7.2c-0.3-0.9,0.1-1.9,1-2.2s1.9,0.1,2.2,1c0,0,2.6,6.9,3.5,9.4c1.1-0.3,2.2-0.6,3.3-0.8
			l-2.1-10.3c-0.2-0.9,0.4-1.8,1.3-2s1.8,0.4,2,1.3c0,0,1.5,7.6,2,10.2c1.5-0.3,3-0.6,4.5-1l-0.7-10.1c-0.1-0.9,0.6-1.8,1.6-1.8
			c0.9-0.1,1.8,0.6,1.8,1.6c0,0,0.4,6.4,0.7,9.6c1.8-0.4,3.7-0.7,5.5-1l-0.5-9.4c0-0.9,0.7-1.7,1.6-1.8c0.9,0,1.7,0.7,1.8,1.6
			c0,0,0.3,6.5,0.4,9c2.1-0.4,4.2-0.7,6.3-1l0.4-8.7c0-0.9,0.8-1.7,1.8-1.6c0.9,0,1.7,0.8,1.6,1.8c0,0-0.3,5.6-0.4,8.1
			c2.2-0.3,4.3-0.5,6.4-0.7l1.1-8.7c0.1-0.9,1-1.6,1.9-1.5s1.6,1,1.5,1.9c0,0-0.6,5-1,8c2.2-0.2,4.4-0.4,6.6-0.5l2.4-8.4
			c0.3-0.9,1.2-1.4,2.1-1.2c0.9,0.3,1.4,1.2,1.2,2.1c0,0-1.3,4.7-2.1,7.3c2.9-0.1,5.7-0.2,8.5-0.2l3.3-9c0.3-0.9,1.3-1.4,2.2-1
			c0.9,0.3,1.4,1.3,1,2.2c0,0-1.8,4.9-2.8,7.8c2.5,0,5.1,0.1,7.6,0.1l3.7-8.7c0.4-0.9,1.4-1.3,2.2-0.9c0.9,0.4,1.3,1.4,0.9,2.3
			c0,0-2,4.7-3.2,7.5c2.4,0.1,4.7,0.2,7.1,0.4l5.6-8.9c0.5-0.8,1.6-1,2.4-0.5s1,1.6,0.5,2.4c0,0-3,4.8-4.7,7.5
			c2.4,0.2,4.8,0.5,7.1,0.8l6-8.8c0.5-0.8,1.6-1,2.4-0.5s1,1.6,0.5,2.4c0,0-3.1,4.6-5,7.5c1.9,0.3,3.8,0.6,5.7,0.9l6.3-9.6
			c0.5-0.8,1.6-1,2.4-0.5c0.8,0.5,1,1.6,0.5,2.4c0,0-3.6,5.5-5.6,8.4c2.3,0.4,4.6,0.9,6.8,1.4l5-9.9c0.4-0.8,1.5-1.2,2.3-0.8
			c0.9,0.4,1.2,1.5,0.8,2.3c0,0-3.2,6.3-4.6,9.2c1.6,0.4,3.2,0.8,4.8,1.2l5.8-9.7c0.5-0.8,1.5-1.1,2.3-0.6c0.2,0.1,0.3,0.2,0.4,0.3
			c0.5,0.5,0.6,1.4,0.2,2c0,0-3.5,5.8-5.4,8.9c1.8,0.5,3.6,1,5.4,1.6c1.6-2.7,5.8-9.4,5.8-9.4c0.5-0.8,1.5-1.1,2.4-0.6
			c0.8,0.5,1.1,1.5,0.6,2.4c0,0-3.6,5.8-5.3,8.8c0.7,0.2,1.4,0.5,2.2,0.7c-0.9,0.9-1.7,1.8-2.6,2.7c-0.4-0.1-0.8-0.3-1.2-0.4
			c-0.4,0.8-0.9,1.9-1.5,3c-0.1,0.1-0.2,0.2-0.3,0.3c-1.6,1.5-3.3,2.8-5,4.2c-0.2-0.5-0.2-1,0-1.5l3.5-7.1c-1.7-0.5-3.5-1-5.2-1.5
			c-0.7,2.6-2.3,8.3-2.3,8.3c-0.2,0.9-1.2,1.4-2.1,1.2c-0.9-0.3-1.4-1.2-1.2-2.1l2.3-8.3c-1.5-0.4-3-0.7-4.5-1.1
			c-0.6,2.9-1.6,7.8-1.6,7.8c-0.2,0.9-1.1,1.5-2,1.3c-0.9-0.2-1.5-1.1-1.3-2l1.7-7.9c-2.3-0.5-4.6-1-7-1.4c0,2.7,0.1,7.8,0.1,7.8
			c0,0.9-0.7,1.7-1.7,1.7c-0.9,0-1.7-0.7-1.7-1.7l-0.1-8.5c-2.1-0.4-4.2-0.7-6.2-1c0,2.3,0,6.8,0,6.8c0,0.9-0.8,1.7-1.7,1.7
			s-1.7-0.8-1.7-1.7v-7.3c-2.4-0.3-4.8-0.6-7.2-0.8c0,2.6,0.1,7.5,0.1,7.5c0,0.9-0.7,1.7-1.7,1.7c-0.9,0-1.7-0.7-1.7-1.7l-0.1-7.9
			c-2.3-0.2-4.7-0.3-7-0.4c0.4,2.4,1.1,7,1.1,7c0.2,0.9-0.5,1.8-1.4,2s-1.8-0.5-2-1.4l-1.2-7.7c-2.5-0.1-5-0.1-7.5-0.1
			c0.6,2.5,1.7,7.3,1.7,7.3c0.2,0.9-0.3,1.8-1.3,2.1c-0.9,0.2-1.8-0.4-2.1-1.3l-1.9-8c-2.6,0-5.3,0.1-7.9,0.2
			c1.1,2.5,2.9,6.6,2.9,6.6c0.4,0.9,0,1.9-0.9,2.3s-1.9,0-2.3-0.9l-3.4-7.8c-2.1,0.1-4.3,0.3-6.4,0.5c1.2,2.3,3.4,6.4,3.4,6.4
			c0.4,0.8,0.1,1.9-0.7,2.3c-0.8,0.4-1.9,0.1-2.3-0.7l-4.1-7.6c-1.8,0.2-3.7,0.4-5.5,0.6c1.6,2.6,4,6.5,4,6.5
			c0.5,0.8,0.2,1.9-0.6,2.4s-1.9,0.2-2.4-0.6l-4.8-7.8c-1.8,0.3-3.6,0.5-5.5,0.8c1.9,2.5,4.7,6.1,4.7,6.1c0.6,0.7,0.4,1.8-0.3,2.4
			c-0.7,0.6-1.8,0.4-2.4-0.3l-5.8-7.5c-1.8,0.3-3.6,0.6-5.4,1c2.2,2.2,5.9,6.2,5.9,6.2c0.6,0.7,0.6,1.7-0.1,2.4s-1.8,0.6-2.4-0.1
			l-7.3-7.6c-1,0.2-2.1,0.4-3.1,0.7c2.3,2.4,5.6,5.9,5.6,5.9c0.6,0.7,0.6,1.7-0.1,2.4s-1.8,0.6-2.4-0.1l-7-7.3
			c-0.8,0.2-1.6,0.4-2.5,0.6c0,0,5.6,5,5.7,5.1c0.6,0.6,0.6,1.6,0,2.3c-0.2,0.2-0.5,0.4-0.8,0.5c-2.9-2.5-5.7-5.1-8.3-8
			C397.3,1645.3,396.2,1644,395.2,1642.8z"/>
	</g>
	<g class="st6">
		<path class="st4" d="M419.7,1600.9l-2.2-10.3l-2.9-13h-0.2l-5.1,23.2H401l-8-29.3h7.7l3.3,13c0.5,2.3,1.1,5.5,1.6,9.6h0.2
			c0.1-1.3,0.4-3.4,0.9-6.3l0.4-2.2l3.5-14.1h8.5l3.3,14.1c0.1,0.4,0.2,1,0.3,1.7c0.1,0.8,0.3,1.6,0.4,2.4s0.3,1.7,0.4,2.5
			s0.2,1.5,0.2,2h0.2c0.2-1.3,0.4-3,0.8-5.2s0.7-3.7,0.8-4.4l3.4-13h7.5l-8.1,29.3L419.7,1600.9L419.7,1600.9z"/>
		<path class="st4" d="M473.2,1600.9l-2.2-10.3l-2.9-13h-0.2l-5.1,23.2h-8.3l-8-29.3h7.7l3.3,13c0.5,2.3,1.1,5.5,1.6,9.6h0.2
			c0.1-1.3,0.4-3.4,0.9-6.3l0.4-2.2l3.5-14.1h8.5l3.3,14.1c0.1,0.4,0.2,1,0.3,1.7c0.1,0.8,0.3,1.6,0.4,2.4s0.3,1.7,0.4,2.5
			s0.2,1.5,0.2,2h0.2c0.2-1.3,0.4-3,0.8-5.2s0.7-3.7,0.8-4.4l3.4-13h7.5l-8.1,29.3L473.2,1600.9L473.2,1600.9z"/>
		<path class="st4" d="M526.7,1600.9l-2.2-10.3l-2.9-13h-0.2l-5.1,23.2H508l-8-29.3h7.7l3.3,13c0.5,2.3,1.1,5.5,1.6,9.6h0.2
			c0.1-1.3,0.4-3.4,0.9-6.3l0.4-2.2l3.5-14.1h8.5l3.3,14.1c0.1,0.4,0.2,1,0.3,1.7c0.1,0.8,0.3,1.6,0.4,2.4s0.3,1.7,0.4,2.5
			c0.1,0.8,0.2,1.5,0.2,2h0.2c0.2-1.3,0.4-3,0.8-5.2c0.4-2.2,0.7-3.7,0.8-4.4l3.4-13h7.5l-8.1,29.3L526.7,1600.9L526.7,1600.9z"/>
	</g>
</g>
<g>
	<g>
		<defs>
			<path id="SVGID_00000071553813326580030840000013322500301073159868_" d="M2420.5,669.8l-953.1-550.4L1260.5,0l-206.9,119.4
				L100.5,669.8L0,727.8v1455.4l100.5,58l965.1,557.3l149.1,86c0.2-0.1,0.4-0.1,0.7-0.2c10.7-2.9,22-6.9,29.3-15.6
				c9.5-11.3,8.3-26.6,4.7-40c-4.1-15.1-11-29.6-11.3-45.5c-0.1-6.4,9.9-6.4,10,0c0.3,17,9,32.6,12.4,49.1c3,14.8,1.8,30.4-8,42.5
				c-6.6,8.2-15.6,13.1-25.4,16.6l33.8,19.5l195.3-112.5l965.1-557.3l99.8-57.6V727.8L2420.5,669.8z"/>
		</defs>
		<clipPath id="SVGID_00000089540548621923729260000009724894574362239645_">
			<use xlink:href="#SVGID_00000071553813326580030840000013322500301073159868_"  style="overflow:visible;"/>
		</clipPath>
		<g style="clip-path:url(#SVGID_00000089540548621923729260000009724894574362239645_);">
			<g>
				<path class="st8" d="M2512.5,2830.3c-55.2-1.6-110.5-3.3-165.7-4.8c-10.9-0.3-21.7,0-32.6,0c0-2.5-0.1-4.9-0.1-7.4h122.3
					c0.1-2.7,0.1-5.4,0.2-8.1c-20.5-1.1-41-2.3-61.4-3.1c-11.2-0.4-22.6-1.2-33.6,0.2c-25.2,3-46.1-1.4-57.2-29.1
					c19.3-13.9,21.2-24.6,1.5-45.7c-17.8-19.1-15.5-49.8-4.7-76.9c4.7-11.8,4.7-25.5,6.3-38.4c0.4-3.5-2.9-9.1-1.4-10.6
					c16.4-16.8,16-30.4-4.1-44.7c-8.1-5.8-11.6-23.9-18.4-24.6c-29.2-3-54.3-24.2-86.9-15.1c-17.3,4.8-38.1-2.1-57.1-5
					c-8.7-1.3-18-9.7-25.1-7.8c-26,7-45.8-4.2-66.2-17c-6.1-3.8-14.4-7.4-21.1-6.5c-47.8,6.4-81-24.6-118.9-44.1
					c-34.4-17.7-70-33.3-105.6-48.4c-9.8-4.2-21.8-4.5-32.8-4.7c-19.3-0.4-34.3-18-28.8-36.7c12.7-43.7,26.1-87.3,39.2-130.9
					c10.9-36.6,34.1-61.5,68.7-78.1c60.9-29.1,102.1-76.3,123.4-140.8c13.5-40.9,7.3-79.5-10.9-117.2c-13.1-27-6.2-46,22.9-55
					c27.6-8.5,46.2-25.4,59.4-50.4c70.1-132.9,130.8-268.9,142.8-421.4c3.9-49.5,6-98.9-22.8-143.3c-5.3-8.1-11.5-15.6-17.4-23.3
					c-10-12.9-16.3-23.8-4.3-41.5c7.2-10.6,4.2-28.8,4.1-43.5c-0.9-74.7-30.2-118.8-93.7-142.7c-75.7-28.4-168.1,13.2-194.6,88.8
					c-6.4,18.2-14.9,32-34,37.8c-2.8,0.9-5.4,2.5-8.1,3.9c-51.3,26-54.3,39.6-19.1,82.6c-41.9,21.5-83.2,44.9-126.4,64.2
					c-86.5,38.6-172.8,76.9-253.6,127.1c-23.9,14.8-54,19.4-80.9,29.7c-15.1,5.8-30.1,12.3-43.8,20.8
					c-21.1,13.1-41.7,27.1-61.2,42.5c-22.8,17.9-36.1,41.8-35.8,71.6c0.1,12-4.7,17.4-16.4,19.1c-32.2,4.7-53.2,28.2-76.9,47
					c-3.4,2.7-7.9,7.2-7.7,10.6c1.9,29.8-22.2,32.8-41.2,41.2c-164,72.3-329.7,141.2-485,231.7c-46.5,27.1-92.4,55.1-137.8,83.9
					c-33.5,21.3-38.6,48.1-18.5,82.4c17.8,30.4,48.8,40.5,80.8,21.9c64-37.1,127.5-75.1,189.7-115.1
					c135.7-87.3,270.5-176.1,405.5-264.4c14.2-9.3,25.8-13.6,44.6-6c32.5,13.3,65,19.4,97.3-10.8c21.7-20.3,53.6-30,81.3-43.7
					c5-2.5,11.7-2.1,17.6-2c74,1.3,148,4,221.9,3.8c35.5-0.1,71-5.8,110-9.2c-1.9,13.1-4.8,27.9-6.1,42.9c-1.9,23.3-2.7,46.8-4,70.2
					c-0.1,2.1,0.7,5.3-0.4,6.3c-19.9,18.2-19,42.6-21,66.4c-0.3,3.6-4.8,6.9-7.7,10.1c-24.9,27.8-50.3,55.2-74.6,83.6
					c-9.1,10.7-19.7,22.5-23,35.4c-15.4,61.6-57.4,109.4-82.3,165.9c-23.1,52.3-53.7,99.6-88.5,144.8
					c-18.9,24.6-34.3,52.5-29.1,86.4c0.5,3.6-2.5,8.3-4.9,11.8c-30.3,44.1-60,88.6-91.6,131.8c-31.7,43.2-65.1,85.1-98.4,127.2
					c-4.2,5.4-11.5,9.8-18.2,11.5c-22.1,5.7-34.2,19.1-38.9,41.2c-2.1,9.9-7.6,19.2-11.7,29c-14.5-6.5-27.4-15.8-41.2-17.4
					c-12.5-1.5-28.5,2.1-38.1,9.7c-4.8,3.7,1.4,21.4,2.5,30.8c-33.9,11.7-72.5,22-108,38.8c-14.7,7-22.9,27.8-39.5,49.4H627
					c0,2.8-0.1,5.6-0.1,8.4H833c0,3.4,0,6.8,0,10.2c-123,1.8-246,3.6-369,5.5l0.2,7.6h252.4c0,2.4,0,4.7,0,7.1H392.1
					c0,2.8,0,5.7,0.1,8.5c286.6,3,573.2,1.6,859.8-0.8c-0.2-5.5-1.2-11-2.6-16.2c-1.9-7.1-4.5-14.2-6.7-21.3
					c-8.3-2.9-11.7-9.7-12.5-21.9c-1-14.7-6.5-29.1-7.8-43.9c-0.7-7.7,0.7-18.3,5.6-23.4c26.7-27.7,55-53.9,82.2-81
					c21.2-21.1,42.8-41.9,62.1-64.6c35.2-41.4,68.8-84.1,103.5-126.7c1,4,2.8,9.3,3.8,14.8c7,38.9,28,67.2,64.6,82.7
					c15.7,6.7,31.9,13.4,48.5,16.8c125.3,25.6,248.1,59.9,369.4,100.3c23.9,8,50.5,7.9,81.1,12.2c7.4,6.5,20.2,17.5,32.9,28.5
					c-22.9,37-22.2,43.7,6.3,64.2c2.9,20.2-8,22.9-25.1,22.8c-94.5-0.8-188.9-1.2-283.4-1.5v10c101.8,0.9,203.7,1.9,305.5,3
					c13.8,0.2,18.6-7.4,20.6-18.6c3.4-19.3,6.2-38.6,10.3-64.6c22.1,32,40.4,58.5,60.8,88.1c-11.9,0.6-19.2,1.2-26.4,1.2
					c-104.7,0.1-209.4-0.2-314.1,0.2c-18.9,0.1-37.8,0.1-56.7,0.2v13.9h403.2c0,1.3,0,2.5,0,3.8H1774v16
					c126.4-1.1,252.7-2.1,379.1-2.6c-126.4,1.7-252.7,3.3-379.1,4.9v24h249.3c0,1.9,0,3.8,0,5.7c-83.1,0-166.2,0-249.3,0v4.9h715.3
					c0-2.1,0-4.1,0-6.2h-436.9c0-2.7,0-5.4,0-8.1c93,0,186,1.2,279-0.4c60.4-1,120.8-6.2,181.1-9.5v-4.5
					c-24.2-2.4-48.3-4.7-72.5-7.1c0-0.6,0-1.3,0-1.9l72.5-4.5L2512.5,2830.3L2512.5,2830.3z M1658.2,1450.6
					c-22.6,16.2-47.6,26.8-74.5,33.8c-27.6,7.1-55.9,11.1-83.7,17c-31.8,6.8-63.3,15.2-95,22.2c-14.1,3.1-27.7,7-40.6,13.6
					c-10.8,5.6-22.9,12.5-35.4,8.8c-2.8-0.8-3.9-3.5-3.5-6.2c1.8-11,5.1-21.8,9.2-32.1c3.8-9.5,8-18.9,14.8-26.7
					c7.8-9.1,18.2-14.7,28.6-20.3c5.5-18.1,28.1-24,45.1-26.5c25.7-3.8,51.8-5.1,77.6-8.4c29.9-3.8,59.7-9.4,88.4-18.8
					c21.6-7.1,42.1-17,63.7-24.1c20.3-6.6,43.5-12.9,64.8-7.5c3.3,0.8,4.4,4.5,3,7.3C1707.1,1410.4,1682.7,1433,1658.2,1450.6z"/>
				<path class="st8" d="M358.3,2866.3h888.2c3.5-5.1,5.1-10.9,5.5-16.9C954,2853.8,656.2,2859,358.3,2866.3z"/>
			</g>
			<g>
				<path class="st9" d="M358.3,2866.3h888.2c3.5-5.1,5.1-10.9,5.5-16.9C954,2853.8,656.2,2859,358.3,2866.3z"/>
				<path class="st9" d="M2512.5,2830.3c-55.2-1.6-110.5-3.3-165.7-4.8c-10.9-0.3-21.7,0-32.6,0c0-2.5-0.1-4.9-0.1-7.4h122.3
					c0.1-2.7,0.1-5.4,0.2-8.1c-20.5-1.1-41-2.3-61.4-3.1c-11.2-0.4-22.6-1.2-33.6,0.2c-25.2,3-46.1-1.4-57.2-29.1
					c19.3-13.9,21.2-24.6,1.5-45.7c-17.8-19.1-15.5-49.8-4.7-76.9c4.7-11.8,4.7-25.5,6.3-38.4c0.4-3.5-2.9-9.1-1.4-10.6
					c16.4-16.8,16-30.4-4.1-44.7c-8.1-5.8-11.6-23.9-18.4-24.6c-29.2-3-54.3-24.2-86.9-15.1c-17.3,4.8-38.1-2.1-57.1-5
					c-8.7-1.3-18-9.7-25.1-7.8c-26,7-45.8-4.2-66.2-17c-6.1-3.8-14.4-7.4-21.1-6.5c-47.8,6.4-81-24.6-118.9-44.1
					c-34.4-17.7-70-33.3-105.6-48.4c-9.8-4.2-21.8-4.5-32.8-4.7c-19.3-0.4-34.3-18-28.8-36.7c12.7-43.7,26.1-87.3,39.2-130.9
					c10.9-36.6,34.1-61.5,68.7-78.1c60.9-29.1,102.1-76.3,123.4-140.8c13.5-40.9,7.3-79.5-10.9-117.2c-13.1-27-6.2-46,22.9-55
					c27.6-8.5,46.2-25.4,59.4-50.4c70.1-132.9,130.8-268.9,142.8-421.4c3.9-49.5,6-98.9-22.8-143.3c-5.3-8.1-11.5-15.6-17.4-23.3
					c-10-12.9-16.3-23.8-4.3-41.5c7.2-10.6,4.2-28.8,4.1-43.5c-0.9-74.7-30.2-118.8-93.7-142.7c-75.7-28.4-168.1,13.2-194.6,88.8
					c-6.4,18.2-14.9,32-34,37.8c-2.8,0.9-5.4,2.5-8.1,3.9c-51.3,26-54.3,39.6-19.1,82.6c-41.9,21.5-83.2,44.9-126.4,64.2
					c-86.5,38.6-172.8,76.9-253.6,127.1c-23.9,14.8-54,19.4-80.9,29.7c-15.1,5.8-30.1,12.3-43.8,20.8
					c-21.1,13.1-41.7,27.1-61.2,42.5c-22.8,17.9-36.1,41.8-35.8,71.6c0.1,12-4.7,17.4-16.4,19.1c-32.2,4.7-53.2,28.2-76.9,47
					c-3.4,2.7-7.9,7.2-7.7,10.6c1.9,29.8-22.2,32.8-41.2,41.2c-164,72.3-329.7,141.2-485,231.7c-46.5,27.1-92.4,55.1-137.8,83.9
					c-33.5,21.3-38.6,48.1-18.5,82.4c17.8,30.4,48.8,40.5,80.8,21.9c64-37.1,127.5-75.1,189.7-115.1
					c135.7-87.3,270.5-176.1,405.5-264.4c14.2-9.3,25.8-13.6,44.6-6c32.5,13.3,65,19.4,97.3-10.8c21.7-20.3,53.6-30,81.3-43.7
					c5-2.5,11.7-2.1,17.6-2c74,1.3,148,4,221.9,3.8c35.5-0.1,71-5.8,110-9.2c-1.9,13.1-4.8,27.9-6.1,42.9c-1.9,23.3-2.7,46.8-4,70.2
					c-0.1,2.1,0.7,5.3-0.4,6.3c-19.9,18.2-19,42.6-21,66.4c-0.3,3.6-4.8,6.9-7.7,10.1c-24.9,27.8-50.3,55.2-74.6,83.6
					c-9.1,10.7-19.7,22.5-23,35.4c-15.4,61.6-57.4,109.4-82.3,165.9c-23.1,52.3-53.7,99.6-88.5,144.8
					c-18.9,24.6-34.3,52.5-29.1,86.4c0.5,3.6-2.5,8.3-4.9,11.8c-30.3,44.1-60,88.6-91.6,131.8c-31.7,43.2-65.1,85.1-98.4,127.2
					c-4.2,5.4-11.5,9.8-18.2,11.5c-22.1,5.7-34.2,19.1-38.9,41.2c-2.1,9.9-7.6,19.2-11.7,29c-14.5-6.5-27.4-15.8-41.2-17.4
					c-12.5-1.5-28.5,2.1-38.1,9.7c-4.8,3.7,1.4,21.4,2.5,30.8c-33.9,11.7-72.5,22-108,38.8c-14.7,7-22.9,27.8-39.5,49.4H627
					c0,2.8-0.1,5.6-0.1,8.4H833c0,3.4,0,6.8,0,10.2c-123,1.8-246,3.6-369,5.5l0.2,7.6h252.4c0,2.4,0,4.7,0,7.1H392.1
					c0,2.8,0,5.7,0.1,8.5c286.6,3,573.2,1.6,859.8-0.8c-0.2-5.5-1.2-11-2.6-16.2c-1.9-7.1-4.5-14.2-6.7-21.3
					c-8.3-2.9-11.7-9.7-12.5-21.9c-1-14.7-6.5-29.1-7.8-43.9c-0.7-7.7,0.7-18.3,5.6-23.4c26.7-27.7,55-53.9,82.2-81
					c21.2-21.1,42.8-41.9,62.1-64.6c35.2-41.4,68.8-84.1,103.5-126.7c1,4,2.8,9.3,3.8,14.8c7,38.9,28,67.2,64.6,82.7
					c15.7,6.7,31.9,13.4,48.5,16.8c125.3,25.6,248.1,59.9,369.4,100.3c23.9,8,50.5,7.9,81.1,12.2c7.4,6.5,20.2,17.5,32.9,28.5
					c-22.9,37-22.2,43.7,6.3,64.2c2.9,20.2-8,22.9-25.1,22.8c-94.5-0.8-188.9-1.2-283.4-1.5v10c101.8,0.9,203.7,1.9,305.5,3
					c13.8,0.2,18.6-7.4,20.6-18.6c3.4-19.3,6.2-38.6,10.3-64.6c22.1,32,40.4,58.5,60.8,88.1c-11.9,0.6-19.2,1.2-26.4,1.2
					c-104.7,0.1-209.4-0.2-314.1,0.2c-18.9,0.1-37.8,0.1-56.7,0.2v13.9h403.2c0,1.3,0,2.5,0,3.8H1774v16
					c126.4-1.1,252.7-2.1,379.1-2.6c-126.4,1.7-252.7,3.3-379.1,4.9v24h249.3c0,1.9,0,3.8,0,5.7c-83.1,0-166.2,0-249.3,0v4.9h715.3
					c0-2.1,0-4.1,0-6.2h-436.9c0-2.7,0-5.4,0-8.1c93,0,186,1.2,279-0.4c60.4-1,120.8-6.2,181.1-9.5v-4.5
					c-24.2-2.4-48.3-4.7-72.5-7.1c0-0.6,0-1.3,0-1.9l72.5-4.5L2512.5,2830.3L2512.5,2830.3z M2134,1233.1
					c11.3,22.1,18.3,46.5,5.4,73.5c-3.9-18.3-7.3-33.9-10.6-49.5c-7.3,33.1-13.7,41.3-37,47.8c31.1-32.7,33.5-47.2,12.5-95v58
					c-1.6,0-3.3,0-4.9,0.1c-2.9-31.6-5.7-63.3-9.1-100C2107.8,1193.5,2123.3,1212.1,2134,1233.1z M891.7,2783.9
					c-15.1,3.8-27.5,7-40,10.2c-2-1.2-3.9-2.3-5.9-3.5c5-9,7.7-21.2,15.3-26.4c26.8-18.1,67-13.1,96.3,12h-77.2
					C886.1,2780.1,888.2,2781.5,891.7,2783.9z M983.7,2772.4c-18.1-9.6-36.2-19.3-54.3-28.9c0.2-1.9,0.3-3.9,0.5-5.8
					c11.1-1.8,22.2-3.6,36.2-5.9c-2.4,8.6-3.8,13.6-5.1,18.4c8.8,6.3,17.2,12.4,25.5,18.4C985.5,2769.9,984.6,2771.2,983.7,2772.4z
					 M1009.1,2699.3c-11.7-1.2-23-2.4-34.4-3.5l1.4-10c11,1.6,22,3.1,33,4.9C1009.3,2690.8,1009.1,2693.1,1009.1,2699.3z
					 M1757,1475.5c2.4,6.5,4.1,10.9,7,18.5c-10.8-7.2-18.1-12.1-21.7-14.5c-7.6,10.1-14.8,19.6-22.5,29.7
					c-9.2-13.1-17-24.2-24.7-35.2c-2.4,0.5-4.8,1-7.2,1.5c-2.1,20.2-4.2,40.3-6.2,59.5c-9.5-20.1-19.8-42-31.9-67.6
					c94.7-36.7,178.2,2.9,263.1,27.6C1861.7,1487.7,1811.5,1471.2,1757,1475.5z M1693.8,1709.9c-1,0.4-2.1,0.9-3.1,1.3
					c-5.8-8.2-11.6-16.4-19.4-27.4v18.8c-4.3-0.2-7.2-0.4-15.6-0.8c12,17.2,21,30.2,32.1,46.2c-11.2-5.4-21.1-7.8-27.7-13.8
					c-6.9-6.3-15.6-16.6-14.7-24.2c3.5-30.9,10.3-61.4,16.6-96.1c37.4,14.9,38.6,53.9,61.6,75.6c-1.6,1.3-3.2,2.5-4.8,3.8
					c-11.3-15.2-22.6-30.5-34-45.7l-5,3.3c16.3,24.9,32.7,49.9,49,74.8c-0.4,0.4-0.8,0.8-1.2,1.2c-12.8-11.8-25.5-23.6-40.5-37.5
					C1689.9,1697.8,1691.8,1703.8,1693.8,1709.9z M1940.5,1932.5c10,41.9-17.8,115.6-47.9,133.8c10-21.8,23.3-45.3,31.4-70.5
					c8.2-25.4,9.2-50.8-6.9-76.6c-13.8-22.2-17.9-48.8-2.7-69c5.4,17.1,11.2,35.9,17.2,54.7
					C1934.5,1914.1,1938.2,1923.1,1940.5,1932.5z M1917.2,1375.7c-0.1,1.4-0.1,2.8-0.2,4.2c21.9,3.3,43.8,6.6,65.7,9.9
					c-0.2,1.1-0.3,2.3-0.5,3.4c-29-1.3-58-2.6-87-4c0.2,1.1,0.4,2.2,0.7,3.2c18.4,5.1,36.9,10.2,55.3,15.2c-0.2,0.6-0.3,1.1-0.5,1.7
					c-30.8-3.5-61.6-7-92.4-10.4c-0.1,1.8-0.3,3.7-0.4,5.5c20.7,4,41.4,7.9,62,11.9c-34.3,4-68.9-15.2-101.8,8.7
					c8.1,2.6,15.8,5,24.7,7.8h-110.3c95-53.8,187.8-81.4,290.6-52.3C1987.8,1378.9,1952.5,1377.3,1917.2,1375.7z M1825,1250.7
					c3.7-42.5,7.1-49.4,23.6-50C1840.5,1217.9,1832.7,1234.3,1825,1250.7z M1852.6,1212.9c2.3,0.9,4.7,1.7,7,2.6
					c-7.6,21.1-15.3,42.1-22.9,63.2c-1.6-0.5-3.2-1.1-4.8-1.6C1838.8,1255.7,1845.7,1234.3,1852.6,1212.9z M1920.4,1321.5
					c-16.7,6.8-33.4,13.6-52.1,21.2c6.7,1.6,11,2.6,15.2,3.6c-40.5,44-102.2,39.8-149,69.8
					C1787.9,1368.3,1847.7,1332.1,1920.4,1321.5z M1872.6,1195.7c13.2,32.7,24.5,60.5,36.4,90.1c-5.6-2.6-13.4-3.7-15.3-7.6
					c-10.8-22.6-8.4-50.5-27.5-70.2C1865.8,1207.5,1868,1204.4,1872.6,1195.7z M1846.9,1085.4c7.4-36.3,17.3-74.2,54.9-89.7
					c30.3-12.5,63.8-20.3,96.5-23.4c32.7-3,71.6,26.9,82.1,56.4c-7.4-6.4-12.9-12.1-19.4-16.5c-7.2-4.9-15.3-8.5-26.1-14.4
					c12.5,37.1-19.7,2.1-21.2,17.5c0,0.4-2.4,1.1-2.7,0.7c-12.4-12.7-12.4-12.7-20.7,1.3c-14.1-9.9-26.2-8.1-37.2,7.9v-15.8
					c-5.7,6.6-9.5,11-15.4,17.9v-18.9c-11.8,17.3-20,29.5-28.7,42.2v-18.2c-7.6,9.9-12.7,16.6-19.5,25.3v-24
					c-7,15.1-10,25.2-15.8,33.3c-17.5,24.6-17.6,26.8,5.8,44.8c4.4,3.4,8.9,6.8,15.2,11.6
					C1863.7,1116.2,1843.7,1101.1,1846.9,1085.4z M1779.1,1122.4c15.7-11.5,34.2-19.2,57.4-31.3c1.5,19.7,2.5,33,3.5,46.9
					c0.8,0.2,5.1,1.1,11.9,2.6c-12.8,3.4-22.4,5.9-32.1,8.5c0.2,1,0.4,2,0.5,3h24c-13,5.1-22.7,8.9-32.4,12.7c0.4,2.5,0.8,5,1.3,7.5
					h72.6c0,2,0.1,4,0.1,5.9c-10.8,1.6-21.5,3.8-32.4,4.8c-31.5,3-57.7-7.9-75.1-34.3C1774.2,1142.4,1774.5,1125.7,1779.1,1122.4z
					 M1829.1,1195.9c-11,27.3-21.1,52.3-31.2,77.3c-1-0.3-2.1-0.7-3.1-1c5.7-22,11.3-44,17-65.9c-1.8-0.7-3.6-1.3-5.4-2
					c-10.6,26.4-21.2,52.8-34,84.6c4.4-25,7.9-44.6,11.4-64.1c-15.2,31.9-36.5,62.2-24.2,92.9c-17.4-24-38.3-52.8-59.5-81.9
					C1739,1216.4,1775.6,1184.5,1829.1,1195.9z M1656.3,1254.3c14.1,1.6,28.2,3.3,42.2,4.9c-0.4,2.7-0.8,5.4-1.2,8.1
					c-0.6,0.4-1.3,0.6-1.8,1.1c-2.3,2.5-4.6,5.1-6.9,7.6c-0.4,0.4-1.2,0.4-1.9,0.6c-10.7-5.3-21.5-10.6-32.2-15.9
					C1655.2,1258.7,1655.8,1256.5,1656.3,1254.3z M1719.4,1380.9c-39.6,58.8-85.8,84.2-154.8,97.8c-51.1,10.1-101.4,24.6-151.8,38.3
					c-29.1,7.9-57.5,18.1-86.7,27.4c12.3-19.8,22.4-38.9,35.3-55.7c7.2-9.4,18.2-18.9,29.3-22c35.8-10.1,72.6-16.9,108.8-25.8
					c41.9-10.3,83.7-21.1,125.4-32.4C1656.5,1399.9,1687.9,1390.1,1719.4,1380.9z M527.4,1936.9c118.8-66.3,237.2-133.1,362.7-183
					c-146.9,78.7-294.8,158-441.5,236.6c7.6,14.8,12.7,24.9,17.8,34.9c-10.5-6.7-17.3-15.7-25.7-22.7c-8.3-6.9-18.2-11.7-26.1-16.5
					c215.2-146.9,456.8-243.3,693.3-349.8C918.2,1744.1,708.7,1813.4,527.4,1936.9z M1198.6,1601.3c3.1-14.7,4.8-22.9,8-38
					c-41.7,19.7-78.5,37.1-113.3,53.6c-1.5-26.6,93.1-68.8,130.5-52.2c-2,4.4-4.1,8.7-6.5,13.8c12.7-6,23.7-11.2,34.7-16.5
					c1.1,2.1,2.3,4.3,3.4,6.4C1237.9,1578.5,1220.5,1588.6,1198.6,1601.3z M1240,1528.3c-11.5-1.9-20.8-16.9-32.5-27.2
					c-2.2,13.3-4.8,28.8-7.3,44.3c-14.6-45.5-0.5-64.6,59-87c-9.4,13-20.3,24.7-27.1,38.3c-10.1,20.2-1.6,31.6,20,26.3
					c14.9-3.6,28.6-12.5,42.6-19C1282.9,1525.7,1261.3,1531.8,1240,1528.3z M1302.7,1457.6c-3.1-4.9-5.1-8.2-7.7-12.2
					c-15.9,31.9-15.9,31.9-27.8,34.1c9.5-53.7,11-54,63.4-68.8c26-7.4,51.8-17.5,75.9-29.8c49.8-25.5,98.1-53.9,147.7-79.7
					c22-11.5,46.3-15.9,71.9-4.9c-12.6,3.6-25.2,7.2-37.8,10.8c-16.4,4.7-34,7-48.9,14.6c-30.8,15.8-60.1,34.4-90,51.9
					c-25,14.6-50,29.2-75,43.8c-1.9,1.1-4.1,3-5.9,2.8C1337.9,1416.9,1319.3,1435.5,1302.7,1457.6z M1437.7,1544.7
					c0-0.2,0.6-3.2,1.3-6.7c-42.4,11.7-84.2,23.3-126,34.9c25.3-13.3,51.6-23.7,78.6-31.4c55.8-15.8,111.9-30.7,168.2-44.8
					c15.1-3.8,31.8-4.5,36.6,14.5C1542.8,1522.5,1489.6,1533.7,1437.7,1544.7z M1619.5,1513.3c-5.3-9.1-10.8-18.5-16.4-28.2
					c33.8-13.2,38.7-10.4,43.3,20.1C1637.7,1507.8,1629.6,1510.3,1619.5,1513.3z M1075.6,2660.2c-1.5-1.6-3.1-3.2-4.6-4.8
					c8-7.4,14.9-17.6,24.4-21.8c26.5-11.8,54.1-21.2,81.4-31.3c26.2-9.7,52.6-19.2,78.9-28.8c0.9,2.3,1.8,4.6,2.8,6.8
					C1197.5,2606.9,1136.5,2633.5,1075.6,2660.2z M1703,1905.9c-0.8,1.5-1.7,3-2.5,4.5c-22-9.2-44-18.5-66.1-27.7
					c-0.8,1.7-1.6,3.3-2.5,5c19.8,12.8,39.7,25.5,59.5,38.3c-0.7,1-1.4,2-2,2.9l-57.8-28.5c-0.6,1.2-1.1,2.4-1.7,3.5
					c12,10,24,20.1,38.5,32.1c-11.9-1.9-20.1-3.3-28.4-4.6c-0.5,1.7-0.9,3.5-1.4,5.2c10.7,6.4,21.3,12.9,34.1,20.6
					c-8.4-0.5-14.4-0.8-23.8-1.4c8.8,13.8,15.7,24.7,22.6,35.7c-2.2,1.5-4.5,2.9-6.7,4.4c-19.7-27.7-39.4-55.4-58.3-82.1
					c-3.2,45.2-6.3,90.4-9.4,135.5c-2-0.1-4-0.2-6-0.2v-91.2c-2-0.1-4.1-0.2-6.1-0.3l-22,221.6c-0.8,0-1.6,0-2.3,0V2010
					c-1.2,0-2.4,0-3.6,0c-6.6,73.3-13.2,146.6-19.7,219.9c-0.7,0-1.4-0.1-2.1-0.1v-118.1c-1.3,0-2.7-0.1-4-0.1
					c-3.1,50.3-6.3,100.7-9.4,151c-2-0.1-3.9-0.2-5.9-0.3v-117.6c-2.3,0-4.6,0.1-6.9,0.1v208.9c-0.7,0.1-1.5,0.1-2.2,0.2
					c-4.7-47.3-9.4-94.7-14.1-142c-1.1,27.6-2.6,55.1-0.8,82.5c3.3,51.6-1.9,106.5,49.4,142.5c-1.5,1.4-3,2.8-4.5,4.2
					c-11.5-8.1-23-16.2-34.3-24.1c2.4,29.8,18.7,52.3,42.6,70.9c-6.1-1.3-11.3-3.5-15.9-6.6c-5.3-3.5-10.1-7.7-16.8-13
					c0,5.2,0.3,8.1-0.1,11c-0.3,2.1-1.4,4.2-4.4,12.5c-42.3-148.6-51.5-291.6-17.1-437c-7.1,16.3-14.2,32.6-21.4,49.1
					c-1-1-3.4-3.3-9.1-8.7c2.7,12.2,4.4,19.6,6.4,28.5c-5.1-2.5-8.5-4.2-13.9-6.9c2,12.1,3.7,21.9,5.8,34.4
					c-6.6-5.7-10.9-9.3-16.8-14.4c1.8,14.3,3.2,25.5,4.6,36.8c-2.5,1.6-5,3.2-7.5,4.8l-7.8-19.7c-2.4,1.7-4.9,3.5-7.3,5.2
					c5,13.9,10,27.8,17.2,47.9c-11.3-12-18.1-19.2-27.4-29.1c-4.4,25.5,19.5,34.7,25.7,56.1c-14.3-12.4-25.4-22-36.5-31.7
					c-1,1-1.9,2.1-2.9,3.1c3.1,5.5,6.1,11,10.8,19.4c-8-4.4-12.6-6.9-17.3-9.5c-0.8,1-1.6,2-2.4,3c11.4,15.4,22.8,30.9,34.3,46.3
					c-1.8,1.5-3.6,3.1-5.3,4.6l-34.1-41.3c-2.3,1.8-4.7,3.7-7,5.5l33.6,47.6c-0.6,0.6-1.3,1.1-1.9,1.7
					c-14.6-11.8-29.3-23.5-43.9-35.3c-1.3,1.5-2.5,2.9-3.8,4.4c14.7,17,29.5,34,44.2,51c-0.7,0.7-1.3,1.5-2,2.2
					c-16.4-13.8-32.9-27.6-49.3-41.3c-1.5,1.7-2.9,3.5-4.4,5.2c16.7,18.8,33.4,37.5,50.2,56.3c-1,0.9-2.1,1.8-3.1,2.7
					c-16.4-15.6-32.8-31.1-49.2-46.7c-1.8,1.5-3.7,3-5.5,4.5c11.8,15.9,23.5,31.9,35.9,48.7c-15.6-8.8-29.9-16.8-44.2-24.8
					c-2.2,2.2-4.4,4.3-6.6,6.5c11.1,15.3,22.1,30.5,33.2,45.8c-0.4,0.5-0.8,1.1-1.3,1.6c-8.4-6.4-16.8-12.8-30.2-23
					c7.3,14.5,11.3,22.5,17.9,35.6c-9.9-7.1-14.7-10.5-21.4-15.4c-5.2,27,19.9,34.2,30.7,56.6c-17.3-11.7-29.5-20-41.7-28.2
					l-4.4,4.7c12.7,13.2,25.4,26.4,38.1,39.6c-0.7,0.5-1.3,1.1-2,1.6c-14.7-9.4-29.4-18.8-44.1-28.2c-0.8,1.4-1.6,2.7-2.4,4.1
					c16.1,18,32.2,36.1,48.4,54.1c-1,1-1.9,1.9-2.9,2.9c-17.2-16-34.4-31.9-51.6-47.9c-1.6,1.6-3.2,3.1-4.9,4.7
					c10.8,12.9,21.6,25.9,32.5,38.8c-1,0.9-1.9,1.7-2.9,2.6c-11.1-10-22.3-20.1-37.3-33.6c6.4,12.3,10.3,19.9,14.3,27.6l-2.8,1.2
					c-4.5-3.8-9-7.7-13.5-11.5l-3.5,3.2c7.3,10.4,14.6,20.8,21.8,31.2c-1,0.9-1.9,1.7-2.9,2.6c-9.3-10.6-18.6-21.2-27.8-31.8
					c-0.6,0.6-1.2,1.2-1.8,1.8l18.1,41c-1,0.3-1.9,0.6-2.9,0.9c-7-10-13.9-20.1-20.9-30.1c-1,0.7-1.9,1.5-2.9,2.2
					c4,10,8.1,20,12.1,30c-1.3,0.5-2.6,1.1-3.9,1.6c-4.6-7.3-9.2-14.6-13.8-21.9c-1.2,0.6-2.5,1.2-3.7,1.8c6.7,13.7,13.3,27.3,20,41
					c-0.8,0.4-1.6,0.8-2.4,1.3c-8.5-9.8-17.1-19.6-25.6-29.4c-0.8,0.4-1.6,0.9-2.4,1.3l13.4,30.4c-1.1,0.6-2.1,1.2-3.2,1.8
					c-7.7-8.6-15.4-17.1-23.2-25.7c-1,0.9-2,1.8-3,2.7c7.8,12.4,15.6,24.8,23.4,37.2c-0.9,0.7-1.8,1.3-2.7,2
					c-8.3-7.8-16.7-15.6-25-23.4c-0.9,0.6-1.9,1.3-2.8,1.9c4.6,8.4,9.1,16.7,15.8,29c-11.1-8.5-18.1-13.9-25.2-19.3
					c-0.7,0.8-1.4,1.7-2.1,2.5c5,7.2,10.1,14.4,18.8,26.9c-14-6.8-21.9-10.6-29.8-14.5c-0.7,1-1.3,2-2,3c4.3,5.4,8.6,10.7,13.5,16.8
					c-22.6,10.7-44.2,20.9-66.8,31.6c24.3-31.7,47.1-61,69.3-90.7c23.2-31.1,46.2-62.4,68.5-94.2c16.6-23.6,32.2-47.9,47.7-72.3
					c2-3.1,0.1-8.5,0.6-12.7c1.4-12.7-0.7-27.6,5.2-37.7c19.3-32.6,43.2-62.5,62.3-95.2c24-41.2,45-84.3,67.4-126.5
					c21.9-41.2,50.2-78.8,61.7-125.8c4.3-17.4,20.4-32,31.2-47.8c1.5,0.7,2.9,1.3,4.4,2c0.3,5.2,0.6,10.5,1.3,21.2
					c9.5-20,15.4-36.1,24.4-50.2c9.6-15,21-29.3,33.7-41.6c8.3-8,20.6-12,31.1-17.8c2.5,1.3,4.9,2.6,7.4,3.9
					c-0.9-12.8-1.4-25.6-3-38.4c-0.2-1.6-6.1-2.5-10-4c-3.3,5.9-5.9,10.7-8.6,15.5c-0.9-0.3-1.8-0.7-2.8-1c1.9-9.2,3.7-18.4,5.8-29
					c13.1,4.1,24.3,7.5,35.4,11c-11,48.9-11,48.9-0.7,56.1c6.5-17.5,12.8-34.6,19.4-52.4c17.2,5.4,32.4,10.2,47.1,14.8
					c-5.2,18.1-9.7,33.5-14.1,48.9c13.9,6.1,25.5,11.2,37.2,16.3c-0.5,1.3-1,2.5-1.5,3.8c-19.6-4.2-39.2-8.3-58.9-12.5
					c-0.3,1-0.6,2.1-1,3.1c7.4,4.2,14.7,8.4,22.1,12.6c-0.2,0.7-0.5,1.4-0.7,2.1c-17.1-3.5-34.1-7-51.2-10.5
					c-0.1,1.1-0.2,2.2-0.3,3.4c13.8,7.7,27.6,15.4,41.4,23.1c-0.6,1.3-1.2,2.7-1.8,4c-19.8-5.3-39.5-10.7-59.3-16
					c-0.5,1.7-1.1,3.3-1.6,5C1664.9,1884.6,1683.9,1895.2,1703,1905.9z M2096.1,2568c1.3-10.9,2-17.1,3.1-25.9
					c-6.3,5.9-10.5,9.9-16.7,15.7c1.1-9.4,1.9-15.5,2.6-21.6c-26.9,7.4-52,14.4-77.2,21.4c-0.6-2-1.2-4-1.8-6
					c8.9-2.9,17.8-5.8,26.7-8.8l-0.8-2.3c-28,1.4-55.9,2.8-83.9,4.2c0-1.1,0.1-2.2,0.1-3.2l48.6-11.5c-0.3-1.6-0.6-3.1-0.9-4.7
					c-18.8,1.2-37.7,2.3-62.8,3.9c15.3-5.6,24.5-9,33.8-12.4c-0.4-1.2-0.8-2.4-1.3-3.6c-19.9,2.2-39.7,4.5-59.6,6.7
					c-0.6-0.9-1.2-1.9-1.7-2.8c10.1-3.5,20.1-7,30.2-10.5c-0.6-1.8-1.1-3.5-1.7-5.3c-20.6,1.9-41.3,3.9-61.9,5.8
					c-0.1-1-0.2-2-0.4-2.9c14.6-4.2,29.2-8.5,43.8-12.7c0-1.2-0.1-2.3-0.1-3.5h-65.4c15.6-6,24.9-9.6,34.3-13.1
					c-0.3-1.3-0.6-2.6-0.8-3.9c-18.4,2.6-36.8,5.3-61.1,8.8c15.1-7.4,25-12.3,34.8-17.2c-0.7-1.7-1.4-3.4-2.1-5.1
					c-11.2,1.4-22.3,2.8-40.6,5.1c9.7-5.8,13.9-8.3,18-10.9c-0.9-1.7-1.8-3.4-2.7-5.1c-10.3,1.8-20.5,3.7-34.1,6.1
					c10.1-7.4,17-12.4,23.8-17.4c-0.7-1.7-1.4-3.4-2.1-5c-20.6,6.3-41.2,12.6-61.8,18.9l-0.9-2.7c11.9-6.1,23.8-12.1,35.7-18.2
					c-1-2.4-2.1-4.7-3.1-7.1c-14.6,6.2-29.3,12.3-50,21c12.8-11.9,20.6-19.2,28.4-26.4c-0.8-1.4-1.7-2.7-2.5-4.1
					c-16.2,7.6-32.5,15.2-53.9,25.3c28.1-26.7,54-38.9,86.1-22.1c44.8,23.4,89.2,47.6,134.4,70.1c14.6,7.3,31.1,13.4,47.2,14.7
					c30.1,2.4,57.8,7.3,76,33.8c21.5-7,41.9-17.3,61.8,1.3C2108.5,2545,2103.4,2554.4,2096.1,2568z M2160.6,2562
					c-6.5-3.1-13-6.1-19.3-9.1c-14.5,21.7-27.6,41.4-40.7,61c7.1-22.8,16.3-43.8,28.5-63c3.5-5.5,15.6-7.9,23.4-7.5
					c4.5,0.3,8.4,9.3,12.6,14.4C2163.6,2559.2,2162.1,2560.6,2160.6,2562z M2200.2,2567.9c-0.2,0.5-1.9,4.5-4.1,9.4
					c-7.8-12-14.5-22.5-21.7-33.6c32.8-12.9,46.8-8.1,57.2,18.1C2220.7,2564,2211.8,2565.7,2200.2,2567.9z"/>
				<path class="st2" d="M1698.6,1783.5c-3.7,13.7-8.4,26.7-10.3,40.1c-0.6,4.1,5.6,12,9.9,13.1c4.6,1.2,13.6-2.3,15.6-6.3
					C1722.9,1812.6,1724.9,1795.2,1698.6,1783.5z"/>
			</g>
		</g>
	</g>
</g>
</svg>
