<?xml version="1.0" encoding="utf-8"?>
<!-- Generator: Adobe Illustrator 26.5.0, SVG Export Plug-In . SVG Version: 6.00 Build 0)  -->
<svg version="1.1" id="Layer_1" xmlns="http://www.w3.org/2000/svg" xmlns:xlink="http://www.w3.org/1999/xlink" x="0px" y="0px"
	 viewBox="0 0 2521 2911" style="enable-background:new 0 0 2521 2911;" xml:space="preserve">
<style type="text/css">
	.st0{fill:#FFFFFF;}
	.st1{fill:#367A3B;}
</style>
<g>
	<path class="st0" d="M1260.2,54.3l183.3,105.8l952.8,550.3l0.1,0l0.1,0l77.6,44.5v1401.3l-77,44.4l-964.8,557.2l-171.7,99
		l-171.7-99L124,2200.7l-77-44.4V754.8l77-44.4l952.9-550.3L1260.2,54.3"/>
	<g>
		<path d="M1110.5,602c9.5,5.1,18.2,10.1,27.1,14.5c23.9,11.9,48.5,13,73.6,4.3c14.7-5.1,24-14.8,28-30c6.7-25.7,7.1-51.4,0.1-77
			c-1.4-5.1-3.7-10.1-6.5-14.5c-4.2-6.5-9.3-8.5-16.3-5.3c-7.4,3.4-14.8,7.7-20.8,13.2c-9.5,8.7-19,16.1-32.2,18.6
			c-6.5,1.2-12.5,5.9-18.5,9.4c-3.4,2-6.4,4.9-9.2,7.7c-11.1,10.9-23.2,13.3-38.4,8.4c-14.1-4.6-29.3-5.9-43.8-9.3
			c-13.3-3.1-26.4-6.7-39.4-10.9c-9.1-3-9.5-4.7-5.6-13.1c3.8-8.2,8-16.1,12.4-23.9c1.5-2.7,4-4.9,6.9-8.3c2.8,3.6,4.8,6.1,6.7,8.6
			c2.2,3,3.8,6.3,6.3,9c6.8,7.3,14.2,6.8,20.2-1.3c5.7-7.8,7.6-16.9,8.1-26.3c0.4-8.6,0.9-17.3,1.5-25.9c0.5-5.9,2.2-11.6,8.8-13.2
			c7.2-1.7,14.4-1,18.8,5.7c3,4.6,4.8,10.1,6.9,15.3c2.7,6.4,4.2,13.5,8,19.2c6.7,10.2,16.3,9.6,21.6-1.3
			c4.9-10.2,12.2-15,23.4-15.7c4.8-0.3,9.8-2.1,14.2-4.2c9.4-4.5,11.2-9.7,6.7-19.5c-2.6-5.7-5.9-11.2-9.7-16.2
			c-14.5-19.4-32.2-35.5-52-49.3c-5.5-3.8-10.7-7.9-15.8-12.2c-2.5-2.1-4.6-4.9-6-7.9c-2.3-4.7-0.5-8.6,4.6-10.1
			c3.5-1,7.2-1,10.9-1.5c7.4-1,13.4-3.6,14.6-12.3c1-7.4,7.2-9.3,13.2-10.1c7.6-1.1,15.3-1.3,22.9-1.7c6-0.3,12-0.2,18-0.5
			c24.2-1.1,36.1-10.4,41-34.3c3.1-15.3,4.4-31,6.3-46.5c3.4-27.8,6.5-55.6,10.1-83.3c0.6-4.9,2.4-9.7,4.5-14.2c2.9-6,7-7.1,12-2.9
			c14.5,12,16.5,20.6,9.6,34.6c-2.8,5.6-5.3,11.6-6.5,17.7c-2.2,11.8,2.8,19.6,14.3,22.5c6,1.6,12.5,2.1,18.8,2.1
			c16.8,0,21.2,5.4,20.2,23.1c-0.7,11.6-6.7,19.9-16.9,25.4c-5.5,3-11.3,6-15.8,10.2c-10.7,9.9-8.3,20.9,5.2,26.4
			c0.9,0.4,1.9,0.7,2.8,0.9c8.2,2.2,14.1,6.2,11.3,17.2c4.3,0.3,7.8,0.8,11.3,0.8c16.5-0.4,32.4,3,48,7.9c3.4,1.1,6.5,2.9,10.8,4.9
			c-4.6,10.5-8.8,20.3-13.1,29.9c-4.4,9.7-9,19.3-14,29.8c3,3.5,6,6.9,9,10.4c9.9,11.3,19.9,22.4,29.7,33.8
			c14.1,16.3,21.1,35.2,20,57c-0.3,6.5-0.1,13.1-0.1,21.2c-3.3-2-5.3-3-6.9-4.3c-6.7-5.5-13.2-11.2-19.9-16.7
			c-11.8-9.6-24.9-17-40.3-18.5c-5.7-0.6-12.1,0.3-17.4,2.4c-9.4,3.7-12.3,12.3-7.6,21.3c2.7,5.3,6.2,10.4,10.2,14.7
			c26.2,27.7,54.7,52.7,86.7,73.5c13.9,9,28.9,14.6,45.7,15.8c30,2.1,44.5,18,45.6,48.2c0.8,22.5-4.3,43.7-13.4,64
			c-7.2,16.1-15.6,31.6-23.5,47.4c-1.5,3-3,5.9-4.9,9.6c4.7,5.7,9.5,11.6,14.4,17.5c25,29.7,27.1,35.7,25.3,74.5
			c-0.3,5.6-1,11.3-1.9,16.9c-1.7,11.1-5.8,14.8-16.8,13.5c-9.5-1.1-19-3.5-28.4-5.3c-4.2-0.8-8.5-2-12.7-2.4c-6.9-0.6-9.5,2-10.2,9
			c-0.6,5.6-0.7,11.4-2,16.8c-1.9,7.8-7.3,10.1-14.5,6.4c-3.8-2-7.1-4.9-10.5-7.6c-16.5-13.1-33.9-8.4-41.3,11.4
			c-1.6,4.3-2.4,9-3.5,13.5c-1.6,6.4-5.4,10.8-12,11.9c-18.1,3.1-35.8,2.8-51.7-8.3c-7.6-5.3-12.4-3.4-13.4,5.9
			c-1.7,14.4,8,38.9,23.7,46.7c3,1.5,6,3.1,8.4,5.3c6.1,5.6,4.4,12.8-3.6,15.4c-2.5,0.8-5.3,0.7-7.9,1.1c-3.6,0.5-7.4,0.7-10.8,1.7
			c-8.1,2.5-11.8,8.7-9.8,17.1c3.2,13,10.3,23.8,20.6,32.3c6.6,5.5,14.2,5.9,21.3,1.2c4.9-3.3,9.4-7.4,13.7-11.6
			c13.9-13.8,28.1-13.8,41.7,0.2c7.3,7.6,12,16.8,15.5,26.6c3.1,8.7,1.7,17.1-2.8,25c-3.8,6.7-8.1,13-11.8,19.7
			c-4.8,8.7-4.1,13.4,4.6,18.4c21.9,12.6,44.5,24.2,69.3,30.3c8.2,2,16.4,1.5,24.6-1.3c12.1-4,16.3-1.8,19.8,10.5
			c4.6,16.1,3.7,31.6-5.8,46c-5.1,7.8-9.6,16-14.8,23.7c-6.1,9.1-6,18.1-0.2,27.1c3.9,6.2,8.1,12.2,12.3,18.2
			c7.6,10.6,11.7,22.3,11.5,35.5c-0.6,26.7-3.2,53.2-10.3,79.1c-3.6,13.3-9.9,25.2-17.2,37c-11.1,17.8-20.9,36.3-31.2,54.6
			c-3.7,6.7-6.9,13.7-10.7,20.3c-3.7,6.4-8.7,11-15.5,14.8c-9.1,5.1-16.7,13-24.8,19.9c-6.5,5.6-12.8,11.4-20.3,18.1
			c-2.6-4.2-4.6-7.2-6.2-10.3c-8-15.4-15.6-31-23.9-46.1c-5.1-9.3-10.9-18.3-17.1-26.9c-4.7-6.5-7.9-6.5-14.1-1.3
			c-2.5,2.1-4.9,4.6-6.7,7.3c-10.8,15.8-16.8,33.2-17,52.4c-0.2,13.8,3.6,26.7,12.7,37c10.5,11.9,21.9,23.3,33.7,33.9
			c10.6,9.5,23.5,11.9,37.4,7.6c2.2-0.7,4.6-1.1,6.7-2c17.5-7.6,35.6-7.9,53.9-4.1c13,2.7,25.9,6.2,38.7,9.5
			c11.7,3,17.1,10.8,17.2,22.6c0.1,4.7,0,9.3,0.2,14c0.8,15.3,7.7,26.8,22,32.9c6.1,2.6,12.5,4.7,18.8,6.5c12,3.4,22.6,9,32.3,17.2
			c5.3,4.5,12.7,7.2,19.6,8.9c7.3,1.9,15.2,1.7,22.8,2.3c3.6,0.3,7.4,0.1,10.9,0.8c6.6,1.4,8.2,4.2,6,10.8
			c-3.3,10.1-7,20.1-10.4,30.2c-2.4,7.1-8,10.6-14.6,12.2c-22.1,5.5-42.9,1.5-62.5-9.6c-3.8-2.1-7.4-4.5-11.1-6.8
			c-7.1-4.4-13.8-4.1-20.1,1.5c-4.3,3.7-8.5,7.5-13,11c-8,6.2-10.6,6-17.3-1.7c-5-5.7-11.4-7.5-18.1-5.4c-13.1,4-24.4,0.3-35-6.8
			c-10.8-7.3-21-15.2-31.5-22.8c-8.4-6-16.6-12.2-25.2-17.9c-9.4-6.3-19.8-7.3-30.6-4.3c-5.4,1.5-10.9,3.2-16.2,5
			c-16.3,5.6-24.9,17.3-26.2,34.2c-0.8,10.3-0.5,20.6-0.4,31c0.1,9,4.6,15.6,12.9,18.4c13.9,4.6,27.8,9.1,42.1,12.1
			c17.7,3.8,35.7,3.6,53.7,1c11.9-1.7,23.3,1,34.1,5.6c22.1,9.6,42.4,22.4,60.9,37.8c2.5,2.1,4.7,4.7,6.8,7.3
			c11.3,14,22.7,27.9,33.8,42c4.9,6.3,9.9,12.6,13.7,19.6c4.3,7.9-1.9,21.1-10.4,23.8c-1.4,0.4-3.4,0.2-4.6-0.6
			c-2.1-1.5-4.2-3.4-5.6-5.6c-9-13.3-22.3-19.8-37.3-23c-19.8-4.2-39.8-7.7-59.7-11.8c-27.8-5.6-50.8-19-68.8-41.3
			c-6.7-8.2-14.5-15.6-22.2-22.9c-9.1-8.5-19.9-11.8-32.3-8.9c-3.9,0.9-7.8,1.3-13.2,2.1c-0.1,76.1,1.1,152.2,2.2,229
			c-28.9,0-56.6,0-85.2,0c-1.6-12.1-2.9-24-4.6-35.7c-1.8-11.8-3.8-23.7-5.9-35.4c-0.5-2.9-1.5-5.8-2.7-8.6
			c-4.1-9.5-8.4-10.1-15-2.3c-6.7,8.1-8.1,7.8-17.5,3.2c-9.2-4.5-18.8-8.5-28.6-11.4c-14.9-4.5-26-12.6-32.5-27.2
			c-4.8-10.9-13.2-18.2-25.1-21.1c-1.6-0.4-3.2-1-4.7-1.6c-0.3-0.1-0.4-0.5-1.3-1.5c12.1-3.3,23.6-2.8,34.9,0.7c2,0.6,4,2.6,5,4.5
			c6.4,12.4,17.7,18.3,30.4,20.2c20.2,3.1,38.2-2.9,53.7-16.2c9.5-8.2,15.2-18.7,15.3-31.4c0.1-11.3-0.6-22.6-1.9-33.8
			c-1.1-9.1-4.4-17.5-14.9-21.7c3-4.5,5.1-8.7,8-12.1c8.1-9.2,12-20.1,12.2-32c0.2-10.3-0.8-20.6-1.9-30.9
			c-1.1-9.8-6.8-15.6-16.9-16.7c-5-0.5-9.9-0.9-14.9-1.6c-12.9-1.9-22,3.4-27.8,14.8c-5.5,10.7-10.8,21.4-16.2,32.1
			c-7.9,15.4-15.5,31-23.8,46.2c-6.2,11.4-6.7,11.2-18.9,8.3c-19.4-4.6-38.8-9.4-58.3-13.6c-6.1-1.3-12.6-1.6-18.9-1.2
			c-4.4,0.3-8.9,2.2-13.2,3.7c-4.5,1.6-8.9,3.6-15.2,6.3c0.5-4.7,0.2-7.4,1.1-9.5c1.6-3.6,4-6.9,6-10.3c3-5.2,6.4-10.2,8.7-15.7
			c6-14.3,2.2-20.4-13.2-22c-10-1-11.7-3.3-10.5-13.7c1.6-13.5,0.2-16.5-12.4-21c-12.5-4.4-25.5-7.6-38.1-11.9
			c-10.7-3.7-21.3-7.7-31.5-12.5c-8.8-4.2-9.3-7.5-3.9-15.7c2.9-4.5,6.4-8.5,9.4-12.9c7.6-11,14.5-22.3,15.2-36.3
			c0.3-6.1,3.1-7.6,8.8-5.3c4.6,1.9,9,4.3,13.3,6.9c9.2,5.5,18,11.5,27.3,16.6c9.1,4.9,18.4,9.5,28,12.9c18.2,6.4,36.3,5,52.9-5.1
			c10.8-6.5,20.7-14.5,30.8-22.1c9.6-7.2,18.7-15.1,28.5-21.9c10.3-7.1,21.9-10.8,34.6-11.4c20.3-0.9,39.2-7,56.2-18.4
			c7.7-5.1,12.4-11.9,13.8-21c0.6-3.9,1.3-7.9,1.3-11.9c0.1-21.7,0.2-43.3-0.1-65c-0.1-6.3-1-12.7-2.3-18.8
			c-2.2-9.8-6.8-12-16.1-7.7c-11.5,5.3-17.6,14.9-19.8,27.1c-0.9,5.2-1.3,10.4-2.2,17.8c-3.9-3.2-6.8-5-9.1-7.5
			c-6-6.7-11.7-13.7-17.6-20.5c-2-2.3-4-4.5-6.3-6.4c-5-4.1-7.7-4.2-12,0.5c-8.2,8.9-14.7,18.9-17.3,31c-1.8,8.5-4.8,11.3-11.3,11.2
			c-7.5-0.1-12.9-4-14.1-11.5c-1-6.9-1.2-13.9-1.1-20.9c0.2-11.7,1.2-23.3,1.3-35c0.1-8.7-2.9-10.7-10.2-6.4
			c-8.2,4.8-16.2,10.5-23.4,16.8c-7.3,6.4-10.3,7.4-17.7,1.3c-11.5-9.5-18.9-21.9-20.1-36.8c-1.4-18.8-8.2-35.6-17.3-51.6
			c-5-8.7-10.3-17.1-16.1-26.8c11.8-11.2,22-23.8,35.2-33.5c6.1-4.5,13.2-4.2,20.1-2.1c7.9,2.4,15.9,5,23.6,7.9
			c12.6,4.8,24.1,3.1,34.8-5.1c4.2-3.2,8.5-6.4,12.9-9.5c15.6-11.4,31.8-21.9,49.9-29.2c3.7-1.5,7.4-3.4,10.3-6
			c2.5-2.2,5.4-5.8,5.3-8.7c-0.1-4.5-5-5.9-8.9-6.6c-4.9-0.9-9.9-1-14.9-1.6c-6.2-0.8-12.6-1.2-18.7-2.9c-8.9-2.5-9.8-6-4.5-13.7
			c1.7-2.5,3.6-4.8,5.7-7c15.5-16.3,32.7-30.4,51.9-42c5-3,10.7-5.5,16.4-6.8c6.2-1.3,10.4-4.5,12.9-9.9c6.4-13.9,8.8-28.6,8.3-43.8
			c-0.2-7.7-3.9-11.4-11.5-12.9c-4.5-0.9-9.3-1.4-13.9-1.3c-9.3,0.2-18.6,1-27.9,1.6c-9.4,0.6-17.1,4.4-20.1,13.7
			c-5.9,18.6-19.5,24.3-37.5,25.2c-21,1-42,2.3-62.6-3.1c-7.9-2-15.9-5.4-22.6-9.9c-11.9-8-14.3-20.1-6.8-32.3
			c4.1-6.7,9.3-13.1,15-18.6c18.4-17.6,39.3-30.3,64.8-35.4c10.6-2.1,20.9-6.8,30.5-12c6.2-3.3,11.3-9.2,15.9-14.7
			c4.3-5,3.5-7.7-2.1-11.4c-9.2-6.1-19.2-11-30.3-12.1c-11.3-1.1-17.2-7.6-20.4-17.6c-0.4-1.3-0.7-2.6-1.2-3.8
			c-3.7-9.5-8.1-11.8-17.9-9c-8.3,2.4-16.5,5.2-24.8,7.6c-4.1,1.2-8.3,2.5-12.6,3.1c-9.7,1.5-13.1-1.1-13.4-10.9
			c-0.5-17-0.5-34-0.3-51c0-5.3,0.9-10.6,1.6-15.9c1.3-9.9,5.7-18.2,11.9-26c6.1-7.8,12-16,17-24.6c7.9-13.4,6.6-26.7-2.4-39.4
			c-4.6-6.5-9.7-12.8-13.8-19.6c-3.3-5.5-8.5-11.5-4.6-18.3c3.8-6.7,11.5-6.7,18-5.9c21.1,2.5,42.2,5.5,63.2,8.9
			c10.8,1.8,21.3,5.4,32,7.6c20,4.1,32.5-1.9,42.3-19.8c2.6-4.7,4.8-9.6,7.8-13.9c4.2-6.1,9.4-9.5,17.8-7.4
			c8.7,2.2,13.8-0.6,18.2-8.5c1.9-3.5,3.6-7.2,4.4-11.1c4.5-20.4,4.9-41,0.9-61.5c-3.4-17.4-11.8-20.1-25.8-9.3
			c-3.9,3.1-7.5,6.7-11.5,9.6c-5.4,3.9-8,3.3-10.9-2.8c-2.5-5.1-4.2-10.5-6.2-15.8c-7.4-20-13.2-27.3-40.4-23.7
			c-19.6,2.6-38.3,9-55.7,18.3c-5.7,3.1-10.9,7.5-15.5,12.1c-3.2,3.2-6.7,4.6-10.6,4.2c-19.4-1.6-38.2-5.7-54.7-16.8
			c-3-2-5.8-4.5-8.2-7.3c-8.4-9.9-5.9-20,6-24.6c3.4-1.3,7.1-2.4,10.6-2.4c25.9-0.1,47.4-11.9,68.1-25.8c10.5-7.1,20.7-14.6,31-21.9
			C1105.5,605.2,1107.8,603.8,1110.5,602z M1408.2,1404c14.8-0.9,26.5-1.2,37.4-6.2c19.1-8.9,21.4-32.5,4-44.2
			c-5.4-3.7-11.6-6.8-17.9-8.5c-19.1-5.3-36.9-13.6-53.9-23.4c-19.6-11.3-38.5-23.7-58-35.3c-8.3-4.9-16.8-9.7-25.7-13.3
			c-13.1-5.3-19.6-1.6-22.4,12.1c-4.6,21.9,0.1,41.4,18.1,55.7c9.3,7.4,19.8,13.5,30.1,19.4c15.3,8.8,31.1,16.9,44,29.2
			c5.8,5.5,12.2,9.4,19.8,10.9C1392.8,1402.2,1402.1,1403.1,1408.2,1404z M1272.8,736.7c1,19.9,8.5,40.2,23.2,57.6
			c3.4,4,7.7,7.4,12.2,10.1c7.6,4.6,13.7,3.7,19.7-2.8c4.2-4.6,8.8-5.8,14.3-4.4c6.1,1.5,12.3,3,18.2,5.1
			c21.1,7.4,25.1,6.3,39.2-11.4c18.2-22.9,18.1-35.1-0.4-57.5c-0.2-0.3-0.4-0.5-0.6-0.8c-6-6.9-8.6-7.2-15.9-1.5
			c-5.5,4.3-10.6,9.3-16.4,13c-16.1,10.3-30.9,7.6-41.6-8.2c-5.1-7.6-8.3-16.6-11.9-25.1c-2.4-5.5-3.7-11.4-6.2-16.8
			c-2.6-5.4-5.8-11.5-12.6-11.5c-6.9,0-9.8,6.3-12.4,11.7C1275.6,706.7,1273.2,720.1,1272.8,736.7z M1324.7,1162.1
			c-12.9,0.4-23.6,2.2-33.3,8.1c-12.7,7.7-15.9,20.2-7.2,32.3c4.5,6.3,10.6,12,17,16.4c14.1,9.6,29.7,16.3,46.1,20.6
			c5.9,1.6,12.5,2.1,18.6,1.4c9.6-1.1,14.9-8.9,13.9-18.5c-0.4-3.3-1.1-6.6-2.3-9.6c-7.1-18.1-18.6-32.8-34.2-44.4
			C1337.3,1163.9,1330.6,1161.2,1324.7,1162.1z M1169.2,1395.8c-7.6,1-14.2,1.8-20.7,2.7c-30.9,4.2-55.5,19.2-73.9,44.2
			c-3.7,5-6.6,10.8-8.7,16.7c-2.6,7.4,0.6,12.6,8.3,13.9c4.8,0.8,10,0.8,14.8-0.2c36-7.3,65.9-25.7,91.4-51.6
			c3.2-3.2,5.6-7.5,7.4-11.7c2.3-5.3,0.5-9.3-4.8-11.2C1178.2,1397,1173.2,1396.6,1169.2,1395.8z M1146.8,910.5
			c12.4-1,25.7-4.7,38.5-10.6c7.6-3.5,12.7-9.1,16-16.9c5.5-13.3,8.9-27.1,10.6-41.4c0.7-5.9,2.8-12.7-3.1-16.6
			c-5.9-3.9-12.3-0.8-17.7,2.7c-22.6,14.9-40.6,34.2-53.6,58c-2.3,4.1-3.2,9.5-3.3,14.3C1134.2,908.4,1136.9,910.5,1146.8,910.5z
			 M1297.5,526.8c-8.7,1-12.2,3-16.8,10.1c-7.6,11.7-7.2,24.8-5.2,37.6c1.2,7.7,4,15.5,7.5,22.5c4.8,9.4,10.3,10.2,18.2,3.5
			c6.3-5.4,12.4-11.1,17.7-17.5c7.2-8.6,14.1-17.6,20-27.2c5.1-8.2,3.2-14.3-5.6-17.7C1321.7,533.5,1309.5,530.5,1297.5,526.8z
			 M1304.3,613.1c-5.7,1.2-10,1.5-14,3c-9.3,3.4-12.3,10.4-7.4,19c3.1,5.4,7.3,10.4,12,14.4c15.2,12.9,33.6,19.9,52.2,26.3
			c4.5,1.5,9.1,1.5,12.7-2.8c3.5-4.3,2.7-8.6,0.8-13.1c-0.8-1.8-1.7-3.6-2.8-5.3c-10-15.3-22.7-27.8-38.8-36.6
			C1314.3,615.4,1308.6,614.5,1304.3,613.1z M1413.4,637.6c-5.1,1.7-10.2,3-15.1,5c-3.4,1.4-4.7,4.4-4.3,8.2
			c0.9,9.4,10.2,21.2,18.9,24c9.4,2.9,18.1-1.1,22-10.3c4-9.4,1.2-18.2-8-22.7C1422.9,639.7,1418.2,639,1413.4,637.6z
			 M1205.5,1033.8c0.9,8.1,1.9,15.5,9.1,20.4c3.9,2.7,7.8,3.3,11.8-0.1c8.7-7.3,11.9-27.1,5.9-36.9c-5.9-9.5-16.9-9.5-22.1,0.6
			C1207.8,1022.7,1207,1028.5,1205.5,1033.8z M1300.4,1399.8c-0.9-8.7-3.6-17.9-11.3-24.6c-6.9-6-16.4-3.5-17.9,5.1
			c-2.3,12.7,1,24.5,8.5,34.8c4.2,5.8,10.4,5.5,15.4,0.4C1299,1411.4,1300.5,1406.4,1300.4,1399.8z M1228.8,966.9
			c0.4-12.1-5.9-17-16.4-13.6c-12.2,4-16.7,17.9-9.9,30.4c4.3,7.9,11.5,9.1,18,3C1226.3,981.1,1227.9,973.7,1228.8,966.9z
			 M1204.6,1716.3c0-8-4.4-15.1-9.3-15.7c-5-0.7-10,4.8-11.8,12.7c-1,4.3-0.2,8.1,3.3,10.7c3.7,2.8,7.9,3.2,12.2,1.2
			C1203.2,1723.3,1204.6,1719.8,1204.6,1716.3z"/>
		<path class="st1" d="M1196.9,2276.6c-8.9,0-16.5,0.1-24.1,0c-3.3,0-6.7,0-9.9-0.7c-7.1-1.5-9.4-5.4-9.6-15.2
			c-0.3-13.9,1.1-17.9,8.9-19.5c6.1-1.3,12.5-1.3,18.8-1.6c11.7-0.6,15.4-3.9,16.2-15.7c0.8-11.6,0.4-23.4,1.9-34.9
			c4.3-33.5,24.1-54,55.9-63.1c19.8-5.6,40-6.4,60.3-2.5c3.2,0.6,6.5,1.6,9.5,2.8c9.6,3.8,11.7,8.1,9.4,17.9
			c-2.7,11.5-9.8,17.7-21.8,18.3c-8.6,0.4-17.3-0.4-26,0.1c-5.9,0.3-12,1.2-17.5,3.1c-8.4,2.8-13.5,9.5-16.3,17.7
			c-5.1,14.5-4.9,29.5-3.6,44.5c0.6,7.2,4.8,10.5,13.2,11c9,0.6,18,0.3,27,0.7c7,0.3,14,0.5,20.9,1.4c7,1,8.8,4,8.1,11.1
			c0,0.3-0.1,0.7-0.1,1c-2.6,19.1-7.1,23.2-26.5,23.4c-11.3,0.1-22.6,0-34.9,0c-0.3,5.4-0.8,9.9-0.8,14.4
			c-0.4,60.3-0.6,120.7-1.1,181c-0.2,21-1.9,41.9-6.2,62.6c-4,19.5-12.5,36.7-27.2,50.1c-11.5,10.5-23.4,20.8-36.1,29.9
			c-18,12.8-26.9,6-34.2-11.8c-2.4-5.7-1.2-10.5,3.2-14.5c2.4-2.3,5-4.4,7.8-6.2c17.3-10.8,26.9-26.9,29.4-46.6
			c2.8-22.4,5.3-45.1,5.7-67.6c0.9-60.3,0.5-120.7,0.6-181C1197.6,2283.9,1197.2,2281,1196.9,2276.6z"/>
		<path class="st1" d="M926.7,2506.4c-16.6,0-31.8,0-48.2,0c-0.2-3.7-0.6-7.2-0.6-10.7c-0.2-33.7,0.3-67.3-0.6-101
			c-1-36-3.8-71.8-12.5-107c-1.8-7.4-2.8-15.1-3-22.7c-0.2-10.1,3.7-14.2,13.8-16.4c14.7-3.3,22.4,0.1,29.5,13.6
			c2.6,5,4.4,10.4,6.7,15.6c1.4,3,2.8,6.1,4.6,8.8c4.9,7.3,9.5,7.5,15,0.9c1.1-1.3,2.1-2.6,2.8-4.1c6.4-13.4,17.5-21.6,30.2-28.1
			c23.9-12.3,49-18.1,76.2-14.5c22.7,3,38.1,14.3,46.1,35.8c5.8,15.4,8.7,31.5,9.7,47.8c1.6,26.9,2.7,53.9,3.1,80.9
			c0.5,29.7,0.2,59.3,0.1,89c0,3.6-0.3,7.2-0.4,10.6c-7.7,2.3-42,2.9-57.4,1c-0.1-3.6-0.3-7.5-0.3-11.3c-0.1-47,0.1-94-0.4-141
			c-0.2-15.6-1.8-31.3-3.9-46.7c-0.9-6.2-4-12.9-7.9-17.9c-9.1-11.3-21.4-14-35.1-9.7c-27.7,8.7-47.4,25.6-53.6,55
			c-3.3,15.6-6.4,31.4-7.5,47.3c-2.3,32.6-3.2,65.2-4.8,97.8C927.9,2488.1,927.3,2496.7,926.7,2506.4z"/>
		<path class="st1" d="M1479.4,2508.1c-14.2-1.7-28.5-2.5-42.5-5.3c-38.2-7.6-62-31.3-70.4-69c-8.3-36.9-8.1-74.2,1.9-110.9
			c13.2-48.5,47-76.6,97.3-81.3c19.2-1.8,38.6-2.5,57.7,1.6c5.5,1.2,11,2.7,16.2,4.8c21.5,8.7,32.8,24.9,35.1,48
			c2.3,23.6-5.8,43.2-21.7,60c-20.9,22.1-47.2,34.5-76.6,40.2c-11.4,2.2-23.1,2.5-34.7,3.6c-3.3,0.3-6.7,0.2-10,0.6
			c-7.8,1.1-11.5,4.2-12.1,12.1c-0.4,5.5,0,11.5,1.9,16.6c2.5,7.1,6.1,14.1,10.4,20.4c9.2,13.6,21.9,21.3,38.9,20
			c26.2-2.1,52.4-4.2,78.5-6.9c10-1,12.4-0.6,15.3,6.3c3.7,8.8,2.5,17.5-3.7,21.8c-3.5,2.4-7.6,4.2-11.6,5.6
			C1526.7,2504,1503.4,2507.3,1479.4,2508.1z M1433.7,2370.8c23-1,50.6-9.8,67.3-23.6c3.6-2.9,7-6.3,9.8-9.9
			c13.5-17,13-38.5-1.2-54.9c-9.6-11-25.2-18.4-43.1-8.9c-17.8,9.4-32.2,22.6-41.9,40.3c-3.2,5.9-4.2,13.1-5.7,19.9
			c-1.3,5.8-0.7,12.2-2.7,17.7c-4.2,11.7-2.2,16.8,13.1,19.1C1430.9,2370.6,1432.6,2370.7,1433.7,2370.8z"/>
		<path class="st1" d="M1701.9,2506.2c-19.8,0-38.3,0-58,0c-0.2-3.6-0.5-7.2-0.5-10.7c-0.2-36.7,0.4-73.4-0.6-110
			c-0.7-24.6-2.7-49.2-5.8-73.7c-1.7-13.4-6.8-26.3-10.5-39.5c-1.3-4.8-3-9.4-4.9-15c10.5-5.2,20.9-9.3,31.9-11.9
			c6.5-1.6,11,2,13.8,7.5c4.9,9.5,9.3,19.2,14,28.7c1.6,3.2,3.3,6.3,5.5,10.4c3.2-3,5.6-5.1,7.8-7.4c8.7-8.8,17.3-17.6,25.9-26.4
			c12.8-13.2,28.5-19.2,46.8-18.8c7,0.2,14,0.3,20.9,1.2c6.5,0.9,8.5,3.4,7.3,9.5c-2,9.8-4.6,19.4-7.2,29c-2,7.1-7,11.2-14.4,12
			c-4.6,0.5-9.3,0.7-13.9,0.8c-26.7,0.3-46.5,15.1-53.2,41.1c-2.7,10.5-4.1,21.7-4.2,32.6c-0.6,42.7-0.5,85.3-0.7,128
			C1701.9,2497.8,1701.9,2501.7,1701.9,2506.2z"/>
		<path class="st1" d="M780.3,2462.6c7.1,2.8,12.8,4.9,18.2,7.3c3.9,1.8,8,3.6,11.4,6.2c9.8,7.4,9.1,16.7-1.4,23.3
			c-1.7,1.1-3.5,2-5.4,2.7c-11.2,3.8-22.7,5.3-34.4,3.2c-18.5-3.3-32-16.2-35.2-34.8c-2-11.5-3.3-23.2-3.4-34.8
			c-0.5-62.7-0.5-125.3-0.6-188c0-2.3,0.3-4.6,0.6-7.5c16.4,0,32.5,0,50.1,0c0.2,19.1,0.1,37.6,0.1,56.2c0,18.3,0,36.7,0,55
			c0,18.7,0,37.3,0,56C780.3,2425.7,780.3,2444,780.3,2462.6z"/>
		<path class="st1" d="M756.1,2124.8c0.7,0,1.3,0,2,0c18.5,0.3,24.1,4.6,26.8,21c3,18.2-3.3,31.5-18.7,35.9
			c-7.7,2.2-16.4,2.4-24.5,2.1c-7.1-0.3-12.7-4.6-14.5-11.8c-2-8.3-4.1-16.9-4.3-25.3c-0.3-11.8,5.7-18.4,17.3-20.8
			c5.2-1.1,10.5-1,15.8-1.4C756.1,2124.6,756.1,2124.7,756.1,2124.8z"/>
	</g>
	<path class="st1" d="M1260.2,54.3l183.3,105.8l952.8,550.3l0.1,0l0.1,0l77.6,44.5v1401.3l-77,44.4l-964.8,557.2l-171.7,99
		l-171.7-98.9L124,2200.6l-77-44.4V754.8l77-44.4l952.9-550.3L1260.2,54.3 M1260.2,0l-206.8,119.4L100.5,669.7L0,727.7v1455.7
		l100.5,58l964.8,557.2l195.2,112.5l195.2-112.5l964.8-557.2l100.5-58V727.7l-101.2-58L1467,119.4L1260.2,0L1260.2,0z"/>
</g>
</svg>
