<svg version="1.1" viewBox="0.0 0.0 1868.1601049868766 2159.0393700787404" fill="none" stroke="none" stroke-linecap="square" stroke-miterlimit="10" xmlns:xlink="http://www.w3.org/1999/xlink" xmlns="http://www.w3.org/2000/svg"><clipPath id="g3695421fdb0_0_20.0"><path d="m0 0l1868.1602 0l0 2159.0393l-1868.1602 0l0 -2159.0393z" clip-rule="nonzero"/></clipPath><g clip-path="url(#g3695421fdb0_0_20.0)"><path fill="#000000" fill-opacity="0.0" d="m0 0l1868.1602 0l0 2159.0393l-1868.1602 0z" fill-rule="evenodd"/><path fill="#d00300" d="m940.7848 13.010499l911.9995 531.45886l0 1035.6334l-911.9995 531.459l-911.9996 -531.459l0 -1035.6334z" fill-rule="evenodd"/><path stroke="#595959" stroke-width="24.0" stroke-linejoin="round" stroke-linecap="butt" d="m940.7848 13.010499l911.9995 531.45886l0 1035.6334l-911.9995 531.459l-911.9996 -531.459l0 -1035.6334z" fill-rule="evenodd"/><path fill="#ffffff" d="m1450.8743 1820.3491l-191.47998 118.14209l-713.4181 -771.1189l132.67755 -181.70038z" fill-rule="evenodd"/><path fill="#000000" fill-opacity="0.0" d="m920.04987 867.5195l921.13385 0l0 369.25983l-921.13385 0z" fill-rule="evenodd"/><path fill="#ffffff" d="m941.65924 1151.6794l0 -208.96875l33.453125 0l0 130.53125l0.875 0l53.87506 -66.90625l37.296875 0l-49.71881 59.203125l54.75006 86.140625l-37.0 0l-37.296936 -63.046875l-22.78125 26.046875l0 37.0l-33.453125 0zm209.86029 3.546875q-20.125 0 -36.40625 -9.015625q-16.28125 -9.03125 -25.75 -26.046875q-9.46875 -17.03125 -9.46875 -41.0q0 -23.6875 9.609375 -40.84375q9.625 -17.171875 25.015625 -26.34375q15.390625 -9.1875 32.265625 -9.1875q19.828125 0 33.140625 8.734375q13.328125 8.734375 20.140625 24.28125q6.8125 15.53125 6.8125 35.953125q0 10.65625 -1.484375 16.578125l-92.359375 0q2.375 19.234375 13.921875 29.890625q11.546875 10.65625 29.0 10.65625q9.484375 0 17.609375 -2.8125q8.140625 -2.8125 16.140625 -7.84375l11.546875 21.3125q-10.359375 6.8125 -23.09375 11.25q-12.71875 4.4375 -26.640625 4.4375zm-38.78125 -89.984375l64.53125 0q0 -16.859375 -7.40625 -26.484375q-7.390625 -9.625 -22.1875 -9.625q-12.734375 0 -22.65625 9.328125q-9.90625 9.328125 -12.28125 26.78125zm126.69702 86.4375l0 -145.34375l28.125 0l2.359375 25.765625l1.1875 0q7.6875 -14.21875 18.640625 -21.765625q10.953125 -7.546875 22.5 -7.546875q10.359375 0 16.578125 2.96875l-5.921875 29.59375q-3.84375 -1.1875 -7.109375 -1.78125q-3.25 -0.59375 -7.984375 -0.59375q-8.578125 0 -18.0625 6.671875q-9.46875 6.65625 -16.28125 23.234375l0 88.796875l-34.03125 0zm137.93066 3.546875q-18.9375 0 -30.9375 -11.828125q-11.984375 -11.84375 -11.984375 -30.796875q0 -23.375 20.421875 -36.25q20.4375 -12.875 65.125 -17.609375q-0.296875 -11.546875 -6.078125 -19.984375q-5.765625 -8.4375 -20.5625 -8.4375q-10.65625 0 -20.875 4.140625q-10.203125 4.140625 -19.96875 10.0625l-12.4375 -22.78125q12.140625 -7.703125 27.375 -13.328125q15.25 -5.625 32.421875 -5.625q27.234375 0 40.703247 16.140625q13.46875 16.125 13.46875 46.609375l0 86.140625l-28.125122 0l-2.359375 -15.984375l-1.1875 0q-9.765625 8.28125 -20.875 13.90625q-11.09375 5.625 -24.125 5.625zm10.953125 -26.640625q8.875 0 16.125 -4.28125q7.265625 -4.296875 15.546875 -11.703125l0 -32.546875q-29.59375 3.84375 -41.140625 11.390625q-11.546875 7.546875 -11.546875 18.5q0 9.765625 5.921875 14.203125q5.921875 4.4375 15.09375 4.4375zm147.11108 26.640625q-14.796875 0 -29.59375 -5.765625q-14.796875 -5.765625 -25.453125 -14.359375l15.984375 -21.90625q9.765625 7.40625 19.53125 11.84375q9.765625 4.4375 20.71875 4.4375q11.84375 0 17.46875 -5.03125q5.625 -5.03125 5.625 -12.421875q0 -6.21875 -4.59375 -10.21875q-4.59375 -4.0 -11.703125 -7.109375q-7.09375 -3.109375 -14.78125 -6.0625q-9.484375 -3.546875 -18.8125 -8.71875q-9.3125 -5.1875 -15.234375 -13.328125q-5.921875 -8.140625 -5.921875 -20.28125q0 -19.234375 14.203125 -31.375q14.21875 -12.140625 38.484375 -12.140625q15.390625 0 27.53125 5.328125q12.140625 5.328125 21.015625 12.140625l-15.6875 20.71875q-7.703125 -5.625 -15.546875 -9.03125q-7.84375 -3.40625 -16.421875 -3.40625q-10.953125 0 -16.28125 4.59375q-5.328125 4.59375 -5.328125 11.390625q0 8.59375 8.875 13.03125q8.890625 4.4375 20.71875 8.578125q10.078125 3.5625 19.546875 8.75q9.46875 5.171875 15.828125 13.453125q6.375 8.28125 6.375 21.90625q0 18.640625 -14.515625 31.8125q-14.5 13.171875 -42.03125 13.171875zm136.46655 0q-22.796875 0 -38.34375 -7.84375q-15.53125 -7.84375 -25.59375 -18.796875l16.28125 -21.890625q8.578125 8.578125 19.53125 14.65625q10.953125 6.0625 25.15625 6.0625q15.390625 0 25.015625 -7.546875q9.625 -7.5625 9.625 -20.875q0 -9.765625 -4.890625 -17.015625q-4.890625 -7.25 -16.875 -11.09375q-11.984375 -3.859375 -33.59375 -3.859375l0 -24.859375q27.828125 0 38.484375 -8.578125q10.65625 -8.59375 10.65625 -21.625q0 -11.828125 -7.40625 -18.484375q-7.390625 -6.671875 -20.421875 -6.671875q-10.953125 0 -20.125 4.890625q-9.171875 4.875 -17.765625 12.875l-17.46875 -21.015625q12.140625 -10.65625 25.90625 -17.171875q13.765625 -6.515625 30.640625 -6.515625q27.234375 0 44.09375 12.875q16.875 12.875 16.875 36.859375q0 15.6875 -8.734375 26.5q-8.71875 10.796875 -24.125 16.71875l0 1.171875q16.578125 4.453125 27.828125 16.296875q11.25 11.828125 11.25 30.484375q0 17.15625 -9.03125 29.296875q-9.03125 12.140625 -23.984375 18.65625q-14.9375 6.5 -32.984375 6.5z" fill-rule="nonzero"/><path fill="#ffffff" d="m352.12073 1529.3491l-149.0464 -166.53552l983.1637 -1202.1102l192.81189 113.02362z" fill-rule="evenodd"/><path stroke="#999999" stroke-width="2.0" stroke-linejoin="round" stroke-linecap="butt" d="m352.12073 1529.3491l-149.0464 -166.53552l983.1637 -1202.1102l192.81189 113.02362z" fill-rule="evenodd"/><path fill="#ffffff" d="m402.00262 1801.7664l-220.76749 -132.68652l0.1806488 -1203.7607l220.8073 -132.68661z" fill-rule="evenodd"/><path stroke="#595959" stroke-width="2.0" stroke-linejoin="round" stroke-linecap="butt" d="m402.00262 1801.7664l-220.76749 -132.68652l0.1806488 -1203.7607l220.8073 -132.68661z" fill-rule="evenodd"/><path fill="#000000" fill-opacity="0.0" d="m940.78503 8.0l912.14124 531.54144l0 1035.4683l-912.14124 531.5415l-912.14136 -531.5415l0 -1035.4683z" fill-rule="evenodd"/><path stroke="#595959" stroke-width="24.0" stroke-linejoin="round" stroke-linecap="butt" d="m940.78503 8.0l912.14124 531.54144l0 1035.4683l-912.14124 531.5415l-912.14136 -531.5415l0 -1035.4683z" fill-rule="evenodd"/></g></svg>