<svg id="Layer_1" data-name="Layer 1" xmlns="http://www.w3.org/2000/svg" viewBox="0 0 735 852"><defs><style>.cls-1,.cls-2{fill:#fff;}.cls-2{opacity:0.25;}.cls-3{fill:#db1f26;}.cls-4{fill:#4d4d4d;}.cls-5{fill:#e6b35a;}</style></defs><title>knitr</title><path class="cls-1" d="M705.61,231l-50.9-29.39c-49.25,81.8-159.59,138.79-287.82,138.79-128,0-238.11-56.75-287.51-138.28L29.37,231V621.47L367.49,816.68,705.61,621.47Z"/><path class="cls-1" d="M366.89,340.44c128.23,0,238.57-57,287.82-138.79L367.49,35.82h0L79.38,202.16C128.78,283.69,238.93,340.44,366.89,340.44Z"/><path class="cls-2" d="M366.89,340.44c128.23,0,238.57-57,287.82-138.79L367.49,35.82h0L79.38,202.16C128.78,283.69,238.93,340.44,366.89,340.44Z"/><path class="cls-3" d="M734.91,637.38V213.13l-29.3-16.92L427.81,35.82,367.5,1,307.19,35.82,29.37,196.22.09,213.13V637.38l29.28,16.91L310.65,816.68l56.85,32.83,56.85-32.83L705.61,654.3ZM29.37,621.47V231l50-28.88L367.49,35.82h0L654.71,201.65,705.61,231V621.47L367.49,816.68Z"/><path class="cls-4" d="M352.13,406.13l-1.28-.46a19.57,19.57,0,0,0-2-.68c-2.12-.49-3.35.22-4,2.29a6.48,6.48,0,0,0-.08,4c.66,2.1,1.07,4.28,1.55,6.43a7.29,7.29,0,0,1,0,1.41c-1.5-1-2.87-4.35-3.72-8.94a16.26,16.26,0,0,1,.67-9.68,2.7,2.7,0,0,0-1.9,1.46,10.35,10.35,0,0,0-1.19,4.08,55.28,55.28,0,0,0,.16,12.13c.61,6.87,1.4,13.74,1.95,20.62.25,3.15.16,6.34.13,9.51,0,3-.08,5.9-.31,8.83a105.52,105.52,0,0,1-3.3,20.82,12.94,12.94,0,0,1-1.14,2.81c-.7,1.28-1.5,1.23-2.16-.1a15.77,15.77,0,0,1-.84-2.33c-.65-2.16-1.23-4.33-1.91-6.48A123.69,123.69,0,0,1,328,449.38a245,245,0,0,1-1.34-31.58c.07-7.18.14-14.37.32-21.55.06-2.47.47-4.94.63-7.42a43,43,0,0,0,0-4.54,7.9,7.9,0,0,0-.52-1.67,7.64,7.64,0,0,0-1.28,1.27,25.77,25.77,0,0,0-1.69,3.31,87,87,0,0,0-5.88,21.93,76.33,76.33,0,0,0-.15,7.72c0,1.7-.12,3.4-.21,5.1a7,7,0,0,1-.28,1.16c-.27-.46-.5-.68-.54-.94a43.45,43.45,0,0,1-.7-4.36c-.37-4.41-.62-8.87.54-13.18,1.31-4.84,2.77-9.64,4.43-14.37a139.21,139.21,0,0,1,18.46-34.91c3.48-4.86,7.3-9.48,11-14.2a3.63,3.63,0,0,1,1.06-.95,5.15,5.15,0,0,1-.29.68,12.12,12.12,0,0,0-1.18,10.73,26.3,26.3,0,0,0,3.08,6.16,81.26,81.26,0,0,0,7.58,9.49c1.28,1.44,2.58,2.88,3.88,4.3a1.91,1.91,0,0,1,.56,1.48,6.45,6.45,0,0,0,2.73,5.46,16.46,16.46,0,0,0,6.77,3c3.19.67,6.43,1.14,9.65,1.68,1.13.2,2.27.34,3.4.54a8.42,8.42,0,0,1,1.16.4c-.75,1.08-1.27,1.29-2.33,1-2.1-.51-4.18-1.09-6.3-1.51a13.56,13.56,0,0,0-3.43-.19c-1.21.07-1.64.77-1.19,1.9a9.7,9.7,0,0,0,1.37,2.38c1.5,1.93,3.1,3.77,4.62,5.68,2.31,2.92,4.59,5.87,6.88,8.81l.24.34a2.25,2.25,0,0,0,1.67-1.76,29.72,29.72,0,0,0,.92-4.58,95.45,95.45,0,0,0-.13-15.31c-.54-9.52-1.2-19-1.67-28.54a79.9,79.9,0,0,1,.24-9.66,58.29,58.29,0,0,0-2.77-22.18,79,79,0,0,0-12.19-22.94,146.15,146.15,0,0,0-22.93-23.84c-2.32-2-4.72-3.84-7-5.79-1.06-.89-2-1.89-3.05-2.8-1.52-1.34-3-2.71-4.62-3.93a8.73,8.73,0,0,0-2.72-1.29,2,2,0,0,0-2.78,1.35,12,12,0,0,0-.78,4c.08,3.4.36,6.8.65,10.19.23,2.75.64,5.49.9,8.24a23.32,23.32,0,0,1-.06,2.89c0,1.34.51,1.79,1.79,1.36.8-.28,1.56-.69,2.58-1.14a26.38,26.38,0,0,0-2.49,9.19c-.23,1.83-.38,3.67-.68,5.48a17,17,0,0,1-1,3.59,3,3,0,0,1-3.72,2.1,14.75,14.75,0,0,1-3.61-1.26,2.07,2.07,0,0,0-2.08-.1,31.57,31.57,0,0,0-3.72,2.35,37.86,37.86,0,0,0-6.38,7.05,162.88,162.88,0,0,0-9.9,15.29c-3.08,5.23-6.14,10.49-9.2,15.73a5.81,5.81,0,0,0-.44.86c-2.82,7.34-5.72,14.65-8.41,22A81.45,81.45,0,0,0,281.25,386c-.79,5.85-.91,11.66.94,17.36a22.37,22.37,0,0,0,8.89,11.81c.29.2.6.37,1,.64a6.29,6.29,0,0,0,.09-.77c-.73-14.24,2.28-27.8,7.5-41a207.17,207.17,0,0,1,14.11-27.94c4.93-8.45,10.68-16.33,16.32-24.29,5.09-7.17,10.21-14.32,15.93-21a85,85,0,0,1,14.08-13.59,15.15,15.15,0,0,1,2.76-1.68,9.48,9.48,0,0,1-.62.77,321.27,321.27,0,0,0-38.54,47.4,273.75,273.75,0,0,0-14.65,24.53c-1.53,2.93-2.7,6.05-4.06,9.07-3.09,6.83-6.21,13.66-8.61,20.77A60,60,0,0,0,293.11,403a23.08,23.08,0,0,0,1.25,9.92,15.25,15.25,0,0,0,6.32,7.62,6.53,6.53,0,0,0,.75.37c.42-1.77.84-3.44,1.22-5.12,2.11-9.19,4.2-18.39,6.92-27.43a140.69,140.69,0,0,1,9.61-24.65,92.63,92.63,0,0,1,5.91-9.65c4.07-5.91,8-11.9,12.08-17.83a251,251,0,0,1,17.49-23.3,89.3,89.3,0,0,1,15.88-14.89,3.51,3.51,0,0,1,1.4-.67c-.24.27-.46.57-.71.83A315,315,0,0,0,343.63,330a254.94,254.94,0,0,0-27,43.9,134.08,134.08,0,0,0-9.11,24.55,47.14,47.14,0,0,0-1.79,14.6,23.64,23.64,0,0,0,.85,5,11,11,0,0,0,9.31,8.16,37.51,37.51,0,0,0,4.12.32c.5,0,1,0,1.5.08a26.47,26.47,0,0,1-9.72.05,43,43,0,0,1-15.57-6.11c-4.32-2.64-8.51-5.48-12.73-8.28a109,109,0,0,0-13.25-7.94,38.44,38.44,0,0,0-9.5-3.27A2.6,2.6,0,0,1,259,400a105,105,0,0,1-12.76-21.58A237.07,237.07,0,0,1,236.05,350c-2.58-8.45-5.14-16.9-7.75-25.33-.9-2.9-2.06-5.72-2.87-8.64a60.72,60.72,0,0,1-1.92-20.66c.9-12.56,4.89-24.2,10.55-35.33a143.48,143.48,0,0,1,11.82-19.13c.38-.52.75-1.05,1.21-1.69-.33-.4-.67-.82-1-1.22L218,206.6c-4.08-4.56-8.19-9.1-12.25-13.69a2,2,0,0,0-2-.75,19.53,19.53,0,0,1-4.39.06c-2.54-.27-3.46-1.89-2.63-4.32a13.21,13.21,0,0,1,2.8-4.4,24.5,24.5,0,0,1,7.81-6,8.12,8.12,0,0,1,3.71-1,2.82,2.82,0,0,1,3,2.19,8.11,8.11,0,0,1,.3,2.85,3.36,3.36,0,0,0,.76,2.53c6.06,8.35,12.45,16.45,19.26,24.2,9.46,10.75,19.07,21.37,28.6,32.06q7,7.89,14,15.85c1.51,1.73,2.89,3.58,4.36,5.35a9.1,9.1,0,0,0,2.14,2,3.89,3.89,0,0,0,0-.94c-.62-1.93-1.24-3.85-1.88-5.77a45.71,45.71,0,0,1-2.48-10,4.15,4.15,0,0,1,.06-1.56c.12.34.26.69.38,1a98.28,98.28,0,0,0,16.18,30.12,41.3,41.3,0,0,0,7.15,7.08,23.81,23.81,0,0,0,7.1,3.91,1.73,1.73,0,0,1,.67.38c-3.18-.24-5.77-1.89-8.54-3.37.19.27.36.56.58.82,1.4,1.65,2.84,3.26,4.2,4.94a1.94,1.94,0,0,0,2.19.77,17.11,17.11,0,0,0,2.79-1.12,14.92,14.92,0,0,0,1.79-1.26c-.27,1.21-.57,2.29-.74,3.38-.45,3,.16,5.88.42,8.8.16,1.73.26,3.47.39,5.34a14.14,14.14,0,0,0-6.47-.29,14.39,14.39,0,0,0-5.55,2.87,2.72,2.72,0,0,1,0-.59,8.22,8.22,0,0,0-1.46-7.82,28,28,0,0,0-4-4.38c-2.67-2.33-5.54-4.43-8.27-6.69-2.55-2.11-5.09-4.24-7.54-6.46a22.2,22.2,0,0,1-4.37-5.67c-2.35-4.17-4.7-8.34-7.15-12.45A56,56,0,0,0,259,252.08c-.33-.31-.68-.6-1.09-1a7.1,7.1,0,0,0-.9,3.62,27.69,27.69,0,0,0,1.62,9.75,93,93,0,0,0,23.22,36c1.36,1.24,2.88,2.3,4.29,3.48a74.8,74.8,0,0,1,8.24,8.09c-.73.22-1.09-.21-1.45-.48-1.73-1.3-3.45-2.61-5.12-4a155.88,155.88,0,0,1-13.5-12.45A33.77,33.77,0,0,1,269.4,289a3.08,3.08,0,0,0-.63-.72,28.83,28.83,0,0,1-9.15-14.81c-1.15-4.21-2-8.52-2.83-12.79-.92-4.52-1.75-9-3.67-13.27a22.11,22.11,0,0,0-4.09-6.2c-.18-.19-.41-.34-.61-.52a12.94,12.94,0,0,0-2.7,5.71,75.94,75.94,0,0,0-1.13,23.49A68.34,68.34,0,0,0,251,293a55.51,55.51,0,0,0,7.92,11.76c5.4,6.29,11.86,11.43,17.95,17q2.7,2.47,5.44,4.91a8.85,8.85,0,0,1,1.33,1.2c-.69.35-1.05,0-1.42-.27a103.65,103.65,0,0,1-16.51-12.69,79.8,79.8,0,0,1-18.14-26,63.66,63.66,0,0,1-5.35-27.55c.09-2.75.53-5.49.82-8.24,0-.45.29-.92-.25-1.24a1,1,0,0,0-1.36.32,30.8,30.8,0,0,0-2.94,3.64,51.89,51.89,0,0,0-6,14.31,35.55,35.55,0,0,0-1.38,11.19,15.72,15.72,0,0,0,1.62,6.37,5.32,5.32,0,0,1,.48,1.71,43.72,43.72,0,0,0,7.13,18.8,85.5,85.5,0,0,0,11.79,14.22c4.71,4.67,9.56,9.2,14.27,13.86,2.52,2.48,4.89,5.11,7.33,7.68l-.21.25c-.28-.19-.57-.36-.84-.56A181.58,181.58,0,0,1,251,324.41a85,85,0,0,1-15.12-21.48,55.35,55.35,0,0,1-5.57-25c0-.32,0-.64,0-1a1,1,0,0,0-.1-.25,4.5,4.5,0,0,0-.72.48,10.83,10.83,0,0,0-2.27,4.22,36.36,36.36,0,0,0-1.58,10.34,116.55,116.55,0,0,0,6.05,40.2c4.51,10.46,7.47,21.45,11,32.24a135.16,135.16,0,0,0,7.88,19.57A64.94,64.94,0,0,0,261,398.7a2.35,2.35,0,0,0,2.92.62,5.71,5.71,0,0,0,3.37-3.28,38.34,38.34,0,0,0,1.38-4.46c.2-.71.26-1.44.45-2.19,1,7.78,4.14,14.21,10.95,18.73,0-.51,0-.82,0-1.13a103.65,103.65,0,0,1,0-18.89A114.14,114.14,0,0,1,286,361.21a153.74,153.74,0,0,1,13.43-27.94,175.29,175.29,0,0,1,13.18-18.55c2.23-2.87,4.28-5.88,6.26-8.93a26.28,26.28,0,0,0,3.38-8c.07-.24.16-.48.34-1,.67,1.9,1.08,3.59,2.24,4.89l.3-.08q-4.92-41.7-9.82-83.41c.38,7.61,1.22,15.18,1.84,22.79a5,5,0,0,1-.31-.72,16.86,16.86,0,0,0-7.44-9.61A44.45,44.45,0,0,0,299.27,226c-4.66-1.59-9.32-3.16-14-4.65a14,14,0,0,1-6.26-3.84c-1.05-1.16-2.24-2.18-3.36-3.28-.32-.3-.59-.65-.88-1l.17-.24c.54.3,1.09.59,1.61.91,3.22,2,6.42,4,9.67,5.89a38.65,38.65,0,0,0,8.12,3.77c1.18.36,2.43.49,3.63.77a7.46,7.46,0,0,1,1.52.55c1.95.93,3.84,2,5.83,2.8a11.74,11.74,0,0,0,3.62.75,4,4,0,0,0,4.18-2.76,11,11,0,0,0,.8-4.73c-.13-2.71-.3-5.43-.65-8.11-.75-5.61-1.68-11.2-2.42-16.81-.26-2-.19-4.13-.26-6.19,0-.27,0-.54,0-.89a3.25,3.25,0,0,0-.61.16c-7.22,3.56-14.47,7.06-21.65,10.7a63.41,63.41,0,0,0-13.09,8.67c-1.18,1-2.27,2.15-3.42,3.22-.29.27-.63.48-.95.73l0,0a11.91,11.91,0,0,1,.69-1.14,30.36,30.36,0,0,0,4-6.41,2.05,2.05,0,0,1,1.18-1.08c3.54-1.65,7.1-3.27,10.63-4.93,3.87-1.83,7.75-3.64,11.56-5.56a30.51,30.51,0,0,0,6.45-4.48c5.37-4.74,7.19-10.66,5.62-17.57-.55-2.41-1.54-4.72-2.32-7.07a2.93,2.93,0,0,0-1.21-1.42,20.31,20.31,0,0,1-3.35-2.83,4.72,4.72,0,0,1-.06-6.33,10.37,10.37,0,0,1,3.88-3,18.66,18.66,0,0,1,9.24-1.81c1.15.06,2.31.05,3.44.19a9.12,9.12,0,0,1,2.67.61,3.31,3.31,0,0,1,1.19,5.39,22,22,0,0,1-2.64,2.24q3.35,37.81,6.74,76.06c.29.13.57.28.86.38a90.64,90.64,0,0,1,27.66,16.09A154.13,154.13,0,0,1,379,272.36c5.56,6.94,10.7,14.19,15.66,21.56a84.7,84.7,0,0,1,11.64,27.28,142.78,142.78,0,0,1,3.65,24c.53,7.36.66,14.72.65,22.08,0,3.82.22,7.65.07,11.46a168,168,0,0,1-3.54,30.4,46.32,46.32,0,0,1-1.43,4.75,8.19,8.19,0,0,1-1,1.81,1.06,1.06,0,0,1-1.37.5c.38-1.44.74-2.85,1.1-4.26a141.53,141.53,0,0,0,3.84-23.4,178.19,178.19,0,0,0,.67-20.14q-.27-9.93-.93-19.86c-.44-6.66-1.09-13.3-1.74-19.94a25.91,25.91,0,0,0-1-4.3,129.11,129.11,0,0,0-17.57-37.75,168.32,168.32,0,0,0-42.48-43.18c-1.35-1-2.61-2-4-3-1.54-1.09-3.09-2.16-4.7-3.14a7.72,7.72,0,0,0-2.32-.82,3.39,3.39,0,0,0-4.27,2.12,13.13,13.13,0,0,0-1,4,43.74,43.74,0,0,0,1.57,13.65c.15.66.67.83,1.13,1.1A167.08,167.08,0,0,1,346,266.6a137.56,137.56,0,0,1,30.55,30.14,110,110,0,0,1,11.5,19.93,25.6,25.6,0,0,1,1.57,6.4,169.34,169.34,0,0,1,2.26,23.35c.27,10.72.33,21.45.61,32.17.2,7.36.68,14.71.93,22.07.18,5.53,2.2,10.38,5.11,14.95a118.31,118.31,0,0,0,10,12.83c3.61,4.24,7.24,8.47,10.71,12.83A45.12,45.12,0,0,1,426.65,454a34.52,34.52,0,0,0,2.65,5.43c1.1,2,2.07,4,3,6a6.28,6.28,0,0,1,.48,2.28c.06,1.16-.6,1.76-1.73,1.52a9,9,0,0,1-2.84-1,81.28,81.28,0,0,1-6.87-4.59,67.8,67.8,0,0,1-12.56-12.37,27.54,27.54,0,0,1-2.82-4.57,46,46,0,0,0-11.41-15.26,43.15,43.15,0,0,0-19-9.33c-9.78-2.17-19.48-1.49-29.11,1-.4.1-.8.24-1.21.31a1.41,1.41,0,0,1-1.43-.83.88.88,0,0,1,.28-.78,3.57,3.57,0,0,1,1.4-.53c2.46-.29,4.93-.7,7.4-.75,6.81-.17,13.63-.17,20.44-.24a3.26,3.26,0,0,0,1.45-.24,2,2,0,0,0-.31-.19A51.24,51.24,0,0,1,363.58,414c-2.51-1.71-5-3.45-7.5-5.18a5.22,5.22,0,0,1-.61-.55,5.65,5.65,0,0,1,1,.34,132.79,132.79,0,0,0,21,8.81c.29.1.6.16,1,.26a5.22,5.22,0,0,0,.85-4.11,9.25,9.25,0,0,0-2.84-4.65,53.7,53.7,0,0,0-5.5-4.61c-3.15-2.23-6.45-4.25-9.66-6.4-4.28-2.87-8.6-5.69-12.78-8.7a33.45,33.45,0,0,1-8.28-8.25c-.19-.29-.43-.55-.71-.91l-.19.66a4.58,4.58,0,0,0-.14.53A20,20,0,0,0,342,396.13a33.73,33.73,0,0,0,9,9A12.17,12.17,0,0,1,352.13,406.13Zm6.84-23.2.81,1.13c.25.38.47.78.74,1.15q6.8,9,13.61,18.08c11.51,15.17,23.25,30.16,35.42,44.81a11.75,11.75,0,0,0,1.15,1.08l.56,1,.25-.19-.83-.77a14.71,14.71,0,0,0-.78-1.26q-24.61-31.62-49.24-63.22c-.23-.28-.5-.53-.74-.8l-.88-1.07-.86-1.07-.59-1-.26.22.88.77Zm-7.1-9.75-.65-.93-.22.18.78.84a44.72,44.72,0,0,0,4.33,5.74A23.42,23.42,0,0,0,351.87,373.18Zm-95-126.29-2-2.4-.27.25,2.2,2.25c.3.4.58.82.92,1.19,2.17,2.44,4.33,4.9,6.54,7.3,11.5,12.48,22.27,25.63,34.32,37.61,2.22,2.21,4.35,4.5,6.53,6.74.62.63,1.29,1.21,1.94,1.82a4.58,4.58,0,0,0-1-1.5l-46.54-50.6C258.6,248.64,257.71,247.78,256.85,246.89Zm74.43,56.63c-.19-3.55-.33-6.95-.55-10.35q-.6-9.57-1.27-19.15T328,254.61c-.57-6.93-1.21-13.85-1.82-20.77q-.87-9.76-1.76-19.53c-.78-8.34-1.6-16.68-2.37-25-.7-7.65-1.36-15.31-2-23-.16-1.81-.34-3.63-.53-5.61-1.64,1.27-3.33,1-5,.73-.64-.11-1.27-.27-1.91-.33-.91-.09-1.18.17-1.07,1.1.21,1.64.48,3.28.71,4.92.88,6.42,1.78,12.85,2.62,19.28.72,5.52,1.38,11.05,2.05,16.58q1.06,8.91,2.09,17.82c.61,5.26,1.18,10.52,1.78,15.78q1,9.06,2.09,18.11c.6,5.16,1.22,10.32,1.83,15.49.35,2.92.74,5.84,1,8.77.34,3.62.55,7.25.87,10.87.38,4.3,1,8.6-.89,12.74A5.92,5.92,0,0,0,331.28,303.52Zm11.41,54.56c.41.49.7.81,1,1.15,7.46,9.36,14.89,18.74,22.38,28.08,15.39,19.16,31.39,37.84,45.88,57.72,2.22,3,4.53,6,6.71,9.11a21.31,21.31,0,0,1,3.27,6.51,2,2,0,0,0,.43.84q3.07,3.17,6.2,6.29a3.25,3.25,0,0,0,.75.43,3,3,0,0,0-.41-1.49c-2.51-4.39-4.88-8.88-7.6-13.14-11.23-17.59-23.6-34.37-36.44-50.8s-25.61-32.57-38.42-48.85c-.16-.21-.35-.39-.6-.66-1.59,1.88-4.13,2.57-5.4,4.84.95,1.3,1.88,2.59,2.94,3.78C343.07,360.68,342.47,359.58,342.69,358.08Zm-6.07,7.64a13.57,13.57,0,0,0-3.05,4.17,4.29,4.29,0,0,0-.56,2.22q.06,8.43.05,16.86c0,9.48.06,19,0,28.46,0,5.42.15,10.85-.12,16.28-.17,3.49.15,7,.13,10.5,0,3-.15,6-.34,9a8.75,8.75,0,0,1-1.29,4l-.63-1.34c.07.72,0,1.29.18,1.51.6.59.53,1.33.68,2,.72,3.27,1.41,6.56,2.21,9.82a12.4,12.4,0,0,0,1.27,3c.58,1.05,1.22,1,1.8-.07a3,3,0,0,0,.32-.76,26.4,26.4,0,0,0,.94-4.44c.38-6.94.77-13.88.88-20.83.24-14.88-.72-29.73-1.46-44.58-.57-11.4-1.11-22.81-1-34.23ZM207.78,190.07c.45.45.9.87,1.32,1.32q14.15,15.23,28.3,30.45Q263.68,250,290,278.16c1.89,2,3.78,4,5.6,6.11,2.18,2.49,4.3,5,6.43,7.57,1.52,1.79,3.07,3.56,4.51,5.41a11.73,11.73,0,0,1,2.38,5.08,1.76,1.76,0,0,0,1.72,1.58A1.15,1.15,0,0,0,312,303a2,2,0,0,0-.6-2.12c-6.95-8.35-13.73-16.85-20.87-25-11.79-13.48-23.8-26.76-35.74-40.11-14.2-15.89-28.19-32-41.07-49a8.05,8.05,0,0,0-.62-.67ZM367.31,399.73a2.11,2.11,0,0,0-.26-2.16,43.75,43.75,0,0,0-2.88-4.86q-4.21-5.82-8.62-11.49c-5.31-6.89-10.91-13.56-15.77-20.79a3.66,3.66,0,0,0-.6-.51c-.28,1.58-.6,3-.78,4.38a22.2,22.2,0,0,0,3.47,15.55,36.78,36.78,0,0,0,8,8.31c5.4,4.26,11.34,7.71,17.05,11.5C367,399.71,367.12,399.7,367.31,399.73ZM330.6,452h.22c0-.53,0-1,0-1.58q-.13-10-.28-20-.23-15.53-.49-31.05c-.09-6-.15-12-.24-17.94a5.29,5.29,0,0,0-.12-.89,9.91,9.91,0,0,0-.48,2.86c-.07,2.21-.12,4.42-.11,6.63,0,10.16.13,20.33.14,30.5,0,2.89-.35,5.79-.26,8.68.16,5.33.49,10.66.83,16C330,447.43,330.33,449.69,330.6,452ZM210.41,179.68c-1.42.14-2.79.25-4.15.42a2.15,2.15,0,0,0-1.12.46c-1.57,1.4-3.14,2.8-4.63,4.29a4.44,4.44,0,0,0-1,1.79,1.24,1.24,0,0,0,1,1.69,3.05,3.05,0,0,0,1.08.17,10.48,10.48,0,0,0,8.3-4.18A4.49,4.49,0,0,0,210.41,179.68Zm86,114.3-23.73-26.44c0,.37-.08.47-.05.55.14.34.29.67.46,1a46.13,46.13,0,0,0,5.62,8.67C283.75,284,290,289.05,296.36,294Zm17.85-142.81.06.32c-2.72-.82-4.32.83-5.91,2.48a10.3,10.3,0,0,0-.81.94,4.09,4.09,0,0,0-.5.82c-.41.9-.2,1.45.72,1.7a6.13,6.13,0,0,0,2,.19,22.14,22.14,0,0,0,8.29-2.45,7.41,7.41,0,0,0,1.58-1.09c.87-.82.74-1.49-.35-2a4.62,4.62,0,0,0-1.3-.43C316.76,151.45,315.49,151.32,314.21,151.17Zm69.23,269.14a15.26,15.26,0,0,0-5.68.35A12.11,12.11,0,0,0,383.44,420.31ZM253.51,243.55l.21-.19-1.36-1.47-.18.17Zm-3.12-3.5.12-.15-.58-.63-.11.1Z"/><path class="cls-4" d="M447.69,280.06c.38.78.74,1.57,1.13,2.35,2,4,4,8,6.06,11.94a56.52,56.52,0,0,0,8.06,12.17,32.48,32.48,0,0,0,13.89,8.93c3.12,1.07,6.1,2.56,9.13,3.89a7.94,7.94,0,0,1,1.22.79l-.1.31c-.46-.06-.93-.09-1.37-.19a58,58,0,0,1-12.5-4.7,75.92,75.92,0,0,1-7.88-4.54,36.24,36.24,0,0,1-4.1-3.67l-.56-.47c.16.52.24.83.34,1.12a139.29,139.29,0,0,1,6.06,26.6,247.09,247.09,0,0,1,2,28.64c.06,4,.09,8,.15,12,0,.4,0,.8.07,1.5a9.34,9.34,0,0,0,1.45-1.25,30.91,30.91,0,0,0,2.36-3.56,83.55,83.55,0,0,0,5.8-14.45c3-9.61,5.92-19.26,8.87-28.89.48-1.54.89-3.1,1.46-4.6a18.94,18.94,0,0,0,1.08-6.91,2.79,2.79,0,0,1,.2-1.28c.21,1.12.36,2.25.64,3.35a10.93,10.93,0,0,1-.33,6.07c-3.13,10.34-6.05,20.75-9.67,30.95a161.31,161.31,0,0,1-12.74,28.12,104.06,104.06,0,0,1-10.5,14.86c-.27.31-.52.64-.81,1a4.7,4.7,0,0,0,2.28,1.21,28.22,28.22,0,0,0,7.91,1.08,125.47,125.47,0,0,0,14.89-.68c9.26-.83,18.52-1.68,27.78-2.47,1.5-.13,3,0,4.52,0l0-.33a17.94,17.94,0,0,0-2.29-.23c-3.54.07-7.09.13-10.63.32-9.15.51-18.3,1-27.46.67a49.89,49.89,0,0,1-12.8-1.88,2.19,2.19,0,0,1-.91-.52,6,6,0,0,1,.94-.11l21.13.23,13.54.16c4.1,0,8.19.14,12.29.09,8.19-.11,36.09-4.49,44.27-4.85,7.54-.34,15.07-.94,22.58-1.65,8.8-.84,17.57-1.94,26.35-2.9,7.14-.78,14.29-1.46,21.41-2.31a316.37,316.37,0,0,0,39.4-6.86,195.16,195.16,0,0,0,26.36-8.52,2.47,2.47,0,0,0,1.72-1.92,35.12,35.12,0,0,0,.78-3.91,9,9,0,0,0-4.21-8.61,22.58,22.58,0,0,0-8.27-3.29,72.85,72.85,0,0,0-16.2-1.44c-5.48,0-11,.21-16.43.26-2.16,0-4.33-.24-6.49-.18q-9.66.25-19.32.66a132.91,132.91,0,0,1-19.45-.19,43.93,43.93,0,0,1-18-5.39,30.34,30.34,0,0,1-5.69-4.19,22,22,0,0,1,8.12-12A32.61,32.61,0,0,1,597.56,325a81.49,81.49,0,0,1,17.25-2c6.54-.12,13.08-.15,19.62-.24,1.7,0,3.4-.21,5.1-.22,3.82,0,7.64-.06,11.45.06,4.42.15,8.83.4,13.24.72,3.9.29,7.79.71,11.68,1.12a23.25,23.25,0,0,1,2.64.63c-.44.33-.62.58-.83.61a34.44,34.44,0,0,1-4.5.51c-2.48,0-5-.21-7.48-.18a10.22,10.22,0,0,0,1.21.31c4.36.66,8.77,1.13,13.09,2,3.91.79,7.73,2,11.59,3.08a1.59,1.59,0,0,1,1.28,1,17.32,17.32,0,0,1-2.09.1c-3.62-.31-7.25-.56-10.86-1-4.93-.59-9.84-1.37-14.77-2-1.69-.22-3.41-.14-5.1-.33-4.48-.48-9-1-13.43-1.57a124.64,124.64,0,0,0-17.89-1.27,31.14,31.14,0,0,0-9.65,1.45,20,20,0,0,0-4.09,2,11.47,11.47,0,0,0-5,7,1.59,1.59,0,0,0,.53,1.81,37.8,37.8,0,0,0,13.33,7.89A52.78,52.78,0,0,0,637.13,349c6.94.52,13.89.23,20.84.07a95.22,95.22,0,0,1,18.86,1,40.54,40.54,0,0,1,18.31,7.9,7.7,7.7,0,0,1,2.93,5.53,21.91,21.91,0,0,1,0,4.13,8.22,8.22,0,0,1-1.9,4.37,15.9,15.9,0,0,1-4.08,3.68,40.82,40.82,0,0,1-9,4.24c-4.25,1.5-8.53,2.91-12.78,4.4-1.35.47-2.66,1-4,1.62a18,18,0,0,0-4.71,3.08,31,31,0,0,1-15.15,7.18c-6.33,1.26-12.72,1.22-19.12,1-5.85-.22-11.69-.49-17.53-.61-2.39-.05-4.78.25-7.17.38-.64,0-1.29,0-1.93,0-6-.19-12-.43-17.94-.57-10.32-.25-20.63,0-30.93.47-9.24.38-38.18,5.3-47.41,5.84-7.73.46-15.44,1-23.16,1.48-5,.33-10,.67-15,1a16.32,16.32,0,0,1-2.21.07A30.23,30.23,0,0,0,450,408c-3.25,1.41-6.43,3-9.61,4.54a89.09,89.09,0,0,1-14.32,6.11,40.5,40.5,0,0,1-12.53,1.63c-2.3-.06-4.6.07-6.9.11a5.61,5.61,0,0,1-1.8-.19l3.36-.54a58.18,58.18,0,0,0,11.14-2.53,22,22,0,0,0,3.56-1.79,2.88,2.88,0,0,0,1.31-2.57c.24-4.78.56-9.56.88-14.34.3-4.4.73-8.81,1-13.22.37-6.89.7-13.79.9-20.69a168.38,168.38,0,0,0-.85-22.9,108.53,108.53,0,0,0-8.42-32.74,110.89,110.89,0,0,0-6.89-12.74A244.56,244.56,0,0,0,380.72,256c-11.18-11.93-23.58-22.37-37.87-30.41-4-2.25-8.2-4.15-12.31-6.21a10,10,0,0,1-1.33-.71,24.88,24.88,0,0,1,5.55,1.14,62.07,62.07,0,0,1,16.62,8.26,141.27,141.27,0,0,1,19,15.75c7.82,7.55,15.45,15.29,22.61,23.47a150.32,150.32,0,0,1,28.55,47.56,123.32,123.32,0,0,1,6.73,27.69,107.31,107.31,0,0,1,.72,19.3,18,18,0,0,0,.2,2.74,51,51,0,0,1-.43,11.71c-.79,6.25-1.75,12.48-2.52,18.74a47.18,47.18,0,0,0-.38,11.57,16.46,16.46,0,0,0,.83,3.61,4.7,4.7,0,0,0,5.9,3.25,16.77,16.77,0,0,0,3.77-1.28c1.62-.77,3.13-1.76,4.69-2.63a3.29,3.29,0,0,0,1.4-1.63,77.15,77.15,0,0,0,5.76-19.54A123.34,123.34,0,0,0,449.47,363c-.4-9-1.39-18-2.52-26.94-.22-1.82-.4-3.66-.66-5.48a19.14,19.14,0,0,0-.63-3.1,215.2,215.2,0,0,0-24.12-49.95,325.93,325.93,0,0,0-37.84-47.62c-1.67-1.78-3.23-3.67-5-5.38a55.84,55.84,0,0,0-16.3-10.73c-5.1-2.33-10.29-4.46-15.43-6.71A75.32,75.32,0,0,1,330.82,198c-1.08-.83-2.11-1.73-3.16-2.6l.17-.29c.79.3,1.62.52,2.38.89q5.88,2.9,11.72,5.86c7,3.55,13.92,7.14,20.9,10.67,1.76.89,3.63,1.57,5.42,2.4a10.68,10.68,0,0,1,2.24,1.31,231,231,0,0,1,39.94,42,295,295,0,0,1,35.22,62.51,33.07,33.07,0,0,1,1.47,5.88,191.93,191.93,0,0,1,4,46.1c-.25,5.76-.69,11.49-1.5,17.19-.42,3-.95,5.9-1.48,8.85a6.81,6.81,0,0,1-.59,1.53c-.61,1.39-1.26,2.76-1.85,4.16a6.81,6.81,0,0,0-.43,1.59c-.17,1.16.38,1.61,1.43,1.11a11.26,11.26,0,0,0,2.33-1.46A49,49,0,0,0,460,393a12.56,12.56,0,0,1,.93-1.36A33,33,0,0,0,467.31,377a60.23,60.23,0,0,0,.39-17.88C466.88,352,465.82,345,465,337.9c-.46-3.79-.6-7.61-1-11.4a41.12,41.12,0,0,0-1.18-5.8c-4.44-17.09-11.91-32.82-21.42-47.64-1.14-1.77-2.31-3.52-3.31-5.43a45.44,45.44,0,0,1,4.44,4.56c1.85,2.45,3.38,5.14,5,7.73a1.62,1.62,0,0,0,.19.18Zm168.55,45.79c-.4,0-.62-.07-.84-.06-3.35.11-6.71.15-10.06.36A42.86,42.86,0,0,0,594.5,328a25,25,0,0,0-6.09,2.51,16.92,16.92,0,0,0-5.6,6.37c-1.63,3.19-1,5.9,2,7.93A20.54,20.54,0,0,0,589,347a46.7,46.7,0,0,0,11,2.47,143.07,143.07,0,0,0,22.86.8c.78,0,1.56-.15,2.34-.23a.89.89,0,0,0-.56-.23,24.22,24.22,0,0,1-16.37-9.75,11.11,11.11,0,0,1-2.09-4.61,6.24,6.24,0,0,1,2.49-6.7,16.44,16.44,0,0,1,3.66-1.88A36.28,36.28,0,0,1,616.24,325.85Zm-43.08,67.57v.26h2.2q14.35.26,28.71.5,19,.3,38-.21a16,16,0,0,0,7.28-1.72c.93-.49,1.93-.85,2.89-1.3q16.41-7.56,32.81-15.15c.26-.12.51-.28.76-.42a4.07,4.07,0,0,0-1.6.3,214.57,214.57,0,0,1-20.81,5.94c-8.11,1.9-16.29,3.4-24.53,4.59-6,.87-12,1.59-18.07,2.31-4.61.55-9.23,1-13.86,1.46-5.26.53-10.53,1-15.79,1.55q-7.43.74-14.83,1.49C575.24,393.13,574.2,393.29,573.16,393.42Z"/><path class="cls-4" d="M447.72,280.1l0-.53c.52.32,1,.56,1.44.86,3.05,2.14,6.09,4.3,9.14,6.45a74,74,0,0,0,11.93,7.17,32.31,32.31,0,0,0,7.73,2.49c.62.11,1.26.16,2,.26a12.29,12.29,0,0,0,.43-4.1c-.1-5.64-1.59-11-3.37-16.29-3-8.83-6.89-17.26-10.69-25.74-3.46-7.72-6.82-15.49-10.24-23.24a37.74,37.74,0,0,1-1.85-6.34,27.2,27.2,0,0,0-3.76-9c-3.37-5-8.08-7-14-6.4a32.37,32.37,0,0,0-12.22,4.08c-2.94,1.61-5.75,3.46-8.59,5.26s-5.64,3.65-8.47,5.46c-.48.31-1,.55-1.53.82l-.19-.25c.37-.36.7-.75,1.1-1.07a116.2,116.2,0,0,1,22.67-14.42,21.42,21.42,0,0,1,7.9-2.32,4.29,4.29,0,0,0-1.16-3.73,11.39,11.39,0,0,0-3.82-2.68,44.86,44.86,0,0,0-10.82-3.19,171.69,171.69,0,0,0-17.65-2.27q-6.12-.52-12.24-1.09a9.79,9.79,0,0,1-1.43-.37,4.05,4.05,0,0,0-.34,2c.1,2.48.23,5,.35,7.45a9.19,9.19,0,0,1,0,1.66c-.19-.76-.36-1.52-.55-2.27a16.63,16.63,0,0,0-8.34-10.68,31,31,0,0,0-10.54-3.54c-4.55-.7-9.12-1.22-13.7-1.67-5.54-.55-11.11-.84-16.55-2.12-.07,0-.15,0-.34.07.76.49,1.47.91,2.13,1.39,4.23,3.11,8.49,6.18,12.67,9.35a50.64,50.64,0,0,0,10.32,6.28,126.57,126.57,0,0,1,29.15,18.29,186.28,186.28,0,0,1,25.12,25.19,6.86,6.86,0,0,1,.83,1.26c.5,1,.92,2,1.43,3s1,1.83,1.5,2.86a5.8,5.8,0,0,1-.58-.52,322.82,322.82,0,0,0-27.52-28.69,85.76,85.76,0,0,0-8.62-6.67c-7.45-5.27-15.4-9.74-23.32-14.25-6.84-3.89-13.7-7.75-20.25-12.13q-3.49-2.34-6.86-4.87a2.89,2.89,0,0,0-2.64-.56c-2,.45-4.06.72-6.11,1a5.68,5.68,0,0,1-1.45-.17c-.06-1,.61-1.22,1.14-1.51a16.3,16.3,0,0,1,5.67-1.64,24.84,24.84,0,0,1,6.33.13c2.24.27,4.49.44,6.74.58a114.27,114.27,0,0,1,19.71,3.3c6.75,1.64,13.47,3.39,20.24,4.94a89.4,89.4,0,0,0,21.77,2.28,51,51,0,0,1,34.91,12.2A50,50,0,0,1,458,225.69c.89,2.84,2,5.63,3.16,8.38,4.74,11.33,9.59,22.62,14.31,34A284.2,284.2,0,0,1,487,300.94c.61,2.17,1.15,4.36,1.72,6.54a1.51,1.51,0,0,1,0,.87,5.23,5.23,0,0,1-.4-.56,19,19,0,0,0-6-6.73,47,47,0,0,0-8.6-4.66c-4.21-1.85-8.45-3.63-12.63-5.56a32.29,32.29,0,0,1-8.75-5.71c-1.66-1.58-3.11-3.37-4.65-5.07Z"/><path class="cls-4" d="M295.5,315.94a4,4,0,0,1-.18.63c-2.43,4.28-4.85,8.58-7.32,12.83-1.05,1.79-2.23,3.49-3.35,5.23a7.27,7.27,0,0,0-.65,1.05c-3.56,8.29-7.21,16.53-10.11,25.08a113.8,113.8,0,0,0-4.15,15.73c0,.08-.07.16-.24.55.19-6.86.33-13.4,2.6-19.88-7.62,5.74-16,9.2-24.8,11.72l-.2-.32c.17-.18.31-.43.52-.53a44.18,44.18,0,0,1,6-2.68A35.6,35.6,0,0,0,272.76,352a91.84,91.84,0,0,0,7.8-12.85c2.44-4.64,4.86-9.29,7.4-13.88,1.16-2.09,2.6-4,3.87-6C292.69,317.85,294.05,317.07,295.5,315.94Zm-20.73,37.32-.37-.2a11.82,11.82,0,0,0-1.56,2.74l.3.18Z"/><path class="cls-4" d="M425.71,251.81c.59-.34.83.21,1.15.48a14.27,14.27,0,0,0,10.05,3.49,22.05,22.05,0,0,0,6.48-1.27,47.73,47.73,0,0,0,12-6.42c1.84-1.3,3.61-2.7,5.41-4.05l1.22-.94a4.62,4.62,0,0,1-1,2.5,10.84,10.84,0,0,1-3.67,3.3c-2.09,1.17-4.21,2.27-6.38,3.28-3,1.42-6.14,2.71-9.18,4.12-1.08.49-2.06,1.18-3.29,1.9,1.4,1.47,2.62,2.84,3.93,4.1a63.34,63.34,0,0,0,19.36,12.54,76.87,76.87,0,0,0,10.56,3.61c.65.17,1.35.3,1.58,1.22a3.49,3.49,0,0,1-2.05,0,59.38,59.38,0,0,1-10-3.14,84.86,84.86,0,0,1-13.74-6.73,31.68,31.68,0,0,1-7-5.56,8.59,8.59,0,0,1-2.61-5.64c-2.31.88-3.12,3.3-2.37,6.72l-.82-1.09-9-11.76a6.06,6.06,0,0,0-.67-.67Z"/><path class="cls-4" d="M354.16,337.23a227.11,227.11,0,0,1,19.46-19.42,4.89,4.89,0,0,1-.27.76c-3.23,5.95-1.18,12.5,4.33,16A19.09,19.09,0,0,0,386,337.3c.82.1,1.64.16,2.69.26a4.82,4.82,0,0,1-3.3,1.66,6.1,6.1,0,0,1-4.08-1,32.78,32.78,0,0,1-3.88-2.85c-1.61-1.37-3.08-2.89-4.65-4.32-.92-.83-1.88-1.62-2.87-2.37a9.44,9.44,0,0,0-1.9-1.09,3.89,3.89,0,0,0-5,1.05,32.44,32.44,0,0,0-2.23,3.46,4.87,4.87,0,0,1-1,1.24c-1.67,1.29-3.39,2.53-5.09,3.78A2.25,2.25,0,0,1,354.16,337.23Z"/><path class="cls-4" d="M269.05,214.42a64.8,64.8,0,0,0-6.83,12c4.85,4.08,10.62,6.4,16.15,9.22l-1.25-.36-8.57-2.61a9.66,9.66,0,0,0-3.26-.27c-1.74.08-3.48,0-5.22-.06a3.64,3.64,0,0,1-1.07-.26,2.2,2.2,0,0,1-1.58-3.13,8.67,8.67,0,0,1,1.25-2.44c1.19-1.63,2.44-3.22,3.76-4.75,2-2.33,4.11-4.6,6.17-6.89C268.74,214.7,268.9,214.56,269.05,214.42Z"/><path class="cls-4" d="M350.17,347.47a83.73,83.73,0,0,0,38.24,22.8,13.15,13.15,0,0,1-5.12-.23,48,48,0,0,1-13.64-5.1,57.64,57.64,0,0,1-15.33-11.39,23.38,23.38,0,0,1-3.81-5.23A7.92,7.92,0,0,1,350.17,347.47Z"/><path class="cls-4" d="M285.26,238.37c.31.08.62.14.92.25l25.65,9.71a5.74,5.74,0,0,1,1.51.79,35,35,0,0,0-3.49-.64,13.59,13.59,0,0,0-3.55.11,2.89,2.89,0,0,0-2.5,3.15,27.82,27.82,0,0,0,.38,3.1,5.79,5.79,0,0,1-.6-.66A45.18,45.18,0,0,0,286.18,239a5.89,5.89,0,0,1-.9-.7Z"/><path class="cls-4" d="M317.76,246l1.2,11.38c.21,2,.36,4,.67,6,.21,1.4.71,2.75,1,4.14a60.78,60.78,0,0,1,.83,10.86c0,1.78,0,3.57-.16,5.41L320,281l-2.27,1.93c1-2.92,1.6-5.54.15-8.19a3.35,3.35,0,0,0,.94-2.9c-.11-2.25-.24-4.5-.51-6.74-.42-3.56-1-7.1-1.42-10.66a15.06,15.06,0,0,1,.12-3.28c.19-1.71.45-3.42.68-5.13Z"/><path class="cls-4" d="M415.83,231.14c-.67-.39-.45-.83-.12-1.17a11.52,11.52,0,0,1,2-1.75c2.85-1.77,5.68-3.59,8.63-5.17A81.12,81.12,0,0,1,443,216.19c1.5-.41,3.06-.62,4.6-.91a1.44,1.44,0,0,1,1,.23c-.46.26-.91.53-1.37.77a128.92,128.92,0,0,1-12.11,5c-3.76,1.49-7.51,3-11.19,4.7a32.4,32.4,0,0,0-7.42,4.75A7.09,7.09,0,0,1,415.83,231.14Z"/><path class="cls-4" d="M425.2,195.07a10.34,10.34,0,0,1-1.2.79c-2.42,1.2-4.84,2.42-7.31,3.55-3.88,1.78-7.83,3.42-11.68,5.27a30.91,30.91,0,0,0-8.77,6.14c-.13.13-.25.32-.41.36a1.16,1.16,0,0,1-.74,0c-.11-.05-.15-.43-.07-.6a3.28,3.28,0,0,1,.62-.9,16.44,16.44,0,0,1,1.62-1.5A79.68,79.68,0,0,1,419.09,196a37.13,37.13,0,0,1,4.68-1.14,6.36,6.36,0,0,1,1.31,0Z"/><path class="cls-4" d="M427.22,245.63c.42-.4.82-.85,1.27-1.2a101,101,0,0,1,22-13.27,15.29,15.29,0,0,1,4.65-1.38,1.68,1.68,0,0,1-.65,1.75,11.41,11.41,0,0,1-2.38,1.6c-2.05.9-4.17,1.66-6.26,2.5-1.32.53-2.64,1.07-3.93,1.66a8.83,8.83,0,0,0-1.77,1.06,81.2,81.2,0,0,1-11.46,7.08,10.31,10.31,0,0,1-1.24.49Z"/><path class="cls-4" d="M385.87,352.88c-.85-.15-1.72-.25-2.55-.47a58.73,58.73,0,0,1-14.15-5.72,26,26,0,0,1-5.65-4.17,9.7,9.7,0,0,1-3-5.33,5.33,5.33,0,0,1,.26-2.57l1,1.32a47,47,0,0,0,12.37,11.89,11.36,11.36,0,0,0,2.23,1.05c2.64.95,5.3,1.85,7.93,2.8a16.12,16.12,0,0,1,1.67.82Z"/><path class="cls-4" d="M263.88,337.09c.49,1.28.44,1.81-.42,2.42a6.71,6.71,0,0,1-2.2,1.11,50,50,0,0,1-5.79,1.2,55.25,55.25,0,0,1-11.13.7c-1.65-.11-3.3-.19-5-.31a3.84,3.84,0,0,1-1.73-.49c2.15-.18,4.3-.31,6.44-.56,4.15-.5,8.3-1,12.43-1.63A20.51,20.51,0,0,0,263.88,337.09Z"/><path class="cls-4" d="M293.66,198.59c.51.57,1,1.16,1.53,1.7a29.53,29.53,0,0,0,7.89,5.68c2.19,1.06,4.31,2.25,6.44,3.42a8.87,8.87,0,0,1,1.3,1.08l-.14.33a6.71,6.71,0,0,1-1.28-.09c-5.24-1.48-10.06-3.74-14-7.65a6.45,6.45,0,0,1-2-3.83,4.68,4.68,0,0,1,0-.53Z"/><path class="cls-4" d="M337.07,263c.47,2.25-1.47,5.34-3.73,6.13a2.71,2.71,0,0,1-.66.18c-.57,0-.89-.31-.72-.86a3.91,3.91,0,0,1,.62-1.2A23.69,23.69,0,0,1,337.07,263Z"/><path class="cls-4" d="M321.63,285.49a18.43,18.43,0,0,1,.91,10.05A41.35,41.35,0,0,1,321.63,285.49Z"/><path class="cls-4" d="M310,265.88l4,5.73c-.81-.24-1.42-.39-2-.6a.84.84,0,0,1-.46-.43c-.59-1.53-1.15-3.06-1.71-4.59Z"/><path class="cls-4" d="M296.52,314.84a26,26,0,0,1,4.4-5.53C300.59,310.9,298.76,313.22,296.52,314.84Z"/><path class="cls-4" d="M342.85,282.23l5.45-4.9.16.12a3.67,3.67,0,0,1-.36.57q-1.62,1.77-3.28,3.51C344.21,282.17,344.2,282.16,342.85,282.23Z"/><path class="cls-4" d="M342.08,282.93l-4.51,3.48A6.08,6.08,0,0,1,342.08,282.93Z"/><path class="cls-4" d="M268.9,387.06l.3-6.93h.26c0,.72,0,1.44,0,2.17s0,1.64-.09,2.47-.15,1.53-.22,2.3Z"/><path class="cls-4" d="M305.46,257c.83,1.62,1.68,3.25,2.5,4.87.18.35.31.72.46,1.08l-.24.12-3.11-5.87Z"/><path class="cls-4" d="M317.69,274.49c-1.27-.16-2-.77-3.3-2.62A7,7,0,0,1,317.69,274.49Z"/><path class="cls-4" d="M317.24,284l-2.76,3.85C314.58,286.6,315.45,285.31,317.24,284Z"/><path class="cls-4" d="M376.63,314.85l-1.19,1.09-.13-.12,1.11-1.17Z"/><path class="cls-4" d="M270.86,212.4,269.79,214a2,2,0,0,1,1.1-1.59Z"/><path class="cls-4" d="M390.42,203.52v.89h-.06v-.89Z"/><path class="cls-4" d="M352.08,406.08l1.52.86Z"/><path class="cls-4" d="M425.73,251.8l-.37-.77.21-.06.15.84S425.73,251.8,425.73,251.8Z"/><path class="cls-4" d="M285.28,238.34l-1.12-.22.1-.28,1,.53Z"/><path class="cls-4" d="M378,313.63l-.5.42-.11-.13.51-.41Z"/><path class="cls-5" d="M367,633.9c.29-.29.61-.59.94-.89h-.26C367.49,633.31,367.26,633.61,367,633.9Z"/><path class="cls-3" d="M248.69,553H249c1.91-2.72,4.63-6.08,6.87-8.8l22.73-26.72h17l-29.92,31.84,34.08,45.6H282.62l-26.73-37.12-7.2,8v29.12H234.77V481.27h13.92Z"/><path class="cls-3" d="M307.41,538.39c0-8-.16-14.56-.64-21h12.48l.8,12.8h.32c3.84-7.36,12.8-14.56,25.6-14.56,10.72,0,27.36,6.4,27.36,33v46.24H359.25V550.23c0-12.48-4.64-22.88-17.92-22.88-9.28,0-16.48,6.56-18.88,14.4a20.25,20.25,0,0,0-1,6.56v46.56H307.41Z"/><path class="cls-3" d="M406.77,495.67c.16,4.8-3.36,8.64-9,8.64a8.37,8.37,0,0,1-8.48-8.64,8.58,8.58,0,0,1,8.8-8.8C403.41,486.87,406.77,490.71,406.77,495.67Zm-15.68,99.2V517.43h14.08v77.44Z"/><path class="cls-3" d="M440.37,495.19v22.24h20.16v10.72H440.37v41.76c0,9.6,2.72,15,10.56,15a31.32,31.32,0,0,0,8.16-1l.64,10.56a34.47,34.47,0,0,1-12.48,1.92c-6.56,0-11.84-2.08-15.2-5.92-4-4.16-5.44-11-5.44-20.16V528.15h-12V517.43h12V498.87Z"/><path class="cls-3" d="M471.25,541.59c0-9.12-.16-17-.64-24.16h12.32l.48,15.2h.64c3.52-10.4,12-17,21.44-17a15.23,15.23,0,0,1,4,.48v13.28a21.15,21.15,0,0,0-4.8-.48c-9.92,0-17,7.52-18.88,18.08a39.63,39.63,0,0,0-.64,6.56v41.28H471.25Z"/><path class="cls-3" d="M365.53,797.29,370,801.8c1,1,1.89,1.9,2.72,2.87l.06,0c-.38-1.2-.69-2.52-1-3.84l-1.4-6.33,1.59-.93,4.67,4.28c1.12,1,2.06,2,2.91,2.87l.07,0a34.05,34.05,0,0,1-1.18-3.85l-1.56-6.12,1.88-1.09L381.48,802l-1.72,1-4.51-4.06c-1-1-1.95-1.81-2.93-2.89l0,0a35.14,35.14,0,0,1,1.06,4l1.21,5.95-1.73,1-9.24-8.62Z"/><path class="cls-3" d="M381.68,787.88l4.48,4.51c1,1,1.89,1.9,2.72,2.87l.06,0c-.38-1.19-.69-2.52-1-3.84l-1.39-6.33,1.59-.93,4.67,4.28c1.11,1,2.06,2,2.91,2.87l.07,0a34.9,34.9,0,0,1-1.18-3.86l-1.56-6.12,1.88-1.09,2.71,12.41-1.73,1-4.5-4.06a39.86,39.86,0,0,1-2.93-2.89l0,0a35.14,35.14,0,0,1,1.06,4l1.21,6-1.73,1L379.74,789Z"/><path class="cls-3" d="M397.84,778.47l4.48,4.51c1,1,1.89,1.9,2.72,2.87l.06,0c-.38-1.19-.69-2.52-1-3.84l-1.4-6.33,1.6-.93L409,779c1.11,1,2.06,2,2.91,2.87l.07,0a34.9,34.9,0,0,1-1.18-3.86l-1.56-6.12,1.87-1.09,2.72,12.42-1.73,1-4.5-4.06a39.86,39.86,0,0,1-2.93-2.89l0,0a37.35,37.35,0,0,1,1.06,4l1.21,6-1.73,1-9.24-8.62Z"/><path class="cls-3" d="M417.13,779.74a1.49,1.49,0,1,1,2.06.62A1.48,1.48,0,0,1,417.13,779.74Z"/><path class="cls-3" d="M418.52,770.8c-.72-1.23-1.36-2.28-2-3.21l1.67-1,1.25,2,.09,0a3.63,3.63,0,0,1,1.56-4,2.36,2.36,0,0,1,.58-.25l1,1.79a3.31,3.31,0,0,0-.68.31,3.09,3.09,0,0,0-1.13,3.93,6.84,6.84,0,0,0,.43.94l3.24,5.57L422.71,778Z"/><path class="cls-3" d="M428.38,772.09a5.81,5.81,0,0,0,2.94-.71c1.39-.8,1.63-1.87,1.13-2.74s-1.36-1.09-3.06-.79c-2.27.43-3.76-.09-4.49-1.35-1-1.68-.43-3.85,1.82-5.16a6,6,0,0,1,2.95-.85l.33,1.66a4.67,4.67,0,0,0-2.49.64,1.75,1.75,0,0,0-.92,2.44c.5.87,1.35.89,3,.62,2.21-.37,3.67,0,4.57,1.55,1.07,1.84.4,4-2.08,5.41a6.94,6.94,0,0,1-3.35,1Z"/><path class="cls-3" d="M432.78,754.11l1.75,3,2.72-1.59.84,1.45-2.72,1.59,3.28,5.63c.76,1.3,1.55,1.82,2.61,1.2a4.37,4.37,0,0,0,1-.77l.91,1.38a5.56,5.56,0,0,1-1.53,1.24,3,3,0,0,1-2.52.39,4.48,4.48,0,0,1-2.32-2.29l-3.32-5.7-1.62.94-.84-1.45,1.62-.94-1.46-2.5Z"/><path class="cls-3" d="M452.56,756.79c.63,1.08,1.21,2,1.75,2.8l-1.68,1-1.11-1.64,0,0a4.58,4.58,0,0,1-2.32,4c-1.65,1-4.14,1.19-6.28-2.48l-3.56-6.11,1.91-1.11,3.36,5.79c1.16,2,2.55,3,4.27,2a3.17,3.17,0,0,0,1.5-3.19,3.09,3.09,0,0,0-.39-1.07l-3.73-6.42,1.9-1.1Z"/><path class="cls-3" d="M457.48,737.21l7.36,12.64c.54.92,1.17,2,1.65,2.65l-1.7,1-1.15-1.77,0,0a4.47,4.47,0,0,1-2.37,4.13c-2.52,1.47-5.71.46-7.56-2.71-2.05-3.47-1.13-6.86,1.41-8.35a4.07,4.07,0,0,1,4.09-.24l0,0-3.63-6.24Zm3.42,10.24a4.37,4.37,0,0,0-.55-.75,3.25,3.25,0,0,0-4-.6c-2,1.14-2.13,3.55-.78,5.86,1.23,2.12,3.29,3.26,5.34,2.07a3.32,3.32,0,0,0,1.47-3.89,3.75,3.75,0,0,0-.4-.87Z"/><path class="cls-3" d="M463.88,736.08a1.36,1.36,0,0,1-2.35,1.37,1.34,1.34,0,0,1,.49-1.88A1.31,1.31,0,0,1,463.88,736.08Zm5.68,14.63-6.08-10.46,1.9-1.1,6.09,10.45Z"/><path class="cls-3" d="M481,736.94c2.26,3.87.56,7.11-2,8.59-2.83,1.64-6.22.84-8.14-2.47-2-3.5-.94-6.88,1.95-8.57S479.12,733.75,481,736.94Zm-8.23,4.94c1.34,2.29,3.66,3.25,5.52,2.17s2.18-3.56.81-5.91c-1-1.77-3.23-3.5-5.47-2.2S471.6,739.89,472.75,741.88Z"/><path class="cls-3" d="M484.85,740.3a1.47,1.47,0,0,1,.51-2.11,1.57,1.57,0,0,1,1.56,2.73A1.48,1.48,0,0,1,484.85,740.3Z"/><path class="cls-3" d="M497.66,733.83a8.2,8.2,0,0,1-2.65,2.35c-3.16,1.84-6.45.89-8.31-2.3a6.14,6.14,0,0,1,2.38-8.82,7.23,7.23,0,0,1,2.95-1l.42,1.72a5.12,5.12,0,0,0-2.49.79c-2.4,1.39-2.66,3.92-1.39,6.1,1.41,2.42,3.83,3,5.9,1.8a6.26,6.26,0,0,0,2-1.88Z"/><path class="cls-3" d="M506.35,722.17c2.25,3.87.55,7.12-2,8.59-2.83,1.64-6.22.84-8.15-2.46-2-3.5-.94-6.89,1.95-8.57S504.49,719,506.35,722.17Zm-8.23,4.94c1.33,2.29,3.65,3.25,5.51,2.17s2.18-3.55.81-5.91c-1-1.77-3.22-3.5-5.47-2.19S497,725.12,498.12,727.11Z"/><path class="cls-3" d="M507.4,718.47c-.63-1.08-1.16-2-1.73-2.78l1.66-1,1.07,1.63.07,0a4.15,4.15,0,0,1,2.16-3.83,3.59,3.59,0,0,1,4.18.37l0,0a4.8,4.8,0,0,1,.38-2,4.05,4.05,0,0,1,1.88-2.08c1.38-.81,4-1.09,6.07,2.53l3.59,6.16-1.86,1.08-3.45-5.92c-1.16-2-2.6-2.79-4.14-1.89a2.84,2.84,0,0,0-1.24,3,3.88,3.88,0,0,0,.4,1l3.76,6.46-1.85,1.08L514.74,716c-1-1.67-2.41-2.45-3.85-1.61a3,3,0,0,0-1.25,3.27,2.84,2.84,0,0,0,.39,1L513.7,725l-1.86,1.08Z"/></svg>