<?xml version="1.0" encoding="utf-8"?>
<!-- Generator: Adobe Illustrator 26.5.0, SVG Export Plug-In . SVG Version: 6.00 Build 0)  -->
<svg version="1.1" id="Layer_1" xmlns="http://www.w3.org/2000/svg" xmlns:xlink="http://www.w3.org/1999/xlink" x="0px" y="0px"
	 viewBox="0 0 2521 2911" style="enable-background:new 0 0 2521 2911;" xml:space="preserve">
<style type="text/css">
	.st0{fill:#FFFFFF;}
	.st1{opacity:0.25;fill:#FFFFFF;enable-background:new    ;}
	.st2{fill:#DB1F26;}
	.st3{fill:#4D4D4D;}
	.st4{fill:#E6B35A;}
</style>
<g>
	<path class="st0" d="M2245.9,688.2c0,0,0,0.1-0.1,0.1l0.1,0l-985.4-568.9L272.1,690.1c0,0,0-0.1-0.1-0.1l-171.6,99.1v1339.6
		l1160,669.7l1160-669.7V789.1L2245.9,688.2z"/>
	<path class="st0" d="M1258.4,1164.5c439.9,0,818.5-195.6,987.4-476.1l-0.1,0c-169,280.6-547.5,476-987.4,476
		c-439.1,0-816.8-194.6-986.3-474.3l-0.1,0C441.5,969.8,819.4,1164.5,1258.4,1164.5z"/>
	<path class="st1" d="M1258.4,1164.5c439.9,0,818.5-195.6,987.4-476.1l-0.1,0c-169,280.6-547.5,476-987.4,476
		c-439.1,0-816.8-194.6-986.3-474.3l-0.1,0C441.5,969.8,819.4,1164.5,1258.4,1164.5z"/>
</g>
<path class="st2" d="M2521,2183.2V727.8l-100.5-58l-953.1-550.3L1260.5,0l-206.9,119.5L100.5,669.7L0,727.8v1455.5l100.5,58
	l965,557.1l195,112.6l195-112.6l964.9-557.1L2521,2183.2z M100.5,2128.7V789.1L272,690l988.5-570.5l0,0l985.4,568.9l174.6,100.7
	v1339.6l-1160,669.7L100.5,2128.7z"/>
<path class="st3" d="M1207.8,1389.9l-4.4-1.6c-2.2-0.9-4.5-1.7-6.9-2.3c-7.3-1.7-11.5,0.8-13.7,7.9c-1.5,4.4-1.6,9.2-0.3,13.7
	c2.3,7.2,3.7,14.7,5.3,22.1c0.2,1.6,0.2,3.2,0,4.8c-5.1-3.4-9.8-14.9-12.8-30.7c-2.6-11-1.8-22.6,2.3-33.2c-2.8,0.6-5.2,2.4-6.5,5
	c-2.3,4.3-3.7,9.1-4.1,14c-1.3,13.8-1.2,27.8,0.5,41.6c2.1,23.6,4.8,47.1,6.7,70.7c0.9,10.8,0.5,21.8,0.4,32.6
	c0,10.3-0.3,20.2-1.1,30.3c-1.4,24.1-5.2,48.1-11.3,71.4c-0.9,3.4-2.2,6.6-3.9,9.6c-2.4,4.4-5.1,4.2-7.4-0.3c-1.2-2.6-2.1-5.3-2.9-8
	c-2.2-7.4-4.2-14.9-6.6-22.2c-7.8-25.1-13.3-50.9-16.3-77.1c-3.9-36-5.4-72.2-4.6-108.3c0.2-24.6,0.5-49.3,1.1-73.9
	c0.2-8.5,1.6-16.9,2.2-25.5c0.3-5.2,0.3-10.4,0-15.6c-0.4-2-1-3.9-1.8-5.7c-1.6,1.3-3.1,2.7-4.4,4.4c-2.2,3.6-4.1,7.4-5.8,11.4
	c-10,24.1-16.8,49.4-20.2,75.2c-0.6,8.8-0.8,17.7-0.5,26.5c0,5.8-0.4,11.7-0.7,17.5c-0.2,1.4-0.5,2.7-1,4c-0.9-1.6-1.7-2.3-1.9-3.2
	c-1.1-4.9-1.9-9.9-2.4-15c-1.3-15.1-2.1-30.4,1.9-45.2c4.5-16.6,9.5-33.1,15.2-49.3c15.3-42.7,36.6-83.1,63.3-119.8
	c11.9-16.7,25-32.5,37.7-48.7c1-1.3,2.2-2.4,3.6-3.3c-0.3,0.8-0.6,1.6-1,2.3c-7,11-8.5,24.6-4,36.8c2.6,7.5,6.1,14.6,10.6,21.1
	c7.8,11.5,16.5,22.4,26,32.6c4.4,4.9,8.9,9.9,13.3,14.8c1.3,1.3,2,3.2,1.9,5.1c-0.2,7.4,3.3,14.5,9.4,18.7
	c6.9,5.2,14.8,8.7,23.2,10.3c10.9,2.3,22.1,3.9,33.1,5.8c3.9,0.7,7.8,1.2,11.7,1.9c1.4,0.4,2.7,0.8,4,1.4c-2.6,3.7-4.4,4.4-8,3.4
	c-7.2-1.7-14.3-3.7-21.6-5.2c-3.9-0.7-7.8-0.9-11.8-0.7c-4.2,0.2-5.6,2.6-4.1,6.5c1.2,2.9,2.8,5.7,4.7,8.2
	c5.1,6.6,10.6,12.9,15.9,19.5c7.9,10,15.7,20.1,23.6,30.2l0.8,1.2c2.9-0.7,5.2-3.1,5.7-6c1.5-5.1,2.5-10.4,3.2-15.7
	c1.3-17.5,1.1-35.1-0.4-52.5c-1.9-32.7-4.1-65.2-5.7-97.9c-0.4-11.1-0.1-22.1,0.8-33.1c1.8-25.7-1.5-51.6-9.5-76.1
	c-9.5-28.4-23.6-55-41.8-78.7c-23-30.2-49.4-57.6-78.7-81.8c-8-6.9-16.2-13.2-24-19.9c-3.6-3.1-6.9-6.5-10.5-9.6
	c-5.2-4.6-10.3-9.3-15.9-13.5c-2.8-2-6-3.5-9.3-4.4c-3.4-1.6-7.5-0.1-9.1,3.4c-0.2,0.4-0.3,0.8-0.4,1.3c-1.7,4.4-2.6,9-2.7,13.7
	c0.3,11.7,1.2,23.3,2.2,35c0.8,9.4,2.2,18.8,3.1,28.3c0.1,3.3,0.1,6.6-0.2,9.9c0,4.6,1.7,6.1,6.1,4.7c2.7-1,5.4-2.4,8.9-3.9
	c-4.7,9.9-7.6,20.6-8.5,31.5c-0.8,6.3-1.3,12.6-2.3,18.8c-0.7,4.2-1.8,8.3-3.4,12.3c-1.5,5.5-7.1,8.7-12.6,7.2c0,0-0.1,0-0.1,0
	c-4.3-0.9-8.5-2.4-12.4-4.3c-2.1-1.4-4.9-1.5-7.1-0.3c-4.4,2.4-8.7,5.1-12.8,8.1c-8.3,7.1-15.6,15.2-21.9,24.2
	c-12.3,16.8-23.6,34.4-34,52.5c-10.6,17.9-21.1,36-31.6,54c-0.6,0.9-1.1,1.9-1.5,3c-9.7,25.2-19.6,50.3-28.9,75.5
	c-6.9,18.8-11.7,38.2-14.5,58c-2.7,20.1-3.1,40,3.2,59.6c5.3,16.6,16,30.9,30.5,40.5c1,0.7,2.1,1.3,3.4,2.2c0.2-0.9,0.3-1.8,0.3-2.6
	c-2.5-48.9,7.8-95.4,25.7-140.7c13.7-33.1,29.9-65.2,48.4-95.9c16.9-29,36.6-56,56-83.3c17.5-24.6,35-49.1,54.7-72
	c14.3-17.3,30.5-33,48.3-46.6c2.9-2.3,6.1-4.2,9.5-5.8c-0.7,0.9-1.4,1.8-2.1,2.6c-49.1,49.9-93.4,104.3-132.2,162.6
	c-18.2,27.2-35,55.2-50.3,84.2c-5.2,10.1-9.3,20.8-13.9,31.1c-10.6,23.4-21.3,46.9-29.5,71.3c-5.9,16.5-9.7,33.7-11.3,51.2
	c-1.1,11.5,0.4,23.1,4.3,34c4.1,10.9,11.7,20.1,21.7,26.1c0.8,0.5,1.7,0.9,2.6,1.3c1.4-6.1,2.9-11.8,4.2-17.6
	c7.2-31.5,14.4-63.1,23.7-94.1c8.3-29.2,19.3-57.5,33-84.6c6.1-11.4,12.8-22.5,20.3-33.1c14-20.3,27.4-40.8,41.4-61.2
	c18.4-27.8,38.5-54.5,60-79.9c16-19.2,34.3-36.3,54.5-51.1c1.4-1.1,3.1-1.9,4.8-2.3c-0.8,0.9-1.6,2-2.4,2.8
	c-34,34.2-65.6,70.7-94.7,109.1c-35.9,46.9-66.9,97.4-92.6,150.6c-13.1,27-23.6,55.2-31.3,84.2c-4.7,16.3-6.7,33.2-6.1,50.1
	c0.4,5.8,1.3,11.6,2.9,17.2c3.9,15,16.6,26.1,31.9,28c4.7,0.6,9.4,1,14.1,1.1c1.7,0,3.4,0,5.1,0.3c-11,2.1-22.3,2.2-33.3,0.2
	c-19-3.4-37.2-10.5-53.4-21c-14.8-9.1-29.2-18.8-43.7-28.4c-14.5-10.1-29.7-19.2-45.5-27.2c-10.3-5.1-21.3-8.9-32.6-11.2
	c-2.4-0.3-4.6-1.7-6-3.6c-17.5-22.8-32.2-47.7-43.8-74c-13.7-31.7-25.4-64.3-35-97.5c-8.9-29-17.6-58-26.6-86.9
	c-3.1-9.9-7.1-19.6-9.8-29.6c-6.2-23.1-8.5-47-6.6-70.9c3.1-43.1,16.8-83,36.2-121.2c11.8-22.9,25.3-44.8,40.6-65.6
	c1.3-1.8,2.6-3.6,4.2-5.8c-1.1-1.4-2.3-2.8-3.4-4.2l-96.4-107.7c-14-15.6-28.1-31.2-42-47c-1.6-2.1-4.3-3.1-6.9-2.6
	c-5,0.6-10,0.7-15.1,0.2c-8.7-0.9-11.9-6.5-9-14.8c2.2-5.6,5.4-10.8,9.6-15.1c7.4-8.6,16.6-15.6,26.8-20.6c3.9-2.1,8.3-3.3,12.7-3.4
	c4.8-0.4,9.2,2.8,10.3,7.5c0.9,3.2,1.3,6.5,1,9.8c-0.4,3.1,0.6,6.3,2.6,8.7c20.8,28.6,42.7,56.4,66.1,83
	c32.5,36.9,65.4,73.3,98.1,110c16,18,32,36.2,48,54.4c5.2,5.9,9.9,12.3,15,18.4c2.1,2.7,4.5,5,7.3,6.9c0.1-1.1,0.1-2.2,0-3.2
	c-2.1-6.6-4.3-13.2-6.4-19.8c-4.1-11.1-7-22.6-8.5-34.3c-0.3-1.8-0.2-3.6,0.2-5.4c0.4,1.2,0.9,2.4,1.3,3.4
	c12.3,37.4,31.1,72.4,55.5,103.3c7.2,9.1,15.4,17.2,24.5,24.3c7.3,5.8,15.5,10.4,24.4,13.4c0.9,0.3,1.6,0.7,2.3,1.3
	c-10.9-0.8-19.8-6.5-29.3-11.6c0.7,0.9,1.2,1.9,2,2.8c4.8,5.7,9.7,11.2,14.4,16.9c1.6,2.4,4.7,3.5,7.5,2.6c3.3-1,6.5-2.3,9.6-3.8
	c2.2-1.3,4.2-2.7,6.1-4.3c-0.9,4.2-2,7.9-2.5,11.6c-1.5,10.3,0.5,20.2,1.4,30.2c0.5,5.9,0.9,11.9,1.3,18.3c-7.2-2-14.8-2.4-22.2-1
	c-7,1.8-13.5,5.2-19,9.8c-0.1-0.7-0.1-1.4,0-2c3.1-9.2,1.2-19.3-5-26.8c-4-5.5-8.6-10.5-13.7-15c-9.2-8-19-15.2-28.4-23
	c-8.7-7.2-17.5-14.5-25.9-22.2c-6-5.6-11.1-12.2-15-19.5c-8.1-14.3-16.1-28.6-24.5-42.7c-9.2-15.8-20.7-30.3-34-42.8
	c-1.1-1.1-2.3-2.1-3.7-3.4c-2.1,3.8-3.2,8.1-3.1,12.4c-0.2,11.4,1.7,22.7,5.6,33.4c16.6,46.8,43.9,89.1,79.7,123.5
	c4.7,4.3,9.9,7.9,14.7,11.9c10.1,8.5,19.6,17.8,28.3,27.8c-2.5,0.8-3.7-0.7-5-1.6c-5.9-4.5-11.8-9-17.6-13.7
	c-16.3-13.3-31.7-27.6-46.3-42.7c-6.4-6.3-12.1-13.3-16.8-20.9c-0.6-0.9-1.3-1.8-2.2-2.5c-15.4-13.3-26.4-31-31.4-50.8
	c-3.9-14.4-6.9-29.2-9.7-43.9c-3.2-15.5-6-30.9-12.6-45.5c-3.4-7.8-8.2-15-14-21.3c-0.6-0.7-1.4-1.2-2.1-1.8
	c-4.7,5.7-7.8,12.4-9.3,19.6c-5.5,26.5-6.8,53.7-3.9,80.6c2.6,27.5,10,54.4,22,79.3c7.3,14.6,16.4,28.1,27.2,40.3
	c18.5,21.6,40.7,39.2,61.6,58.3c6.2,5.6,12.4,11.3,18.7,16.8c1.7,1.2,3.2,2.6,4.6,4.1c-2.4,1.2-3.6,0-4.9-0.9
	c-20.3-12.6-39.3-27.2-56.6-43.5c-26.5-25.3-47.7-55.6-62.2-89.2c-13.1-29.7-19.3-62-18.4-94.5c0.3-9.4,1.8-18.8,2.8-28.3
	c0-1.5,1-3.2-0.9-4.3c-1.6-1-3.7-0.5-4.7,1.1c-3.7,3.9-7,8.1-10.1,12.5c-9.3,15.2-16.2,31.8-20.6,49.1c-3.6,12.5-5.2,25.4-4.7,38.4
	c0.3,7.6,2.2,15,5.6,21.9c0.9,1.8,1.4,3.8,1.6,5.9c3,23.1,11.4,45.2,24.5,64.5c11.7,17.7,25.2,34,40.4,48.8
	c16.2,16,32.8,31.6,49,47.5c8.6,8.5,16.8,17.5,25.1,26.3l-0.7,0.9c-1-0.7-2-1.2-2.9-1.9c-26.5-20-51.4-42.1-74.4-66.1
	c-21-21.7-38.5-46.6-51.9-73.7c-13-26.7-19.5-56.1-19.1-85.8c0-1.1,0-2.2,0-3.4c-0.1-0.3-0.2-0.6-0.3-0.9c-0.9,0.5-1.7,1-2.5,1.6
	c-3.6,4.2-6.3,9.1-7.8,14.5c-3.5,11.5-5.3,23.4-5.4,35.5c-1.2,46.8,5.8,93.5,20.8,137.9c15.5,35.9,25.6,73.6,37.7,110.6
	c7.2,23,16.3,45.5,27,67.1c9.5,18.7,21.5,36,35.8,51.4c2.4,3,6.6,3.9,10,2.1c5.3-1.9,9.5-6,11.6-11.3c1.9-5,3.5-10.1,4.7-15.3
	c0.7-2.4,0.9-4.9,1.5-7.5c3.4,26.7,14.2,48.8,37.6,64.3c0-1.7,0-2.8,0-3.9c-2-21.6-2-43.2,0-64.8c3-31.5,9.9-62.4,20.3-92.3
	c12.1-33.4,27.5-65.5,46.1-95.9c13.7-22.2,28.8-43.4,45.2-63.6c7.7-9.8,14.7-20.2,21.5-30.6c5.4-8.4,9.3-17.7,11.6-27.4
	c0.2-0.8,0.5-1.6,1.2-3.4c2.3,6.5,3.7,12.3,7.7,16.8l1-0.3c-11.3-95.4-22.5-190.8-33.7-286.2c1.3,26.1,4.2,52.1,6.3,78.2
	c-0.4-0.8-0.8-1.6-1.1-2.5c-4.1-13.8-13.2-25.5-25.5-33c-10.9-6.8-22.5-12.1-34.8-16c-16-5.5-32-10.8-48-16
	c-8.2-2.4-15.6-6.9-21.5-13.2c-3.6-4-7.7-7.5-11.5-11.3c-1.1-1-2-2.2-3-3.4l0.6-0.8c1.9,1,3.7,2,5.5,3.1c11,6.9,22,13.7,33.2,20.2
	c8.8,5.4,18.1,9.7,27.9,12.9c4,1.2,8.3,1.7,12.5,2.6c1.8,0.4,3.5,1.1,5.2,1.9c6.7,3.2,13.2,6.9,20,9.6c4,1.5,8.2,2.4,12.4,2.6
	c6.4,0.6,12.4-3.3,14.3-9.5c2.1-5.1,3-10.7,2.7-16.2c-0.4-9.3-1-18.6-2.2-27.8c-2.6-19.2-5.8-38.4-8.3-57.7
	c-0.9-6.9-0.7-14.2-0.9-21.2c0-0.9,0-1.9,0-3.1c-0.7,0.1-1.4,0.3-2.1,0.5c-24.8,12.2-49.6,24.2-74.3,36.7c-16.1,8-31.2,18-44.9,29.7
	c-4,3.4-7.8,7.4-11.7,11c-1,0.9-2.2,1.6-3.3,2.5l0,0c0.7-1.3,1.5-2.7,2.4-3.9c5.5-6.7,10.1-14.1,13.7-22c0.8-1.7,2.3-3.1,4-3.7
	c12.1-5.7,24.4-11.2,36.5-16.9c13.3-6.3,26.6-12.5,39.7-19.1c8-4.1,15.4-9.3,22.1-15.4c18.4-16.3,24.7-36.6,19.3-60.3
	c-1.9-8.3-5.3-16.2-8-24.3c-0.8-2-2.3-3.7-4.2-4.9c-4.2-2.8-8-6.1-11.5-9.7c-5.6-6.1-5.7-15.5-0.2-21.7c3.6-4.4,8.1-8,13.3-10.3
	c9.9-4.7,20.8-6.9,31.7-6.2c3.9,0.2,7.9,0.2,11.8,0.7c3.1,0.2,6.2,0.9,9.2,2.1c5.9,2.3,8.8,8.8,6.5,14.7c-0.5,1.4-1.4,2.7-2.4,3.8
	c-2.8,2.8-5.8,5.4-9.1,7.7c7.7,86.5,15.4,173.5,23.1,260.9c1,0.4,2,1,3,1.3c34.7,12.6,66.8,31.3,94.9,55.2
	c27.6,23.2,52.8,49.2,75.1,77.6c19.1,23.8,36.7,48.7,53.7,74c18.7,28.6,32.2,60.3,39.9,93.6c6.5,27,10.7,54.6,12.5,82.3
	c1.8,25.3,2.3,50.5,2.2,75.8c0,13.1,0.8,26.2,0.2,39.3c-0.9,35.1-4.9,70-12.1,104.3c-1.3,5.5-3,11-4.9,16.3c-0.9,2.2-2,4.3-3.4,6.2
	c-0.9,1.7-2.9,2.5-4.7,1.7c1.3-4.9,2.5-9.8,3.8-14.6c6.6-26.3,11-53.2,13.2-80.3c2.1-23,2.8-46,2.3-69.1
	c-0.6-22.7-1.7-45.4-3.2-68.1c-1.5-22.8-3.7-45.6-6-68.4c-0.7-5-1.9-9.9-3.4-14.8c-13-46.1-33.3-89.9-60.3-129.5
	c-39.2-57.8-88.6-108-145.7-148.1c-4.6-3.4-9-6.9-13.7-10.3c-5.3-3.7-10.6-7.4-16.1-10.8c-2.5-1.4-5.2-2.3-8-2.8
	c-6.1-2-12.6,1.2-14.6,7.3c-1.9,4.4-3,9-3.4,13.7c-0.7,15.8,1.1,31.6,5.4,46.8c0.5,2.3,2.3,2.8,3.9,3.8c17,9.8,33.4,20.5,49.3,32
	c40.1,28.8,75.5,63.7,104.8,103.4c15.5,21.3,28.7,44.3,39.5,68.4c2.7,7.1,4.5,14.4,5.4,22c4.4,26.5,7,53.3,7.8,80.1
	c0.9,36.8,1.1,73.6,2.1,110.4c0.7,25.3,2.3,50.5,3.2,75.7c0.6,19,7.5,35.6,17.5,51.3c10.4,15.4,21.9,30.1,34.3,44
	c12.4,14.5,24.8,29.1,36.7,44c10.8,13.1,19.4,27.8,25.4,43.7c2.5,6.5,5.5,12.7,9.1,18.6c3.8,6.9,7.1,13.7,10.3,20.6
	c1,2.5,1.6,5.1,1.6,7.8c0.2,4-2.1,6-5.9,5.2c-3.4-0.6-6.7-1.7-9.7-3.4c-8.1-4.8-16-10.1-23.6-15.7c-16.1-12.2-30.6-26.5-43.1-42.4
	c-3.7-4.9-7-10.1-9.7-15.7c-9.3-20-22.6-37.8-39.1-52.4c-18.7-15.9-41.1-26.9-65.2-32c-33.6-7.4-66.8-5.1-99.9,3.4
	c-1.4,0.3-2.7,0.8-4.2,1.1c-2.1,0.2-4.1-0.9-4.9-2.8c-0.1-1,0.2-2,1-2.7c1.5-0.9,3.1-1.6,4.8-1.8c8.4-1,16.9-2.4,25.4-2.6
	c23.4-0.6,46.8-0.6,70.1-0.8c1.7,0.1,3.4-0.2,5-0.8c-0.3-0.2-0.7-0.5-1.1-0.7c-13.2-5.2-25.7-11.9-37.3-20.1
	c-8.6-5.9-17.2-11.8-25.7-17.8c-0.7-0.6-1.4-1.2-2.1-1.9c1.2,0.3,2.3,0.7,3.4,1.2c23.1,12.1,47.2,22.2,72,30.2
	c1,0.3,2.1,0.5,3.4,0.9c2.9-4.1,4-9.2,2.9-14.1c-1.6-6.2-5-11.7-9.7-16c-5.9-5.7-12.2-11-18.9-15.8c-10.8-7.7-22.1-14.6-33.1-22
	c-14.7-9.8-29.5-19.5-43.8-29.8c-11.1-7.7-20.7-17.3-28.4-28.3c-0.7-1-1.5-1.9-2.4-3.1l-0.7,2.3c-0.2,0.6-0.4,1.2-0.5,1.8
	c-3.6,17.6-0.2,36,9.5,51.1c8.2,12.2,18.7,22.6,30.9,30.9C1205.3,1387.5,1206.5,1388.7,1207.8,1389.9z M1231.2,1310.3l2.8,3.9
	c0.9,1.3,1.6,2.7,2.5,3.9c15.6,20.6,31.1,41.3,46.7,62c39.5,52,79.8,103.5,121.5,153.7c1.2,1.3,2.5,2.6,3.9,3.7l1.9,3.4l0.9-0.7
	l-2.8-2.6c-0.8-1.5-1.7-2.9-2.7-4.3c-56.3-72.3-112.6-144.6-168.9-216.9c-0.8-1-1.7-1.8-2.5-2.7l-3-3.7l-3-3.7l-2-3.4l-0.9,0.8
	l3,2.6L1231.2,1310.3z M1206.9,1276.8l-2.2-3.2l-0.8,0.6l2.7,2.9c4.4,7,9.4,13.5,14.9,19.7
	C1217.6,1289.5,1212.7,1282.7,1206.9,1276.8z M881,843.6l-6.9-8.2l-0.9,0.9l7.5,7.7c1,1.4,2,2.8,3.2,4.1c7.4,8.4,14.9,16.8,22.4,25
	c39.5,42.8,76.4,87.9,117.7,129c7.6,7.6,14.9,15.4,22.4,23.1c2.1,2.2,4.4,4.2,6.7,6.2c-0.8-1.9-2-3.7-3.4-5.1L890,852.7
	C886.9,849.6,883.8,846.6,881,843.6L881,843.6z M1136.3,1037.9c-0.7-12.2-1.1-23.8-1.9-35.5c-1.4-21.9-2.8-43.8-4.4-65.7
	s-3.2-44.1-5.1-66.6c-2-23.8-4.2-47.5-6.2-71.3c-2-22.3-4-44.7-6-67c-2.7-28.6-5.5-57.2-8.1-85.8c-2.4-26.2-4.7-52.5-6.9-78.9
	c-0.5-6.2-1.2-12.5-1.8-19.2c-5.6,4.4-11.4,3.4-17.2,2.5c-2.2-0.4-4.4-0.9-6.6-1.1c-3.1-0.3-4,0.6-3.7,3.8
	c0.7,5.6,1.6,11.3,2.4,16.9c3,22,6.1,44.1,9,66.1c2.5,18.9,4.7,37.9,7,56.9c2.4,20.4,4.8,40.8,7.2,61.1c2.1,18,4,36.1,6.1,54.1
	c2.3,20.7,4.7,41.4,7.2,62.1c2.1,17.7,4.2,35.4,6.3,53.1c1.2,10,2.5,20,3.4,30.1c1.2,12.4,1.9,24.9,3,37.3
	c1.3,14.8,3.4,29.5-3.1,43.7C1122.5,1038.9,1129.7,1040.1,1136.3,1037.9L1136.3,1037.9z M1175.5,1225c1.4,1.7,2.4,2.8,3.4,3.9
	c25.6,32.1,51.1,64.3,76.8,96.3c52.8,65.7,107.7,129.8,157.4,198c7.6,10.3,15.5,20.6,23,31.3c5,6.7,8.8,14.3,11.2,22.3
	c0.3,1.1,0.8,2.1,1.5,2.9c7,7.3,14.1,14.4,21.3,21.6c0.8,0.6,1.7,1.1,2.6,1.5c0-1.8-0.5-3.6-1.4-5.1c-8.6-15.1-16.7-30.5-26.1-45.1
	c-38.5-60.3-81-117.9-125-174.3c-44.1-56.4-87.9-111.7-131.8-167.6c-0.5-0.7-1.2-1.3-2.1-2.3c-5.5,6.4-14.2,8.8-18.5,16.6
	c3.3,4.5,6.4,8.9,10.1,13C1176.7,1234,1174.6,1230.2,1175.5,1225L1175.5,1225z M1154.6,1251.3c-4.4,4.1-7.9,8.9-10.5,14.3
	c-1.3,2.3-2,5-1.9,7.6c0.1,19.3,0.2,38.6,0.2,57.8c0,32.5,0.2,65.2,0,97.6c0,18.6,0.5,37.2-0.4,55.9c-0.6,12,0.5,24,0.4,36
	c0,10.3-0.5,20.6-1.2,30.9c-0.3,4.9-1.9,9.6-4.4,13.7l-2.2-4.6c0.2,2.5,0,4.4,0.6,5.2c2.1,2,1.8,4.6,2.3,6.9
	c2.5,11.2,4.8,22.5,7.6,33.7c1,3.6,2.5,7.1,4.4,10.3c2,3.6,4.2,3.4,6.2-0.2c0.5-0.8,0.9-1.7,1.1-2.6c1.5-5,2.6-10.1,3.2-15.2
	c1.3-23.8,2.6-47.6,3-71.5c0.8-51-2.5-102-5-152.9c-2-39.1-3.8-78.3-3.4-117.4L1154.6,1251.3z M712.5,648.6c1.5,1.5,3.1,3,4.5,4.5
	c32.4,34.8,64.7,69.7,97.1,104.5c60.1,64.4,120.3,128.8,180.5,193.2c6.5,6.9,13,13.7,19.2,21c7.5,8.5,14.8,17.2,22.1,26
	c5.2,6.1,10.5,12.2,15.5,18.6c4.1,5.1,6.9,11,8.2,17.4c0.3,3,2.8,5.4,5.9,5.4c2.1,0.4,4.2-0.9,4.7-3.1c0,0,0,0,0,0
	c0.8-2.6,0-5.5-2.1-7.3c-23.8-28.6-47.1-57.8-71.6-85.8c-40.4-46.2-81.7-91.8-122.6-137.6c-48.7-54.5-96.7-109.8-140.9-168.1
	c-0.7-0.8-1.4-1.6-2.1-2.3L712.5,648.6z M1259.8,1367.9c1.1-2.4,0.8-5.3-0.9-7.4c-2.9-5.8-6.2-11.3-9.9-16.7
	c-9.6-13.3-19.5-26.5-29.6-39.4c-18.2-23.6-37.4-46.5-54.1-71.3c-0.6-0.7-1.3-1.2-2.1-1.7c-1,5.4-2.1,10.3-2.7,15
	c-2.8,18.6,1.5,37.7,11.9,53.3c7.6,10.9,16.9,20.5,27.4,28.5c18.5,14.6,38.9,26.5,58.5,39.5
	C1258.8,1367.9,1259.2,1367.8,1259.8,1367.9z M1133.9,1547.3h0.8c0-1.8,0-3.4,0-5.4c-0.3-22.9-0.6-45.7-1-68.6
	c-0.5-35.5-1.1-71-1.7-106.5c-0.3-20.6-0.5-41.2-0.8-61.5c-0.1-1-0.2-2-0.4-3.1c-1,3.2-1.6,6.5-1.6,9.8c-0.2,7.6-0.4,15.2-0.4,22.7
	c0,34.9,0.4,69.7,0.5,104.6c0,9.9-1.2,19.9-0.9,29.8c0.5,18.3,1.7,36.6,2.8,54.9C1131.8,1531.6,1133,1539.3,1133.9,1547.3z
	 M721.6,613c-4.9,0.5-9.6,0.9-14.2,1.4c-1.4,0.1-2.7,0.7-3.8,1.6c-5.4,4.8-10.8,9.6-15.9,14.7c-1.6,1.8-2.8,3.9-3.4,6.1
	c-0.9,2.2,0.2,4.7,2.4,5.5c0.3,0.1,0.7,0.2,1.1,0.3c1.2,0.4,2.4,0.6,3.7,0.6c11.2-0.1,21.7-5.4,28.5-14.3
	C723.3,624.4,724,618.2,721.6,613z M1016.6,1005.1l-81.4-90.7c0,1.3-0.3,1.6-0.2,1.9c0.5,1.2,1,2.3,1.6,3.4
	c5.3,10.6,11.8,20.6,19.3,29.7c17.3,21.4,38.7,38.7,60.6,55.7L1016.6,1005.1z M1077.8,515.2l0.2,1.1c-9.3-2.8-14.8,2.8-20.3,8.5
	c-1,1-1.9,2.1-2.8,3.2c-0.7,0.9-1.3,1.8-1.7,2.8c-1.4,3.1-0.7,5,2.5,5.8c2.2,0.6,4.6,0.8,6.9,0.7c9.9-0.9,19.6-3.8,28.4-8.4
	c2-1,3.8-2.3,5.4-3.7c3-2.8,2.5-5.1-1.2-6.9c-1.4-0.7-2.9-1.2-4.5-1.5c-4.4-0.7-8.7-1.1-13.1-1.6L1077.8,515.2z M1315.4,1438.5
	c-6.5-0.8-13.1-0.4-19.5,1.2c6.4,1.1,13.1,0.7,19.3-1.2H1315.4z M869.4,832.1l0.7-0.7l-4.7-5l-0.6,0.6L869.4,832.1z M858.7,820.1
	l0.4-0.5l-2-2.2l-0.4,0.3L858.7,820.1z"/>
<path class="st3" d="M1535.6,957.4c1.3,2.7,2.5,5.4,3.9,8.1c6.9,13.7,13.7,27.4,20.8,41c7.4,15.1,16.7,29.1,27.7,41.8
	c13,14.1,29.4,24.7,47.7,30.6c10.7,3.7,20.9,8.8,31.3,13.3c1.5,0.8,2.9,1.7,4.2,2.7l-0.3,1.1c-1.6-0.2-3.2-0.3-4.7-0.7
	c-14.9-3.7-29.3-9.1-42.9-16.1c-9.3-4.6-18.3-9.8-27-15.6c-5-3.8-9.7-8-14.1-12.6l-1.9-1.6c0.5,1.8,0.8,2.8,1.2,3.8
	c9.9,29.7,16.9,60.2,20.8,91.3c4.2,32.6,6.5,65.4,6.9,98.3c0.2,13.7,0.3,27.4,0.5,41.2c0,1.4,0,2.7,0.2,5.1c1.8-1.3,3.5-2.7,5-4.3
	c3-3.9,5.7-8,8.1-12.2c8.2-15.9,14.8-32.5,19.9-49.6c10.3-33,20.3-66.1,30.4-99.1c1.6-5.3,3.1-10.6,5-15.8c2.7-7.6,4-15.6,3.7-23.7
	c-0.1-1.5,0.1-3,0.7-4.4c0.7,3.8,1.2,7.7,2.2,11.5c1.6,6.9,1.2,14.1-1.1,20.8c-10.7,35.5-20.8,71.2-33.2,106.2
	c-11.5,33.5-26.1,65.8-43.7,96.5c-10.5,18-22.5,35.1-36,51c-0.9,1.1-1.8,2.2-2.8,3.4c2.2,2.1,4.9,3.5,7.8,4.2
	c8.8,2.5,18,3.8,27.1,3.7c17.1,0.2,34.1-0.5,51.1-2.3c31.8-2.8,63.5-5.8,95.3-8.5c5.1-0.4,10.3,0,15.5,0v-1.1
	c-2.6-0.4-5.2-0.7-7.9-0.8c-12.1,0.2-24.3,0.4-36.5,1.1c-31.4,1.7-62.8,3.4-94.2,2.3c-14.9-0.2-29.6-2.4-43.9-6.4
	c-1.2-0.3-2.2-0.9-3.1-1.8c1.1-0.2,2.1-0.3,3.2-0.4l72.5,0.8l46.5,0.5c14.1,0,28.1,0.5,42.2,0.3c28.1-0.4,123.8-15.4,151.9-16.6
	c25.9-1.2,51.7-3.2,77.5-5.7c30.2-2.9,60.3-6.7,90.4-9.9c24.5-2.7,49-5,73.5-7.9c45.5-5,90.7-12.8,135.2-23.5
	c30.8-7.6,61-17.4,90.4-29.2c3-0.9,5.3-3.5,5.9-6.6c1.1-4.4,2-8.9,2.7-13.4c1.3-11.8-4.4-23.3-14.4-29.5
	c-8.6-5.6-18.3-9.4-28.4-11.3c-18.3-3.7-36.9-5.4-55.6-4.9c-18.8,0-37.7,0.7-56.4,0.9c-7.4,0-14.9-0.8-22.3-0.6
	c-22.1,0.6-44.2,1.3-66.3,2.3c-22.2,1.4-44.5,1.2-66.7-0.7c-21.7-1.6-42.7-7.9-61.8-18.5c-7-4-13.6-8.8-19.5-14.4
	c4.4-16.5,14.2-31,27.9-41.2c12.7-9,27.1-15.3,42.3-18.5c19.4-4.4,39.3-6.7,59.2-6.9c22.4-0.4,44.9-0.5,67.3-0.8
	c5.8,0,11.7-0.7,17.5-0.8c13.1,0,26.2-0.2,39.3,0.2c15.2,0.5,30.3,1.4,45.4,2.5c13.4,1,26.7,2.4,40.1,3.8c3.1,0.5,6.1,1.3,9.1,2.2
	c-1.5,1.1-2.1,2-2.8,2.1c-5.1,0.9-10.3,1.5-15.4,1.7c-8.5,0-17.2-0.7-25.7-0.6c1.4,0.4,2.7,0.8,4.2,1.1c15,2.3,30.1,3.9,44.9,6.9
	c13.4,2.7,26.5,6.9,39.8,10.6c2,0.3,3.7,1.6,4.4,3.4c-2.4,0.3-4.8,0.4-7.2,0.3c-12.4-1.1-24.9-1.9-37.3-3.4
	c-16.9-2-33.8-4.7-50.7-6.9c-5.8-0.8-11.7-0.5-17.5-1.1c-15.4-1.6-30.9-3.4-46.1-5.4c-20.3-2.9-40.8-4.4-61.4-4.4
	c-11.2-0.1-22.4,1.6-33.1,5c-4.9,1.7-9.6,4-14,6.9c-8.6,5.5-14.8,14.1-17.2,24c-0.8,2.2-0.1,4.8,1.8,6.2
	c13.2,12.1,28.8,21.3,45.7,27.1c14.7,4.8,30,7.7,45.5,8.6c23.8,1.8,47.7,0.8,71.5,0.2c21.6-1,43.3,0.1,64.7,3.4
	c22.9,3.7,44.5,13,62.8,27.1c5.9,4.6,9.5,11.5,10.1,19c0.4,4.7,0.4,9.5,0,14.2c-0.6,5.5-2.9,10.7-6.5,15c-3.9,5-8.6,9.3-14,12.6
	c-9.7,6.1-20,11-30.9,14.5c-14.6,5.1-29.3,10-43.8,15.1c-4.6,1.6-9.1,3.4-13.7,5.6c-5.9,2.7-11.4,6.2-16.2,10.6
	c-14.7,12.8-32.7,21.4-52,24.6c-21.7,4.3-43.6,4.2-65.6,3.4c-20.1-0.8-40.1-1.7-60.1-2.1c-8.2-0.2-16.4,0.9-24.6,1.3
	c-2.2,0-4.4,0-6.6,0c-20.6-0.7-41.2-1.5-61.5-2c-35.4-0.9-70.8,0-106.1,1.6c-31.7,1.3-131,18.2-162.7,20c-26.5,1.6-53,3.4-79.5,5.1
	c-17.2,1.1-34.3,2.3-51.5,3.4c-2.5,0.3-5.1,0.3-7.6,0.2c-16.6-0.8-33.1,2.5-48.2,9.4c-11.2,4.8-22.1,10.3-33,15.6
	c-15.7,8.4-32.2,15.4-49.1,21c-13.9,4.1-28.5,6-43,5.6c-7.9-0.2-15.8,0.2-23.7,0.4c-2.1,0.1-4.2-0.1-6.2-0.7l11.5-1.9
	c13-1.6,25.8-4.5,38.2-8.7c4.2-1.7,8.3-3.7,12.2-6.1c3-1.9,4.7-5.3,4.5-8.8c0.8-16.4,1.9-32.8,3-49.2c1-15.1,2.5-30.2,3.4-45.4
	c1.3-23.6,2.4-47.3,3.1-71c0.8-26.2-0.2-52.5-2.9-78.6c-3.7-38.7-13.5-76.6-28.9-112.3c-6.9-15.1-14.8-29.7-23.6-43.7
	c-29.6-49.3-64.2-95.5-103.3-137.7c-38.4-40.9-80.9-76.7-129.9-104.3c-13.7-7.7-28.1-14.2-42.2-21.3c-1.6-0.7-3.1-1.5-4.6-2.4
	c6.5,0.6,12.9,1.9,19,3.9c20.3,6.5,39.5,16.1,57,28.3c23.3,16.1,45.1,34.2,65.2,54c26.8,25.9,53,52.5,77.6,80.5
	c42.5,47.8,75.7,103.2,97.9,163.2c11.3,30.7,19.1,62.5,23.1,95c2.8,22,3.6,44.1,2.5,66.2c0,3.1,0.2,6.3,0.7,9.4
	c1.1,13.4,0.6,26.9-1.5,40.2c-2.7,21.4-6,42.8-8.6,64.3c-2.1,13.1-2.5,26.5-1.3,39.7c0.5,4.2,1.4,8.4,2.8,12.4
	c2.4,8.6,11.2,13.6,19.8,11.3c0.1,0,0.3-0.1,0.4-0.1c4.5-0.9,8.8-2.4,12.9-4.4c5.6-2.6,10.7-6,16.1-9c2.2-1.3,3.9-3.2,4.8-5.6
	c9.5-21.4,16.2-43.9,19.8-67c4.4-28.8,5.9-58,4.3-87.1c-1.4-30.9-4.8-61.8-8.6-92.4c-0.8-6.2-1.4-12.6-2.3-18.8
	c-0.4-3.6-1.1-7.2-2.2-10.6c-20.1-60.5-47.9-118.1-82.8-171.4c-38.1-58.4-81.5-113.1-129.8-163.4c-5.7-6.1-11.1-12.6-17.2-18.5
	c-16.3-15.5-35.3-27.9-55.9-36.8c-17.5-8-35.3-15.3-52.9-23c-19.7-8.1-38.3-18.5-55.4-31.2c-3.7-2.8-7.2-5.9-10.8-8.9l0.6-1
	c2.7,1,5.6,1.8,8.2,3.1c13.4,6.6,26.9,13.3,40.2,20.1c24,12.2,47.8,24.5,71.7,36.6c6,3.1,12.5,5.4,18.6,8.2c2.7,1.2,5.3,2.7,7.7,4.5
	c51.5,42.1,97.6,90.5,137,144.1c48.9,66.3,89.4,138.3,120.8,214.5c2.3,6.6,4,13.3,5,20.2c10.9,52,15.5,105.1,13.7,158.2
	c-0.9,19.8-2.4,39.4-5.1,59c-1.4,10.3-3.3,20.2-5.1,30.4c-0.5,1.8-1.1,3.6-2,5.2c-2.1,4.8-4.3,9.5-6.3,14.3
	c-0.7,1.8-1.2,3.6-1.5,5.5c-0.6,4,1.3,5.5,4.9,3.8c2.9-1.3,5.5-3,8-5c15-12.3,27.7-27,37.6-43.6c1-1.6,2-3.2,3.2-4.7
	c11.3-14.7,18.8-31.9,21.9-50.2c3.5-20.3,3.9-40.9,1.3-61.3c-2.8-24.4-6.4-48.4-9.3-72.8c-1.6-13-2.1-26.1-3.4-39.1
	c-0.9-6.7-2.2-13.4-4-19.9c-15.2-58.6-40.9-112.6-73.5-163.4c-3.9-6.1-7.9-12.1-11.4-18.6c5.4,4.9,10.5,10.1,15.2,15.6
	c6.3,8.4,11.6,17.6,17.2,26.5c0.2,0.2,0.4,0.4,0.7,0.6L1535.6,957.4z M2113.9,1114.5c-1.4,0-2.1-0.2-2.9-0.2
	c-11.5,0.4-23,0.5-34.5,1.2c-12.6,0.5-25.1,2.6-37.2,6.3c-7.3,1.9-14.3,4.8-20.9,8.6c-8.2,5.5-14.8,13.1-19.2,21.9
	c-5.6,10.9-3.4,20.2,6.9,27.2c4.5,3,9.3,5.6,14.4,7.5c12.2,4.3,24.9,7.2,37.7,8.5c26,3,52.3,3.9,78.4,2.7c2.7,0,5.4-0.5,8-0.8
	c-0.5-0.5-1.2-0.8-1.9-0.8c-22.5-3-42.8-15.1-56.2-33.4c-3.6-4.6-6-10.1-7.2-15.8c-2.3-8.7,1.2-17.9,8.5-23
	c3.9-2.7,8.1-4.8,12.6-6.4C2104.9,1116.6,2109.3,1115.4,2113.9,1114.5z M1966.1,1346.3v0.9h7.5c32.8,0.6,65.7,1.2,98.5,1.7
	c43.5,0.7,86.9,0.4,130.4-0.7c8.7,0,17.2-2,25-5.9c3.2-1.7,6.6-2.9,9.9-4.5c37.5-17.3,75.1-34.6,112.6-52c0.9-0.4,1.7-1,2.6-1.4
	c-1.9,0-3.7,0.3-5.5,1c-23.4,8-47.3,14.8-71.4,20.4c-27.8,6.5-55.9,11.7-84.2,15.7c-20.6,3-41.2,5.5-62,7.9
	c-15.8,1.9-31.7,3.4-47.6,5c-18,1.8-36.1,3.4-54.2,5.3c-17,1.7-34,3.4-50.9,5.1C1973.2,1345.3,1969.6,1345.8,1966.1,1346.3z"/>
<path class="st3" d="M1535.7,957.5v-1.8c1.8,1.1,3.4,1.9,4.9,3c10.5,7.3,20.9,14.8,31.4,22.1c12.8,9.5,26.5,17.7,40.9,24.6
	c8.4,4,17.4,6.8,26.5,8.5c2.1,0.4,4.3,0.5,6.9,0.9c1.3-4.6,1.8-9.3,1.5-14.1c-0.3-19.3-5.5-37.7-11.6-55.9
	c-10.3-30.3-23.6-59.2-36.7-88.3c-11.9-26.5-23.4-53.1-35.1-79.7c-2.7-7.1-4.9-14.3-6.3-21.8c-2.4-11-6.8-21.4-12.9-30.9
	c-11.6-17.2-27.7-24-48-22c-14.8,1.8-29,6.6-41.9,14c-10.1,5.5-19.7,11.9-29.5,18c-9.7,6.2-19.3,12.5-29.1,18.7
	c-1.6,1.1-3.4,1.9-5.2,2.8l-0.7-0.9c1.3-1.2,2.4-2.6,3.8-3.7c23.9-19.4,50-36,77.8-49.5c8.4-4.4,17.6-7.1,27.1-8
	c0.8-4.7-0.7-9.4-4-12.8c-3.7-3.9-8.1-7.1-13.1-9.2c-11.9-5.2-24.3-8.9-37.1-10.9c-20-3.6-40.2-6.2-60.6-7.8c-14-1.2-28-2.4-42-3.7
	c-1.7-0.3-3.3-0.7-4.9-1.3c-1,2.2-1.4,4.5-1.2,6.9c0.3,8.5,0.8,17.2,1.2,25.6c0.2,1.9,0.2,3.8,0,5.7c-0.7-2.6-1.2-5.2-1.9-7.8
	c-3.9-15.7-14.3-29-28.6-36.6c-11.2-6.2-23.5-10.3-36.2-12.1c-15.6-2.4-31.3-4.2-47-5.7c-19-1.9-38.1-2.9-56.8-7.3
	c-0.2,0-0.5,0-1.2,0.2c2.6,1.7,5,3.1,7.3,4.8c14.5,10.7,29.1,21.2,43.5,32.1c10.9,8.6,22.8,15.8,35.4,21.5
	c36,16.3,69.7,37.4,100,62.7c31.4,26,60.3,54.9,86.2,86.4c1.1,1.3,2.1,2.8,2.8,4.3c1.7,3.4,3.2,6.9,4.9,10.3s3.4,6.3,5.1,9.8
	c-0.7-0.5-1.4-1.1-2-1.8c-29.4-34.7-61-67.6-94.4-98.4c-9.4-8.2-19.2-15.9-29.6-22.9c-25.6-18.1-52.8-33.4-80-48.9
	c-23.5-13.3-47-26.6-69.5-41.6c-8-5.4-15.8-10.9-23.5-16.7c-2.5-2.1-5.9-2.8-9.1-1.9c-6.9,1.5-13.9,2.5-21,3.4c-1.7,0-3.3-0.2-5-0.6
	c-0.2-3.4,2.1-4.2,3.9-5.2c6.1-3,12.7-5,19.5-5.6c7.2-0.8,14.5-0.6,21.7,0.4c7.7,0.9,15.4,1.5,23.1,2c22.8,1.8,45.5,5.6,67.6,11.3
	c23.2,5.6,46.2,11.6,69.4,16.9c24.5,5.7,49.6,8.3,74.7,7.8c43.8-1.5,86.5,13.4,119.8,41.9c25.5,21.5,44.2,49.9,53.8,81.8
	c3.1,9.7,6.9,19.3,10.8,28.7c16.3,38.9,32.9,77.6,49.1,116.6c15.5,36.7,28.7,74.4,39.6,112.8c2.1,7.4,3.9,15,5.9,22.4
	c0.3,1,0.3,2,0,3c-0.5-0.6-1-1.3-1.4-1.9c-4.9-9.2-12-17.2-20.6-23.1c-9.3-6.3-19.1-11.7-29.5-16c-14.4-6.3-29-12.5-43.3-19.1
	c-11-4.9-21.1-11.5-30-19.6c-5.7-5.4-10.7-11.6-16-17.4L1535.7,957.5z"/>
<path class="st3" d="M1013.5,1080.5c-0.1,0.7-0.4,1.5-0.6,2.2c-8.3,14.7-16.6,29.4-25.1,44c-3.6,6.1-7.7,12-11.5,17.9
	c-0.8,1.1-1.6,2.3-2.2,3.6c-12.2,28.4-24.7,56.7-34.7,86c-6,17.6-10.8,35.7-14.2,54c0,0.3-0.2,0.5-0.8,1.9c0.7-23.5,1.1-46,8.9-68.2
	c-26.1,19.7-54.9,31.6-85.1,40.2l-0.7-1.1c0.6-0.6,1.1-1.5,1.8-1.8c6.6-3.6,13.5-6.6,20.6-9.2c26.4-7.5,49.5-23.6,65.7-45.8
	c10.1-13.9,19.1-28.7,26.8-44.1c8.4-15.9,16.7-31.9,25.4-47.6c4-7.2,8.9-13.7,13.3-20.6C1003.8,1087,1008.5,1084.3,1013.5,1080.5z
	 M942.4,1208.5l-1.3-0.7c-2.2,2.9-4,6-5.4,9.4l1,0.6L942.4,1208.5z"/>
<path class="st3" d="M1460.2,860.5c2-1.2,2.8,0.7,3.9,1.6c9.5,8.3,21.9,12.6,34.5,12c7.6-0.3,15.1-1.8,22.2-4.4
	c14.7-5.3,28.6-12.8,41.2-22c6.3-4.5,12.4-9.3,18.6-13.9l4.2-3.2c-0.3,3.1-1.5,6.1-3.4,8.6c-3.3,4.7-7.6,8.6-12.6,11.3
	c-7.2,4-14.4,7.8-21.9,11.3c-10.3,4.9-21.1,9.3-31.5,14.1c-3.7,1.7-7.1,4-11.3,6.5c4.8,5,9,9.7,13.5,14.1
	c19.3,18.3,41.8,32.9,66.4,43c11.8,5,23.9,9.1,36.2,12.4c2.2,0.6,4.6,1,5.4,4.2c-2.3,0.7-4.7,0.7-7,0c-11.7-2.6-23.2-6.2-34.3-10.8
	c-16.4-6.3-32.2-14-47.1-23.1c-8.9-5.2-17-11.6-24-19.1c-5.3-5.1-8.5-12-9-19.3c-7.9,3-10.7,11.3-8.1,23.1l-2.8-3.7l-30.9-40.3
	c-0.7-0.8-1.5-1.6-2.3-2.3L1460.2,860.5z"/>
<path class="st3" d="M1214.7,1153.5c20.9-23.5,43.2-45.8,66.8-66.6c-0.2,0.9-0.5,1.8-0.9,2.6c-11.1,20.4-4,42.9,14.9,54.9
	c8.7,5.3,18.4,8.5,28.5,9.4c2.8,0.3,5.6,0.5,9.2,0.9c-2.9,3.3-6.9,5.4-11.3,5.7c-4.9,0.5-9.9-0.7-14-3.4c-4.7-2.9-9.1-6.2-13.3-9.8
	c-5.5-4.7-10.6-9.9-16-14.8c-3.2-2.8-6.4-5.6-9.8-8.1c-2-1.5-4.2-2.8-6.5-3.7c-5.8-3.2-13.1-1.7-17.2,3.6c-2.8,3.8-5.4,7.8-7.7,11.9
	c-0.9,1.6-2.1,3-3.4,4.3c-5.7,4.4-11.6,8.7-17.5,13C1216,1153.3,1215.4,1153.5,1214.7,1153.5z"/>
<path class="st3" d="M922.7,732.2c-9.3,12.8-17.1,26.7-23.4,41.2c16.6,14,36.4,22,55.4,31.6l-4.3-1.2l-29.4-9
	c-3.6-0.9-7.4-1.3-11.2-0.9c-6,0.3-11.9,0-17.9-0.2c-1.3-0.1-2.5-0.4-3.7-0.9c-4.1-0.8-6.8-4.7-6.1-8.8c0.1-0.7,0.3-1.3,0.6-2
	c1-3,2.4-5.8,4.3-8.4c4.1-5.6,8.4-11,12.9-16.3c6.9-8,14.1-15.8,21.2-23.6C921.7,733.1,922.2,732.7,922.7,732.2z"/>
<path class="st3" d="M1201,1188.6c35.9,37.4,81.2,64.5,131.2,78.2c-5.9,0.9-11.8,0.6-17.6-0.8c-16.4-3.4-32.2-9.3-46.8-17.5
	c-19.6-10-37.4-23.2-52.6-39.1c-5.2-5.3-9.6-11.4-13.1-17.9C1201.8,1190.6,1201.4,1189.6,1201,1188.6z"/>
<path class="st3" d="M978.4,814.3c1.1,0.3,2.1,0.5,3.2,0.9l88,33.3c1.9,0.6,3.6,1.6,5.2,2.7c-4-0.9-7.9-1.7-12-2.2
	c-4.1-0.4-8.2-0.3-12.2,0.4c-5.3,0.7-9.1,5.5-8.6,10.8c0.2,3.6,0.7,7.1,1.3,10.6c-0.7-0.7-1.4-1.5-2.1-2.3
	c-15.1-22.2-35.6-40.2-59.7-52.1c-1.1-0.7-2.1-1.5-3.1-2.4L978.4,814.3z"/>
<path class="st3" d="M1089.9,840.5l4.1,39c0.7,6.9,1.2,13.7,2.3,20.6c0.7,4.8,2.4,9.4,3.4,14.2c2.1,12.3,3,24.8,2.8,37.3
	c0,6.1,0,12.2-0.5,18.6l-4.5-9.6l-7.8,6.6c3.4-10,5.5-19,0.5-28.1c2.6-2.6,3.8-6.3,3.2-9.9c-0.4-7.7-0.8-15.4-1.7-23.1
	c-1.4-12.2-3.4-24.4-4.9-36.6c-0.3-3.8-0.1-7.5,0.4-11.3c0.7-5.9,1.5-11.7,2.3-17.6L1089.9,840.5z"/>
<path class="st3" d="M1426.3,789.5c-2.3-1.3-1.5-2.8-0.4-4c2-2.3,4.4-4.3,6.9-6c9.8-6.1,19.5-12.3,29.6-17.7
	c18.1-9.9,37.3-17.8,57.2-23.5c5.1-1.4,10.5-2.1,15.8-3.1c1.2-0.2,2.4,0.1,3.4,0.8c-1.6,0.9-3.1,1.8-4.7,2.6
	c-13.5,6.4-27.4,12.1-41.5,17.2c-12.9,5.1-25.8,10.3-38.4,16.1c-9.2,4.2-17.8,9.7-25.5,16.3C1427.9,788.7,1427.1,789.1,1426.3,789.5
	z"/>
<path class="st3" d="M1458.5,665.8c-1.3,1-2.7,1.9-4.1,2.7c-8.3,4.1-16.6,8.3-25.1,12.2c-13.3,6.1-26.9,11.7-40.1,18.1
	c-11.2,5.2-21.4,12.3-30.1,21.1c-0.4,0.4-0.9,1.1-1.4,1.2c-0.8,0.3-1.7,0.3-2.5,0c-0.4-0.2-0.5-1.5-0.2-2.1c0.5-1.1,1.3-2.2,2.1-3.1
	c1.7-1.8,3.6-3.6,5.6-5.1c22.6-17.8,47.9-31.9,74.9-41.8c5.3-1.6,10.6-3,16.1-3.9c1.5-0.2,3-0.2,4.5,0L1458.5,665.8z"/>
<path class="st3" d="M1465.4,839.3c1.4-1.4,2.8-2.9,4.4-4.1c23.1-18.3,48.5-33.6,75.5-45.5c5-2.4,10.4-4,16-4.7
	c0.5,2.3-0.3,4.6-2.2,6c-2.5,2.2-5.2,4-8.2,5.5c-7,3.1-14.3,5.7-21.5,8.6c-4.5,1.8-9.1,3.7-13.5,5.7c-2.2,1-4.2,2.2-6.1,3.6
	c-12.4,9.2-25.6,17.3-39.3,24.3c-1.4,0.7-2.8,1.2-4.3,1.7L1465.4,839.3z"/>
<path class="st3" d="M1323.5,1207.2c-2.9-0.5-5.9-0.9-8.7-1.6c-17-4.4-33.3-11-48.5-19.6c-7.1-3.9-13.6-8.7-19.4-14.3
	c-5.3-4.8-8.9-11.2-10.3-18.3c-0.4-3-0.1-6,0.9-8.8l3.4,4.5c11.5,16.1,25.9,29.9,42.4,40.8c2.4,1.5,5,2.7,7.7,3.6
	c9.1,3.3,18.2,6.3,27.2,9.6c2,0.8,3.9,1.8,5.7,2.8L1323.5,1207.2z"/>
<path class="st3" d="M905,1153c1.7,4.4,1.5,6.2-1.4,8.3c-2.3,1.7-4.8,3-7.5,3.8c-6.5,1.8-13.2,3.1-19.9,4.1
	c-12.6,2.1-25.4,2.9-38.2,2.4c-5.7-0.4-11.3-0.7-17.2-1.1c-2.1-0.1-4.1-0.7-5.9-1.7c7.4-0.6,14.8-1.1,22.1-1.9
	c14.2-1.7,28.5-3.4,42.6-5.6C888.5,1160.3,897.2,1157.4,905,1153z"/>
<path class="st3" d="M1007.2,677.9c1.7,2,3.4,4,5.2,5.8c7.9,7.9,17,14.5,27.1,19.5c7.5,3.6,14.8,7.7,22.1,11.7
	c1.6,1.1,3.1,2.3,4.5,3.7l-0.5,1.1c-1.5,0-2.9-0.1-4.4-0.3c-18-5.1-34.5-12.8-48-26.2c-3.7-3.5-6.2-8.1-6.9-13.1c0-0.6,0-1.2,0-1.8
	L1007.2,677.9z"/>
<path class="st3" d="M1156.1,898.8c1.6,7.7-5,18.3-12.8,21c-0.7,0.3-1.5,0.5-2.3,0.6c-2,0-3.1-1.1-2.5-3c0.5-1.5,1.2-2.9,2.1-4.1
	C1145.2,907.9,1150.4,903,1156.1,898.8z"/>
<path class="st3" d="M1103.1,976c4.2,11,5.3,22.9,3.1,34.5C1103.8,999.2,1102.8,987.6,1103.1,976z"/>
<path class="st3" d="M1063.2,908.7l13.7,19.7c-2.8-0.8-4.9-1.3-6.9-2.1c-0.7-0.3-1.3-0.8-1.6-1.5c-2-5.2-3.9-10.5-5.9-15.7
	L1063.2,908.7z"/>
<path class="st3" d="M1017,1076.7c4.1-7,9.2-13.4,15.1-19C1030.9,1063.2,1024.7,1071.1,1017,1076.7z"/>
<path class="st3" d="M1175.9,964.8l18.7-16.8l0.5,0.4c-0.4,0.7-0.8,1.3-1.2,2c-3.7,4-7.5,8.1-11.3,12
	C1180.6,964.6,1180.6,964.6,1175.9,964.8z"/>
<path class="st3" d="M1173.3,967.2l-15.5,11.9C1160.7,972.9,1166.5,968.4,1173.3,967.2z"/>
<path class="st3" d="M922.2,1324.5l1-23.8h0.9c0,2.5,0,4.9,0,7.4c0,2.5,0,5.6-0.3,8.5c-0.3,2.8-0.5,5.2-0.8,7.9L922.2,1324.5z"/>
<path class="st3" d="M1047.7,878.3c2.8,5.6,5.8,11.1,8.6,16.7c0.6,1.2,1.1,2.5,1.6,3.7l-0.8,0.4l-10.7-20.1L1047.7,878.3z"/>
<path class="st3" d="M1089.6,938.3c-4.4-0.5-6.9-2.6-11.3-9C1082.9,931,1086.9,934.2,1089.6,938.3z"/>
<path class="st3" d="M1088.1,970.9l-9.5,13.2C1078.9,979.8,1081.9,975.4,1088.1,970.9z"/>
<path class="st3" d="M1291.8,1076.7l-4.1,3.7l-0.4-0.4l3.8-4L1291.8,1076.7z"/>
<path class="st3" d="M929,725.3l-3.7,5.5c0.2-2.3,1.7-4.4,3.8-5.5L929,725.3z"/>
<path class="st3" d="M1339.1,694.8v3.1h-0.2v-3.1H1339.1z"/>
<path class="st3" d="M1207.6,1389.7l5.2,3L1207.6,1389.7z"/>
<path class="st3" d="M1460.3,860.4l-1.3-2.6l0.7-0.2L1460.3,860.4L1460.3,860.4z"/>
<path class="st3" d="M978.4,814.2l-3.8-0.8l0.3-1l3.4,1.8L978.4,814.2z"/>
<path class="st3" d="M1296.5,1072.5l-1.7,1.4l-0.4-0.4l1.7-1.4L1296.5,1072.5z"/>
<path class="st4" d="M1258.8,2171.3c1-1,2.1-2,3.2-3.1h-0.9C1260.5,2169.3,1259.7,2170.3,1258.8,2171.3z"/>
<path class="st2" d="M852.9,1893.8h1.1c6.6-9.3,15.9-20.9,23.6-30.2l78-91.7h58.3l-102.6,109.2l116.9,156.4h-58.8l-91.7-127.3
	l-24.7,27.4v99.9h-47.8v-389.9h47.8V1893.8z"/>
<path class="st2" d="M1054.3,1843.6c0-27.4-0.5-50-2.2-72h42.8l2.7,43.9h1.1c13.2-25.2,43.9-50,87.8-50c36.8,0,93.9,22,93.9,113.2
	v158.6h-48.3v-153.1c0-42.8-15.9-78.5-61.5-78.5c-31.8,0-56.5,22.5-64.8,49.4c-2.4,7.3-3.5,14.9-3.4,22.5v159.7h-48.2V1843.6z"/>
<path class="st2" d="M1395.2,1697.1c0.5,16.5-11.5,29.6-30.9,29.6c-15.9,0.2-28.9-12.5-29.1-28.3c0-0.4,0-0.9,0-1.3
	c-0.4-16.3,12.4-29.8,28.7-30.2c0.5,0,1,0,1.5,0C1383.7,1666.9,1395.2,1680.1,1395.2,1697.1z M1341.4,2037.4v-265.7h48.3v265.7
	H1341.4z"/>
<path class="st2" d="M1510.5,1695.4v76.3h69.2v36.8h-69.2v143.3c0,32.9,9.3,51.5,36.2,51.5c9.4,0.1,18.9-1.1,28-3.4l2.2,36.2
	c-13.7,4.8-28.3,7-42.8,6.6c-22.5,0-40.6-7.1-52.1-20.3c-13.7-14.3-18.7-37.7-18.7-69.2v-144.6h-41.2v-36.8h41.2v-63.7
	L1510.5,1695.4z"/>
<path class="st2" d="M1616.4,1854.6c0-31.3-0.5-58.3-2.2-82.9h42.3l1.6,52.1h2.2c12.1-35.7,41.2-58.3,73.6-58.3
	c4.6-0.1,9.2,0.5,13.7,1.6v45.6c-5.4-1.2-10.9-1.7-16.5-1.6c-34,0-58.3,25.8-64.8,62c-1.4,7.4-2.1,15-2.2,22.5v141.6h-47.8V1854.6z"
	/>
</svg>
