<?xml version="1.0" encoding="utf-8"?>
<!-- Generator: Adobe Illustrator 22.0.1, SVG Export Plug-In . SVG Version: 6.00 Build 0)  -->
<svg version="1.1" id="Layer_1" xmlns="http://www.w3.org/2000/svg" xmlns:xlink="http://www.w3.org/1999/xlink" x="0px" y="0px"
	 viewBox="0 0 735 852" style="enable-background:new 0 0 735 852;" xml:space="preserve">
<style type="text/css">
	.st0{fill:#54346F;}
	.st1{opacity:0.25;fill:url(#SVGID_1_);}
	.st2{fill:#FFFFFF;}
	.st3{fill:#E6B35A;}
	.st4{fill:none;}
	.st5{fill:#ADA2BA;}
	.st6{opacity:0.2;}
	.st7{fill:#42285B;}
</style>
<g>
	<polygon class="st0" points="369.5,7.4 728.2,214.5 728.2,636.6 369.5,845 2.8,636.6 2.8,214.5 	"/>
	<linearGradient id="SVGID_1_" gradientUnits="userSpaceOnUse" x1="368.2893" y1="-121.1244" x2="369.5877" y2="342.4008">
		<stop  offset="0" style="stop-color:#FFFFFF;stop-opacity:0.83"/>
		<stop  offset="1" style="stop-color:#FFFFFF;stop-opacity:0"/>
	</linearGradient>
	<path class="st1" d="M622.2,168.9c-21.4-12.8-43.1-24.7-65-36.6c-21.5-11.7-42-24.9-62.5-38.1c-20.3-13.1-40.9-25.4-60.9-38.9
		c-18.9-12.8-39.6-22.2-58.9-34.2c-4.6,2.4-9.7,3.9-14.6,5.7c-6.3,2.3-11.7,5.9-17,9.9c-11.2,8.3-23.5,14.2-36.2,20
		C295.6,61.9,284,67,272.7,72.7c-11.3,5.7-20.4,13.3-30.3,21.1c-10,7.9-21.1,14.2-32,20.6c-10.6,6.3-21.3,12.2-32.4,17.5
		c-21.6,10.3-44.9,19-62.1,36.1c-8,7.9-16,15-25.8,20.6c-4.6,2.6-9.3,4.8-14.2,6.8c46.9,85.7,160,146.2,292,146.2
		c134.4,0,249.1-62.6,294.5-150.7C648.6,184.3,635.3,176.7,622.2,168.9z"/>
	<g>
		<path class="st2" d="M178.8,489.1h11.9v106.6h-11.9V489.1z"/>
		<path class="st2" d="M262.8,558.7c0,26.9-16.8,38.6-32.6,38.6c-17.7,0-31.4-14.4-31.4-37.4c0-24.3,14.3-38.6,32.4-38.6
			C250.1,521.3,262.8,536.5,262.8,558.7z M210.9,559.5c0,15.9,8.2,27.9,19.9,27.9c11.4,0,19.9-11.9,19.9-28.2
			c0-12.3-5.5-27.9-19.6-27.9C217,531.2,210.9,545.7,210.9,559.5z"/>
		<path class="st2" d="M270.2,595.7c0.3-5,0.5-12.3,0.5-18.8v-87.8h11.8v45.6h0.3c4.2-8.1,11.8-13.4,22.3-13.4
			c16.2,0,27.7,15,27.6,37.1c0,26-14.7,38.9-29.3,38.9c-9.5,0-17-4.1-21.9-13.7H281l-0.5,12H270.2z M282.5,566.5
			c0,1.7,0.3,3.3,0.5,4.8c2.3,9.2,9.2,15.5,17.8,15.5c12.4,0,19.9-11.3,19.9-27.9c0-14.6-6.8-27-19.5-27c-8.1,0-15.7,6.2-18.1,16.2
			c-0.3,1.5-0.7,3.3-0.7,5.4V566.5z"/>
	</g>
	<path class="st3" d="M367,633.9c0.3-0.3,0.6-0.6,0.9-0.9h-0.3C367.5,633.3,367.3,633.6,367,633.9z"/>
	<g>
		<path class="st2" d="M365.5,797.3l4.5,4.5c1,1,1.9,1.9,2.7,2.9l0.1,0c-0.4-1.2-0.7-2.5-1-3.8l-1.4-6.3l1.6-0.9l4.7,4.3
			c1.1,1,2.1,2,2.9,2.9l0.1,0c-0.4-1.2-0.8-2.4-1.2-3.9l-1.6-6.1l1.9-1.1l2.7,12.4l-1.7,1l-4.5-4.1c-1-1-2-1.8-2.9-2.9l0,0
			c0.5,1.4,0.8,2.7,1.1,4l1.2,5.9l-1.7,1l-9.2-8.6L365.5,797.3z"/>
		<path class="st2" d="M381.6,787.9l4.5,4.5c1,1,1.9,1.9,2.7,2.9l0.1,0c-0.4-1.2-0.7-2.5-1-3.8l-1.4-6.3l1.6-0.9l4.7,4.3
			c1.1,1,2.1,2,2.9,2.9l0.1,0c-0.4-1.2-0.8-2.4-1.2-3.9l-1.6-6.1l1.9-1.1l2.7,12.4l-1.7,1l-4.5-4.1c-1-1-2-1.8-2.9-2.9l0,0
			c0.5,1.4,0.8,2.7,1.1,4l1.2,5.9l-1.7,1l-9.2-8.6L381.6,787.9z"/>
		<path class="st2" d="M397.8,778.5l4.5,4.5c1,1,1.9,1.9,2.7,2.9l0.1,0c-0.4-1.2-0.7-2.5-1-3.8l-1.4-6.3l1.6-0.9l4.7,4.3
			c1.1,1,2.1,2,2.9,2.9l0.1,0c-0.4-1.2-0.8-2.4-1.2-3.9l-1.6-6.1l1.9-1.1l2.7,12.4l-1.7,1l-4.5-4.1c-1-1-2-1.8-2.9-2.9l0,0
			c0.5,1.4,0.8,2.7,1.1,4l1.2,5.9l-1.7,1l-9.2-8.6L397.8,778.5z"/>
		<path class="st2" d="M417.1,779.7c-0.5-0.8-0.3-1.7,0.5-2.1c0.8-0.4,1.6-0.2,2.1,0.6c0.5,0.8,0.3,1.7-0.5,2.1
			C418.4,780.8,417.5,780.5,417.1,779.7z"/>
		<path class="st2" d="M418.5,770.8c-0.7-1.2-1.4-2.3-2-3.2l1.7-1l1.3,2l0.1-0.1c-0.3-1.7,0.3-3.2,1.6-4c0.2-0.1,0.4-0.2,0.6-0.2
			l1,1.8c-0.2,0.1-0.4,0.2-0.7,0.3c-1.3,0.8-1.7,2.3-1.1,3.9c0.1,0.3,0.2,0.6,0.4,0.9l3.2,5.6l-1.9,1.1L418.5,770.8z"/>
		<path class="st2" d="M428.3,772.1c0.8,0,2-0.2,2.9-0.7c1.4-0.8,1.6-1.9,1.1-2.7c-0.5-0.9-1.4-1.1-3.1-0.8
			c-2.3,0.4-3.8-0.1-4.5-1.4c-1-1.7-0.4-3.9,1.8-5.2c1.1-0.6,2.2-0.9,2.9-0.8l0.3,1.7c-0.6,0-1.5,0.1-2.5,0.6
			c-1.1,0.7-1.4,1.7-0.9,2.4c0.5,0.9,1.4,0.9,3,0.6c2.2-0.4,3.7,0,4.6,1.6c1.1,1.8,0.4,4-2.1,5.4c-1.1,0.7-2.4,1-3.4,1L428.3,772.1z
			"/>
		<path class="st2" d="M432.7,754.1l1.7,3l2.7-1.6l0.8,1.4l-2.7,1.6l3.3,5.6c0.8,1.3,1.6,1.8,2.6,1.2c0.5-0.3,0.8-0.6,1-0.8l0.9,1.4
			c-0.3,0.4-0.8,0.8-1.5,1.2c-0.9,0.5-1.8,0.6-2.5,0.4c-0.9-0.2-1.6-1.1-2.3-2.3l-3.3-5.7l-1.6,0.9l-0.8-1.4l1.6-0.9l-1.5-2.5
			L432.7,754.1z"/>
		<path class="st2" d="M452.5,756.8c0.6,1.1,1.2,2,1.7,2.8l-1.7,1l-1.1-1.6l0,0c0,1.1-0.5,2.9-2.3,4c-1.6,1-4.1,1.2-6.3-2.5
			l-3.6-6.1l1.9-1.1l3.4,5.8c1.2,2,2.5,3,4.3,2c1.3-0.7,1.6-2.1,1.5-3.2c-0.1-0.3-0.2-0.7-0.4-1.1l-3.7-6.4l1.9-1.1L452.5,756.8z"/>
		<path class="st2" d="M457.4,737.2l7.4,12.6c0.5,0.9,1.2,2,1.7,2.6l-1.7,1l-1.1-1.8l0,0c0.1,1.5-0.7,3.1-2.4,4.1
			c-2.5,1.5-5.7,0.5-7.6-2.7c-2-3.5-1.1-6.9,1.4-8.3c1.6-0.9,3.1-0.8,4.1-0.2l0,0l-3.6-6.2L457.4,737.2z M460.8,747.5
			c-0.1-0.2-0.3-0.5-0.6-0.8c-1-1-2.6-1.4-4-0.6c-2,1.1-2.1,3.6-0.8,5.9c1.2,2.1,3.3,3.3,5.3,2.1c1.3-0.7,2-2.3,1.5-3.9
			c-0.1-0.3-0.2-0.6-0.4-0.9L460.8,747.5z"/>
		<path class="st2" d="M463.8,736.1c0.4,0.6,0.2,1.4-0.5,1.9c-0.7,0.4-1.4,0.1-1.8-0.5c-0.4-0.7-0.2-1.5,0.5-1.9
			C462.7,735.2,463.4,735.4,463.8,736.1z M469.5,750.7l-6.1-10.5l1.9-1.1l6.1,10.5L469.5,750.7z"/>
		<path class="st2" d="M480.9,736.9c2.3,3.9,0.6,7.1-2,8.6c-2.8,1.6-6.2,0.8-8.1-2.5c-2-3.5-0.9-6.9,2-8.6
			C475.8,732.7,479.1,733.7,480.9,736.9z M472.7,741.9c1.3,2.3,3.7,3.2,5.5,2.2c1.8-1.1,2.2-3.6,0.8-5.9c-1-1.8-3.2-3.5-5.5-2.2
			C471.3,737.3,471.5,739.9,472.7,741.9z"/>
		<path class="st2" d="M484.8,740.3c-0.5-0.8-0.3-1.7,0.5-2.1c0.8-0.4,1.6-0.2,2.1,0.6c0.5,0.8,0.3,1.7-0.5,2.1
			C486.1,741.4,485.3,741.1,484.8,740.3z"/>
		<path class="st2" d="M497.6,733.8c-0.3,0.5-1.2,1.5-2.7,2.4c-3.2,1.8-6.4,0.9-8.3-2.3c-1.9-3.2-1-6.8,2.4-8.8c1.1-0.7,2.3-1,2.9-1
			l0.4,1.7c-0.6,0-1.5,0.2-2.5,0.8c-2.4,1.4-2.7,3.9-1.4,6.1c1.4,2.4,3.8,3,5.9,1.8c1.1-0.6,1.6-1.3,2-1.9L497.6,733.8z"/>
		<path class="st2" d="M506.3,722.2c2.3,3.9,0.6,7.1-2,8.6c-2.8,1.6-6.2,0.8-8.1-2.5c-2-3.5-0.9-6.9,2-8.6
			C501.1,718,504.4,719,506.3,722.2z M498.1,727.1c1.3,2.3,3.7,3.2,5.5,2.2c1.8-1.1,2.2-3.6,0.8-5.9c-1-1.8-3.2-3.5-5.5-2.2
			C496.7,722.5,496.9,725.1,498.1,727.1z"/>
		<path class="st2" d="M507.3,718.5c-0.6-1.1-1.2-2-1.7-2.8l1.7-1l1.1,1.6l0.1,0c0-1.3,0.4-2.8,2.2-3.8c1.4-0.8,3-0.6,4.2,0.4l0,0
			c0-0.8,0.1-1.5,0.4-2c0.3-0.8,0.9-1.5,1.9-2.1c1.4-0.8,4-1.1,6.1,2.5l3.6,6.2l-1.9,1.1l-3.4-5.9c-1.2-2-2.6-2.8-4.1-1.9
			c-1.1,0.6-1.5,1.9-1.2,3c0.1,0.3,0.2,0.7,0.4,1l3.8,6.5l-1.9,1.1l-3.6-6.3c-1-1.7-2.4-2.4-3.9-1.6c-1.2,0.7-1.5,2.1-1.2,3.3
			c0.1,0.3,0.2,0.7,0.4,1l3.7,6.3l-1.9,1.1L507.3,718.5z"/>
	</g>
	<path class="st4" d="M288.6,508.8c0,0.1,0,0.1,0,0.2c0,0,0,0,0.1,0C288.6,508.9,288.6,508.8,288.6,508.8z"/>
	<path class="st4" d="M365.4,505.6c-0.1,0.1-0.1,0.2-0.2,0.4c0.1,0,0.1,0,0.2-0.1C365.4,505.8,365.4,505.7,365.4,505.6z"/>
	<g>
		<g>
			<path class="st5" d="M390.6,38.3c-7.1-3.2-15.7-6.7-23.6-5.8c-9.4,1.1-19,7.7-27.1,12.3c-9.6,5.4-19.1,10.6-29.2,15
				c-17,7.5-34.9,14.2-49.7,25.6c33.8,18.9,84.2,41.6,84.2,41.6l72.1-61.7c0,0-1.8-6-4.7-15.3C405.4,45.8,398.2,41.7,390.6,38.3z"/>
		</g>
	</g>
	<g>
		<g>
			<path class="st5" d="M434.9,63.4c-6.8-4-13.5-8.1-20.7-11.4c-7.6-3.5-15.7-5.3-23.4-8.5c-6.2-2.6-11.9-6.6-18.3-8.9
				c-6.6-2.4-12.6-0.3-18.9,1.9c-11.8,4.1-23,10.1-33.7,16.7c-31.6,29.1-53.9,59.5-48.6,72.7c6,14.6,117.4,59.5,117.4,59.5
				l79.9-68.4c0,0-5-19.9-12.2-43.6C449.1,70.4,441.7,67.5,434.9,63.4z"/>
			<path class="st5" d="M352.5,26.4c6.3-2.1,12.5-3.8,19.2-2.4c6.6,1.4,12.4,5.4,18.4,8.3c7.8,3.9,16.5,5.7,24.6,9.1
				c7.7,3.3,15.1,7.2,22.3,11.6c5,3,10.3,5.5,15.6,7.8"/>
		</g>
		<g>
			<path class="st5" d="M470.4,116.6l0.3,1.1l-81.5,69.8l-1-0.4c-4.3-1.7-106.4-42.9-117.6-58.9c-0.4-0.5-0.7-1-0.9-1.5
				c-6.9-16.9,26-55.4,59.5-84 M331.5,45.3c-38.5,33-63.7,67.4-58.5,80c0.1,0.3,0.3,0.5,0.5,0.8c8.4,12,78.3,42.4,115,57.2l78.3-67"
				/>
		</g>
	</g>
	<g>
		<g>
			<line class="st5" x1="325.3" y1="160.6" x2="255.2" y2="285"/>
		</g>
		<g>
			<path class="st5" d="M326,161c0,0-3.5,8.3-9,20.5c-2.7,6.1-5.9,13.3-9.4,20.9c-3.5,7.7-7.4,15.7-11.2,23.8c-3.9,8-7,16.5-11,23.9
				c-4.1,7.3-8.8,13.6-13,18.9c-2.1,2.6-4.2,5-6.1,7c-1.9,2-3.7,3.8-5.2,5.2c-3,2.8-5,4.2-5,4.2l-1.5-0.9c0,0,0.2-2.4,1-6.5
				c0.4-2,1-4.4,1.7-7.1c0.7-2.7,1.7-5.7,2.8-8.9c2.3-6.4,5.3-13.7,9.4-21c4.2-7.2,9.9-14.3,14.7-21.8c4.9-7.5,9.7-15,14.5-21.9
				c4.7-7,9.1-13.4,13-18.9c7.6-11.1,12.9-18.3,12.9-18.3L326,161z"/>
		</g>
	</g>
	<g>
		<g>
			<line class="st5" x1="255.2" y1="285" x2="404.5" y2="214.8"/>
		</g>
		<g>
			<path class="st5" d="M255,284.5c0,0,8.3-6.5,21.8-14.3c3.3-2,7-4,10.9-6.1c3.9-2.1,8.1-4.2,12.4-6.3c4.4-2,9-3.9,13.7-5.8
				c4.7-1.9,9.5-3.9,14.2-5.9c19-8,37.9-16.2,52.3-22c14.3-5.9,23.9-9.8,23.9-9.8l0.4,1c0,0-9.1,4.9-22.8,12.2
				c-13.6,7.4-32,16.7-50.3,26.2c-4.6,2.4-9.1,4.8-13.6,7.2c-4.5,2.4-8.9,4.7-13.2,6.8c-4.4,2-8.6,4-12.8,5.6
				c-4.1,1.7-8,3.2-11.7,4.5c-14.6,5.4-24.9,7.7-24.9,7.7L255,284.5z"/>
		</g>
	</g>
	<g>
		<g>
			<g>
				<line class="st5" x1="452.3" y1="108.3" x2="585.8" y2="125.1"/>
			</g>
			<g>
				<path class="st5" d="M538.5,120.3c-3.7-2.5-8.4-4.6-11.4-8.1c-0.6-0.7-0.9-1.4-1.1-2.2c-2-0.1-4-0.1-6.1-0.3
					c-8.4-0.4-16.8-1-24.7-1.2c-7.9-0.4-15.3-0.5-21.6-0.7c-12.7-0.4-21.1-0.4-21.1-0.4l-0.2,1.7c0,0,8.2,2.1,20.6,4.8
					c6.2,1.4,13.4,3.1,21.1,4.7c7.7,1.7,16,3.3,24.3,4.9c8.3,1.6,16.4,4.1,24.3,5.2c3.1,0.4,6.2,0.6,9.1,0.8
					C547.2,126.4,542.9,123.3,538.5,120.3z"/>
			</g>
		</g>
		<g>
			<g>
				<line class="st5" x1="585.8" y1="125.1" x2="452.4" y2="203.9"/>
			</g>
			<g>
				<path class="st5" d="M571.1,131.5c-0.3-0.4-0.6-0.7-0.8-1.1c-2.3,1-4.9,2.1-7.5,3.4c-3.3,1.5-6.9,3.3-10.5,5.2
					c-3.7,1.9-7.6,4-11.5,6.3c-3.9,2.3-7.8,4.9-11.8,7.6c-4,2.6-8,5.3-12.1,8c-16.3,10.6-32.6,21-44.7,29.1
					c-12.1,8-20.2,13.5-20.2,13.5l0.5,0.9c0,0,8.7-4.4,21.5-11.2c12.9-6.7,30-15.9,47-25.1c4.3-2.3,8.6-4.5,12.8-6.7
					c4.3-2.2,8.4-4.4,12.3-6.6c3.9-2.3,7.6-4.6,11.1-7c3.5-2.3,6.7-4.6,9.7-6.7c3-2.2,5.7-4.2,8-6.1
					C573.7,134,572.3,132.9,571.1,131.5z"/>
			</g>
		</g>
	</g>
	<g>
		<g>
			<g>
				<line class="st5" x1="505.2" y1="158.7" x2="605.2" y2="192.1"/>
			</g>
			<g>
				<path class="st5" d="M505.5,157.9c0,0,6.6,1.1,16.3,3c4.9,1,10.6,2.1,16.6,3.5c6.1,1.3,12.5,2.9,18.9,4.4
					c6.4,1.6,13.1,2.3,19,4.1c5.9,1.9,11,4.7,15.3,7.3c2.2,1.3,4.1,2.7,5.8,3.9c1.7,1.3,3.1,2.5,4.3,3.5c2.3,2.1,3.6,3.6,3.6,3.6
					l-0.6,1.7c0,0-1.9,0.4-5,0.7c-1.6,0.2-3.4,0.2-5.6,0.2c-2.1,0-4.5-0.1-7-0.3c-5-0.5-10.8-1.4-16.7-3.4
					c-5.8-2.1-11.6-5.6-17.7-8.1c-6.1-2.7-12.1-5.2-17.8-7.9c-5.7-2.6-10.9-5.1-15.4-7.2c-9-4.3-14.9-7.4-14.9-7.4L505.5,157.9z"/>
			</g>
		</g>
		<g>
			<g>
				<line class="st5" x1="605.2" y1="192.1" x2="490.6" y2="232.2"/>
			</g>
			<g>
				<path class="st5" d="M605.3,192.6c0,0-6.4,4.7-16.7,9.7c-2.6,1.3-5.4,2.6-8.4,3.9c-3,1.3-6.2,2.6-9.5,3.8
					c-3.4,1.1-6.9,2.1-10.5,3.1c-3.6,1-7.3,2-10.9,3.1c-7.3,2.2-14.5,4.4-21.4,6.3c-6.8,2-13.3,3.7-18.7,5.3c-11,3.1-18.3,5-18.3,5
					l-0.3-1c0,0,7-3.1,17.5-7.5c5.2-2.2,11.4-4.9,17.9-7.6c6.6-2.8,13.6-5.6,20.7-8.4c3.5-1.5,7-3,10.4-4.4
					c3.4-1.5,6.8-2.9,10.2-4.1c3.4-1.2,6.6-2.2,9.8-3c3.1-0.9,6.2-1.6,9-2.2c11.2-2.5,19.1-2.8,19.1-2.8L605.3,192.6z"/>
			</g>
		</g>
	</g>
	<g>
		<g>
			<g>
				<line class="st5" x1="516.3" y1="208.7" x2="605.2" y2="265.2"/>
			</g>
			<g>
				<path class="st5" d="M516.7,208c0,0,6.1,2.6,15.1,6.9c4.5,2.1,9.7,4.6,15.3,7.4c5.6,2.7,11.4,5.8,17.3,8.8
					c5.8,3.1,12.2,5.4,17.5,8.6c5.2,3.3,9.6,7.2,13.1,10.8c1.8,1.8,3.3,3.6,4.7,5.2c1.3,1.6,2.5,3.1,3.3,4.5
					c1.8,2.6,2.6,4.3,2.6,4.3l-0.9,1.5c0,0-1.9,0-5-0.5c-1.6-0.2-3.4-0.6-5.4-1.1c-2.1-0.5-4.3-1.2-6.7-2
					c-4.8-1.7-10.2-3.9-15.4-7.3c-5.2-3.4-9.9-8.2-15.2-12.2c-5.2-4-10.5-8-15.3-11.9c-4.9-3.9-9.3-7.6-13.2-10.7
					c-7.7-6.3-12.7-10.8-12.7-10.8L516.7,208z"/>
			</g>
		</g>
		<g>
			<g>
				<line class="st5" x1="605.2" y1="265.2" x2="484.4" y2="276.5"/>
			</g>
			<g>
				<path class="st5" d="M605.3,265.7c0,0-7.3,3.1-18.5,5.4c-2.8,0.6-5.8,1.2-9.1,1.7c-3.2,0.6-6.6,1-10.2,1.3
					c-3.5,0.3-7.2,0.4-11,0.5c-3.7,0.1-7.5,0.2-11.3,0.3c-7.6,0.3-15.2,0.7-22.3,1c-7.1,0.3-13.8,0.4-19.5,0.6
					c-11.4,0.3-19,0.4-19,0.4l-0.1-1c0,0,7.5-1.3,18.8-3.1c5.6-0.9,12.2-2,19.2-3c7-1.1,14.6-2.1,22.1-3.2c3.8-0.6,7.5-1.2,11.2-1.8
					c3.7-0.6,7.3-1.2,10.9-1.6c3.5-0.3,7-0.6,10.2-0.6c3.3-0.1,6.4-0.1,9.2,0c11.4,0.2,19.2,1.9,19.2,1.9L605.3,265.7z"/>
			</g>
		</g>
	</g>
	<g>
		<g>
			<line class="st5" x1="364.6" y1="191.4" x2="268.4" y2="297"/>
		</g>
		<g>
			<path class="st5" d="M365.2,192c0,0-5.2,7.3-13.4,18c-4,5.4-8.7,11.7-13.9,18.3c-5.1,6.7-10.7,13.6-16.3,20.6
				c-5.6,6.9-10.5,14.5-16.1,20.8c-5.6,6.2-11.6,11.3-16.9,15.5c-2.7,2.1-5.2,3.9-7.6,5.5c-2.3,1.6-4.4,2.9-6.2,3.9
				c-3.6,2-5.8,3-5.8,3l-1.3-1.2c0,0,0.8-2.3,2.5-6.1c0.8-1.9,1.9-4.1,3.3-6.5c1.3-2.5,2.9-5.2,4.7-8c3.7-5.7,8.2-12.2,13.9-18.3
				c5.7-6.1,12.8-11.7,19.2-18c6.5-6.2,12.8-12.4,19-18.1c6.1-5.8,11.9-11,16.9-15.5c9.9-9.1,16.7-15,16.7-15L365.2,192z"/>
		</g>
	</g>
	<g>
		<g>
			<line class="st5" x1="268.4" y1="297" x2="429.6" y2="262"/>
		</g>
		<g>
			<path class="st5" d="M268.3,296.5c0,0,9.6-4.5,24.4-9.1c3.7-1.2,7.7-2.4,12-3.5c4.3-1.2,8.8-2.3,13.5-3.3c4.7-1,9.7-1.8,14.7-2.6
				c5-0.8,10.1-1.7,15.2-2.6c20.3-3.6,40.6-7.3,55.9-9.7c15.3-2.5,25.5-4.1,25.5-4.1l0.2,1c0,0-10,2.7-24.9,6.8
				c-14.9,4.1-34.9,9.1-54.9,14.3c-5,1.3-10,2.7-14.9,4c-4.9,1.4-9.7,2.6-14.4,3.7c-4.7,1-9.3,1.9-13.7,2.6
				c-4.4,0.7-8.5,1.3-12.4,1.8c-15.4,2-26,1.9-26,1.9L268.3,296.5z"/>
		</g>
	</g>
	<g>
		<g>
			<g>
				<line class="st5" x1="391.4" y1="243.3" x2="295.2" y2="348.8"/>
			</g>
			<g>
				<path class="st5" d="M392,243.8c0,0-5.2,7.3-13.4,18c-4,5.4-8.7,11.7-13.9,18.3c-5.1,6.7-10.7,13.6-16.3,20.6
					c-5.6,6.9-10.5,14.5-16.1,20.8c-5.6,6.2-11.6,11.3-16.9,15.5c-2.7,2.1-5.2,3.9-7.6,5.5c-2.3,1.6-4.4,2.9-6.2,3.9
					c-3.6,2-5.8,3-5.8,3l-1.3-1.2c0,0,0.8-2.3,2.5-6.1c0.8-1.9,1.9-4.1,3.3-6.5c1.3-2.5,2.9-5.2,4.7-8c3.7-5.7,8.2-12.2,13.9-18.3
					c5.7-6.1,12.8-11.7,19.2-18c6.5-6.2,12.8-12.4,19-18.1c6.1-5.8,11.9-11,16.9-15.5c9.9-9.1,16.7-15,16.7-15L392,243.8z"/>
			</g>
		</g>
		<g>
			<g>
				<line class="st5" x1="295.2" y1="348.8" x2="419.4" y2="321.9"/>
			</g>
			<g>
				<path class="st5" d="M295.1,348.3c0,0,7.3-4,18.6-7.8c2.8-1,5.9-2,9.2-2.9c3.3-1,6.8-1.9,10.4-2.7c3.6-0.7,7.5-1.4,11.3-1.9
					c3.9-0.6,7.8-1.2,11.7-1.8c15.7-2.6,31.3-5.3,43.2-7c11.8-1.8,19.7-2.9,19.7-2.9l0.2,1c0,0-7.6,2.3-19.1,5.5
					c-11.5,3.4-26.8,7.4-42.2,11.5c-3.8,1.1-7.7,2.2-11.4,3.2c-3.8,1.1-7.5,2.1-11.1,3c-3.6,0.8-7.2,1.5-10.6,1.9
					c-3.4,0.5-6.6,0.9-9.6,1.2c-11.9,1.2-20.2,0.6-20.2,0.6L295.1,348.3z"/>
			</g>
		</g>
	</g>
	<g>
		<g>
			<g>
				<line class="st5" x1="406.7" y1="275.3" x2="310.6" y2="380.9"/>
			</g>
			<g>
				<path class="st5" d="M407.4,275.9c0,0-5.2,7.3-13.4,18c-4,5.4-8.7,11.7-13.9,18.3c-5.1,6.7-10.7,13.6-16.3,20.6
					c-5.6,6.9-10.5,14.5-16.1,20.8c-5.6,6.2-11.6,11.3-16.9,15.5c-2.7,2.1-5.2,3.9-7.6,5.5c-2.3,1.6-4.4,2.9-6.2,3.9
					c-3.6,2-5.8,3-5.8,3l-1.3-1.2c0,0,0.8-2.3,2.5-6.1c0.8-1.9,2-4.1,3.3-6.5c1.3-2.5,2.9-5.2,4.7-8c3.7-5.7,8.2-12.2,13.9-18.3
					c5.7-6.1,12.8-11.7,19.2-18c6.5-6.2,12.8-12.4,19-18.1c6.1-5.8,11.9-11,16.9-15.5c9.9-9.1,16.7-15,16.7-15L407.4,275.9z"/>
			</g>
		</g>
		<g>
			<g>
				<line class="st5" x1="313.6" y1="375.4" x2="331.7" y2="433.9"/>
			</g>
			<g>
				<path class="st5" d="M315.3,374.9c0,0,0.8,0.8,2.1,2.1c0.7,0.7,1.4,1.5,2.3,2.5c0.8,1,1.9,2,2.9,3.2c2,2.4,4.4,5.2,6.7,8.2
					c2.4,3,4.6,6.3,6.8,9.7c1.1,1.7,2.5,3.2,4,4.7c1.4,1.5,2.8,3.1,3.4,4.7c0.6,1.7,0.6,3.5,0.4,5.3c-0.3,1.8-0.8,3.6-1.5,5.3
					c-0.7,1.7-1.5,3.3-2.5,4.9c-0.5,0.8-1,1.5-1.4,2.1c-0.5,0.7-1,1.3-1.5,1.9c-0.9,1.2-1.8,2.1-2.5,2.8c-0.7,0.7-1.1,1-1.1,1
					l-3.3,1c0,0-0.5-0.1-1.5-0.3c-1-0.2-2.2-0.5-3.6-0.9c-0.7-0.2-1.5-0.5-2.3-0.7c-0.7-0.3-1.5-0.6-2.4-1c-1.7-0.7-3.3-1.6-4.8-2.6
					c-1.6-1-2.9-2.2-4.2-3.6c-1.2-1.3-2.3-2.8-2.7-4.6c-0.5-1.7-0.2-3.7,0.1-5.8c0.3-2.1,0.7-4.2,0.6-6.2c-0.1-4-0.1-8,0.2-11.8
					c0.2-3.8,0.6-7.4,0.9-10.5c0.1-1.5,0.4-3,0.5-4.3c0.2-1.3,0.3-2.4,0.5-3.3c0.3-1.8,0.5-2.9,0.5-2.9L315.3,374.9z"/>
			</g>
		</g>
		<g>
			<path class="st5" d="M307.3,447.1c-14.5,28.6,1.9,116.4,86,183.8c20.7,1.6,5,8.9-19.7-45.6c-24.7-54.6-2.6-95.6-2.6-95.6
				s0.8,11.4,10.4,12.1c9.6,0.8,16.9,22.2,15.6,38.8c-1.3,16.6,0.5,42.7,6.6,56c6.1,13.3,7.2,21.7,7.2,21.7s7.1-16.8,12.9-90.8
				c5.8-74-27.6-96.9-50-104.1C351.2,416.1,315.2,431.4,307.3,447.1z"/>
		</g>
	</g>
	<g>
		<g>
			<g>
				<line class="st5" x1="548.2" y1="290.6" x2="638.3" y2="197.4"/>
			</g>
			<g>
				<path class="st5" d="M547.6,290c0,0,4.9-6.6,12.5-16.1c3.8-4.8,8.2-10.4,13-16.3c4.8-6,10-12.2,15.2-18.4
					c5.3-6.2,9.8-13,15-18.6c5.3-5.5,10.9-9.9,15.9-13.5c2.5-1.8,4.9-3.3,7.1-4.6c2.2-1.3,4.2-2.4,5.9-3.2c3.4-1.7,5.5-2.4,5.5-2.4
					l1.3,1.2c0,0-0.7,2.2-2.2,5.6c-0.8,1.7-1.8,3.7-3,6c-1.2,2.3-2.7,4.7-4.4,7.3c-3.4,5.2-7.6,11-12.9,16.4
					c-5.4,5.4-12.1,10.2-18.1,15.7c-6.1,5.4-12.1,10.9-17.9,15.8c-5.7,5-11.2,9.6-15.9,13.5c-9.3,7.9-15.7,13-15.7,13L547.6,290z"/>
			</g>
		</g>
		<g>
			<g>
				<line class="st5" x1="637.3" y1="198.2" x2="632.5" y2="259.2"/>
			</g>
			<g>
				<path class="st5" d="M639,198.4c0,0,0.5,1,1.1,2.7c0.4,0.9,0.8,1.9,1.2,3.1c0.4,1.2,1,2.6,1.5,4c1,3,2.2,6.4,3.2,10.1
					c1.1,3.7,2,7.6,2.8,11.5c0.4,1.9,1.2,3.9,2,5.9c0.8,1.9,1.4,3.9,1.4,5.7c0,1.8-0.7,3.5-1.6,5.1c-0.9,1.6-2,3.1-3.3,4.4
					c-1.2,1.3-2.6,2.6-4.1,3.6c-0.8,0.5-1.5,1-2.1,1.5c-0.8,0.4-1.4,0.9-2.1,1.2c-1.3,0.7-2.5,1.3-3.3,1.7c-0.9,0.4-1.4,0.6-1.4,0.6
					l-3.5-0.3c0,0-0.4-0.3-1.3-0.8c-0.8-0.5-1.9-1.3-3-2.2c-0.6-0.5-1.2-1-1.9-1.5c-0.6-0.6-1.2-1.1-1.8-1.8
					c-1.3-1.3-2.5-2.7-3.5-4.2c-1.1-1.5-1.9-3.1-2.6-4.9c-0.6-1.7-1.1-3.5-0.8-5.2c0.2-1.8,1.2-3.6,2.2-5.4c1.1-1.8,2.2-3.6,2.9-5.5
					c1.4-3.7,2.9-7.4,4.5-10.9c1.6-3.5,3.3-6.7,4.7-9.5c0.7-1.4,1.5-2.6,2.1-3.8c0.6-1.1,1.2-2.1,1.7-2.9c1-1.6,1.6-2.5,1.6-2.5
					L639,198.4z"/>
			</g>
		</g>
		<g>
			<path class="st5" d="M659.2,266.7c20.4,24.7,23.7,113.9-43.5,198.2c-19.9,6.1-2.9,9.8,9.2-48.8c12.1-58.6-18.5-93.9-18.5-93.9
				s1.7,11.3-7.5,14.1c-9.2,2.8-11.6,25.4-6.7,41.3c4.9,15.9,8.9,41.8,5.9,56.1c-3,14.3-2.2,22.7-2.2,22.7s-10.7-14.8-32.6-85.7
				c-21.9-70.9,5.6-100.6,25.9-112.6C609.6,246.2,648,253.2,659.2,266.7z"/>
		</g>
	</g>
	<path class="st5" d="M522.2,396.5c0.3,0.4,2.8,4.3,6.4,10.9c8.2-4.6,14.9-11.1,18.4-20c27.5-71.3-2.7-249.7-49.3-305.4
		c-46.6-55.8-194,54.2-191.5,73c2.5,18.7,141.5,245,155,255.3c6.7,5.1,24.6,7.8,42.6,5.2c-3.2-9.8-5.6-15.5-5.7-15.6
		c-1.2-2.6,0.1-5.7,2.7-6.9c2.7-1.2,5.7,0,6.9,2.7c0.3,0.6,3,6.9,6.4,17.6c1.6-0.5,3.2-1,4.8-1.5c-3.3-6-5.5-9.4-5.6-9.5
		c-1.6-2.4-0.9-5.7,1.5-7.3C517.3,393.4,520.6,394.1,522.2,396.5z M491.3,404.7c-5.8,4.9-14.5,4.3-19.4-1.5
		c-4.9-5.8-4.3-14.5,1.5-19.4c5.8-4.9,14.5-4.3,19.4,1.5C497.8,391.1,497.1,399.8,491.3,404.7z M524.8,381.7
		c4.4-3.8,11.1-3.3,14.9,1.1c3.8,4.4,3.3,11.1-1.2,14.9c-4.4,3.8-11.1,3.3-14.9-1.2C519.8,392.2,520.4,385.5,524.8,381.7z"/>
	<g>
		<path class="st5" d="M447.8,395.9c-37-53.1-141.1-224.1-143.3-240.7c-1.7-12.5,50.1-54.9,98.8-76.3c31.4-13.8,73.6-24.7,95.8,1.9
			c1.8,2.1,3.6,4.5,5.4,7c45.3,64.9,70.1,233.2,44.2,300.1c-6.2,16.1-21.7,23.5-33.6,26.8c-21.8,6.2-46.4,3.3-54.9-3.2
			C459.4,411.1,457.2,409.4,447.8,395.9z M501.5,89.9c-1.7-2.5-3.5-4.7-5.2-6.8c-20.9-25-61.4-14.3-91.7-1
			c-51.9,22.8-97.9,63.7-96.7,72.6c2.1,15.9,106.8,187.7,142.7,239.2c7.9,11.4,10.7,14.2,11.6,14.9c7.8,5.9,31.6,8.3,51.8,2.6
			c11.1-3.1,25.6-10,31.3-24.7C570.9,320.6,546.4,154.1,501.5,89.9z"/>
	</g>
	<g>
		<g class="st6">
			<path d="M558.8,477c-0.7-0.3-1.3-0.7-1.8-1.3c-0.4-0.4-0.7-0.9-0.8-1.5c-8.9-25.7-20.3-46-28-58.3l43.6,144.1
				C572.6,529.3,566.8,501,558.8,477z"/>
			<path d="M530.8,480.3c-0.4-0.3-0.8-0.6-1.1-0.9c-0.5-0.6-0.9-1.4-1.1-2.3c-4.5-26.3-12-47.9-17.5-61.2l18.6,149.4
				C535.8,534.9,534.8,505.6,530.8,480.3z"/>
		</g>
		<g>
			<g>
				<path class="st5" d="M554.8,473c-0.7-0.3-1.3-0.7-1.8-1.3c-0.4-0.4-0.7-0.9-0.8-1.5c-8.9-25.7-20.3-46-28-58.3l43.6,144.1
					C568.6,525.3,562.8,497,554.8,473z"/>
			</g>
			<g>
				<path class="st5" d="M526.8,476.3c-0.4-0.3-0.8-0.6-1.1-0.9c-0.5-0.6-0.9-1.4-1.1-2.3c-4.5-26.3-12-47.9-17.5-61.2l18.6,149.4
					C531.8,530.9,530.8,501.6,526.8,476.3z"/>
			</g>
		</g>
	</g>
	<polygon class="st4" points="369.5,7.4 728.2,214.5 728.2,636.6 369.5,845 2.8,636.6 2.8,214.5 	"/>
	<g>
		<path class="st2" d="M403.6,563.5c-5-7.2-2.6-11.4-1.4-14.2c4.2-10.2,20-17,39.7-8.9c8.5,3.5,21.4,12.4,17.5,21.7
			c-1.7,4.1-6.8,6.8-12.1,4.7c-5.6-2.3-8.3-6.1-7.4-11.2c0.2-1.1,2.6-4.7,3.6-6c1.4-1.7-4.9-5.1-6.5-5.7c-4.4-1.8-12.5-4.1-14.5,0.8
			c-1.2,3-0.3,4.5,1.7,7l14.4,20.1c4.9,6.8,7.9,13.8,4.8,21.3c-6.5,16-25.6,17.5-42.5,10.7c-10.6-4.3-27.2-14.7-22.3-26.6
			c2.3-5.6,8.8-7.7,15.4-5c5.6,2.3,8.3,8,6.3,12.7c-1.1,2.8-5,5.1-5.8,7c-1.2,3,6.4,6.4,9.3,7.6c5.8,2.4,15.9,5.3,18.6-1.4
			c1.5-3.6-0.3-7.6-2.7-11.1L403.6,563.5z"/>
		<path class="st2" d="M488.9,548.6l14.4-19.8c8.2,3.1,16.4,6.2,24.7,9.2l-14.3,20.8l13.5,5.5l-3.2,5l-13.9-5.7l-36.8,50.9
			c-4.2,5.8-3.2,7.7-0.6,8.8c8.1,3.3,22.5-7.1,26.3-14.1l3.8,2.9c-9.7,15-25,20.9-42,14c-7.9-3.2-15.8-11.2-12-20.4
			c0.9-2.3,4.7-7.6,8.4-12.8l28-39.3l-11.6-4.7l3.4-4.9L488.9,548.6z"/>
		<path class="st2" d="M553,606.1l0.3,0.5c7.9-3.9,21-12.3,31.7-8c7.2,2.9,9.5,8.3,7.1,14.2c-2.4,5.9-7.7,8.4-14.9,5.4
			c-4.1-1.7-5.5-4.3-6.3-6.6c-0.8-2.4-0.9-4.4-2.8-5.2c-3.3-1.3-11.3,3.3-13.4,4.7c-7.4,4.8-10.3,7.5-15.8,14.5L520,649.2
			l-24.8-10.1l41.1-53.8l-13.9-5.7l3.2-4.1l19.9,8.1c6.6,2.7,13.4,4.7,20,7.4L553,606.1z"/>
	</g>
	<path class="st7" d="M705.6,196.2L427.8,35.8L367.5,1l-60.3,34.8L29.4,196.2L0.1,213.1v424.3l29.3,16.9l281.3,162.4l56.9,32.8
		l56.9-32.8l281.3-162.4l29.3-16.9V213.1L705.6,196.2z M705.6,621.5L367.5,816.7L29.4,621.5V231L367.5,35.8h0L705.6,231V621.5z"/>
</g>
<title>lobstr</title>
</svg>
