<?xml version="1.0" encoding="utf-8"?>
<!-- Generator: Adobe Illustrator 26.5.0, SVG Export Plug-In . SVG Version: 6.00 Build 0)  -->
<svg version="1.1" id="Layer_1" xmlns="http://www.w3.org/2000/svg" xmlns:xlink="http://www.w3.org/1999/xlink" x="0px" y="0px"
	 viewBox="0 0 2521 2911" style="enable-background:new 0 0 2521 2911;" xml:space="preserve">
<style type="text/css">
	.st0{fill:#54346F;}
	.st1{opacity:0.25;fill:url(#SVGID_1_);enable-background:new    ;}
	.st2{fill:#FFFFFF;}
	.st3{fill:#E6B35A;}
	.st4{fill:none;}
	.st5{fill:#ADA2BA;}
	.st6{opacity:0.2;}
	.st7{fill:#42285B;}
</style>
<g>
	<polygon class="st0" points="100.5,789.1 100.5,2128.8 1260.2,2798.5 2419.8,2128.8 2419.8,789.1 1260.2,119.4 	"/>
	
		<linearGradient id="SVGID_1_" gradientUnits="userSpaceOnUse" x1="1262.7965" y1="1270.9794" x2="1267.251" y2="-319.2643" gradientTransform="matrix(1 0 0 -1 0 852)">
		<stop  offset="0" style="stop-color:#FFFFFF;stop-opacity:0.83"/>
		<stop  offset="1" style="stop-color:#FFFFFF;stop-opacity:0"/>
	</linearGradient>
	<path class="st1" d="M2133.8,576c-73.4-43.9-147.8-84.7-222.9-125.6c-73.7-40.1-144.1-85.4-214.4-130.7
		c-69.6-44.9-140.3-87.1-208.9-133.5c-64.8-43.9-135.8-76.2-202-117.3c-15.8,8.2-33.3,13.4-50.1,19.6c-21.6,7.9-40.1,20.2-58.3,34
		c-38.4,28.5-80.6,48.7-124.2,68.6c-39.4,17.8-79.2,35.3-118,54.9c-38.8,19.6-70,45.6-103.9,72.4c-34.3,27.1-72.4,48.7-109.8,70.7
		c-36.4,21.6-73.1,41.9-111.1,60c-74.1,35.3-154,65.2-213,123.9c-27.4,27.1-54.9,51.5-88.5,70.7c-15.8,8.9-31.9,16.5-48.7,23.3
		c160.9,294,548.8,501.6,1001.5,501.6c461,0,854.4-214.8,1010.1-517C2224.3,628.9,2178.7,602.8,2133.8,576z"/>
	<g>
		<path class="st2" d="M612.9,1674.6h40.8v365.7h-40.8V1674.6z"/>
		<path class="st2" d="M901,1913.3c0,92.3-57.6,132.4-111.8,132.4c-60.7,0-107.7-49.4-107.7-128.3c0-83.4,49-132.4,111.1-132.4
			C857.5,1785,901,1837.2,901,1913.3z M723,1916.1c0,54.5,28.1,95.7,68.3,95.7c39.1,0,68.3-40.8,68.3-96.7
			c0-42.2-18.9-95.7-67.2-95.7C744,1819,723,1868.7,723,1916.1z"/>
		<path class="st2" d="M926.4,2040.3c1-17.2,1.7-42.2,1.7-64.5v-301.2h40.5V1831h1c14.4-27.8,40.5-46,76.5-46
			c55.6,0,95,51.5,94.7,127.3c0,89.2-50.4,133.5-100.5,133.5c-32.6,0-58.3-14.1-75.1-47h-1.7l-1.7,41.2h-35.3V2040.3z M968.6,1940.1
			c0,5.8,1,11.3,1.7,16.5c7.9,31.6,31.6,53.2,61.1,53.2c42.5,0,68.3-38.8,68.3-95.7c0-50.1-23.3-92.6-66.9-92.6
			c-27.8,0-53.8,21.3-62.1,55.6c-1,5.1-2.4,11.3-2.4,18.5v44.6H968.6z"/>
	</g>
	<path class="st3" d="M1258.4,2171.3c1-1,2.1-2.1,3.1-3.1h-1C1260.2,2169.3,1259.5,2170.3,1258.4,2171.3z"/>
	<path class="st4" d="M989.5,1742.1c0,0.3,0,0.3,0,0.7c0,0,0,0,0.3,0C989.5,1742.5,989.5,1742.1,989.5,1742.1z"/>
	<path class="st4" d="M1253,1731.2c-0.3,0.3-0.3,0.7-0.7,1.4c0.3,0,0.3,0,0.7-0.3C1253,1731.8,1253,1731.5,1253,1731.2z"/>
	<g>
		<g>
			<path class="st5" d="M1339.4,128c-24.4-11-53.8-23-80.9-19.9c-32.2,3.8-65.2,26.4-93,42.2c-32.9,18.5-65.5,36.4-100.2,51.5
				c-58.3,25.7-119.7,48.7-170.5,87.8c115.9,64.8,288.8,142.7,288.8,142.7L1431,220.6c0,0-6.2-20.6-16.1-52.5
				C1390.2,153.7,1365.5,139.6,1339.4,128z"/>
		</g>
	</g>
	<g>
		<g>
			<path class="st5" d="M1491.3,214.1c-23.3-13.7-46.3-27.8-71-39.1c-26.1-12-53.8-18.2-80.3-29.2c-21.3-8.9-40.8-22.6-62.8-30.5
				c-22.6-8.2-43.2-1-64.8,6.5c-40.5,14.1-78.9,34.7-115.6,57.3C988.5,278.9,912,383.2,930.2,428.5
				c20.6,50.1,402.7,204.1,402.7,204.1L1606.9,398c0,0-17.1-68.3-41.8-149.6C1540,238.1,1514.7,228.1,1491.3,214.1z"/>
			<path class="st5" d="M1208.7,87.1c21.6-7.2,42.9-13,65.9-8.2c22.6,4.8,42.5,18.5,63.1,28.5c26.8,13.4,56.6,19.6,84.4,31.2
				c26.4,11.3,51.8,24.7,76.5,39.8c17.1,10.3,35.3,18.9,53.5,26.8"/>
		</g>
		<g>
			<path class="st5" d="M1613.1,396.6l1,3.8l-279.5,239.5l-3.4-1.4c-14.7-5.8-364.9-147.2-403.4-202.1c-1.4-1.7-2.4-3.4-3.1-5.1
				c-23.7-58,89.2-190.1,204.1-288.2 M1136.7,152C1004.6,265.2,918.2,383.2,936,426.4c0.3,1,1,1.7,1.7,2.7
				c28.8,41.2,268.6,145.5,394.4,196.2l268.6-229.9"/>
		</g>
	</g>
	<g>
		<g>
			<line class="st4" x1="1115.4" y1="547.5" x2="875" y2="974.3"/>
		</g>
		<g>
			<path class="st5" d="M1117.8,548.9c0,0-12,28.5-30.9,70.3c-9.3,20.9-20.2,45.6-32.2,71.7c-12,26.4-25.4,53.9-38.4,81.7
				c-13.4,27.4-24,56.6-37.7,82c-14.1,25-30.2,46.7-44.6,64.8c-7.2,8.9-14.4,17.2-20.9,24s-12.7,13-17.8,17.8
				c-10.3,9.6-17.1,14.4-17.1,14.4l-5.1-3.1c0,0,0.7-8.2,3.4-22.3c1.4-6.9,3.4-15.1,5.8-24.4c2.4-9.3,5.8-19.6,9.6-30.5
				c7.9-22,18.2-47,32.2-72c14.4-24.7,34-49.1,50.4-74.8c16.8-25.7,33.3-51.5,49.7-75.1c16.1-24,31.2-46,44.6-64.8
				c26.1-38.1,44.2-62.8,44.2-62.8L1117.8,548.9z"/>
		</g>
	</g>
	<g>
		<g>
			<line class="st4" x1="875" y1="974.3" x2="1387.1" y2="733.5"/>
		</g>
		<g>
			<path class="st5" d="M874.3,972.6c0,0,28.5-22.3,74.8-49.1c11.3-6.9,24-13.7,37.4-20.9c13.4-7.2,27.8-14.4,42.5-21.6
				c15.1-6.9,30.9-13.4,47-19.9c16.1-6.5,32.6-13.4,48.7-20.2c65.2-27.4,130-55.6,179.4-75.5c49-20.2,82-33.6,82-33.6l1.4,3.4
				c0,0-31.2,16.8-78.2,41.9c-46.6,25.4-109.8,57.3-172.5,89.9c-15.8,8.2-31.2,16.5-46.6,24.7c-15.4,8.2-30.5,16.1-45.3,23.3
				c-15.1,6.9-29.5,13.7-43.9,19.2c-14.1,5.8-27.4,11-40.1,15.4c-50.1,18.5-85.4,26.4-85.4,26.4L874.3,972.6z"/>
		</g>
	</g>
	<g>
		<g>
			<g>
				<line class="st4" x1="1551" y1="368.1" x2="2008.9" y2="425.8"/>
			</g>
			<g>
				<path class="st5" d="M1846.7,409.3c-12.7-8.6-28.8-15.8-39.1-27.8c-2.1-2.4-3.1-4.8-3.8-7.5c-6.9-0.3-13.7-0.3-20.9-1
					c-28.8-1.4-57.6-3.4-84.7-4.1c-27.1-1.4-52.5-1.7-74.1-2.4c-43.6-1.4-72.4-1.4-72.4-1.4l-0.7,5.8c0,0,28.1,7.2,70.7,16.5
					c21.3,4.8,46,10.6,72.4,16.1c26.4,5.8,54.9,11.3,83.3,16.8c28.5,5.5,56.3,14.1,83.3,17.8c10.6,1.4,21.3,2.1,31.2,2.7
					C1876.5,430.2,1861.8,419.6,1846.7,409.3z"/>
			</g>
		</g>
		<g>
			<g>
				<line class="st4" x1="2008.9" y1="425.8" x2="1551.4" y2="696.1"/>
			</g>
			<g>
				<path class="st5" d="M1958.5,447.7c-1-1.4-2.1-2.4-2.7-3.8c-7.9,3.4-16.8,7.2-25.7,11.7c-11.3,5.1-23.7,11.3-36,17.8
					c-12.7,6.5-26.1,13.7-39.4,21.6c-13.4,7.9-26.8,16.8-40.5,26.1c-13.7,8.9-27.4,18.2-41.5,27.4c-55.9,36.4-111.8,72-153.3,99.8
					c-41.5,27.4-69.3,46.3-69.3,46.3l1.7,3.1c0,0,29.8-15.1,73.7-38.4c44.2-23,102.9-54.5,161.2-86.1c14.7-7.9,29.5-15.4,43.9-23
					c14.7-7.5,28.8-15.1,42.2-22.6c13.4-7.9,26.1-15.8,38.1-24c12-7.9,23-15.8,33.3-23c10.3-7.5,19.6-14.4,27.4-20.9
					C1967.4,456.3,1962.6,452.5,1958.5,447.7z"/>
			</g>
		</g>
	</g>
	<g>
		<g>
			<g>
				<line class="st4" x1="1732.5" y1="541" x2="2075.5" y2="655.6"/>
			</g>
			<g>
				<path class="st5" d="M1733.5,538.3c0,0,22.6,3.8,55.9,10.3c16.8,3.4,36.4,7.2,56.9,12c20.9,4.5,42.9,9.9,64.8,15.1
					c22,5.5,44.9,7.9,65.2,14.1c20.2,6.5,37.7,16.1,52.5,25c7.5,4.5,14.1,9.3,19.9,13.4c5.8,4.5,10.6,8.6,14.7,12
					c7.9,7.2,12.3,12.4,12.3,12.4l-2.1,5.8c0,0-6.5,1.4-17.1,2.4c-5.5,0.7-11.7,0.7-19.2,0.7c-7.2,0-15.4-0.3-24-1
					c-17.1-1.7-37-4.8-57.3-11.7c-19.9-7.2-39.8-19.2-60.7-27.8c-20.9-9.3-41.5-17.8-61.1-27.1c-19.6-8.9-37.4-17.5-52.8-24.7
					c-30.9-14.8-51.1-25.4-51.1-25.4L1733.5,538.3z"/>
			</g>
		</g>
		<g>
			<g>
				<line class="st4" x1="2075.5" y1="655.6" x2="1682.4" y2="793.2"/>
			</g>
			<g>
				<path class="st5" d="M2075.8,657.3c0,0-22,16.1-57.3,33.3c-8.9,4.5-18.5,8.9-28.8,13.4s-21.3,8.9-32.6,13
					c-11.7,3.8-23.7,7.2-36,10.6c-12.3,3.4-25,6.9-37.4,10.6c-25,7.5-49.7,15.1-73.4,21.6c-23.3,6.9-45.6,12.7-64.1,18.2
					c-37.7,10.6-62.8,17.2-62.8,17.2l-1-3.4c0,0,24-10.6,60-25.7c17.8-7.5,39.1-16.8,61.4-26.1c22.6-9.6,46.6-19.2,71-28.8
					c12-5.1,24-10.3,35.7-15.1c11.7-5.1,23.3-9.9,35-14.1s22.6-7.5,33.6-10.3c10.6-3.1,21.3-5.5,30.9-7.5
					c38.4-8.6,65.5-9.6,65.5-9.6L2075.8,657.3z"/>
			</g>
		</g>
	</g>
	<g>
		<g>
			<g>
				<line class="st4" x1="1770.5" y1="712.6" x2="2075.5" y2="906.4"/>
			</g>
			<g>
				<path class="st5" d="M1771.9,710.2c0,0,20.9,8.9,51.8,23.7c15.4,7.2,33.3,15.8,52.5,25.4c19.2,9.3,39.1,19.9,59.3,30.2
					c19.9,10.6,41.8,18.5,60,29.5c17.8,11.3,32.9,24.7,44.9,37.1c6.2,6.2,11.3,12.4,16.1,17.8c4.5,5.5,8.6,10.6,11.3,15.4
					c6.2,8.9,8.9,14.8,8.9,14.8l-3.1,5.1c0,0-6.5,0-17.1-1.7c-5.5-0.7-11.7-2.1-18.5-3.8c-7.2-1.7-14.7-4.1-23-6.9
					c-16.5-5.8-35-13.4-52.8-25c-17.8-11.7-34-28.1-52.1-41.9c-17.8-13.7-36-27.4-52.5-40.8c-16.8-13.4-31.9-26.1-45.3-36.7
					c-26.4-21.6-43.6-37.1-43.6-37.1L1771.9,710.2z"/>
			</g>
		</g>
		<g>
			<g>
				<line class="st4" x1="2075.5" y1="906.4" x2="1661.1" y2="945.2"/>
			</g>
			<g>
				<path class="st5" d="M2075.8,908.1c0,0-25,10.6-63.5,18.5c-9.6,2.1-19.9,4.1-31.2,5.8c-11,2.1-22.6,3.4-35,4.5
					c-12,1-24.7,1.4-37.7,1.7c-12.7,0.3-25.7,0.7-38.8,1c-26.1,1-52.1,2.4-76.5,3.4c-24.4,1-47.3,1.4-66.9,2.1
					c-39.1,1-65.2,1.4-65.2,1.4l-0.3-3.4c0,0,25.7-4.5,64.5-10.6c19.2-3.1,41.8-6.9,65.9-10.3c24-3.8,50.1-7.2,75.8-11
					c13-2.1,25.7-4.1,38.4-6.2c12.7-2.1,25-4.1,37.4-5.5c12-1,24-2.1,35-2.1c11.3-0.3,22-0.3,31.6,0c39.1,0.7,65.9,6.5,65.9,6.5
					L2075.8,908.1z"/>
			</g>
		</g>
	</g>
	<g>
		<g>
			<line class="st4" x1="1250.2" y1="653.2" x2="920.3" y2="1015.5"/>
		</g>
		<g>
			<path class="st5" d="M1252.3,655.3c0,0-17.8,25-46,61.8c-13.7,18.5-29.8,40.1-47.7,62.8c-17.5,23-36.7,46.7-55.9,70.7
				c-19.2,23.7-36,49.7-55.2,71.4c-19.2,21.3-39.8,38.8-58,53.2c-9.3,7.2-17.8,13.4-26.1,18.9c-7.9,5.5-15.1,9.9-21.3,13.4
				c-12.3,6.9-19.9,10.3-19.9,10.3l-4.5-4.1c0,0,2.7-7.9,8.6-20.9c2.7-6.5,6.5-14.1,11.3-22.3c4.5-8.6,9.9-17.8,16.1-27.4
				c12.7-19.6,28.1-41.9,47.7-62.8c19.6-20.9,43.9-40.1,65.9-61.8c22.3-21.3,43.9-42.5,65.2-62.1c20.9-19.9,40.8-37.7,58-53.2
				c34-31.2,57.3-51.5,57.3-51.5L1252.3,655.3z"/>
		</g>
	</g>
	<g>
		<g>
			<line class="st4" x1="920.3" y1="1015.5" x2="1473.2" y2="895.4"/>
		</g>
		<g>
			<path class="st5" d="M919.9,1013.8c0,0,32.9-15.4,83.7-31.2c12.7-4.1,26.4-8.2,41.2-12c14.7-4.1,30.2-7.9,46.3-11.3
				c16.1-3.4,33.3-6.2,50.4-8.9c17.1-2.7,34.6-5.8,52.1-8.9c69.6-12.4,139.3-25,191.7-33.3c52.5-8.6,87.5-14.1,87.5-14.1l0.7,3.4
				c0,0-34.3,9.3-85.4,23.3c-51.1,14.1-119.7,31.2-188.3,49.1c-17.1,4.5-34.3,9.3-51.1,13.7c-16.8,4.8-33.3,8.9-49.4,12.7
				c-16.1,3.4-31.9,6.5-47,8.9c-15.1,2.4-29.2,4.5-42.5,6.2c-52.8,6.9-89.2,6.5-89.2,6.5L919.9,1013.8z"/>
		</g>
	</g>
	<g>
		<g>
			<g>
				<line class="st4" x1="1342.1" y1="831.3" x2="1012.2" y2="1193.2"/>
			</g>
			<g>
				<path class="st5" d="M1344.2,833c0,0-17.8,25-46,61.8c-13.7,18.5-29.8,40.1-47.7,62.8c-17.5,23-36.7,46.7-55.9,70.7
					c-19.2,23.7-36,49.7-55.2,71.4c-19.2,21.3-39.8,38.8-58,53.2c-9.3,7.2-17.8,13.4-26.1,18.9c-7.9,5.5-15.1,9.9-21.3,13.4
					c-12.3,6.9-19.9,10.3-19.9,10.3l-4.5-4.1c0,0,2.7-7.9,8.6-20.9c2.7-6.5,6.5-14.1,11.3-22.3c4.5-8.6,9.9-17.8,16.1-27.4
					c12.7-19.6,28.1-41.9,47.7-62.8c19.6-20.9,43.9-40.1,65.9-61.8c22.3-21.3,43.9-42.5,65.2-62.1c20.9-19.9,40.8-37.7,58-53.2
					c34-31.2,57.3-51.5,57.3-51.5L1344.2,833z"/>
			</g>
		</g>
		<g>
			<g>
				<line class="st4" x1="1012.2" y1="1193.2" x2="1438.2" y2="1100.9"/>
			</g>
			<g>
				<path class="st5" d="M1011.8,1191.5c0,0,25-13.7,63.8-26.8c9.6-3.4,20.2-6.9,31.6-9.9c11.3-3.4,23.3-6.5,35.7-9.3
					c12.3-2.4,25.7-4.8,38.8-6.5c13.4-2.1,26.8-4.1,40.1-6.2c53.8-8.9,107.4-18.2,148.2-24c40.5-6.2,67.6-9.9,67.6-9.9l0.7,3.4
					c0,0-26.1,7.9-65.5,18.9c-39.4,11.7-91.9,25.4-144.7,39.5c-13,3.8-26.4,7.5-39.1,11c-13,3.8-25.7,7.2-38.1,10.3
					c-12.3,2.7-24.7,5.1-36.4,6.5c-11.7,1.7-22.6,3.1-32.9,4.1c-40.8,4.1-69.3,2.1-69.3,2.1L1011.8,1191.5z"/>
			</g>
		</g>
	</g>
	<g>
		<g>
			<g>
				<line class="st4" x1="1394.6" y1="941.1" x2="1065" y2="1303.3"/>
			</g>
			<g>
				<path class="st5" d="M1397,943.1c0,0-17.8,25-46,61.8c-13.7,18.5-29.8,40.1-47.7,62.8c-17.5,23-36.7,46.7-55.9,70.7
					c-19.2,23.7-36,49.7-55.2,71.4c-19.2,21.3-39.8,38.8-58,53.2c-9.3,7.2-17.8,13.4-26.1,18.9c-7.9,5.5-15.1,9.9-21.3,13.4
					c-12.3,6.9-19.9,10.3-19.9,10.3l-4.5-4.1c0,0,2.7-7.9,8.6-20.9c2.7-6.5,6.9-14.1,11.3-22.3c4.5-8.6,9.9-17.8,16.1-27.4
					c12.7-19.6,28.1-41.9,47.7-62.8c19.6-20.9,43.9-40.1,65.9-61.8c22.3-21.3,43.9-42.5,65.2-62.1c20.9-19.9,40.8-37.7,58-53.2
					c34-31.2,57.3-51.5,57.3-51.5L1397,943.1z"/>
			</g>
		</g>
		<g>
			<g>
				<line class="st4" x1="1075.3" y1="1284.5" x2="1137.4" y2="1485.2"/>
			</g>
			<g>
				<path class="st5" d="M1081.1,1282.8c0,0,2.7,2.7,7.2,7.2c2.4,2.4,4.8,5.1,7.9,8.6c2.7,3.4,6.5,6.9,9.9,11
					c6.9,8.2,15.1,17.8,23,28.1c8.2,10.3,15.8,21.6,23.3,33.3c3.8,5.8,8.6,11,13.7,16.1c4.8,5.1,9.6,10.6,11.7,16.1
					c2.1,5.8,2.1,12,1.4,18.2c-1,6.2-2.7,12.4-5.1,18.2s-5.1,11.3-8.6,16.8c-1.7,2.7-3.4,5.1-4.8,7.2c-1.7,2.4-3.4,4.5-5.1,6.5
					c-3.1,4.1-6.2,7.2-8.6,9.6c-2.4,2.4-3.8,3.4-3.8,3.4l-11.3,3.4c0,0-1.7-0.3-5.1-1c-3.4-0.7-7.5-1.7-12.3-3.1
					c-2.4-0.7-5.1-1.7-7.9-2.4c-2.4-1-5.1-2.1-8.2-3.4c-5.8-2.4-11.3-5.5-16.5-8.9c-5.5-3.4-9.9-7.5-14.4-12.4
					c-4.1-4.5-7.9-9.6-9.3-15.8c-1.7-5.8-0.7-12.7,0.3-19.9c1-7.2,2.4-14.4,2.1-21.3c-0.3-13.7-0.3-27.4,0.7-40.5
					c0.7-13,2.1-25.4,3.1-36c0.3-5.1,1.4-10.3,1.7-14.8c0.7-4.5,1-8.2,1.7-11.3c1-6.2,1.7-9.9,1.7-9.9L1081.1,1282.8z"/>
			</g>
		</g>
		<g>
			<path class="st5" d="M1053.7,1530.5c-49.7,98.1,6.5,399.3,295,630.6c71,5.5,17.1,30.5-67.6-156.4c-84.7-187.3-8.9-328-8.9-328
				s2.7,39.1,35.7,41.5c32.9,2.7,58,76.2,53.5,133.1s1.7,146.5,22.6,192.1s24.7,74.4,24.7,74.4s24.4-57.6,44.2-311.5
				s-94.7-332.4-171.5-357.1C1204.2,1424.1,1080.8,1476.6,1053.7,1530.5z"/>
		</g>
	</g>
	<g>
		<g>
			<g>
				<line class="st4" x1="1879.9" y1="993.5" x2="2189" y2="673.8"/>
			</g>
			<g>
				<path class="st5" d="M1877.9,991.5c0,0,16.8-22.6,42.9-55.2c13-16.5,28.1-35.7,44.6-55.9c16.5-20.6,34.3-41.9,52.1-63.1
					c18.2-21.3,33.6-44.6,51.4-63.8c18.2-18.9,37.4-34,54.5-46.3c8.6-6.2,16.8-11.3,24.4-15.8c7.5-4.5,14.4-8.2,20.2-11
					c11.7-5.8,18.9-8.2,18.9-8.2l4.5,4.1c0,0-2.4,7.5-7.5,19.2c-2.7,5.8-6.2,12.7-10.3,20.6s-9.3,16.1-15.1,25
					c-11.7,17.8-26.1,37.7-44.2,56.3c-18.5,18.5-41.5,35-62.1,53.9c-20.9,18.5-41.5,37.4-61.4,54.2c-19.6,17.2-38.4,32.9-54.5,46.3
					c-31.9,27.1-53.8,44.6-53.8,44.6L1877.9,991.5z"/>
			</g>
		</g>
		<g>
			<g>
				<line class="st4" x1="2185.6" y1="676.5" x2="2169.1" y2="885.8"/>
			</g>
			<g>
				<path class="st5" d="M2191.4,677.2c0,0,1.7,3.4,3.8,9.3c1.4,3.1,2.7,6.5,4.1,10.6c1.4,4.1,3.4,8.9,5.1,13.7
					c3.4,10.3,7.5,22,11,34.7c3.8,12.7,6.9,26.1,9.6,39.5c1.4,6.5,4.1,13.4,6.9,20.2c2.7,6.5,4.8,13.4,4.8,19.6
					c0,6.2-2.4,12-5.5,17.5c-3.1,5.5-6.9,10.6-11.3,15.1c-4.1,4.5-8.9,8.9-14.1,12.4c-2.7,1.7-5.1,3.4-7.2,5.1
					c-2.7,1.4-4.8,3.1-7.2,4.1c-4.5,2.4-8.6,4.5-11.3,5.8c-3.1,1.4-4.8,2.1-4.8,2.1l-12-1c0,0-1.4-1-4.5-2.7
					c-2.7-1.7-6.5-4.5-10.3-7.5c-2.1-1.7-4.1-3.4-6.5-5.1c-2.1-2.1-4.1-3.8-6.2-6.2c-4.5-4.5-8.6-9.3-12-14.4
					c-3.8-5.1-6.5-10.6-8.9-16.8c-2.1-5.8-3.8-12-2.7-17.8c0.7-6.2,4.1-12.4,7.5-18.5c3.8-6.2,7.5-12.4,9.9-18.9
					c4.8-12.7,9.9-25.4,15.4-37.4c5.5-12,11.3-23,16.1-32.6c2.4-4.8,5.1-8.9,7.2-13c2.1-3.8,4.1-7.2,5.8-9.9
					c3.4-5.5,5.5-8.6,5.5-8.6L2191.4,677.2z"/>
			</g>
		</g>
		<g>
			<path class="st5" d="M2260.7,911.6c70,84.7,81.3,390.8-149.2,680c-68.3,20.9-9.9,33.6,31.6-167.4s-63.5-322.1-63.5-322.1
				s5.8,38.8-25.7,48.4c-31.6,9.6-39.8,87.1-23,141.7c16.8,54.5,30.5,143.4,20.2,192.5c-10.3,49.1-7.5,77.9-7.5,77.9
				s-36.7-50.8-111.8-294c-75.1-243.2,19.2-345.1,88.8-386.3C2090.5,841.2,2222.3,865.2,2260.7,911.6z"/>
		</g>
	</g>
	<path class="st5" d="M1790.8,1356.9c1,1.4,9.6,14.8,22,37.4c28.1-15.8,51.1-38.1,63.1-68.6c94.3-244.6-9.3-856.7-169.1-1047.8
		c-159.8-191.4-665.4,185.9-656.8,250.4c8.6,64.2,485.3,840.5,531.6,875.9c23,17.5,84.4,26.8,146.1,17.8
		c-11-33.6-19.2-53.2-19.6-53.5c-4.1-8.9,0.3-19.6,9.3-23.7c9.3-4.1,19.6,0,23.7,9.3c1,2.1,10.3,23.7,22,60.4
		c5.5-1.7,11-3.4,16.5-5.1c-11.3-20.6-18.9-32.2-19.2-32.6c-5.5-8.2-3.1-19.6,5.1-25C1774,1346.2,1785.3,1348.6,1790.8,1356.9z
		 M1684.8,1385c-19.9,16.8-49.7,14.8-66.5-5.1s-14.7-49.7,5.1-66.6c19.9-16.8,49.7-14.8,66.5,5.1
		C1707.1,1338.3,1704.7,1368.2,1684.8,1385z M1799.7,1306.1c15.1-13,38.1-11.3,51.1,3.8c13,15.1,11.3,38.1-4.1,51.1
		c-15.1,13-38.1,11.3-51.1-4.1C1782.5,1342.1,1784.6,1319.1,1799.7,1306.1z"/>
	<g>
		<path class="st5" d="M1535.6,1354.8c-126.9-182.2-484-768.8-491.5-825.8c-5.8-42.9,171.8-188.3,338.9-261.8
			c107.7-47.3,252.4-84.7,328.6,6.5c6.2,7.2,12.3,15.4,18.5,24c155.4,222.7,240.4,800.1,151.6,1029.6
			c-21.3,55.2-74.4,80.6-115.2,91.9c-74.8,21.3-159.1,11.3-188.3-11C1575.4,1407,1567.8,1401.1,1535.6,1354.8z M1719.8,305
			c-5.8-8.6-12-16.1-17.8-23.3c-71.7-85.8-210.6-49.1-314.5-3.4c-178,78.2-335.8,218.5-331.7,249.1c7.2,54.5,366.3,644,489.5,820.6
			c27.1,39.1,36.7,48.7,39.8,51.1c26.8,20.2,108.4,28.5,177.7,8.9c38.1-10.6,87.8-34.3,107.4-84.7
			C1957.8,1096.5,1873.8,525.2,1719.8,305z"/>
	</g>
	<g>
		<g class="st6">
			<path d="M1916.3,1633c-2.4-1-4.5-2.4-6.2-4.5c-1.4-1.4-2.4-3.1-2.7-5.1c-30.5-88.2-69.6-157.8-96-200l149.5,494.4
				C1963.6,1812.5,1943.7,1715.4,1916.3,1633z"/>
			<path d="M1820.3,1644.4c-1.4-1-2.7-2.1-3.8-3.1c-1.7-2.1-3.1-4.8-3.8-7.9c-15.4-90.2-41.2-164.3-60-210l63.8,512.6
				C1837.4,1831.7,1834,1731.2,1820.3,1644.4z"/>
		</g>
		<g>
			<g>
				<path class="st5" d="M1902.6,1619.3c-2.4-1-4.5-2.4-6.2-4.5c-1.4-1.4-2.4-3.1-2.7-5.1c-30.5-88.2-69.6-157.8-96-200l149.5,494.4
					C1949.9,1798.7,1930,1701.7,1902.6,1619.3z"/>
			</g>
			<g>
				<path class="st5" d="M1806.5,1630.6c-1.4-1-2.7-2.1-3.8-3.1c-1.7-2.1-3.1-4.8-3.8-7.9c-15.4-90.2-41.2-164.3-60-210l63.8,512.6
					C1823.7,1818,1820.3,1717.4,1806.5,1630.6z"/>
			</g>
		</g>
	</g>
	<polygon class="st4" points="1267,22 2497.3,732.5 2497.3,2180.6 1267,2895.6 9.3,2180.6 9.3,732.5 	"/>
	<g>
		<path class="st2" d="M1384,1929.8c-17.1-24.7-8.9-39.1-4.8-48.7c14.4-35,68.6-58.3,136.2-30.5c29.2,12,73.4,42.5,60,74.4
			c-5.8,14.1-23.3,23.3-41.5,16.1c-19.2-7.9-28.5-20.9-25.4-38.4c0.7-3.8,8.9-16.1,12.3-20.6c4.8-5.8-16.8-17.5-22.3-19.6
			c-15.1-6.2-42.9-14.1-49.7,2.7c-4.1,10.3-1,15.4,5.8,24l49.4,69c16.8,23.3,27.1,47.3,16.5,73.1c-22.3,54.9-87.8,60-145.8,36.7
			c-36.4-14.8-93.3-50.4-76.5-91.3c7.9-19.2,30.2-26.4,52.8-17.2c19.2,7.9,28.5,27.4,21.6,43.6c-3.8,9.6-17.1,17.5-19.9,24
			c-4.1,10.3,22,22,31.9,26.1c19.9,8.2,54.5,18.2,63.8-4.8c5.1-12.4-1-26.1-9.3-38.1L1384,1929.8z"/>
		<path class="st2" d="M1676.6,1878.7l49.4-67.9c28.1,10.6,56.3,21.3,84.7,31.6l-49,71.4l46.3,18.9l-11,17.2l-47.7-19.6L1623,2104.8
			c-14.4,19.9-11,26.4-2.1,30.2c27.8,11.3,77.2-24.4,90.2-48.4l13,9.9c-33.3,51.5-85.7,71.7-144.1,48c-27.1-11-54.2-38.4-41.2-70
			c3.1-7.9,16.1-26.1,28.8-43.9l96-134.8l-39.8-16.1l11.7-16.8L1676.6,1878.7z"/>
		<path class="st2" d="M1896.4,2076l1,1.7c27.1-13.4,72-42.2,108.7-27.4c24.7,9.9,32.6,28.5,24.4,48.7
			c-8.2,20.2-26.4,28.8-51.1,18.5c-14.1-5.8-18.9-14.8-21.6-22.6c-2.7-8.2-3.1-15.1-9.6-17.8c-11.3-4.5-38.8,11.3-46,16.1
			c-25.4,16.5-35.3,25.7-54.2,49.7l-64.8,81l-85.1-34.7l141-184.6l-47.7-19.6l11-14.1l68.3,27.8c22.6,9.3,46,16.1,68.6,25.4
			L1896.4,2076z"/>
	</g>
	<path class="st7" d="M2419.8,669.7L1467,119.4L1260.2,0l-206.8,119.4L100.5,669.7L0,727.7v1455.7l100.5,58l964.8,557.2l195.2,112.5
		l195.2-112.5l964.8-557.2l100.5-58V727.7L2419.8,669.7z M2419.8,2128.8l-1159.7,669.7L100.5,2128.8V789.1l1159.7-669.7
		l1159.7,669.7V2128.8z"/>
</g>
</svg>
