<svg xmlns="http://www.w3.org/2000/svg" xmlns:xlink="http://www.w3.org/1999/xlink" viewBox="0 0 735 852"><defs><style>.cls-1{fill:none;}.cls-2{fill:#ba6f38;}.cls-3{isolation:isolate;}.cls-4{opacity:0.94;}.cls-14,.cls-5{opacity:0.25;}.cls-25,.cls-5{mix-blend-mode:multiply;}.cls-6{clip-path:url(#clip-path);}.cls-7{clip-path:url(#clip-path-2);}.cls-8{clip-path:url(#clip-path-3);}.cls-9{opacity:0.95;}.cls-10{clip-path:url(#clip-path-4);}.cls-11,.cls-15,.cls-18,.cls-27,.cls-28,.cls-29{fill:#fff;}.cls-12{clip-path:url(#clip-path-5);}.cls-13{fill:#54346f;}.cls-14{fill:url(#linear-gradient);}.cls-15{font-size:150.15px;letter-spacing:-0.05em;}.cls-15,.cls-18{font-family:MyriadPro-Regular, Myriad Pro;}.cls-16{letter-spacing:-0.03em;}.cls-17{fill:#e6b35a;}.cls-18{font-size:25px;}.cls-19{letter-spacing:0.01em;}.cls-20{letter-spacing:-0.04em;}.cls-21{letter-spacing:-0.02em;}.cls-22{letter-spacing:-0.01em;}.cls-23{letter-spacing:0em;}.cls-24{clip-path:url(#clip-path-6);}.cls-25{opacity:0.2;}.cls-26{fill:#ada2ba;}.cls-27,.cls-28,.cls-29{font-size:208.9px;font-family:BodoniStd-BoldItalic, Bodoni Std;font-weight:700;font-style:italic;}.cls-27{letter-spacing:-0.05em;}.cls-28{letter-spacing:-0.05em;}.cls-29{letter-spacing:-0.03em;}.cls-30{fill:#42285b;}</style><clipPath id="clip-path"><path class="cls-1" d="M-6506.34,1475.08l-338.12,195.22-338.12-195.22V1084.65l338.12-195.22h0l338.12,195.22Z"/></clipPath><clipPath id="clip-path-2"><polygon class="cls-1" points="-7000.53 1258.85 -6692.87 1258.85 -113.95 5440.12 -13579.45 5440.12 -7000.53 1258.85"/></clipPath><clipPath id="clip-path-3"><path class="cls-1" d="M-6507.84,1473.58-6846,1668.8l-338.12-195.22V1083.15L-6846,887.93h0l338.12,195.22Z"/></clipPath><clipPath id="clip-path-4"><polygon class="cls-1" points="-7002.03 1257.35 -6694.37 1257.35 -115.45 5438.62 -13580.95 5438.62 -7002.03 1257.35"/></clipPath><clipPath id="clip-path-5"><polygon class="cls-2" points="369.5 7.4 728.2 214.47 728.2 636.62 369.5 845.03 2.79 636.62 2.79 214.47 369.5 7.4"/></clipPath><linearGradient id="linear-gradient" x1="367.32" y1="-121.12" x2="368.62" y2="342.4" gradientUnits="userSpaceOnUse"><stop offset="0" stop-color="#fff" stop-opacity="0.83"/><stop offset="0.56" stop-color="#fff" stop-opacity="0.37"/><stop offset="1" stop-color="#fff" stop-opacity="0"/></linearGradient><clipPath id="clip-path-6"><polygon class="cls-1" points="369.5 7.4 728.2 214.47 728.2 636.62 369.5 845.03 2.79 636.62 2.79 214.47 369.5 7.4"/></clipPath></defs><title>lobstr</title><g class="cls-3"><g id="Layer_1" data-name="Layer 1"><g class="cls-4"><g class="cls-5"><g class="cls-6"><g class="cls-7"><polyline points="11523.93 17892.55 11523.93 17892.55 -21244.07 -14875.45 -21244.07 -14875.45 11523.93 17892.55"/><polyline points="-21244.07 17892.55 -21244.07 17892.55 11523.93 -14875.45 11523.93 -14875.45 -21244.07 17892.55"/></g></g></g><g class="cls-8"><g class="cls-9"><g class="cls-3"><g class="cls-10"><polyline class="cls-11" points="11522.43 17891.05 11522.43 17891.05 -21245.57 -14876.95 -21245.57 -14876.95 11522.43 17891.05"/><polyline class="cls-11" points="-21245.57 17891.05 -21245.57 17891.05 11522.43 -14876.95 11522.43 -14876.95 -21245.57 17891.05"/></g></g></g></g></g><polygon class="cls-2" points="369.5 7.4 728.2 214.47 728.2 636.62 369.5 845.03 2.79 636.62 2.79 214.47 369.5 7.4"/><g class="cls-12"><circle class="cls-13" cx="365.5" cy="437.45" r="442.13" transform="translate(-202.27 386.57) rotate(-45)"/><path class="cls-14" d="M683.21,107.07c0,129.59-141.14,234.64-315.25,234.64S52.72,236.66,52.72,107.07,193.86-127.56,368-127.56,683.21-22.51,683.21,107.07Z"/></g><text class="cls-15" transform="translate(168.89 595.66) scale(0.9 1)">lo<tspan class="cls-16" x="102.25" y="0">b</tspan></text><path class="cls-17" d="M367,633.9c.29-.29.61-.59.94-.89h-.26C367.49,633.31,367.26,633.61,367,633.9Z"/><text class="cls-18" transform="matrix(0.86, -0.5, 0.5, 0.86, 369.22, 809.1)"><tspan class="cls-19">ww</tspan><tspan class="cls-20" x="37.4" y="0">w</tspan><tspan x="54.82" y="0">.rstudi</tspan><tspan class="cls-21" x="120.07" y="0">o</tspan><tspan x="133.2" y="0">.</tspan><tspan class="cls-22" x="138.37" y="0">c</tspan><tspan class="cls-23" x="149.42" y="0">om</tspan></text><path class="cls-1" d="M288.58,508.79v.15l.08,0Z"/><path class="cls-1" d="M365.44,505.62c-.05.12-.1.25-.16.37l.16-.05Z"/><g class="cls-24"><g class="cls-25"><path d="M330.29-22.59s-23.15-89.3-35.88-90.71S255-100.67,227.78-77.42,180.15-27.85,184.62-17s87,44.61,87,44.61Z"/><path d="M183.68-15.14a6,6,0,0,1-.68-1.21c-5.28-12.79,18.12-40.56,43.65-62.39,27.13-23.22,54.44-37.81,68-36.3,2.13.24,4.32,2,6.68,5.38,13,18.58,30,83.86,30.71,86.63l.27,1.06L272,29.61l-1-.4C267.77,27.89,192-3.19,183.68-15.14Zm114.73-92.52c-2.35-3.36-3.72-3.85-4.2-3.9-12.41-1.39-39.26,13.2-65.29,35.47C200.78-52,182.43-26.9,186.23-17.69a4.09,4.09,0,0,0,.31.55c6.35,9.08,62.4,33.51,84.79,42.71l57-48.78C326-31.85,310.15-90.84,298.41-107.66Z"/><path d="M374.23,26.64s-30.54-100-44.46-102.38-42.06,11.56-70.15,35.61S210.9,11.73,216.42,24s97.19,54.54,97.19,54.54Z"/><path d="M215.53,25.89h0a8.66,8.66,0,0,1-.7-1.21C208.4,10.42,233-19.61,258.48-41.46c28.06-24,56.82-38.48,71.58-36,2.33.39,4.74,2.47,7.58,6.53,15.16,21.72,37.32,94,38.26,97.06l.33,1.09L313.89,80.57l-1-.47C309.29,78.44,225,39.44,215.53,25.89ZM334.77-68.93c-3-4.29-4.7-5-5.29-5.08-13.58-2.28-41.84,12.2-68.72,35.2C231.67-13.91,213.29,12.77,218,23.25a3.69,3.69,0,0,0,.38.64C225.44,34,283,62.41,313.32,76.45l58.9-50.39C369.33,16.75,348.63-49.08,334.77-68.93Z"/><path d="M421.25,69.32S386.67-47.63,370.31-50.18,320.63-36,287.22-7.44s-58.08,61.51-51.75,75.79S349.16,131,349.16,131Z"/><path d="M234.67,70.45h0a8.56,8.56,0,0,1-.8-1.39c-7.32-16.52,21.93-51.93,52.21-77.83,33.29-28.49,67.25-45.83,84.5-43.14,2.61.41,5.42,2.82,8.6,7.37,17.54,25.12,42.69,109.77,43.75,113.36l.32,1.09-73.8,63.14-1-.45C344.25,130.71,245.65,86.17,234.67,70.45Zm141.64-113c-3.36-4.82-5.37-5.77-6.27-5.91C354-51,320.4-33.55,288.35-6.11c-34.71,29.69-56.76,61.4-51.28,73.75a4.26,4.26,0,0,0,.47.8c9.85,14.13,100.68,55.68,111.33,60.51l70.38-60.23C416.2,58.58,392.48-19.39,376.31-42.54Z"/><path d="M472.66,121.05S442.16.6,424.92-1.19s-53.53,17.45-90.57,49.13-65,67.43-59,82,117.44,59.45,117.44,59.45Z"/><path d="M274.56,132.15a5.76,5.76,0,0,1-.85-1.53c-6.88-16.85,26-55.36,59.5-84C370.05,15.1,407-4.81,425.1-2.93c2.7.28,5.49,2.54,8.54,6.91C451,28.82,473.41,116.89,474.35,120.62l.27,1L393.1,191.43l-1-.4C387.77,189.29,285.69,148.1,274.56,132.15ZM430.78,6c-3.15-4.51-5.14-5.34-6-5.43-17-1.76-53.66,18.27-89.25,48.72-38.54,33-63.7,67.38-58.55,80a5.49,5.49,0,0,0,.48.85c8.36,12,78.3,42.44,115,57.25l78.27-67C468.06,110.22,446.76,28.87,430.78,6Z"/><line x1="329.26" y1="164.55" x2="259.24" y2="288.98"/><path d="M330,165s-3.47,8.29-9,20.54c-2.73,6.14-5.9,13.32-9.45,20.92s-7.39,15.68-11.24,23.76-7,16.53-11,23.88a133.44,133.44,0,0,1-13,18.91c-2.13,2.63-4.2,5-6.14,7s-3.66,3.78-5.17,5.17a62.35,62.35,0,0,1-5,4.23l-1.53-.85a65.23,65.23,0,0,1,1-6.46c.4-2,1-4.4,1.73-7.1s1.67-5.7,2.82-8.9a133.5,133.5,0,0,1,9.39-21c4.21-7.23,9.88-14.28,14.7-21.81s9.73-15,14.48-21.94,9.14-13.41,13-18.93c7.61-11.08,12.9-18.35,12.9-18.35Z"/><line x1="259.24" y1="288.98" x2="408.49" y2="218.76"/><path d="M259,288.51a206.45,206.45,0,0,1,21.76-14.29c3.35-2,7-4,10.93-6.11s8.07-4.22,12.44-6.29,9-3.95,13.71-5.84l14.23-5.9c19-8,37.95-16.22,52.3-22l23.89-9.76.45,1L386,231.43c-13.63,7.35-32,16.72-50.32,26.24L322,264.87c-4.47,2.42-8.9,4.74-13.25,6.84s-8.64,4-12.78,5.58-8,3.2-11.67,4.52a206.75,206.75,0,0,1-24.88,7.65Z"/><line x1="456.29" y1="112.33" x2="589.82" y2="129.13"/><path d="M456.4,111.46s8.48,0,21.15.41c6.33.16,13.73.32,21.63.68s16.33.8,24.75,1.24,16.94.12,24.78,1a118.78,118.78,0,0,1,21.12,4.76c3.06,1,5.85,2,8.3,3s4.6,1.93,6.34,2.79a57.81,57.81,0,0,1,5.46,3l-.22,1.74a56.84,56.84,0,0,1-6,1.52c-1.9.41-4.2.78-6.83,1.13s-5.58.65-8.78.82a118.39,118.39,0,0,1-21.64-.62c-7.81-1.1-16-3.63-24.26-5.18s-16.55-3.22-24.28-4.93S483,119.46,476.77,118c-12.37-2.76-20.58-4.84-20.58-4.84Z"/><line x1="589.82" y1="129.13" x2="456.4" y2="207.92"/><path d="M590.09,129.58a183,183,0,0,1-19,15.47c-3,2.16-6.18,4.42-9.65,6.72s-7.17,4.68-11.08,7-8.07,4.48-12.32,6.65l-12.81,6.73c-17.1,9.14-34.11,18.42-47.05,25.08s-21.53,11.15-21.53,11.15l-.53-.9s8-5.46,20.16-13.47,28.42-18.53,44.68-29.09l12.08-8c4-2.68,7.88-5.25,11.77-7.59s7.74-4.46,11.47-6.32,7.23-3.67,10.54-5.21a183.89,183.89,0,0,1,22.71-9.15Z"/><line x1="509.22" y1="162.74" x2="609.17" y2="196.11"/><path d="M509.49,161.91s6.58,1.1,16.35,3c4.87,1,10.57,2.13,16.63,3.47s12.5,2.86,18.94,4.37,13.12,2.28,19,4.12a74,74,0,0,1,15.35,7.33c2.16,1.32,4.1,2.66,5.79,3.94s3.13,2.46,4.3,3.52a38,38,0,0,1,3.58,3.58l-.55,1.66a37.23,37.23,0,0,1-5,.71c-1.57.15-3.43.23-5.55.23a65.17,65.17,0,0,1-7-.33,73.53,73.53,0,0,1-16.67-3.36c-5.82-2.07-11.59-5.56-17.68-8.13s-12.14-5.24-17.77-7.89-10.89-5.08-15.38-7.22c-9-4.31-14.89-7.39-14.89-7.39Z"/><line x1="609.17" y1="196.11" x2="494.65" y2="236.16"/><path d="M609.35,196.61a116,116,0,0,1-16.69,9.72c-2.56,1.28-5.37,2.58-8.38,3.86s-6.19,2.57-9.54,3.75-6.91,2.14-10.53,3.1l-10.92,3.06c-7.27,2.16-14.53,4.37-21.39,6.3s-13.25,3.75-18.74,5.27c-11,3.07-18.34,5-18.34,5l-.35-1s6.95-3.09,17.45-7.52c5.25-2.23,11.36-4.85,17.94-7.56s13.63-5.56,20.66-8.4L561,207.76c3.43-1.5,6.82-2.92,10.16-4.13s6.63-2.21,9.8-3,6.16-1.6,9-2.2A115.06,115.06,0,0,1,609,195.62Z"/><line x1="520.26" y1="212.73" x2="609.24" y2="269.18"/><path d="M520.73,212s6.12,2.65,15.13,6.89c4.5,2.13,9.75,4.61,15.31,7.37s11.44,5.79,17.33,8.8,12.19,5.38,17.47,8.58a73.34,73.34,0,0,1,13.13,10.81,65.47,65.47,0,0,1,4.67,5.22c1.33,1.65,2.45,3.14,3.33,4.45a38.11,38.11,0,0,1,2.62,4.34l-.94,1.47a36.26,36.26,0,0,1-5-.51c-1.56-.23-3.39-.62-5.45-1.12a67.67,67.67,0,0,1-6.71-2A73.6,73.6,0,0,1,576.21,259c-5.15-3.41-9.91-8.19-15.2-12.15s-10.52-8-15.34-11.93-9.35-7.55-13.2-10.71c-7.67-6.35-12.68-10.76-12.68-10.76Z"/><line x1="609.24" y1="269.18" x2="488.44" y2="280.49"/><path d="M609.29,269.71a115,115,0,0,1-18.53,5.42c-2.8.62-5.83,1.21-9.06,1.73s-6.63,1-10.17,1.34-7.22.42-11,.47l-11.34.34c-7.58.35-15.16.75-22.28,1s-13.76.45-19.45.6c-11.4.35-19,.43-19,.43l-.1-1s7.49-1.34,18.75-3.11c5.63-.9,12.19-2,19.23-3s14.56-2.11,22.08-3.18l11.19-1.77c3.69-.64,7.33-1.19,10.87-1.57s7-.55,10.23-.56,6.36-.08,9.23,0a114.05,114.05,0,0,1,19.21,1.88Z"/><line x1="368.57" y1="195.43" x2="272.43" y2="300.99"/><path d="M369.22,196s-5.24,7.31-13.37,18c-4,5.37-8.73,11.65-13.9,18.26s-10.72,13.63-16.28,20.64-10.54,14.53-16.09,20.8a133.57,133.57,0,0,1-16.94,15.5c-2.67,2.09-5.22,3.92-7.56,5.47s-4.42,2.86-6.2,3.87a62.94,62.94,0,0,1-5.81,3l-1.29-1.18a64.59,64.59,0,0,1,2.46-6.06c.84-1.87,1.95-4.07,3.28-6.53s2.91-5.19,4.74-8a133.62,133.62,0,0,1,13.86-18.32c5.72-6.1,12.82-11.7,19.21-17.95s12.85-12.44,19-18.13,11.91-11,16.89-15.55c9.9-9.09,16.68-15,16.68-15Z"/><line x1="272.43" y1="300.99" x2="433.63" y2="266.03"/><path d="M272.32,300.48a205,205,0,0,1,24.41-9.05c3.7-1.18,7.73-2.36,12-3.51s8.82-2.3,13.54-3.33,9.65-1.83,14.67-2.62l15.19-2.56c20.32-3.57,40.61-7.29,55.91-9.74l25.47-4.15.22,1-24.9,6.78c-14.93,4.1-34.95,9.12-54.92,14.29l-14.88,4c-4.9,1.36-9.74,2.63-14.45,3.7s-9.31,1.91-13.7,2.57-8.53,1.32-12.38,1.79a206.1,206.1,0,0,1-26,1.87Z"/><line x1="395.39" y1="247.26" x2="299.25" y2="352.82"/><path d="M396,247.85s-5.23,7.3-13.36,18c-4,5.37-8.74,11.66-13.9,18.27s-10.72,13.62-16.28,20.63S342,319.29,336.4,325.55a133.5,133.5,0,0,1-16.94,15.5c-2.68,2.1-5.22,3.92-7.56,5.47s-4.42,2.86-6.21,3.87a62.19,62.19,0,0,1-5.8,3l-1.29-1.18a61.27,61.27,0,0,1,2.46-6.06c.84-1.87,1.95-4.07,3.28-6.53s2.91-5.18,4.74-8a134.26,134.26,0,0,1,13.85-18.31c5.73-6.11,12.83-11.7,19.22-18s12.85-12.44,19-18.13,11.92-11,16.9-15.54c9.89-9.1,16.67-15,16.67-15Z"/><line x1="299.25" y1="352.82" x2="423.39" y2="325.89"/><path d="M299.14,352.31a124.89,124.89,0,0,1,18.62-7.8c2.83-1,5.92-2,9.21-2.89s6.77-1.86,10.4-2.66,7.45-1.35,11.33-1.89l11.73-1.82c15.7-2.56,31.35-5.28,43.17-7s19.69-2.9,19.69-2.9l.22,1s-7.63,2.3-19.12,5.53-26.83,7.36-42.18,11.53l-11.43,3.21c-3.75,1.11-7.46,2.13-11.09,3s-7.18,1.45-10.57,1.89-6.6.91-9.58,1.18a125.15,125.15,0,0,1-20.18.62Z"/><line x1="410.71" y1="279.33" x2="314.56" y2="384.88"/><path d="M411.36,279.91s-5.24,7.3-13.37,18c-4,5.37-8.74,11.65-13.9,18.26s-10.72,13.63-16.28,20.63-10.55,14.54-16.09,20.8a133.54,133.54,0,0,1-17,15.5c-2.67,2.09-5.22,3.92-7.56,5.47s-4.41,2.86-6.2,3.87a62.19,62.19,0,0,1-5.8,3l-1.29-1.18a62.4,62.4,0,0,1,2.45-6.06c.85-1.87,2-4.07,3.29-6.53s2.9-5.19,4.74-8a132.64,132.64,0,0,1,13.85-18.31c5.72-6.11,12.83-11.7,19.22-18s12.84-12.44,19-18.13,11.92-11,16.9-15.54c9.89-9.09,16.67-15,16.67-15Z"/><line x1="317.62" y1="379.45" x2="335.67" y2="437.92"/><path d="M319.29,378.93s.79.76,2.07,2.12c.66.67,1.43,1.49,2.27,2.45s1.87,2,2.86,3.22c2,2.38,4.35,5.16,6.71,8.18s4.63,6.33,6.81,9.66a35.81,35.81,0,0,0,4,4.74,14.65,14.65,0,0,1,3.37,4.75,10.78,10.78,0,0,1,.36,5.3,23.49,23.49,0,0,1-1.46,5.29,28.31,28.31,0,0,1-2.5,4.87l-1.41,2.15-1.47,1.9a33.36,33.36,0,0,1-2.49,2.8l-1.06,1.05-3.33,1-1.47-.27a36.73,36.73,0,0,1-3.63-.91l-2.29-.74-2.38-1a27.59,27.59,0,0,1-4.8-2.61,23.09,23.09,0,0,1-4.19-3.55,10.61,10.61,0,0,1-2.69-4.58,14.52,14.52,0,0,1,.1-5.82,34.79,34.79,0,0,0,.62-6.17c-.08-4-.06-8,.18-11.81s.62-7.45.94-10.55c.14-1.54.38-3,.54-4.26s.32-2.39.49-3.31c.3-1.84.52-2.91.52-2.91Z"/><path d="M311.31,451.08c-14.46,28.63,1.94,116.37,86,183.77,20.74,1.61,5,8.92-19.68-45.63S375,493.58,375,493.58s.79,11.39,10.38,12.15S402.31,528,401,544.56s.48,42.72,6.56,56,7.17,21.66,7.17,21.66,7.14-16.78,12.9-90.76-27.63-96.9-50-104.14S319.22,435.44,311.31,451.08Z"/><line x1="552.19" y1="294.61" x2="642.32" y2="201.35"/><path d="M551.56,294s4.88-6.55,12.48-16.13c3.77-4.81,8.15-10.43,13-16.34s10-12.16,15.22-18.41,9.83-13,15-18.59a111,111,0,0,1,15.94-13.48c2.52-1.79,4.93-3.35,7.14-4.64s4.17-2.4,5.86-3.23a53.83,53.83,0,0,1,5.5-2.43L643,202a53.22,53.22,0,0,1-2.25,5.58c-.77,1.72-1.79,3.73-3,6s-2.69,4.71-4.39,7.29a111.46,111.46,0,0,1-12.94,16.39c-5.37,5.38-12.07,10.18-18.07,15.65s-12.07,10.88-17.88,15.83-11.21,9.6-15.89,13.53c-9.31,7.91-15.69,13-15.69,13Z"/><line x1="641.29" y1="202.24" x2="636.54" y2="263.25"/><path d="M643,202.37s.45,1,1.15,2.73c.37.87.77,1.92,1.21,3.12s1,2.57,1.46,4c1,3,2.15,6.4,3.23,10.08s2,7.59,2.78,11.49a34.28,34.28,0,0,0,2,5.87,14.61,14.61,0,0,1,1.38,5.66,10.59,10.59,0,0,1-1.61,5.06,23.74,23.74,0,0,1-3.31,4.39,28,28,0,0,1-4.11,3.6l-2.1,1.48L643,261.11a34,34,0,0,1-3.34,1.69l-1.37.59-3.49-.28-1.25-.78a36.08,36.08,0,0,1-3-2.19l-1.86-1.53-1.84-1.78a28.32,28.32,0,0,1-3.51-4.2,23.31,23.31,0,0,1-2.58-4.85,10.61,10.61,0,0,1-.82-5.25,14.54,14.54,0,0,1,2.24-5.37,35.1,35.1,0,0,0,2.85-5.5c1.39-3.73,2.88-7.45,4.52-10.92s3.32-6.69,4.75-9.46c.7-1.38,1.46-2.65,2.07-3.77s1.18-2.09,1.68-2.89c1-1.61,1.56-2.52,1.56-2.52Z"/><path d="M663.2,270.74c20.41,24.73,23.72,113.92-43.45,198.17-19.87,6.14-2.91,9.8,9.16-48.85s-18.47-93.86-18.47-93.86,1.73,11.29-7.46,14.14-11.62,25.41-6.71,41.32,8.94,41.77,5.93,56.06S600,460.43,600,460.43s-10.66-14.79-32.55-85.7S573,274.12,593.29,262.14,652,257.2,663.2,270.74Z"/><path d="M526.16,400.51c.29.44,2.79,4.27,6.45,10.93,8.23-4.58,14.93-11.1,18.39-20,27.54-71.31-2.73-249.66-49.3-305.44s-194,54.24-191.51,73,141.5,245,155,255.3c6.68,5.11,24.61,7.83,42.58,5.18-3.16-9.8-5.6-15.45-5.66-15.59a5.24,5.24,0,0,1,9.61-4.2c.27.59,3,6.92,6.41,17.63q2.46-.69,4.84-1.52c-3.31-6-5.49-9.35-5.55-9.45a5.24,5.24,0,1,1,8.75-5.78Zm-30.84,8.23a13.78,13.78,0,1,1,1.51-19.42A13.77,13.77,0,0,1,495.32,408.74Zm33.46-23a10.54,10.54,0,1,1-1.16,14.86A10.55,10.55,0,0,1,528.78,385.71Z"/><path d="M451.79,399.91c-37.05-53.06-141.1-224.07-143.33-240.73-1.68-12.54,50.06-54.86,98.76-76.28,31.44-13.82,73.58-24.71,95.83,1.94,1.79,2.14,3.59,4.51,5.36,7C553.7,156.75,578.49,325.05,552.63,392c-6.21,16.08-21.72,23.46-33.64,26.81-21.82,6.15-46.44,3.25-54.88-3.2C463.4,415.08,461.22,413.42,451.79,399.91Zm53.75-306c-1.71-2.45-3.45-4.74-5.18-6.81-20.85-25-61.39-14.32-91.73-1-51.91,22.83-97.9,63.74-96.71,72.61,2.12,15.85,106.79,187.72,142.73,239.2,7.94,11.36,10.67,14.24,11.59,14.94,7.76,5.94,31.57,8.32,51.81,2.62,11.14-3.15,25.63-10,31.32-24.7C574.94,324.55,550.36,158.08,505.54,93.89Z"/></g><path class="cls-26" d="M326.29-26.59s-23.15-89.3-35.88-90.71S251-104.67,223.78-81.42,176.15-31.85,180.62-21s87,44.61,87,44.61Z"/><path class="cls-26" d="M179.68-19.14a6,6,0,0,1-.68-1.21c-5.28-12.79,18.12-40.56,43.65-62.39,27.13-23.22,54.44-37.81,68-36.3,2.13.24,4.32,2,6.68,5.38,13,18.58,30,83.86,30.71,86.63l.27,1.06L268,25.61l-1-.4C263.77,23.89,188-7.19,179.68-19.14Zm114.73-92.52c-2.35-3.36-3.72-3.85-4.2-3.9-12.41-1.39-39.26,13.2-65.29,35.47C196.78-56,178.43-30.9,182.23-21.69a4.09,4.09,0,0,0,.31.55c6.35,9.08,62.4,33.51,84.79,42.71l57-48.78C322-35.85,306.15-94.84,294.41-111.66Z"/><path class="cls-26" d="M370.23,22.64s-30.54-100-44.46-102.38-42.06,11.56-70.15,35.61S206.9,7.73,212.42,20s97.19,54.54,97.19,54.54Z"/><path class="cls-26" d="M211.53,21.89h0a8.66,8.66,0,0,1-.7-1.21C204.4,6.42,229-23.61,254.48-45.46c28.06-24,56.82-38.48,71.58-36,2.33.39,4.74,2.47,7.58,6.53,15.16,21.72,37.32,94,38.26,97.06l.33,1.09L309.89,76.57l-1-.47C305.29,74.44,221,35.44,211.53,21.89ZM330.77-72.93c-3-4.29-4.7-5-5.29-5.08-13.58-2.28-41.84,12.2-68.72,35.2C227.67-17.91,209.29,8.77,214,19.25a3.69,3.69,0,0,0,.38.64C221.44,30,279,58.41,309.32,72.45l58.9-50.39C365.33,12.75,344.63-53.08,330.77-72.93Z"/><path class="cls-26" d="M417.25,65.32S382.67-51.63,366.31-54.18,316.63-40,283.22-11.44s-58.08,61.51-51.75,75.79S345.16,127,345.16,127Z"/><path class="cls-26" d="M230.67,66.45h0a8.56,8.56,0,0,1-.8-1.39c-7.32-16.52,21.93-51.93,52.21-77.83,33.29-28.49,67.25-45.83,84.5-43.14,2.61.41,5.42,2.82,8.6,7.37,17.54,25.12,42.69,109.77,43.75,113.36l.32,1.09-73.8,63.14-1-.45C340.25,126.71,241.65,82.17,230.67,66.45Zm141.64-113c-3.36-4.82-5.37-5.77-6.27-5.91C350-55,316.4-37.55,284.35-10.11c-34.71,29.69-56.76,61.4-51.28,73.75a4.26,4.26,0,0,0,.47.8c9.85,14.13,100.68,55.68,111.33,60.51l70.38-60.23C412.2,54.58,388.48-23.39,372.31-46.54Z"/><path class="cls-26" d="M468.66,117.05S438.16-3.4,420.92-5.19s-53.53,17.45-90.57,49.13-65,67.43-59,82,117.44,59.45,117.44,59.45Z"/><path class="cls-26" d="M270.56,128.15a5.76,5.76,0,0,1-.85-1.53c-6.88-16.85,26-55.36,59.5-84C366.05,11.1,403-8.81,421.1-6.93c2.7.28,5.49,2.54,8.54,6.91C447,24.82,469.41,112.89,470.35,116.62l.27,1L389.1,187.43l-1-.4C383.77,185.29,281.69,144.1,270.56,128.15ZM426.78,2c-3.15-4.51-5.14-5.34-6-5.43-17-1.76-53.66,18.27-89.25,48.72-38.54,33-63.7,67.38-58.55,80a5.49,5.49,0,0,0,.48.85c8.36,12,78.3,42.44,115,57.25l78.27-67C464.06,106.22,442.76,24.87,426.78,2Z"/><line class="cls-26" x1="325.26" y1="160.55" x2="255.24" y2="284.98"/><path class="cls-26" d="M326,161s-3.47,8.29-9,20.54c-2.73,6.14-5.9,13.32-9.45,20.92s-7.39,15.68-11.24,23.76-7,16.53-11,23.88a133.44,133.44,0,0,1-13,18.91c-2.13,2.63-4.2,5-6.14,7s-3.66,3.78-5.17,5.17a62.35,62.35,0,0,1-5,4.23l-1.53-.85a65.23,65.23,0,0,1,1-6.46c.4-2,1-4.4,1.73-7.1s1.67-5.7,2.82-8.9a133.5,133.5,0,0,1,9.39-21c4.21-7.23,9.88-14.28,14.7-21.81s9.73-15,14.48-21.94,9.14-13.41,13-18.93c7.61-11.08,12.9-18.35,12.9-18.35Z"/><line class="cls-26" x1="255.24" y1="284.98" x2="404.49" y2="214.76"/><path class="cls-26" d="M255,284.51a206.45,206.45,0,0,1,21.76-14.29c3.35-2,7-4,10.93-6.11s8.07-4.22,12.44-6.29,9-3.95,13.71-5.84l14.23-5.9c19-8,37.95-16.22,52.3-22l23.89-9.76.45,1L382,227.43c-13.63,7.35-32,16.72-50.32,26.24L318,260.87c-4.47,2.42-8.9,4.74-13.25,6.84s-8.64,4-12.78,5.58-8,3.2-11.67,4.52a206.75,206.75,0,0,1-24.88,7.65Z"/><line class="cls-26" x1="452.29" y1="108.33" x2="585.82" y2="125.13"/><path class="cls-26" d="M452.4,107.46s8.48,0,21.15.41c6.33.16,13.73.32,21.63.68s16.33.8,24.75,1.24,16.94.12,24.78,1a118.78,118.78,0,0,1,21.12,4.76c3.06,1,5.85,2,8.3,3s4.6,1.93,6.34,2.79a57.81,57.81,0,0,1,5.46,3l-.22,1.74a56.84,56.84,0,0,1-6,1.52c-1.9.41-4.2.78-6.83,1.13s-5.58.65-8.78.82a118.39,118.39,0,0,1-21.64-.62c-7.81-1.1-16-3.63-24.26-5.18s-16.55-3.22-24.28-4.93S479,115.46,472.77,114c-12.37-2.76-20.58-4.84-20.58-4.84Z"/><line class="cls-26" x1="585.82" y1="125.13" x2="452.4" y2="203.92"/><path class="cls-26" d="M586.09,125.58a183,183,0,0,1-19,15.47c-3,2.16-6.18,4.42-9.65,6.72s-7.17,4.68-11.08,7-8.07,4.48-12.32,6.65l-12.81,6.73c-17.1,9.14-34.11,18.42-47.05,25.08s-21.53,11.15-21.53,11.15l-.53-.9s8-5.46,20.16-13.47,28.42-18.53,44.68-29.09l12.08-8c4-2.68,7.88-5.25,11.77-7.59s7.74-4.46,11.47-6.32,7.23-3.67,10.54-5.21a183.89,183.89,0,0,1,22.71-9.15Z"/><line class="cls-26" x1="505.22" y1="158.74" x2="605.17" y2="192.11"/><path class="cls-26" d="M505.49,157.91s6.58,1.1,16.35,3c4.87,1,10.57,2.13,16.63,3.47s12.5,2.86,18.94,4.37,13.12,2.28,19,4.12a74,74,0,0,1,15.35,7.33c2.16,1.32,4.1,2.66,5.79,3.94s3.13,2.46,4.3,3.52a38,38,0,0,1,3.58,3.58l-.55,1.66a37.23,37.23,0,0,1-5,.71c-1.57.15-3.43.23-5.55.23a65.17,65.17,0,0,1-7-.33,73.53,73.53,0,0,1-16.67-3.36c-5.82-2.07-11.59-5.56-17.68-8.13s-12.14-5.24-17.77-7.89-10.89-5.08-15.38-7.22c-9-4.31-14.89-7.39-14.89-7.39Z"/><line class="cls-26" x1="605.17" y1="192.11" x2="490.65" y2="232.16"/><path class="cls-26" d="M605.35,192.61a116,116,0,0,1-16.69,9.72c-2.56,1.28-5.37,2.58-8.38,3.86s-6.19,2.57-9.54,3.75-6.91,2.14-10.53,3.1l-10.92,3.06c-7.27,2.16-14.53,4.37-21.39,6.3s-13.25,3.75-18.74,5.27c-11,3.07-18.34,5-18.34,5l-.35-1s6.95-3.09,17.45-7.52c5.25-2.23,11.36-4.85,17.94-7.56s13.63-5.56,20.66-8.4L557,203.76c3.43-1.5,6.82-2.92,10.16-4.13s6.63-2.21,9.8-3,6.16-1.6,9-2.2A115.06,115.06,0,0,1,605,191.62Z"/><line class="cls-26" x1="516.26" y1="208.73" x2="605.24" y2="265.18"/><path class="cls-26" d="M516.73,208s6.12,2.65,15.13,6.89c4.5,2.13,9.75,4.61,15.31,7.37s11.44,5.79,17.33,8.8,12.19,5.38,17.47,8.58a73.34,73.34,0,0,1,13.13,10.81,65.47,65.47,0,0,1,4.67,5.22c1.33,1.65,2.45,3.14,3.33,4.45a38.11,38.11,0,0,1,2.62,4.34l-.94,1.47a36.26,36.26,0,0,1-5-.51c-1.56-.23-3.39-.62-5.45-1.12a67.67,67.67,0,0,1-6.71-2A73.6,73.6,0,0,1,572.21,255c-5.15-3.41-9.91-8.19-15.2-12.15s-10.52-8-15.34-11.93-9.35-7.55-13.2-10.71c-7.67-6.35-12.68-10.76-12.68-10.76Z"/><line class="cls-26" x1="605.24" y1="265.18" x2="484.44" y2="276.49"/><path class="cls-26" d="M605.29,265.71a115,115,0,0,1-18.53,5.42c-2.8.62-5.83,1.21-9.06,1.73s-6.63,1-10.17,1.34-7.22.42-11,.47l-11.34.34c-7.58.35-15.16.75-22.28,1s-13.76.45-19.45.6c-11.4.35-19,.43-19,.43l-.1-1s7.49-1.34,18.75-3.11c5.63-.9,12.19-2,19.23-3s14.56-2.11,22.08-3.18l11.19-1.77c3.69-.64,7.33-1.19,10.87-1.57s7-.55,10.23-.56,6.36-.08,9.23,0a114.05,114.05,0,0,1,19.21,1.88Z"/><line class="cls-26" x1="364.57" y1="191.43" x2="268.43" y2="296.99"/><path class="cls-26" d="M365.22,192s-5.24,7.31-13.37,18c-4,5.37-8.73,11.65-13.9,18.26s-10.72,13.63-16.28,20.64-10.54,14.53-16.09,20.8a133.57,133.57,0,0,1-16.94,15.5c-2.67,2.09-5.22,3.92-7.56,5.47s-4.42,2.86-6.2,3.87a62.94,62.94,0,0,1-5.81,3l-1.29-1.18a64.59,64.59,0,0,1,2.46-6.06c.84-1.87,1.95-4.07,3.28-6.53s2.91-5.19,4.74-8a133.62,133.62,0,0,1,13.86-18.32c5.72-6.1,12.82-11.7,19.21-17.95s12.85-12.44,19-18.13,11.91-11,16.89-15.55c9.9-9.09,16.68-15,16.68-15Z"/><line class="cls-26" x1="268.43" y1="296.99" x2="429.63" y2="262.03"/><path class="cls-26" d="M268.32,296.48a205,205,0,0,1,24.41-9.05c3.7-1.18,7.73-2.36,12-3.51s8.82-2.3,13.54-3.33,9.65-1.83,14.67-2.62l15.19-2.56c20.32-3.57,40.61-7.29,55.91-9.74l25.47-4.15.22,1-24.9,6.78c-14.93,4.1-34.95,9.12-54.92,14.29l-14.88,4c-4.9,1.36-9.74,2.63-14.45,3.7s-9.31,1.91-13.7,2.57-8.53,1.32-12.38,1.79a206.1,206.1,0,0,1-26,1.87Z"/><line class="cls-26" x1="391.39" y1="243.26" x2="295.25" y2="348.82"/><path class="cls-26" d="M392,243.85s-5.23,7.3-13.36,18c-4,5.37-8.74,11.66-13.9,18.27s-10.72,13.62-16.28,20.63S338,315.29,332.4,321.55a133.5,133.5,0,0,1-16.94,15.5c-2.68,2.1-5.22,3.92-7.56,5.47s-4.42,2.86-6.21,3.87a62.19,62.19,0,0,1-5.8,3l-1.29-1.18a61.27,61.27,0,0,1,2.46-6.06c.84-1.87,1.95-4.07,3.28-6.53s2.91-5.18,4.74-8a134.26,134.26,0,0,1,13.85-18.31c5.73-6.11,12.83-11.7,19.22-18s12.85-12.44,19-18.13,11.92-11,16.9-15.54c9.89-9.1,16.67-15,16.67-15Z"/><line class="cls-26" x1="295.25" y1="348.82" x2="419.39" y2="321.89"/><path class="cls-26" d="M295.14,348.31a124.89,124.89,0,0,1,18.62-7.8c2.83-1,5.92-2,9.21-2.89s6.77-1.86,10.4-2.66,7.45-1.35,11.33-1.89l11.73-1.82c15.7-2.56,31.35-5.28,43.17-7s19.69-2.9,19.69-2.9l.22,1s-7.63,2.3-19.12,5.53-26.83,7.36-42.18,11.53l-11.43,3.21c-3.75,1.11-7.46,2.13-11.09,3s-7.18,1.45-10.57,1.89-6.6.91-9.58,1.18a125.15,125.15,0,0,1-20.18.62Z"/><line class="cls-26" x1="406.71" y1="275.33" x2="310.56" y2="380.88"/><path class="cls-26" d="M407.36,275.91s-5.24,7.3-13.37,18c-4,5.37-8.74,11.65-13.9,18.26s-10.72,13.63-16.28,20.63-10.55,14.54-16.09,20.8a133.54,133.54,0,0,1-17,15.5c-2.67,2.09-5.22,3.92-7.56,5.47s-4.41,2.86-6.2,3.87a62.19,62.19,0,0,1-5.8,3l-1.29-1.18a62.4,62.4,0,0,1,2.45-6.06c.85-1.87,2-4.07,3.29-6.53s2.9-5.19,4.74-8a132.64,132.64,0,0,1,13.85-18.31c5.72-6.11,12.83-11.7,19.22-18s12.84-12.44,19-18.13,11.92-11,16.9-15.54c9.89-9.09,16.67-15,16.67-15Z"/><line class="cls-26" x1="313.62" y1="375.45" x2="331.67" y2="433.92"/><path class="cls-26" d="M315.29,374.93s.79.76,2.07,2.12c.66.67,1.43,1.49,2.27,2.45s1.87,2,2.86,3.22c2,2.38,4.35,5.16,6.71,8.18s4.63,6.33,6.81,9.66a35.81,35.81,0,0,0,4,4.74,14.65,14.65,0,0,1,3.37,4.75,10.78,10.78,0,0,1,.36,5.3,23.49,23.49,0,0,1-1.46,5.29,28.31,28.31,0,0,1-2.5,4.87l-1.41,2.15-1.47,1.9a33.36,33.36,0,0,1-2.49,2.8l-1.06,1.05-3.33,1-1.47-.27a36.73,36.73,0,0,1-3.63-.91l-2.29-.74-2.38-1a27.59,27.59,0,0,1-4.8-2.61,23.09,23.09,0,0,1-4.19-3.55,10.61,10.61,0,0,1-2.69-4.58,14.52,14.52,0,0,1,.1-5.82,34.79,34.79,0,0,0,.62-6.17c-.08-4-.06-8,.18-11.81s.62-7.45.94-10.55c.14-1.54.38-3,.54-4.26s.32-2.39.49-3.31c.3-1.84.52-2.91.52-2.91Z"/><path class="cls-26" d="M307.31,447.08c-14.46,28.63,1.94,116.37,86,183.77,20.74,1.61,5,8.92-19.68-45.63S371,489.58,371,489.58s.79,11.39,10.38,12.15S398.31,524,397,540.56s.48,42.72,6.56,56,7.17,21.66,7.17,21.66,7.14-16.78,12.9-90.76-27.63-96.9-50-104.14S315.22,431.44,307.31,447.08Z"/><line class="cls-26" x1="548.19" y1="290.61" x2="638.32" y2="197.35"/><path class="cls-26" d="M547.56,290s4.88-6.55,12.48-16.13c3.77-4.81,8.15-10.43,13-16.34s10-12.16,15.22-18.41,9.83-13,15-18.59a111,111,0,0,1,15.94-13.48c2.52-1.79,4.93-3.35,7.14-4.64s4.17-2.4,5.86-3.23a53.83,53.83,0,0,1,5.5-2.43L639,198a53.22,53.22,0,0,1-2.25,5.58c-.77,1.72-1.79,3.73-3,6s-2.69,4.71-4.39,7.29a111.46,111.46,0,0,1-12.94,16.39c-5.37,5.38-12.07,10.18-18.07,15.65s-12.07,10.88-17.88,15.83-11.21,9.6-15.89,13.53c-9.31,7.91-15.69,13-15.69,13Z"/><line class="cls-26" x1="637.29" y1="198.24" x2="632.54" y2="259.25"/><path class="cls-26" d="M639,198.37s.45,1,1.15,2.73c.37.87.77,1.92,1.21,3.12s1,2.57,1.46,4c1,3,2.15,6.4,3.23,10.08s2,7.59,2.78,11.49a34.28,34.28,0,0,0,2,5.87,14.61,14.61,0,0,1,1.38,5.66,10.59,10.59,0,0,1-1.61,5.06,23.74,23.74,0,0,1-3.31,4.39,28,28,0,0,1-4.11,3.6l-2.1,1.48L639,257.11a34,34,0,0,1-3.34,1.69l-1.37.59-3.49-.28-1.25-.78a36.08,36.08,0,0,1-3-2.19l-1.86-1.53-1.84-1.78a28.32,28.32,0,0,1-3.51-4.2,23.31,23.31,0,0,1-2.58-4.85,10.61,10.61,0,0,1-.82-5.25,14.54,14.54,0,0,1,2.24-5.37,35.1,35.1,0,0,0,2.85-5.5c1.39-3.73,2.88-7.45,4.52-10.92s3.32-6.69,4.75-9.46c.7-1.38,1.46-2.65,2.07-3.77s1.18-2.09,1.68-2.89c1-1.61,1.56-2.52,1.56-2.52Z"/><path class="cls-26" d="M659.2,266.74c20.41,24.73,23.72,113.92-43.45,198.17-19.87,6.14-2.91,9.8,9.16-48.85s-18.47-93.86-18.47-93.86,1.73,11.29-7.46,14.14-11.62,25.41-6.71,41.32,8.94,41.77,5.93,56.06S596,456.43,596,456.43s-10.66-14.79-32.55-85.7S569,270.12,589.29,258.14,648,253.2,659.2,266.74Z"/><path class="cls-26" d="M522.16,396.51c.29.44,2.79,4.27,6.45,10.93,8.23-4.58,14.93-11.1,18.39-20,27.54-71.31-2.73-249.66-49.3-305.44s-194,54.24-191.51,73,141.5,245,155,255.3c6.68,5.11,24.61,7.83,42.58,5.18-3.16-9.8-5.6-15.45-5.66-15.59a5.24,5.24,0,0,1,9.61-4.2c.27.59,3,6.92,6.41,17.63q2.46-.69,4.84-1.52c-3.31-6-5.49-9.35-5.55-9.45a5.24,5.24,0,1,1,8.75-5.78Zm-30.84,8.23a13.78,13.78,0,1,1,1.51-19.42A13.77,13.77,0,0,1,491.32,404.74Zm33.46-23a10.54,10.54,0,1,1-1.16,14.86A10.55,10.55,0,0,1,524.78,381.71Z"/><path class="cls-26" d="M447.79,395.91c-37.05-53.06-141.1-224.07-143.33-240.73-1.68-12.54,50.06-54.86,98.76-76.28,31.44-13.82,73.58-24.71,95.83,1.94,1.79,2.14,3.59,4.51,5.36,7C549.7,152.75,574.49,321.05,548.63,388c-6.21,16.08-21.72,23.46-33.64,26.81-21.82,6.15-46.44,3.25-54.88-3.2C459.4,411.08,457.22,409.42,447.79,395.91Zm53.75-306c-1.71-2.45-3.45-4.74-5.18-6.81-20.85-25-61.39-14.32-91.73-1-51.91,22.83-97.9,63.74-96.71,72.61,2.12,15.85,106.79,187.72,142.73,239.2,7.94,11.36,10.67,14.24,11.59,14.94,7.76,5.94,31.57,8.32,51.81,2.62,11.14-3.15,25.63-10,31.32-24.7C570.94,320.55,546.36,154.08,501.54,89.89Z"/><g class="cls-25"><path d="M558.77,477a4.62,4.62,0,0,1-2.61-2.81,292.78,292.78,0,0,0-28-58.34l43.65,144.1C572.62,529.29,566.78,501,558.77,477Z"/><path d="M530.81,480.35a5,5,0,0,1-1-1,4.81,4.81,0,0,1-1-2.31,292.5,292.5,0,0,0-17.47-61.15l18.55,149.44C535.84,534.89,534.78,505.57,530.81,480.35Z"/></g><path class="cls-26" d="M554.77,473a4.62,4.62,0,0,1-2.61-2.81,292.78,292.78,0,0,0-28-58.34l43.65,144.1C568.62,525.29,562.78,497,554.77,473Z"/><path class="cls-26" d="M526.81,476.35a5,5,0,0,1-1-1,4.81,4.81,0,0,1-1-2.31,292.5,292.5,0,0,0-17.47-61.15l18.55,149.44C531.84,530.89,530.78,501.57,526.81,476.35Z"/></g><text class="cls-27" transform="matrix(0.93, 0.38, -0.32, 0.79, 369.73, 587.98)">s</text><text class="cls-28" transform="translate(434.92 614.55) rotate(22.18)">t</text><text class="cls-29" transform="matrix(0.93, 0.38, -0.32, 0.79, 489.28, 636.71)">r</text><path class="cls-30" d="M705.61,196.21,427.81,35.82,367.49,1,307.18,35.82,29.36,196.22.08,213.13V637.38l29.28,16.91L310.64,816.68l56.85,32.83,56.86-32.83L705.61,654.3l29.3-16.92V213.13Zm0,425.26L367.49,816.68,29.36,621.47V231L367.49,35.82h0L705.61,231Z"/></g></g></svg>