<svg id="Layer_1" data-name="Layer 1" xmlns="http://www.w3.org/2000/svg" xmlns:xlink="http://www.w3.org/1999/xlink" viewBox="0 0 735 852"><defs><style>.cls-1{fill:#ba6f38;}.cls-2{clip-path:url(#clip-path);}.cls-3{fill:#36a85d;}.cls-4{opacity:0.25;fill:url(#linear-gradient);}.cls-5{fill:#22834a;}.cls-6{fill:#e6b35a;}.cls-7{font-size:160px;letter-spacing:-0.03em;}.cls-12,.cls-19,.cls-7{fill:#fff;}.cls-12,.cls-7{font-family:MyriadPro-Regular, Myriad Pro;}.cls-8{letter-spacing:-0.03em;}.cls-9{letter-spacing:-0.04em;}.cls-10{letter-spacing:-0.04em;}.cls-11{letter-spacing:-0.03em;}.cls-12{font-size:25px;}.cls-13{letter-spacing:0.01em;}.cls-14{letter-spacing:-0.04em;}.cls-15{letter-spacing:-0.02em;}.cls-16{letter-spacing:-0.01em;}.cls-17{letter-spacing:0em;}.cls-18{fill:#298f4d;}</style><clipPath id="clip-path"><polygon class="cls-1" points="369.51 7.4 728.21 214.47 728.21 636.62 369.51 845.03 2.79 636.62 2.79 214.47 369.51 7.4"/></clipPath><linearGradient id="linear-gradient" x1="367.33" y1="-121.12" x2="368.63" y2="342.4" gradientUnits="userSpaceOnUse"><stop offset="0" stop-color="#fff" stop-opacity="0.83"/><stop offset="0.56" stop-color="#fff" stop-opacity="0.37"/><stop offset="1" stop-color="#fff" stop-opacity="0"/></linearGradient></defs><title> </title><polygon class="cls-1" points="369.51 7.4 728.21 214.47 728.21 636.62 369.51 845.03 2.79 636.62 2.79 214.47 369.51 7.4"/><g class="cls-2"><circle class="cls-3" cx="365.5" cy="437.45" r="442.13"/><ellipse class="cls-4" cx="367.97" cy="107.08" rx="315.24" ry="234.63"/></g><path class="cls-5" d="M705.61,196.21,427.81,35.82,367.5,1,307.19,35.82,29.37,196.22.09,213.13V637.38l29.28,16.91,281.28,162.4,56.85,32.82,56.85-32.82L705.61,654.3l29.3-16.92V213.13Zm0,425.26L367.49,816.68,29.37,621.47V231L367.49,35.82h0L705.61,231Z"/><path class="cls-6" d="M367,633.9c.29-.29.6-.59.93-.89h-.26Z"/><text class="cls-7" transform="translate(84.86 618.45)">lub<tspan class="cls-8" x="201.6" y="0">r</tspan><tspan x="249.43" y="0">id</tspan><tspan class="cls-9" x="366.87" y="0">a</tspan><tspan class="cls-10" x="438.23" y="0">t</tspan><tspan class="cls-11" x="485.11" y="0">e</tspan></text><text class="cls-12" transform="matrix(0.86, -0.5, 0.5, 0.86, 369.28, 809.1)"><tspan class="cls-13">ww</tspan><tspan class="cls-14" x="37.4" y="0">w</tspan><tspan x="54.82" y="0">.rstudi</tspan><tspan class="cls-15" x="120.07" y="0">o</tspan><tspan x="133.2" y="0">.</tspan><tspan class="cls-16" x="138.37" y="0">c</tspan><tspan class="cls-17" x="149.42" y="0">om</tspan></text><rect class="cls-18" x="266.47" y="258.87" width="230.54" height="190.4"/><path class="cls-18" d="M487.69,511.79c-.13,0-.3.13-.39.09a.29.29,0,0,1-.06-.51.39.39,0,0,1,.39,0C487.7,511.46,487.67,511.65,487.69,511.79Z"/><path class="cls-18" d="M499.93,451.87c0-.31,0-.63,0-.95q0-25.89,0-51.79,0-23.52,0-47,0-19.6,0-39.2,0-25.06-.08-50.12,0-21.26,0-42.52c0-1.91,0-2-2-2-4.83,0-9.66,0-14.49,0-5,0-10,0-15,0-1.13,0-1.62-.39-1.56-1.5,0-.32,0-.63,0-1,0-4-.1-8.08,0-12.11,0-1.34-.39-1.67-1.63-1.54a18.78,18.78,0,0,1-3.32,0c-2.34-.18-2.08.26-2.07,2,0,4.12,0,8.23,0,12.35,0,1.08-.11,1.73-1.54,1.68-2.82-.1-2.82,0-2.84-2.89,0-.32,0-.63,0-1,0-3.41,0-6.81,0-10.22,0-2,0-2-2.12-2-1.19,0-2.37,0-3.56,0-1,0-1.4.38-1.36,1.4.06,1.42,0,2.85,0,4.28,0,3,0,6,0,9,0,1-.26,1.51-1.34,1.37a7.24,7.24,0,0,0-.95,0l-44.18,0-56.78,0H316.72c-2.4,0-2.39,0-2.39-2.5,0-.32,0-.63,0-.95,0-3.64,0-7.29,0-10.93,0-1.18-.22-1.78-1.58-1.66a31,31,0,0,1-4.27,0c-1-.05-1.3.32-1.19,1.24a10.1,10.1,0,0,1,0,1.19c0,4,0,7.92,0,11.88,0,.6.16,1.48-.57,1.66a5.13,5.13,0,0,1-3.26,0c-.88-.38-.53-1.41-.54-2.16,0-4,0-7.92,0-11.87,0-1.86-.07-1.87-1.82-1.87-1.19,0-2.38.06-3.56,0s-1.66.28-1.63,1.61c.08,4,0,7.92,0,11.88,0,2.54,0,2.58-2.56,2.59-9.26,0-18.53,0-27.8,0-2,0-1.93,0-2.42,1.82a7.61,7.61,0,0,0-.21,2.12c0,1.74,0,3.48,0,5.23q0,23,0,46.09,0,28.62,0,57.25,0,9.51,0,19c1.62-1.58,3.27-3.15,4.9-4.75a5.85,5.85,0,0,1,1.18-.89q0-11.61,0-23.21c0-11.8-.12-23.6-.07-35.39,0-3.53-.66-3.13,3.2-3.14,18.85,0,37.69,0,56.54,0q23,0,46.08,0l67.94,0,48,0,2.53,0c.5,0,.59.45.6,1,0,1.42.09,2.85.09,4.27q0,23.64-.07,47.27,0,24.82,0,49.65c0,4.91,0,9.82,0,14.73,0,1.79-.05,1.85-1.8,1.86-6.26,0-12.51,0-18.77,0l-26.44,0c-2.09,0-2.11,0-2.12,2.06,0,6.18,0,12.35,0,18.53q0,12.71,0,25.42c0,2,0,2-2.11,2-23.52,0-45.77.1-69.29.11q-23,0-46,0a5.88,5.88,0,0,1-.94,1.41,23.37,23.37,0,0,1-6.18,4.63l43.19,0q31.12,0,62.24,0h70.55C499.27,455.29,499.73,454.87,499.93,451.87Zm-8.25-2.66-35.6.06a1.11,1.11,0,0,1-1-.42l38.46-38.52a5.44,5.44,0,0,1,.39,3c0,11.23,0,22.47,0,33.7C493.89,449.21,493.91,449.2,491.68,449.21Z"/><path class="cls-18" d="M381.64,401.61c-4.72,0-9.44,0-14.15,0-1.65,0-2.46-.2-2.45-1.47.08-6.39.06-12.77,0-19.16,0-1,.44-1.38,2-1.38q14.7,0,29.39,0c1.56,0,2,.38,2,1.37q-.07,9.67,0,19.34c0,1.08-.72,1.3-2.15,1.29C391.44,401.59,386.54,401.61,381.64,401.61Z"/><path class="cls-18" d="M336.81,379.68c4.62,0,9.25,0,13.87,0,1.91,0,2.53.44,2.52,1.67q-.1,9.31,0,18.61c0,1.25-.66,1.66-2.54,1.66q-14.15-.06-28.29,0c-1.9,0-2.53-.44-2.52-1.67q.1-9.31,0-18.61c0-1.25.66-1.68,2.54-1.66C327.2,379.72,332,379.68,336.81,379.68Z"/><path class="cls-18" d="M381.7,371.85c-4.81,0-9.62,0-14.42,0-1.63,0-2.23-.31-2.22-1.42q.09-9.58,0-19.16c0-1.12.63-1.42,2.24-1.42q14.56.05,29.12,0c1.5,0,2.09.31,2.08,1.33q-.07,9.67,0,19.34c0,1-.6,1.34-2.09,1.32C391.5,371.82,386.6,371.85,381.7,371.85Z"/><path class="cls-18" d="M353.17,360.86c0,3.1-.06,6.21,0,9.31,0,1.23-.61,1.68-2.52,1.67q-14.15-.07-28.29,0c-1.88,0-2.56-.4-2.55-1.65q.1-9.31,0-18.61c0-1.23.61-1.68,2.51-1.67q14.15.07,28.29,0c1.87,0,2.58.4,2.54,1.66C353.11,354.65,353.17,357.75,353.17,360.86Z"/><path class="cls-18" d="M381.85,320.12c4.81,0,9.62,0,14.42,0,1.63,0,2.23.32,2.22,1.43q-.09,9.58,0,19.16c0,1.12-.63,1.42-2.24,1.42q-14.56-.05-29.12,0c-1.51,0-2.09-.31-2.08-1.33q.07-9.67,0-19.34c0-1,.61-1.33,2.1-1.32C372.05,320.14,377,320.12,381.85,320.12Z"/><path class="cls-18" d="M336.69,320.14c4.63,0,9.26.05,13.88,0,2.06,0,2.65.47,2.64,1.78q-.11,9.22,0,18.44c0,1.34-.69,1.75-2.69,1.74q-14-.08-28,0c-2,0-2.68-.44-2.66-1.76q.13-9.22,0-18.44c0-1.34.69-1.77,2.69-1.74,4.72.07,9.43,0,14.15,0Z"/><path class="cls-18" d="M426.62,379.68c4.62,0,9.25,0,13.87,0,1.91,0,2.53.44,2.52,1.67q-.1,9.31,0,18.61c0,1.25-.66,1.66-2.54,1.66q-14.15-.06-28.29,0c-1.9,0-2.53-.44-2.52-1.67q.1-9.31,0-18.61c0-1.25.66-1.68,2.54-1.66C417,379.72,421.82,379.68,426.62,379.68Z"/><path class="cls-18" d="M443,360.86c0,3.1-.06,6.21,0,9.31,0,1.23-.61,1.68-2.52,1.67q-14.15-.07-28.29,0c-1.88,0-2.56-.4-2.55-1.65q.1-9.31,0-18.61c0-1.23.61-1.68,2.51-1.67q14.15.07,28.29,0c1.87,0,2.58.4,2.54,1.66C442.92,354.65,443,357.75,443,360.86Z"/><path class="cls-18" d="M426.5,320.14c4.63,0,9.26.05,13.88,0,2.06,0,2.65.47,2.64,1.78q-.11,9.22,0,18.44c0,1.34-.69,1.75-2.69,1.74q-14-.08-28,0c-2,0-2.68-.44-2.66-1.76q.13-9.22,0-18.44c0-1.34.69-1.77,2.69-1.74,4.72.07,9.43,0,14.15,0Z"/><circle class="cls-18" cx="286.07" cy="404.38" r="60.67" transform="matrix(0.26, -0.97, 0.97, 0.26, -178.53, 576.17)"/><polygon class="cls-18" points="237.49 374.8 237.48 374.81 237.47 374.81 237.49 374.8"/><path class="cls-18" d="M349,408.81a62.48,62.48,0,1,0-65.64,59A62.32,62.32,0,0,0,349,408.81Zm-6.88,12.72a56.82,56.82,0,0,1-5.72,13.2c-.1.16-.17.34-.26.51h-.22v0h0a1.36,1.36,0,0,0-.79-1c-1.68-1-3.35-2-5-3a3.65,3.65,0,0,0-.6-.33.54.54,0,0,0-.69.26.5.5,0,0,0,.07.64,2,2,0,0,0,.45.36c1.74,1.05,3.49,2.09,5.22,3.16a1.15,1.15,0,0,0,1.34,0h0l0,.44a.54.54,0,0,0-.27.45h0a79.81,79.81,0,0,1-5,6.76A57.79,57.79,0,0,1,316.3,455c-.13.08-.27.15-.39.24-.38.26-.61.14-.81-.25-.69-1.33-1.4-2.66-2.1-4-.2-.37-.39-.75-.61-1.11a.65.65,0,0,0-1-.31c-.39.24-.26.59-.1.92.71,1.45,1.45,2.89,2.11,4.36s1,1.23-.79,2.14a58,58,0,0,1-20.84,6c-1.49.14-3,.2-4.49.25-1.23,0-1.23,0-1.17-1.18.11-2.12.22-4.23.32-6.35,0-.93-.13-1.32-.59-1.25-.71.11-.57.72-.6,1.19-.13,2.19-.23,4.38-.35,6.57-.05.94-.07.95-1,.91A56.13,56.13,0,0,1,265,459a57.5,57.5,0,0,1-7.68-3.77,3.37,3.37,0,0,0,.28-.42l3.67-6c.41-.68.41-1.11,0-1.29-.61-.25-.8.28-1,.66-1,1.64-2.61,4.26-3.61,5.91a2.51,2.51,0,0,0-.26.53,58.66,58.66,0,0,1-6.11-4.28,56.66,56.66,0,0,1-13.43-15.56c-.44-.75-.44-.77.33-1.22l5.77-3.4a7.15,7.15,0,0,0,.78-.5.53.53,0,0,0,.16-.8.59.59,0,0,0-.81-.18l-.8.46-5.47,3.23c-1,.59-1,.59-1.52-.41a60.64,60.64,0,0,1-3.83-9.39A59.4,59.4,0,0,1,229,409.91c-.13-1.49-.12-3-.2-4.49,0-.59.28-.71.79-.69,1.88.09,3.77.16,5.66.23.27,0,.54,0,.81,0,.73,0,1.08-.21,1-.63-.07-.63-.58-.63-1-.66s-1.08-.07-1.62,0c-1.58.07-3.16-.06-4.73-.12-.83,0-.83-.06-.82-.87a42.75,42.75,0,0,1,.6-6,56.27,56.27,0,0,1,3-11.58,57.81,57.81,0,0,1,4-8.54,3.3,3.3,0,0,0,.18-.42.6.6,0,0,0,.17-.28l1.1.65,5.22,3.18c.39.23.85.59,1.19,0s-.22-.82-.59-1c-1.7-1-3.42-2.07-5.13-3.1l-1.22-.68a.58.58,0,0,1,0-.07c.12-.14.09-.37.3-.45a84.28,84.28,0,0,1,5.36-7.08,57.72,57.72,0,0,1,14.48-11.9c.69-.4.71-.39,1.12.32,1,1.81,2,3.62,3.06,5.43.24.42.41,1,1.09.78.41-.13.4-.6,0-1.4-1-1.79-2-3.56-3-5.35-.42-.77-.42-.79.36-1.19a59.44,59.44,0,0,1,9.07-3.71,58.43,58.43,0,0,1,12.65-2.48c1.65-.15,3.3-.17,5-.21.72,0,.78.05.75.8-.07,2-.16,3.92-.23,5.89a2.92,2.92,0,0,0,.05,1c.09.28.23.5.55.5a.61.61,0,0,0,.59-.48,3.87,3.87,0,0,0,.1-.91c0-1.92.08-3.85.14-5.77,0-1,.05-1,1.08-.95a56.94,56.94,0,0,1,21.64,5.59c1.65.8,3.23,1.68,4.77,2.6l-.06.09-.83,1.36-3,4.9a1.46,1.46,0,0,0-.33.84.55.55,0,0,0,.56.58c.37,0,.53-.29.69-.55l3.93-6.46.07-.13a57,57,0,0,1,17.36,16.88c.64,1,1.24,1.95,1.84,2.94s.51.89-.34,1.37l-4.74,2.65a6.45,6.45,0,0,0-.87.57.51.51,0,0,0-.12.72.53.53,0,0,0,.69.25,4.89,4.89,0,0,0,.62-.3l4.73-2.65c1.23-.68,1-.82,1.71.55a57.84,57.84,0,0,1,6.14,24.88c0,2.34.21,1.92-1.85,1.88l-4.85-.09a2.86,2.86,0,0,0-.57,0,.55.55,0,0,0-.46.58.49.49,0,0,0,.48.54c.31,0,.61.05.92.06l5.31.22c.94,0,.94.06.9,1A53.92,53.92,0,0,1,342.12,421.53Z"/><path class="cls-18" d="M321.78,426.62a8.29,8.29,0,0,0-2.17-1.29h0a9.52,9.52,0,0,0-2.31-1.5,13.73,13.73,0,0,0-2.43-1.54h0c-.11,0-.16-.14-.25-.21h0a.47.47,0,0,0-.43-.25h0a.49.49,0,0,0-.44-.26.5.5,0,0,0-.44-.26.52.52,0,0,0-.44-.27.28.28,0,0,0-.23-.22h0a51.81,51.81,0,0,0-.89-.53,163.35,163.35,0,0,0-.89-.52.29.29,0,0,0-.24-.21h0a.46.46,0,0,0-.43-.28.48.48,0,0,0-.45-.26.26.26,0,0,0-.24-.19l.25.2h0c-.11,0-.17-.13-.25-.2h0a.5.5,0,0,0-.43-.26h0a33.4,33.4,0,0,0-3.64-2.42c-4.87-3.16-9.78-6.27-14.67-9.4-.75-.48-1.47-1-2.23-1.44a.71.71,0,0,1-.27-1.14c.1-.16.2-.33.29-.5l5.61-9.94h0a.44.44,0,0,0,.23-.45h0a.26.26,0,0,0,.05-.17.32.32,0,0,0,.2-.28h0a.21.21,0,0,0,.06-.16.37.37,0,0,0,.2-.29h0a.48.48,0,0,0,.26-.44h0a.43.43,0,0,0,.23-.45h0a.32.32,0,0,0,.06-.19,20.88,20.88,0,0,0,2-3.4,6.45,6.45,0,0,0,1-1.79s0,0,0,0a7.6,7.6,0,0,0,.52-.8c.14-.29.46-.52.45-1.08a3.53,3.53,0,0,0-1,1.65h0a5.81,5.81,0,0,0-1.23,1.82h0a21.78,21.78,0,0,0-2.06,3.32h0a.28.28,0,0,0-.2.25l.21-.24h0c0,.1-.15.15-.21.24v0a.43.43,0,0,0-.28.42.5.5,0,0,0-.26.44.24.24,0,0,0-.18.23l.18-.23h0l-.18.23a.26.26,0,0,0-.08.18.32.32,0,0,0-.19.27h0c-.23.31-.48.6-.68.92-2.05,3.16-4.09,6.32-6.14,9.48-.56.86-.57.84-1.47.26l-.59-.36c-.83-.48-.83-.48-1.32.29-.79,1.25-.79,1.25.46,1.94l.41.21c.65.36.66.4.3,1-.09.17-.21.32-.32.48-.48.72-.48.72.3,1.18s.74.44,1.2-.35a5.1,5.1,0,0,0,.29-.5c.22-.5.52-.59,1-.29.68.43,1.39.81,2.09,1.22,4.16,2.4,8.31,4.8,12.49,7.18,2.24,1.27,4.41,2.65,6.73,3.77a.82.82,0,0,1,.27.19.18.18,0,0,0,.16.07.36.36,0,0,0,.3.2h0a.48.48,0,0,0,.43.26h0a.79.79,0,0,0,.66.3.24.24,0,0,0,.24.18l-.23-.19h0a1.75,1.75,0,0,1,.23.19.18.18,0,0,0,.16.06.36.36,0,0,0,.29.2h0a.14.14,0,0,0,.14.05.4.4,0,0,0,.31.22h0a.5.5,0,0,0,.44.26.45.45,0,0,0,.45.23h0a.18.18,0,0,0,.16.05.35.35,0,0,0,.29.2h0a.14.14,0,0,0,.15.06.39.39,0,0,0,.31.21h0a.49.49,0,0,0,.44.26h0a.5.5,0,0,0,.44.26h0a18.29,18.29,0,0,0,2.67,1.54l2,1.25a18.15,18.15,0,0,0,2.72,1.52,3.77,3.77,0,0,0,2.16,1l-2.15-1.25Z"/><path class="cls-18" d="M308.68,419.25a.32.32,0,0,0,.27.19Z"/><path class="cls-18" d="M314.86,422.31a.26.26,0,0,0-.25-.21Z"/><rect class="cls-3" x="261.47" y="249.87" width="230.54" height="190.4"/><path class="cls-19" d="M482.69,502.79c-.13,0-.3.13-.39.09a.29.29,0,0,1-.06-.51.39.39,0,0,1,.39,0C482.7,502.46,482.67,502.65,482.69,502.79Z"/><path class="cls-19" d="M494.93,442.87c0-.31,0-.63,0-.95q0-25.89,0-51.79,0-23.52,0-47,0-19.6,0-39.2,0-25.06-.08-50.12,0-21.26,0-42.52c0-1.91,0-2-2-2-4.83,0-9.66,0-14.49,0-5,0-10,0-15,0-1.13,0-1.62-.39-1.56-1.5,0-.32,0-.63,0-1,0-4-.1-8.08,0-12.11,0-1.34-.39-1.67-1.63-1.54a18.78,18.78,0,0,1-3.32,0c-2.34-.18-2.08.26-2.07,2,0,4.12,0,8.23,0,12.35,0,1.08-.11,1.73-1.54,1.68-2.82-.1-2.82,0-2.84-2.89,0-.32,0-.63,0-1,0-3.41,0-6.81,0-10.22,0-2,0-2-2.12-2-1.19,0-2.37,0-3.56,0-1,0-1.4.38-1.36,1.4.06,1.42,0,2.85,0,4.28,0,3,0,6,0,9,0,1-.26,1.51-1.34,1.37a7.24,7.24,0,0,0-.95,0l-44.18,0-56.78,0H311.72c-2.4,0-2.39,0-2.39-2.5,0-.32,0-.63,0-.95,0-3.64,0-7.29,0-10.93,0-1.18-.22-1.78-1.58-1.66a31,31,0,0,1-4.27,0c-1-.05-1.3.32-1.19,1.24a10.1,10.1,0,0,1,0,1.19c0,4,0,7.92,0,11.88,0,.6.16,1.48-.57,1.66a5.13,5.13,0,0,1-3.26,0c-.88-.38-.53-1.41-.54-2.16,0-4,0-7.92,0-11.87,0-1.86-.07-1.87-1.82-1.87-1.19,0-2.38.06-3.56,0s-1.66.28-1.63,1.61c.08,4,0,7.92,0,11.88,0,2.54,0,2.58-2.56,2.59-9.26,0-18.53,0-27.8,0-2,0-1.93,0-2.42,1.82a7.61,7.61,0,0,0-.21,2.12c0,1.74,0,3.48,0,5.23q0,23,0,46.09,0,28.62,0,57.25,0,9.51,0,19c1.62-1.58,3.27-3.15,4.9-4.75a5.85,5.85,0,0,1,1.18-.89q0-11.61,0-23.21c0-11.8-.12-23.6-.07-35.39,0-3.53-.66-3.13,3.2-3.14,18.85,0,37.69,0,56.54,0q23,0,46.08,0l67.94,0,48,0,2.53,0c.5,0,.59.45.6,1,0,1.42.09,2.85.09,4.27q0,23.64-.07,47.27,0,24.82,0,49.65c0,4.91,0,9.82,0,14.73,0,1.79-.05,1.85-1.8,1.86-6.26,0-12.51,0-18.77,0l-26.44,0c-2.09,0-2.11,0-2.12,2.06,0,6.18,0,12.35,0,18.53q0,12.71,0,25.42c0,2,0,2-2.11,2-23.52,0-45.77.1-69.29.11q-23,0-46,0a5.88,5.88,0,0,1-.94,1.41,23.37,23.37,0,0,1-6.18,4.63l43.19,0q31.12,0,62.24,0h70.55C494.27,446.29,494.73,445.87,494.93,442.87Zm-8.25-2.66-35.6.06a1.11,1.11,0,0,1-1-.42l38.46-38.52a5.44,5.44,0,0,1,.39,3c0,11.23,0,22.47,0,33.7C488.89,440.21,488.91,440.2,486.68,440.21Z"/><path class="cls-19" d="M376.64,392.61c-4.72,0-9.44,0-14.15,0-1.65,0-2.46-.2-2.45-1.47.08-6.39.06-12.77,0-19.16,0-1,.44-1.38,2-1.38q14.7,0,29.39,0c1.56,0,2,.38,2,1.37q-.07,9.67,0,19.34c0,1.08-.72,1.3-2.15,1.29C386.44,392.59,381.54,392.61,376.64,392.61Z"/><path class="cls-19" d="M331.81,370.68c4.62,0,9.25,0,13.87,0,1.91,0,2.53.44,2.52,1.67q-.1,9.31,0,18.61c0,1.25-.66,1.66-2.54,1.66q-14.15-.06-28.29,0c-1.9,0-2.53-.44-2.52-1.67q.1-9.31,0-18.61c0-1.25.66-1.68,2.54-1.66C322.2,370.72,327,370.68,331.81,370.68Z"/><path class="cls-19" d="M376.7,362.85c-4.81,0-9.62,0-14.42,0-1.63,0-2.23-.31-2.22-1.42q.09-9.58,0-19.16c0-1.12.63-1.42,2.24-1.42q14.56.05,29.12,0c1.5,0,2.09.31,2.08,1.33q-.07,9.67,0,19.34c0,1-.6,1.34-2.09,1.32C386.5,362.82,381.6,362.85,376.7,362.85Z"/><path class="cls-19" d="M348.17,351.86c0,3.1-.06,6.21,0,9.31,0,1.23-.61,1.68-2.52,1.67q-14.15-.07-28.29,0c-1.88,0-2.56-.4-2.55-1.65q.1-9.31,0-18.61c0-1.23.61-1.68,2.51-1.67q14.15.07,28.29,0c1.87,0,2.58.4,2.54,1.66C348.11,345.65,348.17,348.75,348.17,351.86Z"/><path class="cls-19" d="M376.85,311.12c4.81,0,9.62,0,14.42,0,1.63,0,2.23.32,2.22,1.43q-.09,9.58,0,19.16c0,1.12-.63,1.42-2.24,1.42q-14.56-.05-29.12,0c-1.51,0-2.09-.31-2.08-1.33q.07-9.67,0-19.34c0-1,.61-1.33,2.1-1.32C367.05,311.14,372,311.12,376.85,311.12Z"/><path class="cls-19" d="M331.69,311.14c4.63,0,9.26.05,13.88,0,2.06,0,2.65.47,2.64,1.78q-.11,9.22,0,18.44c0,1.34-.69,1.75-2.69,1.74q-14-.08-28,0c-2,0-2.68-.44-2.66-1.76q.13-9.22,0-18.44c0-1.34.69-1.77,2.69-1.74,4.72.07,9.43,0,14.15,0Z"/><path class="cls-19" d="M421.62,370.68c4.62,0,9.25,0,13.87,0,1.91,0,2.53.44,2.52,1.67q-.1,9.31,0,18.61c0,1.25-.66,1.66-2.54,1.66q-14.15-.06-28.29,0c-1.9,0-2.53-.44-2.52-1.67q.1-9.31,0-18.61c0-1.25.66-1.68,2.54-1.66C412,370.72,416.82,370.68,421.62,370.68Z"/><path class="cls-19" d="M438,351.86c0,3.1-.06,6.21,0,9.31,0,1.23-.61,1.68-2.52,1.67q-14.15-.07-28.29,0c-1.88,0-2.56-.4-2.55-1.65q.1-9.31,0-18.61c0-1.23.61-1.68,2.51-1.67q14.15.07,28.29,0c1.87,0,2.58.4,2.54,1.66C437.92,345.65,438,348.75,438,351.86Z"/><path class="cls-19" d="M421.5,311.14c4.63,0,9.26.05,13.88,0,2.06,0,2.65.47,2.64,1.78q-.11,9.22,0,18.44c0,1.34-.69,1.75-2.69,1.74q-14-.08-28,0c-2,0-2.68-.44-2.66-1.76q.13-9.22,0-18.44c0-1.34.69-1.77,2.69-1.74,4.72.07,9.43,0,14.15,0Z"/><circle class="cls-3" cx="281.07" cy="395.38" r="60.67" transform="matrix(0.26, -0.97, 0.97, 0.26, -173.54, 564.67)"/><polygon class="cls-19" points="232.49 365.8 232.48 365.81 232.47 365.81 232.49 365.8"/><path class="cls-19" d="M344,399.81a62.48,62.48,0,1,0-65.64,59A62.32,62.32,0,0,0,344,399.81Zm-6.88,12.72a56.82,56.82,0,0,1-5.72,13.2c-.1.16-.17.34-.26.51h-.22v0h0a1.36,1.36,0,0,0-.79-1c-1.68-1-3.35-2-5-3a3.65,3.65,0,0,0-.6-.33.54.54,0,0,0-.69.26.5.5,0,0,0,.07.64,2,2,0,0,0,.45.36c1.74,1.05,3.49,2.09,5.22,3.16a1.15,1.15,0,0,0,1.34,0h0l0,.44a.54.54,0,0,0-.27.45h0a79.81,79.81,0,0,1-5,6.76A57.79,57.79,0,0,1,311.3,446c-.13.08-.27.15-.39.24-.38.26-.61.14-.81-.25-.69-1.33-1.4-2.66-2.1-4-.2-.37-.39-.75-.61-1.11a.65.65,0,0,0-1-.31c-.39.24-.26.59-.1.92.71,1.45,1.45,2.89,2.11,4.36s1,1.23-.79,2.14a58,58,0,0,1-20.84,6c-1.49.14-3,.2-4.49.25-1.23,0-1.23,0-1.17-1.18.11-2.12.22-4.23.32-6.35,0-.93-.13-1.32-.59-1.25-.71.11-.57.72-.6,1.19-.13,2.19-.23,4.38-.35,6.57-.05.94-.07.95-1,.91A56.13,56.13,0,0,1,260,450a57.5,57.5,0,0,1-7.68-3.77,3.37,3.37,0,0,0,.28-.42l3.67-6c.41-.68.41-1.11,0-1.29-.61-.25-.8.28-1,.66-1,1.64-2.61,4.26-3.61,5.91a2.51,2.51,0,0,0-.26.53,58.66,58.66,0,0,1-6.11-4.28,56.66,56.66,0,0,1-13.43-15.56c-.44-.75-.44-.77.33-1.22l5.77-3.4a7.15,7.15,0,0,0,.78-.5.53.53,0,0,0,.16-.8.59.59,0,0,0-.81-.18l-.8.46-5.47,3.23c-1,.59-1,.59-1.52-.41a60.64,60.64,0,0,1-3.83-9.39A59.4,59.4,0,0,1,224,400.91c-.13-1.49-.12-3-.2-4.49,0-.59.28-.71.79-.69,1.88.09,3.77.16,5.66.23.27,0,.54,0,.81,0,.73,0,1.08-.21,1-.63-.07-.63-.58-.63-1-.66s-1.08-.07-1.62,0c-1.58.07-3.16-.06-4.73-.12-.83,0-.83-.06-.82-.87a42.75,42.75,0,0,1,.6-6,56.27,56.27,0,0,1,3-11.58,57.81,57.81,0,0,1,4-8.54,3.3,3.3,0,0,0,.18-.42.6.6,0,0,0,.17-.28l1.1.65,5.22,3.18c.39.23.85.59,1.19,0s-.22-.82-.59-1c-1.7-1-3.42-2.07-5.13-3.1l-1.22-.68a.58.58,0,0,1,0-.07c.12-.14.09-.37.3-.45a84.28,84.28,0,0,1,5.36-7.08,57.72,57.72,0,0,1,14.48-11.9c.69-.4.71-.39,1.12.32,1,1.81,2,3.62,3.06,5.43.24.42.41,1,1.09.78.41-.13.4-.6,0-1.4-1-1.79-2-3.56-3-5.35-.42-.77-.42-.79.36-1.19a59.44,59.44,0,0,1,9.07-3.71,58.43,58.43,0,0,1,12.65-2.48c1.65-.15,3.3-.17,5-.21.72,0,.78.05.75.8-.07,2-.16,3.92-.23,5.89a2.92,2.92,0,0,0,.05,1c.09.28.23.5.55.5a.61.61,0,0,0,.59-.48,3.87,3.87,0,0,0,.1-.91c0-1.92.08-3.85.14-5.77,0-1,.05-1,1.08-.95a56.94,56.94,0,0,1,21.64,5.59c1.65.8,3.23,1.68,4.77,2.6l-.06.09-.83,1.36-3,4.9a1.46,1.46,0,0,0-.33.84.55.55,0,0,0,.56.58c.37,0,.53-.29.69-.55l3.93-6.46.07-.13a57,57,0,0,1,17.36,16.88c.64,1,1.24,1.95,1.84,2.94s.51.89-.34,1.37l-4.74,2.65a6.45,6.45,0,0,0-.87.57.51.51,0,0,0-.12.72.53.53,0,0,0,.69.25,4.89,4.89,0,0,0,.62-.3l4.73-2.65c1.23-.68,1-.82,1.71.55a57.84,57.84,0,0,1,6.14,24.88c0,2.34.21,1.92-1.85,1.88l-4.85-.09a2.86,2.86,0,0,0-.57,0,.55.55,0,0,0-.46.58.49.49,0,0,0,.48.54c.31,0,.61.05.92.06l5.31.22c.94,0,.94.06.9,1A53.92,53.92,0,0,1,337.12,412.53Z"/><path class="cls-19" d="M316.78,417.62a8.29,8.29,0,0,0-2.17-1.29h0a9.52,9.52,0,0,0-2.31-1.5,13.73,13.73,0,0,0-2.43-1.54h0c-.11,0-.16-.14-.25-.21h0a.47.47,0,0,0-.43-.25h0a.49.49,0,0,0-.44-.26.5.5,0,0,0-.44-.26.52.52,0,0,0-.44-.27.28.28,0,0,0-.23-.22h0a51.81,51.81,0,0,0-.89-.53,163.35,163.35,0,0,0-.89-.52.29.29,0,0,0-.24-.21h0a.46.46,0,0,0-.43-.28.48.48,0,0,0-.45-.26.26.26,0,0,0-.24-.19l.25.2h0c-.11,0-.17-.13-.25-.2h0a.5.5,0,0,0-.43-.26h0a33.4,33.4,0,0,0-3.64-2.42c-4.87-3.16-9.78-6.27-14.67-9.4-.75-.48-1.47-1-2.23-1.44a.71.71,0,0,1-.27-1.14c.1-.16.2-.33.29-.5l5.61-9.94h0a.44.44,0,0,0,.23-.45h0a.26.26,0,0,0,.05-.17.32.32,0,0,0,.2-.28h0a.21.21,0,0,0,.06-.16.37.37,0,0,0,.2-.29h0a.48.48,0,0,0,.26-.44h0a.43.43,0,0,0,.23-.45h0a.32.32,0,0,0,.06-.19,20.88,20.88,0,0,0,2-3.4,6.45,6.45,0,0,0,1-1.79s0,0,0,0a7.6,7.6,0,0,0,.52-.8c.14-.29.46-.52.45-1.08a3.53,3.53,0,0,0-1,1.65h0a5.81,5.81,0,0,0-1.23,1.82h0a21.78,21.78,0,0,0-2.06,3.32h0a.28.28,0,0,0-.2.25l.21-.24h0c0,.1-.15.15-.21.24v0a.43.43,0,0,0-.28.42.5.5,0,0,0-.26.44.24.24,0,0,0-.18.23l.18-.23h0l-.18.23a.26.26,0,0,0-.08.18.32.32,0,0,0-.19.27h0c-.23.31-.48.6-.68.92-2.05,3.16-4.09,6.32-6.14,9.48-.56.86-.57.84-1.47.26l-.59-.36c-.83-.48-.83-.48-1.32.29-.79,1.25-.79,1.25.46,1.94l.41.21c.65.36.66.4.3,1-.09.17-.21.32-.32.48-.48.72-.48.72.3,1.18s.74.44,1.2-.35a5.1,5.1,0,0,0,.29-.5c.22-.5.52-.59,1-.29.68.43,1.39.81,2.09,1.22,4.16,2.4,8.31,4.8,12.49,7.18,2.24,1.27,4.41,2.65,6.73,3.77a.82.82,0,0,1,.27.19.18.18,0,0,0,.16.07.36.36,0,0,0,.3.2h0a.48.48,0,0,0,.43.26h0a.79.79,0,0,0,.66.3.24.24,0,0,0,.24.18l-.23-.19h0a1.75,1.75,0,0,1,.23.19.18.18,0,0,0,.16.06.36.36,0,0,0,.29.2h0a.14.14,0,0,0,.14.05.4.4,0,0,0,.31.22h0a.5.5,0,0,0,.44.26.45.45,0,0,0,.45.23h0a.18.18,0,0,0,.16.05.35.35,0,0,0,.29.2h0a.14.14,0,0,0,.15.06.39.39,0,0,0,.31.21h0a.49.49,0,0,0,.44.26h0a.5.5,0,0,0,.44.26h0a18.29,18.29,0,0,0,2.67,1.54l2,1.25a18.15,18.15,0,0,0,2.72,1.52,3.77,3.77,0,0,0,2.16,1l-2.15-1.25Z"/><path class="cls-19" d="M303.68,410.25a.32.32,0,0,0,.27.19Z"/><path class="cls-19" d="M309.86,413.31a.26.26,0,0,0-.25-.21Z"/></svg>