<?xml version="1.0" encoding="utf-8"?>
<!-- Generator: Adobe Illustrator 26.5.0, SVG Export Plug-In . SVG Version: 6.00 Build 0)  -->
<svg version="1.1" id="Layer_1" xmlns="http://www.w3.org/2000/svg" xmlns:xlink="http://www.w3.org/1999/xlink" x="0px" y="0px"
	 viewBox="0 0 2521 2911" style="enable-background:new 0 0 2521 2911;" xml:space="preserve">
<style type="text/css">
	.st0{fill:#36A85D;}
	.st1{opacity:0.25;fill:url(#SVGID_1_);enable-background:new    ;}
	.st2{fill:#22834A;}
	.st3{fill:#E6B35A;}
	.st4{fill:#FFFFFF;}
	.st5{fill:#298F4D;}
</style>
<g>
	<path class="st0" d="M100.5,2128.7V789.1l172.4-99.5l987.6-570.1l0,0L2250.6,691l170,98v1339.6l-1160,669.7L100.5,2128.7z"/>
	
		<linearGradient id="SVGID_1_" gradientUnits="userSpaceOnUse" x1="1255.8529" y1="1275.3164" x2="1260.313" y2="-314.8908" gradientTransform="matrix(1 0 0 -1 0 852)">
		<stop  offset="0" style="stop-color:#FFFFFF;stop-opacity:0.83"/>
		<stop  offset="0.56" style="stop-color:#FFFFFF;stop-opacity:0.37"/>
		<stop  offset="1" style="stop-color:#FFFFFF;stop-opacity:0"/>
	</linearGradient>
	<path class="st1" d="M1258.5,1164.5c439.9,0,818.4-195.6,987.4-476.1l-985.4-568.9l0,0L272.1,690.1
		C441.5,969.8,819.6,1164.5,1258.5,1164.5z"/>
	<path class="st2" d="M2521,2183.2V727.8l-100.5-58l-953.1-550.3L1260.5,0l-206.9,119.5L100.5,669.7L0,727.8v1455.5l100.5,58
		l965,557.1l195,112.6l195-112.6l964.9-557.1L2521,2183.2z M100.5,2128.7V789.1l172.4-99.5l987.6-570.1l0,0L2250.5,691l170,98
		v1339.6l-1160,669.7L100.5,2128.7z"/>
	<path class="st3" d="M1258.8,2171.3c1-1,2.1-2,3.2-3.1h-0.9C1260.5,2169.3,1259.7,2170.3,1258.8,2171.3z"/>
	<path class="st4" d="M330.9,1728.6h48.3v389.7h-48.3V1728.6z"/>
	<path class="st4" d="M665.3,2045.8c0,27.4,0.5,51.5,2.2,72.5h-42.9l-2.7-43.4h-1.2c-18.2,31.1-51.8,50-87.8,49.4
		c-41.7,0-91.7-23.1-91.7-116.4v-155.4h48.3v147.1c0,50.5,15.4,84.5,59.3,84.5c32.4,0,54.9-22.5,63.7-43.9
		c2.9-7.9,4.4-16.3,4.4-24.7v-163h48.4V2045.8z"/>
	<path class="st4" d="M725.6,2118.3c1.1-18.1,2.2-45,2.2-68.6v-321.1h47.8v166.9h1.1c17.2-29.6,47.8-48.9,90.6-48.9
		c65.9,0,112.5,54.9,112,135.6c0,95-59.8,142.2-119.1,142.2c-38.4,0-69.2-14.8-88.9-50h-1.6l-2.2,43.9H725.6z M775.5,2011.9
		c0.2,5.9,0.9,11.8,2.2,17.6c9.3,33.3,37.3,56.4,72.5,56.4c50.5,0,80.7-41.2,80.7-102.1c0-53.2-27.4-98.8-78.9-98.8
		c-32.9,0-63.7,22.5-73.6,59.3c-1.6,6.5-2.5,13.1-2.7,19.8L775.5,2011.9z"/>
	<path class="st4" d="M1022.5,1935.5c0-31.3-0.5-58.3-2.2-82.9h42.3l1.6,52.1h2.2c12.1-35.7,41.2-58.3,73.6-58.3
		c4.6-0.1,9.2,0.5,13.7,1.6v45.7c-5.4-1.2-10.9-1.7-16.5-1.6c-34,0-58.3,25.8-64.8,62c-1.4,7.4-2.1,15-2.2,22.5v141.6h-47.8V1935.5z
		"/>
	<path class="st4" d="M1240.5,1778c0.5,16.5-11.5,29.6-30.9,29.6c-15.9,0.2-28.9-12.5-29.1-28.3c0-0.4,0-0.9,0-1.3
		c-0.4-16.3,12.4-29.8,28.7-30.2c0.5,0,1,0,1.5,0C1228.9,1747.8,1240.5,1761,1240.5,1778z M1186.7,2118.3v-265.7h48.3v265.7
		L1186.7,2118.3z"/>
	<path class="st4" d="M1527,1728.6v321.1c0,23.6,0.5,50.5,2.2,68.6h-43.4l-2.2-46.1h-1.1c-14.8,29.6-47.2,52.1-90.6,52.1
		c-64.2,0-113.6-54.3-113.6-135c-0.5-88.4,54.3-142.7,119.1-142.7c40.6,0,68.1,19.2,80.1,40.6h1.1v-158.6H1527z M1478.7,1960.8
		c0.1-6.8-0.7-13.7-2.2-20.3c-7.1-32.8-36.2-56.1-69.7-56c-50,0-79.6,43.9-79.6,102.6c0,53.8,26.3,98.3,78.5,98.3
		c32.4,0,62-21.4,70.8-57.6c1.6-6.8,2.3-13.8,2.2-20.9L1478.7,1960.8z"/>
	<path class="st4" d="M1736.7,2118.3l-3.8-33.5h-1.6c-14.8,20.9-43.4,39.5-81.2,39.5c-53.8,0-81.2-37.7-81.2-76.3
		c0-64.2,57.1-99.5,159.7-98.8v-5.5c0-22-6-61.5-60.4-61.5c-24.4,0.1-48.4,6.9-69.2,19.8l-11-31.8c22-14.3,53.8-23.6,87.3-23.6
		c81.2,0,101,55.4,101,108.7v99.5c-0.4,21.3,1.1,42.6,4.4,63.7L1736.7,2118.3z M1729.6,1982.7c-52.7-1.1-112.5,8.2-112.5,59.8
		c0,31.3,20.9,46.1,45.6,46.1c28.8,0.7,54.8-17.3,64.2-44.6c1.7-4.9,2.6-10.1,2.7-15.4V1982.7z"/>
	<path class="st4" d="M1892.6,1776.3v76.3h69.2v36.8h-69.2v143.3c0,32.9,9.3,51.5,36.2,51.5c9.4,0.1,18.9-1.1,28-3.4l2.2,36.2
		c-13.7,4.8-28.3,7-42.8,6.6c-22.5,0-40.6-7.1-52.1-20.3c-13.7-14.3-18.7-37.7-18.7-69.2v-144.6h-41.1v-36.8h41.2v-63.6
		L1892.6,1776.3z"/>
	<path class="st4" d="M2022.1,1994.2c1.1,65.2,42.8,92.2,91.1,92.2c34.6,0,55.4-6,73.6-13.7l8.2,34.6c-17.2,7.7-46.1,16.5-88.4,16.5
		c-81.8,0-130.6-53.8-130.6-133.8c0-80,47.2-143.3,124.6-143.3c86.7,0,109.8,76.3,109.8,125.2c-0.1,7.5-0.6,15-1.6,22.5
		L2022.1,1994.2z M2163.8,1959.7c0.5-30.9-12.6-78.5-67-78.5c-48.9,0-70.3,45-74.1,78.5H2163.8z"/>
	<rect x="913.9" y="884.7" class="st5" width="790.9" height="653.2"/>
	<path class="st5" d="M1672.8,1752.4c-0.5,0-1,0.4-1.4,0.3c-0.5-0.2-0.8-0.8-0.6-1.3c0.1-0.2,0.2-0.4,0.4-0.5c0.4-0.2,0.9-0.2,1.3,0
		C1672.9,1751.2,1672.8,1751.9,1672.8,1752.4z"/>
	<path class="st5" d="M1714.8,1546.8c0-1.1-0.2-2.2-0.2-3.3v-177.7c0-53.8,0-107.5,0-161.2c0-44.9,0-89.7,0-134.5
		c0-57.3-0.1-114.6-0.3-171.9c0-48.6,0-97.3,0-145.9c0-6.6,0-6.7-6.9-6.9c-16.6,0-33.2,0-49.7,0c-17.2,0-34.3,0-51.5,0
		c-3.8,0-5.6-1.3-5.4-5.1c0-1.1,0-2.2,0-3.3c0-13.7-0.3-27.7,0-41.6c0-4.6-1.3-5.7-5.6-5.3c-3.8,0.3-7.6,0.3-11.4,0
		c-8-0.6-7.1,0.9-7.1,6.9c0,14.1,0,28.2,0,42.4c0,3.7-0.4,5.9-5.3,5.8c-9.6-0.3-9.7,0-9.7-9.9c0-1.1,0-2.2,0-3.4c0-11.7,0-23.4,0-35
		c0-6.9,0-6.9-7.3-6.9c-4.1,0-8.1,0-12.2,0c-3.4,0-4.8,1.3-4.7,4.8c0.2,4.9,0,9.8,0,14.7c0,10.3,0,20.6,0,30.9
		c0,3.4-0.9,5.2-4.6,4.7c-1.1,0-2.2,0-3.3,0.2c-50.5,0-101,0-151.6,0h-194.8h-97.8c-8.2,0-8.2,0-8.2-8.6c0-1.1,0-2.2,0-3.3
		c0-12.5-0.2-25,0-37.5c0-4-0.8-6.1-5.5-5.7c-4.9,0.3-9.8,0.3-14.6,0c-3.4-0.2-4.5,1.1-4.1,4.3c0.1,1.4,0.1,2.7,0,4.1
		c0,13.7,0,27.2,0,40.7c0,2.1,0.5,5.1-2,5.7c-3.6,1.2-7.6,1.1-11.2-0.2c-3.1-1.3-1.9-4.8-1.9-7.4c0-13.7,0-27.2,0-40.8
		c0-6.4-0.2-6.4-6.2-6.4c-4.1,0-8.2,0.2-12.2,0c-4.1-0.2-5.7,1-5.6,5.5c0.3,13.7,0,27.2,0,40.8c0,8.7,0,8.9-8.8,8.9
		c-31.8,0-63.6,0-95.4,0.2c-6.7,0-6.6,0-8.3,6.2c-0.6,2.4-0.8,4.8-0.7,7.3c0,6,0.2,11.9,0.2,17.9c0,52.7,0,105.4,0,158.1
		c0,65.5,0,130.9,0,196.4c0,21.8,0,43.5,0,65.2c5.6-5.4,11.2-10.8,16.8-16.3c1.2-1.2,2.6-2.2,4.1-3.1c0-26.6,0-53.1,0-79.6
		c0-40.5-0.4-81-0.2-121.4c0-12.1-2.3-10.7,11-10.7c64.6,0,129.3,0,194,0c52.6,0,105.3,0,158.1,0h233.1h173.3c1.7,0,2,1.5,2,3.4
		c0,4.9,0.3,9.8,0.3,14.7c0,54-0.1,108.1-0.3,162.2c0,56.8,0,113.5,0,170.3c0,16.8,0,33.7,0,50.5c0,6.1-0.2,6.3-6.2,6.4
		c-21.4,0-42.9,0-64.4,0h-90c-7.1,0-7.2,0-7.2,7.1c0,21.2,0,42.4,0,63.6c0,29.1,0,58.1,0,87.2c0,6.9-0.2,6.9-7.2,6.9
		c-80.7,0-157,0.3-237.7,0.4c-52.6,0-105.2,0-157.8,0c-0.8,1.8-1.9,3.4-3.2,4.9c-6.1,6.4-13.3,11.8-21.2,15.8c49.4,0,98.7,0,148.1,0
		c71.2,0,142.4,0,213.5,0h242.1C1712.6,1558.5,1714.2,1557.1,1714.8,1546.8z M1686.5,1537.7l-122.1,0.2c-1.3,0.1-2.6-0.4-3.4-1.4
		l132-132.2c1.4,3.3,1.9,6.9,1.3,10.5c0,38.6,0,77.1,0,115.6C1694.1,1537.7,1694.2,1537.6,1686.5,1537.7z"/>
	<path class="st5" d="M1309,1374.4c-16.2,0-32.4,0-48.5,0c-5.7,0-8.4-0.7-8.4-5c0.3-21.9,0.2-43.8,0-65.7c0-3.4,1.5-4.7,6.9-4.7
		c33.6,0.1,67.2,0.1,100.9,0c5.4,0,6.9,1.3,6.9,4.7c-0.1,22.1-0.1,44.2,0,66.4c0,3.7-2.5,4.5-7.4,4.4
		C1342.6,1374.3,1325.8,1374.4,1309,1374.4z"/>
	<path class="st5" d="M1155.2,1299.1c15.9,0,31.7,0,47.6,0c6.6,0,8.7,1.5,8.6,5.7c-0.2,21.3-0.2,42.6,0,63.9c0,4.3-2.3,5.7-8.7,5.7
		c-32.4-0.1-64.7-0.1-97.1,0c-6.6,0-8.7-1.5-8.6-5.7c0.3-21.3,0.3-42.6,0-63.8c0-4.3,2.3-5.8,8.7-5.7
		C1122.2,1299.3,1138.7,1299.1,1155.2,1299.1z"/>
	<path class="st5" d="M1309.2,1272.3c-16.5,0-33,0-49.5,0c-5.6,0-7.7-1.1-7.7-4.9c0.2-21.9,0.2-43.8,0-65.7c0-3.8,2.2-4.9,7.7-4.8
		c33.3,0,66.6,0,99.9,0c5.1,0,7.2,1,7.1,4.6c-0.2,22.1-0.2,44.3,0,66.4c0,3.4-2.1,4.6-7.2,4.5
		C1342.8,1272.2,1326,1272.3,1309.2,1272.3z"/>
	<path class="st5" d="M1211.3,1234.6c0,10.6-0.2,21.3,0,31.9c0,4.3-2.1,5.8-8.6,5.8c-32.4-0.2-64.7-0.2-97.1,0
		c-6.4,0-8.8-1.4-8.7-5.7c0.2-21.3,0.2-42.6,0-63.8c0-4.3,2.1-5.8,8.6-5.7c32.3,0.1,64.7,0.1,97.1,0c6.4,0,8.9,1.4,8.7,5.7
		C1211.1,1213.3,1211.3,1223.9,1211.3,1234.6z"/>
	<path class="st5" d="M1309.7,1094.8c16.5,0,33,0,49.5,0c5.6,0,7.7,1.1,7.6,4.9c-0.2,21.9-0.2,43.8,0,65.7c0,3.9-2.2,4.9-7.7,4.9
		c-33.3-0.1-66.6-0.1-99.9,0c-5.2,0-7.2-1-7.1-4.6c0.1-22.1,0.1-44.2,0-66.3c0-3.4,2.1-4.6,7.2-4.6
		C1276.1,1094.9,1293.1,1094.8,1309.7,1094.8z"/>
	<path class="st5" d="M1154.8,1094.9c15.9,0,31.7,0.2,47.6,0c7,0,9.1,1.6,9,6.1c-0.2,21.1-0.2,42.2,0,63.3c0,4.6-2.4,6-9.2,6
		c-32-0.2-64-0.2-96.1,0c-6.9,0-9.2-1.5-9.1-6c0.3-21.1,0.3-42.2,0-63.3c0-4.6,2.3-6.1,9.2-6
		C1122.4,1095.2,1138.6,1094.9,1154.8,1094.9L1154.8,1094.9z"/>
	<path class="st5" d="M1463.3,1299.1c15.9,0,31.7,0,47.6,0c6.5,0,8.6,1.5,8.6,5.7c-0.2,21.3-0.2,42.6,0,63.9c0,4.3-2.3,5.7-8.7,5.7
		c-32.3-0.1-64.7-0.1-97.1,0c-6.6,0-8.7-1.5-8.6-5.7c0.2-21.3,0.2-42.6,0-63.8c0-4.3,2.3-5.8,8.7-5.7
		C1430.3,1299.3,1446.9,1299.1,1463.3,1299.1z"/>
	<path class="st5" d="M1519.5,1234.6c0,10.6-0.2,21.3,0,31.9c0,4.3-2.1,5.8-8.6,5.8c-32.3-0.2-64.7-0.2-97.1,0
		c-6.4,0-8.8-1.4-8.7-5.7c0.2-21.3,0.2-42.6,0-63.8c0-4.3,2.1-5.8,8.6-5.7c32.4,0.1,64.7,0.1,97.1,0c6.4,0,8.9,1.4,8.7,5.7
		C1519.2,1213.3,1519.5,1223.9,1519.5,1234.6z"/>
	<path class="st5" d="M1462.9,1094.9c15.9,0,31.7,0.2,47.6,0c7,0,9.1,1.6,9.1,6.1c-0.3,21.1-0.3,42.2,0,63.3c0,4.6-2.4,6-9.2,6
		c-32-0.2-64-0.2-96.1,0c-6.9,0-9.2-1.5-9.1-6c0.3-21.1,0.3-42.2,0-63.3c0-4.6,2.3-6.1,9.2-6
		C1430.6,1095.2,1446.8,1094.9,1462.9,1094.9L1462.9,1094.9z"/>
	
		<ellipse transform="matrix(1 -2.042320e-03 2.042320e-03 1 -2.8243 2.0067)" class="st5" cx="981.1" cy="1383.9" rx="208.1" ry="208.1"/>
	<polygon class="st5" points="814.5,1282.4 814.4,1282.4 814.4,1282.4 	"/>
	<path class="st5" d="M1197,1399.1c6.4-118.2-84.2-219.2-202.4-225.7c-118.2-6.4-219.3,84.2-225.7,202.4
		c-6.4,118.2,84.2,219.2,202.4,225.7c0.2,0,0.3,0,0.5,0c117.9,6.5,218.7-83.9,225.2-201.7C1197,1399.5,1197,1399.3,1197,1399.1z
		 M1173.5,1442.7c-4.6,15.9-11.2,31.1-19.6,45.3c-0.3,0.6-0.6,1.2-0.9,1.8l0,0h-0.8l0,0c-0.3-1.5-1.3-2.8-2.7-3.4
		c-5.8-3.4-11.5-6.9-17.2-10.3c-0.6-0.4-1.3-0.8-2.1-1.1c-0.9-0.4-1.9,0-2.4,0.9c-0.5,0.7-0.4,1.6,0.2,2.2c0.5,0.5,1,0.9,1.5,1.2
		c5.9,3.6,12,7.2,17.9,10.8c1.4,1,3.2,1,4.6,0l0,0v1.5c-0.5,0.3-0.9,0.9-0.9,1.5l0,0c-5.3,8-11,15.8-17.2,23.2
		c-14.1,16.3-30.7,30.3-49.3,41.3c-0.4,0.3-0.9,0.5-1.4,0.8c-1.3,0.9-2.1,0.5-2.7-0.9c-2.4-4.6-4.8-9.1-7.2-13.7
		c-0.7-1.3-1.3-2.6-2.1-3.8c-0.7-1.2-2-2-3.4-1.1c-1.5,0.9-0.9,2-0.4,3.2c2.4,5,5,9.9,7.3,15c2.3,5,3.4,4.2-2.7,7.3
		c-22.3,11.3-46.6,18.3-71.5,20.6c-5.1,0.5-10.3,0.7-15.4,0.9c-4.2,0-4.2,0-4-4l1.1-21.8c0-3.2-0.5-4.5-2-4.3
		c-2.4,0.4-2,2.5-2.1,4.1c-0.4,7.5-0.8,15-1.2,22.6c-0.2,3.2-0.3,3.2-3.4,3.1c-22.3-0.9-44.2-5.7-64.8-14.1
		c-9.1-3.6-17.9-8-26.3-12.9c0.4-0.4,0.7-0.9,1-1.4l12.6-20.6c1.4-2.3,1.4-3.8,0-4.4c-2.1-0.8-2.7,1-3.4,2.3
		c-3.4,5.6-9,14.6-12.4,20.3c-0.4,0.6-0.7,1.2-0.9,1.8c-7.3-4.5-14.3-9.4-21-14.7c-18.5-14.8-34.1-32.9-46.1-53.4
		c-1.5-2.6-1.5-2.6,1.1-4.2l19.8-11.7c0.9-0.5,1.8-1.1,2.7-1.7c0.9-0.5,1.2-1.6,0.7-2.5c-0.1-0.1-0.1-0.2-0.2-0.3
		c-0.6-0.9-1.9-1.2-2.8-0.7l-2.7,1.6c-6.2,3.7-12.5,7.4-18.8,11.1c-3.4,2-3.4,2-5.2-1.4c-5.3-10.4-9.7-21.1-13.1-32.2
		c-4.4-14.1-7.2-28.7-8.4-43.4c-0.4-5.1-0.4-10.3-0.7-15.4c0-2,1-2.4,2.7-2.3l19.4,0.8h2.8c2.5,0,3.7-0.8,3.4-2.2
		c-0.2-2.1-2-2.2-3.4-2.3c-1.8-0.1-3.7-0.1-5.5,0c-5.5,0.2-10.8-0.2-16.3-0.4c-2.8,0-2.8-0.2-2.8-3c0.2-6.9,0.9-13.8,2.1-20.6
		c2-13.6,5.5-26.9,10.3-39.8c3.8-10.1,8.4-19.9,13.7-29.3c0.2-0.5,0.4-0.9,0.6-1.4c0.3-0.3,0.5-0.6,0.6-1l3.8,2.2l17.9,10.9
		c1.3,0.8,3,2,4.1,0c1.1-2-0.7-2.8-2-3.6c-5.8-3.4-11.7-7.1-17.6-10.6l-4.2-2.3v-0.2c0.4-0.5,0.3-1.3,1-1.5
		c5.7-8.4,11.8-16.5,18.4-24.3c14.2-16.2,31-30,49.7-40.8c2.3-1.4,2.4-1.3,3.8,1.1c3.4,6.2,6.9,12.4,10.5,18.6
		c0.8,1.4,1.4,3.4,3.7,2.7c1.4-0.5,1.3-2.1-0.2-4.8c-3.4-6.1-6.9-12.2-10.3-18.4c-1.4-2.6-1.4-2.7,1.3-4.1
		c23.2-11.9,48.5-19.1,74.5-21.2c5.7-0.5,11.3-0.6,17.2-0.8c2.4,0,2.6,0.2,2.6,2.8c-0.2,6.9-0.5,13.4-0.8,20.2
		c-0.2,1.1-0.1,2.3,0.2,3.4c0.3,1,0.8,1.7,1.9,1.7c1,0,1.8-0.7,2-1.6c0.2-1,0.3-2.1,0.3-3.1c0.2-6.6,0.3-13.2,0.5-19.8
		c0-3.4,0.2-3.4,3.7-3.3c25.8,1.4,51,7.9,74.3,19.1c5.7,2.7,11,5.8,16.3,9l-0.2,0.3l-2.8,4.7c-3.4,5.6-6.9,11.2-10.3,16.8
		c-0.7,0.8-1.1,1.8-1.2,2.9c-0.1,1.1,0.8,2,1.8,2c0,0,0.1,0,0.1,0c1.2,0,1.8-1,2.3-1.9c3.7-6,9.8-16.1,13.5-22.2
		c0.1-0.1,0.2-0.3,0.2-0.4c23.8,14.8,44.1,34.6,59.6,57.9c2.2,3.4,4.3,6.7,6.3,10.1s1.7,3.1-1.2,4.7l-16.3,9.1c-1,0.6-2,1.2-3,1.9
		c-0.8,0.6-1,1.7-0.4,2.5c0,0,0,0,0,0c0.4,0.9,1.5,1.2,2.4,0.8c0.7-0.3,1.4-0.6,2.1-1l16.2-9.1c4.3-2.3,3.4-2.8,5.9,1.9
		c13.3,26.5,20.5,55.7,21.1,85.4c0,8.1,0.7,6.6-6.3,6.4l-16.6-0.3c-0.7-0.1-1.3-0.1-2,0c-1,0.2-1.7,1-1.6,2
		c-0.1,0.9,0.6,1.8,1.6,1.8c0,0,0.1,0,0.1,0c1.1,0,2.1,0,3.2,0.2l18.2,0.8c3.2,0,3.3,0.2,3.1,3.4
		C1180,1413.1,1177.6,1428.2,1173.5,1442.7L1173.5,1442.7z"/>
	<path class="st5" d="M1103.6,1460.2c-2.2-1.8-4.8-3.3-7.4-4.4l0,0c-2.4-2.1-5-3.8-7.9-5.1c-2.6-2-5.4-3.8-8.3-5.3l0,0
		c-0.4,0-0.6-0.5-0.9-0.7l0,0c-0.3-0.5-0.9-0.9-1.5-0.9l0,0c-0.3-0.6-0.9-0.9-1.5-0.9c-1-0.6-2.1-1.2-3.1-1.8
		c-0.1-0.4-0.4-0.7-0.8-0.8l0,0c-0.3-0.6-0.9-0.9-1.5-0.9c-0.3-0.6-0.9-0.9-1.5-0.9c-0.3-0.6-0.9-0.9-1.5-0.9
		c-0.3-0.6-0.9-0.9-1.5-0.9c-0.1-0.4-0.4-0.7-0.8-0.7l0,0c-0.3-0.6-0.8-1-1.5-1c-0.3-0.6-0.9-0.9-1.5-0.9c-0.1-0.4-0.4-0.6-0.8-0.7
		l0.8,0.7l0,0c-0.3,0-0.5-0.4-0.8-0.7l0,0c-0.3-0.5-0.9-0.9-1.5-0.9l0,0c-4-3-8.2-5.8-12.5-8.3c-16.7-10.8-33.6-21.5-50.3-32.2
		c-2.6-1.6-5.1-3.4-7.7-4.9c-1.2-0.5-1.9-1.9-1.4-3.2c0.1-0.3,0.3-0.5,0.5-0.7c0.3-0.5,0.7-1.1,1-1.7l19.2-34.1l0,0
		c0.6-0.3,0.9-0.9,0.8-1.5l0,0c0.1-0.2,0.2-0.4,0.2-0.6c0.4-0.2,0.7-0.5,0.7-1l0,0c0.1-0.1,0.2-0.3,0.2-0.5c0.4-0.2,0.7-0.6,0.7-1
		l0,0c0.5-0.3,0.9-0.9,0.9-1.5l0,0c0.6-0.3,0.9-0.9,0.8-1.5l0,0c0.1-0.2,0.2-0.4,0.2-0.6c2.6-3.7,4.9-7.6,6.9-11.7
		c1.5-1.8,2.6-3.9,3.4-6.1l0,0c0.7-0.9,1.3-1.8,1.8-2.7c0.5-1,1.6-1.8,1.5-3.7c-1.6,1.5-2.8,3.5-3.4,5.7l0,0
		c-1.8,1.8-3.2,3.9-4.2,6.2l0,0c-2.7,3.6-5,7.4-7.1,11.4l0,0c-0.4,0.1-0.6,0.4-0.7,0.8l0.7-0.8l0,0c0,0.3-0.5,0.5-0.7,0.8l0,0
		c-0.6,0.2-1,0.8-1,1.4c-0.6,0.3-0.9,0.9-0.9,1.5c-0.4,0.1-0.6,0.4-0.6,0.8l0.6-0.8l0,0l-0.6,0.8c-0.2,0.2-0.3,0.4-0.3,0.6
		c-0.4,0.2-0.6,0.5-0.7,0.9l0,0c-0.8,1.1-1.6,2.1-2.4,3.2c-7,10.8-14,21.7-21.1,32.5c-1.9,3-2,2.9-5,0.9l-2-1.2
		c-2.8-1.6-2.8-1.6-4.5,1c-2.7,4.3-2.7,4.3,1.6,6.7c0.4,0.3,0.9,0.5,1.4,0.7c2.2,1.2,2.3,1.4,1,3.6c-0.3,0.6-0.7,1.1-1.1,1.6
		c-1.7,2.5-1.7,2.5,1,4c2.7,1.5,2.5,1.5,4.1-1.2c0.4-0.5,0.7-1.1,1-1.7c0.8-1.7,1.8-2,3.4-1c2.4,1.5,4.8,2.8,7.2,4.2
		c14.3,8.2,28.5,16.4,42.8,24.6c7.7,4.4,15.1,9.1,23.1,12.9c0.4,0.2,0.7,0.4,1,0.7c0.1,0.2,0.3,0.2,0.5,0.2c0.2,0.4,0.6,0.7,1,0.7
		l0,0c0.3,0.6,0.9,0.9,1.5,0.9l0,0c0.6,0.7,1.4,1.1,2.3,1c0.1,0.4,0.4,0.6,0.8,0.6l-0.8-0.7l0,0c0.3,0.2,0.5,0.4,0.8,0.7
		c0.1,0.2,0.3,0.2,0.5,0.2c0.2,0.4,0.6,0.7,1,0.7l0,0c0.1,0.1,0.3,0.2,0.5,0.2c0.2,0.4,0.6,0.7,1.1,0.8l0,0c0.3,0.6,0.9,0.9,1.5,0.9
		c0.3,0.6,0.9,0.9,1.5,0.8l0,0c0.1,0.1,0.3,0.2,0.5,0.2c0.2,0.4,0.6,0.6,1,0.7l0,0c0.1,0.2,0.3,0.2,0.5,0.2c0.2,0.4,0.6,0.7,1.1,0.7
		l0,0c0.3,0.6,0.9,0.9,1.5,0.9l0,0c0.3,0.6,0.9,0.9,1.5,0.9l0,0c2.9,2,6,3.8,9.2,5.3l6.9,4.3c3,2,6.1,3.8,9.3,5.2
		c2,1.9,4.6,3.1,7.4,3.4l-7.4-4.3L1103.6,1460.2z"/>
	<path class="st5" d="M1058.7,1434.9c0.2,0.4,0.5,0.7,1,0.7L1058.7,1434.9z"/>
	<path class="st5" d="M1079.9,1445.4c-0.1-0.4-0.4-0.7-0.9-0.7L1079.9,1445.4z"/>
	<rect x="896.7" y="853.8" class="st0" width="790.9" height="653.2"/>
	<path class="st4" d="M1655.7,1721.5c-0.5,0-1,0.4-1.4,0.3c-0.5-0.2-0.8-0.8-0.6-1.3c0.1-0.2,0.2-0.4,0.4-0.5c0.4-0.2,0.9-0.2,1.3,0
		C1655.7,1720.4,1655.6,1721,1655.7,1721.5z"/>
	<path class="st4" d="M1697.7,1515.9c0-1.1-0.2-2.2-0.2-3.3V1335c0-53.8,0-107.5,0-161.2c0-44.9,0-89.7,0-134.5
		c0-57.3-0.1-114.6-0.3-171.9c0-48.6,0-97.3,0-145.9c0-6.6,0-6.7-6.9-6.9c-16.6,0-33.2,0-49.7,0c-17.2,0-34.3,0-51.5,0
		c-3.8,0-5.6-1.3-5.4-5.1c0-1.1,0-2.2,0-3.3c0-13.7-0.3-27.7,0-41.6c0-4.6-1.3-5.7-5.6-5.3c-3.8,0.3-7.6,0.3-11.4,0
		c-8-0.6-7.1,0.9-7.1,6.9c0,14.1,0,28.2,0,42.4c0,3.7-0.4,5.9-5.3,5.8c-9.6-0.3-9.7,0-9.7-9.9c0-1.1,0-2.2,0-3.4c0-11.7,0-23.4,0-35
		c0-6.9,0-6.9-7.3-6.9c-4.1,0-8.1,0-12.2,0c-3.4,0-4.8,1.3-4.7,4.8c0.2,4.9,0,9.8,0,14.7c0,10.3,0,20.6,0,30.9
		c0,3.4-0.9,5.2-4.6,4.7c-1.1,0-2.2,0-3.3,0.2c-50.5,0-101,0-151.6,0h-194.8h-97.8c-8.2,0-8.2,0-8.2-8.6c0-1.1,0-2.2,0-3.3
		c0-12.5-0.2-25,0-37.5c0-4-0.8-6.1-5.5-5.7c-4.9,0.3-9.8,0.3-14.6,0c-3.4-0.2-4.5,1.1-4.1,4.3c0.1,1.4,0.1,2.7,0,4.1
		c0,13.7,0,27.2,0,40.7c0,2.1,0.5,5.1-2,5.7c-3.6,1.2-7.6,1.1-11.2-0.2c-3.1-1.3-1.9-4.8-1.9-7.4c0-13.7,0-27.2,0-40.8
		c0-6.4-0.2-6.4-6.2-6.4c-4.1,0-8.2,0.2-12.2,0c-4.1-0.2-5.7,1-5.6,5.5c0.3,13.7,0,27.2,0,40.8c0,8.7,0,8.9-8.8,8.9
		c-31.8,0-63.6,0-95.4,0.2c-6.7,0-6.6,0-8.3,6.2c-0.6,2.4-0.8,4.8-0.7,7.3c0,6,0.2,11.9,0.2,17.9c0,52.7,0,105.4,0,158.1
		c0,65.5,0,130.9,0,196.4c0,21.8,0,43.5,0,65.2c5.6-5.4,11.2-10.8,16.8-16.3c1.2-1.2,2.6-2.2,4.1-3.1c0-26.6,0-53.1,0-79.6
		c0-40.5-0.4-81-0.2-121.4c0-12.1-2.3-10.7,11-10.7c64.6,0,129.3,0,194,0c52.6,0,105.3,0,158.1,0h233.1H1674c1.7,0,2,1.5,2,3.4
		c0,4.9,0.3,9.8,0.3,14.7c0,54-0.1,108.1-0.3,162.2c0,56.8,0,113.5,0,170.3c0,16.8,0,33.7,0,50.5c0,6.1-0.2,6.3-6.2,6.4
		c-21.4,0-42.9,0-64.4,0h-90c-7.1,0-7.2,0-7.2,7.1c0,21.2,0,42.4,0,63.6c0,29.1,0,58.1,0,87.2c0,6.9-0.2,6.9-7.2,6.9
		c-80.7,0-157,0.3-237.7,0.4c-52.6,0-105.2,0-157.8,0c-0.8,1.8-1.9,3.4-3.2,4.9c-6.1,6.4-13.3,11.8-21.2,15.8c49.4,0,98.7,0,148.1,0
		c71.2,0,142.4,0,213.5,0H1685C1695.4,1527.7,1697,1526.2,1697.7,1515.9z M1669.4,1506.8l-122.1,0.2c-1.3,0.1-2.6-0.4-3.4-1.4
		l132-132.2c1.4,3.3,1.9,6.9,1.3,10.5c0,38.6,0,77.1,0,115.6C1677,1506.8,1677,1506.8,1669.4,1506.8z"/>
	<path class="st4" d="M1291.9,1343.5c-16.2,0-32.4,0-48.5,0c-5.7,0-8.4-0.7-8.4-5c0.3-21.9,0.2-43.8,0-65.7c0-3.4,1.5-4.7,6.9-4.7
		c33.6,0.1,67.2,0.1,100.9,0c5.4,0,6.9,1.3,6.9,4.7c-0.1,22.1-0.1,44.2,0,66.4c0,3.7-2.5,4.5-7.4,4.4
		C1325.5,1343.4,1308.7,1343.5,1291.9,1343.5z"/>
	<path class="st4" d="M1138.1,1268.3c15.9,0,31.7,0,47.6,0c6.6,0,8.7,1.5,8.6,5.7c-0.2,21.3-0.2,42.6,0,63.9c0,4.3-2.3,5.7-8.7,5.7
		c-32.4-0.1-64.7-0.1-97.1,0c-6.6,0-8.7-1.5-8.6-5.7c0.3-21.3,0.3-42.6,0-63.8c0-4.3,2.3-5.8,8.7-5.7
		C1105.1,1268.4,1121.6,1268.3,1138.1,1268.3z"/>
	<path class="st4" d="M1292.1,1241.4c-16.5,0-33,0-49.5,0c-5.6,0-7.7-1.1-7.7-4.9c0.2-21.9,0.2-43.8,0-65.7c0-3.8,2.2-4.9,7.7-4.8
		c33.3,0,66.6,0,99.9,0c5.1,0,7.2,1,7.1,4.6c-0.2,22.1-0.2,44.3,0,66.4c0,3.4-2.1,4.6-7.2,4.5
		C1325.7,1241.3,1308.9,1241.4,1292.1,1241.4z"/>
	<path class="st4" d="M1194.2,1203.7c0,10.6-0.2,21.3,0,31.9c0,4.3-2.1,5.8-8.6,5.8c-32.4-0.2-64.7-0.2-97.1,0
		c-6.4,0-8.8-1.4-8.7-5.7c0.2-21.3,0.2-42.6,0-63.8c0-4.3,2.1-5.8,8.6-5.7c32.3,0.1,64.7,0.1,97.1,0c6.4,0,8.9,1.4,8.7,5.7
		C1194,1182.4,1194.2,1193,1194.2,1203.7z"/>
	<path class="st4" d="M1292.6,1063.9c16.5,0,33,0,49.5,0c5.6,0,7.7,1.1,7.6,4.9c-0.2,21.9-0.2,43.8,0,65.7c0,3.9-2.2,4.9-7.7,4.9
		c-33.3-0.1-66.6-0.1-99.9,0c-5.2,0-7.2-1-7.1-4.6c0.1-22.1,0.1-44.2,0-66.3c0-3.4,2.1-4.6,7.2-4.6
		C1259,1064,1275.9,1063.9,1292.6,1063.9z"/>
	<path class="st4" d="M1137.6,1064c15.9,0,31.7,0.2,47.6,0c7,0,9.1,1.6,9,6.1c-0.2,21.1-0.2,42.2,0,63.3c0,4.6-2.4,6-9.2,6
		c-32-0.2-64-0.2-96.1,0c-6.9,0-9.2-1.5-9.1-6c0.3-21.1,0.3-42.2,0-63.3c0-4.6,2.3-6.1,9.2-6
		C1105.3,1064.3,1121.5,1064.1,1137.6,1064L1137.6,1064z"/>
	<path class="st4" d="M1446.2,1268.3c15.9,0,31.7,0,47.6,0c6.5,0,8.6,1.5,8.6,5.7c-0.2,21.3-0.2,42.6,0,63.9c0,4.3-2.3,5.7-8.7,5.7
		c-32.3-0.1-64.7-0.1-97.1,0c-6.6,0-8.7-1.5-8.6-5.7c0.2-21.3,0.2-42.6,0-63.8c0-4.3,2.3-5.8,8.7-5.7
		C1413.2,1268.4,1429.7,1268.3,1446.2,1268.3z"/>
	<path class="st4" d="M1502.4,1203.7c0,10.6-0.2,21.3,0,31.9c0,4.3-2.1,5.8-8.6,5.8c-32.3-0.2-64.7-0.2-97.1,0
		c-6.4,0-8.8-1.4-8.7-5.7c0.2-21.3,0.2-42.6,0-63.8c0-4.3,2.1-5.8,8.6-5.7c32.4,0.1,64.7,0.1,97.1,0c6.4,0,8.9,1.4,8.7,5.7
		C1502.1,1182.4,1502.4,1193,1502.4,1203.7z"/>
	<path class="st4" d="M1445.8,1064c15.9,0,31.7,0.2,47.6,0c7,0,9.1,1.6,9.1,6.1c-0.3,21.1-0.3,42.2,0,63.3c0,4.6-2.4,6-9.2,6
		c-32-0.2-64-0.2-96.1,0c-6.9,0-9.2-1.5-9.1-6c0.3-21.1,0.3-42.2,0-63.3c0-4.6,2.3-6.1,9.2-6
		C1413.4,1064.3,1429.6,1064.1,1445.8,1064L1445.8,1064z"/>
	
		<ellipse transform="matrix(1 -2.042320e-03 2.042320e-03 1 -2.7613 1.9716)" class="st0" cx="964" cy="1353" rx="208.1" ry="208.1"/>
	<polygon class="st4" points="797.3,1251.5 797.3,1251.6 797.2,1251.6 	"/>
	<path class="st4" d="M1179.9,1368.2c6.4-118.2-84.2-219.2-202.4-225.7c-118.2-6.4-219.3,84.2-225.7,202.4
		c-6.4,118.2,84.2,219.2,202.4,225.7c0.2,0,0.3,0,0.5,0c117.9,6.5,218.7-83.9,225.2-201.7
		C1179.9,1368.7,1179.9,1368.4,1179.9,1368.2z M1156.3,1411.8c-4.6,15.9-11.2,31.1-19.6,45.3c-0.3,0.6-0.6,1.2-0.9,1.8l0,0h-0.8l0,0
		c-0.3-1.5-1.3-2.8-2.7-3.4c-5.8-3.4-11.5-6.9-17.2-10.3c-0.6-0.4-1.3-0.8-2.1-1.1c-0.9-0.4-1.9,0-2.4,0.9c-0.5,0.7-0.4,1.6,0.2,2.2
		c0.5,0.5,1,0.9,1.5,1.2c5.9,3.6,12,7.2,17.9,10.8c1.4,1,3.2,1,4.6,0l0,0v1.5c-0.5,0.3-0.9,0.9-0.9,1.5l0,0
		c-5.3,8-11,15.8-17.2,23.2c-14.1,16.3-30.7,30.3-49.3,41.3c-0.4,0.3-0.9,0.5-1.4,0.8c-1.3,0.9-2.1,0.5-2.7-0.9
		c-2.4-4.6-4.8-9.1-7.2-13.7c-0.7-1.3-1.3-2.6-2.1-3.8s-2-2-3.4-1.1c-1.5,0.9-0.9,2-0.4,3.2c2.4,5,5,9.9,7.3,15s3.4,4.2-2.7,7.3
		c-22.3,11.3-46.6,18.3-71.5,20.6c-5.1,0.5-10.3,0.7-15.4,0.9c-4.2,0-4.2,0-4-4l1.1-21.8c0-3.2-0.5-4.5-2-4.3
		c-2.4,0.4-2,2.5-2.1,4.1c-0.4,7.5-0.8,15-1.2,22.6c-0.2,3.2-0.3,3.2-3.4,3.1c-22.3-0.9-44.2-5.7-64.8-14.1
		c-9.1-3.6-17.9-8-26.3-12.9c0.4-0.4,0.7-0.9,1-1.4l12.6-20.6c1.4-2.3,1.4-3.8,0-4.4c-2.1-0.8-2.7,1-3.4,2.3
		c-3.4,5.6-9,14.6-12.4,20.3c-0.4,0.6-0.7,1.2-0.9,1.8c-7.3-4.5-14.3-9.4-21-14.7c-18.5-14.8-34.1-32.9-46.1-53.4
		c-1.5-2.6-1.5-2.6,1.1-4.2l19.8-11.7c0.9-0.5,1.8-1.1,2.7-1.7c0.9-0.5,1.2-1.6,0.7-2.5c-0.1-0.1-0.1-0.2-0.2-0.3
		c-0.6-0.9-1.9-1.2-2.8-0.7l-2.7,1.6c-6.2,3.7-12.5,7.4-18.8,11.1c-3.4,2-3.4,2-5.2-1.4c-5.3-10.4-9.7-21.1-13.1-32.2
		c-4.4-14.1-7.2-28.7-8.4-43.4c-0.4-5.1-0.4-10.3-0.7-15.4c0-2,1-2.4,2.7-2.3l19.4,0.8h2.8c2.5,0,3.7-0.8,3.4-2.2
		c-0.2-2.1-2-2.2-3.4-2.3c-1.8-0.1-3.7-0.1-5.5,0c-5.5,0.2-10.8-0.2-16.3-0.4c-2.8,0-2.8-0.2-2.8-3c0.2-6.9,0.9-13.8,2.1-20.6
		c2-13.6,5.5-26.9,10.3-39.8c3.8-10.1,8.4-19.9,13.7-29.3c0.2-0.5,0.4-0.9,0.6-1.4c0.3-0.3,0.5-0.6,0.6-1l3.8,2.2l17.9,10.9
		c1.3,0.8,3,2,4.1,0c1.1-2-0.7-2.8-2-3.6c-5.8-3.4-11.7-7.1-17.6-10.6l-4.2-2.3v-0.2c0.4-0.5,0.3-1.3,1-1.5
		c5.7-8.4,11.8-16.5,18.4-24.3c14.2-16.2,31-30,49.7-40.8c2.3-1.4,2.4-1.3,3.8,1.1c3.4,6.2,6.9,12.4,10.5,18.6
		c0.8,1.4,1.4,3.4,3.7,2.7c1.4-0.5,1.3-2.1-0.2-4.8c-3.4-6.1-6.9-12.2-10.3-18.4c-1.4-2.6-1.4-2.7,1.3-4.1
		c23.2-11.9,48.5-19.1,74.5-21.2c5.7-0.5,11.3-0.6,17.2-0.8c2.4,0,2.6,0.2,2.6,2.8c-0.2,6.9-0.5,13.4-0.8,20.2
		c-0.2,1.1-0.1,2.3,0.2,3.4c0.3,1,0.8,1.7,1.9,1.7c1,0,1.8-0.7,2-1.6c0.2-1,0.3-2.1,0.3-3.1c0.2-6.6,0.3-13.2,0.5-19.8
		c0-3.4,0.2-3.4,3.7-3.3c25.8,1.4,51,7.9,74.3,19.1c5.7,2.7,11,5.8,16.3,9l-0.2,0.3l-2.8,4.7c-3.4,5.6-6.9,11.2-10.3,16.8
		c-0.7,0.8-1.1,1.8-1.2,2.9c-0.1,1.1,0.8,2,1.8,2c0,0,0.1,0,0.1,0c1.2,0,1.8-1,2.3-1.9c3.7-6,9.8-16.1,13.5-22.2
		c0.1-0.1,0.2-0.3,0.2-0.4c23.8,14.8,44.1,34.6,59.6,57.9c2.2,3.4,4.3,6.7,6.3,10.1s1.7,3.1-1.2,4.7l-16.3,9.1c-1,0.6-2,1.2-3,1.9
		c-0.8,0.6-1,1.7-0.4,2.5c0,0,0,0,0,0c0.4,0.9,1.5,1.2,2.4,0.8c0.7-0.3,1.4-0.6,2.1-1l16.2-9.1c4.3-2.3,3.4-2.8,5.9,1.9
		c13.3,26.5,20.5,55.7,21.1,85.4c0,8.1,0.7,6.6-6.3,6.4l-16.6-0.3c-0.7-0.1-1.3-0.1-2,0c-1,0.2-1.7,1-1.6,2
		c-0.1,0.9,0.6,1.8,1.6,1.8c0,0,0.1,0,0.1,0c1.1,0,2.1,0,3.2,0.2l18.2,0.8c3.2,0,3.3,0.2,3.1,3.4
		C1162.8,1382.3,1160.5,1397.3,1156.3,1411.8L1156.3,1411.8z"/>
	<path class="st4" d="M1086.5,1429.3c-2.2-1.8-4.8-3.3-7.4-4.4l0,0c-2.4-2.1-5-3.8-7.9-5.1c-2.6-2-5.4-3.8-8.3-5.3l0,0
		c-0.4,0-0.6-0.5-0.9-0.7l0,0c-0.3-0.5-0.9-0.9-1.5-0.9l0,0c-0.3-0.6-0.9-0.9-1.5-0.9c-1-0.6-2.1-1.2-3.1-1.8
		c-0.1-0.4-0.4-0.7-0.8-0.8l0,0c-0.3-0.6-0.9-0.9-1.5-0.9c-0.3-0.6-0.9-0.9-1.5-0.9c-0.3-0.6-0.9-0.9-1.5-0.9
		c-0.3-0.6-0.9-0.9-1.5-0.9c-0.1-0.4-0.4-0.7-0.8-0.7l0,0c-0.3-0.6-0.8-1-1.5-1c-0.3-0.6-0.9-0.9-1.5-0.9c-0.1-0.4-0.4-0.6-0.8-0.7
		l0.8,0.7l0,0c-0.3,0-0.5-0.4-0.8-0.7l0,0c-0.3-0.5-0.9-0.9-1.5-0.9l0,0c-4-3-8.2-5.8-12.5-8.3c-16.7-10.8-33.6-21.5-50.3-32.2
		c-2.6-1.6-5.1-3.4-7.7-4.9c-1.2-0.5-1.9-1.9-1.4-3.2c0.1-0.3,0.3-0.5,0.5-0.7c0.3-0.5,0.7-1.1,1-1.7l19.2-34.1l0,0
		c0.6-0.3,0.9-0.9,0.8-1.5l0,0c0.1-0.2,0.2-0.4,0.2-0.6c0.4-0.2,0.7-0.5,0.7-1l0,0c0.1-0.1,0.2-0.3,0.2-0.5c0.4-0.2,0.7-0.6,0.7-1
		l0,0c0.5-0.3,0.9-0.9,0.9-1.5l0,0c0.6-0.3,0.9-0.9,0.8-1.5l0,0c0.1-0.2,0.2-0.4,0.2-0.6c2.6-3.7,4.9-7.6,6.9-11.7
		c1.5-1.8,2.6-3.9,3.4-6.1l0,0c0.7-0.9,1.3-1.8,1.8-2.7c0.5-1,1.6-1.8,1.5-3.7c-1.6,1.5-2.8,3.5-3.4,5.7l0,0
		c-1.8,1.8-3.2,3.9-4.2,6.2l0,0c-2.7,3.6-5,7.4-7.1,11.4l0,0c-0.4,0.1-0.6,0.4-0.7,0.8l0.7-0.8l0,0c0,0.3-0.5,0.5-0.7,0.8l0,0
		c-0.6,0.2-1,0.8-1,1.4c-0.6,0.3-0.9,0.9-0.9,1.5c-0.4,0.1-0.6,0.4-0.6,0.8l0.6-0.8l0,0l-0.6,0.8c-0.2,0.2-0.3,0.4-0.3,0.6
		c-0.4,0.2-0.6,0.5-0.7,0.9l0,0c-0.8,1.1-1.6,2.1-2.4,3.2c-7,10.8-14,21.7-21.1,32.5c-1.9,3-2,2.9-5,0.9l-2-1.2
		c-2.8-1.6-2.8-1.6-4.5,1c-2.7,4.3-2.7,4.3,1.6,6.7c0.4,0.3,0.9,0.5,1.4,0.7c2.2,1.2,2.3,1.4,1,3.6c-0.3,0.6-0.7,1.1-1.1,1.6
		c-1.7,2.5-1.7,2.5,1,4c2.7,1.5,2.5,1.5,4.1-1.2c0.4-0.5,0.7-1.1,1-1.7c0.8-1.7,1.8-2,3.4-1c2.4,1.5,4.8,2.8,7.2,4.2
		c14.3,8.2,28.5,16.4,42.8,24.6c7.7,4.4,15.1,9.1,23.1,12.9c0.4,0.2,0.7,0.4,1,0.7c0.1,0.2,0.3,0.2,0.5,0.2c0.2,0.4,0.6,0.7,1,0.7
		l0,0c0.3,0.6,0.9,0.9,1.5,0.9l0,0c0.6,0.7,1.4,1.1,2.3,1c0.1,0.4,0.4,0.6,0.8,0.6l-0.8-0.7l0,0c0.3,0.2,0.5,0.4,0.8,0.7
		c0.1,0.2,0.3,0.2,0.5,0.2c0.2,0.4,0.6,0.7,1,0.7l0,0c0.1,0.1,0.3,0.2,0.5,0.2c0.2,0.4,0.6,0.7,1.1,0.8l0,0c0.3,0.6,0.9,0.9,1.5,0.9
		c0.3,0.6,0.9,0.9,1.5,0.8l0,0c0.1,0.1,0.3,0.2,0.5,0.2c0.2,0.4,0.6,0.6,1,0.7l0,0c0.1,0.2,0.3,0.2,0.5,0.2c0.2,0.4,0.6,0.7,1.1,0.7
		l0,0c0.3,0.6,0.9,0.9,1.5,0.9l0,0c0.3,0.6,0.9,0.9,1.5,0.9l0,0c2.9,2,6,3.8,9.2,5.3l6.9,4.3c3,2,6.1,3.8,9.3,5.2
		c2,1.9,4.6,3.1,7.4,3.4l-7.4-4.3L1086.5,1429.3z"/>
	<path class="st4" d="M1041.5,1404c0.2,0.4,0.5,0.7,1,0.7L1041.5,1404z"/>
	<path class="st4" d="M1062.8,1414.5c-0.1-0.4-0.4-0.7-0.9-0.7L1062.8,1414.5z"/>
</g>
</svg>
