<svg id="Layer_1" data-name="Layer 1" xmlns="http://www.w3.org/2000/svg" xmlns:xlink="http://www.w3.org/1999/xlink" viewBox="0 0 735 852"><defs><style>.cls-1{fill:#36a85d;}.cls-2{opacity:0.25;fill:url(#linear-gradient);}.cls-3{fill:#22834a;}.cls-4{fill:#e6b35a;}.cls-5{fill:#fff;}.cls-6{fill:#298f4d;}</style><linearGradient id="linear-gradient" x1="366.15" y1="-122.39" x2="367.45" y2="341.13" gradientUnits="userSpaceOnUse"><stop offset="0" stop-color="#fff" stop-opacity="0.83"/><stop offset="0.56" stop-color="#fff" stop-opacity="0.37"/><stop offset="1" stop-color="#fff" stop-opacity="0"/></linearGradient></defs><title>lubridate</title><path class="cls-1" d="M29.38,621.47V231l50.25-29L367.5,35.82h0L656.08,202.43,705.62,231V621.47L367.5,816.69Z"/><path class="cls-2" d="M366.91,340.44c128.23,0,238.56-57,287.81-138.79L367.51,35.82h0L79.39,202.16C128.79,283.69,239,340.44,366.91,340.44Z"/><path class="cls-3" d="M734.91,637.38V213.13l-29.3-16.92L427.81,35.82,367.5,1,307.19,35.82,29.37,196.22.09,213.13V637.38l29.28,16.91L310.65,816.68l56.85,32.83,56.85-32.83L705.61,654.3ZM29.37,621.47V231l50.25-29L367.49,35.82h0L656.07,202.43,705.61,231V621.47L367.49,816.68Z"/><path class="cls-4" d="M367,633.9c.29-.29.61-.59.94-.89h-.26C367.49,633.31,367.26,633.61,367,633.9Z"/><path class="cls-5" d="M96.55,504.85h14.08v113.6H96.55Z"/><path class="cls-5" d="M194,597.33c0,8,.15,15,.64,21.12H182.14l-.8-12.64H181a29.14,29.14,0,0,1-25.6,14.4c-12.16,0-26.72-6.72-26.72-33.92V541h14.08v42.88c0,14.72,4.48,24.64,17.28,24.64,9.44,0,16-6.56,18.57-12.8a20.59,20.59,0,0,0,1.27-7.2V541H194Z"/><path class="cls-5" d="M211.58,618.45c.32-5.28.64-13.12.64-20v-93.6h13.92v48.64h.32c5-8.64,13.92-14.24,26.4-14.24,19.2,0,32.8,16,32.64,39.52,0,27.68-17.44,41.44-34.72,41.44-11.2,0-20.16-4.32-25.92-14.56h-.48l-.64,12.8Zm14.56-31a26.36,26.36,0,0,0,.64,5.12C229.5,602.29,237.66,609,247.9,609c14.72,0,23.52-12,23.52-29.76,0-15.52-8-28.8-23-28.8-9.6,0-18.56,6.56-21.44,17.28a27.75,27.75,0,0,0-.8,5.76Z"/><path class="cls-5" d="M298.14,565.17c0-9.12-.16-17-.64-24.16h12.32l.48,15.2h.64c3.52-10.4,12-17,21.44-17a15.23,15.23,0,0,1,4,.48V553a21.15,21.15,0,0,0-4.8-.48c-9.92,0-17,7.52-18.88,18.08a39.63,39.63,0,0,0-.64,6.56v41.28H298.14Z"/><path class="cls-5" d="M361.66,519.25c.16,4.8-3.36,8.64-9,8.64a8.37,8.37,0,0,1-8.48-8.64,8.58,8.58,0,0,1,8.8-8.8C358.3,510.45,361.66,514.29,361.66,519.25ZM346,618.45V541h14.08v77.44Z"/><path class="cls-5" d="M445.18,504.85v93.6c0,6.88.16,14.72.64,20H433.18L432.54,605h-.32c-4.32,8.64-13.76,15.2-26.4,15.2-18.72,0-33.12-15.84-33.12-39.36-.16-25.76,15.84-41.6,34.72-41.6,11.84,0,19.84,5.6,23.36,11.84h.32V504.85ZM431.1,572.53a24.85,24.85,0,0,0-.64-5.92,20.71,20.71,0,0,0-20.32-16.32c-14.56,0-23.2,12.8-23.2,29.92,0,15.68,7.68,28.64,22.88,28.64,9.44,0,18.08-6.24,20.64-16.8a24.46,24.46,0,0,0,.64-6.08Z"/><path class="cls-5" d="M506.3,618.45l-1.12-9.76h-.48c-4.32,6.08-12.64,11.52-23.68,11.52-15.68,0-23.68-11-23.68-22.24,0-18.72,16.64-29,46.56-28.8v-1.6c0-6.4-1.76-17.92-17.6-17.92a38.58,38.58,0,0,0-20.16,5.76l-3.2-9.28c6.4-4.16,15.68-6.88,25.44-6.88,23.68,0,29.44,16.16,29.44,31.68v29a109,109,0,0,0,1.28,18.56Zm-2.08-39.52c-15.36-.32-32.8,2.4-32.8,17.44,0,9.12,6.08,13.44,13.28,13.44a19.27,19.27,0,0,0,18.72-13,14.7,14.7,0,0,0,.8-4.48Z"/><path class="cls-5" d="M551.74,518.77V541H571.9v10.72H551.74v41.76c0,9.6,2.72,15,10.56,15a31.32,31.32,0,0,0,8.16-1l.64,10.56a34.47,34.47,0,0,1-12.48,1.92c-6.56,0-11.84-2.08-15.2-5.92-4-4.16-5.44-11-5.44-20.16V551.73H526V541h12V522.45Z"/><path class="cls-5" d="M589.5,582.29c.32,19,12.48,26.88,26.56,26.88,10.08,0,16.16-1.76,21.44-4l2.4,10.08c-5,2.24-13.44,4.8-25.76,4.8-23.84,0-38.08-15.68-38.08-39s13.76-41.76,36.32-41.76c25.28,0,32,22.24,32,36.48a53.11,53.11,0,0,1-.48,6.56Zm41.28-10.08c.16-9-3.68-22.88-19.52-22.88-14.24,0-20.48,13.12-21.6,22.88Z"/><path class="cls-5" d="M365.53,797.29l4.48,4.5c1,1,1.89,1.91,2.71,2.88l.06,0c-.37-1.2-.68-2.52-1-3.84l-1.4-6.33,1.6-.93,4.66,4.28c1.12,1,2.06,2,2.92,2.87l.06,0a37.05,37.05,0,0,1-1.17-3.85l-1.57-6.12,1.88-1.09L381.49,802l-1.73,1-4.5-4.06a38,38,0,0,1-2.93-2.89l-.05,0a32.7,32.7,0,0,1,1.06,4l1.21,5.95-1.72,1-9.24-8.62Z"/><path class="cls-5" d="M381.69,787.88l4.48,4.51c1,1,1.89,1.9,2.71,2.87l.06,0c-.37-1.2-.68-2.52-1-3.84l-1.4-6.33,1.6-.93,4.66,4.28c1.12,1,2.06,2,2.92,2.87l.06,0a38.71,38.71,0,0,1-1.18-3.85l-1.56-6.12,1.88-1.09,2.72,12.41-1.73,1-4.5-4.06a38,38,0,0,1-2.93-2.89l-.05,0a37.47,37.47,0,0,1,1.07,4l1.2,6-1.72,1L379.75,789Z"/><path class="cls-5" d="M397.85,778.47l4.48,4.51c1,1,1.89,1.9,2.71,2.87l.06,0c-.37-1.19-.68-2.52-1-3.84l-1.4-6.33,1.6-.93L409,779c1.12,1,2.06,2,2.92,2.87l.06,0a39.79,39.79,0,0,1-1.18-3.86l-1.56-6.12,1.88-1.09,2.72,12.42-1.73,1-4.5-4.06a38,38,0,0,1-2.93-2.89l0,0a37.47,37.47,0,0,1,1.07,4l1.2,6-1.72,1-9.24-8.62Z"/><path class="cls-5" d="M417.13,779.74a1.49,1.49,0,0,1,.5-2.12,1.58,1.58,0,0,1,1.57,2.74A1.48,1.48,0,0,1,417.13,779.74Z"/><path class="cls-5" d="M418.52,770.8c-.72-1.23-1.35-2.28-2-3.21l1.66-1,1.26,2,.09,0a3.6,3.6,0,0,1,1.56-4,2.31,2.31,0,0,1,.57-.25l1.05,1.79a3.37,3.37,0,0,0-.69.31,3.08,3.08,0,0,0-1.12,3.93,6.14,6.14,0,0,0,.42.93l3.25,5.58L422.71,778Z"/><path class="cls-5" d="M428.38,772.09a5.82,5.82,0,0,0,2.95-.71c1.38-.8,1.63-1.87,1.12-2.74s-1.35-1.09-3.06-.79c-2.27.43-3.76-.09-4.49-1.35-1-1.68-.42-3.85,1.82-5.16a6,6,0,0,1,2.95-.85l.33,1.66a4.67,4.67,0,0,0-2.49.64,1.76,1.76,0,0,0-.92,2.44c.5.87,1.36.89,3,.62,2.22-.37,3.67,0,4.58,1.55,1.07,1.84.4,4-2.09,5.41a6.88,6.88,0,0,1-3.35,1Z"/><path class="cls-5" d="M432.78,754.11l1.75,3,2.72-1.59.84,1.45-2.72,1.59,3.29,5.63c.75,1.3,1.55,1.82,2.6,1.2a4.37,4.37,0,0,0,1-.77l.92,1.38a5.49,5.49,0,0,1-1.54,1.24,3,3,0,0,1-2.51.39,4.42,4.42,0,0,1-2.32-2.29l-3.32-5.7-1.62.94-.85-1.45,1.63-.94-1.46-2.5Z"/><path class="cls-5" d="M452.57,756.79c.63,1.08,1.2,2,1.74,2.8l-1.68,1-1.1-1.64,0,0a4.53,4.53,0,0,1-2.32,4c-1.64,1-4.13,1.19-6.27-2.48l-3.56-6.11,1.9-1.11L444.6,759c1.16,2,2.54,3,4.27,2a3.21,3.21,0,0,0,1.5-3.19,3.31,3.31,0,0,0-.39-1.07l-3.74-6.42,1.9-1.1Z"/><path class="cls-5" d="M457.48,737.21l7.36,12.64c.54.92,1.18,2,1.66,2.64l-1.71,1-1.14-1.77,0,0a4.49,4.49,0,0,1-2.36,4.13c-2.53,1.47-5.72.46-7.57-2.71-2-3.47-1.13-6.86,1.42-8.35a4.05,4.05,0,0,1,4.08-.24l.05,0-3.64-6.24Zm3.42,10.24a4.37,4.37,0,0,0-.55-.75,3.25,3.25,0,0,0-4-.6c-2,1.14-2.12,3.55-.78,5.86,1.24,2.12,3.29,3.26,5.34,2.07a3.31,3.31,0,0,0,1.47-3.89,4.16,4.16,0,0,0-.39-.87Z"/><path class="cls-5" d="M463.89,736.08a1.36,1.36,0,0,1-2.36,1.37,1.34,1.34,0,0,1,.5-1.88A1.31,1.31,0,0,1,463.89,736.08Zm5.68,14.63-6.09-10.46,1.9-1.1,6.09,10.45Z"/><path class="cls-5" d="M481,736.94c2.25,3.87.55,7.11-2,8.58-2.83,1.65-6.22.85-8.15-2.46-2-3.5-.94-6.88,2-8.57S479.13,733.75,481,736.94Zm-8.23,4.94c1.33,2.29,3.66,3.25,5.51,2.17s2.18-3.56.81-5.91c-1-1.77-3.22-3.5-5.47-2.2S471.6,739.89,472.76,741.88Z"/><path class="cls-5" d="M484.86,740.3a1.49,1.49,0,1,1,2.07.62A1.47,1.47,0,0,1,484.86,740.3Z"/><path class="cls-5" d="M497.66,733.83a8,8,0,0,1-2.65,2.35c-3.15,1.84-6.45.89-8.31-2.3a6.14,6.14,0,0,1,2.39-8.82,7.19,7.19,0,0,1,2.94-1l.43,1.72a5.12,5.12,0,0,0-2.5.79c-2.39,1.39-2.66,3.92-1.39,6.1,1.41,2.42,3.83,3,5.91,1.8a6.26,6.26,0,0,0,2-1.88Z"/><path class="cls-5" d="M506.35,722.17c2.25,3.87.56,7.11-2,8.59-2.83,1.64-6.22.84-8.14-2.47-2-3.49-.95-6.88,1.95-8.56S504.49,719,506.35,722.17Zm-8.23,4.94c1.33,2.29,3.66,3.25,5.52,2.17s2.18-3.56.81-5.91c-1-1.77-3.23-3.5-5.47-2.19S497,725.12,498.12,727.11Z"/><path class="cls-5" d="M507.41,718.46c-.63-1.07-1.17-2-1.74-2.77l1.67-1,1.06,1.63.07,0a4.17,4.17,0,0,1,2.16-3.83,3.59,3.59,0,0,1,4.18.37l0,0a5.12,5.12,0,0,1,.38-2,4.14,4.14,0,0,1,1.88-2.08c1.38-.81,4-1.09,6.08,2.53l3.58,6.16-1.85,1.08-3.45-5.92c-1.17-2-2.61-2.79-4.14-1.89a2.83,2.83,0,0,0-1.24,3,3.57,3.57,0,0,0,.4,1l3.76,6.46-1.86,1.08L514.74,716c-1-1.67-2.4-2.45-3.85-1.61a3.28,3.28,0,0,0-.86,4.29L513.7,725l-1.85,1.08Z"/><rect class="cls-6" x="266.47" y="258.87" width="230.54" height="190.4"/><path class="cls-6" d="M487.69,511.79c-.14,0-.3.13-.4.09a.29.29,0,0,1-.05-.52.4.4,0,0,1,.38,0C487.7,511.46,487.67,511.65,487.69,511.79Z"/><path class="cls-6" d="M499.93,451.87c0-.31-.05-.63-.05-.95l0-51.79q0-23.52,0-47,0-19.61,0-39.2,0-25.06-.09-50.12,0-21.27,0-42.52c0-1.92,0-1.95-2-2q-7.25,0-14.5,0c-5,0-10,0-15,0-1.12,0-1.62-.39-1.56-1.5,0-.32,0-.64,0-.95,0-4-.1-8.08,0-12.12,0-1.33-.39-1.67-1.63-1.54a18.41,18.41,0,0,1-3.32,0c-2.34-.18-2.08.26-2.08,2,0,4.11,0,8.23,0,12.35,0,1.08-.11,1.73-1.54,1.68-2.81-.09-2.82,0-2.83-2.89,0-.31,0-.63,0-1,0-3.4,0-6.81,0-10.21,0-2,0-2-2.12-2-1.19,0-2.37,0-3.56,0-1,0-1.4.38-1.36,1.39.06,1.43,0,2.86,0,4.28,0,3,0,6,0,9,0,1-.27,1.51-1.35,1.36a7.66,7.66,0,0,0-.95.05q-22.08,0-44.18,0l-56.78,0h-28.5c-2.4,0-2.4,0-2.4-2.51,0-.31,0-.63,0-.95,0-3.64-.05-7.28,0-10.92,0-1.18-.22-1.78-1.59-1.67a30.44,30.44,0,0,1-4.27,0c-1-.06-1.3.31-1.19,1.24a9.45,9.45,0,0,1,0,1.19c0,4,0,7.92,0,11.87,0,.61.16,1.48-.57,1.67a5.12,5.12,0,0,1-3.26-.05c-.89-.38-.54-1.41-.54-2.16,0-4,0-7.92,0-11.88,0-1.86-.07-1.86-1.82-1.86-1.19,0-2.38.06-3.57,0s-1.66.28-1.63,1.61c.08,4,0,7.92,0,11.88,0,2.53,0,2.58-2.56,2.59-9.27,0-18.53,0-27.8.05-1.95,0-1.93,0-2.42,1.82a8,8,0,0,0-.21,2.12c0,1.74.05,3.48.05,5.22q0,23.05,0,46.09,0,28.62,0,57.25,0,9.51,0,19c1.62-1.58,3.27-3.15,4.9-4.75a5.68,5.68,0,0,1,1.19-.89q0-11.61,0-23.21c0-11.8-.12-23.6-.07-35.4,0-3.53-.67-3.13,3.2-3.13,18.84,0,37.69,0,56.54,0q23,0,46.08,0l67.94,0h50.51c.5,0,.59.45.59,1,0,1.43.1,2.85.1,4.28q0,23.63-.08,47.27,0,24.82,0,49.65c0,4.9,0,9.81,0,14.72,0,1.79-.05,1.85-1.8,1.86-6.25,0-12.51,0-18.77,0H446.85c-2.08,0-2.11,0-2.11,2.06,0,6.18,0,12.35,0,18.53q0,12.71,0,25.41c0,2-.05,2-2.1,2-23.52,0-45.77.1-69.29.12q-23,0-46,0a5.84,5.84,0,0,1-.94,1.42,23.24,23.24,0,0,1-6.17,4.62q21.58,0,43.18,0,31.13,0,62.24,0h70.56C499.27,455.29,499.73,454.87,499.93,451.87Zm-8.25-2.66-35.6.06a1.11,1.11,0,0,1-1-.42l38.47-38.53a5.43,5.43,0,0,1,.38,3.05c0,11.24,0,22.47,0,33.71C493.89,449.21,493.91,449.2,491.68,449.21Z"/><path class="cls-6" d="M381.64,401.61c-4.71,0-9.43,0-14.15,0-1.65,0-2.46-.2-2.45-1.46.09-6.39.06-12.77,0-19.16,0-1,.44-1.38,2-1.38q14.7.06,29.4,0c1.56,0,2,.39,2,1.37q-.06,9.67,0,19.34c0,1.08-.72,1.3-2.15,1.29C391.44,401.59,386.54,401.61,381.64,401.61Z"/><path class="cls-6" d="M336.81,379.68c4.63,0,9.25,0,13.87,0,1.91,0,2.53.44,2.52,1.67q-.1,9.32,0,18.62c0,1.25-.66,1.66-2.54,1.65q-14.15-.06-28.29,0c-1.91,0-2.53-.43-2.52-1.67q.11-9.3,0-18.61c0-1.26.66-1.68,2.54-1.66C327.2,379.72,332,379.68,336.81,379.68Z"/><path class="cls-6" d="M381.7,371.85c-4.81,0-9.62,0-14.42,0-1.63,0-2.24-.31-2.23-1.42q.09-9.58,0-19.16c0-1.12.63-1.42,2.24-1.41q14.56,0,29.12,0c1.5,0,2.09.3,2.08,1.33q-.08,9.68,0,19.34c0,1-.6,1.33-2.09,1.32C391.5,371.82,386.6,371.85,381.7,371.85Z"/><path class="cls-6" d="M353.17,360.86c0,3.1-.05,6.2,0,9.3,0,1.24-.62,1.69-2.52,1.68q-14.15-.07-28.3,0c-1.87,0-2.56-.4-2.54-1.65q.09-9.3,0-18.61c0-1.24.61-1.68,2.52-1.67q14.14.06,28.29,0c1.87,0,2.58.4,2.54,1.66C353.11,354.65,353.17,357.75,353.17,360.86Z"/><path class="cls-6" d="M381.85,320.12c4.81,0,9.62,0,14.43,0,1.62,0,2.23.31,2.22,1.43q-.09,9.57,0,19.15c0,1.13-.63,1.42-2.24,1.42q-14.56-.06-29.12,0c-1.51,0-2.09-.3-2.08-1.33q.06-9.66,0-19.33c0-1,.6-1.34,2.09-1.33C372.05,320.14,377,320.12,381.85,320.12Z"/><path class="cls-6" d="M336.69,320.14c4.62,0,9.25.05,13.88,0,2.05,0,2.65.47,2.63,1.77q-.1,9.23,0,18.45c0,1.34-.69,1.75-2.69,1.74q-14-.09-28,0c-2,0-2.68-.44-2.66-1.76q.12-9.22,0-18.44c0-1.34.68-1.77,2.68-1.74,4.72.07,9.44,0,14.16,0Z"/><path class="cls-6" d="M426.62,379.68c4.63,0,9.25,0,13.88,0,1.9,0,2.52.44,2.51,1.67q-.09,9.32,0,18.62c0,1.25-.66,1.66-2.54,1.65q-14.14-.06-28.29,0c-1.91,0-2.53-.43-2.52-1.67q.1-9.3,0-18.61c0-1.26.66-1.68,2.54-1.66C417,379.72,421.82,379.68,426.62,379.68Z"/><path class="cls-6" d="M443,360.86c0,3.1-.05,6.2,0,9.3,0,1.24-.62,1.69-2.52,1.68q-14.14-.07-28.3,0c-1.87,0-2.56-.4-2.54-1.65q.1-9.3,0-18.61c0-1.24.61-1.68,2.52-1.67q14.15.06,28.29,0c1.88,0,2.58.4,2.54,1.66C442.92,354.65,443,357.75,443,360.86Z"/><path class="cls-6" d="M426.5,320.14c4.62,0,9.25.05,13.88,0,2.05,0,2.65.47,2.64,1.77q-.12,9.23,0,18.45c0,1.34-.69,1.75-2.69,1.74q-14-.09-28,0c-2,0-2.68-.44-2.66-1.76q.12-9.22,0-18.44c0-1.34.68-1.77,2.69-1.74,4.71.07,9.43,0,14.15,0Z"/><circle class="cls-6" cx="286.07" cy="404.38" r="60.67"/><polygon class="cls-6" points="237.49 374.8 237.48 374.81 237.47 374.81 237.49 374.8"/><path class="cls-6" d="M349,408.81a62.48,62.48,0,1,0-65.64,59A62.31,62.31,0,0,0,349,408.81Zm-6.87,12.72a56.66,56.66,0,0,1-5.72,13.2c-.1.17-.17.35-.26.52h0l-.22,0h0a1.36,1.36,0,0,0-.79-1c-1.68-1-3.34-2-5-3a3.51,3.51,0,0,0-.6-.33.54.54,0,0,0-.69.26.5.5,0,0,0,.07.64,1.94,1.94,0,0,0,.45.35c1.73,1.06,3.49,2.09,5.21,3.16a1.17,1.17,0,0,0,1.35,0h0l0,.44a.56.56,0,0,0-.27.45h0a78.46,78.46,0,0,1-5,6.75A57.85,57.85,0,0,1,316.3,455c-.13.08-.27.15-.4.24-.38.27-.6.14-.8-.25-.69-1.33-1.4-2.66-2.11-4-.19-.37-.39-.75-.6-1.11s-.57-.57-1-.32-.27.59-.11.92c.71,1.46,1.45,2.89,2.12,4.36s1,1.23-.79,2.14a58,58,0,0,1-20.84,6c-1.49.15-3,.2-4.5.25-1.22,0-1.23,0-1.17-1.18l.33-6.35c0-.93-.14-1.32-.59-1.25-.71.11-.58.72-.6,1.19-.13,2.19-.23,4.38-.35,6.58-.06.93-.08.94-1,.9A55.74,55.74,0,0,1,265,459a56.94,56.94,0,0,1-7.68-3.77,3,3,0,0,0,.28-.41l3.67-6c.41-.68.41-1.11,0-1.29-.61-.24-.8.28-1,.66-1,1.64-2.61,4.26-3.61,5.91a2.3,2.3,0,0,0-.26.52,59.34,59.34,0,0,1-6.11-4.28,56.43,56.43,0,0,1-13.43-15.56c-.44-.75-.44-.77.32-1.22l5.77-3.4a6.91,6.91,0,0,0,.78-.5.53.53,0,0,0,.16-.8.6.6,0,0,0-.82-.19l-.8.46q-2.73,1.62-5.47,3.23c-1,.58-1,.58-1.52-.41a60.82,60.82,0,0,1-3.83-9.39A59.33,59.33,0,0,1,229,409.91c-.13-1.5-.13-3-.2-4.5,0-.59.28-.71.79-.68l5.65.23.81,0c.73,0,1.08-.22,1-.64-.07-.62-.57-.63-1-.66a14.48,14.48,0,0,0-1.61,0c-1.59.07-3.16-.06-4.74-.12-.83,0-.83-.07-.82-.88a42.53,42.53,0,0,1,.6-6,56.5,56.5,0,0,1,3-11.59,58.44,58.44,0,0,1,4-8.54,2.17,2.17,0,0,0,.17-.42.55.55,0,0,0,.17-.28l1.1.65,5.22,3.18c.39.23.86.59,1.19,0s-.21-.81-.59-1.05c-1.7-1-3.42-2.07-5.13-3.09l-1.22-.68,0-.07c.11-.14.09-.37.3-.45a81.59,81.59,0,0,1,5.35-7.08,57.75,57.75,0,0,1,14.48-11.89c.68-.4.71-.39,1.11.32,1,1.81,2,3.62,3.07,5.43.24.42.41,1,1.09.78.41-.14.39-.6-.05-1.41-1-1.78-2-3.56-3-5.35-.42-.76-.42-.79.37-1.19a57.73,57.73,0,0,1,21.71-6.19c1.65-.15,3.3-.17,5-.22.71,0,.77.06.75.81-.07,2-.16,3.92-.23,5.88a2.74,2.74,0,0,0,.05,1c.09.28.23.51.55.5a.6.6,0,0,0,.59-.47,3.47,3.47,0,0,0,.09-.91c.05-1.93.08-3.85.14-5.77,0-1,.05-1,1.08-.95a57,57,0,0,1,21.65,5.58c1.65.8,3.22,1.68,4.76,2.61l-.06.09-.83,1.36c-1,1.64-2,3.27-3,4.9a1.48,1.48,0,0,0-.34.84.56.56,0,0,0,.57.59c.36,0,.52-.29.68-.56,1.08-1.76,2.86-4.69,3.93-6.46a.83.83,0,0,0,.07-.13,56.89,56.89,0,0,1,17.36,16.88c.64,1,1.24,1.94,1.84,2.93s.51.89-.34,1.38l-4.74,2.65a7.16,7.16,0,0,0-.87.56.52.52,0,0,0-.11.73.52.52,0,0,0,.69.24,5,5,0,0,0,.62-.29l4.73-2.66c1.24-.68,1-.81,1.72.56a57.79,57.79,0,0,1,6.14,24.88c0,2.35.21,1.92-1.85,1.88l-4.85-.09a2.7,2.7,0,0,0-.57,0,.56.56,0,0,0-.47.58.5.5,0,0,0,.48.54c.31,0,.62,0,.93.07l5.3.22c.94,0,.95.05.91,1A54,54,0,0,1,342.12,421.53Z"/><path class="cls-6" d="M321.78,426.62a8.17,8.17,0,0,0-2.17-1.28h0a9.26,9.26,0,0,0-2.31-1.5,13.66,13.66,0,0,0-2.43-1.54h0c-.11,0-.17-.14-.25-.21h0a.47.47,0,0,0-.43-.25h0a.48.48,0,0,0-.43-.26,19.57,19.57,0,0,1-.89-.53.28.28,0,0,0-.23-.22h0a.49.49,0,0,0-.44-.27.51.51,0,0,0-.45-.26.46.46,0,0,0-.44-.26.48.48,0,0,0-.45-.26.3.3,0,0,0-.24-.21h0a.48.48,0,0,0-.43-.29.51.51,0,0,0-.45-.26.26.26,0,0,0-.24-.19l.24.2h0c-.1,0-.16-.13-.24-.2h0a.5.5,0,0,0-.43-.26h0a35.36,35.36,0,0,0-3.64-2.42c-4.88-3.16-9.78-6.27-14.67-9.4-.75-.48-1.48-1-2.24-1.44a.71.71,0,0,1-.26-1.14c.1-.16.2-.33.29-.5l5.61-9.94h0a.44.44,0,0,0,.24-.45h0a.34.34,0,0,0,.05-.17.33.33,0,0,0,.2-.28h0a.23.23,0,0,0,.06-.16.34.34,0,0,0,.2-.29h0a.51.51,0,0,0,.26-.44h0a.42.42,0,0,0,.23-.45h0a.4.4,0,0,0,.07-.18,21.1,21.1,0,0,0,2-3.4,6.4,6.4,0,0,0,1-1.79s0,0,0,0a6.84,6.84,0,0,0,.52-.8c.14-.29.46-.52.45-1.08a3.58,3.58,0,0,0-1,1.66h0a6,6,0,0,0-1.23,1.82h0a22.69,22.69,0,0,0-2.06,3.32h0a.28.28,0,0,0-.2.24l.2-.24h0c0,.1-.14.15-.2.24v0a.41.41,0,0,0-.28.41.53.53,0,0,0-.27.45.23.23,0,0,0-.17.23l.18-.23h0l-.18.23a.25.25,0,0,0-.08.18.32.32,0,0,0-.19.27h0c-.23.31-.48.6-.69.93-2.05,3.15-4.09,6.32-6.14,9.47-.56.86-.57.85-1.47.26l-.59-.36c-.83-.48-.83-.48-1.32.29-.8,1.25-.8,1.25.46,1.94.13.08.27.14.41.21.65.36.66.41.29,1.05-.09.17-.21.32-.31.48-.49.73-.49.73.3,1.18s.74.44,1.2-.35a4.85,4.85,0,0,0,.29-.49c.22-.5.52-.59,1-.3.69.43,1.4.82,2.1,1.22q6.24,3.6,12.48,7.18c2.24,1.27,4.41,2.65,6.73,3.77a.9.9,0,0,1,.28.2.15.15,0,0,0,.15.06.41.41,0,0,0,.3.21h0a.48.48,0,0,0,.43.26h0a.81.81,0,0,0,.66.3.24.24,0,0,0,.23.18l-.23-.19h0a2.11,2.11,0,0,1,.23.19.17.17,0,0,0,.16.06.39.39,0,0,0,.3.21h0a.14.14,0,0,0,.14.05.42.42,0,0,0,.31.22h0a.49.49,0,0,0,.44.26.44.44,0,0,0,.45.23h0a.17.17,0,0,0,.16.05.36.36,0,0,0,.29.2h0a.15.15,0,0,0,.15.06.41.41,0,0,0,.31.21h0a.48.48,0,0,0,.43.26h0a.52.52,0,0,0,.45.26h0a18.14,18.14,0,0,0,2.67,1.54l2,1.25a17.66,17.66,0,0,0,2.72,1.52,3.83,3.83,0,0,0,2.16,1l-2.15-1.26Z"/><path class="cls-6" d="M308.68,419.25a.33.33,0,0,0,.28.2Z"/><path class="cls-6" d="M314.86,422.31a.27.27,0,0,0-.25-.21Z"/><rect class="cls-1" x="261.47" y="249.87" width="230.54" height="190.4"/><path class="cls-5" d="M482.69,502.79c-.14,0-.3.13-.4.09a.29.29,0,0,1-.05-.52.4.4,0,0,1,.38,0C482.7,502.46,482.67,502.65,482.69,502.79Z"/><path class="cls-5" d="M494.93,442.87c0-.31-.05-.63-.05-.95l0-51.79q0-23.52,0-47,0-19.61,0-39.2,0-25.06-.09-50.12,0-21.27,0-42.52c0-1.92,0-1.95-2-2q-7.25,0-14.5,0c-5,0-10,0-15,0-1.12,0-1.62-.39-1.56-1.5,0-.32,0-.64,0-.95,0-4-.1-8.08,0-12.12,0-1.33-.39-1.67-1.63-1.54a18.41,18.41,0,0,1-3.32,0c-2.34-.18-2.08.26-2.08,2,0,4.11,0,8.23,0,12.35,0,1.08-.11,1.73-1.54,1.68-2.81-.09-2.82,0-2.83-2.89,0-.31,0-.63,0-1,0-3.4,0-6.81,0-10.21,0-2,0-2-2.12-2-1.19,0-2.37,0-3.56,0-1,0-1.4.38-1.36,1.39.06,1.43,0,2.86,0,4.28,0,3,0,6,0,9,0,1-.27,1.51-1.35,1.36a7.66,7.66,0,0,0-.95.05q-22.08,0-44.18,0l-56.78,0h-28.5c-2.4,0-2.4,0-2.4-2.51,0-.31,0-.63,0-.95,0-3.64-.05-7.28,0-10.92,0-1.18-.22-1.78-1.59-1.67a30.44,30.44,0,0,1-4.27,0c-1-.06-1.3.31-1.19,1.24a9.45,9.45,0,0,1,0,1.19c0,4,0,7.92,0,11.87,0,.61.16,1.48-.57,1.67a5.12,5.12,0,0,1-3.26-.05c-.89-.38-.54-1.41-.54-2.16,0-4,0-7.92,0-11.88,0-1.86-.07-1.86-1.82-1.86-1.19,0-2.38.06-3.57,0s-1.66.28-1.63,1.61c.08,4,0,7.92,0,11.88,0,2.53,0,2.58-2.56,2.59-9.27,0-18.53,0-27.8.05-1.95,0-1.93,0-2.42,1.82a8,8,0,0,0-.21,2.12c0,1.74.05,3.48.05,5.22q0,23.05,0,46.09,0,28.62,0,57.25,0,9.51,0,19c1.62-1.58,3.27-3.15,4.9-4.75a5.68,5.68,0,0,1,1.19-.89q0-11.61,0-23.21c0-11.8-.12-23.6-.07-35.4,0-3.53-.67-3.13,3.2-3.13,18.84,0,37.69,0,56.54,0q23,0,46.08,0l67.94,0h50.51c.5,0,.59.45.59,1,0,1.43.1,2.85.1,4.28q0,23.63-.08,47.27,0,24.82,0,49.65c0,4.9,0,9.81,0,14.72,0,1.79-.05,1.85-1.8,1.86-6.25,0-12.51,0-18.77,0H441.85c-2.08,0-2.11,0-2.11,2.06,0,6.18,0,12.35,0,18.53q0,12.71,0,25.41c0,2-.05,2-2.1,2-23.52,0-45.77.1-69.29.12q-23,0-46,0a5.84,5.84,0,0,1-.94,1.42,23.24,23.24,0,0,1-6.17,4.62q21.58,0,43.18,0,31.13,0,62.24,0h70.56C494.27,446.29,494.73,445.87,494.93,442.87Zm-8.25-2.66-35.6.06a1.11,1.11,0,0,1-1-.42l38.47-38.53a5.43,5.43,0,0,1,.38,3.05c0,11.24,0,22.47,0,33.71C488.89,440.21,488.91,440.2,486.68,440.21Z"/><path class="cls-5" d="M376.64,392.61c-4.71,0-9.43,0-14.15,0-1.65,0-2.46-.2-2.45-1.46.09-6.39.06-12.77,0-19.16,0-1,.44-1.38,2-1.38q14.7.06,29.4,0c1.56,0,2,.39,2,1.37q-.06,9.67,0,19.34c0,1.08-.72,1.3-2.15,1.29C386.44,392.59,381.54,392.61,376.64,392.61Z"/><path class="cls-5" d="M331.81,370.68c4.63,0,9.25,0,13.87,0,1.91,0,2.53.44,2.52,1.67q-.1,9.32,0,18.62c0,1.25-.66,1.66-2.54,1.65q-14.15-.06-28.29,0c-1.91,0-2.53-.43-2.52-1.67q.11-9.3,0-18.61c0-1.26.66-1.68,2.54-1.66C322.2,370.72,327,370.68,331.81,370.68Z"/><path class="cls-5" d="M376.7,362.85c-4.81,0-9.62,0-14.42,0-1.63,0-2.24-.31-2.23-1.42q.09-9.58,0-19.16c0-1.12.63-1.42,2.24-1.41q14.56,0,29.12,0c1.5,0,2.09.3,2.08,1.33q-.08,9.68,0,19.34c0,1-.6,1.33-2.09,1.32C386.5,362.82,381.6,362.85,376.7,362.85Z"/><path class="cls-5" d="M348.17,351.86c0,3.1-.05,6.2,0,9.3,0,1.24-.62,1.69-2.52,1.68q-14.15-.07-28.3,0c-1.87,0-2.56-.4-2.54-1.65q.09-9.3,0-18.61c0-1.24.61-1.68,2.52-1.67q14.14.06,28.29,0c1.87,0,2.58.4,2.54,1.66C348.11,345.65,348.17,348.75,348.17,351.86Z"/><path class="cls-5" d="M376.85,311.12c4.81,0,9.62,0,14.43,0,1.62,0,2.23.31,2.22,1.43q-.09,9.57,0,19.15c0,1.13-.63,1.42-2.24,1.42q-14.56-.06-29.12,0c-1.51,0-2.09-.3-2.08-1.33q.06-9.66,0-19.33c0-1,.6-1.34,2.09-1.33C367.05,311.14,372,311.12,376.85,311.12Z"/><path class="cls-5" d="M331.69,311.14c4.62,0,9.25.05,13.88,0,2.05,0,2.65.47,2.63,1.77q-.1,9.23,0,18.45c0,1.34-.69,1.75-2.69,1.74q-14-.09-28,0c-2,0-2.68-.44-2.66-1.76q.12-9.22,0-18.44c0-1.34.68-1.77,2.68-1.74,4.72.07,9.44,0,14.16,0Z"/><path class="cls-5" d="M421.62,370.68c4.63,0,9.25,0,13.88,0,1.9,0,2.52.44,2.51,1.67q-.09,9.32,0,18.62c0,1.25-.66,1.66-2.54,1.65q-14.14-.06-28.29,0c-1.91,0-2.53-.43-2.52-1.67q.1-9.3,0-18.61c0-1.26.66-1.68,2.54-1.66C412,370.72,416.82,370.68,421.62,370.68Z"/><path class="cls-5" d="M438,351.86c0,3.1-.05,6.2,0,9.3,0,1.24-.62,1.69-2.52,1.68q-14.14-.07-28.3,0c-1.87,0-2.56-.4-2.54-1.65q.1-9.3,0-18.61c0-1.24.61-1.68,2.52-1.67q14.15.06,28.29,0c1.88,0,2.58.4,2.54,1.66C437.92,345.65,438,348.75,438,351.86Z"/><path class="cls-5" d="M421.5,311.14c4.62,0,9.25.05,13.88,0,2.05,0,2.65.47,2.64,1.77q-.12,9.23,0,18.45c0,1.34-.69,1.75-2.69,1.74q-14-.09-28,0c-2,0-2.68-.44-2.66-1.76q.12-9.22,0-18.44c0-1.34.68-1.77,2.69-1.74,4.71.07,9.43,0,14.15,0Z"/><circle class="cls-1" cx="281.07" cy="395.38" r="60.67"/><polygon class="cls-5" points="232.49 365.8 232.48 365.81 232.47 365.81 232.49 365.8"/><path class="cls-5" d="M344,399.81a62.48,62.48,0,1,0-65.64,59A62.31,62.31,0,0,0,344,399.81Zm-6.87,12.72a56.66,56.66,0,0,1-5.72,13.2c-.1.17-.17.35-.26.52h0l-.22,0h0a1.36,1.36,0,0,0-.79-1c-1.68-1-3.34-2-5-3a3.51,3.51,0,0,0-.6-.33.54.54,0,0,0-.69.26.5.5,0,0,0,.07.64,1.94,1.94,0,0,0,.45.35c1.73,1.06,3.49,2.09,5.21,3.16a1.17,1.17,0,0,0,1.35,0h0l0,.44a.56.56,0,0,0-.27.45h0a78.46,78.46,0,0,1-5,6.75A57.85,57.85,0,0,1,311.3,446c-.13.08-.27.15-.4.24-.38.27-.6.14-.8-.25-.69-1.33-1.4-2.66-2.11-4-.19-.37-.39-.75-.6-1.11s-.57-.57-1-.32-.27.59-.11.92c.71,1.46,1.45,2.89,2.12,4.36s1,1.23-.79,2.14a58,58,0,0,1-20.84,6c-1.49.15-3,.2-4.5.25-1.22,0-1.23,0-1.17-1.18l.33-6.35c0-.93-.14-1.32-.59-1.25-.71.11-.58.72-.6,1.19-.13,2.19-.23,4.38-.35,6.58-.06.93-.08.94-1,.9A55.74,55.74,0,0,1,260,450a56.94,56.94,0,0,1-7.68-3.77,3,3,0,0,0,.28-.41l3.67-6c.41-.68.41-1.11,0-1.29-.61-.24-.8.28-1,.66-1,1.64-2.61,4.26-3.61,5.91a2.3,2.3,0,0,0-.26.52,59.34,59.34,0,0,1-6.11-4.28,56.43,56.43,0,0,1-13.43-15.56c-.44-.75-.44-.77.32-1.22l5.77-3.4a6.91,6.91,0,0,0,.78-.5.53.53,0,0,0,.16-.8.6.6,0,0,0-.82-.19l-.8.46q-2.73,1.62-5.47,3.23c-1,.58-1,.58-1.52-.41a60.82,60.82,0,0,1-3.83-9.39A59.33,59.33,0,0,1,224,400.91c-.13-1.5-.13-3-.2-4.5,0-.59.28-.71.79-.68l5.65.23.81,0c.73,0,1.08-.22,1-.64-.07-.62-.57-.63-1-.66a14.48,14.48,0,0,0-1.61,0c-1.59.07-3.16-.06-4.74-.12-.83,0-.83-.07-.82-.88a42.53,42.53,0,0,1,.6-6,56.5,56.5,0,0,1,3-11.59,58.44,58.44,0,0,1,4-8.54,2.17,2.17,0,0,0,.17-.42.55.55,0,0,0,.17-.28l1.1.65,5.22,3.18c.39.23.86.59,1.19,0s-.21-.81-.59-1.05c-1.7-1-3.42-2.07-5.13-3.09l-1.22-.68,0-.07c.11-.14.09-.37.3-.45a81.59,81.59,0,0,1,5.35-7.08,57.75,57.75,0,0,1,14.48-11.89c.68-.4.71-.39,1.11.32,1,1.81,2,3.62,3.07,5.43.24.42.41,1,1.09.78.41-.14.39-.6-.05-1.41-1-1.78-2-3.56-3-5.35-.42-.76-.42-.79.37-1.19a57.73,57.73,0,0,1,21.71-6.19c1.65-.15,3.3-.17,5-.22.71,0,.77.06.75.81-.07,2-.16,3.92-.23,5.88a2.74,2.74,0,0,0,.05,1c.09.28.23.51.55.5a.6.6,0,0,0,.59-.47,3.47,3.47,0,0,0,.09-.91c.05-1.93.08-3.85.14-5.77,0-1,.05-1,1.08-.95a57,57,0,0,1,21.65,5.58c1.65.8,3.22,1.68,4.76,2.61l-.06.09-.83,1.36c-1,1.64-2,3.27-3,4.9a1.48,1.48,0,0,0-.34.84.56.56,0,0,0,.57.59c.36,0,.52-.29.68-.56,1.08-1.76,2.86-4.69,3.93-6.46a.83.83,0,0,0,.07-.13,56.89,56.89,0,0,1,17.36,16.88c.64,1,1.24,1.94,1.84,2.93s.51.89-.34,1.38l-4.74,2.65a7.16,7.16,0,0,0-.87.56.52.52,0,0,0-.11.73.52.52,0,0,0,.69.24,5,5,0,0,0,.62-.29l4.73-2.66c1.24-.68,1-.81,1.72.56a57.79,57.79,0,0,1,6.14,24.88c0,2.35.21,1.92-1.85,1.88l-4.85-.09a2.7,2.7,0,0,0-.57,0,.56.56,0,0,0-.47.58.5.5,0,0,0,.48.54c.31,0,.62,0,.93.07l5.3.22c.94,0,.95.05.91,1A54,54,0,0,1,337.12,412.53Z"/><path class="cls-5" d="M316.78,417.62a8.17,8.17,0,0,0-2.17-1.28h0a9.26,9.26,0,0,0-2.31-1.5,13.66,13.66,0,0,0-2.43-1.54h0c-.11,0-.17-.14-.25-.21h0a.47.47,0,0,0-.43-.25h0a.48.48,0,0,0-.43-.26,19.57,19.57,0,0,1-.89-.53.28.28,0,0,0-.23-.22h0a.49.49,0,0,0-.44-.27.51.51,0,0,0-.45-.26.46.46,0,0,0-.44-.26.48.48,0,0,0-.45-.26.3.3,0,0,0-.24-.21h0a.48.48,0,0,0-.43-.29.51.51,0,0,0-.45-.26.26.26,0,0,0-.24-.19l.24.2h0c-.1,0-.16-.13-.24-.2h0a.5.5,0,0,0-.43-.26h0a35.36,35.36,0,0,0-3.64-2.42c-4.88-3.16-9.78-6.27-14.67-9.4-.75-.48-1.48-1-2.24-1.44a.71.71,0,0,1-.26-1.14c.1-.16.2-.33.29-.5l5.61-9.94h0a.44.44,0,0,0,.24-.45h0a.34.34,0,0,0,.05-.17.33.33,0,0,0,.2-.28h0a.23.23,0,0,0,.06-.16.34.34,0,0,0,.2-.29h0a.51.51,0,0,0,.26-.44h0a.42.42,0,0,0,.23-.45h0a.4.4,0,0,0,.07-.18,21.1,21.1,0,0,0,2-3.4,6.4,6.4,0,0,0,1-1.79s0,0,0,0a6.84,6.84,0,0,0,.52-.8c.14-.29.46-.52.45-1.08a3.58,3.58,0,0,0-1,1.66h0a6,6,0,0,0-1.23,1.82h0a22.69,22.69,0,0,0-2.06,3.32h0a.28.28,0,0,0-.2.24l.2-.24h0c0,.1-.14.15-.2.24v0a.41.41,0,0,0-.28.41.53.53,0,0,0-.27.45.23.23,0,0,0-.17.23l.18-.23h0l-.18.23a.25.25,0,0,0-.08.18.32.32,0,0,0-.19.27h0c-.23.31-.48.6-.69.93-2.05,3.15-4.09,6.32-6.14,9.47-.56.86-.57.85-1.47.26l-.59-.36c-.83-.48-.83-.48-1.32.29-.8,1.25-.8,1.25.46,1.94.13.08.27.14.41.21.65.36.66.41.29,1.05-.09.17-.21.32-.31.48-.49.73-.49.73.3,1.18s.74.44,1.2-.35a4.85,4.85,0,0,0,.29-.49c.22-.5.52-.59,1-.3.69.43,1.4.82,2.1,1.22q6.24,3.6,12.48,7.18c2.24,1.27,4.41,2.65,6.73,3.77a.9.9,0,0,1,.28.2.15.15,0,0,0,.15.06.41.41,0,0,0,.3.21h0a.48.48,0,0,0,.43.26h0a.81.81,0,0,0,.66.3.24.24,0,0,0,.23.18l-.23-.19h0a2.11,2.11,0,0,1,.23.19.17.17,0,0,0,.16.06.39.39,0,0,0,.3.21h0a.14.14,0,0,0,.14.05.42.42,0,0,0,.31.22h0a.49.49,0,0,0,.44.26.44.44,0,0,0,.45.23h0a.17.17,0,0,0,.16.05.36.36,0,0,0,.29.2h0a.15.15,0,0,0,.15.06.41.41,0,0,0,.31.21h0a.48.48,0,0,0,.43.26h0a.52.52,0,0,0,.45.26h0a18.14,18.14,0,0,0,2.67,1.54l2,1.25a17.66,17.66,0,0,0,2.72,1.52,3.83,3.83,0,0,0,2.16,1l-2.15-1.26Z"/><path class="cls-5" d="M303.68,410.25a.33.33,0,0,0,.28.2Z"/><path class="cls-5" d="M309.86,413.31a.27.27,0,0,0-.25-.21Z"/></svg>