<svg version="1.1" viewBox="0.0 0.0 1868.1601049868766 2159.0393700787404" fill="none" stroke="none" stroke-linecap="square" stroke-miterlimit="10" xmlns:xlink="http://www.w3.org/1999/xlink" xmlns="http://www.w3.org/2000/svg"><clipPath id="g310139644c1_0_0.0"><path d="m0 0l1868.1602 0l0 2159.0393l-1868.1602 0l0 -2159.0393z" clip-rule="nonzero"/></clipPath><g clip-path="url(#g310139644c1_0_0.0)"><path fill="#000000" fill-opacity="0.0" d="m0 0l1868.1602 0l0 2159.0393l-1868.1602 0z" fill-rule="evenodd"/><defs><radialGradient id="g310139644c1_0_0.1" gradientUnits="userSpaceOnUse" gradientTransform="matrix(0.0 53.10201332244982 -53.10201332244982 0.0 0.0 0.0)" spreadMethod="pad" cx="40.360140610777385" cy="-0.17428247859701068" fx="40.360140610777385" fy="-0.17428247859701068" r="53.102012634277344"><stop offset="0.0" stop-color="#fff2cc"/><stop offset="1.0" stop-color="#cdbcaf"/></radialGradient></defs><path fill="url(#g310139644c1_0_0.1)" d="m934.6873 15.834645l925.4327 539.28687l0 1048.7964l-925.4327 539.287l-925.4326 -539.287l0 -1048.7964z" fill-rule="evenodd"/><path stroke="#aa8270" stroke-width="24.0" stroke-linejoin="round" stroke-linecap="butt" d="m934.6873 15.834645l925.4327 539.28687l0 1048.7964l-925.4327 539.287l-925.4326 -539.287l0 -1048.7964z" fill-rule="evenodd"/><defs><linearGradient id="g310139644c1_0_0.2" gradientUnits="userSpaceOnUse" gradientTransform="matrix(42.755966491840304 0.0 0.0 -42.755966491840304 0.0 0.0)" spreadMethod="pad" x1="43.22373746261512" y1="-20.526735610455642" x2="0.4677709718903646" y2="-20.52704446514099"><stop offset="0.0" stop-color="#fff2cc"/><stop offset="1.0" stop-color="#cdbcaf"/></linearGradient></defs><path fill="url(#g310139644c1_0_0.2)" d="m1848.0665 877.64044l0 -316.66595l-911.1115 -531.6522l-916.955 525.8415l0 322.47668z" fill-rule="evenodd"/><path fill="#a76c8a" d="m102.21786 1632.0867l1658.8346 0l-331.76697 205.19421l-995.3007 0z" fill-rule="evenodd"/><path stroke="#595959" stroke-width="1.0" stroke-linejoin="round" stroke-linecap="butt" d="m102.21786 1632.0867l1658.8346 0l-331.76697 205.19421l-995.3007 0z" fill-rule="evenodd"/><path fill="#f1f0f0" d="m1178.9032 1981.4642l-241.15485 141.85559l-241.15222 -136.18103z" fill-rule="evenodd"/><path fill="#f1f0f0" d="m696.5958 1980.6221c0 -23.204712 107.96631 -42.015747 241.1496 -42.015747l0 0c133.18329 0 241.1496 18.811035 241.1496 42.015747l0 0c0 23.20459 -107.96631 42.015747 -241.1496 42.015747l0 0c-133.18329 0 -241.1496 -18.811157 -241.1496 -42.015747z" fill-rule="evenodd"/><path fill="#eeeeee" d="m20.236221 1059.8215l1825.9213 0l0 421.51184l-1825.9213 0z" fill-rule="evenodd"/><path fill="#000000" fill-opacity="0.0" d="m726.0 1986.1837c0 -21.230347 93.124756 -38.440918 208.0 -38.440918l0 0c114.875244 0 208.0 17.210571 208.0 38.440918l0 0c0 21.230347 -93.124756 38.440918 -208.0 38.440918l0 0c-114.875244 0 -208.0 -17.210571 -208.0 -38.440918z" fill-rule="evenodd"/><path stroke="#b7b7b7" stroke-width="8.0" stroke-linejoin="round" stroke-linecap="butt" d="m726.0 1986.1837c0 -21.230347 93.124756 -38.440918 208.0 -38.440918l0 0c114.875244 0 208.0 17.210571 208.0 38.440918l0 0c0 21.230347 -93.124756 38.440918 -208.0 38.440918l0 0c-114.875244 0 -208.0 -17.210571 -208.0 -38.440918z" fill-rule="evenodd"/><path fill="#6d9eeb" d="m742.5092 1986.6509l0 0c0 -6.340088 19.99121 -12.420532 55.575867 -16.903687c35.584656 -4.4831543 83.84784 -7.001831 134.17212 -7.001831l0 0c104.79492 0 189.74805 10.702881 189.74805 23.905518l0 0c0 13.202637 -84.953125 23.905518 -189.74805 23.905518l0 0c-104.79492 0 -189.74799 -10.702881 -189.74799 -23.905518z" fill-rule="evenodd"/><path stroke="#595959" stroke-width="1.0" stroke-linejoin="round" stroke-linecap="butt" d="m742.5092 1986.6509l0 0c0 -6.340088 19.99121 -12.420532 55.575867 -16.903687c35.584656 -4.4831543 83.84784 -7.001831 134.17212 -7.001831l0 0c104.79492 0 189.74805 10.702881 189.74805 23.905518l0 0c0 13.202637 -84.953125 23.905518 -189.74805 23.905518l0 0c-104.79492 0 -189.74799 -10.702881 -189.74799 -23.905518z" fill-rule="evenodd"/><g filter="url(#shadowFilter-g310139644c1_0_0.3)"><use xlink:href="#g310139644c1_0_0.3" transform="matrix(1.0 0.0 0.0 1.0 0.0 2.0)"/></g><defs><filter id="shadowFilter-g310139644c1_0_0.3" filterUnits="userSpaceOnUse"><feGaussianBlur in="SourceAlpha" stdDeviation="16.5" result="blur"/><feComponentTransfer in="blur" color-interpolation-filters="sRGB"><feFuncR type="linear" slope="0" intercept="0.0"/><feFuncG type="linear" slope="0" intercept="0.0"/><feFuncB type="linear" slope="0" intercept="0.0"/><feFuncA type="linear" slope="0.5" intercept="0"/></feComponentTransfer></filter></defs><g id="g310139644c1_0_0.3"><path fill="#000000" fill-opacity="0.0" d="m942.9134 1580.4094l-2.7716675 295.55908" fill-rule="evenodd"/><path stroke="#ffe599" stroke-width="24.0" stroke-linejoin="round" stroke-linecap="butt" d="m942.9134 1580.4094l-2.7716675 295.55908" fill-rule="evenodd"/></g><path fill="#ffffff" fill-opacity="0.7468" d="m920.352 1703.4077l0 0c-0.40252686 -31.49524 0.9190674 -62.673462 3.4039307 -80.30481c2.4848633 -17.631348 5.6972046 -18.623657 8.273987 -2.555664l0 0c0.91278076 -18.312622 2.583374 -30.956177 4.506592 -34.106323c1.9231567 -3.1501465 3.8729248 3.5631104 5.2595825 18.109253l0 0c0.7775879 -16.603394 2.3043213 -27.758667 4.038513 -29.507568c1.7341919 -1.7487793 3.430359 6.156372 4.4866333 20.910522l0 0c1.4047852 -17.59961 3.6397705 -25.009766 5.737976 -19.024048c2.0981445 5.985718 3.6826172 24.292114 4.06781 46.997925l0 0c1.7210693 4.998413 3.1547241 17.704834 3.930481 34.836426c0.77575684 17.131592 0.8175659 37.007812 0.11462402 54.493286l0 0c1.6947632 23.484863 2.0911865 54.7782 1.0413818 82.20178c-1.0498047 27.423584 -3.3881836 46.85742 -6.142456 51.049194c-0.01940918 25.738037 -1.3451538 49.35498 -3.4662476 61.747803c-2.1211548 12.392822 -4.70636 11.626343 -6.7592773 -2.0040283l0 0c-0.87438965 30.825684 -3.3356323 53.50708 -6.3203125 58.24475c-2.9846191 4.737671 -5.9577026 -9.317627 -7.6347046 -36.093384l0 0c-2.055603 13.197876 -4.522217 16.999756 -6.8433228 10.547974c-2.321106 -6.45166 -4.3012695 -22.613647 -5.4937744 -44.839844l0 0c-2.100586 2.6171875 -4.131592 -8.970337 -5.084961 -29.011597c-0.9534302 -20.041382 -0.62628174 -44.270264 0.81903076 -60.661987l0 0c-1.8737793 -11.74231 -2.829895 -35.042725 -2.369751 -57.75122c0.460083 -22.708496 2.2322388 -39.679077 4.392212 -42.062378z" fill-rule="evenodd"/><path fill="#000000" fill-opacity="0.0" d="m918.288 1804.435l0 0c0.8842163 5.54126 1.9057617 8.05481 2.9273682 7.203369m1.3380737 82.47229c0.43933105 -0.5473633 0.8699951 -1.706543 1.2808228 -3.4475098m11.055664 37.737915c-0.30895996 -4.933716 -0.567688 -10.205811 -0.7716675 -15.72644m14.727234 -6.4259033l0 0c0.15942383 -5.619995 0.2626953 -11.404175 0.3081665 -17.255981m9.916992 -42.485474c0.020629883 -27.402222 -1.4411621 -52.49182 -3.7575073 -64.49231m8.8585205 -68.75586c-0.3751831 9.330933 -0.94781494 17.608276 -1.6731567 24.183105m-2.371643 -113.51526l0 0c0.063964844 3.7680664 0.09350586 7.5927734 0.088378906 11.4210205m-9.893982 -39.3938l0 0c-0.35040283 4.390259 -0.63916016 9.296265 -0.8571167 14.565308m-7.668091 -5.970093l0 0c-0.18670654 3.9875488 -0.32617188 8.207153 -0.4151001 12.561523m-9.351196 3.435791l0 0c0.54522705 3.4000244 1.0496216 7.4921875 1.5021362 12.186768m-13.179932 70.674194l0 0c0.055480957 4.3408203 0.14312744 8.628174 0.262146 12.821899" fill-rule="evenodd"/><path fill="#ffffff" fill-opacity="0.7468" d="m923.79596 1554.9077l0 0c-6.459839 -22.351074 -11.194397 -44.925293 -12.194641 -58.143677c-1.0002441 -13.218384 1.9092407 -14.762695 7.4938354 -3.977539l0 0c-2.6490479 -13.294678 -3.473755 -22.744629 -2.2246704 -25.4917c1.2490845 -2.7469482 4.425232 1.5316162 8.56781 11.541748l0 0c-2.4500732 -12.0407715 -3.126831 -20.392212 -1.7900391 -22.09082c1.336853 -1.6987305 4.497925 3.4958496 8.361633 13.740234l0 0c-2.0366821 -12.914307 -1.3078003 -18.779907 1.8713379 -15.058838c3.1791382 3.7211914 8.237427 16.36084 12.986206 32.449707l0 0c2.624817 3.1154785 6.458069 11.801636 10.509277 23.814331c4.0512695 12.012695 7.9231567 26.173462 10.615295 38.82361l0 0c6.163025 16.3031 12.578064 38.51172 16.851135 58.338135c4.2730713 19.826416 5.762207 34.29187 3.9116821 37.998047c4.942749 18.356201 8.215698 35.540283 8.557251 44.928833c0.34155273 9.38855 -2.3016357 9.515503 -6.9107056 0.33190918l0 0c5.0982056 22.20642 7.0947876 39.019287 5.127136 43.174683c-1.9677124 4.1555176 -7.546875 -5.0913086 -14.327148 -23.745483l0 0c0.55999756 9.945557 -1.0880127 13.298828 -4.5721436 9.303467c-3.484192 -3.9954834 -8.511047 -15.00293 -13.946655 -30.53955l0 0c-1.5230713 2.41333 -5.717163 -5.319458 -10.500793 -19.360474c-4.7836304 -14.041016 -9.138428 -31.401367 -10.903198 -43.465088l0 0c-4.0722046 -7.884033 -9.486694 -24.248169 -13.420044 -40.55896c-3.9333496 -16.310913 -5.4942017 -28.872559 -3.8687134 -31.134521z" fill-rule="evenodd"/><path fill="#000000" fill-opacity="0.0" d="m941.2787 1627.4775l0 0c1.9216919 3.720459 3.392212 5.246582 4.2142334 4.373291m17.189697 58.453857c0.31854248 -0.50476074 0.5107422 -1.4434814 0.5717163 -2.791748m17.946228 24.026855c-1.2493286 -3.4371338 -2.5153809 -7.128784 -3.7764893 -11.011841m12.976807 -8.418091l0 0c-0.9295044 -4.048584 -1.9448242 -8.199585 -3.0289917 -12.383789m1.3825073 -32.875366c-5.262329 -19.542969 -11.509888 -37.051025 -16.059021 -45.003784m-4.703369 -51.330322c1.4366455 6.7506104 2.4794922 12.801514 3.046753 17.678223m-24.171387 -80.31799l0 0c0.7880249 2.6699219 1.553894 5.389282 2.2868652 8.120117m-17.144043 -25.510132l0 0c0.50805664 3.2214355 1.1751099 6.7946777 1.9803467 10.608154m-8.552429 -2.2590332l0 0c0.58843994 2.8918457 1.2672119 5.9366455 2.020752 9.064453m-8.363892 4.885742l0 0c1.1817017 2.2822266 2.4573975 5.0684814 3.7991943 8.297852m0.90179443 53.82373l0 0c0.89038086 3.0805664 1.8014526 6.114624 2.7247314 9.07373" fill-rule="evenodd"/><g filter="url(#shadowFilter-g310139644c1_0_0.4)"><use xlink:href="#g310139644c1_0_0.4" transform="matrix(1.0 0.0 0.0 1.0 -2.3465170603674546 14.815325196850447)"/></g><defs><filter id="shadowFilter-g310139644c1_0_0.4" filterUnits="userSpaceOnUse"><feGaussianBlur in="SourceAlpha" stdDeviation="3.0" result="blur"/><feComponentTransfer in="blur" color-interpolation-filters="sRGB"><feFuncR type="linear" slope="0" intercept="0.0"/><feFuncG type="linear" slope="0" intercept="0.0"/><feFuncB type="linear" slope="0" intercept="0.0"/><feFuncA type="linear" slope="0.23" intercept="0"/></feComponentTransfer></filter></defs><g id="g310139644c1_0_0.4"><path fill="#000000" fill-opacity="0.0" d="m20.235762 753.41754l265.174 1.5354004l0 -158.87927l163.42761 -5.671875l0 -161.71655l154.51083 0l323.88647 -263.8504l332.7979 269.52493l145.5968 0l0 178.73752l166.39893 0l0 153.20471l276.34204 0" fill-rule="evenodd"/><path stroke="#ffffff" stroke-width="24.0" stroke-linejoin="round" stroke-linecap="butt" d="m20.235762 753.41754l265.174 1.5354004l0 -158.87927l163.42761 -5.671875l0 -161.71655l154.51083 0l323.88647 -263.8504l332.7979 269.52493l145.5968 0l0 178.73752l166.39893 0l0 153.20471l276.34204 0" fill-rule="evenodd"/></g><path fill="#000000" fill-opacity="0.0" d="m20.235762 737.41754l265.174 1.5354004l0 -158.87927l163.42761 -5.671875l0 -161.71655l154.51083 0l323.88647 -263.8504l332.7979 269.52493l145.5968 0l0 178.73752l166.39893 0l0 153.20471l276.34204 0" fill-rule="evenodd"/><path stroke="#c27ba0" stroke-width="24.0" stroke-linejoin="round" stroke-linecap="butt" d="m20.235762 737.41754l265.174 1.5354004l0 -158.87927l163.42761 -5.671875l0 -161.71655l154.51083 0l323.88647 -263.8504l332.7979 269.52493l145.5968 0l0 178.73752l166.39893 0l0 153.20471l276.34204 0" fill-rule="evenodd"/><path fill="#000000" fill-opacity="0.0" d="m20.235762 708.25464l265.174 1.5354004l0 -158.87927l163.42761 -5.671875l0 -161.71655l154.51083 0l323.88647 -263.8504l332.7979 269.52493l145.5968 0l0 178.73752l166.39893 0l0 153.20477l276.34204 0" fill-rule="evenodd"/><path stroke="#c27ba0" stroke-width="24.0" stroke-linejoin="round" stroke-linecap="butt" d="m20.235762 708.25464l265.174 1.5354004l0 -158.87927l163.42761 -5.671875l0 -161.71655l154.51083 0l323.88647 -263.8504l332.7979 269.52493l145.5968 0l0 178.73752l166.39893 0l0 153.20477l276.34204 0" fill-rule="evenodd"/><path fill="#000000" fill-opacity="0.0" d="m20.235762 716.25464l265.174 1.5354004l0 -158.87927l163.42761 -5.671875l0 -161.71655l154.51083 0l323.88647 -263.8504l332.7979 269.52493l145.5968 0l0 178.73752l166.39893 0l0 153.20477l276.34204 0" fill-rule="evenodd"/><path stroke="#c27ba0" stroke-width="24.0" stroke-linejoin="round" stroke-linecap="butt" d="m20.235762 716.25464l265.174 1.5354004l0 -158.87927l163.42761 -5.671875l0 -161.71655l154.51083 0l323.88647 -263.8504l332.7979 269.52493l145.5968 0l0 178.73752l166.39893 0l0 153.20477l276.34204 0" fill-rule="evenodd"/><path fill="#ffffff" fill-opacity="0.8734" d="m958.42474 1579.7642l0 0c0.40252686 -28.819946 -0.91900635 -57.34961 -3.4039307 -73.482666c-2.4848633 -16.133179 -5.6972046 -17.040405 -8.273987 -2.33667l0 0c-0.91278076 -16.756958 -2.583374 -28.326172 -4.506531 -31.208252c-1.9231567 -2.88208 -3.8729858 3.2613525 -5.2596436 16.572266l0 0c-0.7775879 -15.192871 -2.3043213 -25.40039 -4.038513 -27.000244c-1.7341919 -1.5998535 -3.430359 5.6342773 -4.4866333 19.135254l0 0c-1.4047241 -16.104248 -3.6397705 -22.8844 -5.737976 -17.406738c-2.0981445 5.477783 -3.6826172 22.229492 -4.06781 43.006714l0 0c-1.7210693 4.5742188 -3.1547241 16.20166 -3.930481 31.878296c-0.77575684 15.676514 -0.8175659 33.864502 -0.11462402 49.864502l0 0c-1.6947632 21.490356 -2.0911865 50.12561 -1.0413818 75.21948c1.0498047 25.093994 3.3881836 42.876587 6.142456 46.71167c0.01940918 23.551758 1.3451538 45.16223 3.4663086 56.501953c2.1210938 11.3396 4.706299 10.637573 6.7592163 -1.8353271l0 0c0.87438965 28.207031 3.3356323 48.96118 6.3203125 53.295776c2.9846802 4.3345947 5.9577026 -8.527466 7.6347046 -33.029297l0 0c2.055603 12.076416 4.522217 15.55481 6.8433228 9.650513c2.321106 -5.904175 4.3012695 -20.693726 5.4937744 -41.032227l0 0c2.100586 2.3944092 4.131592 -8.209351 5.084961 -26.548462c0.9534302 -18.339233 0.62628174 -40.51001 -0.81903076 -55.509033l0 0c1.8737793 -10.745239 2.829895 -32.066772 2.369751 -52.84619c-0.460083 -20.779419 -2.2321777 -36.308105 -4.392212 -38.488403z" fill-rule="evenodd"/><path fill="#000000" fill-opacity="0.0" d="m960.4887 1672.2096l0 0c-0.8842163 5.070801 -1.9057617 7.3710938 -2.9273682 6.592163m-1.3380737 75.46716c-0.43933105 -0.5007324 -0.8699951 -1.5614014 -1.2808228 -3.154419m-11.055664 34.534912c0.30895996 -4.5146484 0.567688 -9.338989 0.7717285 -14.390747m-14.727295 -5.876709l0 0c-0.15942383 -5.142578 -0.2626953 -10.435425 -0.3081665 -15.790283m-9.916931 -38.87439c-0.020690918 -25.074463 1.4411011 -48.033325 3.7574463 -59.014893m-8.858459 -62.913574c0.37512207 8.53833 0.9477539 16.112427 1.6730957 22.12854m2.371643 -103.873535l0 0c-0.06390381 3.447998 -0.09350586 6.947876 -0.08831787 10.450928m9.893921 -36.049805l0 0c0.35046387 4.017212 0.63916016 8.50647 0.8571167 13.327881m7.668091 -5.4647217l0 0c0.18670654 3.6488037 0.32617188 7.5098877 0.4151001 11.494385m9.351196 3.1418457l0 0c-0.54522705 3.1113281 -1.0496216 6.856079 -1.5021362 11.151978m13.179932 64.66785l0 0c-0.055480957 3.972168 -0.14312744 7.8953857 -0.262146 11.73291" fill-rule="evenodd"/><defs><linearGradient id="g310139644c1_0_0.5" gradientUnits="userSpaceOnUse" gradientTransform="matrix(7.838940166892794 0.0 0.0 7.838940166892794 0.0 0.0)" spreadMethod="pad" x1="117.91289003566827" y1="246.70942902763377" x2="117.91285864583918" y2="254.54836919446373"><stop offset="0.0" stop-color="#595959"/><stop offset="1.0" stop-color="#3c78d8"/></linearGradient></defs><path fill="url(#g310139644c1_0_0.5)" d="m924.3121 1937.2988l0 0c0 1.8547363 6.01416 3.3582764 13.433044 3.3582764c7.4188843 0 13.433105 -1.50354 13.433105 -3.3582764l0 54.7323c0 1.8547363 -6.014221 3.3582764 -13.433105 3.3582764c-7.4188843 0 -13.433044 -1.50354 -13.433044 -3.3582764z" fill-rule="evenodd"/><defs><linearGradient id="g310139644c1_0_0.6" gradientUnits="userSpaceOnUse" gradientTransform="matrix(7.838940166892794 0.0 0.0 7.838940166892794 0.0 0.0)" spreadMethod="pad" x1="117.91289003566827" y1="246.70942902763377" x2="117.91285864583918" y2="254.54836919446373"><stop offset="0.0" stop-color="#595959"/><stop offset="1.0" stop-color="#3c78d8"/></linearGradient></defs><path fill="url(#g310139644c1_0_0.6)" d="m924.3121 1937.2988l0 0c0 -1.8546143 6.01416 -3.3582764 13.433044 -3.3582764c7.4188843 0 13.433105 1.5036621 13.433105 3.3582764l0 0c0 1.8547363 -6.014221 3.3582764 -13.433105 3.3582764c-7.4188843 0 -13.433044 -1.50354 -13.433044 -3.3582764z" fill-rule="evenodd"/><path fill="#000000" fill-opacity="0.0" d="m951.1782 1937.2988l0 0c0 1.8547363 -6.014221 3.3582764 -13.433105 3.3582764c-7.4188843 0 -13.433044 -1.50354 -13.433044 -3.3582764l0 0c0 -1.8546143 6.01416 -3.3582764 13.433044 -3.3582764c7.4188843 0 13.433105 1.5036621 13.433105 3.3582764l0 54.7323c0 1.8547363 -6.014221 3.3582764 -13.433105 3.3582764c-7.4188843 0 -13.433044 -1.50354 -13.433044 -3.3582764l0 -54.7323" fill-rule="evenodd"/><path fill="#ffffff" fill-opacity="0.4" d="m924.3121 1937.2988l0 0c0 -1.8546143 6.01416 -3.3582764 13.433044 -3.3582764c7.4188843 0 13.433105 1.5036621 13.433105 3.3582764l0 0c0 1.8547363 -6.014221 3.3582764 -13.433105 3.3582764c-7.4188843 0 -13.433044 -1.50354 -13.433044 -3.3582764z" fill-rule="evenodd"/><path stroke="#efefef" stroke-width="1.0" stroke-linejoin="round" stroke-linecap="butt" d="m951.1782 1937.2988l0 0c0 1.8547363 -6.014221 3.3582764 -13.433105 3.3582764c-7.4188843 0 -13.433044 -1.50354 -13.433044 -3.3582764l0 0c0 -1.8546143 6.01416 -3.3582764 13.433044 -3.3582764c7.4188843 0 13.433105 1.5036621 13.433105 3.3582764l0 54.7323c0 1.8547363 -6.014221 3.3582764 -13.433105 3.3582764c-7.4188843 0 -13.433044 -1.50354 -13.433044 -3.3582764l0 -54.7323" fill-rule="evenodd"/><g filter="url(#shadowFilter-g310139644c1_0_0.7)"><use xlink:href="#g310139644c1_0_0.7" transform=""/></g><defs><filter id="shadowFilter-g310139644c1_0_0.7" filterUnits="userSpaceOnUse"><feGaussianBlur in="SourceAlpha" stdDeviation="18.5" result="blur"/><feComponentTransfer in="blur" color-interpolation-filters="sRGB"><feFuncR type="linear" slope="0" intercept="0.0"/><feFuncG type="linear" slope="0" intercept="0.0"/><feFuncB type="linear" slope="0" intercept="0.0"/><feFuncA type="linear" slope="0.83" intercept="0"/></feComponentTransfer></filter></defs><g id="g310139644c1_0_0.7"><path fill="#000000" fill-opacity="0.0" d="m334.6959 1765.335l1190.3937 0.9449463" fill-rule="evenodd"/><path stroke="#ffffff" stroke-width="16.0" stroke-linejoin="round" stroke-linecap="butt" d="m334.6959 1765.335l1190.3937 0.9449463" fill-rule="evenodd"/></g><g filter="url(#shadowFilter-g310139644c1_0_0.8)"><use xlink:href="#g310139644c1_0_0.8" transform=""/></g><defs><filter id="shadowFilter-g310139644c1_0_0.8" filterUnits="userSpaceOnUse"><feGaussianBlur in="SourceAlpha" stdDeviation="18.5" result="blur"/><feComponentTransfer in="blur" color-interpolation-filters="sRGB"><feFuncR type="linear" slope="0" intercept="0.0"/><feFuncG type="linear" slope="0" intercept="0.0"/><feFuncB type="linear" slope="0" intercept="0.0"/><feFuncA type="linear" slope="0.83" intercept="0"/></feComponentTransfer></filter></defs><g id="g310139644c1_0_0.8"><path fill="#000000" fill-opacity="0.0" d="m199.20723 1688.6833l1449.6062 9.606323" fill-rule="evenodd"/><path stroke="#ffffff" stroke-width="16.0" stroke-linejoin="round" stroke-linecap="butt" d="m199.20723 1688.6833l1449.6062 9.606323" fill-rule="evenodd"/></g><path fill="#ffffff" fill-opacity="0.7468" d="m972.38684 1719.2028l0 0c-3.468628 -23.003296 -6.1464844 -45.88269 -6.897217 -58.929443c-0.7507324 -13.046875 0.55737305 -13.9729 3.3691406 -2.385376l0 0c-1.5128174 -13.446777 -2.1000977 -22.795776 -1.5841675 -25.219238c0.5159302 -2.4233398 2.074463 2.3634033 4.2041626 12.912598l0 0c-1.3935547 -12.188599 -1.8885498 -20.44043 -1.3092041 -21.827393c0.5793457 -1.387085 2.151001 4.2871094 4.1572266 15.008911l0 0c-1.2220459 -12.956055 -1.0142822 -18.513794 0.53338623 -14.268188c1.5477295 4.2454834 4.1573486 17.531738 6.699707 34.10962l0 0c1.2788086 3.5471191 3.2368774 12.748291 5.368347 25.226074c2.1314087 12.477661 4.227173 27.008057 5.7457275 39.836914l0 0c3.1993408 17.065674 6.644226 39.921753 9.049072 60.03882c2.4048462 20.116943 3.4083252 34.472534 2.6359863 37.709473c2.6815186 18.82019 4.5671997 36.171143 4.930298 45.36487c0.36309814 9.193848 -0.85321045 8.794922 -3.1799316 -1.0430908l0 0c2.8374634 22.593628 4.126404 39.3313 3.3098755 42.98181c-0.8165283 3.6505127 -3.592102 -6.440674 -7.1275635 -25.913696l0 0c0.47595215 9.77832 -0.21069336 12.71228 -1.9050293 8.139893c-1.694397 -4.5723877 -4.253784 -16.26587 -7.10083 -32.442627l0 0c-0.6496582 2.0447998 -2.753296 -6.3009033 -5.2669067 -20.89502c-2.5136719 -14.594238 -4.9021606 -32.3302 -5.9801636 -44.40564l0 0c-2.0507812 -8.468628 -4.906189 -25.445679 -7.0773926 -42.078247c-2.1712036 -16.632568 -3.1660767 -29.151733 -2.4658813 -31.029175z" fill-rule="evenodd"/><path fill="#000000" fill-opacity="0.0" d="m982.03876 1793.2003l0 0c0.9677124 3.996338 1.6793823 5.770508 2.0393677 5.0841064m9.207703 60.218018c0.13586426 -0.4276123 0.20391846 -1.302124 0.20251465 -2.600708m8.8029175 26.902466c-0.65148926 -3.5880127 -1.3161621 -7.426758 -1.9828491 -11.450562m5.800659 -5.618286l0 0c-0.517334 -4.1191406 -1.076477 -8.354858 -1.6680908 -12.636353m-0.08215332 -31.683716c-2.8549194 -20.03711 -6.119568 -38.29065 -8.391785 -46.92041m-3.2930298 -50.825806c0.8104248 6.8459473 1.4238281 12.933838 1.7922363 17.786499m-12.906372 -82.85132l0 0c0.421875 2.7510986 0.83465576 5.5457764 1.2324829 8.345215m-8.465393 -28.185791l0 0c0.30480957 3.2319336 0.69073486 6.837036 1.1456299 10.703247m-3.9938965 -3.8862305l0 0c0.3347168 2.9273682 0.7144165 6.02124 1.1304321 9.210571m-3.7504883 3.0963135l0 0c0.5949707 2.4519043 1.2443237 5.4125977 1.9338379 8.816895m1.5943604 52.49829l0 0c0.47808838 3.1704102 0.96466064 6.2998047 1.4553223 9.358643" fill-rule="evenodd"/><g filter="url(#shadowFilter-g310139644c1_0_0.9)"><use xlink:href="#g310139644c1_0_0.9" transform="matrix(1.0 0.0 0.0 1.0 0.0 2.0)"/></g><defs><filter id="shadowFilter-g310139644c1_0_0.9" filterUnits="userSpaceOnUse"><feGaussianBlur in="SourceAlpha" stdDeviation="27.0" result="blur"/><feComponentTransfer in="blur" color-interpolation-filters="sRGB"><feFuncR type="linear" slope="0" intercept="0.0"/><feFuncG type="linear" slope="0" intercept="0.0"/><feFuncB type="linear" slope="0" intercept="0.0"/><feFuncA type="linear" slope="0.5" intercept="0"/></feComponentTransfer></filter></defs><g id="g310139644c1_0_0.9"><path fill="#000000" fill-opacity="0.0" d="m644.0236 1858.8164l2.8372803 -85.11279l-249.66669 -204.27039l0 59.577393" fill-rule="evenodd"/><path stroke="#ffe599" stroke-width="24.0" stroke-linejoin="round" stroke-linecap="butt" d="m644.0236 1858.8164l2.8372803 -85.11279l-249.66669 -204.27039l0 59.577393" fill-rule="evenodd"/></g><defs><radialGradient id="g310139644c1_0_0.10" gradientUnits="userSpaceOnUse" gradientTransform="matrix(24.006507825566853 0.0 0.0 24.006507825566853 0.0 0.0)" spreadMethod="pad" cx="2.5759091295780827" cy="61.026320676330876" fx="2.5759091295780827" fy="61.026320676330876" r="24.006507873535156"><stop offset="0.0" stop-color="#fff6db"/><stop offset="1.0" stop-color="#fad15c"/></radialGradient></defs><path fill="url(#g310139644c1_0_0.10)" d="m61.83858 1192.8083l507.96848 0l0 272.22046l-507.96848 0z" fill-rule="evenodd"/><defs><radialGradient id="g310139644c1_0_0.11" gradientUnits="userSpaceOnUse" gradientTransform="matrix(24.006507825566853 0.0 0.0 24.006507825566853 0.0 0.0)" spreadMethod="pad" cx="75.35691753215163" cy="61.026320676330876" fx="75.35691753215163" fy="61.026320676330876" r="24.006507873535156"><stop offset="0.0" stop-color="#fff6db"/><stop offset="1.0" stop-color="#fad15c"/></radialGradient></defs><path fill="url(#g310139644c1_0_0.11)" d="m1301.0879 1192.8083l507.9685 0l0 272.22046l-507.9685 0z" fill-rule="evenodd"/><defs><radialGradient id="g310139644c1_0_0.12" gradientUnits="userSpaceOnUse" gradientTransform="matrix(24.42811528958077 0.0 0.0 24.42811528958077 0.0 0.0)" spreadMethod="pad" cx="27.42478032367085" cy="48.829324665489395" fx="27.42478032367085" fy="48.829324665489395" r="24.428115844726562"><stop offset="0.0" stop-color="#fff6db"/><stop offset="1.0" stop-color="#fad15c"/></radialGradient></defs><path fill="url(#g310139644c1_0_0.12)" d="m669.93567 1192.8083l531.0237 0l0 272.22046l-531.0237 0z" fill-rule="evenodd"/><path fill="#93c47d" d="m1296.3281 1111.6755l0 0c0 -7.7349854 6.270508 -14.005493 14.005493 -14.005493l479.9574 0c3.7145996 0 7.2768555 1.4755859 9.903442 4.102051c2.626587 2.626587 4.102173 6.188965 4.102173 9.903442l0 56.020508c0 7.7349854 -6.270508 14.005493 -14.005615 14.005493l-479.9574 0c-7.7349854 0 -14.005493 -6.270508 -14.005493 -14.005493z" fill-rule="evenodd"/><path stroke="#595959" stroke-width="1.0" stroke-linejoin="round" stroke-linecap="butt" d="m1296.3281 1111.6755l0 0c0 -7.7349854 6.270508 -14.005493 14.005493 -14.005493l479.9574 0c3.7145996 0 7.2768555 1.4755859 9.903442 4.102051c2.626587 2.626587 4.102173 6.188965 4.102173 9.903442l0 56.020508c0 7.7349854 -6.270508 14.005493 -14.005615 14.005493l-479.9574 0c-7.7349854 0 -14.005493 -6.270508 -14.005493 -14.005493z" fill-rule="evenodd"/><path fill="#ffffff" d="m1419.0696 1173.5658l0 -50.265625l14.390625 0l0.65625 16.375l-2.828125 -3.125q1.125 -4.0625 3.71875 -7.28125q2.609375 -3.21875 6.109375 -5.109375q3.515625 -1.890625 7.484375 -1.890625q1.703125 0 3.171875 0.28125q1.46875 0.28125 2.703125 0.65625l-4.171875 16.75q-1.03125 -0.65625 -2.796875 -1.078125q-1.75 -0.4375 -3.640625 -0.4375q-2.078125 0 -3.875 0.71875q-1.796875 0.703125 -3.03125 2.03125q-1.234375 1.328125 -1.953125 3.125q-0.703125 1.796875 -0.703125 4.078125l0 25.171875l-15.234375 0zm60.006104 0.953125q-7.375 0 -13.015625 -2.359375q-5.625 -2.375 -8.9375 -6.359375l9.1875 -7.953125q2.921875 2.9375 6.609375 4.3125q3.703125 1.375 7.015625 1.375q1.328125 0 2.359375 -0.28125q1.046875 -0.28125 1.75 -0.796875q0.71875 -0.53125 1.09375 -1.234375q0.375 -0.71875 0.375 -1.671875q0 -1.890625 -1.703125 -2.921875q-0.84375 -0.484375 -2.84375 -1.140625q-1.984375 -0.65625 -5.09375 -1.515625q-4.453125 -1.140625 -7.71875 -2.703125q-3.265625 -1.5625 -5.34375 -3.640625q-1.90625 -1.984375 -2.953125 -4.390625q-1.03125 -2.421875 -1.03125 -5.453125q0 -3.5 1.65625 -6.34375q1.65625 -2.84375 4.453125 -4.921875q2.796875 -2.078125 6.4375 -3.15625q3.640625 -1.09375 7.515625 -1.09375q4.171875 0 7.953125 0.953125q3.796875 0.9375 7.0625 2.640625q3.265625 1.703125 5.8125 4.0625l-7.953125 8.90625q-1.703125 -1.609375 -3.828125 -2.890625q-2.125 -1.28125 -4.40625 -2.03125q-2.265625 -0.765625 -4.15625 -0.765625q-1.421875 0 -2.515625 0.25q-1.09375 0.234375 -1.84375 0.75q-0.75 0.515625 -1.140625 1.234375q-0.375 0.703125 -0.375 1.65625q0 0.9375 0.515625 1.796875q0.53125 0.84375 1.46875 1.421875q0.953125 0.5625 3.03125 1.28125q2.078125 0.703125 5.6875 1.734375q4.4375 1.234375 7.65625 2.75q3.21875 1.515625 5.109375 3.59375q1.515625 1.609375 2.265625 3.75q0.765625 2.125 0.765625 4.578125q0 4.828125 -2.703125 8.578125q-2.6875 3.734375 -7.421875 5.875q-4.734375 2.125 -10.796875 2.125zm34.089233 -0.953125l0 -62.953125l15.140625 0l0 62.953125l-15.140625 0zm-8.90625 -37.015625l0 -13.25l33.796875 0l0 13.25l-33.796875 0zm60.48108 37.875q-6.328125 0 -11.296875 -3.359375q-4.96875 -3.375 -7.90625 -9.28125q-2.9375 -5.921875 -2.9375 -13.390625q0 -7.671875 2.9375 -13.53125q2.9375 -5.875 8.046875 -9.234375q5.109375 -3.359375 11.640625 -3.359375q3.59375 0 6.578125 1.046875q2.984375 1.03125 5.25 2.875q2.265625 1.84375 3.875 4.265625q1.609375 2.40625 2.375 5.15625l-3.125 -0.375l0 -11.9375l15.046875 0l0 50.265625l-15.328125 0l0 -12.109375l3.40625 -0.09375q-0.765625 2.640625 -2.46875 5.015625q-1.703125 2.359375 -4.171875 4.15625q-2.453125 1.796875 -5.484375 2.84375q-3.015625 1.046875 -6.4375 1.046875zm4.171875 -12.78125q3.5 0 6.046875 -1.609375q2.5625 -1.609375 3.984375 -4.59375q1.421875 -2.984375 1.421875 -7.046875q0 -4.078125 -1.421875 -7.0625q-1.421875 -2.984375 -3.984375 -4.640625q-2.546875 -1.65625 -6.046875 -1.65625q-3.40625 0 -5.921875 1.65625q-2.5 1.65625 -3.921875 4.640625q-1.421875 2.984375 -1.421875 7.0625q0 4.0625 1.421875 7.046875q1.421875 2.984375 3.921875 4.59375q2.515625 1.609375 5.921875 1.609375zm43.831543 11.921875l0 -62.953125l15.140625 0l0 62.953125l-15.140625 0zm-8.90625 -37.015625l0 -13.25l33.796875 0l0 13.25l-33.796875 0zm61.238403 37.96875q-7.375 0 -13.015625 -2.359375q-5.625 -2.375 -8.9375 -6.359375l9.1875 -7.953125q2.921875 2.9375 6.609375 4.3125q3.703125 1.375 7.015625 1.375q1.328125 0 2.359375 -0.28125q1.046875 -0.28125 1.75 -0.796875q0.71875 -0.53125 1.09375 -1.234375q0.375 -0.71875 0.375 -1.671875q0 -1.890625 -1.703125 -2.921875q-0.84375 -0.484375 -2.84375 -1.140625q-1.984375 -0.65625 -5.09375 -1.515625q-4.453125 -1.140625 -7.71875 -2.703125q-3.265625 -1.5625 -5.34375 -3.640625q-1.90625 -1.984375 -2.953125 -4.390625q-1.03125 -2.421875 -1.03125 -5.453125q0 -3.5 1.65625 -6.34375q1.65625 -2.84375 4.453125 -4.921875q2.796875 -2.078125 6.4375 -3.15625q3.640625 -1.09375 7.515625 -1.09375q4.171875 0 7.953125 0.953125q3.796875 0.9375 7.0625 2.640625q3.265625 1.703125 5.8125 4.0625l-7.953125 8.90625q-1.703125 -1.609375 -3.828125 -2.890625q-2.125 -1.28125 -4.40625 -2.03125q-2.265625 -0.765625 -4.15625 -0.765625q-1.421875 0 -2.515625 0.25q-1.09375 0.234375 -1.84375 0.75q-0.75 0.515625 -1.140625 1.234375q-0.375 0.703125 -0.375 1.65625q0 0.9375 0.515625 1.796875q0.53125 0.84375 1.46875 1.421875q0.953125 0.5625 3.03125 1.28125q2.078125 0.703125 5.6875 1.734375q4.4375 1.234375 7.65625 2.75q3.21875 1.515625 5.109375 3.59375q1.515625 1.609375 2.265625 3.75q0.765625 2.125 0.765625 4.578125q0 4.828125 -2.703125 8.578125q-2.6875 3.734375 -7.421875 5.875q-4.734375 2.125 -10.796875 2.125z" fill-rule="nonzero"/><path fill="#000000" fill-opacity="0.0" d="m230.96194 1206.4176l179.24408 0l0 260.12598l-179.24408 0z" fill-rule="evenodd"/><path stroke="#999999" stroke-width="4.0" stroke-linejoin="round" stroke-linecap="butt" d="m230.96194 1206.4176l179.24408 0l0 260.12598l-179.24408 0z" fill-rule="evenodd"/><path fill="#000000" fill-opacity="0.0" d="m842.5491 1203.2836l179.24408 0l0 260.1261l-179.24408 0z" fill-rule="evenodd"/><path stroke="#999999" stroke-width="4.0" stroke-linejoin="round" stroke-linecap="butt" d="m842.5491 1203.2836l179.24408 0l0 260.1261l-179.24408 0z" fill-rule="evenodd"/><path fill="#000000" fill-opacity="0.0" d="m1460.689 1203.2831l179.24414 0l0 260.12598l-179.24414 0z" fill-rule="evenodd"/><path stroke="#999999" stroke-width="4.0" stroke-linejoin="round" stroke-linecap="butt" d="m1460.689 1203.2831l179.24414 0l0 260.12598l-179.24414 0z" fill-rule="evenodd"/><g filter="url(#shadowFilter-g310139644c1_0_0.13)"><use xlink:href="#g310139644c1_0_0.13" transform="matrix(1.0 0.0 0.0 1.0 0.0 2.0)"/></g><defs><filter id="shadowFilter-g310139644c1_0_0.13" filterUnits="userSpaceOnUse"><feGaussianBlur in="SourceAlpha" stdDeviation="17.0" result="blur"/><feComponentTransfer in="blur" color-interpolation-filters="sRGB"><feFuncR type="linear" slope="0" intercept="0.0"/><feFuncG type="linear" slope="0" intercept="0.0"/><feFuncB type="linear" slope="0" intercept="0.0"/><feFuncA type="linear" slope="0.5" intercept="0"/></feComponentTransfer></filter></defs><g id="g310139644c1_0_0.13"><path fill="#000000" fill-opacity="0.0" d="m1254.5607 1862.0396l-2.8372803 -85.112915l249.66675 -204.27026l0 59.577393" fill-rule="evenodd"/><path stroke="#ffe599" stroke-width="24.0" stroke-linejoin="round" stroke-linecap="butt" d="m1254.5607 1862.0396l-2.8372803 -85.112915l249.66675 -204.27026l0 59.577393" fill-rule="evenodd"/></g><path fill="#9fc5e8" d="m61.839893 1111.6755l0 0c0 -7.7349854 6.2704887 -14.005493 14.0055275 -14.005493l479.95743 0c3.7145386 0 7.2768555 1.4755859 9.903442 4.102051c2.6265259 2.626587 4.102112 6.188965 4.102112 9.903442l0 56.020508c0 7.7349854 -6.270508 14.005493 -14.005554 14.005493l-479.95743 0c-7.7350388 0 -14.0055275 -6.270508 -14.0055275 -14.005493z" fill-rule="evenodd"/><path fill="#ffffff" d="m259.4145 1171.8689q-6.2500153 0 -10.17189 -2.109375q-3.90625 -2.109375 -5.671875 -5.71875q-1.75 -3.609375 -1.75 -8.09375l0 -44.53125l18.562515 -2.734375l0 44.703125q0 2.03125 1.3125 3.140625q1.328125 1.09375 3.4375 1.09375q2.109375 0 4.234375 -1.0625l1.3125 12.234375q-2.109375 1.5 -5.375 2.296875q-3.25 0.78125 -5.890625 0.78125zm33.0 0q-6.25 0 -10.171875 -2.109375q-3.90625 -2.109375 -5.671875 -5.71875q-1.75 -3.609375 -1.75 -8.09375l0 -44.53125l18.5625 -2.734375l0 44.703125q0 2.03125 1.3125 3.140625q1.328125 1.09375 3.4375 1.09375q2.109375 0 4.234375 -1.0625l1.3125 12.234375q-2.109375 1.5 -5.375 2.296875q-3.25 0.78125 -5.890625 0.78125zm15.6719055 -0.703125l0 -44.09375l18.296875 0l0 9.59375q1.9375 -4.921875 5.578125 -7.5625q3.65625 -2.640625 9.203125 -2.640625q5.453125 0 9.28125 2.6875q3.828125 2.671875 5.421875 6.90625q2.984375 -4.484375 7.078125 -7.03125q4.09375 -2.5625 9.90625 -2.5625q8.1875 0 12.671875 5.9375q4.484375 5.9375 4.484375 16.765625l0 22.0l-18.5625 0l0 -22.96875q0 -7.828125 -5.546875 -7.828125q-3.4375 0 -5.515625 2.78125q-2.0625 2.765625 -2.0625 7.421875l0 20.59375l-18.5625 0l0 -22.96875q0 -4.140625 -1.40625 -5.984375q-1.40625 -1.84375 -4.140625 -1.84375q-3.421875 0 -5.5 2.6875q-2.0625 2.671875 -2.0625 7.515625l0 20.59375l-18.5625 0z" fill-rule="nonzero"/><path fill="#ff9900" d="m668.7113 1112.3126l0 0c0 -7.7349854 6.270447 -14.005493 14.005493 -14.005493l503.01257 0c3.7144775 0 7.2768555 1.4755859 9.903442 4.102051c2.6264648 2.626587 4.102051 6.188965 4.102051 9.903442l0 56.020386c0 7.7351074 -6.2703857 14.005615 -14.005493 14.005615l-503.01257 0c-7.7350464 0 -14.005493 -6.270508 -14.005493 -14.005615z" fill-rule="evenodd"/><path fill="#ffffff" d="m877.80237 1139.3197l-11.84375 -1.015625q2.03125 -6.0 7.078125 -9.390625q5.0625 -3.390625 13.390625 -3.390625q8.671875 0 12.8125 3.5q4.15625 3.484375 4.15625 8.515625q0 2.03125 -0.359375 4.328125q-0.359375 2.28125 -2.515625 12.015625q-1.78125 8.03125 -1.78125 11.25q0 2.875 1.015625 6.390625l-11.796875 0q-0.71875 -2.453125 -0.890625 -5.078125q-2.671875 2.96875 -6.140625 4.5625q-3.46875 1.578125 -6.984375 1.578125q-5.578125 0 -9.21875 -3.65625q-3.640625 -3.671875 -3.640625 -9.421875q0 -6.4375 4.0 -10.28125q4.0 -3.859375 14.28125 -4.65625q8.671875 -0.71875 11.59375 -1.734375q0.765625 -2.546875 0.765625 -4.0625q0 -1.953125 -1.578125 -3.25q-1.5625 -1.3125 -4.640625 -1.3125q-3.265625 0 -5.15625 1.328125q-1.875 1.328125 -2.546875 3.78125zm11.546875 11.265625q-1.09375 0.28125 -2.921875 0.546875q-9.140625 1.09375 -11.921875 3.21875q-2.0 1.515625 -2.0 4.09375q0 2.125 1.515625 3.578125q1.53125 1.453125 4.03125 1.453125q2.75 0 5.171875 -1.328125q2.4375 -1.328125 3.640625 -3.421875q1.21875 -2.09375 2.140625 -6.546875l0.34375 -1.59375zm29.06903 -24.0l11.515625 0l-1.1875 5.84375q4.3125 -3.734375 8.046875 -5.3125q3.75 -1.59375 7.90625 -1.59375q5.53125 0 8.71875 3.1875q3.203125 3.171875 3.203125 8.40625q0 2.375 -1.390625 8.96875l-5.28125 25.4375l-12.15625 0l5.34375 -25.515625q1.171875 -5.71875 1.171875 -6.8125q0 -2.328125 -1.375 -3.65625q-1.375 -1.328125 -3.828125 -1.328125q-2.65625 0 -5.921875 2.25q-3.25 2.234375 -5.125 5.90625q-1.34375 2.625 -3.03125 10.703125l-3.859375 18.453125l-12.140625 0l9.390625 -44.9375zm84.88623 44.9375l-11.515625 0l1.015625 -4.859375q-3.296875 3.171875 -6.5 4.546875q-3.1875 1.375 -7.203125 1.375q-6.984375 0 -11.328125 -4.765625q-4.328125 -4.765625 -4.328125 -14.0625q0 -10.796875 6.09375 -19.515625q6.09375 -8.71875 16.109375 -8.71875q9.0625 0 13.59375 7.203125l4.859375 -23.234375l12.140625 0l-12.9375 62.03125zm-28.0625 -18.28125q0 4.828125 2.4375 7.53125q2.4375 2.703125 5.984375 2.703125q3.296875 0 6.15625 -2.25q2.859375 -2.265625 4.5625 -6.921875q1.71875 -4.65625 1.71875 -8.9375q0 -4.859375 -2.625 -7.859375q-2.625 -3.015625 -6.046875 -3.015625q-5.328125 0 -8.765625 5.9375q-3.421875 5.921875 -3.421875 12.8125z" fill-rule="nonzero"/><path fill="#faf2eb" d="m1218.6116 1824.4658l0 41.811035l0 0c0 23.091675 -39.34961 41.811035 -87.88977 41.811035c-48.54016 0 -87.88977 -18.71936 -87.88977 -41.811035l0 -41.811035z" fill-rule="evenodd"/><path stroke="#595959" stroke-width="1.0" stroke-linejoin="round" stroke-linecap="butt" d="m1218.6116 1824.4658l0 41.811035l0 0c0 23.091675 -39.34961 41.811035 -87.88977 41.811035c-48.54016 0 -87.88977 -18.71936 -87.88977 -41.811035l0 -41.811035z" fill-rule="evenodd"/><path fill="#93614b" d="m1054.3809 1841.5853l0 0c0 -8.001587 33.84314 -14.488159 75.590576 -14.488159l0 0c41.74756 0 75.590576 6.4865723 75.590576 14.488159l0 0c0 8.001587 -33.843018 14.488159 -75.590576 14.488159l0 0c-41.747437 0 -75.590576 -6.4865723 -75.590576 -14.488159z" fill-rule="evenodd"/><path stroke="#595959" stroke-width="1.0" stroke-linejoin="round" stroke-linecap="butt" d="m1054.3809 1841.5853l0 0c0 -8.001587 33.84314 -14.488159 75.590576 -14.488159l0 0c41.74756 0 75.590576 6.4865723 75.590576 14.488159l0 0c0 8.001587 -33.843018 14.488159 -75.590576 14.488159l0 0c-41.747437 0 -75.590576 -6.4865723 -75.590576 -14.488159z" fill-rule="evenodd"/><path fill="#93c47d" d="m1057.3158 1812.0376l0 0c-1.1470947 -4.5126953 3.7369385 -8.624512 12.57959 -10.590698c8.842651 -1.9661865 20.093018 -1.4417725 28.977417 1.3505859l0 0c3.3464355 -2.3868408 9.298096 -3.8198242 16.054688 -3.8653564c6.756592 -0.045532227 13.524414 1.3016357 18.25647 3.6340332l0 0c2.8591309 -2.1744385 8.294922 -3.4278564 14.378418 -3.3154297c6.083618 0.11254883 11.9539795 1.5748291 15.527954 3.868164l0 0c5.062378 -2.1848145 12.945801 -2.7651367 20.239014 -1.489624c7.293213 1.2755127 12.686279 4.1776123 13.845581 7.4505615l0 0c5.9816895 1.0587158 10.893433 3.1420898 13.466064 5.711792c2.5726318 2.5698242 2.553833 5.3739014 -0.051513672 7.687744l0 0c5.736084 3.6533203 6.8636475 8.136353 2.961914 11.776245c-3.9018555 3.6400146 -12.246704 5.8898926 -21.920532 5.9101562c-0.28173828 3.6158447 -5.1175537 6.66333 -12.643677 7.9678955c-7.526123 1.3045654 -16.567139 0.6624756 -23.638428 -1.678833l0 0c-3.316162 4.154663 -12.11792 6.8359375 -22.602661 6.885376c-10.484619 0.049438477 -20.772583 -2.541748 -26.419067 -6.654175l0 0c-7.303589 1.4313965 -15.967407 1.4562988 -24.036987 0.06921387c-8.069458 -1.387085 -14.865112 -4.069458 -18.853882 -7.4417725l0 0c-7.373047 -0.06604004 -14.3845215 -2.1156006 -17.554688 -5.1312256c-3.170166 -3.015747 -1.8240967 -6.355713 3.3702393 -8.362305l0 0c-6.460083 -2.0388184 -9.612671 -5.5134277 -7.813843 -8.612061c1.7989502 -3.0986328 8.141602 -5.1191406 15.720703 -5.0079346z" fill-rule="evenodd"/><path fill="#000000" fill-opacity="0.0" d="m1049.2535 1825.8197l0 0c3.048462 0.96203613 6.602539 1.5267334 10.184937 1.6181641m3.9979248 11.875488c1.5421143 0.013916016 3.058838 -0.060180664 4.5109863 -0.22009277m38.377808 7.5925293c-1.0404053 -0.7578125 -1.9020996 -1.5527344 -2.5701904 -2.371338m51.59375 2.1400146l0 0c0.60461426 -0.7574463 1.0141602 -1.5495605 1.2218018 -2.3631592m35.058838 -3.9256592c0.29992676 -3.8496094 -4.607422 -7.68042 -12.614258 -9.846924m31.572754 -7.8391113c-1.3902588 1.2348633 -3.4631348 2.2806396 -6.0561523 3.05542m-7.3570557 -16.4552l0 0c0.19238281 0.5432129 0.26416016 1.0871582 0.2142334 1.6245117m-34.29834 -7.585205l0 0c-1.2628174 0.54504395 -2.3138428 1.175293 -3.1206055 1.8713379m-26.78601 -2.4244385l0 0c-0.6866455 0.5222168 -1.2097168 1.086792 -1.5571289 1.6807861m-32.754517 -1.4494629l0 0c1.8798828 0.5909424 3.611206 1.270752 5.155884 2.0245361m-46.712402 7.2156982l0 0c0.15808105 0.62194824 0.4293213 1.243042 0.81103516 1.8574219" fill-rule="evenodd"/><path stroke="#274e13" stroke-width="1.0" stroke-linejoin="round" stroke-linecap="butt" d="m1057.3158 1812.0376l0 0c-1.1470947 -4.5126953 3.7369385 -8.624512 12.57959 -10.590698c8.842651 -1.9661865 20.093018 -1.4417725 28.977417 1.3505859l0 0c3.3464355 -2.3868408 9.298096 -3.8198242 16.054688 -3.8653564c6.756592 -0.045532227 13.524414 1.3016357 18.25647 3.6340332l0 0c2.8591309 -2.1744385 8.294922 -3.4278564 14.378418 -3.3154297c6.083618 0.11254883 11.9539795 1.5748291 15.527954 3.868164l0 0c5.062378 -2.1848145 12.945801 -2.7651367 20.239014 -1.489624c7.293213 1.2755127 12.686279 4.1776123 13.845581 7.4505615l0 0c5.9816895 1.0587158 10.893433 3.1420898 13.466064 5.711792c2.5726318 2.5698242 2.553833 5.3739014 -0.051513672 7.687744l0 0c5.736084 3.6533203 6.8636475 8.136353 2.961914 11.776245c-3.9018555 3.6400146 -12.246704 5.8898926 -21.920532 5.9101562c-0.28173828 3.6158447 -5.1175537 6.66333 -12.643677 7.9678955c-7.526123 1.3045654 -16.567139 0.6624756 -23.638428 -1.678833l0 0c-3.316162 4.154663 -12.11792 6.8359375 -22.602661 6.885376c-10.484619 0.049438477 -20.772583 -2.541748 -26.419067 -6.654175l0 0c-7.303589 1.4313965 -15.967407 1.4562988 -24.036987 0.06921387c-8.069458 -1.387085 -14.865112 -4.069458 -18.853882 -7.4417725l0 0c-7.373047 -0.06604004 -14.3845215 -2.1156006 -17.554688 -5.1312256c-3.170166 -3.015747 -1.8240967 -6.355713 3.3702393 -8.362305l0 0c-6.460083 -2.0388184 -9.612671 -5.5134277 -7.813843 -8.612061c1.7989502 -3.0986328 8.141602 -5.1191406 15.720703 -5.0079346z" fill-rule="evenodd"/><path stroke="#274e13" stroke-width="1.0" stroke-linejoin="round" stroke-linecap="butt" d="m1049.2535 1825.8197l0 0c3.048462 0.96203613 6.602539 1.5267334 10.184937 1.6181641m3.9979248 11.875488c1.5421143 0.013916016 3.058838 -0.060180664 4.5109863 -0.22009277m38.377808 7.5925293c-1.0404053 -0.7578125 -1.9020996 -1.5527344 -2.5701904 -2.371338m51.59375 2.1400146l0 0c0.60461426 -0.7574463 1.0141602 -1.5495605 1.2218018 -2.3631592m35.058838 -3.9256592c0.29992676 -3.8496094 -4.607422 -7.68042 -12.614258 -9.846924m31.572754 -7.8391113c-1.3902588 1.2348633 -3.4631348 2.2806396 -6.0561523 3.05542m-7.3570557 -16.4552l0 0c0.19238281 0.5432129 0.26416016 1.0871582 0.2142334 1.6245117m-34.29834 -7.585205l0 0c-1.2628174 0.54504395 -2.3138428 1.175293 -3.1206055 1.8713379m-26.78601 -2.4244385l0 0c-0.6866455 0.5222168 -1.2097168 1.086792 -1.5571289 1.6807861m-32.754517 -1.4494629l0 0c1.8798828 0.5909424 3.611206 1.270752 5.155884 2.0245361m-46.712402 7.2156982l0 0c0.15808105 0.62194824 0.4293213 1.243042 0.81103516 1.8574219" fill-rule="evenodd"/><path fill="#faf2eb" d="m847.9449 1819.1326l0 41.811035l0 0c0 23.091553 -39.34961 41.811035 -87.88977 41.811035c-48.54016 0 -87.88977 -18.719482 -87.88977 -41.811035l0 -41.811035z" fill-rule="evenodd"/><path stroke="#595959" stroke-width="1.0" stroke-linejoin="round" stroke-linecap="butt" d="m847.9449 1819.1326l0 41.811035l0 0c0 23.091553 -39.34961 41.811035 -87.88977 41.811035c-48.54016 0 -87.88977 -18.719482 -87.88977 -41.811035l0 -41.811035z" fill-rule="evenodd"/><path fill="#93614b" d="m683.71423 1836.252l0 0c0 -8.001587 33.843018 -14.488159 75.590576 -14.488159l0 0c41.747498 0 75.590515 6.4865723 75.590515 14.488159l0 0c0 8.001587 -33.843018 14.488159 -75.590515 14.488159l0 0c-41.74756 0 -75.590576 -6.4865723 -75.590576 -14.488159z" fill-rule="evenodd"/><path stroke="#595959" stroke-width="1.0" stroke-linejoin="round" stroke-linecap="butt" d="m683.71423 1836.252l0 0c0 -8.001587 33.843018 -14.488159 75.590576 -14.488159l0 0c41.747498 0 75.590515 6.4865723 75.590515 14.488159l0 0c0 8.001587 -33.843018 14.488159 -75.590515 14.488159l0 0c-41.74756 0 -75.590576 -6.4865723 -75.590576 -14.488159z" fill-rule="evenodd"/><path fill="#93c47d" d="m686.6492 1806.7042l0 0c-1.1470947 -4.5126953 3.7368774 -8.624512 12.579529 -10.590698c8.84259 -1.9660645 20.093079 -1.4417725 28.977417 1.350708l0 0c3.3464966 -2.386963 9.298096 -3.8198242 16.054688 -3.8654785c6.756531 -0.045532227 13.524475 1.3016357 18.25653 3.6340332l0 0c2.8591309 -2.1744385 8.294861 -3.4277344 14.378418 -3.3153076c6.083557 0.11242676 11.953857 1.5748291 15.527954 3.868164l0 0c5.062378 -2.1849365 12.945801 -2.7651367 20.239014 -1.4897461c7.293152 1.2755127 12.686218 4.1776123 13.845581 7.4506836l0 0c5.9816895 1.0587158 10.893372 3.1419678 13.466003 5.711792c2.5726929 2.5697021 2.553894 5.3737793 -0.051452637 7.687744l0 0c5.736084 3.6531982 6.8635864 8.13623 2.961792 11.776245c-3.9017334 3.6398926 -12.246643 5.8897705 -21.920471 5.910034c-0.28167725 3.6158447 -5.1175537 6.663452 -12.643677 7.9680176c-7.526062 1.3045654 -16.567139 0.6623535 -23.638367 -1.678833l0 0c-3.3162231 4.154663 -12.117981 6.8359375 -22.602661 6.885376c-10.484619 0.049438477 -20.772583 -2.541748 -26.419067 -6.654175l0 0c-7.30365 1.4312744 -15.967407 1.4561768 -24.036987 0.0690918c-8.06958 -1.387085 -14.865173 -4.069336 -18.853882 -7.4417725l0 0c-7.373108 -0.06604004 -14.3845825 -2.1154785 -17.554749 -5.1312256c-3.170166 -3.015625 -1.8240356 -6.355713 3.3701782 -8.362305l0 0c-6.460083 -2.0386963 -9.61261 -5.5133057 -7.8137207 -8.612061c1.7988892 -3.0986328 8.141602 -5.1191406 15.720642 -5.0079346z" fill-rule="evenodd"/><path fill="#000000" fill-opacity="0.0" d="m678.58685 1820.4863l0 0c3.048523 0.9621582 6.6026 1.5267334 10.184998 1.6181641m3.9979248 11.87561c1.5420532 0.013793945 3.0587769 -0.060180664 4.5109863 -0.22021484m38.377747 7.5925293c-1.0404053 -0.7576904 -1.9020386 -1.5527344 -2.5701904 -2.371338m51.59381 2.1401367l0 0c0.60461426 -0.7574463 1.0140991 -1.5496826 1.2217407 -2.3632812m35.0589 -3.9256592c0.29992676 -3.8496094 -4.607422 -7.680298 -12.614258 -9.846802m31.572754 -7.8391113c-1.3903198 1.2347412 -3.4631958 2.2805176 -6.0562134 3.0552979m-7.3570557 -16.455078l0 0c0.19238281 0.5430908 0.26409912 1.0871582 0.2142334 1.6245117m-34.29828 -7.585327l0 0c-1.2628174 0.54504395 -2.3139648 1.175415 -3.1206055 1.8713379m-26.78601 -2.4244385l0 0c-0.6866455 0.5222168 -1.2097168 1.0869141 -1.55719 1.6809082m-32.754578 -1.4494629l0 0c1.8799438 0.5908203 3.611267 1.2706299 5.155945 2.024414m-46.71234 7.2156982l0 0c0.15808105 0.6220703 0.42926025 1.2431641 0.8109741 1.857544" fill-rule="evenodd"/><path stroke="#274e13" stroke-width="1.0" stroke-linejoin="round" stroke-linecap="butt" d="m686.6492 1806.7042l0 0c-1.1470947 -4.5126953 3.7368774 -8.624512 12.579529 -10.590698c8.84259 -1.9660645 20.093079 -1.4417725 28.977417 1.350708l0 0c3.3464966 -2.386963 9.298096 -3.8198242 16.054688 -3.8654785c6.756531 -0.045532227 13.524475 1.3016357 18.25653 3.6340332l0 0c2.8591309 -2.1744385 8.294861 -3.4277344 14.378418 -3.3153076c6.083557 0.11242676 11.953857 1.5748291 15.527954 3.868164l0 0c5.062378 -2.1849365 12.945801 -2.7651367 20.239014 -1.4897461c7.293152 1.2755127 12.686218 4.1776123 13.845581 7.4506836l0 0c5.9816895 1.0587158 10.893372 3.1419678 13.466003 5.711792c2.5726929 2.5697021 2.553894 5.3737793 -0.051452637 7.687744l0 0c5.736084 3.6531982 6.8635864 8.13623 2.961792 11.776245c-3.9017334 3.6398926 -12.246643 5.8897705 -21.920471 5.910034c-0.28167725 3.6158447 -5.1175537 6.663452 -12.643677 7.9680176c-7.526062 1.3045654 -16.567139 0.6623535 -23.638367 -1.678833l0 0c-3.3162231 4.154663 -12.117981 6.8359375 -22.602661 6.885376c-10.484619 0.049438477 -20.772583 -2.541748 -26.419067 -6.654175l0 0c-7.30365 1.4312744 -15.967407 1.4561768 -24.036987 0.0690918c-8.06958 -1.387085 -14.865173 -4.069336 -18.853882 -7.4417725l0 0c-7.373108 -0.06604004 -14.3845825 -2.1154785 -17.554749 -5.1312256c-3.170166 -3.015625 -1.8240356 -6.355713 3.3701782 -8.362305l0 0c-6.460083 -2.0386963 -9.61261 -5.5133057 -7.8137207 -8.612061c1.7988892 -3.0986328 8.141602 -5.1191406 15.720642 -5.0079346z" fill-rule="evenodd"/><path stroke="#274e13" stroke-width="1.0" stroke-linejoin="round" stroke-linecap="butt" d="m678.58685 1820.4863l0 0c3.048523 0.9621582 6.6026 1.5267334 10.184998 1.6181641m3.9979248 11.87561c1.5420532 0.013793945 3.0587769 -0.060180664 4.5109863 -0.22021484m38.377747 7.5925293c-1.0404053 -0.7576904 -1.9020386 -1.5527344 -2.5701904 -2.371338m51.59381 2.1401367l0 0c0.60461426 -0.7574463 1.0140991 -1.5496826 1.2217407 -2.3632812m35.0589 -3.9256592c0.29992676 -3.8496094 -4.607422 -7.680298 -12.614258 -9.846802m31.572754 -7.8391113c-1.3903198 1.2347412 -3.4631958 2.2805176 -6.0562134 3.0552979m-7.3570557 -16.455078l0 0c0.19238281 0.5430908 0.26409912 1.0871582 0.2142334 1.6245117m-34.29828 -7.585327l0 0c-1.2628174 0.54504395 -2.3139648 1.175415 -3.1206055 1.8713379m-26.78601 -2.4244385l0 0c-0.6866455 0.5222168 -1.2097168 1.0869141 -1.55719 1.6809082m-32.754578 -1.4494629l0 0c1.8799438 0.5908203 3.611267 1.2706299 5.155945 2.024414m-46.71234 7.2156982l0 0c0.15808105 0.6220703 0.42926025 1.2431641 0.8109741 1.857544" fill-rule="evenodd"/><g filter="url(#shadowFilter-g310139644c1_0_0.14)"><use xlink:href="#g310139644c1_0_0.14" transform="matrix(1.0 0.0 0.0 1.0 0.0 2.0)"/></g><defs><filter id="shadowFilter-g310139644c1_0_0.14" filterUnits="userSpaceOnUse"><feGaussianBlur in="SourceAlpha" stdDeviation="25.0" result="blur"/><feComponentTransfer in="blur" color-interpolation-filters="sRGB"><feFuncR type="linear" slope="0" intercept="0.0"/><feFuncG type="linear" slope="0" intercept="0.0"/><feFuncB type="linear" slope="0" intercept="0.0"/><feFuncA type="linear" slope="0.5" intercept="0"/></feComponentTransfer></filter></defs><g id="g310139644c1_0_0.14"><path fill="#000000" fill-opacity="0.0" d="m123.74095 525.47327l1625.6693 0l0 709.8583l-1625.6693 0z" fill-rule="evenodd"/><path stroke="#5ab0b5" stroke-width="24.0" stroke-linejoin="round" stroke-linecap="butt" d="m123.74095 525.47327l1625.6693 0l0 709.8583l-1625.6693 0z" fill-rule="evenodd"/></g><path fill="#000000" fill-opacity="0.0" d="m890.86957 524.40045l106.58264 0l0 709.85834l-106.58264 0z" fill-rule="evenodd"/><path stroke="#5ab0b5" stroke-width="24.0" stroke-linejoin="round" stroke-linecap="butt" d="m890.86957 524.40045l106.58264 0l0 709.85834l-106.58264 0z" fill-rule="evenodd"/><path fill="#000000" fill-opacity="0.0" d="m1554.8695 524.40045l106.58276 0l0 709.85834l-106.58276 0z" fill-rule="evenodd"/><path stroke="#5ab0b5" stroke-width="24.0" stroke-linejoin="round" stroke-linecap="butt" d="m1554.8695 524.40045l106.58276 0l0 709.85834l-106.58276 0z" fill-rule="evenodd"/><path fill="#000000" fill-opacity="0.0" d="m1346.8695 524.40045l106.58276 0l0 709.85834l-106.58276 0z" fill-rule="evenodd"/><path stroke="#5ab0b5" stroke-width="24.0" stroke-linejoin="round" stroke-linecap="butt" d="m1346.8695 524.40045l106.58276 0l0 709.85834l-106.58276 0z" fill-rule="evenodd"/><path fill="#000000" fill-opacity="0.0" d="m1122.8695 523.3205l106.58276 0l0 709.8582l-106.58276 0z" fill-rule="evenodd"/><path stroke="#5ab0b5" stroke-width="24.0" stroke-linejoin="round" stroke-linecap="butt" d="m1122.8695 523.3205l106.58276 0l0 709.8582l-106.58276 0z" fill-rule="evenodd"/><path fill="#000000" fill-opacity="0.0" d="m666.86957 527.8605l106.58264 0l0 709.8583l-106.58264 0z" fill-rule="evenodd"/><path stroke="#5ab0b5" stroke-width="24.0" stroke-linejoin="round" stroke-linecap="butt" d="m666.86957 527.8605l106.58264 0l0 709.8583l-106.58264 0z" fill-rule="evenodd"/><path fill="#000000" fill-opacity="0.0" d="m442.86957 525.48047l106.58264 0l0 709.8583l-106.58264 0z" fill-rule="evenodd"/><path stroke="#5ab0b5" stroke-width="24.0" stroke-linejoin="round" stroke-linecap="butt" d="m442.86957 525.48047l106.58264 0l0 709.8583l-106.58264 0z" fill-rule="evenodd"/><path fill="#000000" fill-opacity="0.0" d="m218.86955 525.48047l106.58269 0l0 709.8583l-106.58269 0z" fill-rule="evenodd"/><path stroke="#5ab0b5" stroke-width="24.0" stroke-linejoin="round" stroke-linecap="butt" d="m218.86955 525.48047l106.58269 0l0 709.8583l-106.58269 0z" fill-rule="evenodd"/><path fill="#000000" fill-opacity="0.0" d="m123.74079 810.3204l1625.6692 0l0 112.75592l-1625.6692 0z" fill-rule="evenodd"/><path stroke="#5ab0b5" stroke-width="24.0" stroke-linejoin="round" stroke-linecap="butt" d="m123.74079 810.3204l1625.6692 0l0 112.75592l-1625.6692 0z" fill-rule="evenodd"/><path fill="#000000" fill-opacity="0.0" d="m123.74079 1042.5829l1625.6692 0l0 112.75586l-1625.6692 0z" fill-rule="evenodd"/><path stroke="#5ab0b5" stroke-width="24.0" stroke-linejoin="round" stroke-linecap="butt" d="m123.74079 1042.5829l1625.6692 0l0 112.75586l-1625.6692 0z" fill-rule="evenodd"/><path fill="#000000" fill-opacity="0.0" d="m123.74079 594.3204l1625.6692 0l0 112.75592l-1625.6692 0z" fill-rule="evenodd"/><path stroke="#5ab0b5" stroke-width="24.0" stroke-linejoin="round" stroke-linecap="butt" d="m123.74079 594.3204l1625.6692 0l0 112.75592l-1625.6692 0z" fill-rule="evenodd"/><g filter="url(#shadowFilter-g310139644c1_0_0.15)"><use xlink:href="#g310139644c1_0_0.15" transform="matrix(1.0 0.0 0.0 1.0 0.0 2.0)"/></g><defs><filter id="shadowFilter-g310139644c1_0_0.15" filterUnits="userSpaceOnUse"><feGaussianBlur in="SourceAlpha" stdDeviation="18.5" result="blur"/><feComponentTransfer in="blur" color-interpolation-filters="sRGB"><feFuncR type="linear" slope="0" intercept="0.0"/><feFuncG type="linear" slope="0" intercept="0.0"/><feFuncB type="linear" slope="0" intercept="0.0"/><feFuncA type="linear" slope="0.5" intercept="0"/></feComponentTransfer></filter></defs><g id="g310139644c1_0_0.15"><path fill="#5ab0b5" d="m204.99817 619.0632l1444.0945 0l0 509.79523l-1444.0945 0z" fill-rule="evenodd"/></g><g filter="url(#shadowFilter-g310139644c1_0_0.16)"><use xlink:href="#g310139644c1_0_0.16" transform="matrix(1.0 0.0 0.0 1.0 0.0 2.0)"/></g><defs><filter id="shadowFilter-g310139644c1_0_0.16" filterUnits="userSpaceOnUse"><feGaussianBlur in="SourceAlpha" stdDeviation="20.5" result="blur"/><feComponentTransfer in="blur" color-interpolation-filters="sRGB"><feFuncR type="linear" slope="0" intercept="0.9529412"/><feFuncG type="linear" slope="0" intercept="0.9529412"/><feFuncB type="linear" slope="0" intercept="0.9529412"/><feFuncA type="linear" slope="0.88" intercept="0"/></feComponentTransfer></filter></defs><g id="g310139644c1_0_0.16"><path fill="#000000" fill-opacity="0.0" d="m162.37418 574.3335l1549.0394 0l0 646.3937l-1549.0394 0z" fill-rule="evenodd"/><path fill="#ffffff" d="m827.51843 1086.3335l-70.828125 0l0 -177.07819q0 -7.296875 -2.734375 -13.796875q-2.734375 -6.515625 -7.6875 -11.46875q-4.953125 -4.953125 -11.46875 -7.6875q-6.5 -2.734375 -13.796875 -2.734375q-7.28125 0 -13.671875 2.734375q-6.375 2.734375 -11.1875 7.6875q-4.8125 4.953125 -7.546875 11.46875q-2.734375 6.5 -2.734375 13.796875l0 177.07819l-71.09375 0l0 -177.07819q0 -7.296875 -2.734375 -13.796875q-2.734375 -6.515625 -7.6875 -11.46875q-4.953125 -4.953125 -11.46875 -7.6875q-6.5 -2.734375 -13.796875 -2.734375q-7.28125 0 -13.671875 2.734375q-6.375 2.734375 -11.203125 7.6875q-4.8125 4.953125 -7.546875 11.46875q-2.734375 6.5 -2.734375 13.796875l0 177.07819l-71.09372 0l0 -278.9063l17.1875 0l19.28125 21.359375q14.8437195 -12.5 32.671844 -19.390625q17.84375 -6.90625 37.109375 -6.90625q19.53125 0 38.15625 7.296875q18.625 7.28125 32.6875 25.25q6.5 -8.859375 14.828125 -15.109375q8.34375 -6.25 17.578125 -10.15625q9.25 -3.90625 19.140625 -5.59375q9.90625 -1.6875 19.53125 -1.6875q22.140625 0 41.53125 8.328125q19.40625 8.328125 33.859375 22.78125q14.453125 14.453125 22.78125 33.984375q8.34375 19.53125 8.34375 41.671875l0 177.07819zm321.86584 0l-17.1875 0l-27.59375 -38.28125q-10.15625 9.109375 -21.484375 17.0625q-11.328125 7.9375 -23.828125 13.796875q-12.5 5.859375 -25.65625 9.234375q-13.140625 3.390625 -26.6875 3.390625q-29.421875 0 -55.34375 -9.890625q-25.90625 -9.890625 -45.3125 -28.765625q-19.390625 -18.890625 -30.59375 -46.234436q-11.203125 -27.34375 -11.203125 -62.234375q0 -32.5625 11.203125 -59.765625q11.203125 -27.21875 30.59375 -46.75q19.40625 -19.53125 45.3125 -30.328125q25.921875 -10.8125 55.34375 -10.8125q13.546875 0 26.828125 3.390625q13.28125 3.375 25.78125 9.375q12.5 5.984375 23.828125 14.0625q11.328125 8.0625 21.21875 17.4375l27.59375 -33.0625l17.1875 0l0 278.37506zm-71.609375 -141.92194q0 -14.59375 -5.59375 -28.265625q-5.59375 -13.671875 -15.234375 -24.21875q-9.640625 -10.546875 -22.53125 -16.921875q-12.890625 -6.375 -27.46875 -6.375q-14.578125 0 -27.46875 4.953125q-12.890625 4.9375 -22.40625 14.578125q-9.5 9.625 -14.96875 23.828125q-5.46875 14.1875 -5.46875 32.421875q0 18.21875 5.46875 32.421875q5.46875 14.1875 14.96875 23.828125q9.515625 9.625 22.40625 14.578125q12.890625 4.953125 27.46875 4.953125q14.578125 0 27.46875 -6.375q12.890625 -6.390625 22.53125 -16.9375q9.640625 -10.546875 15.234375 -24.21875q5.59375 -13.671875 5.59375 -28.25zm197.40308 141.92194l-71.625 0l0 -389.8438l71.625 0l0 389.8438zm125.78003 0l-71.625 0l0 -389.8438l71.625 0l0 389.8438z" fill-rule="nonzero"/></g><path fill="#eeeeee" d="m58.76378 1460.3097l1787.4016 0l0 19.055176l-1787.4016 0z" fill-rule="evenodd"/></g></svg>