<?xml version="1.0" encoding="UTF-8" standalone="no"?>
<!-- Created with Inkscape (http://www.inkscape.org/) -->

<svg
   xmlns:dc="http://purl.org/dc/elements/1.1/"
   xmlns:cc="http://creativecommons.org/ns#"
   xmlns:rdf="http://www.w3.org/1999/02/22-rdf-syntax-ns#"
   xmlns:svg="http://www.w3.org/2000/svg"
   xmlns="http://www.w3.org/2000/svg"
   xmlns:sodipodi="http://sodipodi.sourceforge.net/DTD/sodipodi-0.dtd"
   xmlns:inkscape="http://www.inkscape.org/namespaces/inkscape"
   width="132.06784mm"
   height="152.49881mm"
   viewBox="0 0 132.06784 152.49881"
   version="1.1"
   id="svg8"
   inkscape:version="0.92.5 (2060ec1f9f, 2020-04-08)"
   sodipodi:docname="logo.svg"
   inkscape:export-filename="C:\Users\apdev\Documents\github\R-packages\maintainer\miniCRAN\miniCRAN\man\figures\miniCRAN-logo.png"
   inkscape:export-xdpi="46.16"
   inkscape:export-ydpi="46.16">
  <defs
     id="defs2">
    <clipPath
       clipPathUnits="userSpaceOnUse"
       id="clipPath842">
      <path
         sodipodi:type="star"
         style="opacity:1;fill:none;fill-opacity:0.97979796;stroke:#ffffff;stroke-width:3.11897802;stroke-miterlimit:4;stroke-dasharray:none;stroke-dashoffset:0;stroke-opacity:1"
         id="path844"
         sodipodi:sides="6"
         sodipodi:cx="82.041534"
         sodipodi:cy="193.5974"
         sodipodi:r1="73.940002"
         sodipodi:r2="64.03392"
         sodipodi:arg1="0.52359878"
         sodipodi:arg2="1.0471976"
         inkscape:flatsided="true"
         inkscape:rounded="0"
         inkscape:randomized="0"
         d="m 146.07545,230.5674 -64.033916,36.97 -64.03392,-36.97 0,-73.94 64.033921,-36.97001 64.033925,36.97001 z"
         inkscape:transform-center-x="3.0492663e-06"
         inkscape:transform-center-y="-6.6020762e-06" />
    </clipPath>
    <clipPath
       clipPathUnits="userSpaceOnUse"
       id="clipPath831">
      <path
         sodipodi:type="star"
         style="opacity:1;fill:none;fill-opacity:0.97979796;stroke:#a71b1e;stroke-width:4;stroke-miterlimit:4;stroke-dasharray:none;stroke-dashoffset:0;stroke-opacity:1"
         id="path833"
         sodipodi:sides="6"
         sodipodi:cx="102.62011"
         sodipodi:cy="146.68599"
         sodipodi:r1="73.940002"
         sodipodi:r2="64.03392"
         sodipodi:arg1="0.52359878"
         sodipodi:arg2="1.0471976"
         inkscape:flatsided="true"
         inkscape:rounded="0"
         inkscape:randomized="0"
         d="m 166.65403,183.65599 -64.03392,36.97 -64.033921,-36.97 0,-73.94 64.033921,-36.970003 64.03392,36.970003 z"
         inkscape:transform-center-x="3.0492663e-06"
         inkscape:transform-center-y="-6.6020762e-06" />
    </clipPath>
    <clipPath
       clipPathUnits="userSpaceOnUse"
       id="clipPath868">
      <path
         sodipodi:type="star"
         style="opacity:1;fill:none;fill-opacity:0.97979796;stroke:#a71b1e;stroke-width:4;stroke-miterlimit:4;stroke-dasharray:none;stroke-dashoffset:0;stroke-opacity:1"
         id="path870"
         sodipodi:sides="6"
         sodipodi:cx="102.62011"
         sodipodi:cy="146.68599"
         sodipodi:r1="73.940002"
         sodipodi:r2="64.03392"
         sodipodi:arg1="0.52359878"
         sodipodi:arg2="1.0471976"
         inkscape:flatsided="true"
         inkscape:rounded="0"
         inkscape:randomized="0"
         d="m 166.65403,183.65599 -64.03392,36.97 -64.033921,-36.97 0,-73.94 64.033921,-36.970003 64.03392,36.970003 z"
         inkscape:transform-center-x="3.0492663e-06"
         inkscape:transform-center-y="-6.6020762e-06" />
    </clipPath>
    <clipPath
       clipPathUnits="userSpaceOnUse"
       id="clipPath885">
      <path
         sodipodi:type="star"
         style="opacity:1;fill:none;fill-opacity:0.97979796;stroke:#a71b1e;stroke-width:4;stroke-miterlimit:4;stroke-dasharray:none;stroke-dashoffset:0;stroke-opacity:1"
         id="path887"
         sodipodi:sides="6"
         sodipodi:cx="102.62011"
         sodipodi:cy="146.68599"
         sodipodi:r1="73.940002"
         sodipodi:r2="64.03392"
         sodipodi:arg1="0.52359878"
         sodipodi:arg2="1.0471976"
         inkscape:flatsided="true"
         inkscape:rounded="0"
         inkscape:randomized="0"
         d="m 166.65403,183.65599 -64.03392,36.97 -64.033921,-36.97 0,-73.94 64.033921,-36.970003 64.03392,36.970003 z"
         inkscape:transform-center-x="3.0492663e-06"
         inkscape:transform-center-y="-6.6020762e-06" />
    </clipPath>
    <mask
       maskUnits="userSpaceOnUse"
       id="mask4825">
      <g
         id="g4831">
        <rect
           style="opacity:1;vector-effect:none;fill:#578dc5;fill-opacity:1;stroke:none;stroke-width:0.1457504;stroke-linecap:butt;stroke-linejoin:miter;stroke-miterlimit:4;stroke-dasharray:none;stroke-dashoffset:0;stroke-opacity:1"
           id="rect4827"
           width="33.598763"
           height="33.598763"
           x="68.167076"
           y="168.22989" />
        <rect
           style="opacity:1;vector-effect:none;fill:#578dc5;fill-opacity:1;stroke:none;stroke-width:0.1457504;stroke-linecap:butt;stroke-linejoin:miter;stroke-miterlimit:4;stroke-dasharray:none;stroke-dashoffset:0;stroke-opacity:1"
           id="rect4829"
           width="33.598763"
           height="33.598763"
           x="101.76582"
           y="168.22989" />
      </g>
    </mask>
    <clipPath
       clipPathUnits="userSpaceOnUse"
       id="clipPath4853">
      <path
         style="fill:#4e7dab;fill-opacity:1;stroke:none;stroke-width:0.15277882px;stroke-linecap:butt;stroke-linejoin:miter;stroke-opacity:1"
         d="m 17.061585,168.35154 -67.03291,-0.0227 0.0035,3.79683 z"
         id="path4855"
         inkscape:connector-curvature="0" />
    </clipPath>
    <clipPath
       clipPathUnits="userSpaceOnUse"
       id="clipPath4857">
      <path
         style="fill:#4e7dab;fill-opacity:1;stroke:none;stroke-width:0.15277882px;stroke-linecap:butt;stroke-linejoin:miter;stroke-opacity:1"
         d="m 17.061585,168.35154 -67.03291,-0.0227 0.0035,3.79683 z"
         id="path4859"
         inkscape:connector-curvature="0" />
    </clipPath>
    <clipPath
       clipPathUnits="userSpaceOnUse"
       id="clipPath4873">
      <path
         inkscape:connector-curvature="0"
         id="path4875"
         d="m -80.436897,-134.84488 94.93643,0.0234 -0.005,-3.91921 z"
         style="fill:#588fc6;fill-opacity:1;stroke:#588fc6;stroke-width:0.18472448px;stroke-linecap:butt;stroke-linejoin:miter;stroke-opacity:1" />
    </clipPath>
    <clipPath
       clipPathUnits="userSpaceOnUse"
       id="clipPath4877">
      <path
         inkscape:connector-curvature="0"
         id="path4879"
         d="m -80.436897,-134.84488 94.93643,0.0234 -0.005,-3.91921 z"
         style="fill:#588fc6;fill-opacity:1;stroke:#588fc6;stroke-width:0.18472448px;stroke-linecap:butt;stroke-linejoin:miter;stroke-opacity:1" />
    </clipPath>
    <clipPath
       clipPathUnits="userSpaceOnUse"
       id="clipPath4881">
      <path
         inkscape:connector-curvature="0"
         id="path4883"
         d="m -80.436897,-134.84488 94.93643,0.0234 -0.005,-3.91921 z"
         style="fill:#588fc6;fill-opacity:1;stroke:#588fc6;stroke-width:0.18472448px;stroke-linecap:butt;stroke-linejoin:miter;stroke-opacity:1" />
    </clipPath>
    <filter
       inkscape:collect="always"
       style="color-interpolation-filters:sRGB"
       id="filter1071"
       x="-0.042148215"
       width="1.0842964"
       y="-0.24679289"
       height="1.4935858">
      <feGaussianBlur
         inkscape:collect="always"
         stdDeviation="1.7242565"
         id="feGaussianBlur1073" />
    </filter>
  </defs>
  <sodipodi:namedview
     id="base"
     pagecolor="#ffffff"
     bordercolor="#666666"
     borderopacity="1.0"
     inkscape:pageopacity="0.0"
     inkscape:pageshadow="2"
     inkscape:zoom="1.0809568"
     inkscape:cx="171.37069"
     inkscape:cy="333.32078"
     inkscape:document-units="mm"
     inkscape:current-layer="layer1"
     showgrid="false"
     inkscape:window-width="1920"
     inkscape:window-height="1017"
     inkscape:window-x="-8"
     inkscape:window-y="-8"
     inkscape:window-maximized="1"
     fit-margin-top="0"
     fit-margin-left="0"
     fit-margin-right="0"
     fit-margin-bottom="0" />
  <metadata
     id="metadata5">
    <rdf:RDF>
      <cc:Work
         rdf:about="">
        <dc:format>image/svg+xml</dc:format>
        <dc:type
           rdf:resource="http://purl.org/dc/dcmitype/StillImage" />
        <dc:title />
      </cc:Work>
    </rdf:RDF>
  </metadata>
  <g
     inkscape:label="Layer 1"
     inkscape:groupmode="layer"
     id="layer1"
     transform="translate(-36.586189,-70.436586)">
    <path
       sodipodi:type="star"
       style="opacity:1;fill:#f9f9f9;fill-opacity:1;stroke:#656a80;stroke-width:4;stroke-miterlimit:4;stroke-dasharray:none;stroke-dashoffset:0;stroke-opacity:1"
       id="path4573"
       sodipodi:sides="6"
       sodipodi:cx="102.62011"
       sodipodi:cy="146.68599"
       sodipodi:r1="73.940002"
       sodipodi:r2="64.03392"
       sodipodi:arg1="0.52359878"
       sodipodi:arg2="1.0471976"
       inkscape:flatsided="true"
       inkscape:rounded="0"
       inkscape:randomized="0"
       d="m 166.65403,183.65599 -64.03392,36.97 -64.033921,-36.97 0,-73.94 64.033921,-36.970003 64.03392,36.970003 z"
       inkscape:transform-center-x="3.0492663e-06"
       inkscape:transform-center-y="-6.6020762e-06" />
    <path
       inkscape:transform-center-y="-6.6020762e-06"
       inkscape:transform-center-x="3.0492663e-06"
       d="m 166.65403,183.65599 -64.03392,36.97 -64.033921,-36.97 0,-73.94 64.033921,-36.970003 64.03392,36.970003 z"
       inkscape:randomized="0"
       inkscape:rounded="0"
       inkscape:flatsided="true"
       sodipodi:arg2="1.0471976"
       sodipodi:arg1="0.52359878"
       sodipodi:r2="64.03392"
       sodipodi:r1="73.940002"
       sodipodi:cy="146.68599"
       sodipodi:cx="102.62011"
       sodipodi:sides="6"
       id="path840"
       style="opacity:1;fill:none;fill-opacity:0.97979796;stroke:#7d433b;stroke-width:4;stroke-miterlimit:4;stroke-dasharray:none;stroke-dashoffset:0;stroke-opacity:1"
       sodipodi:type="star" />
    <path
       inkscape:connector-curvature="0"
       id="path991"
       d="m 134.97445,107.60294 c -0.47027,-0.23791 -0.72897,-0.53604 -0.83749,-0.96513 -0.11192,-0.44253 -0.32528,-0.67954 -0.74277,-0.82507 -0.66575,-0.23209 -1.3803,-1.26725 -1.3803,-1.99966 0,-0.85055 0.67713,-1.69785 1.65544,-2.07148 0.85194,-0.32536 0.95179,-0.32598 1.77618,-0.0111 1.34138,0.51228 3.06434,2.68614 3.06434,3.86627 0,0.79079 -0.63329,1.79832 -1.3074,2.07998 -0.86054,0.35955 -1.40728,0.34145 -2.228,-0.0738 z"
       style="opacity:1;vector-effect:none;fill:#ffffff;fill-opacity:1;stroke:#ffffff;stroke-width:0.12117983;stroke-linecap:butt;stroke-linejoin:miter;stroke-miterlimit:4;stroke-dasharray:none;stroke-dashoffset:0;stroke-opacity:1" />
    <path
       inkscape:connector-curvature="0"
       id="path993"
       d="m 86.504716,148.39004 c 0.108221,-0.5772 0.496911,-1.98921 0.863764,-3.1378 0.837908,-2.62355 0.850647,-2.89857 0.115985,-2.50539 -0.477916,0.25578 -0.606048,0.18717 -0.891729,-0.47748 -0.462173,-1.07528 -0.433464,-1.06129 -1.04412,-0.50866 -0.722807,0.65413 -1.336628,0.38016 -1.838298,-0.8205 -0.445061,-1.06518 -0.83835,-1.19928 -1.670766,-0.56967 -0.810277,0.61286 -0.92202,0.53825 -1.271298,-0.84885 -0.326988,-1.29856 -0.42121,-1.34535 -1.669033,-0.82882 -0.475589,0.19687 -0.791,-0.48425 -0.798528,-1.72446 -0.0032,-0.60182 0.08679,-0.62532 2.293396,-0.59629 3.380406,0.0445 5.800371,0.34491 5.012062,0.62225 -0.344584,0.12122 -0.626507,0.35178 -0.626507,0.51235 0,0.19524 1.222033,0.25038 3.689433,0.16649 4.270357,-0.14519 4.911142,-0.34627 8.771111,-2.7523 1.416588,-0.88302 2.575172,-1.45705 2.574602,-1.27565 -0.003,0.97727 -2.291053,3.51462 -4.34967,4.82379 l -1.07903,0.68621 1.560801,-0.10359 c 2.603435,-0.17283 5.427589,-1.71159 8.161329,-4.44675 1.2646,-1.26526 2.56641,-2.67638 2.89289,-3.13582 l 0.59361,-0.83533 0.009,1.8795 c 0.005,1.03374 0.1078,1.87953 0.22877,1.87953 0.12098,0 0.58943,-0.63263 1.04101,-1.40584 0.69261,-1.18592 0.85658,-1.32621 1.04818,-0.89683 0.36428,0.81639 -2.16338,4.30414 -5.3491,7.38088 -1.63523,1.57929 -2.80745,2.93392 -2.80745,3.24431 0,0.29311 -0.64873,1.30004 -1.44161,2.23763 -1.694684,2.00393 -2.066497,2.1445 -8.443281,3.19208 -2.297197,0.37738 -4.535686,0.82303 -4.974427,0.99032 l -0.7977,0.30416 z"
       style="opacity:1;vector-effect:none;fill:#f5f7f7;fill-opacity:1;stroke:none;stroke-width:0.17137416;stroke-linecap:butt;stroke-linejoin:miter;stroke-miterlimit:4;stroke-dasharray:none;stroke-dashoffset:0;stroke-opacity:1" />
    <path
       inkscape:connector-curvature="0"
       id="path997"
       d="m 135.72908,107.98481 c -0.49397,-0.0633 -0.95518,-0.2336 -1.24285,-0.45868 -0.22476,-0.17587 -0.32612,-0.34912 -0.3523,-0.60226 -0.0178,-0.1715 -0.0654,-0.36523 -0.12293,-0.49937 -0.0395,-0.0921 -0.16333,-0.26965 -0.23532,-0.33739 -0.13618,-0.1281 -0.44268,-0.26279 -0.64133,-0.2818 -0.17019,-0.0163 -0.30304,-0.085 -0.45669,-0.23625 -0.35995,-0.35428 -0.71131,-1.14138 -0.76185,-1.70658 -0.0257,-0.28724 0.0524,-0.6498 0.20804,-0.96563 0.34294,-0.69606 1.05387,-1.21812 1.91259,-1.40447 0.23886,-0.0519 0.80748,-0.0566 1.04304,-0.009 0.85405,0.17342 1.77438,0.84958 2.53948,1.86576 0.69641,0.92492 1.07039,1.96361 0.94617,2.62784 -0.12922,0.69098 -0.64814,1.51564 -1.09744,1.74402 -0.2554,0.12983 -0.5179,0.20799 -0.86348,0.25711 -0.19807,0.0281 -0.67858,0.0318 -0.87513,0.006 z"
       style="opacity:1;vector-effect:none;fill:#280b0b;fill-opacity:1;stroke:none;stroke-width:0.01071088;stroke-linecap:butt;stroke-linejoin:miter;stroke-miterlimit:4;stroke-dasharray:none;stroke-dashoffset:0;stroke-opacity:1" />
    <path
       inkscape:connector-curvature="0"
       id="path999"
       d="m 119.80067,110.59941 c 0.059,-0.11007 0.32608,-0.50524 0.59357,-0.87813 0.52902,-0.7375 0.62427,-0.89848 0.5565,-0.94036 -0.0994,-0.0615 -0.50912,0.0897 -1.5235,0.56195 -0.37634,0.1752 -0.70554,0.30781 -0.74884,0.30166 -0.0712,-0.01 -0.0645,-0.0247 0.0854,-0.18501 0.0895,-0.0957 0.40483,-0.38548 0.70079,-0.64392 0.42679,-0.37267 0.52269,-0.47198 0.46354,-0.48008 -0.041,-0.005 -0.54394,0.0296 -1.11763,0.0783 -0.57368,0.0487 -1.08259,0.0877 -1.1309,0.0865 -0.0545,-0.001 0.24284,-0.16511 0.78229,-0.43112 1.15531,-0.56969 1.48139,-0.78783 1.42821,-0.95541 -0.0492,-0.15509 -0.27934,-0.1842 -1.67185,-0.21146 -0.70831,-0.0139 -1.31524,-0.0371 -1.34874,-0.0517 -0.0968,-0.0421 -0.0718,-0.0992 0.0871,-0.19846 0.16529,-0.10337 0.33063,-0.17492 1.20944,-0.52371 0.335,-0.13296 0.62153,-0.25381 0.63674,-0.26855 0.0561,-0.0544 -1.09556,-0.45534 -1.30774,-0.45534 -0.13263,0 -0.15741,-0.0875 -0.0556,-0.19659 0.10585,-0.11343 0.25574,-0.18818 0.61471,-0.30654 0.4589,-0.15132 0.58753,-0.30934 0.42253,-0.51909 -0.0958,-0.12187 -0.28694,-0.25056 -0.84144,-0.56674 -0.47617,-0.27151 -0.8266,-0.51251 -0.8266,-0.56849 0,-0.0856 0.30394,-0.11545 1.33133,-0.13064 0.58865,-0.009 1.06987,-0.0261 1.06937,-0.0386 -5.8e-4,-0.0125 -0.29966,-0.21853 -0.66481,-0.45781 -0.73099,-0.47905 -1.23725,-0.90946 -1.1442,-0.97279 0.14015,-0.0954 0.89117,-0.0178 1.55974,0.16118 0.46872,0.12545 0.52862,0.13372 0.52862,0.073 0,-0.0691 -0.18991,-0.33421 -0.68031,-0.94948 -0.22887,-0.28714 -0.44547,-0.58768 -0.48133,-0.66785 -0.18544,-0.414625 0.13353,-0.482435 1.35003,-0.287005 0.71959,0.115605 1.13566,0.144395 1.15824,0.08011 0.0227,-0.06461 -0.36413,-0.547365 -0.97267,-1.213745 -0.3782,-0.41413 -0.5533,-0.62942 -0.51656,-0.63511 0.0306,-0.004 0.48632,0.0518 1.01276,0.12566 0.52643,0.0739 0.96199,0.1303 0.9679,0.12548 0.005,-0.005 -0.11738,-0.18667 -0.27396,-0.4041 -0.28041,-0.389368 -0.48503,-0.756953 -0.48508,-0.87143 -5e-5,-0.0967 0.10133,-0.167812 0.23955,-0.167812 0.21573,0 0.64509,0.129693 1.3789,0.416505 0.73065,0.285573 1.2278,0.453644 1.34183,0.453644 0.0376,0 0.0678,-0.02369 0.0678,-0.05309 0,-0.06267 -0.1562,-0.379806 -0.50536,-1.0259 -0.25353,-0.46915 -0.39843,-0.813303 -0.35904,-0.852693 0.0487,-0.04867 0.23354,0.04458 0.69965,0.35308 0.29428,0.194797 0.52368,0.323908 0.56503,0.318039 0.0926,-0.01314 0.10456,-0.118353 0.053,-0.468342 -0.0941,-0.638252 0.0657,-0.586994 1.01446,0.325329 0.51946,0.499517 0.85547,0.777057 0.94077,0.777057 0.10617,0 0.12405,-0.399587 0.0437,-0.975601 -0.0296,-0.212468 -0.0492,-0.473565 -0.0435,-0.580212 l 0.0108,-0.193914 0.19524,0.274458 c 0.10736,0.15096 0.34555,0.509402 0.52925,0.796559 0.37485,0.585942 0.50842,0.748327 0.61553,0.748327 0.17521,0 0.29229,-0.583487 0.33177,-1.653285 0.0232,-0.628625 0.0625,-0.948334 0.1237,-1.007763 0.11136,-0.108029 0.36615,0.422885 0.86778,1.808301 0.15943,0.440291 0.30085,0.813443 0.31426,0.829208 0.0135,0.01583 0.19148,-0.301392 0.3957,-0.704813 0.20422,-0.403432 0.378,-0.7335 0.3862,-0.7335 0.009,0 0.11821,0.321087 0.24451,0.713525 0.12629,0.392437 0.24083,0.713524 0.25454,0.713524 0.0137,0 0.16693,-0.274848 0.34048,-0.610774 l 0.31554,-0.610774 0.0417,0.410636 c 0.15417,1.520032 0.14091,2.322341 -0.0856,5.178996 -0.0966,1.21807 -0.0921,1.2008 -0.31511,1.2008 -0.26572,0 -0.32827,-0.24111 -0.39884,-1.53735 -0.0233,-0.42749 -0.0551,-0.80074 -0.071,-0.82945 -0.0162,-0.0294 -0.0294,0.16844 -0.0305,0.45248 -7.5e-4,0.27756 -0.0169,0.73963 -0.0354,1.02678 -0.0513,0.79653 -0.13444,1.11208 -0.28716,1.08985 -0.1635,-0.0238 -0.25588,-0.33286 -0.72118,-2.41247 -0.44566,-1.991845 -0.66064,-2.814896 -0.71981,-2.755725 -0.0604,0.06041 0.47929,3.369045 0.77512,4.752165 0.16592,0.77583 0.14486,0.91863 -0.10338,0.70069 -0.0786,-0.069 -0.20147,-0.26226 -0.33859,-0.53261 -0.11835,-0.23333 -0.22091,-0.43076 -0.22791,-0.43873 -0.0431,-0.049 -0.0293,0.0705 0.0597,0.51918 0.17764,0.89618 0.16927,1.19684 -0.0316,1.13311 -0.11396,-0.0362 -0.22782,-0.21416 -0.33522,-0.524 -0.30919,-0.89195 -1.60023,-3.36113 -2.44305,-4.672405 -0.18529,-0.2883 -0.44735,-0.60064 -0.50395,-0.60064 -0.12396,0 0.0815,0.45792 1.24136,2.767015 1.18411,2.35739 1.44314,2.94279 1.44314,3.26154 0,0.36006 -0.2423,0.13013 -1.16289,-1.10358 -1.40536,-1.88332 -2.50558,-3.175785 -2.892,-3.397435 -0.34907,-0.20024 -0.34806,-0.0983 0.004,0.426505 0.31458,0.46865 1.0457,1.41246 1.95096,2.51845 1.14655,1.40084 1.5792,1.9718 1.51127,1.99445 -0.0546,0.0182 -0.40751,-0.20465 -0.77702,-0.4906 -0.3668,-0.28385 -0.89605,-0.65109 -0.93831,-0.65109 -0.0777,0 0.0233,0.11548 0.62886,0.71948 0.59654,0.59491 0.74618,0.7777 0.68596,0.83792 -0.0461,0.0461 -0.63271,-0.11745 -1.54514,-0.43052 -1.35585,-0.46521 -1.85152,-0.59955 -1.85152,-0.50185 0,0.1009 1.00062,0.53819 2.06143,0.90084 0.39678,0.13562 0.76489,0.26908 0.81803,0.29655 0.13174,0.0682 0.23048,0.18323 0.19979,0.23288 -0.0455,0.0735 -0.3061,0.16627 -0.62164,0.22112 -0.50992,0.0886 -0.47251,0.11708 0.20888,0.15874 0.51377,0.0313 0.81793,0.0778 0.91853,0.14035 0.0464,0.0289 0.0464,0.0378 0,0.0809 -0.0971,0.09 -0.34741,0.16257 -0.9318,0.26997 -0.72861,0.13391 -1.54012,0.33943 -1.92406,0.48726 -0.59362,0.22858 -1.84767,0.91265 -2.27486,1.24093 -0.17656,0.13569 -0.25914,0.235 -0.22431,0.26982 0.0378,0.0378 0.60525,-0.16317 1.78356,-0.63162 1.51741,-0.60326 2.27233,-0.85845 2.92399,-0.98846 0.28518,-0.0568 0.52454,-0.0974 0.53188,-0.09 0.008,0.008 -0.0977,0.13223 -0.23329,0.2775 -0.15768,0.16884 -0.3119,0.29587 -0.42748,0.35209 -0.18378,0.0894 -0.5378,0.15699 -0.82895,0.15823 -0.24881,7.4e-4 -0.79765,0.15475 -1.24413,0.34836 -0.8609,0.37333 -1.80453,0.96977 -3.02308,1.9108 -0.87052,0.67225 -1.31159,0.97849 -1.40929,0.97849 -0.0605,0 -0.0569,-0.0176 0.0409,-0.20014 z"
       style="opacity:1;vector-effect:none;fill:#c89f4d;fill-opacity:1;stroke:none;stroke-width:0.02142177;stroke-linecap:butt;stroke-linejoin:miter;stroke-miterlimit:4;stroke-dasharray:none;stroke-dashoffset:0;stroke-opacity:1" />
    <path
       sodipodi:nodetypes="ccccccccccccccccccccccc"
       inkscape:connector-curvature="0"
       id="path1001"
       d="m 131.69124,113.72707 c -0.10176,-0.0375 -0.20377,-0.0936 -0.46031,-0.25331 -0.43287,-0.26946 -0.72724,-0.41025 -0.94904,-0.45388 -0.13366,-0.0263 -0.22155,-0.0925 -0.37314,-0.28093 -0.35365,-0.43969 -0.85192,-1.27338 -1.33934,-2.24099 -0.51191,-1.01622 -0.80013,-1.739 -0.88132,-2.21018 -0.16934,-0.98254 0.0136,-2.53835 0.3759,-3.19756 0.23911,-0.43499 1.06843,-1.2157 1.63849,-1.54244 0.28133,-0.16125 0.63907,-0.23614 1.18918,-0.24894 0.20579,-0.005 0.56106,-0.0108 0.59715,-0.003 0.0629,0.0139 -0.10829,0.0284 -0.47934,0.15944 -0.45283,0.15988 -0.68808,0.27217 -0.98797,0.47163 -0.6265,0.41668 -0.95301,0.77962 -1.25308,1.3929 -0.15211,0.31088 -0.2571,0.60407 -0.3459,0.96586 -0.25755,1.04939 -0.22599,2.17666 0.0874,3.12384 0.20278,0.61277 0.48583,1.05623 0.98338,1.54065 0.47422,0.4617 1.0265,0.8074 1.5667,0.98068 0.2555,0.082 0.42687,0.11014 0.75397,0.12399 0.30108,0.0127 0.44115,0.042 0.47131,0.0983 0.0253,0.0474 0.0108,0.1354 -0.0456,0.27419 -0.0647,0.15942 -0.15611,0.50293 -0.22634,0.85135 -0.091,0.45148 -0.13723,0.51571 -0.32209,0.4476 z"
       style="opacity:1;vector-effect:none;fill:#280b0b;fill-opacity:1;stroke:none;stroke-width:0.01071088;stroke-linecap:butt;stroke-linejoin:miter;stroke-miterlimit:4;stroke-dasharray:none;stroke-dashoffset:0;stroke-opacity:1" />
    <path
       inkscape:connector-curvature="0"
       id="path1007"
       d="m 132.90768,108.28196 c -0.24361,-0.091 -0.41456,-0.2936 -0.49544,-0.58727 -0.0493,-0.17911 -0.0415,-0.48741 0.0175,-0.68602 0.0922,-0.31044 0.26165,-0.60999 0.45337,-0.80159 0.18374,-0.18362 0.35779,-0.23243 0.49796,-0.13967 0.25216,0.16687 0.45209,0.69842 0.45132,1.19987 -3.9e-4,0.24171 -0.0305,0.38659 -0.11985,0.57736 -0.0818,0.17464 -0.23557,0.34138 -0.37584,0.40764 -0.10746,0.0507 -0.33117,0.0662 -0.42909,0.0297 z m 0.49762,-0.91921 c 0.11085,-0.0505 0.16446,-0.35107 0.10661,-0.59772 -0.0867,-0.36962 -0.32437,-0.37537 -0.46404,-0.0112 -0.0495,0.12908 -0.0537,0.33355 -0.009,0.41823 0.0411,0.0773 0.10747,0.13841 0.1933,0.17796 0.0817,0.0377 0.11322,0.04 0.17295,0.0127 z"
       style="opacity:1;vector-effect:none;fill:#81b6d6;fill-opacity:1;stroke:none;stroke-width:0.01071088;stroke-linecap:butt;stroke-linejoin:miter;stroke-miterlimit:4;stroke-dasharray:none;stroke-dashoffset:0;stroke-opacity:1" />
    <path
       inkscape:connector-curvature="0"
       id="path1009"
       d="m 131.46517,111.50561 c -0.62837,-0.0813 -1.35073,-0.57478 -1.97173,-1.34705 -0.71101,-0.88421 -0.9326,-1.70055 -0.75059,-2.76503 0.12514,-0.73183 0.88428,-1.60919 1.75723,-2.03087 0.2534,-0.12242 0.42128,-0.17705 0.69612,-0.2266 0.26729,-0.0481 0.49087,-0.0517 0.61294,-0.01 0.11126,0.0383 0.23448,0.1462 0.36918,0.32322 0.1264,0.16612 0.20206,0.30044 0.22802,0.40474 0.0295,0.11869 0.001,0.22384 -0.14059,0.52255 -0.22329,0.4703 -0.30807,0.80903 -0.2888,1.15383 0.0272,0.48826 0.24591,0.81947 0.63448,0.9613 0.0941,0.0343 0.16872,0.0453 0.39237,0.0575 0.23411,0.0127 0.28838,0.0211 0.35675,0.055 0.13041,0.0647 0.15042,0.12368 0.14945,0.44029 -7.3e-4,0.24277 -0.005,0.27908 -0.066,0.51872 -0.12281,0.48528 -0.3056,0.93363 -0.49841,1.22255 -0.12705,0.19036 -0.39425,0.44988 -0.55795,0.54191 -0.28671,0.16118 -0.59323,0.2202 -0.92246,0.17761 z"
       style="opacity:1;vector-effect:none;fill:#f5f7f7;fill-opacity:1;stroke:none;stroke-width:0.01071088;stroke-linecap:butt;stroke-linejoin:miter;stroke-miterlimit:4;stroke-dasharray:none;stroke-dashoffset:0;stroke-opacity:1" />
    <path
       sodipodi:nodetypes="cccscccccccccccccsccccccscscccccccsssccsccccccccccccccccscccccccssccssccsccsccccccccccccscccc"
       inkscape:connector-curvature="0"
       id="path1011"
       d="m 118.96261,147.76017 c 0.0326,-0.18875 0.28348,-0.85327 0.55748,-1.47669 1.01732,-2.31464 1.29093,-3.02992 1.56327,-4.08688 0.35942,-1.39491 0.74412,-3.4742 0.65857,-3.55975 -0.0365,-0.0365 -0.0802,-0.0479 -0.0972,-0.0253 -0.19617,0.26092 -2.06612,2.35466 -2.23473,2.50217 l -0.22506,0.1969 0.0712,-0.29534 c 0.0392,-0.16244 0.29295,-0.79703 0.56391,-1.4102 0.27097,-0.61317 0.46723,-1.18115 0.43613,-1.26218 -0.0685,-0.17852 -0.0901,-0.16416 -2.2221,1.47591 -0.83867,0.64515 -1.83543,1.38255 -2.21503,1.63864 -0.75843,0.51166 -2.22645,1.31853 -2.60335,1.43086 -0.22816,0.0679 -0.22347,0.051 0.0984,-0.35645 0.18591,-0.23533 0.90043,-1.09105 1.58782,-1.90161 1.39528,-1.64533 1.68509,-2.08313 1.46783,-2.2174 -0.26761,-0.16539 -1.73738,0.47752 -3.53249,1.54521 -0.50231,0.29877 -0.93751,0.51901 -0.9671,0.48942 -0.0899,-0.0899 0.1981,-0.56448 1.24349,-2.04905 0.54974,-0.78069 1.14446,-1.6662 1.32157,-1.96777 0.31392,-0.53447 0.60117,-1.25049 0.53018,-1.3215 -0.0195,-0.0195 -0.38936,0.18161 -0.822,0.4468 -0.43264,0.26518 -0.85158,0.48342 -0.93096,0.48498 -0.0794,0.001 0.70694,-0.85257 1.74741,-1.89803 1.04048,-1.04546 1.89178,-1.95965 1.89178,-2.03153 0,-0.20742 -0.74928,-0.0612 -2.24241,0.43781 -0.72873,0.2435 -1.34959,0.44272 -1.37969,0.44272 -0.22084,0 1.49378,-1.44417 3.91744,-3.29956 2.64177,-2.02235 3.07156,-2.4649 2.09197,-2.15407 -1.18953,0.37745 -3.60368,0.74144 -3.86135,0.58219 -0.12633,-0.0781 0.24329,-0.36809 1.9344,-1.51783 0.65929,-0.44824 1.27891,-0.9036 1.37693,-1.01193 0.17224,-0.1903 0.17185,-0.2016 -0.0115,-0.33571 -0.31222,-0.22831 -1.0545,-0.15949 -2.21951,0.20578 -1.06603,0.33424 -1.96893,0.4471 -1.96893,0.24612 0,-0.0542 0.062,-0.0984 0.1379,-0.0984 0.0758,0 0.37486,-0.11061 0.6645,-0.2458 0.28965,-0.13518 0.78135,-0.29909 1.09269,-0.36425 0.60428,-0.12648 0.68311,-0.23796 0.36916,-0.52208 -0.10829,-0.098 -0.19689,-0.21074 -0.19689,-0.25052 0,-0.0398 0.48633,-0.23881 1.08074,-0.44227 1.27153,-0.43525 1.70184,-0.67134 1.65786,-0.9096 -0.0803,-0.43512 -1.40169,-0.70348 -3.55789,-0.72261 -0.71352,-0.006 -1.58526,-0.042 -1.9372,-0.0791 -0.6249,-0.0661 -0.63303,-0.0705 -0.34685,-0.19143 0.61742,-0.26075 1.73323,-0.42676 3.21815,-0.47879 0.84824,-0.0297 1.60136,-0.093 1.67359,-0.14068 0.17769,-0.11721 -0.0397,-0.28026 -1.09927,-0.82403 -0.46024,-0.23621 -1.014,-0.54125 -1.23058,-0.67788 l -0.39378,-0.2484 0.49949,-0.003 c 0.67569,-0.004 2.17289,0.26005 3.19224,0.56332 0.46024,0.13693 0.96536,0.27087 1.12249,0.29767 0.3124,0.0533 0.31439,0.0263 0.0472,-0.6388 -0.0699,-0.1739 -0.0981,-0.34512 -0.0628,-0.38047 0.0837,-0.0836 1.37975,0.61594 2.41466,1.30328 0.44785,0.29743 1.39773,1.02575 2.11087,1.61848 0.71314,0.59274 1.6028,1.28693 1.97705,1.54264 0.64324,0.43949 0.72162,0.46678 1.43371,0.49913 0.56841,0.0257 0.89063,-0.0141 1.3129,-0.16248 1.17235,-0.41205 1.57354,-1.05738 1.47253,-2.17131 -0.0951,-1.04797 -0.59953,-1.85463 -2.54579,-4.06417 -2.16735,-2.4605 -2.88656,-3.82863 -3.01547,-5.75535 -0.0969,-1.44898 0.35166,-3.12823 1.04307,-3.94991 0.30907,-0.36732 0.51344,-0.63887 0.48433,-0.0715 -0.0342,0.66678 0.66798,2.14973 1.51297,3.32657 0.72174,1.0052 0.81777,1.01943 0.83651,1.848 0.12851,1.14429 0.70022,2.18658 1.88048,3.35082 0.67943,0.6702 1.6807,1.26588 2.12779,1.26588 0.62604,0 1.70713,0.87111 2.42242,1.95188 0.53168,0.80333 0.7122,1.32058 0.85818,2.45893 0.2221,1.73183 -0.18098,3.36176 -1.53858,6.22137 -0.90366,1.90345 -1.25266,2.74552 -1.83603,4.42993 -0.21563,0.62259 -0.42716,1.19473 -0.47006,1.2714 -0.0889,0.15901 -0.19823,-0.28707 -0.44272,-1.80785 -0.0866,-0.53879 -0.17427,-0.99638 -0.19477,-1.01688 -0.0205,-0.0205 -0.0867,0.22097 -0.14718,0.53661 -0.41538,2.1688 -0.84148,3.67837 -1.28906,4.56683 -0.49809,0.98869 -0.55693,0.94799 -0.61026,-0.42216 -0.0687,-1.76516 -0.18964,-1.91361 -0.73868,-0.90671 -0.71449,1.31034 -1.06793,2.78835 -1.75367,7.33361 -0.45844,3.03858 -0.64562,4.07864 -0.81402,4.5231 -0.18877,0.49818 -0.24548,-0.7033 -0.19049,-4.03629 0.0299,-1.81388 0.0225,-3.4087 -0.0166,-3.54406 -0.0656,-0.22759 -0.11226,-0.18312 -0.61917,0.59068 -0.3015,0.46023 -0.72883,1.19119 -0.94962,1.62436 -0.22079,0.43316 -0.40283,0.73875 -0.40453,0.67907 -0.001,-0.0597 0.21647,-0.79781 0.48483,-1.64031 0.54447,-1.70936 0.89033,-2.99947 0.89033,-3.32116 0,-0.72986 -0.95876,0.67903 -5.06131,7.43755 -0.85617,1.41046 -1.68817,2.71734 -1.84887,2.90417 l -0.29219,0.33967 z"
       style="opacity:1;vector-effect:none;fill:#c2ccd8;fill-opacity:1;stroke:none;stroke-width:0.06058991;stroke-linecap:butt;stroke-linejoin:miter;stroke-miterlimit:4;stroke-dasharray:none;stroke-dashoffset:0;stroke-opacity:1" />
    <path
       inkscape:connector-curvature="0"
       id="path1013"
       d="m 103.39572,145.94924 c 0.0335,-0.0873 0.28763,-0.49473 0.56475,-0.90539 0.27711,-0.41066 0.47987,-0.77064 0.45058,-0.79992 -0.0293,-0.0293 -0.55362,0.13567 -1.16515,0.3666 -0.61153,0.23093 -1.33117,0.44219 -1.5992,0.46947 l -0.4873,0.0495 0.31749,-0.40086 c 0.17462,-0.22047 0.61671,-0.72535 0.98242,-1.12194 0.82712,-0.89695 1.20062,-1.35127 1.20062,-1.46034 0,-0.0463 -0.0864,-0.11166 -0.19187,-0.14515 -0.10649,-0.0338 -0.16957,-0.11899 -0.14175,-0.1915 0.0276,-0.0718 0.79394,-0.73241 1.70307,-1.46795 2.16429,-1.75104 3.13726,-2.77981 3.8851,-4.10787 0.63938,-1.13542 1.10025,-1.79054 1.93448,-2.74987 0.97509,-1.1213 1.11874,-1.4499 0.58739,-1.34363 l -0.29617,0.0592 0.18744,-0.36687 c 0.10305,-0.20179 0.43573,-0.66958 0.73918,-1.03954 0.30346,-0.36996 0.55174,-0.71329 0.55174,-0.76296 0,-0.26242 -0.53141,0.0697 -1.39239,0.87025 l -0.45714,0.42504 -0.26936,-1.15828 -0.26934,-1.15829 -0.77147,1.54053 c -0.42431,0.84728 -0.81007,1.56437 -0.85723,1.59352 -0.0472,0.0292 -0.13317,-0.71564 -0.1911,-1.65512 -0.14971,-2.42759 -0.31786,-2.63038 -0.88714,-1.06989 -0.43893,1.20315 -1.25292,2.35239 -2.67646,3.77878 -1.29481,1.2974 -2.42011,2.19338 -3.74341,2.98053 -1.178084,0.70077 -3.452255,1.86456 -3.517015,1.79981 -0.03112,-0.0311 0.28286,-0.41758 0.697835,-0.8587 1.087316,-1.15582 1.598626,-1.856 2.02658,-2.77511 0.69724,-1.49742 1.15955,-3.02925 0.91249,-3.02336 -0.0406,7.4e-4 -0.49469,0.33483 -1.00907,0.7419 -2.81112,2.22472 -5.912004,3.78731 -8.564822,4.31595 -1.286169,0.25631 -3.831401,0.5897 -4.081192,0.53459 -0.103375,-0.0228 0.0097,-0.2355 0.392976,-0.74139 0.59053,-0.77875 0.660189,-0.96745 0.316435,-0.85717 -0.121821,0.0391 -0.376554,0.10746 -0.566064,0.15196 -0.560906,0.13168 -3.793077,0.0952 -5.08773,-0.0575 -2.889633,-0.34076 -7.309669,-0.28149 -9.679185,0.12979 -0.568531,0.0986 -1.048955,0.14056 -1.067606,0.093 -0.117944,-0.30028 2.080067,-3.52117 3.500946,-5.13018 2.014865,-2.28165 4.045354,-3.86752 10.906106,-8.51798 0.962281,-0.65226 2.354807,-1.27769 5.512989,-2.47607 4.10233,-1.55662 4.649593,-1.68946 10.435287,-2.53299 l 4.52853,-0.66024 3.00261,-0.002 c 2.69487,-0.002 3.09845,0.0187 3.93785,0.20454 1.69331,0.37476 3.78173,1.31532 5.02383,2.26255 0.26665,0.20335 0.47472,0.37495 0.46238,0.38133 -0.0124,0.006 -0.46546,-0.0183 -1.00692,-0.0549 -1.57033,-0.10607 -3.50835,0.1051 -3.8394,0.41846 -0.16669,0.15779 0.21339,0.35217 1.50988,0.77214 1.17032,0.3791 1.65796,0.57692 1.44351,0.58558 -0.60191,0.0243 -2.70063,0.31553 -3.19164,0.44285 -0.6782,0.17589 -1.57813,0.59414 -1.97708,0.9189 l -0.24582,0.2001 0.2654,0.10166 c 0.14597,0.0559 1.36762,0.19081 2.71477,0.29982 1.34716,0.109 2.55198,0.23615 2.6774,0.28254 0.20247,0.075 0.15748,0.11002 -0.40128,0.31326 -1.73457,0.63092 -2.1629,0.8165 -2.12859,0.92227 0.0204,0.0627 0.22255,0.17918 0.44939,0.25896 l 0.41243,0.14506 -0.71496,0.35374 c -0.39324,0.19455 -0.70492,0.40305 -0.69264,0.46334 0.0123,0.0603 -0.13265,0.16077 -0.32206,0.22328 -0.33522,0.11064 -0.8324,0.68314 -0.8324,0.95852 0,0.1562 0.10112,0.13453 2.00163,-0.42875 0.80311,-0.23802 1.52744,-0.43277 1.60965,-0.43277 0.0822,0 -0.0875,0.15931 -0.37727,0.35403 -0.84221,0.56607 -1.83336,1.40962 -2.30517,1.96188 -0.24013,0.28106 -0.4366,0.53947 -0.4366,0.57425 0,0.10112 0.60345,0.0742 2.02163,-0.0901 0.7277,-0.0844 1.51192,-0.13973 1.74272,-0.12305 l 0.41961,0.0304 -0.54146,0.28288 c -1.84135,0.962 -5.88634,4.32347 -5.65434,4.69885 0.11031,0.17849 1.14719,0.0377 2.20873,-0.29994 0.51438,-0.1636 0.97895,-0.29824 1.03237,-0.29919 0.14936,-0.003 -2.55055,2.67797 -3.49353,3.46857 -1.27319,1.06748 -1.23374,0.99022 -0.47703,0.93408 0.52471,-0.0389 0.86522,-0.14896 1.71084,-0.5529 0.58067,-0.27737 1.07465,-0.50432 1.09774,-0.50432 0.0934,0 -1.21598,1.81745 -2.37592,3.29794 -0.67876,0.86633 -1.32289,1.75502 -1.4314,1.97487 -0.25448,0.51557 -0.49999,0.74128 -1.86775,1.71701 -1.59079,1.13486 -3.88105,2.47585 -4.6209,2.70564 -0.19276,0.0599 -0.22515,0.0441 -0.17548,-0.0853 z"
       style="opacity:1;vector-effect:none;fill:#888da1;fill-opacity:1;stroke:none;stroke-width:0.06058991;stroke-linecap:butt;stroke-linejoin:miter;stroke-miterlimit:4;stroke-dasharray:none;stroke-dashoffset:0;stroke-opacity:1" />
    <path
       inkscape:connector-curvature="0"
       id="path1015"
       d="m 82.954808,198.90802 c -0.937127,-0.98366 -5.625732,-3.07278 -7.264258,-3.23678 -0.902196,-0.0904 -1.526871,-0.4624 -3.233764,-1.92624 -1.133927,-0.97245 -1.706075,-1.19223 -3.106742,-1.19342 -0.620261,-5.8e-4 -1.026503,0.0373 -1.414622,0.13172 -0.565516,0.13756 -0.687907,0.11923 -0.842754,-0.12626 -0.05233,-0.0829 -0.0519,-0.15277 0.0011,-0.23898 0.127776,-0.20637 0.911466,-0.55286 1.760014,-0.77817 0.444997,-0.11817 1.044044,-0.27789 1.33119,-0.35494 1.152362,-0.30923 2.224232,-0.99738 2.822062,-1.81178 0.318901,-0.43444 0.871301,-1.63181 2.037554,-4.41658 0.497061,-1.18688 1.09837,-2.59651 1.336251,-3.13253 0.639407,-1.44082 1.076511,-2.55746 1.580432,-4.03749 0.835797,-2.45473 1.432422,-3.78586 2.364412,-5.27517 0.996234,-1.59196 1.321434,-2.64129 1.588648,-5.1262 0.165572,-1.53976 0.164743,-1.53778 1.005085,-2.40723 0.33304,-0.34457 0.85405,-0.96848 1.157789,-1.38646 0.997031,-1.37203 2.454425,-3.30318 3.886782,-5.15026 2.768114,-3.56961 3.514126,-4.68934 3.827665,-5.74514 0.158196,-0.53272 0.148429,-1.87182 -0.0196,-2.68471 -0.07129,-0.34457 -0.125514,-0.63078 -0.120658,-0.63601 0.0054,-0.005 1.042591,-0.21805 2.306049,-0.47293 2.898743,-0.58477 4.853374,-1.06334 5.990154,-1.46661 0.489163,-0.17353 0.946913,-0.29724 1.017233,-0.27493 0.61632,0.19562 -1.101903,1.91137 -3.937763,3.93214 -1.999499,1.4248 -3.022362,2.27342 -4.396571,3.64763 -2.313522,2.31353 -4.021364,4.72092 -6.265247,8.83162 -1.164348,2.13301 -1.41879,2.8262 -1.423054,3.87688 -0.0022,0.5145 -0.171054,1.20049 -0.398715,1.61877 -0.102622,0.18865 -0.438709,0.59859 -0.746713,0.91098 -0.308025,0.3124 -0.677881,0.7463 -0.821917,0.96425 -0.972727,1.47196 -4.929577,9.31974 -6.644364,13.17806 -1.666222,3.74905 -2.187652,7.13496 -1.3752,8.92991 0.181606,0.40122 0.850453,1.14979 1.179337,1.31991 0.129175,0.0668 0.546907,0.13034 1.113801,0.16938 2.438218,0.16796 5.024757,1.13359 6.128006,2.28776 0.249456,0.26098 0.260321,0.28604 0.104451,0.24074 -0.233315,-0.0677 -0.559754,-0.26749 -1.166565,-0.71366 -0.911703,-0.67037 -1.295741,-0.80912 -2.453261,-0.88635 l -0.66132,-0.0441 1.047382,0.54798 c 1.262457,0.66049 1.616452,0.89595 2.129332,1.41635 0.407179,0.41315 0.895593,1.2687 0.895593,1.56881 0,0.21899 -0.07225,0.20764 -0.31763,-0.05 z"
       style="opacity:1;vector-effect:none;fill:#656a80;fill-opacity:1;stroke:none;stroke-width:0.04284354;stroke-linecap:butt;stroke-linejoin:miter;stroke-miterlimit:4;stroke-dasharray:none;stroke-dashoffset:0;stroke-opacity:1" />
    <path
       inkscape:connector-curvature="0"
       id="path1017"
       d="m 112.92714,194.45531 c 0,-0.41956 0.85525,-1.09252 2.9585,-2.32792 0.57429,-0.33734 1.05604,-0.62311 1.07054,-0.63506 0.0145,-0.0119 -0.0573,-0.31268 -0.15936,-0.66828 -0.10219,-0.35561 -0.31046,-1.32839 -0.46294,-2.16176 -0.47556,-2.59934 -0.64848,-2.98676 -2.76523,-6.19488 -1.99732,-3.02714 -5.55252,-8.63469 -5.88048,-9.27523 -0.0588,-0.11487 -0.51605,-0.67012 -1.01606,-1.2339 -0.50003,-0.56379 -1.0801,-1.25295 -1.28908,-1.53147 -1.81554,-2.41976 -2.609,-5.42716 -3.07217,-11.64431 -0.27232,-3.65538 -0.32602,-4.29559 -0.4233,-5.04686 -0.15776,-1.21837 -0.34895,-1.95235 -0.8101,-3.11005 -0.23145,-0.58109 -0.40374,-1.10102 -0.38287,-1.15542 0.0461,-0.11993 2.19892,-1.92999 2.29555,-1.92999 0.0383,0 0.0498,0.0841 0.0263,0.19142 -0.2216,1.00972 -0.26479,1.63921 -0.23048,3.35879 0.0552,2.76801 0.46196,5.72151 1.29959,9.43725 0.64666,2.86853 1.1348,4.02891 2.29306,5.45077 1.84893,2.26978 2.1878,2.90083 2.40423,4.47726 0.22228,1.61898 0.26638,1.84504 0.46962,2.40709 0.2372,0.65594 1.24706,2.6796 2.00553,4.01885 1.33268,2.35315 2.54746,4.08268 5.5251,7.86615 1.7478,2.22082 2.73423,3.59803 3.17013,4.42603 0.39182,0.74429 0.55423,0.94384 0.87836,1.07927 0.59891,0.25024 0.8645,0.26713 4.24283,0.26983 3.85137,0.003 3.66831,-0.0239 4.89514,0.72198 l 0.64881,0.39447 -0.85765,0.0451 c -0.47171,0.0248 -1.36668,0.0677 -1.98884,0.0955 -0.62216,0.0277 -1.13098,0.0701 -1.13071,0.0941 2e-4,0.0241 0.35268,0.14749 0.78313,0.27429 0.94859,0.27941 1.69092,0.63308 2.00158,0.9536 0.20615,0.21269 0.21751,0.24367 0.1051,0.28679 -0.0692,0.0266 -0.48953,-0.008 -0.93385,-0.0748 -0.44434,-0.0677 -1.08981,-0.16539 -1.4344,-0.21693 -1.21581,-0.18184 -3.43236,-0.32219 -5.25793,-0.33293 -1.7442,-0.0108 -1.85797,-0.003 -2.04488,0.12837 -0.63724,0.44826 -0.73956,0.46558 -1.44469,0.24454 -0.77152,-0.24184 -0.78049,-0.23978 -3.51642,0.80686 -1.04046,0.39804 -1.90974,0.7237 -1.93174,0.7237 -0.022,0 -0.04,-0.0955 -0.04,-0.21214 z"
       style="opacity:1;vector-effect:none;fill:#656a80;fill-opacity:1;stroke:none;stroke-width:0.04284354;stroke-linecap:butt;stroke-linejoin:miter;stroke-miterlimit:4;stroke-dasharray:none;stroke-dashoffset:0;stroke-opacity:1" />
    <path
       inkscape:connector-curvature="0"
       id="path1019"
       d="m 56.318708,163.64404 c -0.484817,-0.11416 -0.613391,-0.40153 -0.411679,-0.92011 0.118989,-0.30592 0.128248,-0.36541 0.06655,-0.42717 -0.05599,-0.056 -0.510813,-0.0523 -1.315663,0.0108 -0.354156,0.0276 -0.689124,0.0507 -0.744386,0.0513 l -0.100468,7.3e-4 0.01971,-0.60041 c 0.02067,-0.62859 0.05104,-0.80542 0.236697,-1.3799 0.332049,-1.02745 0.833568,-2.01919 1.486091,-2.93864 0.16064,-0.22637 0.285121,-0.41853 0.276625,-0.42703 -0.0086,-0.009 -0.261959,0.0249 -0.563233,0.0742 -0.301284,0.0493 -0.597281,0.0848 -0.657766,0.0789 -0.09444,-0.01 -0.111441,-0.0257 -0.120421,-0.11766 -0.01271,-0.12994 0.184093,-0.72442 0.419659,-1.26784 1.104153,-2.54706 3.588405,-6.4579 5.66004,-8.91034 1.198181,-1.41844 6.164435,-6.04569 8.548618,-7.96509 1.180414,-0.9503 2.644139,-1.85018 3.009451,-1.85018 0.06687,0 0.106283,0.0177 0.106283,0.0477 0,0.0849 -0.444804,0.78565 -1.008047,1.58814 -1.190104,1.69561 -1.724424,2.60362 -1.796173,3.05235 -0.0294,0.18385 0.04555,0.26559 0.2146,0.23387 0.06569,-0.0123 0.118397,-0.008 0.118397,0.01 0,0.18393 -0.294371,0.86427 -1.036033,2.39439 -0.98133,2.02463 -1.533633,3.33188 -1.766205,4.18047 -0.257253,0.93864 -0.459287,2.09575 -0.491602,2.81554 -0.02067,0.4599 0.0075,0.64391 0.100468,0.64391 0.09433,0 0.645953,-0.48436 1.798919,-1.57962 0.61255,-0.5819 0.974675,-0.90527 0.9931,-0.88684 0.0086,0.009 -0.08625,0.398 -0.209787,0.86643 -0.441476,1.67462 -0.602763,2.75823 -0.732897,4.924 l -0.06063,1.00937 -0.801748,0.88755 c -2.400206,2.6571 -3.97408,4.19583 -5.364905,5.24512 -0.360219,0.27177 -1.05478,0.72624 -1.157951,0.75769 -0.12377,0.0377 -0.181067,-0.0355 -0.181067,-0.23156 0,-0.41112 -0.0701,-0.40899 -1.45285,0.0442 -0.588818,0.19295 -1.227212,0.38855 -1.418639,0.43467 -0.70463,0.16973 -1.339148,0.22737 -1.663121,0.15109 z"
       style="opacity:1;vector-effect:none;fill:#7d433b;fill-opacity:1;stroke:none;stroke-width:0.02142177;stroke-linecap:butt;stroke-linejoin:miter;stroke-miterlimit:4;stroke-dasharray:none;stroke-dashoffset:0;stroke-opacity:1" />
    <path
       inkscape:connector-curvature="0"
       id="path1021"
       d="m 70.708661,156.04846 c -0.02089,-0.0253 -0.05643,-0.13097 -0.07882,-0.23494 -0.04027,-0.18653 -0.0365,-0.4928 0.02649,-2.22522 0.02251,-0.61965 0.02111,-0.64194 -0.03974,-0.5917 -0.03478,0.0287 -0.333039,0.41246 -0.662795,0.85275 -0.329755,0.44029 -0.631557,0.82932 -0.670678,0.86449 -0.115403,0.10381 -0.189671,0.0598 -0.285002,-0.16884 -0.08302,-0.19918 -0.08679,-0.23906 -0.08518,-0.90449 0.0011,-0.64345 0.0097,-0.73562 0.111397,-1.2182 0.204392,-0.9731 0.710165,-2.61847 1.128737,-3.67203 0.09508,-0.2393 0.320452,-0.71917 0.500841,-1.06641 0.180389,-0.34722 0.32799,-0.64873 0.32799,-0.67001 0,-0.087 -0.211704,-0.0303 -0.473038,0.12682 -0.538584,0.3238 -1.269757,0.91469 -2.281153,1.84347 -1.087537,0.99871 -1.237162,1.02993 -1.024338,0.21371 0.402074,-1.54201 1.297593,-3.48297 2.341173,-5.07425 0.418109,-0.63754 0.786318,-1.11877 1.572937,-2.05572 0.503092,-0.59923 0.616062,-0.75227 0.568143,-0.7696 -0.03295,-0.012 -0.291517,-0.0421 -0.57471,-0.0671 -0.429157,-0.0379 -0.511577,-0.0541 -0.495059,-0.0971 0.042,-0.1094 1.230497,-2.03672 1.60297,-2.5994 0.556728,-0.84104 0.904466,-1.31232 1.437483,-1.94816 l 0.466017,-0.55591 0.387624,0.0109 c 1.346642,0.0379 2.735819,0.0962 2.75519,0.11554 0.01249,0.0125 0.05201,0.39595 0.08787,0.85212 0.03575,0.45616 0.108436,1.30528 0.161373,1.8869 l 0.09627,1.05751 0.662224,-0.0205 c 0.715431,-0.0221 1.013861,-0.0711 1.348387,-0.22119 0.147137,-0.066 0.21502,-0.0811 0.242253,-0.0539 0.02078,0.0208 0.05072,0.17595 0.06633,0.34479 0.01572,0.16883 0.05093,0.37046 0.0785,0.44803 0.177568,0.50107 0.564385,0.97961 0.940799,1.16389 0.552378,0.27041 0.969087,0.20485 1.537564,-0.24189 0.222515,-0.17488 0.336011,-0.24512 0.396055,-0.24512 0.02014,0 0.08302,0.092 0.139729,0.20432 0.204833,0.40578 0.911186,1.18964 1.333064,1.47935 0.319698,0.21954 0.638394,0.23049 1.070038,0.0367 0.113939,-0.0512 0.228932,-0.0846 0.255551,-0.0744 0.05632,0.0215 0.09228,0.20548 0.09325,0.47711 7.43e-4,0.24211 0.123415,0.51608 0.280889,0.62822 0.141183,0.10046 0.451232,0.13092 0.680574,0.0668 0.280825,-0.0786 0.280491,0.003 -0.0043,1.16719 -0.680843,2.77918 -1.93349,5.76265 -2.77128,6.60042 -0.144757,0.14478 -0.371073,0.27376 -0.480306,0.27376 -0.163375,0 -0.222654,-0.30177 -0.279791,-1.42437 -0.01992,-0.39096 -0.04092,-0.71562 -0.04684,-0.72148 -0.0054,-0.005 -0.333008,0.35319 -0.727017,0.79786 -0.706601,0.79747 -1.331955,1.4377 -1.483507,1.51882 -0.07139,0.0382 -0.08238,0.0309 -0.136014,-0.0908 -0.04555,-0.10327 -0.05826,-0.23908 -0.05815,-0.61957 1.94e-4,-0.55974 0.04027,-0.84197 0.186226,-1.3164 0.0897,-0.29157 0.106282,-0.44131 0.04867,-0.44131 -0.127431,0 -0.501261,0.37582 -1.298347,1.30522 -0.697954,0.81384 -1.507488,1.63694 -1.761079,1.7906 -0.19034,0.11535 -0.199708,0.11741 -0.245893,0.0543 -0.02638,-0.0361 -0.04889,-0.1214 -0.04986,-0.18953 -0.0086,-0.58724 -0.07064,-1.50971 -0.10975,-1.63792 -0.07096,-0.2326 -0.146458,-0.2245 -0.396195,0.0425 -0.293553,0.31388 -0.555921,0.64178 -1.163529,1.45411 -0.827086,1.10576 -1.285005,1.64964 -1.341409,1.59324 -0.05309,-0.0531 -0.08668,-0.52731 -0.117525,-1.66284 -0.04038,-1.4846 -0.0589,-1.61795 -0.220899,-1.59449 -0.143056,0.0207 -0.384027,0.40984 -1.192162,1.92514 -0.89863,1.68498 -1.743333,2.96242 -2.141273,3.23824 -0.14087,0.0977 -0.182715,0.10467 -0.236524,0.0398 z"
       style="opacity:1;vector-effect:none;fill:#c89f4d;fill-opacity:1;stroke:none;stroke-width:0.02142177;stroke-linecap:butt;stroke-linejoin:miter;stroke-miterlimit:4;stroke-dasharray:none;stroke-dashoffset:0;stroke-opacity:1" />
    <path
       sodipodi:nodetypes="ccscccccssccccscccscccccsscscscccccccsssccccccccscscccccccccccccscccsccccscccscsccscsccccccscccccscccsccscscccccsscccccsscccsscccsccccccccccccccccccccccccccccsscssccscccscccccsccscssccccccccccccccccscssssscssssccccsscccscccsccssscsccccscsccsccsccccsssccccccsccccccccccssccccscssccccssccccscsscssccccccscscsscsccccccsscccsccscccscccccscscccccccccccscssccccsccccccsscscccccsccccccccccsccccccscscsscccscccccccscccscscscsccscccccccccsscccsccsccccscscccssccsccccsccccscccccccsccccssccccsccccsccsscsscccccccscccsscccscscscsssccscccsscccccccccccccsccscscccccccccccccccccccccccccccscccccccccccccsccccccccscsssssszcsczzzsscscccscccssscscccscscccccccccsccccccccccccccscscccccccsccccccccsccccssscccscccccccccccassccsccscccsccccsccccccccccc"
       inkscape:connector-curvature="0"
       id="path1023"
       d="m 83.615256,200.07704 c -0.387473,-0.13846 -1.396144,-0.73725 -2.241515,-1.33063 -2.17528,-1.5269 -2.891701,-1.8447 -4.967148,-2.20344 -1.836392,-0.31742 -2.452787,-0.58058 -4.925624,-2.10294 -1.545382,-0.95137 -2.458344,-1.06263 -4.505977,-0.54907 -2.001901,0.5021 -1.854387,0.50415 -1.853504,-0.0259 0.0032,-1.53769 2.52823,-3.18708 5.479845,-3.57862 0.754186,-0.10004 1.04679,-0.247 1.355795,-0.68096 0.672132,-0.94392 2.218643,-4.35513 4.276603,-9.43309 1.086159,-2.68006 2.593851,-6.14464 3.350416,-7.69908 1.304022,-2.6792 1.380584,-2.91244 1.471554,-4.48301 0.05277,-0.91123 0.228599,-1.9199 0.390736,-2.24151 0.162137,-0.32161 0.922084,-1.24401 1.688782,-2.04979 0.788923,-0.82914 2.013239,-2.46308 2.820662,-3.76439 0.784681,-1.26463 2.241192,-3.38236 3.236693,-4.70609 0.995502,-1.32372 1.917273,-2.73182 2.048387,-3.12911 0.211046,-0.63948 0.188411,-0.82907 -0.197339,-1.65267 l -0.435736,-0.93029 -2.169508,0.58173 c -1.193226,0.31995 -2.31995,0.62672 -2.503828,0.68169 -0.183879,0.0549 -0.590616,0.55102 -0.903875,1.1023 -0.313259,0.55128 -0.797344,1.21369 -1.075745,1.472 l -0.506193,0.46967 -0.295427,-0.70705 c -0.162481,-0.38887 -0.295427,-0.79728 -0.295427,-0.90758 0,-0.11027 -0.429458,0.24503 -0.954356,0.78961 -0.710725,0.73736 -1.07146,0.97355 -1.413126,0.92519 -0.358334,-0.0507 -0.472133,-0.2036 -0.519847,-0.69841 -0.07387,-0.76591 -0.156365,-0.78127 -0.672433,-0.1252 -0.425915,0.54146 -1.845491,1.63579 -2.121965,1.63579 -0.0911,0 -0.168448,-0.37277 -0.171829,-0.8284 l -0.0054,-0.82836 -0.493896,0.58473 c -0.27165,0.32161 -0.848375,1.00662 -1.281624,1.52221 -0.433249,0.51563 -0.836551,0.88866 -0.896261,0.82896 -0.05966,-0.0597 -0.204348,-0.7447 -0.321464,-1.52222 l -0.212931,-1.41368 -0.928383,1.79245 c -1.345307,2.59742 -2.285266,3.57909 -2.285266,2.38667 0,-0.20807 -0.05233,-0.37832 -0.116415,-0.37832 -0.340998,0 -3.260556,1.67368 -3.952027,2.26555 -0.442434,0.3787 -1.512947,1.5551 -2.378917,2.6142 -1.966096,2.40457 -4.147492,3.94906 -3.82255,2.70648 0.0841,-0.32174 0.03855,-0.37714 -0.22091,-0.26894 -1.795559,0.7486 -4.37384,1.01034 -4.72119,0.47926 -0.105206,-0.16082 -0.15628,-0.43879 -0.113594,-0.61772 0.0645,-0.27033 -0.06967,-0.31978 -0.79279,-0.29238 -0.661783,0.0251 -0.936739,-0.0577 -1.147107,-0.34537 -0.410043,-0.56068 -0.32841,-2.16916 0.186839,-3.68131 0.425744,-1.24946 0.431397,-1.3251 0.09239,-1.23647 -0.48877,0.12783 -0.459771,-0.10812 0.23591,-1.92011 2.697485,-7.0259 7.687364,-13.03428 15.456675,-18.61156 0.698632,-0.50151 1.117214,-1.01668 1.591932,-1.95923 3.539829,-7.02837 11.596651,-13.73454 20.36255,-16.94895 2.565348,-0.94071 6.335671,-1.86485 10.817692,-2.65149 3.56104,-0.625 4.51129,-0.72016 7.30926,-0.73191 3.78793,-0.0159 4.73493,0.17415 8.2618,1.65817 3.72743,1.56841 5.15372,2.38509 6.94145,3.97463 1.74985,1.55587 2.96089,2.3748 3.6059,2.43835 1.03171,0.10165 1.52514,-0.0397 2.08222,-0.59687 0.51941,-0.51941 0.57421,-0.67756 0.45592,-1.31566 -0.19097,-1.03015 -0.74427,-1.84727 -2.58338,-3.81532 -2.21326,-2.36837 -3.21143,-4.34748 -3.22412,-6.3925 -0.006,-1.06157 0.10069,-1.68022 0.41439,-2.38859 0.2328,-0.52577 0.3938,-0.98542 0.35779,-1.02144 -0.0361,-0.036 -0.73626,0.16004 -1.55608,0.43568 -1.08496,0.36478 -1.84299,0.79001 -2.78549,1.56257 -2.18171,1.78831 -2.65718,1.85622 -1.80483,0.25779 0.2818,-0.52846 0.46337,-0.96083 0.40351,-0.96083 -0.0599,0 -0.67482,0.3111 -1.36657,0.69133 -0.69177,0.38024 -1.30675,0.64234 -1.36665,0.58244 -0.0599,-0.0599 0.35752,-0.55847 0.9276,-1.10795 l 1.03649,-0.99904 -0.75806,0.15077 c -2.15509,0.42864 -2.23555,0.43675 -2.17419,0.21919 0.0339,-0.12042 0.69354,-0.52593 1.46578,-0.90114 0.77222,-0.37521 1.40587,-0.72605 1.40812,-0.77965 0.002,-0.0536 -0.73709,-0.0975 -1.64295,-0.0975 -2.54227,0 -2.51682,-0.42558 0.0716,-1.19735 0.41809,-0.12467 0.0452,-0.37036 -1.15335,-0.75999 -1.17598,-0.3823 -1.16205,-0.40557 0.37261,-0.62266 l 1.05482,-0.14921 -1.11082,-0.73754 c -0.61096,-0.40566 -1.05852,-0.8222 -0.99459,-0.92564 0.064,-0.10348 0.55811,-0.18808 1.09817,-0.18808 h 0.98192 l -0.9447,-0.85795 c -0.51957,-0.47187 -0.90083,-0.90248 -0.84723,-0.9569 0.0536,-0.0544 0.56044,-0.008 1.1263,0.10521 0.56587,0.11229 1.08487,0.14817 1.15331,0.0797 0.0685,-0.0685 -0.13698,-0.45334 -0.45653,-0.85531 -1.02662,-1.291415 -1.02658,-1.291975 0.099,-1.142665 0.55351,0.0734 1.15881,0.18127 1.34512,0.23967 0.18629,0.0584 -0.0998,-0.30278 -0.63586,-0.80264 l -0.97457,-0.908819 1.20538,0.09379 c 0.66296,0.05158 1.25195,0.04717 1.30887,-0.0097 0.057,-0.05696 -0.1999,-0.45794 -0.57071,-0.891146 -0.3708,-0.433206 -0.63969,-0.822165 -0.59751,-0.864344 0.0422,-0.04221 0.85298,0.183663 1.80175,0.501875 0.94879,0.318212 1.73988,0.56503 1.758,0.54849 0.0181,-0.01658 -0.28062,-0.535181 -0.66384,-1.152513 -0.38322,-0.61733 -0.64796,-1.171221 -0.58833,-1.230864 0.0597,-0.05965 0.55573,0.118209 1.1024,0.395228 0.54667,0.277019 0.99395,0.454845 0.99395,0.395167 0,-0.05968 -0.17721,-0.455856 -0.39378,-0.880394 -0.2166,-0.42454 -0.30762,-0.771889 -0.2023,-0.771889 0.10532,0 0.73404,0.484085 1.39712,1.075747 0.66308,0.59166 1.23746,1.043894 1.27639,1.004966 0.0389,-0.03887 -0.0627,-0.448978 -0.22576,-0.911233 -0.16309,-0.462253 -0.26513,-0.871864 -0.22674,-0.910244 0.14271,-0.142712 1.09014,0.744581 1.49565,1.400724 0.64848,1.049252 0.92196,0.889387 0.75567,-0.441752 -0.077,-0.616413 -0.14741,-1.328841 -0.15645,-1.583173 -0.0261,-0.73111 0.38853,-0.244108 1.2576,1.477455 l 0.76675,1.518846 0.21869,-1.169486 0.21871,-1.16948 0.32021,0.724665 c 0.17611,0.398566 0.3202,0.853872 0.3202,1.011797 0,0.673521 0.36089,0.427456 0.59397,-0.404989 0.23467,-0.838184 0.26541,-0.869388 0.42862,-0.435016 0.0967,0.257365 0.22683,2.121048 0.28919,4.141512 0.0705,2.285285 0.17842,3.557365 0.28548,3.366045 0.24688,-0.44114 1.69118,-1.22467 2.52694,-1.37085 1.57377,-0.27527 3.576,1.29534 4.16053,3.26365 0.38665,1.302 0.36775,1.84814 -0.0954,2.75661 -0.21278,0.41737 -0.36627,0.77778 -0.34111,0.80092 0.0252,0.0231 0.61591,0.3719 1.31273,0.77502 1.77639,1.02769 2.59367,1.70394 3.0232,2.5015 0.44897,0.8337 0.32645,1.00372 -0.525,0.72852 -0.41546,-0.13429 -0.91566,-0.14678 -1.39959,-0.035 -0.41417,0.0957 -2.03683,0.1273 -3.60589,0.0702 -2.7742,-0.1009 -2.87165,-0.0909 -3.53504,0.36338 -0.39155,0.26814 -0.78134,0.75496 -0.91489,1.14264 -0.218,0.6328 -0.19793,0.70622 0.31785,1.16273 0.69268,0.61309 1.37502,1.72869 1.37596,2.24966 3.9e-4,0.21888 0.38867,0.7787 0.86283,1.24404 1.58738,1.55791 2.42512,4.29087 2.04288,6.66444 -0.20452,1.2699 -0.9708,3.33258 -2.00247,5.39031 -0.36167,0.72136 -1.06758,2.57646 -1.56868,4.12244 -0.5011,1.54598 -0.97591,2.92669 -1.05513,3.06825 -0.0793,0.14153 -0.11892,-0.64095 -0.0883,-1.73886 0.0612,-2.19174 0.0556,-2.18857 -0.92832,0.5238 -0.34725,0.9572 -0.87792,2.27286 -1.17929,2.9237 l -0.54795,1.18335 -0.0167,-1.94915 c -0.0152,-1.76735 -0.0417,-1.90321 -0.28467,-1.45677 -0.42388,0.77899 -0.83719,2.65172 -1.0655,4.82789 -0.38591,3.67821 -1.09585,6.1989 -2.37184,8.42116 -0.37721,0.65697 -0.38737,0.6615 -0.27493,0.12265 0.29765,-1.4263 0.47678,-4.91248 0.35684,-6.94463 l -0.1323,-2.2415 -0.85537,2.63133 c -0.47044,1.44723 -0.93959,2.71668 -1.04254,2.82098 -0.24782,0.25108 -0.0289,-2.87591 0.32624,-4.65949 0.24106,-1.21067 0.23982,-1.69954 -0.003,-1.45605 -0.0462,0.0462 -0.7568,1.35454 -1.57917,2.90747 -1.72849,3.26399 -2.77352,4.80035 -4.12326,6.06183 -1.8757,1.75305 -1.9157,1.60575 -0.4163,-1.53278 1.47422,-3.08582 2.56539,-5.77069 2.79234,-6.87074 0.1378,-0.66791 0.10456,-0.64725 -1.58671,0.98612 -0.9501,0.91759 -2.02101,1.8725 -2.37979,2.12203 l -0.65233,0.45369 0.68905,-0.9591 c 0.79686,-1.10919 2.27237,-3.59414 2.27237,-3.82698 0,-0.0871 -0.63195,0.38549 -1.40432,1.05025 -2.32063,1.99731 -4.21096,3.0724 -6.27429,3.56839 -0.51751,0.12441 -0.461,0.0239 0.6822,-1.21223 1.26582,-1.36879 3.1935,-3.74149 3.03974,-3.74149 -0.27642,0 -4.35021,2.69563 -6.21469,4.11228 -1.21311,0.92173 -2.83033,2.07613 -3.59383,2.56535 -1.56104,1.00023 -1.51804,0.90458 -1.80524,4.01693 -0.0904,0.97896 -0.0916,2.56615 -0.003,3.52713 0.258,2.79608 1.09123,7.78347 1.54792,9.26538 0.39225,1.27285 0.53543,1.4727 2.13389,2.9786 2.14518,2.02094 2.55212,2.85442 2.68549,5.50015 0.0915,1.81607 0.11323,1.88567 1.12763,3.62054 2.55639,4.37209 7.40298,11.22064 9.56598,13.5174 l 1.14387,1.21459 1.34458,-0.2353 c 2.04352,-0.3576 4.68382,-0.15909 6.01996,0.45262 1.2508,0.57263 2.92633,2.13236 2.83028,2.63466 -0.0397,0.20751 -0.30594,0.37022 -0.70505,0.43087 -0.60635,0.0922 -0.62516,0.11871 -0.34509,0.48729 0.16292,0.2144 0.29901,0.54332 0.30241,0.73091 0.005,0.29739 -0.19988,0.34178 -1.60184,0.34629 -0.8844,0.003 -2.80608,-0.18887 -4.27039,-0.42605 -2.66053,-0.43093 -2.66319,-0.43096 -3.89826,-0.0539 -1.15929,0.35393 -1.88023,0.39422 -5.01854,0.28047 -0.42742,-0.0155 -1.31913,0.29265 -2.50253,0.86478 -1.82139,0.88057 -2.263,0.99955 -2.85983,0.77053 -1.01983,-0.39134 0.28111,-1.89057 3.04823,-3.51281 l 1.56403,-0.91692 -0.095,-1.28315 c -0.0985,-1.33103 -0.57185,-2.68451 -2.11867,-6.05853 -1.1214,-2.44612 -5.99179,-9.82778 -8.05383,-12.20661 -0.89999,-1.03823 -1.85839,-2.3412 -2.12982,-2.89552 -0.6428,-1.31281 -1.10017,-3.6837 -1.97467,-10.23661 -0.78606,-5.89029 -1.16098,-7.97241 -1.519654,-8.43941 -0.20825,-0.27114 -0.46663,-0.1653 -2.166607,0.88754 -2.735238,1.694 -3.880052,2.84507 -7.125672,7.16467 -4.004748,5.32992 -4.512523,6.24938 -4.787512,8.66898 -0.152446,1.34145 -0.477969,2.04327 -2.026979,4.37015 -0.612982,0.92082 -1.49827,2.50745 -1.967291,3.52588 -0.469043,1.01841 -1.698139,3.51818 -2.731329,5.55503 -2.09581,4.13167 -3.011045,6.6971 -3.337775,9.35574 -0.411271,3.34655 -0.06816,3.76907 3.257713,4.01125 2.837999,0.20665 4.644553,1.2003 5.96351,3.28008 0.736709,1.16167 0.712965,1.38242 -0.148774,1.38242 -0.589894,0 -0.681812,0.0549 -0.571082,0.34111 0.250911,0.64856 0.347652,1.41308 0.177751,1.40455 -0.09379,-0.004 -0.487564,-0.12184 -0.875037,-0.26031 z m -0.385739,-1.43576 c -0.398695,-1.04864 -1.167631,-1.79459 -2.56973,-2.49292 l -1.407796,-0.70119 1.016026,0.0811 c 0.831802,0.0663 1.21262,0.23275 2.100279,0.91758 1.116331,0.86124 1.805982,0.94422 0.774343,0.0931 -1.366134,-1.12699 -4.068421,-2.02901 -6.102916,-2.03713 -0.696091,-0.003 -0.962475,-0.11799 -1.48804,-0.64354 -1.360211,-1.36022 -1.279029,-4.21528 0.238182,-8.37571 0.400482,-1.09821 2.15986,-4.84089 3.909708,-8.31708 2.72265,-5.40872 3.305513,-6.42946 4.040982,-7.07684 0.932485,-0.82082 1.257374,-1.61194 1.261961,-3.07301 0.0022,-0.71499 0.257447,-1.34548 1.38067,-3.41098 3.379071,-6.2139 6.036928,-9.30882 10.800836,-12.57695 2.232354,-1.53144 4.106838,-3.32258 3.937888,-3.76284 -0.0944,-0.24616 -0.29198,-0.21743 -1.297804,0.18884 -0.65251,0.26355 -2.770421,0.79627 -4.706474,1.18378 l -3.520102,0.7046 0.160264,0.69914 c 0.08819,0.38452 0.154438,1.14726 0.147298,1.69494 -0.01777,1.36449 -0.700279,2.51328 -3.980336,6.6995 -1.471586,1.87812 -3.095758,4.02874 -3.609263,4.77915 -0.513526,0.75042 -1.237571,1.63104 -1.609,1.95693 -0.639977,0.5615 -0.683373,0.68067 -0.828787,2.27617 -0.206319,2.26357 -0.643757,3.66935 -1.559014,5.01021 -0.86443,1.2664 -1.656509,3.0485 -2.432381,5.47267 -0.291647,0.91121 -0.907762,2.49001 -1.369149,3.50844 -0.461386,1.01841 -1.286545,2.94806 -1.833678,4.28809 -0.547134,1.34003 -1.190784,2.78319 -1.430334,3.207 -0.696349,1.23204 -1.860157,1.98723 -3.657774,2.37351 -1.864594,0.40068 -2.86717,0.9272 -2.532764,1.33014 0.165842,0.19984 0.380916,0.22268 0.844532,0.0897 0.918304,-0.26336 2.396653,-0.2169 3.152969,0.0992 0.365291,0.15262 1.042237,0.62421 1.504311,1.04797 1.221334,1.12 2.287646,1.79313 2.840531,1.79313 1.426715,0 6.65062,2.24935 7.443969,3.20528 0.397617,0.4791 0.603279,0.35374 0.380593,-0.23198 z m 32.146813,-4.84669 c 2.012,-0.79577 2.34128,-0.874 2.87167,-0.6822 0.81682,0.29536 1.15954,0.27248 1.46696,-0.098 0.22639,-0.27278 0.66341,-0.30182 3.28868,-0.21853 1.66516,0.0528 3.80711,0.2408 4.75988,0.41771 0.95277,0.17692 1.77818,0.27579 1.83425,0.21973 0.24866,-0.24866 -0.66539,-0.86837 -1.77294,-1.20202 l -1.20887,-0.36416 2.0466,-0.0975 2.04658,-0.0975 -0.6822,-0.43831 c -1.24749,-0.80154 -1.84624,-0.89395 -4.92791,-0.76056 -1.92008,0.0831 -3.19254,0.0509 -3.77406,-0.0955 -0.79865,-0.20109 -0.9171,-0.3108 -1.32056,-1.22309 -0.24376,-0.55119 -1.7068,-2.57844 -3.25118,-4.505 -3.23357,-4.03372 -4.8451,-6.44203 -6.52255,-9.74742 -1.0035,-1.97741 -1.21076,-2.56198 -1.31818,-3.71776 -0.20722,-2.22965 -0.50181,-2.82748 -2.67755,-5.43402 -1.15714,-1.38625 -1.66604,-2.82273 -2.51545,-7.10056 -0.96051,-4.83734 -1.20918,-8.9654 -0.65811,-10.92491 0.11543,-0.41041 -0.0493,-0.32456 -1.11675,0.58173 -0.68869,0.58477 -1.2869,1.08467 -1.32934,1.11089 -0.0424,0.0263 0.14806,0.55385 0.42335,1.17249 0.65568,1.47351 0.87642,2.76779 1.1194,6.56349 0.54586,8.52661 1.40653,11.49343 4.21391,14.52566 0.68197,0.73659 1.23994,1.37897 1.23994,1.4275 0,0.17114 4.62688,7.48359 6.12584,9.68145 1.85548,2.72062 2.16609,3.42376 2.5406,5.75113 0.16151,1.00374 0.38517,2.06562 0.49699,2.35975 0.11182,0.29412 0.17894,0.55355 0.14914,0.57651 -0.0298,0.0229 -0.68312,0.40527 -1.45182,0.84962 -1.66125,0.96029 -2.59809,1.71502 -2.59809,2.09306 0,0.15128 0.0516,0.27505 0.11459,0.27505 0.063,0 1.13724,-0.40447 2.38718,-0.89883 z M 59.224644,163.13726 c 1.507348,-0.52468 1.608031,-0.53673 1.608031,-0.19231 0,0.4831 0.07635,0.46855 1.036905,-0.19768 1.23476,-0.8564 3.063583,-2.57462 4.874713,-4.57993 l 1.62961,-1.80432 0.120141,-1.93417 c 0.06612,-1.06379 0.29744,-2.592 0.514151,-3.39602 0.216701,-0.80401 0.395495,-1.49816 0.397337,-1.54256 0.0011,-0.0444 -0.602106,0.50381 -1.342109,1.21821 -0.739981,0.71441 -1.410542,1.29892 -1.490119,1.29892 -0.298948,0 0.09788,-2.68684 0.604475,-4.09318 0.289654,-0.80402 1.048362,-2.5044 1.686035,-3.77863 0.746432,-1.49153 1.049989,-2.27477 0.85223,-2.19889 -0.681726,0.26162 -0.08884,-0.99132 1.538954,-3.25238 0.606143,-0.84195 1.057288,-1.57561 1.002543,-1.63034 -0.205651,-0.20565 -1.833334,0.75717 -3.276029,1.93787 -2.481743,2.03107 -7.115991,6.34199 -8.314064,7.734 -2.464945,2.86397 -5.510847,7.85392 -6.162067,10.09498 -0.116048,0.39936 -0.07581,0.42001 0.60315,0.30983 l 0.72748,-0.11805 -0.423762,0.59512 c -0.82896,1.16416 -1.596142,3.05057 -1.596304,3.92513 l -1.51e-4,0.85181 1.148066,-0.083 c 1.130136,-0.0817 1.144943,-0.0762 0.948939,0.35397 -0.542428,1.1905 0.739756,1.37697 3.311845,0.48167 z m 13.76295,-10.14062 c 1.451245,-2.74673 1.475582,-2.75736 1.482828,-0.64815 0.0032,0.99163 0.07592,1.80296 0.161018,1.80296 0.08518,0 0.696973,-0.74555 1.359597,-1.65677 0.662623,-0.91122 1.294642,-1.65676 1.404489,-1.65676 0.112657,0 0.199708,0.47765 0.199708,1.09579 0,1.09133 0.0011,1.09464 0.438557,0.80932 0.241209,-0.15755 0.948972,-0.89187 1.572808,-1.6318 1.25774,-1.49182 1.60256,-1.7456 1.30371,-0.95958 -0.244332,0.64264 -0.258126,2.05066 -0.02014,2.05066 0.09702,0 0.6452,-0.52947 1.21821,-1.17661 l 1.041837,-1.17661 0.04932,1.01479 c 0.05653,1.163 0.137414,1.3056 0.581657,1.02538 0.77388,-0.48814 2.111575,-3.45793 2.871445,-6.37479 0.374358,-1.43706 0.398942,-1.69895 0.15053,-1.60362 -0.572073,0.21953 -1.021636,-0.0861 -1.021636,-0.69455 0,-0.52163 -0.03909,-0.55758 -0.397186,-0.36589 -0.218455,0.11692 -0.5639,0.15966 -0.767657,0.095 -0.38939,-0.12358 -1.454045,-1.23959 -1.610389,-1.68807 -0.07376,-0.21143 -0.163451,-0.20191 -0.461084,0.0489 -0.595699,0.50204 -1.040987,0.58123 -1.610928,0.2865 -0.560831,-0.29001 -1.000164,-1.03062 -1.000164,-1.68602 0,-0.32274 -0.0631,-0.35378 -0.377017,-0.18575 -0.207353,0.11097 -0.72664,0.20177 -1.153956,0.20177 h -0.77696 l -0.113669,-1.21821 c -0.06256,-0.67001 -0.135292,-1.52519 -0.161707,-1.90041 l -0.04803,-0.68219 -1.591964,-0.0563 -1.591954,-0.0563 -0.747003,0.88594 c -0.410851,0.48728 -1.213612,1.65288 -1.783919,2.59023 l -1.036916,1.70428 0.589862,0.0604 0.589863,0.0604 -1.144965,1.36365 c -1.25129,1.49026 -2.473527,3.6819 -3.109057,5.57492 -0.645943,1.92411 -0.543785,1.98545 0.953839,0.57267 1.183945,-1.11688 2.537523,-2.0775 2.537523,-1.80087 0,0.0503 -0.170375,0.3814 -0.378622,0.73593 -0.557417,0.94902 -1.539922,4.01355 -1.678422,5.23521 -0.06623,0.58404 -0.04092,1.27058 0.0561,1.52565 0.17115,0.44969 0.198771,0.43344 0.910411,-0.536 0.403636,-0.54989 0.751224,-0.99978 0.772394,-0.99978 0.02111,0 0.0032,0.61281 -0.03844,1.3618 -0.112281,1.98704 0.02509,2.17922 0.83023,1.16171 0.364462,-0.46056 1.060057,-1.58952 1.545758,-2.50883 z m 14.397598,-3.78816 c 0.672466,-0.25298 2.319046,-0.60927 3.659076,-0.79175 3.06929,-0.41798 4.153943,-0.61072 6.296087,-1.11879 1.640372,-0.38908 1.751521,-0.44999 2.533872,-1.38862 0.450043,-0.53993 1.203033,-1.40611 1.673313,-1.92482 0.47028,-0.51872 0.75534,-0.94312 0.63347,-0.94312 -0.76845,0 0.8849,-2.01213 3.44814,-4.19637 1.86927,-1.59286 2.28262,-2.05658 2.99305,-3.3576 0.45335,-0.83022 1.05565,-1.74378 1.33844,-2.03012 0.48983,-0.49594 0.50496,-0.57141 0.31962,-1.59395 l -0.19456,-1.07337 -0.53368,1.10668 c -0.29352,0.60868 -0.76242,1.40879 -1.04198,1.77802 l -0.50829,0.67133 v -2.19823 -2.19825 l -1.01081,1.51127 c -1.20525,1.802 -3.37949,4.02657 -5.03279,5.14931 -2.220504,1.50792 -4.866088,2.53144 -6.528326,2.52568 l -0.779652,-0.003 0.960655,-0.49328 c 1.981408,-1.01741 3.890419,-3.04037 4.500283,-4.7689 0.16124,-0.45701 0.26771,-0.85637 0.2366,-0.88749 -0.0311,-0.0311 -1.062644,0.60573 -2.292312,1.41519 -2.739362,1.80328 -4.05524,2.48043 -5.596012,2.87967 -1.490345,0.38619 -4.878504,0.58461 -6.285287,0.36807 l -1.069349,-0.1646 0.752817,-0.44418 c 0.414049,-0.24429 0.713019,-0.48398 0.664368,-0.53262 -0.04867,-0.0487 -1.660429,-0.12433 -3.58174,-0.16816 -1.9213,-0.0438 -3.770108,-0.14135 -4.108467,-0.21671 -0.738862,-0.16455 -0.840127,0.0889 -0.616977,1.5448 0.196284,1.28055 0.382542,1.43535 1.236829,1.02798 0.944567,-0.45043 1.067357,-0.42035 1.067357,0.26159 0,0.72033 0.486778,1.94288 0.773579,1.94288 0.114811,0 0.5611,-0.22244 0.991765,-0.4943 0.430675,-0.27188 0.857539,-0.44826 0.948606,-0.39199 0.0911,0.0563 0.221664,0.40139 0.290246,0.76691 0.149517,0.79702 0.80008,1.67869 1.238659,1.67869 0.173961,0 0.553756,-0.22752 0.844014,-0.50559 l 0.527729,-0.5056 0.136703,0.45686 c 0.07516,0.25129 0.261743,0.65513 0.414577,0.89744 0.261097,0.41393 0.311589,0.42311 0.835873,0.152 l 0.557999,-0.28855 -0.388712,1.01746 c -0.420499,1.10069 -1.729711,5.98778 -1.604067,5.98778 0.0421,0 0.626818,-0.20697 1.299283,-0.45996 z m 34.588878,-5.77728 c 2.29253,-3.84626 3.93648,-6.32542 4.0916,-6.1703 0.11193,0.11194 -0.38638,2.00861 -1.00243,3.81552 -0.27116,0.79532 -0.45181,1.48724 -0.40144,1.5376 0.0504,0.0504 0.18472,-0.15336 0.29855,-0.45275 0.23965,-0.63031 1.56739,-2.82324 1.70939,-2.82324 0.0527,0 0.0551,1.83792 0.005,4.08429 -0.12362,5.57744 0.22898,5.24435 1.12542,-1.06314 0.57475,-4.04415 0.89414,-5.42809 1.59451,-6.90956 0.42011,-0.88862 0.52644,-1.00009 0.65083,-0.68221 0.0817,0.20899 0.15775,0.90624 0.16885,1.54946 l 0.0201,1.16947 0.38145,-0.45782 c 0.44265,-0.53126 1.05134,-2.39577 1.39513,-4.27355 l 0.24003,-1.31094 0.16837,1.07203 c 0.26234,1.67019 0.34599,2.00402 0.47092,1.87909 0.0639,-0.0637 0.39839,-0.97319 0.74351,-2.02086 0.34512,-1.04765 1.10592,-2.82848 1.69068,-3.9574 1.50756,-2.9105 1.87793,-5.16355 1.21552,-7.39419 -0.3961,-1.33377 -2.0865,-3.12516 -2.94898,-3.12516 -1.49248,0 -4.14927,-2.94374 -4.14927,-4.59741 0,-0.66763 -0.14379,-0.99157 -0.78337,-1.76478 -0.78517,-0.94927 -1.54947,-2.63157 -1.5626,-3.43953 -0.006,-0.40844 -0.0315,-0.40129 -0.47019,0.13527 -0.74221,0.90778 -1.14636,2.48359 -1.03525,4.03654 0.13469,1.88241 0.91147,3.32714 3.07481,5.71884 0.96542,1.06733 1.92981,2.30105 2.14307,2.7416 0.45834,0.9468 0.5,1.99025 0.10208,2.55827 -0.62147,0.88728 -2.51336,1.33244 -3.47516,0.8177 -0.48276,-0.25837 -1.75637,-1.2495 -3.16692,-2.46451 -1.13176,-0.9749 -3.86182,-2.61259 -3.95136,-2.37034 -0.0337,0.0913 0.0391,0.35384 0.16199,0.58337 0.12283,0.22954 0.18677,0.4539 0.14207,0.4986 -0.0447,0.0447 -0.59999,-0.0994 -1.23399,-0.32015 -1.13154,-0.39404 -3.78407,-0.74973 -3.78407,-0.50742 0,0.0677 0.59205,0.42767 1.31567,0.79971 1.94775,1.00145 1.94791,1.00317 0.0933,1.00068 -1.68322,-0.002 -3.64786,0.34729 -3.8574,0.68633 -0.0619,0.10025 0.9421,0.17533 2.34583,0.17533 2.41205,0 3.80605,0.27678 3.80605,0.7557 0,0.16931 -1.16805,0.67692 -2.52157,1.09583 -0.4307,0.1333 -0.44433,0.16943 -0.14619,0.38744 0.45058,0.32946 0.41219,0.48983 -0.11727,0.48983 -0.24533,0 -0.78754,0.17409 -1.20491,0.38687 -0.41737,0.21278 -0.79981,0.3459 -0.84989,0.29583 -0.0501,-0.0501 0.29058,-0.2619 0.75701,-0.47073 0.83652,-0.37452 0.84091,-0.3815 0.3214,-0.51188 -0.28967,-0.0727 -0.52667,-0.19313 -0.52667,-0.2676 0,-0.0745 0.61142,-0.33234 1.35871,-0.57302 0.74728,-0.24068 1.4039,-0.51075 1.45915,-0.60014 0.0552,-0.0894 -0.75353,-0.21862 -1.79726,-0.28721 -1.04374,-0.0686 -2.41916,-0.17722 -3.05647,-0.24143 -1.07339,-0.10817 -1.13084,-0.138 -0.77966,-0.40494 0.86856,-0.66023 2.18365,-1.07185 3.7522,-1.17445 0.89038,-0.0583 1.54821,-0.17274 1.46186,-0.25447 -0.0864,-0.0817 -0.7894,-0.33485 -1.5623,-0.5625 -0.7729,-0.22768 -1.45246,-0.49028 -1.51014,-0.58359 -0.20229,-0.32733 1.86848,-0.65214 3.46149,-0.54295 l 1.56356,0.10714 -0.56753,-0.46222 c -0.88154,-0.71796 -2.57783,-1.56873 -4.07598,-2.04431 -2.07173,-0.65766 -5.98265,-0.741 -9.55076,-0.20352 -1.50083,0.22607 -4.04445,0.58836 -5.652494,0.80509 -3.073881,0.41427 -3.99576,0.68618 -9.452679,2.78808 -1.747619,0.67316 -3.234841,1.38766 -3.898261,1.87283 -0.589959,0.43142 -2.432467,1.69736 -4.094457,2.81314 -3.269698,2.19515 -5.846826,4.45817 -7.631596,6.70147 -1.178938,1.48182 -2.814298,4.08356 -2.662315,4.23555 0.04835,0.0483 0.735685,-0.0472 1.527354,-0.21218 1.705516,-0.35561 6.935301,-0.40461 9.157034,-0.0858 1.871055,0.26851 4.828841,0.27832 5.512752,0.0183 0.291259,-0.11074 0.52956,-0.17172 0.52956,-0.13551 0,0.0362 -0.264263,0.39836 -0.587256,0.8048 -0.322993,0.40642 -0.561811,0.76441 -0.530712,0.79551 0.171495,0.1715 4.213253,-0.37688 5.344176,-0.72509 2.597469,-0.79973 5.376458,-2.31696 7.528664,-4.11035 0.51544,-0.42951 0.96801,-0.74948 1.00571,-0.71105 0.15192,0.15488 -0.83632,2.85579 -1.344934,3.67578 -0.29923,0.48242 -1.03584,1.38146 -1.636921,1.99787 -0.601083,0.61641 -1.027892,1.12075 -0.948466,1.12075 0.298226,0 3.396591,-1.64189 4.521311,-2.39594 2.84379,-1.90656 5.2046,-4.55437 5.77096,-6.47251 0.14245,-0.48247 0.3166,-0.87722 0.38701,-0.87722 0.20837,0 0.37163,1.12381 0.37163,2.55823 0,0.73702 0.0658,1.33606 0.14619,1.33119 0.0804,-0.005 0.48951,-0.72848 0.90915,-1.60803 l 0.76297,-1.59919 0.27016,1.18544 0.27016,1.18545 0.7469,-0.7469 c 0.90516,-0.90517 1.5068,-1.00865 0.65945,-0.11341 -0.54707,0.57797 -1.03619,1.3281 -1.03619,1.5891 0,0.0573 0.13156,0.0536 0.29237,-0.008 0.55947,-0.21468 0.28585,0.30419 -0.75358,1.42899 -0.57526,0.62252 -1.32338,1.68265 -1.66248,2.35584 -0.8015,1.59118 -1.5363,2.38334 -4.04457,4.36028 -1.74004,1.37144 -1.99218,1.63651 -1.60246,1.68455 0.42484,0.0523 0.35559,0.17138 -0.85087,1.46186 -0.72233,0.77266 -1.31461,1.47061 -1.31617,1.55102 -0.005,0.2801 0.79272,0.14287 1.98379,-0.34111 0.65957,-0.26801 1.2278,-0.48728 1.26274,-0.48728 0.0349,0 -0.25155,0.43856 -0.63664,0.97457 -0.38508,0.53601 -0.60171,0.97456 -0.48139,0.97456 0.37671,0 2.58469,-1.18361 4.00845,-2.14877 1.77276,-1.20176 2.93749,-2.13932 2.65765,-2.13932 -0.12221,0 0.39609,-0.75638 1.15176,-1.68083 1.3495,-1.6509 3.01174,-3.97166 2.8447,-3.97166 -0.0467,0 -0.58515,0.26313 -1.19653,0.58474 -0.61139,0.3216 -1.38288,0.58474 -1.71443,0.58474 h -0.60281 l 0.62569,-0.46162 c 0.91744,-0.67687 4.33821,-4.0214 4.11307,-4.0214 -0.10574,0 -0.72711,0.18017 -1.38074,0.40037 -0.65363,0.22019 -1.41835,0.36946 -1.69935,0.3317 -0.49112,-0.066 -0.46183,-0.11681 0.75602,-1.31205 1.15056,-1.12919 4.47167,-3.51319 4.89417,-3.51319 0.0955,0 0.17357,-0.0954 0.17357,-0.21205 0,-0.13439 -0.26768,-0.17229 -0.73091,-0.10348 -0.40201,0.0597 -1.33864,0.16701 -2.08142,0.23848 l -1.35047,0.12993 0.47788,-0.61063 c 0.46812,-0.59813 2.26649,-2.04989 2.75541,-2.22433 0.13603,-0.0486 0.20327,-0.13698 0.14944,-0.19658 -0.0538,-0.0595 -0.8871,0.14658 -1.85167,0.45813 -0.9646,0.31154 -1.82587,0.54354 -1.91397,0.51554 -0.0881,-0.028 0.0234,-0.28422 0.24764,-0.56936 0.33997,-0.43222 0.51705,-0.50072 1.06458,-0.41188 0.42174,0.0685 1.05066,-0.0408 1.75752,-0.30526 1.18329,-0.44273 1.80307,-0.50732 2.23625,-0.23304 0.20238,0.12812 -0.21363,0.49072 -1.60803,1.4016 -1.03457,0.67582 -1.88102,1.29838 -1.88102,1.38347 0,0.32903 2.90415,-0.0502 4.19064,-0.5473 0.77729,-0.30032 -0.14101,0.53014 -2.7288,2.46774 -2.24927,1.68416 -3.88336,3.10713 -3.56811,3.10713 0.0609,0 0.66935,-0.2071 1.35213,-0.46022 0.68277,-0.25312 1.55615,-0.50843 1.94083,-0.56737 0.68062,-0.10423 0.64266,-0.0518 -1.41395,1.95372 -1.16234,1.13349 -2.07005,2.10419 -2.01713,2.15711 0.0529,0.0529 0.52825,-0.17237 1.0563,-0.50063 l 0.96011,-0.59683 -0.19144,0.54918 c -0.1778,0.51003 -0.87273,1.57715 -2.46956,3.79217 -0.8149,1.13038 -0.73416,1.42338 0.21457,0.77871 1.18073,-0.80234 3.41414,-1.87983 3.75167,-1.80999 0.35902,0.0743 0.0655,0.49238 -2.10183,2.99285 -0.7243,0.83568 -1.27916,1.55718 -1.233,1.60333 0.11845,0.11845 1.9121,-0.80371 2.94349,-1.51332 0.47663,-0.32794 1.70182,-1.24913 2.72264,-2.0471 2.04393,-1.59772 1.97387,-1.65643 0.88688,0.74318 -0.6909,1.52522 -0.35276,1.48379 0.96178,-0.11785 0.67913,-0.82747 1.25979,-1.47946 1.29037,-1.44889 0.0306,0.0306 -0.16383,1.10618 -0.432,2.39024 -0.37263,1.78421 -0.73711,2.8566 -1.54592,4.5484 -1.01698,2.12721 -1.22523,3.13877 -0.44256,2.14959 0.20239,-0.25578 1.38744,-2.17543 2.63343,-4.26587 z m 11.52182,-26.62745 c 0.0876,-0.87161 -0.92317,-2.14134 -2.16488,-2.71947 -0.55643,-0.25906 -1.12132,-0.47189 -1.25532,-0.47293 -0.71445,-0.005 0.15256,1.55881 1.63322,2.94692 1.18329,1.10931 1.69311,1.17936 1.78698,0.24548 z m -1.47203,-3.5354 c 0.0506,-0.29482 0.15766,-0.68951 0.23789,-0.87712 0.12223,-0.2858 0.0397,-0.34161 -0.50844,-0.3443 -0.91625,-0.004 -2.09242,-0.72783 -2.78438,-1.71234 -1.07783,-1.53358 -0.90723,-4.46027 0.33884,-5.81243 0.34195,-0.37106 0.97257,-0.79872 1.40139,-0.95033 l 0.77965,-0.27569 -0.64628,-0.009 c -0.35546,-0.004 -0.83788,0.0899 -1.07203,0.21019 -0.53879,0.27681 -1.47522,1.13972 -1.7135,1.57896 -0.37627,0.69363 -0.55497,2.28945 -0.36722,3.27939 0.22163,1.16868 2.11257,4.65048 2.53209,4.66236 0.16081,0.004 0.55551,0.17682 0.87712,0.38283 0.77579,0.49694 0.81778,0.4909 0.92487,-0.13297 z m 1.13884,-2.85278 c 0.20027,-0.44102 0.36607,-1.04306 0.36842,-1.33786 0.003,-0.46518 -0.072,-0.53602 -0.5736,-0.53602 -0.92483,0 -1.26743,-1.02558 -0.70557,-2.11213 0.24465,-0.47308 0.23771,-0.58403 -0.0614,-0.98049 -0.29088,-0.38562 -0.44118,-0.42753 -1.09408,-0.30505 -1.04101,0.19529 -2.21653,1.32071 -2.36691,2.26602 -0.18393,1.15627 0.0793,1.99607 0.92729,2.95954 1.34467,1.52765 2.82411,1.54705 3.50577,0.046 z m 9.02674,1.17688 c 0.006,-0.0482 -0.46236,-0.16204 -1.12225,-0.3132 -0.65988,-0.15116 -1.51105,-0.33967 -2.26996,-0.53735 -1.51782,-0.39535 -2.81616,-0.84596 -2.67574,-0.97114 0.14043,-0.12519 1.15416,0.31571 2.63473,0.7529 1.56477,0.46205 3.39769,0.97012 3.40578,0.81139 0.0384,-0.7539 -4.16064,-2.95552 -5.25143,-2.97646 -1.09079,-0.0209 -1.57372,-0.009 -2.64093,-0.41828 -0.23366,-0.0897 -0.31609,0.25493 -0.4067,1.32179 -0.0614,0.72337 -0.35021,1.27167 -0.72386,2.31665 -0.0531,0.35285 0.96124,-0.13743 2.14466,-0.10524 1.18341,0.0322 2.38972,0.21496 3.44764,0.19482 1.05792,-0.0201 1.42651,-0.0821 2.00313,-0.0921 0.57663,-0.01 1.4461,0.0845 1.45493,0.0162 z m -20.81102,-1.91186 c 1.63168,-1.28385 3.2627,-2.11344 4.15511,-2.11344 0.50016,0 0.84644,-0.13127 1.10096,-0.41737 l 0.37131,-0.41736 -0.77965,0.14086 c -0.42882,0.0774 -1.60537,0.48479 -2.61457,0.90515 -1.00921,0.42037 -1.86773,0.73151 -1.90782,0.69141 -0.13723,-0.13722 1.79265,-1.25542 2.67071,-1.54744 0.48241,-0.16043 1.29374,-0.35409 1.80295,-0.43035 0.50921,-0.0762 0.92583,-0.2164 0.92583,-0.31143 0,-0.0951 -0.41662,-0.18592 -0.92583,-0.20199 -0.65492,-0.0207 -0.75473,-0.0535 -0.3411,-0.11245 0.98395,-0.14008 0.97493,-0.39862 -0.0245,-0.70162 -1.28832,-0.39057 -2.9206,-1.1393 -2.11955,-0.97224 0.32161,0.0671 1.1441,0.33104 1.82777,0.58658 0.68366,0.25554 1.29764,0.40857 1.36439,0.34006 0.0668,-0.0685 -0.27333,-0.48133 -0.75574,-0.9174 -0.95066,-0.85934 -0.73155,-0.8088 0.43856,0.10112 0.40201,0.31262 0.73079,0.49525 0.73065,0.40584 -1.5e-4,-0.0894 -0.6222,-0.90811 -1.38233,-1.81933 -0.76013,-0.91122 -1.64714,-2.03799 -1.97114,-2.50393 -0.51133,-0.735325 -0.53399,-0.817685 -0.17159,-0.623725 0.38651,0.20685 1.84016,1.947085 3.23296,3.870315 0.32161,0.44409 0.65052,0.80951 0.73093,0.81204 0.35722,0.0113 0.0439,-0.79349 -1.42347,-3.65698 -1.16448,-2.272285 -1.41721,-2.886835 -0.97907,-2.380735 0.59643,0.68893 2.58435,4.403275 2.79052,5.213935 0.0614,0.24122 0.21722,0.43857 0.34638,0.43857 0.21684,0 0.20313,-0.29831 -0.0745,-1.62188 -0.0265,-0.1264 0.0783,0.0552 0.23279,0.40366 0.31905,0.71925 0.71652,0.85984 0.55105,0.19491 -0.24236,-0.97396 -0.92936,-5.062319 -0.86197,-5.129706 0.0397,-0.03973 0.31538,1.040341 0.6125,2.400196 0.29711,1.35987 0.58274,2.54128 0.6347,2.62536 0.27687,0.44798 0.46543,0.009 0.49886,-1.16278 l 0.0376,-1.31567 0.0691,1.2182 c 0.0514,0.90336 0.14237,1.21822 0.35227,1.21822 0.15569,0 0.28754,-0.0658 0.293,-0.14618 0.005,-0.0804 0.0869,-1.11102 0.1809,-2.29024 0.094,-1.179225 0.11973,-2.659936 0.0571,-3.29047 l -0.11389,-1.146418 -0.33312,0.644177 -0.33311,0.644177 -0.24779,-0.750814 -0.24779,-0.750815 -0.38817,0.756619 -0.38816,0.756619 -0.44599,-1.231703 c -0.64264,-1.774758 -0.8656,-1.89973 -0.8822,-0.494466 -0.008,0.637856 -0.0836,1.335153 -0.16889,1.549559 -0.13636,0.342526 -0.23285,0.265641 -0.79509,-0.633463 -0.35194,-0.562812 -0.67601,-1.023298 -0.72016,-1.023298 -0.0442,0 -0.0211,0.394703 0.0513,0.877109 0.0741,0.49368 0.054,0.877115 -0.046,0.877115 -0.0976,0 -0.52008,-0.35085 -0.9388,-0.779652 -0.87891,-0.900094 -1.15558,-0.979064 -1.02432,-0.292379 0.11316,0.59193 0.0691,0.597001 -0.66231,0.07624 -0.31752,-0.226101 -0.61818,-0.370233 -0.66811,-0.32029 -0.05,0.04996 0.12947,0.476128 0.3987,0.947098 0.26922,0.47097 0.49055,0.917119 0.49184,0.991442 0.001,0.0743 -0.62757,-0.124632 -1.39747,-0.442112 -1.61207,-0.664766 -2.0036,-0.542988 -1.32379,0.411713 l 0.44295,0.622057 -1.05145,-0.14461 -1.05145,-0.14461 0.84505,0.91678 c 0.46478,0.50423 0.80811,0.953735 0.76294,0.998915 -0.0451,0.0451 -0.59044,-0.0118 -1.21171,-0.126695 -1.38613,-0.25624 -1.6664,-0.0625 -1.0381,0.717855 1.07895,1.33995 1.0649,1.3138 0.63829,1.18726 -0.92269,-0.27369 -1.85014,-0.36429 -1.85014,-0.18072 0,0.1065 0.41662,0.46603 0.92584,0.79906 l 0.92584,0.60552 -1.21822,0.002 c -0.67001,0.001 -1.21795,0.0681 -1.21764,0.14847 3.9e-4,0.0804 0.4095,0.36547 0.9093,0.63348 1.0494,0.56271 1.11325,0.80743 0.2743,1.05149 -0.55334,0.16098 -0.83829,0.50781 -0.4172,0.50781 0.10025,0 0.42915,0.0959 0.73093,0.2132 l 0.5487,0.21319 -0.97457,0.38519 c -1.47676,0.58366 -1.43705,0.70161 0.22866,0.67925 2.18914,-0.0294 2.34535,0.18084 0.72283,0.9728 l -1.34131,0.65469 1.26694,-0.10392 1.26694,-0.10391 -0.77966,0.68149 c -0.87951,0.76877 -0.8065,0.86499 0.25141,0.3313 0.39774,-0.20065 0.9359,-0.43072 1.19592,-0.51128 0.44543,-0.13798 0.43133,-0.09 -0.24364,0.82949 -1.13976,1.55266 -0.99067,1.55512 0.96546,0.016 z m 12.4049,-1.97717 c 0.20913,-0.63076 -0.13808,-1.69558 -0.55288,-1.69558 -0.37086,0 -0.86452,0.7816 -0.86452,1.36878 0,1.05581 1.09221,1.30764 1.4174,0.3268 z m -0.72433,-0.50851 c -0.15567,-0.25188 0.0925,-0.81661 0.30192,-0.68717 0.2321,0.14345 0.22465,0.86449 -0.009,0.86449 -0.1009,0 -0.23272,-0.0798 -0.29299,-0.17732 z m 4.43384,0.52774 c 0.51778,-0.2657 1.10903,-1.33708 1.10768,-2.00718 -0.003,-1.53035 -1.77919,-3.7782 -3.31129,-4.19075 -1.85629,-0.49985 -3.78365,1.08828 -3.31287,2.72979 0.26532,0.9251 0.73663,1.55842 1.15979,1.55842 0.51122,0 0.984,0.51845 0.984,1.07908 0,0.97379 2.09045,1.48864 3.37269,0.83064 z m -6.49131,-2.87581 c 0.59019,-0.10101 0.67306,-0.18174 0.61442,-0.59862 -0.0911,-0.64751 -0.0991,-0.65101 -0.88735,-0.39084 -0.65153,0.21502 -1.6762,1.18435 -1.6762,1.58567 0,0.10176 0.28506,0.0354 0.63347,-0.14725 0.34841,-0.18272 0.94047,-0.38475 1.31566,-0.44896 z"
       style="fill:#9d9d9d;fill-opacity:1;stroke-width:0.19491343" />
    <ellipse
       style="opacity:1;vector-effect:none;fill:#9d9d9d;fill-opacity:1;stroke:none;stroke-width:0.1628411;stroke-linecap:butt;stroke-linejoin:miter;stroke-miterlimit:4;stroke-dasharray:none;stroke-dashoffset:0;stroke-opacity:1"
       id="path898"
       cx="155.79314"
       cy="83.238022"
       rx="0.49718443"
       ry="0.21417175"
       transform="rotate(10.249644)" />
    <path
       style="opacity:1;vector-effect:none;fill:#4b6a87;fill-opacity:1;stroke:none;stroke-width:0.00665765;stroke-linecap:butt;stroke-linejoin:miter;stroke-miterlimit:4;stroke-dasharray:none;stroke-dashoffset:0;stroke-opacity:1"
       d="m 133.21494,111.69264 c -0.0343,-0.0111 -0.0676,-0.0422 -0.0691,-0.0645 -0.004,-0.055 0.0107,-0.0961 0.26935,-0.77625 0.26436,-0.69505 0.33808,-0.92085 0.39552,-1.21154 0.0357,-0.18043 0.0448,-0.25118 0.0779,-0.60577 0.0569,-0.60927 0.12,-0.92757 0.20629,-1.04102 0.0568,-0.0747 0.10235,-0.0763 0.28024,-0.0102 0.23584,0.0877 0.46221,0.1587 0.6758,0.21202 0.44934,0.11218 0.73933,0.14237 1.5685,0.16328 0.27106,0.007 0.4448,0.0158 0.4976,0.0258 0.47557,0.0898 1.22228,0.37734 2.09315,0.8059 1.4376,0.70746 2.58127,1.47436 2.86865,1.92361 0.0459,0.0718 0.0815,0.16764 0.0769,0.20713 -0.003,0.0278 -0.005,0.0284 -0.0934,0.0315 -0.24427,0.009 -1.11784,-0.20144 -2.53849,-0.6102 -0.96758,-0.2784 -1.23361,-0.36069 -2.21473,-0.68501 -0.84508,-0.27936 -1.06149,-0.3361 -1.15901,-0.30392 -0.20666,0.0682 0.37455,0.32816 1.49694,0.66954 0.78377,0.23839 1.48207,0.41692 2.90445,0.74256 0.89712,0.20539 1.18366,0.27367 1.36508,0.32527 0.41433,0.11784 0.35919,0.13742 -0.29958,0.1064 -0.61524,-0.029 -1.07854,-0.0262 -1.62259,0.01 -0.62543,0.0415 -0.9393,0.0534 -1.41167,0.0539 -0.52453,5.3e-4 -0.70469,-0.009 -1.91466,-0.10605 -1.59061,-0.12696 -1.81164,-0.12043 -2.92067,0.0863 -0.2661,0.0496 -0.4754,0.0697 -0.53251,0.0513 z m 5.64246,-1.85823 c 0.2858,-0.097 0.0734,-0.35258 -0.35034,-0.4215 -0.27665,-0.045 -0.503,0.0212 -0.503,0.14708 0,0.11365 0.19774,0.23747 0.4579,0.28674 0.10707,0.0203 0.31885,0.0137 0.39544,-0.0123 z"
       id="path900"
       inkscape:connector-curvature="0" />
    <text
       id="text1182"
       y="183.90916"
       x="102.74138"
       style="font-style:normal;font-variant:normal;font-weight:normal;font-stretch:normal;font-size:10.58333302px;line-height:1.25;font-family:'Segoe ui';-inkscape-font-specification:'Segoe ui';text-align:center;letter-spacing:0px;word-spacing:0px;text-anchor:middle;fill:#f5ffff;fill-opacity:1;stroke:#ffffff;stroke-width:2.66499996;stroke-miterlimit:4;stroke-dasharray:none;stroke-opacity:1;filter:url(#filter1071)"
       xml:space="preserve"><tspan
         style="font-style:normal;font-variant:normal;font-weight:normal;font-stretch:normal;font-size:22.57777786px;font-family:'Segoe ui';-inkscape-font-specification:'Segoe ui';text-align:center;text-anchor:middle;fill:#f5ffff;fill-opacity:1;stroke:#ffffff;stroke-width:2.66499996;stroke-miterlimit:4;stroke-dasharray:none;stroke-opacity:1"
         y="183.90916"
         x="102.74138"
         id="tspan1180"
         sodipodi:role="line">miniCRAN</tspan></text>
    <g
       aria-label="miniCRAN"
       style="font-style:normal;font-variant:normal;font-weight:normal;font-stretch:normal;font-size:10.58333302px;line-height:1.25;font-family:'Segoe ui';-inkscape-font-specification:'Segoe ui';text-align:center;letter-spacing:0px;word-spacing:0px;text-anchor:middle;fill:#000000;fill-opacity:1;stroke:#000000;stroke-width:1.16499996;stroke-miterlimit:4;stroke-dasharray:none;stroke-opacity:1"
       id="text989">
      <path
         d="m 69.558219,183.90916 h -1.807986 v -6.48229 q 0,-1.87413 -0.584288,-2.71198 -0.573264,-0.83784 -1.940278,-0.83784 -1.157552,0 -1.973351,1.05833 -0.804774,1.05833 -0.804774,2.53559 v 6.43819 h -1.807986 v -6.70277 q 0,-3.32934 -2.568663,-3.32934 -1.190625,0 -1.962327,1.00321 -0.771701,0.99219 -0.771701,2.59071 v 6.43819 h -1.807986 v -11.28888 h 1.807986 v 1.78593 h 0.0441 q 1.201649,-2.05052 3.505729,-2.05052 1.157552,0 2.017448,0.65044 0.859896,0.63941 1.179601,1.68671 1.256771,-2.33715 3.748264,-2.33715 3.726215,0 3.726215,4.59714 z"
         style="font-style:normal;font-variant:normal;font-weight:normal;font-stretch:normal;font-size:22.57777786px;font-family:'Segoe ui';-inkscape-font-specification:'Segoe ui';text-align:center;text-anchor:middle;fill:#000000;fill-opacity:1;stroke:#000000;stroke-width:1.16499996;stroke-miterlimit:4;stroke-dasharray:none;stroke-opacity:1"
         id="path860"
         inkscape:connector-curvature="0" />
      <path
         d="m 73.901795,169.75396 q -0.48507,0 -0.826823,-0.33073 -0.341754,-0.33073 -0.341754,-0.83785 0,-0.50712 0.341754,-0.83785 0.341753,-0.34175 0.826823,-0.34175 0.496094,0 0.837847,0.34175 0.352778,0.33073 0.352778,0.83785 0,0.48507 -0.352778,0.82682 -0.341753,0.34176 -0.837847,0.34176 z m 0.881944,14.1552 h -1.807986 v -11.28888 h 1.807986 z"
         style="font-style:normal;font-variant:normal;font-weight:normal;font-stretch:normal;font-size:22.57777786px;font-family:'Segoe ui';-inkscape-font-specification:'Segoe ui';text-align:center;text-anchor:middle;fill:#000000;fill-opacity:1;stroke:#000000;stroke-width:1.16499996;stroke-miterlimit:4;stroke-dasharray:none;stroke-opacity:1"
         id="path862"
         inkscape:connector-curvature="0" />
      <path
         d="m 87.814469,183.90916 h -1.807986 v -6.43819 q 0,-3.59392 -2.623785,-3.59392 -1.35599,0 -2.248958,1.02526 -0.881945,1.01423 -0.881945,2.56866 v 6.43819 h -1.807986 v -11.28888 h 1.807986 v 1.87413 h 0.0441 q 1.27882,-2.13872 3.704167,-2.13872 1.852083,0 2.833247,1.20165 0.981163,1.19063 0.981163,3.45061 z"
         style="font-style:normal;font-variant:normal;font-weight:normal;font-stretch:normal;font-size:22.57777786px;font-family:'Segoe ui';-inkscape-font-specification:'Segoe ui';text-align:center;text-anchor:middle;fill:#000000;fill-opacity:1;stroke:#000000;stroke-width:1.16499996;stroke-miterlimit:4;stroke-dasharray:none;stroke-opacity:1"
         id="path864"
         inkscape:connector-curvature="0" />
      <path
         d="m 92.158045,169.75396 q -0.485069,0 -0.826823,-0.33073 -0.341753,-0.33073 -0.341753,-0.83785 0,-0.50712 0.341753,-0.83785 0.341754,-0.34175 0.826823,-0.34175 0.496094,0 0.837847,0.34175 0.352778,0.33073 0.352778,0.83785 0,0.48507 -0.352778,0.82682 -0.341753,0.34176 -0.837847,0.34176 z m 0.881945,14.1552 h -1.807986 v -11.28888 h 1.807986 z"
         style="font-style:normal;font-variant:normal;font-weight:normal;font-stretch:normal;font-size:22.57777786px;font-family:'Segoe ui';-inkscape-font-specification:'Segoe ui';text-align:center;text-anchor:middle;fill:#000000;fill-opacity:1;stroke:#000000;stroke-width:1.16499996;stroke-miterlimit:4;stroke-dasharray:none;stroke-opacity:1"
         id="path866"
         inkscape:connector-curvature="0" />
      <path
         d="m 107.70232,183.24771 q -1.75287,0.92604 -4.36563,0.92604 -3.373436,0 -5.401908,-2.17179 -2.028473,-2.17179 -2.028473,-5.69957 0,-3.79236 2.282032,-6.12951 2.282029,-2.33715 5.787759,-2.33715 2.24896,0 3.72622,0.65043 v 1.97335 q -1.69775,-0.94809 -3.74827,-0.94809 -2.723,0 -4.420744,1.81901 -1.686719,1.81901 -1.686719,4.86172 0,2.88837 1.576476,4.60816 1.587497,1.70877 4.156167,1.70877 2.38125,0 4.12309,-1.05834 z"
         style="font-style:normal;font-variant:normal;font-weight:normal;font-stretch:normal;font-size:22.57777786px;font-family:'Segoe ui';-inkscape-font-specification:'Segoe ui';text-align:center;text-anchor:middle;fill:#000000;fill-opacity:1;stroke:#000000;stroke-width:1.16499996;stroke-miterlimit:4;stroke-dasharray:none;stroke-opacity:1"
         id="path868"
         inkscape:connector-curvature="0" />
      <path
         d="m 122.2544,183.90916 h -2.20486 l -2.64583,-4.43177 q -0.36381,-0.61736 -0.70556,-1.04731 -0.34175,-0.44097 -0.70555,-0.71658 -0.35278,-0.2756 -0.77171,-0.39687 -0.4079,-0.13229 -0.92604,-0.13229 h -1.52135 v 6.72482 h -1.85209 v -15.80885 h 4.71841 q 1.03628,0 1.9072,0.26458 0.88195,0.25356 1.52136,0.78273 0.65043,0.52917 1.01423,1.32292 0.3638,0.78272 0.3638,1.84105 0,0.82683 -0.25355,1.52136 -0.24254,0.68351 -0.70556,1.2237 -0.452,0.54019 -1.10243,0.92604 -0.63941,0.37483 -1.44418,0.58429 v 0.0441 q 0.39687,0.17639 0.6835,0.4079 0.29766,0.22049 0.56224,0.52917 0.26459,0.30868 0.51814,0.70556 0.26459,0.38585 0.58429,0.90399 z M 112.7735,169.776 v 5.73264 h 2.51354 q 0.69453,0 1.27882,-0.20946 0.59531,-0.20946 1.02526,-0.59531 0.42995,-0.39688 0.67248,-0.95912 0.24254,-0.57326 0.24254,-1.27881 0,-1.2678 -0.82683,-1.97336 -0.81579,-0.71658 -2.37022,-0.71658 z"
         style="font-style:normal;font-variant:normal;font-weight:normal;font-stretch:normal;font-size:22.57777786px;font-family:'Segoe ui';-inkscape-font-specification:'Segoe ui';text-align:center;text-anchor:middle;fill:#000000;fill-opacity:1;stroke:#000000;stroke-width:1.16499996;stroke-miterlimit:4;stroke-dasharray:none;stroke-opacity:1"
         id="path871"
         inkscape:connector-curvature="0" />
      <path
         d="m 136.65215,183.90916 h -2.05053 l -1.67569,-4.43177 h -6.70278 l -1.57647,4.43177 h -2.06155 l 6.06337,-15.80885 h 1.91823 z m -4.33256,-6.09644 -2.48047,-6.73585 q -0.12126,-0.33073 -0.24253,-1.05833 h -0.0441 q -0.11024,0.67248 -0.25356,1.05833 l -2.45842,6.73585 z"
         style="font-style:normal;font-variant:normal;font-weight:normal;font-stretch:normal;font-size:22.57777786px;font-family:'Segoe ui';-inkscape-font-specification:'Segoe ui';text-align:center;text-anchor:middle;fill:#000000;fill-opacity:1;stroke:#000000;stroke-width:1.16499996;stroke-miterlimit:4;stroke-dasharray:none;stroke-opacity:1"
         id="path873"
         inkscape:connector-curvature="0" />
      <path
         d="m 151.71134,183.90916 h -2.27101 l -8.13593,-12.60078 q -0.30868,-0.47404 -0.50712,-0.99218 h -0.0661 q 0.0882,0.50711 0.0882,2.17178 v 11.42118 h -1.85209 v -15.80885 h 2.4033 l 7.91545,12.40234 q 0.4961,0.77171 0.63941,1.05834 h 0.0441 q -0.11024,-0.68351 -0.11024,-2.32613 v -11.13455 h 1.85208 z"
         style="font-style:normal;font-variant:normal;font-weight:normal;font-stretch:normal;font-size:22.57777786px;font-family:'Segoe ui';-inkscape-font-specification:'Segoe ui';text-align:center;text-anchor:middle;fill:#000000;fill-opacity:1;stroke:#000000;stroke-width:1.16499996;stroke-miterlimit:4;stroke-dasharray:none;stroke-opacity:1"
         id="path875"
         inkscape:connector-curvature="0" />
    </g>
    <path
       inkscape:connector-curvature="0"
       id="path995"
       d="m 128.868,105.63051 c -0.039,-0.0149 -0.0402,-0.0672 -0.003,-0.17428 0.0666,-0.19898 0.23876,-0.43736 0.5335,-0.73842 0.25133,-0.2567 0.49612,-0.46281 0.77072,-0.64896 0.32705,-0.22172 0.50135,-0.30122 0.96268,-0.43918 0.2056,-0.0614 0.29906,-0.0816 0.37888,-0.0816 0.16981,0 0.2343,0.0957 0.28841,0.42817 0.0576,0.35437 0.0615,0.52447 0.0139,0.61742 -0.0696,0.1359 -0.21103,0.20004 -0.60573,0.27479 -0.25742,0.0488 -0.35132,0.0703 -0.53411,0.12249 -0.38692,0.11037 -0.71135,0.23423 -1.08004,0.41205 -0.26065,0.12566 -0.40069,0.18281 -0.52874,0.21555 -0.073,0.0186 -0.16297,0.0243 -0.19505,0.0127 z"
       style="opacity:1;vector-effect:none;fill:#ff0000;fill-opacity:1;stroke:none;stroke-width:0.00627431;stroke-linecap:butt;stroke-linejoin:miter;stroke-miterlimit:4;stroke-dasharray:none;stroke-dashoffset:0;stroke-opacity:1" />
    <path
       inkscape:connector-curvature="0"
       id="path1005"
       d="m 133.08944,117.62293 c -0.42341,-0.15298 -1.0527,-0.66571 -1.89798,-1.5464 -0.8667,-0.90298 -1.54666,-1.94586 -1.59972,-2.45346 -0.0291,-0.27934 0.11935,-0.40166 0.39965,-0.32907 0.29044,0.0753 0.89523,0.31881 1.3861,0.55829 0.78683,0.38387 1.51349,1.01521 1.97221,1.71349 0.16593,0.25258 0.26825,0.45936 0.35529,0.71802 0.0619,0.18419 0.0731,0.24617 0.0814,0.45371 0.0115,0.28651 -0.0244,0.49643 -0.11736,0.68678 -0.11244,0.23022 -0.30729,0.29699 -0.57951,0.19864 z"
       style="opacity:1;vector-effect:none;fill:#ff0000;fill-opacity:1;stroke:none;stroke-width:0.01232717;stroke-linecap:butt;stroke-linejoin:miter;stroke-miterlimit:4;stroke-dasharray:none;stroke-dashoffset:0;stroke-opacity:1" />
  </g>
</svg>
