<?xml version="1.0" encoding="utf-8"?>
<!-- Generator: Adobe Illustrator 26.5.0, SVG Export Plug-In . SVG Version: 6.00 Build 0)  -->
<svg version="1.1"
	 id="svg8" xmlns:dc="http://purl.org/dc/elements/1.1/" xmlns:inkscape="http://www.inkscape.org/namespaces/inkscape" xmlns:rdf="http://www.w3.org/1999/02/22-rdf-syntax-ns#" xmlns:sodipodi="http://sodipodi.sourceforge.net/DTD/sodipodi-0.dtd" xmlns:cc="http://creativecommons.org/ns#" xmlns:svg="http://www.w3.org/2000/svg" inkscape:export-filename="C:\Users\apdev\Documents\github\R-packages\maintainer\miniCRAN\miniCRAN\man\figures\miniCRAN-logo.png" inkscape:version="0.92.5 (2060ec1f9f, 2020-04-08)" sodipodi:docname="logo.svg"
	 xmlns="http://www.w3.org/2000/svg" xmlns:xlink="http://www.w3.org/1999/xlink" x="0px" y="0px" viewBox="0 0 2521 2911"
	 style="enable-background:new 0 0 2521 2911;" xml:space="preserve">
<style type="text/css">
	.st0{fill:#F9F9F9;}
	.st1{fill:#7D433B;}
	.st2{fill:#F5F7F7;}
	.st3{fill:#280B0B;}
	.st4{fill:#C89F4D;}
	.st5{fill:#81B6D6;}
	.st6{fill:#C2CCD8;}
	.st7{fill:#888DA1;}
	.st8{fill:#656A80;}
	.st9{fill:#9D9D9D;}
	.st10{fill:#4B6A87;}
	.st11{fill:#FF0000;}
</style>
<sodipodi:namedview  bordercolor="#666666" borderopacity="1.0" fit-margin-bottom="0" fit-margin-left="0" fit-margin-right="0" fit-margin-top="0" id="base" inkscape:current-layer="layer1" inkscape:cx="171.37069" inkscape:cy="333.32078" inkscape:document-units="mm" inkscape:pageopacity="0.0" inkscape:pageshadow="2" inkscape:window-height="1017" inkscape:window-maximized="1" inkscape:window-width="1920" inkscape:window-x="-8" inkscape:window-y="-8" inkscape:zoom="1.0809568" pagecolor="#ffffff" showgrid="false">
	</sodipodi:namedview>
<g>
	<path class="st0" d="M1843.5,763.1c3.8-8.4,7-19.9,7-25.5c0.1-8.9-1.4-10.2-10.9-10.2c-2.8,0-5.3-0.6-7.6-1.5
		c0.3,0.1,0.6,0.4,1,0.5c1.8,0.7,3.2,0.9,7.5,1.1c4.5,0.2,5.5,0.4,6.8,1c2.5,1.2,2.9,2.4,2.9,8.4c0,4.6-0.1,5.3-1.3,9.9
		c-2.3,9.3-5.8,17.8-9.5,23.3c-2.4,3.6-7.5,8.6-10.7,10.3c-5.5,3.1-11.3,4.2-17.6,3.4l0,0c-12-1.6-25.8-11-37.6-25.7
		c-13.6-16.9-17.8-32.5-14.3-52.8c2.4-14,16.9-30.7,33.5-38.8c4.8-2.3,8-3.4,13.3-4.3c5.1-0.9,9.4-1,11.7-0.2c2.1,0.7,4.5,2.8,7,6.2
		c2.4,3.2,3.9,5.7,4.4,7.7c0.6,2.3,0,4.3-2.7,10c-1.5,3.1-2.5,5.8-3.4,8.4c0.8-2.4,1.8-4.9,3.1-7.4c4.7-9,4.5-11.1-1.2-18.7
		c-5.6-7.4-8.4-8.2-20.9-5.8c-19.9,3.7-42.3,25.2-45.2,43.3c-3.5,22.1,1.5,38.1,17.7,56.5C1802.3,791.4,1830.5,791.8,1843.5,763.1
		L1843.5,763.1z"/>
	<path class="st0" d="M1854.7,786.5c-5.1,0.9-9.1,1.3-10.2,1l0,0c-0.7-0.2-1.3-0.8-1.3-1.2c-0.1-1.1,0.2-1.8,5.1-14.8
		c5-13.3,6.5-17.6,7.5-23.1c0.7-3.4,0.9-4.8,1.5-11.6c1.1-11.6,2.3-17.7,3.9-19.9c1.1-1.4,2-1.5,5.3-0.2c3.9,1.5,7.7,2.6,11.3,3.6
		c-4-1.1-8.3-2.5-13.3-4.4c-4.5-1.7-6,4.9-7.8,25.2c-1.2,13.8-6.7,24.3-13.8,44.2c-1,6.7,18.3-2.6,40.9-2
		c18.4,0.5,36.9,2.8,54.1,3.5c-5.7-0.2-12.3-0.7-27.7-1.9C1880.1,782.5,1875.9,782.6,1854.7,786.5z"/>
	<path class="st0" d="M1909.3,752c-0.7-0.2-1.3-0.4-1.9-0.5C1908,751.7,1908.6,751.8,1909.3,752z"/>
	<path class="st0" d="M811.5,1302.9c-9.1,3.8-15.1-9.2-15.2-32.9c-0.1-11.5,1.7-11.9,43.8-11.4c64.5,0.8,110.7,6.6,95.7,11.9
		c-6.6,2.3-12,6.7-12,9.8c0,2.6,11.8,3.9,35.5,3.9c-4.8-0.3-9.1-0.7-12.7-1.2l-20.4-3.1l14.4-8.5c7.9-4.7,13.6-9.2,12.7-10.2
		c-0.9-0.9-31.7-2.4-68.4-3.2c-36.7-0.8-72-2.7-78.4-4.1c-14.1-3.1-16,1.7-11.8,29.5c3.7,24.4,7.3,27.4,23.6,19.6
		c6.7-3.2,11.2-5.1,14.3-5.6C828.3,1296.3,822.1,1298.6,811.5,1302.9z"/>
	<path class="st0" d="M1828.3,705.1c0,20.2,20.8,25,27.1,6.2c4-12-2.6-32.4-10.6-32.4C1837.7,679,1828.3,693.9,1828.3,705.1z
		 M1847.7,680.1c4.8,3.2,8.6,13.3,8.6,22.9c0,4.6-0.6,7.4-2.3,11c-1.6,3.3-4.5,6.5-7.2,7.8c-2.1,1-6.3,1.3-8.2,0.6l0,0
		c-4.6-1.7-7.9-5.6-9.5-11.2c-0.9-3.4-0.8-9.3,0.3-13.1c1.8-5.9,5-11.6,8.7-15.3C1841.7,679.3,1845,678.4,1847.7,680.1z"/>
	<path class="st0" d="M1900.8,752.5c-0.2-0.1-0.4-0.3-0.6-0.4C1900.4,752.2,1900.6,752.3,1900.8,752.5z"/>
	<path class="st0" d="M1947,786.9c-1.6,0-3,0-4.4,0c2.4,0,4.9,0.2,7.2,0.2c17.1-0.3,24.8-1.2,33.5-1.6c-3.1,0.1-6.1,0.2-9.4,0.4
		C1962,786.7,1956,786.9,1947,786.9z"/>
	<path class="st0" d="M1984.6,777.5c17.1,3.9,22.6,5.2,26.1,6.2c7.9,2.2,6.9,2.6-5.7,2c-3.4-0.2-6.6-0.3-9.7-0.3
		c9.9,0.3,20.5,1.3,20.6,0.2c0.1-0.9-8.8-3.1-21.4-6s-28.8-6.5-43.3-10.3c-23.1-6-43.4-12.7-49.4-16.4c3.8,2.3,13.3,5.9,27.5,10.3
		C1944.1,767.8,1957.4,771.2,1984.6,777.5z"/>
	<path class="st0" d="M971.6,1380.3c-9.1,4.9-11.6,3.6-17-9.1c-8.8-20.5-8.3-20.3-19.9-9.7c-13.8,12.5-25.5,7.3-35.1-15.7
		c-1.9-4.4-3.7-8-5.5-10.8c0.8,2.3,1.4,4.9,2,7.7c2.9,15.2,15.3,32,23.6,32c3.3,0,10.6-4.3,16.1-9.7l10.1-9.7l2.6,8.7
		c1.4,4.8,5,12.5,7.9,17.1c5,7.9,5.9,8.1,16,2.9l9.1-4.7C980.4,1376.4,977.2,1377.3,971.6,1380.3z"/>
	<path class="st0" d="M1252.1,1385.9c-14.7,0,16.9-38.4,65.8-80.1c35.7-30.4,43.6-39.3,57.1-64.1c8.7-15.8,20.2-33.3,25.5-38.8
		c9.4-9.5,9.6-10.9,6.1-30.4l-3.7-20.5l-10.2,21.1c-5.6,11.6-14.6,26.9-19.9,33.9l-9.7,12.8v-42v-42l-19.3,28.8
		c-8.7,12.9-19.9,27-32.3,40.7c17.1-17.8,31.7-34.1,36.3-40.5l11.3-15.9l0.2,35.9c0.1,19.7,2.1,35.9,4.4,35.9s11.3-12.1,19.9-26.8
		c13.2-22.6,16.4-25.3,20-17.1c7,15.6-41.3,82.2-102.1,140.9c-31.2,30.1-53.6,56-53.6,61.9c0,5.6-12.4,24.8-27.5,42.7
		c-32.3,38.3-39.4,40.9-161.2,60.9c-43.9,7.2-86.6,15.7-95,18.9l-15.2,5.8l3.8-20c2.1-11,9.5-38,16.5-59.9
		c8.3-26.1,12.4-40,12.3-46.2l-6.2,16.2c-8,21-33,114.3-30.6,114.3c0.8,0,12-4,24.8-8.8l0,0c12.8-4.8,44.3-11.6,69.8-15.1
		c58.6-8,79.3-11.7,120.2-21.4c31.3-7.4,33.4-8.6,48.4-26.5c8.6-10.3,23-26.8,31.9-36.7C1249,1394,1254.4,1385.9,1252.1,1385.9z"/>
	<path class="st0" d="M1899.8,751.3c0-0.1,0-0.2,0.1-0.3C1899.9,751.1,1899.8,751.2,1899.8,751.3z"/>
	<path class="st0" d="M867.6,1334.9c-15.5,11.7-17.6,10.3-24.3-16.2c-1.8-7.3-3.3-12.4-5-15.9c0.2,1.4,0.3,3.1,0.3,5.1
		c0,13.8,9.3,37.1,14.8,37.1c2.2,0,10.7-4.2,18.9-9.4c5.5-3.5,10.9-6.1,14.4-7.1C881.7,1326.5,875.8,1328.8,867.6,1334.9z"/>
	<path class="st0" d="M1821,708.9c-0.3-4.2,0.2-8.9,1.8-13.8c-1.5,4.7-2.2,8.8-1.9,13C1820.9,708.4,1821,708.6,1821,708.9z"/>
	<path class="st0" d="M1821.7,713c0.2,1,0.5,1.9,0.9,2.8C1822.2,715,1821.9,714,1821.7,713z"/>
	<path class="st0" d="M1828.5,724c-0.5-0.3-0.9-0.7-1.3-1.1C1827.7,723.3,1828.1,723.7,1828.5,724z"/>
	<path class="st0" d="M1823.7,718.3c0.5,0.9,1,1.7,1.6,2.4C1824.7,720,1824.2,719.2,1823.7,718.3z"/>
	<path class="st0" d="M1844.8,704.6c1.6,0.7,2.2,0.8,3.3,0.2l0,0c2.1-1,3.1-6.7,2-11.4c-1.7-7.1-6.2-7.2-8.9-0.2
		c-0.9,2.5-1,6.4-0.2,8C1841.9,702.7,1843.2,703.9,1844.8,704.6z M1847.3,688.6c4.4,2.7,4.3,16.5-0.2,16.5c-1.9,0-4.4-1.5-5.6-3.4
		l0,0C1838.6,696.9,1843.3,686.1,1847.3,688.6z"/>
	<path class="st0" d="M1936.9,748.7c-0.1-0.1-0.2-0.2-0.3-0.4C1936.6,748.4,1936.8,748.6,1936.9,748.7z"/>
	<path class="st0" d="M1900.5,750.5c-0.1,0-0.1,0.1-0.2,0.2c1-0.5,3.3-0.2,6.8,0.7C1903.3,750.4,1901.5,750.2,1900.5,750.5z"/>
	<path class="st0" d="M1939,750.3c-0.3-0.1-0.5-0.3-0.7-0.4C1938.5,750,1938.7,750.1,1939,750.3z"/>
	<path class="st0" d="M1946,744.2c1.2,0.2,2.4,0.5,3.5,0.9c-1.2-0.4-2.5-0.8-4-1.1c-4.3-0.7-8,0-9.2,1.6
		C1937.6,744,1941.6,743.3,1946,744.2z"/>
	<path class="st0" d="M1942.3,751.7c-0.7-0.2-1.3-0.4-1.8-0.6C1941.1,751.2,1941.7,751.5,1942.3,751.7z"/>
	<path class="st0" d="M1878.3,720.4c0.4,0.1,0.9,0.3,1.3,0.4c8.6,2.1,14.1,2.7,29.9,3.1c5.2,0.1,8.5,0.3,9.5,0.5
		c9.1,1.7,23.3,7.2,40,15.4c27.4,13.5,49.3,28.1,54.8,36.7c0.9,1.4,1.6,3.2,1.5,4c-0.1,0.5-0.1,0.5-1.8,0.6
		c-4.7,0.2-21.3-3.8-48.5-11.6c-18.5-5.3-23.5-6.9-42.3-13.1c-4.1-1.4-7.4-2.4-10.1-3.3c8.9,2.8,21.9,7.5,37.8,12.2
		c29.9,8.8,64.9,18.5,65,15.5c0.7-14.4-79.4-56.4-100.2-56.8C1899.5,723.6,1890.4,723.6,1878.3,720.4z"/>
	<path class="st0" d="M1936,746.6c0,0.1-0.1,0.1-0.1,0.2c0,0.1,0.1,0.1,0.1,0.2C1936,746.9,1936,746.7,1936,746.6z"/>
	<path class="st0" d="M1943.1,751.9c0.5,0.1,1,0.3,1.6,0.4c0.7,0.1,1.6,0.2,2.6,0.2c-0.9,0-1.8-0.1-2.7-0.3
		C1944.1,752.1,1943.6,752,1943.1,751.9z"/>
	<path class="st0" d="M1952.2,752.1L1952.2,752.1c1-0.3,1.6-0.8,2-1.3c-0.7,0.8-2,1.4-3.8,1.6
		C1951.1,752.3,1951.8,752.2,1952.2,752.1z"/>
	<path class="st0" d="M1949.8,745.2c0.5,0.2,1,0.4,1.4,0.6C1950.7,745.6,1950.2,745.4,1949.8,745.2z"/>
	<path class="st0" d="M1936,746.3c0.1-0.2,0.1-0.4,0.3-0.6C1936.2,745.9,1936.1,746.1,1936,746.3z"/>
	<path class="st0" d="M1952.5,746.5c0.2,0.1,0.3,0.3,0.5,0.4C1952.8,746.8,1952.6,746.7,1952.5,746.5z"/>
	<path class="st0" d="M1953.8,747.6c0.1,0.1,0.2,0.2,0.3,0.3C1953.9,747.9,1953.9,747.8,1953.8,747.6z"/>
	<path class="st0" d="M1954.6,749.9c0,0.2-0.1,0.4-0.2,0.6C1954.5,750.3,1954.6,750.1,1954.6,749.9z"/>
	<path class="st0" d="M1954.6,748.9c0,0.1,0,0.3,0.1,0.4C1954.6,749.2,1954.6,749.1,1954.6,748.9z"/>
	<path class="st0" d="M732.4,2340.6c3.5,7.7,16.2,21.9,22.5,25.2c2.5,1.3,10.4,2.5,21.3,3.2c46.5,3.2,95.9,21.6,117,43.7
		c4.8,5,5,5.5,2,4.6c-4.5-1.3-10.7-5.1-22.3-13.6c-17.4-12.8-24.7-15.4-46.8-16.9l-12.6-0.8l20,10.5c24.1,12.6,30.9,17.1,40.6,27
		c7.8,7.9,17.1,24.2,17.1,29.9c0,4.2-1.4,4-6.1-1l0,0c-17.9-18.8-107.4-58.7-138.7-61.8c-17.2-1.7-29.1-8.8-61.7-36.8
		c-21.6-18.6-32.6-22.8-59.3-22.8c-11.8,0-19.6,0.7-27,2.5c-10.8,2.6-13.1,2.3-16.1-2.4c-1-1.6-1-2.9,0-4.6
		c2.4-3.9,17.4-10.6,33.6-14.9c8.5-2.3,19.9-5.3,25.4-6.8c22-5.9,42.5-19,53.9-34.6c6.1-8.3,16.6-31.1,38.9-84.3
		c1.2-2.9,2.5-5.9,3.7-8.9H737c-3.5,8.3-6.9,16.4-9.8,23.6c-10.4,25.6-22.7,53.1-27.3,61.2c-13.3,23.5-35.5,37.9-69.8,45.3
		c-35.6,7.6-54.7,17.7-48.3,25.4c3.2,3.8,7.3,4.3,16.1,1.7c17.5-5,45.7-4.1,60.2,1.9c7,2.9,19.9,11.9,28.7,20
		c23.3,21.4,43.7,34.2,54.2,34.2c27.2,0,127,42.9,142.1,61.2c7.6,9.1,11.5,6.8,7.3-4.4l0,0c-7.6-20-22.3-34.3-49.1-47.6l-26.9-13.4
		l19.4,1.5c15.9,1.3,23.1,4.4,40.1,17.5c21.3,16.4,34.5,18,14.8,1.8c-26.1-21.5-77.7-38.7-116.5-38.9c-13.3-0.1-18.4-2.3-28.4-12.3
		c-26-26-24.4-80.5,4.5-159.9c4.9-13.4,20.3-47.3,39.5-87.4v-1.3c-11.3,23.4-21.5,45.2-29.2,62.7
		C726.9,2241.7,716.9,2306.3,732.4,2340.6z"/>
	<path class="st0" d="M1254.6,1686.4c-5.2-69.8-6.2-82-8.1-96.3c-3-23.3-6.7-37.3-15.5-59.4c-4.4-11.1-7.7-21-7.3-22.1
		c0.9-2.3,42-36.8,43.8-36.8c0.7,0,1,1.6,0.5,3.7c-3.5,16-4.7,27-4.6,48.9c0.2-20.1,2-36.8,5.5-49.1c2.2-7.8-0.9-6.2-21.3,11.1
		c-13.1,11.2-24.6,20.7-25.4,21.2s2.8,10.6,8.1,22.4c12.5,28.1,16.7,52.8,21.4,125.3c5.9,91.6,13.6,149.5,28.8,193
		c0.3,0,0.6,0,0.9,0C1268,1809.9,1260.1,1759.9,1254.6,1686.4z"/>
	<path class="st0" d="M1332.2,1823.8c12.8,15.7,21.7,27.3,28.2,37.1c0.5,0.2,1,0.4,1.5,0.6c-7.2-11.2-17.5-24.1-32.4-42
		c-22.1-26.5-31.8-53.9-48-135.5c-9.3-47-15.1-90.5-17.2-126.9c2.3,47.9,9.9,99.5,24.2,162.7
		C1300.8,1774.5,1310.1,1796.6,1332.2,1823.8z"/>
	<path class="st0" d="M1588.9,2338c2.5-1.7,6.6-2.6,15-2.9c-10.1,0.2-11.9,0.8-14.3,2.4C1589.3,2337.7,1589.1,2337.8,1588.9,2338z"
		/>
	<path class="st0" d="M1591.4,2266.5c7.5,14.2,10.6,18,16.8,20.6c7.5,3.2,12.4,4.4,33.4,4.8c-10.7-0.4-18.8-1.2-23.9-2.5
		c-15.2-3.8-17.5-5.9-25.2-23.3c-4.7-10.5-32.6-49.2-62.1-86c-26.5-33-47.2-60.3-64.8-85.7v1c16.2,23.2,36.4,49.8,65.4,86.6
		C1564.2,2224.4,1583,2250.7,1591.4,2266.5z"/>
	<path class="st0" d="M1378.1,1909.2c4.2,30.9,5.1,35.2,9,45.9c2.8,7.8,11.3,25.5,20.7,44v-1.1c-0.7-1.3-1.4-2.6-2.1-4
		c-19.2-37.7-23.1-48.9-25.2-71c-2-21.8-4.5-35.4-12-50.1v1.9C1373.9,1885.7,1376.3,1895.6,1378.1,1909.2z"/>
	<path class="st0" d="M1772.2,2341.5c3.9,4.1,4.2,4.7,2,5.5c-1.3,0.5-9.3-0.2-17.8-1.4c-8.5-1.3-20.8-3.2-27.4-4.1
		c-23.2-3.5-65.5-6.2-100.4-6.4c-0.5,0-0.9,0-1.4,0c6.4,0.1,13.7,0.3,22.4,0.6c31.8,1,72.7,4.6,90.9,8c18.2,3.4,33.9,5.3,35,4.2
		c4.7-4.7-12.7-16.6-33.8-22.9l-22.6-6.8c0.1,0.5,6.8,2.8,14.9,5.2C1752.1,2328.7,1766.3,2335.4,1772.2,2341.5z"/>
	<path class="st0" d="M1521.2,2254.4c3.1,19.2,7.4,39.4,9.5,45s3.4,10.6,2.8,11s-13,7.7-27.7,16.2c-31.7,18.3-49.6,32.7-49.6,40
		c0,2.9,1,5.3,2.2,5.3s21.7-7.7,45.6-17.2l0,0c38.4-15.2,44.7-16.7,54.8-13c15.6,5.6,22.1,5.2,28-1.9c0.5-0.6,1.1-1.1,1.7-1.6
		c-11.2,7.8-13.5,8-26.5,4c-14.7-4.6-14.9-4.6-67.1,15.4c-19.9,7.6-36.5,13.8-36.9,13.8s-0.8-1.8-0.8-4l0,0c0-8,16.3-20.9,56.5-44.4
		c11-6.4,20.2-11.9,20.4-12.1c0.3-0.2-1.1-6-3-12.8c-2-6.8-5.9-25.4-8.8-41.3c-9.1-49.6-12.4-57-52.8-118.3c-1.3-2-2.7-4.1-4.1-6.2
		v1.4c2.7,4.1,5.2,7.8,7.3,10.8C1508.1,2196.6,1514.1,2210,1521.2,2254.4z"/>
	<path class="st0" d="M1782.6,2306.1l12.4,7.5l-16.4,0.9c-9,0.5-26.1,1.3-38,1.8c-10.5,0.5-19.3,1.2-21.2,1.6l38.2-1.8l39.1-1.9
		l-13-8.4c-23.8-15.3-35.2-17.1-94.1-14.5c-12.7,0.6-23.9,0.8-33.6,0.8c8.9,0.1,19.7,0.1,33.1,0.1
		C1762.6,2292.4,1759.1,2291.8,1782.6,2306.1z"/>
	<path class="st0" d="M1337.8,1937.9c-9.5-10.8-20.6-23.9-24.6-29.2c-1.1-1.4-2-2.9-3.1-4.3c-0.4-0.1-0.8-0.1-1.2-0.2
		c6.8,9.7,14.5,19.1,23.2,28.4c13,14.1,23.7,26.3,23.7,27.2c0,1.7,24.6,41.4,52.1,84.7v-1.5c-25.3-39.8-47.2-74.9-50.6-81.6
		C1356.1,1959.3,1347.4,1948.7,1337.8,1937.9z"/>
	<path class="st0" d="M923.1,1851.8c0,9.8-3.3,22.9-7.6,30.9c-2,3.6-8.4,11.4-14.3,17.4c-5.9,6-12.9,14.2-15.7,18.4
		c-2.9,4.3-7.1,11.6-12.3,20.9c0.2-0.1,0.3-0.1,0.5-0.2c12.3-22,19-30.5,26.4-37.1c17.8-15.7,24-30.8,24.1-58.7
		c0-13.6,4.9-25.7,26.4-65.1c36.2-66.6,68.1-114.5,105.2-154.7c-37.3,40-67.4,84.1-105.6,154C928,1818.6,923.1,1831.8,923.1,1851.8z
		"/>
	<path class="st0" d="M1065.7,1613.5c-3.1,3.2-6.2,6.4-9.2,9.6C1059.5,1619.8,1062.6,1616.6,1065.7,1613.5z"/>
	<path class="st0" d="M1053.4,1519c-1.4-6.6-2.4-12-2.3-12.1s19.9-4.2,44-9c55.3-11.2,92.6-20.3,114.3-28c9.3-3.3,18.1-5.7,19.4-5.2
		c11.8,3.7-21,36.5-75.2,75.1c-38.1,27.1-57.6,43.3-83.8,69.5c25.3-25.2,53.3-47.7,86.7-70.7c42.6-29.2,78.4-63.4,75.2-71.8
		c-1.8-4.7-5.6-4.2-24.8,3.6c-12.5,5-52.9,15.2-89.8,22.6l-67.2,13.5l3.1,13.3c1.5,6.3,2.6,18,2.8,27.8
		C1055.9,1537.5,1055.1,1526.9,1053.4,1519z"/>
	<path class="st0" d="M740.3,2169.5v2c7.9-18.6,15.8-37.1,19.4-45.2c11.4-25.7,19.4-46,28.3-71.5v-1.3
		c-5.7,17.6-17.1,46.6-25.7,65.5C756.7,2131.2,748.3,2150.5,740.3,2169.5z"/>
	<path class="st0" d="M1853.7,679.4c1.8,1.4,3.4,3.2,4.6,5.1c-1-1.6-2.2-3.2-3.1-4C1854.8,680.1,1854.2,679.8,1853.7,679.4z"/>
	<path class="st0" d="M865.3,1850.6c3.2-29.4,3.1-29.4,19.2-46c6.4-6.6,16.3-18.5,22.1-26.5c19-26.2,46.9-63.1,74.2-98.3
		c52.8-68.1,67.1-89.5,73.1-109.7c0.9-2.9,1.4-7.3,1.8-12.2c-2.4,23.7-18,48.2-75.6,121.7c-28.1,35.9-59.1,76.9-68.9,91.2
		c-9.8,14.3-23.6,31.1-30.7,37.4c-12.2,10.7-13,13-15.8,43.4c-3.5,38.7-10.6,64.3-24.6,87.6h0.4
		C855.2,1913.7,860.7,1893.2,865.3,1850.6z"/>
	<path class="st0" d="M408.4,1776.3c-13.5,3.2-25.6,4.3-31.7,2.9l0,0c-9.3-2.2-11.7-7.7-7.9-17.6c2.3-5.8,2.4-7,1.3-8.2
		c-1.1-1.1-9.8-1-25.1,0.2c-6.8,0.5-13.2,1-14.2,1h-1.9v0.5l21.9-1.6c21.6-1.6,21.9-1.5,18.1,6.8c-10.4,22.7,14.1,26.3,63.2,9.2l0,0
		c12.5-4.4,19.9-6.9,24.3-7.8c-4.1,0.8-10.5,2.8-21,6.2C424.3,1771.7,412.1,1775.4,408.4,1776.3z"/>
	<polygon class="st0" points="1774.9,1939.3 1738.7,2038.5 1811.5,2038.5 	"/>
	<path class="st0" d="M659,1351.4c-8.2-0.7-9.8-1-9.5-1.9c0.8-2.1,23.5-38.9,30.6-49.6c10.6-16.1,17.3-25.1,27.4-37.2l8.9-10.6
		l7.4,0.2c25.7,0.7,52.2,1.8,52.6,2.2c0.2,0.2,1,7.6,1.7,16.3c0.7,8.7,2.1,24.9,3.1,36l1.8,20.2l12.6-0.4
		c13.7-0.4,19.4-1.4,25.7-4.2c2.8-1.3,4.1-1.5,4.6-1c0.4,0.4,1,3.4,1.3,6.6s1,7.1,1.5,8.6c3.4,9.6,10.8,18.7,18,22.2
		c10.5,5.2,18.5,3.9,29.4-4.6c4.2-3.3,6.4-4.7,7.6-4.7c0.4,0,1.6,1.8,2.7,3.9c3.9,7.7,17.4,22.7,25.4,28.2c0.6,0.4,1.2,0.6,1.8,0.9
		c-8.9-5.7-24.9-23.1-27.6-30.6c-1.4-4-3.1-3.9-8.8,0.9c-11.4,9.6-19.9,11.1-30.8,5.5c-10.7-5.5-19.1-19.7-19.1-32.2
		c0-6.2-1.2-6.8-7.2-3.5c-4,2.1-13.9,3.9-22,3.9h-14.8l-2.2-23.3c-1.2-12.8-2.6-29.1-3.1-36.3l-0.9-13l-30.4-1.1l-30.4-1.1
		l-14.3,16.9c-7.8,9.3-23.2,31.6-34.1,49.4l-19.8,32.5l11.3,1.2l10.5,1.1c0-0.1,0-0.1-0.1-0.2C669.4,1352.4,664.4,1351.9,659,1351.4
		z"/>
	<path class="st0" d="M773.8,1538.9c-5.6,6-10.6,12.3-22.2,27.8c-15.8,21.1-24.5,31.5-25.6,30.4c-1-1-1.7-10.1-2.2-31.7
		c-0.8-28.3-1.1-30.9-4.2-30.4c-2.7,0.4-7.3,7.8-22.8,36.7c-17.2,32.2-33.3,56.5-40.9,61.8c-2.7,1.9-3.5,2-4.5,0.8l0,0
		c-0.4-0.5-1.1-2.5-1.5-4.5c-0.8-3.6-0.7-9.4,0.5-42.5c0.4-11.8,0.4-12.3-0.8-11.3c-0.7,0.5-6.4,7.9-12.7,16.3s-12.1,15.8-12.8,16.5
		c-2.2,2-3.6,1.1-5.4-3.2c-1.6-3.8-1.7-4.6-1.6-17.3c0-12.3,0.2-14,2.1-23.3c3.9-18.6,13.6-50,21.5-70.1c1.8-4.6,6.1-13.7,9.6-20.4
		c3.4-6.6,6.3-12.4,6.3-12.8c0-0.5-0.4-0.7-1.1-0.7c0.5,0.1,0.8,0.3,0.8,0.8c0,1-3.3,7.3-7.2,14c-10.6,18.1-29.4,76.6-32,99.9
		c-1.3,11.1-0.8,24.3,1.1,29.1c3.3,8.6,3.8,8.3,17.4-10.2c7.7-10.5,14.3-19.1,14.7-19.1s0.1,11.7-0.7,26
		c-2.1,37.9,0.5,41.6,15.8,22.2c7-8.8,20.2-30.3,29.5-47.9l0,0c27.7-52.4,28.2-52.6,28.3-12.4c0.1,18.9,1.4,34.4,3.1,34.4
		c1.6,0,13.3-14.2,26-31.6c11.9-16.3,23.1-29.7,26.2-31.3C777.3,1535.4,775.9,1536.7,773.8,1538.9z"/>
	<path class="st0" d="M1247.9,1263.2c-33.6,22.8-72.2,39.8-102.6,45.8c38.8-4.8,79.9-25.1,120.5-59.3
		C1259.6,1254.7,1253.6,1259.3,1247.9,1263.2z"/>
	<path class="st0" d="M932.3,1382.2c2.2-1,4.4-1.6,4.9-1.4c1.1,0.4,1.8,3.9,1.8,9.1c0,4.6,2.4,9.9,5.4,12c1.4,1,3.6,1.6,6,1.8
		c-6.7-0.7-11.2-6-11.2-14.5c0-10-0.7-10.6-7.6-7c-3.1,1.7-7.6,2.5-11.3,2.4C923.8,1385,927.7,1384.3,932.3,1382.2z"/>
	<path class="st0" d="M779.8,1535.2c0.9,1,1.6,3.7,2.2,7.4c-0.2-2.3-0.4-3.9-0.6-4.5C780.9,1536.6,780.4,1535.7,779.8,1535.2z"/>
	<path class="st0" d="M958.6,1402.5c-2.2,0.8-4.2,1.2-6.1,1.2c1.7,0,3.3-0.2,4.8-0.6c5.4-1.5,5.4,0.1-0.1,22.3
		c-13,53.1-36.9,110-52.9,126c-2.8,2.8-7.1,5.2-9.2,5.2c-3.1,0-4.2-5.8-5.3-27.2c-0.4-7.5-0.8-13.7-0.9-13.8
		c-0.1-0.1-6.4,6.7-13.9,15.2c-13.5,15.2-25.4,27.4-28.3,29c-1.4,0.7-1.6,0.6-2.6-1.7c-0.9-2-1.1-4.6-1.1-11.8
		c0-10.7,0.8-16.1,3.6-25.1c1.7-5.6,2-8.4,0.9-8.4c-2.4,0-9.6,7.2-24.8,24.9c-13.3,15.5-28.8,31.2-33.6,34.2c-3.6,2.2-3.8,2.2-4.7,1
		c-0.5-0.7-0.9-2.3-1-3.6c-0.1-4.9-0.3-11-0.7-16.5c0,0.9,0.1,1.9,0.1,2.9c0,20.8,0,20.9,8.4,15.4c4.6-3,18.1-17,30-31.1
		c24-28.5,30.6-33.3,24.9-18.3c-4.7,12.3-4.9,39.1-0.4,39.1c1.9,0,12.3-10.1,23.3-22.5l19.9-22.5l0.9,19.4
		c1.1,22.2,2.6,24.9,11.1,19.6c14.8-9.3,40.3-66,54.8-121.7C962.8,1405.7,963.3,1400.7,958.6,1402.5z"/>
	<path class="st0" d="M604,1499.4c-20.8,19.1-23.6,19.7-19.6,4.1c7.7-29.4,24.8-66.5,44.7-96.9c8-12.2,15-21.4,30-39.2
		c5.6-6.7,8.6-10.4,10-12.5l-20.2,24c-23.9,28.4-47.2,70.3-59.3,106.4c-12.3,36.7-10.4,37.9,18.2,10.9c18.3-17.3,38.8-32.6,45.9-35
		c-1.6,0.5-3.8,1.4-6.2,2.9C637.3,1470.4,623.3,1481.6,604,1499.4z"/>
	<path class="st0" d="M457.9,1761.5c-0.3,0-0.6,0.1-0.9,0.2C457.3,1761.6,457.6,1761.6,457.9,1761.5z"/>
	<path class="st0" d="M333.7,1716.9c6.3-19.6,15.9-38.5,28.4-56.1c2.8-4,5-7.3,5.2-7.9l-7.9,11.1c-15.8,22.2-30.5,58.2-30.5,74.9
		v14.2l0.3-9.9C329.6,1731.2,330.2,1727.9,333.7,1716.9z"/>
	<path class="st0" d="M1523,1991.2c6.2-2.2,11.5-5.3,15.9-9.2c4.2-3.9,7.6-8.7,10.1-14.4c2.5-5.8,3.7-12.6,3.7-20
		c0-12.8-3.9-22.4-11.9-29.2c-8.4-7.3-21.1-11-38-11h-37.3v87.2h36.9C1509.8,1994.6,1516.8,1993.4,1523,1991.2z"/>
	<path class="st0" d="M1210.8,1206.6c-0.1,18.7-43.7,67.1-83,92.1l-20.6,13.1l6.2-0.4h-5l18.3-9.4c37.8-19.4,74.3-58,85.9-91
		c3.1-8.7,5.1-16.3,4.5-16.9s-20.3,11.6-43.8,27c-52.3,34.4-77.4,47.3-106.8,55c-9.1,2.3-21.8,4.3-35.8,5.8
		c51-3.6,69.9-12.8,130.9-50.8C1188.7,1214.1,1210.8,1203.1,1210.8,1206.6z"/>
	<path class="st0" d="M779.7,1535.1c-0.1,0-0.1-0.1-0.2-0.1C779.6,1535.1,779.6,1535.1,779.7,1535.1z"/>
	<path class="st0" d="M654.1,1461.2c-0.1,0-0.2,0-0.4,0.1C653.9,1461.2,654,1461.2,654.1,1461.2z"/>
	<path class="st0" d="M626.5,1509c0-0.8-11.5,9.6-25.6,23.3c-14.1,13.6-26.9,24.8-28.4,24.8c-5.7,0,1.9-51.3,11.5-78.1
		c5.5-15.3,20-47.8,32.2-72.1c14.2-28.5,20-43.4,16.3-42c-13,5-1.7-18.9,29.4-62.1c11.6-16.1,20.2-30.1,19.1-31.1
		c-3.9-3.9-35,14.5-62.5,37c-47.4,38.8-135.8,121.1-158.7,147.6c-47.1,54.7-105.2,149.9-117.6,192.7c-2.2,7.6-1.4,8,11.5,5.9
		l13.8-2.2c-0.3-0.1-5,0.5-10.7,1.4c-5.8,0.9-11.4,1.6-12.6,1.5c-1.8-0.2-2.1-0.5-2.3-2.2c-0.2-2.5,3.5-13.8,8-24.2
		c21.1-48.6,68.5-123.3,108-170.1c22.9-27.1,117.7-115.4,163.2-152c22.5-18.1,50.5-35.3,57.4-35.3c1.3,0,2,0.3,2,0.9
		c0,1.6-8.5,15-19.2,30.3c-22.7,32.4-32.9,49.7-34.3,58.3c-0.6,3.5,0.9,5.1,4.1,4.5c1.3-0.2,2.3-0.2,2.3,0.2
		c0,3.5-5.6,16.5-19.8,45.7c-18.7,38.6-29.3,63.6-33.7,79.8c-4.9,17.9-8.8,40-9.4,53.7c-0.4,8.8,0.1,12.3,1.9,12.3
		c1.8,0,12.3-9.2,34.3-30.2c11.7-11.1,18.6-17.3,19-16.9c0.2,0.2-1.6,7.6-4,16.5c-8.4,32-11.5,52.7-14,94l-1.2,19.3l-15.3,16.9
		c-45.8,50.7-75.9,80.1-102.4,100.1c-6.9,5.2-20.1,13.9-22.1,14.5c-2.4,0.7-3.5-0.7-3.5-4.4c0-3.1-0.2-4.9-2.1-5.5
		c1.5,0.5,1.7,2,1.7,4.2c0,9.2,1.5,8.9,19.8-3.8c23.6-16.3,58.5-49.1,93.1-87.4l31.1-34.4l2.3-36.9c1.3-20.3,5.7-49.5,9.8-64.8
		C623,1523.1,626.4,1509.9,626.5,1509z"/>
	<path class="st0" d="M1241.9,1424.8l-8.2,0.8c3.1,3,17.3,0,37.2-8.1c8.8-3.6,16.6-6.7,20.9-8.2c-3.9,1-11.2,3.4-19.3,6.5
		C1260.8,1420.3,1247,1424.3,1241.9,1424.8z"/>
	<path class="st0" d="M1612.2,1420.6c-16.3,26.9-32.2,51.9-35.3,55.4l-5.1,5.9c1.4,0,4-2.3,7.9-7.2c3.9-4.9,26.5-41.5,50.3-81.4l0,0
		c43.6-73.1,74.9-120.3,78-117.8C1703.7,1272.4,1681.4,1306.6,1612.2,1420.6z"/>
	<path class="st0" d="M1554.7,1324.4c-16,12.3-35,26.4-42.3,31.3c-14.5,9.8-42.5,25.2-49.7,27.3c-4.4,1.3-4.3,1,1.9-6.8
		c3.5-4.5,17.2-20.8,30.3-36.3c26.6-31.4,32.2-39.8,28-42.3c-5.1-3.2-33.2,9.1-67.4,29.5c-9.6,5.7-17.9,9.9-18.5,9.3
		c-1.7-1.7,3.8-10.8,23.7-39.1c10.5-14.9,21.8-31.8,25.2-37.6c5.7-9.7,10.9-22.4,10.2-24.8l-3.4,9.6c-3.4,9.7-16.7,30.1-47.1,72.4
		c-15.6,21.6-14,27.2,4.1,14.9c22.5-15.3,65.2-35.9,71.6-34.6c6.9,1.4,1.2,9.4-40.1,57.1c-13.8,16-24.4,29.7-23.5,30.6
		c2.3,2.3,36.5-15.3,56.2-28.9c9.1-6.3,32.5-23.8,52-39.1c19.5-15.2,28.9-23.1,30.9-21.5C1595.5,1293.1,1592.1,1295.6,1554.7,1324.4
		z"/>
	<path class="st0" d="M1597.2,1296.9c0,0.4-0.1,0.8-0.2,1.4C1597.1,1297.7,1597.2,1297.3,1597.2,1296.9z"/>
	<path class="st0" d="M1462.7,1252.3c-1.5,0,13.5-16.3,33.4-36.2s36.1-37.4,36.1-38.8c0-4-14.3-1.2-42.8,8.4
		c-13.9,4.6-25.8,8.5-26.3,8.5c-4.2,0,28.5-27.6,74.8-63c50.4-38.6,58.6-47.1,39.9-41.1c-22.7,7.2-68.8,14.2-73.7,11.1
		c-2.4-1.5,4.6-7,36.9-29c12.6-8.6,24.4-17.2,26.3-19.3c3.3-3.6,3.3-3.8-0.2-6.4c-2.3-1.7-5.9-2.5-10.7-2.5
		c4.5,0.1,8.1,1.2,11.2,3.1c3.9,2.4-4.1,9.4-30.7,26.8c-19.7,12.9-35.9,24.8-35.9,26.4c0,6.3,55.4-1,80-10.4
		c14.8-5.7-2.7,10.1-52.1,47.1c-42.9,32.1-74.1,59.3-68.1,59.3c1.2,0,12.8-4,25.8-8.8s29.7-9.7,37-10.8c13-2,12.3-1-27,37.3
		c-22.2,21.6-39.5,40.2-38.5,41.2s10.1-3.3,20.2-9.6l17.6-10.9c-1.6,0.5-8,4-15.3,8.5C1472.2,1248.1,1464.2,1252.3,1462.7,1252.3z"
		/>
	<path class="st0" d="M1596.8,1295.5c0.2,0.2,0.3,0.5,0.3,0.9c0,0,0-0.1,0-0.2C1597,1296,1596.9,1295.7,1596.8,1295.5z"/>
	<path class="st0" d="M1588.8,1320.3c4-9,7.1-17.5,8.1-21.6c-1.3,4.9-6.3,15.5-14,32.5c-5.8,12.9-7.8,19.9-6,21.1l1.2-5
		C1578.8,1344.2,1583.7,1332,1588.8,1320.3z"/>
	<path class="st0" d="M1583.1,1447.8c19.4-44.2,24.6-57.8,29.8-78c6.1-23.5,12.5-57.1,12.8-65.8c-0.8,6.3-4,23.4-8.1,43
		c-7.1,34.1-14.1,54.5-29.5,86.8c-13.8,28.9-19.8,46.9-16.7,48.2l1-5.9C1573.1,1472.4,1577.9,1459.7,1583.1,1447.8z"/>
	<path class="st0" d="M1623.7,1301.4c-3.7,5-39.4,44.9-42.7,47.8l-3.7,3.3c2.7,0.5,10.7-7.3,24-23.4c11.4-13.9,21.4-25.2,24-27.3
		C1624.6,1301.2,1623.9,1301,1623.7,1301.4z"/>
	<path class="st0" d="M1512.5,1112.3c13.9-1.6,28.9-2.7,33.3-2.3l7.2,0.5c0-0.1,0-0.1,0-0.1c0-2.6-5.1-3.3-14-2
		c-7.7,1.1-25.6,3.2-39.7,4.6l-22.3,2.1C1481.9,1115.4,1493.2,1114.5,1512.5,1112.3z"/>
	<path class="st0" d="M1435.5,1205.6c2.1,3.4,21.9,0.7,42.2-5.7c9.8-3.1,18.7-5.7,19.7-5.7c2.9-0.1-48.7,51.1-66.7,66.2
		c-10.9,9.2-16.8,13.9-18.6,16.2l10-7.4c17.5-12.9,82.8-76.8,78.5-76.8c-2,0-13.9,3.4-26.4,7.6s-27.1,7.1-32.4,6.3
		c-9.4-1.3-8.8-2.2,14.4-25c22-21.6,85.4-67.1,93.4-67.1c1.6,0,2.9-1.5,3.2-3.4l-9.4,4.9C1508.3,1134.2,1431.1,1198.4,1435.5,1205.6
		z"/>
	<path class="st0" d="M1728.2,724.1c0.4,3,1.3,6.5,2.5,10.3C1729.6,730.6,1728.8,727.2,1728.2,724.1z"/>
	<path class="st0" d="M1354.1,1125.9c-8.4,23-23.9,44.9-51.1,72.1c-24.7,24.8-46.2,41.9-71.5,56.9c-22.5,13.4-65.9,35.6-67.1,34.4
		c-0.6-0.6,5.4-8,13.3-16.4c20.8-22.1,30.5-35.4,38.7-53c13.3-28.6,22.1-57.8,17.4-57.7c-0.8,0-9.4,6.4-19.3,14.2
		c-53.7,42.5-112.9,72.3-163.5,82.4c-24.6,4.9-73.1,11.3-77.9,10.2c-2-0.4,0.2-4.5,7.5-14.2c6-7.9,9.1-12.6,9.8-15
		c-1.6,2.4-5.7,8-10.5,14.1c-6.2,7.8-10.7,14.6-10.1,15.2c3.3,3.3,80.4-7.2,102-13.8c49.6-15.3,102.6-44.2,143.7-78.5
		c9.8-8.2,18.5-14.3,19.2-13.6c2.9,3-16,54.5-25.7,70.2c-5.7,9.2-19.8,26.4-31.2,38.1c-11.5,11.8-19.6,21.4-18.1,21.4
		c5.7,0,64.8-31.3,86.3-45.7c54.3-36.4,99.3-86.9,110.2-123.6c2.1-7.2,4.6-13.4,6.3-15.7C1360.3,1110.3,1357.6,1116.3,1354.1,1125.9
		z"/>
	<path class="st0" d="M1760,787.6c3.3,4.6,5.8,7.9,7.6,10.7C1765.8,795.2,1763.3,791.7,1760,787.6z"/>
	<path class="st0" d="M1417.6,1203.5c18.6-21.4,21.4-27.7,11.2-25.6l-5.7,1.1l3.6-7c2-3.9,8.3-12.8,14.1-19.8
		c5.8-7.1,10.5-13.6,10.5-14.6c0-5-10.1,1.3-26.6,16.6l-8.7,8.1l-5.1-22.1l-5.1-22.1l-14.7,29.4c-8.1,16.2-15.5,29.9-16.4,30.4
		c-0.9,0.6-2.5-13.7-3.6-31.6c-1.7-28-3.6-40.4-7.2-39.3c3.8,0.9,6.8,22,6.8,48.7c0,14.1,1.3,25.5,2.8,25.4s9.3-13.9,17.4-30.7
		l14.6-30.5l5.2,22.6l5.2,22.6l14.3-14.3c17.3-17.3,28.8-19.3,12.6-2.2c-10.4,11-19.8,25.4-19.8,30.3c0,1.1,2.5,1,5.6-0.2
		c10.7-4.1,5.5,5.8-14.4,27.3c-11,11.9-25.3,32.1-31.7,45c-5.5,10.9-10.9,19.9-17.7,28.6c6.3-7.8,11.4-15.5,16.1-23.8
		C1392.9,1234.3,1401.7,1221.8,1417.6,1203.5z"/>
	<path class="st0" d="M1421.6,1278.2c10-0.7,16.5-2.8,32.7-10.6c11.1-5.3,20.5-9.6,21-9.6c1.8,0-23.2,34.7-45.4,63
		c-13,16.5-25.3,33.5-27.3,37.7c-4.9,9.8-9.5,14.2-35.7,32.8c-30.4,21.7-74.1,47.3-88.2,51.6c-3.7,1.1-4.3,0.8-3.3-1.6l0,0
		c0.6-1.7,5.5-9.4,10.8-17.3c4.8-7.2,8.4-13.5,8.6-14.9c-1.2,2.4-5.9,9.4-11.8,17.6c-7.4,10.2-11.5,18.6-9.2,18.6
		c7.2,0,49.3-22.6,76.5-41c33.8-22.9,56.1-40.8,50.7-40.8c-2.3,0,7.6-14.4,22-32.1c25.8-31.5,57.5-75.8,54.3-75.8
		c-0.9,0-11.2,5-22.8,11.2c-11.7,6.1-26.4,11.2-32.7,11.2h-10.2C1411.8,1279.2,1415.4,1278.6,1421.6,1278.2z"/>
	<path class="st0" d="M1257.4,1396.7c15.8-17.1,22.9-25.8,22.9-27.9c0-0.9-1.6-2.1-3.7-2.8c-2-0.6-3.2-2.3-2.7-3.7
		c0.5-1.4,15.2-14,32.5-28c18.3-14.8,32.1-26.9,43.1-38c-10.7,10.6-24.7,22.3-44.6,38c-33.2,26.2-38,31.2-30.6,32.2
		c8.1,1,6.8,3.3-16.2,27.9c-13.8,14.7-25.1,28.1-25.1,29.6c0,0.3,0.2,0.5,0.3,0.8l5.3-6.7C1242,1413.9,1250.5,1404.3,1257.4,1396.7z
		"/>
	<path class="st0" d="M1578.8,1000.8c0,0.1,0,0.1,0,0.2v-0.1C1578.8,1000.9,1578.8,1000.9,1578.8,1000.8z"/>
	<path class="st0" d="M1480.4,1057c-6.4,2.1-15.9,13-15.9,18.3c0,3,1.9,2.6,38.2-8.2c15.3-4.5,29.2-8.3,30.7-8.3
		c1.6,0-1.7,3-7.2,6.8c-16.1,10.8-35,26.9-44,37.4c-4.6,5.4-8.3,10.3-8.3,11c0,0.2,0.2,0.3,0.4,0.4l8.4-10.7
		c8.9-11.4,43.3-39.1,52.6-42.5c2.6-0.9,3.9-2.6,2.9-3.8c-1-1.1-16.9,2.8-35.3,8.7c-18.4,5.9-34.9,10.4-36.5,9.8
		c-1.7-0.5,0.4-5.4,4.7-10.9c6.5-8.3,9.9-9.6,20.3-7.9c8.1,1.3,20.1-0.8,33.5-5.8c10.3-3.8,18.2-6.1,24.7-7
		c-6.7,0.9-14.9,2.8-24.9,5.9c-20.3,6.4-37.6,8.5-37.6,4.7c0-1,1.2-1.9,2.6-1.9s7.2-2.1,12.7-4.7s14.9-5.7,20.9-7
		c3.1-0.6,5.4-1.3,7.1-1.9c-1.2,0.2-2.6,0.3-4.5,0.3c-4.7,0-15,3.3-23,7.4s-15.3,6.6-16.2,5.6c-0.1-0.1-0.1-0.3,0-0.4
		c0,0.1-0.1,0.1-0.1,0.2C1486.8,1053.8,1484,1055.8,1480.4,1057z"/>
	<path class="st0" d="M1530.3,1031.5c-2.1-1.9-3.8-4-3.8-4.8s9.3-4.6,20.6-8.4c19.5-6.7,28.5-10.9,30.9-14.6
		c-4.5,4.1-24.4,12.4-47.2,19.5c-8.2,2.5-8.5,3.2-2.8,7.4c2.9,2.2,4.7,3.9,5.5,5.3C1533.3,1034.7,1532.2,1033.3,1530.3,1031.5z"/>
	<path class="st0" d="M1510.9,987.2c-13.6-0.1-30.3-0.8-37-1.5c-11.9-1.3-12.1-1.3-6.6-3.7c11.8-5,33.1-8.1,61.4-9.1
		c12.5-0.4,23.8-1.3,29-2c-4.1,0.6-11.6,0.6-22.5,0.5c-32.1,0-69.6,6.6-73.6,13.1c-1.2,1.9,18,3.3,44.8,3.3
		c42.7,0,68.7,4.6,72.2,12.5C1575.9,992.4,1551,987.5,1510.9,987.2z"/>
	<path class="st0" d="M1705.4,746.8c0.2-0.5,0.3-1,0.5-1.5C1705.7,745.7,1705.5,746.2,1705.4,746.8z"/>
	<path class="st0" d="M1020.9,948.2c-33.4,12.8-61.7,26.5-74.4,35.8c-11.3,8.2-46.4,32.4-78.2,53.7
		c-62.4,41.9-111.6,85.1-145.7,127.9c-22.5,28.3-53.7,77.9-50.8,80.9c0.9,0.9,14-0.9,29.2-4.1c32.6-6.8,132.4-7.7,174.8-1.6
		c35.7,5.1,92.2,5.3,105.2,0.3c4.2-1.6,7.8-2.7,9.3-2.8c-0.5-0.6-1.6-0.6-3.7,0.1c-2.3,0.7-7.2,2.1-10.8,2.9
		c-10.7,2.5-72.4,1.8-97.1-1.1c-55.2-6.5-139.5-5.4-184.8,2.5c-10.9,1.9-20,2.7-20.4,1.8c-2.3-5.7,39.7-67.2,66.8-97.9
		c38.5-43.6,77.2-73.8,208.2-162.6c18.4-12.5,45-24.4,105.2-47.3c78.3-29.7,88.8-32.2,199.2-48.4l82.4-12c-8.8,0.9-17.6,2-26.2,3.3
		c-28.6,4.3-77.2,11.2-107.9,15.4C1142.7,902.9,1125.1,908.1,1020.9,948.2z"/>
	<path class="st0" d="M1858.5,684.8c0.6,0.9,1,1.9,1.5,2.8c-0.1-0.2-0.2-0.5-0.2-0.7C1859.5,686.4,1859,685.6,1858.5,684.8z"/>
	<path class="st0" d="M76.4,771.8v1367.3l1184.1,683.7l1184.1-683.7V771.8L1260.5,88.2L76.4,771.8z M517.8,2001.5
		c-8.8,11.5-13,25.2-13,41.6v134H448V2038c0-46.5-20.3-52.4-37.9-52.4c-11.6,0-21,4.8-28.6,14.8c-8.3,10.6-12.4,25-12.4,42.7v134
		h-56.8v-237.7H369v15.1c15.3-13.4,34.2-20.1,56.6-20.1c17.1,0,32.3,4.9,45.2,14.7c7,5.2,12.8,11.3,17.4,18.4
		c17.4-21.9,40.9-33,70-33c37.5,0,82.2,17.2,82.2,98.9v143.9h-56.8v-134.9c0-26.7-5-39.4-9.2-45.4c-5.2-7.6-14.3-11.2-27.9-11.2
		C535.5,1985.7,526.1,1990.9,517.8,2001.5z M1088.7,2177.2H1032v-237.7h56.8v237.7H1088.7z M1084.5,1897.3
		c-6.3,6.3-14.5,9.7-23.7,9.7c-9,0-17.1-3.3-23.5-9.4c-6.5-6.3-9.9-14.6-9.9-24s3.4-17.7,9.9-24c6.3-6.3,14.5-9.7,23.5-9.7
		c9.2,0,17.5,3.4,23.9,9.8c6.4,6,10,14.4,10,23.9C1094.6,1882.7,1091.1,1890.9,1084.5,1897.3z M2151.1,1853.2h57.6v324h-60.5
		l-147.4-228.3v228.3h-57.6v-324h63.1l144.8,226.9c0-1.1,0-2.2,0-3.3V1853.2z M1547,895.3c71.2,29.9,98.4,45.5,132.5,75.9
		c33.4,29.7,56.5,45.3,68.8,46.5c19.7,1.9,29.1-0.8,39.7-11.4c9.9-9.9,11-12.9,8.7-25.1c-3.6-19.7-14.2-35.3-49.3-72.8
		c-42.2-45.2-61.3-83-61.5-122c-0.1-20.3,1.9-32.1,7.9-45.6c4.4-10,7.5-18.8,6.8-19.5s-14.1,3.1-29.7,8.3
		c-20.7,7-35.2,15.1-53.2,29.8c-41.6,34.1-50.7,35.4-34.5,4.9c5.4-10.1,8.8-18.3,7.7-18.3c-1.1,0-12.9,5.9-26.1,13.2
		s-24.9,12.3-26.1,11.1c-1.1-1.1,6.8-10.7,17.7-21.1l19.8-19.1l-14.5,2.9c-41.1,8.2-42.7,8.3-41.5,4.2c0.6-2.3,13.2-10,28-17.2
		c14.7-7.2,26.8-13.9,26.9-14.9c0-1-14.1-1.9-31.4-1.9c-48.5,0-48-8.1,1.4-22.9c8-2.4,0.9-7.1-22-14.5c-22.4-7.3-22.2-7.7,7.1-11.9
		l20.1-2.8l-21.2-14.1c-11.7-7.7-20.2-15.7-19-17.7s10.7-3.6,21-3.6h18.7l-18-16.4c-9.9-9-17.2-17.2-16.2-18.3c1-1,10.7-0.2,21.5,2
		c10.8,2.1,20.7,2.8,22,1.5s-2.6-8.7-8.7-16.3c-19.6-24.7-19.6-24.7,1.9-21.8c10.6,1.4,22.1,3.5,25.7,4.6s-1.9-5.8-12.1-15.3
		l-18.6-17.3l23,1.8c12.7,1,23.9,0.9,25-0.2c1.1-1.1-3.8-8.7-10.9-17s-12.2-15.7-11.4-16.5c0.8-0.8,16.3,3.5,34.4,9.6
		s33.2,10.8,33.6,10.5c0.3-0.3-5.4-10.2-12.7-22c-7.3-11.8-12.4-22.4-11.2-23.5c1.1-1.1,10.6,2.3,21,7.5c10.4,5.3,19,8.7,19,7.5
		c0-1.1-3.4-8.7-7.5-16.8c-4.1-8.1-5.9-14.7-3.9-14.7s14,9.2,26.7,20.5s23.6,19.9,24.4,19.2c0.7-0.7-1.2-8.6-4.3-17.4
		c-3.1-8.8-5.1-16.6-4.3-17.4c2.7-2.7,20.8,14.2,28.6,26.7c12.4,20,17.6,17,14.4-8.4c-1.5-11.8-2.8-25.4-3-30.2
		c-0.5-14,7.4-4.7,24,28.2l14.6,29l4.2-22.3l4.2-22.3l6.1,13.8c3.4,7.6,6.1,16.3,6.1,19.3c0,12.9,6.9,8.2,11.3-7.7
		c4.5-16,5.1-16.6,8.2-8.3c1.8,4.9,4.3,40.5,5.5,79.1c1.3,43.6,3.4,67.9,5.4,64.3c4.7-8.4,32.3-23.4,48.2-26.2
		c30-5.3,68.3,24.7,79.4,62.3c7.4,24.9,7,35.3-1.8,52.6c-4.1,8-7,14.8-6.5,15.3c0.5,0.4,11.8,7.1,25.1,14.8
		c33.9,19.6,49.5,32.5,57.7,47.8c8.6,15.9,6.2,19.2-10,13.9c-7.9-2.6-17.5-2.8-26.7-0.7c-7.9,1.8-38.9,2.4-68.8,1.3
		c-53-1.9-54.8-1.7-67.5,6.9c-7.5,5.1-14.9,14.4-17.5,21.8c-4.2,12.1-3.8,13.5,6.1,22.2c13.2,11.7,26.2,33,26.3,42.9
		c0,4.2,7.4,14.9,16.5,23.7c30.3,29.7,46.3,81.9,39,127.2c-3.9,24.2-18.5,63.6-38.2,102.9c-6.9,13.8-20.4,49.2-29.9,78.7
		c-9.6,29.5-18.6,55.9-20.1,58.6s-2.3-12.2-1.7-33.2c1.2-41.8,1.1-41.8-17.7,10c-6.6,18.3-16.8,43.4-22.5,55.8l-10.5,22.6l-0.3-37.2
		c-0.3-33.7-0.8-36.3-5.4-27.8c-8.1,14.9-16,50.6-20.3,92.2c-7.4,70.2-20.9,118.3-45.3,160.7c-7.2,12.5-7.4,12.6-5.2,2.3
		c5.7-27.2,9.1-93.8,6.8-132.6l-2.5-42.8l-16.3,50.2c-9,27.6-17.9,51.9-19.9,53.8c-4.7,4.8-0.6-54.9,6.2-88.9
		c4.6-23.1,4.6-32.4-0.1-27.8c-0.9,0.9-14.4,25.9-30.1,55.5c-33,62.3-52.9,91.6-78.7,115.7c-35.8,33.5-36.6,30.7-7.9-29.3
		c28.1-58.9,49-110.2,53.3-131.2c2.6-12.7,2-12.4-30.3,18.8c-18.1,17.5-38.6,35.7-45.4,40.5l-12.5,8.7l13.2-18.3
		c15.2-21.2,43.4-68.6,43.4-73.1c0-1.7-12.1,7.4-26.8,20c-44.3,38.1-80.4,58.6-119.8,68.1c-9.9,2.4-8.8,0.5,13-23.1
		c24.2-26.1,61-71.4,58-71.4c-5.3,0-83,51.5-118.6,78.5c-23.2,17.6-54,39.6-68.6,49c-29.8,19.1-29,17.3-34.5,76.7
		c-1.7,18.7-1.7,49-0.1,67.3c4.9,53.4,20.8,148.6,29.5,176.9c7.5,24.3,10.2,28.1,40.7,56.9c40.9,38.6,48.7,54.5,51.3,105
		c0.9,18,1.5,27,4.5,36.2v-108.5h101c14.2,0,27.6,1.9,39.6,5.5c12.5,3.6,23.6,9.3,32.9,17c9.5,7.7,17.1,17.6,22.4,29.2
		c5.3,11.3,8,24.7,8,39.8c0,11.8-1.9,22.8-5.5,32.9c-3.5,9.9-8.7,18.9-15.5,26.8c-6.4,7.7-14.5,14.5-23.8,20c-2.9,1.7-6,3.3-9.2,4.8
		c2.8,2.4,5.6,5.2,8.2,8.3c3.7,4.3,7.4,9.3,10.8,14.7c3.3,4.8,7.1,10.7,11.2,17.4l48.7,78l112.9-294.3h51.9l124.7,324h-63l-32-84.6
		h-112.4l-30.1,84.6h-33.5h-29.9h-38.5l-53.7-90c-4.4-7.5-8.6-13.8-12.6-18.8c-3.8-4.9-7.6-8.8-11.5-11.7c-3.5-2.7-7.1-4.6-11.1-5.8
		c-4.4-1.4-9.2-2.1-14.6-2.1h-17.9v10.9c49,75.1,110.5,159.3,142,192.8l21.8,23.2l25.7-4.5c39-6.8,89.4-3,114.9,8.6
		c23.9,10.9,55.9,40.7,54,50.3c-0.8,4-5.8,7.1-13.5,8.2c-11.6,1.8-11.9,2.3-6.6,9.3c3.1,4.1,5.7,10.4,5.8,14
		c0.1,5.7-3.8,6.5-30.6,6.6c-16.9,0.1-53.6-3.6-81.5-8.1c-50.8-8.2-50.8-8.2-74.4-1c-22.1,6.8-35.9,7.5-95.8,5.4
		c-8.2-0.3-25.2,5.6-47.8,16.5c-34.8,16.8-43.2,19.1-54.6,14.7c-19.5-7.5,5.4-36.1,58.2-67.1l29.9-17.5l-1.8-24.5
		c-1.9-25.4-10.9-51.2-40.4-115.6c-1.4-3.2-3.2-6.8-5.3-10.7v16.9h-57.6v-112c-32.8-50.3-69.6-102.6-90.8-127.1
		c-9.9-11.4-20.1-24.5-28-35.6c-1,0-2-0.1-3-0.1c-31.7,0-56.7,10.2-76.3,31.2c-19.4,20.9-29.2,49.6-29.2,85.2
		c0,33.7,9.1,60.8,27.2,80.5c18.1,19.5,41.4,29,71.1,29c28.1,0,52.6-6.3,72.9-18.6l16.9-10.3v60.8l-5.9,3.1
		c-23.8,12.6-53.6,19-88.5,19c-45.9,0-83.4-15.1-111.2-45c-27.7-29.6-41.7-68.8-41.7-116.4c0-51,15.7-93,46.7-124.8
		c26.3-26.9,58.9-42.5,97.1-46.7c-7.5-30.1-15.1-78-26.4-162.1c-15-112.4-22.2-152.2-29-161.1c-4-5.2-8.9-3.2-41.4,16.9
		c-52.2,32.3-74.1,54.3-136,136.8C956,1781.4,946.3,1799,941,1845.2c-2.9,25.6-9.1,39-38.7,83.4c-1.2,1.8-2.5,3.8-3.8,5.8
		c2.2-0.1,4.4-0.3,6.6-0.3c27,0,48.1,9.1,62.7,27c14.1,17.1,21.2,41.6,21.2,72.9v142.9h-56.8v-134c0-51.5-22.2-57.5-39-57.5
		c-11,0-20.3,3.2-28.3,9.7c-0.1,0.2-0.2,0.5-0.3,0.7c-4.1,8.9-11.3,23.9-19.8,41.2c-0.1,1.9-0.2,3.9-0.2,5.9v134h-56.8V2153
		c-23,50.9-34.3,88.7-39.1,127.5c-7.9,63.9-1.3,71.9,62.2,76.6c54.2,3.9,88.7,22.9,113.8,62.6c14.1,22.2,13.6,26.4-2.8,26.4
		c-11.3,0-13,1-10.9,6.5c4.8,12.4,6.6,27,3.4,26.8c-1.8-0.1-9.3-2.3-16.7-5l0,0c-7.4-2.6-26.7-14.1-42.8-25.4
		c-41.5-29.1-55.2-35.2-94.8-42.1c-35.1-6.1-46.8-11.1-94-40.1c-29.5-18.2-46.9-20.3-86-10.5c-38.2,9.6-35.4,9.6-35.4-0.5
		c0.1-29.4,48.3-60.8,104.6-68.3c14.4-1.9,20-4.7,25.9-13c8.7-12.3,25.2-46.5,47.3-97.6h-39v-237.7h56.8v195.6
		c5.3-12.8,10.8-26.2,16.6-40.4c9.4-23.2,20.4-49.4,31.1-74v-81.3h36.9c21-43.4,22.4-49,24.1-77.3c1-17.4,4.4-36.6,7.5-42.8
		c3.1-6.1,17.6-23.7,32.2-39.1c15.1-15.8,38.4-47,53.8-71.9c15-24.1,42.8-64.6,61.8-89.8c19-25.3,36.6-52.1,39.1-59.7
		c4-12.2,3.6-15.8-3.8-31.5l-8.3-17.8l-41.4,11.1c-22.8,6.1-44.3,12-47.8,13s-11.3,10.5-17.3,21s-15.2,23.2-20.5,28.1l-9.7,9
		l-5.6-13.5c-3.1-7.4-5.6-15.2-5.6-17.3c0-2.1-8.2,4.7-18.2,15.1c-13.6,14.1-20.5,18.6-27,17.7c-6.8-1-9-3.9-9.9-13.3
		c-1.4-14.6-3-14.9-12.8-2.4c-8.1,10.3-35.2,31.2-40.5,31.2c-1.7,0-3.2-7.1-3.3-15.8l-0.1-15.8l-9.4,11.2
		c-5.2,6.1-16.2,19.2-24.5,29.1c-8.3,9.8-16,17-17.1,15.8c-1.1-1.1-3.9-14.2-6.1-29.1l-4.1-27l-17.7,34.2
		c-25.7,49.6-43.6,68.3-43.6,45.6c0-4-1-7.2-2.2-7.2c-6.5,0-62.2,31.9-75.4,43.2c-8.4,7.2-28.9,29.7-45.4,49.9
		c-37.5,45.9-79.2,75.4-73,51.7c1.6-6.1,0.7-7.2-4.2-5.1c-34.3,14.3-83.5,19.3-90.1,9.1c-2-3.1-3-8.4-2.2-11.8
		c1.2-5.2-1.3-6.1-15.1-5.6c-12.6,0.5-17.9-1.1-21.9-6.6c-7.8-10.7-6.3-41.4,3.6-70.3c8.1-23.9,8.2-25.3,1.8-23.6
		c-9.3,2.4-8.8-2.1,4.5-36.7c51.5-134.1,146.7-248.8,295-355.3c13.3-9.6,21.3-19.4,30.4-37.4c67.6-134.2,221.4-262.2,388.7-323.5
		c49-18,120.9-35.6,206.5-50.6c68-11.9,86.1-13.7,139.5-14C1461.6,863.3,1479.7,867,1547,895.3z M678.9,1873.5
		c0-9.4,3.4-17.7,9.9-24c6.3-6.3,14.5-9.7,23.5-9.7c9.2,0,17.5,3.4,23.9,9.8c6.4,6,10,14.4,10,23.9c0,9.1-3.5,17.4-10.1,23.8
		c-6.3,6.3-14.5,9.7-23.7,9.7c-9,0-17.1-3.3-23.5-9.4C682.3,1891.2,678.9,1882.9,678.9,1873.5z"/>
	<path class="st0" d="M1560.9,970c-0.2,0.1-0.5,0.3-0.8,0.4c0.2-0.1,0.5-0.1,0.6-0.2C1560.8,970.1,1560.8,970,1560.9,970z"/>
	<path class="st0" d="M1798.9,1261.9c-9.5,18.9-10.6,18.1-11.6-8.1c-0.9-22.3-2.2-31-6-28.8c1.1-0.3,1.9,0.8,2.7,3
		c1.6,4,3,17.3,3.2,29.6l0.4,22.3l7.3-8.7c8.4-10.1,20.1-45.7,26.6-81.6l4.6-24.9c-0.5,1-1.6,5-2.5,10
		C1815.6,1216.1,1807.5,1244.9,1798.9,1261.9z"/>
	<path class="st0" d="M1708.4,1329.4c-5.8,8.8-13.9,22.7-18.1,31s-7.7,14.1-7.7,13s4.1-15.2,9.3-31.3c10.4-32.6,17-57.3,17-63.4
		c0-1.5-0.2-2.5-0.7-3c2,2.6-7.5,38.5-19.2,72.8c-5.2,15.2-8.6,28.4-7.7,29.4c1,1,3.5-2.9,5.7-8.6c4.2-11.2,26.4-48,31.7-53.2
		C1717.3,1316.2,1714.7,1319.8,1708.4,1329.4z"/>
	<path class="st0" d="M1739.7,1376.5c-8.8,58-12.3,77.9-15.5,86.3c-3.6,9.5-4.7-13.4-3.6-77c0.6-34.6,0.4-65.1-0.3-67.7
		c-0.1-0.3-0.2-0.6-0.3-0.8c0.6,8,0.6,39-0.3,75.9c-2.4,106.5,4.4,100.1,21.5-20.3c11-77.2,17.1-103.6,30.4-131.9
		c2.9-6.2,5.1-10.4,6.7-13c-1.4,2-3.1,4.8-5.1,8.5C1759.6,1261.5,1752.8,1289.7,1739.7,1376.5z"/>
	<path class="st0" d="M1849.3,906.6c12,0,32.6,16.6,46.2,37.3c10.1,15.3,13.6,25.2,16.4,46.9c4.2,33.1-3.5,64.2-29.4,118.8
		c-17.2,36.3-23.9,52.4-35,84.6c-4.1,11.9-8.2,22.8-9,24.3c-1.7,3-3.8-5.5-8.5-34.5c-1.7-10.3-3.3-19-3.7-19.4
		c-0.1-0.1-0.1,0-0.2,0.2l3.2,20.4c5,31.9,6.6,38.3,9,35.9c1.2-1.2,7.6-18.6,14.2-38.6s21.1-54,32.3-75.5
		c28.8-55.6,35.8-98.6,23.2-141.1c-7.6-25.5-39.8-59.7-56.3-59.7c-22.6,0-59.1-35.3-73.2-65.7c5.7,13.8,15.4,27.5,30.2,42.1
		C1821.6,895.2,1840.8,906.6,1849.3,906.6z"/>
	<path class="st0" d="M1727.2,713.9c-0.3-0.5-0.7-0.6-1.3-0.3C1726.4,713.4,1726.8,713.6,1727.2,713.9z"/>
	<path class="st0" d="M1539.7,954.4c-8.8-4.5-19.4-10.3-23.5-12.9l-7.5-4.7l9.5-0.1c12.9-0.1,41.5,5,60.9,10.8
		c8.8,2.6,18.4,5.2,21.4,5.7c6,1,6,0.5,0.9-12.2c-1.3-3.3-1.9-6.6-1.2-7.3c1.6-1.6,26.3,11.8,46.1,24.9c8.5,5.7,26.7,19.6,40.3,30.9
		c13.6,11.3,30.6,24.6,37.7,29.4c10.3,7,13.1,8.5,21.7,9.2c-4.4-0.6-8.5-1.8-11.9-3.7c-9.2-4.9-33.5-23.9-60.5-47
		c-21.6-18.6-73.7-49.9-75.4-45.2c-0.6,1.7,0.7,6.8,3.1,11.1c2.3,4.4,3.6,8.7,2.7,9.5s-11.5-1.9-23.6-6.1
		c-21.6-7.5-72.2-14.3-72.2-9.7c0,1.3,11.3,8.2,25.1,15.3c20.1,10.3,29.2,15.1,27.9,17.3C1563.1,967.3,1558,963.9,1539.7,954.4z"/>
	<path class="st0" d="M1800.2,1009.2c-8.2,11.3-27.3,18.8-44.5,19.3c8.5,0.1,14.1-0.8,21.1-3.2
		C1788.2,1021.3,1795.8,1016.1,1800.2,1009.2z"/>
	<path class="st0" d="M1472,879.6c32.3,7.2,72.2,25.1,95.9,43.2c5.1,3.9,9.1,7.2,8.8,7.3c-0.2,0.1-8.9-0.3-19.2-1c-30-2-67,2-73.3,8
		c-3.2,3,4.1,6.7,28.8,14.7c22.3,7.2,31.6,11,27.6,11.2c-11.5,0.5-51.6,6-60.9,8.5c-12.9,3.4-30.1,11.3-37.7,17.5l-4.7,3.8l5.1,1.9
		c2.8,1.1,26.1,3.6,51.8,5.7c25.7,2.1,48.7,4.5,51.1,5.4c3.9,1.4,3,2.1-7.7,6c-33.1,12-41.3,15.6-40.6,17.6c0.4,1.2,4.2,3.4,8.6,4.9
		l7.9,2.8l-13.6,6.8c-7,3.5-12.6,7.2-13.1,8.6c0.8-1.5,6.7-5,14.4-8.5c16-7.1,16.1-7.3,6.1-9.8c-5.5-1.4-10.1-3.7-10.1-5.1
		s11.7-6.3,25.9-10.9c14.3-4.6,26.8-9.7,27.9-11.5c1.1-1.7-14.4-4.2-34.3-5.5s-46.2-3.4-58.3-4.6c-20.5-2.1-21.6-2.6-14.9-7.7
		c16.6-12.6,41.7-20.5,71.6-22.4c17-1.1,29.6-3.3,27.9-4.9c-1.6-1.6-15.1-6.4-29.8-10.7c-14.8-4.3-27.7-9.4-28.8-11.1
		c-3.9-6.2,35.7-12.4,66.1-10.4l29.8,2l-10.8-8.8c-16.8-13.7-49.2-29.9-77.8-39c-33.3-10.6-91.6-13.3-149.9-7.8h55.2
		C1448.3,875.7,1456,876.1,1472,879.6z"/>
	<path class="st0" d="M1532.5,695.1c-1.8-0.8-1.4-1.9,1.7-3.8c3.2-2,6.3-3.3,23.1-10c6.4-2.5,11.9-4.8,12.2-5.1v-0.1l-18.3,7.2
		c-28.2,11.1-27.4,13.4,4.4,13c4.6-0.1,8.6-0.1,12.2,0c-2.8-0.1-5.9-0.1-9.4-0.2C1544.7,695.8,1533.1,695.4,1532.5,695.1z"/>
	<path class="st0" d="M1543.4,663.7c2-2.2,4.9-3.6,11.7-5.9c8.8-2.9,11.2-5.9,8.1-9.9c-1.8-2.3-5.5-4.8-16.1-10.8
		c-9.1-5.2-15.8-9.8-15.8-10.9c0-1.6,5.8-2.2,25.4-2.5c10.8-0.2,19.5-0.5,20.3-0.7h-23.1c-12.8,0-23.2,1.3-23.2,2.8s7.8,7,17.4,12.1
		c20,10.7,21.3,15.4,5.2,20.1c-10.6,3.1-16,9.7-8,9.7c1.9,0,8.2,1.8,14,4.1l9.9,3.8c-2.5-1.9-21-8.3-24.7-8.3
		C1541.9,667.5,1541.4,665.8,1543.4,663.7z"/>
	<path class="st0" d="M1589.6,542.3c-7.2-7.9-10.6-12-9.9-12.1c0.6-0.1,9.3,1,19.3,2.4s18.4,2.5,18.5,2.4s-2.2-3.6-5.2-7.7
		c-5.4-7.4-9.3-14.4-9.3-16.6c0-1.8,1.9-3.2,4.6-3.2c4.1,0,12.3,2.5,26.3,8c13.9,5.5,23.4,8.7,25.6,8.7c0.4,0,0.7-0.2,1-0.4
		c-1.4,0.7-12.6-2.9-26.4-8.6c-30.8-12.7-38.2-10.4-25.3,7.9l8.5,11.9l-20.1-2.8l-20.1-2.8l16.1,17.5c8.6,9.4,15,17.7,14.6,18.9
		c0.1-0.1,0.3-0.1,0.3-0.2C1608.6,564.2,1601.3,555,1589.6,542.3z"/>
	<path class="st0" d="M1564.5,614.3c-14-9.1-23.6-17.4-21.8-18.6c2.7-1.8,17-0.3,29.8,3.1c8.9,2.4,10.1,2.6,10.1,1.4
		c0-1.3-3.6-6.4-13-18.1c-4.4-5.5-8.5-11.2-9.2-12.7c-3.5-7.9,2.5-9.2,25.8-5.5c8.6,1.4,15,2.1,18.6,2.2c-4.1-0.2-11.6-1.1-19.9-2.7
		c-26.5-4.9-31.8-1.2-19.8,13.7c20.6,25.6,20.3,25.1,12.2,22.7c-17.6-5.2-35.3-7-35.3-3.4c0,2,8,8.9,17.7,15.3l17.6,11.5l0,0
		C1577.2,622.8,1571.4,618.9,1564.5,614.3z"/>
	<path class="st0" d="M1569.6,724.9c-11,0.9-20.7,1.7-21.6,1.7c-1,0,4.6-3.2,14.9-8.2c22.1-10.9,28.3-15,27.3-18.2
		c-0.7-2.1-3.1-3-13.6-3.5c20.4,1.3,17.3,6.3-7.2,18.2l-25.6,12.5l24.2-2l23.1-1.9c0,0,0,0-0.1,0
		C1590.1,723.3,1580.5,724,1569.6,724.9z"/>
	<path class="st0" d="M1659.7,559c-0.1-0.3,0-0.4,0-0.6C1659.6,558.6,1659.6,558.8,1659.7,559z"/>
	<path class="st0" d="M1669.6,491c-1.8-12.2,1.3-11.2,19.4,6.2c9.9,9.5,16.3,14.8,18,14.8c2,0,2.4-7.6,0.8-18.6
		c-0.6-4.1-0.9-9-0.8-11.1l0.2-3.7l3.7,5.2c2,2.9,6.6,9.7,10.1,15.2c7.2,11.2,9.7,14.3,11.7,14.3c0.2,0,0.4-0.2,0.7-0.3
		c-2.1,1.1-5.2-3-13-15.4c-6.7-10.7-12.9-19.5-13.7-19.5c-0.8,0-0.4,7.5,1,16.7c1.4,9.4,1,16.7-0.9,16.7s-9.9-6.7-17.9-14.9
		c-16.8-17.2-22.1-18.7-19.6-5.6c0.5,2.7,0.8,4.7,0.9,6.1C1670.2,495.9,1670,493.9,1669.6,491z"/>
	<path class="st0" d="M1778.8,485.4c0.2,0,2.3,6.1,4.7,13.6c2.2,7,4.3,12.7,4.8,13.5l-4.6-14l-4.7-14.3l-7.4,14.4l-6.9,13.4
		c1.2-1.9,3.9-6.8,6.8-12.6C1775.4,491.7,1778.7,485.4,1778.8,485.4z"/>
	<path class="st0" d="M1739,481.8c0.4-12,1.2-18.1,2.4-19.2c2.1-2.1,7,8.1,16.6,34.5c3,8.4,5.7,15.5,6,15.8l0.1-0.1l-8.4-23.3
		c-12.3-33.9-16.5-36.3-16.8-9.4c-0.2,12.2-1.6,25.5-3.2,29.6c-0.6,1.6-1.2,2.7-1.9,3.2C1736.4,511,1738.3,500.2,1739,481.8z"/>
	<path class="st0" d="M1651.3,503.4c-4.8-9-7.6-15.5-6.9-16.3c0.9-0.9,4.5,0.9,13.4,6.7c5.6,3.7,10,6.2,10.8,6.1
		c0.1,0,0.3-0.1,0.4-0.1c-1.7,0.2-5.4-2.3-12.3-7.2c-6.1-4.3-11.8-7.1-12.8-6.1s2.5,9.1,7.6,18.1c4.9,8.6,9,16.8,9.3,18.7
		c0-0.1,0.1-0.1,0.1-0.2C1660.9,521.8,1657.9,515.7,1651.3,503.4z"/>
	<path class="st0" d="M1784.5,582.4c0,5.3-0.3,14.1-0.7,19.6c-1,15.2-2.6,21.2-5.5,20.8c-3.1-0.5-4.9-6.4-13.8-46.1
		c-8.5-38-12.6-53.7-13.7-52.6c-1.2,1.2,9.1,64.3,14.8,90.7c3.2,14.8,2.8,17.5-2,13.4c-1.5-1.3-3.8-5-6.5-10.2
		c-2.3-4.5-4.2-8.2-4.4-8.4c-0.8-0.9-0.6,1.3,1.1,9.9c3.4,17.1,3.2,22.8-0.6,21.6c-2.2-0.7-4.3-4.1-6.4-10
		c-5.9-17-30.5-64.2-46.6-89.2c-3.5-5.5-8.5-11.5-9.6-11.5c-2.4,0,1.6,8.7,23.7,52.8c22.6,45,27.5,56.2,27.5,62.3
		c0,6.9-4.6,2.5-22.2-21.1c-26.8-36-47.8-60.6-55.2-64.9c-2.7-1.6-4.3-2.1-4.8-1.6c0.5-0.4,2,0.2,4.5,1.6
		c7.4,3.9,35.1,37.2,61.7,73.9c6.1,8.5,12.4,15.5,14,15.5c6.8,0.2,0.8-15.1-27.2-69.8c-22.2-43.4-27.1-55.1-18.7-45.4
		c11.4,13.2,49.3,84.1,53.3,99.5c1.2,4.6,4.1,8.4,6.6,8.4c4.1,0,3.9-5.7-1.4-31c-0.5-2.4,1.5,1.1,4.4,7.7
		c6.1,13.7,13.7,16.4,10.5,3.7c-4.6-18.6-17.7-96.6-16.5-97.9c0.8-0.8,6,19.9,11.7,45.8c5.7,26,11.1,48.5,12.1,50.1
		c5.3,8.6,8.9,0.2,9.5-22.2l0.7-24.3C1784.8,573.3,1784.5,577,1784.5,582.4z"/>
	<path class="st0" d="M1726,692.8l-14.9,2.7c-8.2,1.5-30.6,9.3-49.9,17.3s-35.7,14-36.4,13.2c-2.6-2.6,34.2-24,51-29.5
		c9.2-3.1,24.7-6.8,34.4-8.2c9.7-1.5,17.7-4.1,17.7-5.9c0-1.8-8-3.5-17.7-3.9c-12.5-0.4-14.4-1-6.5-2.1c18.8-2.7,18.6-7.6-0.5-13.4
		c-24.6-7.5-55.8-21.7-40.5-18.6c6.1,1.3,21.8,6.3,34.9,11.2s24.8,7.8,26,6.5c1.3-1.3-5.2-9.2-14.4-17.5c-18.1-16.4-14-15.4,8.4,1.9
		c7.7,6,13.9,9.5,13.9,7.7c0-1.7-11.9-17.3-26.4-34.7s-31.4-38.9-37.6-47.8c-4.8-6.9-7.3-10.7-7.8-12.5c0.3,1.5,1.9,4.2,4.9,8.7
		c6,8.9,20,27,37.2,48.1c21.9,26.7,30.1,37.6,28.8,38.1c-1,0.3-7.8-3.9-14.8-9.4c-7-5.4-17.1-12.4-17.9-12.4c-1.5,0,0.4,2.2,12,13.7
		c11.4,11.4,14.2,14.8,13.1,16c-0.9,0.9-12.1-2.2-29.5-8.2c-25.9-8.9-35.3-11.4-35.3-9.6c0,1.9,19.1,10.3,39.4,17.2
		c7.6,2.6,14.6,5.1,15.6,5.7c2.5,1.3,4.4,3.5,3.8,4.4c-0.9,1.4-5.8,3.2-11.9,4.2c-9.7,1.7-9,2.2,4,3c9.8,0.6,15.6,1.5,17.5,2.7
		c0.9,0.6,0.9,0.7,0,1.5c-1.9,1.7-6.6,3.1-17.8,5.2c-13.9,2.6-29.4,6.5-36.7,9.3c-11.3,4.4-35.3,17.4-43.4,23.7
		c-3.4,2.6-4.9,4.5-4.3,5.2c0.7,0.7,11.6-3.1,34-12.1c29-11.5,43.4-16.4,55.8-18.9c5.4-1.1,10-1.9,10.2-1.7s-1.9,2.5-4.5,5.3
		c-3,3.2-6,5.6-8.2,6.7c-3.5,1.7-10.3,3-15.8,3c-4.7,0-15.2,3-23.7,6.6c-16.4,7.1-34.4,18.5-57.7,36.5c-16.6,12.8-25,18.7-26.9,18.7
		c-1.2,0-1.1-0.3,0.8-3.8l0,0c1.1-2.1,6.2-9.6,11.3-16.8c10.1-14.1,11.9-17.2,10.6-18c-1.9-1.2-9.7,1.7-29.1,10.7
		c-7.2,3.3-13.5,5.9-14.3,5.8c-1.4-0.2-1.2-0.5,1.6-3.5c1.7-1.8,7.7-7.4,13.4-12.3c5-4.4,7.6-6.8,8.6-8l-13.5,11.8
		c-16.8,14.7-15.4,16.5,4.8,6.3c7.6-3.8,17.9-8.2,22.8-9.8c8.5-2.6,8.2-1.7-4.7,15.8c-21.8,29.6-18.9,29.7,18.4,0.3l0,0
		c31.1-24.5,62.3-40.3,79.3-40.3c9.5,0,16.2-2.5,21-8L1726,692.8z"/>
	<path class="st0" d="M1800.9,489.4l0.8,7.8c2.9,29,2.7,44.3-1.6,98.9c-1.8,23.3-1.8,22.9-6,22.9c-5.1,0-6.3-4.6-7.6-29.3
		c-0.4-7.4-0.9-14-1.3-15.5l1.3,22.1c1,17.2,2.7,23.3,6.7,23.3c3,0,5.5-1.3,5.6-2.8s1.7-21.2,3.5-43.7s2.3-50.8,1.1-62.8l-2.2-21.9
		l-6.4,12.3l-6.1,11.8c0.8-1.2,3.4-5.8,6.2-11.3L1800.9,489.4z"/>
	<path class="st0" d="M1751.6,900.9c-32.6-37.8-46.6-62-51.3-90.8C1704.9,839,1719.2,864.1,1751.6,900.9z"/>
	<path class="st0" d="M1670.1,497.9v-0.1C1670.1,497.9,1670.1,497.9,1670.1,497.9z"/>
	<path class="st0" d="M1700.1,808.4c-0.2-1.3-0.4-2.7-0.5-4.1C1699.7,805.7,1699.9,807.1,1700.1,808.4z"/>
	<path class="st0" d="M1702.2,757.8c0.3-1.4,0.7-2.8,1-4.2C1702.9,755,1702.6,756.4,1702.2,757.8z"/>
	<path class="st0" d="M1700.4,767c0.1-0.8,0.2-1.6,0.4-2.4C1700.6,765.5,1700.5,766.2,1700.4,767z"/>
	<path class="st0" d="M1843,675.3c0.6,0,1.1,0.1,1.7,0.2c-0.6-0.1-1.2-0.3-1.7-0.4c-3.2-0.3-5.8-1.6-8.7-4.5
		c-6.9-6.8-13.6-21.8-14.5-32.6c-0.5-5.5,1-12.4,4-18.4c6.5-13.3,20.1-23.3,36.5-26.8c4.6-1,15.4-1.1,19.9-0.2
		c16.3,3.3,33.9,16.2,48.5,35.6c13.3,17.7,20.4,37.5,18.1,50.2c-2.5,13.2-12.4,28.9-20.9,33.3c-4.9,2.5-9.9,4-16.5,4.9
		c-3.8,0.5-13,0.6-16.7,0.1l0,0c-9.4-1.2-18.2-4.5-23.7-8.8c-4.3-3.4-6.2-6.7-6.7-11.5c-0.1-1.1-0.3-2.3-0.6-3.5
		c0.1,0.9,0.3,1.9,0.3,2.9c0,18.6,39.9,28.4,64.4,15.9c9.9-5.1,21.2-25.5,21.1-38.3c-0.1-29.2-34-72.1-63.2-80
		c-35.4-9.5-72.2,20.8-63.2,52.1C1825.9,663.2,1834.9,675.3,1843,675.3z"/>
	<path class="st0" d="M1783.6,639.3c-12,8-18.2,14.9-23.9,26.6c-2.9,5.9-4.9,11.5-6.6,18.4c-4.9,20-4.3,41.5,1.7,59.6
		c3.9,11.7,9.3,20.2,18.8,29.4c0.4,0.4,0.8,0.7,1.2,1c-4.1-3.9-7.9-8.2-11.2-12.8c-20.6-29.3-17.3-85.1,6.5-111
		c6.5-7.1,18.6-15.2,26.8-18.1l11.4-4c-1.5,0.4-3.3,1-5.6,1.8C1793.8,633.3,1789.3,635.5,1783.6,639.3z"/>
	<path class="st0" d="M1558.4,970.7c0.7-0.1,1.2-0.2,1.6-0.3C1559.5,970.5,1559,970.6,1558.4,970.7z"/>
	<path class="st0" d="M1669,499.8c0.2-0.1,0.4-0.2,0.5-0.4C1669.4,499.6,1669.2,499.7,1669,499.8z"/>
	<path class="st0" d="M1778.8,631.1c-10.3,5.3-28.2,21.8-32.7,30.1c-7.2,13.2-10.6,43.7-7,62.6c4.2,22.3,40.3,88.8,48.3,89
		c3.1,0.1,10.6,3.4,16.7,7.3c14.8,9.5,15.6,9.4,17.7-2.5l0,0c1-5.6,3-13.2,4.5-16.7c2.3-5.5,0.8-6.5-9.7-6.6
		c-12.7-0.1-28.1-7.5-40.6-18.7c8.5,7.7,18,13.5,27.4,16.5c4.9,1.6,8.1,2.1,14.4,2.4c5.7,0.2,8.4,0.8,9,1.9c0.5,0.9,0.2,2.6-0.9,5.2
		c-1.2,3-3,9.6-4.3,16.3c-1.7,8.6-2.6,9.8-6.1,8.5l0,0c-1.9-0.7-3.9-1.8-8.8-4.8c-8.3-5.1-13.9-7.8-18.1-8.7
		c-2.6-0.5-4.2-1.8-7.1-5.4c-6.8-8.4-16.3-24.3-25.6-42.8c-9.8-19.4-15.3-33.2-16.8-42.2c-3.2-18.8,0.3-48.5,7.2-61
		c4.6-8.3,20.4-23.2,31.3-29.4c5.4-3.1,12.2-4.5,22.7-4.8c1.9,0,4.5-0.1,6.7-0.1l-7.6-0.1C1792.4,627,1783.2,628.8,1778.8,631.1z"/>
	<path class="st1" d="M1260.5,0L0,727.8v1455.5L1260.5,2911L2521,2183.3V727.8L1260.5,0z M2444.6,2139.2l-1184.1,683.7L76.4,2139.2
		V771.8L1260.5,88.2l1184.1,683.7V2139.2z"/>
	<path class="st2" d="M969.4,1428.1c-7,21.9-14.4,48.9-16.5,59.9l-3.8,20l15.2-5.8c8.4-3.2,51.1-11.7,95-18.9
		c121.7-20,128.8-22.7,161.2-60.9c15.1-17.9,27.5-37.1,27.5-42.7c0-5.9,22.4-31.8,53.6-61.9c60.8-58.7,109.1-125.3,102.1-140.9
		c-3.7-8.2-6.8-5.5-20,17.1c-8.6,14.8-17.6,26.8-19.9,26.8s-4.3-16.1-4.4-35.9l-0.2-35.9l-11.3,15.9c-4.6,6.5-19.3,22.8-36.3,40.5
		c-14.6,16.1-30.7,31.6-45.9,44.1c-40.7,34.2-81.8,54.5-120.5,59.3c-8,1.6-15.4,2.4-22,2.4h-9.9l-6.2,0.4l20.6-13.1
		c39.3-25,83-73.4,83-92.1c0-3.5-22.1,7.5-49.1,24.4c-61,38-79.9,47.2-130.9,50.8c-24.1,2.5-51.9,3.6-71.5,2.5
		c-23.7,0-35.5-1.2-35.5-3.9c0-3.1,5.4-7.5,12-9.8c15-5.3-31.1-11-95.7-11.9c-42.1-0.6-43.8-0.1-43.8,11.4
		c0.1,23.7,6.2,36.7,15.2,32.9c10.6-4.4,16.8-6.6,21-5.6c3.9-0.6,5.3,1.2,5.8,5.5c1.7,3.5,3.2,8.7,5,15.9
		c6.7,26.5,8.8,27.9,24.3,16.2c8.2-6.2,14.1-8.5,19.1-6.5c1.8-0.5,3.1-0.7,3.7-0.3c1.1,0.7,2.4,3.4,3.6,7c1.9,2.8,3.7,6.3,5.5,10.8
		c9.6,22.9,21.3,28.1,35.1,15.7c11.7-10.5,11.1-10.8,19.9,9.7c5.5,12.7,7.9,14,17,9.1c5.6-3,8.9-3.9,9.8-0.8l1.5-0.8l-1.2,3.2
		C981.7,1388.2,977.7,1402,969.4,1428.1z"/>
	<path class="st3" d="M1868.8,708c5.5,4.3,14.3,7.5,23.7,8.8l0,0c3.8,0.5,12.9,0.4,16.7-0.1c6.6-0.9,11.6-2.4,16.5-4.9
		c8.6-4.4,18.5-20.1,20.9-33.3c2.4-12.7-4.8-32.5-18.1-50.2c-14.6-19.4-32.2-32.3-48.5-35.6c-4.5-0.9-15.4-0.8-19.9,0.2
		c-16.4,3.6-30,13.5-36.5,26.8c-3,6-4.5,12.9-4,18.4c1,10.8,7.7,25.8,14.5,32.6c2.9,2.9,5.5,4.2,8.7,4.5c0.5,0,1.1,0.2,1.7,0.4
		c3.3,0.4,6.4,1.8,9,3.9c0.5,0.4,1.1,0.7,1.5,1.1c0.9,0.8,2.1,2.5,3.1,4c0,0.1,0.1,0.1,0.1,0.2c0.5,0.8,1,1.6,1.2,2.2
		c0.1,0.2,0.2,0.4,0.2,0.7c0.8,1.7,1.3,3.5,1.5,5.4c0.2,1.2,0.4,2.3,0.6,3.5C1862.6,701.3,1864.5,704.6,1868.8,708z"/>
	<path class="st4" d="M1582,732.6c-5.6,4.9-11.7,10.5-13.4,12.3c-2.9,3.1-3,3.3-1.6,3.5c0.8,0.1,7.1-2.4,14.3-5.8
		c19.4-9,27.2-11.9,29.1-10.7c1.3,0.8-0.5,3.9-10.6,18c-5.1,7.1-10.2,14.7-11.3,16.8l0,0c-1.9,3.5-1.9,3.8-0.8,3.8
		c1.9,0,10.3-5.8,26.9-18.7c23.3-18,41.3-29.3,57.7-36.5c8.5-3.7,19-6.6,23.7-6.6c5.6,0,12.3-1.3,15.8-3c2.2-1.1,5.2-3.5,8.2-6.7
		c2.6-2.8,4.6-5.1,4.5-5.3c-0.1-0.1-4.7,0.6-10.2,1.7c-12.4,2.5-26.8,7.4-55.8,18.9c-22.5,8.9-33.3,12.8-34,12.1s0.9-2.6,4.3-5.2
		c8.2-6.3,32.1-19.3,43.4-23.7c7.3-2.8,22.8-6.7,36.7-9.3c11.2-2.1,15.9-3.4,17.8-5.2c0.9-0.8,0.9-1,0-1.5
		c-1.9-1.2-7.7-2.1-17.5-2.7c-13-0.8-13.7-1.3-4-3c6-1,11-2.8,11.9-4.2c0.6-0.9-1.3-3.1-3.8-4.4c-1-0.5-8-3.1-15.6-5.7
		c-20.2-6.9-39.4-15.3-39.4-17.2s9.5,0.7,35.3,9.6c17.4,6,28.6,9.1,29.5,8.2c1.1-1.1-1.7-4.6-13.1-16c-11.6-11.5-13.5-13.7-12-13.7
		c0.8,0,10.9,7,17.9,12.4c7.1,5.5,13.8,9.7,14.8,9.4c1.3-0.4-7-11.3-28.8-38.1c-17.3-21.1-31.2-39.1-37.2-48.1
		c-3-4.5-4.6-7.3-4.9-8.7c0-0.1,0-0.1-0.1-0.2c0-0.2,0-0.4,0-0.6c0-0.1,0-0.2,0.1-0.2c0.5-0.5,2,0,4.8,1.6
		c7.4,4.2,28.4,28.9,55.2,64.9c17.6,23.5,22.2,27.9,22.2,21.1c0-6.1-4.9-17.3-27.5-62.3c-22.1-44.1-26.1-52.8-23.7-52.8
		c1.1,0,6.1,6,9.6,11.5c16.1,25,40.7,72.2,46.6,89.2c2.1,5.9,4.2,9.3,6.4,10c3.8,1.2,4-4.5,0.6-21.6c-1.7-8.6-2-10.8-1.1-9.9
		c0.1,0.2,2.1,3.9,4.4,8.4c2.6,5.2,5,8.8,6.5,10.2c4.7,4.2,5.1,1.4,2-13.4c-5.6-26.4-15.9-89.6-14.8-90.7
		c1.1-1.1,5.2,14.6,13.7,52.6c8.9,39.7,10.6,45.6,13.8,46.1c2.9,0.4,4.5-5.6,5.5-20.8c0.4-5.5,0.7-14.3,0.7-19.6
		c0-5.4,0.3-9.2,0.6-8.6v-0.8l0.1,1.2c0.3,1.5,0.9,8,1.3,15.5c1.3,24.7,2.5,29.3,7.6,29.3c4.3,0,4.2,0.3,6-22.9
		c4.3-54.5,4.6-69.8,1.6-98.9l-0.8-7.8l-6,11.7c-2.9,5.5-5.4,10.2-6.2,11.3l-0.3,0.5l-0.1-0.3c-0.5-0.7-2.5-6.5-4.8-13.5
		c-2.4-7.5-4.5-13.6-4.7-13.6s-3.5,6.3-7.4,14c-2.9,5.8-5.6,10.6-6.8,12.6l-0.5,1.1l-0.1-0.3l-0.1,0.1c-0.3-0.3-3-7.4-6-15.8
		c-9.6-26.4-14.4-36.6-16.6-34.5c-1.2,1.1-1.9,7.2-2.4,19.2c-0.7,18.4-2.6,29.2-5.4,31.1c-0.1,0.1-0.2,0.1-0.3,0.1
		c-0.2,0.1-0.4,0.3-0.7,0.3c-2,0-4.6-3.1-11.7-14.3c-3.5-5.5-8.1-12.3-10.1-15.2l-3.7-5.2l-0.2,3.7c-0.1,2,0.3,7,0.8,11.1
		c1.5,11,1.2,18.6-0.8,18.6c-1.6,0-8-5.3-18-14.8c-18.1-17.4-21.2-18.4-19.4-6.2c0.4,2.9,0.6,4.9,0.6,6.3c0,0.2,0,0.4,0,0.6v0.1
		c0,0.7-0.2,1.2-0.5,1.5c-0.1,0.2-0.3,0.3-0.5,0.4h-0.1c-0.1,0-0.2,0.1-0.4,0.1c-0.8,0.1-5.2-2.4-10.8-6.1
		c-8.9-5.9-12.4-7.7-13.4-6.7c-0.8,0.8,2,7.3,6.9,16.3c6.7,12.3,9.6,18.4,9.6,19.6c0,0.1-0.1,0.2-0.1,0.2c0,0.1,0.1,0.2,0.1,0.3
		s-0.2,0.1-0.3,0.2c-0.2,0.2-0.6,0.4-1,0.4c-2.2,0-11.7-3.2-25.6-8.7c-14-5.5-22.2-8-26.3-8c-2.6,0-4.6,1.4-4.6,3.2
		c0,2.2,3.9,9.2,9.3,16.6c3,4.2,5.3,7.6,5.2,7.7c-0.1,0.1-8.4-1-18.5-2.4c-10-1.4-18.7-2.5-19.3-2.4c-0.7,0.1,2.6,4.2,9.9,12.1
		c11.6,12.7,19,21.9,18.6,23.2c0,0.1-0.2,0.2-0.3,0.2c0,0,0,0.1,0,0.2c-0.3,0.3-1.4,0.3-3.2,0.3c-3.6,0-10-0.8-18.6-2.2
		c-23.2-3.7-29.3-2.4-25.8,5.5c0.7,1.5,4.8,7.3,9.2,12.7c9.4,11.7,13,16.8,13,18.1c0,1.2-1.1,1-10.1-1.4
		c-12.8-3.4-27.1-4.9-29.8-3.1c-1.8,1.2,7.9,9.4,21.8,18.6c7,4.6,12.7,8.5,12.7,8.7l0,0l0,0h-0.1c-0.7,0.2-9.5,0.5-20.3,0.7
		c-19.6,0.3-25.4,0.9-25.4,2.5c0,1.1,6.7,5.7,15.8,10.9c10.6,6,14.2,8.5,16.1,10.8c3.1,4,0.7,7-8.1,9.9c-6.9,2.3-9.7,3.7-11.7,5.9
		c-1.9,2.1-1.5,3.8,1.1,3.8c3.7,0,22.2,6.3,24.7,8.3l0.6,0.2l-0.3,0.1v0.1c-0.3,0.3-5.8,2.6-12.2,5.1c-16.8,6.7-19.9,8-23.1,10
		c-3,1.9-3.5,3-1.7,3.8c0.6,0.3,12.2,0.7,25.7,1c3.5,0.1,6.7,0.1,9.4,0.2c3.3,0.1,6.3,0.2,8.8,0.3c10.6,0.5,13,1.4,13.6,3.5
		c1,3.2-5.2,7.4-27.3,18.2c-10.3,5.1-16,8.2-14.9,8.2c0.9,0,10.6-0.7,21.6-1.7c11-0.9,20.6-1.6,21.3-1.5h0.1l1.1-0.1l-1.4,1.2
		C1589.7,725.8,1587,728.2,1582,732.6z"/>
	<path class="st3" d="M1777.5,632.1c-10.9,6.2-26.7,21.1-31.3,29.4c-6.9,12.6-10.4,42.3-7.2,61c1.5,9,7.1,22.8,16.8,42.2
		c9.3,18.5,18.8,34.4,25.6,42.8c2.9,3.6,4.6,4.9,7.1,5.4c4.2,0.8,9.9,3.5,18.1,8.7c4.9,3,6.8,4.1,8.8,4.8l0,0
		c3.5,1.3,4.4,0.1,6.1-8.5c1.3-6.7,3.1-13.2,4.3-16.3c1.1-2.6,1.4-4.3,0.9-5.2c-0.6-1.1-3.2-1.6-9-1.9c-6.2-0.3-9.5-0.8-14.4-2.4
		c-9.4-3-18.9-8.8-27.4-16.5c-0.5-0.4-0.9-0.8-1.4-1.2c-0.4-0.4-0.8-0.6-1.2-1c-9.5-9.2-14.9-17.7-18.8-29.4
		c-6-18.1-6.6-39.6-1.7-59.6c1.7-6.9,3.7-12.5,6.6-18.4c5.7-11.7,12-18.6,23.9-26.6c5.7-3.8,10.2-6,18.9-9c2.3-0.8,4.1-1.4,5.6-1.8
		l3.5-1.2l-4.7-0.1c-2.2,0-4.8,0.1-6.7,0.1C1789.7,627.5,1782.8,629,1777.5,632.1z"/>
	<path class="st5" d="M1829.5,698.1c-1.1,3.8-1.3,9.7-0.3,13.1c1.5,5.6,4.8,9.5,9.5,11.2l0,0c1.9,0.7,6.1,0.4,8.2-0.6
		c2.7-1.3,5.6-4.4,7.2-7.8c1.7-3.6,2.3-6.4,2.3-11c0-9.6-3.8-19.7-8.6-22.9c-2.7-1.8-6-0.8-9.5,2.7
		C1834.5,686.5,1831.3,692.2,1829.5,698.1z M1841.3,693.2c2.7-7,7.2-6.8,8.9,0.2c1.1,4.7,0.1,10.4-2,11.4l0,0
		c-1.1,0.5-1.7,0.5-3.3-0.2c-1.6-0.8-2.9-1.9-3.7-3.4C1840.3,699.6,1840.4,695.7,1841.3,693.2z"/>
	<path class="st2" d="M1829.1,676.1c-0.5-2-1.9-4.6-4.4-7.7c-2.6-3.4-4.9-5.4-7-6.2c-2.3-0.8-6.6-0.7-11.7,0.2
		c-5.2,0.9-8.5,2-13.3,4.3c-16.7,8-31.2,24.8-33.5,38.8c-3.5,20.3,0.8,35.9,14.3,52.8c11.9,14.7,25.6,24.2,37.6,25.7l0,0
		c6.3,0.8,12.1-0.3,17.6-3.4c3.1-1.8,8.2-6.7,10.7-10.3c3.7-5.5,7.2-14.1,9.5-23.3c1.2-4.6,1.2-5.3,1.3-9.9c0-6-0.4-7.2-2.9-8.4
		c-1.3-0.6-2.3-0.8-6.8-1c-4.3-0.2-5.7-0.4-7.5-1.1c-0.4-0.1-0.6-0.4-1-0.5c-1.2-0.5-2.4-1.1-3.5-1.9c-0.5-0.3-0.9-0.7-1.3-1.1
		c-0.7-0.6-1.4-1.3-2-2.1s-1.1-1.6-1.6-2.4c-0.4-0.8-0.8-1.6-1.1-2.4c-0.3-0.9-0.6-1.8-0.9-2.8c-0.3-1.3-0.6-2.7-0.7-4.1
		c0-0.3-0.1-0.6-0.1-0.9c-0.2-4.1,0.4-8.3,1.9-13c0.1-0.2,0.1-0.4,0.2-0.7c0.9-2.6,1.9-5.3,3.4-8.4
		C1829.1,680.3,1829.6,678.3,1829.1,676.1z"/>
	<path class="st6" d="M1502.4,1048.5c-5.5,2.6-11.2,4.7-12.7,4.7c-1.4,0-2.6,0.8-2.6,1.9c0,3.8,17.2,1.7,37.6-4.7
		c9.9-3.1,18.2-5,24.9-5.9c2.4-0.3,4.7-0.6,6.8-0.5c4.8,0,8.4,0.8,10.7,2.5c3.5,2.6,3.5,2.8,0.2,6.4c-1.9,2.1-13.7,10.8-26.3,19.3
		c-32.3,21.9-39.3,27.5-36.9,29c4.9,3,51-3.9,73.7-11.1c18.7-5.9,10.5,2.5-39.9,41.1c-46.3,35.4-79,63-74.8,63
		c0.6,0,12.4-3.8,26.3-8.5c28.5-9.5,42.8-12.3,42.8-8.4c0,1.4-16.2,18.8-36.1,38.8s-34.9,36.2-33.4,36.2s9.5-4.2,17.8-9.3
		c7.4-4.5,13.7-8,15.3-8.5l0.8-0.5l-0.3,0.9c0.7,2.4-4.5,15.1-10.2,24.8c-3.4,5.8-14.7,22.7-25.2,37.6c-20,28.3-25.5,37.4-23.7,39.1
		c0.6,0.6,8.9-3.6,18.5-9.3c34.3-20.4,62.3-32.7,67.4-29.5c4.1,2.6-1.4,10.9-28,42.3c-13.1,15.5-26.8,31.8-30.3,36.3
		c-6.1,7.8-6.2,8.1-1.9,6.8c7.2-2.1,35.2-17.5,49.7-27.3c7.2-4.9,26.3-19,42.3-31.3c37.4-28.8,40.8-31.3,42.1-28.9l0,0
		c0.1,0.2,0.2,0.4,0.3,0.7c0,0,0,0.1,0,0.2s0,0.3,0,0.5c0,0.4-0.1,0.8-0.2,1.4c0,0.1,0,0.2-0.1,0.4c-0.9,4.1-4.1,12.6-8.1,21.6
		c-5.2,11.7-10,23.8-10.8,26.9l-1.2,5c0.1,0.1,0.3,0.1,0.4,0.1l3.7-3.3c3.2-2.8,38.9-42.8,42.7-47.8c0.3-0.4,0.9-0.2,1.6,0.3
		c0.3-0.3,0.6-0.4,0.7-0.4c0.1,0.1,0.1,1.1-0.2,2.7c-0.3,8.7-6.7,42.3-12.8,65.8c-5.2,20.2-10.4,33.8-29.8,78
		c-5.2,11.9-10,24.6-10.6,28.2l-1,5.9c0.1,0,0.2,0.1,0.4,0.1l5.1-5.9c3.1-3.6,18.9-28.5,35.3-55.4c69.2-114,91.5-148.3,95.8-145.1
		c0,0,0,0,0.1,0v0.1c0.5,0.5,0.7,1.5,0.7,3c0,6.1-6.6,30.8-17,63.4c-5.1,16.1-9.3,30.2-9.3,31.3c0,1.1,3.5-4.7,7.7-13
		s12.4-22.2,18.1-31c6.3-9.6,8.8-13.3,10.2-13.5c0.4-0.4,0.8-0.7,0.9-0.7s0.3,0.8,0.4,2.1c0.1,0.3,0.2,0.5,0.3,0.8
		c0.7,2.6,0.9,33,0.3,67.7c-1,63.6,0,86.6,3.6,77c3.2-8.5,6.8-28.3,15.5-86.3c13.1-86.8,19.8-115,33.5-140c2-3.6,3.7-6.5,5.1-8.5
		c1.2-1.9,2.2-2.9,3-3c3.8-2.2,5.2,6.5,6,28.8c1,26.2,2.1,26.9,11.6,8.1c8.5-17,16.7-45.8,24.6-87.2c1-5,2-9,2.5-10v-0.1v0.1
		c0.1-0.1,0.2-0.2,0.2-0.2c0.4,0.4,2.1,9.1,3.7,19.4c4.7,29,6.8,37.5,8.5,34.5c0.8-1.5,4.9-12.4,9-24.3c11.1-32.2,17.8-48.2,35-84.6
		c25.9-54.6,33.6-85.7,29.4-118.8c-2.8-21.7-6.2-31.6-16.4-46.9c-13.7-20.6-34.3-37.3-46.2-37.3c-8.5,0-27.6-11.4-40.6-24.2
		c-14.8-14.6-24.6-28.3-30.2-42.1c-3.7-7.9-6-15.5-6-22.1c0-7.9-1.1-13.3-4.8-19.9c-1.8-2.8-4.3-6.1-7.6-10.7c-0.8-1-1.6-2-2.5-3.1
		c-11-13.2-21.7-33.9-26.8-50.2c-1.3-3.8-2.1-7.3-2.5-10.3c-0.3-1.9-0.5-3.6-0.5-5.2c0-2.6-0.1-4.2-0.5-4.9
		c-0.3-0.4-0.7-0.5-1.3-0.3c-1.3,0.7-3.4,3.2-7.2,7.8c-5.2,6.4-9.6,14.6-12.9,23.8c-0.2,0.5-0.3,1-0.5,1.5c-0.8,2.2-1.4,4.5-2.1,6.8
		c-0.4,1.4-0.7,2.8-1,4.2c-0.5,2.3-1,4.6-1.5,6.9c-0.1,0.8-0.3,1.6-0.4,2.4c-1.6,10.1-2.2,20.8-1.4,31.5c0.1,2,0.3,3.9,0.6,5.9
		c0.2,1.4,0.3,2.7,0.5,4.1c0.1,0.6,0.2,1.1,0.2,1.7c4.7,28.8,18.7,53,51.3,90.8c2,2.2,3.9,4.5,6,6.8c18.4,20.4,36.8,43.9,40.9,52.3
		c8.7,18.1,9.5,38,1.9,48.8c-0.1,0.1-0.2,0.2-0.3,0.4c-4.4,6.9-12,12.1-23.4,16.1c-7,2.5-12.6,3.4-21.1,3.2c-3.3,0.1-6.6,0-9.7-0.5
		c-8.6-0.7-11.4-2.2-21.7-9.2c-7.1-4.9-24.1-18.1-37.7-29.4c-13.6-11.3-31.7-25.2-40.3-30.9c-19.8-13.1-44.5-26.5-46.1-24.9
		c-0.7,0.7-0.1,3.9,1.2,7.3c5.1,12.7,5.1,13.2-0.9,12.2c-3-0.5-12.6-3.1-21.4-5.7c-19.5-5.8-48-10.8-60.9-10.8l-9.5,0.1l7.5,4.7
		c4.1,2.6,14.7,8.4,23.5,12.9c18.4,9.4,23.4,12.8,21.6,15.1c-0.1,0.2-0.2,0.3-0.4,0.4c-0.1,0.1-0.1,0.2-0.2,0.2
		c-0.1,0.1-0.4,0.1-0.6,0.2h-0.1c-0.4,0.1-0.9,0.2-1.6,0.3c-0.2,0-0.4,0.1-0.6,0.1c-5.2,0.8-16.5,1.6-29,2
		c-28.3,1-49.6,4.2-61.4,9.1c-5.5,2.3-5.3,2.4,6.6,3.7c6.7,0.7,23.4,1.4,37,1.5c40.1,0.4,65,5.2,67.7,13.2c0.1,0.2,0.1,0.3,0.2,0.5
		v0.1v0.1c0.1,0.4,0.2,0.8,0.2,1.2s-0.3,0.9-0.9,1.4c-2.4,3.8-11.4,8-30.9,14.6c-11.3,3.9-20.6,7.7-20.6,8.4c0,0.8,1.7,2.9,3.8,4.8
		c1.9,1.8,3,3.1,3.3,4.3c1,1.9,0,3.2-3.2,3.7c-1.7,0.7-4,1.3-7.1,1.9C1517.3,1042.8,1507.9,1045.9,1502.4,1048.5z"/>
	<path class="st7" d="M1053.9,936.7c-60.3,22.9-86.9,34.8-105.2,47.3c-131,88.8-169.7,119-208.2,162.6
		c-27.1,30.7-69.1,92.2-66.8,97.9c0.4,0.9,9.5,0.1,20.4-1.8c45.2-7.9,129.6-9,184.8-2.5c24.7,2.9,86.4,3.6,97.1,1.1
		c3.6-0.8,8.5-2.2,10.8-2.9c2-0.7,3.2-0.7,3.7-0.1c0.5,0,0.8,0,0.8,0.2c0,0.1-0.3,0.6-0.7,1.3c-0.7,2.4-3.8,7-9.8,15
		c-7.3,9.7-9.5,13.7-7.5,14.2c4.8,1.1,53.4-5.3,77.9-10.2c50.6-10.1,109.8-39.9,163.5-82.4c9.8-7.8,18.5-14.1,19.3-14.2
		c4.7-0.1-4.1,29.1-17.4,57.7c-8.2,17.5-17.9,30.9-38.7,53c-7.9,8.4-13.9,15.8-13.3,16.4c1.2,1.2,44.6-21,67.1-34.4
		c25.3-15,46.7-32.1,71.5-56.9c27.2-27.2,42.7-49.2,51.1-72.1c3.5-9.6,6.2-15.6,8.3-17.9c0.4-0.6,0.8-1.1,1.1-1.1
		c0.1,0,0.2,0.1,0.3,0.1c3.6-1.1,5.5,11.3,7.2,39.3c1.1,17.9,2.7,32.2,3.6,31.6s8.3-14.2,16.4-30.4l14.7-29.4l5.1,22.1l5.1,22.1
		l8.7-8.1c16.4-15.3,26.6-21.6,26.6-16.6c0,0.9-4.7,7.5-10.5,14.6s-12.1,16-14.1,19.8l-3.6,7l5.7-1.1c10.1-2,7.4,4.2-11.2,25.6
		c-15.9,18.3-24.7,30.8-36.9,52.5c-4.7,8.3-9.9,16-16.1,23.8c-4.3,5.5-9.1,10.9-14.9,16.6c-11,11.1-24.8,23.2-43.1,38
		c-17.4,14-32,26.7-32.5,28c-0.5,1.4,0.7,3,2.7,3.7c2,0.6,3.7,1.9,3.7,2.8c0,2.1-7.1,10.8-22.9,27.9c-7,7.6-15.4,17.2-18.8,21.4
		l-5.3,6.7c0.1,0.3,0.1,0.6,0.3,0.8l8.2-0.8c5.1-0.5,18.9-4.6,30.5-9c8.2-3.1,15.5-5.5,19.3-6.5c1.8-0.7,3-1.1,3.2-1.1
		c0.1,0,0,0.4-0.3,1c-0.2,1.5-3.8,7.8-8.6,14.9c-5.3,7.8-10.1,15.6-10.8,17.3l0,0c-0.9,2.5-0.3,2.8,3.3,1.6
		c14.1-4.4,57.8-30,88.2-51.6c26.1-18.6,30.8-22.9,35.7-32.8c2.1-4.2,14.4-21.2,27.3-37.7c22.1-28.3,47.1-63,45.4-63
		c-0.4,0-9.9,4.3-21,9.6c-16.1,7.7-22.6,9.8-32.7,10.6c-6.2,0.5-9.8,1-10.1-0.1h-1.3l2-1.4c1.8-2.3,7.7-7.1,18.6-16.2
		c18-15.1,69.5-66.3,66.7-66.2c-1,0-9.9,2.6-19.7,5.7c-20.3,6.4-40.1,9.1-42.2,5.7c-4.4-7.2,72.8-71.3,107.9-89.7l9.4-4.9
		c0-0.2,0.1-0.3,0.1-0.5l-7.2-0.5c-4.4-0.3-19.4,0.7-33.3,2.3c-19.3,2.2-30.6,3.1-35.5,2.7l-3.5,0.3l0.8-1c-0.2-0.1-0.4-0.2-0.4-0.4
		c0-0.7,3.8-5.6,8.3-11c9-10.5,27.9-26.6,44-37.4c5.5-3.7,8.8-6.8,7.2-6.8c-1.6,0-15.4,3.7-30.7,8.3c-36.3,10.8-38.2,11.2-38.2,8.2
		c0-5.3,9.5-16.2,15.9-18.3c3.6-1.2,6.4-3.1,6.1-4.3c0-0.1,0.1-0.1,0.1-0.2v-0.1c0.5-1.4,6.1-5.1,13.1-8.6l13.6-6.8l-7.9-2.8
		c-4.3-1.5-8.2-3.7-8.6-4.9c-0.7-2,7.5-5.6,40.6-17.6c10.7-3.9,11.5-4.5,7.7-6c-2.4-0.9-25.4-3.3-51.1-5.4
		c-25.7-2.1-49-4.7-51.8-5.7l-5.1-1.9l4.7-3.8c7.6-6.2,24.8-14.2,37.7-17.5c9.4-2.4,49.4-8,60.9-8.5c4.1-0.2-5.2-3.9-27.6-11.2
		c-24.7-8-32-11.7-28.8-14.7c6.3-6,43.3-10,73.3-8c10.3,0.7,19,1.2,19.2,1c0.2-0.1-3.7-3.4-8.8-7.3c-23.7-18.1-63.6-36-95.9-43.2
		c-16-3.5-23.7-3.9-75.2-3.9h-55.2c-2.1,0.2-4.1,0.4-6.2,0.6l-82.4,12C1142.7,904.4,1132.2,907,1053.9,936.7z"/>
	<path class="st8" d="M740.3,2171.4v5.7h-2.4c-1.3,3-2.5,6-3.7,8.9c-22.3,53.2-32.8,76-38.9,84.3c-11.4,15.5-31.9,28.7-53.9,34.6
		c-5.5,1.5-16.9,4.5-25.4,6.8c-16.2,4.3-31.2,10.9-33.6,14.9c-1,1.6-1,3,0,4.6c3,4.7,5.3,5,16.1,2.4c7.4-1.8,15.2-2.5,27-2.5
		c26.7,0,37.7,4.2,59.3,22.8c32.6,27.9,44.5,35,61.7,36.8c31.3,3.1,120.8,43,138.7,61.8l0,0c4.7,4.9,6.1,5.1,6.1,1
		c0-5.7-9.3-22.1-17.1-29.9c-9.8-9.9-16.5-14.4-40.6-27l-20-10.5l12.6,0.8c22.1,1.5,29.4,4.1,46.8,16.9
		c11.6,8.5,17.8,12.3,22.3,13.6c3,0.9,2.8,0.4-2-4.6c-21.1-22-70.4-40.5-117-43.7c-10.8-0.7-18.8-2-21.3-3.2
		c-6.3-3.2-19-17.5-22.5-25.2c-15.5-34.3-5.6-98.9,26.3-170.5c7.8-17.5,18-39.3,29.2-62.7v-52.7c-8.8,25.5-16.9,45.9-28.3,71.5
		C756,2134.3,748.1,2152.8,740.3,2171.4z"/>
	<path class="st8" d="M980.7,1679.9c-27.3,35.3-55.2,72.1-74.2,98.3c-5.8,8-15.7,19.9-22.1,26.5c-16,16.6-16,16.6-19.2,46
		c-4.6,42.6-10.1,63.1-24.9,88.8h4.3v16.8c8.5-7.5,18-13.1,28.6-16.7c5.2-9.4,9.4-16.6,12.3-20.9c2.7-4.2,9.8-12.4,15.7-18.4
		s12.3-13.8,14.3-17.4c4.3-8,7.6-21.1,7.6-30.9c0.1-20.1,4.9-33.3,27.2-74c38.2-69.9,68.2-114,105.6-154c0.2-0.2,0.5-0.5,0.7-0.7
		c3-3.2,6.1-6.4,9.2-9.6c1.4-1.5,2.9-2.9,4.3-4.4c26.1-26.1,45.7-42.3,83.8-69.5c54.1-38.6,86.9-71.3,75.2-75.1
		c-1.3-0.4-10.1,1.9-19.4,5.2c-21.7,7.7-59,16.8-114.3,28c-24.1,4.9-43.9,8.9-44,9s0.9,5.6,2.3,12.1c1.6,8,2.5,18.5,2.5,28.4
		c0,1.6,0,3.1,0,4.6c0,2.1-0.2,4.1-0.4,6.2c-0.3,4.9-0.9,9.2-1.8,12.2C1047.8,1590.4,1033.6,1611.8,980.7,1679.9z"/>
	<path class="st8" d="M1268.1,1475.5c0.4-2,0.2-3.7-0.5-3.7c-1.8,0-42.9,34.6-43.8,36.8c-0.4,1,2.9,11,7.3,22.1
		c8.8,22.1,12.5,36.1,15.5,59.4c1.9,14.3,2.9,26.6,8.1,96.3c5.5,73.5,13.4,123.5,26.8,161.9c1.7,0,3.3-0.2,4.9-0.2
		c29.3,0,54.2,4.3,74.1,12.7c-6.5-9.8-15.4-21.4-28.2-37.1c-22.1-27.1-31.4-49.3-43.8-104c-14.2-63.2-21.9-114.8-24.2-162.7
		c-0.7-11.7-0.9-22.6-0.8-32.6C1263.4,1502.4,1264.6,1491.4,1268.1,1475.5z"/>
	<path class="st8" d="M1522.3,2256.8c2.9,15.9,6.9,34.5,8.8,41.3s3.3,12.5,3,12.8c-0.3,0.2-9.5,5.7-20.4,12.1
		c-40.1,23.6-56.5,36.4-56.5,44.4l0,0c0,2.2,0.3,4,0.8,4s17-6.2,36.9-13.8c52.2-20,52.4-20,67.1-15.4c13,4.1,15.4,3.8,26.5-4
		c0.1-0.1,0.2-0.2,0.3-0.2c0.2-0.2,0.4-0.3,0.7-0.5c2.3-1.6,4.1-2.3,14.3-2.4c5.6-0.2,13.1-0.2,23.4,0c0.5,0,0.9,0,1.4,0
		c34.8,0.2,77.2,2.9,100.4,6.4c6.6,1,18.9,2.8,27.4,4.1s16.5,1.9,17.8,1.4c2.1-0.8,1.9-1.4-2-5.5c-5.9-6.1-20.1-12.9-38.2-18.2
		c-8.1-2.4-14.8-4.7-14.9-5.2l-0.5-0.2h0.9c1.9-0.5,10.7-1.2,21.2-1.6c11.9-0.5,29-1.3,38-1.8l16.4-0.9l-12.4-7.5
		c-23.4-14.2-19.9-13.7-93.4-13.8c-13.5,0-24.2,0-33.1-0.1c-5.3,0-10.1-0.1-14.5-0.2c-20.9-0.5-25.8-1.7-33.4-4.8
		c-6.2-2.6-9.3-6.4-16.8-20.6c-8.3-15.8-27.2-42.1-60.5-84.5c-29-36.8-49.2-63.4-65.4-86.6v36.9c1.4,2.1,2.7,4.2,4.1,6.2
		C1509.9,2199.8,1513.2,2207.2,1522.3,2256.8z"/>
	<path class="st8" d="M1378.1,1909.2c-1.9-13.6-4.2-23.5-9.5-34.3v53.3l-16.5-9.2c-13-7.2-27-12.1-41.9-14.6c1,1.4,2,2.9,3.1,4.3
		c4,5.3,15.1,18.5,24.6,29.2c9.5,10.8,18.3,21.4,19.4,23.6c3.4,6.7,25.3,41.7,50.6,81.6v-43.9c-9.5-18.5-17.9-36.2-20.7-44
		C1383.2,1944.5,1382.4,1940.1,1378.1,1909.2z"/>
	<path class="st1" d="M463.2,1767.2c0,3.7,1.1,5.1,3.5,4.4c2-0.6,15.2-9.3,22.1-14.5c26.5-20,56.6-49.4,102.4-100.1l15.3-16.9
		l1.2-19.3c2.5-41.3,5.6-62,14-94c2.4-8.9,4.2-16.4,4-16.5c-0.4-0.4-7.3,5.8-19,16.9c-22,20.9-32.5,30.2-34.3,30.2
		s-2.3-3.5-1.9-12.3c0.6-13.7,4.5-35.8,9.4-53.7c4.4-16.2,15-41.2,33.7-79.8c14.2-29.2,19.8-42.2,19.8-45.7c0-0.3-1-0.4-2.3-0.2
		c-3.2,0.6-4.7-1-4.1-4.5c1.4-8.6,11.6-25.9,34.3-58.3c10.8-15.3,19.2-28.7,19.2-30.3c0-0.6-0.8-0.9-2-0.9c-7,0-34.9,17.2-57.4,35.3
		c-45.5,36.6-140.3,125-163.2,152c-39.5,46.8-87,121.5-108,170.1c-4.5,10.4-8.3,21.7-8,24.2c0.2,1.8,0.5,2.1,2.3,2.2
		c1.2,0.1,6.8-0.6,12.6-1.5c5.7-0.9,10.4-1.6,10.7-1.4h0.1l-0.2,0.2c-0.2,0.6-2.3,3.9-5.2,7.9c-12.5,17.6-22,36.5-28.4,56.1
		c-3.5,11-4.1,14.3-4.5,26.3l-0.3,9.9v1.6h1.9c1.1,0,7.4-0.5,14.2-1c15.4-1.2,24-1.3,25.1-0.2c1.2,1.2,1,2.3-1.3,8.2
		c-3.9,9.9-1.4,15.4,7.9,17.6l0,0c6.2,1.5,18.3,0.4,31.7-2.9c3.7-0.9,15.8-4.6,27.1-8.3c10.4-3.4,16.9-5.5,21-6.2
		c0.2,0,0.3-0.1,0.5-0.1c0.3-0.1,0.6-0.1,0.9-0.2c1.5-0.2,2.5-0.2,3.2,0.1C463,1762.2,463.2,1764.1,463.2,1767.2z"/>
	<path class="st4" d="M784.4,1573c0.9,1.2,1.1,1.2,4.7-1c4.8-2.9,20.3-18.6,33.6-34.2c15.2-17.7,22.4-24.9,24.8-24.9
		c1.1,0,0.8,2.9-0.9,8.4c-2.8,9.1-3.6,14.4-3.6,25.1c0,7.3,0.2,9.9,1.1,11.8c1,2.3,1.2,2.5,2.6,1.7c2.9-1.5,14.8-13.8,28.3-29
		c7.5-8.5,13.8-15.3,13.9-15.2c0.1,0.1,0.5,6.3,0.9,13.8c1.1,21.4,2.2,27.2,5.3,27.2c2.1,0,6.4-2.5,9.2-5.2
		c16-16,39.9-72.9,52.9-126c5.4-22.2,5.4-23.8,0.1-22.3c-1.5,0.4-3.2,0.6-4.8,0.6c-0.8,0-1.5,0-2.2,0c-2.4-0.2-4.6-0.8-6-1.8
		c-3-2.1-5.3-7.4-5.4-12c0-5.2-0.7-8.7-1.8-9.1c-0.5-0.2-2.7,0.4-4.9,1.4c-4.6,2.1-8.5,2.8-12.1,2.4c-1.2-0.1-2.4-0.2-3.4-0.5
		c-0.9-0.3-2-0.8-3.2-1.6c-0.6-0.3-1.2-0.5-1.8-0.9c-8.1-5.5-21.5-20.5-25.4-28.2c-1.1-2.1-2.3-3.9-2.7-3.9c-1.1,0-3.3,1.3-7.6,4.7
		c-10.9,8.5-18.8,9.8-29.4,4.6c-7.2-3.5-14.6-12.7-18-22.2c-0.5-1.5-1.2-5.3-1.5-8.6c-0.3-3.2-0.9-6.2-1.3-6.6
		c-0.5-0.5-1.8-0.2-4.6,1c-6.4,2.9-12.1,3.8-25.7,4.2l-12.6,0.4l-1.8-20.2c-1-11.1-2.4-27.3-3.1-36c-0.7-8.7-1.4-16-1.7-16.3
		c-0.4-0.4-26.9-1.5-52.6-2.2l-7.4-0.2l-8.9,10.6c-10.2,12.1-16.8,21.1-27.4,37.2c-7.1,10.7-29.8,47.5-30.6,49.6
		c-0.3,0.8,1.3,1.1,9.5,1.9c5.4,0.5,10.3,1.1,11,1.3c0.1,0,0.1,0.1,0.1,0.2l0.7,0.1l-1.7,2c-1.4,2-4.4,5.8-10,12.5
		c-15,17.9-22,27.1-30,39.2c-19.9,30.4-37,67.4-44.7,96.9c-4.1,15.6-1.2,15,19.6-4.1c19.3-17.7,33.3-29,43.5-35.2
		c2.4-1.5,4.6-2.4,6.2-2.9l0,0c0.1,0,0.2,0,0.4-0.1c0.6-0.2,1-0.2,1.3-0.1c0.6,0,1.1,0.2,1.1,0.7c0,0.4-2.8,6.2-6.3,12.8
		c-3.4,6.6-7.7,15.8-9.6,20.4c-8,20.1-17.6,51.5-21.5,70.1c-1.9,9.2-2.1,11-2.1,23.3c0,12.7,0,13.5,1.6,17.3
		c1.8,4.4,3.2,5.2,5.4,3.2c0.7-0.7,6.5-8.1,12.8-16.5s12-15.7,12.7-16.3c1.2-1,1.2-0.5,0.8,11.3c-1.2,33.1-1.3,38.9-0.5,42.5
		c0.4,2,1.1,4,1.5,4.5l0,0c1,1.2,1.8,1.1,4.5-0.8c7.6-5.3,23.7-29.6,40.9-61.8c15.4-28.9,20-36.4,22.8-36.7
		c3.1-0.4,3.4,2.1,4.2,30.4c0.6,21.7,1.2,30.7,2.2,31.7c1.1,1.1,9.8-9.3,25.6-30.4c11.6-15.5,16.6-21.8,22.2-27.8
		c2.1-2.2,3.5-3.5,4.6-3.8c0.2-0.1,0.5-0.3,0.6-0.3c0.2,0,0.4,0.2,0.5,0.3c0.1,0,0.1,0.1,0.2,0.1l0.1,0.1c0.6,0.4,1.1,1.4,1.5,2.9
		c0.2,0.6,0.4,2.3,0.6,4.5c0.4,2.9,0.7,6.3,0.8,10.2c0.3,5.5,0.6,11.6,0.7,16.5C783.5,1570.7,783.9,1572.3,784.4,1573z"/>
	<path class="st9" d="M1841.5,701.7c1.2,1.9,3.7,3.4,5.6,3.4c4.5,0,4.6-13.8,0.2-16.5C1843.3,686.1,1838.6,696.9,1841.5,701.7
		L1841.5,701.7z"/>
	<path class="st9" d="M762.2,2118.9c8.6-18.9,19.9-48,25.7-65.5v-32.6c-10.6,24.6-21.7,50.8-31.1,74c-5.7,14.2-11.3,27.6-16.6,40.4
		v34.4C748.3,2150.5,756.7,2131.2,762.2,2118.9z"/>
	<path class="st9" d="M1043.3,928.2c-167.3,61.4-321.1,189.4-388.7,323.5c-9.1,18-17.1,27.8-30.4,37.4
		c-148.3,106.5-243.6,221.2-295,355.3c-13.3,34.6-13.8,39.1-4.5,36.7c6.5-1.7,6.4-0.2-1.8,23.6c-9.8,28.9-11.4,59.6-3.6,70.3
		c4,5.5,9.3,7.1,21.9,6.6c13.8-0.5,16.4,0.4,15.1,5.6c-0.8,3.4,0.2,8.7,2.2,11.8c6.6,10.1,55.8,5.1,90.1-9.1c5-2.1,5.8-1,4.2,5.1
		c-6.2,23.7,35.4-5.8,73-51.7c16.5-20.2,37-42.7,45.4-49.9c13.2-11.3,68.9-43.2,75.4-43.2c1.2,0,2.2,3.2,2.2,7.2
		c0,22.8,17.9,4,43.6-45.6l17.7-34.2l4.1,27c2.2,14.8,5,27.9,6.1,29.1c1.1,1.1,8.8-6,17.1-15.8s19.3-22.9,24.5-29.1l9.4-11.2
		l0.1,15.8c0.1,8.7,1.5,15.8,3.3,15.8c5.3,0,32.4-20.9,40.5-31.2c9.9-12.5,11.4-12.2,12.8,2.4c0.9,9.4,3.1,12.4,9.9,13.3
		c6.5,0.9,13.4-3.6,27-17.7c10-10.4,18.2-17.2,18.2-15.1s2.5,9.9,5.6,17.3l5.6,13.5l9.7-9c5.3-4.9,14.6-17.6,20.5-28.1
		s13.7-20,17.3-21c3.5-1,25-6.9,47.8-13l41.4-11.1l8.3,17.8c7.4,15.7,7.8,19.3,3.8,31.5c-2.5,7.6-20.1,34.5-39.1,59.7
		c-19,25.3-46.8,65.7-61.8,89.8c-15.4,24.8-38.8,56-53.8,71.9c-14.6,15.4-29.1,33-32.2,39.1c-3.1,6.1-6.5,25.4-7.5,42.8
		c-1.6,28.3-3,33.9-24.1,77.3h15.1c14-23.3,21.1-48.9,24.6-87.6c2.8-30.5,3.6-32.7,15.8-43.4c7.1-6.2,20.9-23,30.7-37.4
		c9.8-14.3,40.8-55.4,68.9-91.2c57.6-73.6,73.2-98,75.6-121.7c0.2-2,0.3-4.1,0.4-6.2c0-1.4,0-3,0-4.6c-0.2-9.8-1.3-21.5-2.8-27.8
		l-3.1-13.3l67.2-13.5c37-7.4,77.4-17.6,89.8-22.6c19.2-7.8,23-8.3,24.8-3.6c3.2,8.4-32.6,42.6-75.2,71.8
		c-33.5,23-61.5,45.5-86.7,70.7c-1.4,1.4-2.9,2.9-4.3,4.4c-3.1,3.2-6.2,6.3-9.2,9.6c-0.2,0.2-0.5,0.5-0.7,0.7
		c-37.1,40.2-69,88-105.2,154.7c-21.4,39.4-26.3,51.5-26.4,65.1c-0.1,27.9-6.3,43-24.1,58.7c-7.4,6.6-14.1,15.1-26.4,37.1
		c7.7-2.6,15.9-4.2,24.7-4.7c1.3-2,2.6-4,3.8-5.8c29.6-44.4,35.8-57.8,38.7-83.4c5.2-46.2,14.9-63.7,91.4-165.5
		c62-82.5,83.8-104.4,136-136.8c32.5-20.1,37.4-22.1,41.4-16.9c6.8,8.9,14,48.7,29,161.1c11.2,84.1,18.8,132,26.4,162.1
		c5.1-0.6,10.2-0.9,15.5-1c-15.2-43.5-23-101.5-28.8-193c-4.6-72.5-8.9-97.2-21.4-125.3c-5.3-11.8-8.9-21.9-8.1-22.4
		s12.2-10,25.4-21.2c20.4-17.3,23.5-18.9,21.3-11.1c-3.4,12.2-5.2,29-5.5,49.1c-0.1,10.1,0.2,21,0.8,32.6
		c2.1,36.3,7.9,79.8,17.2,126.9c16.2,81.7,25.9,109.1,48,135.5c14.9,17.9,25.2,30.8,32.4,42c0,0,0,0,0.1,0l6.6,2.9v8.6
		c7.5,14.8,10,28.4,12,50.1c2.1,22.1,6,33.2,25.2,71c0.7,1.4,1.4,2.7,2.1,4v-36.5c-3-9.2-3.6-18.2-4.5-36.2
		c-2.5-50.5-10.3-66.4-51.3-105c-30.5-28.7-33.2-32.6-40.7-56.9c-8.7-28.3-24.6-123.5-29.5-176.9c-1.7-18.3-1.7-48.6,0.1-67.3
		c5.5-59.4,4.7-57.6,34.5-76.7c14.6-9.3,45.4-31.4,68.6-49c35.6-27,113.4-78.5,118.6-78.5c2.9,0-33.9,45.3-58,71.4
		c-21.8,23.6-22.9,25.5-13,23.1c39.4-9.5,75.5-30,119.8-68.1c14.7-12.7,26.8-21.7,26.8-20c0,4.4-28.2,51.9-43.4,73.1l-13.2,18.3
		l12.5-8.7c6.8-4.8,27.3-23,45.4-40.5c32.3-31.2,32.9-31.6,30.3-18.8c-4.3,21-25.2,72.2-53.3,131.2c-28.6,59.9-27.9,62.7,7.9,29.3
		c25.8-24.1,45.7-53.4,78.7-115.7c15.7-29.6,29.3-54.6,30.1-55.5c4.6-4.6,4.7,4.7,0.1,27.8c-6.8,34-11,93.7-6.2,88.9
		c2-2,10.9-26.2,19.9-53.8l16.3-50.2l2.5,42.8c2.3,38.8-1.1,105.3-6.8,132.6c-2.1,10.3-2,10.2,5.2-2.3
		c24.4-42.4,37.9-90.5,45.3-160.7c4.4-41.5,12.2-77.3,20.3-92.2c4.6-8.5,5.1-5.9,5.4,27.8l0.3,37.2l10.5-22.6
		c5.8-12.4,15.9-37.5,22.5-55.8c18.8-51.8,18.9-51.8,17.7-10c-0.6,21,0.2,35.9,1.7,33.2c1.5-2.7,10.6-29.1,20.1-58.6
		c9.6-29.5,23-64.9,29.9-78.7c19.7-39.3,34.3-78.7,38.2-102.9c7.3-45.3-8.7-97.5-39-127.2c-9.1-8.9-16.5-19.6-16.5-23.7
		c0-9.9-13-31.2-26.3-42.9c-9.8-8.7-10.2-10.1-6.1-22.2c2.5-7.4,10-16.7,17.5-21.8c12.7-8.7,14.5-8.9,67.5-6.9
		c30,1.1,60.9,0.5,68.8-1.3c9.2-2.1,18.8-1.9,26.7,0.7c16.3,5.3,18.6,2,10-13.9c-8.2-15.2-23.8-28.1-57.7-47.8
		c-13.3-7.7-24.6-14.4-25.1-14.8c-0.5-0.4,2.4-7.3,6.5-15.3c8.8-17.3,9.2-27.8,1.8-52.6c-11.2-37.6-49.4-67.6-79.4-62.3
		c-16,2.8-43.5,17.7-48.2,26.2c-2,3.7-4.1-20.6-5.4-64.3c-1.2-38.6-3.7-74.1-5.5-79.1c-3.1-8.3-3.7-7.7-8.2,8.3
		c-4.4,15.9-11.3,20.6-11.3,7.7c0-3-2.8-11.7-6.1-19.3l-6.1-13.8l-4.2,22.3l-4.2,22.3l-14.6-29c-16.6-32.9-24.5-42.2-24-28.2
		c0.2,4.9,1.5,18.5,3,30.2c3.2,25.4-2,28.5-14.4,8.4c-7.7-12.5-25.8-29.5-28.6-26.7c-0.7,0.7,1.2,8.6,4.3,17.4
		c3.1,8.8,5.1,16.7,4.3,17.4c-0.7,0.7-11.7-7.9-24.4-19.2c-12.7-11.3-24.7-20.5-26.7-20.5s-0.3,6.6,3.9,14.7
		c4.1,8.1,7.5,15.7,7.5,16.8c0,1.1-8.5-2.3-19-7.5c-10.4-5.3-19.9-8.7-21-7.5c-1.1,1.1,3.9,11.7,11.2,23.5c7.3,11.8,13,21.7,12.7,22
		s-15.4-4.4-33.6-10.5s-33.6-10.4-34.4-9.6s4.3,8.2,11.4,16.5s12,15.9,10.9,17c-1.1,1.1-12.3,1.2-25,0.2l-23-1.8l18.6,17.3
		c10.2,9.5,15.7,16.4,12.1,15.3c-3.6-1.1-15.1-3.2-25.7-4.6c-21.5-2.8-21.5-2.8-1.9,21.8c6.1,7.7,10,15,8.7,16.3s-11.2,0.6-22-1.5
		c-10.8-2.2-20.5-3-21.5-2s6.3,9.3,16.2,18.3l18,16.4h-18.7c-10.3,0-19.7,1.6-21,3.6c-1.2,2,7.3,9.9,19,17.7l21.2,14.1l-20.1,2.8
		c-29.3,4.1-29.6,4.6-7.1,11.9c22.9,7.4,30,12.1,22,14.5c-49.4,14.7-49.9,22.9-1.4,22.9c17.3,0,31.4,0.8,31.4,1.9
		c0,1-12.1,7.7-26.9,14.9c-14.7,7.2-27.3,14.9-28,17.2c-1.2,4.2,0.4,4,41.5-4.2l14.5-2.9l-19.8,19.1c-10.9,10.5-18.9,20-17.7,21.1
		c1.1,1.1,12.9-3.9,26.1-11.1c13.2-7.3,24.9-13.2,26.1-13.2c1.1,0-2.3,8.3-7.7,18.3c-16.3,30.5-7.2,29.2,34.5-4.9
		c18-14.7,32.5-22.9,53.2-29.8c15.6-5.3,29-9,29.7-8.3s-2.4,9.5-6.8,19.5c-6,13.5-8,25.3-7.9,45.6c0.2,39,19.3,76.8,61.5,122
		c35.1,37.6,45.7,53.2,49.3,72.8c2.3,12.2,1.2,15.2-8.7,25.1c-10.6,10.6-20.1,13.3-39.7,11.4c-12.3-1.2-35.4-16.8-68.8-46.5
		c-34.1-30.3-61.4-45.9-132.5-75.9c-67.3-28.3-85.4-32-157.7-31.7c-53.4,0.2-71.5,2-139.5,14
		C1164.2,892.6,1092.2,910.3,1043.3,928.2z M606.8,1640.2l-31.1,34.4c-34.6,38.3-69.5,71.1-93.1,87.4c-18.3,12.7-19.8,13-19.8,3.8
		c0-2.3-0.3-3.7-1.7-4.2c-0.7-0.3-1.8-0.3-3.2-0.1c-0.3,0-0.6,0.1-0.9,0.2c-0.2,0-0.3,0.1-0.5,0.1c-4.4,0.9-11.8,3.4-24.3,7.8l0,0
		c-49.1,17.1-73.6,13.5-63.2-9.2c3.7-8.2,3.5-8.3-18.1-6.8l-21.9,1.6v-0.5v-1.6v-14.2c0-16.7,14.6-52.7,30.5-74.9l7.9-11.1l0.2-0.2
		h-0.1l-13.8,2.2c-13,2.1-13.7,1.7-11.5-5.9c12.4-42.8,70.6-138,117.6-192.7c22.9-26.6,111.3-108.9,158.7-147.6
		c27.5-22.5,58.6-40.9,62.5-37c1,1-7.6,15-19.1,31.1c-31.1,43.2-42.4,67.1-29.4,62.1c3.8-1.4-2,13.5-16.3,42
		c-12.2,24.3-26.7,56.8-32.2,72.1c-9.7,26.8-17.2,78.1-11.5,78.1c1.5,0,14.3-11.2,28.4-24.8c14.1-13.6,25.6-24.1,25.6-23.3
		c0,0.8-3.4,14.1-7.6,29.4c-4.1,15.3-8.6,44.5-9.8,64.8L606.8,1640.2z M900.9,1554.8c-8.5,5.3-10,2.6-11.1-19.6l-0.9-19.4
		l-19.9,22.5c-10.9,12.4-21.4,22.5-23.3,22.5c-4.5,0-4.3-26.9,0.4-39.1c5.7-15-0.9-10.2-24.9,18.3c-11.9,14.1-25.4,28.1-30,31.1
		c-8.4,5.4-8.4,5.4-8.4-15.4c0-1,0-1.9-0.1-2.9c-0.1-3.9-0.4-7.3-0.8-10.2c-0.5-3.7-1.3-6.4-2.2-7.4l-0.1-0.1
		c-0.1-0.1-0.1-0.1-0.2-0.1c-0.2-0.1-0.3-0.3-0.5-0.3c-0.1,0-0.4,0.2-0.6,0.3c-3.1,1.6-14.3,15-26.2,31.3
		c-12.6,17.4-24.3,31.6-26,31.6c-1.6,0-3-15.5-3.1-34.4c-0.1-40.3-0.6-40.1-28.3,12.4l0,0c-9.3,17.5-22.5,39.1-29.5,47.9
		c-15.4,19.4-18,15.8-15.8-22.2c0.8-14.3,1.1-26,0.7-26c-0.4,0-7,8.6-14.7,19.1c-13.6,18.5-14.1,18.8-17.4,10.2
		c-1.9-4.9-2.3-18-1.1-29.1c2.6-23.3,21.4-81.8,32-99.9c4-6.8,7.2-13.1,7.2-14c0-0.5-0.3-0.8-0.8-0.8c-0.3-0.1-0.8,0-1.3,0.1
		c-0.1,0-0.2,0-0.4,0.1l0,0c-7.1,2.3-27.5,17.7-45.9,35c-28.6,27-30.5,25.8-18.2-10.9c12.1-36.1,35.5-78,59.3-106.4l20.2-24l1.7-2
		l-0.7-0.1l-10.5-1.1l-11.3-1.2l19.8-32.5c10.9-17.9,26.2-40.1,34.1-49.4l14.3-16.9l30.4,1.1l30.4,1.1l0.9,13
		c0.5,7.2,1.9,23.5,3.1,36.3l2.2,23.3h14.8c8.2,0,18.1-1.7,22-3.9c6-3.2,7.2-2.6,7.2,3.5c0,12.5,8.4,26.6,19.1,32.2
		c10.9,5.6,19.4,4.1,30.8-5.5c5.7-4.8,7.4-5,8.8-0.9c2.6,7.5,18.7,25,27.6,30.6c1.2,0.8,2.3,1.3,3.2,1.6c1,0.3,2.1,0.5,3.4,0.5
		c3.7,0.2,8.2-0.7,11.3-2.4c6.8-3.7,7.6-3,7.6,7c0,8.4,4.5,13.7,11.2,14.5c0.7,0.1,1.4,0.1,2.2,0c1.9-0.1,3.9-0.4,6.1-1.2
		c4.7-1.8,4.3,3.2-2.9,30.6C941.2,1488.8,915.7,1545.5,900.9,1554.8z M1208.1,1440.7c-14.9,17.9-17.1,19.1-48.4,26.5
		c-40.9,9.7-61.6,13.4-120.2,21.4c-25.6,3.5-57,10.3-69.8,15.1l0,0c-12.8,4.8-24,8.8-24.8,8.8c-2.4,0,22.6-93.3,30.6-114.3l6.2-16.2
		l1.2-3.2l-1.5,0.8l-9.1,4.7c-10,5.2-11,5-16-2.9c-2.9-4.6-6.5-12.3-7.9-17.1l-2.6-8.7l-10.1,9.7c-5.5,5.3-12.8,9.7-16.1,9.7
		c-8.4,0-20.8-16.8-23.6-32c-0.5-2.7-1.2-5.4-2-7.7c-1.2-3.6-2.5-6.3-3.6-7c-0.6-0.4-1.9-0.2-3.7,0.3c-3.5,1.1-8.9,3.7-14.4,7.1
		c-8.2,5.2-16.7,9.4-18.9,9.4c-5.5,0-14.8-23.3-14.8-37.1c0-2-0.1-3.7-0.3-5.1c-0.5-4.4-2-6.1-5.8-5.5c-3.1,0.5-7.6,2.4-14.3,5.6
		c-16.3,7.8-19.9,4.8-23.6-19.6c-4.3-27.8-2.3-32.6,11.8-29.5c6.5,1.4,41.8,3.3,78.4,4.1c36.7,0.8,67.4,2.3,68.4,3.2
		c0.9,0.9-4.8,5.5-12.7,10.2l-14.4,8.5l20.4,3.1c3.6,0.6,7.9,1,12.7,1.2c19.5,1.1,47.4,0.1,71.5-2.5c14-1.5,26.8-3.5,35.8-5.8
		c29.4-7.6,54.5-20.5,106.8-55c23.5-15.5,43.2-27.6,43.8-27c0.6,0.6-1.4,8.2-4.5,16.9c-11.6,33-48.1,71.6-85.9,91l-18.3,9.4h5h9.9
		c6.6,0,14-0.8,22-2.4c30.4-6,69.1-23,102.6-45.8c5.7-3.9,11.7-8.4,17.9-13.5c15.2-12.4,31.3-28,45.9-44.1
		c12.4-13.7,23.7-27.8,32.3-40.7l19.3-28.8v42v42l9.7-12.8c5.3-7,14.3-22.3,19.9-33.9l10.2-21.1l3.7,20.5c3.5,19.5,3.2,21-6.1,30.4
		c-5.4,5.5-16.9,22.9-25.5,38.8c-13.6,24.8-21.5,33.7-57.1,64.1c-48.9,41.7-80.5,80.1-65.8,80.1c2.3,0-3.1,8.1-12.1,18
		C1231,1413.8,1216.7,1430.4,1208.1,1440.7z M1847.1,861.5c3.2,4.8,5.1,8.8,6.8,13.7c1.2,3.5,1.4,4.7,1.6,8.7
		c0.2,5.5-0.5,9.5-2.2,13.1c-2.1,4.4-5.9,5.7-11.1,3.8l0,0c-8.1-2.9-20.1-12.7-36.2-29.5c-16.5-17.2-29.5-37.1-30.5-46.8
		c-0.6-5.3,2.3-7.7,7.6-6.3c5.5,1.4,17.1,6.1,26.5,10.7C1824.5,836.1,1838.3,848.1,1847.1,861.5z M1776.6,762.3
		c-16.2-18.4-21.2-34.4-17.7-56.5c2.9-18,25.3-39.5,45.2-43.3c12.5-2.3,15.3-1.5,20.9,5.8c5.7,7.6,5.8,9.7,1.2,18.7
		c-1.3,2.5-2.3,5-3.1,7.4c-0.1,0.2-0.1,0.4-0.2,0.7c-1.5,4.9-2.1,9.6-1.8,13.8c0.1,1.4,0.4,2.8,0.7,4.1c0.2,1,0.5,1.9,0.9,2.8
		c0.3,0.8,0.7,1.7,1.1,2.4c0.5,0.9,1,1.7,1.6,2.4c0.6,0.8,1.2,1.5,2,2.1c0.4,0.4,0.8,0.8,1.3,1.1c1,0.8,2.2,1.4,3.5,1.9
		c2.2,0.9,4.7,1.5,7.6,1.5c9.6,0,11,1.4,10.9,10.2c0,5.6-3.2,17.1-7,25.5l0,0C1830.5,791.8,1802.3,791.4,1776.6,762.3z
		 M1855.4,711.4c-6.2,18.7-27.1,13.9-27.1-6.2c0-11.2,9.4-26.1,16.5-26.1C1852.7,679,1859.4,699.3,1855.4,711.4z M2015.3,780.7
		c-0.2,3-35.1-6.7-65-15.5c-15.8-4.7-28.9-9.4-37.8-12.2c-1.2-0.4-2.3-0.7-3.2-1c-0.7-0.2-1.3-0.4-1.9-0.5c-0.1,0-0.2-0.1-0.3-0.1
		c-3.5-0.9-5.8-1.2-6.8-0.7c-0.2,0.1-0.3,0.2-0.4,0.3c0,0.1-0.1,0.2-0.1,0.3c0,0.2,0.2,0.5,0.4,0.8c0.1,0.1,0.4,0.3,0.6,0.4
		c0.2,0.2,0.5,0.4,0.8,0.5c6,3.7,26.4,10.3,49.4,16.4c14.5,3.8,30.7,7.4,43.3,10.3c12.6,2.9,21.5,5.1,21.4,6
		c-0.1,1-10.7,0.1-20.6-0.2c-4.1-0.1-8-0.1-12,0.1c-8.7,0.4-16.3,1.3-33.5,1.6c-2.3,0-4.8-0.1-7.2-0.2c-1.5,0-3,0-4.5-0.1
		c-17.2-0.7-35.8-3-54.1-3.5c-22.6-0.6-42,8.7-40.9,2c7.1-19.9,12.6-30.4,13.8-44.2c1.7-20.4,3.3-26.9,7.8-25.2
		c5,1.9,9.3,3.3,13.3,4.4c0.1,0,0.3,0.1,0.4,0.1c12.1,3.2,21.2,3.2,36.8,3.5C1935.9,724.3,2016,766.3,2015.3,780.7z M1884.1,593.4
		c29.2,7.9,63.2,50.8,63.2,80c0,12.8-11.3,33.2-21.1,38.3c-24.5,12.6-64.4,2.7-64.4-15.9c0-1-0.2-1.9-0.3-2.9
		c-0.3-1.9-0.8-3.7-1.5-5.4c-0.4-1-0.9-1.9-1.5-2.8c0-0.1-0.1-0.2-0.1-0.2c-1.3-2-2.9-3.7-4.6-5.1c-2.7-2.2-5.8-3.5-9-3.9
		c-0.6-0.1-1.1-0.2-1.7-0.2c-8.1,0-17.1-12.1-22.1-29.7C1811.9,614.2,1848.7,583.9,1884.1,593.4z M1817.5,640.2
		c1.1,6.8,1.2,10,0.3,11.8c-1.3,2.6-4,3.8-11.6,5.2c-4.9,0.9-6.7,1.3-10.2,2.3c-7.4,2.1-13.6,4.5-20.6,7.9c-5,2.4-7.6,3.5-10.1,4.1
		c-1.4,0.4-3.1,0.5-3.7,0.2l0,0c-0.7-0.3-0.8-1.3-0.1-3.3c1.3-3.8,4.6-8.3,10.2-14.1c4.8-4.9,9.5-8.8,14.7-12.4
		c6.2-4.2,9.6-5.8,18.4-8.4c3.9-1.2,5.7-1.6,7.2-1.6C1815.2,632.1,1816.5,633.9,1817.5,640.2z M1806.8,627.2l4.7,0.1l-3.5,1.2
		l-11.4,4c-8.2,2.9-20.2,11.1-26.8,18.1c-23.8,25.8-27,81.7-6.5,111c3.2,4.6,7,8.9,11.2,12.8c0.4,0.4,0.9,0.8,1.4,1.2
		c12.5,11.3,27.9,18.7,40.6,18.7c10.5,0.1,12,1.1,9.7,6.6c-1.5,3.6-3.6,11.1-4.5,16.7l0,0c-2,11.9-2.8,12-17.7,2.5
		c-6.1-3.9-13.7-7.2-16.7-7.3c-8-0.2-44.1-66.7-48.3-89c-3.6-18.9-0.2-49.4,7-62.6c4.5-8.4,22.4-24.9,32.7-30.1
		c4.5-2.3,13.7-4.1,20.5-4L1806.8,627.2z M1697.9,708.8c-17,0-48.2,15.8-79.3,40.3l0,0c-37.3,29.4-40.2,29.3-18.4-0.3
		c12.9-17.6,13.2-18.5,4.7-15.8c-5,1.5-15.2,5.9-22.8,9.8c-20.2,10.2-21.6,8.4-4.8-6.3l13.5-11.8l1.4-1.2l-1.1,0.1l-23.1,1.9
		l-24.2,2l25.6-12.5c24.5-12,27.7-17,7.2-18.2c-2.6-0.2-5.5-0.3-8.8-0.3c-3.6-0.1-7.7-0.1-12.2,0c-31.8,0.4-32.6-1.8-4.4-13
		l18.3-7.2l0.3-0.1l-0.6-0.2l-9.9-3.8c-5.8-2.2-12-4.1-14-4.1c-8,0-2.6-6.6,8-9.7c16-4.7,14.8-9.3-5.2-20.1
		c-9.5-5.1-17.4-10.6-17.4-12.1s10.5-2.8,23.2-2.8h23.1h0.1l0,0l-17.6-11.5c-9.7-6.4-17.7-13.2-17.7-15.3c0-3.5,17.7-1.8,35.3,3.4
		c8.1,2.4,8.4,2.9-12.2-22.7c-12-14.9-6.6-18.6,19.8-13.7c8.3,1.5,15.8,2.5,19.9,2.7c1.7,0.1,2.9,0,3.2-0.3c0,0,0-0.1,0-0.2
		c0.4-1.3-5.9-9.6-14.6-18.9l-16.1-17.5l20.1,2.8l20.1,2.8l-8.5-11.9c-13-18.2-5.5-20.5,25.3-7.9c13.8,5.7,25,9.3,26.4,8.6
		c0.1,0,0.3-0.1,0.3-0.2c0-0.1,0-0.2-0.1-0.3c-0.3-1.9-4.4-10-9.3-18.7c-5.1-9-8.6-17.1-7.6-18.1s6.7,1.8,12.8,6.1
		c6.9,4.9,10.6,7.4,12.3,7.2h0.1c0.2,0,0.4-0.2,0.5-0.4c0.3-0.3,0.5-0.8,0.5-1.5v-0.1c0-0.2,0-0.4,0-0.6c0-1.4-0.4-3.4-0.9-6.1
		c-2.5-13.1,2.8-11.6,19.6,5.6c8,8.2,16.1,14.9,17.9,14.9c1.9,0,2.3-7.3,0.9-16.7c-1.4-9.2-1.8-16.7-1-16.7s7,8.8,13.7,19.5
		c7.8,12.4,10.9,16.6,13,15.4c0.1,0,0.2-0.1,0.3-0.1c0.7-0.5,1.3-1.6,1.9-3.2c1.6-4.1,3.1-17.4,3.2-29.6c0.3-26.8,4.6-24.4,16.8,9.4
		l8.4,23.3l0.1,0.3l0.5-1.1l6.9-13.4l7.4-14.4l4.7,14.3l4.6,14l0.1,0.3l0.3-0.5l6.1-11.8l6.4-12.3l2.2,21.9
		c1.2,12,0.7,40.3-1.1,62.8c-1.8,22.5-3.4,42.2-3.5,43.7s-2.6,2.8-5.6,2.8c-4,0-5.7-6-6.7-23.3l-1.3-22.1l-0.1-1.2v0.8l-0.7,24.3
		c-0.6,22.4-4.2,30.7-9.5,22.2c-1-1.6-6.4-24.2-12.1-50.1c-5.7-26-10.9-46.6-11.7-45.8c-1.3,1.3,11.8,79.3,16.5,97.9
		c3.2,12.7-4.4,10-10.5-3.7c-2.9-6.7-4.9-10.1-4.4-7.7c5.3,25.3,5.6,31,1.4,31c-2.5,0-5.4-3.8-6.6-8.4
		c-3.9-15.5-41.9-86.4-53.3-99.5c-8.4-9.7-3.5,2.1,18.7,45.4c28,54.7,34,70,27.2,69.8c-1.5,0-7.8-7-14-15.5
		c-26.6-36.7-54.3-69.9-61.7-73.9c-2.5-1.3-4-1.9-4.5-1.6c-0.1,0-0.1,0.2-0.1,0.2c0,0.1-0.1,0.3,0,0.6c0,0.1,0,0.1,0.1,0.2
		c0.5,1.7,3,5.6,7.8,12.5c6.2,8.9,23.1,30.4,37.6,47.8c14.5,17.4,26.4,33,26.4,34.7s-6.3-1.8-13.9-7.7c-22.3-17.4-26.5-18.3-8.4-1.9
		c9.2,8.3,15.7,16.2,14.4,17.5c-1.3,1.3-13-1.6-26-6.5c-13.1-4.9-28.8-9.9-34.9-11.2c-15.3-3.2,15.9,11.1,40.5,18.6
		c19.1,5.8,19.2,10.7,0.5,13.4c-7.9,1.1-6,1.8,6.5,2.1c9.7,0.3,17.7,2,17.7,3.9c0,1.8-8,4.5-17.7,5.9c-9.7,1.5-25.2,5.2-34.4,8.2
		c-16.8,5.6-53.6,26.9-51,29.5c0.8,0.8,17.2-5.2,36.4-13.2c19.3-8,41.7-15.8,49.9-17.3l14.9-2.7l-7.1,8
		C1714,706.3,1707.4,708.8,1697.9,708.8z M1335.5,876.3c2.1-0.2,4.1-0.4,6.2-0.6c58.3-5.5,116.5-2.8,149.9,7.8
		c28.6,9.1,61,25.3,77.8,39l10.8,8.8l-29.8-2c-30.4-2.1-69.9,4.1-66.1,10.4c1.1,1.8,14.1,6.8,28.8,11.1c14.8,4.3,28.2,9.2,29.8,10.7
		c1.6,1.6-10.9,3.7-27.9,4.9c-29.9,2-55,9.8-71.6,22.4c-6.7,5.1-5.6,5.7,14.9,7.7c12.2,1.2,38.4,3.3,58.3,4.6s35.4,3.8,34.3,5.5
		s-13.6,6.9-27.9,11.5s-25.9,9.5-25.9,10.9c0,1.4,4.5,3.7,10.1,5.1c9.9,2.5,9.8,2.6-6.1,9.8c-7.7,3.5-13.6,7-14.4,8.5v0.1
		c-0.1,0.2-0.1,0.3,0,0.4c1,1,8.3-1.6,16.2-5.6c8-4.1,18.3-7.4,23-7.4c1.8,0,3.3-0.1,4.5-0.3c3.2-0.5,4.3-1.8,3.2-3.7
		c-0.8-1.4-2.5-3.2-5.5-5.3c-5.7-4.2-5.4-4.9,2.8-7.4c22.7-7,42.7-15.4,47.2-19.5c0.6-0.6,0.9-1,0.9-1.4s-0.1-0.8-0.2-1.2
		c0-0.1,0-0.1,0-0.2c-0.1-0.2-0.1-0.3-0.2-0.5c-3.5-8-29.5-12.5-72.2-12.5c-26.8,0-46-1.4-44.8-3.3c4-6.5,41.5-13.1,73.6-13.1
		c10.9,0,18.4,0,22.5-0.5c0.2,0,0.4-0.1,0.6-0.1c0.6-0.1,1.1-0.2,1.6-0.3h0.1c0.4-0.1,0.6-0.3,0.8-0.4c0.2-0.1,0.3-0.3,0.4-0.4
		c1.4-2.2-7.8-6.9-27.9-17.3c-13.8-7.1-25.1-14-25.1-15.3c0-4.6,50.6,2.2,72.2,9.7c12.1,4.2,22.7,7,23.6,6.1s-0.4-5.1-2.7-9.5
		c-2.3-4.4-3.7-9.4-3.1-11.1c1.7-4.6,53.8,26.6,75.4,45.2c26.9,23.2,51.2,42.1,60.5,47c3.4,1.8,7.5,3,11.9,3.7
		c3.1,0.4,6.3,0.6,9.7,0.5c17.1-0.6,36.2-8,44.5-19.3c0.1-0.1,0.2-0.2,0.3-0.4c7.6-10.8,6.8-30.8-1.9-48.8
		c-4.1-8.4-22.5-32-40.9-52.3c-2.1-2.3-4.1-4.5-6-6.8c-32.4-36.8-46.7-61.9-51.3-90.8c-0.1-0.6-0.2-1.1-0.2-1.7
		c-0.2-1.3-0.4-2.7-0.5-4.1c-0.2-1.9-0.4-3.9-0.6-5.9c-0.8-10.6-0.2-21.3,1.4-31.5c0.1-0.8,0.2-1.6,0.4-2.4c0.4-2.3,0.9-4.6,1.5-6.9
		c0.3-1.4,0.7-2.8,1-4.2c0.6-2.3,1.3-4.6,2.1-6.8c0.2-0.5,0.3-1,0.5-1.5c3.3-9.2,7.6-17.4,12.9-23.8c3.8-4.6,5.9-7.1,7.2-7.8
		c0.6-0.3,1-0.2,1.3,0.3c0.4,0.8,0.5,2.4,0.5,4.9c0,1.6,0.2,3.3,0.5,5.2c0.5,3.1,1.4,6.6,2.5,10.3c5.1,16.2,15.8,36.9,26.8,50.2
		c0.9,1.1,1.7,2.1,2.5,3.1c3.3,4.1,5.8,7.6,7.6,10.7c3.8,6.5,4.8,11.9,4.8,19.9c0,6.5,2.3,14.1,6,22.1
		c14.2,30.4,50.6,65.7,73.2,65.7c16.5,0,48.7,34.2,56.3,59.7c12.6,42.6,5.6,85.6-23.2,141.1c-11.2,21.5-25.7,55.5-32.3,75.5
		c-6.6,20-13,37.4-14.2,38.6c-2.4,2.4-4-4-9-35.9l-3.2-20.4v-0.1v0.1l-4.6,24.9c-6.6,35.8-18.2,71.4-26.6,81.6l-7.3,8.7l-0.4-22.3
		c-0.2-12.3-1.7-25.6-3.2-29.6c-0.9-2.2-1.7-3.3-2.7-3c-0.8,0.2-1.8,1.2-3,3c-1.6,2.6-3.8,6.8-6.7,13
		c-13.4,28.3-19.5,54.7-30.4,131.9c-17.1,120.4-23.8,126.8-21.5,20.3c0.8-36.9,0.9-67.9,0.3-75.9c-0.1-1.3-0.2-2.1-0.4-2.1
		c-0.2,0-0.5,0.3-0.9,0.7c-5.3,5.2-27.4,42.1-31.7,53.2c-2.2,5.7-4.7,9.6-5.7,8.6s2.5-14.2,7.7-29.4c11.7-34.3,21.1-70.2,19.2-72.8
		v-0.1c0,0,0,0-0.1,0c-3.2-2.6-34.5,44.7-78,117.8l0,0c-23.8,39.9-46.4,76.5-50.3,81.4s-6.5,7.2-7.9,7.2c-0.1,0-0.2-0.1-0.4-0.1
		c-3.1-1.2,2.9-19.2,16.7-48.2c15.4-32.3,22.4-52.8,29.5-86.8c4.1-19.6,7.3-36.6,8.1-43c0.2-1.6,0.3-2.5,0.2-2.7
		c-0.1-0.1-0.3,0.1-0.7,0.4c-2.6,2.1-12.5,13.4-24,27.3c-13.3,16.2-21.3,23.9-24,23.4c-0.1,0-0.3,0-0.4-0.1c-1.8-1.2,0.2-8.2,6-21.1
		c7.7-17.1,12.8-27.6,14-32.5c0-0.1,0-0.3,0.1-0.4c0.1-0.5,0.2-1,0.2-1.4c0-0.2,0-0.3,0-0.5c0-0.4-0.1-0.7-0.3-0.9l0,0
		c-2-1.6-11.4,6.3-30.9,21.5s-42.9,32.8-52,39.1c-19.7,13.5-53.9,31.1-56.2,28.9c-0.9-0.9,9.7-14.7,23.5-30.6
		c41.4-47.7,47-55.7,40.1-57.1c-6.4-1.3-49.1,19.2-71.6,34.6c-18.1,12.3-19.7,6.7-4.1-14.9c30.5-42.3,43.7-62.7,47.1-72.4l3.4-9.6
		l0.3-0.9l-0.8,0.5l-17.6,10.9c-10.1,6.3-19.2,10.6-20.2,9.6s16.3-19.5,38.5-41.2c39.3-38.3,40-39.3,27-37.3c-7.3,1.1-24,6-37,10.8
		s-24.6,8.8-25.8,8.8c-6,0,25.2-27.2,68.1-59.3c49.4-37,66.9-52.8,52.1-47.1c-24.6,9.5-80,16.7-80,10.4c0-1.6,16.2-13.5,35.9-26.4
		c26.6-17.4,34.6-24.3,30.7-26.8c-3.1-2-6.7-3-11.2-3.1c-2,0-4.3,0.2-6.8,0.5c-6.5,0.9-14.5,3.2-24.7,7c-13.5,5-25.5,7.1-33.5,5.8
		c-10.5-1.7-13.8-0.4-20.3,7.9c-4.3,5.4-6.4,10.3-4.7,10.9c1.7,0.5,18.1-3.9,36.5-9.8s34.3-9.9,35.3-8.7c1,1.1-0.3,2.8-2.9,3.8
		c-9.3,3.3-43.7,31-52.6,42.5l-8.4,10.7l-0.8,1l3.5-0.3l22.3-2.1c14.2-1.4,32.1-3.4,39.7-4.6c8.8-1.3,14-0.6,14,2c0,0.1,0,0.1,0,0.1
		c0,0.2-0.1,0.4-0.1,0.5c-0.3,1.9-1.6,3.4-3.2,3.4c-8.1,0-71.5,45.5-93.4,67.1c-23.2,22.8-23.8,23.8-14.4,25
		c5.4,0.7,20-2.1,32.4-6.3c12.5-4.2,24.3-7.6,26.4-7.6c4.3,0-61,63.8-78.5,76.8l-10,7.4l-2,1.4h1.3h10.2c6.3,0,21.1-5,32.7-11.2
		c11.7-6.1,21.9-11.2,22.8-11.2c3.2,0-28.5,44.3-54.3,75.8c-14.4,17.6-24.3,32.1-22,32.1c5.3,0-16.9,17.9-50.7,40.8
		c-27.2,18.4-69.3,41-76.5,41c-2.3,0,1.8-8.4,9.2-18.6c5.9-8.3,10.6-15.2,11.8-17.6c0.3-0.6,0.5-1,0.3-1s-1.4,0.4-3.2,1.1
		c-4.2,1.6-12.1,4.6-20.9,8.2c-19.9,8.1-34.1,11.1-37.2,8.1c-0.2-0.2-0.2-0.6-0.3-0.8c-0.1-0.3-0.3-0.5-0.3-0.8
		c0-1.5,11.3-14.9,25.1-29.6c23-24.6,24.4-26.9,16.2-27.9c-7.4-0.9-2.6-6,30.6-32.2c19.9-15.7,33.9-27.4,44.6-38
		c5.8-5.7,10.7-11.1,14.9-16.6c6.8-8.7,12.2-17.7,17.7-28.6c6.5-12.8,20.8-33.1,31.7-45c19.8-21.5,25.1-31.4,14.4-27.3
		c-3.1,1.2-5.6,1.2-5.6,0.2c0-5,9.3-19.3,19.8-30.3c16.2-17.1,4.7-15.1-12.6,2.2l-14.3,14.3l-5.2-22.6l-5.2-22.6l-14.6,30.5
		c-8,16.8-15.8,30.6-17.4,30.7c-1.5,0.1-2.8-11.3-2.8-25.4c0-26.8-3-47.8-6.8-48.7c-0.1,0-0.2-0.1-0.3-0.1c-0.3,0-0.7,0.4-1.1,1.1
		c-1.6,2.3-4.1,8.5-6.3,15.7c-10.8,36.6-55.9,87.2-110.2,123.6c-21.5,14.4-80.6,45.7-86.3,45.7c-1.5,0,6.6-9.6,18.1-21.4
		s25.5-28.9,31.2-38.1c9.7-15.7,28.6-67.2,25.7-70.2c-0.7-0.7-9.4,5.4-19.2,13.6c-41.1,34.2-94.1,63.2-143.7,78.5
		c-21.6,6.6-98.7,17.1-102,13.8c-0.6-0.6,4-7.4,10.1-15.2c4.9-6.1,9-11.6,10.5-14.1c0.4-0.7,0.7-1.1,0.7-1.3c0-0.2-0.3-0.2-0.8-0.2
		c-1.5,0.1-5.1,1.2-9.3,2.8c-13.1,5-69.5,4.8-105.2-0.3c-42.4-6.1-142.2-5.2-174.8,1.6c-15.1,3.1-28.2,5-29.2,4.1
		c-2.9-2.9,28.3-52.6,50.8-80.9c34.1-42.8,83.3-86,145.7-127.9c31.7-21.3,66.9-45.5,78.2-53.7c12.7-9.3,41.1-22.9,74.4-35.8
		c104.2-40.1,121.8-45.3,180.4-53.2c30.7-4.1,79.2-11.1,107.9-15.4C1317.9,878.4,1326.7,877.2,1335.5,876.3z"/>
	<path class="st9" d="M748.3,2196.1c-29,79.4-30.5,133.9-4.5,159.9c10,10,15.1,12.2,28.4,12.3c38.8,0.2,90.4,17.4,116.5,38.9
		c19.7,16.2,6.5,14.7-14.8-1.8c-16.9-13.1-24.2-16.2-40.1-17.5l-19.4-1.5l26.9,13.4c26.8,13.3,41.4,27.6,49.1,47.6l0,0
		c4.3,11.2,0.3,13.6-7.3,4.4c-15.1-18.2-114.9-61.2-142.1-61.2c-10.6,0-30.9-12.8-54.2-34.2c-8.8-8.1-21.7-17.1-28.7-20
		c-14.4-6-42.7-6.9-60.2-1.9c-8.8,2.5-13,2.1-16.1-1.7c-6.4-7.7,12.8-17.7,48.3-25.4c34.3-7.4,56.5-21.8,69.8-45.3
		c4.6-8.1,16.9-35.6,27.3-61.2c2.9-7.2,6.3-15.3,9.8-23.6h-14.5c-22,51.2-38.5,85.3-47.3,97.6c-5.9,8.3-11.5,11.1-25.9,13
		c-56.3,7.5-104.5,39-104.6,68.3c0,10.1-2.8,10.1,35.4,0.5c39.1-9.8,56.5-7.7,86,10.5c47.2,29.1,59,34.1,94,40.1
		c39.6,6.8,53.3,12.9,94.8,42.1c16.1,11.3,35.4,22.8,42.8,25.4l0,0c7.4,2.6,14.9,4.9,16.7,5c3.2,0.2,1.4-14.4-3.4-26.8
		c-2.1-5.5-0.4-6.5,10.9-6.5c16.4,0,16.9-4.2,2.8-26.4c-25.2-39.7-59.7-58.7-113.8-62.6c-63.5-4.6-70-12.7-62.2-76.6
		c4.8-38.8,16.1-76.6,39.1-127.5v-44.5C768.7,2148.8,753.2,2182.7,748.3,2196.1z"/>
	<path class="st9" d="M1530.3,2180.2c29.5,36.8,57.4,75.5,62.1,86c7.7,17.4,10,19.5,25.2,23.3c5.1,1.3,13.2,2.1,23.9,2.5
		c4.4,0.1,9.2,0.2,14.5,0.2c9.7,0,20.9-0.3,33.6-0.8c58.8-2.5,70.3-0.8,94.1,14.5l13,8.4l-39.1,1.9l-38.2,1.8h-0.9l0.5,0.2l22.6,6.8
		c21.1,6.4,38.6,18.2,33.8,22.9c-1.1,1.1-16.8-0.8-35-4.2s-59.1-7-90.9-8c-8.7-0.3-16-0.5-22.4-0.6c-10.2-0.2-17.8-0.2-23.4,0
		c-8.3,0.4-12.4,1.3-15,2.9c-0.1,0.1-0.2,0.2-0.3,0.2c-0.7,0.5-1.2,1-1.7,1.6c-5.9,7.1-12.4,7.5-28,1.9c-10.1-3.7-16.4-2.2-54.8,13
		l0,0c-23.9,9.4-44.4,17.2-45.6,17.2s-2.2-2.4-2.2-5.3c0-7.2,17.9-21.6,49.6-40c14.7-8.5,27.1-15.8,27.7-16.2s-0.7-5.4-2.8-11
		c-2.1-5.6-6.4-25.9-9.5-45c-7.1-44.4-13.1-57.8-48.5-109.8c-2.1-3.1-4.6-6.8-7.3-10.8v26.5c2.1,4,3.9,7.6,5.3,10.7
		c29.5,64.4,38.6,90.2,40.4,115.6l1.8,24.5l-29.9,17.5c-52.8,31-77.7,59.6-58.2,67.1c11.4,4.4,19.8,2.1,54.6-14.7
		c22.6-10.9,39.6-16.8,47.8-16.5c59.9,2.2,73.7,1.4,95.8-5.4c23.6-7.2,23.6-7.2,74.4,1c28,4.5,64.6,8.2,81.5,8.1
		c26.8-0.1,30.7-0.9,30.6-6.6c-0.1-3.6-2.7-9.9-5.8-14c-5.3-7-5-7.5,6.6-9.3c7.6-1.2,12.7-4.3,13.5-8.2c1.8-9.6-30.2-39.4-54-50.3
		c-25.5-11.7-75.9-15.5-114.9-8.6l-25.7,4.5l-21.8-23.2c-31.6-33.5-93-117.7-142-192.8v34.7
		C1483.1,2119.9,1503.8,2147.2,1530.3,2180.2z"/>
	<path class="st9" d="M1355.8,1959.8c0-0.9-10.7-13.2-23.7-27.2c-8.7-9.3-16.3-18.7-23.2-28.4c-6.5-1-13.2-1.6-20-1.8
		c7.9,11.1,18.1,24.1,28,35.6c21.2,24.5,58.1,76.8,90.8,127.1v-20.5C1380.4,2001.3,1355.8,1961.6,1355.8,1959.8z"/>
	<path class="st9" d="M858.7,2001.4c-8.4,9.6-12.9,21.4-13.9,35.9c8.5-17.3,15.7-32.2,19.8-41.2c0.1-0.2,0.2-0.5,0.3-0.7
		C862.8,1997.2,860.7,1999.1,858.7,2001.4z"/>
	<path class="st9" d="M1936.5,748.3c0.1,0.1,0.2,0.2,0.3,0.4c0.4,0.4,0.8,0.8,1.4,1.2c0.2,0.1,0.5,0.3,0.7,0.4
		c0.5,0.3,1,0.5,1.5,0.7c0.6,0.2,1.2,0.5,1.8,0.6c0.3,0.1,0.5,0.1,0.8,0.2c0.5,0.1,1,0.2,1.5,0.3c0.9,0.2,1.8,0.3,2.7,0.3
		c1.1,0,2.2,0,3.1-0.1c1.7-0.2,3.1-0.8,3.8-1.6c0.1-0.1,0.1-0.2,0.2-0.3c0.1-0.2,0.2-0.4,0.2-0.6c0-0.2,0-0.4,0-0.6
		c0-0.1,0-0.3-0.1-0.4c-0.1-0.3-0.3-0.6-0.5-1c-0.1-0.1-0.2-0.2-0.3-0.3c-0.2-0.2-0.5-0.5-0.8-0.7c-0.2-0.1-0.3-0.3-0.5-0.4
		c-0.4-0.3-0.8-0.5-1.3-0.8c-0.4-0.2-0.9-0.4-1.4-0.6c-0.1,0-0.2-0.1-0.3-0.1c-1-0.4-2.2-0.7-3.5-0.9c-4.5-0.8-8.4-0.1-9.7,1.5
		c0,0,0,0.1-0.1,0.1c-0.1,0.2-0.2,0.4-0.3,0.6c0,0.1,0,0.2-0.1,0.2c0,0.1,0,0.3,0,0.4C1936.1,747.4,1936.2,747.9,1936.5,748.3z"/>
	<path class="st10" d="M1964.9,769.4c27.1,7.8,43.8,11.8,48.5,11.6c1.7-0.1,1.7-0.1,1.8-0.6c0.1-0.8-0.6-2.6-1.5-4
		c-5.5-8.6-27.3-23.2-54.8-36.7c-16.6-8.2-30.9-13.7-40-15.4c-1-0.2-4.3-0.4-9.5-0.5c-15.8-0.4-21.4-1-29.9-3.1
		c-0.4-0.1-0.9-0.2-1.3-0.4c-0.1,0-0.3-0.1-0.4-0.1c-3.6-1-7.3-2.1-11.3-3.6c-3.4-1.3-4.3-1.2-5.3,0.2c-1.6,2.2-2.9,8.2-3.9,19.9
		c-0.6,6.8-0.8,8.1-1.5,11.6c-1.1,5.5-2.5,9.9-7.5,23.1c-4.9,13-5.2,13.8-5.1,14.8c0,0.4,0.7,1,1.3,1.2l0,0c1.1,0.4,5.1,0,10.2-1
		c21.2-3.9,25.4-4.1,55.8-1.6c15.4,1.2,22,1.7,27.7,1.9c1.5,0.1,3,0.1,4.5,0.1c1.4,0,2.8,0,4.4,0c9,0,15-0.2,26.9-1
		c3.2-0.2,6.3-0.3,9.4-0.4c3.9-0.1,7.8-0.1,12-0.1c3.1,0.1,6.2,0.2,9.7,0.3c12.6,0.6,13.6,0.2,5.7-2c-3.5-1-8.9-2.3-26.1-6.2
		c-27.2-6.2-40.5-9.6-55.4-14.2c-14.2-4.3-23.7-7.9-27.5-10.3c-0.3-0.2-0.6-0.4-0.8-0.5c-0.2-0.1-0.4-0.3-0.6-0.4
		c-0.3-0.3-0.4-0.5-0.4-0.8c0-0.1,0.1-0.2,0.1-0.3c0.1-0.1,0.2-0.2,0.4-0.3c0.1,0,0.1-0.1,0.2-0.2c1-0.3,2.7-0.1,6.6,0.9
		c0.1,0,0.2,0.1,0.3,0.1c0.6,0.2,1.2,0.3,1.9,0.5c1,0.3,2,0.6,3.2,1c2.7,0.8,6,1.9,10.1,3.3C1941.4,762.5,1946.5,764.1,1964.9,769.4
		z M1936,746.6c0-0.1,0-0.2,0.1-0.2c0.1-0.2,0.1-0.4,0.3-0.6c0,0,0-0.1,0.1-0.1c1.2-1.6,4.8-2.4,9.2-1.6c1.5,0.2,2.8,0.6,4,1.1
		c0.1,0,0.2,0.1,0.3,0.1c0.5,0.2,1,0.4,1.4,0.6c0.5,0.2,0.9,0.5,1.3,0.8c0.2,0.1,0.3,0.3,0.5,0.4c0.3,0.2,0.6,0.5,0.8,0.7
		c0.1,0.1,0.2,0.2,0.3,0.3c0.3,0.3,0.4,0.6,0.5,1c0,0.1,0,0.3,0.1,0.4c0,0.2,0,0.4,0,0.6c0,0.2-0.1,0.4-0.2,0.6
		c-0.1,0.1-0.1,0.2-0.2,0.3c-0.4,0.5-1,0.9-2,1.3l0,0c-0.4,0.1-1.1,0.2-1.8,0.3c-1,0.1-2,0.1-3.1,0.1c-1,0-1.9-0.1-2.6-0.2
		c-0.6-0.1-1-0.3-1.6-0.4c-0.3-0.1-0.5-0.1-0.8-0.2c-0.7-0.2-1.3-0.4-1.8-0.6c-0.5-0.2-1-0.5-1.5-0.7c-0.3-0.1-0.5-0.3-0.7-0.4
		c-0.6-0.4-1-0.8-1.4-1.2c-0.1-0.1-0.2-0.2-0.3-0.4c-0.3-0.4-0.5-0.9-0.5-1.3c0-0.1-0.1-0.1-0.1-0.2
		C1935.9,746.7,1936,746.7,1936,746.6z"/>
	<path d="M574.6,1996.9c4.2,6,9.2,18.7,9.2,45.4v134.9h56.8v-143.9c0-81.7-44.7-98.9-82.2-98.9c-29.1,0-52.5,11.1-70,33
		c-4.6-7-10.4-13.2-17.4-18.4c-12.9-9.7-28.1-14.7-45.2-14.7c-22.4,0-41.4,6.8-56.6,20.1v-15.1h-56.8V2177H369v-134
		c0-17.7,4.2-32.1,12.4-42.7c7.7-10,17-14.8,28.6-14.8c17.7,0,37.9,6,37.9,52.4V2177h56.8v-134c0-16.5,4.3-30.1,13-41.6
		c8.2-10.7,17.7-15.9,28.9-15.9C560.3,1985.7,569.4,1989.3,574.6,1996.9z"/>
	<path d="M712.3,1907c9.2,0,17.5-3.4,23.7-9.7c6.6-6.4,10.1-14.6,10.1-23.8c0-9.5-3.5-17.8-10-23.9c-6.4-6.4-14.6-9.8-23.9-9.8
		c-9.1,0-17.2,3.4-23.5,9.7c-6.5,6.3-9.9,14.6-9.9,24s3.4,17.7,9.9,24C695.2,1903.7,703.3,1907,712.3,1907z"/>
	<polygon points="737.8,2177.2 740.3,2177.2 740.3,2171.4 740.3,2169.5 740.3,2135.1 740.3,1939.4 683.5,1939.4 683.5,2177.2 
		722.5,2177.2 737,2177.2 	"/>
	<path d="M873.2,1939.5c-10.6,3.6-20.1,9.2-28.6,16.7v-16.8h-4.3h-0.4h-15.1h-36.9v81.3v32.6v1.3v52.7v1.3v44.5v23.9h56.8v-134
		c0-2,0.1-4,0.2-5.9c1-14.4,5.5-26.2,13.9-35.9c2-2.3,4.1-4.2,6.2-6c8-6.5,17.3-9.7,28.3-9.7c16.7,0,39,6,39,57.5v134H989v-142.9
		c0-31.3-7.2-55.8-21.2-72.9c-14.6-17.9-35.7-27-62.7-27c-2.3,0-4.4,0.1-6.6,0.3c-8.8,0.5-17,2.1-24.7,4.7
		C873.6,1939.4,873.4,1939.4,873.2,1939.5z"/>
	<path d="M1060.8,1839.9c-9.1,0-17.2,3.4-23.5,9.7c-6.5,6.3-9.9,14.6-9.9,24s3.4,17.7,9.9,24c6.4,6.2,14.5,9.4,23.5,9.4
		c9.2,0,17.5-3.4,23.7-9.7c6.6-6.4,10.1-14.6,10.1-23.8c0-9.5-3.5-17.8-10-23.9C1078.2,1843.3,1070,1839.9,1060.8,1839.9z"/>
	<rect x="1032" y="1939.4" width="56.8" height="237.7"/>
	<path d="M1310.2,1904.4c14.9,2.5,28.9,7.4,41.9,14.6l16.5,9.2v-53.3v-1.9v-8.6l-6.6-2.9c0,0,0,0-0.1,0c-0.5-0.2-1-0.4-1.5-0.6
		c-19.9-8.4-44.8-12.7-74.1-12.7c-1.7,0-3.3,0.2-4.9,0.2c-0.3,0-0.6,0-0.9,0c-5.3,0.2-10.4,0.5-15.5,1
		c-38.2,4.2-70.8,19.8-97.1,46.7c-31,31.8-46.7,73.7-46.7,124.8c0,47.6,14,86.8,41.7,116.4c27.9,29.8,65.3,45,111.2,45
		c34.9,0,64.7-6.4,88.5-19l5.9-3.1v-60.8l-16.9,10.3c-20.3,12.3-44.8,18.6-72.9,18.6c-29.7,0-53-9.5-71.1-29
		c-18-19.7-27.2-46.7-27.2-80.5c0-35.6,9.8-64.3,29.2-85.2c19.6-21,44.5-31.2,76.3-31.2c1,0,2,0.1,3,0.1c6.8,0.1,13.5,0.7,20,1.8
		C1309.4,1904.3,1309.8,1904.3,1310.2,1904.4z"/>
	<path d="M1407.8,1999.2v43.9v1.5v20.5v112.1h57.6v-16.9v-26.5v-1.4v-36.9v-1v-34.7v-10.9h17.9c5.4,0,10.2,0.7,14.6,2.1
		c4,1.2,7.6,3,11.1,5.8c3.8,2.9,7.7,6.8,11.5,11.7c4,5,8.2,11.3,12.6,18.8l53.7,90h38.5h29.9h33.5l30.1-84.6h112.4l32,84.6h63
		l-124.7-324h-51.9l-112.9,294.3l-48.7-78c-4.1-6.7-8-12.6-11.2-17.4c-3.5-5.4-7.1-10.4-10.8-14.7c-2.6-3.1-5.4-5.9-8.2-8.3
		c3.2-1.5,6.2-3.1,9.2-4.8c9.3-5.5,17.4-12.3,23.8-20c6.8-7.9,12-16.9,15.5-26.8c3.7-10,5.5-21.1,5.5-32.9c0-15-2.7-28.4-8-39.8
		c-5.3-11.6-12.9-21.5-22.4-29.2c-9.3-7.7-20.4-13.4-32.9-17c-12.1-3.7-25.4-5.5-39.6-5.5h-101.2v108.5v36.5L1407.8,1999.2
		L1407.8,1999.2z M1774.9,1939.3l36.5,99.2h-72.8L1774.9,1939.3z M1465.4,1907.4h37.3c16.9,0,29.7,3.7,38,11
		c8,6.8,11.9,16.4,11.9,29.2c0,7.5-1.3,14.2-3.7,20c-2.5,5.8-5.8,10.5-10.1,14.4c-4.3,3.9-9.7,7-15.9,9.2
		c-6.2,2.2-13.1,3.3-20.7,3.3h-36.9L1465.4,1907.4L1465.4,1907.4z"/>
	<path d="M2006.3,1853.2h-63.1v324h57.6v-228.3l147.4,228.3h60.5v-324h-57.6v223.7c0,1.1,0,2.2,0,3.3L2006.3,1853.2z"/>
	<path class="st11" d="M1786.4,642c-5.2,3.6-9.9,7.5-14.7,12.4c-5.6,5.7-8.9,10.3-10.2,14.1c-0.7,2-0.7,3,0.1,3.3l0,0
		c0.6,0.2,2.3,0.1,3.7-0.2c2.4-0.6,5.1-1.7,10.1-4.1c7-3.4,13.2-5.8,20.6-7.9c3.5-1,5.3-1.4,10.2-2.3c7.5-1.4,10.2-2.7,11.6-5.2
		c0.9-1.8,0.8-5-0.3-11.8c-1-6.3-2.3-8.2-5.5-8.2c-1.5,0-3.3,0.4-7.2,1.6C1795.9,636.2,1792.6,637.8,1786.4,642z"/>
	<path class="st11" d="M1783,818.1c-5.4-1.4-8.2,0.9-7.6,6.3c1,9.7,14,29.6,30.5,46.8c16.1,16.8,28.1,26.6,36.2,29.5l0,0
		c5.2,1.9,8.9,0.6,11.1-3.8c1.8-3.6,2.5-7.6,2.2-13.1c-0.2-4-0.4-5.1-1.6-8.7c-1.7-4.9-3.6-8.9-6.8-13.7
		c-8.8-13.3-22.6-25.4-37.6-32.7C1800.1,824.2,1788.5,819.5,1783,818.1z"/>
</g>
</svg>
