<?xml version="1.0" encoding="utf-8"?>
<!-- Generator: Adobe Illustrator 26.5.0, SVG Export Plug-In . SVG Version: 6.00 Build 0)  -->
<svg version="1.1" id="Layer_1" xmlns="http://www.w3.org/2000/svg" xmlns:xlink="http://www.w3.org/1999/xlink" x="0px" y="0px"
	 viewBox="0 0 2521 2911" style="enable-background:new 0 0 2521 2911;" xml:space="preserve">
<style type="text/css">
	.st0{fill:#141227;}
	.st1{fill:#404040;}
	.st2{opacity:0.94;}
	.st3{fill:#FFFFFF;}
	.st4{opacity:0.8;fill:#F2F2F2;enable-background:new    ;}
	.st5{fill:#F7A238;}
	.st6{fill:#00A5DC;}
	.st7{fill:#164F86;}
	.st8{fill:#36A85D;}
	.st9{fill:#DB1F26;}
	.st10{fill:#FFF34D;}
	.st11{fill:#F26524;}
	.st12{fill:#B57AB4;}
	.st13{fill:#EF4782;}
	.st14{fill:#0088C5;}
	.st15{fill:#BCBCBC;}
	.st16{fill:none;stroke:#FFF34D;stroke-width:24.0157;stroke-miterlimit:10;}
	.st17{fill:#F2F2F2;}
</style>
<g>
	<g>
		<polygon class="st0" points="100.5,789.4 100.5,2128.8 1260.5,2798.5 2420.5,2128.4 2420.5,789.1 1260.5,119.4 		"/>
		<path class="st1" d="M2420.5,669.7l-953.1-550.3L1260.5,0l-206.9,119.4L100.5,669.7L0,727.7v1455.7l100.5,58l965.1,557.2
			l195.2,112.5l195.2-112.5l965.1-557.2l99.8-58V727.7L2420.5,669.7z M2420.5,2128.4l-1160,670l-1160-669.7V789.4l1160-670
			l1160,669.7V2128.4z"/>
	</g>
	<g class="st2">
		<path class="st3" d="M675.2,1924.7c0-22-0.3-40.1-1.7-58h32.3l1.7,34.7h1.4c11.3-20.2,30.2-39.5,63.5-39.5
			c27.4,0,48.4,17.8,57.3,42.9h0.7c5.5-10.6,13-20.2,22.6-27.8c12.7-10.3,28.5-15.8,44.6-15.1c26.8,0,66.6,18.5,66.6,93v126.3h-36.4
			V1960c0-41.2-14.1-65.9-43.9-65.9c-20.9,0-37.1,16.5-43.6,35.3c-2.1,6.2-2.7,12.7-3.1,19.6v132.4h-36v-128.3c0-34-14.1-59-42.2-59
			c-23,0-39.8,19.6-45.6,38.8c-2.1,6.2-3.1,12.7-3.1,18.9v129.3h-36v-156.4H675.2z"/>
		<path class="st3" d="M1197.7,1972c0,79.3-51.8,113.9-100.5,113.9c-54.6,0-96.8-42.5-96.8-110.1c0-71.7,44.3-113.9,100.2-113.9
			C1158.6,1861.9,1197.7,1906.5,1197.7,1972z M1037.5,1974.4c0,47,25.4,82.3,61.4,82.3c35,0,61.4-35,61.4-83.4
			c0-36.4-17.2-82.3-60.4-82.3S1037.5,1933.6,1037.5,1974.4L1037.5,1974.4z"/>
		<path class="st3" d="M1410.4,1766.8v259c0,18.9,0.3,40.8,1.7,55.2h-32.9l-1.7-37.1h-0.7c-11.3,24-36,41.9-69,41.9
			c-48.7,0-86.5-43.9-86.5-108.8c-0.3-71.4,41.2-114.9,90.6-114.9c30.9,0,51.8,15.4,61.1,32.6h1v-128H1410.4z M1373.7,1953.8
			c0-5.5-0.3-11-1.7-16.5c-5.5-24.7-25.4-45.3-53.2-45.3c-38.1,0-60.4,35.3-60.4,82.7c0,43.2,19.9,79.3,59.7,79.3
			c24.7,0,47.3-17.2,53.9-46.3c1.4-5.5,1.7-11.3,1.7-16.8V1953.8z"/>
		<path class="st3" d="M1483.5,1980.9c0.7,52.5,32.6,74.4,69.3,74.4c26.4,0,42.2-4.8,55.9-11l6.2,28.1c-13,6.2-35,13.4-67.2,13.4
			c-62.1,0-99.5-43.2-99.5-108.1c0-64.8,36-115.6,94.7-115.6c65.9,0,83.4,61.4,83.4,100.9c0,6.2-0.3,12-1.4,18.2L1483.5,1980.9z
			 M1591.2,1953.1c0.3-24.7-9.6-63.5-50.8-63.5c-37.1,0-53.5,36.4-56.3,63.5H1591.2z"/>
		<path class="st3" d="M1663.6,1766.8h36.7v314.3h-36.7V1766.8z"/>
		<path class="st3" d="M1753.9,1933.6c0-25-0.3-47-1.7-66.9h32.3l1.4,41.9h1.7c9.3-28.8,31.2-47,55.9-47c3.4,0,6.9,0.3,10.3,1.4
			v36.7c-4.1-1-8.2-1.4-12.7-1.4c-25.7,0-44.3,20.9-49.4,50.1c-1,5.8-1.7,12-1.7,18.2v114.2h-36V1933.6z"/>
	</g>
	<polyline class="st4" points="1193.3,224.7 1207.7,216.5 1222.1,224.7 1222.1,241.5 1207.7,249.4 1193.3,241.2 1193.3,224.7 	"/>
	<polyline class="st4" points="969.6,383.2 985.3,374.3 1000.8,383.2 1000.8,401.1 985.3,410 969.6,401.1 969.6,383.2 	"/>
	<polyline class="st4" points="1528.5,303.3 1550.1,290.9 1572,303.3 1572,328.3 1550.1,340.7 1528.5,328.3 1528.5,303.3 	"/>
	<polyline class="st4" points="1180.6,784.3 1202.2,771.9 1224.1,784.3 1224.1,809.3 1202.2,821.3 1180.6,809.3 1180.6,784.3 	"/>
	<polyline class="st4" points="857.4,2164.8 879,2152.5 900.9,2164.8 900.9,2189.9 879,2202.2 857.4,2189.9 857.4,2164.8 	"/>
	<polyline class="st4" points="1289.3,469.7 1300.3,463.5 1310.9,469.7 1310.9,482 1300.3,488.2 1289.3,482 1289.3,469.7 	"/>
	<polyline class="st4" points="1380.9,647.4 1398.4,637.4 1415.9,647.4 1415.9,667.6 1398.4,677.6 1380.9,667.6 1380.9,647.4 	"/>
	<polygon class="st5" points="1282.5,260.1 1282.5,276.9 1296.9,285.1 1310.9,276.9 1310.9,260.1 1296.9,251.8 	"/>
	<polygon class="st5" points="1211.4,507.8 1211.4,520.1 1222.4,526.3 1233.1,520.1 1233.1,507.8 1222.4,501.6 	"/>
	<polygon class="st5" points="1370.6,400.4 1370.6,383.6 1356.2,375.7 1341.8,383.6 1341.8,400.4 1356.2,408.6 	"/>
	<polygon class="st5" points="1076.6,709.1 1076.6,719.8 1085.9,725.3 1095.1,719.8 1095.1,709.1 1085.9,703.6 	"/>
	<polygon class="st6" points="1188.1,332.4 1188.1,348.9 1202.5,357.1 1216.6,348.9 1216.6,332.4 1202.5,324.2 	"/>
	<polygon class="st6" points="1514,671.7 1514,688.2 1528.5,696.4 1542.5,688.2 1542.5,671.7 1528.5,663.5 	"/>
	<polygon class="st6" points="1786.1,561.3 1786.1,548.2 1774.8,542.1 1763.5,548.2 1763.5,561.3 1774.8,567.8 	"/>
	<polygon class="st6" points="1076.6,579.5 1076.6,591.5 1086.6,597 1096.5,591.5 1096.5,579.5 1086.6,574 	"/>
	<polygon class="st6" points="972,665.6 972,682 986.4,689.9 1000.1,682 1000.1,665.6 986.4,657.7 	"/>
	<polygon class="st7" points="1459.1,462.1 1459.1,480 1474.6,488.5 1489.7,480 1489.7,462.1 1474.6,453.5 	"/>
	<polygon class="st8" points="1453.3,283.4 1453.3,258.3 1432,246 1410.4,258.3 1410.4,283.4 1432,295.7 	"/>
	<polygon class="st7" points="1031.7,2442.4 1031.7,2467.4 1053.3,2479.8 1074.5,2467.4 1074.5,2442.4 1053.3,2430 	"/>
	<polygon class="st9" points="1729.6,2371.2 1729.6,2355.1 1715.9,2347.2 1702,2355.1 1702,2371.2 1715.9,2379.1 	"/>
	<polygon class="st8" points="1239.6,2257.4 1239.6,2282.5 1261.2,2294.8 1282.8,2282.5 1282.8,2257.4 1261.2,2245.1 	"/>
	<polygon class="st8" points="1359.6,2622 1359.6,2641.5 1376.4,2651.1 1393.3,2641.5 1393.3,2622 1376.4,2612.4 	"/>
	<polygon class="st9" points="1064.9,491.6 1064.9,472.8 1049.2,463.5 1032.7,472.8 1032.7,491.6 1049.2,500.9 	"/>
	<polygon class="st10" points="1090.7,392.5 1090.7,407.9 1104.4,415.8 1117.8,407.9 1117.8,392.5 1104.4,384.9 	"/>
	<polyline class="st4" points="510.9,694.4 527,685.5 543.1,694.4 543.1,712.9 527,722.2 510.9,712.9 510.9,694.4 	"/>
	<polyline class="st6" points="355.1,1082.1 377.1,1070.1 398.7,1082.4 398.7,1107.4 377.1,1119.8 355.1,1107.1 355.1,1082.1 	"/>
	<polyline class="st10" points="581.5,827.8 599.4,817.9 617.2,827.8 617.2,848.4 599.4,858.7 581.5,848.4 581.5,827.8 	"/>
	<polyline class="st10" points="284.8,871.4 302.6,861.5 320.4,871.4 320.4,892 302.6,902.3 284.8,892 284.8,871.4 	"/>
	<polyline class="st10" points="262.8,1976.5 279.6,1966.9 296.4,1976.5 296.4,1995.7 279.6,2005.3 262.8,1995.7 262.8,1976.5 	"/>
	<polyline class="st10" points="1520.4,2544.9 1537.2,2535.3 1554,2544.9 1554,2564.1 1537.2,2573.8 1520.4,2564.1 1520.4,2544.9 	
		"/>
	<polygon class="st10" points="842.6,617.9 842.6,635 857.7,643.6 872.5,635 872.5,617.9 857.7,609.3 	"/>
	<polygon class="st10" points="1380.6,748.9 1380.6,766.4 1395.7,775 1410.4,766.4 1410.4,748.9 1395.7,740.7 	"/>
	<polygon class="st10" points="1480.8,598.3 1480.8,589.7 1473.6,585.3 1466,589.7 1466,598.3 1473.6,602.8 	"/>
	<polygon class="st10" points="279.6,1032.7 279.6,1046 291.3,1052.6 302.6,1046 302.6,1032.7 291.3,1026.1 	"/>
	<polygon class="st7" points="458,842.3 458,854.9 469,861.1 479.6,854.9 479.6,842.3 469,836.4 	"/>
	<polygon class="st10" points="161.6,921.8 161.6,938 175.7,945.9 189.4,938 189.4,921.8 175.7,914 	"/>
	<polygon class="st10" points="585.3,695.8 585.3,711.5 599.4,719.8 613.1,711.5 613.1,695.8 599.4,687.9 	"/>
	<polygon class="st9" points="675.5,601.1 675.5,612 685.1,617.5 694.4,612 694.4,601.1 685.1,595.6 	"/>
	<polygon class="st9" points="708.1,793.9 708.1,804.9 717.7,810 727.3,804.9 727.3,793.9 717.7,788.4 	"/>
	<polygon class="st8" points="717.7,700.2 717.7,717 732.5,725.3 746.6,717 746.6,700.2 732.5,692 	"/>
	<polygon class="st8" points="311.5,778.4 298.1,770.9 284.8,778.4 284.8,794.2 298.1,802.1 311.5,794.2 	"/>
	<polygon class="st9" points="394.2,926.6 394.2,914 383.6,907.8 372.2,914 372.2,926.6 383.6,933.2 	"/>
	<polygon class="st9" points="314.3,1572.7 314.3,1585.4 325.6,1591.9 336.2,1585.4 336.2,1572.7 325.6,1566.5 	"/>
	<polygon class="st10" points="279.6,1281.4 279.6,1294.8 291.3,1301.3 302.6,1294.8 302.6,1281.4 291.3,1274.9 	"/>
	<polygon class="st11" points="376,1349 376,1364.4 389.4,1372 402.4,1364.4 402.4,1349 389.4,1341.4 	"/>
	<polygon class="st7" points="458,1159.9 458,1172.3 469,1178.5 479.6,1172.3 479.6,1159.9 469,1153.8 	"/>
	<polygon class="st7" points="415.1,1462.5 415.1,1487.6 436.7,1499.9 458,1487.6 458,1462.5 436.7,1450.2 	"/>
	<polygon class="st9" points="394.2,1244 394.2,1231.3 383.6,1225.1 372.2,1231.3 372.2,1244 383.6,1250.5 	"/>
	<polygon class="st9" points="352.3,1875.3 352.3,1888.3 363.7,1894.5 374.3,1888.3 374.3,1875.3 363.7,1869.1 	"/>
	<polyline class="st4" points="1017.6,795.9 1032.7,787.4 1047.8,795.9 1047.8,813.4 1032.7,822 1017.6,813.4 1017.6,795.9 	"/>
	<polyline class="st12" points="626.8,2335 637.5,2328.8 648.4,2335 648.4,2347.3 637.5,2353.5 626.8,2347.3 626.8,2335 	"/>
	<polyline class="st12" points="773.7,2180.2 784.3,2174.1 795.3,2180.2 795.3,2192.6 784.3,2198.8 773.7,2192.6 773.7,2180.2 	"/>
	<polyline class="st4" points="159.2,1115 175.3,1106.1 191.4,1115.3 191.4,1133.9 175.3,1142.8 159.2,1133.5 159.2,1115 	"/>
	<polyline class="st6" points="489.2,1766.8 510.9,1754.5 532.8,1766.8 532.8,1791.9 510.9,1804.2 489.2,1791.9 489.2,1766.8 	"/>
	<polygon class="st5" points="202.1,1497.2 202.1,1476.3 184.2,1466 165.7,1476.3 165.7,1497.2 184.2,1507.8 	"/>
	<polygon class="st5" points="686.5,2243.7 686.5,2251.3 693,2254.7 699.2,2251.3 699.2,2243.7 693,2240.3 	"/>
	<polygon class="st7" points="853.3,2451.3 853.3,2458.1 859.4,2461.6 865.3,2458.1 865.3,2451.3 859.4,2448.2 	"/>
	<polygon class="st7" points="993.9,2220.7 993.9,2227.6 999.8,2231 1005.6,2227.6 1005.6,2220.7 999.8,2217.3 	"/>
	<polygon class="st7" points="316.7,2152.5 316.7,2159.3 322.5,2162.4 328.3,2159.3 328.3,2152.5 322.5,2149 	"/>
	<polygon class="st7" points="166.1,1322.2 166.1,1303.7 150.6,1294.8 134.5,1303.7 134.5,1322.2 150.6,1331.1 	"/>
	<polygon class="st5" points="755.5,523.2 755.5,542.1 771.9,551.3 787.7,542.1 787.7,523.2 771.9,513.9 	"/>
	<polygon class="st5" points="1724.4,756.1 1724.4,737.3 1708.6,728 1692.1,737.3 1692.1,756.1 1708.6,765.4 	"/>
	<polygon class="st7" points="855.3,814.8 855.3,798.7 841.6,790.8 827.5,798.7 827.5,814.8 841.6,822.7 	"/>
	<polygon class="st7" points="896.5,506 896.5,522.2 910.2,530.1 924.3,522.2 924.3,506 910.2,497.8 	"/>
	<polygon class="st7" points="1291,2534.3 1291,2548 1302.7,2554.5 1314.4,2548 1314.4,2534.3 1302.7,2527.4 	"/>
	<polygon class="st10" points="413.8,1717.4 413.8,1730.8 425.4,1737.3 436.7,1730.8 436.7,1717.4 425.4,1710.9 	"/>
	<polygon class="st10" points="197.3,1650.5 197.3,1666.7 211.3,1674.6 225.1,1666.7 225.1,1650.5 211.3,1643 	"/>
	<polyline class="st4" points="304.3,1709.2 320.4,1699.9 336.6,1709.2 336.6,1727.7 320.4,1736.7 304.3,1727.7 304.3,1709.2 	"/>
	<polyline class="st4" points="2069.5,888.9 2082.2,881.7 2094.5,888.9 2094.5,903.3 2082.2,910.5 2069.5,903.3 2069.5,888.9 	"/>
	<polyline class="st4" points="2111.7,776.7 2121.3,771.6 2130.6,776.7 2130.6,787.7 2121.3,792.8 2111.7,787.7 2111.7,776.7 	"/>
	<polyline class="st4" points="1557.3,432.3 1571,424.4 1585.1,432.3 1585.1,448.4 1571,456.3 1557.3,448.4 1557.3,432.3 	"/>
	<polyline class="st4" points="1643,639.2 1657.1,631.3 1671.2,639.2 1671.2,655.3 1657.1,663.2 1643,655.3 1643,639.2 	"/>
	<polyline class="st4" points="1370.6,559.2 1384.4,551.3 1398.4,559.2 1398.4,575.3 1384.4,583.2 1370.6,575.3 1370.6,559.2 	"/>
	<polyline class="st4" points="958.2,2496.6 970.2,2489.7 981.9,2496.6 981.9,2510.3 970.2,2516.8 958.2,2509.9 958.2,2496.6 	"/>
	<polyline class="st4" points="1179.9,2576.5 1191.9,2570 1203.5,2576.5 1203.5,2590.2 1191.9,2597.1 1179.9,2590.2 1179.9,2576.5 	
		"/>
	<polyline class="st10" points="1517.1,2387.1 1524.3,2383 1531.9,2387.1 1531.9,2395.7 1524.3,2400.2 1517.1,2395.7 1517.1,2387.1 
			"/>
	<polyline class="st4" points="1757.6,2420.1 1764.8,2416 1772.4,2420.1 1772.4,2428.7 1764.8,2432.8 1757.6,2428.7 1757.6,2420.1 	
		"/>
	<polyline class="st4" points="2014.9,2180.9 2023.2,2176.5 2031.4,2181.3 2031.4,2190.5 2023.2,2195.3 2014.9,2190.5 
		2014.9,2180.9 	"/>
	<polyline class="st5" points="1863,595.9 1878.7,587 1894.2,595.9 1894.2,613.8 1878.7,622.7 1863,613.8 1863,595.9 	"/>
	<polygon class="st4" points="2303.1,873.5 2290.8,880.3 2290.8,894.4 2303.1,901.6 2315.5,894.4 2315.5,880.3 	"/>
	<polyline class="st4" points="1920.3,852.5 1929.5,847.4 1938.8,852.5 1938.8,863.2 1929.5,868.3 1920.3,863.2 1920.3,852.5 	"/>
	<polygon class="st5" points="2249.3,783.6 2249.3,771.2 2238.6,765.4 2228,771.2 2228,783.6 2238.6,789.4 	"/>
	<polygon class="st8" points="2143.3,856.3 2143.3,871.4 2156.6,879 2169.7,871.4 2169.7,856.3 2156.6,848.8 	"/>
	<polyline class="st4" points="2330.9,1009.7 2341.9,1003.5 2352.5,1009.7 2352.5,1022 2341.9,1028.2 2330.9,1022 2330.9,1009.7 	
		"/>
	<polygon class="st8" points="336.2,1467 336.2,1482.8 349.9,1490.7 363.3,1482.8 363.3,1467 349.9,1459.4 	"/>
	<polygon class="st9" points="588.4,1819 588.4,1832 599.4,1838.2 610.4,1832 610.4,1819 599.4,1812.8 	"/>
	<polygon class="st9" points="2096.9,1819 2096.9,1832 2107.9,1838.2 2118.9,1832 2118.9,1819 2107.9,1812.8 	"/>
	<polygon class="st10" points="436.7,1979.5 436.7,1966.2 425.4,1959.7 413.8,1966.2 413.8,1979.5 425.4,1986.1 	"/>
	<polygon class="st11" points="509.8,2033.8 509.8,2049.2 523.6,2056.7 536.6,2049.2 536.6,2033.8 523.6,2026.2 	"/>
	<polygon class="st9" points="528.4,1928.8 528.4,1916.1 517.4,1909.9 506.4,1916.1 506.4,1928.8 517.4,1934.9 	"/>
	<polygon class="st5" points="197.3,2082.8 197.3,2103.7 215.5,2114 233.6,2103.7 233.6,2082.8 215.5,2072.5 	"/>
	<polygon class="st7" points="215.5,1854.3 215.5,1872.5 231.6,1881.8 247,1872.5 247,1854.3 231.6,1845.1 	"/>
	<polygon class="st10" points="444.3,2121.2 444.3,2107.2 432.3,2100 419.9,2107.2 419.9,2121.2 432.3,2128.4 	"/>
	<polygon class="st10" points="795.3,2265 795.3,2274.9 803.9,2279.7 812.4,2274.9 812.4,2265 803.9,2259.8 	"/>
	<polygon class="st9" points="1605,2258.1 1605,2267.4 1612.9,2271.8 1620.8,2267.4 1620.8,2258.1 1612.9,2253.6 	"/>
	<polygon class="st9" points="1186.1,2505.8 1186.1,2512.7 1191.9,2516.1 1197.7,2512.7 1197.7,2505.8 1191.9,2502.7 	"/>
	<polygon class="st13" points="845.7,2371 845.7,2379.9 853.6,2384.4 861.1,2379.9 861.1,2371 853.6,2366.5 	"/>
	<polygon class="st13" points="571.9,2243.4 571.9,2252.3 579.8,2256.8 587.4,2252.3 587.4,2243.4 579.8,2239.3 	"/>
	<polygon class="st14" points="2040,968.5 2040,984.6 2054.1,992.9 2068.1,984.6 2068.1,968.5 2054.1,960.6 	"/>
	<polygon class="st7" points="2270.9,1456.4 2270.9,1468.7 2281.9,1475.2 2292.5,1468.7 2292.5,1456.4 2281.9,1450.2 	"/>
	<polygon class="st7" points="1608.4,536.9 1608.4,557.2 1625.9,567.1 1643,557.2 1643,536.9 1625.9,527 	"/>
	<polygon class="st7" points="1175.8,663.5 1175.8,683.8 1193.3,693.7 1210.8,683.8 1210.8,663.5 1193.3,653.6 	"/>
	<polygon class="st8" points="1199.4,607.6 1199.4,617.9 1208,622.7 1216.6,617.9 1216.6,607.6 1208,602.8 	"/>
	<polygon class="st8" points="2173.8,1118.4 2173.8,1130.4 2184.4,1136.6 2194.7,1130.4 2194.7,1118.4 2184.4,1112.3 	"/>
	<polygon class="st5" points="1760.4,678.6 1760.4,688.9 1769.3,693.7 1777.9,688.9 1777.9,678.6 1769.3,673.8 	"/>
	<polygon class="st7" points="2034.8,787.7 2034.8,769.5 2019.4,760.9 2004,769.5 2004,787.7 2019.4,796.6 	"/>
	<polygon class="st7" points="2095.2,671.7 2095.2,659.7 2084.9,653.6 2074.3,659.7 2074.3,671.7 2084.9,677.9 	"/>
	<polygon class="st8" points="1911.7,748.9 1911.7,731.1 1896.6,722.2 1881.1,731.1 1881.1,748.9 1896.6,757.9 	"/>
	<polygon class="st8" points="1692.8,463.2 1692.8,481 1708.6,489.9 1723.7,481 1723.7,463.2 1708.6,454.2 	"/>
	<polygon class="st8" points="1347.6,2236.9 1347.6,2249.2 1358.3,2255.4 1368.6,2249.2 1368.6,2236.9 1358.3,2230.7 	"/>
	<polygon class="st8" points="447.4,2224.8 447.4,2237.2 458,2243.4 468.7,2237.2 468.7,2224.8 458,2219 	"/>
	<polygon class="st9" points="736.6,2382 736.6,2395.7 748.3,2402.6 760.3,2395.7 760.3,2382 748.3,2375.5 	"/>
	<polygon class="st5" points="1124.6,2257.4 1124.6,2271.2 1136.6,2278 1148,2271.2 1148,2257.4 1136.6,2250.9 	"/>
	<polygon class="st5" points="1401.9,2470.1 1401.9,2483.9 1413.5,2490.4 1425.2,2483.9 1425.2,2470.1 1413.5,2463.3 	"/>
	<polygon class="st7" points="1568.2,2376.1 1568.2,2389.9 1579.9,2396.7 1591.6,2389.9 1591.6,2376.1 1579.9,2369.6 	"/>
	<polygon class="st7" points="1081.1,2532.9 1081.1,2541.9 1088.6,2546.3 1096.2,2541.9 1096.2,2532.9 1088.6,2528.8 	"/>
	<polygon class="st7" points="1237.9,2631.4 1237.9,2642.7 1247.5,2648.2 1256.7,2642.7 1256.7,2631.4 1247.5,2626.2 	"/>
	<polygon class="st8" points="1062.2,2595.5 1062.2,2606.9 1071.8,2612.4 1081.1,2606.9 1081.1,2595.5 1071.8,2590.4 	"/>
	<polygon class="st10" points="1019.7,2372.4 1019.7,2379.2 1025.5,2382.7 1031.7,2379.2 1031.7,2372.4 1025.5,2368.9 	"/>
	<polygon class="st5" points="1690.7,2205.6 1690.7,2191.9 1679.1,2185.4 1667.1,2191.9 1667.1,2205.6 1679.1,2212.2 	"/>
	<polygon class="st5" points="1883.4,2367.9 1883.4,2354.2 1871.7,2347.7 1859.7,2354.2 1859.7,2367.9 1871.7,2374.4 	"/>
	<polygon class="st9" points="1929.2,2095.9 1929.2,2104.1 1936.4,2108.2 1943.6,2104.1 1943.6,2095.9 1936.4,2091.7 	"/>
	<polygon class="st9" points="2024.2,2282.3 2024.2,2290.6 2031.4,2294.7 2038.6,2290.6 2038.6,2282.3 2031.4,2278.2 	"/>
	<polygon class="st9" points="1792.3,2366.5 1792.3,2377.5 1801.5,2383 1811.2,2377.5 1811.2,2366.5 1801.5,2361 	"/>
	<polygon class="st7" points="1905.5,2278 1905.5,2286.3 1912.4,2290 1919.2,2286.3 1919.2,2278 1912.4,2274.3 	"/>
	<polygon class="st10" points="1684.9,2286.3 1684.9,2293.1 1690.7,2296.6 1696.6,2293.1 1696.6,2286.3 1690.7,2282.8 	"/>
	<polygon class="st8" points="1842.4,2222.4 1842.4,2239.6 1857.1,2247.8 1871.5,2239.6 1871.5,2222.4 1857.1,2214.2 	"/>
	<polygon class="st5" points="2367.6,1147.6 2367.6,1135.2 2357,1129.4 2346.7,1135.2 2346.7,1147.6 2357,1153.4 	"/>
	<polygon class="st8" points="2203,1002.5 2203,1017.6 2216,1025.1 2229,1017.6 2229,1002.5 2216,994.9 	"/>
	<polygon class="st12" points="2382.1,1341.1 2366.6,1349.7 2366.6,1367.5 2382.1,1376.4 2397.5,1367.8 2397.5,1350 	"/>
	<polygon class="st4" points="2004.3,1596.3 2004.3,1581.9 1992,1575.1 1979.6,1581.9 1979.6,1596.3 1992,1603.5 	"/>
	<polygon class="st5" points="1982,1845.4 1982,1860.8 1995.4,1868 2008.1,1860.8 2008.1,1845.4 1995.4,1837.9 	"/>
	<polygon class="st13" points="2018.7,2002.5 2018.7,2020.4 2034.5,2029.3 2049.6,2020.4 2049.6,2002.5 2034.5,1993.6 	"/>
	<polyline class="st4" points="2100.7,1978.9 2115.5,1970.6 2129.9,1978.9 2129.9,1995.7 2115.5,2003.6 2100.7,1995.3 
		2100.7,1978.9 	"/>
	<polyline class="st4" points="2200.6,1573.3 2212.9,1566.5 2225.3,1573.3 2225.3,1587.8 2212.9,1594.6 2200.6,1587.8 
		2200.6,1573.3 	"/>
	<polyline class="st4" points="2241,1703 2251.7,1696.9 2262.3,1703 2262.3,1715.4 2251.7,1721.6 2241,1715.4 2241,1703 	"/>
	<polyline class="st12" points="2276.4,2043 2291.8,2034.1 2307.6,2043 2307.6,2060.9 2291.8,2069.4 2276.4,2060.9 2276.4,2043 	"/>
	<path class="st15" d="M1647.8,1562.4c36.7-0.3,49.1-0.7,61.8-2.1c24-2.1,47.7-6.9,70.7-13.7c22.3-6.9,43.2-16.8,62.8-29.8
		c17.5-11.7,33.3-26.1,46.7-42.5c12.4-15.1,22.6-31.9,30.9-49.7c8.2-17.5,14.8-36,21.3-54.5c11.7-10.3,23.7-19.9,36-28.5
		c16.5-11.7,39.8-26.4,63.1-41.2c4.1,5.5,9.6,10.3,15.8,13.7c7.2,3.1,14.8,4.5,22.6,3.8c12,0,23-6.5,29.2-17.2
		c5.1,4.1,11,7.2,17.2,9.6c7.5,2.7,15.8,3.8,24,3.1c8.2-1,16.1-3.8,23-8.2c5.1-3.8,9.9-8.2,14.1-13.4c7.9-0.3,15.8-0.3,23.7,0
		c9.9,0.7,19.9,2.1,29.5,4.5c10.3,2.7,19.6,6.2,25,7.2s6.5,0.7,7.5-1.4c1-2.1,0.7-5.1,0.7-15.1s-0.3-26.1-0.3-35.3
		c0-9.3-0.3-11.3-1.7-12.7c-2.1-1.7-4.5-3.4-7.2-4.1c-3.1-1.4-6.5-3.1-9.6-3.8c-2.4-1-5.1-1.4-7.9-1.7c3.1-0.3,6.5-0.3,9.6-0.3
		c3.1,0,6.5,0.3,9.6,0.7c2.7,0.3,4.8,1.4,6.2,1.4c1.4,0,1-1,1-11.7s0.3-31.2,0.7-45.6c0.3-14.4,1.4-23,1.7-28.1
		c0.3-5.1,0-6.5-1.4-7.9c-1.7-1-3.4-1.7-5.5-2.1c-2.1-0.3-4.1-0.7-5.8-0.7c1-1.4,2.1-3.1,3.4-4.5c1.4-1,2.4-2.7,3.4-4.1
		c0.7-1.7,0.7-3.8,0.7-12s0-22.3,0-30.5c0-8.2,0-10.3-0.7-12c-0.7-1.4-1.7-2.4-3.1-2.7c-2.4-0.3-4.8,0-6.9,0.7
		c-4.1,1-10.3,2.7-16.5,4.8s-13,4.5-19.6,5.8c-6.2,1.7-12.7,2.4-18.9,2.7c-6.5,0.3-14.1,0.3-21.3,0c-2.4-3.4-4.8-6.5-7.9-9.3
		c-3.4-3.4-7.5-6.2-12-7.9c-5.1-2.4-11-4.1-16.5-4.8c-5.8-0.3-12,0-17.8,1.7c-5.1,1.7-9.6,4.1-13.7,7.2c-3.4,2.7-6.2,5.8-8.6,9.6
		c-6.5-8.6-16.8-13.4-27.4-13.4c-6.2,0-12,1.4-17.5,3.4c-5.8,2.7-11.7,5.8-17.2,9.3c-6.2-2.7-12.4-5.5-29.8-14.8
		c-17.5-9.3-45.6-24-74.1-39.1c-9.9-18.2-20.2-36.4-30.2-52.8c-9.6-15.8-20.6-30.9-32.9-44.6c-25-26.1-53.5-48-85.1-65.5
		c-16.1-7.9-33.3-14.1-51.1-17.8c-16.5-3.8-33.3-6.2-50.4-6.9c-19.6-1-44.3-1.4-149.2,2.7s-290.9,12.7-448.4,19.6
		s-287.8,12.4-364.7,15.8c-76.9,3.4-101.2,4.5-120.8,7.2c-19.6,2.7-35.7,7.9-48,15.8c-13,8.2-23,20.6-28.1,35
		c-5.8,15.8-7.9,35.7-8.9,50.4c-1,14.8-0.7,24.4,1.4,88.2s5.5,180.8,7.5,252.5c2.1,71.7,2.1,97.4,2.4,117c0.3,19.6,0.3,32.9,3.8,46
		c8.9,30.2,31.2,54.2,60.4,65.5c17.5,6.2,39.5,8.6,74.8,9.3c25.4,0.7,57.6,0.3,133.8,0L1647.8,1562.4z M1920.3,1016.9
		c1.4,3.8,2.4,7.9,3.1,11.7c1,5.5,2.7,13.7,4.1,25.7c1.7,16.1,2.4,32.6,2.4,48.7c0,19.9,3.1,46.7,3.4,70.3
		c1.7-30.5,4.1-73.8,5.1-94.3c0.3-12,0.3-15.8,0-19.9c16.5,8.2,32.9,16.1,45.3,21.6c8.6,3.8,17.5,6.9,26.8,9.3
		c3.1,0.7,6.2,1,9.6,0.3c-27.4-14.4-55.2-28.8-69-38.4c-4.1-2.7-7.5-5.8-10.3-9.6l96.8,52.5c1,63.1,2.1,126.3,3.1,189
		c-36.7,26.4-73.8,52.8-110.8,78.9c-1.7,6.2-3.4,12.4-6.9,22.6c-4.1,14.1-9.6,27.8-16.1,41.2c-8.6,17.2-19.6,33.3-31.9,47.7
		c-13,14.4-27.8,27.1-44.6,37.1c-18.9,11.7-39.5,20.6-60.7,26.4c-23.7,6.5-50.4,10.6-94.3,12.7s-105.3,2.1-172.2,2.1
		c-66.9,0-138.9-0.3-199-0.3s-107.4,0.3-173.6,0.3c-66.2,0-150.6,0.7-223,0.7s-132.8-0.7-178.4-1.4c-45.6-0.7-77.5-1.4-99.8-4.8
		c-22.3-3.4-36.4-10.3-48-20.6c-12-10.3-21.3-23.7-26.8-38.8c-5.1-15.1-5.8-31.6-7.2-82.3c-1.4-50.8-3.1-135.9-5.5-209.6
		c-2.4-73.8-4.8-136.5-5.5-176s1-55.6,4.8-69.3c3.1-12.7,9.9-24.7,19.2-34c9.9-8.9,22.3-15.4,35.3-18.5c13.7-3.4,28.5-4.5,45.3-5.8
		s36-2.1,79.9-4.1c43.9-2.1,112.2-4.5,191.8-7.9c79.6-3.4,170.5-7.9,248.4-11.3c77.9-3.4,142.7-6.9,206.2-9.6
		c63.5-2.7,125.9-5.5,167.4-7.2s62.1-2.7,83.7-3.1c21.6-0.3,43.6-0.3,63.8,0.7c18.9,1,37.4,3.1,55.6,6.9
		c16.8,3.1,33.3,8.2,48.7,15.4c15.8,7.9,30.5,17.5,44.3,28.8c15.1,12,29.5,25,42.5,39.5c11.3,13,21.3,27.1,29.8,42.2
		C1909.3,993.9,1915.1,1005.6,1920.3,1016.9L1920.3,1016.9z M2051.7,1088.9c3.4-3.8,7.5-6.9,11.7-9.6c4.5-2.7,9.6-4.1,15.1-4.5
		c5.5,0,10.6,1.7,14.8,4.8c5.8,4.1,9.6,10.3,10.6,17.2c2.1,8.9,1.7,22.3,1.7,42.2c0,19.9,0.3,46,0.3,72.4c-1-25.7-2.4-51.5-3.1-68.6
		c-0.7-17.2-1-26.8-2.1-33.3c-0.3-4.8-2.1-9.6-4.5-13.7c-1.7-3.1-4.5-5.8-7.9-7.5c-4.1-2.1-8.9-3.1-13.7-3.1
		c-5.1,0-9.9,0.7-15.1,1.7C2057.1,1087.2,2054.4,1087.9,2051.7,1088.9L2051.7,1088.9z M2107.6,1264.9c0.3,2.4,0.3,4.8,0.3,7.2
		c0,4.5-0.3,8.9-1.4,13c-0.7,4.8-2.7,9.3-5.5,13.4c-2.7,4.1-6.5,7.2-11.3,9.3c-5.1,2.1-10.3,2.4-15.8,1.4c-5.5-1-10.6-3.4-14.4-7.5
		c-3.8-4.1-6.9-9.3-8.2-15.1c-1.7-5.8-2.7-11.7-2.7-17.5c-0.3-5.8,0-12,0.3-17.8c1,7.2,2.4,14.4,4.5,21.6c1.7,6.2,4.8,12,9.6,16.8
		c4.1,4.5,9.9,7.2,15.8,7.9c5.5,0.7,11-0.3,15.8-3.1c3.8-2.4,7.2-6.2,9.3-10.3c1.7-3.4,2.7-7.2,3.1-11
		C2106.9,1270.4,2107.2,1267.7,2107.6,1264.9L2107.6,1264.9z M2116.5,1287.9c1.7,3.4,4.1,6.5,7.2,9.3c4.5,3.8,9.9,6.2,15.4,7.2
		c6.2,0.7,12.4,0,18.2-2.1s11-5.1,15.4-9.3c3.4-3.4,6.2-7.5,7.9-12v-42.9c-0.3,8.9-1.7,17.8-3.1,26.8c-1.4,7.2-4.1,14.1-8.6,19.9
		c-4.5,5.1-9.9,8.9-16.1,11c-5.5,2.1-11.3,2.7-16.8,2.1c-4.1-0.3-8.2-2.1-12-4.1C2121,1292,2118.6,1290,2116.5,1287.9L2116.5,1287.9
		z M2161.1,1101.6c3.4,3.8,5.8,9.9,7.2,22.6c1.4,12.7,2.1,32.6,2.7,52.5c0.7,19.9,0.7,40.8,0.3,55.6s-1.4,23.7-4.1,31.2
		c-2.1,6.9-6.2,12.7-12,16.8c-5.1,3.1-11.3,3.8-17.2,2.1c-5.5-1.4-10.3-4.5-13.4-9.3c-4.8-6.9-7.9-14.8-9.3-23
		c-2.1-11-3.1-25.7-3.4-48.7c-0.3-23-0.7-53.2-0.7-72.7c0-19.6,0-27.4,1.4-34.3c1-5.8,3.8-11.3,7.9-15.4c4.5-4.5,9.9-7.5,16.1-8.6
		c7.2-1.4,14.8-0.3,21.3,3.1c7.2,3.8,12.7,10.6,15.4,18.5c3.1,8.6,3.4,19.2,4.1,41.5s1.4,56.3,1.7,89.9c-1.4-32.2-2.7-64.8-4.1-85.1
		c-1.4-20.2-2.1-28.5-4.1-35.3c-1.4-5.8-4.5-11-8.6-15.4c-3.4-3.4-7.9-5.5-12.7-6.5c-5.5-1.4-11.3-0.7-16.1,2.1
		c-6.9,4.1-12,10.6-14.1,18.5c-3.1,9.3-3.1,21.3-3.4,36s-0.3,31.6,0,48.7s1.7,33.3,3.1,44.3c0.7,7.2,2.1,14.4,3.4,21.6
		c0.7-18.9,1.4-37.4,2.1-59.4c0.7-22,2.4-47,3.8-63.5c1.4-16.5,3.1-23.7,6.5-28.1c3.1-4.1,8.2-6.2,13-5.8
		C2153.6,1095.4,2158,1097.8,2161.1,1101.6L2161.1,1101.6z M2091.5,1099.9c-2.1-3.4-5.1-5.8-8.9-6.5c-5.5-1-11.3-0.3-16.5,2.1
		c-5.1,2.7-9.3,8.2-11.7,18.2c-2.4,9.9-3.8,25-3.8,50.4c0,27.8,1,55.6,3.8,83c2.7,21.6,6.9,28.1,12,32.6c4.1,3.8,9.6,5.8,15.1,6.2
		c5.1,0.7,10.3-2.1,12.7-6.9c2.7-5.5,3.4-15.4,3.1-44.3s-1.7-76.8-2.7-102.6S2093.2,1102.6,2091.5,1099.9L2091.5,1099.9z
		 M2190.3,1179.2c6.2-0.7,12.7-1.4,19.9-1.7c9.3-0.3,18.2-0.3,27.4,0.3c8.2,0.3,13.7,1.4,19.6,2.1c-5.8-2.7-12-4.5-18.5-5.5
		c-9.6-1.4-19.2-2.1-29.2-2.4c-5.5-0.3-11,0-16.5,0.3c-1,0-2.1,0-3.1,0v-0.7c-0.3-10.3-0.3-23.3,0.7-37.1c1-13.7,2.7-27.4,4.5-41.5
		c6.2-0.3,12.4-0.7,18.5-1.7c6.5-1,13-2.4,19.2-4.1c6.9-2.1,14.4-4.5,19.6-5.8c5.1-1.4,7.2-1.4,8.6-0.7c1.4,0.7,1.7,2.4,1.7,7.9
		s0,15.4,0,22s0,9.9-1.7,13.7c-2.7,4.8-5.8,9.3-9.3,13.4c3.8,1.4,6.9,3.4,9.9,6.2c2.1,2.7,2.7,6.2,3.1,15.1c0.3,8.2,0.7,20.9,1,31.6
		c-6.5-0.7-13.4-1.7-20.9-2.4c-9.6-0.7-20.9-1.4-31.2-1.7c-7.9,0-15.4-0.3-22.6-0.3C2190.3,1184.3,2190.3,1181.6,2190.3,1179.2
		L2190.3,1179.2z M2191.6,1210.7c4.5-0.7,9.3-1,14.1-1.4c5.8-0.3,11.7-0.3,17.5,0c4.8,0.3,9.9,1,14.8,2.4c3.4,1,6.5,2.4,9.6,3.8
		c-5.5-1.4-11-2.1-16.5-2.7c-5.5-0.3-11.3-0.3-16.8,0.7c-4.8,0.7-9.9,2.1-14.4,3.8c-2.7,1-5.1,2.4-7.5,3.8c0.3,5.1,0.7,10.6,1,15.4
		c1,12,1.7,22.6,2.4,33.3c8.2,0.3,16.5,1.4,24.7,3.1c7.9,1.7,15.8,4.5,23.3,7.5c5.1,2.4,9.6,5.5,14.1,8.6c2.4,1.7,4.5,3.8,6.5,6.2
		c0-15.4,0.3-30.9,0.3-39.5s0-9.9-1.4-11.7c-2.4-2.1-5.1-3.8-7.9-4.8c-9.3-4.5-19.2-7.5-29.5-9.6c-5.8-1-11.3-1.7-17.2-2.1
		c-3.4-0.3-6.9,0-9.9,0.3c5.1-2.1,10.3-3.4,15.8-3.8c7.9-1,16.1-1.4,24.4-1c6.9,0.3,14.1,1,20.9,1.7c4.5,0.3,6.2,0.7,6.9,0
		c0.7-0.7,0.7-2.1,0.7-6.9c0-4.8-0.7-10.6-1-20.6c-6.5-0.7-13-1.7-20.6-2.1c-9.3-0.7-18.5-0.7-27.8,0c-6.5,0.3-12.7,1-18.9,2.1
		c-2.7,0.3-5.1,1-7.5,1.7v1.7C2191.3,1203.9,2191.6,1207.3,2191.6,1210.7L2191.6,1210.7z"/>
	<path class="st15" d="M1900,1405.6c-10.3,20.6-24,39.5-40.5,55.9c-12.7,12.4-27.4,23-42.9,31.6c-19.2,9.9-39.8,17.2-60.7,21.6
		c-27.8,5.8-55.9,9.3-84.4,10.6c-33.6,2.1-73.8,2.7-105.7,3.1c-31.9,0.3-55.6,0.7-79.3,0.7c5.1-1.4-73.4-1-118-2.4l-23.7-0.7
		c-47,0.7-105.7,0.3-157.1,0.3c-57.6,0-72.4,0.7-116.3,0c-28.5-0.3-78.6,3.8-101.6,2.4c-36.4,1.4-113.2,2.4-109.8,4.5
		c-31.6-0.3-63.5-0.3-92.3-1.4c-28.8-1-55.6-2.1-75.1-4.1c-14.8-1.4-29.2-3.8-43.6-7.9c-9.9-2.7-19.2-6.5-28.5-11.3
		c-7.5-3.8-14.1-8.6-19.9-14.4c-5.1-5.1-9.3-11.3-12.4-17.8c-2.7-6.2-4.8-12.7-5.8-19.6c-1.4-9.3-2.1-18.9-1.7-28.5
		c0.3-12.4,1.7-24.7,3.8-36.7c2.1-13,4.8-26.4,8.2-41.2c3.4-14.8,7.5-31.2,11-48c3.8-17.8,6.2-36.4,6.9-54.5
		c0.7-20.2-0.3-40.5-3.4-60.4c-3.4-18.5-7.9-37.1-13.7-55.2c-5.1-17.5-10.6-34.7-15.8-49.7s-11-28.8-14.8-42.9
		c-3.8-14.1-5.1-28.5-3.8-42.9c1.4-13,5.1-25.7,11.7-37.4c5.1-9.6,12.7-18.2,21.6-24.7c8.6-5.8,17.8-10.3,27.8-12.4
		c10.6-2.7,22.3-3.8,43.6-5.1c21.3-1.4,51.8-1.7,113.2-4.5s154-6.5,240.8-10.6s167.8-7.9,247.4-11.7c79.6-3.8,158.8-7.5,226.8-10.6
		s125.6-5.5,168.1-4.8c42.5,0.7,70.3,4.5,93.3,10.3c20.2,5.1,39.5,13.7,57,25.4c15.1,9.9,29.2,21.6,41.9,34.3
		c11.3,11,19.2,20.2,27.1,29.2c-2.4-5.1-5.5-10.3-8.6-15.1c-6.5-10.3-14.1-19.6-22.3-28.1c-13.4-13.4-27.8-24.7-43.9-34.7
		c-17.5-10.6-36.4-18.2-56.3-23c-21.6-5.5-47.3-8.9-86.1-9.3c-38.8-0.3-91.6,2.1-144.4,4.5c-52.8,2.4-106,3.8-158.8,5.8
		s-104.6,4.5-163.3,7.2c-58.7,2.7-124.2,6.2-189.4,8.9s-130.4,5.1-179.1,7.5c-48.7,2.4-81.3,4.1-109.8,5.5
		c-28.5,1.4-53.9,1.7-72,3.1c-14.1,0.3-27.8,3.1-40.8,7.9c-12,4.5-23,11.3-31.9,20.6c-9.9,10.6-17.2,23.7-20.9,37.7
		c-3.8,15.8-5.1,32.2-3.4,48.4c1.7,16.5,4.5,32.9,9.3,48.7c4.5,16.8,10.3,34.3,15.8,55.2c6.2,23,11,46,14.4,69.3
		c3.4,23.3,4.5,46.7,3.4,70c-1.4,22-4.1,43.9-8.9,65.5c-3.1,14.4-7.5,28.5-12.4,42.2c-0.3,12.7-0.3,25.4-0.7,40.8
		c-0.3,15.4,0,34.7,3.1,50.4c2.4,14.1,8.6,27.4,17.8,38.1c8.9,9.9,20.2,17.8,32.9,22.6c13.7,6.2,30.5,11,67.6,14.1
		c37.1,3.1,94.7,4.8,163.7,4.8c69,0,149.9-1.4,224.4-1.7s141.4-0.7,227.8-0.3c86.5,0.3,191.4,1,264.2,0.3
		c72.7-0.7,114.2-3.1,146.8-6.9c26.4-2.7,52.1-8.9,76.9-17.8c18.5-6.9,35.7-16.1,51.5-27.8c12.7-9.6,23.7-20.9,32.9-34
		c15.4-20.9,26.4-44.9,32.6-70.3C1906.9,1391.2,1903.8,1398.4,1900,1405.6z"/>
	<path class="st15" d="M1931.9,1187.4c1,9.6,2.1,19.6,3.1,31.9c1,12.4,1.4,27.4,1.4,41.9c0,14.4-0.3,28.5-1.4,40.5
		c-1,10.3-2.7,20.2-4.8,30.5c-0.3-13.4-1-26.8-1-46s-0.7-43.9,0-61.4C1929.5,1212.4,1930.5,1200.1,1931.9,1187.4L1931.9,1187.4z"/>
	<path class="st15" d="M1948.7,1339c28.1-20.6,56.6-41.2,84.7-62.1c-9.6,4.8-18.9,10.3-28.1,16.5c-11.3,7.5-25.4,17.8-35.3,25.7
		C1962.5,1325.3,1955.3,1331.8,1948.7,1339L1948.7,1339z"/>
	<path class="st15" d="M1897.6,1000.1c6.9,10.6,12,22,15.1,34.3c3.4,14.8,4.1,34.3,4.5,50.8c0.3,16.5,0.7,29.2,0.7,41.9
		c-3.1-25-6.2-50.1-8.6-69c-2.4-18.9-4.8-32.2-6.5-40.8C1901.4,1011,1899.7,1005.6,1897.6,1000.1L1897.6,1000.1z"/>
	
		<rect x="1232.9" y="640.1" transform="matrix(0.351 -0.9364 0.9364 0.351 -316.9062 1945.2877)" class="st6" width="24" height="1122.3"/>
	<line class="st16" x1="681" y1="1237.8" x2="1802.2" y2="1069.7"/>
	
		<rect x="686.9" y="1248.1" transform="matrix(0.9991 -4.222346e-02 4.222346e-02 0.9991 -52.0876 54.0634)" class="st8" width="1133.9" height="24"/>
	
		<rect x="652.9" y="1203.3" transform="matrix(0.9125 -0.409 0.409 0.9125 -388.7443 612.8666)" class="st9" width="1171.3" height="24"/>
	<path class="st15" d="M1473.9,1562c0-0.3-396.3-0.3-411-0.3c0,1.4-0.3,76.8-0.3,76.8h410.3L1473.9,1562z M1071.1,1625.2
		c0-11.3,0-23,4.8-30.9c4.8-7.9,14.4-12.7,27.8-15.1c29.5-3.8,59.4-2.1,88.2,4.8c13.7,3.4,27.4,8.9,50.8,8.9s56.3-5.8,88.5-8.9
		s64.8-4.1,84.4-1.7c19.6,2.4,25.7,8.2,29.2,16.1c3.4,7.9,3.1,17.5,3.1,27.1L1071.1,1625.2z"/>
	<polyline class="st4" points="1411.1,423.7 1422.1,417.5 1432.7,423.7 1432.7,436.4 1422.1,442.2 1411.1,436 1411.1,423.7 	"/>
	<polygon class="st17" points="829.9,701.9 829.9,691 820.7,685.8 811.1,691 811.1,701.9 820.7,707.4 	"/>
	<polygon class="st14" points="1950.1,1661.9 1950.1,1678 1964.2,1685.9 1977.9,1678 1977.9,1661.9 1964.2,1653.6 	"/>
	<polygon class="st7" points="2181,2149.4 2181,2162.1 2192,2168.2 2202.3,2162.1 2202.3,2149.4 2192,2143.5 	"/>
	<polygon class="st8" points="2357,1650.2 2357,1638.2 2346.7,1632 2336.1,1638.2 2336.1,1650.2 2346.7,1656.4 	"/>
	<polygon class="st5" points="2138.1,1464.6 2138.1,1476.6 2148.8,1482.8 2159,1476.6 2159,1464.6 2148.8,1458.4 	"/>
	<polygon class="st7" points="1964.2,1508.8 1964.2,1490.7 1948.7,1482.1 1932.9,1490.7 1932.9,1508.8 1948.7,1517.8 	"/>
	<polygon class="st7" points="2012.9,1428.6 2012.9,1440.6 2023.5,1446.8 2033.8,1440.6 2033.8,1428.6 2023.5,1422.4 	"/>
	<polygon class="st8" points="2124.4,1377.5 2124.4,1402.5 2146,1414.8 2167.3,1402.5 2167.3,1377.5 2146,1365.1 	"/>
	<polygon class="st8" points="1882.2,1796.3 1882.2,1814.2 1897.6,1823.1 1913.1,1814.2 1913.1,1796.3 1897.6,1787.8 	"/>
	<polygon class="st8" points="2083.2,2136.7 2083.2,2154.9 2099,2163.8 2114.4,2154.9 2114.4,2136.7 2099,2127.8 	"/>
	<polygon class="st8" points="2079.4,1564.4 2079.4,1549.3 2066.4,1541.8 2053.4,1549.3 2053.4,1564.4 2066.4,1572 	"/>
	<polygon class="st5" points="2256.5,1828.6 2256.5,1840.6 2267.1,1846.8 2277.4,1840.6 2277.4,1828.6 2267.1,1822.4 	"/>
	<polygon class="st8" points="2112.7,1695.5 2112.7,1710.9 2126.1,1718.5 2138.8,1710.9 2138.8,1695.5 2126.1,1688.3 	"/>
	<polygon class="st5" points="1142.1,549.6 1142.1,560.2 1151.7,565.7 1161,560.2 1161,549.6 1151.7,544.1 	"/>
	<polygon class="st5" points="1531.5,561.3 1531.5,569.8 1539.1,574.3 1546.6,569.8 1546.6,561.3 1539.1,557.2 	"/>
	<polygon class="st9" points="924.3,747.9 924.3,758.9 933.5,764.4 943.1,758.9 943.1,747.9 933.5,742.4 	"/>
	<polygon class="st7" points="1321.2,562 1321.2,571.9 1329.8,576.7 1338.4,571.9 1338.4,562 1329.8,556.8 	"/>
	<polygon class="st17" points="1943.2,678.9 1943.2,668.7 1934.7,663.9 1926.1,668.7 1926.1,678.9 1934.7,683.8 	"/>
	<polyline class="st4" points="311.5,1145.5 322.5,1139.4 333.1,1145.5 333.1,1157.9 322.5,1164.1 311.5,1157.9 311.5,1145.5 	"/>
	<polyline class="st4" points="1505.5,2167.9 1516.4,2161.7 1527.1,2167.9 1527.1,2180.2 1516.4,2186.4 1505.5,2180.2 
		1505.5,2167.9 	"/>
	<polyline class="st12" points="1797.8,1699.6 1786.8,1693.4 1776.2,1699.6 1776.2,1711.9 1786.8,1718.1 1797.8,1711.9 
		1797.8,1699.6 	"/>
	<polygon class="st5" points="149.9,1558.6 149.9,1569.2 159.2,1574.7 168.5,1569.2 168.5,1558.6 159.2,1553.1 	"/>
	<polygon class="st10" points="488.2,1265.6 488.2,1274.2 495.8,1278.6 503,1274.2 503,1265.6 495.8,1261.1 	"/>
	<polygon class="st9" points="179.8,1000.1 179.8,1011 189.4,1016.5 198.6,1011 198.6,1000.1 189.4,994.9 	"/>
	<polygon class="st9" points="416.5,989.4 416.5,1000.4 426.1,1005.6 435.7,1000.4 435.7,989.4 426.1,983.9 	"/>
	<polygon class="st7" points="238.8,1293.7 238.8,1283.4 230.2,1278.6 221.6,1283.4 221.6,1293.7 230.2,1298.5 	"/>
	<polygon class="st5" points="268,1388.8 268,1399.1 276.9,1403.9 285.4,1399.1 285.4,1388.8 276.9,1384 	"/>
	<polygon class="st5" points="238.4,1773.4 238.4,1783.7 247.4,1788.5 255.9,1783.7 255.9,1773.4 247.4,1768.6 	"/>
	<polygon class="st5" points="1292.8,2407.4 1292.8,2418 1302,2423.5 1311.3,2418 1311.3,2407.4 1302,2401.9 	"/>
	<polygon class="st5" points="1667.1,2474.4 1667.1,2485.1 1676.3,2490.6 1685.6,2485.1 1685.6,2474.4 1676.3,2468.9 	"/>
	<polygon class="st10" points="1682.2,2288 1682.2,2296.6 1689.7,2301 1696.9,2296.6 1696.9,2288 1689.7,2283.5 	"/>
	<polygon class="st9" points="891.7,2299.3 891.7,2310.3 901.3,2315.8 910.6,2310.3 910.6,2299.3 901.3,2293.8 	"/>
	<polygon class="st9" points="562.7,2137.7 562.7,2148.7 572.3,2154.2 581.5,2148.7 581.5,2137.7 572.3,2132.6 	"/>
	<polygon class="st9" points="915,2411.1 915,2422.1 924.6,2427.6 933.9,2422.1 933.9,2411.1 924.6,2406 	"/>
	<polygon class="st7" points="1415.6,2305.8 1415.6,2316.1 1424.2,2320.9 1432.7,2316.1 1432.7,2305.8 1424.2,2301 	"/>
	<polygon class="st10" points="1393.3,2361.4 1393.3,2371.3 1401.9,2376.5 1410.4,2371.3 1410.4,2361.4 1401.9,2356.6 	"/>
	<polygon class="st5" points="1177.1,2383.7 1177.1,2394 1186.1,2398.8 1194.6,2394 1194.6,2383.7 1186.1,2378.9 	"/>
	<polygon class="st5" points="1737.7,1615.9 1737.7,1608.7 1731.2,1604.9 1725,1608.7 1725,1615.9 1731.2,1619.3 	"/>
	<polygon class="st10" points="1611.8,1629.6 1611.8,1639.6 1620.4,1644.7 1629.3,1639.6 1629.3,1629.6 1620.4,1624.8 	"/>
	<polyline class="st9" points="797,1664.6 789.1,1660.1 781.2,1664.6 781.2,1673.5 789.1,1678 797,1673.5 797,1664.6 	"/>
	<polyline class="st10" points="907.5,1752.1 899.9,1748 892.4,1752.1 892.4,1760.7 899.9,1764.8 907.5,1760.7 907.5,1752.1 	"/>
	<polyline class="st9" points="1180.9,1678.7 1168.9,1672.2 1157.2,1678.7 1157.2,1692.4 1168.9,1699.3 1180.9,1692.4 
		1180.9,1678.7 	"/>
	<polyline class="st4" points="750,1764.1 742.8,1760 735.2,1764.4 735.2,1772.7 742.8,1776.8 750,1772.7 750,1764.1 	"/>
	<polygon class="st13" points="1563.4,1735.6 1563.4,1744.5 1571,1749 1578.5,1744.5 1578.5,1735.6 1571,1731.2 	"/>
	<polygon class="st13" points="1852.3,1617.3 1852.3,1608.3 1844.4,1603.9 1836.9,1608.3 1836.9,1617.3 1844.4,1621.7 	"/>
	<polygon class="st7" points="832.7,1741.1 832.7,1754.5 844.3,1761.4 856.3,1754.5 856.3,1741.1 844.3,1734.2 	"/>
	<polygon class="st10" points="1386.1,1682.1 1386.1,1689 1391.9,1692.7 1398.1,1689 1398.1,1682.1 1391.9,1678.7 	"/>
	<polygon class="st9" points="449.4,1576.4 449.4,1584.7 456.3,1588.8 463.9,1584.7 463.9,1576.4 456.3,1572.3 	"/>
	<polygon class="st9" points="613.4,1731.2 613.4,1742.5 622.7,1748 632.3,1742.5 632.3,1731.2 622.7,1726 	"/>
	<polygon class="st7" points="499.5,1681.8 499.5,1690 506.4,1693.8 513.3,1690 513.3,1681.8 506.4,1678 	"/>
	<polygon class="st10" points="721.9,1633.7 721.9,1640.6 727.7,1644 733.5,1640.6 733.5,1633.7 727.7,1630.3 	"/>
	<polygon class="st6" points="895.5,1614.2 895.5,1621 901.3,1624.5 907.1,1621 907.1,1614.2 901.3,1610.7 	"/>
	<polygon class="st8" points="552.7,1587.4 552.7,1604.2 567.1,1612.8 581.9,1604.2 581.9,1587.4 567.1,1579.2 	"/>
	<polygon class="st5" points="1113,1772 1113,1783 1122.2,1788.1 1131.8,1783 1131.8,1772 1122.2,1766.8 	"/>
	<polygon class="st10" points="648.4,1649.5 648.4,1658.1 655.6,1662.2 663.2,1658.1 663.2,1649.5 655.6,1645 	"/>
	<polyline class="st4" points="1889.4,1554.1 1900.4,1548 1911,1554.1 1911,1566.8 1900.4,1573 1889.4,1566.8 1889.4,1554.1 	"/>
	<polygon class="st9" points="1513.7,1663.9 1513.7,1674.9 1523,1680.4 1532.6,1674.9 1532.6,1663.9 1523,1658.4 	"/>
	<polygon class="st7" points="991.5,1670.8 991.5,1680.7 1000.1,1685.9 1009,1680.7 1009,1670.8 1000.1,1665.6 	"/>
	<polygon class="st10" points="1013.8,1726 1013.8,1736.3 1022.4,1741.1 1031.3,1736.3 1031.3,1726 1022.4,1721.2 	"/>
	<polygon class="st5" points="1229.6,1748.7 1229.6,1758.6 1238.2,1763.8 1247.1,1758.6 1247.1,1748.7 1238.2,1743.5 	"/>
	<polygon class="st5" points="2242.4,1378.5 2242.4,1389.5 2251.7,1394.6 2260.9,1389.5 2260.9,1378.5 2251.7,1373.3 	"/>
	<polygon class="st10" points="2066.1,1674.6 2066.1,1683.1 2073.6,1687.2 2081.2,1683.1 2081.2,1674.6 2073.6,1670.1 	"/>
	<polygon class="st9" points="2321.7,1954.2 2321.7,1965.1 2331.3,1970.6 2340.5,1965.1 2340.5,1954.2 2331.3,1948.7 	"/>
	<polygon class="st9" points="2282.6,1512.3 2282.6,1523.3 2292.2,1528.7 2301.4,1523.3 2301.4,1512.3 2292.2,1506.8 	"/>
	<polygon class="st7" points="1863,1716.4 1863,1726.4 1871.9,1731.5 1880.5,1726.4 1880.5,1716.4 1871.9,1711.3 	"/>
	<polygon class="st5" points="2377.9,1773.7 2377.9,1763.4 2369.4,1758.6 2360.4,1763.4 2360.4,1773.7 2369.4,1778.5 	"/>
	<polygon class="st5" points="159.9,1962.4 159.9,1972.3 168.8,1977.5 177.4,1972.3 177.4,1962.4 168.8,1957.2 	"/>
</g>
</svg>
