<svg xmlns="http://www.w3.org/2000/svg" xmlns:xlink="http://www.w3.org/1999/xlink" viewBox="0 0 738 852"><defs><style>.cls-1{fill:#77aab6;}.cls-2{fill:#ba6f38;}.cls-3{fill:#ef4782;}.cls-4{fill:#0088c5;}.cls-5{fill:none;}.cls-6{fill:#00a5dc;}.cls-7{fill:#f7a238;}.cls-18,.cls-8{fill:#f2f2f2;}.cls-142,.cls-9{fill:#db1f26;}.cls-10{fill:#fff34d;}.cls-11{fill:#164f86;}.cls-12{fill:#f26524;}.cls-13{fill:#36a85d;}.cls-14{isolation:isolate;}.cls-15{clip-path:url(#clip-path);}.cls-16{fill:#141227;}.cls-133,.cls-17{opacity:0.94;}.cls-17{font-size:121.7px;letter-spacing:-0.02em;}.cls-127,.cls-140,.cls-17{fill:#fff;}.cls-127,.cls-17{font-family:MyriadPro-Regular, Myriad Pro;}.cls-18,.cls-19{opacity:0.8;}.cls-20{clip-path:url(#clip-path-2);}.cls-21{clip-path:url(#clip-path-3);}.cls-22{clip-path:url(#clip-path-4);}.cls-23{clip-path:url(#clip-path-5);}.cls-24{clip-path:url(#clip-path-6);}.cls-25{clip-path:url(#clip-path-7);}.cls-26{clip-path:url(#clip-path-8);}.cls-27{clip-path:url(#clip-path-9);}.cls-28{clip-path:url(#clip-path-10);}.cls-29{clip-path:url(#clip-path-11);}.cls-30{clip-path:url(#clip-path-12);}.cls-31{clip-path:url(#clip-path-13);}.cls-32{clip-path:url(#clip-path-14);}.cls-33{clip-path:url(#clip-path-15);}.cls-34{clip-path:url(#clip-path-16);}.cls-35{clip-path:url(#clip-path-17);}.cls-36{clip-path:url(#clip-path-18);}.cls-37{clip-path:url(#clip-path-19);}.cls-38{clip-path:url(#clip-path-20);}.cls-39{clip-path:url(#clip-path-21);}.cls-40{clip-path:url(#clip-path-22);}.cls-41{clip-path:url(#clip-path-23);}.cls-42{clip-path:url(#clip-path-24);}.cls-43{clip-path:url(#clip-path-25);}.cls-44{clip-path:url(#clip-path-26);}.cls-45{clip-path:url(#clip-path-27);}.cls-46{clip-path:url(#clip-path-28);}.cls-47{clip-path:url(#clip-path-29);}.cls-48{clip-path:url(#clip-path-30);}.cls-49{clip-path:url(#clip-path-31);}.cls-50{clip-path:url(#clip-path-32);}.cls-51{clip-path:url(#clip-path-33);}.cls-52{clip-path:url(#clip-path-34);}.cls-53{clip-path:url(#clip-path-35);}.cls-54{clip-path:url(#clip-path-36);}.cls-55{fill:#b57ab4;}.cls-56{clip-path:url(#clip-path-37);}.cls-57{clip-path:url(#clip-path-38);}.cls-58{clip-path:url(#clip-path-39);}.cls-59{clip-path:url(#clip-path-40);}.cls-60{clip-path:url(#clip-path-41);}.cls-61{clip-path:url(#clip-path-42);}.cls-62{clip-path:url(#clip-path-43);}.cls-63{clip-path:url(#clip-path-44);}.cls-64{clip-path:url(#clip-path-45);}.cls-65{clip-path:url(#clip-path-46);}.cls-66{clip-path:url(#clip-path-47);}.cls-67{clip-path:url(#clip-path-48);}.cls-68{clip-path:url(#clip-path-49);}.cls-69{clip-path:url(#clip-path-50);}.cls-70{clip-path:url(#clip-path-51);}.cls-71{clip-path:url(#clip-path-52);}.cls-72{clip-path:url(#clip-path-53);}.cls-73{clip-path:url(#clip-path-54);}.cls-74{clip-path:url(#clip-path-55);}.cls-75{clip-path:url(#clip-path-56);}.cls-76{clip-path:url(#clip-path-57);}.cls-77{clip-path:url(#clip-path-58);}.cls-78{clip-path:url(#clip-path-59);}.cls-79{clip-path:url(#clip-path-60);}.cls-80{clip-path:url(#clip-path-61);}.cls-81{clip-path:url(#clip-path-62);}.cls-82{clip-path:url(#clip-path-63);}.cls-83{clip-path:url(#clip-path-64);}.cls-84{clip-path:url(#clip-path-65);}.cls-85{clip-path:url(#clip-path-66);}.cls-86{clip-path:url(#clip-path-67);}.cls-87{clip-path:url(#clip-path-68);}.cls-88{clip-path:url(#clip-path-69);}.cls-89{clip-path:url(#clip-path-70);}.cls-90{clip-path:url(#clip-path-71);}.cls-91{clip-path:url(#clip-path-72);}.cls-92{clip-path:url(#clip-path-73);}.cls-93{clip-path:url(#clip-path-74);}.cls-94{clip-path:url(#clip-path-75);}.cls-95{clip-path:url(#clip-path-76);}.cls-96{clip-path:url(#clip-path-77);}.cls-97{clip-path:url(#clip-path-78);}.cls-98{clip-path:url(#clip-path-79);}.cls-99{clip-path:url(#clip-path-80);}.cls-100{clip-path:url(#clip-path-81);}.cls-101{clip-path:url(#clip-path-82);}.cls-102{clip-path:url(#clip-path-83);}.cls-103{clip-path:url(#clip-path-84);}.cls-104{clip-path:url(#clip-path-85);}.cls-105{clip-path:url(#clip-path-86);}.cls-106{clip-path:url(#clip-path-87);}.cls-107{clip-path:url(#clip-path-88);}.cls-108{clip-path:url(#clip-path-89);}.cls-109{clip-path:url(#clip-path-90);}.cls-110{clip-path:url(#clip-path-91);}.cls-111{clip-path:url(#clip-path-92);}.cls-112{clip-path:url(#clip-path-93);}.cls-113{clip-path:url(#clip-path-94);}.cls-114{clip-path:url(#clip-path-95);}.cls-115{clip-path:url(#clip-path-96);}.cls-116{clip-path:url(#clip-path-97);}.cls-117{clip-path:url(#clip-path-98);}.cls-118{clip-path:url(#clip-path-99);}.cls-119{clip-path:url(#clip-path-100);}.cls-120{clip-path:url(#clip-path-101);}.cls-121{clip-path:url(#clip-path-102);}.cls-122{clip-path:url(#clip-path-103);}.cls-123{clip-path:url(#clip-path-104);}.cls-124{clip-path:url(#clip-path-105);}.cls-125{clip-path:url(#clip-path-106);}.cls-126{fill:#404040;}.cls-127{font-size:25px;}.cls-128{letter-spacing:0.01em;}.cls-129{letter-spacing:-0.04em;}.cls-130{letter-spacing:-0.02em;}.cls-131{letter-spacing:-0.01em;}.cls-132{letter-spacing:0em;}.cls-134{opacity:0.25;mix-blend-mode:multiply;}.cls-135{clip-path:url(#clip-path-107);}.cls-136{clip-path:url(#clip-path-109);}.cls-137{clip-path:url(#clip-path-111);}.cls-138{opacity:0.95;}.cls-139{clip-path:url(#clip-path-113);}.cls-141{fill:#bcbcbc;fill-rule:evenodd;}.cls-142{stroke:#fff34d;stroke-miterlimit:10;stroke-width:7px;}.cls-143{clip-path:url(#clip-path-115);}.cls-144{clip-path:url(#clip-path-116);}.cls-145{clip-path:url(#clip-path-117);}.cls-146{clip-path:url(#clip-path-118);}.cls-147{clip-path:url(#clip-path-119);}.cls-148{clip-path:url(#clip-path-120);}.cls-149{clip-path:url(#clip-path-121);}.cls-150{clip-path:url(#clip-path-122);}.cls-151{clip-path:url(#clip-path-123);}.cls-152{clip-path:url(#clip-path-124);}.cls-153{clip-path:url(#clip-path-125);}.cls-154{clip-path:url(#clip-path-126);}.cls-155{clip-path:url(#clip-path-127);}.cls-156{clip-path:url(#clip-path-128);}.cls-157{clip-path:url(#clip-path-129);}.cls-158{clip-path:url(#clip-path-130);}.cls-159{clip-path:url(#clip-path-131);}.cls-160{clip-path:url(#clip-path-132);}.cls-161{clip-path:url(#clip-path-133);}.cls-162{clip-path:url(#clip-path-134);}.cls-163{clip-path:url(#clip-path-135);}.cls-164{clip-path:url(#clip-path-136);}.cls-165{clip-path:url(#clip-path-137);}.cls-166{clip-path:url(#clip-path-138);}.cls-167{clip-path:url(#clip-path-139);}.cls-168{clip-path:url(#clip-path-140);}.cls-169{clip-path:url(#clip-path-141);}.cls-170{clip-path:url(#clip-path-142);}.cls-171{clip-path:url(#clip-path-143);}.cls-172{clip-path:url(#clip-path-144);}.cls-173{clip-path:url(#clip-path-145);}.cls-174{clip-path:url(#clip-path-146);}.cls-175{clip-path:url(#clip-path-147);}.cls-176{clip-path:url(#clip-path-148);}.cls-177{clip-path:url(#clip-path-149);}.cls-178{clip-path:url(#clip-path-150);}.cls-179{clip-path:url(#clip-path-151);}.cls-180{clip-path:url(#clip-path-152);}.cls-181{clip-path:url(#clip-path-153);}.cls-182{clip-path:url(#clip-path-154);}.cls-183{clip-path:url(#clip-path-155);}.cls-184{clip-path:url(#clip-path-156);}.cls-185{clip-path:url(#clip-path-157);}.cls-186{clip-path:url(#clip-path-158);}.cls-187{clip-path:url(#clip-path-159);}.cls-188{clip-path:url(#clip-path-160);}</style><clipPath id="clip-path"><polygon class="cls-1" points="371.01 8.41 729.71 215.49 729.71 637.64 371.01 846.05 4.29 637.64 4.29 215.49 371.01 8.41"/></clipPath><clipPath id="clip-path-2"><polygon class="cls-1" points="379.61 75.45 383.74 77.84 383.74 82.7 379.61 85.11 375.38 82.7 375.38 77.84 379.61 75.45"/></clipPath><clipPath id="clip-path-3"><polygon class="cls-1" points="357.88 148.21 360.98 150 360.98 153.65 357.88 155.45 354.71 153.65 354.71 150 357.88 148.21"/></clipPath><clipPath id="clip-path-4"><polygon class="cls-1" points="396.94 111.46 401.07 113.84 401.07 118.71 396.94 121.11 392.71 118.71 392.71 113.84 396.94 111.46"/></clipPath><clipPath id="clip-path-5"><polygon class="cls-1" points="318.1 207.12 320.79 208.67 320.79 211.83 318.1 213.38 315.36 211.83 315.36 208.67 318.1 207.12"/></clipPath><clipPath id="clip-path-6"><polyline class="cls-6" points="352.1 96.47 356.24 98.86 356.24 103.72 352.1 106.13 347.88 103.72 347.88 98.86"/></clipPath><clipPath id="clip-path-7"><polyline class="cls-6" points="447.11 195.38 451.24 197.76 451.24 202.63 447.11 205.03 442.88 202.63 442.88 197.76"/></clipPath><clipPath id="clip-path-8"><polyline class="cls-6" points="518.93 159.97 522.17 161.84 522.17 165.65 518.93 167.53 515.62 165.65 515.62 161.84"/></clipPath><clipPath id="clip-path-9"><polyline class="cls-6" points="318.33 169.26 321.23 170.93 321.23 174.35 318.33 176.03 315.36 174.35 315.36 170.93"/></clipPath><clipPath id="clip-path-10"><polyline class="cls-2" points="431.39 134.18 435.77 136.7 435.77 141.85 431.39 144.39 426.92 141.85 426.92 136.7"/></clipPath><clipPath id="clip-path-11"><polyline class="cls-6" points="289.06 193.67 293.11 196.01 293.11 200.77 289.06 203.12 284.93 200.77 284.93 196.01"/></clipPath><clipPath id="clip-path-12"><polygon class="cls-2" points="419.03 73.7 425.23 77.28 425.23 84.58 419.03 88.19 412.69 84.58 412.69 77.28 419.03 73.7"/></clipPath><clipPath id="clip-path-13"><polygon class="cls-11" points="308.61 710.31 314.81 713.89 314.81 721.19 308.61 724.79 302.27 721.19 302.27 713.89 308.61 710.31"/></clipPath><clipPath id="clip-path-14"><polygon class="cls-9" points="485.69 685.22 491.89 688.8 491.89 696.1 485.69 699.7 479.35 696.1 479.35 688.8 485.69 685.22"/></clipPath><clipPath id="clip-path-15"><polygon class="cls-2" points="369.25 656.4 375.45 659.98 375.45 667.28 369.25 670.88 362.91 667.28 362.91 659.98 369.25 656.4"/></clipPath><clipPath id="clip-path-16"><polygon class="cls-9" points="307.36 137.07 312.03 139.77 312.03 145.26 307.36 147.98 302.59 145.26 302.59 139.77 307.36 137.07"/></clipPath><clipPath id="clip-path-17"><polygon class="cls-10" points="323.49 114.16 327.35 116.39 327.35 120.94 323.49 123.18 319.54 120.94 319.54 116.39 323.49 114.16"/></clipPath><clipPath id="clip-path-18"><polygon class="cls-10" points="251.55 179.57 255.85 182.05 255.85 187.11 251.55 189.61 247.16 187.11 247.16 182.05 251.55 179.57"/></clipPath><clipPath id="clip-path-19"><polygon class="cls-10" points="408.39 217.85 412.69 220.33 412.69 225.39 408.39 227.89 403.99 225.39 403.99 220.33 408.39 217.85"/></clipPath><clipPath id="clip-path-20"><polygon class="cls-10" points="431.09 172.65 433.24 173.89 433.24 176.42 431.09 177.67 428.89 176.42 428.89 173.89 431.09 172.65"/></clipPath><clipPath id="clip-path-21"><polygon class="cls-10" points="86.49 301.13 89.79 303.04 89.79 306.92 86.49 308.84 83.11 306.92 83.11 303.04 86.49 301.13"/></clipPath><clipPath id="clip-path-22"><polyline class="cls-2" points="138.27 245.75 141.37 247.54 141.37 251.19 138.27 252.99 135.1 251.19 135.1 247.54"/></clipPath><clipPath id="clip-path-23"><polyline class="cls-10" points="52.81 268.44 56.79 270.74 56.79 275.43 52.81 277.74 48.74 275.43 48.74 270.74"/></clipPath><clipPath id="clip-path-24"><polyline class="cls-10" points="176.31 202.47 180.29 204.77 180.29 209.45 176.31 211.77 172.24 209.45 172.24 204.77"/></clipPath><clipPath id="clip-path-25"><polyline class="cls-9" points="201.31 175.6 204.04 177.17 204.04 180.37 201.31 181.96 198.53 180.37 198.53 177.17"/></clipPath><clipPath id="clip-path-26"><polyline class="cls-9" points="210.83 231.78 213.55 233.35 213.55 236.56 210.83 238.14 208.04 236.56 208.04 233.35"/></clipPath><clipPath id="clip-path-27"><polygon class="cls-2" points="215.05 203.7 219.21 206.1 219.21 211 215.05 213.42 210.79 211 210.79 206.1 215.05 203.7"/></clipPath><clipPath id="clip-path-28"><polygon class="cls-2" points="88.54 226.7 92.44 228.95 92.44 233.54 88.54 235.81 84.55 233.54 84.55 228.95 88.54 226.7"/></clipPath><clipPath id="clip-path-29"><polygon class="cls-9" points="113.37 266.57 116.53 268.39 116.53 272.11 113.37 273.95 110.14 272.11 110.14 268.39 113.37 266.57"/></clipPath><clipPath id="clip-path-30"><polygon class="cls-9" points="96.47 458.57 99.63 460.39 99.63 464.11 96.47 465.95 93.24 464.11 93.24 460.39 96.47 458.57"/></clipPath><clipPath id="clip-path-31"><polygon class="cls-10" points="86.49 373.63 89.79 375.54 89.79 379.42 86.49 381.34 83.11 379.42 83.11 375.54 86.49 373.63"/></clipPath><clipPath id="clip-path-32"><polygon class="cls-12" points="115.1 393.02 118.92 395.22 118.92 399.72 115.1 401.94 111.19 399.72 111.19 395.22 115.1 393.02"/></clipPath><clipPath id="clip-path-33"><polyline class="cls-2" points="138.27 338.27 141.37 340.06 141.37 343.71 138.27 345.51 135.1 343.71 135.1 340.06"/></clipPath><clipPath id="clip-path-34"><polyline class="cls-2" points="128.91 424.71 135.12 428.3 135.12 435.59 128.91 439.2 122.58 435.59 122.58 428.3"/></clipPath><clipPath id="clip-path-35"><polygon class="cls-9" points="113.37 359.08 116.53 360.91 116.53 364.63 113.37 366.46 110.14 364.63 110.14 360.91 113.37 359.08"/></clipPath><clipPath id="clip-path-36"><polygon class="cls-9" points="107.56 546.82 110.72 548.64 110.72 552.36 107.56 554.2 104.33 552.36 104.33 548.64 107.56 546.82"/></clipPath><clipPath id="clip-path-37"><polygon class="cls-1" points="55.26 429.32 60.46 432.32 60.46 438.44 55.26 441.46 49.94 438.44 49.94 432.32 55.26 429.32"/></clipPath><clipPath id="clip-path-38"><polygon class="cls-1" points="203.59 654.99 205.4 656.03 205.4 658.16 203.59 659.21 201.74 658.16 201.74 656.03 203.59 654.99"/></clipPath><clipPath id="clip-path-39"><polyline class="cls-2" points="252.06 715.58 253.75 716.55 253.75 718.54 252.06 719.52 250.33 718.54 250.33 716.55"/></clipPath><clipPath id="clip-path-40"><polyline class="cls-2" points="293.01 648.33 294.7 649.31 294.7 651.3 293.01 652.28 291.29 651.3 291.29 649.31"/></clipPath><clipPath id="clip-path-41"><polyline class="cls-2" points="95.59 628.4 97.28 629.38 97.28 631.36 95.59 632.35 93.86 631.36 93.86 629.38"/></clipPath><clipPath id="clip-path-42"><polyline class="cls-2" points="45.47 379.36 50.05 382 50.05 387.38 45.47 390.04 40.8 387.38 40.8 382"/></clipPath><clipPath id="clip-path-43"><polygon class="cls-1" points="226.55 151.83 231.21 154.51 231.21 160 226.55 162.7 221.79 160 221.79 154.51 226.55 151.83"/></clipPath><clipPath id="clip-path-44"><polygon class="cls-1" points="499.58 214.22 504.24 216.91 504.24 222.39 499.58 225.09 494.82 222.39 494.82 216.91 499.58 214.22"/></clipPath><clipPath id="clip-path-45"><polyline class="cls-2" points="246.85 232.46 250.85 234.77 250.85 239.49 246.85 241.81 242.75 239.49 242.75 234.77"/></clipPath><clipPath id="clip-path-46"><polyline class="cls-2" points="266.94 147.15 270.95 149.46 270.95 154.18 266.94 156.5 262.85 154.18 262.85 149.46"/></clipPath><clipPath id="clip-path-47"><polyline class="cls-2" points="381.34 738.73 384.71 740.68 384.71 744.66 381.34 746.63 377.88 744.66 377.88 740.68"/></clipPath><clipPath id="clip-path-48"><polygon class="cls-10" points="125.55 500.71 128.85 502.61 128.85 506.5 125.55 508.42 122.17 506.5 122.17 502.61 125.55 500.71"/></clipPath><clipPath id="clip-path-49"><polyline class="cls-10" points="63.2 480.85 67.19 483.14 67.19 487.83 63.2 490.14 59.13 487.83 59.13 483.14"/></clipPath><clipPath id="clip-path-50"><polygon class="cls-2" points="103.62 427.4 107.52 429.65 107.52 434.25 103.62 436.51 99.63 434.25 99.63 429.65 103.62 427.4"/></clipPath><clipPath id="clip-path-51"><polygon class="cls-9" points="176.3 530.4 179.46 532.23 179.46 535.95 176.3 537.79 173.07 535.95 173.07 532.23 176.3 530.4"/></clipPath><clipPath id="clip-path-52"><polygon class="cls-9" points="616.02 530.4 619.18 532.23 619.18 535.95 616.02 537.79 612.79 535.95 612.79 532.23 616.02 530.4"/></clipPath><clipPath id="clip-path-53"><polygon class="cls-10" points="125.55 573.21 128.85 575.11 128.85 579 125.55 580.91 122.17 579 122.17 575.11 125.55 573.21"/></clipPath><clipPath id="clip-path-54"><polygon class="cls-12" points="154.16 592.6 157.98 594.8 157.98 599.3 154.16 601.52 150.25 599.3 150.25 594.8 154.16 592.6"/></clipPath><clipPath id="clip-path-55"><polygon class="cls-9" points="152.43 558.66 155.59 560.49 155.59 564.2 152.43 566.04 149.2 564.2 149.2 560.49 152.43 558.66"/></clipPath><clipPath id="clip-path-56"><polygon class="cls-1" points="64.45 606.1 69.65 609.1 69.65 615.22 64.45 618.24 59.13 615.22 59.13 609.1 64.45 606.1"/></clipPath><clipPath id="clip-path-57"><polyline class="cls-2" points="69.07 539.83 73.64 542.47 73.64 547.85 69.07 550.51 64.39 547.85 64.39 542.47"/></clipPath><clipPath id="clip-path-58"><polygon class="cls-10" points="127.59 614.1 131.14 616.15 131.14 620.32 127.59 622.38 123.97 620.32 123.97 616.15 127.59 614.1"/></clipPath><clipPath id="clip-path-59"><polygon class="cls-10" points="235.91 660.74 238.4 662.17 238.4 665.11 235.91 666.55 233.37 665.11 233.37 662.17 235.91 660.74"/></clipPath><clipPath id="clip-path-60"><polygon class="cls-9" points="349 731.46 350.69 732.44 350.69 734.42 349 735.41 347.27 734.42 347.27 732.44 349 731.46"/></clipPath><clipPath id="clip-path-61"><polyline class="cls-3" points="250.36 691.78 252.57 693.06 252.57 695.66 250.36 696.95 248.1 695.66 248.1 693.06"/></clipPath><clipPath id="clip-path-62"><polyline class="cls-3" points="170.6 654.66 172.81 655.94 172.81 658.54 170.6 659.83 168.34 658.54 168.34 655.94"/></clipPath><clipPath id="clip-path-63"><polyline class="cls-4" points="600.35 282 604.36 284.32 604.36 289.04 600.35 291.37 596.25 289.04 596.25 284.32"/></clipPath><clipPath id="clip-path-64"><polyline class="cls-2" points="666.72 424.71 669.82 426.5 669.82 430.15 666.72 431.96 663.55 430.15 663.55 426.5"/></clipPath><clipPath id="clip-path-65"><polyline class="cls-2" points="475.52 155.62 480.54 158.51 480.54 164.41 475.52 167.33 470.39 164.41 470.39 158.51"/></clipPath><clipPath id="clip-path-66"><polyline class="cls-2" points="349.44 192.54 354.46 195.44 354.46 201.34 349.44 204.25 344.31 201.34 344.31 195.44"/></clipPath><clipPath id="clip-path-67"><polyline class="cls-13" points="353.73 177.67 356.24 179.12 356.24 182.07 353.73 183.52 351.17 182.07 351.17 179.12"/></clipPath><clipPath id="clip-path-68"><polygon class="cls-2" points="638.27 326.21 641.28 327.95 641.28 331.5 638.27 333.26 635.18 331.5 635.18 327.95 638.27 326.21"/></clipPath><clipPath id="clip-path-69"><polygon class="cls-1" points="517.29 198.4 519.8 199.84 519.8 202.79 517.29 204.25 514.73 202.79 514.73 199.84 517.29 198.4"/></clipPath><clipPath id="clip-path-70"><polygon class="cls-1" points="654.14 225.09 657.15 226.84 657.15 230.39 654.14 232.14 651.05 230.39 651.05 226.84 654.14 225.09"/></clipPath><clipPath id="clip-path-71"><polyline class="cls-2" points="590.25 223.75 594.73 226.33 594.73 231.61 590.25 234.21 585.67 231.61 585.67 226.33"/></clipPath><clipPath id="clip-path-72"><polyline class="cls-2" points="609.29 192.54 612.31 194.28 612.31 197.83 609.29 199.58 606.2 197.83 606.2 194.28"/></clipPath><clipPath id="clip-path-73"><polygon class="cls-2" points="650.97 183.41 657.17 186.99 657.17 194.28 650.97 197.89 644.63 194.28 644.63 186.99 650.97 183.41"/></clipPath><clipPath id="clip-path-74"><polygon class="cls-2" points="554.4 212.5 558.84 215.06 558.84 220.29 554.4 222.87 549.86 220.29 549.86 215.06 554.4 212.5"/></clipPath><clipPath id="clip-path-75"><polygon class="cls-2" points="499.58 134.44 504.02 137 504.02 142.23 499.58 144.81 495.04 142.23 495.04 137 499.58 134.44"/></clipPath><clipPath id="clip-path-76"><polygon class="cls-2" points="397.49 652.25 400.55 654.02 400.55 657.62 397.49 659.4 394.36 657.62 394.36 654.02 397.49 652.25"/></clipPath><clipPath id="clip-path-77"><polygon class="cls-2" points="135.14 648.76 138.2 650.53 138.2 654.13 135.14 655.91 132 654.13 132 650.53 135.14 648.76"/></clipPath><clipPath id="clip-path-78"><polygon class="cls-1" points="332.87 658.06 336.25 660.01 336.25 663.99 332.87 665.95 329.41 663.99 329.41 660.01 332.87 658.06"/></clipPath><clipPath id="clip-path-79"><polygon class="cls-1" points="413.65 720.05 417.03 722 417.03 725.98 413.65 727.94 410.19 725.98 410.19 722 413.65 720.05"/></clipPath><clipPath id="clip-path-80"><polyline class="cls-2" points="462.12 692.67 465.5 694.62 465.5 698.6 462.12 700.56 458.67 698.6 458.67 694.62"/></clipPath><clipPath id="clip-path-81"><polyline class="cls-2" points="318.92 739.07 321.12 740.34 321.12 742.93 318.92 744.21 316.67 742.93 316.67 740.34"/></clipPath><clipPath id="clip-path-82"><polyline class="cls-2" points="365.17 767.46 367.94 769.05 367.94 772.3 365.17 773.91 362.35 772.3 362.35 769.05"/></clipPath><clipPath id="clip-path-83"><polyline class="cls-10" points="300.53 692.46 302.27 693.46 302.27 695.5 300.53 696.51 298.76 695.5 298.76 693.46"/></clipPath><clipPath id="clip-path-84"><polygon class="cls-7" points="491.01 638.95 494.38 640.9 494.38 644.88 491.01 646.84 487.55 644.88 487.55 640.9 491.01 638.95"/></clipPath><clipPath id="clip-path-85"><polyline class="cls-9" points="566.03 611.69 568.1 612.88 568.1 615.32 566.03 616.52 563.92 615.32 563.92 612.88"/></clipPath><clipPath id="clip-path-86"><polyline class="cls-9" points="526.74 690.23 529.48 691.81 529.48 695.03 526.74 696.62 523.95 695.03 523.95 691.81"/></clipPath><clipPath id="clip-path-87"><polyline class="cls-2" points="559.05 664.88 561.03 666.02 561.03 668.36 559.05 669.51 557.02 668.36 557.02 666.02"/></clipPath><clipPath id="clip-path-88"><polygon class="cls-10" points="494.42 667.44 496.11 668.41 496.11 670.4 494.42 671.38 492.69 670.4 492.69 668.41 494.42 667.44"/></clipPath><clipPath id="clip-path-89"><polygon class="cls-2" points="542.91 647.42 547.12 649.85 547.12 654.8 542.91 657.25 538.61 654.8 538.61 649.85 542.91 647.42"/></clipPath><clipPath id="clip-path-90"><polygon class="cls-2" points="630.2 249.37 633.97 251.55 633.97 255.99 630.2 258.18 626.34 255.99 626.34 251.55 630.2 249.37"/></clipPath><clipPath id="clip-path-91"><polygon class="cls-1" points="688.64 331.18 691.66 332.92 691.66 336.47 688.64 338.22 685.56 336.47 685.56 332.92 688.64 331.18"/></clipPath><clipPath id="clip-path-92"><polygon class="cls-2" points="647.55 292.03 651.32 294.21 651.32 298.65 647.55 300.84 643.7 298.65 643.7 294.21 647.55 292.03"/></clipPath><clipPath id="clip-path-93"><polygon class="cls-1" points="583.16 537.74 586.93 539.92 586.93 544.36 583.16 546.55 579.31 544.36 579.31 539.92 583.16 537.74"/></clipPath><clipPath id="clip-path-94"><polyline class="cls-3" points="594.59 583.09 599.03 585.65 599.03 590.89 594.59 593.48 590.04 590.89 590.04 585.65"/></clipPath><clipPath id="clip-path-95"><polyline class="cls-4" points="574.08 484.04 578.09 486.35 578.09 491.08 574.08 493.41 569.97 491.08 569.97 486.35"/></clipPath><clipPath id="clip-path-96"><polyline class="cls-2" points="640.45 626.75 643.55 628.54 643.55 632.19 640.45 633.99 637.28 632.19 637.28 628.54"/></clipPath><clipPath id="clip-path-97"><polygon class="cls-2" points="685.59 477.74 688.61 479.48 688.61 483.03 685.59 484.79 682.5 483.03 682.5 479.48 685.59 477.74"/></clipPath><clipPath id="clip-path-98"><polygon class="cls-1" points="627.86 427.13 630.88 428.87 630.88 432.43 627.86 434.18 624.78 432.43 624.78 428.87 627.86 427.13"/></clipPath><clipPath id="clip-path-99"><polyline class="cls-2" points="569.61 433.96 574.09 436.55 574.09 441.82 569.61 444.43 565.03 441.82 565.03 436.55"/></clipPath><clipPath id="clip-path-100"><polyline class="cls-2" points="591.37 416.63 594.39 418.37 594.39 421.92 591.37 423.68 588.29 421.92 588.29 418.37"/></clipPath><clipPath id="clip-path-101"><polygon class="cls-2" points="627.12 399.92 633.32 403.5 633.32 410.8 627.12 414.4 620.77 410.8 620.77 403.5 627.12 399.92"/></clipPath><clipPath id="clip-path-102"><polygon class="cls-2" points="554.73 523.06 559.17 525.63 559.17 530.85 554.73 533.43 550.19 530.85 550.19 525.63 554.73 523.06"/></clipPath><clipPath id="clip-path-103"><polygon class="cls-2" points="613.44 622.19 617.93 624.78 617.93 630.07 613.44 632.68 608.85 630.07 608.85 624.78 613.44 622.19"/></clipPath><clipPath id="clip-path-104"><polygon class="cls-2" points="603.92 451.41 607.7 453.59 607.7 458.02 603.92 460.21 600.07 458.02 600.07 453.59 603.92 451.41"/></clipPath><clipPath id="clip-path-105"><polygon class="cls-1" points="662.37 533.22 665.39 534.96 665.39 538.51 662.37 540.26 659.28 538.51 659.28 534.96 662.37 533.22"/></clipPath><clipPath id="clip-path-106"><polygon class="cls-2" points="621.28 494.07 625.05 496.25 625.05 500.69 621.28 502.88 617.42 500.69 617.42 496.25 621.28 494.07"/></clipPath><clipPath id="clip-path-107"><path class="cls-5" d="M5496.36-2553.68l-338.13,195.22-338.12-195.22v-390.43l338.12-195.21h0l338.13,195.21Z"/></clipPath><clipPath id="clip-path-109"><polygon class="cls-5" points="5002.16 -2769.9 5309.82 -2769.9 11888.74 1411.37 -1576.76 1411.37 5002.16 -2769.9"/></clipPath><clipPath id="clip-path-111"><path class="cls-5" d="M5494.86-2555.18,5156.73-2360l-338.12-195.22v-390.43l338.12-195.21h0l338.13,195.21Z"/></clipPath><clipPath id="clip-path-113"><polygon class="cls-5" points="5000.66 -2771.4 5308.32 -2771.4 11887.24 1409.87 -1578.26 1409.87 5000.66 -2771.4"/></clipPath><clipPath id="clip-path-115"><polygon class="cls-1" points="337.29 160.62 339.97 162.17 339.97 165.32 337.29 166.88 334.55 165.32 334.55 162.17 337.29 160.62"/></clipPath><clipPath id="clip-path-116"><polygon class="cls-7" points="450.21 164.37 452.37 165.61 452.37 168.15 450.21 169.4 448.02 168.15 448.02 165.61 450.21 164.37"/></clipPath><clipPath id="clip-path-117"><polyline class="cls-8" points="240.81 201.85 243.53 203.42 243.53 206.63 240.81 208.21 238.03 206.63 238.03 203.42"/></clipPath><clipPath id="clip-path-118"><polyline class="cls-9" points="273.73 218.41 276.45 219.98 276.45 223.19 273.73 224.77 270.95 223.19 270.95 219.98"/></clipPath><clipPath id="clip-path-119"><polyline class="cls-2" points="389.22 164.3 391.73 165.75 391.73 168.7 389.22 170.16 386.66 168.7 386.66 165.75"/></clipPath><clipPath id="clip-path-120"><polygon class="cls-8" points="565.52 195.48 568.02 196.93 568.02 199.88 565.52 201.34 562.96 199.88 562.96 196.93 565.52 195.48"/></clipPath><clipPath id="clip-path-121"><polygon class="cls-1" points="48.05 454.72 50.73 456.27 50.73 459.43 48.05 460.99 45.3 459.43 45.3 456.27 48.05 454.72"/></clipPath><clipPath id="clip-path-122"><polygon class="cls-10" points="146.09 369.64 148.24 370.89 148.24 373.42 146.09 374.67 143.9 373.42 143.9 370.89 146.09 369.64"/></clipPath><clipPath id="clip-path-123"><polyline class="cls-9" points="56.82 291.96 59.55 293.53 59.55 296.74 56.82 298.32 54.04 296.74 54.04 293.53"/></clipPath><clipPath id="clip-path-124"><polyline class="cls-9" points="125.83 288.78 128.55 290.35 128.55 293.56 125.83 295.14 123.04 293.56 123.04 290.35"/></clipPath><clipPath id="clip-path-125"><polyline class="cls-2" points="68.73 374.67 71.24 376.12 71.24 379.07 68.73 380.52 66.17 379.07 66.17 376.12"/></clipPath><clipPath id="clip-path-126"><polygon class="cls-1" points="82.29 405.39 84.8 406.84 84.8 409.79 82.29 411.25 79.73 409.79 79.73 406.84 82.29 405.39"/></clipPath><clipPath id="clip-path-127"><polygon class="cls-1" points="73.67 517.49 76.17 518.94 76.17 521.89 73.67 523.35 71.1 521.89 71.1 518.94 73.67 517.49"/></clipPath><clipPath id="clip-path-128"><polygon class="cls-1" points="381.1 702.12 383.79 703.67 383.79 706.83 381.1 708.38 378.36 706.83 378.36 703.67 381.1 702.12"/></clipPath><clipPath id="clip-path-129"><polygon class="cls-10" points="494.09 667.64 496.24 668.89 496.24 671.42 494.09 672.67 491.89 671.42 491.89 668.89 494.09 667.64"/></clipPath><clipPath id="clip-path-130"><polyline class="cls-9" points="264.31 670.6 267.04 672.17 267.04 675.37 264.31 676.96 261.53 675.37 261.53 672.17"/></clipPath><clipPath id="clip-path-131"><polyline class="cls-9" points="168.37 623.57 171.09 625.14 171.09 628.35 168.37 629.93 165.58 628.35 165.58 625.14"/></clipPath><clipPath id="clip-path-132"><polyline class="cls-9" points="271.07 703.26 273.8 704.84 273.8 708.04 271.07 709.63 268.29 708.04 268.29 704.84"/></clipPath><clipPath id="clip-path-133"><polyline class="cls-2" points="416.73 672.67 419.24 674.12 419.24 677.07 416.73 678.52 414.17 677.07 414.17 674.12"/></clipPath><clipPath id="clip-path-134"><polyline class="cls-10" points="410.22 688.86 412.73 690.3 412.73 693.25 410.22 694.71 407.66 693.25 407.66 690.3"/></clipPath><clipPath id="clip-path-135"><polygon class="cls-1" points="347.3 695.39 349.81 696.83 349.81 699.78 347.3 701.24 344.74 699.78 344.74 696.83 347.3 695.39"/></clipPath><clipPath id="clip-path-136"><polygon class="cls-1" points="506.25 469.82 504.44 470.87 504.44 472.99 506.25 474.05 508.09 472.99 508.09 470.87 506.25 469.82"/></clipPath><clipPath id="clip-path-137"><polygon class="cls-10" points="473.92 475.57 471.43 477.01 471.43 479.94 473.92 481.39 476.47 479.94 476.47 477.01 473.92 475.57"/></clipPath><clipPath id="clip-path-138"><polyline class="cls-3" points="459.48 506.62 457.27 507.9 457.27 510.5 459.48 511.79 461.74 510.5 461.74 507.9"/></clipPath><clipPath id="clip-path-139"><polyline class="cls-3" points="539.24 469.5 537.03 470.78 537.03 473.38 539.24 474.67 541.5 473.38 541.5 470.78"/></clipPath><clipPath id="clip-path-140"><polyline class="cls-2" points="247.72 507.51 244.34 509.46 244.34 513.44 247.72 515.4 251.17 513.44 251.17 509.46"/></clipPath><clipPath id="clip-path-141"><polyline class="cls-10" points="407.3 491.3 405.57 492.3 405.57 494.34 407.3 495.35 409.08 494.34 409.08 492.3"/></clipPath><clipPath id="clip-path-142"><polyline class="cls-9" points="134.63 460.32 132.57 461.51 132.57 463.94 134.63 465.14 136.75 463.94 136.75 461.51"/></clipPath><clipPath id="clip-path-143"><polyline class="cls-9" points="183.1 505.07 180.36 506.65 180.36 509.87 183.1 511.46 185.89 509.87 185.89 506.65"/></clipPath><clipPath id="clip-path-144"><polyline class="cls-2" points="149.18 491.09 147.19 492.24 147.19 494.57 149.18 495.73 151.2 494.57 151.2 492.24"/></clipPath><clipPath id="clip-path-145"><polygon class="cls-10" points="213.71 477.24 212.02 478.22 212.02 480.21 213.71 481.19 215.44 480.21 215.44 478.22 213.71 477.24"/></clipPath><clipPath id="clip-path-146"><polygon class="cls-6" points="264.26 471.55 262.57 472.53 262.57 474.52 264.26 475.5 265.99 474.52 265.99 472.53 264.26 471.55"/></clipPath><clipPath id="clip-path-147"><polygon class="cls-2" points="166.92 462.26 162.72 464.69 162.72 469.64 166.92 472.08 171.22 469.64 171.22 464.69 166.92 462.26"/></clipPath><clipPath id="clip-path-148"><polygon class="cls-1" points="328.73 516.96 326.05 518.51 326.05 521.66 328.73 523.22 331.48 521.66 331.48 518.51 328.73 516.96"/></clipPath><clipPath id="clip-path-149"><polygon class="cls-10" points="192.7 481.52 190.55 482.77 190.55 485.3 192.7 486.55 194.9 485.3 194.9 482.77 192.7 481.52"/></clipPath><clipPath id="clip-path-150"><polyline class="cls-9" points="445.52 485.43 442.8 487.01 442.8 490.21 445.52 491.8 448.31 490.21 448.31 487.01"/></clipPath><clipPath id="clip-path-151"><polyline class="cls-2" points="293.11 487.5 290.6 488.95 290.6 491.9 293.11 493.36 295.67 491.9 295.67 488.95"/></clipPath><clipPath id="clip-path-152"><polyline class="cls-10" points="299.62 503.69 297.11 505.14 297.11 508.09 299.62 509.55 302.18 508.09 302.18 505.14"/></clipPath><clipPath id="clip-path-153"><polygon class="cls-1" points="362.53 510.22 360.03 511.67 360.03 514.62 362.53 516.08 365.1 514.62 365.1 511.67 362.53 510.22"/></clipPath><clipPath id="clip-path-154"><polygon class="cls-1" points="657.93 402.26 660.62 403.81 660.62 406.97 657.93 408.53 655.19 406.97 655.19 403.81 657.93 402.26"/></clipPath><clipPath id="clip-path-155"><polygon class="cls-10" points="606 488.81 608.15 490.06 608.15 492.59 606 493.84 603.8 492.59 603.8 490.06 606 488.81"/></clipPath><clipPath id="clip-path-156"><polyline class="cls-9" points="681.06 570.03 683.78 571.6 683.78 574.8 681.06 576.39 678.28 574.8 678.28 571.6"/></clipPath><clipPath id="clip-path-157"><polyline class="cls-9" points="669.66 441.25 672.38 442.82 672.38 446.02 669.66 447.61 666.87 446.02 666.87 442.82"/></clipPath><clipPath id="clip-path-158"><polyline class="cls-2" points="547.15 500.82 549.66 502.27 549.66 505.22 547.15 506.68 544.59 505.22 544.59 502.27"/></clipPath><clipPath id="clip-path-159"><polygon class="cls-1" points="692.2 514.56 694.71 516.01 694.71 518.96 692.2 520.42 689.63 518.96 689.63 516.01 692.2 514.56"/></clipPath><clipPath id="clip-path-160"><polygon class="cls-1" points="50.76 572.52 53.26 573.97 53.26 576.92 50.76 578.37 48.19 576.92 48.19 573.97 50.76 572.52"/></clipPath></defs><title>modelr</title><g class="cls-14"><g id="Layer_1" data-name="Layer 1"><polygon class="cls-1" points="371.01 8.41 729.71 215.49 729.71 637.64 371.01 846.05 4.29 637.64 4.29 215.49 371.01 8.41"/><g class="cls-15"><circle class="cls-16" cx="367" cy="438.47" r="442.13" transform="translate(-202.55 387.93) rotate(-45)"/></g><text class="cls-17" transform="translate(189.46 608.55) scale(1 1.06)">modelr</text><polyline class="cls-18" points="349.38 67.47 353.61 65.09 357.84 67.5 357.84 72.36 353.61 74.74 349.38 72.34 349.38 67.47"/><polyline class="cls-18" points="284.2 113.66 288.75 111.09 293.3 113.68 293.3 118.92 288.75 121.48 284.2 118.89 284.2 113.66"/><polyline class="cls-18" points="447.06 90.4 453.4 86.82 459.75 90.43 459.75 97.73 453.4 101.3 447.06 97.69 447.06 90.4"/><polyline class="cls-18" points="345.71 230.55 352.05 226.97 358.4 230.58 358.4 237.88 352.05 241.45 345.71 237.85 345.71 230.55"/><polyline class="cls-18" points="251.5 633.02 257.84 629.44 264.18 633.05 264.18 640.35 257.84 643.92 251.5 640.32 251.5 633.02"/><polyline class="cls-18" points="377.4 138.87 380.57 137.07 383.74 138.88 383.74 142.53 380.57 144.31 377.4 142.51 377.4 138.87"/><polyline class="cls-18" points="404.08 190.71 409.21 187.82 414.34 190.74 414.34 196.64 409.21 199.53 404.08 196.61 404.08 190.71"/><g class="cls-19"><polygon class="cls-1" points="379.61 75.45 383.74 77.84 383.74 82.7 379.61 85.11 375.38 82.7 375.38 77.84 379.61 75.45"/><g class="cls-20"><circle class="cls-7" cx="379.56" cy="80.41" r="5.1" transform="translate(70.27 314.65) rotate(-49.1)"/></g></g><g class="cls-19"><polygon class="cls-1" points="357.88 148.21 360.98 150 360.98 153.65 357.88 155.45 354.71 153.65 354.71 150 357.88 148.21"/><g class="cls-21"><circle class="cls-7" cx="357.84" cy="151.92" r="3.82" transform="translate(8.72 322.93) rotate(-49.1)"/></g></g><g class="cls-19"><polygon class="cls-1" points="396.94 111.46 401.07 113.84 401.07 118.71 396.94 121.11 392.71 118.71 392.71 113.84 396.94 111.46"/><g class="cls-22"><circle class="cls-7" cx="396.89" cy="116.41" r="5.1" transform="translate(49.04 340.18) rotate(-49.1)"/></g></g><g class="cls-19"><polygon class="cls-1" points="318.1 207.12 320.79 208.67 320.79 211.83 318.1 213.38 315.36 211.83 315.36 208.67 318.1 207.12"/><g class="cls-23"><circle class="cls-7" cx="318.07" cy="210.34" r="3.31"/></g></g><polyline class="cls-6" points="352.1 96.47 356.24 98.86 356.24 103.72 352.1 106.13 347.88 103.72 347.88 98.86"/><g class="cls-24"><circle class="cls-6" cx="352.06" cy="101.43" r="5.1" transform="translate(44.89 301.12) rotate(-49.1)"/></g><polyline class="cls-6" points="447.11 195.38 451.24 197.76 451.24 202.63 447.11 205.03 442.88 202.63 442.88 197.76"/><g class="cls-25"><circle class="cls-6" cx="447.06" cy="200.33" r="5.1" transform="translate(2.93 407.08) rotate(-49.1)"/></g><polyline class="cls-6" points="518.93 159.97 522.17 161.84 522.17 165.65 518.93 167.53 515.62 165.65 515.62 161.84"/><g class="cls-26"><circle class="cls-6" cx="518.9" cy="163.85" r="3.99" transform="translate(55.3 448.78) rotate(-49.1)"/></g><polyline class="cls-6" points="318.33 169.26 321.23 170.93 321.23 174.35 318.33 176.03 315.36 174.35 315.36 170.93"/><g class="cls-27"><circle class="cls-6" cx="318.3" cy="172.74" r="3.58"/></g><polyline class="cls-2" points="431.39 134.18 435.77 136.7 435.77 141.85 431.39 144.39 426.92 141.85 426.92 136.7"/><g class="cls-28"><circle class="cls-11" cx="431.35" cy="139.42" r="5.39" transform="translate(43.54 374.17) rotate(-49.1)"/></g><polyline class="cls-6" points="289.06 193.67 293.11 196.01 293.11 200.77 289.06 203.12 284.93 200.77 284.93 196.01"/><g class="cls-29"><circle class="cls-6" cx="289.02" cy="198.52" r="4.99" transform="translate(-50.27 286.99) rotate(-49.1)"/></g><polygon class="cls-2" points="419.03 73.7 425.23 77.28 425.23 84.58 419.03 88.19 412.69 84.58 412.69 77.28 419.03 73.7"/><g class="cls-30"><circle class="cls-13" cx="418.96" cy="81.14" r="7.64" transform="translate(83.32 344.68) rotate(-49.1)"/></g><polygon class="cls-11" points="308.61 710.31 314.81 713.89 314.81 721.19 308.61 724.79 302.27 721.19 302.27 713.89 308.61 710.31"/><g class="cls-31"><circle class="cls-11" cx="308.54" cy="717.75" r="7.64" transform="translate(-435.98 481.02) rotate(-49.1)"/></g><polygon class="cls-9" points="485.69 685.22 491.89 688.8 491.89 696.1 485.69 699.7 479.35 696.1 479.35 688.8 485.69 685.22"/><g class="cls-32"><circle class="cls-9" cx="485.62" cy="692.65" r="7.64" transform="translate(-355.88 606.2) rotate(-49.1)"/></g><polygon class="cls-2" points="369.25 656.4 375.45 659.98 375.45 667.28 369.25 670.88 362.91 667.28 362.91 659.98 369.25 656.4"/><g class="cls-33"><circle class="cls-13" cx="369.18" cy="663.84" r="7.64" transform="translate(-374.3 508.24) rotate(-49.1)"/></g><polygon class="cls-9" points="307.36 137.07 312.03 139.77 312.03 145.26 307.36 147.98 302.59 145.26 302.59 139.77 307.36 137.07"/><g class="cls-34"><circle class="cls-9" cx="307.31" cy="142.67" r="5.75" transform="translate(-1.74 281.54) rotate(-49.1)"/></g><polygon class="cls-10" points="323.49 114.16 327.35 116.39 327.35 120.94 323.49 123.18 319.54 120.94 319.54 116.39 323.49 114.16"/><g class="cls-35"><circle class="cls-10" cx="323.45" cy="118.79" r="4.76" transform="translate(21.88 285.49) rotate(-49.1)"/></g><polyline class="cls-18" points="150.51 204.42 155.19 201.78 159.87 204.44 159.87 209.83 155.19 212.46 150.51 209.8 150.51 204.42"/><polyline class="cls-6" points="105.12 317.44 111.46 313.87 117.8 317.48 117.8 324.77 111.46 328.35 105.12 324.74 105.12 317.44"/><polyline class="cls-10" points="171.05 243.31 176.26 240.37 181.48 243.34 181.48 249.34 176.26 252.28 171.05 249.31 171.05 243.31"/><polyline class="cls-10" points="84.57 256.01 89.78 253.07 95 256.04 95 262.04 89.78 264.98 84.57 262.01 84.57 256.01"/><polygon class="cls-10" points="251.55 179.57 255.85 182.05 255.85 187.11 251.55 189.61 247.16 187.11 247.16 182.05 251.55 179.57"/><g class="cls-36"><circle class="cls-10" cx="251.51" cy="184.72" r="5.3" transform="translate(-52.79 253.88) rotate(-49.1)"/></g><polygon class="cls-10" points="408.39 217.85 412.69 220.33 412.69 225.39 408.39 227.89 403.99 225.39 403.99 220.33 408.39 217.85"/><g class="cls-37"><circle class="cls-10" cx="408.34" cy="223" r="5.3" transform="translate(-27.58 385.64) rotate(-49.1)"/></g><polygon class="cls-10" points="431.09 172.65 433.24 173.89 433.24 176.42 431.09 177.67 428.89 176.42 428.89 173.89 431.09 172.65"/><g class="cls-38"><circle class="cls-10" cx="431.07" cy="175.22" r="2.65"/></g><polygon class="cls-10" points="86.49 301.13 89.79 303.04 89.79 306.92 86.49 308.84 83.11 306.92 83.11 303.04 86.49 301.13"/><g class="cls-39"><circle class="cls-10" cx="86.45" cy="305.09" r="4.07" transform="translate(-200.75 170.68) rotate(-49.1)"/></g><polyline class="cls-2" points="138.27 245.75 141.37 247.54 141.37 251.19 138.27 252.99 135.1 251.19 135.1 247.54"/><g class="cls-40"><circle class="cls-11" cx="138.24" cy="249.47" r="3.82" transform="translate(-140.83 190.62) rotate(-49.1)"/></g><polyline class="cls-10" points="52.81 268.44 56.79 270.74 56.79 275.43 52.81 277.74 48.74 275.43 48.74 270.74"/><g class="cls-41"><circle class="cls-10" cx="52.77" cy="273.22" r="4.91" transform="translate(-188.29 134.21) rotate(-49.1)"/></g><polyline class="cls-10" points="176.31 202.47 180.29 204.77 180.29 209.45 176.31 211.77 172.24 209.45 172.24 204.77"/><g class="cls-42"><circle class="cls-10" cx="176.26" cy="207.24" r="4.91" transform="translate(-95.79 204.78) rotate(-49.1)"/></g><polyline class="cls-9" points="201.31 175.6 204.04 177.17 204.04 180.37 201.31 181.96 198.53 180.37 198.53 177.17"/><g class="cls-43"><circle class="cls-9" cx="201.28" cy="178.86" r="3.36"/></g><polyline class="cls-9" points="210.83 231.78 213.55 233.35 213.55 236.56 210.83 238.14 208.04 236.56 208.04 233.35"/><g class="cls-44"><circle class="cls-9" cx="210.8" cy="235.05" r="3.36"/></g><polygon class="cls-2" points="215.05 203.7 219.21 206.1 219.21 211 215.05 213.42 210.79 211 210.79 206.1 215.05 203.7"/><g class="cls-45"><circle class="cls-13" cx="215" cy="208.69" r="5.13" transform="translate(-83.51 234.56) rotate(-49.1)"/></g><polygon class="cls-2" points="88.54 226.7 92.44 228.95 92.44 233.54 88.54 235.81 84.55 233.54 84.55 228.95 88.54 226.7"/><g class="cls-46"><circle class="cls-13" cx="88.5" cy="231.38" r="4.81" transform="translate(-144.33 146.77) rotate(-49.1)"/></g><polygon class="cls-9" points="113.37 266.57 116.53 268.39 116.53 272.11 113.37 273.95 110.14 272.11 110.14 268.39 113.37 266.57"/><g class="cls-47"><circle class="cls-9" cx="113.33" cy="270.36" r="3.9" transform="translate(-165.22 179.01) rotate(-49.1)"/></g><polygon class="cls-9" points="96.47 458.57 99.63 460.39 99.63 464.11 96.47 465.95 93.24 464.11 93.24 460.39 96.47 458.57"/><g class="cls-48"><circle class="cls-9" cx="96.43" cy="462.36" r="3.9" transform="translate(-316.18 232.52) rotate(-49.1)"/></g><polyline class="cls-10" points="78.22 578.09 83.11 575.34 88 578.12 88 583.74 83.11 586.5 78.22 583.72 78.22 578.09"/><polygon class="cls-10" points="86.49 373.63 89.79 375.54 89.79 379.42 86.49 381.34 83.11 379.42 83.11 375.54 86.49 373.63"/><g class="cls-49"><circle class="cls-10" cx="86.45" cy="377.59" r="4.07" transform="translate(-255.55 195.71) rotate(-49.1)"/></g><polygon class="cls-12" points="115.1 393.02 118.92 395.22 118.92 399.72 115.1 401.94 111.19 399.72 111.19 395.22 115.1 393.02"/><g class="cls-50"><circle class="cls-12" cx="115.06" cy="397.6" r="4.71" transform="translate(-260.8 224.24) rotate(-49.1)"/></g><polyline class="cls-2" points="138.27 338.27 141.37 340.06 141.37 343.71 138.27 345.51 135.1 343.71 135.1 340.06"/><g class="cls-51"><circle class="cls-11" cx="138.24" cy="341.98" r="3.82" transform="matrix(0.65, -0.76, 0.76, 0.65, -210.76, 222.56)"/></g><polyline class="cls-2" points="128.91 424.71 135.12 428.3 135.12 435.59 128.91 439.2 122.58 435.59 122.58 428.3"/><g class="cls-52"><circle class="cls-11" cx="128.85" cy="432.15" r="7.64" transform="translate(-282.16 246.59) rotate(-49.1)"/></g><polygon class="cls-9" points="113.37 359.08 116.53 360.91 116.53 364.63 113.37 366.46 110.14 364.63 110.14 360.91 113.37 359.08"/><g class="cls-53"><circle class="cls-9" cx="113.33" cy="362.87" r="3.9" transform="translate(-235.15 210.95) rotate(-49.1)"/></g><polygon class="cls-9" points="107.56 546.82 110.72 548.64 110.72 552.36 107.56 554.2 104.33 552.36 104.33 548.64 107.56 546.82"/><g class="cls-54"><circle class="cls-9" cx="107.52" cy="550.6" r="3.9" transform="translate(-379.05 271.37) rotate(-49.1)"/></g><polyline class="cls-18" points="298.18 233.99 302.58 231.5 307 234.01 307 239.09 302.58 241.57 298.18 239.06 298.18 233.99"/><polyline class="cls-55" points="184.28 682.57 187.41 680.8 190.55 682.59 190.55 686.2 187.41 687.96 184.28 686.18 184.28 682.57"/><polyline class="cls-55" points="227.1 637.51 230.23 635.74 233.37 637.52 233.37 641.13 230.23 642.89 227.1 641.11 227.1 637.51"/><g class="cls-19"><polygon class="cls-1" points="55.26 429.32 60.46 432.32 60.46 438.44 55.26 441.46 49.94 438.44 49.94 432.32 55.26 429.32"/><g class="cls-56"><circle class="cls-7" cx="55.2" cy="435.55" r="6.41" transform="translate(-310.15 192.1) rotate(-49.1)"/></g></g><g class="cls-19"><polygon class="cls-1" points="203.59 654.99 205.4 656.03 205.4 658.16 203.59 659.21 201.74 658.16 201.74 656.03 203.59 654.99"/><g class="cls-57"><circle class="cls-7" cx="203.57" cy="657.15" r="2.23"/></g></g><polyline class="cls-2" points="252.06 715.58 253.75 716.55 253.75 718.54 252.06 719.52 250.33 718.54 250.33 716.55"/><g class="cls-58"><circle class="cls-11" cx="252.04" cy="717.6" r="2.08"/></g><polyline class="cls-2" points="293.01 648.33 294.7 649.31 294.7 651.3 293.01 652.28 291.29 651.3 291.29 649.31"/><g class="cls-59"><circle class="cls-11" cx="293" cy="650.36" r="2.08"/></g><polyline class="cls-2" points="95.59 628.4 97.28 629.38 97.28 631.36 95.59 632.35 93.86 631.36 93.86 629.38"/><g class="cls-60"><circle class="cls-11" cx="95.57" cy="630.43" r="2.08"/></g><polyline class="cls-18" points="48.02 327.05 52.69 324.41 57.37 327.08 57.37 332.46 52.69 335.09 48.02 332.44 48.02 327.05"/><polyline class="cls-2" points="45.47 379.36 50.05 382 50.05 387.38 45.47 390.04 40.8 387.38 40.8 382"/><g class="cls-61"><circle class="cls-11" cx="45.42" cy="384.84" r="5.63" transform="translate(-275.2 167.2) rotate(-49.1)"/></g><g class="cls-19"><polygon class="cls-1" points="226.55 151.83 231.21 154.51 231.21 160 226.55 162.7 221.79 160 221.79 154.51 226.55 151.83"/><g class="cls-62"><circle class="cls-7" cx="226.5" cy="157.41" r="5.74" transform="translate(-40.78 225.55) rotate(-49.1)"/></g></g><g class="cls-19"><polygon class="cls-1" points="499.58 214.22 504.24 216.91 504.24 222.39 499.58 225.09 494.82 222.39 494.82 216.91 499.58 214.22"/><g class="cls-63"><circle class="cls-7" cx="499.53" cy="219.8" r="5.74" transform="translate(6.33 453.46) rotate(-49.1)"/></g></g><polyline class="cls-2" points="246.85 232.46 250.85 234.77 250.85 239.49 246.85 241.81 242.75 239.49 242.75 234.77"/><g class="cls-64"><circle class="cls-11" cx="246.8" cy="237.26" r="4.94" transform="translate(-94.12 268.46) rotate(-49.1)"/></g><polyline class="cls-2" points="266.94 147.15 270.95 149.46 270.95 154.18 266.94 156.5 262.85 154.18 262.85 149.46"/><g class="cls-65"><circle class="cls-11" cx="266.9" cy="151.95" r="4.94" transform="translate(-22.7 254.2) rotate(-49.1)"/></g><polyline class="cls-2" points="381.34 738.73 384.71 740.68 384.71 744.66 381.34 746.63 377.88 744.66 377.88 740.68"/><g class="cls-66"><circle class="cls-11" cx="381.3" cy="742.79" r="4.17" transform="translate(-429.79 544.66) rotate(-49.1)"/></g><polyline class="cls-6" points="144.18 517.02 150.52 513.44 156.86 517.05 156.86 524.35 150.52 527.92 144.18 524.32 144.18 517.02"/><polygon class="cls-10" points="125.55 500.71 128.85 502.61 128.85 506.5 125.55 508.42 122.17 506.5 122.17 502.61 125.55 500.71"/><g class="cls-67"><circle class="cls-10" cx="125.51" cy="504.67" r="4.07" transform="translate(-338.12 269.1) rotate(-49.1)"/></g><polyline class="cls-10" points="63.2 480.85 67.19 483.14 67.19 487.83 63.2 490.14 59.13 487.83 59.13 483.14"/><g class="cls-68"><circle class="cls-10" cx="63.16" cy="485.62" r="4.91" transform="translate(-345.25 215.4) rotate(-49.1)"/></g><polygon class="cls-2" points="103.62 427.4 107.52 429.65 107.52 434.25 103.62 436.51 99.63 434.25 99.63 429.65 103.62 427.4"/><g class="cls-69"><circle class="cls-13" cx="103.57" cy="432.08" r="4.81" transform="translate(-290.83 227.46) rotate(-49.1)"/></g><polygon class="cls-9" points="176.3 530.4 179.46 532.23 179.46 535.95 176.3 537.79 173.07 535.95 173.07 532.23 176.3 530.4"/><g class="cls-70"><circle class="cls-9" cx="176.26" cy="534.19" r="3.9" transform="translate(-342.92 317.66) rotate(-49.1)"/></g><polygon class="cls-9" points="616.02 530.4 619.18 532.23 619.18 535.95 616.02 537.79 612.79 535.95 612.79 532.23 616.02 530.4"/><g class="cls-71"><circle class="cls-9" cx="615.99" cy="534.19" r="3.9" transform="translate(-191.1 650.03) rotate(-49.1)"/></g><polygon class="cls-10" points="125.55 573.21 128.85 575.11 128.85 579 125.55 580.91 122.17 579 122.17 575.11 125.55 573.21"/><g class="cls-72"><circle class="cls-10" cx="125.51" cy="577.16" r="4.07" transform="translate(-392.92 294.14) rotate(-49.1)"/></g><polygon class="cls-12" points="154.16 592.6 157.98 594.8 157.98 599.3 154.16 601.52 150.25 599.3 150.25 594.8 154.16 592.6"/><g class="cls-73"><circle class="cls-12" cx="154.11" cy="597.18" r="4.71" transform="translate(-398.17 322.67) rotate(-49.1)"/></g><polygon class="cls-9" points="152.43 558.66 155.59 560.49 155.59 564.2 152.43 566.04 149.2 564.2 149.2 560.49 152.43 558.66"/><g class="cls-74"><circle class="cls-9" cx="152.39" cy="562.45" r="3.9" transform="translate(-372.51 309.38) rotate(-49.1)"/></g><g class="cls-19"><polygon class="cls-1" points="64.45 606.1 69.65 609.1 69.65 615.22 64.45 618.24 59.13 615.22 59.13 609.1 64.45 606.1"/><g class="cls-75"><circle class="cls-7" cx="64.39" cy="612.33" r="6.41" transform="matrix(0.65, -0.76, 0.76, 0.65, -440.6, 260.08)"/></g></g><polyline class="cls-18" points="90.32 500.18 95 497.54 99.68 500.2 99.68 505.58 95 508.21 90.32 505.56 90.32 500.18"/><polyline class="cls-2" points="69.07 539.83 73.64 542.47 73.64 547.85 69.07 550.51 64.39 547.85 64.39 542.47"/><g class="cls-76"><circle class="cls-11" cx="69.02" cy="545.31" r="5.63" transform="translate(-388.35 240.44) rotate(-49.1)"/></g><polygon class="cls-10" points="127.59 614.1 131.14 616.15 131.14 620.32 127.59 622.38 123.97 620.32 123.97 616.15 127.59 614.1"/><g class="cls-77"><circle class="cls-10" cx="127.56" cy="618.35" r="4.37" transform="translate(-423.34 309.9) rotate(-49.1)"/></g><polygon class="cls-10" points="235.91 660.74 238.4 662.17 238.4 665.11 235.91 666.55 233.37 665.11 233.37 662.17 235.91 660.74"/><g class="cls-78"><circle class="cls-10" cx="235.89" cy="663.72" r="3.07"/></g><polyline class="cls-18" points="604.83 261.08 608.48 259.02 612.13 261.1 612.13 265.3 608.48 267.35 604.83 265.28 604.83 261.08"/><polyline class="cls-18" points="617.13 228.44 619.86 226.89 622.6 228.45 622.6 231.6 619.86 233.14 617.13 231.59 617.13 228.44"/><polyline class="cls-9" points="475.94 672.33 478.24 671.03 480.54 672.34 480.54 674.98 478.24 676.28 475.94 674.97 475.94 672.33"/><polygon class="cls-9" points="349 731.46 350.69 732.44 350.69 734.42 349 735.41 347.27 734.42 347.27 732.44 349 731.46"/><g class="cls-79"><circle class="cls-9" cx="348.98" cy="733.49" r="2.08"/></g><polyline class="cls-3" points="250.36 691.78 252.57 693.06 252.57 695.66 250.36 696.95 248.1 695.66 248.1 693.06"/><g class="cls-80"><circle class="cls-3" cx="250.33" cy="694.44" r="2.73"/></g><polyline class="cls-3" points="170.6 654.66 172.81 655.94 172.81 658.54 170.6 659.83 168.34 658.54 168.34 655.94"/><g class="cls-81"><circle class="cls-3" cx="170.57" cy="657.32" r="2.73"/></g><polyline class="cls-4" points="600.35 282 604.36 284.32 604.36 289.04 600.35 291.37 596.25 289.04 596.25 284.32"/><g class="cls-82"><circle class="cls-4" cx="600.3" cy="286.81" r="4.95" transform="translate(-9.53 552.76) rotate(-49.1)"/></g><polyline class="cls-2" points="666.72 424.71 669.82 426.5 669.82 430.15 666.72 431.96 663.55 430.15 663.55 426.5"/><g class="cls-83"><circle class="cls-11" cx="666.69" cy="428.43" r="3.82" transform="translate(-93.65 651.84) rotate(-49.1)"/></g><polyline class="cls-18" points="455.48 128.01 459.55 125.71 463.63 128.03 463.63 132.71 459.55 135 455.48 132.69 455.48 128.01"/><polyline class="cls-18" points="480.54 188.3 484.6 186 488.68 188.32 488.68 193 484.6 195.29 480.54 192.98 480.54 188.3"/><polyline class="cls-18" points="401.07 164.98 405.14 162.68 409.21 165 409.21 169.68 405.14 171.97 401.07 169.66 401.07 164.98"/><polyline class="cls-2" points="475.52 155.62 480.54 158.51 480.54 164.41 475.52 167.33 470.39 164.41 470.39 158.51"/><g class="cls-84"><circle class="cls-11" cx="475.46" cy="161.63" r="6.18" transform="translate(41.99 415.18) rotate(-49.1)"/></g><polyline class="cls-2" points="349.44 192.54 354.46 195.44 354.46 201.34 349.44 204.25 344.31 201.34 344.31 195.44"/><g class="cls-85"><circle class="cls-11" cx="349.39" cy="198.55" r="6.18" transform="translate(-29.45 332.63) rotate(-49.1)"/></g><polyline class="cls-13" points="353.73 177.67 356.24 179.12 356.24 182.07 353.73 183.52 351.17 182.07 351.17 179.12"/><g class="cls-86"><circle class="cls-13" cx="353.7" cy="180.67" r="3.09"/></g><polygon class="cls-2" points="638.27 326.21 641.28 327.95 641.28 331.5 638.27 333.26 635.18 331.5 635.18 327.95 638.27 326.21"/><g class="cls-87"><circle class="cls-13" cx="638.23" cy="329.83" r="3.72" transform="translate(-28.95 596.29) rotate(-49.1)"/></g><g class="cls-19"><polygon class="cls-1" points="517.29 198.4 519.8 199.84 519.8 202.79 517.29 204.25 514.73 202.79 514.73 199.84 517.29 198.4"/><g class="cls-88"><circle class="cls-7" cx="517.27" cy="201.4" r="3.09"/></g></g><g class="cls-19"><polygon class="cls-1" points="654.14 225.09 657.15 226.84 657.15 230.39 654.14 232.14 651.05 230.39 651.05 226.84 654.14 225.09"/><g class="cls-89"><circle class="cls-7" cx="654.1" cy="228.71" r="3.72" transform="translate(52.96 573.37) rotate(-49.1)"/></g></g><polyline class="cls-2" points="590.25 223.75 594.73 226.33 594.73 231.61 590.25 234.21 585.67 231.61 585.67 226.33"/><g class="cls-90"><circle class="cls-11" cx="590.2" cy="229.12" r="5.52" transform="translate(30.59 525.21) rotate(-49.1)"/></g><polyline class="cls-2" points="609.29 192.54 612.31 194.28 612.31 197.83 609.29 199.58 606.2 197.83 606.2 194.28"/><g class="cls-91"><circle class="cls-11" cx="609.25" cy="196.15" r="3.72" transform="translate(62.09 528.23) rotate(-49.1)"/></g><polygon class="cls-2" points="650.97 183.41 657.17 186.99 657.17 194.28 650.97 197.89 644.63 194.28 644.63 186.99 650.97 183.41"/><g class="cls-92"><circle class="cls-13" cx="650.9" cy="190.84" r="7.64" transform="translate(80.48 557.87) rotate(-49.1)"/></g><polygon class="cls-2" points="554.4 212.5 558.84 215.06 558.84 220.29 554.4 222.87 549.86 220.29 549.86 215.06 554.4 212.5"/><g class="cls-93"><circle class="cls-13" cx="554.35" cy="217.82" r="5.48" transform="translate(26.75 494.21) rotate(-49.1)"/></g><polygon class="cls-2" points="499.58 134.44 504.02 137 504.02 142.23 499.58 144.81 495.04 142.23 495.04 137 499.58 134.44"/><g class="cls-94"><circle class="cls-13" cx="499.53" cy="139.77" r="5.48" transform="matrix(0.65, -0.76, 0.76, 0.65, 66.82, 425.82)"/></g><polygon class="cls-2" points="397.49 652.25 400.55 654.02 400.55 657.62 397.49 659.4 394.36 657.62 394.36 654.02 397.49 652.25"/><g class="cls-95"><circle class="cls-13" cx="397.45" cy="655.92" r="3.78" transform="translate(-358.56 526.88) rotate(-49.1)"/></g><polygon class="cls-2" points="135.14 648.76 138.2 650.53 138.2 654.13 135.14 655.91 132 654.13 132 650.53 135.14 648.76"/><g class="cls-96"><circle class="cls-13" cx="135.1" cy="652.43" r="3.78" transform="translate(-446.5 327.37) rotate(-49.1)"/></g><polyline class="cls-18" points="280.9 729.65 284.35 727.7 287.81 729.67 287.81 733.65 284.35 735.59 280.9 733.63 280.9 729.65"/><polyline class="cls-18" points="345.53 753.01 348.98 751.06 352.44 753.03 352.44 757 348.98 758.95 345.53 756.99 345.53 753.01"/><polyline class="cls-10" points="443.76 697.84 445.92 696.62 448.09 697.85 448.09 700.35 445.92 701.57 443.76 700.34 443.76 697.84"/><polyline class="cls-9" points="216.27 696.32 219.73 694.37 223.19 696.34 223.19 700.31 219.73 702.26 216.27 700.3 216.27 696.32"/><g class="cls-19"><polygon class="cls-1" points="332.87 658.06 336.25 660.01 336.25 663.99 332.87 665.95 329.41 663.99 329.41 660.01 332.87 658.06"/><g class="cls-97"><circle class="cls-7" cx="332.83" cy="662.11" r="4.17" transform="matrix(0.65, -0.76, 0.76, 0.65, -385.55, 480.17)"/></g></g><g class="cls-19"><polygon class="cls-1" points="413.65 720.05 417.03 722 417.03 725.98 413.65 727.94 410.19 725.98 410.19 722 413.65 720.05"/><g class="cls-98"><circle class="cls-7" cx="413.61" cy="724.1" r="4.17" transform="translate(-404.51 562.63) rotate(-49.1)"/></g></g><polyline class="cls-2" points="462.12 692.67 465.5 694.62 465.5 698.6 462.12 700.56 458.67 698.6 458.67 694.62"/><g class="cls-99"><circle class="cls-11" cx="462.08" cy="696.72" r="4.17" transform="translate(-367.08 589.81) rotate(-49.1)"/></g><polyline class="cls-2" points="318.92 739.07 321.12 740.34 321.12 742.93 318.92 744.21 316.67 742.93 316.67 740.34"/><g class="cls-100"><circle class="cls-11" cx="318.9" cy="741.71" r="2.71"/></g><polyline class="cls-2" points="365.17 767.46 367.94 769.05 367.94 772.3 365.17 773.91 362.35 772.3 362.35 769.05"/><g class="cls-101"><circle class="cls-11" cx="365.14" cy="770.77" r="3.41"/></g><polyline class="cls-10" points="300.53 692.46 302.27 693.46 302.27 695.5 300.53 696.51 298.76 695.5 298.76 693.46"/><g class="cls-102"><circle class="cls-10" cx="300.51" cy="694.54" r="2.14"/></g><polygon class="cls-7" points="491.01 638.95 494.38 640.9 494.38 644.88 491.01 646.84 487.55 644.88 487.55 640.9 491.01 638.95"/><g class="cls-103"><circle class="cls-7" cx="490.97" cy="643" r="4.17" transform="translate(-316.5 593.1) rotate(-49.1)"/></g><polyline class="cls-18" points="508.41 692.91 510.55 691.7 512.7 692.92 512.7 695.39 510.55 696.59 508.41 695.38 508.41 692.91"/><polyline class="cls-18" points="588.94 637.74 591.34 636.38 593.74 637.75 593.74 640.51 591.34 641.87 588.94 640.5 588.94 637.74"/><polyline class="cls-9" points="566.03 611.69 568.1 612.88 568.1 615.32 566.03 616.52 563.92 615.32 563.92 612.88"/><g class="cls-104"><circle class="cls-9" cx="566.01" cy="614.17" r="2.55"/></g><polyline class="cls-9" points="526.74 690.23 529.48 691.81 529.48 695.03 526.74 696.62 523.95 695.03 523.95 691.81"/><g class="cls-105"><circle class="cls-9" cx="526.71" cy="693.51" r="3.37"/></g><polyline class="cls-2" points="559.05 664.88 561.03 666.02 561.03 668.36 559.05 669.51 557.02 668.36 557.02 666.02"/><g class="cls-106"><circle class="cls-11" cx="559.02" cy="667.26" r="2.45"/></g><polygon class="cls-10" points="494.42 667.44 496.11 668.41 496.11 670.4 494.42 671.38 492.69 670.4 492.69 668.41 494.42 667.44"/><g class="cls-107"><circle class="cls-10" cx="494.4" cy="669.46" r="2.08"/></g><polygon class="cls-2" points="542.91 647.42 547.12 649.85 547.12 654.8 542.91 657.25 538.61 654.8 538.61 649.85 542.91 647.42"/><g class="cls-108"><circle class="cls-13" cx="542.87" cy="652.47" r="5.19" transform="translate(-305.74 635.6) rotate(-49.1)"/></g><polyline class="cls-7" points="544.62 175.66 549.16 173.09 553.7 175.68 553.7 180.91 549.16 183.47 544.62 180.89 544.62 175.66"/><polyline class="cls-18" points="669.32 258.59 672.92 256.56 676.51 258.61 676.51 262.74 672.92 264.77 669.32 262.72 669.32 258.59"/><polyline class="cls-18" points="561.29 250.5 564 248.97 566.71 250.51 566.71 253.63 564 255.15 561.29 253.61 561.29 250.5"/><polygon class="cls-2" points="630.2 249.37 633.97 251.55 633.97 255.99 630.2 258.18 626.34 255.99 626.34 251.55 630.2 249.37"/><g class="cls-109"><circle class="cls-13" cx="630.15" cy="253.89" r="4.65" transform="translate(25.66 563.96) rotate(-49.1)"/></g><polyline class="cls-18" points="681.03 296.31 684.17 294.54 687.32 296.33 687.32 299.94 684.17 301.72 681.03 299.93 681.03 296.31"/><g class="cls-19"><polygon class="cls-1" points="688.64 331.18 691.66 332.92 691.66 336.47 688.64 338.22 685.56 336.47 685.56 332.92 688.64 331.18"/><g class="cls-110"><circle class="cls-7" cx="688.61" cy="334.8" r="3.72" transform="translate(-15.31 636.08) rotate(-49.1)"/></g></g><polygon class="cls-2" points="647.55 292.03 651.32 294.21 651.32 298.65 647.55 300.84 643.7 298.65 643.7 294.21 647.55 292.03"/><g class="cls-111"><circle class="cls-13" cx="647.51" cy="296.55" r="4.65" transform="translate(-0.59 591.81) rotate(-49.1)"/></g><polyline class="cls-55" points="691.38 395.43 695.9 392.88 700.42 395.45 700.42 400.66 695.9 403.2 691.38 400.63 691.38 395.43"/><polyline class="cls-18" points="578.56 463.12 582.2 461.06 585.85 463.14 585.85 467.33 582.2 469.38 578.56 467.31 578.56 463.12"/><g class="cls-19"><polygon class="cls-1" points="583.16 537.74 586.93 539.92 586.93 544.36 583.16 546.55 579.31 544.36 579.31 539.92 583.16 537.74"/><g class="cls-112"><circle class="cls-7" cx="583.12" cy="542.26" r="4.65" transform="translate(-208.54 627.97) rotate(-49.1)"/></g></g><polyline class="cls-3" points="594.59 583.09 599.03 585.65 599.03 590.89 594.59 593.48 590.04 590.89 590.04 585.65"/><g class="cls-113"><circle class="cls-3" cx="594.54" cy="588.42" r="5.48" transform="translate(-239.49 652.54) rotate(-49.1)"/></g><polyline class="cls-4" points="574.08 484.04 578.09 486.35 578.09 491.08 574.08 493.41 569.97 491.08 569.97 486.35"/><g class="cls-114"><circle class="cls-4" cx="574.03" cy="488.85" r="4.95" transform="translate(-171.31 602.66) rotate(-49.1)"/></g><polyline class="cls-2" points="640.45 626.75 643.55 628.54 643.55 632.19 640.45 633.99 637.28 632.19 637.28 628.54"/><g class="cls-115"><circle class="cls-11" cx="640.41" cy="630.47" r="3.82" transform="translate(-255.43 701.73) rotate(-49.1)"/></g><polyline class="cls-18" points="613.93 578.76 618.16 576.37 622.4 578.78 622.4 583.65 618.16 586.04 613.93 583.63 613.93 578.76"/><polygon class="cls-2" points="685.59 477.74 688.61 479.48 688.61 483.03 685.59 484.79 682.5 483.03 682.5 479.48 685.59 477.74"/><g class="cls-116"><circle class="cls-13" cx="685.56" cy="481.36" r="3.72" transform="translate(-127.14 684.37) rotate(-49.1)"/></g><g class="cls-19"><polygon class="cls-1" points="627.86 427.13 630.88 428.87 630.88 432.43 627.86 434.18 624.78 432.43 624.78 428.87 627.86 427.13"/><g class="cls-117"><circle class="cls-7" cx="627.83" cy="430.75" r="3.72" transform="translate(-108.82 623.27) rotate(-49.1)"/></g></g><polyline class="cls-2" points="569.61 433.96 574.09 436.55 574.09 441.82 569.61 444.43 565.03 441.82 565.03 436.55"/><g class="cls-118"><circle class="cls-11" cx="569.56" cy="439.34" r="5.52" transform="translate(-135.43 582.19) rotate(-49.1)"/></g><polyline class="cls-2" points="591.37 416.63 594.39 418.37 594.39 421.92 591.37 423.68 588.29 421.92 588.29 418.37"/><g class="cls-119"><circle class="cls-11" cx="591.34" cy="420.25" r="3.72" transform="translate(-113.48 592.06) rotate(-49.1)"/></g><polygon class="cls-2" points="627.12 399.92 633.32 403.5 633.32 410.8 627.12 414.4 620.77 410.8 620.77 403.5 627.12 399.92"/><g class="cls-120"><circle class="cls-13" cx="627.05" cy="407.36" r="7.64" transform="translate(-91.41 614.6) rotate(-49.1)"/></g><polygon class="cls-2" points="554.73 523.06 559.17 525.63 559.17 530.85 554.73 533.43 550.19 530.85 550.19 525.63 554.73 523.06"/><g class="cls-121"><circle class="cls-13" cx="554.68" cy="528.39" r="5.48" transform="translate(-207.87 601.69) rotate(-49.1)"/></g><polygon class="cls-2" points="613.44 622.19 617.93 624.78 617.93 630.07 613.44 632.68 608.85 630.07 608.85 624.78 613.44 622.19"/><g class="cls-122"><circle class="cls-13" cx="613.39" cy="627.57" r="5.54" transform="translate(-262.57 680.31) rotate(-49.1)"/></g><polyline class="cls-18" points="643.05 460.63 646.64 458.6 650.24 460.64 650.24 464.78 646.64 466.8 643.05 464.76 643.05 460.63"/><polygon class="cls-2" points="603.92 451.41 607.7 453.59 607.7 458.02 603.92 460.21 600.07 458.02 600.07 453.59 603.92 451.41"/><g class="cls-123"><circle class="cls-13" cx="603.88" cy="455.93" r="4.65" transform="translate(-136.12 613.86) rotate(-49.1)"/></g><polyline class="cls-18" points="654.76 498.35 657.9 496.57 661.05 498.37 661.05 501.98 657.9 503.75 654.76 501.97 654.76 498.35"/><g class="cls-19"><polygon class="cls-1" points="662.37 533.22 665.39 534.96 665.39 538.51 662.37 540.26 659.28 538.51 659.28 534.96 662.37 533.22"/><g class="cls-124"><circle class="cls-7" cx="662.33" cy="536.83" r="3.72" transform="translate(-177.09 685.97) rotate(-49.1)"/></g></g><polygon class="cls-2" points="621.28 494.07 625.05 496.25 625.05 500.69 621.28 502.88 617.42 500.69 617.42 496.25 621.28 494.07"/><g class="cls-125"><circle class="cls-13" cx="621.24" cy="498.59" r="4.65" transform="translate(-162.37 641.7) rotate(-49.1)"/></g><polyline class="cls-55" points="665.11 597.47 669.63 594.92 674.15 597.49 674.15 602.69 669.63 605.24 665.11 602.67 665.11 597.47"/><path class="cls-126" d="M707.11,197.23,429.31,36.84,369,2,308.69,36.84,30.87,197.24,1.59,214.15V638.4l29.28,16.91L312.15,817.7,369,850.53l56.85-32.83L707.11,655.32l29.3-16.92V214.15Zm0,425.26L369,817.7,30.87,622.49V232.06L369,36.84h0L707.11,232.06Z"/><text class="cls-127" transform="matrix(0.86, -0.5, 0.5, 0.86, 369.18, 811.04)"><tspan class="cls-128">ww</tspan><tspan class="cls-129" x="37.4" y="0">w</tspan><tspan x="54.82" y="0">.rstudi</tspan><tspan class="cls-130" x="120.07" y="0">o</tspan><tspan x="133.2" y="0">.</tspan><tspan class="cls-131" x="138.37" y="0">c</tspan><tspan class="cls-132" x="149.42" y="0">om</tspan></text><g class="cls-133"><g class="cls-134"><g class="cls-135"><g class="cls-136"><polyline points="23526.62 13863.8 23526.62 13863.8 -9241.38 -18904.2 -9241.38 -18904.2 23526.62 13863.8"/><polyline points="-9241.38 13863.8 -9241.38 13863.8 23526.62 -18904.2 23526.62 -18904.2 -9241.38 13863.8"/><polyline points="830.75 638.3 -360.4 638.3 -1183.44 1161.39 185.43 1161.39 830.75 638.3"/></g></g></g><g class="cls-137"><g class="cls-138"><g class="cls-14"><g class="cls-139"><polyline class="cls-140" points="23525.12 13862.3 23525.12 13862.3 -9242.88 -18905.7 -9242.88 -18905.7 23525.12 13862.3"/><polyline class="cls-140" points="-9242.88 13862.3 -9242.88 13862.3 23525.12 -18905.7 23525.12 -18905.7 -9242.88 13862.3"/><polyline class="cls-140" points="829.25 636.8 -361.9 636.8 -1184.94 1159.89 183.93 1159.89 829.25 636.8"/></g></g></g></g></g><path class="cls-141" d="M481.86,457.42c10.74-.07,14.26-.25,18-.61a104,104,0,0,0,20.59-4,69.68,69.68,0,0,0,18.29-8.66,62.78,62.78,0,0,0,13.58-12.4,69.53,69.53,0,0,0,9-14.45c2.4-5.11,4.31-10.5,6.21-15.89a120.52,120.52,0,0,1,10.53-8.34c4.81-3.38,11.6-7.69,18.4-12a15.54,15.54,0,0,0,4.56,4,13,13,0,0,0,6.57,1.15,9.77,9.77,0,0,0,8.45-5,20.93,20.93,0,0,0,5,2.84,16.42,16.42,0,0,0,7,.87,16,16,0,0,0,6.72-2.41,18.42,18.42,0,0,0,4.06-3.88,61,61,0,0,1,6.9,0,50.82,50.82,0,0,1,8.62,1.33c3,.75,5.72,1.76,7.3,2.15s1.94.22,2.15-.36.25-1.51.25-4.35-.1-7.62-.14-10.28-.07-3.27-.47-3.74a7,7,0,0,0-2.12-1.25c-.89-.4-1.9-.87-2.76-1.15a11.89,11.89,0,0,0-2.27-.54,22,22,0,0,1,2.81-.11,13.76,13.76,0,0,1,2.8.25c.83.14,1.44.4,1.76.4s.29-.26.32-3.35.07-9.06.25-13.3.44-6.68.54-8.16,0-1.94-.39-2.26a3.27,3.27,0,0,0-1.58-.58c-.61-.11-1.15-.18-1.73-.25a11.44,11.44,0,0,1,1-1.26,4.65,4.65,0,0,0,1-1.22c.22-.5.22-1.11.22-3.52s0-6.51,0-8.92,0-3-.21-3.45a1.39,1.39,0,0,0-.94-.82,4,4,0,0,0-2,.25c-1.15.28-3,.79-4.85,1.36s-3.81,1.26-5.68,1.73a27.33,27.33,0,0,1-5.53.82c-1.94.11-4.1.08-6.25,0a20.62,20.62,0,0,0-2.27-2.73A13.15,13.15,0,0,0,632,313a14.93,14.93,0,0,0-4.85-1.37,14.51,14.51,0,0,0-5.17.51,12,12,0,0,0-4,2.15,11.9,11.9,0,0,0-2.48,2.81,10.06,10.06,0,0,0-8-3.85,14.72,14.72,0,0,0-5.14,1,43.47,43.47,0,0,0-5,2.66c-1.79-.83-3.59-1.65-8.66-4.28s-13.33-7-21.59-11.39c-2.91-5.29-5.86-10.61-8.84-15.42a89.55,89.55,0,0,0-9.56-13,104,104,0,0,0-24.82-19.09A67,67,0,0,0,509,248.53a79.72,79.72,0,0,0-14.66-2c-5.71-.33-12.86-.36-43.51.83s-84.75,3.66-130.74,5.71-83.86,3.63-106.28,4.6-29.46,1.26-35.25,2.09-10.35,2.26-14,4.6a20.09,20.09,0,0,0-8.19,10.24c-1.72,4.57-2.34,10.36-2.59,14.71s-.18,7.15.4,25.66,1.62,52.7,2.19,73.58.65,28.37.72,34.08.11,9.6,1.11,13.37a29.26,29.26,0,0,0,17.61,19.06c5.06,1.83,11.5,2.48,21.84,2.69,7.4.18,16.82.11,39,0Zm79.43-159a32.22,32.22,0,0,1,.94,3.41c.32,1.62.75,4,1.15,7.55a141.45,141.45,0,0,1,.72,14.23c0,5.83.9,13.63,1,20.49.54-8.91,1.22-21.46,1.51-27.49.14-3.46.07-4.64,0-5.79,4.78,2.37,9.56,4.74,13.19,6.32a41.38,41.38,0,0,0,7.76,2.66,6.94,6.94,0,0,0,2.77.15c-8.05-4.21-16.14-8.38-20.12-11.25a12.14,12.14,0,0,1-3-2.81l28.17,15.28q.43,27.56.94,55.14-16.12,11.55-32.27,23c-.54,1.8-1,3.56-2,6.61a79.72,79.72,0,0,1-4.71,12A66.81,66.81,0,0,1,548,431.86,55.52,55.52,0,0,1,535,442.68a70.48,70.48,0,0,1-17.71,7.69c-6.87,1.94-14.66,3.1-27.52,3.71s-30.72.61-50.2.57-40.49-.07-58-.07-31.33.07-50.63.14-43.9.22-65,.18-38.66-.21-52-.39-22.56-.36-29.14-1.44-10.6-3-14-6a27,27,0,0,1-7.8-11.28c-1.51-4.39-1.69-9.21-2.08-24s-.94-39.61-1.62-61.11-1.44-39.79-1.58-51.26.28-16.17,1.4-20.16a21,21,0,0,1,5.6-9.89A24.15,24.15,0,0,1,175,263.92c4-1.05,8.27-1.33,13.23-1.66s10.49-.64,23.28-1.22,32.73-1.33,55.94-2.34,49.73-2.26,72.43-3.34,41.57-2,60.11-2.8,36.72-1.58,48.83-2.09,18.11-.75,24.36-.9,12.72-.1,18.61.18a114.52,114.52,0,0,1,16.24,2,60,60,0,0,1,14.23,4.53,70.54,70.54,0,0,1,12.86,8.38,100.75,100.75,0,0,1,12.4,11.5,76.34,76.34,0,0,1,8.73,12.33,96.15,96.15,0,0,1,5.06,10Zm38.27,20.95a18.85,18.85,0,0,1,3.41-2.84,9.41,9.41,0,0,1,4.39-1.29,7.55,7.55,0,0,1,4.34,1.4,7.37,7.37,0,0,1,3.13,5c.57,2.63.47,6.51.47,12.26s.07,13.41.14,21.06c-.32-7.47-.65-15-.86-20.05s-.33-7.77-.61-9.67a10.31,10.31,0,0,0-1.26-4,5.24,5.24,0,0,0-2.3-2.16,9.21,9.21,0,0,0-4-.93,17.49,17.49,0,0,0-4.38.54,16.19,16.19,0,0,0-2.48.75Zm16.31,51.34a11.08,11.08,0,0,1,.11,2.12,20,20,0,0,1-.4,3.84A10.18,10.18,0,0,1,614,380.6a7.27,7.27,0,0,1-3.27,2.66,8.17,8.17,0,0,1-4.57.36,8.41,8.41,0,0,1-4.24-2.16,10.24,10.24,0,0,1-2.4-4.35,20.08,20.08,0,0,1-.83-5.14c-.07-1.72,0-3.48.11-5.21a40.23,40.23,0,0,0,1.26,6.29,10.9,10.9,0,0,0,2.76,4.85,8.06,8.06,0,0,0,4.6,2.34,7,7,0,0,0,4.57-.93,7.38,7.38,0,0,0,2.65-3,11.31,11.31,0,0,0,.94-3.17,22.86,22.86,0,0,0,.32-2.4Zm2.62,6.65a8.36,8.36,0,0,0,2.12,2.66,10.15,10.15,0,0,0,4.5,2.08,10.66,10.66,0,0,0,5.28-.61,13.61,13.61,0,0,0,4.49-2.7,10.74,10.74,0,0,0,2.33-3.45V362.81a60.89,60.89,0,0,1-.93,7.76,13.11,13.11,0,0,1-2.55,5.79,10.9,10.9,0,0,1-4.71,3.2,11.05,11.05,0,0,1-4.92.65,9,9,0,0,1-3.52-1.19,11.62,11.62,0,0,1-2.09-1.65Zm13-54.25c1,1.15,1.68,2.88,2.12,6.62s.61,9.45.75,15.31.18,11.9.07,16.21-.39,6.9-1.15,9.1a9,9,0,0,1-3.52,4.92,6.55,6.55,0,0,1-5,.58,7,7,0,0,1-3.91-2.66,15.4,15.4,0,0,1-2.7-6.73c-.61-3.2-.86-7.55-1-14.2s-.15-15.52-.15-21.17,0-8.05.43-10a8.64,8.64,0,0,1,2.34-4.49,8.83,8.83,0,0,1,4.67-2.52,10.22,10.22,0,0,1,6.25.9,9.47,9.47,0,0,1,4.49,5.36c.9,2.48,1,5.64,1.19,12.15s.36,16.36.54,26.2c-.4-9.41-.83-18.87-1.15-24.8s-.61-8.34-1.15-10.28a10.35,10.35,0,0,0-2.52-4.49,7.15,7.15,0,0,0-3.66-1.87,6.77,6.77,0,0,0-4.74.57,9,9,0,0,0-4.14,5.36c-.86,2.66-.89,6.18-1,10.46s-.14,9.24,0,14.16.54,9.71.87,12.91a60.87,60.87,0,0,0,1,6.32c.18-5.46.36-10.92.61-17.32s.68-13.73,1.11-18.48.93-6.94,1.94-8.23a4.58,4.58,0,0,1,3.85-1.73,4.72,4.72,0,0,1,3.52,1.8Zm-20.3-.54a3.88,3.88,0,0,0-2.63-1.9,7.3,7.3,0,0,0-4.78.61c-1.5.82-2.65,2.37-3.37,5.28s-1.08,7.3-1.12,14.74a231,231,0,0,0,1.12,24.19c.79,6.26,2,8.23,3.45,9.46a6.8,6.8,0,0,0,4.38,1.79,3.6,3.6,0,0,0,3.7-2c.83-1.65,1-4.53.9-12.94s-.47-22.39-.76-29.87-.43-8.49-.89-9.35ZM640,345.7c1.8-.22,3.66-.4,5.78-.51a74.72,74.72,0,0,1,8,.11c2.37.14,4,.4,5.71.65a21.53,21.53,0,0,0-5.42-1.62,75.09,75.09,0,0,0-8.45-.72,44.71,44.71,0,0,0-4.77.07,5.84,5.84,0,0,0-.87,0v-.18c-.07-3-.07-6.83.15-10.75s.75-8,1.26-12.08c1.79-.1,3.59-.25,5.38-.5a39.26,39.26,0,0,0,5.61-1.19c2-.57,4.24-1.33,5.71-1.72s2.12-.43,2.52-.22.46.69.5,2.34,0,4.53,0,6.43,0,2.88-.51,4a19.89,19.89,0,0,1-2.73,3.88,9.09,9.09,0,0,1,2.88,1.83c.61.76.79,1.77.9,4.43.1,2.37.21,6.14.28,9.23-1.9-.25-3.88-.46-6.14-.68-2.8-.21-6.07-.39-9.13-.47-2.3,0-4.49-.07-6.64-.07,0-.75,0-1.54,0-2.33Zm.43,9.16c1.33-.18,2.66-.32,4.1-.43a39.91,39.91,0,0,1,5.13,0,21.69,21.69,0,0,1,4.28.68,17,17,0,0,1,2.84,1.12,45,45,0,0,0-4.85-.83,22.79,22.79,0,0,0-4.89.18,17.41,17.41,0,0,0-4.2,1.12,15.94,15.94,0,0,0-2.23,1.07c.11,1.51.22,3.06.32,4.53.26,3.49.51,6.58.72,9.71a50.8,50.8,0,0,1,7.22.93,34.58,34.58,0,0,1,6.76,2.23,21.75,21.75,0,0,1,4.1,2.55,13,13,0,0,1,1.86,1.8c0-4.53.08-9,.08-11.5s0-2.91-.36-3.38A7.54,7.54,0,0,0,659,363.2a36,36,0,0,0-8.59-2.77,47.28,47.28,0,0,0-5-.57,18.42,18.42,0,0,0-2.94.07,19.18,19.18,0,0,1,4.56-1.15,43.76,43.76,0,0,1,7.08-.32,59.45,59.45,0,0,1,6.11.54c1.33.14,1.76.21,2,0s.18-.65.15-2-.18-3.13-.26-6c-1.86-.25-3.77-.47-6-.57a73.26,73.26,0,0,0-8.12,0,34.3,34.3,0,0,0-5.53.61c-.79.14-1.51.32-2.19.5V352q.1,1.35.21,2.91Z"/><path class="cls-141" d="M555.37,411.73A62.73,62.73,0,0,1,543.55,428a56.55,56.55,0,0,1-12.54,9.2,69.06,69.06,0,0,1-17.72,6.29,153.67,153.67,0,0,1-24.61,3.06c-9.81.57-21.48.79-30.75.93s-16.21.18-23.11.22c1.5-.43-21.35-.27-34.37-.72l-6.93-.2c-13.73.21-30.77.13-45.82.13-16.75,0-21.12.19-33.91,0-8.31-.11-22.92,1.08-29.58.73-10.61.38-33,.71-32,1.27-9.24-.07-18.51-.14-26.95-.36s-16.17-.65-21.85-1.22a69.15,69.15,0,0,1-12.68-2.3,41.74,41.74,0,0,1-8.26-3.31,21.8,21.8,0,0,1-5.82-4.21,19.78,19.78,0,0,1-3.56-5.24,22.27,22.27,0,0,1-1.69-5.72,43.14,43.14,0,0,1-.54-8.3A74.47,74.47,0,0,1,172,407.56c.64-3.77,1.43-7.73,2.4-12s2.16-9.06,3.17-14a98.33,98.33,0,0,0,2-15.93A90.17,90.17,0,0,0,178.54,348a136.74,136.74,0,0,0-4-16.07c-1.54-5.1-3.05-10.06-4.63-14.48s-3.24-8.38-4.28-12.51a36,36,0,0,1-1.08-12.48,28.7,28.7,0,0,1,3.38-10.92,22.14,22.14,0,0,1,6.29-7.19,22.93,22.93,0,0,1,8.15-3.63c3.06-.76,6.54-1.15,12.72-1.48s15.06-.54,33-1.29S273,266,298.33,264.89s48.86-2.34,72.14-3.42,46.28-2.19,66.15-3.09,36.61-1.58,49-1.4,20.52,1.26,27.2,3a56,56,0,0,1,16.57,7.37,84.75,84.75,0,0,1,12.25,10c3.27,3.2,5.57,5.86,7.87,8.52A42.14,42.14,0,0,0,547,281.5a47,47,0,0,0-6.54-8.2,69.91,69.91,0,0,0-12.79-10.1,57.46,57.46,0,0,0-16.42-6.72c-6.32-1.59-13.8-2.59-25.15-2.7s-26.69.61-42.11,1.26-30.93,1.11-46.28,1.72-30.46,1.3-47.57,2.12-36.21,1.8-55.25,2.59-38,1.51-52.25,2.16-23.67,1.22-32,1.58-15.67.47-21,.86a38.78,38.78,0,0,0-11.93,2.27,24.84,24.84,0,0,0-9.3,6,25.35,25.35,0,0,0-6.07,11,42.46,42.46,0,0,0-1,14.09A80.24,80.24,0,0,0,164,313.63c1.33,4.85,3,10,4.6,16.14A180.71,180.71,0,0,1,172.79,350a102.3,102.3,0,0,1,1,20.42,121,121,0,0,1-2.62,19.09,98,98,0,0,1-3.63,12.29c-.07,3.67-.14,7.37-.18,11.93s0,10.11.86,14.71a23.68,23.68,0,0,0,5.21,11.14,25.37,25.37,0,0,0,9.63,6.65c4,1.76,8.91,3.2,19.69,4.13s27.56,1.41,47.68,1.44,43.72-.36,65.35-.54,41.25-.21,66.37-.11,55.76.29,77,.08,33.27-.87,42.75-2.05A95.23,95.23,0,0,0,524.32,444a62.11,62.11,0,0,0,15-8.13A44.92,44.92,0,0,0,548.9,426a55,55,0,0,0,9.45-20.49C557.41,407.52,556.48,409.57,555.37,411.73Z"/><path class="cls-141" d="M564.71,348.14c.32,2.84.64,5.72.9,9.31s.36,7.95.39,12.19-.07,8.34-.39,11.75a88.11,88.11,0,0,1-1.4,8.88c-.11-3.88-.26-7.8-.33-13.37s-.18-12.8,0-17.87a100,100,0,0,1,.86-10.89Z"/><path class="cls-141" d="M569.56,392.28c8.23-6,16.45-12,24.72-18.08a85.36,85.36,0,0,0-8.19,4.75c-3.31,2.19-7.41,5.21-10.28,7.55a63,63,0,0,0-6.25,5.78Z"/><path class="cls-141" d="M554.68,293.5a31.57,31.57,0,0,1,4.42,10c1,4.28,1.19,10,1.3,14.77s.18,8.45.21,12.19c-.9-7.26-1.79-14.56-2.55-20.13s-1.4-9.38-1.94-11.93a31.67,31.67,0,0,0-1.44-4.93Z"/><rect class="cls-6" x="360.99" y="188.65" width="7" height="327.12" transform="translate(-93.26 569.86) rotate(-69.45)"/><line class="cls-142" x1="200.06" y1="362.83" x2="526.86" y2="313.78"/><rect class="cls-13" x="201.77" y="365.81" width="330.46" height="7" transform="translate(-15.28 15.84) rotate(-2.42)"/><rect class="cls-9" x="191.86" y="352.8" width="341.35" height="7" transform="translate(-114 179.4) rotate(-24.14)"/><path class="cls-141" d="M431.16,457.29c0-.13-115.53-.07-119.81-.12,0,.4-.14,22.37-.14,22.37H430.82Zm-117.4,18.43c0-3.34,0-6.66,1.38-9s4.19-3.73,8.08-4.4a70.34,70.34,0,0,1,25.66,1.43c4,1,8,2.62,14.81,2.58s16.36-1.69,25.84-2.65,18.92-1.21,24.56-.52,7.55,2.41,8.5,4.67.93,5.07.93,7.92Z"/><polyline class="cls-18" points="412.89 125.5 416.06 123.71 419.23 125.51 419.23 129.16 416.06 130.95 412.89 129.15 412.89 125.5"/><g class="cls-19"><polygon class="cls-1" points="337.29 160.62 339.97 162.17 339.97 165.32 337.29 166.88 334.55 165.32 334.55 162.17 337.29 160.62"/><g class="cls-143"><circle class="cls-7" cx="337.26" cy="163.83" r="3.31"/></g></g><polygon class="cls-7" points="450.21 164.37 452.37 165.61 452.37 168.15 450.21 169.4 448.02 168.15 448.02 165.61 450.21 164.37"/><g class="cls-144"><circle class="cls-7" cx="450.19" cy="166.95" r="2.65"/></g><g class="cls-19"><polyline class="cls-8" points="240.81 201.85 243.53 203.42 243.53 206.63 240.81 208.21 238.03 206.63 238.03 203.42"/><g class="cls-145"><circle class="cls-8" cx="240.78" cy="205.12" r="3.36"/></g></g><polyline class="cls-9" points="273.73 218.41 276.45 219.98 276.45 223.19 273.73 224.77 270.95 223.19 270.95 219.98"/><g class="cls-146"><circle class="cls-9" cx="273.7" cy="221.68" r="3.36"/></g><polyline class="cls-2" points="389.22 164.3 391.73 165.75 391.73 168.7 389.22 170.16 386.66 168.7 386.66 165.75"/><g class="cls-147"><circle class="cls-11" cx="389.19" cy="167.31" r="3.09"/></g><g class="cls-19"><polygon class="cls-8" points="565.52 195.48 568.02 196.93 568.02 199.88 565.52 201.34 562.96 199.88 562.96 196.93 565.52 195.48"/><g class="cls-148"><circle class="cls-8" cx="565.49" cy="198.49" r="3.09"/></g></g><polyline class="cls-18" points="92.4 335.87 95.57 334.07 98.74 335.88 98.74 339.53 95.57 341.31 92.4 339.51 92.4 335.87"/><g class="cls-19"><polygon class="cls-1" points="48.05 454.72 50.73 456.27 50.73 459.43 48.05 460.99 45.3 459.43 45.3 456.27 48.05 454.72"/><g class="cls-149"><circle class="cls-7" cx="48.02" cy="457.94" r="3.31"/></g></g><polygon class="cls-10" points="146.09 369.64 148.24 370.89 148.24 373.42 146.09 374.67 143.9 373.42 143.9 370.89 146.09 369.64"/><g class="cls-150"><circle class="cls-10" cx="146.07" cy="372.22" r="2.65"/></g><polyline class="cls-9" points="56.82 291.96 59.55 293.53 59.55 296.74 56.82 298.32 54.04 296.74 54.04 293.53"/><g class="cls-151"><circle class="cls-9" cx="56.79" cy="295.23" r="3.36"/></g><polyline class="cls-9" points="125.83 288.78 128.55 290.35 128.55 293.56 125.83 295.14 123.04 293.56 123.04 290.35"/><g class="cls-152"><circle class="cls-9" cx="125.8" cy="292.05" r="3.36"/></g><polyline class="cls-2" points="68.73 374.67 71.24 376.12 71.24 379.07 68.73 380.52 66.17 379.07 66.17 376.12"/><g class="cls-153"><circle class="cls-11" cx="68.7" cy="377.67" r="3.09"/></g><g class="cls-19"><polygon class="cls-1" points="82.29 405.39 84.8 406.84 84.8 409.79 82.29 411.25 79.73 409.79 79.73 406.84 82.29 405.39"/><g class="cls-154"><circle class="cls-7" cx="82.27" cy="408.4" r="3.09"/></g></g><g class="cls-19"><polygon class="cls-1" points="73.67 517.49 76.17 518.94 76.17 521.89 73.67 523.35 71.1 521.89 71.1 518.94 73.67 517.49"/><g class="cls-155"><circle class="cls-7" cx="73.64" cy="520.5" r="3.09"/></g></g><polyline class="cls-18" points="440.4 633.87 443.57 632.08 446.74 633.88 446.74 637.53 443.57 639.32 440.4 637.51 440.4 633.87"/><g class="cls-19"><polygon class="cls-1" points="381.1 702.12 383.79 703.67 383.79 706.83 381.1 708.38 378.36 706.83 378.36 703.67 381.1 702.12"/><g class="cls-156"><circle class="cls-7" cx="381.07" cy="705.34" r="3.31"/></g></g><polygon class="cls-10" points="494.09 667.64 496.24 668.89 496.24 671.42 494.09 672.67 491.89 671.42 491.89 668.89 494.09 667.64"/><g class="cls-157"><circle class="cls-10" cx="494.07" cy="670.22" r="2.65"/></g><polyline class="cls-9" points="264.31 670.6 267.04 672.17 267.04 675.37 264.31 676.96 261.53 675.37 261.53 672.17"/><g class="cls-158"><circle class="cls-9" cx="264.28" cy="673.86" r="3.36"/></g><polyline class="cls-9" points="168.37 623.57 171.09 625.14 171.09 628.35 168.37 629.93 165.58 628.35 165.58 625.14"/><g class="cls-159"><circle class="cls-9" cx="168.34" cy="626.84" r="3.36"/></g><polyline class="cls-9" points="271.07 703.26 273.8 704.84 273.8 708.04 271.07 709.63 268.29 708.04 268.29 704.84"/><g class="cls-160"><circle class="cls-9" cx="271.04" cy="706.53" r="3.36"/></g><polyline class="cls-2" points="416.73 672.67 419.24 674.12 419.24 677.07 416.73 678.52 414.17 677.07 414.17 674.12"/><g class="cls-161"><circle class="cls-11" cx="416.7" cy="675.67" r="3.09"/></g><polyline class="cls-10" points="410.22 688.86 412.73 690.3 412.73 693.25 410.22 694.71 407.66 693.25 407.66 690.3"/><g class="cls-162"><circle class="cls-10" cx="410.19" cy="691.86" r="3.09"/></g><g class="cls-19"><polygon class="cls-1" points="347.3 695.39 349.81 696.83 349.81 699.78 347.3 701.24 344.74 699.78 344.74 696.83 347.3 695.39"/><g class="cls-163"><circle class="cls-7" cx="347.28" cy="698.39" r="3.09"/></g></g><polyline class="cls-55" points="525.56 497.41 522.42 495.64 519.29 497.43 519.29 501.03 522.42 502.8 525.56 501.02 525.56 497.41"/><g class="cls-19"><polygon class="cls-1" points="506.25 469.82 504.44 470.87 504.44 472.99 506.25 474.05 508.09 472.99 508.09 470.87 506.25 469.82"/><g class="cls-164"><circle class="cls-7" cx="506.27" cy="471.99" r="2.23"/></g></g><polygon class="cls-10" points="473.92 475.57 471.43 477.01 471.43 479.94 473.92 481.39 476.47 479.94 476.47 477.01 473.92 475.57"/><g class="cls-165"><circle class="cls-10" cx="473.95" cy="478.56" r="3.07"/></g><polyline class="cls-9" points="233.9 487.16 231.6 485.87 229.3 487.18 229.3 489.82 231.6 491.12 233.9 489.81 233.9 487.16"/><polyline class="cls-3" points="459.48 506.62 457.27 507.9 457.27 510.5 459.48 511.79 461.74 510.5 461.74 507.9"/><g class="cls-166"><circle class="cls-3" cx="459.5" cy="509.27" r="2.73"/></g><polyline class="cls-3" points="539.24 469.5 537.03 470.78 537.03 473.38 539.24 474.67 541.5 473.38 541.5 470.78"/><g class="cls-167"><circle class="cls-3" cx="539.26" cy="472.15" r="2.73"/></g><polyline class="cls-10" points="266.08 512.68 263.91 511.46 261.74 512.69 261.74 515.18 263.91 516.4 266.08 515.17 266.08 512.68"/><polyline class="cls-9" points="345.78 491.33 342.33 489.38 338.87 491.34 338.87 495.32 342.33 497.27 345.78 495.3 345.78 491.33"/><polyline class="cls-2" points="247.72 507.51 244.34 509.46 244.34 513.44 247.72 515.4 251.17 513.44 251.17 509.46"/><g class="cls-168"><circle class="cls-11" cx="247.75" cy="511.56" r="4.17" transform="translate(-274.45 287.11) rotate(-40.9)"/></g><polyline class="cls-10" points="407.3 491.3 405.57 492.3 405.57 494.34 407.3 495.35 409.08 494.34 409.08 492.3"/><g class="cls-169"><circle class="cls-10" cx="407.32" cy="493.38" r="2.14"/></g><polyline class="cls-18" points="220.25 516.25 218.1 515.04 215.95 516.26 215.95 518.73 218.1 519.94 220.25 518.72 220.25 516.25"/><polyline class="cls-9" points="134.63 460.32 132.57 461.51 132.57 463.94 134.63 465.14 136.75 463.94 136.75 461.51"/><g class="cls-170"><circle class="cls-9" cx="134.66" cy="462.8" r="2.55"/></g><polyline class="cls-9" points="183.1 505.07 180.36 506.65 180.36 509.87 183.1 511.46 185.89 509.87 185.89 506.65"/><g class="cls-171"><circle class="cls-9" cx="183.13" cy="508.35" r="3.37"/></g><polyline class="cls-2" points="149.18 491.09 147.19 492.24 147.19 494.57 149.18 495.73 151.2 494.57 151.2 492.24"/><g class="cls-172"><circle class="cls-11" cx="149.2" cy="493.47" r="2.45"/></g><polygon class="cls-10" points="213.71 477.24 212.02 478.22 212.02 480.21 213.71 481.19 215.44 480.21 215.44 478.22 213.71 477.24"/><g class="cls-173"><circle class="cls-10" cx="213.73" cy="479.27" r="2.08"/></g><polygon class="cls-6" points="264.26 471.55 262.57 472.53 262.57 474.52 264.26 475.5 265.99 474.52 265.99 472.53 264.26 471.55"/><g class="cls-174"><circle class="cls-6" cx="264.28" cy="473.58" r="2.08"/></g><polygon class="cls-2" points="166.92 462.26 162.72 464.69 162.72 469.64 166.92 472.08 171.22 469.64 171.22 464.69 166.92 462.26"/><g class="cls-175"><circle class="cls-13" cx="166.97" cy="467.3" r="5.19" transform="translate(-265.2 223.41) rotate(-40.9)"/></g><g class="cls-19"><polygon class="cls-1" points="328.73 516.96 326.05 518.51 326.05 521.66 328.73 523.22 331.48 521.66 331.48 518.51 328.73 516.96"/><g class="cls-176"><circle class="cls-7" cx="328.76" cy="520.17" r="3.31"/></g></g><polygon class="cls-10" points="192.7 481.52 190.55 482.77 190.55 485.3 192.7 486.55 194.9 485.3 194.9 482.77 192.7 481.52"/><g class="cls-177"><circle class="cls-10" cx="192.72" cy="484.1" r="2.65"/></g><polyline class="cls-9" points="445.52 485.43 442.8 487.01 442.8 490.21 445.52 491.8 448.31 490.21 448.31 487.01"/><g class="cls-178"><circle class="cls-9" cx="445.55" cy="488.7" r="3.36"/></g><polyline class="cls-2" points="293.11 487.5 290.6 488.95 290.6 491.9 293.11 493.36 295.67 491.9 295.67 488.95"/><g class="cls-179"><circle class="cls-11" cx="293.13" cy="490.51" r="3.09"/></g><polyline class="cls-10" points="299.62 503.69 297.11 505.14 297.11 508.09 299.62 509.55 302.18 508.09 302.18 505.14"/><g class="cls-180"><circle class="cls-10" cx="299.64" cy="506.7" r="3.09"/></g><g class="cls-19"><polygon class="cls-1" points="362.53 510.22 360.03 511.67 360.03 514.62 362.53 516.08 365.1 514.62 365.1 511.67 362.53 510.22"/><g class="cls-181"><circle class="cls-7" cx="362.56" cy="513.23" r="3.09"/></g></g><polyline class="cls-18" points="552.3 455.03 555.47 453.24 558.64 455.05 558.64 458.7 555.47 460.48 552.3 458.68 552.3 455.03"/><g class="cls-19"><polygon class="cls-1" points="657.93 402.26 660.62 403.81 660.62 406.97 657.93 408.53 655.19 406.97 655.19 403.81 657.93 402.26"/><g class="cls-182"><circle class="cls-7" cx="657.9" cy="405.48" r="3.31"/></g></g><polygon class="cls-10" points="606 488.81 608.15 490.06 608.15 492.59 606 493.84 603.8 492.59 603.8 490.06 606 488.81"/><g class="cls-183"><circle class="cls-10" cx="605.97" cy="491.39" r="2.65"/></g><polyline class="cls-9" points="681.06 570.03 683.78 571.6 683.78 574.8 681.06 576.39 678.28 574.8 678.28 571.6"/><g class="cls-184"><circle class="cls-9" cx="681.03" cy="573.29" r="3.36"/></g><polyline class="cls-9" points="669.66 441.25 672.38 442.82 672.38 446.02 669.66 447.61 666.87 446.02 666.87 442.82"/><g class="cls-185"><circle class="cls-9" cx="669.63" cy="444.51" r="3.36"/></g><polyline class="cls-2" points="547.15 500.82 549.66 502.27 549.66 505.22 547.15 506.68 544.59 505.22 544.59 502.27"/><g class="cls-186"><circle class="cls-11" cx="547.12" cy="503.83" r="3.09"/></g><g class="cls-19"><polygon class="cls-1" points="692.2 514.56 694.71 516.01 694.71 518.96 692.2 520.42 689.63 518.96 689.63 516.01 692.2 514.56"/><g class="cls-187"><circle class="cls-7" cx="692.17" cy="517.57" r="3.09"/></g></g><g class="cls-19"><polygon class="cls-1" points="50.76 572.52 53.26 573.97 53.26 576.92 50.76 578.37 48.19 576.92 48.19 573.97 50.76 572.52"/><g class="cls-188"><circle class="cls-7" cx="50.73" cy="575.52" r="3.09"/></g></g></g></g></svg>