<?xml version="1.0" encoding="utf-8"?>
<!-- Generator: Adobe Illustrator 26.5.0, SVG Export Plug-In . SVG Version: 6.00 Build 0)  -->
<svg version="1.1" id="Layer_1" xmlns="http://www.w3.org/2000/svg" xmlns:xlink="http://www.w3.org/1999/xlink" x="0px" y="0px"
	 viewBox="0 0 2521 2911" style="enable-background:new 0 0 2521 2911;" xml:space="preserve">
<style type="text/css">
	.st0{fill:#005198;}
	.st1{fill:#E6B35A;}
	.st2{opacity:0.2;}
	.st3{fill:#FFFFFF;}
	.st4{fill:#003E6D;}
	.st5{fill:#045D84;}
</style>
<g>
	<polygon class="st0" points="100.5,789.2 100.5,2129 1260.5,2798.8 2420.5,2129 2420.5,789.2 1260.5,119.4 	"/>
	<path class="st1" d="M1258.8,2171.6c1-1,2.1-2.1,3.1-3.1h-1C1260.5,2169.5,1259.8,2170.6,1258.8,2171.6z"/>
	<g id="xwNXnP.tif" class="st2">
		<g>
			<path class="st3" d="M1276.6,546.2c-4.1,0-7.9,0-12,0s-7.9,0-12,0.3s-7.9,0.3-12,0.3c-4.1,0-7.9,0.3-12,0.7
				c-30.5,2.4-61.1,4.8-91.6,7.2s-60.7,5.5-91.3,8.9s-60.4,7.2-90.2,12c-29.8,4.8-59.7,10-88.9,16.5c-43.9,9.6-87.5,20.6-129.7,32.9
				c-42.2,12.4-83.4,26.8-123.5,42.5c-39.8,15.8-78.2,33.3-116,52.5c-36.7,18.9-72.4,39.8-107,62.8c-25,16.8-49.4,34.7-72.7,53.9
				c-22.6,18.9-44.3,38.8-64.5,60c-19.9,20.9-38.4,43.2-55.2,66.9c-16.8,23.3-31.9,48-45.3,73.4c-8.9,17.2-16.8,35-23.3,53.2
				c-13.7,38.1-20.6,77.9-21.3,118.4c-0.3,22,1.4,43.9,4.5,65.5c3.8,25,9.6,50.1,17.5,74.1c7.9,23.7,17.5,47,28.8,69.3
				c11.7,22.6,24.7,44.3,39.5,64.8c15.1,21.3,31.6,41.5,49.1,60.4c41.5,45.3,87.8,85.4,138.6,119.7c23,15.4,46,29.5,69.3,42.5
				c23.3,13,45.6,24.7,68.6,35.7c34.7,16.8,68.6,31.9,102.2,44.9c32.9,13,65.9,24.4,98.1,34.3c32.3,10,63.8,18.5,95.7,26.1
				c31.9,7.5,62.8,13.7,94,19.6c17.2,3.1,34.7,6.2,51.8,8.6c17.2,2.4,34.3,5.1,51.5,7.2c17.2,2.1,34,4.1,51.1,5.8
				c17.2,1.7,34,2.7,50.8,3.8c12,0.7,24,1.4,36,2.4l36,2.7c12,0.7,24,1.7,36,2.1c12,0.3,24,1,35.7,1c2.7,0,5.8,0,8.6,0h8.6l8.6-0.3
				l8.6-0.7c17.2-1,34-2.1,51.1-3.1s34.3-1.7,51.1-2.7c16.8-1,34.3-2.4,51.5-3.8c17.2-1.4,34.3-3.1,51.8-5.5
				c27.4-3.4,55.2-7.5,83-12s55.9-10,84.1-15.8c28.1-5.8,56.6-13,85.4-20.6c28.8-7.5,58-16.5,87.5-26.4
				c27.1-8.9,54.2-18.9,81.3-29.9c27.1-11,55.2-23,83-36.7c27.8-13.7,56.3-29.2,85.1-46.3c28.8-17.2,58.3-37.1,88.2-59
				c14.4-10.6,28.5-22,42.5-33.6c14.1-12,27.4-24.7,40.8-38.1c13.4-13.4,26.4-28.1,39.1-43.2c12.7-15.1,25-31.9,37.1-49.1
				c0.7-1,1.4-2.1,2.1-3.1s1.4-1.7,2.1-2.7c0.7-0.7,1.4-1.7,2.4-2.1c1-0.7,2.1-1,3.1-1.4l14.1-30.2l14.4-30.9l14.8-31.6l15.4-32.6
				c0.7-9.6,2.1-19.2,3.4-29.2c1.4-10,3.1-20.2,4.8-30.5c1.7-10.3,3.1-20.6,4.1-30.9c1-10.3,1.4-20.2,1-30.5
				c-0.7-16.8-2.1-33.3-4.1-49.4c-2.1-15.8-5.1-31.6-8.9-47.3c-3.8-15.1-8.2-30.2-14.1-44.6c-5.5-14.4-11.7-28.5-19.2-41.9
				c-23.7-42.9-51.8-83-84.1-120.1c-32.9-37.4-69.3-71.4-108.8-101.2c-40.8-31.2-84.4-58.7-130-82.7c-47.7-25-97.1-47-147.5-65.9
				c-29.8-11.3-60.4-22-91.3-31.6c-30.9-9.6-62.1-18.5-94.3-26.8c-31.9-7.9-64.5-15.1-97.1-20.9c-32.9-5.8-66.2-10.6-99.5-14.4
				c-20.2-2.1-40.8-4.8-61.1-7.2c-20.2-2.4-40.8-5.1-61.4-7.5c-20.6-2.4-41.2-4.5-61.8-5.8S1297.2,546.2,1276.6,546.2"/>
			<path class="st3" d="M1953.2,2284.1c-2.7,2.4-5.1,5.1-7.2,7.9c-2.1,2.7-3.4,5.5-5.1,8.2c-1.7,2.7-3.1,5.5-4.8,8.2
				c-1.7,2.7-3.8,5.5-6.2,7.9c-9.9,10.3-20.6,19.9-31.6,28.8c-11,8.6-22.6,16.5-34.7,24c-12,7.2-24.4,13.7-37.1,19.9
				c-12.7,6.2-25.7,11.7-38.8,16.8c-18.9,7.2-37.4,14.1-56.3,19.9c-18.5,5.8-37.4,11.3-55.6,16.1s-36.7,8.9-55.2,13
				c-18.5,3.8-37.1,7.2-55.2,10.3c-12.4,2.1-25,3.8-37.4,5.5c-12.4,1.7-24.7,3.4-37.1,4.8c-12.4,1.4-24.7,2.7-37.1,4.1
				s-24.7,2.4-36.7,3.4c-13.7,1-27.4,2.1-40.8,2.7s-27.1,1.4-40.8,1.7c-13.4,0.3-27.1,0.7-40.5,1l-40.5,0.7h-6.5
				c-4.1,0-8.6,0-12.7,0l-12.7-0.3l-13-0.3c-4.1,0-8.6-0.3-13-0.3l-13.4-0.7c-4.1,0-8.6-0.3-12.7-0.3s-8.6-0.3-12.7-0.7
				c-4.1-0.3-8.6-0.7-12.7-1c-12.4-1-25-2.1-37.7-3.1s-25.4-2.4-37.7-3.4c-12.4-1-25.4-2.7-38.1-4.1s-25.4-3.4-38.4-5.1
				c-22.6-3.4-45.3-7.2-67.9-11.7s-45.3-9.6-67.9-15.4s-45.6-12.7-68.6-20.2c-23-7.5-46.3-16.5-69.6-26.4
				c-7.5-3.1-15.1-6.5-22.3-10.3s-14.4-7.5-21.6-11.7s-14.1-8.2-20.9-13c-6.9-4.8-13.7-9.3-20.2-14.4c-5.8-4.5-11.3-8.9-16.5-13.4
				s-10.3-9.3-15.1-14.4c-4.8-4.8-8.9-10-13-15.1c-4.1-5.1-7.5-10.6-10.6-16.5l1.7,3.4l1.4,3.4l1.4,3.4l1.4,3.4
				c6.5,13.4,12.7,26.8,18.9,39.8c6.2,12.7,12,25.4,17.8,37.7s11.3,24,16.8,35.7c5.5,11.7,41.5,93.7,46.7,104.7
				c2.4,5.1,4.8,10,8.2,14.4c3.1,4.5,30.5,44.6,34.3,49.1c3.8,4.5,45.6,26.8,50.4,30.9c4.8,4.1,9.9,7.5,15.1,11.3
				c13.4,8.9,27.1,17.2,41.5,24.4c14.1,7.2,28.5,13.4,43.2,19.2c14.8,5.5,394.2,188,409.3,192.8c15.1,4.8,557.2-349.6,563.7-356.8
				c6.2-13.4,30.5-65.9,37.1-79.6l20.6-43.6l22-46.7L1953.2,2284.1"/>
			<path class="st3" d="M2092.1,1984.2c-0.7,0.3-1.4,0.7-2.1,1c-0.7,0.3-1.4,0.7-1.7,1.4c-0.3,0.3-1,1-1.4,1.7c-0.3,0.7-0.7,1-1,1.7
				c-5.8,12.7-13.4,24.7-21.6,36c-8.2,11-17.5,21.6-27.4,31.2s-20.6,18.9-31.6,27.1c-11,8.6-22.6,16.5-34.3,24
				c-20.6,13-40.8,24.7-61.4,35.3c-20.6,10.6-40.8,19.6-61.1,28.1s-40.5,15.8-61.1,22.3s-40.5,12.7-60.7,18.2
				c-22.6,6.2-45.3,12-67.6,17.2c-22.3,5.1-44.6,9.6-66.6,13.7s-43.9,7.5-65.9,10.3c-22,3.1-43.6,5.5-65.2,7.5l-36.4,3.4
				c-12,1-24.4,2.1-36.4,3.1s-24,1.7-36,2.1s-24,1-36,1h-15.1h-15.1h-15.1h-15.1h-20.6c-6.9,0-13.7,0-20.6-0.3s-13.7-0.3-20.6-0.7
				s-13.7-0.7-20.6-1c-9.9-0.7-19.9-1-29.8-1.7s-19.9-1.4-29.8-2.1s-19.9-1.7-29.8-2.4s-19.9-1.7-29.8-3.1
				c-14.1-1.7-27.8-3.1-41.9-5.1c-14.1-2.1-28.1-4.1-42.2-6.2s-28.5-4.8-42.5-7.5s-28.8-5.8-43.2-8.9c-19.2-4.1-38.1-8.9-57.3-13.7
				c-19.2-4.8-38.4-10.3-57.6-16.5c-19.2-6.2-38.8-12.7-58.3-19.9c-19.6-7.2-39.5-15.4-59.4-24.4c-13-5.8-25.7-12-38.4-18.5
				c-12.7-6.5-25.4-13.7-38.1-21.3s-25-16.1-37.1-25c-12-8.9-24.4-18.9-35.7-29.5c-6.2-5.5-11.7-11.3-17.2-17.2
				c-5.5-5.8-10.6-11.7-15.8-17.8c-4.8-6.2-9.6-12.4-14.1-18.9c-4.5-6.5-8.6-13-12.7-19.9c10.6,23,20.9,45.6,30.9,67.6
				c9.9,21.3,19.6,42.2,28.8,62.4c9.3,19.9,18.2,39.1,27.1,58c8.6,18.2,17.2,36.4,25.4,53.9c0.3,0.7,0.7,1,1,1.7
				c0.3,0.7,0.7,1,1.4,1.7l1.4,1.7c0.3,0.7,1,1,1.4,1.7c7.2,9.6,15.1,18.5,23.7,26.8c8.6,8.2,17.5,16.1,27.1,23.3
				s19.6,13.7,29.8,20.2s21.3,12.4,32.3,17.8c15.1,7.9,30.2,14.8,45.6,21.3c15.1,6.5,30.2,12,45.3,17.5s30.2,10,45.3,14.4
				s30.2,8.6,45.3,12c21.6,5.5,42.9,10,63.8,14.4c20.9,4.1,41.9,7.9,62.8,11c20.9,3.1,41.5,6.2,62.4,8.6c20.9,2.4,41.5,4.5,62.1,6.2
				c13,1,26.1,2.1,39.1,2.7c13,0.7,26.1,1.4,39.1,2.1s26.1,1,38.8,1c12.7,0,25.7,0.7,38.8,0.7h12c7.5,0,15.4,0,23-0.3
				c7.5-0.3,15.4-0.3,23-0.7c7.5-0.3,15.4-0.7,23.3-1l23.3-1c14.1-0.7,28.5-1.7,42.5-2.7c14.1-1,28.5-2.1,42.5-3.4
				c14.1-1.4,28.5-2.7,42.9-4.5s28.8-3.4,42.9-5.8c20.9-3.1,41.9-6.5,62.8-10.3c20.9-3.8,41.9-8.2,63.1-13
				c21.3-5.1,42.5-10.6,63.8-17.2s43.2-13.7,64.8-21.6c10.6-4.1,21.3-8.2,31.6-12.7s20.9-9.3,31.2-14.4
				c10.3-5.1,20.6-10.6,30.5-16.5c9.9-5.8,19.9-12,29.8-18.9c5.8-4.1,11.7-8.2,16.8-12.7c5.1-4.5,10.6-9.3,15.4-13.7
				c4.8-4.5,9.9-9.6,14.8-14.8c4.8-5.1,9.3-10.3,14.1-15.4l26.4-55.9l28.5-60.4l30.5-65.2L2092.1,1984.2"/>
			<path class="st3" d="M2304.5,1538.5c-5.1,5.8-9.6,11.7-13.7,18.2c-3.8,6.2-7.2,12.4-10.6,18.5c-3.4,6.2-6.5,12.4-10.3,18.5
				c-3.4,6.2-7.5,12.4-12,17.8c-16.5,20.9-34.3,40.8-53.2,60c-17.5,17.5-35.7,34-54.9,49.4c-18.5,14.8-37.4,28.5-56.6,41.2
				c-19.2,12.7-38.4,24-58,35c-24.4,13.7-48.7,25.7-72.7,37.1s-47.3,21.3-70.7,30.5s-46.3,17.5-69.3,25c-23,7.5-45.3,14.4-67.9,20.6
				c-22.6,6.2-45.6,12-68.3,17.2c-22.6,5.1-44.9,9.6-66.9,14.1s-44.3,7.9-66.2,11.3c-22,3.4-43.9,6.2-65.5,8.9
				c-16.1,2.1-32.3,3.4-48.4,4.8c-16.1,1.4-32.2,2.4-48,3.4c-15.8,1-31.9,1.7-48,2.7s-31.9,1.7-48,2.7l-8.2,0.3l-8.2,0.3
				c-2.7,0-5.5,0-8.2,0h-8.2c-11,0-22.3-0.3-33.6-0.7c-11.3-0.3-22.3-1-33.6-1.7l-33.6-2.4c-11.3-0.7-22.6-1.7-33.6-2.4
				c-15.8-1-31.9-2.1-47.7-3.4c-15.8-1.4-31.9-3.1-47.7-5.1s-31.9-4.1-48-6.5s-32.3-5.1-48.4-7.5c-32.6-5.5-65.5-12-98.5-19.6
				c-32.9-7.5-66.6-16.8-99.8-27.1s-68.3-22.3-102.9-36c-35-14.1-70.7-30.2-107-48.4c-16.8-8.2-33.3-17.2-50.1-26.8
				c-16.8-9.6-33.3-20.2-49.7-31.6c-16.5-11.3-33.3-24-49.4-37.4c-16.1-13.4-32.9-28.5-49.1-44.9c-9.3-9.6-18.5-18.9-27.4-28.8
				c-8.9-10-17.5-19.9-25.7-30.5c-8.2-10.6-16.1-21.6-23.3-32.9c-7.5-11.7-14.1-23.7-20.2-36c16.8,36.7,32.9,72.4,48.7,106.7
				c15.4,33.3,30.2,65.5,44.6,96.8c14.1,30.2,27.8,59.7,41.2,88.2c13,27.8,25.4,54.6,37.7,80.6c0.3,0.7,1,1.7,1.4,2.4
				c0.7,0.7,1,1.7,1.7,2.4l1.7,2.4c0.7,0.7,1,1.7,1.7,2.4c9.9,14.4,21.3,28.5,33.3,41.2c11.7,12.4,24,24,37.4,34.7
				c13,10.6,26.4,20.2,40.1,29.5c13.7,9.3,27.4,17.5,41.5,25.7c19.2,11,38.4,20.9,58,29.9c19.2,8.9,38.1,17.2,57.3,24.7
				s37.7,14.1,56.6,20.2c18.9,6.2,37.4,11.7,56.3,16.8s37.7,10,56.6,14.4c18.9,4.5,37.1,8.2,55.6,12c18.5,3.8,36.7,6.9,54.9,10
				s36.4,5.5,54.6,7.9c16.8,2.4,34,4.5,50.8,6.2c16.8,1.7,33.6,3.4,50.4,4.8c16.8,1.4,33.3,2.4,50.1,3.4c16.8,1,33.3,1.4,49.7,1.7
				l13,0.3h13h13h13c12,0,24,0,35.7-0.3c11.7-0.3,24-0.3,35.7-1s24-1,36-1.7c12-0.7,24-1.4,36-2.4c10.3-0.7,20.2-1.7,30.5-2.4
				s20.2-1.7,30.5-2.7s20.2-2.1,30.5-3.4s20.6-2.4,30.5-4.1c20.2-2.7,40.5-6.2,61.1-9.6c20.6-3.8,41.2-7.5,61.8-12
				s41.5-9.6,62.4-15.1s42.2-11.7,63.8-18.5c15.4-4.8,30.9-10.3,46.3-15.8c15.4-5.5,30.9-11.7,46.7-18.2c15.8-6.5,31.2-13.7,47-21.3
				s31.6-15.8,47.7-24.7c14.1-8.2,28.1-16.8,41.5-26.1c13.4-9.3,26.8-19.2,39.5-29.9c13-11,25.4-22.3,37.4-34.7
				c12.4-12.7,24-26.1,34.7-39.8l39.1-83.7l42.9-92l47.3-100.9L2304.5,1538.5"/>
		</g>
	</g>
	<g>
		<polygon class="st4" points="1352.4,732.6 1352.4,755.9 1162.7,754.5 1162.4,731.5 		"/>
		<polygon class="st5" points="1363.8,909.3 1363.8,932.2 1357.3,932.2 1356.9,909.3 		"/>
		<polygon class="st4" points="1554.5,921.3 1554.5,943.9 1363.8,942.9 1363.8,919.9 		"/>
		<polygon class="st5" points="1363.8,919.9 1363.8,942.9 1356.9,942.9 1356.9,919.9 		"/>
		<polygon class="st5" points="1356.9,909.3 1357.3,932.2 1356.9,942.9 1356.9,919.9 		"/>
		<polygon class="st4" points="1759,1051.3 1758.7,1074 1567.2,1072.6 1567.6,1049.9 		"/>
		<polygon class="st5" points="1366.2,722.3 1366.2,745.2 1363.8,932.2 1363.8,909.3 		"/>
		<polygon class="st5" points="1145.9,905.1 1146.3,928.1 1145.9,938.4 1145.6,915.8 		"/>
		<polygon class="st4" points="1145.6,915.8 1145.9,938.4 955.5,937.4 954.8,914.4 		"/>
		<polygon class="st5" points="937.7,1064.3 938.3,1087 938,1097.6 937.7,1075 		"/>
		<polygon class="st4" points="937.7,1075 938,1097.6 746.9,1096.6 745.9,1073.6 		"/>
		<polygon class="st4" points="1162.4,731.5 1162.7,754.5 1153.1,1294.9 1152.8,1272.3 		"/>
		<path class="st4" d="M2225.9,1292.5l-1.4,22.6h-10.6c-21.3-0.3-42.5-1.4-63.5-3.8c-21.3-2.4-42.2-5.8-62.8-10
			c-19.6-4.1-39.1-9.3-58.3-15.4c-17.2-5.5-34-12.4-50.4-20.2c-12.4-6.2-29.2-21.3-48-40.8c-18.9-19.6-39.1-43.6-58.7-67.6
			c-19.6-24-37.4-47.4-51.8-66.2c-14.4-18.9-24.4-32.9-27.8-37.7c-23.3-32.3-46.7-62.8-70.3-90.9c-23.3-28.1-46.7-54.2-70-78.2
			c-23.3-24-46.3-45.6-69.6-65.2c-22-18.9-44.9-36-69-52.2c-19.6-13-39.8-25-60.7-35.7c-19.6-10-40.1-18.5-61.1-25.7
			c-19.9-6.9-40.1-12-60.7-15.8c-20.2-3.8-62.4-5.5-82.7-6.2c-62.4-0.3-100.5,14.1-158.5,39.8C1032,749,976.1,785.7,921.9,830
			c-54.2,44.3-106,95.4-156.1,150.3c-50.1,54.9-98.5,112.9-145.1,170.2c-11.3,14.1-23,27.8-36,40.8c-12.7,13.4-26.8,25.7-41.5,36.7
			c-15.4,11.3-31.9,21.3-49.7,28.8c-19.2,8.2-39.5,14.4-60,17.8c-12.4,2.1-25,3.8-38.4,5.5c-13.4,1.7-27.1,3.1-41.5,4.5
			c-14.4,1.4-28.8,2.4-44.3,3.4c-15.4,1-30.9,1.7-46.7,2.4l-1.7-22.6c16.1-0.7,31.6-1.4,46.7-2.4c15.1-1,29.8-2.1,44.3-3.4
			c14.4-1.4,28.1-2.7,41.5-4.5c13.4-1.7,26.1-3.8,38.4-5.8c20.6-3.4,40.8-9.3,60-17.8c17.5-7.9,34.3-17.5,49.7-28.8
			c14.8-11,28.8-23.3,41.5-36.7c12.7-13,24.7-27.1,36-40.8c46.7-57.3,95-115.6,145.1-170.5c50.1-54.9,102.2-106,156.4-150.3
			c54.2-44.3,110.1-81,168.1-106.7c58-25.7,97.8-40.1,160.6-39.8c20.2,0.3,61.1,2.4,81,6.2c20.6,3.8,41.2,8.9,61.1,15.8
			c20.9,7.2,41.2,15.8,61.1,25.7c20.9,10.6,41.5,22.6,61.1,35.7c24,16.1,47,33.6,69,52.2c23,19.6,46.3,41.5,69.6,65.2
			c23.3,23.7,46.7,50.1,70,78.2c23.3,28.1,47,58.7,70.3,90.9c3.4,4.8,13.7,18.9,27.8,37.7c14.1,18.9,32.6,42.5,51.8,66.2
			s39.8,48,58.7,67.6c18.9,19.6,35.7,34.7,48,40.8c16.5,7.9,33.3,14.8,50.4,20.2c19.2,6.2,38.8,11.3,58.3,15.4
			c20.6,4.1,41.5,7.5,62.8,10c21.3,2.4,42.2,3.4,63.5,3.8L2225.9,1292.5L2225.9,1292.5z"/>
		<polygon class="st3" points="937.7,1064.3 937.7,1075 745.9,1073.6 739.4,1269.5 725.6,1269.5 732.5,1063 		"/>
		<polygon class="st4" points="745.9,1073.6 746.9,1096.6 740.4,1292.2 739.4,1269.5 		"/>
		<polygon class="st4" points="739.4,1269.5 740.4,1292.2 726.7,1291.8 725.6,1269.5 		"/>
		<polygon class="st3" points="1145.9,905.1 1145.6,915.8 954.8,914.4 945.9,1270.9 932.2,1270.9 937.7,1075 937.7,1064.3 
			941.4,903.8 		"/>
		<polygon class="st4" points="945.9,1270.9 946.6,1293.5 932.9,1293.2 932.2,1270.9 		"/>
		<polygon class="st4" points="954.8,914.4 955.5,937.4 946.6,1293.5 945.9,1270.9 		"/>
		<polygon class="st4" points="1152.8,1272.3 1153.1,1294.9 1139.4,1294.9 1139,1272.3 		"/>
		<path class="st3" d="M1247.1,629.3c23.7,0.3,67.6,2.7,90.9,6.5c23.3,4.1,46.3,10,69,17.5c23.3,7.9,45.6,17.2,67.6,28.1
			c23,11.7,45.3,24.7,66.6,38.8c25,16.8,48.7,34.7,71.7,54.2c24,20.2,48,42.5,72,67.3c24,24.7,48,51.5,72.4,80.3
			c24,28.8,48.4,60,72.4,93.3c13.4,18.5,29.2,39.5,45.6,60.7c16.5,21.3,33.6,42.5,49.7,62.1c16.1,19.6,31.9,37.4,45.3,50.8
			c13.4,13.4,24.4,23.3,31.6,26.8c14.8,7.2,29.8,13,45.3,18.2c17.5,5.5,35,10,52.8,13.7c18.5,3.8,37.7,6.9,57,8.9
			c19.2,2.1,38.4,3.4,57.6,3.4h9.9l1.4,32.6h-10.6c-21.3-0.3-42.5-1.4-63.5-3.8c-21.3-2.4-42.5-5.8-62.8-10
			c-19.6-4.1-39.1-9.3-58.3-15.4c-17.2-5.5-34-12.4-50.4-20.2c-12.4-6.2-29.2-21.3-48-40.8s-39.1-43.6-58.7-67.6
			c-19.6-24-37.7-47.3-51.8-66.2c-14.1-18.9-24.4-32.9-27.8-37.7c-23.3-32.3-47-62.8-70.3-90.9c-23.3-28.1-46.7-54.2-70-78.2
			s-46.3-45.6-69.6-65.2c-22-18.9-44.9-36-69-52.2c-19.6-13-39.8-25-61.1-35.7c-19.9-10-40.1-18.5-61.1-25.7
			c-19.9-6.9-40.1-12-60.7-15.8c-20.2-3.8-61.1-5.5-81-6.2c-62.4-0.3-102.2,14.1-160.6,39.8c-58.3,25.7-114.2,62.4-168.1,106.7
			c-53.9,44.3-106.4,95.7-156.4,150.3c-50.1,54.6-98.8,112.9-145.1,170.5c-11.3,14.1-23.3,27.8-36,40.8
			c-13,13.4-26.8,25.7-41.5,36.7c-15.4,11.3-32.3,21.3-49.7,28.8c-19.2,8.6-39.5,14.4-60,17.8c-12.4,2.1-25,3.8-38.4,5.5
			s-27.1,3.1-41.5,4.5c-14.4,1.4-29.2,2.4-44.3,3.4c-15.1,1-30.9,1.7-46.7,2.4l-1-32.3c15.4-0.7,30.5-1.4,45.3-2.4
			c14.8-1,28.8-2.1,42.5-3.4c13.7-1.4,27.1-2.7,39.8-4.5c12.7-1.7,25-3.4,37.1-5.1c16.5-2.7,32.3-7.2,47.7-13.7
			c14.4-6.2,28.5-14.4,41.2-23.7c13-9.6,25.4-20.6,37.1-32.3c12-12,23.3-25.4,35-39.8c48-59.4,98.1-119.1,150.3-175.7
			c52.1-56.6,106.4-109.5,163-154.7c56.6-45.3,115.3-83.4,176.7-109.8C1138.7,644.4,1180.2,628.9,1247.1,629.3z"/>
		<polygon class="st3" points="1366.2,722.3 1363.8,909.3 1356.9,909.3 1356.9,919.9 1363.8,919.9 1359.3,1273.6 1345.6,1273.6 
			1352.4,732.6 1162.4,731.5 1152.8,1272.3 1139,1272.3 1145.6,915.8 1145.9,905.1 1149,720.9 		"/>
		<polygon class="st4" points="1363.8,919.9 1363.8,942.9 1359.3,1296.3 1359.3,1273.6 		"/>
		<polygon class="st4" points="1359.3,1273.6 1359.3,1296.3 1345.6,1296.3 1345.6,1273.6 		"/>
		<polygon class="st4" points="1566.2,1275 1565.8,1297.7 1552.1,1297.3 1552.1,1275 		"/>
		<polygon class="st4" points="1759,1276.4 1758.7,1299 1758.7,1074 1759,1051.3 		"/>
		<polygon class="st4" points="1772.7,1276.4 1772.4,1299 1758.7,1299 1759,1276.4 		"/>
		<polygon class="st3" points="1772.7,1040.7 1772.7,1276.4 1759,1276.4 1759,1051.3 1567.6,1049.9 1560,1051.3 1559.7,1037.2 
			1567.6,1039.3 		"/>
		<polygon class="st4" points="464.9,1445.9 466.3,1468.2 466.9,1497.4 465.9,1474.7 		"/>
		<polygon class="st4" points="1778.9,1478.1 1778.6,1500.4 1778.6,1393.1 1778.9,1370.8 		"/>
		<path class="st4" d="M571.2,1512.5l1.4,22.3c-0.3-5.8-1.4-12-3.8-17.5c-2.1-5.1-5.1-10-8.9-13.7c-4.1-4.1-8.9-7.2-14.1-8.9
			c-6.2-2.4-12.7-3.4-19.2-3.4c-6.2,0-12.4,0.7-18.2,2.7c-10.3,3.4-19.6,9.6-26.8,17.8c-3.1,3.8-5.5,7.5-7.5,12l-1.4-22.3
			c2.1-4.5,4.5-8.2,7.5-12c7.2-8.2,16.5-14.4,26.8-17.8c5.8-1.7,12-2.7,18.2-2.7c6.5,0,13,1,19.2,3.4c5.1,2.1,10.3,5.1,14.1,8.9
			s6.9,8.6,8.9,13.7C569.5,1500.4,570.9,1506.6,571.2,1512.5z"/>
		<path class="st4" d="M615.8,1499.4l1,22.3c-0.3,1-1,2.4-1.4,3.4s-0.7,2.7-1,4.1c-0.3,1.4-0.7,2.7-0.7,4.5
			c-0.3,1.4-0.3,3.1-0.3,4.5l-1-22.3c0-1.4,0-3.1,0.3-4.5c0.3-1.4,0.3-3.1,0.7-4.5c0.3-1.4,0.7-2.7,1-4.1
			C614.8,1501.5,615.2,1500.4,615.8,1499.4z"/>
		<path class="st4" d="M472.4,1501.5l1.4,22.3c-0.7,1.4-1,2.4-1.7,3.8c-0.3,1.4-1,2.7-1.4,3.8c-0.3,1.4-0.7,2.7-0.7,4.1
			c0,1.4-0.3,2.7-0.3,4.1l-1.4-22.3c0-1.4,0-2.7,0.3-4.1c0.3-1.4,0.3-2.7,0.7-4.1c0.3-1.4,0.7-2.7,1-3.8
			C471.1,1503.9,471.7,1502.5,472.4,1501.5z"/>
		<path class="st4" d="M714,1518.3l1,22.3c-0.3-6.9-1.4-13.7-3.8-20.2c-2.1-5.5-5.1-11-9.3-15.1c-4.1-4.1-9.3-7.5-14.8-9.6
			c-6.5-2.4-13.4-3.4-20.2-3.4c-5.5,0-11.3,0.7-16.8,2.4c-5.1,1.4-9.9,3.8-14.4,6.5c-4.1,2.7-7.9,5.8-11.3,9.3
			c-3.1,3.4-5.8,7.2-7.5,11.3l-1-22.3c2.1-4.1,4.5-7.9,7.5-11.3c3.4-3.8,7.2-6.9,11.3-9.6c4.5-2.7,9.3-4.8,14.4-6.5
			c12.4-3.4,25-3.1,37.1,1c5.5,2.1,10.6,5.1,14.8,9.6s7.2,9.6,9.3,15.1C712.6,1504.6,713.6,1511.4,714,1518.3z"/>
		<path class="st4" d="M754.8,1513.5l1,22.3c0,0.7,0,1.4,0,2.1v2.1c0,0.7,0,1.4,0,2.1c0,0.7,0,1.4,0,2.1l-1-22.3c0-0.7,0-1.4,0-2.1
			s0-1.4,0-2.1s0-1.4,0-2.1S754.8,1514.2,754.8,1513.5z"/>
		<path class="st4" d="M1208.4,1522.8c0,7.5,0,15.1,0.3,22.3c0-1,0-2.1,0-3.1s0-2.1-0.3-3.1c-0.3-1-0.3-2.1-0.3-3.1
			c-0.3-1-0.3-2.1-0.7-2.7l-0.3-22.3c0.3,1,0.7,1.7,0.7,3.1s0.3,2.1,0.3,3.1s0.3,2.1,0.3,3.1S1208.4,1521.7,1208.4,1522.8z"/>
		<path class="st4" d="M1449.5,1523.8v22.3c0-5.8-0.7-11.3-2.4-16.8c-1.7-6.2-4.8-12-8.9-16.8c-4.8-5.8-10.6-10.3-17.5-13
			c-8.9-3.8-18.5-5.5-28.1-5.5c-9.3-0.3-18.5,1.4-27.4,4.8c-7.2,3.1-13.7,7.2-19.2,13c-4.8,5.1-8.9,10.6-12,17.2
			c-2.7,5.8-4.8,11.7-5.5,17.8v-22.3c2.1-13.4,8.2-25.4,17.5-35.3c5.5-5.5,12-10,19.2-13c17.8-6.9,37.7-6.5,55.6,0.3
			c6.9,2.7,12.7,7.2,17.5,13c4.1,5.1,7.2,10.6,8.9,16.8C1448.5,1512.1,1449.5,1517.9,1449.5,1523.8z"/>
		<path class="st4" d="M1778.9,1528.2l-0.7,22.3c0-1,0-2.1,0-3.4c0-1,0-2.4-0.3-3.4c-0.3-1-0.3-2.4-0.7-3.4c-0.3-1-0.7-2.4-1-3.4
			l0.7-22.3c0.3,1,0.7,2.4,1,3.4c0.3,1,0.3,2.4,0.7,3.4s0.3,2.4,0.3,3.4S1778.9,1527.2,1778.9,1528.2z"/>
		<path class="st4" d="M1915.1,1552.6c0.3-7.5,0.3-15.1,0.7-22.3c0-1,0-2.4,0.3-3.4c0-1,0.3-2.1,0.7-3.1c0.3-1,0.3-2.1,0.7-3.1
			c0.3-1,0.3-1.7,0.7-2.7l-0.7,22.3c-0.3,0.7-0.3,1.7-0.7,2.7c-0.3,1-0.3,2.1-0.7,3.1c-0.3,1-0.3,2.1-0.7,3.1
			C1915.1,1550.2,1915.1,1551.2,1915.1,1552.6z"/>
		<path class="st4" d="M971.6,1535.4l0.7,22.3c-0.3-7.9-1.7-15.4-4.1-23c-2.7-7.9-6.5-15.1-12-21.3c-5.5-6.9-12.7-12-20.6-15.8
			c-9.6-4.1-19.9-6.5-30.2-6.2c-11-0.3-21.6,1.7-31.9,5.8c-8.6,3.4-16.1,8.9-22.3,15.8c-5.8,6.5-10.3,14.1-13.4,22.3
			c-2.7,8.2-4.5,16.8-4.8,25.4v1.4c0,0.3,0,0.7,0,1.4s0,0.7,0,1.4c0,0.7,0,0.7,0,1.4l-0.7-22.3c0-0.3,0-0.7,0-1.4v-3.8
			c0.3-8.6,1.7-17.2,4.8-25.4s7.5-15.8,13.4-22.3c6.2-6.9,13.7-12.4,22.3-15.8c10.3-4.1,20.9-6.2,31.9-5.8c10.3,0,20.6,2.1,30.2,6.2
			c7.9,3.8,15.1,8.9,20.6,15.8c5.1,6.2,9.3,13.4,12,21.3C970.2,1519.7,971.6,1527.6,971.6,1535.4z"/>
		<path class="st4" d="M1077.6,1567l-0.3-22.3v-3.4c0-9.6,2.1-18.9,5.1-27.8c3.1-8.2,7.9-15.8,13.7-22c6.2-6.2,13.7-11.3,22-14.4
			c9.3-3.4,19.2-5.1,28.8-5.1c7.2,0,14.8,1,21.6,3.1c6.2,1.7,12.4,4.5,17.5,8.2c4.8,3.4,9.3,7.5,13,12c3.4,4.5,5.8,9.6,7.2,14.8
			l0.3,22.3c-1.4-5.5-4.1-10.3-7.2-14.8c-3.4-4.8-7.9-8.9-13-12c-5.5-3.8-11.3-6.5-17.5-8.2c-16.5-4.8-34.3-4.1-50.4,2.1
			c-8.2,3.1-15.8,8.2-22,14.4c-5.8,6.2-10.6,13.7-13.7,22c-3.4,8.9-5.1,18.2-5.1,27.8L1077.6,1567L1077.6,1567z"/>
		<path class="st4" d="M1647.8,1566.3l0.3-22.3c0-9.3,1.7-18.5,5.1-27.4c3.1-8.2,7.9-15.4,13.7-21.6c6.2-6.2,13.4-11,21.6-14.1
			c16.1-5.8,33.6-6.5,50.1-1.7c6.2,1.7,12.4,4.8,17.8,8.2c5.1,3.4,9.3,7.5,13,12c3.4,4.5,5.8,9.6,7.5,14.8l-0.7,22.3
			c-1.7-5.5-4.1-10.3-7.5-14.8c-3.8-4.8-7.9-8.9-13-12c-5.5-3.8-11.3-6.5-17.8-8.2c-7.2-2.1-14.4-3.1-21.6-3.1
			c-9.6-0.3-19.6,1.4-28.5,5.1c-8.2,3.1-15.4,7.9-21.6,14.1c-5.8,6.2-10.6,13.4-13.7,21.6
			C1649.6,1547.5,1647.8,1557.1,1647.8,1566.3z"/>
		<polygon class="st4" points="1488,1548.8 1488,1571.5 1327.1,1570.1 1327.1,1547.8 		"/>
		<path class="st4" d="M1489.7,1533.7v22.3c0,1.7,0,3.4-0.3,4.8c-0.3,1.4-0.3,2.7-0.3,4.1s-0.3,2.4-0.3,3.4s-0.3,2.1-0.3,2.7v-22.3
			c0-0.7,0.3-1.7,0.3-2.7s0.3-2.1,0.3-3.4s0.3-2.7,0.3-4.1S1489.7,1535.4,1489.7,1533.7z"/>
		<path class="st4" d="M2049.9,1550.5c-0.3,7.5-0.7,15.1-1,22.3c0-0.3,0-0.7,0-1.4c0-0.7,0-0.7,0-1.4v-2.1c0-8.9-1.7-17.5-4.5-25.7
			c-2.7-7.9-7.5-15.4-13-21.6c-6.2-6.5-13.4-11.3-21.3-14.8c-15.8-6.2-33.6-7.2-50.1-3.1c-6.5,1.7-12.7,4.5-18.5,7.9
			c-5.5,3.4-10.6,7.5-14.8,12.7s-7.2,10.6-9.6,16.8l0.7-22.3c2.1-6.2,5.1-11.7,9.6-16.8c4.1-4.8,9.3-9.3,14.8-12.7
			c5.8-3.4,12-6.2,18.5-7.9c16.5-4.5,34.3-3.4,50.1,3.1c8.2,3.4,15.4,8.2,21.3,14.8c5.8,6.2,10.3,13.4,13,21.6
			c3.1,8.2,4.5,17.2,4.5,25.7v2.4c0,0.3,0,0.7,0,1.4S2049.9,1550.2,2049.9,1550.5z"/>
		<polygon class="st4" points="1778.9,1559.5 1778.6,1581.8 1778.6,1550.5 1778.9,1528.2 		"/>
		<path class="st4" d="M1778.9,1561.5l-0.7,22.3v-0.3v-1.7l0.7-22.3V1561.5L1778.9,1561.5z"/>
		<polygon class="st4" points="1252.3,1367 1252.3,1389.6 1249.2,1607.5 1249.2,1585.2 		"/>
		<polygon class="st4" points="1875,1589.3 1874.3,1612 1873.6,1393.7 1874.3,1371.4 		"/>
		<polygon class="st4" points="1211.4,1600.3 1211.8,1622.6 1210.8,1622.6 1210.4,1600.3 		"/>
		<path class="st4" d="M1249.2,1624.7l-0.3-22.3c0-1.4,0-3.1,0-4.5v-4.5c0-1.4,0-3.1,0-4.5s0-2.7,0-4.1v22.3c0,1.4,0,2.7,0,4.1
			c0,1.4,0,2.7,0,4.5v4.5C1249.2,1621.9,1249.2,1623.3,1249.2,1624.7z"/>
		<polygon class="st4" points="1783.4,1604.1 1782.7,1626.4 1781.6,1626.4 1782.3,1604.1 		"/>
		<polygon class="st4" points="1912.4,1606.5 1911.7,1628.8 1910.3,1628.8 1911,1606.5 		"/>
		<path class="st4" d="M1874.6,1608.9l-0.7,22.3c0-1.7,0-3.4,0-4.8s0-3.4,0-4.8s0-3.4,0-4.8s0-3.1,0-4.8l0.7-22.3v4.8
			c0,1.7,0,3.1,0,4.8v4.8C1874.6,1605.8,1874.6,1607.2,1874.6,1608.9z"/>
		<polygon class="st4" points="468.3,1517.3 469.7,1539.9 465.9,1649 464.5,1626.7 		"/>
		<polygon class="st4" points="464.5,1626.7 465.9,1649 425.1,1648.7 423.7,1626.4 		"/>
		<polygon class="st4" points="608.3,1627.7 609.7,1650 568.8,1649.7 567.5,1627.4 		"/>
		<polygon class="st4" points="612.1,1515.9 613.1,1538.2 609.7,1650 608.3,1627.7 		"/>
		<polygon class="st4" points="754.8,1522.1 755.8,1544.4 752.7,1651.1 751.7,1628.8 		"/>
		<path class="st3" d="M681.7,1443.1c8.2,0,16.5,1,24.4,3.4c8.6,2.4,16.8,6.9,24,12.4c7.9,6.5,14.1,14.8,18.2,24
			c4.8,12.4,7.2,25.4,6.5,38.8l-3.1,106.7l-40.8-0.3l3.1-102.6c0.3-7.9-0.3-15.8-2.4-23.3c-1.7-6.5-4.5-12.4-8.6-17.5
			c-4.1-4.8-9.3-8.6-15.1-11c-6.9-2.7-14.4-4.1-22-3.8c-5.8,0-11.3,0.7-16.8,2.4c-5.1,1.4-9.9,3.8-14.4,6.5
			c-4.1,2.7-7.9,5.8-11.3,9.6c-3.1,3.4-5.8,7.2-7.5,11.3c-0.3,1-1,2.4-1.4,3.4c-0.3,1-0.7,2.7-1,4.1c-0.3,1.4-0.7,2.7-0.7,4.5
			c-0.3,1.4-0.3,3.1-0.3,4.5l-3.4,111.9l-40.8-0.3l3.4-108.8c0.3-6.9-0.3-13.4-2.4-19.9c-1.7-5.8-4.5-11.3-8.6-15.8
			c-4.1-4.5-8.9-7.9-14.4-10.3c-6.5-2.7-13.4-3.8-20.6-3.8c-12,0-23.7,3.4-33.6,10.3c-4.5,2.7-8.2,6.5-11.7,10.3
			c-3.1,3.8-5.5,7.5-7.5,12c-0.7,1.4-1.4,2.4-1.7,3.8s-0.7,2.7-1,3.8c-0.3,1.4-0.7,2.7-0.7,4.1s-0.3,2.7-0.3,4.1l-3.8,109.5
			l-40.8-0.3l4.8-132.1c0-4.8,0.3-9.3,0.3-13.4s0-8.6,0-12.4s0-7.9,0-11.7s-0.3-7.5-0.3-11.3l36.4,0.3l0.7,29.2h1.4
			c3.4-4.5,7.5-8.6,11.7-12.4c4.8-4.1,9.9-7.5,15.8-10.3c6.5-3.1,13-5.8,20.2-7.2c8.2-1.7,16.8-2.7,25.4-2.7c7.2,0,14.8,1,21.6,2.7
			c6.5,1.7,12.4,4.1,18.2,7.5c5.1,3.1,9.9,6.9,14.1,11.7c3.8,4.5,7.2,9.3,9.6,14.8h1c1.7-2.4,3.8-4.8,5.8-7.2
			c2.1-2.1,4.1-4.1,6.5-6.2c2.4-2.1,4.5-3.8,6.9-5.5c2.4-1.7,4.8-3.1,7.2-4.5c3.4-2.1,7.2-3.8,10.6-5.5c3.8-1.7,7.9-2.7,11.7-3.8
			c4.5-1,8.9-2.1,13.4-2.4C671.8,1443.1,676.9,1443.1,681.7,1443.1z"/>
		<polygon class="st4" points="751.7,1628.8 752.7,1651.1 711.9,1650.7 710.9,1628.4 		"/>
		<path class="st4" d="M1014.5,1533.7c0.3,7.5,0.3,15.1,0.7,22.3c0,0.3,0,0.7,0,1v2.4c0,0.3,0,0.7,0,1c0,15.1-3.8,29.9-11,43.2
			c-6.5,12-15.8,22-26.8,29.9c-11.3,7.9-23.7,13.7-37.1,17.2c-13.4,3.8-27.4,5.5-41.5,5.5c-14.1,0-28.1-2.1-41.5-6.5
			c-12.4-3.8-23.7-9.6-33.6-17.5c-9.6-7.5-17.2-16.8-22.6-27.4c-5.8-11.3-8.9-23.7-9.3-36l-1-22.3c0.3,12.7,3.4,25,9.3,36
			c5.5,10.6,13.4,19.9,23,27.4c9.9,7.9,21.6,13.7,33.6,17.5c13.4,4.1,27.4,6.2,41.9,6.2c14.1,0,28.1-1.7,41.5-5.5
			c13.4-3.4,25.7-9.3,37.1-17.2c11-7.9,20.2-17.8,27.1-29.9c7.2-13.4,11-28.1,11-43.2v-3.4
			C1014.5,1534.4,1014.5,1534.1,1014.5,1533.7z"/>
		<polygon class="st4" points="1212.8,1631.9 1213.2,1654.2 1211.8,1622.6 1211.4,1600.3 		"/>
		<polygon class="st4" points="1250.2,1631.9 1250.6,1654.2 1213.2,1653.8 1212.8,1631.5 		"/>
		<path class="st4" d="M1035.8,1569.1l-0.3-22.3c0.3,12.4,2.7,24.7,7.9,36c4.8,10.6,11.7,20.2,20.6,27.8
			c8.9,7.9,19.2,14.1,30.2,18.2c12,4.5,25,6.5,37.7,6.5c8.9,0,17.8-0.7,26.4-2.4c7.5-1.7,15.1-4.1,22.3-7.2
			c6.5-3.1,12.4-6.9,17.8-11.3c4.8-4.1,9.3-8.9,12.7-14.1l0.3,22.3c-3.4,5.1-7.5,10-12.7,14.1c-5.5,4.5-11.3,8.2-17.8,11.3
			c-7.2,3.4-14.8,5.8-22.3,7.2c-8.6,1.7-17.5,2.7-26.4,2.7c-12.7,0-25.7-2.4-37.7-6.5c-11.3-4.1-21.6-10.3-30.2-18.2
			c-8.6-7.9-15.4-17.2-20.2-27.8C1038.5,1593.8,1036.1,1581.4,1035.8,1569.1z"/>
		<path class="st3" d="M1249.2,1585.2c0,4.1,0,8.2,0,12.4s0,8.2,0,12.4c0,4.1,0.3,8.2,0.3,11.7s0.3,7.2,0.7,10.3l-37.7-0.3
			l-1.4-31.6h-1c-3.4,5.1-7.9,10-12.7,14.1c-5.5,4.5-11.3,8.2-17.8,11.3c-7.2,3.4-14.8,5.8-22.3,7.2c-8.6,1.7-17.5,2.7-26.4,2.4
			c-13,0-26.4-2.4-38.8-6.9c-11.3-4.1-22-10.6-30.9-18.9c-8.6-8.2-15.4-18.2-20.2-29.2c-4.8-12-7.2-24.7-6.9-37.7
			c0-14.1,3.1-27.8,8.9-40.5c5.5-11.7,13.4-22,23-30.5c9.6-8.2,20.9-14.8,32.9-18.9c12.7-4.5,26.1-6.5,39.8-6.5
			c8.2,0,16.1,0.7,24,2.4c6.9,1.4,13.4,3.4,19.9,6.2c5.1,2.4,10.3,5.5,15.1,8.9c3.8,3.1,7.2,6.5,9.9,10.6h1l1.7-107.4l41.5,0.3
			L1249.2,1585.2z M1208,1555.7l0.3-31.2c0-1,0-2.1,0-3.4s0-2.4-0.3-3.4c0-1.4-0.3-2.4-0.3-3.4c-0.3-1-0.3-2.4-0.7-3.4
			c-1.4-5.5-4.1-10.3-7.2-14.8c-3.4-4.8-7.9-8.9-13-12c-5.5-3.8-11.3-6.5-17.5-8.2c-6.9-2.1-14.4-3.1-21.6-3.1
			c-9.9-0.3-19.6,1.4-28.8,5.1c-8.2,3.1-15.8,8.2-22,14.4c-6.2,6.2-11,13.7-13.7,22c-3.4,8.9-5.1,18.2-5.1,27.8
			c-0.3,8.9,1,17.5,3.8,26.1c2.7,7.9,6.9,15.1,12.4,21.3c5.8,6.5,13,11.3,20.9,14.4c15.8,6.2,33.3,7.2,49.7,3.1
			c6.5-1.7,12.4-4.1,18.2-7.5c5.5-3.4,10.3-7.5,14.4-12.4s7.2-10.6,8.9-16.5c0.3-1,0.7-2.1,1-3.4s0.3-2.4,0.7-3.4s0.3-2.4,0.3-3.4
			S1208,1557.1,1208,1555.7"/>
		<polygon class="st4" points="1525.4,1633.9 1525,1656.2 1527.1,1391.3 1527.1,1369 		"/>
		<polygon class="st4" points="1567.2,1634.3 1566.9,1656.6 1525,1656.2 1525.4,1633.9 		"/>
		<polygon class="st3" points="1568.6,1369.4 1567.2,1634.3 1525.4,1633.9 1527.1,1369 		"/>
		<path class="st4" d="M1287.3,1569.1v-22.3c0,12.7,2.7,25,7.9,36.7c5.1,11,12.7,20.6,22,28.5c10.3,8.2,22.3,14.8,35,18.5
			c15.1,4.5,30.9,6.9,47,6.9c9.3,0,17.5-0.3,25.4-0.7c7.9-0.3,14.8-1.4,21.3-2.4c6.5-1,12-2.1,17.2-3.4c5.1-1.4,9.3-2.7,13-3.8v22.3
			c-3.8,1.4-7.9,2.7-13,3.8c-5.1,1-10.6,2.4-17.2,3.4s-13.4,1.7-21.3,2.4c-7.9,0.7-16.1,1-25.4,0.7c-15.8,0-31.6-2.4-46.7-6.9
			c-12.7-3.8-24.7-10-35.3-18.5c-9.3-7.5-16.8-17.5-22-28.5C1290,1594.1,1287.3,1581.8,1287.3,1569.1z"/>
		<polygon class="st4" points="1785.1,1635.6 1784.7,1657.9 1782.7,1626.4 1783.4,1604.1 		"/>
		<polygon class="st4" points="1822.8,1636 1822.1,1658.3 1784.7,1657.9 1785.1,1635.6 		"/>
		<polygon class="st4" points="1911,1606.5 1910.3,1628.8 1908.6,1659 1909.3,1636.7 		"/>
		<polygon class="st4" points="1909.3,1636.7 1908.6,1659 1872.6,1658.6 1873.3,1636.3 		"/>
		<path class="st4" d="M1605.6,1566.7l0.3-22.3v2.1c-0.3,13,2.4,25.7,7.2,37.7c4.8,11,11.7,20.9,20.6,29.2
			c8.9,8.2,19.6,14.8,31.2,18.9c12.4,4.5,25.7,6.9,38.8,6.9c8.9,0,17.5-0.7,26.4-2.4c7.5-1.7,15.1-4.1,22.3-7.2
			c6.2-3.1,12.4-6.9,17.5-11.3c4.8-4.1,8.9-8.9,12.4-14.1l-0.7,22.3c-3.4,5.1-7.5,10-12.4,14.1c-5.5,4.5-11.3,8.2-17.5,11.3
			c-7.2,3.4-14.4,5.8-22.3,7.2c-8.6,1.7-17.5,2.7-26.1,2.7c-13.4,0-26.4-2.4-38.8-6.9c-11.7-4.1-22-10.6-31.2-18.9
			c-8.9-8.2-15.8-18.2-20.6-29.2c-5.1-12-7.5-24.7-7.2-37.7v-0.3V1566.7L1605.6,1566.7z"/>
		<path class="st4" d="M2091.8,1551.2l-1,22.3c-0.7,13.7-4.1,27.1-10.3,39.5c-5.8,11-13.7,20.6-23.3,28.1
			c-9.6,7.5-20.6,13-31.9,16.8c-11.7,3.8-24,5.5-36.4,5.5c-7.9,0-15.8-0.7-23.7-2.1c-7.2-1.4-14.1-3.4-20.9-6.2
			c-13-5.5-24.4-14.8-32.6-26.4l0.7-22.3c8.2,11.7,19.6,20.6,32.6,26.4c6.9,2.7,13.7,4.8,20.9,6.2c7.9,1.4,15.8,2.1,23.7,2.1
			c12.4,0,24.7-1.7,36.4-5.5c11.7-3.4,22.6-9.3,32.3-16.8c9.6-7.5,17.5-17.2,23.3-28.1C2087.7,1578.7,2091.1,1565.3,2091.8,1551.2z"
			/>
		<path class="st3" d="M1994.7,1452.1c13.4,0,26.8,2.4,39.1,6.9c11.3,4.1,22,10.6,30.9,18.9c8.6,8.2,15.4,18.2,20.2,29.2
			c4.8,12,7.2,24.7,7.2,37.7c0.3,14.8-2.7,29.2-8.6,42.5c-5.5,11.7-13.4,22-23.3,30.2c-9.6,7.9-20.9,14.1-32.9,17.8
			c-12.4,4.1-25,5.8-37.7,5.8c-7.9,0-15.8-0.7-23.7-2.1c-7.2-1.4-14.1-3.4-20.9-6.2c-13-5.5-24.4-14.8-32.6-26.4h-1.4l-1.7,30.2
			l-36-0.3c0.3-3.1,0.3-6.5,0.7-10.3c0.3-3.8,0.3-7.5,0.7-11.7c0.3-4.1,0.3-8.2,0.3-12.4s0-8.2,0-12.4l-0.7-218.2l41.2,0.3
			l0.3,112.9h1c3.8-5.1,8.2-9.6,13-13.7c5.5-4.1,11.3-7.5,17.5-10.3c6.9-3.1,14.1-5.1,21.6-6.5
			C1977.6,1452.4,1986.1,1451.7,1994.7,1452.1z M1981,1615c9.9,0.3,19.9-1.4,29.2-4.8c8.2-3.1,15.8-7.9,22-14.1
			c6.2-6.2,10.6-13.7,13.7-22c3.1-9.3,4.8-18.9,4.5-28.5c0-8.9-1.7-17.5-4.5-25.7c-3.1-7.9-7.5-15.1-13-21.6
			c-6.2-6.5-13.4-11.3-21.3-14.8c-16.1-6.2-33.6-7.2-50.1-3.1c-6.5,1.7-12.7,4.5-18.5,7.9c-5.5,3.4-10.6,7.5-14.8,12.7
			c-4.1,4.8-7.2,10.6-9.6,16.8l-0.7,3.1c-0.3,1-0.7,2.1-0.7,3.1s-0.3,2.4-0.7,3.4c0,1.4-0.3,2.4-0.3,3.8v32.6c0,1,0,2.1,0,3.1
			s0.3,2.1,0.3,3.1s0.3,2.1,0.7,3.1c0.3,1,0.3,2.1,0.7,2.7c2.1,5.8,5.1,11,8.9,15.8c4.1,4.8,8.9,8.9,14.1,12.4
			c5.8,3.4,11.7,6.2,18.2,8.2C1966.2,1613.7,1973.4,1614.7,1981,1615"/>
		<polygon class="st3" points="1568.2,910.6 1567.6,1039.3 1560.7,1039.3 1560.7,1049.9 1567.6,1049.9 1566.2,1275 1552.1,1275 
			1554.5,921.3 1363.8,919.9 1356.9,919.9 1356.9,909.3 1363.8,909.3 		"/>
		<path class="st3" d="M906.1,1444.5c15.1,0,30.2,2.4,44.6,6.9c12.7,4.1,24.4,10.6,34.3,19.2c9.3,7.9,16.8,18.2,22,29.5
			c5.1,12,7.5,25,7.2,37.7c0,15.1-3.8,29.9-11,43.2c-6.5,12-15.8,22-27.1,29.9c-11.3,7.9-23.7,13.7-37.1,17.2
			c-13.4,3.8-27.4,5.5-41.5,5.5c-14.8,0-29.2-2.4-43.2-6.9c-12.7-4.1-24-10.6-34.3-18.9c-9.6-7.9-17.2-18.2-22.6-29.5
			c-5.5-12.4-7.9-25.4-7.5-38.8c0.3-14.1,3.8-27.8,9.9-40.1c6.2-11.7,14.4-22,25-29.9c11-8.2,23.3-14.8,36.4-18.5
			C876.2,1446.6,891,1444.5,906.1,1444.5z M900.3,1609.2c9.6,0,18.9-1.7,27.8-5.1c17.2-6.5,30.5-19.9,37.7-36.7
			c3.8-8.9,5.8-18.5,5.8-28.1c0-8.2-1-16.1-3.4-24c-2.4-8.2-6.5-15.8-11.7-22.6c-5.5-7.2-12.7-13-20.9-16.8
			c-9.9-4.5-20.6-6.9-31.2-6.9c-11-0.3-21.6,1.7-31.9,5.8c-8.6,3.4-16.1,8.9-22.3,15.8c-5.8,6.5-10.3,14.1-13.4,22.3
			c-3.1,8.2-4.5,16.8-4.8,25.4c-0.3,9.3,1.4,18.9,4.5,27.8c6.2,16.8,18.9,30.2,35.7,37.1C881.4,1607.2,891,1609.2,900.3,1609.2"/>
		<path class="st3" d="M1489.7,1533.7c0,1.7,0,3.4-0.3,4.8c-0.3,1.4-0.3,2.7-0.3,4.1s-0.3,2.4-0.3,3.4s-0.3,2.1-0.3,2.7l-161.3-1
			c0,10,2.1,19.9,6.5,28.8c4.1,7.9,9.9,14.8,17.2,19.6c7.5,5.1,15.8,8.9,24.7,11.3c9.6,2.4,19.9,3.8,29.8,3.8c7.5,0,14.1,0,20.2-0.7
			s11.7-1,16.8-1.7c5.1-0.7,9.9-1.7,14.1-2.7c4.1-1,8.6-2.4,12.4-3.4l6.9,23.7c-3.8,1.4-7.9,2.7-13,3.8c-5.1,1-10.6,2.4-17.2,3.4
			c-6.5,1-13.4,2.1-21.3,2.4c-7.9,0.3-16.1,1-25.4,0.7c-16.1,0-31.9-2.1-47.3-6.9c-13-3.8-25-10.3-35.3-18.9
			c-9.3-7.9-16.8-17.8-22-29.2c-5.1-11.7-7.5-24.7-7.2-37.4c0-13,2.7-26.1,7.9-38.4c5.1-11.7,12.4-22.3,21.6-30.9
			c9.9-8.9,21.3-16.1,34-20.6c14.4-5.1,29.5-7.5,44.9-7.2c15.8-0.3,31.6,2.7,46.3,8.9c11.3,4.8,20.9,12.4,28.8,21.6
			c6.9,8.2,11.7,17.5,14.8,27.8C1488.3,1514.9,1489.7,1524.5,1489.7,1533.7z M1449.2,1525.2c0.3-5.8-0.3-11.7-2.1-17.2
			c-1.7-6.2-4.8-12.4-8.6-17.5c-4.8-5.8-10.6-10.6-17.5-13.7c-17.8-7.2-38.1-7.5-56.3-0.7c-7.2,3.1-13.7,7.2-19.2,13
			c-9.3,9.6-15.8,22-17.8,35L1449.2,1525.2"/>
		<path class="st3" d="M1820.8,1589c0,4.1,0,8.2,0,12.4s0,8.2,0.3,12.4s0.3,7.9,0.7,11.7c0.3,3.8,0.7,7.2,1,10.3l-37.4-0.3
			l-2.1-31.6h-1c-3.4,5.1-7.5,10-12.4,14.1c-5.5,4.5-11.3,8.2-17.5,11.3c-7.2,3.4-14.4,5.8-22.3,7.2c-8.6,1.7-17.5,2.7-26.4,2.4
			c-13.4,0-26.4-2.4-38.8-6.9c-11.7-4.1-22-10.6-31.2-18.9c-8.9-8.2-15.8-18.2-20.6-29.2c-5.1-12-7.5-24.7-7.2-37.7
			c-0.3-14.1,2.7-27.8,8.2-40.5c5.1-11.7,12.7-22,22.3-30.5c9.6-8.2,20.6-14.8,32.9-18.9c12.7-4.5,26.1-6.5,39.8-6.5
			c8.2,0,16.1,0.7,24,2.4c6.9,1.4,13.4,3.4,19.6,6.2c5.5,2.4,10.3,5.5,15.1,8.9c3.8,3.1,7.5,6.5,10.3,10.6h1v-107.4l41.5,0.3V1589z
			 M1778.9,1559.5v-31.6c0-1,0-2.1,0-3.4s0-2.4-0.3-3.4s-0.3-2.4-0.7-3.4c-0.3-1-0.7-2.4-1-3.4c-1.7-5.5-4.1-10.3-7.5-14.8
			c-3.8-4.8-8.2-8.9-13-12c-5.5-3.8-11.3-6.5-17.8-8.2c-16.5-4.8-34.3-4.1-50.4,2.1c-8.2,3.1-15.4,8.2-21.6,14.4
			c-5.8,6.2-10.6,13.7-13.7,22c-3.1,8.9-4.8,18.2-4.8,27.8c0,8.9,1.4,17.5,4.1,26.1c2.7,7.9,7.2,15.1,12.7,21.3
			c5.8,6.5,13,11.3,21.3,14.8c9.6,3.8,19.6,5.5,29.5,5.5c6.9,0,13.7-0.7,20.2-2.4c6.2-1.7,12.4-4.1,17.8-7.5s10.3-7.5,14.1-12.4
			c4.1-4.8,6.9-10.6,8.9-16.5c0.3-1,0.7-2.1,1-3.4c0.3-1.4,0.3-2.4,0.7-3.4s0.3-2.4,0.3-3.4S1778.9,1560.8,1778.9,1559.5"/>
	</g>
	<path class="st4" d="M2420.5,669.8l-953.1-550.4L1260.5,0l-206.9,119.4L100.5,669.8L0,727.7v1455.5l100.5,58l965.1,557.2
		l195.2,112.5l195.2-112.5l965.1-557.2l99.8-57.6V727.7L2420.5,669.8z M2420.5,2129l-1160,669.8L100.5,2129V789.2l1160-669.8
		l1160,669.8V2129z"/>
</g>
</svg>
