<svg xmlns="http://www.w3.org/2000/svg" xmlns:xlink="http://www.w3.org/1999/xlink" viewBox="0 0 735 852"><defs><style>.cls-1{fill:none;}.cls-2{fill:#44515c;}.cls-3{isolation:isolate;}.cls-4{opacity:0.94;}.cls-5{opacity:0.25;mix-blend-mode:multiply;}.cls-6{clip-path:url(#clip-path);}.cls-7{clip-path:url(#clip-path-2);}.cls-8{clip-path:url(#clip-path-3);}.cls-9{opacity:0.95;}.cls-10{clip-path:url(#clip-path-4);}.cls-11,.cls-18{fill:#fff;}.cls-12{clip-path:url(#clip-path-5);}.cls-13{fill:#005198;}.cls-14{fill:#e6b35a;}.cls-15{opacity:0.2;}.cls-16{fill:#003e6d;}.cls-17{fill:#045d84;}.cls-18{font-size:25px;font-family:MyriadPro-Regular, Myriad Pro;}.cls-19{letter-spacing:0.01em;}.cls-20{letter-spacing:-0.04em;}.cls-21{letter-spacing:-0.02em;}.cls-22{letter-spacing:-0.01em;}.cls-23{letter-spacing:0em;}</style><clipPath id="clip-path"><path class="cls-1" d="M4625.67,3518.55l-338.12,195.22-338.12-195.22V3128.12l338.12-195.22h0l338.12,195.22Z"/></clipPath><clipPath id="clip-path-2"><polygon class="cls-1" points="4131.48 3302.32 4439.14 3302.32 11018.06 7483.59 -2447.44 7483.59 4131.48 3302.32"/></clipPath><clipPath id="clip-path-3"><path class="cls-1" d="M4624.17,3517.05l-338.12,195.22-338.12-195.22V3126.62l338.12-195.22h0l338.12,195.22Z"/></clipPath><clipPath id="clip-path-4"><polygon class="cls-1" points="4129.98 3300.82 4437.64 3300.82 11016.56 7482.09 -2448.94 7482.09 4129.98 3300.82"/></clipPath><clipPath id="clip-path-5"><polygon class="cls-2" points="369.51 7.4 728.21 214.47 728.21 636.62 369.51 845.03 2.79 636.62 2.79 214.47 369.51 7.4"/></clipPath></defs><title>modeldb</title><g class="cls-3"><g id="Layer_1" data-name="Layer 1"><g class="cls-4"><g class="cls-5"><g class="cls-6"><g class="cls-7"><polyline points="22655.94 19936.02 22655.94 19936.02 -10112.06 -12831.98 -10112.06 -12831.98 22655.94 19936.02"/><polyline points="342.82 698.89 2821.93 698.89 2983.12 974.87 777.07 974.87 342.82 698.89"/><polyline points="-10112.06 19936.02 -10112.06 19936.02 22655.94 -12831.98 22655.94 -12831.98 -10112.06 19936.02"/></g></g></g><g class="cls-8"><g class="cls-9"><g class="cls-3"><g class="cls-10"><polyline class="cls-11" points="22654.44 19934.52 22654.44 19934.52 -10113.56 -12833.48 -10113.56 -12833.48 22654.44 19934.52"/><polyline class="cls-11" points="341.32 697.39 2820.43 697.39 2981.62 973.37 775.57 973.37 341.32 697.39"/><polyline class="cls-11" points="-10113.56 19934.52 -10113.56 19934.52 22654.44 -12833.48 22654.44 -12833.48 -10113.56 19934.52"/></g></g></g></g></g><polygon class="cls-2" points="369.51 7.4 728.21 214.47 728.21 636.62 369.51 845.03 2.79 636.62 2.79 214.47 369.51 7.4"/><g class="cls-12"><circle class="cls-13" cx="365.5" cy="437.45" r="442.13" transform="translate(-202.27 386.57) rotate(-45)"/><path class="cls-13" d="M683.21,107.07c0,129.59-141.14,234.64-315.24,234.64S52.72,236.66,52.72,107.07,193.86-127.56,368-127.56,683.21-22.51,683.21,107.07Z"/></g><path class="cls-14" d="M367,633.9c.29-.29.61-.59.94-.89h-.26C367.49,633.31,367.26,633.61,367,633.9Z"/><path class="cls-2" d="M705.61,196.21,427.81,35.82,367.5,1,307.19,35.82,29.37,196.22.09,213.13V637.38l29.28,16.91L310.65,816.68l56.85,32.83,56.85-32.83L705.61,654.3l29.3-16.92V213.13Zm0,425.26L367.49,816.68,29.37,621.47V231L367.49,35.82h0L705.61,231Z"/><g id="xwNXnP.tif" class="cls-15"><g class="cls-3"><path class="cls-11" d="M372.17,160.18c-1.16,0-2.31,0-3.47,0s-2.32,0-3.47.09-2.32.09-3.47.15-2.32.14-3.47.23c-8.93.67-17.84,1.35-26.74,2.11s-17.74,1.61-26.57,2.6-17.58,2.12-26.31,3.48-17.36,2.91-25.93,4.75q-19.26,4.14-37.84,9.61-18.4,5.46-36,12.36-17.38,6.85-33.75,15.26A328.5,328.5,0,0,0,114,229.09a253.45,253.45,0,0,0-21.2,15.68A211,211,0,0,0,74,262.29a185.84,185.84,0,0,0-16.14,19.45,175.75,175.75,0,0,0-13.21,21.4,120.48,120.48,0,0,0-6.78,15.47,106.25,106.25,0,0,0-6.19,34.47A117.59,117.59,0,0,0,33,372.19a132.2,132.2,0,0,0,5.08,21.6A139.72,139.72,0,0,0,46.52,414,155.63,155.63,0,0,0,58,432.92a178.51,178.51,0,0,0,14.3,17.65,229.22,229.22,0,0,0,40.4,34.91c6.68,4.55,13.41,8.65,20.15,12.43s13.33,7.16,20,10.39q15.1,7.35,29.75,13.05,14.46,5.67,28.61,10c9.35,2.89,18.63,5.39,27.86,7.58s18.28,4,27.38,5.66c5.05.9,10.09,1.76,15.11,2.54s10,1.5,15,2.14,9.92,1.2,14.86,1.67,9.88.84,14.82,1.11c3.51.19,7,.43,10.53.68l10.5.78c3.5.25,7,.47,10.48.63s7,.26,10.44.26c.84,0,1.68,0,2.53,0l2.53,0,2.53-.1,2.53-.15c5-.32,9.91-.6,14.87-.87s10-.53,14.93-.83,10-.65,15-1.07,10-.94,15.1-1.59q12.06-1.53,24.19-3.53c8.12-1.35,16.27-2.87,24.46-4.62s16.53-3.76,24.89-6,16.94-4.84,25.54-7.73c7.86-2.64,15.77-5.5,23.69-8.68s16.08-6.74,24.18-10.69S601.59,500,609.92,495s17-10.77,25.7-17.17Q641.94,473.2,648,468c4.06-3.51,8-7.21,11.9-11.13s7.72-8.17,11.4-12.6S678.62,435,682.1,430c.21-.3.4-.59.6-.87s.4-.55.61-.79a5.34,5.34,0,0,1,.7-.65,3.55,3.55,0,0,1,.87-.44l4.11-8.76,4.22-9,4.33-9.24,4.45-9.49c.23-2.77.61-5.63,1-8.53s.93-5.91,1.39-8.9.88-6,1.16-9a70.82,70.82,0,0,0,.32-8.93q-.25-7.41-1.18-14.42a124.22,124.22,0,0,0-2.57-13.77,108.79,108.79,0,0,0-4.06-13A97.53,97.53,0,0,0,692.46,302a197.42,197.42,0,0,0-24.52-34.95,217.79,217.79,0,0,0-31.69-29.52,271.14,271.14,0,0,0-37.91-24.11,374.2,374.2,0,0,0-43-19.22q-13.1-5-26.58-9.24t-27.48-7.79q-14-3.51-28.33-6.11c-9.59-1.72-19.27-3.13-29.05-4.17-5.94-.64-11.87-1.37-17.82-2.12s-11.92-1.51-17.89-2.19-12-1.29-18-1.72-12-.69-18.07-.69"/><path class="cls-11" d="M569.39,666.69a14.25,14.25,0,0,0-2.07,2.34c-.56.79-1,1.6-1.49,2.4s-.9,1.61-1.41,2.4a16.35,16.35,0,0,1-1.8,2.35,83.21,83.21,0,0,1-9.24,8.4,98.21,98.21,0,0,1-10.14,6.95c-3.49,2.09-7.12,4-10.85,5.78s-7.49,3.37-11.35,4.88q-8.22,3.19-16.39,5.81t-16.21,4.7q-8,2.1-16.1,3.75t-16.06,2.95q-5.46.89-10.89,1.63t-10.82,1.39q-5.38.63-10.77,1.17t-10.74,1q-6,.51-11.92.82t-11.86.51q-5.92.18-11.83.3l-11.81.22h-1.91c-1.23,0-2.47,0-3.71-.05l-3.74-.12-3.76-.12c-1.25,0-2.5-.08-3.75-.09L345,726c-1.24,0-2.49-.08-3.73-.13s-2.49-.12-3.72-.2-2.47-.17-3.7-.27c-3.65-.3-7.31-.6-11-.92s-7.35-.67-11-1.05-7.39-.78-11.09-1.24-7.44-.95-11.18-1.52c-6.62-1-13.22-2.12-19.8-3.42s-13.24-2.78-19.84-4.49-13.32-3.66-20-5.89-13.52-4.8-20.32-7.7q-3.3-1.39-6.48-3t-6.28-3.37c-2.06-1.19-4.09-2.44-6.07-3.76s-4-2.73-5.86-4.2c-1.67-1.29-3.28-2.59-4.81-3.93s-3-2.72-4.37-4.15a50.75,50.75,0,0,1-3.81-4.43,39.94,39.94,0,0,1-3.14-4.8l.46,1,.45,1,.45.95.44,1q2.78,5.89,5.47,11.59c1.76,3.73,3.5,7.39,5.19,11s3.28,7,4.85,10.41,12.14,27.31,13.57,30.55a26.61,26.61,0,0,0,2.36,4.18c.92,1.33,8.85,13,10,14.27s13.3,7.83,14.68,9,2.85,2.25,4.42,3.32a105.86,105.86,0,0,0,12.07,7.13,135.43,135.43,0,0,0,12.63,5.56c4.27,1.63,114.87,54.85,119.28,56.18S537.57,732.77,539.44,730.69c1.82-3.89,8.9-19.15,10.81-23.2l6-12.71,6.36-13.57,6.82-14.52"/><path class="cls-11" d="M609.92,579.33a3.62,3.62,0,0,0-.63.27,2.82,2.82,0,0,0-.51.38,2.93,2.93,0,0,0-.4.46,3.85,3.85,0,0,0-.3.53,60.18,60.18,0,0,1-6.33,10.49,76.5,76.5,0,0,1-8,9.06,103.57,103.57,0,0,1-9.25,7.91c-3.21,2.46-6.56,4.78-10,7-6,3.83-11.92,7.25-17.92,10.32s-11.87,5.73-17.83,8.17-11.84,4.57-17.78,6.52-11.78,3.69-17.68,5.31q-9.93,2.71-19.74,4.95t-19.38,4q-9.6,1.74-19.16,3.05t-19.05,2.2l-10.65,1c-3.53.32-7.06.62-10.59.88s-7,.48-10.55.64-7,.26-10.52.28l-4.37,0-4.36,0-4.36,0h-4.37l-6,0c-2,0-4,0-6-.09s-4-.09-6-.16-4-.16-6.05-.27c-2.9-.16-5.8-.32-8.7-.5s-5.82-.38-8.72-.59-5.82-.45-8.73-.71-5.83-.55-8.74-.87c-4.07-.45-8.15-.94-12.24-1.5s-8.21-1.17-12.33-1.84-8.28-1.4-12.44-2.2-8.36-1.66-12.57-2.59c-5.55-1.24-11.1-2.56-16.66-4s-11.19-3-16.79-4.78-11.32-3.68-17-5.81-11.49-4.5-17.28-7.1c-3.78-1.7-7.53-3.5-11.23-5.43s-7.43-4-11.06-6.25-7.26-4.68-10.79-7.3-7.05-5.5-10.45-8.59q-2.66-2.43-5-5T136.77,592c-1.44-1.79-2.8-3.63-4.1-5.51s-2.54-3.84-3.72-5.82q4.59,10.1,9,19.66,4.29,9.33,8.42,18.19,4,8.65,7.88,16.89,3.76,8,7.38,15.72a4.39,4.39,0,0,0,.27.47c.11.16.23.31.35.47l.38.46c.13.16.26.31.37.47a68,68,0,0,0,6.91,7.84,80.18,80.18,0,0,0,7.91,6.75c2.77,2.08,5.69,4,8.73,5.88s6.16,3.56,9.4,5.21q6.62,3.38,13.26,6.17c4.39,1.86,8.79,3.54,13.21,5.09s8.77,2.93,13.19,4.22,8.78,2.45,13.19,3.53q9.38,2.33,18.62,4.15c6.13,1.23,12.24,2.3,18.32,3.25s12.11,1.77,18.16,2.48S316,708.85,322,709.37q5.73.5,11.44.84c3.79.23,7.59.42,11.37.58s7.56.27,11.34.35,7.54.15,11.3.19h3.45q3.35,0,6.71-.06t6.74-.17c2.25-.08,4.51-.16,6.76-.26l6.78-.33q6.19-.33,12.38-.79t12.39-1c4.15-.4,8.29-.85,12.45-1.34s8.36-1.05,12.55-1.66q9.15-1.32,18.28-3t18.38-3.85c6.18-1.46,12.37-3.1,18.57-5s12.56-4,18.9-6.34c3.08-1.15,6.15-2.36,9.18-3.66s6.08-2.68,9.07-4.15,6-3.06,8.89-4.76,5.84-3.54,8.68-5.5c1.73-1.19,3.37-2.44,4.94-3.73s3.09-2.66,4.55-4,2.88-2.83,4.26-4.3,2.74-3,4.07-4.52l7.67-16.34,8.26-17.6,8.92-19,9.66-20.6"/><path class="cls-11" d="M671.78,449.42a39.59,39.59,0,0,0-3.95,5.33c-1.13,1.8-2.12,3.62-3.09,5.44s-1.91,3.61-3,5.39a44.76,44.76,0,0,1-3.52,5.23,204.1,204.1,0,0,1-15.53,17.47,197.66,197.66,0,0,1-16,14.41c-5.38,4.34-10.89,8.33-16.49,12s-11.17,7-16.88,10.18c-7.14,4-14.2,7.53-21.19,10.81s-13.78,6.19-20.6,8.88-13.48,5.09-20.17,7.3-13.24,4.19-19.83,6-13.3,3.52-19.88,5-13.06,2.85-19.54,4.06-12.88,2.29-19.29,3.26-12.77,1.84-19.14,2.62c-4.73.58-9.44,1-14.15,1.44s-9.37.7-14.05,1-9.33.51-14,.75-9.3.48-13.95.75l-2.39.13-2.38.08c-.8,0-1.59,0-2.39,0l-2.38,0c-3.25,0-6.51-.09-9.77-.23s-6.52-.33-9.79-.55l-9.82-.69c-3.28-.23-6.56-.46-9.84-.65-4.64-.26-9.26-.61-13.9-1s-9.27-.93-13.92-1.5-9.34-1.2-14-1.9-9.41-1.45-14.14-2.25c-9.54-1.61-19.1-3.5-28.68-5.73s-19.37-4.87-29.15-7.91S195.11,548,185,544c-10.25-4.11-20.65-8.78-31.24-14.11-4.87-2.44-9.72-5-14.55-7.84s-9.71-5.87-14.51-9.17-9.67-6.95-14.43-10.89-9.61-8.32-14.33-13.06c-2.74-2.75-5.41-5.55-8-8.41s-5.11-5.84-7.48-8.89-4.68-6.27-6.8-9.59a107.59,107.59,0,0,1-5.92-10.47q7.31,16.08,14.23,31.1,6.69,14.55,13,28.19,6.15,13.24,12,25.69,5.65,12.11,11,23.52a7.06,7.06,0,0,0,.4.68c.15.22.32.45.49.67l.54.68c.17.23.34.45.5.68a100.37,100.37,0,0,0,9.72,12,116.41,116.41,0,0,0,10.89,10.1c3.76,3.08,7.68,5.94,11.7,8.61s8,5.12,12.15,7.46q8.44,4.79,16.87,8.73c5.56,2.61,11.12,5,16.67,7.15s11,4.09,16.54,5.88,10.93,3.41,16.39,4.92,11,2.93,16.46,4.21,10.82,2.44,16.19,3.5,10.7,2,16,2.88,10.61,1.64,15.92,2.34q7.41,1,14.78,1.77t14.66,1.4q7.3.6,14.58,1t14.55.52l3.84.06,3.84,0,3.83,0h3.84c3.48,0,6.95,0,10.43-.08s7-.14,10.44-.26,7-.28,10.47-.47,7-.43,10.51-.71c3-.24,5.91-.48,8.87-.74s5.92-.53,8.88-.83,5.94-.61,8.9-1,5.95-.73,8.93-1.15q8.87-1.25,17.79-2.81c6-1.06,12-2.23,18-3.55s12.12-2.78,18.23-4.41,12.34-3.44,18.58-5.43q6.74-2.16,13.49-4.59t13.59-5.3q6.84-2.87,13.68-6.18T574,600.6c4.13-2.36,8.18-4.87,12.11-7.57s7.82-5.62,11.55-8.73a145.22,145.22,0,0,0,10.89-10.08,141,141,0,0,0,10.12-11.64l11.44-24.4,12.55-26.75L656.5,482l15.28-32.57"/></g></g><g class="cls-3"><polygon class="cls-16" points="394.27 214.54 394.29 221.27 339.02 220.91 338.92 214.18 394.27 214.54"/><polygon class="cls-17" points="397.63 266.03 397.64 272.71 395.66 272.7 395.65 266.02 397.63 266.03"/><polygon class="cls-16" points="453.24 269.47 453.16 276.15 397.61 275.79 397.6 269.11 453.24 269.47"/><polygon class="cls-17" points="397.6 269.11 397.61 275.79 395.63 275.78 395.61 269.1 397.6 269.11"/><polygon class="cls-17" points="395.65 266.02 395.66 272.7 395.63 275.78 395.61 269.1 395.65 266.02"/><polygon class="cls-16" points="512.84 307.36 512.68 314 456.92 313.63 457 306.99 512.84 307.36"/><polygon class="cls-17" points="398.26 211.51 398.26 218.24 397.64 272.71 397.63 266.03 398.26 211.51"/><polygon class="cls-17" points="334.09 264.79 334.19 271.47 334.14 274.55 334.04 267.87 334.09 264.79"/><polygon class="cls-16" points="334.04 267.87 334.14 274.55 278.6 274.18 278.42 267.5 334.04 267.87"/><polygon class="cls-17" points="273.43 311.2 273.62 317.84 273.55 320.94 273.36 314.3 273.43 311.2"/><polygon class="cls-16" points="273.36 314.3 273.55 320.94 217.78 320.58 217.5 313.94 273.36 314.3"/><polygon class="cls-16" points="338.92 214.18 339.02 220.91 336.17 378.37 336.07 371.79 338.92 214.18"/><path class="cls-16" d="M648.91,377.71l-.37,6.58h-3.13a181.19,181.19,0,0,1-18.51-1.1c-6.19-.68-12.34-1.66-18.28-2.9a164.6,164.6,0,0,1-17-4.5,111.21,111.21,0,0,1-14.67-5.87c-3.59-1.77-8.54-6.19-14-11.9s-11.42-12.71-17.06-19.66S535,324.56,530.81,319.07s-7.12-9.59-8.13-11q-10.23-14.16-20.47-26.48t-20.39-22.75q-10.15-10.44-20.26-19a218.6,218.6,0,0,0-20.07-15.22,169.88,169.88,0,0,0-17.74-10.39A142.38,142.38,0,0,0,406,206.73a121.18,121.18,0,0,0-17.71-4.65c-5.89-1.07-18.22-1.65-24.07-1.76C346,200.2,334.9,204.46,318,211.94S284.76,230.16,269,243s-30.93,27.83-45.54,43.75-28.74,32.91-42.27,49.63c-3.29,4.06-6.74,8.09-10.47,11.91A99.39,99.39,0,0,1,158.63,359a75.68,75.68,0,0,1-14.47,8.44,73.19,73.19,0,0,1-17.51,5.16q-5.4.88-11.22,1.63t-12.07,1.34q-6.23.59-12.86,1t-13.62.73l-.47-6.59q7-.29,13.63-.72t12.89-1q6.24-.58,12.08-1.34T126.25,366a72.76,72.76,0,0,0,17.53-5.17,75.19,75.19,0,0,0,14.5-8.44,100.42,100.42,0,0,0,12.15-10.7c3.73-3.82,7.18-7.85,10.48-11.92,13.55-16.74,27.66-33.69,42.33-49.67s29.83-30.92,45.61-43.79,32.07-23.57,49-31.07,28.5-11.74,46.75-11.62c5.86.11,17.75.69,23.65,1.76A121.55,121.55,0,0,1,406,200a143.59,143.59,0,0,1,17.77,7.53,170.36,170.36,0,0,1,17.77,10.4,219,219,0,0,1,20.1,15.23q10.11,8.58,20.29,19T502.36,275q10.25,12.33,20.5,26.5c1,1.39,4,5.5,8.14,11s9.46,12.38,15.1,19.32,11.61,14,17.08,19.67,10.42,10.15,14,11.92a111.11,111.11,0,0,0,14.7,5.88,165,165,0,0,0,17,4.5c6,1.24,12.11,2.22,18.31,2.9a181.58,181.58,0,0,0,18.53,1.1h3.14Z"/><polygon class="cls-11" points="273.43 311.2 273.36 314.3 217.5 313.94 215.62 370.98 211.6 370.96 213.6 310.8 273.43 311.2"/><polygon class="cls-16" points="217.5 313.94 217.78 320.58 215.89 377.57 215.62 370.98 217.5 313.94"/><polygon class="cls-16" points="215.62 370.98 215.89 377.57 211.88 377.54 211.6 370.96 215.62 370.98"/><polygon class="cls-11" points="334.09 264.79 334.04 267.87 278.42 267.5 275.84 371.38 271.82 371.36 273.36 314.3 273.43 311.2 274.51 264.4 334.09 264.79"/><polygon class="cls-16" points="275.84 371.38 276.03 377.97 272.01 377.94 271.82 371.36 275.84 371.38"/><polygon class="cls-16" points="278.42 267.5 278.6 274.18 276.03 377.97 275.84 371.38 278.42 267.5"/><polygon class="cls-16" points="336.07 371.79 336.17 378.37 332.16 378.35 332.06 371.76 336.07 371.79"/><path class="cls-11" d="M363.57,184.45c6.9.12,19.72.76,26.47,1.93a136.29,136.29,0,0,1,20.07,5.08,153,153,0,0,1,19.72,8.2A178.94,178.94,0,0,1,449.28,211a229.26,229.26,0,0,1,20.87,15.77q10.47,8.85,21,19.6t21.06,23.4q10.54,12.66,21.08,27.17c3.93,5.42,8.51,11.52,13.29,17.68s9.78,12.41,14.55,18.1,9.32,10.85,13.2,14.84,7.09,6.81,9.19,7.84a99.45,99.45,0,0,0,13.22,5.27,149.37,149.37,0,0,0,15.39,4c5.39,1.11,11,2,16.6,2.6a165.43,165.43,0,0,0,16.85,1h2.92l.42,9.46h-3.14a181.58,181.58,0,0,1-18.53-1.1c-6.2-.68-12.36-1.66-18.31-2.9a165,165,0,0,1-17-4.5,111.11,111.11,0,0,1-14.7-5.88c-3.6-1.77-8.55-6.2-14-11.92s-11.44-12.72-17.08-19.67-11-13.83-15.1-19.32-7.13-9.6-8.14-11q-10.25-14.16-20.5-26.5t-20.42-22.77q-10.17-10.44-20.29-19a219,219,0,0,0-20.1-15.23,170.36,170.36,0,0,0-17.77-10.4A143.59,143.59,0,0,0,406,200a121.55,121.55,0,0,0-17.74-4.65c-5.9-1.07-17.79-1.65-23.65-1.76-18.25-.12-29.82,4.14-46.75,11.62s-33.28,18.24-49,31.07-31,27.85-45.61,43.79S194.46,313,180.91,329.74c-3.3,4.07-6.75,8.1-10.48,11.92a100.42,100.42,0,0,1-12.15,10.7,75.19,75.19,0,0,1-14.5,8.44A72.76,72.76,0,0,1,126.25,366q-5.4.88-11.24,1.63t-12.08,1.34q-6.25.6-12.89,1t-13.63.72l-.35-9.43q6.76-.27,13.16-.7t12.41-1q6-.57,11.6-1.28T124,356.74a59.22,59.22,0,0,0,13.86-4,61.41,61.41,0,0,0,12-6.9,87.59,87.59,0,0,0,10.75-9.41c3.46-3.52,6.82-7.4,10.21-11.58,14-17.26,28.6-34.74,43.83-51.23s31-31.88,47.49-45.14,33.6-24.3,51.49-32S344.1,184.32,363.57,184.45Z"/><polygon class="cls-11" points="398.26 211.51 397.63 266.03 395.65 266.02 395.61 269.1 397.6 269.11 396.31 372.19 392.3 372.16 394.27 214.54 338.92 214.18 336.07 371.79 332.06 371.76 334.04 267.87 334.09 264.79 335.03 211.1 398.26 211.51"/><polygon class="cls-16" points="397.6 269.11 397.61 275.79 396.32 378.78 396.31 372.19 397.6 269.11"/><polygon class="cls-16" points="396.31 372.19 396.32 378.78 392.32 378.75 392.3 372.16 396.31 372.19"/><polygon class="cls-16" points="456.57 372.59 456.49 379.18 452.47 379.15 452.55 372.57 456.57 372.59"/><polygon class="cls-16" points="512.81 372.97 512.65 379.56 512.68 314 512.84 307.36 512.81 372.97"/><polygon class="cls-16" points="516.82 373 516.65 379.58 512.65 379.56 512.81 372.97 516.82 373"/><polygon class="cls-11" points="516.83 304.28 516.82 373 512.81 372.97 512.84 307.36 457 306.99 454.84 307.42 454.68 303.29 457.02 303.88 516.83 304.28"/><polygon class="cls-16" points="135.6 422.36 136 428.9 136.25 437.37 135.85 430.82 135.6 422.36"/><polygon class="cls-16" points="518.64 431.79 518.47 438.33 518.47 407.04 518.64 400.48 518.64 431.79"/><path class="cls-16" d="M166.56,441.83l.35,6.53a16.24,16.24,0,0,0-1.06-5.11,11.79,11.79,0,0,0-2.59-4,11.43,11.43,0,0,0-4.12-2.63,15.92,15.92,0,0,0-5.64-1,17.35,17.35,0,0,0-5.29.78,17.05,17.05,0,0,0-7.82,5.18,14.37,14.37,0,0,0-2.21,3.49l-.39-6.53a14.42,14.42,0,0,1,2.21-3.5,17,17,0,0,1,7.83-5.18,17.11,17.11,0,0,1,5.3-.78,16,16,0,0,1,5.65,1,11.43,11.43,0,0,1,4.12,2.63,11.76,11.76,0,0,1,2.6,4A16.12,16.12,0,0,1,166.56,441.83Z"/><path class="cls-16" d="M179.58,438l.33,6.54c-.14.32-.28.68-.41,1.05s-.24.76-.34,1.17a12.75,12.75,0,0,0-.24,1.26c-.06.43-.1.86-.12,1.3l-.33-6.53a11,11,0,0,1,.11-1.3c.07-.43.15-.85.25-1.26s.21-.8.34-1.18S179.44,438.3,179.58,438Z"/><path class="cls-16" d="M137.79,438.56l.39,6.53a7.63,7.63,0,0,0-.48,1.1,11.7,11.7,0,0,0-.35,1.15q-.14.6-.21,1.2c0,.41-.08.81-.1,1.22l-.39-6.53c0-.41,0-.81.09-1.22s.13-.8.22-1.2a10.9,10.9,0,0,1,.34-1.15A8.36,8.36,0,0,1,137.79,438.56Z"/><path class="cls-16" d="M208.17,443.5l.29,6.53a20.33,20.33,0,0,0-1.07-5.92,12.29,12.29,0,0,0-2.67-4.42,11.31,11.31,0,0,0-4.28-2.78,17,17,0,0,0-5.94-1,16.76,16.76,0,0,0-4.87.66,16.27,16.27,0,0,0-4.17,1.87,15.58,15.58,0,0,0-3.3,2.74,14,14,0,0,0-2.25,3.32l-.33-6.54a14,14,0,0,1,2.25-3.31,15.63,15.63,0,0,1,3.31-2.75,16.27,16.27,0,0,1,4.17-1.87,18.16,18.16,0,0,1,10.83.33,11.23,11.23,0,0,1,4.29,2.78,12.47,12.47,0,0,1,2.67,4.43A20.27,20.27,0,0,1,208.17,443.5Z"/><path class="cls-16" d="M220.08,442.1l.27,6.53c0,.2,0,.39,0,.6v.61c0,.2,0,.41,0,.62s0,.42,0,.63l-.27-6.53c0-.21,0-.43,0-.63s0-.42,0-.62,0-.41,0-.61S220.08,442.29,220.08,442.1Z"/><path class="cls-16" d="M352.29,444.79c0,2.18,0,4.35.08,6.53,0-.28,0-.58,0-.89s0-.62-.09-.93-.09-.62-.15-.92a6.42,6.42,0,0,0-.22-.84l-.08-6.54c.09.27.16.55.23.85s.11.61.15.92.06.62.08.93S352.29,444.51,352.29,444.79Z"/><path class="cls-16" d="M422.56,445.07l0,6.53a16.69,16.69,0,0,0-.72-4.94,14.26,14.26,0,0,0-2.61-4.93,13.54,13.54,0,0,0-5.11-3.8,20.75,20.75,0,0,0-8.22-1.56,20.48,20.48,0,0,0-7.95,1.44,17.08,17.08,0,0,0-5.63,3.75,18.37,18.37,0,0,0-3.53,5,18.84,18.84,0,0,0-1.65,5.22l0-6.53A19,19,0,0,1,392.27,435a17.07,17.07,0,0,1,5.64-3.75,22.63,22.63,0,0,1,16.2.12,13.55,13.55,0,0,1,5.12,3.8,14.35,14.35,0,0,1,2.61,4.93A16.8,16.8,0,0,1,422.56,445.07Z"/><path class="cls-16" d="M518.64,446.36l-.17,6.53q0-.45,0-1c0-.34-.05-.7-.09-1.05s-.1-.71-.17-1.05a8.55,8.55,0,0,0-.26-1l.17-6.53a8.55,8.55,0,0,1,.26,1c.07.34.13.69.17,1.05s.08.71.1,1S518.64,446.06,518.64,446.36Z"/><path class="cls-16" d="M558.33,453.48q.1-3.27.23-6.53a7.91,7.91,0,0,1,.09-1c0-.32.1-.63.16-.93s.14-.59.21-.86.14-.54.21-.79l-.24,6.54c-.06.25-.13.51-.2.78s-.14.56-.21.86-.12.61-.17.93S558.34,453.13,558.33,453.48Z"/><path class="cls-16" d="M283.32,448.51l.18,6.53a22.43,22.43,0,0,0-1.22-6.7,19.52,19.52,0,0,0-3.47-6.2,17.15,17.15,0,0,0-6-4.58,21.34,21.34,0,0,0-8.81-1.83,23.13,23.13,0,0,0-9.29,1.73,18.13,18.13,0,0,0-6.49,4.63,20.07,20.07,0,0,0-3.87,6.53A23.86,23.86,0,0,0,243,456v.37c0,.12,0,.24,0,.36s0,.24,0,.36,0,.24,0,.36l-.24-6.52c0-.12,0-.24,0-.36v-1.09a23.6,23.6,0,0,1,1.39-7.42,20.11,20.11,0,0,1,3.87-6.54,18.32,18.32,0,0,1,6.5-4.64,23.39,23.39,0,0,1,9.3-1.72,21.16,21.16,0,0,1,8.82,1.83,17.23,17.23,0,0,1,6,4.58,19.57,19.57,0,0,1,3.47,6.21A22.37,22.37,0,0,1,283.32,448.51Z"/><path class="cls-16" d="M314.23,457.73l-.13-6.52v-1a23.94,23.94,0,0,1,1.52-8.09,18.8,18.8,0,0,1,4.05-6.42,18.07,18.07,0,0,1,6.36-4.22,22.47,22.47,0,0,1,8.44-1.48,22.15,22.15,0,0,1,6.31.92,18.52,18.52,0,0,1,5.13,2.41,15.91,15.91,0,0,1,3.75,3.55,13.22,13.22,0,0,1,2.14,4.32l.08,6.54a13.23,13.23,0,0,0-2.14-4.32,15.91,15.91,0,0,0-3.75-3.55,18.46,18.46,0,0,0-5.12-2.41,23.48,23.48,0,0,0-14.72.56,17.93,17.93,0,0,0-6.36,4.22,19,19,0,0,0-4,6.41,23.89,23.89,0,0,0-1.52,8.09v1Z"/><path class="cls-16" d="M480.41,457.48l.11-6.52a23.42,23.42,0,0,1,1.48-8,18.46,18.46,0,0,1,4-6.3,17.68,17.68,0,0,1,6.26-4.13A23.55,23.55,0,0,1,506.9,432a18.65,18.65,0,0,1,5.17,2.42,16,16,0,0,1,3.81,3.55,13.42,13.42,0,0,1,2.21,4.32l-.17,6.53a13.63,13.63,0,0,0-2.21-4.32,15.74,15.74,0,0,0-3.8-3.54,18.87,18.87,0,0,0-5.16-2.42,22.64,22.64,0,0,0-6.32-.92,22.24,22.24,0,0,0-8.32,1.45,17.68,17.68,0,0,0-6.26,4.13,18.55,18.55,0,0,0-4,6.29A23.36,23.36,0,0,0,480.41,457.48Z"/><polygon class="cls-16" points="433.82 452.44 433.77 458.96 386.88 458.64 386.85 452.12 433.82 452.44"/><path class="cls-16" d="M434.27,448l0,6.53c0,.49,0,.95-.06,1.39s-.07.83-.12,1.21-.09.72-.14,1-.09.59-.13.83l.05-6.52c0-.25.08-.53.13-.84s.1-.65.14-1,.09-.78.12-1.21S434.26,448.46,434.27,448Z"/><path class="cls-16" d="M597.64,452.93c-.1,2.17-.2,4.35-.29,6.52,0-.12,0-.24,0-.36s0-.24,0-.36V458a22.24,22.24,0,0,0-1.33-7.53,18.68,18.68,0,0,0-3.83-6.27,18,18,0,0,0-6.24-4.29,23.57,23.57,0,0,0-14.59-.86,20.49,20.49,0,0,0-5.36,2.29,17.55,17.55,0,0,0-4.28,3.66,15.54,15.54,0,0,0-2.75,4.9l.24-6.54a15,15,0,0,1,2.75-4.89,17.37,17.37,0,0,1,4.28-3.67,20.23,20.23,0,0,1,5.37-2.29,23.64,23.64,0,0,1,14.61.86,17.92,17.92,0,0,1,6.25,4.3,18.6,18.6,0,0,1,3.84,6.26,22.38,22.38,0,0,1,1.33,7.54v.73c0,.12,0,.24,0,.36S597.64,452.81,597.64,452.93Z"/><polygon class="cls-16" points="518.64 455.52 518.47 462.04 518.47 452.89 518.64 446.36 518.64 455.52"/><path class="cls-16" d="M518.64,456.13l-.18,6.52a.76.76,0,0,0,0-.15V462l.17-6.52v.61Z"/><polygon class="cls-16" points="365.1 399.44 365.15 406.01 364.24 469.51 364.19 462.99 365.1 399.44"/><polygon class="cls-16" points="546.58 464.23 546.37 470.75 546.2 407.23 546.41 400.66 546.58 464.23"/><polygon class="cls-16" points="353.2 467.41 353.27 473.92 352.99 473.91 352.92 467.4 353.2 467.41"/><path class="cls-16" d="M364.23,474.55l-.06-6.51c0-.42,0-.85,0-1.27V465.5c0-.43,0-.85,0-1.27s0-.83,0-1.24l.05,6.52c0,.41,0,.82,0,1.24s0,.83,0,1.26v1.27C364.22,473.7,364.22,474.13,364.23,474.55Z"/><polygon class="cls-16" points="519.88 468.54 519.71 475.05 519.44 475.05 519.61 468.54 519.88 468.54"/><polygon class="cls-16" points="557.52 469.23 557.29 475.74 556.88 475.73 557.11 469.23 557.52 469.23"/><path class="cls-16" d="M546.49,469.91l-.22,6.51c0-.48,0-.95,0-1.43s0-.95,0-1.43,0-.95,0-1.42,0-.93,0-1.39l.21-6.52v1.4c0,.47,0,.94,0,1.42l0,1.43C546.51,469,546.5,469.43,546.49,469.91Z"/><polygon class="cls-16" points="136.65 443.23 137.04 449.76 135.91 481.62 135.51 475.12 136.65 443.23"/><polygon class="cls-16" points="135.51 475.12 135.91 481.62 124.03 481.54 123.62 475.04 135.51 475.12"/><polygon class="cls-16" points="177.43 475.4 177.77 481.91 165.89 481.82 165.54 475.32 177.43 475.4"/><polygon class="cls-16" points="178.47 442.75 178.8 449.29 177.77 481.91 177.43 475.4 178.47 442.75"/><polygon class="cls-16" points="220.09 444.56 220.36 451.09 219.5 482.19 219.22 475.69 220.09 444.56"/><path class="cls-11" d="M198.83,421.59a25.92,25.92,0,0,1,7.11,1,20.55,20.55,0,0,1,7,3.61,18,18,0,0,1,5.27,7,26.69,26.69,0,0,1,1.87,11.3l-.87,31.13-11.9-.08.87-29.93a24,24,0,0,0-.69-6.81,13.38,13.38,0,0,0-2.54-5.12,11.16,11.16,0,0,0-4.42-3.23,16.94,16.94,0,0,0-6.35-1.15,17.18,17.18,0,0,0-4.88.67,16.27,16.27,0,0,0-4.17,1.87,15.63,15.63,0,0,0-3.31,2.75,14,14,0,0,0-2.25,3.31c-.14.33-.28.68-.41,1s-.24.77-.34,1.18-.18.83-.25,1.26a11,11,0,0,0-.11,1.3l-1,32.64-11.89-.08,1-31.67a18,18,0,0,0-.69-5.8,12.41,12.41,0,0,0-2.47-4.59,11.21,11.21,0,0,0-4.25-3,15.91,15.91,0,0,0-6-1.12A17,17,0,0,0,143.4,432a16.92,16.92,0,0,0-3.4,3,14.42,14.42,0,0,0-2.21,3.5,8.36,8.36,0,0,0-.49,1.1,10.9,10.9,0,0,0-.34,1.15c-.09.4-.16.8-.22,1.2s-.08.81-.09,1.22l-1.14,31.89L123.62,475,125,436.52c0-1.36.09-2.66.12-3.91s0-2.45,0-3.62,0-2.3,0-3.41-.07-2.21-.14-3.29l10.6.07.25,8.46h.41a26.14,26.14,0,0,1,3.42-3.6,23,23,0,0,1,4.55-3.05,24.8,24.8,0,0,1,5.88-2.11,32.46,32.46,0,0,1,7.43-.76,25.45,25.45,0,0,1,6.34.82,20.88,20.88,0,0,1,5.31,2.2,17.9,17.9,0,0,1,4.11,3.36,16,16,0,0,1,2.75,4.28h.28a24.84,24.84,0,0,1,1.72-2.07c.6-.64,1.22-1.25,1.87-1.82s1.31-1.09,2-1.57,1.38-.92,2.08-1.33a27,27,0,0,1,3.14-1.56,24.61,24.61,0,0,1,3.43-1.13,27.48,27.48,0,0,1,3.85-.69A38.54,38.54,0,0,1,198.83,421.59Z"/><polygon class="cls-16" points="219.22 475.69 219.5 482.19 207.61 482.11 207.32 475.61 219.22 475.69"/><path class="cls-16" d="M295.75,448c.06,2.18.11,4.35.16,6.53,0,.11,0,.22,0,.33v.66c0,.11,0,.22,0,.34a27.07,27.07,0,0,1-3.18,12.59,25.67,25.67,0,0,1-7.84,8.68,34.64,34.64,0,0,1-10.8,5A44.78,44.78,0,0,1,262,483.69a41,41,0,0,1-12.15-1.85,30.81,30.81,0,0,1-9.81-5.11,24.5,24.5,0,0,1-6.65-8,24.93,24.93,0,0,1-2.7-10.53l-.26-6.53a24.94,24.94,0,0,0,2.71,10.54,24.48,24.48,0,0,0,6.66,8,31.17,31.17,0,0,0,9.82,5.11,41.21,41.21,0,0,0,12.17,1.84,44.15,44.15,0,0,0,12.09-1.56,34.57,34.57,0,0,0,10.81-5,25.81,25.81,0,0,0,7.85-8.69,27.15,27.15,0,0,0,3.2-12.61v-1C295.76,448.21,295.76,448.1,295.75,448Z"/><polygon class="cls-16" points="353.61 476.6 353.68 483.11 353.27 473.92 353.2 467.41 353.61 476.6"/><polygon class="cls-16" points="364.55 476.57 364.6 483.08 353.68 483 353.61 476.5 364.55 476.57"/><path class="cls-16" d="M302,458.3l-.15-6.53a26.65,26.65,0,0,0,2.32,10.47,24.64,24.64,0,0,0,5.95,8.12,27.2,27.2,0,0,0,8.84,5.27,32.58,32.58,0,0,0,11,1.91,36,36,0,0,0,7.68-.74,29.43,29.43,0,0,0,6.49-2.15,23.35,23.35,0,0,0,5.17-3.26,18.71,18.71,0,0,0,3.67-4.09l.07,6.51a18.4,18.4,0,0,1-3.66,4.09,23.89,23.89,0,0,1-5.16,3.26,29.42,29.42,0,0,1-6.49,2.14,36.39,36.39,0,0,1-7.66.75,32.67,32.67,0,0,1-11-1.92,26.85,26.85,0,0,1-8.83-5.26,24.54,24.54,0,0,1-5.94-8.11A26.64,26.64,0,0,1,302,458.3Z"/><path class="cls-11" d="M364.19,463c0,1.18,0,2.4,0,3.62s0,2.44,0,3.63.07,2.35.13,3.43.12,2.1.22,3l-10.95-.08-.4-9.19h-.28a18.71,18.71,0,0,1-3.67,4.09,23.38,23.38,0,0,1-5.17,3.27,29.43,29.43,0,0,1-6.49,2.15,36.6,36.6,0,0,1-7.68.74,32.34,32.34,0,0,1-11.27-2,26.92,26.92,0,0,1-9-5.54,24.59,24.59,0,0,1-5.88-8.54,27.09,27.09,0,0,1-2-11,28.92,28.92,0,0,1,2.56-11.81A26.37,26.37,0,0,1,311,429.9a29.52,29.52,0,0,1,9.65-5.54,34.55,34.55,0,0,1,11.58-1.87,35.91,35.91,0,0,1,7,.71A27,27,0,0,1,345,425a21,21,0,0,1,4.35,2.6,14.75,14.75,0,0,1,2.94,3.06h.27l.48-31.3,12.1.08Zm-12-8.6.14-9.15c0-.3,0-.63,0-1s0-.69-.08-1a9.15,9.15,0,0,0-.15-1.05,8.57,8.57,0,0,0-.25-1,13.22,13.22,0,0,0-2.14-4.32,15.91,15.91,0,0,0-3.75-3.55,18.52,18.52,0,0,0-5.13-2.41,22.15,22.15,0,0,0-6.31-.92,22.47,22.47,0,0,0-8.44,1.48,18.07,18.07,0,0,0-6.36,4.22,18.8,18.8,0,0,0-4.05,6.42,23.94,23.94,0,0,0-1.52,8.09,22.6,22.6,0,0,0,1.1,7.57,17.49,17.49,0,0,0,3.6,6.25,16.81,16.81,0,0,0,6.11,4.25,23.87,23.87,0,0,0,14.54.88,19.87,19.87,0,0,0,5.26-2.22,17,17,0,0,0,4.18-3.58,14.59,14.59,0,0,0,2.64-4.82c.11-.33.2-.65.28-1s.14-.67.19-1,.08-.69.11-1.05,0-.72,0-1.11"/><polygon class="cls-16" points="444.7 477.22 444.64 483.73 445.16 406.55 445.23 399.98 444.7 477.22"/><polygon class="cls-16" points="456.88 477.31 456.8 483.81 444.64 483.73 444.7 477.22 456.88 477.31"/><polygon class="cls-11" points="457.32 400.06 456.88 477.31 444.7 477.22 445.23 399.98 457.32 400.06"/><path class="cls-16" d="M375.3,458.3l0-6.53a25.73,25.73,0,0,0,2.27,10.67,23.42,23.42,0,0,0,6.42,8.28,30.35,30.35,0,0,0,10.23,5.38,46.91,46.91,0,0,0,13.68,2c2.67,0,5.13-.07,7.38-.25s4.31-.42,6.17-.73,3.51-.65,5-1,2.72-.76,3.8-1.14l0,6.51c-1.07.37-2.34.76-3.8,1.13s-3.11.72-5,1-3.9.55-6.16.72-4.71.27-7.37.25a46.7,46.7,0,0,1-13.65-2A30,30,0,0,1,384,477.23a23.28,23.28,0,0,1-6.41-8.28A25.67,25.67,0,0,1,375.3,458.3Z"/><polygon class="cls-16" points="520.44 477.74 520.27 484.24 519.71 475.05 519.88 468.54 520.44 477.74"/><polygon class="cls-16" points="531.38 477.81 531.19 484.32 520.27 484.24 520.44 477.74 531.38 477.81"/><polygon class="cls-16" points="557.11 469.23 556.88 475.73 556.36 484.49 556.59 477.99 557.11 469.23"/><polygon class="cls-16" points="556.59 477.99 556.36 484.49 545.86 484.42 546.07 477.92 556.59 477.99"/><path class="cls-16" d="M468.13,457.62l.1-6.53v.6a27.3,27.3,0,0,0,2.15,11,25,25,0,0,0,6,8.54,27.39,27.39,0,0,0,9.07,5.55,32.65,32.65,0,0,0,11.31,2,35.76,35.76,0,0,0,7.66-.74,29.25,29.25,0,0,0,6.47-2.15,23.28,23.28,0,0,0,5.11-3.26,17.9,17.9,0,0,0,3.61-4.09l-.17,6.51a18,18,0,0,1-3.6,4.08,23.41,23.41,0,0,1-5.11,3.27,29.16,29.16,0,0,1-6.46,2.14,36.29,36.29,0,0,1-7.65.75,32.81,32.81,0,0,1-11.29-2,27.49,27.49,0,0,1-9.06-5.54,25.13,25.13,0,0,1-6-8.53,27.47,27.47,0,0,1-2.14-11,.38.38,0,0,1,0-.15v-.44Z"/><path class="cls-16" d="M609.78,453.14l-.3,6.52a27.75,27.75,0,0,1-3,11.53,25.07,25.07,0,0,1-6.8,8.2,29.43,29.43,0,0,1-9.35,4.89,34.54,34.54,0,0,1-10.62,1.57,38,38,0,0,1-6.89-.62,28,28,0,0,1-6.09-1.82,22.34,22.34,0,0,1-9.47-7.67l.23-6.51a22.52,22.52,0,0,0,9.49,7.68,28,28,0,0,0,6.09,1.82,39.11,39.11,0,0,0,6.91.62,34.36,34.36,0,0,0,10.63-1.58,29.23,29.23,0,0,0,9.37-4.89,25.28,25.28,0,0,0,6.81-8.21A27.59,27.59,0,0,0,609.78,453.14Z"/><path class="cls-11" d="M581.47,424.17a33,33,0,0,1,11.41,2,26.63,26.63,0,0,1,9,5.54,24.79,24.79,0,0,1,5.87,8.53,28.33,28.33,0,0,1,2.11,11,28.93,28.93,0,0,1-2.48,12.37,25,25,0,0,1-6.75,8.81,29.31,29.31,0,0,1-9.59,5.25,34.58,34.58,0,0,1-11,1.69,39.11,39.11,0,0,1-6.91-.62,28,28,0,0,1-6.09-1.82,22.52,22.52,0,0,1-9.49-7.68h-.41l-.52,8.77-10.52-.08c.06-.9.13-1.91.19-3s.12-2.24.17-3.43.09-2.41.11-3.63,0-2.44,0-3.62l-.17-63.57,12,.08.13,32.94h.27a20.18,20.18,0,0,1,3.83-4,23.33,23.33,0,0,1,5.09-3,29.59,29.59,0,0,1,6.3-1.91A39.15,39.15,0,0,1,581.47,424.17Zm-4,47.49a23.76,23.76,0,0,0,8.54-1.41,17.45,17.45,0,0,0,6.37-4.1,17.86,17.86,0,0,0,4-6.4,23.57,23.57,0,0,0,1.32-8.27,22.38,22.38,0,0,0-1.33-7.54,18.6,18.6,0,0,0-3.84-6.26,17.92,17.92,0,0,0-6.25-4.3,23.64,23.64,0,0,0-14.61-.86,20.23,20.23,0,0,0-5.37,2.29,17.37,17.37,0,0,0-4.28,3.67,15,15,0,0,0-2.75,4.89l-.23.86c-.07.3-.15.61-.22.94s-.12.66-.17,1a9.73,9.73,0,0,0-.06,1.1l0,9.49c0,.3,0,.6,0,.9s.07.59.13.89.11.58.18.87.13.57.21.84a15.28,15.28,0,0,0,2.61,4.59,17.34,17.34,0,0,0,4.11,3.58,20.15,20.15,0,0,0,5.32,2.35,23.51,23.51,0,0,0,6.27.86"/><polygon class="cls-11" points="457.23 266.42 457.02 303.88 455.02 303.87 455 306.97 457 306.99 456.57 372.59 452.55 372.57 453.24 269.47 397.6 269.11 395.61 269.1 395.65 266.02 397.63 266.03 457.23 266.42"/><path class="cls-11" d="M264.23,422a41.87,41.87,0,0,1,13,2.05,29.63,29.63,0,0,1,10,5.6,24.09,24.09,0,0,1,6.37,8.59,26,26,0,0,1,2.1,11.05,27.15,27.15,0,0,1-3.2,12.61,25.81,25.81,0,0,1-7.85,8.69,34.57,34.57,0,0,1-10.81,5,44.15,44.15,0,0,1-12.09,1.56,40.59,40.59,0,0,1-12.61-2,30.27,30.27,0,0,1-10-5.51,24.28,24.28,0,0,1-6.55-8.62,25.71,25.71,0,0,1-2.16-11.31A27.35,27.35,0,0,1,233.33,438a26,26,0,0,1,7.27-8.73,32.67,32.67,0,0,1,10.64-5.4A43.54,43.54,0,0,1,264.23,422ZM262.54,470a21.54,21.54,0,0,0,8.11-1.48,19.73,19.73,0,0,0,11-10.7,22.12,22.12,0,0,0,1.73-8.21,22.89,22.89,0,0,0-1-6.95,20.06,20.06,0,0,0-3.37-6.56,17.16,17.16,0,0,0-6.09-4.9,21.1,21.1,0,0,0-9.12-2,23.39,23.39,0,0,0-9.3,1.72,18.32,18.32,0,0,0-6.5,4.64,20.11,20.11,0,0,0-3.87,6.54,23.6,23.6,0,0,0-1.39,7.42,21.63,21.63,0,0,0,1.3,8.06,18.58,18.58,0,0,0,10.35,10.79,21.65,21.65,0,0,0,8.16,1.6"/><path class="cls-11" d="M434.27,448c0,.49,0,1-.06,1.39s-.07.84-.12,1.21-.09.72-.14,1-.09.59-.13.84l-47-.32a18.71,18.71,0,0,0,1.89,8.36,16,16,0,0,0,5,5.74,22.21,22.21,0,0,0,7.22,3.31,34.68,34.68,0,0,0,8.68,1.1c2.18,0,4.14-.05,5.93-.17s3.42-.31,4.91-.55,2.85-.52,4.12-.84,2.46-.67,3.61-1.05l2,6.91c-1.08.38-2.34.77-3.8,1.14s-3.12.72-5,1-3.91.56-6.17.73-4.71.27-7.38.25a46.7,46.7,0,0,1-13.83-2,30,30,0,0,1-10.29-5.51,23.33,23.33,0,0,1-6.38-8.47,26.09,26.09,0,0,1-2.1-10.9A29.25,29.25,0,0,1,377.57,440a26.56,26.56,0,0,1,6.32-9,28.91,28.91,0,0,1,9.92-6,37.86,37.86,0,0,1,13.1-2.11,33.63,33.63,0,0,1,13.47,2.6,22.46,22.46,0,0,1,8.39,6.31,23.51,23.51,0,0,1,4.31,8.1A26.91,26.91,0,0,1,434.27,448Zm-11.72-2.47a16.71,16.71,0,0,0-.6-5,14.31,14.31,0,0,0-2.55-5.08,13.46,13.46,0,0,0-5.13-4,22.59,22.59,0,0,0-16.36-.19,17.07,17.07,0,0,0-5.64,3.75,19,19,0,0,0-5.19,10.24l35.47.24"/><path class="cls-11" d="M530.82,464.13c0,1.17,0,2.39,0,3.61s0,2.44.1,3.64.1,2.34.17,3.43.16,2.1.26,3l-10.94-.07-.56-9.2h-.27a17.9,17.9,0,0,1-3.61,4.09,23.28,23.28,0,0,1-5.11,3.26,29.25,29.25,0,0,1-6.47,2.15,35.76,35.76,0,0,1-7.66.74,32.65,32.65,0,0,1-11.31-2,27.39,27.39,0,0,1-9.07-5.55,25,25,0,0,1-6-8.54,27.3,27.3,0,0,1-2.15-11,28.53,28.53,0,0,1,2.39-11.81,25.52,25.52,0,0,1,6.52-8.85,28.85,28.85,0,0,1,9.56-5.55,34.31,34.31,0,0,1,11.56-1.87,35.91,35.91,0,0,1,7,.71,27.54,27.54,0,0,1,5.73,1.8,21.3,21.3,0,0,1,4.38,2.6,15.07,15.07,0,0,1,3,3.06h.28v-31.3l12.1.08Zm-12.18-8.61v-9.16c0-.3,0-.62,0-1s0-.7-.1-1-.1-.71-.17-1.05a8.55,8.55,0,0,0-.26-1,13.42,13.42,0,0,0-2.21-4.32,16,16,0,0,0-3.81-3.55A18.65,18.65,0,0,0,506.9,432a23.55,23.55,0,0,0-14.74.56,17.65,17.65,0,0,0-6.3,4.22,18.51,18.51,0,0,0-3.95,6.42,23.46,23.46,0,0,0-1.39,8.1,22.63,22.63,0,0,0,1.21,7.57,17.87,17.87,0,0,0,3.7,6.25,17.15,17.15,0,0,0,6.17,4.26,23.06,23.06,0,0,0,8.64,1.61,22.66,22.66,0,0,0,5.92-.74,19.88,19.88,0,0,0,5.24-2.22,16.26,16.26,0,0,0,4.11-3.58,14.28,14.28,0,0,0,2.58-4.82c.1-.33.19-.65.26-1s.13-.67.17-1,.08-.69.1-1.05,0-.72,0-1.11"/></g><text class="cls-18" transform="matrix(0.86, -0.5, 0.5, 0.86, 368.81, 809.1)"><tspan class="cls-19">ww</tspan><tspan class="cls-20" x="37.4" y="0">w</tspan><tspan x="54.82" y="0">.rstudi</tspan><tspan class="cls-21" x="120.07" y="0">o</tspan><tspan x="133.2" y="0">.</tspan><tspan class="cls-22" x="138.37" y="0">c</tspan><tspan class="cls-23" x="149.42" y="0">om</tspan></text><path class="cls-16" d="M705.61,196.21,427.81,35.82,367.5,1,307.19,35.82,29.37,196.22.09,213.13V637.38l29.28,16.91L310.65,816.68l56.85,32.83,56.85-32.83L705.61,654.3l29.3-16.92V213.13Zm0,425.26L367.49,816.68,29.37,621.47V231L367.49,35.82h0L705.61,231Z"/></g></g></svg>