<?xml version="1.0" encoding="utf-8"?>
<!-- Generator: Adobe Illustrator 22.0.1, SVG Export Plug-In . SVG Version: 6.00 Build 0)  -->
<svg version="1.1" id="Layer_1" xmlns="http://www.w3.org/2000/svg" xmlns:xlink="http://www.w3.org/1999/xlink" x="0px" y="0px"
	 viewBox="0 0 738 852" style="enable-background:new 0 0 738 852;" xml:space="preserve">
<style type="text/css">
	.st0{fill:#141227;}
	.st1{fill:#404040;}
	.st2{opacity:0.94;}
	.st3{fill:#FFFFFF;}
	.st4{opacity:0.8;fill:#F2F2F2;enable-background:new    ;}
	.st5{fill:#F7A238;}
	.st6{fill:#00A5DC;}
	.st7{fill:#164F86;}
	.st8{fill:#36A85D;}
	.st9{fill:#DB1F26;}
	.st10{fill:#FFF34D;}
	.st11{fill:#F26524;}
	.st12{fill:#B57AB4;}
	.st13{fill:#EF4782;}
	.st14{fill:#0088C5;}
	.st15{fill:#BCBCBC;}
	.st16{fill:none;stroke:#FFF34D;stroke-width:7;stroke-miterlimit:10;}
	.st17{fill:#F2F2F2;}
</style>
<title>modelr</title>
<polygon class="st0" points="718.9,224 369,22 369,22 19.1,224 19.1,628 369,830 718.9,628 "/>
<path class="st1" d="M736.4,638.4V214.1l-29.3-16.9L429.3,36.8L369,2l-60.3,34.8L30.9,197.2L1.6,214.1v424.3l29.3,16.9l281.3,162.4
	l56.9,32.8l56.9-32.8l281.3-162.4L736.4,638.4z M30.9,622.5V232.1L369,36.8l0,0l338.1,195.2v390.4L369,817.7L30.9,622.5z"/>
<g class="st2">
	<path class="st3" d="M198.4,563c0-6.4-0.1-11.7-0.5-16.9h9.4l0.5,10.1h0.4c3.3-5.9,8.8-11.5,18.5-11.5c8,0,14.1,5.2,16.7,12.5h0.2
		c1.6-3.1,3.8-5.9,6.6-8.1c3.7-3,8.3-4.6,13-4.4c7.8,0,19.4,5.4,19.4,27.1v36.8H272v-35.3c0-12-4.1-19.2-12.8-19.2
		c-6.1,0-10.8,4.8-12.7,10.3c-0.6,1.8-0.8,3.7-0.9,5.7v38.6h-10.5v-37.4c0-9.9-4.1-17.2-12.3-17.2c-6.7,0-11.6,5.7-13.3,11.3
		c-0.6,1.8-0.9,3.7-0.9,5.5v37.7h-10.5V563z"/>
	<path class="st3" d="M350.7,576.8c0,23.1-15.1,33.2-29.3,33.2c-15.9,0-28.2-12.4-28.2-32.1c0-20.9,12.9-33.2,29.2-33.2
		C339.3,544.7,350.7,557.7,350.7,576.8z M304,577.5c0,13.7,7.4,24,17.9,24c10.2,0,17.9-10.2,17.9-24.3c0-10.6-5-24-17.6-24
		S304,565.6,304,577.5L304,577.5z"/>
	<path class="st3" d="M412.7,517v75.5c0,5.5,0.1,11.9,0.5,16.1h-9.6l-0.5-10.8h-0.2c-3.3,7-10.5,12.2-20.1,12.2
		c-14.2,0-25.2-12.8-25.2-31.7c-0.1-20.8,12-33.5,26.4-33.5c9,0,15.1,4.5,17.8,9.5h0.3V517H412.7z M402,571.5c0-1.6-0.1-3.2-0.5-4.8
		c-1.6-7.2-7.4-13.2-15.5-13.2c-11.1,0-17.6,10.3-17.6,24.1c0,12.6,5.8,23.1,17.4,23.1c7.2,0,13.8-5,15.7-13.5
		c0.4-1.6,0.5-3.3,0.5-4.9L402,571.5z"/>
	<path class="st3" d="M434,579.4c0.2,15.3,9.5,21.7,20.2,21.7c7.7,0,12.3-1.4,16.3-3.2l1.8,8.2c-3.8,1.8-10.2,3.9-19.6,3.9
		c-18.1,0-29-12.6-29-31.5s10.5-33.7,27.6-33.7c19.2,0,24.3,17.9,24.3,29.4c0,1.8-0.1,3.5-0.4,5.3L434,579.4z M465.4,571.3
		c0.1-7.2-2.8-18.5-14.8-18.5c-10.8,0-15.6,10.6-16.4,18.5H465.4z"/>
	<path class="st3" d="M486.5,517h10.7v91.6h-10.7V517z"/>
	<path class="st3" d="M512.8,565.6c0-7.3-0.1-13.7-0.5-19.5h9.4l0.4,12.2h0.5c2.7-8.4,9.1-13.7,16.3-13.7c1,0,2,0.1,3,0.4v10.7
		c-1.2-0.3-2.4-0.4-3.7-0.4c-7.5,0-12.9,6.1-14.4,14.6c-0.3,1.7-0.5,3.5-0.5,5.3v33.3h-10.5V565.6z"/>
</g>
<polyline class="st4" points="349.4,67.5 353.6,65.1 357.8,67.5 357.8,72.4 353.6,74.7 349.4,72.3 349.4,67.5 "/>
<polyline class="st4" points="284.2,113.7 288.8,111.1 293.3,113.7 293.3,118.9 288.8,121.5 284.2,118.9 284.2,113.7 "/>
<polyline class="st4" points="447.1,90.4 453.4,86.8 459.8,90.4 459.8,97.7 453.4,101.3 447.1,97.7 447.1,90.4 "/>
<polyline class="st4" points="345.7,230.6 352,227 358.4,230.6 358.4,237.9 352,241.4 345.7,237.9 345.7,230.6 "/>
<polyline class="st4" points="251.5,633 257.8,629.4 264.2,633 264.2,640.3 257.8,643.9 251.5,640.3 251.5,633 "/>
<polyline class="st4" points="377.4,138.9 380.6,137.1 383.7,138.9 383.7,142.5 380.6,144.3 377.4,142.5 377.4,138.9 "/>
<polyline class="st4" points="404.1,190.7 409.2,187.8 414.3,190.7 414.3,196.6 409.2,199.5 404.1,196.6 404.1,190.7 "/>
<polygon class="st5" points="375.4,77.8 375.4,82.7 379.6,85.1 383.7,82.7 383.7,77.8 379.6,75.4 "/>
<polygon class="st5" points="354.7,150 354.7,153.6 357.9,155.4 361,153.6 361,150 357.9,148.2 "/>
<polygon class="st5" points="401.1,118.7 401.1,113.8 396.9,111.5 392.7,113.8 392.7,118.7 396.9,121.1 "/>
<polygon class="st5" points="315.4,208.7 315.4,211.8 318.1,213.4 320.8,211.8 320.8,208.7 318.1,207.1 "/>
<polygon class="st6" points="347.9,98.9 347.9,103.7 352.1,106.1 356.2,103.7 356.2,98.9 352.1,96.5 "/>
<polygon class="st6" points="442.9,197.8 442.9,202.6 447.1,205 451.2,202.6 451.2,197.8 447.1,195.4 "/>
<polygon class="st6" points="522.2,165.6 522.2,161.8 518.9,160 515.6,161.8 515.6,165.6 518.9,167.5 "/>
<polygon class="st6" points="315.4,170.9 315.4,174.4 318.3,176 321.2,174.4 321.2,170.9 318.3,169.3 "/>
<polygon class="st6" points="284.9,196 284.9,200.8 289.1,203.1 293.1,200.8 293.1,196 289.1,193.7 "/>
<polygon class="st7" points="426.9,136.7 426.9,141.9 431.4,144.4 435.8,141.9 435.8,136.7 431.4,134.2 "/>
<polygon class="st8" points="425.2,84.6 425.2,77.3 419,73.7 412.7,77.3 412.7,84.6 419,88.2 "/>
<polygon class="st7" points="302.3,713.9 302.3,721.2 308.6,724.8 314.8,721.2 314.8,713.9 308.6,710.3 "/>
<polygon class="st9" points="491.9,696.1 491.9,688.8 485.7,685.2 479.4,688.8 479.4,696.1 485.7,699.7 "/>
<polygon class="st8" points="362.9,660 362.9,667.3 369.2,670.9 375.5,667.3 375.5,660 369.2,656.4 "/>
<polygon class="st9" points="312,145.3 312,139.8 307.4,137.1 302.6,139.8 302.6,145.3 307.4,148 "/>
<polygon class="st10" points="319.5,116.4 319.5,120.9 323.5,123.2 327.4,120.9 327.4,116.4 323.5,114.2 "/>
<polyline class="st4" points="150.5,204.4 155.2,201.8 159.9,204.4 159.9,209.8 155.2,212.5 150.5,209.8 150.5,204.4 "/>
<polyline class="st6" points="105.1,317.4 111.5,313.9 117.8,317.5 117.8,324.8 111.5,328.4 105.1,324.7 105.1,317.4 "/>
<polyline class="st10" points="171.1,243.3 176.3,240.4 181.5,243.3 181.5,249.3 176.3,252.3 171.1,249.3 171.1,243.3 "/>
<polyline class="st10" points="84.6,256 89.8,253.1 95,256 95,262 89.8,265 84.6,262 84.6,256 "/>
<polyline class="st10" points="78.2,578.1 83.1,575.3 88,578.1 88,583.7 83.1,586.5 78.2,583.7 78.2,578.1 "/>
<polygon class="st10" points="247.2,182.1 247.2,187.1 251.6,189.6 255.9,187.1 255.9,182.1 251.6,179.6 "/>
<polygon class="st10" points="404,220.3 404,225.4 408.4,227.9 412.7,225.4 412.7,220.3 408.4,217.9 "/>
<polygon class="st10" points="433.2,176.4 433.2,173.9 431.1,172.6 428.9,173.9 428.9,176.4 431.1,177.7 "/>
<polygon class="st10" points="83.1,303 83.1,306.9 86.5,308.8 89.8,306.9 89.8,303 86.5,301.1 "/>
<polygon class="st7" points="135.1,247.5 135.1,251.2 138.3,253 141.4,251.2 141.4,247.5 138.3,245.8 "/>
<polygon class="st10" points="48.7,270.7 48.7,275.4 52.8,277.7 56.8,275.4 56.8,270.7 52.8,268.4 "/>
<polygon class="st10" points="172.2,204.8 172.2,209.4 176.3,211.8 180.3,209.4 180.3,204.8 176.3,202.5 "/>
<polygon class="st9" points="198.5,177.2 198.5,180.4 201.3,182 204,180.4 204,177.2 201.3,175.6 "/>
<polygon class="st9" points="208,233.4 208,236.6 210.8,238.1 213.6,236.6 213.6,233.4 210.8,231.8 "/>
<polygon class="st8" points="210.8,206.1 210.8,211 215.1,213.4 219.2,211 219.2,206.1 215.1,203.7 "/>
<polygon class="st8" points="92.4,228.9 88.5,226.7 84.6,228.9 84.6,233.5 88.5,235.8 92.4,233.5 "/>
<polygon class="st9" points="116.5,272.1 116.5,268.4 113.4,266.6 110.1,268.4 110.1,272.1 113.4,274 "/>
<polygon class="st9" points="93.2,460.4 93.2,464.1 96.5,466 99.6,464.1 99.6,460.4 96.5,458.6 "/>
<polygon class="st10" points="83.1,375.5 83.1,379.4 86.5,381.3 89.8,379.4 89.8,375.5 86.5,373.6 "/>
<polygon class="st11" points="111.2,395.2 111.2,399.7 115.1,401.9 118.9,399.7 118.9,395.2 115.1,393 "/>
<polygon class="st7" points="135.1,340.1 135.1,343.7 138.3,345.5 141.4,343.7 141.4,340.1 138.3,338.3 "/>
<polygon class="st7" points="122.6,428.3 122.6,435.6 128.9,439.2 135.1,435.6 135.1,428.3 128.9,424.7 "/>
<polygon class="st9" points="116.5,364.6 116.5,360.9 113.4,359.1 110.1,360.9 110.1,364.6 113.4,366.5 "/>
<polygon class="st9" points="104.3,548.6 104.3,552.4 107.6,554.2 110.7,552.4 110.7,548.6 107.6,546.8 "/>
<polyline class="st4" points="298.2,234 302.6,231.5 307,234 307,239.1 302.6,241.6 298.2,239.1 298.2,234 "/>
<polyline class="st12" points="184.3,682.6 187.4,680.8 190.6,682.6 190.6,686.2 187.4,688 184.3,686.2 184.3,682.6 "/>
<polyline class="st12" points="227.1,637.5 230.2,635.7 233.4,637.5 233.4,641.1 230.2,642.9 227.1,641.1 227.1,637.5 "/>
<polyline class="st4" points="48,327 52.7,324.4 57.4,327.1 57.4,332.5 52.7,335.1 48,332.4 48,327 "/>
<polyline class="st6" points="144.2,517 150.5,513.4 156.9,517 156.9,524.3 150.5,527.9 144.2,524.3 144.2,517 "/>
<polygon class="st5" points="60.5,438.4 60.5,432.3 55.3,429.3 49.9,432.3 49.9,438.4 55.3,441.5 "/>
<polygon class="st5" points="201.7,656 201.7,658.2 203.6,659.2 205.4,658.2 205.4,656 203.6,655 "/>
<polygon class="st7" points="250.3,716.5 250.3,718.5 252.1,719.5 253.8,718.5 253.8,716.5 252.1,715.6 "/>
<polygon class="st7" points="291.3,649.3 291.3,651.3 293,652.3 294.7,651.3 294.7,649.3 293,648.3 "/>
<polygon class="st7" points="93.9,629.4 93.9,631.4 95.6,632.3 97.3,631.4 97.3,629.4 95.6,628.4 "/>
<polygon class="st7" points="50,387.4 50,382 45.5,379.4 40.8,382 40.8,387.4 45.5,390 "/>
<polygon class="st5" points="221.8,154.5 221.8,160 226.6,162.7 231.2,160 231.2,154.5 226.6,151.8 "/>
<polygon class="st5" points="504.2,222.4 504.2,216.9 499.6,214.2 494.8,216.9 494.8,222.4 499.6,225.1 "/>
<polygon class="st7" points="250.9,239.5 250.9,234.8 246.9,232.5 242.8,234.8 242.8,239.5 246.9,241.8 "/>
<polygon class="st7" points="262.9,149.5 262.9,154.2 266.9,156.5 271,154.2 271,149.5 266.9,147.1 "/>
<polygon class="st7" points="377.9,740.7 377.9,744.7 381.3,746.6 384.7,744.7 384.7,740.7 381.3,738.7 "/>
<polygon class="st10" points="122.2,502.6 122.2,506.5 125.6,508.4 128.9,506.5 128.9,502.6 125.6,500.7 "/>
<polygon class="st10" points="59.1,483.1 59.1,487.8 63.2,490.1 67.2,487.8 67.2,483.1 63.2,480.9 "/>
<polyline class="st4" points="90.3,500.2 95,497.5 99.7,500.2 99.7,505.6 95,508.2 90.3,505.6 90.3,500.2 "/>
<polyline class="st4" points="604.8,261.1 608.5,259 612.1,261.1 612.1,265.3 608.5,267.4 604.8,265.3 604.8,261.1 "/>
<polyline class="st4" points="617.1,228.4 619.9,226.9 622.6,228.4 622.6,231.6 619.9,233.1 617.1,231.6 617.1,228.4 "/>
<polyline class="st4" points="455.5,128 459.5,125.7 463.6,128 463.6,132.7 459.5,135 455.5,132.7 455.5,128 "/>
<polyline class="st4" points="480.5,188.3 484.6,186 488.7,188.3 488.7,193 484.6,195.3 480.5,193 480.5,188.3 "/>
<polyline class="st4" points="401.1,165 405.1,162.7 409.2,165 409.2,169.7 405.1,172 401.1,169.7 401.1,165 "/>
<polyline class="st4" points="280.9,729.7 284.4,727.7 287.8,729.7 287.8,733.7 284.4,735.6 280.9,733.6 280.9,729.7 "/>
<polyline class="st4" points="345.5,753 349,751.1 352.4,753 352.4,757 349,759 345.5,757 345.5,753 "/>
<polyline class="st10" points="443.8,697.8 445.9,696.6 448.1,697.8 448.1,700.3 445.9,701.6 443.8,700.3 443.8,697.8 "/>
<polyline class="st4" points="508.4,692.9 510.5,691.7 512.7,692.9 512.7,695.4 510.5,696.6 508.4,695.4 508.4,692.9 "/>
<polyline class="st4" points="588.9,637.7 591.3,636.4 593.7,637.8 593.7,640.5 591.3,641.9 588.9,640.5 588.9,637.7 "/>
<polyline class="st5" points="544.6,175.7 549.2,173.1 553.7,175.7 553.7,180.9 549.2,183.5 544.6,180.9 544.6,175.7 "/>
<polygon class="st4" points="672.9,256.6 669.3,258.6 669.3,262.7 672.9,264.8 676.5,262.7 676.5,258.6 "/>
<polyline class="st4" points="561.3,250.5 564,249 566.7,250.5 566.7,253.6 564,255.1 561.3,253.6 561.3,250.5 "/>
<polygon class="st5" points="657.2,230.4 657.2,226.8 654.1,225.1 651,226.8 651,230.4 654.1,232.1 "/>
<polygon class="st8" points="626.3,251.6 626.3,256 630.2,258.2 634,256 634,251.6 630.2,249.4 "/>
<polyline class="st4" points="681,296.3 684.2,294.5 687.3,296.3 687.3,299.9 684.2,301.7 681,299.9 681,296.3 "/>
<polygon class="st8" points="99.6,429.6 99.6,434.2 103.6,436.5 107.5,434.2 107.5,429.6 103.6,427.4 "/>
<polygon class="st9" points="173.1,532.2 173.1,536 176.3,537.8 179.5,536 179.5,532.2 176.3,530.4 "/>
<polygon class="st9" points="612.8,532.2 612.8,536 616,537.8 619.2,536 619.2,532.2 616,530.4 "/>
<polygon class="st10" points="128.9,579 128.9,575.1 125.6,573.2 122.2,575.1 122.2,579 125.6,580.9 "/>
<polygon class="st11" points="150.2,594.8 150.2,599.3 154.2,601.5 158,599.3 158,594.8 154.2,592.6 "/>
<polygon class="st9" points="155.6,564.2 155.6,560.5 152.4,558.7 149.2,560.5 149.2,564.2 152.4,566 "/>
<polygon class="st5" points="59.1,609.1 59.1,615.2 64.4,618.2 69.7,615.2 69.7,609.1 64.4,606.1 "/>
<polygon class="st7" points="64.4,542.5 64.4,547.8 69.1,550.5 73.6,547.8 73.6,542.5 69.1,539.8 "/>
<polygon class="st10" points="131.1,620.3 131.1,616.2 127.6,614.1 124,616.2 124,620.3 127.6,622.4 "/>
<polygon class="st10" points="233.4,662.2 233.4,665.1 235.9,666.5 238.4,665.1 238.4,662.2 235.9,660.7 "/>
<polygon class="st9" points="475.9,672.3 475.9,675 478.2,676.3 480.5,675 480.5,672.3 478.2,671 "/>
<polygon class="st9" points="347.3,732.4 347.3,734.4 349,735.4 350.7,734.4 350.7,732.4 349,731.5 "/>
<polygon class="st13" points="248.1,693.1 248.1,695.7 250.4,697 252.6,695.7 252.6,693.1 250.4,691.8 "/>
<polygon class="st13" points="168.3,655.9 168.3,658.5 170.6,659.8 172.8,658.5 172.8,655.9 170.6,654.7 "/>
<polygon class="st14" points="596.2,284.3 596.2,289 600.3,291.4 604.4,289 604.4,284.3 600.3,282 "/>
<polygon class="st7" points="663.5,426.5 663.5,430.1 666.7,432 669.8,430.1 669.8,426.5 666.7,424.7 "/>
<polygon class="st7" points="470.4,158.5 470.4,164.4 475.5,167.3 480.5,164.4 480.5,158.5 475.5,155.6 "/>
<polygon class="st7" points="344.3,195.4 344.3,201.3 349.4,204.2 354.5,201.3 354.5,195.4 349.4,192.5 "/>
<polygon class="st8" points="351.2,179.1 351.2,182.1 353.7,183.5 356.2,182.1 356.2,179.1 353.7,177.7 "/>
<polygon class="st8" points="635.2,328 635.2,331.5 638.3,333.3 641.3,331.5 641.3,328 638.3,326.2 "/>
<polygon class="st5" points="514.7,199.8 514.7,202.8 517.3,204.2 519.8,202.8 519.8,199.8 517.3,198.4 "/>
<polygon class="st7" points="594.7,231.6 594.7,226.3 590.2,223.8 585.7,226.3 585.7,231.6 590.2,234.2 "/>
<polygon class="st7" points="612.3,197.8 612.3,194.3 609.3,192.5 606.2,194.3 606.2,197.8 609.3,199.6 "/>
<polygon class="st8" points="558.8,220.3 558.8,215.1 554.4,212.5 549.9,215.1 549.9,220.3 554.4,222.9 "/>
<polygon class="st8" points="495,137 495,142.2 499.6,144.8 504,142.2 504,137 499.6,134.4 "/>
<polygon class="st8" points="394.4,654 394.4,657.6 397.5,659.4 400.5,657.6 400.5,654 397.5,652.2 "/>
<polygon class="st8" points="132,650.5 132,654.1 135.1,655.9 138.2,654.1 138.2,650.5 135.1,648.8 "/>
<polygon class="st9" points="216.3,696.3 216.3,700.3 219.7,702.3 223.2,700.3 223.2,696.3 219.7,694.4 "/>
<polygon class="st5" points="329.4,660 329.4,664 332.9,666 336.2,664 336.2,660 332.9,658.1 "/>
<polygon class="st5" points="410.2,722 410.2,726 413.6,727.9 417,726 417,722 413.6,720 "/>
<polygon class="st7" points="458.7,694.6 458.7,698.6 462.1,700.6 465.5,698.6 465.5,694.6 462.1,692.7 "/>
<polygon class="st7" points="316.7,740.3 316.7,742.9 318.9,744.2 321.1,742.9 321.1,740.3 318.9,739.1 "/>
<polygon class="st7" points="362.4,769 362.4,772.3 365.2,773.9 367.9,772.3 367.9,769 365.2,767.5 "/>
<polygon class="st10" points="298.8,693.5 298.8,695.5 300.5,696.5 302.3,695.5 302.3,693.5 300.5,692.5 "/>
<polygon class="st5" points="494.4,644.9 494.4,640.9 491,639 487.5,640.9 487.5,644.9 491,646.8 "/>
<polygon class="st9" points="563.9,612.9 563.9,615.3 566,616.5 568.1,615.3 568.1,612.9 566,611.7 "/>
<polygon class="st9" points="524,691.8 524,695 526.7,696.6 529.5,695 529.5,691.8 526.7,690.2 "/>
<polygon class="st7" points="557,666 557,668.4 559,669.5 561,668.4 561,666 559,664.9 "/>
<polygon class="st10" points="492.7,668.4 492.7,670.4 494.4,671.4 496.1,670.4 496.1,668.4 494.4,667.4 "/>
<polygon class="st8" points="538.6,649.8 538.6,654.8 542.9,657.2 547.1,654.8 547.1,649.8 542.9,647.4 "/>
<polygon class="st5" points="691.7,336.5 691.7,332.9 688.6,331.2 685.6,332.9 685.6,336.5 688.6,338.2 "/>
<polygon class="st8" points="643.7,294.2 643.7,298.6 647.5,300.8 651.3,298.6 651.3,294.2 647.5,292 "/>
<polygon class="st12" points="695.9,392.9 691.4,395.4 691.4,400.6 695.9,403.2 700.4,400.7 700.4,395.5 "/>
<polygon class="st4" points="585.8,467.3 585.8,463.1 582.2,461.1 578.6,463.1 578.6,467.3 582.2,469.4 "/>
<polygon class="st5" points="579.3,539.9 579.3,544.4 583.2,546.5 586.9,544.4 586.9,539.9 583.2,537.7 "/>
<polygon class="st13" points="590,585.7 590,590.9 594.6,593.5 599,590.9 599,585.7 594.6,583.1 "/>
<polyline class="st4" points="613.9,578.8 618.2,576.4 622.4,578.8 622.4,583.7 618.2,586 613.9,583.6 613.9,578.8 "/>
<polyline class="st4" points="643,460.6 646.6,458.6 650.2,460.6 650.2,464.8 646.6,466.8 643,464.8 643,460.6 "/>
<polyline class="st4" points="654.8,498.4 657.9,496.6 661,498.4 661,502 657.9,503.8 654.8,502 654.8,498.4 "/>
<polyline class="st12" points="665.1,597.5 669.6,594.9 674.2,597.5 674.2,602.7 669.6,605.2 665.1,602.7 665.1,597.5 "/>
<path class="st3" d="M365.4,799.2l4.5,4.5c1,1,1.9,1.9,2.7,2.9h0.1c-0.4-1.2-0.7-2.5-1-3.8l-1.4-6.3l1.6-0.9l4.7,4.3
	c1.1,1,2.1,2,2.9,2.9h0.1c-0.5-1.3-0.9-2.5-1.2-3.8l-1.6-6.1l1.9-1.1l2.7,12.4l-1.7,1l-4.5-4.1c-1-1-2-1.8-2.9-2.9l0,0
	c0.4,1.3,0.8,2.6,1.1,4l1.2,6l-1.7,1l-9.2-8.6L365.4,799.2z"/>
<path class="st3" d="M381.6,789.8l4.5,4.5c1,1,1.9,1.9,2.7,2.9h0.1c-0.4-1.2-0.7-2.5-1-3.8l-1.4-6.3l1.6-0.9l4.7,4.3
	c1.1,1,2.1,2,2.9,2.9h0.1c-0.5-1.3-0.9-2.6-1.2-3.9l-1.5-6.2l1.9-1.1l2.7,12.4l-1.7,1l-4.5-4.1c-1-1-2-1.8-2.9-2.9l0,0
	c0.4,1.3,0.8,2.6,1.1,4l1.2,6l-1.7,1l-9.3-8.5L381.6,789.8z"/>
<path class="st3" d="M397.8,780.4l4.5,4.5c1,1,1.9,1.9,2.7,2.9h0.1c-0.4-1.2-0.7-2.5-1-3.8l-1.4-6.3l1.6-0.9l4.7,4.3
	c1.1,1,2.1,2,2.9,2.9h0.1c-0.5-1.3-0.9-2.6-1.2-3.9l-1.6-6.1l1.9-1.2l2.7,12.4l-1.7,1l-4.5-4.1c-1-1-2-1.8-2.9-2.9l0,0
	c0.4,1.3,0.8,2.6,1.1,4l1.2,6l-1.7,1l-9.2-8.6L397.8,780.4z"/>
<path class="st3" d="M417,781.7c-0.5-0.7-0.3-1.6,0.4-2.1c0,0,0.1,0,0.1-0.1c0.7-0.5,1.7-0.3,2.2,0.5c0.5,0.7,0.3,1.7-0.5,2.2
	C418.5,782.7,417.5,782.5,417,781.7C417,781.7,417,781.7,417,781.7z"/>
<path class="st3" d="M418.4,772.7c-0.7-1.2-1.4-2.3-2-3.2l1.7-1l1.3,2l0.1,0c-0.4-1.5,0.2-3.2,1.6-4c0.2-0.1,0.4-0.2,0.6-0.2l1,1.8
	c-0.2,0.1-0.5,0.2-0.7,0.3c-1.3,0.8-1.8,2.5-1.1,3.9c0.1,0.3,0.3,0.6,0.4,0.9l3.2,5.6l-1.9,1.1L418.4,772.7z"/>
<path class="st3" d="M428.3,774c1,0,2.1-0.2,3-0.7c1.4-0.8,1.6-1.9,1.1-2.7s-1.4-1.1-3.1-0.8c-2.3,0.4-3.8-0.1-4.5-1.3
	c-1-1.7-0.4-3.9,1.8-5.2c0.9-0.5,1.9-0.8,3-0.8l0.3,1.7c-0.9,0-1.7,0.2-2.5,0.6c-0.9,0.4-1.3,1.4-1,2.3c0,0,0,0.1,0.1,0.1
	c0.5,0.9,1.4,0.9,3,0.6c2.2-0.4,3.7,0,4.6,1.5c1.1,1.8,0.4,4-2.1,5.4c-1,0.6-2.2,1-3.4,1L428.3,774z"/>
<path class="st3" d="M432.7,756l1.8,3l2.7-1.6l0.8,1.4l-2.7,1.6l3.3,5.6c0.8,1.3,1.5,1.8,2.6,1.2c0.4-0.2,0.7-0.5,1-0.8l0.9,1.4
	c-0.4,0.5-0.9,0.9-1.5,1.2c-0.7,0.5-1.7,0.6-2.5,0.4c-1-0.5-1.9-1.3-2.3-2.3l-3.3-5.7l-1.6,0.9l-0.9-1.4l1.6-1l-1.5-2.5L432.7,756z"
	/>
<path class="st3" d="M452.5,758.7c0.6,1.1,1.2,2,1.7,2.8l-1.7,1l-1.1-1.6h0c0,1.7-0.9,3.2-2.3,4c-1.6,1-4.1,1.2-6.3-2.5l-3.6-6.1
	l1.9-1.1l3.4,5.8c1.1,2,2.5,3,4.3,2c1.1-0.7,1.7-1.9,1.5-3.2c-0.1-0.4-0.2-0.7-0.4-1.1l-3.7-6.4l1.9-1.1L452.5,758.7z"/>
<path class="st3" d="M457.4,739.2l7.4,12.6c0.5,0.9,1.2,2,1.7,2.7l-1.7,1l-1.1-1.8h0c0.1,1.7-0.8,3.3-2.4,4.1
	c-2.5,1.5-5.7,0.5-7.6-2.7c-2-3.5-1.1-6.9,1.4-8.3c1.2-0.8,2.8-0.9,4.1-0.2l0,0l-3.6-6.2L457.4,739.2z M460.8,749.4
	c-0.2-0.3-0.3-0.5-0.5-0.8c-1-1.1-2.7-1.4-4-0.6c-2,1.1-2.1,3.5-0.8,5.9c1.2,2.1,3.3,3.3,5.3,2.1c1.3-0.8,2-2.4,1.5-3.9
	c-0.1-0.3-0.2-0.6-0.4-0.9L460.8,749.4z"/>
<path class="st3" d="M463.8,738c0.3,0.7,0.1,1.5-0.6,1.8c-0.6,0.3-1.4,0.1-1.7-0.5c-0.4-0.6-0.2-1.5,0.4-1.9c0,0,0,0,0.1,0
	C462.5,737.1,463.4,737.3,463.8,738C463.8,737.9,463.8,738,463.8,738z M469.5,752.6l-6.1-10.5l1.9-1.1l6.1,10.5L469.5,752.6z"/>
<path class="st3" d="M480.9,738.9c2.2,3.9,0.5,7.1-2,8.6c-2.8,1.6-6.2,0.8-8.1-2.5c-2-3.5-0.9-6.9,2-8.6S479,735.7,480.9,738.9z
	 M472.7,743.8c1.3,2.3,3.6,3.2,5.5,2.2s2.2-3.6,0.8-5.9c-1-1.8-3.2-3.5-5.5-2.2S471.5,741.8,472.7,743.8z"/>
<path class="st3" d="M484.8,742.2c-0.4-0.7-0.1-1.6,0.6-2c0.7-0.4,1.6-0.1,2,0.6c0.4,0.7,0.1,1.6-0.6,2c-0.7,0.4-1.6,0.2-2-0.5
	C484.8,742.3,484.8,742.3,484.8,742.2z"/>
<path class="st3" d="M497.6,735.8c-0.7,1-1.6,1.8-2.6,2.3c-3.1,1.8-6.5,0.9-8.3-2.3c-1.8-2.8-1-6.6,1.8-8.5c0.2-0.1,0.4-0.2,0.6-0.3
	c0.9-0.5,1.9-0.9,3-1l0.4,1.7c-0.9,0-1.7,0.3-2.5,0.8c-2.4,1.4-2.7,3.9-1.4,6.1c1.4,2.4,3.8,3,5.9,1.8c0.8-0.5,1.5-1.1,2-1.9
	L497.6,735.8z"/>
<path class="st3" d="M506.2,724.1c2.2,3.9,0.5,7.1-2,8.6c-2.8,1.6-6.2,0.8-8.1-2.5c-2-3.5-1-6.9,2-8.6S504.4,720.9,506.2,724.1z
	 M498,729c1.3,2.3,3.7,3.2,5.5,2.2s2.2-3.6,0.8-5.9c-1-1.8-3.2-3.5-5.5-2.2S496.9,727.1,498,729z"/>
<path class="st3" d="M507.3,720.4c-0.6-1.1-1.2-2-1.7-2.8l1.7-1l1.1,1.6h0.1c-0.1-1.6,0.8-3.1,2.2-3.8c1.3-0.8,3-0.6,4.2,0.4l0,0
	c0-0.7,0.1-1.4,0.4-2c0.4-0.9,1-1.6,1.9-2.1c1.4-0.8,4-1.1,6.1,2.5l3.6,6.2l-1.9,1.1l-3.4-5.9c-1.2-2-2.6-2.8-4.2-1.9
	c-1,0.6-1.5,1.8-1.2,3c0.1,0.4,0.2,0.7,0.4,1l3.8,6.5l-1.9,1.1l-3.6-6.2c-1-1.7-2.4-2.5-3.9-1.6c-1.1,0.7-1.6,2-1.2,3.3
	c0.1,0.4,0.2,0.7,0.4,1l3.7,6.3l-1.9,1L507.3,720.4z"/>
<path class="st15" d="M481.9,457.4c10.7-0.1,14.3-0.2,18-0.6c7-0.6,13.9-2,20.6-4c6.5-2,12.6-4.9,18.3-8.7
	c5.1-3.4,9.7-7.6,13.6-12.4c3.6-4.4,6.6-9.3,9-14.5c2.4-5.1,4.3-10.5,6.2-15.9c3.4-3,6.9-5.8,10.5-8.3c4.8-3.4,11.6-7.7,18.4-12
	c1.2,1.6,2.8,3,4.6,4c2.1,0.9,4.3,1.3,6.6,1.1c3.5,0,6.7-1.9,8.5-5c1.5,1.2,3.2,2.1,5,2.8c2.2,0.8,4.6,1.1,7,0.9
	c2.4-0.3,4.7-1.1,6.7-2.4c1.5-1.1,2.9-2.4,4.1-3.9c2.3-0.1,4.6-0.1,6.9,0c2.9,0.2,5.8,0.6,8.6,1.3c3,0.8,5.7,1.8,7.3,2.1
	s1.9,0.2,2.2-0.4s0.2-1.5,0.2-4.4s-0.1-7.6-0.1-10.3s-0.1-3.3-0.5-3.7c-0.6-0.5-1.3-1-2.1-1.2c-0.9-0.4-1.9-0.9-2.8-1.1
	c-0.7-0.3-1.5-0.4-2.3-0.5c0.9-0.1,1.9-0.1,2.8-0.1c0.9,0,1.9,0.1,2.8,0.2c0.8,0.1,1.4,0.4,1.8,0.4s0.3-0.3,0.3-3.4
	s0.1-9.1,0.2-13.3s0.4-6.7,0.5-8.2s0-1.9-0.4-2.3c-0.5-0.3-1-0.5-1.6-0.6c-0.6-0.1-1.2-0.2-1.7-0.2c0.3-0.4,0.6-0.9,1-1.3
	c0.4-0.3,0.7-0.8,1-1.2c0.2-0.5,0.2-1.1,0.2-3.5s0-6.5,0-8.9s0-3-0.2-3.5c-0.2-0.4-0.5-0.7-0.9-0.8c-0.7-0.1-1.4,0-2,0.2
	c-1.2,0.3-3,0.8-4.8,1.4s-3.8,1.3-5.7,1.7c-1.8,0.5-3.7,0.7-5.5,0.8c-1.9,0.1-4.1,0.1-6.2,0c-0.7-1-1.4-1.9-2.3-2.7
	c-1-1-2.2-1.8-3.5-2.3c-1.5-0.7-3.2-1.2-4.8-1.4c-1.7-0.1-3.5,0-5.2,0.5c-1.5,0.5-2.8,1.2-4,2.1c-1,0.8-1.8,1.7-2.5,2.8
	c-1.9-2.5-4.9-3.9-8-3.9c-1.8,0-3.5,0.4-5.1,1c-1.7,0.8-3.4,1.7-5,2.7c-1.8-0.8-3.6-1.6-8.7-4.3s-13.3-7-21.6-11.4
	c-2.9-5.3-5.9-10.6-8.8-15.4c-2.8-4.6-6-9-9.6-13c-7.3-7.6-15.6-14-24.8-19.1c-4.7-2.3-9.7-4.1-14.9-5.2c-4.8-1.1-9.7-1.8-14.7-2
	c-5.7-0.3-12.9-0.4-43.5,0.8s-84.8,3.7-130.7,5.7s-83.9,3.6-106.3,4.6s-29.5,1.3-35.2,2.1s-10.4,2.3-14,4.6c-3.8,2.4-6.7,6-8.2,10.2
	c-1.7,4.6-2.3,10.4-2.6,14.7s-0.2,7.1,0.4,25.7s1.6,52.7,2.2,73.6s0.6,28.4,0.7,34.1s0.1,9.6,1.1,13.4c2.6,8.8,9.1,15.8,17.6,19.1
	c5.1,1.8,11.5,2.5,21.8,2.7c7.4,0.2,16.8,0.1,39,0L481.9,457.4z M561.3,298.4c0.4,1.1,0.7,2.3,0.9,3.4c0.3,1.6,0.8,4,1.2,7.5
	c0.5,4.7,0.7,9.5,0.7,14.2c0,5.8,0.9,13.6,1,20.5c0.5-8.9,1.2-21.5,1.5-27.5c0.1-3.5,0.1-4.6,0-5.8c4.8,2.4,9.6,4.7,13.2,6.3
	c2.5,1.1,5.1,2,7.8,2.7c0.9,0.2,1.8,0.3,2.8,0.1c-8-4.2-16.1-8.4-20.1-11.2c-1.2-0.8-2.2-1.7-3-2.8l28.2,15.3
	c0.3,18.4,0.6,36.8,0.9,55.1c-10.7,7.7-21.5,15.4-32.3,23c-0.5,1.8-1,3.6-2,6.6c-1.2,4.1-2.8,8.1-4.7,12c-2.5,5-5.7,9.7-9.3,13.9
	c-3.8,4.2-8.1,7.9-13,10.8c-5.5,3.4-11.5,6-17.7,7.7c-6.9,1.9-14.7,3.1-27.5,3.7s-30.7,0.6-50.2,0.6s-40.5-0.1-58-0.1
	s-31.3,0.1-50.6,0.1s-43.9,0.2-65,0.2s-38.7-0.2-52-0.4s-22.6-0.4-29.1-1.4s-10.6-3-14-6c-3.5-3-6.2-6.9-7.8-11.3
	c-1.5-4.4-1.7-9.2-2.1-24s-0.9-39.6-1.6-61.1s-1.4-39.8-1.6-51.3s0.3-16.2,1.4-20.2c0.9-3.7,2.9-7.2,5.6-9.9
	c2.9-2.6,6.5-4.5,10.3-5.4c4-1,8.3-1.3,13.2-1.7s10.5-0.6,23.3-1.2s32.7-1.3,55.9-2.3s49.7-2.3,72.4-3.3s41.6-2,60.1-2.8
	s36.7-1.6,48.8-2.1s18.1-0.8,24.4-0.9s12.7-0.1,18.6,0.2c5.5,0.3,10.9,0.9,16.2,2c4.9,0.9,9.7,2.4,14.2,4.5
	c4.6,2.3,8.9,5.1,12.9,8.4c4.4,3.5,8.6,7.3,12.4,11.5c3.3,3.8,6.2,7.9,8.7,12.3C558.1,291.7,559.8,295.1,561.3,298.4L561.3,298.4z
	 M599.6,319.4c1-1.1,2.2-2,3.4-2.8c1.3-0.8,2.8-1.2,4.4-1.3c1.6,0,3.1,0.5,4.3,1.4c1.7,1.2,2.8,3,3.1,5c0.6,2.6,0.5,6.5,0.5,12.3
	s0.1,13.4,0.1,21.1c-0.3-7.5-0.7-15-0.9-20s-0.3-7.8-0.6-9.7c-0.1-1.4-0.6-2.8-1.3-4c-0.5-0.9-1.3-1.7-2.3-2.2
	c-1.2-0.6-2.6-0.9-4-0.9c-1.5,0-2.9,0.2-4.4,0.5C601.2,318.9,600.4,319.1,599.6,319.4L599.6,319.4z M615.9,370.7
	c0.1,0.7,0.1,1.4,0.1,2.1c0,1.3-0.1,2.6-0.4,3.8c-0.2,1.4-0.8,2.7-1.6,3.9c-0.8,1.2-1.9,2.1-3.3,2.7c-1.5,0.6-3,0.7-4.6,0.4
	c-1.6-0.3-3.1-1-4.2-2.2c-1.1-1.2-2-2.7-2.4-4.4c-0.5-1.7-0.8-3.4-0.8-5.1c-0.1-1.7,0-3.5,0.1-5.2c0.3,2.1,0.7,4.2,1.3,6.3
	c0.5,1.8,1.4,3.5,2.8,4.9c1.2,1.3,2.9,2.1,4.6,2.3c1.6,0.2,3.2-0.1,4.6-0.9c1.1-0.7,2.1-1.8,2.7-3c0.5-1,0.8-2.1,0.9-3.2
	C615.7,372.3,615.8,371.5,615.9,370.7L615.9,370.7z M618.5,377.4c0.5,1,1.2,1.9,2.1,2.7c1.3,1.1,2.9,1.8,4.5,2.1
	c1.8,0.2,3.6,0,5.3-0.6c1.7-0.6,3.2-1.5,4.5-2.7c1-1,1.8-2.2,2.3-3.5v-12.5c-0.1,2.6-0.5,5.2-0.9,7.8c-0.4,2.1-1.2,4.1-2.5,5.8
	c-1.3,1.5-2.9,2.6-4.7,3.2c-1.6,0.6-3.3,0.8-4.9,0.6c-1.2-0.1-2.4-0.6-3.5-1.2C619.8,378.6,619.1,378,618.5,377.4L618.5,377.4z
	 M631.5,323.1c1,1.1,1.7,2.9,2.1,6.6s0.6,9.5,0.8,15.3s0.2,11.9,0.1,16.2s-0.4,6.9-1.2,9.1c-0.6,2-1.8,3.7-3.5,4.9
	c-1.5,0.9-3.3,1.1-5,0.6c-1.6-0.4-3-1.3-3.9-2.7c-1.4-2-2.3-4.3-2.7-6.7c-0.6-3.2-0.9-7.5-1-14.2s-0.2-15.5-0.2-21.2s0-8,0.4-10
	c0.3-1.7,1.1-3.3,2.3-4.5c1.3-1.3,2.9-2.2,4.7-2.5c2.1-0.4,4.3-0.1,6.2,0.9c2.1,1.1,3.7,3.1,4.5,5.4c0.9,2.5,1,5.6,1.2,12.1
	s0.4,16.4,0.5,26.2c-0.4-9.4-0.8-18.9-1.2-24.8s-0.6-8.3-1.2-10.3c-0.4-1.7-1.3-3.2-2.5-4.5c-1-1-2.3-1.6-3.7-1.9
	c-1.6-0.4-3.3-0.2-4.7,0.6c-2,1.2-3.5,3.1-4.1,5.4c-0.9,2.7-0.9,6.2-1,10.5s-0.1,9.2,0,14.2s0.5,9.7,0.9,12.9c0.2,2.1,0.6,4.2,1,6.3
	c0.2-5.5,0.4-10.9,0.6-17.3s0.7-13.7,1.1-18.5s0.9-6.9,1.9-8.2c0.9-1.2,2.4-1.8,3.8-1.7C629.3,321.3,630.6,322,631.5,323.1
	L631.5,323.1z M611.2,322.6c-0.6-1-1.5-1.7-2.6-1.9c-1.6-0.3-3.3-0.1-4.8,0.6c-1.5,0.8-2.7,2.4-3.4,5.3s-1.1,7.3-1.1,14.7
	c0,8.1,0.3,16.2,1.1,24.2c0.8,6.3,2,8.2,3.5,9.5c1.2,1.1,2.8,1.7,4.4,1.8c1.5,0.2,3-0.6,3.7-2c0.8-1.6,1-4.5,0.9-12.9
	s-0.5-22.4-0.8-29.9S611.7,323.4,611.2,322.6L611.2,322.6z M640,345.7c1.8-0.2,3.7-0.4,5.8-0.5c2.7-0.1,5.3-0.1,8,0.1
	c2.4,0.1,4,0.4,5.7,0.6c-1.7-0.8-3.5-1.3-5.4-1.6c-2.8-0.4-5.6-0.6-8.5-0.7c-1.6-0.1-3.2,0-4.8,0.1c-0.3,0-0.6,0-0.9,0v-0.2
	c-0.1-3-0.1-6.8,0.2-10.8s0.8-8,1.3-12.1c1.8-0.1,3.6-0.2,5.4-0.5c1.9-0.3,3.8-0.7,5.6-1.2c2-0.6,4.2-1.3,5.7-1.7s2.1-0.4,2.5-0.2
	s0.5,0.7,0.5,2.3s0,4.5,0,6.4s0,2.9-0.5,4c-0.8,1.4-1.7,2.7-2.7,3.9c1.1,0.4,2,1,2.9,1.8c0.6,0.8,0.8,1.8,0.9,4.4
	c0.1,2.4,0.2,6.1,0.3,9.2c-1.9-0.2-3.9-0.5-6.1-0.7c-2.8-0.2-6.1-0.4-9.1-0.5c-2.3,0-4.5-0.1-6.6-0.1C640,347.2,640,346.4,640,345.7
	L640,345.7z M640.4,354.9c1.3-0.2,2.7-0.3,4.1-0.4c1.7-0.1,3.4-0.1,5.1,0c1.4,0.1,2.9,0.3,4.3,0.7c1,0.3,1.9,0.7,2.8,1.1
	c-1.6-0.4-3.2-0.6-4.8-0.8c-1.6-0.1-3.3-0.1-4.9,0.2c-1.4,0.2-2.9,0.6-4.2,1.1c-0.8,0.3-1.5,0.7-2.2,1.1c0.1,1.5,0.2,3.1,0.3,4.5
	c0.3,3.5,0.5,6.6,0.7,9.7c2.4,0.1,4.8,0.4,7.2,0.9c2.3,0.5,4.6,1.3,6.8,2.2c1.5,0.7,2.8,1.6,4.1,2.5c0.7,0.5,1.3,1.1,1.9,1.8
	c0-4.5,0.1-9,0.1-11.5s0-2.9-0.4-3.4c-0.7-0.6-1.5-1.1-2.3-1.4c-2.7-1.3-5.6-2.2-8.6-2.8c-1.7-0.3-3.3-0.5-5-0.6c-1-0.1-2,0-2.9,0.1
	c1.5-0.6,3-1,4.6-1.1c2.3-0.3,4.7-0.4,7.1-0.3c2,0.1,4.1,0.3,6.1,0.5c1.3,0.1,1.8,0.2,2,0s0.2-0.6,0.2-2s-0.2-3.1-0.3-6
	c-1.9-0.2-3.8-0.5-6-0.6c-2.7-0.2-5.4-0.2-8.1,0c-1.9,0.1-3.7,0.3-5.5,0.6c-0.8,0.1-1.5,0.3-2.2,0.5v0.5
	C640.3,352.9,640.4,353.9,640.4,354.9L640.4,354.9z"/>
<path class="st15" d="M555.4,411.7c-3,6-7,11.5-11.8,16.3c-3.7,3.6-8,6.7-12.5,9.2c-5.6,2.9-11.6,5-17.7,6.3
	c-8.1,1.7-16.3,2.7-24.6,3.1c-9.8,0.6-21.5,0.8-30.8,0.9s-16.2,0.2-23.1,0.2c1.5-0.4-21.4-0.3-34.4-0.7l-6.9-0.2
	c-13.7,0.2-30.8,0.1-45.8,0.1c-16.8,0-21.1,0.2-33.9,0c-8.3-0.1-22.9,1.1-29.6,0.7c-10.6,0.4-33,0.7-32,1.3
	c-9.2-0.1-18.5-0.1-26.9-0.4s-16.2-0.6-21.9-1.2c-4.3-0.4-8.5-1.1-12.7-2.3c-2.9-0.8-5.6-1.9-8.3-3.3c-2.2-1.1-4.1-2.5-5.8-4.2
	c-1.5-1.5-2.7-3.3-3.6-5.2c-0.8-1.8-1.4-3.7-1.7-5.7c-0.4-2.7-0.6-5.5-0.5-8.3c0.1-3.6,0.5-7.2,1.1-10.7c0.6-3.8,1.4-7.7,2.4-12
	s2.2-9.1,3.2-14c1.1-5.2,1.8-10.6,2-15.9c0.2-5.9-0.1-11.8-1-17.6c-1-5.4-2.3-10.8-4-16.1c-1.5-5.1-3.1-10.1-4.6-14.5
	s-3.2-8.4-4.3-12.5c-1.1-4.1-1.5-8.3-1.1-12.5c0.4-3.8,1.5-7.5,3.4-10.9c1.5-2.8,3.7-5.3,6.3-7.2c2.5-1.7,5.2-3,8.1-3.6
	c3.1-0.8,6.5-1.1,12.7-1.5s15.1-0.5,33-1.3s44.9-1.9,70.2-3.1s48.9-2.3,72.1-3.4s46.3-2.2,66.1-3.1s36.6-1.6,49-1.4s20.5,1.3,27.2,3
	c5.9,1.5,11.5,4,16.6,7.4c4.4,2.9,8.5,6.3,12.2,10c3.3,3.2,5.6,5.9,7.9,8.5c-0.7-1.5-1.6-3-2.5-4.4c-1.9-3-4.1-5.7-6.5-8.2
	c-3.9-3.9-8.1-7.2-12.8-10.1c-5.1-3.1-10.6-5.3-16.4-6.7c-6.3-1.6-13.8-2.6-25.1-2.7s-26.7,0.6-42.1,1.3s-30.9,1.1-46.3,1.7
	s-30.5,1.3-47.6,2.1s-36.2,1.8-55.2,2.6s-38,1.5-52.2,2.2s-23.7,1.2-32,1.6s-15.7,0.5-21,0.9c-4.1,0.1-8.1,0.9-11.9,2.3
	c-3.5,1.3-6.7,3.3-9.3,6c-2.9,3.1-5,6.9-6.1,11c-1.1,4.6-1.5,9.4-1,14.1c0.5,4.8,1.3,9.6,2.7,14.2c1.3,4.9,3,10,4.6,16.1
	c1.8,6.7,3.2,13.4,4.2,20.2c1,6.8,1.3,13.6,1,20.4c-0.4,6.4-1.2,12.8-2.6,19.1c-0.9,4.2-2.2,8.3-3.6,12.3c-0.1,3.7-0.1,7.4-0.2,11.9
	s0,10.1,0.9,14.7c0.7,4.1,2.5,8,5.2,11.1c2.6,2.9,5.9,5.2,9.6,6.6c4,1.8,8.9,3.2,19.7,4.1s27.6,1.4,47.7,1.4s43.7-0.4,65.4-0.5
	s41.2-0.2,66.4-0.1s55.8,0.3,77,0.1s33.3-0.9,42.8-2c7.7-0.8,15.2-2.6,22.4-5.2c5.4-2,10.4-4.7,15-8.1c3.7-2.8,6.9-6.1,9.6-9.9
	c4.5-6.1,7.7-13.1,9.5-20.5C557.4,407.5,556.5,409.6,555.4,411.7z"/>
<path class="st15" d="M564.7,348.1c0.3,2.8,0.6,5.7,0.9,9.3s0.4,8,0.4,12.2s-0.1,8.3-0.4,11.8c-0.3,3-0.8,5.9-1.4,8.9
	c-0.1-3.9-0.3-7.8-0.3-13.4s-0.2-12.8,0-17.9C564,355.4,564.3,351.8,564.7,348.1L564.7,348.1z"/>
<path class="st15" d="M569.6,392.3c8.2-6,16.5-12,24.7-18.1c-2.8,1.4-5.5,3-8.2,4.8c-3.3,2.2-7.4,5.2-10.3,7.5
	C573.6,388.3,571.5,390.2,569.6,392.3L569.6,392.3z"/>
<path class="st15" d="M554.7,293.5c2,3.1,3.5,6.4,4.4,10c1,4.3,1.2,10,1.3,14.8s0.2,8.5,0.2,12.2c-0.9-7.3-1.8-14.6-2.5-20.1
	s-1.4-9.4-1.9-11.9C555.8,296.7,555.3,295.1,554.7,293.5L554.7,293.5z"/>
<rect x="361" y="188.6" transform="matrix(0.351 -0.9364 0.9364 0.351 -93.2464 569.8571)" class="st6" width="7" height="327.1"/>
<line class="st16" x1="200.1" y1="362.8" x2="526.9" y2="313.8"/>
<rect x="201.8" y="365.8" transform="matrix(0.9991 -4.222441e-02 4.222441e-02 0.9991 -15.2672 15.8252)" class="st8" width="330.5" height="7"/>
<rect x="191.9" y="352.8" transform="matrix(0.9125 -0.409 0.409 0.9125 -114.0003 179.4264)" class="st9" width="341.4" height="7"/>
<path class="st15" d="M431.2,457.3c0-0.1-115.5-0.1-119.8-0.1c0,0.4-0.1,22.4-0.1,22.4h119.6L431.2,457.3z M313.8,475.7
	c0-3.3,0-6.7,1.4-9s4.2-3.7,8.1-4.4c8.6-1.1,17.3-0.6,25.7,1.4c4,1,8,2.6,14.8,2.6s16.4-1.7,25.8-2.6s18.9-1.2,24.6-0.5
	s7.5,2.4,8.5,4.7s0.9,5.1,0.9,7.9L313.8,475.7z"/>
<polyline class="st4" points="412.9,125.5 416.1,123.7 419.2,125.5 419.2,129.2 416.1,130.9 412.9,129.1 412.9,125.5 "/>
<polygon class="st17" points="243.5,206.6 243.5,203.4 240.8,201.9 238,203.4 238,206.6 240.8,208.2 "/>
<polygon class="st14" points="570,486.4 570,491.1 574.1,493.4 578.1,491.1 578.1,486.4 574.1,484 "/>
<polygon class="st7" points="637.3,628.5 637.3,632.2 640.5,634 643.5,632.2 643.5,628.5 640.5,626.8 "/>
<polygon class="st8" points="688.6,483 688.6,479.5 685.6,477.7 682.5,479.5 682.5,483 685.6,484.8 "/>
<polygon class="st5" points="624.8,428.9 624.8,432.4 627.9,434.2 630.9,432.4 630.9,428.9 627.9,427.1 "/>
<polygon class="st7" points="574.1,441.8 574.1,436.5 569.6,434 565,436.5 565,441.8 569.6,444.4 "/>
<polygon class="st7" points="588.3,418.4 588.3,421.9 591.4,423.7 594.4,421.9 594.4,418.4 591.4,416.6 "/>
<polygon class="st8" points="620.8,403.5 620.8,410.8 627.1,414.4 633.3,410.8 633.3,403.5 627.1,399.9 "/>
<polygon class="st8" points="550.2,525.6 550.2,530.8 554.7,533.4 559.2,530.8 559.2,525.6 554.7,523.1 "/>
<polygon class="st8" points="608.8,624.8 608.8,630.1 613.4,632.7 617.9,630.1 617.9,624.8 613.4,622.2 "/>
<polygon class="st8" points="607.7,458 607.7,453.6 603.9,451.4 600.1,453.6 600.1,458 603.9,460.2 "/>
<polygon class="st5" points="659.3,535 659.3,538.5 662.4,540.3 665.4,538.5 665.4,535 662.4,533.2 "/>
<polygon class="st8" points="617.4,496.2 617.4,500.7 621.3,502.9 625,500.7 625,496.2 621.3,494.1 "/>
<polygon class="st5" points="334.5,162.2 334.5,165.3 337.3,166.9 340,165.3 340,162.2 337.3,160.6 "/>
<polygon class="st5" points="448,165.6 448,168.1 450.2,169.4 452.4,168.1 452.4,165.6 450.2,164.4 "/>
<polygon class="st9" points="271,220 271,223.2 273.7,224.8 276.5,223.2 276.5,220 273.7,218.4 "/>
<polygon class="st7" points="386.7,165.8 386.7,168.7 389.2,170.1 391.7,168.7 391.7,165.8 389.2,164.3 "/>
<polygon class="st17" points="568,199.9 568,196.9 565.5,195.5 563,196.9 563,199.9 565.5,201.3 "/>
<polyline class="st4" points="92.4,335.9 95.6,334.1 98.7,335.9 98.7,339.5 95.6,341.3 92.4,339.5 92.4,335.9 "/>
<polyline class="st4" points="440.4,633.9 443.6,632.1 446.7,633.9 446.7,637.5 443.6,639.3 440.4,637.5 440.4,633.9 "/>
<polyline class="st12" points="525.6,497.4 522.4,495.6 519.3,497.4 519.3,501 522.4,502.8 525.6,501 525.6,497.4 "/>
<polygon class="st5" points="45.3,456.3 45.3,459.4 48,461 50.7,459.4 50.7,456.3 48,454.7 "/>
<polygon class="st10" points="143.9,370.9 143.9,373.4 146.1,374.7 148.2,373.4 148.2,370.9 146.1,369.6 "/>
<polygon class="st9" points="54,293.5 54,296.7 56.8,298.3 59.5,296.7 59.5,293.5 56.8,292 "/>
<polygon class="st9" points="123,290.4 123,293.6 125.8,295.1 128.6,293.6 128.6,290.4 125.8,288.8 "/>
<polygon class="st7" points="71.2,379.1 71.2,376.1 68.7,374.7 66.2,376.1 66.2,379.1 68.7,380.5 "/>
<polygon class="st5" points="79.7,406.8 79.7,409.8 82.3,411.2 84.8,409.8 84.8,406.8 82.3,405.4 "/>
<polygon class="st5" points="71.1,518.9 71.1,521.9 73.7,523.3 76.2,521.9 76.2,518.9 73.7,517.5 "/>
<polygon class="st5" points="378.4,703.7 378.4,706.8 381.1,708.4 383.8,706.8 383.8,703.7 381.1,702.1 "/>
<polygon class="st10" points="491.9,668.9 491.9,671.4 494.1,672.7 496.2,671.4 496.2,668.9 494.1,667.6 "/>
<polygon class="st9" points="261.5,672.2 261.5,675.4 264.3,677 267,675.4 267,672.2 264.3,670.6 "/>
<polygon class="st9" points="165.6,625.1 165.6,628.3 168.4,629.9 171.1,628.3 171.1,625.1 168.4,623.6 "/>
<polygon class="st9" points="268.3,704.8 268.3,708 271.1,709.6 273.8,708 273.8,704.8 271.1,703.3 "/>
<polygon class="st7" points="414.2,674.1 414.2,677.1 416.7,678.5 419.2,677.1 419.2,674.1 416.7,672.7 "/>
<polygon class="st10" points="407.7,690.3 407.7,693.2 410.2,694.7 412.7,693.2 412.7,690.3 410.2,688.9 "/>
<polygon class="st5" points="344.7,696.8 344.7,699.8 347.3,701.2 349.8,699.8 349.8,696.8 347.3,695.4 "/>
<polygon class="st5" points="508.1,473 508.1,470.9 506.2,469.8 504.4,470.9 504.4,473 506.2,474 "/>
<polygon class="st10" points="471.4,477 471.4,479.9 473.9,481.4 476.5,479.9 476.5,477 473.9,475.6 "/>
<polyline class="st9" points="233.9,487.2 231.6,485.9 229.3,487.2 229.3,489.8 231.6,491.1 233.9,489.8 233.9,487.2 "/>
<polyline class="st10" points="266.1,512.7 263.9,511.5 261.7,512.7 261.7,515.2 263.9,516.4 266.1,515.2 266.1,512.7 "/>
<polyline class="st9" points="345.8,491.3 342.3,489.4 338.9,491.3 338.9,495.3 342.3,497.3 345.8,495.3 345.8,491.3 "/>
<polyline class="st4" points="220.2,516.2 218.1,515 215.9,516.3 215.9,518.7 218.1,519.9 220.2,518.7 220.2,516.2 "/>
<polygon class="st13" points="457.3,507.9 457.3,510.5 459.5,511.8 461.7,510.5 461.7,507.9 459.5,506.6 "/>
<polygon class="st13" points="541.5,473.4 541.5,470.8 539.2,469.5 537,470.8 537,473.4 539.2,474.7 "/>
<polygon class="st7" points="244.3,509.5 244.3,513.4 247.7,515.4 251.2,513.4 251.2,509.5 247.7,507.5 "/>
<polygon class="st10" points="405.6,492.3 405.6,494.3 407.3,495.4 409.1,494.3 409.1,492.3 407.3,491.3 "/>
<polygon class="st9" points="132.6,461.5 132.6,463.9 134.6,465.1 136.8,463.9 136.8,461.5 134.6,460.3 "/>
<polygon class="st9" points="180.4,506.6 180.4,509.9 183.1,511.5 185.9,509.9 185.9,506.6 183.1,505.1 "/>
<polygon class="st7" points="147.2,492.2 147.2,494.6 149.2,495.7 151.2,494.6 151.2,492.2 149.2,491.1 "/>
<polygon class="st10" points="212,478.2 212,480.2 213.7,481.2 215.4,480.2 215.4,478.2 213.7,477.2 "/>
<polygon class="st6" points="262.6,472.5 262.6,474.5 264.3,475.5 266,474.5 266,472.5 264.3,471.5 "/>
<polygon class="st8" points="162.7,464.7 162.7,469.6 166.9,472.1 171.2,469.6 171.2,464.7 166.9,462.3 "/>
<polygon class="st5" points="326,518.5 326,521.7 328.7,523.2 331.5,521.7 331.5,518.5 328.7,517 "/>
<polygon class="st10" points="190.6,482.8 190.6,485.3 192.7,486.5 194.9,485.3 194.9,482.8 192.7,481.5 "/>
<polyline class="st4" points="552.3,455 555.5,453.2 558.6,455 558.6,458.7 555.5,460.5 552.3,458.7 552.3,455 "/>
<polygon class="st9" points="442.8,487 442.8,490.2 445.5,491.8 448.3,490.2 448.3,487 445.5,485.4 "/>
<polygon class="st7" points="290.6,489 290.6,491.9 293.1,493.4 295.7,491.9 295.7,489 293.1,487.5 "/>
<polygon class="st10" points="297.1,505.1 297.1,508.1 299.6,509.5 302.2,508.1 302.2,505.1 299.6,503.7 "/>
<polygon class="st5" points="360,511.7 360,514.6 362.5,516.1 365.1,514.6 365.1,511.7 362.5,510.2 "/>
<polygon class="st5" points="655.2,403.8 655.2,407 657.9,408.5 660.6,407 660.6,403.8 657.9,402.3 "/>
<polygon class="st10" points="603.8,490.1 603.8,492.6 606,493.8 608.2,492.6 608.2,490.1 606,488.8 "/>
<polygon class="st9" points="678.3,571.6 678.3,574.8 681.1,576.4 683.8,574.8 683.8,571.6 681.1,570 "/>
<polygon class="st9" points="666.9,442.8 666.9,446 669.7,447.6 672.4,446 672.4,442.8 669.7,441.2 "/>
<polygon class="st7" points="544.6,502.3 544.6,505.2 547.2,506.7 549.7,505.2 549.7,502.3 547.2,500.8 "/>
<polygon class="st5" points="694.7,519 694.7,516 692.2,514.6 689.6,516 689.6,519 692.2,520.4 "/>
<polygon class="st5" points="48.2,574 48.2,576.9 50.8,578.4 53.3,576.9 53.3,574 50.8,572.5 "/>
</svg>
