<?xml version="1.0" encoding="utf-8"?>
<!-- Generator: Adobe Illustrator 22.0.1, SVG Export Plug-In . SVG Version: 6.00 Build 0)  -->
<svg version="1.1" id="Layer_1" xmlns="http://www.w3.org/2000/svg" xmlns:xlink="http://www.w3.org/1999/xlink" x="0px" y="0px"
	 viewBox="0 0 735 852" style="enable-background:new 0 0 735 852;" xml:space="preserve">
<style type="text/css">
	.st0{fill:#005198;}
	.st1{fill:#E6B35A;}
	.st2{opacity:0.2;}
	.st3{fill:#FFFFFF;}
	.st4{fill:#003E6D;}
	.st5{fill:#045D84;}
</style>
<title>modeldb</title>
<polygon class="st0" points="715.1,228.7 367.5,28 367.5,28 19.8,228.7 19.8,630.2 367.5,830.9 715.1,630.2 "/>
<path class="st1" d="M367,633.9c0.3-0.3,0.6-0.6,0.9-0.9h-0.3C367.5,633.3,367.3,633.6,367,633.9z"/>
<g id="xwNXnP.tif" class="st2">
	<g>
		<path class="st3" d="M372.2,160.2c-1.2,0-2.3,0-3.5,0s-2.3,0-3.5,0.1s-2.3,0.1-3.5,0.1s-2.3,0.1-3.5,0.2
			c-8.9,0.7-17.8,1.4-26.7,2.1s-17.7,1.6-26.6,2.6s-17.6,2.1-26.3,3.5s-17.4,2.9-25.9,4.8c-12.8,2.8-25.5,6-37.8,9.6
			c-12.3,3.6-24.3,7.8-36,12.4c-11.6,4.6-22.8,9.7-33.8,15.3c-10.7,5.5-21.1,11.6-31.2,18.3c-7.3,4.9-14.4,10.1-21.2,15.7
			c-6.6,5.5-12.9,11.3-18.8,17.5c-5.8,6.1-11.2,12.6-16.1,19.5c-4.9,6.8-9.3,14-13.2,21.4c-2.6,5-4.9,10.2-6.8,15.5
			c-4,11.1-6,22.7-6.2,34.5c-0.1,6.4,0.4,12.8,1.3,19.1c1.1,7.3,2.8,14.6,5.1,21.6c2.3,6.9,5.1,13.7,8.4,20.2
			c3.4,6.6,7.2,12.9,11.5,18.9c4.4,6.2,9.2,12.1,14.3,17.6c12.1,13.2,25.6,24.9,40.4,34.9c6.7,4.5,13.4,8.6,20.2,12.4
			s13.3,7.2,20,10.4c10.1,4.9,20,9.3,29.8,13.1c9.6,3.8,19.2,7.1,28.6,10c9.4,2.9,18.6,5.4,27.9,7.6s18.3,4,27.4,5.7
			c5,0.9,10.1,1.8,15.1,2.5s10,1.5,15,2.1s9.9,1.2,14.9,1.7s9.9,0.8,14.8,1.1c3.5,0.2,7,0.4,10.5,0.7l10.5,0.8
			c3.5,0.2,7,0.5,10.5,0.6s7,0.3,10.4,0.3c0.8,0,1.7,0,2.5,0h2.5l2.5-0.1l2.5-0.2c5-0.3,9.9-0.6,14.9-0.9s10-0.5,14.9-0.8
			s10-0.7,15-1.1s10-0.9,15.1-1.6c8-1,16.1-2.2,24.2-3.5c8.1-1.3,16.3-2.9,24.5-4.6s16.5-3.8,24.9-6c8.4-2.2,16.9-4.8,25.5-7.7
			c7.9-2.6,15.8-5.5,23.7-8.7s16.1-6.7,24.2-10.7s16.4-8.5,24.8-13.5s17-10.8,25.7-17.2c4.2-3.1,8.3-6.4,12.4-9.8
			c4.1-3.5,8-7.2,11.9-11.1s7.7-8.2,11.4-12.6s7.3-9.3,10.8-14.3c0.2-0.3,0.4-0.6,0.6-0.9s0.4-0.5,0.6-0.8c0.2-0.2,0.4-0.5,0.7-0.6
			c0.3-0.2,0.6-0.3,0.9-0.4l4.1-8.8l4.2-9l4.3-9.2l4.5-9.5c0.2-2.8,0.6-5.6,1-8.5s0.9-5.9,1.4-8.9s0.9-6,1.2-9
			c0.3-3,0.4-5.9,0.3-8.9c-0.2-4.9-0.6-9.7-1.2-14.4c-0.6-4.6-1.5-9.2-2.6-13.8c-1.1-4.4-2.4-8.8-4.1-13c-1.6-4.2-3.4-8.3-5.6-12.2
			c-6.9-12.5-15.1-24.2-24.5-35c-9.6-10.9-20.2-20.8-31.7-29.5c-11.9-9.1-24.6-17.1-37.9-24.1c-13.9-7.3-28.3-13.7-43-19.2
			c-8.7-3.3-17.6-6.4-26.6-9.2c-9-2.8-18.1-5.4-27.5-7.8c-9.3-2.3-18.8-4.4-28.3-6.1c-9.6-1.7-19.3-3.1-29-4.2
			c-5.9-0.6-11.9-1.4-17.8-2.1s-11.9-1.5-17.9-2.2s-12-1.3-18-1.7S378.2,160.2,372.2,160.2"/>
		<path class="st3" d="M569.4,666.7c-0.8,0.7-1.5,1.5-2.1,2.3c-0.6,0.8-1,1.6-1.5,2.4s-0.9,1.6-1.4,2.4c-0.5,0.8-1.1,1.6-1.8,2.3
			c-2.9,3-6,5.8-9.2,8.4c-3.2,2.5-6.6,4.8-10.1,7c-3.5,2.1-7.1,4-10.8,5.8s-7.5,3.4-11.3,4.9c-5.5,2.1-10.9,4.1-16.4,5.8
			c-5.4,1.7-10.9,3.3-16.2,4.7c-5.3,1.4-10.7,2.6-16.1,3.8c-5.4,1.1-10.8,2.1-16.1,3c-3.6,0.6-7.3,1.1-10.9,1.6
			c-3.6,0.5-7.2,1-10.8,1.4c-3.6,0.4-7.2,0.8-10.8,1.2s-7.2,0.7-10.7,1c-4,0.3-8,0.6-11.9,0.8s-7.9,0.4-11.9,0.5
			c-3.9,0.1-7.9,0.2-11.8,0.3l-11.8,0.2h-1.9c-1.2,0-2.5,0-3.7,0l-3.7-0.1l-3.8-0.1c-1.2,0-2.5-0.1-3.8-0.1L345,726
			c-1.2,0-2.5-0.1-3.7-0.1s-2.5-0.1-3.7-0.2s-2.5-0.2-3.7-0.3c-3.6-0.3-7.3-0.6-11-0.9s-7.4-0.7-11-1s-7.4-0.8-11.1-1.2
			s-7.4-1-11.2-1.5c-6.6-1-13.2-2.1-19.8-3.4s-13.2-2.8-19.8-4.5s-13.3-3.7-20-5.9s-13.5-4.8-20.3-7.7c-2.2-0.9-4.4-1.9-6.5-3
			c-2.1-1.1-4.2-2.2-6.3-3.4c-2.1-1.2-4.1-2.4-6.1-3.8s-4-2.7-5.9-4.2c-1.7-1.3-3.3-2.6-4.8-3.9s-3-2.7-4.4-4.2
			c-1.4-1.4-2.6-2.9-3.8-4.4c-1.2-1.5-2.2-3.1-3.1-4.8l0.5,1l0.4,1l0.4,1l0.4,1c1.9,3.9,3.7,7.8,5.5,11.6c1.8,3.7,3.5,7.4,5.2,11
			s3.3,7,4.9,10.4s12.1,27.3,13.6,30.5c0.7,1.5,1.4,2.9,2.4,4.2c0.9,1.3,8.9,13,10,14.3s13.3,7.8,14.7,9s2.9,2.2,4.4,3.3
			c3.9,2.6,7.9,5,12.1,7.1c4.1,2.1,8.3,3.9,12.6,5.6c4.3,1.6,114.9,54.8,119.3,56.2s162.4-101.9,164.3-104
			c1.8-3.9,8.9-19.2,10.8-23.2l6-12.7l6.4-13.6L569.4,666.7"/>
		<path class="st3" d="M609.9,579.3c-0.2,0.1-0.4,0.2-0.6,0.3c-0.2,0.1-0.4,0.2-0.5,0.4c-0.1,0.1-0.3,0.3-0.4,0.5
			c-0.1,0.2-0.2,0.3-0.3,0.5c-1.7,3.7-3.9,7.2-6.3,10.5c-2.4,3.2-5.1,6.3-8,9.1c-2.9,2.8-6,5.5-9.2,7.9c-3.2,2.5-6.6,4.8-10,7
			c-6,3.8-11.9,7.2-17.9,10.3s-11.9,5.7-17.8,8.2s-11.8,4.6-17.8,6.5s-11.8,3.7-17.7,5.3c-6.6,1.8-13.2,3.5-19.7,5s-13,2.8-19.4,4
			c-6.4,1.2-12.8,2.2-19.2,3c-6.4,0.9-12.7,1.6-19,2.2l-10.6,1c-3.5,0.3-7.1,0.6-10.6,0.9s-7,0.5-10.5,0.6s-7,0.3-10.5,0.3h-4.4
			h-4.4h-4.4h-4.4h-6c-2,0-4,0-6-0.1s-4-0.1-6-0.2s-4-0.2-6-0.3c-2.9-0.2-5.8-0.3-8.7-0.5s-5.8-0.4-8.7-0.6s-5.8-0.5-8.7-0.7
			s-5.8-0.5-8.7-0.9c-4.1-0.5-8.1-0.9-12.2-1.5s-8.2-1.2-12.3-1.8s-8.3-1.4-12.4-2.2s-8.4-1.7-12.6-2.6c-5.6-1.2-11.1-2.6-16.7-4
			s-11.2-3-16.8-4.8s-11.3-3.7-17-5.8s-11.5-4.5-17.3-7.1c-3.8-1.7-7.5-3.5-11.2-5.4s-7.4-4-11.1-6.2s-7.3-4.7-10.8-7.3
			s-7.1-5.5-10.4-8.6c-1.8-1.6-3.4-3.3-5-5c-1.6-1.7-3.1-3.4-4.6-5.2c-1.4-1.8-2.8-3.6-4.1-5.5s-2.5-3.8-3.7-5.8
			c3.1,6.7,6.1,13.3,9,19.7c2.9,6.2,5.7,12.3,8.4,18.2c2.7,5.8,5.3,11.4,7.9,16.9c2.5,5.3,5,10.6,7.4,15.7c0.1,0.2,0.2,0.3,0.3,0.5
			c0.1,0.2,0.2,0.3,0.4,0.5l0.4,0.5c0.1,0.2,0.3,0.3,0.4,0.5c2.1,2.8,4.4,5.4,6.9,7.8c2.5,2.4,5.1,4.7,7.9,6.8
			c2.8,2.1,5.7,4,8.7,5.9s6.2,3.6,9.4,5.2c4.4,2.3,8.8,4.3,13.3,6.2c4.4,1.9,8.8,3.5,13.2,5.1s8.8,2.9,13.2,4.2s8.8,2.5,13.2,3.5
			c6.3,1.6,12.5,2.9,18.6,4.2c6.1,1.2,12.2,2.3,18.3,3.2s12.1,1.8,18.2,2.5s12.1,1.3,18.1,1.8c3.8,0.3,7.6,0.6,11.4,0.8
			c3.8,0.2,7.6,0.4,11.4,0.6s7.6,0.3,11.3,0.3s7.5,0.2,11.3,0.2h3.5c2.2,0,4.5,0,6.7-0.1s4.5-0.1,6.7-0.2c2.2-0.1,4.5-0.2,6.8-0.3
			l6.8-0.3c4.1-0.2,8.3-0.5,12.4-0.8c4.1-0.3,8.3-0.6,12.4-1c4.1-0.4,8.3-0.8,12.5-1.3s8.4-1,12.5-1.7c6.1-0.9,12.2-1.9,18.3-3
			c6.1-1.1,12.2-2.4,18.4-3.8c6.2-1.5,12.4-3.1,18.6-5s12.6-4,18.9-6.3c3.1-1.2,6.2-2.4,9.2-3.7s6.1-2.7,9.1-4.2s6-3.1,8.9-4.8
			s5.8-3.5,8.7-5.5c1.7-1.2,3.4-2.4,4.9-3.7s3.1-2.7,4.5-4s2.9-2.8,4.3-4.3s2.7-3,4.1-4.5l7.7-16.3l8.3-17.6l8.9-19L609.9,579.3"/>
		<path class="st3" d="M671.8,449.4c-1.5,1.7-2.8,3.4-4,5.3c-1.1,1.8-2.1,3.6-3.1,5.4s-1.9,3.6-3,5.4c-1,1.8-2.2,3.6-3.5,5.2
			c-4.8,6.1-10,11.9-15.5,17.5c-5.1,5.1-10.4,9.9-16,14.4c-5.4,4.3-10.9,8.3-16.5,12s-11.2,7-16.9,10.2c-7.1,4-14.2,7.5-21.2,10.8
			s-13.8,6.2-20.6,8.9s-13.5,5.1-20.2,7.3s-13.2,4.2-19.8,6s-13.3,3.5-19.9,5s-13.1,2.8-19.5,4.1s-12.9,2.3-19.3,3.3
			s-12.8,1.8-19.1,2.6c-4.7,0.6-9.4,1-14.1,1.4s-9.4,0.7-14,1s-9.3,0.5-14,0.8s-9.3,0.5-14,0.8l-2.4,0.1l-2.4,0.1
			c-0.8,0-1.6,0-2.4,0H368c-3.2,0-6.5-0.1-9.8-0.2s-6.5-0.3-9.8-0.5l-9.8-0.7c-3.3-0.2-6.6-0.5-9.8-0.7c-4.6-0.3-9.3-0.6-13.9-1
			s-9.3-0.9-13.9-1.5s-9.3-1.2-14-1.9s-9.4-1.5-14.1-2.2c-9.5-1.6-19.1-3.5-28.7-5.7s-19.4-4.9-29.1-7.9s-19.9-6.5-30-10.5
			c-10.2-4.1-20.6-8.8-31.2-14.1c-4.9-2.4-9.7-5-14.6-7.8s-9.7-5.9-14.5-9.2s-9.7-7-14.4-10.9s-9.6-8.3-14.3-13.1
			c-2.7-2.8-5.4-5.5-8-8.4s-5.1-5.8-7.5-8.9s-4.7-6.3-6.8-9.6c-2.2-3.4-4.1-6.9-5.9-10.5c4.9,10.7,9.6,21.1,14.2,31.1
			c4.5,9.7,8.8,19.1,13,28.2c4.1,8.8,8.1,17.4,12,25.7c3.8,8.1,7.4,15.9,11,23.5c0.1,0.2,0.3,0.5,0.4,0.7c0.2,0.2,0.3,0.5,0.5,0.7
			l0.5,0.7c0.2,0.2,0.3,0.5,0.5,0.7c2.9,4.2,6.2,8.3,9.7,12c3.4,3.6,7,7,10.9,10.1c3.8,3.1,7.7,5.9,11.7,8.6s8,5.1,12.1,7.5
			c5.6,3.2,11.2,6.1,16.9,8.7c5.6,2.6,11.1,5,16.7,7.2s11,4.1,16.5,5.9s10.9,3.4,16.4,4.9s11,2.9,16.5,4.2s10.8,2.4,16.2,3.5
			s10.7,2,16,2.9s10.6,1.6,15.9,2.3c4.9,0.7,9.9,1.3,14.8,1.8c4.9,0.5,9.8,1,14.7,1.4c4.9,0.4,9.7,0.7,14.6,1
			c4.9,0.3,9.7,0.4,14.5,0.5l3.8,0.1h3.8h3.8h3.8c3.5,0,7,0,10.4-0.1s7-0.1,10.4-0.3s7-0.3,10.5-0.5s7-0.4,10.5-0.7
			c3-0.2,5.9-0.5,8.9-0.7s5.9-0.5,8.9-0.8s5.9-0.6,8.9-1s6-0.7,8.9-1.2c5.9-0.8,11.8-1.8,17.8-2.8c6-1.1,12-2.2,18-3.5
			s12.1-2.8,18.2-4.4s12.3-3.4,18.6-5.4c4.5-1.4,9-3,13.5-4.6s9-3.4,13.6-5.3c4.6-1.9,9.1-4,13.7-6.2s9.2-4.6,13.9-7.2
			c4.1-2.4,8.2-4.9,12.1-7.6s7.8-5.6,11.5-8.7c3.8-3.2,7.4-6.5,10.9-10.1c3.6-3.7,7-7.6,10.1-11.6l11.4-24.4l12.5-26.8l13.8-29.4
			L671.8,449.4"/>
	</g>
</g>
<g>
	<polygon class="st4" points="394.3,214.5 394.3,221.3 339,220.9 338.9,214.2 	"/>
	<polygon class="st5" points="397.6,266 397.6,272.7 395.7,272.7 395.6,266 	"/>
	<polygon class="st4" points="453.2,269.5 453.2,276.1 397.6,275.8 397.6,269.1 	"/>
	<polygon class="st5" points="397.6,269.1 397.6,275.8 395.6,275.8 395.6,269.1 	"/>
	<polygon class="st5" points="395.6,266 395.7,272.7 395.6,275.8 395.6,269.1 	"/>
	<polygon class="st4" points="512.8,307.4 512.7,314 456.9,313.6 457,307 	"/>
	<polygon class="st5" points="398.3,211.5 398.3,218.2 397.6,272.7 397.6,266 	"/>
	<polygon class="st5" points="334.1,264.8 334.2,271.5 334.1,274.5 334,267.9 	"/>
	<polygon class="st4" points="334,267.9 334.1,274.5 278.6,274.2 278.4,267.5 	"/>
	<polygon class="st5" points="273.4,311.2 273.6,317.8 273.5,320.9 273.4,314.3 	"/>
	<polygon class="st4" points="273.4,314.3 273.5,320.9 217.8,320.6 217.5,313.9 	"/>
	<polygon class="st4" points="338.9,214.2 339,220.9 336.2,378.4 336.1,371.8 	"/>
	<path class="st4" d="M648.9,377.7l-0.4,6.6h-3.1c-6.2-0.1-12.4-0.4-18.5-1.1c-6.2-0.7-12.3-1.7-18.3-2.9c-5.7-1.2-11.4-2.7-17-4.5
		c-5-1.6-9.9-3.6-14.7-5.9c-3.6-1.8-8.5-6.2-14-11.9s-11.4-12.7-17.1-19.7s-10.9-13.8-15.1-19.3s-7.1-9.6-8.1-11
		c-6.8-9.4-13.6-18.3-20.5-26.5c-6.8-8.2-13.6-15.8-20.4-22.8c-6.8-7-13.5-13.3-20.3-19c-6.4-5.5-13.1-10.5-20.1-15.2
		c-5.7-3.8-11.6-7.3-17.7-10.4c-5.7-2.9-11.7-5.4-17.8-7.5c-5.8-2-11.7-3.5-17.7-4.6c-5.9-1.1-18.2-1.6-24.1-1.8
		c-18.2-0.1-29.3,4.1-46.2,11.6s-33.2,18.2-49,31.1s-30.9,27.8-45.5,43.8s-28.7,32.9-42.3,49.6c-3.3,4.1-6.7,8.1-10.5,11.9
		c-3.7,3.9-7.8,7.5-12.1,10.7c-4.5,3.3-9.3,6.2-14.5,8.4c-5.6,2.4-11.5,4.2-17.5,5.2c-3.6,0.6-7.3,1.1-11.2,1.6
		c-3.9,0.5-7.9,0.9-12.1,1.3c-4.2,0.4-8.4,0.7-12.9,1s-9,0.5-13.6,0.7l-0.5-6.6c4.7-0.2,9.2-0.4,13.6-0.7c4.4-0.3,8.7-0.6,12.9-1
		c4.2-0.4,8.2-0.8,12.1-1.3s7.6-1.1,11.2-1.7c6-1,11.9-2.7,17.5-5.2c5.1-2.3,10-5.1,14.5-8.4c4.3-3.2,8.4-6.8,12.1-10.7
		c3.7-3.8,7.2-7.9,10.5-11.9c13.6-16.7,27.7-33.7,42.3-49.7s29.8-30.9,45.6-43.8s32.1-23.6,49-31.1s28.5-11.7,46.8-11.6
		c5.9,0.1,17.8,0.7,23.6,1.8c6,1.1,12,2.6,17.8,4.6c6.1,2.1,12,4.6,17.8,7.5c6.1,3.1,12.1,6.6,17.8,10.4c7,4.7,13.7,9.8,20.1,15.2
		c6.7,5.7,13.5,12.1,20.3,19s13.6,14.6,20.4,22.8c6.8,8.2,13.7,17.1,20.5,26.5c1,1.4,4,5.5,8.1,11s9.5,12.4,15.1,19.3
		s11.6,14,17.1,19.7s10.4,10.1,14,11.9c4.8,2.3,9.7,4.3,14.7,5.9c5.6,1.8,11.3,3.3,17,4.5c6,1.2,12.1,2.2,18.3,2.9
		c6.2,0.7,12.3,1,18.5,1.1L648.9,377.7L648.9,377.7z"/>
	<polygon class="st3" points="273.4,311.2 273.4,314.3 217.5,313.9 215.6,371 211.6,371 213.6,310.8 	"/>
	<polygon class="st4" points="217.5,313.9 217.8,320.6 215.9,377.6 215.6,371 	"/>
	<polygon class="st4" points="215.6,371 215.9,377.6 211.9,377.5 211.6,371 	"/>
	<polygon class="st3" points="334.1,264.8 334,267.9 278.4,267.5 275.8,371.4 271.8,371.4 273.4,314.3 273.4,311.2 274.5,264.4 	"/>
	<polygon class="st4" points="275.8,371.4 276,378 272,377.9 271.8,371.4 	"/>
	<polygon class="st4" points="278.4,267.5 278.6,274.2 276,378 275.8,371.4 	"/>
	<polygon class="st4" points="336.1,371.8 336.2,378.4 332.2,378.4 332.1,371.8 	"/>
	<path class="st3" d="M363.6,184.4c6.9,0.1,19.7,0.8,26.5,1.9c6.8,1.2,13.5,2.9,20.1,5.1c6.8,2.3,13.3,5,19.7,8.2
		c6.7,3.4,13.2,7.2,19.4,11.3c7.3,4.9,14.2,10.1,20.9,15.8c7,5.9,14,12.4,21,19.6c7,7.2,14,15,21.1,23.4c7,8.4,14.1,17.5,21.1,27.2
		c3.9,5.4,8.5,11.5,13.3,17.7s9.8,12.4,14.5,18.1s9.3,10.9,13.2,14.8s7.1,6.8,9.2,7.8c4.3,2.1,8.7,3.8,13.2,5.3
		c5.1,1.6,10.2,2.9,15.4,4c5.4,1.1,11,2,16.6,2.6c5.6,0.6,11.2,1,16.8,1h2.9l0.4,9.5h-3.1c-6.2-0.1-12.4-0.4-18.5-1.1
		c-6.2-0.7-12.4-1.7-18.3-2.9c-5.7-1.2-11.4-2.7-17-4.5c-5-1.6-9.9-3.6-14.7-5.9c-3.6-1.8-8.5-6.2-14-11.9s-11.4-12.7-17.1-19.7
		s-11-13.8-15.1-19.3s-7.1-9.6-8.1-11c-6.8-9.4-13.7-18.3-20.5-26.5c-6.8-8.2-13.6-15.8-20.4-22.8c-6.8-7-13.5-13.3-20.3-19
		c-6.4-5.5-13.1-10.5-20.1-15.2c-5.7-3.8-11.6-7.3-17.8-10.4c-5.8-2.9-11.7-5.4-17.8-7.5c-5.8-2-11.7-3.5-17.7-4.6
		c-5.9-1.1-17.8-1.6-23.6-1.8c-18.2-0.1-29.8,4.1-46.8,11.6s-33.3,18.2-49,31.1s-31,27.9-45.6,43.8s-28.8,32.9-42.3,49.7
		c-3.3,4.1-6.8,8.1-10.5,11.9c-3.8,3.9-7.8,7.5-12.1,10.7c-4.5,3.3-9.4,6.2-14.5,8.4c-5.6,2.5-11.5,4.2-17.5,5.2
		c-3.6,0.6-7.3,1.1-11.2,1.6c-3.9,0.5-7.9,0.9-12.1,1.3c-4.2,0.4-8.5,0.7-12.9,1s-9,0.5-13.6,0.7l-0.3-9.4c4.5-0.2,8.9-0.4,13.2-0.7
		s8.4-0.6,12.4-1c4-0.4,7.9-0.8,11.6-1.3c3.7-0.5,7.3-1,10.8-1.5c4.8-0.8,9.4-2.1,13.9-4c4.2-1.8,8.3-4.2,12-6.9
		c3.8-2.8,7.4-6,10.8-9.4c3.5-3.5,6.8-7.4,10.2-11.6c14-17.3,28.6-34.7,43.8-51.2s31-31.9,47.5-45.1s33.6-24.3,51.5-32
		S344.1,184.3,363.6,184.4z"/>
	<polygon class="st3" points="398.3,211.5 397.6,266 395.6,266 395.6,269.1 397.6,269.1 396.3,372.2 392.3,372.2 394.3,214.5 
		338.9,214.2 336.1,371.8 332.1,371.8 334,267.9 334.1,264.8 335,211.1 	"/>
	<polygon class="st4" points="397.6,269.1 397.6,275.8 396.3,378.8 396.3,372.2 	"/>
	<polygon class="st4" points="396.3,372.2 396.3,378.8 392.3,378.8 392.3,372.2 	"/>
	<polygon class="st4" points="456.6,372.6 456.5,379.2 452.5,379.1 452.5,372.6 	"/>
	<polygon class="st4" points="512.8,373 512.7,379.6 512.7,314 512.8,307.4 	"/>
	<polygon class="st4" points="516.8,373 516.7,379.6 512.7,379.6 512.8,373 	"/>
	<polygon class="st3" points="516.8,304.3 516.8,373 512.8,373 512.8,307.4 457,307 454.8,307.4 454.7,303.3 457,303.9 	"/>
	<polygon class="st4" points="135.6,422.4 136,428.9 136.2,437.4 135.9,430.8 	"/>
	<polygon class="st4" points="518.6,431.8 518.5,438.3 518.5,407 518.6,400.5 	"/>
	<path class="st4" d="M166.6,441.8l0.4,6.5c-0.1-1.7-0.4-3.5-1.1-5.1c-0.6-1.5-1.5-2.9-2.6-4c-1.2-1.2-2.6-2.1-4.1-2.6
		c-1.8-0.7-3.7-1-5.6-1c-1.8,0-3.6,0.2-5.3,0.8c-3,1-5.7,2.8-7.8,5.2c-0.9,1.1-1.6,2.2-2.2,3.5l-0.4-6.5c0.6-1.3,1.3-2.4,2.2-3.5
		c2.1-2.4,4.8-4.2,7.8-5.2c1.7-0.5,3.5-0.8,5.3-0.8c1.9,0,3.8,0.3,5.6,1c1.5,0.6,3,1.5,4.1,2.6c1.1,1.1,2,2.5,2.6,4
		C166.1,438.3,166.5,440.1,166.6,441.8z"/>
	<path class="st4" d="M179.6,438l0.3,6.5c-0.1,0.3-0.3,0.7-0.4,1s-0.2,0.8-0.3,1.2c-0.1,0.4-0.2,0.8-0.2,1.3
		c-0.1,0.4-0.1,0.9-0.1,1.3l-0.3-6.5c0-0.4,0-0.9,0.1-1.3c0.1-0.4,0.1-0.9,0.2-1.3s0.2-0.8,0.3-1.2S179.4,438.3,179.6,438z"/>
	<path class="st4" d="M137.8,438.6l0.4,6.5c-0.2,0.4-0.3,0.7-0.5,1.1c-0.1,0.4-0.3,0.8-0.4,1.1c-0.1,0.4-0.2,0.8-0.2,1.2
		c0,0.4-0.1,0.8-0.1,1.2l-0.4-6.5c0-0.4,0-0.8,0.1-1.2s0.1-0.8,0.2-1.2c0.1-0.4,0.2-0.8,0.3-1.1
		C137.4,439.3,137.6,438.9,137.8,438.6z"/>
	<path class="st4" d="M208.2,443.5l0.3,6.5c-0.1-2-0.4-4-1.1-5.9c-0.6-1.6-1.5-3.2-2.7-4.4c-1.2-1.2-2.7-2.2-4.3-2.8
		c-1.9-0.7-3.9-1-5.9-1c-1.6,0-3.3,0.2-4.9,0.7c-1.5,0.4-2.9,1.1-4.2,1.9c-1.2,0.8-2.3,1.7-3.3,2.7c-0.9,1-1.7,2.1-2.2,3.3l-0.3-6.5
		c0.6-1.2,1.3-2.3,2.2-3.3c1-1.1,2.1-2,3.3-2.8c1.3-0.8,2.7-1.4,4.2-1.9c3.6-1,7.3-0.9,10.8,0.3c1.6,0.6,3.1,1.5,4.3,2.8
		c1.2,1.3,2.1,2.8,2.7,4.4C207.8,439.5,208.1,441.5,208.2,443.5z"/>
	<path class="st4" d="M220.1,442.1l0.3,6.5c0,0.2,0,0.4,0,0.6v0.6c0,0.2,0,0.4,0,0.6s0,0.4,0,0.6l-0.3-6.5c0-0.2,0-0.4,0-0.6
		s0-0.4,0-0.6s0-0.4,0-0.6S220.1,442.3,220.1,442.1z"/>
	<path class="st4" d="M352.3,444.8c0,2.2,0,4.4,0.1,6.5c0-0.3,0-0.6,0-0.9s0-0.6-0.1-0.9s-0.1-0.6-0.1-0.9c-0.1-0.3-0.1-0.6-0.2-0.8
		l-0.1-6.5c0.1,0.3,0.2,0.5,0.2,0.9s0.1,0.6,0.1,0.9s0.1,0.6,0.1,0.9S352.3,444.5,352.3,444.8z"/>
	<path class="st4" d="M422.6,445.1v6.5c0-1.7-0.2-3.3-0.7-4.9c-0.5-1.8-1.4-3.5-2.6-4.9c-1.4-1.7-3.1-3-5.1-3.8
		c-2.6-1.1-5.4-1.6-8.2-1.6c-2.7-0.1-5.4,0.4-8,1.4c-2.1,0.9-4,2.1-5.6,3.8c-1.4,1.5-2.6,3.1-3.5,5c-0.8,1.7-1.4,3.4-1.6,5.2v-6.5
		c0.6-3.9,2.4-7.4,5.1-10.3c1.6-1.6,3.5-2.9,5.6-3.8c5.2-2,11-1.9,16.2,0.1c2,0.8,3.7,2.1,5.1,3.8c1.2,1.5,2.1,3.1,2.6,4.9
		C422.3,441.7,422.6,443.4,422.6,445.1z"/>
	<path class="st4" d="M518.6,446.4l-0.2,6.5c0-0.3,0-0.6,0-1c0-0.3,0-0.7-0.1-1s-0.1-0.7-0.2-1c-0.1-0.3-0.2-0.7-0.3-1l0.2-6.5
		c0.1,0.3,0.2,0.7,0.3,1c0.1,0.3,0.1,0.7,0.2,1s0.1,0.7,0.1,1S518.6,446.1,518.6,446.4z"/>
	<path class="st4" d="M558.3,453.5c0.1-2.2,0.1-4.4,0.2-6.5c0-0.3,0-0.7,0.1-1c0-0.3,0.1-0.6,0.2-0.9s0.1-0.6,0.2-0.9
		s0.1-0.5,0.2-0.8l-0.2,6.5c-0.1,0.2-0.1,0.5-0.2,0.8s-0.1,0.6-0.2,0.9s-0.1,0.6-0.2,0.9S558.3,453.1,558.3,453.5z"/>
	<path class="st4" d="M283.3,448.5l0.2,6.5c-0.1-2.3-0.5-4.5-1.2-6.7c-0.8-2.3-1.9-4.4-3.5-6.2c-1.6-2-3.7-3.5-6-4.6
		c-2.8-1.2-5.8-1.9-8.8-1.8c-3.2-0.1-6.3,0.5-9.3,1.7c-2.5,1-4.7,2.6-6.5,4.6c-1.7,1.9-3,4.1-3.9,6.5c-0.8,2.4-1.3,4.9-1.4,7.4v0.4
		c0,0.1,0,0.2,0,0.4s0,0.2,0,0.4s0,0.2,0,0.4l-0.2-6.5c0-0.1,0-0.2,0-0.4v-1.1c0.1-2.5,0.5-5,1.4-7.4c0.9-2.4,2.2-4.6,3.9-6.5
		c1.8-2,4-3.6,6.5-4.6c3-1.2,6.1-1.8,9.3-1.7c3,0,6,0.6,8.8,1.8c2.3,1.1,4.4,2.6,6,4.6c1.5,1.8,2.7,3.9,3.5,6.2
		C282.9,443.9,283.3,446.2,283.3,448.5z"/>
	<path class="st4" d="M314.2,457.7l-0.1-6.5v-1c0-2.8,0.6-5.5,1.5-8.1c0.9-2.4,2.3-4.6,4-6.4c1.8-1.8,4-3.3,6.4-4.2
		c2.7-1,5.6-1.5,8.4-1.5c2.1,0,4.3,0.3,6.3,0.9c1.8,0.5,3.6,1.3,5.1,2.4c1.4,1,2.7,2.2,3.8,3.5c1,1.3,1.7,2.8,2.1,4.3l0.1,6.5
		c-0.4-1.6-1.2-3-2.1-4.3c-1-1.4-2.3-2.6-3.8-3.5c-1.6-1.1-3.3-1.9-5.1-2.4c-4.8-1.4-10-1.2-14.7,0.6c-2.4,0.9-4.6,2.4-6.4,4.2
		c-1.7,1.8-3.1,4-4,6.4c-1,2.6-1.5,5.3-1.5,8.1L314.2,457.7L314.2,457.7z"/>
	<path class="st4" d="M480.4,457.5l0.1-6.5c0-2.7,0.5-5.4,1.5-8c0.9-2.4,2.3-4.5,4-6.3c1.8-1.8,3.9-3.2,6.3-4.1
		c4.7-1.7,9.8-1.9,14.6-0.5c1.8,0.5,3.6,1.4,5.2,2.4c1.5,1,2.7,2.2,3.8,3.5c1,1.3,1.7,2.8,2.2,4.3l-0.2,6.5c-0.5-1.6-1.2-3-2.2-4.3
		c-1.1-1.4-2.3-2.6-3.8-3.5c-1.6-1.1-3.3-1.9-5.2-2.4c-2.1-0.6-4.2-0.9-6.3-0.9c-2.8-0.1-5.7,0.4-8.3,1.5c-2.4,0.9-4.5,2.3-6.3,4.1
		c-1.7,1.8-3.1,3.9-4,6.3C480.9,452,480.4,454.8,480.4,457.5z"/>
	<polygon class="st4" points="433.8,452.4 433.8,459 386.9,458.6 386.9,452.1 	"/>
	<path class="st4" d="M434.3,448v6.5c0,0.5,0,1-0.1,1.4s-0.1,0.8-0.1,1.2s-0.1,0.7-0.1,1s-0.1,0.6-0.1,0.8l0-6.5
		c0-0.2,0.1-0.5,0.1-0.8s0.1-0.6,0.1-1s0.1-0.8,0.1-1.2S434.3,448.5,434.3,448z"/>
	<path class="st4" d="M597.6,452.9c-0.1,2.2-0.2,4.4-0.3,6.5c0-0.1,0-0.2,0-0.4s0-0.2,0-0.4V458c0-2.6-0.5-5.1-1.3-7.5
		c-0.8-2.3-2.2-4.5-3.8-6.3c-1.8-1.9-3.9-3.3-6.2-4.3c-4.6-1.8-9.8-2.1-14.6-0.9c-1.9,0.5-3.7,1.3-5.4,2.3c-1.6,1-3.1,2.2-4.3,3.7
		c-1.2,1.5-2.1,3.1-2.8,4.9l0.2-6.5c0.6-1.8,1.5-3.4,2.8-4.9c1.2-1.4,2.7-2.7,4.3-3.7c1.7-1,3.5-1.8,5.4-2.3c4.8-1.3,10-1,14.6,0.9
		c2.4,1,4.5,2.4,6.2,4.3c1.7,1.8,3,3.9,3.8,6.3c0.9,2.4,1.3,5,1.3,7.5v0.7c0,0.1,0,0.2,0,0.4S597.6,452.8,597.6,452.9z"/>
	<polygon class="st4" points="518.6,455.5 518.5,462 518.5,452.9 518.6,446.4 	"/>
	<path class="st4" d="M518.6,456.1l-0.2,6.5c0,0,0-0.1,0-0.1V462l0.2-6.5L518.6,456.1L518.6,456.1z"/>
	<polygon class="st4" points="365.1,399.4 365.1,406 364.2,469.5 364.2,463 	"/>
	<polygon class="st4" points="546.6,464.2 546.4,470.8 546.2,407.2 546.4,400.7 	"/>
	<polygon class="st4" points="353.2,467.4 353.3,473.9 353,473.9 352.9,467.4 	"/>
	<path class="st4" d="M364.2,474.5l-0.1-6.5c0-0.4,0-0.9,0-1.3v-1.3c0-0.4,0-0.9,0-1.3s0-0.8,0-1.2l0,6.5c0,0.4,0,0.8,0,1.2
		s0,0.8,0,1.3v1.3C364.2,473.7,364.2,474.1,364.2,474.5z"/>
	<polygon class="st4" points="519.9,468.5 519.7,475 519.4,475 519.6,468.5 	"/>
	<polygon class="st4" points="557.5,469.2 557.3,475.7 556.9,475.7 557.1,469.2 	"/>
	<path class="st4" d="M546.5,469.9l-0.2,6.5c0-0.5,0-1,0-1.4s0-1,0-1.4s0-1,0-1.4s0-0.9,0-1.4l0.2-6.5v1.4c0,0.5,0,0.9,0,1.4v1.4
		C546.5,469,546.5,469.4,546.5,469.9z"/>
	<polygon class="st4" points="136.6,443.2 137,449.8 135.9,481.6 135.5,475.1 	"/>
	<polygon class="st4" points="135.5,475.1 135.9,481.6 124,481.5 123.6,475 	"/>
	<polygon class="st4" points="177.4,475.4 177.8,481.9 165.9,481.8 165.5,475.3 	"/>
	<polygon class="st4" points="178.5,442.8 178.8,449.3 177.8,481.9 177.4,475.4 	"/>
	<polygon class="st4" points="220.1,444.6 220.4,451.1 219.5,482.2 219.2,475.7 	"/>
	<path class="st3" d="M198.8,421.6c2.4,0,4.8,0.3,7.1,1c2.5,0.7,4.9,2,7,3.6c2.3,1.9,4.1,4.3,5.3,7c1.4,3.6,2.1,7.4,1.9,11.3
		l-0.9,31.1l-11.9-0.1l0.9-29.9c0.1-2.3-0.1-4.6-0.7-6.8c-0.5-1.9-1.3-3.6-2.5-5.1c-1.2-1.4-2.7-2.5-4.4-3.2c-2-0.8-4.2-1.2-6.4-1.1
		c-1.7,0-3.3,0.2-4.9,0.7c-1.5,0.4-2.9,1.1-4.2,1.9c-1.2,0.8-2.3,1.7-3.3,2.8c-0.9,1-1.7,2.1-2.2,3.3c-0.1,0.3-0.3,0.7-0.4,1
		s-0.2,0.8-0.3,1.2s-0.2,0.8-0.2,1.3c-0.1,0.4-0.1,0.9-0.1,1.3l-1,32.6l-11.9-0.1l1-31.7c0.1-2-0.1-3.9-0.7-5.8
		c-0.5-1.7-1.3-3.3-2.5-4.6c-1.2-1.3-2.6-2.3-4.2-3c-1.9-0.8-3.9-1.1-6-1.1c-3.5,0-6.9,1-9.8,3c-1.3,0.8-2.4,1.9-3.4,3
		c-0.9,1.1-1.6,2.2-2.2,3.5c-0.2,0.4-0.4,0.7-0.5,1.1c-0.1,0.4-0.2,0.8-0.3,1.1c-0.1,0.4-0.2,0.8-0.2,1.2s-0.1,0.8-0.1,1.2
		l-1.1,31.9l-11.9-0.1l1.4-38.5c0-1.4,0.1-2.7,0.1-3.9s0-2.5,0-3.6s0-2.3,0-3.4s-0.1-2.2-0.1-3.3l10.6,0.1l0.2,8.5h0.4
		c1-1.3,2.2-2.5,3.4-3.6c1.4-1.2,2.9-2.2,4.6-3c1.9-0.9,3.8-1.7,5.9-2.1c2.4-0.5,4.9-0.8,7.4-0.8c2.1,0,4.3,0.3,6.3,0.8
		c1.9,0.5,3.6,1.2,5.3,2.2c1.5,0.9,2.9,2,4.1,3.4c1.1,1.3,2.1,2.7,2.8,4.3h0.3c0.5-0.7,1.1-1.4,1.7-2.1c0.6-0.6,1.2-1.2,1.9-1.8
		s1.3-1.1,2-1.6s1.4-0.9,2.1-1.3c1-0.6,2.1-1.1,3.1-1.6c1.1-0.5,2.3-0.8,3.4-1.1c1.3-0.3,2.6-0.6,3.9-0.7
		C195.9,421.6,197.4,421.6,198.8,421.6z"/>
	<polygon class="st4" points="219.2,475.7 219.5,482.2 207.6,482.1 207.3,475.6 	"/>
	<path class="st4" d="M295.8,448c0.1,2.2,0.1,4.4,0.2,6.5c0,0.1,0,0.2,0,0.3v0.7c0,0.1,0,0.2,0,0.3c0,4.4-1.1,8.7-3.2,12.6
		c-1.9,3.5-4.6,6.4-7.8,8.7c-3.3,2.3-6.9,4-10.8,5c-3.9,1.1-8,1.6-12.1,1.6c-4.1,0-8.2-0.6-12.1-1.9c-3.6-1.1-6.9-2.8-9.8-5.1
		c-2.8-2.2-5-4.9-6.6-8c-1.7-3.3-2.6-6.9-2.7-10.5l-0.3-6.5c0.1,3.7,1,7.3,2.7,10.5c1.6,3.1,3.9,5.8,6.7,8c2.9,2.3,6.3,4,9.8,5.1
		c3.9,1.2,8,1.8,12.2,1.8c4.1,0,8.2-0.5,12.1-1.6c3.9-1,7.5-2.7,10.8-5c3.2-2.3,5.9-5.2,7.9-8.7c2.1-3.9,3.2-8.2,3.2-12.6v-1
		C295.8,448.2,295.8,448.1,295.8,448z"/>
	<polygon class="st4" points="353.6,476.6 353.7,483.1 353.3,473.9 353.2,467.4 	"/>
	<polygon class="st4" points="364.5,476.6 364.6,483.1 353.7,483 353.6,476.5 	"/>
	<path class="st4" d="M302,458.3l-0.1-6.5c0.1,3.6,0.8,7.2,2.3,10.5c1.4,3.1,3.4,5.9,6,8.1c2.6,2.3,5.6,4.1,8.8,5.3
		c3.5,1.3,7.3,1.9,11,1.9c2.6,0,5.2-0.2,7.7-0.7c2.2-0.5,4.4-1.2,6.5-2.1c1.9-0.9,3.6-2,5.2-3.3c1.4-1.2,2.7-2.6,3.7-4.1l0.1,6.5
		c-1,1.5-2.2,2.9-3.7,4.1c-1.6,1.3-3.3,2.4-5.2,3.3c-2.1,1-4.3,1.7-6.5,2.1c-2.5,0.5-5.1,0.8-7.7,0.8c-3.7,0-7.5-0.7-11-1.9
		c-3.3-1.2-6.3-3-8.8-5.3c-2.5-2.3-4.5-5-5.9-8.1C302.8,465.5,302.1,461.9,302,458.3z"/>
	<path class="st3" d="M364.2,463c0,1.2,0,2.4,0,3.6s0,2.4,0,3.6s0.1,2.4,0.1,3.4s0.1,2.1,0.2,3l-11-0.1l-0.4-9.2h-0.3
		c-1,1.5-2.3,2.9-3.7,4.1c-1.6,1.3-3.3,2.4-5.2,3.3c-2.1,1-4.3,1.7-6.5,2.1c-2.5,0.5-5.1,0.8-7.7,0.7c-3.8,0-7.7-0.7-11.3-2
		c-3.3-1.2-6.4-3.1-9-5.5c-2.5-2.4-4.5-5.3-5.9-8.5c-1.4-3.5-2.1-7.2-2-11c0-4.1,0.9-8.1,2.6-11.8c1.6-3.4,3.9-6.4,6.7-8.9
		c2.8-2.4,6.1-4.3,9.6-5.5c3.7-1.3,7.6-1.9,11.6-1.9c2.4,0,4.7,0.2,7,0.7c2,0.4,3.9,1,5.8,1.8c1.5,0.7,3,1.6,4.4,2.6
		c1.1,0.9,2.1,1.9,2.9,3.1h0.3l0.5-31.3l12.1,0.1L364.2,463z M352.2,454.4l0.1-9.1c0-0.3,0-0.6,0-1s0-0.7-0.1-1c0-0.4-0.1-0.7-0.1-1
		c-0.1-0.3-0.1-0.7-0.2-1c-0.4-1.6-1.2-3-2.1-4.3c-1-1.4-2.3-2.6-3.8-3.5c-1.6-1.1-3.3-1.9-5.1-2.4c-2-0.6-4.2-0.9-6.3-0.9
		c-2.9-0.1-5.7,0.4-8.4,1.5c-2.4,0.9-4.6,2.4-6.4,4.2c-1.8,1.8-3.2,4-4,6.4c-1,2.6-1.5,5.3-1.5,8.1c-0.1,2.6,0.3,5.1,1.1,7.6
		c0.8,2.3,2,4.4,3.6,6.2c1.7,1.9,3.8,3.3,6.1,4.2c4.6,1.8,9.7,2.1,14.5,0.9c1.9-0.5,3.6-1.2,5.3-2.2c1.6-1,3-2.2,4.2-3.6
		c1.2-1.4,2.1-3.1,2.6-4.8c0.1-0.3,0.2-0.6,0.3-1s0.1-0.7,0.2-1s0.1-0.7,0.1-1S352.2,454.8,352.2,454.4"/>
	<polygon class="st4" points="444.7,477.2 444.6,483.7 445.2,406.5 445.2,400 	"/>
	<polygon class="st4" points="456.9,477.3 456.8,483.8 444.6,483.7 444.7,477.2 	"/>
	<polygon class="st3" points="457.3,400.1 456.9,477.3 444.7,477.2 445.2,400 	"/>
	<path class="st4" d="M375.3,458.3v-6.5c0,3.7,0.8,7.3,2.3,10.7c1.5,3.2,3.7,6,6.4,8.3c3,2.4,6.5,4.3,10.2,5.4c4.4,1.3,9,2,13.7,2
		c2.7,0,5.1-0.1,7.4-0.2s4.3-0.4,6.2-0.7s3.5-0.6,5-1s2.7-0.8,3.8-1.1v6.5c-1.1,0.4-2.3,0.8-3.8,1.1s-3.1,0.7-5,1s-3.9,0.5-6.2,0.7
		s-4.7,0.3-7.4,0.2c-4.6,0-9.2-0.7-13.6-2c-3.7-1.1-7.2-2.9-10.3-5.4c-2.7-2.2-4.9-5.1-6.4-8.3C376.1,465.6,375.3,462,375.3,458.3z"
		/>
	<polygon class="st4" points="520.4,477.7 520.3,484.2 519.7,475 519.9,468.5 	"/>
	<polygon class="st4" points="531.4,477.8 531.2,484.3 520.3,484.2 520.4,477.7 	"/>
	<polygon class="st4" points="557.1,469.2 556.9,475.7 556.4,484.5 556.6,478 	"/>
	<polygon class="st4" points="556.6,478 556.4,484.5 545.9,484.4 546.1,477.9 	"/>
	<path class="st4" d="M468.1,457.6l0.1-6.5v0.6c-0.1,3.8,0.7,7.5,2.1,11c1.4,3.2,3.4,6.1,6,8.5c2.6,2.4,5.7,4.3,9.1,5.5
		c3.6,1.3,7.5,2,11.3,2c2.6,0,5.1-0.2,7.7-0.7c2.2-0.5,4.4-1.2,6.5-2.1c1.8-0.9,3.6-2,5.1-3.3c1.4-1.2,2.6-2.6,3.6-4.1l-0.2,6.5
		c-1,1.5-2.2,2.9-3.6,4.1c-1.6,1.3-3.3,2.4-5.1,3.3c-2.1,1-4.2,1.7-6.5,2.1c-2.5,0.5-5.1,0.8-7.6,0.8c-3.9,0-7.7-0.7-11.3-2
		c-3.4-1.2-6.4-3.1-9.1-5.5c-2.6-2.4-4.6-5.3-6-8.5c-1.5-3.5-2.2-7.2-2.1-11c0,0,0-0.1,0-0.1L468.1,457.6L468.1,457.6z"/>
	<path class="st4" d="M609.8,453.1l-0.3,6.5c-0.2,4-1.2,7.9-3,11.5c-1.7,3.2-4,6-6.8,8.2c-2.8,2.2-6,3.8-9.3,4.9
		c-3.4,1.1-7,1.6-10.6,1.6c-2.3,0-4.6-0.2-6.9-0.6c-2.1-0.4-4.1-1-6.1-1.8c-3.8-1.6-7.1-4.3-9.5-7.7l0.2-6.5c2.4,3.4,5.7,6,9.5,7.7
		c2,0.8,4,1.4,6.1,1.8c2.3,0.4,4.6,0.6,6.9,0.6c3.6,0,7.2-0.5,10.6-1.6c3.4-1,6.6-2.7,9.4-4.9c2.8-2.2,5.1-5,6.8-8.2
		C608.6,461.1,609.6,457.2,609.8,453.1z"/>
	<path class="st3" d="M581.5,424.2c3.9,0,7.8,0.7,11.4,2c3.3,1.2,6.4,3.1,9,5.5c2.5,2.4,4.5,5.3,5.9,8.5c1.4,3.5,2.1,7.2,2.1,11
		c0.1,4.3-0.8,8.5-2.5,12.4c-1.6,3.4-3.9,6.4-6.8,8.8c-2.8,2.3-6.1,4.1-9.6,5.2c-3.6,1.2-7.3,1.7-11,1.7c-2.3,0-4.6-0.2-6.9-0.6
		c-2.1-0.4-4.1-1-6.1-1.8c-3.8-1.6-7.1-4.3-9.5-7.7h-0.4l-0.5,8.8l-10.5-0.1c0.1-0.9,0.1-1.9,0.2-3s0.1-2.2,0.2-3.4s0.1-2.4,0.1-3.6
		s0-2.4,0-3.6l-0.2-63.6l12,0.1l0.1,32.9h0.3c1.1-1.5,2.4-2.8,3.8-4c1.6-1.2,3.3-2.2,5.1-3c2-0.9,4.1-1.5,6.3-1.9
		C576.5,424.3,579,424.1,581.5,424.2z M577.5,471.7c2.9,0.1,5.8-0.4,8.5-1.4c2.4-0.9,4.6-2.3,6.4-4.1c1.8-1.8,3.1-4,4-6.4
		c0.9-2.7,1.4-5.5,1.3-8.3c0-2.6-0.5-5.1-1.3-7.5c-0.9-2.3-2.2-4.4-3.8-6.3c-1.8-1.9-3.9-3.3-6.2-4.3c-4.7-1.8-9.8-2.1-14.6-0.9
		c-1.9,0.5-3.7,1.3-5.4,2.3c-1.6,1-3.1,2.2-4.3,3.7c-1.2,1.4-2.1,3.1-2.8,4.9l-0.2,0.9c-0.1,0.3-0.2,0.6-0.2,0.9s-0.1,0.7-0.2,1
		c0,0.4-0.1,0.7-0.1,1.1v9.5c0,0.3,0,0.6,0,0.9s0.1,0.6,0.1,0.9s0.1,0.6,0.2,0.9s0.1,0.6,0.2,0.8c0.6,1.7,1.5,3.2,2.6,4.6
		c1.2,1.4,2.6,2.6,4.1,3.6c1.7,1,3.4,1.8,5.3,2.4C573.2,471.3,575.3,471.6,577.5,471.7"/>
	<polygon class="st3" points="457.2,266.4 457,303.9 455,303.9 455,307 457,307 456.6,372.6 452.5,372.6 453.2,269.5 397.6,269.1 
		395.6,269.1 395.6,266 397.6,266 	"/>
	<path class="st3" d="M264.2,422c4.4,0,8.8,0.7,13,2c3.7,1.2,7.1,3.1,10,5.6c2.7,2.3,4.9,5.3,6.4,8.6c1.5,3.5,2.2,7.3,2.1,11
		c0,4.4-1.1,8.7-3.2,12.6c-1.9,3.5-4.6,6.4-7.9,8.7c-3.3,2.3-6.9,4-10.8,5c-3.9,1.1-8,1.6-12.1,1.6c-4.3,0-8.5-0.7-12.6-2
		c-3.7-1.2-7-3.1-10-5.5c-2.8-2.3-5-5.3-6.6-8.6c-1.6-3.6-2.3-7.4-2.2-11.3c0.1-4.1,1.1-8.1,2.9-11.7c1.8-3.4,4.2-6.4,7.3-8.7
		c3.2-2.4,6.8-4.3,10.6-5.4C255.5,422.6,259.8,422,264.2,422z M262.5,470c2.8,0,5.5-0.5,8.1-1.5c5-1.9,8.9-5.8,11-10.7
		c1.1-2.6,1.7-5.4,1.7-8.2c0-2.4-0.3-4.7-1-7c-0.7-2.4-1.9-4.6-3.4-6.6c-1.6-2.1-3.7-3.8-6.1-4.9c-2.9-1.3-6-2-9.1-2
		c-3.2-0.1-6.3,0.5-9.3,1.7c-2.5,1-4.7,2.6-6.5,4.6c-1.7,1.9-3,4.1-3.9,6.5c-0.9,2.4-1.3,4.9-1.4,7.4c-0.1,2.7,0.4,5.5,1.3,8.1
		c1.8,4.9,5.5,8.8,10.4,10.8C257,469.4,259.8,470,262.5,470"/>
	<path class="st3" d="M434.3,448c0,0.5,0,1-0.1,1.4s-0.1,0.8-0.1,1.2s-0.1,0.7-0.1,1s-0.1,0.6-0.1,0.8l-47-0.3
		c0,2.9,0.6,5.8,1.9,8.4c1.2,2.3,2.9,4.3,5,5.7c2.2,1.5,4.6,2.6,7.2,3.3c2.8,0.7,5.8,1.1,8.7,1.1c2.2,0,4.1,0,5.9-0.2
		s3.4-0.3,4.9-0.5s2.9-0.5,4.1-0.8s2.5-0.7,3.6-1l2,6.9c-1.1,0.4-2.3,0.8-3.8,1.1s-3.1,0.7-5,1s-3.9,0.6-6.2,0.7s-4.7,0.3-7.4,0.2
		c-4.7,0-9.3-0.6-13.8-2c-3.8-1.1-7.3-3-10.3-5.5c-2.7-2.3-4.9-5.2-6.4-8.5c-1.5-3.4-2.2-7.2-2.1-10.9c0-3.8,0.8-7.6,2.3-11.2
		c1.5-3.4,3.6-6.5,6.3-9c2.9-2.6,6.2-4.7,9.9-6c4.2-1.5,8.6-2.2,13.1-2.1c4.6-0.1,9.2,0.8,13.5,2.6c3.3,1.4,6.1,3.6,8.4,6.3
		c2,2.4,3.4,5.1,4.3,8.1C433.9,442.5,434.3,445.3,434.3,448z M422.5,445.5c0.1-1.7-0.1-3.4-0.6-5c-0.5-1.8-1.4-3.6-2.5-5.1
		c-1.4-1.7-3.1-3.1-5.1-4c-5.2-2.1-11.1-2.2-16.4-0.2c-2.1,0.9-4,2.1-5.6,3.8c-2.7,2.8-4.6,6.4-5.2,10.2L422.5,445.5"/>
	<path class="st3" d="M530.8,464.1c0,1.2,0,2.4,0,3.6s0,2.4,0.1,3.6s0.1,2.3,0.2,3.4s0.2,2.1,0.3,3l-10.9-0.1l-0.6-9.2h-0.3
		c-1,1.5-2.2,2.9-3.6,4.1c-1.6,1.3-3.3,2.4-5.1,3.3c-2.1,1-4.2,1.7-6.5,2.1c-2.5,0.5-5.1,0.8-7.7,0.7c-3.9,0-7.7-0.7-11.3-2
		c-3.4-1.2-6.4-3.1-9.1-5.5c-2.6-2.4-4.6-5.3-6-8.5c-1.5-3.5-2.2-7.2-2.1-11c-0.1-4.1,0.8-8.1,2.4-11.8c1.5-3.4,3.7-6.4,6.5-8.9
		c2.8-2.4,6-4.3,9.6-5.5c3.7-1.3,7.6-1.9,11.6-1.9c2.4,0,4.7,0.2,7,0.7c2,0.4,3.9,1,5.7,1.8c1.6,0.7,3,1.6,4.4,2.6
		c1.1,0.9,2.2,1.9,3,3.1h0.3v-31.3l12.1,0.1L530.8,464.1z M518.6,455.5v-9.2c0-0.3,0-0.6,0-1s0-0.7-0.1-1s-0.1-0.7-0.2-1
		c-0.1-0.3-0.2-0.7-0.3-1c-0.5-1.6-1.2-3-2.2-4.3c-1.1-1.4-2.4-2.6-3.8-3.5c-1.6-1.1-3.3-1.9-5.2-2.4c-4.8-1.4-10-1.2-14.7,0.6
		c-2.4,0.9-4.5,2.4-6.3,4.2c-1.7,1.8-3.1,4-4,6.4c-0.9,2.6-1.4,5.3-1.4,8.1c0,2.6,0.4,5.1,1.2,7.6c0.8,2.3,2.1,4.4,3.7,6.2
		c1.7,1.9,3.8,3.3,6.2,4.3c2.8,1.1,5.7,1.6,8.6,1.6c2,0,4-0.2,5.9-0.7c1.8-0.5,3.6-1.2,5.2-2.2c1.6-1,3-2.2,4.1-3.6
		c1.2-1.4,2-3.1,2.6-4.8c0.1-0.3,0.2-0.6,0.3-1s0.1-0.7,0.2-1s0.1-0.7,0.1-1S518.6,455.9,518.6,455.5"/>
</g>
<path class="st3" d="M365.1,797.3l4.5,4.5c1,1,1.9,1.9,2.7,2.9h0.1c-0.4-1.2-0.7-2.5-1-3.8l-1.4-6.3l1.6-0.9l4.7,4.3
	c1.1,1,2.1,2,2.9,2.9h0.1c-0.5-1.3-0.8-2.6-1.2-3.9l-1.6-6.1l1.9-1.1L381,802l-1.7,1l-4.5-4.1c-1-0.9-2-1.9-2.9-2.9h0
	c0.4,1.3,0.8,2.6,1.1,4l1.2,6l-1.7,1l-9.2-8.6L365.1,797.3z"/>
<path class="st3" d="M381.2,787.9l4.5,4.5c1,1,1.9,1.9,2.7,2.9h0.1c-0.4-1.2-0.7-2.5-1-3.8l-1.4-6.3l1.6-0.9l4.7,4.3
	c1.1,1,2.1,2,2.9,2.9h0.1c-0.5-1.3-0.8-2.6-1.2-3.9l-1.6-6.1l1.9-1.1l2.7,12.4l-1.7,1l-4.5-4.1c-1-0.9-2-1.9-2.9-2.9l0,0
	c0.4,1.3,0.8,2.6,1.1,4l1.2,6l-1.7,1l-9.3-8.7L381.2,787.9z"/>
<path class="st3" d="M397.4,778.5l4.5,4.5c1,1,1.9,1.9,2.7,2.9h0.1c-0.4-1.2-0.7-2.5-1-3.8l-1.4-6.3l1.6-0.9l4.7,4.3
	c1.1,1,2.1,2,2.9,2.9h0.1c-0.5-1.3-0.8-2.6-1.2-3.9l-1.6-6.1l1.9-1.1l2.7,12.4l-1.7,1l-4.5-4.1c-1-0.9-2-1.9-2.9-2.9h0
	c0.4,1.3,0.8,2.6,1.1,4l1.2,6l-1.7,1l-9.2-8.6L397.4,778.5z"/>
<path class="st3" d="M416.7,779.7c-0.5-0.7-0.3-1.6,0.4-2.1c0,0,0.1,0,0.1-0.1c0.7-0.5,1.7-0.3,2.2,0.5c0.5,0.7,0.3,1.7-0.5,2.2
	C418.2,780.7,417.2,780.5,416.7,779.7C416.7,779.8,416.7,779.8,416.7,779.7z"/>
<path class="st3" d="M418,770.8c-0.7-1.2-1.4-2.3-2-3.2l1.7-1l1.3,2h0.1c-0.4-1.5,0.2-3.2,1.6-4c0.2-0.1,0.4-0.2,0.6-0.2l1,1.8
	c-0.2,0.1-0.5,0.2-0.7,0.3c-1.3,0.8-1.8,2.5-1.1,3.9c0.1,0.3,0.3,0.6,0.4,0.9l3.2,5.6l-1.8,1.1L418,770.8z"/>
<path class="st3" d="M427.9,772.1c1,0,2-0.2,3-0.7c1.4-0.8,1.6-1.9,1.1-2.7s-1.4-1.1-3.1-0.8c-2.3,0.4-3.8-0.1-4.5-1.3
	c-1-1.7-0.4-3.9,1.8-5.2c0.9-0.5,1.9-0.8,3-0.8l0.3,1.7c-0.9,0-1.7,0.2-2.5,0.6c-0.9,0.4-1.3,1.4-1,2.3c0,0,0,0.1,0.1,0.1
	c0.5,0.9,1.4,0.9,3,0.6c2.2-0.4,3.7,0,4.6,1.5c1.1,1.8,0.4,4-2.1,5.4c-1,0.6-2.2,1-3.4,1L427.9,772.1z"/>
<path class="st3" d="M432.3,754.1l1.8,3l2.7-1.6l0.9,1.4l-2.7,1.6l3.3,5.6c0.8,1.3,1.5,1.8,2.6,1.2c0.4-0.2,0.7-0.5,1-0.8l0.9,1.4
	c-0.4,0.5-1,0.9-1.5,1.2c-0.7,0.5-1.7,0.6-2.5,0.4c-1-0.4-1.9-1.3-2.3-2.3l-3.3-5.7l-1.6,0.9l-0.8-1.4l1.6-1l-1.5-2.5L432.3,754.1z"
	/>
<path class="st3" d="M452.1,756.8c0.6,1.1,1.2,2,1.7,2.8l-1.7,1l-1.1-1.6l0,0c0,1.7-0.9,3.2-2.3,4c-1.6,1-4.1,1.2-6.3-2.5l-3.6-6.1
	l1.9-1.1l3.4,5.8c1.2,2,2.5,3,4.3,2c1.1-0.7,1.7-1.9,1.5-3.2c-0.1-0.4-0.2-0.7-0.4-1.1l-3.7-6.4l1.9-1.1L452.1,756.8z"/>
<path class="st3" d="M457,737.2l7.4,12.6c0.5,0.9,1.2,2,1.7,2.7l-1.7,1l-1.1-1.8l0,0c0.1,1.7-0.9,3.3-2.4,4.1
	c-2.5,1.5-5.7,0.5-7.6-2.7c-2-3.5-1.1-6.9,1.4-8.3c1.2-0.8,2.8-0.9,4.1-0.2h0l-3.6-6.2L457,737.2z M460.4,747.5
	c-0.2-0.3-0.3-0.5-0.5-0.8c-1-1.1-2.7-1.4-4-0.6c-2,1.1-2.1,3.5-0.8,5.9c1.2,2.1,3.3,3.3,5.3,2.1c1.3-0.8,2-2.4,1.5-3.9
	c-0.1-0.3-0.2-0.6-0.4-0.9L460.4,747.5z"/>
<path class="st3" d="M463.4,736.1c0.3,0.7,0.1,1.5-0.6,1.8c-0.6,0.3-1.4,0.1-1.7-0.5c-0.4-0.6-0.2-1.5,0.4-1.8c0,0,0,0,0.1,0
	c0.6-0.4,1.4-0.2,1.8,0.4C463.4,736,463.4,736,463.4,736.1z M469.1,750.7l-6.1-10.5l1.9-1.1l6.1,10.4L469.1,750.7z"/>
<path class="st3" d="M480.5,736.9c2.2,3.9,0.5,7.1-2,8.6c-2.8,1.6-6.2,0.8-8.1-2.5c-2-3.5-0.9-6.9,2-8.6S478.7,733.8,480.5,736.9z
	 M472.3,741.9c1.3,2.3,3.7,3.2,5.5,2.2s2.2-3.6,0.8-5.9c-1-1.8-3.2-3.5-5.5-2.2S471.1,739.9,472.3,741.9L472.3,741.9z"/>
<path class="st3" d="M484.4,740.3c-0.4-0.7-0.1-1.6,0.7-2c0.7-0.4,1.6-0.1,2,0.7c0.4,0.7,0.1,1.6-0.6,2c-0.7,0.4-1.6,0.2-2-0.5
	C484.4,740.4,484.4,740.3,484.4,740.3z"/>
<path class="st3" d="M497.2,733.8c-0.7,1-1.6,1.8-2.6,2.3c-3.1,1.8-6.5,0.9-8.3-2.3c-1.8-2.8-1-6.6,1.8-8.5c0.2-0.1,0.4-0.2,0.6-0.3
	c0.9-0.5,1.9-0.9,2.9-1l0.4,1.7c-0.9,0-1.7,0.3-2.5,0.8c-2.4,1.4-2.7,3.9-1.4,6.1c1.4,2.4,3.8,3,5.9,1.8c0.8-0.5,1.5-1.1,2-1.9
	L497.2,733.8z"/>
<path class="st3" d="M505.9,722.2c2.3,3.9,0.6,7.1-2,8.6c-2.8,1.7-6.2,0.8-8.1-2.5c-2-3.5-0.9-6.9,2-8.6S504,719,505.9,722.2z
	 M497.6,727.1c1.3,2.3,3.7,3.2,5.5,2.2s2.2-3.5,0.8-5.9c-1-1.8-3.2-3.5-5.5-2.2S496.5,725.1,497.6,727.1z"/>
<path class="st3" d="M506.9,718.5c-0.6-1.1-1.2-2-1.7-2.8l1.7-1l1.1,1.6h0.1c-0.1-1.6,0.8-3.1,2.2-3.8c1.3-0.8,3-0.6,4.2,0.4l0,0
	c0-0.7,0.1-1.4,0.4-2c0.4-0.9,1-1.6,1.9-2.1c1.4-0.8,4-1.1,6.1,2.5l3.6,6.2l-1.8,1.1l-3.4-6c-1.2-2-2.6-2.8-4.1-1.9
	c-1,0.6-1.5,1.8-1.2,3c0.1,0.4,0.2,0.7,0.4,1l3.8,6.5l-1.9,1.1l-3.7-6.2c-1-1.7-2.4-2.5-3.9-1.6c-1.1,0.7-1.6,2-1.2,3.3
	c0.1,0.4,0.2,0.7,0.4,1l3.7,6.3l-1.9,1.1L506.9,718.5z"/>
<path class="st4" d="M734.9,637.4V213.1l-29.3-16.9L427.8,35.8L367.5,1l-60.3,34.8L29.4,196.2L0.1,213.1v424.2l29.3,16.9
	l281.3,162.4l56.9,32.8l56.9-32.8l281.3-162.4L734.9,637.4z M29.4,621.5V231L367.5,35.8l0,0L705.6,231v390.5L367.5,816.7L29.4,621.5
	z"/>
</svg>
