<?xml version="1.0" encoding="utf-8"?>
<!-- Generator: Adobe Illustrator 26.0.3, SVG Export Plug-In . SVG Version: 6.00 Build 0)  -->
<svg version="1.1" id="Camada_1" xmlns="http://www.w3.org/2000/svg" xmlns:xlink="http://www.w3.org/1999/xlink" x="0px" y="0px"
	 viewBox="0 0 1080 1250" style="enable-background:new 0 0 1080 1250;" xml:space="preserve">
<style type="text/css">
	.st0{fill:#F9B175;}
	.st1{fill:#871E0F;}
	.st2{fill-rule:evenodd;clip-rule:evenodd;fill:#F27701;}
	.st3{fill-rule:evenodd;clip-rule:evenodd;fill:#871E0F;}
	.st4{fill-rule:evenodd;clip-rule:evenodd;fill:#FDE0D0;}
	.st5{fill-rule:evenodd;clip-rule:evenodd;fill:#F26E24;}
	.st6{fill-rule:evenodd;clip-rule:evenodd;fill:#E31F26;}
	.st7{fill-rule:evenodd;clip-rule:evenodd;fill:#E31B00;}
	.st8{fill-rule:evenodd;clip-rule:evenodd;fill:#FBAF15;}
	.st9{fill-rule:evenodd;clip-rule:evenodd;fill:#FD9F46;}
	
		.st10{fill-rule:evenodd;clip-rule:evenodd;fill:none;stroke:#873839;stroke-width:3.5433;stroke-linecap:round;stroke-miterlimit:10;}
	
		.st11{fill-rule:evenodd;clip-rule:evenodd;fill:none;stroke:#873839;stroke-width:1.9685;stroke-linecap:round;stroke-miterlimit:10;}
	
		.st12{fill-rule:evenodd;clip-rule:evenodd;fill:none;stroke:#873839;stroke-width:2.0311;stroke-linecap:round;stroke-miterlimit:10;}
	
		.st13{fill-rule:evenodd;clip-rule:evenodd;fill:none;stroke:#873839;stroke-width:1.5748;stroke-linecap:round;stroke-miterlimit:10;}
	
		.st14{fill-rule:evenodd;clip-rule:evenodd;fill:none;stroke:#873839;stroke-width:2.643;stroke-linecap:round;stroke-miterlimit:10;}
	
		.st15{fill-rule:evenodd;clip-rule:evenodd;fill:none;stroke:#873839;stroke-width:1.4683;stroke-linecap:round;stroke-miterlimit:10;}
	
		.st16{fill-rule:evenodd;clip-rule:evenodd;fill:none;stroke:#873839;stroke-width:1.515;stroke-linecap:round;stroke-miterlimit:10;}
	
		.st17{fill-rule:evenodd;clip-rule:evenodd;fill:none;stroke:#873839;stroke-width:1.1747;stroke-linecap:round;stroke-miterlimit:10;}
	
		.st18{fill-rule:evenodd;clip-rule:evenodd;fill:none;stroke:#873839;stroke-width:1.8678;stroke-linecap:round;stroke-miterlimit:10;}
	
		.st19{fill-rule:evenodd;clip-rule:evenodd;fill:none;stroke:#873839;stroke-width:1.0377;stroke-linecap:round;stroke-miterlimit:10;}
	
		.st20{fill-rule:evenodd;clip-rule:evenodd;fill:none;stroke:#873839;stroke-width:1.0707;stroke-linecap:round;stroke-miterlimit:10;}
	
		.st21{fill-rule:evenodd;clip-rule:evenodd;fill:none;stroke:#873839;stroke-width:0.8301;stroke-linecap:round;stroke-miterlimit:10;}
</style>
<polygon class="st0" points="44.11,338.82 44.11,912.7 541.13,1199.56 1038,912.7 1038,338.82 541.13,51.95 "/>
<path class="st1" d="M540,1.52L0.07,313.23v623.4L540,1248.48l539.93-311.7V313.23L540,1.52z M1036.87,911.94L540,1198.8
	L42.98,911.94V338.06L540,51.2l496.87,286.87V911.94z"/>
<g>
	<path class="st1" d="M161.08,842.7c0-6.39-0.13-11.63-0.51-16.74h9.84l0.51,9.97h0.38c3.45-5.88,9.2-11.37,19.42-11.37
		c8.43,0,14.82,5.11,17.5,12.39h0.26c1.92-3.45,4.34-6.13,6.9-8.05c3.71-2.81,7.79-4.34,13.67-4.34c8.18,0,20.31,5.37,20.31,26.83
		v36.41h-10.99V852.8c0-11.88-4.34-19.04-13.41-19.04c-6.39,0-11.37,4.73-13.29,10.22c-0.51,1.53-0.89,3.58-0.89,5.62v38.2H199.8
		v-37.05c0-9.84-4.34-16.99-12.9-16.99c-7.03,0-12.14,5.62-13.93,11.24c-0.64,1.66-0.89,3.58-0.89,5.49v37.31h-10.99V842.7z"/>
	<path class="st1" d="M319.38,870.94c0,6.39,0.13,12.01,0.51,16.86h-9.96l-0.64-10.09h-0.25c-2.94,4.98-9.46,11.5-20.44,11.5
		c-9.71,0-21.34-5.37-21.34-27.08v-36.16h11.24v34.24c0,11.75,3.58,19.68,13.8,19.68c7.54,0,12.78-5.24,14.82-10.22
		c0.64-1.66,1.02-3.71,1.02-5.75v-37.95h11.24V870.94z"/>
	<path class="st1" d="M338.02,797.09h11.24v90.71h-11.24V797.09z"/>
	<path class="st1" d="M381.72,808.21v17.76h16.1v8.56h-16.1v33.35c0,7.67,2.17,12.01,8.43,12.01c2.94,0,5.11-0.38,6.52-0.77
		l0.51,8.43c-2.17,0.89-5.62,1.53-9.96,1.53c-5.24,0-9.45-1.66-12.14-4.73c-3.19-3.32-4.34-8.82-4.34-16.1v-33.73h-9.58v-8.56h9.58
		v-14.82L381.72,808.21z"/>
	<path class="st1" d="M422.98,808.59c0.13,3.83-2.68,6.9-7.16,6.9c-3.96,0-6.77-3.07-6.77-6.9c0-3.96,2.94-7.03,7.03-7.03
		C420.3,801.56,422.98,804.63,422.98,808.59z M410.46,887.8v-61.84h11.24v61.84H410.46z"/>
	<path class="st1" d="M440.35,797.09h11.24v90.71h-11.24V797.09z"/>
	<path class="st1" d="M476.76,858.93c0.26,15.2,9.97,21.46,21.21,21.46c8.05,0,12.9-1.41,17.12-3.19l1.92,8.05
		c-3.96,1.79-10.73,3.83-20.57,3.83c-19.04,0-30.41-12.52-30.41-31.17s10.99-33.35,29-33.35c20.19,0,25.55,17.76,25.55,29.13
		c0,2.3-0.26,4.09-0.38,5.24H476.76z M509.73,850.88c0.13-7.16-2.94-18.27-15.59-18.27c-11.37,0-16.35,10.48-17.25,18.27H509.73z"/>
	<path class="st1" d="M538.85,825.97l12.14,34.75c2.04,5.62,3.71,10.73,4.98,15.84h0.38c1.41-5.11,3.19-10.22,5.24-15.84
		l12.01-34.75h11.75l-24.27,61.84h-10.73l-23.51-61.84H538.85z"/>
	<path class="st1" d="M600.94,858.93c0.26,15.2,9.97,21.46,21.21,21.46c8.05,0,12.9-1.41,17.12-3.19l1.92,8.05
		c-3.96,1.79-10.73,3.83-20.57,3.83c-19.04,0-30.41-12.52-30.41-31.17s10.99-33.35,29-33.35c20.19,0,25.55,17.76,25.55,29.13
		c0,2.3-0.26,4.09-0.38,5.24H600.94z M633.9,850.88c0.13-7.16-2.94-18.27-15.59-18.27c-11.37,0-16.35,10.48-17.25,18.27H633.9z"/>
	<path class="st1" d="M658.68,797.09h11.24v90.71h-11.24V797.09z"/>
	<path class="st1" d="M688.83,842.7c0-6.39-0.13-11.63-0.51-16.74h9.84l0.51,9.97h0.38c3.45-5.88,9.2-11.37,19.42-11.37
		c8.43,0,14.82,5.11,17.5,12.39h0.26c1.92-3.45,4.34-6.13,6.9-8.05c3.71-2.81,7.79-4.34,13.67-4.34c8.18,0,20.31,5.37,20.31,26.83
		v36.41h-10.99V852.8c0-11.88-4.34-19.04-13.41-19.04c-6.39,0-11.37,4.73-13.29,10.22c-0.51,1.53-0.89,3.58-0.89,5.62v38.2h-10.99
		v-37.05c0-9.84-4.34-16.99-12.9-16.99c-7.03,0-12.14,5.62-13.93,11.24c-0.64,1.66-0.89,3.58-0.89,5.49v37.31h-10.99V842.7z"/>
	<path class="st1" d="M851.34,856.37c0,22.87-15.84,32.83-30.79,32.83c-16.74,0-29.64-12.26-29.64-31.81
		c0-20.7,13.54-32.83,30.66-32.83C839.33,824.56,851.34,837.46,851.34,856.37z M802.28,857.01c0,13.54,7.79,23.76,18.78,23.76
		c10.73,0,18.78-10.09,18.78-24.02c0-10.48-5.24-23.76-18.53-23.76C808.03,832.99,802.28,845.26,802.28,857.01z"/>
	<path class="st1" d="M918.92,797.09v74.74c0,5.49,0.13,11.75,0.51,15.97h-10.09l-0.51-10.73h-0.25
		c-3.45,6.9-10.99,12.14-21.08,12.14c-14.95,0-26.45-12.65-26.45-31.43c-0.13-20.57,12.65-33.22,27.72-33.22
		c9.45,0,15.84,4.47,18.65,9.45h0.26v-36.92H918.92z M907.68,851.13c0-1.41-0.13-3.32-0.51-4.73c-1.66-7.16-7.79-13.03-16.23-13.03
		c-11.63,0-18.53,10.22-18.53,23.89c0,12.52,6.13,22.87,18.27,22.87c7.54,0,14.44-4.98,16.48-13.42c0.38-1.53,0.51-3.07,0.51-4.85
		V851.13z"/>
</g>
<g>
	<path class="st2" d="M435.27,281.36c0.25,0,0.51,0,0.76,0c0.23,0,0.46,0.01,0.69,0.03c52.98,1.18,95.62,44.55,95.62,97.81
		c0,12.9-2.5,33.31-7.04,44.58c-15.31,38.02,35.4,41.43,35.4,139.89c0,43.49-16.97,123.06-54.8,153.68
		c-7.68,6.21-30.2,9.91-55.24,11.08c-0.29,0.13-0.59,0.2-0.89,0.21c-4.78,0.16-9.64,0.22-14.5,0.19c-4.86,0.03-9.73-0.04-14.5-0.19
		c-0.3-0.01-0.59-0.08-0.89-0.21c-25.04-1.17-47.56-4.87-55.24-11.08c-37.83-30.62-54.8-110.2-54.8-153.68
		c0-98.46,50.72-101.87,35.4-139.89c-4.54-11.28-7.04-31.69-7.04-44.58c0-53.26,42.64-96.63,95.62-97.81
		c0.23-0.02,0.46-0.03,0.69-0.03C434.76,281.35,435.01,281.35,435.27,281.36z"/>
	<path class="st3" d="M435.27,303.97c0.21,0,0.43,0,0.64,0c0.2,0,0.39,0.01,0.58,0.02c44.67,0.99,80.62,37.57,80.62,82.47
		c0,10.87-2.11,28.08-5.94,37.59c-12.91,32.05,29.85,34.93,29.85,117.94c0,36.66-14.31,103.75-46.2,129.57
		c-34.21,27.69-87.22,25.82-119.11,0c-31.89-25.82-46.2-92.91-46.2-129.57c0-83.01,42.76-85.89,29.85-117.94
		c-3.83-9.51-5.94-26.72-5.94-37.59c0-44.9,35.96-81.48,80.62-82.47c0.19-0.01,0.39-0.02,0.58-0.02
		C434.84,303.97,435.05,303.97,435.27,303.97z"/>
	<path class="st3" d="M511.83,713.15c0-0.55-0.44-0.99-0.99-0.99H359.7c-0.55,0-0.99,0.45-0.99,0.99l-4.26,21.17
		c0,0.55,0.45,0.99,0.99,0.99h159.64c0.55,0,1-0.45,1-0.99L511.83,713.15z"/>
	<path class="st4" d="M435.41,315.31c40.58,0,73.52,32.95,73.52,73.53s-32.94,73.53-73.52,73.53s-73.52-32.95-73.52-73.53
		S394.83,315.31,435.41,315.31z"/>
	<path class="st5" d="M483.71,398.51c-5.74,0-10.39,4.66-10.39,10.4c0,5.73,4.66,10.39,10.39,10.39s10.39-4.66,10.39-10.39
		C494.1,403.17,489.44,398.51,483.71,398.51z M386.63,398.51c5.74,0,10.39,4.66,10.39,10.4c0,5.73-4.66,10.39-10.39,10.39
		s-10.39-4.66-10.39-10.39C376.24,403.17,380.9,398.51,386.63,398.51z"/>
	<path class="st6" d="M435.27,424.73c0.46-0.92,2.38-2.42,3.22-2.41c4.21,0.06,7.26,3.39,9.82,2.59c0.21-0.07,0.37,0.35,0.07,0.66
		c-3.52,3.61-6.6,7.73-12.88,7.71c-6.29-0.02-9.82-4.1-13.34-7.71c-0.3-0.3-0.13-0.72,0.07-0.66c2.56,0.8,5.65-2.57,9.82-2.59
		C432.89,422.32,434.8,423.81,435.27,424.73z"/>
	<path class="st7" d="M435.92,534.24c3.91,0,7.08,3.17,7.08,7.08c0,3.91-3.17,7.08-7.08,7.08c-3.91,0-7.08-3.17-7.08-7.08
		C428.85,537.41,432.02,534.24,435.92,534.24z M452.97,549.11c4.81,0,8.71,3.9,8.71,8.71s-3.9,8.71-8.71,8.71
		c-4.81,0-8.71-3.9-8.71-8.71S448.16,549.11,452.97,549.11z M417.79,549.11c4.81,0,8.71,3.9,8.71,8.71s-3.9,8.71-8.71,8.71
		c-4.81,0-8.71-3.9-8.71-8.71S412.99,549.11,417.79,549.11z"/>
	<path class="st4" d="M446.17,670.44c2.95,0,5.34-2.39,5.34-5.34c0-2.95-2.39-5.34-5.34-5.34c-2.95,0-5.34,2.39-5.34,5.34
		C440.83,668.05,443.22,670.44,446.17,670.44z M424.59,670.44c2.95,0,5.34-2.39,5.34-5.34c0-2.95-2.39-5.34-5.34-5.34
		c-2.95,0-5.34,2.39-5.34,5.34C419.25,668.05,421.64,670.44,424.59,670.44z M435.71,679.56c2.4,0,4.34-1.95,4.34-4.34
		c0-2.4-1.95-4.34-4.34-4.34c-2.4,0-4.34,1.95-4.34,4.34C431.37,677.61,433.32,679.56,435.71,679.56z"/>
	<path class="st7" d="M488.82,640.56c1.47-2.55,0.6-5.82-1.96-7.3c-2.55-1.47-5.82-0.6-7.3,1.96c-1.47,2.55-0.6,5.82,1.96,7.3
		C484.07,643.99,487.34,643.11,488.82,640.56z M491.49,654.17c1.2-2.08,0.49-4.73-1.59-5.93c-2.08-1.2-4.73-0.49-5.93,1.59
		c-1.2,2.08-0.49,4.73,1.59,5.93C487.63,656.96,490.29,656.25,491.49,654.17z M478.03,659.24c1.47-2.55,0.6-5.82-1.96-7.3
		c-2.55-1.47-5.82-0.6-7.3,1.96c-1.47,2.55-0.6,5.82,1.96,7.3C473.29,662.67,476.56,661.8,478.03,659.24z"/>
	<path class="st4" d="M522.04,512.8c-2.31-0.62-4.7,0.76-5.32,3.07c-0.62,2.31,0.76,4.7,3.07,5.32c2.31,0.62,4.7-0.75,5.32-3.07
		C525.73,515.8,524.36,513.42,522.04,512.8z M509.58,518.9c-2.85-0.76-5.78,0.93-6.54,3.78c-0.76,2.85,0.93,5.78,3.78,6.54
		c2.85,0.77,5.78-0.93,6.54-3.78C514.13,522.6,512.43,519.67,509.58,518.9z M530.42,524.49c-2.85-0.76-5.78,0.93-6.54,3.78
		c-0.77,2.85,0.93,5.78,3.78,6.54c2.85,0.77,5.78-0.93,6.54-3.78C534.97,528.18,533.28,525.25,530.42,524.49z"/>
	<path class="st4" d="M348.96,512.8c2.31-0.62,4.7,0.76,5.32,3.07c0.62,2.31-0.76,4.7-3.07,5.32c-2.31,0.62-4.7-0.75-5.32-3.07
		C345.27,515.8,346.64,513.42,348.96,512.8z M361.42,518.9c2.85-0.76,5.78,0.93,6.54,3.78c0.76,2.85-0.93,5.78-3.78,6.54
		c-2.85,0.77-5.78-0.93-6.54-3.78C356.88,522.6,358.57,519.67,361.42,518.9z M340.58,524.49c2.85-0.76,5.78,0.93,6.54,3.78
		c0.76,2.85-0.93,5.78-3.78,6.54c-2.85,0.77-5.78-0.93-6.54-3.78C336.03,528.18,337.73,525.25,340.58,524.49z"/>
	<path class="st7" d="M381.53,640.56c-1.47-2.55-0.6-5.82,1.96-7.3c2.55-1.47,5.82-0.6,7.3,1.96c1.47,2.55,0.6,5.82-1.96,7.3
		C386.27,643.99,383,643.11,381.53,640.56z M378.86,654.17c-1.2-2.08-0.49-4.73,1.59-5.93c2.08-1.2,4.73-0.49,5.93,1.59
		c1.2,2.08,0.49,4.73-1.59,5.93C382.71,656.96,380.06,656.25,378.86,654.17z M392.32,659.24c-1.47-2.55-0.6-5.82,1.96-7.3
		c2.55-1.47,5.82-0.6,7.3,1.96c1.47,2.55,0.6,5.82-1.96,7.3C397.06,662.67,393.79,661.8,392.32,659.24z"/>
	<g>
		<path class="st8" d="M490.63,596.77c0.4-1.1,9.75-3.42,18.99-0.05c9.25,3.37,14.93,11.09,14.51,12.26
			c-0.43,1.17-9.75,3.42-18.99,0.05C495.89,605.66,490.23,597.87,490.63,596.77z M488.32,600.83c1.06-0.49,9.31,4.47,13.47,13.39
			c4.16,8.92,2.73,18.4,1.6,18.92c-1.13,0.53-9.31-4.47-13.47-13.39C485.76,610.84,487.25,601.33,488.32,600.83z"/>
		<path class="st8" d="M382.89,596.77c-0.4-1.1-9.75-3.42-18.99-0.05c-9.24,3.37-14.93,11.09-14.5,12.26
			c0.43,1.17,9.75,3.42,18.99,0.05C377.63,605.66,383.29,597.87,382.89,596.77z M385.2,600.83c-1.06-0.49-9.31,4.47-13.47,13.39
			c-4.16,8.92-2.73,18.4-1.6,18.92c1.13,0.53,9.31-4.47,13.47-13.39C387.76,610.84,386.26,601.33,385.2,600.83z"/>
		<path class="st8" d="M419.01,536.69c1.17,0.05,6.87-7.71,7.28-17.54c0.4-9.83-4.57-18.03-5.81-18.08
			c-1.24-0.05-6.87,7.71-7.28,17.54C412.8,528.44,417.84,536.64,419.01,536.69z M414.37,537.27c0.86-0.79-0.59-10.31-7.25-17.55
			c-6.66-7.24-15.97-9.53-16.89-8.68c-0.92,0.84,0.59,10.31,7.25,17.55C404.14,535.83,413.51,538.07,414.37,537.27z"/>
		<path class="st8" d="M455.72,536.69c-1.17,0.05-6.87-7.71-7.28-17.54c-0.4-9.83,4.57-18.03,5.81-18.08
			c1.24-0.05,6.87,7.71,7.28,17.54C461.94,528.44,456.89,536.64,455.72,536.69z M460.36,537.27c-0.86-0.79,0.59-10.31,7.25-17.55
			c6.66-7.24,15.97-9.53,16.89-8.68c0.91,0.84-0.59,10.31-7.25,17.55S461.23,538.07,460.36,537.27z"/>
	</g>
	<path class="st9" d="M371.49,553.26c2.91,0,5.27,2.36,5.27,5.27c0,2.9-2.36,5.26-5.27,5.26s-5.27-2.36-5.27-5.26
		C366.23,555.62,368.59,553.26,371.49,553.26z M367.68,543.76c-0.18-0.4-0.35-0.81-0.54-1.21c-0.55-1.22-1.06-2.45-1.74-3.61
		c-0.78-1.33-1.71-2.53-2.86-3.56c-0.9-0.8-8.18-4.56-15.38,5.42c-8.92,12.36-2.27,16.7-1.75,17.06c1.4,0.95,2.92,1.63,4.5,2.22
		c1.71,0.63,5.41,1.4,5.56,1.43c-0.15,0.04-3.27,0.81-4.7,1.37c-1.03,0.4-1.95,0.99-2.83,1.66c-0.81,0.61-1.57,1.26-2.18,2.08
		c-0.62,0.84-0.99,1.78-1.19,2.79c-0.03,0.16-0.04,0.34-0.03,0.5c0.06,1.21-0.45,5.94,6.65,11.23c5.62,4.18,9.46,3.46,10.25,3.22
		c0.84-0.26,1.5-0.82,2.13-1.41c0.84-0.78,1.38-1.77,1.87-2.77c0.53-1.08,1.47-4.3,1.58-4.74c0.08-0.31,0.15-0.62,0.23-0.93
		c0.02-0.07,0.04-0.15,0.11-0.22c0.01,0.06,0.02,0.12,0.02,0.19c-0.01,1.83-0.03,3.67-0.02,5.5c0.01,1.08,0.02,2.16,0.33,3.2
		c0.31,1.03,0.69,2.04,1.3,2.94c0.16,0.23,3.22,4.29,12.73,1.02c12.71-4.37,9.42-10.11,9-11.43c-0.33-1.05-0.87-1.99-1.52-2.87
		c-1.32-1.8-2.85-3.4-4.65-4.74c-0.58-0.43-1.19-0.83-1.77-1.27c0.1,0.04,0.2,0.07,0.3,0.11c1.57,0.66,3.15,1.33,4.72,2
		c1.2,0.5,2.4,1.01,3.61,1.5c1.74,0.71,3.56,0.91,5.42,0.86c0.66-0.02,1.3-0.16,1.88-0.5c0.33-0.19,0.59-0.46,0.78-0.79
		c0.3-0.53,2.93-3.56,4.05-10.15c1.12-6.58-1.17-9.81-2.02-10.36c-0.88-0.57-1.85-0.91-2.86-1.13c-1.53-0.34-3.07-0.42-4.63-0.33
		c-1.67,0.1-3.31,0.39-4.93,0.79c-0.99,0.24-1.95,0.57-2.93,0.87c-0.14,0.04-0.28,0.09-0.49,0.15c0.08-0.09,0.11-0.14,0.15-0.18
		c1.01-0.89,2.02-1.78,3.04-2.67c1.16-1.02,2.15-2.18,2.93-3.51c0.68-1.15,1.11-2.38,1.2-3.71c0.07-1-0.54-4.95-8.32-9.45
		c-10.56-6.12-14.89-0.57-15.52,0.6c-0.43,0.79-0.78,1.61-1.03,2.47c-0.32,1.09-0.6,2.18-0.65,3.32c-0.07,1.33-0.09,2.67,0,4.01
		c0.06,0.91,0.16,1.83,0.24,2.74c0.01,0.09,0.01,0.18,0.02,0.27C367.72,543.74,367.7,543.75,367.68,543.76z"/>
	<path class="st9" d="M501.41,553.26c2.91,0,5.27,2.36,5.27,5.27c0,2.9-2.36,5.26-5.27,5.26c-2.9,0-5.27-2.36-5.27-5.26
		C496.14,555.62,498.51,553.26,501.41,553.26z M503.32,543.76c0.18-0.4,0.35-0.81,0.53-1.21c0.55-1.22,1.06-2.45,1.74-3.61
		c0.78-1.33,1.71-2.53,2.86-3.56c0.9-0.8,8.18-4.56,15.38,5.42c8.91,12.36,2.27,16.7,1.75,17.06c-1.4,0.95-2.92,1.63-4.5,2.22
		c-1.71,0.63-5.41,1.4-5.55,1.43c0.15,0.04,3.27,0.81,4.7,1.37c1.03,0.4,1.95,0.99,2.83,1.66c0.81,0.61,1.57,1.26,2.18,2.08
		c0.62,0.84,0.99,1.78,1.19,2.79c0.03,0.16,0.04,0.34,0.03,0.5c-0.06,1.21,0.45,5.94-6.65,11.23c-5.61,4.18-9.46,3.46-10.25,3.22
		c-0.84-0.26-1.5-0.82-2.14-1.41c-0.84-0.78-1.38-1.77-1.87-2.77c-0.53-1.08-1.47-4.3-1.58-4.74c-0.08-0.31-0.15-0.62-0.23-0.93
		c-0.02-0.07-0.04-0.15-0.11-0.22c-0.01,0.06-0.02,0.12-0.02,0.19c0.01,1.83,0.03,3.67,0.02,5.5c-0.01,1.08-0.02,2.16-0.32,3.2
		c-0.31,1.03-0.69,2.04-1.3,2.94c-0.16,0.23-3.22,4.29-12.73,1.02c-12.71-4.37-9.42-10.11-9-11.43c0.33-1.05,0.87-1.99,1.52-2.87
		c1.32-1.8,2.85-3.4,4.65-4.74c0.58-0.43,1.19-0.83,1.77-1.27c-0.1,0.04-0.2,0.07-0.3,0.11c-1.57,0.66-3.15,1.33-4.72,2
		c-1.2,0.5-2.4,1.01-3.61,1.5c-1.74,0.71-3.56,0.91-5.42,0.86c-0.66-0.02-1.3-0.16-1.88-0.5c-0.33-0.19-0.59-0.46-0.78-0.79
		c-0.3-0.53-2.93-3.56-4.05-10.15c-1.12-6.58,1.17-9.81,2.02-10.36c0.88-0.57,1.85-0.91,2.86-1.13c1.53-0.34,3.07-0.42,4.63-0.33
		c1.67,0.1,3.31,0.39,4.93,0.79c0.99,0.24,1.95,0.57,2.93,0.87c0.14,0.04,0.28,0.09,0.49,0.15c-0.08-0.09-0.11-0.14-0.15-0.18
		c-1.01-0.89-2.02-1.78-3.04-2.67c-1.16-1.02-2.15-2.18-2.93-3.51c-0.68-1.15-1.11-2.38-1.2-3.71c-0.07-1,0.54-4.95,8.31-9.45
		c10.56-6.12,14.89-0.57,15.52,0.6c0.43,0.79,0.78,1.61,1.03,2.47c0.32,1.09,0.6,2.18,0.65,3.32c0.06,1.33,0.09,2.67,0,4.01
		c-0.06,0.91-0.16,1.83-0.24,2.74c-0.01,0.09-0.01,0.18-0.01,0.27C503.28,543.74,503.3,543.75,503.32,543.76z"/>
	<path class="st9" d="M435.28,607.86c5.04,0,9.14,4.1,9.14,9.14c0,5.04-4.1,9.14-9.14,9.14c-5.04,0-9.14-4.1-9.14-9.14
		C426.14,611.95,430.24,607.86,435.28,607.86z M436.28,637.44c-0.07,0.64-0.13,1.27-0.2,1.91c-0.22,1.93-0.37,3.88-0.81,5.78
		c-0.5,2.19-1.24,4.28-2.38,6.22c-0.89,1.52-9.32,9.98-23.77-0.65c-17.89-13.16-10.61-22.17-10.05-22.89
		c1.51-1.94,3.32-3.57,5.25-5.09c2.1-1.65,6.88-4.36,7.07-4.47c-0.22,0-4.9,0.33-7.13,0.2c-1.61-0.1-3.15-0.51-4.67-1.04
		c-1.39-0.49-2.74-1.05-3.95-1.91c-1.24-0.88-2.17-2.02-2.9-3.33c-0.12-0.21-0.21-0.45-0.27-0.69c-0.46-1.71-3.27-8.03,4.22-18.55
		c5.92-8.32,11.59-9.03,12.78-9.05c1.28-0.02,2.45,0.48,3.59,1.01c1.51,0.7,2.7,1.83,3.84,3.01c1.22,1.26,3.95,5.3,4.31,5.86
		c0.25,0.39,0.49,0.79,0.73,1.18c0.06,0.1,0.13,0.19,0.25,0.25c-0.02-0.09-0.03-0.18-0.06-0.27c-0.83-2.54-1.68-5.07-2.48-7.62
		c-0.47-1.5-0.94-3-0.98-4.59c-0.04-1.57,0.05-3.13,0.49-4.65c0.11-0.39,2.55-7.39,17.21-7.1c19.59,0.39,17.59,9.82,17.6,11.83
		c0.01,1.61-0.32,3.15-0.83,4.66c-1.03,3.09-2.43,6-4.33,8.65c-0.61,0.85-1.27,1.68-1.89,2.56c0.12-0.1,0.25-0.19,0.37-0.29
		c1.89-1.63,3.77-3.26,5.66-4.88c1.44-1.24,2.88-2.47,4.34-3.69c2.1-1.75,4.54-2.86,7.14-3.62c0.92-0.27,1.88-0.37,2.84-0.15
		c0.54,0.12,1.02,0.37,1.43,0.75c0.65,0.6,5.65,3.63,10.15,12.27c4.49,8.64,2.76,14.14,1.83,15.29c-0.96,1.19-2.16,2.08-3.46,2.85
		c-1.96,1.16-4.07,1.96-6.27,2.52c-2.36,0.61-4.77,0.93-7.19,1.1c-1.48,0.11-2.97,0.08-4.45,0.11c-0.21,0-0.43,0-0.74,0.01
		c0.15,0.1,0.21,0.15,0.28,0.18c1.8,0.78,3.6,1.57,5.41,2.35c2.06,0.89,3.95,2.06,5.63,3.56c1.45,1.29,2.6,2.8,3.33,4.62
		c0.54,1.35,1.46,7.11-7.32,16.83c-11.92,13.21-20.41,7.44-21.81,6.1c-0.95-0.9-1.8-1.89-2.54-2.97c-0.93-1.36-1.8-2.76-2.39-4.32
		c-0.69-1.82-1.32-3.67-1.79-5.56c-0.32-1.3-0.6-2.61-0.89-3.91c-0.03-0.13-0.06-0.25-0.09-0.38
		C436.35,637.45,436.32,637.45,436.28,637.44z"/>
	<g>
		<g>
			<path class="st10" d="M450.39,395.49c0,0,3.73-5.4,10.32-5.4c6.58,0,10.32,5.4,10.32,5.4"/>
			<path class="st11" d="M471.24,396.25c0,0,4.07-1.43,4.43-5.19"/>
			<path class="st12" d="M468.73,393.88c0,0,3.74-1.31,4.06-4.76"/>
			<path class="st13" d="M465.72,392.06c0,0,3.33-1.17,3.61-4.23"/>
		</g>
		<g>
			<path class="st10" d="M420.42,395.49c0,0-3.73-5.4-10.32-5.4c-6.58,0-10.32,5.4-10.32,5.4"/>
			<path class="st11" d="M399.58,396.25c0,0-4.07-1.43-4.43-5.19"/>
			<path class="st12" d="M402.09,393.88c0,0-3.74-1.31-4.06-4.76"/>
			<path class="st13" d="M405.1,392.06c0,0-3.33-1.17-3.61-4.23"/>
		</g>
	</g>
	<path class="st8" d="M364.7,368.9c8.79-30.76,37.14-53.3,70.7-53.3c33.57,0,61.91,22.54,70.71,53.3c-2.3,0.24-4.63,0.36-6.99,0.36
		c-29.98,0-55.36-19.84-63.71-47.1c-8.35,27.26-33.73,47.1-63.71,47.1C369.33,369.26,367,369.14,364.7,368.9z"/>
</g>
<g>
	<g>
		<path class="st8" d="M586.67,401.75c0.19,0,0.37,0,0.56,0c0.17,0,0.34,0.01,0.51,0.02c38.93,0.87,70.26,32.74,70.26,71.87
			c0,9.48-1.84,24.47-5.18,32.76c-11.25,27.93,26.01,30.44,26.01,102.79c0,31.95-12.47,90.42-40.26,112.92
			c-5.64,4.57-22.19,7.28-40.59,8.14c-0.22,0.09-0.43,0.15-0.66,0.15c-3.51,0.11-7.08,0.16-10.66,0.14
			c-3.57,0.02-7.15-0.03-10.66-0.14c-0.22-0.01-0.44-0.06-0.65-0.15c-18.4-0.86-34.95-3.58-40.59-8.14
			c-27.8-22.5-40.27-80.97-40.27-112.92c0-72.35,37.27-74.85,26.01-102.79c-3.34-8.29-5.18-23.29-5.18-32.76
			c0-39.13,31.33-71,70.26-71.87c0.17-0.01,0.34-0.02,0.51-0.02C586.3,401.75,586.48,401.75,586.67,401.75z"/>
		<path class="st2" d="M586.67,418.37c0.16,0,0.31,0,0.47,0c0.14,0,0.28,0.01,0.43,0.02c32.82,0.73,59.24,27.6,59.24,60.6
			c0,7.99-1.55,20.64-4.36,27.62c-9.49,23.55,21.93,25.67,21.93,86.66c0,26.94-10.51,76.24-33.95,95.21
			c-25.14,20.35-64.09,18.97-87.52,0c-23.44-18.97-33.95-68.27-33.95-95.21c0-61,31.42-63.11,21.93-86.66
			c-2.82-6.99-4.37-19.63-4.37-27.62c0-32.99,26.42-59.87,59.24-60.6c0.14-0.01,0.28-0.02,0.43-0.02
			C586.35,418.37,586.51,418.37,586.67,418.37z"/>
		<path class="st2" d="M642.92,719.03c0-0.4-0.33-0.73-0.73-0.73H531.15c-0.4,0-0.73,0.33-0.73,0.73l-3.13,15.55
			c0,0.4,0.33,0.73,0.73,0.73h117.31c0.4,0,0.73-0.33,0.73-0.73L642.92,719.03z"/>
		<path class="st4" d="M586.67,426.91c29.82,0,54.03,24.21,54.03,54.03c0,29.82-24.21,54.02-54.03,54.02
			c-29.82,0-54.03-24.21-54.03-54.02C532.64,451.12,556.85,426.91,586.67,426.91z"/>
		<path class="st3" d="M534.72,466.07c6.46-22.6,27.29-39.16,51.95-39.16c24.66,0,45.49,16.56,51.95,39.16
			c-1.69,0.18-3.4,0.27-5.13,0.27c-22.03,0-40.68-14.58-46.82-34.61c-6.14,20.03-24.79,34.61-46.82,34.61
			C538.12,466.34,536.41,466.25,534.72,466.07z"/>
		<path class="st7" d="M587.15,587.57c2.87,0,5.2,2.33,5.2,5.2c0,2.87-2.33,5.2-5.2,5.2c-2.87,0-5.2-2.33-5.2-5.2
			C581.95,589.9,584.28,587.57,587.15,587.57z M599.68,598.49c3.53,0,6.4,2.87,6.4,6.4c0,3.53-2.87,6.4-6.4,6.4
			c-3.53,0-6.4-2.87-6.4-6.4C593.28,601.36,596.14,598.49,599.68,598.49z M573.83,598.49c3.53,0,6.4,2.87,6.4,6.4
			c0,3.53-2.87,6.4-6.4,6.4c-3.53,0-6.4-2.87-6.4-6.4C567.43,601.36,570.3,598.49,573.83,598.49z"/>
		<path class="st9" d="M594.68,687.65c2.17,0,3.93-1.76,3.93-3.93c0-2.17-1.76-3.93-3.93-3.93s-3.93,1.76-3.93,3.93
			C590.75,685.89,592.51,687.65,594.68,687.65z M578.83,687.65c2.17,0,3.93-1.76,3.93-3.93c0-2.17-1.76-3.93-3.93-3.93
			s-3.93,1.76-3.93,3.93C574.9,685.89,576.66,687.65,578.83,687.65z M587,694.35c1.76,0,3.19-1.43,3.19-3.19s-1.43-3.19-3.19-3.19
			c-1.76,0-3.19,1.43-3.19,3.19S585.24,694.35,587,694.35z"/>
		<path class="st7" d="M626.02,665.69c1.08-1.88,0.44-4.28-1.44-5.36c-1.88-1.08-4.28-0.44-5.36,1.44
			c-1.08,1.88-0.44,4.28,1.44,5.36C622.53,668.21,624.93,667.56,626.02,665.69z M627.98,675.69c0.88-1.52,0.36-3.48-1.17-4.36
			c-1.52-0.88-3.48-0.36-4.36,1.17c-0.88,1.52-0.36,3.48,1.17,4.36C625.15,677.74,627.1,677.22,627.98,675.69z M618.09,679.42
			c1.08-1.88,0.44-4.28-1.44-5.36c-1.88-1.08-4.28-0.44-5.36,1.44c-1.08,1.88-0.44,4.28,1.44,5.36
			C614.6,681.94,617.01,681.29,618.09,679.42z"/>
		<path class="st9" d="M523.25,571.81c1.7-0.46,3.45,0.55,3.91,2.26s-0.55,3.45-2.26,3.91s-3.45-0.55-3.91-2.26
			C520.54,574.02,521.55,572.27,523.25,571.81z M532.41,576.3c2.09-0.56,4.25,0.68,4.81,2.77c0.56,2.1-0.68,4.25-2.78,4.81
			c-2.09,0.56-4.25-0.69-4.81-2.78C529.07,579.01,530.31,576.86,532.41,576.3z M517.09,580.4c2.09-0.56,4.25,0.68,4.81,2.78
			c0.56,2.09-0.68,4.25-2.78,4.81c-2.09,0.56-4.25-0.69-4.81-2.78C513.75,583.12,515,580.96,517.09,580.4z"/>
		<path class="st7" d="M547.18,665.69c-1.08-1.88-0.44-4.28,1.44-5.36c1.88-1.08,4.28-0.44,5.36,1.44c1.08,1.88,0.44,4.28-1.44,5.36
			C550.67,668.21,548.27,667.56,547.18,665.69z M545.22,675.69c-0.88-1.52-0.36-3.48,1.17-4.36c1.53-0.88,3.48-0.36,4.36,1.17
			c0.88,1.52,0.36,3.48-1.17,4.36C548.06,677.74,546.1,677.22,545.22,675.69z M555.11,679.42c-1.08-1.88-0.44-4.28,1.44-5.36
			c1.88-1.08,4.28-0.44,5.36,1.44c1.08,1.88,0.44,4.28-1.44,5.36C558.6,681.94,556.19,681.29,555.11,679.42z"/>
		<path class="st3" d="M627.35,633.51c0.29-0.81,7.16-2.51,13.95-0.03c6.79,2.48,10.97,8.15,10.66,9.01s-7.16,2.51-13.96,0.03
			C631.21,640.04,627.05,634.32,627.35,633.51z M625.65,636.5c0.78-0.36,6.84,3.29,9.9,9.84c3.05,6.55,2,13.52,1.17,13.9
			c-0.83,0.39-6.84-3.29-9.9-9.84C623.77,643.85,624.87,636.86,625.65,636.5z"/>
		<path class="st3" d="M548.18,633.51c-0.3-0.81-7.16-2.51-13.96-0.03c-6.79,2.48-10.97,8.15-10.66,9.01
			c0.31,0.86,7.16,2.51,13.96,0.03C544.32,640.04,548.48,634.32,548.18,633.51z M549.88,636.5c-0.78-0.36-6.84,3.29-9.9,9.84
			c-3.05,6.55-2,13.52-1.17,13.9c0.83,0.39,6.84-3.29,9.9-9.84C551.76,643.85,550.66,636.86,549.88,636.5z"/>
		<path class="st3" d="M574.73,589.37c0.86,0.03,5.05-5.67,5.35-12.89c0.3-7.22-3.36-13.25-4.27-13.29
			c-0.91-0.04-5.05,5.67-5.35,12.89C570.16,583.3,573.87,589.33,574.73,589.37z M571.32,589.8c0.63-0.58-0.43-7.58-5.33-12.9
			c-4.9-5.32-11.74-7-12.41-6.38c-0.67,0.62,0.43,7.58,5.33,12.9C563.8,588.73,570.68,590.38,571.32,589.8z"/>
		<path class="st3" d="M601.7,589.37c-0.86,0.03-5.05-5.67-5.35-12.89c-0.3-7.22,3.36-13.25,4.27-13.29
			c0.91-0.04,5.05,5.67,5.35,12.89C606.27,583.3,602.56,589.33,601.7,589.37z M605.11,589.8c-0.63-0.58,0.43-7.58,5.33-12.9
			c4.9-5.32,11.74-7,12.41-6.38c0.67,0.62-0.43,7.58-5.33,12.9C612.63,588.73,605.74,590.38,605.11,589.8z"/>
		<path class="st8" d="M539.81,601.54c2.13,0,3.87,1.73,3.87,3.87c0,2.14-1.73,3.87-3.87,3.87c-2.14,0-3.87-1.73-3.87-3.87
			C535.94,603.28,537.67,601.54,539.81,601.54z M537.01,594.56c-0.13-0.3-0.26-0.59-0.39-0.88c-0.4-0.9-0.78-1.8-1.28-2.65
			c-0.58-0.97-1.26-1.86-2.11-2.62c-0.66-0.59-6.01-3.35-11.3,3.98c-6.55,9.08-1.67,12.27-1.29,12.53c1.02,0.7,2.15,1.2,3.31,1.63
			c1.26,0.47,3.97,1.03,4.08,1.05c-0.11,0.03-2.4,0.6-3.45,1.01c-0.76,0.3-1.43,0.73-2.08,1.22c-0.59,0.45-1.15,0.93-1.6,1.53
			c-0.46,0.61-0.72,1.31-0.88,2.05c-0.02,0.12-0.03,0.25-0.02,0.37c0.04,0.89-0.33,4.36,4.89,8.25c4.13,3.08,6.95,2.54,7.53,2.37
			c0.62-0.19,1.1-0.61,1.57-1.04c0.62-0.57,1.01-1.3,1.37-2.04c0.39-0.79,1.08-3.16,1.17-3.48c0.06-0.23,0.11-0.45,0.17-0.68
			c0.01-0.06,0.03-0.11,0.08-0.16c0.01,1.48-0.01,2.83,0,4.18c0.01,0.79,0.01,1.59,0.24,2.35c0.23,0.76,0.51,1.5,0.96,2.16
			c0.11,0.17,2.37,3.15,9.35,0.75c9.34-3.21,6.92-7.43,6.62-8.4c-0.25-0.77-0.64-1.46-1.12-2.11c-0.97-1.32-2.1-2.5-3.41-3.48
			c-0.43-0.32-0.87-0.61-1.3-0.93c0.08,0.03,0.15,0.05,0.22,0.08c1.16,0.49,2.31,0.98,3.47,1.47c0.88,0.37,1.77,0.74,2.65,1.1
			c1.28,0.52,2.62,0.67,3.99,0.64c0.48-0.01,0.96-0.11,1.38-0.37c0.24-0.14,0.43-0.34,0.57-0.58c0.22-0.39,2.15-2.62,2.97-7.45
			c0.82-4.84-0.86-7.21-1.48-7.62c-0.65-0.42-1.36-0.67-2.1-0.83c-1.12-0.25-2.26-0.31-3.4-0.24c-1.23,0.07-2.43,0.29-3.62,0.58
			c-0.73,0.18-1.44,0.42-2.15,0.64c-0.1,0.03-0.21,0.06-0.36,0.11c0.06-0.07,0.08-0.1,0.11-0.13c0.74-0.65,1.48-1.31,2.23-1.96
			c0.85-0.75,1.58-1.6,2.15-2.58c0.5-0.85,0.82-1.75,0.88-2.73c0.05-0.73-0.4-3.64-6.11-6.95c-7.76-4.49-10.94-0.42-11.41,0.44
			c-0.32,0.58-0.57,1.19-0.76,1.82c-0.23,0.8-0.44,1.61-0.48,2.44c-0.05,0.98-0.07,1.96,0,2.94c0.05,0.67,0.12,1.34,0.18,2.01
			c0.01,0.07,0.01,0.13,0.01,0.2C537.04,594.55,537.02,594.55,537.01,594.56z"/>
		<path class="st8" d="M635.27,601.54c2.13,0,3.87,1.73,3.87,3.87c0,2.14-1.74,3.87-3.87,3.87c-2.13,0-3.87-1.73-3.87-3.87
			C631.4,603.28,633.14,601.54,635.27,601.54z M636.67,594.56c0.13-0.3,0.26-0.59,0.39-0.88c0.4-0.9,0.78-1.8,1.28-2.65
			c0.58-0.97,1.26-1.86,2.1-2.62c0.66-0.59,6.01-3.35,11.3,3.98c6.55,9.08,1.67,12.27,1.29,12.53c-1.02,0.7-2.14,1.2-3.3,1.63
			c-1.26,0.47-3.98,1.03-4.08,1.05c0.11,0.03,2.4,0.6,3.45,1.01c0.76,0.3,1.44,0.73,2.08,1.22c0.59,0.45,1.16,0.93,1.6,1.53
			c0.46,0.61,0.73,1.31,0.88,2.05c0.03,0.12,0.03,0.25,0.02,0.37c-0.04,0.89,0.33,4.36-4.89,8.25c-4.13,3.08-6.95,2.54-7.53,2.37
			c-0.62-0.19-1.1-0.61-1.57-1.04c-0.62-0.57-1.02-1.3-1.38-2.04c-0.39-0.79-1.08-3.16-1.16-3.48c-0.06-0.23-0.11-0.45-0.17-0.68
			c-0.01-0.06-0.03-0.11-0.08-0.16c-0.01,1.48,0.01,2.83,0,4.18c0,0.79-0.01,1.59-0.24,2.35c-0.23,0.76-0.51,1.5-0.95,2.16
			c-0.12,0.17-2.37,3.15-9.35,0.75c-9.34-3.21-6.92-7.43-6.62-8.4c0.24-0.77,0.64-1.46,1.12-2.11c0.97-1.32,2.09-2.5,3.41-3.48
			c0.43-0.32,0.87-0.61,1.3-0.93c-0.07,0.03-0.15,0.05-0.22,0.08c-1.16,0.49-2.31,0.98-3.47,1.47c-0.88,0.37-1.76,0.74-2.65,1.1
			c-1.28,0.52-2.62,0.67-3.98,0.64c-0.49-0.01-0.96-0.11-1.38-0.37c-0.24-0.14-0.43-0.34-0.57-0.58c-0.22-0.39-2.15-2.62-2.97-7.45
			c-0.82-4.84,0.86-7.21,1.48-7.62c0.65-0.42,1.35-0.67,2.1-0.83c1.12-0.25,2.26-0.31,3.4-0.24c1.23,0.07,2.43,0.29,3.62,0.58
			c0.72,0.18,1.43,0.42,2.15,0.64c0.1,0.03,0.21,0.06,0.36,0.11c-0.06-0.07-0.08-0.1-0.11-0.13c-0.74-0.65-1.48-1.31-2.23-1.96
			c-0.85-0.75-1.58-1.6-2.15-2.58c-0.5-0.85-0.82-1.75-0.88-2.73c-0.05-0.73,0.4-3.64,6.11-6.95c7.76-4.49,10.94-0.42,11.41,0.44
			c0.31,0.58,0.57,1.19,0.76,1.82c0.23,0.8,0.44,1.61,0.48,2.44c0.05,0.98,0.07,1.96,0,2.94c-0.05,0.67-0.12,1.34-0.18,2.01
			c0,0.07-0.01,0.13-0.01,0.2C636.64,594.55,636.66,594.55,636.67,594.56z"/>
		<path class="st8" d="M586.68,641.66c3.71,0,6.72,3.01,6.72,6.72c0,3.71-3.01,6.72-6.72,6.72c-3.71,0-6.72-3.01-6.72-6.72
			C579.96,644.67,582.97,641.66,586.68,641.66z M587.42,663.4c-0.05,0.47-0.1,0.94-0.15,1.4c-0.16,1.42-0.27,2.85-0.59,4.25
			c-0.37,1.61-0.92,3.14-1.75,4.57c-0.65,1.11-6.85,7.33-17.46-0.48c-13.15-9.67-7.8-16.29-7.39-16.82
			c1.11-1.43,2.44-2.63,3.86-3.74c1.54-1.21,5.06-3.2,5.2-3.28c-0.17,0-3.6,0.24-5.24,0.14c-1.18-0.07-2.32-0.37-3.43-0.76
			c-1.02-0.36-2.02-0.77-2.91-1.4c-0.91-0.65-1.59-1.49-2.13-2.45c-0.09-0.16-0.15-0.33-0.2-0.51c-0.34-1.25-2.41-5.9,3.1-13.63
			c4.35-6.11,8.51-6.64,9.39-6.65c0.94-0.01,1.8,0.35,2.64,0.74c1.11,0.52,1.98,1.35,2.82,2.21c0.89,0.93,2.9,3.9,3.17,4.31
			c0.18,0.29,0.36,0.58,0.54,0.87c0.04,0.07,0.09,0.14,0.18,0.19c-0.01-0.06-0.02-0.13-0.04-0.19c-0.61-1.87-1.24-3.73-1.83-5.6
			c-0.35-1.1-0.69-2.21-0.72-3.37c-0.03-1.15,0.03-2.3,0.36-3.42c0.08-0.29,1.88-5.43,12.64-5.22c14.39,0.29,12.93,7.22,12.93,8.7
			c0.01,1.18-0.23,2.31-0.61,3.42c-0.76,2.27-1.79,4.41-3.18,6.36c-0.45,0.63-0.94,1.24-1.39,1.88c0.09-0.07,0.19-0.14,0.27-0.21
			c1.39-1.2,2.77-2.39,4.16-3.59c1.06-0.91,2.12-1.82,3.19-2.71c1.54-1.29,3.34-2.1,5.25-2.66c0.68-0.2,1.38-0.27,2.08-0.11
			c0.4,0.09,0.75,0.28,1.05,0.55c0.48,0.44,4.15,2.67,7.46,9.02s2.02,10.39,1.34,11.23c-0.71,0.87-1.58,1.53-2.54,2.09
			c-1.44,0.85-2.99,1.44-4.61,1.86c-1.74,0.45-3.5,0.68-5.28,0.81c-1.09,0.08-2.18,0.06-3.27,0.08c-0.16,0-0.31,0-0.54,0
			c0.11,0.07,0.15,0.11,0.21,0.13c1.32,0.58,2.65,1.15,3.97,1.72c1.51,0.65,2.9,1.51,4.14,2.61c1.07,0.95,1.91,2.06,2.44,3.39
			c0.4,1,1.07,5.23-5.38,12.37c-8.76,9.71-15,5.47-16.03,4.48c-0.7-0.66-1.33-1.39-1.86-2.18c-0.69-1-1.33-2.03-1.76-3.17
			c-0.5-1.34-0.97-2.69-1.32-4.08c-0.23-0.95-0.44-1.92-0.66-2.87c-0.02-0.09-0.05-0.18-0.07-0.28
			C587.46,663.4,587.44,663.4,587.42,663.4z"/>
		<g>
			<path class="st5" d="M623.46,487.84c-4.28,0-7.75,3.47-7.75,7.75c0,4.28,3.47,7.75,7.75,7.75c4.28,0,7.75-3.47,7.75-7.75
				C631.22,491.31,627.74,487.84,623.46,487.84z M551.05,487.84c4.28,0,7.75,3.47,7.75,7.75c0,4.28-3.47,7.75-7.75,7.75
				c-4.28,0-7.75-3.47-7.75-7.75C543.3,491.31,546.77,487.84,551.05,487.84z"/>
			<path class="st6" d="M587.26,507.44c0.35-0.69,1.77-1.8,2.4-1.8c3.14,0.04,5.42,2.53,7.32,1.93c0.16-0.05,0.28,0.26,0.06,0.49
				c-2.62,2.69-4.92,5.76-9.61,5.75c-4.69-0.01-7.33-3.06-9.95-5.75c-0.22-0.23-0.1-0.54,0.05-0.49c1.91,0.6,4.21-1.92,7.32-1.93
				C585.48,505.64,586.91,506.75,587.26,507.44z"/>
			<g>
				<g>
					<path class="st14" d="M598.44,485.62c0,0,2.78-4.03,7.69-4.03c4.91,0,7.69,4.03,7.69,4.03"/>
					<path class="st15" d="M613.98,486.19c0,0,3.04-1.07,3.3-3.87"/>
					<path class="st16" d="M612.11,484.42c0,0,2.79-0.98,3.03-3.55"/>
					<path class="st17" d="M609.87,483.07c0,0,2.48-0.87,2.7-3.16"/>
				</g>
				<g>
					<path class="st14" d="M576.08,485.62c0,0-2.78-4.03-7.69-4.03c-4.91,0-7.69,4.03-7.69,4.03"/>
					<path class="st15" d="M560.53,486.19c0,0-3.04-1.07-3.3-3.87"/>
					<path class="st16" d="M562.4,484.42c0,0-2.79-0.98-3.03-3.55"/>
					<path class="st17" d="M564.65,483.07c0,0-2.48-0.87-2.7-3.16"/>
				</g>
			</g>
		</g>
	</g>
	<path class="st9" d="M650.43,571.81c-1.7-0.46-3.45,0.55-3.91,2.26c-0.46,1.7,0.55,3.45,2.26,3.91c1.7,0.46,3.45-0.55,3.91-2.26
		S652.13,572.27,650.43,571.81z M641.28,576.3c-2.09-0.56-4.25,0.68-4.81,2.77c-0.56,2.1,0.68,4.25,2.77,4.81
		c2.09,0.56,4.25-0.69,4.81-2.78C644.61,579.01,643.37,576.86,641.28,576.3z M656.59,580.4c-2.09-0.56-4.25,0.68-4.81,2.78
		c-0.56,2.09,0.68,4.25,2.77,4.81c2.1,0.56,4.25-0.69,4.81-2.78C659.93,583.12,658.68,580.96,656.59,580.4z"/>
</g>
<g>
	<path class="st3" d="M704.04,496c0.13,0,0.27,0,0.4,0c0.12,0,0.24,0.01,0.36,0.02c27.93,0.62,50.41,23.49,50.41,51.56
		c0,6.8-1.32,17.56-3.72,23.5c-8.07,20.04,18.66,21.84,18.66,73.74c0,22.92-8.94,64.87-28.89,81.02
		c-4.05,3.28-15.92,5.22-29.12,5.84c-0.16,0.07-0.31,0.1-0.47,0.11c-2.52,0.08-5.08,0.12-7.65,0.1c-2.56,0.01-5.13-0.02-7.64-0.1
		c-0.16-0.01-0.31-0.04-0.47-0.11c-13.2-0.62-25.08-2.56-29.12-5.84c-19.94-16.14-28.89-58.09-28.89-81.02
		c0-51.9,26.73-53.7,18.66-73.74c-2.4-5.95-3.71-16.7-3.71-23.5c0-28.08,22.48-50.94,50.41-51.56c0.12-0.01,0.24-0.02,0.36-0.02
		C703.77,496,703.91,496,704.04,496z"/>
	<path class="st8" d="M704.04,507.92c0.11,0,0.23,0,0.34,0c0.1,0,0.2,0,0.31,0.01c23.55,0.52,42.5,19.81,42.5,43.48
		c0,5.73-1.11,14.8-3.13,19.82c-6.81,16.9,15.74,18.41,15.74,62.17c0,19.33-7.54,54.7-24.36,68.31c-18.03,14.6-45.98,13.61-62.79,0
		c-16.81-13.61-24.36-48.98-24.36-68.31c0-43.76,22.54-45.28,15.74-62.17c-2.02-5.01-3.13-14.09-3.13-19.82
		c0-23.67,18.96-42.95,42.5-43.48c0.1-0.01,0.2-0.01,0.31-0.01C703.81,507.92,703.93,507.92,704.04,507.92z"/>
	<path class="st8" d="M744.4,723.63c0-0.29-0.24-0.52-0.52-0.52h-79.67c-0.29,0-0.52,0.23-0.52,0.52l-2.24,11.16
		c0,0.29,0.24,0.52,0.52,0.52h84.16c0.29,0,0.52-0.23,0.52-0.52L744.4,723.63z"/>
	<path class="st4" d="M704.04,514.05c21.39,0,38.76,17.37,38.76,38.76c0,21.39-17.37,38.76-38.76,38.76
		c-21.39,0-38.76-17.37-38.76-38.76C665.28,531.42,682.65,514.05,704.04,514.05z"/>
	<path class="st5" d="M729.63,557.76c-3.02,0-5.48,2.45-5.48,5.48c0,3.02,2.45,5.48,5.48,5.48c3.03,0,5.48-2.45,5.48-5.48
		C735.11,560.22,732.65,557.76,729.63,557.76z M678.46,557.76c3.03,0,5.48,2.45,5.48,5.48c0,3.02-2.45,5.48-5.48,5.48
		s-5.48-2.45-5.48-5.48C672.97,560.22,675.43,557.76,678.46,557.76z"/>
	<path class="st2" d="M666.77,542.15c4.64-16.22,19.58-28.1,37.27-28.1c17.7,0,32.64,11.88,37.27,28.1
		c-1.21,0.13-2.44,0.19-3.68,0.19c-15.8,0-29.19-10.46-33.59-24.83c-4.4,14.37-17.78,24.83-33.59,24.83
		C669.21,542.34,667.98,542.28,666.77,542.15z"/>
	<path class="st7" d="M704.39,629.31c2.06,0,3.73,1.67,3.73,3.73s-1.67,3.73-3.73,3.73s-3.73-1.67-3.73-3.73
		S702.33,629.31,704.39,629.31z M713.37,637.15c2.54,0,4.59,2.06,4.59,4.59c0,2.53-2.06,4.59-4.59,4.59c-2.53,0-4.59-2.06-4.59-4.59
		C708.78,639.21,710.84,637.15,713.37,637.15z M694.83,637.15c2.53,0,4.59,2.06,4.59,4.59c0,2.53-2.06,4.59-4.59,4.59
		s-4.59-2.06-4.59-4.59C690.24,639.21,692.3,637.15,694.83,637.15z"/>
	<path class="st3" d="M709.79,701.11c1.56,0,2.82-1.26,2.82-2.82c0-1.55-1.26-2.82-2.82-2.82c-1.56,0-2.82,1.26-2.82,2.82
		C706.97,699.85,708.23,701.11,709.79,701.11z M698.41,701.11c1.56,0,2.82-1.26,2.82-2.82c0-1.55-1.26-2.82-2.82-2.82
		c-1.55,0-2.82,1.26-2.82,2.82C695.6,699.85,696.86,701.11,698.41,701.11z M704.28,705.92c1.26,0,2.29-1.03,2.29-2.29
		s-1.03-2.29-2.29-2.29s-2.29,1.03-2.29,2.29S703.01,705.92,704.28,705.92z"/>
	<path class="st7" d="M732.27,685.36c0.78-1.35,0.31-3.07-1.03-3.85c-1.35-0.78-3.07-0.32-3.85,1.03c-0.78,1.35-0.32,3.07,1.03,3.85
		C729.77,687.17,731.5,686.71,732.27,685.36z M733.68,692.54c0.63-1.09,0.25-2.49-0.84-3.13c-1.09-0.63-2.5-0.26-3.13,0.84
		c-0.63,1.09-0.25,2.5,0.84,3.13C731.65,694.01,733.05,693.63,733.68,692.54z M726.59,695.21c0.78-1.35,0.31-3.07-1.03-3.85
		c-1.35-0.78-3.07-0.32-3.85,1.03c-0.78,1.35-0.32,3.07,1.03,3.85C724.08,697.02,725.81,696.56,726.59,695.21z"/>
	<path class="st3" d="M749.79,618.01c-1.22-0.33-2.48,0.4-2.8,1.62c-0.33,1.22,0.4,2.48,1.62,2.8c1.22,0.33,2.48-0.4,2.8-1.62
		C751.73,619.6,751.01,618.34,749.79,618.01z M743.22,621.23c-1.5-0.4-3.05,0.49-3.45,1.99c-0.4,1.5,0.49,3.05,1.99,3.45
		c1.5,0.4,3.05-0.49,3.45-1.99C745.61,623.18,744.72,621.63,743.22,621.23z M754.21,624.17c-1.5-0.4-3.05,0.49-3.45,1.99
		c-0.4,1.5,0.49,3.05,1.99,3.45c1.5,0.4,3.05-0.49,3.45-1.99C756.6,626.12,755.71,624.58,754.21,624.17z"/>
	<path class="st3" d="M658.54,618.01c1.22-0.33,2.48,0.4,2.8,1.62c0.33,1.22-0.4,2.48-1.62,2.8c-1.22,0.33-2.48-0.4-2.8-1.62
		C656.59,619.6,657.32,618.34,658.54,618.01z M665.11,621.23c1.5-0.4,3.05,0.49,3.45,1.99c0.4,1.5-0.49,3.05-1.99,3.45
		c-1.5,0.4-3.05-0.49-3.45-1.99C662.71,623.18,663.61,621.63,665.11,621.23z M654.12,624.17c1.5-0.4,3.05,0.49,3.45,1.99
		s-0.49,3.05-1.99,3.45c-1.5,0.4-3.05-0.49-3.45-1.99C651.73,626.12,652.62,624.58,654.12,624.17z"/>
	<path class="st7" d="M675.71,685.36c-0.78-1.35-0.32-3.07,1.03-3.85c1.35-0.78,3.07-0.32,3.85,1.03c0.77,1.35,0.31,3.07-1.03,3.85
		C678.21,687.17,676.49,686.71,675.71,685.36z M674.3,692.54c-0.63-1.09-0.25-2.49,0.84-3.13s2.5-0.26,3.13,0.84
		c0.63,1.09,0.26,2.5-0.84,3.13C676.34,694.01,674.94,693.63,674.3,692.54z M681.4,695.21c-0.77-1.35-0.31-3.07,1.03-3.85
		c1.35-0.78,3.07-0.32,3.85,1.03c0.78,1.35,0.32,3.07-1.03,3.85C683.9,697.02,682.18,696.56,681.4,695.21z"/>
	<path class="st4" d="M733.23,662.28c0.21-0.58,5.14-1.8,10.01-0.02c4.87,1.78,7.87,5.85,7.65,6.46c-0.23,0.62-5.14,1.8-10.01,0.02
		C736,666.96,733.01,662.86,733.23,662.28z M732.01,664.42c0.56-0.26,4.91,2.36,7.1,7.06c2.19,4.7,1.44,9.7,0.84,9.98
		c-0.59,0.28-4.91-2.36-7.1-7.06C730.66,669.7,731.45,664.68,732.01,664.42z"/>
	<path class="st4" d="M676.43,662.28c-0.21-0.58-5.14-1.8-10.01-0.02c-4.88,1.78-7.87,5.85-7.65,6.46c0.22,0.62,5.14,1.8,10.01,0.02
		C673.65,666.96,676.64,662.86,676.43,662.28z M677.64,664.42c-0.56-0.26-4.91,2.36-7.1,7.06c-2.19,4.7-1.44,9.7-0.84,9.98
		c0.59,0.28,4.91-2.36,7.1-7.06C679,669.7,678.21,664.68,677.64,664.42z"/>
	<path class="st4" d="M695.47,630.6c0.62,0.03,3.62-4.07,3.84-9.25c0.21-5.18-2.41-9.51-3.07-9.53c-0.66-0.03-3.62,4.06-3.83,9.25
		C692.2,626.26,694.85,630.58,695.47,630.6z M693.03,630.91c0.45-0.42-0.31-5.44-3.82-9.25c-3.51-3.82-8.42-5.02-8.9-4.58
		c-0.48,0.45,0.31,5.44,3.82,9.25C687.63,630.15,692.57,631.33,693.03,630.91z"/>
	<path class="st4" d="M714.82,630.6c-0.61,0.03-3.62-4.07-3.83-9.25c-0.21-5.18,2.41-9.51,3.06-9.53c0.66-0.03,3.62,4.06,3.84,9.25
		C718.1,626.26,715.44,630.58,714.82,630.6z M717.27,630.91c-0.45-0.42,0.31-5.44,3.82-9.25c3.51-3.82,8.42-5.02,8.9-4.58
		c0.48,0.45-0.31,5.44-3.82,9.25C722.66,630.15,717.73,631.33,717.27,630.91z"/>
	<path class="st7" d="M670.42,639.34c1.53,0,2.78,1.24,2.78,2.78c0,1.53-1.24,2.78-2.78,2.78c-1.53,0-2.77-1.24-2.77-2.78
		C667.65,640.58,668.89,639.34,670.42,639.34z M668.41,634.33c-0.09-0.21-0.18-0.42-0.28-0.64c-0.29-0.64-0.56-1.29-0.92-1.9
		c-0.41-0.7-0.9-1.33-1.51-1.88c-0.47-0.42-4.31-2.4-8.11,2.86c-4.7,6.51-1.19,8.81-0.92,8.99c0.73,0.5,1.54,0.86,2.37,1.17
		c0.9,0.33,2.85,0.74,2.93,0.75c-0.08,0.02-1.72,0.43-2.48,0.72c-0.54,0.21-1.03,0.52-1.49,0.87c-0.42,0.32-0.83,0.67-1.15,1.1
		c-0.33,0.44-0.52,0.94-0.63,1.47c-0.02,0.09-0.02,0.18-0.02,0.27c0.03,0.64-0.24,3.13,3.51,5.92c2.96,2.21,4.99,1.82,5.4,1.7
		c0.45-0.14,0.79-0.44,1.13-0.74c0.45-0.41,0.73-0.93,0.99-1.46c0.28-0.57,0.77-2.26,0.83-2.5c0.04-0.16,0.08-0.32,0.12-0.49
		c0.06,0.95,0.05,1.92,0.06,2.88c0,0.57,0.01,1.14,0.17,1.69c0.16,0.54,0.36,1.07,0.69,1.55c0.08,0.12,1.7,2.26,6.71,0.54
		c6.7-2.3,4.97-5.33,4.75-6.02c-0.18-0.55-0.46-1.05-0.8-1.51c-0.7-0.95-1.5-1.79-2.45-2.5c-0.3-0.23-0.62-0.44-0.93-0.67
		c0.05,0.02,0.11,0.04,0.16,0.06c0.83,0.35,1.66,0.7,2.49,1.05c0.63,0.27,1.27,0.53,1.9,0.79c0.92,0.37,1.88,0.48,2.86,0.46
		c0.35-0.01,0.69-0.08,0.99-0.26c0.17-0.1,0.31-0.24,0.41-0.42c0.16-0.28,1.54-1.88,2.14-5.35c0.59-3.47-0.62-5.17-1.07-5.46
		c-0.46-0.3-0.97-0.48-1.51-0.6c-0.8-0.18-1.62-0.22-2.44-0.17c-0.88,0.05-1.74,0.21-2.6,0.42c-0.52,0.13-1.03,0.3-1.54,0.46
		c-0.07,0.02-0.15,0.05-0.26,0.08c0.61-0.56,1.14-1.03,1.68-1.5c0.61-0.54,1.13-1.15,1.54-1.85c0.36-0.61,0.59-1.25,0.63-1.96
		c0.04-0.53-0.29-2.61-4.38-4.98c-5.57-3.23-7.85-0.3-8.18,0.32c-0.23,0.42-0.41,0.85-0.55,1.3c-0.17,0.57-0.31,1.15-0.34,1.75
		c-0.03,0.7-0.05,1.41,0,2.11c0.03,0.48,0.08,0.96,0.13,1.45C668.43,634.32,668.42,634.32,668.41,634.33z"/>
	<path class="st7" d="M738.91,639.34c1.53,0,2.78,1.24,2.78,2.78c0,1.53-1.24,2.78-2.78,2.78c-1.53,0-2.77-1.24-2.77-2.78
		C736.14,640.58,737.38,639.34,738.91,639.34z M739.92,634.33c0.09-0.21,0.18-0.42,0.28-0.64c0.29-0.64,0.56-1.29,0.92-1.9
		c0.41-0.7,0.9-1.33,1.51-1.88c0.47-0.42,4.31-2.4,8.11,2.86c4.7,6.51,1.19,8.81,0.92,8.99c-0.74,0.5-1.54,0.86-2.37,1.17
		c-0.9,0.33-2.85,0.74-2.93,0.75c0.08,0.02,1.72,0.43,2.48,0.72c0.54,0.21,1.03,0.52,1.49,0.87c0.42,0.32,0.83,0.67,1.15,1.1
		c0.33,0.44,0.52,0.94,0.63,1.47c0.02,0.09,0.02,0.18,0.02,0.27c-0.03,0.64,0.24,3.13-3.51,5.92c-2.96,2.21-4.99,1.82-5.4,1.7
		c-0.44-0.14-0.79-0.44-1.13-0.74c-0.44-0.41-0.73-0.93-0.99-1.46c-0.28-0.57-0.77-2.26-0.83-2.5c-0.04-0.16-0.08-0.32-0.12-0.49
		c-0.06,0.95-0.05,1.92-0.05,2.88c-0.01,0.57-0.01,1.14-0.17,1.69c-0.16,0.54-0.36,1.07-0.68,1.55c-0.08,0.12-1.7,2.26-6.71,0.54
		c-6.7-2.3-4.97-5.33-4.75-6.02c0.18-0.55,0.46-1.05,0.8-1.51c0.7-0.95,1.5-1.79,2.45-2.5c0.3-0.23,0.62-0.44,0.93-0.67
		c-0.05,0.02-0.11,0.04-0.16,0.06c-0.83,0.35-1.66,0.7-2.49,1.05c-0.63,0.27-1.27,0.53-1.9,0.79c-0.92,0.37-1.88,0.48-2.86,0.46
		c-0.35-0.01-0.69-0.08-0.99-0.26c-0.17-0.1-0.31-0.24-0.41-0.42c-0.16-0.28-1.54-1.88-2.13-5.35c-0.59-3.47,0.62-5.17,1.06-5.46
		c0.46-0.3,0.98-0.48,1.51-0.6c0.8-0.18,1.62-0.22,2.44-0.17c0.88,0.05,1.74,0.21,2.6,0.42c0.52,0.13,1.03,0.3,1.54,0.46
		c0.08,0.02,0.15,0.05,0.26,0.08c-0.61-0.56-1.14-1.03-1.68-1.5c-0.61-0.54-1.13-1.15-1.54-1.85c-0.36-0.61-0.59-1.25-0.63-1.96
		c-0.03-0.53,0.29-2.61,4.38-4.98c5.57-3.23,7.85-0.3,8.18,0.32c0.23,0.42,0.41,0.85,0.55,1.3c0.17,0.57,0.31,1.15,0.34,1.75
		c0.03,0.7,0.05,1.41,0,2.11c-0.03,0.48-0.08,0.96-0.13,1.45C739.89,634.32,739.9,634.32,739.92,634.33z"/>
	<path class="st7" d="M704.05,668.12c2.66,0,4.82,2.16,4.82,4.82s-2.16,4.82-4.82,4.82s-4.82-2.16-4.82-4.82
		S701.39,668.12,704.05,668.12z M704.58,683.72c-0.03,0.34-0.07,0.67-0.11,1.01c-0.12,1.02-0.2,2.04-0.43,3.05
		c-0.26,1.15-0.66,2.26-1.25,3.28c-0.47,0.8-4.91,5.26-12.53-0.34c-9.43-6.94-5.6-11.69-5.3-12.07c0.8-1.02,1.75-1.88,2.77-2.68
		c1.1-0.87,3.62-2.3,3.73-2.36c-0.12,0-2.58,0.17-3.76,0.1c-0.85-0.05-1.66-0.27-2.46-0.55c-0.74-0.26-1.45-0.55-2.08-1.01
		c-0.65-0.46-1.14-1.07-1.53-1.76c-0.06-0.11-0.11-0.24-0.14-0.36c-0.24-0.9-1.72-4.24,2.22-9.78c3.12-4.39,6.11-4.76,6.74-4.77
		c0.68-0.01,1.29,0.25,1.9,0.53c0.8,0.37,1.42,0.97,2.02,1.59c0.64,0.66,2.08,2.8,2.27,3.09c0.13,0.21,0.26,0.41,0.39,0.62
		c0.03,0.05,0.07,0.1,0.13,0.13c-0.47-1.48-0.92-2.81-1.34-4.16c-0.25-0.79-0.5-1.58-0.51-2.42c-0.02-0.83,0.02-1.65,0.26-2.45
		c0.06-0.21,1.35-3.9,9.07-3.74c10.33,0.21,9.27,5.18,9.28,6.24c0,0.85-0.17,1.66-0.44,2.46c-0.54,1.63-1.28,3.16-2.28,4.56
		c-0.32,0.45-0.67,0.89-0.99,1.35c0.06-0.05,0.13-0.1,0.19-0.15c0.99-0.86,1.99-1.72,2.98-2.57c0.76-0.65,1.52-1.3,2.29-1.94
		c1.11-0.93,2.39-1.51,3.77-1.91c0.49-0.14,0.99-0.19,1.5-0.08c0.29,0.07,0.54,0.2,0.76,0.4c0.34,0.32,2.98,1.92,5.35,6.47
		c2.37,4.55,1.45,7.45,0.96,8.06c-0.51,0.63-1.13,1.1-1.82,1.5c-1.04,0.61-2.15,1.03-3.31,1.33c-1.24,0.32-2.51,0.49-3.79,0.58
		c-0.78,0.06-1.56,0.04-2.35,0.06c-0.11,0-0.23,0-0.39,0c0.08,0.05,0.11,0.08,0.15,0.1c0.95,0.41,1.9,0.83,2.85,1.24
		c1.09,0.47,2.08,1.09,2.97,1.87c0.76,0.68,1.37,1.48,1.75,2.43c0.29,0.71,0.77,3.75-3.86,8.87c-6.29,6.96-10.76,3.92-11.5,3.22
		c-0.5-0.48-0.95-1-1.34-1.57c-0.49-0.72-0.95-1.46-1.26-2.28c-0.36-0.96-0.7-1.93-0.94-2.93c-0.17-0.68-0.32-1.37-0.47-2.06
		c-0.02-0.07-0.03-0.13-0.05-0.2C704.61,683.72,704.6,683.72,704.58,683.72z"/>
	<path class="st6" d="M704.04,571.61c0.24-0.49,1.25-1.27,1.7-1.27c2.22,0.03,3.83,1.79,5.18,1.37c0.11-0.03,0.2,0.19,0.04,0.35
		c-1.85,1.9-3.48,4.07-6.79,4.06c-3.31-0.01-5.18-2.16-7.03-4.06c-0.16-0.16-0.07-0.38,0.04-0.35c1.35,0.42,2.98-1.35,5.18-1.37
		C702.79,570.34,703.8,571.13,704.04,571.61z"/>
	<g>
		<g>
			<path class="st18" d="M711.94,556.2c0,0,1.97-2.85,5.44-2.85c3.47,0,5.44,2.85,5.44,2.85"/>
			<path class="st19" d="M722.93,556.6c0,0,2.15-0.75,2.33-2.74"/>
			<path class="st20" d="M721.61,555.35c0,0,1.97-0.69,2.14-2.51"/>
			<path class="st21" d="M720.02,554.39c0,0,1.75-0.62,1.91-2.23"/>
		</g>
		<g>
			<path class="st18" d="M696.14,556.2c0,0-1.97-2.85-5.44-2.85s-5.44,2.85-5.44,2.85"/>
			<path class="st19" d="M685.15,556.6c0,0-2.15-0.75-2.33-2.74"/>
			<path class="st20" d="M686.48,555.35c0,0-1.97-0.69-2.14-2.51"/>
			<path class="st21" d="M688.07,554.39c0,0-1.75-0.62-1.91-2.23"/>
		</g>
	</g>
</g>
</svg>
