<svg version="1.1" viewBox="0.0 0.0 1868.1601049868766 2159.0393700787404" fill="none" stroke="none" stroke-linecap="square" stroke-miterlimit="10" xmlns:xlink="http://www.w3.org/1999/xlink" xmlns="http://www.w3.org/2000/svg"><clipPath id="g274b1ac4b18_0_23.0"><path d="m0 0l1868.1602 0l0 2159.0393l-1868.1602 0l0 -2159.0393z" clip-rule="nonzero"/></clipPath><g clip-path="url(#g274b1ac4b18_0_23.0)"><path fill="#000000" fill-opacity="0.0" d="m0 0l1868.1602 0l0 2159.0393l-1868.1602 0z" fill-rule="evenodd"/><path fill="#000000" d="m932.0 0l931.9995 543.1137l0 1073.7727l-931.9995 543.11365l-931.9996 -543.11365l0 -1073.7727z" fill-rule="evenodd"/><path fill="#000000" d="m57.370186 1050.0l0 0c0 -111.344055 90.262215 -201.60632 201.6063 -201.60632l0 0c53.46933 0 104.74869 21.2406 142.55719 59.049133c37.808533 37.808533 59.049133 89.08789 59.049133 142.55719l0 0c0 111.34412 -90.26224 201.60632 -201.60632 201.60632l0 0c-111.34407 0 -201.6063 -90.26221 -201.6063 -201.60632z" fill-rule="evenodd"/><path stroke="#6d9eeb" stroke-width="24.0" stroke-linejoin="round" stroke-linecap="butt" d="m57.370186 1050.0l0 0c0 -111.344055 90.262215 -201.60632 201.6063 -201.60632l0 0c53.46933 0 104.74869 21.2406 142.55719 59.049133c37.808533 37.808533 59.049133 89.08789 59.049133 142.55719l0 0c0 111.34412 -90.26224 201.60632 -201.60632 201.60632l0 0c-111.34407 0 -201.6063 -90.26221 -201.6063 -201.60632z" fill-rule="evenodd"/><path fill="#000000" d="m89.5754 1050.8014l0 0c0 -92.783875 75.22321 -168.0 168.01575 -168.0l0 0c44.560547 0 87.29599 17.69989 118.80505 49.206055c31.509064 31.506104 49.210693 74.23755 49.210693 118.793945l0 0c0 92.78381 -75.223236 168.0 -168.01575 168.0l0 0c-92.79254 0 -168.01575 -75.21619 -168.01575 -168.0z" fill-rule="evenodd"/><path stroke="#a4c2f4" stroke-width="24.0" stroke-linejoin="round" stroke-linecap="butt" d="m89.5754 1050.8014l0 0c0 -92.783875 75.22321 -168.0 168.01575 -168.0l0 0c44.560547 0 87.29599 17.69989 118.80505 49.206055c31.509064 31.506104 49.210693 74.23755 49.210693 118.793945l0 0c0 92.78381 -75.223236 168.0 -168.01575 168.0l0 0c-92.79254 0 -168.01575 -75.21619 -168.01575 -168.0z" fill-rule="evenodd"/><path fill="#000000" d="m124.58481 1051.3196l0 0c0 -74.214905 60.163055 -134.37793 134.37796 -134.37793l0 0c35.63925 0 69.81879 14.157593 95.01956 39.3584c25.200745 25.200745 39.3584 59.38031 39.3584 95.01953l0 0c0 74.21484 -60.163086 134.37793 -134.37796 134.37793l0 0c-74.214905 0 -134.37796 -60.163086 -134.37796 -134.37793z" fill-rule="evenodd"/><path stroke="#c9daf8" stroke-width="24.0" stroke-linejoin="round" stroke-linecap="butt" d="m124.58481 1051.3196l0 0c0 -74.214905 60.163055 -134.37793 134.37796 -134.37793l0 0c35.63925 0 69.81879 14.157593 95.01956 39.3584c25.200745 25.200745 39.3584 59.38031 39.3584 95.01953l0 0c0 74.21484 -60.163086 134.37793 -134.37796 134.37793l0 0c-74.214905 0 -134.37796 -60.163086 -134.37796 -134.37793z" fill-rule="evenodd"/><path fill="#000000" d="m507.43317 1050.0l0 0c0 -111.344055 90.26221 -201.60632 201.60632 -201.60632l0 0c53.4693 0 104.74866 21.2406 142.55719 59.049133c37.80847 37.808533 59.049072 89.08789 59.049072 142.55719l0 0c0 111.34412 -90.26221 201.60632 -201.60626 201.60632l0 0c-111.34412 0 -201.60632 -90.26221 -201.60632 -201.60632z" fill-rule="evenodd"/><path stroke="#6d9eeb" stroke-width="24.0" stroke-linejoin="round" stroke-linecap="butt" d="m507.43317 1050.0l0 0c0 -111.344055 90.26221 -201.60632 201.60632 -201.60632l0 0c53.4693 0 104.74866 21.2406 142.55719 59.049133c37.80847 37.808533 59.049072 89.08789 59.049072 142.55719l0 0c0 111.34412 -90.26221 201.60632 -201.60626 201.60632l0 0c-111.34412 0 -201.60632 -90.26221 -201.60632 -201.60632z" fill-rule="evenodd"/><path fill="#000000" d="m539.63837 1050.8014l0 0c0 -92.783875 75.223206 -168.0 168.01575 -168.0l0 0c44.560547 0 87.29602 17.69989 118.805115 49.206055c31.509033 31.506104 49.210632 74.23755 49.210632 118.793945l0 0c0 92.78381 -75.223206 168.0 -168.01575 168.0l0 0c-92.79254 0 -168.01575 -75.21619 -168.01575 -168.0z" fill-rule="evenodd"/><path stroke="#a4c2f4" stroke-width="24.0" stroke-linejoin="round" stroke-linecap="butt" d="m539.63837 1050.8014l0 0c0 -92.783875 75.223206 -168.0 168.01575 -168.0l0 0c44.560547 0 87.29602 17.69989 118.805115 49.206055c31.509033 31.506104 49.210632 74.23755 49.210632 118.793945l0 0c0 92.78381 -75.223206 168.0 -168.01575 168.0l0 0c-92.79254 0 -168.01575 -75.21619 -168.01575 -168.0z" fill-rule="evenodd"/><path fill="#000000" d="m574.6478 1051.3196l0 0c0 -74.214905 60.163025 -134.37793 134.37793 -134.37793l0 0c35.63922 0 69.81879 14.157593 95.01953 39.3584c25.200806 25.200745 39.3584 59.38031 39.3584 95.01953l0 0c0 74.21484 -60.163025 134.37793 -134.37793 134.37793l0 0c-74.214905 0 -134.37793 -60.163086 -134.37793 -134.37793z" fill-rule="evenodd"/><path stroke="#c9daf8" stroke-width="24.0" stroke-linejoin="round" stroke-linecap="butt" d="m574.6478 1051.3196l0 0c0 -74.214905 60.163025 -134.37793 134.37793 -134.37793l0 0c35.63922 0 69.81879 14.157593 95.01953 39.3584c25.200806 25.200745 39.3584 59.38031 39.3584 95.01953l0 0c0 74.21484 -60.163025 134.37793 -134.37793 134.37793l0 0c-74.214905 0 -134.37793 -60.163086 -134.37793 -134.37793z" fill-rule="evenodd"/><path fill="#000000" d="m957.49615 1050.0l0 0c0 -111.344055 90.26227 -201.60632 201.60626 -201.60632l0 0c53.46936 0 104.74866 21.2406 142.55725 59.049133c37.80847 37.808533 59.049072 89.08789 59.049072 142.55719l0 0c0 111.34412 -90.26221 201.60632 -201.60632 201.60632l0 0c-111.343994 0 -201.60626 -90.26221 -201.60626 -201.60632z" fill-rule="evenodd"/><path stroke="#6d9eeb" stroke-width="24.0" stroke-linejoin="round" stroke-linecap="butt" d="m957.49615 1050.0l0 0c0 -111.344055 90.26227 -201.60632 201.60626 -201.60632l0 0c53.46936 0 104.74866 21.2406 142.55725 59.049133c37.80847 37.808533 59.049072 89.08789 59.049072 142.55719l0 0c0 111.34412 -90.26221 201.60632 -201.60632 201.60632l0 0c-111.343994 0 -201.60626 -90.26221 -201.60626 -201.60632z" fill-rule="evenodd"/><path fill="#000000" d="m989.70135 1050.8014l0 0c0 -92.783875 75.223206 -168.0 168.01581 -168.0l0 0c44.560547 0 87.29602 17.69989 118.80505 49.206055c31.509033 31.506104 49.210693 74.23755 49.210693 118.793945l0 0c0 92.78381 -75.22327 168.0 -168.01575 168.0l0 0c-92.7926 0 -168.01581 -75.21619 -168.01581 -168.0z" fill-rule="evenodd"/><path stroke="#a4c2f4" stroke-width="24.0" stroke-linejoin="round" stroke-linecap="butt" d="m989.70135 1050.8014l0 0c0 -92.783875 75.223206 -168.0 168.01581 -168.0l0 0c44.560547 0 87.29602 17.69989 118.80505 49.206055c31.509033 31.506104 49.210693 74.23755 49.210693 118.793945l0 0c0 92.78381 -75.22327 168.0 -168.01575 168.0l0 0c-92.7926 0 -168.01581 -75.21619 -168.01581 -168.0z" fill-rule="evenodd"/><path fill="#000000" d="m1024.7108 1051.3196l0 0c0 -74.214905 60.163086 -134.37793 134.37793 -134.37793l0 0c35.639282 0 69.81885 14.157593 95.01953 39.3584c25.200806 25.200745 39.3584 59.38031 39.3584 95.01953l0 0c0 74.21484 -60.163086 134.37793 -134.37793 134.37793l0 0c-74.21484 0 -134.37793 -60.163086 -134.37793 -134.37793z" fill-rule="evenodd"/><path stroke="#c9daf8" stroke-width="24.0" stroke-linejoin="round" stroke-linecap="butt" d="m1024.7108 1051.3196l0 0c0 -74.214905 60.163086 -134.37793 134.37793 -134.37793l0 0c35.639282 0 69.81885 14.157593 95.01953 39.3584c25.200806 25.200745 39.3584 59.38031 39.3584 95.01953l0 0c0 74.21484 -60.163086 134.37793 -134.37793 134.37793l0 0c-74.21484 0 -134.37793 -60.163086 -134.37793 -134.37793z" fill-rule="evenodd"/><path fill="#000000" d="m1407.5592 1050.0l0 0c0 -111.344055 90.26221 -201.60632 201.6062 -201.60632l0 0c53.46936 0 104.74878 21.2406 142.55725 59.049133c37.80847 37.808533 59.049072 89.08789 59.049072 142.55719l0 0c0 111.34412 -90.26221 201.60632 -201.60632 201.60632l0 0c-111.343994 0 -201.6062 -90.26221 -201.6062 -201.60632z" fill-rule="evenodd"/><path stroke="#6d9eeb" stroke-width="24.0" stroke-linejoin="round" stroke-linecap="butt" d="m1407.5592 1050.0l0 0c0 -111.344055 90.26221 -201.60632 201.6062 -201.60632l0 0c53.46936 0 104.74878 21.2406 142.55725 59.049133c37.80847 37.808533 59.049072 89.08789 59.049072 142.55719l0 0c0 111.34412 -90.26221 201.60632 -201.60632 201.60632l0 0c-111.343994 0 -201.6062 -90.26221 -201.6062 -201.60632z" fill-rule="evenodd"/><path fill="#000000" d="m1439.7644 1050.8014l0 0c0 -92.783875 75.223145 -168.0 168.01575 -168.0l0 0c44.560547 0 87.29602 17.69989 118.80505 49.206055c31.509033 31.506104 49.210693 74.23755 49.210693 118.793945l0 0c0 92.78381 -75.22327 168.0 -168.01575 168.0l0 0c-92.7926 0 -168.01575 -75.21619 -168.01575 -168.0z" fill-rule="evenodd"/><path stroke="#a4c2f4" stroke-width="24.0" stroke-linejoin="round" stroke-linecap="butt" d="m1439.7644 1050.8014l0 0c0 -92.783875 75.223145 -168.0 168.01575 -168.0l0 0c44.560547 0 87.29602 17.69989 118.80505 49.206055c31.509033 31.506104 49.210693 74.23755 49.210693 118.793945l0 0c0 92.78381 -75.22327 168.0 -168.01575 168.0l0 0c-92.7926 0 -168.01575 -75.21619 -168.01575 -168.0z" fill-rule="evenodd"/><path fill="#000000" d="m1474.7738 1051.3196l0 0c0 -74.214905 60.163086 -134.37793 134.37793 -134.37793l0 0c35.639282 0 69.81885 14.157593 95.01953 39.3584c25.200806 25.200745 39.3584 59.38031 39.3584 95.01953l0 0c0 74.21484 -60.163086 134.37793 -134.37793 134.37793l0 0c-74.21484 0 -134.37793 -60.163086 -134.37793 -134.37793z" fill-rule="evenodd"/><path stroke="#c9daf8" stroke-width="24.0" stroke-linejoin="round" stroke-linecap="butt" d="m1474.7738 1051.3196l0 0c0 -74.214905 60.163086 -134.37793 134.37793 -134.37793l0 0c35.639282 0 69.81885 14.157593 95.01953 39.3584c25.200806 25.200745 39.3584 59.38031 39.3584 95.01953l0 0c0 74.21484 -60.163086 134.37793 -134.37793 134.37793l0 0c-74.21484 0 -134.37793 -60.163086 -134.37793 -134.37793z" fill-rule="evenodd"/><path fill="#000000" fill-opacity="0.0" d="m1025.1661 625.81213l0 419.9685" fill-rule="evenodd"/><path stroke="#c9daf8" stroke-width="24.0" stroke-linejoin="round" stroke-linecap="butt" d="m1025.1661 625.81213l0 419.9685" fill-rule="evenodd"/><path fill="#000000" fill-opacity="0.0" d="m990.27875 613.56726l0 419.9685" fill-rule="evenodd"/><path stroke="#a4c2f4" stroke-width="24.0" stroke-linejoin="round" stroke-linecap="butt" d="m990.27875 613.56726l0 419.9685" fill-rule="evenodd"/><path fill="#000000" fill-opacity="0.0" d="m960.0583 600.9006l0 419.9685" fill-rule="evenodd"/><path stroke="#6d9eeb" stroke-width="24.0" stroke-linejoin="round" stroke-linecap="butt" d="m960.0583 600.9006l0 419.9685" fill-rule="evenodd"/><path fill="#000000" d="m1657.3307 1003.4173l171.93701 0l0 87.370056l-171.93701 0z" fill-rule="evenodd"/><path fill="#000000" fill-opacity="0.0" d="m842.2851 622.23334l0 419.96857" fill-rule="evenodd"/><path stroke="#c9daf8" stroke-width="24.0" stroke-linejoin="round" stroke-linecap="butt" d="m842.2851 622.23334l0 419.96857" fill-rule="evenodd"/><path fill="#000000" fill-opacity="0.0" d="m874.2499 612.8452l0 419.9685" fill-rule="evenodd"/><path stroke="#a4c2f4" stroke-width="24.0" stroke-linejoin="round" stroke-linecap="butt" d="m874.2499 612.8452l0 419.9685" fill-rule="evenodd"/><path fill="#000000" fill-opacity="0.0" d="m908.1627 600.4452l0 419.9685" fill-rule="evenodd"/><path stroke="#6d9eeb" stroke-width="24.0" stroke-linejoin="round" stroke-linecap="butt" d="m908.1627 600.4452l0 419.9685" fill-rule="evenodd"/></g></svg>