<?xml version="1.0" encoding="utf-8"?>
<!-- Generator: Adobe Illustrator 26.5.0, SVG Export Plug-In . SVG Version: 6.00 Build 0)  -->
<svg version="1.1" id="Layer_1" xmlns="http://www.w3.org/2000/svg" xmlns:xlink="http://www.w3.org/1999/xlink" x="0px" y="0px"
	 viewBox="0 0 2521 2911" style="enable-background:new 0 0 2521 2911;" xml:space="preserve">
<style type="text/css">
	.st0{fill:#000007;}
	.st1{fill:url(#SVGID_1_);}
	.st2{fill:#FFFFFF;}
	.st3{fill:#A51D21;}
	.st4{fill:none;stroke:#000066;stroke-width:13.7241;stroke-miterlimit:10;}
	.st5{font-family:'Baskerville';}
	.st6{font-size:297.6536px;}
</style>
<g>
	<polygon class="st0" points="2447,766.7 1254.4,78.1 1254.4,78.1 61.5,766.7 61.5,2144.3 1254.4,2832.9 2447,2144.3 	"/>
	
		<radialGradient id="SVGID_1_" cx="1256.2457" cy="-605.7505" r="1288.3405" fx="1256.2457" fy="-980.6" gradientTransform="matrix(1 0 0 -1.0001 0 850.0742)" gradientUnits="userSpaceOnUse">
		<stop  offset="2.000000e-02" style="stop-color:#FFFFFF"/>
		<stop  offset="0.17" style="stop-color:#C0C0C0"/>
		<stop  offset="0.34" style="stop-color:#878787"/>
		<stop  offset="0.5" style="stop-color:#565656"/>
		<stop  offset="0.65" style="stop-color:#313131"/>
		<stop  offset="0.78" style="stop-color:#161616"/>
		<stop  offset="0.91" style="stop-color:#060606"/>
		<stop  offset="1" style="stop-color:#000000"/>
	</radialGradient>
	<polygon class="st1" points="2449,767.1 1256.4,78.4 1256.4,78.4 63.5,767.1 63.5,2144.7 1256.4,2833.3 2449,2144.7 	"/>
	<rect x="910.7" y="962.2" class="st2" width="702.2" height="577.1"/>
	<path class="st3" d="M616.1,1257.7h1291.3c22.7,0,41.2,18.4,41.2,41.2V1922c0,22.7-18.4,41.2-41.2,41.2H616.1
		c-22.7,0-41.2-18.4-41.2-41.2v-623.1C574.9,1276.1,593.3,1257.7,616.1,1257.7z"/>
	<path class="st2" d="M1639.3,2253.6H893.7c6.6-192.4,13.2-384.7,19.8-577.1h707.9C1627.4,1868.8,1633.4,2061.2,1639.3,2253.6z"/>
	<line class="st4" x1="967.8" y1="1723.4" x2="1555.7" y2="1723.4"/>
	<line class="st4" x1="967.8" y1="1810.9" x2="1555.7" y2="1810.9"/>
	<line class="st4" x1="968.7" y1="1907.5" x2="1556.7" y2="1907.5"/>
	<line class="st4" x1="968.7" y1="1995" x2="1556.7" y2="1995"/>
	<line class="st4" x1="967.8" y1="2082.4" x2="1555.7" y2="2082.4"/>
	<line class="st4" x1="967.8" y1="2169.9" x2="1555.7" y2="2169.9"/>
	<path class="st2" d="M1538.4,378.2c-36.9,4.5-72.4,17.3-103.8,37.3c-40.3,25.7-75.2,59.1-102.6,98.3c-26.3,36.8-47,76.5-58.3,120.6
		c-1.8,7-3,14.2-4.6,21.4l1.2,0.3c1-1.4,2.2-2.7,3.3-4.3c32-44.3,67.5-86.1,106-124.9c34.9-35,72.4-67.2,114.4-93.6
		c0.9-0.6,1.9-1.1,3-1.5c-0.6,1.1-1.4,2-2.4,2.7c-30.7,22.9-59.8,47.9-87,74.9c-58.1,56.7-109.2,120.1-152.2,189
		c-1.1,1.8-3.2,2.8-5.4,2.5l-64.2-0.4c-5.8,0-8.4,2.2-8.6,7.1c-0.2,6-0.2,12,0,18c-0.2,3.8,2.7,7,6.5,7.2c0.3,0,0.6,0,0.9,0
		c2.6,0.2,5.1,0,7.9,0v26.3l-32.5-0.2c-15.5,0-22.9,6.9-24.5,22.3c-2.3,20.1-4.8,40.2-7.6,60.3c-2,14.1,4,21.3,18.1,21.4l203.8,1.2
		h3.8c8.5-0.1,15.4-7.2,15.2-15.7c0-0.1,0-0.1,0-0.2c0-0.7,0-1.4,0-2.1c-2.6-22.2-5.2-44.6-7.7-66.7c-0.7-11.3-10.3-19.9-21.5-19.4
		c-9.9-0.2-19.9,0-30.1-0.2h-4.6v-26.3h6.2c6.3,0,9-2.4,9-8.7v-14.9c0-6.3-2.4-8.8-8.7-8.8l-34.3-0.2h-6.7
		c3.8-6.3,7.3-11.7,10.3-17.2c1.3-2.7,4.1-4.3,7.1-4.1c42.9,0,84.7-6.9,123.5-25.9c8.8-4.2,17.2-9.3,26.9-14.6
		c-29.1-14.3-59.6-25.4-91-33.2c0.8-0.1,1.6-0.2,2.4-0.3c35.4,0.5,70.2,4.9,103.8,16.8c3.1,1.3,6.7,0.6,9.1-1.9
		c15.1-13.2,28.7-28,40.6-44.1c23.1-30.9,39.9-65.2,53.9-100.8c3.1-7.9,5.9-15.9,9.3-24.8l-54.4-6c0.5-0.2,1.1-0.4,1.7-0.5
		c17.5-2,35.1-4,52.8-5.8c3.3-0.3,4.6-1.2,5.5-4.3c2.1-7.9,4.7-15.4,6.9-23.3c3.2-10.6,6.1-21.3,9.3-31.9
		C1576.7,376.7,1551.4,376.7,1538.4,378.2z M1284.1,705.5h9.6v23.2h-9.6V705.5z M1273.6,768.1c0.7,2.5,0.8,5,0.5,7.6
		c-0.3,4.1-1.8,8.1-4.2,11.5c-2,2.7-4.5,5.1-7.4,6.9c-6.2,4.3-13.2,7.1-20.6,8.5c-2.7,0.5-5.7,0.8-8.4,1.1l0,0
		c4.5,5,9.7,9.2,15.6,12.5c3.9,2.1,8.1,3.6,12.5,4.4c4.8,0.9,9.7,0.7,14.4-0.4h0.5l0.2,0.2c-0.5,0.7-1.1,1.5-1.6,2.2
		c-1.7,2-4,3.5-6.6,4.3c-3.2,1.2-6.6,1.5-9.9,1c-5.3-0.7-10.3-2.8-14.6-6.1c-6.4-4.7-11.5-10.8-15-17.9c0,0,0-0.5-0.3-0.7s0,0,0-0.2
		l2.7-0.5c8.8-1.3,17.2-4.9,24.3-10.3c4.3-3.2,7.6-7.6,9.5-12.7c1-2.6,1.1-5.5,0.4-8.2c-1-3.1-3.7-5.3-6.9-5.9
		c-2.3-0.2-4.6-0.1-6.9,0.4c-3.8,0.7-7.5,2-10.8,4.1c-0.5,0.4-1,0.8-1.4,1.3c-5.2,9.2-9.5,19-12.7,29.1c-1.9,6-3.4,12.1-4.4,18.4
		c-0.5,3.4-0.9,6.9-1.3,10.3v0.3c-0.9-0.3-1.7-0.7-2.4-1.4c-1.4-1.4-2.4-3.2-2.7-5.2c-0.3-2-0.5-4-0.5-6c0.2-5.5,1.1-10.9,2.7-16.1
		c1.8-5.7,4.5-11.1,8-15.9c2.6-3.8,5.2-7.4,8-10.9c3-3.9,6.6-7.3,10.7-10.1c3.7-2.7,8.1-4.4,12.7-4.9c3.5-0.6,7.2,0.2,10.1,2.3
		c2.8,1.6,4.8,4.3,5.6,7.4L1273.6,768.1z"/>
	<path class="st3" d="M2521,2183.6V727.8l-100.5-58l-953.1-550.4L1260.5,0l-206.9,119.4L100.5,669.8L0,727.8v1455.5l100.5,58
		l965.1,557.2l195.2,112.5l195.2-112.5l965.1-557.2L2521,2183.6z M100.5,2129V789.2l172.2-99.5l987.7-570.3l0,0L2250.6,691
		l169.8,98.1V2129l-1160,669.8L100.5,2129z"/>
	<text transform="matrix(0.9999 0 0 1 694.8193 1558.5732)" class="st2 st5 st6">pagedown</text>
</g>
</svg>
