<?xml version="1.0" encoding="utf-8"?>
<!-- Generator: Adobe Illustrator 26.5.0, SVG Export Plug-In . SVG Version: 6.00 Build 0)  -->
<svg version="1.1" id="Layer_1" xmlns="http://www.w3.org/2000/svg" xmlns:xlink="http://www.w3.org/1999/xlink" x="0px" y="0px"
	 viewBox="0 0 2521 2911" style="enable-background:new 0 0 2521 2911;" xml:space="preserve">
<style type="text/css">
	.st0{fill:#003C2C;}
	.st1{fill:#BF9F60;}
	.st2{enable-background:new    ;}
	.st3{fill:url(#SVGID_1_);}
	.st4{fill:url(#SVGID_00000161622709168170163710000003057206146716446106_);}
	.st5{fill:url(#SVGID_00000045590854744982526610000005866883916034986682_);}
	.st6{fill:url(#SVGID_00000089535312640354320610000003974074327429256335_);}
	.st7{fill:#006838;}
	.st8{fill:#F9F5BB;}
	.st9{fill:#EADFA4;}
	.st10{fill:none;}
</style>
<g>
	<path class="st0" d="M1260.5,0L0,727.7V2183l1260.5,728L2521,2183.3V727.7L1260.5,0z M2420.5,2125.4l-1160,669.7L100.2,2125.4
		V785.6L1260.5,116l1160,669.7V2125.4z"/>
	<polygon class="st1" points="100.2,785.6 100.2,2125.4 1260.5,2795 2420.5,2125.4 2420.5,785.6 1260.5,116 	"/>
	<g id="Title">
		<g class="st2">
			<path class="st0" d="M674.5,1960c0-27.1-0.7-48.7-1.7-68.6h32.6l1.7,36h0.7c14.8-25.7,38.1-40.8,70.7-40.8
				c48,0,84.1,43.2,84.1,107c0,75.8-43.6,113.2-90.2,113.2c-26.4,0-49.4-12.4-61.1-32.9h-0.7v114.6h-35.7V1960H674.5z M710.5,2016.3
				c0,5.5,0.7,11,1.7,15.8c6.5,26.4,28.5,44.9,54.2,44.9c38.1,0,60.4-32.9,60.4-81.3c0-42.2-20.9-78.2-59-78.2
				c-24.7,0-47.7,18.9-54.6,47.3c-1.4,4.8-2.4,10.3-2.4,15.8L710.5,2016.3L710.5,2016.3z"/>
			<path class="st0" d="M1011.8,2101.7l-2.7-26.4h-1.4c-11,16.5-32.6,31.2-60.7,31.2c-40.1,0-60.7-30.2-60.7-60.4
				c0-50.8,42.9-78.9,119.4-78.2v-4.5c0-17.5-4.5-48.7-45.3-48.7c-18.5,0-37.7,6.2-51.8,15.8l-8.2-25.4
				c16.5-11.3,40.1-18.9,65.2-18.9c60.7,0,75.5,43.9,75.5,86.1v78.9c0,18.2,0.7,36,3.4,50.4L1011.8,2101.7L1011.8,2101.7z
				 M1006.6,1994.3c-39.5-1-84.1,6.5-84.1,47.3c0,24.7,15.4,36.7,34,36.7c25.7,0,42.2-17.5,48-35.3c1.4-3.8,2.1-8.2,2.1-12.4V1994.3
				z"/>
			<path class="st0" d="M1093.1,1956.9c0-24.7-0.3-46-1.7-65.9h31.6l1.4,41.5h1.7c8.9-28.1,30.9-46,54.9-46c4.1,0,6.9,0.3,10.3,1.4
				v36c-3.8-1-7.5-1.4-12.4-1.4c-25.4,0-43.6,20.6-48.4,49.1c-0.7,5.1-1.7,11.3-1.7,17.8v112.2h-35.7V1956.9L1093.1,1956.9z"/>
			<path class="st0" d="M1215.9,2062.6c10.6,7.5,29.5,15.1,47.7,15.1c26.4,0,38.8-14.1,38.8-31.2c0-18.2-10.3-28.1-37.1-38.8
				c-35.7-13.4-52.5-34.3-52.5-59.7c0-34,25.7-61.8,68.6-61.8c20.2,0,37.7,6.2,48.7,13l-8.9,27.8c-7.9-5.1-22.3-12.4-40.8-12.4
				c-21.3,0-33.3,13-33.3,28.8c0,17.5,12,25.4,37.7,35.7c34.7,14.1,52.1,32.2,52.1,63.5c0,37.1-27.1,63.1-74.4,63.1
				c-21.6,0-41.9-5.5-55.9-14.4L1215.9,2062.6z"/>
			<path class="st0" d="M1376.8,1948.3c0-21.6-0.3-39.5-1.7-57h31.9l2.1,35h0.7c9.9-19.9,32.9-39.5,65.9-39.5
				c27.4,0,70.3,17.5,70.3,89.5v125.9h-36v-121.4c0-34-12-62.1-46-62.1c-23.7,0-42.2,17.8-48.4,39.1c-1.7,4.8-2.4,11.3-2.4,17.8
				v126.6h-36L1376.8,1948.3L1376.8,1948.3z"/>
			<path class="st0" d="M1638.6,1832c0.3,13-8.6,23.7-23,23.7c-12.7,0-21.6-10.3-21.6-23.7c0-13.4,9.6-24,22.6-24
				C1630,1808,1638.6,1818.6,1638.6,1832z M1598.1,2101.7V1891h36.4v210.6H1598.1z"/>
			<path class="st0" d="M1687.6,1960c0-27.1-0.7-48.7-1.7-68.6h32.6l1.7,36h0.7c14.8-25.7,38.1-40.8,70.7-40.8
				c48,0,84.1,43.2,84.1,107c0,75.8-43.6,113.2-90.2,113.2c-26.4,0-49.4-12.4-61.1-32.9h-0.7v114.6H1688L1687.6,1960L1687.6,1960z
				 M1723.7,2016.3c0,5.5,0.7,11,1.7,15.8c6.5,26.4,28.5,44.9,54.2,44.9c38.1,0,60.4-32.9,60.4-81.3c0-42.2-20.9-78.2-59-78.2
				c-24.7,0-47.7,18.9-54.6,47.3c-1.4,4.8-2.4,10.3-2.4,15.8v35.7H1723.7z"/>
		</g>
	</g>
	<g>
		<g>
			<g>
				
					<linearGradient id="SVGID_1_" gradientUnits="userSpaceOnUse" x1="-1.9704" y1="3119.3271" x2="338.7347" y2="2529.2075" gradientTransform="matrix(0.5 -0.866 0.866 0.5 -1317.4489 -155.0602)">
					<stop  offset="0" style="stop-color:#009444"/>
					<stop  offset="1" style="stop-color:#007E3E"/>
				</linearGradient>
				<path class="st3" d="M1474.2,1352.1c-2.7,4.8-8.9,6.2-13.4,3.8l0,0C1084.8,1139,996.3,995.9,988.1,914
					c-5.5-52.5,22.6-77.9,23.7-78.9c12.4-11.3,10.3-3.1,14.1,0.7c3.8,4.1,3.1,10.3-0.7,14.1c-0.7,0.7-21.6,20.6-17.2,63.1
					c5.1,45.6,36.4,98.8,93.7,158.2c78.2,81,202.4,171.2,369.5,267.6C1475.3,1341.4,1477,1347.3,1474.2,1352.1L1474.2,1352.1z"/>
				
					<linearGradient id="SVGID_00000125587939686786905100000003169451756925865111_" gradientUnits="userSpaceOnUse" x1="-157.9059" y1="3056.8003" x2="172.7799" y2="2484.0354" gradientTransform="matrix(0.5 -0.866 0.866 0.5 -1317.4489 -155.0602)">
					<stop  offset="0" style="stop-color:#009444"/>
					<stop  offset="1" style="stop-color:#007E3E"/>
				</linearGradient>
				<path style="fill:url(#SVGID_00000125587939686786905100000003169451756925865111_);" d="M1450.6,1393.2
					c-2.7,4.8-8.9,6.2-13.4,3.8l0,0c-229.2-132.4-424.7-211.3-581.5-274.8c-46.7-18.9-90.9-36.7-130.7-53.9c-5.1-2.1-7.2-7.9-5.1-13
					s7.9-7.2,13-5.1c39.5,17.2,83.7,35,130.4,53.9c157.5,63.5,353.7,142.7,584.3,275.8C1451.6,1382.3,1453.3,1388.4,1450.6,1393.2
					L1450.6,1393.2z"/>
				
					<linearGradient id="SVGID_00000168103159730656525980000013689759798346730942_" gradientUnits="userSpaceOnUse" x1="-134.0358" y1="3084.2341" x2="27.8291" y2="2803.876" gradientTransform="matrix(0.5 -0.866 0.866 0.5 -1317.4489 -155.0602)">
					<stop  offset="0" style="stop-color:#009444"/>
					<stop  offset="1" style="stop-color:#007E3E"/>
				</linearGradient>
				<path style="fill:url(#SVGID_00000168103159730656525980000013689759798346730942_);" d="M1438.6,1413.8
					c-2.7,4.8-8.9,6.2-13.4,3.8l0,0c-353.7-204.1-426.5-94.7-427.1-93.7c-2.7,4.5-8.9,6.2-13.4,3.4c-4.8-2.7-16.5,8.9-3.4-13.4
					c3.1-5.5,80.3-129.3,454.2,86.5C1439.9,1402.8,1441.3,1409,1438.6,1413.8L1438.6,1413.8z"/>
				
					<linearGradient id="SVGID_00000160907433871148563270000013761158430748764846_" gradientUnits="userSpaceOnUse" x1="-57.3954" y1="-384.6058" x2="411.8679" y2="428.1827" gradientTransform="matrix(0.5 -0.866 -0.866 -0.5 971.9298 1239.4994)">
					<stop  offset="0" style="stop-color:#009444"/>
					<stop  offset="1" style="stop-color:#007E3E"/>
				</linearGradient>
				<path style="fill:url(#SVGID_00000160907433871148563270000013761158430748764846_);" d="M1462.2,1372.6
					c-2.7,4.8-8.9,6.2-13.4,3.8l0,0c-353-204.1-606.2-369.1-732.1-477.9C627.8,822,618.6,785,624.4,774.7c2.7-4.8,14.8,1.7,19.6,4.5
					c4.1,2.4,5.8,7.2,4.5,11.7c0.3,7.5,18.9,111.2,810.4,568.5C1463.6,1361.7,1465,1367.8,1462.2,1372.6L1462.2,1372.6z"/>
			</g>
			<g>
				<path class="st7" d="M638.8,787.7c-4.8-2.7-9.6-5.8-14.1-8.9c-4.5-3.1-8.6-6.5-12.7-9.9c-3.8-3.4-7.5-7.2-11.3-11.3
					c-3.4-3.8-6.5-7.9-9.6-12.4c-2.7-4.1-5.5-8.9-7.5-13.4c-2.1-4.8-4.1-9.6-5.5-14.4c-3.1-10.3-4.1-21.3-3.1-31.9
					c0.3-5.8,1.4-11.7,2.7-17.2c1.7-6.2,3.8-12,6.2-17.8c2.7-6.5,6.2-12.7,9.9-18.5c4.5-6.5,9.3-13,14.4-18.9
					c5.8-6.9,12-13.4,18.9-19.2c7.2-6.5,15.1-13,23.7-19.6c5.8-4.5,12-8.9,18.5-13.4c6.5-4.5,13.4-8.6,20.2-12.7
					c6.9-4.1,14.1-8.2,21.6-12.4c7.5-4.1,15.1-7.9,23-12c7.9-3.8,15.8-7.5,24-11.3s16.1-7.5,24.7-11c8.2-3.8,16.8-7.2,25-10.6
					c8.6-3.4,16.8-6.9,25.4-10.3c8.6-3.4,16.8-6.9,25.4-10.3s16.8-6.5,25-9.9s16.5-6.5,24.7-9.6c8.2-3.1,16.1-6.5,24.4-9.6
					c7.9-3.1,15.8-6.2,23.3-9.3c7.5-3.1,15.1-6.2,22.3-9.3c7.2-3.1,14.4-6.2,21.3-8.9c6.9-3.1,13.7-5.8,20.2-8.6s12.7-5.8,18.9-8.6
					c6.2-2.7,11.7-5.5,17.5-8.2c5.5-2.7,11-5.1,15.8-7.9c5.1-2.4,9.9-4.8,14.4-7.2c4.5-2.4,8.9-4.5,12.7-6.9
					c4.1-2.1,7.5-4.1,11.3-6.2c3.4-2.1,6.5-3.8,9.6-5.5c2.7-1.7,5.5-3.1,7.9-4.5s4.5-2.7,6.2-3.8c1.7-1,3.4-2.1,4.5-2.7
					c1-0.7,2.1-1.4,2.7-1.7c0.7-0.3,1-0.7,1-0.7s0,0.7,0,1.7s0,2.7,0,4.8c0,2.1-0.3,4.5-0.3,7.5c0,3.1-0.3,6.2-0.7,9.9
					c-0.3,3.8-0.7,7.9-1.4,12.4c-0.7,4.5-1.4,9.3-2.4,14.4c-1,5.1-2.1,10.3-3.4,16.1c-1.4,5.5-2.7,11.3-4.5,17.5
					c-1.7,5.8-3.8,12-5.8,18.5c-2.1,6.5-4.8,12.7-7.5,19.2c-2.7,6.5-5.8,13-8.9,19.9c-3.4,6.9-6.9,13.4-10.6,20.2
					c-3.8,6.9-7.9,13.7-12.4,20.6c-4.5,6.9-8.9,13.7-13.7,20.6c-4.8,6.9-9.9,13.7-15.4,20.6s-11,13.7-16.8,20.2
					s-11.7,13.4-17.8,20.2c-6.2,6.5-12.4,13.4-18.9,19.9c-6.5,6.5-13,13-19.9,19.2c-6.9,6.2-13.7,12.7-20.6,18.9
					c-6.9,6.2-14.1,12.4-20.9,18.2c-6.9,5.8-14.1,12-21.3,17.5c-7.2,5.5-14.4,11.3-21.6,16.8c-8.2,6.2-16.1,12-23.7,17.5
					c-7.5,5.5-15.1,10.6-22.3,15.8c-7.2,4.8-14.1,9.6-20.9,13.7c-6.9,4.5-13.4,8.2-19.6,12c-6.5,3.8-12.7,7.2-18.5,9.9
					c-6.2,3.1-12,5.8-17.8,8.2c-5.8,2.4-11.3,4.5-16.8,6.5c-5.5,1.7-11,3.4-16.1,4.5s-10.3,2.1-15.8,2.7c-5.1,0.7-10.3,1-15.4,1
					s-9.9-0.3-15.1-0.7c-4.8-0.7-9.9-1.4-14.8-2.4s-9.6-2.4-14.4-4.1c-4.8-1.7-9.3-3.4-14.1-5.8
					C648.1,792.8,643.6,790.4,638.8,787.7z"/>
				<path class="st7" d="M989.5,1318.4c5.8,0,11.7,0.7,17.5,1.4c5.5,0.7,11,2.1,16.5,3.8c5.1,1.7,10.3,3.8,14.8,6.2
					c9.6,5.1,17.8,12,24.4,20.6c3.4,4.8,6.5,9.6,9.3,14.8c2.7,5.8,5.1,12,6.9,18.2c2.1,7.2,3.4,14.4,4.5,21.6
					c1,7.9,1.7,15.8,1.4,23.7c0,8.2-0.7,16.5-1.7,24.7c-1,8.2-2.4,16.5-4.1,24.7c-1.7,8.2-4.1,16.1-6.5,24c-2.4,7.9-5.1,15.4-8.2,23
					c-3.1,7.5-6.2,14.4-9.6,21.3c-3.4,6.9-6.5,13-9.9,18.5c-3.4,5.5-6.5,11-9.6,15.8s-5.8,8.6-8.2,12c-2.4,3.4-4.1,5.8-5.5,7.5
					c-1.4,1.7-2.1,2.7-2.1,2.7s-0.7-0.7-1.7-2.4c-1-1.7-2.7-3.8-4.8-6.5c-2.1-2.7-4.5-6.5-7.5-10.3c-2.7-4.1-6.2-8.6-9.6-13.7
					c-3.4-5.1-7.5-10.6-11.3-16.5c-3.8-5.8-8.2-12.4-12.7-18.9c-4.5-6.5-8.9-13.4-13.4-20.6c-4.5-7.2-8.9-14.4-13.4-22
					s-8.6-15.1-12.7-22.6c-4.1-7.5-7.5-15.1-11-23c-3.1-7.2-6.2-15.1-8.2-22.6c-2.1-7.2-3.8-14.4-4.8-22c-1-8.2-1.4-16.5-0.7-24.4
					c0.7-6.9,2.1-13.4,4.8-19.9c2.4-5.5,5.5-10.6,9.6-15.4c3.8-4.5,8.2-8.2,13.4-11.3s10.6-5.8,16.1-7.5c6.2-2.1,12.4-3.4,18.5-4.1
					C976.1,1318.8,982.6,1318.4,989.5,1318.4z"/>
				<path class="st7" d="M483.1,930.1c7.2-2.1,14.4-3.8,21.6-5.5c7.2-1.7,14.4-3.1,21.3-4.5c7.2-1.4,14.1-2.4,20.9-3.4
					s13.7-1.7,20.6-2.7c6.9-0.7,13.7-1.4,20.2-1.7c6.5-0.3,13.4-0.3,19.9-0.3c6.5,0,13,0.3,19.2,0.7c6.2,0.3,12.7,1,18.9,1.7
					c6.2,0.7,12,1.7,18.2,3.1c5.8,1,11.7,2.7,17.5,4.1c5.8,1.7,11.3,3.4,16.8,5.5c5.5,2.1,10.6,4.5,15.8,6.9
					c5.1,2.4,10.3,5.1,15.1,8.2c4.8,3.1,9.6,6.2,14.1,9.6c4.5,3.4,8.9,7.2,13.4,11c4.5,4.1,8.2,8.2,12.4,12.7
					c4.1,4.5,7.5,9.3,11.3,14.1c3.4,5.1,6.9,10.3,9.9,15.8c3.1,5.5,6.2,11.3,8.9,17.5c2.7,6.2,5.5,12.4,7.9,19.2
					c2.4,6.5,4.5,13.7,6.5,20.9c1.7,6.9,3.4,13.7,4.8,20.9c1.4,7.2,2.4,14.4,3.1,22c0.7,7.5,1.4,15.1,1.7,22.6
					c0.3,7.5,0.3,15.4,0,23.3c0,7.9-0.7,15.8-1,23.7c-0.7,7.9-1.4,16.1-2.4,24c-1,8.2-2.1,16.1-3.4,24.4c-1.4,8.2-2.7,16.5-4.5,24.7
					c-1.7,8.2-3.4,16.5-5.5,24.7s-4.1,16.5-6.2,24.7c-2.1,8.2-4.5,16.5-6.9,24.7c-2.4,8.2-4.8,16.1-7.5,24.4
					c-2.4,7.9-5.1,16.1-7.9,24c-2.7,7.9-5.5,15.8-8.2,23.3c-2.7,7.9-5.8,15.4-8.6,23s-5.8,15.1-8.9,22.3c-3.1,7.2-5.8,14.4-8.9,21.3
					c-3.1,6.9-5.8,13.7-8.9,20.6c-3.1,6.5-5.8,13-8.6,19.6c-2.7,6.2-5.8,12.4-8.6,18.5c-2.7,5.8-5.5,11.7-8.2,17.2
					c-2.7,5.5-5.1,10.6-7.9,15.8c-2.4,5.1-4.8,9.9-7.2,14.4c-2.4,4.5-4.5,8.9-6.5,12.7c-2.1,4.1-4.1,7.5-5.8,11
					c-1.7,3.4-3.4,6.5-5.1,9.3c-1.4,2.7-2.7,5.1-4.1,7.5c-1,2.1-2.1,4.1-3.1,5.5c-0.7,1.4-1.4,2.7-2.1,3.4c-0.3,0.7-0.7,1-0.7,1
					s-0.3-0.3-1-0.7c-0.7-0.3-1.7-1-3.4-2.1c-1.7-1-3.1-2.1-5.5-3.1c-2.1-1.4-4.5-2.7-7.2-4.5c-2.7-1.7-5.8-3.4-8.9-5.5
					c-3.4-2.1-6.9-4.5-10.6-6.9c-3.8-2.4-7.9-5.1-12-7.9c-4.1-2.7-8.6-5.8-13.4-8.9c-4.8-3.1-9.6-6.5-14.8-9.9s-10.3-6.9-15.8-10.6
					c-5.5-3.8-11-7.5-16.5-11.7c-5.5-4.1-11.3-8.2-17.2-12.7c-5.8-4.5-12-8.9-17.8-13.4c-6.2-4.5-12-9.3-18.5-14.1
					c-6.5-4.8-12.4-9.9-18.5-14.8c-6.2-4.8-12.7-10.3-18.9-15.4c-6.2-5.1-12.7-10.6-18.9-16.1s-12.7-11-18.9-16.8
					s-12.4-11.3-18.5-17.5s-12.4-11.7-18.2-17.8c-5.8-6.2-12-12-17.5-18.2c-5.5-6.2-11.3-12.4-16.8-18.9s-11-12.7-16.1-19.2
					s-10.3-13-15.1-19.6c-4.8-6.5-9.6-13-14.1-19.9c-4.5-6.9-8.9-13.4-13-19.9c-4.1-6.9-7.9-13.4-11.3-20.2
					c-3.4-6.9-6.9-13.7-9.9-20.2c-3.1-6.9-5.8-13.7-8.2-20.6c-2.4-6.9-4.8-13.7-6.5-20.6c-2.1-7.2-3.4-14.4-4.8-21.3
					c-1.4-6.9-2.1-13.7-2.7-20.2s-1-13-1-19.6c0-6.5,0.3-12.7,1-18.5c0.7-5.8,1.4-12,2.7-17.8c1-5.8,2.7-11.3,4.5-17.2
					c1.7-5.5,3.8-11,5.8-16.1c2.4-5.1,4.8-10.3,7.5-15.4s5.8-9.9,8.9-14.8c3.1-4.8,6.5-9.3,10.3-13.7c3.8-4.5,7.5-8.9,11.7-13
					c4.1-4.1,8.6-8.2,13-12.4c4.5-4.1,9.3-7.9,14.1-11.7s9.9-7.5,15.4-11c5.1-3.4,10.6-6.9,16.5-10.3c5.5-3.4,11.3-6.5,17.5-9.6
					c5.8-3.1,12-5.8,18.2-8.9c6.2-2.7,12.7-5.5,19.2-8.2s13-5.1,19.9-7.5c6.9-2.4,13.7-4.5,20.6-6.9
					C468.7,933.9,475.9,931.8,483.1,930.1z"/>
				<path class="st7" d="M1017.9,842.3c-1.7-6.2-3.1-12.7-4.5-18.9c-1-6.2-2.1-12.4-2.7-18.5c-0.7-5.8-1-12-1-17.8s0.3-11.7,1-17.5
					c0.7-5.5,1.7-11.3,3.1-16.5c1.4-5.5,3.1-10.6,5.1-15.8c2.1-5.1,4.5-10.3,7.5-15.1c2.7-4.8,6.2-9.6,9.9-14.1
					c3.8-4.5,7.9-8.9,12.4-13c4.8-4.1,9.6-8.2,14.8-12c5.5-3.8,11.3-7.5,17.5-10.6c6.5-3.4,13.4-6.5,20.2-9.6
					c6.9-2.7,14.1-5.1,21.3-7.2s14.8-3.8,22.6-5.1c7.5-1.4,15.4-2.4,23.3-3.4c7.9-0.7,15.8-1.4,24-1.7c8.2-0.3,16.1-0.3,24.4,0
					c8.2,0.3,16.1,0.7,24.4,1.4c8.2,0.7,16.1,1.7,24,2.7c7.9,1,15.8,2.4,23.3,3.8c7.5,1.4,15.1,3.1,22.3,4.8s14.4,3.4,20.9,5.5
					c6.5,2.1,13.4,3.8,19.6,5.8s12,3.8,17.5,5.8s10.6,3.8,15.1,5.5c4.5,1.7,8.9,3.4,12.4,4.8c3.8,1.4,6.9,2.7,9.3,3.8
					s4.5,2.1,5.8,2.4c1.4,0.7,2.1,1,2.1,1s-0.3,0.7-1,1.7c-0.7,1-2.1,2.7-3.4,4.8c-1.4,2.1-3.4,4.5-5.5,7.5
					c-2.1,3.1-4.5,6.2-7.2,9.9c-2.7,3.8-5.8,7.9-9.3,12c-3.4,4.1-6.9,8.9-10.6,14.1c-3.8,5.1-7.9,10.3-12,15.8
					c-4.1,5.5-8.6,11.3-13.4,17.2c-4.8,5.8-9.6,12-14.4,18.2c-4.8,6.2-10.3,12.4-15.4,18.9c-5.1,6.5-10.6,12.7-16.5,19.2
					c-5.5,6.5-11.3,12.7-17.2,18.9c-5.8,6.2-11.7,12.4-17.8,18.5c-6.2,6.2-12,12-18.2,17.5c-6.2,5.5-12.4,11-18.9,16.1
					c-6.2,5.1-12.7,9.9-19.2,14.4c-6.5,4.5-13,8.6-19.2,12c-6.2,3.4-12.7,6.9-19.6,9.6c-7.2,3.1-15.1,5.5-22.6,7.5
					c-6.9,1.7-13.7,2.7-20.9,3.1c-6.5,0.3-12.7,0-19.2-0.7c-11.7-1.7-23-5.5-33.3-11.7c-5.1-3.1-9.6-6.5-14.1-10.3
					c-4.5-4.1-8.6-8.2-12.4-12.7c-4.1-4.8-7.5-9.9-11-15.1c-3.4-5.5-6.5-11.3-9.3-17.2c-2.7-5.8-5.5-12.4-7.9-18.5
					C1022.1,856,1020,849.1,1017.9,842.3z"/>
			</g>
		</g>
		<g>
			<path class="st8" d="M1500,1572.3c-101.9-59-153-161.9-113.6-229.9c39.5-67.9,153.7-75.5,255.9-16.5
				c101.9,58.7,606.2,514.3,606.2,514.3S1601.9,1631,1500,1572.3z"/>
			<g>
				<path class="st9" d="M2176.5,1789.1c-2.1,6.5-5.1,13-8.6,18.9c-1,1.7-1.7,3.4-2.7,4.8c-1-0.3-2.4-0.7-3.4-1
					c1-2.1,2.1-3.8,3.1-5.8C2168,1800.1,2172.1,1794.3,2176.5,1789.1z"/>
				<path class="st9" d="M2126.8,1731.2c0.7,0.3,1,1,1.7,1.4c-1.4,2.7-2.4,5.5-3.8,8.2c-2.4,4.8-4.8,9.3-7.5,13.7
					c-2.7,4.5-5.5,8.9-8.2,13.4c-2.7,4.5-6.2,8.6-9.6,12.7c1.7-5.1,3.4-9.9,5.8-14.8c2.1-4.8,4.8-9.3,7.2-14.1
					c2.7-4.5,5.5-8.9,8.6-13.4C2123,1736.3,2125.1,1733.9,2126.8,1731.2z"/>
				<path class="st9" d="M2072.6,1683.1c0.7,0.7,1.4,1.4,2.1,1.7c-2.1,4.1-4.1,8.6-6.2,12.7c-3.8,7.2-7.9,14.4-12,21.6
					c-4.1,7.2-8.2,14.1-12.7,20.9c-4.5,6.9-8.9,13.7-14.1,20.2c2.7-7.9,5.8-15.4,9.6-23c3.4-7.5,7.5-14.8,11.7-22
					c4.1-7.2,8.6-14.1,13-20.9C2066.8,1691,2069.5,1686.9,2072.6,1683.1z"/>
				<path class="st9" d="M1993.3,1680c-4.1,10.6-9.3,20.9-14.1,31.2c-4.8,10.3-10.3,20.2-15.4,30.5c-0.7,1-1,2.1-1.7,3.4
					c-2.4-0.7-5.1-1.7-7.5-2.4c0.7-1.4,1.4-3.1,2.4-4.5c5.5-9.9,11-19.9,16.8-29.8C1979.6,1698.6,1986.1,1689.3,1993.3,1680z"/>
				<path class="st9" d="M1963.1,1587.4c1.4,1,2.7,2.4,4.1,3.4c-2.4,4.8-5.1,9.6-7.9,14.1c-7.2,13-14.4,25.7-22,38.4
					s-14.8,25.4-22.6,38.1c-7.5,12.7-15.4,25-23.7,37.4c5.1-14.1,11-27.4,17.5-40.8c6.5-13.4,13.4-26.4,20.9-39.1
					c7.5-12.7,15.1-25.4,23.7-37.4C1956.6,1596.7,1959.7,1591.9,1963.1,1587.4z"/>
				<path class="st9" d="M1901.4,1557.2c-7.9,16.8-16.5,32.9-24.7,49.1c-8.6,16.1-17.2,32.2-25.7,48.4c-4.5,7.9-8.9,16.1-13,24
					c-3.8,6.9-7.2,13.4-11,20.2c-2.7-1-5.5-2.1-8.2-2.7c3.4-7.5,6.9-14.8,10.3-22c4.1-8.2,8.2-16.5,12.7-24.4
					c8.9-16.1,17.8-31.9,28.1-47.3C1879.1,1586.4,1889.7,1571.3,1901.4,1557.2z"/>
				<path class="st9" d="M1852,1491.4c3.1,2.4,5.8,5.1,8.9,7.5c-2.7,4.1-5.1,8.2-7.9,12.4c-11.7,18.5-23.7,37.1-35.3,55.6
					c-12,18.5-23.7,37.1-36.4,55.2c8.2-20.6,17.8-40.5,28.5-59.7c10.3-19.6,21.6-38.4,33.3-57.3
					C1846.1,1500.3,1848.9,1495.8,1852,1491.4z"/>
				<path class="st9" d="M1772.4,1495.1c-11.3,23.3-23,46.3-34.7,69.3s-23.3,46-35,69c-3.1,6.2-6.2,12-9.3,18.2
					c-4.1-1.4-8.2-3.1-12.4-4.5c3.1-6.5,6.2-13,9.6-19.6c11.7-23,24.4-45.6,37.7-67.9C1742.2,1537.3,1756.6,1515.7,1772.4,1495.1z"
					/>
				<path class="st9" d="M1740.8,1399.1c3.8,3.1,7.5,6.2,11.3,9.3c-15.1,22.6-29.8,45.3-44.6,67.9c-16.1,24.7-32.2,49.7-49.1,74.4
					c11.7-27.4,24.7-54.2,39.5-80.3C1711,1445.7,1725.4,1422.1,1740.8,1399.1z"/>
				<path class="st9" d="M1668.1,1393.9c-15.1,29.8-30.9,59.4-46.3,88.9c-15.4,29.5-30.5,59-45.6,88.9c-4.8,9.6-9.6,19.2-14.4,29.2
					c-5.1-2.1-9.6-4.1-14.4-5.8c4.8-10.3,9.6-20.2,14.8-30.2c15.1-29.8,31.2-59.4,49.1-87.8
					C1628.3,1448.1,1647.5,1420.3,1668.1,1393.9z"/>
				<path class="st9" d="M1623.8,1316c4.8,2.4,9.6,4.8,14.8,7.5c-8.6,13.4-17.2,26.8-25.7,40.1c-19.2,30.5-38.4,61.1-57.3,91.9
					s-37.4,62.1-56.6,93c13-34,28.1-67.2,44.9-99.5c16.8-32.2,35-63.8,54.6-94.7C1606.7,1341.8,1615.3,1328.7,1623.8,1316z"/>
				<path class="st9" d="M1564.1,1293.7c-15.4,29.8-31.6,59-47.3,88.5c-16.8,31.2-33.3,62.1-49.7,93.3
					c-8.9,17.2-17.8,34.3-26.8,51.8c-4.5-4.5-8.9-8.9-13-13.4c7.5-15.8,15.4-31.6,23.3-47c16.5-31.6,34.3-62.1,53.5-91.9
					c17.8-28.1,37.4-55.2,58.3-81.3H1564.1z"/>
				<path class="st9" d="M1451.9,1338c-11.3,27.1-23.7,53.2-36,78.9c-7.9,16.1-15.4,32.2-23.3,48.4c-3.8-7.2-6.9-14.4-9.9-22
					c6.2-11.3,12.7-22.6,19.6-34C1417.3,1384.7,1433.8,1360.6,1451.9,1338z"/>
			</g>
		</g>
		<path class="st10" d="M1564.1,1293.7c-0.3,0-0.7-0.3-1.4-0.3"/>
		<g>
			<circle class="st0" cx="1632.7" cy="1407.6" r="21.3"/>
			<path class="st0" d="M1575.8,1407.6v35.7c0,19.6-15.8,35.7-35.7,35.7c-19.6,0-35.7-15.8-35.7-35.7v-35.7H1575.8z"/>
			<circle class="st0" cx="1447.8" cy="1407.6" r="21.3"/>
		</g>
	</g>
</g>
</svg>
