<?xml version="1.0" encoding="utf-8"?>
<!-- Generator: Adobe Illustrator 22.1.0, SVG Export Plug-In . SVG Version: 6.00 Build 0)  -->
<svg version="1.1" id="Layer_1" xmlns="http://www.w3.org/2000/svg" xmlns:xlink="http://www.w3.org/1999/xlink" x="0px" y="0px"
	 viewBox="0 0 864 864" style="enable-background:new 0 0 864 864;" xml:space="preserve">
<style type="text/css">
	.st0{fill:#BF9F60;}
	.st1{fill:url(#SVGID_1_);}
	.st2{fill:url(#SVGID_2_);}
	.st3{fill:url(#SVGID_3_);}
	.st4{fill:url(#SVGID_4_);}
	.st5{fill:url(#SVGID_5_);}
	.st6{fill:url(#SVGID_6_);}
	.st7{fill:url(#SVGID_7_);}
	.st8{fill:#006838;}
	.st9{fill:#F9F5BB;}
	.st10{fill:#EADFA4;}
	.st11{fill:none;}
	.st12{fill:#003C2C;}
	.st13{enable-background:new    ;}
</style>
<g id="Back">
	<polygon id="Background" class="st0" points="432,25.42 432,25.42 784.76,229.105 784.76,636.445 432,840.115 79.23,636.445 
		79.23,229.105 	"/>
</g>
<g id="Artwork">
	<g>
		
			<linearGradient id="SVGID_1_" gradientUnits="userSpaceOnUse" x1="415.7973" y1="736.937" x2="415.7973" y2="736.937" gradientTransform="matrix(0.5 -0.866 -0.866 -0.5 683.6318 968.123)">
			<stop  offset="0" style="stop-color:#009444"/>
			<stop  offset="1" style="stop-color:#007E3E"/>
		</linearGradient>
		<path class="st1" d="M253.343,239.574L253.343,239.574z"/>
		
			<linearGradient id="SVGID_2_" gradientUnits="userSpaceOnUse" x1="415.8068" y1="736.9367" x2="415.8068" y2="736.9367" gradientTransform="matrix(0.5 -0.866 -0.866 -0.5 683.6318 968.123)">
			<stop  offset="0" style="stop-color:#009444"/>
			<stop  offset="1" style="stop-color:#007E3E"/>
		</linearGradient>
		<path class="st2" d="M253.348,239.566L253.348,239.566z"/>
		
			<linearGradient id="SVGID_3_" gradientUnits="userSpaceOnUse" x1="352.81" y1="937.0622" x2="352.81" y2="937.0622" gradientTransform="matrix(0.5 -0.866 0.866 0.5 -734.5509 76.5634)">
			<stop  offset="0" style="stop-color:#009444"/>
			<stop  offset="1" style="stop-color:#007E3E"/>
		</linearGradient>
		<path class="st3" d="M253.35,239.561L253.35,239.561z"/>
		<g>
			<g>
				
					<linearGradient id="SVGID_4_" gradientUnits="userSpaceOnUse" x1="305.0408" y1="1212.1217" x2="404.3805" y2="1040.0602" gradientTransform="matrix(0.5 -0.866 0.866 0.5 -734.5509 76.5634)">
					<stop  offset="0" style="stop-color:#009444"/>
					<stop  offset="1" style="stop-color:#007E3E"/>
				</linearGradient>
				<path class="st4" d="M494.301,402.636c-0.795,1.377-2.555,1.849-3.932,1.054l0,0c-109.552-63.25-135.425-104.946-137.84-128.787
					c-1.551-15.311,6.553-22.685,6.896-22.997c3.616-3.285,3.009-0.945,4.064,0.244c1.054,1.19,0.945,3.01-0.245,4.065
					c-0.239,0.222-6.325,5.973-4.955,18.413c1.467,13.307,10.647,28.817,27.287,46.097c22.754,23.631,58.98,49.867,107.671,77.978
					C494.624,399.498,495.096,401.258,494.301,402.636L494.301,402.636z"/>
				
					<linearGradient id="SVGID_5_" gradientUnits="userSpaceOnUse" x1="259.5954" y1="1193.8625" x2="355.9831" y2="1026.9141" gradientTransform="matrix(0.5 -0.866 0.866 0.5 -734.5509 76.5634)">
					<stop  offset="0" style="stop-color:#009444"/>
					<stop  offset="1" style="stop-color:#007E3E"/>
				</linearGradient>
				<path class="st5" d="M487.391,414.604c-0.795,1.377-2.556,1.849-3.932,1.054l0,0c-66.803-38.569-123.766-61.571-169.536-80.053
					c-13.637-5.506-26.517-10.708-38.088-15.704c-1.459-0.633-2.128-2.329-1.494-3.788c0.632-1.455,2.321-2.125,3.778-1.499
					c11.507,4.969,24.357,10.158,37.961,15.651c45.937,18.549,103.106,41.635,170.259,80.406
					C487.715,411.466,488.186,413.226,487.391,414.604C487.392,414.603,487.391,414.604,487.391,414.604z"/>
				
					<linearGradient id="SVGID_6_" gradientUnits="userSpaceOnUse" x1="266.5594" y1="1201.8733" x2="313.7389" y2="1120.156" gradientTransform="matrix(0.5 -0.866 0.866 0.5 -734.5509 76.5634)">
					<stop  offset="0" style="stop-color:#009444"/>
					<stop  offset="1" style="stop-color:#007E3E"/>
				</linearGradient>
				<path class="st6" d="M483.937,420.588c-0.795,1.377-2.555,1.849-3.932,1.054l0,0c-103.089-59.518-124.325-27.633-124.527-27.303
					c-0.826,1.345-2.577,1.781-3.937,0.982c-1.352-0.806-4.808,2.65-1.03-3.895c0.905-1.568,23.421-37.674,132.373,25.23
					C484.26,417.45,484.732,419.21,483.937,420.588C483.937,420.587,483.937,420.588,483.937,420.588z"/>
				
					<linearGradient id="SVGID_7_" gradientUnits="userSpaceOnUse" x1="333.5234" y1="477.8184" x2="470.3254" y2="714.7664" gradientTransform="matrix(0.5 -0.866 -0.866 -0.5 683.6318 968.123)">
					<stop  offset="0" style="stop-color:#009444"/>
					<stop  offset="1" style="stop-color:#007E3E"/>
				</linearGradient>
				<path class="st7" d="M490.846,408.62c-0.795,1.377-2.555,1.849-3.932,1.054l0,0
					c-102.916-59.418-176.723-107.569-213.442-139.247c-25.898-22.342-28.629-33.116-26.894-36.122
					c0.795-1.377,4.331,0.547,5.708,1.342c1.173,0.678,1.716,2.081,1.303,3.372c0.052,2.218,5.454,32.444,236.204,165.668
					C491.169,405.482,491.641,407.242,490.846,408.62C490.846,408.619,490.846,408.62,490.846,408.62z"/>
			</g>
			<g>
				<path class="st8" d="M250.846,238.141c-1.416-0.818-2.774-1.69-4.072-2.616c-1.282-0.914-2.513-1.897-3.688-2.945
					c-1.15-1.025-2.237-2.118-3.255-3.274c-1.001-1.137-1.925-2.339-2.765-3.6c-0.833-1.249-1.571-2.559-2.21-3.918
					c-0.64-1.362-1.169-2.775-1.58-4.222c-0.857-3.014-1.173-6.156-0.934-9.281c0.129-1.691,0.409-3.367,0.835-5.009
					c0.465-1.787,1.08-3.531,1.839-5.215c0.843-1.869,1.829-3.671,2.949-5.389c1.262-1.936,2.654-3.784,4.166-5.532
					c1.717-1.986,3.548-3.871,5.483-5.646c2.058-1.898,4.354-3.811,6.89-5.737c1.724-1.308,3.534-2.592,5.43-3.852
					c1.892-1.261,3.861-2.498,5.905-3.713c2.041-1.215,4.148-2.408,6.32-3.58c2.169-1.172,4.392-2.323,6.671-3.453
					c2.275-1.131,4.593-2.243,6.955-3.336c2.358-1.094,4.748-2.17,7.17-3.23c2.418-1.06,4.857-2.104,7.316-3.134
					c2.455-1.03,4.92-2.046,7.394-3.048c2.47-1.003,4.937-1.993,7.403-2.972c2.462-0.979,4.911-1.947,7.347-2.904
					c2.433-0.958,4.842-1.905,7.229-2.843c2.383-0.938,4.734-1.867,7.052-2.786c2.315-0.92,4.589-1.83,6.822-2.731
					c2.23-0.901,4.412-1.793,6.544-2.674c2.13-0.882,4.205-1.753,6.223-2.613c2.017-0.86,3.972-1.708,5.866-2.543
					c1.892-0.835,3.718-1.655,5.478-2.462c1.758-0.805,3.446-1.594,5.064-2.365c1.617-0.771,3.161-1.521,4.631-2.251
					c1.47-0.729,2.864-1.434,4.183-2.116c1.318-0.68,2.56-1.333,3.724-1.958c1.164-0.624,2.25-1.215,3.257-1.775
					c1.007-0.559,1.935-1.081,2.783-1.567c0.848-0.485,1.616-0.929,2.303-1.333c0.687-0.402,1.293-0.76,1.816-1.074
					c0.523-0.312,0.964-0.577,1.319-0.791s0.626-0.377,0.807-0.487S397.79,108,397.79,108s-0.002,0.161-0.01,0.473
					s-0.022,0.773-0.049,1.373c-0.026,0.6-0.065,1.337-0.124,2.199s-0.139,1.847-0.249,2.943s-0.25,2.301-0.431,3.601
					c-0.18,1.301-0.401,2.696-0.672,4.173c-0.271,1.476-0.591,3.033-0.971,4.657c-0.38,1.624-0.819,3.314-1.324,5.057
					c-0.506,1.743-1.079,3.54-1.724,5.378s-1.365,3.716-2.161,5.624c-0.796,1.908-1.67,3.845-2.623,5.803
					c-0.953,1.957-1.985,3.934-3.096,5.921c-1.111,1.988-2.302,3.986-3.57,5.987c-1.268,2.002-2.612,4.006-4.029,6.008
					s-2.907,4-4.464,5.99s-3.18,3.972-4.863,5.94s-3.425,3.924-5.219,5.862c-1.793,1.938-3.638,3.859-5.525,5.76
					c-1.887,1.9-3.815,3.78-5.777,5.635s-3.957,3.686-5.976,5.489s-4.062,3.577-6.122,5.319s-4.136,3.452-6.221,5.124
					s-4.181,3.308-6.28,4.9c-2.37,1.798-4.669,3.502-6.897,5.114c-2.228,1.613-4.388,3.135-6.48,4.566
					c-2.093,1.432-4.123,2.773-6.091,4.025c-1.969,1.252-3.882,2.414-5.739,3.487c-1.859,1.073-3.668,2.056-5.429,2.949
					c-1.763,0.893-3.483,1.697-5.162,2.41c-1.681,0.713-3.326,1.337-4.936,1.871c-1.612,0.534-3.195,0.979-4.748,1.334
					c-1.516,0.349-3.049,0.617-4.594,0.802c-1.482,0.178-2.974,0.271-4.467,0.279c-1.457,0.007-2.912-0.071-4.36-0.233
					c-1.435-0.161-2.86-0.405-4.268-0.729c-1.415-0.326-2.811-0.729-4.183-1.206c-1.38-0.479-2.747-1.032-4.1-1.659
					C253.506,239.601,252.168,238.906,250.846,238.141z"/>
				<path class="st8" d="M353.003,392.865c1.723,0.023,3.443,0.157,5.15,0.4c1.623,0.231,3.225,0.589,4.792,1.07
					c1.503,0.462,2.959,1.065,4.349,1.799c2.777,1.468,5.2,3.524,7.101,6.024c1.028,1.355,1.917,2.81,2.653,4.343
					c0.819,1.709,1.489,3.486,2.003,5.31c0.586,2.078,1.024,4.196,1.309,6.336c0.309,2.303,0.454,4.625,0.433,6.949
					c-0.019,2.393-0.175,4.782-0.468,7.156c-0.292,2.4-0.712,4.804-1.242,7.181s-1.169,4.728-1.894,7.022
					c-0.726,2.294-1.538,4.531-2.409,6.68s-1.802,4.211-2.756,6.155s-1.932,3.769-2.891,5.447s-1.899,3.206-2.771,4.555
					s-1.675,2.52-2.357,3.48c-0.682,0.961-1.243,1.712-1.632,2.222c-0.389,0.511-0.606,0.782-0.606,0.782s-0.173-0.233-0.494-0.675
					s-0.79-1.092-1.387-1.927s-1.322-1.854-2.156-3.032c-0.834-1.179-1.777-2.517-2.809-3.991s-2.153-3.083-3.339-4.803
					s-2.437-3.551-3.724-5.468s-2.609-3.921-3.931-5.986s-2.646-4.193-3.931-6.358s-2.53-4.367-3.694-6.582s-2.246-4.443-3.203-6.66
					c-0.938-2.15-1.755-4.351-2.449-6.591c-0.648-2.084-1.13-4.215-1.44-6.375c-0.347-2.362-0.415-4.757-0.203-7.134
					c0.179-1.98,0.65-3.923,1.397-5.765c0.671-1.634,1.6-3.15,2.751-4.49c1.116-1.287,2.415-2.401,3.857-3.308
					c1.481-0.928,3.069-1.673,4.73-2.219c1.755-0.578,3.56-0.988,5.392-1.224C349.079,392.934,351.041,392.826,353.003,392.865z"/>
				<path class="st8" d="M205.383,279.594c2.106-0.564,4.202-1.087,6.288-1.568c2.085-0.48,4.157-0.917,6.216-1.309
					c2.058-0.392,4.101-0.738,6.129-1.037c2.027-0.299,4.035-0.55,6.026-0.753c1.99-0.202,3.959-0.354,5.907-0.455
					c1.948-0.101,3.872-0.149,5.773-0.144c1.9,0.005,3.774,0.065,5.623,0.179c1.848,0.115,3.667,0.287,5.457,0.515
					c1.79,0.229,3.548,0.517,5.276,0.865c1.727,0.348,3.42,0.757,5.079,1.227c1.659,0.471,3.281,1.005,4.867,1.602
					c1.585,0.598,3.131,1.261,4.639,1.99c1.506,0.729,2.971,1.526,4.395,2.391c1.423,0.865,2.801,1.8,4.136,2.805
					c1.341,1.011,2.63,2.089,3.861,3.231c1.252,1.162,2.444,2.387,3.57,3.671c1.157,1.319,2.246,2.695,3.264,4.123
					c1.035,1.451,2.016,2.981,2.942,4.589c0.925,1.609,1.793,3.298,2.605,5.067c0.81,1.77,1.561,3.623,2.251,5.558
					c0.69,1.936,1.318,3.957,1.883,6.063c0.536,2.002,0.992,4.049,1.365,6.14c0.375,2.089,0.674,4.217,0.897,6.385
					c0.224,2.165,0.377,4.365,0.458,6.598c0.083,2.231,0.099,4.491,0.049,6.779c-0.049,2.286-0.159,4.596-0.331,6.928
					c-0.17,2.331-0.397,4.679-0.681,7.046c-0.282,2.365-0.616,4.742-1.001,7.132c-0.384,2.388-0.815,4.783-1.292,7.186
					c-0.476,2.401-0.994,4.803-1.553,7.208c-0.558,2.403-1.153,4.802-1.785,7.198c-0.63,2.394-1.292,4.78-1.986,7.157
					c-0.692,2.375-1.412,4.737-2.159,7.084c-0.745,2.346-1.512,4.672-2.301,6.979c-0.788,2.305-1.592,4.586-2.414,6.842
					c-0.82,2.255-1.653,4.479-2.497,6.674c-0.843,2.193-1.693,4.351-2.551,6.474c-0.856,2.121-1.714,4.202-2.575,6.242
					c-0.859,2.038-1.716,4.031-2.569,5.978c-0.852,1.945-1.697,3.839-2.534,5.682c-0.836,1.841-1.659,3.626-2.469,5.355
					c-0.809,1.727-1.601,3.392-2.375,4.996c-0.773,1.602-1.523,3.137-2.251,4.605c-0.726,1.466-1.425,2.86-2.097,4.182
					c-0.67,1.32-1.308,2.563-1.913,3.728c-0.604,1.163-1.172,2.246-1.7,3.241c-0.528,0.996-1.016,1.905-1.458,2.723
					c-0.442,0.818-0.839,1.544-1.185,2.174c-0.346,0.629-0.643,1.162-0.883,1.592c-0.241,0.43-0.426,0.758-0.552,0.978
					c-0.125,0.22-0.19,0.333-0.19,0.333s-0.113-0.065-0.332-0.193s-0.543-0.319-0.967-0.571s-0.946-0.565-1.561-0.937
					c-0.615-0.372-1.321-0.802-2.113-1.29s-1.669-1.031-2.624-1.63c-0.955-0.599-1.989-1.252-3.093-1.957s-2.281-1.463-3.521-2.272
					c-1.24-0.808-2.545-1.667-3.907-2.574s-2.782-1.862-4.252-2.863s-2.991-2.048-4.555-3.139s-3.172-2.226-4.816-3.403
					s-3.325-2.396-5.036-3.654s-3.451-2.557-5.214-3.892c-1.763-1.336-3.549-2.709-5.351-4.118s-3.62-2.853-5.446-4.331
					s-3.662-2.989-5.5-4.531s-3.677-3.116-5.512-4.719c-1.835-1.603-3.665-3.235-5.482-4.894c-1.818-1.659-3.624-3.345-5.411-5.056
					s-3.556-3.447-5.299-5.205c-1.743-1.759-3.46-3.54-5.145-5.342s-3.337-3.625-4.949-5.466s-3.185-3.701-4.712-5.577
					c-1.526-1.876-3.006-3.769-4.433-5.676c-1.427-1.907-2.8-3.828-4.113-5.761s-2.565-3.879-3.751-5.834
					c-1.185-1.956-2.303-3.921-3.347-5.895s-2.014-3.955-2.902-5.943c-0.889-1.987-1.696-3.981-2.416-5.978
					c-0.719-1.997-1.351-3.998-1.887-6c-0.564-2.106-1.031-4.17-1.401-6.192c-0.371-2.022-0.647-4.001-0.829-5.939
					c-0.183-1.938-0.276-3.835-0.278-5.691c-0.003-1.856,0.082-3.671,0.253-5.445c0.167-1.746,0.422-3.483,0.765-5.203
					c0.334-1.675,0.753-3.332,1.256-4.964c0.495-1.605,1.072-3.183,1.728-4.729c0.652-1.537,1.379-3.036,2.179-4.497
					c0.799-1.461,1.67-2.883,2.611-4.268c0.94-1.385,1.947-2.732,3.022-4.043c1.074-1.31,2.212-2.584,3.414-3.821
					c1.201-1.237,2.463-2.438,3.785-3.602c1.322-1.165,2.701-2.294,4.137-3.387c1.435-1.093,2.925-2.152,4.469-3.175
					c1.543-1.023,3.136-2.012,4.78-2.966c1.643-0.954,3.334-1.875,5.072-2.761c1.737-0.887,3.518-1.74,5.343-2.56
					c1.824-0.82,3.689-1.607,5.595-2.361c1.905-0.754,3.847-1.476,5.827-2.166c1.979-0.69,3.991-1.348,6.038-1.974
					C201.199,280.753,203.275,280.158,205.383,279.594z"/>
				<path class="st8" d="M361.334,254.06c-0.494-1.843-0.912-3.672-1.254-5.488c-0.34-1.814-0.597-3.607-0.773-5.381
					c-0.173-1.74-0.258-3.488-0.254-5.236c0.003-1.69,0.103-3.379,0.3-5.058c0.192-1.634,0.489-3.254,0.889-4.849
					c0.395-1.571,0.9-3.113,1.511-4.614c0.613-1.503,1.337-2.958,2.165-4.354c0.848-1.427,1.801-2.788,2.85-4.074
					c1.097-1.342,2.288-2.603,3.565-3.775c1.359-1.246,2.798-2.401,4.309-3.457c1.631-1.14,3.329-2.182,5.084-3.12
					c1.913-1.023,3.879-1.945,5.89-2.76c2.04-0.828,4.124-1.544,6.242-2.145c2.142-0.612,4.34-1.123,6.58-1.541
					c2.24-0.419,4.522-0.745,6.831-0.985c2.309-0.241,4.646-0.397,6.997-0.474c2.35-0.078,4.714-0.078,7.077-0.007
					s4.725,0.212,7.072,0.416s4.678,0.47,6.979,0.79c2.301,0.32,4.572,0.693,6.797,1.11s4.404,0.876,6.522,1.367
					c2.117,0.491,4.173,1.013,6.15,1.553s3.875,1.098,5.678,1.658c1.802,0.561,3.509,1.124,5.101,1.675
					c1.592,0.551,3.071,1.088,4.418,1.595s2.561,0.984,3.625,1.414c1.064,0.43,1.978,0.813,2.723,1.131s1.321,0.573,1.711,0.747
					c0.39,0.174,0.593,0.268,0.593,0.268s-0.115,0.163-0.339,0.474s-0.555,0.769-0.988,1.361c-0.432,0.592-0.966,1.317-1.592,2.162
					s-1.345,1.811-2.148,2.883c-0.803,1.072-1.691,2.252-2.656,3.526s-2.006,2.641-3.116,4.089s-2.289,2.976-3.529,4.57
					c-1.24,1.594-2.542,3.254-3.898,4.964c-1.356,1.71-2.766,3.47-4.225,5.264s-2.965,3.62-4.513,5.462s-3.139,3.699-4.765,5.553
					c-1.627,1.853-3.29,3.703-4.985,5.528c-1.695,1.825-3.421,3.626-5.173,5.382c-1.753,1.756-3.532,3.467-5.333,5.112
					s-3.625,3.223-5.465,4.713c-1.841,1.49-3.699,2.893-5.57,4.187s-3.755,2.478-5.647,3.534c-1.84,1.033-3.742,1.954-5.694,2.756
					c-2.148,0.886-4.36,1.608-6.617,2.161c-2.004,0.49-4.047,0.802-6.105,0.932c-1.869,0.117-3.744,0.049-5.6-0.201
					c-3.433-0.466-6.736-1.625-9.707-3.406c-1.461-0.876-2.839-1.882-4.118-3.006c-1.309-1.151-2.526-2.404-3.638-3.747
					c-1.153-1.393-2.211-2.862-3.166-4.398c-0.996-1.601-1.9-3.258-2.706-4.962c-0.827-1.739-1.58-3.554-2.259-5.446
					C362.481,258.025,361.872,256.074,361.334,254.06z"/>
			</g>
		</g>
		<g>
			<path class="st9" d="M501.8,466.805c-29.744-17.173-44.575-47.168-33.127-66.997s44.841-21.983,74.585-4.81
				C573.002,412.17,720,544.911,720,544.911S531.544,483.978,501.8,466.805z"/>
			<g>
				<path class="st10" d="M699.027,530.036c-0.629,1.911-1.451,3.753-2.456,5.497c-0.266,0.484-0.549,0.973-0.845,1.44
					c-0.334-0.113-0.668-0.226-1.017-0.334c0.271-0.562,0.562-1.112,0.853-1.662C696.526,533.204,697.688,531.546,699.027,530.036z"
					/>
				<path class="st10" d="M684.545,513.178c0.156,0.143,0.313,0.287,0.475,0.421c-0.354,0.82-0.733,1.638-1.126,2.435
					c-0.67,1.368-1.416,2.706-2.162,4.044c-0.78,1.305-1.566,2.62-2.416,3.885c-0.839,1.3-1.758,2.545-2.752,3.73
					c0.472-1.472,1.041-2.912,1.703-4.309c0.646-1.396,1.382-2.739,2.128-4.077c0.786-1.315,1.587-2.634,2.467-3.881
					C683.399,514.657,683.955,513.901,684.545,513.178z"/>
				<path class="st10" d="M668.712,499.143c0.201,0.182,0.401,0.365,0.608,0.537c-0.585,1.244-1.201,2.472-1.83,3.677
					c-1.098,2.132-2.28,4.202-3.452,6.278c-1.208,2.069-2.419,4.122-3.711,6.129c-1.277,2.028-2.605,4.028-4.082,5.941
					c0.785-2.279,1.712-4.506,2.774-6.67c1.022-2.162,2.17-4.266,3.364-6.356c1.208-2.069,2.455-4.114,3.822-6.091
					C667.002,501.414,667.83,500.256,668.712,499.143z"/>
				<path class="st10" d="M645.557,498.275c-1.244,3.098-2.653,6.115-4.1,9.082c-1.433,2.989-2.956,5.926-4.459,8.875
					c-0.174,0.325-0.343,0.64-0.507,0.97c-0.733-0.25-1.456-0.495-2.189-0.745c0.212-0.436,0.434-0.867,0.656-1.297
					c1.559-2.93,3.173-5.841,4.931-8.656C641.615,503.652,643.508,500.904,645.557,498.275z"/>
				<path class="st10" d="M636.827,471.2c0.403,0.339,0.79,0.682,1.177,1.025c-0.749,1.389-1.502,2.763-2.271,4.141
					c-2.078,3.76-4.23,7.465-6.362,11.18c-2.182,3.687-4.334,7.391-6.581,11.054c-2.228,3.674-4.495,7.325-6.943,10.898
					c1.478-4.061,3.182-8.036,5.105-11.906c1.878-3.875,3.948-7.667,6.102-11.397c2.183-3.713,4.447-7.379,6.894-10.927
					C634.885,473.895,635.844,472.534,636.827,471.2z"/>
				<path class="st10" d="M618.777,462.388c-2.283,4.852-4.754,9.569-7.234,14.281c-2.471,4.717-5.016,9.378-7.51,14.068
					c-1.29,2.327-2.562,4.66-3.815,6.999c-1.093,1.962-2.14,3.937-3.233,5.899c-0.799-0.275-1.582-0.554-2.38-0.829
					c0.965-2.155,2.016-4.275,3.037-6.411c1.216-2.383,2.437-4.75,3.683-7.116c2.572-4.685,5.25-9.323,8.161-13.812
					C612.345,470.943,615.447,466.577,618.777,462.388z"/>
				<path class="st10" d="M604.399,443.276c0.86,0.722,1.723,1.46,2.587,2.198c-0.752,1.188-1.51,2.386-2.253,3.58
					c-3.429,5.387-6.879,10.762-10.324,16.154c-3.455,5.385-6.916,10.781-10.588,16.081c2.433-5.959,5.191-11.78,8.26-17.438
					c3.039-5.679,6.272-11.232,9.734-16.653C602.669,445.881,603.532,444.57,604.399,443.276z"/>
				<path class="st10" d="M581.202,444.324c-3.263,6.826-6.708,13.507-10.117,20.196c-3.409,6.688-6.803,13.372-10.187,20.062
					c-0.879,1.753-1.774,3.51-2.653,5.263c-1.202-0.428-2.399-0.866-3.575-1.293c0.904-1.911,1.844-3.816,2.804-5.708
					c3.407-6.73,7.077-13.325,11.011-19.786C572.376,456.585,576.622,450.331,581.202,444.324z"/>
				<path class="st10" d="M572.002,416.313c1.077,0.875,2.175,1.761,3.286,2.669c-4.377,6.568-8.699,13.156-13.032,19.763
					c-4.712,7.24-9.393,14.497-14.278,21.69c3.375-8.005,7.199-15.813,11.454-23.386
					C563.335,429.966,567.524,423.054,572.002,416.313z"/>
				<path class="st10" d="M550.756,414.832c-4.424,8.722-8.999,17.291-13.508,25.884c-4.475,8.626-8.933,17.223-13.287,25.892
					c-1.418,2.825-2.831,5.64-4.239,8.47c-1.45-0.598-2.829-1.181-4.152-1.745c1.384-2.951,2.811-5.882,4.279-8.793
					c4.404-8.734,9.143-17.287,14.295-25.589C539.217,430.6,544.763,422.547,550.756,414.832z"/>
				<path class="st10" d="M537.94,392.14c1.428,0.705,2.849,1.445,4.261,2.247c-2.524,3.888-5.023,7.787-7.497,11.695
					c-5.626,8.893-11.178,17.841-16.656,26.846c-5.524,8.992-10.908,18.064-16.536,27.075c3.814-9.908,8.192-19.59,13.112-28.998
					c4.884-9.427,10.173-18.626,15.865-27.595C532.91,399.608,535.394,395.851,537.94,392.14z"/>
				<path class="st10" d="M520.462,385.653c-4.5,8.692-9.196,17.217-13.796,25.784c-4.883,9.056-9.718,18.121-14.505,27.197
					c-2.628,5.012-5.241,10.037-7.839,15.075c-1.307-1.26-2.556-2.553-3.751-3.868c2.176-4.621,4.454-9.188,6.833-13.701
					c4.827-9.167,10.041-18.112,15.639-26.835c5.249-8.214,10.938-16.138,17.042-23.737L520.462,385.653z"/>
				<path class="st10" d="M487.796,398.494c-3.273,7.857-6.877,15.458-10.484,23.042c-2.259,4.719-4.535,9.421-6.826,14.104
					c-1.092-2.066-2.05-4.2-2.867-6.389c1.84-3.326,3.74-6.617,5.72-9.862C477.712,412.126,482.541,405.147,487.796,398.494z"/>
			</g>
		</g>
		<path class="st11" d="M520.457,385.663c-0.127-0.033-0.244-0.061-0.377-0.085"/>
		<g>
			<circle class="st12" cx="540.501" cy="418.816" r="6.219"/>
			<path class="st12" d="M523.918,418.816v10.365c0,5.724-4.64,10.365-10.365,10.365c-5.724,0-10.365-4.64-10.365-10.365v-10.365
				H523.918z"/>
			<circle class="st12" cx="486.606" cy="418.816" r="6.219"/>
		</g>
	</g>
</g>
<g id="Front">
	<g id="www.rstudio.com">
		<g class="st13">
			<path class="st12" d="M428.452,805.283l4.452,4.489c0.976,0.986,1.881,1.898,2.699,2.862l0.064-0.038
				c-0.376-1.19-0.683-2.51-0.988-3.827l-1.39-6.299l1.592-0.925l4.638,4.266c1.112,1.022,2.051,1.944,2.899,2.86l0.064-0.037
				c-0.44-1.154-0.798-2.414-1.167-3.839l-1.555-6.088l1.871-1.087l2.696,12.356l-1.72,1l-4.479-4.041
				c-1.041-0.95-1.942-1.806-2.912-2.882l-0.043,0.024c0.466,1.397,0.77,2.66,1.053,3.99l1.199,5.921l-1.721,1l-9.189-8.582
				L428.452,805.283z"/>
		</g>
		<g class="st13">
			<path class="st12" d="M444.49,795.959l4.452,4.489c0.976,0.986,1.881,1.898,2.699,2.862l0.064-0.038
				c-0.376-1.19-0.683-2.51-0.988-3.827l-1.39-6.299l1.592-0.925l4.638,4.266c1.112,1.022,2.051,1.944,2.899,2.86l0.064-0.037
				c-0.44-1.154-0.798-2.414-1.167-3.839l-1.555-6.088l1.871-1.087l2.696,12.356l-1.72,1l-4.479-4.041
				c-1.041-0.95-1.942-1.806-2.912-2.882l-0.043,0.024c0.466,1.397,0.77,2.66,1.053,3.99l1.199,5.921l-1.721,1l-9.189-8.582
				L444.49,795.959z"/>
		</g>
		<g class="st13">
			<path class="st12" d="M460.1,786.884l4.452,4.489c0.976,0.986,1.881,1.898,2.699,2.862l0.064-0.038
				c-0.376-1.191-0.683-2.51-0.988-3.827l-1.39-6.299l1.592-0.925l4.638,4.266c1.112,1.022,2.051,1.944,2.899,2.86l0.064-0.038
				c-0.44-1.153-0.798-2.412-1.167-3.838l-1.555-6.088l1.871-1.088l2.696,12.357l-1.72,1l-4.479-4.041
				c-1.041-0.95-1.942-1.807-2.912-2.883l-0.043,0.025c0.466,1.397,0.77,2.66,1.053,3.99l1.199,5.921l-1.721,1l-9.189-8.582
				L460.1,786.884z"/>
			<path class="st12" d="M479.282,788.16c-0.463-0.795-0.25-1.667,0.502-2.104c0.753-0.438,1.594-0.179,2.057,0.618
				c0.449,0.773,0.293,1.641-0.503,2.104C480.585,789.215,479.731,788.934,479.282,788.16z"/>
			<path class="st12" d="M480.671,779.27c-0.713-1.227-1.348-2.268-1.974-3.197l1.655-0.963l1.252,2.006l0.086-0.05
				c-0.34-1.673,0.288-3.218,1.557-3.955c0.215-0.124,0.378-0.191,0.574-0.248l1.038,1.784c-0.218,0.07-0.424,0.161-0.683,0.312
				c-1.333,0.774-1.691,2.335-1.124,3.904c0.106,0.282,0.239,0.609,0.427,0.932l3.225,5.548l-1.871,1.087L480.671,779.27z"/>
			<path class="st12" d="M490.48,780.557c0.772,0.041,1.985-0.148,2.932-0.697c1.376-0.801,1.622-1.863,1.122-2.724
				c-0.525-0.902-1.351-1.085-3.048-0.788c-2.259,0.42-3.74-0.099-4.465-1.346c-0.976-1.678-0.421-3.841,1.815-5.141
				c1.054-0.613,2.153-0.85,2.934-0.843l0.326,1.651c-0.559-0.021-1.51,0.072-2.478,0.635c-1.118,0.65-1.367,1.658-0.917,2.432
				c0.5,0.861,1.349,0.885,3.004,0.613c2.205-0.362,3.655,0.004,4.555,1.552c1.063,1.827,0.395,3.942-2.078,5.38
				c-1.141,0.663-2.356,0.996-3.338,0.99L490.48,780.557z"/>
			<path class="st12" d="M494.869,762.671l1.737,2.989l2.709-1.575l0.838,1.44l-2.709,1.575l3.263,5.612
				c0.75,1.29,1.54,1.809,2.594,1.195c0.495-0.287,0.823-0.563,1.021-0.766l0.912,1.369c-0.278,0.362-0.796,0.808-1.527,1.232
				c-0.881,0.513-1.753,0.646-2.505,0.393c-0.862-0.247-1.594-1.059-2.307-2.285l-3.3-5.676l-1.612,0.938l-0.838-1.44l1.612-0.938
				l-1.449-2.494L494.869,762.671z"/>
			<path class="st12" d="M514.552,765.354c0.625,1.075,1.197,2.009,1.736,2.788l-1.678,0.976l-1.094-1.637l-0.043,0.025
				c-0.008,1.125-0.467,2.859-2.316,3.935c-1.633,0.95-4.115,1.185-6.24-2.47l-3.537-6.086l1.891-1.1l3.352,5.763
				c1.149,1.978,2.526,2.961,4.246,1.961c1.27-0.737,1.639-2.132,1.494-3.171c-0.055-0.342-0.189-0.723-0.39-1.067l-3.713-6.386
				l1.892-1.1L514.552,765.354z"/>
			<path class="st12" d="M519.452,745.876l7.312,12.578c0.538,0.925,1.172,1.967,1.649,2.638l-1.698,0.988l-1.137-1.756
				l-0.043,0.025c0.095,1.498-0.661,3.116-2.359,4.104c-2.516,1.463-5.688,0.46-7.526-2.701c-2.034-3.449-1.122-6.828,1.415-8.303
				c1.592-0.925,3.104-0.798,4.064-0.234l0.044-0.024l-3.613-6.215L519.452,745.876z M522.849,756.07
				c-0.138-0.236-0.347-0.546-0.549-0.744c-0.979-1.042-2.587-1.432-4.006-0.606c-1.957,1.138-2.117,3.533-0.779,5.834
				c1.225,2.106,3.269,3.249,5.312,2.062c1.269-0.738,1.942-2.252,1.461-3.871c-0.085-0.295-0.214-0.566-0.389-0.867L522.849,756.07
				z"/>
			<path class="st12" d="M525.823,744.762c0.396,0.633,0.223,1.424-0.529,1.861c-0.666,0.388-1.439,0.146-1.814-0.499
				c-0.388-0.667-0.193-1.47,0.495-1.87C524.685,743.842,525.436,744.095,525.823,744.762z M531.466,759.317l-6.051-10.406
				l1.893-1.101l6.051,10.407L531.466,759.317z"/>
			<path class="st12" d="M542.84,745.629c2.237,3.849,0.546,7.075-1.97,8.537c-2.816,1.639-6.188,0.837-8.101-2.453
				c-2.025-3.483-0.934-6.851,1.948-8.525C537.706,741.449,540.989,742.445,542.84,745.629z M534.646,750.536
				c1.324,2.279,3.637,3.236,5.486,2.161c1.806-1.05,2.173-3.536,0.811-5.88c-1.025-1.763-3.207-3.486-5.443-2.187
				C533.263,745.932,533.495,748.559,534.646,750.536z"/>
			<path class="st12" d="M546.683,748.976c-0.462-0.796-0.25-1.668,0.503-2.105s1.593-0.179,2.056,0.618
				c0.449,0.773,0.293,1.641-0.502,2.104C547.986,750.029,547.133,749.749,546.683,748.976z"/>
			<path class="st12" d="M559.429,742.544c-0.346,0.545-1.241,1.526-2.639,2.339c-3.14,1.826-6.42,0.885-8.27-2.298
				c-1.863-3.204-1.021-6.802,2.377-8.776c1.117-0.65,2.27-0.945,2.936-0.987l0.42,1.712c-0.602,0.005-1.449,0.181-2.48,0.781
				c-2.387,1.387-2.651,3.9-1.389,6.072c1.4,2.408,3.811,2.991,5.875,1.791c1.074-0.625,1.621-1.316,2.021-1.865L559.429,742.544z"
				/>
			<path class="st12" d="M568.081,730.954c2.236,3.85,0.546,7.075-1.971,8.538c-2.816,1.638-6.188,0.836-8.101-2.454
				c-2.025-3.483-0.933-6.851,1.948-8.525C562.946,726.775,566.229,727.771,568.081,730.954z M559.886,735.861
				c1.325,2.279,3.637,3.237,5.486,2.162c1.807-1.051,2.174-3.537,0.811-5.881c-1.025-1.762-3.207-3.486-5.442-2.186
				C558.504,731.257,558.735,733.884,559.886,735.861z"/>
			<path class="st12" d="M569.128,727.268c-0.625-1.076-1.158-1.945-1.723-2.768l1.654-0.963l1.062,1.627l0.064-0.037
				c0.004-1.327,0.436-2.813,2.155-3.813c1.419-0.825,2.994-0.59,4.157,0.372l0.043-0.025c-0.014-0.767,0.132-1.456,0.375-2.028
				c0.348-0.835,0.887-1.494,1.875-2.069c1.376-0.8,3.943-1.084,6.044,2.527l3.562,6.129l-1.849,1.074l-3.426-5.891
				c-1.162-2-2.594-2.778-4.12-1.891c-1.075,0.625-1.451,1.907-1.235,3.02c0.062,0.309,0.199,0.689,0.398,1.033l3.738,6.43
				l-1.85,1.074l-3.625-6.235c-0.962-1.655-2.394-2.435-3.834-1.597c-1.184,0.688-1.493,2.133-1.244,3.254
				c0.056,0.343,0.199,0.689,0.387,1.013l3.65,6.278l-1.85,1.075L569.128,727.268z"/>
		</g>
	</g>
	<path id="Border" class="st12" d="M432,857.003L64.605,644.889V220.662L432,8.532l367.385,212.129v424.227L432,857.003z
		 M93.855,628.002L432,823.228l338.135-195.226V237.548L432,42.308L93.855,237.548V628.002z"/>
	<g id="Title">
		<g class="st13">
			<path class="st12" d="M261.251,579.817c0-7.866-0.239-14.21-0.479-20.046h9.457l0.479,10.53h0.239
				c4.31-7.485,11.133-11.926,20.589-11.926c14.005,0,24.54,12.561,24.54,31.211c0,22.077-12.689,32.988-26.335,32.988
				c-7.661,0-14.365-3.553-17.836-9.643h-0.239v33.369h-10.415V579.817z M271.666,596.185c0,1.649,0.239,3.172,0.479,4.568
				c1.915,7.739,8.259,13.068,15.801,13.068c11.133,0,17.597-9.644,17.597-23.727c0-12.307-6.105-22.838-17.237-22.838
				c-7.183,0-13.886,5.456-15.921,13.83c-0.359,1.396-0.718,3.045-0.718,4.567V596.185z"/>
			<path class="st12" d="M359.524,621.18l-0.838-7.739h-0.359c-3.232,4.821-9.457,9.135-17.716,9.135
				c-11.731,0-17.717-8.754-17.717-17.636c0-14.845,12.45-22.965,34.834-22.838v-1.269c0-5.075-1.317-14.21-13.167-14.21
				c-5.387,0-11.013,1.775-15.083,4.567l-2.394-7.359c4.788-3.299,11.731-5.455,19.033-5.455c17.716,0,22.026,12.814,22.026,25.121
				v22.965c0,5.329,0.239,10.531,0.958,14.718H359.524z M357.968,589.841c-11.492-0.254-24.54,1.903-24.54,13.83
				c0,7.231,4.549,10.657,9.936,10.657c7.542,0,12.33-5.075,14.005-10.276c0.359-1.143,0.599-2.411,0.599-3.553V589.841z"/>
			<path class="st12" d="M383.223,578.93c0-7.232-0.12-13.449-0.479-19.158h9.217l0.359,12.053h0.479
				c2.633-8.247,8.978-13.448,16.041-13.448c1.197,0,2.035,0.127,2.993,0.38v10.531c-1.078-0.254-2.155-0.381-3.591-0.381
				c-7.422,0-12.689,5.964-14.125,14.337c-0.24,1.522-0.479,3.299-0.479,5.202v32.734h-10.415V578.93z"/>
			<path class="st12" d="M419.014,609.761c3.112,2.157,8.619,4.44,13.886,4.44c7.661,0,11.252-4.06,11.252-9.135
				c0-5.329-2.992-8.247-10.773-11.292c-10.414-3.934-15.322-10.023-15.322-17.382c0-9.896,7.542-18.017,19.991-18.017
				c5.865,0,11.013,1.776,14.244,3.806l-2.633,8.12c-2.274-1.522-6.464-3.552-11.851-3.552c-6.225,0-9.697,3.806-9.697,8.373
				c0,5.075,3.472,7.359,11.013,10.404c10.055,4.06,15.202,9.389,15.202,18.524c0,10.784-7.9,18.396-21.666,18.396
				c-6.345,0-12.21-1.649-16.28-4.187L419.014,609.761z"/>
			<path class="st12" d="M465.936,576.393c0-6.345-0.119-11.546-0.479-16.621h9.337l0.599,10.15h0.239
				c2.873-5.837,9.576-11.546,19.153-11.546c8.02,0,20.469,5.075,20.469,26.137v36.667h-10.533v-35.398
				c0-9.896-3.472-18.144-13.407-18.144c-6.943,0-12.33,5.202-14.125,11.419c-0.479,1.396-0.719,3.299-0.719,5.202v36.921h-10.534
				V576.393z"/>
			<path class="st12" d="M542.185,542.516c0.119,3.807-2.514,6.852-6.704,6.852c-3.71,0-6.344-3.045-6.344-6.852
				c0-3.933,2.753-6.978,6.584-6.978C539.671,535.538,542.185,538.583,542.185,542.516z M530.453,621.18v-61.408h10.534v61.408
				H530.453z"/>
			<path class="st12" d="M556.547,579.817c0-7.866-0.239-14.21-0.479-20.046h9.457l0.479,10.53h0.239
				c4.31-7.485,11.133-11.926,20.589-11.926c14.006,0,24.54,12.561,24.54,31.211c0,22.077-12.688,32.988-26.335,32.988
				c-7.661,0-14.365-3.553-17.836-9.643h-0.24v33.369h-10.414V579.817z M566.961,596.185c0,1.649,0.24,3.172,0.479,4.568
				c1.915,7.739,8.26,13.068,15.801,13.068c11.133,0,17.597-9.644,17.597-23.727c0-12.307-6.104-22.838-17.237-22.838
				c-7.183,0-13.886,5.456-15.921,13.83c-0.359,1.396-0.719,3.045-0.719,4.567V596.185z"/>
		</g>
	</g>
</g>
</svg>
