<?xml version="1.0" encoding="utf-8"?>
<!-- Generator: Adobe Illustrator 24.0.0, SVG Export Plug-In . SVG Version: 6.00 Build 0)  -->
<svg version="1.1" id="Layer_1" xmlns="http://www.w3.org/2000/svg" xmlns:xlink="http://www.w3.org/1999/xlink" x="0px" y="0px"
	 viewBox="0 0 738 852" style="enable-background:new 0 0 738 852;" xml:space="preserve">
<style type="text/css">
	.st0{fill:#003C2C;}
	.st1{fill:#BF9F60;}
	.st2{enable-background:new    ;}
	.st3{fill:url(#SVGID_1_);}
	.st4{fill:url(#SVGID_2_);}
	.st5{fill:url(#SVGID_3_);}
	.st6{fill:url(#SVGID_4_);}
	.st7{fill:url(#SVGID_5_);}
	.st8{fill:url(#SVGID_6_);}
	.st9{fill:url(#SVGID_7_);}
	.st10{fill:#006838;}
	.st11{fill:#F9F5BB;}
	.st12{fill:#EADFA4;}
	.st13{fill:none;}
</style>
<g>
	<path class="st0" d="M369,2L1.6,214.1v424.2L369,850.5l367.4-212.1V214.1L369,2z M707.1,621.5L369,816.7L30.8,621.5V231L369,35.8
		L707.1,231V621.5z"/>
	<polygon class="st1" points="30.8,231 30.8,621.5 369,816.7 707.1,621.5 707.1,231 369,35.8 	"/>
	<g id="www.rstudio.com">
		<g class="st2">
			<path class="st0" d="M365.4,798.8l4.5,4.5c1,1,1.9,1.9,2.7,2.9l0.1,0c-0.4-1.2-0.7-2.5-1-3.8l-1.4-6.3l1.6-0.9l4.6,4.3
				c1.1,1,2.1,1.9,2.9,2.9l0.1,0c-0.4-1.2-0.8-2.4-1.2-3.8l-1.6-6.1l1.9-1.1l2.7,12.4l-1.7,1l-4.5-4c-1-1-1.9-1.8-2.9-2.9l0,0
				c0.5,1.4,0.8,2.7,1.1,4l1.2,5.9l-1.7,1l-9.2-8.6L365.4,798.8z"/>
		</g>
		<g class="st2">
			<path class="st0" d="M381.5,789.4l4.5,4.5c1,1,1.9,1.9,2.7,2.9l0.1,0c-0.4-1.2-0.7-2.5-1-3.8l-1.4-6.3l1.6-0.9l4.6,4.3
				c1.1,1,2.1,1.9,2.9,2.9l0.1,0c-0.4-1.2-0.8-2.4-1.2-3.8l-1.6-6.1l1.9-1.1l2.7,12.4l-1.7,1l-4.5-4c-1-1-1.9-1.8-2.9-2.9l0,0
				c0.5,1.4,0.8,2.7,1.1,4l1.2,5.9l-1.7,1l-9.2-8.6L381.5,789.4z"/>
		</g>
		<g class="st2">
			<path class="st0" d="M397.1,780.4l4.5,4.5c1,1,1.9,1.9,2.7,2.9l0.1,0c-0.4-1.2-0.7-2.5-1-3.8l-1.4-6.3l1.6-0.9l4.6,4.3
				c1.1,1,2.1,1.9,2.9,2.9l0.1,0c-0.4-1.2-0.8-2.4-1.2-3.8l-1.6-6.1l1.9-1.1L413,785l-1.7,1l-4.5-4c-1-1-1.9-1.8-2.9-2.9l0,0
				c0.5,1.4,0.8,2.7,1.1,4l1.2,5.9l-1.7,1l-9.2-8.6L397.1,780.4z"/>
			<path class="st0" d="M416.3,781.6c-0.5-0.8-0.2-1.7,0.5-2.1c0.8-0.4,1.6-0.2,2.1,0.6c0.4,0.8,0.3,1.6-0.5,2.1
				C417.6,782.7,416.7,782.4,416.3,781.6z"/>
			<path class="st0" d="M417.7,772.7c-0.7-1.2-1.3-2.3-2-3.2l1.7-1l1.3,2l0.1,0c-0.3-1.7,0.3-3.2,1.6-4c0.2-0.1,0.4-0.2,0.6-0.2
				l1,1.8c-0.2,0.1-0.4,0.2-0.7,0.3c-1.3,0.8-1.7,2.3-1.1,3.9c0.1,0.3,0.2,0.6,0.4,0.9l3.2,5.5l-1.9,1.1L417.7,772.7z"/>
			<path class="st0" d="M427.5,774c0.8,0,2-0.1,2.9-0.7c1.4-0.8,1.6-1.9,1.1-2.7c-0.5-0.9-1.4-1.1-3-0.8c-2.3,0.4-3.7-0.1-4.5-1.3
				c-1-1.7-0.4-3.8,1.8-5.1c1.1-0.6,2.2-0.8,2.9-0.8l0.3,1.7c-0.6,0-1.5,0.1-2.5,0.6c-1.1,0.7-1.4,1.7-0.9,2.4
				c0.5,0.9,1.3,0.9,3,0.6c2.2-0.4,3.7,0,4.6,1.6c1.1,1.8,0.4,3.9-2.1,5.4c-1.1,0.7-2.4,1-3.3,1L427.5,774z"/>
			<path class="st0" d="M431.9,756.1l1.7,3l2.7-1.6l0.8,1.4l-2.7,1.6l3.3,5.6c0.8,1.3,1.5,1.8,2.6,1.2c0.5-0.3,0.8-0.6,1-0.8
				l0.9,1.4c-0.3,0.4-0.8,0.8-1.5,1.2c-0.9,0.5-1.8,0.6-2.5,0.4c-0.9-0.2-1.6-1.1-2.3-2.3l-3.3-5.7l-1.6,0.9l-0.8-1.4l1.6-0.9
				l-1.4-2.5L431.9,756.1z"/>
			<path class="st0" d="M451.5,758.8c0.6,1.1,1.2,2,1.7,2.8l-1.7,1l-1.1-1.6l0,0c0,1.1-0.5,2.9-2.3,3.9c-1.6,1-4.1,1.2-6.2-2.5
				l-3.5-6.1l1.9-1.1l3.4,5.8c1.1,2,2.5,3,4.2,2c1.3-0.7,1.6-2.1,1.5-3.2c-0.1-0.3-0.2-0.7-0.4-1.1l-3.7-6.4l1.9-1.1L451.5,758.8z"
				/>
			<path class="st0" d="M456.4,739.3l7.3,12.6c0.5,0.9,1.2,2,1.6,2.6l-1.7,1l-1.1-1.8l0,0c0.1,1.5-0.7,3.1-2.4,4.1
				c-2.5,1.5-5.7,0.5-7.5-2.7c-2-3.4-1.1-6.8,1.4-8.3c1.6-0.9,3.1-0.8,4.1-0.2l0,0l-3.6-6.2L456.4,739.3z M459.8,749.5
				c-0.1-0.2-0.3-0.5-0.5-0.7c-1-1-2.6-1.4-4-0.6c-2,1.1-2.1,3.5-0.8,5.8c1.2,2.1,3.3,3.2,5.3,2.1c1.3-0.7,1.9-2.3,1.5-3.9
				c-0.1-0.3-0.2-0.6-0.4-0.9L459.8,749.5z"/>
			<path class="st0" d="M462.8,738.2c0.4,0.6,0.2,1.4-0.5,1.9c-0.7,0.4-1.4,0.1-1.8-0.5c-0.4-0.7-0.2-1.5,0.5-1.9
				C461.7,737.3,462.4,737.6,462.8,738.2z M468.5,752.8l-6.1-10.4l1.9-1.1l6.1,10.4L468.5,752.8z"/>
			<path class="st0" d="M479.8,739.1c2.2,3.8,0.5,7.1-2,8.5c-2.8,1.6-6.2,0.8-8.1-2.5c-2-3.5-0.9-6.9,1.9-8.5
				C474.7,734.9,478,735.9,479.8,739.1z M471.6,744c1.3,2.3,3.6,3.2,5.5,2.2c1.8-1,2.2-3.5,0.8-5.9c-1-1.8-3.2-3.5-5.4-2.2
				C470.3,739.4,470.5,742,471.6,744z"/>
			<path class="st0" d="M483.7,742.4c-0.5-0.8-0.2-1.7,0.5-2.1s1.6-0.2,2.1,0.6c0.4,0.8,0.3,1.6-0.5,2.1
				C485,743.5,484.1,743.2,483.7,742.4z"/>
			<path class="st0" d="M496.4,736c-0.3,0.5-1.2,1.5-2.6,2.3c-3.1,1.8-6.4,0.9-8.3-2.3c-1.9-3.2-1-6.8,2.4-8.8
				c1.1-0.7,2.3-0.9,2.9-1l0.4,1.7c-0.6,0-1.4,0.2-2.5,0.8c-2.4,1.4-2.7,3.9-1.4,6.1c1.4,2.4,3.8,3,5.9,1.8c1.1-0.6,1.6-1.3,2-1.9
				L496.4,736z"/>
			<path class="st0" d="M505.1,724.4c2.2,3.8,0.5,7.1-2,8.5c-2.8,1.6-6.2,0.8-8.1-2.5c-2-3.5-0.9-6.9,1.9-8.5
				C499.9,720.2,503.2,721.2,505.1,724.4z M496.9,729.3c1.3,2.3,3.6,3.2,5.5,2.2c1.8-1.1,2.2-3.5,0.8-5.9c-1-1.8-3.2-3.5-5.4-2.2
				C495.5,724.7,495.7,727.4,496.9,729.3z"/>
			<path class="st0" d="M506.1,720.7c-0.6-1.1-1.2-1.9-1.7-2.8l1.7-1l1.1,1.6l0.1,0c0-1.3,0.4-2.8,2.2-3.8c1.4-0.8,3-0.6,4.2,0.4
				l0,0c0-0.8,0.1-1.5,0.4-2c0.3-0.8,0.9-1.5,1.9-2.1c1.4-0.8,3.9-1.1,6,2.5l3.6,6.1l-1.8,1.1l-3.4-5.9c-1.2-2-2.6-2.8-4.1-1.9
				c-1.1,0.6-1.5,1.9-1.2,3c0.1,0.3,0.2,0.7,0.4,1l3.7,6.4l-1.8,1.1l-3.6-6.2c-1-1.7-2.4-2.4-3.8-1.6c-1.2,0.7-1.5,2.1-1.2,3.3
				c0.1,0.3,0.2,0.7,0.4,1l3.7,6.3l-1.8,1.1L506.1,720.7z"/>
		</g>
	</g>
	<g id="Title">
		<g class="st2">
			<path class="st0" d="M198.2,573.3c0-7.9-0.2-14.2-0.5-20h9.5l0.5,10.5h0.2c4.3-7.5,11.1-11.9,20.6-11.9c14,0,24.5,12.6,24.5,31.2
				c0,22.1-12.7,33-26.3,33c-7.7,0-14.4-3.6-17.8-9.6h-0.2v33.4h-10.4V573.3z M208.7,589.7c0,1.6,0.2,3.2,0.5,4.6
				c1.9,7.7,8.3,13.1,15.8,13.1c11.1,0,17.6-9.6,17.6-23.7c0-12.3-6.1-22.8-17.2-22.8c-7.2,0-13.9,5.5-15.9,13.8
				c-0.4,1.4-0.7,3-0.7,4.6L208.7,589.7L208.7,589.7z"/>
			<path class="st0" d="M296.5,614.6l-0.8-7.7h-0.4c-3.2,4.8-9.5,9.1-17.7,9.1c-11.7,0-17.7-8.8-17.7-17.6c0-14.8,12.5-23,34.8-22.8
				v-1.3c0-5.1-1.3-14.2-13.2-14.2c-5.4,0-11,1.8-15.1,4.6l-2.4-7.4c4.8-3.3,11.7-5.5,19-5.5c17.7,0,22,12.8,22,25.1v23
				c0,5.3,0.2,10.5,1,14.7H296.5z M295,583.3c-11.5-0.3-24.5,1.9-24.5,13.8c0,7.2,4.5,10.7,9.9,10.7c7.5,0,12.3-5.1,14-10.3
				c0.4-1.1,0.6-2.4,0.6-3.6V583.3z"/>
			<path class="st0" d="M320.2,572.4c0-7.2-0.1-13.4-0.5-19.2h9.2l0.4,12.1h0.5c2.6-8.2,9-13.4,16-13.4c1.2,0,2,0.1,3,0.4v10.5
				c-1.1-0.3-2.2-0.4-3.6-0.4c-7.4,0-12.7,6-14.1,14.3c-0.2,1.5-0.5,3.3-0.5,5.2v32.7h-10.4L320.2,572.4L320.2,572.4z"/>
			<path class="st0" d="M356,603.2c3.1,2.2,8.6,4.4,13.9,4.4c7.7,0,11.3-4.1,11.3-9.1c0-5.3-3-8.2-10.8-11.3
				c-10.4-3.9-15.3-10-15.3-17.4c0-9.9,7.5-18,20-18c5.9,0,11,1.8,14.2,3.8l-2.6,8.1c-2.3-1.5-6.5-3.6-11.9-3.6
				c-6.2,0-9.7,3.8-9.7,8.4c0,5.1,3.5,7.4,11,10.4c10.1,4.1,15.2,9.4,15.2,18.5c0,10.8-7.9,18.4-21.7,18.4c-6.3,0-12.2-1.6-16.3-4.2
				L356,603.2z"/>
			<path class="st0" d="M402.9,569.9c0-6.3-0.1-11.5-0.5-16.6h9.3l0.6,10.2h0.2c2.9-5.8,9.6-11.5,19.2-11.5c8,0,20.5,5.1,20.5,26.1
				v36.7h-10.5v-35.4c0-9.9-3.5-18.1-13.4-18.1c-6.9,0-12.3,5.2-14.1,11.4c-0.5,1.4-0.7,3.3-0.7,5.2v36.9h-10.5L402.9,569.9
				L402.9,569.9z"/>
			<path class="st0" d="M479.2,536c0.1,3.8-2.5,6.9-6.7,6.9c-3.7,0-6.3-3-6.3-6.9c0-3.9,2.8-7,6.6-7
				C476.7,529,479.2,532.1,479.2,536z M467.4,614.6v-61.4H478v61.4H467.4z"/>
			<path class="st0" d="M493.5,573.3c0-7.9-0.2-14.2-0.5-20h9.5l0.5,10.5h0.2c4.3-7.5,11.1-11.9,20.6-11.9c14,0,24.5,12.6,24.5,31.2
				c0,22.1-12.7,33-26.3,33c-7.7,0-14.4-3.6-17.8-9.6H504v33.4h-10.4L493.5,573.3L493.5,573.3z M504,589.7c0,1.6,0.2,3.2,0.5,4.6
				c1.9,7.7,8.3,13.1,15.8,13.1c11.1,0,17.6-9.6,17.6-23.7c0-12.3-6.1-22.8-17.2-22.8c-7.2,0-13.9,5.5-15.9,13.8
				c-0.4,1.4-0.7,3-0.7,4.6V589.7z"/>
		</g>
	</g>
	<g>
		<g>
			<g>
				
					<linearGradient id="SVGID_1_" gradientUnits="userSpaceOnUse" x1="765.4423" y1="-240.0689" x2="864.7819" y2="-68.0074" gradientTransform="matrix(0.5 -0.866 -0.866 -0.5 -185.9589 954.7654)">
					<stop  offset="0" style="stop-color:#009444"/>
					<stop  offset="1" style="stop-color:#007E3E"/>
				</linearGradient>
				<path class="st3" d="M431.3,396.1c-0.8,1.4-2.6,1.8-3.9,1.1l0,0c-109.6-63.2-135.4-104.9-137.8-128.8c-1.6-15.3,6.6-22.7,6.9-23
					c3.6-3.3,3-0.9,4.1,0.2c1.1,1.2,0.9,3-0.2,4.1c-0.2,0.2-6.3,6-5,18.4c1.5,13.3,10.6,28.8,27.3,46.1c22.8,23.6,59,49.9,107.7,78
					C431.6,393,432.1,394.7,431.3,396.1L431.3,396.1z"/>
				
					<linearGradient id="SVGID_2_" gradientUnits="userSpaceOnUse" x1="719.9968" y1="-221.8098" x2="816.3845" y2="-54.8613" gradientTransform="matrix(0.5 -0.866 -0.866 -0.5 -185.9589 954.7654)">
					<stop  offset="0" style="stop-color:#009444"/>
					<stop  offset="1" style="stop-color:#007E3E"/>
				</linearGradient>
				<path class="st4" d="M424.4,408.1c-0.8,1.4-2.6,1.8-3.9,1.1l0,0c-66.8-38.6-123.8-61.6-169.5-80.1
					c-13.6-5.5-26.5-10.7-38.1-15.7c-1.5-0.6-2.1-2.3-1.5-3.8c0.6-1.5,2.3-2.1,3.8-1.5c11.5,5,24.4,10.2,38,15.7
					c45.9,18.5,103.1,41.6,170.3,80.4C424.7,404.9,425.2,406.7,424.4,408.1C424.4,408.1,424.4,408.1,424.4,408.1z"/>
				
					<linearGradient id="SVGID_3_" gradientUnits="userSpaceOnUse" x1="726.9608" y1="-229.8205" x2="774.1403" y2="-148.1032" gradientTransform="matrix(0.5 -0.866 -0.866 -0.5 -185.9589 954.7654)">
					<stop  offset="0" style="stop-color:#009444"/>
					<stop  offset="1" style="stop-color:#007E3E"/>
				</linearGradient>
				<path class="st5" d="M420.9,414.1c-0.8,1.4-2.6,1.8-3.9,1.1l0,0c-103.1-59.5-124.3-27.6-124.5-27.3c-0.8,1.3-2.6,1.8-3.9,1
					c-1.4-0.8-4.8,2.6-1-3.9c0.9-1.6,23.4-37.7,132.4,25.2C421.3,410.9,421.7,412.7,420.9,414.1
					C420.9,414.1,420.9,414.1,420.9,414.1z"/>
				
					<linearGradient id="SVGID_4_" gradientUnits="userSpaceOnUse" x1="793.9249" y1="-525.8711" x2="930.7268" y2="-762.8191" gradientTransform="matrix(0.5 -0.866 0.866 0.5 432.0398 1384.325)">
					<stop  offset="0" style="stop-color:#009444"/>
					<stop  offset="1" style="stop-color:#007E3E"/>
				</linearGradient>
				<path class="st6" d="M427.8,402.1c-0.8,1.4-2.6,1.8-3.9,1.1l0,0C321,343.7,247.2,295.6,210.5,263.9
					c-25.9-22.3-28.6-33.1-26.9-36.1c0.8-1.4,4.3,0.5,5.7,1.3c1.2,0.7,1.7,2.1,1.3,3.4c0.1,2.2,5.5,32.4,236.2,165.7
					C428.2,398.9,428.6,400.7,427.8,402.1C427.8,402.1,427.8,402.1,427.8,402.1z"/>
			</g>
			<g>
				<path class="st10" d="M187.8,231.6c-1.4-0.8-2.8-1.7-4.1-2.6c-1.3-0.9-2.5-1.9-3.7-2.9c-1.1-1-2.2-2.1-3.3-3.3
					c-1-1.1-1.9-2.3-2.8-3.6c-0.8-1.2-1.6-2.6-2.2-3.9c-0.6-1.4-1.2-2.8-1.6-4.2c-0.9-3-1.2-6.2-0.9-9.3c0.1-1.7,0.4-3.4,0.8-5
					c0.5-1.8,1.1-3.5,1.8-5.2c0.8-1.9,1.8-3.7,2.9-5.4c1.3-1.9,2.7-3.8,4.2-5.5c1.7-2,3.5-3.9,5.5-5.6c2.1-1.9,4.4-3.8,6.9-5.7
					c1.7-1.3,3.5-2.6,5.4-3.9c1.9-1.3,3.9-2.5,5.9-3.7c2-1.2,4.1-2.4,6.3-3.6c2.2-1.2,4.4-2.3,6.7-3.5c2.3-1.1,4.6-2.2,7-3.3
					c2.4-1.1,4.7-2.2,7.2-3.2c2.4-1.1,4.9-2.1,7.3-3.1c2.5-1,4.9-2,7.4-3c2.5-1,4.9-2,7.4-3c2.5-1,4.9-1.9,7.3-2.9
					c2.4-1,4.8-1.9,7.2-2.8c2.4-0.9,4.7-1.9,7.1-2.8c2.3-0.9,4.6-1.8,6.8-2.7c2.2-0.9,4.4-1.8,6.5-2.7c2.1-0.9,4.2-1.8,6.2-2.6
					c2-0.9,4-1.7,5.9-2.5c1.9-0.8,3.7-1.7,5.5-2.5c1.8-0.8,3.4-1.6,5.1-2.4c1.6-0.8,3.2-1.5,4.6-2.3c1.5-0.7,2.9-1.4,4.2-2.1
					c1.3-0.7,2.6-1.3,3.7-2c1.2-0.6,2.2-1.2,3.3-1.8c1-0.6,1.9-1.1,2.8-1.6c0.8-0.5,1.6-0.9,2.3-1.3c0.7-0.4,1.3-0.8,1.8-1.1
					c0.5-0.3,1-0.6,1.3-0.8s0.6-0.4,0.8-0.5s0.3-0.2,0.3-0.2s0,0.2,0,0.5s0,0.8,0,1.4c0,0.6-0.1,1.3-0.1,2.2s-0.1,1.8-0.2,2.9
					s-0.2,2.3-0.4,3.6c-0.2,1.3-0.4,2.7-0.7,4.2c-0.3,1.5-0.6,3-1,4.7c-0.4,1.6-0.8,3.3-1.3,5.1c-0.5,1.7-1.1,3.5-1.7,5.4
					s-1.4,3.7-2.2,5.6c-0.8,1.9-1.7,3.8-2.6,5.8c-1,2-2,3.9-3.1,5.9c-1.1,2-2.3,4-3.6,6c-1.3,2-2.6,4-4,6s-2.9,4-4.5,6
					s-3.2,4-4.9,5.9s-3.4,3.9-5.2,5.9c-1.8,1.9-3.6,3.9-5.5,5.8c-1.9,1.9-3.8,3.8-5.8,5.6s-4,3.7-6,5.5s-4.1,3.6-6.1,5.3
					s-4.1,3.5-6.2,5.1s-4.2,3.3-6.3,4.9c-2.4,1.8-4.7,3.5-6.9,5.1c-2.2,1.6-4.4,3.1-6.5,4.6c-2.1,1.4-4.1,2.8-6.1,4
					c-2,1.3-3.9,2.4-5.7,3.5c-1.9,1.1-3.7,2.1-5.4,2.9c-1.8,0.9-3.5,1.7-5.2,2.4c-1.7,0.7-3.3,1.3-4.9,1.9c-1.6,0.5-3.2,1-4.7,1.3
					c-1.5,0.3-3,0.6-4.6,0.8c-1.5,0.2-3,0.3-4.5,0.3c-1.5,0-2.9-0.1-4.4-0.2c-1.4-0.2-2.9-0.4-4.3-0.7c-1.4-0.3-2.8-0.7-4.2-1.2
					c-1.4-0.5-2.7-1-4.1-1.7C190.5,233.1,189.2,232.4,187.8,231.6z"/>
				<path class="st10" d="M290,386.3c1.7,0,3.4,0.2,5.1,0.4c1.6,0.2,3.2,0.6,4.8,1.1c1.5,0.5,3,1.1,4.3,1.8c2.8,1.5,5.2,3.5,7.1,6
					c1,1.4,1.9,2.8,2.7,4.3c0.8,1.7,1.5,3.5,2,5.3c0.6,2.1,1,4.2,1.3,6.3c0.3,2.3,0.5,4.6,0.4,6.9c0,2.4-0.2,4.8-0.5,7.2
					c-0.3,2.4-0.7,4.8-1.2,7.2s-1.2,4.7-1.9,7c-0.7,2.3-1.5,4.5-2.4,6.7s-1.8,4.2-2.8,6.2s-1.9,3.8-2.9,5.4s-1.9,3.2-2.8,4.6
					s-1.7,2.5-2.4,3.5c-0.7,1-1.2,1.7-1.6,2.2c-0.4,0.5-0.6,0.8-0.6,0.8s-0.2-0.2-0.5-0.7s-0.8-1.1-1.4-1.9s-1.3-1.9-2.2-3
					c-0.8-1.2-1.8-2.5-2.8-4s-2.2-3.1-3.3-4.8s-2.4-3.6-3.7-5.5s-2.6-3.9-3.9-6s-2.6-4.2-3.9-6.4s-2.5-4.4-3.7-6.6s-2.2-4.4-3.2-6.7
					c-0.9-2.1-1.8-4.4-2.4-6.6c-0.6-2.1-1.1-4.2-1.4-6.4c-0.3-2.4-0.4-4.8-0.2-7.1c0.2-2,0.6-3.9,1.4-5.8c0.7-1.6,1.6-3.1,2.8-4.5
					c1.1-1.3,2.4-2.4,3.9-3.3c1.5-0.9,3.1-1.7,4.7-2.2c1.8-0.6,3.6-1,5.4-1.2C286.1,386.4,288,386.3,290,386.3z"/>
				<path class="st10" d="M142.4,273.1c2.1-0.6,4.2-1.1,6.3-1.6c2.1-0.5,4.2-0.9,6.2-1.3c2.1-0.4,4.1-0.7,6.1-1c2-0.3,4-0.5,6-0.8
					c2-0.2,4-0.4,5.9-0.5c1.9-0.1,3.9-0.1,5.8-0.1c1.9,0,3.8,0.1,5.6,0.2c1.8,0.1,3.7,0.3,5.5,0.5c1.8,0.2,3.5,0.5,5.3,0.9
					c1.7,0.3,3.4,0.8,5.1,1.2c1.7,0.5,3.3,1,4.9,1.6c1.6,0.6,3.1,1.3,4.6,2c1.5,0.7,3,1.5,4.4,2.4c1.4,0.9,2.8,1.8,4.1,2.8
					c1.3,1,2.6,2.1,3.9,3.2c1.3,1.2,2.4,2.4,3.6,3.7c1.2,1.3,2.2,2.7,3.3,4.1c1,1.5,2,3,2.9,4.6c0.9,1.6,1.8,3.3,2.6,5.1
					c0.8,1.8,1.6,3.6,2.3,5.6c0.7,1.9,1.3,4,1.9,6.1c0.5,2,1,4,1.4,6.1c0.4,2.1,0.7,4.2,0.9,6.4c0.2,2.2,0.4,4.4,0.5,6.6
					c0.1,2.2,0.1,4.5,0,6.8c0,2.3-0.2,4.6-0.3,6.9c-0.2,2.3-0.4,4.7-0.7,7c-0.3,2.4-0.6,4.7-1,7.1c-0.4,2.4-0.8,4.8-1.3,7.2
					c-0.5,2.4-1,4.8-1.6,7.2c-0.6,2.4-1.2,4.8-1.8,7.2c-0.6,2.4-1.3,4.8-2,7.2c-0.7,2.4-1.4,4.7-2.2,7.1c-0.7,2.3-1.5,4.7-2.3,7
					c-0.8,2.3-1.6,4.6-2.4,6.8c-0.8,2.3-1.7,4.5-2.5,6.7c-0.8,2.2-1.7,4.4-2.6,6.5c-0.9,2.1-1.7,4.2-2.6,6.2c-0.9,2-1.7,4-2.6,6
					c-0.9,1.9-1.7,3.8-2.5,5.7c-0.8,1.8-1.7,3.6-2.5,5.4c-0.8,1.7-1.6,3.4-2.4,5c-0.8,1.6-1.5,3.1-2.3,4.6c-0.7,1.5-1.4,2.9-2.1,4.2
					c-0.7,1.3-1.3,2.6-1.9,3.7c-0.6,1.2-1.2,2.2-1.7,3.2c-0.5,1-1,1.9-1.5,2.7c-0.4,0.8-0.8,1.5-1.2,2.2c-0.3,0.6-0.6,1.2-0.9,1.6
					c-0.2,0.4-0.4,0.8-0.6,1c-0.1,0.2-0.2,0.3-0.2,0.3s-0.1-0.1-0.3-0.2s-0.5-0.3-1-0.6s-0.9-0.6-1.6-0.9c-0.6-0.4-1.3-0.8-2.1-1.3
					s-1.7-1-2.6-1.6c-1-0.6-2-1.3-3.1-2s-2.3-1.5-3.5-2.3c-1.2-0.8-2.5-1.7-3.9-2.6s-2.8-1.9-4.3-2.9s-3-2-4.6-3.1s-3.2-2.2-4.8-3.4
					s-3.3-2.4-5-3.7s-3.5-2.6-5.2-3.9c-1.8-1.3-3.5-2.7-5.4-4.1s-3.6-2.9-5.4-4.3s-3.7-3-5.5-4.5s-3.7-3.1-5.5-4.7
					c-1.8-1.6-3.7-3.2-5.5-4.9c-1.8-1.7-3.6-3.3-5.4-5.1s-3.6-3.4-5.3-5.2c-1.7-1.8-3.5-3.5-5.1-5.3s-3.3-3.6-4.9-5.5
					s-3.2-3.7-4.7-5.6c-1.5-1.9-3-3.8-4.4-5.7c-1.4-1.9-2.8-3.8-4.1-5.8s-2.6-3.9-3.8-5.8c-1.2-2-2.3-3.9-3.3-5.9s-2-4-2.9-5.9
					c-0.9-2-1.7-4-2.4-6c-0.7-2-1.4-4-1.9-6c-0.6-2.1-1-4.2-1.4-6.2c-0.4-2-0.6-4-0.8-5.9c-0.2-1.9-0.3-3.8-0.3-5.7
					c0-1.9,0.1-3.7,0.3-5.4c0.2-1.7,0.4-3.5,0.8-5.2c0.3-1.7,0.8-3.3,1.3-5c0.5-1.6,1.1-3.2,1.7-4.7c0.7-1.5,1.4-3,2.2-4.5
					c0.8-1.5,1.7-2.9,2.6-4.3c0.9-1.4,1.9-2.7,3-4c1.1-1.3,2.2-2.6,3.4-3.8c1.2-1.2,2.5-2.4,3.8-3.6c1.3-1.2,2.7-2.3,4.1-3.4
					c1.4-1.1,2.9-2.2,4.5-3.2c1.5-1,3.1-2,4.8-3c1.6-1,3.3-1.9,5.1-2.8c1.7-0.9,3.5-1.7,5.3-2.6c1.8-0.8,3.7-1.6,5.6-2.4
					c1.9-0.8,3.8-1.5,5.8-2.2c2-0.7,4-1.3,6-2C138.2,274.2,140.3,273.6,142.4,273.1z"/>
				<path class="st10" d="M298.3,247.5c-0.5-1.8-0.9-3.7-1.3-5.5c-0.3-1.8-0.6-3.6-0.8-5.4c-0.2-1.7-0.3-3.5-0.3-5.2
					c0-1.7,0.1-3.4,0.3-5.1c0.2-1.6,0.5-3.3,0.9-4.8c0.4-1.6,0.9-3.1,1.5-4.6c0.6-1.5,1.3-3,2.2-4.4c0.8-1.4,1.8-2.8,2.9-4.1
					c1.1-1.3,2.3-2.6,3.6-3.8c1.4-1.2,2.8-2.4,4.3-3.5c1.6-1.1,3.3-2.2,5.1-3.1c1.9-1,3.9-1.9,5.9-2.8c2-0.8,4.1-1.5,6.2-2.1
					c2.1-0.6,4.3-1.1,6.6-1.5c2.2-0.4,4.5-0.7,6.8-1c2.3-0.2,4.6-0.4,7-0.5c2.4-0.1,4.7-0.1,7.1,0s4.7,0.2,7.1,0.4s4.7,0.5,7,0.8
					c2.3,0.3,4.6,0.7,6.8,1.1s4.4,0.9,6.5,1.4c2.1,0.5,4.2,1,6.1,1.6s3.9,1.1,5.7,1.7c1.8,0.6,3.5,1.1,5.1,1.7
					c1.6,0.6,3.1,1.1,4.4,1.6s2.6,1,3.6,1.4c1.1,0.4,2,0.8,2.7,1.1s1.3,0.6,1.7,0.7c0.4,0.2,0.6,0.3,0.6,0.3s-0.1,0.2-0.3,0.5
					s-0.6,0.8-1,1.4c-0.4,0.6-1,1.3-1.6,2.2s-1.3,1.8-2.1,2.9c-0.8,1.1-1.7,2.3-2.7,3.5s-2,2.6-3.1,4.1s-2.3,3-3.5,4.6
					c-1.2,1.6-2.5,3.3-3.9,5c-1.4,1.7-2.8,3.5-4.2,5.3s-3,3.6-4.5,5.5s-3.1,3.7-4.8,5.6c-1.6,1.9-3.3,3.7-5,5.5
					c-1.7,1.8-3.4,3.6-5.2,5.4c-1.8,1.8-3.5,3.5-5.3,5.1s-3.6,3.2-5.5,4.7c-1.8,1.5-3.7,2.9-5.6,4.2s-3.8,2.5-5.6,3.5
					c-1.8,1-3.7,2-5.7,2.8c-2.1,0.9-4.4,1.6-6.6,2.2c-2,0.5-4,0.8-6.1,0.9c-1.9,0.1-3.7,0-5.6-0.2c-3.4-0.5-6.7-1.6-9.7-3.4
					c-1.5-0.9-2.8-1.9-4.1-3c-1.3-1.2-2.5-2.4-3.6-3.7c-1.2-1.4-2.2-2.9-3.2-4.4c-1-1.6-1.9-3.3-2.7-5c-0.8-1.7-1.6-3.6-2.3-5.4
					C299.5,251.5,298.9,249.5,298.3,247.5z"/>
			</g>
		</g>
		<g>
			<path class="st11" d="M438.8,460.3c-29.7-17.2-44.6-47.2-33.1-67s44.8-22,74.6-4.8C510,405.6,657,538.4,657,538.4
				S468.5,477.4,438.8,460.3z"/>
			<g>
				<path class="st12" d="M636,523.5c-0.6,1.9-1.5,3.8-2.5,5.5c-0.3,0.5-0.5,1-0.8,1.4c-0.3-0.1-0.7-0.2-1-0.3
					c0.3-0.6,0.6-1.1,0.9-1.7C633.5,526.7,634.7,525,636,523.5z"/>
				<path class="st12" d="M621.5,506.6c0.2,0.1,0.3,0.3,0.5,0.4c-0.4,0.8-0.7,1.6-1.1,2.4c-0.7,1.4-1.4,2.7-2.2,4
					c-0.8,1.3-1.6,2.6-2.4,3.9c-0.8,1.3-1.8,2.5-2.8,3.7c0.5-1.5,1-2.9,1.7-4.3c0.6-1.4,1.4-2.7,2.1-4.1c0.8-1.3,1.6-2.6,2.5-3.9
					C620.4,508.1,621,507.4,621.5,506.6z"/>
				<path class="st12" d="M605.7,492.6c0.2,0.2,0.4,0.4,0.6,0.5c-0.6,1.2-1.2,2.5-1.8,3.7c-1.1,2.1-2.3,4.2-3.5,6.3
					c-1.2,2.1-2.4,4.1-3.7,6.1c-1.3,2-2.6,4-4.1,5.9c0.8-2.3,1.7-4.5,2.8-6.7c1-2.2,2.2-4.3,3.4-6.4c1.2-2.1,2.5-4.1,3.8-6.1
					C604,494.9,604.8,493.7,605.7,492.6z"/>
				<path class="st12" d="M582.6,491.7c-1.2,3.1-2.7,6.1-4.1,9.1c-1.4,3-3,5.9-4.5,8.9c-0.2,0.3-0.3,0.6-0.5,1
					c-0.7-0.2-1.5-0.5-2.2-0.7c0.2-0.4,0.4-0.9,0.7-1.3c1.6-2.9,3.2-5.8,4.9-8.7C578.6,497.1,580.5,494.4,582.6,491.7z"/>
				<path class="st12" d="M573.8,464.7c0.4,0.3,0.8,0.7,1.2,1c-0.7,1.4-1.5,2.8-2.3,4.1c-2.1,3.8-4.2,7.5-6.4,11.2
					c-2.2,3.7-4.3,7.4-6.6,11.1c-2.2,3.7-4.5,7.3-6.9,10.9c1.5-4.1,3.2-8,5.1-11.9c1.9-3.9,3.9-7.7,6.1-11.4
					c2.2-3.7,4.4-7.4,6.9-10.9C571.9,467.4,572.8,466,573.8,464.7z"/>
				<path class="st12" d="M555.8,455.9c-2.3,4.9-4.8,9.6-7.2,14.3c-2.5,4.7-5,9.4-7.5,14.1c-1.3,2.3-2.6,4.7-3.8,7
					c-1.1,2-2.1,3.9-3.2,5.9c-0.8-0.3-1.6-0.6-2.4-0.8c1-2.2,2-4.3,3-6.4c1.2-2.4,2.4-4.8,3.7-7.1c2.6-4.7,5.2-9.3,8.2-13.8
					C549.3,464.4,552.4,460,555.8,455.9z"/>
				<path class="st12" d="M541.4,436.7c0.9,0.7,1.7,1.5,2.6,2.2c-0.8,1.2-1.5,2.4-2.3,3.6c-3.4,5.4-6.9,10.8-10.3,16.2
					c-3.5,5.4-6.9,10.8-10.6,16.1c2.4-6,5.2-11.8,8.3-17.4c3-5.7,6.3-11.2,9.7-16.7C539.7,439.3,540.5,438,541.4,436.7z"/>
				<path class="st12" d="M518.2,437.8c-3.3,6.8-6.7,13.5-10.1,20.2c-3.4,6.7-6.8,13.4-10.2,20.1c-0.9,1.8-1.8,3.5-2.7,5.3
					c-1.2-0.4-2.4-0.9-3.6-1.3c0.9-1.9,1.8-3.8,2.8-5.7c3.4-6.7,7.1-13.3,11-19.8C509.4,450.1,513.6,443.8,518.2,437.8z"/>
				<path class="st12" d="M509,409.8c1.1,0.9,2.2,1.8,3.3,2.7c-4.4,6.6-8.7,13.2-13,19.8c-4.7,7.2-9.4,14.5-14.3,21.7
					c3.4-8,7.2-15.8,11.5-23.4C500.3,423.4,504.5,416.5,509,409.8z"/>
				<path class="st12" d="M487.8,408.3c-4.4,8.7-9,17.3-13.5,25.9c-4.5,8.6-8.9,17.2-13.3,25.9c-1.4,2.8-2.8,5.6-4.2,8.5
					c-1.5-0.6-2.8-1.2-4.2-1.7c1.4-3,2.8-5.9,4.3-8.8c4.4-8.7,9.1-17.3,14.3-25.6C476.2,424.1,481.8,416,487.8,408.3z"/>
				<path class="st12" d="M474.9,385.6c1.4,0.7,2.8,1.4,4.3,2.2c-2.5,3.9-5,7.8-7.5,11.7c-5.6,8.9-11.2,17.8-16.7,26.8
					c-5.5,9-10.9,18.1-16.5,27.1c3.8-9.9,8.2-19.6,13.1-29c4.9-9.4,10.2-18.6,15.9-27.6C469.9,393.1,472.4,389.3,474.9,385.6z"/>
				<path class="st12" d="M457.5,379.1c-4.5,8.7-9.2,17.2-13.8,25.8c-4.9,9.1-9.7,18.1-14.5,27.2c-2.6,5-5.2,10-7.8,15.1
					c-1.3-1.3-2.6-2.6-3.8-3.9c2.2-4.6,4.5-9.2,6.8-13.7c4.8-9.2,10-18.1,15.6-26.8c5.2-8.2,10.9-16.1,17-23.7L457.5,379.1z"/>
				<path class="st12" d="M424.8,392c-3.3,7.9-6.9,15.5-10.5,23c-2.3,4.7-4.5,9.4-6.8,14.1c-1.1-2.1-2-4.2-2.9-6.4
					c1.8-3.3,3.7-6.6,5.7-9.9C414.7,405.6,419.5,398.6,424.8,392z"/>
			</g>
		</g>
		<path class="st13" d="M457.5,379.1c-0.1,0-0.2-0.1-0.4-0.1"/>
		<g>
			<circle class="st0" cx="477.5" cy="412.3" r="6.2"/>
			<path class="st0" d="M460.9,412.3v10.4c0,5.7-4.6,10.4-10.4,10.4c-5.7,0-10.4-4.6-10.4-10.4v-10.4H460.9z"/>
			<circle class="st0" cx="423.6" cy="412.3" r="6.2"/>
		</g>
	</g>
</g>
</svg>
