<?xml version="1.0" encoding="utf-8"?>
<!-- Generator: Adobe Illustrator 26.5.0, SVG Export Plug-In . SVG Version: 6.00 Build 0)  -->
<svg version="1.1" id="Layer_1" xmlns="http://www.w3.org/2000/svg" xmlns:xlink="http://www.w3.org/1999/xlink" x="0px" y="0px"
	 viewBox="0 0 2521 2911" style="enable-background:new 0 0 2521 2911;" xml:space="preserve">
<style type="text/css">
	.st0{fill:#ED7D15;}
	.st1{fill:#E6B35A;}
	.st2{opacity:0.94;}
	.st3{fill:#FFFFFF;}
	.st4{clip-path:url(#SVGID_00000097483061642046128170000001206429364757486998_);}
	.st5{opacity:0.4;fill:#AC5D12;enable-background:new    ;}
	.st6{fill:none;}
	.st7{opacity:0.6;fill:url(#SVGID_00000000941658584484805780000008055815121062036096_);enable-background:new    ;}
	.st8{fill:#AC5D12;}
</style>
<g id="Layer_1_00000085961604928139971210000002851209213260591748_">
	<polygon class="st0" points="1260.2,119.4 100.5,789.1 100.5,2128.8 1260.2,2798.5 2419.8,2128.8 2419.8,789.1 	"/>
	<g id="Layer_2_00000017500550631266658800000009319995437515781548_">
	</g>
	<path class="st1" d="M1282.5,2034.1c1-1,2.1-2.1,3.1-3.1h-1C1284.2,2032,1283.5,2033.1,1282.5,2034.1z"/>
	<g class="st2">
		<g>
			<path class="st3" d="M867.1,1969.9c0-36-1-65.2-2.1-91.9h43.2l2.1,48.4h1c19.9-34.3,51.1-54.5,94.3-54.5
				c64.1,0,112.5,57.6,112.5,143.1c0,101.2-58.3,151.3-120.7,151.3c-35,0-65.9-16.1-81.6-44.3h-1v153h-47.7V1969.9z M915.1,2045.1
				c0,7.5,1,14.4,2.1,20.9c8.9,35.3,37.7,60,72.4,60c51.1,0,80.6-44.3,80.6-108.8c0-56.6-28.1-104.6-78.9-104.6
				c-32.9,0-63.8,25-73.1,63.5c-1.7,6.5-3.4,14.1-3.4,20.9v48H915.1z"/>
			<path class="st3" d="M1168.6,2159.7V1878h48.4v281.7H1168.6z"/>
			<path class="st3" d="M1285.9,1954.2c0-29.2-0.7-52.8-2.1-76.2h42.9l2.7,46.7h1c13-26.8,43.9-52.8,87.8-52.8
				c36.7,0,94,23.3,94,119.7v168.1h-48.4v-162.3c0-45.3-15.8-83.4-61.4-83.4c-31.9,0-56.6,24-64.8,52.5c-2.1,6.5-3.4,15.1-3.4,24
				V2160h-48.4V1954.2z"/>
			<path class="st3" d="M1573,2107.2c14.4,9.9,39.4,20.2,63.8,20.2c35,0,51.4-18.5,51.4-41.9c0-24.4-13.7-37.7-49.4-51.8
				c-47.7-18.2-70.3-46-70.3-79.6c0-45.3,34.6-82.7,91.6-82.7c26.8,0,50.4,8.2,65.2,17.5l-12,37.4c-10.3-6.9-29.5-16.1-54.2-16.1
				c-28.5,0-44.6,17.5-44.6,38.4c0,23.3,15.8,33.6,50.4,47.7c46,18.5,69.6,43.2,69.6,85.1c0,49.4-36.4,84.4-99.5,84.4
				c-29.2,0-55.9-7.5-74.8-19.2L1573,2107.2z"/>
		</g>
	</g>
	<g>
		<g>
			<defs>
				<polygon id="SVGID_1_" points="2419.8,669.7 1467,119.4 1260.2,0 1053.3,119.4 100.5,669.7 0,727.7 0,2183.3 100.5,2241.3 
					1065.3,2798.5 1260.5,2911 1455.7,2798.5 2420.5,2241.3 2521,2183.3 2521,727.7 				"/>
			</defs>
			<clipPath id="SVGID_00000060710724682957445690000007446119740272419745_">
				<use xlink:href="#SVGID_1_"  style="overflow:visible;"/>
			</clipPath>
			<g style="clip-path:url(#SVGID_00000060710724682957445690000007446119740272419745_);">
				<path class="st5" d="M2461.3,1842.7c1-52.1,2.7-104,4.5-156.1c-28.8-3.1-53.8-6.5-74.8-11c-25-5.5-41.2-11.3-50.1-17.5
					c-8.6-6.2-10.3-12.4-5.5-18.9c4.5-6.2,15.4-12.7,32.2-19.2c17.1-6.5,40.5-12.7,71-19.2c9.6-2.1,19.6-3.8,30.2-5.5
					c1.4-37.1,2.4-74.4,3.1-111.5c-66.9,7.2-130,14.8-188.3,23.3c-79.2,11.3-152.6,24-217.5,37.1c-59.3,12-113.5,25-161.9,38.4
					c-10.3,3.1-20.2,5.8-29.8,8.9c-9.6,2.7-18.5,5.8-27.1,8.6c-8.6,2.7-16.8,5.5-24.7,8.6c-7.9,2.7-15.4,5.5-22.3,8.2l0,0
					l-612.6,228.5l1160-2.7l0,0C2384.1,1843.3,2422.2,1843,2461.3,1842.7z"/>
				<g>
					<path class="st6" d="M1431.3,671.1c-25.7-37.1-58.7-65.9-96.4-83.7c-27.1-12.7-55.9-19.6-85.7-19.6c-9.9,0-19.9,0.7-29.8,2.4
						c-37.4,5.8-71,21.6-99.5,44.3c-26.4,21.3-48.4,48.4-65.2,78.6c-15.8,28.5-26.8,59.7-33.3,92.6c-6.2,30.9-7.9,63.1-5.1,96.1
						c2.7,31.2,9.3,60.7,19.2,87.5c9.6,26.1,22.3,50.4,37.4,71.7c15.1,21.3,32.6,40.1,52.5,55.6c20.2,15.8,42.9,28.1,67.9,36.4
						c20.2,6.5,40.5,9.6,60.7,9.6c5.8,0,12-0.3,17.8-0.7c27.4-2.4,54.5-11,79.9-25c27.1-15.1,52.5-37.1,73.7-64.8
						c23-30.2,41.2-67.2,52.1-110.8c11.3-46.3,13-94,5.1-140.3C1475.2,752.4,1457.4,708.1,1431.3,671.1z"/>
					
						<linearGradient id="SVGID_00000056421456023032872360000011957919437901481608_" gradientUnits="userSpaceOnUse" x1="687.5267" y1="-135.8873" x2="1905.337" y2="-135.8873" gradientTransform="matrix(1 0 0 -1 0 852)">
						<stop  offset="0" style="stop-color:#FFFFFF"/>
						<stop  offset="1" style="stop-color:#E6E7E8"/>
					</linearGradient>
					
						<path style="opacity:0.6;fill:url(#SVGID_00000056421456023032872360000011957919437901481608_);enable-background:new    ;" d="
						M1856.3,564.7c-64.5-169.1-182.1-299.2-329.6-372.9c-83.7-41.9-170.8-61.8-256.2-61.8c-51.1,0-101.9,7.2-150.9,21.3
						c-108.4,31.2-201.7,94.3-274.4,179.8c-59,69-98.8,146.5-123.5,223.3c-20.9,64.8-31.6,130.7-33.6,193.8
						c-2.1,55.2,2.1,110.5,11.7,163c8.9,47.7,22.3,95.4,40.5,141.3c3.8,9.9,7.9,19.6,12.3,29.2c4.1,9.3,8.6,18.5,13,27.4
						c4.5,8.9,8.9,17.8,13.7,26.1c4.8,8.6,9.6,16.8,14.4,25l0,0l394.1,685.5l503.9-512.2h-0.3c17.5-15.8,34.6-32.9,50.8-51.5
						c17.1-19.6,33.3-40.5,48.4-63.1c15.8-23.7,30.5-48.7,43.6-75.8c13.7-28.1,25.7-58,36-89.2
						C1921.1,895.8,1917,724.6,1856.3,564.7z M1478,940.4c-10.6,43.6-29.2,80.6-52.1,110.8c-21.3,28.1-46.6,49.7-73.7,64.8
						c-25.4,14.1-52.5,22.6-79.9,25c-5.8,0.7-11.7,0.7-17.8,0.7c-20.2,0-40.5-3.1-60.7-9.6c-25-7.9-47.7-20.6-67.9-36.4
						c-19.9-15.4-37.4-34.3-52.5-55.6c-15.1-21.3-27.8-45.3-37.4-71.7c-9.6-26.8-16.5-55.9-19.2-87.5c-2.7-32.6-1-65.2,5.1-96.1
						c6.5-32.6,17.5-64.2,33.3-92.6c16.8-30.5,38.8-57.3,65.2-78.6c28.5-22.6,62.1-38.8,99.5-44.3c9.9-1.4,19.9-2.4,29.8-2.4
						c29.5,0,58.3,6.9,85.7,19.6c37.4,17.8,70.3,46.7,96.4,83.7c25.7,37.1,43.6,81.3,51.8,129C1491,846,1489.3,894.1,1478,940.4z"/>
				</g>
			</g>
		</g>
	</g>
	<path class="st8" d="M2419.8,669.7L1467,119.4L1260.2,0l-206.8,119.4L100.5,669.7L0,727.7v1455.7l100.5,58l964.8,557.2l195.2,112.5
		l195.2-112.5l964.8-557.2l100.5-58V727.7L2419.8,669.7z M2419.8,2128.8l-1159.7,669.7L100.5,2128.8V789.1l1159.7-669.7l0,0
		l1159.7,669.7V2128.8z"/>
</g>
</svg>
