<svg id="Layer_1" data-name="Layer 1" xmlns="http://www.w3.org/2000/svg" xmlns:xlink="http://www.w3.org/1999/xlink" viewBox="0 0 735 852"><defs><style>.cls-1{fill:#f9ecc6;}.cls-2{opacity:0.25;fill:url(#linear-gradient);}.cls-3{fill:#484546;}.cls-4{fill:#3e3221;}</style><linearGradient id="linear-gradient" x1="366.13" y1="-120.6" x2="367.43" y2="342.93" gradientUnits="userSpaceOnUse"><stop offset="0" stop-color="#fff" stop-opacity="0.83"/><stop offset="0.56" stop-color="#fff" stop-opacity="0.37"/><stop offset="1" stop-color="#fff" stop-opacity="0"/></linearGradient></defs><title>pipe</title><path class="cls-1" d="M366.89,342.23c-128,0-238.11-56.75-287.51-138.27l-50,28.87V623.26L367.49,818.48,705.61,623.26V232.83l-50.9-29.39C605.46,285.24,495.12,342.23,366.89,342.23Z"/><path class="cls-1" d="M367.49,37.62,79.38,204c49.4,81.52,159.55,138.27,287.51,138.27,128.23,0,238.57-57,287.82-138.79L367.49,37.62Z"/><path class="cls-2" d="M367.49,37.62,79.38,204c49.4,81.52,159.55,138.27,287.51,138.27,128.23,0,238.57-57,287.82-138.79L367.49,37.62Z"/><polygon class="cls-3" points="734.91 639.18 734.91 214.92 705.61 198.01 427.81 37.62 367.5 2.8 367.5 2.8 427.81 37.62 705.61 198.01 734.91 214.92 734.91 639.18 705.61 656.09 424.35 818.48 367.5 851.3 367.5 851.3 424.35 818.48 705.61 656.09 734.91 639.18"/><polygon class="cls-3" points="29.37 232.83 79.38 203.96 367.49 37.62 367.49 37.62 29.37 232.83 29.37 623.26 367.49 818.48 367.49 818.48 29.37 623.26 29.37 232.83"/><path class="cls-4" d="M705.61,656.09l29.3-16.91V214.92L705.61,198,427.81,37.62,367.5,2.8h0L307.19,37.62,29.37,198,.09,214.92V639.18l29.28,16.9,281.28,162.4L367.5,851.3h0l56.85-32.82Zm0-423.26V623.26L367.49,818.48h0L29.37,623.26V232.83L367.49,37.62h0L654.71,203.44Z"/><g id="layer1"><path id="path4083" class="cls-4" d="M521.11,603.14a5.22,5.22,0,0,1,.87-2.71c.75-1,3.69-9.7,10.91-32.28l1.84-5.78-2,1.35c-3,2-3.62.24-.83-2.14a41.32,41.32,0,0,0,4.81-5.21c2.12-2.76,3.18-3.16,8.24-3.07s6,.44,7.19,3.17,1.12,4-1.74,13.65c-3.62,12.19-3.49,14.76.63,12.52,6.23-3.39,7.86-5.8,12.08-17.83,3.07-8.74,4.69-12,5.95-12,2.37,0,2.27.68-2.22,14.64-4.13,12.87-4.07,15.3.35,13.22,3.15-1.49,14.46-15.77,18-22.74,1.7-3.33,3.11-4.91,4-4.48s3.48,0,6-.8c9-2.87,12.25,4.31,7.2,16.08-3,7-3.53,12.83-1.31,14.63,2.75,2.21,9.34-4.34,10.55-10.49,2.46-12.45,8.07-20.06,14.79-20.06,5.7,0,8.27,7,5.23,14.32-1.64,4-7.36,9-12.48,11-4.16,1.64-4.41,2.43-1.74,5.43,2.45,2.75,7,1.79,14.82-3.09,5.85-3.66,7.3-3.09,3.47,1.36-6.28,7.29-15.2,10.38-19.61,6.8a10.12,10.12,0,0,1-3-4.41l-.63-2.47-2.79,2.47a36.32,36.32,0,0,1-6.19,4.22c-3.32,1.72-3.44,1.68-5.89-1.93-3.35-4.93-3.23-10.25.41-19.21,4.75-11.68,3.78-13.79-4.2-9.1-5,2.93-5.34,3.44-8,11.82-1.51,4.81-4.86,14.32-7.46,21.13-3.67,9.62-5.15,12.38-6.66,12.38a1.87,1.87,0,0,1-2-1.89c0-2,1.78-6.76,2.91-7.77s7.68-20.53,7-20.5c-.34,0-2.73,2.7-5.31,6-5.35,6.77-9.28,8.48-12.85,5.58-2.19-1.78-2.59-1.75-5.55.5-5.9,4.46-13.42,2.37-13.42-3.73,0-1.3,1.54-6.14,3.41-10.75,3.53-8.7,4.29-13.82,2.19-14.81-1.81-.85-4.85.9-7.14,4.11-1.87,2.62-8,19.24-9.67,26.39-1.84,7.69-6.68,18.11-8.41,18.11a1.69,1.69,0,0,1-1.79-1.57Zm98.42-30a28.69,28.69,0,0,0,7-5c3.08-3,3.65-4.22,3.41-7.36s-.77-3.83-3-4.16q-5.65-.79-9.32,8.56c-1.82,4.67-2.68,9.34-1.71,9.34a34.09,34.09,0,0,0,3.65-1.4ZM334.2,599.55a10.36,10.36,0,0,1,1.34-3.93,127.84,127.84,0,0,0,4.8-13.85c1.91-6.31,4.15-13.49,5-16,1.92-5.65,1.92-5.67-.42-4.91-2.92,1-2.36-.2,1.74-3.57,3-2.42,4.76-3,9.06-2.79,3,.13,5.89.63,6.53,1.13,1.91,1.46,1.34,6.11-1.75,14.22C357,579.13,356.7,583,359.61,583c2.68,0,8.66-7.48,8.66-10.83,0-7,9.62-19.35,15.12-19.35.87,0,2.95,1.7,4.63,3.77s3.19,3.25,3.37,2.59a18.64,18.64,0,0,1,1.68-3.48c1-1.74,1.63-1.95,2.5-.88s.59,2.93-1.25,7.93c-3.46,9.36-5.27,18.73-3.94,20.38,2.92,3.63,12-6.7,19.94-22.77,2.72-5.48,5.32-10,5.78-10,1.12,0,1.07.86-.23,3.87-.87,2-.66,3.42,1,7.19,4.77,10.51,4.33,15.44-2,22-3.46,3.61-6.29,4.07-7.18,1.18-1.53-4.94,2.17-8.79,4.19-4.36.83,1.83,1.17,1.5,2.48-2.37a28.42,28.42,0,0,0,1.52-6.77c0-3-2-9.87-2.82-9.87-.38,0-1.62,2.31-2.76,5.13-7,17.25-18.18,26.34-22.33,18.11-.92-1.83-1.81-3.55-2-3.84s-1.55,1-3.06,2.77a12.9,12.9,0,0,1-6.08,3.93c-2.79.55-3.76.08-6.13-3L368,580.67l-3.49,3.57c-4.09,4.19-6.21,4.46-8.88,1.15s-2.44-7.54,1.13-17.15c3.48-9.35,3-11.45-1.9-9.14-3.37,1.58-4.26,3.48-10.34,22.07-5.7,17.41-6.77,19.89-8.61,19.91a1.62,1.62,0,0,1-1.7-1.53Zm49.09-21.62c3.79-5.5,5.57-11.43,4.71-15.75-1.88-9.54-9.48-7-14.26,4.74-1.88,4.62-2.11,14.39-.36,15.26C377.1,584,379.9,582.84,383.29,577.93Zm-284,15.94c-3.43-1.35-6.23-4.4-8.06-8.8l-1.4-3.34-3.88,3.86c-5.67,5.66-6.75,3-1.8-4.41,4.22-6.34,6.72-11.58,6.73-14.14,0-3.07,4.68-13.71,7.91-18,4-5.4,9.32-9.46,12.36-9.47,2.85,0,8,6.2,8,9.68,0,2.54-5.11,9.63-6.94,9.63-2,0-2-3.89.1-6.6,1.43-1.89,2-3.66,1.55-5.26-1.36-5.28-6.18-4.17-10.91,2.51-8.43,11.9-11.09,31.55-5.06,37.31,4.74,4.52,18.2,1,20.2-5.26.49-1.53,1.41-4.53,2.06-6.68,1.47-4.88,6.41-11.46,10.65-14.18,2.59-1.66,3.7-1.8,5.65-.7,2.19,1.24,2.37,1.89,1.92,6.91-.58,6.35-3.14,9.67-10.7,13.84-4.71,2.6-5.54,4.26-3.45,6.85,1.94,2.4,6,1.64,10.56-2,5.42-4.31,7.19-6.86,8.64-12.48,1.41-5.46,6.42-12.44,10.19-14.22,5.49-2.59,9.93,5.1,5.86,10.14-1.84,2.29-3.67,1.25-3-1.74a6.71,6.71,0,0,0-.33-3.72c-1.52-3-5.71.85-8.26,7.65-2.69,7.16-2.88,9.15-1.27,13.52,1.45,4,4.3,4,10.85,0,7.15-4.29,8.72-6.26,12.46-15.59,3.1-7.75,5.05-10.4,6.4-8.73.32.39-1.23,5.28-3.45,10.85s-4,11.89-4,14.05c0,3.81.1,3.89,3.65,3.37a20.58,20.58,0,0,0,5.36-1.46c2.46-1.34,2.14,1.37-.37,3-3.74,2.49-8.84,1.69-11.23-1.75L164,585.42l-4.82,3c-6.51,4.05-11.76,4-15.13-.2-2.46-3.05-2.66-3.1-4.45-1.09-4.78,5.37-14.67,7-18.1,3l-2.1-2.46-5.13,3.2c-5.74,3.57-10.84,4.58-15,3Zm28.48-17.72a39.45,39.45,0,0,0,5.18-5.73c1.73-2.6,2.33-6.76,1-6.76-1.58,0-5.33,4.07-8.07,8.76-4.46,7.63-3.78,9,1.92,3.73ZM266.3,589c-1.74-1.32-3.16-3-3.16-3.68s-1.13-2.57-2.5-4.15c-2.41-2.77-2.43-2.92-.62-4.13a7.8,7.8,0,0,0,2.46-4.61A24.89,24.89,0,0,1,271,558.07c3.27-2.69,4.45-3.07,6.6-2.14s2.69,2.05,2.94,5.14c.26,3.4-.32,4.73-3.74,8.65a38.93,38.93,0,0,1-7.33,6.56c-4.09,2.41-4.7,3.6-3.38,6.65,4.06,9.42,13.37,2.57,24.55-18.1,5.42-10,7.18-11.78,6.34-6.34a8.87,8.87,0,0,0,1.32,6.16,21.48,21.48,0,0,1,2.45,7c.34,2.26.9,4.07,1.24,4,1-.13,9.87-14.16,9.87-15.56a1.15,1.15,0,0,1,1-1.26c.54,0,2.05-3,3.35-6.64,1.5-4.21,3-6.64,4-6.64,1.61,0,1.56,2.2-.18,7.82-.54,1.73-.13,1.9,2.92,1.19,5-1.16,4.42.93-1.14,4.16-4.37,2.54-4.84,3.27-7.3,11.37-3.71,12.17-4.29,16.51-2.22,16.51a11.51,11.51,0,0,0,4.51-1.84c3.49-2.24,3.73-.78.49,3-2.65,3.08-7.12,3.68-8.42,1.12-1.42-2.77-1-9.09,1.05-15.5,1.06-3.35,1.61-6,1.22-6-.8.08-5.67,7.52-10,15.27-5.24,9.38-9.33,10.68-12.18,3.85-1.33-3.2-1.29-3.65.59-6,1.68-2.08,2.28-2.25,3.52-1s1.27,1.77-.55,3.59c-2.38,2.4-2.59,3.48-.67,3.48.75,0,2.51-1.67,3.89-3.71,3.11-4.59,3.51-12.91.77-16-1.64-1.85-2-1.47-6.8,6.42-6,10-13.91,18.11-17.58,18.11a12,12,0,0,1-5.75-2.4Zm8.76-22.71c1.48-1.71,2.68-3.79,2.68-4.61,0-2-3.46-3.3-5.31-2-2.24,1.55-6.37,9-6.37,11.47,0,2.1.16,2.11,3.16.23a31.44,31.44,0,0,0,5.84-5.08Zm-59.62,21.89c0-1.1,1.56-6.08,3.46-11.05,3.45-9,5.15-15.91,3.92-15.91-.77,0-7.16,4.23-9.53,6.31-3,2.64-3.27-.43-.29-3.41,4.45-4.42,10.57-7,12.91-5.48,1.36.91,2.76.89,4.8-.07,7.75-3.62,10.77,2.91,7.11,15.4-1.16,3.94-2.33,8-2.59,9.12-.57,2.33,2.47,4.12,3.93,2.31a3.53,3.53,0,0,1,2.51-1.2c1,0,.64,1-1.28,3.08-3.63,4-7.53,3.57-8.78-.87-.69-2.46-.31-5,1.69-11.18,4.11-12.73,3.25-17.34-2.46-13.2-2.35,1.71-3.85,4.63-6.69,13.07-2,6-3.9,11.82-4.21,13-.71,2.73-4.5,2.82-4.5.11Zm276.32-3c-2.47-3.06-2.26-7.85.82-19.17,2.07-7.63,2.37-9.95,1.42-11.12s-1.95-1-4.81.91c-3.36,2.23-3.86,3.32-7,15.34-3.5,13.27-5.12,16.83-6.75,14.77-.56-.71.18-5.29,1.94-12,3.32-12.71,3.18-16.12-.27-6.64a79.37,79.37,0,0,1-6.48,13c-3.67,5.73-4.43,6.34-7.91,6.34s-3.91-.34-4.63-3.79-1-3.58-2.22-2.07c-5.3,6.44-9.77,7.49-12.2,2.88-1.69-3.2-1.23-11,.92-15.54.82-1.75.81-2.45-.07-2.84s.06-2.51,2.19-6c1.84-3,3.35-5.95,3.35-6.57s.71-1.11,1.57-1.11c1.93,0,1.44,2.9-2.62,15.48-3.19,9.94-3.56,14.1-1.32,15.17s6.76-2.24,9.48-6.8c1.29-2.16,3.57-8.16,5.06-13.32,2.9-10,3.35-10.86,5.12-9.5.82.62.06,4.73-2.7,14.56-2.11,7.53-3.6,14.17-3.32,14.75,1,2.07,4,1,6.61-2.4,1.47-1.91,4.95-8.83,7.73-15.39,5-11.7,7.66-14.9,9.49-11.23.62,1.24,1.31,1.26,3.33.12,3.26-1.84,6.61-1.84,8.1,0,1.75,2.17,1.41,9.83-.78,17.55-2.56,9-2.54,12.39.07,12.39,2.29,0,5.92-2.13,7-4.1.42-.78.72-.28.73,1.2,0,5.69-8.41,9.36-11.81,5.13Zm156.87.43c0-2.85,1.83-5,3.53-4.25s1.69,4.78-.2,5.69c-2.52,1.2-3.33.85-3.33-1.44Zm-394.38-20c1.19-1.57,2-3.58,1.87-4.46a1.9,1.9,0,0,1,1.42-2.06c2.65-.72,2.07,3-1,6.37-3.45,3.77-5.14,3.87-2.32.15Zm-76.78-15.9c0-2.14,2.34-3.57,3.9-2.38.76.59.74,1.3-.08,2.53-1.51,2.26-3.82,2.17-3.82-.15Zm392.61-6.17c-.58-1.87,1.86-5.26,3.78-5.26,1.47,0,.8,5.77-.75,6.51C570.93,545.85,570.77,545.79,570.08,543.57Z"/><g id="flowRoot3914"><path id="path4408" class="cls-4" d="M184.27,323.83q0,22.05-14.16,37.67-14,15.44-34,15.44T102,361.5q-14.16-15.62-14.16-37.67T102,286.15q14.17-15.61,34.16-15.62t34,15.62q14.16,15.44,14.16,37.68m-21,0a30,30,0,0,0-8-21.14q-8-8.82-19.17-8.82-11.33,0-19.33,8.82Q109,311.33,109,323.83A30.38,30.38,0,0,0,117,345q8,8.82,19.16,8.82T155.28,345a30.37,30.37,0,0,0,8-21.13m61.32,56.05-126,45a23.46,23.46,0,0,1-6.83,1.65A8.85,8.85,0,0,1,85,423.07a13.06,13.06,0,0,1-3-8.82,11.44,11.44,0,0,1,2.33-7q1.67-2.38,7.83-4.59l126-45a23.44,23.44,0,0,1,6.84-1.65,8.4,8.4,0,0,1,6.83,3.67,12.55,12.55,0,0,1,3,8.46,11.62,11.62,0,0,1-2.34,7.16q-1.66,2.4-7.83,4.6m3,79.21q0,22.05-14.16,37.67-14.16,15.45-34.16,15.44t-34.16-15.62Q131,481,131,459.09q0-22.05,14.16-37.68t34.16-15.62q20,0,34.16,15.62,14.16,15.45,14.16,37.68m-21.16,0a30,30,0,0,0-8-21.14q-8-8.82-19.16-8.82T160.11,438a30,30,0,0,0-8,21.14,30.38,30.38,0,0,0,8,21.13q8,8.64,19.16,8.64t19.16-8.64a30.38,30.38,0,0,0,8-21.13"/><path id="path4410" class="cls-4" d="M398.72,399.36,288.08,331.73q-8.34-5.14-11.17-9.19a18.42,18.42,0,0,1-2.66-10.29,19.57,19.57,0,0,1,5.16-13.6,15.94,15.94,0,0,1,12.17-5.7q4.34,0,13.33,5.33L469.7,399.36,304.91,500.44q-9,5.52-13.33,5.51a16,16,0,0,1-12.17-5.69,19.83,19.83,0,0,1-5.16-13.79,18.42,18.42,0,0,1,2.66-10.29q2.83-4,11.17-9.19l110.64-67.63"/><path id="path4412" class="cls-4" d="M593.51,323.83q0,22.05-14.17,37.67-14,15.44-34,15.44T511.19,361.5Q497,345.89,497,323.83t14.16-37.68q14.16-15.61,34.16-15.62t34,15.62q14.17,15.44,14.17,37.68m-21,0a29.94,29.94,0,0,0-8-21.14q-8-8.82-19.16-8.82-11.33,0-19.33,8.82-7.83,8.64-7.83,21.14a30.38,30.38,0,0,0,8,21.13q8,8.82,19.16,8.82T564.51,345a30.33,30.33,0,0,0,8-21.13m61.32,56.05-126,45a23.46,23.46,0,0,1-6.83,1.65,8.83,8.83,0,0,1-6.83-3.49,13.06,13.06,0,0,1-3-8.82,11.38,11.38,0,0,1,2.33-7q1.67-2.38,7.83-4.59l126-45a23.46,23.46,0,0,1,6.83-1.65,8.41,8.41,0,0,1,6.84,3.67,12.6,12.6,0,0,1,3,8.46,11.69,11.69,0,0,1-2.34,7.16q-1.67,2.4-7.83,4.6m3,79.21q0,22.05-14.16,37.67-14.17,15.45-34.16,15.44t-34.16-15.62Q540.19,481,540.19,459.09q0-22.05,14.16-37.68t34.16-15.62q20,0,34.16,15.62,14.16,15.45,14.16,37.68m-21.16,0a30,30,0,0,0-8-21.14q-8-8.82-19.16-8.82T569.35,438a29.94,29.94,0,0,0-8,21.14,30.33,30.33,0,0,0,8,21.13q8,8.64,19.16,8.64t19.16-8.64a30.38,30.38,0,0,0,8-21.13"/></g></g><path class="cls-4" d="M365.53,799.08l4.47,4.51c1,1,1.89,1.91,2.72,2.88l.06,0c-.38-1.2-.69-2.52-1-3.85l-1.4-6.33,1.6-.93,4.66,4.29c1.12,1,2.06,1.95,2.91,2.87l.07,0a39.55,39.55,0,0,1-1.18-3.85l-1.56-6.12,1.88-1.1,2.71,12.42-1.72,1-4.51-4.06c-1-1-1.95-1.82-2.93-2.9l0,0a34.08,34.08,0,0,1,1.06,4l1.21,6-1.73,1-9.24-8.61Z"/><path class="cls-4" d="M382.12,789.42l4.47,4.51c1,1,1.9,1.91,2.72,2.88l.06,0c-.37-1.2-.68-2.52-1-3.85l-1.4-6.33,1.6-.93,4.66,4.29c1.12,1,2.06,1.95,2.92,2.87l.06,0a36.54,36.54,0,0,1-1.17-3.86l-1.57-6.11,1.88-1.1,2.72,12.42-1.73,1-4.51-4.06c-1-1-1.95-1.82-2.92-2.9l-.05,0a34.08,34.08,0,0,1,1.06,4l1.21,5.95-1.73,1-9.24-8.61Z"/><path class="cls-4" d="M398.71,779.76l4.48,4.51c1,1,1.89,1.91,2.71,2.87l.06,0c-.37-1.2-.68-2.52-1-3.85l-1.4-6.33,1.6-.93,4.66,4.29c1.12,1,2.06,2,2.92,2.87l.06,0a36.54,36.54,0,0,1-1.17-3.86l-1.57-6.11,1.88-1.1,2.72,12.42-1.73,1-4.5-4.05a40,40,0,0,1-2.93-2.9l-.05,0a34.17,34.17,0,0,1,1.07,4l1.2,6-1.72,1-9.24-8.62Z"/><path class="cls-4" d="M418.42,780.78a1.49,1.49,0,0,1,.51-2.12,1.58,1.58,0,0,1,1.56,2.74A1.48,1.48,0,0,1,418.42,780.78Z"/><path class="cls-4" d="M418.89,764l1.75,3,2.72-1.58.84,1.45-2.72,1.58,3.28,5.64c.76,1.3,1.55,1.82,2.61,1.2a5,5,0,0,0,1-.77l.91,1.37a5.22,5.22,0,0,1-1.53,1.24,3.06,3.06,0,0,1-2.52.4,4.52,4.52,0,0,1-2.32-2.29l-3.32-5.71-1.62,1-.84-1.45,1.62-.94-1.46-2.51Z"/><path class="cls-4" d="M426.34,759.74a1.36,1.36,0,0,1-2.36,1.37,1.34,1.34,0,0,1,.5-1.88A1.31,1.31,0,0,1,426.34,759.74ZM432,774.37l-6.09-10.46,1.9-1.1,6.09,10.45Z"/><path class="cls-4" d="M437.6,750.58,445,763.22c.54.92,1.18,2,1.66,2.64l-1.71,1-1.14-1.77,0,0a4.51,4.51,0,0,1-2.37,4.13c-2.53,1.47-5.72.46-7.57-2.71-2-3.47-1.13-6.86,1.42-8.35a4.07,4.07,0,0,1,4.09-.24l0,0-3.64-6.24ZM441,760.82a3.9,3.9,0,0,0-.55-.75,3.23,3.23,0,0,0-4-.6c-2,1.14-2.13,3.55-.78,5.86,1.23,2.12,3.28,3.26,5.34,2.07a3.47,3.47,0,0,0,1.07-4.76Z"/><path class="cls-4" d="M444.73,753l5.88,4.84c.64.56,1.38,1.23,1.92,1.75l0,0c-.17-.74-.42-1.67-.6-2.58l-1.5-7.34,2-1.17,1.49,9.12c.73,4.37.87,6.75.22,8.63a6,6,0,0,1-1.61,2.59l-1.41-1.32a5.74,5.74,0,0,0,1.12-1.9,6.72,6.72,0,0,0,.37-3.05,1.79,1.79,0,0,0-.11-.54,2.29,2.29,0,0,0-.42-.42l-9.48-7.38Z"/><path class="cls-4" d="M455.64,746.62l5.47,4.68a30.87,30.87,0,0,1,2.4,2.19l.06,0c-.26-1-.46-2.05-.67-3.2l-1.39-7,2-1.16,2,12.84-1.81,1.06-10.06-8.14Z"/><path class="cls-4" d="M469.81,745.83a3.89,3.89,0,0,0,5.7,1.54,8.06,8.06,0,0,0,2.58-2.23l1.12,1.17a9.83,9.83,0,0,1-3.1,2.67c-3.22,1.88-6.38.88-8.21-2.27s-1.43-6.72,1.62-8.49c3.41-2,6.07.48,7.18,2.4a9.53,9.53,0,0,1,.46.93Zm4.78-4.61c-.68-1.22-2.29-2.8-4.43-1.56-1.92,1.12-1.74,3.39-1.12,4.79Z"/><path class="cls-4" d="M478.66,737.58c-.71-1.23-1.35-2.28-2-3.22l1.66-1,1.26,2,.09,0a3.6,3.6,0,0,1,1.56-4,1.92,1.92,0,0,1,.58-.25l1,1.79a3.37,3.37,0,0,0-.69.31,3.09,3.09,0,0,0-1.12,3.93,5.39,5.39,0,0,0,.43.93l3.24,5.57-1.88,1.1Z"/><path class="cls-4" d="M489,738.61a5.79,5.79,0,0,0,2.94-.7c1.38-.81,1.63-1.88,1.13-2.74s-1.36-1.09-3.07-.79c-2.27.42-3.75-.1-4.49-1.35-1-1.68-.42-3.86,1.83-5.17a6.17,6.17,0,0,1,2.94-.85l.33,1.66a4.78,4.78,0,0,0-2.49.64,1.78,1.78,0,0,0-.92,2.45c.51.86,1.36.89,3,.61,2.22-.36,3.68,0,4.58,1.56,1.07,1.83.4,4-2.08,5.41a6.92,6.92,0,0,1-3.36,1Z"/><path class="cls-4" d="M497.55,729.67c1.54,2.55,3.8,2.65,5.7,1.54a7.94,7.94,0,0,0,2.58-2.22l1.11,1.17a9.6,9.6,0,0,1-3.1,2.67c-3.21,1.88-6.37.88-8.2-2.27s-1.43-6.72,1.62-8.5c3.41-2,6.06.49,7.18,2.41a7.29,7.29,0,0,1,.45.93Zm4.78-4.6c-.68-1.22-2.29-2.8-4.43-1.56-1.93,1.12-1.74,3.38-1.12,4.79Z"/><path class="cls-4" d="M509.22,727.91a1.49,1.49,0,0,1,.51-2.12,1.58,1.58,0,0,1,1.56,2.74A1.48,1.48,0,0,1,509.22,727.91Z"/><path class="cls-4" d="M521.6,715.09c2.25,3.87.56,7.11-2,8.58-2.83,1.65-6.22.85-8.14-2.46-2-3.5-.95-6.88,2-8.57S519.74,711.89,521.6,715.09ZM513.37,720c1.33,2.29,3.66,3.25,5.51,2.17s2.19-3.56.82-5.91c-1-1.77-3.23-3.5-5.48-2.2S512.21,718,513.37,720Z"/><path class="cls-4" d="M523.34,711.56c-.72-1.23-1.36-2.27-2-3.21l1.67-1,1.26,2,.08,0a3.65,3.65,0,0,1,1.56-4,2.82,2.82,0,0,1,.58-.25l1,1.8a3.37,3.37,0,0,0-.69.31,3.08,3.08,0,0,0-1.13,3.92,6.34,6.34,0,0,0,.43.94l3.25,5.57-1.88,1.1Z"/><path class="cls-4" d="M537.77,698.79c.4.78.85,1.65,1.59,2.93l3.53,6.06c1.4,2.4,1.78,4.15,1.29,5.65a6.36,6.36,0,0,1-3.07,3.46,7.8,7.8,0,0,1-4,1.16l-.37-1.72a6.75,6.75,0,0,0,3.54-1c2-1.13,2.78-3,1.25-5.61l-.68-1.16,0,0a4.34,4.34,0,0,1-2.31,3.69c-2.59,1.51-5.73.38-7.42-2.51-2.06-3.54-.92-6.9,1.48-8.29a4,4,0,0,1,4.32-.09l0,0-.83-1.63Zm.44,5.27a3.44,3.44,0,0,0-.61-.8,3.17,3.17,0,0,0-3.83-.46c-1.81,1.06-2.22,3.34-.81,5.76,1.2,2.06,3.23,3.16,5.28,2a3.21,3.21,0,0,0,1.5-3.47,3.84,3.84,0,0,0-.44-1.11Z"/></svg>