<?xml version="1.0" encoding="utf-8"?>
<!-- Generator: Adobe Illustrator 26.5.0, SVG Export Plug-In . SVG Version: 6.00 Build 0)  -->
<svg version="1.1" id="Layer_1" xmlns="http://www.w3.org/2000/svg" xmlns:xlink="http://www.w3.org/1999/xlink" x="0px" y="0px"
	 viewBox="0 0 2521 2911" style="enable-background:new 0 0 2521 2911;" xml:space="preserve">
<style type="text/css">
	.st0{fill:#F9ECC6;}
	.st1{fill:#484546;}
	.st2{fill:#3E3221;}
</style>
<g>
	<path class="st0" d="M2245.9,688.3c0,0,0,0.1-0.1,0.1l-985.3-569L272.1,690.2c0,0,0-0.1-0.1-0.1l-171.5,99v1339.5l1160,669.8
		l1160-669.8V789.2L2245.9,688.3z"/>
	<polygon class="st1" points="2521,2183.3 2521,727.7 2420.5,669.7 1467.4,119.5 1260.5,0 1260.5,0 1467.4,119.5 2420.5,669.7 
		2521,727.7 2521,2183.3 2420.5,2241.3 1455.5,2798.4 1260.5,2911 1260.5,2911 1455.5,2798.4 2420.5,2241.3 	"/>
	<polygon class="st1" points="100.5,789.2 272,690.1 1260.5,119.5 1260.5,119.5 100.5,789.2 100.5,2128.6 1260.5,2798.4 
		1260.5,2798.4 100.5,2128.6 	"/>
	<path class="st2" d="M2420.5,2241.3l100.5-58V727.7l-100.5-58l-953.1-550.2L1260.5,0l0,0l-206.9,119.5L100.5,669.7L0,727.7v1455.5
		l100.5,58l965,557.2l195,112.6l0,0l195-112.6L2420.5,2241.3z M2420.5,789.2v1339.5l-1160,669.8l0,0l-1160-669.8V789.2l1160-669.7
		l0,0l985.4,568.9L2420.5,789.2z"/>
	<g id="layer1">
		<path id="path4083" class="st2" d="M1787.5,2059.6c0.1-3.3,1.1-6.5,3-9.3c2.6-3.4,12.7-33.3,37.4-110.7l6.3-19.8l-6.9,4.6
			c-10.3,6.9-12.4,0.8-2.8-7.3c6-5.5,11.5-11.5,16.5-17.9c7.3-9.5,10.9-10.8,28.3-10.5c17.4,0.3,20.6,1.5,24.7,10.9
			c4.1,9.4,3.8,13.7-6,46.8c-12.4,41.8-12,50.6,2.2,43c21.4-11.6,27-19.9,41.4-61.2c10.5-30,16.1-41.2,20.4-41.2
			c8.1,0,7.8,2.3-7.6,50.2c-14.2,44.2-14,52.5,1.2,45.4c10.8-5.1,49.6-54.1,61.8-78c5.8-11.4,10.7-16.8,13.7-15.4s11.9,0,20.6-2.7
			c30.9-9.8,42,14.8,24.7,55.2c-10.3,24-12.1,44-4.5,50.2c9.4,7.6,32-14.9,36.2-36c8.4-42.7,27.7-68.8,50.7-68.8
			c19.6,0,28.4,24,17.9,49.1c-5.6,13.7-25.3,30.9-42.8,37.7c-14.3,5.6-15.1,8.3-6,18.6c8.4,9.4,24,6.1,50.8-10.6
			c20.1-12.6,25-10.6,11.9,4.7c-21.5,25-52.1,35.6-67.3,23.3c-4.7-4-8.3-9.3-10.3-15.1l-2.2-8.5l-9.6,8.5
			c-6.6,5.5-13.7,10.4-21.2,14.5c-11.4,5.9-11.8,5.8-20.2-6.6c-11.5-16.9-11.1-35.2,1.4-65.9c16.3-40.1,13-47.3-14.4-31.2
			c-17.2,10.1-18.3,11.8-27.4,40.6c-5.2,16.5-16.7,49.1-25.6,72.5c-12.6,33-17.7,42.5-22.8,42.5c-3.5,0.2-6.6-2.4-6.8-6
			c0-0.2,0-0.4,0-0.5c0-6.9,6.1-23.2,10-26.7c3.9-3.5,26.3-70.4,24-70.3c-1.2,0-9.4,9.3-18.2,20.6c-18.4,23.2-31.8,29.1-44.1,19.1
			c-7.5-6.1-8.9-6-19,1.7c-20.2,15.3-46,8.1-46-12.8c0-4.5,5.3-21.1,11.7-36.9c12.1-29.8,14.7-47.4,7.5-50.8
			c-6.2-2.9-16.6,3.1-24.5,14.1c-6.4,9-27.4,66-33.2,90.5c-6.3,26.4-22.9,62.1-28.9,62.1c-3.2,0.2-5.9-2.2-6.1-5.4L1787.5,2059.6z
			 M2125.2,1956.7c8.8-4.5,16.9-10.3,24-17.2c10.6-10.3,12.5-14.5,11.7-25.3c-0.8-10.8-2.6-13.1-10.3-14.3c-12.9-1.8-23.6,8-32,29.4
			c-6.2,16-9.2,32-5.9,32c4.3-1.4,8.4-3,12.5-4.8L2125.2,1956.7z M1146.3,2047.3c0.6-4.8,2.2-9.3,4.6-13.5
			c6.4-15.5,11.9-31.4,16.5-47.5c6.6-21.6,14.2-46.3,17.2-54.9c6.6-19.4,6.6-19.5-1.4-16.8c-10,3.4-8.1-0.7,6-12.2
			c10.3-8.3,16.3-10.3,31.1-9.6c10.3,0.4,20.2,2.2,22.4,3.9c6.6,5,4.6,21-6,48.8c-12,31.8-13,45.1-3.1,45.1
			c9.2,0,29.7-25.7,29.7-37.2c0-24,33-66.4,51.9-66.4c3,0,10.1,5.8,15.9,12.9s10.9,11.2,11.6,8.9c1.5-4.2,3.4-8.2,5.8-11.9
			c3.4-6,5.6-6.7,8.6-3c3,3.7,2,10.1-4.3,27.2c-11.9,32.1-18.1,64.3-13.5,69.9c10,12.5,41.2-23,68.4-78.1
			c9.3-18.8,18.3-34.3,19.8-34.3c3.8,0,3.7,3-0.8,13.3c-3,6.9-2.3,11.7,3.4,24.7c16.4,36.1,14.9,53-6.9,75.5
			c-11.9,12.4-21.6,14-24.6,4c-5.2-16.9,7.4-30.2,14.4-15c2.8,6.3,4,5.1,8.5-8.1c2.7-7.5,4.4-15.3,5.2-23.2
			c0-10.3-6.9-33.9-9.7-33.9c-1.3,0-5.6,7.9-9.5,17.6c-24,59.2-62.4,90.4-76.6,62.1c-3.2-6.3-6.2-12.2-6.9-13.2
			c-0.7-1-5.3,3.4-10.5,9.5c-5.5,6.4-12.8,11.1-20.9,13.5c-9.6,1.9-12.9,0.3-21-10.3l-9.3-12.6l-12,12.2
			c-14,14.4-21.3,15.3-30.5,3.9c-9.2-11.4-8.4-25.9,3.9-58.8c11.9-32.1,10.3-39.3-6.5-31.4c-11.6,5.4-14.6,11.9-35.5,75.7
			c-19.6,59.7-23.2,68.2-29.5,68.3C1149.1,2052.7,1146.5,2050.4,1146.3,2047.3L1146.3,2047.3z M1314.7,1973.1
			c13-18.9,19.1-39.2,16.2-54c-6.4-32.7-32.5-24-48.9,16.3c-6.4,15.9-7.2,49.4-1.2,52.4C1293.4,1994,1303,1990,1314.7,1973.1z
			 M340.3,2027.8c-11.8-4.6-21.4-15.1-27.7-30.2l-4.8-11.5l-13.3,13.2c-19.5,19.4-23.2,10.3-6.2-15.1c14.5-21.8,23.1-39.7,23.1-48.5
			c0-10.5,16.1-47,27.1-61.8c13.7-18.5,32-32.5,42.4-32.5c9.8,0,27.4,21.3,27.4,33.2c0,8.7-17.5,33-23.8,33
			c-6.9,0-6.9-13.3,0.3-22.6c4.9-6.5,6.9-12.6,5.3-18c-4.7-18.1-21.2-14.3-37.4,8.6c-28.9,40.8-38,108.2-17.4,128
			c16.3,15.5,62.4,3.4,69.3-18c1.7-5.2,4.8-15.5,7.1-22.9c5-16.7,22-39.3,36.5-48.6c8.9-5.7,12.7-6.2,19.4-2.4
			c7.5,4.3,8.1,6.5,6.6,23.7c-2,21.8-10.8,33.2-36.7,47.5c-16.2,8.9-19,14.6-11.8,23.5c6.7,8.2,20.6,5.6,36.2-6.9
			c18.6-14.8,24.7-23.5,29.6-42.8c4.8-18.7,22-42.7,35-48.8c18.8-8.9,34.1,17.5,20.1,34.8c-6.3,7.9-12.6,4.3-10.3-6
			c0.8-4.3,0.4-8.7-1.1-12.8c-5.2-10.3-19.6,2.9-28.3,26.2c-9.2,24.6-9.9,31.4-4.4,46.4c5,13.7,14.8,13.7,37.2,0
			c24.5-14.7,29.9-21.5,42.7-53.5c10.6-26.6,17.3-35.7,22-30c1.1,1.3-4.2,18.1-11.8,37.2s-13.7,40.8-13.7,48.2
			c0,13.1,0.3,13.3,12.5,11.6c6.3-0.8,12.5-2.5,18.4-5c8.4-4.6,7.3,4.7-1.3,10.3c-12.8,8.5-30.3,5.8-38.5-6l-7.8-10.6l-16.5,10.3
			c-22.3,13.9-40.3,13.7-51.9-0.7c-8.4-10.5-9.1-10.6-15.3-3.7c-16.4,18.4-50.3,24-62.1,10.3l-7.2-8.4l-17.6,11
			C372,2029.8,354.5,2033.2,340.3,2027.8L340.3,2027.8z M438,1967c6.6-6,12.5-12.5,17.8-19.7c5.9-8.9,8-23.2,3.4-23.2
			c-5.4,0-18.3,14-27.7,30.1c-15.3,26.2-13,30.9,6.6,12.8H438z M913.3,2011.1c-6-4.5-10.8-10.3-10.8-12.6s-3.9-8.8-8.6-14.2
			c-8.3-9.5-8.3-10-2.1-14.2c4.5-4.1,7.5-9.7,8.4-15.8c3.8-19.3,14.1-36.7,29.2-49.3c11.2-9.2,15.3-10.5,22.6-7.3
			c7.4,3.2,9.2,7,10.1,17.6c0.9,11.7-1.1,16.2-12.8,29.7c-7.4,8.5-15.8,16.1-25.1,22.5c-14,8.3-16.1,12.4-11.6,22.8
			c13.9,32.3,45.9,8.8,84.2-62.1c18.6-34.3,24.6-40.4,21.8-21.8c-1.1,7.4,0.5,14.9,4.5,21.1c4.2,7.5,7,15.6,8.4,24
			c1.2,7.8,3.1,14,4.3,13.7c3.4-0.4,33.9-48.6,33.9-53.4c-0.2-2.1,1.3-4.1,3.4-4.3c1.9,0,7-10.3,11.5-22.8
			c5.1-14.4,10.3-22.8,13.7-22.8c5.5,0,5.4,7.5-0.6,26.8c-1.9,5.9-0.4,6.5,10,4.1c17.2-4,15.2,3.2-3.9,14.3c-15,8.7-16.6,11.2-25,39
			c-12.7,41.8-14.7,56.6-7.6,56.6c5.5-1,10.8-3.1,15.5-6.3c12-7.7,12.8-2.7,1.7,10.3c-9.1,10.6-24.4,12.6-28.9,3.8
			c-4.9-9.5-3.4-31.2,3.6-53.2c3.6-11.5,5.5-20.6,4.2-20.6c-2.7,0.3-19.5,25.8-34.3,52.4c-18,32.2-32,36.6-41.8,13.2
			c-4.6-11-4.4-12.5,2-20.6c5.8-7.1,7.8-7.7,12.1-3.4c4.3,4.3,4.4,6.1-1.9,12.3c-8.2,8.2-8.9,11.9-2.3,11.9c2.6,0,8.6-5.7,13.3-12.7
			c10.7-15.7,12-44.3,2.6-54.9c-5.6-6.3-6.9-5-23.3,22c-20.6,34.3-47.7,62.1-60.3,62.1c-7.2-1-14-3.8-19.7-8.2L913.3,2011.1z
			 M943.4,1933.2c5.1-5.9,9.2-13,9.2-15.8c0-6.9-11.9-11.3-18.2-6.9c-7.7,5.3-21.9,30.9-21.9,39.4c0,7.2,0.5,7.2,10.8,0.8
			C930.7,1945.7,937.4,1939.8,943.4,1933.2L943.4,1933.2z M738.8,2008.3c0-3.8,5.4-20.9,11.9-37.9c11.8-30.9,17.7-54.6,13.4-54.6
			c-2.6,0-24.6,14.5-32.7,21.6c-10.3,9.1-11.2-1.5-1-11.7c15.3-15.2,36.3-24,44.3-18.8c4.7,3.1,9.5,3.1,16.5-0.2
			c26.6-12.4,36.9,10,24.4,52.8c-4,13.5-8,27.4-8.9,31.3c-2,8,8.5,14.1,13.5,7.9c2.2-2.5,5.3-4,8.6-4.1c3.4,0,2.2,3.4-4.4,10.6
			c-12.5,13.7-25.8,12.2-30.1-3c-2.4-8.4-1.1-17.2,5.8-38.4c14.1-43.7,11.2-59.5-8.4-45.3c-8.1,5.9-13.2,15.9-23,44.8
			c-6.9,20.6-13.4,40.6-14.4,44.6c-2.4,9.4-15.4,9.7-15.4,0.4V2008.3z M1686.8,1998c-8.5-10.5-7.8-26.9,2.8-65.8
			c7.1-26.2,8.1-34.1,4.9-38.2c-3.3-4-6.7-3.4-16.5,3.1c-11.5,7.7-13.2,11.4-24,52.6c-12,45.5-17.6,57.7-23.2,50.7
			c-1.9-2.4,0.6-18.1,6.7-41.2c11.4-43.6,10.9-55.3-0.9-22.8c-6,15.5-13.5,30.4-22.2,44.6c-12.6,19.7-15.2,21.8-27.1,21.8
			c-11.9,0-13.4-1.2-15.9-13c-2.5-11.8-3.4-12.3-7.6-7.1c-18.2,22.1-33.5,25.7-41.9,9.9c-5.8-11-4.2-37.7,3.2-53.3
			c2.8-6,2.8-8.4-0.2-9.7c-3-1.3,0.2-8.6,7.5-20.6c6.3-10.3,11.5-20.4,11.5-22.5s2.4-3.8,5.4-3.8c6.6,0,4.9,9.9-9,53.1
			c-10.9,34.1-12.2,48.4-4.5,52s23.2-7.7,32.5-23.3c4.4-7.4,12.2-28,17.4-45.7c9.9-34.3,11.5-37.3,17.6-32.6
			c2.8,2.1,0.2,16.2-9.3,50c-7.2,25.8-12.4,48.6-11.4,50.6c3.4,7.1,13.7,3.4,22.7-8.2c5-6.6,17-30.3,26.5-52.8
			c17.2-40.1,26.3-51.1,32.6-38.5c2.1,4.3,4.5,4.3,11.4,0.4c11.2-6.3,22.7-6.3,27.8,0c6,7.4,4.8,33.7-2.7,60.2
			c-8.8,30.9-8.7,42.5,0.2,42.5c7.9,0,20.3-7.3,24-14.1c1.4-2.7,2.5-1,2.5,4.1c0,19.5-28.9,32.1-40.5,17.6L1686.8,1998z
			 M2225,1999.5c0-9.8,6.3-17.2,12.1-14.6c5.8,2.6,5.8,16.4-0.7,19.5C2227.8,2008.5,2225,2007.3,2225,1999.5z M872,1930.9
			c4.1-5.4,6.9-12.3,6.4-15.3c-0.4-3.2,1.7-6.3,4.9-7.1c9.1-2.5,7.1,10.3-3.4,21.9c-11.8,12.9-17.6,13.3-8,0.5H872z M608.6,1876.3
			c0-7.3,8-12.2,13.4-8.2c2.6,2,2.5,4.5-0.3,8.7C616.5,1884.6,608.6,1884.3,608.6,1876.3L608.6,1876.3z M1955.5,1855.1
			c-2-6.4,6.4-18,13-18c5,0,2.7,19.8-2.6,22.3c-7.5,3.6-8,3.4-10.4-4.2L1955.5,1855.1z"/>
		<g id="flowRoot3914">
			<path id="path4408" class="st2" d="M631.9,1101.4c0,50.4-16.2,93.5-48.6,129.2c-32,35.3-70.9,53-116.6,53
				c-45.7,0-84.8-17.7-117-53c-32.4-35.7-48.6-78.8-48.6-129.2c0-50.4,16.2-93.5,48.6-129.3c32.4-35.7,71.5-53.6,117.2-53.6
				c45.7,0,84.6,17.8,116.6,53.6c32.4,35.3,48.6,78.4,48.6,129.3 M560,1101.4c0.7-26.8-9.2-52.9-27.4-72.5
				c-18.3-20.2-40.2-30.3-65.8-30.3c-25.9,0-48,10.1-66.3,30.3c-17.9,19.8-26.8,43.9-26.8,72.5c-0.5,26.8,9.3,52.9,27.4,72.6
				c18.3,20.2,40.2,30.3,65.7,30.3c25.5,0,47.4-10.1,65.6-30.3c18.1-19.7,28-45.7,27.4-72.5 M770.2,1293.8L338,1448.2
				c-7.5,3.1-15.4,5-23.4,5.7c-9.2-0.3-17.7-4.7-23.2-12c-7-8.5-10.7-19.3-10.3-30.3c-0.1-8.7,2.8-17.1,8-24
				c3.8-5.4,12.8-10.7,26.9-15.7l432.3-154.4c7.5-3.1,15.4-5,23.5-5.7c9.4,0.1,18.1,4.8,23.4,12.6c6.9,8.1,10.6,18.4,10.3,29
				c0.1,8.9-2.7,17.5-8,24.6c-3.8,5.5-12.8,10.7-26.9,15.8 M780.7,1565.5c0,50.4-16.2,93.5-48.6,129.2c-32.4,35.3-71.5,53-117.2,53
				c-45.7,0-84.8-17.9-117.2-53.6c-32.4-35.7-48.6-78.6-48.6-128.7c0-50.4,16.2-93.5,48.6-129.3s71.5-53.6,117.2-53.6
				c45.7,0,84.8,17.9,117.2,53.6C764.5,1471.5,780.7,1514.6,780.7,1565.5 M708.1,1565.4c0.7-26.8-9.2-52.9-27.4-72.5
				c-18.3-20.2-40.2-30.3-65.7-30.3s-47.5,10.1-65.9,30.4c-18.3,19.7-28.1,45.7-27.4,72.5c-0.5,26.8,9.3,52.8,27.4,72.5
				c18.3,19.8,40.2,29.6,65.7,29.6c25.5,0,47.4-9.9,65.7-29.6c18.1-19.7,28-45.7,27.4-72.5"/>
			<path id="path4410" class="st2" d="M1367.6,1360.5l-379.6-232c-19.1-11.8-31.8-22.3-38.3-31.5c-6.4-10.6-9.6-22.9-9.1-35.3
				c-0.3-17.2,6-34,17.7-46.7c10.4-12.4,25.6-19.5,41.8-19.6c9.9,0,25.2,6.1,45.7,18.3l565.4,346.8l-565.4,346.8
				c-20.6,12.6-35.8,18.9-45.7,18.9c-16.1-0.1-31.4-7.2-41.8-19.5c-11.8-12.9-18.1-29.9-17.7-47.3c-0.5-12.4,2.7-24.7,9.1-35.3
				c6.5-9.1,19.2-19.7,38.3-31.5L1367.6,1360.5"/>
			<path id="path4412" class="st2" d="M2035.9,1101.4c0,50.4-16.2,93.5-48.6,129.2c-32,35.3-70.9,53-116.6,53
				c-45.7,0-84.8-17.7-117.2-53c-32.5-35.7-48.7-78.8-48.7-129.2c0-50.5,16.2-93.5,48.6-129.3c32.4-35.7,71.5-53.6,117.2-53.6
				c45.7,0,84.6,17.8,116.6,53.6C2019.6,1007.4,2035.8,1050.5,2035.9,1101.4 M1963.8,1101.4c0.7-26.8-9.2-52.9-27.4-72.5
				c-18.3-20.2-40.2-30.3-65.7-30.3c-25.9,0-48,10.1-66.3,30.3c-17.9,19.8-26.9,43.9-26.9,72.5c-0.5,26.8,9.3,52.8,27.4,72.5
				c18.3,20.2,40.2,30.3,65.7,30.3c25.5,0,47.5-10,65.8-30.1c18.1-19.7,28-45.7,27.4-72.5 M2174.2,1293.8l-432.3,154.4
				c-7.5,3.1-15.4,5-23.4,5.7c-9.2-0.2-17.9-4.6-23.4-12c-7-8.5-10.7-19.3-10.3-30.3c-0.1-8.7,2.7-17.1,8-24
				c3.8-5.4,12.8-10.7,26.9-15.7l432.3-154.4c7.5-3.1,15.4-5,23.4-5.7c9.4,0.1,18.2,4.8,23.5,12.6c6.9,8.1,10.5,18.4,10.3,29
				c0.1,8.8-2.7,17.5-8,24.6C2197.3,1283.5,2188.3,1288.7,2174.2,1293.8 M2184.5,1565.5c0,50.4-16.2,93.5-48.6,129.2
				c-32.4,35.3-71.5,53-117.2,53c-45.7,0-84.8-17.9-117.2-53.6c-32.4-35.7-48.6-78.6-48.6-128.7c0-50.4,16.2-93.5,48.6-129.3
				s71.5-53.6,117.2-53.6c45.7,0,84.8,17.9,117.2,53.6c32.4,35.3,48.6,78.4,48.6,129.3 M2111.9,1565.4c0.7-26.8-9.2-52.9-27.4-72.5
				c-18.3-20.2-40.2-30.3-65.7-30.3c-25.5,0-47.4,10.1-65.7,30.4c-18.3,19.7-28.1,45.7-27.4,72.5c-0.5,26.8,9.3,52.8,27.4,72.5
				c18.3,19.8,40.2,29.6,65.7,29.6c25.5,0,47.4-9.9,65.7-29.6c18.1-19.7,28-45.7,27.4-72.5"/>
		</g>
	</g>
</g>
</svg>
