<svg id="Layer_1" data-name="Layer 1" xmlns="http://www.w3.org/2000/svg" xmlns:xlink="http://www.w3.org/1999/xlink" viewBox="0 0 735 852"><defs><style>.cls-1{fill:none;}.cls-2{clip-path:url(#clip-path);}.cls-3{fill:#f9ecc6;}.cls-14,.cls-4{opacity:0.25;}.cls-4{fill:url(#linear-gradient);}.cls-5{fill:#484546;}.cls-6,.cls-7{fill:#3e3221;}.cls-7{font-size:25px;font-family:MyriadPro-Regular, Myriad Pro;letter-spacing:0.03em;}.cls-8{letter-spacing:-0.02em;}.cls-9{letter-spacing:0.02em;}.cls-10{letter-spacing:0.01em;}.cls-11{letter-spacing:0.01em;}.cls-12{letter-spacing:0.01em;}.cls-13{clip-path:url(#clip-path-2);}.cls-14{fill:url(#linear-gradient-2);}</style><clipPath id="clip-path"><polygon class="cls-1" points="369.51 9.19 728.21 216.26 728.21 638.42 369.51 846.82 2.79 638.42 2.79 216.26 369.51 9.19"/></clipPath><linearGradient id="linear-gradient" x1="366.25" y1="-120.6" x2="367.55" y2="342.93" gradientUnits="userSpaceOnUse"><stop offset="0" stop-color="#fff" stop-opacity="0.83"/><stop offset="0.56" stop-color="#fff" stop-opacity="0.37"/><stop offset="1" stop-color="#fff" stop-opacity="0"/></linearGradient><clipPath id="clip-path-2"><polygon class="cls-1" points="369.51 967.41 728.21 1174.48 728.21 1596.64 369.51 1805.04 2.79 1596.64 2.79 1174.48 369.51 967.41"/></clipPath><linearGradient id="linear-gradient-2" x1="366.25" y1="837.62" x2="367.55" y2="1301.15" xlink:href="#linear-gradient"/></defs><title> </title><g class="cls-2"><circle class="cls-3" cx="365.5" cy="439.25" r="442.13"/><ellipse class="cls-4" cx="366.89" cy="107.6" rx="315.24" ry="234.63"/></g><path class="cls-5" d="M705.61,198,427.81,37.62,367.5,2.8,307.19,37.62,29.37,198,.09,214.92V639.18l29.28,16.91,281.28,162.4L367.5,851.3l56.85-32.82L705.61,656.09l29.3-16.92V214.92Zm0,425.26L367.49,818.48,29.37,623.26V232.83L367.49,37.62h0L705.61,232.83Z"/><path class="cls-6" d="M705.61,198,427.81,37.62,367.5,2.8,307.19,37.62,29.37,198,.09,214.92V639.18l29.28,16.91,281.28,162.4L367.5,851.3l56.85-32.82L705.61,656.09l29.3-16.92V214.92Zm0,425.26L367.49,818.48,29.37,623.26V232.83L367.49,37.62h0L705.61,232.83Z"/><g id="layer1"><path id="path4083" class="cls-6" d="M521.11,603.14a5.25,5.25,0,0,1,.87-2.72c.76-1,3.7-9.69,10.91-32.28l1.85-5.78-2,1.35c-3,2-3.62.24-.83-2.14a41.29,41.29,0,0,0,4.81-5.21c2.12-2.77,3.18-3.16,8.24-3.07s6,.44,7.19,3.18,1.12,4-1.75,13.65c-3.62,12.18-3.49,14.75.64,12.51,6.23-3.38,7.86-5.79,12.08-17.82,3.07-8.74,4.69-12,5.94-12,2.37,0,2.27.68-2.22,14.64-4.13,12.87-4.07,15.3.34,13.22,3.15-1.49,14.47-15.76,18-22.74,1.69-3.33,3.11-4.91,4-4.48s3.48,0,6-.8c9-2.87,12.26,4.3,7.21,16.07-3,7-3.53,12.84-1.31,14.63,2.75,2.21,9.33-4.34,10.55-10.49,2.46-12.45,8.07-20.06,14.79-20.06,5.7,0,8.27,7,5.23,14.33-1.65,4-7.37,9-12.48,11-4.16,1.63-4.42,2.42-1.74,5.43,2.45,2.75,7,1.79,14.82-3.09,5.84-3.66,7.3-3.09,3.47,1.36-6.28,7.29-15.2,10.38-19.61,6.8a10.06,10.06,0,0,1-3-4.41l-.63-2.47-2.79,2.47a36.93,36.93,0,0,1-6.19,4.22c-3.32,1.72-3.44,1.68-5.9-1.94-3.34-4.93-3.23-10.25.41-19.2,4.75-11.68,3.78-13.79-4.2-9.11-5,2.93-5.35,3.45-8,11.82-1.51,4.82-4.86,14.33-7.46,21.13-3.67,9.62-5.15,12.38-6.67,12.38a1.87,1.87,0,0,1-1.95-1.89c0-2,1.78-6.76,2.91-7.77s7.68-20.53,7-20.49c-.34,0-2.73,2.7-5.31,6-5.35,6.77-9.28,8.48-12.85,5.58-2.2-1.79-2.59-1.75-5.56.49-5.9,4.46-13.41,2.37-13.41-3.73,0-1.3,1.53-6.13,3.41-10.75,3.53-8.7,4.29-13.81,2.19-14.8-1.81-.85-4.85.89-7.14,4.11-1.87,2.61-8,19.24-9.67,26.39-1.84,7.68-6.68,18.11-8.41,18.11a1.7,1.7,0,0,1-1.79-1.57Zm98.42-30a28.78,28.78,0,0,0,7-5c3.08-3,3.65-4.22,3.41-7.36s-.76-3.84-3-4.16q-5.66-.8-9.32,8.56c-1.82,4.67-2.68,9.34-1.72,9.34a33.48,33.48,0,0,0,3.65-1.4ZM334.2,599.55a10.42,10.42,0,0,1,1.34-3.92c.73-1.31,2.9-7.54,4.8-13.85s4.15-13.49,5-16c1.92-5.65,1.92-5.68-.42-4.92-2.92.95-2.36-.19,1.74-3.56,3-2.43,4.75-3,9.06-2.79,3,.13,5.89.64,6.53,1.13,1.91,1.47,1.34,6.11-1.75,14.23C357,579.13,356.7,583,359.61,583c2.68,0,8.66-7.48,8.66-10.82,0-7,9.62-19.36,15.12-19.36.87,0,3,1.7,4.63,3.78s3.19,3.24,3.37,2.59a19.19,19.19,0,0,1,1.68-3.48c1-1.74,1.63-1.95,2.51-.88s.59,2.92-1.26,7.93c-3.45,9.36-5.27,18.73-3.94,20.38,2.92,3.62,12-6.7,19.94-22.77,2.72-5.48,5.32-10,5.79-10,1.11,0,1.06.86-.24,3.87-.87,2-.66,3.43,1,7.19,4.77,10.52,4.33,15.45-2,22-3.46,3.61-6.28,4.07-7.18,1.18-1.53-4.94,2.17-8.79,4.19-4.36.83,1.82,1.17,1.5,2.48-2.38a28.67,28.67,0,0,0,1.52-6.76c0-3-2-9.88-2.82-9.88-.38,0-1.62,2.31-2.76,5.13-7,17.26-18.18,26.34-22.33,18.11-.92-1.83-1.81-3.55-2-3.84s-1.55,1-3.06,2.76a12.91,12.91,0,0,1-6.07,3.93c-2.79.55-3.76.08-6.13-3L368,580.67l-3.49,3.57c-4.1,4.19-6.22,4.46-8.89,1.15s-2.44-7.54,1.13-17.15c3.48-9.35,3-11.45-1.9-9.14-3.38,1.58-4.27,3.47-10.35,22.07-5.7,17.41-6.77,19.89-8.6,19.91a1.62,1.62,0,0,1-1.7-1.53Zm49.09-21.62c3.79-5.49,5.57-11.43,4.71-15.75-1.88-9.54-9.49-7-14.27,4.74-1.88,4.61-2.1,14.38-.35,15.26C377.1,584,379.9,582.84,383.29,577.93Zm-284,15.94c-3.43-1.35-6.23-4.4-8.06-8.8l-1.39-3.35-3.88,3.86c-5.68,5.66-6.76,3-1.8-4.42,4.22-6.33,6.71-11.57,6.73-14.13,0-3.08,4.68-13.72,7.9-18.05,4-5.39,9.32-9.46,12.36-9.47,2.86,0,8,6.2,8,9.68,0,2.54-5.12,9.63-6.95,9.63-2,0-1.95-3.89.1-6.6,1.44-1.89,2-3.66,1.55-5.26-1.35-5.28-6.18-4.17-10.91,2.51-8.42,11.9-11.08,31.55-5.05,37.31,4.74,4.52,18.19,1,20.2-5.26.49-1.53,1.41-4.53,2.06-6.68,1.47-4.88,6.41-11.47,10.65-14.19,2.59-1.66,3.71-1.8,5.65-.7,2.19,1.24,2.37,1.89,1.92,6.91-.58,6.35-3.14,9.67-10.69,13.85-4.71,2.6-5.54,4.26-3.46,6.85,1.94,2.41,6,1.64,10.57-2,5.42-4.31,7.19-6.86,8.64-12.48,1.41-5.45,6.42-12.44,10.19-14.22,5.49-2.59,9.93,5.1,5.86,10.14-1.85,2.29-3.68,1.25-3-1.74a6.71,6.71,0,0,0-.33-3.72c-1.51-3-5.71.85-8.26,7.64-2.69,7.16-2.88,9.15-1.27,13.53,1.46,4,4.3,4,10.86,0,7.14-4.29,8.72-6.26,12.45-15.58,3.11-7.75,5.05-10.41,6.4-8.73.32.4-1.23,5.28-3.45,10.85s-4,11.89-4,14c0,3.81.09,3.9,3.65,3.38a20.59,20.59,0,0,0,5.35-1.46c2.47-1.34,2.14,1.37-.36,3-3.74,2.48-8.84,1.69-11.23-1.75L164,585.42l-4.82,3c-6.51,4.05-11.76,4-15.12-.19-2.47-3.06-2.66-3.1-4.45-1.09-4.79,5.37-14.67,7-18.1,3l-2.11-2.46-5.13,3.19c-5.74,3.58-10.84,4.58-15,3Zm28.49-17.72a40.24,40.24,0,0,0,5.18-5.74c1.72-2.59,2.32-6.75,1-6.75-1.58,0-5.33,4.07-8.07,8.76-4.46,7.63-3.78,9,1.92,3.73ZM266.3,589c-1.74-1.32-3.16-3-3.16-3.68s-1.13-2.58-2.5-4.16c-2.41-2.76-2.43-2.92-.62-4.13a7.87,7.87,0,0,0,2.46-4.61,24.88,24.88,0,0,1,8.46-14.39c3.28-2.69,4.46-3.07,6.61-2.14s2.69,2.05,2.93,5.14c.26,3.39-.31,4.72-3.74,8.64a38.83,38.83,0,0,1-7.33,6.57c-4.09,2.41-4.7,3.6-3.39,6.64,4.07,9.43,13.37,2.57,24.55-18.1,5.43-10,7.18-11.78,6.34-6.34a8.85,8.85,0,0,0,1.32,6.16,21.64,21.64,0,0,1,2.45,7c.34,2.26.9,4.07,1.24,4,1-.13,9.87-14.16,9.87-15.56a1.15,1.15,0,0,1,1-1.25c.54,0,2.05-3,3.35-6.64,1.5-4.21,3-6.64,4-6.64,1.61,0,1.56,2.2-.18,7.82-.53,1.73-.13,1.89,2.92,1.19,5-1.16,4.43.93-1.13,4.16-4.37,2.54-4.84,3.27-7.31,11.37-3.7,12.17-4.28,16.51-2.21,16.51a11.47,11.47,0,0,0,4.5-1.84c3.49-2.24,3.73-.78.49,3-2.65,3.08-7.11,3.68-8.42,1.12-1.41-2.77-1-9.08,1.06-15.5,1.06-3.34,1.61-6,1.22-6-.8.08-5.67,7.52-10,15.28-5.24,9.38-9.33,10.67-12.18,3.84-1.33-3.19-1.29-3.65.59-6,1.68-2.09,2.28-2.25,3.52-1s1.26,1.77-.55,3.59c-2.39,2.4-2.6,3.48-.67,3.48.76,0,2.51-1.67,3.89-3.71,3.11-4.59,3.51-12.91.77-16-1.65-1.85-2-1.47-6.81,6.42-6,10-13.91,18.11-17.57,18.11a12,12,0,0,1-5.75-2.4Zm8.76-22.71c1.47-1.71,2.68-3.78,2.68-4.61,0-2-3.46-3.29-5.31-2-2.24,1.55-6.37,9-6.37,11.47,0,2.1.16,2.11,3.16.23a31.2,31.2,0,0,0,5.84-5.09Zm-59.63,21.9c0-1.11,1.56-6.08,3.46-11.06,3.45-9,5.15-15.91,3.92-15.91-.77,0-7.17,4.24-9.53,6.31-3,2.64-3.27-.43-.29-3.4,4.44-4.43,10.57-7,12.9-5.48,1.36.91,2.76.89,4.8-.07,7.75-3.63,10.77,2.91,7.1,15.39-1.16,3.94-2.32,8-2.59,9.12-.57,2.33,2.47,4.13,3.93,2.32a3.57,3.57,0,0,1,2.51-1.21c1,0,.64,1-1.28,3.08-3.62,4-7.53,3.57-8.78-.87-.69-2.46-.31-5,1.69-11.18,4.11-12.72,3.25-17.34-2.45-13.2-2.36,1.71-3.85,4.63-6.69,13.07-2,6-3.91,11.82-4.21,13-.71,2.73-4.51,2.81-4.51.1Zm276.32-3c-2.47-3.06-2.26-7.85.82-19.18,2.08-7.63,2.37-9.94,1.42-11.12s-2-1-4.81.91c-3.36,2.23-3.86,3.32-7,15.34-3.5,13.27-5.12,16.83-6.75,14.77-.56-.71.18-5.28,1.94-12,3.32-12.72,3.19-16.12-.27-6.64a79.66,79.66,0,0,1-6.48,13c-3.67,5.73-4.43,6.34-7.91,6.34s-3.92-.34-4.64-3.79-1-3.57-2.22-2.06c-5.3,6.43-9.77,7.49-12.2,2.88-1.69-3.2-1.23-11,.92-15.55.83-1.74.81-2.45-.07-2.84s.06-2.51,2.19-6c1.84-3,3.35-5.95,3.35-6.56s.7-1.11,1.57-1.11c1.93,0,1.44,2.9-2.61,15.49-3.2,9.93-3.56,14.1-1.33,15.17s6.76-2.24,9.48-6.8c1.29-2.16,3.57-8.15,5.06-13.32,2.89-10,3.34-10.86,5.12-9.5.82.63.06,4.73-2.7,14.56-2.11,7.53-3.6,14.17-3.31,14.75,1,2.07,4,1,6.61-2.4,1.47-1.9,4.94-8.82,7.73-15.39,5-11.7,7.67-14.9,9.5-11.23.62,1.24,1.31,1.26,3.33.12,3.26-1.84,6.61-1.84,8.1,0,1.75,2.17,1.41,9.83-.78,17.56-2.56,9-2.55,12.39.07,12.39,2.29,0,5.92-2.13,7-4.1.42-.78.72-.28.73,1.2,0,5.69-8.41,9.36-11.81,5.14Zm156.88.42c0-2.84,1.83-5,3.53-4.24s1.7,4.78-.2,5.68c-2.52,1.2-3.33.85-3.33-1.44Zm-394.38-20c1.19-1.57,2-3.57,1.87-4.46a1.9,1.9,0,0,1,1.42-2.06c2.65-.72,2.07,3.05-1,6.38-3.45,3.76-5.14,3.87-2.32.14Zm-76.78-15.9c0-2.14,2.34-3.57,3.89-2.38.77.59.74,1.3-.07,2.52-1.51,2.26-3.82,2.17-3.82-.14Zm392.61-6.17c-.58-1.86,1.86-5.26,3.78-5.26,1.47,0,.8,5.77-.75,6.51C570.93,545.85,570.77,545.79,570.08,543.57Z"/><g id="flowRoot3914"><path id="path4408" class="cls-6" d="M184.27,323.83q0,22.05-14.16,37.68-14,15.44-34,15.44T102,361.5q-14.16-15.62-14.16-37.68T102,286.15q14.16-15.62,34.16-15.62t34,15.62q14.16,15.44,14.16,37.68m-21,0a30,30,0,0,0-8-21.13q-8-8.82-19.16-8.82-11.33,0-19.33,8.82Q109,311.33,109,323.83A30.38,30.38,0,0,0,117,345q8,8.82,19.16,8.82T155.28,345a30.38,30.38,0,0,0,8-21.13m61.32,56.05-126,45a23.39,23.39,0,0,1-6.83,1.65A8.85,8.85,0,0,1,85,423.07a13.06,13.06,0,0,1-3-8.82,11.39,11.39,0,0,1,2.33-7q1.67-2.39,7.83-4.59l126-45a23.41,23.41,0,0,1,6.83-1.65,8.4,8.4,0,0,1,6.83,3.68,12.54,12.54,0,0,1,3,8.45,11.66,11.66,0,0,1-2.33,7.17q-1.67,2.39-7.83,4.59m3,79.21q0,22.05-14.16,37.68-14.16,15.44-34.16,15.44t-34.16-15.62Q130.95,481,130.95,459.09q0-22.05,14.16-37.68t34.16-15.62q20,0,34.16,15.62,14.16,15.44,14.16,37.68m-21.16,0a30,30,0,0,0-8-21.13q-8-8.82-19.16-8.82T160.11,438a30,30,0,0,0-8,21.13,30.38,30.38,0,0,0,8,21.13q8,8.64,19.16,8.64t19.16-8.64a30.38,30.38,0,0,0,8-21.13"/><path id="path4410" class="cls-6" d="M398.72,399.36,288.08,331.73q-8.33-5.15-11.16-9.19a18.34,18.34,0,0,1-2.67-10.29,19.56,19.56,0,0,1,5.17-13.6,15.93,15.93,0,0,1,12.16-5.7q4.33,0,13.33,5.33L469.7,399.36,304.91,500.44q-9,5.51-13.33,5.51a15.93,15.93,0,0,1-12.16-5.7,19.79,19.79,0,0,1-5.17-13.78,18.34,18.34,0,0,1,2.67-10.29q2.83-4,11.16-9.19l110.64-67.63"/><path id="path4412" class="cls-6" d="M593.51,323.83q0,22.05-14.16,37.68-14,15.44-34,15.44T511.19,361.5Q497,345.88,497,323.83t14.16-37.68q14.16-15.62,34.16-15.62t34,15.62q14.16,15.44,14.16,37.68m-21,0a30,30,0,0,0-8-21.13q-8-8.82-19.16-8.82-11.33,0-19.33,8.82-7.83,8.64-7.83,21.13a30.38,30.38,0,0,0,8,21.13q8,8.82,19.16,8.82T564.51,345a30.38,30.38,0,0,0,8-21.13m61.32,56.05-126,45a23.39,23.39,0,0,1-6.83,1.65,8.85,8.85,0,0,1-6.83-3.49,13.06,13.06,0,0,1-3-8.82,11.39,11.39,0,0,1,2.33-7q1.67-2.39,7.83-4.59l126-45a23.41,23.41,0,0,1,6.83-1.65,8.4,8.4,0,0,1,6.83,3.68,12.54,12.54,0,0,1,3,8.45,11.66,11.66,0,0,1-2.33,7.17q-1.67,2.39-7.83,4.59m3,79.21q0,22.05-14.16,37.68Q608.5,512.2,588.51,512.2t-34.16-15.62Q540.19,481,540.19,459.09q0-22.05,14.16-37.68t34.16-15.62q20,0,34.16,15.62,14.16,15.44,14.16,37.68m-21.16,0a30,30,0,0,0-8-21.13q-8-8.82-19.16-8.82T569.35,438a30,30,0,0,0-8,21.13,30.38,30.38,0,0,0,8,21.13q8,8.64,19.16,8.64t19.16-8.64a30.38,30.38,0,0,0,8-21.13"/></g></g><text class="cls-7" transform="matrix(0.86, -0.5, 0.5, 0.86, 369.28, 810.9)">ww<tspan class="cls-8" x="38.4" y="0">w</tspan><tspan class="cls-9" x="56.32" y="0">.tid</tspan><tspan x="91.72" y="0">y</tspan><tspan class="cls-10" x="104.3" y="0">v</tspan><tspan class="cls-9" x="116.57" y="0">ers</tspan><tspan class="cls-11" x="148.67" y="0">e</tspan><tspan class="cls-9" x="161.4" y="0">.o</tspan><tspan class="cls-12" x="181.3" y="0">r</tspan><tspan class="cls-9" x="189.77" y="0">g</tspan></text><g class="cls-13"><ellipse class="cls-14" cx="366.89" cy="1065.82" rx="315.24" ry="234.63"/></g></svg>