<?xml version="1.0" encoding="utf-8"?>
<!-- Generator: Adobe Illustrator 26.5.0, SVG Export Plug-In . SVG Version: 6.00 Build 0)  -->
<svg version="1.1" xmlns="http://www.w3.org/2000/svg" xmlns:xlink="http://www.w3.org/1999/xlink" x="0px" y="0px"
	 viewBox="0 0 2521 2911" style="enable-background:new 0 0 2521 2911;" xml:space="preserve">
<style type="text/css">
	.st0{fill:#212121;}
	.st1{fill:#353535;}
	.st2{fill:#494949;}
	.st3{fill:#00FFA3;}
	.st4{fill:#3EFFA3;}
	.st5{fill:none;}
	.st6{fill:#008471;}
	.st7{fill:#008272;}
</style>
<g id="Layer_1">
</g>
<g id="Layer_3">
</g>
<g id="Layer_2">
	<g>
		<g>
			<path class="st0" d="M1368.7,825.8c-4.9,31.1-13.6,61.4-26,90.8c-19.7,46.3-48,88.2-84.1,124.5c-38.2,38.3-83.1,68.5-133.5,89.5
				c-51.9,21.7-107.1,32.7-164,32.7c-55,0-108.4-10.3-158.8-30.5c-49-19.7-93-47.9-130.9-83.9c-38.3-36.4-68.4-78.9-89.5-126.3
				c-13.8-31.1-23.4-63.5-28.6-96.7H421.7v999.7h1260.4V825.8H1368.7z"/>
			<polygon class="st0" points="1682.1,650.1 1372.9,650.1 1373.3,740.7 1682.1,740.7 			"/>
			<rect x="421.7" y="650.1" class="st0" width="127" height="90.7"/>
			<path class="st0" d="M1800,1825.5H1901c48.4,0,95.2,11.3,139,33.5c40.8,20.7,77,49.9,107.8,86.8c57.7,69.3,90.5,159.4,92.9,255
				h77.3v-948.7h-188.7c-39.6,0-77.9-9.1-113.9-27.1c-34.1-17.1-64.6-41.3-90.6-72.1c-25.5-30.2-45.5-65.2-59.4-104
				c-14.2-39.8-21.4-82-21.4-125.4v-97.8H1800V1825.5z"/>
			<polygon class="st0" points="1800,2285.9 1800,2513.2 1870.6,2513.2 2028.4,2422.1 2028.4,2285.9 			"/>
			<polygon class="st0" points="1941,740.7 2318,740.7 2318,656.1 2307.5,650.1 1941,650.1 			"/>
			<path class="st0" d="M979.4,2171c44.8,0,88.1,10,128.9,29.8h573.8V2038H421.7v133H979.4z"/>
			<rect x="1800" y="650.1" class="st0" width="43.9" height="90.7"/>
			<rect x="39.5" y="825.8" class="st0" width="264.3" height="999.7"/>
			<path class="st0" d="M1306.2,2513.2h375.9v-227.3h-465.8c0.1,0.1,0.2,0.3,0.3,0.4C1268.8,2348.5,1300,2428.1,1306.2,2513.2z"/>
			<polygon class="st0" points="303.8,2038 39.5,2038 39.5,2160.5 57.7,2171 303.8,2171 			"/>
			<path class="st0" d="M2028.1,2200.8c-1-21.8-5.1-42.7-12-62.5c-7.6-21.4-18.2-40.4-31.5-56.4c-13.7-16.4-42.7-43.9-83.6-43.9
				H1800v162.9H2028.1z"/>
			<polygon class="st0" points="303.8,650.1 213.5,650.1 56.4,740.7 303.8,740.7 			"/>
			<path class="st0" d="M1941,825.8v97.8c0,32.2,5.3,63.4,15.8,92.7c10,27.9,24.1,52.8,42.1,74c35.4,41.8,81.7,64.8,130.4,64.8H2318
				V825.8H1941z"/>
			<polygon class="st0" points="1307.3,2838.4 1437,2763.5 1307.3,2763.5 			"/>
			<polygon class="st0" points="1307.3,2686.6 1570.2,2686.6 1666.8,2630.9 1307.3,2630.9 			"/>
			<polygon class="st0" points="1125.2,2630.9 854.2,2630.9 950.8,2686.6 1125.2,2686.6 			"/>
			<polygon class="st0" points="2240.8,2299.5 2264.3,2285.9 2240.8,2285.9 			"/>
			<path class="st0" d="M1111.8,2465c-8.3-23.4-20-44.1-34.7-61.7c-27.1-32.4-61.8-50.2-97.7-50.2H421.7v28.1l228.7,132h472.8
				C1121.1,2496.6,1117.3,2480.5,1111.8,2465z"/>
			<polygon class="st0" points="1682.1,519.3 1682.1,289 1370.6,109.1 1372.3,519.3 			"/>
			<polygon class="st0" points="761.2,740.7 1160.8,740.7 1160.4,650.1 761.2,650.1 			"/>
			<polygon class="st0" points="1159.9,519.3 1158.1,104.7 761.2,333.8 761.2,519.3 			"/>
			<polygon class="st0" points="2081.1,519.3 1941,438.5 1941,519.3 			"/>
			<polygon class="st0" points="1800,519.3 1843.9,519.3 1843.9,382.4 1800,357.1 			"/>
			<polygon class="st0" points="1084,2763.5 1125.2,2787.3 1125.2,2763.5 			"/>
			<path class="st0" d="M961.1,950.8c28.7,0,56.3-5.5,82.1-16.3c24.6-10.3,46.5-24.9,64.9-43.4c19-19.1,33.2-41.3,42.1-65.3H771.9
				C798.9,898.4,873.5,950.8,961.1,950.8z"/>
			<polygon class="st0" points="548.8,456.5 439.9,519.3 548.8,519.3 			"/>
			<path class="st1" d="M1372.3,519.3l0.6,130.7h309.2v90.7h-308.8l0.1,23.6c0.1,20.7-1.5,41.2-4.6,61.4h313.4v999.7H1800V825.8
				h43.9v-85.1H1800v-90.7h43.9V519.3H1800V357.1L1682.1,289v230.4H1372.3z"/>
			<polygon class="st1" points="1941,650.1 2307.5,650.1 2081.1,519.3 1941,519.3 			"/>
			<polygon class="st1" points="761.2,650.1 1160.4,650.1 1159.9,519.3 761.2,519.3 			"/>
			<path class="st1" d="M1800,2285.9h228.4v-73.7c0-3.8-0.1-7.6-0.3-11.3H1800V2038h-117.9v162.9h-573.8c1.4,0.7,2.9,1.4,4.3,2.1
				c39.1,19.8,74,47.7,103.7,82.9h465.8v227.3h-375.9c0.8,10.4,1.1,20.9,1.1,31.4v86.3h359.5l203.8-117.7H1800V2285.9z"/>
			<path class="st1" d="M2318,2200.8h-77.3c0.1,3.8,0.1,7.5,0.1,11.3v73.7h23.5l217.2-125.4v-908.3H2318V2200.8z"/>
			<polygon class="st1" points="1941,740.7 1941,825.8 2318,825.8 2318,1155.1 2481.5,1155.1 2481.5,750.5 2318,656.1 2318,740.7 
							"/>
			<path class="st1" d="M761.2,766c0,20.9,3.8,41,10.7,59.8h378.2c7.1-19.3,10.8-39.7,10.7-60.5l-0.1-24.5H761.2V766z"/>
			<polygon class="st1" points="373.1,2353.1 421.7,2381.2 421.7,2353.1 			"/>
			<rect x="303.8" y="2038" class="st1" width="117.9" height="133"/>
			<path class="st1" d="M303.8,1825.5h117.9V825.8h131.7c-3.1-19.7-4.6-39.6-4.6-59.8v-25.2h-127v-90.7h127V519.3H439.9L213.5,650.1
				h90.3v90.7H56.4l-17,9.8v75.3h264.3V1825.5z"/>
			<polygon class="st1" points="1125.2,2686.6 950.8,2686.6 1084,2763.5 1125.2,2763.5 			"/>
			<polygon class="st1" points="1307.3,2763.5 1437,2763.5 1570.2,2686.6 1307.3,2686.6 			"/>
			<path class="st1" d="M1125.2,2544.6c0-10.6-0.7-21.1-2-31.4H650.4l203.8,117.7h271V2544.6z"/>
			<path class="st2" d="M2240.8,2212.2c0-3.8-0.1-7.6-0.1-11.3c-2.4-95.5-35.2-185.7-92.9-255c-30.8-36.9-67-66.1-107.8-86.8
				c-43.8-22.3-90.6-33.5-139-33.5H1800h-117.9H421.7H303.8H39.5V2038h264.3h117.9h1260.4H1800H1901c40.9,0,69.9,27.5,83.6,43.9
				c13.3,16,23.9,35,31.5,56.4c7,19.8,11,40.8,12,62.5c0.2,3.8,0.3,7.5,0.3,11.3v73.7v136.2l212.4-122.7v-13.6V2212.2z"/>
			<path class="st2" d="M1307.3,2686.6v-55.8v-86.3c0-10.5-0.4-21-1.1-31.4c-6.2-85.1-37.4-164.7-89.5-226.9
				c-0.1-0.1-0.2-0.3-0.3-0.4c-29.7-35.3-64.5-63.2-103.7-82.9c-1.4-0.7-2.9-1.4-4.3-2.1c-40.8-19.8-84.1-29.8-128.9-29.8H421.7
				H303.8H57.7l315.4,182.1h48.6h557.7c35.9,0,70.6,17.8,97.7,50.2c14.8,17.6,26.4,38.4,34.7,61.7c5.5,15.5,9.3,31.6,11.4,48.2
				c1.3,10.3,2,20.8,2,31.4v86.3v55.8v76.9v23.8l135.3,78.1l46.8-27v-74.9V2686.6z"/>
			<path class="st2" d="M548.8,650.1v90.7V766c0,20.2,1.5,40.1,4.6,59.8c5.2,33.2,14.8,65.5,28.6,96.7
				c21.1,47.4,51.2,89.9,89.5,126.3c37.9,36,81.9,64.3,130.9,83.9c50.4,20.3,103.8,30.5,158.8,30.5c56.9,0,112.1-11,164-32.7
				c50.4-21.1,95.4-51.2,133.5-89.5c36.1-36.2,64.4-78.1,84.1-124.5c12.5-29.3,21.2-59.7,26-90.8c3.2-20.2,4.7-40.7,4.6-61.4
				l-0.1-23.6l-0.4-90.7l-0.6-130.7l-1.7-410.2l-110.1-63.6l-102.4,59.1l1.8,414.7l0.6,130.7l0.4,90.7l0.1,24.5
				c0.1,20.8-3.6,41.2-10.7,60.5c-8.9,24-23.1,46.2-42.1,65.3c-18.4,18.5-40.3,33.1-64.9,43.4c-25.8,10.8-53.4,16.3-82.1,16.3
				c-87.6,0-162.2-52.4-189.1-125c-7-18.8-10.7-38.9-10.7-59.8v-25.2v-90.7V519.3V333.8l-122.3,70.6l-90.1,52v62.8V650.1z"/>
			<path class="st2" d="M1843.9,650.1v90.7v85.1v97.8c0,43.4,7.2,85.6,21.4,125.4c13.9,38.8,33.9,73.8,59.4,104
				c26,30.8,56.5,55,90.6,72.1c36,18,74.3,27.1,113.9,27.1H2318h163.5v-97.1H2318h-188.7c-48.7,0-95-23-130.4-64.8
				c-18-21.3-32.1-46.2-42.1-74c-10.5-29.3-15.8-60.4-15.8-92.7v-97.8v-85.1v-90.7V519.3v-80.9l-97.1-56.1v136.9V650.1z"/>
		</g>
		<g>
			<path class="st3" d="M797.2,1687.2h-23c-45.1,0-87.6-17.5-119.7-49.3c-32-31.8-49.9-74.2-50.2-119.3c-0.8-109.7-1-215.3-1-318
				h-54.6c-0.1,102.8,0.2,208.5,1,318.4c0.2,30.1,6.3,59.4,18.1,86.9c11.4,26.6,27.6,50.4,48.2,70.8c20.6,20.4,44.5,36.5,71.2,47.7
				c27.6,11.6,56.8,17.5,87,17.5h23V1687.2z"/>
		</g>
		<g>
			<path class="st4" d="M2248.9,1316.4c-32.4,0.2-62.8,13.1-85.7,36.1c-22.8,23-35.4,53.5-35.4,85.9v205.3h54.6v-205.3
				c0-17.9,7-34.8,19.6-47.5c12.6-12.7,29.4-19.8,47.3-19.9c37.4-0.3,74.5-0.6,111.3-0.8v-54.6
				C2323.7,1315.8,2286.4,1316.1,2248.9,1316.4z"/>
		</g>
		<g>
			<path class="st3" d="M184.8,1744.5V1461c0-21,3.8-40.8,11.5-59.4c7.7-18.6,18.2-34.6,31.5-48.2c13.5-13.7,29.6-24.6,47.2-32.1
				c18.2-7.9,37.6-11.8,58.2-11.8c20.6,0,39.9,3.9,57.9,11.8c35.8,15.5,64.2,44.4,79.1,80.6c7.7,18.4,11.5,38.1,11.5,59.1
				c0,21-3.7,40.7-11.2,59.1c-7.2,17.9-17.8,34.3-31.2,48.2c-13.5,13.8-29.5,24.8-47.3,32.4c-18.2,7.9-37.8,11.8-58.8,11.8
				c-25.8,0-49.9-6.1-72.1-18.2v-54.5c19.8,14.5,43.2,21.8,70.3,21.8c14.5,0,27.8-2.5,39.7-7.6c11.9-5,22-12,30.3-20.9
				c8.3-8.9,14.6-19.5,19.1-31.8c4.4-12.3,6.7-25.8,6.7-40.3c0-14.5-2.2-28-6.7-40.3c-4.5-12.3-10.7-22.9-18.8-31.8
				c-8.2-9-18.2-16.1-29.4-20.9c-11.5-5-24.5-7.6-39.1-7.6c-14.1,0-27,2.4-38.5,7.3c-11.3,4.7-21.4,11.7-29.7,20.6
				c-8.3,8.9-14.6,19.5-19.1,31.8c-4.4,12.3-6.7,25.9-6.7,40.9v283.5L184.8,1744.5z"/>
		</g>
		<g>
			<path class="st3" d="M927.4,1606.4H822.6c-44.8,0-76.9-6.7-96.3-20c-17.4-11.7-28.4-25.7-33-42.1c-4.6-16.4-7-37.9-7-64.5v-164.2
				h53.3v163.6c0,7.3,0.2,13.4,0.6,18.5c0.4,5,1.8,11.5,4.2,19.4c2.4,7.9,5.9,14.3,10.3,19.4c4.5,5,10.9,9.5,19.4,13.4
				c8.5,3.8,18.8,5.8,30.9,5.8h69.1v-239.9h53.3L927.4,1606.4z"/>
		</g>
		<g>
			<path class="st3" d="M1006.2,1315.7h267.1c28.7,0,51.5,5.5,68.5,16.4c17.4,10.9,28.8,25,34.2,42.4c5.5,17.4,8.2,38.2,8.2,62.4
				v169.6h-53.3v-169.6c0-31.5-9.5-52.3-28.5-62.4c-9.7-5.3-29.3-7.9-58.8-7.9h-24.8v239.9h-53.3v-239.9h-106v239.9h-53.3V1315.7z"
				/>
		</g>
		<g>
			<path class="st3" d="M1456.8,1182.4h54.5V1461c0,31.9,8.2,56.6,24.5,74.2s38.9,26.3,67.5,26.3c29.9,0,53.3-8.6,70.3-25.7
				c17-17.2,25.4-42.1,25.4-74.8c0-31.1-9.2-55.6-27.6-73.6c-18.4-18-42.5-27-72.4-27c-25.4,0-47.5,7.3-66,21.8v-54.5
				c22.2-12.1,46.2-18.2,72.1-18.2c42.8,0,78.2,13.8,106.3,41.5s42.1,64.3,42.1,109.9c0,48.1-14.6,85.3-43.9,111.8
				s-66.1,39.7-110.5,39.7c-42.4,0-76.7-13.7-103-41.2c-26.2-27.5-39.4-64.2-39.4-110.3L1456.8,1182.4z"/>
		</g>
		<g>
			<path class="st3" d="M1959.6,1309.6c68.7,2.8,103,31.3,103,85.4c0,67.4-44.2,101.2-132.7,101.2h-24.8v-46.6h29.1
				c27.1,0,45.8-4.1,56.3-12.4c10.5-8.3,15.8-22.1,15.8-41.5c0-12.5-4.7-21.9-14-28.2c-9.3-6.3-21.2-9.4-35.7-9.4
				c-28.7,0-51.2,10.1-67.5,30.3c-16.4,20.2-24.5,44.4-24.5,72.7c0,29.9,8.8,54.1,26.3,72.7c17.6,18.6,40.5,27.9,68.8,27.9
				c25.4,0,46.2-6.3,62.4-18.8l36.3,35.7c-27.9,22.6-60.8,33.9-98.7,33.9c-46,0-82.8-13.5-110.2-40.6c-27.5-27.1-41.2-62-41.2-104.8
				c0-47.6,13.5-86.2,40.6-115.7S1912.8,1308,1959.6,1309.6z"/>
		</g>
		<g>
			<polygon class="st5" points="2190,1748.7 2190,2283.2 2442.1,2137.7 2442.1,1748.7 			"/>
			<path class="st5" d="M848.8,1748.7v25.4c0,1-0.8,1.8-1.8,1.8h-51c-1,0-1.8-0.8-1.8-1.8v-122.4c0-1,0.8-1.8,1.8-1.8h51
				c1,0,1.8,0.8,1.8,1.8v27.6h1244.6c-0.1-0.2-0.1-0.4-0.1-0.6V1618c0-1,0.8-1.8,1.8-1.8h122.4c1,0,1.8,0.8,1.8,1.8v60.7
				c0,0.2,0,0.4-0.1,0.6h222.9v-302.7h-40v25.2c0,1-0.8,1.8-1.8,1.8h-51c-1,0-1.8-0.8-1.8-1.8v-122.4c0-1,0.8-1.8,1.8-1.8h51
				c1,0,1.8,0.8,1.8,1.8v30h40V773.3l-920.9-531.7v907.4H1454V202.8L1260.5,91.1L658.6,438.6l-49.5,28.6v681.9h28.2
				c1,0,1.8,0.8,1.8,1.8v51c0,1-0.8,1.8-1.8,1.8H514.9c-1,0-1.8-0.8-1.8-1.8v-51c0-1,0.8-1.8,1.8-1.8h27V506l-463,267.3v1364.4
				l99.4,57.4v-396.8H152c-1,0-1.8-0.8-1.8-1.8v-51c0-1,0.8-1.8,1.8-1.8h122.4c1,0,1.8,0.8,1.8,1.8v51c0,1-0.8,1.8-1.8,1.8h-28.8
				v435.6l1014.9,586l861.6-497.4v-573.8H848.8z M1424.6,1150.8c0-1,0.8-1.8,1.8-1.8h122.4c1,0,1.8,0.8,1.8,1.8v51
				c0,1-0.8,1.8-1.8,1.8h-122.4c-1,0-1.8-0.8-1.8-1.8V1150.8z"/>
			<path class="st6" d="M2442.1,1748.7v-69.4h-222.9c0.1-0.2,0.1-0.4,0.1-0.6V1618c0-1-0.8-1.8-1.8-1.8h-122.4c-1,0-1.8,0.8-1.8,1.8
				v60.7c0,0.2,0,0.4,0.1,0.6H848.8v-27.6c0-1-0.8-1.8-1.8-1.8h-51c-1,0-1.8,0.8-1.8,1.8v122.4c0,1,0.8,1.8,1.8,1.8h51
				c1,0,1.8-0.8,1.8-1.8v-25.4h1273.3v573.8l67.9-39.2v-534.6H2442.1z"/>
			<polygon class="st6" points="1521.2,1149.1 1521.2,241.6 1454,202.8 1454,1149.1 			"/>
			<path class="st7" d="M1260.5,0L0,727.8v1455.5l1240.8,716.4l19.7,11.4L2521,2183.3V727.8L1260.5,0z M2190,2283.2l-67.9,39.2
				l-861.6,497.4l-1014.9-586l-67.2-38.8l-99.4-57.4V773.3l463-267.3l67.2-38.8l49.5-28.6l601.9-347.5L1454,202.8l67.2,38.8
				l920.9,531.7v536.1v67.2v302.7v69.4v389L2190,2283.2z"/>
			<path class="st6" d="M514.9,1149.1c-1,0-1.8,0.8-1.8,1.8v51c0,1,0.8,1.8,1.8,1.8h122.4c1,0,1.8-0.8,1.8-1.8v-51
				c0-1-0.8-1.8-1.8-1.8h-28.2V467.2L541.9,506v643H514.9z"/>
			<path class="st6" d="M2402.1,1279.3c0-1-0.8-1.8-1.8-1.8h-51c-1,0-1.8,0.8-1.8,1.8v122.4c0,1,0.8,1.8,1.8,1.8h51
				c1,0,1.8-0.8,1.8-1.8v-25.2h40v-67.2h-40V1279.3z"/>
			<path class="st6" d="M274.4,1798.3c1,0,1.8-0.8,1.8-1.8v-51c0-1-0.8-1.8-1.8-1.8H152c-1,0-1.8,0.8-1.8,1.8v51
				c0,1,0.8,1.8,1.8,1.8h26.4v396.8l67.2,38.8v-435.6H274.4z"/>
			<path class="st6" d="M1426.4,1203.6h122.4c1,0,1.8-0.8,1.8-1.8v-51c0-1-0.8-1.8-1.8-1.8h-122.4c-1,0-1.8,0.8-1.8,1.8v51
				C1424.6,1202.8,1425.4,1203.6,1426.4,1203.6z"/>
		</g>
	</g>
</g>
</svg>
