<?xml version="1.0" encoding="UTF-8" standalone="no"?> <!-- Created with Vectornator for iOS (http://vectornator.io/) --><!DOCTYPE svg PUBLIC "-//W3C//DTD SVG 1.1//EN" "http://www.w3.org/Graphics/SVG/1.1/DTD/svg11.dtd">
<svg height="100%" style="fill-rule:nonzero;clip-rule:evenodd;stroke-linecap:round;stroke-linejoin:round;" xmlns:xlink="http://www.w3.org/1999/xlink" xmlns="http://www.w3.org/2000/svg" xml:space="preserve" width="100%" xmlns:vectornator="http://vectornator.io" version="1.1" viewBox="0 0 4153.42 4795.93">
<metadata>
<vectornator:setting key="DimensionsVisible" value="1"/>
<vectornator:setting key="PencilOnly" value="0"/>
<vectornator:setting key="SnapToPoints" value="0"/>
<vectornator:setting key="OutlineMode" value="0"/>
<vectornator:setting key="CMYKEnabledKey" value="0"/>
<vectornator:setting key="RulersVisible" value="1"/>
<vectornator:setting key="SnapToEdges" value="0"/>
<vectornator:setting key="GuidesVisible" value="1"/>
<vectornator:setting key="DisplayWhiteBackground" value="0"/>
<vectornator:setting key="doHistoryDisabled" value="0"/>
<vectornator:setting key="SnapToGuides" value="1"/>
<vectornator:setting key="TimeLapseWatermarkDisabled" value="0"/>
<vectornator:setting key="Units" value="Points"/>
<vectornator:setting key="DynamicGuides" value="0"/>
<vectornator:setting key="IsolateActiveLayer" value="0"/>
<vectornator:setting key="SnapToGrid" value="0"/>
</metadata>
<defs>
<path d="M814.585+1103.92L1659.49+1103.92L1659.49+2479.97L814.585+2479.97L814.585+1103.92Z" id="Mask"/>
<path d="M109.181+3204.15L2198.56+3204.15L2198.56+3774.94L109.181+3774.94L109.181+3204.15Z" id="Mask_2"/>
<path d="M3295.6+1575.98L4006.31+1575.98L4006.31+2215.32L3295.6+2215.32L3295.6+1575.98Z" id="Mask_3"/>
</defs>
<g id="Border" vectornator:layerName="Border">
<path stroke="#63a5b9" stroke-width="104" d="M4091.35+3572.77L4091.35+1249.89L2079.68+88.4352L1055.52+679.735L68.0048+1249.89L68.0048+3572.77L2079.68+4734.21L4091.35+3572.77Z" fill="#87c9d8" stroke-linecap="butt" opacity="1" stroke-linejoin="miter"/>
</g>
<g id="Pipes" vectornator:layerName="Pipes" visibility="hidden">
<path d="M3025.97+59.6005L3025.97+5059.6L3025.97+5059.6L2831.68+5059.6L2831.68+5059.6L2831.68+59.6005L2831.68+59.6005L3025.97+59.6005L3025.97+59.6005Z" opacity="1" fill="#45889f"/>
<path d="M694.8-75.9501L694.8+4924.05L694.8+4924.05L500.51+4924.05L500.51+4924.05L500.51-75.9501L500.51-75.9501L694.8-75.9501L694.8-75.9501Z" opacity="1" fill="#63a5b9"/>
<path d="M-152.95+3707.94L4847.05+3707.94L4847.05+3707.94L4847.05+3848.07L4847.05+3848.07L-152.95+3848.07L-152.95+3848.07L-152.95+3707.94L-152.95+3707.94Z" opacity="1" fill="#63a5b9"/>
<path d="M-388.487+3322.37L4611.51+3322.37L4611.51+3322.37L4611.51+3449.09L4611.51+3449.09L-388.487+3449.09L-388.487+3449.09L-388.487+3322.37L-388.487+3322.37Z" opacity="1" fill="#63a5b9"/>
<path d="M-325.52+4140.54L4674.48+4140.54L4674.48+4140.54L4674.48+4334.38L4674.48+4334.38L-325.52+4334.38L-325.52+4334.38L-325.52+4140.54L-325.52+4140.54Z" opacity="1" fill="#45889f"/>
<path stroke="#63a5b9" stroke-width="90" d="M1350.86-1552.82L1350.86+2008.94C1350.86+2273.77+1576.63+2488.45+1855.14+2488.45L1855.14+2488.45C2134.44+2488.45+2360.54+2272.59+2359.41+2007L2344.32-1552.8" fill="none" stroke-linecap="butt" opacity="1" stroke-linejoin="miter"/>
<path d="M-426.32+855.64L4573.68+855.64L4573.68+855.64L4573.68+1071.02L4573.68+1071.02L-426.32+1071.02L-426.32+1071.02L-426.32+855.64L-426.32+855.64Z" opacity="1" fill="#45889f"/>
<path d="M-407.914+1218.92L4592.09+1218.92L4592.09+1218.92L4592.09+1359.05L4592.09+1359.05L-407.914+1359.05L-407.914+1359.05L-407.914+1218.92L-407.914+1218.92Z" opacity="1" fill="#45889f"/>
</g>
<g id="Main Text and Pipes" vectornator:layerName="Main Text and Pipes">
<g opacity="1" vectornator:mask="#Mask">
<clipPath id="ClipPath">
<use xlink:href="#Mask" fill="none" overflow="visible"/>
</clipPath>
<g clip-path="url(#ClipPath)">
<path stroke="#e8762c" stroke-width="90" d="M1009.35-391.886C1015.8+406.673+1005.02+1028.8+1008.41+1778.61C1008.66+1833.49+1008.98+1889.04+1009.4+1945.4C1010.29+2069.48+1080.67+2176.89+1183.46+2230.84C1228.52+2254.5+1279.82+2267.87+1334.22+2267.87L4288.03+2267.87" fill="none" stroke-linecap="butt" opacity="1" stroke-linejoin="miter"/>
</g>
</g>
<g opacity="1" vectornator:mask="#Mask_2">
<clipPath id="ClipPath_2">
<use xlink:href="#Mask_2" fill="none" overflow="visible"/>
</clipPath>
<g clip-path="url(#ClipPath_2)">
<path stroke="#63a5b9" stroke-width="90" d="M398.461+979.046C404.918+1777.61+394.132+2399.73+397.526+3149.55C397.774+3204.42+398.098+3259.98+398.511+3316.34C399.408+3440.41+469.786+3547.82+572.574+3601.78C617.638+3625.43+668.932+3638.81+723.331+3638.81L3677.14+3638.81" fill="none" stroke-linecap="butt" opacity="1" stroke-linejoin="miter"/>
</g>
</g>
<g opacity="1">
<path d="M2136.14+2585.25L2207.64+2585.25L2207.64+3218.91L2136.14+3218.91L2136.14+2585.25ZM1544.17+2651.95L1616.92+2651.95L1616.92+2739.91C1616.92+2822.45+1617.34+2827.46+1620.88+2826.41C1623.17+2825.58+1634.01+2822.66+1645.06+2819.54C1658.19+2815.99+1674.03+2813.7+1690.91+2812.66C1710.09+2811.82+1721.35+2812.45+1735.52+2815.16C1747.61+2817.45+1761.99+2822.45+1774.71+2828.71C1785.75+2834.13+1800.35+2843.3+1807.22+2849.34C1813.89+2855.18+1824.52+2867.48+1830.57+2876.65C1836.82+2885.82+1844.53+2900.41+1847.87+2909.37C1851.41+2918.13+1855.79+2934.59+1857.87+2946.06C1860.38+2961.07+1861+2973.99+1860.17+2994.42C1859.54+3009.63+1857.25+3028.6+1855.17+3036.52C1853.29+3044.44+1848.29+3057.99+1844.33+3066.54C1840.37+3075.08+1832.45+3088.21+1826.82+3095.51C1821.4+3102.81+1810.35+3113.64+1802.43+3119.69C1794.72+3125.73+1780.54+3134.07+1771.37+3138.24C1762.2+3142.62+1746.99+3148.04+1737.81+3150.54C1723.43+3154.5+1714.26+3155.12+1672.99+3155.33C1634.01+3155.54+1621.3+3154.71+1605.87+3151.37C1595.45+3149.08+1578.15+3144.7+1567.73+3141.78C1557.31+3138.87+1548.13+3135.53+1547.3+3134.7C1546.47+3133.86+1545.42+3025.06+1545.01+2892.7L1544.17+2651.95ZM1634.84+2889.16L1618.17+2894.99L1618.17+3079.88C1653.19+3089.05+1660.69+3089.67+1684.04+3089.05C1706.96+3088.42+1714.47+3087.38+1725.52+3083.21C1732.81+3080.29+1743.02+3074.87+1747.82+3070.91C1752.82+3067.16+1759.91+3060.08+1763.66+3055.28C1767.41+3050.49+1772.83+3040.48+1775.54+3033.19C1778.46+3025.89+1781.79+3011.93+1783.05+3002.13C1784.92+2988.79+1784.92+2979.62+1782.84+2965.44C1781.17+2952.73+1777.63+2941.27+1772.41+2930.43C1768.25+2921.46+1760.95+2910.42+1756.36+2905.83C1751.78+2901.24+1743.44+2894.78+1737.81+2891.66C1732.39+2888.32+1721.76+2884.15+1714.26+2882.28C1706.96+2880.19+1693.83+2878.73+1685.29+2878.94C1676.74+2879.15+1665.49+2880.19+1660.69+2881.23C1655.69+2882.28+1644.22+2885.82+1634.84+2889.16ZM359.612+2674.25L431.106+2674.25L431.106+2876.44L623.496+2876.44L623.496+2943.14L431.106+2943.14L431.106+3160.96L359.612+3160.96L359.612+2943.14L167.222+2943.14L167.222+2876.44L359.612+2876.44L359.612+2674.25Z" opacity="1" fill="#26569a"/>
<path d="M1127.09+2809.74L1198.58+2809.74L1198.58+2941.47C1198.58+3014.01+1197.75+3087.59+1195.25+3136.78L1177.32+3142.2C1167.52+3145.12+1146.89+3149.7+1131.46+3152.41C1107.91+3156.37+1097.28+3156.79+1063.3+3155.96C1031.83+3155.12+1019.11+3153.87+1005.15+3150.33C995.144+3147.62+978.052+3141.16+967.004+3135.74C955.332+3129.9+941.366+3120.73+933.446+3113.85C926.15+3107.18+915.728+3095.3+910.726+3087.59C905.515+3079.67+898.636+3067.16+895.718+3059.87C892.8+3052.57+888.423+3037.98+886.338+3027.77C883.42+3012.76+882.795+3001.71+883.629+2975.45C884.671+2950.23+886.13+2937.93+889.673+2925.42C892.383+2916.25+898.636+2901.24+903.43+2892.07C908.224+2882.9+917.813+2868.94+924.9+2861.22C932.195+2853.3+944.076+2842.88+951.371+2837.88C958.667+2833.08+970.756+2826.62+978.26+2823.71C985.556+2820.79+998.896+2816.83+1007.86+2815.16C1016.82+2813.49+1033.5+2812.03+1044.75+2812.03C1056.22+2812.03+1072.47+2813.7+1081.23+2815.37C1089.78+2817.24+1103.32+2821.83+1111.45+2825.58C1119.37+2829.12+1126.25+2832.25+1126.46+2832.04C1126.67+2832.04+1127.09+2827.04+1127.09+2821L1127.09+2809.74ZM1005.36+2891.66C999.313+2894.99+990.558+2901.87+985.764+2907.08C980.97+2912.29+974.508+2921.46+971.59+2927.72C968.464+2933.76+964.503+2945.02+962.627+2952.73C960.751+2960.23+959.292+2973.99+959.292+2983.16C959.292+2992.33+960.334+3005.88+961.585+3013.18C963.044+3020.47+966.796+3032.56+970.339+3039.86C974.508+3048.61+981.178+3057.57+989.724+3065.5C998.062+3073.21+1007.86+3079.67+1016.4+3083C1026.83+3087.17+1035.16+3088.42+1056.63+3089.47C1071.85+3090.09+1091.03+3089.26+1101.24+3087.8C1111.04+3086.34+1120.21+3084.46+1121.67+3083.63C1123.33+3082.59+1124.58+3053.61+1125.63+2991.5L1127.09+2901.04C1108.74+2891.03+1098.53+2886.45+1092.28+2884.36C1086.23+2882.07+1072.06+2879.98+1061.01+2879.57C1047.25+2878.94+1037.04+2879.78+1028.49+2882.28C1021.82+2884.15+1011.4+2888.32+1005.36+2891.66ZM3339.88+2809.74L3411.37+2809.74L3411.37+2921.46C3411.37+2982.95+3410.75+3056.53+3408.04+3136.78L3390.11+3142.2C3380.32+3145.12+3360.52+3149.7+3345.92+3152C3327.37+3155.33+3309.66+3156.58+3285.69+3156.58C3266.72+3156.58+3244.83+3155.54+3236.91+3154.29C3228.99+3152.83+3213.36+3148.87+3202.31+3145.33C3190.43+3141.58+3175+3134.28+3165.42+3128.03C3156.04+3121.98+3143.11+3111.35+3136.44+3104.06C3129.98+3096.97+3120.81+3084.46+3116.43+3076.54C3112.06+3068.62+3106.01+3054.03+3103.09+3044.44C3098.72+3030.48+3097.46+3019.64+3096.42+2994.42C3095.8+2974.2+3096.42+2956.27+3098.09+2946.48C3099.55+2937.93+3103.3+2923.55+3106.43+2914.38C3109.35+2905.21+3116.22+2890.61+3121.64+2882.07C3126.85+2873.52+3138.11+2859.97+3146.66+2852.05C3156.24+2843.3+3168.75+2834.34+3178.96+2829.33C3188.14+2824.96+3201.48+2819.54+3208.98+2817.45C3216.28+2815.58+3234.41+2813.28+3249.21+2812.66C3269.01+2811.82+3280.47+2812.66+3292.77+2815.16C3302.15+2817.24+3316.12+2821.83+3324.25+2825.58C3332.17+2829.12+3339.05+2832.25+3339.25+2832.04C3339.67+2832.04+3339.88+2827.04+3339.88+2821L3339.88+2809.74ZM3218.15+2891.66C3212.11+2894.99+3203.35+2901.87+3198.56+2907.08C3193.76+2912.29+3187.51+2921.46+3184.38+2927.72C3181.26+2933.76+3177.3+2945.02+3175.42+2952.73C3173.55+2960.23+3172.09+2975.03+3172.09+2985.45C3172.09+2995.88+3173.55+3010.68+3175.42+3018.18C3177.3+3025.89+3180.84+3036.31+3183.55+3041.52C3186.26+3046.74+3193.14+3055.91+3198.77+3061.74C3204.39+3067.79+3213.57+3074.87+3218.99+3077.58C3224.61+3080.5+3234.62+3084.46+3241.5+3086.34C3249.21+3088.63+3261.92+3089.88+3276.72+3089.88C3289.23+3089.88+3306.95+3088.84+3315.7+3087.59C3324.66+3086.34+3333.21+3084.46+3334.46+3083.63C3336.34+3082.59+3337.38+3055.7+3338+2991.29L3338.63+2900.2C3316.12+2888.74+3303.61+2883.94+3296.11+2882.07C3288.81+2880.19+3276.31+2878.73+3268.18+2878.94C3260.26+2878.94+3248.17+2880.61+3241.5+2882.28C3234.62+2884.15+3224.2+2888.32+3218.15+2891.66ZM2668.7+2813.07C2681.63+2813.7+2698.09+2815.78+2705.6+2817.66C2712.89+2819.54+2724.98+2823.91+2732.28+2827.46C2739.78+2830.79+2751.87+2838.09+2759.17+2843.72C2766.67+2849.34+2777.09+2859.77+2782.51+2866.85C2787.93+2873.94+2795.64+2886.86+2799.81+2895.41C2803.98+2903.95+2809.4+2918.96+2811.9+2928.76C2814.4+2938.56+2817.32+2958.36+2819.62+2998.79L2572.41+2998.79L2573.86+3007.13C2574.49+3011.72+2577.2+3021.51+2579.28+3028.81C2581.58+3036.11+2587.41+3047.57+2592+3054.03C2596.58+3060.49+2603.46+3068.2+2607.01+3070.91C2610.76+3073.62+2618.26+3078.21+2623.89+3081.13C2629.31+3083.84+2638.9+3087.38+2645.15+3089.05C2651.4+3090.72+2668.08+3092.18+2683.09+3092.18C2697.89+3092.18+2719.15+3090.72+2730.19+3088.84C2741.24+3086.96+2756.87+3083.21+2764.8+3080.71C2772.72+3078.21+2783.14+3074.25+2787.72+3071.96C2792.31+3069.66+2797.1+3067.58+2798.35+3067.58C2799.81+3067.58+2800.65+3080.29+2800.65+3134.28L2788.35+3139.91C2781.47+3143.03+2767.3+3148.04+2756.46+3151.16C2745.62+3154.08+2725.82+3157.83+2712.27+3159.29C2693.72+3161.17+2681.21+3161.17+2661.83+3159.29C2647.65+3157.83+2627.02+3154.08+2615.97+3150.96C2604.92+3147.83+2588.87+3141.58+2580.53+3136.99C2571.99+3132.4+2557.61+3121.77+2548.44+3113.23C2539.06+3104.68+2527.38+3090.72+2521.96+3082.17C2516.54+3073.62+2509.87+3059.03+2506.75+3049.86C2503.62+3040.69+2499.87+3024.64+2498.41+3014.43C2496.74+3002.96+2496.33+2986.91+2497.16+2974.41C2497.78+2962.73+2500.49+2945.23+2503+2935.43C2505.5+2925.63+2511.54+2909.58+2516.34+2899.79C2521.13+2889.99+2530.09+2876.02+2535.93+2868.73C2541.97+2861.43+2553.85+2850.18+2562.4+2843.72C2570.95+2837.25+2585.33+2829.12+2594.29+2825.37C2605.17+2821.07+2616.39+2817.72+2627.85+2815.37C2639.31+2813.28+2653.07+2812.45+2668.7+2813.07ZM2619.72+2892.7C2613.05+2896.66+2603.67+2904.37+2598.67+2909.79C2593.88+2915.42+2587.41+2924.59+2584.5+2930.43C2581.58+2936.26+2579.08+2941.89+2579.08+2943.14C2579.08+2944.6+2607.22+2945.43+2659.12+2945.43L2739.16+2945.43C2736.86+2928.97+2734.78+2920.84+2733.11+2916.46C2731.24+2912.29+2725.82+2904.37+2721.02+2899.16C2715.19+2892.7+2708.1+2888.11+2699.97+2884.99C2693.09+2882.69+2680.59+2880.19+2672.04+2879.57C2662.03+2879.15+2651.82+2879.98+2643.9+2882.07C2637.23+2883.94+2626.39+2888.74+2619.72+2892.7ZM3688.6+2818.7L3762.8+2818.7L3762.6+2930.43C3762.6+3035.69+3762.8+3042.98+3766.97+3056.53C3769.68+3064.87+3774.68+3074.67+3778.85+3079.67C3782.81+3084.25+3791.15+3090.51+3797.4+3093.43C3803.45+3096.34+3815.12+3099.68+3823.04+3100.72C3831.59+3101.97+3843.68+3101.97+3852.22+3100.72C3860.15+3099.68+3871.82+3096.34+3877.86+3093.43C3884.12+3090.51+3892.45+3084.25+3896.41+3079.67C3900.58+3074.67+3905.79+3064.87+3908.29+3056.53C3912.46+3042.98+3912.67+3035.69+3912.67+2818.7L3985.83+2818.7L3985.42+2939.39C3985.21+3053.61+3985+3060.49+3980.83+3073.21C3978.33+3080.5+3973.12+3091.55+3969.16+3097.59C3965.2+3103.85+3958.32+3112.39+3953.53+3116.98C3948.94+3121.57+3938.94+3128.86+3931.64+3133.24C3924.34+3137.62+3910.17+3143.66+3900.37+3146.79C3889.12+3150.33+3874.11+3153.04+3860.15+3154.08C3847.64+3154.71+3827.63+3154.71+3815.33+3153.87C3801.37+3153.04+3786.15+3150.33+3775.1+3146.79C3764.21+3143.26+3753.67+3138.73+3743.63+3133.24C3736.33+3128.86+3726.54+3121.57+3721.74+3116.98C3717.16+3112.39+3710.07+3103.85+3706.11+3097.59C3702.36+3091.55+3697.15+3080.5+3694.64+3073.21C3690.27+3060.7+3690.06+3052.99+3689.43+2939.39L3688.6+2818.7Z" opacity="1" fill="#26569a"/>
</g>
<g opacity="1" vectornator:mask="#Mask_3">
<clipPath id="ClipPath_3">
<use xlink:href="#Mask_3" fill="none" overflow="visible"/>
</clipPath>
<g clip-path="url(#ClipPath_3)">
<path stroke="#e8762c" stroke-width="90" d="M6327.97+1646.6C5413.61+1654+4656.3+1656.73+3757.89+1663.6C3672.2+1664.26+3603.07+1733.9+3603.04+1819.6L3603.04+4941" fill="none" stroke-linecap="butt" opacity="1" stroke-linejoin="miter"/>
</g>
</g>
<path d="M3274.29+1614.4C3387.4+1619.07+3443.95+1665.98+3443.95+1755.12C3443.95+1866.24+3371.09+1921.8+3225.39+1921.79L3184.47+1921.79L3184.47+1844.94L3232.38+1844.94C3276.95+1844.94+3307.89+1838.12+3325.19+1824.48C3342.49+1810.84+3351.15+1788.06+3351.19+1756.12C3351.19+1735.5+3343.52+1720.03+3328.19+1709.71C3312.85+1699.39+3293.22+1694.24+3269.3+1694.24C3222.06+1694.24+3184.97+1710.88+3158.03+1744.14C3131.09+1777.41+3117.61+1817.33+3117.61+1863.9C3117.61+1913.16+3132.08+1953.08+3161.02+1983.66C3189.96+2014.25+3227.71+2029.55+3274.29+2029.57C3316.21+2029.57+3350.47+2019.26+3377.09+1998.63L3436.97+2057.51C3391.05+2094.79+3336.83+2113.42+3274.29+2113.4C3198.45+2113.4+3137.9+2091.12+3092.66+2046.54C3047.41+2001.97+3024.8+1944.42+3024.82+1873.88C3024.82+1795.38+3047.11+1731.84+3091.69+1683.26C3136.27+1634.68+3197.13+1611.73+3274.29+1614.4Z" opacity="1" fill="#e8762c"/>
<path d="M2445.97+1404.79L2535.82+1404.79L2535.82+1863.87C2535.82+1916.44+2549.29+1957.19+2576.24+1986.13C2603.18+2015.07+2640.27+2029.54+2687.51+2029.54C2736.74+2029.54+2775.33+2015.41+2803.28+1987.13C2831.22+1958.86+2845.2+1917.77+2845.2+1863.87C2845.2+1812.65+2830.06+1772.24+2799.79+1742.62C2769.51+1713.01+2729.76+1698.2+2680.53+1698.2C2638.61+1698.2+2602.35+1710.18+2571.75+1734.13L2571.75+1644.31C2608.33+1624.35+2647.91+1614.37+2690.51+1614.37C2761.02+1614.37+2819.4+1637.16+2865.66+1682.74C2911.91+1728.32+2935.03+1788.7+2935.02+1863.87C2935.02+1943.07+2910.9+2004.44+2862.66+2048C2814.42+2091.56+2753.71+2113.35+2680.53+2113.37C2610.67+2113.37+2554.11+2090.75+2510.87+2045.51C2467.62+2000.27+2446+1939.73+2446+1863.87L2445.97+1404.79Z" opacity="1" fill="#e8762c"/>
<path d="M1703.46+1624.38L2143.58+1624.38C2190.8+1624.38+2228.4+1633.37+2256.36+1651.33C2284.95+1669.29+2303.74+1692.58+2312.74+1721.19C2321.73+1749.81+2326.22+1784.07+2326.22+1823.98L2326.22+2103.42L2238.39+2103.42L2238.39+1823.98C2238.39+1772.1+2222.75+1737.83+2191.49+1721.19C2175.49+1712.53+2143.22+1708.19+2094.68+1708.19L2053.76+1708.19L2053.76+2103.4L1965.94+2103.4L1965.94+1708.21L1791.29+1708.21L1791.29+2103.42L1703.46+2103.42L1703.46+1624.38Z" opacity="1" fill="#e8762c"/>
<path d="M1573.73+2103.42L1401.07+2103.42C1327.22+2103.42+1274.33+2092.45+1242.39+2070.49C1213.78+2051.21+1195.65+2028.09+1188+2001.13C1180.34+1974.18+1176.52+1938.75+1176.52+1894.84L1176.52+1624.38L1264.35+1624.38L1264.35+1893.84C1264.35+1905.84+1264.68+1915.99+1265.35+1924.28C1266.01+1932.58+1268.35+1943.22+1272.35+1956.22C1276.35+1969.2+1282.01+1979.84+1289.35+1988.15C1296.68+1996.47+1307.32+2003.8+1321.28+2010.15C1335.28+2016.48+1352.24+2019.64+1372.18+2019.63L1485.95+2019.63L1485.95+1624.38L1573.78+1624.38L1573.73+2103.42Z" opacity="1" fill="#e8762c"/>
<path d="M350.208+2330.97L350.208+1863.9C350.208+1829.32+356.541+1796.72+369.208+1766.1C381.875+1735.48+399.175+1709.04+421.108+1686.76C443.383+1664.26+469.82+1646.29+498.948+1633.86C528.888+1620.89+560.825+1614.4+594.758+1614.4C628.691+1614.4+660.461+1620.89+690.068+1633.86C749.111+1659.46+795.838+1707.09+820.308+1766.6C832.935+1796.88+839.268+1829.32+839.308+1863.9C839.348+1898.49+833.185+1930.93+820.818+1961.21C808.989+1990.74+791.532+2017.69+769.418+2040.55C747.25+2063.32+720.79+2081.47+691.568+2093.94C661.628+2106.92+629.361+2113.41+594.768+2113.4C552.181+2113.4+512.595+2103.42+476.008+2083.46L476.008+1993.64C508.601+2017.6+547.188+2029.57+591.768+2029.57C615.728+2029.57+637.518+2025.42+657.138+2017.1C676.758+2008.79+693.391+1997.31+707.038+1982.67C720.671+1968.04+731.151+1950.57+738.478+1930.27C745.805+1909.97+749.471+1887.85+749.478+1863.9C749.478+1839.95+745.811+1817.83+738.478+1797.54C731.145+1777.26+720.831+1759.79+707.538+1745.14C694.024+1730.37+677.527+1718.64+659.138+1710.71C640.178+1702.4+618.721+1698.24+594.768+1698.23C571.468+1698.23+550.345+1702.23+531.398+1710.23C512.859+1717.92+496.182+1729.49+482.488+1744.16C468.848+1758.83+458.371+1776.3+451.058+1796.56C443.745+1816.83+440.078+1839.28+440.058+1863.92L440.058+2330.99L350.208+2330.97Z" opacity="1" fill="#e8762c"/>
<path d="M338.519+2338.54L449.239+2338.54L449.239+2338.54L449.239+2658.35L449.239+2658.35L338.519+2658.35L338.519+2658.35L338.519+2338.54L338.519+2338.54Z" opacity="1" fill="#63a5b9"/>
<path d="M496.73+2356.07L295.03+2356.07C293.411+2356.07+292.1+2354.76+292.1+2353.14L292.1+2269.08C292.1+2267.47+293.411+2266.15+295.03+2266.15L496.73+2266.15C498.348+2266.15+499.66+2267.47+499.66+2269.08L499.66+2353.14C499.66+2354.76+498.348+2356.07+496.73+2356.07Z" opacity="1" fill="#63a5b9"/>
<path d="M496.73+2698.82L295.03+2698.82C293.411+2698.82+292.1+2697.51+292.1+2695.89L292.1+2611.83C292.1+2610.21+293.411+2608.9+295.03+2608.9L496.73+2608.9C498.348+2608.9+499.66+2610.21+499.66+2611.83L499.66+2695.89C499.66+2697.51+498.348+2698.82+496.73+2698.82Z" opacity="1" fill="#63a5b9"/>
<path d="M496.73+3217.76L295.03+3217.76C293.411+3217.76+292.1+3216.45+292.1+3214.83L292.1+3130.77C292.1+3129.16+293.411+3127.84+295.03+3127.84L496.73+3127.84C498.348+3127.84+499.66+3129.16+499.66+3130.77L499.66+3214.83C499.66+3216.45+498.348+3217.76+496.73+3217.76Z" opacity="1" fill="#63a5b9"/>
<path d="M3935.21+1717.09L3935.21+1606.37L3935.21+1606.37L4107.92+1606.37L4107.92+1606.37L4107.92+1717.09L4107.92+1717.09L3935.21+1717.09L3935.21+1717.09Z" opacity="1" fill="#63a5b9"/>
<path d="M3952.74+1558.88L3952.74+1760.58C3952.74+1762.2+3951.43+1763.51+3949.81+1763.51L3865.75+1763.51C3864.13+1763.51+3862.82+1762.2+3862.82+1760.58L3862.82+1558.88C3862.82+1557.26+3864.13+1555.95+3865.75+1555.95L3949.81+1555.95C3951.43+1555.95+3952.74+1557.26+3952.74+1558.88Z" opacity="1" fill="#63a5b9"/>
<path d="M3698.54+2230.63L3496.84+2230.63C3495.22+2230.63+3493.91+2229.32+3493.91+2227.7L3493.91+2143.64C3493.91+2142.02+3495.22+2140.71+3496.84+2140.71L3698.54+2140.71C3700.16+2140.71+3701.47+2142.02+3701.47+2143.64L3701.47+2227.7C3701.47+2229.32+3700.16+2230.63+3698.54+2230.63Z" opacity="1" fill="#63a5b9"/>
<path d="M943.578+701.939L1054.3+701.939L1054.3+701.939L1054.3+1281.22L1054.3+1281.22L943.578+1281.22L943.578+1281.22L943.578+701.939L943.578+701.939Z" opacity="1" fill="#63a5b9"/>
<path d="M899.078+1231.89L1100.78+1231.89C1102.4+1231.89+1103.71+1233.2+1103.71+1234.82L1103.71+1318.88C1103.71+1320.5+1102.4+1321.81+1100.78+1321.81L899.078+1321.81C897.46+1321.81+896.148+1320.5+896.148+1318.88L896.148+1234.82C896.148+1233.2+897.46+1231.89+899.078+1231.89Z" opacity="1" fill="#63a5b9"/>
<path d="M2430.49+309.79L2541.21+309.79L2541.21+309.79L2541.21+1431.92L2541.21+1431.92L2430.49+1431.92L2430.49+1431.92L2430.49+309.79L2430.49+309.79Z" opacity="1" fill="#63a5b9"/>
<path d="M2384.99+1390.93L2586.69+1390.93C2588.31+1390.93+2589.62+1392.25+2589.62+1393.86L2589.62+1477.92C2589.62+1479.54+2588.31+1480.85+2586.69+1480.85L2384.99+1480.85C2383.38+1480.85+2382.06+1479.54+2382.06+1477.92L2382.06+1393.86C2382.06+1392.25+2383.38+1390.93+2384.99+1390.93Z" opacity="1" fill="#63a5b9"/>
<path d="M2232.1+2570.49L2121.38+2570.49L2121.38+2570.49L2121.38+2345.93L2121.38+2345.93L2232.1+2345.93L2232.1+2345.93L2232.1+2570.49L2232.1+2570.49Z" opacity="1" fill="#63a5b9"/>
<path d="M2232.1+4700.59L2121.38+4700.59L2121.38+4700.59L2121.38+3293.9L2121.38+3293.9L2232.1+3293.9L2232.1+3293.9L2232.1+4700.59L2232.1+4700.59Z" opacity="1" fill="#63a5b9"/>
<path d="M2277.6+2392.35L2075.9+2392.35C2074.28+2392.35+2072.97+2391.04+2072.97+2389.42L2072.97+2305.36C2072.97+2303.74+2074.28+2302.43+2075.9+2302.43L2277.6+2302.43C2279.22+2302.43+2280.53+2303.74+2280.53+2305.36L2280.53+2389.42C2280.53+2391.04+2279.22+2392.35+2277.6+2392.35Z" opacity="1" fill="#63a5b9"/>
<path d="M2277.6+3293.9L2075.9+3293.9C2074.28+3293.9+2072.97+3292.59+2072.97+3290.97L2072.97+3206.91C2072.97+3205.29+2074.28+3203.98+2075.9+3203.98L2277.6+3203.98C2279.22+3203.98+2280.53+3205.29+2280.53+3206.91L2280.53+3290.97C2280.53+3292.59+2279.22+3293.9+2277.6+3293.9Z" opacity="1" fill="#63a5b9"/>
<path d="M2277.6+2601.58L2075.9+2601.58C2074.28+2601.58+2072.97+2600.27+2072.97+2598.65L2072.97+2514.59C2072.97+2512.97+2074.28+2511.66+2075.9+2511.66L2277.6+2511.66C2279.22+2511.66+2280.53+2512.97+2280.53+2514.59L2280.53+2598.65C2280.53+2600.27+2279.22+2601.58+2277.6+2601.58Z" opacity="1" fill="#63a5b9"/>
<path d="M4107.71+2211.32L4107.71+2325.66L4107.71+2325.66L1462.73+2325.66L1462.73+2325.66L1462.73+2211.32L1462.73+2211.32L4107.71+2211.32L4107.71+2211.32Z" opacity="1" fill="#63a5b9"/>
<path d="M1462.73+2165.84L1462.73+2367.54C1462.73+2369.16+1461.42+2370.47+1459.8+2370.47L1375.74+2370.47C1374.12+2370.47+1372.81+2369.16+1372.81+2367.54L1372.81+2165.84C1372.81+2164.22+1374.12+2162.91+1375.74+2162.91L1459.8+2162.91C1461.42+2162.91+1462.73+2164.22+1462.73+2165.84Z" opacity="1" fill="#63a5b9"/>
<path d="M2144.79+3535.48L2144.79+3737.18C2144.79+3738.8+2143.47+3740.11+2141.86+3740.11L2057.8+3740.11C2056.18+3740.11+2054.87+3738.8+2054.87+3737.18L2054.87+3535.48C2054.87+3533.87+2056.18+3532.55+2057.8+3532.55L2141.86+3532.55C2143.47+3532.55+2144.79+3533.87+2144.79+3535.48Z" opacity="1" fill="#63a5b9"/>
</g>
<g id="Tableau Elements" vectornator:layerName="Tableau Elements" visibility="hidden">
<g opacity="1">
<path d="M2273.11+4153L2273.11+4291.63L2023.01+4291.63L2023.01+4404.2L2273.11+4404.2L2273.11+4682.02L2397.87+4682.02L2397.87+4404.2L2647.97+4404.2L2647.97+4291.63L2397.87+4291.63L2397.87+4013.81L2273.11+4013.81L2273.11+4153Z" opacity="1" fill="#5b6591"/>
<path d="M3035.03+3650.04L3035.03+3848.01L2665.71+3848.01L2665.71+3972.22L3035.03+3972.22L3035.03+4374.25L3177.54+4374.25L3177.54+3972.22L3546.86+3972.22L3546.86+3848.01L3177.54+3848.01L3177.54+3452.07L3035.03+3452.07L3035.03+3650.04Z" opacity="1" fill="#1f447e"/>
<path d="M1489.77+3647.6L1489.77+3845.57L1120.46+3845.57L1120.46+3975.89L1489.77+3975.89L1489.77+4371.82L1632.29+4371.82L1632.29+3975.89L2001.6+3975.89L2001.6+3845.57L1632.29+3845.57L1632.29+3449.64L1489.77+3449.64L1489.77+3647.6Z" opacity="1" fill="#c72035"/>
<path d="M1078.87+3020.99L1078.87+3154.07L834.874+3154.07L834.874+3248.34L1078.87+3248.34L1078.87+3514.52L1174.25+3514.52L1174.25+3248.34L1424.34+3239.47L1424.34+3154.07L1174.25+3154.07L1174.25+2887.9L1078.87+2887.9L1078.87+3020.99Z" opacity="1" fill="#7099a6"/>
<path d="M3457.58+3011.22L3457.58+3150.41L3207.49+3150.41L3207.49+3262.98L3457.58+3262.98L3457.58+3540.8L3582.35+3540.8L3582.35+3262.98L3832.44+3262.98L3832.44+3150.41L3582.35+3150.41L3582.35+2872.59L3457.58+2872.59L3457.58+3011.22Z" opacity="1" fill="#5b6591"/>
<path d="M2251.69+2896.77L2251.69+3118.58L1840.79+3118.58L1840.79+3283.83L2251.69+3283.83L2251.69+3727.46L2418.05+3727.46L2418.05+3283.83L2828.96+3283.83L2828.96+3118.58L2418.05+3118.58L2418.05+2674.96L2251.69+2674.96L2251.69+2896.77Z" opacity="1" fill="#e8762c"/>
<path d="M3035.03+2222.46L3035.03+2420.43L2665.71+2420.43L2665.71+2550.74L3035.03+2550.74L3035.03+2946.68L3177.54+2946.68L3177.54+2550.74L3546.86+2550.74L3546.86+2420.43L3177.54+2420.43L3177.54+2024.5L3035.03+2024.5L3035.03+2222.46Z" opacity="1" fill="#59879b"/>
<path d="M1489.77+2222.46L1489.77+2420.43L1120.46+2420.43L1120.46+2544.64L1489.77+2544.64L1489.77+2946.68L1626.74+2946.68L1626.74+2544.64L2001.6+2544.64L2001.6+2420.43L1626.74+2420.43L1626.74+2024.5L1489.77+2024.5L1489.77+2222.46Z" opacity="1" fill="#eb912c"/>
<path d="M2287.18+1876.44L2287.18+2012.85L2043.19+2012.85L2043.19+2101.58L2287.18+2101.58L2287.18+2373.3L2382.56+2373.3L2382.56+2101.58L2632.66+2101.58L2632.66+2012.85L2382.56+2012.85L2382.56+1740.58L2287.18+1740.58L2287.18+1876.44Z" opacity="1" fill="#7099a6"/>
</g>
</g>
</svg>
