<?xml version="1.0" encoding="utf-8"?>
<!-- Generator: Adobe Illustrator 26.5.0, SVG Export Plug-In . SVG Version: 6.00 Build 0)  -->
<svg version="1.1" id="Layer_1" xmlns:vectornator="http://vectornator.io"
	 xmlns="http://www.w3.org/2000/svg" xmlns:xlink="http://www.w3.org/1999/xlink" x="0px" y="0px" viewBox="0 0 2521 2911"
	 style="enable-background:new 0 0 2521 2911;" xml:space="preserve">
<style type="text/css">
	.st0{display:none;fill:#45889F;}
	.st1{display:none;fill:#63A5B9;}
	.st2{display:none;fill:none;stroke:#63A5B9;stroke-width:20.2672;stroke-miterlimit:10;}
	.st3{fill:#87C9D8;}
	.st4{fill:#26569A;}
	.st5{fill:#E8762C;}
	.st6{fill:none;}
	.st7{fill:#63A5B9;}
	.st8{display:none;fill:#5B6591;}
	.st9{display:none;fill:#1F447E;}
	.st10{display:none;fill:#C72035;}
	.st11{display:none;fill:#7099A6;}
	.st12{display:none;fill:#E8762C;}
	.st13{display:none;fill:#59879B;}
	.st14{display:none;fill:#EB912C;}
</style>
<g id="Pipes" vectornator:layerName="Pipes">
	<path class="st0" d="M677.8,7v1126l0,0H634l0,0V7l0,0H677.8L677.8,7z"/>
	<path class="st1" d="M152.9-23.5v1126l0,0h-43.8l0,0v-1126l0,0H152.9L152.9-23.5z"/>
	<path class="st1" d="M-38,828.6h1126l0,0v31.6l0,0H-38l0,0V828.6L-38,828.6z"/>
	<path class="st1" d="M-91.1,741.8h1126l0,0v28.5l0,0h-1126l0,0L-91.1,741.8L-91.1,741.8z"/>
	<path class="st0" d="M-76.9,926h1126l0,0v43.7l0,0h-1126l0,0L-76.9,926L-76.9,926z"/>
	<path class="st2" d="M300.6-356.1V446c0,59.6,50.8,108,113.6,108l0,0c62.9,0,113.8-48.6,113.6-108.4L524.4-356"/>
	<path class="st0" d="M-99.6,186.3h1126l0,0v48.5l0,0h-1126l0,0L-99.6,186.3L-99.6,186.3z"/>
	<path class="st0" d="M-95.5,268.1h1126l0,0v31.6l0,0h-1126l0,0V268.1L-95.5,268.1z"/>
</g>
<g>
	<polygon class="st3" points="2489.2,2164.9 2489.2,746.1 1260.5,36.7 634.9,397.8 31.8,746.1 31.8,2164.9 1260.5,2874.3 	"/>
	<g>
		<path class="st4" d="M1295,1561.7h43.7v387H1295V1561.7z M933.4,1602.5h44.4v53.7c0,50.4,0.3,53.5,2.4,52.8
			c1.4-0.5,8-2.3,14.8-4.2c8-2.2,17.7-3.6,28-4.2c11.7-0.5,18.6-0.1,27.2,1.5c7.4,1.4,16.2,4.5,23.9,8.3c6.7,3.3,15.7,8.9,19.9,12.6
			c4.1,3.6,10.6,11.1,14.3,16.7c3.8,5.6,8.5,14.5,10.6,20c2.2,5.4,4.8,15.4,6.1,22.4c1.5,9.2,1.9,17.1,1.4,29.5
			c-0.4,9.3-1.8,20.9-3.1,25.7c-1.1,4.8-4.2,13.1-6.6,18.3c-2.4,5.2-7.3,13.2-10.7,17.7c-3.3,4.5-10.1,11.1-14.9,14.8
			c-4.7,3.7-13.4,8.8-19,11.3c-5.6,2.7-14.9,6-20.5,7.5c-8.8,2.4-14.4,2.8-39.6,2.9c-23.8,0.1-31.6-0.4-41-2.4
			c-6.4-1.4-16.9-4.1-23.3-5.9c-6.4-1.8-12-3.8-12.5-4.3s-1.1-67-1.4-147.8L933.4,1602.5z M988.8,1747.4l-10.2,3.6v112.9
			c21.4,5.6,26,6,40.2,5.6c14-0.4,18.6-1,25.3-3.6c4.5-1.8,10.7-5.1,13.6-7.5c3.1-2.3,7.4-6.6,9.7-9.5c2.3-2.9,5.6-9,7.3-13.5
			c1.8-4.5,3.8-13,4.6-19c1.1-8.1,1.1-13.7-0.1-22.4c-1-7.8-3.2-14.8-6.4-21.4c-2.5-5.5-7-12.2-9.8-15s-7.9-6.7-11.3-8.7
			c-3.3-2-9.8-4.6-14.4-5.7c-4.5-1.3-12.5-2.2-17.7-2c-5.2,0.1-12.1,0.8-15,1.4C1001.5,1743.2,994.5,1745.3,988.8,1747.4z
			 M209.9,1616.1h43.7v123.5h117.5v40.7H253.5v133h-43.7v-133H92.4v-40.7h117.5V1616.1z"/>
		<path class="st4" d="M678.7,1698.9h43.7v80.5c0,44.3-0.5,89.3-2,119.3l-11,3.3c-6,1.8-18.6,4.6-28,6.2
			c-14.4,2.4-20.9,2.7-41.6,2.2c-19.2-0.5-27-1.3-35.5-3.4c-6.1-1.7-16.6-5.6-23.3-8.9c-7.1-3.6-15.7-9.2-20.5-13.4
			c-4.5-4.1-10.8-11.3-13.9-16c-3.2-4.8-7.4-12.5-9.2-16.9c-1.8-4.5-4.5-13.4-5.7-19.6c-1.8-9.2-2.2-15.9-1.7-32
			c0.6-15.4,1.5-22.9,3.7-30.6c1.7-5.6,5.5-14.8,8.4-20.4s8.8-14.1,13.1-18.8c4.5-4.8,11.7-11.2,16.2-14.3
			c4.5-2.9,11.8-6.9,16.4-8.7c4.5-1.8,12.6-4.2,18.1-5.2s15.7-1.9,22.5-1.9c7,0,16.9,1,22.3,2c5.2,1.1,13.5,3.9,18.5,6.2
			c4.8,2.2,9,4.1,9.2,3.9c0.1,0,0.4-3.1,0.4-6.7v-6.8H678.7z M604.3,1748.9c-3.7,2-9,6.2-12,9.4c-2.9,3.2-6.9,8.8-8.7,12.6
			c-1.9,3.7-4.3,10.6-5.5,15.3c-1.1,4.6-2,13-2,18.6s0.6,13.9,1.4,18.3c0.9,4.5,3.2,11.8,5.3,16.3c2.5,5.3,6.6,10.8,11.8,15.7
			c5.1,4.7,11.1,8.7,16.3,10.7c6.4,2.5,11.5,3.3,24.6,4c9.3,0.4,21-0.1,27.2-1c6-0.9,11.6-2,12.5-2.5c1-0.6,1.8-18.3,2.4-56.3
			l0.9-55.3c-11.2-6.1-17.4-8.9-21.3-10.2c-3.7-1.4-12.4-2.7-19.1-2.9c-8.4-0.4-14.6,0.1-19.9,1.7
			C614.4,1744.3,608,1746.9,604.3,1748.9z M2030.2,1698.9h43.7v68.2c0,37.6-0.4,82.5-2,131.5l-11,3.3c-6,1.8-18.1,4.6-27,6
			c-11.3,2-22.1,2.8-36.8,2.8c-11.6,0-25-0.6-29.8-1.4c-4.8-0.9-14.4-3.3-21.1-5.5c-7.3-2.3-16.7-6.7-22.5-10.6
			c-5.7-3.7-13.6-10.2-17.7-14.6c-3.9-4.3-9.5-12-12.2-16.8s-6.4-13.7-8.1-19.6c-2.7-8.5-3.4-15.1-4.1-30.6c-0.4-12.4,0-23.3,1-29.3
			c0.9-5.2,3.2-14,5.1-19.6c1.8-5.6,6-14.5,9.3-19.7c3.2-5.2,10.1-13.5,15.3-18.3c5.9-5.3,13.5-10.8,19.7-13.9
			c5.6-2.7,13.8-6,18.3-7.3c4.5-1.1,15.5-2.5,24.6-2.9c12.1-0.5,19.1,0,26.6,1.5c5.7,1.3,14.3,4.1,19.2,6.4c4.8,2.2,9,4.1,9.2,3.9
			c0.3,0,0.4-3.1,0.4-6.7L2030.2,1698.9L2030.2,1698.9z M1955.9,1748.9c-3.7,2-9,6.2-12,9.4c-2.9,3.2-6.7,8.8-8.7,12.6
			c-1.9,3.7-4.3,10.6-5.5,15.3c-1.1,4.6-2,13.6-2,20s0.9,15.4,2,20c1.1,4.7,3.3,11.1,5,14.3c1.7,3.2,5.9,8.8,9.3,12.4
			c3.4,3.7,9,8,12.4,9.7c3.4,1.8,9.5,4.2,13.7,5.4c4.7,1.4,12.5,2.2,21.5,2.2c7.6,0,18.5-0.6,23.8-1.4c5.5-0.8,10.7-1.9,11.5-2.4
			c1.1-0.6,1.8-17.1,2.2-56.4l0.4-55.6c-13.7-7-21.4-9.9-26-11.1c-4.5-1.1-12.1-2-17.1-1.9c-4.8,0-12.2,1-16.3,2
			C1965.9,1744.3,1959.6,1746.9,1955.9,1748.9z M1620.3,1700.9c7.9,0.4,18,1.7,22.5,2.8c4.5,1.1,11.8,3.8,16.3,6
			c4.6,2,12,6.5,16.4,9.9c4.6,3.4,10.9,9.8,14.3,14.1c3.3,4.3,8,12.2,10.6,17.4c2.5,5.2,5.9,14.4,7.4,20.4s3.3,18.1,4.7,42.8h-151
			l0.9,5.1c0.4,2.8,2,8.8,3.3,13.2c1.4,4.5,5,11.5,7.8,15.4s7,8.7,9.2,10.3c2.3,1.7,6.9,4.5,10.3,6.2c3.3,1.7,9.2,3.8,13,4.8
			s14,1.9,23.2,1.9c9,0,22-0.9,28.8-2c6.7-1.1,16.3-3.4,21.1-5c4.8-1.5,11.2-3.9,14-5.3s5.7-2.7,6.5-2.7c0.9,0,1.4,7.8,1.4,40.7
			l-7.5,3.4c-4.2,1.9-12.9,5-19.5,6.9c-6.6,1.8-18.7,4.1-27,5c-11.3,1.1-19,1.1-30.8,0c-8.7-0.9-21.3-3.2-28-5.1s-16.6-5.7-21.6-8.5
			c-5.2-2.8-14-9.3-19.6-14.5c-5.7-5.2-12.9-13.7-16.2-19c-3.3-5.2-7.4-14.1-9.3-19.7s-4.2-15.4-5.1-21.6c-1-7-1.3-16.8-0.8-24.4
			c0.4-7.1,2-17.8,3.6-23.8c1.5-6,5.2-15.8,8.1-21.8s8.4-14.5,12-19c3.7-4.5,10.9-11.3,16.2-15.3c5.2-4,14-8.9,19.5-11.2
			c6.6-2.6,13.5-4.7,20.5-6.1C1602.3,1701,1610.7,1700.5,1620.3,1700.9z M1590.4,1749.5c-4.1,2.4-9.8,7.1-12.9,10.4
			c-2.9,3.4-6.9,9-8.7,12.6c-1.8,3.6-3.3,7-3.3,7.8c0,0.9,17.2,1.4,48.9,1.4h48.9c-1.4-10.1-2.7-15-3.7-17.7
			c-1.1-2.5-4.5-7.4-7.4-10.6c-3.6-3.9-7.9-6.7-12.9-8.7c-4.2-1.4-11.8-2.9-17.1-3.3c-6.1-0.3-12.4,0.3-17.2,1.5
			C1601.1,1744.2,1594.4,1747.1,1590.4,1749.5z M2243.2,1704.3h45.3l-0.1,68.2c0,64.3,0.1,68.7,2.7,77c1.7,5.1,4.7,11.1,7.3,14.1
			c2.4,2.8,7.5,6.6,11.3,8.4c3.7,1.8,10.8,3.8,15.7,4.5c5.2,0.8,12.6,0.8,17.8,0c4.8-0.6,12-2.7,15.7-4.5c3.8-1.8,8.9-5.6,11.3-8.4
			c2.5-3.1,5.7-9,7.3-14.1c2.5-8.3,2.7-12.7,2.7-145.3h44.7l-0.3,73.7c-0.1,69.8-0.3,74-2.8,81.7c-1.5,4.5-4.7,11.2-7.1,14.9
			c-2.4,3.8-6.6,9-9.5,11.8c-2.8,2.8-8.9,7.3-13.4,9.9c-4.5,2.7-13.1,6.4-19.1,8.3c-6.9,2.2-16,3.8-24.6,4.5
			c-7.6,0.4-19.9,0.4-27.4-0.1c-8.5-0.5-17.8-2.2-24.6-4.3c-6.7-2.2-13.1-4.9-19.2-8.3c-4.5-2.7-10.4-7.1-13.4-9.9
			c-2.8-2.8-7.1-8-9.5-11.8c-2.3-3.7-5.5-10.4-7-14.9c-2.7-7.6-2.8-12.4-3.2-81.7L2243.2,1704.3z"/>
	</g>
	<g>
		<g>
			<path class="st5" d="M831.6,1340.4h-26.4c-28,0-54.7-6.5-79.3-19.5c-56.1-29.4-91.2-87-91.6-150.2c-0.3-34.4-0.5-68.3-0.6-101.8
				c-0.4-96.1-0.5-189.7-0.3-281.2h-55c-0.2,91.6-0.1,185.2,0.3,281.4c0.2,33.5,0.3,67.5,0.6,101.9c0.6,83.6,47,159.6,121,198.5
				c32.1,16.9,68.4,25.8,104.9,25.8h26.4L831.6,1340.4L831.6,1340.4z"/>
		</g>
		<path class="st5" d="M2437.3,970.2c-50.1,0.4-100.7,0.7-151.9,1.1c-67.2,0.5-121.8,55.6-121.9,122.8v241.7h55v-241.7
			c0-37.1,30.2-67.5,67.3-67.8c51.1-0.4,101.6-0.8,151.5-1.1L2437.3,970.2L2437.3,970.2z"/>
		<path class="st5" d="M1990.2,968.7c69.1,2.9,103.6,31.5,103.6,86c0,67.9-44.5,101.8-133.5,101.8h-25v-46.9h29.3
			c27.2,0,46.1-4.2,56.7-12.5s15.9-22.2,15.9-41.8c0-12.6-4.7-22-14-28.3c-9.4-6.3-21.4-9.4-36-9.4c-28.9,0-51.5,10.2-68,30.5
			s-24.7,44.7-24.7,73.1c0,30.1,8.8,54.5,26.5,73.1c17.7,18.7,40.7,28,69.2,28c25.6,0,46.5-6.3,62.8-18.9l36.6,36
			c-28,22.8-61.2,34.2-99.4,34.1c-46.3,0-83.3-13.6-110.9-40.8c-27.6-27.2-41.4-62.4-41.4-105.5c0-47.9,13.6-86.8,40.8-116.4
			C1905.9,981.1,1943,967.1,1990.2,968.7z"/>
		<path class="st5" d="M1484.2,840.7h54.9v280.4c0,32.1,8.2,57,24.7,74.7s39.1,26.5,68,26.5c30.1,0,53.6-8.6,70.7-25.9
			s25.6-42.4,25.6-75.3c0-31.3-9.2-56-27.7-74.1s-42.8-27.1-72.8-27.1c-25.6,0-47.8,7.3-66.4,21.9V987
			c22.3-12.2,46.5-18.3,72.5-18.3c43.1,0,78.7,13.9,107,41.8c28.2,27.8,42.4,64.7,42.4,110.6c0,48.4-14.7,85.9-44.2,112.5
			s-66.5,39.9-111.2,39.9c-42.7,0-77.2-13.8-103.6-41.4s-39.6-64.6-39.6-110.9L1484.2,840.7z"/>
		<path class="st5" d="M1030.7,974.8h268.8c28.8,0,51.8,5.5,68.9,16.5c17.5,11,28.9,25.2,34.4,42.7s8.2,38.4,8.2,62.8v170.7h-53.6
			v-170.7c0-31.7-9.6-52.6-28.6-62.8c-9.8-5.3-29.5-7.9-59.1-7.9h-25v241.4H1191V1026h-106.7v241.4h-53.6L1030.7,974.8L1030.7,974.8
			z"/>
		<path class="st5" d="M951.5,1267.4H846c-45.1,0-77.4-6.7-96.9-20.1c-17.5-11.8-28.5-25.9-33.2-42.4s-7-38.1-7-64.9V974.8h53.6
			v164.6c0,7.3,0.2,13.5,0.6,18.6c0.4,5.1,1.8,11.6,4.3,19.5c2.4,7.9,5.9,14.4,10.4,19.5s11,9.6,19.5,13.4
			c8.6,3.9,18.9,5.8,31.1,5.8h69.5V974.8h53.6L951.5,1267.4z"/>
		<path class="st5" d="M204.1,1406.4v-285.3c0-21.1,3.9-41,11.6-59.7c7.7-18.7,18.3-34.9,31.7-48.5c13.6-13.7,29.8-24.7,47.5-32.3
			c18.3-7.9,37.8-11.9,58.5-11.9s40.1,4,58.2,11.9c36.1,15.6,64.6,44.7,79.6,81.1c7.7,18.5,11.6,38.3,11.6,59.4s-3.7,40.9-11.3,59.4
			c-7.2,18-17.9,34.5-31.4,48.5c-13.5,13.9-29.7,25-47.6,32.6c-18.3,7.9-38,11.9-59.1,11.9c-26,0-50.2-6.1-72.5-18.3v-54.9
			c19.9,14.6,43.5,21.9,70.7,21.9c14.6,0,27.9-2.5,39.9-7.6s22.1-12.1,30.5-21c8.3-8.9,14.7-19.6,19.2-32s6.7-25.9,6.7-40.5
			s-2.2-28.1-6.7-40.5s-10.8-23.1-18.9-32c-8.3-9-18.3-16.2-29.6-21c-11.6-5.1-24.7-7.6-39.3-7.6c-14.2,0-27.1,2.4-38.7,7.3
			c-11.3,4.7-21.5,11.8-29.9,20.7c-8.3,9-14.7,19.6-19.2,32s-6.7,26.1-6.7,41.1v285.3L204.1,1406.4z"/>
	</g>
	<g>
		<path class="st6" d="M1383.2,1403.2v38.9c0,1-0.8,1.8-1.8,1.8h-27.8v72.9h27.8c1,0,1.8,0.8,1.8,1.8v51.3c0,1-0.8,1.8-1.8,1.8
			h-123.2c-1,0-1.8-0.8-1.8-1.8v-51.3c0-1,0.8-1.8,1.8-1.8h27.8v-72.9h-27.8c-1,0-1.8-0.8-1.8-1.8v-38.9H883.7v25.6
			c0,1-0.8,1.8-1.8,1.8h-51.3c-1,0-1.8-0.8-1.8-1.8v-123.2c0-1,0.8-1.8,1.8-1.8h51.3c1,0,1.8,0.8,1.8,1.8v27.8h1240.7V1292
			c0-1,0.8-1.8,1.8-1.8h123.2c1,0,1.8,0.8,1.8,1.8v41.3h206.4v-301.9h-52.9v26.6c0,1-0.8,1.8-1.8,1.8h-51.3c-1,0-1.8-0.8-1.8-1.8
			V934.8c0-1,0.8-1.8,1.8-1.8h51.3c1,0,1.8,0.8,1.8,1.8v29h52.9V764.4l-915.1-528.3v596.1h27.8c1,0,1.8,0.8,1.8,1.8v51.3
			c0,1-0.8,1.8-1.8,1.8H1447c-1,0-1.8-0.8-1.8-1.8V834c0-1,0.8-1.8,1.8-1.8h27.8V197.1L1260.5,73.4L634.2,435v300.1h28.4
			c1,0,1.8,0.8,1.8,1.8v51.3c0,1-0.8,1.8-1.8,1.8H539.4c-1,0-1.8-0.8-1.8-1.8v-51.3c0-1,0.8-1.8,1.8-1.8h27.2V474l-503,290.4v1382.1
			l1197,691.1l25.5-14.7v-555.8h-38.8c-1,0-1.8-0.8-1.8-1.8v-32.6H432c-36.5,0-72.7-8.9-104.9-25.8
			c-74.1-38.9-120.4-114.9-121-198.5c-0.1-20.3-0.3-40.4-0.4-60.4h-35.3c-1,0-1.8-0.8-1.8-1.8v-51.3c0-1,0.8-1.8,1.8-1.8h123.2
			c1,0,1.8,0.8,1.8,1.8v51.3c0,1-0.8,1.8-1.8,1.8h-32.9c0.1,19.9,0.2,39.8,0.4,60c0.5,63.2,35.6,120.8,91.6,150.2
			c24.6,12.9,51.3,19.5,79.3,19.5h813.3v-35.6c0-1,0.8-1.8,1.8-1.8h38.8v-145.8h-27.8c-1,0-1.8-0.8-1.8-1.8v-51.3
			c0-1,0.8-1.8,1.8-1.8h123.2c1,0,1.8,0.8,1.8,1.8v51.3c0,1-0.8,1.8-1.8,1.8h-27.8v789.3l1103.9-637.3v-743.4H1383.2V1403.2z
			 M295.4,1420c0,1-0.8,1.8-1.8,1.8h-29v154.4h29c1,0,1.8,0.8,1.8,1.8v51.3c0,1-0.8,1.8-1.8,1.8H170.4c-1,0-1.8-0.8-1.8-1.8V1578
			c0-1,0.8-1.8,1.8-1.8H197v-154.4h-26.6c-1,0-1.8-0.8-1.8-1.8v-51.3c0-1,0.8-1.8,1.8-1.8h123.2c1,0,1.8,0.8,1.8,1.8L295.4,1420
			L295.4,1420z"/>
		<path class="st7" d="M1260.5,0L0,727.8v1455.5L1260.5,2911L2521,2183.3V727.8L1260.5,0z M1353.6,2783.9v-789.3h27.8
			c1,0,1.8-0.8,1.8-1.8v-51.3c0-1-0.8-1.8-1.8-1.8h-123.2c-1,0-1.8,0.8-1.8,1.8v51.3c0,1,0.8,1.8,1.8,1.8h27.8v145.8h-38.8
			c-1,0-1.8,0.8-1.8,1.8v35.6H432c-28,0-54.7-6.6-79.3-19.5c-56-29.4-91.2-87-91.6-150.2c-0.1-20.2-0.3-40.2-0.4-60h32.9
			c1,0,1.8-0.8,1.8-1.8V1895c0-1-0.8-1.8-1.8-1.8H170.4c-1,0-1.8,0.8-1.8,1.8v51.3c0,1,0.8,1.8,1.8,1.8h35.3
			c0.1,20,0.2,40.1,0.4,60.4c0.6,83.6,47,159.6,121,198.5c32.1,16.9,68.4,25.8,104.9,25.8h813.3v32.6c0,1,0.8,1.8,1.8,1.8h38.8V2823
			l-25.5,14.7l-1197-691.1V764.4l503-290.4v261.1h-27.2c-1,0-1.8,0.8-1.8,1.8v51.3c0,1,0.8,1.8,1.8,1.8h123.2c1,0,1.8-0.8,1.8-1.8
			v-51.3c0-1-0.8-1.8-1.8-1.8H634V435l626.3-361.6l214.3,123.7v635.2H1447c-1,0-1.8,0.8-1.8,1.8v51.3c0,1,0.8,1.8,1.8,1.8h123.2
			c1,0,1.8-0.8,1.8-1.8V834c0-1-0.8-1.8-1.8-1.8h-27.8V236.1l915.1,528.3v199.4h-52.9v-29c0-1-0.8-1.8-1.8-1.8h-51.3
			c-1,0-1.8,0.8-1.8,1.8V1058c0,1,0.8,1.8,1.8,1.8h51.3c1,0,1.8-0.8,1.8-1.8v-26.6h52.9v301.9h-206.4V1292c0-1-0.8-1.8-1.8-1.8
			h-123.2c-1,0-1.8,0.8-1.8,1.8v41.3H883.7v-27.8c0-1-0.8-1.8-1.8-1.8h-51.3c-1,0-1.8,0.8-1.8,1.8v123.2c0,1,0.8,1.8,1.8,1.8h51.3
			c1,0,1.8-0.8,1.8-1.8v-25.6h372.7v38.9c0,1,0.8,1.8,1.8,1.8h27.8v72.9h-27.8c-1,0-1.8,0.8-1.8,1.8v51.3c0,1,0.8,1.8,1.8,1.8h123.2
			c1,0,1.8-0.8,1.8-1.8v-51.3c0-1-0.8-1.8-1.8-1.8h-27.8v-72.9h27.8c1,0,1.8-0.8,1.8-1.8v-38.9h1074.3v743.4L1353.6,2783.9z"/>
		<path class="st7" d="M293.6,1366.8H170.4c-1,0-1.8,0.8-1.8,1.8v51.3c0,1,0.8,1.8,1.8,1.8H197v154.4h-26.6c-1,0-1.8,0.8-1.8,1.8
			v51.3c0,1,0.8,1.8,1.8,1.8h123.2c1,0,1.8-0.8,1.8-1.8V1578c0-1-0.8-1.8-1.8-1.8h-29v-154.4h29c1,0,1.8-0.8,1.8-1.8v-51.3
			C295.4,1367.6,294.6,1366.8,293.6,1366.8z"/>
	</g>
</g>
<g id="Tableau_Elements" vectornator:layerName="Tableau Elements">
	<g>
		<path class="st8" d="M508.3,928.8V960H452v25.3h56.3v62.6h28.1v-62.6h56.3V960h-56.3v-62.6h-28.1L508.3,928.8L508.3,928.8z"/>
		<path class="st9" d="M679.9,815.6v44.6h-83.2v28h83.2v90.5H712v-90.5h83.2v-28H712V771h-32.1V815.6z"/>
		<path class="st10" d="M331.9,815v44.6h-83.2v29.3h83.2v89.2H364v-89.2h83.2v-29.3H364v-89.2h-32.1V815z"/>
		<path class="st11" d="M239.3,673.9v30h-54.9v21.2h54.9V785h21.5v-59.9l56.3-2v-19.2h-56.3V644h-21.5L239.3,673.9L239.3,673.9z"/>
		<path class="st8" d="M775,671.7V703h-56.3v25.3H775V791h28.1v-62.6h56.3v-25.3h-56.3v-62.6H775V671.7z"/>
		<path class="st12" d="M503.5,645.9v49.9H411V733h92.5v100H541v-99.9h92.5v-37.2H541V596h-37.5V645.9z"/>
		<path class="st13" d="M679.9,494.1v44.6h-83.2V568h83.2v89.2H712V568h83.2v-29.3H712v-89.2h-32.1V494.1z"/>
		<path class="st14" d="M331.9,494.1v44.6h-83.2v28h83.2v90.5h30.8v-90.5h84.4v-28h-84.4v-89.2h-30.8V494.1z"/>
		<path class="st11" d="M511.4,416.2v30.7h-54.9v20h54.9v61.2h21.5v-61.2h56.3v-20h-56.3v-61.3h-21.5L511.4,416.2L511.4,416.2z"/>
	</g>
</g>
</svg>
