<svg id="Layer_1" data-name="Layer 1" xmlns="http://www.w3.org/2000/svg" xmlns:xlink="http://www.w3.org/1999/xlink" viewBox="0 0 735 852"><defs><style>.cls-1{fill:#77aab6;}.cls-2{clip-path:url(#clip-path);}.cls-3,.cls-4{fill:#fff;}.cls-4{opacity:0.25;}.cls-5{fill:#e6b35a;}.cls-6{font-size:160px;letter-spacing:-0.03em;}.cls-6,.cls-7,.cls-8{fill:#404040;}.cls-6,.cls-8{font-family:MyriadPro-Regular, Myriad Pro;}.cls-8{font-size:25px;}.cls-9{letter-spacing:0.01em;}.cls-10{letter-spacing:-0.04em;}.cls-11{letter-spacing:-0.02em;}.cls-12{letter-spacing:-0.01em;}.cls-13{letter-spacing:0em;}.cls-14{fill:#fefefe;}.cls-15{fill:#070707;}.cls-16{fill:#a7a7a7;}.cls-17{fill:#888585;}.cls-18{fill:#fdeac5;}.cls-19{fill:#406e9f;}.cls-20{fill:#374653;}.cls-21{fill:#3a577c;}.cls-22{fill:#e2ca9c;}.cls-23{fill:#232e39;}.cls-24{fill:#274369;}.cls-25{fill:#702b2b;}.cls-26{fill:#2a5786;}.cls-27{fill:#582816;}.cls-28{fill:#c9c9c9;}.cls-29{fill:#441c0d;}</style><clipPath id="clip-path"><polygon class="cls-1" points="369.51 7.4 728.21 214.47 728.21 636.62 369.51 845.03 2.79 636.62 2.79 214.47 369.51 7.4"/></clipPath></defs><title> </title><polygon class="cls-1" points="369.51 7.4 728.21 214.47 728.21 636.62 369.51 845.03 2.79 636.62 2.79 214.47 369.51 7.4"/><g class="cls-2"><circle class="cls-3" cx="365.5" cy="437.45" r="442.13"/><ellipse class="cls-4" cx="366.89" cy="105.8" rx="315.24" ry="234.63"/></g><path class="cls-5" d="M367,633.9c.29-.29.6-.59.93-.89h-.26Z"/><text class="cls-6" transform="translate(95.9 594.88)">plumber</text><path class="cls-7" d="M705.61,196.21,427.81,35.82,367.5,1,307.19,35.82,29.37,196.22.09,213.13V637.38l29.28,16.91,281.28,162.4,56.85,32.82,56.85-32.82L705.61,654.3l29.3-16.92V213.13Zm0,425.26L367.49,816.68,29.37,621.47V231L367.49,35.82h0L705.61,231Z"/><text class="cls-8" transform="matrix(0.86, -0.5, 0.5, 0.86, 369.28, 809.1)"><tspan class="cls-9">ww</tspan><tspan class="cls-10" x="37.4" y="0">w</tspan><tspan x="54.82" y="0">.rstudi</tspan><tspan class="cls-11" x="120.07" y="0">o</tspan><tspan x="133.2" y="0">.</tspan><tspan class="cls-12" x="138.37" y="0">c</tspan><tspan class="cls-13" x="149.42" y="0">om</tspan></text><path class="cls-14" d="M388.24,139.76c-3.48.47-7,.92-10.44,1.41-4.83.68-9.42,2.39-14.19,3.35a30.24,30.24,0,0,0-10.5,4.49c-11.15,7.25-19.79,16.72-25.3,28.94-.63,1.4-.61,3.27-1.85,4.14s-3,1.13-4.47,1.65a46,46,0,0,0-15.16,8.82c-2.75,2.38-3.33,5.45-1.46,7.88a9.71,9.71,0,0,0,7.88,3.69,15.36,15.36,0,0,0,6.06-.87,4,4,0,0,1,1.75-.24c.65.06,1.53.34,1.37,1.13a56,56,0,0,0-.85,11.54,125.59,125.59,0,0,1-.54,13c-.46,4.71-1.62,9.33-2,14.07-.44,5-1.16,10,.24,14.94A37.31,37.31,0,0,0,323.5,269c1.63,2.37,3.44,4.62,5,7.05,2.64,4.23,6.52,7,10.75,9.27a41.41,41.41,0,0,0,11.35,3.89c.61.13,1.37.1,1.35,1.16a1.63,1.63,0,0,1-1.19,1.81,12.43,12.43,0,0,0-5.5,3.88c-.93,1.16-1.92,2.6-3.51,3.07-7,2.08-14,4.14-21,6.11a28.54,28.54,0,0,0-4.36,1.07,29.63,29.63,0,0,1-6.16,1.76,24.18,24.18,0,0,0-4.4,1.41,1.78,1.78,0,0,0-1.33,1.77c0,.48-.13.7-.68.77a46.65,46.65,0,0,0-15.35,4.67c-.46.23-.68.23-.93-.27a39,39,0,0,0-4.84-6.78,41.58,41.58,0,0,0-11.46-10.44c-2.84-1.65-2.29-.68-1.92-4.08.25-2.33.41-4.74-.52-6.89-.63-1.44.1-1.83.94-2.38a8.45,8.45,0,0,1,1.49-.69c6.7-2.69,12.92-6.42,19.74-8.86a13.2,13.2,0,0,0,5.72-4.55c3.28-4.14,3.55-8.76,1.45-13.38a55.14,55.14,0,0,0-5.58-9.39c-.32-.44-.52-.85-.15-1.34,0-.13.08-.32.27-.11-.16.06-.24,0-.26-.17.09-.83.48-1.81,1.23-1.75s.5-.31.52-.64a2.5,2.5,0,0,0-.41-1.42c-1.32-2.13-2.54-4.33-4-6.38a5.23,5.23,0,0,0-4.09-2.42,39.41,39.41,0,0,0-6.14.38c-3.73.4-6.7,2.48-9.78,4.3a17,17,0,0,0-5.51,4.42,3.11,3.11,0,0,0-.59,3.09q1.53,3.73,3.22,7.39c.71,1.54,1.78,2.84,3.68,2.68a1.8,1.8,0,0,1,2.24,1.69c.07.4.27.77.38,1.17a4.16,4.16,0,0,1-2.22,4.74c-4.16,1.86-8.34,3.67-12.48,5.56-.63.29-.93.31-1.43-.21a9,9,0,0,0-3.88-2.46c-2.51-.74-4.16.07-5,2.52-.23.7-.54.47-1,.38-2.89-.57-4.77.3-5.89,2.87-.33.75-.81.57-1.31.58a3.25,3.25,0,0,0-3.51,2.92,5.52,5.52,0,0,0-.13,2.31c.16.68-.11.93-.72,1.2-5.75,2.55-11.45,5.2-17.23,7.69-6.53,2.81-13.12,5.46-19.44,8.73-1.58.82-3.16,1.87-4.9,2-3.58.32-6.22,2.39-9,4.2-.32.21-.77.66-.73.93.23,1.53-1,1.72-1.89,2.22-1.31.74-2.65,1.42-4,2.17a22,22,0,0,0-3.71,3c1.24-.08,1.49.58,1.82,1.29.65,1.4,1.41,2.76,2.17,4.1a26.35,26.35,0,0,0,2.5,3.73c1.11,1.36,1.18,1.63,2.85,1a31.32,31.32,0,0,0,5.31-2.49c.92-.58,1.69-1.47,2.82-.4.13.13.44.11.66.1,3.5-.18,6.6-1.23,8.81-4.15a1.28,1.28,0,0,0,.87-.24,2.88,2.88,0,0,0,1.07-.09c3.51-1.87,7.35-3,10.93-4.67,7.89-3.68,15.81-7.29,23.82-10.71a1.3,1.3,0,0,1,1.83.37,8.56,8.56,0,0,0,2.23,2.2,36.36,36.36,0,0,1,6.72,5.35c.93.86,1.72,2.05,3.28,2,.45,0,.47.47.55.83.34,1.56.63,3.13,1,4.68,1.18,4.49,1.92,9.2,4.72,13,5.14,7.05,10.47,13.86,18.56,18a37.43,37.43,0,0,0,24.27,3.64,53.46,53.46,0,0,0,10-2.73c.46-.18.87-.36,1.35.12a5.56,5.56,0,0,0,6.7,1.22c.32-.13.66-.48,1-.21s0,.68,0,1c-2,9.83-4.64,19.53-5.68,29.53-.08.75.06,1.84-1.28.88-.33-.24-.77-.08-1.07.33a4.19,4.19,0,0,0-.64,1.35,49.71,49.71,0,0,0-1.72,14.9,2.81,2.81,0,0,0,.37,1.16,11.73,11.73,0,0,0,4.65,4.88c.35.22.77.3.7,1a72.55,72.55,0,0,0,.5,17.32,109.1,109.1,0,0,0,5.43,22.7,314.93,314.93,0,0,0,14.71,33.85c3,5.91,5.82,11.89,10,17.11a1,1,0,0,1,.35.88c-.44.18-1.16-.11-1.33.61s.3,1.1.73,1.52,1.24.7,1.63,1.37a26.11,26.11,0,0,0-14.08,12,8.94,8.94,0,0,0-.54,7.09,4.27,4.27,0,0,0,1.26,1.92c6.26,5.68,13.53,6.87,21.5,4.81.89-.23,1.17,0,1.47.76a9,9,0,0,0,4.18,4.9c5.39,2.83,11.13,2.89,16.92,1.69,1.28-.26,2.52-.75,3.83-1a51.27,51.27,0,0,0,11.29-3.22c7-3,13.27-7.06,17.71-13.47.13-.18.28-.41.47-.47.88-.29.67-.85.52-1.53-.59-2.81-1.34-5.58-1.75-8.43-.74-5.14-.6-10.33-1.47-15.48-2.19-12.9-4.08-25.85-6-38.8a153.07,153.07,0,0,1-2.1-17.65c-.05-1.54-.28-3.19.35-4.6a40,40,0,0,0,1.71-4.89A70,70,0,0,0,406,407.28c.15-1.65.7-1.57,1.9-1.49,3,.21,5.87-.07,8.35-1.92a2.27,2.27,0,0,1,2-.48c3,.48,5.28-1.75,4.47-4.3a4.61,4.61,0,0,1-.09-2c.15-1.7.42-3.44-1.37-4.67-.53-.36-1-1.21.25-1.69a20.84,20.84,0,0,0,3.13-1.67c7.31-4.44,13.24-10.42,18.68-16.9,5.9-7,5.9-15.08,3.74-23.44-.08-.3-.27-.76-.47-.79-1.34-.25-1.19-1.49-1.62-2.32-.6-1.18-1.14-2.38-1.67-3.59-2.12-4.85-5.68-8.8-8.34-13.33a51.23,51.23,0,0,0-4.57-6.74c-1-1.16-1.8-2.4-2.72-3.59-.37-.48-.18-1.13-.66-1.6-1.17-1.15-2.36-2.26-3.56-3.37a85.84,85.84,0,0,0-23-15.34,2.86,2.86,0,0,0-.9-.31c-2.32-.18-4-1.95-6.11-2.55-.5-.14-.72-.79-1.06-1.21-.66-.79-.42-1.36.21-2a8.24,8.24,0,0,1,3.22-1.73c2.36-.84,4.94-1.21,7.06-2.53,5-3.07,9.91-6.17,14.17-10.25,6.69-6.41,11.68-13.83,13.9-22.93a1.07,1.07,0,0,1,1.11-1,21.09,21.09,0,0,0,9.28-2.92c8.61-5.1,11.33-12.51,9.56-21.58-.33-1.69-2.13-2.83-1.88-4.53s.9-3.33,1.25-5c.93-4.49,1-9.06,1.41-13.6A64.67,64.67,0,0,0,449,181.5c-.2-.65-.3-1.44-.87-1.82a6.85,6.85,0,0,1-2.23-3.19,65.11,65.11,0,0,0-15.75-21c-5.93-5.37-13.21-8.38-20.44-11.42-1-.42-2.08-1.24-3-1.15-1.3.14-1.9-.51-2.71-1.12a15.07,15.07,0,0,0-9-2.82,1.12,1.12,0,0,0-1.12.64,23.82,23.82,0,0,1-3.94-.15C389.44,139.41,388.76,139.18,388.24,139.76Z"/><path class="cls-15" d="M292.4,247.61c-.38.5-.17.9.15,1.34a55.14,55.14,0,0,1,5.58,9.39c2.1,4.62,1.83,9.24-1.45,13.38a13.2,13.2,0,0,1-5.72,4.55c-6.82,2.43-13,6.16-19.74,8.86a8.45,8.45,0,0,0-1.49.69c-.84.55-1.57.94-.94,2.38.93,2.15.77,4.56.52,6.89-.37,3.4-.92,2.43,1.92,4.08a41.58,41.58,0,0,1,11.46,10.44,39,39,0,0,1,4.84,6.78c.25.51.47.51.93.27A46.65,46.65,0,0,1,303.82,312c.55-.07.68-.3.68-.77a1.78,1.78,0,0,1,1.33-1.77,24.18,24.18,0,0,1,4.4-1.41,29.63,29.63,0,0,0,6.16-1.76,28.54,28.54,0,0,1,4.36-1.07c7-2,14-4,21-6.11,1.59-.47,2.58-1.91,3.51-3.07a12.43,12.43,0,0,1,5.5-3.88,1.63,1.63,0,0,0,1.19-1.81c0-1.06-.74-1-1.35-1.16a41.41,41.41,0,0,1-11.35-3.89c-4.23-2.31-8.12-5-10.75-9.27-1.52-2.43-3.32-4.69-5-7.05a37.31,37.31,0,0,1-4.75-11.28c-1.4-4.93-.68-9.94-.24-14.94.42-4.74,1.58-9.36,2-14.07a125.59,125.59,0,0,0,.54-13,56,56,0,0,1,.85-11.54c.16-.78-.72-1.07-1.37-1.13a4,4,0,0,0-1.75.24,15.36,15.36,0,0,1-6.06.87,9.71,9.71,0,0,1-7.88-3.69c-1.87-2.43-1.29-5.5,1.46-7.88a46,46,0,0,1,15.16-8.82c1.51-.52,3.21-.76,4.47-1.65s1.22-2.74,1.85-4.14c5.51-12.22,14.15-21.7,25.3-28.94a30.24,30.24,0,0,1,10.5-4.49c4.77-1,9.36-2.67,14.19-3.35,3.48-.49,7-.94,10.44-1.41,1.09.37,2.29-.08,3.61.45l-.85.28c-4.75,1.33-9.65,1.85-14.5,2.67a69.57,69.57,0,0,0-14.14,3.57c-1.22.48-2.61.31-3.74,1.15-1.76,1.3-3.58,2.51-5.38,3.75-4.09,2.83-8.06,5.79-11.16,9.75-.38,0-.57.25-.78.47a52.64,52.64,0,0,0-9.84,14.53,21.37,21.37,0,0,0-1.91,3.57.8.8,0,0,0-.07.64c.16.28.47.17.73.07l3.4-1.3c.64-.24,1.33-.37,1.65.36s-.67.63-.93,1a1.35,1.35,0,0,0-.4.06c-5.19,2.55-10.71,4.32-15.95,6.78a44.15,44.15,0,0,0-10,6.82c-.63.1-.78.6-.91,1.11a2.11,2.11,0,0,0-.75,2.52c.65,2.2,2.53,2.87,4.36,3.55a7.19,7.19,0,0,0,4.79.08,20.52,20.52,0,0,1,7-.69c2.62.11,5.26-.32,7.89-.42a55.77,55.77,0,0,1,12.21,1.13c3.4.63,6.84,1,9.91,2.85,2.28,1.35,4.53,2.73,6.68,4.27a25.8,25.8,0,0,0,17.12,4.87,7,7,0,0,0,3.34-1.06c2.16-1.35,4.35-2.66,6.57-3.9,4.37-2.46,8.74-4.91,13.17-7.25,1.29-.68,1.82-2.06,3.07-2.76a16.19,16.19,0,0,0,3.09-1.59,56.05,56.05,0,0,0-7.83-3.39,87.2,87.2,0,0,0-10.48-3.91c-.79-.29-1.58-.59-2.38-.85-3.55-1.17-7.19-2-10.82-2.85a87.71,87.71,0,0,0-18.63-2.59,59.28,59.28,0,0,1-12.72-1.4c-.4-.1-.73-.14-.57-.67l1.55-.36h2.05c4.92,0,9.85.08,14.75.57,3,.3,6,.72,8.95,1.08a3.78,3.78,0,0,0,.61.25c5.29,1.14,10.54,2.48,15.75,3.95,8.74,2.47,16.61,7.14,25.27,9.82a38.68,38.68,0,0,1,8.19,3.74c.73.43,1.15.33,1.4-.52.4-1.35.68-2.73,1.19-4.06a52.44,52.44,0,0,0,3.15-12.39,2.24,2.24,0,0,1,1.14-1.66c.64,1.25.06,2.59.27,3.87a39.85,39.85,0,0,1-2,8.7,9.42,9.42,0,0,0-1,2.81c-.69,1.15-.67,2.56-1.33,3.71-.41.72-.1,1,.47,1.21q1.86.86,3.7,1.74c7,3.38,14.12,6.55,19.89,12l.3,1.09c-9.22-5.94-19.31-10.18-29.15-15a28.57,28.57,0,0,0,4.2,5.95c.28.47.54.95.86,1.39a10.92,10.92,0,0,1,1.57,9.37c-.5,2-2,3.31-3.43,4.66-.71.68-.64.9.33,1.13a10.57,10.57,0,0,1,5.66,3.81c2.72,3.28,2.89,7.05,1.77,11-.2.71-.27,1.82-1.49,1.83.08-2,.15-3.92.29-5.86a9,9,0,0,0-6-8.88c-1.15-.43-2.45-1.35-3.85-.44a.39.39,0,0,1-.58-.18c-.16-.31.05-.54.28-.68a15.77,15.77,0,0,0,2.72-2.66A9.21,9.21,0,0,0,421,210.49a53.59,53.59,0,0,0-3.63-5.11,36.45,36.45,0,0,0-3.59-5.12c-.27-.32-.71-.69-1-.52-1,.5-1.5-.25-2.23-.52-1.42-.54-2.75-1.35-4.44-.49a19.08,19.08,0,0,0-4.1,2.64c-3.18,2.8-7.08,4.46-10.73,6.5-2.29,1.28-4.54,2.61-7.11,4.08a32.61,32.61,0,0,1,5.78,2.2,21.7,21.7,0,0,1,6.46,4.94,13.79,13.79,0,0,1,2.93,5.62c.34,1.29-1,1.08-1.39,1.7-.29.44-.69-.25-1-.56a10.13,10.13,0,0,0-2-1.82c-1.6-.89-2.78-2.79-5-2.27a.41.41,0,0,1-.33-.18c-.91-1.71-2.73-1.76-4.26-2.33L380,217.22c-1.7-.66-1.73-.76-.87-2.75-1.36,1.16-2.62.23-3.89.54a18.22,18.22,0,0,1-11.86-1.36,62.81,62.81,0,0,1-9.12-5.5c-1.94-1.28-3.88-2.68-6.16-3.18a95.13,95.13,0,0,0-18.26-2.45c-.67,0-1.47-.22-2,.23-2.09,1.78-4.21,3.59-4.3,6.66a32.05,32.05,0,0,0,.12,5.32,86.57,86.57,0,0,1-.77,9.5c-.23,1.62-.48,3.25-.56,4.88a83.82,83.82,0,0,1-1,11,30.9,30.9,0,0,0-.56,5.57,5.28,5.28,0,0,0-.06,1.92l0,1.91c-.85,4.72.28,9.19,2.14,13.41a55.7,55.7,0,0,0,7,11,33.58,33.58,0,0,0,15.44,11.26c6.48,2.43,13.23,4,19.61,6.73.26.11.64,0,.67.51-.29,0-.56-.06-.83-.07-3.35-.16-6.44-1.47-9.67-2.14-.67-.14-1-.18-1,.67.15,1.59-.71,3-.88,4.53a1.22,1.22,0,0,1-1,1.16c-.73.09-.71.63-.67,1.12.23,2.74.83,5.3,3.42,6.86a2.16,2.16,0,0,1,1.07,1.36c-.19,0-.32.06-.3.28a4.18,4.18,0,0,1-2.65-.89c-2.82-2.27-3.34-5.37-3.17-8.71a1.71,1.71,0,0,1,1.46-1.59c.37-.1.61-.29.45-.66s-.46-.19-.71-.08a7.55,7.55,0,0,0-4.63,4.35c-.6,1.58-.92,3.24-1.4,4.84a9.29,9.29,0,0,0,2.59,9.94c2.58,2.57,5.83,4.33,8.35,7.25a7.49,7.49,0,0,0,.16-3.59c-.08-.41-.23-.92.15-1.14.68-.4.5-1,.52-1.56a20.87,20.87,0,0,0-1.12-8.16c.17,0,.3-.1.28-.3,1.43.45,2.6,1.45,2.54,2.87-.1,2.83,1.68,3.36,3.8,3.75.13,0,.26.09.39.12a17,17,0,0,0,5.7.68c.16.22.33.24.51,0,.54-.71,0-1.49.17-2.24.08-.46,0-1.11.5-1.17,1.19-.17,2-1.06,3-1.53a24.17,24.17,0,0,1,8-2.2,11.79,11.79,0,0,0,6.46-2.95,8.24,8.24,0,0,0,2.72-2.82,4.23,4.23,0,0,1,1.47-2.06c.35-.22,1-.81.28-1.33a5.32,5.32,0,0,1-1.28-1.9c-1-1.77-1.81-2.27-3.83-2.06-1,.1-2,.3-3,.45,3-1,5.57-2.87,8.58-3.77a38.9,38.9,0,0,0,8.87-3.55,92.07,92.07,0,0,0,20.73-16.62c3.3-3.56,5.71-7.36,6.57-12.13a18,18,0,0,0,1.29-4.56c.11-2,.12-2,2.23-2s4,.18,5.83-1c1.08-.67,2.27-1.18,3.35-1.86,5.5-3.46,8.41-8.32,8.06-14.95a11.33,11.33,0,0,0-.84-4.4c-1.43-3-4.18-4-7-2.47a5.42,5.42,0,0,0-1.23.86c-2.85,2.82-5.39,5.84-6,10-.9,1-.8,2.17-.88,3.34a23,23,0,0,1-.68,3.3c-.39,1.09-.66,2.21-2,2.84-1.85.86-3.09-.34-4.56-.81-.22-.07-.53-.35-.34-.63s.47-.17.72-.24c1.25,1.46,2.85,1.32,3.69-.28a12.61,12.61,0,0,0,1.27-3.86c.49-3,.61-6.12,1.66-9,1.29-1.62,2.6-3.22,3.86-4.85,2.69-3.48,7.89-5.15,11.28-2.39.18.14.37.33.58.13a.62.62,0,0,0,.1-.5c-.34-1.49.09-3,0-4.45a1.78,1.78,0,0,0-.84-1.68c.42.07.68.09.92-.46.93-2.2.94-4.63,1.8-6.84a1.35,1.35,0,0,0-.21-1.18c-1-1.53-.81-3.33-.69-4.91a65.19,65.19,0,0,0-1.14-17.1c-.43-2.28-1.17-4.51-1.39-6.8a6.75,6.75,0,0,0-1.68-3.9c-.32-.38-.65-.76-1-1.15-3.67-4.52-6.67-9.53-10.61-13.88A51.14,51.14,0,0,0,416,149c-.74-.43-1.46-.92-2.24-1.28-.37-.17-1-.6-1.22-.17a1.85,1.85,0,0,0-.2,1.69,3,3,0,0,0,.91,1c.24.2.59.36.71.62,1.46,3.1,3.61,5.75,5.4,8.64,2.2,3.56,4.69,7,6.54,10.73a4.25,4.25,0,0,1,.46,2.38c-.05.48,0,1.15-.56,1.26s-.79-.54-1-1a26.46,26.46,0,0,0-2.52-5,8.17,8.17,0,0,0-1.06-1.9c-2.85-4.51-5.9-8.92-8.47-13.59a20.38,20.38,0,0,0-6-6.71c-3.5-2.59-7-4.91-11.53-5.27a1.44,1.44,0,0,1-1.23-.77,1.12,1.12,0,0,1,1.12-.64,15.07,15.07,0,0,1,9,2.82c.81.61,1.42,1.25,2.71,1.12.88-.09,2,.73,3,1.15,7.24,3,14.51,6.05,20.44,11.42a65.11,65.11,0,0,1,15.75,21,6.85,6.85,0,0,0,2.23,3.19c.57.38.68,1.17.87,1.82A64.67,64.67,0,0,1,451.66,206c-.39,4.54-.48,9.11-1.41,13.6-.35,1.7-1,3.34-1.25,5s1.55,2.84,1.88,4.53c1.77,9.07-1,16.48-9.56,21.58a21.09,21.09,0,0,1-9.28,2.92,1.07,1.07,0,0,0-1.11,1c-2.22,9.11-7.2,16.53-13.9,22.93-4.26,4.07-9.21,7.18-14.17,10.25-2.13,1.32-4.7,1.7-7.06,2.53a8.24,8.24,0,0,0-3.22,1.73c-.62.62-.86,1.19-.21,2,.35.41.56,1.06,1.06,1.21,2.14.6,3.79,2.37,6.11,2.55a2.86,2.86,0,0,1,.9.31,85.84,85.84,0,0,1,23,15.34c1.21,1.11,2.4,2.22,3.56,3.37.48.47.28,1.12.66,1.6.92,1.18,1.77,2.43,2.72,3.59a51.23,51.23,0,0,1,4.57,6.74c2.65,4.53,6.22,8.48,8.34,13.33.53,1.21,1.07,2.42,1.67,3.59.42.84.28,2.08,1.62,2.32.2,0,.4.5.47.79,2.16,8.35,2.17,16.41-3.74,23.44-5.44,6.48-11.38,12.46-18.68,16.9a20.84,20.84,0,0,1-3.13,1.67c-1.24.49-.78,1.33-.25,1.69,1.79,1.23,1.52,3,1.37,4.67a4.61,4.61,0,0,0,.09,2c.81,2.55-1.5,4.78-4.47,4.3a2.27,2.27,0,0,0-2,.48c-2.48,1.85-5.39,2.13-8.35,1.92-1.2-.08-1.75-.16-1.9,1.49a70,70,0,0,1-2.81,13.92,40,40,0,0,1-1.71,4.89c-.63,1.4-.4,3.05-.35,4.6a153.07,153.07,0,0,0,2.1,17.65c1.94,12.94,3.84,25.89,6,38.8.87,5.15.73,10.35,1.47,15.48.41,2.85,1.16,5.62,1.75,8.43.14.68.36,1.24-.52,1.53-.19.06-.34.29-.47.47-4.44,6.41-10.67,10.46-17.71,13.47a51.27,51.27,0,0,1-11.29,3.22c-1.31.23-2.55.72-3.83,1-5.8,1.2-11.53,1.14-16.92-1.69a9,9,0,0,1-4.18-4.9c-.3-.79-.58-1-1.47-.76-8,2.06-15.24.87-21.5-4.81a4.27,4.27,0,0,1-1.26-1.92,8.94,8.94,0,0,1,.54-7.09,26.11,26.11,0,0,1,14.08-12c-.4-.67-1.13-.89-1.63-1.37s-.89-.84-.73-1.52.89-.43,1.33-.61a1,1,0,0,0-.35-.88c-4.15-5.22-7-11.19-10-17.11a314.93,314.93,0,0,1-14.71-33.85,109.1,109.1,0,0,1-5.43-22.7,72.55,72.55,0,0,1-.5-17.32c.07-.68-.35-.76-.7-1a11.73,11.73,0,0,1-4.65-4.88,2.81,2.81,0,0,1-.37-1.16,49.71,49.71,0,0,1,1.72-14.9,4.19,4.19,0,0,1,.64-1.35c.29-.41.73-.56,1.07-.33,1.34,1,1.2-.13,1.28-.88,1-10,3.7-19.71,5.68-29.53.07-.33.4-.73,0-1s-.68.08-1,.21a5.56,5.56,0,0,1-6.7-1.22c-.49-.48-.9-.3-1.35-.12a53.46,53.46,0,0,1-10,2.73,37.43,37.43,0,0,1-24.27-3.64c-8.09-4.15-13.43-11-18.56-18-2.8-3.84-3.54-8.56-4.72-13-.41-1.54-.7-3.12-1-4.68-.08-.36-.1-.85-.55-.83-1.56.09-2.35-1.1-3.28-2a36.36,36.36,0,0,0-6.72-5.35,8.56,8.56,0,0,1-2.23-2.2,1.3,1.3,0,0,0-1.83-.37c-8,3.42-15.93,7-23.82,10.71-3.58,1.67-7.41,2.8-10.93,4.67a2.88,2.88,0,0,1-1.07.09c0-.67.59-.76,1-1,2.85-1.34,5.61-2.84,8.37-4.34A207.56,207.56,0,0,1,230.78,300c8.41-3.53,16.82-7.05,25.07-10.93.53-.25,1.2-.38.85-1.23a29.6,29.6,0,0,1,5.18-8.66c.51-.44,1-.91,1.53-1.32,1.38-1.07,2.84-1.79,4.6-.88a8.57,8.57,0,0,1,2.12,3.82c0,.55.09,1.09.07,1.64,0,.71.16.91.85.55,6.65-3.49,13.72-6.08,20.43-9.48a11.66,11.66,0,0,0,4.85-4.56,9.85,9.85,0,0,0,.57-9.79,65.43,65.43,0,0,0-3.6-6q-1-1.63-2-3.24c-.26-.41-.55-.85-.8,0A146,146,0,0,1,277,256.12l-.26.07c-2.57.58-2.57.58-1.48,2.7.6,3,.19,4.69-2.7,6.37-1.37.79-2.66,1.72-4.1,2.38l-7.77,3.56c-.52.13-1,.28-1.57.38s-.56.3-.37.73a13.05,13.05,0,0,1,.72,6.23c-.1.39-.18.79-.29,1.18-.88,3-2.26,5.48-5.52,6.37-.65.18-1.54.07-1.94.48-1.51,1.56-3.28,1.37-5.09,1-.68-.14-1.08.2-1.63.39-1.47.51-3,1.36-4.57.39a7.37,7.37,0,0,0-2.17-5.28c-.56-.43-.54-1.91-1.66-1.25-2.65,1.56-5.6,2.35-8.39,3.55-6.73,2.89-13.44,5.83-20.07,8.91-3.09,1.44-6.42,2.3-9.38,4l-3.34,1.14c-.45.15-.9.29-.57.93a50.91,50.91,0,0,0,2.62,5.17,29.57,29.57,0,0,0,2.6,4.81c.7.83.65,2.36,1.45,2.73,1.19.55.32.86.18,1.3-2.21,2.92-5.31,4-8.81,4.15-.22,0-.53,0-.66-.1-1.13-1.07-1.9-.18-2.82.4a31.32,31.32,0,0,1-5.31,2.49c-1.67.65-1.73.38-2.85-1a26.35,26.35,0,0,1-2.5-3.73c-.77-1.34-1.52-2.7-2.17-4.1-.33-.71-.58-1.36-1.82-1.29a22,22,0,0,1,3.71-3c1.3-.76,2.64-1.43,4-2.17.89-.5,2.12-.7,1.89-2.22,0-.27.4-.73.73-.93,2.82-1.8,5.47-3.88,9-4.2,1.73-.16,3.32-1.2,4.9-2,6.32-3.27,12.92-5.92,19.44-8.73,5.77-2.49,11.48-5.15,17.23-7.69.61-.27.88-.52.72-1.2a5.52,5.52,0,0,1,.13-2.31,3.25,3.25,0,0,1,3.51-2.92c.51,0,1,.17,1.31-.58,1.13-2.57,3-3.44,5.89-2.87.45.09.76.32,1-.38.81-2.46,2.47-3.26,5-2.52a9,9,0,0,1,3.88,2.46c.5.51.8.49,1.43.21,4.14-1.9,8.32-3.71,12.48-5.56a4.16,4.16,0,0,0,2.22-4.74c-.11-.4-.31-.77-.38-1.17a1.8,1.8,0,0,0-2.24-1.69c-1.9.16-3-1.15-3.68-2.68q-1.7-3.65-3.22-7.39a3.11,3.11,0,0,1,.59-3.09,17,17,0,0,1,5.51-4.42c3.08-1.82,6.05-3.9,9.78-4.3a39.41,39.41,0,0,1,6.14-.38,5.23,5.23,0,0,1,4.09,2.42c1.43,2.05,2.66,4.25,4,6.38a2.5,2.5,0,0,1,.41,1.42c0,.33.36.71-.52.64s-1.14.92-1.23,1.75h0c-.19-.1-.37,0-.37.15s.18.25.37.15Zm87.41,261.06c-1.13.25-1.77-1-2.82-1-.28.92,1,2.4-1,2.6l-.27-.28c-.53-3.47-.8-3.84-3.29-4.34-3.41-.69-4.66-.47-5.55,1.05a11.1,11.1,0,0,1,7.4,2.33c.47.33.78.92,1.45,1l.28.27a2.86,2.86,0,0,0,1.06,1.1c.24.88,1.14,1.3,1.49,2.1a2.07,2.07,0,0,0,2.43,1.24,58.57,58.57,0,0,0,19.7-5.53c.21-.1.43-.41.75.06a46.64,46.64,0,0,1-5.93,3.79,38.45,38.45,0,0,1-15.33,3.54c-1.23,0-2.38-.06-2.6-1.72-.07-.51-.63-1-1-1.4-.88-.86-1.83-1.64-2.72-2.49-2.35-2.27-5.23-2.79-8.35-2.58a1.17,1.17,0,0,0-.94.49c-1.81,2.71-4.37,4.88-4.95,8.45-.55,3.36.51,5.93,3.63,7.22,4.58,1.9,9.23,1.54,13.78.21s8.85-2.85,13.16-4.58c3.64-1.47,7.71-2.07,10.6-5.2,1.66-1.79,4.08-2.73,5.67-4.67,1.61-1.39,2.92-2.89,2.19-5.26-.18-.6-.16-1.26-.29-1.88-.5-2.27-.17-4.59-.35-7.11-7.21,5.6-15.41,6.82-24.19,6.2,1.06,1.57,2.19,2.22,3.81,1.45-.23.44-.5.86-.7,1.32s-.36,1.11-1.3,1.08c-.6,0-1.27.65-1.58,1.34-.11.25-.11.56-.45.59-1.13.12-1.8,1-2.64,1.6a3.44,3.44,0,0,1-2.46,1,.88.88,0,0,1,.6-1c.41-.18.8-.4.78-.94,1,.05,1.48-.78,2.17-1.26a.43.43,0,0,0-.06-.78c-.59-.3-.95-1-1.87-1C380.33,506.66,379.66,507.61,379.81,508.67ZM268.06,248.77a2.55,2.55,0,0,0-1.59-.06c.46.74.53,1.56,1.08,2.17l.85,2.18c.54,2.38.54,2.38,2.14,2.13l1,0c4.18-.19,7.81-2.1,11.53-3.72,1-.41,1.89-.86,2.86-1.24,1.46-.57,2.93-1.11,3.5-2.79.44-.45.88-.91,1.33-1.35a2.22,2.22,0,0,0,.31-3.26c-.67-.91-1.22-1.91-1.83-2.86-.16-.24-.24-.67-.67-.51-1,.34-2.15.26-2.76,1.34l-1.11.67c-.54.24-1.07.51-1.62.72-3.86,1.5-7,4.47-11,5.57l-.48.24-2.73.72Zm-78.19,67-2.64-4.06c-.56-1.48-1.55-2.77-2-4.3-.19-.65-.53-.54-1-.26-1.17.69-2.4,1.3-3.56,2s-2.85.78-2.95,1.78,1.07,2.2,1.69,3.31a1,1,0,0,0,.19.19,45.89,45.89,0,0,1,2.54,5c.13.39.38.47.73.26,2.75-.56,4.94-2.65,7.92-2.72A2.09,2.09,0,0,0,189.87,315.79Zm50.83-40.39c-1.88,0-2.6.91-2.49,3.11,0,.64.14,1.09.93.88.21-.06.47-.1.6.14s0,.44-.25.53c-.78.31-.43.73-.12,1.14l1.52,2a7.79,7.79,0,0,1,1.22,3.14c0,.83.85.64,1.41.51s.86-.41.48-1.07a5.37,5.37,0,0,1-.57-2.91,14.8,14.8,0,0,0-.38-4.06C242.69,277.44,242.36,275.94,240.69,275.39Zm12.89,6.74-.52,1.86a3.09,3.09,0,0,0,2.39-1.14,10.53,10.53,0,0,0,2.08-7.59,6,6,0,0,0-2.35-4.45,4.86,4.86,0,0,0-3.44-1.68,1.43,1.43,0,0,0-1.8,1.52,3.59,3.59,0,0,0,1,3C253.26,276,253.52,279.05,253.58,282.13Zm-6.64-9.58a3.22,3.22,0,0,0-2.71,0,1.73,1.73,0,0,0-.83,2.82,9.65,9.65,0,0,1,1.47,3.06,19.15,19.15,0,0,1,.72,5.4c0,1.09.7,1.45,1.47,1.64s1.7.78,2.41-.23c.24-.6,1.07-.16,1.35-.88,1.46-3.87,1-7.35-1.93-10.39C248.33,273.38,248,272.47,246.94,272.55ZM394.05,401a100.83,100.83,0,0,1-10.44,1.8,73.08,73.08,0,0,1-11.7.64c-.48,0-1-.41-1.68,0l3.81,1.93a13.86,13.86,0,0,0,12.37.48c2.77-1.23,5.61-2.43,7.63-4.87l.06-.11ZM198.74,314.57c1.79-.67,1.78-.66.53-1.92a8.71,8.71,0,0,1-1-1.28,54.47,54.47,0,0,1-4.68-9.26c-.4-1-.84-1.12-1.74-.8a23.46,23.46,0,0,0-5.36,2.69c-.54.37-.56.69-.29,1.24,1.57,3.24,3.4,6.34,5.16,9.48,1.32,2.18,1.59,2.3,4,1.5A9.26,9.26,0,0,0,198.74,314.57Zm135,148.9.06.5c2.54,4.82,4.75,9.81,7.16,14.7a151.31,151.31,0,0,0,7.25,14c.4.64,1.09,1.47-.4,1.85a3.39,3.39,0,0,0,1.56,1,22.4,22.4,0,0,0,19.07,2.7c.85-.25,1-.62.54-1.34-.92-1.35-1.82-2.72-2.74-4.07a66.46,66.46,0,0,1-9.8-23.28c-2.35-10.72-5.14-21.4-4.88-32.52,0-.48,0-.82-.64-1a37.51,37.51,0,0,1-11.13-6c-.55-.58-1.71-1-1-2s1.65-.4,2.45.09,1.41.84,2.08,1.31a35.65,35.65,0,0,0,17,6.42c.19,0,.35.08.32.32-.08,0-.15.12-.23.12l-4.1.07c-2.87,0-2.63-.34-2.48,2.7.06,1.19-.22,2.52.6,3.61a39,39,0,0,0,.91,7.94c1.57,8.06,2.71,16.22,5.28,24.06a161.76,161.76,0,0,0,8.46,19.75c.28,1,.75,2.38,1.58,2.55,1.85.37,3.55,1.12,5.32,1.64,5.56,1.64,11.21,1.63,16.9,1.19a9.94,9.94,0,0,0,3-.45c3.77-1.48,7.59-2.77,11-5.11,2.69-1.85,2.81-1.71,1.79-4.94-3.06-9.69-4.76-19.68-6.34-29.68-.84-5.29-1.64-10.58-2.31-15.89-.62-5-1.45-9.9-.77-14.92a1.17,1.17,0,0,0-.19-.76,2,2,0,0,1,0-2.19,37.2,37.2,0,0,0,1.65-4.18c1.42-4.94,2.38-10,3.32-15,0-.26.25-.52-.12-.69a21.17,21.17,0,0,1-5.41-3.56,33.41,33.41,0,0,0,0,5,18.63,18.63,0,0,1-.91,8.46,6.72,6.72,0,0,1-3.91,4.56c-2.52,1.1-5.19,1.65-7.75,2.56a25,25,0,0,1-9.5,1.57,27.28,27.28,0,0,0-4.34-.15c-3.46.44-6.78-.2-10.15-.67a8.07,8.07,0,0,1-5.31-2.81c-1.23-1.49-2.79-2.69-2.21-5.28.36-1.61-.06-3.59-.11-5.41s0-1.87-1.84-1.84c-4.47.07-9,.22-13.22-1.43a21.47,21.47,0,0,0-5.35-1.31,13.7,13.7,0,0,1-3.93-1.1,8.38,8.38,0,0,0-1.94-.6c-3.12-.55-6.37-.18-9.42-1.26-.62-.22-.76.29-.74.81,0,1.19.05,2.37.08,3.56a50.83,50.83,0,0,0,.75,9.56c-.19,1.35.37,2.59.55,3.89A112,112,0,0,0,324,440a194.86,194.86,0,0,0,7.52,18.75c.71,1.6,1,3.39,2.21,4.76Zm20.53-61.93c.17-2.53-.18-5.08.28-7.61.13-.74-.11-1.09-1-1.23-1.71-.29-3.45,0-5.14-.44-.93-.24-1.36.19-1.57,1.15-.66,3-1.43,6-2.15,9-.79,1.4-2.45,1.19-3.59,2,1.1,1.27,1.11,1.26,1.51,1.35,3.55.85,7.16.41,10.74.54.75,0,.94-.32.92-1C354.29,404,354.3,402.77,354.29,401.54ZM406.38,513h0a16.82,16.82,0,0,1-4,3.79c-4.4,2.76-9.37,4.19-14.15,6.07-4.57,1.81-9.5,2.47-14.07,4.3a8.42,8.42,0,0,1-2.68.4,29.71,29.71,0,0,1-8.37-.86c-.08-.13-.14-.34-.34-.11l.35.1a4.53,4.53,0,0,0,2.79,1.3,32.2,32.2,0,0,0,11,.32c9.09-1.56,17.76-4.22,25.3-9.79a28.31,28.31,0,0,0,7.32-7.42c.43-.68.74-1.34,0-2.08a34.8,34.8,0,0,1-3.26,3.51C405.9,512.89,406,513,406.38,513ZM307.22,312.8v.55c-.4.43-.82.81-.74,1.51.42,3.85.89,7.69,1.65,11.48.69,3.48,1.15,7,2.75,10.26,1.46,3,3.34,5.7,4.86,8.64.22.43.68.37,1.09.41,1.17.1,2.23-.44,3.36-.56A1.91,1.91,0,0,0,322,343.5a79.61,79.61,0,0,1,3.3-9.85c1.22-2.94,2.09-6,3.89-8.72,1.41,0,1.64.38,1.1,1.62-.16.38-.36.74-.5,1.12A167.49,167.49,0,0,0,321,357c-1.21,6.58-2.66,13.11-4,19.67a9.36,9.36,0,0,0-.55,2.22c-.37,1.32.21,1.92,1.27,2.57a39,39,0,0,0,11.54,4.46,1,1,0,0,0,1-.14c.5-.49,1.07-.36,1.67-.24,4.22.85,8.28,2.48,12.63,2.76,1.18.07,2.43.14,2.71,1.72,0,.28.43.29.71.31,3.12.15,6.24.87,9.33-.27a5.45,5.45,0,0,1,1.75-.22c1.55,0,3.1,0,4.65,0a1.22,1.22,0,0,0,1.32-.71c1.33-2.69,2.72-5.36,4.08-8a1.54,1.54,0,0,0,.44-1.6c-.39-1.34.13-2.12,1.51-2.27a13.32,13.32,0,0,1,7.31,1.18c1.9.92,2,1.51,1.07,3.45-.6.39-1.53.25-1.86,1-.84,2-1.62,4-2.42,6-.17.41-.1.74.44.73a13.64,13.64,0,0,0,3-.12c.63-.15.33-1.15.71-1.66.11-.15.21-.3.3-.46,2-3.21,5.09-3.34,8.34-2.87a6.68,6.68,0,0,1,5.1,3.3c.32.54.61.46,1.11.29a28.48,28.48,0,0,1,4.06-1.2c1.26-.23,1.34-.85,1.15-1.91q-.6-3.36-1-6.75a100.37,100.37,0,0,1-.29-11.9,195.22,195.22,0,0,1,.61-21.32,1.94,1.94,0,0,0-.22-1.31c-1.74-2.78-3.19-5.74-5.17-8.38-1.13-1.5-2.46-2.82-3.69-4.22-.35-.4-.77-.92-.27-1.45s.95,0,1.33.26a19.5,19.5,0,0,1,3.84,3.48,40.45,40.45,0,0,1,4.61,7.1c.44.78.9,1,1.62.38,1.6-1.28,3.22-2.54,4.83-3.8a68.88,68.88,0,0,0,9.76-9.29c1.9-2.25,4-4.32,5.54-6.89a20.18,20.18,0,0,1,1.67-2.31c1.06-1.11.75-1.86-.28-2.81a97,97,0,0,0-13.77-10.5c-2.81-1.78-5.83-3.19-8.79-4.7-1.18-.6-1.91-.35-1.85.63a7.08,7.08,0,0,1-2.32,6c1.12,0,2-.08,2.53.82l-.22.52a6.51,6.51,0,0,0-4.75,2.83,75.34,75.34,0,0,0-4.47,6.79c-1.94,2.44-4,4.8-6.92,6.08-1,.39-2.32.22-2.87,1.5l-.69.17c-1.85-.21-3.71.36-5.56-.08-.87-.21-2-.26-2.11-1.32s-.8-2.09-.66-3.57l-2.2,2c-2.6,2.14-5.21,4.18-6.81,7.33-1.52,3-2.4,6.2-3.72,9.26a135.91,135.91,0,0,0-10.15,34c0,.31-.06.73-.49.66s-.35-.47-.34-.79a35.1,35.1,0,0,1,.36-7.09l.33-1.73c1.72-9.09,5.77-17.44,8.39-26.24a52.4,52.4,0,0,1,4.2-10c-1.29.71-1.22.05-1.28-.61a22.18,22.18,0,0,0-.91-5.79,3.8,3.8,0,0,0-.49.45c-.63.88-1.16.93-1.82,0a13,13,0,0,0-2.86-2.9,55.16,55.16,0,0,1-5.71-4.66c-3.37-3.45-4-7.66-3.22-12.21.09-.52.56-1.25.13-1.54s-1.16.19-1.73.45l-2.22.73c-6.08,1.72-12.15,3.47-18.29,5-2.7.66-2.69.69-2.48,3.5a37.11,37.11,0,0,0,.53,8.84c.5,3.59.89,7.23,2.34,10.62a33.89,33.89,0,0,1,1.51,6.25,16.9,16.9,0,0,1-3.8-4.68A52.1,52.1,0,0,1,316,312a4.54,4.54,0,0,0,0-.54c.16-2.67.16-2.65-2.57-2.28a27.15,27.15,0,0,0-5.46,1.2C306,311.06,305.88,311.23,307.22,312.8ZM408.3,337.75c-2,1.48-3.9,3-5.89,4.43-1.6,1.16-1.59,1.1-.62,2.93s2.43,3.77,2.72,6.06c-1,.14-1.46-.6-2-1.19s-1-1.27-1.65-2c-.52,5.24-.95,30.75.47,33.66,1.26-4.92,4-9.11,6.54-13.35s5.33-8.38,9.85-11.16a18.64,18.64,0,0,1-8.26-6.28c-.38-.51-.73-.11-1.08,0-1.21.36-2.39,1-3.68.36a1.24,1.24,0,0,1,1.1-1.44,14.58,14.58,0,0,0,4.26-2.11,114.39,114.39,0,0,0,10.48-8.07,41.43,41.43,0,0,0,6.37-5.94,15.28,15.28,0,0,0,2.3-3,12.79,12.79,0,0,0,1.94-3.11,1.54,1.54,0,0,0,.12-1.57c-1.82-2.44-3.32-5.13-5.68-7.13-.49-.41-.86-.38-1.21.21-.71,1.22-1.45,2.42-2.18,3.62-.59.81-1.15,1.63-1.76,2.42A85.72,85.72,0,0,1,408.3,337.75Zm-95.58,52a29.57,29.57,0,0,1-.1,4.63,3.67,3.67,0,0,0,1.42,3.7c3.46,3,7.62,3.81,12,4,.77,0,.92-.37.88-1a19.2,19.2,0,0,1,.23-3.93,56.05,56.05,0,0,1,1.65-7.84c.4-1.25.19-1.85-1.22-2.07a24,24,0,0,1-4.06-1.11,33,33,0,0,1-8.56-4.43c-.65-.47-1-.51-1.2.4A57.6,57.6,0,0,0,312.72,389.77Zm78,9.85c1.36-.37,2.72-.71,4.07-1.1a1.36,1.36,0,0,0,1.11-.88,4.52,4.52,0,0,0-2.61-5.73,11,11,0,0,0-5.68-.83c-5.47.49-11,.7-16.47.88-3.83.13-7.67,0-11.5,0a6.86,6.86,0,0,0-1.09,0c-.88.14-1.23.61-.64,1.41s1,1.25,1.57,1.87a15.25,15.25,0,0,0,6.94,5.71,6,6,0,0,0,3.11.84c4.05-.51,8.17-.1,12.21-.8C384.75,400.5,387.79,400.3,390.75,399.61ZM376.24,323.5c.22.24.49.19.76.15,5.74-.91,9.23-4.66,11.89-9.45,1.66-2.88,4.35-5,6-7.9a8.3,8.3,0,0,0,1.19-5.86c-.27-1.47-1.26-2.16-2.07-3.06a17.85,17.85,0,0,1-13.32,11.17,53.67,53.67,0,0,0-8.84,2.66c-.57.23-.79.48-.72,1.09q.37,3,.66,6.11c.1,1.08.24,2.15-.71,3.05a1.42,1.42,0,0,0-.06,1.78c.35.62.89.57,1.43.47A27.81,27.81,0,0,1,376.24,323.5Zm-9,85.73c0,3.76,0,7.53,0,11.29a1.08,1.08,0,0,0,1,1.23,28.85,28.85,0,0,0,11.76.78c4.81-.78,9.66-1.69,14.11-3.91a1.73,1.73,0,0,0,1.16-1.34c.29-1.6.67-3.19,1-4.78q0-5.18,0-10.37c0-.25.11-.61-.23-.71s-.54.26-.75.48a22.27,22.27,0,0,1-7.6,5.7c-.94.39-1.57.7-1.61,2a2.6,2.6,0,0,1-2.35,2.33,1.54,1.54,0,0,1-1.94-1.11c-.19-1.92-1.62-1.6-2.75-1.76a12.54,12.54,0,0,1-2.26-.48,29.21,29.21,0,0,1-8.16-4.05c-.54-.4-1-.52-1.09.4A22.57,22.57,0,0,0,367.21,409.22Zm-10.42,94h-1.1c-.39-.26-.81-.63-1.25-.3-.19.14.16.44.39.58.16.77-.14,1.45-.92,1.26-1.71-.41-3,.82-4.65.8,1.33,1.13,2.14,2.59,3.39,3.68a1.13,1.13,0,0,0,1.62.16c1.67-1,3.36-2,5-3,.37-.22.83-.61,1.18,0s-.16.8-.55,1c-2,1.24-3.9,2.53-5.9,3.71-.74.44-1.8,1.22-2-.61,0-.24-.41-.46-.66-.66-.84-.69-1.7-1.36-2.54-2.06-2.05-1.7-4.13-3.3-7-3.21a3,3,0,0,0-2.29,1,32,32,0,0,0-5.16,7.68,2,2,0,0,0,0,1.49c.38,1.68,1.8,1.91,3,2.47a25.33,25.33,0,0,0,15.21,1.8c2.36-.39,4.54-1.07,4.68-4.06a.72.72,0,0,1,.1-.25,31.85,31.85,0,0,1,10.13-12.29l4.84-2.78a2.46,2.46,0,0,0-3.05-.36c-3.49,1.58-7.05,2.93-11,2.06-1.11-.24-2.26-.37-3.58-.57C356.58,502,356.58,502,356.79,503.18Zm58.6-102.54a2,2,0,0,1,1.45.21,3.87,3.87,0,0,0,2.64.39c.76-.16,1.58-.38,1.65-1.58-2,.82-3.81,1.29-5.7.26l-.52-.64c-1.16-1.42-1.16-1.42.7-2.1.24-.09.53-.13.66-.53-1.65-1.1-1.07-3.76-3.2-4.64.24-.47.74-.48,1.14-.65a81.72,81.72,0,0,0,9.18-4.56,68.3,68.3,0,0,0,18.45-16.74c5.11-6.62,6.38-13.9,2.24-21.81-3.21-6.15-6.38-12.28-10.78-17.68a2.49,2.49,0,0,0-1-1.38,24.38,24.38,0,0,1-6.66,8.92c-4.72,4.09-9.42,8.2-14.78,11.52a19.59,19.59,0,0,0,7.28,5.5c.93.37,1.89.68,2.81,1.06.45.19,1.08.38,1.1.91s-.68.64-1.07.93a1.64,1.64,0,0,1-.51.2,10.56,10.56,0,0,0-5.23,3.59,79.23,79.23,0,0,0-13.18,22.88c-.5,1.38-1.18,2.89-.29,4.45.18.31-.08.7-.16,1.05-.31,1.42-1.53,2.34-1.94,3.71-1.43,4.76.22,7.79,4.34,9.35a14.36,14.36,0,0,0,9.81-.2C415.14,402.62,415.91,402.1,415.4,400.64ZM267.76,280.75c-1-2.31-1.59-2.46-3.36-.74a30.07,30.07,0,0,0-5.57,8.38,1.07,1.07,0,0,0-.14.64c.28,1.23-.57,1.57-1.45,1.94-2.18.92-4.51,1.39-6.66,2.41-2.83,1.34-5.74,2.52-8.69,3.79a4.69,4.69,0,0,0,2.83,2.19c.38.07.84.29.77.64-.23,1.13.63,1.2,1.28,1.57a11.53,11.53,0,0,1,2.12,1.49,36.39,36.39,0,0,1,3.6,3.65c.44.54,1.38.06,1.45.9.18,2.25,1.1,4.32,1.6,6.49a39,39,0,0,0,3.18,9.58c2.84,5.39,7,9.74,11.17,14.12a23.34,23.34,0,0,0,8.64,6.06A44.64,44.64,0,0,0,290.63,347c6.86.58,13.43-.75,19.9-2.82,1.82-.58,2.13-1.82.77-3.23a15.57,15.57,0,0,1-3.89-6.66,82.5,82.5,0,0,1-2.92-18.73c-.06-1.39-.47-1.69-1.68-1.21a56.52,56.52,0,0,0-13.52,4.25c-.16.08-.41.13-.47.26-.73,1.61-1.07.51-1.47-.2a6.49,6.49,0,0,0-.51-.8c-2.22-2.83-4.43-5.68-6.68-8.48a39.44,39.44,0,0,0-11.88-10.16,2.59,2.59,0,0,1-1.54-3.15,21.24,21.24,0,0,0,0-5.59,9.09,9.09,0,0,1,.65-5.67A4.71,4.71,0,0,0,267.76,280.75Zm89,114.67c0,1.89,0,3.4,0,4.9a20,20,0,0,0,.06,4.5,5.69,5.69,0,0,1-.3,4c-.73,1.58,0,3.45-.59,5.11-.63,1.82,0,3.23,1.23,4.56,1.85,2.07,3.95,3.62,6.88,3.6,1.3,0,1.63-.47,1.38-1.81a40.39,40.39,0,0,1,0-16.09,1.29,1.29,0,0,0-.82-1.73,18.23,18.23,0,0,1-5-3.68C358.62,397.86,357.94,396.68,356.79,395.42ZM284.46,236.58c-6.42-.1-11.89,2.31-16.77,6.3a10.41,10.41,0,0,0-1.7,1.76c-.93,1.24-.71,1.68.79,1.94a5.6,5.6,0,0,0,2.43-.1,53.32,53.32,0,0,0,15.67-6.83,17.93,17.93,0,0,0,2.1-1.75c.28-.25.74-.5.51-1s-.62-.31-1-.32C285.82,236.57,285.14,236.58,284.46,236.58Zm49.77,154.6c-.66-.11-.7.38-.78.84-.43,2.36-.87,4.72-1.29,7.08-.18,1,.37,1.29,1.24,1.36a30.57,30.57,0,0,0,3.94.29c.71,0,1.5.85,2,.31s.14-1.39.31-2.08.1-.89-.59-1a17.63,17.63,0,0,1-2.17-.79,1.2,1.2,0,0,1-.86-1.61,1.09,1.09,0,0,1,1.53-.72,4.64,4.64,0,0,0,.8.16c2.15.26,2.31.11,2.47-2.05,0-.38,0-.61-.44-.68Zm9.13,6.76c-1.89.13-1.63,1.69-2.07,2.79-.36.89.06,2.85-2,1.69,0,0-.09,0-.13,0-2.63,1-5.22,0-7.82-.15a1.82,1.82,0,0,1-1.61-2c.64-3,1.29-5.94,2-8.9.27-1.16.95-2,2.29-1.89,2.89.33,5.77.73,8.65,1.13.62.08,1,.6.65,1.09-.66,1-.39,2.22-.7,3.3a1.49,1.49,0,0,0,1,2,54.14,54.14,0,0,0,1.66-5.77c.2-.71.06-1.13-.86-1.29-3.18-.53-6.37-.94-9.51-1.76-2.93-.77-3.53-.22-4.08,2.71,0,.18-.09.35-.13.53a60.58,60.58,0,0,0-1.5,10c0,.51-.08,1,.57,1.23,4.19,1.41,8.36,2.5,12.56,0,.4-.24.64-.49.6-1A14.91,14.91,0,0,1,343.36,397.94Zm34.75-17.57a15.63,15.63,0,0,0-5.47-1.48c-.17,0-.48.05-.39.25.46,1-.47,1.37-.84,2-1.4,2.55-2.64,5.19-4,7.79-.3.6-.16.83.5.82,1.37,0,2.74,0,4.11,0a.92.92,0,0,0,.95-.62c1-2.32,2-4.59,2.82-7C376.17,381.11,376.47,380.37,378.11,380.37Zm-8.93-65.84c-.4,1.14-.41,1.17-1.71,1a36.12,36.12,0,0,1-6.82-1.38c-.52-.18-1.22-.75-1.59-.25a2.36,2.36,0,0,0,0,2.11,1.62,1.62,0,0,0,1,.91,14.26,14.26,0,0,0,9,.78c.43-.09.59-.33.43-.65C369,316.21,369.35,315.32,369.18,314.53Zm-2,6a19,19,0,0,1-6.84-.81c-.72-.24-.74.34-.72.79a25.24,25.24,0,0,0,.71,6.42C362.19,324.36,364.84,322.86,367.17,320.51Zm24.2,68.73a.82.82,0,0,0-.15-.92c-1.75-2.41-7.92-3.15-9.76-.35-.21.33-.7.56-.46,1s.65.23,1,.23ZM345,521.66c2.25.74,4.57.29,6.85.44a10.45,10.45,0,0,0,4-.66c.55-.18,1.09-.38.86-1.11s-.78-.34-1.23-.23a33.41,33.41,0,0,1-4.29,1.24C349.16,521.59,347.09,521.41,345,521.66Zm33.7-20.11a2.35,2.35,0,0,0,.24.62c1.25,1.36,2.91,2.25,4.05,3.76.49.65.88-.29,1.31-.49s.59-.45.24-.74A12,12,0,0,0,378.73,501.55Zm18.54-108.48a40,40,0,0,1,1.88-3.74.79.79,0,0,0,0-.65c-.12-.27-.37-.12-.59-.05l-4.46,1.4C395.41,390.74,396.73,391.25,397.27,393.07ZM378.52,506.91c.58-2.5-.59-3.9-4.16-4a13.27,13.27,0,0,0,1.36,1.89C376.54,505.59,377.73,505.93,378.52,506.91ZM343,502.82a13.59,13.59,0,0,1,4.15,1.18,3.66,3.66,0,0,0,1.32.24c.49,0,1.12.09,1.16-.6s-.57-.62-1-.68a8.07,8.07,0,0,1-3-.84C344.45,501.43,343.75,501.87,343,502.82Zm75-106.85a3.13,3.13,0,0,0,1.11-3.16c-.05-.63-.24-.82-1-.67-1.62.34-1.63.28-1,1.82C417.39,394.58,417.63,395.21,417.94,396ZM388.22,218c-.36-1.69-.34-3.42-2.74-3.67C386.25,215.71,386,217.59,388.22,218Zm2.69,1.09c-.07-.64-.14-1.12-.18-1.61-.06-.81-.63-1.15-1.28-1.43-.41-.17-.72,0-.58.38C389.23,217.45,389.3,218.77,390.92,219Zm.81-1.26c.78,1.13.45,2.72,2.15,2.86C393.65,218.52,393.52,218.33,391.73,217.79Zm-6.84-1.7c-.21-.74-.4-1.48-.65-2.21a.51.51,0,0,0-.64-.36.49.49,0,0,0-.19.44c.2.79.42,1.58.67,2.35a.49.49,0,0,0,.56.3C384.94,216.56,384.93,216.34,384.89,216.09ZM373.66,504.17c-.7-.83-1.06-1.62-2.12-1.09-.28.14-.69.25-.64.61s.5.27.79.3C372.22,504.05,372.76,504.09,373.66,504.17Zm20.82-284.06c.16,1,.73,1.95,1.15,1.93a.31.31,0,0,0,.32-.35,2,2,0,0,0-1.36-1.64S394.51,220.08,394.48,220.11ZM382,215.83a.47.47,0,0,0,.52-.61c-.06-.38-.09-.94-.6-.91s-.62.54-.66.93S381.62,215.79,382,215.83Zm30-68.69-.06.08h.1Z"/><path class="cls-16" d="M342.08,161.37c3.1-4,7.08-6.92,11.16-9.75,1.8-1.25,3.62-2.45,5.38-3.75,1.13-.84,2.52-.66,3.74-1.15a69.57,69.57,0,0,1,14.14-3.57c4.84-.82,9.74-1.34,14.5-2.67l.85-.28c-1.32-.53-2.52-.08-3.61-.45.52-.58,1.2-.35,1.79-.26a23.82,23.82,0,0,0,3.94.15,1.44,1.44,0,0,0,1.23.77c4.49.36,8,2.68,11.53,5.27a20.38,20.38,0,0,1,6,6.71c2.57,4.67,5.61,9.08,8.47,13.59a8.16,8.16,0,0,1,1.06,1.9c-1.22-.12-1.27-1.33-1.81-2-3.14-4.08-6.4-8.08-9.22-12.37a19.52,19.52,0,0,0-7.1-6.22,22.31,22.31,0,0,0-12-3.18c-2.19.1-4.39-.67-6.53-.22-3.31.68-6.7.4-10,1.2-2.51.61-5.1.93-7.59,1.68-4.5,1.35-8.41,3.8-12.33,6.35a48.33,48.33,0,0,0-11,10.46,49.18,49.18,0,0,0-6,10.12c-.17.36-.37.67-.82.5s-.35-.45-.3-.81c.47-3.12,1.1-6.17,2.89-8.88C341.07,163.5,342,162.62,342.08,161.37Z"/><path class="cls-17" d="M256.7,287.85c.35.85-.33,1-.85,1.23-8.26,3.88-16.66,7.4-25.07,10.93A207.56,207.56,0,0,0,212,308.84c-2.77,1.5-5.52,3-8.37,4.34-.43.2-1,.29-1,1a1.28,1.28,0,0,1-.87.24c.15-.44,1-.75-.18-1.3-.79-.37-.74-1.9-1.45-2.73a2.85,2.85,0,0,0,.67-.08c3.79-1.42,7.63-2.73,11.34-4.32,5.37-2.3,11.05-3.86,16.05-7.07a26,26,0,0,1,6.33-2.48,136.3,136.3,0,0,0,17.31-6.61C253.36,289,254.9,288.06,256.7,287.85Z"/><path class="cls-15" d="M292.4,247.33c0,.16.1.23.26.17-.19-.22-.22,0-.27.11h0s.08-.07.08-.1a1,1,0,0,0-.08-.2Z"/><path class="cls-18" d="M385.3,219.27c1.53.57,3.34.62,4.26,2.33a.41.41,0,0,0,.33.18c2.25-.52,3.43,1.38,5,2.27a10.13,10.13,0,0,1,2,1.82c.31.31.71,1,1,.56.41-.62,1.73-.41,1.39-1.7a13.79,13.79,0,0,0-2.93-5.62,21.7,21.7,0,0,0-6.46-4.94c.09-.7.73-.77,1.2-1,1.3-.54,2.66-.94,3.94-1.52s2.59-.76,3.54-1.71a23.49,23.49,0,0,1,5.26-3.79,13.55,13.55,0,0,1,10.35-1.43,7.84,7.84,0,0,0,3.18.63,53.59,53.59,0,0,1,3.63,5.11,9.21,9.21,0,0,1-1.49,11.83,15.77,15.77,0,0,1-2.72,2.66c-.23.14-.44.37-.28.68a.39.39,0,0,0,.58.18c1.4-.91,2.7,0,3.85.44a9,9,0,0,1,6,8.88c-.14,1.94-.21,3.9-.29,5.86a10.17,10.17,0,0,0-.59,3.93c-.25.07-.61.07-.72.24s.13.56.34.63c1.47.47,2.71,1.67,4.56.81,1.36-.63,1.63-1.75,2-2.84a23,23,0,0,0,.68-3.3h.73l.61,1.09c-.08,1.18-.55,2.36,0,3.54l-.54.36c-.25.16-.7.23-.55.62s.62.17.9,0A3.32,3.32,0,0,1,436,246c.26.89,1,.84,1.67.77a22.15,22.15,0,0,0,2.4-.46c1.73-.39,3.59-1,4.16-2.73,1-3.11,2.75-6.12,2.18-9.6.27-.11.18-.23,0-.35l0,0a1.33,1.33,0,0,0-.62-1.27c-2.25-1.38-4.93-2-7.46.05a17.24,17.24,0,0,0-4,4.78l-.47-.06c.56-4.19,3.1-7.21,6-10a5.42,5.42,0,0,1,1.23-.86c2.79-1.52,5.54-.54,7,2.47a11.33,11.33,0,0,1,.84,4.4c.34,6.62-2.57,11.49-8.06,14.95-1.08.68-2.27,1.18-3.35,1.86-1.83,1.13-3.84.93-5.83,1s-2.12,0-2.23,2a18,18,0,0,1-1.29,4.56,4.9,4.9,0,0,0-2.87,2.16,53.63,53.63,0,0,1-5.36,5.78c-2.56,2.44-5,5.05-7.74,7.27-2,1.62-3.82,3.53-5.93,5a63.8,63.8,0,0,1-8.64,5.18c-4.06,2-8.11,3.92-12.62,4.6-3.76.57-7.41,1.84-11.27,1.78a1.64,1.64,0,0,0-1,.3,2.91,2.91,0,0,1-2.74.45c-3.69-.88-7.55-.73-11.18-2.12-3.17-1.21-6.61-1.7-9.5-3.65a3.58,3.58,0,0,0-.86-.41,36,36,0,0,1-7.64-3.92c-3.83-2.4-6.81-5.73-9.79-9a35.76,35.76,0,0,1-5-7,49.11,49.11,0,0,1-4.76-13.74c-.07-.35-.16-.61-.56-.64l0-1.91a1.93,1.93,0,0,0,.06-1.92,30.9,30.9,0,0,1,.56-5.57,83.82,83.82,0,0,0,1-11c.08-1.63.33-3.26.56-4.88a86.57,86.57,0,0,0,.77-9.5c1.45.46,3-.06,4.45.62a3.3,3.3,0,0,0-.65,1.75c0,.87.85,1,1.18,1.62.21.38.7-.31,1-.59,1.8-1.6,4.31-1.52,6.32-2.65a.27.27,0,0,1,.24.06c.38.4.63.18.86-.17a1.81,1.81,0,0,1,1.67-.71c.41.85,1.19.86,2,.89,2,.09,4.08-.12,6,.39,3.94,1.08,8,1.43,11.93,2.6a55.32,55.32,0,0,0,6.3,1,24.76,24.76,0,0,0,10.78-.47c1.52-.4,2.73-.55,4.06.45a8.9,8.9,0,0,0,2.77,1.13C384.33,221.25,384.61,221.08,385.3,219.27ZM358.2,276.15c-.3,1.49.82,1.65,1.8,1.83a8.38,8.38,0,0,0,8-2.7,2.43,2.43,0,0,0,1.66-.48c1.09-1,3-1.36,2.67-3.44,4.36-1.65,6.62-5.18,8.22-9.27.09-.22.32-.54,0-.72a.71.71,0,0,0-.63.1c-2.18,1.72-4.85,2-7.43,2.5a31.21,31.21,0,0,1-22.92-3.2,1.08,1.08,0,0,0-1.28,0c-.44.36-.28.76-.14,1.23a14.41,14.41,0,0,1,.32,6.5c-.17,1.08-.51,2.17,1,2.65.23.07.34.5.51.77-.47,1.61-.27,2.18,1.25,2.93a11.85,11.85,0,0,0,4.74,1C356.73,275.87,357.55,275.51,358.2,276.15ZM350,253.3a35,35,0,0,0,6.91-.73c-.24-.22-.3-.32-.37-.33a6.61,6.61,0,0,0-.81,0,17.7,17.7,0,0,1-8-1.38c-2-.8-2.56-2.23-2.05-4.3a10.13,10.13,0,0,1,2-3.69c2.76-3.63,6.27-6.73,7.15-11.59.65-3.62.93-7.06-1.22-10.27-.74-1.1-1.7-1.92-3.19-1.39-.83.17-.74.82-.72,1.4.11,2.22.31,4.44.34,6.66s.15,4.41-1.22,6.4a85.1,85.1,0,0,0-5.72,9.84,11.47,11.47,0,0,0-1,6.2,2.46,2.46,0,0,0,1.52,2.27,24.3,24.3,0,0,0,3.34,1.13C347.92,253.7,349,254.45,350,253.3Zm-7.15-19.66c.21.65.53,1,1.3.7,4.73-2,6.79-7,3.36-10.82.3-1.24-.57-1.77-1.39-2.38-3.17-2.36-8.68-2.28-11.16,1.74-.3.49-.78.94-.5,1.61a7.07,7.07,0,0,0,.71,7.25,2.37,2.37,0,0,0,3.25,1.05Zm30.93,2.66c.39,2.42,2.39,3.58,4,5.06.06.06.26,0,.39-.06a10.22,10.22,0,0,0,1.41,1,7.08,7.08,0,0,0,7.14-.65,5.75,5.75,0,0,0,2.77-5.69,10.33,10.33,0,0,0-2-4.71,2,2,0,0,0-.82-2.16c-3.9-2.8-7.8-4.34-12.34-1-1.4,1-2.94,2.16-2.25,4.35a3.3,3.3,0,0,0-.09,3.28C372.33,236.48,373,236.46,373.73,236.3Z"/><path class="cls-19" d="M420.9,320.76c-1.5,2.57-3.64,4.64-5.54,6.89a68.86,68.86,0,0,1-9.76,9.29c-1.5-.18-2.42-1.37-3.6-2.1-3.16-2-6.57-3.5-9.66-5.62a31.7,31.7,0,0,0-4-2.72c-.55-.26-1.16-.52-1.66-.05a1.4,1.4,0,0,0-.13,1.66,57.62,57.62,0,0,1,2.74,7.51c1.15,3.87,2.29,7.75,2.3,11.84,0,3.91-1.12,7.73-.83,11.66a1.3,1.3,0,0,1-.13.52c-2,5.27-2.55,10.94-4.44,16.27A9.16,9.16,0,0,1,379.7,382s-.13-.11-.19-.18c1-1.94.83-2.53-1.07-3.45a13.32,13.32,0,0,0-7.31-1.18c-1.38.15-1.9.93-1.51,2.27a1.54,1.54,0,0,1-.44,1.6,1.53,1.53,0,0,0-.52.1,27.38,27.38,0,0,1-18.7,4.23,13.15,13.15,0,0,1-3.84-.78c-2.35-1.09-4.7-2.18-7.11-3.13a12.13,12.13,0,0,0-9.54-.24,2.91,2.91,0,0,1-1.85.27c-3.37-.78-6.71-1.57-9.27-4.17a1.85,1.85,0,0,0-1.3-.69c1.34-6.55,2.79-13.09,4-19.67a167.49,167.49,0,0,1,8.7-29.28c.15-.38.34-.75.5-1.12.53-1.24.3-1.58-1.1-1.62-.73-.52-1.21,0-1.75.4-1.18.87-2.13,2-3.24,2.93-.84.71-1.51,1.74-2.77,1.83-1.45-3.39-1.84-7-2.34-10.62a37.11,37.11,0,0,1-.53-8.84c2.86-.46,5.65-1.2,8.45-1.92,4-1,7.9-2.33,11.8-3.65.67-.23,1.51-.39,1.61-1.43s-.5-1.15-1.09-1.47l2.22-.73c-.29,1.74-.69,3.48-.85,5.23-.3,3.39,1.33,6.25,3.18,8.81,2.83,3.95,6.93,6.81,9.71,10.86a5.17,5.17,0,0,1,1.12,3.42,33.5,33.5,0,0,1-1.66,6.86c-2.38,6.68-4.3,13.5-6.2,20.33a24.07,24.07,0,0,0-1.27,8.18c0,.67.09,1.2.95,1.1a35.1,35.1,0,0,0-.36,7.09c0,.32-.05.73.34.79s.44-.35.49-.66a135.91,135.91,0,0,1,10.15-34c1.32-3.05,2.2-6.26,3.72-9.26,1.6-3.15,4.22-5.2,6.81-7.33.77.94,1.19,2.13,2.3,2.84a8.45,8.45,0,0,0,6.32.9c.67-.11,1.49-.05,1.91-.81l.69-.17a3.18,3.18,0,0,0,2.87-1.5c3-1.28,5-3.64,6.92-6.08,3.92-2.4,7.67-5,9.22-9.62l.22-.52c.79-1.38.74-2.93.87-4.44.09-1,.59-1.3,1.45-.86s1.46.92,2.2,1.35a36,36,0,0,1,7,4.63A111.2,111.2,0,0,1,420.9,320.76ZM386,348.22c-2.47-.29-4.68.48-6.94.65a26.27,26.27,0,0,1-10.42-1c-1.25-.42-1.79-1-1.46-2.38a16.79,16.79,0,0,0,.48-3.79c0-1.17.33-1.26,1.42-1.09,6.05.9,12.13,1.62,18.25.71.94-.14,1,.15.88.91-.29,1.85-.51,3.71-.81,5.55-.12.72,0,.9.76.72a1,1,0,0,0,.92-1c.28-2.08.61-4.15.92-6.23.05-.36.14-.74-.24-1a.78.78,0,0,0-1.1.19c-.37.4-.84.29-1.28.26-.82-.06-1.63-.21-2.45-.21-5.53,0-11-.44-16.54-.87-2.1-.17-2.16-.13-2.43,2a39.12,39.12,0,0,0-.53,5c0,.21-.19.45.09.59,1.27.67,2.15,1.86,3.6,2.36,5.28,1.81,10.43,1.15,15.58-.44A1.92,1.92,0,0,0,386,348.22Z"/><path class="cls-20" d="M318.71,416.63a50.87,50.87,0,0,1-.75-9.56c1.72-.9,3.46-.51,5.15,0a65.93,65.93,0,0,0,7.27,1.75c1.82.36,3.71,0,5.56.47a33.62,33.62,0,0,0,9.81,1.32,27.88,27.88,0,0,1,3.76.48c.66.08.89.39,1,1,1.13,6.35,5.25,10.45,10.39,13.8,2.77,1.8,5.9,1.91,9,2.18,4.44.39,8.77-.72,13.18-.88a11.29,11.29,0,0,0,3.31-.72c2.1-.74,4.25-1.34,6.36-2,.55-.19,1-.22,1.31.3a14.6,14.6,0,0,1,1.92,3.89c.68,3.16-.06,6.25-.39,9.35-.52,5-.94,9.85.84,14.75,1.6,4.4,1.61,9.16,2.25,13.77.37,2.69.66,5.39,1,8.08.34,2.33.84,4.64,1.13,7,.37,3-.74,5.73-1.25,8.58-.77,4.33-3.94,5.77-7.63,6.72-1.76.45-3.54.14-5.31.31-3,.28-6,1-8.93.19-2.18-.57-4.45-1-6.38-2.26a3.39,3.39,0,0,0-2.27-.7,161.78,161.78,0,0,1-8.46-19.75.77.77,0,0,0,.23-.87c-.4-1.82-.66-3.65-.89-5.5-.49-3.91-1.13-7.8-1.8-11.69-.73-4.24-1.29-8.51-2.17-12.73-.2-.95-.58-1.39-1.55-1.22-.82-1.09-.55-2.42-.6-3.61-.14-3-.38-2.67,2.48-2.7l4.1-.07c.08,0,.15-.08.23-.12,0-.25-.12-.3-.32-.32a35.65,35.65,0,0,1-17-6.42c-.67-.47-1.38-.88-2.08-1.31s-1.79-1-2.45-.09.45,1.44,1,2a2.18,2.18,0,0,0,.63,1.61,50,50,0,0,1,4.51,5.62c2.15,3.37,4.34,6.71,4.71,10.87.52,5.74,2,11.32,3.2,16.94,1,4.61,2.95,9,3.92,13.6.7,3.31,2.56,6.11,3.93,9.13a33.34,33.34,0,0,1,2.48,6c.48,2-.3,3.21-2.32,3.56a2.26,2.26,0,0,1-1.45-.27c-2.81-1.43-6.12-.71-8.95-2.12a.82.82,0,0,0-1.1.55,3.39,3.39,0,0,1-1.56-1c1.49-.39.8-1.21.4-1.85a151.31,151.31,0,0,1-7.25-14c-2.4-4.89-4.61-9.88-7.16-14.7.27-.2.2-.36-.06-.5h0a13.88,13.88,0,0,0-1.35-4.83,179.43,179.43,0,0,1-8-25.33c-1.33-5.24-2.7-10.47-4.5-15.58C319.74,417.11,319.58,416.49,318.71,416.63Z"/><path class="cls-21" d="M342.08,161.37c-.13,1.25-1,2.13-1.65,3.09-1.8,2.71-2.43,5.75-2.89,8.88-.05.35-.06.67.3.81s.65-.14.82-.5a49.18,49.18,0,0,1,6-10.12,48.33,48.33,0,0,1,11-10.46c3.91-2.55,7.82-5,12.33-6.35,2.49-.75,5.08-1.06,7.59-1.68,3.3-.81,6.69-.52,10-1.2,2.14-.44,4.34.32,6.53.22a22.31,22.31,0,0,1,12,3.18,19.52,19.52,0,0,1,7.1,6.22c2.81,4.29,6.08,8.3,9.22,12.37.55.71.6,1.92,1.81,2a26.44,26.44,0,0,1,2.52,5c.18.44.37,1.1,1,1s.51-.78.56-1.26a4.25,4.25,0,0,0-.46-2.38c-1.85-3.78-4.34-7.17-6.54-10.73-1.79-2.89-3.94-5.55-5.4-8.64-.12-.26-.47-.42-.71-.62a3,3,0,0,1-.91-1,1.85,1.85,0,0,1,.2-1.69c.24-.43.85,0,1.22.17.78.36,1.5.84,2.24,1.28-.09.57.25.92.59,1.31.66.75,1.29,1.52,1.89,2.32a103.07,103.07,0,0,0,14.92,16c2.78,2.43,5.08,5,6.06,8.66.1.38.16,1,.65.93,1.17-.12,1.17.76,1.36,1.45.91,3.31.39,6.7.57,10s-.86,6-4.42,6.94c-2.46.67-4.77,1.8-7.51,1.43-2.24-.3-4.48-.62-6.72-.89a9.42,9.42,0,0,1,1-2.81,39.85,39.85,0,0,0,2-8.7c1.58-1.11,1.33-2.8,1.37-4.39,0-.48,0-1-.63-1s-.67.35-.77.78c-.06.26-.16.52-.24.77a2.24,2.24,0,0,0-1.14,1.66c-.56.09-.66.6-.83,1a6.71,6.71,0,0,1-3.07,3.18,14.64,14.64,0,0,1-7,1.83,89.83,89.83,0,0,1-12-.43,24.48,24.48,0,0,1-6-1.16c-3.75-1.42-7.54-2.64-11.38-3.74-4.19-1.2-8.31-2.75-12.79-2.3-.89.09-1.9-.12-2.5.84-3-.36-6-.78-8.95-1.08-4.9-.48-9.83-.54-14.75-.57h-2.05c.06-.38-.14-.83.38-1.07s1.24.27,1.13-.53c-.08-.61-.87-.19-1.31-.35a12.26,12.26,0,0,1-1.26-.52,7.55,7.55,0,0,0-2.57-.86,37.44,37.44,0,0,1-8.56-1.36,52.67,52.67,0,0,1,9.85-14.53C341.51,161.62,341.7,161.32,342.08,161.37Z"/><path class="cls-21" d="M342.09,181.41c-.16.53.16.57.57.67a59.28,59.28,0,0,0,12.72,1.4A87.71,87.71,0,0,1,374,186.07c3.63.86,7.27,1.68,10.82,2.85.8.26,1.59.57,2.38.85,0,.54.34.83.68,1.12,1.69,1.45,3.4,2.87,5.08,4.32a1.53,1.53,0,0,1,.45,2.16,10.78,10.78,0,0,1-4,3.63c-2.25,1.34-4.87,1.76-7.26,2.78-2.86,1.22-5.54,2.95-8.77,3.2a21.63,21.63,0,0,1-6.74-.09,115.89,115.89,0,0,1-17-5.33c-2-.82-4.06-1.71-6.09-2.56a2.26,2.26,0,0,1,.36-.18c.37-.11,1,0,.9-.57s-.62-.4-1-.46a26.32,26.32,0,0,0-3.81-.28c-7.3.05-14.6.06-21.88-.56-3.53-.3-7.1-.48-10.19-2.56a44.16,44.16,0,0,1,10-6.82c5.23-2.45,10.75-4.23,15.95-6.78a1.34,1.34,0,0,1,.4-.06c.33.45.82.29,1.25.29,1.72,0,3.43,0,5.15,0C341.2,181,341.74,180.91,342.09,181.41Z"/><path class="cls-22" d="M320.62,249.52c.4,0,.49.29.56.64a49.11,49.11,0,0,0,4.76,13.74,35.76,35.76,0,0,0,5,7c3,3.31,6,6.64,9.79,9a36,36,0,0,0,7.64,3.92,3.58,3.58,0,0,1,.86.41c2.89,2,6.33,2.44,9.5,3.65,3.63,1.39,7.49,1.24,11.18,2.12a2.91,2.91,0,0,0,2.74-.45,1.64,1.64,0,0,1,1-.3c3.86.05,7.51-1.22,11.27-1.78,4.51-.68,8.56-2.63,12.62-4.6a63.8,63.8,0,0,0,8.64-5.18c2.11-1.48,3.91-3.39,5.93-5,2.78-2.22,5.17-4.84,7.74-7.27a53.63,53.63,0,0,0,5.36-5.78,4.9,4.9,0,0,1,2.87-2.16c-.86,4.76-3.28,8.57-6.57,12.13a92.07,92.07,0,0,1-20.73,16.62,38.9,38.9,0,0,1-8.87,3.55c-3,.9-5.59,2.78-8.58,3.77,1-.15,2-.35,3-.45,2-.21,2.85.29,3.83,2.06a5.32,5.32,0,0,0,1.28,1.9c.68.52.08,1.11-.28,1.33a4.23,4.23,0,0,0-1.47,2.06,8.24,8.24,0,0,1-2.72,2.82,11.79,11.79,0,0,1-6.46,2.95,24.17,24.17,0,0,0-8,2.2c-1,.47-1.78,1.36-3,1.53-.46.07-.42.72-.5,1.17-.13.74.37,1.53-.16,2.24a.37.37,0,0,1-.51,0,17,17,0,0,1-5.7-.68c-.13,0-.26-.09-.39-.12-2.11-.38-3.9-.92-3.8-3.75.05-1.42-1.12-2.42-2.54-2.87l0,0a2.16,2.16,0,0,0-1.07-1.36c-2.6-1.57-3.2-4.13-3.42-6.86,0-.49-.07-1,.67-1.12a1.22,1.22,0,0,0,1-1.16c.17-1.54,1-2.95.88-4.53-.08-.85.29-.81,1-.67,3.23.67,6.33,2,9.67,2.14.27,0,.54,0,.83.07,0-.47-.41-.4-.67-.51-6.38-2.7-13.13-4.3-19.61-6.73A33.58,33.58,0,0,1,329.78,274a55.7,55.7,0,0,1-7-11C320.91,258.71,319.78,254.24,320.62,249.52Z"/><path class="cls-18" d="M267.76,280.75a4.71,4.71,0,0,1-.34,4.09,9.09,9.09,0,0,0-.65,5.67,21.24,21.24,0,0,1,0,5.59,2.59,2.59,0,0,0,1.54,3.15,39.44,39.44,0,0,1,11.88,10.16c2.26,2.8,4.46,5.65,6.68,8.48a6.49,6.49,0,0,1,.51.8c.41.71.74,1.81,1.47.2.06-.13.3-.19.47-.26a56.52,56.52,0,0,1,13.52-4.25c-.09.58-.19,1.16-.26,1.74a83.38,83.38,0,0,0-.26,10.64,29.05,29.05,0,0,1-1.27,7.49,1.83,1.83,0,0,1-2.12,1.57c-5-.07-10,0-15.06,0a11.51,11.51,0,0,1-6.9-2.61,72.13,72.13,0,0,1-10.7-10.83,26.64,26.64,0,0,1-1.86-2.69,32.5,32.5,0,0,1-3.9-7,17.4,17.4,0,0,0-2.64-5.64,23.84,23.84,0,0,1-4-6.61c-.2-.53-.61-1.17-.11-1.66s1-.11,1.56,0,1.46.59,1.8-.49a12.4,12.4,0,0,0,1.58-.28c.77-.24,1.77-.18,2-1.3a7,7,0,0,0,3.26-4.81c.11-.71.23-1.43.29-2.14a20.36,20.36,0,0,1,2.09-6.34C266.68,282.47,266.7,281.28,267.76,280.75ZM283.62,321c-.06-.41-.14-1.13-.27-1.84a6.24,6.24,0,0,0-.28-1.05,28.3,28.3,0,0,0-11.7-14.8c-.71-.45-1.66-1.51-2.34-.55s.55,1.72,1.26,2.24a30.14,30.14,0,0,1,10.25,13.35c.53,1.31,1.1,2.6,1.67,3.89.15.33.32.73.76.68s.57-.53.65-.92A6.42,6.42,0,0,0,283.62,321Z"/><path class="cls-18" d="M433.31,330.57c4.4,5.4,7.56,11.53,10.78,17.68,4.13,7.9,2.86,15.19-2.24,21.81A68.3,68.3,0,0,1,423.4,386.8a81.72,81.72,0,0,1-9.18,4.56c-.4.18-.9.18-1.14.65,2.12.88,1.55,3.54,3.2,4.64-.13.41-.42.45-.66.53-1.86.68-1.86.68-.7,2.1-.07.55-.49.7-.92.89a7.43,7.43,0,0,1-3,.3c-1.87,0-3.67-1-3.92-2.83-.37-2.59-.66-5.32.18-7.85a43.51,43.51,0,0,1,4.46-9.65,30.4,30.4,0,0,1,4.57-6.08,58.16,58.16,0,0,1,8.9-6.52,7.21,7.21,0,0,0,2.8-3.42c1.58-3.72.75-7.4-.28-11.05-.64-2.28-2.25-4-3.46-6a1.51,1.51,0,0,1-.13-1.38c.63-2.32,2.52-3.62,4-5.24A18.82,18.82,0,0,0,433.31,330.57Zm8.18,23.27a19.81,19.81,0,0,1-2.61,10.32,114.31,114.31,0,0,1-6.5,9.59c-.4.53-.75,1-.11,1.5s1.08.29,1.56-.19c1.06-1.07,2.13-2.13,3.19-3.2,5.47-5.53,8.38-12,7.38-19.93a10.25,10.25,0,0,0-2.69-5.55,1.23,1.23,0,0,0-1.37-.35c-.63.2-.53.77-.53,1.27a4.66,4.66,0,0,0,.56,2A9.46,9.46,0,0,1,441.49,353.84Z"/><path class="cls-22" d="M267.76,280.75c-1.06.53-1.08,1.72-1.47,2.6a20.36,20.36,0,0,0-2.09,6.34c-.07.72-.19,1.43-.29,2.14a7,7,0,0,1-3.26,4.81,1.35,1.35,0,0,0-1.37-.28c-1.59.3-3.15.33-4.46-.89-.35-.32-.81-.55-1.21-.15s-.21.92.12,1.33a4.91,4.91,0,0,0,3.34,1.56c-.34,1.08-1.17.57-1.8.49s-1.15-.37-1.56,0-.09,1.13.11,1.66a23.84,23.84,0,0,0,4,6.61,17.4,17.4,0,0,1,2.64,5.64,32.5,32.5,0,0,0,3.9,7,26.64,26.64,0,0,0,1.86,2.69A72.13,72.13,0,0,0,277,333.2a11.51,11.51,0,0,0,6.9,2.61c5,0,10,0,15.06,0a1.83,1.83,0,0,0,2.12-1.57,29.05,29.05,0,0,0,1.27-7.49,83.38,83.38,0,0,1,.26-10.64c.07-.58.17-1.16.26-1.74,1.2-.49,1.62-.18,1.68,1.21a82.5,82.5,0,0,0,2.92,18.73A15.57,15.57,0,0,0,311.3,341c1.36,1.41,1.05,2.65-.77,3.23-6.47,2.07-13,3.4-19.9,2.82a44.64,44.64,0,0,1-12.11-3.18,23.34,23.34,0,0,1-8.64-6.06c-4.14-4.37-8.32-8.72-11.17-14.12a39,39,0,0,1-3.18-9.58c-.5-2.17-1.42-4.24-1.6-6.49-.07-.85-1-.36-1.45-.9a36.39,36.39,0,0,0-3.6-3.65,11.53,11.53,0,0,0-2.12-1.49c-.65-.37-1.51-.44-1.28-1.57.07-.36-.39-.57-.77-.64a4.69,4.69,0,0,1-2.83-2.19c2.95-1.28,5.86-2.45,8.69-3.79,2.15-1,4.48-1.5,6.66-2.41.88-.37,1.73-.71,1.45-1.94a1.07,1.07,0,0,1,.14-.64A30.07,30.07,0,0,1,264.4,280C266.17,278.29,266.8,278.44,267.76,280.75Z"/><path class="cls-23" d="M369.11,494.43a3.39,3.39,0,0,1,2.27.7c1.93,1.25,4.2,1.69,6.38,2.26,3,.78,6,.1,8.93-.19,1.76-.17,3.55.14,5.31-.31,3.7-.94,6.87-2.39,7.63-6.72.5-2.85,1.62-5.63,1.25-8.58-.29-2.34-.79-4.65-1.13-7-.39-2.69-.68-5.39-1-8.08-.63-4.61-.65-9.37-2.25-13.77-1.77-4.9-1.36-9.78-.84-14.75.32-3.1,1.07-6.18.39-9.35a14.6,14.6,0,0,0-1.92-3.89c-.29-.52-.76-.48-1.31-.3-2.11.71-4.26,1.3-6.36,2a11.29,11.29,0,0,1-3.31.72c-4.4.16-8.74,1.27-13.18.88-3.12-.27-6.25-.37-9-2.18-5.14-3.35-9.27-7.45-10.39-13.8-.12-.65-.34-1-1-1a27.88,27.88,0,0,0-3.76-.48,33.62,33.62,0,0,1-9.81-1.32c-1.85-.51-3.74-.11-5.56-.47a65.93,65.93,0,0,1-7.27-1.75c-1.69-.54-3.43-.93-5.15,0,0-1.19,0-2.37-.08-3.56,0-.52.12-1,.74-.81,3.06,1.08,6.3.7,9.42,1.26a8.38,8.38,0,0,1,1.94.6,13.7,13.7,0,0,0,3.93,1.1,21.47,21.47,0,0,1,5.35,1.31c4.24,1.65,8.75,1.49,13.22,1.43,1.83,0,1.79,0,1.84,1.84s.46,3.8.11,5.41c-.57,2.59,1,3.79,2.21,5.28a8.07,8.07,0,0,0,5.31,2.81c3.36.47,6.68,1.11,10.15.67a27.28,27.28,0,0,1,4.34.15,25,25,0,0,0,9.5-1.57c2.56-.91,5.23-1.46,7.75-2.56a6.72,6.72,0,0,0,3.91-4.56,18.63,18.63,0,0,0,.91-8.46,33.41,33.41,0,0,1,0-5,21.17,21.17,0,0,0,5.41,3.56c.37.17.17.43.12.69-.94,5-1.9,10.08-3.32,15a37.2,37.2,0,0,1-1.65,4.18,2,2,0,0,0,0,2.19,1.17,1.17,0,0,1,.19.76c-.68,5,.15,10,.77,14.92.67,5.31,1.48,10.61,2.31,15.89,1.58,10,3.28,20,6.34,29.68,1,3.22.9,3.08-1.79,4.94-3.4,2.34-7.22,3.63-11,5.11a9.94,9.94,0,0,1-3,.45c-5.68.44-11.34.45-16.9-1.19-1.78-.52-3.47-1.27-5.32-1.64C369.86,496.81,369.39,495.45,369.11,494.43Z"/><path class="cls-22" d="M433.31,330.57a18.82,18.82,0,0,1-5.14,9.89c-1.5,1.62-3.4,2.92-4,5.24a1.51,1.51,0,0,0,.13,1.38c1.21,2,2.82,3.72,3.46,6,1,3.66,1.86,7.34.28,11.05a7.21,7.21,0,0,1-2.8,3.42,58.16,58.16,0,0,0-8.9,6.52,30.4,30.4,0,0,0-4.57,6.08,43.51,43.51,0,0,0-4.46,9.65c-.84,2.53-.55,5.25-.18,7.85.26,1.79,2,2.84,3.92,2.83a7.43,7.43,0,0,0,3-.3c.43-.18.86-.34.92-.89l.52.64,0,.71c.51,1.47-.26,2-1.54,2.42a14.36,14.36,0,0,1-9.81.2c-4.12-1.56-5.77-4.59-4.34-9.35.41-1.38,1.63-2.29,1.94-3.71.08-.35.34-.74.16-1.05-.89-1.56-.21-3.06.29-4.45a79.23,79.23,0,0,1,13.18-22.88,10.56,10.56,0,0,1,5.23-3.59,1.64,1.64,0,0,0,.51-.2c.39-.29,1.09-.38,1.07-.93s-.65-.72-1.1-.91c-.92-.38-1.88-.7-2.81-1.06a19.59,19.59,0,0,1-7.28-5.5c5.36-3.32,10.06-7.43,14.78-11.52a24.38,24.38,0,0,0,6.66-8.92A2.49,2.49,0,0,1,433.31,330.57Z"/><path class="cls-24" d="M423.35,197.2c2.24.27,4.48.6,6.72.89,2.74.36,5-.76,7.51-1.43,3.56-1,4.61-3.53,4.42-6.94s.34-6.74-.57-10c-.19-.68-.19-1.57-1.36-1.45-.49.05-.54-.54-.65-.93-1-3.62-3.28-6.23-6.06-8.66a103.07,103.07,0,0,1-14.92-16c-.6-.8-1.23-1.57-1.89-2.32-.34-.39-.68-.74-.59-1.31a51.14,51.14,0,0,1,17.79,12.81c3.94,4.35,6.94,9.36,10.61,13.88.32.39.65.76,1,1.15a6.75,6.75,0,0,1,1.68,3.9c.22,2.29,1,4.53,1.39,6.8a65.19,65.19,0,0,1,1.14,17.1c-.12,1.58-.31,3.39.69,4.91a1.35,1.35,0,0,1,.21,1.18c-.86,2.21-.87,4.64-1.8,6.84-.23.55-.5.53-.92.46h0l-.28-.26-.31-.27-.05-.3c.2-.13,1.08.27.42-.52a2.24,2.24,0,0,0-1.45-.83c-5.77-5.41-12.9-8.58-19.89-12q-1.84-.89-3.7-1.74c-.57-.26-.88-.5-.47-1.21C422.68,199.77,422.66,198.36,423.35,197.2Z"/><path class="cls-25" d="M406.39,510.32c-1.59,1.93-4,2.88-5.67,4.67-2.89,3.13-7,3.74-10.6,5.2-4.31,1.73-8.7,3.28-13.16,4.58s-9.2,1.69-13.78-.21c-3.12-1.29-4.18-3.86-3.63-7.22.58-3.56,3.14-5.73,4.95-8.45a1.17,1.17,0,0,1,.94-.49c3.11-.21,6,.31,8.35,2.58.88.85,1.84,1.63,2.72,2.49.42.41,1,.89,1,1.4.22,1.66,1.37,1.74,2.6,1.72a38.45,38.45,0,0,0,15.33-3.54,46.64,46.64,0,0,0,5.93-3.79c-.32-.47-.54-.15-.75-.06a58.57,58.57,0,0,1-19.7,5.53,2.07,2.07,0,0,1-2.43-1.24c-.35-.8-1.25-1.22-1.49-2.1a1.8,1.8,0,0,0,1.39-.77,3.44,3.44,0,0,0,2.46-1c.84-.59,1.51-1.48,2.64-1.6.34,0,.33-.35.45-.59.31-.69,1-1.35,1.58-1.34.94,0,1-.5,1.3-1.08s.46-.88.69-1.32a7.7,7.7,0,0,1,3.1-.25,26.41,26.41,0,0,0,11-1.5,1.82,1.82,0,0,1,2.08.61C406,504.69,406.35,507.45,406.39,510.32Z"/><path class="cls-26" d="M379.51,381.81c.06.06.15.19.19.18a9.16,9.16,0,0,0,6.47-6.05c1.89-5.33,2.41-11,4.44-16.27a1.3,1.3,0,0,0,.13-.52c-.29-3.93.84-7.76.83-11.66,0-4.09-1.15-8-2.3-11.84a57.62,57.62,0,0,0-2.74-7.51,1.4,1.4,0,0,1,.13-1.66c.5-.47,1.11-.21,1.66.05a31.7,31.7,0,0,1,4,2.72c3.09,2.13,6.5,3.65,9.66,5.62,1.18.73,2.1,1.92,3.6,2.1-1.61,1.27-3.22,2.53-4.83,3.8-.72.57-1.18.41-1.62-.38a40.45,40.45,0,0,0-4.61-7.1,19.5,19.5,0,0,0-3.84-3.48c-.38-.25-.84-.76-1.33-.26s-.08,1.05.27,1.45c1.23,1.4,2.56,2.72,3.69,4.22,2,2.64,3.43,5.59,5.17,8.38a1.94,1.94,0,0,1,.22,1.31,195.22,195.22,0,0,0-.61,21.32,100.37,100.37,0,0,0,.29,11.9q.41,3.39,1,6.75c.19,1.06.11,1.68-1.15,1.91a28.48,28.48,0,0,0-4.06,1.2c-.5.17-.8.26-1.11-.29a6.68,6.68,0,0,0-5.1-3.3c-3.25-.47-6.34-.34-8.34,2.87-.1.15-.19.31-.3.46-.38.51-.08,1.51-.71,1.66a13.64,13.64,0,0,1-3,.12c-.53,0-.6-.32-.44-.73.8-2,1.57-4,2.42-6C378,382.06,378.91,382.2,379.51,381.81Z"/><path class="cls-24" d="M343.62,199c2,.86,4,1.74,6.09,2.56a115.89,115.89,0,0,0,17,5.33,21.63,21.63,0,0,0,6.74.09c3.23-.25,5.91-2,8.77-3.2,2.39-1,5-1.44,7.26-2.78a10.78,10.78,0,0,0,4-3.63,1.53,1.53,0,0,0-.45-2.16c-1.69-1.45-3.4-2.87-5.08-4.32-.34-.29-.73-.58-.68-1.12a87.16,87.16,0,0,1,10.48,3.91,56.05,56.05,0,0,1,7.83,3.39,16.19,16.19,0,0,1-3.09,1.59c-1.26.7-1.78,2.08-3.07,2.76-4.43,2.34-8.8,4.8-13.17,7.25-2.22,1.25-4.41,2.56-6.57,3.9a7,7,0,0,1-3.34,1.06,25.8,25.8,0,0,1-17.12-4.87c-2.14-1.54-4.4-2.92-6.68-4.27-3.07-1.82-6.52-2.22-9.91-2.85a55.77,55.77,0,0,0-12.21-1.13c-2.63.1-5.27.53-7.89.42a20.52,20.52,0,0,0-7,.69,7.19,7.19,0,0,1-4.79-.08c-1.83-.68-3.72-1.34-4.36-3.55a2.11,2.11,0,0,1,.75-2.52,5.94,5.94,0,0,0,2,1.25c5.13,2.09,10.49,1.94,15.84,2.06,3.77.08,7.55.08,11.33.12a9.34,9.34,0,0,0,3.36.14Z"/><path class="cls-22" d="M328.06,215.35c-1.42-.68-3-.17-4.45-.62a32.05,32.05,0,0,1-.12-5.32c.09-3.07,2.21-4.88,4.3-6.66.53-.45,1.33-.25,2-.23A95.13,95.13,0,0,1,348.05,205c2.28.51,4.22,1.9,6.16,3.18a62.81,62.81,0,0,0,9.12,5.5A18.22,18.22,0,0,0,375.19,215c1.26-.31,2.52.62,3.89-.54-.86,2-.82,2.09.87,2.75l5.35,2.05c-.7,1.81-1,2-2.82,1.42a8.9,8.9,0,0,1-2.77-1.13c-1.34-1-2.54-.86-4.06-.45a24.76,24.76,0,0,1-10.78.47,55.32,55.32,0,0,1-6.3-1c-3.91-1.17-8-1.53-11.93-2.6-1.89-.51-4-.3-6-.39-.79,0-1.57,0-2-.89a5.83,5.83,0,0,1,2.11-.47c1.89-.32,3.78-.6,5.66-.94.69-.12,1.41-.33,1.17-1.31s-.48-1.84-.76-2.75c-.65-2.1-.66-2.1-2.9-1.88-.36,0-.73,0-1.09.08-5.42.74-10.38,2.4-13.82,7.05A2.24,2.24,0,0,1,328.06,215.35Z"/><path class="cls-16" d="M256.7,287.85c-1.81.21-3.35,1.19-4.92,1.93a136.3,136.3,0,0,1-17.31,6.61,26,26,0,0,0-6.33,2.48c-5,3.21-10.68,4.77-16.05,7.07-3.72,1.59-7.55,2.9-11.34,4.32a2.85,2.85,0,0,1-.67.08,29.56,29.56,0,0,1-2.6-4.81c.59-.32,1.23-1,1.86-.57a2.21,2.21,0,0,0,2.41-.07c1.33-.59,2.69-1.1,4-1.71,4.26-1.94,8.67-3.55,12.77-5.81a108.82,108.82,0,0,1,17.69-7.4c1.42-.48,3.07-.45,4.22-1.65,1.61,1,3.1.12,4.57-.39.54-.19.95-.53,1.63-.39,1.81.38,3.58.57,5.09-1,.39-.4,1.29-.3,1.94-.48,3.25-.89,4.64-3.41,5.52-6.37.12-.39.19-.79.29-1.18.89-.07,1.53.77,2.42.65A29.6,29.6,0,0,0,256.7,287.85Z"/><path class="cls-25" d="M367.48,502.37a31.85,31.85,0,0,0-10.13,12.29.72.72,0,0,0-.1.25c-.14,3-2.32,3.67-4.68,4.06a25.33,25.33,0,0,1-15.21-1.8c-1.19-.56-2.61-.78-3-2.47a2,2,0,0,1,0-1.49,32,32,0,0,1,5.16-7.68,3,3,0,0,1,2.29-1c2.89-.09,5,1.5,7,3.21.84.7,1.7,1.37,2.54,2.06.24.2.63.42.66.66.2,1.83,1.25,1,2,.61,2-1.18,3.94-2.47,5.9-3.71.39-.25.88-.5.55-1s-.8-.18-1.18,0c-1.69,1-3.37,2-5,3a1.13,1.13,0,0,1-1.62-.16c-1.25-1.09-2.05-2.56-3.39-3.68,1.62,0,2.94-1.2,4.65-.8.78.19,1.08-.49.92-1.26.31,0,.66.06.87-.28h1.1c2,.13,4-.42,6.07-.29a5.41,5.41,0,0,0,3.53-.55C366.71,502.13,367.14,501.9,367.48,502.37Z"/><path class="cls-27" d="M367.21,409.22a22.57,22.57,0,0,1,.27-4.35c.09-.92.54-.8,1.09-.4a29.21,29.21,0,0,0,8.16,4.05A12.54,12.54,0,0,0,379,409c1.13.16,2.56-.16,2.75,1.76a1.54,1.54,0,0,0,1.94,1.11,2.6,2.6,0,0,0,2.35-2.33c0-1.27.67-1.58,1.61-2a22.27,22.27,0,0,0,7.6-5.7c.21-.22.38-.59.75-.48s.23.46.23.71q0,5.18,0,10.37a1.15,1.15,0,0,0-1.07.48,13.15,13.15,0,0,1-5.31,4.37c-2.26,1.2-4.4,2.48-7.25,2.09a45.09,45.09,0,0,0-8.21,0,4.43,4.43,0,0,1-4.35-2.67,24,24,0,0,1-2-5.92C367.85,410.26,368.05,409.46,367.21,409.22Z"/><path class="cls-16" d="M270.14,280.81A8.57,8.57,0,0,0,268,277c1.42-1,3.11-1.39,4.5-2.46,2.37-1.82,4.15-4.19,6.24-6.28a11.32,11.32,0,0,0,3.53-7.18,8.92,8.92,0,0,1,3.61-6.73c1.48-1.12,3-2.12,4.57-3.18a28.48,28.48,0,0,1,3.35,7c-.77.37-.64,1.08-.49,1.67a15.44,15.44,0,0,1,.23,4.08,3,3,0,0,1-.85,2.23c-.88.85-1.76,1.72-2.66,2.55-.26.24-.71.42-.49.84s.7.31,1.08.15a12.93,12.93,0,0,0,3.17-2.08c.08.5-.23.83-.48,1.22-1.89,2.89-5.08,3.91-7.93,5.33-3.13,1.56-6.43,2.76-9.65,4.14C273.85,279.1,272,280,270.14,280.81Z"/><path class="cls-27" d="M426.09,244.95a10.17,10.17,0,0,1,.59-3.93c1.22,0,1.29-1.12,1.49-1.83,1.12-3.9,1-7.67-1.77-11a10.57,10.57,0,0,0-5.66-3.81c-1-.23-1-.46-.33-1.13,1.41-1.35,2.94-2.64,3.43-4.66a10.92,10.92,0,0,0-1.57-9.37c-.31-.44-.57-.93-.86-1.39,1.34.24,2.24,1.31,3.42,1.85,3.14,1.43,6.29,2.86,9.42,4.32.58.27,1.29.39,1.46,1.26a14.33,14.33,0,0,0,1.47,3.8,3.3,3.3,0,0,1-.68,4.29c-.9,1-2.22,1.65-2.58,2.95a29.09,29.09,0,0,0-1.2,5.42c-1,2.93-1.17,6-1.66,9a12.61,12.61,0,0,1-1.27,3.86C428.94,246.27,427.34,246.41,426.09,244.95Z"/><path class="cls-19" d="M376.24,323.5a27.81,27.81,0,0,0-3.82.21c-.54.1-1.08.15-1.43-.47a1.42,1.42,0,0,1,.06-1.78c.95-.9.81-2,.71-3.05q-.29-3.06-.66-6.11c-.07-.61.15-.87.72-1.09a53.67,53.67,0,0,1,8.84-2.66A17.85,17.85,0,0,0,394,297.37c.82.9,1.8,1.59,2.07,3.06a8.3,8.3,0,0,1-1.19,5.86c-1.63,2.91-4.32,5-6,7.9a.92.92,0,0,0-.74.28c-1.93,1.87-4.13,3.43-6,5.4a10,10,0,0,1-4.57,2.85C377.11,322.86,376.48,322.87,376.24,323.5Z"/><path class="cls-14" d="M404.69,351.18c1.3.59,2.48,0,3.68-.36.35-.11.7-.51,1.08,0a18.64,18.64,0,0,0,8.26,6.28c-4.53,2.79-7.28,6.92-9.85,11.16s-5.28,8.43-6.54,13.35c-1.42-2.91-1-28.42-.47-33.66.61.76,1.1,1.42,1.65,2s1,1.33,2,1.19l.09.08Z"/><path class="cls-24" d="M369.39,182.71c.61-1,1.62-.75,2.5-.84,4.48-.45,8.6,1.1,12.79,2.3,3.84,1.1,7.63,2.32,11.38,3.74a24.48,24.48,0,0,0,6,1.16,89.83,89.83,0,0,0,12,.43,14.64,14.64,0,0,0,7-1.83,6.71,6.71,0,0,0,3.07-3.18c.17-.4.26-.9.83-1a52.45,52.45,0,0,1-3.15,12.39c-.51,1.33-.79,2.71-1.19,4.06-.25.85-.67,1-1.4.52a38.68,38.68,0,0,0-8.19-3.74c-8.67-2.68-16.54-7.35-25.27-9.82-5.21-1.47-10.45-2.81-15.75-3.95A3.78,3.78,0,0,1,369.39,182.71Z"/><path class="cls-26" d="M317,376.63a1.85,1.85,0,0,1,1.3.69c2.56,2.6,5.9,3.4,9.27,4.17a2.91,2.91,0,0,0,1.85-.27,12.13,12.13,0,0,1,9.54.24c2.41,1,4.76,2,7.11,3.13a13.15,13.15,0,0,0,3.84.78,27.38,27.38,0,0,0,18.7-4.23,1.53,1.53,0,0,1,.52-.1c-1.37,2.68-2.75,5.34-4.08,8a1.22,1.22,0,0,1-1.32.71c-1.55,0-3.1,0-4.65,0a5.45,5.45,0,0,0-1.75.22c-3.09,1.14-6.21.42-9.33.27-.28,0-.66,0-.71-.31-.28-1.58-1.53-1.64-2.71-1.72-4.35-.27-8.41-1.9-12.63-2.76-.6-.12-1.17-.25-1.67.24a1,1,0,0,1-1,.14,39,39,0,0,1-11.54-4.46c-1.06-.66-1.64-1.26-1.27-2.57A9.36,9.36,0,0,1,317,376.63Z"/><path class="cls-23" d="M349.39,495.55a.82.82,0,0,1,1.1-.55c2.82,1.41,6.14.69,8.95,2.12a2.26,2.26,0,0,0,1.45.27c2-.34,2.8-1.51,2.32-3.56a33.34,33.34,0,0,0-2.48-6c-1.37-3-3.24-5.82-3.93-9.13-1-4.63-2.94-9-3.92-13.6-1.2-5.62-2.68-11.19-3.2-16.94-.37-4.16-2.56-7.5-4.71-10.87a50,50,0,0,0-4.51-5.62,2.18,2.18,0,0,1-.63-1.61,37.51,37.51,0,0,0,11.13,6c.61.18.65.52.64,1-.26,11.12,2.53,21.8,4.88,32.52a66.46,66.46,0,0,0,9.8,23.28c.92,1.35,1.82,2.72,2.74,4.07.49.73.31,1.09-.54,1.34A22.4,22.4,0,0,1,349.39,495.55Z"/><path class="cls-27" d="M390.75,399.61c-3,.69-6,.89-9,1.41-4,.71-8.16.29-12.21.8a6,6,0,0,1-3.11-.84,15.24,15.24,0,0,1-6.94-5.71,1,1,0,0,1,.86-.57c2.27-.2,4.47-1.27,6.82-.56a1.58,1.58,0,0,0,.68,0c2.46-.4,5-.29,7.44-.5,1.12-.1,2.23.45,3.38.25,3-.53,6-.15,9-.27a4.77,4.77,0,0,0,1.22-.07c1.55-.49,2.76.22,3.86,1.12s1,1.47.1,2.5C392.13,398,391.1,398.5,390.75,399.61Z"/><path class="cls-28" d="M240.43,288.34c-1.15,1.2-2.8,1.17-4.22,1.65a108.82,108.82,0,0,0-17.69,7.4c-4.1,2.26-8.51,3.87-12.77,5.81-1.32.6-2.69,1.11-4,1.71a2.21,2.21,0,0,1-2.41.07c-.63-.41-1.27.25-1.86.57a50.86,50.86,0,0,1-2.62-5.17c-.34-.64.11-.78.57-.93l3.34-1.14c0,1.68.7,2.19,2.31,1.69a6.85,6.85,0,0,0,.89-.33,213.91,213.91,0,0,1,22.42-8.83,44.74,44.74,0,0,0,10.5-4.8c1.23-.82,2.8-1.38,3.38-3A7.37,7.37,0,0,1,240.43,288.34Z"/><path class="cls-26" d="M321.4,330.09c1.26-.09,1.93-1.12,2.77-1.83,1.11-.93,2.06-2.06,3.24-2.93.54-.39,1-.92,1.75-.4-1.79,2.68-2.66,5.78-3.89,8.72a79.61,79.61,0,0,0-3.3,9.85,1.91,1.91,0,0,1-1.79,1.59c-1.13.12-2.19.66-3.36.56-.41,0-.87,0-1.09-.41-1.51-2.94-3.4-5.66-4.86-8.64-1.6-3.26-2.06-6.78-2.75-10.26-.75-3.8-1.22-7.64-1.65-11.48-.08-.71.34-1.08.74-1.51.51.23.55.68.54,1.15-.14,4.94,1.58,9.5,2.9,14.13.8,2.8,2.63,4.09,5,3.86a23.89,23.89,0,0,0,3.41-.82,16.9,16.9,0,0,0,3.8,4.68A33.89,33.89,0,0,0,321.4,330.09Z"/><path class="cls-29" d="M432.71,231.76a29.09,29.09,0,0,1,1.2-5.42c.36-1.3,1.68-2,2.58-2.95a3.3,3.3,0,0,0,.68-4.29,14.33,14.33,0,0,1-1.47-3.8c-.16-.87-.87-1-1.46-1.26-3.13-1.46-6.28-2.88-9.42-4.32-1.18-.54-2.08-1.6-3.42-1.85a28.57,28.57,0,0,1-4.2-5.95c9.84,4.81,19.94,9,29.15,15l.26.26,0,0,.49.28.31.27.28.26h0a1.78,1.78,0,0,1,.84,1.68c0,1.49-.39,3,0,4.45a.62.62,0,0,1-.1.5c-.21.2-.4,0-.58-.13-3.39-2.76-8.59-1.09-11.28,2.39C435.3,228.55,434,230.15,432.71,231.76Z"/><path class="cls-28" d="M290.46,251.16c-1.53,1.06-3.09,2.06-4.57,3.18a8.92,8.92,0,0,0-3.61,6.73,11.32,11.32,0,0,1-3.53,7.18c-2.08,2.09-3.86,4.47-6.24,6.28-1.39,1.06-3.08,1.5-4.5,2.46-1.76-.91-3.22-.19-4.6.88-.53.41-1,.88-1.53,1.32-.9.12-1.54-.72-2.42-.65a13.06,13.06,0,0,0-.72-6.23c-.19-.43-.11-.64.37-.73s1-.25,1.57-.38c.14,1.7,1.14,2.14,3,1.13a90,90,0,0,0,10.42-6.15c3-2.12,5.6-6.6,2.85-10.05A146,146,0,0,0,290.49,250Z"/><path class="cls-26" d="M346.49,366.22c-.86.1-.9-.42-.95-1.1a24.07,24.07,0,0,1,1.27-8.18c1.89-6.83,3.82-13.65,6.2-20.33a33.5,33.5,0,0,0,1.66-6.86,5.17,5.17,0,0,0-1.12-3.42c-2.78-4-6.88-6.92-9.71-10.86-1.84-2.57-3.47-5.42-3.18-8.81.15-1.75.56-3.49.85-5.23.56-.26,1.22-.8,1.73-.45s0,1-.13,1.54c-.74,4.56-.15,8.77,3.22,12.21a55.16,55.16,0,0,0,5.71,4.66,13,13,0,0,1,2.86,2.9c.66,1,1.19.91,1.82,0a3.8,3.8,0,0,1,.49-.45,22.18,22.18,0,0,1,.91,5.79c.05.66,0,1.32,1.28.61a52.4,52.4,0,0,0-4.2,10c-2.62,8.81-6.66,17.15-8.39,26.24Z"/><path class="cls-29" d="M356.79,395.42c1.15,1.25,1.83,2.44,2.82,3.36a18.23,18.23,0,0,0,5,3.68,1.29,1.29,0,0,1,.82,1.73,40.39,40.39,0,0,0,0,16.09c.24,1.33-.08,1.8-1.38,1.81-2.93,0-5-1.53-6.88-3.6-1.18-1.32-1.86-2.73-1.23-4.56.57-1.66-.14-3.53.59-5.11a5.69,5.69,0,0,0,.3-4,20,20,0,0,1-.06-4.5C356.79,398.82,356.79,397.32,356.79,395.42Z"/><path class="cls-27" d="M312.72,389.77a57.6,57.6,0,0,1,1.05-7.66c.16-.91.54-.87,1.2-.4a33,33,0,0,0,8.56,4.43,24,24,0,0,0,4.06,1.11c1.41.22,1.62.82,1.22,2.07a56,56,0,0,0-1.65,7.84,2.62,2.62,0,0,0-.61.28c-2.2,1.81-2.74,1.85-5.14.26-.8-.53-1.56-1.1-2.38-1.59a13.86,13.86,0,0,1-4.78-4.56C313.84,390.88,313.66,390,312.72,389.77Z"/><path class="cls-19" d="M355.7,306.23a20.87,20.87,0,0,1,1.12,8.16c0,.57.16,1.15-.52,1.56-.38.22-.23.73-.15,1.14a7.49,7.49,0,0,1-.16,3.59c-2.52-2.91-5.77-4.67-8.35-7.25a9.29,9.29,0,0,1-2.59-9.94c.48-1.61.81-3.26,1.4-4.84a7.55,7.55,0,0,1,4.63-4.35c.25-.1.56-.26.71.08s-.07.56-.45.66a1.71,1.71,0,0,0-1.46,1.59c-.16,3.34.35,6.44,3.17,8.71a4.18,4.18,0,0,0,2.65.89Z"/><path class="cls-19" d="M429.21,330.62a15.28,15.28,0,0,1-2.3,3,6.64,6.64,0,0,0-4.24,1.93c-4,3.44-8.38,4.92-13.54,3-.38-.14-.81-.24-.83-.77A85.72,85.72,0,0,0,420.44,325c.61-.79,1.18-1.61,1.76-2.42a5.06,5.06,0,0,1,3.47,2.52c.66,1.28,1.15,2.64,1.73,4C427.76,329.89,428.09,330.73,429.21,330.62Z"/><path class="cls-22" d="M417.41,205.38a7.84,7.84,0,0,1-3.18-.63,13.55,13.55,0,0,0-10.35,1.43,23.49,23.49,0,0,0-5.26,3.79c-1,.94-2.35,1.16-3.54,1.71s-2.64,1-3.94,1.52c-.47.19-1.11.26-1.2,1a32.61,32.61,0,0,0-5.78-2.2c2.57-1.48,4.83-2.81,7.11-4.08,3.66-2,7.56-3.7,10.73-6.5a19.08,19.08,0,0,1,4.1-2.64c1.69-.86,3-.06,4.44.49.73.28,1.27,1,2.23.52.33-.17.77.2,1,.52A36.45,36.45,0,0,1,417.41,205.38Z"/><path class="cls-19" d="M319.1,331.67a23.89,23.89,0,0,1-3.41.82c-2.4.23-4.23-1.06-5-3.86-1.32-4.63-3-9.2-2.9-14.13,0-.47,0-.92-.54-1.15q0-.27,0-.55c.35-.37.7-.71,1.28-.45a3.27,3.27,0,0,0,1.58,0c2-.06,3.85-.86,5.83-.93a4.54,4.54,0,0,1,0,.54A52.1,52.1,0,0,0,319.1,331.67Z"/><path class="cls-26" d="M408.3,337.75c0,.53.46.63.83.77,5.16,2,9.56.47,13.54-3a6.64,6.64,0,0,1,4.24-1.93,41.43,41.43,0,0,1-6.37,5.94,114.39,114.39,0,0,1-10.48,8.07,14.58,14.58,0,0,1-4.26,2.11,1.24,1.24,0,0,0-1.1,1.44l-.1.08-.09-.08c-.29-2.3-1.69-4.1-2.72-6.06s-1-1.77.62-2.93C404.39,340.74,406.34,339.23,408.3,337.75Z"/><path class="cls-18" d="M238.26,283.06c-.59,1.6-2.15,2.16-3.38,3a44.74,44.74,0,0,1-10.5,4.8A213.91,213.91,0,0,0,202,299.66a6.85,6.85,0,0,1-.89.33c-1.61.5-2.3,0-2.31-1.69,3-1.73,6.29-2.59,9.38-4,6.64-3.09,13.35-6,20.07-8.91,2.79-1.2,5.74-2,8.39-3.55C237.72,281.15,237.7,282.64,238.26,283.06Z"/><path class="cls-29" d="M367.21,409.22c.84.23.63,1,.77,1.58a24,24,0,0,0,2,5.92,4.43,4.43,0,0,0,4.35,2.67,45.09,45.09,0,0,1,8.21,0c2.85.39,5-.89,7.25-2.09a13.15,13.15,0,0,0,5.31-4.37,1.15,1.15,0,0,1,1.07-.48c-.34,1.59-.72,3.18-1,4.78a1.73,1.73,0,0,1-1.16,1.34c-4.45,2.22-9.31,3.13-14.11,3.91a28.85,28.85,0,0,1-11.76-.78,1.08,1.08,0,0,1-1-1.23C367.24,416.75,367.21,413,367.21,409.22Z"/><path class="cls-17" d="M290.46,251.16l0-1.18c.25-.87.53-.43.8,0q1,1.61,2,3.24a65.43,65.43,0,0,1,3.6,6,9.85,9.85,0,0,1-.57,9.79,11.66,11.66,0,0,1-4.85,4.56c-6.7,3.41-13.77,6-20.43,9.48-.69.36-.88.16-.85-.55,0-.54,0-1.09-.07-1.64,1.86-.84,3.72-1.71,5.6-2.52,3.22-1.39,6.52-2.58,9.65-4.14,2.85-1.42,6-2.44,7.93-5.33.26-.39.56-.72.48-1.22,1.9-2.6,1.7-5.41.85-8.29-.14-.47-.28-1-.83-1.15A28.48,28.48,0,0,0,290.46,251.16Z"/><path class="cls-17" d="M284.46,236.58c.68,0,1.37,0,2,0,.35,0,.79-.08,1,.32s-.22.74-.51,1a17.93,17.93,0,0,1-2.1,1.75,53.32,53.32,0,0,1-15.67,6.83,5.6,5.6,0,0,1-2.43.1c-1.5-.26-1.72-.7-.79-1.94a10.41,10.41,0,0,1,1.7-1.76C272.56,238.89,278,236.49,284.46,236.58Z"/><path class="cls-29" d="M390.75,399.61c.35-1.11,1.38-1.65,2.09-2.45.92-1,1-1.62-.1-2.5s-2.31-1.61-3.86-1.12a4.77,4.77,0,0,1-1.22.07c-3,.12-6-.26-9,.27-1.14.2-2.25-.35-3.38-.25-2.48.21-5,.1-7.44.5a1.58,1.58,0,0,1-.68,0c-2.35-.71-4.55.36-6.82.56a1,1,0,0,0-.86.57c-.53-.62-1.09-1.22-1.57-1.87s-.24-1.26.64-1.41a6.86,6.86,0,0,1,1.09,0c3.83,0,7.67.1,11.5,0,5.5-.18,11-.39,16.47-.88a11,11,0,0,1,5.68.83,4.52,4.52,0,0,1,2.61,5.73,1.36,1.36,0,0,1-1.11.88C393.47,398.9,392.11,399.25,390.75,399.61Z"/><path class="cls-26" d="M420.9,320.76a111.2,111.2,0,0,0-11.26-12.19,36,36,0,0,0-7-4.63c-.74-.43-1.44-1-2.2-1.35s-1.36-.18-1.45.86c-.13,1.51-.08,3.06-.87,4.44-.49-.89-1.41-.8-2.53-.82a7.08,7.08,0,0,0,2.32-6c-.06-1,.67-1.23,1.85-.63,3,1.51,6,2.92,8.79,4.7a97,97,0,0,1,13.77,10.5c1,.95,1.33,1.7.28,2.81A20.18,20.18,0,0,0,420.9,320.76Z"/><path class="cls-27" d="M363.09,526.75a29.71,29.71,0,0,0,8.37.86,8.42,8.42,0,0,0,2.68-.4c4.57-1.83,9.49-2.49,14.07-4.3,4.78-1.89,9.75-3.32,14.15-6.07a16.82,16.82,0,0,0,4-3.79l.37-.1-.07-.11-.3.21c-.39,0-.48-.15-.17-.47a34.8,34.8,0,0,0,3.26-3.51c.75.73.45,1.4,0,2.08a28.31,28.31,0,0,1-7.32,7.42c-7.54,5.57-16.21,8.23-25.3,9.79a32.2,32.2,0,0,1-11-.32,4.53,4.53,0,0,1-2.79-1.3Z"/><path class="cls-27" d="M344.74,402.38c.73-3,1.49-6,2.15-9,.21-1,.64-1.39,1.57-1.15,1.69.43,3.43.15,5.14.44.86.15,1.11.5,1,1.23-.46,2.52-.12,5.08-.28,7.61-.67.07-1,.63-1.38,1a1.57,1.57,0,0,1-1.58.59c-1.71-.45-3.45-.17-5.17-.25C345.62,402.9,345,403,344.74,402.38Z"/><path class="cls-16" d="M284.73,241.42l1.11-.67c1.06,1.33,2.41,2.51,2.72,4.28a5.63,5.63,0,0,0,.91,2.38c-.57,1.68-2,2.22-3.5,2.79-1,.38-1.91.82-2.86,1.24-.14-.77-.62-.4-1-.32-2.31.43-4.61,1-7,.34-2.07-.57-3.3-1.77-3.5-3.49l.48-.24c.57,1,1.67,1.41,3.29.85a29.72,29.72,0,0,0,7.39-3.41C284,244.3,285,243.15,284.73,241.42Z"/><path class="cls-21" d="M318.71,416.63c.88-.14,1,.49,1.26,1.11,1.79,5.11,3.17,10.34,4.5,15.58a179.43,179.43,0,0,0,8,25.33,13.88,13.88,0,0,1,1.35,4.83c-1.2-1.37-1.5-3.17-2.21-4.76A194.86,194.86,0,0,1,324,440a112,112,0,0,1-4.77-19.45C319.08,419.22,318.52,418,318.71,416.63Z"/><path class="cls-28" d="M191.35,314.71c-1.76-3.14-3.59-6.23-5.16-9.48-.26-.54-.25-.87.29-1.24a23.46,23.46,0,0,1,5.36-2.69c.9-.32,1.34-.16,1.74.8a54.47,54.47,0,0,0,4.68,9.26,8.71,8.71,0,0,0,1,1.28c1.25,1.27,1.26,1.26-.53,1.92a10.59,10.59,0,0,0-2.47-2.32l-1.66-3.86c-.57-1.32-1-1.39-2-.33a3.55,3.55,0,0,0-1,2,7.27,7.27,0,0,0,.6,3.85C192.21,314.51,191.94,314.79,191.35,314.71Z"/><path class="cls-27" d="M406.39,510.32c0-2.88-.43-5.63-2.67-7.74a1.82,1.82,0,0,0-2.08-.61,26.41,26.41,0,0,1-11,1.5,7.7,7.7,0,0,0-3.1.25c-1.61.77-2.75.12-3.81-1.45,8.78.62,17-.59,24.19-6.2.19,2.52-.14,4.84.35,7.11.13.62.11,1.28.29,1.88C409.3,507.44,408,508.93,406.39,510.32Z"/><path class="cls-29" d="M312.72,389.77c.94.22,1.12,1.12,1.54,1.79a13.86,13.86,0,0,0,4.78,4.56c.82.49,1.59,1.06,2.38,1.59,2.4,1.58,2.94,1.55,5.14-.26a2.62,2.62,0,0,1,.61-.28,19.17,19.17,0,0,0-.23,3.93c0,.65-.12,1-.88,1-4.38-.2-8.55-1-12-4a3.67,3.67,0,0,1-1.42-3.7A29.57,29.57,0,0,0,312.72,389.77Z"/><path class="cls-26" d="M339.28,302.16c.59.32,1.18.57,1.09,1.47s-.94,1.2-1.61,1.43c-3.9,1.32-7.8,2.63-11.8,3.65-2.8.72-5.59,1.46-8.45,1.92-.22-2.81-.22-2.84,2.48-3.5C327.13,305.62,333.2,303.87,339.28,302.16Z"/><path class="cls-27" d="M394,401c-2,2.44-4.86,3.64-7.63,4.87a13.86,13.86,0,0,1-12.37-.48l-3.81-1.93c.71-.42,1.2,0,1.68,0a73.08,73.08,0,0,0,11.7-.64,100.83,100.83,0,0,0,10.44-1.8Z"/><path class="cls-16" d="M336.26,198.93c-3.78,0-7.55,0-11.33-.12-5.34-.12-10.71,0-15.84-2.06a5.94,5.94,0,0,1-2-1.25c.13-.51.28-1,.91-1.11,3.09,2.07,6.67,2.26,10.19,2.56,7.28.62,14.58.61,21.88.56a26.32,26.32,0,0,1,3.81.28c.39.05,1-.06,1,.46s-.54.46-.9.57a2.26,2.26,0,0,0-.36.18l-4,.08A8.56,8.56,0,0,0,336.26,198.93Z"/><path class="cls-29" d="M334.23,391.19l6.16,1.05c.41.07.47.3.44.68-.16,2.16-.32,2.31-2.47,2.05a4.64,4.64,0,0,1-.8-.16,1.09,1.09,0,0,0-1.53.72,1.2,1.2,0,0,0,.86,1.61,17.63,17.63,0,0,0,2.17.79c.69.15.75.42.59,1s.08,1.67-.31,2.08-1.29-.34-2-.31a30.57,30.57,0,0,1-3.94-.29c-.86-.07-1.41-.38-1.24-1.36.43-2.36.86-4.72,1.29-7.08C333.53,391.57,333.56,391.08,334.23,391.19Z"/><path class="cls-20" d="M343.36,397.94a14.91,14.91,0,0,0-.51,3.74c0,.47-.19.72-.6,1-4.19,2.5-8.37,1.41-12.56,0-.65-.22-.58-.72-.57-1.23a60.58,60.58,0,0,1,1.5-10c0-.18.09-.35.13-.53.55-2.93,1.16-3.48,4.08-2.71,3.14.82,6.33,1.24,9.51,1.76.92.15,1.06.58.86,1.29a54.14,54.14,0,0,1-1.66,5.77,1.49,1.49,0,0,1-1-2c.31-1.08,0-2.26.7-3.3.31-.49,0-1-.65-1.09-2.88-.39-5.76-.79-8.65-1.13-1.35-.16-2,.73-2.29,1.89-.7,3-1.34,5.93-2,8.9a1.82,1.82,0,0,0,1.61,2c2.6.17,5.19,1.18,7.82.15,0,0,.1,0,.13,0,2.1,1.16,1.68-.8,2-1.69C341.73,399.63,341.47,398.08,343.36,397.94Z"/><path class="cls-25" d="M378.11,380.37c-1.63,0-1.93.73-2.28,1.8-.77,2.37-1.87,4.64-2.82,7a.92.92,0,0,1-.95.62c-1.37,0-2.74,0-4.11,0-.66,0-.8-.22-.5-.82,1.32-2.6,2.56-5.24,4-7.79.36-.66,1.29-1,.84-2-.09-.19.22-.27.39-.25A15.63,15.63,0,0,1,378.11,380.37Z"/><path class="cls-26" d="M429.21,330.62c-1.12.11-1.45-.73-1.8-1.52-.58-1.31-1.07-2.68-1.73-4a5.06,5.06,0,0,0-3.47-2.52c.73-1.21,1.48-2.4,2.18-3.62.34-.59.72-.62,1.21-.21,2.36,2,3.86,4.7,5.68,7.13a1.54,1.54,0,0,1-.12,1.57A12.79,12.79,0,0,1,429.21,330.62Z"/><path class="cls-18" d="M277,256.12c2.74,3.46.12,7.93-2.85,10.05a90,90,0,0,1-10.42,6.15c-1.9,1-2.9.56-3-1.13l7.77-3.56c1.44-.67,2.74-1.59,4.1-2.38,2.89-1.68,3.3-3.38,2.7-6.37a8,8,0,0,0,1.48-2.7Z"/><path class="cls-21" d="M354.46,442.66c1-.17,1.35.27,1.55,1.22.89,4.22,1.45,8.49,2.17,12.73.67,3.89,1.31,7.78,1.8,11.69.23,1.85.49,3.68.89,5.5a.77.77,0,0,1-.23.87c-2.57-7.84-3.71-16-5.28-24.06A39,39,0,0,1,354.46,442.66Z"/><path class="cls-24" d="M342.09,181.41c-.35-.5-.89-.36-1.37-.36-1.72,0-3.43,0-5.15,0-.43,0-.92.15-1.25-.29.26-.4,1.29-.2.93-1s-1-.61-1.65-.36l-3.4,1.3c-.26.1-.57.21-.73-.07a.8.8,0,0,1,.07-.64,21.37,21.37,0,0,1,1.91-3.57,37.42,37.42,0,0,0,8.56,1.36,7.55,7.55,0,0,1,2.57.86,12.26,12.26,0,0,0,1.26.52c.44.15,1.22-.26,1.31.35.11.8-.74.34-1.13.53s-.31.69-.38,1.07Z"/><path class="cls-18" d="M249.47,285.24c-.71,1-1.63.42-2.41.23s-1.51-.55-1.47-1.64a19.15,19.15,0,0,0-.72-5.4,9.65,9.65,0,0,0-1.47-3.06,1.73,1.73,0,0,1,.83-2.82,3.22,3.22,0,0,1,2.71,0c-1.06.67-1,1.44-.32,2.38a6.58,6.58,0,0,1,1.43,3.47C248.22,280.75,248.27,283.12,249.47,285.24Z"/><path class="cls-29" d="M344.74,402.38c.29.65.88.52,1.42.55,1.72.08,3.46-.2,5.17.25a1.57,1.57,0,0,0,1.58-.59c.4-.41.72-1,1.38-1,0,1.23,0,2.46,0,3.69,0,.67-.18,1-.92,1-3.58-.13-7.19.32-10.74-.54-.4-.1-.4-.08-1.51-1.35C342.29,403.57,344,403.78,344.74,402.38Z"/><path class="cls-22" d="M253.58,282.13c-.06-3.08-.32-6.14-2.64-8.46a3.59,3.59,0,0,1-1-3,1.43,1.43,0,0,1,1.8-1.52,4.86,4.86,0,0,1,3.44,1.68c-.12,2-.58,4,0,6.07a11.49,11.49,0,0,1,.3,3.1C255.44,281.26,254.95,282.05,253.58,282.13Z"/><path class="cls-22" d="M249.47,285.24c-1.2-2.13-1.25-4.5-1.43-6.83a6.58,6.58,0,0,0-1.43-3.47c-.7-.94-.74-1.71.32-2.38,1.06-.09,1.39.83,2,1.42,2.9,3,3.39,6.52,1.93,10.39C250.55,285.09,249.71,284.64,249.47,285.24Z"/><path class="cls-28" d="M271.58,248c.19,1.72,1.43,2.91,3.5,3.49,2.37.66,4.67.09,7-.34.42-.08.9-.45,1,.32-3.72,1.62-7.35,3.53-11.53,3.72.34-2.68-1.19-4.57-2.72-6.47Z"/><path class="cls-16" d="M182.85,319.67c-.35.21-.6.13-.73-.26a45.89,45.89,0,0,0-2.54-5c.94-.17,1.36-1,1.95-1.6a4.44,4.44,0,0,1,3-1.41c.86,1.45,2.26,2.56,2.75,4.26a13,13,0,0,1-3.15,2.24C183.44,318.34,182.78,318.73,182.85,319.67Z"/><path class="cls-14" d="M369.18,314.53c.18.79-.16,1.68.28,2.51.17.31,0,.56-.43.65a14.26,14.26,0,0,1-9-.78,1.62,1.62,0,0,1-1-.91,2.36,2.36,0,0,1,0-2.11c.37-.5,1.07.07,1.59.25a36.12,36.12,0,0,0,6.82,1.38C368.77,315.71,368.77,315.67,369.18,314.53Z"/><path class="cls-28" d="M284.73,241.42c.25,1.73-.75,2.87-2,3.74a29.72,29.72,0,0,1-7.39,3.41c-1.62.56-2.72.17-3.29-.85,4.06-1.11,7.18-4.07,11-5.57C283.66,241.94,284.19,241.67,284.73,241.42Z"/><path class="cls-27" d="M367.48,502.37c-.35-.46-.77-.24-1.08,0a5.41,5.41,0,0,1-3.53.55c-2-.13-4,.42-6.07.29-.21-1.16-.21-1.16-2.12-2.46,1.32.21,2.47.33,3.58.57,4,.87,7.53-.48,11-2.06a2.46,2.46,0,0,1,3.05.36Z"/><path class="cls-28" d="M184.5,311.43a4.44,4.44,0,0,0-3,1.41c-.58.59-1,1.43-1.95,1.6a1,1,0,0,1-.19-.19c-.62-1.11-1.79-2.28-1.69-3.31s1.92-1.17,2.95-1.78,2.39-1.3,3.56-2c.48-.28.81-.39,1,.26.45,1.53,1.44,2.82,2,4.3-.42,0-.62-.26-.84-.57a14.07,14.07,0,0,0-1.92-2.6c-.32-.29-.65-.55-1.06-.21s-.24.72,0,1.09Z"/><path class="cls-14" d="M367.17,320.51c-2.34,2.36-5,3.86-6.86,6.4a25.24,25.24,0,0,1-.71-6.42c0-.45,0-1,.72-.79A19,19,0,0,0,367.17,320.51Z"/><path class="cls-18" d="M253.58,282.13c1.37-.08,1.86-.88,1.87-2.17a11.49,11.49,0,0,0-.3-3.1c-.54-2-.09-4,0-6.07a6,6,0,0,1,2.35,4.45,10.53,10.53,0,0,1-2.08,7.59,3.09,3.09,0,0,1-2.39,1.14Z"/><path class="cls-23" d="M391.37,389.23H382c-.34,0-.79.17-1-.23s.24-.71.46-1c1.84-2.8,8-2.06,9.76.35A.82.82,0,0,1,391.37,389.23Z"/><path class="cls-22" d="M240.69,275.39c1.67.54,2,2,2.35,3.45a14.8,14.8,0,0,1,.38,4.06,5.37,5.37,0,0,0,.57,2.91c.38.66.09.94-.48,1.07s-1.36.31-1.41-.51a7.79,7.79,0,0,0-1.22-3.14.51.51,0,0,0,.17-.59A29.16,29.16,0,0,1,240.69,275.39Z"/><path class="cls-26" d="M397.88,308.41c-1.55,4.67-5.3,7.23-9.22,9.62a75.41,75.41,0,0,1,4.47-6.79A6.51,6.51,0,0,1,397.88,308.41Z"/><path class="cls-26" d="M315.91,311.45c-2,.07-3.84.86-5.83.93a3.27,3.27,0,0,1-1.58,0c-.57-.26-.93.08-1.28.45-1.33-1.58-1.26-1.75.66-2.43a27.15,27.15,0,0,1,5.46-1.2C316.07,308.8,316.07,308.78,315.91,311.45Z"/><path class="cls-17" d="M289.46,247.41a5.63,5.63,0,0,1-.91-2.38c-.31-1.77-1.66-2.95-2.72-4.28.61-1.08,1.79-1,2.76-1.34.44-.15.51.27.67.51.62,1,1.17,1.95,1.83,2.86a2.22,2.22,0,0,1-.31,3.26C290.34,246.5,289.9,247,289.46,247.41Z"/><path class="cls-26" d="M376.24,323.5c.24-.63.87-.63,1.37-.78a10,10,0,0,0,4.57-2.85c1.84-2,4-3.53,6-5.4a.92.92,0,0,1,.74-.28c-2.66,4.79-6.14,8.54-11.89,9.45C376.72,323.69,376.45,323.73,376.24,323.5Z"/><path class="cls-17" d="M191.35,314.71c.59.08.86-.2.87-.77a16.6,16.6,0,0,0,4-1.69,10.59,10.59,0,0,1,2.47,2.32,9.26,9.26,0,0,1-3.41,1.64C192.93,317,192.67,316.89,191.35,314.71Z"/><path class="cls-27" d="M375.7,510c-.67,0-1-.62-1.45-1a11.1,11.1,0,0,0-7.4-2.33c.9-1.53,2.15-1.75,5.55-1.05,2.49.5,2.76.87,3.29,4.34Z"/><path class="cls-18" d="M184.5,311.43l-1.13-2c-.21-.37-.37-.76,0-1.09s.74-.08,1.06.21a14.07,14.07,0,0,1,1.92,2.6c.22.31.43.58.84.57l2.64,4.06c-.88.27-1.73-.42-2.61-.1C186.76,314,185.37,312.88,184.5,311.43Z"/><path class="cls-14" d="M268.86,248.69c1.53,1.89,3.06,3.79,2.72,6.47l-1,0a11.25,11.25,0,0,0-2.14-2.13l-.85-2.18.52-2.11Z"/><path class="cls-26" d="M378.18,325.79c-.43.75-1.25.69-1.91.81a8.45,8.45,0,0,1-6.32-.9c-1.11-.71-1.53-1.9-2.3-2.84l2.2-2c-.13,1.49.58,2.42.66,3.57s1.23,1.11,2.11,1.32C374.48,326.15,376.33,325.58,378.18,325.79Z"/><path class="cls-18" d="M240.69,275.39a29.16,29.16,0,0,0,.37,7.26.51.51,0,0,1-.17.59l-1.52-2c-.31-.41-.66-.83.12-1.14.22-.09.39-.27.25-.53s-.39-.2-.6-.14c-.8.21-.9-.24-.93-.88C238.09,276.3,238.81,275.39,240.69,275.39Z"/><path class="cls-17" d="M187.25,315.68c.88-.32,1.73.37,2.61.1a2.09,2.09,0,0,1,.9,1.16c-3,.07-5.17,2.16-7.92,2.72-.07-.93.59-1.32,1.25-1.74A13,13,0,0,0,187.25,315.68Z"/><path class="cls-27" d="M345,521.66c2.06-.25,4.12-.07,6.19-.32a33.41,33.41,0,0,0,4.29-1.24c.45-.11,1-.55,1.23.23s-.3.92-.86,1.11a10.45,10.45,0,0,1-4,.66C349.6,521.95,347.28,522.4,345,521.66Z"/><path class="cls-27" d="M378.73,501.55a12,12,0,0,1,5.84,3.15c.35.29.06.6-.24.74s-.82,1.15-1.31.49c-1.14-1.51-2.81-2.4-4.05-3.76A2.35,2.35,0,0,1,378.73,501.55Z"/><path class="cls-27" d="M397.27,393.07c-.54-1.82-1.86-2.33-3.16-3l4.46-1.4c.21-.07.46-.22.59.05a.79.79,0,0,1,0,.65A40,40,0,0,0,397.27,393.07Z"/><path class="cls-27" d="M378.52,506.91c-.79-1-2-1.32-2.81-2.13a13.27,13.27,0,0,1-1.36-1.89C377.93,503,379.1,504.41,378.52,506.91Z"/><path class="cls-27" d="M343,502.82c.78-1,1.48-1.39,2.65-.71a8.07,8.07,0,0,0,3,.84c.43.06,1,.08,1,.68s-.67.63-1.16.6a3.66,3.66,0,0,1-1.32-.24A13.59,13.59,0,0,0,343,502.82Z"/><path class="cls-27" d="M378.42,510.64a1.8,1.8,0,0,1-1.39.77,2.86,2.86,0,0,1-1.06-1.1h0c2-.2.74-1.69,1-2.6,1.05,0,1.7,1.21,2.82,1h0c0,.54-.38.76-.78.94A.88.88,0,0,0,378.42,510.64Z"/><path class="cls-22" d="M417.94,396c-.31-.76-.55-1.39-.81-2-.66-1.54-.65-1.47,1-1.82.71-.15.9,0,1,.67A3.13,3.13,0,0,1,417.94,396Z"/><path class="cls-24" d="M426.09,181.83c.08-.26.18-.51.24-.77.1-.43.26-.84.77-.78s.65.56.63,1c0,1.59.21,3.28-1.37,4.39C426.15,184.42,426.73,183.08,426.09,181.83Z"/><path class="cls-29" d="M388.22,218c-2.24-.37-2-2.25-2.74-3.67C387.88,214.54,387.86,216.27,388.22,218Z"/><path class="cls-27" d="M379.81,508.67c-.15-1.06.52-2,.23-3.1.93,0,1.28.75,1.87,1a.43.43,0,0,1,.06.78c-.69.48-1.18,1.31-2.17,1.26Z"/><path class="cls-16" d="M415.4,400.64l0-.71c1.89,1,3.74.55,5.7-.26-.07,1.2-.89,1.42-1.65,1.58a3.87,3.87,0,0,1-2.64-.39A2,2,0,0,0,415.4,400.64Z"/><path class="cls-29" d="M390.92,219c-1.61-.28-1.69-1.6-2-2.67-.13-.41.18-.55.58-.38.65.28,1.22.62,1.28,1.43C390.78,217.93,390.85,218.41,390.92,219Z"/><path class="cls-29" d="M391.73,217.79c1.79.55,1.92.73,2.15,2.86C392.18,220.51,392.51,218.91,391.73,217.79Z"/><path class="cls-28" d="M276.72,256.19a8,8,0,0,1-1.48,2.7C274.15,256.77,274.15,256.77,276.72,256.19Z"/><path class="cls-29" d="M384.89,216.09c0,.25.06.47-.26.52a.49.49,0,0,1-.56-.3c-.25-.77-.48-1.56-.67-2.35a.49.49,0,0,1,.19-.44.51.51,0,0,1,.64.36C384.49,214.61,384.68,215.35,384.89,216.09Z"/><path class="cls-22" d="M433.7,240.49H433c.08-1.17,0-2.39.88-3.34l.47.06A16.63,16.63,0,0,0,433.7,240.49Z"/><path class="cls-29" d="M373.66,504.17c-.9-.08-1.44-.12-2-.18-.29,0-.73.13-.79-.3s.37-.47.64-.61C372.6,502.55,373,503.34,373.66,504.17Z"/><path class="cls-28" d="M268.39,253.06a11.25,11.25,0,0,1,2.14,2.13C268.92,255.45,268.92,255.45,268.39,253.06Z"/><path class="cls-28" d="M268.06,248.77l-.52,2.11c-.55-.61-.61-1.44-1.08-2.17A2.55,2.55,0,0,1,268.06,248.77Z"/><path class="cls-26" d="M381.74,324.12a3.18,3.18,0,0,1-2.87,1.5C379.42,324.34,380.73,324.5,381.74,324.12Z"/><path class="cls-29" d="M394.48,220.11s.08-.08.1-.07a2,2,0,0,1,1.36,1.64.31.31,0,0,1-.32.35C395.2,222.06,394.64,221.11,394.48,220.11Z"/><path class="cls-29" d="M382,215.83c-.38,0-.79-.13-.74-.6s.23-.91.66-.93.54.53.6.91A.47.47,0,0,1,382,215.83Z"/><path class="cls-29" d="M446.07,215.83a2.24,2.24,0,0,1,1.45.83c.66.79-.22.39-.42.52l-.44,0,0,0-.26-.26Z"/><path class="cls-27" d="M355.7,503.18c-.21.34-.55.26-.87.28-.22-.15-.57-.44-.39-.58C354.89,502.55,355.31,502.92,355.7,503.18Z"/><path class="cls-22" d="M320.7,245.69a1.93,1.93,0,0,1-.06,1.92A5.28,5.28,0,0,1,320.7,245.69Z"/><path class="cls-14" d="M368.41,313.35a.37.37,0,0,0,.51,0C368.74,313.59,368.57,313.56,368.41,313.35Z"/><path class="cls-27" d="M363.1,526.74l-.35-.1c.2-.23.26,0,.34.11Z"/><path class="cls-21" d="M333.76,463.47c.26.14.33.3.06.5Z"/><path class="cls-14" d="M292.43,247.32a1,1,0,0,1,.08.2s-.05.07-.08.1c-.19.1-.37,0-.37-.15S292.24,247.22,292.43,247.32Z"/><path class="cls-19" d="M356,305.93c0,.2-.11.27-.28.3h0c0-.22.11-.29.3-.28Z"/><polygon class="cls-21" points="412.01 147.14 412.05 147.23 411.95 147.22 412.01 147.14"/><path class="cls-27" d="M376,510.3l-.28-.27h0l.27.28Z"/><path class="cls-27" d="M394.05,401l.05-.12L394,401Z"/><path class="cls-15" d="M350,271.88c-.17-.26-.28-.69-.51-.77-1.49-.48-1.16-1.57-1-2.65a14.41,14.41,0,0,0-.32-6.5c-.14-.47-.3-.86.14-1.23a1.08,1.08,0,0,1,1.28,0,31.21,31.21,0,0,0,22.92,3.2c2.59-.51,5.25-.78,7.43-2.5a.71.71,0,0,1,.63-.1c.31.19.08.5,0,.72-1.6,4.1-3.86,7.62-8.22,9.27A27.28,27.28,0,0,1,350,271.88Zm1.33-7.55c0,1.13,0,2.13,0,3.13-.13,2.32-.14,2.3,2.12,3a22.59,22.59,0,0,0,12.93.36,69.71,69.71,0,0,0,7.07-2.53c2.17-.86,2.74-1.55,3.71-4.14C368.53,268.41,360,267.94,351.33,264.33Zm26.09-.09.06-.07h-.09Z"/><path class="cls-15" d="M387.44,231.24a10.33,10.33,0,0,1,2,4.71,5.75,5.75,0,0,1-2.77,5.69,7.08,7.08,0,0,1-7.14.65,10.22,10.22,0,0,1-1.41-1c.94-.56,2.08-.53,3.15-1-2.69-1.63-3.46-2.92-3-5a3.41,3.41,0,0,0,2.6.52,1.67,1.67,0,0,0,1.41,1.76,22.87,22.87,0,0,0,3.18.64c.79.1,1.09-.45,1.18-1.18s-.38-1.49-.31-2.27c-.91-2.49-2.14-3-4.34-2a4.2,4.2,0,0,0-2.49-.64c.07-.74.8-.87.91-1.5a4.65,4.65,0,0,0-1.88.13,7.52,7.52,0,0,0-3.49,2,2.74,2.74,0,0,0-.86,2.7c0,.22-.29.53-.46.79-.7.16-1.4.18-1.79-.54a3.3,3.3,0,0,1,.09-3.28c2.61-3.5,5.93-5.24,10.41-4.35A9.45,9.45,0,0,1,387.44,231.24Z"/><path class="cls-15" d="M328.06,215.35a2.24,2.24,0,0,0,1-.89c3.43-4.65,8.39-6.31,13.82-7.05.36,0,.73,0,1.09-.08,2.23-.22,2.24-.22,2.9,1.88.28.91.53,1.83.76,2.75s-.48,1.18-1.17,1.31c-1.88.34-3.77.62-5.66.94a5.83,5.83,0,0,0-2.11.47,1.81,1.81,0,0,0-1.67.71c-.23.34-.48.56-.86.17a.27.27,0,0,0-.24-.06c-2,1.13-4.51,1-6.32,2.65-.32.28-.82,1-1,.59-.33-.6-1.21-.75-1.18-1.62A3.3,3.3,0,0,1,328.06,215.35Zm13.64-6c-1.48,0-2,.91-2.42,1.92-.11.26-.51.67,0,.91a.78.78,0,0,0,1-.29A7.18,7.18,0,0,0,341.7,209.38Zm-3,1.1c0-.2-.14-.37-.34-.31-.46.15-1,.14-1.26.68s-.73,1.07-.7,1.73c0,.25.34.23.57.2A5.26,5.26,0,0,0,338.68,210.49Zm3.15,1.31.31.22c.94-.45,1-1.54,1.55-2.31.14-.21.33-.51,0-.67s-.49.12-.62.37Zm-6.35-.42c-1.32.56-2.05,1.21-2.13,2.48C334.69,213.61,335,212.66,335.48,211.37Zm-2.62,1.71A2.19,2.19,0,0,0,331.1,215C332,214.58,332.79,214.3,332.87,213.09Zm12.21-3.4c-.43.66-1,1-.61,1.67.13.23.67.21.87,0C345.78,210.79,345.24,210.38,345.07,209.68Z"/><path class="cls-15" d="M347.47,223.52c3.43,3.78,1.37,8.83-3.36,10.82-.77.32-1.09,0-1.3-.7.44-.49.86-.82-.17-1.29a4.65,4.65,0,0,1-2.92-4.49l2.54.37a3.49,3.49,0,0,0,1.71,1.85,1.61,1.61,0,0,0,1.92,0c.9-.74,1.06-3,.34-4.08-.9-1.33-1.25-1.4-2.94-.55a7.18,7.18,0,0,0-4.07-1.19,2.81,2.81,0,0,0-2.77,2.25,4.21,4.21,0,0,0,1.41,4.3c.73.6,1,1.14.53,2a2.37,2.37,0,0,1-3.25-1.05,7.07,7.07,0,0,1-.71-7.25,7.29,7.29,0,0,1,2.62-2.12C340.73,220.88,344.22,221.06,347.47,223.52Z"/><path class="cls-15" d="M350.39,219.65c1.49-.53,2.45.28,3.19,1.39,2.15,3.21,1.88,6.65,1.22,10.27-.88,4.86-4.39,8-7.15,11.59a10.13,10.13,0,0,0-2,3.69c-.5,2.06.09,3.49,2.05,4.3a17.7,17.7,0,0,0,8,1.38,6.61,6.61,0,0,1,.81,0c.07,0,.13.11.37.33a35,35,0,0,1-6.91.73c-1-.21-2-.41-2.92-.64a5.22,5.22,0,0,1-3.46-7.32,27,27,0,0,1,5.55-7.37,11.86,11.86,0,0,0,4-8.27A16.16,16.16,0,0,0,350.39,219.65Z"/><path class="cls-22" d="M350.39,219.65a16.16,16.16,0,0,1,2.73,10.06,11.86,11.86,0,0,1-4,8.27,27,27,0,0,0-5.55,7.37,5.22,5.22,0,0,0,3.46,7.32c1,.23,1.95.43,2.92.64-.92,1.15-2,.4-3,.25a24.3,24.3,0,0,1-3.34-1.13,2.46,2.46,0,0,1-1.52-2.27,11.47,11.47,0,0,1,1-6.2,85.1,85.1,0,0,1,5.72-9.84c1.38-2,1.25-4.2,1.22-6.4s-.23-4.44-.34-6.66C349.64,220.47,349.56,219.81,350.39,219.65Z"/><path class="cls-22" d="M446.36,234c.57,3.49-1.14,6.5-2.18,9.6-.57,1.71-2.43,2.34-4.16,2.73a22.15,22.15,0,0,1-2.4.46c-.67.07-1.41.13-1.67-.77,4.48-2,5.67-6.05,2.94-10.1-.44-.66.06-.83.34-1.07a6.27,6.27,0,0,1,7.15-1.17l0,0Z"/><path class="cls-15" d="M446.39,233.64a6.27,6.27,0,0,0-7.15,1.17c-.28.24-.79.41-.34,1.07,2.73,4,1.54,8.06-2.94,10.1a3.32,3.32,0,0,0-1.84.16c-.28.12-.7.48-.9,0s.31-.46.55-.62l.54-.36c3-2.53,3.51-5.21,2.4-7a5.2,5.2,0,0,0-.71,2.17c-.18.94-.64,1.5-1.69,1.29l-.61-1.09a16.63,16.63,0,0,1,.62-3.29,17.24,17.24,0,0,1,4-4.78c2.53-2,5.21-1.43,7.46-.05A1.33,1.33,0,0,1,446.39,233.64Z"/><path class="cls-14" d="M380.88,235.83a3.41,3.41,0,0,1-2.6-.52c-.47,2.08.3,3.37,3,5-1.07.46-2.21.44-3.15,1-.13,0-.33.11-.39.06-1.59-1.47-3.6-2.63-4-5.06.16-.27.51-.57.46-.79a2.74,2.74,0,0,1,.86-2.7,7.52,7.52,0,0,1,3.49-2,4.65,4.65,0,0,1,1.88-.13c-.1.63-.84.77-.91,1.5a4.2,4.2,0,0,1,2.49.64,2.13,2.13,0,0,1,.25,1.88Z"/><path class="cls-22" d="M350,271.88a27.28,27.28,0,0,0,22.35-.53c.33,2.08-1.58,2.47-2.67,3.44a2.43,2.43,0,0,1-1.66.48c-.13-.89-.66-.45-1.09-.33-2.36.64-4.7,1.39-7.2.87a1.79,1.79,0,0,0-1.54.34c-.65-.64-1.47-.29-2.21-.32a11.85,11.85,0,0,1-4.74-1C349.73,274.06,349.53,273.5,350,271.88Z"/><path class="cls-14" d="M342.27,228.23l-2.54-.37a4.65,4.65,0,0,0,2.92,4.49c1,.47.6.8.17,1.29l-4.42-.85c.44-.82.2-1.37-.53-2a4.21,4.21,0,0,1-1.41-4.3,2.81,2.81,0,0,1,2.77-2.25,7.18,7.18,0,0,1,4.07,1.19C343.9,227.09,343.7,227.61,342.27,228.23Z"/><path class="cls-22" d="M387.44,231.24a9.45,9.45,0,0,0-5-3.11c-4.47-.89-7.8.85-10.41,4.35-.7-2.19.84-3.31,2.25-4.35,4.54-3.39,8.43-1.85,12.34,1A2,2,0,0,1,387.44,231.24Z"/><path class="cls-22" d="M347.47,223.52c-3.25-2.46-6.75-2.64-10.43-1.15a7.29,7.29,0,0,0-2.62,2.12c-.28-.67.19-1.13.5-1.61,2.49-4,8-4.1,11.16-1.74C346.9,221.75,347.77,222.28,347.47,223.52Z"/><path class="cls-15" d="M358.2,276.15a1.79,1.79,0,0,1,1.54-.34c2.5.52,4.84-.23,7.2-.87.44-.12,1-.56,1.09.33a8.38,8.38,0,0,1-8,2.7C359,277.81,357.9,277.65,358.2,276.15Z"/><path class="cls-22" d="M434.32,241.58c1,.21,1.51-.35,1.69-1.29a5.2,5.2,0,0,1,.71-2.17c1.11,1.78.58,4.47-2.4,7C433.77,243.94,434.24,242.76,434.32,241.58Z"/><path class="cls-15" d="M446.36,234v-.35C446.54,233.73,446.63,233.85,446.36,234Z"/><path class="cls-15" d="M386,348.22a1.92,1.92,0,0,1-1.28,1c-5.15,1.59-10.31,2.25-15.58.44-1.45-.5-2.33-1.69-3.6-2.36-.28-.15-.09-.38-.09-.59a39.12,39.12,0,0,1,.53-5c.27-2.1.33-2.13,2.43-2,5.5.44,11,.86,16.54.87.82,0,1.63.14,2.45.21.45,0,.92.14,1.28-.26a.78.78,0,0,1,1.1-.19c.38.25.29.63.24,1-.31,2.08-.64,4.15-.92,6.23a1,1,0,0,1-.92,1c-.74.18-.87,0-.76-.72.3-1.85.52-3.71.81-5.55.12-.76.05-1-.88-.91-6.12.9-12.2.18-18.25-.71-1.1-.16-1.42-.07-1.42,1.09a16.79,16.79,0,0,1-.48,3.79c-.33,1.38.2,2,1.46,2.38a26.27,26.27,0,0,0,10.42,1C381.36,348.7,383.57,347.93,386,348.22Z"/><path class="cls-14" d="M283.62,321a6.42,6.42,0,0,1,0,1c-.08.39-.14.87-.65.92s-.61-.35-.76-.68c-.56-1.29-1.14-2.58-1.67-3.89A30.14,30.14,0,0,0,270.29,305c-.71-.52-2-1.25-1.26-2.24s1.63.09,2.34.55a28.3,28.3,0,0,1,11.7,14.8,6.24,6.24,0,0,1,.28,1.05C283.47,319.83,283.56,320.55,283.62,321Z"/><path class="cls-15" d="M257.07,298.22a4.91,4.91,0,0,1-3.34-1.56c-.34-.41-.57-.89-.12-1.33s.86-.18,1.21.15c1.31,1.22,2.87,1.19,4.46.89a1.35,1.35,0,0,1,1.37.28c-.22,1.11-1.21,1.06-2,1.3A12.4,12.4,0,0,1,257.07,298.22Z"/><path class="cls-14" d="M441.49,353.84a9.46,9.46,0,0,0-1.13-4.6,4.66,4.66,0,0,1-.56-2c0-.49-.1-1.06.53-1.27a1.23,1.23,0,0,1,1.37.35,10.25,10.25,0,0,1,2.69,5.55c1,7.89-1.9,14.4-7.38,19.93-1.06,1.07-2.13,2.12-3.19,3.2-.48.48-1,.68-1.56.19s-.29-1,.11-1.5a114.31,114.31,0,0,0,6.5-9.59A19.81,19.81,0,0,0,441.49,353.84Z"/><path class="cls-15" d="M446.66,217.21l.44,0,.05.3Z"/><path class="cls-15" d="M447.74,218l-.28-.26Z"/><path class="cls-21" d="M336.26,198.93a8.56,8.56,0,0,1,3.36.14A9.34,9.34,0,0,1,336.26,198.93Z"/><path class="cls-18" d="M293.81,258.15c.56.18.69.68.83,1.15.85,2.88,1.05,5.69-.85,8.29a12.93,12.93,0,0,1-3.17,2.08c-.38.16-.84.32-1.08-.15s.23-.6.49-.84c.9-.83,1.78-1.7,2.66-2.55a3,3,0,0,0,.85-2.23,15.44,15.44,0,0,0-.23-4.08C293.16,259.23,293,258.53,293.81,258.15Z"/><path class="cls-15" d="M446.37,216.93l.26.26Z"/><path class="cls-15" d="M406.38,513l.3-.21.07.11-.37.1Z"/><path class="cls-16" d="M196.27,312.25a16.6,16.6,0,0,1-4,1.69,7.28,7.28,0,0,1-.6-3.85,3.55,3.55,0,0,1,1-2c1-1.06,1.4-1,2,.33Z"/><path class="cls-14" d="M351.33,264.33c8.65,3.61,17.2,4.08,25.82-.2-1,2.59-1.54,3.28-3.71,4.14a69.71,69.71,0,0,1-7.07,2.53,22.59,22.59,0,0,1-12.93-.36c-2.26-.69-2.25-.67-2.12-3C351.38,266.46,351.33,265.46,351.33,264.33Z"/><polygon class="cls-14" points="377.42 264.24 377.39 264.16 377.48 264.18 377.42 264.24"/><path class="cls-29" d="M382.24,234.69a2.13,2.13,0,0,0-.25-1.88c2.2-1.09,3.43-.54,4.34,2-.28.94-.5,1.94-1.55,2.36C383.11,237.79,382.29,237,382.24,234.69Z"/><path class="cls-27" d="M382.24,234.69c0,2.3.87,3.1,2.54,2.44,1.05-.41,1.27-1.42,1.55-2.36-.07.78.42,1.48.31,2.27s-.4,1.28-1.18,1.18a22.87,22.87,0,0,1-3.18-.64,1.67,1.67,0,0,1-1.41-1.76Z"/><path class="cls-29" d="M341.7,209.38a7.18,7.18,0,0,1-1.42,2.54.78.78,0,0,1-1,.29c-.54-.24-.14-.66,0-.91C339.7,210.3,340.21,209.34,341.7,209.38Z"/><path class="cls-29" d="M338.68,210.49a5.26,5.26,0,0,1-1.74,2.3c-.22,0-.56,0-.57-.2,0-.66.45-1.15.7-1.73s.8-.54,1.26-.68C338.54,210.12,338.66,210.29,338.68,210.49Z"/><path class="cls-29" d="M341.83,211.8l1.19-2.38c.13-.25.31-.5.62-.37s.19.46,0,.67c-.51.77-.6,1.86-1.55,2.31Z"/><path class="cls-29" d="M335.48,211.37c-.45,1.28-.8,2.24-2.13,2.48C333.43,212.58,334.16,211.94,335.48,211.37Z"/><path class="cls-29" d="M332.87,213.09c-.08,1.21-.85,1.49-1.77,1.92A2.19,2.19,0,0,1,332.87,213.09Z"/><path class="cls-29" d="M345.07,209.68c.17.7.71,1.11.26,1.65-.2.23-.74.25-.87,0C344.09,210.72,344.65,210.34,345.07,209.68Z"/><path class="cls-29" d="M342.27,228.23c1.44-.62,1.63-1.14,1-2.77,1.69-.85,2-.79,2.94.55.72,1.07.56,3.34-.34,4.08a1.61,1.61,0,0,1-1.92,0A3.49,3.49,0,0,1,342.27,228.23Z"/></svg>