<?xml version="1.0" encoding="UTF-8"?>
<svg width="736px" height="849px" viewBox="0 0 736 849" version="1.1" xmlns="http://www.w3.org/2000/svg" xmlns:xlink="http://www.w3.org/1999/xlink">
    <g id="pointblank" stroke="none" stroke-width="1" fill="none" fill-rule="evenodd">
        <g id="pointblank_hex_logo">
            <polygon id="hex_inside_fill" fill="#FFFFFF" points="706.337612 195.45 428.537612 35.05 368.237612 0.25 307.937612 35.05 30.1376121 195.45 0.837612102 212.35 0.837612102 636.65 30.1376121 653.55 311.337612 815.95 368.237612 848.75 425.137612 815.95 706.337612 653.55 735.637612 636.65 735.637612 212.35"></polygon>
            <g id="vertical" transform="translate(37.000000, 9.000000)" stroke="#4A4A4A" stroke-linecap="square">
                <line x1="661" y1="190.465701" x2="661" y2="640.533607" id="v_070"></line>
                <line x1="641" y1="179.400169" x2="641" y2="652.506605" id="v_068"></line>
                <line x1="621" y1="168.421977" x2="621" y2="664.633278" id="v_066"></line>
                <line x1="601" y1="155.335887" x2="601" y2="675.50024" id="v_064"></line>
                <line x1="581" y1="144.54382" x2="581" y2="687.56653" id="v_062"></line>
                <line x1="561" y1="132.945799" x2="561" y2="698.537352" id="v_060"></line>
                <line x1="541" y1="121.003882" x2="541" y2="710.632514" id="v_058"></line>
                <line x1="521" y1="110.076606" x2="521" y2="721.649019" id="v_056"></line>
                <line x1="501" y1="97.8903154" x2="501" y2="732.533287" id="v_054"></line>
                <line x1="481" y1="87.0348637" x2="481" y2="744.994327" id="v_052"></line>
                <line x1="461" y1="75.7686759" x2="461" y2="755.326223" id="v_050"></line>
                <line x1="441" y1="63.8334608" x2="441" y2="766.999526" id="v_048"></line>
                <line x1="421" y1="52.28472" x2="421" y2="779.500172" id="v_046"></line>
                <line x1="401" y1="40.2967649" x2="401" y2="791.203646" id="v_044"></line>
                <line x1="381" y1="29.5105285" x2="381" y2="803.14156" id="v_042"></line>
                <line x1="361" y1="17.2921035" x2="361" y2="814.009911" id="v_040"></line>
                <line x1="341" y1="7.01918696" x2="341" y2="826.503813" id="v_038"></line>
                <line x1="321" y1="0.984109265" x2="321" y2="831.554332" id="v_036"></line>
                <line x1="301" y1="11.4423591" x2="301" y2="819.518718" id="v_034"></line>
                <line x1="281" y1="23.3992223" x2="281" y2="808.526907" id="v_032"></line>
                <line x1="261" y1="35.5222554" x2="261" y2="796.54747" id="v_030"></line>
                <line x1="241" y1="46.0281517" x2="241" y2="785.731379" id="v_028"></line>
                <line x1="221" y1="57.6930771" x2="221" y2="774.50436" id="v_026"></line>
                <line x1="201" y1="70.1255457" x2="201" y2="762.721124" id="v_024"></line>
                <line x1="181" y1="81.2216425" x2="181" y2="750.845246" id="v_022"></line>
                <line x1="161" y1="92.5785598" x2="161" y2="739.532654" id="v_020"></line>
                <line x1="141" y1="103.300923" x2="141" y2="727.505006" id="v_018"></line>
                <line x1="121" y1="115.393172" x2="121" y2="715.535201" id="v_016"></line>
                <line x1="101" y1="127.444195" x2="101" y2="704.510614" id="v_014"></line>
                <line x1="81" y1="139.499746" x2="81" y2="693.599495" id="v_012"></line>
                <line x1="61" y1="150.497661" x2="61" y2="681.568027" id="v_010"></line>
                <line x1="41" y1="162.497601" x2="41" y2="669.506164" id="v_008"></line>
                <line x1="21" y1="174.329066" x2="21" y2="658.51265" id="v_006"></line>
                <line x1="1" y1="187.45242" x2="1" y2="647.522008" id="v_004"></line>
            </g>
            <g id="horizontal" transform="translate(4.000000, 24.000000)" stroke="#4A4A4A" stroke-linecap="square">
                <line x1="362.523332" y1="773.212832" x2="362.523332" y2="829.293616" id="h_082" transform="translate(363.023332, 801.500000) rotate(-270.000000) translate(-363.023332, -801.500000) "></line>
                <line x1="362.034146" y1="723.616547" x2="362.034146" y2="838.640595" id="h_080" transform="translate(362.534146, 781.500000) rotate(-270.000000) translate(-362.534146, -781.500000) "></line>
                <line x1="362.5" y1="658.967808" x2="362.5" y2="864.029871" id="h_078" transform="translate(363.000000, 761.500000) rotate(-270.000000) translate(-363.000000, -761.500000) "></line>
                <line x1="363.5" y1="604.982476" x2="363.5" y2="878.102996" id="h_076" transform="translate(364.000000, 741.500000) rotate(-270.000000) translate(-364.000000, -741.500000) "></line>
                <line x1="363.5" y1="549.991873" x2="363.5" y2="893.029517" id="h_074" transform="translate(364.000000, 721.500000) rotate(-270.000000) translate(-364.000000, -721.500000) "></line>
                <line x1="363.5" y1="495.992533" x2="363.5" y2="907.014902" id="h_072" transform="translate(364.000000, 701.500000) rotate(-270.000000) translate(-364.000000, -701.500000) "></line>
                <line x1="363" y1="441.486786" x2="363" y2="921.50026" id="h_070" transform="translate(363.500000, 681.500000) rotate(-270.000000) translate(-363.500000, -681.500000) "></line>
                <line x1="363.5" y1="386.970373" x2="363.5" y2="936.018441" id="h_068" transform="translate(364.000000, 661.500000) rotate(-270.000000) translate(-364.000000, -661.500000) "></line>
                <line x1="363.5" y1="332.881218" x2="363.5" y2="950.009925" id="h_066" transform="translate(364.000000, 641.500000) rotate(-270.000000) translate(-364.000000, -641.500000) "></line>
                <line x1="363.5" y1="277.953321" x2="363.5" y2="965.08023" id="h_064" transform="translate(364.000000, 621.500000) rotate(-270.000000) translate(-364.000000, -621.500000) "></line>
                <line x1="363.5" y1="238.834096" x2="363.5" y2="964.013962" id="h_062" transform="translate(364.000000, 601.500000) rotate(-270.000000) translate(-364.000000, -601.500000) "></line>
                <line x1="363.5" y1="218.999806" x2="363.5" y2="944.038792" id="h_060" transform="translate(364.000000, 581.500000) rotate(-270.000000) translate(-364.000000, -581.500000) "></line>
                <line x1="363.5" y1="198.944987" x2="363.5" y2="924.049822" id="h_058" transform="translate(364.000000, 561.500000) rotate(-270.000000) translate(-364.000000, -561.500000) "></line>
                <line x1="363.5" y1="178.990826" x2="363.5" y2="904.038792" id="h_056" transform="translate(364.000000, 541.500000) rotate(-270.000000) translate(-364.000000, -541.500000) "></line>
                <line x1="363.5" y1="158.990973" x2="363.5" y2="884.038792" id="h_054" transform="translate(364.000000, 521.500000) rotate(-270.000000) translate(-364.000000, -521.500000) "></line>
                <line x1="363.5" y1="138.978112" x2="363.5" y2="864.038791" id="h_052" transform="translate(364.000000, 501.500000) rotate(-270.000000) translate(-364.000000, -501.500000) "></line>
                <line x1="363.5" y1="118.969879" x2="363.5" y2="844.03879" id="h_050" transform="translate(364.000000, 481.500000) rotate(-270.000000) translate(-364.000000, -481.500000) "></line>
                <line x1="363.5" y1="98.9857996" x2="363.5" y2="824.013965" id="h_048" transform="translate(364.000000, 461.500000) rotate(-270.000000) translate(-364.000000, -461.500000) "></line>
                <line x1="363.5" y1="78.9915576" x2="363.5" y2="804.001552" id="h_046" transform="translate(364.000000, 441.500000) rotate(-270.000000) translate(-364.000000, -441.500000) "></line>
                <line x1="363.5" y1="58.9794836" x2="363.5" y2="784.020861" id="h_044" transform="translate(364.000000, 421.500000) rotate(-270.000000) translate(-364.000000, -421.500000) "></line>
                <line x1="363.5" y1="38.9958286" x2="363.5" y2="764.10775" id="h_042" transform="translate(364.000000, 401.500000) rotate(-270.000000) translate(-364.000000, -401.500000) "></line>
                <line x1="363.5" y1="18.9919409" x2="363.5" y2="744.107749" id="h_040" transform="translate(364.000000, 381.500000) rotate(-270.000000) translate(-364.000000, -381.500000) "></line>
                <line x1="363.5" y1="-1.04676211" x2="363.5" y2="724.144976" id="h_038" transform="translate(364.000000, 361.500000) rotate(-270.000000) translate(-364.000000, -361.500000) "></line>
                <line x1="363.5" y1="-21.0464584" x2="363.5" y2="704.107744" id="h_036" transform="translate(364.000000, 341.500000) rotate(-270.000000) translate(-364.000000, -341.500000) "></line>
                <line x1="363.5" y1="-41.0275952" x2="363.5" y2="684.038791" id="h_034" transform="translate(364.000000, 321.500000) rotate(-270.000000) translate(-364.000000, -321.500000) "></line>
                <line x1="363.5" y1="-61.0134189" x2="363.5" y2="664.038791" id="h_032" transform="translate(364.000000, 301.500000) rotate(-270.000000) translate(-364.000000, -301.500000) "></line>
                <line x1="363.5" y1="-81.0001683" x2="363.5" y2="644.008448" id="h_030" transform="translate(364.000000, 281.500000) rotate(-270.000000) translate(-364.000000, -281.500000) "></line>
                <line x1="363" y1="-100.508382" x2="363" y2="623.52089" id="h_028" transform="translate(363.500000, 261.500000) rotate(-270.000000) translate(-363.500000, -261.500000) "></line>
                <line x1="363" y1="-120.508501" x2="363" y2="603.504316" id="h_026" transform="translate(363.500000, 241.500000) rotate(-270.000000) translate(-363.500000, -241.500000) "></line>
                <line x1="363" y1="-140.539739" x2="363" y2="583.529176" id="h_024" transform="translate(363.500000, 221.500000) rotate(-270.000000) translate(-363.500000, -221.500000) "></line>
                <line x1="363" y1="-160.67261" x2="363" y2="563.529171" id="h_022" transform="translate(363.500000, 201.500000) rotate(-270.000000) translate(-363.500000, -201.500000) "></line>
                <line x1="364" y1="-160.582823" x2="364" y2="523.504568" id="h_020" transform="translate(364.500000, 181.500000) rotate(-270.000000) translate(-364.500000, -181.500000) "></line>
                <line x1="364.5" y1="-148.024336" x2="364.5" y2="471.001817" id="h_018" transform="translate(365.000000, 161.500000) rotate(-270.000000) translate(-365.000000, -161.500000) "></line>
                <line x1="363.5" y1="-133.062983" x2="363.5" y2="416.06579" id="h_016" transform="translate(364.000000, 141.500000) rotate(-270.000000) translate(-364.000000, -141.500000) "></line>
                <line x1="361" y1="-116.528891" x2="361" y2="359.615788" id="h_014" transform="translate(361.500000, 121.500000) rotate(-270.000000) translate(-361.500000, -121.500000) "></line>
                <line x1="363.5" y1="-104.136999" x2="363.5" y2="307.087857" id="h_012" transform="translate(364.000000, 101.500000) rotate(-270.000000) translate(-364.000000, -101.500000) "></line>
                <line x1="363" y1="-90.0807505" x2="363" y2="252.660873" id="h_010" transform="translate(363.500000, 81.500000) rotate(-270.000000) translate(-363.500000, -81.500000) "></line>
                <line x1="363" y1="-73.5390297" x2="363" y2="196.537492" id="h_008" transform="translate(363.500000, 61.500000) rotate(-270.000000) translate(-363.500000, -61.500000) "></line>
                <line x1="363" y1="-59.7280179" x2="363" y2="142.515452" id="h_006" transform="translate(363.500000, 41.500000) rotate(-270.000000) translate(-363.500000, -41.500000) "></line>
                <line x1="363" y1="-44.9048369" x2="363" y2="87.998477" id="h_004" transform="translate(363.500000, 21.500000) rotate(-270.000000) translate(-363.500000, -21.500000) "></line>
                <line x1="362.5" y1="-29.3141441" x2="362.5" y2="32.0020386" id="h_002" transform="translate(363.000000, 1.500000) rotate(-270.000000) translate(-363.000000, -1.500000) "></line>
            </g>
            <path d="M368.237612,0.25 L428.537612,35.05 L706.337612,195.45 L735.637612,212.35 L735.637612,636.65 L706.337612,653.55 L425.137612,815.95 L368.237612,848.75 L311.337612,815.95 L30.1376121,653.55 L0.837612102,636.65 L0.837612102,212.35 L30.1376121,195.45 L307.937612,35.05 L368.237612,0.25 Z M368.237612,23.3899002 L20.0408527,224.419204 L20.0408527,626.580796 L368.237612,827.6101 L716.434372,626.580796 L716.434372,224.419204 L368.237612,23.3899002 Z" id="hex_outline" fill="#000000"></path>
            <polygon id="Rectangle" fill-opacity="0.667685688" fill="#FFFFFF" points="366 413 716.534422 413 716.534422 518 366 518"></polygon>
            <path d="M378.12,499.396 L378.12,455.26 C378.12,453.676 378.048,452.812 377.904,449.356 L384.744,449.356 L384.888,455.332 C388.272,449.644 394.248,448.78 397.2,448.78 C404.976,448.78 412.392,454.108 412.392,467.5 C412.392,480.964 404.544,486.868 395.904,486.868 C390.648,486.868 386.76,484.636 384.816,481.468 L384.816,499.396 L378.12,499.396 Z M384.6,468.508 C384.6,472.9 385.248,481.9 394.752,481.9 C396.48,481.9 400.08,481.54 402.384,478.372 C404.976,474.844 405.336,469.66 405.336,467.068 C405.336,460.588 403.392,453.82 395.4,453.82 C384.6,453.82 384.6,465.268 384.6,468.508 Z M416.964,467.86 C416.964,458.932 421.14,448.42 435.324,448.42 C449.796,448.42 453.036,459.796 453.036,467.356 C453.036,477.94 447.06,486.724 434.748,486.724 C422.796,486.724 416.964,478.444 416.964,467.86 Z M424.02,467.428 C424.02,474.844 427.188,481.684 434.892,481.684 C440.004,481.684 445.836,478.012 445.836,467.14 C445.836,458.14 441.66,453.388 435.324,453.388 C431.004,453.388 424.02,456.124 424.02,467.428 Z M460.272,441.076 L460.272,433.66 L468.408,433.66 L468.408,441.076 L460.272,441.076 Z M460.992,485.5 L460.992,449.356 L467.76,449.356 L467.76,485.5 L460.992,485.5 Z M478.452001,485.5 L478.452001,453.532 L478.380001,449.356 L485.148001,449.356 L485.220001,455.188 C486.012001,453.676 488.604001,448.636 496.812001,448.636 C500.052001,448.636 509.916001,449.86 509.916001,460.948 L509.916001,485.5 L503.004001,485.5 L503.004001,462.532 C503.004001,460.156 502.716001,457.996 501.060001,456.34 C499.332001,454.684 496.956001,453.892 494.652001,453.892 C489.756001,453.892 485.220001,457.42 485.220001,464.692 L485.220001,485.5 L478.452001,485.5 Z M513.984001,454.18 L513.984001,449.212 L520.392001,449.212 L520.392001,441.652 L527.088001,439.492 L527.088001,449.212 L535.152001,449.212 L535.152001,454.18 L527.088001,454.18 L527.088001,475.852 C527.088001,477.652 527.088001,480.676 531.912001,480.676 C533.280001,480.676 534.576001,480.46 535.152001,480.316 L535.152001,485.572 C533.928001,485.788 531.984001,486.004 529.536001,486.004 C523.344001,486.004 520.392001,484.204 520.392001,478.3 L520.392001,454.18 L513.984001,454.18 Z M547.572001,433.516 L547.572001,454.612 C548.508001,452.956 551.172001,448.42 559.380001,448.42 C562.980001,448.42 567.516001,449.284 570.828001,453.028 C572.628001,455.116 575.076001,458.716 575.076001,466.636 C575.076001,473.62 573.420001,477.436 571.620001,479.812 C568.740001,483.916 563.916001,486.004 558.948001,486.004 C557.220001,486.004 553.980001,485.788 550.884001,483.7 C548.868001,482.332 548.076001,481.108 547.356001,480.028 L547.212001,485.5 L540.660001,485.5 L540.804001,479.02 L540.804001,433.516 L547.572001,433.516 Z M567.948001,467.068 C567.948001,463.468 567.228001,453.028 557.796001,453.028 C547.428001,453.028 547.428001,465.124 547.428001,467.428 C547.428001,469.804 547.428001,481.108 557.508001,481.108 C565.860001,481.108 567.948001,472.972 567.948001,467.068 Z M582.240001,485.5 L582.240001,433.588 L589.008001,433.588 L589.008001,485.5 L582.240001,485.5 Z M627.564001,485.5 L621.444001,485.5 C620.940001,483.7 620.796001,481.972 620.796001,480.1 C617.556001,486.076 612.660001,486.652 609.636001,486.652 C601.356001,486.652 596.892001,481.972 596.892001,475.996 C596.892001,473.116 597.900001,468.508 603.228001,465.412 C607.116001,463.252 612.876001,463.036 615.756001,463.036 C617.484001,463.036 618.564001,463.108 620.652001,463.252 C620.652001,458.788 620.652001,456.844 619.356001,455.26 C617.988001,453.46 615.036001,452.884 613.092001,452.884 C606.252001,452.884 605.892001,457.564 605.820001,459.004 L599.052001,459.004 C599.268001,457.132 599.484001,454.612 601.572001,452.164 C604.308001,449.14 609.420001,448.276 613.236001,448.276 C618.492001,448.276 624.108001,449.932 626.052001,453.604 C627.204001,455.764 627.276001,457.492 627.276001,459.148 L626.988001,476.428 C626.988001,477.004 627.060001,481.828 627.564001,485.5 Z M620.652001,467.932 C619.428001,467.788 618.420001,467.716 616.764001,467.716 C614.028001,467.716 603.732001,467.716 603.732001,475.06 C603.732001,477.364 605.172001,481.324 611.220001,481.324 C614.676001,481.324 617.268001,479.956 618.924001,477.436 C620.436001,474.988 620.508001,472.972 620.652001,467.932 Z M636.960002,485.5 L636.960002,453.532 L636.888002,449.356 L643.656002,449.356 L643.728002,455.188 C644.520002,453.676 647.112002,448.636 655.320002,448.636 C658.560002,448.636 668.424002,449.86 668.424002,460.948 L668.424002,485.5 L661.512002,485.5 L661.512002,462.532 C661.512002,460.156 661.224002,457.996 659.568002,456.34 C657.840002,454.684 655.464002,453.892 653.160002,453.892 C648.264002,453.892 643.728002,457.42 643.728002,464.692 L643.728002,485.5 L636.960002,485.5 Z M677.532002,485.5 L677.532002,433.156 L684.228002,433.156 L684.228002,464.116 L697.764002,449.356 L706.620002,449.356 L691.356002,464.692 L707.556002,485.5 L698.700002,485.5 L684.228002,465.988 L684.228002,485.5 L677.532002,485.5 Z" id="pointblank" fill="#000000"></path>
        </g>
    </g>
</svg>