<?xml version="1.0" encoding="UTF-8"?>
<svg id="Layer_1" xmlns="http://www.w3.org/2000/svg" version="1.1" viewBox="0 0 2520.9 2910.9">
  <!-- Generator: Adobe Illustrator 29.3.1, SVG Export Plug-In . SVG Version: 2.1.0 Build 151)  -->
  <defs>
    <style>
      .st0 {
        fill: none;
      }

      .st1 {
        fill: #3a78b1;
      }

      .st2 {
        fill: #fff;
      }

      .st3 {
        fill: #17212b;
      }

      .st4 {
        fill: #1e3d52;
      }
    </style>
  </defs>
  <polygon class="st3" points="1260.5 0 100.5 669.8 0 727.7 0 2183.2 1260.8 2910.9 2520.9 2183.6 2520.9 727.7 1260.5 0"/>
  <rect class="st0" x="0" y="1122" width="2521" height="1789"/>
  <g>
    <g>
      <g id="rectangle">
        <rect class="st1" x="188.5" y="1267.6" width="375.7" height="375.7" rx="103" ry="103"/>
      </g>
      <g id="particle_path">
        <path class="st2" d="M253.1,1594.2v-161.3c0-56.9,47.3-129.8,128.9-129.8s130.1,63,130.1,127.4c0,110.8-105.3,129.3-105.3,129.3,0,0,6.5-10.4,6.5-26.6s-7.2-25.3-7.2-25.3c0,0,54.2-14.5,54.2-78.6s-47.9-74.9-77.7-74.9c-51.5,0-79.7,43.8-79.7,76.1v164.3c0,23.3-15.8,21.5-15.8,21.5h-17.4s-16.6,0-16.6-22h0Z"/>
      </g>
      <g id="particle">
        <circle class="st2" cx="362.7" cy="1533.7" r="43.4"/>
      </g>
    </g>
    <g id="wordmark">
      <g>
        <path class="st2" d="M622.8,1616.7v-312.5h129.5c106.2,0,132.6,56.2,132.6,107.6s-33.9,106.7-132.6,106.7h-60.3v98.2h-69.2,0ZM692,1368.9v84.8h59.4c43.3,0,61.6-16.1,61.6-42.4s-15.2-42.4-58.9-42.4h-62.1Z"/>
        <path class="st2" d="M1007.1,1379.6c74.1,0,126.3,50.4,126.3,120.5s-52.2,120.1-126.3,120.1-125.4-50.4-125.4-120.1,51.3-120.5,125.4-120.5h0ZM1007.1,1560c35.3,0,59.4-22.3,59.4-59.8s-26.8-60.3-59.4-60.3-58.5,21.9-58.5,60.3,23.7,59.8,58.5,59.8Z"/>
        <path class="st2" d="M1158.5,1451.5c0-44.6,37-71.9,100-71.9s81.7,20.5,96.4,42l-44.2,42.4c-15.2-15.6-36.2-24.1-65.2-24.1s-20.1,2.7-20.1,11.2c0,20.1,131.7,13.8,131.7,96s-45.5,73.2-98.2,73.2-94.6-25.9-111.2-56.2l51.3-34.8c12.5,16.1,38.4,30.8,67,30.8s24.1-4,24.1-12.5c0-22.8-131.7-17-131.7-96h0Z"/>
        <path class="st2" d="M1420.5,1290.8c21,0,36.2,13.8,36.2,32.1s-15.2,33-36.2,33-36.6-13.8-36.6-33,15.2-32.1,36.6-32.1ZM1387.9,1384.5h64.7v232.1h-64.7v-232.1Z"/>
        <path class="st2" d="M1479,1384.5h44.2v-54h64.7v54h71v60.3h-71v75.4c0,28.1,6.3,38.8,23.7,38.8s27.2-5.4,39.7-15.2l26.8,46c-16.1,17-41.1,29.5-72.8,29.5-48.7,0-82.1-26.3-82.1-79.9v-94.6h-44.2v-60.3h0Z"/>
        <path class="st2" d="M1695.9,1384.5h64.7v9.4c4.9-6.7,20.5-13.8,35.7-13.8,24.5,0,35.3,7.1,45.5,20.1l-33,51.8c-3.1-5.8-12.5-9.4-21-9.4s-21.9,4.5-27.2,24.1v150h-64.7v-232.1h0Z"/>
        <path class="st2" d="M1957.5,1379.6c74.1,0,126.3,50.4,126.3,120.5s-52.2,120.1-126.3,120.1-125.4-50.4-125.4-120.1,51.3-120.5,125.4-120.5ZM1957.5,1560c35.3,0,59.4-22.3,59.4-59.8s-26.8-60.3-59.4-60.3-58.5,21.9-58.5,60.3,23.7,59.8,58.5,59.8Z"/>
        <path class="st2" d="M2112.9,1384.5h64.7v16.5c10.3-12.5,32.1-21,63.4-21,59.4,0,91.5,31.7,91.5,106.2v130.3h-64.7v-126.3c0-37.5-14.7-50-45.5-50s-36.6,11.2-44.6,30.8v145.5h-64.7v-232.1h0Z"/>
      </g>
    </g>
  </g>
  <g>
    <path class="st0" d="M24.9,1625.5c5.1.1,9.4,4.5,9.4,9.4,0,5.3-4.6,9.7-9.9,9.6-5-.1-9.4-4.5-9.4-9.4,0-5.2,4.7-9.7,9.9-9.6ZM24.7,1683.6c7,0,13.5,6.5,13.3,13.3-.2,6.9-6.8,13-13.9,12.6-6.5-.3-12.5-6.3-12.6-12.6-.2-6.8,6.4-13.3,13.2-13.3ZM24.7,1740.2c8.7,0,17,8.1,17.6,17.1.6,9.9-6.8,18-16.9,18.4-9.9.5-17.8-7.1-18-17.3-.2-9.7,7.9-18.2,17.4-18.2ZM24.8,2141.4c-8.6-.1-15-6.7-15-15.2,0-8.5,6.6-15.3,14.9-15.4,8.7,0,15.5,6.8,15.5,15.8,0,8.2-7,15-15.4,14.9ZM23.7,1952.5c-4.9-.5-9.1-5.2-8.8-10,.3-5.6,5.4-9.9,10.8-9.3,5.2.6,9.3,5.5,8.7,10.7-.5,5.2-5.5,9.1-10.8,8.7ZM33.3,2004.1c.2,5-3.7,9.4-8.2,9.5-4.8,0-8.8-3.9-9-8.8-.1-4.6,3.6-8.6,8.2-8.7,4.8,0,8.7,3.5,8.9,8ZM25.6,2051.5c7.3.2,12.7,5.9,12.7,13.3,0,6.9-6.1,13.1-13,13.2-7.3,0-13.9-6.3-13.8-13.4,0-7.1,6.7-13.2,14.2-13ZM24.1,1895.7c-7.5,0-13.8-6.5-13.9-14.2-.1-8.2,6.3-14.3,15.1-14.2,8.2.1,13.7,5.8,13.7,14,0,8.6-6,14.4-14.8,14.4ZM24.2,1838.1c-9.3-.2-18.1-9-18-18.2.1-9.8,9.3-18.7,19.1-18.6,8.9.1,17.8,9.1,18,18.4.2,9.6-9.1,18.6-19,18.4ZM85.6,1925.1c9.9,0,18.7,8.9,18.7,18.9,0,9.4-8.7,18.1-18.2,18-10.6,0-18.6-8.3-18.4-18.9.2-10,8.2-18,17.9-18ZM84.8,2084.3c-9.4-.3-16.9-8.1-16.8-17.5.1-10,8-17.6,18.1-17.5,9.7,0,17.9,8.6,17.6,18.1-.4,9.6-9,17.3-18.9,16.9ZM86,2025.5c-12.3-.1-21.6-8.8-21.6-20.3,0-10.9,10.3-21.1,21.5-21,11.8,0,21.5,9.5,21.3,20.9-.2,12.1-9,20.6-21.2,20.4ZM147.5,1863.5c8.8,0,18.3,9,18.7,17.8.5,9.5-7.5,18-17.3,18.4-11.3.4-19.5-6.7-19.7-17-.2-9.9,8.6-19.1,18.3-19.2ZM147.2,2049c10.3-.1,19,8.5,18.7,18.6-.3,8.6-9,16.9-17.9,16.9-9.7,0-18.3-8-18.6-17.5-.3-9.4,8.1-17.8,17.8-18ZM147.5,1998.2c3.8,0,7,3,6.8,6.8-.2,4.2-2.6,6.9-6.7,6.9-4.3,0-6.4-3-6.9-6.9-.4-3.5,3.2-6.8,6.8-6.9ZM147.9,2202.5c-7.9.1-13.3-4.9-13.6-12.5-.3-7.1,5.6-13.2,12.9-13.3,7.2-.2,13.2,5.5,13.6,12.8.4,7.2-5.3,13-12.9,13.1ZM148.3,2147.1c-11,.1-20-8.5-20-19,0-9.8,9-19,18.8-19.2,10.5-.2,19.9,8.9,20,19.2,0,10-8.7,18.9-18.7,19ZM332.5,1985.3c11.1-.2,19.7,7.9,19.9,18.7.3,10.6-8.1,19.5-18.8,20.1-10.6.5-19.5-8-19.8-18.9-.3-10.8,8.1-19.7,18.7-19.9ZM271.7,1997.7c3.9,0,7.2,3.2,6.9,8.8-1.7,1.1-4.2,3.7-7.2,4.6-3.4,1-6.9-3-6.8-6.7,0-3.6,3.4-6.7,7.2-6.6ZM272.2,2047.3c9.4.5,17.4,9.3,17.2,18.9-.2,10.4-8.8,18.4-19.2,17.9-9.5-.5-17.8-9.3-17.6-18.7.3-9.8,9.8-18.6,19.6-18.2ZM285.6,2126.9c0,8.7-6.3,15-14.5,14.7-8.4-.2-14.7-6.8-14.3-14.9.4-7.8,6.6-13.6,14.5-13.4,8.2.2,14.3,6,14.3,13.6ZM209.9,1806.1c8.2.1,13.7,5.8,13.7,14,0,8.6-6,14.4-14.8,14.4-7.5,0-13.8-6.5-13.9-14.2-.1-8.2,6.3-14.3,15.1-14.2ZM191.4,1880.9c.6-10.3,10-18.4,20-17.3,9.7,1,17.1,10.2,16.1,19.8-1,9.6-10.1,16.9-19.9,16-9.1-.8-16.8-9.6-16.2-18.5ZM208.6,1924.2c10.5-.2,19.3,7.7,19.8,17.8.5,11-8.1,20.9-18.1,20.9-10.7,0-19.5-8.6-19.8-19.5-.3-10.2,8.1-19.1,18.2-19.2ZM210,2268.7c-10.1.2-19.1-8.5-19-18.4.1-9.1,9.3-18.4,18-18.2,10.2.2,18.9,8.8,18.9,18.6,0,9.5-8.3,17.8-17.9,18ZM192.2,2127.1c0-9.3,7.6-16.8,17.3-16.7,9.9,0,17.1,7.1,17.4,16.8.3,9.9-7.8,18.2-17.5,18-10.5-.1-17-7.1-17.1-18.2ZM209.1,2088.4c-10.3-.2-21.9-8.3-21.2-22.2,0-12.8,8.9-21.8,21.3-21.8,12.5,0,22.9,10.4,22.6,22.5-.3,11.3-10.9,21.7-22.7,21.5ZM271.7,2329.1c-9.5,0-17.3-7.9-17.1-17.2.2-9.1,8.6-16.9,17.8-16.5,8.6.3,16.2,8.5,16,17.2-.2,8.5-8.3,16.5-16.7,16.5ZM258.2,2251c-.4-6.8,5.9-13.4,13-13.7,6.1-.2,12.6,5.8,13.1,12.2.6,7.1-5.1,13.5-12.3,14-7,.5-13.4-5.4-13.8-12.6ZM271.5,2208.2c-10.5.3-19.7-8.8-19.6-19.2,0-10.8,8.6-19,19.6-18.9,10.5,0,19.2,9.1,19.1,19.6-.1,9.7-8.9,18.3-19.1,18.5ZM332.5,2331.6c-10.8-.2-18.7-8.7-18.7-19.9,0-10.4,9.3-19.4,19.6-19,10.4.5,19.3,9.8,19.1,20-.2,10.3-9.5,19.1-20,18.9ZM332.8,2174c9.3,0,16.9,7.2,16.5,15.8-.4,8.1-7.7,14.9-16.2,15.1-8.7.1-16.1-6.5-16.4-14.6-.3-8.9,6.9-16.2,16-16.3ZM321.1,2127.2c.2-6.4,5.4-11.6,11.6-11.7,6.4,0,12.7,6.1,12.7,12.3,0,6.3-6.4,12.4-12.7,12.2-7-.2-11.9-5.6-11.6-12.8ZM332.2,2086.1c-11-.4-20.4-10.3-19.9-20.9.6-10.4,10-19,20.6-18.9,11.4.1,20.4,9.2,20.2,20.4-.2,11.3-9.4,19.9-20.9,19.5ZM950.6,2170c11.2-.2,19.6,7.9,19.6,19,0,10.3-8.1,18.2-18.9,18.4-10.6.2-19.6-7.8-19.7-17.6,0-11,8.3-19.6,19-19.8ZM890.3,1925.1c9,.2,17.9,9.7,17.5,18.6-.4,10.5-8.7,18.2-19.3,17.8-10.6-.4-17.2-7.5-17.1-18.2.1-10.4,8.4-18.4,18.9-18.2ZM889.5,2049.4c9.4,0,17,7.5,17.2,17,.2,10-7.6,17.8-17.7,17.8-9.4,0-17-7.4-17.3-16.9-.3-9.9,7.6-17.9,17.7-17.9ZM874.6,2005c0-7,6.7-13.9,14-14.3,8-.5,14.8,5.9,15.1,14.2.3,8.6-5.7,14.8-14.3,14.8-8.1,0-14.8-6.6-14.8-14.7ZM888.4,2109.7c10.4-.4,19,7.7,19,17.9,0,11.1-7.2,18.2-18.4,18.1-11,0-17.3-6.5-17.5-17.5-.2-10.4,7-18.2,16.9-18.6ZM827.5,1930.1c6.6,0,13.1,7,12.8,13.6-.4,7.2-6.6,12.9-13.7,12.4-6.2-.4-12.6-6.9-12.5-12.7.1-6.4,7.2-13.4,13.5-13.3ZM766,2356.2c10.4,0,17.8,7.5,17.8,17.8,0,10.4-7.1,17.9-17.4,18.4-10.1.5-19.3-8-19.5-18-.2-10,8.5-18.3,19.1-18.3ZM704.1,2108.1c10.9.2,19.5,8.8,19.5,19.5,0,11-9.4,19.6-21.1,19.2-10-.3-18-9-17.9-19.4,0-10.9,8.7-19.4,19.5-19.2ZM704,2329.8c-9.8,0-18.2-8.3-18-17.7.2-9.8,8.2-17.5,18.2-17.3,9.3.1,17.2,7.9,17.2,16.9,0,10.1-7.7,18.1-17.4,18.1ZM716.8,2374.2c0,7.4-5.7,12.6-13.5,12.3-6.6-.3-12.6-6-12.7-12.3-.2-7,6-13.1,13.2-13,7.5,0,13,5.5,13.1,13ZM703.6,2268.3c-10.1-.3-18.1-8.3-17.9-17.9.2-9.3,9.2-17.9,18.5-17.7,10.3.3,17.7,8,17.5,18.1-.2,10.2-7.9,17.7-18.1,17.4ZM687.1,2188.6c.3-9.3,8.4-16.8,17.7-16.3,9.3.6,16.7,8.7,16.2,17.9-.5,8.6-8.6,16-17.1,15.7-9.5-.4-17.1-8.2-16.8-17.3ZM704,2415.3c10.9.2,20.1,9.5,20.2,20.3,0,10.9-9.1,19.8-20.5,19.8-11.1,0-20.4-9.2-20.3-20.1.1-10.7,9.9-20.2,20.6-20ZM580.5,2109.8c9.4,0,17.9,8.5,18,17.9.1,10.7-7.6,18.2-18.5,18.1-10.7-.1-17.8-7-17.9-17.4-.2-10.6,7.9-18.7,18.4-18.6ZM457,2047.1c9.7.3,19.1,9.8,19,19.1,0,10.4-9.6,19.7-19.8,19.4-9.8-.2-18.9-9.5-18.7-19,.2-10.9,9.2-19.9,19.5-19.6ZM474.1,2128c0,10.9-6.4,17.6-17.2,17.6-10.4,0-18-7.2-18.1-17.3,0-9.9,7.7-17.8,17.6-18,9.8-.2,17.6,7.6,17.7,17.7ZM456.9,2231.6c9.3,0,18.9,9.6,19.1,19.1.2,10.2-9.4,19.7-19.7,19.6-9.8,0-18.7-9-18.9-18.9-.2-10,9.4-19.7,19.6-19.8ZM473.9,2312.3c.2,9.9-6.7,17.2-16.4,17.6-10.2.4-18.2-7.1-18.4-17.2-.2-9.7,7.9-17.6,18-17.6,9.7,0,16.6,7.1,16.8,17.2ZM395,1863.4c10.1.1,19.8,9.9,19.4,19.7-.4,10.1-10.2,19.1-20.4,18.7-10.8-.5-18.8-9.3-18.3-20.3.4-9.9,9.3-18.3,19.3-18.1ZM395.2,2085.2c-9.8.3-17.9-7.7-18-17.7-.2-10.2,7.3-18,17.4-18.2,10.1-.2,17.8,7.3,18,17.6.2,10-7.5,18.1-17.4,18.4ZM407.1,2128.8c-.2,7-5.7,12.1-12.8,11.9-7.1-.3-12.2-5.9-11.7-12.8.4-6.4,7-12.1,13.4-11.6,5.8.5,11.3,6.7,11.1,12.5ZM377.1,1944c0-10.2,7.7-17.9,17.8-17.8,9.8,0,17.7,8.3,17.6,18.2-.2,10.1-7.8,17.8-18,18-9.5.2-17.3-8-17.4-18.4ZM395.4,2170.5c9.9.3,19.5,10.4,19.2,20.2-.2,10.4-9.3,18.8-20.2,18.7-10.8-.1-19.4-9-19-19.7.4-10.6,9.7-19.6,19.9-19.2ZM393.7,2393.4c-10.3-.2-18-8.4-18-18.9,0-10.9,8.4-18.7,19.8-18.5,10,.2,18.9,8.8,18.9,18.4,0,11.1-8.9,19.3-20.7,19ZM394.6,2273.4c-12.6-.3-21.9-9.5-21.8-21.5,0-11.9,9.9-21.8,21.8-21.9,12.6-.1,22.6,9.9,22.3,22.5-.2,12.1-9.9,21.3-22.3,21ZM456.6,2393.9c-12,0-20.1-8.1-20-19.8,0-11.3,9-20.3,20-20.3,11,0,20,9.1,20.1,20.2.2,11.2-8.7,19.9-20.1,19.8ZM518.3,2442c-4.4-.3-6.4-3.1-6.7-7.1-.3-3.6,3.3-7.1,6.9-6.9,4.3.3,6.3,3,6.5,6.5,0,4.7-3,7.8-6.7,7.5ZM580.1,2391c-9,.2-15.9-6.7-16.2-16.1-.3-9.9,6.5-17.6,16-17.7,9.3-.1,17.3,7.6,17.4,16.8,0,9.5-7.4,16.8-17.1,17ZM579.9,2330.8c-10.3.1-17.8-8.1-17.7-19.1.1-9.6,8.5-18.1,17.8-18.1,9.1,0,18.8,9.7,18.7,18.9,0,10.2-8.3,18.2-18.8,18.3ZM602.2,2252c-.4,11.9-10.5,21-22.8,20.7-11.9-.3-21.8-10.5-21.5-22.1.3-12,10.2-21.6,22.2-21.6,12.2,0,22.4,10.7,22.1,23ZM642.2,2514c-9.8,0-18.1-8.2-17.9-17.8.1-9.1,8.2-16.8,17.7-16.9,8.9,0,17.6,8,18,16.8.5,9.5-7.8,17.9-17.7,17.9ZM642.9,2454.4c-11.3.3-19.5-7.5-19.8-18.7-.3-11.2,7.7-19.7,18.7-19.9,10.8-.2,19.2,8.3,19.2,19.4,0,10.5-7.9,19-18,19.2ZM703.9,2580.5c-11.5,0-22.5-10.5-22.5-21.7,0-11.6,10.2-22.2,21.7-22.5,12.3-.3,22.3,8.9,22.8,20.9.5,12.5-9.5,23.2-21.9,23.2ZM785.3,2559.4c-.4,10-9.2,18.3-19.4,18.3-10.9,0-19.5-8.5-19.4-19.3,0-11,8.5-19.2,19.7-19.1,10.2,0,19.6,9.9,19.2,20ZM747.7,2496.8c.5-9.7,9-17.1,19-16.7,9.3.4,16.5,8.3,16.4,17.9-.1,9.8-7,16.3-17.5,16.3-10.3,0-18.4-8-17.9-17.5ZM766,2456.2c-11.1.2-19.9-8.6-20.2-20.1-.2-11.4,8.1-20,19.7-20.3,11.1-.3,20.3,8.7,20.3,19.8,0,11.1-9,20.5-19.8,20.7ZM826.9,2636.8c-8.9,0-16.7-8.7-16.2-18,.5-8.7,8.4-16,17.2-15.7,8.8.3,16.5,8,16.5,16.6,0,9-8.3,17.1-17.4,17.1ZM828.6,2575.7c-9.9.6-18.2-7-18.3-16.9-.1-10.6,6.8-17.8,17.3-17.9,9.4,0,17,7.4,17.3,16.9.3,9.7-6.6,17.3-16.2,17.9ZM813.8,2496.9c-.3-6.6,6.2-13,13.3-13.1,7.3,0,13.5,5.6,13.8,12.7.3,6.6-6.2,12.9-13.3,13.1-7,.2-13.5-5.8-13.8-12.7ZM827.2,2452.9c-10.1-.1-17.9-7.6-18.3-17.3-.3-9.7,8.8-18.9,18.5-18.8,9.6,0,17.8,8.2,17.9,17.9.2,10.8-7.4,18.4-18.2,18.3ZM809.3,2374.3c-.4-9.8,7.4-17.9,17.5-18.2,10.6-.3,18.1,6.7,18.3,17,.2,10.3-7.2,18.3-17.1,18.4-10,.1-18.3-7.5-18.7-17.2ZM827.5,2270c-9.4.3-18.9-9-19.4-18.5-.5-10.5,8.1-19.8,18.6-20.1,9.9-.3,20,9.1,20.2,18.9-.5,9.6-7.5,19.3-19.4,19.7ZM808.8,2126.5c.7-9.2,9.9-17.2,19.4-16.9,9.5.3,17.6,9.1,17.3,18.8-.3,10.2-8.1,17.4-18.5,17.3-10.2-.1-18.9-9.3-18.2-19.2ZM826.7,2024.4c-10.7-.3-19-9.2-18.8-19.9.2-10.7,8.9-19.1,19.6-19,10.9,0,19.7,8.7,19.5,19.2-.2,11.1-9.5,20.1-20.4,19.8ZM887.9,2633.2c-7-.6-12-7.1-11.4-14.7.6-7.8,6.1-12.2,14.2-11.4,7.1.7,12.2,6.3,12,12.9-.2,7.3-7.5,13.8-14.8,13.2ZM889,2577.8c-10.9-.2-19.4-9-19.3-19.8.2-10.9,8.6-19.2,19.7-19.3,10.5-.1,19.2,9,19.2,19.8,0,10.6-9,19.5-19.7,19.3ZM871.6,2496.2c.2-10.3,7.9-17.5,18.2-17.2,10.2.3,17.6,8.2,17.2,18.4-.4,10.5-7.6,17.2-18.4,16.9-10.7-.2-17.2-7.2-17-18.1ZM888.9,2393.2c-11-.2-19.1-8.5-19.1-19.5,0-10.7,8.7-19.5,19.3-19.5,11.2,0,19.8,9.1,19.6,20.5-.3,11.1-8.4,18.7-19.8,18.5ZM871.4,2312.6c0-10.4,8.6-19.6,18.1-19.2,9.3.3,18.3,9.3,18.2,18.2-.1,10.6-8.5,19.2-18.4,18.9-10-.2-17.8-8-17.9-17.9ZM887.2,2210.4c-9.8-.6-18.6-10.9-18.2-21.3.4-11.6,9.3-19.8,20.9-19.4,11.9.4,19.6,8.7,19.3,20.7-.4,11.6-10.3,20.7-22,20ZM950,2699.8c-10.1-.7-17.3-8.6-17-18.7.3-11.1,7.7-17.4,19.2-17.6,9.1-.2,17.6,9.1,17.4,18.5-.4,10-9.8,18.5-19.6,17.8ZM951,2640.4c-10.8-.2-20.3-9.8-20.3-20.6,0-10.8,9.6-20,20.8-19.8,11.2.2,19.8,9.5,19.3,20.9-.4,10.3-9.9,19.7-19.8,19.5ZM951.3,2483.7c7.5.1,13.2,5.9,12.8,13.2-.3,7.3-6.5,13.3-13.3,13-7.3-.3-12.9-6.2-12.7-13.5.2-7.7,5.6-12.9,13.2-12.7ZM938.7,2434.4c.5-6.3,7.2-12.1,13.5-11.6,6.6.5,11.6,6.8,10.9,13.6-.8,7.3-6.4,11.7-13.5,10.7-6.2-.9-11.3-6.8-10.8-12.7ZM963.1,2558.1c.2,7.2-4.9,12.3-12.1,12.3-6.7,0-12.6-5.9-12.4-12.4.2-5.7,6-11.6,11.9-11.9,7-.3,12.5,4.8,12.6,11.9ZM951.4,2393.3c-11.9,0-20.7-8.4-20.8-19.6,0-10.9,9.4-20.4,20.4-20.3,10.7,0,19.5,8.7,19.8,19.3.3,11.8-8,20.6-19.4,20.6ZM931.3,2311.5c.5-10.7,9.6-19.3,20.1-19,10.8.2,18.9,8.9,18.8,20-.2,11.1-8.6,19.2-19.6,19.1-10.1-.1-19.8-10.2-19.3-20ZM950.8,2270.5c-11.2-.3-20.5-9.7-20.2-20.4.4-11.2,9.5-19.5,21.1-19.3,11.2.2,19.3,8.5,19.2,19.5,0,11.5-9,20.4-20.1,20.2ZM1012.9,2048.5c9.3,0,17.9,8.3,18.2,17.8.3,9.9-8.3,18.6-18.5,18.8-9.6.2-17.8-8-18.1-17.7-.2-10.2,8.2-18.8,18.3-18.9ZM1012.7,2141c-7.9,0-13-4.9-13-12.7,0-7.8,5-12.8,12.9-12.8,7.3,0,13.3,5.8,13.3,12.8,0,7.5-5.3,12.6-13.2,12.7ZM1023.5,2190c0,5-5,9.7-10.3,10-6.3.3-11-4.1-11-10.1,0-5.5,4.3-9.9,10-10.1,5.7-.3,11.4,4.9,11.3,10.3ZM1012.6,2760.9c-9.1.2-17.4-7.7-17.6-16.9-.2-9.6,8.3-18.5,17.7-18.3,9.2.1,17.3,7.9,17.6,17.1.4,9.8-7.6,17.9-17.7,18.1ZM1013.2,2702.3c-10.9.1-20.4-9.2-20.5-20.1,0-11,9-20.3,19.9-20.4,11.1,0,20.3,8.8,20.7,19.8.3,10.2-9.8,20.6-20.1,20.7ZM1012.2,2416.2c10.7-.2,19.8,8.5,19.9,19.1,0,10.2-8,18.5-18.6,19-10.7.5-19.4-7.8-19.7-19-.3-10,8.4-19,18.4-19.2ZM998.4,2312.9c-.2-7.7,7.2-15,14.8-14.8,7.6.2,13.6,6.6,13.6,14.4,0,8.6-6,14.5-14.7,14.4-7.6,0-13.6-6.1-13.8-14ZM1012,2514.3c-10.5-.2-17.6-7.7-17.2-18.1.3-9.8,8.7-17.4,18.7-17,10,.4,17.6,8.4,17.4,18.5-.1,9.6-8.4,16.8-18.9,16.6ZM1030.7,2559.1c-.4,9.3-9.7,18.3-18.5,17.9-9.2-.4-17.6-9.5-17.4-18.8.2-9.9,8.2-17.4,18.5-17.2,10,.1,17.9,8.3,17.4,18.2ZM1012.8,2601.7c10.7.2,19.1,8.1,19.2,18.1.2,10.4-9,19.6-19.4,19.5-10.8,0-18.8-8.4-18.9-19.8,0-10.3,8.1-18,19.1-17.8ZM1013.3,2272c-11.3,0-20.5-8.6-20.9-19.7-.4-12.2,8.1-21.2,20.2-21.4,11.4-.1,21.6,9.7,21.3,20.7-.2,10.5-10.1,20.3-20.6,20.4ZM1363,2003.4c.7-11.5,9.7-19.6,21.3-19.3,11.1.3,20.9,10.6,20.7,21.8-.2,11.7-9.8,20.5-21.8,19.8-13.5-.7-21.1-9-20.2-22.3ZM1383.1,2331.9c-10.4-.2-18.5-8.3-18.7-18.7-.3-10.3,8.9-19.7,19.2-19.8,9.9,0,19.7,9.8,19.5,19.8-.2,11-8.7,19-19.9,18.8ZM1397.1,2374.8c-.3,7.2-6.3,12.5-14,12.5-6.8,0-12.2-5.5-12.3-12.5-.2-7.7,5.4-13.3,12.9-13.1,7.2.2,13.7,6.6,13.4,13.2ZM1382,2236.4c8.2-.6,16.2,6.5,16.5,14.5.3,7.9-6.1,14.9-14.1,15.4-8,.5-15.4-5.9-15.8-13.7-.4-7.9,6.1-15.7,13.4-16.2ZM1370.5,2190.2c0-7.5,5.7-13.4,12.9-13.4,7,0,13.6,6.2,13.8,13,.2,6.3-7.1,13.7-13.3,13.6-7,0-13.4-6.4-13.4-13.2ZM1384.4,2147.3c-11.5.2-19.8-7.4-20.2-18.4-.4-10.2,8.7-19.4,19.3-19.6,9.9-.2,19,8.2,19.5,18.1.6,10.8-7.9,19.8-18.7,20ZM1366.1,2065.7c.6-8.8,9.4-16.6,18.2-16.1,9.6.5,16.5,8,16.3,17.7-.2,10-8.5,17.6-18.4,16.7-9-.8-16.7-9.5-16.1-18.3ZM1322.4,1924.6c9.7.2,18.6,9.5,18.5,19.3,0,10.4-9.6,19.7-19.8,19.4-9.7-.3-18.4-9.4-18.5-19.3-.1-9.9,9.7-19.6,19.8-19.4ZM1321.6,2022.7c-9.6,0-17.2-7.4-17.4-16.8-.2-9.9,7.8-17.9,17.7-17.8,9.7,0,17.1,7.3,17.2,16.8,0,10.5-7,17.8-17.5,17.8ZM1334.5,2127.9c.1,8.1-4.7,13-12.8,13-7.8,0-12.9-5.3-12.7-13.2.1-7.2,5.1-12.2,12.3-12.4,7.9-.2,13.1,4.8,13.2,12.7ZM1322.1,2170.2c10.9.3,19.3,8.9,19.1,19.8-.2,10.8-9,19.5-19.7,19.3-10.5-.2-19.2-9.2-19.1-19.8,0-10.5,9.3-19.4,19.7-19.2ZM1322.9,2294.8c10.2.5,17,8,16.8,18.5-.2,10.2-8.9,18.3-19.1,17.8-9.2-.4-17.8-9.8-17.2-18.8.7-10.6,9-18,19.5-17.6ZM1308.9,2251.8c-.2-7.6,5.4-13.3,13.1-13.2,7.4,0,12.3,5,12.5,12.3.2,7.3-6,13.8-12.9,13.7-6.2-.2-12.5-6.5-12.7-12.8ZM1259.8,1863.1c10.3,0,19.7,9.2,19.8,19.3.2,10.1-9.1,19.6-19.4,19.8-10.5.2-19.4-8.7-19.5-19.4,0-10.7,8.6-19.8,19-19.8ZM1259.7,1924.1c11.1-.2,20.5,8.9,20.6,19.9,0,11.3-8.9,20.1-20.3,20-11,0-19.3-8.2-19.7-19.2-.4-11.7,7.9-20.5,19.5-20.7ZM1259.9,2025.1c-11.1,0-19.1-8.2-19.1-19.6,0-10.6,9.3-20,19.4-19.6,10,.3,19.4,10.1,19.5,20.2,0,10.6-8.9,19.2-19.9,19.1ZM1277.5,2067.6c0,8.9-8.1,17.2-17.1,17.5-9.6.3-17.7-7.8-17.7-17.8,0-9.1,7.9-17.3,16.9-17.4,9.5-.2,18,8.2,18,17.8ZM1198.2,1803.3c9.4,0,17.3,7.8,17.2,17.1,0,8.7-8.9,17.3-17.6,17.1-8.3-.2-16.1-8.2-16.3-16.8-.2-9.7,7.1-17.3,16.6-17.3ZM1198.1,1924.5c10.2.2,18.6,8.7,18.4,18.8-.2,10.3-7.6,17.6-17.9,17.7-10.6,0-19-8.4-18.5-18.5.5-10,8.7-18.2,18-18ZM1197.3,2049.1c10.2-.2,18.5,7.3,18.7,16.9.2,9.4-8.5,18.1-17.9,17.9-9.5-.2-16.7-7.5-16.9-17.3-.3-10.3,6.2-17.4,16.1-17.5ZM1183.8,2004.1c.3-7.7,6.7-13.8,14.4-13.8,7.7,0,14.3,6.1,14.6,13.7.3,7.7-7,15.5-14.5,15.4-7.8-.1-14.9-7.5-14.6-15.2ZM1198.4,2108.5c10.4.2,19.1,8.6,19.2,18.5.1,10.9-8.7,19.6-19.5,19.2-11.6-.4-19.8-8.8-19.3-19.5.5-10.1,9.5-18.4,19.5-18.3ZM1136.8,1923.8c10,.2,19.2,9.1,19.1,18.5,0,10.5-9.1,19.2-19.8,19.3-10.8,0-19.2-8.9-18.7-19.8.5-10.1,9.2-18.2,19.4-18ZM1137.3,1984.2c10.7.4,19.2,9.2,19.3,19.7,0,10.9-9.5,20.7-19.9,20.5-11.9-.3-20.8-9.5-20.6-21.2.2-10.7,10-19.5,21.2-19ZM1156.1,2065.6c.1,11-9.1,19.7-20.6,19.6-10.3-.1-18.3-8.4-18.3-18.9,0-10.8,8.5-19.6,19-19.8,10.3-.1,19.8,9,19.9,19.1ZM1136.3,2106.8c10.4-.1,20.1,9.6,20.5,20.4.3,10.5-9.3,20.1-20.3,20.1-10.6,0-19.8-8.4-20.4-18.7-.6-10.8,9.4-21.6,20.3-21.8ZM1136.1,2393.5c-11.4-.1-20.3-8.9-20-19.9.2-10.7,10.1-20.2,20.6-19.9,11.1.4,20.3,9.8,20,20.4-.3,11.5-8.8,19.5-20.6,19.4ZM1154.8,2436.1c-.4,9.6-8.8,17.2-18.9,17-10.2-.2-18.1-8-18-17.8,0-9.4,8.6-17.7,18.3-17.7,10.4,0,19,8.5,18.6,18.6ZM1136.2,2236.9c6.5,0,13.5,6.7,13.6,13.2.1,6.9-6,13.3-13,13.6-6.8.2-13.6-6.2-13.7-12.9,0-6.3,7.1-13.9,13.1-13.9ZM1124.8,2189.5c-.1-7.2,5-12.7,11.7-12.6,6.2.1,12.5,6.4,12.5,12.6,0,5.6-5.7,11.3-11.9,11.6-7.4.4-12.3-4.1-12.4-11.6ZM1137.3,2324.6c-6.6.4-12.4-5.1-12.6-12-.2-6.8,4.1-11.8,10.7-12.3,6.6-.5,13.4,4.9,13.8,10.9.4,5.8-5.9,12.9-11.9,13.3ZM1074.7,1924.6c9.3,0,17.8,8.7,17.7,18.3-.1,9.8-7.3,17.4-16.7,17.8-10,.4-18.8-7.3-19.2-16.8-.4-10,8.3-19.2,18.2-19.3ZM1075.6,1985.4c10.2.5,18.3,9.3,18.1,19.6-.3,11.2-8.7,18.9-20.2,18.3-10.9-.5-17.9-8-17.8-19.2,0-11.1,8.8-19.2,19.9-18.6ZM1074.7,2045.8c10.6-.1,20.3,9.5,20.4,20.3,0,10.7-9.4,20.1-20.4,20.1-11.6,0-20.2-8.5-20.2-20,0-11.1,9.1-20.2,20.1-20.4ZM1091.8,2127.6c.3,10.2-6.5,17.6-16.2,17.6-10.3,0-18.7-7.6-18.8-17.2-.2-9.7,8.1-17.6,18.3-17.6,9.9,0,16.5,6.8,16.8,17.2ZM1074.3,2755c-7.2-.2-12.8-5.3-12.9-11.9-.1-6.6,6.6-13.2,13.5-13.3,6.9,0,13.2,6.7,12.8,13.8-.4,6.9-5.9,11.6-13.4,11.4ZM1074.1,2700.4c-10.1-.3-19.3-9.1-19.2-18.5,0-11.4,9.1-20.4,20.2-20.2,10.9.2,19,8.8,18.9,19.8-.2,10.9-8.7,19.1-19.8,18.8ZM1074.3,2639.5c-11.2-.2-20.1-9.3-19.9-20.5.2-10.3,9.4-19.2,19.9-19.4,10.5-.2,20.7,9.6,20.8,20.1,0,10.5-9.9,20-20.8,19.8ZM1074.2,2391.3c-9.9-.2-18-8.5-17.7-18.1.3-10.4,7.7-17.3,18.3-17.3,10.1,0,17.9,8,17.6,18-.3,10.3-7.9,17.6-18.2,17.4ZM1081.1,2496.4c.1,4.2-2.6,7.2-6.6,6.9-4.1-.3-7.1-2.4-7.1-6.7,0-4.2,2.9-6.6,6.9-7.1,3.7-.5,6.6,2.7,6.7,6.9ZM1074.3,2540.2c10.4-.3,17.9,6.7,18.3,17,.4,10.3-7.6,19.1-17.8,19.4-9,.3-18.1-8.3-18.5-17.6-.5-10.7,7-18.5,18-18.8ZM1075.2,2331.3c-10.3.3-19.6-8.5-20-19.1-.4-10.1,8.8-19.3,19.3-19.3,10.7,0,19.4,8.7,19.2,19.4-.2,10.2-8.6,18.7-18.5,19ZM1075.5,2209.5c-12.2.3-21.4-8.5-21.3-20.1.1-11.7,8.3-19.8,20-20,11.6-.2,20.5,8,20.9,19.3.4,10.7-8.9,20.5-19.6,20.8ZM1136.3,2702.8c-11.3-.1-20.7-9.7-20.8-21.3-.1-11.8,8.9-20.6,21-20.5,12.3,0,20.7,8.5,20.7,20.7,0,11.3-9.8,21.2-20.9,21.1ZM1124.8,2558.2c0-6.7,4.7-11.6,11.3-11.8,6.5-.2,12.8,5.7,13,12,.1,6.1-6.3,12.4-12.6,12.5-7,0-11.8-5.2-11.7-12.7ZM1137.1,2518.9c-12.6.4-21.8-8.3-22.2-20.9-.4-12.9,9.1-23.3,21.3-23.4,12.1,0,21.3,9.3,21.6,21.9.2,13.1-8,22-20.7,22.3ZM1197.7,2824.3c-11.4-.2-20.6-9.3-20.2-20,.4-10.5,10.4-19.8,21-19.8,11,0,20.1,9.5,19.8,20.4-.4,11.6-8.8,19.5-20.6,19.3ZM1197.8,2723.6c10.1,0,19.9,9.7,19.8,19.7,0,10.1-8.6,18.6-19,18.7-10.8.2-19.8-8.7-19.7-19.3.1-9.8,9.2-19.1,18.8-19.2ZM1180.1,2682.3c-.3-10.6,7.6-18.6,18.2-18.5,10,0,17.9,7.7,18,17.5.1,10.3-8.3,18.3-18.8,18.1-9.1-.2-17.2-8.1-17.4-17.1ZM1199.6,2639.1c-10.9.6-20.2-7.6-20.8-18.1-.6-10.6,8-19.9,18.7-20.3,10.8-.3,20,8.2,20.2,18.8.2,10.3-7.8,19-18.1,19.6ZM1198.1,2578.5c-10.9,0-20.1-8.5-20.5-18.8-.5-11.1,9.4-21.2,20.9-21.3,11.3,0,20.1,8.8,20.1,20.4,0,11.5-8.7,19.9-20.4,19.8ZM1197.1,2295.4c9.6-.4,18.6,8.1,18.4,17.4-.2,8.4-8.2,16.2-16.8,16.4-9.9.2-17-6.7-17.1-16.7-.1-9.2,6.6-16.6,15.6-17ZM1186.2,2250.3c.2-6.6,5.3-11.6,11.8-11.5,6.9,0,13,6.1,12.5,12.4-.4,6.3-5.9,11.5-12.1,11.6-7.1.1-12.4-5.3-12.2-12.5ZM1198.7,2354.5c10.6.5,19.2,9.8,18.7,20.1-.5,10.3-8.9,18.4-19.1,18.3-10.7-.1-19.7-9-19.5-19.3.2-10.4,9.6-19.5,19.9-19.1ZM1211.2,2435.6c-.3,7-5.5,12.1-12.6,12.2-7.9.1-13-4.9-13.1-12.8,0-6.8,5.5-12.3,12.4-12.4,7.2-.1,13.5,6.1,13.3,13ZM1198.7,2477.5c10.7.3,19.1,9.1,19,20.1,0,10.4-9.5,19.4-20,19-10.9-.5-19.5-9.4-19.1-20,.4-10.6,9.6-19.4,20.1-19.1ZM1220.7,2190.1c-.5,11.5-10.8,21.1-22.7,21.1-11.6,0-21.6-10.1-21.6-21.8,0-12.8,9.7-22.6,22.3-22.4,12,.2,22.6,11.3,22,23.1ZM1260.9,2879.5c-7,.4-13.2-5.5-13.5-12.7-.3-7.5,5.3-13.4,12.6-13.4,6.9,0,12.4,5.1,12.9,12,.5,7.3-4.9,13.7-12,14.1ZM1260.3,2823.9c-11.3.1-19.6-7.9-19.5-18.9,0-10.9,8.6-19.9,19.1-20,9.8-.1,19.7,9.7,19.9,19.6.2,10.3-8.8,19.2-19.5,19.4ZM1260.4,2663.7c10.2.1,17.4,7.6,17.5,18,0,10.7-8,18.7-18.5,18.4-9.8-.3-17.9-8.5-17.8-18.1,0-10.4,8.3-18.4,18.8-18.3ZM1242.7,2558.5c.3-9.4,8.1-17,17.5-16.8,9.8.2,17.8,8.6,17.4,18.3-.4,9.1-8.7,17.2-17.6,17.2-9.3,0-17.6-8.9-17.3-18.6ZM1259.5,2516.8c-11-.2-18.9-8.5-18.7-19.8.2-10.9,8.7-19.1,19.7-19.1,9.8,0,19.4,10.2,19.1,20.2-.3,10.5-9.3,18.9-20.1,18.7ZM1280.3,2436.5c-.4,10.1-9.9,19.7-19.9,19.8-11.1.2-20.3-9.1-20.2-20.3,0-11.8,8.4-20,20.1-20.1,10.8,0,20.4,9.8,20,20.5ZM1240.9,2374.6c0-10.9,8.4-19.8,18.9-19.7,10.4,0,19.7,9.2,19.9,19.4.1,10.9-9.3,19.6-20.8,19.3-10.7-.3-17.9-8-18-19ZM1259.8,2213.6c-11.8.2-23.5-11.8-23.2-23.7.4-13.2,10.5-23.1,23.6-23,13.2,0,22.9,10,22.8,23.4-.1,12.8-10.3,23.1-23.2,23.3ZM1321.3,2825.2c-10.9,0-19.8-9.4-19.6-20.8.2-11.1,9.5-20.1,20.6-19.9,11,.2,20.1,9.6,19.9,20.7-.2,10.6-10,20-20.9,20.1ZM1322.1,2724.8c10.1.1,17.6,7.9,17.6,18.2,0,10.7-8,18.4-18.9,18.1-9.4-.3-17.6-9.1-17.5-18.7.2-9.1,9.4-17.7,18.8-17.6ZM1304.4,2620.9c0-9.7,8.4-18.2,17.8-18,9.7.2,17.5,8.6,17,18.4-.5,9.5-8.1,16.8-17.5,16.5-9.6-.2-17.3-7.8-17.3-16.9ZM1322.4,2577.8c-11,.3-19.8-8.1-19.7-18.9,0-10.2,8.6-18.9,18.6-19.1,10.9-.2,19.4,8.1,19.8,19.2.3,10.3-7.8,18.5-18.6,18.8ZM1322.4,2519.3c-12.1.3-22.3-9.1-22.7-21-.5-12.2,9.6-22.6,22.2-23.1,11.4-.4,21.7,9.8,22,21.8.2,12.1-9.2,21.9-21.4,22.2ZM1323,2396.3c-12.6.5-23.1-9.4-23.3-21.8-.1-11.8,9.7-21.9,21.7-22.2,12-.3,22.1,9.3,22.5,21.3.4,12.2-8.9,22.2-20.9,22.7ZM1382.7,2825.2c-11.1-.5-19.5-9.6-19.2-21,.2-11.3,9.2-20,20.4-19.8,11.4.2,19.9,9,19.8,20.3-.2,12-9.4,21-21,20.5ZM1382.8,2725c10.4-.3,19.5,7.9,19.5,17.7,0,9.9-8.5,18-19.2,18.1-9.4,0-18.3-8.4-18.4-17.5-.1-8.8,8.9-17.9,18-18.2ZM1365.8,2620.1c.1-9.2,8.2-17.2,17.3-17.3,9.9,0,17.7,8,17.6,18.1,0,9.4-7.8,17.2-17,17.4-9.3.1-18-8.7-17.9-18.2ZM1383.9,2577.9c-11.5,0-20.2-8.9-19.7-20.1.4-9.9,9-17.6,19.7-17.5,11,0,19.4,8.6,19.1,19.5-.3,10.1-8.7,18.1-19,18.2ZM1383.4,2519.1c-12.2-.2-22.1-10-22-21.8.2-11.9,10.2-22.1,21.9-22.1,12.6,0,22.3,10,22.1,22.9-.2,12.8-9,21.2-22,21.1ZM1445.7,2762.5c-10.3.2-19.2-8.4-19.8-19.3-.5-9.1,9-18.5,19-18.6,10.5-.2,19.3,7.7,19.7,17.7.4,10.6-8.3,19.9-18.8,20.2ZM1427.5,2682.6c-.5-9.9,7.2-18.3,17.1-18.8,10-.5,19.3,8.4,19.2,18.3-.1,8.4-9,17.3-17.6,17.6-10.3.3-18.3-7-18.8-17.1ZM1445.6,2641.2c-10.2.2-20.5-9.9-20.7-20.3-.2-11.1,8.7-20.2,20.1-20.5,11.4-.3,20.1,8.3,20.1,19.9,0,11.6-8.4,20.7-19.5,20.9ZM1445.3,2270.6c-9.5,0-19.2-9.2-19.6-18.5-.4-9.3,10.2-20.6,19.7-19.9,10.7.8,18.8,8.3,19.1,18.8.3,10.8-8.3,19.6-19.2,19.7ZM1463.3,2312.8c.1,9.3-8.6,17.9-18.2,18-9.3,0-16.9-7.6-17.1-17.2-.2-10,7.6-17.9,17.7-18,8.5,0,17.5,8.7,17.6,17.2ZM1446.2,2416.2c10.5.2,18.8,9.3,18.5,20.3-.3,10.6-9.3,18.9-20.2,18.4-10.7-.5-19.1-9.4-18.9-20.1.2-9.8,10.2-18.8,20.5-18.6ZM1446.7,2540c10.2.6,18.2,9.4,17.9,19.7-.3,10.1-9,18.4-19.3,18.2-10.6-.2-20-9.6-19.4-19.7.5-10.5,10.1-18.9,20.8-18.2ZM1432.4,2498.2c-.3-6.9,5.8-13.5,12.7-13.8,6.6-.3,13.7,6.3,13.8,12.9.1,6.2-7.5,13.6-13.6,13.3-6.5-.3-12.6-6.1-12.9-12.4ZM1446.9,2211.7c-12.6.6-23.3-9-23.6-21.2-.3-12,10.4-22.9,22.4-22.8,11.4,0,21.4,10.5,21.6,22.3.2,11.3-9.1,21.2-20.4,21.7ZM2426.6,1744.5c7.9.1,13.4,6.1,13.2,14.5-.1,7.9-5.5,13-13.5,13-8,0-13.9-6.2-13.5-14.2.3-7.3,6.7-13.5,13.8-13.4ZM2427.1,1802.5c9.3.2,17.2,8.3,17.2,17.4,0,9.5-8.7,18-18.2,17.8-8.7-.2-17.5-9.1-17.4-17.5.1-9.6,8.8-18,18.4-17.7ZM2365.2,1997.7c3.9,0,7.2,3.2,6.9,8.8-1.7,1.1-4.2,3.7-7.2,4.6-3.4,1-6.9-3-6.8-6.7,0-3.6,3.4-6.7,7.2-6.6ZM2365.8,2047.3c9.4.5,17.4,9.3,17.2,18.9-.2,10.4-8.8,18.4-19.2,17.9-9.5-.5-17.8-9.3-17.6-18.7.3-9.8,9.8-18.6,19.6-18.2ZM2379.2,2126.9c0,8.7-6.3,15-14.5,14.7-8.4-.2-14.7-6.8-14.3-14.9.4-7.8,6.6-13.6,14.5-13.4,8.2.2,14.3,6,14.3,13.6ZM2303.5,1806.1c8.2.1,13.7,5.8,13.7,14,0,8.6-6,14.4-14.8,14.4-7.5,0-13.8-6.5-13.9-14.2-.1-8.2,6.3-14.3,15.1-14.2ZM2284.9,1880.9c.6-10.3,10-18.4,20-17.3,9.7,1,17.1,10.2,16.1,19.8-1,9.6-10.1,16.9-19.9,16-9.1-.8-16.8-9.6-16.2-18.5ZM2302.2,1924.2c10.5-.2,19.3,7.7,19.8,17.8.5,11-8.1,20.9-18.1,20.9-10.7,0-19.5-8.6-19.8-19.5-.3-10.2,8.1-19.1,18.2-19.2ZM2241.1,1863.5c8.8,0,18.3,9,18.7,17.8.5,9.5-7.5,18-17.3,18.4-11.3.4-19.5-6.7-19.7-17-.2-9.9,8.6-19.1,18.3-19.2ZM2240.8,2049c10.3-.1,19,8.5,18.7,18.6-.3,8.6-9,16.9-17.9,16.9-9.7,0-18.3-8-18.6-17.5-.3-9.4,8.1-17.8,17.8-18ZM2241,1998.2c3.8,0,7,3,6.8,6.8-.2,4.2-2.6,6.9-6.7,6.9-4.3,0-6.4-3-6.9-6.9-.4-3.5,3.2-6.8,6.8-6.9ZM2240.6,2108.8c10.5-.2,19.9,8.9,20,19.2,0,10-8.7,18.9-18.7,19-11,.1-20-8.5-20-19,0-9.8,9-19,18.8-19.2ZM2254.4,2189.4c.4,7.2-5.3,13-12.9,13.1-7.9.1-13.3-4.9-13.6-12.5-.3-7.1,5.6-13.2,12.9-13.3,7.2-.2,13.2,5.5,13.6,12.8ZM2241.3,2231.1c10.8,0,20.6,9.5,20.5,20.1,0,10.5-9.7,19.8-20.7,19.9-11.5,0-20.3-8.6-20.1-19.9.2-11.5,8.8-20,20.3-20.1ZM2179.1,1925.1c9.9,0,18.7,8.9,18.7,18.9,0,9.4-8.7,18.1-18.2,18-10.6,0-18.6-8.3-18.4-18.9.2-10,8.2-18,17.9-18ZM2098.8,2069.3c.6-10.1,9.4-18.4,19.3-18.1,10.3.3,19.7,10.2,19.2,19.9-.6,10.3-10.1,19-20.4,18.7-10.5-.4-18.7-9.7-18.1-20.5ZM2118,2112.1c11.4.2,20.3,9.1,20.2,20.3,0,10.9-9.3,19.7-20.9,19.6-10.9,0-19.2-8.6-19.2-19.6,0-11.9,8.4-20.4,19.8-20.3ZM2055.5,2114.6c10.1-.2,18.3,7.3,18.6,16.9.3,10.3-7.8,18.8-18.1,18.8-9.6,0-17.9-8.1-18.1-17.7-.2-9.4,8-17.9,17.6-18ZM1994.9,2048.4c10,.2,17.5,8.1,17.5,18.3,0,9.6-8.4,18-18,18.1-10.1,0-19.2-8.7-19.1-18.5,0-9.8,9.2-18.1,19.5-17.9ZM1932.3,2366.9c3.5-.9,7,3.2,6.6,6.8-.4,4.1-2.6,6.8-6.8,7-3.5.2-6.9-3.5-6.7-9,1.6-1.2,4-4,6.9-4.8ZM1914.4,2434.3c.5-9,9-16.8,18-16.6,9.7.2,17.8,8.8,17.3,18.4-.4,9.4-8.3,16.7-17.7,16.5-10.1-.3-18.1-8.6-17.6-18.2ZM1877.7,1802.2c10.4,0,18.9,8.5,18.6,18.7-.2,10-8,17.6-18.1,17.5-11.3,0-18.5-7.2-18.3-18.3.1-10,8-17.9,17.8-17.9ZM1876.9,1960.8c-9.7-.4-16.6-7.8-16.5-17.6,0-9.4,7.7-17.1,17.1-17.2,10-.1,17.8,7.7,17.6,17.9-.1,10.4-7.7,17.4-18.2,16.9ZM1891.2,2004.9c.2,7.5-5,12.9-12.9,13.2-7.9.3-13-4.5-13.2-12.5-.3-7.9,4.5-12.8,12.6-13,7.9-.2,13.2,4.7,13.5,12.4ZM1863.7,1882c0-8,5.8-14.1,13.7-14.3,8.6-.2,14.9,5.9,14.8,14.3,0,8.3-6.8,14.9-14.9,14.6-7.1-.3-13.6-7.3-13.6-14.7ZM1877.5,2048.9c10.6-.1,18.8,7.8,18.8,18.1,0,9.4-8.4,17.9-17.9,18-10.6.2-18.7-7.7-18.5-18.3.1-10.4,7.3-17.6,17.6-17.8ZM1896.1,2127.8c0,10.1-7.6,17.9-17.6,18.1-11.1.2-18-6.4-18.2-17-.2-10.4,7.1-18.2,17.3-18.4,9.8-.2,18.6,8,18.6,17.3ZM1693.2,1931.1c7,.4,12.1,5.9,12,12.9,0,7.5-5.9,13.5-13,13.3-6.6-.2-13.5-7.3-13.1-13.7.4-6.8,7.2-12.9,14.1-12.5ZM1692.4,1985.4c11.6,0,20.4,8.7,20.3,19.8,0,11.6-8.3,19.9-19.9,20-12,.1-20-7.6-20.1-19.6,0-11.8,8.2-20.3,19.7-20.2ZM1630.9,1860.6c11.4.2,20.8,9.9,20.7,21.4,0,12-8.9,20.6-21,20.6-12,0-21.1-9.1-21-20.8.1-11.1,10.3-21.3,21.2-21.1ZM1630.7,2174.9c7.9,0,15.3,6.9,15.4,14.4,0,7.7-6.9,14.7-14.9,15-8.4.4-14.6-5.7-14.8-14.5-.2-8.5,5.9-15,14.3-15ZM1618.8,2128.3c-.1-7.2,4.9-12.5,11.9-12.5,6,0,12,5.4,12.4,11.2.4,6.5-5.3,12.7-11.8,13.1-7.2.4-12.4-4.5-12.5-11.7ZM1630,2084.2c-9.1-.3-17.2-8.6-17.2-17.5,0-9.1,8-17,17.4-17.3,10-.3,18,7.5,18.2,17.6.1,9.7-8.2,17.6-18.3,17.2ZM1630.2,1993.1c6.9-.3,12.8,5.3,12.9,11.9,0,6.4-6,12.5-12.5,12.5-6.3,0-11.4-4.9-11.8-11.4-.4-7.2,4.4-12.7,11.4-12.9ZM1630.4,1962.7c-9.9-.2-18.6-9.4-18.4-19.2.2-10.4,8.5-18.8,18.5-18.9,10.3,0,19.5,9.3,19.3,19.6-.2,9.4-9.9,18.7-19.4,18.4ZM1631.2,2231.7c10.3.3,19.7,10.2,19.2,19.9-.6,10.3-10.1,19-20.4,18.7-10.5-.4-18.7-9.7-18.1-20.5.6-10.1,9.4-18.4,19.3-18.1ZM1631,2292.5c11.4.2,20.3,9.1,20.2,20.3,0,10.9-9.3,19.7-20.9,19.6-10.9,0-19.2-8.6-19.2-19.6,0-11.9,8.4-20.4,19.8-20.3ZM1506.5,1863.4c10.6-.3,19.1,7.8,19.1,18,0,9.6-8.2,17.9-17.9,18-9.8.2-17.9-7.6-18.3-17.4-.4-9.8,7.4-18.3,17.1-18.5ZM1507.3,1923.8c11.3,0,19.2,8,19.1,19.4,0,12.9-9,18.7-19.3,19.6-10.2.8-19.3-9-19.3-19.7,0-11.2,8.1-19.2,19.5-19.2ZM1507.6,2270.4c-10.6.3-18.9-8.4-18.9-19.8,0-10.7,7.9-18.9,18.3-19,10.6-.1,19.6,9,19.3,19.6-.2,10.2-8.6,18.8-18.7,19.1ZM1520.4,2312.4c0,6.9-6.1,12.9-13.3,12.9-7.3,0-12.9-5.8-12.9-13.3,0-6.8,5.3-11.9,12.5-12.1,7.4-.2,13.6,5.5,13.7,12.4ZM1506.8,2020.1c-9-.2-15.5-6.6-15.6-15.3,0-8.6,6.7-16,15-16.3,8.9-.3,16.8,7.1,16.8,15.8,0,9.6-6.6,16-16.2,15.8ZM1520.4,2066.3c0,6.9-6.3,12.8-13.6,12.7-7-.1-12.2-5.3-12.3-12.3-.1-7.8,4.6-12.8,12.7-13.2,7-.4,13.1,5.6,13.2,12.9ZM1506.3,2108.8c11.5-.1,19.8,7.6,19.8,18.7,0,11.6-7.1,18.7-19.2,19.2-10.4.4-18.1-7.5-18.3-18.6-.2-11.1,7.2-19.2,17.7-19.3ZM1525.5,2189.4c0,9.4-8.2,17.4-18,17.5-9.9,0-18.1-7.6-18.3-17.2-.2-9.4,8.2-18.4,17.3-18.7,9.7-.3,19,8.6,19,18.4ZM1506.9,2759c-8,0-15.4-7.6-15.6-15.7-.2-9.1,6.8-16,16.2-15.9,9.2.1,15.6,6.3,15.5,15.1,0,8.8-7.7,16.5-16.2,16.5ZM1508.4,2699.2c-10.7.6-19.1-7-19.3-17.5-.2-10.4,6.8-17.9,17.1-18.4,11-.5,19.2,6.8,19.4,17.3.3,9.8-7.3,18-17.2,18.5ZM1489.7,2558.9c0-9.5,7.4-17.3,16.8-17.6,9.9-.3,18.4,7.5,18.7,17.2.2,9.1-8.8,18-18.2,18.1-8.4,0-17.2-8.9-17.2-17.7ZM1507.3,2516.3c-10.4,0-18.7-8.2-18.8-18.6-.1-11.2,8.1-20,18.8-20.1,9.6-.1,18.7,9,18.9,18.9.2,11-8.2,19.8-18.9,19.8ZM1507.6,2457.3c-11.7.2-22.5-9.9-22.6-21.2-.2-12.3,10.3-22.9,22.4-22.8,12.1,0,21.5,9.7,21.5,21.9,0,12.7-8.9,21.9-21.3,22.1ZM1568.9,2699.8c-9.6,0-17.3-7.5-17.7-16.9-.4-9.8,8.8-19,18.6-18.7,9,.2,16.8,8.4,16.9,17.7.1,9.8-8,18-17.9,17.9ZM1568.9,2639c-10.1,0-18.7-8.8-18.4-18.9.2-10.2,8.9-18.2,19.3-17.9,10.5.2,18,8.5,17.6,19.4-.3,9.5-8.7,17.5-18.5,17.5ZM1568.5,2295c10.1-.2,18.3,7.3,18.6,16.9.3,10.3-7.8,18.8-18.1,18.8-9.6,0-17.9-8.1-18.1-17.7-.2-9.4,8-17.9,17.6-18ZM1551.2,2190.6c-.2-9.5,8.2-17.7,18.1-17.7,9.5,0,17.2,7.4,17.5,16.8.3,9.9-7.4,17.5-17.9,17.5-9.2,0-17.5-7.8-17.7-16.6ZM1568.3,2356.4c10.4-.4,19.1,7.8,19,18.1,0,10.1-7.6,18.1-17.5,18.5-10.2.4-18.9-7.8-19.1-18.2-.2-9.6,7.8-18,17.6-18.4ZM1569.9,2481.5c9.5.3,16.7,7.9,16.3,17.3-.3,8.4-8.1,15.3-17.3,15.2-10,0-16.8-7-16.6-16.9.3-10,7-16,17.6-15.7ZM1556.8,2435.7c.2-6.5,6.4-12.5,12.8-12.2,6.3.2,12.2,6.7,11.8,13.2-.3,6.4-5.5,11.2-12.2,11.3-6.9,0-12.7-5.6-12.5-12.2ZM1569.3,2541.7c9.3-.2,17,7.4,17.4,17,.3,8.8-7.8,18-16.3,18.4-9.2.5-18.9-8.3-19.1-17.2-.2-9.2,8.5-18,18.1-18.2ZM1570.2,2147.5c-11.5.4-19.9-7.3-20-18.4-.2-11.2,7.9-19.5,19.1-19.5,10.6,0,18.3,7.7,18.5,18.7.2,11.5-6.5,18.9-17.6,19.3ZM1569.4,2089c-12.2.1-22.4-9.4-22.6-21.2-.2-11.6,9.8-22.3,21.3-22.8,12.1-.6,23.4,10.2,23.3,22.1,0,11.8-10.1,21.8-22,22ZM1630.6,2576.4c-8.5,0-17.4-8.7-17.7-17.3-.3-9.5,8.2-17.9,18-17.8,10.2,0,17.9,8,17.5,18.1-.3,9.1-8.6,16.9-17.8,17ZM1650.5,2498.2c-.5,9.6-9.8,18.1-19.7,18.1-10.7,0-19.2-8.8-19-19.7.2-10.1,8.8-18.9,18.6-18.9,10.6,0,20.7,10.2,20.1,20.5ZM1631.8,2457.3c-12.9.6-22.8-8.9-22.9-21.8,0-11.9,9.8-21.9,21.6-22.1,12-.1,22.1,9.5,22.4,21.3.3,12-9.1,22-21.2,22.6ZM1692.2,2147.6c-10.6-.2-18.7-8.1-18.8-18.3,0-10.7,8.6-19.8,18.9-19.8,10.6,0,19.7,9,19.8,19.2,0,10.6-8.9,19.1-19.8,18.9ZM1705.7,2190.7c-.1,7.1-6.3,13.3-13.2,13.2-6.7-.1-13.4-6.6-13.6-13.1-.2-7,7.1-14,14.2-13.6,7.3.4,12.8,6.3,12.6,13.6ZM1692.9,2291c12.1.1,21.5,9.7,21.6,22,.1,12.2-9.2,21.6-21.6,21.9-12.5.3-21.9-8.7-22.1-21.2-.2-12.9,9.5-22.9,22.1-22.8ZM1690.6,2393.4c-10.3-.7-17.8-9.1-17.2-19.6.5-10.8,9-18.1,20.6-17.6,10.4.5,18.9,8.9,18.1,19-.7,9.2-6.5,19.2-21.4,18.3ZM1710,2435.8c.3,10.1-7.1,17.6-17.6,17.8-9.3.2-17-7.4-17.2-16.9-.2-9.4,7.2-17.6,16.3-18,9.8-.5,18.2,7.4,18.5,17.2ZM1694.1,2540.3c10.2.7,18.5,9.5,18,19.3-.6,11.3-9.8,19.2-21.4,18.2-10.1-.8-17.7-9.5-17.2-19.9.4-10.5,9.6-18.3,20.7-17.6ZM1714.6,2621c-.6,13-10.6,22-23.4,21.1-13-.9-20.9-9.7-20.2-22.6.6-12.2,10.4-21.3,22.5-21,11.7.3,21.7,10.9,21.1,22.5ZM1714.7,2067.9c-.3,11.7-10.8,21.5-22.6,21.1-12.3-.4-21.3-10-21.2-22.3.1-12.1,9.9-21.8,21.7-21.8,12.4,0,22.4,10.4,22,23ZM1753.8,2578c-10.4-.1-19.4-9.5-19-19.9.4-10.5,9.9-19.5,20.2-19.1,10.4.4,19.4,10,19.1,20.3-.4,10.6-9.4,18.9-20.3,18.8ZM1755,2393.4c-11,.2-19.7-8.1-19.9-18.9-.2-9.8,8.5-18.3,18.9-18.5,11.5-.2,19.7,7.7,19.7,18.7,0,10.2-8.3,18.5-18.7,18.7ZM1771.9,2435.8c0,10-7.5,17.3-18,17.1-10.2-.1-16.8-6.7-16.7-16.8,0-9.8,8.3-18.1,17.7-17.9,8.6.2,16.9,8.8,17,17.6ZM1754,2334.8c-11.7-.2-21.5-10.5-21.4-22.3.1-11.9,10-21.8,21.8-21.7,12.3,0,21.7,9.3,21.9,21.5.2,12.4-10,22.8-22.3,22.5ZM1755,2146.4c-11.2,0-18.2-7.1-18.2-18.3,0-10.3,7.3-17.8,17.4-17.9,10,0,19.1,8.7,18.9,18.4-.2,9.3-8.9,17.8-18.1,17.8ZM1771.2,2189.9c0,8.9-7.3,16.5-16.1,16.6-9.8,0-17.6-7.3-17.5-16.6,0-9.6,7.6-16.8,17.4-16.6,8.9.1,16.1,7.6,16.2,16.6ZM1754.9,1961.4c-10.6.2-17.5-6.6-17.6-17.4,0-9.2,7.6-17.2,16.7-17.5,8.9-.3,18.4,9,18.2,17.8-.3,9.5-7.8,16.9-17.2,17.1ZM1767.7,2066.9c0,6.4-5.8,12.3-12.6,12.6-7.3.3-12.8-4.5-13.2-11.6-.5-8,4.4-13.5,12.2-13.8,7.3-.3,13.5,5.5,13.6,12.8ZM1754.5,1901.8c-10.4.1-20-9.6-19.4-19.7.6-10.6,10.2-19.4,20.5-18.8,9.8.6,18.4,9.9,18.2,19.8-.2,9.6-9.4,18.6-19.2,18.7ZM1776.3,1821.9c-.4,11.9-10.6,21.4-22.5,21.1-12-.3-21.4-10.2-21.2-22.4.1-11.9,9.9-21.6,22-21.7,12.3-.1,22.2,10.4,21.8,23ZM1816.7,2577.5c-10.2.1-20.1-9.5-19.8-19.2.3-10,8.8-17.8,19.5-17.8,10.8,0,18.9,7.8,18.8,18.2,0,10-8.7,18.8-18.5,18.9ZM1816.1,2516.5c-10.6,0-19.5-8.6-19.7-19.2-.2-10.2,8.8-19.6,19.1-19.8,10.8-.2,19.8,8.1,20,18.6.3,11.4-8.3,20.3-19.5,20.4ZM1816.6,2331.9c-10.8.3-19.6-8.1-19.9-18.9-.3-9.7,9.8-19.8,19.7-19.6,9.5.2,18.7,9.3,19,18.8.3,11.4-7.4,19.4-18.8,19.7ZM1833.6,2375.1c-.2,9.6-7.6,16.7-17.4,16.6-10.3,0-17.7-7.7-17.4-17.9.3-9.4,8.2-17.1,17.4-17,9.9.2,17.6,8.3,17.4,18.3ZM1838.2,2252.7c-.8,11.8-11.2,20.8-23.3,20.3-12.1-.6-21.5-10.8-20.8-22.6.8-12.2,10.9-21.6,22.6-21,12.8.7,22.3,11,21.5,23.4ZM1816,2084.5c-11.4,0-18.1-7.1-17.7-18.5.4-10.6,7.3-17.1,18.1-17,10.4,0,18.5,8.3,18.2,18.7-.3,9.4-8.5,16.9-18.6,16.9ZM1834.4,2128.6c0,10.2-8.6,17.9-19.6,17.3-10.1-.5-16.5-7.6-16.3-17.7.3-10.7,7.6-17.9,17.8-17.6,10.1.3,18,8.2,18,18ZM1816.3,2026.9c-12.5,0-21.9-9-22.1-21.3-.2-12.3,9-21.9,21.2-22.3,12.6-.3,22.9,9.5,22.9,22,0,12-9.6,21.5-22,21.5ZM1877.6,2516.8c-11.1-.1-19.3-8.5-19.2-19.5.1-10.8,8.6-18.9,19.7-19.1,10.4-.2,19.2,8.9,19.1,19.6,0,10.8-8.6,19-19.7,18.9ZM1878.4,2456.4c-10.7.2-20.4-9.3-20.5-20.1-.1-11.3,8.6-20.2,19.9-20.3,11,0,20.7,9.1,20.9,19.6.2,10.1-10,20.6-20.3,20.7ZM1878.3,2355c10.9,0,19.2,8.5,19,19.6-.2,11.1-8.2,18.9-19.6,18.9-11.2,0-19.1-8-19.1-19.3,0-10.5,8.8-19.1,19.7-19.1ZM1858.7,2251.4c.3-10.7,9.4-19.7,19.6-19.4,10.6.3,19.4,9.3,19.1,19.8-.3,10.9-8.7,19-19.7,19.1-11,0-19.3-8.5-19-19.5ZM1878.1,2209.8c-11.8,0-20.4-8.5-20.2-19.9.2-11.8,8.5-20,20.1-19.9,10.8.1,20.6,9.5,20.8,19.9.2,10.5-9.7,19.9-20.7,19.8ZM1932.6,2514.4c-10.7.2-19.2-7.9-18.9-18.2.3-9.6,8.6-17.5,18.6-17.4,10.3,0,17.7,7.4,17.7,17.8,0,10.8-6.5,17.6-17.5,17.8ZM1993.3,2454.6c-10.5-.3-18.6-8.4-18.6-18.7,0-10.6,9-19.7,19.3-19.5,10.6.2,19.5,9.3,19.4,19.7-.2,10.6-9.2,18.9-20.1,18.6ZM1992.8,2267.8c-9.5-.4-15.8-7.4-15.5-16.9.3-8.9,8-16.4,16.6-16.3,9.8,0,17.2,7.6,16.8,17.2-.4,9.8-7.8,16.4-17.9,16ZM2000.8,2374.3c0,3.7-3.2,6.9-6.9,6.8-4,0-7.4-3.1-6.4-6.9.8-2.9,3.4-5.4,4.6-7.1,5.3,0,8.7,3.5,8.7,7.2ZM1994.8,2207.2c-10.9.2-19.6-7.6-19.5-17.5.1-9.6,9.7-18.9,19.2-18.7,9.5.2,17.7,8.7,17.8,18.4.2,10.5-6.8,17.6-17.5,17.9ZM1993.8,2150.1c-12.3-.2-21.6-9.6-21.6-21.9,0-12.2,9.5-22,21.5-22.2,12.5-.1,22.3,9.8,22.3,22.7,0,11.9-10,21.6-22.2,21.4ZM2055.9,2448.8c-7.2,0-13.5-6.3-13.3-13.1.1-7.2,6-13,13.4-13,7,0,13.5,6.3,13.5,13.1,0,6.8-6.6,13.2-13.5,13.1ZM2057.3,2396.7c-9.2.5-18.9-8.3-19.1-17.2-.2-9.2,8.5-18,18.1-18.2,9.3-.2,17,7.4,17.4,17,.3,8.8-7.8,18-16.3,18.4ZM2056.9,2301.1c9.5.3,16.7,7.9,16.3,17.3-.3,8.4-8.1,15.3-17.3,15.2-10,0-16.8-7-16.6-16.9.3-10,7-16,17.6-15.7ZM2043.8,2255.3c.2-6.5,6.4-12.5,12.8-12.2,6.3.2,12.2,6.7,11.8,13.2-.3,6.4-5.5,11.2-12.2,11.3-6.9,0-12.7-5.6-12.5-12.2ZM2056.8,2212.5c-10.2.4-18.9-7.8-19.1-18.2-.2-9.6,7.8-18,17.6-18.4,10.4-.4,19.1,7.8,19,18.1,0,10.1-7.6,18.1-17.5,18.5ZM2117.6,2395.9c-8.5,0-17.4-8.7-17.7-17.3-.3-9.5,8.2-17.9,18-17.8,10.2,0,17.9,8,17.5,18.1-.3,9.1-8.6,16.9-17.8,17ZM2137.5,2317.8c-.5,9.6-9.8,18.1-19.7,18.1-10.7,0-19.2-8.8-19-19.7.2-10.1,8.8-18.9,18.6-18.9,10.6,0,20.7,10.2,20.1,20.5ZM2118.8,2276.8c-12.9.6-22.8-8.9-22.9-21.8,0-11.9,9.8-21.9,21.6-22.1,12-.1,22.1,9.5,22.4,21.3.3,12-9.1,22-21.2,22.6ZM2194,2313.3c-.6,8.1-7.9,14.3-15.9,13.6-7.8-.7-13.5-7.3-13-15,.5-8.2,7.8-14.5,15.7-13.6,7.8.9,13.8,7.7,13.2,15.1ZM2179.5,2270.3c-10.1,0-19-9-19.1-19.7-.1-9.7,8.7-18.8,18.4-19,11.1-.2,19.3,7.8,19.5,19,.2,11-7.9,19.6-18.8,19.7ZM2161.6,2066.8c.1-10,8-17.6,18.1-17.5,9.7,0,17.9,8.6,17.6,18.1-.4,9.6-9,17.3-18.9,16.9-9.4-.3-16.9-8.1-16.8-17.5ZM2179.5,2025.5c-12.3-.1-21.6-8.8-21.6-20.3,0-10.9,10.3-21.1,21.5-21,11.8,0,21.5,9.5,21.3,20.9-.2,12.1-9,20.6-21.2,20.4ZM2241,2334.4c-12-.1-22.1-10.1-22.1-21.7,0-12.5,10.2-22.4,22.8-22.2,11.7.2,21.5,10.4,21.2,22.3-.3,12.1-10,21.7-21.9,21.6ZM2303.6,2268.7c-10.1.2-19.1-8.5-19-18.4.1-9.1,9.3-18.4,18-18.2,10.2.2,18.9,8.8,18.9,18.6,0,9.5-8.3,17.8-17.9,18ZM2285.8,2127.1c0-9.3,7.6-16.8,17.3-16.7,9.9,0,17.1,7.1,17.4,16.8.3,9.9-7.8,18.2-17.5,18-10.5-.1-17-7.1-17.1-18.2ZM2302.6,2088.4c-10.3-.2-21.9-8.3-21.2-22.2,0-12.8,8.9-21.8,21.3-21.8,12.5,0,22.9,10.4,22.6,22.5-.3,11.3-10.9,21.7-22.7,21.5ZM2365.6,2263.6c-7,.5-13.4-5.4-13.8-12.6-.4-6.8,5.9-13.4,13-13.7,6.1-.2,12.6,5.8,13.1,12.2.6,7.1-5.1,13.5-12.3,14ZM2365.1,2208.2c-10.5.3-19.7-8.8-19.6-19.2,0-10.8,8.6-19,19.6-18.9,10.5,0,19.2,9.1,19.1,19.6-.1,9.7-8.9,18.3-19.1,18.5ZM2426.8,2204.9c-8.7.1-16.1-6.5-16.4-14.6-.3-8.9,6.9-16.2,16-16.3,9.3,0,16.9,7.2,16.5,15.8-.4,8.1-7.7,14.9-16.2,15.1ZM2414.7,2127.2c.2-6.4,5.4-11.6,11.6-11.7,6.4,0,12.7,6.1,12.7,12.3,0,6.3-6.4,12.4-12.7,12.2-7-.2-11.9-5.6-11.6-12.8ZM2425.8,2086.1c-11-.4-20.4-10.3-19.9-20.9.6-10.4,10-19,20.6-18.9,11.4.1,20.4,9.2,20.2,20.4-.2,11.3-9.4,19.9-20.9,19.5ZM2407.3,2005.1c-.3-10.8,8.1-19.7,18.7-19.9,11.1-.2,19.7,7.9,19.9,18.7.3,10.6-8.1,19.5-18.8,20.1-10.6.5-19.5-8-19.8-18.9ZM2426.4,1902.1c-10.6,0-20.7-10.1-20.5-20.4.2-10.9,9.6-19.8,20.7-19.7,11.6.1,20.2,8.7,20.3,20,0,11-9.3,20.2-20.5,20.1ZM2489.2,1561.9c7,.4,12.1,5.9,12,12.9,0,7.5-5.9,13.5-13,13.3-6.6-.2-13.5-7.3-13.1-13.7.4-6.8,7.2-12.9,14.1-12.5ZM2488.8,1646.8c-6.5,0-10.8-4.1-10.8-10.6,0-6.4,4.4-10.9,10.6-10.9,6.2,0,11,4.7,11,10.7,0,6.3-4.5,10.7-10.8,10.8ZM2496.9,1698.1c-.1,4.3-4,7.9-8.3,7.8-4.5-.2-7.9-3.7-7.8-8.2,0-4.5,3.6-8.1,8-8.1,4.6,0,8.2,3.8,8.1,8.5ZM2488.4,1744.1c8.4,0,15.8,7.2,15.8,15.3,0,8.5-7.1,15.2-15.8,15.1-8.5-.1-14.9-6.5-15-14.6,0-8.5,6.9-15.8,15.1-15.8ZM2488.5,1834.6c-6.7-.1-13.4-6.6-13.6-13.1-.2-7,7.1-14,14.2-13.6,7.3.4,12.8,6.3,12.6,13.6-.1,7.1-6.3,13.3-13.2,13.2ZM2500.5,1882.9c-.2,6.2-6.3,11.8-12.6,11.5-6.6-.3-11.5-5.7-11.3-12.5.2-6.1,5.7-11.2,11.9-11.1,6.2,0,12.2,6.1,11.9,12.1ZM2488.5,1926.2c9.8,0,17.7,8.3,17.6,18.2-.2,10.1-7.8,17.8-18,18-9.5.2-17.3-8-17.4-18.4,0-10.2,7.7-17.9,17.8-17.8ZM2487.9,2140.6c-7.1-.3-12.2-5.9-11.7-12.8.4-6.4,7-12.1,13.4-11.6,5.8.5,11.3,6.7,11.1,12.5-.2,7-5.7,12.1-12.8,11.9ZM2488.7,2085.2c-9.8.3-17.9-7.7-18-17.7-.2-10.2,7.3-18,17.4-18.2,10.1-.2,17.8,7.3,18,17.6.2,10-7.5,18.1-17.4,18.4Z"/>
    <path class="st4" d="M1993.7,2106c-12,.1-21.5,10-21.5,22.2,0,12.3,9.3,21.7,21.6,21.9,12.1.2,22.2-9.5,22.2-21.4,0-12.9-9.8-22.8-22.3-22.7Z"/>
    <path class="st4" d="M2303.7,2290.5c-13.1-.2-21.6,7.9-22,20.8-.1,3.5.4,6.7,1.5,9.6l37.6-21.7c-4-5.1-10.2-8.5-17-8.6Z"/>
    <path class="st4" d="M2241.7,2290.6c-12.6-.2-22.7,9.7-22.8,22.2,0,11.6,10.1,21.5,22.1,21.7,11.9.1,21.7-9.5,21.9-21.6.3-11.8-9.5-22.1-21.2-22.3Z"/>
    <path class="st4" d="M2302.7,2044.3c-12.4,0-21.3,9.1-21.3,21.8-.7,13.8,11,22,21.2,22.2,11.8.2,22.4-10.2,22.7-21.5.3-12.1-10.1-22.5-22.6-22.5Z"/>
    <path class="st4" d="M2179.4,1984.1c-11.2,0-21.6,10.1-21.5,21,0,11.5,9.3,20.2,21.6,20.3,12.2.1,21-8.4,21.2-20.4.2-11.4-9.5-20.8-21.3-20.9Z"/>
    <path class="st4" d="M2426.5,1861.9c-11.1-.1-20.5,8.8-20.7,19.7-.2,10.3,10,20.4,20.5,20.4,11.2,0,20.5-9.2,20.5-20.1,0-11.3-8.7-19.9-20.3-20Z"/>
    <path class="st4" d="M2241.1,2271.1c11,0,20.7-9.4,20.7-19.9,0-10.6-9.7-20.2-20.5-20.1-11.5,0-20.1,8.5-20.3,20.1-.2,11.3,8.6,20,20.1,19.9Z"/>
    <path class="st4" d="M2426.5,2046.2c-10.6-.1-20,8.5-20.6,18.9-.6,10.6,8.9,20.6,19.9,20.9,11.6.4,20.8-8.2,20.9-19.5.2-11.1-8.8-20.2-20.2-20.4Z"/>
    <path class="st4" d="M2100.6,2426.2l17.5-10.1c0,0-.1,0-.2,0-7.7,0-14.1,4.1-17.3,10.1Z"/>
    <path class="st4" d="M2427.1,2024c10.8-.5,19.1-9.4,18.8-20.1-.3-10.8-8.9-18.9-19.9-18.7-10.6.2-19,9.1-18.7,19.9.3,10.9,9.2,19.4,19.8,18.9Z"/>
    <path class="st4" d="M2489,2170.5c-10.2-.3-19.5,8.6-19.9,19.2-.3,7.7,4.1,14.5,10.6,17.7l28.6-16.5c0,0,0-.1,0-.2.2-9.9-9.3-19.9-19.2-20.2Z"/>
    <path class="st4" d="M1994.1,2416.4c-10.3-.2-19.3,8.9-19.3,19.5,0,10.3,8,18.4,18.6,18.7,10.9.4,20-8,20.1-18.6.2-10.4-8.8-19.4-19.4-19.7Z"/>
    <path class="st4" d="M2488.6,1870.8c-6.2,0-11.6,5-11.9,11.1-.3,6.8,4.6,12.2,11.3,12.5,6.3.3,12.3-5.3,12.6-11.5.2-6-5.7-12-11.9-12.1Z"/>
    <path class="st4" d="M2365.1,2170.1c-10.9,0-19.5,8.2-19.6,18.9,0,10.4,9.1,19.5,19.6,19.2,10.1-.2,19-8.8,19.1-18.5.1-10.5-8.6-19.5-19.1-19.6Z"/>
    <path class="st4" d="M2178.8,2231.6c-9.7.2-18.6,9.3-18.4,19,.1,10.6,9,19.8,19.1,19.7,10.8,0,19-8.6,18.8-19.7-.2-11.3-8.4-19.3-19.5-19Z"/>
    <path class="st4" d="M2241.8,2147.1c10-.1,18.8-9,18.7-19,0-10.4-9.5-19.5-20-19.2-9.7.2-18.7,9.4-18.8,19.2,0,10.5,9,19.2,20,19Z"/>
    <path class="st4" d="M2303.8,1962.9c10,0,18.6-9.9,18.1-20.9-.4-10-9.2-18-19.8-17.8-10.1.2-18.5,9-18.2,19.2.3,10.9,9.1,19.5,19.8,19.5Z"/>
    <path class="st4" d="M2426.3,1772c8,0,13.4-5.2,13.5-13,.1-8.3-5.3-14.3-13.2-14.5-7.1-.1-13.5,6.1-13.8,13.4-.3,8,5.6,14.2,13.5,14.2Z"/>
    <path class="st4" d="M2363.8,2084.1c10.4.5,19-7.5,19.2-17.9.2-9.6-7.9-18.4-17.2-18.9-9.7-.5-19.3,8.4-19.6,18.2-.2,9.4,8,18.2,17.6,18.7Z"/>
    <path class="st4" d="M1994.5,2171c-9.5-.2-19,9.1-19.2,18.7-.1,9.9,8.6,17.8,19.5,17.5,10.7-.2,17.6-7.4,17.5-17.9-.1-9.7-8.3-18.2-17.8-18.4Z"/>
    <path class="st4" d="M2179.7,1962c9.4,0,18.2-8.6,18.2-18,0-10-8.8-18.9-18.7-18.9-9.7,0-17.7,8-17.9,18-.2,10.6,7.8,18.8,18.4,18.9Z"/>
    <path class="st4" d="M2302.5,2232.1c-8.7-.2-17.9,9.1-18,18.2-.1,9.8,8.9,18.6,19,18.4,9.6-.2,17.9-8.6,17.9-18,0-9.8-8.7-18.4-18.9-18.6Z"/>
    <path class="st4" d="M2242.5,1899.7c9.7-.4,17.7-8.9,17.3-18.4-.4-8.8-9.9-17.8-18.7-17.8-9.7,0-18.4,9.2-18.3,19.2.2,10.3,8.4,17.4,19.7,17Z"/>
    <path class="st4" d="M1994.4,2084.8c9.5,0,17.9-8.6,18-18.1,0-10.2-7.5-18-17.5-18.3-10.3-.2-19.4,8.1-19.5,17.9,0,9.8,9,18.6,19.1,18.5Z"/>
    <path class="st4" d="M1932.4,2478.8c-10,0-18.4,7.8-18.6,17.4-.3,10.2,8.2,18.4,18.9,18.2,10.9-.2,17.5-6.9,17.5-17.8,0-10.4-7.4-17.8-17.7-17.8Z"/>
    <path class="st4" d="M2301.1,1899.5c9.8.9,18.9-6.4,19.9-16,1-9.7-6.4-18.8-16.1-19.8-10.1-1.1-19.4,7-20,17.3-.6,8.9,7.1,17.7,16.2,18.5Z"/>
    <path class="st4" d="M2488.1,2049.2c-10.1.2-17.6,8.1-17.4,18.2.2,10.1,8.2,18,18,17.7,9.9-.3,17.6-8.4,17.4-18.4-.2-10.3-7.9-17.8-18-17.6Z"/>
    <path class="st4" d="M2488.1,1962.4c10.2-.3,17.8-7.9,18-18,.2-9.9-7.8-18.1-17.6-18.2-10.1,0-17.8,7.7-17.8,17.8,0,10.4,7.9,18.6,17.4,18.4Z"/>
    <path class="st4" d="M2222.9,2066.9c.3,9.5,8.8,17.5,18.6,17.5,8.9,0,17.6-8.3,17.9-16.9.3-10.1-8.3-18.7-18.7-18.6-9.8.1-18.1,8.5-17.8,18Z"/>
    <path class="st4" d="M2178.4,2084.3c9.9.4,18.6-7.4,18.9-16.9.4-9.6-7.8-18.1-17.6-18.1-10.1,0-18,7.5-18.1,17.5-.1,9.4,7.3,17.2,16.8,17.5Z"/>
    <path class="st4" d="M2426.1,1837.7c9.5.2,18.2-8.3,18.2-17.8,0-9.2-7.9-17.2-17.2-17.4-9.6-.2-18.3,8.2-18.4,17.7,0,8.5,8.7,17.3,17.4,17.5Z"/>
    <path class="st4" d="M2180.4,2356.8c-10.1-.3-18.6,7.4-18.7,17.1,0,5.6,2.3,10.4,6.1,13.6l28.6-16.5c-1.3-8.2-7.5-14-16-14.2Z"/>
    <path class="st4" d="M2302.9,2145.3c9.7.1,17.8-8.1,17.5-18-.3-9.7-7.5-16.8-17.4-16.8-9.7,0-17.3,7.4-17.3,16.7,0,11.1,6.6,18,17.1,18.2Z"/>
    <path class="st4" d="M1932,2452.5c9.4.3,17.3-7,17.7-16.5.4-9.6-7.6-18.2-17.3-18.4-9-.2-17.5,7.7-18,16.6-.5,9.6,7.5,17.9,17.6,18.2Z"/>
    <path class="st4" d="M2010.7,2251.8c.4-9.6-7-17.2-16.8-17.2-8.7,0-16.3,7.5-16.6,16.3-.3,9.5,6.1,16.5,15.5,16.9,10.1.4,17.5-6.2,17.9-16Z"/>
    <path class="st4" d="M2426.4,2174c-9.2,0-16.4,7.3-16,16.3.3,8.1,7.8,14.8,16.4,14.6,8.4-.1,15.8-7,16.2-15.1.4-8.6-7.2-15.9-16.5-15.8Z"/>
    <path class="st4" d="M1979.6,2496.1l20.4-11.8c-1.9-.9-3.9-1.5-6.1-1.6-7.5-.2-13.7,5.7-14.3,13.3Z"/>
    <path class="st4" d="M2180.8,2298.2c-7.9-.9-15.2,5.4-15.7,13.6-.5,7.7,5.2,14.3,13,15,8.1.7,15.4-5.5,15.9-13.6.5-7.4-5.5-14.2-13.2-15.1Z"/>
    <path class="st4" d="M2364.9,2113.4c-7.9-.2-14.1,5.6-14.5,13.4-.4,8.2,5.8,14.7,14.3,14.9,8.3.2,14.5-6.1,14.5-14.7,0-7.6-6.1-13.4-14.3-13.6Z"/>
    <path class="st4" d="M2302.4,1834.4c8.8,0,14.8-5.8,14.8-14.4,0-8.2-5.5-13.9-13.7-14-8.7-.1-15.2,5.9-15.1,14.2.1,7.7,6.5,14.2,13.9,14.2Z"/>
    <path class="st4" d="M2227.9,2190c.3,7.7,5.7,12.6,13.6,12.5,7.6,0,13.3-5.9,12.9-13.1-.4-7.3-6.4-12.9-13.6-12.8-7.3.2-13.1,6.2-12.9,13.3Z"/>
    <path class="st4" d="M2056,2422.6c-7.4,0-13.3,5.8-13.4,13-.1,6.9,6.2,13.1,13.3,13.1,6.9,0,13.4-6.3,13.5-13.1,0-6.7-6.5-13.1-13.5-13.1Z"/>
    <path class="st4" d="M2364.8,2237.4c-7.1.3-13.4,6.9-13,13.7.4,7.2,6.8,13.1,13.8,12.6,7.3-.5,12.9-7,12.3-14-.5-6.4-7.1-12.5-13.1-12.2Z"/>
    <path class="st4" d="M2489.5,2116.2c-6.3-.5-13,5.2-13.4,11.6-.4,6.9,4.7,12.5,11.7,12.8,7,.3,12.6-4.9,12.8-11.9.2-5.8-5.4-12.1-11.1-12.5Z"/>
    <path class="st4" d="M2426.3,2140c6.3.2,12.7-5.9,12.7-12.2,0-6.2-6.3-12.4-12.7-12.3-6.2,0-11.3,5.2-11.6,11.7-.3,7.2,4.6,12.6,11.6,12.8Z"/>
    <path class="st4" d="M1987.5,2374.2c-1,3.8,2.4,6.9,6.4,6.9,3.7,0,6.9-3.1,6.9-6.8,0-3.6-3.4-7.3-8.7-7.2-1.2,1.7-3.8,4.2-4.6,7.1Z"/>
    <path class="st4" d="M2364.9,2011c3-.8,5.5-3.4,7.2-4.6.3-5.6-3-8.8-6.9-8.8-3.8,0-7.2,3-7.2,6.6,0,3.7,3.4,7.7,6.8,6.7Z"/>
    <path class="st4" d="M2241.1,2011.9c4.1,0,6.5-2.8,6.7-6.9.2-3.8-3-6.8-6.8-6.8-3.7,0-7.2,3.4-6.8,6.9.5,3.9,2.6,6.9,6.9,6.9Z"/>
    <path class="st4" d="M1932.1,2380.7c4.3-.2,6.5-2.9,6.8-7,.3-3.5-3.2-7.7-6.6-6.8-2.9.7-5.3,3.6-6.9,4.8-.2,5.5,3.1,9.2,6.7,9Z"/>
    <path class="st4" d="M1260.2,2166.9c-13.1,0-23.2,9.8-23.6,23-.4,11.9,11.4,23.9,23.2,23.7,12.9-.2,23.1-10.5,23.2-23.3.1-13.4-9.6-23.3-22.8-23.4Z"/>
    <path class="st4" d="M1198.7,2167c-12.5-.2-22.3,9.6-22.3,22.4,0,11.7,10,21.7,21.6,21.8,11.9,0,22.2-9.5,22.7-21.1.5-11.8-10-22.9-22-23.1Z"/>
    <path class="st4" d="M1321.4,2352.3c-12,.3-21.8,10.4-21.7,22.2.2,12.4,10.7,22.2,23.3,21.8,12-.4,21.3-10.5,20.9-22.7-.4-12-10.5-21.6-22.5-21.3Z"/>
    <path class="st4" d="M1630.6,2413.4c-11.8.1-21.7,10.2-21.6,22.1,0,13,9.9,22.4,22.9,21.8,12-.5,21.5-10.6,21.2-22.6-.3-11.8-10.4-21.5-22.4-21.3Z"/>
    <path class="st4" d="M1692.9,2335c12.4-.3,21.7-9.7,21.6-21.9-.1-12.3-9.5-21.9-21.6-22-12.6-.1-22.3,9.9-22.1,22.8.2,12.5,9.5,21.5,22.1,21.2Z"/>
    <path class="st4" d="M1507.4,2413.3c-12.1,0-22.6,10.6-22.4,22.8.2,11.3,10.9,21.4,22.6,21.2,12.4-.2,21.3-9.4,21.3-22.1,0-12.3-9.4-21.8-21.5-21.9Z"/>
    <path class="st4" d="M1383.3,2475.1c-11.7,0-21.7,10.2-21.9,22.1-.1,11.8,9.8,21.6,22,21.8,13,.2,21.8-8.3,22-21.1.2-12.9-9.4-22.9-22.1-22.9Z"/>
    <path class="st4" d="M1321.9,2475.2c-12.7.5-22.7,10.9-22.2,23.1.5,11.9,10.7,21.3,22.7,21,12.2-.3,21.7-10.1,21.4-22.2-.2-12-10.6-22.3-22-21.8Z"/>
    <path class="st4" d="M210.1,2290.5c-6.3-.1-11.6,1.7-15.3,5.1l36.4,21c.3-1.4.5-2.8.5-4.2.2-11.7-9.7-21.7-21.6-21.9Z"/>
    <path class="st4" d="M973,2742.3c-.5-11.6-11-21.7-22.5-21.5-4.4,0-8.5,1.7-12,4.3l34.5,19.9c0-.9,0-1.8,0-2.7Z"/>
    <path class="st4" d="M1754.3,2290.8c-11.8,0-21.7,9.8-21.8,21.7-.1,11.8,9.7,22,21.4,22.3,12.3.3,22.5-10.1,22.3-22.5-.2-12.2-9.6-21.4-21.9-21.5Z"/>
    <path class="st4" d="M1754.5,1798.9c-12,.1-21.8,9.8-22,21.7-.1,12.2,9.3,22.1,21.2,22.4,11.9.3,22.1-9.2,22.5-21.1.4-12.6-9.5-23.1-21.8-23Z"/>
    <path class="st4" d="M703,2536.3c-11.4.2-21.7,10.9-21.7,22.5,0,11.1,11.1,21.8,22.5,21.7,12.4,0,22.4-10.7,21.9-23.2-.5-12-10.5-21.2-22.8-20.9Z"/>
    <path class="st4" d="M394.6,2230c-11.9,0-21.7,10-21.8,21.9,0,12.1,9.2,21.2,21.8,21.5,12.3.3,22.1-8.8,22.3-21,.2-12.6-9.7-22.6-22.3-22.5Z"/>
    <path class="st4" d="M1816.8,2229.3c-11.7-.6-21.9,8.8-22.6,21-.7,11.8,8.7,22.1,20.8,22.6,12.1.6,22.5-8.5,23.3-20.3.8-12.3-8.7-22.7-21.5-23.4Z"/>
    <path class="st4" d="M1692.6,2044.9c-11.9,0-21.6,9.8-21.7,21.8-.1,12.4,8.9,21.9,21.2,22.3,11.7.4,22.3-9.5,22.6-21.1.3-12.6-9.6-23-22-23Z"/>
    <path class="st4" d="M1568.1,2044.9c-11.5.5-21.5,11.2-21.3,22.8.2,11.8,10.4,21.4,22.6,21.2,11.9-.1,21.9-10.1,22-22,0-11.9-11.2-22.7-23.3-22.1Z"/>
    <path class="st4" d="M580.1,2229c-12,0-21.8,9.6-22.2,21.6-.3,11.6,9.5,21.8,21.5,22.1,12.3.3,22.4-8.8,22.8-20.7.4-12.3-9.8-23-22.1-23Z"/>
    <path class="st4" d="M1136.2,2474.6c-12.2,0-21.7,10.5-21.3,23.4.4,12.5,9.6,21.2,22.2,20.9,12.7-.4,20.9-9.3,20.7-22.3-.2-12.6-9.5-22-21.6-21.9Z"/>
    <path class="st4" d="M1815.4,1983.3c-12.2.3-21.4,10-21.2,22.3.2,12.3,9.6,21.3,22.1,21.3,12.4,0,22-9.5,22-21.5,0-12.5-10.2-22.3-22.9-22Z"/>
    <path class="st4" d="M1445.7,2167.7c-12,0-22.7,10.8-22.4,22.8.3,12.2,11,21.8,23.6,21.2,11.3-.6,20.6-10.4,20.4-21.7-.2-11.8-10.3-22.2-21.6-22.3Z"/>
    <path class="st4" d="M209.2,2044.3c-12.4,0-21.3,9.1-21.3,21.8-.7,13.8,11,22,21.2,22.2,11.8.2,22.4-10.2,22.7-21.5.3-12.1-10.1-22.5-22.6-22.5Z"/>
    <path class="st4" d="M1693.4,2598.5c-12.1-.3-21.9,8.8-22.5,21-.7,12.9,7.2,21.8,20.2,22.6,12.8.9,22.8-8.1,23.4-21.1.6-11.7-9.4-22.3-21.1-22.5Z"/>
    <path class="st4" d="M1630.7,1902.5c12.1,0,20.9-8.6,21-20.6,0-11.5-9.4-21.2-20.7-21.4-10.9-.2-21.1,10-21.2,21.1-.1,11.7,9,20.8,21,20.8Z"/>
    <path class="st4" d="M1383.2,2025.7c11.9.6,21.6-8.1,21.8-19.8.2-11.2-9.6-21.4-20.7-21.8-11.6-.3-20.5,7.8-21.3,19.3-.9,13.3,6.7,21.6,20.2,22.3Z"/>
    <path class="st4" d="M1136.5,2661c-12.1,0-21.2,8.7-21,20.5.1,11.6,9.5,21.2,20.8,21.3,11.1.1,20.9-9.7,20.9-21.1,0-12.2-8.4-20.6-20.7-20.7Z"/>
    <path class="st4" d="M85.9,1984.1c-11.2,0-21.6,10.1-21.5,21,0,11.5,9.3,20.2,21.6,20.3,12.2.1,21-8.4,21.2-20.4.2-11.4-9.5-20.8-21.3-20.9Z"/>
    <path class="st4" d="M1012.6,2230.9c-12.1.1-20.6,9.2-20.2,21.4.4,11.1,9.6,19.8,20.9,19.7,10.5,0,20.4-9.9,20.6-20.4.2-11-9.9-20.8-21.3-20.7Z"/>
    <path class="st4" d="M1074.3,2169.5c-11.7.2-19.9,8.3-20,20-.1,11.6,9.1,20.4,21.3,20.1,10.7-.2,20-10.1,19.6-20.8-.4-11.3-9.2-19.5-20.9-19.3Z"/>
    <path class="st4" d="M1383.9,2784.4c-11.2-.2-20.2,8.5-20.4,19.8-.3,11.3,8.1,20.5,19.2,21,11.5.6,20.8-8.5,21-20.5.2-11.3-8.4-20.1-19.8-20.3Z"/>
    <path class="st4" d="M1074.7,2086.1c10.9,0,20.4-9.3,20.4-20.1,0-10.7-9.8-20.4-20.4-20.3-11.1.1-20.1,9.3-20.1,20.4,0,11.5,8.5,19.9,20.2,20Z"/>
    <path class="st4" d="M1445,2600.4c-11.4.3-20.3,9.4-20.1,20.5.2,10.4,10.5,20.5,20.7,20.3,11.1-.2,19.6-9.3,19.5-20.9,0-11.6-8.8-20.2-20.1-19.9Z"/>
    <path class="st4" d="M168.2,2251.3c0-10.6-9.7-20.2-20.5-20.1-11.5,0-20.1,8.5-20.3,20.1,0,2.1.2,4.1.8,6l23.4,13.5c9.2-2,16.7-10.2,16.7-19.4Z"/>
    <path class="st4" d="M1136.7,2024.4c10.4.2,20-9.6,19.9-20.5,0-10.5-8.6-19.3-19.3-19.7-11.3-.5-21,8.3-21.2,19-.2,11.7,8.7,20.9,20.6,21.2Z"/>
    <path class="st4" d="M1877.8,2416.1c-11.3,0-20.1,9-19.9,20.3.1,10.8,9.8,20.3,20.5,20.1,10.3-.2,20.5-10.6,20.3-20.7-.2-10.6-9.9-19.7-20.9-19.6Z"/>
    <path class="st4" d="M1198.4,2538.3c-11.5,0-21.4,10.2-20.9,21.3.4,10.3,9.6,18.7,20.5,18.8,11.7.1,20.4-8.3,20.4-19.8,0-11.5-8.8-20.5-20.1-20.4Z"/>
    <path class="st4" d="M1878,2170.1c-11.6-.1-19.9,8.2-20.1,19.9-.2,11.4,8.4,19.8,20.2,19.9,11,0,20.9-9.4,20.7-19.8-.2-10.4-10-19.8-20.8-19.9Z"/>
    <path class="st4" d="M703.7,2455.4c11.4,0,20.6-8.9,20.5-19.8,0-10.8-9.3-20.1-20.2-20.3-10.6-.2-20.5,9.3-20.6,20-.1,10.9,9.2,20.1,20.3,20.1Z"/>
    <path class="st4" d="M889.9,2169.6c-11.6-.4-20.5,7.8-20.9,19.4-.4,10.4,8.4,20.7,18.2,21.3,11.7.7,21.7-8.3,22-20,.4-12-7.4-20.3-19.3-20.7Z"/>
    <path class="st4" d="M1136.4,2147.3c11,0,20.6-9.6,20.3-20.1-.3-10.7-10.1-20.5-20.5-20.4-10.9.1-20.9,10.9-20.3,21.8.6,10.3,9.8,18.7,20.4,18.7Z"/>
    <path class="st4" d="M1012.6,2661.8c-11,0-20,9.4-19.9,20.4,0,10.9,9.6,20.2,20.5,20.1,10.3-.1,20.4-10.6,20.1-20.7-.3-11-9.6-19.9-20.7-19.8Z"/>
    <path class="st4" d="M1322.3,2784.4c-11-.2-20.4,8.9-20.6,19.9-.2,11.4,8.7,20.9,19.6,20.8,10.9,0,20.7-9.5,20.9-20.1.2-11.1-8.8-20.5-19.9-20.7Z"/>
    <path class="st4" d="M1136.7,2353.7c-10.5-.3-20.3,9.1-20.6,19.9-.3,11,8.6,19.8,20,19.9,11.7.1,20.2-7.9,20.6-19.4.3-10.7-8.9-20.1-20-20.4Z"/>
    <path class="st4" d="M1198.5,2784.5c-10.7,0-20.6,9.3-21,19.8-.4,10.7,8.8,19.8,20.2,20,11.8.2,20.2-7.7,20.6-19.3.4-10.9-8.8-20.4-19.8-20.4Z"/>
    <path class="st4" d="M332.9,2046.2c-10.6-.1-20,8.5-20.6,18.9-.6,10.6,8.9,20.6,19.9,20.9,11.6.4,20.8-8.2,20.9-19.5.2-11.1-8.8-20.2-20.2-20.4Z"/>
    <path class="st4" d="M332.2,2353.7c-7.3.2-13.9,4.9-17.3,11.4l34.8,20.1c2.1-3.1,3.4-6.8,3.4-10.9.2-11.6-9.3-20.9-21-20.6Z"/>
    <path class="st4" d="M765.5,2415.7c-11.5.3-19.9,8.9-19.7,20.3.2,11.5,9,20.3,20.2,20.1,10.8-.2,19.9-9.6,19.8-20.7,0-11.1-9.3-20.1-20.3-19.8Z"/>
    <path class="st4" d="M1260.4,2416c-11.8,0-20,8.3-20.1,20.1,0,11.2,9.2,20.5,20.2,20.3,9.9-.2,19.5-9.7,19.9-19.8.4-10.7-9.2-20.6-20-20.5Z"/>
    <path class="st4" d="M1259.9,1964.1c11.5,0,20.4-8.8,20.3-20,0-11-9.5-20.1-20.6-19.9-11.6.2-19.8,9-19.5,20.7.4,11.1,8.7,19.2,19.7,19.2Z"/>
    <path class="st4" d="M456.6,2353.8c-11,0-19.9,9-20,20.3-.1,11.7,8,19.7,20,19.8,11.5,0,20.3-8.6,20.1-19.8-.2-11.2-9.2-20.2-20.1-20.2Z"/>
    <path class="st4" d="M1692.8,2025.2c11.7-.1,19.9-8.4,19.9-20,0-11.1-8.8-19.7-20.3-19.8-11.5,0-19.7,8.4-19.7,20.2,0,12,8,19.8,20.1,19.6Z"/>
    <path class="st4" d="M1074.3,2599.6c-10.6.2-19.7,9.2-19.9,19.4-.2,11.2,8.7,20.3,19.9,20.5,10.9.2,20.9-9.3,20.8-19.8,0-10.5-10.3-20.3-20.8-20.1Z"/>
    <path class="st4" d="M951.5,2599.9c-11.1-.2-20.8,9-20.8,19.8,0,10.8,9.5,20.5,20.3,20.6,9.9.2,19.5-9.2,19.8-19.5.4-11.4-8.2-20.7-19.3-20.9Z"/>
    <path class="st4" d="M951,2353.4c-10.9,0-20.5,9.4-20.4,20.3,0,11.2,8.9,19.5,20.8,19.6,11.4,0,19.7-8.8,19.4-20.6-.3-10.7-9.1-19.3-19.8-19.3Z"/>
    <path class="st4" d="M951.7,2230.8c-11.6-.2-20.7,8.1-21.1,19.3-.4,10.7,9,20.1,20.2,20.4,11.1.3,20-8.7,20.1-20.2,0-11-8-19.3-19.2-19.5Z"/>
    <path class="st4" d="M1630.4,2332.4c11.5,0,20.8-8.6,20.9-19.6,0-11.3-8.8-20.2-20.2-20.3-11.4-.2-19.7,8.4-19.8,20.3,0,11,8.3,19.5,19.2,19.6Z"/>
    <path class="st4" d="M889.1,2354.2c-10.6,0-19.3,8.8-19.3,19.5,0,11,8.1,19.3,19.1,19.5,11.5.2,19.6-7.4,19.8-18.5.3-11.4-8.4-20.5-19.6-20.5Z"/>
    <path class="st4" d="M827.5,1985.4c-10.8,0-19.4,8.3-19.6,19-.2,10.8,8.1,19.6,18.8,19.9,10.9.3,20.2-8.7,20.4-19.8.2-10.4-8.7-19.1-19.5-19.2Z"/>
    <path class="st4" d="M1815.6,2477.5c-10.3.2-19.4,9.6-19.1,19.8.2,10.6,9.1,19.2,19.7,19.2,11.2,0,19.8-9,19.5-20.4-.3-10.5-9.3-18.9-20-18.6Z"/>
    <path class="st4" d="M889.5,2538.7c-11.1.1-19.6,8.4-19.7,19.3-.2,10.8,8.4,19.6,19.3,19.8,10.6.2,19.6-8.7,19.7-19.3,0-10.9-8.7-19.9-19.2-19.8Z"/>
    <path class="st4" d="M1321.5,2209.2c10.7.2,19.5-8.5,19.7-19.3.2-10.8-8.2-19.5-19.1-19.8-10.4-.2-19.6,8.7-19.7,19.2,0,10.7,8.6,19.6,19.1,19.8Z"/>
    <path class="st4" d="M1755,2538.9c-10.3-.4-19.8,8.7-20.2,19.1-.4,10.5,8.5,19.8,19,19.9,10.8.1,19.9-8.3,20.3-18.8.4-10.2-8.7-19.9-19.1-20.3Z"/>
    <path class="st4" d="M1259.9,2784.9c-10.5.1-19,9.1-19.1,20,0,11,8.2,19.1,19.5,18.9,10.7-.1,19.7-9,19.5-19.4-.2-9.9-10.1-19.7-19.9-19.6Z"/>
    <path class="st4" d="M1260.2,1985.8c-10.1-.3-19.4,9.1-19.4,19.6,0,11.4,7.9,19.5,19.1,19.6,11,0,19.9-8.5,19.9-19.1,0-10.1-9.5-19.8-19.5-20.2Z"/>
    <path class="st4" d="M1279.6,2374.3c-.1-10.1-9.5-19.3-19.9-19.4-10.5,0-19,8.8-18.9,19.7,0,11,7.4,18.6,18,19,11.5.4,20.9-8.3,20.8-19.3Z"/>
    <path class="st4" d="M950.6,2331.4c11,.2,19.4-8,19.6-19.1.2-11.1-8-19.7-18.8-20-10.6-.2-19.6,8.3-20.1,19-.5,9.8,9.3,19.9,19.3,20Z"/>
    <path class="st4" d="M1444.5,2454.9c10.8.5,19.9-7.8,20.2-18.4.3-10.9-8-20-18.5-20.3-10.3-.2-20.3,8.8-20.5,18.6-.3,10.7,8.1,19.6,18.9,20.1Z"/>
    <path class="st4" d="M1260.6,2477.9c-11,0-19.5,8.2-19.7,19.1-.2,11.3,7.7,19.6,18.7,19.8,10.8.2,19.8-8.2,20.1-18.7.3-10-9.3-20.2-19.1-20.2Z"/>
    <path class="st4" d="M1877.7,2393.5c11.4,0,19.4-7.8,19.6-18.9.2-11-8.1-19.6-19-19.6-10.9,0-19.8,8.6-19.7,19.1,0,11.4,8,19.4,19.1,19.3Z"/>
    <path class="st4" d="M1631,2661.7c-10.6-.3-19.3,8.2-19.4,19.2-.1,9.5,6,17.1,14.8,19.1l23.5-13.5c.6-1.7.9-3.4.9-5.1.1-10-9.3-19.3-19.7-19.6Z"/>
    <path class="st4" d="M1257.6,2909.1l3.2,1.8,2.8-1.6c-1.1-.2-2.2-.3-3.4-.3-.9,0-1.8,0-2.6.1Z"/>
    <path class="st4" d="M1897.3,2251.8c.3-10.5-8.4-19.6-19.1-19.8-10.2-.3-19.2,8.7-19.6,19.4-.3,11,8,19.5,19,19.5,11,0,19.4-8.2,19.7-19.1Z"/>
    <path class="st4" d="M1878.2,2478.3c-11.2.2-19.6,8.3-19.7,19.1-.1,11,8.1,19.4,19.2,19.5,11.1,0,19.6-8.1,19.7-18.9,0-10.8-8.7-19.8-19.1-19.6Z"/>
    <path class="st4" d="M1197.7,2516.5c10.5.4,20-8.6,20-19,0-10.9-8.3-19.8-19-20.1-10.5-.3-19.7,8.5-20.1,19.1-.4,10.5,8.2,19.5,19.1,20Z"/>
    <path class="st4" d="M702.5,2146.7c11.7.4,21.1-8.2,21.1-19.2,0-10.7-8.6-19.3-19.5-19.5-10.8-.2-19.4,8.3-19.5,19.2,0,10.5,7.9,19.1,17.9,19.4Z"/>
    <path class="st4" d="M908.7,2681.8c.2-10.5-8.6-19.5-19.1-19.8-10.7-.2-19.6,8.4-19.7,19.2,0,1.5.2,3,.5,4.5l24.8,14.3c8.1-2.2,13.5-9,13.6-18.2Z"/>
    <path class="st4" d="M1260.3,1902.2c10.2-.2,19.5-9.7,19.4-19.8-.2-10.2-9.6-19.3-19.8-19.3-10.4,0-19.1,9-19,19.8,0,10.7,9,19.5,19.5,19.4Z"/>
    <path class="st4" d="M333.6,2024c10.8-.5,19.1-9.4,18.8-20.1-.3-10.8-8.9-18.9-19.9-18.7-10.6.2-19,9.1-18.7,19.9.3,10.9,9.2,19.4,19.8,18.9Z"/>
    <path class="st4" d="M1403,2127.3c-.5-9.9-9.6-18.3-19.5-18.1-10.7.2-19.7,9.4-19.3,19.6.4,11,8.7,18.6,20.2,18.4,10.8-.2,19.2-9.2,18.7-20Z"/>
    <path class="st4" d="M333.4,2292.7c-10.3-.5-19.6,8.5-19.6,19,0,11.2,7.9,19.7,18.7,19.9,10.5.2,19.8-8.6,20-18.9.2-10.2-8.7-19.5-19.1-20Z"/>
    <path class="st4" d="M1136.2,2046.5c-10.5.1-19.1,9-19,19.8,0,10.5,8.1,18.8,18.3,18.9,11.5.1,20.7-8.6,20.6-19.6-.1-10.1-9.6-19.2-19.9-19.1Z"/>
    <path class="st4" d="M766.1,2539.4c-11.2,0-19.6,8-19.7,19.1,0,10.8,8.5,19.3,19.4,19.3,10.2,0,19-8.3,19.4-18.3.4-10.1-9-19.9-19.2-20Z"/>
    <path class="st4" d="M1507.1,1962.7c10.3-.8,19.2-6.7,19.3-19.6,0-11.4-7.8-19.4-19.1-19.4-11.4,0-19.4,8-19.5,19.2,0,10.7,9.1,20.6,19.3,19.7Z"/>
    <path class="st4" d="M394.4,2209.5c10.9.1,20-8.3,20.2-18.7.2-9.9-9.3-19.9-19.2-20.2-10.2-.3-19.5,8.6-19.9,19.2-.4,10.7,8.1,19.6,19,19.7Z"/>
    <path class="st4" d="M826.8,2231.4c-10.6.4-19.2,9.7-18.6,20.1.5,9.5,9.9,18.8,19.4,18.5,11.9-.4,19-10.1,19.4-19.7-.2-9.8-10.3-19.3-20.2-18.9Z"/>
    <path class="st4" d="M1816.4,2293.3c-9.9-.2-20,9.9-19.7,19.6.3,10.8,9.1,19.2,19.9,18.9,11.4-.3,19-8.4,18.8-19.7-.2-9.5-9.5-18.7-19-18.8Z"/>
    <path class="st4" d="M1075.1,2661.8c-11.1-.3-20.1,8.8-20.2,20.2,0,9.4,9.2,18.2,19.2,18.5,11,.3,19.6-7.9,19.8-18.8.2-11-8-19.6-18.9-19.8Z"/>
    <path class="st4" d="M394,1901.8c10.2.4,20.1-8.6,20.4-18.7.3-9.8-9.3-19.5-19.4-19.7-10-.1-18.9,8.2-19.3,18.1-.4,11,7.5,19.8,18.3,20.3Z"/>
    <path class="st4" d="M1403,2313.1c.2-10-9.5-19.8-19.5-19.8-10.3,0-19.4,9.5-19.2,19.8.3,10.5,8.3,18.5,18.7,18.7,11.2.2,19.7-7.8,19.9-18.8Z"/>
    <path class="st4" d="M1197.4,2600.7c-10.7.3-19.3,9.7-18.7,20.3.6,10.6,10,18.7,20.8,18.1,10.3-.6,18.3-9.2,18.1-19.6-.2-10.6-9.4-19.1-20.2-18.8Z"/>
    <path class="st4" d="M1198.7,2762.1c10.3-.2,18.9-8.6,19-18.7,0-10-9.7-19.7-19.8-19.7-9.6,0-18.7,9.3-18.8,19.2-.1,10.6,8.9,19.4,19.7,19.3Z"/>
    <path class="st4" d="M1198.4,2392.9c10.1.1,18.6-8,19.1-18.3.5-10.4-8.1-19.7-18.7-20.1-10.2-.5-19.7,8.6-19.9,19.1-.2,10.3,8.8,19.2,19.5,19.3Z"/>
    <path class="st4" d="M1630.4,2477.6c-9.8,0-18.4,8.9-18.6,18.9-.2,10.9,8.3,19.7,19,19.7,9.9,0,19.2-8.5,19.7-18.1.6-10.3-9.5-20.6-20.1-20.5Z"/>
    <path class="st4" d="M271.5,2170.1c-10.9,0-19.5,8.2-19.6,18.9,0,10.4,9.1,19.5,19.6,19.2,10.1-.2,19-8.8,19.1-18.5.1-10.5-8.6-19.5-19.1-19.6Z"/>
    <path class="st4" d="M1629.9,2270.2c10.3.4,19.8-8.3,20.4-18.7.6-9.7-8.9-19.6-19.2-19.9-9.9-.3-18.7,8-19.3,18.1-.6,10.8,7.6,20.1,18.1,20.5Z"/>
    <path class="st4" d="M1712,2128.7c0-10.3-9.2-19.2-19.8-19.2-10.3,0-19,9.1-18.9,19.8,0,10.2,8.2,18.1,18.8,18.3,11,.2,19.8-8.3,19.8-18.9Z"/>
    <path class="st4" d="M641.8,2415.8c-11,.2-19,8.7-18.7,19.9.3,11.2,8.5,19,19.8,18.7,10.1-.2,18-8.7,18-19.2,0-11.1-8.4-19.6-19.2-19.4Z"/>
    <path class="st4" d="M1549.9,2743.3c0,.3,0,.5,0,.8l29.7-17.1c-3.1-1.9-7.1-2.9-11.6-2.8-10.4.1-18.1,8.3-18.1,19.2Z"/>
    <path class="st4" d="M395.5,2356.1c-11.4-.2-19.7,7.6-19.8,18.5,0,10.5,7.7,18.7,18,18.9,11.8.3,20.8-7.9,20.7-19,0-9.6-8.9-18.2-18.9-18.4Z"/>
    <path class="st4" d="M1693.9,2356.2c-11.5-.5-20,6.8-20.6,17.6-.5,10.5,7,18.9,17.2,19.6,14.9,1,20.7-9,21.4-18.3.8-10.1-7.7-18.5-18.1-19Z"/>
    <path class="st4" d="M1755.6,1863.3c-10.3-.6-19.9,8.2-20.5,18.8-.5,10.1,9,19.8,19.4,19.7,9.8-.1,19-9.1,19.2-18.7.2-9.8-8.4-19.2-18.2-19.8Z"/>
    <path class="st4" d="M1690.6,2577.8c11.6.9,20.9-6.9,21.4-18.2.5-9.7-7.8-18.6-18-19.3-11.1-.7-20.3,7.1-20.7,17.6-.4,10.4,7.1,19.1,17.2,19.9Z"/>
    <path class="st4" d="M1383.9,2540.3c-10.6,0-19.3,7.6-19.7,17.5-.5,11.2,8.3,20.1,19.7,20.1,10.3,0,18.7-8,19-18.2.3-10.8-8.1-19.4-19.1-19.5Z"/>
    <path class="st4" d="M85.3,2231.6c-.4,0-.8,0-1.2,0l16.4,9.5,2.6,1.5c-3-6.9-9.6-11.2-17.8-11.1Z"/>
    <path class="st4" d="M456.3,2270.3c10.3,0,19.9-9.4,19.7-19.6-.2-9.5-9.8-19.1-19.1-19.1-10.2,0-19.8,9.7-19.6,19.8.2,9.9,9.2,18.9,18.9,18.9Z"/>
    <path class="st4" d="M1569.2,2109.5c-11.2,0-19.3,8.3-19.1,19.5.2,11.1,8.6,18.8,20,18.4,11-.4,17.8-7.8,17.6-19.3-.2-11-7.9-18.7-18.5-18.7Z"/>
    <path class="st4" d="M1074.6,2292.9c-10.5,0-19.7,9.2-19.3,19.3.4,10.5,9.6,19.4,20,19.1,10-.3,18.3-8.9,18.5-19,.2-10.6-8.5-19.4-19.2-19.4Z"/>
    <path class="st4" d="M1321.2,2539.9c-10,.2-18.5,8.9-18.6,19.1,0,10.8,8.7,19.2,19.7,18.9,10.8-.3,18.9-8.5,18.6-18.8-.3-11.1-8.8-19.4-19.8-19.2Z"/>
    <path class="st4" d="M147,2108.8c-9.7.2-18.7,9.4-18.8,19.2,0,10.5,9,19.2,20,19,10-.1,18.8-9,18.7-19,0-10.4-9.5-19.5-20-19.2Z"/>
    <path class="st4" d="M1198.2,2146.2c10.8.4,19.6-8.3,19.5-19.2-.1-10-8.8-18.4-19.2-18.5-10.1-.2-19,8.2-19.5,18.3-.5,10.7,7.7,19.1,19.3,19.5Z"/>
    <path class="st4" d="M1425.8,2558.2c-.5,10.1,8.8,19.5,19.4,19.7,10.2.2,19-8.2,19.3-18.2.3-10.3-7.7-19.1-17.9-19.7-10.7-.6-20.3,7.7-20.8,18.2Z"/>
    <path class="st4" d="M1754,2356c-10.4.1-19.1,8.6-18.9,18.5.2,10.8,8.9,19.2,19.9,18.9,10.4-.2,18.7-8.5,18.7-18.7,0-11-8.3-18.9-19.7-18.7Z"/>
    <path class="st4" d="M1507,2146.7c12.1-.5,19.2-7.6,19.2-19.2,0-11-8.3-18.8-19.8-18.7-10.4.1-17.9,8.2-17.7,19.3.2,11.1,8,19,18.3,18.6Z"/>
    <path class="st4" d="M1526.3,2251.3c.2-10.6-8.8-19.7-19.3-19.6-10.4.1-18.2,8.3-18.3,19,0,11.3,8.3,20.1,18.9,19.8,10.1-.3,18.5-8.9,18.7-19.1Z"/>
    <path class="st4" d="M1445.4,2232.2c-9.4-.7-20,10.5-19.7,19.9.4,9.3,10.1,18.6,19.6,18.5,10.9,0,19.4-8.8,19.2-19.7-.2-10.5-8.4-18-19.1-18.8Z"/>
    <path class="st4" d="M1013.4,2454.4c10.5-.5,18.7-8.8,18.6-19,0-10.6-9.2-19.4-19.9-19.1-10.1.2-18.7,9.2-18.4,19.2.3,11.2,8.9,19.6,19.7,19Z"/>
    <path class="st4" d="M456.2,2085.6c10.2.2,19.7-9.1,19.8-19.4,0-9.3-9.3-18.8-19-19.1-10.3-.3-19.3,8.7-19.5,19.6-.2,9.5,8.9,18.7,18.7,19Z"/>
    <path class="st4" d="M1321.1,1963.3c10.2.3,19.7-9,19.8-19.4,0-9.8-8.9-19.1-18.5-19.3-10.1-.2-19.9,9.4-19.8,19.4.1,9.9,8.8,19,18.5,19.3Z"/>
    <path class="st4" d="M210.3,1962.9c10,0,18.6-9.9,18.1-20.9-.4-10-9.2-18-19.8-17.8-10.1.2-18.5,9-18.2,19.2.3,10.9,9.1,19.5,19.8,19.5Z"/>
    <path class="st4" d="M951.3,2207.3c10.8-.2,18.9-8.1,18.9-18.4,0-11.1-8.4-19.2-19.6-19-10.7.2-19,8.8-19,19.8,0,9.7,9,17.8,19.7,17.6Z"/>
    <path class="st4" d="M1507.3,2477.6c-10.7.1-18.9,8.9-18.8,20.1,0,10.4,8.4,18.6,18.8,18.6,10.7,0,19-8.8,18.9-19.8-.1-9.8-9.3-19-18.9-18.9Z"/>
    <path class="st4" d="M1012.6,2639.3c10.5,0,19.6-9.2,19.4-19.5-.2-10-8.6-17.9-19.2-18.1-11-.2-19.2,7.5-19.1,17.8.1,11.4,8.1,19.8,18.9,19.8Z"/>
    <path class="st4" d="M1444.9,2724.6c-10,.2-19.5,9.5-19,18.6.6,10.9,9.5,19.5,19.8,19.3,10.5-.2,19.2-9.6,18.8-20.2-.4-10-9.2-17.9-19.7-17.7Z"/>
    <path class="st4" d="M1136.1,1961.6c10.7,0,19.7-8.8,19.8-19.3,0-9.4-9.1-18.3-19.1-18.5-10.2-.2-18.9,7.9-19.4,18-.5,10.9,8,19.8,18.7,19.8Z"/>
    <path class="st4" d="M1630.5,1924.6c-10.1,0-18.3,8.5-18.5,18.9-.2,9.8,8.6,19,18.4,19.2,9.4.2,19.2-9,19.4-18.4.2-10.3-9-19.7-19.3-19.6Z"/>
    <path class="st4" d="M1073.6,2023.2c11.5.5,19.9-7.1,20.2-18.3.2-10.3-7.9-19-18.1-19.6-11.1-.6-19.8,7.6-19.9,18.6,0,11.2,6.9,18.7,17.8,19.2Z"/>
    <path class="st4" d="M1816.4,2540.4c-10.7,0-19.2,7.8-19.5,17.8-.3,9.7,9.6,19.4,19.8,19.2,9.8-.1,18.4-8.9,18.5-18.9,0-10.3-8-18.1-18.8-18.2Z"/>
    <path class="st4" d="M580,2293.7c-9.2,0-17.6,8.5-17.8,18.1-.2,11,7.4,19.2,17.7,19.1,10.5-.1,18.7-8.1,18.8-18.3,0-9.1-9.6-18.9-18.7-18.9Z"/>
    <path class="st4" d="M1569.8,2602.2c-10.4-.2-19,7.8-19.3,17.9-.2,10.2,8.3,18.9,18.4,18.9,9.7,0,18.2-8,18.5-17.5.3-10.9-7.2-19.2-17.6-19.4Z"/>
    <path class="st4" d="M1569.8,2392.9c9.9-.4,17.5-8.4,17.5-18.5,0-10.3-8.6-18.5-19-18.1-9.8.4-17.8,8.7-17.6,18.4.2,10.4,8.9,18.6,19.1,18.2Z"/>
    <path class="st4" d="M270.2,2084.1c10.4.5,19-7.5,19.2-17.9.2-9.6-7.9-18.4-17.2-18.9-9.7-.5-19.3,8.4-19.6,18.2-.2,9.4,8,18.2,17.6,18.7Z"/>
    <path class="st4" d="M1198.5,1961c10.3,0,17.7-7.4,17.9-17.7.2-10.1-8.2-18.7-18.4-18.8-9.4-.1-17.5,8-18,18-.5,10.2,7.9,18.6,18.5,18.5Z"/>
    <path class="st4" d="M1687.9,2664.5c-3.2.9-6.2,2.6-8.6,4.9l8.6-4.9Z"/>
    <path class="st4" d="M1056.2,2559c.4,9.3,9.5,17.9,18.5,17.6,10.2-.3,18.2-9.1,17.8-19.4-.4-10.3-7.9-17.3-18.3-17-11,.3-18.5,8.1-18,18.8Z"/>
    <path class="st4" d="M1506.2,2663.4c-10.3.4-17.3,8-17.1,18.4.2,10.5,8.6,18.1,19.3,17.5,9.9-.5,17.5-8.7,17.2-18.5-.3-10.5-8.5-17.8-19.4-17.3Z"/>
    <path class="st4" d="M598.8,2498.2c.5-9.7-7-18.3-16.8-19.2-10.4-1-18.6,5.6-19.7,15.7-.8,7.3,2.3,13.9,7.6,17.6l2.5,1.4c1.9.9,4,1.5,6.2,1.7,10.2.8,19.7-7.2,20.3-17.1Z"/>
    <path class="st4" d="M888.5,1961.5c10.5.4,18.9-7.2,19.3-17.8.4-9-8.5-18.4-17.5-18.6-10.5-.2-18.7,7.7-18.9,18.2-.1,10.7,6.5,17.8,17.1,18.2Z"/>
    <path class="st4" d="M952.2,2663.5c-11.4.2-18.8,6.5-19.2,17.6-.3,10.1,6.9,18,17,18.7,9.9.7,19.2-7.9,19.6-17.8.2-9.3-8.3-18.7-17.4-18.5Z"/>
    <path class="st4" d="M86.1,1962c9.4,0,18.2-8.6,18.2-18,0-10-8.8-18.9-18.7-18.9-9.7,0-17.7,8-17.9,18-.2,10.6,7.8,18.8,18.4,18.9Z"/>
    <path class="st4" d="M766.4,2392.5c10.3-.5,17.4-8,17.4-18.4,0-10.3-7.4-17.7-17.8-17.8-10.6,0-19.2,8.2-19.1,18.3.2,10,9.3,18.4,19.5,18Z"/>
    <path class="st4" d="M889.3,2330.6c9.9.2,18.3-8.4,18.4-18.9.1-8.9-8.9-17.9-18.2-18.2-9.5-.4-18.2,8.8-18.1,19.2,0,9.9,7.8,17.7,17.9,17.9Z"/>
    <path class="st4" d="M209,2232.1c-8.7-.2-17.9,9.1-18,18.2-.1,9.8,8.9,18.6,19,18.4,9.6-.2,17.9-8.6,17.9-18,0-9.8-8.7-18.4-18.9-18.6Z"/>
    <path class="st4" d="M1259.4,2700.1c10.5.3,18.6-7.7,18.5-18.4,0-10.4-7.3-17.8-17.5-18-10.5-.1-18.8,7.9-18.8,18.3,0,9.6,8,17.7,17.8,18.1Z"/>
    <path class="st4" d="M149,1899.7c9.7-.4,17.7-8.9,17.3-18.4-.4-8.8-9.9-17.8-18.7-17.8-9.7,0-18.4,9.2-18.3,19.2.2,10.3,8.4,17.4,19.7,17Z"/>
    <path class="st4" d="M1878.2,1838.3c10.1,0,17.9-7.5,18.1-17.5.2-10.2-8.2-18.6-18.6-18.7-9.8,0-17.7,7.9-17.8,17.9-.1,11.1,7,18.3,18.3,18.3Z"/>
    <path class="st4" d="M1383.2,2760.8c10.6,0,19.1-8.1,19.2-18.1,0-9.8-9.1-18.1-19.5-17.7-9.1.3-18.2,9.4-18,18.2.1,9.2,9,17.6,18.4,17.5Z"/>
    <path class="st4" d="M1303.4,2312.4c-.6,9,8,18.3,17.2,18.8,10.3.5,18.9-7.6,19.1-17.8.2-10.6-6.6-18.1-16.8-18.5-10.5-.5-18.8,7-19.5,17.6Z"/>
    <path class="st4" d="M1012.6,2085.1c10.3-.2,18.8-8.9,18.5-18.8-.3-9.5-8.9-17.9-18.2-17.8-10.2.1-18.6,8.8-18.3,18.9.2,9.7,8.5,17.9,18.1,17.7Z"/>
    <path class="st4" d="M1878.4,2085.1c9.5-.2,17.9-8.7,17.9-18,0-10.3-8.3-18.2-18.8-18.1-10.3.1-17.5,7.4-17.6,17.8-.1,10.6,7.9,18.5,18.5,18.3Z"/>
    <path class="st4" d="M580.1,2145.8c10.9.1,18.7-7.5,18.5-18.1-.1-9.4-8.6-17.8-18-17.9-10.6,0-18.6,8-18.4,18.6.2,10.4,7.3,17.3,17.9,17.4Z"/>
    <path class="st4" d="M1507.7,1899.4c9.7-.2,17.8-8.4,17.9-18,0-10.2-8.5-18.2-19.1-18-9.7.3-17.5,8.7-17.1,18.5.4,9.9,8.5,17.6,18.3,17.4Z"/>
    <path class="st4" d="M889,2145.8c11.3,0,18.5-7,18.4-18.1,0-10.2-8.7-18.3-19-17.9-10,.4-17.1,8.2-16.9,18.6.2,11.1,6.6,17.4,17.5,17.5Z"/>
    <path class="st4" d="M1816.5,2049c-10.8,0-17.7,6.4-18.1,17-.5,11.4,6.3,18.5,17.7,18.5,10.1,0,18.4-7.4,18.6-16.9.3-10.3-7.7-18.6-18.2-18.7Z"/>
    <path class="st4" d="M1754.2,2110.2c-10.1,0-17.4,7.5-17.4,17.9,0,11.2,7,18.3,18.2,18.3,9.3,0,18-8.5,18.1-17.8.2-9.7-8.9-18.4-18.9-18.4Z"/>
    <path class="st4" d="M827.1,2145.7c10.4.1,18.1-7.1,18.5-17.3.3-9.7-7.8-18.5-17.3-18.8-9.6-.3-18.8,7.7-19.4,16.9-.7,9.9,8,19,18.2,19.2Z"/>
    <path class="st4" d="M827.5,2416.7c-9.8,0-18.8,9.1-18.5,18.8.3,9.8,8.1,17.2,18.3,17.3,10.8.1,18.4-7.5,18.2-18.3-.2-9.7-8.4-17.8-17.9-17.9Z"/>
    <path class="st4" d="M1075.7,1960.7c9.4-.4,16.6-8,16.7-17.8.1-9.6-8.4-18.4-17.7-18.3-10,.1-18.7,9.3-18.2,19.3.4,9.5,9.2,17.2,19.2,16.8Z"/>
    <path class="st4" d="M207.6,1899.5c9.8.9,18.9-6.4,19.9-16,1-9.7-6.4-18.8-16.1-19.8-10.1-1.1-19.4,7-20,17.3-.6,8.9,7.1,17.7,16.2,18.5Z"/>
    <path class="st4" d="M1136.2,2417.5c-9.7,0-18.2,8.4-18.3,17.7,0,9.8,7.8,17.6,18,17.8,10.1.2,18.6-7.4,18.9-17,.4-10.1-8.2-18.6-18.6-18.6Z"/>
    <path class="st4" d="M1320.8,2761.2c10.9.3,18.9-7.4,18.9-18.1,0-10.3-7.5-18.1-17.6-18.2-9.4-.1-18.6,8.5-18.8,17.6-.2,9.6,8.1,18.5,17.5,18.7Z"/>
    <path class="st4" d="M1569,2330.8c10.3,0,18.5-8.5,18.1-18.8-.3-9.6-8.6-17.1-18.6-16.9-9.6.2-17.9,8.6-17.6,18,.2,9.6,8.5,17.7,18.1,17.7Z"/>
    <path class="st4" d="M1446.3,2699.7c8.6-.3,17.5-9.2,17.6-17.6.1-9.9-9.2-18.8-19.2-18.3-9.9.5-17.6,8.9-17.1,18.8.5,10.1,8.5,17.4,18.8,17.1Z"/>
    <path class="st4" d="M828,2391.5c10-.1,17.3-8.1,17.1-18.4-.2-10.3-7.7-17.3-18.3-17-10.1.3-18,8.4-17.5,18.2.4,9.7,8.8,17.3,18.7,17.2Z"/>
    <path class="st4" d="M1569.9,2664.2c-9.8-.3-19,9-18.6,18.7.4,9.4,8.1,16.8,17.7,16.9,9.8,0,18-8.1,17.9-17.9-.1-9.3-7.9-17.5-16.9-17.7Z"/>
    <path class="st4" d="M1506.5,2171c-9.1.3-17.4,9.3-17.3,18.7.2,9.6,8.3,17.3,18.3,17.2,9.8,0,18-8.1,18-17.5,0-9.7-9.3-18.7-19-18.4Z"/>
    <path class="st4" d="M641.7,2540.9c-5.1,0-9.6,2.1-12.8,5.4l30.2,17.4c.6-1.8.9-3.6.8-5.5-.3-10.1-8.1-17.5-18.2-17.3Z"/>
    <path class="st4" d="M1013.3,2540.9c-10.3-.1-18.3,7.3-18.5,17.2-.2,9.3,8.2,18.3,17.4,18.8,8.8.4,18.1-8.6,18.5-17.9.4-9.9-7.5-18.1-17.4-18.2Z"/>
    <path class="st4" d="M1197.5,2699.4c10.6.2,18.9-7.8,18.8-18.1-.1-9.8-8-17.4-18-17.5-10.6,0-18.5,7.9-18.2,18.5.2,9,8.3,16.9,17.4,17.1Z"/>
    <path class="st4" d="M1877.4,2110.5c-10.1.2-17.4,8-17.3,18.4.2,10.6,7.2,17.2,18.2,17,10-.1,17.7-8,17.6-18.1,0-9.4-8.8-17.5-18.6-17.3Z"/>
    <path class="st4" d="M1013.5,2479.2c-10-.4-18.4,7.3-18.7,17-.4,10.4,6.8,17.8,17.2,18.1,10.6.2,18.8-7,18.9-16.6.1-10.1-7.5-18.1-17.4-18.5Z"/>
    <path class="st4" d="M1816.4,2110.6c-10.3-.3-17.6,6.9-17.8,17.6-.2,10.2,6.2,17.2,16.3,17.7,10.9.6,19.6-7.1,19.6-17.3,0-9.9-7.9-17.7-18-18Z"/>
    <path class="st4" d="M888.6,2514.3c10.8.2,18-6.4,18.4-16.9.4-10.2-7-18.1-17.2-18.4-10.4-.3-18,6.9-18.2,17.2-.2,10.9,6.3,17.9,17,18.1Z"/>
    <path class="st4" d="M704.1,2232.7c-9.3-.3-18.3,8.3-18.5,17.7-.2,9.6,7.8,17.7,17.9,17.9,10.2.3,17.9-7.2,18.1-17.4.2-10.2-7.3-17.8-17.5-18.1Z"/>
    <path class="st4" d="M412.6,2066.8c-.2-10.3-7.9-17.8-18-17.6-10.1.2-17.6,8.1-17.4,18.2.2,10.1,8.2,18,18,17.7,9.9-.3,17.6-8.4,17.4-18.4Z"/>
    <path class="st4" d="M394.5,1962.4c10.2-.3,17.8-7.9,18-18,.2-9.9-7.8-18.1-17.6-18.2-10.1,0-17.8,7.7-17.8,17.8,0,10.4,7.9,18.6,17.4,18.4Z"/>
    <path class="st4" d="M1092.4,2374c.3-10-7.5-17.9-17.6-18-10.6,0-18,6.9-18.3,17.3-.3,9.6,7.8,17.9,17.7,18.1,10.3.2,18-7.1,18.2-17.4Z"/>
    <path class="st4" d="M838.1,2667c-.9-.7-1.9-1.2-3-1.7l3,1.7Z"/>
    <path class="st4" d="M1754.8,2602.4c-10.2-.2-17.8,7.2-18,17.5-.1,5.4,1.9,10.1,5.3,13.3l30-17.3c-2.2-7.2-9.5-13.3-17.3-13.5Z"/>
    <path class="st4" d="M129.4,2066.9c.3,9.5,8.8,17.5,18.6,17.5,8.9,0,17.6-8.3,17.9-16.9.3-10.1-8.3-18.7-18.7-18.6-9.8.1-18.1,8.5-17.8,18Z"/>
    <path class="st4" d="M86.2,2049.2c-10.1,0-18,7.5-18.1,17.5-.1,9.4,7.3,17.2,16.8,17.5,9.9.4,18.6-7.4,18.9-16.9.4-9.6-7.8-18.1-17.6-18.1Z"/>
    <path class="st4" d="M456.4,2110.3c-10,.2-17.7,8.2-17.6,18,.1,10.1,7.6,17.3,18.1,17.3,10.8,0,17.3-6.7,17.2-17.6,0-10.1-7.8-17.9-17.7-17.7Z"/>
    <path class="st4" d="M1630.2,2049.4c-9.3.3-17.3,8.2-17.4,17.3,0,8.9,8.1,17.2,17.2,17.5,10.1.3,18.5-7.5,18.3-17.2-.1-10.1-8.2-17.8-18.2-17.6Z"/>
    <path class="st4" d="M1383.7,2638.4c9.2-.1,17-8,17-17.4,0-10.2-7.7-18.2-17.6-18.1-9.1,0-17.2,8.1-17.3,17.3-.1,9.5,8.5,18.3,17.9,18.2Z"/>
    <path class="st4" d="M1260,2577.1c8.9,0,17.2-8.1,17.6-17.2.5-9.7-7.6-18.2-17.4-18.3-9.4-.1-17.2,7.4-17.5,16.8-.3,9.8,7.9,18.6,17.3,18.6Z"/>
    <path class="st4" d="M1445.7,2295.7c-10.1,0-17.9,8-17.7,18,.2,9.6,7.8,17.3,17.1,17.2,9.6,0,18.3-8.7,18.2-18,0-8.4-9.1-17.2-17.6-17.2Z"/>
    <path class="st4" d="M1570.3,2577.1c8.5-.4,16.7-9.6,16.3-18.4-.3-9.6-8.1-17.2-17.4-17-9.5.2-18.2,9-18.1,18.2.2,8.9,9.9,17.7,19.1,17.2Z"/>
    <path class="st4" d="M1630.9,2541.3c-9.8,0-18.3,8.3-18,17.8.3,8.6,9.1,17.3,17.7,17.3,9.2,0,17.4-7.8,17.8-17,.4-10-7.3-18-17.5-18.1Z"/>
    <path class="st4" d="M765.6,2514.3c10.5,0,17.4-6.5,17.5-16.3.1-9.7-7.1-17.5-16.4-17.9-10-.4-18.5,7.1-19,16.7-.5,9.6,7.6,17.6,17.9,17.5Z"/>
    <path class="st4" d="M704.2,2294.8c-10-.2-18.1,7.5-18.2,17.3-.1,9.4,8.2,17.7,18,17.7,9.7,0,17.4-7.9,17.4-18.1,0-9-7.9-16.8-17.2-16.9Z"/>
    <path class="st4" d="M1506.9,2576.6c9.4,0,18.4-9,18.2-18.1-.2-9.7-8.7-17.6-18.7-17.2-9.3.3-16.8,8.2-16.8,17.6,0,8.8,8.8,17.8,17.2,17.7Z"/>
    <path class="st4" d="M1012.7,2725.6c-9.4-.1-17.9,8.7-17.7,18.3.2,9.2,8.5,17.1,17.6,16.9,10.1-.2,18.1-8.3,17.7-18.1-.3-9.2-8.4-17-17.6-17.1Z"/>
    <path class="st4" d="M641.9,2479.3c-9.5,0-17.5,7.8-17.7,16.9-.1,9.6,8.1,17.8,17.9,17.8,9.9,0,18.2-8.4,17.7-17.9-.4-8.8-9.1-16.9-18-16.8Z"/>
    <path class="st4" d="M209.3,2145.3c9.7.1,17.8-8.1,17.5-18-.3-9.7-7.5-16.8-17.4-16.8-9.7,0-17.3,7.4-17.3,16.7,0,11.1,6.6,18,17.1,18.2Z"/>
    <path class="st4" d="M1878.2,2541.6c-9.3-.2-17.1,7.2-17.7,16.7-.1,2.1.2,4.1.8,6.1l29.4-16.9c-3.1-3.5-7.5-5.7-12.5-5.8Z"/>
    <path class="st4" d="M1568.9,2207.3c10.4,0,18.2-7.6,17.9-17.5-.3-9.4-8-16.8-17.5-16.8-9.9,0-18.3,8.2-18.1,17.7.2,8.9,8.5,16.7,17.7,16.6Z"/>
    <path class="st4" d="M827.5,2540.9c-10.5,0-17.4,7.3-17.3,17.9.1,9.9,8.4,17.5,18.3,16.9,9.7-.6,16.5-8.2,16.2-17.9-.3-9.5-7.9-16.9-17.3-16.9Z"/>
    <path class="st4" d="M1075,2110.5c-10.2,0-18.4,7.9-18.3,17.6.2,9.6,8.5,17.3,18.8,17.2,9.7,0,16.5-7.4,16.2-17.6-.3-10.4-6.9-17.2-16.8-17.2Z"/>
    <path class="st4" d="M1198.1,2083.9c9.4.2,18.1-8.6,17.9-17.9-.2-9.5-8.5-17-18.7-16.9-9.9.2-16.4,7.2-16.1,17.5.2,9.8,7.4,17.1,16.9,17.3Z"/>
    <path class="st4" d="M1322,1988.1c-9.9,0-17.8,7.9-17.7,17.8.1,9.4,7.8,16.8,17.4,16.8,10.5,0,17.6-7.3,17.5-17.8,0-9.5-7.5-16.8-17.2-16.8Z"/>
    <path class="st4" d="M1075,2787c-6.3,0-12,3.2-15.3,8l6,3.4,24.4,14.1c1.3-2.5,2-5.3,2-8.4,0-9.6-7.4-17-17-17.1Z"/>
    <path class="st4" d="M889.1,2084.2c10.1,0,17.9-7.9,17.7-17.8-.2-9.5-7.8-17-17.2-17-10.1,0-18,8-17.7,17.9.3,9.5,7.8,16.9,17.3,16.9Z"/>
    <path class="st4" d="M1259.6,2049.8c-9,.2-16.9,8.3-16.9,17.4,0,10,8.1,18.1,17.7,17.8,9-.3,17-8.5,17.1-17.5,0-9.5-8.5-18-18-17.8Z"/>
    <path class="st4" d="M1691.5,2418.6c-9.2.5-16.6,8.6-16.3,18,.2,9.5,7.9,17.1,17.2,16.9,10.5-.2,17.9-7.7,17.6-17.8-.3-9.8-8.7-17.7-18.5-17.2Z"/>
    <path class="st4" d="M1321.7,2637.9c9.4.2,17-7,17.5-16.5.5-9.8-7.3-18.2-17-18.4-9.4-.2-17.8,8.3-17.8,18,0,9.1,7.7,16.7,17.3,16.9Z"/>
    <path class="st4" d="M457.1,2295.2c-10,0-18.1,7.9-18,17.6.2,10.1,8.2,17.6,18.4,17.2,9.8-.4,16.6-7.7,16.4-17.6-.2-10-7.2-17.2-16.8-17.2Z"/>
    <path class="st4" d="M1877.5,1926c-9.4.1-17,7.8-17.1,17.2,0,9.8,6.8,17.2,16.5,17.6,10.5.4,18.1-6.6,18.2-16.9.1-10.2-7.6-18-17.6-17.9Z"/>
    <path class="st4" d="M1754.9,2418.3c-9.4-.2-17.6,8.1-17.7,17.9,0,10,6.5,16.7,16.7,16.8,10.5.1,18-7.1,18-17.1,0-8.8-8.4-17.4-17-17.6Z"/>
    <path class="st4" d="M1816.2,2356.9c-9.2-.2-17.1,7.6-17.4,17-.3,10.3,7.1,17.9,17.4,17.9,9.8,0,17.2-7,17.4-16.6.2-10-7.5-18.1-17.4-18.3Z"/>
    <path class="st4" d="M1754,1926.5c-9.1.3-16.8,8.3-16.7,17.5,0,10.7,7.1,17.6,17.6,17.4,9.4-.2,16.9-7.6,17.2-17.1.3-8.7-9.2-18.1-18.2-17.8Z"/>
    <path class="st4" d="M1382.1,2084c9.9.8,18.2-6.7,18.4-16.7.2-9.7-6.7-17.2-16.3-17.7-8.8-.5-17.7,7.3-18.2,16.1-.6,8.8,7.1,17.6,16.1,18.3Z"/>
    <path class="st4" d="M1181.6,2312.4c.2,10,7.2,16.9,17.1,16.7,8.6-.2,16.6-8,16.8-16.4.3-9.3-8.8-17.8-18.4-17.4-8.9.4-15.7,7.8-15.6,17Z"/>
    <path class="st4" d="M1197.8,1837.4c8.7.2,17.6-8.4,17.6-17.1,0-9.3-7.9-17.1-17.2-17.1-9.6,0-16.9,7.6-16.6,17.3.2,8.6,8,16.6,16.3,16.8Z"/>
    <path class="st4" d="M766.3,2603.4c-7.6-.5-14.9,5-17,12.3l28.1,16.2c3.1-3.1,5-7.4,5.2-12.3.2-8.8-6.7-15.7-16.3-16.3Z"/>
    <path class="st4" d="M579.8,2357.2c-9.5.1-16.3,7.8-16,17.7.3,9.5,7.2,16.3,16.2,16.1,9.7-.2,17.1-7.6,17.1-17,0-9.2-8-16.9-17.4-16.8Z"/>
    <path class="st4" d="M827.9,2603.1c-8.8-.3-16.7,7-17.2,15.7-.5,9.3,7.4,18,16.2,18,9.1,0,17.4-8.1,17.4-17.1,0-8.7-7.6-16.3-16.5-16.6Z"/>
    <path class="st4" d="M1755,2173.3c-9.9-.1-17.3,7-17.4,16.6,0,9.3,7.7,16.7,17.5,16.6,8.8,0,16.2-7.7,16.1-16.6,0-9-7.3-16.5-16.2-16.6Z"/>
    <path class="st4" d="M24.8,2110.7c-8.3,0-14.9,6.9-14.9,15.4,0,8.6,6.4,15.1,15,15.2,8.4.1,15.4-6.6,15.4-14.9,0-9-6.8-15.9-15.5-15.8Z"/>
    <path class="st4" d="M43.2,2187.4c-.1-9.7-8.3-18.2-17.8-18.4-9.2-.2-18.4,8.6-19.1,17.9l28.2,16.3c5.5-2.9,8.8-8.5,8.7-15.7Z"/>
    <path class="st4" d="M25.2,2077.9c6.9,0,13-6.2,13-13.2,0-7.4-5.4-13.1-12.7-13.3-7.5-.2-14.1,5.9-14.2,13,0,7.1,6.5,13.5,13.8,13.4Z"/>
    <path class="st4" d="M703.9,2205.9c8.6.4,16.7-7.1,17.1-15.7.5-9.2-6.9-17.3-16.2-17.9-9.3-.6-17.4,6.9-17.7,16.3-.3,9.1,7.3,16.9,16.8,17.3Z"/>
    <path class="st4" d="M1552.3,2497.2c-.3,9.9,6.5,16.8,16.6,16.9,9.2,0,17-6.8,17.3-15.2.4-9.4-6.8-17-16.3-17.3-10.6-.3-17.3,5.7-17.6,15.7Z"/>
    <path class="st4" d="M272.4,2295.4c-9.3-.3-17.7,7.4-17.8,16.5-.2,9.3,7.7,17.1,17.1,17.2,8.4,0,16.5-7.9,16.7-16.5.2-8.6-7.4-16.9-16-17.2Z"/>
    <path class="st4" d="M1506.3,1988.5c-8.3.3-15.1,7.6-15,16.3,0,8.8,6.5,15.1,15.6,15.3,9.7.2,16.2-6.2,16.2-15.8,0-8.7-7.9-16.2-16.8-15.8Z"/>
    <path class="st4" d="M1507.5,2727.4c-9.4-.1-16.4,6.8-16.2,15.9.2,8.2,7.6,15.7,15.6,15.7,8.5,0,16.1-7.7,16.2-16.5,0-8.8-6.3-15-15.5-15.1Z"/>
    <path class="st4" d="M333.2,2204.9c8.4-.1,15.8-7,16.2-15.1.4-8.6-7.2-15.9-16.5-15.8-9.2,0-16.4,7.3-16,16.3.3,8.1,7.8,14.8,16.4,14.6Z"/>
    <path class="st4" d="M1384.5,2266.3c8-.5,14.4-7.5,14.1-15.4-.3-8-8.3-15-16.5-14.5-7.3.5-13.8,8.4-13.4,16.2.4,7.7,7.9,14.2,15.8,13.7Z"/>
    <path class="st4" d="M1631.2,2204.4c8-.3,15-7.4,14.9-15,0-7.6-7.5-14.5-15.4-14.4-8.4,0-14.5,6.5-14.3,15,.2,8.7,6.4,14.8,14.8,14.5Z"/>
    <path class="st4" d="M889.4,2019.7c8.5,0,14.5-6.2,14.3-14.8-.3-8.3-7-14.7-15.1-14.2-7.3.4-14,7.3-14,14.3,0,8.1,6.7,14.7,14.8,14.7Z"/>
    <path class="st4" d="M1877.3,1896.6c8,.4,14.8-6.3,14.9-14.6,0-8.5-6.2-14.6-14.8-14.3-7.8.2-13.6,6.3-13.7,14.3,0,7.4,6.5,14.3,13.6,14.7Z"/>
    <path class="st4" d="M1198.4,2019.3c7.5.1,14.8-7.7,14.5-15.4-.3-7.6-6.9-13.7-14.6-13.7-7.8,0-14.2,6.2-14.4,13.8-.3,7.8,6.8,15.1,14.6,15.2Z"/>
    <path class="st4" d="M1012.2,2326.9c8.6,0,14.6-5.8,14.7-14.4,0-7.8-6-14.2-13.6-14.4-7.7-.2-15,7.1-14.8,14.8.2,7.9,6.2,14,13.8,14Z"/>
    <path class="st4" d="M271.4,2113.4c-7.9-.2-14.1,5.6-14.5,13.4-.4,8.2,5.8,14.7,14.3,14.9,8.3.2,14.5-6.1,14.5-14.7,0-7.6-6.1-13.4-14.3-13.6Z"/>
    <path class="st4" d="M208.8,1834.4c8.8,0,14.8-5.8,14.8-14.4,0-8.2-5.5-13.9-13.7-14-8.7-.1-15.2,5.9-15.1,14.2.1,7.7,6.5,14.2,13.9,14.2Z"/>
    <path class="st4" d="M1678.9,2190.7c.2,6.5,6.9,13,13.6,13.1,6.8.1,13-6.1,13.2-13.2.1-7.3-5.3-13.2-12.6-13.6-7.1-.4-14.4,6.6-14.2,13.6Z"/>
    <path class="st4" d="M1384,2203.4c6.2,0,13.5-7.4,13.3-13.6-.2-6.7-6.8-13-13.8-13-7.3,0-12.9,5.9-12.9,13.4,0,6.8,6.4,13.2,13.4,13.2Z"/>
    <path class="st4" d="M1136.8,2263.7c7-.2,13.1-6.6,13-13.6-.1-6.5-7.1-13.3-13.6-13.2-6,0-13.2,7.6-13.1,13.9,0,6.7,6.9,13.1,13.7,12.9Z"/>
    <path class="st4" d="M147.2,2176.6c-7.3.2-13.1,6.2-12.9,13.3.3,7.7,5.7,12.6,13.6,12.5,7.6,0,13.3-5.9,12.9-13.1-.4-7.3-6.4-12.9-13.6-12.8Z"/>
    <path class="st4" d="M890.7,2607.2c-8.1-.9-13.5,3.5-14.2,11.4-.6,7.6,4.4,14.1,11.4,14.7,7.2.6,14.5-5.9,14.8-13.2.2-6.6-4.9-12.1-12-12.9Z"/>
    <path class="st4" d="M1877.7,1992.6c-8.2.2-12.9,5.1-12.6,13,.3,8,5.3,12.8,13.2,12.5,7.8-.3,13.1-5.6,12.9-13.2-.2-7.7-5.5-12.6-13.5-12.4Z"/>
    <path class="st4" d="M1370.7,2374.7c.2,7,5.5,12.5,12.3,12.5,7.7,0,13.7-5.3,14-12.5.3-6.6-6.3-13.1-13.4-13.2-7.5-.2-13.1,5.5-12.9,13.1Z"/>
    <path class="st4" d="M1692.2,1957.3c7.1.2,12.9-5.8,13-13.3,0-7-5-12.4-12-12.9-6.9-.4-13.8,5.7-14.1,12.5-.3,6.3,6.6,13.5,13.1,13.7Z"/>
    <path class="st4" d="M2488.7,1689.6c-4.4,0-8,3.6-8,8.1,0,4.6,3.3,8.1,7.8,8.2,4.3.1,8.2-3.5,8.3-7.8.1-4.7-3.5-8.5-8.1-8.5Z"/>
    <path class="st4" d="M2488.6,1625.3c-6.2,0-10.7,4.5-10.6,10.9,0,6.5,4.3,10.7,10.8,10.6,6.3,0,10.7-4.5,10.8-10.8,0-6-4.7-10.7-11-10.7Z"/>
    <path class="st4" d="M2488.3,1774.6c8.8.2,15.8-6.6,15.8-15.1,0-8.2-7.4-15.3-15.8-15.3-8.2,0-15.1,7.3-15.1,15.8,0,8.2,6.6,14.5,15,14.6Z"/>
    <path class="st4" d="M2489.1,1807.9c-7.1-.4-14.4,6.6-14.2,13.6.2,6.5,6.9,13,13.6,13.1,6.8.1,13-6.1,13.2-13.2.1-7.3-5.3-13.2-12.6-13.6Z"/>
    <path class="st4" d="M2488.2,1588.1c7.1.2,12.9-5.8,13-13.3,0-7-5-12.4-12-12.9-6.9-.4-13.8,5.7-14.1,12.5-.3,6.3,6.6,13.5,13.1,13.7Z"/>
    <path class="st4" d="M272,2263.6c7.3-.5,12.9-7,12.3-14-.5-6.4-7.1-12.5-13.1-12.2-7.1.3-13.4,6.9-13,13.7.4,7.2,6.8,13.1,13.8,12.6Z"/>
    <path class="st4" d="M1012.6,2115.5c-8,0-13,5-12.9,12.8,0,7.8,5.1,12.8,13,12.7,7.9,0,13.2-5.1,13.2-12.7,0-7-6-12.8-13.3-12.8Z"/>
    <path class="st4" d="M1458.9,2497.2c-.1-6.5-7.2-13.1-13.8-12.9-6.9.3-13,7-12.7,13.8.3,6.3,6.4,12.1,12.9,12.4,6.1.2,13.7-7.2,13.6-13.3Z"/>
    <path class="st4" d="M827.6,2509.6c7.2-.2,13.6-6.5,13.3-13.1-.3-7.1-6.5-12.8-13.8-12.7-7.2,0-13.7,6.4-13.3,13.1.3,6.9,6.8,12.9,13.8,12.7Z"/>
    <path class="st4" d="M1507.3,2053.4c-8.1.5-12.9,5.4-12.7,13.2.1,7,5.3,12.2,12.3,12.3,7.2.1,13.6-5.8,13.6-12.7,0-7.3-6.2-13.3-13.2-12.9Z"/>
    <path class="st4" d="M950.8,2510c6.8.3,13-5.8,13.3-13,.3-7.2-5.3-13-12.8-13.2-7.6-.1-13,5-13.2,12.7-.2,7.3,5.4,13.2,12.7,13.5Z"/>
    <path class="st4" d="M826.5,1956.2c7.1.4,13.3-5.2,13.7-12.4.4-6.6-6.1-13.5-12.8-13.6-6.3,0-13.4,6.9-13.5,13.3-.1,5.8,6.4,12.3,12.5,12.7Z"/>
    <path class="st4" d="M703.7,2361.2c-7.2,0-13.3,6-13.2,13,.1,6.3,6.1,12,12.7,12.3,7.8.3,13.5-4.9,13.5-12.3,0-7.5-5.5-13-13.1-13Z"/>
    <path class="st4" d="M1334.5,2250.9c-.2-7.3-5.2-12.2-12.5-12.3-7.6,0-13.3,5.6-13.1,13.2.2,6.2,6.5,12.6,12.7,12.8,6.9.2,13.1-6.4,12.9-13.7Z"/>
    <path class="st4" d="M1321.7,2853.3c-6.9.1-12.4,5.4-12.6,12.1-.2,5.7,3.4,10.9,8.2,13l16.9-9.7c.2-.8.3-1.6.3-2.4.2-7.8-5-13.1-12.7-13Z"/>
    <path class="st4" d="M1260,2853.4c-7.3,0-12.9,5.9-12.6,13.4.3,7.2,6.5,13.1,13.5,12.7,7.1-.4,12.5-6.8,12-14.1-.5-6.9-6-12-12.9-12Z"/>
    <path class="st4" d="M1754.1,2054.1c-7.8.3-12.7,5.8-12.2,13.8.5,7,6,11.9,13.2,11.6,6.8-.3,12.7-6.2,12.6-12.6-.1-7.2-6.3-13-13.6-12.8Z"/>
    <path class="st4" d="M527.4,2487.7c-1.6-1.5-3.6-2.7-5.7-3.3l5.7,3.3Z"/>
    <path class="st4" d="M1494.2,2312c0,7.5,5.6,13.3,12.9,13.3,7.2,0,13.4-6,13.3-12.9,0-6.9-6.3-12.6-13.7-12.4-7.3.2-12.5,5.3-12.5,12.1Z"/>
    <path class="st4" d="M1074.9,2729.8c-6.9,0-13.6,6.7-13.5,13.3.1,6.6,5.7,11.7,12.9,11.9,7.5.2,13-4.5,13.4-11.4.4-7-5.9-13.8-12.8-13.8Z"/>
    <path class="st4" d="M1321.3,2115.2c-7.1.2-12.1,5.3-12.3,12.4-.2,7.9,4.9,13.1,12.7,13.2,8.1,0,12.9-4.9,12.8-13-.1-7.8-5.4-12.9-13.2-12.7Z"/>
    <path class="st4" d="M1185.5,2435.1c0,7.9,5.2,12.9,13.1,12.8,7.1-.1,12.3-5.2,12.6-12.2.2-6.9-6.1-13.1-13.3-13-6.9.1-12.4,5.7-12.4,12.4Z"/>
    <path class="st4" d="M949.5,2447.1c7.1,1,12.7-3.4,13.5-10.7.8-6.8-4.3-13.1-10.9-13.6-6.3-.5-13,5.3-13.5,11.6-.4,5.9,4.6,11.8,10.8,12.7Z"/>
    <path class="st4" d="M382.6,2127.8c-.4,6.9,4.7,12.5,11.7,12.8,7,.3,12.6-4.9,12.8-11.9.2-5.8-5.4-12.1-11.1-12.5-6.3-.5-13,5.2-13.4,11.6Z"/>
    <path class="st4" d="M332.7,2140c6.3.2,12.7-5.9,12.7-12.2,0-6.2-6.3-12.4-12.7-12.3-6.2,0-11.3,5.2-11.6,11.7-.3,7.2,4.6,12.6,11.6,12.8Z"/>
    <path class="st4" d="M1581.5,2436.7c.3-6.5-5.5-13-11.8-13.2-6.4-.2-12.6,5.7-12.8,12.2-.2,6.7,5.6,12.3,12.5,12.2,6.6,0,11.8-4.9,12.2-11.3Z"/>
    <path class="st4" d="M1631.3,2140c6.5-.4,12.1-6.6,11.8-13.1-.3-5.8-6.4-11.3-12.4-11.2-7,0-12,5.3-11.9,12.5.1,7.3,5.3,12.2,12.5,11.7Z"/>
    <path class="st4" d="M950.5,2546.2c-5.8.3-11.7,6.1-11.9,11.9-.2,6.5,5.7,12.4,12.4,12.4,7.2,0,12.3-5.2,12.1-12.3-.2-7.1-5.7-12.3-12.6-11.9Z"/>
    <path class="st4" d="M1210.6,2251.1c.4-6.3-5.6-12.3-12.5-12.4-6.5,0-11.5,4.9-11.8,11.5-.3,7.1,5.1,12.6,12.2,12.5,6.2-.1,11.7-5.4,12.1-11.6Z"/>
    <path class="st4" d="M1135.4,2300.3c-6.6.5-10.9,5.5-10.7,12.3.2,6.9,6,12.4,12.6,12,6-.4,12.3-7.5,11.9-13.3-.4-6.1-7.2-11.4-13.8-10.9Z"/>
    <path class="st4" d="M1630.6,2017.5c6.4,0,12.5-6.1,12.5-12.5,0-6.6-6-12.1-12.9-11.9-7,.3-11.8,5.7-11.4,12.9.4,6.5,5.4,11.5,11.8,11.4Z"/>
    <path class="st4" d="M1149.1,2558.4c-.2-6.3-6.5-12.2-13-12-6.6.2-11.2,5-11.3,11.8,0,7.5,4.8,12.7,11.7,12.7,6.3,0,12.7-6.4,12.6-12.5Z"/>
    <path class="st4" d="M1137.2,2201.1c6.1-.4,11.9-6,11.9-11.6,0-6.2-6.3-12.5-12.5-12.6-6.7-.1-11.9,5.4-11.7,12.6.1,7.5,5,12.1,12.4,11.6Z"/>
    <path class="st4" d="M1012.2,2179.7c-5.6.3-9.9,4.7-10,10.1,0,6.1,4.7,10.4,11,10.1,5.3-.2,10.2-5,10.3-10,0-5.4-5.6-10.6-11.3-10.3Z"/>
    <path class="st4" d="M518.5,2428c-3.6-.2-7.2,3.3-6.9,6.9.3,4,2.3,6.9,6.7,7.1,3.8.2,6.7-2.8,6.7-7.5-.2-3.5-2.2-6.2-6.5-6.5Z"/>
    <path class="st4" d="M271.3,2011c3-.8,5.5-3.4,7.2-4.6.3-5.6-3-8.8-6.9-8.8-3.8,0-7.2,3-7.2,6.6,0,3.7,3.4,7.7,6.8,6.7Z"/>
    <path class="st4" d="M1074.4,2489.5c-4.1.5-6.9,2.8-6.9,7.1,0,4.4,3,6.4,7.1,6.7,4,.3,6.7-2.7,6.6-6.9-.1-4.2-3.1-7.4-6.7-6.9Z"/>
    <path class="st4" d="M147.5,2011.9c4.1,0,6.5-2.8,6.7-6.9.2-3.8-3-6.8-6.8-6.8-3.7,0-7.2,3.4-6.8,6.9.5,3.9,2.6,6.9,6.9,6.9Z"/>
    <path class="st4" d="M24.3,1996.1c-4.6,0-8.4,4.1-8.2,8.7.1,4.9,4.1,8.8,9,8.8,4.5,0,8.4-4.5,8.2-9.5-.2-4.5-4.2-8.1-8.9-8Z"/>
    <path class="st4" d="M24.4,1644.6c5.3.2,9.9-4.3,9.9-9.6,0-4.9-4.3-9.3-9.4-9.4-5.3-.2-10,4.4-9.9,9.6,0,4.9,4.4,9.3,9.4,9.4Z"/>
    <path class="st4" d="M25.2,1801.2c-9.8-.1-19,8.8-19.1,18.6-.1,9.2,8.7,18,18,18.2,10,.2,19.2-8.8,19-18.4-.2-9.2-9-18.3-18-18.4Z"/>
    <path class="st4" d="M25.7,1933.2c-5.4-.6-10.5,3.8-10.8,9.3-.3,4.8,3.8,9.6,8.8,10,5.3.5,10.2-3.5,10.8-8.7.6-5.2-3.5-10.2-8.7-10.7Z"/>
    <path class="st4" d="M25.3,1775.8c10.2-.5,17.5-8.5,16.9-18.4-.5-9-8.8-17.1-17.6-17.1-9.5,0-17.6,8.5-17.4,18.2.2,10.2,8.2,17.8,18,17.3Z"/>
    <path class="st4" d="M25.2,1867.4c-8.7-.1-15.2,5.9-15.1,14.2.1,7.7,6.5,14.2,13.9,14.2,8.8,0,14.8-5.8,14.8-14.4,0-8.2-5.5-13.9-13.7-14Z"/>
    <path class="st4" d="M24.1,1709.5c7.1.3,13.7-5.7,13.9-12.6.2-6.8-6.3-13.2-13.3-13.3-6.8,0-13.4,6.5-13.2,13.3.1,6.3,6.2,12.3,12.6,12.6Z"/>
    <path class="st4" d="M2117.6,2232.9c-11.8.1-21.7,10.2-21.6,22.1,0,13,9.9,22.4,22.9,21.8,12-.5,21.5-10.6,21.2-22.6-.3-11.8-10.4-21.5-22.4-21.3Z"/>
    <path class="st4" d="M2117.4,2152c11.5,0,20.8-8.6,20.9-19.6,0-11.3-8.8-20.2-20.2-20.3-11.4-.2-19.7,8.4-19.8,20.3,0,11,8.3,19.5,19.2,19.6Z"/>
    <path class="st4" d="M2117.4,2297.2c-9.8,0-18.4,8.9-18.6,18.9-.2,10.9,8.3,19.7,19,19.7,9.9,0,19.2-8.5,19.7-18.1.6-10.3-9.5-20.6-20.1-20.5Z"/>
    <path class="st4" d="M2116.9,2089.8c10.3.4,19.8-8.3,20.4-18.7.6-9.7-8.9-19.6-19.2-19.9-9.9-.3-18.7,8-19.3,18.1-.6,10.8,7.6,20.1,18.1,20.5Z"/>
    <path class="st4" d="M2055.3,2175.9c-9.8.4-17.8,8.7-17.6,18.4.2,10.4,8.9,18.6,19.1,18.2,9.9-.4,17.5-8.4,17.5-18.5,0-10.3-8.6-18.5-19-18.1Z"/>
    <path class="st4" d="M2056,2150.4c10.3,0,18.5-8.5,18.1-18.8-.3-9.6-8.6-17.1-18.6-16.9-9.6.2-17.9,8.6-17.6,18,.2,9.6,8.5,17.7,18.1,17.7Z"/>
    <path class="st4" d="M2056.3,2361.3c-9.5.2-18.2,9-18.1,18.2.2,8.9,9.9,17.7,19.1,17.2,8.5-.4,16.7-9.6,16.3-18.4-.3-9.6-8.1-17.2-17.4-17Z"/>
    <path class="st4" d="M2117.9,2360.9c-9.8,0-18.3,8.3-18,17.8.3,8.6,9.1,17.3,17.7,17.3,9.2,0,17.4-7.8,17.8-17,.4-10-7.3-18-17.5-18.1Z"/>
    <path class="st4" d="M2039.3,2316.7c-.3,9.9,6.5,16.8,16.6,16.9,9.2,0,17-6.8,17.3-15.2.4-9.4-6.8-17-16.3-17.3-10.6-.3-17.3,5.7-17.6,15.7Z"/>
    <path class="st4" d="M2068.5,2256.2c.3-6.5-5.5-13-11.8-13.2-6.4-.2-12.6,5.7-12.8,12.2-.2,6.7,5.6,12.3,12.5,12.2,6.6,0,11.8-4.9,12.2-11.3Z"/>
  </g>
</svg>