<?xml version="1.0" encoding="UTF-8"?>
<svg id="Layer_1" data-name="Layer 1" xmlns="http://www.w3.org/2000/svg" xmlns:xlink="http://www.w3.org/1999/xlink" viewBox="0 0 2521 2911">
  <defs>
    <style>
      .cls-1 {
        fill: #595959;
      }

      .cls-1, .cls-2 {
        stroke: #595959;
        stroke-linejoin: round;
        stroke-width: 32.41px;
      }

      .cls-2 {
        fill: none;
      }

      .cls-3 {
        fill: url(#radial-gradient);
      }

      .cls-3, .cls-4 {
        fill-rule: evenodd;
      }

      .cls-5 {
        fill: #7a6d00;
      }

      .cls-4 {
        fill: #fff072;
      }

      .cls-6 {
        fill: #e7cf00;
      }

      .cls-7 {
        fill: #ffe400;
      }
    </style>
    <radialGradient id="radial-gradient" cx="165.39" cy="1445.14" fx="165.39" fy="1445.14" r="50.65" gradientTransform="translate(55500.8 -4740.4) rotate(90) scale(37.5)" gradientUnits="userSpaceOnUse">
      <stop offset="0" stop-color="#fffce3"/>
      <stop offset="1" stop-color="#ffe400"/>
    </radialGradient>
  </defs>
  <path class="cls-3" d="M1261.62,18.93l1238.85,721.86v1429.27l-1238.85,721.86L22.91,2170.2V740.93L1261.62,18.93Z"/>
  <path class="cls-7" d="M408.08,2194.51h51.32v-94.13c27.82,31.96,84.52,26.46,107.64-8.1,22.63-31.69,24.05-80.97,14.86-117.9-6.29-23.25-18.49-42.38-39.57-52.81-27.53-13.49-66.02-8.71-84.95,15.8l-1.89-19.58h-47.4v276.73ZM535.44,2015.84c1.05,27.05-6.84,64.97-40.11,64.42-16.77.34-28.52-6.56-35.79-20.53,0,0,0-83.46,0-83.46,4.85-9.9,13.22-16.64,24.04-18.91,38.02-9.16,53.33,25.95,52.27,58.61l-.41-.14ZM777.73,1914.28c-27.22-.18-50.59,14.45-66.31,36.46-.28-1.96-2.21-29.83-2.43-32.68h-47.81v199.74h51.32v-120.06c14.37-38.41,61.97-35.06,95.21-27.28l7.56-51.19c-10.66-3.12-24.93-5.09-37.54-5ZM854.17,2015.97c-4.02,77.75,62.16,126.15,134.24,98.05,73.14-30.54,72.95-161.66-.14-192.18-69.55-27.95-136.52,18.52-134.24,94.13h.13ZM905.49,2019.89c-1.3-27.99,9.1-64.92,42.81-64.15,32.18-.91,43.39,33.05,42.81,60.23.23,22.03-3.25,47.64-23.09,59.69-41.16,18.39-64.04-17.28-62.67-55.78h.14ZM1268.11,2019.89c.36-34.2-6.6-71.95-35.25-92.78-26.94-19.42-70.93-17.88-92.38,8.78v-101.97h-51.32v283.61h46.19l2.43-21.2c20.94,29.19,66.52,32.16,94.94,12.29,27.89-19.71,35.33-56.01,35.52-89l-.13.27ZM1216.79,2015.97c1.18,26.98-5.2,65.61-39.57,63.88-15.77.56-30.55-7.63-36.87-22.15,0,0,0-79.55,0-79.55,6.25-14.65,20.22-22.5,36.33-22.01,32.61-1.2,40.69,33.8,39.84,59.96l.27-.13ZM1439.89,2117.8h52v-3.11c-6.73-13.75-7.8-26.95-7.97-44.7-1.98-22.41,5.33-96.95-6.48-116.15-14.18-29.19-47.38-39.43-78.74-39.44-38.71-1.17-84.38,20.48-84.27,63.21h51.32c-1.13-28.93,41.1-30.32,57.8-15.8,9.74,8.11,8.98,22.59,8.78,34.3-31.83-.17-70.47-1.68-96.56,15.4-24.39,14.19-32.5,50.35-20.8,74.55,20.37,42.96,88.86,47.29,119.12,13.5,1.23,6.4,2.47,13.21,5.27,18.64l.54-.41ZM1391.01,2081.74c-28.64,1.96-39.7-28.79-18.91-46.86,14.68-11.56,42.1-8.12,60.5-8.64v34.3c-8.34,13.94-25.32,21.17-41.73,21.2h.14ZM1722.02,2019.89c.36-34.2-6.6-71.95-35.25-92.78-26.94-19.42-70.93-17.88-92.38,8.78v-101.97h-51.32v283.61h46.19l2.43-21.2c20.94,29.19,66.52,32.16,94.94,12.29,27.89-19.71,35.33-56.01,35.52-89l-.14.27ZM1670.7,2015.97c1.18,26.98-5.2,65.61-39.57,63.88-15.77.56-30.55-7.63-36.87-22.15,0,0,0-79.55,0-79.55,6.25-14.65,20.22-22.5,36.33-22.01,32.61-1.2,40.69,33.8,39.84,59.96l.27-.13ZM1779.55,1834.19v41.87h59.83v200.01h-59.83v41.73h168.95v-41.73h-57.26v-241.88h-111.69ZM2027.38,2198.43c25.85.47,46.99-13.57,59.42-34.3,3.51-5.94,6.35-11.34,8.64-16.48,0,0,101.43-229.73,101.43-229.73h-56.72c-5.35,13.84-49.46,126.98-53.21,137.48-.36-10.71-46.56-124.29-51.32-137.35h-56.18l84.54,191.24c-7.78,13.75-15.88,32.92-28.5,43.08-7.22,6.3-18.65,2.87-26.74,3.24l-6.21,39.17c9.35,2.49,15.16,3.65,24.98,3.65h-.14Z"/>
  <path class="cls-2" d="M985.84,1486.02l-292.66,192.99-229.46-570.6-186.24-123.03"/>
  <path class="cls-5" d="M390.53,2182.63h51.32v-94.13c27.82,31.96,84.52,26.46,107.64-8.1,22.63-31.69,24.05-80.97,14.86-117.9-6.29-23.25-18.49-42.38-39.57-52.81-27.53-13.49-66.02-8.71-84.95,15.8l-1.89-19.58h-47.4v276.73ZM518.02,2003.82c1.05,27.05-6.84,64.97-40.11,64.42-16.77.34-28.52-6.56-35.79-20.53,0,0,0-83.46,0-83.46,4.85-9.9,13.22-16.64,24.04-18.91,38.02-9.16,53.33,25.95,52.27,58.61l-.41-.14ZM760.3,1902.26c-27.22-.18-50.59,14.45-66.31,36.46-.28-1.96-2.21-29.83-2.43-32.68h-47.81v199.74h51.32v-120.06c14.37-38.41,61.97-35.06,95.21-27.28l7.56-51.19c-10.66-3.12-24.93-5.09-37.54-5ZM836.61,2004.09c-4.02,77.75,62.16,126.15,134.24,98.05,73.14-30.54,72.95-161.66-.14-192.18-69.55-27.95-136.52,18.52-134.24,94.13h.13ZM888.06,2007.87c-1.3-27.99,9.1-64.92,42.81-64.15,32.18-.91,43.39,33.05,42.81,60.23.23,22.03-3.25,47.64-23.09,59.69-41.16,18.39-64.04-17.28-62.67-55.78h.14ZM1250.68,2007.87c.36-34.2-6.6-71.95-35.25-92.78-26.94-19.42-70.93-17.88-92.38,8.78v-101.97h-51.32v283.61h46.19l2.43-21.2c20.94,29.19,66.52,32.16,94.94,12.29,27.89-19.71,35.33-56.01,35.52-89l-.13.27ZM1199.36,2004.09c1.18,26.98-5.2,65.61-39.57,63.88-15.77.56-30.55-7.63-36.87-22.15,0,0,0-79.55,0-79.55,6.25-14.65,20.22-22.5,36.33-22.01,32.61-1.2,40.69,33.8,39.84,59.96l.27-.13ZM1422.34,2105.78h52v-3.11c-6.73-13.75-7.8-26.95-7.97-44.7-1.98-22.41,5.33-96.95-6.48-116.15-14.18-29.19-47.38-39.43-78.74-39.44-38.71-1.17-84.38,20.48-84.27,63.21h51.32c-1.13-28.93,41.1-30.32,57.8-15.8,9.74,8.11,8.98,22.59,8.78,34.3-31.83-.17-70.47-1.68-96.56,15.4-24.39,14.19-32.5,50.35-20.8,74.55,20.37,42.96,88.86,47.29,119.12,13.5,1.23,6.4,2.47,13.21,5.27,18.64l.54-.41ZM1373.45,2069.72c-28.64,1.96-39.7-28.79-18.91-46.86,14.68-11.56,42.1-8.12,60.5-8.64v34.3c-8.34,13.94-25.32,21.17-41.73,21.2h.14ZM1704.46,2007.87c.36-34.2-6.6-71.95-35.25-92.78-26.94-19.42-70.93-17.88-92.38,8.78v-101.97h-51.32v283.61h46.19l2.43-21.2c20.94,29.19,66.52,32.16,94.94,12.29,27.89-19.71,35.33-56.01,35.52-89l-.14.27ZM1653.14,2004.09c1.18,26.98-5.2,65.61-39.57,63.88-15.77.56-30.55-7.63-36.87-22.15,0,0,0-79.55,0-79.55,6.25-14.65,20.22-22.5,36.33-22.01,32.61-1.2,40.69,33.8,39.84,59.96l.27-.13ZM1762.13,1822.17v41.87h59.83v200.01h-59.83v41.73h168.95v-41.73h-57.26v-241.88h-111.69ZM2009.96,2186.41c25.85.47,46.99-13.57,59.42-34.3,3.51-5.94,6.35-11.34,8.64-16.48l101.43-229.73h-56.72c-5.35,13.84-49.46,126.98-53.21,137.48-.36-10.71-46.56-124.29-51.32-137.35h-56.18l84.54,191.24c-7.78,13.75-15.88,32.92-28.5,43.08-7.22,6.3-18.65,2.87-26.74,3.24l-6.21,39.17c9.35,2.49,15.16,3.65,24.98,3.65h-.14Z"/>
  <path class="cls-2" d="M1569.95,1460.09l292.66,192.99,229.46-570.6,186.24-123.03"/>
  <path class="cls-4" d="M860.65,1248.19h0c0-224.73,177.46-406.78,396.25-406.78h0c105.07,0,205.82,42.81,280.24,119.12,74.28,76.31,116.01,179.76,116.01,287.66h0c0,224.73-177.46,406.78-396.25,406.78h0c-218.79,0-396.25-182.19-396.25-406.78h0Z"/>
  <path class="cls-2" d="M860.65,1248.19h0c0-224.73,177.46-406.78,396.25-406.78h0c105.07,0,205.82,42.81,280.24,119.12,74.28,76.31,116.01,179.76,116.01,287.66h0c0,224.73-177.46,406.78-396.25,406.78h0c-218.79,0-396.25-182.19-396.25-406.78h0Z"/>
  <path class="cls-2" d="M1487.03,1111.65h0c22.42,42.81,18.23,97.37-11.88,151.8-30.12,54.43-83.46,104.13-148.42,138.3"/>
  <path class="cls-1" d="M1254.74,1099.77h0c-35.52-57.4-53.89-110.34-41.19-118.31h0c6.08-3.78,18.77,3.51,35.11,20.39,16.34,16.88,35.11,41.87,52.13,69.42h0c35.52,57.4,53.89,110.34,41.19,118.31h0c-6.08,3.78-18.77-3.51-35.11-20.39-16.34-16.88-35.11-41.87-52.13-69.42Z"/>
  <path class="cls-1" d="M1103.07,1193.5h0c-35.52-57.4-53.89-110.34-41.19-118.31h0c6.08-3.78,18.77,3.51,35.11,20.39,16.34,16.88,35.11,41.87,52.13,69.42h0c35.52,57.4,53.89,110.34,41.19,118.31h0c-6.08,3.78-18.77-3.51-35.11-20.39-16.34-16.88-35.11-41.87-52.13-69.42Z"/>
  <path class="cls-2" d="M1585.89,1484.4l292.66,192.99,229.46-570.6,186.24-123.03"/>
  <path class="cls-2" d="M969.64,1510.33l-292.66,192.99-229.46-570.6-186.24-123.03"/>
  <path class="cls-2" d="M678.6,1666.45l252.28-166.79"/>
  <path class="cls-2" d="M1611.55,1455.64l252.28,166.79"/>
  <path class="cls-6" d="M1260.5,37.43l1228.09,709.04v1418.07l-1228.09,709.04L32.41,2164.54V746.46L1260.5,37.43M1260.5,0L0,727.75v1455.5l1260.5,727.75,1260.5-727.75V727.75L1260.5,0h0Z"/>
</svg>