<?xml version="1.0" encoding="UTF-8"?>
<svg id="Layer_1" xmlns="http://www.w3.org/2000/svg" version="1.1" viewBox="0 0 2521 2911">
  <defs>
    <style>
      .color-1 {
        fill: #323330;
      }

      .color-2 {
        fill: #f0db4f;
      }
    </style>
  </defs>
  <polygon class="color-2"
    points="1260.5 0 0 727.7 0 2183.2 1240.8 2899.6 1260.5 2911.1 2521 2183.2 2521 727.7 1260.5 0" />
  <path class="color-1"
    d="M1260.5,48.3l1218.5,703.5v1407l-1218.5,703.5L42,2158.8V752L1260.5,48.3M1260.5,0L0,727.7v1455.5l1240.8,716.4,19.7,11.4,1260.5-727.8V727.7L1260.5,0h0Z" />
  <path class="color-1"
    d="M870.6,591c4.1,3.1,25,26.4,26.5,30,2.4,5.8-.7,2.4,4.8,11.7,8.1,13.8,9.6,39.6,8.7,55.4-.4,6.6-5.6,26-3.3,29.8,3.1,5.1,14.4,3.5,19.8,5,64.4,17.5,94.1,68,84.2,133.8-.7,4.8-9.2,11.5,2.2,16.5,5.3,2.3,10.5,0,15.3,1.2,3.8.9,15.2,4.5,18.8,6,11.7,4.8,24.5,15.2,34.9,22.6,4.6,0,10.4-23.5,12.6-28.4,23.4-51.9,81.8-79.7,137.2-61.5,10.5,3.4,20,13.3,31.5,12,6.1-.7,18.1-9.9,25.1-12,55.9-17.2,113.7,8.2,137.3,61.5,2.2,5,5.7,26.8,12.5,26.7s25.1-17.4,31.5-20.1l43.8-10.9c-3.4-11.6-6.4-25.9-6.3-38.1.2-50.2,32.1-95.6,81.6-107.9,10.4-2.6,22.9.6,26.7-10.4.6-1.9-4.6-12.4-5.2-17.5-11.5-103.4,94.8-164,178.2-104l153.5,153.3c9.9,4.5,34.7-3.2,46.3-3,53.1.6,100.8,29.1,138.3,64.5,34,32.1,70.8,70.1,102.6,104.4,66.4,71.8,97.1,157.1,78.9,257.7-1.7,9.6-11.6,28.2-7.3,37l127.2,126.8c17.9,19.1.4,49.3-24.5,32.1-35.6-24.6-75.6-81.3-109.2-111.1l-11.5-6.5c-10.2,6.8-12.9,19.5-19.6,29.2-9.5,13.8-52.5,64.6-65.8,68.1-14.8,3.9-29.4-12.9-23.6-27.8,2.8-7.2,27-27,33.7-34.7,76.4-86.7,88-208.5,24.4-305.7-25-38.2-114.3-127.8-151-157.8-37-30.3-86.5-40.5-133.3-32.5-57.7,9.8-125.8,95.8-167,136.7-35.7,35.4-77.1,69.5-109.5,107.7-14.9,17.4-17.4,41,0,57.7,16,15.4,50.9,15.9,72.2,14.5,81.8-5.4,129.7-78.8,182.9-131.1,11-10.8,33.7-35.1,44.7-42.7,3.5-2.4,12.6-7.4,16.5-6.4,7.1,1.7,18.5,12.3,17.3,19.7s-4.7,14.3-5.1,15c-2.8,4.6-15.6,15.5-20.7,23.1-38.4,57.1-35.5,129.8,3.4,185.7,5.5,7.8,15.8,15.7,19.5,23.8,3.6,7.8,2.6,15.5-3.5,21.9-8.3,8.6-17.7,6.4-26.7,0-26.2-18.5-53.2-77.5-58.6-108.2-1.6-8.9,3.9-51.3-5.3-52-6.8-.5-29,26.8-35.2,32.5-18.4,16.9-40.3,33.4-65.4,43.7-8.5,3.5-19,7.3-27.9,8.1-2.2,1.4-7.9,33.5-9.7,38.7-22.5,65.7-110.3,87.3-166.7,49.5-12-8-19.8-19.9-29.2-28.9-56.2-54-111.5-108.9-166.7-163.3-7.7-7.6-12.1-24.6-26.6-15.8-26.1,30.4-59.1,55.2-85.3,85.5-7.3,8.4-1.5,11.4,4,18.7,101.4,96,194.9,200.8,296.7,296.4,116.6,109.5,255,202.1,400.8,76.4,8.8-7.6,32.1-36.2,40.1-39.3,3.7-1.4,17.3-2.3,20.1-.7s7.3,9.3,7.6,9.9c4.3,10-.2,17.2-6.1,24.7-21.4,26.8-59.9,55.5-88.9,73.7-9.7,6.1-33.1,11.1-20.3,25.2,35.6,39.3,79.8,75.9,116.5,114.6,15.6,21.6-9.9,47.4-29.9,27.3l-137.1-136.8c-2.2-1.3-4.6-1.2-7-1.2-23.5.8-46.4,5.1-70.2,2.2-72.9-8.9-134.7-50.6-190-94.8-129.9-103.8-241.3-238.9-362.9-353.1-3.7-2.8-9.5-6.5-13.5-3.2l-303.7,305.5c-95.1,83.2-173.9,148.1-306,145.6-7.7,0-15.3-4.8-23.1-.6l-133.7,134c-20.6,22.5-50,.7-33-25.8l151.9-149.7c12.9-6.9,25.6,1.7,37.9,2.9,113,11.5,216.3-77.5,292.5-150.2,148.4-141.6,287.6-293.3,435.6-435.4,47.3-48,8.9-128.9-58.6-120.3-3,.4-18.8,4.9-20.6,6.2-9,6.3,3.1,20.7,5.6,29.1,27.3,90-58.3,171.9-146.7,136.3-4.3-1.7-11.8-8.9-15.6-9-7.6-.3-20.9,15-26.6,20.7-52,52.2-106.6,107.8-159.1,159-11.7,11.4-28.9,39.2-48,22.9-8.5-7.3-7.1-22.7,0-30.4l157.6-156.4c37.5-54.5-7.7-127.5-73.5-111.6-28.6,6.9-54.1,41.8-74.8,62.1-13.4,13.2-50.3,54.2-63.3,61.3-24.5,13.4-39.1-16-22.4-34.2l132.2-131.9c46-72.8-37.9-146.6-105.3-92.9l-117,118.3c-15.8,8.8-36.9-7-29.9-24.3,4.6-11.4,39.6-40.3,50-50.9,25.2-25.5,50-51.6,75-77.4,6.5-6.7,15.4-11.9,21.8-19.4,24.1-28.6,22.8-73.6-6.2-98.9-24.5-21.3-60.1-23.2-86.5-6.1-56.3,53.8-111,109.3-165.6,164.9-3.7,1.9-8.5,3-12.7,3-15.4,0-36.2-4.6-51.5-4.5-34,.3-68.9,15.3-94.8,37.2-100.9,105-214.8,176.3-185.8,342.3,3,17.1,15.6,38,11.8,55.7l-147.5,147.3c-23.1,17.1-41.9-15.7-23.4-33l127.3-126.5c-1.7-26-10.5-51.4-12.1-77.8-2.9-49.7,21-156.5,58.9-190.5,2.2-2,6.1-1.7,6.8-2.5,1.1-1.3-.3-5.1.9-7.3,2.5-4.3,23.5-25,29-30.7,29.1-30.6,65.8-68.9,96.8-96.8,38.9-35,87.1-58.8,140.4-58.5,11.9,0,25.4,8,38.1,3.2l145.2-145.2c37.8-38.3,102.9-42.7,146.5-9.4l.3-.3h0ZM1748,613.6c-69-25.6-127.8,48.1-82.8,109.6,41.5,35.4,78.2,84.5,119.4,119.3,7.8,6.6,9.2,9.5,17.9,2,23.4-20.5,44.1-48.2,69.4-66.9s31.4-11.3,22-24.6c-49.5-44.9-91.9-100-145.8-139.4h0ZM1675.9,788.6c-10.8-10.3-25.2-23.9-40.3-26.6-69.3-12.5-111.2,53.9-74.2,111.2l99.7,100,6.4,2.2,95.7-93.8c0-2.8-4.8-10.4-6.9-12.7-21.4-24.4-56.3-57.2-80.4-80.2h0ZM1266.3,917.5c0-38.7-31.3-70-70-70s-70,31.3-70,70,31.3,70,70,70,70-31.3,70-70ZM1588.9,957.9c-13.5-13.2-25-30-42.7-38.7-32.9-16.2-76-3-92.9,29.4-14.8,28.5-9.2,60,11.8,83.5,49.2,54.8,110.7,104.6,161,159.2,32.7,26.1,91.2,11,105.4-28.4,10.3-28.8-13.2-19.1-31.1-21.2-55.7-6.5-95.8-54.3-75.5-110,3.3-9.1,12.2-19.9,10.3-28.3s-40.6-39.8-46.5-45.5h.2,0Z" />
  <g>
    <path class="color-1"
      d="M1403.5,2036.1v111.2h43.9v-292.9l-144.1,160.7-152.8-167.9v72.2c12.2,23.4,18.6,49.9,18.6,77.8s-6.4,54.4-18.6,77.8v72.3h50.3v-111.2c0-20.6-2.3-53.7-2.3-54l-1.4-20.1,11.4,16.6c.2.3,18.8,27.3,33,43.4l60.1,67.2h1l60.2-67.3c14.2-15.9,32.8-43.1,33-43.3l11.4-16.7-1.4,20.2c0,.3-2.3,33.5-2.3,54Z" />
    <path class="color-1"
      d="M1158.1,1997.2c0-42.7-16.1-81.9-45.2-110.4-28.9-28.2-68-43.8-110.3-43.8s-81.4,15.5-110.3,43.8c-9.2,9-17.1,19.1-23.6,30,4.2,12.9,6.3,27.2,6.3,42.5,0,34.4-4.4,56.1-14.3,70.3-2.5,3.6-5.2,6.6-8.2,9.3,7,26.2,20.5,49.7,39.9,68.6,28.9,28.2,68,43.8,110.3,43.8s81.4-15.5,110.3-43.8c29.2-28.6,45.2-67.8,45.2-110.4ZM1002.6,2105.2c-58.3,0-100.7-45.4-100.7-108s42.4-108,100.7-108,100.7,45.4,100.7,108-42.4,108-100.7,108Z" />
    <path class="color-1"
      d="M851.7,2023.4c8.5-12.3,12.3-32.1,12.3-64.1s-11.8-63.8-35-83.1c-22.8-19-56.9-29-98.6-29h-80.5v38.9c15.4,20.4,23.4,46.2,23.4,75.9s-8,55.3-23.4,75.6v109.7h53.1v-77.3h27.5c5.6,0,11.8-.5,17.5-1.3l3.5-.5,51.5,79.2h60.9l-62.4-93.8,5.9-2.7c3-1.3,5.9-2.6,8.6-3.8,16.2-7.1,27.9-12.3,35.7-23.6ZM728.6,2025.1h-25.6v-132.7h25.6c27.5,0,47.1,5,60.1,15.4,13.7,10.9,20.4,27.7,20.4,51.4,0,46.2-24.1,65.9-80.5,65.9Z" />
    <path class="color-1"
      d="M662.3,1962.1c0-71.9-49.9-114.8-133.6-114.8h-80.6v300.1h53.1v-70.9h27.5c83.7,0,133.6-42.8,133.6-114.4ZM526.9,2031.1h-5.5c0-.1-20.1-.1-20.1-.1v-138.6h25.6c53.4,0,80.5,23.4,80.5,69.6s-26.3,69.1-80.5,69.1Z" />
    <path class="color-1"
      d="M1511.5,2147.3v-11.7c-14.1-10.9-25.5-24.8-34-41.5l-4.1-8h7.5l30.5-17.7v-91.1c-9.4-14.1-15.2-31.8-15.2-54.6s5.4-37.9,15.2-52.1v-23.4h-53.1v300.1h53.1Z" />
    <path class="color-1"
      d="M1599.1,2151.5c32.5,0,59.6-10.4,77.5-27.9v-116.4c-13.8-13.7-33.5-24.3-58.7-35.1l-16-6.9c-29.9-13-42.6-26.1-42.6-44s15.2-33,36.2-33,31.8,7.6,43,25.3l38.1-24.4v-6.1c-8.2-13.6-15.3-22.6-24.9-28.6-12.1-7.6-28.9-10.9-56.1-10.9-54.5,0-88.3,30.3-88.3,79.1s29.4,72.6,73.6,91.4l16,6.9c30.9,13.5,50,26.2,50,47.6s-6.4,37.1-49,37.1-53-18.9-64.9-37l-43.2,25c15.4,27.4,46.7,57.8,109.3,57.8Z" />
    <path class="color-1"
      d="M1855.2,2102.1h-114.5v-55.8h124.9v-43.9h-124.9v-109.8h133.4c2.1-6.6,4.9-12.8,8.4-18.4v-26.9h-194.9v300.1h201.3v-8.7c-13.6-9.6-24.9-21.8-33.7-36.6Z" />
    <path class="color-1"
      d="M1991.2,1972.2l-16-6.9c-29.9-13-42.6-26.1-42.6-44s15.2-33,36.2-33,31.8,7.6,43,25.3l40.7-26.1c-9.4-16.1-17-26.4-27.5-33-12.1-7.6-28.9-10.9-56.1-10.9-54.5,0-88.3,30.3-88.3,79.1s29.4,72.6,73.6,91.4l16,6.9c30.9,13.5,50,26.2,50,47.6s-6.4,37.1-49,37.1-53-18.9-64.9-37l-43.2,25c15.4,27.4,46.7,57.8,109.3,57.8s100.6-34.4,100.6-83.7-28.7-72.9-81.8-95.6Z" />
  </g>
</svg>
