<?xml version="1.0" encoding="utf-8"?>
<!-- Generator: Adobe Illustrator 26.5.0, SVG Export Plug-In . SVG Version: 6.00 Build 0)  -->
<svg version="1.1"
	 id="Layer_1" xmlns:cc="http://creativecommons.org/ns#" xmlns:dc="http://purl.org/dc/elements/1.1/" xmlns:osb="http://www.openswatchbook.org/uri/2009/osb" xmlns:rdf="http://www.w3.org/1999/02/22-rdf-syntax-ns#"
	 xmlns="http://www.w3.org/2000/svg" xmlns:xlink="http://www.w3.org/1999/xlink" x="0px" y="0px" viewBox="0 0 2521 2911"
	 style="enable-background:new 0 0 2521 2911;" xml:space="preserve">
<style type="text/css">
	.st0{fill:#161616;}
	.st1{fill:#828282;}
	.st2{fill:#F04242;}
	.st3{fill:url(#SVGID_1_);}
	.st4{fill:url(#SVGID_00000163030926065189348980000002674246284954029994_);}
	.st5{fill:#F06E42;}
	.st6{fill:url(#SVGID_00000003797792768134165490000007513501076494601120_);}
	.st7{fill:url(#SVGID_00000129170684361441575960000016056289036258256291_);}
	.st8{fill:#F09942;}
	.st9{fill:url(#SVGID_00000070108227287492805530000007058509135082848447_);}
	.st10{fill:url(#SVGID_00000049912461743027629880000003596109190639614355_);}
	.st11{fill:#F0C542;}
	.st12{fill:url(#SVGID_00000080927542056566420180000002937078802098031790_);}
	.st13{fill:url(#SVGID_00000034067889710497550490000009239521154118298522_);}
	.st14{fill:#F0F042;}
	.st15{fill:url(#SVGID_00000051346346100282680090000016367813041467744660_);}
	.st16{fill:url(#SVGID_00000101105022021420385840000008175078866073655700_);}
	.st17{fill:#EDEDED;}
	.st18{fill:url(#SVGID_00000100377901967159276360000004442712607682004110_);}
	.st19{fill:url(#SVGID_00000079445250521745220900000004777231409333386628_);}
</style>
<g transform="translate(-2.9007 -5.596)">
	<g>
		<path class="st0" d="M1263.4,2868.1L44.9,2164.6l0-1407L1263.4,54.1l1218.5,703.5v1407L1263.4,2868.1z"/>
		<path class="st1" d="M1263.4,2916.6L2.9,2188.8V733.4L1263.4,5.6l1260.5,727.8v1455.5L1263.4,2916.6z M86.9,2140.4l1176.5,679.3
			l1176.5-679.3V781.8L1263.4,102.5L86.9,781.8V2140.4z"/>
	</g>
	<g>
		<g>
			<g>
				<path class="st2" d="M907,1773.4l-181.3-332.9H657v332.9H458V934.6h319.9c40.3,0,79.4,4.3,117.3,13
					c38.7,7.9,73.1,21.7,103.1,41.5c30.8,19.7,55.3,45.8,73.5,78.2c18.2,32.4,27.2,72.7,27.2,120.8c0,56.9-15.4,104.7-46.2,143.4
					c-30.8,38.7-73.5,66.3-128,82.9l219.2,359L907,1773.4z M898.7,1191.7c0-19.7-4.3-35.5-13-47.4c-7.9-12.6-18.6-22.1-32-28.4
					c-12.6-7.1-27.2-11.8-43.8-14.2c-15.8-2.4-31.2-3.6-46.2-3.6H655.8v195.5h96c16.6,0,33.6-1.2,50.9-3.6
					c17.4-3.2,33.2-8.3,47.4-15.4c14.2-7.1,25.7-17.4,34.4-30.8C894,1230.4,898.7,1213.1,898.7,1191.7L898.7,1191.7z"/>
				
					<linearGradient id="SVGID_1_" gradientUnits="userSpaceOnUse" x1="-458.6927" y1="183.8215" x2="-19.4557" y2="183.8215" gradientTransform="matrix(2.8346 0 0 -2.8346 1765.7207 1875.1217)">
					<stop  offset="0" style="stop-color:#000000"/>
					<stop  offset="1" style="stop-color:#000000"/>
				</linearGradient>
				<path class="st3" d="M1162.7,1783.9l-261.9,0L719.5,1451h-52v332.9h-220V924.2h330.4c40.9,0,81.1,4.5,119.6,13.3
					c39.6,8.1,75.5,22.5,106.5,42.9c32,20.5,57.9,48.1,76.8,81.8c19,33.8,28.6,76.2,28.6,126c0,59-16.3,109.5-48.5,149.9
					c-29.5,37.1-70,64.7-120.3,82.3L1162.7,1783.9z M913.2,1763l212,0l-216.5-354.6l13-3.9c52.2-15.9,93.5-42.6,122.8-79.4
					c29.1-36.6,43.9-82.7,43.9-136.8c0-46.1-8.7-85.1-25.9-115.7c-17.2-30.7-40.8-55.8-70-74.5c-28.9-19-62.3-32.4-99.5-40
					c-37.2-8.5-75.9-12.8-115.2-12.8H468.5V1763h178V1430H732L913.2,1763z M751.8,1304.1H645.4v-216.5h118.3
					c15.5,0,31.5,1.2,47.8,3.7c17.6,2.5,33.5,7.7,47.1,15.3c14.9,7.1,27,17.8,35.9,31.9c9.8,13.6,14.8,31.5,14.8,53.3v0
					c0,23.4-5.4,43-16.1,58.2c-9.4,14.6-22.4,26.2-38.2,34.1c-15,7.5-31.9,13-50.2,16.3C786.4,1302.9,768.8,1304.1,751.8,1304.1z
					 M666.3,1283.1h85.5c16,0,32.7-1.2,49.5-3.5c15.9-2.9,30.9-7.8,44.1-14.4c12.6-6.3,22.5-15.2,30.2-27.1
					c8.4-11.9,12.5-27.4,12.5-46.4h0c0-17.4-3.7-31.2-11-41.2l-0.4-0.6c-6.9-11-15.9-19-27.6-24.5l-0.7-0.3
					c-11.4-6.4-25-10.8-40.2-13c-15.3-2.3-30.3-3.4-44.7-3.4h-97.3V1283.1z"/>
			</g>
			<g>
				<path class="st2" d="M1775.4,1491.5c0,47.4-8.7,90-26.1,128c-17.4,37.9-41.1,69.9-71.1,96c-30,26.1-65.2,45.8-105.4,59.2
					c-40.3,14.2-82.9,21.3-128,21.3c-45.8,0-88.9-7.1-129.1-21.3c-39.5-13.4-74.2-33.2-104.3-59.2c-30-26.1-53.7-57.7-71.1-94.8
					c-17.4-37.1-26.1-78.6-26.1-124.4c0-49.8,8.7-94.8,26.1-135.1c17.4-41.1,39.9-82.5,67.5-124.4l202.6-302.1H1651l-206.1,286.7
					l-3.6,5.9c7.9-3.2,17.4-5.5,28.4-7.1c11.1-1.6,21.3-2.4,30.8-2.4c36.3,0,71.1,6.7,104.3,20.1c34,12.6,63.2,31.2,87.7,55.7
					c25.3,23.7,45.4,52.5,60.4,86.5C1767.9,1413.3,1775.4,1450.4,1775.4,1491.5L1775.4,1491.5z M1576.3,1496.2
					c0-37.9-11.8-69.1-35.5-93.6c-23.7-25.3-55.3-37.9-94.8-37.9s-71.5,12.2-96,36.7c-24.5,24.5-36.7,56.5-36.7,96
					c0,36.3,11.8,67.5,35.5,93.6c23.7,26.1,55.7,39.1,96,39.1c39.5,0,71.1-12.2,94.8-36.7
					C1564.1,1568.9,1576.3,1536.5,1576.3,1496.2z"/>
				
					<linearGradient id="SVGID_00000154423062438757577140000015263698589160405680_" gradientUnits="userSpaceOnUse" x1="-446.2097" y1="179.8488" x2="0.6972" y2="179.8488" gradientTransform="matrix(2.8346 0 0 -2.8346 1765.7207 1875.1217)">
					<stop  offset="0" style="stop-color:#000000"/>
					<stop  offset="1" style="stop-color:#000000"/>
				</linearGradient>
				<path style="fill:url(#SVGID_00000154423062438757577140000015263698589160405680_);" d="M1444.8,1806.5
					c-46.8,0-91.4-7.4-132.6-21.9c-40.5-13.8-76.7-34.4-107.6-61.2c-31-26.9-55.8-60-73.7-98.3c-18-38.4-27.1-81.7-27.1-128.8
					c0-51,9.1-97.8,26.9-139.2c17.5-41.4,40.5-83.8,68.4-126l205.8-306.8h266.6l-205.6,286c0.8-0.1,1.6-0.2,2.4-0.4
					c11.5-1.6,22.4-2.5,32.3-2.5c37.5,0,73.9,7,108.2,20.9c35,13,65.7,32.5,91.2,58c25.9,24.3,47.1,54.6,62.6,89.7
					c15.5,34.3,23.4,73.2,23.4,115.6l0,0c0,48.7-9.1,93.2-27,132.3c-17.9,39.1-42.7,72.6-73.7,99.5c-30.9,26.9-67.6,47.5-109,61.3
					C1535.1,1799.1,1490.8,1806.5,1444.8,1806.5z M1416.1,945.2l-199.5,297.5c-27.1,41.1-49.5,82.4-66.6,122.6
					c-16.8,38.8-25.2,82.9-25.2,131c0,44,8.4,84.4,25.1,119.9c16.7,35.6,39.7,66.3,68.5,91.3c28.8,25,62.7,44.3,100.8,57.2
					c39.1,13.8,81.3,20.8,125.8,20.8c43.6,0,85.5-7,124.5-20.7c39-13,73.2-32.2,102.1-57.3c28.7-25,51.8-56,68.4-92.4
					c16.7-36.3,25.1-77.9,25.1-123.6c0-39.4-7.3-75.4-21.6-107c-14.4-32.6-33.9-60.5-58-83.2c-23.5-23.5-51.8-41.5-84.2-53.5
					c-32-13-65.8-19.5-100.6-19.5c-8.9,0-18.8,0.8-29.3,2.3c-10.2,1.5-18.9,3.6-26,6.5l-28.9,11.6l20.1-33.4l194.2-270.1H1416.1z
					 M1444.8,1640.6c-43.2,0-78.1-14.3-103.7-42.5c-25.4-27.9-38.3-61.8-38.3-100.7c0-42.2,13.4-77,39.8-103.4
					c26.4-26.4,61.2-39.8,103.4-39.8c42.3,0,76.8,13.9,102.4,41.2c25.4,26.3,38.4,60.2,38.4,100.8c0,43-13.4,78.2-39.8,104.6
					C1521.5,1627.2,1487.1,1640.6,1444.8,1640.6z M1446,1375.2c-36.9,0-65.9,11-88.5,33.7c-22.6,22.6-33.6,51.6-33.6,88.5
					c0,33.9,10.7,62.3,32.8,86.5c21.8,24,50.7,35.7,88.2,35.7c36.9,0,65.4-11,87.2-33.5c22.8-22.8,33.8-52.1,33.8-89.8
					c0-35.4-10.7-63.6-32.6-86.3C1511.3,1386.5,1482.8,1375.2,1446,1375.2z"/>
			</g>
		</g>
		<g>
			<g>
				<path class="st5" d="M971.2,1819.5l-181.3-332.9h-68.7v332.9h-199V980.7h319.9c40.3,0,79.4,4.3,117.3,13
					c38.7,7.9,73.1,21.7,103.1,41.5c30.8,19.7,55.3,45.8,73.5,78.2c18.2,32.4,27.2,72.7,27.2,120.8c0,56.9-15.4,104.7-46.2,143.4
					c-30.8,38.7-73.5,66.3-128,82.9l219.2,359L971.2,1819.5z M962.9,1237.8c0-19.7-4.3-35.5-13-47.4c-7.9-12.6-18.6-22.1-32-28.4
					c-12.6-7.1-27.2-11.8-43.8-14.2c-15.8-2.4-31.2-3.6-46.2-3.6H720v195.5h96c16.6,0,33.6-1.2,50.9-3.6
					c17.4-3.2,33.2-8.3,47.4-15.4c14.2-7.1,25.7-17.4,34.4-30.8C958.2,1276.5,962.9,1259.1,962.9,1237.8L962.9,1237.8z"/>
				
					<linearGradient id="SVGID_00000106138971114676608620000005826033064379673729_" gradientUnits="userSpaceOnUse" x1="-440.6252" y1="170.8658" x2="-1.3882" y2="170.8658" gradientTransform="matrix(2.8346 0 0 -2.8346 1778.7317 1884.4335)">
					<stop  offset="0" style="stop-color:#000000"/>
					<stop  offset="1" style="stop-color:#000000"/>
				</linearGradient>
				<path style="fill:url(#SVGID_00000106138971114676608620000005826033064379673729_);" d="M1226.9,1830l-261.9,0l-181.3-332.9
					h-52V1830h-220V970.2h330.4c40.9,0,81.1,4.5,119.6,13.3c39.6,8.1,75.5,22.5,106.5,42.9c32,20.5,57.9,48.1,76.8,81.8
					c19,33.8,28.6,76.2,28.6,126c0,59-16.3,109.5-48.5,149.9c-29.5,37.1-70,64.7-120.3,82.3L1226.9,1830z M977.4,1809l212,0
					L973,1454.4l13-3.9c52.2-15.9,93.5-42.6,122.8-79.4c29.1-36.6,43.9-82.7,43.9-136.8c0-46.1-8.7-85.1-25.9-115.7
					c-17.2-30.7-40.8-55.8-70-74.5c-28.9-19-62.3-32.4-99.5-40c-37.2-8.5-75.9-12.8-115.2-12.8H532.7V1809h178v-332.9h85.4
					L977.4,1809z M816,1350.2H709.6v-216.5h118.3c15.5,0,31.5,1.2,47.8,3.7c17.6,2.5,33.5,7.7,47.1,15.3c14.9,7.1,27,17.8,35.9,31.9
					c9.8,13.6,14.8,31.5,14.8,53.3l0,0c0,23.4-5.4,43-16.1,58.2c-9.4,14.6-22.4,26.2-38.2,34.1c-15,7.5-31.9,13-50.2,16.3
					C850.6,1348.9,833,1350.2,816,1350.2z M730.5,1329.2H816c16,0,32.7-1.2,49.5-3.5c15.9-2.9,30.9-7.8,44.1-14.4
					c12.6-6.3,22.5-15.2,30.2-27.1c8.4-11.9,12.5-27.4,12.5-46.4h0c0-17.4-3.7-31.2-11-41.2l-0.4-0.6c-6.9-11-15.9-19-27.6-24.5
					l-0.7-0.3c-11.4-6.4-25-10.8-40.2-13c-15.3-2.3-30.3-3.4-44.7-3.4h-97.3V1329.2z"/>
			</g>
			<g>
				<path class="st5" d="M1839.6,1537.5c0,47.4-8.7,90-26.1,128s-41.1,69.9-71.1,96c-30,26.1-65.2,45.8-105.4,59.2
					c-40.3,14.2-82.9,21.3-128,21.3c-45.8,0-88.9-7.1-129.1-21.3c-39.5-13.4-74.2-33.2-104.3-59.2c-30-26.1-53.7-57.7-71.1-94.8
					c-17.4-37.1-26.1-78.6-26.1-124.4c0-49.8,8.7-94.8,26.1-135.1c17.4-41.1,39.9-82.5,67.5-124.4l202.6-302.1h240.5l-206.1,286.7
					l-3.6,5.9c7.9-3.2,17.4-5.5,28.4-7.1c11.1-1.6,21.3-2.4,30.8-2.4c36.3,0,71.1,6.7,104.3,20.1c34,12.6,63.2,31.2,87.7,55.7
					c25.3,23.7,45.4,52.5,60.4,86.5C1832.1,1459.3,1839.6,1496.5,1839.6,1537.5L1839.6,1537.5z M1640.6,1542.3
					c0-37.9-11.8-69.1-35.5-93.6c-23.7-25.3-55.3-37.9-94.8-37.9c-39.5,0-71.5,12.2-96,36.7c-24.5,24.5-36.7,56.5-36.7,96
					c0,36.3,11.8,67.5,35.5,93.6c23.7,26.1,55.7,39.1,96,39.1c39.5,0,71.1-12.2,94.8-36.7
					C1628.3,1614.9,1640.6,1582.5,1640.6,1542.3z"/>
				
					<linearGradient id="SVGID_00000052102180194378985840000006903485461981000843_" gradientUnits="userSpaceOnUse" x1="-428.1404" y1="166.8931" x2="18.7649" y2="166.8931" gradientTransform="matrix(2.8346 0 0 -2.8346 1778.7317 1884.4335)">
					<stop  offset="0" style="stop-color:#000000"/>
					<stop  offset="1" style="stop-color:#000000"/>
				</linearGradient>
				<path style="fill:url(#SVGID_00000052102180194378985840000006903485461981000843_);" d="M1509.1,1852.5
					c-46.8,0-91.4-7.4-132.6-21.9c-40.5-13.8-76.7-34.4-107.6-61.2c-31-26.9-55.8-60-73.7-98.3c-18-38.4-27.1-81.7-27.1-128.8
					c0-51,9.1-97.8,26.9-139.2c17.5-41.4,40.5-83.8,68.4-126l205.8-306.8h266.6l-205.6,286c0.8-0.1,1.6-0.2,2.4-0.4
					c11.5-1.6,22.3-2.5,32.3-2.5c37.5,0,73.9,7,108.2,20.9c34.9,13,65.7,32.5,91.2,58c25.9,24.3,47.1,54.6,62.6,89.7
					c15.5,34.3,23.4,73.2,23.4,115.6l0,0c0,48.7-9.1,93.2-27,132.3c-17.9,39.1-42.7,72.6-73.7,99.5c-30.9,26.9-67.6,47.5-109,61.3
					C1599.3,1845.1,1555.1,1852.5,1509.1,1852.5z M1480.3,991.2l-199.5,297.5c-27.1,41.1-49.5,82.4-66.6,122.6
					c-16.8,38.8-25.2,82.9-25.2,131c0,44,8.4,84.4,25.1,119.9c16.7,35.6,39.7,66.3,68.5,91.3c28.8,25,62.7,44.3,100.8,57.2
					c39.1,13.8,81.4,20.8,125.8,20.8c43.6,0,85.5-7,124.5-20.7c39-13,73.2-32.2,102.1-57.3c28.7-24.9,51.8-56,68.4-92.4
					c16.7-36.4,25.1-77.9,25.1-123.6c0-39.4-7.3-75.4-21.6-107c-14.4-32.6-33.9-60.5-58-83.2c-23.5-23.5-51.8-41.5-84.2-53.5
					c-32-13-65.8-19.5-100.6-19.5c-8.9,0-18.8,0.8-29.3,2.3c-10.2,1.5-18.9,3.6-26,6.5l-28.9,11.6l20-33.4l194.2-270.1H1480.3z
					 M1509.1,1686.6c-43.2,0-78.1-14.3-103.7-42.5c-25.4-27.9-38.3-61.8-38.3-100.7c0-42.2,13.4-77,39.8-103.4
					c26.4-26.4,61.2-39.8,103.4-39.8c42.3,0,76.8,13.9,102.4,41.2c25.4,26.3,38.4,60.2,38.4,100.8c0,43-13.4,78.2-39.8,104.6
					C1585.7,1673.2,1551.3,1686.6,1509.1,1686.6z M1510.2,1421.3c-36.9,0-65.9,11-88.5,33.7c-22.6,22.6-33.7,51.6-33.7,88.5
					c0,33.9,10.7,62.2,32.8,86.5c21.8,24,50.7,35.7,88.2,35.7c36.9,0,65.4-11,87.2-33.5c22.8-22.8,33.8-52.1,33.8-89.8
					c0-35.4-10.7-63.6-32.6-86.3C1575.5,1432.6,1547,1421.3,1510.2,1421.3z"/>
			</g>
		</g>
		<g>
			<g>
				<path class="st8" d="M1035.4,1865.4l-181.3-332.9h-68.7v332.9h-199v-838.8h319.9c40.3,0,79.4,4.3,117.3,13
					c38.7,7.9,73.1,21.7,103.1,41.5c30.8,19.7,55.3,45.8,73.5,78.2c18.2,32.4,27.2,72.7,27.2,120.8c0,56.9-15.4,104.7-46.2,143.4
					c-30.8,38.7-73.5,66.3-128,82.9l219.2,359L1035.4,1865.4z M1027.1,1283.7c0-19.7-4.3-35.5-13-47.4c-7.9-12.6-18.6-22.1-32-28.4
					c-12.6-7.1-27.2-11.8-43.8-14.2c-15.8-2.4-31.2-3.6-46.2-3.6H784.3v195.5h96c16.6,0,33.6-1.2,50.9-3.6
					c17.4-3.2,33.2-8.3,47.4-15.4c14.2-7.1,25.7-17.4,34.4-30.8C1022.4,1322.4,1027.1,1305,1027.1,1283.7L1027.1,1283.7z"/>
				
					<linearGradient id="SVGID_00000158006653915697351630000014028427795320634282_" gradientUnits="userSpaceOnUse" x1="-422.5568" y1="157.9587" x2="16.6788" y2="157.9587" gradientTransform="matrix(2.8346 0 0 -2.8346 1791.7427 1893.7424)">
					<stop  offset="0" style="stop-color:#000000"/>
					<stop  offset="1" style="stop-color:#000000"/>
				</linearGradient>
				<path style="fill:url(#SVGID_00000158006653915697351630000014028427795320634282_);" d="M1291.1,1875.9l-261.9,0L847.9,1543
					h-52v332.9h-220v-859.8h330.4c40.9,0,81.1,4.5,119.6,13.3c39.6,8.1,75.5,22.5,106.5,42.9c32,20.5,57.9,48.1,76.8,81.8
					c19,33.8,28.6,76.2,28.6,126c0,59-16.3,109.5-48.5,149.9c-29.5,37.1-70,64.7-120.3,82.3L1291.1,1875.9z M1041.7,1854.9l212,0
					l-216.5-354.6l13-3.9c52.2-15.9,93.5-42.6,122.8-79.4c29.1-36.6,43.9-82.7,43.9-136.8c0-46.1-8.7-85.1-25.9-115.7
					c-17.2-30.7-40.8-55.8-70-74.5c-28.9-19-62.3-32.4-99.5-40c-37.2-8.5-75.9-12.8-115.2-12.8H596.9v817.8h178V1522h85.4
					L1041.7,1854.9z M880.2,1396.1H773.8v-216.5h118.3c15.5,0,31.5,1.2,47.8,3.7c17.6,2.5,33.5,7.7,47.1,15.3
					c14.9,7.1,27,17.8,35.9,31.9c9.8,13.6,14.8,31.5,14.8,53.3c0,23.4-5.4,43-16.1,58.2c-9.4,14.6-22.4,26.2-38.2,34.1
					c-15,7.5-31.9,13-50.2,16.3C914.8,1394.8,897.2,1396.1,880.2,1396.1z M794.8,1375.1h85.5c16,0,32.7-1.2,49.5-3.5
					c15.9-2.9,30.9-7.8,44.1-14.4c12.6-6.3,22.5-15.2,30.2-27.1c8.4-11.9,12.5-27.4,12.5-46.4c0-17.4-3.7-31.2-11-41.2l-0.4-0.6
					c-6.9-11-15.9-19-27.6-24.5l-0.7-0.3c-11.4-6.4-25-10.8-40.2-13c-15.3-2.3-30.3-3.4-44.7-3.4h-97.3V1375.1z"/>
			</g>
			<g>
				<path class="st8" d="M1903.8,1583.4c0,47.4-8.7,90-26.1,128c-17.4,37.9-41.1,69.9-71.1,96c-30,26.1-65.2,45.8-105.4,59.2
					c-40.3,14.2-82.9,21.3-128,21.3c-45.8,0-88.9-7.1-129.1-21.3c-39.5-13.4-74.2-33.2-104.3-59.2c-30-26.1-53.7-57.7-71.1-94.8
					c-17.4-37.1-26.1-78.6-26.1-124.4c0-49.8,8.7-94.8,26.1-135.1c17.4-41.1,39.9-82.5,67.5-124.4l202.6-302.1h240.5l-206.1,286.7
					l-3.6,5.9c7.9-3.2,17.4-5.5,28.4-7.1c11.1-1.6,21.3-2.4,30.8-2.4c36.3,0,71.1,6.7,104.3,20.1c34,12.6,63.2,31.2,87.7,55.7
					c25.3,23.7,45.4,52.5,60.4,86.5C1896.3,1505.2,1903.8,1542.3,1903.8,1583.4L1903.8,1583.4z M1704.8,1588.2
					c0-37.9-11.8-69.1-35.5-93.6c-23.7-25.3-55.3-37.9-94.8-37.9s-71.5,12.2-96,36.7c-24.5,24.5-36.7,56.5-36.7,96
					c0,36.3,11.8,67.5,35.5,93.6c23.7,26.1,55.7,39.1,96,39.1c39.5,0,71.1-12.2,94.8-36.7
					C1692.6,1660.8,1704.8,1628.4,1704.8,1588.2z"/>
				
					<linearGradient id="SVGID_00000003814761234649282290000012861879856270802090_" gradientUnits="userSpaceOnUse" x1="-410.0727" y1="153.9852" x2="36.8342" y2="153.9852" gradientTransform="matrix(2.8346 0 0 -2.8346 1791.7427 1893.7424)">
					<stop  offset="0" style="stop-color:#000000"/>
					<stop  offset="1" style="stop-color:#000000"/>
				</linearGradient>
				<path style="fill:url(#SVGID_00000003814761234649282290000012861879856270802090_);" d="M1573.3,1898.4
					c-46.8,0-91.4-7.4-132.6-21.9c-40.5-13.8-76.7-34.4-107.6-61.2c-31-26.9-55.8-60-73.7-98.3c-18-38.3-27.1-81.7-27.1-128.8
					c0-51,9.1-97.8,26.9-139.2c17.5-41.4,40.5-83.8,68.4-126l205.8-306.8h266.6l-205.6,286c0.8-0.1,1.6-0.2,2.4-0.4
					c11.5-1.6,22.4-2.5,32.3-2.5c37.5,0,73.9,7,108.2,20.9c35,13,65.7,32.5,91.2,58c25.9,24.3,47.1,54.6,62.6,89.7
					c15.5,34.3,23.4,73.2,23.4,115.6h0c0,48.7-9.1,93.2-27,132.3c-17.9,39.1-42.7,72.6-73.7,99.5c-30.9,26.9-67.6,47.5-109,61.3
					C1663.5,1891,1619.3,1898.4,1573.3,1898.4z M1544.5,1037.1l-199.5,297.5c-27.1,41.1-49.5,82.3-66.6,122.6
					c-16.8,38.8-25.2,82.9-25.2,131c0,44,8.4,84.4,25.1,119.9c16.7,35.6,39.7,66.3,68.5,91.3c28.8,25,62.7,44.3,100.8,57.2
					c39.1,13.8,81.4,20.8,125.8,20.8c43.6,0,85.5-7,124.5-20.7c38.9-13,73.2-32.2,102.1-57.3c28.7-25,51.8-56,68.4-92.4
					c16.7-36.4,25.1-77.9,25.1-123.6c0-39.4-7.3-75.4-21.6-107c-14.4-32.6-33.9-60.5-58-83.2c-23.5-23.5-51.8-41.5-84.2-53.5
					c-32-13-65.8-19.5-100.6-19.5c-8.9,0-18.8,0.8-29.3,2.3c-10.2,1.5-18.9,3.6-26,6.5l-28.9,11.6l20.1-33.4l194.2-270.1H1544.5z
					 M1573.3,1732.5c-43.2,0-78.1-14.3-103.7-42.5c-25.4-27.9-38.3-61.8-38.3-100.7c0-42.2,13.4-77,39.8-103.4
					c26.4-26.4,61.2-39.8,103.4-39.8c42.3,0,76.8,13.9,102.4,41.2c25.4,26.3,38.4,60.2,38.4,100.8c0,43-13.4,78.2-39.8,104.6
					C1650,1719.1,1615.5,1732.5,1573.3,1732.5z M1574.5,1467.1c-36.9,0-65.9,11-88.5,33.7c-22.6,22.6-33.7,51.6-33.7,88.5
					c0,33.9,10.7,62.3,32.8,86.5c21.8,24,50.7,35.7,88.2,35.7c36.9,0,65.4-11,87.2-33.5c22.8-22.8,33.8-52.1,33.8-89.8
					c0-35.4-10.7-63.6-32.6-86.3C1639.8,1478.5,1611.3,1467.1,1574.5,1467.1z"/>
			</g>
		</g>
		<g>
			<g>
				<path class="st11" d="M1099.6,1911.4l-181.3-332.9h-68.7v332.9h-199v-838.8h319.9c40.3,0,79.4,4.3,117.3,13
					c38.7,7.9,73.1,21.7,103.1,41.5c30.8,19.7,55.3,45.8,73.5,78.2c18.2,32.4,27.2,72.7,27.2,120.8c0,56.9-15.4,104.7-46.2,143.4
					c-30.8,38.7-73.5,66.3-128,82.9l219.2,359L1099.6,1911.4z M1091.3,1329.7c0-19.7-4.3-35.5-13-47.4c-7.9-12.6-18.6-22.1-32-28.4
					c-12.6-7.1-27.2-11.8-43.8-14.2c-15.8-2.4-31.2-3.6-46.2-3.6H848.5v195.5h96c16.6,0,33.6-1.2,50.9-3.6
					c17.4-3.2,33.2-8.3,47.4-15.4c14.2-7.1,25.7-17.4,34.4-30.8C1086.6,1368.4,1091.3,1351,1091.3,1329.7L1091.3,1329.7z"/>
				
					<linearGradient id="SVGID_00000116927854551829945490000009350367434399164033_" gradientUnits="userSpaceOnUse" x1="-404.4893" y1="145.002" x2="34.7478" y2="145.002" gradientTransform="matrix(2.8346 0 0 -2.8346 1804.7538 1903.0515)">
					<stop  offset="0" style="stop-color:#000000"/>
					<stop  offset="1" style="stop-color:#000000"/>
				</linearGradient>
				<path style="fill:url(#SVGID_00000116927854551829945490000009350367434399164033_);" d="M1355.3,1921.9l-261.9,0L912.1,1589
					h-52v332.9h-220v-859.8h330.4c40.9,0,81.1,4.5,119.6,13.3c39.6,8.1,75.5,22.5,106.5,42.9c32,20.5,57.9,48.1,76.8,81.8
					c19,33.8,28.6,76.2,28.6,126c0,59-16.3,109.5-48.5,149.9c-29.5,37.1-70,64.7-120.3,82.3L1355.3,1921.9z M1105.9,1900.9l212,0
					l-216.5-354.6l13-3.9c52.2-15.9,93.5-42.6,122.8-79.4c29.1-36.6,43.9-82.7,43.9-136.8c0-46.1-8.7-85.1-25.9-115.7
					c-17.2-30.7-40.8-55.8-70-74.5c-28.9-19-62.3-32.4-99.5-40c-37.2-8.5-75.9-12.8-115.2-12.8H661.1v817.8h178V1568h85.4
					L1105.9,1900.9z M944.4,1442.1H838v-216.5h118.3c15.5,0,31.5,1.2,47.8,3.7c17.6,2.5,33.4,7.7,47.1,15.3
					c14.9,7.1,27,17.8,35.9,31.9c9.8,13.6,14.8,31.5,14.8,53.3c0,23.4-5.4,43-16.1,58.2c-9.4,14.6-22.4,26.2-38.2,34.1
					c-15,7.5-31.9,13-50.2,16.3C979,1440.9,961.4,1442.1,944.4,1442.1z M859,1421.1h85.5c16,0,32.7-1.2,49.5-3.5
					c15.9-2.9,30.9-7.8,44.1-14.4c12.6-6.3,22.5-15.2,30.2-27.1c8.4-11.9,12.5-27.4,12.5-46.4c0-17.4-3.7-31.2-11-41.2l-0.4-0.6
					c-6.9-11-15.9-19-27.6-24.5l-0.7-0.3c-11.4-6.4-25-10.8-40.2-13c-15.3-2.3-30.3-3.4-44.7-3.4H859V1421.1z"/>
			</g>
			<g>
				<path class="st11" d="M1968.1,1629.3c0,47.4-8.7,90-26.1,128s-41.1,69.9-71.1,96c-30,26.1-65.2,45.8-105.4,59.2
					c-40.3,14.2-82.9,21.3-128,21.3c-45.8,0-88.9-7.1-129.1-21.3c-39.5-13.4-74.2-33.2-104.3-59.2c-30-26.1-53.7-57.7-71.1-94.8
					c-17.4-37.1-26.1-78.6-26.1-124.4c0-49.8,8.7-94.8,26.1-135.1c17.4-41.1,39.9-82.5,67.5-124.4l202.6-302.1h240.5l-206.1,286.7
					l-3.6,5.9c7.9-3.2,17.4-5.5,28.4-7.1c11.1-1.6,21.3-2.4,30.8-2.4c36.3,0,71.1,6.7,104.3,20.1c34,12.6,63.2,31.2,87.7,55.7
					c25.3,23.7,45.4,52.5,60.4,86.5C1960.5,1551.1,1968.1,1588.2,1968.1,1629.3L1968.1,1629.3z M1769,1634.1
					c0-37.9-11.8-69.1-35.5-93.6c-23.7-25.3-55.3-37.9-94.8-37.9c-39.5,0-71.5,12.2-96,36.7c-24.5,24.5-36.7,56.5-36.7,96
					c0,36.3,11.8,67.5,35.5,93.6c23.7,26.1,55.7,39.1,96,39.1c39.5,0,71.1-12.2,94.8-36.7C1756.8,1706.7,1769,1674.3,1769,1634.1
					L1769,1634.1z"/>
				
					<linearGradient id="SVGID_00000081636567769439873300000012010243484386919100_" gradientUnits="userSpaceOnUse" x1="-392.0035" y1="141.0777" x2="54.9018" y2="141.0777" gradientTransform="matrix(2.8346 0 0 -2.8346 1804.7538 1903.0515)">
					<stop  offset="0" style="stop-color:#000000"/>
					<stop  offset="1" style="stop-color:#000000"/>
				</linearGradient>
				<path style="fill:url(#SVGID_00000081636567769439873300000012010243484386919100_);" d="M1637.5,1944.3
					c-46.8,0-91.4-7.4-132.6-21.9c-40.5-13.8-76.7-34.4-107.6-61.2c-31-26.9-55.8-60-73.7-98.3c-17.9-38.3-27-81.7-27-128.8
					c0-51,9.1-97.8,26.9-139.2c17.5-41.4,40.6-83.8,68.4-126l205.8-306.8h266.6l-205.6,286c0.8-0.1,1.6-0.2,2.4-0.4
					c11.5-1.6,22.3-2.5,32.3-2.5c37.5,0,73.9,7,108.2,20.9c35,13,65.7,32.5,91.2,58c25.9,24.3,47.1,54.6,62.6,89.7
					c15.5,34.3,23.4,73.2,23.4,115.6l0,0c0,48.7-9.1,93.2-27,132.3c-17.9,39.1-42.7,72.6-73.7,99.5c-30.9,26.9-67.6,47.5-109,61.3
					C1727.7,1936.9,1683.5,1944.3,1637.5,1944.3z M1608.8,1083l-199.5,297.5c-27.1,41.1-49.5,82.3-66.6,122.6
					c-16.8,38.8-25.2,82.9-25.2,131c0,44.1,8.4,84.4,25.1,119.9c16.7,35.6,39.7,66.3,68.5,91.3c28.8,25,62.7,44.3,100.8,57.2
					c39.1,13.8,81.4,20.8,125.8,20.8c43.6,0,85.5-7,124.5-20.7c39-13,73.2-32.2,102.1-57.3c28.7-25,51.8-56.1,68.4-92.4
					c16.7-36.3,25.1-77.9,25.1-123.6c0-39.4-7.3-75.4-21.6-107c-14.4-32.6-33.9-60.5-58-83.2c-23.5-23.5-51.8-41.5-84.2-53.5
					c-32-13-65.8-19.5-100.6-19.5c-9,0-18.8,0.8-29.3,2.3c-10.2,1.5-18.9,3.6-26,6.5l-28.9,11.6l20.1-33.4l194.2-270.1H1608.8z
					 M1637.5,1778.4c-43.2,0-78.1-14.3-103.7-42.5c-25.4-27.9-38.3-61.8-38.3-100.7c0-42.2,13.4-77,39.8-103.4
					c26.4-26.4,61.2-39.8,103.4-39.8c42.3,0,76.8,13.9,102.4,41.2c25.4,26.3,38.4,60.2,38.4,100.8c0,43-13.4,78.2-39.8,104.6
					C1714.2,1765,1679.8,1778.4,1637.5,1778.4z M1638.7,1513c-36.9,0-65.9,11-88.5,33.7c-22.6,22.6-33.6,51.6-33.6,88.5
					c0,33.9,10.7,62.3,32.8,86.5c21.8,24,50.7,35.7,88.2,35.7c36.9,0,65.4-11,87.2-33.5c22.8-22.8,33.8-52.1,33.8-89.9
					c0-35.4-10.7-63.6-32.6-86.3C1704,1524.4,1675.5,1513,1638.7,1513z"/>
			</g>
		</g>
		<g>
			<g>
				<path class="st14" d="M1163.9,1957.3l-181.3-332.9h-68.7v332.9h-199v-838.8h319.9c40.3,0,79.4,4.3,117.3,13
					c38.7,7.9,73.1,21.7,103.1,41.5c30.8,19.7,55.3,45.8,73.5,78.2c18.2,32.4,27.2,72.7,27.2,120.8c0,56.9-15.4,104.7-46.2,143.4
					c-30.8,38.7-73.5,66.3-128,82.9l219.2,359L1163.9,1957.3z M1155.6,1375.6c0-19.7-4.3-35.5-13-47.4c-7.9-12.6-18.6-22.1-32-28.4
					c-12.6-7.1-27.2-11.8-43.8-14.2c-15.8-2.4-31.2-3.6-46.2-3.6H912.7v195.5h96c16.6,0,33.6-1.2,50.9-3.6
					c17.4-3.2,33.2-8.3,47.4-15.4c14.2-7.1,25.7-17.4,34.4-30.8C1150.8,1414.3,1155.6,1396.9,1155.6,1375.6L1155.6,1375.6z"/>
				
					<linearGradient id="SVGID_00000096775230732626970850000005090173831726488210_" gradientUnits="userSpaceOnUse" x1="-386.4577" y1="132.0941" x2="52.7794" y2="132.0941" gradientTransform="matrix(2.8346 0 0 -2.8346 1817.7365 1912.3605)">
					<stop  offset="0" style="stop-color:#000000"/>
					<stop  offset="1" style="stop-color:#000000"/>
				</linearGradient>
				<path style="fill:url(#SVGID_00000096775230732626970850000005090173831726488210_);" d="M1419.5,1967.8l-261.9,0l-181.3-332.9
					h-52v332.9h-220V1108h330.4c40.9,0,81.1,4.5,119.6,13.3c39.6,8.1,75.5,22.5,106.5,42.9c32,20.5,57.9,48.1,76.8,81.8
					c19,33.8,28.6,76.2,28.6,126c0,59-16.3,109.5-48.5,149.9c-29.5,37.1-70,64.7-120.3,82.3L1419.5,1967.8z M1170.1,1946.8l212,0
					l-216.5-354.6l13-3.9c52.2-15.9,93.5-42.6,122.8-79.4c29.1-36.6,43.9-82.6,43.9-136.8c0-46.1-8.7-85.1-25.9-115.7
					c-17.2-30.7-40.8-55.8-70-74.5c-28.9-19-62.3-32.4-99.5-40c-37.2-8.5-75.9-12.8-115.2-12.8H725.3v817.8h178v-332.9h85.4
					L1170.1,1946.8z M1008.7,1488H902.2v-216.5h118.3c15.5,0,31.5,1.2,47.8,3.7c17.6,2.5,33.5,7.7,47.1,15.3
					c14.9,7.1,27,17.8,35.9,31.9c9.8,13.6,14.8,31.5,14.8,53.3c0,23.4-5.4,43-16.1,58.2c-9.4,14.6-22.4,26.2-38.2,34.1
					c-15,7.5-31.9,13-50.2,16.3C1043.3,1486.8,1025.6,1488,1008.7,1488z M923.2,1467h85.5c16,0,32.7-1.2,49.5-3.5
					c15.9-2.9,30.9-7.8,44.1-14.4c12.6-6.3,22.5-15.2,30.2-27.1c8.4-11.9,12.5-27.4,12.5-46.4c0-17.4-3.7-31.2-11-41.2l-0.4-0.6
					c-6.9-11-15.9-19-27.6-24.5l-0.7-0.3c-11.4-6.4-25-10.8-40.2-13c-15.3-2.3-30.3-3.4-44.7-3.4h-97.3V1467z"/>
			</g>
			<g>
				<path class="st14" d="M2032.3,1675.4c0,47.4-8.7,90-26.1,128s-41.1,69.9-71.1,96c-30,26.1-65.2,45.8-105.4,59.2
					c-40.3,14.2-82.9,21.3-128,21.3c-45.8,0-88.9-7.1-129.1-21.3c-39.5-13.4-74.2-33.2-104.3-59.2c-30-26.1-53.7-57.7-71.1-94.8
					c-17.4-37.1-26.1-78.6-26.1-124.4c0-49.8,8.7-94.8,26.1-135.1c17.4-41.1,39.9-82.5,67.5-124.4l202.6-302.1h240.5l-206.1,286.7
					l-3.6,5.9c7.9-3.2,17.4-5.5,28.4-7.1c11.1-1.6,21.3-2.4,30.8-2.4c36.3,0,71.1,6.7,104.3,20.1c34,12.6,63.2,31.2,87.7,55.7
					c25.3,23.7,45.4,52.5,60.4,86.5C2024.8,1597.2,2032.3,1634.3,2032.3,1675.4L2032.3,1675.4z M1833.2,1680.1
					c0-37.9-11.8-69.1-35.5-93.6c-23.7-25.3-55.3-37.9-94.8-37.9c-39.5,0-71.5,12.2-96,36.7c-24.5,24.5-36.7,56.5-36.7,96
					c0,36.3,11.8,67.5,35.5,93.6s55.7,39.1,96,39.1c39.5,0,71.1-12.2,94.8-36.7C1821,1752.8,1833.2,1720.4,1833.2,1680.1
					L1833.2,1680.1z"/>
				
					<linearGradient id="SVGID_00000008870441915649245030000009108498459266053310_" gradientUnits="userSpaceOnUse" x1="-373.9726" y1="128.1214" x2="72.9327" y2="128.1214" gradientTransform="matrix(2.8346 0 0 -2.8346 1817.7365 1912.3605)">
					<stop  offset="0" style="stop-color:#000000"/>
					<stop  offset="1" style="stop-color:#000000"/>
				</linearGradient>
				<path style="fill:url(#SVGID_00000008870441915649245030000009108498459266053310_);" d="M1701.7,1990.3
					c-46.8,0-91.4-7.4-132.6-21.9c-40.5-13.8-76.7-34.4-107.6-61.2c-31-26.9-55.8-60-73.7-98.3c-18-38.3-27.1-81.7-27.1-128.8
					c0-51,9.1-97.8,26.9-139.2c17.5-41.4,40.5-83.8,68.4-126l205.8-306.8h266.6l-205.6,286c0.8-0.1,1.6-0.2,2.4-0.4
					c11.5-1.6,22.4-2.5,32.3-2.5c37.5,0,73.9,7,108.2,20.9c35,13,65.7,32.5,91.2,58c25.9,24.3,47.1,54.6,62.6,89.7
					c15.5,34.3,23.4,73.2,23.4,115.6l0,0c0,48.7-9.1,93.2-27,132.3c-17.9,39.1-42.7,72.6-73.7,99.5c-30.9,26.8-67.6,47.5-109,61.3
					C1792,1983,1747.7,1990.3,1701.7,1990.3z M1673,1129l-199.5,297.5c-27.1,41.1-49.5,82.4-66.6,122.6
					c-16.8,38.8-25.2,82.9-25.2,131c0,44.1,8.4,84.4,25.1,119.9c16.7,35.6,39.7,66.3,68.5,91.3c28.8,25,62.7,44.3,100.8,57.2
					c39.1,13.8,81.3,20.8,125.8,20.8c43.6,0,85.5-7,124.5-20.7c39-13,73.2-32.2,102.1-57.3c28.7-25,51.8-56.1,68.4-92.4
					c16.7-36.3,25.1-77.9,25.1-123.6c0-39.4-7.3-75.4-21.6-107c-14.4-32.6-33.9-60.5-58-83.2c-23.5-23.5-51.8-41.5-84.2-53.5
					c-32-13-65.8-19.5-100.6-19.5c-8.9,0-18.8,0.8-29.3,2.3c-10.2,1.5-18.9,3.6-26,6.5l-28.9,11.6l20-33.4l194.2-270.1H1673z
					 M1701.7,1824.5c-43.2,0-78.1-14.3-103.7-42.5c-25.4-27.9-38.3-61.8-38.3-100.7c0-42.2,13.4-77,39.8-103.4
					c26.4-26.4,61.2-39.8,103.4-39.8c42.3,0,76.8,13.9,102.4,41.2c25.4,26.3,38.4,60.2,38.4,100.8c0,43-13.4,78.2-39.8,104.6
					C1778.4,1811,1744,1824.5,1701.7,1824.5z M1702.9,1559.1c-36.9,0-65.9,11-88.5,33.7c-22.6,22.6-33.6,51.6-33.6,88.5
					c0,33.9,10.7,62.3,32.8,86.5c21.8,24,50.7,35.7,88.2,35.7c36.9,0,65.4-11,87.2-33.5c22.8-22.8,33.8-52.1,33.8-89.9
					c0-35.4-10.7-63.6-32.6-86.3C1768.2,1570.4,1739.7,1559.1,1702.9,1559.1z"/>
			</g>
		</g>
		<g>
			<g>
				<path class="st17" d="M1228.1,2003.2l-181.3-332.9h-68.7v332.9h-199v-838.8h319.9c40.3,0,79.4,4.3,117.3,13
					c38.7,7.9,73.1,21.7,103.1,41.5c30.8,19.7,55.3,45.8,73.5,78.2c18.2,32.4,27.2,72.7,27.2,120.8c0,56.9-15.4,104.7-46.2,143.4
					c-30.8,38.7-73.5,66.3-128,82.9l219.2,359L1228.1,2003.2z M1219.8,1421.5c0-19.7-4.3-35.5-13-47.4c-7.9-12.6-18.6-22.1-32-28.4
					c-12.6-7.1-27.2-11.8-43.8-14.2c-15.8-2.4-31.2-3.6-46.2-3.6H976.9v195.5h96c16.6,0,33.6-1.2,50.9-3.6
					c17.4-3.2,33.2-8.3,47.4-15.4c14.2-7.1,25.7-17.4,34.4-30.8C1215,1460.2,1219.8,1442.8,1219.8,1421.5L1219.8,1421.5z"/>
				
					<linearGradient id="SVGID_00000160871957210200576390000001523761470303338668_" gradientUnits="userSpaceOnUse" x1="-368.3903" y1="119.1866" x2="70.8453" y2="119.1866" gradientTransform="matrix(2.8346 0 0 -2.8346 1830.7474 1921.6694)">
					<stop  offset="0" style="stop-color:#000000"/>
					<stop  offset="1" style="stop-color:#000000"/>
				</linearGradient>
				<path style="fill:url(#SVGID_00000160871957210200576390000001523761470303338668_);" d="M1483.7,2013.7l-261.9,0l-181.3-332.9
					h-52v332.9h-220v-859.8h330.4c40.9,0,81.1,4.5,119.6,13.3c39.6,8.1,75.5,22.5,106.5,42.9c32,20.5,57.9,48.1,76.8,81.8
					c19,33.8,28.6,76.2,28.6,126c0,59-16.3,109.5-48.5,149.9c-29.5,37.1-70,64.7-120.3,82.3L1483.7,2013.7z M1234.3,1992.7l212,0
					l-216.5-354.6l13-3.9c52.2-15.9,93.5-42.6,122.8-79.4c29.1-36.6,43.9-82.6,43.9-136.8c0-46.1-8.7-85.1-25.9-115.7
					c-17.2-30.7-40.8-55.8-70-74.5c-28.9-19-62.3-32.4-99.5-40c-37.2-8.5-75.9-12.8-115.2-12.8H789.5v817.8h178v-332.9h85.4
					L1234.3,1992.7z M1072.9,1533.9H966.4v-216.5h118.3c15.5,0,31.5,1.2,47.8,3.7c17.6,2.5,33.5,7.7,47.1,15.3
					c14.9,7.1,27,17.8,35.9,31.9c9.8,13.6,14.8,31.5,14.8,53.3c0,23.4-5.4,43-16.1,58.2c-9.4,14.6-22.4,26.2-38.2,34.1
					c-15,7.5-31.9,13-50.2,16.3C1107.5,1532.7,1089.8,1533.9,1072.9,1533.9z M987.4,1512.9h85.5c16,0,32.7-1.2,49.5-3.5
					c15.9-2.9,30.9-7.8,44.1-14.4c12.6-6.3,22.5-15.2,30.2-27.1c8.4-11.9,12.5-27.4,12.5-46.4c0-17.4-3.7-31.2-11-41.2l-0.4-0.6
					c-6.9-11-15.9-19-27.6-24.5l-0.7-0.3c-11.4-6.4-25-10.8-40.2-13c-15.3-2.3-30.3-3.4-44.7-3.4h-97.3V1512.9z"/>
			</g>
			<g>
				<path class="st17" d="M2096.5,1721.3c0,47.4-8.7,90-26.1,128s-41.1,69.9-71.1,96c-30,26.1-65.2,45.8-105.4,59.2
					c-40.3,14.2-82.9,21.3-128,21.3c-45.8,0-88.9-7.1-129.1-21.3c-39.5-13.4-74.2-33.2-104.3-59.2c-30-26.1-53.7-57.7-71.1-94.8
					c-17.4-37.1-26.1-78.6-26.1-124.4c0-49.8,8.7-94.8,26.1-135.1c17.4-41.1,39.9-82.5,67.5-124.4l202.6-302.1h240.5L1766,1451.1
					l-3.6,5.9c7.9-3.2,17.4-5.5,28.4-7.1c11.1-1.6,21.3-2.4,30.8-2.4c36.3,0,71.1,6.7,104.3,20.1c34,12.6,63.2,31.2,87.7,55.7
					c25.3,23.7,45.4,52.5,60.4,86.5C2089,1643.1,2096.5,1680.2,2096.5,1721.3L2096.5,1721.3z M1897.5,1726
					c0-37.9-11.8-69.1-35.5-93.6c-23.7-25.3-55.3-37.9-94.8-37.9c-39.5,0-71.5,12.2-96,36.7c-24.5,24.5-36.7,56.5-36.7,96
					c0,36.3,11.8,67.5,35.5,93.6c23.7,26.1,55.7,39.1,96,39.1c39.5,0,71.1-12.2,94.8-36.7C1885.2,1798.7,1897.5,1766.3,1897.5,1726
					L1897.5,1726z"/>
				
					<linearGradient id="SVGID_00000053506486377374001850000005721518016257730180_" gradientUnits="userSpaceOnUse" x1="-355.9066" y1="115.2135" x2="91.0019" y2="115.2135" gradientTransform="matrix(2.8346 0 0 -2.8346 1830.7474 1921.6694)">
					<stop  offset="0" style="stop-color:#000000"/>
					<stop  offset="1" style="stop-color:#000000"/>
				</linearGradient>
				<path style="fill:url(#SVGID_00000053506486377374001850000005721518016257730180_);" d="M1766,2036.2
					c-46.8,0-91.4-7.4-132.6-21.9c-40.5-13.8-76.7-34.4-107.6-61.2c-31-26.9-55.8-60-73.7-98.3c-18-38.3-27.1-81.7-27.1-128.8
					c0-51,9.1-97.8,26.9-139.2c17.5-41.4,40.5-83.8,68.4-126l205.8-306.8h266.6l-205.6,286c0.8-0.1,1.6-0.2,2.4-0.4
					c11.5-1.6,22.4-2.5,32.3-2.5c37.5,0,73.9,7,108.2,20.9c35,13,65.7,32.5,91.2,58c25.9,24.3,47.1,54.6,62.6,89.7
					c14.7,32.5,22.6,69.2,23.3,109.1l0.1,0l0,6.5c0,48.7-9.1,93.2-27,132.3c-17.9,39.1-42.7,72.6-73.7,99.5
					c-30.9,26.9-67.6,47.5-109,61.3C1856.2,2028.9,1812,2036.2,1766,2036.2z M1737.2,1174.9l-199.5,297.5
					c-27.1,41.1-49.5,82.3-66.6,122.6c-16.8,38.8-25.2,82.9-25.2,131c0,44,8.4,84.4,25.1,119.9c16.7,35.6,39.7,66.3,68.5,91.3
					c28.8,25,62.7,44.3,100.8,57.2c39.1,13.8,81.3,20.8,125.8,20.8c43.6,0,85.5-7,124.5-20.7c38.9-13,73.2-32.2,102.1-57.3
					c28.7-25,51.8-56,68.4-92.4c16.3-35.6,24.8-76.3,25.1-120.9v-2.7c0-39.4-7.3-75.4-21.6-107c-14.4-32.6-33.9-60.5-58-83.2
					c-23.5-23.5-51.8-41.5-84.2-53.5c-32-13-65.8-19.5-100.6-19.5c-8.9,0-18.8,0.8-29.3,2.3c-10.2,1.5-18.9,3.6-26,6.5l-28.9,11.6
					l20-33.4l194.2-270.1H1737.2z M1766,1870.4c-43.2,0-78.1-14.3-103.7-42.5c-25.4-27.9-38.3-61.8-38.3-100.7
					c0-42.2,13.4-77,39.8-103.4c26.4-26.4,61.2-39.8,103.4-39.8c42.3,0,76.8,13.9,102.4,41.2c25.4,26.3,38.4,60.2,38.4,100.8
					c0,43-13.4,78.2-39.8,104.6C1842.7,1856.9,1808.2,1870.4,1766,1870.4z M1767.2,1605c-36.9,0-65.9,11-88.5,33.6
					c-22.6,22.6-33.7,51.6-33.7,88.5c0,33.9,10.7,62.2,32.8,86.5c21.8,24,50.7,35.7,88.2,35.7c36.9,0,65.4-11,87.2-33.5
					c22.8-22.8,33.8-52.1,33.8-89.8c0-35.4-10.7-63.6-32.6-86.3C1832.5,1616.3,1804,1605,1767.2,1605z"/>
			</g>
		</g>
	</g>
</g>
</svg>
