<?xml version="1.0" encoding="UTF-8"?>
<svg width="180.16mm" height="208.03mm" version="1.1" viewBox="0 0 180.16 208.03" xmlns="http://www.w3.org/2000/svg" xmlns:cc="http://creativecommons.org/ns#" xmlns:dc="http://purl.org/dc/elements/1.1/" xmlns:osb="http://www.openswatchbook.org/uri/2009/osb" xmlns:rdf="http://www.w3.org/1999/02/22-rdf-syntax-ns#" xmlns:xlink="http://www.w3.org/1999/xlink">
 <defs>
  <linearGradient id="linearGradient852" osb:paint="solid">
   <stop offset="0"/>
  </linearGradient>
  <linearGradient id="linearGradient1450" x1="-137.36" x2="-41.716" y1="193.15" y2="193.15" gradientTransform="translate(175.74 -89.313)" gradientUnits="userSpaceOnUse" xlink:href="#linearGradient852"/>
  <linearGradient id="linearGradient1460" x1="-137.36" x2="-41.716" y1="193.15" y2="193.15" gradientTransform="translate(179.27 -86.77)" gradientUnits="userSpaceOnUse" xlink:href="#linearGradient852"/>
  <linearGradient id="linearGradient1470" x1="-137.36" x2="-41.716" y1="193.15" y2="193.15" gradientTransform="translate(182.8 -84.227)" gradientUnits="userSpaceOnUse" xlink:href="#linearGradient852"/>
  <linearGradient id="linearGradient1480" x1="-137.36" x2="-41.716" y1="193.15" y2="193.15" gradientTransform="translate(186.33 -81.683)" gradientUnits="userSpaceOnUse" xlink:href="#linearGradient852"/>
  <linearGradient id="linearGradient1490" x1="-137.36" x2="-41.716" y1="193.15" y2="193.15" gradientTransform="translate(189.87 -79.14)" gradientUnits="userSpaceOnUse" xlink:href="#linearGradient852"/>
  <linearGradient id="linearGradient1500" x1="-137.36" x2="-41.716" y1="193.15" y2="193.15" gradientTransform="translate(193.4 -76.597)" gradientUnits="userSpaceOnUse" xlink:href="#linearGradient852"/>
 </defs>
 <metadata>
  <rdf:RDF>
   <cc:Work rdf:about="">
    <dc:format>image/svg+xml</dc:format>
    <dc:type rdf:resource="http://purl.org/dc/dcmitype/StillImage"/>
    <dc:title/>
   </cc:Work>
  </rdf:RDF>
 </metadata>
 <g transform="translate(-2.9007 -5.596)">
  <path d="m92.982 210.17-87.081-50.277-2.7e-6 -100.55 87.081-50.277 87.081 50.277v100.55z" fill="#161616" stroke="#828282" stroke-width="6"/>
  <g stroke-width="1.5">
   <g fill="#f04242" stroke="url(#linearGradient1450)" style="font-variant-caps:normal;font-variant-east-asian:normal;font-variant-ligatures:normal;font-variant-numeric:normal;inline-size:131.188" aria-label="R6">
    <path d="m71.219 133-12.954-23.791h-4.9107v23.791h-14.224v-59.944h22.86q4.318 0 8.382 0.93133 4.1487 0.84667 7.366 2.9633 3.302 2.1167 5.2493 5.588t1.9473 8.636q0 6.096-3.302 10.245-3.302 4.1487-9.144 5.9267l15.663 25.654zm-0.59267-41.571q0-2.1167-0.93133-3.3867-0.84667-1.3547-2.286-2.032-1.3547-0.762-3.1327-1.016-1.6933-0.254-3.302-0.254h-7.7047v13.97h6.858q1.778 0 3.6407-0.254 1.8627-0.33867 3.3867-1.1007 1.524-0.762 2.4553-2.2013 1.016-1.4393 1.016-3.7253z" style="font-variant-caps:normal;font-variant-east-asian:normal;font-variant-ligatures:normal;font-variant-numeric:normal"/>
    <path d="m133.28 112.85q0 5.08-1.8627 9.144-1.8627 4.064-5.08 6.858-3.2173 2.794-7.5353 4.2333-4.318 1.524-9.144 1.524-4.9107 0-9.2287-1.524-4.2333-1.4393-7.4507-4.2333t-5.08-6.7733q-1.8627-3.9793-1.8627-8.89 0-5.334 1.8627-9.652 1.8627-4.4027 4.826-8.89l14.478-21.59h17.187l-14.732 20.489-0.254 0.42333q0.84666-0.33867 2.032-0.508 1.1853-0.16933 2.2013-0.16933 3.8947 0 7.4507 1.4393 3.6407 1.3547 6.2653 3.9793 2.7093 2.54 4.318 6.1807 1.6087 3.556 1.6087 7.9587zm-14.224 0.33867q0-4.064-2.54-6.6887-2.54-2.7093-6.7733-2.7093-4.2333 0-6.858 2.6247t-2.6247 6.858q0 3.8947 2.54 6.6887t6.858 2.794q4.2333 0 6.7733-2.6247 2.6247-2.6247 2.6247-6.9427z" style="font-variant-caps:normal;font-variant-east-asian:normal;font-variant-ligatures:normal;font-variant-numeric:normal"/>
   </g>
   <g fill="#f06e42" stroke="url(#linearGradient1460)" style="font-variant-caps:normal;font-variant-east-asian:normal;font-variant-ligatures:normal;font-variant-numeric:normal;inline-size:131.188" aria-label="R6">
    <path d="m74.748 135.54-12.954-23.791h-4.9107v23.791h-14.224v-59.944h22.86q4.318 0 8.382 0.93133 4.1487 0.84667 7.366 2.9633 3.302 2.1167 5.2493 5.588t1.9473 8.636q0 6.096-3.302 10.245-3.302 4.1487-9.144 5.9267l15.663 25.654zm-0.59267-41.571q0-2.1167-0.93133-3.3867-0.84667-1.3547-2.286-2.032-1.3547-0.762-3.1327-1.016-1.6933-0.254-3.302-0.254h-7.7047v13.97h6.858q1.778 0 3.6407-0.254 1.8627-0.33866 3.3867-1.1007 1.524-0.762 2.4553-2.2013 1.016-1.4393 1.016-3.7253z" style="font-variant-caps:normal;font-variant-east-asian:normal;font-variant-ligatures:normal;font-variant-numeric:normal"/>
    <path d="m136.81 115.39q0 5.08-1.8627 9.144-1.8627 4.064-5.08 6.858-3.2173 2.794-7.5353 4.2333-4.318 1.524-9.144 1.524-4.9107 0-9.2287-1.524-4.2333-1.4393-7.4507-4.2333-3.2173-2.794-5.08-6.7733-1.8627-3.9793-1.8627-8.89 0-5.334 1.8627-9.652 1.8627-4.4027 4.826-8.89l14.478-21.59h17.187l-14.732 20.489-0.254 0.42333q0.84667-0.33867 2.032-0.508 1.1853-0.16933 2.2013-0.16933 3.8947 0 7.4507 1.4393 3.6407 1.3547 6.2653 3.9793 2.7093 2.54 4.318 6.1807 1.6087 3.556 1.6087 7.9587zm-14.224 0.33867q0-4.064-2.54-6.6887-2.54-2.7093-6.7733-2.7093-4.2333 0-6.858 2.6247-2.6247 2.6247-2.6247 6.858 0 3.8947 2.54 6.6887t6.858 2.794q4.2333 0 6.7733-2.6247 2.6247-2.6247 2.6247-6.9427z" style="font-variant-caps:normal;font-variant-east-asian:normal;font-variant-ligatures:normal;font-variant-numeric:normal"/>
   </g>
   <g fill="#f09942" stroke="url(#linearGradient1470)" style="font-variant-caps:normal;font-variant-east-asian:normal;font-variant-ligatures:normal;font-variant-numeric:normal;inline-size:131.188" aria-label="R6">
    <path d="m78.279 138.09-12.954-23.791h-4.9107v23.791h-14.224v-59.944h22.86q4.318 0 8.382 0.93133 4.1487 0.84667 7.366 2.9633 3.302 2.1167 5.2493 5.588t1.9473 8.636q0 6.096-3.302 10.245-3.302 4.1487-9.144 5.9267l15.663 25.654zm-0.59267-41.571q0-2.1167-0.93133-3.3867-0.84667-1.3547-2.286-2.032-1.3547-0.762-3.1327-1.016-1.6933-0.254-3.302-0.254h-7.7047v13.97h6.858q1.778 0 3.6407-0.254 1.8627-0.33866 3.3867-1.1007 1.524-0.762 2.4553-2.2013 1.016-1.4393 1.016-3.7253z" style="font-variant-caps:normal;font-variant-east-asian:normal;font-variant-ligatures:normal;font-variant-numeric:normal"/>
    <path d="m140.34 117.94q0 5.08-1.8627 9.144-1.8627 4.064-5.08 6.858-3.2173 2.794-7.5353 4.2333-4.318 1.524-9.144 1.524-4.9107 0-9.2287-1.524-4.2333-1.4393-7.4507-4.2333-3.2173-2.794-5.08-6.7733-1.8627-3.9793-1.8627-8.89 0-5.334 1.8627-9.652 1.8627-4.4027 4.826-8.89l14.478-21.59h17.187l-14.732 20.489-0.254 0.42333q0.84667-0.33867 2.032-0.508 1.1853-0.16933 2.2013-0.16933 3.8947 0 7.4507 1.4393 3.6407 1.3547 6.2653 3.9793 2.7093 2.54 4.318 6.1807 1.6087 3.556 1.6087 7.9587zm-14.224 0.33867q0-4.064-2.54-6.6887-2.54-2.7093-6.7733-2.7093-4.2333 0-6.858 2.6247-2.6247 2.6247-2.6247 6.858 0 3.8947 2.54 6.6887t6.858 2.794q4.2333 0 6.7733-2.6247 2.6247-2.6247 2.6247-6.9427z" style="font-variant-caps:normal;font-variant-east-asian:normal;font-variant-ligatures:normal;font-variant-numeric:normal"/>
   </g>
   <g fill="#f0c542" stroke="url(#linearGradient1480)" style="font-variant-caps:normal;font-variant-east-asian:normal;font-variant-ligatures:normal;font-variant-numeric:normal;inline-size:131.188" aria-label="R6">
    <path d="m81.808 140.63-12.954-23.791h-4.9107v23.791h-14.224v-59.944h22.86q4.318 0 8.382 0.93133 4.1487 0.84667 7.366 2.9633 3.302 2.1167 5.2493 5.588 1.9473 3.4713 1.9473 8.636 0 6.096-3.302 10.245-3.302 4.1487-9.144 5.9267l15.663 25.654zm-0.59267-41.571q0-2.1167-0.93133-3.3867-0.84667-1.3547-2.286-2.032-1.3547-0.762-3.1327-1.016-1.6933-0.254-3.302-0.254h-7.7047v13.97h6.858q1.778 0 3.6407-0.254 1.8627-0.33866 3.3867-1.1007 1.524-0.762 2.4553-2.2013 1.016-1.4393 1.016-3.7253z" style="font-variant-caps:normal;font-variant-east-asian:normal;font-variant-ligatures:normal;font-variant-numeric:normal"/>
    <path d="m143.87 120.48q0 5.08-1.8627 9.144-1.8627 4.064-5.08 6.858-3.2173 2.794-7.5353 4.2333-4.318 1.524-9.144 1.524-4.9107 0-9.2287-1.524-4.2333-1.4393-7.4507-4.2333-3.2173-2.794-5.08-6.7733-1.8627-3.9793-1.8627-8.89 0-5.334 1.8627-9.652 1.8627-4.4027 4.826-8.89l14.478-21.59h17.187l-14.732 20.489-0.254 0.42334q0.84667-0.33867 2.032-0.508 1.1853-0.16934 2.2013-0.16934 3.8947 0 7.4507 1.4393 3.6407 1.3547 6.2653 3.9793 2.7093 2.54 4.318 6.1807 1.6087 3.556 1.6087 7.9587zm-14.224 0.33867q0-4.064-2.54-6.6887-2.54-2.7093-6.7733-2.7093-4.2333 0-6.858 2.6247-2.6247 2.6247-2.6247 6.858 0 3.8947 2.54 6.6887 2.54 2.794 6.858 2.794 4.2333 0 6.7733-2.6247 2.6247-2.6247 2.6247-6.9427z" style="font-variant-caps:normal;font-variant-east-asian:normal;font-variant-ligatures:normal;font-variant-numeric:normal"/>
   </g>
   <g fill="#f0f042" stroke="url(#linearGradient1490)" style="font-variant-caps:normal;font-variant-east-asian:normal;font-variant-ligatures:normal;font-variant-numeric:normal;inline-size:131.188" aria-label="R6">
    <path d="m85.34 143.17-12.954-23.791h-4.9107v23.791h-14.224v-59.944h22.86q4.318 0 8.382 0.93133 4.1487 0.84667 7.366 2.9633 3.302 2.1167 5.2493 5.588 1.9473 3.4713 1.9473 8.636 0 6.096-3.302 10.245-3.302 4.1487-9.144 5.9267l15.663 25.654zm-0.59267-41.571q0-2.1167-0.93133-3.3867-0.84667-1.3547-2.286-2.032-1.3547-0.762-3.1327-1.016-1.6933-0.254-3.302-0.254h-7.7047v13.97h6.858q1.778 0 3.6407-0.254 1.8627-0.33867 3.3867-1.1007 1.524-0.762 2.4553-2.2013 1.016-1.4393 1.016-3.7253z" style="font-variant-caps:normal;font-variant-east-asian:normal;font-variant-ligatures:normal;font-variant-numeric:normal"/>
    <path d="m147.4 123.02q0 5.08-1.8627 9.144t-5.08 6.858q-3.2173 2.794-7.5353 4.2333-4.318 1.524-9.144 1.524-4.9107 0-9.2287-1.524-4.2333-1.4393-7.4507-4.2333-3.2173-2.794-5.08-6.7733-1.8627-3.9793-1.8627-8.89 0-5.334 1.8627-9.652 1.8627-4.4027 4.826-8.89l14.478-21.59h17.187l-14.732 20.489-0.254 0.42333q0.84667-0.33866 2.032-0.508 1.1853-0.16933 2.2013-0.16933 3.8947 0 7.4507 1.4393 3.6407 1.3547 6.2653 3.9793 2.7093 2.54 4.318 6.1807 1.6087 3.556 1.6087 7.9587zm-14.224 0.33866q0-4.064-2.54-6.6887-2.54-2.7093-6.7733-2.7093-4.2333 0-6.858 2.6247-2.6247 2.6247-2.6247 6.858 0 3.8947 2.54 6.6887t6.858 2.794q4.2333 0 6.7733-2.6247 2.6247-2.6247 2.6247-6.9427z" style="font-variant-caps:normal;font-variant-east-asian:normal;font-variant-ligatures:normal;font-variant-numeric:normal"/>
   </g>
   <g fill="#ededed" stroke="url(#linearGradient1500)" style="font-variant-caps:normal;font-variant-east-asian:normal;font-variant-ligatures:normal;font-variant-numeric:normal;inline-size:131.188" aria-label="R6">
    <path d="m88.869 145.72-12.954-23.791h-4.9107v23.791h-14.224v-59.944h22.86q4.318 0 8.382 0.93133 4.1487 0.84667 7.366 2.9633 3.302 2.1167 5.2493 5.588 1.9473 3.4713 1.9473 8.636 0 6.096-3.302 10.245-3.302 4.1487-9.144 5.9267l15.663 25.654zm-0.59267-41.571q0-2.1167-0.93133-3.3867-0.84667-1.3547-2.286-2.032-1.3547-0.762-3.1327-1.016-1.6933-0.254-3.302-0.254h-7.7047v13.97h6.858q1.778 0 3.6407-0.254 1.8627-0.33867 3.3867-1.1007t2.4553-2.2013q1.016-1.4393 1.016-3.7253z" style="font-variant-caps:normal;font-variant-east-asian:normal;font-variant-ligatures:normal;font-variant-numeric:normal"/>
    <path d="m150.93 125.57q0 5.08-1.8627 9.144t-5.08 6.858q-3.2173 2.794-7.5353 4.2333-4.318 1.524-9.144 1.524-4.9107 0-9.2287-1.524-4.2333-1.4393-7.4507-4.2333-3.2173-2.794-5.08-6.7733-1.8627-3.9793-1.8627-8.89 0-5.334 1.8627-9.652 1.8627-4.4027 4.826-8.89l14.478-21.59h17.187l-14.732 20.489-0.254 0.42333q0.84666-0.33867 2.032-0.508 1.1853-0.16933 2.2013-0.16933 3.8947 0 7.4507 1.4393 3.6407 1.3547 6.2653 3.9793 2.7093 2.54 4.318 6.1807 1.6087 3.556 1.6087 7.9587zm-14.224 0.33866q0-4.064-2.54-6.6887-2.54-2.7093-6.7733-2.7093-4.2333 0-6.858 2.6247-2.6247 2.6247-2.6247 6.858 0 3.8947 2.54 6.6887t6.858 2.794q4.2333 0 6.7733-2.6247 2.6247-2.6247 2.6247-6.9427z" style="font-variant-caps:normal;font-variant-east-asian:normal;font-variant-ligatures:normal;font-variant-numeric:normal"/>
   </g>
  </g>
 </g>
</svg>
