<svg id="Layer_4" data-name="Layer 4" xmlns="http://www.w3.org/2000/svg" xmlns:xlink="http://www.w3.org/1999/xlink" viewBox="0 0 6736.13 6634.21"><defs><style>.cls-1,.cls-10,.cls-11,.cls-12,.cls-4{fill:none;}.cls-2{clip-path:url(#clip-path);}.cls-3{fill:#2d2d2d;stroke:#000;}.cls-10,.cls-11,.cls-12,.cls-3,.cls-4{stroke-miterlimit:10;}.cls-4{stroke:#2171b5;}.cls-10,.cls-11,.cls-12,.cls-4{stroke-width:61px;}.cls-5{fill:#2171b5;}.cls-6{fill:#d9d9d9;}.cls-7{fill:#969696;}.cls-8{fill:#fcbf49;}.cls-9{fill:#a3c586;}.cls-10{stroke:#969696;}.cls-11{stroke:#d9d9d9;}.cls-12{stroke:#fcbf49;}</style><clipPath id="clip-path" transform="translate(593.39 218.43)"><polygon class="cls-1" points="5394.1 4671.42 5394.1 1557.14 2697.05 0 0 1557.14 0 4671.42 2697.05 6228.56 5394.1 4671.42"/></clipPath></defs><g class="cls-2"><rect class="cls-3" x="0.5" y="0.5" width="6735.13" height="6633.21"/><path class="cls-4" d="M2407.12,2167.08c-582-43-1086.74,26.58-1165.36,206-80.51,183.67,271.61,514.78,934.33,789.37" transform="translate(593.39 218.43)"/><polygon class="cls-5" points="2661.62 3520.46 2998.3 3468.77 2785.24 3203.01 2661.62 3520.46"/><path class="cls-6" d="M2913.15,4023.56l-210.29,263.26-209.22-264.11,1.14-557.34L2704,3741.47l210.31-275.25Z" transform="translate(593.39 218.43)"/><path class="cls-7" d="M2914.87,3342.22l-210.29,263.26-209.22-264.12L2496.5,2784l209.19,276.1L2916,2784.87Z" transform="translate(593.39 218.43)"/><path class="cls-5" d="M2914.93,2660.87l-210.29,263.26L2495.43,2660l1.13-557.34,209.19,276.1q105.16-137.61,210.32-275.24Z" transform="translate(593.39 218.43)"/><path class="cls-8" d="M2912.11,4704.91l-210.29,263.26L2492.6,4704.06l1.14-557.35,209.19,276.11,210.31-275.25Z" transform="translate(593.39 218.43)"/><path class="cls-9" d="M2910.69,5386.26,2700.4,5649.52,2491.19,5385.4l1.13-557.34,209.2,276.1,210.31-275.24Z" transform="translate(593.39 218.43)"/><path class="cls-10" d="M2405.73,2852.08c-531.52-42.94-992.48,26.77-1064.31,206.15-72.88,182,242,508.6,836.35,781.55" transform="translate(593.39 218.43)"/><polygon class="cls-7" points="2658.68 4194.07 2996.91 4153.77 2792.93 3880.97 2658.68 4194.07"/><path class="cls-11" d="M2404.36,3520.76c-440.77-42.75-823.07,27.11-882.71,206.52-59.23,178.21,189.78,494.95,662.77,764.11" transform="translate(593.39 218.43)"/><polygon class="cls-6" points="2655.19 4835.99 2995.55 4822.45 2813.69 4534.44 2655.19 4835.99"/><path class="cls-12" d="M2403,4189.48c-345-42.55-644.27,27.48-691,206.92-45,172.87,136.81,475.92,485.49,739.4" transform="translate(593.39 218.43)"/><polygon class="cls-8" points="2654.59 5464.71 2994.19 5491.17 2847.35 5183.82 2654.59 5464.71"/><path class="cls-4" d="M3004.87,2167.08c582-43,1086.74,26.58,1165.36,206,80.51,183.67-271.61,514.78-934.33,789.37" transform="translate(593.39 218.43)"/><polygon class="cls-5" points="3813.53 3203.01 3600.46 3468.77 3937.15 3520.46 3813.53 3203.01"/><path class="cls-10" d="M2997.64,2852.08c531.52-42.94,992.48,26.77,1064.32,206.15,72.87,182-242,508.6-836.36,781.55" transform="translate(593.39 218.43)"/><polygon class="cls-7" points="3797.22 3880.97 3593.24 4153.77 3931.47 4194.07 3797.22 3880.97"/><path class="cls-11" d="M3004.87,3520.76c440.77-42.75,823.08,27.11,882.71,206.52,59.24,178.21-189.77,494.95-662.77,764.11" transform="translate(593.39 218.43)"/><polygon class="cls-6" points="3782.33 4534.44 3600.46 4822.45 3940.82 4835.99 3782.33 4534.44"/><path class="cls-12" d="M2997.64,4189.48c345-42.55,644.27,27.48,691,206.92,45,172.87-136.82,475.92-485.49,739.4" transform="translate(593.39 218.43)"/><polygon class="cls-8" points="3740.08 5183.82 3593.24 5491.17 3932.84 5464.71 3740.08 5183.82"/><path class="cls-7" d="M2696.49,6245.12-15.46,4679.38V1547.89l2712-1565.74L5408.43,1547.89V4679.38l-45.75,26.41ZM167.54,4573.73l2529,1460.08L5225.43,4573.73V1653.55L2696.49,193.46,167.54,1653.55Z" transform="translate(593.39 218.43)"/><path class="cls-6" d="M1147.77,1626.67v116.59h84.93q24.46,0,34.72,9t10.26,29.87q0,21.24-10.26,30.59t-34.72,9.35H1031.53q-24.82,0-35.26-9.35t-10.44-30.59q0-20.87,10.31-29.87t35.62-9h27.48V1568.37h-15.56q-24.63,0-34.94-9.18t-10.32-30.4q0-21.24,9.9-30.23t35.09-9h76.65q9.72,0,15.11,4.14a13.52,13.52,0,0,1,5.4,11.33v53.26q39.23-42.11,73.23-60.09a154.21,154.21,0,0,1,73.23-18q35.64,0,56.5,16t20.88,43q0,20.88-14.4,34.37t-37,13.51q-16.2,0-38.33-11.87t-30.77-11.88q-17.26,0-40.66,15.48T1147.77,1626.67Z" transform="translate(593.39 218.43)"/><path class="cls-6" d="M1508.35,1677.05q9.36,39.95,36.17,59.74t71.43,19.79q44.63,0,88.17-21.77t52.54-21.77a27.34,27.34,0,0,1,21.77,9.89q8.44,9.9,8.46,25.37,0,33.83-50,58.3t-123.79,24.47q-87.09,0-141.6-48.94t-54.52-126q0-76.65,54.52-125.6t141.6-48.94q77.73,0,128.83,45.89T1793,1640q0,21.24-10.25,29.15t-42.29,7.92Zm194-56.14q-6.12-33.47-31.49-51.82t-66-18.35q-39.22,0-63.15,17.45t-33.29,52.72Z" transform="translate(593.39 218.43)"/><path class="cls-6" d="M2195.33,1743.26h5.76q19.42,0,29.69,10.26t10.25,29.33q0,20.88-10.61,30.05t-35.09,9.17H2161.5q-18,0-26.81-6.83t-14.57-24.83a247.75,247.75,0,0,1-63.34,30.22,226,226,0,0,1-67.65,10.44q-57.95,0-91.05-28.79t-33.1-78.81q0-54,42.82-83.85t120.2-29.87q17.28,0,36.71,1.8t43.54,5.76v-6.84q0-32.38-15.65-49.3t-46.24-16.91q-23.76,0-60.64,17.63t-54.16,17.64q-16.92,0-27.35-9.9t-10.44-26.09q0-29.14,42.65-46.24t116-17.1q76.65,0,109.76,29.51t33.11,100Zm-87.09-69.45q-18-4-33.1-5.94a217.79,217.79,0,0,0-28.07-2q-39.6,0-62.08,13.32t-22.49,36.7q0,20.88,14.39,31.85t41.39,11a149.42,149.42,0,0,0,46.78-7.2,161,161,0,0,0,43.18-22.31Z" transform="translate(593.39 218.43)"/><path class="cls-6" d="M2597.66,1509q4.32-14,13.49-21t23.57-7q19.44,0,27.71,11.7t8.28,40.48v59q0,22-9,32.39T2634,1634.94q-13.32,0-22.31-6.11t-19.07-23.39q-14.4-24.48-37.79-36.17t-57.22-11.7q-42.09,0-68.91,27.53t-26.81,70.36q0,45,27.71,72.33t74.49,27.35q42.47,0,84.39-23.57t51.28-23.57a28,28,0,0,1,22.13,10.25q8.82,10.26,8.82,25.73,0,33.84-51.28,60.46t-121.82,26.63q-87.09,0-141.6-48.94t-54.52-126q0-75.21,54-125.24t136-50a213.88,213.88,0,0,1,54,6.84A223.45,223.45,0,0,1,2597.66,1509Z" transform="translate(593.39 218.43)"/><path class="cls-6" d="M2908.22,1509.71H3018q24.83,0,35.26,9t10.44,29.87q0,21.24-10.62,30.59t-35.08,9.35H2908.22v92.13q0,38.86,11.87,53.26t41.75,14.39q28.07,0,66.21-16.19t51.1-16.2q14.76,0,25.37,11.7t10.62,28.25q0,27.72-50.2,50.56T2951,1829.27q-37.07,0-65.13-10.08t-44.27-28.78q-11.86-14.4-16.91-34.55t-5-67.3v-100h-33.83q-24.46,0-34.72-9.35t-10.26-30.59q0-21.24,10.08-30t34.9-8.82h33.83v-84.3q0-24.82,10.26-34.9t34-10.08q23.75,0,34,10.08t10.26,34.9Z" transform="translate(593.39 218.43)"/><path class="cls-6" d="M3419.58,1743.26H3497q24.84,0,34.91,9t10.08,29.87q0,21.24-10.26,30.59t-34.73,9.35H3253q-24.12,0-34.37-9.35t-10.26-30.59q0-21.23,9.9-30.05t34.73-8.82h77.37V1430.9h-39.59q-24.48,0-35.08-9.53T3245.05,1391q0-21.24,10.44-30.59t35.26-9.36h107.6q10.08,0,15.66,4.14a13.37,13.37,0,0,1,5.57,11.34Z" transform="translate(593.39 218.43)"/><path class="cls-6" d="M3817.59,1481.64q87.45,0,141.79,48.94t54.34,125.6q0,77-54.34,126t-141.79,48.94q-87.09,0-141.42-48.94t-54.34-126q0-76.65,54.52-125.6T3817.59,1481.64Zm0,75.93q-42.11,0-69.27,27.53t-27.17,70.36q0,43.18,27.17,71.43t69.27,28.25q42.1,0,69.46-28.25t27.35-71.43q0-42.82-27.17-70.36t-69.64-27.53Z" transform="translate(593.39 218.43)"/><path class="cls-6" d="M4333.64,1523v-18.72q0-7.18,5.21-11t15.66-3.78h58.66q24.83,0,34.9,9.18t10.08,30q0,19.42-9.9,29.5t-29,10.08h-6.11v248q0,78.81-42.83,114.43t-137.47,35.63q-58.65,0-86.18-11.52t-27.53-36.34q0-17.28,11.15-28.07t29.51-10.8q4.68,0,31,3.24a398.59,398.59,0,0,0,48.58,3.24q51.47,0,71.07-19.43t19.62-69.82v-16.19a220.65,220.65,0,0,1-50.56,21.77,191.58,191.58,0,0,1-52,7q-72.34,0-118.22-45.16t-45.88-116.06q0-73,48-120.19t122.89-47.15q32.4,0,56.86,10.26A110.43,110.43,0,0,1,4333.64,1523Zm-89.25,33.82q-35.28,0-58.48,25.55t-23.21,65.14q0,38.87,23.21,64.24t58.48,25.37q35.63,0,58.84-25.37t23.21-64.24q0-39.59-23.21-65.14t-58.84-25.52Z" transform="translate(593.39 218.43)"/></g></svg>
