<?xml version="1.0" encoding="utf-8"?>
<!-- Generator: Adobe Illustrator 26.5.0, SVG Export Plug-In . SVG Version: 6.00 Build 0)  -->
<svg version="1.1" id="Layer_4" xmlns="http://www.w3.org/2000/svg" xmlns:xlink="http://www.w3.org/1999/xlink" x="0px" y="0px"
	 viewBox="0 0 2521 2911" style="enable-background:new 0 0 2521 2911;" xml:space="preserve">
<style type="text/css">
	.st0{clip-path:url(#SVGID_00000183239437884822067000000009926301801539572616_);fill:#2D2D2D;}
	.st1{clip-path:url(#SVGID_00000183239437884822067000000009926301801539572616_);}
	.st2{fill:#2171B5;}
	.st3{clip-path:url(#SVGID_00000183239437884822067000000009926301801539572616_);fill:#D9D9D9;}
	.st4{clip-path:url(#SVGID_00000183239437884822067000000009926301801539572616_);fill:#969696;}
	.st5{clip-path:url(#SVGID_00000183239437884822067000000009926301801539572616_);fill:#2171B5;}
	.st6{clip-path:url(#SVGID_00000183239437884822067000000009926301801539572616_);fill:#FCBF49;}
	.st7{clip-path:url(#SVGID_00000183239437884822067000000009926301801539572616_);fill:#A3C586;}
	.st8{fill:#969696;}
	.st9{fill:#D9D9D9;}
	.st10{fill:#FCBF49;}
</style>
<g>
	<defs>
		<polygon id="SVGID_1_" points="2521,2183.2 2521,727.8 1260.5,0 0,727.8 0,2183.2 1260.5,2911 		"/>
	</defs>
	<clipPath id="SVGID_00000034812600900092060990000017873356024389267077_">
		<use xlink:href="#SVGID_1_"  style="overflow:visible;"/>
	</clipPath>
	
		<rect x="-277.1" y="-101.9" style="clip-path:url(#SVGID_00000034812600900092060990000017873356024389267077_);fill:#2D2D2D;" width="3147.7" height="3100.1"/>
	<g style="clip-path:url(#SVGID_00000034812600900092060990000017873356024389267077_);">
		<path class="st2" d="M1011.6,1491.2c-117.6-48.7-220.9-104.2-298.7-160.4c-74.9-54.1-124.5-107.5-143.3-154.4
			c-10.9-27-11.6-51.6-2.2-73.1c10.4-23.7,33.7-44,69.4-60.5c32.1-14.8,74.3-26.6,125.4-35c49.1-8.1,105.6-13,167.8-14.6
			c61.8-1.6,127.8,0.2,196.1,5.3l-2.1,28.4c-67.4-5-132.4-6.7-193.3-5.2c-60.9,1.5-116.1,6.3-163.9,14.2c-48.6,8-88.3,19-118.1,32.8
			c-29.2,13.4-47.8,28.9-55.3,46c-6.2,14.2-5.3,31.3,2.6,51c8.2,20.3,23.4,42.5,45.4,66.2c22.9,24.6,52.5,50.1,88.1,75.8
			c76,54.9,177.3,109.2,292.9,157.1L1011.6,1491.2z"/>
	</g>
	<g style="clip-path:url(#SVGID_00000034812600900092060990000017873356024389267077_);">
		<polygon class="st2" points="966.6,1543.2 1124,1519.1 1024.4,1394.9 		"/>
	</g>
	<path style="clip-path:url(#SVGID_00000034812600900092060990000017873356024389267077_);fill:#D9D9D9;" d="M1361.5,1880.5
		l-98.3,123l-97.8-123.4l0.5-260.5l97.8,129L1362,1620L1361.5,1880.5z"/>
	<path style="clip-path:url(#SVGID_00000034812600900092060990000017873356024389267077_);fill:#969696;" d="M1362.3,1562l-98.3,123
		l-97.8-123.4l0.5-260.5l97.8,129l98.3-128.6L1362.3,1562z"/>
	<path style="clip-path:url(#SVGID_00000034812600900092060990000017873356024389267077_);fill:#2171B5;" d="M1362.3,1243.6
		l-98.3,123l-97.8-123.4l0.5-260.5l97.8,129c32.8-42.9,65.5-85.8,98.3-128.6L1362.3,1243.6z"/>
	<path style="clip-path:url(#SVGID_00000034812600900092060990000017873356024389267077_);fill:#FCBF49;" d="M1361,2198.9l-98.3,123
		l-97.8-123.4l0.5-260.5l97.8,129l98.3-128.6L1361,2198.9z"/>
	<path style="clip-path:url(#SVGID_00000034812600900092060990000017873356024389267077_);fill:#A3C586;" d="M1360.3,2517.3
		l-98.3,123l-97.8-123.4l0.5-260.5l97.8,129l98.3-128.6L1360.3,2517.3z"/>
	<g style="clip-path:url(#SVGID_00000034812600900092060990000017873356024389267077_);">
		<path class="st8" d="M1011.9,1807.5c-68-31.2-130.2-64.8-184.8-99.9c-52.2-33.5-96.4-67.6-131.5-101.4
			c-34.8-33.5-59.6-65.7-73.9-95.9c-15.3-32.4-18-61.5-8-86.4c9.5-23.7,30.9-44.1,63.8-60.7c29.5-14.9,68.2-26.7,115.1-35.2
			c45-8.1,96.6-13.1,153.6-14.6c56.5-1.6,116.9,0.2,179.3,5.2l-2.3,28.4c-61.4-5-120.7-6.7-176.3-5.2
			c-55.5,1.5-105.8,6.3-149.3,14.2c-87.6,15.8-143.5,43.7-157.4,78.4c-14.5,36.1,12.9,91.2,75.2,151.1
			c33.8,32.5,76.5,65.5,127.1,97.9c53.5,34.3,114.5,67.3,181.3,98L1011.9,1807.5z"/>
	</g>
	<g style="clip-path:url(#SVGID_00000034812600900092060990000017873356024389267077_);">
		<polygon class="st8" points="965.2,1858.1 1123.3,1839.2 1028,1711.7 		"/>
	</g>
	<g style="clip-path:url(#SVGID_00000034812600900092060990000017873356024389267077_);">
		<path class="st9" d="M1013.9,2111.5c-54.3-30.9-103.9-64-147.3-98.4c-41.6-32.9-76.8-66.3-104.7-99.3
			c-27.6-32.7-47.3-64.2-58.4-93.5c-11.8-31.1-13.8-58.9-5.8-82.8c7.9-23.7,25.8-44.2,53.4-60.9c24.8-15.1,57.3-27.1,96.6-35.7
			c37.5-8.2,80.7-13.2,128.2-14.8c47.1-1.6,97.3,0.2,149.3,5.2l-2.8,28.4c-101.5-9.8-196.9-6.6-268.7,9.1
			c-36.2,7.9-65.8,18.7-87.9,32.2c-21.6,13.2-35.5,28.5-41.1,45.6c-5.8,17.5-4,38.9,5.4,63.7c10,26.3,28,55,53.5,85.2
			c26.6,31.6,60.5,63.6,100.6,95.4c42.3,33.5,90.7,65.7,143.8,95.9L1013.9,2111.5z"/>
	</g>
	<g style="clip-path:url(#SVGID_00000034812600900092060990000017873356024389267077_);">
		<polygon class="st9" points="963.6,2158.1 1122.7,2151.7 1037.7,2017.1 		"/>
	</g>
	<g style="clip-path:url(#SVGID_00000034812600900092060990000017873356024389267077_);">
		<path class="st10" d="M1018.4,2411.7c-40.2-30.4-76.9-62.7-108.9-96.1c-30.7-32-56.6-64.4-77-96.3c-20.2-31.6-34.5-61.8-42.5-89.9
			c-8.4-29.4-9.6-55.7-3.7-78.3c11.8-45.2,53-78.9,119.2-97.4c29.8-8.3,63.9-13.4,101.6-15c37.2-1.6,76.8,0.1,117.8,5.2l-3.5,28.3
			c-78.7-9.7-152.6-6.5-208.2,9c-70.6,19.7-92.9,52.8-99.2,77.1c-4.6,17.6-3.4,38.8,3.6,63.3c7.2,25.4,20.4,53.1,39.1,82.4
			c19.4,30.3,44.2,61.2,73.6,91.9c30.9,32.3,66.4,63.6,105.5,93.1L1018.4,2411.7z"/>
	</g>
	<polygon style="clip-path:url(#SVGID_00000034812600900092060990000017873356024389267077_);fill:#FCBF49;" points="963.3,2451.9 
		1122,2464.3 1053.4,2320.6 	"/>
	<g style="clip-path:url(#SVGID_00000034812600900092060990000017873356024389267077_);">
		<path class="st2" d="M1517.8,1491.2l-10.9-26.3c115.6-47.9,216.9-102.2,292.9-157.1c35.6-25.7,65.3-51.2,88.1-75.8
			c22-23.6,37.3-45.9,45.4-66.2c7.9-19.7,8.8-36.8,2.6-51c-7.5-17.1-26.1-32.6-55.3-46c-29.8-13.7-69.5-24.7-118.1-32.8
			c-47.8-7.9-102.9-12.7-163.9-14.2c-60.9-1.5-125.9,0.2-193.3,5.2l-2.1-28.4c68.3-5,134.3-6.8,196.1-5.3
			c62.3,1.6,118.7,6.5,167.8,14.6c51.1,8.4,93.3,20.2,125.4,35c35.7,16.4,59.1,36.8,69.4,60.5c9.4,21.4,8.6,46-2.2,73.1
			c-18.9,46.9-68.4,100.3-143.3,154.4C1738.7,1387,1635.4,1442.4,1517.8,1491.2z"/>
	</g>
	<polygon style="clip-path:url(#SVGID_00000034812600900092060990000017873356024389267077_);fill:#2171B5;" points="1505,1394.9 
		1405.4,1519.1 1562.7,1543.2 	"/>
	<g style="clip-path:url(#SVGID_00000034812600900092060990000017873356024389267077_);">
		<path class="st8" d="M1513.5,1807.5l-11.9-25.9c66.8-30.7,127.8-63.6,181.3-98c50.6-32.5,93.4-65.4,127.1-97.9
			c62.2-59.9,89.6-115,75.2-151.1c-13.9-34.7-69.8-62.6-157.5-78.4c-43.5-7.9-93.8-12.6-149.3-14.2c-55.5-1.5-114.8,0.2-176.3,5.2
			l-2.3-28.4c62.5-5,122.8-6.8,179.3-5.2c57,1.6,108.7,6.5,153.6,14.6c46.9,8.5,85.6,20.3,115.1,35.2c32.8,16.6,54.3,37,63.8,60.7
			c10,25,7.3,54-8,86.4c-14.2,30.1-39.1,62.4-73.9,95.9c-35.1,33.8-79.4,67.9-131.5,101.4
			C1643.7,1742.7,1581.5,1776.3,1513.5,1807.5z"/>
	</g>
	<polygon style="clip-path:url(#SVGID_00000034812600900092060990000017873356024389267077_);fill:#969696;" points="1497.3,1711.7 
		1402,1839.2 1560.1,1858.1 	"/>
	<g style="clip-path:url(#SVGID_00000034812600900092060990000017873356024389267077_);">
		<path class="st9" d="M1514.2,2111.5l-14.1-24.8c53.1-30.2,101.4-62.5,143.8-95.9c40.1-31.7,73.9-63.8,100.6-95.4
			c25.5-30.3,43.5-58.9,53.5-85.2c9.4-24.8,11.2-46.2,5.4-63.7c-5.7-17.1-19.5-32.4-41.1-45.6c-22.1-13.4-51.6-24.3-87.9-32.2
			c-71.8-15.7-167.2-18.9-268.7-9.1l-2.8-28.4c52-5,102.2-6.8,149.3-5.2c47.5,1.6,90.6,6.6,128.2,14.8c39.3,8.6,71.8,20.6,96.6,35.7
			c27.5,16.8,45.5,37.3,53.4,60.9c7.9,23.9,6,51.7-5.8,82.8c-11.1,29.3-30.8,60.8-58.4,93.5c-27.9,33-63.1,66.4-104.7,99.3
			C1618.1,2047.5,1568.5,2080.6,1514.2,2111.5z"/>
	</g>
	<polygon style="clip-path:url(#SVGID_00000034812600900092060990000017873356024389267077_);fill:#D9D9D9;" points="1490.4,2017.1 
		1405.4,2151.7 1564.5,2158.1 	"/>
	<g style="clip-path:url(#SVGID_00000034812600900092060990000017873356024389267077_);">
		<path class="st10" d="M1505.6,2411.7l-17.2-22.7c39-29.5,74.5-60.8,105.5-93.1c29.4-30.7,54.2-61.6,73.6-91.9
			c18.7-29.2,31.9-56.9,39.1-82.4c6.9-24.4,8.2-45.7,3.6-63.3c-6.3-24.3-28.7-57.4-99.2-77.1c-55.5-15.5-129.5-18.7-208.2-9
			l-3.5-28.3c41-5.1,80.6-6.8,117.8-5.2c37.6,1.6,71.8,6.7,101.6,15c66.2,18.5,107.4,52.2,119.2,97.4c5.9,22.5,4.6,48.9-3.7,78.3
			c-8,28.1-22.3,58.4-42.5,89.9c-20.4,31.9-46.3,64.3-77,96.3C1582.5,2348.9,1545.9,2381.2,1505.6,2411.7z"/>
	</g>
	<polygon style="clip-path:url(#SVGID_00000034812600900092060990000017873356024389267077_);fill:#FCBF49;" points="1470.6,2320.6 
		1402,2464.3 1560.7,2451.9 	"/>
	<path style="clip-path:url(#SVGID_00000034812600900092060990000017873356024389267077_);fill:#969696;" d="M1260.2,2918.7
		L-7.2,2187V723.4L1260.3-8.3l1267.4,731.8V2187l-21.4,12.3L1260.2,2918.7z M78.3,2137.6l1182,682.4l1181.9-682.4V772.8L1260.2,90.4
		L78.3,772.8V2137.6z"/>
	<path style="clip-path:url(#SVGID_00000034812600900092060990000017873356024389267077_);fill:#D9D9D9;" d="M536.4,760.2v54.5h39.7
		c7.6,0,13,1.4,16.2,4.2c3.2,2.8,4.8,7.5,4.8,14c0,6.6-1.6,11.4-4.8,14.3s-8.6,4.4-16.2,4.4h-94c-7.7,0-13.2-1.5-16.5-4.4
		c-3.3-2.9-4.9-7.7-4.9-14.3c0-6.5,1.6-11.2,4.8-14c3.2-2.8,8.8-4.2,16.6-4.2H495V733h-7.3c-7.7,0-13.1-1.4-16.3-4.3
		c-3.2-2.9-4.8-7.6-4.8-14.2c0-6.6,1.5-11.3,4.6-14.1c3.1-2.8,8.6-4.2,16.4-4.2h35.8c3,0,5.4,0.6,7.1,1.9c1.7,1.2,2.6,3.2,2.5,5.3
		v24.9c12.2-13.1,23.6-22.5,34.2-28.1c10.5-5.6,22.3-8.5,34.2-8.4c11.1,0,19.9,2.5,26.4,7.5c6.5,5,9.8,11.7,9.8,20.1
		c0,6.5-2.2,11.9-6.7,16.1c-4.5,4.2-10.3,6.3-17.3,6.3c-5,0-11-1.8-17.9-5.5c-6.9-3.7-11.7-5.5-14.4-5.6c-5.4,0-11.7,2.4-19,7.2
		C555.1,742.7,546.4,750.2,536.4,760.2z"/>
	<path style="clip-path:url(#SVGID_00000034812600900092060990000017873356024389267077_);fill:#D9D9D9;" d="M704.9,783.8
		c2.9,12.4,8.6,21.8,16.9,27.9c8.4,6.2,19.5,9.2,33.4,9.2c13.9,0,27.6-3.4,41.2-10.2c13.6-6.8,21.8-10.2,24.6-10.2
		c3.9-0.1,7.7,1.6,10.2,4.6c2.6,3.1,3.9,7,4,11.9c0,10.5-7.8,19.6-23.4,27.2c-15.6,7.6-34.9,11.4-57.9,11.4
		c-27.1,0-49.2-7.6-66.2-22.9c-17-15.2-25.5-34.9-25.5-58.9c0-23.9,8.5-43.4,25.5-58.7s39-22.9,66.2-22.9c24.2,0,44.3,7.1,60.2,21.4
		c15.9,14.3,23.9,31.8,23.9,52.6c0,6.6-1.6,11.2-4.8,13.6c-3.2,2.5-9.8,3.7-19.8,3.7L704.9,783.8z M795.6,757.6
		c-1.9-10.4-6.8-18.5-14.7-24.2s-18.2-8.6-30.8-8.6c-12.2,0-22.1,2.7-29.5,8.2c-7.5,5.4-12.6,13.7-15.6,24.6H795.6z"/>
	<path style="clip-path:url(#SVGID_00000034812600900092060990000017873356024389267077_);fill:#D9D9D9;" d="M1026,814.7h2.7
		c6.1,0,10.7,1.6,13.9,4.8c3.2,3.2,4.8,7.8,4.8,13.7c0,6.5-1.7,11.2-5,14c-3.3,2.9-8.8,4.3-16.4,4.3h-15.8c-5.6,0-9.8-1.1-12.5-3.2
		c-2.7-2.1-5-6-6.8-11.6c-9.1,6.1-19.1,10.8-29.6,14.1c-10.2,3.2-20.9,4.9-31.6,4.9c-18.1,0-32.2-4.5-42.6-13.5
		c-10.3-9-15.5-21.2-15.5-36.8c0-16.8,6.7-29.9,20-39.2c13.3-9.3,32.1-14,56.2-14c5.4,0,11.1,0.3,17.2,0.8
		c6.1,0.6,12.8,1.5,20.3,2.7v-3.2c0-10.1-2.4-17.8-7.3-23s-12.1-7.9-21.6-7.9c-7.4,0-16.8,2.7-28.3,8.2c-11.5,5.5-19.9,8.2-25.3,8.2
		c-5.3,0-9.5-1.5-12.8-4.6c-3.2-3.1-4.9-7.1-4.9-12.2c0-9.1,6.6-16.3,19.9-21.6c13.3-5.3,31.4-8,54.2-8c23.9,0,41,4.6,51.3,13.8
		c10.3,9.2,15.5,24.8,15.5,46.7L1026,814.7z M985.3,782.3c-5.6-1.2-10.8-2.2-15.5-2.8c-4.3-0.6-8.7-0.9-13.1-0.9
		c-12.3,0-22,2.1-29,6.2c-7,4.2-10.5,9.9-10.5,17.2c0,6.5,2.2,11.5,6.7,14.9c4.5,3.4,10.9,5.1,19.3,5.1c7.4,0,14.8-1.1,21.9-3.4
		c7.2-2.4,14-6,20.2-10.4V782.3z"/>
	<path style="clip-path:url(#SVGID_00000034812600900092060990000017873356024389267077_);fill:#D9D9D9;" d="M1214,705.3
		c1.3-4.4,3.4-7.6,6.3-9.8c2.9-2.2,6.5-3.3,11-3.3c6.1,0,10.4,1.8,13,5.5c2.6,3.6,3.9,10,3.9,18.9v27.6c0,6.9-1.4,11.9-4.2,15.1
		c-2.8,3.2-7.1,4.9-13,4.8c-4.2,0-7.6-1-10.4-2.9c-2.8-1.9-5.8-5.5-8.9-10.9c-4.5-7.6-10.4-13.3-17.7-16.9
		c-7.3-3.6-16.2-5.5-26.7-5.5c-13.1,0-23.8,4.3-32.2,12.9c-8.4,8.6-12.5,19.5-12.5,32.9c0,14,4.3,25.3,13,33.8
		c8.6,8.5,20.2,12.8,34.8,12.8c13.2,0,26.4-3.7,39.4-11c13.1-7.3,21.1-11,24-11c4-0.1,7.8,1.7,10.3,4.8c2.7,3.2,4.1,7.2,4.1,12
		c0,10.5-8,20-24,28.3c-16,8.3-35,12.4-56.9,12.4c-27.1,0-49.2-7.6-66.2-22.9c-17-15.2-25.5-34.9-25.5-58.9
		c0-23.4,8.4-42.9,25.2-58.5s38-23.4,63.6-23.4c8.5,0,17,1.1,25.2,3.2C1198.2,697.6,1206.4,700.9,1214,705.3z"/>
	<path style="clip-path:url(#SVGID_00000034812600900092060990000017873356024389267077_);fill:#D9D9D9;" d="M1359.2,705.6h51.3
		c7.7,0,13.2,1.4,16.5,4.2c3.2,2.8,4.9,7.5,4.9,14c0,6.6-1.7,11.4-5,14.3s-8.8,4.4-16.4,4.4h-51.3v43.1c0,12.1,1.8,20.4,5.5,24.9
		c3.7,4.5,10.2,6.7,19.5,6.7c8.7,0,19.1-2.5,30.9-7.6c11.9-5,19.8-7.6,23.9-7.6c4.6,0,8.6,1.8,11.9,5.5c3.3,3.6,5,8,5,13.2
		c0,8.6-7.8,16.5-23.5,23.6c-15.6,7.1-33.4,10.7-53.3,10.7c-11.6,0-21.7-1.6-30.4-4.7c-8.7-3.1-15.6-7.6-20.7-13.5
		c-3.7-4.5-6.3-9.9-7.9-16.1c-1.6-6.3-2.4-16.8-2.3-31.5v-46.7H1302c-7.6,0-13-1.5-16.2-4.4s-4.8-7.7-4.8-14.3
		c0-6.6,1.6-11.3,4.7-14c3.1-2.7,8.6-4.1,16.3-4.1h15.8v-39.4c0-7.7,1.6-13.2,4.8-16.3s8.5-4.7,15.9-4.7c7.4,0,12.7,1.6,15.9,4.7
		c3.2,3.1,4.8,8.6,4.8,16.3L1359.2,705.6z"/>
	<path style="clip-path:url(#SVGID_00000034812600900092060990000017873356024389267077_);fill:#D9D9D9;" d="M1598.2,814.7h36.2
		c7.7,0,13.2,1.4,16.3,4.2c3.1,2.8,4.7,7.5,4.7,14c0,6.6-1.6,11.4-4.8,14.3c-3.2,2.9-8.6,4.4-16.2,4.4h-114
		c-7.5,0-12.9-1.5-16.1-4.4s-4.8-7.7-4.8-14.3c0-6.6,1.5-11.3,4.6-14c3.1-2.7,8.5-4.1,16.2-4.1h36.2v-146H1538
		c-7.6,0-13.1-1.5-16.4-4.5c-3.3-3-5-7.7-5-14.2c0-6.6,1.6-11.4,4.9-14.3s8.7-4.4,16.5-4.4h50.3c3.1,0,5.6,0.6,7.3,1.9
		c1.7,1.2,2.7,3.2,2.6,5.3V814.7z"/>
	<path style="clip-path:url(#SVGID_00000034812600900092060990000017873356024389267077_);fill:#D9D9D9;" d="M1784.2,692.5
		c27.2,0,49.3,7.6,66.3,22.9c16.9,15.2,25.4,34.8,25.4,58.7c0,24-8.5,43.6-25.4,58.9c-16.9,15.3-39,22.9-66.3,22.9
		c-27.1,0-49.2-7.6-66.1-22.9c-16.9-15.2-25.4-34.9-25.4-58.9c0-23.9,8.5-43.4,25.5-58.7C1735.2,700.1,1757.2,692.5,1784.2,692.5z
		 M1784.2,728c-13.1,0-23.9,4.3-32.4,12.9s-12.7,19.5-12.7,32.9c0,13.5,4.2,24.6,12.7,33.4c8.5,8.8,19.3,13.2,32.4,13.2
		c13.1,0,23.9-4.4,32.5-13.2c8.5-8.8,12.8-19.9,12.8-33.4c0-13.3-4.2-24.3-12.7-32.9C1808.3,732.2,1797.4,727.9,1784.2,728
		L1784.2,728z"/>
	<path style="clip-path:url(#SVGID_00000034812600900092060990000017873356024389267077_);fill:#D9D9D9;" d="M2025.4,711.8V703
		c0-2.2,0.8-4,2.4-5.1c1.6-1.2,4.1-1.8,7.3-1.8h27.4c7.7,0,13.2,1.4,16.3,4.3c3.1,2.9,4.7,7.5,4.7,14c0,6.1-1.5,10.6-4.6,13.8
		s-7.6,4.7-13.6,4.7h-2.9v115.9c0,24.6-6.7,42.4-20,53.5c-13.3,11.1-34.8,16.6-64.2,16.7c-18.3,0-31.7-1.8-40.3-5.4
		c-8.6-3.6-12.9-9.3-12.9-17c0-5.4,1.7-9.8,5.2-13.1c3.5-3.4,8.1-5,13.8-5c1.5,0,6.3,0.5,14.5,1.5c7.5,1,15.1,1.5,22.7,1.5
		c16,0,27.1-3,33.2-9.1c6.1-6.1,9.2-16.9,9.2-32.6v-7.6c-7.4,4.4-15.4,7.8-23.6,10.2c-7.9,2.2-16.1,3.3-24.3,3.3
		c-22.5,0-41-7-55.3-21.1c-14.3-14.1-21.4-32.2-21.4-54.2c0-22.7,7.5-41.5,22.4-56.2c15-14.7,34.1-22,57.4-22
		c10.1,0,19,1.6,26.6,4.8C2013.3,700.2,2020.1,705.3,2025.4,711.8z M1983.7,727.6c-11,0-20.1,4-27.3,11.9
		c-7.2,8-10.8,18.1-10.8,30.4c0,12.1,3.6,22.1,10.8,30s16.3,11.9,27.3,11.9c11.1,0,20.3-4,27.5-11.9c7.2-7.9,10.8-17.9,10.8-30
		c0-12.3-3.6-22.5-10.8-30.4C2003.9,731.6,1994.8,727.6,1983.7,727.6L1983.7,727.6z"/>
</g>
</svg>
