<?xml version="1.0" encoding="utf-8"?>
<!-- Generator: Adobe Illustrator 26.5.0, SVG Export Plug-In . SVG Version: 6.00 Build 0)  -->
<svg version="1.1" id="Layer_1" xmlns="http://www.w3.org/2000/svg" xmlns:xlink="http://www.w3.org/1999/xlink" x="0px" y="0px"
	 viewBox="0 0 2521 2911" style="enable-background:new 0 0 2521 2911;" xml:space="preserve">
<style type="text/css">
	.st0{fill:#005590;}
	.st1{fill:#004064;}
	.st2{fill:#E6B35A;}
	.st3{opacity:0.94;}
	.st4{fill:#FFFFFF;}
	.st5{fill:none;}
	.st6{fill:#110B0C;}
</style>
<g>
	<polygon class="st0" points="2457.9,777.2 1260.5,85.8 1260.5,85.8 63.1,777.2 63.1,2159.9 1260.5,2851.3 2457.9,2159.9 	"/>
	<path class="st1" d="M2521,2183.6V727.7l-100.5-58l-953.1-550.4L1260.5,0l-206.9,119.4L100.5,669.8L0,727.7v1455.5l100.5,58
		l965.1,557.2l195.2,112.5l195.2-112.5l965.1-557.2L2521,2183.6z M100.5,2129V789.2l1160-669.8l0,0l1160,669.8V2129l-1160,669.8
		L100.5,2129z"/>
	<path class="st2" d="M1258.8,2171.6c1-1,2.1-2.1,3.1-3.1h-1C1260.5,2169.5,1259.8,2170.6,1258.8,2171.6z"/>
	<g class="st3">
		<path class="st4" d="M660.4,1971.2c0-31.9-0.7-59.4-2.1-84.4h40.5l1.7,53.2h2.1c11.7-36.4,39.5-59.4,70.7-59.4
			c4.5,0,8.9,0.3,13,1.7v46.3c-5.1-1-10.6-1.7-15.8-1.7c-32.6,0-55.9,26.4-62.1,63.1c-1.4,7.5-2.1,15.1-2.1,23v144.1h-46V1971.2z"/>
		<path class="st4" d="M843,2031.2c1,66.6,41.2,94,87.5,94c33.3,0,53.2-6.2,70.7-14.1l7.9,35.3c-16.5,7.9-44.3,16.8-84.7,16.8
			c-78.6,0-125.6-54.9-125.6-136.6c0-81.7,45.3-145.8,119.7-145.8c83.4,0,105.3,77.9,105.3,127.6c0,7.5-0.7,15.4-1.7,23H843V2031.2z
			 M978.8,1995.9c0.7-31.2-12-79.9-64.5-79.9c-47,0-67.6,46-71.4,79.9H978.8z"/>
		<path class="st4" d="M1211.8,2157.5l-3.8-34h-1.7c-17.8,25.7-47,40.5-78.2,40.1c-51.8,0-77.9-38.4-77.9-77.9
			c0-65.5,54.9-101.2,153.4-100.5v-5.5c0-22.3-5.8-62.4-58-62.4c-23.7,0-46.7,7.2-66.6,20.2l-10.6-32.6c20.9-14.4,51.8-24,83.7-24
			c78.2,0,97.1,56.6,97.1,110.8V2093c-0.3,21.6,1,43.2,4.1,64.8L1211.8,2157.5z M1204.9,2019.2c-50.8-1-108.1,8.2-108.1,61.1
			c0,31.9,19.9,47,43.9,47c28.5,0.3,53.5-18.2,61.8-45.3c1.7-5.1,2.4-10.3,2.7-15.8L1204.9,2019.2z"/>
		<path class="st4" d="M1534.6,1760.5v327c0,24,0.7,51.5,2.1,70h-41.5l-2.1-47h-1c-14.1,30.2-45.3,53.2-87.1,53.2
			c-61.8,0-109.1-55.2-109.1-137.6c-0.7-89.9,52.1-145.5,114.6-145.5c39.1,0,65.5,19.6,76.9,41.5h1v-161.6H1534.6z M1488.3,1996.9
			c0-6.9-0.7-13.7-2.1-20.6c-6.9-31.2-32.3-57-66.9-57c-48,0-76.5,44.6-76.5,104.7c0,54.9,25.4,100.2,75.5,100.2
			c31.2,0,59.7-21.6,67.9-58.7c1.7-6.9,2.4-14.1,2.1-21.3V1996.9z"/>
		<path class="st4" d="M1622.8,1886.8l36.4,58.3c9.6,15.1,17.5,29.2,25.7,44.3h1.7c8.6-16.1,16.8-30.2,25.4-44.6l36-57.6h50.1
			l-87.1,130.7l89.5,139.6h-52.8l-37.4-61.1c-9.9-15.8-18.5-30.9-27.4-47h-1c-8.6,16.1-17.5,30.9-26.8,47l-37.1,61.1h-51.1
			l90.6-137.9l-86.5-132.8H1622.8z"/>
		<path class="st4" d="M1834.8,1760.5h46.3v397h-46.3V1760.5z"/>
	</g>
	<path class="st5" d="M1397.4,893.8c0-4.8,0.3-8.9,0.3-13C1397.7,884.6,1397.4,889,1397.4,893.8z"/>
	<path class="st5" d="M998,750.1L998,750.1z"/>
	<path class="st5" d="M997.7,732.9c-2.1-69.3-3.8-122.5-3.8-122.5c0-28.8,5.1-57.3,14.8-84.1c-9.9,27.1-14.8,55.6-14.8,84.1
		C993.9,610.4,995.6,663.6,997.7,732.9z"/>
	<path class="st5" d="M1401.9,1256.1c-0.3-6.5-0.7-13.7-1-22C1401.2,1242.4,1401.5,1249.6,1401.9,1256.1z"/>
	<path class="st5" d="M1001.1,872.2c-0.3-12-0.7-24.4-0.7-36.7C1000.4,847.8,1000.8,860.2,1001.1,872.2z"/>
	<path class="st5" d="M1400.1,831.7c0-4.1,0.3-8.2,0.3-12.7C1400.5,823.5,1400.1,827.6,1400.1,831.7z"/>
	<path class="st5" d="M1398.4,869.1c-0.3,3.1-0.3,6.5-0.7,10.6C1397.7,876,1398.1,872.2,1398.4,869.1s0.3-6.9,0.7-11
		C1398.8,862.3,1398.4,866,1398.4,869.1z"/>
	<path class="st5" d="M980.2,1420.2c2.1-1.4,3.1-3.4,3.4-5.8C983.3,1416.7,982.3,1418.8,980.2,1420.2z"/>
	<path class="st5" d="M1398.8,1149.4c-2.1,51.5-2.7,140.3-2.7,142.1c0-2.1,0.7-85.4,2.4-140.3L1398.8,1149.4z"/>
	<path class="st5" d="M999.4,796.4c0-3.1,0-6.5-0.3-9.6C999.1,789.9,999.1,793.3,999.4,796.4z"/>
	<path class="st5" d="M989.1,1416.4L989.1,1416.4l9.3-84.4L989.1,1416.4L989.1,1416.4z"/>
	<path class="st5" d="M1002.8,1012.9c0,3.4,0,6.5,0,10C1002.8,1019.4,1002.8,1016,1002.8,1012.9c0.3-32.6-0.7-84.7-1.7-140.7
		C1002.5,928.1,1003.2,979.9,1002.8,1012.9z"/>
	<path class="st5" d="M1403.6,1288.7c0-2.7-0.3-5.8-0.7-9.3C1403.2,1282.9,1403.6,1286,1403.6,1288.7z"/>
	<path class="st5" d="M1410.4,1029.7c0,1,0,2.4,0,3.8C1410.4,1032.1,1410.4,1030.7,1410.4,1029.7c0.3-20.2,1.4-120.8,2.4-209.6
		C1411.8,909.3,1410.8,1009.4,1410.4,1029.7z"/>
	<path class="st5" d="M1414.5,663.9c0-2.4,0-5.1,0-8.2C1414.5,658.4,1414.5,661.2,1414.5,663.9z"/>
	<path class="st5" d="M1403.9,676.3c0,4.8,0,9.6-0.3,15.1C1403.6,686.2,1403.9,681.1,1403.9,676.3z"/>
	<path class="st5" d="M1116.1,1121.6c-5.1,1.7-21.6,15.8-27.8,37.4l1,0.3C1095.8,1137.4,1110.9,1123.4,1116.1,1121.6z"/>
	<path class="st5" d="M1429.3,789.9c0-8.9,0.3-16.1,0.7-22C1429.6,773.7,1429.6,780.9,1429.3,789.9z"/>
	<path class="st5" d="M1161,1078.1c10.6-3.1,22-5.1,32.9-6.2C1182.6,1072.9,1171.6,1075,1161,1078.1z"/>
	<path class="st5" d="M1404.6,638.5c0,1.4,0,3.1,0,4.8C1404.6,641.6,1404.6,639.9,1404.6,638.5z"/>
	<path class="st5" d="M1393.6,543.2c7.5,28.1,11.3,57,11,86.1c0,0,0,3.4,0,9.3c0-5.8,0-9.3,0-9.3
		C1404.9,600.1,1401.2,571.3,1393.6,543.2z"/>
	<path class="st5" d="M1178.5,1100c2.4-0.3,4.8-0.3,7.2-0.3l0,0C1183.3,1099.7,1180.9,1099.7,1178.5,1100z"/>
	<path class="st5" d="M1227.2,1110.7c6.2,1.7,12.4,4.1,18.2,6.9C1239.6,1114.8,1233.4,1112.4,1227.2,1110.7
		c-5.8-4.8-17.8-10.6-41.2-11C1209.4,1100,1221.4,1105.9,1227.2,1110.7z"/>
	<path class="st4" d="M1396,1291.8l4.1,93.7l0,0l6.9,161.6c-4.1,61.8-36.7,93.7-70.3,110.1c-37.7,18.5-66.2,17.2-66.2,17.2
		c-154-28.8-164-165-164-165c2.7-24,0.3-87.2-0.3-164.4c0-81.7,5.8-138.6,5.8-138.6c3.1-88.9,85.4-94,85.4-94
		c11.7-0.3,23.7,1,35,4.1c33.3,8.9,53.2,31.9,65.2,55.6c2.4,4.8,4.8,10,6.5,14.8l16.5,159.9l5.1,112.9l6.5,1.4l7.5,1.4l3.1,0.3
		l7.2,1.4c5.1-1,10.3-2.4,15.4-4.1c3.4-1,6.5-2.4,9.9-4.1c-1.7-39.8-3.4-84.1-3.4-124.2l0,0l0,0c0-12.7,0-23.7,0.3-32.3
		c-1-24-3.4-51.1-4.8-61.1c0.3-9.6,0-19.2-0.7-28.8c-3.8-19.2-9.9-37.7-18.2-55.2c-8.2-14.8-18.5-28.5-30.5-40.1
		c-14.1-13.7-30.2-25.4-48-33.6c-3.1-0.7-6.5-1.4-9.6-1.7c-10.3-4.8-20.9-8.2-31.9-10.6c-101.9-22.6-153,51.5-159.5,61.8
		c-11.7,20.2-19.9,46-21.6,78.9l2.4,136.9l-0.3,5.1l-4.8,100.5c0,1.4,0,3.4,0,5.5c-0.3,17.2-0.3,42.9,0,55.6
		c0.7,24.7,2.4,29.2,9.6,52.8c2.1,6.5,3.8,12.7,6.2,19.2c4.5,8.9,8.6,16.5,8.6,16.5c18.2,48.7,74.4,123.5,143.8,140.3
		c42.2,10.3,102.6,7.9,148.6-15.4c121.1-62.1,99.5-166.4,96.4-241.9s-18.2-276.9-18.2-276.9c-3.4-113.9,1-469.4,1-469.4
		c-3.4-60,27.4-207.6-61.4-295.8S1139,390.8,1139,390.8C966.5,450.2,977.1,608,979.5,639.2c2.4,31.2,8.9,271.7,8.9,271.7
		c8.6,131.4-11.7,494.8-11.7,494.8c0,11.3-2.7,15.1-5.1,24.7c1-2.7-2.1,17.5,0.7,15.4c1.7-1,6.2,3.8,0,0c5.1,6.5,17.5,7.2,17.5,7.2
		l24,0.3c1.7,0.3,3.8,0,5.5-0.7c0,0-2.7,0.7,6.2,0.7l0,0c0.7-0.3,1.7-0.7,2.7-0.7l10.6-170.2l1-34.7c0,0,0.7-204.2-2.1-424.4
		c0-0.7-14.4-155.1-15.8-205.5c-1.7-55.9,18.9-156.1,136.2-186c24.7-3.4,49.4-4.5,74.4-4.1c31.6,5.5,65.2,13,74.4,15.1l5.5,2.4
		c17.8,10.3,32.9,24,44.6,40.8c0,0,35,46.7,36.4,101.2c0,0,4.8,132.8-1,169.5c-5.5,36-5.5,28.1-5.1-0.3
		c-0.3,56.3-1.4,111.9-2.4,139.6c0,0,0-0.7-0.3-2.4c0.3,8.6,0,17.5-0.7,26.1c0.7,9.3,1.7,33.6,1.7,55.6c0.3-2.4,0.3-4.8,0.7-6.5
		L1396,1291.8 M999.1,786.8c0,3.1,0,6.5,0.3,9.6C999.1,793.3,999.1,789.9,999.1,786.8z M998,750.4L998,750.4z M1414.5,655.7
		c0,3.1,0,5.8,0,8.2C1414.5,661.2,1414.5,658.4,1414.5,655.7z"/>
	<path d="M1263.6,1750.2c-17.5,0-35-1.7-52.1-5.8c-70.3-17.2-127.6-93.3-146.2-142.4c-0.7-1.4-4.5-8.2-8.6-16.1v-0.3
		c-2.1-6.2-4.1-12.7-6.2-19.2l-1.4-4.8c-5.8-19.6-7.5-25.4-8.2-48.7c-0.3-13,0-39.1,0-55.9c0-2.1,0-4.1,0-5.5l5.5-105.7l-2.4-136.6
		c1-28.1,8.6-55.9,22.3-80.6c5.8-8.9,59-86.8,163.3-63.5c11,2.4,22,5.8,32.3,10.6c3.8,0.7,6.9,1,9.6,1.7l0.7,0.3
		c18.2,8.6,34.7,20.2,48.7,34.3c12.4,12.4,22.6,26.1,31.2,41.2c8.6,17.8,14.8,36.7,18.5,56.3v0.3c0.7,9.6,1,19.2,0.7,28.8
		c1,10.6,3.8,37.4,4.8,61.1c-0.3,8.2-0.7,18.9-0.3,32.3v0.3c0,35,1.4,76.9,3.4,123.9v2.4l-2.1,1c-3.4,1.7-6.9,3.1-10.3,4.1
		c-5.1,1.7-10.3,3.1-15.8,4.1h-0.7h-0.7l-6.5-1l-3.8-0.7c-2.4-0.3-5.1-1-7.5-1.4l-6.5-1.4l-2.7-0.7l-5.5-115.6l-16.5-159.2
		c-1.7-4.8-3.8-9.6-6.2-14.1c-14.4-28.1-35.7-46.3-63.1-53.9c-11-2.7-22.6-4.1-34-3.8c-3.1,0.3-78.9,5.8-82,90.6
		c0,0.7-5.8,58-5.8,138.3c0.3,21.3,0.3,41.5,0.7,60c0.7,48,1.4,86.1-0.3,104c0.7,6.9,15.1,134.2,160.9,161.6c2.7,0,29.5,0,64.2-17.2
		c41.9-20.6,64.8-56.6,68.3-107.1l-11-255.3l-9.9-317h-1c0.3-21.6-1-46-1.7-55.2v-0.7c0.7-8.6,1-17.2,0.7-25.7h0.3
		c1-24.4,1.7-70.7,2.4-137.2h5.1l0,0c5.5-36.4,1-167.8,1-169.2c-1.4-52.8-35.3-98.8-35.7-99.2c-11.3-16.5-26.1-30.2-43.6-40.1
		c-1.7-0.7-3.4-1.4-5.1-2.1c-9.9-2.1-42.9-9.6-73.8-15.1c-24.7-0.7-49.1,0.7-73.4,3.8c-128,32.6-134.5,147.9-133.5,182.5
		c1.4,45.6,13.4,178.4,15.8,204.5v0.7c3.1,217.9,2.1,422.7,2.1,424.8l-1,35l-10.6,173.6h-3.4c-0.3,0-0.7,0-0.7,0.3l-0.7,0.3h-1
		c-2.4,0-4.5,0-6.9-0.3c-1.7,0.3-3.4,0.7-5.1,0.3l-23.7-0.3c-1.4,0-13-0.7-19.2-7.2l-0.7-0.3c-1-0.7-2.1-1.7-2.1-3.1l-10.3-13
		l10.3,6.2c0-1.4,0.3-3.1,0.3-4.8s0.3-3.4,0.3-3.8c0.3,1.4,1.4,2.7,2.7,3.1l0.3-2.7l-3.4-1c0.7-2.7,1.4-5.1,2.1-7.2
		c2.1-5.1,2.7-11,2.7-16.5c0.3-3.8,20.2-364.7,11.7-494.4c0-2.4-6.9-240.9-8.9-271.7c-5.1-71.4,8.9-199.4,161.9-251.8
		c1.7-0.3,154.4-36.4,243.6,52.2c71.7,70.7,66.9,179.1,63.5,250.8c-0.7,18.5-1.7,34.7-0.7,47c0,3.8-4.5,357.2-1,469.7
		c0,1.7,15.4,202.1,18.2,276.9c0.3,8.2,0.7,16.5,1.4,25.4c4.8,72.7,10.3,163.3-99.5,219.9
		C1331.9,1744.1,1296.2,1750.2,1263.6,1750.2z M1063.2,1583.1c4.5,8.6,8.2,15.8,8.2,15.8l0.3,0.3c17.5,47.4,73.1,121.5,141.4,138.3
		c39.1,9.6,99.5,8.6,146.2-15.4c106-54.2,100.5-142.4,96.1-213.4c-0.7-8.9-1-17.2-1.4-25.4c-3.1-74.5-18.2-274.5-18.2-276.6
		c-3.4-112.9,1-466.3,1-469.7c-0.7-12.4,0-28.8,0.7-47.4c3.1-70.7,8.2-177-61.1-245.7c-86.5-85.8-235.4-50.8-236.7-50.4
		c-148.6,51.1-162.3,175.3-157.1,245c2.1,30.9,8.9,269.3,8.9,271.7c8.6,130-11.3,491.3-11.7,495.1c0,6.2-1,12.4-3.1,18.2
		c-0.3,1.7-1,3.8-1.7,5.8c0,1.7,0,3.1-0.3,4.8c0,2.1-0.3,5.1-0.3,7.5c1.4,0.3,2.4,1,3.4,2.1c0.3,0.7,0.7,1.4,1,2.1
		c3.4,1.7,7.2,2.7,11.3,2.7l23.7,0.3c1,0,2.4,0,3.4-0.3c0.3,0,0.7-0.3,1-0.3l2.4,6.5c1-0.7,1.7-1.7,1.7-3.1s-1-2.7-2.4-3.1
		c1.7,0.3,3.1,0.3,4.8,0h0.3l10.3-167.8l1-34.7c0-2.1,0.7-206.6-2.1-424.4v-0.7c-2.4-26.1-14.4-158.9-15.8-204.8
		c-1-36,5.5-155.8,139-189.4h0.3c25-3.4,50.1-4.8,75.1-4.1h0.3c31.6,5.5,65.2,13,74.4,15.1h0.3c2.1,0.7,3.8,1.4,5.8,2.4l0.3,0.3
		c18.2,10.3,34,24.7,45.6,41.9c1.4,1.7,35.7,48,37.1,102.9c0.3,5.5,4.5,133.5-1,170.2c-2.7,18.2-3.8,24.4-5.5,26.1
		c-0.7,54.2-1.4,92-2.1,112.5h-0.3c0.3,7.9,0,15.8-0.7,23.7c0.3,8.6,1.7,28.8,1.7,48.7h0.7l9.9,323.6l11,255.6v0.3
		c-3.4,52.5-28.5,91.6-72,112.9c-38.1,18.9-66.6,17.8-67.9,17.5h-0.3c-154.7-28.8-166.4-166.8-166.7-168.1v-0.7
		c1.7-17.2,1.4-55.2,0.3-103.6c-0.3-18.5-0.7-38.8-0.7-60.4c0-80.6,5.8-138.3,5.8-139c2.4-72.4,59-95,88.5-97.1
		c12-0.3,24.4,1,36,4.1c29.5,8.2,52.1,27.4,67.6,57.3c2.4,4.8,4.8,10,6.9,15.1l0.3,0.7l16.5,159.9l5.1,110.5
		c1.4,0.3,2.7,0.7,3.8,0.7c2.4,0.3,4.8,1,7.2,1.4l3.8,0.7c2.1,0.3,3.8,0.7,5.8,1c4.8-1,9.6-2.4,14.1-3.8c2.7-1,5.1-1.7,7.5-3.1
		c-2.1-46-3.1-86.8-3.4-121.5v-0.3v-1c0-13,0-24,0.3-31.9c-0.7-23.7-3.4-50.1-4.8-60.7v2.1c0.3-9.3,0-18.9-0.7-28.1
		c-3.4-18.9-9.6-37.1-17.8-54.2c-7.9-14.4-18.2-27.8-29.8-39.5c-13.7-13.4-29.5-24.7-46.7-32.9c-2.7-0.7-5.5-1-8.9-1.7l-1-0.3
		c-9.9-4.8-20.6-8.2-31.2-10.3c-100.2-22.3-151,51.8-156.1,60.4c-13,23.7-20.2,50.1-21.3,77.2l2.4,136.6l-0.3,5.5l-5.5,100.2
		c0,1.4,0,3.1,0,5.1c-0.3,16.8-0.3,42.9,0,55.6c0.3,22.6,2.1,27.8,7.9,47l1.4,4.8C1059.1,1570.8,1061.2,1577,1063.2,1583.1z
		 M996,796.4l-0.3-9.6l6.9-0.3l0.3,9.6L996,796.4z M994.6,750.7h3.4H994.6h3.4H994.6l3.4-0.3h3.4v0.3H994.6z M1411.1,663.9
		c0-2.4,0-5.1,0-8.2h6.9c0,3.1,0,5.8,0,8.2H1411.1z"/>
	<path class="st6" d="M1117.1,509.2c0,0-103.6-17.5-158.8,43.2c-55.2,60.7-17.8,132.4-9.6,134.2c8.2,1.7-19.6-58.3,34-112.2
		c0,0,44.9-55.9,139.6-52.2C1121.9,522.2,1128.4,524.3,1117.1,509.2z"/>
	<path class="st6" d="M1275.6,515c0,0,98.5-45.3,169.8,0s53.5,127,46,130.7c-7.5,3.8,3.1-64.8-68.6-106.4c0,0-55.2-39.5-148.2-10
		C1274.2,529.4,1268.7,533.2,1275.6,515z"/>
	<path d="M985.3,1207.8l-3.1-6.2l3.1-1.7l22.6-11.3c8.6-4.5,17.5-8.6,26.1-13l3.1-1.7l3.1,6.2l-3.1,1.7c-8.6,4.5-17.5,8.6-26.4,13
		c-7.5,3.8-15.1,7.5-22.6,11.3L985.3,1207.8z"/>
	<path d="M984.7,1223.9l-3.1-6.2l3.1-1.7c6.2-3.1,12-6.2,18.2-9.3c10.3-5.1,20.9-10.6,31.2-15.8l3.1-1.7l3.1,6.2l-3.1,1.7
		c-10.3,5.5-20.9,10.6-31.2,15.8l-18.2,9.3L984.7,1223.9z"/>
	<path d="M988.1,1238.3l-3.1-6.2l3.1-1.7c9.9-5.1,19.9-10.3,29.5-15.1c6.2-3.1,12-6.2,17.8-8.9l3.1-1.7l3.1,6.2l-3.1,1.7
		c-6.2,3.1-12,6.2-18.2,9.3c-9.6,4.8-19.9,10-29.5,15.1L988.1,1238.3z"/>
	<path d="M988.4,1253.1l-3.1-6.2l3.1-1.7c9.6-5.1,19.6-10.3,29.2-15.1c5.8-3.1,11.7-5.8,17.5-8.9l3.1-1.7l3.1,6.2l-3.1,1.7
		l-17.5,8.9c-9.6,4.8-19.6,9.6-29.2,14.8L988.4,1253.1z"/>
	<path d="M987.4,1142.2l-1.7-3.1l1.7-0.7c8.6-4.5,17.5-8.9,26.1-13c5.8-3.1,11.7-5.8,17.5-8.6l1.7-0.7l1.7,3.1l-1.7,0.7
		c-5.8,3.1-11.7,5.8-17.5,8.6c-8.6,4.5-17.5,8.6-26.1,13L987.4,1142.2z"/>
	<path d="M988.8,1157.3l-1.7-3.1l1.4-0.7c9.3-4.8,18.9-9.6,28.5-14.4c5.5-2.7,11.3-5.5,16.8-8.6l1.4-0.7l1.7,3.1l-1.4,0.7l-16.8,8.6
		c-9.3,4.8-18.9,9.6-28.5,14.4L988.8,1157.3z"/>
	<path d="M987.7,1173.8l-1.7-3.1l1.4-0.7c9.9-5.1,20.2-10.3,29.8-15.4c5.1-2.4,9.9-5.1,15.1-7.5l1.7-0.7l1.7,3.1l-1.7,0.7l-15.1,7.5
		c-9.9,5.1-19.9,10.3-29.8,15.4L987.7,1173.8z"/>
	<path d="M988.1,1190.6l-3.1-6.2l3.1-1.7c9.9-5.1,20.2-10.3,29.8-15.4c5.1-2.4,9.9-5.1,15.1-7.5l3.1-1.7l3.1,6.2l-3.1,1.7l-15.1,7.5
		c-9.9,5.1-19.9,10-29.8,15.4L988.1,1190.6z"/>
	<path d="M992.9,1079.4l-1.7-3.1l1.4-0.7c6.9-3.4,13.7-6.5,20.2-9.6l8.6-4.1l1.7-0.7l1.4,3.1l-1.7,0.7l-8.6,4.1
		c-6.5,3.1-13.7,6.2-20.2,9.6L992.9,1079.4z"/>
	<path d="M994.3,1094.2l-1.7-3.1l1.4-0.7c6.5-3.4,13.4-6.5,19.9-9.6l7.5-3.4l1.7-0.7l1.4,3.1l-1.7,0.7l-7.5,3.4
		c-6.5,3.1-13,6.2-19.6,9.6L994.3,1094.2z"/>
	<path d="M992.5,1111.4l-1.7-3.1l1.4-0.7c6.9-3.8,14.1-7.2,21.3-10.3c2.7-1.4,5.8-2.7,8.6-4.1l1.7-0.7l1.4,3.1l-1.7,0.7l-8.6,4.1
		c-6.9,3.4-14.1,6.9-21.3,10.3L992.5,1111.4z"/>
	<path d="M992.2,1126.5l-1.7-3.1l1.4-0.7c8.2-4.5,16.5-8.6,24.7-12.7c2.7-1.4,5.5-2.7,8.2-4.1l1.7-0.7l1.4,3.1l-1.7,0.7l-8.2,4.1
		c-8.2,4.1-16.5,8.2-24.7,12.4L992.2,1126.5z"/>
	<path d="M993.9,1010.8l-1.7-3.1l1.4-0.7c8.6-4.8,17.5-9.6,26.4-14.1l13-6.9l1.4-0.7l1.7,3.1l-1.4,0.7c-4.5,2.4-8.6,4.8-13,6.9
		c-8.6,4.8-17.5,9.3-26.1,14.1L993.9,1010.8z"/>
	<path d="M994.6,1025.6l-1.7-3.1l1.4-0.7c9.3-5.1,18.9-10.3,27.8-15.1l10.3-5.5l1.7,3.1l-10.3,5.5c-9.3,4.8-18.5,10-27.8,15.1
		L994.6,1025.6z"/>
	<path d="M994.3,1042l-1.7-3.1l1.4-0.7c9.3-5.1,18.9-10.3,28.1-15.4l9.3-4.8l1.7,3.1l-9.3,5.1c-9.3,5.1-18.9,10.3-28.1,15.4
		L994.3,1042z"/>
	<path d="M994.6,1062.3l-1.7-3.1l1.4-0.7c7.2-3.8,14.4-7.9,21.6-11.7l8.9-4.8l1.7-0.7l1.7,3.1l-1.4,0.7l-8.9,4.5
		c-7.2,3.8-14.4,7.5-21.6,11.3L994.6,1062.3z"/>
	<path d="M991.5,948.7l-1.7-3.1l1.4-0.7c8.9-4.8,17.8-9.6,26.4-14.1l14.4-7.5l1.4-0.7l1.7,3.1l-1.4,0.7l-14.1,7.5
		c-8.6,4.8-17.8,9.3-26.4,14.1L991.5,948.7z"/>
	<path d="M992.9,963.5l-1.7-3.1l1.4-0.7c8.9-5.1,18.2-10,27.4-14.8l12-6.2l1.4-0.7l1.7,3.1l-1.4,0.7l-12,6.5
		c-8.9,4.8-18.2,9.6-27.1,14.8L992.9,963.5z"/>
	<path d="M993.2,979.3l-1.7-3.1l1.4-0.7c9.6-5.5,19.2-10.6,28.8-15.4l11.7-6.2l1.4-0.7l1.7,3.1l-1.4,0.7l-12,6.2
		c-9.6,5.1-19.2,10.3-28.8,15.4L993.2,979.3z"/>
	<path d="M993.9,994l-1.7-3.1l1.4-0.7c9.3-5.1,18.9-10.3,28.1-15.4l10.3-5.5l1.4-0.7l1.7,3.1l-1.4,0.7l-10.3,5.5
		c-9.3,4.8-18.9,10-28.1,15.4L993.9,994z"/>
	<path d="M990.1,887l-1.7-3.1l1.4-0.7c8.6-4.8,17.5-9.3,26.1-13.7l13.7-7.2l1.4-0.7l1.7,3.1l-1.7,0.7c-4.5,2.4-9.3,4.8-13.7,7.2
		c-8.6,4.5-17.2,9.3-25.7,13.7L990.1,887z"/>
	<path d="M989.5,902.4l-1.7-3.1l1.4-0.7c8.2-4.5,16.5-8.9,24.7-13c5.1-2.7,10.6-5.5,15.8-8.2l1.4-0.7l1.7,3.1l-1.4,0.7
		c-5.1,2.7-10.6,5.5-15.8,8.2c-8.2,4.1-16.5,8.6-24.7,13L989.5,902.4z"/>
	<path d="M991.2,917.8l-1.7-3.1l1.4-0.7c7.9-4.5,16.1-8.6,24-12.7c5.1-2.7,10.6-5.5,15.8-8.2l1.4-0.7l1.7,3.1l-1.4,0.7
		c-5.1,2.7-10.6,5.5-15.8,8.2c-7.9,4.1-15.8,8.2-23.7,12.7L991.2,917.8z"/>
	<path d="M992.2,931.9l-1.7-3.1l1.4-0.7c8.6-4.8,17.2-9.3,25.7-13.7c4.8-2.4,9.6-4.8,14.1-7.2l1.7-0.7l1.7,3.1l-1.4,0.7
		c-4.8,2.4-9.6,4.8-14.1,7.5c-8.6,4.5-17.2,8.9-25.4,13.7L992.2,931.9z"/>
	<path d="M989.5,815.6l-1.7-3.1l1.4-0.7c1.7-1,9.9-5.1,18.2-9.6c8.2-4.5,17.5-8.9,18.9-10l1.4-0.7l1.7,3.1l-1.4,0.7
		c-1.7,1-10.3,5.5-19.2,10c-8.2,4.1-16.5,8.6-18.2,9.6L989.5,815.6z"/>
	<path d="M989.5,842.4l-1.7-3.1l1.4-0.7c8.6-4.8,17.5-9.6,26.4-14.1l14.8-7.5l1.4-0.7l1.7,3.1l-1.4,0.7l-14.8,7.9
		c-8.6,4.5-17.5,9.3-26.1,14.1L989.5,842.4z"/>
	<path d="M989.5,858.5l-1.7-3.1l1.4-0.7c9.6-5.5,19.2-10.6,28.8-15.8l12-6.2l1.4-0.7l1.7,3.1l-1.4,0.7l-12,6.2
		c-9.6,5.1-19.2,10.3-28.8,15.4L989.5,858.5z"/>
	<path d="M989.8,873.2l-1.7-3.1l1.4-0.7c9.9-5.5,20.2-11,30.2-16.5l11-5.8l1.7,3.1l-11,5.8c-9.9,5.5-20.2,10.6-29.8,16.5
		L989.8,873.2z"/>
	<path d="M982.9,631.7l-1.7-3.1l1.4-0.7c8.9-5.1,17.8-10.3,26.8-15.4l2.7-1.7l1.7,3.1l-2.7,1.7c-8.9,5.1-17.8,10.3-26.8,15.4
		L982.9,631.7z"/>
	<path d="M983.6,646.4l-1.7-3.1l1.4-0.7l13.4-7.5l14.8-8.6l1.4-0.7l1.7,3.1l-1.4,0.7c-4.8,2.7-9.9,5.5-14.8,8.6l-13.4,7.5
		L983.6,646.4z"/>
	<rect x="982.2" y="652.5" transform="matrix(0.8671 -0.4982 0.4982 0.8671 -193.7596 582.407)" width="24.4" height="3.4"/>
	<rect x="983" y="669.8" transform="matrix(0.8665 -0.4992 0.4992 0.8665 -202.992 584.1928)" width="15.1" height="3.4"/>
	<path d="M982.6,603.2l-1.7-3.1l1.4-0.7c8.9-5.1,18.2-10.3,28.1-15.8l1.4-0.7l1.7,3.1l-1.4,0.7c-9.6,5.1-19.2,10.6-27.8,15.4
		L982.6,603.2z"/>
	<path d="M982.3,616.2l-1.7-3.1l8.2-4.8c7.5-4.5,15.4-8.9,23-13l1.4-0.7l1.7,3.1l-1.4,0.7c-7.5,4.5-15.4,8.6-23,13L982.3,616.2z"/>
	<rect x="1000.4" y="502.4" transform="matrix(0.865 -0.5018 0.5018 0.865 -116.5744 574.9999)" width="19.6" height="3.4"/>
	<path d="M1008,516l-1.7-3.1l1.4-0.7l16.1-9.3l1.4-0.7l1.7,3.1l-1.4,0.7l-16.1,9.3L1008,516z"/>
	<path d="M984,1271.9l-3.1-5.8l3.1-1.7c18.9-9.6,36-17.8,51.5-25l3.1-1.4l2.7,6.2l-3.1,1.4c-15.4,7.2-32.6,15.4-51.5,25L984,1271.9z
		"/>
	<path d="M983.3,1291.8l-3.1-6.2l3.1-1.7c3.8-2.1,13.7-7.5,23.7-12.7c9.9-5.1,19.9-10.6,23.7-12.7l3.1-1.7l3.1,6.2l-3.1,1.7
		c-3.8,2.1-13.7,7.5-23.7,12.7c-10.3,5.5-19.9,10.6-23.7,12.7L983.3,1291.8z"/>
	<path d="M982.6,1310.7l-3.1-6.2l3.1-1.7c11-5.5,22.3-11.7,32.9-17.5c6.2-3.4,12-6.5,18.2-10l3.1-1.7l3.1,6.2l-3.1,1.7
		c-6.2,3.1-12,6.5-18.2,10c-11,5.8-22,12-33.3,17.5L982.6,1310.7z"/>
	<path d="M981.9,1336.1l-3.4-5.8l3.1-1.7c15.8-8.9,32.3-18.2,50.8-28.5l3.1-1.7l3.4,6.2l-3.1,1.7c-18.5,10.3-35,19.6-50.8,28.1
		L981.9,1336.1z"/>
	<path d="M979.9,1352.9l-3.1-6.2l3.1-1.7c11.3-5.8,23-12,34-17.8l17.2-9.3l3.1-1.7l3.1,6.2l-3.1,1.7c-5.8,3.1-11.3,6.2-17.2,9.3
		c-11.3,6.2-22.6,12.4-34.3,18.2L979.9,1352.9z"/>
	<path d="M978.5,1371.1l-3.4-5.8l3.1-1.7c17.5-9.6,34.7-19.6,52.1-29.2l3.1-1.7l3.4,6.2l-3.1,1.7l-52.1,29.2L978.5,1371.1z"/>
	<path d="M978.5,1387.2l-3.4-5.8l25-14.4l28.1-16.5l3.1-1.7l3.4,5.8l-3.1,1.7l-28.1,16.5L978.5,1387.2z"/>
	<path d="M977.5,1401.6l-3.4-5.8l3.1-1.7l26.1-15.4l24-14.1l3.1-1.7l3.4,5.8l-3.1,1.7l-24,14.1l-26.1,15.4L977.5,1401.6z"/>
	<path d="M977.1,1415.4l-3.4-5.8l3.1-1.7l28.1-16.5l22.3-13l3.1-1.7l3.4,5.8l-3.1,1.7l-22,13l-28.1,16.5L977.1,1415.4z"/>
	<path d="M976.4,1431.1l-3.4-5.8l3.1-1.7l29.2-17.2l19.2-11.3l3.1-1.7l3.4,5.8l-3.1,1.7l-19.2,11.3l-29.2,17.2L976.4,1431.1z"/>
	<path d="M974.7,1444.9l-3.4-5.8l3.1-1.7l29.2-17.2l20.9-12.4l3.1-1.7l3.4,5.8l-3.1,1.7L1007,1426l-29.2,17.2L974.7,1444.9z"/>
	<path d="M984.7,1452.1l-3.4-5.8l3.1-1.7c7.9-4.5,16.1-9.3,24-13.7l12.7-7.2l3.1-1.7l3.4,5.8l-3.1,1.7l-12.4,7.2
		c-7.9,4.5-16.1,8.9-24,13.7L984.7,1452.1z"/>
	<path d="M1407,1424.6l-0.7-1.4l15.4-8.6l15.1-8.6l0.7,1.4l-15.1,8.6C1417.3,1418.8,1412.1,1421.5,1407,1424.6z"/>
	<path d="M1409.4,1439.4l-0.7-1.4l12.4-7.2c5.8-3.4,11.7-6.5,17.2-10l0.7,1.4c-5.8,3.4-11.3,6.5-17.2,10L1409.4,1439.4z"/>
	<path d="M1408.7,1456.2l-0.7-1.4c6.9-3.8,13.4-7.9,20.2-11.7c5.8-3.4,11.3-6.5,17.2-10l0.7,1.4c-5.8,3.4-11.7,6.5-17.2,10
		C1422.1,1448.3,1415.6,1452.1,1408.7,1456.2z"/>
	<path d="M1409.7,1470.6l-1-1.4c6.5-3.8,13.4-7.5,20.2-11.3c6.9-3.8,13.4-7.5,20.2-11.7l0.7,1.4c-6.9,3.8-13.7,7.9-20.2,11.7
		C1423.1,1463,1416.6,1466.8,1409.7,1470.6z"/>
	<path d="M1404.3,1361.5l-0.7-1.4c5.5-3.1,10.6-6.2,16.1-8.9c5.5-2.7,11.7-6.5,17.5-10l0.7,1.4c-5.8,3.4-11.7,6.5-17.5,10
		S1409.7,1358.4,1404.3,1361.5z"/>
	<path d="M1404.6,1377.6l-0.7-1.4c6.5-3.8,12.7-7.2,19.2-10.6l14.4-8.2l0.7,1.4l-14.4,8.2
		C1417.3,1370.4,1411.1,1373.8,1404.6,1377.6z"/>
	<path d="M1405.6,1393.4l-0.7-1.4c6.9-4.1,14.1-8.2,20.9-12l10.3-5.8l0.7,1.4l-10.3,5.8C1419.7,1385.2,1412.8,1389.3,1405.6,1393.4z
		"/>
	<path d="M1406.3,1408.5l-1-1.4c7.2-4.1,14.4-8.6,21.6-12.4l10.6-6.2l0.7,1.4l-10.6,6.2C1420.7,1400.3,1413.2,1404.4,1406.3,1408.5z
		"/>
	<path d="M1401.2,1301.4l-0.7-1.4c5.1-2.7,10.3-5.5,15.4-8.2c5.8-3.1,12-6.2,17.8-9.6l0.7,1.4c-5.8,3.4-12,6.5-17.8,9.6
		C1411.5,1296,1406.3,1298.7,1401.2,1301.4z"/>
	<path d="M1402.9,1316.2l-0.7-1.4c5.1-3.1,10.6-5.8,15.8-8.6c6.2-3.4,12.7-6.9,18.9-10.3l0.7,1.4c-6.2,3.8-12.7,7.2-18.9,10.3
		C1413.5,1310.7,1408,1313.4,1402.9,1316.2z"/>
	<path d="M1403.2,1333l-0.7-1.4c5.1-3.1,10.3-5.8,15.4-8.6c6.9-3.4,13.7-7.2,20.6-11.3l0.7,1.4c-6.9,3.8-13.7,7.5-20.6,11.3
		C1413.5,1327.2,1408.4,1329.9,1403.2,1333z"/>
	<path d="M1404.6,1347.4l-0.7-1.4c6.5-3.8,13.4-7.5,20.2-11.3c5.1-2.7,10.3-5.5,15.4-8.6l0.7,1.4l-15.4,8.6
		C1418,1339.9,1411.1,1343.6,1404.6,1347.4z"/>
	<path d="M1404.6,1228.7l-1-1.4l16.5-10l8.9-5.5l1,1.4l-8.9,5.5C1415.9,1222.2,1410.1,1225.6,1404.6,1228.7z"/>
	<path d="M1404.6,1244.5l-1-1.4c7.5-4.8,15.1-9.3,22.6-13.7l2.4-1.7l1,1.4l-2.4,1.4C1419.7,1235.2,1412.1,1240,1404.6,1244.5z"/>
	<path d="M1404.9,1261l-1-1.4c7.9-5.1,16.1-10,24-14.8l1.7-1l1,1.4l-1.7,1C1421.1,1251,1412.8,1256.1,1404.9,1261z"/>
	<path d="M1399.8,1285.7l-1-1.4c7.2-4.5,14.8-8.9,22-13l10.3-6.2l1,1.4l-10.3,6.2C1414.5,1276.7,1407,1281.2,1399.8,1285.7z"/>
	<path d="M1401.9,1165.6l-1-1.4l13-7.9l14.4-8.6l0.7,1.4c-4.8,2.7-9.6,5.8-14.1,8.6L1401.9,1165.6z"/>
	<path d="M1402.9,1180.7l-1-1.4l15.1-8.9l11-6.5l0.7,1.4l-11,6.5L1402.9,1180.7z"/>
	<path d="M1403.9,1196.4l-1-1.4c5.5-3.4,10.6-6.5,16.1-9.6l9.3-5.5l1,1.4l-9.6,5.5C1414.9,1189.9,1409.4,1193,1403.9,1196.4z"/>
	<path d="M1404.6,1211.5l-1-1.4c5.8-3.8,12-7.2,17.8-10.6l8.2-4.8l0.7,1.4l-8.2,4.8C1416.3,1204.3,1410.4,1207.8,1404.6,1211.5z"/>
	<path d="M1395.3,1104.8l-1-1.4c4.1-2.4,8.6-5.1,12.7-7.5c6.9-4.1,13.7-8.2,20.6-12.4l1,1.4c-6.9,4.1-13.7,8.2-20.6,12.4
		C1403.9,1100,1399.4,1102.4,1395.3,1104.8z"/>
	<path d="M1397.7,1119.2l-0.7-1.4l9.6-5.5c7.5-4.5,15.4-8.9,23-13.7l1,1.4c-7.5,4.8-15.4,9.6-23,14.1L1397.7,1119.2z"/>
	<path d="M1398.8,1135l-1-1.4l9.6-5.5c7.2-4.5,15.1-8.9,22.3-13.4l1,1.4c-7.2,4.8-15.1,9.3-22.3,13.4L1398.8,1135z"/>
	<path d="M1400.1,1149.8l-0.7-1.4l11-6.5c5.8-3.4,12-6.9,17.8-10.6l1,1.4c-5.8,3.4-12,7.2-17.8,10.6L1400.1,1149.8z"/>
	<path d="M1392.9,1032.8l-0.7-1.4l6.9-4.1c5.8-3.4,12-6.9,17.8-10.6l1,1.4c-5.8,3.4-12,7.2-17.8,10.6L1392.9,1032.8z"/>
	<path d="M1392.9,1059.9l-1-1.4c3.8-2.4,7.9-4.8,11.7-6.9c8.6-5.1,17.5-10.3,25.7-15.8l1,1.4c-8.6,5.5-17.5,10.6-26.1,15.8
		C1400.8,1055.1,1397,1057.5,1392.9,1059.9z"/>
	<path d="M1392.9,1076.7l-0.7-1.4c5.5-3.4,11.3-6.9,16.8-10.3s11.3-6.9,17.2-10.3l1,1.4l-17.2,10.3
		C1404.3,1069.8,1398.4,1073.3,1392.9,1076.7z"/>
	<path d="M1394.6,1090.8l-1-1.4c6.9-4.1,13.7-8.2,20.6-12.4l13-7.9l1,1.4l-13,7.9C1408.4,1082.5,1401.5,1086.6,1394.6,1090.8z"/>
	<path d="M1411.1,1487.4l-0.7-1.4c4.1-2.4,7.9-4.5,12-6.9c8.6-4.8,17.2-10,26.1-14.8l0.7,1.7c-8.9,4.5-17.8,9.6-26.1,14.4
		C1419,1482.9,1414.9,1485.4,1411.1,1487.4z"/>
	<path d="M1412.1,1506.3l-1-1.4l11-6.9c7.9-4.8,15.8-10,24-14.8l1,1.4c-8.2,4.8-16.1,9.6-24,14.8L1412.1,1506.3z"/>
	<path d="M1412.8,1525.5l-1-1.4c5.5-3.4,11-6.9,16.5-10c7.2-4.5,14.8-8.9,22.3-13.4l1,1.4c-7.5,4.5-15.1,8.9-22.3,13.4
		C1423.8,1518.6,1418.3,1522.1,1412.8,1525.5z"/>
	<path d="M1413.9,1550.5l-1.7-2.7l3.8-2.4c9.9-6.2,19.9-12.7,29.8-18.9l1.7,3.1c-9.9,6.2-19.9,12.4-29.8,18.9L1413.9,1550.5z"/>
	<path d="M1413.2,1568l-1.7-3.1c5.8-3.4,11.7-7.2,17.5-10.6c5.1-3.1,10.3-6.5,15.4-9.6l1.7,3.1c-5.1,3.1-10.3,6.2-15.4,9.6
		L1413.2,1568z"/>
	<path d="M1414.2,1584.9l-1.7-2.7l5.5-3.4l30.2-19.2l1.7,3.1c-9.9,6.5-20.2,12.7-30.2,19.2L1414.2,1584.9z"/>
	<path d="M1413.5,1601.7l-1.7-2.7l11.7-7.5c8.2-5.5,16.8-11,25-16.5l1.7,2.7c-8.2,5.5-16.8,11-25,16.5L1413.5,1601.7z"/>
	<path d="M1401.5,1623.6l-1.7-2.7l24.7-16.5l22.3-14.8l1.7,2.7l-22.3,14.8L1401.5,1623.6z"/>
	<path d="M1401.9,1637.4l-1.7-2.7c8.9-5.8,17.8-11.7,26.8-17.5l20.9-13.7l2.1,2.7c-6.9,4.5-13.7,9.3-20.9,13.7L1401.9,1637.4z"/>
	<path d="M1401.9,1653.1l-1.7-2.7c9.3-6.2,18.5-12.4,27.8-18.5l18.9-12.4l1.7,2.7l-18.9,12.4
		C1420.4,1640.8,1411.1,1647,1401.9,1653.1z"/>
	<path d="M1400.8,1667.2l-2.1-2.7l28.5-18.9l19.2-12.7l1.7,2.7l-19.2,12.7C1419.7,1654.5,1410.4,1660.7,1400.8,1667.2z"/>
	<path d="M1411.5,1673.7l-1.7-2.7c7.9-5.1,15.8-10.3,24-15.4l13.7-8.6l1.7,2.7l-13.7,8.6C1427.2,1663.8,1419.3,1668.6,1411.5,1673.7
		z"/>
	<path d="M1052.9,1329.2l-0.7-1.4l9.6-5.1c14.4-7.9,29.2-16.5,43.2-25.4l1,1.4c-14.1,8.9-29.2,17.2-43.2,25.4L1052.9,1329.2z"/>
	<path d="M1052.9,1345l-0.7-1.4l8.6-4.8c14.4-8.2,29.2-16.8,43.2-25.7l1,1.4c-14.1,8.9-28.8,17.5-43.2,25.7L1052.9,1345z"/>
	<path d="M1052.6,1361.8l-0.7-1.4l13-7.5c12.7-7.2,25.7-14.8,38.4-22.6l1,1.4c-12.4,7.9-25.7,15.4-38.4,22.6L1052.6,1361.8z"/>
	<path d="M1053.6,1376.6l-0.7-1.4l13-7.2c12.4-7.2,25.4-14.4,37.7-22.3l1,1.4c-12.4,7.9-25,15.1-37.7,22.3
		C1062.2,1371.4,1058.1,1374.2,1053.6,1376.6z"/>
	<path d="M1053.3,1264.4l-0.7-1.4c3.1-1.7,5.8-3.4,8.9-5.1c12.4-6.9,25.4-14.1,37.7-22l1,1.4c-12.4,7.9-25.4,15.1-37.7,22.3
		L1053.3,1264.4z"/>
	<path d="M1052.6,1280.9l-0.7-1.4l10.3-5.8c12.7-7.2,26.1-14.8,38.4-22.6l1,1.4c-12.7,8.2-25.7,15.4-38.8,22.6L1052.6,1280.9z"/>
	<path d="M1052.6,1297.3l-0.7-1.4l12-6.9c13.4-7.5,26.8-15.4,39.8-23.7l1,1.4c-13,8.2-26.8,16.1-39.8,23.7L1052.6,1297.3z"/>
	<path d="M1052.9,1312.4l-0.7-1.4l12.4-7.2c13-7.5,26.4-15.1,39.5-23.3l1,1.4c-13,8.2-26.4,15.8-39.5,23.3L1052.9,1312.4z"/>
	<path d="M1066.3,1211.5l-0.7-1.4c3.4-1.7,6.5-3.4,9.6-5.5l1,1.4C1072.8,1208.1,1069.4,1209.8,1066.3,1211.5z"/>
	<path d="M1066,1228.4l-0.7-1.4c5.1-2.7,9.6-5.1,13.4-7.5l1,1.4C1075.6,1223.2,1071.5,1225.6,1066,1228.4z"/>
	<path d="M1053.6,1250l-0.7-1.4l8.9-5.1c8.9-5.1,18.2-10.3,27.1-15.8l1,1.4c-8.9,5.5-18.2,10.6-27.1,15.8L1053.6,1250z"/>
	<path d="M1084.8,1112l-1-1.4c3.1-2.1,6.9-4.5,11-6.9l1,1.4C1092,1107.9,1087.9,1110.3,1084.8,1112z"/>
	<path d="M1078.3,1131.6l-1-1.4l1.4-0.7c6.5-3.8,13-7.9,19.6-12l1,1.4c-6.5,4.1-13,8.2-19.6,12L1078.3,1131.6z"/>
	<path d="M1072.5,1151.8l-1-1.4l4.5-2.7c8.6-5.1,17.5-10.6,26.1-16.5l1,1.4c-8.6,5.5-17.5,11-26.1,16.5L1072.5,1151.8z"/>
	<path d="M1066.3,1177.6l-0.7-1.4l1.7-1c4.8-2.7,9.6-5.5,14.1-8.6l1,1.4c-4.8,3.1-9.6,5.8-14.1,8.6L1066.3,1177.6z"/>
	<path d="M1053.3,1394.1l-0.7-1.4c3.4-1.7,6.9-3.8,10.3-5.8c10.3-6.2,20.9-12,32.3-16.8l0.7,1.4c-1.7,1.4-3.8,2.4-5.5,3.4l-0.3-0.7
		c-8.9,4.1-17.5,9.3-26.1,14.1C1060.1,1390.3,1056.7,1392.4,1053.3,1394.1z"/>
	<path d="M1052.6,1414l-1-1.4l7.5-4.8c6.9-4.5,14.4-8.9,21.6-13l1,1.4c-7.2,4.1-14.4,8.6-21.6,13L1052.6,1414z"/>
	<path d="M1053.3,1432.9l-1-1.4l12.4-7.5c9.9-6.2,19.9-12.4,30.2-18.2l0.7,1.4c-10.3,5.8-20.2,12-30.2,18.2L1053.3,1432.9z"/>
	<path d="M1052.6,1457.9l-1-1.4l4.8-3.1c13.7-8.6,27.8-17.5,41.9-26.1l1,1.4c-14.1,8.6-28.1,17.5-41.9,26.1L1052.6,1457.9z"/>
	<path d="M1052.2,1475.4l-0.7-1.4l14.1-8.6c10.3-6.5,21.3-13,31.9-19.2l0.7,1.4c-10.6,6.2-21.6,12.7-31.9,19.2L1052.2,1475.4z"/>
	<path d="M1050.5,1493.6l-1-1.4l5.5-3.4c14.4-9.3,29.2-18.5,43.9-27.8l1,1.4c-14.8,9.3-29.5,18.5-43.9,27.8L1050.5,1493.6z"/>
	<path d="M1049.8,1510.4l-1-1.4l10.6-7.2c12.7-8.2,26.1-17.2,38.8-25.7l1,1.4c-13,8.6-26.1,17.2-38.8,25.7L1049.8,1510.4z"/>
	<path d="M1050.5,1524.1l-1-1.4l10.6-6.9c12.4-8.2,25.4-16.5,37.7-25l1,1.4c-12.7,8.6-25.4,16.8-37.7,25L1050.5,1524.1z"/>
	<path d="M1052.9,1536.5l-1-1.4l10.3-6.9c11.3-7.5,23.3-15.1,34.7-23l1,1.4c-11.7,7.5-23.3,15.4-34.7,23L1052.9,1536.5z"/>
	<path d="M1056.7,1549.9l-1-1.4l8.9-5.8c10.3-6.5,20.2-13.4,30.2-19.9l1,1.4c-9.9,6.5-20.2,13.4-30.2,19.9L1056.7,1549.9z"/>
	<path d="M1060.1,1560.8l-1-1.4l6.9-4.5c9.3-6.2,18.5-12.4,27.8-18.5l1,1.4c-9.3,6.2-18.5,12.4-27.8,18.5L1060.1,1560.8z"/>
	<path d="M1064.6,1571.8l-1-1.4l6.5-4.1c7.2-4.5,14.4-9.3,21.6-14.1l1,1.4c-7.2,4.8-14.4,9.3-21.6,14.1L1064.6,1571.8z"/>
	<path d="M1124,1679.9l-1.4-0.7l5.1-9.6c7.5-14.8,15.4-29.9,22.3-44.9l1.7,0.7c-6.9,15.4-14.8,30.5-22.3,44.9
		C1127.4,1673.4,1125.7,1676.5,1124,1679.9z"/>
	<path d="M1132.5,1693.3l-1.4-0.7l4.5-8.9c7.5-14.8,15.1-29.9,22-45.3l1.7,0.7c-6.9,15.4-14.4,30.5-22,45.3L1132.5,1693.3z"/>
	<path d="M1143.9,1703.2l-1.4-0.7l4.5-8.9c6.9-13,13.7-26.8,19.9-40.1l1.7,0.7c-6.2,13.7-13,27.1-19.9,40.5L1143.9,1703.2z"/>
	<path d="M1154.8,1711.1l-1.4-0.7l2.4-4.8c6.5-13,13.4-26.4,19.6-39.8l1.7,0.7c-6.2,13.4-13,26.8-19.6,39.8L1154.8,1711.1z"/>
	<path d="M1089,1625.3l-1.7-0.7c1.7-3.1,3.1-5.8,4.8-8.9c6.5-12.7,13.4-25.7,19.6-39.1l1.7,0.7c-6.2,13.4-13,26.4-19.6,39.5
		L1089,1625.3z"/>
	<path d="M1097.2,1639.8l-1.4-0.7l5.5-10.6c6.9-13,13.7-26.8,19.9-40.1l1.7,0.7c-6.2,13.7-13,27.4-19.9,40.5L1097.2,1639.8z"/>
	<path d="M1106.1,1653.5l-1.7-0.7l6.2-12.4c6.9-13.7,14.1-27.4,20.2-41.9l1.7,0.7c-6.5,14.1-13.4,28.1-20.2,41.9
		C1110.2,1645.2,1108.2,1649.4,1106.1,1653.5z"/>
	<path d="M1119.8,1655.5l-1.7-0.7l1-2.1c6.9-13.7,14.1-27.4,20.2-41.5l1.7,0.7c-6.5,14.1-13.4,28.1-20.2,41.9L1119.8,1655.5z"/>
	<path d="M1079.7,1588.6l-1.4-0.7c2.7-5.1,5.1-9.6,6.9-13.7l1.7,0.7C1084.8,1578.7,1082.4,1583.1,1079.7,1588.6z"/>
	<path d="M1081.4,1613.3l-1.7-0.7l4.8-9.3c4.8-8.9,9.6-18.5,14.1-27.8l1.7,0.7c-4.5,9.6-9.3,18.9-14.1,28.1L1081.4,1613.3z"/>
	<path d="M1167.9,1718.3l-1.7-0.7c4.5-9.3,9.6-18.2,15.1-26.8l1.4,0.7c-0.7,2.1-1.7,3.8-2.7,6.2l-0.7-0.3
		C1175.4,1704.3,1171.6,1711.5,1167.9,1718.3z"/>
	<path d="M1231.7,1748.5l-11.7-14.1c-5.1-6.5-10.6-13-15.8-19.6l1.4-1c5.1,6.5,10.6,13,15.8,19.6c3.8,4.8,7.9,9.6,11.7,14.1
		L1231.7,1748.5z"/>
	<path d="M1262.6,1745.8l-3.4-4.1c-5.8-6.9-11.7-13.7-17.2-20.6l3.4-2.7l17.2,20.6l3.4,4.1L1262.6,1745.8z"/>
	<path d="M1284.9,1743.4c-4.5-5.5-8.9-11-13.4-16.5l-5.5-6.5l3.4-2.7l5.5,6.5c4.5,5.5,8.9,11,13.4,16.5L1284.9,1743.4z"/>
	<rect x="1297.3" y="1711.6" transform="matrix(0.7633 -0.6461 0.6461 0.7633 -808.8925 1248.4827)" width="4.1" height="32.9"/>
	<rect x="1316.5" y="1707" transform="matrix(0.7532 -0.6578 0.6578 0.7532 -808.7561 1292.9697)" width="4.1" height="34.3"/>
	<rect x="1330.8" y="1694.3" transform="matrix(0.7507 -0.6607 0.6607 0.7507 -797.6082 1306.915)" width="4.1" height="31.9"/>
	<path d="M1357.6,1726.2l-6.2-7.2l-16.8-19.2l3.1-2.7l16.8,19.2l6.5,7.2L1357.6,1726.2z"/>
	<path d="M1372,1717.3l-2.4-3.1l-19.2-22l3.1-2.7c6.5,7.2,12.7,14.4,19.2,22l2.4,2.7L1372,1717.3z"/>
	<path d="M1384,1709.4c-7.2-8.2-14.4-16.5-21.6-24.7l3.1-2.7c7.2,8.2,14.4,16.5,21.6,24.7L1384,1709.4z"/>
	<path d="M1396.4,1700.1c-6.2-7.5-12.7-15.1-19.2-22.3l3.4-2.7c6.5,7.5,12.7,14.8,19.2,22.3L1396.4,1700.1z"/>
	<path d="M1308.9,1228l-1.4-2.1c5.1-2.7,10.3-5.8,15.1-8.6c7.2-4.1,14.1-7.9,21.3-12l1.4,2.1c-7.2,4.1-14.1,7.9-21.3,12
		C1318.8,1222.2,1313.7,1224.9,1308.9,1228z"/>
	<path d="M1309.9,1243.5l-1.4-2.1l12.7-7.2c8.6-4.8,17.2-9.6,25.4-14.8l1.4,2.1c-8.6,4.8-16.8,10-25.4,14.8L1309.9,1243.5z"/>
	<path d="M1311.6,1258.9l-1.4-2.1c6.5-3.8,12.7-7.2,19.2-11c6.9-3.8,14.1-7.9,20.9-12l1.4,2.1c-6.9,4.1-14.1,7.9-20.9,12
		C1324.3,1251.7,1318.1,1255.1,1311.6,1258.9z"/>
	<path d="M1312.6,1273.6l-1.4-2.1c6.2-3.8,12.7-7.2,18.9-11c7.5-4.1,15.1-8.6,22.3-12.7l1.4,2.1c-7.5,4.5-15.1,8.6-22.3,12.7
		C1325.3,1266.4,1319.2,1269.9,1312.6,1273.6z"/>
	<path d="M1298.6,1169.3l-1.4-2.1c6.9-4.1,13.7-7.9,20.6-11.7l5.8-3.4l1.4,2.1l-5.8,3.4C1312.3,1161.4,1305.4,1165.2,1298.6,1169.3z
		"/>
	<path d="M1300.6,1184.1l-1.4-2.1c7.5-4.5,15.1-8.9,22.6-13l7.9-4.5l1.4,2.1l-7.9,4.5C1316.1,1175.5,1308.2,1180,1300.6,1184.1z"/>
	<path d="M1300.6,1200.9l-1.4-2.1c8.9-5.1,17.8-10.6,26.8-15.4l9.6-5.5l1.4,2.1l-9.6,5.5C1318.5,1190.3,1309.6,1195.8,1300.6,1200.9
		z"/>
	<path d="M1305.1,1213.6l-1.4-2.1c8.2-5.1,16.8-10,25-14.4l10.6-6.2l1.4,2.1l-10.6,6.2C1321.9,1204,1313.3,1208.8,1305.1,1213.6z"/>
	<path d="M1301.7,1138.1l-1.4-2.1c3.4-2.1,7.2-4.1,10.3-5.8l1.4,2.4C1308.2,1134.7,1305.1,1136.4,1301.7,1138.1z"/>
	<path d="M1302.7,1153.2l-1.4-2.1c5.1-3.1,10.3-6.2,15.4-8.9l0.7-0.3l1.4,2.1l-0.7,0.3C1313,1147,1307.5,1150.1,1302.7,1153.2z"/>
	<path d="M1315.1,1289.8l-1.4-2.4c3.8-2.1,7.5-4.5,11.7-6.5c9.3-5.5,18.9-11,28.8-15.8l1,2.4c-9.6,4.8-19.2,10.3-28.5,15.4
		C1322.6,1285.3,1318.8,1287.7,1315.1,1289.8z"/>
	<path d="M1314,1309.7l-1.4-2.1l11-6.9c7.9-4.8,16.1-10,24-14.8l1.4,2.1c-8.2,4.8-16.1,9.6-24,14.8L1314,1309.7z"/>
	<path d="M1313.7,1329.6l-1.4-2.1l17.5-10.6c8.6-5.1,17.5-10.6,26.1-15.8l1.4,2.1c-8.9,5.1-17.5,10.6-26.1,15.8L1313.7,1329.6z"/>
	<path d="M1314,1353.9l-1.4-2.1l4.1-2.4c12.7-8.2,26.1-16.5,39.1-24.4l1.4,2.1c-13,8.2-26.1,16.5-39.1,24.4L1314,1353.9z"/>
	<path d="M1313.7,1371.4l-1.4-2.1c6.2-3.8,12.4-7.5,18.5-11.3c8.9-5.5,18.2-11,27.4-16.5l1.4,2.1c-9.3,5.5-18.5,11-27.4,16.5
		L1313.7,1371.4z"/>
	<path d="M1316.8,1386.5l-1.4-2.1l5.5-3.4c11.7-7.5,23.3-14.8,35-22.3l1.4,2.1c-11.7,7.2-23.3,14.8-35,22.3L1316.8,1386.5z"/>
	<path d="M1317.1,1402.7l-1.4-2.1l9.9-6.5c9.9-6.5,19.9-13,29.8-19.6l1.4,2.1l-29.8,19.6L1317.1,1402.7z"/>
	<path d="M1320.5,1414.7l-1.4-2.1l8.9-5.8l25-16.5l1.4,2.1l-25,16.5L1320.5,1414.7z"/>
	<path d="M1321.9,1428.1l-1.4-2.1l9.3-6.2l22.6-14.8l1.4,2.1c-7.5,5.1-15.1,10-22.6,14.8L1321.9,1428.1z"/>
	<path d="M1324.3,1442.1l-1.4-2.1l8.2-5.5l19.2-12.7l1.4,2.1c-6.5,4.1-13,8.6-19.2,12.7L1324.3,1442.1z"/>
	<path d="M1325,1454.8l-1.4-2.1l8.2-5.5l17.5-11.7l1.4,2.1l-17.5,11.7L1325,1454.8z"/>
	<path d="M1326,1468.2l-1.4-2.1l9.3-5.8c5.1-3.4,10.3-6.5,15.4-10l1.4,2.1l-15.4,10L1326,1468.2z"/>
	<path d="M1396.7,753.1l-0.7-1.4l7.2-4.1c13.4-7.5,26.8-15.1,39.8-23.3l1,1.4c-13,8.2-26.8,15.8-39.8,23.3L1396.7,753.1z"/>
	<path d="M1396.4,769.3l-0.7-1.4l6.5-3.8c13-7.5,26.8-15.4,39.8-23.7l1,1.4c-13,8.2-26.8,16.1-39.8,23.7L1396.4,769.3z"/>
	<path d="M1396,785.7l-0.7-1.4c3.4-2.1,6.9-3.8,10.3-5.8c12-6.9,24-13.7,36-21.3l1,1.4c-11.7,7.5-24,14.4-36,21.3
		C1402.9,782,1399.4,784,1396,785.7z"/>
	<path d="M1394.3,802.2l-0.7-1.4c3.8-2.1,7.5-4.5,11.7-6.5c12-6.9,24.7-14.1,36.4-21.6l1,1.4c-12,7.5-24.4,14.8-36.7,21.6
		L1394.3,802.2z"/>
	<path d="M1398.8,687.6l-0.7-1.4l5.8-3.4c11-6.2,22.6-12.7,33.6-19.6l1,1.4c-11,6.9-22.3,13.4-33.6,19.9L1398.8,687.6z"/>
	<path d="M1399.1,703.4l-0.7-1.4l6.5-3.8c11.3-6.5,23-13,34-20.2l1,1.4c-11,7.2-22.6,13.7-34,20.2L1399.1,703.4z"/>
	<path d="M1399.1,719.5l-0.7-1.4l7.9-4.5c11.7-6.9,24-13.7,35.7-21.3l1,1.4c-11.7,7.5-24,14.4-35.7,21.3L1399.1,719.5z"/>
	<path d="M1397.7,735.6l-0.7-1.4l8.9-5.1c12-6.9,24.4-13.7,36-21.3l1,1.4c-11.7,7.5-24,14.4-36,21.3L1397.7,735.6z"/>
	<path d="M1398.8,627.2l-1.7-3.1l1.7-0.7c4.1-2.4,8.6-4.5,12.7-7.2l1.7,3.1c-4.1,2.4-8.6,4.8-12.7,7.2L1398.8,627.2z"/>
	<path d="M1399.1,643l-1.7-3.1l2.4-1.4c4.1-2.4,8.6-4.8,13-7.2l1.7,3.1c-4.1,2.7-8.6,5.1-13,7.2L1399.1,643z"/>
	<path d="M1399.1,658.4l-0.7-1.4l3.1-1.7c5.1-2.7,10.6-5.8,15.4-8.9l1,1.4c-5.1,3.1-10.6,6.2-15.8,8.9L1399.1,658.4z"/>
	<path d="M1398.4,673.5l-0.7-1.4l5.8-3.1c7.9-4.5,15.8-8.9,23.7-13.7l1,1.4c-7.5,4.8-15.8,9.3-23.7,13.7L1398.4,673.5z"/>
	<polygon points="1400.5,586 1398.8,583.3 1414.5,573.7 1416.3,576.4 	"/>
	<path d="M1398.4,608.7l-0.7-1.4l4.5-2.7c5.8-3.4,12-7.2,17.8-10.6l1,1.4c-5.8,3.8-12,7.2-17.8,10.6L1398.4,608.7z"/>
	<path d="M1395.3,819.4l-0.7-1.4c3.1-1.7,6.2-3.4,9.6-5.5c9.3-5.5,18.9-10.6,29.2-15.1l0.7,1.4c-1.7,1.4-3.8,2.4-5.5,3.4l-0.3-0.7
		c-7.9,3.8-15.4,8.2-23,12.4C1401.5,815.9,1398.4,817.6,1395.3,819.4z"/>
	<path d="M1392.9,839.6l-1-1.4l6.5-3.8c6.5-4.1,13.4-8.2,20.2-12.4l1,1.4c-6.9,4.1-13.7,8.2-20.2,12.4L1392.9,839.6z"/>
	<path d="M1391.2,860.2l-1-1.4l12.4-7.5c9.9-6.2,19.9-12.4,30.2-18.2l0.7,1.4c-10.3,5.8-20.2,12-30.2,18.2L1391.2,860.2z"/>
	<path d="M1392.6,883.9l-1-1.4l2.4-1.4c14.1-8.9,28.5-17.8,42.5-26.8l1,1.4c-14.4,8.6-28.8,17.8-42.5,26.4L1392.6,883.9z"/>
	<path d="M1392.9,901l-1-1.4l10.6-6.5c10.6-6.5,22-13.4,32.9-19.6l0.7,1.4c-11,6.5-22.3,13-32.9,19.6L1392.9,901z"/>
	<path d="M1393.3,917.8l-1-1.4c14.4-9.3,29.5-18.9,44.6-28.1l1,1.4C1423.1,899,1408,908.6,1393.3,917.8z"/>
	<path d="M1393.3,934.3l-1-1.4l3.8-2.4c13.4-8.6,27.1-17.8,40.5-26.8l1,1.4c-13.4,8.9-27.4,18.2-40.5,26.8L1393.3,934.3z"/>
	<path d="M1392.6,948.7l-1-1.4l4.1-2.7c13.4-8.6,27.1-17.8,40.5-26.8l1,1.4c-13.4,8.9-27.4,18.2-40.8,26.8L1392.6,948.7z"/>
	<path d="M1392.6,962.8l-1-1.4l9.6-6.5c11.3-7.2,22.6-15.1,34.3-22.6l1,1.4c-11.3,7.5-23,15.1-34.3,22.6L1392.6,962.8z"/>
	<path d="M1391.2,979.6l-1-1.4l11-7.2c10.6-6.9,21.6-14.1,32.3-21.3l1,1.4c-10.6,7.2-21.6,14.4-32.3,21.3L1391.2,979.6z"/>
	<path d="M1391.6,992.3l-1-1.4l9.9-6.5c10.3-6.9,20.9-13.7,31.2-20.6l1,1.4c-10.3,6.9-20.9,14.1-31.6,20.6L1391.6,992.3z"/>
	<path d="M1391.2,1006.4l-1-1.4l12.4-7.9c8.9-5.5,18.2-11.7,27.1-17.5l1,1.4c-8.9,5.8-18.2,11.7-27.4,17.5L1391.2,1006.4z"/>
	<path d="M1393.3,524.3l-1.7-2.7l13.4-8.9l1.7,2.7L1393.3,524.3z"/>
	<path d="M1396.4,535.6l-1-1.4c7.2-4.5,14.1-9.3,21.3-14.1l1,1.4C1410.8,526.3,1403.6,530.8,1396.4,535.6z"/>
	<path d="M1398.8,548l-1-1.4c7.9-5.1,15.8-10.6,24-15.8l1,1.4C1414.5,537.7,1406.7,542.8,1398.8,548z"/>
	<path d="M1402.9,561l-1-1.4l17.5-11.7l1,1.4C1414.5,553.1,1408.7,556.9,1402.9,561z"/>
	<path d="M1407.3,570.9l-1-1.4l11.7-7.9l1,1.4L1407.3,570.9z"/>
	<path class="st4" d="M1347.3,864.3c-23.3-0.3-49.1-23-62.4-58c-16.1-42.5-7.5-86.5,18.9-98.8c4.8-2.1,9.6-3.1,14.8-3.1
		c23.7,0.3,49.1,23,62.4,58c16.1,42.5,7.5,86.5-18.9,98.8C1357.6,863.3,1352.4,864.3,1347.3,864.3z M1330.8,654.3
		c-6.2,0-12,1-17.8,2.7c-41.9,13.7-62.1,75.5-46,137.6c14.1,53.5,51.1,89.9,87.5,90.2c6.2,0,12-1,17.8-2.7
		c41.9-13.7,62.1-75.5,46-137.6C1404.3,691,1367.2,654.7,1330.8,654.3z"/>
	<path class="st6" d="M1430,741.1l-2.7,0.7c4.1,15.8,6.2,32.3,6.2,48.4c0,22.6-5.5,45.3-15.8,65.5c-9.9,17.8-24,30.9-41.2,36.7
		c-6.5,2.1-13,3.1-19.9,3.1c-19.6-0.3-39.5-10.3-56.6-27.4c-18.9-19.9-32.3-44.3-38.8-71c-4.1-15.8-6.2-32.3-6.2-48.4
		c0-22.6,5.1-45.3,15.8-65.5c9.9-17.8,24-31.2,41.2-36.7c6.5-2.1,13-3.1,19.9-3.1c19.9,0.3,39.8,10,57,27.1
		c18.9,19.9,32.3,44.3,38.8,71L1430,741.1l2.7-1c-6.9-27.4-20.6-52.8-40.5-73.4c-17.8-17.8-39.1-28.5-60.7-28.8
		c-7.2,0-14.4,1-21.6,3.4c-18.9,6.2-34,20.6-44.3,39.5c-11,20.9-16.5,44.3-16.5,67.9c0,16.8,2.1,33.6,6.2,50.1
		c6.9,27.4,20.6,52.8,40.1,73.4c17.8,17.8,39.1,28.5,60.7,28.8c7.2,0,14.8-1,21.6-3.4c18.9-6.2,34-20.6,44.3-39.5
		c11-20.9,16.5-44.3,16.5-67.9c0-16.8-2.1-33.6-6.2-50.1L1430,741.1z"/>
	<path class="st6" d="M1354.5,885.2c-36.7-0.3-73.4-37.1-87.5-90.2c-16.5-62.1,4.1-123.9,46-137.6c5.8-2.1,11.7-2.7,17.8-2.7
		c36.7,0.3,73.4,37.1,87.5,90.2c16.5,62.1-4.1,123.9-46,137.6C1366.9,884.2,1360.7,885.2,1354.5,885.2z M1331.5,643.7L1331.5,643.7
		c-6.9,0-13.4,1-19.9,3.1c-17.2,5.8-31.2,18.9-41.2,36.7c-10.6,20.2-15.8,42.5-15.8,65.5c0,16.5,2.1,32.6,6.2,48.4
		c6.5,26.4,19.9,50.8,38.8,70.7c17.2,17.2,37.1,27.1,57,27.1l0,0c6.9,0,13.4-1,19.9-3.1c17.2-5.8,31.2-18.9,41.2-36.7
		c10.6-20.2,15.8-42.5,15.8-65.5c0-16.5-2.1-32.6-6.2-48.4l2.7-0.7l-2.7,0.7c-6.5-26.8-19.9-51.1-38.8-71
		C1371.3,653.6,1351.4,643.7,1331.5,643.7L1331.5,643.7z"/>
	<path class="st6" d="M1331.5,640.6c-6.9,0-14.1,1-20.6,3.1c-47.3,15.8-71,84.7-52.5,154.1c15.8,59.4,57,99.8,98.5,100.2
		c6.9,0,14.1-1,20.6-3.1c47.3-15.8,71-84.7,52.5-154.1l-2.7,0.7c4.1,15.8,6.2,32.3,6.2,48.4c0,22.6-5.5,45.3-15.8,65.5
		c-9.9,17.8-24,30.9-41.2,36.7c-6.5,2.1-13,3.1-19.9,3.1l0,0c-19.6-0.3-39.5-10-56.6-27.1c-18.9-19.9-32.2-44.3-38.8-71
		c-4.1-15.8-6.2-32.3-6.2-48.4c0-22.6,5.1-45.3,15.8-65.5c9.9-17.8,24-31.2,41.2-36.7c6.5-2.1,13-3.1,19.9-3.1l0,0
		c19.9,0.3,39.8,10,57,27.1c18.9,19.9,32.3,44.3,38.8,71l2.7-0.7C1414.2,681.4,1373,641.3,1331.5,640.6z"/>
	<path class="st4" d="M1284.9,806.3c-16.1-42.5-7.5-86.5,18.9-98.8s61.1,12.4,77.2,54.9c16.1,42.5,7.5,86.5-18.9,98.8
		C1335.6,873.6,1301,848.9,1284.9,806.3z"/>
	<path class="st6" d="M1320.2,758.6c-3.4,0-6.9,0.7-9.9,2.1c-18.2,7.9-25,36.7-15.1,64.5c8.2,22.6,25,37.7,41.2,37.7
		c3.4,0,6.9-0.7,9.9-2.1c18.2-7.9,25-36.7,15.1-64.5C1353.1,774.1,1336.3,759,1320.2,758.6z"/>
	<path class="st4" d="M1085.2,882.2h-0.7c-29.2-1-49.4-38.1-44.9-83.4c4.5-45.3,31.2-80.3,60-80.3h0.7c29.2,1,49.4,38.1,44.9,83.4
		C1140.8,847.2,1114,882.5,1085.2,882.2z M1101.3,667.7c-41.2-0.3-82.7,43.9-95,103.6c-12.7,63.1,12,119.1,55.6,125.2
		c2.4,0.3,4.8,0.3,7.2,0.3c41.2,0.3,82.7-43.9,95-103.6c12.7-63.1-12-119.1-55.6-125.2C1106.1,668,1103.7,668,1101.3,667.7
		L1101.3,667.7z"/>
	<path class="st6" d="M1176.4,795.7l-2.7-0.7c-5.8,30.2-19.9,58.3-40.5,81.3c-18.9,20.2-41.5,31.9-64.2,31.6c-2.7,0-5.1-0.3-7.9-0.7
		c-19.9-2.7-36-14.8-47.3-32.9c-11.3-18.2-17.8-42.9-17.5-70c0-11.3,1.4-22.3,3.4-33.3c5.8-30.2,19.6-58.3,40.1-81.7
		c18.9-20.2,41.5-31.9,64.2-31.6c2.7,0,5.1,0.3,7.9,0.7c19.9,2.7,36,14.8,47.3,32.9s17.8,42.9,17.5,70c0,11.3-1.4,22.3-3.4,33.3
		L1176.4,795.7l2.7,0.3c2.4-11.3,3.4-22.6,3.8-34.3c0.3-28.1-6.2-53.9-18.5-73.1c-12.4-19.2-29.8-32.6-51.5-35.7
		c-2.7-0.3-5.8-0.7-8.6-0.7c-24.4-0.3-48.4,12.4-68.3,33.6c-21.3,23.7-35.7,52.8-41.5,84.1c-2.4,11.3-3.4,22.6-3.8,34.3
		c-0.3,28.1,6.2,53.9,18.5,73.1s29.8,32.6,51.5,35.7c2.7,0.3,5.8,0.7,8.6,0.7c24.4,0.3,48.4-12.4,68.3-33.6
		c21.3-23.7,35.7-52.8,41.5-84.1L1176.4,795.7z"/>
	<path class="st6" d="M1069.4,897.2c-2.4,0-4.8-0.3-7.2-0.3c-43.6-6.2-68.6-62.1-55.6-125.2c12-59.7,53.5-104.3,95-103.6
		c2.4,0,4.8,0.3,7.2,0.3c43.6,6.2,68.6,62.1,55.6,125.2C1152.1,853.3,1110.6,897.9,1069.4,897.2z M1104.4,658.1
		c-22.3-0.3-45.3,11.7-64.2,31.6c-20.6,23-34.7,51.1-40.5,81.3c-2.4,11-3.4,22-3.4,33.3c-0.3,27.4,6.2,51.8,17.5,70
		c11.3,18.2,27.8,30.2,47.3,32.9c2.7,0.3,5.1,0.7,7.9,0.7l0,0c22.3,0.3,44.9-11.7,63.8-31.6c20.6-23,34.7-51.1,40.5-81.3
		c2.4-11,3.4-22,3.4-33.3c0.3-27.4-6.2-51.8-17.5-70s-27.8-30.2-47.3-32.9C1109.5,658.4,1107.1,658.1,1104.4,658.1L1104.4,658.1z"/>
	<path class="st6" d="M1069.4,908.2L1069.4,908.2c-2.7,0-5.1-0.3-7.9-0.7c-19.9-2.7-36-14.8-47.3-32.9c-11.3-18.2-17.8-42.9-17.5-70
		c0-11.3,1.4-22.3,3.4-33.3c5.8-30.2,19.9-58.3,40.5-81.7c18.9-20.2,41.5-31.9,64.2-31.6l0,0c2.7,0,5.1,0.3,7.9,0.7
		c19.9,2.7,36,14.8,47.3,32.9c11.3,18.2,17.8,42.9,17.5,70c0,11.3-1.4,22.3-3.4,33.3c-5.8,30.2-19.9,58.3-40.5,81.3
		C1114.3,896.6,1091.7,908.6,1069.4,908.2z M1104.4,655.4c-47-0.7-93.7,49.1-107,115.3c-14.4,70.3,14.4,132.8,63.8,139.6
		c2.7,0.3,5.5,0.7,8.2,0.7c46.7,0.7,93.7-49.1,107-115.3c14.4-70.3-14.4-132.8-63.8-139.6C1109.9,655.7,1107.1,655.4,1104.4,655.4z"
		/>
	<path class="st4" d="M1039.6,798.8c4.5-44.9,31.6-81,60.7-80.3s49.4,38.1,44.9,83.4c-4.5,45.3-31.6,81-60.7,79.9
		S1035.1,844.1,1039.6,798.8z"/>
	<path class="st6" d="M1092.4,764.1c-19.6-0.3-37.7,22.3-41.2,51.1c-3.4,28.8,9.9,53.9,29.8,54.9h1c19.6,0.3,37.7-22.3,41.2-51.1
		c3.4-29.2-9.9-53.9-29.8-54.9H1092.4z"/>
	<rect x="1101.7" y="409.4" transform="matrix(0.4258 -0.9048 0.9048 0.4258 251.6276 1243.0183)" width="6.9" height="27.8"/>
	<path d="M1074.5,452.9c-6.9-3.8-13.7-7.5-20.2-11.3l3.4-5.8c6.9,3.8,13.4,7.5,20.2,11.3L1074.5,452.9z"/>
	<path d="M1062.2,460.8l-5.1-2.7l-15.1-8.2l3.4-6.2l15.1,8.2l5.1,3.1L1062.2,460.8z"/>
	<rect x="1036.7" y="446.7" transform="matrix(0.4851 -0.8745 0.8745 0.4851 132.8391 1146.7576)" width="6.9" height="27.8"/>
	<rect x="1027" y="460.5" transform="matrix(0.4851 -0.8745 0.8745 0.4851 119.8527 1143.0137)" width="6.9" height="18.5"/>
	<path d="M1102.3,440.2c-8.6-5.1-17.2-10-23.7-13.7l3.4-5.8c6.5,3.8,15.4,8.6,24,13.7L1102.3,440.2z"/>
	<path d="M1089,445.4l-16.8-9.3l-5.5-3.1l3.4-6.2l5.5,3.1c5.5,3.1,11,6.2,16.5,9.3L1089,445.4z"/>
	<path d="M1134.9,418.3c-6.5-3.8-13-7.5-19.9-11.3l3.4-6.2c6.5,3.8,13.4,7.5,19.9,11.3L1134.9,418.3z"/>
	<path d="M1125.3,425.5l-15.8-8.9l-6.2-3.4l3.4-5.8l6.2,3.4l15.8,8.9L1125.3,425.5z"/>
	<rect x="1221.6" y="386.4" transform="matrix(0.8245 -0.5659 0.5659 0.8245 -11.5233 763.4677)" width="6.9" height="27.8"/>
	<path d="M1188.8,418.6l-1-1.7c-5.1-8.9-10.3-17.5-15.4-26.4l5.8-3.4c5.1,8.9,10.3,17.5,15.4,26.4l1,1.7L1188.8,418.6z"/>
	<path d="M1174,419.3l-8.6-14.4l-7.9-13.4l5.8-3.4c2.7,4.5,5.1,8.9,7.9,13.4l8.6,14.4L1174,419.3z"/>
	<rect x="1147" y="389.4" transform="matrix(0.8604 -0.5096 0.5096 0.8604 -43.1825 642.1235)" width="6.9" height="20.9"/>
	<rect x="1129.8" y="390.4" transform="matrix(0.8605 -0.5095 0.5095 0.8605 -43.7664 632.7105)" width="6.9" height="11.7"/>
	<path d="M1216.2,417.9c-5.1-9.6-10.6-18.9-15.8-27.8l5.8-3.4c5.1,8.9,10.6,18.2,15.8,27.8L1216.2,417.9z"/>
	<path d="M1203.9,417.2c-4.1-7.5-8.6-14.8-13-22.3l-3.1-5.5l5.8-3.4l3.1,5.5c4.5,7.5,8.6,14.8,13,22.3L1203.9,417.2z"/>
	<path d="M1254.3,413.1c-3.4-6.2-7.5-13-12.4-21.6l5.8-3.4c5.1,8.6,8.9,15.4,12.7,22L1254.3,413.1z"/>
	<path d="M1241.6,412.8c-3.1-5.5-6.2-10.6-9.3-16.1l-3.4-5.8l5.8-3.4l3.4,5.8c3.1,5.1,6.2,10.6,9.6,16.1L1241.6,412.8z"/>
	<rect x="1346.7" y="418.2" transform="matrix(0.9726 -0.2323 0.2323 0.9726 -63.1684 325.4254)" width="6.9" height="25.4"/>
	<path d="M1307.5,422.4c-1-6.2-2.1-12.4-3.1-18.2l6.9-1c1,6.2,2.1,12.4,3.1,18.2L1307.5,422.4z"/>
	<path d="M1293.4,417.9v-0.3c-1-5.8-2.1-12-3.1-17.8l6.9-1c1,5.8,2.1,12,3.1,17.8v0.3L1293.4,417.9z"/>
	<rect x="1277" y="394.6" transform="matrix(0.986 -0.1668 0.1668 0.986 -49.6228 219.2694)" width="6.9" height="20.9"/>
	<path d="M1333.6,429.6c-0.7-5.1-1.7-10.6-2.4-15.8l6.9-1c0.7,5.1,1.7,10.6,2.4,15.8L1333.6,429.6z"/>
	<rect x="1320.2" y="407.9" transform="matrix(0.9862 -0.1656 0.1656 0.9862 -50.6141 224.9564)" width="6.9" height="16.1"/>
	<path d="M1373,454.6c-1.4-8.9-2.7-17.8-3.8-24.7l6.9-1c1,6.9,2.7,15.8,3.8,25L1373,454.6z"/>
	<path d="M1361.7,454.3c-1.4-7.5-2.4-15.4-3.8-23l-1-6.2l6.9-1l1,6.2c1.4,7.5,2.7,15.4,3.8,23L1361.7,454.3z"/>
</g>
</svg>
