<?xml version="1.0" encoding="utf-8"?>
<!-- Generator: Adobe Illustrator 22.0.1, SVG Export Plug-In . SVG Version: 6.00 Build 0)  -->
<svg version="1.1" id="Layer_1" xmlns="http://www.w3.org/2000/svg" xmlns:xlink="http://www.w3.org/1999/xlink" x="0px" y="0px"
	 viewBox="0 0 735 852" style="enable-background:new 0 0 735 852;" xml:space="preserve">
<style type="text/css">
	.st0{fill:#164F86;}
	.st1{fill:#14275B;}
	.st2{fill:#E6B35A;}
	.st3{fill:#FFFFFF;}
	.st4{fill:#BA3224;}
	.st5{fill:#B13728;}
	.st6{fill:#AA3729;}
	.st7{fill:#221819;}
	.st8{opacity:0.1;fill:#1A171B;enable-background:new    ;}
	.st9{opacity:0.94;}
</style>
<polygon class="st0" points="715.1,224.7 367.5,24 367.5,24 19.8,224.7 19.8,626.2 367.5,826.9 715.1,626.2 "/>
<title>readr</title>
<path class="st1" d="M734.9,638V213.7l-29.3-16.9L427.8,36.4L367.5,1.6l-60.3,34.8L29.4,196.8L0.1,213.7V638l29.3,16.9l281.3,162.4
	l56.9,32.8l56.9-32.8l281.3-162.4L734.9,638z M29.4,622.1V231.6L367.5,36.4l0,0l338.1,195.2v390.4L367.5,817.3L29.4,622.1z"/>
<path class="st2" d="M367,637.9l0.9-0.9h-0.2C367.5,637.3,367.2,637.6,367,637.9z"/>
<path class="st3" d="M298.1,262.2c0-27.6,0-55.2,0-82.8c-0.1-2.9,0.9-5.8,2.9-8c1.5-1.5,3.4-2.6,5.5-2.9c2-0.3,4-0.4,6.1-0.3h72.6
	c2,0,2,0,2,2c0,12.2,0.1,24.3-0.1,36.5c0.1,7.3,6,13.3,13.3,13.3h30.4c1.6,0,3.1,0,4.7,0c0.9,0,1.3,0.3,1.2,1.2c0,0.5,0,0.9,0,1.4
	c0,40.7,0,81.3,0,122c0.1,1.9-0.3,3.8-1,5.6c-1.7,3.9-4.8,5.7-8.9,6c-0.3,0-0.7,0-1,0H309c-2,0.1-3.9-0.4-5.7-1.3
	c-3.4-1.9-4.9-5-5.2-8.7c0-0.6,0-1.2,0-1.8V262.2z"/>
<path class="st3" d="M394.3,168.6c14,14.7,28.2,29.2,42,44.2c-0.2,0.7-0.8,0.4-1.2,0.4c-11.3,0-22.6,0-33.8,0c-1,0-2-0.1-3-0.4
	c-2.7-0.7-4.6-3.2-4.5-6.1c0-11.6,0-23.1,0-34.6c0-0.8,0-1.6,0-2.4C393.7,169.2,393.9,168.8,394.3,168.6z"/>
<path class="st1" d="M367.6,291.8h45.7c0.7,0,1.4,0,2,0c1.3-0.1,2.4,0.8,2.7,2c0.6,2.2,0.7,4.5,0.1,6.6c-0.3,1.5-1.6,2.5-3.1,2.4
	c-0.5,0-1.1,0-1.6,0c-30.7,0-61.3,0-92,0c-4,0-5-1.5-5-4.9c0-0.8,0-1.6,0-2.5c0.2-2.7,1.3-3.7,4-3.7L367.6,291.8L367.6,291.8z"/>
<path class="st1" d="M415.3,317.5c1.8,0.2,2.6,0.9,2.9,2.5c0.5,2,0.5,4,0,6c-0.3,1.5-1.6,2.5-3.1,2.5c-0.3,0-0.7,0-1,0h-93.2
	c-0.5,0-1,0-1.4,0c-1.4-0.1-2.6-1.1-2.8-2.5c-0.3-1.9-0.3-3.9,0-5.9c0.3-1.7,1.2-2.4,3.1-2.5c0.6,0.2,1.3,0.3,2,0.2h91.5
	C413.9,317.8,414.6,317.8,415.3,317.5z"/>
<path class="st1" d="M319.4,277.1c-1.4,0-2.6-1.1-2.7-2.5c-0.4-1.9-0.4-3.8,0-5.7c0.2-1.6,1.6-2.8,3.3-2.8c0.5,0,1.1,0,1.6,0h92.9
	c2.4,0,3.6,0.9,3.9,3.3c0.3,1.8,0.2,3.7-0.2,5.4c-0.5,1.6-1.1,2.1-2.9,2.3c-0.6-0.2-1.3-0.3-2-0.2h-91.9
	C320.7,276.8,320,276.9,319.4,277.1z"/>
<path class="st1" d="M349.2,251.6h-26.9c-0.5,0-1,0-1.4,0c-3.3,0-4.3-1.1-4.4-4.5c0-1.2,0-2.3,0.1-3.5c0.3-2.1,1.4-3.1,3.5-3.2
	c0.4,0,0.8,0,1.2,0h55.5c0.4,0,0.8,0,1.2,0c2.3,0.1,3.4,1.2,3.4,3.4c0,1.5,0,3,0,4.5c0,1.7-1.3,3.1-3,3.2c0,0,0,0,0,0
	c-0.6,0.1-1.2,0-1.8,0C367.4,251.6,358.3,251.7,349.2,251.6z"/>
<path class="st1" d="M379,215.1c1.4,0.2,2.5,1.4,2.4,2.8c0.1,1.7,0.1,3.4,0,5.1c0,1.6-1.3,2.9-2.8,3c-0.6,0-1.2,0-1.8,0h-55.4
	c-3.8,0-4.8-1-4.8-4.8c-0.1-1.3,0-2.6,0.2-3.9c0.3-1.2,0.9-2.1,2.3-2.2c0.6,0.2,1.2,0.3,1.8,0.2h56.4
	C377.8,215.4,378.4,215.3,379,215.1z"/>
<path class="st4" d="M319.4,277.1c0.6-0.6,1.3-0.4,1.9-0.4c30.7,0,61.3,0,92,0c0.6,0,1.4-0.2,1.9,0.4c-0.7,0-1.4,0.1-2,0.1h-91.8
	C320.7,277.2,320.1,277.1,319.4,277.1z"/>
<path class="st5" d="M415.3,317.5c-0.5,0.6-1.3,0.4-1.9,0.4h-91.7c-0.6,0-1.4,0.2-1.9-0.4c0.7,0,1.5-0.1,2.2-0.1h91
	C413.8,317.4,414.5,317.5,415.3,317.5z"/>
<path class="st6" d="M379,215.1c-0.5,0.6-1.3,0.4-1.9,0.4h-56.2c-0.7,0-1.4,0.2-1.9-0.4c0.7-0.2,1.5-0.3,2.2-0.2h55.6
	C377.5,214.9,378.3,214.9,379,215.1z"/>
<path class="st3" d="M268.2,625.1c1.7,0,3.5,0,5.2,0h38.9c0.7,0,1.4,0,2.2,0c0.9,0.2,0.8,0.9,0.8,1.6c0,8.2,0,16.5,0,24.7
	c0,1.4-0.6,2-2,2h-42.7c-2.9,0-3.1-0.2-3.1-3c0-7.6,0-15.2,0-22.7C267.5,626.7,267.3,625.7,268.2,625.1z"/>
<path class="st3" d="M392.6,684.7h-22.4c-0.7,0-1.1-0.3-1.1-1.1c0-0.1,0-0.2,0-0.4c0-8.3,0-16.6,0-24.9c0-1.4,0.1-1.4,1.4-1.5H414
	c2,0,2,0,2,2v24c0,1.8,0,1.8-1.8,1.8L392.6,684.7z"/>
<path class="st3" d="M392.4,652.9h-22.4c-0.7,0-1-0.4-0.9-1c0-0.3,0-0.6,0-0.9v-23.8c0-0.2,0-0.5,0-0.7c-0.1-0.9,0.3-1.4,1.2-1.3
	c0.3,0,0.6,0,0.9,0h42.5c0.4,0,0.8,0,1.3,0c0.5,0,0.9,0.3,1,0.8c0,0.1,0,0.1,0,0.2c0,0.3,0,0.6,0,0.9c0,7.9,0,15.7,0,23.6
	c0,2,0.5,2.2-2.1,2.2C406.7,652.9,399.6,652.9,392.4,652.9z"/>
<path class="st3" d="M268.5,593.3c0.5,0,1,0.1,1.4,0.1h42.8c0.5,0,1-0.1,1.4-0.1c0.9,0.1,1.2,0.6,1.2,1.5c0,8.4,0,16.7,0,25.1
	c0.1,0.8-0.4,1.6-1.3,1.7c-0.1,0-0.3,0-0.4,0h-1.6H271c-0.6,0-1.2,0-1.8,0c-0.8,0-1.6-0.6-1.6-1.5c0,0,0-0.1,0-0.1
	c0-0.4,0-0.7,0-1.1c0-7.7,0-15.4,0-23.1C267.5,594.9,267.3,593.8,268.5,593.3z"/>
<path class="st3" d="M370.3,593.3c0.5,0,1,0.1,1.4,0.1h42.4c0.5,0,1-0.1,1.4-0.1c0.9,0.1,1.2,0.6,1.2,1.5c0,8.4,0,16.7,0,25.1
	c0,1.3-0.7,1.4-1.7,1.4c-6.7,0-13.3,0-20,0c-8,0-16,0-24,0c-1.5,0-2-0.5-2-1.9c0-8,0-16,0-24C369.1,594.5,369,593.5,370.3,593.3z"/>
<path class="st3" d="M443.7,656.9h21.1c0.4,0,0.9,0,1.3,0c0.4,0,0.8,0.3,0.8,0.7c0,0,0,0.1,0,0.1c0,0.2,0,0.5,0,0.7c0,8,0,16,0,24
	c0,2.2,0,2.2-2.2,2.2H422c-2,0-2,0-2-2v-24.8c0-0.5,0.3-0.9,0.8-0.9c0,0,0.1,0,0.1,0c0.5,0,1,0,1.4,0L443.7,656.9z"/>
<path class="st3" d="M420.9,625.1c0.4,0,0.8,0.1,1.3,0.1h43.4c0.4,0,0.8,0,1.3,0c0.6,0.2,0.6,0.6,0.6,1.1c-0.2,8.3,0,16.6-0.1,24.9
	c0,2-0.1,2.2-2.2,2.3c-6,0-12,0-18,0c-8.1,0-16.1,0-24.2,0c-2.7,0-2.8-0.1-2.8-2.8c0-7.8,0-15.5,0-23.3
	C420.1,626.4,419.7,625.5,420.9,625.1z"/>
<path class="st3" d="M421.2,593.3c0.5,0,1,0.1,1.4,0.1h42.4c0.5,0,1-0.1,1.4-0.1c0.8,0.2,0.8,0.9,0.8,1.6c0,8.3,0,16.6,0,24.9
	c0,1.3-0.5,1.8-1.7,1.8H464h-40.7c-0.5,0-1.1,0-1.6,0c-1.1,0-1.6-0.5-1.6-1.7v-25.1C420,593.9,420.4,593.4,421.2,593.3z"/>
<path class="st3" d="M319.4,593.3c0.5,0,1,0.1,1.4,0.1h42.5c0.5,0,1-0.1,1.4-0.1c1.3,0.2,1.3,1.2,1.3,2.2c0,3.7,0,7.3,0,11
	c0,4.2,0,8.4,0,12.6c0,2-0.1,2.2-2.1,2.2c-14.5,0-29,0-43.4,0c-1.4,0-1.9-0.4-1.9-1.8c0-8.1,0-16.2,0-24.3
	C318.6,594.4,318.5,593.6,319.4,593.3z"/>
<path class="st1" d="M268.1,561.5c0.1,0,0.2,0,0.3,0c14.2,0,28.5,0,42.7,0c3.7,0,3.7,0,3.7,3.6v22.2c0,2.2,0,2.2-2.1,2.2h-42.4
	c-0.7-0.1-1.3-0.1-2,0.2h-0.3c-0.7-0.3-0.5-1-0.5-1.6v-25C267.5,562.5,267.4,561.8,268.1,561.5z"/>
<path class="st1" d="M392.5,589.3h-22.4c-0.6,0-1-0.3-1-1c0-0.4,0-0.7,0-1.1v-23.4c0-0.4,0-0.7,0-1.1c0-0.6,0.3-0.9,0.9-0.9h1.3
	h42.6c2.2,0,2.2,0,2.2,2.1v23.3c0,0.4,0,0.8,0,1.3c0,0.4-0.3,0.8-0.7,0.8c0,0-0.1,0-0.1,0c-0.5,0-1,0-1.4,0L392.5,589.3z"/>
<path class="st1" d="M341.7,561.8h21.1c0.4,0,0.8,0,1.3,0c0.7,0,1.1,0.3,1.1,1.1c0,0.3,0,0.6,0,0.9v23.5c0,0.4,0,0.7,0,1.1
	c0,0.7-0.4,1-1,1H320c-1.3,0-1.3-0.1-1.4-1.3c0-1.5,0-3,0-4.5v-19.3c0-0.5,0-1,0-1.4s0.3-0.9,0.9-0.9L341.7,561.8L341.7,561.8z"/>
<path class="st1" d="M466.8,562.1c-0.2,1.1-0.3,2.1-0.2,3.2c0,7.7-0.1,15.4,0.1,23.1c0,0.5-0.2,0.8-0.7,0.8c-0.5,0-1,0-1.4,0h-42.4
	c-2.3,0-2.2,0.1-2.2-2.1v-23.2c0-0.4,0-0.8,0-1.3c0-0.4,0.3-0.8,0.7-0.8c0,0,0.1,0,0.1,0h1.1h43.3
	C465.8,561.8,466.3,561.9,466.8,562.1z"/>
<path class="st3" d="M341.8,684.7h-21.8c-1.3,0-1.3,0-1.3-1.3c0-3.1,0-6.3,0-9.4c0-5.2,0-10.3,0-15.5c0-1.5,0-1.5,1.5-1.5h43.5
	c1.7,0,1.7,0,1.7,1.7c0,8.1,0,16.2,0,24.4c0,1.7,0,1.7-1.7,1.7H341.8z"/>
<path class="st3" d="M341.9,652.9h-22.4c-0.6,0-1-0.2-1-0.9c0-0.3,0-0.6,0-0.9v-24c0-0.3,0-0.6,0-0.9c0-0.7,0.3-1,0.9-1h44.2
	c1.5,0,1.6,0.1,1.6,1.5c0,8.2,0,16.5,0,24.7c0,1.5,0,1.5-1.7,1.5L341.9,652.9z"/>
<path class="st3" d="M267.6,656.9H312c2.8,0,2.4,0,2.4,2.5c0,7.7,0,15.4,0,23.1c0,0.4,0,0.8,0,1.3c0,0.7-0.3,1-1,1h-44.2
	c-1.7,0-1.7,0-1.7-1.7c0-2.6,0-5.2,0-7.8c0-5.5,0-10.9,0-16.4C267.5,658.2,267.6,657.6,267.6,656.9L267.6,656.9z"/>
<path class="st7" d="M397,503.4c-1.3,1.1-2.1,2.8-2.1,4.5v44.9h-54.8v-44.9c0-1.7-0.8-3.4-2.1-4.5L211.6,326h311.9L397,503.4z"/>
<path class="st1" d="M337.9,503.4c1.3,1.1,2.1,2.8,2.1,4.5v44.9h54.9v-44.9c0-1.7,0.8-3.4,2.1-4.5L523.4,326H211.6L337.9,503.4z"/>
<path class="st8" d="M499.6,326L373.2,503.4c-1.3,1.1-2.1,2.8-2.1,4.5v7.2l-31.1,16v21.8h54.9v-45c0-1.7,0.8-3.4,2.1-4.5L523.4,326
	H499.6z"/>
<g class="st9">
	<path class="st3" d="M208.8,419.4c0-10.1-0.2-18.9-0.7-26.9H221l0.5,16.9h0.7c3.7-11.5,12.6-18.8,22.5-18.8c1.4,0,2.8,0.2,4.2,0.5
		v14.8c-1.6-0.4-3.3-0.6-5-0.5c-10.4,0-17.8,8.4-19.8,20.1c-0.4,2.4-0.6,4.8-0.7,7.3v45.9h-14.6V419.4z"/>
	<path class="st3" d="M266.8,438.4c0.3,21.1,13.1,29.9,27.8,29.9c10.6,0,16.9-2,22.5-4.4l2.5,11.2c-5.2,2.5-14.1,5.3-27,5.3
		c-25,0-39.9-17.4-39.9-43.4s14.4-46.4,38.1-46.4c26.5,0,33.5,24.7,33.5,40.5c0,2.4-0.2,4.9-0.5,7.3H266.8z M310.1,427.2
		c0.2-10-3.9-25.4-20.5-25.4c-14.9,0-21.5,14.6-22.6,25.4H310.1z"/>
	<path class="st3" d="M382.2,478.6l-1.2-10.8h-0.5c-5.6,8.1-14.9,12.9-24.8,12.8c-16.4,0-24.8-12.3-24.8-24.7
		c0-20.8,17.4-32.2,48.8-32v-1.8c0-7.1-1.8-19.9-18.5-19.9c-7.5,0-14.9,2.3-21.1,6.4l-3.4-10.3c6.7-4.6,16.4-7.6,26.7-7.6
		c24.8,0,30.9,18,30.9,35.2V458c-0.1,6.9,0.3,13.8,1.3,20.6L382.2,478.6z M380,434.7c-16.1-0.4-34.4,2.7-34.4,19.4
		c0,10.1,6.4,14.9,13.9,14.9c9,0.1,17-5.8,19.6-14.4c0.5-1.6,0.8-3.3,0.8-5V434.7z"/>
	<path class="st3" d="M482.8,352.4v104c0,7.6,0.2,16.4,0.7,22.2h-13.3l-0.7-14.9h-0.3c-4.5,9.6-14.4,16.9-27.7,16.9
		c-19.6,0-34.7-17.6-34.7-43.7c-0.2-28.6,16.6-46.2,36.4-46.2c12.4,0,20.8,6.2,24.5,13.1h0.3v-51.4H482.8z M468,427.6
		c0-2.2-0.2-4.4-0.7-6.6c-2.2-10-10.2-18.1-21.3-18.1c-15.3,0-24.3,14.2-24.3,33.2c0,17.4,8,31.8,24,31.8c9.9,0,19-6.9,21.6-18.7
		c0.5-2.2,0.7-4.5,0.7-6.8L468,427.6z"/>
	<path class="st3" d="M501.9,419.4c0-10.1-0.2-18.9-0.7-26.9h12.9l0.5,16.9h0.7c3.7-11.5,12.6-18.8,22.5-18.8c1.4,0,2.8,0.2,4.2,0.5
		v14.8c-1.6-0.4-3.3-0.6-5-0.5c-10.4,0-17.8,8.4-19.8,20.1c-0.4,2.4-0.6,4.8-0.7,7.3v45.9h-14.6V419.4z"/>
</g>
<path class="st3" d="M365.5,797.9l4.5,4.5c1,1,1.9,1.9,2.7,2.9h0.1c-0.4-1.2-0.7-2.5-1-3.8l-1.4-6.3l1.6-0.9l4.7,4.3
	c1.1,1,2.1,2,2.9,2.9h0.1c-0.5-1.3-0.9-2.5-1.2-3.8l-1.6-6.1l1.9-1.1l2.7,12.4l-1.7,1l-4.5-4.1c-1-1-2-1.8-2.9-2.9h0
	c0.4,1.3,0.8,2.6,1.1,4l1.2,6l-1.7,1l-9.2-8.7L365.5,797.9z"/>
<path class="st3" d="M381.7,788.5l4.5,4.5c1,1,1.9,1.9,2.7,2.9h0.1c-0.4-1.2-0.7-2.5-1-3.8l-1.4-6.3l1.6-0.9l4.7,4.3
	c1.1,1,2.1,2,2.9,2.9h0.1c-0.5-1.3-0.9-2.5-1.2-3.8l-1.6-6.2l1.9-1.1l2.7,12.4l-1.7,1l-4.5-4.1c-1-1-2-1.8-2.9-2.9l0,0
	c0.4,1.3,0.8,2.6,1.1,4l1.2,6l-1.7,1l-9.2-8.6L381.7,788.5z"/>
<path class="st3" d="M397.8,779.1l4.5,4.5c1,1,1.9,1.9,2.7,2.9h0.1c-0.4-1.2-0.7-2.5-1-3.8l-1.4-6.3l1.6-0.9l4.7,4.3
	c1.1,1,2.1,2,2.9,2.9h0.1c-0.5-1.3-0.9-2.5-1.2-3.8l-1.6-6.1l1.9-1.1l2.7,12.4l-1.7,1l-4.5-4.1c-1-1-2-1.8-2.9-2.9l0,0
	c0.4,1.3,0.8,2.6,1.1,4l1.2,6l-1.7,1l-9.2-8.6L397.8,779.1z"/>
<path class="st3" d="M417.1,780.3c-0.4-0.7-0.1-1.6,0.6-2c0.7-0.4,1.6-0.1,2,0.6c0.4,0.7,0.1,1.6-0.6,2
	C418.5,781.4,417.6,781.1,417.1,780.3C417.1,780.4,417.1,780.4,417.1,780.3z"/>
<path class="st3" d="M418.5,771.4c-0.7-1.2-1.4-2.3-2-3.2l1.7-1l1.3,2l0.1,0c-0.4-1.5,0.2-3.1,1.6-4c0.2-0.1,0.4-0.2,0.6-0.2l1,1.8
	c-0.2,0.1-0.5,0.2-0.7,0.3c-1.3,0.8-1.8,2.5-1.1,3.9c0.1,0.3,0.3,0.6,0.4,0.9l3.2,5.6l-1.9,1.1L418.5,771.4z"/>
<path class="st3" d="M428.4,772.7c1,0,2-0.2,3-0.7c1.4-0.8,1.6-1.9,1.1-2.7s-1.4-1.1-3.1-0.8c-2.3,0.4-3.8-0.1-4.5-1.3
	c-1-1.7-0.4-3.9,1.8-5.2c0.9-0.5,1.9-0.8,3-0.8l0.3,1.7c-0.9,0-1.7,0.2-2.5,0.6c-0.9,0.4-1.3,1.4-1,2.3c0,0,0,0.1,0.1,0.1
	c0.5,0.9,1.4,0.9,3,0.6c2.2-0.4,3.7,0,4.6,1.6c1.1,1.8,0.4,4-2.1,5.4c-1,0.6-2.2,1-3.4,1L428.4,772.7z"/>
<path class="st3" d="M432.8,754.7l1.8,3l2.7-1.6l0.8,1.5l-2.7,1.6l3.3,5.6c0.8,1.3,1.5,1.8,2.6,1.2c0.4-0.2,0.7-0.5,1-0.8l0.9,1.4
	c-0.4,0.5-0.9,0.9-1.5,1.2c-0.7,0.5-1.7,0.6-2.5,0.4c-1-0.4-1.9-1.3-2.3-2.3l-3.3-5.7l-1.6,0.9l-0.9-1.5l1.6-0.9l-1.5-2.5
	L432.8,754.7z"/>
<path class="st3" d="M452.5,757.4c0.6,1.1,1.2,2,1.7,2.8l-1.7,1l-1.1-1.7h0c0,1.7-0.9,3.2-2.3,4c-1.6,1-4.1,1.2-6.3-2.5l-3.6-6.1
	l1.9-1.1l3.4,5.8c1.1,2,2.5,3,4.3,2c1.5-0.8,2-2.7,1.1-4.2c0,0,0,0,0-0.1l-3.7-6.4l1.9-1.1L452.5,757.4z"/>
<path class="st3" d="M457.5,737.8l7.4,12.6c0.5,0.9,1.2,2,1.7,2.7l-1.7,1l-1.1-1.8h0c0.1,1.7-0.9,3.3-2.4,4.1
	c-2.5,1.5-5.7,0.5-7.6-2.7c-2-3.5-1.1-6.9,1.4-8.3c1.2-0.8,2.8-0.9,4.1-0.2l0,0l-3.6-6.2L457.5,737.8z M460.9,748
	c-0.2-0.3-0.3-0.5-0.5-0.8c-1-1.1-2.7-1.4-4-0.6c-2,1.2-2.1,3.6-0.8,5.9c1.2,2.1,3.3,3.3,5.3,2.1c1.3-0.8,2-2.4,1.5-3.9
	c-0.1-0.3-0.2-0.6-0.4-0.9L460.9,748z"/>
<path class="st3" d="M463.9,736.7c0.4,0.7,0.2,1.5-0.5,1.9s-1.5,0.2-1.9-0.5c-0.4-0.6-0.2-1.5,0.4-1.8c0,0,0,0,0.1,0
	C462.6,735.8,463.4,736,463.9,736.7C463.8,736.6,463.9,736.6,463.9,736.7z M469.5,751.3l-6.1-10.5l1.9-1.1l6.1,10.5L469.5,751.3z"/>
<path class="st3" d="M481,737.5c2.2,3.9,0.5,7.1-2,8.6c-2.8,1.7-6.2,0.8-8.1-2.5c-2-3.5-0.9-6.9,2-8.6S479.1,734.3,481,737.5z
	 M472.8,742.5c1.3,2.3,3.6,3.2,5.5,2.2s2.2-3.5,0.8-5.9c-1-1.8-3.2-3.5-5.5-2.2S471.6,740.5,472.8,742.5L472.8,742.5z"/>
<path class="st3" d="M484.8,740.9c-0.4-0.7-0.1-1.6,0.6-2c0.7-0.4,1.6-0.1,2,0.6c0.4,0.7,0.1,1.6-0.6,2
	C486.2,741.9,485.3,741.7,484.8,740.9C484.9,740.9,484.9,740.9,484.8,740.9z"/>
<path class="st3" d="M497.6,734.4c-0.7,1-1.6,1.8-2.6,2.4c-3.1,1.8-6.5,0.9-8.3-2.3c-1.8-2.9-1-6.7,1.8-8.5c0.2-0.1,0.4-0.2,0.6-0.3
	c0.9-0.5,1.9-0.9,3-1l0.4,1.7c-0.9,0-1.7,0.3-2.5,0.8c-2.4,1.4-2.7,3.9-1.4,6.1c1.4,2.4,3.8,3,5.9,1.8c0.8-0.5,1.5-1.1,2-1.9
	L497.6,734.4z"/>
<path class="st3" d="M506.3,722.8c2.2,3.9,0.6,7.1-2,8.6c-2.8,1.7-6.2,0.8-8.1-2.5c-2-3.5-1-6.9,2-8.6S504.5,719.6,506.3,722.8z
	 M498.1,727.7c1.3,2.3,3.7,3.2,5.5,2.2s2.2-3.6,0.8-5.9c-1-1.8-3.2-3.5-5.5-2.2S496.9,725.7,498.1,727.7L498.1,727.7z"/>
<path class="st3" d="M507.4,719.1c-0.6-1.1-1.2-2-1.7-2.8l1.7-1l1.1,1.6h0.1c-0.1-1.6,0.8-3.1,2.2-3.8c1.3-0.8,3-0.6,4.2,0.4l0,0
	c0-0.7,0.1-1.4,0.4-2c0.4-0.9,1-1.6,1.9-2.1c1.4-0.8,4-1.1,6.1,2.5l3.6,6.2l-1.9,1.1l-3.4-5.9c-1.2-2-2.6-2.8-4.1-1.9
	c-1,0.6-1.5,1.8-1.2,3c0.1,0.4,0.2,0.7,0.4,1l3.8,6.5l-1.9,1.1l-3.7-6.3c-1-1.7-2.4-2.4-3.9-1.6c-1.1,0.7-1.6,2-1.2,3.3
	c0.1,0.4,0.2,0.7,0.4,1l3.7,6.3l-1.9,1.1L507.4,719.1z"/>
</svg>
