<?xml version="1.0" encoding="utf-8"?>
<!-- Generator: Adobe Illustrator 26.5.0, SVG Export Plug-In . SVG Version: 6.00 Build 0)  -->
<svg version="1.1" id="Layer_1" xmlns="http://www.w3.org/2000/svg" xmlns:xlink="http://www.w3.org/1999/xlink" x="0px" y="0px"
	 viewBox="0 0 2521 2911" style="enable-background:new 0 0 2521 2911;" xml:space="preserve">
<style type="text/css">
	.st0{fill:#164F86;}
	.st1{fill:#14275B;}
	.st2{fill:#E6B35A;}
	.st3{fill:#FFFFFF;}
	.st4{fill:#BA3224;}
	.st5{fill:#B13728;}
	.st6{fill:#AA3729;}
	.st7{fill:#221819;}
	.st8{opacity:0.1;fill:#1A171B;enable-background:new    ;}
	.st9{opacity:0.94;}
</style>
<g>
	<polygon class="st0" points="2453.1,765.4 1260.5,76.8 1260.5,76.8 67.6,765.4 67.6,2142.9 1260.5,2831.4 2453.1,2142.9 	"/>
	<path class="st1" d="M2521,2183.3V727.7l-100.5-58l-953.1-550.3L1260.5,0l-206.9,119.4L100.5,669.7L0,727.7v1455.7l100.5,58
		l965.1,557.2l195.2,112.5l195.2-112.5l965.1-557.2L2521,2183.3z M100.5,2128.8V789.1l1160-669.7l0,0l1160,669.7v1339.4l-1160,670
		L100.5,2128.8z"/>
	<path class="st2" d="M1258.8,2183l3.1-3.1h-0.7C1260.5,2180.9,1259.5,2182,1258.8,2183z"/>
	<path class="st3" d="M1022.4,894.1c0-94.7,0-189.4,0-284.1c-0.3-9.9,3.1-19.9,9.9-27.4c5.1-5.1,11.7-8.9,18.9-9.9
		c6.9-1,13.7-1.4,20.9-1h249.1c6.9,0,6.9,0,6.9,6.9c0,41.9,0.3,83.4-0.3,125.2c0.3,25,20.6,45.6,45.6,45.6h104.3
		c5.5,0,10.6,0,16.1,0c3.1,0,4.5,1,4.1,4.1c0,1.7,0,3.1,0,4.8c0,139.6,0,278.9,0,418.6c0.3,6.5-1,13-3.4,19.2
		c-5.8,13.4-16.5,19.6-30.5,20.6c-1,0-2.4,0-3.4,0h-400.7c-6.9,0.3-13.4-1.4-19.6-4.5c-11.7-6.5-16.8-17.2-17.8-29.8
		c0-2.1,0-4.1,0-6.2L1022.4,894.1L1022.4,894.1z"/>
	<path class="st3" d="M1352.4,572.9c48,50.4,96.8,100.2,144.1,151.6c-0.7,2.4-2.7,1.4-4.1,1.4c-38.8,0-77.5,0-116,0
		c-3.4,0-6.9-0.3-10.3-1.4c-9.3-2.4-15.8-11-15.4-20.9c0-39.8,0-79.3,0-118.7c0-2.7,0-5.5,0-8.2
		C1350.4,575,1351.1,573.6,1352.4,572.9z"/>
	<path class="st1" d="M1260.8,995.6h156.8c2.4,0,4.8,0,6.9,0c4.5-0.3,8.2,2.7,9.3,6.9c2.1,7.5,2.4,15.4,0.3,22.6
		c-1,5.1-5.5,8.6-10.6,8.2c-1.7,0-3.8,0-5.5,0c-105.3,0-210.3,0-315.6,0c-13.7,0-17.2-5.1-17.2-16.8c0-2.7,0-5.5,0-8.6
		c0.7-9.3,4.5-12.7,13.7-12.7L1260.8,995.6L1260.8,995.6z"/>
	<path class="st1" d="M1424.5,1083.8c6.2,0.7,8.9,3.1,9.9,8.6c1.7,6.9,1.7,13.7,0,20.6c-1,5.1-5.5,8.6-10.6,8.6c-1,0-2.4,0-3.4,0
		h-319.8c-1.7,0-3.4,0-4.8,0c-4.8-0.3-8.9-3.8-9.6-8.6c-1-6.5-1-13.4,0-20.2c1-5.8,4.1-8.2,10.6-8.6c2.1,0.7,4.5,1,6.9,0.7h313.9
		C1419.7,1084.8,1422.1,1084.8,1424.5,1083.8z"/>
	<path class="st1" d="M1095.5,945.2c-4.8,0-8.9-3.8-9.3-8.6c-1.4-6.5-1.4-13,0-19.6c0.7-5.5,5.5-9.6,11.3-9.6c1.7,0,3.8,0,5.5,0
		h318.7c8.2,0,12.4,3.1,13.4,11.3c1,6.2,0.7,12.7-0.7,18.5c-1.7,5.5-3.8,7.2-9.9,7.9c-2.1-0.7-4.5-1-6.9-0.7h-315.3
		C1099.9,944.1,1097.5,944.5,1095.5,945.2z"/>
	<path class="st1" d="M1197.7,857.7h-92.3c-1.7,0-3.4,0-4.8,0c-11.3,0-14.8-3.8-15.1-15.4c0-4.1,0-7.9,0.3-12c1-7.2,4.8-10.6,12-11
		c1.4,0,2.7,0,4.1,0h190.4c1.4,0,2.7,0,4.1,0c7.9,0.3,11.7,4.1,11.7,11.7c0,5.1,0,10.3,0,15.4c0,5.8-4.5,10.6-10.3,11l0,0
		c-2.1,0.3-4.1,0-6.2,0C1260.2,857.7,1228.9,858,1197.7,857.7z"/>
	<path class="st1" d="M1300,732.5c4.8,0.7,8.6,4.8,8.2,9.6c0.3,5.8,0.3,11.7,0,17.5c0,5.5-4.5,9.9-9.6,10.3c-2.1,0-4.1,0-6.2,0
		h-190.1c-13,0-16.5-3.4-16.5-16.5c-0.3-4.5,0-8.9,0.7-13.4c1-4.1,3.1-7.2,7.9-7.5c2.1,0.7,4.1,1,6.2,0.7h193.5
		C1295.8,733.5,1297.9,733.2,1300,732.5z"/>
	<path class="st4" d="M1095.5,945.2c2.1-2.1,4.5-1.4,6.5-1.4c105.3,0,210.3,0,315.6,0c2.1,0,4.8-0.7,6.5,1.4c-2.4,0-4.8,0.3-6.9,0.3
		h-315C1099.9,945.5,1097.9,945.2,1095.5,945.2z"/>
	<path class="st5" d="M1424.5,1083.8c-1.7,2.1-4.5,1.4-6.5,1.4h-314.6c-2.1,0-4.8,0.7-6.5-1.4c2.4,0,5.1-0.3,7.5-0.3h312.2
		C1419.3,1083.4,1421.8,1083.8,1424.5,1083.8z"/>
	<path class="st6" d="M1300,732.5c-1.7,2.1-4.5,1.4-6.5,1.4h-192.8c-2.4,0-4.8,0.7-6.5-1.4c2.4-0.7,5.1-1,7.5-0.7h190.8
		C1294.8,731.8,1297.6,731.8,1300,732.5z"/>
	<path class="st3" d="M919.8,2139.1c5.8,0,12,0,17.8,0h133.5c2.4,0,4.8,0,7.5,0c3.1,0.7,2.7,3.1,2.7,5.5c0,28.1,0,56.6,0,84.7
		c0,4.8-2.1,6.9-6.9,6.9H928c-9.9,0-10.6-0.7-10.6-10.3c0-26.1,0-52.1,0-77.9C917.4,2144.6,916.7,2141.1,919.8,2139.1z"/>
	<path class="st3" d="M1346.6,2343.6h-76.9c-2.4,0-3.8-1-3.8-3.8c0-0.3,0-0.7,0-1.4c0-28.5,0-57,0-85.4c0-4.8,0.3-4.8,4.8-5.1H1420
		c6.9,0,6.9,0,6.9,6.9v82.3c0,6.2,0,6.2-6.2,6.2L1346.6,2343.6z"/>
	<path class="st3" d="M1345.9,2234.5h-76.9c-2.4,0-3.4-1.4-3.1-3.4c0-1,0-2.1,0-3.1v-81.7c0-0.7,0-1.7,0-2.4c-0.3-3.1,1-4.8,4.1-4.5
		c1,0,2.1,0,3.1,0H1419c1.4,0,2.7,0,4.5,0s3.1,1,3.4,2.7c0,0.3,0,0.3,0,0.7c0,1,0,2.1,0,3.1c0,27.1,0,53.9,0,81
		c0,6.9,1.7,7.5-7.2,7.5C1395,2234.5,1370.6,2234.5,1345.9,2234.5z"/>
	<path class="st3" d="M920.8,2030c1.7,0,3.4,0.3,4.8,0.3h146.8c1.7,0,3.4-0.3,4.8-0.3c3.1,0.3,4.1,2.1,4.1,5.1c0,28.8,0,57.3,0,86.1
		c0.3,2.7-1.4,5.5-4.5,5.8c-0.3,0-1,0-1.4,0h-5.5H929.4c-2.1,0-4.1,0-6.2,0c-2.7,0-5.5-2.1-5.5-5.1v-0.3c0-1.4,0-2.4,0-3.8
		c0-26.4,0-52.8,0-79.3C917.4,2035.5,916.7,2031.7,920.8,2030z"/>
	<path class="st3" d="M1270.1,2030c1.7,0,3.4,0.3,4.8,0.3h145.5c1.7,0,3.4-0.3,4.8-0.3c3.1,0.3,4.1,2.1,4.1,5.1
		c0,28.8,0,57.3,0,86.1c0,4.5-2.4,4.8-5.8,4.8c-23,0-45.6,0-68.6,0c-27.4,0-54.9,0-82.3,0c-5.1,0-6.9-1.7-6.9-6.5
		c0-27.4,0-54.9,0-82.3C1266,2034.1,1265.6,2030.7,1270.1,2030z"/>
	<path class="st3" d="M1521.9,2248.2h72.4c1.4,0,3.1,0,4.5,0s2.7,1,2.7,2.4v0.3c0,0.7,0,1.7,0,2.4c0,27.4,0,54.9,0,82.3
		c0,7.5,0,7.5-7.5,7.5h-146.5c-6.9,0-6.9,0-6.9-6.9v-85.1c0-1.7,1-3.1,2.7-3.1h0.3c1.7,0,3.4,0,4.8,0H1521.9z"/>
	<path class="st3" d="M1443.7,2139.1c1.4,0,2.7,0.3,4.5,0.3h148.9c1.4,0,2.7,0,4.5,0c2.1,0.7,2.1,2.1,2.1,3.8
		c-0.7,28.5,0,57-0.3,85.4c0,6.9-0.3,7.5-7.5,7.9c-20.6,0-41.2,0-61.8,0c-27.8,0-55.2,0-83,0c-9.3,0-9.6-0.3-9.6-9.6
		c0-26.8,0-53.2,0-79.9C1441,2143.5,1439.6,2140.5,1443.7,2139.1z"/>
	<path class="st3" d="M1444.7,2030c1.7,0,3.4,0.3,4.8,0.3H1595c1.7,0,3.4-0.3,4.8-0.3c2.7,0.7,2.7,3.1,2.7,5.5c0,28.5,0,57,0,85.4
		c0,4.5-1.7,6.2-5.8,6.2h-5.1h-139.6c-1.7,0-3.8,0-5.5,0c-3.8,0-5.5-1.7-5.5-5.8v-86.1C1440.6,2032,1442,2030.3,1444.7,2030z"/>
	<path class="st3" d="M1095.5,2030c1.7,0,3.4,0.3,4.8,0.3h145.8c1.7,0,3.4-0.3,4.8-0.3c4.5,0.7,4.5,4.1,4.5,7.5c0,12.7,0,25,0,37.7
		c0,14.4,0,28.8,0,43.2c0,6.9-0.3,7.5-7.2,7.5c-49.7,0-99.5,0-148.9,0c-4.8,0-6.5-1.4-6.5-6.2c0-27.8,0-55.6,0-83.4
		C1092.7,2033.8,1092.4,2031,1095.5,2030z"/>
	<path class="st1" d="M919.5,1920.9c0.3,0,0.7,0,1,0c48.7,0,97.8,0,146.5,0c12.7,0,12.7,0,12.7,12.4v76.2c0,7.5,0,7.5-7.2,7.5H927
		c-2.4-0.3-4.5-0.3-6.9,0.7h-1c-2.4-1-1.7-3.4-1.7-5.5v-85.8C917.4,1924.3,917.1,1921.9,919.5,1920.9z"/>
	<path class="st1" d="M1346.3,2016.3h-76.9c-2.1,0-3.4-1-3.4-3.4c0-1.4,0-2.4,0-3.8v-80.3c0-1.4,0-2.4,0-3.8c0-2.1,1-3.1,3.1-3.1
		h4.5h146.2c7.5,0,7.5,0,7.5,7.2v79.9c0,1.4,0,2.7,0,4.5c0,1.4-1,2.7-2.4,2.7h-0.3c-1.7,0-3.4,0-4.8,0L1346.3,2016.3z"/>
	<path class="st1" d="M1172,1921.9h72.4c1.4,0,2.7,0,4.5,0c2.4,0,3.8,1,3.8,3.8c0,1,0,2.1,0,3.1v80.6c0,1.4,0,2.4,0,3.8
		c0,2.4-1.4,3.4-3.4,3.4h-151.6c-4.5,0-4.5-0.3-4.8-4.5c0-5.1,0-10.3,0-15.4v-66.2c0-1.7,0-3.4,0-4.8c0-1.4,1-3.1,3.1-3.1
		L1172,1921.9L1172,1921.9z"/>
	<path class="st1" d="M1601.2,1922.9c-0.7,3.8-1,7.2-0.7,11c0,26.4-0.3,52.8,0.3,79.3c0,1.7-0.7,2.7-2.4,2.7s-3.4,0-4.8,0h-145.5
		c-7.9,0-7.5,0.3-7.5-7.2v-79.6c0-1.4,0-2.7,0-4.5c0-1.4,1-2.7,2.4-2.7h0.3h3.8h148.6C1597.8,1921.9,1599.5,1922.3,1601.2,1922.9z"
		/>
	<path class="st3" d="M1172.3,2343.6h-74.8c-4.5,0-4.5,0-4.5-4.5c0-10.6,0-21.6,0-32.2c0-17.8,0-35.3,0-53.2c0-5.1,0-5.1,5.1-5.1
		h149.2c5.8,0,5.8,0,5.8,5.8c0,27.8,0,55.6,0,83.7c0,5.8,0,5.8-5.8,5.8h-75.1V2343.6z"/>
	<path class="st3" d="M1172.7,2234.5h-76.9c-2.1,0-3.4-0.7-3.4-3.1c0-1,0-2.1,0-3.1v-82.3c0-1,0-2.1,0-3.1c0-2.4,1-3.4,3.1-3.4
		h151.6c5.1,0,5.5,0.3,5.5,5.1c0,28.1,0,56.6,0,84.7c0,5.1,0,5.1-5.8,5.1L1172.7,2234.5z"/>
	<path class="st3" d="M917.8,2248.2h152.3c9.6,0,8.2,0,8.2,8.6c0,26.4,0,52.8,0,79.3c0,1.4,0,2.7,0,4.5c0,2.4-1,3.4-3.4,3.4H923.2
		c-5.8,0-5.8,0-5.8-5.8c0-8.9,0-17.8,0-26.8c0-18.9,0-37.4,0-56.3C917.4,2252.6,917.8,2250.6,917.8,2248.2L917.8,2248.2z"/>
	<path class="st7" d="M1361.7,1721.6c-4.5,3.8-7.2,9.6-7.2,15.4v154h-188v-154c0-5.8-2.7-11.7-7.2-15.4l-433.7-608.6h1070.1
		L1361.7,1721.6z"/>
	<path class="st1" d="M1158.9,1721.6c4.5,3.8,7.2,9.6,7.2,15.4v154h188.4v-154c0-5.8,2.7-11.7,7.2-15.4l433.7-608.6H725.6
		L1158.9,1721.6z"/>
	<path class="st8" d="M1713.7,1112.9l-433.7,608.6c-4.5,3.8-7.2,9.6-7.2,15.4v24.7l-106.7,54.9v74.8h188.4V1737
		c0-5.8,2.7-11.7,7.2-15.4l433.7-608.6H1713.7z"/>
	<g class="st9">
		<path class="st3" d="M716,1433.4c0-34.7-0.7-64.8-2.4-92.3h44.3l1.7,58h2.4c12.7-39.5,43.2-64.5,77.2-64.5c4.8,0,9.6,0.7,14.4,1.7
			v50.8c-5.5-1.4-11.3-2.1-17.2-1.7c-35.7,0-61.1,28.8-67.9,69c-1.4,8.2-2.1,16.5-2.4,25v157.5H716L716,1433.4L716,1433.4z"/>
		<path class="st3" d="M915,1498.6c1,72.4,44.9,102.6,95.4,102.6c36.4,0,58-6.9,77.2-15.1l8.6,38.4c-17.8,8.6-48.4,18.2-92.6,18.2
			c-85.8,0-136.9-59.7-136.9-148.9c0-89.2,49.4-159.2,130.7-159.2c90.9,0,114.9,84.7,114.9,138.9c0,8.2-0.7,16.8-1.7,25H915z
			 M1063.6,1460.1c0.7-34.3-13.4-87.1-70.3-87.1c-51.1,0-73.8,50.1-77.5,87.1H1063.6z"/>
		<path class="st3" d="M1310.9,1636.5l-4.1-37.1h-1.7c-19.2,27.8-51.1,44.3-85.1,43.9c-56.3,0-85.1-42.2-85.1-84.7
			c0-71.4,59.7-110.5,167.4-109.8v-6.2c0-24.4-6.2-68.3-63.5-68.3c-25.7,0-51.1,7.9-72.4,22l-11.7-35.3c23-15.8,56.3-26.1,91.6-26.1
			c85.1,0,106,61.8,106,120.8v110.1c-0.3,23.7,1,47.3,4.5,70.7H1310.9z M1303.4,1485.9c-55.2-1.4-118,9.3-118,66.6
			c0,34.7,22,51.1,47.7,51.1c30.9,0.3,58.3-19.9,67.2-49.4c1.7-5.5,2.7-11.3,2.7-17.2v-51.1H1303.4z"/>
		<path class="st3" d="M1656.1,1203.5v356.8c0,26.1,0.7,56.3,2.4,76.2h-45.6l-2.4-51.1h-1c-15.4,32.9-49.4,58-95,58
			c-67.2,0-119.1-60.4-119.1-149.9c-0.7-98.1,57-158.5,124.9-158.5c42.5,0,71.4,21.3,84.1,44.9h1v-176.3H1656.1z M1605.3,1461.5
			c0-7.5-0.7-15.1-2.4-22.6c-7.5-34.3-35-62.1-73.1-62.1c-52.5,0-83.4,48.7-83.4,113.9c0,59.7,27.4,109.1,82.3,109.1
			c34,0,65.2-23.7,74.1-64.2c1.7-7.5,2.4-15.4,2.4-23.3L1605.3,1461.5z"/>
		<path class="st3" d="M1721.6,1433.4c0-34.7-0.7-64.8-2.4-92.3h44.3l1.7,58h2.4c12.7-39.5,43.2-64.5,77.2-64.5
			c4.8,0,9.6,0.7,14.4,1.7v50.8c-5.5-1.4-11.3-2.1-17.2-1.7c-35.7,0-61.1,28.8-67.9,69c-1.4,8.2-2.1,16.5-2.4,25v157.5h-50.1V1433.4
			z"/>
	</g>
</g>
</svg>
