<?xml version="1.0" encoding="utf-8"?>
<!-- Generator: Adobe Illustrator 22.0.1, SVG Export Plug-In . SVG Version: 6.00 Build 0)  -->
<svg version="1.1" id="Layer_1" xmlns="http://www.w3.org/2000/svg" xmlns:xlink="http://www.w3.org/1999/xlink" x="0px" y="0px"
	 viewBox="0 0 735 852" style="enable-background:new 0 0 735 852;" xml:space="preserve">
<style type="text/css">
	.st0{fill:#005590;}
	.st1{fill:#004064;}
	.st2{fill:#E6B35A;}
	.st3{opacity:0.94;}
	.st4{fill:#FFFFFF;}
	.st5{fill:none;}
	.st6{fill:#110B0C;}
</style>
<title>readxl</title>
<polygon class="st0" points="716.5,227.5 367.5,26 367.5,26 18.5,227.5 18.5,630.5 367.5,832 716.5,630.5 "/>
<path class="st1" d="M734.9,637.4V213.1l-29.3-16.9L427.8,35.8L367.5,1l-60.3,34.8L29.4,196.2L0.1,213.1v424.2l29.3,16.9
	l281.3,162.4l56.9,32.8l56.9-32.8l281.3-162.4L734.9,637.4z M29.4,621.5V231L367.5,35.8l0,0L705.6,231v390.5L367.5,816.7L29.4,621.5
	z"/>
<path class="st2" d="M367,633.9c0.3-0.3,0.6-0.6,0.9-0.9h-0.3C367.5,633.3,367.3,633.6,367,633.9z"/>
<g class="st3">
	<path class="st4" d="M192.6,575.5c0-9.3-0.2-17.3-0.6-24.6h11.8l0.5,15.5h0.6c3.4-10.6,11.5-17.3,20.6-17.3c1.3,0,2.6,0.1,3.8,0.5
		v13.5c-1.5-0.3-3.1-0.5-4.6-0.5c-9.5,0-16.3,7.7-18.1,18.4c-0.4,2.2-0.6,4.4-0.6,6.7v42h-13.4V575.5z"/>
	<path class="st4" d="M245.8,593c0.3,19.4,12,27.4,25.5,27.4c9.7,0,15.5-1.8,20.6-4.1l2.3,10.3c-4.8,2.3-12.9,4.9-24.7,4.9
		c-22.9,0-36.6-16-36.6-39.8s13.2-42.5,34.9-42.5c24.3,0,30.7,22.7,30.7,37.2c0,2.2-0.2,4.5-0.5,6.7H245.8z M285.4,582.7
		c0.2-9.1-3.5-23.3-18.8-23.3c-13.7,0-19.7,13.4-20.8,23.3H285.4z"/>
	<path class="st4" d="M353.3,629.8l-1.1-9.9h-0.5c-5.2,7.5-13.7,11.8-22.8,11.7c-15.1,0-22.7-11.2-22.7-22.7
		c0-19.1,16-29.5,44.7-29.3V578c0-6.5-1.7-18.2-16.9-18.2c-6.9,0-13.6,2.1-19.4,5.9l-3.1-9.5c6.1-4.2,15.1-7,24.4-7
		c22.8,0,28.3,16.5,28.3,32.3v29.5c-0.1,6.3,0.3,12.6,1.2,18.9L353.3,629.8z M351.3,589.5c-14.8-0.3-31.5,2.4-31.5,17.8
		c0,9.3,5.8,13.7,12.8,13.7c8.3,0.1,15.6-5.3,18-13.2c0.5-1.5,0.7-3,0.8-4.6L351.3,589.5z"/>
	<path class="st4" d="M447.4,514.1v95.3c0,7,0.2,15,0.6,20.4h-12.1l-0.6-13.7H435c-4.1,8.8-13.2,15.5-25.4,15.5
		c-18,0-31.8-16.1-31.8-40.1c-0.2-26.2,15.2-42.4,33.4-42.4c11.4,0,19.1,5.7,22.4,12.1h0.3v-47.1H447.4z M433.9,583c0-2-0.2-4-0.6-6
		c-2-9.1-9.4-16.6-19.5-16.6c-14,0-22.3,13-22.3,30.5c0,16,7.4,29.2,22,29.2c9.1,0,17.4-6.3,19.8-17.1c0.5-2,0.7-4.1,0.6-6.2
		L433.9,583z"/>
	<path class="st4" d="M473.1,550.9l10.6,17c2.8,4.4,5.1,8.5,7.5,12.9h0.5c2.5-4.7,4.9-8.8,7.4-13l10.5-16.8h14.6l-25.4,38.1
		l26.1,40.7h-15.4L498.6,612c-2.9-4.6-5.4-9-8-13.7h-0.3c-2.5,4.7-5.1,9-7.8,13.7l-10.8,17.8h-14.9l26.4-40.2L458,550.9H473.1z"/>
	<path class="st4" d="M534.9,514.1h13.5v115.7h-13.5V514.1z"/>
</g>
<path class="st4" d="M365.5,797.3l4.5,4.5c1,1,1.9,1.9,2.7,2.9h0.1c-0.4-1.2-0.7-2.5-1-3.8l-1.4-6.3l1.6-0.9l4.7,4.3
	c1.1,1,2.1,2,2.9,2.9h0.1c-0.5-1.3-0.9-2.6-1.2-3.9l-1.6-6.1l1.9-1.1l2.7,12.4l-1.7,1l-4.5-4.1c-1-1-2-1.8-2.9-2.9l0,0
	c0.4,1.3,0.8,2.6,1.1,4l1.2,6l-1.7,1l-9.2-8.6L365.5,797.3z"/>
<path class="st4" d="M381.7,787.9l4.5,4.5c1,1,1.9,1.9,2.7,2.9h0.1c-0.4-1.2-0.7-2.5-1-3.8l-1.4-6.3l1.6-0.9l4.7,4.3
	c1.1,1,2.1,2,2.9,2.9h0.1c-0.5-1.3-0.9-2.6-1.2-3.9l-1.6-6.1l1.9-1.1l2.7,12.4l-1.7,1l-4.5-4.1c-1-1-2-1.8-2.9-2.9l0,0
	c0.4,1.3,0.8,2.6,1.1,4l1.2,6l-1.7,1l-9.3-8.7L381.7,787.9z"/>
<path class="st4" d="M397.8,778.5l4.5,4.5c1,1,1.9,1.9,2.7,2.9h0.1c-0.4-1.2-0.7-2.5-1-3.8l-1.4-6.3l1.6-0.9l4.7,4.3
	c1.1,1,2.1,2,2.9,2.9h0.1c-0.5-1.3-0.9-2.6-1.2-3.9l-1.6-6.1l1.9-1.1l2.7,12.4l-1.7,1l-4.5-4.1c-1-0.9-2-1.9-2.9-2.9l0,0
	c0.4,1.3,0.8,2.6,1.1,4l1.2,5.9l-1.7,1l-9.2-8.6L397.8,778.5z"/>
<path class="st4" d="M417.1,779.7c-0.4-0.7-0.1-1.6,0.6-2c0.7-0.4,1.6-0.1,2,0.6c0.4,0.7,0.1,1.6-0.6,2
	C418.5,780.8,417.6,780.5,417.1,779.7C417.2,779.8,417.1,779.8,417.1,779.7z"/>
<path class="st4" d="M418.5,770.8c-0.7-1.2-1.4-2.3-2-3.2l1.7-1l1.2,2h0.1c-0.4-1.5,0.2-3.2,1.6-4c0.2-0.1,0.4-0.2,0.6-0.2l1,1.8
	c-0.2,0.1-0.5,0.2-0.7,0.3c-1.3,0.8-1.8,2.5-1.1,3.9c0.1,0.3,0.3,0.6,0.4,0.9l3.2,5.6l-1.8,1.1L418.5,770.8z"/>
<path class="st4" d="M428.4,772.1c1,0,2-0.2,3-0.7c1.4-0.8,1.6-1.9,1.1-2.7s-1.4-1.1-3.1-0.8c-2.3,0.4-3.8-0.1-4.5-1.3
	c-1-1.7-0.4-3.9,1.8-5.2c0.9-0.5,1.9-0.8,3-0.8l0.3,1.7c-0.9,0-1.7,0.2-2.5,0.6c-0.9,0.3-1.3,1.4-1,2.3c0,0.1,0,0.1,0.1,0.2
	c0.5,0.9,1.4,0.9,3,0.6c2.2-0.4,3.7,0,4.6,1.5c1.1,1.8,0.4,4-2.1,5.4c-1,0.6-2.2,1-3.4,1L428.4,772.1z"/>
<path class="st4" d="M432.8,754.1l1.8,3l2.7-1.6l0.8,1.4l-2.7,1.6l3.3,5.6c0.8,1.3,1.5,1.8,2.6,1.2c0.4-0.2,0.7-0.5,1-0.8l0.9,1.4
	c-0.4,0.5-0.9,0.9-1.5,1.2c-0.7,0.5-1.7,0.6-2.5,0.4c-1-0.5-1.9-1.3-2.3-2.3l-3.3-5.7l-1.6,0.9l-0.8-1.4l1.6-1l-1.5-2.5L432.8,754.1
	z"/>
<path class="st4" d="M452.6,756.8c0.6,1.1,1.2,2,1.8,2.8l-1.7,1l-1.1-1.6l0,0c0,1.7-0.9,3.2-2.3,4c-1.6,1-4.1,1.2-6.3-2.5l-3.5-6.1
	l1.9-1.1l3.4,5.8c1.2,2,2.5,3,4.3,2c1.1-0.7,1.7-1.9,1.5-3.2c-0.1-0.4-0.2-0.7-0.4-1.1l-3.7-6.4l1.9-1.1L452.6,756.8z"/>
<path class="st4" d="M457.5,737.2l7.4,12.6c0.5,0.9,1.2,2,1.6,2.7l-1.7,1l-1.1-1.8l0,0c0.1,1.7-0.8,3.3-2.4,4.1
	c-2.5,1.5-5.7,0.5-7.6-2.7c-2-3.5-1.1-6.9,1.4-8.3c1.2-0.8,2.8-0.9,4.1-0.2l0,0l-3.6-6.2L457.5,737.2z M460.9,747.5
	c-0.2-0.3-0.3-0.5-0.5-0.8c-1-1.1-2.7-1.4-4-0.6c-2,1.1-2.1,3.5-0.8,5.9c1.2,2.1,3.3,3.3,5.3,2.1c1.3-0.8,2-2.4,1.5-3.9
	c-0.1-0.3-0.2-0.6-0.4-0.9L460.9,747.5z"/>
<path class="st4" d="M463.9,736.1c0.4,0.6,0.2,1.5-0.5,1.9c-0.6,0.4-1.5,0.2-1.9-0.5c-0.4-0.6-0.2-1.5,0.4-1.8c0,0,0,0,0.1,0
	c0.6-0.4,1.4-0.2,1.8,0.4C463.8,736,463.9,736,463.9,736.1z M469.6,750.7l-6.1-10.5l1.9-1.1l6.1,10.5L469.6,750.7z"/>
<path class="st4" d="M481,736.9c2.2,3.9,0.5,7.1-2,8.6c-2.8,1.6-6.2,0.8-8.1-2.5c-2-3.5-0.9-6.9,2-8.6S479.1,733.8,481,736.9z
	 M472.8,741.9c1.3,2.3,3.7,3.2,5.5,2.2s2.2-3.6,0.8-5.9c-1-1.8-3.2-3.5-5.5-2.2S471.6,739.9,472.8,741.9L472.8,741.9z"/>
<path class="st4" d="M484.9,740.3c-0.5-0.7-0.3-1.6,0.4-2c0,0,0.1,0,0.1-0.1c0.8-0.4,1.7-0.2,2.1,0.6c0.4,0.8,0.2,1.7-0.6,2.1l0,0
	C486.2,741.3,485.3,741.1,484.9,740.3C484.9,740.4,484.9,740.3,484.9,740.3z"/>
<path class="st4" d="M497.7,733.8c-0.7,1-1.6,1.8-2.6,2.3c-3.2,1.8-6.5,0.9-8.3-2.3c-1.8-2.8-1-6.6,1.8-8.5c0.2-0.1,0.4-0.2,0.6-0.3
	c0.9-0.5,1.9-0.9,3-1l0.4,1.7c-0.9,0-1.7,0.3-2.5,0.8c-2.4,1.4-2.7,3.9-1.4,6.1c1.4,2.4,3.8,3,5.9,1.8c0.8-0.5,1.5-1.1,2-1.9
	L497.7,733.8z"/>
<path class="st4" d="M506.4,722.2c2.2,3.9,0.5,7.1-2,8.6c-2.8,1.7-6.2,0.8-8.1-2.5c-2-3.5-0.9-6.9,2-8.6S504.5,719,506.4,722.2z
	 M498.1,727.1c1.3,2.3,3.6,3.2,5.5,2.2s2.2-3.5,0.8-5.9c-1-1.8-3.2-3.5-5.5-2.2S497,725.1,498.1,727.1z"/>
<path class="st4" d="M507.4,718.5c-0.6-1.1-1.2-2-1.7-2.8l1.7-1l1.1,1.6h0.1c-0.1-1.6,0.8-3.1,2.2-3.8c1.3-0.8,3-0.6,4.2,0.4l0,0
	c0-0.7,0.1-1.4,0.4-2c0.4-0.9,1-1.6,1.9-2.1c1.4-0.8,4-1.1,6.1,2.5l3.6,6.2l-1.9,1.1l-3.5-5.9c-1.2-2-2.6-2.8-4.1-1.9
	c-1,0.6-1.5,1.8-1.2,3c0.1,0.4,0.2,0.7,0.4,1l3.8,6.5l-1.8,1.1l-3.6-6.3c-1-1.7-2.4-2.5-3.9-1.6c-1.1,0.7-1.6,2-1.2,3.3
	c0.1,0.4,0.2,0.7,0.4,1l3.7,6.3l-1.9,1.1L507.4,718.5z"/>
<path class="st5" d="M407.4,261.5c0-1.4,0.1-2.6,0.1-3.8C407.5,258.8,407.4,260.1,407.4,261.5z"/>
<path class="st5" d="M291,219.6L291,219.6z"/>
<path class="st5" d="M290.9,214.6c-0.6-20.2-1.1-35.7-1.1-35.7c0-8.4,1.5-16.7,4.3-24.5c-2.9,7.9-4.3,16.2-4.3,24.5
	C289.8,178.9,290.3,194.4,290.9,214.6z"/>
<path class="st5" d="M408.7,367.1c-0.1-1.9-0.2-4-0.3-6.4C408.5,363.1,408.6,365.2,408.7,367.1z"/>
<path class="st5" d="M291.9,255.2c-0.1-3.5-0.2-7.1-0.2-10.7C291.7,248.1,291.8,251.7,291.9,255.2z"/>
<path class="st5" d="M408.2,243.4c0-1.2,0.1-2.4,0.1-3.7C408.3,241,408.2,242.2,408.2,243.4z"/>
<path class="st5" d="M407.7,254.3c-0.1,0.9-0.1,1.9-0.2,3.1C407.5,256.3,407.6,255.2,407.7,254.3s0.1-2,0.2-3.2
	C407.8,252.3,407.7,253.4,407.7,254.3z"/>
<path class="st5" d="M285.8,414.9c0.6-0.4,0.9-1,1-1.7C286.7,413.9,286.4,414.5,285.8,414.9z"/>
<path class="st5" d="M407.8,336c-0.6,15-0.8,40.9-0.8,41.4c0-0.6,0.2-24.9,0.7-40.9L407.8,336z"/>
<path class="st5" d="M291.4,233.1c0-0.9,0-1.9-0.1-2.8C291.3,231.2,291.3,232.2,291.4,233.1z"/>
<path class="st5" d="M288.4,413.8L288.4,413.8l2.7-24.6L288.4,413.8L288.4,413.8z"/>
<path class="st5" d="M292.4,296.2c0,1,0,1.9,0,2.9C292.4,298.1,292.4,297.1,292.4,296.2c0.1-9.5-0.2-24.7-0.5-41
	C292.3,271.5,292.5,286.6,292.4,296.2z"/>
<path class="st5" d="M409.2,376.6c0-0.8-0.1-1.7-0.2-2.7C409.1,374.9,409.2,375.8,409.2,376.6z"/>
<path class="st5" d="M411.2,301.1c0,0.3,0,0.7,0,1.1C411.2,301.8,411.2,301.4,411.2,301.1c0.1-5.9,0.4-35.2,0.7-61.1
	C411.6,266,411.3,295.2,411.2,301.1z"/>
<path class="st5" d="M412.4,194.5c0-0.7,0-1.5,0-2.4C412.4,192.9,412.4,193.7,412.4,194.5z"/>
<path class="st5" d="M409.3,198.1c0,1.4,0,2.8-0.1,4.4C409.2,201,409.3,199.5,409.3,198.1z"/>
<path class="st5" d="M325.4,327.9c-1.5,0.5-6.3,4.6-8.1,10.9l0.3,0.1C319.5,332.5,323.9,328.4,325.4,327.9z"/>
<path class="st5" d="M416.7,231.2c0-2.6,0.1-4.7,0.2-6.4C416.8,226.5,416.8,228.6,416.7,231.2z"/>
<path class="st5" d="M338.5,315.2c3.1-0.9,6.4-1.5,9.6-1.8C344.8,313.7,341.6,314.3,338.5,315.2z"/>
<path class="st5" d="M409.5,187.1c0,0.4,0,0.9,0,1.4C409.5,188,409.5,187.5,409.5,187.1z"/>
<path class="st5" d="M406.3,159.3c2.2,8.2,3.3,16.6,3.2,25.1c0,0,0,1,0,2.7c0-1.7,0-2.7,0-2.7C409.6,175.9,408.5,167.5,406.3,159.3z
	"/>
<path class="st5" d="M343.6,321.6c0.7-0.1,1.4-0.1,2.1-0.1l0,0C345,321.5,344.3,321.5,343.6,321.6z"/>
<path class="st5" d="M357.8,324.7c1.8,0.5,3.6,1.2,5.3,2C361.4,325.9,359.6,325.2,357.8,324.7c-1.7-1.4-5.2-3.1-12-3.2
	C352.6,321.6,356.1,323.3,357.8,324.7z"/>
<path class="st4" d="M407,377.5l1.2,27.3l0,0l2,47.1c-1.2,18-10.7,27.3-20.5,32.1c-11,5.4-19.3,5-19.3,5
	c-44.9-8.4-47.8-48.1-47.8-48.1c0.8-7,0.1-25.4-0.1-47.9c0-23.8,1.7-40.4,1.7-40.4c0.9-25.9,24.9-27.4,24.9-27.4
	c3.4-0.1,6.9,0.3,10.2,1.2c9.7,2.6,15.5,9.3,19,16.2c0.7,1.4,1.4,2.9,1.9,4.3l4.8,46.6l1.5,32.9l1.9,0.4l2.2,0.4l0.9,0.1l2.1,0.4
	c1.5-0.3,3-0.7,4.5-1.2c1-0.3,1.9-0.7,2.9-1.2c-0.5-11.6-1-24.5-1-36.2l0,0l0,0c0-3.7,0-6.9,0.1-9.4c-0.3-7-1-14.9-1.4-17.8
	c0.1-2.8,0-5.6-0.2-8.4c-1.1-5.6-2.9-11-5.3-16.1c-2.4-4.3-5.4-8.3-8.9-11.7c-4.1-4-8.8-7.4-14-9.8c-0.9-0.2-1.9-0.4-2.8-0.5
	c-3-1.4-6.1-2.4-9.3-3.1c-29.7-6.6-44.6,15-46.5,18c-3.4,5.9-5.8,13.4-6.3,23l0.7,39.9l-0.1,1.5l-1.4,29.3c0,0.4,0,1,0,1.6
	c-0.1,5-0.1,12.5,0,16.2c0.2,7.2,0.7,8.5,2.8,15.4c0.6,1.9,1.1,3.7,1.8,5.6c1.3,2.6,2.5,4.8,2.5,4.8c5.3,14.2,21.7,36,41.9,40.9
	c12.3,3,29.9,2.3,43.3-4.5c35.3-18.1,29-48.5,28.1-70.5s-5.3-80.7-5.3-80.7c-1-33.2,0.3-136.8,0.3-136.8c-1-17.5,8-60.5-17.9-86.2
	s-70-14.9-70-14.9c-50.3,17.3-47.2,63.3-46.5,72.4s2.6,79.2,2.6,79.2c2.5,38.3-3.4,144.2-3.4,144.2c0,3.3-0.8,4.4-1.5,7.2
	c0.3-0.8-0.6,5.1,0.2,4.5c0.5-0.3,1.8,1.1,0,0c1.5,1.9,5.1,2.1,5.1,2.1l7,0.1c0.5,0.1,1.1,0,1.6-0.2c0,0-0.8,0.2,1.8,0.2l0,0
	c0.2-0.1,0.5-0.2,0.8-0.2l3.1-49.6l0.3-10.1c0,0,0.2-59.5-0.6-123.7c0-0.2-4.2-45.2-4.6-59.9c-0.5-16.3,5.5-45.5,39.7-54.2
	c7.2-1,14.4-1.3,21.7-1.2c9.2,1.6,19,3.8,21.7,4.4l1.6,0.7c5.2,3,9.6,7,13,11.9c0,0,10.2,13.6,10.6,29.5c0,0,1.4,38.7-0.3,49.4
	c-1.6,10.5-1.6,8.2-1.5-0.1c-0.1,16.4-0.4,32.6-0.7,40.7c0,0,0-0.2-0.1-0.7c0.1,2.5,0,5.1-0.2,7.6c0.2,2.7,0.5,9.8,0.5,16.2
	c0.1-0.7,0.1-1.4,0.2-1.9L407,377.5 M291.3,230.3c0,0.9,0,1.9,0.1,2.8C291.3,232.2,291.3,231.2,291.3,230.3z M291,219.7L291,219.7z
	 M412.4,192.1c0,0.9,0,1.7,0,2.4C412.4,193.7,412.4,192.9,412.4,192.1z"/>
<path d="M368.4,511.1c-5.1,0-10.2-0.5-15.2-1.7c-20.5-5-37.2-27.2-42.6-41.5c-0.2-0.4-1.3-2.4-2.5-4.7l0-0.1
	c-0.6-1.8-1.2-3.7-1.8-5.6l-0.4-1.4c-1.7-5.7-2.2-7.4-2.4-14.2c-0.1-3.8,0-11.4,0-16.3c0-0.6,0-1.2,0-1.6l1.6-30.8l-0.7-39.8
	c0.3-8.2,2.5-16.3,6.5-23.5c1.7-2.6,17.2-25.3,47.6-18.5c3.2,0.7,6.4,1.7,9.4,3.1c1.1,0.2,2,0.3,2.8,0.5l0.2,0.1
	c5.3,2.5,10.1,5.9,14.2,10c3.6,3.6,6.6,7.6,9.1,12c2.5,5.2,4.3,10.7,5.4,16.4v0.1c0.2,2.8,0.3,5.6,0.2,8.4
	c0.3,3.1,1.1,10.9,1.4,17.8c-0.1,2.4-0.2,5.5-0.1,9.4v0.1c0,10.2,0.4,22.4,1,36.1v0.7l-0.6,0.3c-1,0.5-2,0.9-3,1.2
	c-1.5,0.5-3,0.9-4.6,1.2h-0.2h-0.2l-1.9-0.3l-1.1-0.2c-0.7-0.1-1.5-0.3-2.2-0.4l-1.9-0.4l-0.8-0.2l-1.6-33.7l-4.8-46.4
	c-0.5-1.4-1.1-2.8-1.8-4.1c-4.2-8.2-10.4-13.5-18.4-15.7c-3.2-0.8-6.6-1.2-9.9-1.1c-0.9,0.1-23,1.7-23.9,26.4
	c0,0.2-1.7,16.9-1.7,40.3c0.1,6.2,0.1,12.1,0.2,17.5c0.2,14,0.4,25.1-0.1,30.3c0.2,2,4.4,39.1,46.9,47.1c0.8,0,8.6,0,18.7-5
	c12.2-6,18.9-16.5,19.9-31.2l-3.2-74.4l-2.9-92.4h-0.3c0.1-6.3-0.3-13.4-0.5-16.1v-0.2c0.2-2.5,0.3-5,0.2-7.5h0.1
	c0.3-7.1,0.5-20.6,0.7-40h1.5l0,0c1.6-10.6,0.3-48.9,0.3-49.3c-0.4-15.4-10.3-28.8-10.4-28.9c-3.3-4.8-7.6-8.8-12.7-11.7
	c-0.5-0.2-1-0.4-1.5-0.6c-2.9-0.6-12.5-2.8-21.5-4.4c-7.2-0.2-14.3,0.2-21.4,1.1c-37.3,9.5-39.2,43.1-38.9,53.2
	c0.4,13.3,3.9,52,4.6,59.6v0.2c0.9,63.5,0.6,123.2,0.6,123.8l-0.3,10.2l-3.1,50.6h-1c-0.1,0-0.2,0-0.2,0.1l-0.2,0.1h-0.3
	c-0.7,0-1.3,0-2-0.1c-0.5,0.1-1,0.2-1.5,0.1l-6.9-0.1c-0.4,0-3.8-0.2-5.6-2.1l-0.2-0.1c-0.3-0.2-0.6-0.5-0.6-0.9l-3-3.8l3,1.8
	c0-0.4,0.1-0.9,0.1-1.4s0.1-1,0.1-1.1c0.1,0.4,0.4,0.8,0.8,0.9l0.1-0.8l-1-0.3c0.2-0.8,0.4-1.5,0.6-2.1c0.6-1.5,0.8-3.2,0.8-4.8
	c0.1-1.1,5.9-106.3,3.4-144.1c0-0.7-2-70.2-2.6-79.2c-1.5-20.8,2.6-58.1,47.2-73.4c0.5-0.1,45-10.6,71,15.2
	c20.9,20.6,19.5,52.2,18.5,73.1c-0.2,5.4-0.5,10.1-0.2,13.7c0,1.1-1.3,104.1-0.3,136.9c0,0.5,4.5,58.9,5.3,80.7
	c0.1,2.4,0.2,4.8,0.4,7.4c1.4,21.2,3,47.6-29,64.1C388.3,509.3,377.9,511.1,368.4,511.1z M310,462.4c1.3,2.5,2.4,4.6,2.4,4.6
	l0.1,0.1c5.1,13.8,21.3,35.4,41.2,40.3c11.4,2.8,29,2.5,42.6-4.5c30.9-15.8,29.3-41.5,28-62.2c-0.2-2.6-0.3-5-0.4-7.4
	c-0.9-21.7-5.3-80-5.3-80.6c-1-32.9,0.3-135.9,0.3-136.9c-0.2-3.6,0-8.4,0.2-13.8c0.9-20.6,2.4-51.6-17.8-71.6
	c-25.2-25-68.6-14.8-69-14.7c-43.3,14.9-47.3,51.1-45.8,71.4c0.6,9,2.6,78.5,2.6,79.2c2.5,37.9-3.3,143.2-3.4,144.3
	c0,1.8-0.3,3.6-0.9,5.3c-0.1,0.5-0.3,1.1-0.5,1.7c0,0.5,0,0.9-0.1,1.4c0,0.6-0.1,1.5-0.1,2.2c0.4,0.1,0.7,0.3,1,0.6
	c0.1,0.2,0.2,0.4,0.3,0.6c1,0.5,2.1,0.8,3.3,0.8l6.9,0.1c0.3,0,0.7,0,1-0.1c0.1,0,0.2-0.1,0.3-0.1l0.7,1.9c0.3-0.2,0.5-0.5,0.5-0.9
	c0-0.4-0.3-0.8-0.7-0.9c0.5,0.1,0.9,0.1,1.4,0h0.1l3-48.9l0.3-10.1c0-0.6,0.2-60.2-0.6-123.7v-0.2c-0.7-7.6-4.2-46.3-4.6-59.7
	c-0.3-10.5,1.6-45.4,40.5-55.2h0.1c7.3-1,14.6-1.4,21.9-1.2h0.1c9.2,1.6,19,3.8,21.7,4.4h0.1c0.6,0.2,1.1,0.4,1.7,0.7l0.1,0.1
	c5.3,3,9.9,7.2,13.3,12.2c0.4,0.5,10.4,14,10.8,30c0.1,1.6,1.3,38.9-0.3,49.6c-0.8,5.3-1.1,7.1-1.6,7.6c-0.2,15.8-0.4,26.8-0.6,32.8
	h-0.1c0.1,2.3,0,4.6-0.2,6.9c0.1,2.5,0.5,8.4,0.5,14.2h0.2l2.9,94.3l3.2,74.5v0.1c-1,15.3-8.3,26.7-21,32.9
	c-11.1,5.5-19.4,5.2-19.8,5.1h-0.1c-45.1-8.4-48.5-48.6-48.6-49v-0.2c0.5-5,0.4-16.1,0.1-30.2c-0.1-5.4-0.2-11.3-0.2-17.6
	c0-23.5,1.7-40.3,1.7-40.5c0.7-21.1,17.2-27.7,25.8-28.3c3.5-0.1,7.1,0.3,10.5,1.2c8.6,2.4,15.2,8,19.7,16.7c0.7,1.4,1.4,2.9,2,4.4
	l0.1,0.2l4.8,46.6l1.5,32.2c0.4,0.1,0.8,0.2,1.1,0.2c0.7,0.1,1.4,0.3,2.1,0.4l1.1,0.2c0.6,0.1,1.1,0.2,1.7,0.3
	c1.4-0.3,2.8-0.7,4.1-1.1c0.8-0.3,1.5-0.5,2.2-0.9c-0.6-13.4-0.9-25.3-1-35.4v-0.1v-0.3c0-3.8,0-7,0.1-9.3c-0.2-6.9-1-14.6-1.4-17.7
	V362c0.1-2.7,0-5.5-0.2-8.2c-1-5.5-2.8-10.8-5.2-15.8c-2.3-4.2-5.3-8.1-8.7-11.5c-4-3.9-8.6-7.2-13.6-9.6c-0.8-0.2-1.6-0.3-2.6-0.5
	l-0.3-0.1c-2.9-1.4-6-2.4-9.1-3c-29.2-6.5-44,15.1-45.5,17.6c-3.8,6.9-5.9,14.6-6.2,22.5l0.7,39.8l-0.1,1.6l-1.6,29.2
	c0,0.4,0,0.9,0,1.5c-0.1,4.9-0.1,12.5,0,16.2c0.1,6.6,0.6,8.1,2.3,13.7l0.4,1.4C308.8,458.8,309.4,460.6,310,462.4z M290.4,233.1
	l-0.1-2.8l2-0.1l0.1,2.8L290.4,233.1z M290,219.8h1H290h1H290l1-0.1h1v0.1L290,219.8z M411.4,194.5c0-0.7,0-1.5,0-2.4h2
	c0,0.9,0,1.7,0,2.4L411.4,194.5z"/>
<path class="st6" d="M325.7,149.4c0,0-30.2-5.1-46.3,12.6s-5.2,38.6-2.8,39.1s-5.7-17,9.9-32.7c0,0,13.1-16.3,40.7-15.2
	C327.1,153.2,329,153.8,325.7,149.4z"/>
<path class="st6" d="M371.9,151.1c0,0,28.7-13.2,49.5,0s15.6,37,13.4,38.1s0.9-18.9-20-31c0,0-16.1-11.5-43.2-2.9
	C371.5,155.3,369.9,156.4,371.9,151.1z"/>
<path d="M287.3,353l-0.9-1.8l0.9-0.5l6.6-3.3c2.5-1.3,5.1-2.5,7.6-3.8l0.9-0.5l0.9,1.8l-0.9,0.5c-2.5,1.3-5.1,2.5-7.7,3.8
	c-2.2,1.1-4.4,2.2-6.6,3.3L287.3,353z"/>
<path d="M287.1,357.7l-0.9-1.8l0.9-0.5c1.8-0.9,3.5-1.8,5.3-2.7c3-1.5,6.1-3.1,9.1-4.6l0.9-0.5l0.9,1.8l-0.9,0.5
	c-3,1.6-6.1,3.1-9.1,4.6l-5.3,2.7L287.1,357.7z"/>
<path d="M288.1,361.9l-0.9-1.8l0.9-0.5c2.9-1.5,5.8-3,8.6-4.4c1.8-0.9,3.5-1.8,5.2-2.6l0.9-0.5l0.9,1.8l-0.9,0.5
	c-1.8,0.9-3.5,1.8-5.3,2.7c-2.8,1.4-5.8,2.9-8.6,4.4L288.1,361.9z"/>
<path d="M288.2,366.2l-0.9-1.8l0.9-0.5c2.8-1.5,5.7-3,8.5-4.4c1.7-0.9,3.4-1.7,5.1-2.6l0.9-0.5l0.9,1.8l-0.9,0.5l-5.1,2.6
	c-2.8,1.4-5.7,2.8-8.5,4.3L288.2,366.2z"/>
<path d="M287.9,333.9l-0.5-0.9l0.5-0.2c2.5-1.3,5.1-2.6,7.6-3.8c1.7-0.9,3.4-1.7,5.1-2.5l0.5-0.2l0.5,0.9l-0.5,0.2
	c-1.7,0.9-3.4,1.7-5.1,2.5c-2.5,1.3-5.1,2.5-7.6,3.8L287.9,333.9z"/>
<path d="M288.3,338.3l-0.5-0.9l0.4-0.2c2.7-1.4,5.5-2.8,8.3-4.2c1.6-0.8,3.3-1.6,4.9-2.5l0.4-0.2l0.5,0.9l-0.4,0.2l-4.9,2.5
	c-2.7,1.4-5.5,2.8-8.3,4.2L288.3,338.3z"/>
<path d="M288,343.1l-0.5-0.9l0.4-0.2c2.9-1.5,5.9-3,8.7-4.5c1.5-0.7,2.9-1.5,4.4-2.2l0.5-0.2l0.5,0.9l-0.5,0.2l-4.4,2.2
	c-2.9,1.5-5.8,3-8.7,4.5L288,343.1z"/>
<path d="M288.1,348l-0.9-1.8l0.9-0.5c2.9-1.5,5.9-3,8.7-4.5c1.5-0.7,2.9-1.5,4.4-2.2l0.9-0.5l0.9,1.8l-0.9,0.5l-4.4,2.2
	c-2.9,1.5-5.8,2.9-8.7,4.5L288.1,348z"/>
<path d="M289.5,315.6l-0.5-0.9l0.4-0.2c2-1,4-1.9,5.9-2.8l2.5-1.2l0.5-0.2l0.4,0.9l-0.5,0.2l-2.5,1.2c-1.9,0.9-4,1.8-5.9,2.8
	L289.5,315.6z"/>
<path d="M289.9,319.9l-0.5-0.9l0.4-0.2c1.9-1,3.9-1.9,5.8-2.8l2.2-1l0.5-0.2l0.4,0.9l-0.5,0.2l-2.2,1c-1.9,0.9-3.8,1.8-5.7,2.8
	L289.9,319.9z"/>
<path d="M289.4,324.9l-0.5-0.9l0.4-0.2c2-1.1,4.1-2.1,6.2-3c0.8-0.4,1.7-0.8,2.5-1.2l0.5-0.2l0.4,0.9l-0.5,0.2l-2.5,1.2
	c-2,1-4.1,2-6.2,3L289.4,324.9z"/>
<path d="M289.3,329.3l-0.5-0.9l0.4-0.2c2.4-1.3,4.8-2.5,7.2-3.7c0.8-0.4,1.6-0.8,2.4-1.2l0.5-0.2l0.4,0.9l-0.5,0.2l-2.4,1.2
	c-2.4,1.2-4.8,2.4-7.2,3.6L289.3,329.3z"/>
<path d="M289.8,295.6l-0.5-0.9l0.4-0.2c2.5-1.4,5.1-2.8,7.7-4.1l3.8-2l0.4-0.2l0.5,0.9l-0.4,0.2c-1.3,0.7-2.5,1.4-3.8,2
	c-2.5,1.4-5.1,2.7-7.6,4.1L289.8,295.6z"/>
<path d="M290,299.9l-0.5-0.9l0.4-0.2c2.7-1.5,5.5-3,8.1-4.4l3-1.6l0.5,0.9l-3,1.6c-2.7,1.4-5.4,2.9-8.1,4.4L290,299.9z"/>
<path d="M289.9,304.7l-0.5-0.9l0.4-0.2c2.7-1.5,5.5-3,8.2-4.5l2.7-1.4l0.5,0.9l-2.7,1.5c-2.7,1.5-5.5,3-8.2,4.5L289.9,304.7z"/>
<path d="M290,310.6l-0.5-0.9l0.4-0.2c2.1-1.1,4.2-2.3,6.3-3.4l2.6-1.4l0.5-0.2l0.5,0.9l-0.4,0.2l-2.6,1.3c-2.1,1.1-4.2,2.2-6.3,3.3
	L290,310.6z"/>
<path d="M289.1,277.5l-0.5-0.9l0.4-0.2c2.6-1.4,5.2-2.8,7.7-4.1l4.2-2.2l0.4-0.2l0.5,0.9l-0.4,0.2l-4.1,2.2
	c-2.5,1.4-5.2,2.7-7.7,4.1L289.1,277.5z"/>
<path d="M289.5,281.8l-0.5-0.9l0.4-0.2c2.6-1.5,5.3-2.9,8-4.3l3.5-1.8l0.4-0.2l0.5,0.9l-0.4,0.2l-3.5,1.9c-2.6,1.4-5.3,2.8-7.9,4.3
	L289.5,281.8z"/>
<path d="M289.6,286.4l-0.5-0.9l0.4-0.2c2.8-1.6,5.6-3.1,8.4-4.5l3.4-1.8l0.4-0.2l0.5,0.9l-0.4,0.2l-3.5,1.8c-2.8,1.5-5.6,3-8.4,4.5
	L289.6,286.4z"/>
<path d="M289.8,290.7l-0.5-0.9l0.4-0.2c2.7-1.5,5.5-3,8.2-4.5l3-1.6l0.4-0.2l0.5,0.9l-0.4,0.2l-3,1.6c-2.7,1.4-5.5,2.9-8.2,4.5
	L289.8,290.7z"/>
<path d="M288.7,259.5l-0.5-0.9l0.4-0.2c2.5-1.4,5.1-2.7,7.6-4l4-2.1l0.4-0.2l0.5,0.9l-0.5,0.2c-1.3,0.7-2.7,1.4-4,2.1
	c-2.5,1.3-5,2.7-7.5,4L288.7,259.5z"/>
<path d="M288.5,264l-0.5-0.9l0.4-0.2c2.4-1.3,4.8-2.6,7.2-3.8c1.5-0.8,3.1-1.6,4.6-2.4l0.4-0.2l0.5,0.9l-0.4,0.2
	c-1.5,0.8-3.1,1.6-4.6,2.4c-2.4,1.2-4.8,2.5-7.2,3.8L288.5,264z"/>
<path d="M289,268.5l-0.5-0.9l0.4-0.2c2.3-1.3,4.7-2.5,7-3.7c1.5-0.8,3.1-1.6,4.6-2.4l0.4-0.2l0.5,0.9l-0.4,0.2
	c-1.5,0.8-3.1,1.6-4.6,2.4c-2.3,1.2-4.6,2.4-6.9,3.7L289,268.5z"/>
<path d="M289.3,272.6l-0.5-0.9l0.4-0.2c2.5-1.4,5-2.7,7.5-4c1.4-0.7,2.8-1.4,4.1-2.1l0.5-0.2l0.5,0.9l-0.4,0.2
	c-1.4,0.7-2.8,1.4-4.1,2.2c-2.5,1.3-5,2.6-7.4,4L289.3,272.6z"/>
<path d="M288.5,238.7l-0.5-0.9l0.4-0.2c0.5-0.3,2.9-1.5,5.3-2.8s5.1-2.6,5.5-2.9l0.4-0.2l0.5,0.9l-0.4,0.2c-0.5,0.3-3,1.6-5.6,2.9
	c-2.4,1.2-4.8,2.5-5.3,2.8L288.5,238.7z"/>
<path d="M288.5,246.5l-0.5-0.9l0.4-0.2c2.5-1.4,5.1-2.8,7.7-4.1l4.3-2.2l0.4-0.2l0.5,0.9l-0.4,0.2l-4.3,2.3
	c-2.5,1.3-5.1,2.7-7.6,4.1L288.5,246.5z"/>
<path d="M288.5,251.2l-0.5-0.9l0.4-0.2c2.8-1.6,5.6-3.1,8.4-4.6l3.5-1.8l0.4-0.2l0.5,0.9l-0.4,0.2l-3.5,1.8c-2.8,1.5-5.6,3-8.4,4.5
	L288.5,251.2z"/>
<path d="M288.6,255.5l-0.5-0.9l0.4-0.2c2.9-1.6,5.9-3.2,8.8-4.8l3.2-1.7l0.5,0.9l-3.2,1.7c-2.9,1.6-5.9,3.1-8.7,4.8L288.6,255.5z"/>
<path d="M286.6,185.1l-0.5-0.9l0.4-0.2c2.6-1.5,5.2-3,7.8-4.5l0.8-0.5l0.5,0.9l-0.8,0.5c-2.6,1.5-5.2,3-7.8,4.5L286.6,185.1z"/>
<path d="M286.8,189.4l-0.5-0.9l0.4-0.2l3.9-2.2l4.3-2.5l0.4-0.2l0.5,0.9l-0.4,0.2c-1.4,0.8-2.9,1.6-4.3,2.5l-3.9,2.2L286.8,189.4z"
	/>
<rect x="286.4" y="191.2" transform="matrix(0.8671 -0.4982 0.4982 0.8671 -56.9818 169.9111)" width="7.1" height="1"/>
<rect x="286.6" y="196.2" transform="matrix(0.8665 -0.4992 0.4992 0.8665 -59.6143 170.4526)" width="4.4" height="1"/>
<path d="M286.5,176.8l-0.5-0.9l0.4-0.2c2.6-1.5,5.3-3,8.2-4.6l0.4-0.2l0.5,0.9l-0.4,0.2c-2.8,1.5-5.6,3.1-8.1,4.5L286.5,176.8z"/>
<path d="M286.4,180.6l-0.5-0.9l2.4-1.4c2.2-1.3,4.5-2.6,6.7-3.8l0.4-0.2l0.5,0.9l-0.4,0.2c-2.2,1.3-4.5,2.5-6.7,3.8L286.4,180.6z"/>
<rect x="291.7" y="147.4" transform="matrix(0.865 -0.5018 0.5018 0.865 -34.4665 167.7946)" width="5.7" height="1"/>
<path d="M293.9,151.4l-0.5-0.9l0.4-0.2l4.7-2.7l0.4-0.2l0.5,0.9l-0.4,0.2l-4.7,2.7L293.9,151.4z"/>
<path d="M286.9,371.7L286,370l0.9-0.5c5.5-2.8,10.5-5.2,15-7.3l0.9-0.4l0.8,1.8l-0.9,0.4c-4.5,2.1-9.5,4.5-15,7.3L286.9,371.7z"/>
<path d="M286.7,377.5l-0.9-1.8l0.9-0.5c1.1-0.6,4-2.2,6.9-3.7s5.8-3.1,6.9-3.7l0.9-0.5l0.9,1.8l-0.9,0.5c-1.1,0.6-4,2.2-6.9,3.7
	c-3,1.6-5.8,3.1-6.9,3.7L286.7,377.5z"/>
<path d="M286.5,383l-0.9-1.8l0.9-0.5c3.2-1.6,6.5-3.4,9.6-5.1c1.8-1,3.5-1.9,5.3-2.9l0.9-0.5l0.9,1.8l-0.9,0.5
	c-1.8,0.9-3.5,1.9-5.3,2.9c-3.2,1.7-6.4,3.5-9.7,5.1L286.5,383z"/>
<path d="M286.3,390.4l-1-1.7l0.9-0.5c4.6-2.6,9.4-5.3,14.8-8.3l0.9-0.5l1,1.8l-0.9,0.5c-5.4,3-10.2,5.7-14.8,8.2L286.3,390.4z"/>
<path d="M285.7,395.3l-0.9-1.8l0.9-0.5c3.3-1.7,6.7-3.5,9.9-5.2l5-2.7l0.9-0.5l0.9,1.8l-0.9,0.5c-1.7,0.9-3.3,1.8-5,2.7
	c-3.3,1.8-6.6,3.6-10,5.3L285.7,395.3z"/>
<path d="M285.3,400.6l-1-1.7l0.9-0.5c5.1-2.8,10.1-5.7,15.2-8.5l0.9-0.5l1,1.8l-0.9,0.5l-15.2,8.5L285.3,400.6z"/>
<path d="M285.3,405.3l-1-1.7l7.3-4.2l8.2-4.8l0.9-0.5l1,1.7l-0.9,0.5l-8.2,4.8L285.3,405.3z"/>
<path d="M285,409.5l-1-1.7l0.9-0.5l7.6-4.5l7-4.1l0.9-0.5l1,1.7l-0.9,0.5l-7,4.1l-7.6,4.5L285,409.5z"/>
<path d="M284.9,413.5l-1-1.7l0.9-0.5l8.2-4.8l6.5-3.8l0.9-0.5l1,1.7l-0.9,0.5l-6.4,3.8l-8.2,4.8L284.9,413.5z"/>
<path d="M284.7,418.1l-1-1.7l0.9-0.5l8.5-5l5.6-3.3l0.9-0.5l1,1.7l-0.9,0.5l-5.6,3.3l-8.5,5L284.7,418.1z"/>
<path d="M284.2,422.1l-1-1.7l0.9-0.5l8.5-5l6.1-3.6l0.9-0.5l1,1.7l-0.9,0.5l-6.1,3.6l-8.5,5L284.2,422.1z"/>
<path d="M287.1,424.2l-1-1.7l0.9-0.5c2.3-1.3,4.7-2.7,7-4l3.7-2.1l0.9-0.5l1,1.7l-0.9,0.5l-3.6,2.1c-2.3,1.3-4.7,2.6-7,4
	L287.1,424.2z"/>
<path d="M410.2,416.2l-0.2-0.4l4.5-2.5l4.4-2.5l0.2,0.4l-4.4,2.5C413.2,414.5,411.7,415.3,410.2,416.2z"/>
<path d="M410.9,420.5l-0.2-0.4l3.6-2.1c1.7-1,3.4-1.9,5-2.9l0.2,0.4c-1.7,1-3.3,1.9-5,2.9L410.9,420.5z"/>
<path d="M410.7,425.4l-0.2-0.4c2-1.1,3.9-2.3,5.9-3.4c1.7-1,3.3-1.9,5-2.9l0.2,0.4c-1.7,1-3.4,1.9-5,2.9
	C414.6,423.1,412.7,424.2,410.7,425.4z"/>
<path d="M411,429.6l-0.3-0.4c1.9-1.1,3.9-2.2,5.9-3.3s3.9-2.2,5.9-3.4l0.2,0.4c-2,1.1-4,2.3-5.9,3.4S413,428.5,411,429.6z"/>
<path d="M409.4,397.8l-0.2-0.4c1.6-0.9,3.1-1.8,4.7-2.6s3.4-1.9,5.1-2.9l0.2,0.4c-1.7,1-3.4,1.9-5.1,2.9S411,396.9,409.4,397.8z"/>
<path d="M409.5,402.5l-0.2-0.4c1.9-1.1,3.7-2.1,5.6-3.1l4.2-2.4l0.2,0.4l-4.2,2.4C413.2,400.4,411.4,401.4,409.5,402.5z"/>
<path d="M409.8,407.1l-0.2-0.4c2-1.2,4.1-2.4,6.1-3.5l3-1.7l0.2,0.4l-3,1.7C413.9,404.7,411.9,405.9,409.8,407.1z"/>
<path d="M410,411.5l-0.3-0.4c2.1-1.2,4.2-2.5,6.3-3.6l3.1-1.8l0.2,0.4l-3.1,1.8C414.2,409.1,412,410.3,410,411.5z"/>
<path d="M408.5,380.3l-0.2-0.4c1.5-0.8,3-1.6,4.5-2.4c1.7-0.9,3.5-1.8,5.2-2.8l0.2,0.4c-1.7,1-3.5,1.9-5.2,2.8
	C411.5,378.7,410,379.5,408.5,380.3z"/>
<path d="M409,384.6l-0.2-0.4c1.5-0.9,3.1-1.7,4.6-2.5c1.8-1,3.7-2,5.5-3l0.2,0.4c-1.8,1.1-3.7,2.1-5.5,3
	C412.1,383,410.5,383.8,409,384.6z"/>
<path d="M409.1,389.5l-0.2-0.4c1.5-0.9,3-1.7,4.5-2.5c2-1,4-2.1,6-3.3l0.2,0.4c-2,1.1-4,2.2-6,3.3
	C412.1,387.8,410.6,388.6,409.1,389.5z"/>
<path d="M409.5,393.7l-0.2-0.4c1.9-1.1,3.9-2.2,5.9-3.3c1.5-0.8,3-1.6,4.5-2.5l0.2,0.4l-4.5,2.5
	C413.4,391.5,411.4,392.6,409.5,393.7z"/>
<path d="M409.5,359.1l-0.3-0.4l4.8-2.9l2.6-1.6l0.3,0.4l-2.6,1.6C412.8,357.2,411.1,358.2,409.5,359.1z"/>
<path d="M409.5,363.7l-0.3-0.4c2.2-1.4,4.4-2.7,6.6-4l0.7-0.5l0.3,0.4l-0.7,0.4C413.9,361,411.7,362.4,409.5,363.7z"/>
<path d="M409.6,368.5l-0.3-0.4c2.3-1.5,4.7-2.9,7-4.3l0.5-0.3l0.3,0.4l-0.5,0.3C414.3,365.6,411.9,367.1,409.6,368.5z"/>
<path d="M408.1,375.7l-0.3-0.4c2.1-1.3,4.3-2.6,6.4-3.8l3-1.8l0.3,0.4l-3,1.8C412.4,373.1,410.2,374.4,408.1,375.7z"/>
<path d="M408.7,340.7l-0.3-0.4l3.8-2.3l4.2-2.5l0.2,0.4c-1.4,0.8-2.8,1.7-4.1,2.5L408.7,340.7z"/>
<path d="M409,345.1l-0.3-0.4l4.4-2.6l3.2-1.9l0.2,0.4l-3.2,1.9L409,345.1z"/>
<path d="M409.3,349.7l-0.3-0.4c1.6-1,3.1-1.9,4.7-2.8l2.7-1.6l0.3,0.4l-2.8,1.6C412.5,347.8,410.9,348.7,409.3,349.7z"/>
<path d="M409.5,354.1l-0.3-0.4c1.7-1.1,3.5-2.1,5.2-3.1l2.4-1.4l0.2,0.4l-2.4,1.4C412.9,352,411.2,353,409.5,354.1z"/>
<path d="M406.8,323l-0.3-0.4c1.2-0.7,2.5-1.5,3.7-2.2c2-1.2,4-2.4,6-3.6l0.3,0.4c-2,1.2-4,2.4-6,3.6
	C409.3,321.6,408,322.3,406.8,323z"/>
<path d="M407.5,327.2l-0.2-0.4l2.8-1.6c2.2-1.3,4.5-2.6,6.7-4l0.3,0.4c-2.2,1.4-4.5,2.8-6.7,4.1L407.5,327.2z"/>
<path d="M407.8,331.8l-0.3-0.4l2.8-1.6c2.1-1.3,4.4-2.6,6.5-3.9l0.3,0.4c-2.1,1.4-4.4,2.7-6.5,3.9L407.8,331.8z"/>
<path d="M408.2,336.1l-0.2-0.4l3.2-1.9c1.7-1,3.5-2,5.2-3.1l0.3,0.4c-1.7,1-3.5,2.1-5.2,3.1L408.2,336.1z"/>
<path d="M406.1,302l-0.2-0.4l2-1.2c1.7-1,3.5-2,5.2-3.1l0.3,0.4c-1.7,1-3.5,2.1-5.2,3.1L406.1,302z"/>
<path d="M406.1,309.9l-0.3-0.4c1.1-0.7,2.3-1.4,3.4-2c2.5-1.5,5.1-3,7.5-4.6l0.3,0.4c-2.5,1.6-5.1,3.1-7.6,4.6
	C408.4,308.5,407.3,309.2,406.1,309.9z"/>
<path d="M406.1,314.8l-0.2-0.4c1.6-1,3.3-2,4.9-3s3.3-2,5-3l0.3,0.4l-5,3C409.4,312.8,407.7,313.8,406.1,314.8z"/>
<path d="M406.6,318.9l-0.3-0.4c2-1.2,4-2.4,6-3.6l3.8-2.3l0.3,0.4l-3.8,2.3C410.6,316.5,408.6,317.7,406.6,318.9z"/>
<path d="M411.4,434.5l-0.2-0.4c1.2-0.7,2.3-1.3,3.5-2c2.5-1.4,5-2.9,7.6-4.3l0.2,0.5c-2.6,1.3-5.2,2.8-7.6,4.2
	C413.7,433.2,412.5,433.9,411.4,434.5z"/>
<path d="M411.7,440l-0.3-0.4l3.2-2c2.3-1.4,4.6-2.9,7-4.3l0.3,0.4c-2.4,1.4-4.7,2.8-7,4.3L411.7,440z"/>
<path d="M411.9,445.6l-0.3-0.4c1.6-1,3.2-2,4.8-2.9c2.1-1.3,4.3-2.6,6.5-3.9l0.3,0.4c-2.2,1.3-4.4,2.6-6.5,3.9
	C415.1,443.6,413.5,444.6,411.9,445.6z"/>
<path d="M412.2,452.9l-0.5-0.8l1.1-0.7c2.9-1.8,5.8-3.7,8.7-5.5l0.5,0.9c-2.9,1.8-5.8,3.6-8.7,5.5L412.2,452.9z"/>
<path d="M412,458l-0.5-0.9c1.7-1,3.4-2.1,5.1-3.1c1.5-0.9,3-1.9,4.5-2.8l0.5,0.9c-1.5,0.9-3,1.8-4.5,2.8L412,458z"/>
<path d="M412.3,462.9l-0.5-0.8l1.6-1l8.8-5.6l0.5,0.9c-2.9,1.9-5.9,3.7-8.8,5.6L412.3,462.9z"/>
<path d="M412.1,467.8l-0.5-0.8l3.4-2.2c2.4-1.6,4.9-3.2,7.3-4.8l0.5,0.8c-2.4,1.6-4.9,3.2-7.3,4.8L412.1,467.8z"/>
<path d="M408.6,474.2l-0.5-0.8l7.2-4.8l6.5-4.3l0.5,0.8l-6.5,4.3L408.6,474.2z"/>
<path d="M408.7,478.2l-0.5-0.8c2.6-1.7,5.2-3.4,7.8-5.1l6.1-4l0.6,0.8c-2,1.3-4,2.7-6.1,4L408.7,478.2z"/>
<path d="M408.7,482.8l-0.5-0.8c2.7-1.8,5.4-3.6,8.1-5.4l5.5-3.6l0.5,0.8l-5.5,3.6C414.1,479.2,411.4,481,408.7,482.8z"/>
<path d="M408.4,486.9l-0.6-0.8l8.3-5.5l5.6-3.7l0.5,0.8l-5.6,3.7C413.9,483.2,411.2,485,408.4,486.9z"/>
<path d="M411.5,488.8l-0.5-0.8c2.3-1.5,4.6-3,7-4.5l4-2.5l0.5,0.8l-4,2.5C416.1,485.9,413.8,487.3,411.5,488.8z"/>
<path d="M307,388.4l-0.2-0.4l2.8-1.5c4.2-2.3,8.5-4.8,12.6-7.4l0.3,0.4c-4.1,2.6-8.5,5-12.6,7.4L307,388.4z"/>
<path d="M307,393l-0.2-0.4l2.5-1.4c4.2-2.4,8.5-4.9,12.6-7.5l0.3,0.4c-4.1,2.6-8.4,5.1-12.6,7.5L307,393z"/>
<path d="M306.9,397.9l-0.2-0.4l3.8-2.2c3.7-2.1,7.5-4.3,11.2-6.6l0.3,0.4c-3.6,2.3-7.5,4.5-11.2,6.6L306.9,397.9z"/>
<path d="M307.2,402.2l-0.2-0.4l3.8-2.1c3.6-2.1,7.4-4.2,11-6.5l0.3,0.4c-3.6,2.3-7.3,4.4-11,6.5
	C309.7,400.7,308.5,401.5,307.2,402.2z"/>
<path d="M307.1,369.5l-0.2-0.4c0.9-0.5,1.7-1,2.6-1.5c3.6-2,7.4-4.1,11-6.4l0.3,0.4c-3.6,2.3-7.4,4.4-11,6.5L307.1,369.5z"/>
<path d="M306.9,374.3l-0.2-0.4l3-1.7c3.7-2.1,7.6-4.3,11.2-6.6l0.3,0.4c-3.7,2.4-7.5,4.5-11.3,6.6L306.9,374.3z"/>
<path d="M306.9,379.1l-0.2-0.4l3.5-2c3.9-2.2,7.8-4.5,11.6-6.9l0.3,0.4c-3.8,2.4-7.8,4.7-11.6,6.9L306.9,379.1z"/>
<path d="M307,383.5l-0.2-0.4l3.6-2.1c3.8-2.2,7.7-4.4,11.5-6.8l0.3,0.4c-3.8,2.4-7.7,4.6-11.5,6.8L307,383.5z"/>
<path d="M310.9,354.1l-0.2-0.4c1-0.5,1.9-1,2.8-1.6l0.3,0.4C312.8,353.1,311.8,353.6,310.9,354.1z"/>
<path d="M310.8,359l-0.2-0.4c1.5-0.8,2.8-1.5,3.9-2.2l0.3,0.4C313.6,357.5,312.4,358.2,310.8,359z"/>
<path d="M307.2,365.3l-0.2-0.4l2.6-1.5c2.6-1.5,5.3-3,7.9-4.6l0.3,0.4c-2.6,1.6-5.3,3.1-7.9,4.6L307.2,365.3z"/>
<path d="M316.3,325.1l-0.3-0.4c0.9-0.6,2-1.3,3.2-2l0.3,0.4C318.4,323.9,317.2,324.6,316.3,325.1z"/>
<path d="M314.4,330.8l-0.3-0.4l0.4-0.2c1.9-1.1,3.8-2.3,5.7-3.5l0.3,0.4c-1.9,1.2-3.8,2.4-5.7,3.5L314.4,330.8z"/>
<path d="M312.7,336.7l-0.3-0.4l1.3-0.8c2.5-1.5,5.1-3.1,7.6-4.8l0.3,0.4c-2.5,1.6-5.1,3.2-7.6,4.8L312.7,336.7z"/>
<path d="M310.9,344.2l-0.2-0.4l0.5-0.3c1.4-0.8,2.8-1.6,4.1-2.5l0.3,0.4c-1.4,0.9-2.8,1.7-4.1,2.5L310.9,344.2z"/>
<path d="M307.1,407.3l-0.2-0.4c1-0.5,2-1.1,3-1.7c3-1.8,6.1-3.5,9.4-4.9l0.2,0.4c-0.5,0.4-1.1,0.7-1.6,1l-0.1-0.2
	c-2.6,1.2-5.1,2.7-7.6,4.1C309.1,406.2,308.1,406.8,307.1,407.3z"/>
<path d="M306.9,413.1l-0.3-0.4l2.2-1.4c2-1.3,4.2-2.6,6.3-3.8l0.3,0.4c-2.1,1.2-4.2,2.5-6.3,3.8L306.9,413.1z"/>
<path d="M307.1,418.6l-0.3-0.4l3.6-2.2c2.9-1.8,5.8-3.6,8.8-5.3l0.2,0.4c-3,1.7-5.9,3.5-8.8,5.3L307.1,418.6z"/>
<path d="M306.9,425.9l-0.3-0.4l1.4-0.9c4-2.5,8.1-5.1,12.2-7.6l0.3,0.4c-4.1,2.5-8.2,5.1-12.2,7.6L306.9,425.9z"/>
<path d="M306.8,431l-0.2-0.4l4.1-2.5c3-1.9,6.2-3.8,9.3-5.6l0.2,0.4c-3.1,1.8-6.3,3.7-9.3,5.6L306.8,431z"/>
<path d="M306.3,436.3l-0.3-0.4l1.6-1c4.2-2.7,8.5-5.4,12.8-8.1l0.3,0.4c-4.3,2.7-8.6,5.4-12.8,8.1L306.3,436.3z"/>
<path d="M306.1,441.2l-0.3-0.4l3.1-2.1c3.7-2.4,7.6-5,11.3-7.5l0.3,0.4c-3.8,2.5-7.6,5-11.3,7.5L306.1,441.2z"/>
<path d="M306.3,445.2l-0.3-0.4l3.1-2c3.6-2.4,7.4-4.8,11-7.3l0.3,0.4c-3.7,2.5-7.4,4.9-11,7.3L306.3,445.2z"/>
<path d="M307,448.8l-0.3-0.4l3-2c3.3-2.2,6.8-4.4,10.1-6.7l0.3,0.4c-3.4,2.2-6.8,4.5-10.1,6.7L307,448.8z"/>
<path d="M308.1,452.7l-0.3-0.4l2.6-1.7c3-1.9,5.9-3.9,8.8-5.8l0.3,0.4c-2.9,1.9-5.9,3.9-8.8,5.8L308.1,452.7z"/>
<path d="M309.1,455.9l-0.3-0.4l2-1.3c2.7-1.8,5.4-3.6,8.1-5.4l0.3,0.4c-2.7,1.8-5.4,3.6-8.1,5.4L309.1,455.9z"/>
<path d="M310.4,459.1l-0.3-0.4l1.9-1.2c2.1-1.3,4.2-2.7,6.3-4.1l0.3,0.4c-2.1,1.4-4.2,2.7-6.3,4.1L310.4,459.1z"/>
<path d="M327.7,490.6l-0.4-0.2l1.5-2.8c2.2-4.3,4.5-8.7,6.5-13.1l0.5,0.2c-2,4.5-4.3,8.9-6.5,13.1
	C328.7,488.7,328.2,489.6,327.7,490.6z"/>
<path d="M330.2,494.5l-0.4-0.2l1.3-2.6c2.2-4.3,4.4-8.7,6.4-13.2l0.5,0.2c-2,4.5-4.2,8.9-6.4,13.2L330.2,494.5z"/>
<path d="M333.5,497.4l-0.4-0.2l1.3-2.6c2-3.8,4-7.8,5.8-11.7l0.5,0.2c-1.8,4-3.8,7.9-5.8,11.8L333.5,497.4z"/>
<path d="M336.7,499.7l-0.4-0.2l0.7-1.4c1.9-3.8,3.9-7.7,5.7-11.6l0.5,0.2c-1.8,3.9-3.8,7.8-5.7,11.6L336.7,499.7z"/>
<path d="M317.5,474.7l-0.5-0.2c0.5-0.9,0.9-1.7,1.4-2.6c1.9-3.7,3.9-7.5,5.7-11.4l0.5,0.2c-1.8,3.9-3.8,7.7-5.7,11.5L317.5,474.7z"
	/>
<path d="M319.9,478.9l-0.4-0.2l1.6-3.1c2-3.8,4-7.8,5.8-11.7l0.5,0.2c-1.8,4-3.8,8-5.8,11.8L319.9,478.9z"/>
<path d="M322.5,482.9l-0.5-0.2l1.8-3.6c2-4,4.1-8,5.9-12.2l0.5,0.2c-1.9,4.1-3.9,8.2-5.9,12.2C323.7,480.5,323.1,481.7,322.5,482.9z
	"/>
<path d="M326.5,483.5l-0.5-0.2l0.3-0.6c2-4,4.1-8,5.9-12.1l0.5,0.2c-1.9,4.1-3.9,8.2-5.9,12.2L326.5,483.5z"/>
<path d="M314.8,464l-0.4-0.2c0.8-1.5,1.5-2.8,2-4l0.5,0.2C316.3,461.1,315.6,462.4,314.8,464z"/>
<path d="M315.3,471.2l-0.5-0.2l1.4-2.7c1.4-2.6,2.8-5.4,4.1-8.1l0.5,0.2c-1.3,2.8-2.7,5.5-4.1,8.2L315.3,471.2z"/>
<path d="M340.5,501.8l-0.5-0.2c1.3-2.7,2.8-5.3,4.4-7.8l0.4,0.2c-0.2,0.6-0.5,1.1-0.8,1.8l-0.2-0.1
	C342.7,497.7,341.6,499.8,340.5,501.8z"/>
<path d="M359.1,510.6l-3.4-4.1c-1.5-1.9-3.1-3.8-4.6-5.7l0.4-0.3c1.5,1.9,3.1,3.8,4.6,5.7c1.1,1.4,2.3,2.8,3.4,4.1L359.1,510.6z"/>
<path d="M368.1,509.8l-1-1.2c-1.7-2-3.4-4-5-6l1-0.8l5,6l1,1.2L368.1,509.8z"/>
<path d="M374.6,509.1c-1.3-1.6-2.6-3.2-3.9-4.8l-1.6-1.9l1-0.8l1.6,1.9c1.3,1.6,2.6,3.2,3.9,4.8L374.6,509.1z"/>
<rect x="378.2" y="499.9" transform="matrix(0.7633 -0.646 0.646 0.7633 -236.359 364.1194)" width="1.2" height="9.6"/>
<rect x="383.8" y="498.5" transform="matrix(0.7532 -0.6578 0.6578 0.7532 -236.3105 377.1295)" width="1.2" height="10"/>
<rect x="388" y="494.8" transform="matrix(0.7507 -0.6606 0.6606 0.7507 -233.0778 381.2234)" width="1.2" height="9.3"/>
<path d="M395.8,504.1l-1.8-2.1l-4.9-5.6l0.9-0.8l4.9,5.6l1.9,2.1L395.8,504.1z"/>
<path d="M400,501.5l-0.7-0.9l-5.6-6.4l0.9-0.8c1.9,2.1,3.7,4.2,5.6,6.4l0.7,0.8L400,501.5z"/>
<path d="M403.5,499.2c-2.1-2.4-4.2-4.8-6.3-7.2l0.9-0.8c2.1,2.4,4.2,4.8,6.3,7.2L403.5,499.2z"/>
<path d="M407.1,496.5c-1.8-2.2-3.7-4.4-5.6-6.5l1-0.8c1.9,2.2,3.7,4.3,5.6,6.5L407.1,496.5z"/>
<path d="M381.6,358.9l-0.4-0.6c1.5-0.8,3-1.7,4.4-2.5c2.1-1.2,4.1-2.3,6.2-3.5l0.4,0.6c-2.1,1.2-4.1,2.3-6.2,3.5
	C384.5,357.2,383,358,381.6,358.9z"/>
<path d="M381.9,363.4l-0.4-0.6l3.7-2.1c2.5-1.4,5-2.8,7.4-4.3l0.4,0.6c-2.5,1.4-4.9,2.9-7.4,4.3L381.9,363.4z"/>
<path d="M382.4,367.9l-0.4-0.6c1.9-1.1,3.7-2.1,5.6-3.2c2-1.1,4.1-2.3,6.1-3.5l0.4,0.6c-2,1.2-4.1,2.3-6.1,3.5
	C386.1,365.8,384.3,366.8,382.4,367.9z"/>
<path d="M382.7,372.2l-0.4-0.6c1.8-1.1,3.7-2.1,5.5-3.2c2.2-1.2,4.4-2.5,6.5-3.7l0.4,0.6c-2.2,1.3-4.4,2.5-6.5,3.7
	C386.4,370.1,384.6,371.1,382.7,372.2z"/>
<path d="M378.6,341.8l-0.4-0.6c2-1.2,4-2.3,6-3.4l1.7-1l0.4,0.6l-1.7,1C382.6,339.5,380.6,340.6,378.6,341.8z"/>
<path d="M379.2,346.1l-0.4-0.6c2.2-1.3,4.4-2.6,6.6-3.8l2.3-1.3l0.4,0.6l-2.3,1.3C383.7,343.6,381.4,344.9,379.2,346.1z"/>
<path d="M379.2,351l-0.4-0.6c2.6-1.5,5.2-3.1,7.8-4.5l2.8-1.6l0.4,0.6l-2.8,1.6C384.4,347.9,381.8,349.5,379.2,351z"/>
<path d="M380.5,354.7l-0.4-0.6c2.4-1.5,4.9-2.9,7.3-4.2l3.1-1.8l0.4,0.6l-3.1,1.8C385.4,351.9,382.9,353.3,380.5,354.7z"/>
<path d="M379.5,332.7l-0.4-0.6c1-0.6,2.1-1.2,3-1.7l0.4,0.7C381.4,331.7,380.5,332.2,379.5,332.7z"/>
<path d="M379.8,337.1l-0.4-0.6c1.5-0.9,3-1.8,4.5-2.6l0.2-0.1l0.4,0.6l-0.2,0.1C382.8,335.3,381.2,336.2,379.8,337.1z"/>
<path d="M383.4,376.9l-0.4-0.7c1.1-0.6,2.2-1.3,3.4-1.9c2.7-1.6,5.5-3.2,8.4-4.6l0.3,0.7c-2.8,1.4-5.6,3-8.3,4.5
	C385.6,375.6,384.5,376.3,383.4,376.9z"/>
<path d="M383.1,382.7l-0.4-0.6l3.2-2c2.3-1.4,4.7-2.9,7-4.3l0.4,0.6c-2.4,1.4-4.7,2.8-7,4.3L383.1,382.7z"/>
<path d="M383,388.5l-0.4-0.6l5.1-3.1c2.5-1.5,5.1-3.1,7.6-4.6l0.4,0.6c-2.6,1.5-5.1,3.1-7.6,4.6L383,388.5z"/>
<path d="M383.1,395.6l-0.4-0.6l1.2-0.7c3.7-2.4,7.6-4.8,11.4-7.1l0.4,0.6c-3.8,2.4-7.6,4.8-11.4,7.1L383.1,395.6z"/>
<path d="M383,400.7l-0.4-0.6c1.8-1.1,3.6-2.2,5.4-3.3c2.6-1.6,5.3-3.2,8-4.8l0.4,0.6c-2.7,1.6-5.4,3.2-8,4.8L383,400.7z"/>
<path d="M383.9,405.1l-0.4-0.6l1.6-1c3.4-2.2,6.8-4.3,10.2-6.5l0.4,0.6c-3.4,2.1-6.8,4.3-10.2,6.5L383.9,405.1z"/>
<path d="M384,409.8l-0.4-0.6l2.9-1.9c2.9-1.9,5.8-3.8,8.7-5.7l0.4,0.6l-8.7,5.7L384,409.8z"/>
<path d="M385,413.3l-0.4-0.6l2.6-1.7l7.3-4.8l0.4,0.6l-7.3,4.8L385,413.3z"/>
<path d="M385.4,417.2l-0.4-0.6l2.7-1.8l6.6-4.3l0.4,0.6c-2.2,1.5-4.4,2.9-6.6,4.3L385.4,417.2z"/>
<path d="M386.1,421.3l-0.4-0.6l2.4-1.6l5.6-3.7l0.4,0.6c-1.9,1.2-3.8,2.5-5.6,3.7L386.1,421.3z"/>
<path d="M386.3,425l-0.4-0.6l2.4-1.6l5.1-3.4l0.4,0.6l-5.1,3.4L386.3,425z"/>
<path d="M386.6,428.9l-0.4-0.6l2.7-1.7c1.5-1,3-1.9,4.5-2.9l0.4,0.6l-4.5,2.9L386.6,428.9z"/>
<path d="M407.2,220.5l-0.2-0.4l2.1-1.2c3.9-2.2,7.8-4.4,11.6-6.8l0.3,0.4c-3.8,2.4-7.8,4.6-11.6,6.8L407.2,220.5z"/>
<path d="M407.1,225.2l-0.2-0.4l1.9-1.1c3.8-2.2,7.8-4.5,11.6-6.9l0.3,0.4c-3.8,2.4-7.8,4.7-11.6,6.9L407.1,225.2z"/>
<path d="M407,230l-0.2-0.4c1-0.6,2-1.1,3-1.7c3.5-2,7-4,10.5-6.2l0.3,0.4c-3.4,2.2-7,4.2-10.5,6.2C409,228.9,408,229.5,407,230z"/>
<path d="M406.5,234.8l-0.2-0.4c1.1-0.6,2.2-1.3,3.4-1.9c3.5-2,7.2-4.1,10.6-6.3l0.3,0.4c-3.5,2.2-7.1,4.3-10.7,6.3L406.5,234.8z"/>
<path d="M407.8,201.4l-0.2-0.4l1.7-1c3.2-1.8,6.6-3.7,9.8-5.7l0.3,0.4c-3.2,2-6.5,3.9-9.8,5.8L407.8,201.4z"/>
<path d="M407.9,206l-0.2-0.4l1.9-1.1c3.3-1.9,6.7-3.8,9.9-5.9l0.3,0.4c-3.2,2.1-6.6,4-9.9,5.9L407.9,206z"/>
<path d="M407.9,210.7l-0.2-0.4l2.3-1.3c3.4-2,7-4,10.4-6.2l0.3,0.4c-3.4,2.2-7,4.2-10.4,6.2L407.9,210.7z"/>
<path d="M407.5,215.4l-0.2-0.4l2.6-1.5c3.5-2,7.1-4,10.5-6.2l0.3,0.4c-3.4,2.2-7,4.2-10.5,6.2L407.5,215.4z"/>
<path d="M407.8,183.8l-0.5-0.9l0.5-0.2c1.2-0.7,2.5-1.3,3.7-2.1l0.5,0.9c-1.2,0.7-2.5,1.4-3.7,2.1L407.8,183.8z"/>
<path d="M407.9,188.4l-0.5-0.9l0.7-0.4c1.2-0.7,2.5-1.4,3.8-2.1l0.5,0.9c-1.2,0.8-2.5,1.5-3.8,2.1L407.9,188.4z"/>
<path d="M407.9,192.9l-0.2-0.4l0.9-0.5c1.5-0.8,3.1-1.7,4.5-2.6l0.3,0.4c-1.5,0.9-3.1,1.8-4.6,2.6L407.9,192.9z"/>
<path d="M407.7,197.3l-0.2-0.4l1.7-0.9c2.3-1.3,4.6-2.6,6.9-4l0.3,0.4c-2.2,1.4-4.6,2.7-6.9,4L407.7,197.3z"/>
<polygon points="408.3,171.8 407.8,171 412.4,168.2 412.9,169 "/>
<path d="M407.7,178.4l-0.2-0.4l1.3-0.8c1.7-1,3.5-2.1,5.2-3.1l0.3,0.4c-1.7,1.1-3.5,2.1-5.2,3.1L407.7,178.4z"/>
<path d="M406.8,239.8l-0.2-0.4c0.9-0.5,1.8-1,2.8-1.6c2.7-1.6,5.5-3.1,8.5-4.4l0.2,0.4c-0.5,0.4-1.1,0.7-1.6,1l-0.1-0.2
	c-2.3,1.1-4.5,2.4-6.7,3.6C408.6,238.8,407.7,239.3,406.8,239.8z"/>
<path d="M406.1,245.7l-0.3-0.4l1.9-1.1c1.9-1.2,3.9-2.4,5.9-3.6l0.3,0.4c-2,1.2-4,2.4-5.9,3.6L406.1,245.7z"/>
<path d="M405.6,251.7l-0.3-0.4l3.6-2.2c2.9-1.8,5.8-3.6,8.8-5.3l0.2,0.4c-3,1.7-5.9,3.5-8.8,5.3L405.6,251.7z"/>
<path d="M406,258.6l-0.3-0.4l0.7-0.4c4.1-2.6,8.3-5.2,12.4-7.8l0.3,0.4c-4.2,2.5-8.4,5.2-12.4,7.7L406,258.6z"/>
<path d="M406.1,263.6l-0.3-0.4l3.1-1.9c3.1-1.9,6.4-3.9,9.6-5.7l0.2,0.4c-3.2,1.9-6.5,3.8-9.6,5.7L406.1,263.6z"/>
<path d="M406.2,268.5l-0.3-0.4c4.2-2.7,8.6-5.5,13-8.2l0.3,0.4C414.9,263,410.5,265.8,406.2,268.5z"/>
<path d="M406.2,273.3l-0.3-0.4l1.1-0.7c3.9-2.5,7.9-5.2,11.8-7.8l0.3,0.4c-3.9,2.6-8,5.3-11.8,7.8L406.2,273.3z"/>
<path d="M406,277.5l-0.3-0.4l1.2-0.8c3.9-2.5,7.9-5.2,11.8-7.8l0.3,0.4c-3.9,2.6-8,5.3-11.9,7.8L406,277.5z"/>
<path d="M406,281.6l-0.3-0.4l2.8-1.9c3.3-2.1,6.6-4.4,10-6.6l0.3,0.4c-3.3,2.2-6.7,4.4-10,6.6L406,281.6z"/>
<path d="M405.6,286.5l-0.3-0.4l3.2-2.1c3.1-2,6.3-4.1,9.4-6.2l0.3,0.4c-3.1,2.1-6.3,4.2-9.4,6.2L405.6,286.5z"/>
<path d="M405.7,290.2l-0.3-0.4l2.9-1.9c3-2,6.1-4,9.1-6l0.3,0.4c-3,2-6.1,4.1-9.2,6L405.7,290.2z"/>
<path d="M405.6,294.3l-0.3-0.4l3.6-2.3c2.6-1.6,5.3-3.4,7.9-5.1l0.3,0.4c-2.6,1.7-5.3,3.4-8,5.1L405.6,294.3z"/>
<path d="M406.2,153.8l-0.5-0.8l3.9-2.6l0.5,0.8L406.2,153.8z"/>
<path d="M407.1,157.1l-0.3-0.4c2.1-1.3,4.1-2.7,6.2-4.1l0.3,0.4C411.3,154.4,409.2,155.7,407.1,157.1z"/>
<path d="M407.8,160.7l-0.3-0.4c2.3-1.5,4.6-3.1,7-4.6l0.3,0.4C412.4,157.7,410.1,159.2,407.8,160.7z"/>
<path d="M409,164.5l-0.3-0.4l5.1-3.4l0.3,0.4C412.4,162.2,410.7,163.3,409,164.5z"/>
<path d="M410.3,167.4l-0.3-0.4l3.4-2.3l0.3,0.4L410.3,167.4z"/>
<path class="st4" d="M392.8,252.9c-6.8-0.1-14.3-6.7-18.2-16.9c-4.7-12.4-2.2-25.2,5.5-28.8c1.4-0.6,2.8-0.9,4.3-0.9
	c6.9,0.1,14.3,6.7,18.2,16.9c4.7,12.4,2.2,25.2-5.5,28.8C395.8,252.6,394.3,252.9,392.8,252.9z M388,191.7c-1.8,0-3.5,0.3-5.2,0.8
	c-12.2,4-18.1,22-13.4,40.1c4.1,15.6,14.9,26.2,25.5,26.3c1.8,0,3.5-0.3,5.2-0.8c12.2-4,18.1-22,13.4-40.1
	C409.4,202.4,398.6,191.8,388,191.7z"/>
<path class="st6" d="M416.9,217l-0.8,0.2c1.2,4.6,1.8,9.4,1.8,14.1c0,6.6-1.6,13.2-4.6,19.1c-2.9,5.2-7,9-12,10.7
	c-1.9,0.6-3.8,0.9-5.8,0.9c-5.7-0.1-11.5-3-16.5-8c-5.5-5.8-9.4-12.9-11.3-20.7c-1.2-4.6-1.8-9.4-1.8-14.1c0-6.6,1.5-13.2,4.6-19.1
	c2.9-5.2,7-9.1,12-10.7c1.9-0.6,3.8-0.9,5.8-0.9c5.8,0.1,11.6,2.9,16.6,7.9c5.5,5.8,9.4,12.9,11.3,20.7L416.9,217l0.8-0.3
	c-2-8-6-15.4-11.8-21.4c-5.2-5.2-11.4-8.3-17.7-8.4c-2.1,0-4.2,0.3-6.3,1c-5.5,1.8-9.9,6-12.9,11.5c-3.2,6.1-4.8,12.9-4.8,19.8
	c0,4.9,0.6,9.8,1.8,14.6c2,8,6,15.4,11.7,21.4c5.2,5.2,11.4,8.3,17.7,8.4c2.1,0,4.3-0.3,6.3-1c5.5-1.8,9.9-6,12.9-11.5
	c3.2-6.1,4.8-12.9,4.8-19.8c0-4.9-0.6-9.8-1.8-14.6L416.9,217z"/>
<path class="st6" d="M394.9,259c-10.7-0.1-21.4-10.8-25.5-26.3c-4.8-18.1,1.2-36.1,13.4-40.1c1.7-0.6,3.4-0.8,5.2-0.8
	c10.7,0.1,21.4,10.8,25.5,26.3c4.8,18.1-1.2,36.1-13.4,40.1C398.5,258.7,396.7,259,394.9,259z M388.2,188.6L388.2,188.6
	c-2,0-3.9,0.3-5.8,0.9c-5,1.7-9.1,5.5-12,10.7c-3.1,5.9-4.6,12.4-4.6,19.1c0,4.8,0.6,9.5,1.8,14.1c1.9,7.7,5.8,14.8,11.3,20.6
	c5,5,10.8,7.9,16.6,7.9l0,0c2,0,3.9-0.3,5.8-0.9c5-1.7,9.1-5.5,12-10.7c3.1-5.9,4.6-12.4,4.6-19.1c0-4.8-0.6-9.5-1.8-14.1l0.8-0.2
	l-0.8,0.2c-1.9-7.8-5.8-14.9-11.3-20.7C399.8,191.5,394,188.6,388.2,188.6L388.2,188.6z"/>
<path class="st6" d="M388.2,187.7c-2,0-4.1,0.3-6,0.9c-13.8,4.6-20.7,24.7-15.3,44.9c4.6,17.3,16.6,29.1,28.7,29.2
	c2,0,4.1-0.3,6-0.9c13.8-4.6,20.7-24.7,15.3-44.9l-0.8,0.2c1.2,4.6,1.8,9.4,1.8,14.1c0,6.6-1.6,13.2-4.6,19.1c-2.9,5.2-7,9-12,10.7
	c-1.9,0.6-3.8,0.9-5.8,0.9l0,0c-5.7-0.1-11.5-2.9-16.5-7.9c-5.5-5.8-9.4-12.9-11.3-20.7c-1.2-4.6-1.8-9.4-1.8-14.1
	c0-6.6,1.5-13.2,4.6-19.1c2.9-5.2,7-9.1,12-10.7c1.9-0.6,3.8-0.9,5.8-0.9l0,0c5.8,0.1,11.6,2.9,16.6,7.9c5.5,5.8,9.4,12.9,11.3,20.7
	l0.8-0.2C412.3,199.6,400.3,187.9,388.2,187.7z"/>
<path class="st4" d="M374.6,236c-4.7-12.4-2.2-25.2,5.5-28.8s17.8,3.6,22.5,16s2.2,25.2-5.5,28.8S379.3,248.4,374.6,236z"/>
<path class="st6" d="M384.9,222.1c-1,0-2,0.2-2.9,0.6c-5.3,2.3-7.3,10.7-4.4,18.8c2.4,6.6,7.3,11,12,11c1,0,2-0.2,2.9-0.6
	c5.3-2.3,7.3-10.7,4.4-18.8C394.5,226.6,389.6,222.2,384.9,222.1z"/>
<path class="st4" d="M316.4,258.1h-0.2c-8.5-0.3-14.4-11.1-13.1-24.3s9.1-23.4,17.5-23.4h0.2c8.5,0.3,14.4,11.1,13.1,24.3
	S324.8,258.2,316.4,258.1z M321.1,195.6c-12-0.1-24.1,12.8-27.7,30.2c-3.7,18.4,3.5,34.7,16.2,36.5c0.7,0.1,1.4,0.1,2.1,0.1
	c12,0.1,24.1-12.8,27.7-30.2c3.7-18.4-3.5-34.7-16.2-36.5C322.5,195.7,321.8,195.7,321.1,195.6L321.1,195.6z"/>
<path class="st6" d="M343,232.9l-0.8-0.2c-1.7,8.8-5.8,17-11.8,23.7c-5.5,5.9-12.1,9.3-18.7,9.2c-0.8,0-1.5-0.1-2.3-0.2
	c-5.8-0.8-10.5-4.3-13.8-9.6s-5.2-12.5-5.1-20.4c0-3.3,0.4-6.5,1-9.7c1.7-8.8,5.7-17,11.7-23.8c5.5-5.9,12.1-9.3,18.7-9.2
	c0.8,0,1.5,0.1,2.3,0.2c5.8,0.8,10.5,4.3,13.8,9.6s5.2,12.5,5.1,20.4c0,3.3-0.4,6.5-1,9.7L343,232.9l0.8,0.1c0.7-3.3,1-6.6,1.1-10
	c0.1-8.2-1.8-15.7-5.4-21.3s-8.7-9.5-15-10.4c-0.8-0.1-1.7-0.2-2.5-0.2c-7.1-0.1-14.1,3.6-19.9,9.8c-6.2,6.9-10.4,15.4-12.1,24.5
	c-0.7,3.3-1,6.6-1.1,10c-0.1,8.2,1.8,15.7,5.4,21.3s8.7,9.5,15,10.4c0.8,0.1,1.7,0.2,2.5,0.2c7.1,0.1,14.1-3.6,19.9-9.8
	c6.2-6.9,10.4-15.4,12.1-24.5L343,232.9z"/>
<path class="st6" d="M311.8,262.5c-0.7,0-1.4-0.1-2.1-0.1c-12.7-1.8-20-18.1-16.2-36.5c3.5-17.4,15.6-30.4,27.7-30.2
	c0.7,0,1.4,0.1,2.1,0.1c12.7,1.8,20,18.1,16.2,36.5C335.9,249.7,323.8,262.7,311.8,262.5z M322,192.8c-6.5-0.1-13.2,3.4-18.7,9.2
	c-6,6.7-10.1,14.9-11.8,23.7c-0.7,3.2-1,6.4-1,9.7c-0.1,8,1.8,15.1,5.1,20.4c3.3,5.3,8.1,8.8,13.8,9.6c0.8,0.1,1.5,0.2,2.3,0.2l0,0
	c6.5,0.1,13.1-3.4,18.6-9.2c6-6.7,10.1-14.9,11.8-23.7c0.7-3.2,1-6.4,1-9.7c0.1-8-1.8-15.1-5.1-20.4s-8.1-8.8-13.8-9.6
	C323.5,192.9,322.8,192.8,322,192.8L322,192.8z"/>
<path class="st6" d="M311.8,265.7L311.8,265.7c-0.8,0-1.5-0.1-2.3-0.2c-5.8-0.8-10.5-4.3-13.8-9.6s-5.2-12.5-5.1-20.4
	c0-3.3,0.4-6.5,1-9.7c1.7-8.8,5.8-17,11.8-23.8c5.5-5.9,12.1-9.3,18.7-9.2l0,0c0.8,0,1.5,0.1,2.3,0.2c5.8,0.8,10.5,4.3,13.8,9.6
	s5.2,12.5,5.1,20.4c0,3.3-0.4,6.5-1,9.7c-1.7,8.8-5.8,17-11.8,23.7C324.9,262.3,318.3,265.8,311.8,265.7z M322,192
	c-13.7-0.2-27.3,14.3-31.2,33.6c-4.2,20.5,4.2,38.7,18.6,40.7c0.8,0.1,1.6,0.2,2.4,0.2c13.6,0.2,27.3-14.3,31.2-33.6
	c4.2-20.5-4.2-38.7-18.6-40.7C323.6,192.1,322.8,192,322,192z"/>
<path class="st4" d="M303.1,233.8c1.3-13.1,9.2-23.6,17.7-23.4s14.4,11.1,13.1,24.3s-9.2,23.6-17.7,23.3S301.8,247,303.1,233.8z"/>
<path class="st6" d="M318.5,223.7c-5.7-0.1-11,6.5-12,14.9s2.9,15.7,8.7,16h0.3c5.7,0.1,11-6.5,12-14.9c1-8.5-2.9-15.7-8.7-16
	L318.5,223.7z"/>
<rect x="321.2" y="120.3" transform="matrix(0.4258 -0.9048 0.9048 0.4258 72.5158 362.9356)" width="2" height="8.1"/>
<path d="M313.3,133c-2-1.1-4-2.2-5.9-3.3l1-1.7c2,1.1,3.9,2.2,5.9,3.3L313.3,133z"/>
<path d="M309.7,135.3l-1.5-0.8l-4.4-2.4l1-1.8l4.4,2.4l1.5,0.9L309.7,135.3z"/>
<rect x="302.2" y="131.2" transform="matrix(0.4851 -0.8745 0.8745 0.4851 37.9099 334.7745)" width="2" height="8.1"/>
<rect x="299.4" y="135.2" transform="matrix(0.4851 -0.8745 0.8745 0.4851 34.1316 333.7085)" width="2" height="5.4"/>
<path d="M321.4,129.3c-2.5-1.5-5-2.9-6.9-4l1-1.7c1.9,1.1,4.5,2.5,7,4L321.4,129.3z"/>
<path d="M317.5,130.8l-4.9-2.7l-1.6-0.9l1-1.8l1.6,0.9c1.6,0.9,3.2,1.8,4.8,2.7L317.5,130.8z"/>
<path d="M330.9,122.9c-1.9-1.1-3.8-2.2-5.8-3.3l1-1.8c1.9,1.1,3.9,2.2,5.8,3.3L330.9,122.9z"/>
<path d="M328.1,125l-4.6-2.6l-1.8-1l1-1.7l1.8,1l4.6,2.6L328.1,125z"/>
<rect x="356.2" y="113.6" transform="matrix(0.8245 -0.5658 0.5658 0.8245 -3.9018 222.7706)" width="2" height="8.1"/>
<path d="M346.6,123l-0.3-0.5c-1.5-2.6-3-5.1-4.5-7.7l1.7-1c1.5,2.6,3,5.1,4.5,7.7l0.3,0.5L346.6,123z"/>
<path d="M342.3,123.2l-2.5-4.2l-2.3-3.9l1.7-1c0.8,1.3,1.5,2.6,2.3,3.9l2.5,4.2L342.3,123.2z"/>
<rect x="334.4" y="114.5" transform="matrix(0.8604 -0.5096 0.5096 0.8604 -13.0677 187.323)" width="2" height="6.1"/>
<rect x="329.4" y="114.8" transform="matrix(0.8605 -0.5095 0.5095 0.8605 -13.2543 184.5789)" width="2" height="3.4"/>
<path d="M354.6,122.8c-1.5-2.8-3.1-5.5-4.6-8.1l1.7-1c1.5,2.6,3.1,5.3,4.6,8.1L354.6,122.8z"/>
<path d="M351,122.6c-1.2-2.2-2.5-4.3-3.8-6.5l-0.9-1.6l1.7-1l0.9,1.6c1.3,2.2,2.5,4.3,3.8,6.5L351,122.6z"/>
<path d="M365.7,121.4c-1-1.8-2.2-3.8-3.6-6.3l1.7-1c1.5,2.5,2.6,4.5,3.7,6.4L365.7,121.4z"/>
<path d="M362,121.3c-0.9-1.6-1.8-3.1-2.7-4.7l-1-1.7l1.7-1l1,1.7c0.9,1.5,1.8,3.1,2.8,4.7L362,121.3z"/>
<rect x="392.6" y="122.9" transform="matrix(0.9727 -0.2323 0.2323 0.9727 -18.6484 94.877)" width="2" height="7.4"/>
<path d="M381.2,124.1c-0.3-1.8-0.6-3.6-0.9-5.3l2-0.3c0.3,1.8,0.6,3.6,0.9,5.3L381.2,124.1z"/>
<path d="M377.1,122.8v-0.1c-0.3-1.7-0.6-3.5-0.9-5.2l2-0.3c0.3,1.7,0.6,3.5,0.9,5.2v0.1L377.1,122.8z"/>
<rect x="372.3" y="116" transform="matrix(0.986 -0.1668 0.1668 0.986 -14.6178 63.9267)" width="2" height="6.1"/>
<path d="M388.8,126.2c-0.2-1.5-0.5-3.1-0.7-4.6l2-0.3c0.2,1.5,0.5,3.1,0.7,4.6L388.8,126.2z"/>
<rect x="384.9" y="119.9" transform="matrix(0.9862 -0.1656 0.1656 0.9862 -14.9154 65.5793)" width="2" height="4.7"/>
<path d="M400.3,133.5c-0.4-2.6-0.8-5.2-1.1-7.2l2-0.3c0.3,2,0.8,4.6,1.1,7.3L400.3,133.5z"/>
<path d="M397,133.4c-0.4-2.2-0.7-4.5-1.1-6.7l-0.3-1.8l2-0.3l0.3,1.8c0.4,2.2,0.8,4.5,1.1,6.7L397,133.4z"/>
</svg>
