<svg id="Layer_1" data-name="Layer 1" xmlns="http://www.w3.org/2000/svg" xmlns:xlink="http://www.w3.org/1999/xlink" viewBox="0 0 735 852"><defs><style>.cls-1{fill:#ba6f38;}.cls-2{clip-path:url(#clip-path);}.cls-3{fill:#005590;}.cls-4{fill:#004064;}.cls-5{fill:#e6b35a;}.cls-6{opacity:0.94;}.cls-7{font-size:153.7px;letter-spacing:-0.03em;}.cls-16,.cls-24,.cls-7,.cls-9{fill:#fff;}.cls-7,.cls-9{font-family:MyriadPro-Regular, Myriad Pro;}.cls-8{letter-spacing:-0.02em;}.cls-9{font-size:25px;}.cls-10{letter-spacing:0.01em;}.cls-11{letter-spacing:-0.04em;}.cls-12{letter-spacing:-0.02em;}.cls-13{letter-spacing:-0.01em;}.cls-14{letter-spacing:0em;}.cls-15,.cls-18,.cls-19,.cls-20,.cls-21,.cls-22,.cls-23,.cls-25{fill:none;}.cls-16,.cls-18,.cls-19,.cls-20,.cls-21,.cls-22,.cls-23,.cls-25{stroke:#000;stroke-miterlimit:10;}.cls-16,.cls-18,.cls-25{stroke-width:2px;}.cls-17{fill:#110b0c;}.cls-18,.cls-19{stroke-linecap:square;}.cls-20{stroke-width:0.5px;}.cls-22{stroke-width:1.25px;}.cls-23{stroke-width:0.75px;}</style><clipPath id="clip-path"><polygon class="cls-1" points="369.51 7.4 728.21 214.47 728.21 636.62 369.51 845.03 2.79 636.62 2.79 214.47 369.51 7.4"/></clipPath></defs><title> </title><polygon class="cls-1" points="369.51 7.4 728.21 214.47 728.21 636.62 369.51 845.03 2.79 636.62 2.79 214.47 369.51 7.4"/><g class="cls-2"><circle class="cls-3" cx="363.84" cy="433.77" r="442.13"/></g><path class="cls-4" d="M705.61,196.21,427.81,35.82,367.5,1,307.19,35.82,29.37,196.22.09,213.13V637.38l29.28,16.91,281.28,162.4,56.85,32.82,56.85-32.82L705.61,654.3l29.3-16.92V213.13Zm0,425.26L367.49,816.68,29.37,621.47V231L367.49,35.82h0L705.61,231Z"/><path class="cls-5" d="M367,633.9c.29-.29.6-.59.93-.89h-.26Z"/><g class="cls-6"><text class="cls-7" transform="translate(181.35 629.78) scale(1 1.06)">r<tspan class="cls-8" x="45.65" y="0">eadxl</tspan></text></g><text class="cls-9" transform="matrix(0.86, -0.5, 0.5, 0.86, 369.28, 809.1)"><tspan class="cls-10">ww</tspan><tspan class="cls-11" x="37.4" y="0">w</tspan><tspan x="54.82" y="0">.rstudi</tspan><tspan class="cls-12" x="120.07" y="0">o</tspan><tspan x="133.2" y="0">.</tspan><tspan class="cls-13" x="138.37" y="0">c</tspan><tspan class="cls-14" x="149.42" y="0">om</tspan></text><path class="cls-15" d="M407.4,261.48q0-2.07.11-3.82Q407.44,259.41,407.4,261.48Z"/><path class="cls-15" d="M291,219.6v0Z"/><path class="cls-15" d="M290.85,214.61c-.58-20.2-1.1-35.7-1.1-35.7a71.37,71.37,0,0,1,4.34-24.53,71.37,71.37,0,0,0-4.34,24.53S290.27,194.41,290.85,214.61Z"/><path class="cls-15" d="M408.72,367.1c-.09-1.92-.17-4-.26-6.35C408.55,363.06,408.63,365.18,408.72,367.1Z"/><path class="cls-15" d="M291.9,255.21c-.08-3.54-.16-7.13-.25-10.72C291.74,248.09,291.82,251.68,291.9,255.21Z"/><path class="cls-15" d="M408.21,243.41c0-1.19.09-2.43.13-3.71C408.29,241,408.25,242.22,408.21,243.41Z"/><path class="cls-15" d="M407.68,254.32c-.06.9-.12,1.93-.16,3.07,0-1.14.1-2.17.16-3.07s.13-2,.19-3.19C407.81,252.32,407.74,253.4,407.68,254.32Z"/><path class="cls-15" d="M285.8,414.9a2.17,2.17,0,0,0,1-1.67A2.17,2.17,0,0,1,285.8,414.9Z"/><path class="cls-15" d="M407.79,336c-.59,15-.76,40.87-.76,41.44,0-.56.17-24.92.74-40.85Z"/><path class="cls-15" d="M291.36,233.11l-.07-2.81Z"/><path class="cls-15" d="M288.39,413.79v-.07l2.71-24.55-2.71,24.55Z"/><path class="cls-15" d="M292.43,296.16q0,1.42,0,2.94,0-1.51,0-2.94c.07-9.54-.17-24.68-.53-40.94C292.26,271.48,292.5,286.61,292.43,296.16Z"/><path class="cls-15" d="M409.21,376.59c0-.83-.1-1.72-.15-2.68C409.11,374.87,409.16,375.75,409.21,376.59Z"/><path class="cls-15" d="M411.21,301.12c0,.33,0,.7,0,1.11,0-.41,0-.78,0-1.11.08-5.93.4-35.16.69-61.07C411.61,266,411.29,295.19,411.21,301.12Z"/><path class="cls-15" d="M412.42,194.46c0-.73,0-1.54,0-2.4C412.42,192.92,412.42,193.73,412.42,194.46Z"/><path class="cls-15" d="M409.3,198.13c0,1.38-.05,2.84-.08,4.35C409.25,201,409.28,199.51,409.3,198.13Z"/><path class="cls-15" d="M325.44,327.86c-1.5.51-6.31,4.56-8.14,10.87l.3.15C319.55,332.48,323.94,328.38,325.44,327.86Z"/><path class="cls-15" d="M416.71,231.17c0-2.56.11-4.71.19-6.37C416.82,226.46,416.76,228.61,416.71,231.17Z"/><path class="cls-15" d="M338.45,315.21a54,54,0,0,1,9.61-1.76A48.72,48.72,0,0,0,338.45,315.21Z"/><path class="cls-15" d="M409.48,187.06l0,1.42Z"/><path class="cls-15" d="M406.31,159.26a96.54,96.54,0,0,1,3.21,25.12s0,1,0,2.67c0-1.71,0-2.67,0-2.67A96.54,96.54,0,0,0,406.31,159.26Z"/><path class="cls-15" d="M343.63,321.6c.7-.06,1.4-.09,2.13-.08h0C345,321.52,344.32,321.54,343.63,321.6Z"/><path class="cls-15" d="M357.79,324.72a32,32,0,0,1,5.26,2,32,32,0,0,0-5.26-2c-1.72-1.39-5.19-3.1-12-3.19C352.6,321.62,356.07,323.33,357.79,324.72Z"/><path class="cls-16" d="M407,377.47l1.17,27.29h0l2,47.15c-1.21,18-10.71,27.29-20.45,32.07-11,5.4-19.28,5-19.28,5-44.87-8.38-47.77-48.1-47.77-48.1.75-7,.13-25.38-.09-47.87,0-23.75,1.67-40.37,1.67-40.37.91-25.91,24.85-27.37,24.85-27.37a35.68,35.68,0,0,1,10.18,1.19c9.7,2.65,15.53,9.34,19,16.17a44.48,44.48,0,0,1,1.91,4.32l4.8,46.56,1.54,32.9,1.89.41q1.08.22,2.16.41l.88.14c.71.12,1.43.24,2.15.35a32.07,32.07,0,0,0,4.45-1.21,28.36,28.36,0,0,0,2.89-1.19c-.52-11.57-.95-24.46-1-36.18h0v0c0-3.72,0-6.91.15-9.35-.26-7-1-14.88-1.36-17.81a69.7,69.7,0,0,0-.19-8.36,65.58,65.58,0,0,0-5.31-16.08A51.85,51.85,0,0,0,370.45,316c-.92-.21-1.86-.38-2.81-.52a41.8,41.8,0,0,0-9.34-3.08c-29.65-6.64-44.64,15-46.55,18-3.39,5.9-5.82,13.4-6.34,23l.74,39.86-.08,1.53L304.5,424c0,.44,0,1,0,1.64-.09,5-.14,12.5,0,16.22.17,7.23.71,8.48,2.79,15.37q.85,2.81,1.77,5.56c1.3,2.62,2.48,4.75,2.48,4.75,5.29,14.19,21.74,36,41.9,40.92,12.32,3,29.86,2.31,43.26-4.55,35.31-18.08,29-48.54,28.1-70.49s-5.3-80.67-5.3-80.67c-1-33.21.3-136.85.3-136.85-1-17.52,8-60.53-17.89-86.19S332,114.77,332,114.77c-50.33,17.3-47.21,63.34-46.55,72.4S288,266.36,288,266.36c2.55,38.31-3.4,144.2-3.4,144.2,0,3.33-.76,4.39-1.45,7.19.34-.8-.62,5.15.17,4.52.53-.32,1.81,1.11,0,0,1.51,1.92,5.15,2.08,5.15,2.08l7,.14a3,3,0,0,0,1.61-.25s-.83.24,1.83.21h0a1.57,1.57,0,0,1,.77-.21l3.08-49.65.32-10.14s.25-59.54-.63-123.7c0-.17-4.18-45.24-4.63-59.87-.51-16.31,5.47-45.52,39.72-54.18a136.84,136.84,0,0,1,21.7-1.15c9.17,1.59,19,3.8,21.69,4.43l1.64.68a39.61,39.61,0,0,1,13,12s10.24,13.61,10.62,29.47c0,0,1.34,38.68-.28,49.45-1.58,10.48-1.58,8.21-1.52-.12-.14,16.38-.36,32.58-.71,40.66,0,0,0-.24-.08-.68a63.1,63.1,0,0,1-.2,7.59c.16,2.67.53,9.8.46,16.18.07-.72.14-1.37.22-1.94L407,377.47M291.29,230.3l.07,2.81ZM291,219.74v0Zm121.41-27.69c0,.87,0,1.67,0,2.4C412.42,193.73,412.42,192.92,412.41,192.06Z"/><path class="cls-17" d="M325.68,149.36S295.45,144.3,279.39,162s-5.19,38.64-2.79,39.1-5.67-17,9.86-32.71c0,0,13.07-16.3,40.66-15.17C327.13,153.19,329,153.75,325.68,149.36Z"/><path class="cls-17" d="M371.93,151.1s28.69-13.23,49.46,0,15.64,37,13.38,38.14.93-18.85-20-31c0,0-16.09-11.49-43.22-2.88C371.53,155.3,369.86,156.35,371.93,151.1Z"/><path class="cls-18" d="M302,344.59c-4.73,2.39-9.5,4.71-14.23,7.09"/><path class="cls-18" d="M301.95,349c-4.79,2.47-9.61,4.87-14.41,7.32"/><path class="cls-18" d="M302.4,353.5c-4.62,2.36-9.28,4.63-13.86,7"/><path class="cls-18" d="M302.32,357.91c-4.54,2.32-9.14,4.54-13.65,6.92"/><path class="cls-19" d="M300.92,326.88c-4.25,2.13-8.54,4.2-12.78,6.37"/><path class="cls-19" d="M301.68,331c-4.38,2.22-8.79,4.36-13.15,6.62"/><path class="cls-19" d="M301.35,335.75c-4.36,2.24-8.76,4.41-13.09,6.71"/><path class="cls-18" d="M301.58,340c-4.37,2.23-8.77,4.4-13.1,6.7"/><path class="cls-19" d="M298.16,310.9c-2.8,1.32-5.64,2.57-8.4,4"/><path class="cls-19" d="M298,315.42c-2.65,1.26-5.34,2.46-7.93,3.84"/><path class="cls-19" d="M298.25,320c-2.9,1.4-5.85,2.72-8.69,4.22"/><path class="cls-19" d="M299.17,323.75c-3.22,1.6-6.47,3.13-9.63,4.84"/><path class="cls-19" d="M301.42,288.76c-3.82,2.05-7.67,4.07-11.47,6.16"/><path class="cls-19" d="M300.91,293.38c-3.57,1.93-7.15,3.82-10.68,5.82"/><path class="cls-19" d="M300.45,298.33c-3.48,1.88-7,3.74-10.42,5.68"/><path class="cls-19" d="M299.19,305.24c-3,1.56-6,3.09-8.94,4.7"/><path class="cls-19" d="M301.19,270.54c-4,2.11-7.94,4.17-11.88,6.33"/><path class="cls-19" d="M301.11,275c-3.81,2-7.65,4-11.41,6.15"/><path class="cls-19" d="M301.59,279.36c-3.95,2.12-7.93,4.18-11.83,6.38"/><path class="cls-19" d="M301.12,283.95c-3.73,2-7.49,4-11.18,6"/><path class="cls-19" d="M300.47,252.7c-3.85,2-7.75,4-11.57,6.14"/><path class="cls-19" d="M300.56,257.11c-3.93,2.1-7.92,4.08-11.81,6.24"/><path class="cls-19" d="M300.79,261.68c-3.85,2-7.76,4-11.58,6.09"/><path class="cls-19" d="M301.09,265.84c-3.85,2-7.76,4-11.58,6.13"/><path class="cls-19" d="M299.6,232.34c-1,.56-9.92,5.11-10.89,5.67"/><path class="cls-19" d="M300.68,239.46c-4,2.13-8,4.15-12,6.36"/><path class="cls-19" d="M300.55,244.14c-4,2.12-7.94,4.18-11.85,6.39"/><path class="cls-19" d="M300.35,248.55c-3.84,2.07-7.71,4.11-11.51,6.27"/><path class="cls-19" d="M295,179.68c-2.73,1.59-5.46,3.18-8.21,4.74"/><path class="cls-19" d="M295.14,184,287,188.69"/><path class="cls-19" d="M292.52,190.19l-5.25,3"/><path class="cls-19" d="M290.28,195.84l-2.93,1.69"/><path class="cls-19" d="M294.87,171.61c-2.74,1.46-5.45,3-8.14,4.54"/><path class="cls-19" d="M295.25,175c-2.9,1.63-5.79,3.3-8.68,5"/><path class="cls-19" d="M296.62,146.76l-4.1,2.38"/><path class="cls-19" d="M298.75,148l-4.67,2.7"/><path class="cls-18" d="M302.36,363.11c-5,2.34-10,4.79-15,7.28"/><path class="cls-18" d="M301,368.67c-2.28,1.14-11.55,6.29-13.83,7.43"/><path class="cls-18" d="M301.88,373.76c-5,2.64-9.93,5.4-15,8"/><path class="cls-18" d="M301.45,380.73q-7.42,4.09-14.8,8.26"/><path class="cls-18" d="M301.14,386c-5,2.64-9.93,5.39-15,7.93"/><path class="cls-18" d="M300.91,390.68q-7.61,4.25-15.19,8.53"/><path class="cls-18" d="M300.28,395.44,285.67,404"/><path class="cls-18" d="M300,399.61l-14.6,8.53"/><path class="cls-18" d="M299.93,403.59c-4.89,2.86-9.8,5.71-14.69,8.58"/><path class="cls-18" d="M299.17,408.45c-4.7,2.75-9.41,5.48-14.11,8.24"/><path class="cls-18" d="M299.2,412.16c-4.89,2.86-9.79,5.7-14.67,8.58"/><path class="cls-18" d="M298.15,416.86c-3.55,2-7.12,4-10.66,6"/><path class="cls-20" d="M418.92,411c-2.95,1.66-5.91,3.3-8.86,5"/><path class="cls-20" d="M419.4,415.3c-2.88,1.66-5.77,3.29-8.65,4.94"/><path class="cls-20" d="M421.52,418.89c-3.64,2.1-7.32,4.14-10.95,6.25"/><path class="cls-20" d="M422.62,422.75c-3.89,2.26-7.83,4.43-11.72,6.69"/><path class="cls-20" d="M419.18,392.08c-3.28,1.86-6.58,3.67-9.86,5.52"/><path class="cls-20" d="M419.14,396.74c-3.25,1.85-6.52,3.65-9.76,5.51"/><path class="cls-20" d="M418.84,401.62c-3,1.75-6.1,3.48-9.13,5.25"/><path class="cls-20" d="M419.2,405.9c-3.13,1.8-6.27,3.56-9.38,5.39"/><path class="cls-20" d="M418.06,374.87c-3.19,1.8-6.47,3.42-9.67,5.2"/><path class="cls-20" d="M419,378.88c-3.31,1.94-6.76,3.63-10.09,5.53"/><path class="cls-20" d="M419.47,383.49c-3.44,2-7,3.8-10.49,5.76"/><path class="cls-20" d="M419.67,387.67c-3.42,2-6.9,3.81-10.31,5.8"/><path class="cls-20" d="M416.85,354.45c-2.47,1.49-5,3-7.43,4.47"/><path class="cls-20" d="M416.71,359c-2.46,1.49-4.92,3-7.37,4.5"/><path class="cls-20" d="M417,363.68c-2.52,1.53-5,3.06-7.55,4.62"/><path class="cls-20" d="M417.33,369.9c-3.13,1.86-6.29,3.68-9.39,5.59"/><path class="cls-20" d="M416.58,335.71c-2.65,1.6-5.32,3.17-8,4.76"/><path class="cls-20" d="M416.38,340.37c-2.5,1.51-5,3-7.52,4.53"/><path class="cls-20" d="M416.62,345c-2.48,1.49-5,3-7.43,4.48"/><path class="cls-20" d="M416.89,349.3c-2.52,1.52-5,3-7.56,4.57"/><path class="cls-20" d="M416.35,317.05c-3.21,2-6.46,3.85-9.68,5.78"/><path class="cls-20" d="M416.85,321.3c-3.11,2-6.32,3.8-9.49,5.68"/><path class="cls-20" d="M417.06,326c-3.07,1.94-6.23,3.73-9.36,5.58"/><path class="cls-20" d="M416.49,330.85c-2.79,1.7-5.62,3.33-8.43,5"/><path class="cls-20" d="M413.15,297.5c-2.37,1.47-4.81,2.84-7.22,4.25"/><path class="cls-20" d="M417,303.07c-3.6,2.31-7.32,4.43-11,6.63"/><path class="cls-20" d="M415.89,308.55c-3.3,2-6.64,4-9.94,6"/><path class="cls-20" d="M416.29,312.74c-3.26,2-6.53,4-9.78,6"/><path class="cls-20" d="M422.41,428c-3.81,1.93-7.44,4.17-11.15,6.27"/><path class="cls-20" d="M421.8,433.57c-3.45,2-6.82,4.16-10.22,6.24"/><path class="cls-20" d="M423.08,438.51c-3.8,2.25-7.55,4.59-11.33,6.87"/><path class="cls-21" d="M421.73,446.3c-3.29,2-6.55,4.12-9.82,6.19"/><path class="cls-21" d="M421.45,451.71c-3.24,1.95-6.45,3.94-9.7,5.88"/><path class="cls-21" d="M422.43,455.84q-5.23,3.3-10.44,6.61"/><path class="cls-21" d="M422.48,460.36q-5.34,3.52-10.69,7"/><path class="cls-21" d="M422.07,464.76l-13.76,9.05"/><path class="cls-21" d="M422.25,468.72q-6.92,4.56-13.86,9.11"/><path class="cls-21" d="M422.09,473.39c-4.55,3-9.11,6-13.65,9"/><path class="cls-21" d="M422,477.31c-4.62,3-9.24,6.07-13.85,9.12"/><path class="cls-21" d="M422.17,481.42c-3.66,2.34-7.33,4.64-11,7"/><path class="cls-20" d="M322.25,379.21c-5,3.17-10.22,6-15.38,8.93"/><path class="cls-20" d="M321.94,383.91c-4.92,3.15-10,6-15.11,8.92"/><path class="cls-20" d="M321.78,388.89c-4.88,3.1-10,5.87-15,8.75"/><path class="cls-20" d="M321.83,393.36c-4.8,3.05-9.82,5.77-14.76,8.6"/><path class="cls-20" d="M320.61,361.41c-4.41,2.81-9,5.32-13.59,7.88"/><path class="cls-20" d="M321,365.75c-4.62,3-9.49,5.63-14.27,8.34"/><path class="cls-20" d="M321.87,370c-4.93,3.14-10,6-15.1,8.9"/><path class="cls-20" d="M321.92,374.44c-4.92,3.14-10,6-15.1,8.88"/><path class="cls-20" d="M313.53,352.33c-.91.56-1.85,1.07-2.78,1.59"/><path class="cls-20" d="M314.62,356.56c-1.28.8-2.59,1.54-3.92,2.26"/><path class="cls-20" d="M317.62,359.08c-3.41,2.15-7,4.05-10.5,6"/><path class="cls-20" d="M319.35,322.93c-1.05.68-2.12,1.35-3.18,2"/><path class="cls-20" d="M320.3,326.81c-2,1.29-4,2.53-6,3.78"/><path class="cls-20" d="M321.44,331c-2.93,1.89-5.91,3.7-8.89,5.52"/><path class="cls-20" d="M315.45,341.17c-1.54,1-3.11,1.9-4.68,2.84"/><path class="cls-20" d="M317.66,401.53a17.73,17.73,0,0,0,1.63-1,133.83,133.83,0,0,0-12.3,6.58"/><path class="cls-20" d="M315.24,407.67c-2.87,1.67-5.68,3.45-8.52,5.19"/><path class="cls-20" d="M319.38,410.94c-4.19,2.41-8.29,5-12.42,7.47"/><path class="cls-20" d="M320.41,417.18c-4.59,2.78-9.12,5.66-13.66,8.52"/><path class="cls-20" d="M320.06,422.76c-4.53,2.6-9,5.37-13.44,8.07"/><path class="cls-20" d="M320.51,427c-4.8,3-9.58,6-14.37,9.08"/><path class="cls-20" d="M320.41,431.48c-4.81,3.21-9.65,6.37-14.48,9.55"/><path class="cls-20" d="M320.32,435.67c-4.69,3.13-9.4,6.21-14.11,9.31"/><path class="cls-20" d="M320,439.94c-4.36,2.91-8.75,5.77-13.13,8.65"/><path class="cls-20" d="M319.46,444.89c-3.81,2.54-7.64,5-11.47,7.56"/><path class="cls-20" d="M319.08,449c-3.36,2.24-6.75,4.46-10.13,6.68"/><path class="cls-20" d="M318.52,453.65c-2.72,1.78-5.47,3.51-8.22,5.26"/><path class="cls-20" d="M335.44,474.53c-2.44,5.4-5.24,10.65-8,15.91"/><path class="cls-20" d="M337.76,478.64c-2.38,5.34-5.09,10.54-7.73,15.75"/><path class="cls-20" d="M340.36,482.88c-2.19,4.87-4.69,9.6-7.11,14.36"/><path class="cls-20" d="M342.86,486.59c-2,4.39-4.21,8.67-6.41,13"/><path class="cls-20" d="M324.29,460.57c-2.14,4.77-4.62,9.4-7,14"/><path class="cls-20" d="M327,463.94c-2.21,5-4.84,9.91-7.34,14.81"/><path class="cls-20" d="M330,467c-2.39,5.33-5.11,10.52-7.73,15.74"/><path class="cls-20" d="M332.54,470.73c-1.93,4.3-4.08,8.51-6.22,12.71"/><path class="cls-20" d="M316.62,459.8c-.63,1.37-1.32,2.71-2,4"/><path class="cls-20" d="M320.51,460.26c-1.67,3.67-3.61,7.23-5.46,10.81"/><path class="cls-20" d="M343.87,495.71c.3-.56.58-1.13.82-1.72a77.26,77.26,0,0,0-4.36,7.74"/><path class="cls-20" d="M351.26,500.58c2.65,3.29,5.34,6.55,8,9.83"/><path class="cls-22" d="M362.47,502.17q3,3.63,6.1,7.24"/><path class="cls-22" d="M369.58,501.89q2.76,3.39,5.52,6.78"/><path class="cls-22" d="M375.67,501l6.19,7.32"/><path class="cls-22" d="M381.15,499.73l6.59,7.54"/><path class="cls-22" d="M385.72,498.23l6.11,7"/><path class="cls-22" d="M389.54,495.95l6.73,7.7"/><path class="cls-22" d="M394.2,493.86l6.32,7.22"/><path class="cls-22" d="M397.71,491.61q3.16,3.58,6.3,7.18"/><path class="cls-22" d="M402,489.56c1.87,2.15,3.72,4.33,5.56,6.51"/><path class="cls-23" d="M392,352.58c-3.53,2-7.09,4-10.63,6"/><path class="cls-23" d="M392.9,356.65c-3.7,2.17-7.44,4.26-11.16,6.39"/><path class="cls-23" d="M393.92,360.88c-3.88,2.26-7.81,4.43-11.69,6.68"/><path class="cls-23" d="M394.63,365c-4,2.35-8.07,4.57-12.09,6.9"/><path class="cls-23" d="M386.17,337.09c-2.59,1.46-5.18,2.9-7.75,4.4"/><path class="cls-23" d="M388,340.71c-3,1.7-6,3.37-8.94,5.12"/><path class="cls-23" d="M389.64,344.5c-3.54,2.05-7.11,4.07-10.62,6.18"/><path class="cls-23" d="M390.67,348.42c-3.47,2-7,4-10.4,6"/><path class="cls-23" d="M382.33,330.73c-1,.55-2,1.1-3,1.69"/><path class="cls-23" d="M384.26,334c-1.58.89-3.15,1.78-4.7,2.72"/><path class="cls-23" d="M394.89,370.09c-4,1.94-7.83,4.31-11.72,6.5"/><path class="cls-23" d="M393.14,376.17c-3.45,2-6.82,4.16-10.22,6.24"/><path class="cls-23" d="M395.52,380.46c-4.29,2.52-8.5,5.16-12.76,7.72"/><path class="cls-23" d="M395.43,387.44c-4.2,2.58-8.36,5.23-12.53,7.87"/><path class="cls-23" d="M396.19,392.29c-4.51,2.64-8.95,5.42-13.44,8.1"/><path class="cls-23" d="M395.46,397.37q-5.9,3.71-11.78,7.46"/><path class="cls-23" d="M395.41,401.9q-5.78,3.83-11.59,7.63"/><path class="cls-23" d="M394.73,406.48q-4.94,3.27-9.9,6.51"/><path class="cls-23" d="M394.47,410.75q-4.64,3.06-9.29,6.1"/><path class="cls-23" d="M393.92,415.67l-8,5.28"/><path class="cls-23" d="M393.54,419.78l-7.47,4.91"/><path class="cls-23" d="M393.65,423.94c-2.4,1.54-4.81,3.06-7.22,4.59"/><path class="cls-20" d="M420.82,212.28c-4.47,2.84-9.13,5.4-13.74,8"/><path class="cls-20" d="M420.5,217c-4.4,2.82-9,5.38-13.49,8"/><path class="cls-20" d="M420.34,222c-4.37,2.78-8.93,5.28-13.42,7.85"/><path class="cls-20" d="M420.39,226.43c-4.55,2.9-9.31,5.49-14,8.17"/><path class="cls-20" d="M419.17,194.48c-3.74,2.38-7.63,4.52-11.49,6.7"/><path class="cls-20" d="M419.61,198.82c-3.83,2.48-7.84,4.69-11.81,6.95"/><path class="cls-20" d="M420.43,203c-4.13,2.64-8.42,5-12.66,7.49"/><path class="cls-20" d="M420.48,207.51c-4.27,2.72-8.7,5.19-13.08,7.72"/><path class="cls-21" d="M411.73,181.07c-1.37.82-2.78,1.57-4.19,2.32"/><path class="cls-21" d="M412.09,185.4c-1.46.89-3,1.69-4.48,2.51"/><path class="cls-20" d="M413.18,189.63c-1.77,1.1-3.62,2.08-5.45,3.08"/><path class="cls-20" d="M416.18,192.15c-2.79,1.75-5.69,3.33-8.56,4.94"/><path class="cls-21" d="M412.67,168.6,408,171.41"/><path class="cls-20" d="M414,174.24c-2.13,1.35-4.31,2.62-6.48,3.9"/><path class="cls-20" d="M416.22,234.6a17.73,17.73,0,0,0,1.63-1,118.63,118.63,0,0,0-11.18,6"/><path class="cls-20" d="M413.8,240.74c-2.63,1.53-5.21,3.16-7.8,4.75"/><path class="cls-20" d="M417.94,244c-4.19,2.41-8.29,5-12.42,7.47"/><path class="cls-20" d="M419,250.26c-4.4,2.66-8.75,5.42-13.09,8.16"/><path class="cls-20" d="M418.62,255.84c-4.27,2.45-8.45,5-12.66,7.6"/><path class="cls-20" d="M419.08,260.09q-6.5,4.06-13,8.19"/><path class="cls-20" d="M419,264.55c-4.29,2.87-8.61,5.69-12.93,8.53"/><path class="cls-20" d="M418.88,268.74c-4.32,2.88-8.66,5.73-13,8.58"/><path class="cls-20" d="M418.6,273c-4.24,2.83-8.5,5.61-12.76,8.41"/><path class="cls-20" d="M418,278c-4.18,2.79-8.38,5.53-12.58,8.29"/><path class="cls-20" d="M417.64,282.07c-4,2.67-8,5.3-12,7.94"/><path class="cls-20" d="M417.08,286.72c-3.83,2.51-7.72,4.93-11.58,7.4"/><path class="cls-21" d="M409.92,150.8,406,153.39"/><path class="cls-20" d="M413.19,152.76,407,156.87"/><path class="cls-20" d="M414.6,155.91q-3.47,2.31-7,4.6"/><path class="cls-20" d="M414,160.85l-5.14,3.4"/><path class="cls-20" d="M413.64,165l-3.43,2.28"/><path class="cls-24" d="M392.79,252.88c-6.85-.08-14.35-6.72-18.2-16.88-4.69-12.36-2.21-25.24,5.54-28.78a10,10,0,0,1,4.32-.9c6.85.08,14.34,6.73,18.2,16.88,4.69,12.36,2.2,25.24-5.54,28.78A10,10,0,0,1,392.79,252.88ZM388,191.66a15.87,15.87,0,0,0-5.21.81c-12.17,4-18.15,22-13.36,40.14,4.13,15.58,14.85,26.21,25.51,26.34a15.9,15.9,0,0,0,5.21-.81c12.17-4,18.15-22,13.36-40.14C409.36,202.42,398.64,191.79,388,191.66Z"/><path class="cls-17" d="M416.9,217l-.78.21a53,53,0,0,1,1.78,14.13,40.85,40.85,0,0,1-4.61,19.06c-2.88,5.23-7,9-12,10.71a17.55,17.55,0,0,1-5.75.89C389.8,261.88,384,259,379,254a46,46,0,0,1-11.32-20.68,53,53,0,0,1-1.78-14.13,40.82,40.82,0,0,1,4.61-19.06c2.88-5.23,7-9,12-10.71a17.53,17.53,0,0,1,5.75-.89c5.75.07,11.59,2.92,16.57,7.94a46.06,46.06,0,0,1,11.33,20.68l.78-.21.78-.21a47.67,47.67,0,0,0-11.74-21.41c-5.2-5.23-11.41-8.34-17.7-8.41a19.15,19.15,0,0,0-6.28,1c-5.48,1.82-9.87,6-12.9,11.46a42.43,42.43,0,0,0-4.81,19.82,54.62,54.62,0,0,0,1.83,14.56,47.67,47.67,0,0,0,11.74,21.41c5.2,5.24,11.41,8.34,17.7,8.41a19.12,19.12,0,0,0,6.28-1c5.48-1.82,9.87-6,12.9-11.46a42.43,42.43,0,0,0,4.81-19.82,54.63,54.63,0,0,0-1.83-14.56Z"/><path class="cls-17" d="M394.92,258.95c-10.66-.13-21.38-10.76-25.51-26.34-4.79-18.13,1.19-36.1,13.36-40.14a15.87,15.87,0,0,1,5.21-.81c10.66.13,21.38,10.76,25.51,26.34,4.79,18.14-1.19,36.1-13.36,40.14A15.9,15.9,0,0,1,394.92,258.95Zm-6.69-70.4h0a17.53,17.53,0,0,0-5.75.89c-5,1.66-9.11,5.47-12,10.71a40.82,40.82,0,0,0-4.61,19.06,53,53,0,0,0,1.78,14.13A46,46,0,0,0,379,254c5,5,10.81,7.87,16.56,7.94h0a17.55,17.55,0,0,0,5.75-.89c5-1.66,9.11-5.47,12-10.71a40.85,40.85,0,0,0,4.61-19.06,53,53,0,0,0-1.78-14.13l.78-.21-.78.21a46.06,46.06,0,0,0-11.33-20.68C399.81,191.47,394,188.61,388.23,188.55Z"/><path class="cls-17" d="M388.23,187.73a18.33,18.33,0,0,0-6,.94c-13.82,4.58-20.68,24.67-15.34,44.87,4.57,17.3,16.62,29.08,28.67,29.22a18.36,18.36,0,0,0,6-.94c13.82-4.58,20.68-24.67,15.34-44.87l-.78.21a53,53,0,0,1,1.78,14.13,40.85,40.85,0,0,1-4.61,19.06c-2.88,5.23-7,9-12,10.71a17.55,17.55,0,0,1-5.75.89h0C389.79,261.88,384,259,379,254a46,46,0,0,1-11.32-20.68,53,53,0,0,1-1.78-14.13,40.82,40.82,0,0,1,4.61-19.06c2.88-5.23,7-9,12-10.71a17.53,17.53,0,0,1,5.75-.89h0c5.75.07,11.58,2.93,16.56,7.94a46.06,46.06,0,0,1,11.33,20.68l.78-.21C412.33,199.65,400.28,187.88,388.23,187.73Z"/><path class="cls-24" d="M374.59,236c-4.69-12.36-2.21-25.24,5.54-28.78s17.83,3.62,22.52,16,2.2,25.24-5.54,28.78S379.28,248.36,374.59,236Z"/><path class="cls-17" d="M384.94,222.15a7.12,7.12,0,0,0-2.92.58c-5.32,2.29-7.27,10.69-4.38,18.77,2.39,6.64,7.32,11,12,11a7.12,7.12,0,0,0,2.92-.58c5.31-2.29,7.27-10.69,4.38-18.76C394.5,226.55,389.57,222.2,384.94,222.15Z"/><path class="cls-24" d="M316.37,258.11h-.19c-8.51-.26-14.39-11.14-13.12-24.3s9.08-23.46,17.53-23.36h.18c8.51.26,14.38,11.14,13.11,24.3S324.8,258.21,316.37,258.11Zm4.77-62.46c-12-.14-24.15,12.84-27.69,30.23-3.72,18.38,3.54,34.72,16.24,36.49a16.19,16.19,0,0,0,2.07.16c12,.14,24.15-12.84,27.68-30.23,3.73-18.39-3.54-34.72-16.24-36.49A16.56,16.56,0,0,0,321.14,195.65Z"/><path class="cls-17" d="M343,232.87l-.79-.16a49.37,49.37,0,0,1-11.77,23.73c-5.5,5.89-12.13,9.32-18.66,9.23a18.12,18.12,0,0,1-2.29-.17c-5.75-.8-10.5-4.29-13.84-9.62s-5.2-12.48-5.11-20.43a51.88,51.88,0,0,1,1.05-9.69A49.38,49.38,0,0,1,303.33,202c5.5-5.89,12.13-9.31,18.66-9.23a18,18,0,0,1,2.29.17c5.75.8,10.49,4.29,13.83,9.62s5.2,12.47,5.11,20.43a52,52,0,0,1-1.05,9.7l.79.16.79.16a53.58,53.58,0,0,0,1.08-10c.1-8.22-1.83-15.67-5.36-21.31s-8.69-9.49-15-10.37a19.78,19.78,0,0,0-2.49-.19c-7.13-.08-14.15,3.63-19.87,9.75A51,51,0,0,0,290,225.42a53.56,53.56,0,0,0-1.08,10c-.1,8.22,1.83,15.67,5.36,21.31s8.69,9.5,15,10.37a19.83,19.83,0,0,0,2.5.19c7.12.08,14.14-3.63,19.86-9.75A51,51,0,0,0,343.76,233Z"/><path class="cls-17" d="M311.76,262.52a16.19,16.19,0,0,1-2.07-.16c-12.7-1.77-20-18.1-16.24-36.49,3.54-17.39,15.64-30.37,27.69-30.23a16.56,16.56,0,0,1,2.06.16c12.7,1.77,20,18.1,16.24,36.49C335.91,249.68,323.8,262.67,311.76,262.52ZM322,192.78c-6.53-.08-13.15,3.35-18.65,9.23a49.38,49.38,0,0,0-11.77,23.73,51.88,51.88,0,0,0-1.05,9.69c-.1,8,1.78,15.11,5.11,20.43s8.08,8.82,13.84,9.62a18.12,18.12,0,0,0,2.29.17h0c6.52.08,13.15-3.35,18.65-9.23a49.37,49.37,0,0,0,11.77-23.73,52,52,0,0,0,1.05-9.7c.1-8-1.78-15.11-5.11-20.43S330,193.76,324.28,193a18,18,0,0,0-2.29-.17Z"/><path class="cls-17" d="M311.76,265.67h0a18.12,18.12,0,0,1-2.29-.17c-5.75-.8-10.5-4.29-13.84-9.62s-5.2-12.48-5.11-20.43a51.88,51.88,0,0,1,1.05-9.69A49.38,49.38,0,0,1,303.33,202c5.5-5.88,12.13-9.31,18.65-9.23h0a18,18,0,0,1,2.29.17c5.75.8,10.49,4.29,13.83,9.62s5.2,12.47,5.11,20.43a52,52,0,0,1-1.05,9.7,49.37,49.37,0,0,1-11.77,23.73C324.91,262.32,318.28,265.75,311.76,265.67ZM322,192c-13.66-.16-27.31,14.27-31.24,33.61-4.16,20.48,4.16,38.71,18.58,40.72a19,19,0,0,0,2.39.18c13.65.16,27.3-14.27,31.23-33.61,4.16-20.48-4.16-38.71-18.57-40.72A18.92,18.92,0,0,0,322,192Z"/><path class="cls-24" d="M303.06,233.81c1.27-13.16,9.19-23.61,17.71-23.35s14.38,11.14,13.11,24.3-9.2,23.61-17.71,23.35S301.79,247,303.06,233.81Z"/><path class="cls-17" d="M318.53,223.66c-5.68-.07-11,6.51-11.95,14.89s2.92,15.68,8.7,16h.29c5.67.07,11-6.51,11.94-14.89s-2.92-15.68-8.7-16Z"/><path class="cls-25" d="M325.85,126l-7.32-3.44"/><path class="cls-25" d="M313.81,132.09q-3-1.63-5.92-3.29"/><path class="cls-25" d="M310.22,134.41l-5.9-3.26"/><path class="cls-18" d="M305.9,136.68l-5.3-2.94"/><path class="cls-18" d="M301.9,138.67l-3-1.64"/><path class="cls-25" d="M321.89,128.44c-2.29-1.35-4.61-2.66-6.94-4"/><path class="cls-25" d="M318,129.88l-6.4-3.57"/><path class="cls-25" d="M331.36,122c-1.92-1.12-3.85-2.21-5.79-3.29"/><path class="cls-25" d="M328.63,124.16l-6.4-3.57"/><path class="cls-25" d="M359.51,121l-4.58-6.67"/><path class="cls-25" d="M347.46,122.49c-1.62-2.71-3.24-5.43-4.83-8.16"/><path class="cls-25" d="M343.18,122.67c-1.6-2.71-3.22-5.41-4.82-8.12"/><path class="cls-25" d="M336.92,120.13l-3.09-5.21"/><path class="cls-25" d="M331.24,118,329.52,115"/><path class="cls-25" d="M355.53,122.27c-1.49-2.72-3.05-5.41-4.63-8.09"/><path class="cls-25" d="M351.82,122.11c-1.56-2.69-3.15-5.36-4.73-8"/><path class="cls-25" d="M366.61,120.95c-1.19-2.13-2.42-4.24-3.66-6.35"/><path class="cls-25" d="M362.86,120.81q-1.85-3.16-3.72-6.32"/><path class="cls-25" d="M394.45,130.25,392.73,123"/><path class="cls-25" d="M382.14,123.94q-.46-2.67-.89-5.34"/><path class="cls-25" d="M378.09,122.59q-.46-2.66-.91-5.32"/><path class="cls-25" d="M373.84,122q-.51-3-1-6"/><path class="cls-25" d="M389.77,126q-.36-2.3-.74-4.6"/><path class="cls-25" d="M386.28,124.55l-.77-4.6"/><path class="cls-25" d="M401.27,133.38c-.35-2.42-.74-4.83-1.14-7.24"/><path class="cls-25" d="M398,133.22c-.46-2.85-.94-5.7-1.42-8.55"/></svg>