<svg id="Layer_1" data-name="Layer 1" xmlns="http://www.w3.org/2000/svg" xmlns:xlink="http://www.w3.org/1999/xlink" viewBox="0 0 735 852"><defs><style>.cls-1{fill:#77aab6;}.cls-2{fill:none;}.cls-3{clip-path:url(#clip-path);}.cls-4{fill:#53bfd3;}.cls-5{fill:#fff;opacity:0.25;}.cls-6{fill:#e6b35a;}.cls-7{font-size:160px;letter-spacing:-0.04em;}.cls-10,.cls-7,.cls-9{fill:#2e0e00;}.cls-10,.cls-7{font-family:MyriadPro-Regular, Myriad Pro;}.cls-8{letter-spacing:-0.03em;}.cls-10{font-size:25px;}.cls-11{letter-spacing:0.01em;}.cls-12{letter-spacing:-0.04em;}.cls-13{letter-spacing:-0.02em;}.cls-14{letter-spacing:-0.01em;}.cls-15{letter-spacing:0em;}.cls-16{fill:#331300;}.cls-17{fill:#4e2400;}.cls-18{clip-path:url(#clip-path-2);}.cls-19{fill:#eee6d2;}.cls-20{fill:#ca015f;}.cls-21{fill:#fafafa;}</style><clipPath id="clip-path"><polygon class="cls-1" points="369.51 7.4 728.21 214.47 728.21 636.62 369.51 845.03 2.79 636.62 2.79 214.47 369.51 7.4"/></clipPath><clipPath id="clip-path-2"><path class="cls-2" d="M488.61,308.32l-17.27,141c0,17.91-46.57,32.45-104,32.45s-104-14.53-104-32.45L246,308.32Z"/></clipPath></defs><title> </title><polygon class="cls-1" points="369.51 7.4 728.21 214.47 728.21 636.62 369.51 845.03 2.79 636.62 2.79 214.47 369.51 7.4"/><g class="cls-3"><circle class="cls-4" cx="365.5" cy="437.45" r="442.13"/><ellipse class="cls-5" cx="366.89" cy="105.8" rx="315.24" ry="234.63"/></g><path class="cls-6" d="M367,633.9c.29-.29.6-.59.93-.89h-.26Z"/><text class="cls-7" transform="translate(145.58 644.76)">r<tspan class="cls-8" x="45.6" y="0">ecipes</tspan></text><path class="cls-9" d="M705.61,196.21,427.81,35.82,367.5,1,307.19,35.82,29.37,196.22.09,213.13V637.38l29.28,16.91,281.28,162.4,56.85,32.82,56.85-32.82L705.61,654.3l29.3-16.92V213.13Zm0,425.26L367.49,816.68,29.37,621.47V231L367.49,35.82h0L705.61,231Z"/><text class="cls-10" transform="matrix(0.86, -0.5, 0.5, 0.86, 369.28, 809.1)"><tspan class="cls-11">ww</tspan><tspan class="cls-12" x="37.4" y="0">w</tspan><tspan x="54.82" y="0">.rstudi</tspan><tspan class="cls-13" x="120.07" y="0">o</tspan><tspan x="133.2" y="0">.</tspan><tspan class="cls-14" x="138.37" y="0">c</tspan><tspan class="cls-15" x="149.42" y="0">om</tspan></text><path class="cls-16" d="M304.23,474.82q-2.81,8.63-5.59,17.27-4.42,13.67-8.87,27.36c-.67,2.09-1.37,4.17-2,6.28a6.08,6.08,0,0,0,4.2,7.39,6.15,6.15,0,0,0,7.39-4.2q2.81-8.63,5.59-17.27,4.42-13.67,8.87-27.36c.67-2.09,1.37-4.17,2-6.28a6.08,6.08,0,0,0-4.2-7.39,6.15,6.15,0,0,0-7.39,4.2Z"/><path class="cls-16" d="M426,476.4c1.49,5.83,3,11.65,4.48,17.46q3.56,13.85,7.12,27.72l1.65,6.4a6,6,0,1,0,11.58-3.19c-1.49-5.83-3-11.65-4.48-17.46q-3.56-13.85-7.12-27.72l-1.65-6.4A6,6,0,1,0,426,476.4Z"/><path class="cls-16" d="M132.91,256.38a99.41,99.41,0,0,0,5.92,33.76,108,108,0,0,0,17.31,30.46A116.52,116.52,0,0,0,181.69,344a127.56,127.56,0,0,0,32.42,15.73,136.72,136.72,0,0,0,37.27,6.47c1.61,0,3.21.07,4.82.1a6,6,0,1,0,0-12c-3.09,0-6.16-.1-9.23-.31-1.51-.1-3-.24-4.56-.38-.74-.07-1.51-.17-2.25-.26-.34,0-.7-.1-1-.12-1.34-.17,1.22.17-.12,0a130.78,130.78,0,0,1-17.36-3.69c-2.83-.82-5.66-1.73-8.44-2.73-1.34-.48-2.69-1-4-1.53-.31-.12-.62-.24-.91-.38s-.31-.12-.46-.19c-.6-.24.74.31.67.29-.7-.31-1.41-.6-2.11-.91a119.37,119.37,0,0,1-14.87-7.94c-2.4-1.49-4.72-3.07-7-4.75-.5-.38-1-.74-1.53-1.13s-1.37-1.1.07.07l-.86-.7c-1.08-.84-2.13-1.73-3.17-2.61a112.13,112.13,0,0,1-11.63-11.51c-.89-1-1.73-2-2.57-3.07-.38-.48-.77-1-1.15-1.46-.07-.07.84,1.13.48.6a3.74,3.74,0,0,0-.38-.48l-.65-.86c-1.58-2.13-3.07-4.34-4.48-6.59s-2.71-4.56-3.93-6.91c-.62-1.22-1.25-2.45-1.82-3.69-.26-.55-.5-1.1-.77-1.65l-.36-.84c-.53-1.22.5,1.22,0,0a96,96,0,0,1-4.82-15.16c-.29-1.29-.55-2.61-.79-3.93-.12-.65-.24-1.32-.34-2,0-.31-.1-.62-.14-.91l-.07-.46c-.14-1,0,.19.07.53a65.65,65.65,0,0,1-.72-8.11c-.07-1.37-.1-2.73-.1-4.1a6,6,0,1,0-11.92,0Z"/><path class="cls-16" d="M591.06,250.89c0,2.73-.12,5.44-.36,8.18,0,.67-.12,1.34-.19,2,0,.31-.07.62-.1.94s-.22,1.73-.07.6,0,0,0,.29-.1.62-.14.91l-.36,2.13a93.66,93.66,0,0,1-4.22,15.49c-.46,1.25-.94,2.47-1.44,3.69-.38,1,.55-1.25.12-.31l-.36.84c-.29.65-.58,1.29-.89,1.94-1.13,2.4-2.33,4.75-3.65,7s-2.76,4.63-4.29,6.86q-1.12,1.65-2.3,3.24c-.41.53-.82,1.06-1.2,1.58,0,.07.86-1.1.46-.6l-.29.36c-.22.29-.46.55-.67.84a110.85,110.85,0,0,1-11.13,11.87c-2,1.85-4.08,3.6-6.21,5.3-.22.17-1.22.94-.38.31s-.07.07-.26.22c-.6.46-1.18.89-1.77,1.32q-1.65,1.22-3.38,2.37a118.56,118.56,0,0,1-14.65,8.47c-1.27.62-2.57,1.22-3.86,1.8l-1.8.79c-.94.41,1.37-.58.07,0l-1.08.43q-4,1.62-8.13,2.95A129.4,129.4,0,0,1,501.23,347c-1.46.26-2.95.5-4.44.7s1.08-.14,0,0c-.34,0-.7.1-1,.12l-2.25.26c-3.09.31-6.21.53-9.3.65-1.53,0-3.09.07-4.65.07a6,6,0,0,0,0,12,139.61,139.61,0,0,0,37.89-5.25,129,129,0,0,0,33.24-14.77,118.86,118.86,0,0,0,26.45-22.52,110,110,0,0,0,18.44-29.81,98,98,0,0,0,7.31-33.26c.07-1.41.1-2.83.1-4.27a6,6,0,1,0-12,0Z"/><path id="SVGID" class="cls-17" d="M488.61,308.32l-17.27,141c0,17.91-46.57,32.45-104,32.45s-104-14.53-104-32.45L246,308.32Z"/><g class="cls-18"><path class="cls-16" d="M370.34,1303V307.32c0-13.45.24-26.91,0-40.36v-1.77c0-3.86-6-3.86-6,0v995.65c0,13.45-.24,26.91,0,40.36V1303c0,3.86,6,3.86,6,0Z"/></g><g class="cls-18"><path class="cls-16" d="M370.34,1303c-.6-8.92-1.18-17.82-1.77-26.74l-4.82-72.76q-3.56-53.81-7.15-107.6-4.35-65.39-8.68-130.77-4.75-71.58-9.5-143.21-4.82-72.52-9.62-145-4.5-67.63-9-135.23-3.78-57.12-7.58-114.24-2.7-40.93-5.42-81.85c-.86-12.95-1.61-25.9-2.57-38.82,0-.55-.07-1.13-.12-1.68-.26-3.84-6.26-3.86-6,0,.6,8.92,1.18,17.82,1.77,26.74l4.82,72.76q3.56,53.81,7.15,107.6,4.35,65.39,8.68,130.77l9.5,143.21q4.82,72.52,9.62,145,4.5,67.63,9,135.23,3.78,57.12,7.58,114.24,2.7,40.93,5.42,81.85c.86,12.95,1.61,25.9,2.57,38.82,0,.55.07,1.13.12,1.68.24,3.81,6.23,3.86,6,0Z"/></g><g class="cls-18"><path class="cls-16" d="M430.53,305c-.6,8.92-1.18,17.82-1.77,26.74l-4.82,72.76q-3.56,53.81-7.15,107.6-4.35,65.39-8.68,130.77l-9.5,143.21q-4.82,72.52-9.62,145-4.5,67.63-9,135.23-3.78,57.12-7.58,114.24-2.7,40.93-5.42,81.85c-.86,12.93-2.06,25.87-2.57,38.82,0,.55-.07,1.13-.12,1.68-.26,3.86,5.73,3.84,6,0,.6-8.92,1.18-17.82,1.77-26.74l4.82-72.76q3.56-53.81,7.15-107.6,4.35-65.39,8.68-130.77,4.75-71.58,9.5-143.21,4.82-72.52,9.62-145,4.5-67.63,9-135.23,3.78-57.12,7.58-114.24,2.7-40.93,5.42-81.85c.86-12.93,2.06-25.88,2.57-38.82,0-.55.07-1.13.12-1.68.26-3.86-5.73-3.84-6,0Z"/></g><g class="cls-18"><path class="cls-16" d="M370.34,1303c-.29-8.94-.6-17.89-.89-26.83q-1.19-36.19-2.4-72.4-1.8-53.88-3.57-107.74-2.16-65.29-4.34-130.55-2.37-72-4.77-144-2.41-72.16-4.8-144.34-2.23-67.77-4.48-135.51-1.87-56.87-3.76-113.74-1.37-41.19-2.73-82.35c-.43-12.93-.7-25.85-1.29-38.75,0-.58,0-1.13,0-1.7-.12-3.84-6.12-3.86-6,0,.29,8.94.6,17.89.89,26.83q1.19,36.19,2.4,72.4,1.8,53.88,3.57,107.74,2.16,65.29,4.34,130.55,2.37,72,4.77,144,2.41,72.16,4.8,144.34,2.23,67.77,4.48,135.51,1.87,56.87,3.76,113.74,1.37,41.19,2.73,82.35c.43,12.93.7,25.85,1.29,38.75,0,.58,0,1.13,0,1.7.12,3.84,6.12,3.86,6,0Z"/></g><g class="cls-18"><path class="cls-16" d="M397.44,305c-.29,8.94-.6,17.89-.89,26.83q-1.19,36.19-2.4,72.4-1.8,53.88-3.57,107.74-2.16,65.29-4.34,130.55-2.37,72-4.77,144-2.41,72.16-4.8,144.34-2.23,67.77-4.48,135.51-1.87,56.87-3.76,113.74-1.37,41.19-2.73,82.35c-.43,12.9-1.15,25.85-1.29,38.75,0,.58,0,1.13,0,1.7-.12,3.86,5.88,3.86,6,0,.29-8.94.6-17.89.89-26.83q1.19-36.19,2.4-72.4,1.8-53.88,3.57-107.74,2.16-65.29,4.34-130.55,2.37-72,4.77-144,2.41-72.16,4.8-144.34,2.23-67.77,4.48-135.51,1.87-56.87,3.76-113.74,1.37-41.19,2.73-82.35c.43-12.9,1.15-25.85,1.29-38.75,0-.58,0-1.13,0-1.7.12-3.86-5.88-3.86-6,0Z"/></g><g class="cls-18"><path class="cls-16" d="M370.34,1303q-1.29-13.38-2.59-26.79-3.53-36.26-7-72.54L350.29,1096q-6.33-65.43-12.69-130.86-6.94-71.65-13.91-143.31-7.05-72.59-14.08-145.15-6.55-67.45-13.09-134.87-5.54-57.19-11.1-114.36-4-41-7.94-81.92c-1.25-12.95-2.45-25.9-3.76-38.85,0-.55-.12-1.13-.17-1.68-.36-3.81-6.38-3.84-6,0q1.29,13.38,2.59,26.79,3.53,36.26,7,72.54L287.61,512q6.33,65.43,12.69,130.86,6.94,71.65,13.91,143.31,7.05,72.59,14.08,145.15,6.55,67.45,13.09,134.87,5.54,57.19,11.1,114.36,4,41,7.94,81.92c1.25,12.95,2.45,25.9,3.76,38.85,0,.55.12,1.13.17,1.68.36,3.79,6.35,3.84,6,0Z"/></g><g class="cls-18"><path class="cls-16" d="M461.15,305q-1.29,13.38-2.59,26.79-3.53,36.26-7,72.54L441.11,512q-6.33,65.43-12.69,130.86-6.94,71.65-13.91,143.31-7.05,72.59-14.08,145.15-6.55,67.45-13.09,134.87-5.54,57.19-11.1,114.36-4,41-7.94,81.92c-1.25,12.93-2.88,25.87-3.76,38.85,0,.55-.12,1.13-.17,1.68-.38,3.84,5.64,3.81,6,0q1.29-13.38,2.59-26.79,3.53-36.26,7-72.54L390.41,1096q6.33-65.43,12.69-130.86Q410,893.52,417,821.87q7.05-72.59,14.08-145.15,6.55-67.45,13.09-134.87,5.54-57.19,11.1-114.36,4-41,7.94-81.92c1.25-12.93,2.88-25.88,3.76-38.85,0-.55.12-1.13.17-1.68.36-3.84-5.64-3.81-6,0Z"/></g><g class="cls-18"><path class="cls-16" d="M370.34,1316.68q-1.51-13.74-3-27.48-4.1-37.37-8.18-74.77-6-55.07-12.06-110.14-7.37-67.41-14.77-134.82-8.09-73.85-16.16-147.67L299.91,673.26Q292.32,604,284.75,534.75,278.32,476,271.9,417.29q-4.64-42.23-9.26-84.44c-1.46-13.29-2.88-26.57-4.36-39.86-.07-.58-.12-1.15-.19-1.73-.41-3.79-6.43-3.84-6,0q1.51,13.74,3,27.48,4.1,37.37,8.18,74.77,6,55.07,12.06,110.14,7.37,67.41,14.77,134.82,8.09,73.85,16.16,147.67L322.52,934.7l15.18,138.51q6.44,58.74,12.85,117.46,4.64,42.23,9.26,84.44c1.46,13.29,2.88,26.57,4.36,39.86.07.58.12,1.15.19,1.73.38,3.79,6.38,3.84,6,0Z"/></g><g class="cls-18"><path class="cls-16" d="M476.62,291.3q-1.51,13.74-3,27.48-4.1,37.37-8.18,74.77-6,55.07-12.06,110.14Q446,571.1,438.61,638.51q-8.09,73.85-16.16,147.67L406.19,934.72,391,1073.23q-6.44,58.74-12.85,117.46-4.64,42.23-9.26,84.44c-1.46,13.26-3.31,26.55-4.36,39.86,0,.58-.12,1.15-.19,1.73-.41,3.84,5.59,3.79,6,0q1.51-13.74,3-27.48,4.1-37.37,8.18-74.77,6-55.07,12.06-110.14,7.37-67.41,14.77-134.82,8.09-73.85,16.16-147.67l16.26-148.54L456,534.77Q462.39,476,468.8,417.32q4.64-42.23,9.26-84.44c1.46-13.26,3.31-26.55,4.36-39.86,0-.58.12-1.15.19-1.73.41-3.84-5.59-3.79-6,0Z"/></g><g class="cls-18"><path class="cls-16" d="M370.34,1303q-1.12-13.35-2.21-26.67l-6-72.59q-4.42-53.67-8.85-107.36-5.4-65.5-10.79-131-5.9-71.76-11.82-143.5-6-72.41-11.92-144.84-5.58-67.55-11.13-135.08-4.71-57.09-9.4-114.17l-6.76-82.13c-1.08-13-2.06-26-3.21-38.94l-.14-1.68c-.31-3.81-6.31-3.86-6,0q1.12,13.35,2.21,26.67l6,72.59q4.42,53.67,8.85,107.36,5.4,65.5,10.79,131,5.9,71.76,11.82,143.5,6,72.41,11.92,144.84,5.58,67.55,11.13,135.08,4.71,57.09,9.4,114.17l6.76,82.13c1.08,13,2.06,26,3.21,38.94l.14,1.68c.31,3.81,6.31,3.84,6,0Z"/></g><g class="cls-18"><path class="cls-16" d="M446.48,305q-1.12,13.35-2.21,26.67l-6,72.59q-4.42,53.67-8.85,107.36-5.4,65.5-10.79,131-5.9,71.76-11.82,143.5-6,72.41-11.92,144.84-5.58,67.55-11.13,135.08-4.71,57.09-9.4,114.17l-6.76,82.13c-1.08,13-2.49,25.95-3.21,38.94,0,.55-.1,1.13-.14,1.68-.31,3.84,5.68,3.81,6,0q1.12-13.35,2.21-26.67l6-72.59q4.42-53.67,8.85-107.36,5.4-65.5,10.79-131,5.9-71.76,11.82-143.5,6-72.41,11.92-144.84Q427.4,609.5,433,542q4.71-57.09,9.4-114.17l6.76-82.13c1.08-13,2.49-25.95,3.21-38.94,0-.55.1-1.13.14-1.68.34-3.86-5.66-3.84-6,0Z"/></g><g class="cls-18"><path class="cls-16" d="M370.34,1303,369,1276.15q-1.83-36.29-3.69-72.61l-5.47-107.31q-3.35-65.68-6.69-131.39l-7.27-142.9q-3.71-72.63-7.39-145.23-3.42-67.48-6.86-134.94-2.91-57-5.8-114.05l-4.17-82.25c-.65-12.9-1.18-25.83-2-38.7,0-.58,0-1.13-.1-1.7-.19-3.84-6.19-3.86-6,0l1.37,26.81q1.83,36.29,3.69,72.61l5.47,107.31q3.35,65.68,6.69,131.39l7.27,142.9q3.71,72.63,7.39,145.23,3.42,67.48,6.86,134.94,2.91,57,5.8,114.05l4.17,82.25c.65,12.9,1.18,25.83,2,38.7,0,.58,0,1.13.1,1.7.19,3.84,6.19,3.86,6,0Z"/></g><g class="cls-18"><path class="cls-16" d="M415.06,305l-1.37,26.81q-1.83,36.29-3.69,72.61l-5.47,107.31q-3.35,65.68-6.69,131.39l-7.27,142.9q-3.71,72.63-7.39,145.23-3.42,67.48-6.86,134.94-2.91,57-5.8,114.05l-4.17,82.25c-.65,12.9-1.63,25.8-2,38.7,0,.58,0,1.13-.1,1.7-.19,3.86,5.8,3.84,6,0l1.37-26.81q1.83-36.29,3.69-72.61l5.47-107.31q3.35-65.68,6.69-131.39l7.27-142.9q3.71-72.63,7.39-145.23,3.42-67.48,6.86-134.94,2.91-57,5.8-114.05L419,345.45c.65-12.9,1.63-25.8,2-38.7,0-.58,0-1.13.1-1.7.22-3.86-5.78-3.86-6,0Z"/></g><g class="cls-18"><path class="cls-16" d="M370.34,1303c-.17-8.94-.31-17.89-.48-26.83q-.65-36.19-1.27-72.4-.94-53.88-1.89-107.74-1.15-65.29-2.3-130.55-1.26-72-2.54-144-1.26-72.16-2.54-144.34-1.19-67.77-2.4-135.51l-2-113.74q-.72-41.19-1.46-82.35c-.24-12.93-.26-25.85-.7-38.75,0-.58,0-1.13,0-1.7-.07-3.86-6.07-3.86-6,0,.17,8.94.31,17.89.48,26.83q.65,36.19,1.27,72.4.94,53.88,1.89,107.74,1.15,65.29,2.3,130.55,1.26,72,2.54,144,1.26,72.16,2.54,144.34,1.19,67.77,2.4,135.51l2,113.74q.72,41.19,1.46,82.35c.24,12.93.26,25.85.7,38.75,0,.58,0,1.13,0,1.7,0,3.84,6,3.86,6,0Z"/></g><g class="cls-18"><path class="cls-16" d="M382,305c-.17,8.94-.31,17.89-.48,26.83q-.65,36.19-1.27,72.4-.94,53.88-1.89,107.74Q377.2,577.3,376,642.56q-1.26,72-2.54,144Q372.25,858.7,371,930.88q-1.19,67.77-2.4,135.51l-2,113.74q-.72,41.19-1.46,82.35c-.24,12.9-.72,25.85-.7,38.75,0,.58,0,1.13,0,1.7-.07,3.86,5.92,3.86,6,0,.17-8.94.31-17.89.48-26.83q.65-36.19,1.27-72.4.94-53.88,1.89-107.74,1.15-65.29,2.3-130.55,1.26-72,2.54-144,1.26-72.16,2.54-144.34,1.19-67.77,2.4-135.51l2-113.74q.72-41.19,1.46-82.35c.24-12.9.72-25.85.7-38.75,0-.58,0-1.13,0-1.7.07-3.86-5.92-3.86-6,0Z"/></g><ellipse class="cls-19" cx="367.34" cy="265.16" rx="149.06" ry="74.24"/><ellipse class="cls-20" cx="367.34" cy="209.28" rx="92.44" ry="46.04"/><path class="cls-21" d="M403,148.13c12.95,11.51,3.31,51.51-35.61,51.51a37.6,37.6,0,0,1-37.6-37.6c0-20.77,15.66-54.2,57.39-54.2C387.13,107.82,361.42,111.2,403,148.13Z"/><circle cx="291.44" cy="279.09" r="23.74"/><circle cx="432.11" cy="279.09" r="23.74"/><circle cx="361.78" cy="298.73" r="23.74"/><rect x="338.01" y="274.99" width="47.51" height="23.74"/></svg>