<svg id="Layer_1" data-name="Layer 1" xmlns="http://www.w3.org/2000/svg" xmlns:xlink="http://www.w3.org/1999/xlink" viewBox="0 0 735 852"><defs><style>.cls-1{fill:#53bfd3;}.cls-2{opacity:0.25;fill:url(#linear-gradient);}.cls-3{fill:#2e0e00;}.cls-4{fill:#e6b35a;}.cls-5{fill:#331300;}.cls-6{fill:#4e2400;}.cls-7{fill:#eee6d2;}.cls-8{fill:#ca015f;}.cls-9{fill:#fafafa;}</style><linearGradient id="linear-gradient" x1="367.04" y1="-128.83" x2="367.04" y2="340.44" gradientUnits="userSpaceOnUse"><stop offset="0" stop-color="#fff" stop-opacity="0.83"/><stop offset="0.56" stop-color="#fff" stop-opacity="0.37"/><stop offset="1" stop-color="#fff" stop-opacity="0"/></linearGradient></defs><title>recipes</title><path class="cls-1" d="M705.61,231l-50.9-29.39c-49.25,81.8-159.59,138.79-287.82,138.79-128,0-238.11-56.75-287.51-138.28L29.37,231V621.47L367.49,816.68,705.61,621.47Z"/><path class="cls-1" d="M366.89,340.44c128.23,0,238.57-57,287.82-138.79L367.49,35.82h0L79.38,202.16C128.78,283.69,238.93,340.44,366.89,340.44Z"/><path class="cls-2" d="M366.89,340.44c128.23,0,238.57-57,287.82-138.79L367.49,35.82h0L79.38,202.16C128.78,283.69,238.93,340.44,366.89,340.44Z"/><path class="cls-3" d="M734.91,637.38V213.13l-29.3-16.92L427.81,35.82,367.5,1,307.19,35.82,29.37,196.22.09,213.13V637.38l29.28,16.91L310.65,816.68l56.85,32.83,56.85-32.83L705.61,654.3ZM29.37,621.47V231l50-28.88L367.49,35.82h0L654.71,201.65,705.61,231V621.47L367.49,816.68Z"/><path class="cls-4" d="M58.85,289.54c.29-.28.6-.59.93-.89h-.25C59.3,289,59.08,289.25,58.85,289.54Z"/><path class="cls-4" d="M367,633.9c.29-.29.61-.59.94-.89h-.26C367.49,633.31,367.26,633.61,367,633.9Z"/><path class="cls-3" d="M157.26,591.48c0-9.12-.16-17-.64-24.16h12.32l.48,15.2h.64c3.52-10.4,12-17,21.44-17a15.23,15.23,0,0,1,4,.48v13.28a21.15,21.15,0,0,0-4.8-.48c-9.92,0-17,7.52-18.88,18.08a39.63,39.63,0,0,0-.64,6.56v41.28H157.26Z"/><path class="cls-3" d="M210.7,608.6c.32,19,12.48,26.88,26.56,26.88,10.08,0,16.16-1.76,21.44-4l2.4,10.08c-5,2.24-13.44,4.8-25.76,4.8-23.84,0-38.08-15.68-38.08-39s13.76-41.76,36.32-41.76c25.28,0,32,22.24,32,36.48a53.11,53.11,0,0,1-.48,6.56ZM252,598.52c.16-9-3.68-22.88-19.52-22.88-14.24,0-20.48,13.12-21.6,22.88Z"/><path class="cls-3" d="M333.1,641.88c-3.68,1.92-11.84,4.48-22.24,4.48-23.36,0-38.56-15.84-38.56-39.52,0-23.84,16.32-41.12,41.6-41.12,8.32,0,15.68,2.08,19.52,4l-3.2,10.88c-3.36-1.92-8.64-3.68-16.32-3.68-17.76,0-27.36,13.12-27.36,29.28,0,17.92,11.52,29,26.88,29a40,40,0,0,0,17.28-3.84Z"/><path class="cls-3" d="M360.14,545.56c.16,4.8-3.36,8.64-9,8.64a8.37,8.37,0,0,1-8.48-8.64,8.58,8.58,0,0,1,8.8-8.8C356.78,536.76,360.14,540.6,360.14,545.56Zm-15.68,99.2V567.32h14.08v77.44Z"/><path class="cls-3" d="M376.78,592.6c0-9.92-.32-17.92-.64-25.28h12.64l.64,13.28h.32c5.76-9.44,14.88-15,27.52-15,18.72,0,32.8,15.84,32.8,39.36,0,27.84-17,41.6-35.2,41.6-10.24,0-19.2-4.48-23.84-12.16h-.32v42.09H376.78Zm13.92,20.64a31.71,31.71,0,0,0,.64,5.76,21.73,21.73,0,0,0,21.12,16.48c14.88,0,23.52-12.16,23.52-29.92,0-15.52-8.16-28.8-23-28.8-9.6,0-18.56,6.88-21.28,17.44a22.83,22.83,0,0,0-1,5.76Z"/><path class="cls-3" d="M470.53,608.6c.32,19,12.48,26.88,26.56,26.88,10.08,0,16.16-1.76,21.44-4l2.4,10.08c-5,2.24-13.44,4.8-25.76,4.8-23.84,0-38.08-15.68-38.08-39s13.76-41.76,36.32-41.76c25.28,0,32,22.24,32,36.48a53.11,53.11,0,0,1-.48,6.56Zm41.28-10.08c.16-9-3.68-22.88-19.52-22.88-14.24,0-20.48,13.12-21.6,22.88Z"/><path class="cls-3" d="M535.81,630.36a36.9,36.9,0,0,0,18.56,5.6c10.24,0,15-5.12,15-11.52,0-6.72-4-10.4-14.4-14.24-13.92-5-20.48-12.64-20.48-21.92,0-12.48,10.08-22.72,26.72-22.72a38.65,38.65,0,0,1,19,4.8l-3.52,10.24a30.14,30.14,0,0,0-15.84-4.48c-8.32,0-13,4.8-13,10.56,0,6.4,4.64,9.28,14.72,13.12,13.44,5.12,20.32,11.84,20.32,23.36,0,13.6-10.56,23.2-29,23.2-8.48,0-16.32-2.08-21.76-5.28Z"/><path class="cls-3" d="M365.53,797.29,370,801.8c1,1,1.89,1.9,2.72,2.87l.06,0c-.38-1.2-.69-2.52-1-3.84l-1.4-6.33,1.59-.93,4.67,4.28c1.12,1,2.06,2,2.91,2.87l.07,0a34.9,34.9,0,0,1-1.18-3.86l-1.56-6.12,1.88-1.09L381.48,802l-1.72,1-4.51-4.06c-1-1-1.95-1.81-2.93-2.89l0,0a35.14,35.14,0,0,1,1.06,4l1.21,5.95-1.73,1-9.24-8.62Z"/><path class="cls-3" d="M381.68,787.88l4.48,4.51c1,1,1.89,1.9,2.72,2.87l.06,0c-.38-1.19-.69-2.52-1-3.84l-1.39-6.33,1.59-.93,4.67,4.28c1.11,1,2.06,2,2.91,2.87l.07,0a34.9,34.9,0,0,1-1.18-3.86l-1.56-6.12,1.88-1.09,2.71,12.42-1.73,1-4.5-4.06a39.86,39.86,0,0,1-2.93-2.89l0,0a35.14,35.14,0,0,1,1.06,4l1.21,6-1.73,1L379.74,789Z"/><path class="cls-3" d="M397.84,778.47l4.48,4.51c1,1,1.89,1.91,2.72,2.87l.06,0c-.38-1.19-.69-2.52-1-3.84l-1.4-6.33,1.6-.93L409,779c1.11,1,2.06,2,2.91,2.87l.07,0a34.9,34.9,0,0,1-1.18-3.86l-1.56-6.12,1.87-1.09,2.72,12.42-1.73,1-4.5-4.06a39.86,39.86,0,0,1-2.93-2.89l0,0a36.59,36.59,0,0,1,1.06,4l1.21,6-1.73,1-9.24-8.62Z"/><path class="cls-3" d="M417.13,779.74a1.49,1.49,0,1,1,2.06.62A1.48,1.48,0,0,1,417.13,779.74Z"/><path class="cls-3" d="M418.52,770.8c-.72-1.23-1.36-2.28-2-3.21l1.67-1,1.25,2,.09,0a3.63,3.63,0,0,1,1.56-4,2.36,2.36,0,0,1,.58-.25l1,1.79a3.31,3.31,0,0,0-.68.31,3.09,3.09,0,0,0-1.13,3.93,6.84,6.84,0,0,0,.43.94l3.24,5.57L422.71,778Z"/><path class="cls-3" d="M428.38,772.09a5.7,5.7,0,0,0,2.94-.71c1.39-.8,1.63-1.87,1.13-2.73s-1.36-1.09-3.06-.79c-2.27.42-3.76-.1-4.49-1.35-1-1.69-.43-3.86,1.82-5.17a6,6,0,0,1,2.95-.85l.33,1.66a4.67,4.67,0,0,0-2.49.64,1.75,1.75,0,0,0-.92,2.44c.5.87,1.35.89,3,.62,2.21-.37,3.67,0,4.57,1.55,1.07,1.84.4,4-2.08,5.41a6.94,6.94,0,0,1-3.35,1Z"/><path class="cls-3" d="M432.78,754.11l1.75,3,2.72-1.58.84,1.44-2.72,1.59,3.28,5.63c.76,1.3,1.55,1.82,2.61,1.21a4.63,4.63,0,0,0,1-.78l.91,1.38a5.39,5.39,0,0,1-1.53,1.24,3.06,3.06,0,0,1-2.52.4,4.55,4.55,0,0,1-2.32-2.3l-3.32-5.7-1.62.94-.84-1.44,1.62-.95-1.46-2.5Z"/><path class="cls-3" d="M452.56,756.79c.63,1.08,1.21,2,1.75,2.8l-1.68,1-1.11-1.64,0,0a4.58,4.58,0,0,1-2.32,4c-1.65,1-4.14,1.19-6.28-2.48l-3.56-6.11,1.91-1.11,3.36,5.79c1.16,2,2.55,3,4.27,2a3.16,3.16,0,0,0,1.5-3.19,3.09,3.09,0,0,0-.39-1.07l-3.73-6.42,1.9-1.1Z"/><path class="cls-3" d="M457.48,737.21l7.36,12.64c.54.92,1.17,2,1.65,2.65l-1.7,1-1.15-1.77,0,0a4.46,4.46,0,0,1-2.37,4.13c-2.52,1.47-5.71.46-7.56-2.71-2.05-3.47-1.13-6.86,1.41-8.35a4.07,4.07,0,0,1,4.09-.24l0,0-3.63-6.24Zm3.42,10.24a4.37,4.37,0,0,0-.55-.75,3.25,3.25,0,0,0-4-.6c-2,1.14-2.13,3.55-.78,5.86,1.23,2.12,3.29,3.26,5.34,2.07a3.32,3.32,0,0,0,1.47-3.89,3.75,3.75,0,0,0-.4-.87Z"/><path class="cls-3" d="M463.88,736.08a1.36,1.36,0,0,1-2.35,1.38,1.34,1.34,0,0,1,.49-1.88A1.3,1.3,0,0,1,463.88,736.08Zm5.68,14.63-6.08-10.46,1.9-1.1,6.09,10.45Z"/><path class="cls-3" d="M481,736.94c2.26,3.87.56,7.11-2,8.59-2.83,1.64-6.22.84-8.14-2.47-2-3.49-.94-6.88,1.95-8.56S479.12,733.75,481,736.94Zm-8.23,4.94c1.34,2.29,3.66,3.25,5.52,2.17s2.18-3.56.81-5.91c-1-1.77-3.23-3.5-5.47-2.19S471.6,739.89,472.75,741.88Z"/><path class="cls-3" d="M484.85,740.3a1.47,1.47,0,0,1,.51-2.11,1.57,1.57,0,0,1,1.56,2.73A1.48,1.48,0,0,1,484.85,740.3Z"/><path class="cls-3" d="M497.66,733.83a8.2,8.2,0,0,1-2.65,2.35c-3.16,1.84-6.45.89-8.31-2.3a6.14,6.14,0,0,1,2.38-8.82,7.38,7.38,0,0,1,2.95-1l.42,1.72a5.23,5.23,0,0,0-2.49.79c-2.4,1.4-2.66,3.92-1.39,6.1,1.41,2.42,3.83,3,5.9,1.8a6.16,6.16,0,0,0,2-1.88Z"/><path class="cls-3" d="M506.35,722.18c2.25,3.86.55,7.11-2,8.58-2.83,1.65-6.22.84-8.15-2.46-2-3.5-.94-6.89,1.95-8.57S504.49,719,506.35,722.18Zm-8.23,4.93c1.33,2.29,3.65,3.25,5.51,2.17s2.18-3.55.81-5.91c-1-1.77-3.22-3.5-5.47-2.19S497,725.13,498.12,727.11Z"/><path class="cls-3" d="M507.4,718.47c-.63-1.08-1.16-2-1.73-2.78l1.66-1,1.07,1.63.07,0a4.16,4.16,0,0,1,2.16-3.84,3.59,3.59,0,0,1,4.18.37l0,0a4.8,4.8,0,0,1,.38-2,4.05,4.05,0,0,1,1.88-2.08c1.38-.81,4-1.09,6.07,2.54l3.59,6.15-1.86,1.08-3.45-5.92c-1.16-2-2.6-2.79-4.14-1.89a2.85,2.85,0,0,0-1.24,3,3.75,3.75,0,0,0,.4,1l3.76,6.46-1.85,1.08L514.74,716c-1-1.67-2.41-2.45-3.85-1.61a3,3,0,0,0-1.25,3.28,2.86,2.86,0,0,0,.39,1L513.7,725l-1.86,1.08Z"/><path class="cls-5" d="M304.23,474.82q-2.81,8.64-5.59,17.27-4.42,13.67-8.87,27.36c-.68,2.08-1.37,4.17-2,6.28a6.08,6.08,0,0,0,4.19,7.39,6.16,6.16,0,0,0,7.39-4.2q2.81-8.62,5.59-17.27,4.43-13.66,8.87-27.36c.67-2.08,1.37-4.17,2-6.28a6.08,6.08,0,0,0-4.2-7.39,6.15,6.15,0,0,0-7.38,4.2Z"/><path class="cls-5" d="M426,476.4c1.49,5.83,3,11.66,4.49,17.46q3.56,13.84,7.12,27.72l1.65,6.41a6,6,0,0,0,11.59-3.19c-1.49-5.83-3-11.66-4.49-17.46q-3.56-13.84-7.12-27.72c-.55-2.14-1.1-4.27-1.66-6.41A6,6,0,0,0,426,476.4Z"/><path class="cls-5" d="M132.91,256.38a99.43,99.43,0,0,0,5.92,33.77,108,108,0,0,0,17.32,30.45A116.25,116.25,0,0,0,181.69,344a127.48,127.48,0,0,0,32.42,15.73,136.41,136.41,0,0,0,37.26,6.47c1.61,0,3.22.08,4.82.1a6,6,0,1,0,0-12c-3.09,0-6.16-.1-9.23-.31-1.51-.1-3-.24-4.56-.38-.74-.08-1.51-.17-2.25-.27-.34-.05-.7-.09-1-.12-1.34-.17,1.22.17-.12,0a129.22,129.22,0,0,1-17.36-3.7c-2.83-.81-5.66-1.72-8.44-2.73-1.35-.48-2.69-1-4-1.53a8.3,8.3,0,0,1-.91-.39c-.15-.07-.32-.12-.46-.19-.6-.24.74.31.67.29-.69-.31-1.41-.6-2.11-.91a120.4,120.4,0,0,1-14.87-7.94q-3.59-2.24-7-4.75c-.5-.38-1-.74-1.53-1.13s-1.37-1.1.07.08c-.29-.24-.58-.46-.86-.7-1.08-.84-2.14-1.73-3.17-2.61a112.83,112.83,0,0,1-11.63-11.51c-.89-1-1.73-2-2.57-3.07-.38-.48-.76-1-1.15-1.47-.07-.07.84,1.13.48.6a5.71,5.71,0,0,0-.38-.48l-.65-.86c-1.58-2.13-3.07-4.34-4.48-6.59s-2.71-4.56-3.94-6.91c-.62-1.22-1.24-2.45-1.82-3.69-.26-.56-.5-1.11-.77-1.66-.12-.29-.24-.55-.36-.84-.52-1.22.51,1.23,0,0a97.15,97.15,0,0,1-4.82-15.16c-.28-1.29-.55-2.61-.79-3.93-.12-.65-.24-1.32-.33-2,0-.31-.1-.63-.15-.91s0-.32-.07-.46c-.14-1,0,.19.07.53a66.75,66.75,0,0,1-.72-8.11c-.07-1.36-.09-2.73-.09-4.1a6,6,0,1,0-11.92,0Z"/><path class="cls-5" d="M591.06,250.89c0,2.73-.12,5.44-.36,8.18-.05.67-.12,1.34-.19,2,0,.31-.08.63-.1.94s-.22,1.72-.07.6,0,0-.05.28-.1.63-.14.92c-.12.72-.24,1.41-.36,2.13a94.09,94.09,0,0,1-4.22,15.49c-.46,1.25-.94,2.47-1.44,3.69-.39,1,.55-1.24.12-.31l-.36.84c-.29.65-.58,1.3-.89,1.94-1.13,2.4-2.33,4.75-3.65,7s-2.75,4.63-4.29,6.86c-.74,1.1-1.51,2.18-2.3,3.24-.41.52-.81,1-1.2,1.58,0,.07.86-1.1.46-.6l-.29.36c-.22.29-.46.55-.67.84a111.58,111.58,0,0,1-11.13,11.87c-2,1.85-4.08,3.6-6.21,5.3-.22.17-1.22.93-.38.31s-.08.07-.27.22l-1.77,1.32c-1.11.81-2.23,1.6-3.38,2.37a119.14,119.14,0,0,1-14.66,8.46c-1.27.63-2.56,1.23-3.86,1.8l-1.8.79c-.93.41,1.37-.57.08,0l-1.08.43q-4,1.62-8.13,2.95A130,130,0,0,1,501.23,347c-1.47.27-3,.51-4.44.7s1.08-.14,0,0c-.34.05-.7.1-1,.12-.75.1-1.51.17-2.26.26-3.09.32-6.21.53-9.3.65-1.54,0-3.1.07-4.65.07a6,6,0,1,0,0,12,139.55,139.55,0,0,0,37.89-5.25,129,129,0,0,0,33.23-14.77,118.78,118.78,0,0,0,26.45-22.52,109.79,109.79,0,0,0,18.44-29.81,98.13,98.13,0,0,0,7.32-33.26c.07-1.41.09-2.83.09-4.27a6,6,0,1,0-12,0Z"/><path id="SVGID" class="cls-6" d="M488.61,308.32l-17.26,141c0,17.91-46.57,32.44-104,32.44s-104-14.53-104-32.44L246,308.32Z"/><path class="cls-5" d="M364.35,368.49V481.76l3,0,3,0V308.32h-6Z"/><path class="cls-5" d="M299.93,331.78q2.42,36.36,4.82,72.75l4.77,71.78q3,.62,6.06,1.17-1.66-25.05-3.32-50.09-2.7-40.93-5.42-81.85c-.83-12.41-1.55-24.82-2.45-37.22h-6Q299.16,320,299.93,331.78Z"/><path class="cls-5" d="M428.76,331.78q-2.42,36.36-4.82,72.75t-4.85,73q3.12-.57,6.09-1.18l3.24-48.91q2.7-40.93,5.42-81.85c.83-12.39,2-24.8,2.49-37.22h-6Q429.53,320,428.76,331.78Z"/><path class="cls-5" d="M332.14,331.9q1.19,36.18,2.4,72.39l2.52,76.09q3,.28,6,.51-.88-26.52-1.76-53-1.36-41.19-2.73-82.35c-.41-12.41-.68-24.81-1.23-37.2h-6Q331.75,320.11,332.14,331.9Z"/><path class="cls-5" d="M396.55,331.87q-1.19,36.19-2.4,72.4-1.27,38.31-2.54,76.61,3-.22,6-.51l1.74-52.53,2.73-82.35c.41-12.37,1.08-24.79,1.26-37.17h-6Q396.94,320.1,396.55,331.87Z"/><path class="cls-5" d="M270.15,331.8q3.53,36.26,7,72.54l6.21,64.16c2,.83,4.05,1.64,6.25,2.41q-2.1-21.72-4.21-43.45-4-41-7.94-81.92c-1.2-12.4-2.35-24.81-3.61-37.22h-6Q269,320,270.15,331.8Z"/><path class="cls-5" d="M466.86,308.32h-6l-2.28,23.5q-3.53,36.27-7,72.55l-6.45,66.5c2.19-.77,4.26-1.56,6.21-2.4q2-20.49,4-41,4-41,7.94-81.91C464.41,333.17,466,320.76,466.86,308.32Z"/><path class="cls-5" d="M277.18,465.53q-2.64-24.12-5.28-48.24-4.63-42.23-9.26-84.43-1.35-12.27-2.68-24.54h-6c.38,3.48.77,7,1.14,10.44q4.09,37.37,8.18,74.77,3.72,33.92,7.43,67.84A46.22,46.22,0,0,0,277.18,465.53Z"/><path class="cls-5" d="M468.8,417.32q4.65-42.24,9.26-84.44c.9-8.18,1.95-16.36,2.87-24.56h-6.16c-.38,3.49-.77,7-1.15,10.46q-4.1,37.38-8.17,74.77-3.94,36-7.88,71.92a45.08,45.08,0,0,0,6.42-4.14Q466.39,439.33,468.8,417.32Z"/><path class="cls-5" d="M284.35,331.68l6,72.59q2.82,34.32,5.66,68.67c2,.58,4,1.14,6.13,1.67q-1.92-23.43-3.85-46.84-3.39-41.08-6.77-82.13c-1-12.43-2-24.88-3.07-37.32h-6Q283.39,320,284.35,331.68Z"/><path class="cls-5" d="M444.27,331.7l-6,72.59-5.79,70.32q3.17-.8,6.13-1.66,1.85-22.57,3.71-45.16,3.39-41.07,6.77-82.13c1-12.44,2.37-24.88,3.11-37.34h-6Q445.24,320,444.27,331.7Z"/><path class="cls-5" d="M315,331.87q1.83,36.3,3.69,72.62,1.89,37.06,3.77,74.11c2,.3,4,.57,6,.83q-1.32-25.86-2.63-51.71l-4.17-82.25c-.63-12.38-1.14-24.78-1.88-37.15h-6Q314.33,320.11,315,331.87Z"/><path class="cls-5" d="M413.7,331.85q-1.84,36.3-3.7,72.61-1.9,37.5-3.82,75c2.05-.26,4.07-.53,6.05-.83q1.31-25.46,2.59-50.9,2.1-41.11,4.18-82.25c.62-12.38,1.54-24.75,1.91-37.13h-6Z"/><path class="cls-5" d="M347.2,331.9q.65,36.18,1.27,72.39l1.35,77q3,.15,6,.26-.48-26.86-1-53.71-.72-41.19-1.47-82.35c-.23-12.41-.27-24.81-.65-37.2h-6Q347,320.11,347.2,331.9Z"/><path class="cls-5" d="M381.52,331.87q-.66,36.19-1.28,72.4-.66,38.66-1.35,77.3c2-.07,4-.15,6-.26q.48-26.73.95-53.47.72-41.18,1.46-82.35c.23-12.37.67-24.79.69-37.17h-6Q381.72,320.1,381.52,331.87Z"/><ellipse class="cls-7" cx="367.34" cy="265.16" rx="149.06" ry="74.24"/><ellipse class="cls-8" cx="367.34" cy="209.28" rx="92.44" ry="46.04"/><path class="cls-9" d="M403,148.13c12.95,11.51,3.31,51.51-35.61,51.51a37.6,37.6,0,0,1-37.6-37.6c0-20.76,15.66-54.19,57.39-54.19C387.13,107.82,361.42,111.2,403,148.13Z"/><circle cx="291.44" cy="279.09" r="23.74"/><circle cx="432.11" cy="279.09" r="23.74"/><circle cx="361.78" cy="298.73" r="23.74"/><rect x="338.01" y="274.99" width="47.51" height="23.74"/></svg>