<?xml version="1.0" encoding="utf-8"?>
<!-- Generator: Adobe Illustrator 26.5.0, SVG Export Plug-In . SVG Version: 6.00 Build 0)  -->
<svg version="1.1" id="Layer_1" xmlns="http://www.w3.org/2000/svg" xmlns:xlink="http://www.w3.org/1999/xlink" x="0px" y="0px"
	 viewBox="0 0 2521 2911" style="enable-background:new 0 0 2521 2911;" xml:space="preserve">
<style type="text/css">
	.st0{fill:#2E0E00;}
	.st1{fill:#53BFD3;}
	.st2{opacity:0.25;fill:url(#SVGID_1_);enable-background:new    ;}
	.st3{fill:#E6B35A;}
	.st4{fill:#331300;}
	.st5{fill:#4E2400;}
	.st6{fill:#EEE6D2;}
	.st7{fill:#CA015F;}
	.st8{fill:#FAFAFA;}
</style>
<g>
	<path class="st0" d="M2521,2183.2V727.8l-100.5-58l-953.1-550.3L1260.5,0l-206.9,119.5L100.5,669.7L0,727.8v1455.5l100.5,58
		l965,557.1l195,112.6l195-112.6l964.9-557.1L2521,2183.2z M100.5,2128.7V789.1L272,690l988.5-570.5l0,0l985.4,568.9l174.6,100.7
		v1339.6l-1160,669.7L100.5,2128.7z"/>
	<g>
		<path class="st1" d="M2420.5,789.1l-174.6-100.8c-169,280.6-547.5,476.1-987.4,476.1c-439.1,0-816.9-194.7-986.4-474.4
			l-171.6,99.1v1339.6l1160,669.7l1160-669.7V789.1z"/>
		<path class="st1" d="M1258.4,1164.5c439.9,0,818.5-195.6,987.4-476.1l-985.4-568.9l0,0L272,690.1
			C441.5,969.8,819.4,1164.5,1258.4,1164.5z"/>
		
			<linearGradient id="SVGID_1_" gradientUnits="userSpaceOnUse" x1="1258.9391" y1="1297.4104" x2="1258.9391" y2="-312.5236" gradientTransform="matrix(1 0 0 -1 0 852)">
			<stop  offset="0" style="stop-color:#FFFFFF;stop-opacity:0.83"/>
			<stop  offset="0.56" style="stop-color:#FFFFFF;stop-opacity:0.37"/>
			<stop  offset="1" style="stop-color:#FFFFFF;stop-opacity:0"/>
		</linearGradient>
		<path class="st2" d="M1258.4,1164.5c439.9,0,818.5-195.6,987.4-476.1l-985.4-568.9l0,0L272,690.1
			C441.5,969.8,819.4,1164.5,1258.4,1164.5z"/>
		<path class="st3" d="M201.6,989.9c1-1,2.1-2,3.2-3.1h-0.9C203.1,988,202.4,988.9,201.6,989.9z"/>
		<path class="st3" d="M1258.8,2171.3c1-1,2.1-2,3.2-3.1h-0.9C1260.5,2169.3,1259.7,2170.3,1258.8,2171.3z"/>
		<path class="st0" d="M539.2,2025.8c0-31.3-0.5-58.3-2.2-82.9h42.3l1.6,52.1h2.2c12.1-35.7,41.2-58.3,73.6-58.3
			c4.6-0.1,9.2,0.5,13.7,1.6v45.6c-5.4-1.2-10.9-1.7-16.5-1.6c-34,0-58.3,25.8-64.8,62c-1.4,7.4-2.1,15-2.2,22.5v141.6h-47.8V2025.8
			z"/>
		<path class="st0" d="M722.6,2084.5c1.1,65.2,42.8,92.2,91.1,92.2c34.6,0,55.4-6,73.6-13.7l8.2,34.6c-17.2,7.7-46.1,16.5-88.4,16.5
			c-81.8,0-130.6-53.8-130.6-133.8c0-80,47.2-143.3,124.6-143.3c86.7,0,109.8,76.3,109.8,125.2c-0.1,7.5-0.6,15-1.6,22.5
			L722.6,2084.5z M864.2,2049.9c0.5-30.9-12.6-78.5-67-78.5c-48.9,0-70.3,45-74.1,78.5H864.2z"/>
		<path class="st0" d="M1142.5,2198.7c-12.6,6.6-40.6,15.4-76.3,15.4c-80.1,0-132.3-54.3-132.3-135.6c0-81.8,56-141.1,142.7-141.1
			c28.5,0,53.8,7.1,67,13.7l-11,37.3c-11.5-6.6-29.6-12.6-56-12.6c-60.9,0-93.9,45-93.9,100.5c0,61.5,39.5,99.5,92.2,99.5
			c20.5,0.1,40.8-4.4,59.3-13.2L1142.5,2198.7z"/>
		<path class="st0" d="M1235.2,1868.2c0.5,16.5-11.5,29.6-30.9,29.6c-15.9,0.2-28.9-12.5-29.1-28.3c0-0.4,0-0.9,0-1.3
			c-0.4-16.3,12.4-29.8,28.7-30.2c0.5,0,1,0,1.5,0C1223.7,1838,1235.2,1851.2,1235.2,1868.2z M1181.5,2208.6v-265.7h48.3v265.7
			H1181.5z"/>
		<path class="st0" d="M1292.3,2029.6c0-34-1.1-61.5-2.2-86.7h43.4l2.2,45.6h1.1c19.8-32.4,51-51.5,94.4-51.5
			c64.2,0,112.5,54.3,112.5,135c0,95.5-58.3,142.7-120.8,142.7c-35.1,0-65.9-15.4-81.8-41.7h-1.1v144.4h-47.8V2029.6z
			 M1340.1,2100.4c0.1,6.6,0.9,13.3,2.2,19.8c8.3,33.3,38.2,56.6,72.5,56.5c51,0,80.7-41.7,80.7-102.6c0-53.2-28-98.8-78.9-98.8
			c-32.9,0-63.7,23.6-73,59.8c-2,6.4-3.1,13.1-3.4,19.8V2100.4z"/>
		<path class="st0" d="M1614,2084.5c1.1,65.2,42.8,92.2,91.1,92.2c34.6,0,55.4-6,73.6-13.7l8.2,34.6c-17.2,7.7-46.1,16.5-88.4,16.5
			c-81.8,0-130.6-53.8-130.6-133.8c0-80,47.2-143.3,124.6-143.3c86.7,0,109.8,76.3,109.8,125.2c-0.1,7.5-0.6,15-1.6,22.5
			L1614,2084.5z M1755.6,2049.9c0.5-30.9-12.6-78.5-67-78.5c-48.9,0-70.3,45-74.1,78.5H1755.6z"/>
		<path class="st0" d="M1837.9,2159.2c19.1,12,41.1,18.6,63.7,19.2c35.1,0,51.5-17.6,51.5-39.5c0-23.1-13.7-35.7-49.4-48.9
			c-47.8-17.2-70.3-43.4-70.3-75.2c0-42.8,34.6-77.9,91.7-77.9c22.8-0.2,45.2,5.5,65.2,16.5l-12.1,35.1
			c-16.3-10.1-35.2-15.4-54.3-15.4c-28.5,0-44.6,16.5-44.6,36.2c0,22,15.9,31.8,50.5,45c46.1,17.6,69.7,40.6,69.7,80.1
			c0,46.7-36.2,79.6-99.5,79.6c-29.1,0-56-7.1-74.7-18.1L1837.9,2159.2z"/>
		<path class="st4" d="M1043.4,1625.5c-6.4,19.8-12.8,39.5-19.2,59.2c-10.1,31.3-20.3,62.6-30.4,93.9c-2.3,7.1-4.7,14.3-6.9,21.5
			c-2.9,11,3.5,22.2,14.4,25.4c10.9,2.7,22.1-3.6,25.4-14.4c6.4-19.7,12.8-39.5,19.2-59.2c10.1-31.2,20.3-62.5,30.4-93.9
			c2.3-7.1,4.7-14.3,6.9-21.5c2.9-11-3.5-22.2-14.4-25.4C1057.8,1608.4,1046.7,1614.8,1043.4,1625.5L1043.4,1625.5z"/>
		<path class="st4" d="M1461.2,1631c5.1,20,10.3,40,15.4,59.9c8.1,31.7,16.3,63.4,24.4,95.1l5.7,22c3,11,14.4,17.4,25.4,14.4
			c11-3,17.4-14.4,14.4-25.4c-5.1-20-10.3-40-15.4-59.9c-8.1-31.7-16.3-63.4-24.4-95.1c-1.9-7.3-3.8-14.6-5.7-22
			c-3-11-14.4-17.4-25.3-14.4C1464.6,1608.7,1458.2,1620,1461.2,1631z"/>
		<path class="st4" d="M455.7,876.1c0,39.5,6.9,78.7,20.3,115.9c14,37.8,34.1,73.1,59.4,104.5c25,31,54.6,58,87.6,80.3
			c34.3,23.2,71.8,41.3,111.2,54c41.4,13.3,84.4,20.8,127.8,22.2c5.5,0,11,0.3,16.5,0.3c11.4,0,20.6-9.2,20.6-20.6
			c0-11.4-9.2-20.6-20.6-20.6c-10.6,0-21.1-0.3-31.7-1.1c-5.2-0.3-10.3-0.8-15.6-1.3c-2.5-0.3-5.2-0.6-7.7-0.9
			c-1.2-0.2-2.4-0.3-3.4-0.4c-4.6-0.6,4.2,0.6-0.4,0c-20.1-2.9-40-7.1-59.6-12.7c-9.7-2.8-19.4-5.9-29-9.4
			c-4.6-1.6-9.2-3.4-13.7-5.2c-1.1-0.4-2.1-0.8-3.1-1.3c-0.5-0.2-1.1-0.4-1.6-0.7c-2.1-0.8,2.5,1.1,2.3,1c-2.4-1.1-4.8-2.1-7.2-3.1
			c-17.6-7.9-34.7-17-51-27.2c-8.2-5.1-16.2-10.6-24-16.3c-1.7-1.3-3.4-2.5-5.2-3.9s-4.7-3.8,0.2,0.3c-1-0.8-2-1.6-3-2.4
			c-3.7-2.9-7.3-5.9-10.9-9c-14.2-12.2-27.6-25.4-39.9-39.5c-3.1-3.4-5.9-6.9-8.8-10.5c-1.3-1.6-2.6-3.4-3.9-5
			c-0.2-0.2,2.9,3.9,1.6,2.1c-0.4-0.6-0.8-1.1-1.3-1.6l-2.2-3c-5.4-7.3-10.5-14.9-15.4-22.6s-9.3-15.6-13.5-23.7
			c-2.1-4.2-4.3-8.4-6.2-12.7c-0.9-1.9-1.7-3.8-2.6-5.7c-0.4-1-0.8-1.9-1.2-2.9c-1.8-4.2,1.7,4.2,0,0c-6.9-16.9-12.5-34.3-16.5-52
			c-1-4.4-1.9-9-2.7-13.5c-0.4-2.2-0.8-4.5-1.1-6.9c0-1.1-0.3-2.2-0.5-3.1c-0.2-1,0-1.1-0.2-1.6c-0.5-3.4,0,0.7,0.2,1.8
			c-1.4-9.2-2.2-18.5-2.5-27.8c-0.2-4.7-0.3-9.4-0.3-14.1c1.3-11.3-6.8-21.5-18.1-22.8c-11.3-1.3-21.5,6.8-22.8,18.1
			c-0.2,1.6-0.2,3.2,0,4.7L455.7,876.1z"/>
		<path class="st4" d="M2027.5,857.3c0,9.4-0.4,18.7-1.2,28.1c-0.2,2.3-0.4,4.6-0.7,6.9c0,1.1-0.3,2.2-0.3,3.2
			c-0.1,1.1-0.8,5.9-0.2,2.1c0.5-3.8,0,0-0.2,1c-0.2,1-0.3,2.2-0.5,3.2c-0.4,2.5-0.8,4.8-1.2,7.3c-3.3,18.1-8.1,35.9-14.5,53.1
			c-1.6,4.3-3.2,8.5-4.9,12.7c-1.3,3.4,1.9-4.3,0.4-1.1l-1.2,2.9c-1,2.2-2,4.5-3.1,6.7c-3.9,8.2-8,16.3-12.5,24
			c-4.5,7.7-9.4,15.9-14.7,23.5c-2.5,3.8-5.2,7.5-7.9,11.1c-1.4,1.8-2.8,3.4-4.1,5.4c0,0.2,3-3.8,1.6-2.1l-1,1.2
			c-0.8,1-1.6,1.9-2.3,2.9c-11.7,14.5-24.5,28.1-38.2,40.7c-6.9,6.3-14,12.4-21.3,18.2c-0.8,0.6-4.2,3.2-1.3,1.1
			c2.9-2.1-0.3,0.2-0.9,0.8l-6.1,4.5c-3.8,2.8-7.7,5.5-11.6,8.1c-16.1,10.9-32.9,20.6-50.3,29c-4.4,2.2-8.8,4.2-13.2,6.2l-6.2,2.7
			c-3.2,1.4,4.7-2,0.3,0l-3.7,1.5c-9.1,3.7-18.4,7.1-27.9,10.1c-19.4,6.3-39.1,11.2-59.1,14.8c-5,0.9-10.3,1.7-15.2,2.4
			c-4.9,0.7,3.7-0.5,0,0c-1.2,0.2-2.4,0.3-3.4,0.4c-2.6,0.3-5.2,0.6-7.8,0.9c-10.6,1.1-21.3,1.8-31.9,2.2c-5.3,0-10.6,0.2-16,0.2
			c-11.4,0-20.6,9.2-20.6,20.6s9.2,20.6,20.6,20.6c44,0,87.7-6.1,130-18c40.2-11.4,78.6-28.5,114-50.7
			c33.9-21.2,64.4-47.2,90.7-77.3c26.4-30.5,47.8-65,63.3-102.3c15-36.3,23.5-74.9,25.1-114.1c0.2-4.8,0.3-9.7,0.3-14.6
			c0-11.4-9.2-20.6-20.6-20.6s-20.6,9.2-20.6,20.6L2027.5,857.3z"/>
		<path id="SVGID" class="st5" d="M1676,1054.3l-59.2,483.7c0,61.4-159.8,111.3-356.8,111.3s-356.8-49.8-356.8-111.3l-59.5-483.7
			H1676z"/>
		<path class="st4" d="M1249.7,1260.8v388.6h10.3h10.3v-595h-20.6V1260.8z"/>
		<path class="st4" d="M1028.7,1134.8c5.5,83.2,11,166.4,16.5,249.6l16.4,246.3c6.9,1.4,13.8,2.8,20.8,4
			c-3.8-57.3-7.6-114.6-11.4-171.8c-6.2-93.6-12.4-187.2-18.6-280.8c-2.8-42.6-5.3-85.2-8.4-127.7h-20.6
			C1025.2,1081,1026.9,1107.9,1028.7,1134.8z"/>
		<path class="st4" d="M1470.7,1134.8c-5.5,83.2-11,166.4-16.5,249.6s-11,166.7-16.6,250.4c7.1-1.3,14.1-2.7,20.9-4l11.1-167.8
			c6.2-93.6,12.4-187.2,18.6-280.8c2.8-42.5,6.9-85.1,8.5-127.7h-20.6C1474.2,1081.1,1472.4,1107.9,1470.7,1134.8z"/>
		<path class="st4" d="M1139.2,1135.2c2.7,82.7,5.5,165.5,8.2,248.3l8.6,261c6.9,0.6,13.7,1.2,20.6,1.7c-2-60.7-4-121.3-6-181.8
			c-3.1-94.2-6.2-188.4-9.4-282.5c-1.4-42.6-2.3-85.1-4.2-127.6h-20.6C1137.4,1081.3,1138.3,1108.3,1139.2,1135.2z"/>
		<path class="st4" d="M1360.2,1135.1c-2.7,82.8-5.5,165.6-8.2,248.4c-2.9,87.6-5.8,175.2-8.7,262.8c6.9-0.5,13.7-1.1,20.6-1.7
			l6-180.2l9.4-282.5c1.4-42.4,3.7-85,4.3-127.5h-20.6C1362,1081.3,1361.1,1108.2,1360.2,1135.1z"/>
		<path class="st4" d="M926.5,1134.9c8.1,82.9,16.1,165.9,24,248.9l21.3,220.1c6.9,2.8,13.9,5.6,21.4,8.3
			c-4.8-49.7-9.6-99.4-14.4-149.1c-9.1-93.8-18.2-187.5-27.2-281c-4.1-42.5-8.1-85.1-12.4-127.7h-20.6
			C921.3,1081,923.9,1107.9,926.5,1134.9z"/>
		<path class="st4" d="M1601.4,1054.3h-20.6l-7.8,80.6c-8.1,83-16.1,165.9-24,248.9l-22.1,228.1c7.5-2.6,14.6-5.4,21.3-8.2
			c4.6-46.9,9.1-93.8,13.7-140.7c9.1-93.8,18.2-187.4,27.2-281C1593,1139.6,1598.4,1097,1601.4,1054.3z"/>
		<path class="st4" d="M950.6,1593.7c-6-55.2-12.1-110.3-18.1-165.5c-10.6-96.6-21.2-193.1-31.8-289.7c-3.1-28.1-6.2-56.1-9.2-84.2
			H871c1.3,11.9,2.6,24,3.9,35.8c9.4,85.5,18.7,171,28.1,256.5c8.5,77.6,17,155.2,25.5,232.7
			C935.4,1584.8,942.8,1589.5,950.6,1593.7z"/>
		<path class="st4" d="M1608,1428.3c10.6-96.6,21.2-193.2,31.8-289.7c3.1-28.1,6.7-56.1,9.8-84.3h-21.1c-1.3,12-2.6,24-3.9,35.9
			c-9.4,85.5-18.7,171-28,256.5c-9,82.3-18,164.6-27,246.7c7.7-4.1,15.1-8.9,22-14.2C1597,1528.9,1602.5,1478.6,1608,1428.3z"/>
		<path class="st4" d="M975.2,1134.5l20.6,249c6.4,78.5,12.9,157,19.4,235.6c6.9,2,13.7,3.9,21,5.7c-4.4-53.6-8.8-107.2-13.2-160.7
			c-7.8-94-15.5-187.9-23.2-281.8c-3.4-42.6-6.9-85.4-10.5-128h-20.6C970.9,1081,973,1107.8,975.2,1134.5z"/>
		<path class="st4" d="M1523.9,1134.5l-20.6,249l-19.9,241.2c7.3-1.8,14.3-3.7,21-5.7c4.2-51.6,8.5-103.3,12.7-154.9
			c7.8-93.9,15.5-187.9,23.2-281.8c3.4-42.7,8.1-85.4,10.7-128.1h-20.6C1528.3,1081,1526.1,1107.8,1523.9,1134.5z"/>
		<path class="st4" d="M1080.4,1135.1c4.2,83,8.4,166.1,12.7,249.1c4.3,84.8,8.6,169.5,12.9,254.3c6.9,1,13.7,2,20.6,2.8
			c-3-59.1-6-118.3-9-177.4l-14.3-282.2c-2.2-42.5-3.9-85-6.4-127.5h-20.6C1077.5,1081.3,1078.9,1108.2,1080.4,1135.1z"/>
		<path class="st4" d="M1419,1135.1c-4.2,83-8.4,166.1-12.7,249.1c-4.3,85.8-8.7,171.5-13.1,257.3c7-0.9,14-1.8,20.8-2.8
			c3-58.2,6-116.4,8.9-174.6c4.8-94,9.6-188.1,14.3-282.2c2.1-42.5,5.3-84.9,6.6-127.4h-20.6L1419,1135.1z"/>
		<path class="st4" d="M1190.9,1135.2c1.5,82.7,2.9,165.5,4.4,248.3l4.6,264.2c6.9,0.3,13.7,0.6,20.6,0.9
			c-1.1-61.4-2.2-122.9-3.4-184.3c-1.6-94.2-3.3-188.4-5-282.5c-0.8-42.6-0.9-85.1-2.2-127.6h-20.6
			C1189.8,1081.3,1190.4,1108.3,1190.9,1135.2z"/>
		<path class="st4" d="M1308.6,1135.1c-1.5,82.8-3,165.6-4.4,248.4c-1.5,88.4-3.1,176.8-4.6,265.2c6.9-0.2,13.7-0.5,20.6-0.9
			c1.1-61.1,2.2-122.3,3.3-183.4c1.6-94.2,3.3-188.4,5-282.5c0.8-42.4,2.3-85,2.4-127.5h-20.6
			C1309.6,1081.3,1309.1,1108.2,1308.6,1135.1z"/>
		<ellipse class="st6" cx="1260" cy="906.3" rx="511.4" ry="254.7"/>
		<ellipse class="st7" cx="1260" cy="714.6" rx="317.1" ry="158"/>
		<path class="st8" d="M1382.3,504.8c44.4,39.5,11.4,176.7-122.2,176.7c-71.2,0-129-57.8-129-129c0-71.2,53.7-185.9,196.9-185.9
			C1327.8,366.5,1239.6,378.1,1382.3,504.8z"/>
		<circle cx="999.6" cy="954" r="81.4"/>
		<circle cx="1482.2" cy="954" r="81.4"/>
		<circle cx="1240.9" cy="1021.4" r="81.4"/>
		<rect x="1159.3" y="940" width="163" height="81.4"/>
	</g>
</g>
</svg>
