<?xml version="1.0" encoding="utf-8"?>
<!-- Generator: Adobe Illustrator 26.5.0, SVG Export Plug-In . SVG Version: 6.00 Build 0)  -->
<svg version="1.1" id="Layer_1" xmlns="http://www.w3.org/2000/svg" xmlns:xlink="http://www.w3.org/1999/xlink" x="0px" y="0px"
	 viewBox="0 0 2521 2911" style="enable-background:new 0 0 2521 2911;" xml:space="preserve">
<style type="text/css">
	.st0{clip-path:url(#SVGID_00000147929678857353904380000018005722234840880040_);}
	.st1{fill:#CCC165;}
	.st2{fill:#FDFDF9;}
	.st3{fill:#FAFEFC;}
	.st4{fill:#FDFCF7;}
	.st5{fill:#FEFBF5;}
	.st6{fill:#ECEBCE;}
	.st7{fill:#E9E8C7;}
	.st8{fill:#E5DFB0;}
	.st9{fill:#F6EFD8;}
	.st10{fill:#FEFCE1;}
	.st11{fill:#A8DEB5;}
	.st12{fill:#A99678;}
	.st13{fill:#7C8178;}
	.st14{fill:#3B8078;}
	.st15{fill:#7E8687;}
	.st16{fill:#58AA7C;}
	.st17{fill:#57A97C;}
	.st18{fill:#A2D9B2;}
	.st19{fill:#FFFDEE;}
	.st20{fill:#306965;}
</style>
<g>
	<g>
		<defs>
			<polygon id="SVGID_1_" points="2497.1,2168.6 1261.5,2883.4 24.9,2170.3 23.9,742.4 1259.5,27.6 2496.2,740.7 			"/>
		</defs>
		<clipPath id="SVGID_00000052078389191028308340000007071221559221649302_">
			<use xlink:href="#SVGID_1_"  style="overflow:visible;"/>
		</clipPath>
		<g style="clip-path:url(#SVGID_00000052078389191028308340000007071221559221649302_);">
			<g>
				<path class="st1" d="M-313.8-49v-111.8c2.6-0.2,5.2-0.5,7.8-0.5c37-0.2,73.9-0.4,110.9-0.5c58.5-0.2,116.9-0.3,175.4-0.5
					c56.9-0.1,113.8-0.2,170.7-0.2c57.7-0.1,115.4-0.2,173-0.4c57.7-0.1,115.4-0.3,173-0.5c58.2-0.2,116.4-0.3,174.6-0.5
					c57.2-0.1,114.3-0.2,171.5-0.2c57.9-0.1,115.9-0.2,173.8-0.3c57.4-0.1,114.8-0.3,172.2-0.5c58.5-0.2,116.9-0.3,175.4-0.5
					c56.9-0.1,113.8-0.2,170.7-0.2c57.9-0.1,115.9-0.2,173.8-0.4c57.4-0.1,114.8-0.3,172.2-0.5c65.3-0.2,130.6-0.3,195.9-0.5
					c102.3-0.1,204.5-0.2,306.8-0.2c2.9,0,5.8-0.1,8.6-0.2c1.8,0.1,3.7,0.2,5.5,0.2h162c2.4,0,4.7-0.2,7.1-0.3
					c3.1,0.1,6.3,0.4,9.4,0.4c51.1,0,102.1,0,153.2,0c2.1,0.1,4.2,0,6.3-0.1c1.5-0.2,2.9-0.9,4.4-1.4h86.5c0.3,3.1,0.8,6.2,0.8,9.3
					c0.2,44.1,0.3,88.1,0.4,132.2c0.2,79.2,0.3,158.4,0.4,237.6c0.1,35.9,0.2,71.9,0.3,107.8c0.2,64,0.3,128,0.5,192
					c0.1,51.7,0.3,103.3,0.4,155c0.2,83.7,0.3,167.3,0.4,251c0.1,31.5,0.1,62.9,0.3,94.4c0.2,63.2,0.3,126.4,0.5,189.6
					c0.1,52.5,0.3,104.9,0.4,157.4l0.4,176.3c0.1,56.9,0.2,113.8,0.3,170.8c0.1,58,0.3,115.9,0.5,173.9
					c0.1,57.7,0.3,115.4,0.4,173.1c0.1,57.7,0.2,115.4,0.3,173.1c0.1,65.8,0.1,131.7,0.1,197.5V2553c0,3.1,0.1,6.3,0.2,9.4
					c-0.1,3.4-0.3,6.8-0.3,10.2c0,109.4,0,218.7,0.1,328.1c0,3.1,0.1,6.3,0.2,9.4c0,18.4,0,36.7,0,55.1c0,2.1,0.2,4.2-2.2,6.4
					c-2.4,0.1-5.5,0.3-8.6,0.3c-29.6,0-59.2,0-88.9,0c-3.1,0-6.3-0.5-9.2,1.1l-179.4,0.3l-226.6,0.3c-39.6,0.1-79.2,0.2-118.8,0.4
					c-58.7,0.3-117.5-0.3-176.2,0.5c-56.9,0.8-113.8,0.3-170.7,0.4l-231.3,0.3c-38,0.1-76,0.2-114.1,0.4
					c-60,0.3-120.1-0.3-180.1,0.5c-55.3,0.7-110.7,0.3-166,0.4l-176.2,0.3c-56.9,0.1-113.8,0.2-170.7,0.4
					c-58.2,0.3-116.4-0.2-174.6,0.5c-61.6,0.8-123.3,0.3-184.9,0.4c-105.4,0.1-210.8,0.2-316.3,0.3c-2.9,0-5.8,0.1-8.6,0.2
					c-2.9-0.1-5.8-0.3-8.6-0.3c-57.4,0.1-114.7,0.2-172.1,0.4c-29.1,0.1-58.2-0.2-87.2,0.1c-29.3,0.3-58.6-0.4-87.9,0.9
					c-26.1,1.2-52.4,0.2-78.5,0.2c-0.1-1.3-0.2-2.6-0.2-3.9c-0.3-30.2-0.2-60.3-0.6-90.5c-0.8-57.4-0.4-114.9-0.5-172.3
					c-0.1-57.2-0.2-114.4-0.3-171.5c-0.1-60.1-0.2-120.1-0.3-180.2c-0.1-55.3-0.3-110.6-0.5-166c-0.2-58.5-0.4-117-0.5-175.5
					c-0.1-57.2-0.2-114.4-0.3-171.5c-0.1-57.7-0.2-115.4-0.3-173.1c-0.1-57.7-0.3-115.4-0.5-173.1l-0.5-174.7
					c-0.1-57.4-0.2-114.9-0.3-172.3s-0.1-114.9-0.3-172.3c-0.1-58-0.3-115.9-0.5-173.9c-0.2-57.7-0.4-115.4-0.5-173.1
					c-0.2-59.8-0.2-119.6-0.3-179.4c-0.1-107.8-0.2-215.6-0.3-323.4c0-2.9-0.1-5.8-0.2-8.6c0.1-2.9,0.4-5.7,0.4-8.6
					c0-51.8,0-103.5,0-155.3c0-2.1,0-4.2-0.2-6.3C-311.2-47.2-312.3-48.6-313.8-49z M1261.7,511.7c-28.9-0.2-57.6,1.6-86.3,4.2
					c-25.9,2.3-51.6,5.8-77.1,10.3c-40.3,7.2-80,16.5-119,29.3c-42.1,13.8-83.5,29.5-123.5,48.9c-39.2,19-77.2,40.2-113.4,64.6
					c-32.4,21.9-63.8,45.1-93.2,70.9c-31.4,27.5-61.4,56.3-88.9,87.8c-27.6,31.7-53.7,64.4-76.9,99.5
					c-22.6,34.2-43.6,69.2-61.6,106.1c-20.5,42-38.8,84.9-52.5,129.7c-5.3,17.3-10.5,34.6-15.2,52.1c-6.4,23.3-11.6,46.9-15.5,70.7
					c-3.6,22.5-6.5,45.2-9.1,67.8c-2,17.2-3.4,34.5-4.1,51.7c-0.7,16.2-1.6,32.4-0.8,48.7c1,18.3,0.3,36.7,1.9,55
					c1.4,15.1,2.1,30.4,3.8,45.5c3.6,31,8.2,61.9,15.4,92.3c5.1,21.7,10.3,43.4,16.5,64.8c14.9,51.1,34.2,100.9,57.6,148.8
					c15.3,31.4,32.7,61.6,51.5,91c32.8,51.6,70.7,99.8,113.1,143.9c14.3,15,29.1,29.5,44.5,43.4c30,27.1,61.1,52.8,94.5,75.7
					c35.9,24.7,72.6,47.9,111.7,67.4c37.8,18.9,76.3,36.1,116.3,49.8c44.7,15.3,90,28.3,136.5,36.6c22.4,4,44.9,7.9,67.6,10.2
					c11.7,1.2,23.5,2.5,35.2,3.4c13.8,1.1,27.7,2.2,41.6,2.5c17.3,0.4,34.6,0.1,51.9,0.1c5.5,0,11-0.2,16.5-0.5
					c12.3-0.7,24.6-1.4,36.9-2.4c13.1-1.1,26.1-2.2,39.1-3.8c18.5-2.3,36.8-5.2,55.1-8.7c41-7.9,81.5-17.6,121.1-30.8
					c46.8-15.6,92.5-33.9,136.2-57.1c37.8-20.1,74.8-41.4,109.7-66.2c33.6-23.9,66-49.2,96.1-77.4c29.2-27.2,57.2-55.6,82.6-86.3
					c26.8-32.4,52.1-65.8,74.3-101.5c22.5-36.1,43.4-73.1,60.8-111.9c18.4-41,34.8-82.7,46.9-126c6.7-24,13.2-48,18.2-72.5
					c4.5-21.8,8.9-43.7,11.3-65.9c1.4-12.5,2.7-25,4.1-37.5c2.2-19.3,3.3-38.7,3.9-58.1c1.1-33.8,0.2-67.7-2.5-101.4
					c-1.8-22-3.9-43.9-7.2-65.7c-5.7-37.9-13.2-75.4-23.9-112.2c-7.4-25.5-15.1-50.8-24.4-75.6c-15.3-40.9-32.8-80.6-53.6-119
					c-28.3-52.3-60.7-101.8-98.8-147.5c-14.8-17.8-29.8-35.2-45.7-52c-30.3-32.1-62.7-61.9-97.2-89.4c-30.4-24.2-62-46.7-95.4-66.6
					c-37-22.1-74.8-42.3-114.4-59.3c-47.3-20.3-95.7-37.2-145.8-49.5c-23.9-5.9-48-11.2-72.3-15.2c-14.7-2.5-29.5-4.7-44.4-6.4
					s-29.8-2.6-44.6-3.8C1305.2,512.7,1283.5,511.5,1261.7,511.7L1261.7,511.7z"/>
			</g>
			<g>
				<path class="st2" d="M-311.3,124.6c0.1,2.9,0.2,5.8,0.2,8.6c0.1,107.8,0.2,215.6,0.3,323.4c0.1,59.8,0.1,119.6,0.3,179.4
					c0.1,57.7,0.3,115.4,0.5,173.1c0.2,58,0.3,115.9,0.5,173.9c0.1,57.4,0.2,114.9,0.3,172.3s0.2,114.9,0.3,172.3
					c0.1,58.2,0.3,116.4,0.5,174.7c0.2,57.7,0.3,115.4,0.5,173.1c0.2,57.7,0.2,115.4,0.3,173.1l0.3,171.5
					c0.1,58.5,0.3,117,0.5,175.5c0.2,55.3,0.3,110.7,0.5,166c0.1,60.1,0.2,120.1,0.3,180.2c0.1,57.2,0.2,114.4,0.3,171.5
					c0.1,57.4-0.3,114.9,0.5,172.3c0.4,30.2,0.2,60.3,0.6,90.5c0,1.3,0.1,2.6,0.2,3.9c0,0.5,0,0.9,0.1,1.3h-9.4V124.2L-311.3,124.6z
					"/>
			</g>
			<g>
				<path class="st3" d="M129.9,2978.7c2.9-0.1,5.8-0.2,8.6-0.2c105.4-0.1,210.8-0.2,316.3-0.3c61.6-0.1,123.3,0.4,184.9-0.4
					c58.2-0.7,116.4-0.2,174.6-0.5c56.9-0.3,113.8-0.4,170.7-0.4c58.7-0.1,117.5-0.2,176.2-0.3c55.3-0.1,110.7,0.4,166-0.4
					c60-0.8,120.1-0.2,180.1-0.5c38-0.2,76-0.3,114.1-0.4c77.1-0.1,154.2-0.2,231.3-0.3c56.9-0.1,113.8,0.4,170.7-0.4
					c58.7-0.8,117.5-0.2,176.2-0.5c39.6-0.2,79.2-0.3,118.8-0.4c75.5-0.1,151.1-0.2,226.6-0.3c59.8-0.1,119.6-0.2,179.4-0.3
					c1.8,0.1,3.6,0.3,5.5,0.3c35,0,69.9,0,104.9-0.1v7.9H-44.8c3.1-2.2,6.6-1.4,9.9-1.4c51.6,0,103.1-0.1,154.7-0.1
					C123.2,2979.8,126.7,2980.5,129.9,2978.7z"/>
			</g>
			<g>
				<path class="st4" d="M2833.5,2562.5c-0.1-3.1-0.2-6.3-0.2-9.4v-130.6c0-65.8-0.1-131.7-0.1-197.5c-0.1-57.7-0.2-115.4-0.3-173.1
					c-0.1-57.7-0.2-115.4-0.4-173.1c-0.1-58-0.3-115.9-0.5-173.9c-0.1-56.9-0.2-113.8-0.3-170.8c-0.1-58.8-0.3-117.5-0.4-176.3
					c-0.1-52.5-0.3-104.9-0.4-157.4c-0.2-63.2-0.3-126.4-0.5-189.6c-0.1-31.5-0.2-62.9-0.3-94.4c-0.2-83.7-0.3-167.3-0.4-251
					c-0.1-51.7-0.2-103.3-0.4-155c-0.2-64-0.3-128-0.5-192c-0.1-35.9-0.2-71.9-0.3-107.8c-0.2-79.2-0.3-158.4-0.4-237.6
					c-0.1-44.1-0.2-88.1-0.4-132.2c0-3.1-0.5-6.2-0.8-9.3h7.9v2731.2C2834.4,2562.5,2833.9,2562.5,2833.5,2562.5z"/>
			</g>
			<g>
				<path class="st5" d="M2392.6-167.3c-2.9,0.1-5.8,0.2-8.6,0.2l-306.8,0.2c-65.3,0.1-130.6,0.2-195.9,0.5
					c-57.4,0.2-114.8,0.3-172.2,0.5c-57.9,0.2-115.9,0.3-173.8,0.4c-56.9,0.1-113.8,0.2-170.7,0.2c-58.5,0.1-116.9,0.3-175.4,0.5
					c-57.4,0.2-114.8,0.3-172.2,0.5c-57.9,0.1-115.9,0.3-173.8,0.3c-57.2,0.1-114.3,0.2-171.5,0.2c-58.2,0.1-116.4,0.3-174.6,0.5
					c-57.7,0.2-115.3,0.3-173,0.5c-57.7,0.2-115.4,0.3-173,0.4c-56.9,0.1-113.8,0.2-170.7,0.2c-58.5,0.1-116.9,0.3-175.4,0.5
					c-37,0.1-73.9,0.3-110.9,0.5c-2.6,0-5.2,0.3-7.8,0.5v-7.9h2706.5C2392.6-168.2,2392.6-167.8,2392.6-167.3z"/>
			</g>
			<g>
				<path class="st6" d="M129.9,2978.7c-3.1,1.8-6.6,1.2-10,1.2c-51.6,0-103.1,0.1-154.7,0.1c-3.3,0-6.9-0.7-9.9,1.4h-259.7
					c-0.1-0.4-0.2-0.9-0.1-1.3c26.2,0,52.4,1,78.5-0.2c29.3-1.3,58.6-0.6,87.9-0.9c29.1-0.3,58.1,0,87.2-0.1
					c57.4-0.1,114.7-0.2,172.1-0.4C124.1,2978.4,127,2978.6,129.9,2978.7z"/>
			</g>
			<g>
				<path class="st7" d="M2833.5,2562.5c0.5,0,0.9,0,1.4,0.1v410.9c-35,0-69.9,0.1-104.9,0.1c-1.8,0-3.6-0.2-5.5-0.3
					c2.9-1.7,6.1-1.1,9.2-1.1c29.6,0,59.2-0.1,88.9,0c3.1,0,6.2-0.2,8.6-0.3c2.5-2.2,2.2-4.4,2.2-6.4c0-18.4,0-36.7,0-55.1
					c0-3.1-0.1-6.3-0.2-9.4c0-109.4,0-218.7-0.1-328.1C2833.2,2569.3,2833.4,2565.9,2833.5,2562.5z"/>
			</g>
			<g>
				<path class="st8" d="M-311.3,124.6l-2.6-0.4V-49c1.6,0.4,2.7,1.8,2.8,3.4c0.1,2.1,0.2,4.2,0.2,6.3V116
					C-310.9,118.9-311.2,121.7-311.3,124.6z"/>
			</g>
			<g>
				<path class="st9" d="M2392.6-167.3c0-0.4,0-0.8,0.1-1.3h174.7c-0.1,0.4-0.2,0.8-0.2,1.2c-2.4,0.1-4.7,0.3-7.1,0.3h-162
					C2396.3-167.1,2394.4-167.3,2392.6-167.3z"/>
			</g>
			<g>
				<path class="st8" d="M2567.1-167.4c0-0.4,0.1-0.8,0.2-1.2h173.1c-1.5,0.5-2.9,1.3-4.4,1.4c-2.1,0.2-4.2,0.2-6.3,0.1h-153.2
					C2573.4-167.1,2570.3-167.3,2567.1-167.4z"/>
			</g>
			<g>
				<path class="st10" d="M1261.7,511.7c21.8-0.1,43.5,1,65.2,2.7c14.9,1.2,29.8,2.1,44.6,3.8c14.8,1.7,29.6,3.9,44.4,6.4
					c24.3,4,48.4,9.3,72.3,15.2c50,12.3,98.4,29.2,145.8,49.5c39.6,17,77.5,37.2,114.4,59.3c33.4,19.9,65,42.4,95.4,66.6
					c34.5,27.5,66.9,57.4,97.2,89.4c15.9,16.8,31,34.2,45.7,52c38.1,45.7,70.5,95.2,98.8,147.5c20.8,38.3,38.3,78.2,53.6,119
					c9.3,24.8,17,50.2,24.4,75.6c10.7,36.9,18.2,74.4,23.9,112.2c3.3,21.8,5.4,43.7,7.2,65.7c2.8,33.7,3.6,67.6,2.5,101.4
					c-0.6,19.4-1.8,38.8-3.9,58.1c-1.4,12.5-2.8,25-4.1,37.5c-2.4,22.2-6.8,44-11.3,65.9c-5,24.4-11.5,48.5-18.2,72.5
					c-12.2,43.3-28.5,85-46.9,126c-17.5,38.8-38.3,75.8-60.8,111.9c-22.2,35.7-47.5,69.1-74.3,101.5c-25.5,30.8-53.4,59.1-82.6,86.3
					c-30.2,28.2-62.5,53.5-96.1,77.4c-34.9,24.8-71.9,46.1-109.7,66.2c-43.7,23.2-89.4,41.5-136.2,57.1
					c-39.6,13.2-80.1,22.9-121.1,30.8c-18.3,3.5-36.7,6.4-55.1,8.7c-13,1.6-26.1,2.8-39.1,3.8c-12.3,1-24.6,1.7-36.9,2.4
					c-5.5,0.3-11,0.5-16.5,0.5c-17.3,0.1-34.6,0.4-51.9-0.1c-13.9-0.3-27.7-1.4-41.6-2.5c-11.8-0.9-23.5-2.2-35.2-3.4
					c-22.7-2.3-45.2-6.2-67.6-10.2c-46.6-8.3-91.8-21.4-136.5-36.6c-40-13.7-78.5-31-116.3-49.8c-39.1-19.5-75.8-42.7-111.7-67.4
					c-33.4-22.9-64.4-48.6-94.5-75.7c-15.4-13.9-30.2-28.4-44.5-43.4c-42.3-44.1-80.2-92.3-113.1-143.9
					c-18.8-29.5-36.2-59.6-51.5-91c-23.4-47.9-42.6-97.7-57.6-148.8c-6.2-21.4-11.4-43.1-16.5-64.8c-7.2-30.4-11.7-61.3-15.4-92.3
					c-1.8-15.1-2.5-30.3-3.8-45.5c-1.6-18.3-0.9-36.7-1.9-55c-0.9-16.3,0.1-32.5,0.8-48.7c0.7-17.3,2.2-34.6,4.1-51.7
					c2.6-22.6,5.5-45.3,9.1-67.8c3.9-23.8,9.1-47.4,15.5-70.7c4.8-17.5,9.9-34.8,15.2-52.1c13.7-44.8,32-87.7,52.5-129.7
					c18-36.9,39-71.9,61.6-106.1c23.2-35.1,49.3-67.9,76.9-99.5c27.5-31.5,57.5-60.3,88.9-87.8c29.4-25.8,60.8-49,93.2-70.9
					c36.2-24.4,74.1-45.5,113.4-64.6c39.9-19.4,81.3-35,123.5-48.9c39-12.8,78.7-22.1,119-29.3c25.6-4.5,51.3-8,77.1-10.3
					C1204.1,513.3,1232.9,511.4,1261.7,511.7z M457.5,1833.8c1.1,2.6,2.1,5.4,3.4,7.9c12.6,25.7,26.2,50.8,41.4,75.1
					c22,35.2,45.6,69.1,72.3,100.9c26.3,31.4,54.1,61.3,84.5,88.8c31,28,63.2,54.4,97.8,77.7c34.2,23,69.3,44.4,106.3,62.5
					c43.6,21.4,88.3,39.9,134.8,54.1c37.9,11.6,76.2,21.3,115.3,27.5c20.7,3.3,41.5,5.6,62.3,8c21.9,2.6,43.9,3.7,65.9,4.2
					c19.9,0.5,39.8-0.1,59.7-1c25.4-1.2,50.7-3.1,76-6.5c37.4-5,74.4-11.9,111-21.8c59.7-16.1,117.3-37.2,172.6-65
					c36.1-18.2,71-38.3,104.3-61.3c35-24.1,68.2-50.6,99.5-79.4c33-30.5,63.8-63,92-97.9c23.2-28.8,44.8-58.8,63.9-90.5
					c14.4-23.8,28.2-47.9,40.5-72.9c1.1-2.3,2-4.8,3-7.2c0.4-0.4,0.7-0.8,1-1.2c7.3-14.2,13.4-29.1,19.4-43.9
					c0.7-1.7,0.8-3.5,1.3-5.3c2.3-1.6,2.9-4.3,3.8-6.7c13.6-34.1,25.6-68.8,34.4-104.5c3.8-15.3,7.8-30.5,10.8-45.9
					c4-20,7.3-40.2,10.6-60.4c1.6-9.6,2.6-19.2,3.5-28.9c0.9-9.6,1.4-19.3,2-29c0.9-16,2.2-31.9,2.5-47.9
					c0.4-17.5,0.3-35.1-0.8-52.7c-1-16.5-1.6-32.9-3.5-49.4c-2.5-22.4-5.3-44.7-9.2-67c-7.2-41.9-17.5-83.2-30.6-123.6
					c-7.9-24.2-17.4-47.8-27.2-71.3c-14-33.7-30.6-66.2-48.7-97.8c-20.1-35.1-42.9-68.4-67.6-100.4c-22.5-29.1-47-56.3-72.7-82.6
					c-7.5-7.7-15.5-14.9-23.3-22.3c-16.3-15.6-33.2-30.5-51.1-44.2c-16.2-12.4-32.5-24.8-49.2-36.7c-20.1-14.3-40.9-27.5-62.5-39.5
					c-9.2-5-18.3-10.3-27.5-15.3c-35.7-19-72.6-35.4-110.5-49.3c-38.2-14.1-77-25.8-116.9-34.1c-4.6-0.9-9.2-2.1-13.8-3
					c-27.8-5.6-55.7-9.9-83.8-13c-21.4-2.4-42.8-3.5-64.3-4.1c-31.2-0.9-62.4-0.8-93.5,1.6c-7.6,0.6-15.2,0.9-22.7,1.9
					c-17.7,2.3-35.3,4.6-52.9,7.3c-41.5,6.3-82.3,16-122.5,28.2c-42.4,13-83.7,29.3-123.5,48.7c-38.3,18.5-75.2,39.6-110.5,63.3
					c-38.2,25.5-74.3,54-107.9,85.2c-30.8,28.5-59.5,59.2-86.1,91.6c-27,33.2-51.6,68.2-73.5,104.9c-14.9,24.7-29.1,49.8-40.7,76.3
					c-6,13.7-12.5,27.2-18.3,40.9c-13.3,31.4-24.9,63.5-33.6,96.5c-5.2,19.5-10.2,39.1-14.7,58.8c-5.4,23.5-9.5,47.3-12.2,71.3
					c-1.1,10.2-2.5,20.3-3.5,30.5c-0.9,8.9-1.4,17.8-1.9,26.7c-0.9,15.7-1.8,31.4-2.5,47.1c-0.8,18.9,0.9,37.7,1.5,56.6
					c0.3,8.9,0.9,17.8,1.8,26.7c1.2,12.8,2.5,25.6,4.2,38.3c2.1,16.1,4.2,32.2,7.1,48.2c6.1,33.6,13.4,66.8,24.2,99.3
					c6.9,20.6,13.8,41.3,21,61.8c2,5.7,4.9,11,7.3,16.4c0.8,2.7,1.4,5.6,2.5,8.2c4.3,10.1,8.8,20.1,13.4,30.1
					C453.8,1826.8,455.7,1830.3,457.5,1833.8L457.5,1833.8z"/>
			</g>
			<g>
				<path class="st11" d="M436.4,1785c-2.5-5.5-5.3-10.8-7.3-16.4c-7.2-20.6-14.1-41.2-21-61.8c-10.8-32.4-18.1-65.7-24.2-99.3
					c-2.9-16-5-32.1-7.1-48.2c-1.7-12.7-3-25.5-4.2-38.3c-0.8-8.9-1.5-17.8-1.8-26.7c-0.6-18.9-2.3-37.7-1.5-56.6
					c0.7-15.7,1.6-31.4,2.5-47.1c0.5-8.9,1.1-17.8,1.9-26.7c1-10.2,2.3-20.3,3.5-30.5c2.7-24,6.8-47.8,12.2-71.3
					c4.5-19.7,9.6-39.2,14.7-58.8c8.7-33,20.3-65.1,33.6-96.5c5.8-13.8,12.3-27.3,18.3-40.9c11.7-26.4,25.9-51.5,40.7-76.3
					c22-36.7,46.5-71.8,73.5-104.9c26.6-32.5,55.4-63.1,86.1-91.6c33.7-31.2,69.8-59.7,107.9-85.1c35.3-23.6,72.2-44.8,110.5-63.3
					c39.9-19.4,81.2-35.7,123.5-48.7c40.2-12.3,80.9-21.9,122.5-28.2c17.6-2.7,35.3-5,52.9-7.3c7.5-1,15.1-1.3,22.7-1.9
					c31.1-2.3,62.4-2.5,93.5-1.6c21.5,0.6,42.9,1.7,64.3,4.1c28.1,3.2,56.1,7.5,83.8,13c4.6,0.9,9.2,2.1,13.8,3
					c39.9,8.2,78.7,20,116.9,34.1c37.9,13.9,74.9,30.4,110.5,49.3c9.2,4.9,18.3,10.2,27.5,15.3c21.6,12,42.4,25.1,62.5,39.5
					c16.7,11.8,32.9,24.2,49.2,36.7c17.9,13.7,34.8,28.7,51.1,44.2c7.8,7.4,15.8,14.6,23.2,22.3c25.6,26.3,50.2,53.5,72.7,82.6
					c24.7,32.1,47.4,65.4,67.6,100.4c18.2,31.6,34.7,64.1,48.7,97.8c9.7,23.5,19.3,47.1,27.2,71.3c13.1,40.4,23.4,81.7,30.6,123.6
					c3.9,22.2,6.7,44.6,9.2,67c1.9,16.4,2.5,32.9,3.5,49.4c1.1,17.6,1.2,35.1,0.8,52.7c-0.3,16-1.6,31.9-2.5,47.9
					c-0.6,9.7-1.1,19.4-2,29c-0.9,9.6-1.9,19.3-3.5,28.9c-3.3,20.2-6.6,40.4-10.6,60.4c-3.1,15.4-7.1,30.6-10.8,45.9
					c-8.8,35.7-20.8,70.4-34.4,104.5c-1,2.4-1.5,5.1-3.8,6.7c-2-0.6-4-1.5-6-1.8c-9.6-1.5-19.3-1.8-29-0.9
					c-5.3,0.4-10.4,1.7-14.2,5.8c-2.2,2.3-4.9,3-7.9,2.7c-4.7-0.5-9.4-0.9-14-1.9c-4.3-1.1-8.9-1.1-13.2-0.2
					c-2.4,0.6-4.6,0.1-6.9-0.4c-8.4-2-16.8-4.1-25.3-5.4c-12.8-2-25.5-2.4-37.4,4.7c-4.6,2.8-10.1,2.7-15.3,0.9
					c-8-2.8-16.3-3.8-24.8-3.7c-2.6,0-5.5,0.1-7.7-1c-7.7-3.7-15.9-5-24.3-6c-7.8-0.9-15.2-0.7-22.3,2.7c-2.3,1.2-5.1,1.5-7.6,0.7
					c-4.1-1.4-8.2-1.1-12.5-0.9c-3.4,0.1-6.8-0.1-10.1-0.6c-2.8-0.5-5.7-1.1-8.4-1.9c-12.8-3.3-26.2-2.7-38.7,1.6
					c-4.7,1.6-9.5,2.9-14.3,4.4c-5.7,2-11.9,2.1-17.7,0.5c-8.4-2.3-17.3-2.2-25.6,0.3c-9.4,2.7-18.5,3-27.7-0.1
					c-8.5-2.9-16.9-3.1-25.3,0.6c-2.2,0.9-4.5,1.4-6.8,1.4c-11-0.2-22-0.6-33-0.9c-2.4-0.1-4.7,0-7.1,0.1c-1.6,0-3.1,0.4-4.7,0.2
					c-7.5-1-15-2.2-22.5-3.2c-2.6-0.4-5.2-0.6-7.8-0.8c-5.5-0.4-11-0.6-16.4-1.3c-6.8-0.8-13,0.2-18.8,3.8c-1.8,1.1-3.7,1.9-5.7,2.6
					c-10,3.2-19.9,6.8-30.6,6.2c-0.8,0-1.6,0.1-2.3,0.3c-16.1,1.9-31.9,1.9-47.1-4.8c-0.2-0.1-0.5-0.2-0.7-0.3
					c-4.1-1.8-8.6-2.5-13.1-2.1c-3.7,0.3-7.3-0.1-10.9-1c-6.4-1.4-12.9-2.1-19.5-2c-7.1,0-14.1,1-21.1,1.5
					c-11.5,0.8-23,1.3-34.6,1.5c-4.7,0.1-8.9,0.9-12.4,3.9c-2.8,2.4-6,2.8-9.5,2.8c-5.6-0.1-10.9-1.3-16.3-2.6
					c-4.6-1.2-9.1-2.3-14-1.3c-1.7,0.4-3.6,0-5.5-0.2c-3.6-0.3-7.3-0.6-10.9-0.9c-0.2-2.9-0.6-5.7-0.7-8.6
					c-0.3-11.3-0.5-22.6-0.7-33.8c-0.2-12.1-0.2-24.1-0.4-36.2c-0.1-7.3-0.8-14.7-0.5-22c1.3-33.3,2.8-66.6,4.1-99.8
					c0.6-15.5,1.7-30.8,4.7-46.1c6.2-30.6,15.9-59.8,30.7-87.2c4.2-7.9,9.3-15.2,15.2-21.9c1-1.1,2.2-2.1,3.4-3.3
					c1,0.5,1.9,1.2,2.8,1.9c3.9,3.9,7.9,7.7,11.7,11.7c11.2,11.8,22.5,23.4,35.1,33.8c17.3,14.2,36.2,16.5,56.8,8.9
					c11.4-4.2,21.9-10,32-16.7c14.5-9.5,28.1-20.2,41.6-31.1c1.8-1.4,3.2-3.6,6-3.3c0.6,0.5,1.2,1,1.7,1.5
					c7.2,8.8,15.9,15.9,25.1,22.5c13.7,9.8,27.9,18.6,43.2,25.7c13.6,6.2,27.4,11.9,41.1,18c27.8,12.4,55,25.9,79.4,44.6
					c0.8,0.7,1.7,1.2,2.7,1.6c2.8,1.2,6.2-0.3,7.1-3.1c0.5-1.8,0.7-3.6,0.6-5.4c0.1-5.5,0-11-0.1-16.5c-0.2-11.3,0-22.6-0.6-33.8
					c-1-21.3-4.8-42.2-9.4-62.9c-6-27.1-15.5-52.8-31.3-75.9c-0.6-0.8-1.2-1.7-1.7-2.7c-0.6-1.4-0.9-2.8-1.4-4.5
					c2.7-0.8,4.9-1.6,7.2-2.2c7.1-1.7,14.3-3.3,21.5-4.9c6.9-1.6,13.8-3,20.7-4.6c2.7-0.6,6.2-0.5,7.3-3.8c1.2-3.8-2.3-5.5-4.4-7.7
					c-2-2.1-4.1-4-6.4-5.9c-20.8-17.8-44.9-30-69.9-40.4c-14.7-6.1-30.2-10.4-45.4-15.3c-24.4-7.8-49.5-11.3-74.9-13.3
					c-21.2-1.7-42.4-0.1-63.6,1.9c-18.8,1.8-37.5,4.6-55.7,9.7c-1.4,0.4-2.9,0.2-4.9,0.4c-0.1-1.4-0.1-2.9,0-4.3
					c1.4-9.9,2.8-19.7,4.5-29.5c2.7-16.3,6.5-32.4,12.6-47.9c3.7-9.4,8.5-18,16.1-24.9c1.3-1.3,2.5-2.7,3.4-4.2
					c0.8-1.3-0.3-3.6-1.8-3.6c-2.1,0-4.1,0.3-6.1,0.8c-7,2.2-14,4.5-20.9,7c-31.6,11.3-62,25.9-90.7,43.4c-1,0.6-2.2,0.8-3.9,1.4
					c0.1-1.8,0.3-3.6,0.6-5.4c8.1-38.2,18.2-76,30.1-113.2c11-34.5,23.5-68.4,37.4-101.9c4.3-10.4,8.6-20.8,13-31.2
					c0.6-1.6,1-3.7,3.9-3.8c0.9,0.8,2,1.9,3.1,3c4.3,4.3,8.4,8.7,12.8,12.7c5,4.6,10.1,9,16,12.6c11.6,7.1,24.2,11.3,37.2,14.6
					c20.8,5.2,41.6,4.7,62.2-0.9c12.8-3.5,24.7-9,34.3-18.3c7.6-7.2,14.5-15.2,20.7-23.6c11.2-15.6,20.6-32.3,30.1-48.9
					c6-10.5,12.2-20.8,17.7-31.6c5.9-11.4,11.3-23.1,16.5-34.8c3.1-6.9,5.4-14.2,7.7-21.5c0.8-2.8,0.9-5.7,0.5-8.5
					c-0.5-3.6-3.6-5.1-7.1-4.2c-1,0.3-2,0.7-2.9,1.2c-5.9,3.1-12.2,4.7-18.8,5.5c-13.5,1.8-27,4.3-40.5,5.3
					c-16.5,1.3-33,1.1-49.5,1.8c-13.1,0.5-26.2,0.8-39.2,2.2c-18,1.9-35.6,7-51.9,14.9c-1.8,0.9-3.8,1.3-6.2,2.1
					c-1.4-2.6-2.7-4.9-3.8-7.1c-10.4-20.7-25.1-38.9-43.1-53.5c-19.4-15.9-40.9-28.4-63.6-38.8c-13.6-6.3-27.8-11-42.7-13.3
					c-11-1.7-21.9-1.3-32.9,0.2c-2,0.4-4,1-5.9,1.9c-1.2,0.5-1.7,1.9-1.2,3.1c0.2,0.3,0.4,0.6,0.7,0.9c1.8,1.5,3.8,2.8,5.8,4
					c6.7,3.8,12,9.6,15.3,16.5c2.3,4.4,4.1,9.1,5.7,13.8c3.5,11.5,6.6,23.2,9.8,34.8c2.9,10.6,5.2,21.4,8.4,32
					c11.2,37,31.8,67,64.9,87.9c8.9,5.6,18.2,10.6,27.8,14.7c1.6,0.7,3,1.8,4.8,2.8c-0.8,1.8-1.4,3.3-2.1,4.6
					c-5.1,8.9-10.2,17.7-15.4,26.5c-21.1,36-39.8,73.3-56.1,111.7c-13.2,31.5-23.6,64-32.4,96.9c-5.7,21.3-10.6,42.7-15.7,64.2
					c-1.1,4.5-3,8.2-6.6,11.3c-8.1,7.1-14.8,15.7-19.7,25.3c-6.1,11.9-10.1,24.2-8.3,37.8c1.3,10,3.8,19.8,9,28.3
					c4.5,7.3,5.4,14.5,3.4,22.4c-0.2,0.8-0.2,1.6-0.4,2.3c-4.3,29.9-7.5,59.8-10.4,89.9c-1.1,11-2.2,21.9-3.3,32.9
					c-0.1,1.1-1,2.1-1.5,3.2c-2.5-1.6-2.5-3.9-2.9-5.9c-2.7-13.4-5.2-26.8-8.2-40.1c-10.1-45.1-22.8-89.4-40.8-132.1
					c-12.1-28.7-26.9-55.7-46.3-80.1c-0.7-1-1.4-2.1-2-3.2c2.5-1.8,4.3-0.2,6.2,0.3c14.6,4.8,30.2,4.9,44.9,0.4
					c18.8-5.7,33.8-16.4,44.7-32.8c9.5-14.4,13.9-30.4,15.7-47.3c1.5-14.6,1.6-29.3,1.4-44c-0.4-21.2-0.9-42.5-1.4-63.7
					c-0.3-10.2,0.3-20.5,1.6-30.6c1.8-13.8,6.3-26.5,16.6-36.6c1.7-1.6,3.2-3.4,4.8-5.2c1.2-1.4,2.6-2.8,1.7-4.9
					c-0.9-1.9-2.8-2.2-4.6-2.4c-1-0.2-2.1-0.1-3.1-0.2c-8.9-0.4-17.8,0.4-26.5,2.4c-24.9,5.6-46.4,17.5-65,35
					c-14.2,13.5-25.9,28.9-35.9,45.6c-10.4,17.1-18.3,35.4-24.6,54.4c-6.5,19.4-12.3,39-15.5,59.3c-0.1,0.8-0.2,1.6-0.4,2.3
					c-0.4,1.5-0.6,3.5-2.5,3.4c-1,0-2.1-1.3-2.8-2.3c-1-1.6-1.8-3.2-2.5-4.9c-13.4-26.9-31.2-50.3-55.4-68.5
					c-13.6-10.3-28.2-19.2-43.4-26.8c-41-20.2-83.9-25.2-128.7-17.4c-17.1,3-33.8,7.5-50.4,12.4c-18.1,5.3-36,11.4-54,17.1
					c-14.5,4.6-29.1,9-44.1,11.4c-10.2,1.6-20.3,2-30.4-0.8c-2.3-0.6-4.6-1.1-6.9-1.3c-2.7-0.2-4.7,1.4-4.8,4.1
					c-0.2,2.6-0.1,5.2,0.3,7.8c1.3,8.8,3.2,17.5,5.8,26.1c5.2,17,12.4,32.9,22.4,47.5c8.9,13,19,25.1,30.2,36.3
					c24.9,25.1,53.4,44.5,87.1,56.3c26.5,9.2,53.5,15.1,81.4,16.4c25.7,1.1,51.4-1.3,76.5-7.2c36.2-8.5,69.4-23.6,100.3-44
					c5.7-3.7,11.4-7.3,18.1-9.5c1.4,1.4,2.9,2.5,3.9,4c5.3,7.2,10.8,14.2,15.5,21.8c9,14.5,16.1,30.1,22.5,45.9
					c8.5,20.9,16.2,42.1,22.3,63.9c3.9,14.2,7.9,28.3,11.7,42.5c0.7,2.7,1.7,5.5,1.3,9.1c-1.5-0.7-2.7-1-3.6-1.8
					c-3.7-2.9-7.1-6.2-11-8.9c-13.9-9.8-29.6-14.4-46.3-15.9c-4.3-0.4-7.2-1.8-9.8-5.4c-6-8.3-13.3-15.5-21.2-22
					c-14.5-11.8-30.7-18.4-49.7-18.8c-17.9-0.4-35.6,3-52.1,9.8c-22.8,9.3-43.1,22.6-61.8,38.6c-22.2,19-41.8,40.5-59.6,63.7
					c-16,20.8-30,43-43.8,65.3c-6.2,10-11.8,20.4-17.5,30.8c-1.8,3.5-3.3,7.1-4.3,10.9c-0.5,1.8-0.1,4.1,0.4,6.1
					c0.5,1.6,2.1,2.6,3.7,2.3c1.6-0.2,3.1-0.6,4.5-1.3c4.4-1.8,8.7-3.8,13.1-5.4c22-8.5,44.6-15.4,67.9-19.7
					c18-3.4,36.3-5.2,54.7-5.4c15.5-0.1,30.9-0.6,46.4-1.5c25.5-1.5,49.5-8.7,72-20.6c27.1-14.3,43.8-36.9,51.3-66.4
					c2.7-10.5,3.8-21.2,4.2-31.9c0.1-2.3-0.5-4.8,1.6-6.6c0.5-0.2,1-0.3,1.5-0.3c0.8,0,1.6,0,2.3,0.1c15.5,2.8,28.7,9.7,39.3,21.4
					c11.4,12.6,20.5,26.5,26.6,42.4c4.9,12.5,9.2,25.1,11.3,38.4c2.1,13.5,4.2,26.9,5.8,40.5c2.5,21.6,4.7,43.3,6.9,64.9
					c2,20.1,4.1,40.2,5.4,60.3c1.6,24.9,2.6,49.8,3.5,74.6c0.6,17.3,0.7,34.6,1,51.9c-3.9-0.6-7.8-1.1-11.6-2c-4.4-1-8.9-0.7-13.1,1
					c-1.9,0.7-4,1.7-6,1.6c-10-0.2-19.9-0.2-29.8-1.2c-9.3-0.9-18.3-0.6-27.3,1.6c-7.6,1.9-15.3,3.5-23,5.3
					c-3.6,0.8-7.2,1.4-10.7,2.5c-11.1,3.5-22,4.5-33-0.1c-1.2-0.5-2.5-0.8-3.7-1.3c-11.5-4.3-23.5-5.2-35.6-4.3
					c-2.7,0.2-5.2-0.1-7.5-1.4c-9.9-5.8-20.6-5.1-31.4-3.9c-6.1,0.7-11.9,2.3-16.9,5.9c-3.2,2.3-6.6,2.6-10.4,2
					c-11.9-1.8-23.9-3.3-35.8-4.9c-5.4-0.7-10.5,0-15.1,2.9c-5.3,3.4-11.1,4.3-17.2,4.4c-8.6,0.3-17.3,0.8-25.9,1.5
					c-5.1,0.4-9.9-0.1-14.6-2.2c-2.4-1-4.9-1.7-7.5-2.3c-3-0.8-6.1-1.4-9.1-2.2c-3.5-1-6.9-2.5-10.5-3.3c-9.5-2.2-18.7-2.1-27.1,3.8
					c-2.8,1.9-5.7,3.8-8.9,4.2c-2.3-0.9-4.2-1.9-6.2-2.3c-2-0.4-4.2-0.3-6.3-0.5c-2.6-0.2-5.2-0.3-7.8-0.5
					c-8.1-0.8-16.2-1.7-24.2-2.7c-6.5-0.7-13-1-18.7-5c-1.7-1.1-3.9-1.7-5.9-2c-5.4-0.9-10.9-1.6-16.3-2c-7.3-0.4-14.7-0.1-22-0.3
					c-5.8-0.2-11.5,0.8-17.1,2c-13.8,2.9-27.7,5.7-41.6,8.5c-1.5,0.3-3.1,0.5-4.7,0.4c-7.9-0.4-15.6,1.2-23.4,2.3
					c-9.4,1.3-18.8,1.8-28.1-0.4c-4.8-1.2-9.7-2.1-14.7-2.7c-4.2-0.4-8.3-1.3-12.2-2.8c-7.3-3-15.3-4-23.1-3.1
					c-4.9,0.6-10,0.6-14.9-0.1c-14.2-2-28.3-0.4-42.3,1.4C447.8,1784.9,442.1,1785.6,436.4,1785z"/>
			</g>
			<g>
				<path class="st12" d="M2063.9,1837c-1,2.4-1.8,4.9-3,7.2c-12.3,24.9-26.1,49-40.5,72.9c-19.2,31.7-40.7,61.7-63.9,90.5
					c-28.2,35-59,67.5-92,97.9c-31.2,28.8-64.5,55.3-99.5,79.4c-33.3,23-68.2,43.1-104.3,61.3c-55.2,27.8-112.9,48.9-172.6,65
					c-36.5,9.8-73.5,16.8-111,21.8c-25.2,3.3-50.5,5.3-76,6.5c-19.9,0.9-39.8,1.5-59.7,1c-22-0.5-44-1.7-65.9-4.2
					c-20.8-2.4-41.7-4.7-62.3-8c-39.1-6.2-77.4-16-115.3-27.5c-46.5-14.2-91.2-32.7-134.8-54.1c-37.1-18.2-72.1-39.5-106.3-62.5
					c-34.7-23.3-66.9-49.7-97.8-77.7c-30.4-27.5-58.2-57.4-84.5-88.8c-26.7-31.8-50.4-65.7-72.3-100.9
					c-15.2-24.3-28.7-49.4-41.4-75.1c-1.3-2.6-2.2-5.3-3.4-7.9c3.8,1.1,7.5,2,11.2,3.3c2.5,0.9,5,1.5,7.7,1.1
					c9.1-1.3,18.1-2.7,27.2-3.8c7-0.9,14-1.5,21.1-2.2c4.7-0.5,8.8,0.6,11.9,4.5c2.2,2.7,5.1,3.5,8.4,3.3c1.6,0,3.1-0.1,4.7-0.3
					c11.4-1.9,23.1-1.6,34.3,1.1c2.6,0.6,5.2,0.9,7.7,1.6c4.6,1.3,9.4,1.1,13.9-0.4c10.2-3.4,20.5-6.4,30.4-10.5
					c12.4-5.1,25.3-6.4,38.4-6.9c3.4,0,6.8,0.5,10.1,1.5c7.1,1.9,14,4.4,21,6.4c5.3,1.5,10.6,3,16.2,2.5c4.9-0.4,9.9-0.8,14.9-1.1
					c9.9-0.6,19.8-0.3,29.7-0.1c15.5,0.4,30.9,0.1,46.4,0c4.5-0.1,8.9,0.7,13,2.4c6,2.6,12.3,4.6,18.4,6.9c3.7,1.3,7.6,2,11.6,1.9
					c16.5,0,33,0.1,49.5,0c3.7-0.1,7.3-0.7,10.8-1.7c8.1-2,16.2-4.3,24.3-6.6c4.6-1.3,9.4-1.3,13.9-0.1c6.6,1.6,13.3,2.9,20,3.9
					c9.6,1.4,19.1,3.3,27.9,7.5c2.4,1.1,4.9,1.9,7.5,2.4c2,0.5,4.1,0.7,6.2,0.6c5.4-0.7,10.9-1.5,16.3-2.6c9.2-2,18.5-3.7,28-3.4
					c2.6,0,5.2-0.2,7.8-0.4c4.2-0.3,8.3-1,12.5-1c8.4,0,16.7-1.4,25-2.4c9.6-1.3,19.4-1.4,29-0.1c3.9,0.6,7.8,0.4,11.6-0.6
					c8.6-2.3,17.4-3.7,26.4-3.3c2.1,0.2,4.2,0.1,6.3-0.3c5.4-1.3,10.9-1.1,16.4-1.1c7.3,0,14.7,0,22,0.1c0.4,3.7-0.5,7.4-2.5,10.5
					c-3.4,5.6-6.4,11.4-9.6,17.1c-5.4,9.6-13,17.3-21.7,23.6c-9.5,6.9-20.3,12.1-31.3,16.3c-11.9,4.6-24.2,8.6-36.3,12.8
					c-6.2,2.2-12.7,3.3-19.3,3.2c-5.2-0.1-10.5-0.1-15.7,0.2c-11.5,0.8-22.9,1.9-34.4,2.8c-7.5,0.6-15.2,0.9-22.7,1.9
					c-6.7,0.9-13.4,2.3-20,3.8c-4.9,1-9.6,2.8-14.5,3.6c-17.3,3.1-34.6,6.1-51.3,11.7c-4.2,1.4-8.5,2.7-12.8,3.8
					c-8.2,2-16.3,4-24.8,3.7c-1.8,0-3.7,0.2-5.5,0.4c-4.2,0.4-8.3,1-12.5,1c-8.6,0.1-17.3,0.6-25.9-1.3c-1.6-0.2-3.1-0.3-4.7-0.2
					c-8.4,0-16.8-0.1-25.2,0c-2.4,0-4.7,0.1-7,0.4c-14.7,2.4-29.3,5.8-43.6,10.1c-6.4,1.9-11.7,5.3-17.2,10.9c2.2,0,3.5,0.4,4.5,0
					c7.3-2.2,14.6-4.4,21.8-6.7c13.8-4.4,28.1-6.2,42.5-7c14.3-0.7,28.1,2.3,42.2,3.9c9.1,1.1,18.1,2.8,27.3,2.3
					c5-0.3,9.9-0.8,14.8-1.4c10.6-1.3,21.3-2.5,31.9-4.2c16.8-2.7,33.4-6.5,49.9-10.8c13-3.5,26.1-5.6,39.5-5.6
					c1.6,0.1,3.1-0.1,4.7-0.4c5.7-1.4,11.5-1,17.2-1.1c0.9,0,2.2-0.3,2.7,1.6c-3.9,3.7-8.8,6.3-13.7,8.5
					c-14.6,6.5-29.4,12.5-44.2,18.7c-10.1,4.3-20.5,7.9-30.1,13.5c-15.4,8.9-28.7,20.1-40.8,32.9c-10.7,11.3-19.3,24.1-26.8,37.7
					c-1,1.8-1.8,3.8-2.3,5.8c-0.4,1.1,0.1,2.4,1.3,2.8c0.2,0.1,0.4,0.1,0.6,0.1c2.6-1,3.4-3.7,5-5.7c7.5-9.4,14.6-19.2,22.6-28.2
					c11.6-13.1,25.8-23,40.5-32.1c7.5-4.8,15.7-8.5,24.3-11c11.1-3.1,22.3-5.8,33.6-8.3c12.8-2.8,25.5-6.1,37.1-12.6
					c12.4-7,25.7-11.9,39.3-15.9c14.3-4.3,28.7-8.2,43-12.6c11.3-3.4,22.6-6.7,33.3-11.9c6.1-3,12.4-5.7,18.6-8.4
					c1.2-0.5,2.5-0.9,3.8,0.7c-0.2,1-0.4,2.3-0.9,3.4c-4.4,8.9-8.5,18-13.5,26.7c-9.5,16.6-19.4,33-29.2,49.4
					c-7,11.7-14.9,22.8-24.9,32.3c-8,7.5-15.7,15.4-23.4,23.3c-8.1,8.3-16.7,15.9-26,22.8c-11.7,8.8-23.4,17.7-36.4,24.7
					c-9.2,5-17.9,10.9-26.4,17c-7.7,5.5-14.9,11.5-20.5,19.3c-3.7,5.1-8.1,9.6-12.4,14.2c-6,6.3-12.1,12.4-18.3,18.4
					c-3.2,3.1-6.7,5.9-10.3,8.4c-6.2,4.4-12.7,8.3-18.9,12.7c-3.1,2.3-6,5.1-8.8,7.8c-1.2,1.1-1.9,2.7-0.7,4.2
					c1.2,1.5,2.9,1.3,4.4,0.6c1.9-0.8,3.8-1.7,5.7-2.7c5.7-3.3,11.3-6.7,16.9-10.1c6.3-3.8,12.1-8.3,17.2-13.6
					c7.8-8.2,15.9-16,23.8-24.1c1.8-1.9,3.5-3.9,5.2-5.9c10-12.2,22.4-21.2,36.6-27.9c14.7-6.9,29.5-13.5,43.3-22.4
					c5.5-3.6,11.3-6.6,17-9.8c0.8-0.5,1.8-0.5,3.1-0.9c0,2,0.3,3.6,0,5.1c-2,9.2-2.9,18.7-2.7,28.1c0.1,4.7-0.6,9.4-1.1,14.1
					c-0.6,6-1.7,11.9-1.9,18c-0.4,11-0.7,22,1.7,32.9c1.7,7.6,2.8,15.5,6.2,22.7c0.4,0.9,0.9,1.9,2.7,1c0.1-0.9,0.1-1.9,0-2.8
					c-1.4-10.9-2.8-21.8-4.2-32.7c-0.3-1.8-0.3-3.7,0-5.5c1.1-6.7,1.8-13.5,3.6-20.1c2.4-9.4,4.2-18.9,5.6-28.5
					c1.9-12.6,5.8-24.5,14-34.5c0.8-1,1.5-2.1,2.2-3.3c5.8-10.3,13.4-19.4,20.5-28.8c7.2-9.7,15.7-18.3,23.3-27.6
					c0.8-0.9,2.1-1.4,3.3-2.2c1,0.9,2,1.9,2.9,3c2.6,3.3,5.4,6.5,7.5,10.1c2.4,4,4.5,8.2,6.3,12.6c1.1,2.6,1.4,5.6,2.1,8.4
					c5.2,18.7,10.9,37.3,19.9,54.6c7.4,14.2,16.1,27.6,27.9,38.7c5.7,5.4,11.2,11.1,16.8,16.6c1.7,1.6,3.3,3.4,4.8,5.2
					c9.1,11.8,18.4,23.5,26,36.5c8.7,14.8,16,30,18,47.4c0.7,6.2,2.4,12.3,3.8,18.5c0.6,2.5,2.5,3.8,3.7,3.3
					c1.8-0.9,1.7-2.6,1.5-4.1c-0.6-7.8-1.1-15.7-2.2-23.4c-1.7-12.2-5-24.1-9.9-35.5c-6.2-14.5-12.3-28.9-20.8-42.2
					c-5.8-9-10.7-18.7-17.4-27.1c-1.4-1.8-2.2-4.1-3.2-6.2l0.1-0.1c6.8,3.9,13.7,7.6,20.4,11.6c10.8,6.5,20.8,14.1,31,21.4
					c11.7,8.4,23.7,16.3,37.3,21.7c9.3,3.7,18,8.6,26,14.5c14.2,10.4,26.3,23.2,38,36.3c3.8,4.3,7.9,8.4,12,12.4
					c1.4,1.4,3.1,2.8,5.6,1.7c0.7-2.8-1.3-4.4-2.7-6.2c-4.4-5.5-9.3-10.7-13.3-16.5c-7.7-11.3-17.4-21-26.8-30.8
					c-9-9.2-19-17.3-29.9-24.2c-12-7.6-22.7-16.8-32.9-26.7c-5.9-5.6-12-10.9-18.5-15.8c-7.7-5.9-15.7-11.3-23.5-17.1
					c-3.2-2.3-6.3-4.7-9.1-7.4c-17.2-16.6-32.9-34.5-44.8-55.4c-3.5-6.2-6.8-12.3-8.1-19.4c-1.7-9.2-5.4-17.5-11.6-24.6
					c-2.9-3.4-4.9-7.5-5.8-11.9c-0.8-3.6-1.7-7.1-2.6-10.7c-1.5-5.7-0.8-11.7,1.9-16.8c4.5-8.3,10.2-15.8,17-22.4
					c0.1-0.1,0.5-0.1,1.2-0.1c2.4,1.4,3.1,4.3,4.1,6.9c4.6,12.6,9,25.2,13.7,37.7c3.8,10.2,9.1,19.5,19,25.2
					c3.2,1.9,5.7,4.7,7.2,8.1c3.2,7.2,6.8,14.2,9.8,21.5c2.7,6.5,7.1,10.2,13.9,11.2c3.8,0.5,6.9,2.2,10.2,4
					c5.1,2.7,10.2,5.3,15.4,7.7c7.1,3.3,14.4,6.3,19.6,12.6c0.7,0.7,1.5,1.4,2.4,2c9.1,7.5,17.4,15.9,24.9,25
					c5,6.1,9.9,12.2,14.9,18.2c1.9,2.3,4.1,2.9,5.3,1.6c1.5-1.7,0.9-3.4-0.1-5.1c-0.6-1.2-1.3-2.3-2.2-3.3
					c-4.5-5.4-8.9-11-13.8-16.1c-4.8-4.8-9-10.2-12.6-16c-5.2-8.6-11.5-16.2-21.4-20.1c-3.4-1.3-6.3-3.7-9.4-5.7
					c-6.6-4.2-13.1-8.8-19.9-12.6c-5.2-2.7-9.2-7.1-11.6-12.5c-6.7-14.8-13.9-29.4-20.3-44.3c-5.4-12.5-9.7-25.5-12.7-38.8
					c-1.5-6.3-0.9-12.5,0.8-18.6c0.7-2.4,2-4.4,4.3-5.3c3.8-1.7,7.6-3.5,11.7-4.5c4.1-1.1,8.4-0.9,12.4,0.5
					c4.9,1.8,9.9,3.4,14.8,5.4c2.4,1,4.7,2.2,6.8,3.7c5.7,3.8,11,8.2,17,11.4c9.2,4.9,14.6,12.6,17.9,22c6,17.1,11.9,34.2,16,51.8
					c2,8.5,5.1,16.6,10.8,23.4c5.7,6.7,12.4,12.8,20.1,17.4c6.3,3.7,12.6,7.5,18.1,12.4c4.9,4.3,9.9,8.6,14.8,12.9
					c0.6,0.5,1.1,1.1,1.5,1.8c3.1,4.5,6.4,9,9.3,13.6c9.4,14.8,18.7,29.7,28,44.6c0.4,0.7,1,1.2,1.4,1.9c1.7,2.9,3.7,5.7,5,8.8
					c4.4,10.2,6.7,20.9,8.7,31.8c0.9,4.6,2.1,9.2,3.6,13.7c0.7,2.1,2.3,4.1,3.8,5.8c1.1,1.3,2.7,1.7,4.1,0
					c-1.4-6.6-2.9-13.2-4.3-19.8c-1.9-9.2-4.1-18.4-5.4-27.8c-0.8-5.5-1.9-10.9-4-15.9c-3.7-8.7-7-17.6-12.9-25.1
					c-1-1.3-1.5-2.8-2.2-4.1l0,0c1.6,0.1,3.2,0,4.7,0.4c8.1,2.6,16.5,3.2,24.9,2.7c6.6-0.4,12.3,1.5,17.7,5.3
					c10.1,7,20.4,13.7,30.7,20.5c9.7,6.4,20.4,10.6,31.5,14c0.9,0.3,2,0.7,2.6-1.2c-0.9-0.6-1.9-1.4-2.9-2.1
					c-9.8-6-19.8-11.8-29.5-18c-10.8-6.9-21.5-14-32-21.4c-5.8-4.2-12.7-6.4-19.9-6.3c-9.9,0.1-19.1-2.8-28.5-5
					c-1.3-0.3-2.5-0.9-3.5-1.6c-5.8-3.7-10.7-8.5-14.6-14.1c-3.4-5-6.6-10.1-9.8-15.2c-3.2-5.2-7.5-9.5-12.2-13.2
					c-6-4.7-12.1-9.2-19.1-12.3c-6.3-2.8-11.3-7.9-14-14.3c-3.7-8.4-7.3-16.6-8.4-26c-1.3-11.1-4.1-22.1-6.4-33.2
					c-0.4-2-1.4-4.1,1-6.1c1.2,0,2.4,0.2,3.5,0.4c10,2.3,19.9,4.5,29.8,7.1c6.1,1.6,12,3.6,17.9,6c12.6,5.1,25.1,10.6,37.7,15.9
					c4.4,1.8,8.4,4.2,12,7.2c12,10.1,26.1,13.2,41.2,10.8c9.9-1.6,19.7-2.8,29.7-2.5c7.6,0.2,15.2,0.2,22.8,0.1
					c4.5-0.2,8.9,0.5,13.2,1.8c6.7,2.2,13.4,4.7,20,7.1c1,0.4,1.9,0.9,2.8,1.5c4.5,3.2,9,6.3,13.4,9.7c8.6,6.5,17.1,12.9,25.6,19.6
					c9.2,7.2,19.9,10.3,31.2,12c2.8,0.4,5-1,5.4-3.3c0.5-2.3-0.6-4.4-3.4-5.5c-2.2-0.8-4.5-1.4-6.8-1.8c-6.2-1.1-12.1-3.6-17.3-7.2
					c-4.5-3.1-8.6-6.9-12.7-10.6c-6.6-5.9-13-12.1-19.8-18c-3.7-3.3-7.8-6.2-12-8.8c-8.8-5.2-17.8-10.2-28.2-11.3
					c-7.8-0.8-15.6-1.9-23.4-2.3c-9.7-0.4-19.4-0.3-29.1-0.1c-5.5,0-11-0.7-16.3-2.3c-9.3-2.6-18.5-5.9-27.4-9.8
					c-4.1-1.8-8.1-3.8-11.9-6c-1.7-0.9-3.7-2.1-3.3-5c1-0.1,2.1-0.5,3-0.3c7.2,1.8,14.6,1.1,21.9,1.4c11.9,0.5,23.4-1.7,34.7-5.7
					s22.4-8.9,34.1-12.1c10.2-2.8,20.2-4.7,30.9-4.6c17.5,0.2,35.1,1.2,52.6-1.3c5.7-0.8,11.4-1.4,17.1-2.4
					c10.8-2,21.6-4.3,32.4-6.4c4.1-0.8,8.3-1.7,12.4-1.7c5,0.1,9.9,0.7,14.8,1.7c12.7,2.5,25.5,2.9,38.3,2.4c0.8,0,2.3,0.4,2.2-1.8
					c-1.3-0.4-2.8-0.9-4.2-1.2c-12.8-2.5-25.8-4.8-38.5-7.6c-11.2-2.5-22.4-2.6-33.6-0.9c-8.6,1.3-17.1,2.5-25.8,2.3
					c-11-0.2-22-0.2-33,0c-3.7,0-7.3,0.6-10.9,0.9c-11.2,1-22.5,1.8-33.7-0.6c-8.5-1.8-17.2-1.5-25.7-2.9c-0.8-0.1-1.6,0-2.3,0.2
					c-8.3,1.4-16.5,2.7-24.5,5.3c-13.5,4.4-27.3,7.2-41.7,6.6c-15.4-0.6-30.9,0.7-46.3-1.4c-6.2-0.8-12.5-0.6-18.7-2
					c-11.5-2.7-23.1-5-34.4-8.1c-9.8-2.7-19.4-6.5-29.5-8c-1.5-0.3-3-0.8-4.4-1.6c-4.2-2.2-8.4-4.4-12.4-6.8
					c-14.8-9.1-27.9-20.4-41.5-31.1c-3.8-2.9-6.9-6.5-9.2-10.6c-3.5-6.4-7.5-12.6-11.2-18.9c-1.3-2.2-2.8-4.6-3.3-7
					c-1-4.9-1.3-9.8-1.9-14.8c6.6-0.1,12.9,1.9,19.3,3.2c2.3,0.5,4.8,1.6,6.9,1.2c4.8-0.9,9.4,0.1,14,0.3c3.9,0.2,8,0.6,11.8-0.2
					c11.4-2.6,23.6-1.7,34.2-7.7c0.9-0.5,2-0.8,3-0.9c11.4-2.4,22.9-2.5,34.4-1.7c5.5,0.3,10.9,0.8,16.4,1.3
					c1.6,0.1,3.2-0.1,4.7,0.2c7.3,1.7,14.6,1.2,21.9,1.3c10.7,0,21.5,0.2,32.2,0c6.8-0.2,13.6,0.8,20.1,3.1
					c3.7,1.3,7.6,1.9,11.6,1.8c9.9-0.3,19.8,0.1,29.8-1.3c8.5-1.2,17.1-2,25.7-3.3c8.5-1.3,17.1-2.4,25.8-1.7
					c4.2,0.3,8.3,1.2,12.5,1.3c12.3,0.4,24.6,0.5,36.7-2.3c9.2-2.1,18.6-3.1,28.1-1.9c7.3,0.9,14.5,1.9,21.7,3.4
					c7,1.4,14.1,1.7,21.1,0.7c10.5-1.5,20.9-1.2,31.4-1.2c3.1,0,6.3,0.4,9.3,1c6.9,1.3,13.9,2.6,20.7,4.3c8.9,2.2,16.6,0.2,23.4-5.7
					c1.2-1,2.3-2.2,3.4-3.2c4.7-4.3,10.7-6.8,17-7.3c5-0.4,9.9-0.2,14.9,0.6c8.8,1.6,17.7,2.3,26.6,2.3c15.2-0.2,30.4,0.2,45.6-0.1
					c9.5-0.1,18.8,1.4,28,3.3c8.2,1.7,16.3,3.8,24.8,1.6c1.3-0.3,2.6-0.1,3.9-0.2c10.3-0.5,20.4,1.4,30.5,2.3
					c4.5,0.4,8.6,0.5,13-0.9c9.1-3,18.5-3.8,27.7-0.3C2042.7,1833.9,2053.3,1835.5,2063.9,1837z"/>
			</g>
			<g>
				<path class="st13" d="M2063.9,1837c-10.6-1.5-21.2-3.1-31.4-7c-9.2-3.5-18.6-2.8-27.7,0.3c-4.4,1.5-8.5,1.4-13,0.9
					c-10.1-0.9-20.2-2.9-30.5-2.3c-1.3,0.1-2.7-0.1-3.9,0.2c-8.4,2.2-16.6,0.2-24.8-1.6c-9.2-2-18.5-3.5-28-3.3
					c-15.2,0.2-30.4-0.1-45.6,0.1c-8.9,0-17.8-0.7-26.5-2.3c-4.9-0.8-9.9-1-14.9-0.6c-6.3,0.5-12.3,3-17,7.3c-1.2,1-2.2,2.2-3.4,3.2
					c-6.9,5.8-14.5,7.9-23.4,5.7c-6.8-1.7-13.8-3-20.7-4.3c-3.1-0.6-6.2-0.9-9.3-1c-10.5,0-20.9-0.4-31.4,1.2
					c-7,1-14.2,0.8-21.1-0.7c-7.2-1.5-14.5-2.5-21.7-3.4c-9.4-1.2-18.8-0.2-28.1,1.9c-12.2,2.8-24.4,2.7-36.8,2.3
					c-4.2-0.1-8.3-1-12.5-1.3c-8.7-0.7-17.3,0.4-25.8,1.7c-8.5,1.3-17.1,2.1-25.7,3.3c-10,1.4-19.9,0.9-29.8,1.3
					c-3.9,0.1-7.9-0.5-11.6-1.8c-6.5-2.2-13.3-3.3-20.1-3.1c-10.7,0.2-21.5,0-32.2,0c-7.3,0-14.7,0.5-21.9-1.3
					c-1.5-0.4-3.1-0.1-4.7-0.2c-5.5-0.4-10.9-0.9-16.4-1.3c-11.5-0.7-23-0.7-34.4,1.7c-1,0.2-2,0.5-3,0.9c-10.6,6-22.8,5.1-34.2,7.7
					c-3.8,0.8-7.8,0.4-11.8,0.2c-4.7-0.2-9.3-1.3-14-0.3c-2.1,0.4-4.6-0.7-6.9-1.2c-6.4-1.3-12.7-3.3-19.3-3.2
					c-1.8-0.4-3.7-1.5-5.3-1.1c-9.1,2-18.2,0.9-27.3,1.1c-3.4,0.1-6.9,0.4-10.2-0.3c-6.7-1.5-13.5-1.2-20.3-1.2
					c-7.3,0-14.7-0.1-22-0.1c-5.5,0-11-0.1-16.4,1.1c-2.1,0.4-4.2,0.5-6.3,0.3c-9-0.4-17.8,1-26.4,3.3c-3.8,1-7.7,1.2-11.6,0.6
					c-9.6-1.3-19.4-1.2-29,0.1c-8.3,1.1-16.6,2.5-25,2.4c-4.2,0-8.3,0.7-12.5,1c-2.6,0.3-5.2,0.4-7.8,0.4c-9.5-0.3-18.8,1.4-28,3.4
					c-5.4,1.2-10.8,2-16.3,2.6c-2.1,0.2-4.2,0-6.2-0.6c-2.6-0.5-5.1-1.3-7.5-2.4c-8.9-4.2-18.3-6.1-27.9-7.5c-6.7-1-13.4-2.3-20-3.9
					c-4.6-1.2-9.4-1.1-13.9,0.1c-8.1,2.3-16.1,4.6-24.3,6.6c-3.5,1-7.1,1.5-10.8,1.7c-16.5,0.2-33,0-49.5,0
					c-3.9,0.1-7.9-0.6-11.6-1.9c-6.2-2.3-12.4-4.3-18.4-6.9c-4.1-1.7-8.5-2.5-13-2.4c-15.5,0.1-30.9,0.3-46.4,0
					c-9.9-0.2-19.8-0.5-29.7,0.1c-5,0.3-9.9,0.6-14.9,1.1c-5.6,0.5-10.9-1-16.2-2.5c-7-2-14-4.4-21-6.4c-3.3-1-6.6-1.5-10.1-1.5
					c-13.1,0.5-26,1.7-38.4,6.9c-9.9,4.1-20.2,7.1-30.4,10.5c-4.5,1.5-9.4,1.7-13.9,0.4c-2.5-0.7-5.1-1-7.7-1.6
					c-11.3-2.6-22.9-3-34.3-1.1c-1.6,0.2-3.1,0.3-4.7,0.3c-3.3,0.2-6.3-0.6-8.4-3.3c-3.1-3.8-7.3-4.9-11.9-4.5
					c-7,0.7-14.1,1.3-21.1,2.2c-9.1,1.2-18.1,2.5-27.2,3.8c-2.7,0.4-5.1-0.2-7.7-1.1c-3.7-1.3-7.5-2.2-11.2-3.3
					c-1.8-3.5-3.6-6.9-5.3-10.5c-4.5-10-9-20-13.4-30.1c-1.1-2.6-1.7-5.4-2.5-8.2c5.8,0.5,11.5-0.1,17.2-0.9
					c14-1.8,28.1-3.4,42.3-1.4c4.9,0.7,9.9,0.7,14.9,0.1c7.8-0.9,15.8,0.1,23.1,3.1c3.9,1.5,8,2.5,12.2,2.8
					c4.9,0.6,9.8,1.5,14.7,2.7c9.4,2.2,18.8,1.7,28.1,0.4c7.8-1,15.5-2.6,23.4-2.3c1.6,0,3.1-0.1,4.7-0.4
					c13.9-2.8,27.7-5.6,41.6-8.5c5.7-1.2,11.3-2.2,17.1-2c7.3,0.2,14.7-0.1,22,0.3c5.5,0.4,10.9,1.1,16.3,2c2,0.3,4.3,0.9,5.9,2
					c5.7,3.9,12.3,4.2,18.7,5c8.1,0.9,16.1,1.8,24.2,2.7c2.6,0.3,5.2,0.4,7.8,0.5c2.1,0.1,4.2,0,6.3,0.5c2,0.5,3.9,1.4,6.2,2.3
					c3.2-0.4,6.1-2.3,8.9-4.2c8.5-5.9,17.7-6,27.1-3.8c3.6,0.8,7,2.3,10.5,3.3c3,0.9,6.1,1.4,9.1,2.2c2.5,0.6,5,1.4,7.5,2.3
					c4.7,2.1,9.5,2.6,14.6,2.2c8.6-0.6,17.2-1.2,25.9-1.5c6.1-0.2,11.9-1.1,17.2-4.4c4.6-2.9,9.8-3.7,15.1-2.9
					c11.9,1.6,23.9,3.1,35.8,4.9c3.9,0.6,7.2,0.3,10.4-2c5-3.6,10.8-5.2,16.9-5.9c10.8-1.3,21.5-1.8,31.4,3.9
					c2.3,1.4,4.8,1.7,7.5,1.4c12.1-0.9,24.1,0,35.6,4.3c1.3,0.5,2.5,0.7,3.7,1.3c11,4.6,22,3.6,33,0.1c3.5-1.1,7.1-1.7,10.7-2.5
					c7.7-1.8,15.3-3.4,23-5.3c9-2.2,18-2.5,27.3-1.6c9.9,1,19.9,1,29.8,1.2c2,0,4.1-0.9,6-1.6c4.2-1.7,8.7-2,13.1-1
					c3.8,0.9,7.7,1.3,11.6,2c3.1,3,6.8,3.6,10.9,2.8c3.1-0.6,6.1-1.1,9.2-1.5c12-1.8,23.9-1.4,35.4,2.7c2.6,0.9,5.1,1,7.5-0.4
					c3.6,0.3,7.3,0.6,10.9,0.9c1.8,0.1,3.7,0.5,5.5,0.2c4.8-1,9.4,0.1,14,1.3c5.3,1.4,10.7,2.5,16.3,2.6c3.5,0,6.7-0.4,9.5-2.8
					c3.6-3,7.8-3.8,12.4-3.9c11.5-0.2,23-0.8,34.6-1.5c7-0.5,14-1.5,21.1-1.5c6.5-0.1,13.1,0.6,19.5,2c3.5,0.9,7.2,1.3,10.9,1
					c4.5-0.4,8.9,0.3,13.1,2.1c0.2,0.1,0.5,0.2,0.7,0.3c15.2,6.6,31,6.7,47.1,4.8c0.8-0.2,1.6-0.3,2.3-0.3
					c10.7,0.5,20.6-3.1,30.6-6.2c2-0.6,3.9-1.5,5.7-2.6c5.8-3.6,12.1-4.6,18.8-3.8c5.4,0.6,11,0.8,16.4,1.3c2.6,0.2,5.2,0.5,7.8,0.8
					c7.5,1,15,2.2,22.5,3.2c1.5,0.2,3.1-0.2,4.7-0.2c2.4-0.1,4.7-0.2,7.1-0.1c11,0.3,22,0.7,33,0.9c2.3,0,4.7-0.5,6.8-1.4
					c8.4-3.6,16.8-3.4,25.3-0.6c9.2,3.1,18.3,2.9,27.7,0.1c8.3-2.5,17.2-2.6,25.6-0.3c6.2,1.7,11.8,1.4,17.7-0.5
					c4.8-1.5,9.6-2.8,14.3-4.4c12.5-4.3,25.9-4.9,38.7-1.6c2.8,0.8,5.6,1.4,8.4,1.9c3.4,0.5,6.7,0.7,10.1,0.6
					c4.2-0.1,8.4-0.4,12.5,0.9c2.5,0.8,5.3,0.6,7.6-0.7c7.1-3.4,14.5-3.6,22.3-2.7c8.4,1,16.5,2.3,24.3,6c2.2,1.1,5.1,1,7.7,1
					c8.5,0,16.7,1,24.8,3.7c5.2,1.8,10.6,1.8,15.3-0.9c11.9-7.1,24.6-6.7,37.4-4.7c8.5,1.3,16.9,3.4,25.3,5.4c2.3,0.5,4.5,1,6.9,0.4
					c4.4-0.9,8.9-0.9,13.2,0.2c4.6,1,9.3,1.4,14,1.9c3,0.3,5.7-0.3,7.9-2.7c3.8-4.1,8.9-5.4,14.2-5.8c9.7-0.9,19.4-0.6,29,0.9
					c2,0.3,4,1.2,6,1.8c-0.4,1.8-0.6,3.6-1.3,5.3c-6,14.8-12,29.6-19.4,43.9C2064.6,1836.4,2064.3,1836.7,2063.9,1837z"/>
			</g>
			<g>
				<path class="st14" d="M1278.1,1789.8c-2.4,1.4-4.9,1.4-7.5,0.4c-11.5-4.1-23.4-4.5-35.4-2.7c-3.1,0.5-6.2,0.9-9.2,1.5
					c-4.1,0.8-7.8,0.2-10.9-2.8c-0.3-17.3-0.4-34.6-1-51.9c-0.9-24.9-1.9-49.8-3.5-74.6c-1.3-20.1-3.4-40.2-5.4-60.3
					c-2.1-21.7-4.4-43.3-6.9-64.9c-1.6-13.5-3.7-27-5.8-40.5c-2.1-13.3-6.5-25.9-11.3-38.4c-6.2-15.8-15.2-29.8-26.6-42.4
					c-10.7-11.7-23.8-18.7-39.3-21.4c-0.8-0.1-1.6-0.2-2.3-0.1c-0.5,0.1-1,0.2-1.5,0.3c-2.1,1.8-1.5,4.3-1.6,6.6
					c-0.4,10.8-1.5,21.5-4.2,31.9c-7.5,29.5-24.2,52.1-51.3,66.4c-22.5,11.9-46.5,19.2-72,20.6c-15.4,0.9-30.9,1.3-46.4,1.5
					c-18.3,0.2-36.6,2-54.7,5.4c-23.3,4.3-45.8,11.2-67.9,19.7c-4.4,1.7-8.7,3.7-13.1,5.4c-1.4,0.6-3,1-4.5,1.3
					c-1.6,0.3-3.2-0.7-3.7-2.3c-0.5-2-0.9-4.2-0.4-6.1c1-3.8,2.5-7.5,4.3-10.9c5.7-10.4,11.3-20.7,17.5-30.8
					c13.8-22.3,27.9-44.5,43.8-65.3c17.8-23.1,37.4-44.6,59.6-63.7c18.6-16,39-29.3,61.8-38.6c16.5-6.9,34.3-10.2,52.1-9.8
					c19,0.4,35.3,7,49.7,18.8c8,6.5,15.2,13.7,21.2,22c2.5,3.6,5.4,5,9.8,5.4c16.7,1.5,32.5,6.1,46.3,15.9c3.8,2.7,7.3,6,11,8.9
					c0.9,0.7,2.1,1,3.6,1.8c0.4-3.6-0.6-6.4-1.3-9.1c-3.8-14.2-7.8-28.3-11.7-42.5c-6-21.8-13.8-43-22.3-63.9
					c-6.4-15.8-13.5-31.4-22.5-45.9c-4.7-7.5-10.2-14.6-15.5-21.8c-1-1.4-2.5-2.6-3.9-4c-6.7,2.2-12.5,5.8-18.1,9.5
					c-30.9,20.4-64,35.6-100.3,44c-25,5.9-50.8,8.3-76.5,7.2c-27.9-1.3-55-7.2-81.4-16.4c-33.7-11.7-62.2-31.2-87.1-56.3
					c-11.1-11.2-21.2-23.3-30.2-36.3c-10.1-14.6-17.2-30.6-22.4-47.5c-2.6-8.5-4.6-17.2-5.8-26.1c-0.4-2.6-0.5-5.2-0.3-7.8
					c0.2-2.7,2.1-4.3,4.8-4.1c2.3,0.2,4.7,0.6,6.9,1.3c10.1,2.8,20.3,2.4,30.4,0.8c15-2.4,29.6-6.8,44.1-11.4
					c18-5.7,35.9-11.8,54-17.1c16.6-4.9,33.3-9.4,50.4-12.4c44.8-7.9,87.7-2.9,128.7,17.4c15.3,7.6,29.8,16.5,43.4,26.8
					c24.2,18.2,42,41.6,55.4,68.5c0.7,1.7,1.6,3.3,2.5,4.9c0.7,1,1.8,2.2,2.8,2.3c1.9,0.1,2.2-1.9,2.5-3.4c0.2-0.8,0.3-1.5,0.4-2.3
					c3.1-20.3,9-39.9,15.5-59.3c6.3-19,14.3-37.2,24.6-54.4c10.1-16.6,21.7-32.1,35.9-45.6c18.5-17.5,40-29.4,65-35
					c8.7-2,17.6-2.8,26.5-2.4c1,0.1,2.1,0,3.1,0.2c1.8,0.3,3.8,0.5,4.6,2.4c0.9,2-0.5,3.5-1.7,4.9c-1.6,1.8-3.1,3.6-4.8,5.2
					c-10.2,10.1-14.7,22.7-16.6,36.6c-1.4,10.1-1.9,20.4-1.6,30.6c0.6,21.2,1.1,42.5,1.4,63.7c0.3,14.7,0.2,29.4-1.4,44
					c-1.8,17-6.1,32.9-15.7,47.3c-10.9,16.4-25.9,27.2-44.7,32.8c-14.6,4.5-30.3,4.3-44.9-0.4c-1.9-0.6-3.7-2.1-6.2-0.3
					c0.6,1.1,1.3,2.2,2,3.2c19.4,24.4,34.2,51.4,46.3,80.1c18,42.7,30.7,87,40.8,132.1c3,13.3,5.4,26.7,8.2,40.1
					c0.4,2,0.4,4.2,2.9,5.9c0.6-1.1,1.4-2.1,1.5-3.2c1.2-10.9,2.3-21.9,3.3-32.9c3-30,6.1-60,10.4-89.9c0.1-0.8,0.2-1.6,0.4-2.3
					c2-7.9,1.1-15.1-3.4-22.4c-5.2-8.5-7.7-18.3-9-28.3c-1.8-13.6,2.2-25.9,8.3-37.8c4.9-9.6,11.6-18.2,19.7-25.3
					c3.6-3.1,5.5-6.8,6.6-11.3c5.1-21.4,10.1-42.9,15.7-64.2c8.8-33,19.2-65.4,32.4-96.9c16.3-38.4,35-75.7,56.1-111.7
					c5.2-8.8,10.3-17.7,15.3-26.6c0.8-1.3,1.3-2.8,2.1-4.6c-1.8-1.1-3.2-2.1-4.8-2.8c-9.6-4.2-18.9-9.1-27.8-14.7
					c-33.1-20.8-53.7-50.9-64.9-87.9c-3.2-10.5-5.5-21.3-8.4-32c-3.1-11.6-6.3-23.3-9.8-34.8c-1.5-4.8-3.4-9.4-5.7-13.8
					c-3.3-6.9-8.6-12.7-15.3-16.5c-2-1.2-4-2.5-5.8-4c-1-0.8-1.1-2.3-0.3-3.3c0.2-0.3,0.5-0.5,0.8-0.7c1.9-0.9,3.9-1.5,5.9-1.9
					c10.9-1.6,21.9-2,32.9-0.2c14.9,2.4,29.1,7.1,42.7,13.3c22.7,10.4,44.2,22.9,63.6,38.8c18,14.6,32.7,32.8,43.1,53.5
					c1.2,2.3,2.4,4.5,3.8,7.1c2.4-0.8,4.4-1.2,6.2-2.1c16.3-7.9,33.9-12.9,51.9-14.9c13-1.3,26.2-1.6,39.2-2.2
					c16.5-0.7,33.1-0.6,49.5-1.8c13.6-1,27-3.5,40.5-5.3c6.5-0.9,12.9-2.4,18.8-5.5c0.9-0.5,1.9-0.9,2.9-1.2c3.5-1,6.6,0.6,7.1,4.2
					c0.4,2.8,0.3,5.7-0.5,8.5c-2.2,7.2-4.6,14.5-7.7,21.5c-5.2,11.8-10.6,23.4-16.5,34.8c-5.5,10.7-11.7,21.1-17.7,31.6
					c-9.5,16.6-18.9,33.3-30.1,48.9c-6.2,8.5-13.1,16.4-20.7,23.6c-9.7,9.3-21.5,14.8-34.3,18.3c-20.6,5.7-41.4,6.1-62.2,0.9
					c-13-3.3-25.6-7.5-37.2-14.6c-5.9-3.6-11-8.1-16-12.6c-4.5-4.1-8.6-8.5-12.8-12.7c-1.1-1.1-2.2-2.1-3.1-3
					c-2.9,0.1-3.2,2.2-3.9,3.8c-4.4,10.4-8.7,20.8-13,31.2c-13.9,33.4-26.4,67.4-37.4,101.9c-11.9,37.2-22,75-30.1,113.2
					c-0.3,1.5-0.4,3-0.6,5.4c1.8-0.6,3-0.8,3.9-1.4c28.7-17.5,59-32.1,90.7-43.4c6.9-2.5,13.9-4.8,20.9-7c2-0.6,4.1-0.8,6.1-0.8
					c1.5,0,2.7,2.3,1.8,3.6c-0.9,1.6-2.1,3-3.4,4.2c-7.6,6.9-12.4,15.5-16.1,24.9c-6,15.5-9.8,31.5-12.6,47.9
					c-1.6,9.8-3,19.7-4.5,29.5c-0.1,1.4-0.1,2.9,0,4.3c2-0.1,3.5,0,4.9-0.4c18.3-5,36.9-7.8,55.7-9.7c21.2-2,42.4-3.6,63.6-1.9
					c25.4,2,50.6,5.4,74.9,13.3c15.2,4.9,30.7,9.2,45.4,15.3c25,10.4,49.1,22.6,69.9,40.4c2.2,1.8,4.4,3.8,6.4,5.9
					c2.1,2.2,5.6,3.9,4.4,7.7c-1,3.2-4.6,3.1-7.3,3.8c-6.9,1.6-13.8,3.1-20.7,4.6c-7.2,1.6-14.3,3.2-21.5,4.9
					c-2.3,0.5-4.5,1.4-7.2,2.2c0.5,1.7,0.9,3.1,1.4,4.5c0.5,0.9,1,1.8,1.7,2.7c15.9,23.1,25.3,48.8,31.3,75.9
					c4.6,20.7,8.3,41.7,9.4,62.9c0.6,11.3,0.5,22.6,0.6,33.8c0.1,5.5,0.1,11,0.1,16.5c0.1,1.8-0.2,3.7-0.6,5.4
					c-0.9,2.9-4.3,4.3-7.1,3.1c-1-0.4-1.9-1-2.7-1.6c-24.3-18.6-51.5-32.2-79.4-44.6c-13.6-6.1-27.5-11.7-41.1-18
					c-15.3-7-29.5-15.9-43.2-25.7c-9.2-6.6-17.9-13.7-25.1-22.5c-0.5-0.6-1.1-1.1-1.7-1.5c-2.8-0.3-4.3,1.9-6,3.3
					c-13.5,10.9-27.1,21.6-41.6,31.1c-10.1,6.7-20.7,12.4-32,16.7c-20.6,7.6-39.5,5.3-56.8-8.9c-12.6-10.4-24-22-35.1-33.8
					c-3.8-4-7.7-7.8-11.7-11.7c-0.9-0.7-1.8-1.3-2.8-1.9c-1.3,1.2-2.4,2.1-3.4,3.3c-5.9,6.7-11,14.1-15.2,21.9
					c-14.8,27.5-24.5,56.7-30.7,87.2c-3.1,15.3-4.1,30.6-4.7,46.1c-1.4,33.3-2.9,66.5-4.1,99.8c-0.3,7.3,0.4,14.7,0.5,22
					c0.2,12.1,0.2,24.1,0.4,36.2c0.2,11.3,0.4,22.6,0.7,33.8C1277.5,1784.1,1277.8,1786.9,1278.1,1789.8z M808,1525.2h-1.5
					c-0.5,1.1-1,2.1-1.5,3.2c-0.1,0.4-0.3,0.8-0.4,1.2c0.1-0.4,0.2-0.8,0.4-1.3L808,1525.2z M683.8,1084.4c2.3,3.9,5.7,6.8,9.4,9.4
					c15.7,10.9,33.2,17.8,51.7,22.2c13,3.1,26.3,4.2,39.7,4.7c1.3,0.1,2.6,0.2,3.9,0.3c5.5,0.4,10.9,0.9,16.4,1.3
					c2.3,0.2,4.8-0.2,7.1,0.2c10.4,2,20.9,1.1,31.3,1.4c3.1,0.1,6.3,0.3,9.4,0.5c3.9,0.3,7.8,0.8,11.7,0.9
					c24.1,0.1,48.2,0.1,72.3,0.2c2.4,0,4.7,0,7.1,0.2c11.5,0.9,22.9,2.1,34.4,2.7c11.2,0.6,22.4,2,33.5,4c20.9,3.7,41.7,8,61.3,16.5
					c0.9,0.5,1.9,0.8,3,0.9c1.1,0.1,2.3-0.3,3.8-0.5c-0.4-1.6-0.5-2.7-0.9-3.5c-2.6-5.1-5.1-10.3-8.1-15.2
					c-5.3-8.8-12.2-16.3-18.8-24.1c-8.5-10.2-18.9-18-28.5-26.9c-0.2-0.2-0.4-0.3-0.6-0.5c-14.5-11.6-31.1-19.3-48.4-25.5
					c-13.3-4.8-27.1-8.1-41.2-9.6c-9.1-1-18.2-2.4-27.4-2c-8.9,0.4-17.7,0.4-26.6,1.3c-10.5,1-20.9,2.3-31,4.7
					c-15,3.6-29.9,7.7-44.7,12.3c-16,4.9-31.8,10.6-47.8,15.9c-17.5,5.8-35.7,8.2-53.9,9.9c-3.3,0.3-6.8-0.4-10.1-0.7L683.8,1084.4z
					 M1512.1,1252.4c-8,0.6-16.1,1.8-24.1,1.8c-13.4,0-26.7,1.5-39.8,3.8c-22.8,3.9-45.2,9.2-66.6,18.1
					c-12.1,5.1-24.1,10.5-35.3,17.3c-19.1,11.6-36.6,25.3-51.8,41.9c-5.8,6.4-10.7,13.7-14.3,21.5c-0.6,1.2-0.9,2.5-1.1,3.8
					c-0.2,1.7,1,3.2,2.7,3.3c0,0,0,0,0,0c0.5,0.1,1,0,1.5-0.2c1.9-0.9,3.7-2,5.4-3.1c8.4-5.3,16.6-11,25.3-15.8
					c26-14.5,53.9-24.5,82.7-31.9c23.6-6,47.6-10.4,71.8-13c19-2.1,38.1-3.1,57.2-2.9c8.1,0.1,16.3-0.2,24.4,0.1
					c10.7,0.4,21.4,0.9,32.1,1.8c8.6,0.7,17.2,1.9,25.7,3c9.1,1.2,18.2,2.2,27.2,3.8c22.2,4,44.1,9.2,65.8,15.4
					c1.7,0.5,3.6,0.8,5.4,0.9c1-0.1,1.9-0.6,2.5-1.4c0.4-0.7,0.4-2.3-0.2-2.9c-1.7-2-3.6-3.8-5.7-5.2c-9.9-6.4-19.7-12.9-30-18.7
					c-8.6-5-17.6-9.4-26.8-13.2c-19.7-7.9-39.8-14.7-60.7-18.9c-11.3-2.3-22.6-4.5-34-5.9c-6.5-0.8-13-1-19.6-1.5
					C1525.3,1253.7,1518.8,1253,1512.1,1252.4L1512.1,1252.4z M1657.1,803c-1.7-2-3.1-1.2-4.6-0.7c-4.7,1.7-9.2,3.8-14,5.1
					c-11.6,3.4-23.6,4.7-35.7,4.7c-3.1,0-6.3,0.2-9.4,0.4c-4.4,0.3-8.8,0.9-13.3,1c-5.8,0.2-11.5,0.1-17.3,0.1
					c-20.1-0.3-40.3,0.7-60.3,2.9c-11.5,1.2-22.7,3.9-33.5,7.9c-11.1,4.2-20.9,11.2-28.3,20.5c-5.9,7.4-11.2,15.1-16,23.3
					c-10.5,17.6-15.6,36.5-14,57c0.4,4.7,1.2,9.4,3.8,13.5c0.9,1.4,2.3,2.5,4,1.8c1.2-0.5,2.1-1.4,2.7-2.5c1.3-2.8,2.1-5.9,3.4-8.7
					c5.5-11.7,15-20.1,24.6-28.2c10-8.5,21.2-15.5,33.1-20.9c11.7-5.3,23.3-10.7,35.1-15.7c19.8-8.3,40-15.5,60.4-22.4
					c10.4-3.5,20.8-7.3,30.8-11.8c13.3-6.1,26.3-13,39.4-19.6c2.5-1.4,4.9-2.9,7.2-4.7C1656.2,805.2,1656.5,803.9,1657.1,803
					L1657.1,803z M1094.7,1369.9c0-1,0.2-1.7,0-2c-9.3-13.4-20.4-24.6-36-30.5c-10.4-3.9-21.3-6-32.3-5.5
					c-11.3,0.6-22.4,2.7-33.1,6.3c-17.3,5.7-33.3,14.1-48.4,23.9c-17.2,11.2-32.6,24.6-47.5,38.5c-8.3,7.6-16,15.8-23.2,24.5
					c-6.6,8.1-13.8,15.8-20.1,24.1c-13.3,17.8-26,36.2-37.1,55.5c-2.6,4.5-5.2,9.1-7.7,13.7c-0.5,0.9-0.6,2,1,2.6
					c2.5-0.9,3.5-3.6,5-5.6c10.5-13.7,21.7-26.9,34.2-38.9c5.3-5.1,10.3-10.4,15.6-15.5c6.6-6.4,13-12.9,20.2-18.7
					c23.4-19.1,48.1-36.1,75.3-49.5c18.3-9.1,37.6-16.1,57.5-20.9c11.7-2.8,23.7-4.3,35.6-5.6c10-1,19.8,0.8,29.7,2.2
					C1087.2,1369.1,1090.9,1369.9,1094.7,1369.9L1094.7,1369.9z M1712.3,1535.5c0.7-7.1,1.4-14,2-20.9c0.1-1.6,0-3.1-0.2-4.7
					c-0.1-1-0.4-2-0.6-3.1c-0.2-1.3-0.4-2.6-0.4-3.9c-0.3-10.5,0.2-20.9-1.6-31.3c-1.3-7.2-1.4-14.6-2.9-21.8
					c-2.8-13.3-6.1-26.5-9.5-39.7c-3.7-14.5-9.2-28.4-16.5-41.5c-3.3-5.6-7-11-11.2-16.1c-3.5-4.5-8.1-6.2-13.9-3.8
					c-6.1,2.4-12.4,4.1-18.6,6.3c-11.6,4.1-22.7,9.6-33.1,16.2c-4.7,2.9-4.9,4.7-1.3,8.6c1.8,1.9,3.7,3.8,5.6,5.5
					c7.5,7,14.3,14.6,20.4,22.8c11.2,15.1,22.1,30.5,32.8,46c7.6,11,14.7,22.3,21.9,33.6c9.6,15,18.9,30.2,25.5,46.9
					C1710.9,1534.9,1711.5,1535.1,1712.3,1535.5L1712.3,1535.5z M1256.8,961.1c-2.5-1.5-4.9-1.1-7.2-0.8c-9.1,1.5-17.9,4-26.3,7.7
					c-25.3,11.1-45.8,28.2-62.5,50c-12,15.6-21.9,32.7-29.6,50.8c-12.9,30.3-22.2,61.6-26.1,94.4c-0.2,1.8-1.3,3.6,0.4,5.2
					c1.1,1,3.2,0.1,5.4-2.1c0.7-0.8,1.4-1.6,2-2.4c6.6-8.5,12.5-17.5,17.5-27c7.3-13.6,14.3-27.4,21.4-41.2
					c10.2-20.1,21.6-39.6,34.4-58.2c18.8-27.2,41.6-51.4,67.6-71.8C1255,964.6,1257.1,964,1256.8,961.1L1256.8,961.1z M1272,719.5
					c0.5,2.9,3,3.4,5,4.4c5.9,2.9,12,5.3,17.7,8.4c6.4,3.5,12.5,7.7,18.8,11.3c15.3,8.8,28.3,20.6,41.2,32.5
					c5.9,5.5,11.1,11.8,16.6,17.8c7.4,8.1,14.2,16.8,20.4,25.9c7.9,11.7,15.6,23.6,22,36.3c0.6,1.2,1.3,2.3,2.1,3.3
					c1.1,1.2,3,1.3,4.2,0.2l0,0c0.6-0.5,1.1-1.1,1.5-1.8c5.2-7.9,10.4-15.8,17-22.6c1.2-1.1,1.6-2.9,0.9-4.4
					c-2.9-7.5-5.1-15.4-9.7-22.3c-5.8-8.8-11.8-17.3-19.5-24.5c-3.6-3.4-7.1-7-10.6-10.5c-8.9-8.9-18.7-16.8-29.3-23.7
					c-18.5-12.1-38.1-22-59.6-27.9c-11.2-3.1-22.5-4.9-34.1-4.2C1275.1,717.8,1273.1,717.4,1272,719.5L1272,719.5z M1312.6,1256.3
					c3.3,0.2,4.2-1.8,5.3-3.5c8.8-13.1,19.2-24.9,29.7-36.5c10.8-11.8,22.8-22.4,35.5-32.1c8.3-6.4,16.7-12.6,26-17.5
					c7.9-4.1,15.4-9,23-13.5c0.8-0.5,2-0.8,1.1-2.5c-1,0-1.9,0.2-2.9,0.4c-10.3,3.9-20.5,7.8-30.8,11.7
					c-27.4,10.5-52,25.8-75.6,42.9c-3.8,2.8-6.3,6.2-7.3,10.8c-0.6,2.8-1.6,5.6-1.7,8.5c-0.3,7.4-1.8,14.5-3,21.8
					C1311.6,1249.8,1311.1,1253,1312.6,1256.3L1312.6,1256.3z M1258.4,1327.5c2-3.1,2.3-6.2,2.8-9.2c2-12.1,3.8-24.3,5.9-36.5
					c1.4-8.5,3.1-17,4.7-25.5c0.3-1.6,0.5-3.1-1.9-4.1c-1.2,0.8-2.4,1.6-3.5,2.6c-7.8,7.9-13.3,17.6-16.2,28.3
					c-2.5,9-1.9,18.2-1,27.3c0.6,5.5,3.1,10.5,6.6,15C1256.3,1326.2,1257.2,1326.7,1258.4,1327.5L1258.4,1327.5z M1290.8,1440.5
					c5.6-5.1,22-23.9,24.4-27.9c-4.8-5.9-10.8-10.4-16.9-14.9c-0.5-0.4-1.4-0.2-2.1-0.3C1294.4,1403,1291.4,1426.3,1290.8,1440.5
					L1290.8,1440.5z"/>
			</g>
			<g>
				<path class="st15" d="M1217.1,1835.4c6.8-0.1,13.5-0.3,20.3,1.2c3.2,0.7,6.8,0.4,10.2,0.3c9.1-0.3,18.3,0.9,27.3-1.1
					c1.6-0.3,3.5,0.7,5.3,1.1c0.6,4.9,0.9,9.9,1.9,14.8c0.5,2.5,2,4.8,3.3,7c3.7,6.3,7.6,12.5,11.2,18.9c2.3,4.1,5.5,7.7,9.2,10.6
					c13.6,10.7,26.7,22,41.5,31.1c4,2.5,8.2,4.6,12.4,6.8c1.4,0.8,2.9,1.3,4.4,1.6c10.2,1.5,19.7,5.3,29.5,8
					c11.4,3.1,22.9,5.4,34.4,8.1c6.2,1.4,12.5,1.2,18.7,2c15.4,2.1,30.9,0.8,46.3,1.4c14.4,0.6,28.2-2.3,41.7-6.6
					c8-2.6,16.3-3.9,24.5-5.3c0.8-0.2,1.6-0.2,2.3-0.2c8.5,1.4,17.2,1.1,25.8,2.9c11.1,2.4,22.4,1.6,33.7,0.6
					c3.6-0.3,7.3-0.9,10.9-0.9c11-0.1,22-0.2,33,0c8.7,0.2,17.2-1,25.8-2.3c11.2-1.6,22.4-1.6,33.6,0.9c12.8,2.9,25.7,5.1,38.5,7.6
					c1.5,0.3,2.9,0.8,4.2,1.2c0.1,2.1-1.3,1.8-2.2,1.8c-12.9,0.5-25.6,0.1-38.3-2.4c-4.9-1-9.8-1.6-14.8-1.7
					c-4.1,0-8.3,0.9-12.4,1.7c-10.8,2.1-21.6,4.4-32.4,6.4c-5.7,1-11.4,1.6-17.1,2.4c-17.5,2.5-35.1,1.5-52.6,1.3
					c-10.7-0.1-20.7,1.8-30.9,4.6c-11.7,3.2-22.7,8.1-34.1,12.1c-11.4,4-22.7,6.2-34.7,5.7c-7.3-0.3-14.7,0.4-21.9-1.4
					c-0.9-0.2-2,0.2-3,0.3c-0.5,2.9,1.6,4.1,3.3,5c3.9,2.2,7.9,4.2,11.9,6c8.9,3.9,18,7.2,27.4,9.8c5.3,1.5,10.8,2.3,16.3,2.3
					c9.7-0.2,19.4-0.3,29.1,0.1c7.8,0.3,15.6,1.4,23.4,2.3c10.4,1.1,19.4,6.1,28.2,11.3c4.3,2.6,8.3,5.5,12,8.8
					c6.7,5.8,13.1,12,19.8,18c4.1,3.7,8.2,7.4,12.7,10.6c5.2,3.6,11.1,6.1,17.3,7.2c2.3,0.4,4.6,1,6.8,1.8c2.7,1,3.9,3.1,3.4,5.5
					c-0.5,2.4-2.6,3.8-5.4,3.3c-11.3-1.7-22-4.8-31.2-12c-8.5-6.6-17-13.1-25.6-19.6c-4.4-3.3-8.9-6.5-13.4-9.7
					c-0.8-0.6-1.8-1.1-2.8-1.5c-6.6-2.4-13.3-4.9-20-7.1c-4.3-1.3-8.7-1.9-13.2-1.8c-7.6,0.1-15.2,0.1-22.8-0.1
					c-10-0.3-19.8,0.9-29.7,2.5c-15.2,2.4-29.3-0.8-41.2-10.8c-3.6-3-7.7-5.5-12-7.2c-12.6-5.3-25-10.8-37.7-15.9
					c-5.8-2.4-11.8-4.4-17.9-6c-9.9-2.6-19.9-4.8-29.8-7.1c-1.2-0.2-2.3-0.3-3.5-0.4c-2.3,2-1.4,4.1-1,6.1c2.2,11,5.1,22,6.4,33.2
					c1.1,9.4,4.7,17.7,8.4,26c2.7,6.4,7.7,11.5,14,14.3c7,3.1,13.2,7.6,19.1,12.3c4.7,3.8,9,8,12.2,13.2c3.2,5.2,6.4,10.2,9.8,15.2
					c3.8,5.7,8.8,10.5,14.6,14.1c1.1,0.7,2.3,1.3,3.5,1.6c9.4,2.3,18.7,5.1,28.5,5c7.1-0.1,14.1,2.2,19.9,6.3
					c10.5,7.4,21.2,14.5,32,21.4c9.7,6.2,19.7,12,29.5,18c1.1,0.6,2,1.4,2.9,2.1c-0.6,1.9-1.7,1.5-2.6,1.2
					c-11.1-3.4-21.8-7.6-31.5-14c-10.3-6.8-20.6-13.5-30.7-20.5c-5.4-3.7-11.1-5.7-17.7-5.3c-8.4,0.5-16.8-0.1-24.9-2.7
					c-1.5-0.5-3.1-0.3-4.7-0.4l-0.3-0.3l0.3,0.3c0.7,1.4,1.3,2.9,2.2,4.1c5.9,7.5,9.2,16.4,12.9,25.1c2.1,5.1,3.3,10.4,4,15.9
					c1.3,9.3,3.5,18.5,5.4,27.8c1.4,6.6,2.9,13.2,4.3,19.8c-1.4,1.7-3,1.3-4.1,0c-1.5-1.8-3.1-3.7-3.8-5.8c-1.5-4.5-2.7-9-3.6-13.7
					c-2-10.9-4.3-21.6-8.7-31.8c-1.3-3.1-3.3-5.9-5-8.8c-0.4-0.7-1-1.2-1.4-1.9c-9.3-14.9-18.6-29.8-28-44.6
					c-2.9-4.6-6.2-9.1-9.3-13.6c-0.4-0.7-0.9-1.3-1.5-1.8c-4.9-4.3-9.9-8.6-14.8-12.9c-5.5-4.9-11.8-8.7-18.1-12.4
					c-7.8-4.5-14.3-10.6-20.2-17.4c-5.8-6.8-8.9-14.9-10.8-23.4c-4.1-17.7-10-34.8-16-51.8c-3.3-9.4-8.7-17.1-17.9-22
					c-6-3.2-11.3-7.6-17-11.4c-2.1-1.5-4.4-2.7-6.8-3.7c-4.9-1.9-9.9-3.6-14.8-5.4c-4-1.4-8.3-1.6-12.4-0.5c-4,1-7.9,2.8-11.7,4.5
					c-2.2,1-3.6,2.9-4.3,5.3c-1.8,6.2-2.3,12.3-0.8,18.6c3,13.3,7.3,26.3,12.7,38.8c6.5,14.9,13.6,29.5,20.3,44.3
					c2.3,5.3,6.4,9.7,11.5,12.4c6.9,3.8,13.3,8.4,19.9,12.6c3.1,2,6.1,4.3,9.4,5.7c9.8,3.9,16.2,11.5,21.4,20.1
					c3.6,5.8,7.8,11.2,12.6,16c4.9,5.1,9.2,10.7,13.8,16.1c0.8,1.1,1.6,2.2,2.2,3.4c0.9,1.7,1.6,3.4,0.1,5.1
					c-1.2,1.3-3.4,0.7-5.3-1.6c-5-6-10-12.1-14.9-18.2c-7.5-9.1-15.9-17.5-25-25c-0.9-0.6-1.7-1.3-2.4-2
					c-5.2-6.3-12.5-9.3-19.6-12.6c-5.2-2.4-10.4-5-15.4-7.7c-3.3-1.7-6.4-3.4-10.2-4c-6.8-0.9-11.3-4.7-13.9-11.2
					c-3-7.3-6.6-14.3-9.8-21.5c-1.4-3.4-4-6.2-7.2-8.1c-9.9-5.7-15.2-14.9-19-25.2c-4.7-12.5-9.1-25.1-13.7-37.7
					c-1-2.6-1.7-5.5-4.1-6.9c-0.7,0.1-1.1,0-1.2,0.1c-6.8,6.5-12.6,14.1-17,22.4c-2.7,5.2-3.4,11.2-1.9,16.8
					c0.9,3.6,1.8,7.1,2.6,10.7c0.9,4.4,2.9,8.5,5.8,11.9c6.2,7.1,9.9,15.5,11.6,24.6c1.3,7.1,4.6,13.2,8.1,19.4
					c11.9,21,27.6,38.8,44.8,55.4c2.9,2.7,5.9,5.1,9.1,7.4c7.8,5.7,15.9,11.1,23.5,17.1c6.4,4.9,12.6,10.2,18.5,15.8
					c10.2,9.9,20.9,19.1,32.9,26.7c10.9,6.8,20.9,14.9,29.9,24.2c9.4,9.8,19.1,19.5,26.8,30.8c4,5.8,8.8,11,13.3,16.5
					c1.4,1.8,3.4,3.4,2.7,6.2c-2.4,1-4.2-0.4-5.6-1.7c-4.1-4-8.2-8.1-12-12.4c-11.7-13.1-23.8-25.9-38-36.3
					c-8-5.9-16.8-10.8-26-14.5c-13.6-5.4-25.6-13.3-37.3-21.7c-10.2-7.4-20.2-14.9-31-21.4c-6.7-4.1-13.6-7.8-20.4-11.6l-0.4-0.3
					l0.3,0.4c1.1,2.1,1.8,4.4,3.2,6.2c6.7,8.5,11.6,18.1,17.4,27.1c8.5,13.3,14.6,27.8,20.8,42.2c4.8,11.3,8.2,23.3,9.9,35.5
					c1.1,7.8,1.6,15.6,2.2,23.4c0.1,1.5,0.3,3.2-1.5,4.1c-1.2,0.6-3.1-0.8-3.7-3.3c-1.5-6.1-3.1-12.2-3.8-18.5
					c-2-17.4-9.3-32.6-18-47.4c-7.6-12.9-16.9-24.6-26-36.5c-1.5-1.8-3.1-3.6-4.8-5.2c-5.6-5.6-11-11.2-16.8-16.6
					c-11.8-11.2-20.5-24.5-27.9-38.7c-9-17.3-14.7-35.8-19.9-54.6c-0.8-2.8-1-5.7-2.1-8.4c-1.8-4.3-3.9-8.5-6.3-12.6
					c-2.2-3.6-5-6.8-7.5-10.1c-0.9-1-1.9-2.1-2.9-3c-1.3,0.8-2.6,1.3-3.3,2.2c-7.7,9.3-16.1,17.9-23.3,27.6
					c-7.1,9.4-14.6,18.5-20.5,28.8c-0.6,1.1-1.4,2.2-2.2,3.3c-8.3,10.1-12.1,21.9-14,34.5c-1.4,9.6-3.2,19.1-5.6,28.5
					c-1.7,6.6-2.5,13.4-3.6,20.1c-0.3,1.8-0.3,3.7,0,5.5c1.4,10.9,2.8,21.8,4.2,32.7c0.1,0.9,0.1,1.9,0,2.8c-1.8,0.9-2.2-0.1-2.7-1
					c-3.4-7.2-4.5-15-6.2-22.7c-2.4-10.8-2.2-21.9-1.7-32.9c0.2-6,1.3-11.9,1.9-18c0.5-4.7,1.1-9.4,1.1-14.1
					c-0.2-9.4,0.7-18.9,2.7-28.1c0.3-1.4,0-3,0-5.1c-1.3,0.4-2.3,0.4-3.1,0.9c-5.7,3.2-11.5,6.2-17,9.8
					c-13.7,8.9-28.6,15.5-43.3,22.4c-14.2,6.7-26.6,15.7-36.6,27.9c-1.7,2-3.3,4.1-5.2,5.9c-7.9,8-16,15.9-23.8,24.1
					c-5.1,5.2-10.9,9.8-17.2,13.6c-5.6,3.5-11.2,6.8-16.9,10.1c-1.8,1-3.7,1.9-5.7,2.7c-1.5,0.6-3.2,0.8-4.4-0.6
					c-1.1-1.4-0.4-3.1,0.7-4.2c2.8-2.7,5.7-5.5,8.8-7.8c6.2-4.4,12.7-8.4,18.9-12.7c3.6-2.6,7.1-5.4,10.3-8.4
					c6.2-6,12.4-12.1,18.3-18.4c4.3-4.5,8.7-9.1,12.4-14.2c5.7-7.8,12.9-13.8,20.5-19.3c8.5-6.1,17.2-12,26.4-17
					c13-7,24.7-15.9,36.4-24.7c9.2-6.9,17.9-14.5,26-22.8c7.7-7.9,15.4-15.8,23.4-23.3c10-9.5,17.9-20.5,24.9-32.3
					c9.8-16.4,19.7-32.8,29.2-49.4c4.9-8.6,9-17.8,13.5-26.7c0.5-1.1,0.6-2.4,0.9-3.4c-1.3-1.6-2.6-1.3-3.8-0.7
					c-6.2,2.8-12.5,5.4-18.6,8.4c-10.6,5.3-22,8.5-33.3,11.9c-14.3,4.3-28.7,8.3-43,12.6c-13.6,4.1-26.9,9-39.3,15.9
					c-11.6,6.5-24.2,9.8-37.1,12.6c-11.3,2.5-22.5,5.1-33.6,8.3c-8.6,2.5-16.7,6.3-24.3,11c-14.8,9.1-29,19.1-40.5,32.1
					c-8,9-15.1,18.8-22.6,28.2c-1.6,2-2.4,4.7-5,5.7c-1.2-0.1-2.1-1.1-2-2.4c0-0.2,0.1-0.4,0.1-0.6c0.5-2,1.3-4,2.3-5.8
					c7.5-13.6,16.1-26.4,26.8-37.7c12.1-12.8,25.5-24.1,40.8-32.9c9.6-5.5,20-9.2,30.1-13.5c14.7-6.2,29.5-12.2,44.2-18.7
					c4.9-2.2,9.8-4.8,13.7-8.5c-0.5-1.8-1.7-1.6-2.7-1.6c-5.8,0-11.5-0.4-17.2,1.1c-1.5,0.3-3.1,0.5-4.7,0.4
					c-13.4,0-26.6,2.2-39.5,5.6c-16.4,4.5-33.1,8.1-49.9,10.8c-10.6,1.7-21.3,2.9-31.9,4.2c-4.9,0.6-9.9,1.1-14.8,1.4
					c-9.2,0.5-18.3-1.3-27.3-2.3c-14-1.6-27.9-4.7-42.2-3.9c-14.5,0.8-28.7,2.5-42.5,7c-7.2,2.3-14.5,4.5-21.8,6.7
					c-1.1,0.3-2.3,0-4.5,0c5.4-5.5,10.8-9,17.2-10.9c14.3-4.3,28.9-7.7,43.6-10.1c2.3-0.3,4.7-0.5,7-0.4c8.4,0,16.8,0,25.2,0
					c1.6-0.1,3.1,0,4.7,0.2c8.6,1.8,17.2,1.3,25.9,1.3c4.2,0,8.3-0.7,12.5-1c1.8-0.2,3.7-0.4,5.5-0.4c8.5,0.3,16.7-1.7,24.8-3.7
					c4.3-1.1,8.6-2.3,12.8-3.8c16.7-5.6,34-8.7,51.3-11.7c4.9-0.9,9.6-2.6,14.5-3.6c6.6-1.4,13.3-2.9,20-3.8
					c7.5-1,15.1-1.3,22.7-1.9c11.5-0.9,22.9-2,34.4-2.8c5.2-0.4,10.5-0.3,15.7-0.2c6.6,0.1,13.1-0.9,19.3-3.1
					c12.1-4.2,24.4-8.1,36.3-12.8c11-4.3,21.8-9.4,31.3-16.3c8.7-6.3,16.3-14,21.7-23.6c3.2-5.7,6.2-11.5,9.6-17.1
					C1216.5,1842.7,1217.4,1839.1,1217.1,1835.4z"/>
			</g>
			<g>
				<path class="st16" d="M683.8,1084.4c2.6,0.2,5.2,0.5,7.8,0.7c3.4,0.3,6.8,1,10.1,0.7c18.2-1.7,36.4-4.1,53.9-9.9
					c15.9-5.3,31.7-10.9,47.8-15.9c14.8-4.5,29.7-8.7,44.7-12.3c10.2-2.4,20.6-3.7,31-4.7c8.9-0.8,17.7-0.9,26.6-1.3
					c9.2-0.4,18.3,1.1,27.4,2c14.1,1.6,27.9,4.8,41.2,9.6c17.4,6.2,33.9,14,48.4,25.5c0.2,0.1,0.4,0.3,0.6,0.5
					c9.6,8.9,20,16.8,28.5,26.9c6.6,7.8,13.5,15.4,18.8,24.1c3,4.9,5.5,10.1,8.1,15.2c0.5,0.9,0.5,2,0.9,3.5
					c-1.5,0.2-2.7,0.5-3.8,0.5c-1-0.2-2-0.5-3-0.9c-19.6-8.5-40.4-12.8-61.3-16.5c-11.1-2-22.2-3.4-33.5-4
					c-11.5-0.6-22.9-1.8-34.4-2.7c-2.3-0.2-4.7-0.2-7.1-0.2c-24.1-0.1-48.2-0.1-72.3-0.2c-3.9,0-7.8-0.6-11.7-0.9
					c-3.1-0.2-6.3-0.4-9.4-0.5c-10.5-0.3-21,0.6-31.3-1.4c-2.3-0.4-4.7-0.1-7.1-0.2c-5.5-0.4-10.9-0.8-16.4-1.3
					c-1.3-0.1-2.6-0.2-3.9-0.3c-13.4-0.5-26.6-1.7-39.7-4.7c-18.5-4.4-36-11.2-51.7-22.2C689.5,1091.2,686.2,1088.3,683.8,1084.4
					L683.8,1084.4z"/>
			</g>
			<g>
				<path class="st17" d="M1512.1,1252.4c6.7,0.6,13.2,1.3,19.7,1.8s13,0.7,19.6,1.5c11.5,1.4,22.8,3.6,34,5.9
					c20.9,4.2,41,10.9,60.7,18.9c9.2,3.8,18.2,8.2,26.8,13.2c10.2,5.8,20.1,12.4,30,18.7c2.1,1.5,4.1,3.3,5.7,5.2
					c0.5,0.6,0.6,2.1,0.2,2.9c-0.6,0.8-1.5,1.3-2.5,1.4c-1.8-0.1-3.6-0.4-5.4-0.9c-21.7-6.3-43.6-11.4-65.8-15.4
					c-9-1.6-18.1-2.6-27.2-3.8c-8.6-1.1-17.1-2.3-25.7-3c-10.7-0.9-21.4-1.4-32.1-1.8c-8.1-0.3-16.3,0-24.4-0.1
					c-19.1-0.2-38.2,0.8-57.2,2.9c-24.2,2.6-48.2,7-71.8,13c-28.8,7.4-56.6,17.4-82.7,31.9c-8.7,4.8-16.9,10.5-25.3,15.8
					c-1.7,1.2-3.5,2.2-5.4,3.1c-1.5,0.6-3.3-0.1-4-1.6c-0.2-0.5-0.3-1-0.2-1.5c0.2-1.3,0.5-2.6,1.1-3.8c3.6-7.9,8.5-15.1,14.3-21.5
					c15.2-16.6,32.7-30.3,51.8-41.9c11.2-6.8,23.1-12.3,35.3-17.3c21.4-9,43.9-14.3,66.6-18.1c13.1-2.2,26.4-3.7,39.8-3.8
					C1496,1254.2,1504.1,1253,1512.1,1252.4z"/>
			</g>
			<g>
				<path class="st17" d="M1657.1,803c-0.5,0.9-0.9,2.3-1.8,2.9c-2.2,1.8-4.6,3.4-7.2,4.7c-13.1,6.7-26,13.5-39.4,19.6
					c-10,4.6-20.4,8.3-30.8,11.8c-20.3,6.9-40.6,14.1-60.4,22.4c-11.8,4.9-23.4,10.4-35.1,15.7c-12,5.4-23.1,12.4-33.1,20.9
					c-9.6,8.1-19.1,16.4-24.6,28.2c-1.3,2.8-2.1,5.9-3.4,8.7c-0.6,1.1-1.5,2-2.7,2.5c-1.7,0.6-3.1-0.4-4-1.8
					c-2.6-4.1-3.4-8.8-3.8-13.5c-1.6-20.5,3.4-39.4,14-57c4.8-8.1,10.1-15.9,16-23.3c7.4-9.2,17.2-16.3,28.3-20.5
					c10.8-4,22-6.7,33.5-7.9c20-2.2,40.2-3.2,60.3-2.9c5.8,0.1,11.5,0.1,17.3-0.1c4.4-0.2,8.8-0.7,13.3-1c3.1-0.2,6.3-0.4,9.4-0.4
					c12.1,0,24-1.3,35.7-4.7c4.8-1.4,9.3-3.4,14-5.1C1653.9,801.7,1655.4,800.9,1657.1,803z"/>
			</g>
			<g>
				<path class="st17" d="M1094.7,1369.9c-3.8,0-7.5-0.7-11.3-1.3c-9.8-1.4-19.7-3.2-29.7-2.2c-11.9,1.3-23.9,2.7-35.6,5.6
					c-19.9,4.8-39.1,11.8-57.5,20.9c-27.2,13.4-51.9,30.4-75.3,49.5c-7.1,5.8-13.6,12.3-20.2,18.7c-5.3,5.1-10.3,10.4-15.6,15.5
					c-12.5,12-23.6,25.2-34.2,38.9c-1.5,2-2.5,4.7-5,5.6c-1.6-0.6-1.5-1.7-1-2.6c2.5-4.6,5.1-9.2,7.7-13.7
					c11.1-19.3,23.8-37.7,37.1-55.5c6.3-8.4,13.4-16,20.1-24.1c7.2-8.7,14.9-16.9,23.2-24.5c15-13.9,30.4-27.3,47.5-38.5
					c15.2-9.9,31.1-18.3,48.4-23.9c10.7-3.6,21.8-5.7,33.1-6.3c11-0.5,21.9,1.5,32.3,5.5c15.6,5.9,26.7,17.1,36,30.5
					C1094.9,1368.2,1094.7,1368.8,1094.7,1369.9z"/>
			</g>
			<g>
				<path class="st17" d="M1712.3,1535.5c-0.8-0.5-1.4-0.6-1.6-1c-6.6-16.7-16-31.8-25.5-46.9c-7.2-11.3-14.3-22.6-21.9-33.6
					c-10.7-15.5-21.6-30.9-32.8-46c-6.1-8.2-13-15.8-20.4-22.8c-1.9-1.8-3.8-3.6-5.6-5.5c-3.6-3.9-3.4-5.7,1.3-8.6
					c10.4-6.6,21.5-12.1,33.1-16.2c6.2-2.1,12.6-3.9,18.6-6.3c5.9-2.4,10.4-0.6,13.9,3.8c4.1,5.1,7.9,10.5,11.2,16.1
					c7.3,13.1,12.8,27,16.5,41.5c3.4,13.2,6.7,26.4,9.5,39.7c1.5,7.1,1.7,14.6,2.9,21.8c1.8,10.4,1.4,20.9,1.6,31.3
					c0.1,1.3,0.2,2.6,0.4,3.9c0.2,1,0.5,2,0.6,3.1c0.2,1.6,0.3,3.1,0.2,4.7C1713.7,1521.5,1713,1528.4,1712.3,1535.5z"/>
			</g>
			<g>
				<path class="st17" d="M1256.8,961.1c0.2,2.9-1.8,3.5-3.1,4.6c-26,20.4-48.8,44.6-67.6,71.8c-12.7,18.6-24.2,38.1-34.4,58.2
					c-7,13.8-14.1,27.5-21.4,41.2c-5,9.5-10.9,18.6-17.5,27c-0.6,0.8-1.3,1.6-2,2.4c-2.2,2.3-4.3,3.1-5.4,2.1
					c-1.7-1.6-0.6-3.4-0.4-5.2c3.9-32.8,13.2-64,26.1-94.4c7.7-18.1,17.6-35.2,29.6-50.8c16.7-21.8,37.2-38.9,62.5-50
					c8.4-3.7,17.3-6.3,26.3-7.7C1251.9,960,1254.3,959.6,1256.8,961.1z"/>
			</g>
			<g>
				<path class="st17" d="M1272,719.5c1-2.2,3-1.8,4.8-1.9c11.6-0.6,23,1.2,34.1,4.2c21.5,5.9,41.1,15.7,59.6,27.9
					c10.6,6.9,20.4,14.8,29.3,23.7c3.5,3.5,7,7.1,10.6,10.5c7.7,7.2,13.8,15.8,19.5,24.5c4.5,6.9,6.8,14.7,9.7,22.3
					c0.6,1.5,0.2,3.3-0.9,4.4c-6.5,6.9-11.7,14.8-16.9,22.6c-0.4,0.6-1,1.2-1.5,1.8c-1.2,1.1-3.1,1.1-4.2-0.2l0,0
					c-0.8-1-1.5-2.1-2.1-3.3c-6.4-12.7-14.1-24.5-22-36.3c-6.1-9.1-12.9-17.8-20.4-25.9c-5.5-6-10.6-12.3-16.6-17.8
					c-12.9-11.9-25.9-23.7-41.2-32.5c-6.4-3.7-12.4-7.8-18.8-11.3c-5.7-3.1-11.9-5.5-17.7-8.4C1275,722.9,1272.5,722.4,1272,719.5z"
					/>
			</g>
			<g>
				<path class="st17" d="M1312.6,1256.3c-1.5-3.4-1-6.5-0.5-9.6c1.2-7.2,2.7-14.4,3-21.8c0.1-2.8,1.1-5.7,1.7-8.5
					c1-4.6,3.4-8,7.3-10.8c23.6-17.1,48.2-32.4,75.6-42.9c10.3-3.9,20.5-7.8,30.8-11.7c0.9-0.2,1.9-0.4,2.9-0.4
					c0.9,1.7-0.4,2-1.1,2.5c-7.6,4.6-15.2,9.4-23,13.5c-9.3,4.9-17.7,11.2-26,17.5c-12.7,9.7-24.7,20.2-35.5,32.1
					c-10.6,11.6-20.9,23.4-29.7,36.5C1316.8,1254.4,1315.8,1256.5,1312.6,1256.3z"/>
			</g>
			<g>
				<path class="st17" d="M1258.3,1327.5c-1.1-0.9-2-1.3-2.6-2.1c-3.5-4.4-6-9.5-6.6-15c-0.9-9.1-1.5-18.3,1-27.3
					c2.9-10.7,8.5-20.4,16.2-28.3c1.1-1,2.2-1.8,3.5-2.6c2.4,0.9,2.2,2.5,1.9,4.1c-1.6,8.5-3.2,17-4.7,25.5
					c-2.1,12.1-3.9,24.3-5.9,36.5C1260.7,1321.3,1260.3,1324.4,1258.3,1327.5z"/>
			</g>
			<g>
				<path class="st18" d="M1290.8,1440.5c0.6-14.2,3.6-37.5,5.4-43c0.7,0.1,1.6-0.1,2.1,0.3c6.1,4.5,12.1,9,16.9,14.9
					C1312.8,1416.6,1296.3,1435.4,1290.8,1440.5z"/>
			</g>
			<g>
				<path class="st17" d="M805,1528.4c0.5-1.1,1-2.1,1.5-3.2h1.5L805,1528.4L805,1528.4z"/>
			</g>
			<g>
				<path class="st17" d="M804.9,1528.3c-0.1,0.4-0.2,0.8-0.4,1.3C804.7,1529.2,804.8,1528.8,804.9,1528.3L804.9,1528.3z"/>
			</g>
			<g>
				<path class="st17" d="M808,1525.2L808,1525.2z"/>
			</g>
			<g>
				<polygon class="st12" points="1465.9,2118.7 1465.6,2118.4 1465.8,2118.7 				"/>
			</g>
			<g>
				<polygon class="st12" points="1266,2136 1265.7,2135.6 1266,2135.9 				"/>
			</g>
			<g>
				<g>
					<path class="st19" d="M966.7,1886.5h-39.6v-13.4c-4.8,0-9.6,0.9-14.1,2.6c-4.9,1.8-9.5,4.5-13.5,7.9c-4.4,3.8-8.1,8.4-11,13.6
						c-3.1,5.5-5.4,12-6.8,19.5v104.3h36.7v35.9H811.3v-35.9h29.8l0.2-144.4h-30v-35.9h69.1v29.8c2.4-4.4,5.3-8.5,8.4-12.4
						c3.1-3.8,6.6-7.1,10.4-10c8-6,17.8-9.2,27.9-9.1h20.4c6.4,0,12.8,0.1,19.2,0.4V1886.5z"/>
				</g>
				<g>
					<path class="st19" d="M1048.3,1953.9c0,5.6,0.4,11.3,1.4,16.8c0.9,4.9,2.2,9.8,3.9,14.5c5.1,13.9,13.4,24.4,24.7,31.4
						s24.2,10.5,38.5,10.5c11.1,0,22.2-1.6,32.9-4.7c10.6-3.1,21.8-8,33.5-14.7l15.7,26.5c-14.2,9.7-28.4,17-42.8,21.7
						c-14.4,4.7-29.5,7.1-44.6,7.1c-14.6,0-28.1-2.4-40.6-7.3c-12.2-4.7-23.2-12.1-32.1-21.7c-9-9.6-16-21.6-21.1-35.9
						c-5.1-14.3-7.6-31-7.6-50.1c-0.1-14.8,2.1-29.6,6.5-43.7c4.3-13.7,10.7-25.7,19.3-35.9c8.7-10.3,19.6-18.6,31.8-24.3
						c12.7-6,27.4-9,44.2-9c16.3,0,29.9,2.5,40.8,7.4c10.9,4.9,19.8,11.5,26.7,19.6c6.9,8.2,12.2,17.7,15.6,27.9
						c3.5,10.4,6,21,7.4,31.9c0.7,5.3,1.1,10.6,1.4,16.1c0.2,5.4,0.3,10.7,0.3,15.9L1048.3,1953.9z M1109,1867.7
						c-9,0-16.9,1.3-23.7,3.9c-6.5,2.4-12.3,6.2-17.2,11.1c-4.9,5.1-8.8,11-11.4,17.6c-3,7.5-5.1,15.4-6.4,23.4h112
						c-0.5-7.6-1.8-15.1-3.9-22.3c-1.8-6.5-5-12.5-9.3-17.7c-4.3-5.1-9.8-9.1-16.1-11.7C1126.6,1869.1,1118.6,1867.7,1109,1867.7
						L1109,1867.7z"/>
				</g>
				<g>
					<path class="st19" d="M1399,2021.1h30.5v-98.7c0-16.6-4.2-29.1-12.6-37.7c-8.4-8.6-20.5-12.8-36.2-12.8c-9,0-18.2,2.2-27.3,6.5
						c-9.3,4.4-18,9.8-26.1,16.1v126.7h30.5v35.9h-101v-35.9h30v-144.4h-30v-35.9h68.8v25.5h0.4c4.7-4.1,9.6-7.9,14.7-11.5
						c5.2-3.6,10.7-6.7,16.4-9.4c5.7-2.7,11.7-4.8,17.8-6.3c6.4-1.6,12.9-2.3,19.5-2.3c11.5,0,22,1.6,31.3,4.8
						c8.9,3,17.1,8,23.8,14.6c6.5,6.5,11.6,14.9,15.1,25.1c3.5,10.2,5.3,22.3,5.4,36.2v103.5h30v35.9h-101V2021.1z"/>
				</g>
				<g>
					<path class="st19" d="M1525,1840.8h74.7v35.9h-20.2l53.4,149l52.1-149h-13.1v-35.9h68.4v35.9h-18.6l-70.7,183.7h-38.4
						l-70.5-183.7H1525V1840.8z"/>
				</g>
			</g>
		</g>
	</g>
	<g>
		<path class="st20" d="M1261.5,2911L1,2184.1L0,728.6L1259.5,0l11.9,6.9l1248.6,720l1,1455.5L1261.5,2911z M48.7,2156.5
			l1212.7,699.3l1211.8-701l-0.9-1400.3L1259.6,55.2L47.8,756.2L48.7,2156.5z"/>
	</g>
</g>
</svg>
