<svg id="Layer_1" data-name="Layer 1" xmlns="http://www.w3.org/2000/svg" xmlns:xlink="http://www.w3.org/1999/xlink" viewBox="0 0 735 852"><defs><style>.cls-1{fill:#ba6f38;}.cls-2{clip-path:url(#clip-path);}.cls-3{fill:#136c38;}.cls-4{opacity:0.25;fill:url(#linear-gradient);}.cls-5{fill:#e6b35a;}.cls-6{font-size:160px;letter-spacing:-0.04em;}.cls-11,.cls-17,.cls-6{fill:#fff;}.cls-11,.cls-6{font-family:MyriadPro-Regular, Myriad Pro;}.cls-7{letter-spacing:-0.03em;}.cls-8{letter-spacing:-0.03em;}.cls-9{fill:#298f4d;}.cls-10{fill:#005629;}.cls-11{font-size:25px;}.cls-12{letter-spacing:0.01em;}.cls-13{letter-spacing:-0.04em;}.cls-14{letter-spacing:-0.02em;}.cls-15{letter-spacing:-0.01em;}.cls-16{letter-spacing:0em;}.cls-18{fill:#79563b;}.cls-19{fill:#141111;}.cls-20{fill:#36a85d;}.cls-21{fill:#94111d;}</style><clipPath id="clip-path"><polygon class="cls-1" points="369.51 7.4 728.21 214.47 728.21 636.62 369.51 845.03 2.79 636.62 2.79 214.47 369.51 7.4"/></clipPath><linearGradient id="linear-gradient" x1="367.33" y1="-121.12" x2="368.63" y2="342.4" gradientUnits="userSpaceOnUse"><stop offset="0" stop-color="#fff" stop-opacity="0.83"/><stop offset="0.56" stop-color="#fff" stop-opacity="0.37"/><stop offset="1" stop-color="#fff" stop-opacity="0"/></linearGradient></defs><title> </title><polygon class="cls-1" points="369.51 7.4 728.21 214.47 728.21 636.62 369.51 845.03 2.79 636.62 2.79 214.47 369.51 7.4"/><g class="cls-2"><circle class="cls-3" cx="365.5" cy="437.45" r="442.13"/><ellipse class="cls-4" cx="367.97" cy="107.08" rx="315.24" ry="234.63"/></g><path class="cls-5" d="M367,633.9c.29-.29.6-.59.93-.89h-.26Z"/><text class="cls-6" transform="translate(167.1 618.45)">r<tspan class="cls-7" x="45.6" y="0">ep</tspan><tspan x="206.56" y="0">r</tspan><tspan class="cls-8" x="252.16" y="0">e</tspan><tspan class="cls-7" x="326.72" y="0">x</tspan></text><path class="cls-9" d="M705.61,196.21,427.81,35.82,367.5,1,307.19,35.82,29.37,196.22.09,213.13V637.38l29.28,16.91,281.28,162.4,56.85,32.82,56.85-32.82L705.61,654.3l29.3-16.92V213.13Zm0,425.26L367.49,816.68,29.37,621.47V231L367.49,35.82h0L705.61,231Z"/><path class="cls-10" d="M705.61,196.21,427.81,35.82,367.5,1,307.19,35.82,29.37,196.22.09,213.13V637.38l29.28,16.91,281.28,162.4,56.85,32.82,56.85-32.82L705.61,654.3l29.3-16.92V213.13Zm0,425.26L367.49,816.68,29.37,621.47V231L367.49,35.82h0L705.61,231Z"/><text class="cls-11" transform="matrix(0.86, -0.5, 0.5, 0.86, 369.28, 809.1)"><tspan class="cls-12">ww</tspan><tspan class="cls-13" x="37.4" y="0">w</tspan><tspan x="54.82" y="0">.rstudi</tspan><tspan class="cls-14" x="120.07" y="0">o</tspan><tspan x="133.2" y="0">.</tspan><tspan class="cls-15" x="138.37" y="0">c</tspan><tspan class="cls-16" x="149.42" y="0">om</tspan></text><path class="cls-9" d="M495.22,370.34c4.5-.35,9-.71,13.5-1.1-3.53,16.62-6.29,33.62-8.75,50.07-2.74,18.27-4.88,36.59-6.65,55-.15,1.49-.3,3-.44,4.5-1.46,2-2.9,3.94-4.34,6-19.24-3.36-38.55-6.06-57.77-8.94q-43.44-6.47-86.94-12.22C285.93,456,228,446.44,170,441.57c-19.36-1.64-38.74-3.48-58.11-5,.49-11.41.89-22.82,1.3-34.25q.59-16.52,1-33,13.42,1.68,26.88,3.09c1,.1,1.94.21,2.9.29,1.16.12,2.32.23,3.48.33,108.39,10.85,218.19,8.28,327.27-1q8.55-.72,17.14-1.39C493,370.52,494.1,370.44,495.22,370.34Z"/><path class="cls-9" d="M600.79,315.14c5,1.08,9.09,9.87,9,18.4a27.05,27.05,0,0,1-5.4,16.49s0,0,0,0c-11,11.49-21.87,23.23-32.7,35.1-25.87,28.36-51.85,57.48-75.88,89.71,2.67-18.67,5.9-37.15,9.38-55.38,3.27-17.13,7.27-34,11.14-50.92q1.17-5.1,2.32-10.23a3.11,3.11,0,0,0,.67-.35s0,0,0,0q26.36-13.57,52.66-27.44l8-4.23,1.6-.85c4.08-2.16,8.14-4.36,12.22-6.55l-.18.31c-.05.1,0,.23.1.15s.29-.44.42-.64c2.21-1.18,4.4-2.36,6.61-3.59Z"/><path class="cls-17" d="M575.11,321.43l-5.59,3.24q-25,14.56-49.93,29.37l-1.77,1.06c-2.11,1.24-4.23,2.51-6.35,3.78h0a2.93,2.93,0,0,1-.42,0c-8,.91-16.09,1.76-24.12,2.49q-48,4.32-96,6.43c-64,2.7-127.94,3.71-191.75,1.06-17.13-.71-34.27-1.2-51.41-1.66a77.8,77.8,0,0,1,8.51-9.85,119.61,119.61,0,0,1,25.92-18.88,80.18,80.18,0,0,1,34.35-9.62c-6.37,4-12.64,8.34-18.76,13,0,0,0,.15,0,.12,10.27-3.88,20.43-8.36,30.54-13.11,2.39-1.12,4.76-2.26,7.14-3.4,8.7-4.15,17.38-8.44,26.08-12.59h0c5.32-2.53,10.65-5,16-7.43h0c1.65-.75,3.31-1.47,5-2.2q20.68-9,41.52-17.09c5.58-2.16,11.22-4.11,16.84-6.18a128.79,128.79,0,0,1,27.82,15.1,160.8,160.8,0,0,1,15.84,12.51c2.56,2.3,5.1,4.75,7.57,7.41.55.52,1.08,1.1,1.61,1.68.25.27.5.54.75.83a3.62,3.62,0,0,0,.27.29c7.61,8.55,14.24,18.81,21.93,27.24,1.58,1.74,3.44-1.58,2.56-3.9A96.4,96.4,0,0,0,406,317.44h0c-.74-1-1.5-2-2.28-2.92,1.95-.71,3.91-1.41,5.86-2.05s3.94-1.27,5.9-1.85c4.35-1.24,8.71-2.41,13.08-3.55h0c9.05-2.34,18.12-4.58,27.15-7.24,19.17-5.64,38.41-10.56,57.62-15.72h0c7.92,4.07,15.76,8.55,23.66,13.17,2.75,1.6,5.55,3,8.36,4.42a161.34,161.34,0,0,1,16,8.55c1.3.81,2.56,1.68,3.83,2.63A103.31,103.31,0,0,1,575.11,321.43Z"/><path d="M623.58,295.41q-1.49,0-3,.12h0c-18.16.71-36.38,2.7-54.57,4.42-5-3.24-10.21-5.89-15.22-8.82q-3.64-2.15-7.3-4.23c-.85-.62-1.7-1.2-2.56-1.76a86,86,0,0,0-10.51-5.75,87.77,87.77,0,0,0-9.49-3.78h0q-10.17.78-20.22,2.41h0a350.35,350.35,0,0,0-47,11.06c-13.74,4.17-27.15,10.37-40.55,16.55-1.28.6-2.58,1.18-3.89,1.76h0c-3.89.06-7.79.1-11.67.15a135.48,135.48,0,0,0-26.37-21.61,92.15,92.15,0,0,0-20.71-9.65,90.87,90.87,0,0,0-15.35-3.48h0c-2.6,1-5.21,2-7.8,3.07h0l-2.3.91q-22.09,8.65-43.92,18.71c-6.52,3-13.08,6-19.65,9.17q-12.41-.72-24.83-1.29h0c-4.31-.19-8.6-.37-12.91-.58h0c-3.55,1.8-7.08,3.63-10.62,5.48Q190.55,319.88,168.12,332c-17.89,9.69-35.83,19.25-53.7,29.16l-4.27,2.36c-.08.87-.15,1.74-.2,2.63s-.14,1.64-.2,2.45-.15,1.87-.22,2.8q-1.15,14.37-2.2,28.79c-.87,11.93-1.76,23.83-2.52,35.76v0c-.11,1.66-.22,3.3-.33,5q3.56.72,7.1,1.37c43.8,8.21,87.78,14.5,131.72,20.35,57.92,7.74,115.89,15.22,173.88,21.68,22.12,2.45,44.31,5.25,66.51,7.24l3.27.27c.87-.91,1.75-1.83,2.6-2.76s1.75-1.85,2.6-2.8a8.66,8.66,0,0,0,.71-.77c.56-.58,1.12-1.18,1.68-1.78,27.82-30.12,54.66-62.48,82.19-93.13,12.12-13.52,24.37-26.8,36.64-40,1.92-2.07,3.86-4.17,5.79-6.24q.94-5.69,1.8-11.41c1.25-8.42,2.41-16.84,3.63-25.1.25-1.64.48-3.3.74-4.94.05-.44.11-.85.19-1.27.3-2.12.61-4.23.94-6.33Q625,295.35,623.58,295.41Zm-467.38,62a119.62,119.62,0,0,1,25.92-18.88,80.18,80.18,0,0,1,34.35-9.62c-6.37,4-12.64,8.34-18.76,13,0,0,0,.15,0,.12,10.27-3.88,20.43-8.36,30.54-13.11,2.39-1.12,4.76-2.26,7.14-3.4,8.7-4.15,17.38-8.44,26.08-12.59h0c5.32-2.53,10.65-5,16-7.43h0c1.65-.75,3.31-1.47,5-2.2q20.68-9,41.52-17.09c5.58-2.16,11.22-4.11,16.84-6.18a128.78,128.78,0,0,1,27.82,15.1,160.77,160.77,0,0,1,15.84,12.51c2.56,2.3,5.1,4.75,7.57,7.41.55.52,1.08,1.1,1.61,1.68.25.27.5.54.75.83a3.62,3.62,0,0,0,.27.29c7.61,8.55,14.24,18.81,21.93,27.24,1.58,1.74,3.44-1.58,2.56-3.9A96.4,96.4,0,0,0,406,317.44h0c-.74-1-1.5-2-2.28-2.92,1.95-.71,3.91-1.41,5.86-2.05s3.94-1.27,5.9-1.85c4.35-1.24,8.71-2.41,13.08-3.55h0c9.05-2.34,18.12-4.58,27.15-7.24,19.17-5.64,38.41-10.56,57.62-15.72h0c7.92,4.07,15.76,8.55,23.66,13.17,2.75,1.6,5.55,3,8.36,4.42a161.27,161.27,0,0,1,16,8.55c1.3.81,2.56,1.68,3.83,2.63a103.31,103.31,0,0,1,10,8.55l-5.59,3.24q-25,14.56-49.93,29.37l-1.77,1.06c-2.11,1.24-4.23,2.51-6.35,3.78h0a2.93,2.93,0,0,1-.42,0c-8,.91-16.09,1.76-24.12,2.49q-48,4.32-96,6.43c-64,2.7-127.94,3.71-191.75,1.06-17.13-.71-34.27-1.2-51.41-1.66A77.83,77.83,0,0,1,156.21,357.37ZM492.88,478.82c-1.46,2-2.9,3.94-4.34,6-19.24-3.36-38.55-6.06-57.77-8.94q-43.44-6.47-86.94-12.22C285.93,456,228,446.44,170,441.57c-19.36-1.64-38.74-3.48-58.11-5,.49-11.41.89-22.82,1.3-34.25q.59-16.52,1-33,13.42,1.68,26.88,3.09c1,.1,1.94.21,2.9.29,1.16.12,2.32.23,3.48.33,108.39,10.85,218.19,8.28,327.27-1q8.55-.72,17.14-1.39c1.12-.08,2.24-.17,3.35-.27,4.5-.35,9-.71,13.5-1.1-3.53,16.62-6.29,33.62-8.75,50.07-2.74,18.27-4.88,36.59-6.65,55C493.16,475.81,493,477.33,492.88,478.82ZM604.43,350s0,0,0,0c-11,11.49-21.87,23.23-32.7,35.1-25.87,28.36-51.85,57.48-75.88,89.71,2.67-18.67,5.9-37.15,9.38-55.38,3.27-17.13,7.27-34,11.14-50.92.78-3.4,1.55-6.8,2.32-10.23a3.11,3.11,0,0,0,.67-.35s0,0,0,0q26.36-13.57,52.66-27.44l8-4.23,1.6-.85c4.08-2.16,8.14-4.36,12.22-6.55l-.18.31c-.05.1,0,.23.1.15s.29-.44.42-.64c2.21-1.18,4.4-2.36,6.61-3.59h0c5,1.08,9.09,9.87,9,18.4A27.05,27.05,0,0,1,604.43,350Z"/><path class="cls-18" d="M476.57,337.07c2.38-.81,1.13-4.5-1.25-3.7S474.19,337.88,476.57,337.07Z"/><path class="cls-18" d="M467,336.19c2.38-.81,1.13-4.5-1.25-3.7S464.62,337,467,336.19Z"/><path class="cls-18" d="M470.43,343.27c2.38-.81,1.13-4.5-1.25-3.7S468,344.08,470.43,343.27Z"/><path class="cls-18" d="M461.17,343.31a2,2,0,0,0-1.25-3.7C457.54,340.42,458.79,344.12,461.17,343.31Z"/><path class="cls-18" d="M484.88,309.88a2,2,0,0,0-1.25-3.7A2,2,0,0,0,484.88,309.88Z"/><path class="cls-18" d="M471.94,314.26a2,2,0,0,0-1.25-3.69C468.3,311.37,469.55,315.07,471.94,314.26Z"/><path class="cls-18" d="M477.24,305.59a2,2,0,0,0-1.25-3.7C473.61,302.71,474.86,306.4,477.24,305.59Z"/><path class="cls-18" d="M494.88,294.82a2,2,0,0,0-1.25-3.7C491.25,291.93,492.5,295.63,494.88,294.82Z"/><path class="cls-18" d="M508.39,324.58a2,2,0,0,0-1.25-3.7C504.76,321.69,506,325.39,508.39,324.58Z"/><path class="cls-18" d="M519.48,320.83c2.38-.81,1.13-4.51-1.25-3.7S517.1,321.63,519.48,320.83Z"/><path class="cls-18" d="M519.51,327c2.38-.81,1.13-4.5-1.25-3.7S517.13,327.8,519.51,327Z"/><path class="cls-18" d="M529.19,329.22a2,2,0,0,0-1.25-3.7A2,2,0,0,0,529.19,329.22Z"/><path class="cls-18" d="M547.64,316.79a2,2,0,0,0-1.25-3.7A2,2,0,0,0,547.64,316.79Z"/><path class="cls-18" d="M544.32,311a2,2,0,0,0-1.25-3.7A2,2,0,0,0,544.32,311Z"/><path class="cls-18" d="M536.53,316.43c2.38-.81,1.13-4.51-1.25-3.7S534.15,317.24,536.53,316.43Z"/><path class="cls-18" d="M541.29,322.37c2.38-.81,1.13-4.5-1.25-3.7S538.91,323.18,541.29,322.37Z"/><path class="cls-18" d="M532.24,322c2.38-.81,1.13-4.5-1.25-3.7S529.86,322.81,532.24,322Z"/><path class="cls-18" d="M528.9,312.15c2.38-.81,1.13-4.5-1.25-3.7S526.52,313,528.9,312.15Z"/><path class="cls-18" d="M535.06,310.06c2.38-.81,1.13-4.5-1.25-3.7A2,2,0,0,0,535.06,310.06Z"/><path class="cls-18" d="M509.12,304.42c2.38-.81,1.13-4.5-1.25-3.7S506.74,305.23,509.12,304.42Z"/><path class="cls-18" d="M520.22,302.72c2.38-.81,1.13-4.5-1.25-3.7S517.84,303.53,520.22,302.72Z"/><path class="cls-18" d="M496.82,312.71a2,2,0,0,0-1.25-3.7A2,2,0,0,0,496.82,312.71Z"/><path class="cls-18" d="M499.38,332.44a2,2,0,0,0-1.25-3.7A2,2,0,0,0,499.38,332.44Z"/><path class="cls-18" d="M503.79,351.55c2.38-.81,1.13-4.51-1.25-3.7S501.4,352.35,503.79,351.55Z"/><path class="cls-18" d="M519.2,348.39c2.38-.81,1.13-4.5-1.25-3.7S516.81,349.2,519.2,348.39Z"/><path class="cls-18" d="M436.13,321.72c2.38-.81,1.13-4.5-1.25-3.7S433.75,322.53,436.13,321.72Z"/><path class="cls-18" d="M426.57,320.84c2.38-.81,1.13-4.5-1.25-3.7S424.18,321.65,426.57,320.84Z"/><path class="cls-18" d="M430,327.92c2.38-.81,1.13-4.5-1.25-3.7S427.61,328.73,430,327.92Z"/><path class="cls-18" d="M420.74,328a2,2,0,0,0-1.25-3.7C417.1,325.07,418.36,328.77,420.74,328Z"/><path class="cls-18" d="M488.75,313.87a2,2,0,0,0-1.25-3.7A2,2,0,0,0,488.75,313.87Z"/><path class="cls-18" d="M458.94,317.09a2,2,0,0,0-1.25-3.7A2,2,0,0,0,458.94,317.09Z"/><path class="cls-18" d="M463.35,336.2c2.38-.81,1.13-4.51-1.25-3.7S461,337,463.35,336.2Z"/><path class="cls-18" d="M478.76,333c2.38-.81,1.13-4.5-1.25-3.7S476.38,333.85,478.76,333Z"/><path class="cls-18" d="M367.48,336.18c2.38-.81,1.13-4.5-1.25-3.7S365.09,337,367.48,336.18Z"/><path class="cls-18" d="M357.91,335.3c2.38-.81,1.13-4.5-1.25-3.7S355.53,336.1,357.91,335.3Z"/><path class="cls-18" d="M361.34,342.38c2.38-.81,1.13-4.5-1.25-3.7S359,343.18,361.34,342.38Z"/><path class="cls-18" d="M352.08,342.42a2,2,0,0,0-1.25-3.7C348.45,339.53,349.7,343.23,352.08,342.42Z"/><path class="cls-18" d="M420.1,328.32a2,2,0,0,0-1.25-3.7A2,2,0,0,0,420.1,328.32Z"/><path class="cls-18" d="M390.29,331.55a2,2,0,0,0-1.25-3.7A2,2,0,0,0,390.29,331.55Z"/><path class="cls-18" d="M394.69,350.66c2.38-.81,1.13-4.51-1.25-3.7S392.31,351.46,394.69,350.66Z"/><path class="cls-18" d="M410.11,347.5c2.38-.81,1.13-4.5-1.25-3.7S407.72,348.31,410.11,347.5Z"/><path class="cls-18" d="M561.83,316.11a2,2,0,0,0-.45,3.45,29.74,29.74,0,0,1,3-1.35A1.94,1.94,0,0,0,561.83,316.11Z"/><path class="cls-18" d="M426,342.86a2,2,0,0,0-1.25-3.7A2,2,0,0,0,426,342.86Z"/><path class="cls-18" d="M420.42,338.57c2.38-.81,1.13-4.51-1.25-3.7S418,339.37,420.42,338.57Z"/><path class="cls-18" d="M413.28,349.91c2.38-.81,1.13-4.5-1.25-3.7S410.9,350.72,413.28,349.91Z"/><path class="cls-18" d="M420.52,360.32a2,2,0,0,0-2.47-2.41,1.93,1.93,0,0,0-.82,3.1Z"/><path class="cls-18" d="M421.1,350.7c2.38-.81,1.13-4.5-1.25-3.7S418.71,351.5,421.1,350.7Z"/><path class="cls-18" d="M429.13,352.1c2.38-.81,1.13-4.51-1.25-3.7S426.74,352.91,429.13,352.1Z"/><path class="cls-18" d="M405.1,360.23c2.38-.81,1.13-4.51-1.25-3.7S402.72,361,405.1,360.23Z"/><path class="cls-18" d="M398.65,345.25c2.38-.81,1.13-4.5-1.25-3.7S396.27,346.05,398.65,345.25Z"/><path class="cls-18" d="M377.32,357.28c2.38-.81,1.13-4.5-1.25-3.7S374.94,358.08,377.32,357.28Z"/><path class="cls-18" d="M390,364.6a1.84,1.84,0,0,0-2.39-1.2,1.77,1.77,0,0,0-1.23,1.31Z"/><path class="cls-18" d="M392.95,356.79c2.38-.81,1.13-4.5-1.25-3.7S390.56,357.6,392.95,356.79Z"/><path class="cls-18" d="M354.09,359.64c2.38-.81,1.13-4.5-1.25-3.7S351.7,360.45,354.09,359.64Z"/><path class="cls-18" d="M339.65,365.89a1.84,1.84,0,0,0-2.41-1.23A1.77,1.77,0,0,0,336,366Z"/><path class="cls-18" d="M330.08,366.13a1.89,1.89,0,0,0-2.5-1.63,1.78,1.78,0,0,0-1.28,1.72Z"/><path class="cls-18" d="M326.32,360.8c2.38-.81,1.13-4.51-1.25-3.7A2,2,0,0,0,326.32,360.8Z"/><path class="cls-18" d="M337.83,358.28c2.38-.81,1.13-4.5-1.25-3.69A2,2,0,0,0,337.83,358.28Z"/><path class="cls-18" d="M291,361.79a2,2,0,0,0-1.25-3.7C287.32,358.9,288.57,362.6,291,361.79Z"/><path class="cls-18" d="M280.58,367.89a1.82,1.82,0,0,0-2.35-1.1,1.77,1.77,0,0,0-1.22,1.29Z"/><path class="cls-18" d="M256.4,369.46l2-.15c1.67-1.12.45-4.19-1.75-3.45A2,2,0,0,0,256.4,369.46Z"/><path class="cls-18" d="M272,364.76a2,2,0,0,0-1.25-3.7C268.41,361.87,269.66,365.56,272,364.76Z"/><path class="cls-18" d="M281,354.84c2.38-.81,1.13-4.5-1.25-3.7A2,2,0,0,0,281,354.84Z"/><path class="cls-18" d="M283.13,361a2,2,0,0,0-1.25-3.7C279.5,358.11,280.75,361.81,283.13,361Z"/><path class="cls-18" d="M292.4,367.33a2,2,0,0,0-2.46-2.45,1.86,1.86,0,0,0-1.1,2.61Z"/><path class="cls-18" d="M297.13,363.82c2.38-.81,1.13-4.5-1.25-3.7S294.75,364.63,297.13,363.82Z"/><path class="cls-18" d="M294.41,353.75c2.38-.81,1.13-4.5-1.25-3.7S292,354.56,294.41,353.75Z"/><path class="cls-18" d="M306.34,354.52c2.38-.81,1.13-4.5-1.25-3.7S304,355.33,306.34,354.52Z"/><path class="cls-18" d="M305.7,348.56c2.38-.81,1.13-4.5-1.25-3.7S303.32,349.37,305.7,348.56Z"/><path class="cls-18" d="M306.07,339.51a2,2,0,0,0-1.25-3.7C302.43,336.62,303.69,340.31,306.07,339.51Z"/><path class="cls-18" d="M318.62,340.07c2.38-.81,1.13-4.51-1.25-3.7A2,2,0,0,0,318.62,340.07Z"/><path class="cls-18" d="M320.3,347.05a2,2,0,0,0-1.25-3.7C316.66,344.16,317.91,347.86,320.3,347.05Z"/><path class="cls-18" d="M338.58,342.23a2,2,0,0,0-1.25-3.7A2,2,0,0,0,338.58,342.23Z"/><path class="cls-18" d="M329.7,334.26c2.38-.81,1.13-4.5-1.25-3.7S327.32,335.06,329.7,334.26Z"/><path class="cls-18" d="M328.5,340.84c2.38-.81,1.13-4.5-1.25-3.7S326.11,341.65,328.5,340.84Z"/><path class="cls-18" d="M170.24,353.24a2,2,0,0,0,0,3.9A2,2,0,0,0,170.24,353.24Z"/><path class="cls-18" d="M186.5,345.43a2,2,0,0,0,0,3.9A2,2,0,0,0,186.5,345.43Z"/><path class="cls-18" d="M178,342.18a2,2,0,0,0,0,3.9A2,2,0,0,0,178,342.18Z"/><path class="cls-18" d="M178.7,349.34a2,2,0,0,0,0,3.9A2,2,0,0,0,178.7,349.34Z"/><path class="cls-18" d="M190.4,340.23a2,2,0,0,0,0,3.9A2,2,0,0,0,190.4,340.23Z"/><path class="cls-18" d="M201.46,341.53a2,2,0,0,0,0,3.9A2,2,0,0,0,201.46,341.53Z"/><path class="cls-18" d="M191.05,352.59a2,2,0,0,0,0,3.9A2,2,0,0,0,191.05,352.59Z"/><path class="cls-18" d="M227.48,344.13a2,2,0,0,0,0,3.9A2,2,0,0,0,227.48,344.13Z"/><path class="cls-18" d="M215.12,340.23a2,2,0,0,0,0,3.9A2,2,0,0,0,215.12,340.23Z"/><path class="cls-18" d="M221.62,334.38a2,2,0,0,0,0,3.9A2,2,0,0,0,221.62,334.38Z"/><path class="cls-18" d="M230.73,334.38a2,2,0,0,0,0,3.9A2,2,0,0,0,230.73,334.38Z"/><path class="cls-18" d="M235.93,346.08a2,2,0,0,0,0,3.9A2,2,0,0,0,235.93,346.08Z"/><path class="cls-18" d="M222.27,350a2,2,0,0,0,0,3.9A2,2,0,0,0,222.27,350Z"/><path class="cls-18" d="M245,331.12a2,2,0,0,0,0,3.9A2,2,0,0,0,245,331.12Z"/><path class="cls-18" d="M257.4,323.32a2,2,0,0,0,0,3.9A2,2,0,0,0,257.4,323.32Z"/><path class="cls-18" d="M249.59,324a2,2,0,0,0,0,3.9A2,2,0,0,0,249.59,324Z"/><path class="cls-18" d="M273.66,322.67a2,2,0,0,0,0,3.9A2,2,0,0,0,273.66,322.67Z"/><path class="cls-18" d="M263.25,323.32a2,2,0,0,0,0,3.9A2,2,0,0,0,263.25,323.32Z"/><path class="cls-18" d="M271.71,315.52a2,2,0,0,0,0,3.9A2,2,0,0,0,271.71,315.52Z"/><path class="cls-18" d="M260.65,335a2,2,0,0,0,0,3.9A2,2,0,0,0,260.65,335Z"/><path class="cls-18" d="M250.89,342.83a2,2,0,0,0,0,3.9A2,2,0,0,0,250.89,342.83Z"/><path class="cls-18" d="M228.78,354.54a2,2,0,0,0,0,3.9A2,2,0,0,0,228.78,354.54Z"/><path class="cls-18" d="M235.52,369.37a2,2,0,0,0-1.54-3.12,1.93,1.93,0,0,0-1.73,2.76Z"/><path class="cls-18" d="M222.19,368a1.82,1.82,0,0,0-1.87-1.76,1.79,1.79,0,0,0-1.82,1.43Z"/><path class="cls-18" d="M304.88,295.35a2,2,0,0,0,0,3.9A2,2,0,0,0,304.88,295.35Z"/><path class="cls-18" d="M325.69,307.06a2,2,0,0,0,0,3.9A2,2,0,0,0,325.69,307.06Z"/><path class="cls-18" d="M318.54,299.26a2,2,0,0,0,0,3.9A2,2,0,0,0,318.54,299.26Z"/><path class="cls-18" d="M310.08,301.21a2,2,0,0,0,0,3.9A2,2,0,0,0,310.08,301.21Z"/><path class="cls-18" d="M312.68,294.7a2,2,0,0,0,0,3.9A2,2,0,0,0,312.68,294.7Z"/><path class="cls-18" d="M331.54,291.45a2,2,0,0,0,0,3.9A2,2,0,0,0,331.54,291.45Z"/><path class="cls-18" d="M348.46,298.6a2,2,0,0,0,0,3.9A2,2,0,0,0,348.46,298.6Z"/><path class="cls-18" d="M351.06,284.94a2,2,0,0,0,0,3.9A2,2,0,0,0,351.06,284.94Z"/><path class="cls-18" d="M353,294.05a2,2,0,0,0,0,3.9A2,2,0,0,0,353,294.05Z"/><path class="cls-18" d="M343.9,294.05a2,2,0,0,0,0,3.9A2,2,0,0,0,343.9,294.05Z"/><path class="cls-18" d="M337.4,305.11a2,2,0,0,0,0,3.9A2,2,0,0,0,337.4,305.11Z"/><path class="cls-18" d="M305.53,330.48a2,2,0,0,0,0,3.9A2,2,0,0,0,305.53,330.48Z"/><path class="cls-18" d="M298.37,322.67a2,2,0,0,0,0,3.9A2,2,0,0,0,298.37,322.67Z"/><path class="cls-18" d="M292.52,318.12a2,2,0,0,0,0,3.9A2,2,0,0,0,292.52,318.12Z"/><path class="cls-18" d="M311.38,314.86a2,2,0,0,0,0,3.9A2,2,0,0,0,311.38,314.86Z"/><path class="cls-18" d="M317.24,328.52a2,2,0,0,0,0,3.9A2,2,0,0,0,317.24,328.52Z"/><path class="cls-18" d="M348.46,310.31a2,2,0,0,0,0,3.9A2,2,0,0,0,348.46,310.31Z"/><path class="cls-18" d="M355,308.36a2,2,0,0,0,0,3.9A2,2,0,0,0,355,308.36Z"/><path class="cls-18" d="M355,300.55a2,2,0,0,0,0,3.9A2,2,0,0,0,355,300.55Z"/><path class="cls-18" d="M372.52,299.9a2,2,0,0,0,0,3.9A2,2,0,0,0,372.52,299.9Z"/><path class="cls-18" d="M356.91,289.5a2,2,0,0,0,0,3.9A2,2,0,0,0,356.91,289.5Z"/><path class="cls-18" d="M361.46,293.4a2,2,0,0,0,0,3.9A2,2,0,0,0,361.46,293.4Z"/><path class="cls-18" d="M379,303.16a2,2,0,0,0,0,3.9A2,2,0,0,0,379,303.16Z"/><path class="cls-18" d="M373.82,312.91a2,2,0,0,0,0,3.9A2,2,0,0,0,373.82,312.91Z"/><path class="cls-19" d="M386.23,210.54a1.11,1.11,0,0,0-1.4.62c-5,10.21-6,20.06,1.07,29.52-5.31,10-25.93,50.36-31,60.77a83.94,83.94,0,0,0-10.79-5.54,16.27,16.27,0,0,0-5.47-1.32c-1.05-.09-4.82-.28-7.66,1.58-3.25,2.14-5.63,6.54-7.27,9.8-2.35,4.67-7.66,15.91-10.29,21.82,22.68.3,46.42,2.55,65.42,14a130.34,130.34,0,0,0,6.49-15.11c2.93-8.39-6.81-12.45-12.71-15.62-1.42-.77-4.25-2.28-4.23-2.32l31-61.51c4.63.17,11-1.17,15.52-5.27,5-4.46,8.27-12.32,8.07-12.59C420.84,226.54,393,212.87,386.23,210.54Zm8.87,28.24c-5.25-2.3-6.8-11.74-4.52-18.35l22.65,11.43C409.85,238.88,402.37,242,395.11,238.78Z"/><path class="cls-9" d="M373.59,338.88c1.46-4,3.22-8.51,2.88-12.72-.44-5.47-4.25-7.58-8.47-10.21-3.49-2.17-17.84-10.17-20.63-11.45s-9-5-15.29,2.92c-5,6.32-11.3,14.82-15.22,20.43C336.43,328.29,356.56,330.44,373.59,338.88Z"/><path class="cls-9" d="M335.38,302.16a10.22,10.22,0,0,1,9.08-.72,93.78,93.78,0,0,1,12.29,6.07c5.36,3,12,6.56,16.11,9.35,2.83,1.92,4.69,3.77,5.25,7.3.74,4.62-.68,9.17-2.17,13.5l-.7,2.05c.66.35,1.31.69,2,1.06,1.26-2.54,2.47-5.1,3.6-7.69,1.55-3.57,5.39-10,1.77-13.43-3.08-2.9-7.06-5-10.79-7-8.1-4.21-16-8.57-24-13-5.77-3.18-14.43-6.06-19.61,2.18-4.65,7.4-11.82,23.83-11.82,23.83,2.59-3.63,6.35-9.06,8.94-12.64C328.06,309.28,331.06,304.42,335.38,302.16Z"/><path class="cls-9" d="M386.28,212.48c1.93,0,34.71,16.4,34.32,17.45-2.29,6.26-6.86,11.87-12.46,14.33-4.13,1.81-9.94,1.23-10.06,1.46l-31.36,62.15a1.09,1.09,0,0,0,0,.13c-3.46-1.71-6.94-3.38-10.32-5.23,4.81-9.91,25.73-51,31.4-61.62a2,2,0,0,0-.17-1.31C380.9,231,381.71,222,386.28,212.48Zm29.2,18.94c0-.25-25.1-13.53-25.61-13.36-.72-.09-2.89,7.61-2.07,12.14.73,4,3.23,8.76,6.76,10.4C402.4,244.22,411.93,239.18,415.48,231.41Z"/><path class="cls-20" d="M394.47,248.61c-1.05,2.08-25.4,50.82-26.45,52.89s-4.53-2.28-1.39-8.51c1.52-3,20-39.36,21.12-41.39C390.22,247.18,395.61,246.35,394.47,248.61Z"/><path class="cls-20" d="M360.22,333.62c5.12-5.47,10.22-11,11.73-13.11-1-1.7-10.3-6.85-10.3-6.85L336,329A130,130,0,0,1,360.22,333.62Z"/><path class="cls-21" d="M372.78,338.48l1-2.86-2.32,2.22Z"/><path class="cls-19" d="M335.21,265.9a.9.9,0,0,0-.64-.58c1.6-1.56,1.89-4.53,2-6.56.11-2.2-.44-6.16-2.84-7.76s-6-4-40.65-4.41-49.45,2.34-54.28,4c-3.48,1.2-4.28,3.24-4.28,7.49s1,7.53,1.75,8a9.49,9.49,0,0,0,2.8.78,83.77,83.77,0,0,0,3.41,8.69c1.88,10.44,9.65,49.64,13.53,65.54,7,.65,14,1,21.06-.06,8.56-1.34,16.73-3.77,25.48-4A75.28,75.28,0,0,1,320.9,339c.15-1.33.14-2.77.23-4.42.28-5.09,2.59-31.38,2.53-31.53a50.1,50.1,0,0,0,6.88-6C338.49,288.34,339,276.51,335.21,265.9Zm-10.46,28.2c1.51-9.24,3.59-16.76,5-26.3C332.86,277.11,332.69,286.91,324.74,294.09Z"/><path class="cls-19" d="M257.37,292.68c-7.16-6.87-12-14.92-15.91-24.71l3.61.54a55.09,55.09,0,0,0,6.82,13,58,58,0,0,0,12.18,12.91,49.81,49.81,0,0,0,32.47,10.76c9-.25,18.27-1.53,24.82-6.15,14.37-10.12,13.56-22.73,10.12-32.32a9.48,9.48,0,0,1,1.92-.27c4,11.21,2.72,22.38-5.87,31-8.76,8.83-22.21,12.59-34.35,11.7S267.71,302.59,257.37,292.68Z"/><path class="cls-9" d="M334.44,257.7a3.84,3.84,0,0,0-.23-1.5c-.13-.56-.3-2.66-1.69-3.74-2-1.56-4.27-1.92-6.75-2.5s-15.66-1.59-20.26-1.78c-6-.24-25.54-.4-34.36,0s-20,1-23.49,1.62c-7.93,1.32-10.21,3.06-11,5.06s.05,8.14,1,9.42,18.49,5,46.84,6.09,45.87-5.15,47.6-6.15S334.63,260.21,334.44,257.7Zm-55.27.51c-15.19-.51-38.11-.94-37.57-4.41s24.33-3.88,37.7-4,21.3.12,29.32.3c4,.09,22.57,1,22.56,4.28S296.89,258.81,279.17,258.21Z"/><path class="cls-9" d="M322.79,295.4c-5.66,5.12-18.81,8.21-27.1,7.84-11-.5-23.07-3.58-31.42-11.14-8.53-7.72-12.77-12.49-17.18-23.45,0,0,13.91,3.61,37.3,3.74,36.37.21,43.72-4.81,43.72-4.81C326.24,277.45,322.68,295.22,322.79,295.4Z"/><path class="cls-9" d="M277.05,341.08c8.56-1.34,16.73-3.77,25.48-4a75.39,75.39,0,0,1,16.58,1.46c0-.12,0-.23,0-.35.28-4.1,1.72-30.93,2.55-34.13a44.29,44.29,0,0,1-24.58,7c-22.22-.35-44.08-13.38-52-31.86,1.81,9.92,9.45,48,12.94,62A79.17,79.17,0,0,0,277.05,341.08Z"/><path class="cls-20" d="M282.11,260l11,.27s.13,5.08-.1,8.26c-1.91.69-7.76,1-10.72,0C282,265.57,282.11,261.42,282.11,260Z"/><path class="cls-20" d="M293.37,301.28l-.29-27.15a61.05,61.05,0,0,1-10.7-.27c0,4.41.15,25.39.15,25.39C286.13,300,289.71,300.88,293.37,301.28Z"/><path class="cls-20" d="M293.27,338l.07-25.94a30,30,0,0,1-10.81-2v30C286.12,339.39,289.67,338.62,293.27,338Z"/><path class="cls-9" d="M317.41,338.27c.67-5.52,1.17-18,1.17-18l-10.27,17A74.57,74.57,0,0,1,317.41,338.27Z"/></svg>