<?xml version="1.0" encoding="utf-8"?>
<!-- Generator: Adobe Illustrator 22.0.1, SVG Export Plug-In . SVG Version: 6.00 Build 0)  -->
<svg version="1.1" id="Layer_1" xmlns="http://www.w3.org/2000/svg" xmlns:xlink="http://www.w3.org/1999/xlink" x="0px" y="0px"
	 viewBox="0 0 735 852" style="enable-background:new 0 0 735 852;" xml:space="preserve">
<style type="text/css">
	.st0{fill:#136C38;}
	.st1{opacity:0.25;fill:url(#SVGID_1_);enable-background:new    ;}
	.st2{fill:#005629;}
	.st3{fill:#E6B35A;}
	.st4{opacity:0.94;}
	.st5{fill:#FFFFFF;}
	.st6{fill:#298F4D;}
	.st7{fill:#79563B;}
	.st8{fill:#141111;}
	.st9{fill:#36A85D;}
	.st10{fill:#94111D;}
</style>
<polygon class="st0" points="715.1,224.7 367.5,24 367.5,24 19.8,224.7 19.8,626.2 367.5,826.9 715.1,626.2 "/>
<title>reprex</title>
<linearGradient id="SVGID_1_" gradientUnits="userSpaceOnUse" x1="366.9432" y1="-181.1201" x2="368.2432" y2="282.4" gradientTransform="matrix(1 0 0 1 0 60)">
	<stop  offset="0" style="stop-color:#FFFFFF;stop-opacity:0.83"/>
	<stop  offset="0.56" style="stop-color:#FFFFFF;stop-opacity:0.37"/>
	<stop  offset="1" style="stop-color:#FFFFFF;stop-opacity:0"/>
</linearGradient>
<path class="st1" d="M368,341.7c128.5,0,239-57.2,288.1-139.3L367.5,35.8l0,0L79.6,202C128.6,284.3,239.3,341.7,368,341.7z"/>
<path class="st2" d="M734.9,637.4V213.1l-29.3-16.9L427.8,35.8L367.5,1l-60.3,34.8L29.4,196.2L0.1,213.1v424.2l29.3,16.9
	l281.3,162.4l56.9,32.8l56.9-32.8l281.3-162.4L734.9,637.4z M29.4,621.5V231l50.2-29L367.5,35.8l0,0l288.6,166.6l49.5,28.6v390.5
	L367.5,816.7L29.4,621.5z"/>
<path class="st3" d="M367,633.9c0.3-0.3,0.6-0.6,0.9-0.9h-0.3C367.5,633.3,367.3,633.6,367,633.9z"/>
<g class="st4">
	<path class="st5" d="M178.8,565.2c0-9.1-0.2-17-0.6-24.2h12.3l0.5,15.2h0.6c3.5-10.4,12-17,21.4-17c1.3,0,2.7,0.1,4,0.5V553
		c-1.6-0.3-3.2-0.5-4.8-0.5c-9.9,0-17,7.5-18.9,18.1c-0.4,2.2-0.6,4.4-0.6,6.6v41.3h-13.9V565.2z"/>
	<path class="st5" d="M232.2,582.3c0.3,19,12.5,26.9,26.6,26.9c10.1,0,16.2-1.8,21.4-4l2.4,10.1c-5,2.2-13.4,4.8-25.8,4.8
		c-23.8,0-38.1-15.7-38.1-39s13.8-41.8,36.3-41.8c25.3,0,32,22.2,32,36.5c0,2.2-0.2,4.4-0.5,6.6L232.2,582.3z M273.5,572.2
		c0.2-9-3.7-22.9-19.5-22.9c-14.2,0-20.5,13.1-21.6,22.9H273.5z"/>
	<path class="st5" d="M299.4,566.3c0-9.9-0.3-17.9-0.6-25.3h12.6l0.6,13.3h0.3c5.8-9.4,14.9-15,27.5-15c18.7,0,32.8,15.8,32.8,39.4
		c0,27.8-17,41.6-35.2,41.6c-10.2,0-19.2-4.5-23.8-12.2h-0.3v42.1h-13.9V566.3z M313.3,586.9c0,1.9,0.3,3.9,0.6,5.8
		c2.4,9.7,11.1,16.5,21.1,16.5c14.9,0,23.5-12.2,23.5-29.9c0-15.5-8.2-28.8-23-28.8c-9.6,0-18.6,6.9-21.3,17.4
		c-0.6,1.9-0.9,3.8-1,5.8L313.3,586.9L313.3,586.9z"/>
	<path class="st5" d="M385.3,565.2c0-9.1-0.2-17-0.6-24.2H397l0.5,15.2h0.6c3.5-10.4,12-17,21.4-17c1.3,0,2.7,0.1,4,0.5V553
		c-1.6-0.3-3.2-0.5-4.8-0.5c-9.9,0-17,7.5-18.9,18.1c-0.4,2.2-0.6,4.4-0.6,6.6v41.3h-13.9L385.3,565.2L385.3,565.2z"/>
	<path class="st5" d="M438.8,582.3c0.3,19,12.5,26.9,26.6,26.9c10.1,0,16.2-1.8,21.5-4l2.4,10.1c-5,2.2-13.5,4.8-25.8,4.8
		c-23.8,0-38.1-15.7-38.1-39s13.8-41.8,36.3-41.8c25.3,0,32,22.2,32,36.5c0,2.2-0.2,4.4-0.5,6.6L438.8,582.3z M480.1,572.2
		c0.2-9-3.7-22.9-19.5-22.9c-14.2,0-20.5,13.1-21.6,22.9H480.1z"/>
	<path class="st5" d="M512,541l11,16.6c2.9,4.3,5.3,8.3,7.8,12.6h0.5c2.6-4.6,5.1-8.6,7.7-12.8l11-16.4h15.2l-26.4,37.4l27.2,40h-16
		L538.6,601c-3-4.5-5.6-8.8-8.3-13.4H530c-2.6,4.6-5.3,8.8-8.2,13.4l-11.2,17.4H495l27.5-39.5L496.4,541H512z"/>
</g>
<path class="st5" d="M365.5,797.3l4.5,4.5c1,1,1.9,1.9,2.7,2.9h0.1c-0.4-1.2-0.7-2.5-1-3.8l-1.4-6.3l1.6-0.9l4.7,4.3
	c1.1,1,2.1,2,2.9,2.9h0.1c-0.5-1.3-0.9-2.6-1.2-3.9l-1.6-6.1l1.9-1.1l2.7,12.4l-1.7,1l-4.5-4.1c-1-1-2-1.8-2.9-2.9l0,0
	c0.4,1.3,0.8,2.6,1.1,4l1.2,6l-1.7,1l-9.2-8.6L365.5,797.3z"/>
<path class="st5" d="M381.7,787.9l4.5,4.5c1,1,1.9,1.9,2.7,2.9h0.1c-0.4-1.2-0.7-2.5-1-3.8l-1.4-6.3l1.6-0.9l4.7,4.3
	c1.1,1,2.1,2,2.9,2.9h0.1c-0.5-1.3-0.9-2.6-1.2-3.9l-1.6-6.1l1.9-1.1l2.7,12.4l-1.7,1l-4.5-4.1c-1-0.9-2-1.9-2.9-2.9l0,0
	c0.4,1.3,0.8,2.6,1.1,4l1.2,6l-1.7,1l-9.3-8.7L381.7,787.9z"/>
<path class="st5" d="M397.8,778.5l4.5,4.5c1,1,1.9,1.9,2.7,2.9h0.1c-0.4-1.2-0.7-2.5-1-3.8l-1.4-6.3l1.6-0.9l4.7,4.3
	c1.1,1,2.1,2,2.9,2.9h0.1c-0.5-1.3-0.9-2.6-1.2-3.9l-1.6-6.1l1.9-1.1l2.7,12.4l-1.7,1l-4.5-4.1c-1-0.9-2-1.9-2.9-2.9l0,0
	c0.4,1.3,0.8,2.6,1.1,4l1.2,5.9l-1.7,1l-9.2-8.6L397.8,778.5z"/>
<path class="st5" d="M417.1,779.7c-0.4-0.7-0.1-1.6,0.6-2s1.6-0.1,2,0.6c0.4,0.7,0.1,1.6-0.6,2C418.5,780.8,417.6,780.5,417.1,779.7
	C417.2,779.8,417.1,779.8,417.1,779.7z"/>
<path class="st5" d="M418.5,770.8c-0.7-1.2-1.4-2.3-2-3.2l1.7-1l1.2,2h0.1c-0.4-1.5,0.2-3.2,1.6-4c0.2-0.1,0.4-0.2,0.6-0.2l1,1.8
	c-0.2,0.1-0.5,0.2-0.7,0.3c-1.3,0.8-1.8,2.5-1.1,3.9c0.1,0.3,0.3,0.6,0.4,0.9l3.2,5.6l-1.8,1.1L418.5,770.8z"/>
<path class="st5" d="M428.4,772.1c1,0,2-0.2,2.9-0.7c1.4-0.8,1.6-1.9,1.1-2.7s-1.4-1.1-3.1-0.8c-2.3,0.4-3.8-0.1-4.5-1.3
	c-1-1.7-0.4-3.9,1.8-5.2c0.9-0.5,1.9-0.8,3-0.8l0.3,1.7c-0.9,0-1.7,0.2-2.5,0.6c-0.9,0.3-1.3,1.4-1,2.3c0,0.1,0,0.1,0.1,0.2
	c0.5,0.9,1.4,0.9,3,0.6c2.2-0.4,3.7,0,4.6,1.6c1.1,1.8,0.4,4-2.1,5.4c-1,0.6-2.2,1-3.4,1L428.4,772.1z"/>
<path class="st5" d="M432.8,754.1l1.8,3l2.7-1.6l0.8,1.4l-2.7,1.6l3.3,5.6c0.8,1.3,1.5,1.8,2.6,1.2c0.4-0.2,0.7-0.5,1-0.8l0.9,1.4
	c-0.4,0.5-0.9,0.9-1.5,1.2c-0.7,0.5-1.7,0.6-2.5,0.4c-1-0.5-1.9-1.3-2.3-2.3l-3.3-5.7l-1.6,0.9l-0.8-1.4l1.6-1l-1.5-2.5L432.8,754.1
	z"/>
<path class="st5" d="M452.6,756.8c0.6,1.1,1.2,2,1.8,2.8l-1.7,1l-1.1-1.6l0,0c0,1.7-0.9,3.2-2.3,4c-1.6,1-4.1,1.2-6.3-2.5l-3.6-6.1
	l1.9-1.1l3.4,5.8c1.2,2,2.5,3,4.3,2c1.1-0.7,1.7-1.9,1.5-3.2c-0.1-0.4-0.2-0.7-0.4-1.1l-3.7-6.4l1.9-1.1L452.6,756.8z"/>
<path class="st5" d="M457.5,737.2l7.4,12.6c0.5,0.9,1.2,2,1.6,2.7l-1.7,1l-1.1-1.8l0,0c0.1,1.7-0.8,3.3-2.4,4.1
	c-2.5,1.5-5.7,0.5-7.6-2.7c-2-3.5-1.1-6.9,1.4-8.3c1.2-0.8,2.8-0.9,4.1-0.2l0,0l-3.6-6.2L457.5,737.2z M460.9,747.5
	c-0.2-0.3-0.3-0.5-0.5-0.8c-1-1.1-2.7-1.4-4-0.6c-2,1.2-2.1,3.5-0.8,5.9c1.2,2.1,3.3,3.3,5.3,2.1c1.3-0.8,2-2.4,1.5-3.9
	c-0.1-0.3-0.2-0.6-0.4-0.9L460.9,747.5z"/>
<path class="st5" d="M463.9,736.1c0.4,0.6,0.2,1.5-0.5,1.9c-0.6,0.4-1.5,0.2-1.9-0.5c-0.4-0.6-0.2-1.5,0.4-1.8c0,0,0,0,0.1,0
	C462.6,735.2,463.4,735.4,463.9,736.1C463.8,736,463.9,736,463.9,736.1z M469.6,750.7l-6.1-10.5l1.9-1.1l6.1,10.5L469.6,750.7z"/>
<path class="st5" d="M481,736.9c2.3,3.9,0.6,7.1-2,8.6c-2.8,1.6-6.2,0.8-8.1-2.5c-2-3.5-0.9-6.9,2-8.6S479.1,733.8,481,736.9z
	 M472.8,741.9c1.3,2.3,3.7,3.2,5.5,2.2s2.2-3.5,0.8-5.9c-1-1.8-3.2-3.5-5.5-2.2S471.6,739.9,472.8,741.9L472.8,741.9z"/>
<path class="st5" d="M484.9,740.3c-0.5-0.7-0.3-1.6,0.4-2c0,0,0.1,0,0.1-0.1c0.8-0.4,1.7-0.2,2.1,0.6s0.2,1.7-0.6,2.1l0,0
	C486.2,741.3,485.3,741.1,484.9,740.3C484.9,740.4,484.9,740.3,484.9,740.3z"/>
<path class="st5" d="M497.7,733.8c-0.7,1-1.6,1.8-2.6,2.3c-3.2,1.8-6.5,0.9-8.3-2.3c-1.8-2.8-1-6.6,1.8-8.5c0.2-0.1,0.4-0.2,0.6-0.3
	c0.9-0.5,1.9-0.9,3-1l0.4,1.7c-0.9,0-1.7,0.3-2.5,0.8c-2.4,1.4-2.7,3.9-1.4,6.1c1.4,2.4,3.8,3,5.9,1.8c0.8-0.5,1.5-1.1,2-1.9
	L497.7,733.8z"/>
<path class="st5" d="M506.4,722.2c2.2,3.9,0.5,7.1-2,8.6c-2.8,1.7-6.2,0.8-8.1-2.5c-2-3.5-0.9-6.9,2-8.6S504.5,719,506.4,722.2z
	 M498.1,727.1c1.3,2.3,3.6,3.2,5.5,2.2s2.2-3.5,0.8-5.9c-1-1.8-3.2-3.5-5.5-2.2S497,725.1,498.1,727.1z"/>
<path class="st5" d="M507.4,718.5c-0.6-1.1-1.2-2-1.7-2.8l1.7-1l1.1,1.6h0.1c-0.1-1.6,0.8-3.1,2.2-3.8c1.3-0.8,3-0.6,4.2,0.4l0,0
	c0-0.7,0.1-1.4,0.4-2c0.4-0.9,1-1.6,1.9-2.1c1.4-0.8,4-1.1,6.1,2.5l3.6,6.2l-1.9,1.1l-3.5-5.9c-1.2-2-2.6-2.8-4.1-1.9
	c-1,0.6-1.5,1.8-1.2,3c0.1,0.4,0.2,0.7,0.4,1l3.8,6.5l-1.8,1.1l-3.6-6.3c-1-1.7-2.4-2.5-3.9-1.6c-1.1,0.7-1.6,2-1.2,3.3
	c0.1,0.4,0.2,0.7,0.4,1l3.7,6.3l-1.9,1.1L507.4,718.5z"/>
<path class="st6" d="M495.2,370.3c4.5-0.4,9-0.7,13.5-1.1c-3.5,16.6-6.3,33.6-8.8,50.1c-2.7,18.3-4.9,36.6-6.7,55
	c-0.1,1.5-0.3,3-0.4,4.5c-1.5,2-2.9,3.9-4.3,6c-19.2-3.4-38.5-6.1-57.8-8.9c-29-4.3-57.9-8.4-86.9-12.2
	C285.9,456,228,446.4,170,441.6c-19.4-1.6-38.7-3.5-58.1-5c0.5-11.4,0.9-22.8,1.3-34.2c0.4-11,0.7-22,1-33
	c8.9,1.1,17.9,2.1,26.9,3.1c1,0.1,1.9,0.2,2.9,0.3c1.1,0.1,2.3,0.2,3.5,0.3c108.4,10.9,218.2,8.3,327.3-1c5.7-0.5,11.4-0.9,17.1-1.4
	L495.2,370.3z"/>
<path class="st6" d="M600.8,315.1c5,1.1,9.1,9.9,9,18.4c0.1,5.9-1.8,11.7-5.4,16.5l0,0c-11,11.5-21.9,23.2-32.7,35.1
	c-25.9,28.4-51.9,57.5-75.9,89.7c2.7-18.7,5.9-37.1,9.4-55.4c3.3-17.1,7.3-34,11.1-50.9c0.8-3.4,1.6-6.8,2.3-10.2
	c0.2-0.1,0.5-0.2,0.7-0.4l0,0c17.6-9,35.1-18.2,52.7-27.4l8-4.2l1.6-0.9c4.1-2.2,8.1-4.4,12.2-6.5c-0.1,0.1-0.1,0.2-0.2,0.3
	c0,0.1,0,0.2,0.1,0.1c0.1-0.2,0.3-0.4,0.4-0.6C596.3,317.5,598.5,316.3,600.8,315.1L600.8,315.1z"/>
<path class="st5" d="M575.1,321.4c-1.9,1.1-3.7,2.1-5.6,3.2c-16.7,9.7-33.3,19.5-49.9,29.4l-1.8,1.1l-6.4,3.8l0,0
	c-0.1,0-0.3,0-0.4,0c-8,0.9-16.1,1.8-24.1,2.5c-32,2.9-64,5-96,6.4c-64,2.7-127.9,3.7-191.8,1c-17.1-0.7-34.3-1.2-51.4-1.7
	c2.6-3.5,5.4-6.8,8.5-9.9c7.8-7.4,16.5-13.8,25.9-18.9c10.6-5.7,22.3-9,34.3-9.6c-6.4,4-12.6,8.3-18.8,13v0.1
	c10.3-3.9,20.4-8.4,30.5-13.1c2.4-1.1,4.8-2.3,7.1-3.4c8.7-4.1,17.4-8.4,26.1-12.6l0,0c5.3-2.5,10.6-5,16-7.4l0,0
	c1.6-0.7,3.3-1.5,5-2.2c13.8-6,27.6-11.7,41.5-17.1c5.6-2.1,11.2-4.1,16.8-6.2c9.9,3.9,19.2,8.9,27.8,15.1c5.5,3.8,10.8,8,15.8,12.5
	c2.6,2.3,5.1,4.8,7.6,7.4c0.5,0.5,1.1,1.1,1.6,1.7c0.2,0.3,0.5,0.5,0.8,0.8c0.1,0.1,0.2,0.2,0.3,0.3c7.6,8.5,14.2,18.8,21.9,27.2
	c1.6,1.7,3.4-1.6,2.6-3.9c-3.3-8.5-7.7-16.4-13.2-23.7l0,0c-0.7-1-1.5-2-2.3-2.9c2-0.7,3.9-1.4,5.9-2.1s3.9-1.3,5.9-1.8
	c4.4-1.2,8.7-2.4,13.1-3.5l0,0c9-2.3,18.1-4.6,27.1-7.2c19.2-5.6,38.4-10.6,57.6-15.7l0,0c7.9,4.1,15.8,8.5,23.7,13.2
	c2.8,1.6,5.5,3,8.4,4.4c5.5,2.5,10.8,5.4,16,8.5c1.3,0.8,2.6,1.7,3.8,2.6C568.7,315.5,572,318.4,575.1,321.4z"/>
<path d="M623.6,295.4c-1,0-2,0.1-3,0.1l0,0c-18.2,0.7-36.4,2.7-54.6,4.4c-5-3.2-10.2-5.9-15.2-8.8c-2.4-1.4-4.9-2.8-7.3-4.2
	c-0.8-0.6-1.7-1.2-2.6-1.8c-3.4-2.2-6.9-4.1-10.5-5.8c-3.1-1.4-6.3-2.7-9.5-3.8l0,0c-6.8,0.5-13.5,1.3-20.2,2.4l0,0
	c-15.9,2.6-31.6,6.3-47,11.1c-13.7,4.2-27.1,10.4-40.5,16.5c-1.3,0.6-2.6,1.2-3.9,1.8l0,0c-3.9,0.1-7.8,0.1-11.7,0.1
	c-7.8-8.3-16.7-15.6-26.4-21.6c-6.5-4.1-13.4-7.3-20.7-9.6c-5-1.6-10.1-2.8-15.4-3.5l0,0c-2.6,1-5.2,2-7.8,3.1l0,0
	c-0.8,0.3-1.5,0.6-2.3,0.9c-14.7,5.8-29.4,12-43.9,18.7c-6.5,3-13.1,6-19.6,9.2c-8.3-0.4-16.6-0.9-24.9-1.3l0,0
	c-4.3-0.2-8.6-0.4-12.9-0.6l0,0c-3.6,1.8-7.1,3.6-10.6,5.5c-15,7.7-30,15.7-44.9,23.8c-17.9,9.7-35.8,19.2-53.7,29.2l-4.3,2.4
	c-0.1,0.9-0.2,1.8-0.2,2.6s-0.1,1.6-0.2,2.5s-0.2,1.9-0.2,2.8c-0.8,9.6-1.5,19.2-2.2,28.8c-0.9,11.9-1.8,23.8-2.5,35.8l0,0
	c-0.1,1.7-0.2,3.3-0.3,5c2.4,0.5,4.7,0.9,7.1,1.4c43.8,8.2,87.8,14.5,131.7,20.3c57.9,7.7,115.9,15.3,173.8,21.7
	c22.1,2.5,44.3,5.2,66.5,7.2l3.3,0.3c0.9-0.9,1.8-1.8,2.6-2.8s1.7-1.9,2.6-2.8c0.3-0.2,0.5-0.5,0.7-0.8c0.6-0.6,1.1-1.2,1.7-1.8
	c27.8-30.1,54.7-62.5,82.2-93.1c12.1-13.5,24.4-26.8,36.6-40c1.9-2.1,3.9-4.2,5.8-6.2c0.6-3.8,1.2-7.6,1.8-11.4
	c1.3-8.4,2.4-16.8,3.6-25.1c0.2-1.6,0.5-3.3,0.7-4.9c0-0.4,0.1-0.9,0.2-1.3c0.3-2.1,0.6-4.2,0.9-6.3
	C625.5,295.4,624.5,295.4,623.6,295.4z M156.2,357.4c7.8-7.4,16.5-13.8,25.9-18.9c10.6-5.7,22.3-9,34.3-9.6c-6.4,4-12.6,8.3-18.8,13
	v0.1c10.3-3.9,20.4-8.4,30.5-13.1c2.4-1.1,4.8-2.3,7.1-3.4c8.7-4.1,17.4-8.4,26.1-12.6l0,0c5.3-2.5,10.6-5,16-7.4l0,0
	c1.6-0.7,3.3-1.5,5-2.2c13.8-6,27.6-11.7,41.5-17.1c5.6-2.1,11.2-4.1,16.8-6.2c9.9,3.9,19.2,8.9,27.8,15.1c5.5,3.8,10.8,8,15.8,12.5
	c2.6,2.3,5.1,4.8,7.6,7.4c0.5,0.5,1.1,1.1,1.6,1.7c0.2,0.3,0.5,0.5,0.8,0.8c0.1,0.1,0.2,0.2,0.3,0.3c7.6,8.5,14.2,18.8,21.9,27.2
	c1.6,1.7,3.4-1.6,2.6-3.9c-3.3-8.5-7.7-16.5-13.2-23.7l0,0c-0.7-1-1.5-2-2.3-2.9c2-0.7,3.9-1.4,5.9-2.1s3.9-1.3,5.9-1.8
	c4.4-1.2,8.7-2.4,13.1-3.5l0,0c9-2.3,18.1-4.6,27.1-7.2c19.2-5.6,38.4-10.6,57.6-15.7l0,0c7.9,4.1,15.8,8.5,23.7,13.2
	c2.8,1.6,5.5,3,8.4,4.4c5.5,2.5,10.8,5.4,16,8.5c1.3,0.8,2.6,1.7,3.8,2.6c3.5,2.6,6.9,5.5,10,8.5c-1.9,1.1-3.7,2.1-5.6,3.2
	c-16.7,9.7-33.3,19.5-49.9,29.4l-1.8,1.1c-2.1,1.2-4.2,2.5-6.4,3.8l0,0c-0.1,0-0.3,0-0.4,0c-8,0.9-16.1,1.8-24.1,2.5
	c-32,2.9-64,5-96,6.4c-64,2.7-127.9,3.7-191.8,1c-17.1-0.7-34.3-1.2-51.4-1.7C150.3,363.7,153.2,360.4,156.2,357.4L156.2,357.4z
	 M492.9,478.8c-1.5,2-2.9,3.9-4.3,6c-19.2-3.4-38.5-6-57.8-8.9c-29-4.3-57.9-8.4-86.9-12.2c-58-7.7-115.9-17.3-173.9-22.1
	c-19.4-1.6-38.7-3.5-58.1-5c0.5-11.4,0.9-22.8,1.3-34.2c0.4-11,0.7-22,1-33c8.9,1.1,17.9,2.1,26.9,3.1c1,0.1,1.9,0.2,2.9,0.3
	c1.1,0.1,2.3,0.2,3.5,0.3c108.4,10.9,218.2,8.3,327.3-1c5.7-0.5,11.4-0.9,17.1-1.4l3.4-0.3c4.5-0.4,9-0.7,13.5-1.1
	c-3.5,16.6-6.3,33.6-8.8,50.1c-2.7,18.3-4.9,36.6-6.7,55C493.2,475.8,493,477.3,492.9,478.8z M604.4,350L604.4,350
	c-11,11.5-21.9,23.2-32.7,35.1c-25.9,28.4-51.9,57.5-75.9,89.7c2.7-18.7,5.9-37.1,9.4-55.4c3.3-17.1,7.3-34,11.1-50.9
	c0.8-3.4,1.6-6.8,2.3-10.2c0.2-0.1,0.5-0.2,0.7-0.4l0,0c17.6-9,35.1-18.2,52.7-27.4l8-4.2l1.6-0.9c4.1-2.2,8.1-4.4,12.2-6.5
	c-0.1,0.1-0.1,0.2-0.2,0.3c0,0.1,0,0.2,0.1,0.1c0.1-0.2,0.3-0.4,0.4-0.6c2.2-1.2,4.4-2.4,6.6-3.6l0,0c5,1.1,9.1,9.9,9,18.4
	C609.9,339.4,608,345.2,604.4,350z"/>
<path class="st7" d="M476.6,337.1c0.9-0.6,1.2-1.8,0.7-2.7c-0.4-0.7-1.2-1-1.9-1C472.9,334.2,474.2,337.9,476.6,337.1z"/>
<path class="st7" d="M467,336.2c0.9-0.6,1.2-1.8,0.7-2.7c-0.4-0.7-1.2-1-1.9-1C463.4,333.3,464.6,337,467,336.2z"/>
<path class="st7" d="M470.4,343.3c0.9-0.6,1.2-1.8,0.7-2.7c-0.4-0.7-1.2-1-1.9-1c-0.9,0.6-1.2,1.8-0.7,2.7
	C468.9,343,469.7,343.4,470.4,343.3z"/>
<path class="st7" d="M461.2,343.3c0.9-0.6,1.2-1.8,0.6-2.8c-0.4-0.6-1.1-1-1.9-0.9C457.5,340.4,458.8,344.1,461.2,343.3z"/>
<path class="st7" d="M484.9,309.9c2.4-0.8,1.1-4.5-1.3-3.7c-0.9,0.6-1.3,1.8-0.7,2.7C483.3,309.6,484.1,310,484.9,309.9z"/>
<path class="st7" d="M471.9,314.3c0.9-0.6,1.2-1.8,0.7-2.7c-0.4-0.7-1.2-1-1.9-1c-0.9,0.6-1.2,1.8-0.7,2.7
	C470.4,314,471.2,314.3,471.9,314.3z"/>
<path class="st7" d="M477.2,305.6c2.4-0.8,1.1-4.5-1.2-3.7S474.9,306.4,477.2,305.6z"/>
<path class="st7" d="M494.9,294.8c0.9-0.6,1.2-1.8,0.7-2.7c-0.4-0.7-1.2-1-1.9-1C491.2,291.9,492.5,295.6,494.9,294.8z"/>
<path class="st7" d="M508.4,324.6c2.4-0.8,1.1-4.5-1.2-3.7S506,325.4,508.4,324.6z"/>
<path class="st7" d="M519.5,320.8c2.4-0.8,1.1-4.5-1.2-3.7c-0.9,0.6-1.2,1.8-0.7,2.7C518,320.5,518.7,320.9,519.5,320.8z"/>
<path class="st7" d="M519.5,327c2.4-0.8,1.1-4.5-1.2-3.7c-0.9,0.6-1.2,1.8-0.7,2.7C518,326.7,518.7,327.1,519.5,327z"/>
<path class="st7" d="M529.2,329.2c2.4-0.8,1.1-4.5-1.2-3.7c-0.9,0.6-1.2,1.8-0.7,2.7C527.7,328.9,528.4,329.3,529.2,329.2z"/>
<path class="st7" d="M547.6,316.8c0.9-0.6,1.2-1.8,0.7-2.7c-0.4-0.7-1.2-1-1.9-1C544,313.9,545.3,317.6,547.6,316.8z"/>
<path class="st7" d="M544.3,311c2.4-0.8,1.1-4.5-1.2-3.7S541.9,311.9,544.3,311z"/>
<path class="st7" d="M536.5,316.4c2.4-0.8,1.1-4.5-1.2-3.7S534.2,317.2,536.5,316.4z"/>
<path class="st7" d="M541.3,322.4c2.4-0.8,1.1-4.5-1.2-3.7S538.9,323.2,541.3,322.4z"/>
<path class="st7" d="M532.2,322c2.4-0.8,1.1-4.5-1.2-3.7S529.9,322.8,532.2,322z"/>
<path class="st7" d="M528.9,312.1c0.9-0.6,1.2-1.8,0.7-2.7c-0.4-0.7-1.2-1-1.9-1C525.3,309.2,526.5,313,528.9,312.1z"/>
<path class="st7" d="M535.1,310.1c0.9-0.6,1.2-1.8,0.7-2.7c-0.4-0.7-1.2-1-1.9-1C531.4,307.2,532.7,310.9,535.1,310.1z"/>
<path class="st7" d="M509.1,304.4c0.9-0.6,1.2-1.8,0.7-2.7c-0.4-0.7-1.2-1-1.9-1C505.5,301.5,506.7,305.2,509.1,304.4z"/>
<path class="st7" d="M520.2,302.7c2.4-0.8,1.1-4.5-1.2-3.7S517.8,303.5,520.2,302.7z"/>
<path class="st7" d="M496.8,312.7c2.4-0.8,1.1-4.5-1.2-3.7c-0.9,0.6-1.2,1.8-0.7,2.7C495.3,312.4,496,312.8,496.8,312.7z"/>
<path class="st7" d="M499.4,332.4c0.9-0.6,1.2-1.8,0.7-2.7c-0.4-0.7-1.2-1-1.9-1c-0.9,0.6-1.2,1.8-0.7,2.7
	C497.9,332.2,498.6,332.5,499.4,332.4z"/>
<path class="st7" d="M503.8,351.5c0.9-0.6,1.3-1.8,0.7-2.7c-0.4-0.7-1.2-1-1.9-1C500.1,348.7,501.4,352.4,503.8,351.5z"/>
<path class="st7" d="M519.2,348.4c0.9-0.6,1.2-1.8,0.7-2.7c-0.4-0.7-1.2-1-1.9-1c-0.9,0.6-1.2,1.8-0.7,2.7
	C517.7,348.1,518.4,348.5,519.2,348.4z"/>
<path class="st7" d="M436.1,321.7c2.4-0.8,1.1-4.5-1.2-3.7S433.8,322.5,436.1,321.7z"/>
<path class="st7" d="M426.6,320.8c0.9-0.6,1.2-1.8,0.6-2.8c-0.4-0.7-1.1-1-1.9-0.9C422.9,318,424.2,321.6,426.6,320.8z"/>
<path class="st7" d="M430,327.9c2.4-0.8,1.1-4.5-1.2-3.7S427.6,328.7,430,327.9z"/>
<path class="st7" d="M420.7,328c2.4-0.8,1.1-4.5-1.2-3.7S418.4,328.8,420.7,328z"/>
<path class="st7" d="M488.8,313.9c2.4-0.8,1.1-4.5-1.2-3.7c-0.9,0.6-1.2,1.8-0.7,2.7C487.2,313.6,488,314,488.8,313.9z"/>
<path class="st7" d="M458.9,317.1c2.4-0.8,1.1-4.5-1.2-3.7S456.6,317.9,458.9,317.1z"/>
<path class="st7" d="M463.4,336.2c2.4-0.8,1.1-4.5-1.2-3.7S461,337,463.4,336.2z"/>
<path class="st7" d="M478.8,333c2.4-0.8,1.1-4.5-1.2-3.7S476.4,333.9,478.8,333z"/>
<path class="st7" d="M367.5,336.2c0.9-0.6,1.2-1.8,0.7-2.7c-0.4-0.7-1.2-1-1.9-1c-0.9,0.6-1.2,1.8-0.7,2.7
	C366,335.9,366.7,336.3,367.5,336.2z"/>
<path class="st7" d="M357.9,335.3c2.4-0.8,1.1-4.5-1.2-3.7c-0.9,0.6-1.2,1.8-0.7,2.7C356.4,335,357.1,335.4,357.9,335.3z"/>
<path class="st7" d="M361.3,342.4c2.4-0.8,1.1-4.5-1.2-3.7c-0.9,0.6-1.2,1.8-0.7,2.7C359.8,342.1,360.6,342.5,361.3,342.4z"/>
<path class="st7" d="M352.1,342.4c0.9-0.6,1.2-1.8,0.7-2.7c-0.4-0.7-1.2-1-1.9-1C348.5,339.5,349.7,343.2,352.1,342.4z"/>
<path class="st7" d="M420.1,328.3c2.4-0.8,1.1-4.5-1.3-3.7S417.7,329.1,420.1,328.3z"/>
<path class="st7" d="M390.3,331.5c2.4-0.8,1.1-4.5-1.2-3.7c-0.9,0.6-1.2,1.8-0.7,2.7C388.8,331.3,389.5,331.6,390.3,331.5z"/>
<path class="st7" d="M394.7,350.7c0.9-0.6,1.2-1.8,0.7-2.7c-0.4-0.7-1.2-1-1.9-1c-0.9,0.6-1.2,1.8-0.7,2.7
	C393.2,350.4,393.9,350.7,394.7,350.7z"/>
<path class="st7" d="M410.1,347.5c2.4-0.8,1.1-4.5-1.3-3.7c-0.9,0.6-1.3,1.8-0.7,2.7C408.6,347.2,409.3,347.6,410.1,347.5z"/>
<path class="st7" d="M561.8,316.1c-1,0.4-1.5,1.6-1.1,2.6c0.1,0.3,0.4,0.6,0.6,0.8c1-0.5,2-1,3-1.4c0.1-1.1-0.6-2-1.6-2.2
	C562.4,316,562.1,316,561.8,316.1z"/>
<path class="st7" d="M426,342.9c0.9-0.6,1.2-1.8,0.7-2.7c-0.4-0.7-1.2-1-1.9-1c-0.9,0.6-1.2,1.8-0.7,2.7
	C424.5,342.6,425.2,342.9,426,342.9z"/>
<path class="st7" d="M420.4,338.6c0.9-0.6,1.2-1.8,0.7-2.7c-0.4-0.7-1.2-1-1.9-1c-0.9,0.6-1.2,1.8-0.7,2.7
	C418.9,338.3,419.6,338.7,420.4,338.6z"/>
<path class="st7" d="M413.3,349.9c0.9-0.6,1.2-1.8,0.7-2.7c-0.4-0.7-1.2-1-1.9-1C409.6,347,410.9,350.7,413.3,349.9z"/>
<path class="st7" d="M420.5,360.3c0.3-1.1-0.4-2.2-1.5-2.4c-0.3-0.1-0.7-0.1-1,0c-1,0.3-1.5,1.4-1.2,2.5c0.1,0.2,0.2,0.5,0.4,0.6
	L420.5,360.3z"/>
<path class="st7" d="M421.1,350.7c2.4-0.8,1.1-4.5-1.2-3.7c-0.9,0.6-1.2,1.8-0.7,2.7C419.6,350.4,420.3,350.8,421.1,350.7z"/>
<path class="st7" d="M429.1,352.1c2.4-0.8,1.1-4.5-1.3-3.7c-0.9,0.6-1.3,1.8-0.7,2.7C427.6,351.8,428.4,352.2,429.1,352.1z"/>
<path class="st7" d="M405.1,360.2c2.4-0.8,1.1-4.5-1.2-3.7S402.7,361,405.1,360.2z"/>
<path class="st7" d="M398.6,345.2c2.4-0.8,1.1-4.5-1.2-3.7c-0.9,0.6-1.2,1.8-0.7,2.7C397.1,345,397.9,345.3,398.6,345.2z"/>
<path class="st7" d="M377.3,357.3c2.4-0.8,1.1-4.5-1.2-3.7S374.9,358.1,377.3,357.3z"/>
<path class="st7" d="M390,364.6c-0.3-1-1.3-1.5-2.3-1.2h-0.1c-0.6,0.2-1.1,0.7-1.2,1.3L390,364.6z"/>
<path class="st7" d="M393,356.8c2.4-0.8,1.1-4.5-1.2-3.7S390.6,357.6,393,356.8z"/>
<path class="st7" d="M354.1,359.6c2.4-0.8,1.1-4.5-1.3-3.7c-0.9,0.6-1.2,1.8-0.6,2.8C352.6,359.4,353.3,359.7,354.1,359.6z"/>
<path class="st7" d="M339.6,365.9c-0.3-1-1.3-1.6-2.3-1.3h-0.1c-0.6,0.2-1.1,0.7-1.2,1.3H339.6z"/>
<path class="st7" d="M330.1,366.1c-0.1-1-1-1.8-2-1.7c-0.2,0-0.3,0-0.5,0.1c-0.8,0.2-1.3,0.9-1.3,1.7L330.1,366.1z"/>
<path class="st7" d="M326.3,360.8c2.4-0.8,1.1-4.5-1.2-3.7S323.9,361.6,326.3,360.8z"/>
<path class="st7" d="M337.8,358.3c2.4-0.8,1.1-4.5-1.2-3.7S335.5,359.1,337.8,358.3z"/>
<path class="st7" d="M291,361.8c0.9-0.6,1.2-1.8,0.6-2.8c-0.4-0.6-1.1-1-1.9-0.9C287.3,358.9,288.6,362.6,291,361.8z"/>
<path class="st7" d="M280.6,367.9c-0.3-1-1.4-1.5-2.4-1.1l0,0c-0.6,0.2-1.1,0.7-1.2,1.3L280.6,367.9z"/>
<path class="st7" d="M256.4,369.5l2-0.2c1.7-1.1,0.4-4.2-1.8-3.4c-1,0.4-1.5,1.6-1.1,2.6C255.7,368.9,256,369.2,256.4,369.5z"/>
<path class="st7" d="M272,364.8c2.4-0.8,1.1-4.5-1.2-3.7c-0.9,0.6-1.2,1.8-0.7,2.7C270.5,364.5,271.2,364.8,272,364.8z"/>
<path class="st7" d="M281,354.8c2.4-0.8,1.1-4.5-1.2-3.7c-0.9,0.6-1.2,1.8-0.6,2.8C279.6,354.6,280.3,354.9,281,354.8z"/>
<path class="st7" d="M283.1,361c2.4-0.8,1.1-4.5-1.2-3.7S280.8,361.8,283.1,361z"/>
<path class="st7" d="M292.4,367.3c0.3-1.1-0.3-2.2-1.4-2.5c-0.3-0.1-0.7-0.1-1.1,0c-1,0.3-1.5,1.4-1.2,2.4c0,0.1,0.1,0.2,0.1,0.3
	L292.4,367.3z"/>
<path class="st7" d="M297.1,363.8c2.4-0.8,1.1-4.5-1.2-3.7S294.8,364.6,297.1,363.8z"/>
<path class="st7" d="M294.4,353.8c2.4-0.8,1.1-4.5-1.2-3.7S292,354.6,294.4,353.8z"/>
<path class="st7" d="M306.3,354.5c0.9-0.6,1.2-1.8,0.7-2.7c-0.4-0.7-1.2-1-1.9-1C302.7,351.6,304,355.3,306.3,354.5z"/>
<path class="st7" d="M305.7,348.6c0.9-0.6,1.2-1.8,0.7-2.7c-0.4-0.7-1.2-1-1.9-1C302.1,345.7,303.3,349.4,305.7,348.6z"/>
<path class="st7" d="M306.1,339.5c2.4-0.8,1.1-4.5-1.2-3.7S303.7,340.3,306.1,339.5z"/>
<path class="st7" d="M318.6,340.1c2.4-0.8,1.1-4.5-1.2-3.7c-0.9,0.6-1.2,1.8-0.7,2.7C317.1,339.8,317.8,340.2,318.6,340.1z"/>
<path class="st7" d="M320.3,347c0.9-0.6,1.2-1.8,0.7-2.7c-0.4-0.7-1.2-1-1.9-1c-0.9,0.6-1.2,1.8-0.7,2.7
	C318.8,346.8,319.5,347.1,320.3,347z"/>
<path class="st7" d="M338.6,342.2c2.4-0.8,1.1-4.5-1.2-3.7S336.2,343,338.6,342.2z"/>
<path class="st7" d="M329.7,334.3c2.4-0.8,1.1-4.5-1.2-3.7S327.3,335.1,329.7,334.3z"/>
<path class="st7" d="M328.5,340.8c2.4-0.8,1.1-4.5-1.3-3.7S326.1,341.6,328.5,340.8z"/>
<path class="st7" d="M170.2,353.2c-1.1,0.2-1.8,1.3-1.5,2.4c0.2,0.7,0.8,1.3,1.5,1.5c1.1-0.2,1.8-1.3,1.5-2.4
	C171.6,354,171,353.4,170.2,353.2z"/>
<path class="st7" d="M186.5,345.4c-2.5,0-2.5,3.9,0,3.9S189,345.4,186.5,345.4z"/>
<path class="st7" d="M178.1,342.2c-1.1,0.2-1.8,1.3-1.5,2.4c0.2,0.7,0.8,1.3,1.5,1.5C180.6,346.1,180.6,342.2,178.1,342.2z"/>
<path class="st7" d="M178.7,349.3c-1.1,0.2-1.8,1.3-1.5,2.4c0.2,0.7,0.8,1.3,1.5,1.5C181.2,353.2,181.2,349.3,178.7,349.3z"/>
<path class="st7" d="M190.4,340.2c-2.5,0-2.5,3.9,0,3.9c1.1-0.2,1.8-1.3,1.5-2.4C191.7,341,191.1,340.4,190.4,340.2z"/>
<path class="st7" d="M201.5,341.5c-1.1,0.2-1.8,1.3-1.5,2.4c0.2,0.7,0.8,1.3,1.5,1.5c1.1-0.2,1.8-1.3,1.5-2.4
	C202.8,342.3,202.2,341.7,201.5,341.5z"/>
<path class="st7" d="M191.1,352.6c-2.5,0-2.5,3.9,0,3.9c1.1-0.2,1.8-1.3,1.5-2.4C192.4,353.3,191.8,352.8,191.1,352.6z"/>
<path class="st7" d="M227.5,344.1c-2.5,0-2.5,3.9,0,3.9S230,344.1,227.5,344.1z"/>
<path class="st7" d="M215.1,340.2c-1.1,0.2-1.8,1.3-1.5,2.4c0.2,0.7,0.8,1.3,1.5,1.5c1.1-0.2,1.8-1.3,1.5-2.4
	C216.5,341,215.9,340.4,215.1,340.2z"/>
<path class="st7" d="M221.6,334.4c-2.5,0-2.5,3.9,0,3.9c1.1-0.2,1.8-1.3,1.5-2.4C223,335.1,222.4,334.6,221.6,334.4z"/>
<path class="st7" d="M230.7,334.4c-1.1,0.2-1.8,1.3-1.5,2.4c0.2,0.7,0.8,1.3,1.5,1.5c1.1-0.2,1.8-1.3,1.5-2.4
	C232.1,335.1,231.5,334.6,230.7,334.4z"/>
<path class="st7" d="M235.9,346.1c-2.5,0-2.5,3.9,0,3.9S238.4,346.1,235.9,346.1z"/>
<path class="st7" d="M222.3,350c-2.5,0-2.5,3.9,0,3.9c1.1-0.2,1.8-1.3,1.5-2.4C223.6,350.8,223,350.2,222.3,350z"/>
<path class="st7" d="M245,331.1c-2.5,0-2.5,3.9,0,3.9S247.6,331.1,245,331.1z"/>
<path class="st7" d="M257.4,323.3c-1.1,0.2-1.8,1.3-1.5,2.4c0.2,0.7,0.8,1.3,1.5,1.5C259.9,327.2,259.9,323.3,257.4,323.3z"/>
<path class="st7" d="M249.6,324c-2.5,0-2.5,3.9,0,3.9c1.1-0.2,1.8-1.3,1.5-2.4C250.9,324.8,250.3,324.2,249.6,324z"/>
<path class="st7" d="M273.7,322.7c-1.1,0.2-1.8,1.3-1.5,2.4c0.2,0.7,0.8,1.3,1.5,1.5C276.2,326.6,276.2,322.7,273.7,322.7z"/>
<path class="st7" d="M263.2,323.3c-1.1,0.2-1.8,1.3-1.5,2.4c0.2,0.7,0.8,1.3,1.5,1.5c1.1-0.2,1.8-1.3,1.5-2.4
	C264.6,324.1,264,323.5,263.2,323.3z"/>
<path class="st7" d="M271.7,315.5c-1.1,0.2-1.8,1.3-1.5,2.4c0.2,0.7,0.8,1.3,1.5,1.5C274.2,319.4,274.2,315.5,271.7,315.5z"/>
<path class="st7" d="M260.6,335c-1.1,0.2-1.8,1.3-1.5,2.4c0.2,0.7,0.8,1.3,1.5,1.5C263.2,338.9,263.2,335,260.6,335z"/>
<path class="st7" d="M250.9,342.8c-2.5,0-2.5,3.9,0,3.9c1.1-0.2,1.8-1.3,1.5-2.4C252.2,343.6,251.6,343,250.9,342.8z"/>
<path class="st7" d="M228.8,354.5c-1.1,0.2-1.8,1.3-1.5,2.4c0.2,0.7,0.8,1.3,1.5,1.5C231.3,358.4,231.3,354.5,228.8,354.5z"/>
<path class="st7" d="M235.5,369.4c0.6-0.9,0.4-2.2-0.5-2.8c-0.3-0.2-0.6-0.3-1-0.3c-1.1,0-1.9,0.9-1.9,2c0,0.3,0.1,0.6,0.2,0.8
	L235.5,369.4z"/>
<path class="st7" d="M222.2,368c0-1-0.9-1.8-1.9-1.8l0,0c-0.9,0-1.6,0.6-1.8,1.4L222.2,368z"/>
<path class="st7" d="M304.9,295.4c-2.5,0-2.5,3.9,0,3.9S307.4,295.4,304.9,295.4z"/>
<path class="st7" d="M325.7,307.1c-1.1,0.2-1.8,1.3-1.5,2.4c0.2,0.7,0.8,1.3,1.5,1.5c1.1-0.2,1.8-1.3,1.5-2.4
	C327,307.8,326.4,307.2,325.7,307.1z"/>
<path class="st7" d="M318.5,299.3c-1.1,0.2-1.8,1.3-1.5,2.4c0.2,0.7,0.8,1.3,1.5,1.5C321,303.2,321,299.3,318.5,299.3z"/>
<path class="st7" d="M310.1,301.2c-1.1,0.2-1.8,1.3-1.5,2.4c0.2,0.7,0.8,1.3,1.5,1.5c1.1-0.2,1.8-1.3,1.5-2.4
	C311.4,302,310.8,301.4,310.1,301.2z"/>
<path class="st7" d="M312.7,294.7c-2.5,0-2.5,3.9,0,3.9c1.1-0.2,1.8-1.3,1.5-2.4C314,295.5,313.4,294.9,312.7,294.7z"/>
<path class="st7" d="M331.5,291.5c-2.5,0-2.5,3.9,0,3.9c1.1-0.2,1.8-1.3,1.5-2.4C332.9,292.2,332.3,291.6,331.5,291.5z"/>
<path class="st7" d="M348.5,298.6c-2.5,0-2.5,3.9,0,3.9S351,298.6,348.5,298.6z"/>
<path class="st7" d="M351.1,284.9c-2.5,0-2.5,3.9,0,3.9S353.6,284.9,351.1,284.9z"/>
<path class="st7" d="M353,294c-1.1,0.2-1.8,1.3-1.5,2.4c0.2,0.7,0.8,1.3,1.5,1.5C355.5,298,355.5,294,353,294z"/>
<path class="st7" d="M343.9,294c-2.5,0-2.5,3.9,0,3.9c1.1-0.2,1.8-1.3,1.5-2.4C345.2,294.8,344.6,294.2,343.9,294z"/>
<path class="st7" d="M337.4,305.1c-1.1,0.2-1.8,1.3-1.5,2.4c0.2,0.7,0.8,1.3,1.5,1.5C339.9,309,339.9,305.1,337.4,305.1z"/>
<path class="st7" d="M305.5,330.5c-1.1,0.2-1.8,1.3-1.5,2.4c0.2,0.7,0.8,1.3,1.5,1.5C308,334.4,308,330.5,305.5,330.5z"/>
<path class="st7" d="M298.4,322.7c-2.5,0-2.5,3.9,0,3.9c1.1-0.2,1.8-1.3,1.5-2.4C299.7,323.4,299.1,322.8,298.4,322.7z"/>
<path class="st7" d="M292.5,318.1c-1.1,0.2-1.8,1.3-1.5,2.4c0.2,0.7,0.8,1.3,1.5,1.5c1.1-0.2,1.8-1.3,1.5-2.4
	C293.9,318.9,293.3,318.3,292.5,318.1z"/>
<path class="st7" d="M311.4,314.9c-2.5,0-2.5,3.9,0,3.9S313.9,314.9,311.4,314.9z"/>
<path class="st7" d="M317.2,328.5c-2.5,0-2.5,3.9,0,3.9S319.8,328.5,317.2,328.5z"/>
<path class="st7" d="M348.5,310.3c-1.1,0.2-1.8,1.3-1.5,2.4c0.2,0.7,0.8,1.3,1.5,1.5C351,314.2,351,310.3,348.5,310.3z"/>
<path class="st7" d="M355,308.4c-1.1,0.2-1.8,1.3-1.5,2.4c0.2,0.7,0.8,1.3,1.5,1.5c1.1-0.2,1.8-1.3,1.5-2.4
	C356.3,309.1,355.7,308.5,355,308.4z"/>
<path class="st7" d="M355,300.5c-2.5,0-2.5,3.9,0,3.9S357.5,300.5,355,300.5z"/>
<path class="st7" d="M372.5,299.9c-2.5,0-2.5,3.9,0,3.9S375,299.9,372.5,299.9z"/>
<path class="st7" d="M356.9,289.5c-1.1,0.2-1.8,1.3-1.5,2.4c0.2,0.7,0.8,1.3,1.5,1.5c1.1-0.2,1.8-1.3,1.5-2.4
	C358.2,290.3,357.7,289.7,356.9,289.5z"/>
<path class="st7" d="M361.5,293.4c-2.5,0-2.5,3.9,0,3.9c1.1-0.2,1.8-1.3,1.5-2.4C362.8,294.2,362.2,293.6,361.5,293.4z"/>
<path class="st7" d="M379,303.2c-2.5,0-2.5,3.9,0,3.9c1.1-0.2,1.8-1.3,1.5-2.4C380.3,303.9,379.7,303.3,379,303.2z"/>
<path class="st7" d="M373.8,312.9c-2.5,0-2.5,3.9,0,3.9S376.3,312.9,373.8,312.9z"/>
<path class="st8" d="M386.2,210.5c-0.6-0.2-1.2,0.1-1.4,0.6c-5,10.2-6,20.1,1.1,29.5c-5.3,10-25.9,50.4-31,60.8
	c-3.5-2.1-7.1-4-10.8-5.5c-1.7-0.8-3.6-1.2-5.5-1.3c-1-0.1-4.8-0.3-7.7,1.6c-3.2,2.1-5.6,6.5-7.3,9.8c-2.4,4.7-7.7,15.9-10.3,21.8
	c22.7,0.3,46.4,2.5,65.4,14c2.5-4.9,4.6-9.9,6.5-15.1c2.9-8.4-6.8-12.5-12.7-15.6c-1.4-0.8-4.2-2.3-4.2-2.3l31-61.5
	c4.6,0.2,11-1.2,15.5-5.3c5-4.5,8.3-12.3,8.1-12.6C420.8,226.5,393,212.9,386.2,210.5z M395.1,238.8c-5.2-2.3-6.8-11.7-4.5-18.4
	l22.6,11.4C409.9,238.9,402.4,242,395.1,238.8L395.1,238.8z"/>
<path class="st6" d="M373.6,338.9c1.5-4,3.2-8.5,2.9-12.7c-0.4-5.5-4.2-7.6-8.5-10.2c-3.5-2.2-17.8-10.2-20.6-11.5s-9-5-15.3,2.9
	c-5,6.3-11.3,14.8-15.2,20.4C336.4,328.3,356.6,330.4,373.6,338.9z"/>
<path class="st6" d="M335.4,302.2c2.7-1.6,6.1-1.9,9.1-0.7c4.2,1.7,8.3,3.7,12.3,6.1c5.4,3,12,6.6,16.1,9.4c2.8,1.9,4.7,3.8,5.2,7.3
	c0.7,4.6-0.7,9.2-2.2,13.5c-0.2,0.7-0.5,1.4-0.7,2c0.7,0.4,1.3,0.7,2,1.1c1.3-2.5,2.5-5.1,3.6-7.7c1.5-3.6,5.4-10,1.8-13.4
	c-3.1-2.9-7.1-5-10.8-7c-8.1-4.2-16-8.6-24-13c-5.8-3.2-14.4-6-19.6,2.2c-4.7,7.4-11.8,23.8-11.8,23.8c2.6-3.6,6.4-9.1,8.9-12.6
	C328.1,309.3,331.1,304.4,335.4,302.2z"/>
<path class="st6" d="M386.3,212.5c1.9,0,34.7,16.4,34.3,17.4c-2.3,6.3-6.9,11.9-12.5,14.3c-4.1,1.8-9.9,1.2-10.1,1.5l-31.4,62.1v0.1
	c-3.5-1.7-6.9-3.4-10.3-5.2c4.8-9.9,25.7-50.9,31.4-61.6c0.1-0.3,0.1-0.6,0-0.8c0-0.2-0.1-0.3-0.2-0.5
	C380.9,231,381.7,222,386.3,212.5z M415.5,231.4c0-0.2-25.1-13.5-25.6-13.4c-0.7-0.1-2.9,7.6-2.1,12.1c0.7,4,3.2,8.8,6.8,10.4
	C402.4,244.2,411.9,239.2,415.5,231.4z"/>
<path class="st9" d="M394.5,248.6c-1,2.1-25.4,50.8-26.5,52.9s-4.5-2.3-1.4-8.5c1.5-3,20-39.4,21.1-41.4
	C390.2,247.2,395.6,246.4,394.5,248.6z"/>
<path class="st9" d="M360.2,333.6c5.1-5.5,10.2-11,11.7-13.1c-1-1.7-10.3-6.9-10.3-6.9L336,329C344.2,329.8,352.3,331.3,360.2,333.6
	z"/>
<path class="st10" d="M372.8,338.5l1-2.9l-2.3,2.2L372.8,338.5z"/>
<path class="st8" d="M335.2,265.9c-0.1-0.3-0.3-0.5-0.6-0.6c1.6-1.6,1.9-4.5,2-6.6s-0.4-6.1-2.8-7.8s-6-4-40.6-4.4s-49.4,2.3-54.3,4
	c-3.5,1.2-4.3,3.2-4.3,7.5s1,7.5,1.8,8c0.9,0.4,1.8,0.7,2.8,0.8c1,3,2.1,5.9,3.4,8.7c1.9,10.4,9.7,49.6,13.5,65.6c7,0.6,14,1,21-0.1
	c8.6-1.4,16.7-3.8,25.5-4c6.2-0.1,12.3,0.6,18.4,2c0.1-1.3,0.1-2.8,0.2-4.4c0.3-5.1,2.6-31.4,2.5-31.5c2.5-1.8,4.8-3.8,6.9-6
	C338.5,288.3,339,276.5,335.2,265.9z M324.7,294.1c1.5-9.2,3.6-16.8,5-26.3C332.9,277.1,332.7,286.9,324.7,294.1z"/>
<path class="st8" d="M257.4,292.7c-7.2-6.9-12-14.9-15.9-24.7l3.6,0.5c1.7,4.6,4,9,6.8,13c3.4,4.9,7.5,9.2,12.2,12.9
	c9.2,7.3,20.7,11.1,32.5,10.8c9-0.2,18.3-1.5,24.8-6.1c14.4-10.1,13.6-22.7,10.1-32.3c0.6-0.2,1.3-0.3,1.9-0.3
	c4,11.2,2.7,22.4-5.9,31c-8.8,8.8-22.2,12.6-34.4,11.7S267.7,302.6,257.4,292.7z"/>
<path class="st6" d="M334.4,257.7c0-0.5-0.1-1-0.2-1.5c-0.1-0.6-0.3-2.7-1.7-3.7c-2-1.6-4.3-1.9-6.8-2.5s-15.7-1.6-20.3-1.8
	c-6-0.2-25.5-0.4-34.4,0s-20,1-23.5,1.6c-7.9,1.3-10.2,3.1-11,5.1s0,8.1,1,9.4s18.5,5,46.8,6.1s45.9-5.1,47.6-6.1
	S334.6,260.2,334.4,257.7z M279.2,258.2c-15.2-0.5-38.1-0.9-37.6-4.4s24.3-3.9,37.7-4s21.3,0.1,29.3,0.3c4,0.1,22.6,1,22.6,4.3
	C331.2,257.7,296.9,258.8,279.2,258.2L279.2,258.2z"/>
<path class="st6" d="M322.8,295.4c-5.7,5.1-18.8,8.2-27.1,7.8c-11-0.5-23.1-3.6-31.4-11.1c-8.5-7.7-12.8-12.5-17.2-23.5
	c0,0,13.9,3.6,37.3,3.7c36.4,0.2,43.7-4.8,43.7-4.8C326.2,277.5,322.7,295.2,322.8,295.4z"/>
<path class="st6" d="M277,341.1c8.6-1.4,16.7-3.8,25.5-4c5.6-0.1,11.1,0.4,16.6,1.5v-0.4c0.3-4.1,1.7-30.9,2.5-34.1
	c-7.3,4.7-15.9,7.1-24.6,7c-22.2-0.4-44.1-13.4-52-31.9c1.8,9.9,9.4,48,12.9,62C264.4,341.9,270.7,341.9,277,341.1z"/>
<path class="st9" d="M282.1,260l11,0.3c0,0,0.1,5.1-0.1,8.3c-1.9,0.7-7.8,1-10.7,0C282,265.6,282.1,261.4,282.1,260z"/>
<path class="st9" d="M293.4,301.3l-0.3-27.2c-3.6,0.2-7.1,0.1-10.7-0.3c0,4.4,0.1,25.4,0.1,25.4C286.1,300,289.7,300.9,293.4,301.3z
	"/>
<path class="st9" d="M293.3,338l0.1-25.9c-3.7,0-7.4-0.7-10.8-2v30C286.1,339.4,289.7,338.6,293.3,338z"/>
<path class="st6" d="M317.4,338.3c0.7-5.5,1.2-18,1.2-18l-10.3,17C311.4,337.4,314.4,337.7,317.4,338.3z"/>
</svg>
