<?xml version="1.0" encoding="utf-8"?>
<!-- Generator: Adobe Illustrator 26.5.0, SVG Export Plug-In . SVG Version: 6.00 Build 0)  -->
<svg version="1.1" id="Layer_1" xmlns="http://www.w3.org/2000/svg" xmlns:xlink="http://www.w3.org/1999/xlink" x="0px" y="0px"
	 viewBox="0 0 2521 2911" style="enable-background:new 0 0 2521 2911;" xml:space="preserve">
<style type="text/css">
	.st0{fill:#136C38;}
	.st1{opacity:0.25;fill:url(#SVGID_1_);enable-background:new    ;}
	.st2{fill:#005629;}
	.st3{fill:#E6B35A;}
	.st4{opacity:0.94;}
	.st5{fill:#FFFFFF;}
	.st6{fill:#298F4D;}
	.st7{fill:#79563B;}
	.st8{fill:#141111;}
	.st9{fill:#36A85D;}
	.st10{fill:#94111D;}
</style>
<g>
	<polygon class="st0" points="2453.1,767.6 1260.5,78.9 1260.5,78.9 67.6,767.6 67.6,2145.2 1260.5,2833.8 2453.1,2145.2 	"/>
	
		<linearGradient id="SVGID_1_" gradientUnits="userSpaceOnUse" x1="1258.5894" y1="1331.0142" x2="1263.0498" y2="-259.3993" gradientTransform="matrix(1 0 0 -1 0 912)">
		<stop  offset="0" style="stop-color:#FFFFFF;stop-opacity:0.83"/>
		<stop  offset="0.56" style="stop-color:#FFFFFF;stop-opacity:0.37"/>
		<stop  offset="1" style="stop-color:#FFFFFF;stop-opacity:0"/>
	</linearGradient>
	<path class="st1" d="M1262.2,1169c440.9,0,820-196.3,988.4-478l-990.1-571.6l0,0L272.8,689.7C440.9,972,820.7,1169,1262.2,1169z"/>
	<path class="st2" d="M2521,2183.6V727.7l-100.5-58l-953.1-550.4L1260.5,0l-206.9,119.4L100.5,669.8L0,727.7v1455.5l100.5,58
		l965.1,557.2l195.2,112.5l195.2-112.5l965.1-557.2L2521,2183.6z M100.5,2129V789.2l172.2-99.5l987.7-570.3l0,0L2250.6,691
		l169.8,98.1V2129l-1160,669.8L100.5,2129z"/>
	<path class="st3" d="M1258.8,2171.6c1-1,2.1-2.1,3.1-3.1h-1C1260.5,2169.5,1259.8,2170.6,1258.8,2171.6z"/>
	<g class="st4">
		<path class="st5" d="M613.1,1935.9c0-31.2-0.7-58.3-2.1-83h42.2l1.7,52.2h2.1c12-35.7,41.2-58.3,73.4-58.3c4.5,0,9.3,0.3,13.7,1.7
			v45.6c-5.5-1-11-1.7-16.5-1.7c-34,0-58.3,25.7-64.8,62.1c-1.4,7.5-2.1,15.1-2.1,22.6v141.7h-47.7V1935.9z"/>
		<path class="st5" d="M796.3,1994.5c1,65.2,42.9,92.3,91.3,92.3c34.7,0,55.6-6.2,73.4-13.7l8.2,34.7c-17.2,7.5-46,16.5-88.5,16.5
			c-81.7,0-130.7-53.9-130.7-133.8S797.3,1847,874.5,1847c86.8,0,109.8,76.2,109.8,125.2c0,7.5-0.7,15.1-1.7,22.6L796.3,1994.5z
			 M938,1959.9c0.7-30.9-12.7-78.6-66.9-78.6c-48.7,0-70.3,44.9-74.1,78.6H938z"/>
		<path class="st5" d="M1026.9,1939.6c0-34-1-61.4-2.1-86.8h43.2l2.1,45.6h1c19.9-32.3,51.1-51.5,94.3-51.5
			c64.2,0,112.5,54.2,112.5,135.2c0,95.4-58.3,142.7-120.8,142.7c-35,0-65.9-15.4-81.7-41.9h-1v144.5h-47.7V1939.6z M1074.5,2010.3
			c0,6.5,1,13.4,2.1,19.9c8.2,33.3,38.1,56.6,72.4,56.6c51.1,0,80.6-41.9,80.6-102.6c0-53.2-28.1-98.8-78.9-98.8
			c-32.9,0-63.8,23.7-73.1,59.7c-2.1,6.5-3.1,13-3.4,19.9L1074.5,2010.3L1074.5,2010.3z"/>
		<path class="st5" d="M1321.6,1935.9c0-31.2-0.7-58.3-2.1-83h42.2l1.7,52.2h2.1c12-35.7,41.2-58.3,73.4-58.3
			c4.5,0,9.3,0.3,13.7,1.7v45.6c-5.5-1-11-1.7-16.5-1.7c-34,0-58.3,25.7-64.8,62.1c-1.4,7.5-2.1,15.1-2.1,22.6v141.7h-47.7
			L1321.6,1935.9L1321.6,1935.9z"/>
		<path class="st5" d="M1505.1,1994.5c1,65.2,42.9,92.3,91.3,92.3c34.7,0,55.6-6.2,73.8-13.7l8.2,34.7
			c-17.2,7.5-46.3,16.5-88.5,16.5c-81.7,0-130.7-53.9-130.7-133.8s47.3-143.4,124.5-143.4c86.8,0,109.8,76.2,109.8,125.2
			c0,7.5-0.7,15.1-1.7,22.6L1505.1,1994.5z M1646.8,1959.9c0.7-30.9-12.7-78.6-66.9-78.6c-48.7,0-70.3,44.9-74.1,78.6H1646.8z"/>
		<path class="st5" d="M1756.3,1852.8l37.7,57c9.9,14.8,18.2,28.5,26.8,43.2h1.7c8.9-15.8,17.5-29.5,26.4-43.9l37.7-56.3h52.1
			l-90.6,128.3l93.3,137.2h-54.9l-39.1-59.7c-10.3-15.4-19.2-30.2-28.5-46h-1c-8.9,15.8-18.2,30.2-28.1,46l-38.4,59.7h-53.5
			l94.3-135.5l-89.5-130H1756.3z"/>
	</g>
	<path class="st6" d="M1698.6,1267.1c15.4-1.4,30.9-2.4,46.3-3.8c-12,57-21.6,115.3-30.2,171.9c-9.3,62.8-16.8,125.6-23,188.7
		c-0.3,5.1-1,10.3-1.4,15.4c-5.1,6.9-9.9,13.4-14.8,20.6c-65.9-11.7-132.1-20.9-198.3-30.5c-99.5-14.8-198.6-28.8-298.1-41.9
		c-198.6-26.4-397.3-59.4-596.3-75.8c-66.6-5.5-132.8-12-199.3-17.2c1.7-39.1,3.1-78.2,4.5-117.3c1.4-37.7,2.4-75.5,3.4-113.2
		c30.5,3.8,61.4,7.2,92.3,10.6c3.4,0.3,6.5,0.7,9.9,1c3.8,0.3,7.9,0.7,12,1c371.9,37.4,748.6,28.5,1122.9-3.4
		c19.6-1.7,39.1-3.1,58.7-4.8L1698.6,1267.1z"/>
	<path class="st6" d="M2060.9,1077.7c17.2,3.8,31.2,34,30.9,63.1c0.3,20.2-6.2,40.1-18.5,56.6l0,0c-37.7,39.5-75.1,79.6-112.2,120.4
		c-88.9,97.4-178.1,197.3-260.4,307.8c9.3-64.2,20.2-127.3,32.3-190.1c11.3-58.7,25-116.7,38.1-174.6c2.7-11.7,5.5-23.3,7.9-35
		c0.7-0.3,1.7-0.7,2.4-1.4l0,0c60.4-30.9,120.4-62.4,180.8-94l27.4-14.4l5.5-3.1c14.1-7.5,27.8-15.1,41.9-22.3
		c-0.3,0.3-0.3,0.7-0.7,1c0,0.3,0,0.7,0.3,0.3c0.3-0.7,1-1.4,1.4-2.1C2045.5,1086,2053,1081.8,2060.9,1077.7L2060.9,1077.7z"/>
	<path class="st5" d="M1972.7,1099.3c-6.5,3.8-12.7,7.2-19.2,11c-57.3,33.3-114.2,66.9-171.2,100.9l-6.2,3.8l-22,13l0,0
		c-0.3,0-1,0-1.4,0c-27.4,3.1-55.2,6.2-82.7,8.6c-109.8,10-219.6,17.2-329.4,22c-219.6,9.3-438.8,12.7-658,3.4
		c-58.7-2.4-117.7-4.1-176.3-5.8c8.9-12,18.5-23.3,29.2-34c26.8-25.4,56.6-47.4,88.9-64.8c36.4-19.6,76.5-30.9,117.7-32.9
		c-22,13.7-43.2,28.5-64.5,44.6v0.3c35.3-13.4,70-28.8,104.6-44.9c8.2-3.8,16.5-7.9,24.4-11.7c29.8-14.1,59.7-28.8,89.5-43.2l0,0
		c18.2-8.6,36.4-17.2,54.9-25.4l0,0c5.5-2.4,11.3-5.1,17.2-7.5c47.3-20.6,94.7-40.1,142.4-58.7c19.2-7.2,38.4-14.1,57.6-21.3
		c34,13.4,65.9,30.5,95.4,51.8c18.9,13,37.1,27.4,54.2,42.9c8.9,7.9,17.5,16.5,26.1,25.4c1.7,1.7,3.8,3.8,5.5,5.8
		c0.7,1,1.7,1.7,2.7,2.7c0.3,0.3,0.7,0.7,1,1c26.1,29.2,48.7,64.5,75.1,93.3c5.5,5.8,11.7-5.5,8.9-13.4
		c-11.3-29.2-26.4-56.3-45.3-81.3l0,0c-2.4-3.4-5.1-6.9-7.9-10c6.9-2.4,13.4-4.8,20.2-7.2c6.9-2.4,13.4-4.5,20.2-6.2
		c15.1-4.1,29.8-8.2,44.9-12l0,0c30.9-7.9,62.1-15.8,93-24.7c65.9-19.2,131.7-36.4,197.6-53.9l0,0c27.1,14.1,54.2,29.2,81.3,45.3
		c9.6,5.5,18.9,10.3,28.8,15.1c18.9,8.6,37.1,18.5,54.9,29.2c4.5,2.7,8.9,5.8,13,8.9C1950.8,1079.1,1962.1,1089.1,1972.7,1099.3z"/>
	<path d="M2139.1,1010.1c-3.4,0-6.9,0.3-10.3,0.3l0,0c-62.4,2.4-124.9,9.3-187.3,15.1c-17.2-11-35-20.2-52.1-30.2
		c-8.2-4.8-16.8-9.6-25-14.4c-2.7-2.1-5.8-4.1-8.9-6.2c-11.7-7.5-23.7-14.1-36-19.9c-10.6-4.8-21.6-9.3-32.6-13l0,0
		c-23.3,1.7-46.3,4.5-69.3,8.2l0,0c-54.6,8.9-108.4,21.6-161.3,38.1c-47,14.4-93,35.7-139,56.6c-4.5,2.1-8.9,4.1-13.4,6.2l0,0
		c-13.4,0.3-26.8,0.3-40.1,0.3c-26.8-28.5-57.3-53.5-90.6-74.1c-22.3-14.1-46-25-71-32.9c-17.2-5.5-34.7-9.6-52.8-12l0,0
		c-8.9,3.4-17.8,6.9-26.8,10.6l0,0c-2.7,1-5.1,2.1-7.9,3.1c-50.4,19.9-100.9,41.2-150.6,64.2c-22.3,10.3-44.9,20.6-67.2,31.6
		c-28.5-1.4-57-3.1-85.4-4.5l0,0c-14.8-0.7-29.5-1.4-44.3-2.1l0,0c-12.4,6.2-24.4,12.4-36.4,18.9c-51.5,26.4-102.9,53.9-154,81.7
		c-61.4,33.3-122.8,65.9-184.2,100.2l-14.8,8.2c-0.3,3.1-0.7,6.2-0.7,8.9s-0.3,5.5-0.7,8.6c-0.3,3.1-0.7,6.5-0.7,9.6
		c-2.7,32.9-5.1,65.9-7.5,98.8c-3.1,40.8-6.2,81.7-8.6,122.8l0,0c-0.3,5.8-0.7,11.3-1,17.2c8.2,1.7,16.1,3.1,24.4,4.8
		c150.3,28.1,301.2,49.8,451.8,69.7c198.6,26.4,397.6,52.5,596.3,74.5c75.8,8.6,152,17.8,228.2,24.7l11.3,1c3.1-3.1,6.2-6.2,8.9-9.6
		s5.8-6.5,8.9-9.6c1-0.7,1.7-1.7,2.4-2.7c2.1-2.1,3.8-4.1,5.8-6.2c95.4-103.3,187.7-214.4,282-319.4c41.5-46.3,83.7-92,125.6-137.2
		c6.5-7.2,13.4-14.4,19.9-21.3c2.1-13,4.1-26.1,6.2-39.1c4.5-28.8,8.2-57.6,12.4-86.1c0.7-5.5,1.7-11.3,2.4-16.8
		c0-1.4,0.3-3.1,0.7-4.5c1-7.2,2.1-14.4,3.1-21.6C2145.7,1010.1,2142.2,1010.1,2139.1,1010.1z M535.6,1222.9
		c26.8-25.4,56.6-47.4,88.9-64.8c36.4-19.6,76.5-30.9,117.7-32.9c-22,13.7-43.2,28.5-64.5,44.6v0.3c35.3-13.4,70-28.8,104.6-44.9
		c8.2-3.8,16.5-7.9,24.4-11.7c29.8-14.1,59.7-28.8,89.5-43.2l0,0c18.2-8.6,36.4-17.2,54.9-25.4l0,0c5.5-2.4,11.3-5.1,17.2-7.5
		c47.3-20.6,94.7-40.1,142.4-58.7c19.2-7.2,38.4-14.1,57.6-21.3c34,13.4,65.9,30.5,95.4,51.8c18.9,13,37.1,27.4,54.2,42.9
		c8.9,7.9,17.5,16.5,26.1,25.4c1.7,1.7,3.8,3.8,5.5,5.8c0.7,1,1.7,1.7,2.7,2.7c0.3,0.3,0.7,0.7,1,1c26.1,29.2,48.7,64.5,75.1,93.3
		c5.5,5.8,11.7-5.5,8.9-13.4c-11.3-29.2-26.4-56.6-45.3-81.3l0,0c-2.4-3.4-5.1-6.9-7.9-10c6.9-2.4,13.4-4.8,20.2-7.2
		c6.9-2.4,13.4-4.5,20.2-6.2c15.1-4.1,29.8-8.2,44.9-12l0,0c30.9-7.9,62.1-15.8,93-24.7c65.9-19.2,131.7-36.4,197.6-53.9l0,0
		c27.1,14.1,54.2,29.2,81.3,45.3c9.6,5.5,18.9,10.3,28.8,15.1c18.9,8.6,37.1,18.5,54.9,29.2c4.5,2.7,8.9,5.8,13,8.9
		c12,8.9,23.7,18.9,34.3,29.2c-6.5,3.8-12.7,7.2-19.2,11c-57.3,33.3-114.2,66.9-171.2,100.9l-6.2,3.8c-7.2,4.1-14.4,8.6-22,13l0,0
		c-0.3,0-1,0-1.4,0c-27.4,3.1-55.2,6.2-82.7,8.6c-109.8,10-219.6,17.2-329.4,22c-219.6,9.3-438.8,12.7-658,3.4
		c-58.7-2.4-117.7-4.1-176.3-5.8C515.3,1244.5,525.3,1233.2,535.6,1222.9L535.6,1222.9z M1690.7,1639.4c-5.1,6.9-9.9,13.4-14.8,20.6
		c-65.9-11.7-132.1-20.6-198.3-30.5c-99.5-14.8-198.6-28.8-298.1-41.9c-199-26.4-397.6-59.4-596.6-75.8
		c-66.6-5.5-132.8-12-199.3-17.2c1.7-39.1,3.1-78.2,4.5-117.3c1.4-37.7,2.4-75.5,3.4-113.2c30.5,3.8,61.4,7.2,92.3,10.6
		c3.4,0.3,6.5,0.7,9.9,1c3.8,0.3,7.9,0.7,12,1c371.9,37.4,748.6,28.5,1122.9-3.4c19.6-1.7,39.1-3.1,58.7-4.8l11.7-1
		c15.4-1.4,30.9-2.4,46.3-3.8c-12,57-21.6,115.3-30.2,171.9c-9.3,62.8-16.8,125.6-23,188.7
		C1691.8,1629.1,1691.1,1634.3,1690.7,1639.4z M2073.3,1197.5L2073.3,1197.5c-37.7,39.5-75.1,79.6-112.2,120.4
		c-88.9,97.4-178.1,197.3-260.4,307.8c9.3-64.2,20.2-127.3,32.3-190.1c11.3-58.7,25-116.7,38.1-174.6c2.7-11.7,5.5-23.3,7.9-35
		c0.7-0.3,1.7-0.7,2.4-1.4l0,0c60.4-30.9,120.4-62.4,180.8-94l27.4-14.4l5.5-3.1c14.1-7.5,27.8-15.1,41.9-22.3
		c-0.3,0.3-0.3,0.7-0.7,1c0,0.3,0,0.7,0.3,0.3c0.3-0.7,1-1.4,1.4-2.1c7.5-4.1,15.1-8.2,22.6-12.4l0,0c17.2,3.8,31.2,34,30.9,63.1
		C2092.1,1161.1,2085.6,1181,2073.3,1197.5z"/>
	<path class="st7" d="M1634.8,1153.2c3.1-2.1,4.1-6.2,2.4-9.3c-1.4-2.4-4.1-3.4-6.5-3.4C1622.1,1143.3,1626.6,1156,1634.8,1153.2z"
		/>
	<path class="st7" d="M1601.9,1150.1c3.1-2.1,4.1-6.2,2.4-9.3c-1.4-2.4-4.1-3.4-6.5-3.4C1589.5,1140.2,1593.6,1152.9,1601.9,1150.1z
		"/>
	<path class="st7" d="M1613.5,1174.5c3.1-2.1,4.1-6.2,2.4-9.3c-1.4-2.4-4.1-3.4-6.5-3.4c-3.1,2.1-4.1,6.2-2.4,9.3
		C1608.4,1173.5,1611.1,1174.8,1613.5,1174.5z"/>
	<path class="st7" d="M1582,1174.5c3.1-2.1,4.1-6.2,2.1-9.6c-1.4-2.1-3.8-3.4-6.5-3.1C1569.3,1164.5,1573.7,1177.2,1582,1174.5z"/>
	<path class="st7" d="M1663.3,1059.9c8.2-2.7,3.8-15.4-4.5-12.7c-3.1,2.1-4.5,6.2-2.4,9.3
		C1657.8,1058.9,1660.5,1060.2,1663.3,1059.9z"/>
	<path class="st7" d="M1618.7,1075c3.1-2.1,4.1-6.2,2.4-9.3c-1.4-2.4-4.1-3.4-6.5-3.4c-3.1,2.1-4.1,6.2-2.4,9.3
		C1613.5,1074,1616.3,1075,1618.7,1075z"/>
	<path class="st7" d="M1636.9,1045.1c8.2-2.7,3.8-15.4-4.1-12.7C1624.9,1035.2,1629,1047.9,1636.9,1045.1z"/>
	<path class="st7" d="M1697.6,1008.1c3.1-2.1,4.1-6.2,2.4-9.3c-1.4-2.4-4.1-3.4-6.5-3.4C1684.9,998.1,1689.4,1010.8,1697.6,1008.1z"
		/>
	<path class="st7" d="M1743.9,1110.3c8.2-2.7,3.8-15.4-4.1-12.7C1731.9,1100.4,1735.7,1113.1,1743.9,1110.3z"/>
	<path class="st7" d="M1782,1097.3c8.2-2.7,3.8-15.4-4.1-12.7c-3.1,2.1-4.1,6.2-2.4,9.3C1776.8,1096.3,1779.2,1097.6,1782,1097.3z"
		/>
	<path class="st7" d="M1782,1118.6c8.2-2.7,3.8-15.4-4.1-12.7c-3.1,2.1-4.1,6.2-2.4,9.3C1776.8,1117.5,1779.2,1118.9,1782,1118.6z"
		/>
	<path class="st7" d="M1815.3,1126.1c8.2-2.7,3.8-15.4-4.1-12.7c-3.1,2.1-4.1,6.2-2.4,9.3
		C1810.1,1125.1,1812.5,1126.5,1815.3,1126.1z"/>
	<path class="st7" d="M1878.4,1083.6c3.1-2.1,4.1-6.2,2.4-9.3c-1.4-2.4-4.1-3.4-6.5-3.4C1866,1073.6,1870.5,1086.3,1878.4,1083.6z"
		/>
	<path class="st7" d="M1867.1,1063.7c8.2-2.7,3.8-15.4-4.1-12.7S1858.8,1066.7,1867.1,1063.7z"/>
	<path class="st7" d="M1840.3,1082.2c8.2-2.7,3.8-15.4-4.1-12.7C1828.3,1072.2,1832.4,1084.9,1840.3,1082.2z"/>
	<path class="st7" d="M1856.8,1102.8c8.2-2.7,3.8-15.4-4.1-12.7S1848.6,1105.5,1856.8,1102.8z"/>
	<path class="st7" d="M1825.6,1101.4c8.2-2.7,3.8-15.4-4.1-12.7C1813.6,1091.5,1817.7,1104.1,1825.6,1101.4z"/>
	<path class="st7" d="M1814.2,1067.4c3.1-2.1,4.1-6.2,2.4-9.3c-1.4-2.4-4.1-3.4-6.5-3.4C1801.9,1057.5,1806,1070.5,1814.2,1067.4z"
		/>
	<path class="st7" d="M1835.5,1060.6c3.1-2.1,4.1-6.2,2.4-9.3c-1.4-2.4-4.1-3.4-6.5-3.4C1822.8,1050.6,1827.3,1063.3,1835.5,1060.6z
		"/>
	<path class="st7" d="M1746.3,1041c3.1-2.1,4.1-6.2,2.4-9.3c-1.4-2.4-4.1-3.4-6.5-3.4C1734,1031.1,1738.1,1043.8,1746.3,1041z"/>
	<path class="st7" d="M1784.4,1035.2c8.2-2.7,3.8-15.4-4.1-12.7C1772.4,1025.2,1776.2,1037.9,1784.4,1035.2z"/>
	<path class="st7" d="M1704.1,1069.5c8.2-2.7,3.8-15.4-4.1-12.7c-3.1,2.1-4.1,6.2-2.4,9.3C1699,1068.5,1701.4,1069.8,1704.1,1069.5z
		"/>
	<path class="st7" d="M1713,1137.1c3.1-2.1,4.1-6.2,2.4-9.3c-1.4-2.4-4.1-3.4-6.5-3.4c-3.1,2.1-4.1,6.2-2.4,9.3
		C1707.9,1136.4,1710.3,1137.4,1713,1137.1z"/>
	<path class="st7" d="M1728.1,1202.6c3.1-2.1,4.5-6.2,2.4-9.3c-1.4-2.4-4.1-3.4-6.5-3.4C1715.4,1193,1719.9,1205.7,1728.1,1202.6z"
		/>
	<path class="st7" d="M1781,1192c3.1-2.1,4.1-6.2,2.4-9.3c-1.4-2.4-4.1-3.4-6.5-3.4c-3.1,2.1-4.1,6.2-2.4,9.3
		C1775.8,1191,1778.2,1192.3,1781,1192z"/>
	<path class="st7" d="M1495.9,1100.4c8.2-2.7,3.8-15.4-4.1-12.7C1483.8,1090.4,1488,1103.1,1495.9,1100.4z"/>
	<path class="st7" d="M1463.3,1097.3c3.1-2.1,4.1-6.2,2.1-9.6c-1.4-2.4-3.8-3.4-6.5-3.1C1450.6,1087.7,1455,1100,1463.3,1097.3z"/>
	<path class="st7" d="M1474.9,1121.6c8.2-2.7,3.8-15.4-4.1-12.7C1462.9,1111.7,1466.7,1124.4,1474.9,1121.6z"/>
	<path class="st7" d="M1443,1122c8.2-2.7,3.8-15.4-4.1-12.7C1431,1112,1435.1,1124.7,1443,1122z"/>
	<path class="st7" d="M1676.7,1073.6c8.2-2.7,3.8-15.4-4.1-12.7c-3.1,2.1-4.1,6.2-2.4,9.3C1671.2,1072.6,1673.9,1074,1676.7,1073.6z
		"/>
	<path class="st7" d="M1574.1,1084.6c8.2-2.7,3.8-15.4-4.1-12.7C1562.1,1074.6,1566.2,1087.3,1574.1,1084.6z"/>
	<path class="st7" d="M1589.5,1150.1c8.2-2.7,3.8-15.4-4.1-12.7C1577.5,1140.2,1581.3,1152.9,1589.5,1150.1z"/>
	<path class="st7" d="M1642.4,1139.1c8.2-2.7,3.8-15.4-4.1-12.7C1630.3,1129.2,1634.1,1142.2,1642.4,1139.1z"/>
	<path class="st7" d="M1260.5,1150.1c3.1-2.1,4.1-6.2,2.4-9.3c-1.4-2.4-4.1-3.4-6.5-3.4c-3.1,2.1-4.1,6.2-2.4,9.3
		C1255.4,1149.1,1257.8,1150.5,1260.5,1150.1z"/>
	<path class="st7" d="M1227.6,1147c8.2-2.7,3.8-15.4-4.1-12.7c-3.1,2.1-4.1,6.2-2.4,9.3C1222.4,1146,1224.8,1147.4,1227.6,1147z"/>
	<path class="st7" d="M1239.2,1171.4c8.2-2.7,3.8-15.4-4.1-12.7c-3.1,2.1-4.1,6.2-2.4,9.3
		C1234.1,1170.4,1236.8,1171.7,1239.2,1171.4z"/>
	<path class="st7" d="M1207.7,1171.4c3.1-2.1,4.1-6.2,2.4-9.3c-1.4-2.4-4.1-3.4-6.5-3.4C1195.3,1161.4,1199.4,1174.1,1207.7,1171.4z
		"/>
	<path class="st7" d="M1441,1123c8.2-2.7,3.8-15.4-4.5-12.7C1428.3,1113.1,1432.7,1125.8,1441,1123z"/>
	<path class="st7" d="M1338.7,1134c8.2-2.7,3.8-15.4-4.1-12.7c-3.1,2.1-4.1,6.2-2.4,9.3C1333.6,1133.3,1336,1134.3,1338.7,1134z"/>
	<path class="st7" d="M1353.8,1199.9c3.1-2.1,4.1-6.2,2.4-9.3c-1.4-2.4-4.1-3.4-6.5-3.4c-3.1,2.1-4.1,6.2-2.4,9.3
		C1348.7,1198.8,1351.1,1199.9,1353.8,1199.9z"/>
	<path class="st7" d="M1406.7,1188.9c8.2-2.7,3.8-15.4-4.5-12.7c-3.1,2.1-4.5,6.2-2.4,9.3
		C1401.5,1187.9,1403.9,1189.2,1406.7,1188.9z"/>
	<path class="st7" d="M1927.1,1081.2c-3.4,1.4-5.1,5.5-3.8,8.9c0.3,1,1.4,2.1,2.1,2.7c3.4-1.7,6.9-3.4,10.3-4.8
		c0.3-3.8-2.1-6.9-5.5-7.5C1929.2,1080.8,1928.1,1080.8,1927.1,1081.2z"/>
	<path class="st7" d="M1461.2,1173.1c3.1-2.1,4.1-6.2,2.4-9.3c-1.4-2.4-4.1-3.4-6.5-3.4c-3.1,2.1-4.1,6.2-2.4,9.3
		C1456.1,1172.1,1458.5,1173.1,1461.2,1173.1z"/>
	<path class="st7" d="M1442,1158.4c3.1-2.1,4.1-6.2,2.4-9.3c-1.4-2.4-4.1-3.4-6.5-3.4c-3.1,2.1-4.1,6.2-2.4,9.3
		C1436.8,1157.3,1439.2,1158.7,1442,1158.4z"/>
	<path class="st7" d="M1417.6,1197.1c3.1-2.1,4.1-6.2,2.4-9.3c-1.4-2.4-4.1-3.4-6.5-3.4C1404.9,1187.2,1409.4,1199.9,1417.6,1197.1z
		"/>
	<path class="st7" d="M1442.3,1232.8c1-3.8-1.4-7.5-5.1-8.2c-1-0.3-2.4-0.3-3.4,0c-3.4,1-5.1,4.8-4.1,8.6c0.3,0.7,0.7,1.7,1.4,2.1
		L1442.3,1232.8z"/>
	<path class="st7" d="M1444.4,1199.9c8.2-2.7,3.8-15.4-4.1-12.7c-3.1,2.1-4.1,6.2-2.4,9.3
		C1439.2,1198.8,1441.6,1200.2,1444.4,1199.9z"/>
	<path class="st7" d="M1471.8,1204.7c8.2-2.7,3.8-15.4-4.5-12.7c-3.1,2.1-4.5,6.2-2.4,9.3C1466.7,1203.7,1469.4,1205,1471.8,1204.7z
		"/>
	<path class="st7" d="M1389.5,1232.5c8.2-2.7,3.8-15.4-4.1-12.7C1377.5,1222.5,1381.3,1235.2,1389.5,1232.5z"/>
	<path class="st7" d="M1367.2,1181c8.2-2.7,3.8-15.4-4.1-12.7c-3.1,2.1-4.1,6.2-2.4,9.3C1362.1,1180.3,1364.8,1181.3,1367.2,1181z"
		/>
	<path class="st7" d="M1294.1,1222.5c8.2-2.7,3.8-15.4-4.1-12.7C1282.1,1212.6,1285.9,1225.3,1294.1,1222.5z"/>
	<path class="st7" d="M1337.7,1247.6c-1-3.4-4.5-5.1-7.9-4.1h-0.3c-2.1,0.7-3.8,2.4-4.1,4.5L1337.7,1247.6z"/>
	<path class="st7" d="M1348,1220.8c8.2-2.7,3.8-15.4-4.1-12.7C1336,1210.9,1339.8,1223.6,1348,1220.8z"/>
	<path class="st7" d="M1214.5,1230.4c8.2-2.7,3.8-15.4-4.5-12.7c-3.1,2.1-4.1,6.2-2.1,9.6
		C1209.4,1229.7,1211.8,1230.8,1214.5,1230.4z"/>
	<path class="st7" d="M1164.8,1252c-1-3.4-4.5-5.5-7.9-4.5h-0.3c-2.1,0.7-3.8,2.4-4.1,4.5H1164.8z"/>
	<path class="st7" d="M1132.2,1252.7c-0.3-3.4-3.4-6.2-6.9-5.8c-0.7,0-1,0-1.7,0.3c-2.7,0.7-4.5,3.1-4.5,5.8L1132.2,1252.7z"/>
	<path class="st7" d="M1119.1,1234.5c8.2-2.7,3.8-15.4-4.1-12.7C1107.1,1224.6,1110.9,1237.3,1119.1,1234.5z"/>
	<path class="st7" d="M1158.6,1226c8.2-2.7,3.8-15.4-4.1-12.7C1146.6,1216,1150.7,1228.7,1158.6,1226z"/>
	<path class="st7" d="M998,1238c3.1-2.1,4.1-6.2,2.1-9.6c-1.4-2.1-3.8-3.4-6.5-3.1C985.3,1228,989.8,1240.7,998,1238z"/>
	<path class="st7" d="M962.4,1258.9c-1-3.4-4.8-5.1-8.2-3.8l0,0c-2.1,0.7-3.8,2.4-4.1,4.5L962.4,1258.9z"/>
	<path class="st7" d="M879.3,1264.4l6.9-0.7c5.8-3.8,1.4-14.4-6.2-11.7c-3.4,1.4-5.1,5.5-3.8,8.9
		C876.9,1262.3,878,1263.4,879.3,1264.4z"/>
	<path class="st7" d="M932.9,1248.3c8.2-2.7,3.8-15.4-4.1-12.7c-3.1,2.1-4.1,6.2-2.4,9.3C927.7,1247.2,930.1,1248.3,932.9,1248.3z"
		/>
	<path class="st7" d="M963.7,1213.9c8.2-2.7,3.8-15.4-4.1-12.7c-3.1,2.1-4.1,6.2-2.1,9.6C958.9,1213.3,961.3,1214.3,963.7,1213.9z"
		/>
	<path class="st7" d="M970.9,1235.2c8.2-2.7,3.8-15.4-4.1-12.7S963,1238,970.9,1235.2z"/>
	<path class="st7" d="M1002.8,1256.8c1-3.8-1-7.5-4.8-8.6c-1-0.3-2.4-0.3-3.8,0c-3.4,1-5.1,4.8-4.1,8.2c0,0.3,0.3,0.7,0.3,1
		L1002.8,1256.8z"/>
	<path class="st7" d="M1019,1244.8c8.2-2.7,3.8-15.4-4.1-12.7S1011.1,1247.6,1019,1244.8z"/>
	<path class="st7" d="M1009.7,1210.5c8.2-2.7,3.8-15.4-4.1-12.7S1001.5,1213.3,1009.7,1210.5z"/>
	<path class="st7" d="M1050.5,1212.9c3.1-2.1,4.1-6.2,2.4-9.3c-1.4-2.4-4.1-3.4-6.5-3.4C1038.2,1203,1042.6,1215.7,1050.5,1212.9z"
		/>
	<path class="st7" d="M1048.5,1192.7c3.1-2.1,4.1-6.2,2.4-9.3c-1.4-2.4-4.1-3.4-6.5-3.4C1036.1,1182.7,1040.2,1195.4,1048.5,1192.7z
		"/>
	<path class="st7" d="M1049.8,1161.4c8.2-2.7,3.8-15.4-4.1-12.7C1037.8,1151.5,1041.6,1164.2,1049.8,1161.4z"/>
	<path class="st7" d="M1092.7,1163.5c8.2-2.7,3.8-15.4-4.1-12.7c-3.1,2.1-4.1,6.2-2.4,9.3C1087.6,1162.5,1090,1163.9,1092.7,1163.5z
		"/>
	<path class="st7" d="M1098.6,1187.2c3.1-2.1,4.1-6.2,2.4-9.3c-1.4-2.4-4.1-3.4-6.5-3.4c-3.1,2.1-4.1,6.2-2.4,9.3
		C1093.4,1186.5,1095.8,1187.5,1098.6,1187.2z"/>
	<path class="st7" d="M1161.3,1170.7c8.2-2.7,3.8-15.4-4.1-12.7C1149.3,1160.8,1153.1,1173.5,1161.3,1170.7z"/>
	<path class="st7" d="M1130.8,1143.6c8.2-2.7,3.8-15.4-4.1-12.7C1118.8,1133.7,1122.6,1146.4,1130.8,1143.6z"/>
	<path class="st7" d="M1126.7,1165.9c8.2-2.7,3.8-15.4-4.5-12.7C1114,1156,1118.5,1168.7,1126.7,1165.9z"/>
	<path class="st7" d="M583.6,1208.5c-3.8,0.7-6.2,4.5-5.1,8.2c0.7,2.4,2.7,4.5,5.1,5.1c3.8-0.7,6.2-4.5,5.1-8.2
		C588.4,1211.2,586.3,1209.1,583.6,1208.5z"/>
	<path class="st7" d="M639.5,1181.7c-8.6,0-8.6,13.4,0,13.4S648.1,1181.7,639.5,1181.7z"/>
	<path class="st7" d="M610.7,1170.7c-3.8,0.7-6.2,4.5-5.1,8.2c0.7,2.4,2.7,4.5,5.1,5.1C619.3,1184.1,619.3,1170.7,610.7,1170.7z"/>
	<path class="st7" d="M612.8,1195.1c-3.8,0.7-6.2,4.5-5.1,8.2c0.7,2.4,2.7,4.5,5.1,5.1C621.3,1208.5,621.3,1195.1,612.8,1195.1z"/>
	<path class="st7" d="M652.9,1163.9c-8.6,0-8.6,13.4,0,13.4c3.8-0.7,6.2-4.5,5.1-8.2C657.4,1166.6,655.3,1164.5,652.9,1163.9z"/>
	<path class="st7" d="M691,1168.3c-3.8,0.7-6.2,4.5-5.1,8.2c0.7,2.4,2.7,4.5,5.1,5.1c3.8-0.7,6.2-4.5,5.1-8.2
		C695.4,1171.1,693.4,1169,691,1168.3z"/>
	<path class="st7" d="M655.3,1206.4c-8.6,0-8.6,13.4,0,13.4c3.8-0.7,6.2-4.5,5.1-8.2C659.8,1208.8,657.7,1207.1,655.3,1206.4z"/>
	<path class="st7" d="M780.2,1177.2c-8.6,0-8.6,13.4,0,13.4C788.8,1190.6,788.8,1177.2,780.2,1177.2z"/>
	<path class="st7" d="M737.6,1163.9c-3.8,0.7-6.2,4.5-5.1,8.2c0.7,2.4,2.7,4.5,5.1,5.1c3.8-0.7,6.2-4.5,5.1-8.2
		C742.4,1166.6,740.4,1164.5,737.6,1163.9z"/>
	<path class="st7" d="M759.9,1144c-8.6,0-8.6,13.4,0,13.4c3.8-0.7,6.2-4.5,5.1-8.2C764.7,1146.4,762.7,1144.6,759.9,1144z"/>
	<path class="st7" d="M791.2,1144c-3.8,0.7-6.2,4.5-5.1,8.2c0.7,2.4,2.7,4.5,5.1,5.1c3.8-0.7,6.2-4.5,5.1-8.2
		C796,1146.4,793.9,1144.6,791.2,1144z"/>
	<path class="st7" d="M809,1184.1c-8.6,0-8.6,13.4,0,13.4S817.6,1184.1,809,1184.1z"/>
	<path class="st7" d="M762.3,1197.5c-8.6,0-8.6,13.4,0,13.4c3.8-0.7,6.2-4.5,5.1-8.2C766.8,1200.2,764.7,1198.2,762.3,1197.5z"/>
	<path class="st7" d="M840.2,1132.6c-8.6,0-8.6,13.4,0,13.4S849.1,1132.6,840.2,1132.6z"/>
	<path class="st7" d="M882.8,1105.9c-3.8,0.7-6.2,4.5-5.1,8.2c0.7,2.4,2.7,4.5,5.1,5.1C891.3,1119.2,891.3,1105.9,882.8,1105.9z"/>
	<path class="st7" d="M856,1108.3c-8.6,0-8.6,13.4,0,13.4c3.8-0.7,6.2-4.5,5.1-8.2C860.5,1111,858.4,1109,856,1108.3z"/>
	<path class="st7" d="M938.7,1103.8c-3.8,0.7-6.2,4.5-5.1,8.2c0.7,2.4,2.7,4.5,5.1,5.1C947.3,1117.2,947.3,1103.8,938.7,1103.8z"/>
	<path class="st7" d="M902.7,1105.9c-3.8,0.7-6.2,4.5-5.1,8.2c0.7,2.4,2.7,4.5,5.1,5.1c3.8-0.7,6.2-4.5,5.1-8.2
		C907.5,1108.6,905.4,1106.6,902.7,1105.9z"/>
	<path class="st7" d="M931.8,1079.1c-3.8,0.7-6.2,4.5-5.1,8.2c0.7,2.4,2.7,4.5,5.1,5.1C940.4,1092.5,940.4,1079.1,931.8,1079.1z"/>
	<path class="st7" d="M893.7,1146c-3.8,0.7-6.2,4.5-5.1,8.2c0.7,2.4,2.7,4.5,5.1,5.1C902.7,1159.4,902.7,1146,893.7,1146z"/>
	<path class="st7" d="M860.5,1172.8c-8.6,0-8.6,13.4,0,13.4c3.8-0.7,6.2-4.5,5.1-8.2C864.9,1175.5,862.9,1173.5,860.5,1172.8z"/>
	<path class="st7" d="M784.6,1212.9c-3.8,0.7-6.2,4.5-5.1,8.2c0.7,2.4,2.7,4.5,5.1,5.1C793.2,1226.3,793.2,1212.9,784.6,1212.9z"/>
	<path class="st7" d="M807.6,1264c2.1-3.1,1.4-7.5-1.7-9.6c-1-0.7-2.1-1-3.4-1c-3.8,0-6.5,3.1-6.5,6.9c0,1,0.3,2.1,0.7,2.7
		L807.6,1264z"/>
	<path class="st7" d="M762,1259.2c0-3.4-3.1-6.2-6.5-6.2l0,0c-3.1,0-5.5,2.1-6.2,4.8L762,1259.2z"/>
	<path class="st7" d="M1045.7,1010.1c-8.6,0-8.6,13.4,0,13.4S1054.3,1010.1,1045.7,1010.1z"/>
	<path class="st7" d="M1117.1,1050.3c-3.8,0.7-6.2,4.5-5.1,8.2c0.7,2.4,2.7,4.5,5.1,5.1c3.8-0.7,6.2-4.5,5.1-8.2
		C1121.5,1052.7,1119.5,1050.6,1117.1,1050.3z"/>
	<path class="st7" d="M1092.4,1023.5c-3.8,0.7-6.2,4.5-5.1,8.2c0.7,2.4,2.7,4.5,5.1,5.1C1101,1036.9,1101,1023.5,1092.4,1023.5z"/>
	<path class="st7" d="M1063.6,1030c-3.8,0.7-6.2,4.5-5.1,8.2c0.7,2.4,2.7,4.5,5.1,5.1c3.8-0.7,6.2-4.5,5.1-8.2
		C1068,1032.8,1066,1030.7,1063.6,1030z"/>
	<path class="st7" d="M1072.5,1007.7c-8.6,0-8.6,13.4,0,13.4c3.8-0.7,6.2-4.5,5.1-8.2C1076.9,1010.5,1074.9,1008.4,1072.5,1007.7z"
		/>
	<path class="st7" d="M1137,996.8c-8.6,0-8.6,13.4,0,13.4c3.8-0.7,6.2-4.5,5.1-8.2C1141.8,999.2,1139.7,997.1,1137,996.8z"/>
	<path class="st7" d="M1195.3,1021.1c-8.6,0-8.6,13.4,0,13.4S1203.9,1021.1,1195.3,1021.1z"/>
	<path class="st7" d="M1204.2,974.1c-8.6,0-8.6,13.4,0,13.4S1212.8,974.1,1204.2,974.1z"/>
	<path class="st7" d="M1210.8,1005.3c-3.8,0.7-6.2,4.5-5.1,8.2c0.7,2.4,2.7,4.5,5.1,5.1C1219.3,1019.1,1219.3,1005.3,1210.8,1005.3z
		"/>
	<path class="st7" d="M1179.5,1005.3c-8.6,0-8.6,13.4,0,13.4c3.8-0.7,6.2-4.5,5.1-8.2C1184,1008.1,1181.9,1006,1179.5,1005.3z"/>
	<path class="st7" d="M1157.2,1043.4c-3.8,0.7-6.2,4.5-5.1,8.2c0.7,2.4,2.7,4.5,5.1,5.1C1165.8,1056.8,1165.8,1043.4,1157.2,1043.4z
		"/>
	<path class="st7" d="M1047.8,1130.6c-3.8,0.7-6.2,4.5-5.1,8.2c0.7,2.4,2.7,4.5,5.1,5.1C1056.4,1144,1056.4,1130.6,1047.8,1130.6z"
		/>
	<path class="st7" d="M1023.4,1103.8c-8.6,0-8.6,13.4,0,13.4c3.8-0.7,6.2-4.5,5.1-8.2C1027.9,1106.2,1025.8,1104.1,1023.4,1103.8z"
		/>
	<path class="st7" d="M1003.2,1088c-3.8,0.7-6.2,4.5-5.1,8.2c0.7,2.4,2.7,4.5,5.1,5.1c3.8-0.7,6.2-4.5,5.1-8.2
		C1008,1090.8,1005.9,1088.7,1003.2,1088z"/>
	<path class="st7" d="M1068,1077c-8.6,0-8.6,13.4,0,13.4C1076.6,1090.4,1076.6,1077,1068,1077z"/>
	<path class="st7" d="M1087.9,1123.7c-8.6,0-8.6,13.4,0,13.4S1096.8,1123.7,1087.9,1123.7z"/>
	<path class="st7" d="M1195.3,1061.3c-3.8,0.7-6.2,4.5-5.1,8.2c0.7,2.4,2.7,4.5,5.1,5.1C1203.9,1074.6,1203.9,1061.3,1195.3,1061.3z
		"/>
	<path class="st7" d="M1217.6,1054.7c-3.8,0.7-6.2,4.5-5.1,8.2c0.7,2.4,2.7,4.5,5.1,5.1c3.8-0.7,6.2-4.5,5.1-8.2
		C1222.1,1057.1,1220,1055.1,1217.6,1054.7z"/>
	<path class="st7" d="M1217.6,1027.6c-8.6,0-8.6,13.4,0,13.4S1226.2,1027.6,1217.6,1027.6z"/>
	<path class="st7" d="M1277.7,1025.6c-8.6,0-8.6,13.4,0,13.4S1286.2,1025.6,1277.7,1025.6z"/>
	<path class="st7" d="M1224.1,989.9c-3.8,0.7-6.2,4.5-5.1,8.2c0.7,2.4,2.7,4.5,5.1,5.1c3.8-0.7,6.2-4.5,5.1-8.2
		C1228.6,992.6,1226.9,990.6,1224.1,989.9z"/>
	<path class="st7" d="M1239.9,1003.3c-8.6,0-8.6,13.4,0,13.4c3.8-0.7,6.2-4.5,5.1-8.2C1244.4,1006,1242.3,1004,1239.9,1003.3z"/>
	<path class="st7" d="M1300,1036.9c-8.6,0-8.6,13.4,0,13.4c3.8-0.7,6.2-4.5,5.1-8.2C1304.4,1039.3,1302.4,1037.2,1300,1036.9z"/>
	<path class="st7" d="M1282.1,1070.2c-8.6,0-8.6,13.4,0,13.4S1290.7,1070.2,1282.1,1070.2z"/>
	<path class="st8" d="M1324.7,718.8c-2.1-0.7-4.1,0.3-4.8,2.1c-17.2,35-20.6,69,3.8,101.2c-18.2,34.3-88.9,172.9-106.4,208.6
		c-12-7.2-24.4-13.7-37.1-18.9c-5.8-2.7-12.4-4.1-18.9-4.5c-3.4-0.3-16.5-1-26.4,5.5c-11,7.2-19.2,22.3-25,33.6
		c-8.2,16.1-26.4,54.6-35.3,74.8c77.9,1,159.2,8.6,224.4,48c8.6-16.8,15.8-34,22.3-51.8c9.9-28.8-23.3-42.9-43.6-53.5
		c-4.8-2.7-14.4-7.9-14.4-7.9l106.4-211c15.8,0.7,37.7-4.1,53.2-18.2c17.2-15.4,28.5-42.2,27.8-43.2
		C1443.4,773.7,1348,727.1,1324.7,718.8z M1355.2,815.9c-17.8-7.9-23.3-40.1-15.4-63.1l77.5,39.1
		C1406,816.3,1380.2,826.9,1355.2,815.9L1355.2,815.9z"/>
	<path class="st6" d="M1281.4,1159.4c5.1-13.7,11-29.2,9.9-43.6c-1.4-18.9-14.4-26.1-29.2-35c-12-7.5-61.1-35-70.7-39.5
		c-9.6-4.5-30.9-17.2-52.5,10c-17.2,21.6-38.8,50.8-52.1,70C1153.8,1123,1223.1,1130.2,1281.4,1159.4z"/>
	<path class="st6" d="M1150.4,1033.5c9.3-5.5,20.9-6.5,31.2-2.4c14.4,5.8,28.5,12.7,42.2,20.9c18.5,10.3,41.2,22.6,55.2,32.3
		c9.6,6.5,16.1,13,17.8,25c2.4,15.8-2.4,31.6-7.5,46.3c-0.7,2.4-1.7,4.8-2.4,6.9c2.4,1.4,4.5,2.4,6.9,3.8
		c4.5-8.6,8.6-17.5,12.4-26.4c5.1-12.4,18.5-34.3,6.2-46c-10.6-10-24.4-17.2-37.1-24c-27.8-14.4-54.9-29.5-82.3-44.6
		c-19.9-11-49.4-20.6-67.2,7.5c-16.1,25.4-40.5,81.7-40.5,81.7c8.9-12.4,22-31.2,30.5-43.2C1125.3,1057.8,1135.6,1041,1150.4,1033.5
		z"/>
	<path class="st6" d="M1325,725.7c6.5,0,119.1,56.3,117.7,59.7c-7.9,21.6-23.7,40.8-42.9,49.1c-14.1,6.2-34,4.1-34.7,5.1
		l-107.7,213.1v0.3c-12-5.8-23.7-11.7-35.3-17.8c16.5-34,88.2-174.6,107.7-211.4c0.3-1,0.3-2.1,0-2.7c0-0.7-0.3-1-0.7-1.7
		C1306.5,789.2,1309.2,758.3,1325,725.7z M1425.2,790.5c0-0.7-86.1-46.3-87.8-46c-2.4-0.3-9.9,26.1-7.2,41.5
		c2.4,13.7,11,30.2,23.3,35.7C1380.2,834.5,1412.8,817.3,1425.2,790.5z"/>
	<path class="st9" d="M1353.1,849.6c-3.4,7.2-87.1,174.3-90.9,181.5c-3.8,7.2-15.4-7.9-4.8-29.2c5.1-10.3,68.6-135.2,72.4-142.1
		C1338.4,844.8,1356.9,842,1353.1,849.6z"/>
	<path class="st9" d="M1235.5,1141.2c17.5-18.9,35-37.7,40.1-44.9c-3.4-5.8-35.3-23.7-35.3-23.7l-87.8,52.8
		C1180.6,1128.2,1208.4,1133.3,1235.5,1141.2z"/>
	<path class="st10" d="M1278.7,1158l3.4-10l-7.9,7.5L1278.7,1158z"/>
	<path class="st8" d="M1149.7,908.9c-0.3-1-1-1.7-2.1-2.1c5.5-5.5,6.5-15.4,6.9-22.6c0.3-7.2-1.4-20.9-9.6-26.8
		c-8.2-5.8-20.6-13.7-139.3-15.1s-169.5,7.9-186.3,13.7c-12,4.1-14.8,11-14.8,25.7s3.4,25.7,6.2,27.4c3.1,1.4,6.2,2.4,9.6,2.7
		c3.4,10.3,7.2,20.2,11.7,29.9c6.5,35.7,33.3,170.2,46.3,225.1c24,2.1,48,3.4,72-0.3c29.5-4.8,57.3-13,87.5-13.7
		c21.3-0.3,42.2,2.1,63.1,6.9c0.3-4.5,0.3-9.6,0.7-15.1c1-17.5,8.9-107.7,8.6-108.1c8.6-6.2,16.5-13,23.7-20.6
		C1161,985.8,1162.7,945.3,1149.7,908.9z M1113.7,1005.7c5.1-31.6,12.4-57.6,17.2-90.2C1141.8,947.3,1141.1,981,1113.7,1005.7z"/>
	<path class="st8" d="M882.8,1000.9c-24.7-23.7-41.2-51.1-54.6-84.7l12.4,1.7c5.8,15.8,13.7,30.9,23.3,44.6
		c11.7,16.8,25.7,31.6,41.9,44.3c31.6,25,71,38.1,111.5,37.1c30.9-0.7,62.8-5.1,85.1-20.9c49.4-34.7,46.7-77.9,34.7-110.8
		c2.1-0.7,4.5-1,6.5-1c13.7,38.4,9.3,76.9-20.2,106.4c-30.2,30.2-76.2,43.2-118,40.1S918.1,1034.8,882.8,1000.9z"/>
	<path class="st6" d="M1146.9,880.8c0-1.7-0.3-3.4-0.7-5.1c-0.3-2.1-1-9.3-5.8-12.7c-6.9-5.5-14.8-6.5-23.3-8.6s-53.9-5.5-69.6-6.2
		c-20.6-0.7-87.5-1.4-118,0s-68.6,3.4-80.6,5.5c-27.1,4.5-35,10.6-37.7,17.5s0,27.8,3.4,32.3c3.4,4.5,63.5,17.2,160.6,20.9
		s157.5-17.5,163.3-20.9S1147.6,889.4,1146.9,880.8z M957.6,882.5c-52.1-1.7-130.7-3.1-129-15.1s83.4-13.4,129.3-13.7
		s73.1,0.3,100.5,1c13.7,0.3,77.5,3.4,77.5,14.8C1136,880.8,1018.3,884.6,957.6,882.5L957.6,882.5z"/>
	<path class="st6" d="M1107.1,1010.1c-19.6,17.5-64.5,28.1-93,26.8c-37.7-1.7-79.3-12.4-107.7-38.1c-29.2-26.4-43.9-42.9-59-80.6
		c0,0,47.7,12.4,128,12.7c124.9,0.7,149.9-16.5,149.9-16.5C1118.8,948.7,1106.8,1009.4,1107.1,1010.1z"/>
	<path class="st6" d="M950,1166.9c29.5-4.8,57.3-13,87.5-13.7c19.2-0.3,38.1,1.4,57,5.1v-1.4c1-14.1,5.8-106,8.6-117
		c-25,16.1-54.6,24.4-84.4,24c-76.2-1.4-151.3-46-178.4-109.5c6.2,34,32.3,164.7,44.3,212.7C906.8,1169.7,928.4,1169.7,950,1166.9z"
		/>
	<path class="st9" d="M967.5,888.7l37.7,1c0,0,0.3,17.5-0.3,28.5c-6.5,2.4-26.8,3.4-36.7,0C967.2,907.9,967.5,893.5,967.5,888.7z"/>
	<path class="st9" d="M1006.3,1030.4l-1-93.3c-12.4,0.7-24.4,0.3-36.7-1c0,15.1,0.3,87.2,0.3,87.2
		C981.2,1025.9,993.6,1029,1006.3,1030.4z"/>
	<path class="st9" d="M1005.9,1156.3l0.3-88.9c-12.7,0-25.4-2.4-37.1-6.9v102.9C981.2,1161.1,993.6,1158.4,1005.9,1156.3z"/>
	<path class="st6" d="M1088.6,1157.3c2.4-18.9,4.1-61.8,4.1-61.8l-35.3,58.3C1068,1154.2,1078.3,1155.3,1088.6,1157.3z"/>
</g>
</svg>
