<?xml version="1.0" encoding="utf-8"?>
<!-- Generator: Adobe Illustrator 26.5.0, SVG Export Plug-In . SVG Version: 6.00 Build 0)  -->
<svg version="1.1" id="Layer_1" xmlns="http://www.w3.org/2000/svg" xmlns:xlink="http://www.w3.org/1999/xlink" x="0px" y="0px"
	 viewBox="0 0 2521 2911" style="enable-background:new 0 0 2521 2911;" xml:space="preserve">
<style type="text/css">
	.st0{fill:#212D2C;}
	.st1{clip-path:url(#SVGID_00000008127289224802760030000009035257543582961069_);}
	.st2{fill:#2DE0C6;}
	.st3{fill:#A9FDFF;}
	.st4{fill:#24E2BE;}
</style>
<g>
	<g>
		<path class="st0" d="M1260.5,2911L0,2183.3V727.8L1260.5,0L2521,727.8v1455.5L1260.5,2911z"/>
	</g>
	<g>
		<defs>
			<polygon id="SVGID_1_" points="2481.6,2160.5 2481.6,750.5 1260.5,45.5 39.4,750.5 39.4,2160.5 1260.5,2865.5 			"/>
		</defs>
		<clipPath id="SVGID_00000114755068192692212830000002752870483959475874_">
			<use xlink:href="#SVGID_1_"  style="overflow:visible;"/>
		</clipPath>
		<g style="clip-path:url(#SVGID_00000114755068192692212830000002752870483959475874_);">
			<path class="st2" d="M230.4,1758.9h43.1v36.3c4.3-12.4,11.2-22.3,20.8-29.8c9.3-7.4,20.8-11.4,32.7-11.3c8.5,0,14.4,0.8,17.6,2.4
				l-6,43.9c-2.4-1.6-7.6-2.4-15.6-2.4c-12.5,0-23.9,4-34.1,12.1c-10.2,8.1-15.4,21-15.4,38.7v95.2h-43.1L230.4,1758.9z"/>
			<path class="st3" d="M412.4,1758.9h43.1v33.5c5.8-12.6,14.4-22.2,25.7-28.6c11.3-6.5,24.3-9.7,38.9-9.7
				c32.7,0.3,52.8,11.7,60.3,34.3c5.8-10.5,14.6-18.8,26.3-25c11.4-6.1,24.2-9.3,37.1-9.3c19.2,0,33.7,3.7,43.5,11.1
				c9.8,7.4,16.4,17.9,19.8,31.4s5,31.8,5,54.6v92.8h-43.5v-93.1c0-21.8-2.2-37.4-6.6-46.8c-4.4-9.4-12.8-14.1-25.3-14.1
				c-16.8,0-29.5,5.7-38.1,17.1c-8.6,11.4-13,26.4-13,44.9v92h-43.1v-99.6c0-14.2-0.5-24.9-1.6-31.9c-1.1-7-4-12.5-8.8-16.5
				c-4.8-4-12.5-6-23.1-6.1c-9.3,0-18,2.8-26.1,8.5c-8.1,5.6-14.6,13.2-19.6,22.8c-4.9,9.5-7.5,20.1-7.4,30.8v91.9h-43.5V1758.9z"/>
			<path class="st3" d="M802.6,1936.1c-14-7.9-25.1-19.2-33.5-33.9s-12.6-31.8-12.6-51.4c0-19.4,3.7-36.3,11-50.8
				c7.3-14.5,17.8-25.8,31.3-33.9c13.6-8.1,29.5-12.1,47.9-12.1c10.2-0.1,20.4,1.8,29.9,5.6c9.3,3.8,17.2,8.4,23.5,13.9
				c6.4,5.5,10.6,10.9,12.8,16.3l0.8-31h41.1v185h-40.7l-0.8-32.7c-4.5,9.7-12.8,18.2-24.7,25.6c-12,7.4-25.4,11.1-40.3,11.1
				C832.3,1948.1,816.5,1944,802.6,1936.1z M893.8,1895.8c10.4-10.6,15.6-24.5,15.6-41.7v-2.8c0-11.6-2.4-21.9-7.2-31
				c-4.8-9.1-11.3-16.3-19.6-21.4c-8.1-5.1-17.6-7.7-27.1-7.7c-17,0-30.2,5.6-39.5,16.7c-9.3,11.2-14,25.6-14,43.3
				c0,18,4.6,32.6,13.8,43.7c9.2,11.2,22.4,16.7,39.7,16.7C870.6,1911.7,883.4,1906.4,893.8,1895.8L893.8,1895.8z"/>
			<path class="st3" d="M1011.5,1758.9h43.1v36.3c4.3-12.4,11.2-22.3,20.8-29.8c9.3-7.4,20.8-11.4,32.7-11.3
				c8.5,0,14.4,0.8,17.6,2.4l-6,43.9c-2.4-1.6-7.6-2.4-15.6-2.4c-12.5,0-23.9,4-34.1,12.1c-10.2,8.1-15.4,21-15.4,38.7v95.2h-43.1
				L1011.5,1758.9z"/>
			<path class="st3" d="M1321.6,1944h-50.7l-37.1-60.5l-10.4-20.6l-23.9,26.2v54.8H1158v-296.3h41.1v162.5l-0.8,31.4l69.8-82.6h53.1
				l-69,77.4L1321.6,1944z"/>
			<path class="st3" d="M1391.3,1936.1c-14-7.9-25.1-19.2-33.5-33.9c-8.4-14.6-12.6-31.8-12.6-51.4c0-29.3,8.1-52.7,24.3-70.4
				s38.2-26.4,65.9-26.4c15.4,0,29.5,3.8,42.3,11.5c12.8,7.7,21.4,16.9,25.9,27.6l-2-31.4v-114.1h42.3V1944h-41.1l-0.8-32.7
				c-4.5,9.7-12.8,18.2-24.7,25.6c-12,7.4-25.4,11.1-40.3,11.1C1421,1948.1,1405.2,1944,1391.3,1936.1z M1482.5,1895.4
				c10.4-10.6,15.6-24.5,15.6-41.7v-2.8c0-11.6-2.4-21.9-7.2-31c-4.8-9.1-11.3-16.3-19.6-21.4c-8.1-5.1-17.6-7.7-27.1-7.7
				c-17,0-30.2,5.6-39.5,16.7c-9.3,11.2-14,25.6-14,43.3c0,18,4.6,32.6,13.8,43.7c9.2,11.1,22.4,16.7,39.7,16.7
				C1459.3,1911.3,1472.1,1906,1482.5,1895.4z"/>
			<path class="st3" d="M1636.1,1935.1c-14.4-8.3-26.1-20.5-33.9-35.1c-8-14.8-12-31.2-12-49.2c0-17.7,3.9-34,11.8-48.8
				c7.7-14.6,19.4-26.8,33.7-35.1c14.6-8.6,31.5-12.9,50.7-12.9c19.2,0,36,4.3,50.5,12.9c14.2,8.3,25.9,20.5,33.5,35.1
				c7.8,14.8,11.8,31,11.8,48.8c0,18-4,34.4-12,49.2c-7.8,14.6-19.5,26.7-33.7,35.1c-14.5,8.6-31.2,12.9-50.1,12.9
				S1650.8,1943.7,1636.1,1935.1z M1724.1,1895.2c8.9-11.6,13.4-26.1,13.4-43.5c0-17.5-4.8-32.2-14.4-44.1
				c-9.6-12-22.2-17.9-37.9-17.9c-15.2,0-27.4,5.9-36.5,17.7c-9.2,11.8-13.8,26.6-13.8,44.3c0,17.2,4.9,31.7,14.8,43.3
				s22.5,17.5,37.9,17.5C1703.1,1912.5,1715.2,1906.7,1724.1,1895.2L1724.1,1895.2z"/>
			<path class="st3" d="M1939.9,1841.2l-54.3,102.8h-7.6l-77-185h46.3l39.5,107.6l52.3-107.6h1.6l52.7,106.8l39.5-106.8h45.5
				l-76.7,185h-7.6L1939.9,1841.2z"/>
			<path class="st3" d="M2107.9,1758.9h42.3l0.4,33.9c5.1-11.3,13-20.6,23.9-27.8c10.9-7.3,23.7-10.9,38.3-10.9
				c18.9,0,33.4,4,43.5,11.9s16.9,19,20.4,33.2c3.5,14.2,5.2,32.8,5.2,55.6v89.2h-43.1v-87.9c0-23.4-2.3-40.3-6.8-50.6
				c-4.5-10.3-13.8-15.5-27.9-15.5c-8,0-16.1,2.5-24.3,7.5c-8.2,5-15.1,12.2-20.6,21.5c-5.5,9.4-8.2,20.4-8.2,33.1v92h-43.1
				L2107.9,1758.9z"/>
			<path class="st3" d="M294,1682.5c-22.4,0.8-44.7,4.4-66.2,10.6l211.1-134c0.3-3.7,1.3-9.1,5-13.9c5.8-7.4,14.9-9,16.7-9.4
				c21.1-4.7,80.5-46.8,123.3-97.1c0,0,38.7-45.4,63.6-104.2c4.5-10.7,7.4-18.6,7.8-19.8c91.5-239.6,941.4-406,1036.4-424.1
				c139.8-26.6,334.2-59.9,569.5-88.1c-103,31.4-203.8,69.6-301.7,114.2c-583.3,265.9-910.1,692.8-1149.4,597.4
				c-0.9-0.4-2.6-1.1-5-2c-57.3-22.5-138.4-54.1-207.7-28c-48.4,18.2-103.1,69.2-112.1,85.4c-1.1,1.8-5.3,10.5-14.1,13.7
				c-6.4,2.3-13,0.9-17.9-0.9C395.5,1607.6,341.8,1641.4,294,1682.5L294,1682.5z"/>
			<g>
				<path class="st0" d="M653.2,1400.3c178.3-120.5,413.4-256.3,703.5-369.4c229.1-89.3,466.9-154.4,709.6-194.1
					c-326.7,85-642.7,195.6-948.1,331.8C960.3,1239,805.3,1316.2,653.2,1400.3z"/>
				<path d="M653.3,1400.6l-0.3-0.5c220.6-149.1,457.3-273.4,703.6-369.4c228.7-89.2,467.4-154.5,709.6-194.1l0.1,0.6
					c-162.6,42.3-324.7,91.7-482,146.7c-157.3,55-314.1,117.3-466.1,185.1C961.2,1239,804.8,1316.9,653.3,1400.6z M2059.7,838.2
					c-239.9,39.7-476.4,104.6-702.9,193c-244.1,95.1-478.9,218.1-697.8,365.5c149.6-82.4,304-159.2,459-228.3
					c152-67.8,308.8-130.1,466.1-185.1C1739.4,928.9,1899.3,880.1,2059.7,838.2z"/>
			</g>
			<path class="st0" d="M1323.8,1322.9c-26.8-44.6-68.4-78.3-117.6-95.2c60.6,3.3,119.2,22.6,169.8,56"/>
			<path class="st0" d="M1490.8,1198.7c-34.7-39.3-79.5-68.4-129.4-84.3c63.8,1.8,126.4,17.4,183.5,45.7"/>
			<path class="st0" d="M1581.2,1134.5c-11.9-9.1-24.8-17-38.3-23.6c-32.9-16-60.4-19.2-60.2-20.6c0.3-1.4,27.4,1.4,60.6,9.7
				c20.5,5.1,40.6,11.7,60.2,19.7"/>
		</g>
	</g>
	<g>
		<path class="st4" d="M1260.5,2911L0,2183.3V727.8L1260.5,0L2521,727.8v1455.5L1260.5,2911z M78.8,2137.8L1260.5,2820l1181.7-682.3
			V773.2L1260.5,91L78.8,773.2V2137.8z"/>
	</g>
</g>
</svg>
