<?xml version="1.0" encoding="utf-8"?>
<!-- Generator: Adobe Illustrator 22.0.1, SVG Export Plug-In . SVG Version: 6.00 Build 0)  -->
<svg version="1.1" id="Layer_1" xmlns="http://www.w3.org/2000/svg" xmlns:xlink="http://www.w3.org/1999/xlink" x="0px" y="0px"
	 viewBox="0 0 735 852" style="enable-background:new 0 0 735 852;" xml:space="preserve">
<style type="text/css">
	.st0{fill:#DB1F26;}
	.st1{opacity:0.25;fill:url(#SVGID_1_);enable-background:new    ;}
	.st2{fill:#A51D21;}
	.st3{fill:#E6B35A;}
	.st4{opacity:0.94;}
	.st5{fill:#FFFFFF;}
</style>
<polygon class="st0" points="715.1,224.7 367.5,24 367.5,24 19.8,224.7 19.8,626.2 367.5,826.9 715.1,626.2 "/>
<title>rmarkdown</title>
<linearGradient id="SVGID_1_" gradientUnits="userSpaceOnUse" x1="366.9532" y1="973.1201" x2="368.2531" y2="509.6" gradientTransform="matrix(1 0 0 -1 0 852)">
	<stop  offset="0" style="stop-color:#FFFFFF;stop-opacity:0.83"/>
	<stop  offset="0.56" style="stop-color:#FFFFFF;stop-opacity:0.37"/>
	<stop  offset="1" style="stop-color:#FFFFFF;stop-opacity:0"/>
</linearGradient>
<path class="st1" d="M368,341.7c128.5,0,239-57.2,288.1-139.3L367.5,35.8l0,0L79.6,202C128.6,284.3,239.3,341.7,368,341.7z"/>
<path class="st2" d="M734.9,637.4V213.1l-29.3-16.9L427.8,35.8L367.5,1l-60.3,34.8L29.4,196.2L0.1,213.1v424.2l29.3,16.9
	l281.3,162.4l56.9,32.8l56.9-32.8l281.3-162.4L734.9,637.4z M29.4,621.5V231l50.2-29L367.5,35.8l0,0l288.6,166.6l49.5,28.6v390.5
	L367.5,816.7L29.4,621.5z"/>
<path class="st3" d="M367,633.9c0.3-0.3,0.6-0.6,0.9-0.9h-0.3C367.5,633.3,367.3,633.6,367,633.9z"/>
<g class="st4">
	<path class="st5" d="M67.7,573.5c0-7.7-0.1-14.3-0.5-20.4h10.4l0.4,12.8h0.5c3-8.8,10.1-14.3,18.1-14.3c1.1,0,2.3,0.1,3.4,0.4v11.2
		c-1.3-0.3-2.7-0.4-4.1-0.4c-8.4,0-14.3,6.3-15.9,15.3c-0.3,1.8-0.5,3.7-0.5,5.5v34.8H67.7V573.5z"/>
	<path class="st5" d="M108,570.8c0-6.8-0.1-12.3-0.5-17.7h10.4l0.5,10.5h0.4c3.7-6.2,9.7-12,20.5-12c8.3-0.1,15.8,5.2,18.5,13.1h0.3
		c1.8-3.3,4.3-6.2,7.3-8.5c3.9-3,8.2-4.6,14.4-4.6c8.6,0,21.5,5.7,21.5,28.3v38.5h-11.6v-37c0-12.5-4.6-20.1-14.2-20.1
		c-6.8,0-12,5-14,10.8c-0.6,1.9-0.9,3.9-0.9,5.9v40.4h-11.6v-39.1c0-10.4-4.6-18-13.6-18c-7.4,0-12.8,5.9-14.7,11.9
		c-0.7,1.9-1,3.8-1,5.8v39.4H108V570.8z"/>
	<path class="st5" d="M252.5,618.5l-0.9-8.2h-0.4c-4.7,6.3-12.2,9.9-20,9.7c-13.2,0-20-9.3-20-18.8c0-15.8,14-24.4,39.3-24.3v-1.3
		c0-5.4-1.5-15.1-14.9-15.1c-6,0-11.9,1.7-17,4.9l-2.7-7.8c5.4-3.5,13.2-5.8,21.5-5.8c20,0,24.8,13.6,24.8,26.7v24.4
		c-0.1,5.2,0.3,10.5,1.1,15.7L252.5,618.5z M250.7,585.1c-13-0.3-27.7,2-27.7,14.7c0,7.7,5.1,11.3,11.2,11.3
		c7.1,0.2,13.5-4.2,15.8-10.9c0.4-1.2,0.7-2.5,0.7-3.8L250.7,585.1z"/>
	<path class="st5" d="M277,573.5c0-7.7-0.1-14.3-0.5-20.4h10.4l0.4,12.8h0.5c3-8.8,10.1-14.3,18.1-14.3c1.1,0,2.3,0.1,3.4,0.4v11.2
		c-1.3-0.3-2.7-0.4-4-0.4c-8.4,0-14.3,6.3-15.9,15.3c-0.3,1.8-0.5,3.7-0.5,5.5v34.8H277V573.5z"/>
	<path class="st5" d="M329.2,583.1h0.3c1.6-2.3,3.9-5.1,5.8-7.4l19.2-22.5h14.3L343.5,580l28.8,38.5h-14.4l-22.5-31.3l-6.1,6.8v24.6
		h-11.7v-95.9h11.7V583.1z"/>
	<path class="st5" d="M432.8,522.6v79c0,5.8,0.1,12.4,0.5,16.9h-10.7l-0.5-11.3h-0.3c-3.6,7.3-11.6,12.8-22.3,12.8
		c-15.8,0-27.9-13.4-27.9-33.2c-0.1-21.7,13.4-35.1,29.3-35.1c10,0,16.7,4.7,19.7,10h0.3v-39L432.8,522.6z M421,579.7
		c0-1.7-0.2-3.4-0.5-5c-1.8-8.1-8.9-13.8-17.1-13.8c-12.3,0-19.6,10.8-19.6,25.2c0,13.2,6.5,24.2,19.3,24.2c8,0,15.3-5.3,17.4-14.2
		c0.4-1.7,0.6-3.4,0.5-5.1V579.7z"/>
	<path class="st5" d="M507.4,585.2c0,24.2-16.7,34.7-32.5,34.7c-17.7,0-31.3-13-31.3-33.6c0-21.9,14.3-34.7,32.4-34.7
		C494.7,551.6,507.4,565.3,507.4,585.2z M455.5,585.9c0,14.3,8.2,25.1,19.8,25.1c11.3,0,19.9-10.7,19.9-25.4
		c0-11.1-5.5-25.1-19.6-25.1S455.5,573.5,455.5,585.9z"/>
	<path class="st5" d="M521.8,553.1l8.6,33.2c1.9,7.3,3.7,14,4.9,20.8h0.4c1.5-6.6,3.6-13.6,5.8-20.7l10.7-33.3h10l10.1,32.7
		c2.4,7.8,4.3,14.7,5.8,21.3h0.4c1.3-7.2,2.9-14.2,5-21.2l9.3-32.8h11.8l-21.1,65.3h-10.8l-10-31.2c-2.3-7.1-4.2-14.2-5.8-21.5h-0.3
		c-1.6,7.3-3.5,14.5-5.9,21.6l-10.5,31h-10.8l-19.7-65.3H521.8z"/>
	<path class="st5" d="M612.1,570.8c0-6.8-0.1-12.3-0.5-17.7h10.5l0.7,10.8h0.3c3.2-6.2,10.8-12.3,21.6-12.3c9,0,23.1,5.4,23.1,27.8
		v39h-11.9v-37.6c0-10.5-3.9-19.3-15.1-19.3c-7.4,0.1-13.9,5-15.9,12.2c-0.6,1.8-0.8,3.7-0.8,5.5v39.3h-11.9V570.8z"/>
</g>
<path class="st2" d="M507.5,199.5c-21.8,2.7-41.8,10.4-60.3,22.1c-23.8,15.1-43.2,34.7-59.4,57.6c-15.2,21.5-27.1,44.7-33.6,70.4
	c-1,4.1-1.7,8.3-2.6,12.5l0.7,0.2c0.6-0.8,1.3-1.6,1.9-2.5c18.5-25.9,39-50.4,61.3-73.1c20.2-20.5,41.9-39.4,66.3-54.9
	c0.5-0.4,1.1-0.6,1.7-0.9c-0.3,0.6-0.8,1.2-1.4,1.6c-17.8,13.4-34.6,28.1-50.4,43.9c-33.6,33.2-63.1,70.3-87.9,110.6
	c-0.8,1.3-1.8,1.5-3.1,1.5c-12.5,0-24.9,0-37.4,0c-3.4,0-4.9,1.3-5,4.2c-0.1,3.5-0.1,7,0,10.5c0.1,2.7,1.6,4.1,4.3,4.2
	c1.5,0.1,3,0,4.6,0v15.3h-18.9c-9,0-13.3,4-14.2,13.1c-1.3,11.7-2.7,23.4-4.2,35.1c-1.1,8.2,2.4,12.4,10.6,12.4h118.7
	c0.8,0,1.5,0,2.2,0c5-0.1,9-4.3,8.8-9.3c0-0.4-0.1-0.8-0.1-1.2c-1.6-12.9-3.2-25.9-4.7-38.8c-0.9-7-5.4-11.1-12.6-11.2
	c-5.8-0.1-11.6,0-17.5,0h-2.7v-15.3h3.6c3.7,0,5.2-1.4,5.2-5.1c0-2.9,0-5.8,0-8.7c0-3.7-1.4-5.1-5.1-5.1c-6.6,0-13.3,0-20,0h-3.9
	c2.2-3.7,4.2-6.8,6-10.1c0.7-1.6,2.4-2.5,4.1-2.4c25-0.2,49.3-4.4,71.9-15.5c5.1-2.5,10-5.5,15.6-8.6c-17-8.2-34.8-14.6-53.1-19
	c0.9-0.1,1.1-0.2,1.4-0.2c20.6,0.2,40.9,2.6,60.5,9.4c1.8,0.8,4,0.3,5.3-1.1c8.7-7.7,16.6-16.4,23.5-25.8c13.3-18.1,23-38,31-58.9
	c1.8-4.6,3.4-9.3,5.3-14.5l-31.7-3.3c0.3-0.1,0.7-0.3,1-0.3c10.2-1.2,20.4-2.5,30.7-3.6c1.9-0.2,2.7-0.7,3.2-2.5
	c1.2-4.6,2.7-9,4-13.6c1.8-6.2,3.5-12.4,5.3-18.6C529.8,198.5,515.1,198.6,507.5,199.5z M360.6,391h5.6v13.5h-5.6V391z M354.7,427.5
	c0.4,1.4,0.5,2.9,0.3,4.4c-0.2,2.4-1,4.8-2.4,6.7c-1.2,1.6-2.6,2.9-4.3,4c-3.6,2.5-7.6,4.2-11.9,5c-1.6,0.3-3.3,0.5-4.9,0.7l0,0
	c2.6,2.9,5.7,5.3,9.1,7.2c2.3,1.2,4.7,2.1,7.3,2.5c2.8,0.5,5.7,0.3,8.4-0.4c0.1,0,0.2,0,0.3,0l0.1,0.1c-0.3,0.4-0.6,0.9-0.9,1.3
	c-1,1.2-2.3,2-3.8,2.5c-1.9,0.7-3.9,0.9-5.8,0.6c-3.1-0.4-6-1.6-8.5-3.5c-3.7-2.7-6.8-6.3-8.8-10.4c-0.1-0.1-0.1-0.3-0.2-0.4
	s0,0,0-0.1l1.6-0.3c5.1-0.8,10-2.9,14.1-6.1c2.5-1.9,4.4-4.5,5.5-7.4c0.6-1.5,0.6-3.2,0.2-4.8c-0.6-1.8-2.2-3.1-4.1-3.4
	c-1.3-0.1-2.6,0-3.9,0.3c-2.2,0.4-4.4,1.2-6.3,2.4c-0.3,0.2-0.6,0.5-0.8,0.8c-3,5.4-5.5,11.1-7.3,17c-1.1,3.5-1.9,7-2.5,10.7
	c-0.3,2-0.5,4-0.7,6v0.2c-0.5-0.2-1-0.4-1.4-0.8c-0.8-0.8-1.4-1.9-1.6-3c-0.2-1.1-0.3-2.3-0.3-3.5c0.1-3.2,0.6-6.3,1.5-9.4
	c1-3.3,2.6-6.5,4.6-9.3c1.5-2.2,3-4.3,4.6-6.4c1.8-2.3,3.9-4.3,6.2-5.9c2.2-1.6,4.7-2.6,7.4-2.9c2.1-0.4,4.2,0.1,5.9,1.3
	C353.1,424.1,354.2,425.7,354.7,427.5L354.7,427.5z"/>
<path class="st5" d="M502.5,190.5c-21.8,2.7-41.8,10.4-60.3,22.1c-23.8,15.1-43.2,34.7-59.4,57.6c-15.2,21.5-27.1,44.7-33.6,70.4
	c-1,4.1-1.7,8.3-2.6,12.5l0.7,0.2c0.6-0.8,1.3-1.6,1.9-2.5c18.5-25.9,39-50.4,61.3-73.1c20.2-20.5,41.9-39.4,66.3-54.9
	c0.5-0.4,1.1-0.6,1.7-0.9c-0.3,0.6-0.8,1.2-1.4,1.6c-17.8,13.4-34.6,28.1-50.4,43.9c-33.6,33.2-63.1,70.3-87.9,110.6
	c-0.8,1.3-1.8,1.5-3.1,1.5c-12.5,0-24.9,0-37.4,0c-3.4,0-4.9,1.3-5,4.2c-0.1,3.5-0.1,7,0,10.5c0.1,2.7,1.6,4.1,4.3,4.2
	c1.5,0.1,3,0,4.6,0v15.3h-18.9c-9,0-13.3,4-14.2,13.1c-1.3,11.7-2.7,23.4-4.2,35.1c-1.1,8.2,2.4,12.4,10.6,12.4h118.7
	c0.8,0,1.5,0,2.2,0c5-0.1,9-4.3,8.8-9.3c0-0.4-0.1-0.8-0.1-1.2c-1.6-12.9-3.2-25.9-4.7-38.8c-0.9-7-5.4-11.1-12.6-11.2
	c-5.8-0.1-11.6,0-17.5,0h-2.7v-15.3h3.6c3.7,0,5.2-1.4,5.2-5.1c0-2.9,0-5.8,0-8.7c0-3.7-1.4-5.1-5.1-5.1c-6.6,0-13.3,0-20,0h-3.9
	c2.2-3.7,4.2-6.8,6-10.1c0.7-1.6,2.4-2.5,4.1-2.4c25-0.2,49.3-4.4,71.9-15.5c5.1-2.5,10-5.5,15.6-8.6c-17-8.2-34.8-14.6-53.1-19
	c0.9-0.1,1.1-0.2,1.4-0.2c20.6,0.2,40.9,2.6,60.5,9.4c1.8,0.8,4,0.3,5.3-1.1c8.7-7.7,16.6-16.4,23.5-25.8c13.3-18.1,23-38,31-58.9
	c1.8-4.6,3.4-9.3,5.3-14.5l-31.7-3.3c0.3-0.1,0.7-0.3,1-0.3c10.2-1.2,20.4-2.5,30.7-3.6c1.9-0.2,2.7-0.7,3.2-2.5
	c1.2-4.6,2.7-9,4-13.6c1.8-6.2,3.5-12.4,5.3-18.6C524.8,189.5,510.1,189.6,502.5,190.5z M355.6,382h5.6v13.5h-5.6V382z M349.7,418.5
	c0.4,1.4,0.5,2.9,0.3,4.4c-0.2,2.4-1,4.8-2.4,6.7c-1.2,1.6-2.6,2.9-4.3,4c-3.6,2.5-7.6,4.2-11.9,5c-1.6,0.3-3.3,0.5-4.9,0.7l0,0
	c2.6,2.9,5.7,5.3,9.1,7.2c2.3,1.2,4.7,2.1,7.3,2.5c2.8,0.5,5.7,0.3,8.4-0.4c0.1,0,0.2,0,0.3,0l0.1,0.1c-0.3,0.4-0.6,0.9-0.9,1.3
	c-1,1.2-2.3,2-3.8,2.5c-1.9,0.7-3.9,0.9-5.8,0.6c-3.1-0.4-6-1.6-8.5-3.5c-3.7-2.7-6.8-6.3-8.8-10.4c-0.1-0.1-0.1-0.3-0.2-0.4
	s0,0,0-0.1l1.6-0.3c5.1-0.8,10-2.9,14.1-6.1c2.5-1.9,4.4-4.5,5.5-7.4c0.6-1.5,0.6-3.2,0.2-4.8c-0.6-1.8-2.2-3.1-4.1-3.4
	c-1.3-0.1-2.6,0-3.9,0.3c-2.2,0.4-4.4,1.2-6.3,2.4c-0.3,0.2-0.6,0.5-0.8,0.8c-3,5.4-5.5,11.1-7.3,17c-1.1,3.5-1.9,7-2.5,10.7
	c-0.3,2-0.5,4-0.7,6v0.2c-0.5-0.2-1-0.4-1.4-0.8c-0.8-0.8-1.4-1.9-1.6-3c-0.2-1.1-0.3-2.3-0.3-3.5c0.1-3.2,0.6-6.3,1.5-9.4
	c1-3.3,2.6-6.5,4.6-9.3c1.5-2.2,3-4.3,4.6-6.4c1.8-2.3,3.9-4.3,6.2-5.9c2.2-1.6,4.7-2.6,7.4-2.9c2.1-0.4,4.2,0.1,5.9,1.3
	C348.1,415.1,349.2,416.7,349.7,418.5L349.7,418.5z"/>
<path class="st5" d="M365.5,797.3l4.5,4.5c1,1,1.9,1.9,2.7,2.9h0.1c-0.4-1.2-0.7-2.5-1-3.8l-1.4-6.3l1.6-0.9l4.7,4.3
	c1.1,1,2.1,2,2.9,2.9h0.1c-0.5-1.3-0.9-2.5-1.2-3.8l-1.6-6.1l1.9-1.1l2.7,12.3l-1.7,1l-4.5-4.1c-1-0.9-2-1.9-2.9-2.9l0,0
	c0.4,1.3,0.8,2.6,1.1,4l1.2,6l-1.7,1l-9.2-8.6L365.5,797.3z"/>
<path class="st5" d="M381.6,787.9l4.5,4.5c1,1,1.9,1.9,2.7,2.9h0.1c-0.4-1.2-0.7-2.5-1-3.8l-1.4-6.3l1.6-0.9l4.7,4.3
	c1.1,1,2.1,2,2.9,2.9h0.1c-0.5-1.3-0.8-2.6-1.2-3.9l-1.6-6.2l1.9-1.1l2.7,12.4l-1.7,1l-4.5-4.1c-1-0.9-2-1.9-2.9-2.9h0
	c0.4,1.3,0.8,2.6,1.1,4l1.2,6l-1.7,1l-9.2-8.6L381.6,787.9z"/>
<path class="st5" d="M397.8,778.5l4.5,4.5c1,1,1.9,1.9,2.7,2.9h0.1c-0.4-1.2-0.7-2.5-1-3.8l-1.4-6.3l1.6-0.9l4.7,4.3
	c1.1,1,2.1,2,2.9,2.9h0.1c-0.5-1.3-0.8-2.6-1.2-3.9l-1.6-6.1l1.9-1.1l2.7,12.4l-1.7,1l-4.5-4.1c-1-0.9-2-1.9-2.9-2.9l0,0
	c0.4,1.3,0.8,2.6,1.1,4l1.2,6l-1.7,1l-9.2-8.6L397.8,778.5z"/>
<path class="st5" d="M417.1,779.7c-0.5-0.7-0.3-1.6,0.4-2.1c0,0,0.1,0,0.1-0.1c0.7-0.4,1.6-0.2,2,0.5c0,0,0,0.1,0.1,0.1
	c0.5,0.7,0.3,1.6-0.4,2.1s-1.6,0.3-2.1-0.4C417.1,779.8,417.1,779.8,417.1,779.7z"/>
<path class="st5" d="M418.5,770.8c-0.7-1.2-1.4-2.3-2-3.2l1.7-1l1.3,2h0.1c-0.4-1.5,0.2-3.2,1.6-4c0.2-0.1,0.4-0.2,0.6-0.2l1,1.8
	c-0.2,0.1-0.5,0.2-0.7,0.3c-1.3,0.8-1.8,2.5-1.1,3.9c0.1,0.3,0.3,0.6,0.4,0.9l3.2,5.6l-1.8,1.1L418.5,770.8z"/>
<path class="st5" d="M428.3,772.1c1,0,2-0.2,2.9-0.7c1.4-0.8,1.6-1.9,1.1-2.7s-1.4-1.1-3.1-0.8c-2.3,0.4-3.8-0.1-4.5-1.3
	c-1-1.7-0.4-3.8,1.8-5.2c0.9-0.5,1.9-0.8,2.9-0.8l0.3,1.7c-0.9,0-1.7,0.2-2.5,0.6c-0.9,0.4-1.3,1.4-1,2.3c0,0.1,0,0.1,0.1,0.2
	c0.5,0.9,1.4,0.9,3,0.6c2.2-0.4,3.7,0,4.6,1.5c1.1,1.8,0.4,4-2.1,5.4c-1,0.6-2.2,1-3.4,1L428.3,772.1z"/>
<path class="st5" d="M432.7,754.1l1.8,3l2.7-1.6l0.8,1.5l-2.7,1.6l3.3,5.6c0.8,1.3,1.5,1.8,2.6,1.2c0.4-0.2,0.7-0.5,1-0.8l0.9,1.4
	c-0.4,0.5-1,0.9-1.5,1.2c-0.7,0.5-1.7,0.6-2.5,0.4c-1-0.4-1.9-1.3-2.3-2.3l-3.3-5.7l-1.6,0.9l-0.8-1.5l1.6-0.9l-1.5-2.5L432.7,754.1
	z"/>
<path class="st5" d="M452.5,756.8c0.6,1.1,1.2,2,1.8,2.8l-1.7,1l-1.1-1.6l0,0c0,1.7-0.9,3.2-2.3,4c-1.6,1-4.1,1.2-6.3-2.5l-3.6-6.1
	l1.9-1.1l3.4,5.8c1.2,2,2.5,3,4.3,2c1.1-0.7,1.7-1.9,1.5-3.2c-0.1-0.4-0.2-0.7-0.4-1.1l-3.7-6.4l1.9-1.1L452.5,756.8z"/>
<path class="st5" d="M457.4,737.2l7.4,12.6c0.5,0.9,1.2,2,1.7,2.6l-1.7,1l-1.1-1.8l0,0c0.1,1.7-0.9,3.3-2.4,4.1
	c-2.5,1.5-5.7,0.5-7.6-2.7c-2-3.5-1.1-6.9,1.4-8.3c1.2-0.8,2.8-0.9,4.1-0.2h0l-3.6-6.2L457.4,737.2z M460.8,747.5
	c-0.2-0.3-0.3-0.5-0.5-0.8c-1-1.1-2.7-1.4-4-0.6c-2,1.1-2.1,3.5-0.8,5.9c1.2,2.1,3.3,3.3,5.3,2.1c1.6-1,2.1-3.1,1.1-4.8L460.8,747.5
	z"/>
<path class="st5" d="M463.8,736.1c0.4,0.7,0.2,1.5-0.5,1.9s-1.5,0.2-1.9-0.5l0,0c-0.4-0.6-0.2-1.5,0.5-1.9c0,0,0,0,0,0
	C462.6,735.2,463.4,735.4,463.8,736.1C463.8,736,463.8,736,463.8,736.1z M469.5,750.7l-6.1-10.5l1.9-1.1l6.1,10.5L469.5,750.7z"/>
<path class="st5" d="M480.9,736.9c2.2,3.9,0.6,7.1-2,8.6c-2.8,1.6-6.2,0.8-8.1-2.5c-2-3.5-1-6.9,2-8.6S479.1,733.8,480.9,736.9z
	 M472.7,741.9c1.3,2.3,3.7,3.2,5.5,2.2s2.2-3.6,0.8-5.9c-1-1.8-3.2-3.5-5.5-2.2S471.5,739.9,472.7,741.9L472.7,741.9z"/>
<path class="st5" d="M484.8,740.3c-0.4-0.7-0.1-1.6,0.7-2c0.7-0.4,1.6-0.1,2,0.7c0.4,0.7,0.1,1.6-0.6,2c-0.7,0.4-1.6,0.2-2-0.5
	C484.8,740.4,484.8,740.3,484.8,740.3z"/>
<path class="st5" d="M497.6,733.8c-0.7,1-1.6,1.8-2.6,2.3c-3.1,1.8-6.5,0.9-8.3-2.3c-1.8-2.8-1-6.6,1.8-8.5c0.2-0.1,0.4-0.2,0.6-0.3
	c0.9-0.6,1.9-0.9,3-1l0.4,1.7c-0.9,0-1.7,0.3-2.5,0.8c-2.4,1.4-2.7,3.9-1.4,6.1c1.4,2.4,3.8,3,5.9,1.8c0.8-0.5,1.5-1.1,2-1.9
	L497.6,733.8z"/>
<path class="st5" d="M506.3,722.2c2.3,3.9,0.6,7.1-2,8.6c-2.8,1.6-6.2,0.8-8.1-2.5c-2-3.5-0.9-6.9,2-8.6S504.4,719,506.3,722.2z
	 M498.1,727.1c1.3,2.3,3.7,3.2,5.5,2.2s2.2-3.6,0.8-5.9c-1-1.8-3.2-3.5-5.5-2.2S496.9,725.1,498.1,727.1z"/>
<path class="st5" d="M507.4,718.5c-0.6-1.1-1.2-2-1.7-2.8l1.7-1l1.1,1.6h0.1c-0.1-1.6,0.8-3.1,2.2-3.8c1.3-0.8,3-0.6,4.2,0.4l0,0
	c0-0.7,0.1-1.4,0.4-2c0.4-0.9,1-1.6,1.9-2.1c1.4-0.8,4-1.1,6.1,2.5l3.6,6.2l-1.8,1.1l-3.5-5.9c-1.2-2-2.6-2.8-4.1-1.9
	c-1,0.6-1.5,1.8-1.2,3c0.1,0.4,0.2,0.7,0.4,1l3.8,6.5l-1.9,1.1l-3.6-6.3c-1-1.7-2.4-2.5-3.9-1.6c-1.3,1-1.7,2.8-0.9,4.3l3.7,6.3
	l-1.9,1.1L507.4,718.5z"/>
</svg>
