<svg id="Layer_1" data-name="Layer 1" xmlns="http://www.w3.org/2000/svg" xmlns:xlink="http://www.w3.org/1999/xlink" viewBox="0 0 735 852"><defs><style>.cls-1{fill:#ba6f38;}.cls-2,.cls-21{fill:#de5a27;}.cls-3{clip-path:url(#clip-path);}.cls-4{fill:#db1f26;}.cls-21,.cls-5{opacity:0.25;}.cls-5{fill:url(#linear-gradient);}.cls-6{fill:#a51d21;}.cls-7{fill:#e6b35a;}.cls-8{opacity:0.94;}.cls-9{font-size:135px;letter-spacing:-0.03em;}.cls-13,.cls-14,.cls-9{fill:#fff;}.cls-14,.cls-9{font-family:MyriadPro-Regular, Myriad Pro;}.cls-10{letter-spacing:-0.03em;}.cls-11{letter-spacing:-0.03em;}.cls-12{letter-spacing:-0.04em;}.cls-14{font-size:25px;}.cls-15{letter-spacing:0.01em;}.cls-16{letter-spacing:-0.04em;}.cls-17{letter-spacing:-0.02em;}.cls-18{letter-spacing:-0.01em;}.cls-19{letter-spacing:0em;}.cls-20{clip-path:url(#clip-path-2);}</style><clipPath id="clip-path"><polygon class="cls-1" points="369.51 7.4 728.21 214.47 728.21 636.62 369.51 845.03 2.79 636.62 2.79 214.47 369.51 7.4"/></clipPath><linearGradient id="linear-gradient" x1="367.33" y1="-121.12" x2="368.63" y2="342.4" gradientUnits="userSpaceOnUse"><stop offset="0" stop-color="#fff" stop-opacity="0.83"/><stop offset="0.56" stop-color="#fff" stop-opacity="0.37"/><stop offset="1" stop-color="#fff" stop-opacity="0"/></linearGradient><clipPath id="clip-path-2"><polygon class="cls-2" points="369.51 933.01 728.21 1140.08 728.21 1562.24 369.51 1770.64 2.79 1562.24 2.79 1140.08 35.34 1147.83 367.49 961.44 369.51 933.01"/></clipPath></defs><title> </title><polygon class="cls-1" points="369.51 7.4 728.21 214.47 728.21 636.62 369.51 845.03 2.79 636.62 2.79 214.47 369.51 7.4"/><g class="cls-3"><circle class="cls-4" cx="365.5" cy="437.45" r="442.13"/><ellipse class="cls-5" cx="367.97" cy="107.08" rx="315.24" ry="234.63"/></g><path class="cls-6" d="M705.61,196.21,427.81,35.82,367.5,1,307.19,35.82,29.37,196.22.09,213.13V637.38l29.28,16.91,281.28,162.4,56.85,32.82,56.85-32.82L705.61,654.3l29.3-16.92V213.13Zm0,425.26L367.49,816.68,29.37,621.47V231L367.49,35.82h0L705.61,231Z"/><path class="cls-7" d="M367,633.9c.29-.29.6-.59.93-.89h-.26Z"/><g class="cls-8"><text class="cls-9" transform="translate(57.81 618.45)">r<tspan class="cls-10" x="40.36" y="0">ma</tspan><tspan x="209.38" y="0">r</tspan><tspan class="cls-11" x="249.75" y="0">kd</tspan><tspan class="cls-12" x="380.56" y="0">o</tspan><tspan class="cls-11" x="449.41" y="0">wn</tspan></text></g><path class="cls-6" d="M507.52,199.54c-21.8,2.74-41.79,10.4-60.29,22.1C423.43,236.7,404,256.31,387.8,279.2c-15.22,21.52-27.09,44.7-33.57,70.41-1,4.12-1.74,8.32-2.59,12.48l.66.23c.63-.83,1.28-1.65,1.89-2.5a609.48,609.48,0,0,1,61.29-73.1c20.24-20.54,41.89-39.38,66.26-54.94.55-.35,1.14-.63,1.71-.95a3.69,3.69,0,0,1-1.35,1.59,487.82,487.82,0,0,0-50.35,43.85,589,589,0,0,0-87.87,110.59,3,3,0,0,1-3.08,1.46q-18.7,0-37.41,0c-3.35,0-4.91,1.27-5,4.22-.13,3.49-.12,7,0,10.47.09,2.65,1.63,4.09,4.28,4.23,1.48.08,3,0,4.6,0v15.26H288.37c-9.05,0-13.26,4-14.25,13.09q-1.93,17.59-4.24,35.13c-1.07,8.2,2.4,12.41,10.63,12.41H399.21c.75,0,1.5,0,2.24,0a9.07,9.07,0,0,0,8.7-10.55q-2.37-19.42-4.75-38.83c-.86-7-5.44-11.11-12.61-11.2-5.82-.08-11.64,0-17.46,0h-2.73V407.27c1.33,0,2.49,0,3.65,0,3.72,0,5.16-1.44,5.19-5.09q0-4.36,0-8.73c0-3.73-1.36-5.1-5.12-5.12-6.65,0-13.3,0-20,0H352.5c2.21-3.7,4.2-6.84,6-10.08a4.1,4.1,0,0,1,4.1-2.36c25-.2,49.25-4.39,71.92-15.53,5.13-2.52,10-5.51,15.57-8.56a266.94,266.94,0,0,0-53.14-19c.9-.12,1.14-.18,1.38-.18,20.63.24,40.94,2.58,60.55,9.36a4.66,4.66,0,0,0,5.29-1.14,163.69,163.69,0,0,0,23.46-25.76c13.28-18.08,23-38,30.95-58.91,1.77-4.63,3.4-9.3,5.3-14.51l-31.69-3.34a4.51,4.51,0,0,1,1-.33c10.22-1.22,20.43-2.52,30.67-3.57,1.89-.19,2.72-.72,3.21-2.52,1.25-4.56,2.74-9.05,4.05-13.6,1.79-6.19,3.51-12.41,5.27-18.64C529.82,198.49,515.1,198.58,507.52,199.54ZM360.59,391h5.59v13.51h-5.59Zm-5.88,36.48a12.66,12.66,0,0,1,.34,4.41,13,13,0,0,1-2.4,6.73,17.47,17.47,0,0,1-4.25,4,29.46,29.46,0,0,1-11.9,4.95c-1.62.29-3.27.47-4.9.7,0,0,0,0,0,0a34.06,34.06,0,0,0,9.11,7.21A23.26,23.26,0,0,0,348,458a20.41,20.41,0,0,0,8.43-.37,2.63,2.63,0,0,1,.3,0l.08.08c-.3.43-.56.88-.89,1.29a8.31,8.31,0,0,1-3.78,2.49,12.93,12.93,0,0,1-5.84.64,16.94,16.94,0,0,1-8.45-3.55A29.57,29.57,0,0,1,329,448.1l-.2-.41s0,0,0-.1l1.59-.26a30.14,30.14,0,0,0,14.11-6.06,17.66,17.66,0,0,0,5.52-7.41,7.82,7.82,0,0,0,.18-4.82,5.27,5.27,0,0,0-4.07-3.42,13.24,13.24,0,0,0-3.93.27,18.94,18.94,0,0,0-6.32,2.36,2,2,0,0,0-.78.8,92.65,92.65,0,0,0-7.32,17,74.16,74.16,0,0,0-2.53,10.66c-.31,2-.49,4-.73,6,0,.06,0,.11,0,.21a3.61,3.61,0,0,1-1.43-.82,5.47,5.47,0,0,1-1.59-3,14.26,14.26,0,0,1-.28-3.49,34.05,34.05,0,0,1,1.49-9.36,32.61,32.61,0,0,1,4.64-9.28c1.53-2.15,3-4.32,4.66-6.41a27.7,27.7,0,0,1,6.23-5.91,16.75,16.75,0,0,1,7.37-2.93,7.78,7.78,0,0,1,5.91,1.26A8.43,8.43,0,0,1,354.71,427.51Z"/><path class="cls-13" d="M502.52,190.54c-21.8,2.74-41.79,10.4-60.29,22.1C418.43,227.7,399,247.31,382.8,270.2c-15.22,21.52-27.09,44.7-33.57,70.41-1,4.12-1.74,8.32-2.59,12.48l.66.23c.63-.83,1.28-1.65,1.89-2.5a609.48,609.48,0,0,1,61.29-73.1c20.24-20.54,41.89-39.38,66.26-54.94.55-.35,1.14-.63,1.71-.95a3.69,3.69,0,0,1-1.35,1.59,487.82,487.82,0,0,0-50.35,43.85,589,589,0,0,0-87.87,110.59,3,3,0,0,1-3.08,1.46q-18.7,0-37.41,0c-3.35,0-4.91,1.27-5,4.22-.13,3.49-.12,7,0,10.47.09,2.65,1.63,4.09,4.28,4.23,1.48.08,3,0,4.6,0v15.26H283.37c-9.05,0-13.26,4-14.25,13.09q-1.93,17.59-4.24,35.13c-1.07,8.2,2.4,12.41,10.63,12.41H394.21c.75,0,1.5,0,2.24,0a9.07,9.07,0,0,0,8.7-10.55q-2.37-19.42-4.75-38.83c-.86-7-5.44-11.11-12.61-11.2-5.82-.08-11.64,0-17.46,0h-2.73V398.27c1.33,0,2.49,0,3.65,0,3.72,0,5.16-1.44,5.19-5.09q0-4.36,0-8.73c0-3.73-1.36-5.1-5.12-5.12-6.65,0-13.3,0-20,0H347.5c2.21-3.7,4.2-6.84,6-10.08a4.1,4.1,0,0,1,4.1-2.36c25-.2,49.25-4.39,71.92-15.53,5.13-2.52,10-5.51,15.57-8.56a266.94,266.94,0,0,0-53.14-19c.9-.12,1.14-.18,1.38-.18,20.63.24,40.94,2.58,60.55,9.36a4.66,4.66,0,0,0,5.29-1.14,163.69,163.69,0,0,0,23.46-25.76c13.28-18.08,23-38,30.95-58.91,1.77-4.63,3.4-9.3,5.3-14.51l-31.69-3.34a4.51,4.51,0,0,1,1-.33c10.22-1.22,20.43-2.52,30.67-3.57,1.89-.19,2.72-.72,3.21-2.52,1.25-4.56,2.74-9.05,4.05-13.6,1.79-6.19,3.51-12.41,5.27-18.64C524.82,189.49,510.1,189.58,502.52,190.54ZM355.59,382h5.59v13.51h-5.59Zm-5.88,36.48a12.66,12.66,0,0,1,.34,4.41,13,13,0,0,1-2.4,6.73,17.47,17.47,0,0,1-4.25,4,29.46,29.46,0,0,1-11.9,4.95c-1.62.29-3.27.47-4.9.7,0,0,0,0,0,0a34.06,34.06,0,0,0,9.11,7.21A23.26,23.26,0,0,0,343,449a20.41,20.41,0,0,0,8.43-.37,2.63,2.63,0,0,1,.3,0l.08.08c-.3.43-.56.88-.89,1.29a8.31,8.31,0,0,1-3.78,2.49,12.93,12.93,0,0,1-5.84.64,16.94,16.94,0,0,1-8.45-3.55A29.57,29.57,0,0,1,324,439.1l-.2-.41s0,0,0-.1l1.59-.26a30.14,30.14,0,0,0,14.11-6.06,17.66,17.66,0,0,0,5.52-7.41,7.82,7.82,0,0,0,.18-4.82,5.27,5.27,0,0,0-4.07-3.42,13.24,13.24,0,0,0-3.93.27,18.94,18.94,0,0,0-6.32,2.36,2,2,0,0,0-.78.8,92.65,92.65,0,0,0-7.32,17,74.16,74.16,0,0,0-2.53,10.66c-.31,2-.49,4-.73,6,0,.06,0,.11,0,.21a3.61,3.61,0,0,1-1.43-.82,5.47,5.47,0,0,1-1.59-3,14.26,14.26,0,0,1-.28-3.49,34.05,34.05,0,0,1,1.49-9.36,32.61,32.61,0,0,1,4.64-9.28c1.53-2.15,3-4.32,4.66-6.41a27.7,27.7,0,0,1,6.23-5.91,16.75,16.75,0,0,1,7.37-2.93,7.78,7.78,0,0,1,5.91,1.26A8.43,8.43,0,0,1,349.71,418.51Z"/><text class="cls-14" transform="matrix(0.86, -0.5, 0.5, 0.86, 369.22, 809.1)"><tspan class="cls-15">ww</tspan><tspan class="cls-16" x="37.4" y="0">w</tspan><tspan x="54.82" y="0">.rstudi</tspan><tspan class="cls-17" x="120.07" y="0">o</tspan><tspan x="133.2" y="0">.</tspan><tspan class="cls-18" x="138.37" y="0">c</tspan><tspan class="cls-19" x="149.42" y="0">om</tspan></text><polygon class="cls-2" points="369.51 933.01 728.21 1140.08 728.21 1562.24 369.51 1770.64 2.79 1562.24 2.79 1140.08 35.34 1147.83 367.49 961.44 369.51 933.01"/><g class="cls-20"><ellipse class="cls-21" cx="366.89" cy="1031.42" rx="315.24" ry="234.63"/></g></svg>