<svg xmlns="http://www.w3.org/2000/svg" xmlns:xlink="http://www.w3.org/1999/xlink" viewBox="0 0 4108.88 4745.15"><defs><style>.cls-1{fill:none;stroke:#24e2be;stroke-width:128px;}.cls-1,.cls-3,.cls-6{stroke-miterlimit:10;}.cls-2{clip-path:url(#clip-path);}.cls-3,.cls-7{fill:#212d2c;}.cls-3,.cls-6{stroke:#000;}.cls-4{fill:#2de0c6;}.cls-5,.cls-6{fill:#a9fdff;}</style><clipPath id="clip-path"><polygon class="cls-1" points="4038.32 3517.79 4038.32 1226.95 2054.4 81.53 70.47 1226.95 70.47 3517.79 2054.4 4663.2 4038.32 3517.79"/></clipPath></defs><g id="Layer_2" data-name="Layer 2"><g class="cls-2"><rect class="cls-3" x="-445.6" y="-127.63" width="5000" height="5000"/><path class="cls-4" d="M380.87,2865.32h70v58.95q10.37-30.12,33.72-48.47a83.77,83.77,0,0,1,53.17-18.34q20.75,0,28.54,3.93l-9.73,71.39q-5.83-3.93-25.29-3.93-30.49,0-55.44,19.65t-25,62.88V3166h-70Z"/><path class="cls-5" d="M676.56,2865.32h70v54.36q14.25-30.78,41.83-46.5t63.22-15.72q79.76.66,97.92,55.67,14.25-25.55,42.79-40.61a127.38,127.38,0,0,1,60.31-15.06q46.68,0,70.68,18t32.1,51.09q8.1,33.09,8.1,88.75V3166h-70.68v-151.3q0-53.05-10.7-76T1041,2915.75q-40.86,0-61.93,27.84t-21.08,73V3166H888V3004.18q0-34.71-2.59-51.75t-14.27-26.85q-11.67-9.82-37.61-9.83-22.69,0-42.47,13.76t-31.78,37a107.64,107.64,0,0,0-12,50.1V3166H676.56Z"/><path class="cls-6" d="M1310.41,3153.19q-34-19.32-54.47-55t-20.42-83.51q0-47.16,17.83-82.53t50.9-55q33.07-19.65,77.82-19.65a128.71,128.71,0,0,1,48.63,9.17q22.69,9.18,38.26,22.59t20.75,26.53l1.3-50.43h66.79V3166h-66.15l-1.29-53.05q-11,23.58-40.21,41.59t-65.49,18A148,148,0,0,1,1310.41,3153.19Zm148.17-65.5q25.29-25.86,25.29-67.79v-4.59q0-28.16-11.67-50.43t-31.77-34.72a82.26,82.26,0,0,0-44.1-12.44q-41.5,0-64.19,27.18t-22.7,70.41q0,43.89,22.37,71.07t64.52,27.18Q1433.29,3113.56,1458.58,3087.69Z"/><path class="cls-6" d="M1649.87,2865.32h70v58.95q10.36-30.12,33.72-48.47a83.79,83.79,0,0,1,53.17-18.34q20.76,0,28.54,3.93l-9.73,71.39q-5.83-3.93-25.29-3.93-30.48,0-55.44,19.65t-25,62.88V3166h-70Z"/><path class="cls-6" d="M2153.71,3166h-82.35l-60.31-98.25-16.86-33.4-38.9,42.57V3166h-67.44V2684.54h66.79v264l-1.3,51.09,113.48-134.27h86.24l-112.18,125.76Z"/><path class="cls-6" d="M2266.86,3153.19q-34-19.32-54.47-55T2192,3014.66q0-71.38,39.55-114.3t107-42.9q37.6,0,68.74,18.67T2449.4,2921l-3.24-51.09V2684.54h68.73V3166H2448.1l-1.29-53.05q-11,23.58-40.21,41.59t-65.49,18A148,148,0,0,1,2266.86,3153.19ZM2415,3087q25.29-25.87,25.29-67.8v-4.58q0-28.15-11.67-50.44t-31.77-34.71a82.27,82.27,0,0,0-44.1-12.45q-41.51,0-64.2,27.19t-22.69,70.41q0,43.89,22.37,71.06t64.52,27.19Q2389.74,3112.91,2415,3087Z"/><path class="cls-6" d="M2664.68,3151.55a144.64,144.64,0,0,1-55.11-57q-19.46-36-19.46-79.91,0-43.23,19.13-79.26a142.58,142.58,0,0,1,54.8-57q35.65-21,82.35-21t82,21a143.3,143.3,0,0,1,54.47,57q19.11,36,19.13,79.26,0,43.89-19.46,79.91a145.41,145.41,0,0,1-54.79,57q-35.36,21-81.38,21T2664.68,3151.55Zm143-64.84q21.72-28.15,21.72-70.74t-23.34-71.72q-23.36-29.14-61.61-29.15-37,0-59.33,28.82t-22.37,72q0,41.93,24,70.41t61.6,28.49Q2785.94,3114.87,2807.67,3086.71Z"/><path class="cls-6" d="M3158.14,2998.94,3070,3166h-12.32l-125.16-300.64h75.22l64.2,174.88,84.95-174.88h2.59l85.6,173.57,64.19-173.57h73.93L3258.65,3166h-12.32Z"/><path class="cls-6" d="M3431.14,2865.32h68.73l.65,55q12.32-27.51,38.91-45.2t62.25-17.68q46,0,70.68,19.32t33.07,54q8.42,34.72,8.43,90.39V3166h-70V3023.17q0-57-11-82.2t-45.39-25.22q-19.45,0-39.55,12.12t-33.4,35q-13.29,22.93-13.29,53.71V3166h-70Z"/><path class="cls-5" d="M484.13,2741.21a441.34,441.34,0,0,0-107.62,17.24l343-217.74c.46-5.95,2.07-14.8,8.11-22.52,9.39-12,24.27-14.58,27.21-15.24,34.27-7.58,130.75-76.07,200.37-157.68,0,0,62.8-73.74,103.31-169.28,7.35-17.33,12-30.3,12.67-32.18,148.62-389.28,1529.46-659.66,1683.89-689.08,227.11-43.26,543-97.38,925.28-143.19a3993.68,3993.68,0,0,0-490.24,185.62c-947.74,432-1478.58,1125.63-1867.42,970.61-1.49-.59-4.26-1.71-8.15-3.24-93.11-36.62-224.87-87.93-337.43-45.56-78.69,29.62-167.51,112.45-182.2,138.72-1.71,3-8.61,17.08-22.95,22.21-10.43,3.74-21.07,1.46-29.12-1.52a1029.5,1029.5,0,0,0-258.73,162.83Z"/><path class="cls-3" d="M1067.64,2282.66c289.61-195.82,671.62-416.42,1143.05-600.14a5711.85,5711.85,0,0,1,1152.85-315.33q-796.06,207.19-1540.41,539.11Q1438.49,2077.83,1067.64,2282.66Z"/><path class="cls-7" d="M2157.28,2157a360,360,0,0,0-191.09-154.72,556.64,556.64,0,0,1,275.9,91"/><path class="cls-7" d="M2428.58,1955.2a472.18,472.18,0,0,0-210.28-137,716.8,716.8,0,0,1,298.18,74.22"/><path class="cls-7" d="M2575.47,1850.81a365.87,365.87,0,0,0-62.18-38.31c-53.5-26-98.17-31.26-97.73-33.47s44.55,2.29,98.5,15.82a729.39,729.39,0,0,1,97.76,32"/><path class="cls-5" d="M2032,4479.85l7.65-4.42,6.51,9.46.34-.2c-.25-9,2.84-16.65,9-20.23a15.72,15.72,0,0,1,6.5-2.25l2.88,9.15a17.46,17.46,0,0,0-5.81,2.15c-4.62,2.66-8.18,9.23-6.57,20.61l20.28,35.12-9.23,5.33Z"/><path class="cls-5" d="M2071.1,4457.3l7.66-4.42,5.34,7.43.34-.2c1.73-7.91,5.13-15.28,11.66-19,8.34-4.81,15.11-3.47,21.14,1.76,2.16-9.5,5.32-17,12-20.87,11.25-6.5,20.95-2.19,29,11.77l20,34.68-9.23,5.33-19.31-33.44c-5.91-10.24-11.71-12.75-18.58-8.78-4.28,2.47-7,7.82-8.86,16.37l22.88,39.63-9.23,5.33-19.31-33.44c-5.91-10.24-11.71-12.75-18.69-8.72-4.06,2.34-7,7.82-8.87,16.38l22.89,39.63-9.24,5.33Z"/><path class="cls-5" d="M2184.46,4445.9c-6.89-11.94-.09-23.82,21.72-39.86-4-7-10.18-12.44-19.19-7.24-6.31,3.64-10.36,9.88-12.95,15.28l-7.3-4.34c3.18-6.19,8.62-14.44,17.4-19.51,13.4-7.73,24.17-2.09,32,11.54l19.37,33.55-7.65,4.42-4.56-6.08-.34.2c-2.71,7.27-6.71,14.38-13.57,18.35C2200.29,4457.47,2190.11,4455.69,2184.46,4445.9Zm34-18.58-8.77-15.2c-16.94,12.78-20.65,20.92-16.62,27.9,3.58,6.19,9.35,6.31,14.76,3.19S2215.9,4435.1,2218.46,4427.32Z"/><path class="cls-5" d="M2221.18,4370.66l7.65-4.42,6.51,9.45.34-.2c-.25-9,2.84-16.65,9-20.23a15.76,15.76,0,0,1,6.51-2.25l2.88,9.15a17.46,17.46,0,0,0-5.81,2.15c-4.62,2.67-8.19,9.23-6.57,20.61L2262,4420l-9.23,5.33Z"/><path class="cls-5" d="M2245.55,4322.66l9.12-5.27,31.33,54.27.34-.2,6.66-42.27,10.25-5.92-5.68,32.55,39.75,20.74-10.14,5.85L2296,4365.29l-3.36,17.85,8.32,14.41-9.12,5.27Z"/><path class="cls-5" d="M2325.86,4346.84c-10.27-17.79-5.38-35.32,7.12-42.53,6.3-3.64,11.83-3.68,18.95-2.54l-5.85-9.08-12.15-21.06,9.34-5.39,46.29,80.16-7.66,4.42-4.49-6-.34.19c-1.88,6.64-5.65,13.62-12.07,17.33C2351.27,4370.31,2336.39,4365.08,2325.86,4346.84Zm46.29-9-16.51-28.59c-7-1.5-12.1-.68-16.6,1.92-8.78,5.07-10.89,17.55-3.67,30.05,7.54,13.06,17.6,17.75,27.17,12.23C2367.61,4350.51,2370.57,4345.5,2372.15,4337.83Z"/><path class="cls-5" d="M2388.23,4310.83c-10.59-18.35-4.7-35.71,8.7-43.44s31.37-4.16,42,14.19c10.46,18.13,4.57,35.49-8.82,43.23S2398.7,4329,2388.23,4310.83Zm41.1-23.72c-7.28-12.61-18.53-17.53-28-12.07s-10.83,17.66-3.55,30.27,18.51,17.23,27.86,11.84S2436.54,4299.61,2429.33,4287.11Z"/><path class="cls-5" d="M2430.46,4249.82l9.46-5.46,26.37,27c4.23,4.46,8.11,8.83,12,13.31l.45-.26c-1.68-5.78-3.48-11.49-5.06-17.34l-9.82-36.51,9-5.2,26.82,26.69c4.34,4.4,8.44,8.64,12.61,13l.45-.26c-1.69-5.78-3.54-11.32-5.4-17.15l-10.27-36.25,8.78-5.07,16.95,63.17-11.26,6.5-24.84-24.84c-4.34-4.39-8.28-8.88-12.82-13.61l-.45.26c1.95,6.23,3.81,12.06,5.34,18.08l9.24,33.69-10.8,6.24Z"/><path class="cls-5" d="M2517.83,4199.38l7.65-4.42,5.34,7.43.34-.19c2.19-8.17,5.48-15.48,13-19.83,11.49-6.63,21-2.19,29,11.77l20,34.67-9.24,5.34-19.3-33.44c-5.92-10.25-11.6-12.82-18.81-8.66-5.63,3.25-7.77,8.39-10.1,17.09l22.88,39.63-9.23,5.33Z"/><path class="cls-5" d="M2605.84,4214c-2.47-4.28-1.12-9,2.59-11.1s8.34-.91,10.81,3.37a7.74,7.74,0,1,1-13.4,7.73Z"/><path class="cls-5" d="M2607.44,4147.64l7.66-4.42,6.51,9.46.33-.2c-.24-9,2.85-16.65,9-20.23a15.76,15.76,0,0,1,6.51-2.25l2.88,9.14a17.85,17.85,0,0,0-5.82,2.16c-4.61,2.66-8.18,9.23-6.56,20.6l20.28,35.13-9.24,5.33Z"/><path class="cls-5" d="M2668,4177.38l1-8.85c6.93,1.1,13.34,1,19.87-2.77,7.2-4.16,8.59-10.07,5.86-14.79-3.25-5.63-11.21-4.34-18.47-3.15-9.4,1.67-20.1,2.9-25.43-6.33-5.07-8.79-2-19.57,9.83-26.4a31.59,31.59,0,0,1,20.58-3.62l-1,8.39c-5.34-.67-10.45-.42-15.29,2.37-6.87,4-7.88,9.5-5.47,13.67,3,5.18,10.06,3.65,17.61,2.44,9.58-1.63,20.24-3.43,26.22,6.93,5.14,8.89,2.34,20.42-10.61,27.89A38,38,0,0,1,2668,4177.38Z"/><path class="cls-5" d="M2714.4,4136.33l-17.49-30.28-8.11,4.68-4-7,8.24-5.51-7.72-16,7.77-4.48,8.84,15.31,14.75-8.52,4.36,7.55-14.75,8.51,17.55,30.4c3.9,6.76,8.25,9.35,14.55,5.71a23,23,0,0,0,5.35-5l5.83,5.94a39.23,39.23,0,0,1-9,7.88C2728.87,4152.3,2720.64,4147.14,2714.4,4136.33Z"/><path class="cls-5" d="M2748.26,4112.58l-20-34.68,9.35-5.4,19.3,33.44c5.92,10.25,11.49,12.88,18.7,8.72,5.63-3.25,7.94-8.34,9.42-17.74l-22.43-38.85,9.23-5.33,31.6,54.72-7.66,4.42-5.73-8.1-.34.19c-1.62,8.9-4.75,16-12.29,20.31C2765.79,4131,2756.32,4126.54,2748.26,4112.58Z"/><path class="cls-5" d="M2802.2,4071.83c-10.27-17.79-5.39-35.32,7.11-42.54,6.31-3.64,11.84-3.68,19-2.53l-5.84-9.09-12.16-21.05,9.35-5.4,46.28,80.17-7.66,4.42-4.49-6-.34.19c-1.87,6.64-5.65,13.62-12.06,17.32C2827.6,4095.29,2812.73,4090.07,2802.2,4071.83Zm46.28-9-16.51-28.6c-7-1.5-12.09-.67-16.6,1.93-8.78,5.07-10.88,17.55-3.67,30,7.54,13.06,17.61,17.76,27.18,12.24C2843.94,4075.5,2846.91,4070.49,2848.48,4062.82Z"/><path class="cls-5" d="M2841.12,3989.76c-2.08-3.6-.62-7.59,3-9.67s7.78-1.34,9.86,2.26.63,7.59-3,9.67S2843.14,3993.25,2841.12,3989.76Zm11.64,16.25,9.23-5.33,31.59,54.72-9.23,5.33Z"/><path class="cls-5" d="M2892.26,4019.83c-10.59-18.35-4.71-35.71,8.69-43.45s31.38-4.15,42,14.2c10.46,18.13,4.57,35.49-8.83,43.22S2902.73,4038,2892.26,4019.83Zm41.09-23.72c-7.28-12.61-18.52-17.53-28-12.07s-10.82,17.66-3.54,30.27,18.51,17.23,27.85,11.84S2940.57,4008.61,2933.35,3996.11Z"/><path class="cls-5" d="M2966.77,4005.64c-2.47-4.28-1.12-9,2.6-11.11s8.33-.91,10.8,3.37a7.74,7.74,0,1,1-13.4,7.74Z"/><path class="cls-5" d="M2979,3969.78c-10.6-18.35-4.37-35.9,9.7-44a26.24,26.24,0,0,1,19.7-2.81l-1.22,8.81c-4.78-1-9.33-1.07-13.72,1.46-9.91,5.72-12.17,18.44-4.89,31.05s19,17,29,11.19c5.06-2.93,8-7.94,9.65-12.93l7.63,3.86a30.82,30.82,0,0,1-13.65,17.18C3006.61,3992,2989.42,3987.91,2979,3969.78Z"/><path class="cls-5" d="M3027.92,3941.51c-10.59-18.35-4.7-35.71,8.69-43.45s31.38-4.15,42,14.2c10.46,18.12,4.57,35.49-8.82,43.22S3038.39,3959.63,3027.92,3941.51Zm41.1-23.73c-7.28-12.61-18.53-17.52-28-12.06s-10.82,17.65-3.54,30.26,18.51,17.24,27.86,11.84S3076.23,3930.28,3069,3917.78Z"/><path class="cls-5" d="M3077.13,3876.47l7.66-4.42,5.34,7.42.34-.19c1.74-7.91,5.14-15.28,11.67-19.05,8.33-4.81,15.11-3.47,21.13,1.76,2.17-9.51,5.33-17,12-20.87,11.26-6.5,21-2.19,29,11.77l20,34.68-9.23,5.33-19.31-33.44c-5.91-10.25-11.71-12.75-18.58-8.79-4.28,2.47-7,7.82-8.86,16.38l22.88,39.63-9.23,5.33-19.31-33.44c-5.91-10.24-11.71-12.75-18.69-8.72-4.06,2.34-7.05,7.82-8.86,16.37l22.88,39.63-9.23,5.34Z"/></g><polygon class="cls-1" points="4038.32 3517.79 4038.32 1226.95 2054.4 81.53 70.47 1226.95 70.47 3517.79 2054.4 4663.2 4038.32 3517.79"/></g></svg>