<svg id="Layer_1" data-name="Layer 1" xmlns="http://www.w3.org/2000/svg" xmlns:xlink="http://www.w3.org/1999/xlink" viewBox="0 0 735 852"><defs><style>.cls-1{fill:none;}.cls-2{clip-path:url(#clip-path);}.cls-3{fill:#428bca;}.cls-4{opacity:0.25;fill:url(#linear-gradient);}.cls-5{fill:#3674a8;}.cls-6{fill:#e6b35a;}.cls-7{font-size:25px;}.cls-14,.cls-18,.cls-19,.cls-7{fill:#fff;}.cls-14,.cls-7{font-family:MyriadPro-Regular, Myriad Pro;}.cls-8{letter-spacing:0.01em;}.cls-9{letter-spacing:-0.04em;}.cls-10{letter-spacing:-0.02em;}.cls-11{letter-spacing:-0.01em;}.cls-12{letter-spacing:0em;}.cls-13,.cls-18{opacity:0.9;}.cls-14{font-size:136px;letter-spacing:-0.04em;}.cls-15{letter-spacing:-0.05em;}.cls-16{letter-spacing:-0.02em;}.cls-17{letter-spacing:-0.03em;}</style><clipPath id="clip-path"><polygon class="cls-1" points="369.51 9.1 728.21 216.17 728.21 638.33 369.51 846.73 2.79 638.33 2.79 216.17 369.51 9.1"/></clipPath><linearGradient id="linear-gradient" x1="366.25" y1="-120.69" x2="367.55" y2="342.84" gradientUnits="userSpaceOnUse"><stop offset="0" stop-color="#fff" stop-opacity="0.83"/><stop offset="0.56" stop-color="#fff" stop-opacity="0.37"/><stop offset="1" stop-color="#fff" stop-opacity="0"/></linearGradient></defs><title> </title><g class="cls-2"><circle class="cls-3" cx="365.5" cy="439.15" r="442.13"/><ellipse class="cls-4" cx="366.89" cy="107.51" rx="315.24" ry="234.63"/></g><path class="cls-5" d="M705.61,197.91,427.81,37.53,367.5,2.7,307.19,37.53,29.37,197.92.09,214.83V639.08L29.37,656l281.28,162.4,56.85,32.82,56.85-32.82L705.61,656l29.3-16.92V214.83Zm0,425.26L367.49,818.39,29.37,623.17V232.74L367.49,37.53h0L705.61,232.74Z"/><path class="cls-6" d="M182.39,633.9c.29-.29.6-.59.93-.89h-.26Z"/><text class="cls-7" transform="matrix(0.86, -0.5, 0.5, 0.86, 369.28, 809.85)"><tspan class="cls-8">ww</tspan><tspan class="cls-9" x="37.4" y="0">w</tspan><tspan x="54.82" y="0">.rstudi</tspan><tspan class="cls-10" x="120.07" y="0">o</tspan><tspan x="133.2" y="0">.</tspan><tspan class="cls-11" x="138.37" y="0">c</tspan><tspan class="cls-12" x="149.42" y="0">om</tspan></text><g class="cls-13"><text class="cls-14" transform="translate(116.23 598.84)">r<tspan class="cls-15" x="38.76" y="0">o</tspan><tspan class="cls-16" x="107.17" y="0">x</tspan><tspan x="167.82" y="0">y</tspan><tspan class="cls-17" x="226.17" y="0">gen2</tspan></text></g><path class="cls-18" d="M387.28,276.2c0-14.46-10.46-20.16-23.78-20.16a178.5,178.5,0,0,0-19.59,1.33v39.95l9.89.19C378,297.89,387.28,288.57,387.28,276.2Z"/><path class="cls-19" d="M387.28,276.2c0-14.46-10.46-20.16-23.78-20.16a178.5,178.5,0,0,0-19.59,1.33v39.95l9.89.19C378,297.89,387.28,288.57,387.28,276.2Z"/><path class="cls-1" d="M374.91,305.69c15-4.37,24.73-14.65,24.73-30.82,0-20.93-17.5-29.49-36.33-29.49-9.7,0-19.59,2.28-29.3,2.28a74.75,74.75,0,0,1-17.5-2.28v10.08l15.6,1.9v91.5h-15.6v10.65H362V348.87H343.9V307.59h18.45L397,359.53H417.9V348.87h-13.7Z"/><path class="cls-19" d="M464.51,353.81c-7.35,0-13.46,3.74-17.2,6.85l-3.49-7.73a35.54,35.54,0,0,1,22.93-8.23,27.14,27.14,0,0,1,14.19,3.54A126.31,126.31,0,1,0,477,358.57C474.5,355.68,470.51,353.81,464.51,353.81Zm-46.61,5.72H397l-34.62-51.93H343.9v41.28H362v10.65H316.51V348.87h15.6v-91.5l-15.6-1.9V245.39a74.75,74.75,0,0,0,17.5,2.28c9.7,0,19.59-2.28,29.3-2.28,18.83,0,36.33,8.56,36.33,29.49,0,16.17-9.7,26.44-24.73,30.82l29.3,43.18h13.7Z"/><path class="cls-19" d="M457.16,418v-.25l6.48-6c17.07-16.45,27.92-28.54,27.92-43.5,0-7.73-3.27-15.61-10.62-20q-1.74,5.27-3.92,10.32c2.55,2.94,3.57,6.92,3.57,11.07-.12,12.21-9.47,22.68-30.16,42.38l-8.6,8.35v6.73h51.72V418Z"/></svg>