<?xml version="1.0" encoding="utf-8"?>
<!-- Generator: Adobe Illustrator 22.0.1, SVG Export Plug-In . SVG Version: 6.00 Build 0)  -->
<svg version="1.1" id="Layer_1" xmlns="http://www.w3.org/2000/svg" xmlns:xlink="http://www.w3.org/1999/xlink" x="0px" y="0px"
	 viewBox="0 0 735 852" style="enable-background:new 0 0 735 852;" xml:space="preserve">
<style type="text/css">
	.st0{fill:#428BCA;}
	.st1{opacity:0.25;fill:url(#SVGID_1_);enable-background:new    ;}
	.st2{fill:#3674A8;}
	.st3{fill:#E6B35A;}
	.st4{fill:#FFFFFF;}
	.st5{opacity:0.9;}
	.st6{opacity:0.9;fill:#FFFFFF;enable-background:new    ;}
	.st7{fill:none;}
</style>
<title>roxygen2</title>
<path class="st0" d="M714.3,226.4L366.9,23L20.7,226.4v400.4L367.5,827l346.8-200.2V226.4z"/>
<linearGradient id="SVGID_1_" gradientUnits="userSpaceOnUse" x1="366.1475" y1="-180.69" x2="367.4375" y2="282.84" gradientTransform="matrix(1 0 0 1 0 60)">
	<stop  offset="0" style="stop-color:#FFFFFF;stop-opacity:0.83"/>
	<stop  offset="0.56" style="stop-color:#FFFFFF;stop-opacity:0.37"/>
	<stop  offset="1" style="stop-color:#FFFFFF;stop-opacity:0"/>
</linearGradient>
<path class="st1" d="M366.9,342.1c128.2,0,238.6-57,287.8-138.8L367.5,37.5l0,0L79.4,203.9C128.8,285.4,238.9,342.1,366.9,342.1z"/>
<path class="st2" d="M734.9,639.1V214.8l-29.3-16.9L427.8,37.5L367.5,2.7l-60.3,34.8L29.4,197.9L0.1,214.8V639l29.3,17l281.3,162.4
	l56.9,32.8l56.9-32.8L705.6,656L734.9,639.1z M29.4,623.2V232.7l50-28.9L367.5,37.5l0,0l287.2,165.8l50.9,29.4v390.4L367.5,818.4
	L29.4,623.2z"/>
<path class="st3" d="M182.4,633.9c0.3-0.3,0.6-0.6,0.9-0.9h-0.2L182.4,633.9z"/>
<path class="st4" d="M365.5,798l4.5,4.5c1,1,1.9,1.9,2.7,2.9h0.1c-0.4-1.2-0.7-2.5-1-3.8l-1.4-6.3l1.6-0.9l4.7,4.3
	c1.1,1,2.1,2,2.9,2.9h0.1c-0.5-1.3-0.9-2.6-1.2-3.9l-1.6-6.1l1.9-1.1l2.7,12.4l-1.7,1l-4.5-4.1c-1-1-2-1.8-2.9-2.9l0,0
	c0.4,1.3,0.8,2.6,1.1,4l1.2,6l-1.7,1l-9.2-8.6L365.5,798z"/>
<path class="st4" d="M381.7,788.6l4.5,4.5c1,1,1.9,1.9,2.7,2.9h0.1c-0.4-1.2-0.7-2.5-1-3.8l-1.4-6.3l1.6-0.9l4.7,4.3
	c1.1,1,2.1,2,2.9,2.9h0.1c-0.5-1.3-0.9-2.5-1.2-3.8L393,782l1.9-1.1l2.7,12.4l-1.7,1l-4.5-4.1c-1-0.9-2-1.9-2.9-2.9l0,0
	c0.4,1.3,0.8,2.6,1.1,4l1.2,6l-1.7,1l-9.2-8.6L381.7,788.6z"/>
<path class="st4" d="M397.8,779.2l4.5,4.5c1,1,1.9,1.9,2.7,2.9h0.1c-0.4-1.2-0.7-2.5-1-3.8l-1.4-6.3l1.6-0.9l4.7,4.3
	c1.1,1,2.1,2,2.9,2.9h0.1c-0.5-1.3-0.9-2.5-1.2-3.8l-1.6-6.1l1.9-1.1l2.7,12.4l-1.7,1l-4.5-4.1c-1-0.9-2-1.9-2.9-2.9l0,0
	c0.4,1.3,0.8,2.6,1.1,4l1.2,6l-1.7,1l-9.2-8.6L397.8,779.2z"/>
<path class="st4" d="M417.1,780.5c-0.5-0.7-0.3-1.6,0.4-2c0,0,0.1,0,0.1-0.1c0.8-0.4,1.7-0.2,2.1,0.6s0.2,1.7-0.6,2.1l0,0
	C418.4,781.5,417.5,781.3,417.1,780.5C417.2,780.6,417.1,780.5,417.1,780.5z"/>
<path class="st4" d="M418.5,771.5c-0.7-1.2-1.4-2.3-2-3.2l1.7-1l1.3,2h0.1c-0.4-1.5,0.2-3.2,1.6-4c0.2-0.1,0.4-0.2,0.6-0.2l1,1.8
	c-0.2,0.1-0.5,0.2-0.7,0.3c-1.3,0.8-1.8,2.5-1.1,3.9c0.1,0.3,0.3,0.6,0.4,0.9l3.2,5.6l-1.9,1.1L418.5,771.5z"/>
<path class="st4" d="M428.4,772.8c1,0,2-0.2,2.9-0.7c1.4-0.8,1.6-1.9,1.1-2.7s-1.4-1.1-3.1-0.8c-2.3,0.4-3.8-0.1-4.5-1.3
	c-1-1.7-0.4-3.9,1.8-5.2c0.9-0.5,1.9-0.8,2.9-0.8l0.3,1.7c-0.9,0-1.7,0.2-2.5,0.6c-0.9,0.4-1.3,1.4-1,2.3c0,0,0,0.1,0.1,0.1
	c0.5,0.9,1.4,0.9,3,0.6c2.2-0.4,3.7,0,4.6,1.6c1.1,1.8,0.4,4-2.1,5.4c-1,0.6-2.2,1-3.4,1L428.4,772.8z"/>
<path class="st4" d="M432.8,754.8l1.7,3l2.7-1.6l0.9,1.5l-2.7,1.6l3.3,5.6c0.8,1.3,1.5,1.8,2.6,1.2c0.4-0.2,0.7-0.5,1-0.8l0.9,1.4
	c-0.4,0.5-1,0.9-1.5,1.2c-0.7,0.5-1.7,0.6-2.5,0.4c-1-0.4-1.9-1.3-2.3-2.3l-3.3-5.7l-1.6,1l-0.8-1.5l1.6-0.9l-1.5-2.5L432.8,754.8z"
	/>
<path class="st4" d="M452.6,757.5c0.6,1.1,1.2,2,1.8,2.8l-1.7,1l-1.1-1.7l0,0c0,1.6-0.9,3.1-2.3,4c-1.6,1-4.1,1.2-6.3-2.5l-3.6-6.1
	l1.9-1.1l3.4,5.8c1.2,2,2.5,3,4.3,2c1.1-0.7,1.7-1.9,1.5-3.2c-0.1-0.4-0.2-0.7-0.4-1.1l-3.8-6.5l1.9-1.1L452.6,757.5z"/>
<path class="st4" d="M457.5,738l7.4,12.6c0.5,0.9,1.2,2,1.7,2.7l-1.7,1l-1.1-1.8l0,0c0.1,1.7-0.9,3.3-2.4,4.1
	c-2.5,1.5-5.7,0.5-7.6-2.7c-2-3.5-1.1-6.9,1.4-8.3c1.2-0.8,2.8-0.9,4.1-0.2l0,0l-3.6-6.2L457.5,738z M460.9,748.2
	c-0.2-0.3-0.3-0.5-0.5-0.8c-1-1.1-2.7-1.4-4-0.6c-2,1.2-2.1,3.6-0.8,5.9c1.2,2.1,3.3,3.3,5.3,2.1c1.3-0.8,1.9-2.4,1.5-3.9
	c-0.1-0.3-0.2-0.6-0.4-0.9L460.9,748.2z"/>
<path class="st4" d="M463.9,736.8c0.4,0.6,0.2,1.5-0.5,1.9c-0.6,0.4-1.5,0.2-1.9-0.5c-0.4-0.6-0.2-1.5,0.4-1.8c0,0,0,0,0.1,0
	c0.6-0.4,1.4-0.2,1.8,0.4C463.8,736.8,463.9,736.8,463.9,736.8z M469.6,751.5l-6.1-10.5l1.9-1.1l6.1,10.5L469.6,751.5z"/>
<path class="st4" d="M481,737.7c2.2,3.9,0.6,7.1-2,8.6c-2.8,1.7-6.2,0.8-8.1-2.5c-2-3.5-1-6.9,2-8.6S479.1,734.5,481,737.7z
	 M472.8,742.6c1.3,2.3,3.7,3.2,5.5,2.2s2.2-3.5,0.8-5.9c-1-1.8-3.2-3.5-5.5-2.2S471.6,740.6,472.8,742.6L472.8,742.6z"/>
<path class="st4" d="M484.9,741c-0.5-0.7-0.3-1.6,0.4-2.1c0,0,0.1,0,0.1-0.1c0.7-0.5,1.7-0.3,2.2,0.5c0.5,0.7,0.3,1.7-0.5,2.2
	C486.3,742.1,485.4,741.8,484.9,741C484.9,741.1,484.9,741.1,484.9,741z"/>
<path class="st4" d="M497.6,734.6c-0.7,1-1.6,1.8-2.6,2.4c-3.1,1.8-6.5,0.9-8.3-2.3c-1.8-2.9-1-6.7,1.8-8.5c0.2-0.1,0.4-0.2,0.6-0.3
	c0.9-0.5,1.9-0.9,3-1l0.4,1.7c-0.9,0-1.7,0.3-2.5,0.8c-2.4,1.4-2.7,3.9-1.4,6.1c1.4,2.4,3.8,3,5.9,1.8c0.8-0.5,1.5-1.1,2-1.9
	L497.6,734.6z"/>
<path class="st4" d="M506.3,722.9c2.3,3.9,0.6,7.1-2,8.6c-2.8,1.7-6.2,0.8-8.1-2.5c-2-3.5-0.9-6.9,2-8.6S504.5,719.7,506.3,722.9z
	 M498.1,727.9c1.3,2.3,3.7,3.2,5.5,2.2s2.2-3.6,0.8-5.9c-1-1.8-3.2-3.5-5.5-2.2S497,725.9,498.1,727.9z"/>
<path class="st4" d="M507.4,719.2c-0.6-1.1-1.2-2-1.7-2.8l1.7-1l1.1,1.6h0.1c-0.1-1.6,0.8-3.1,2.2-3.8c1.3-0.8,3-0.6,4.2,0.4l0,0
	c0-0.7,0.1-1.4,0.4-2c0.4-0.9,1-1.6,1.9-2.1c1.4-0.8,4-1.1,6.1,2.5l3.6,6.2l-1.8,1.1l-3.5-5.9c-1.2-2-2.6-2.8-4.1-1.9
	c-1,0.6-1.5,1.8-1.2,3c0.1,0.4,0.2,0.7,0.4,1l3.8,6.5l-1.9,1.1l-3.6-6.3c-1-1.7-2.4-2.4-3.9-1.6c-1.1,0.7-1.6,2-1.2,3.3
	c0.1,0.4,0.2,0.7,0.4,1l3.7,6.3l-1.9,1.1L507.4,719.2z"/>
<g class="st5">
	<path class="st4" d="M126.2,553.5c0-7.8-0.1-14.4-0.5-20.5h10.5l0.4,12.9h0.5c3-8.8,10.2-14.4,18.2-14.4c1.1,0,2.3,0.1,3.4,0.4
		v11.3c-1.3-0.3-2.7-0.4-4.1-0.4c-8.4,0-14.4,6.4-16.1,15.4c-0.3,1.8-0.5,3.7-0.6,5.6v35.1h-11.8v-45.4H126.2z"/>
	<path class="st4" d="M224.5,565.4c0,24.3-16.9,35-32.8,35c-17.8,0-31.6-13.1-31.6-33.9c0-22,14.4-35,32.6-35
		C211.7,531.5,224.5,545.2,224.5,565.4z M172.3,566.1c0,14.4,8.3,25.3,20,25.3c11.4,0,20-10.8,20-25.6c0-11.2-5.6-25.3-19.7-25.3
		S172.3,553.5,172.3,566.1z"/>
	<path class="st4" d="M238.9,533l9.4,14.2c2.4,3.7,4.5,7.1,6.7,10.7h0.4c2.2-3.9,4.4-7.3,6.5-10.9l9.2-14H284l-22.4,31.8l23.1,34
		h-13.6l-9.7-14.8c-2.6-3.8-4.8-7.5-7.1-11.4H254c-2.2,3.9-4.5,7.5-6.9,11.4l-9.5,14.8h-13.2l23.4-33.6L225.6,533H238.9z"/>
	<path class="st4" d="M298.3,533l14.4,38.9c1.5,4.3,3.1,9.5,4.2,13.5h0.3c1.2-3.9,2.6-9,4.2-13.7l13.1-38.6h12.6l-18,46.9
		c-8.6,22.6-14.4,34.1-22.6,41.2c-4.1,3.8-9.1,6.5-14.6,7.8l-3-10.1c3.8-1.3,7.4-3.2,10.4-5.8c4.3-3.6,7.8-8.2,10.1-13.3
		c0.5-0.9,0.8-1.9,1-2.8c-0.1-1.1-0.4-2.1-0.8-3.1L285.3,533H298.3z"/>
	<path class="st4" d="M409,533c-0.3,4.8-0.5,10.1-0.5,18.1v38.2c0,15.1-3,24.3-9.4,30.1c-6.4,6-15.6,7.9-23.9,7.9
		c-7.9,0-16.6-1.9-21.9-5.4l3-9.1c5.8,3.5,12.5,5.2,19.3,5.2c12.2,0,21.2-6.4,21.2-23v-7.3h-0.3c-3.7,6.1-10.7,11-20.9,11
		c-16.3,0-28-13.9-28-32.1c0-22.3,14.5-35,29.6-35c11.4,0,17.7,6,20.5,11.4h0.3l0.5-9.9L409,533z M396.6,559
		c0.1-1.8-0.2-3.7-0.7-5.4c-2.2-6.9-8-12.7-16.7-12.7c-11.4,0-19.6,9.7-19.6,24.9c0,12.9,6.5,23.7,19.5,23.7c7.6,0,14.3-5,16.6-12.2
		c0.6-2.1,1-4.2,1-6.4L396.6,559z"/>
	<path class="st4" d="M430.7,568.1c0.3,16.2,10.6,22.8,22.6,22.8c8.6,0,13.7-1.5,18.2-3.4l2,8.6c-4.2,1.9-11.4,4.1-21.9,4.1
		c-20.3,0-32.4-13.3-32.4-33.2s11.7-35.5,30.9-35.5c21.5,0,27.2,18.9,27.2,31c0,1.9-0.2,3.7-0.4,5.6L430.7,568.1z M465.8,559.5
		c0.1-7.6-3.1-19.4-16.6-19.4c-12.1,0-17.4,11.2-18.4,19.4H465.8z"/>
	<path class="st4" d="M487.8,550.8c0-6.8-0.1-12.4-0.5-17.8h10.6l0.7,10.9h0.3c3.3-6.2,10.9-12.4,21.8-12.4c9.1,0,23.3,5.4,23.3,28
		v39.3h-12v-37.9c0-10.6-4-19.5-15.2-19.5c-9.5,0.4-17,8.3-16.9,17.8v39.6h-12L487.8,550.8z"/>
	<path class="st4" d="M555.1,598.8v-7.3l9.4-9.1c22.6-21.5,32.8-32.9,32.9-46.2c0-9-4.3-17.3-17.5-17.3c-8,0-14.7,4.1-18.8,7.5
		l-3.8-8.4c7-5.9,15.9-9,25-9c19,0,27.1,13.1,27.1,25.7c0,16.3-11.8,29.5-30.5,47.5l-7.1,6.5v0.3h39.7v9.9L555.1,598.8z"/>
</g>
<path class="st6" d="M387.3,276.2c0-14.5-10.5-20.2-23.8-20.2c-6.6,0.1-13.1,0.5-19.6,1.3v40l9.9,0.2
	C378,297.9,387.3,288.6,387.3,276.2z"/>
<path class="st4" d="M387.3,276.2c0-14.5-10.5-20.2-23.8-20.2c-6.6,0.1-13.1,0.5-19.6,1.3v40l9.9,0.2
	C378,297.9,387.3,288.6,387.3,276.2z"/>
<path class="st7" d="M374.9,305.7c15-4.4,24.7-14.6,24.7-30.8c0-20.9-17.5-29.5-36.3-29.5c-9.7,0-19.6,2.3-29.3,2.3
	c-5.9-0.1-11.8-0.8-17.5-2.3v10.1l15.6,1.9v91.5h-15.6v10.7H362v-10.7h-18.1v-41.3h18.5l34.6,51.9h20.9v-10.7h-13.7L374.9,305.7z"/>
<path class="st4" d="M464.5,353.8c-7.4,0-13.5,3.7-17.2,6.9l-3.5-7.7c6.4-5.4,14.6-8.3,22.9-8.2c5-0.1,9.9,1.1,14.2,3.5
	c22-66.2-13.8-137.6-80-159.6s-137.6,13.8-159.6,80s13.8,137.6,80,159.6c62.1,20.6,129.7-9.6,155.7-69.6
	C474.5,355.7,470.5,353.8,464.5,353.8z M417.9,359.5H397l-34.6-51.9h-18.5v41.3H362v10.7h-45.5v-10.7h15.6v-91.5l-15.6-1.9v-10.1
	c5.7,1.4,11.6,2.2,17.5,2.3c9.7,0,19.6-2.3,29.3-2.3c18.8,0,36.3,8.6,36.3,29.5c0,16.2-9.7,26.5-24.7,30.8l29.3,43.2h13.7
	L417.9,359.5z"/>
<path class="st4" d="M457.2,418v-0.2l6.5-6c17.1-16.5,27.9-28.5,27.9-43.5c0-7.7-3.3-15.6-10.6-20c-1.2,3.5-2.5,6.9-3.9,10.3
	c2.5,2.9,3.6,6.9,3.6,11.1c-0.1,12.2-9.5,22.7-30.2,42.4l-8.6,8.4v6.7h51.7V418H457.2z"/>
</svg>
