<?xml version="1.0" encoding="utf-8"?>
<!-- Generator: Adobe Illustrator 26.5.0, SVG Export Plug-In . SVG Version: 6.00 Build 0)  -->
<svg version="1.1" id="Layer_1" xmlns="http://www.w3.org/2000/svg" xmlns:xlink="http://www.w3.org/1999/xlink" x="0px" y="0px"
	 viewBox="0 0 2521 2911" style="enable-background:new 0 0 2521 2911;" xml:space="preserve">
<style type="text/css">
	.st0{fill:#428BCA;}
	.st1{opacity:0.25;fill:url(#SVGID_1_);enable-background:new    ;}
	.st2{fill:#3674A8;}
	.st3{fill:#E6B35A;}
	.st4{opacity:0.9;}
	.st5{fill:#FFFFFF;}
	.st6{opacity:0.9;fill:#FFFFFF;enable-background:new    ;}
	.st7{fill:none;}
</style>
<g>
	<path class="st0" d="M2450.3,767.5L1258.4,69.6L70.7,767.5v1373.7L1260.5,2828l1189.8-686.8V767.5z"/>
	
		<linearGradient id="SVGID_1_" gradientUnits="userSpaceOnUse" x1="1255.8597" y1="1331.9215" x2="1260.2854" y2="-258.3387" gradientTransform="matrix(1 0 0 -1 0 908.6)">
		<stop  offset="0" style="stop-color:#FFFFFF;stop-opacity:0.83"/>
		<stop  offset="0.56" style="stop-color:#FFFFFF;stop-opacity:0.37"/>
		<stop  offset="1" style="stop-color:#FFFFFF;stop-opacity:0"/>
	</linearGradient>
	<path class="st1" d="M1258.4,1164.4c439.8,0,818.6-195.6,987.4-476.2l-985.3-568.8l0,0L272.1,690.3
		C441.6,969.9,819.3,1164.4,1258.4,1164.4z"/>
	<path class="st2" d="M2521,2183.3V727.7l-100.5-58l-953.1-550.3L1260.5,0l-206.9,119.4L100.5,669.7L0,727.7V2183l100.5,58.3
		l965.1,557.2l195.2,112.5l195.2-112.5l964.4-557.2L2521,2183.3z M100.5,2128.8V789.1l171.5-99.1l988.4-570.5l0,0l985.3,568.8
		l174.6,100.9v1339.4l-1160,670L100.5,2128.8z"/>
	<path class="st3" d="M625.4,2165.5c1-1,2.1-2.1,3.1-3.1h-0.7L625.4,2165.5z"/>
	<g class="st4">
		<path class="st5" d="M432.6,1889.7c0-26.8-0.3-49.4-1.7-70.3h36l1.4,44.3h1.7c10.3-30.2,35-49.4,62.4-49.4c3.8,0,7.9,0.3,11.7,1.4
			v38.8c-4.5-1-9.3-1.4-14.1-1.4c-28.8,0-49.4,22-55.2,52.8c-1,6.2-1.7,12.7-2.1,19.2v120.4h-40.5v-155.8L432.6,1889.7L432.6,1889.7
			z"/>
		<path class="st5" d="M769.9,1930.5c0,83.4-58,120.1-112.5,120.1c-61.1,0-108.4-44.9-108.4-116.3c0-75.5,49.4-120.1,111.8-120.1
			C726,1814.2,769.9,1861.2,769.9,1930.5z M590.8,1932.9c0,49.4,28.5,86.8,68.6,86.8c39.1,0,68.6-37.1,68.6-87.8
			c0-38.4-19.2-86.8-67.6-86.8C612.1,1845.1,590.8,1889.7,590.8,1932.9z"/>
		<path class="st5" d="M819.3,1819.3l32.3,48.7c8.2,12.7,15.4,24.4,23,36.7h1.4c7.5-13.4,15.1-25,22.3-37.4l31.6-48H974l-76.9,109.1
			l79.3,116.6h-46.7l-33.3-50.8c-8.9-13-16.5-25.7-24.4-39.1h-1c-7.5,13.4-15.4,25.7-23.7,39.1l-32.6,50.8h-45.3l80.3-115.3
			l-76.2-110.5H819.3z"/>
		<path class="st5" d="M1023.1,1819.3l49.4,133.5c5.1,14.8,10.6,32.6,14.4,46.3h1c4.1-13.4,8.9-30.9,14.4-47l44.9-132.4h43.2
			l-61.8,160.9c-29.5,77.5-49.4,117-77.5,141.3c-14.1,13-31.2,22.3-50.1,26.8l-10.3-34.7c13-4.5,25.4-11,35.7-19.9
			c14.8-12.4,26.8-28.1,34.7-45.6c1.7-3.1,2.7-6.5,3.4-9.6c-0.3-3.8-1.4-7.2-2.7-10.6l-83.4-208.9H1023.1z"/>
		<path class="st5" d="M1402.9,1819.3c-1,16.5-1.7,34.7-1.7,62.1v131.1c0,51.8-10.3,83.4-32.3,103.3c-22,20.6-53.5,27.1-82,27.1
			c-27.1,0-57-6.5-75.1-18.5l10.3-31.2c19.9,12,42.9,17.8,66.2,17.8c41.9,0,72.7-22,72.7-78.9v-25h-1
			c-12.7,20.9-36.7,37.7-71.7,37.7c-55.9,0-96.1-47.7-96.1-110.1c0-76.5,49.7-120.1,101.6-120.1c39.1,0,60.7,20.6,70.3,39.1h1
			l1.7-34L1402.9,1819.3z M1360.3,1908.5c0.3-6.2-0.7-12.7-2.4-18.5c-7.5-23.7-27.4-43.6-57.3-43.6c-39.1,0-67.2,33.3-67.2,85.4
			c0,44.3,22.3,81.3,66.9,81.3c26.1,0,49.1-17.2,57-41.9c2.1-7.2,3.4-14.4,3.4-22L1360.3,1908.5z"/>
		<path class="st5" d="M1477.3,1939.8c1,55.6,36.4,78.2,77.5,78.2c29.5,0,47-5.1,62.4-11.7l6.9,29.5c-14.4,6.5-39.1,14.1-75.1,14.1
			c-69.6,0-111.2-45.6-111.2-113.9s40.1-121.8,106-121.8c73.8,0,93.3,64.8,93.3,106.4c0,6.5-0.7,12.7-1.4,19.2L1477.3,1939.8z
			 M1597.8,1910.2c0.3-26.1-10.6-66.6-57-66.6c-41.5,0-59.7,38.4-63.1,66.6H1597.8z"/>
		<path class="st5" d="M1673.2,1880.4c0-23.3-0.3-42.5-1.7-61.1h36.4l2.4,37.4h1c11.3-21.3,37.4-42.5,74.8-42.5
			c31.2,0,79.9,18.5,79.9,96.1v134.8h-41.2v-130c0-36.4-13.7-66.9-52.1-66.9c-32.6,1.4-58.3,28.5-58,61.1v135.9h-41.2L1673.2,1880.4
			z"/>
		<path class="st5" d="M1904.1,2045.1v-25l32.3-31.2c77.5-73.8,112.5-112.9,112.9-158.5c0-30.9-14.8-59.4-60-59.4
			c-27.4,0-50.4,14.1-64.5,25.7l-13-28.8c24-20.2,54.6-30.9,85.8-30.9c65.2,0,93,44.9,93,88.2c0,55.9-40.5,101.2-104.6,163
			l-24.4,22.3v1h136.2v34L1904.1,2045.1z"/>
	</g>
	<path class="st6" d="M1328.4,938.3c0-49.7-36-69.3-81.7-69.3c-22.6,0.3-44.9,1.7-67.2,4.5v137.2l34,0.7
		C1296.5,1012.8,1328.4,980.9,1328.4,938.3z"/>
	<path class="st5" d="M1328.4,938.3c0-49.7-36-69.3-81.7-69.3c-22.6,0.3-44.9,1.7-67.2,4.5v137.2l34,0.7
		C1296.5,1012.8,1328.4,980.9,1328.4,938.3z"/>
	<path class="st7" d="M1285.9,1039.5c51.5-15.1,84.7-50.1,84.7-105.7c0-71.7-60-101.2-124.5-101.2c-33.3,0-67.2,7.9-100.5,7.9
		c-20.2-0.3-40.5-2.7-60-7.9v34.7l53.5,6.5v313.9h-53.5v36.7h156.1v-36.7h-62.1V1046h63.5l118.7,178.1h71.7v-36.7h-47L1285.9,1039.5
		z"/>
	<path class="st5" d="M1593.3,1204.5c-25.4,0-46.3,12.7-59,23.7l-12-26.4c22-18.5,50.1-28.5,78.6-28.1c17.2-0.3,34,3.8,48.7,12
		c75.5-227.1-47.3-472.1-274.5-547.5S903,685.5,827.5,912.6s47.3,472.1,274.5,547.5c213.1,70.7,445-32.9,534.2-238.8
		C1627.6,1211.1,1613.9,1204.5,1593.3,1204.5z M1433.4,1224.1h-71.7L1243,1046h-63.5v141.7h62.1v36.7h-156.1v-36.7h53.5V873.8
		l-53.5-6.5v-34.7c19.6,4.8,39.8,7.5,60,7.9c33.3,0,67.2-7.9,100.5-7.9c64.5,0,124.5,29.5,124.5,101.2c0,55.6-33.3,90.9-84.7,105.7
		l100.5,148.2h47L1433.4,1224.1z"/>
	<path class="st5" d="M1568.2,1424.8v-0.7l22.3-20.6c58.7-56.6,95.7-97.8,95.7-149.2c0-26.4-11.3-53.5-36.4-68.6
		c-4.1,12-8.6,23.7-13.4,35.3c8.6,9.9,12.4,23.7,12.4,38.1c-0.3,41.9-32.6,77.9-103.6,145.5l-29.5,28.8v23h177.4v-31.6H1568.2z"/>
</g>
</svg>
