<?xml version="1.0" encoding="utf-8"?>
<!-- Generator: Adobe Illustrator 26.5.0, SVG Export Plug-In . SVG Version: 6.00 Build 0)  -->
<svg version="1.1"
	 id="svg8" xmlns:dc="http://purl.org/dc/elements/1.1/" xmlns:inkscape="http://www.inkscape.org/namespaces/inkscape" xmlns:rdf="http://www.w3.org/1999/02/22-rdf-syntax-ns#" xmlns:sodipodi="http://sodipodi.sourceforge.net/DTD/sodipodi-0.dtd" xmlns:cc="http://creativecommons.org/ns#" xmlns:svg="http://www.w3.org/2000/svg" inkscape:export-filename="C:\Users\apdev\Documents\github\R-packages\maintainer\rrd\man\figures\logo.png" inkscape:export-xdpi="46.16" inkscape:export-ydpi="46.16" inkscape:version="0.92.5 (2060ec1f9f, 2020-04-08)" sodipodi:docname="logo.svg"
	 xmlns="http://www.w3.org/2000/svg" xmlns:xlink="http://www.w3.org/1999/xlink" x="0px" y="0px" viewBox="0 0 2521 2911"
	 style="enable-background:new 0 0 2521 2911;" xml:space="preserve">
<style type="text/css">
	.st0{fill:#7F9FFF;}
	.st1{fill:#DEC8B3;}
	.st2{fill:#E39854;}
	.st3{clip-path:url(#SVGID_00000149381406464435894470000008440993669261902239_);}
	.st4{clip-path:url(#SVGID_00000021819948920458674430000002164057061244809381_);}
	.st5{fill:#E14A2D;}
	.st6{fill:#4B4748;}
</style>
<sodipodi:namedview  bordercolor="#666666" borderopacity="1.0" fit-margin-bottom="0" fit-margin-left="0" fit-margin-right="0" fit-margin-top="0" id="base" inkscape:current-layer="layer1" inkscape:cx="258.38432" inkscape:cy="255.70606" inkscape:document-units="mm" inkscape:pageopacity="0.0" inkscape:pageshadow="2" inkscape:window-height="1017" inkscape:window-maximized="1" inkscape:window-width="1920" inkscape:window-x="-8" inkscape:window-y="-8" inkscape:zoom="1.4157488" pagecolor="#ffffff" showgrid="false">
	</sodipodi:namedview>
<g id="layer1" transform="translate(-36.586189,-70.436586)" inkscape:groupmode="layer" inkscape:label="Layer 1">
	
		<path id="path4573" inkscape:flatsided="true" inkscape:randomized="0" inkscape:rounded="0" inkscape:transform-center-x="3.0492663e-06" inkscape:transform-center-y="-6.6020762e-06" sodipodi:arg1="0.52359878" sodipodi:arg2="1.0471976" sodipodi:cx="102.62011" sodipodi:cy="146.68599" sodipodi:r1="73.940002" sodipodi:r2="64.03392" sodipodi:sides="6" sodipodi:type="star" d="
		M2519.4,2231.6l-1222.3,705.7L74.8,2231.6V820.2l1222.3-705.7l1222.3,705.7V2231.6z"/>
	<g id="path840">
		<path class="st0" d="M1297.1,2981.4L36.6,2253.7V798.2L1297.1,70.4l1260.5,727.8v1455.5L1297.1,2981.4z M112.9,2209.6
			l1184.1,683.7l1184.1-683.7V842.3L1297.1,158.6L112.9,842.3V2209.6z"/>
	</g>
	<g id="text862">
		<path id="path854" inkscape:connector-curvature="0" class="st0" d="M1103.6,2332.7h-7.6c-3.6-1.3-9.5-2.2-17.5-2.8
			s-14.8-0.9-20.1-0.9c-12.2,0-22.9,0.8-32.2,2.4c-9.3,1.6-19.3,4.3-30.1,8v178h-85.2v-265.9h85.2v39.1c18.8-16.1,35.1-26.8,49-32
			c13.9-5.4,26.7-8,38.4-8c3,0,6.4,0.1,10.2,0.2c3.8,0.2,7.1,0.4,9.9,0.7L1103.6,2332.7z"/>
		<path id="path856" inkscape:connector-curvature="0" class="st0" d="M1360.5,2332.7h-7.6c-3.6-1.3-9.5-2.2-17.5-2.8
			c-8-0.6-14.8-0.9-20.1-0.9c-12.2,0-22.9,0.8-32.2,2.4c-9.3,1.6-19.3,4.3-30.1,8v178h-85.2v-265.9h85.2v39.1
			c18.8-16.1,35.1-26.8,49-32c13.9-5.4,26.7-8,38.4-8c3,0,6.4,0.1,10.2,0.2c3.8,0.2,7.1,0.4,9.9,0.7L1360.5,2332.7z"/>
		<path id="path858" inkscape:connector-curvature="0" class="st0" d="M1683.3,2517.4h-85.2v-27.7c-14.7,12-28.4,20.8-41.2,26.5
			c-12.8,5.7-27.5,8.5-44.3,8.5c-32.4,0-58.2-12.5-77.7-37.4c-19.4-24.9-29.1-58.6-29.1-100.9c0-22.6,3.2-42.5,9.7-59.9
			c6.6-17.5,15.6-32.5,27-45c10.7-11.8,23.8-21,39.1-27.5c15.3-6.6,30.6-9.9,45.9-9.9c15.9,0,29,1.7,39.1,5.2
			c10.3,3.3,20.8,7.6,31.5,12.8V2149h85.2L1683.3,2517.4z M1598.1,2444v-130.4c-6-2.5-12.3-4.3-18.9-5.4c-6.6-1.1-12.7-1.7-18.2-1.7
			c-22.4,0-39.2,7-50.4,21.1c-11.2,13.9-16.8,33.2-16.8,58c0,26,4.5,45,13.5,56.8c9,11.7,23.4,17.5,43.3,17.5
			c7.7,0,15.9-1.4,24.6-4.3C1583.8,2452.6,1591.4,2448.7,1598.1,2444L1598.1,2444z"/>
	</g>
	<g id="g1095">
		<g id="g1013" transform="matrix(0.85632637,0,0,0.85632637,233.99258,-132.20593)">
			<g id="path974">
				<path class="st1" d="M846.3,2378.2l-78.9-23.2c-6.6-1.9-10.3-8.8-8.4-15.4c1.9-6.6,8.8-10.3,15.4-8.4l61.8,18.2l151.7-218.5
					c3.9-5.6,11.6-7,17.3-3.1c5.6,3.9,7,11.6,3.1,17.3L846.3,2378.2z"/>
			</g>
			<g id="path976">
				<g>
					<path class="st1" d="M915.9,2459.7c-4.9,0-9.5-2.9-11.5-7.7c-3.6-8.5-40.1-47.9-72-79.5l-44.2-43.9l212.4,86.9
						c6.3,2.6,9.4,9.8,6.8,16.2c-2.6,6.3-9.8,9.4-16.2,6.8l-99.9-40.9c16.8,18.1,32.5,36.5,36,45c2.6,6.3-0.5,13.5-6.8,16.1
						C919.1,2459.4,917.5,2459.7,915.9,2459.7z"/>
				</g>
			</g>
		</g>
		<g id="g1017" transform="matrix(0.85632637,0,0,0.85632637,233.99258,-132.20593)">
			<g id="path978">
				<g>
					<path class="st1" d="M1169.7,2526.7c-5.5,0-10.5-3.6-12-9.2c-1.8-6.6,2.1-13.4,8.7-15.2l48.6-13.2l19.9-282.4
						c0.5-6.8,6.3-11.8,13.3-11.5c6.8,0.5,12,6.4,11.5,13.3l-21.2,300l-65.6,17.8C1171.9,2526.5,1170.8,2526.7,1169.7,2526.7z"/>
				</g>
			</g>
			<g id="path980">
				<path class="st1" d="M1313.5,2574.7c-2.5,0-5.1-0.8-7.3-2.4l-123.8-90.8l200.2,21.2c6.8,0.7,11.8,6.8,11,13.6
					c-0.7,6.8-6.8,11.8-13.6,11l-108.7-11.5l49.6,36.4c5.5,4.1,6.7,11.8,2.7,17.3C1321.1,2573,1317.3,2574.7,1313.5,2574.7z"/>
			</g>
		</g>
		<g id="path956">
			<path inkscape:connector-curvature="0" class="st2" d="M1818.4,1298.6l104.8-17.2l-113.6-102.5L1818.4,1298.6z"/>
			<path d="M1816.4,1301.2l-9.3-127.5l120.9,109.2L1816.4,1301.2z M1812.2,1184.1l8.2,112l98-16.1L1812.2,1184.1z"/>
		</g>
		<g id="path952">
			<path inkscape:connector-curvature="0" class="st1" d="M1036.8,617.3L948.3,641l-6.7,43.4l-32.9,12l3.9,36.6l-27.2,11.4l5.2,22.2
				L858.9,790l81.8,171.5c-82.5,102.1-121,232.7-107.2,363.2c1.8,15.6,4.4,31,7.6,46.3l-170.8,50.8l218.7,82.9
				c94.9,178.3,288.6,281,489.4,259.7c271.9-29.1,468.7-273,439.7-544.9c-29.1-271.9-273-468.7-544.9-439.7c0,0,0,0,0,0
				c-94.2,10.1-183.5,47-257.4,106.3L1036.8,617.3z"/>
			<path d="M1325.7,1768.5c-80.8,0-160.2-19.7-232.3-57.9c-87.6-46.5-158.6-117.3-205.3-204.8l-221.9-84.1l173.4-51.6
				c-3.2-14.9-5.6-30.1-7.4-45.2c-13.9-131.5,24-260.6,106.9-363.6l-81.9-171.8l31.8-23.4l-5.3-22.4l27.4-11.5l-3.9-36.6l33.1-12.1
				l6.8-43.5l91.2-24.4l-0.1,1.9l-20.7,265.7c73.7-58.5,162.1-94.6,255.7-104.6c131.9-14.1,261.3,24,364.5,107.3
				c103.2,83.3,167.8,201.7,181.9,333.6c29.1,272.2-168.7,517.3-440.9,546.4C1361,1767.6,1343.3,1768.5,1325.7,1768.5z M674.5,1422
				l215.5,81.7l0.2,0.4c46.4,87.2,117.1,157.8,204.4,204.1c87.3,46.3,185.4,65.3,283.6,54.8c270.7-28.9,467.4-272.7,438.5-543.4
				c-14-131.1-78.3-249-180.9-331.8c-102.6-82.8-231.4-120.7-362.5-106.7c-94.1,10.1-182.9,46.7-256.7,106l-2.4,1.9l0.2-3.1
				l20.8-266.9l-85.9,23l-6.7,43.3l-32.6,12l3.9,36.5l-27.1,11.4l5.2,22l-31.5,23.2l81.7,171.3l-0.5,0.7
				c-82.8,102.5-120.8,231.2-106.9,362.3c1.8,15.4,4.4,31,7.6,46.2l0.3,1.2L674.5,1422z"/>
		</g>
		<g>
			<defs>
				<path id="SVGID_1_" d="M867.8,1504.5c0,0,89.9,50.7,218.2,65.2c128.3,14.5-70.7-2.5-7.7,2.8c62.9,5.3,200.5-5.3,252.4-67.2
					c51.8-61.9,38.6-61,90.1-210.8c29.2-84.8,296.9-64,321.8-62.1c74.7,5.9,105.2,90,92.5,173.7c-12.7,83.7-53.1,167.1-109.9,219
					c-62.7,57.2-266.9,137.6-354.8,148.6c-87.9,10.9-256.8-40-300.9-57.4c-44.1-17.4-160.9-93.5-180.4-125.6
					C869.5,1558.6,867.8,1504.5,867.8,1504.5L867.8,1504.5z"/>
			</defs>
			<defs>
				
					<ellipse id="SVGID_00000083769937340995488570000000132823961064260277_" transform="matrix(0.7071 -0.7071 0.7071 0.7071 -511.1421 1312.8115)" cx="1329.1" cy="1273.4" rx="495.1" ry="495.1"/>
			</defs>
			<clipPath id="SVGID_00000142884149427512052640000009786890708711314570_">
				<use xlink:href="#SVGID_1_"  style="overflow:visible;"/>
			</clipPath>
			
				<clipPath id="SVGID_00000065038567836449546060000005877887724112223670_" style="clip-path:url(#SVGID_00000142884149427512052640000009786890708711314570_);">
				<use xlink:href="#SVGID_00000083769937340995488570000000132823961064260277_"  style="overflow:visible;"/>
			</clipPath>
			<g id="path987" style="clip-path:url(#SVGID_00000065038567836449546060000005877887724112223670_);">
				<path inkscape:connector-curvature="0" class="st5" d="M1036.8,617.3L948.3,641l-6.7,43.4l-32.9,12l3.9,36.6l-27.2,11.4
					l5.2,22.2L858.9,790l81.8,171.5c-82.5,102.1-121,232.7-107.2,363.2c1.8,15.6,4.4,31,7.6,46.3l-170.8,50.8l218.7,82.9
					c94.9,178.3,288.6,281,489.4,259.7c271.9-29.1,468.7-273,439.7-544.9c-29.1-271.9-273-468.7-544.9-439.7c0,0,0,0,0,0
					c-94.2,10.1-183.5,47-257.4,106.3L1036.8,617.3z"/>
				<g>
					<path d="M1325.7,1768.5c-80.8,0-160.2-19.7-232.3-57.9c-87.6-46.5-158.6-117.3-205.3-204.8l-218.3-82.7l0.1-2.5l169.6-50.4
						c-3.2-14.9-5.6-30.1-7.4-45.2c-13.9-131.5,24-260.6,106.9-363.6l-81.9-171.8l31.8-23.4l-5.3-22.4l27.4-11.5l-3.9-36.6
						l33.1-12.1l6.8-43.5l91.2-24.4l-0.1,1.9l-20.7,265.7c73.7-58.5,162.1-94.6,255.7-104.6c272.2-29.1,517.3,168.7,546.4,440.9
						c29.1,272.2-168.7,517.3-440.9,546.4C1361,1767.6,1343.3,1768.5,1325.7,1768.5z M674.5,1422l215.5,81.7l0.2,0.4
						c46.4,87.2,117.1,157.8,204.4,204.1c87.3,46.3,185.4,65.3,283.6,54.8c270.7-28.9,467.4-272.7,438.5-543.4
						c-28.9-270.7-272.7-467.4-543.4-438.5c-94.1,10.1-182.9,46.7-256.7,106l-2.4,1.9l0.2-3.1l20.8-266.9l-85.9,23l-6.7,43.3
						l-32.6,12l3.9,36.5l-27.1,11.4l5.2,22l-31.5,23.2l81.7,171.3l-0.5,0.7c-82.8,102.5-120.8,231.2-106.9,362.3
						c1.8,15.4,4.4,31,7.6,46.2l0.3,1.2L674.5,1422z"/>
				</g>
			</g>
		</g>
		<g id="path962">
			<circle class="st6" cx="1678.7" cy="1154.8" r="38"/>
			<path d="M1678.6,1194.1c-9,0-17.6-3-24.6-8.7c-8.2-6.6-13.3-16-14.4-26.4c-1.1-10.4,1.9-20.7,8.5-28.9c6.6-8.2,16-13.3,26.4-14.4
				l0,0c10.4-1.1,20.7,1.9,28.9,8.5c8.2,6.6,13.3,16,14.4,26.4c1.1,10.4-1.9,20.7-8.5,28.9c-6.6,8.2-16,13.3-26.4,14.4
				C1681.4,1194,1680,1194.1,1678.6,1194.1z M1678.8,1118.1c-1.3,0-2.6,0.1-4,0.2h0c-9.7,1-18.5,5.8-24.6,13.4
				c-6.2,7.6-9,17.2-7.9,26.9s5.8,18.5,13.4,24.6c7.6,6.1,17.2,9,26.9,7.9c9.7-1,18.5-5.8,24.6-13.4c6.2-7.6,9-17.2,7.9-26.9
				s-5.8-18.5-13.4-24.6C1695.1,1120.9,1687.1,1118.1,1678.8,1118.1z"/>
		</g>
	</g>
</g>
</svg>
