<?xml version="1.0" encoding="utf-8"?>
<!-- Generator: Adobe Illustrator 26.5.0, SVG Export Plug-In . SVG Version: 6.00 Build 0)  -->
<svg version="1.1" id="Layer_1" xmlns="http://www.w3.org/2000/svg" xmlns:xlink="http://www.w3.org/1999/xlink" x="0px" y="0px"
	 viewBox="0 0 2521 2911" style="enable-background:new 0 0 2521 2911;" xml:space="preserve">
<style type="text/css">
	.st0{fill:#136C38;}
	.st1{opacity:0.25;fill:url(#SVGID_1_);enable-background:new    ;}
	.st2{fill:#005629;}
	.st3{fill:#E6B35A;}
	.st4{opacity:0.94;}
	.st5{fill:#FFFFFF;}
	.st6{opacity:0.94;enable-background:new    ;}
</style>
<g>
	<path class="st0" d="M2441.4,764.1L1262.2,44.6L79.6,764.1v1364.2l1180.9,681.8l1180.9-681.8V764.1z"/>
	
		<linearGradient id="SVGID_1_" gradientUnits="userSpaceOnUse" x1="1258.5894" y1="1331.0142" x2="1263.0498" y2="-259.3993" gradientTransform="matrix(1 0 0 -1 0 912)">
		<stop  offset="0" style="stop-color:#FFFFFF;stop-opacity:0.83"/>
		<stop  offset="0.56" style="stop-color:#FFFFFF;stop-opacity:0.37"/>
		<stop  offset="1" style="stop-color:#FFFFFF;stop-opacity:0"/>
	</linearGradient>
	<path class="st1" d="M1262.2,1169c440.9,0,820-196.3,988.4-478l-990.1-571.6l0,0L272.8,689.7C440.9,972,820.7,1169,1262.2,1169z"/>
	<path class="st2" d="M2521,2183.6V727.7l-100.5-58l-953.1-550.4L1260.5,0l-206.9,119.4L100.5,669.8L0,727.7v1455.5l100.5,58
		l965.1,557.2l195.2,112.5l195.2-112.5l965.1-557.2L2521,2183.6z M100.5,2129V789.2l172.2-99.5l987.7-570.3l0,0L2250.6,691
		l169.8,98.1V2129l-1160,669.8L100.5,2129z"/>
	<path class="st3" d="M1258.8,2171.6c1-1,2.1-2.1,3.1-3.1h-1C1260.5,2169.5,1259.8,2170.6,1258.8,2171.6z"/>
	<g class="st4">
		<path class="st5" d="M435,1935.9c0-31.2-0.7-58.3-2.1-83h42.2l1.7,52.2h2.1c12-35.7,41.2-58.3,73.4-58.3c4.5,0,9.3,0.3,13.7,1.7
			v45.6c-5.5-1-11-1.7-16.5-1.7c-34,0-58.3,25.7-64.8,62.1c-1.4,7.5-2.1,15.1-2.1,22.6v141.7H435V1935.9z"/>
		<path class="st5" d="M590.5,2069c19.2,12,41.2,18.5,63.8,19.2c35,0,51.5-17.5,51.5-39.5c0-23-13.7-35.7-49.4-48.7
			c-47.7-17.2-70.3-43.2-70.3-75.1c0-42.9,34.7-77.9,91.6-77.9c22.6-0.3,45.3,5.5,65.2,16.5l-12,35c-16.5-10-35-15.4-54.2-15.4
			c-28.5,0-44.6,16.5-44.6,36.4c0,22,15.8,31.9,50.4,44.9c46,17.5,69.6,40.5,69.6,80.3c0,46.7-36.4,79.6-99.5,79.6
			c-29.2,0-55.9-7.2-74.8-18.2L590.5,2069z"/>
		<path class="st5" d="M944.2,2118.7l-3.8-33.6h-1.7c-14.8,20.9-43.2,39.5-81.3,39.5c-53.9,0-81.3-37.7-81.3-76.2
			c0-64.2,57-99.5,159.9-98.8v-5.5c0-22-6.2-61.4-60.4-61.4c-24.4,0-48.4,6.9-69.3,19.9l-11-31.9c22-14.4,53.9-23.7,87.1-23.7
			c81.3,0,100.9,55.6,100.9,108.8v99.5c-0.3,21.3,1,42.5,4.5,63.8L944.2,2118.7z M937,1982.9c-52.8-1-112.5,8.2-112.5,59.7
			c0,31.2,20.9,46,45.6,46c28.8,0.7,54.9-17.2,64.2-44.6c1.7-4.8,2.7-10.3,2.7-15.4V1982.9z"/>
		<path class="st5" d="M1044,1924.9c0-27.4-0.7-50.1-2.1-72.1h42.2l2.1,42.9h1.7c14.8-25.4,39.5-48.7,83.4-48.7
			c36.4,0,63.8,22,75.1,53.2h1c7.2-13.4,17.5-25.4,29.5-34.7c15.8-12,33.6-18.5,58.7-18.5c35,0,87.1,23,87.1,115.3v156.5h-47.3
			v-150.3c0-51.1-18.5-81.7-57.6-81.7c-27.4,0-48.7,20.2-57,43.9c-2.4,7.9-3.8,15.8-3.8,24v164h-47.3v-159.5
			c0-42.2-18.5-73.1-55.6-73.1c-30.2,0-52.1,24-59.7,48.4c-2.7,7.5-4.1,15.4-3.8,23.7v160.2h-47.3v-193.5H1044z"/>
		<path class="st5" d="M1484.2,1939.6c0-34-1-61.4-2.1-86.8h43.2l2.1,45.6h1c19.9-32.3,51.1-51.5,94.3-51.5
			c64.2,0,112.5,54.2,112.5,135.2c0,95.4-58.3,142.7-120.8,142.7c-35,0-65.9-15.4-81.7-41.9h-1v144.5h-47.7V1939.6z M1531.9,2010.3
			c0,6.5,1,13.4,2.1,19.9c8.2,33.3,38.1,56.6,72.4,56.6c51.1,0,80.6-41.9,80.6-102.6c0-53.2-28.1-98.8-78.9-98.8
			c-32.9,0-63.8,23.7-73.1,59.7c-2.1,6.5-3.1,13-3.4,19.9L1531.9,2010.3L1531.9,2010.3z"/>
		<path class="st5" d="M1778.9,1729h48.4v389.8h-48.4V1729z"/>
		<path class="st5" d="M1917.9,1994.5c1,65.2,42.9,92.3,91.3,92.3c34.7,0,55.6-6.2,73.8-13.7l8.2,34.7c-17.2,7.5-46,16.5-88.5,16.5
			c-81.7,0-130.7-53.9-130.7-133.8s47.3-143.4,124.5-143.4c86.8,0,109.8,76.2,109.8,125.2c0,7.5-0.7,15.1-1.7,22.6L1917.9,1994.5z
			 M2059.5,1959.9c0.7-30.9-12.7-78.6-66.9-78.6c-48.7,0-70.3,44.9-74.1,78.6H2059.5z"/>
	</g>
	<g class="st4">
		<path class="st5" d="M1400.5,1645.2l-0.7,0.3c-4.8,2.4-9.6,5.5-14.1,8.9c-5.8,4.5-13,6.5-20.2,6.5c-9.9,0-23.7-3.4-28.1-13.7
			c-4.1-9.3-6.5-11.3-7.2-12c-0.7,0.3-3.4,2.1-8.9,10.3c-4.8,7.5-16.1,7.9-28.1,8.2c-4.5,0-9.3,0.3-13,0.7l-6.5,1l-1-6.5
			c-0.3-3.4-0.7-6.2-1-8.6c-0.3-3.4-0.7-6.9-1.7-10c-0.7-2.1-1.7-4.1-2.7-6.2c-2.7,2.7-5.8,4.8-9.6,6.2c-10.3,3.1-20.2,5.1-31.2,7.2
			l-12.7,2.7l-6.5,1.4l-1.4-6.5c-6.2-28.5-19.9-42.9-44.9-46.7l-3.4,48.7l-61.4-12.4l2.1-18.9l-13.4,20.2l-63.1-8.9l-3.4-23h-1
			c-3.1,0-6.2,0.7-9.3,1.7c-6.9,8.2-13,16.1-25.7,16.1c-3.4,0-6.5-0.3-9.9-1.4c-17.2-4.5-17.5-16.5-17.8-24c0-1.4,0-2.4-0.3-3.4
			c-2.1,2.1-4.5,3.8-6.9,5.1c-5.5,2.7-11,5.1-16.5,7.2l-6.5,2.4l-6.5,2.7l-2.4-6.5c-1-2.1-1.7-4.1-3.1-6.2c-3.1-6.2-6.5-13-4.1-19.6
			c17.2-46.7,14.1-94.4,7.5-139.3c-4.8-31.6,2.7-63.5,21.3-89.6c24.4-34.3,31.6-70.3,22.3-110.1c-3.4-14.1-6.5-28.8-9.6-42.5
			c-8.6-39.8-17.5-80.6-30.5-119.7c-6.2-18.2-16.8-35-28.1-52.5c-7.5-11.3-14.4-22.6-20.6-34.7c-3.8-7.2-8.6-25.4-3.8-34.7
			c1.7-3.4,5.1-5.8,9.3-6.5c3.8-0.3,6.9-0.7,10.3-1c11.3-0.7,22.6-2.7,33.6-5.5l4.1-1.4c20.9-6.2,47-13.7,72-13.7
			c15.4-0.3,30.9,3.4,44.3,11.3c12,7.2,26.4,10.6,41.5,14.1c6.5,1.4,13,3.1,19.6,4.8c2.4-0.3,5.1-0.3,7.2-0.3
			c10.6,0,21.3,2.7,30.9,7.5c4.8,2.7,10.3,4.5,16.1,4.8c4.8,0,9.3-1,13.4-2.7c26.1-10,47.7-14.4,68.3-14.4c14.1,0,28.1,2.4,41.5,6.9
			c20.2,6.9,32.9,18.5,37.4,32.9c4.5,14.4,0,31.2-13,48c-1.7,2.1-3.4,4.1-5.5,6.2c-2.7,2.4-4.8,5.1-6.2,8.2
			c-2.1,7.2-1.7,15.1,0,16.8c47.7,54.6,57.6,119.7,29.8,193.2c-5.5,14.4-4.1,20.6,6.2,31.2c5.8,6.9,11.3,14.4,15.8,22.3
			c6.9,11,14.1,22,22,24.4c18.5,5.5,28.1,17.5,36.7,28.1c4.1,5.8,9.3,11.3,15.1,15.8c16.8,12,36.7,18.5,57.3,18.2
			c4.5,0,8.9-0.3,13.4-0.7c6.9-0.7,13.7-1,20.6-1c33.6,0.3,66.9,8.2,96.8,23.7c29.2,14.4,50.8,40.5,60,71.7c8.6,28.5,8.9,59,1,87.5
			c-9.6,35-24,68.6-66.9,76.5c-0.7,0-1.4,0.3-2.1,0.3c-1,0-2.1,0-3.1-0.3h-1l-3.4-0.3l-9.3-16.5c-10.6,17.2-20.9,24.7-32.6,24.7
			c-8.6,0-16.5-4.1-25.4-13.4c-8.2,16.5-20.6,20.2-30.2,20.2c-4.1,0-7.9-0.7-11.7-1.7l-1.7-0.3c-4.5-0.7-8.2-2.4-11.7-5.5
			c-3.8-4.5-7.9-8.6-12.4-12.4c-3.4,5.5-6.2,11.7-8.2,17.5l-1.7,3.8l-40.8,3.8L1400.5,1645.2z"/>
		<path d="M996.3,923.3c14.4-0.3,28.5,3.1,40.8,10.3c18.5,11.3,42.9,13.4,64.2,19.9c2.7-0.3,5.1-0.3,7.9-0.3
			c23.7,0,30.9,12.4,47,12.4c5.5,0,11-1.4,15.8-3.4c21.6-8.2,43.6-13.7,65.9-13.7c13.4,0,26.8,2.1,39.5,6.5
			c36.7,12.7,44.9,40.1,21.3,70.7c-4.1,5.5-11,10.3-12.7,16.5c-2.1,7.2-2.7,18.2,1.4,23c49.1,56.3,53.9,119.7,28.5,186.3
			c-6.5,17.2-4.1,26.1,7.5,38.1c14.8,15.4,24.4,43.2,41.2,48c26.4,7.5,32.6,30.5,49.7,43.2c17.8,13,39.5,19.9,61.4,19.2
			c4.5,0,9.3-0.3,13.7-0.7c6.5-0.7,13.4-1,19.9-1c32.6,0.3,64.8,8.2,93.7,23c60.4,30.2,71.7,99.5,57.6,151.3
			c-8.9,32.9-22,64.5-61.4,71.7c-0.3,0-0.7,0-1,0c-1.4,0-2.4-0.3-3.8-0.3l-13.4-23.7c-11.3,21.3-22,31.6-32.6,31.6
			c-8.6,0-17.5-6.5-27.8-19.9c-4.8,16.8-13.4,26.4-27.8,26.4c-3.4,0-6.9-0.3-9.9-1.4c-3.4-1-7.9-1.4-9.9-3.8
			c-8.9-9.6-14.1-14.8-17.8-14.8c-4.8,0-7.9,6.9-14.1,22.3l-30.5,2.7c-1.4-7.9-2.7-15.4-5.1-29.9c-9.6,5.8-17.8,9.3-24,15.1
			c-4.5,3.4-10.3,5.1-15.8,4.8c-9.3,0-19.2-3.4-22.3-10c-4.5-9.6-8.6-15.8-13.4-15.8c-3.8,0-8.6,4.1-14.4,13.4
			c-4.5,6.9-23,4.1-36.4,5.8c-0.7-6.5-1.4-13-3.1-19.6c-2.1-5.1-4.5-10.6-7.2-15.4c-4.5,3.8-8.2,9.3-13.4,11
			c-13.7,4.1-28.1,6.5-43.6,9.6c-7.2-33.3-25-50.1-57.6-52.5c-1,15.8-2.1,30.9-3.4,48l-48-9.6c1-8.9,2.1-17.2,3.1-25l-6.2-3.4
			l-18.2,27.8l-53.9-7.5c-1.7-10-2.7-17.2-3.8-24.7c-7.2,1.7-17.2,1-20.9,5.5c-6.5,7.9-11,13.7-20.2,13.7c-2.7,0-5.5-0.3-8.2-1
			c-16.5-4.5-11.3-15.8-13.7-25.7c-1-2.4-2.1-5.1-3.4-7.5c-4.8,4.1-8.2,8.6-12.7,11.3c-7.2,3.4-14.8,6.5-22.3,9.3
			c-2.4-7.2-8.9-15.8-6.9-21.3c17.5-47,14.8-94.4,7.9-142.4c-4.5-29.9,2.7-60,20.2-84.7c25-35.3,33.3-73.8,23.7-115.6
			c-12.7-54.6-22.6-110.1-40.1-163c-10.3-31.2-34-58-49.1-88.2c-4.5-8.6-8.9-30.5,0.3-31.6c13.4-1.7,18.5-0.3,44.6-6.5
			C943.1,932.2,970.6,923.7,996.3,923.3 M996.3,910.3c-26.1,0-52.5,7.9-74.1,14.1l-4.1,1c-10.6,2.7-21.6,4.5-32.6,5.1
			c-3.1,0.3-6.5,0.3-10.3,1c-6.2,0.7-11.3,4.5-14.4,10c-7.2,13.7,1,36,3.4,41.2c6.2,12.4,13.7,24,20.9,35.3
			c11,17.2,21.6,33.6,27.4,50.8c12.7,38.4,21.6,79.6,30.2,119.1c3.1,14.1,6.2,28.5,9.6,42.9c8.9,38.1,1.7,72.4-21.3,105
			c-19.6,27.4-27.4,61.1-22.3,94.4c10.3,74.5,2.7,109.5-7.2,135.9c-3.4,9.3,1,17.8,4.5,24.7c1,2.1,2.1,4.1,2.7,5.5l4.8,13l13-5.1
			l6.5-2.4c5.1-1.7,10.3-4.1,15.4-6.5c1.7,8.2,6.5,17.8,22,22c3.8,1,7.5,1.7,11.7,1.7c15.1,0,23-8.9,29.5-17.2h0.3l1.7,11.7l1.7,10
			l9.9,1.4l15.4,2.1l38.4,5.5l8.6,1l1.7-2.7l10.6,2.1l1.7,0.3l46,9.3l15.1,3.1l1-15.1l0.7-9.6l1.7-24c17.5,4.8,27.1,17.2,32.3,39.8
			l2.7,13l13-2.7l12.7-2.7c11-2.1,21.3-4.1,31.6-7.2c1.7-0.3,3.1-1,4.5-1.7c0.3,1.7,0.7,3.8,0.7,6.2c0,2.4,0.7,5.5,1,8.9l1.7,13.4
			l13.4-1.7c3.4-0.3,7.9-0.7,12.4-0.7c13-0.3,26.8-0.7,33.6-11c0.7-1.4,1.7-2.4,2.4-3.4c0.7,1,1.4,2.4,2.1,4.1
			c6.2,13,21.6,17.5,34.3,17.5c8.9,0.3,17.8-2.4,24.7-8.2c1.7-1.4,3.4-2.7,5.1-3.8l2.1,11l2.1,12l12.4-1l30.5-2.7l8.2-0.7l3.1-7.5
			c1-2.4,2.4-6.2,3.8-9.3c2.1,2.1,4.1,4.5,5.5,6.2c4.1,3.8,9.3,6.5,15.1,7.2l1.7,0.3c4.5,1,8.9,1.7,13.4,1.7
			c12.7,0,24.7-5.8,31.6-16.5c6.5,5.8,15.1,9.3,24,9.6c13.4,0,23.7-8.2,31.9-18.9l0.7,1l1.7,3.1l3.4,6.2l7.2,0.7h0.7
			c1.4,0.3,2.7,0.3,4.1,0.3c1,0,2.4,0,3.4-0.3c46.3-8.6,62.1-44.3,72-81.7c8.2-29.9,7.9-61.8-1-91.3c-9.6-32.9-32.9-60.4-63.5-75.5
			c-30.9-15.8-65.2-24.4-99.8-24.4c-7.2,0-14.4,0.3-21.3,1c-4.1,0.3-8.2,0.7-12.4,0.7c-19.2,0.3-38.1-5.5-53.5-16.8
			c-5.1-4.5-9.9-9.3-13.7-14.8c-8.6-11-19.6-24.7-40.1-30.5c-5.5-1.7-12.4-12-18.2-21.6c-4.8-8.2-10.6-16.1-16.8-23
			c-7.9-8.2-9.3-11.3-4.5-24c28.5-75.8,18.5-142.7-30.5-199.4c-0.3-3.8-0.3-7.5,0.7-11.3c1.4-2.1,2.7-3.8,4.5-5.1
			c2.1-2.1,4.1-4.1,5.8-6.5c18.2-23.7,17.8-42.5,14.1-54.2c-3.8-11.7-13.7-27.8-41.9-37.4c-14.1-4.8-29.2-7.5-44.3-7.5
			c-21.3,0-43.6,4.8-70.7,14.8c-3.4,1.4-7.2,2.4-11.3,2.4c-4.8-0.3-9.3-1.7-13.4-4.1c-10.3-5.5-22-8.2-34-8.2c-2.1,0-4.5,0-6.5,0.3
			c-6.2-1.7-12.7-3.1-18.9-4.5c-14.8-3.4-28.8-6.5-39.5-13C1029.6,913.7,1013.1,909.6,996.3,910.3L996.3,910.3z"/>
	</g>
	<circle class="st6" cx="1244.7" cy="1275.7" r="14.1"/>
	<circle class="st6" cx="1237.2" cy="1215.7" r="14.1"/>
	<circle class="st6" cx="1228.6" cy="1157.3" r="14.1"/>
	<circle class="st6" cx="1219.3" cy="1094.5" r="14.1"/>
	<g class="st4">
		<g>
			<path class="st5" d="M867.3,972.7c0.3-2.4-2.4-10.3-2.4-13c1.4-39.5-23-92-60-102.2c-48.4-13.4-62.4-49.4-58.7-95.7
				c0.7-7.2-1-14.4-4.5-20.6c-41.5-65.2-29.5-147.5,31.2-199.4c17.8,24,25.4,51.8,28.5,80.6c4.8,41.2-6.9,78.2-30.5,112.2
				c-28.1,40.8-10.6,92.6,36,108.8c41.2,14.4,66.2,27.8,74.1,70.3c4.5,24.7,13.7,23.7,39.1,17.2"/>
			<path d="M874,973.7l-13.3-1.9c0,0.1,0,0.3,0,0.5c0-0.8-0.7-3.4-1.1-5c-0.7-3-1.4-5.5-1.4-7.6c1.3-37.7-22-86.6-55.1-95.8
				c-46.7-12.9-68.1-47.5-63.6-102.8c0.5-5.6-0.7-11.5-3.5-16.6c-43.7-68.8-30.3-154.2,32.6-207.9l5.5-4.7l4.3,5.8
				c16.6,22.3,26,49,29.8,83.9c4.7,40.5-5.9,79.8-31.7,116.8c-12.1,17.6-15.5,38.5-9.3,57.4c6.3,19.1,21.6,34.1,42,41.1
				c39.1,13.7,69.7,27.9,78.5,75.5c1.5,8.2,3.4,12.9,6,14.5c3.8,2.4,13.1,0.3,24.9-2.7l3.3,13c-16.4,4.2-27,6.4-35.5,1
				c-6.1-3.9-9.7-10.9-11.9-23.4c-6.9-37.3-27.1-50.3-69.7-65.2c-22.9-7.9-40.5-24.4-48.8-45.5c6.8,24,23.5,39.2,50.8,46.8
				c40.1,11.1,66.4,66.4,65,109c0,0.4,0.6,2.7,1,4.2C873.7,968.4,874.3,971.2,874,973.7z M771.8,551.8
				c-52.9,49.4-63.2,124.8-24.4,185.7l0.2,0.3c3.5,6.2,5.3,13,5.4,19.8c2.4-9.3,6.5-18.4,12.3-26.8c24.2-34.7,33.8-69.9,29.4-107.6
				C791.6,593.8,784.3,570.9,771.8,551.8z"/>
		</g>
		<g>
			<path class="st5" d="M659.1,859.5c-51.1,0-100.5-27.1-132.1-73.1l-3.4-4.8l5.1-2.7c25.4-12.7,53.2-19.6,81.3-19.6
				c51.8-0.3,100.9,23,133.5,63.1l3.1,3.8l-3.8,3.1C719.5,849.6,689.9,859.8,659.1,859.5z"/>
		</g>
		<path d="M610.4,764.8c50.1-0.3,97.8,22.3,129.7,61.4c-22.6,18.5-51.1,28.8-80.6,28.5c-46.3,0-95-23.3-128-70.7
			C555.8,771.3,582.9,764.8,610.4,764.8 M610.4,754.9L610.4,754.9c-29.2,0-57.6,6.9-83.4,19.9l-10.3,5.1l6.5,9.6
			c32.3,47,83.4,75.1,136.2,75.1c31.6,0.3,62.4-10.6,87.1-30.9l7.5-6.5l-6.2-7.5C714,778.5,663.5,754.5,610.4,754.9L610.4,754.9z"/>
		<g>
			<path class="st5" d="M839.5,845.8c-3.1-37.4,9.3-74.8,34-102.9c28.5-32.6,72-52.8,119.4-55.2l5.5-0.3l-0.3,5.5
				c-4.8,81.7-72,150.6-153,157.5l-5.1,0.3L839.5,845.8z"/>
		</g>
		<path d="M993.2,692.8c-4.8,78.9-71,146.2-148.6,153C838.2,761.4,906.4,697.2,993.2,692.8 M1003.9,682.1l-11.3,0.7
			c-48.4,2.7-93.3,23.3-122.8,57c-25.7,29.2-38.4,67.9-35.3,106.7l0.7,10l9.9-0.7c84.7-8.9,151.3-77.2,157.8-162.3L1003.9,682.1
			L1003.9,682.1z"/>
	</g>
</g>
</svg>
