<?xml version="1.0" encoding="utf-8"?>
<!-- Generator: Adobe Illustrator 22.0.1, SVG Export Plug-In . SVG Version: 6.00 Build 0)  -->
<svg version="1.1" id="Layer_1" xmlns="http://www.w3.org/2000/svg" xmlns:xlink="http://www.w3.org/1999/xlink" x="0px" y="0px"
	 viewBox="0 0 735 852" style="enable-background:new 0 0 735 852;" xml:space="preserve">
<style type="text/css">
	.st0{fill:#136C38;}
	.st1{opacity:0.25;fill:url(#SVGID_1_);enable-background:new    ;}
	.st2{fill:#005629;}
	.st3{fill:#E6B35A;}
	.st4{opacity:0.94;}
	.st5{fill:#FFFFFF;}
	.st6{opacity:0.94;enable-background:new    ;}
	.st7{fill:#FFFFFF;stroke:#000000;stroke-width:3.92;stroke-miterlimit:10;}
</style>
<title>rsample</title>
<path class="st0" d="M711.7,223.7L368,14L23.3,223.7v397.6L367.5,820l344.2-198.7V223.7z"/>
<linearGradient id="SVGID_1_" gradientUnits="userSpaceOnUse" x1="366.9432" y1="-181.1201" x2="368.2432" y2="282.4" gradientTransform="matrix(1 0 0 1 0 60)">
	<stop  offset="0" style="stop-color:#FFFFFF;stop-opacity:0.83"/>
	<stop  offset="0.56" style="stop-color:#FFFFFF;stop-opacity:0.37"/>
	<stop  offset="1" style="stop-color:#FFFFFF;stop-opacity:0"/>
</linearGradient>
<path class="st1" d="M368,341.7c128.5,0,239-57.2,288.1-139.3L367.5,35.8l0,0L79.6,202C128.6,284.3,239.3,341.7,368,341.7z"/>
<path class="st2" d="M734.9,637.4V213.1l-29.3-16.9L427.8,35.8L367.5,1l-60.3,34.8L29.4,196.2L0.1,213.1v424.2l29.3,16.9
	l281.3,162.4l56.9,32.8l56.9-32.8l281.3-162.4L734.9,637.4z M29.4,621.5V231l50.2-29L367.5,35.8l0,0l288.6,166.6l49.5,28.6v390.5
	L367.5,816.7L29.4,621.5z"/>
<path class="st3" d="M367,633.9c0.3-0.3,0.6-0.6,0.9-0.9h-0.3C367.5,633.3,367.3,633.6,367,633.9z"/>
<g class="st4">
	<path class="st5" d="M126.9,565.2c0-9.1-0.2-17-0.6-24.2h12.3l0.5,15.2h0.6c3.5-10.4,12-17,21.4-17c1.3,0,2.7,0.1,4,0.5V553
		c-1.6-0.3-3.2-0.5-4.8-0.5c-9.9,0-17,7.5-18.9,18.1c-0.4,2.2-0.6,4.4-0.6,6.6v41.3h-13.9V565.2z"/>
	<path class="st5" d="M172.2,604c5.6,3.5,12,5.4,18.6,5.6c10.2,0,15-5.1,15-11.5c0-6.7-4-10.4-14.4-14.2
		c-13.9-5-20.5-12.6-20.5-21.9c0-12.5,10.1-22.7,26.7-22.7c6.6-0.1,13.2,1.6,19,4.8l-3.5,10.2c-4.8-2.9-10.2-4.5-15.8-4.5
		c-8.3,0-13,4.8-13,10.6c0,6.4,4.6,9.3,14.7,13.1c13.4,5.1,20.3,11.8,20.3,23.4c0,13.6-10.6,23.2-29,23.2c-8.5,0-16.3-2.1-21.8-5.3
		L172.2,604z"/>
	<path class="st5" d="M275.3,618.5l-1.1-9.8h-0.5c-4.3,6.1-12.6,11.5-23.7,11.5c-15.7,0-23.7-11-23.7-22.2c0-18.7,16.6-29,46.6-28.8
		v-1.6c0-6.4-1.8-17.9-17.6-17.9c-7.1,0-14.1,2-20.2,5.8l-3.2-9.3c6.4-4.2,15.7-6.9,25.4-6.9c23.7,0,29.4,16.2,29.4,31.7v29
		c-0.1,6.2,0.3,12.4,1.3,18.6L275.3,618.5z M273.2,578.9c-15.4-0.3-32.8,2.4-32.8,17.4c0,9.1,6.1,13.4,13.3,13.4
		c8.4,0.2,16-5,18.7-13c0.5-1.4,0.8-3,0.8-4.5V578.9z"/>
	<path class="st5" d="M304.4,562c0-8-0.2-14.6-0.6-21h12.3l0.6,12.5h0.5c4.3-7.4,11.5-14.2,24.3-14.2c10.6,0,18.6,6.4,21.9,15.5h0.3
		c2.1-3.9,5.1-7.4,8.6-10.1c4.6-3.5,9.8-5.4,17.1-5.4c10.2,0,25.4,6.7,25.4,33.6v45.6H401v-43.8c0-14.9-5.4-23.8-16.8-23.8
		c-8,0-14.2,5.9-16.6,12.8c-0.7,2.3-1.1,4.6-1.1,7v47.8h-13.8V572c0-12.3-5.4-21.3-16.2-21.3c-8.8,0-15.2,7-17.4,14.1
		c-0.8,2.2-1.2,4.5-1.1,6.9v46.7h-13.8V562H304.4z"/>
	<path class="st5" d="M432.7,566.3c0-9.9-0.3-17.9-0.6-25.3h12.6l0.6,13.3h0.3c5.8-9.4,14.9-15,27.5-15c18.7,0,32.8,15.8,32.8,39.4
		c0,27.8-17,41.6-35.2,41.6c-10.2,0-19.2-4.5-23.8-12.2h-0.3v42.1h-13.9V566.3z M446.6,586.9c0,1.9,0.3,3.9,0.6,5.8
		c2.4,9.7,11.1,16.5,21.1,16.5c14.9,0,23.5-12.2,23.5-29.9c0-15.5-8.2-28.8-23-28.8c-9.6,0-18.6,6.9-21.3,17.4
		c-0.6,1.9-0.9,3.8-1,5.8L446.6,586.9L446.6,586.9z"/>
	<path class="st5" d="M518.6,504.9h14.1v113.6h-14.1V504.9z"/>
	<path class="st5" d="M559.1,582.3c0.3,19,12.5,26.9,26.6,26.9c10.1,0,16.2-1.8,21.5-4l2.4,10.1c-5,2.2-13.4,4.8-25.8,4.8
		c-23.8,0-38.1-15.7-38.1-39s13.8-41.8,36.3-41.8c25.3,0,32,22.2,32,36.5c0,2.2-0.2,4.4-0.5,6.6L559.1,582.3z M600.4,572.2
		c0.2-9-3.7-22.9-19.5-22.9c-14.2,0-20.5,13.1-21.6,22.9H600.4z"/>
</g>
<g class="st4">
	<path class="st5" d="M408.3,480.5l-0.2,0.1c-1.4,0.7-2.8,1.6-4.1,2.6c-1.7,1.3-3.8,1.9-5.9,1.9c-2.9,0-6.9-1-8.2-4
		c-1.2-2.7-1.9-3.3-2.1-3.5c-0.2,0.1-1,0.6-2.6,3c-1.4,2.2-4.7,2.3-8.2,2.4c-1.3,0-2.7,0.1-3.8,0.2l-1.9,0.3l-0.3-1.9
		c-0.1-1-0.2-1.8-0.3-2.5c-0.1-1-0.2-2-0.5-2.9c-0.2-0.6-0.5-1.2-0.8-1.8c-0.8,0.8-1.7,1.4-2.8,1.8c-3,0.9-5.9,1.5-9.1,2.1l-3.7,0.8
		l-1.9,0.4l-0.4-1.9c-1.8-8.3-5.8-12.5-13.1-13.6l-1,14.2l-17.9-3.6l0.6-5.5l-3.9,5.9l-18.4-2.6l-1-6.7h-0.3c-0.9,0-1.8,0.2-2.7,0.5
		c-2,2.4-3.8,4.7-7.5,4.7c-1,0-1.9-0.1-2.9-0.4c-5-1.3-5.1-4.8-5.2-7c0-0.4,0-0.7-0.1-1c-0.6,0.6-1.3,1.1-2,1.5
		c-1.6,0.8-3.2,1.5-4.8,2.1l-1.9,0.7l-1.9,0.8l-0.7-1.9c-0.3-0.6-0.5-1.2-0.9-1.8c-0.9-1.8-1.9-3.8-1.2-5.7
		c5-13.6,4.1-27.5,2.2-40.6c-1.4-9.2,0.8-18.5,6.2-26.1c7.1-10,9.2-20.5,6.5-32.1c-1-4.1-1.9-8.4-2.8-12.4
		c-2.5-11.6-5.1-23.5-8.9-34.9c-1.8-5.3-4.9-10.2-8.2-15.3c-2.2-3.3-4.2-6.6-6-10.1c-1.1-2.1-2.5-7.4-1.1-10.1
		c0.5-1,1.5-1.7,2.7-1.9c1.1-0.1,2-0.2,3-0.3c3.3-0.2,6.6-0.8,9.8-1.6l1.2-0.4c6.1-1.8,13.7-4,21-4c4.5-0.1,9,1,12.9,3.3
		c3.5,2.1,7.7,3.1,12.1,4.1c1.9,0.4,3.8,0.9,5.7,1.4c0.7-0.1,1.5-0.1,2.1-0.1c3.1,0,6.2,0.8,9,2.2c1.4,0.8,3,1.3,4.7,1.4
		c1.4,0,2.7-0.3,3.9-0.8c7.6-2.9,13.9-4.2,19.9-4.2c4.1,0,8.2,0.7,12.1,2c5.9,2,9.6,5.4,10.9,9.6s0,9.1-3.8,14
		c-0.5,0.6-1,1.2-1.6,1.8c-0.8,0.7-1.4,1.5-1.8,2.4c-0.6,2.1-0.5,4.4,0,4.9c13.9,15.9,16.8,34.9,8.7,56.3c-1.6,4.2-1.2,6,1.8,9.1
		c1.7,2,3.3,4.2,4.6,6.5c2,3.2,4.1,6.4,6.4,7.1c5.4,1.6,8.2,5.1,10.7,8.2c1.2,1.7,2.7,3.3,4.4,4.6c4.9,3.5,10.7,5.4,16.7,5.3
		c1.3,0,2.6-0.1,3.9-0.2c2-0.2,4-0.3,6-0.3c9.8,0.1,19.5,2.4,28.2,6.9c8.5,4.2,14.8,11.8,17.5,20.9c2.5,8.3,2.6,17.2,0.3,25.5
		c-2.8,10.2-7,20-19.5,22.3c-0.2,0-0.4,0.1-0.6,0.1c-0.3,0-0.6,0-0.9-0.1h-0.3l-1-0.1l-2.7-4.8c-3.1,5-6.1,7.2-9.5,7.2
		c-2.5,0-4.8-1.2-7.4-3.9c-2.4,4.8-6,5.9-8.8,5.9c-1.2,0-2.3-0.2-3.4-0.5l-0.5-0.1c-1.3-0.2-2.4-0.7-3.4-1.6
		c-1.1-1.3-2.3-2.5-3.6-3.6c-1,1.6-1.8,3.4-2.4,5.1l-0.5,1.1l-11.9,1.1L408.3,480.5z"/>
	<path d="M290.5,270.1c4.2-0.1,8.3,0.9,11.9,3c5.4,3.3,12.5,3.9,18.7,5.8c0.8-0.1,1.5-0.1,2.3-0.1c6.9,0,9,3.6,13.7,3.6
		c1.6,0,3.2-0.4,4.6-1c6.3-2.4,12.7-4,19.2-4c3.9,0,7.8,0.6,11.5,1.9c10.7,3.7,13.1,11.7,6.2,20.6c-1.2,1.6-3.2,3-3.7,4.8
		c-0.6,2.1-0.8,5.3,0.4,6.7c14.3,16.4,15.7,34.9,8.3,54.3c-1.9,5-1.2,7.6,2.2,11.1c4.3,4.5,7.1,12.6,12,14
		c7.7,2.2,9.5,8.9,14.5,12.6c5.2,3.8,11.5,5.8,17.9,5.6c1.3,0,2.7-0.1,4-0.2c1.9-0.2,3.9-0.3,5.8-0.3c9.5,0.1,18.9,2.4,27.3,6.7
		c17.6,8.8,20.9,29,16.8,44.1c-2.6,9.6-6.4,18.8-17.9,20.9c-0.1,0-0.2,0-0.3,0c-0.4,0-0.7-0.1-1.1-0.1l-3.9-6.9
		c-3.3,6.2-6.4,9.2-9.5,9.2c-2.5,0-5.1-1.9-8.1-5.8c-1.4,4.9-3.9,7.7-8.1,7.7c-1,0-2-0.1-2.9-0.4c-1-0.3-2.3-0.4-2.9-1.1
		c-2.6-2.8-4.1-4.3-5.2-4.3c-1.4,0-2.3,2-4.1,6.5l-8.9,0.8c-0.4-2.3-0.8-4.5-1.5-8.7c-2.8,1.7-5.2,2.7-7,4.4c-1.3,1-3,1.5-4.6,1.4
		c-2.7,0-5.6-1-6.5-2.9c-1.3-2.8-2.5-4.6-3.9-4.6c-1.1,0-2.5,1.2-4.2,3.9c-1.3,2-6.7,1.2-10.6,1.7c-0.2-1.9-0.4-3.8-0.9-5.7
		c-0.6-1.5-1.3-3.1-2.1-4.5c-1.3,1.1-2.4,2.7-3.9,3.2c-4,1.2-8.2,1.9-12.7,2.8c-2.1-9.7-7.3-14.6-16.8-15.3c-0.3,4.6-0.6,9-1,14
		l-14-2.8c0.3-2.6,0.6-5,0.9-7.3l-1.8-1l-5.3,8.1l-15.7-2.2c-0.5-2.9-0.8-5-1.1-7.2c-2.1,0.5-5,0.3-6.1,1.6c-1.9,2.3-3.2,4-5.9,4
		c-0.8,0-1.6-0.1-2.4-0.3c-4.8-1.3-3.3-4.6-4-7.5c-0.3-0.7-0.6-1.5-1-2.2c-1.4,1.2-2.4,2.5-3.7,3.3c-2.1,1-4.3,1.9-6.5,2.7
		c-0.7-2.1-2.6-4.6-2-6.2c5.1-13.7,4.3-27.5,2.3-41.5c-1.3-8.7,0.8-17.5,5.9-24.7c7.3-10.3,9.7-21.5,6.9-33.7
		c-3.7-15.9-6.6-32.1-11.7-47.5c-3-9.1-9.9-16.9-14.3-25.7c-1.3-2.5-2.6-8.9,0.1-9.2c3.9-0.5,5.4-0.1,13-1.9
		C275,272.7,283,270.2,290.5,270.1 M290.5,266.3c-7.6,0-15.3,2.3-21.6,4.1l-1.2,0.3c-3.1,0.8-6.3,1.3-9.5,1.5
		c-0.9,0.1-1.9,0.1-3,0.3c-1.8,0.2-3.3,1.3-4.2,2.9c-2.1,4,0.3,10.5,1,12c1.8,3.6,4,7,6.1,10.3c3.2,5,6.3,9.8,8,14.8
		c3.7,11.2,6.3,23.2,8.8,34.7c0.9,4.1,1.8,8.3,2.8,12.5c2.6,11.1,0.5,21.1-6.2,30.6c-5.7,8-8,17.8-6.5,27.5
		c3,21.7,0.8,31.9-2.1,39.6c-1,2.7,0.3,5.2,1.3,7.2c0.3,0.6,0.6,1.2,0.8,1.6l1.4,3.8l3.8-1.5l1.9-0.7c1.5-0.5,3-1.2,4.5-1.9
		c0.5,2.4,1.9,5.2,6.4,6.4c1.1,0.3,2.2,0.5,3.4,0.5c4.4,0,6.7-2.6,8.6-5h0.1l0.5,3.4l0.5,2.9l2.9,0.4l4.5,0.6l11.2,1.6l2.5,0.3
		l0.5-0.8l3.1,0.6l0.5,0.1l13.4,2.7l4.4,0.9l0.3-4.4l0.2-2.8l0.5-7c5.1,1.4,7.9,5,9.4,11.6l0.8,3.8l3.8-0.8l3.7-0.8
		c3.2-0.6,6.2-1.2,9.2-2.1c0.5-0.1,0.9-0.3,1.3-0.5c0.1,0.5,0.2,1.1,0.2,1.8s0.2,1.6,0.3,2.6l0.5,3.9l3.9-0.5c1-0.1,2.3-0.2,3.6-0.2
		c3.8-0.1,7.8-0.2,9.8-3.2c0.2-0.4,0.5-0.7,0.7-1c0.2,0.3,0.4,0.7,0.6,1.2c1.8,3.8,6.3,5.1,10,5.1c2.6,0.1,5.2-0.7,7.2-2.4
		c0.5-0.4,1-0.8,1.5-1.1l0.6,3.2l0.6,3.5l3.6-0.3l8.9-0.8l2.4-0.2l0.9-2.2c0.3-0.7,0.7-1.8,1.1-2.7c0.6,0.6,1.2,1.3,1.6,1.8
		c1.2,1.1,2.7,1.9,4.4,2.1l0.5,0.1c1.3,0.3,2.6,0.5,3.9,0.5c3.7,0,7.2-1.7,9.2-4.8c1.9,1.7,4.4,2.7,7,2.8c3.9,0,6.9-2.4,9.3-5.5
		l0.2,0.3l0.5,0.9l1,1.8l2.1,0.2h0.2c0.4,0.1,0.8,0.1,1.2,0.1c0.3,0,0.7,0,1-0.1c13.5-2.5,18.1-12.9,21-23.8
		c2.4-8.7,2.3-18-0.3-26.6c-2.8-9.6-9.6-17.6-18.5-22c-9-4.6-19-7.1-29.1-7.1c-2.1,0-4.2,0.1-6.2,0.3c-1.2,0.1-2.4,0.2-3.6,0.2
		c-5.6,0.1-11.1-1.6-15.6-4.9c-1.5-1.3-2.9-2.7-4-4.3c-2.5-3.2-5.7-7.2-11.7-8.9c-1.6-0.5-3.6-3.5-5.3-6.3c-1.4-2.4-3.1-4.7-4.9-6.7
		c-2.3-2.4-2.7-3.3-1.3-7c8.3-22.1,5.4-41.6-8.9-58.1c-0.1-1.1-0.1-2.2,0.2-3.3c0.4-0.6,0.8-1.1,1.3-1.5c0.6-0.6,1.2-1.2,1.7-1.9
		c5.3-6.9,5.2-12.4,4.1-15.8s-4-8.1-12.2-10.9c-4.1-1.4-8.5-2.2-12.9-2.2c-6.2,0-12.7,1.4-20.6,4.3c-1,0.4-2.1,0.7-3.3,0.7
		c-1.4-0.1-2.7-0.5-3.9-1.2c-3-1.6-6.4-2.4-9.9-2.4c-0.6,0-1.3,0-1.9,0.1c-1.8-0.5-3.7-0.9-5.5-1.3c-4.3-1-8.4-1.9-11.5-3.8
		C300.2,267.3,295.4,266.1,290.5,266.3L290.5,266.3z"/>
</g>
<circle class="st6" cx="362.9" cy="372.8" r="4.1"/>
<circle class="st6" cx="360.7" cy="355.3" r="4.1"/>
<circle class="st6" cx="358.2" cy="338.3" r="4.1"/>
<circle class="st6" cx="355.5" cy="320" r="4.1"/>
<g class="st4">
	<path class="st7" d="M252.9,284.5c0.1-0.7-0.7-3-0.7-3.8c0.4-11.5-6.7-26.8-17.5-29.8c-14.1-3.9-18.2-14.4-17.1-27.9
		c0.2-2.1-0.3-4.2-1.3-6c-12.1-19-8.6-43,9.1-58.1c5.2,7,7.4,15.1,8.3,23.5c1.4,12-2,22.8-8.9,32.7c-8.2,11.9-3.1,27,10.5,31.7
		c12,4.2,19.3,8.1,21.6,20.5c1.3,7.2,4,6.9,11.4,5"/>
	<path class="st5" d="M192.2,251.5c-14.9,0-29.3-7.9-38.5-21.3l-1-1.4l1.5-0.8c7.4-3.7,15.5-5.7,23.7-5.7
		c15.1-0.1,29.4,6.7,38.9,18.4l0.9,1.1l-1.1,0.9C209.8,248.6,201.2,251.6,192.2,251.5z"/>
	<path d="M178,223.9c14.6-0.1,28.5,6.5,37.8,17.9c-6.6,5.4-14.9,8.4-23.5,8.3c-13.5,0-27.7-6.8-37.3-20.6
		C162.1,225.8,170,223.9,178,223.9 M178,221L178,221c-8.5,0-16.8,2-24.3,5.8l-3,1.5l1.9,2.8c9.4,13.7,24.3,21.9,39.7,21.9
		c9.2,0.1,18.2-3.1,25.4-9l2.2-1.9l-1.8-2.2C208.2,227.9,193.5,220.9,178,221L178,221z"/>
	<path class="st5" d="M244.8,247.5c-0.9-10.9,2.7-21.8,9.9-30c8.3-9.5,21-15.4,34.8-16.1l1.6-0.1l-0.1,1.6
		c-1.4,23.8-21,43.9-44.6,45.9l-1.5,0.1L244.8,247.5z"/>
	<path d="M289.6,202.9c-1.4,23-20.7,42.6-43.3,44.6C244.4,222.9,264.3,204.2,289.6,202.9 M292.7,199.8l-3.3,0.2
		c-14.1,0.8-27.2,6.8-35.8,16.6c-7.5,8.5-11.2,19.8-10.3,31.1l0.2,2.9l2.9-0.2c24.7-2.6,44.1-22.5,46-47.3L292.7,199.8L292.7,199.8z
		"/>
</g>
<path class="st5" d="M365.1,797.3l4.5,4.5c1,1,1.9,1.9,2.7,2.9h0.1c-0.4-1.2-0.7-2.5-1-3.8l-1.4-6.3l1.6-0.9l4.7,4.3
	c1.1,1,2.1,2,2.9,2.9h0.1c-0.5-1.3-0.8-2.6-1.2-3.9l-1.6-6.1l1.9-1.1L381,802l-1.7,1l-4.5-4.1c-1-0.9-2-1.9-2.9-2.9l0,0
	c0.4,1.3,0.8,2.6,1.1,4l1.2,6l-1.7,1l-9.2-8.6L365.1,797.3z"/>
<path class="st5" d="M381.2,787.9l4.5,4.5c1,1,1.9,1.9,2.7,2.9h0.1c-0.4-1.2-0.7-2.5-1-3.8l-1.4-6.3l1.6-0.9l4.7,4.3
	c1.1,1,2.1,2,2.9,2.9h0.1c-0.5-1.3-0.8-2.6-1.2-3.9l-1.6-6.1l1.9-1.1l2.7,12.4l-1.7,1l-4.5-4.1c-1-0.9-2-1.9-2.9-2.9l0,0
	c0.4,1.3,0.8,2.6,1.1,4l1.2,6l-1.7,1l-9.3-8.7L381.2,787.9z"/>
<path class="st5" d="M397.4,778.5l4.5,4.5c1,1,1.9,1.9,2.7,2.9h0.1c-0.4-1.2-0.7-2.5-1-3.8l-1.4-6.3l1.6-0.9l4.7,4.3
	c1.1,1,2.1,2,2.9,2.9h0.1c-0.5-1.3-0.9-2.6-1.2-3.9l-1.6-6.1l1.9-1.1l2.7,12.4l-1.7,1l-4.5-4.1c-1-0.9-2-1.9-2.9-2.9l0,0
	c0.4,1.3,0.8,2.6,1.1,4l1.2,6l-1.7,1l-9.2-8.6L397.4,778.5z"/>
<path class="st5" d="M416.7,779.7c-0.5-0.7-0.3-1.6,0.4-2.1c0,0,0.1,0,0.1-0.1c0.7-0.5,1.7-0.3,2.2,0.5c0.5,0.7,0.3,1.7-0.5,2.2
	C418.2,780.7,417.2,780.5,416.7,779.7C416.7,779.8,416.7,779.8,416.7,779.7z"/>
<path class="st5" d="M418,770.8c-0.7-1.2-1.4-2.3-2-3.2l1.7-1l1.3,2h0.1c-0.4-1.5,0.2-3.2,1.6-4c0.2-0.1,0.4-0.2,0.6-0.2l1,1.8
	c-0.2,0.1-0.5,0.2-0.7,0.3c-1.3,0.8-1.8,2.5-1.1,3.9c0.1,0.3,0.3,0.6,0.4,0.9l3.2,5.6l-1.9,1.1L418,770.8z"/>
<path class="st5" d="M427.9,772.1c1,0,2-0.2,3-0.7c1.4-0.8,1.6-1.9,1.1-2.7s-1.4-1.1-3.1-0.8c-2.3,0.4-3.8-0.1-4.5-1.3
	c-1-1.7-0.4-3.9,1.8-5.2c0.9-0.5,1.9-0.8,3-0.8l0.3,1.7c-0.9,0-1.7,0.2-2.5,0.6c-0.9,0.4-1.3,1.4-1,2.3c0,0,0,0.1,0.1,0.1
	c0.5,0.9,1.4,0.9,3,0.6c2.2-0.4,3.7,0,4.6,1.5c1.1,1.8,0.4,4-2.1,5.4c-1,0.6-2.2,1-3.4,1L427.9,772.1z"/>
<path class="st5" d="M432.3,754.1l1.8,3l2.7-1.6l0.9,1.4l-2.7,1.6l3.3,5.6c0.8,1.3,1.5,1.8,2.6,1.2c0.4-0.2,0.7-0.5,1-0.8l0.9,1.4
	c-0.4,0.5-1,0.9-1.5,1.2c-0.7,0.5-1.7,0.6-2.5,0.4c-1-0.5-1.9-1.3-2.3-2.3l-3.3-5.7l-1.6,0.9l-0.8-1.5l1.6-0.9l-1.5-2.5L432.3,754.1
	z"/>
<path class="st5" d="M452.1,756.8c0.6,1.1,1.2,2,1.7,2.8l-1.7,1L451,759l0,0c0,1.7-0.9,3.2-2.3,4c-1.6,1-4.1,1.2-6.3-2.5l-3.6-6.1
	l1.9-1.1l3.4,5.8c1.2,2,2.5,3,4.3,2c1.1-0.7,1.7-1.9,1.5-3.2c-0.1-0.4-0.2-0.7-0.4-1.1l-3.7-6.4l1.9-1.1L452.1,756.8z"/>
<path class="st5" d="M457,737.2l7.4,12.6c0.5,0.9,1.2,2,1.7,2.7l-1.7,1l-1.1-1.8l0,0c0.1,1.7-0.9,3.3-2.4,4.1
	c-2.5,1.5-5.7,0.5-7.6-2.7c-2-3.5-1.1-6.9,1.4-8.3c1.2-0.8,2.8-0.9,4.1-0.2l0,0l-3.6-6.2L457,737.2z M460.4,747.5
	c-0.2-0.3-0.3-0.5-0.5-0.8c-1-1.1-2.7-1.4-4-0.6c-2,1.1-2.1,3.5-0.8,5.9c1.2,2.1,3.3,3.3,5.3,2.1c1.3-0.8,2-2.4,1.5-3.9
	c-0.1-0.3-0.2-0.6-0.4-0.9L460.4,747.5z"/>
<path class="st5" d="M463.4,736.1c0.4,0.7,0.2,1.5-0.5,1.9s-1.5,0.2-1.9-0.5l0,0c-0.4-0.6-0.2-1.4,0.4-1.8c0,0,0,0,0.1,0
	c0.6-0.4,1.4-0.2,1.8,0.4C463.4,736,463.4,736,463.4,736.1z M469.1,750.7l-6.1-10.5l1.9-1.1l6.1,10.4L469.1,750.7z"/>
<path class="st5" d="M480.5,736.9c2.2,3.9,0.5,7.1-2,8.6c-2.8,1.6-6.2,0.8-8.1-2.5c-2-3.5-0.9-6.9,2-8.6S478.7,733.8,480.5,736.9z
	 M472.3,741.9c1.3,2.3,3.6,3.2,5.5,2.2s2.2-3.6,0.8-5.9c-1-1.8-3.2-3.5-5.5-2.2S471.1,739.9,472.3,741.9L472.3,741.9z"/>
<path class="st5" d="M484.4,740.3c-0.4-0.7-0.1-1.6,0.6-2s1.6-0.1,2,0.6c0.4,0.7,0.1,1.6-0.6,2C485.7,741.3,484.8,741.1,484.4,740.3
	C484.4,740.4,484.4,740.3,484.4,740.3z"/>
<path class="st5" d="M497.2,733.8c-0.7,1-1.6,1.8-2.6,2.3c-3.1,1.8-6.5,0.9-8.3-2.3c-1.8-2.9-1-6.7,1.8-8.5c0.2-0.1,0.4-0.2,0.6-0.3
	c0.9-0.5,1.9-0.9,3-1l0.4,1.7c-0.9,0-1.7,0.3-2.5,0.8c-2.4,1.4-2.7,3.9-1.4,6.1c1.4,2.4,3.8,3,5.9,1.8c0.8-0.5,1.5-1.1,2-1.9
	L497.2,733.8z"/>
<path class="st5" d="M505.9,722.2c2.2,3.9,0.6,7.1-2,8.6c-2.8,1.7-6.2,0.8-8.1-2.5c-2-3.5-0.9-6.9,2-8.6S504,719,505.9,722.2z
	 M497.6,727.1c1.3,2.3,3.7,3.2,5.5,2.2s2.2-3.5,0.8-5.9c-1-1.8-3.2-3.5-5.5-2.2S496.5,725.1,497.6,727.1z"/>
<path class="st5" d="M506.9,718.5c-0.6-1.1-1.2-2-1.7-2.8l1.7-1l1.1,1.6h0.1c-0.1-1.6,0.8-3.1,2.2-3.8c1.3-0.8,3-0.6,4.2,0.4l0,0
	c0-0.7,0.1-1.4,0.4-2c0.4-0.9,1-1.6,1.9-2.1c1.4-0.8,4-1.1,6.1,2.5l3.6,6.2l-1.9,1.1l-3.4-6c-1.2-2-2.6-2.8-4.1-1.9
	c-1,0.6-1.5,1.8-1.2,3c0.1,0.4,0.2,0.7,0.4,1l3.8,6.5l-1.9,1.1l-3.7-6.2c-1-1.7-2.4-2.5-3.9-1.6c-1.1,0.7-1.6,2-1.2,3.3
	c0.1,0.4,0.2,0.7,0.4,1l3.7,6.3l-1.9,1.1L506.9,718.5z"/>
</svg>
