<svg id="Layer_1" data-name="Layer 1" xmlns="http://www.w3.org/2000/svg" xmlns:xlink="http://www.w3.org/1999/xlink" viewBox="0 0 735 852"><defs><style>.cls-1{fill:#ba6f38;}.cls-2{clip-path:url(#clip-path);}.cls-3{fill:#136c38;}.cls-10,.cls-4{opacity:0.25;}.cls-4{fill:url(#linear-gradient);}.cls-5{fill:#e6b35a;}.cls-6{font-size:160px;letter-spacing:-0.03em;}.cls-11,.cls-12,.cls-13,.cls-6{fill:#fff;}.cls-13,.cls-6{font-family:MyriadPro-Regular, Myriad Pro;}.cls-7{fill:#298f4d;}.cls-8{fill:#005629;}.cls-9{clip-path:url(#clip-path-2);}.cls-10{fill:url(#linear-gradient-2);}.cls-12{stroke:#000;stroke-miterlimit:10;stroke-width:3.92px;}.cls-13{font-size:25px;}.cls-14{letter-spacing:0.01em;}.cls-15{letter-spacing:-0.04em;}.cls-16{letter-spacing:-0.02em;}.cls-17{letter-spacing:-0.01em;}.cls-18{letter-spacing:0em;}</style><clipPath id="clip-path"><polygon class="cls-1" points="369.51 7.4 728.21 214.47 728.21 636.62 369.51 845.03 2.79 636.62 2.79 214.47 369.51 7.4"/></clipPath><linearGradient id="linear-gradient" x1="367.33" y1="-121.12" x2="368.63" y2="342.4" gradientUnits="userSpaceOnUse"><stop offset="0" stop-color="#fff" stop-opacity="0.83"/><stop offset="0.56" stop-color="#fff" stop-opacity="0.37"/><stop offset="1" stop-color="#fff" stop-opacity="0"/></linearGradient><clipPath id="clip-path-2"><polygon class="cls-1" points="369.51 965.61 728.21 1172.68 728.21 1594.84 369.51 1803.24 2.79 1594.84 2.79 1172.68 369.51 965.61"/></clipPath><linearGradient id="linear-gradient-2" x1="367.33" y1="837.1" x2="368.63" y2="1300.62" xlink:href="#linear-gradient"/></defs><title> </title><polygon class="cls-1" points="369.51 7.4 728.21 214.47 728.21 636.62 369.51 845.03 2.79 636.62 2.79 214.47 369.51 7.4"/><g class="cls-2"><circle class="cls-3" cx="365.5" cy="437.45" r="442.13"/><ellipse class="cls-4" cx="367.97" cy="107.08" rx="315.24" ry="234.63"/></g><path class="cls-5" d="M367,633.9c.29-.29.6-.59.93-.89h-.26Z"/><text class="cls-6" transform="translate(115.26 618.45)">rsample</text><path class="cls-7" d="M705.61,196.21,427.81,35.82,367.5,1,307.19,35.82,29.37,196.22.09,213.13V637.38l29.28,16.91,281.28,162.4,56.85,32.82,56.85-32.82L705.61,654.3l29.3-16.92V213.13Zm0,425.26L367.49,816.68,29.37,621.47V231L367.49,35.82h0L705.61,231Z"/><path class="cls-8" d="M705.61,196.21,427.81,35.82,367.5,1,307.19,35.82,29.37,196.22.09,213.13V637.38l29.28,16.91,281.28,162.4,56.85,32.82,56.85-32.82L705.61,654.3l29.3-16.92V213.13Zm0,425.26L367.49,816.68,29.37,621.47V231L367.49,35.82h0L705.61,231Z"/><polygon class="cls-1" points="369.51 965.61 728.21 1172.68 728.21 1594.84 369.51 1803.24 2.79 1594.84 2.79 1172.68 369.51 965.61"/><g class="cls-9"><ellipse class="cls-10" cx="367.97" cy="1065.29" rx="315.24" ry="234.63"/></g><path class="cls-11" d="M408.26,480.47l-.21.11A22.49,22.49,0,0,0,404,483.2a9.15,9.15,0,0,1-5.91,1.85c-2.94,0-6.86-1-8.24-4-1.24-2.66-1.86-3.33-2.12-3.49-.18.09-1,.57-2.57,3-1.42,2.19-4.69,2.27-8.16,2.35a37.18,37.18,0,0,0-3.82.22l-1.93.26-.27-1.93c-.14-1-.23-1.78-.31-2.5a15.85,15.85,0,0,0-.48-2.91,12.73,12.73,0,0,0-.79-1.84,6.92,6.92,0,0,1-2.81,1.8c-3,.87-5.93,1.45-9.07,2.07-1.23.24-2.48.49-3.74.76l-1.9.4-.42-1.9c-1.84-8.34-5.8-12.49-13.1-13.56l-1,14.19-17.94-3.6.65-5.51-3.85,5.86-18.42-2.56-1-6.7-.27,0a8.14,8.14,0,0,0-2.67.55c-2,2.43-3.81,4.69-7.45,4.69a11.15,11.15,0,0,1-2.86-.41c-5-1.31-5.12-4.76-5.22-7,0-.35,0-.68-.06-1a9.81,9.81,0,0,1-2,1.53,38.33,38.33,0,0,1-4.8,2.06c-.65.24-1.29.49-1.93.75l-1.89.77-.69-1.92a18.08,18.08,0,0,0-.85-1.84c-.89-1.77-1.9-3.78-1.2-5.66,5-13.55,4.06-27.52,2.24-40.59a35.74,35.74,0,0,1,6.21-26.1c7.1-10,9.24-20.51,6.54-32.15-1-4.14-1.88-8.35-2.77-12.43-2.53-11.58-5.15-23.56-8.89-34.9-1.76-5.33-4.87-10.17-8.17-15.29a117.38,117.38,0,0,1-6-10.11c-1.07-2.09-2.52-7.39-1.06-10.14a3.43,3.43,0,0,1,2.66-1.86c1.12-.13,2-.21,3-.28a56.21,56.21,0,0,0,9.8-1.56l1.23-.36c6.11-1.79,13.72-4,21-4a24.36,24.36,0,0,1,12.93,3.26c3.45,2.12,7.67,3.06,12.14,4.06,1.89.42,3.84.86,5.73,1.39.73-.07,1.45-.1,2.13-.1a19.72,19.72,0,0,1,9,2.23,10.69,10.69,0,0,0,4.67,1.37,11.36,11.36,0,0,0,3.94-.83c7.62-2.85,13.94-4.18,19.89-4.18a36.41,36.41,0,0,1,12.12,2c5.87,2,9.65,5.37,10.93,9.64s0,9.12-3.81,14a20.59,20.59,0,0,1-1.57,1.75,7.25,7.25,0,0,0-1.82,2.39c-.57,2.11-.47,4.38,0,4.92,13.85,15.94,16.77,34.89,8.67,56.32-1.58,4.19-1.24,6,1.76,9.07a40.17,40.17,0,0,1,4.69,6.42c2,3.15,4.08,6.42,6.41,7.1,5.4,1.57,8.22,5.12,10.72,8.25A24.43,24.43,0,0,0,413.5,402a27.64,27.64,0,0,0,16.71,5.26,37.42,37.42,0,0,0,3.85-.2,58.85,58.85,0,0,1,6-.31,62.56,62.56,0,0,1,28.19,6.92,34.11,34.11,0,0,1,17.54,20.87,46.44,46.44,0,0,1,.29,25.54c-2.75,10.23-7,20-19.47,22.35a3.35,3.35,0,0,1-.63.06,5.9,5.9,0,0,1-.93-.09l-.34,0-1-.09L461,477.39c-3.15,5-6.15,7.25-9.5,7.25-2.45,0-4.84-1.25-7.39-3.91-2.35,4.79-6,5.9-8.81,5.9a13.8,13.8,0,0,1-3.43-.47l-.55-.13a6.2,6.2,0,0,1-3.35-1.57,28.82,28.82,0,0,0-3.64-3.56,31.47,31.47,0,0,0-2.41,5.13l-.45,1.11-11.87,1.06Z"/><path d="M290.52,270.14a22.39,22.39,0,0,1,11.9,3c5.4,3.32,12.46,3.94,18.71,5.77a22.36,22.36,0,0,1,2.32-.13c6.87,0,9,3.6,13.7,3.6a13.16,13.16,0,0,0,4.63-1c6.33-2.37,12.71-4.05,19.21-4.05a34.7,34.7,0,0,1,11.48,1.91c10.69,3.71,13.08,11.67,6.2,20.63-1.25,1.63-3.23,3-3.72,4.83-.57,2.1-.79,5.34.41,6.72,14.28,16.43,15.66,34.91,8.32,54.34-1.9,5-1.25,7.57,2.18,11.12,4.34,4.49,7.06,12.6,12,14,7.67,2.24,9.45,8.89,14.53,12.61a29.47,29.47,0,0,0,17.88,5.64,39.32,39.32,0,0,0,4-.21,56.48,56.48,0,0,1,5.82-.3,60.72,60.72,0,0,1,27.31,6.72c17.64,8.84,20.88,29,16.81,44.15-2.59,9.64-6.36,18.76-17.93,20.93l-.27,0c-.34,0-.71-.1-1.1-.13L461,473.43c-3.34,6.22-6.37,9.25-9.53,9.25-2.53,0-5.14-1.94-8.06-5.75-1.35,4.85-3.93,7.74-8.15,7.74a11.78,11.78,0,0,1-2.94-.41c-1-.26-2.31-.43-2.95-1.13-2.58-2.8-4.05-4.3-5.21-4.3-1.36,0-2.3,2-4.09,6.46l-8.88.8-1.53-8.71c-2.8,1.69-5.2,2.71-7,4.35a7.13,7.13,0,0,1-4.6,1.36c-2.71,0-5.58-1-6.46-2.88-1.33-2.84-2.44-4.64-3.85-4.64-1.14,0-2.47,1.17-4.25,3.92-1.26,1.95-6.7,1.18-10.59,1.7a41.09,41.09,0,0,0-.87-5.74,34.84,34.84,0,0,0-2.14-4.5c-1.28,1.09-2.4,2.74-3.87,3.17-4,1.18-8.24,1.85-12.66,2.79-2.14-9.73-7.28-14.63-16.83-15.3l-1,14-14-2.81.86-7.32-1.84-1-5.34,8.13-15.75-2.19-1.12-7.19c-2.09.47-5,.25-6.09,1.56-1.85,2.27-3.21,4-5.94,4a9.23,9.23,0,0,1-2.36-.35c-4.79-1.27-3.32-4.65-4-7.45a17.21,17.21,0,0,0-1-2.16c-1.37,1.24-2.38,2.55-3.71,3.27a64,64,0,0,1-6.53,2.72c-.74-2.07-2.64-4.58-2.05-6.15,5.09-13.67,4.3-27.48,2.35-41.55a33.76,33.76,0,0,1,5.87-24.69c7.31-10.29,9.69-21.5,6.85-33.73-3.69-15.9-6.62-32.06-11.71-47.51-3-9.13-9.87-16.93-14.33-25.67-1.27-2.49-2.6-8.84.09-9.17,3.9-.47,5.36-.13,13-1.88,6.23-1.81,14.23-4.31,21.75-4.31m0-3.92c-7.58,0-15.33,2.27-21.57,4.09l-1.17.34a54.3,54.3,0,0,1-9.46,1.5c-.92.07-1.88.14-3,.28a5.41,5.41,0,0,0-4.16,2.89c-2.15,4,.27,10.45,1,12a118.91,118.91,0,0,0,6.14,10.28c3.23,5,6.28,9.75,8,14.84,3.71,11.25,6.32,23.18,8.84,34.71.89,4.08,1.82,8.31,2.78,12.45,2.56,11.06.53,21.06-6.23,30.57a37.67,37.67,0,0,0-6.55,27.5c3,21.69.76,31.87-2.14,39.64-1,2.68.27,5.2,1.28,7.22a17.19,17.19,0,0,1,.75,1.62l1.38,3.84,3.78-1.53c.62-.25,1.25-.49,1.88-.73a44.17,44.17,0,0,0,4.51-1.89c.47,2.36,1.87,5.19,6.42,6.4a13,13,0,0,0,3.36.48c4.35,0,6.67-2.59,8.65-5l.1,0,.53,3.37.45,2.88,2.88.4,5.94.83,9.8,1.36,2.46.34.53-.81,3.1.62,14,2.81,4.37.88.32-4.44.29-4,.41-5.71c5.11,1.39,7.93,5,9.39,11.61l.84,3.8,3.8-.8c1.25-.26,2.49-.51,3.71-.75,3.19-.63,6.2-1.22,9.25-2.11a7.11,7.11,0,0,0,1.35-.55c.09.49.16,1.1.24,1.84s.18,1.56.32,2.56l.55,3.85,3.86-.52c1-.14,2.34-.17,3.6-.2,3.82-.09,7.77-.19,9.75-3.24.25-.38.47-.71.67-1,.17.33.37.74.6,1.22,1.77,3.79,6.33,5.14,10,5.14a10.79,10.79,0,0,0,7.21-2.35,11,11,0,0,1,1.54-1.11l.56,3.22.62,3.55,3.59-.32,5.3-.47,3.58-.32,2.38-.21.9-2.22c.28-.69.72-1.77,1.15-2.73.61.62,1.23,1.3,1.64,1.75a8,8,0,0,0,4.35,2.15l.5.12a15.74,15.74,0,0,0,3.92.53,11.08,11.08,0,0,0,9.25-4.77,11,11,0,0,0,7,2.78c3.87,0,6.9-2.41,9.32-5.52l.67,1.19,1,1.81,2.06.18.21,0a7.64,7.64,0,0,0,1.24.11,5.37,5.37,0,0,0,1-.09c13.53-2.53,18.09-12.92,21-23.77a48.42,48.42,0,0,0-.31-26.63,36,36,0,0,0-18.54-22,64.51,64.51,0,0,0-29.07-7.13,60.84,60.84,0,0,0-6.22.32,35.54,35.54,0,0,1-3.65.19,25.38,25.38,0,0,1-15.56-4.88,23,23,0,0,1-4-4.31c-2.54-3.19-5.71-7.16-11.7-8.91-1.63-.47-3.58-3.55-5.31-6.27a41.67,41.67,0,0,0-4.93-6.73c-2.32-2.4-2.72-3.33-1.33-7,8.33-22.07,5.35-41.62-8.86-58.1a8.18,8.18,0,0,1,.25-3.31,9.8,9.8,0,0,1,1.33-1.55,22.46,22.46,0,0,0,1.71-1.92c5.27-6.86,5.16-12.38,4.14-15.79s-4-8.09-12.16-10.93A38.86,38.86,0,0,0,361,273.42c-6.2,0-12.74,1.37-20.58,4.3a9.47,9.47,0,0,1-3.25.71,8.89,8.89,0,0,1-3.85-1.19,21.41,21.41,0,0,0-9.85-2.41c-.63,0-1.28,0-1.95.08-1.83-.5-3.69-.92-5.49-1.32-4.31-1-8.37-1.87-11.54-3.82a26.28,26.28,0,0,0-14-3.55Z"/><circle cx="362.9" cy="372.82" r="4.06"/><circle cx="360.72" cy="355.3" r="4.06"/><circle cx="358.19" cy="338.3" r="4.06"/><circle cx="355.55" cy="320" r="4.06"/><path class="cls-12" d="M252.93,284.53c.1-.72-.69-3-.66-3.78.39-11.46-6.73-26.8-17.53-29.76-14.07-3.85-18.23-14.45-17-27.85a10.2,10.2,0,0,0-1.33-6c-12.14-19-8.59-43,9.14-58.05,5.23,7,7.35,15.1,8.32,23.49,1.39,12-2,22.82-8.9,32.74-8.22,11.9-3.11,27,10.47,31.74,12,4.19,19.26,8.06,21.57,20.48,1.33,7.17,4,6.89,11.38,5"/><path class="cls-11" d="M192.24,251.53c-14.89,0-29.28-7.94-38.49-21.25l-1-1.38,1.5-.76A52.81,52.81,0,0,1,178,222.45a49.77,49.77,0,0,1,38.9,18.41l.91,1.12-1.1.93A38,38,0,0,1,192.24,251.53Z"/><path d="M178,223.91a48.37,48.37,0,0,1,37.77,17.87,36.33,36.33,0,0,1-23.49,8.28c-13.48,0-27.72-6.81-37.28-20.62a51,51,0,0,1,23-5.53m0-2.93h0a54.29,54.29,0,0,0-24.32,5.84l-3,1.52,1.92,2.77C162,244.81,176.87,253,192.24,253a39.48,39.48,0,0,0,25.37-9l2.21-1.85L218,239.93a51.23,51.23,0,0,0-40-19Z"/><path class="cls-11" d="M244.83,247.54a40.4,40.4,0,0,1,9.95-30c8.32-9.5,21-15.37,34.75-16.1l1.64-.09-.1,1.64c-1.42,23.77-21,43.94-44.65,45.92l-1.47.12Z"/><path d="M289.6,202.88c-1.37,23-20.65,42.65-43.31,44.55-1.92-24.48,18.05-43.2,43.31-44.55m3.12-3.1-3.28.17c-14.15.75-27.19,6.8-35.77,16.6a41.85,41.85,0,0,0-10.3,31.11l.23,2.94,2.94-.25a51.51,51.51,0,0,0,46-47.29l.2-3.28Z"/><text class="cls-13" transform="matrix(0.86, -0.5, 0.5, 0.86, 368.81, 809.1)"><tspan class="cls-14">ww</tspan><tspan class="cls-15" x="37.4" y="0">w</tspan><tspan x="54.82" y="0">.rstudi</tspan><tspan class="cls-16" x="120.07" y="0">o</tspan><tspan x="133.2" y="0">.</tspan><tspan class="cls-17" x="138.37" y="0">c</tspan><tspan class="cls-18" x="149.42" y="0">om</tspan></text></svg>