<?xml version="1.0" encoding="utf-8"?>
<!-- Generator: Adobe Illustrator 26.5.0, SVG Export Plug-In . SVG Version: 6.00 Build 0)  -->
<svg version="1.1"
	 id="svg8" xmlns:sodipodi="http://sodipodi.sourceforge.net/DTD/sodipodi-0.dtd" xmlns:rdf="http://www.w3.org/1999/02/22-rdf-syntax-ns#" xmlns:dc="http://purl.org/dc/elements/1.1/" xmlns:svg="http://www.w3.org/2000/svg" xmlns:cc="http://creativecommons.org/ns#" xmlns:inkscape="http://www.inkscape.org/namespaces/inkscape" inkscape:export-filename="C:\Users\apdev\Documents\github\RStudio\rstudioapi\man\figures\logo.png" inkscape:export-xdpi="96" inkscape:export-ydpi="96" inkscape:version="0.92.5 (2060ec1f9f, 2020-04-08)" sodipodi:docname="logo.svg"
	 xmlns="http://www.w3.org/2000/svg" xmlns:xlink="http://www.w3.org/1999/xlink" x="0px" y="0px" viewBox="0 0 2521 2911"
	 style="enable-background:new 0 0 2521 2911;" xml:space="preserve">
<style type="text/css">
	.st0{fill:#D9C7AD;}
	.st1{fill:#916F6F;}
	.st2{fill:#433425;}
	.st3{fill:#073FB7;}
	.st4{fill:#808080;}
</style>
<sodipodi:namedview  bordercolor="#666666" borderopacity="1.0" fit-margin-bottom="0" fit-margin-left="0" fit-margin-right="0" fit-margin-top="0" id="base" inkscape:current-layer="layer5" inkscape:cx="185.19858" inkscape:cy="115.15113" inkscape:document-units="px" inkscape:guide-bbox="true" inkscape:pageopacity="0.0" inkscape:pageshadow="2" inkscape:window-height="1017" inkscape:window-maximized="1" inkscape:window-width="1920" inkscape:window-x="-8" inkscape:window-y="-8" inkscape:zoom="2.0755365" pagecolor="#ffffff" showgrid="false" showguides="false" units="px">
	<sodipodi:guide  id="guide7771" inkscape:locked="false" orientation="0,1" position="-9.6057686,49.32692"></sodipodi:guide>
	<sodipodi:guide  id="guide7773" inkscape:locked="false" orientation="0,1" position="-12.807692,27.605767"></sodipodi:guide>
</sodipodi:namedview>
<g>
	<g id="layer4" inkscape:groupmode="layer" inkscape:label="Background">
		
			<path id="path862" inkscape:flatsided="true" inkscape:randomized="0" inkscape:rounded="0" inkscape:transform-center-x="-2.7770617e-06" inkscape:transform-center-y="-4.3005948e-06" sodipodi:arg1="0.52359878" sodipodi:arg2="1.0471976" sodipodi:cx="-529.98401" sodipodi:cy="225.65054" sodipodi:r1="73.940002" sodipodi:r2="64.03392" sodipodi:sides="6" sodipodi:type="star" class="st0" d="
			M2499.8,2171l-1239.3,715.5L21.2,2171V740L1260.5,24.5L2499.8,740V2171z"/>
	</g>
	<g id="layer2" inkscape:groupmode="layer" inkscape:label="pegboard">
		<g id="ellipse1177">
			<ellipse class="st1" cx="927.7" cy="410.2" rx="39.2" ry="36.8"/>
			<path class="st2" d="M927.7,452.3c-24.6,0-44.5-18.9-44.5-42.1s20-42.1,44.5-42.1c24.6,0,44.5,18.9,44.5,42.1
				S952.2,452.3,927.7,452.3z M927.7,378.6c-18.7,0-33.9,14.1-33.9,31.5s15.2,31.5,33.9,31.5s33.9-14.1,33.9-31.5
				C961.6,392.8,946.4,378.6,927.7,378.6z"/>
		</g>
		<g id="ellipse1179">
			<ellipse class="st1" cx="1593.3" cy="410.2" rx="39.2" ry="36.8"/>
			<path class="st2" d="M1593.3,452.3c-24.6,0-44.5-18.9-44.5-42.1s20-42.1,44.5-42.1s44.5,18.9,44.5,42.1
				C1637.9,433.4,1617.9,452.3,1593.3,452.3z M1593.3,378.6c-18.7,0-33.9,14.1-33.9,31.5s15.2,31.5,33.9,31.5s33.9-14.1,33.9-31.5
				C1627.3,392.8,1612,378.6,1593.3,378.6z"/>
		</g>
		<g id="ellipse1181">
			<ellipse class="st1" cx="1260.5" cy="410.2" rx="39.2" ry="36.8"/>
			<path class="st2" d="M1260.5,452.3c-24.6,0-44.5-18.9-44.5-42.1s20-42.1,44.5-42.1c24.6,0,44.5,18.9,44.5,42.1
				S1285.1,452.3,1260.5,452.3z M1260.5,378.6c-18.7,0-33.9,14.1-33.9,31.5s15.2,31.5,33.9,31.5c18.7,0,33.9-14.1,33.9-31.5
				C1294.4,392.8,1279.2,378.6,1260.5,378.6z"/>
		</g>
		<g id="ellipse1201">
			<ellipse class="st1" cx="1260.5" cy="78.6" rx="39.2" ry="36.8"/>
			<path class="st2" d="M1260.5,120.8c-24.6,0-44.5-18.9-44.5-42.1s20-42.1,44.5-42.1c24.6,0,44.5,18.9,44.5,42.1
				S1285.1,120.8,1260.5,120.8z M1260.5,47.1c-18.7,0-33.9,14.1-33.9,31.5s15.2,31.5,33.9,31.5c18.7,0,33.9-14.1,33.9-31.5
				S1279.2,47.1,1260.5,47.1z"/>
		</g>
		<g id="ellipse1273">
			<ellipse class="st1" cx="594.8" cy="741.7" rx="39.2" ry="36.8"/>
			<path class="st2" d="M594.8,783.8c-24.6,0-44.5-18.9-44.5-42.1c0-23.2,20-42.1,44.5-42.1c24.6,0,44.5,18.9,44.5,42.1
				C639.4,764.9,619.4,783.8,594.8,783.8z M594.8,710.2c-18.7,0-33.9,14.1-33.9,31.5s15.2,31.5,33.9,31.5s33.9-14.1,33.9-31.5
				C628.8,724.3,613.5,710.2,594.8,710.2z"/>
		</g>
		<g id="ellipse1275">
			<ellipse class="st1" cx="262" cy="741.7" rx="39.2" ry="36.8"/>
			<path class="st2" d="M262,783.8c-24.6,0-44.5-18.9-44.5-42.1c0-23.2,20-42.1,44.5-42.1c24.6,0,44.5,18.9,44.5,42.1
				C306.5,764.9,286.6,783.8,262,783.8z M262,710.2c-18.7,0-33.9,14.1-33.9,31.5s15.2,31.5,33.9,31.5s33.9-14.1,33.9-31.5
				S280.7,710.2,262,710.2z"/>
		</g>
		<g id="ellipse1277">
			<ellipse class="st1" cx="927.7" cy="741.7" rx="39.2" ry="36.8"/>
			<path class="st2" d="M927.7,783.8c-24.6,0-44.5-18.9-44.5-42.1c0-23.2,20-42.1,44.5-42.1c24.6,0,44.5,18.9,44.5,42.1
				C972.2,764.9,952.2,783.8,927.7,783.8z M927.7,710.2c-18.7,0-33.9,14.1-33.9,31.5s15.2,31.5,33.9,31.5s33.9-14.1,33.9-31.5
				C961.6,724.3,946.4,710.2,927.7,710.2z"/>
		</g>
		<g id="ellipse1279">
			<ellipse class="st1" cx="1593.3" cy="741.7" rx="39.2" ry="36.8"/>
			<path class="st2" d="M1593.3,783.8c-24.6,0-44.5-18.9-44.5-42.1c0-23.2,20-42.1,44.5-42.1c24.6,0,44.5,18.9,44.5,42.1
				C1637.9,764.9,1617.9,783.8,1593.3,783.8z M1593.3,710.2c-18.7,0-33.9,14.1-33.9,31.5s15.2,31.5,33.9,31.5
				c18.7,0,33.9-14.1,33.9-31.5C1627.3,724.3,1612,710.2,1593.3,710.2z"/>
		</g>
		<g id="ellipse1281">
			<ellipse class="st1" cx="1260.5" cy="741.7" rx="39.2" ry="36.8"/>
			<path class="st2" d="M1260.5,783.8c-24.6,0-44.5-18.9-44.5-42.1c0-23.2,20-42.1,44.5-42.1c24.6,0,44.5,18.9,44.5,42.1
				C1305,764.9,1285.1,783.8,1260.5,783.8z M1260.5,710.2c-18.7,0-33.9,14.1-33.9,31.5s15.2,31.5,33.9,31.5
				c18.7,0,33.9-14.1,33.9-31.5S1279.2,710.2,1260.5,710.2z"/>
		</g>
		<g id="ellipse1283">
			<ellipse class="st1" cx="1926.2" cy="741.7" rx="39.2" ry="36.8"/>
			<path class="st2" d="M1926.2,783.8c-24.6,0-44.5-18.9-44.5-42.1c0-23.2,20-42.1,44.5-42.1s44.5,18.9,44.5,42.1
				C1970.7,764.9,1950.7,783.8,1926.2,783.8z M1926.2,710.2c-18.7,0-33.9,14.1-33.9,31.5s15.2,31.5,33.9,31.5s33.9-14.1,33.9-31.5
				S1944.9,710.2,1926.2,710.2z"/>
		</g>
		<g id="ellipse1287">
			<ellipse class="st1" cx="2259" cy="741.7" rx="39.2" ry="36.8"/>
			<path class="st2" d="M2259,783.8c-24.6,0-44.5-18.9-44.5-42.1c0-23.2,20-42.1,44.5-42.1s44.5,18.9,44.5,42.1
				C2303.5,764.9,2283.5,783.8,2259,783.8z M2259,710.2c-18.7,0-33.9,14.1-33.9,31.5s15.2,31.5,33.9,31.5s33.9-14.1,33.9-31.5
				S2277.7,710.2,2259,710.2z"/>
		</g>
		<g id="ellipse1293">
			<ellipse class="st1" cx="594.8" cy="1404.8" rx="39.2" ry="36.8"/>
			<path class="st2" d="M594.8,1446.9c-24.6,0-44.5-18.9-44.5-42.1s20-42.1,44.5-42.1c24.6,0,44.5,18.9,44.5,42.1
				S619.4,1446.9,594.8,1446.9z M594.8,1373.2c-18.7,0-33.9,14.1-33.9,31.5s15.2,31.5,33.9,31.5s33.9-14.1,33.9-31.5
				S613.5,1373.2,594.8,1373.2z"/>
		</g>
		<g id="ellipse1295">
			<ellipse class="st1" cx="262" cy="1404.8" rx="39.2" ry="36.8"/>
			<path class="st2" d="M262,1446.9c-24.6,0-44.5-18.9-44.5-42.1s20-42.1,44.5-42.1c24.6,0,44.5,18.9,44.5,42.1
				S286.6,1446.9,262,1446.9z M262,1373.2c-18.7,0-33.9,14.1-33.9,31.5s15.2,31.5,33.9,31.5s33.9-14.1,33.9-31.5
				S280.7,1373.2,262,1373.2z"/>
		</g>
		<g id="ellipse1297">
			<ellipse class="st1" cx="927.7" cy="1404.8" rx="39.2" ry="36.8"/>
			<path class="st2" d="M927.7,1446.9c-24.6,0-44.5-18.9-44.5-42.1s20-42.1,44.5-42.1c24.6,0,44.5,18.9,44.5,42.1
				S952.2,1446.9,927.7,1446.9z M927.7,1373.2c-18.7,0-33.9,14.1-33.9,31.5s15.2,31.5,33.9,31.5s33.9-14.1,33.9-31.5
				S946.4,1373.2,927.7,1373.2z"/>
		</g>
		<g id="ellipse1299">
			<ellipse class="st1" cx="1593.3" cy="1404.8" rx="39.2" ry="36.8"/>
			<path class="st2" d="M1593.3,1446.9c-24.6,0-44.5-18.9-44.5-42.1s20-42.1,44.5-42.1s44.5,18.9,44.5,42.1
				S1617.9,1446.9,1593.3,1446.9z M1593.3,1373.2c-18.7,0-33.9,14.1-33.9,31.5s15.2,31.5,33.9,31.5s33.9-14.1,33.9-31.5
				S1612,1373.2,1593.3,1373.2z"/>
		</g>
		<g id="ellipse1303">
			<ellipse class="st1" cx="1926.2" cy="1404.8" rx="39.2" ry="36.8"/>
			<path class="st2" d="M1926.2,1446.9c-24.6,0-44.5-18.9-44.5-42.1s20-42.1,44.5-42.1s44.5,18.9,44.5,42.1
				S1950.7,1446.9,1926.2,1446.9z M1926.2,1373.2c-18.7,0-33.9,14.1-33.9,31.5s15.2,31.5,33.9,31.5s33.9-14.1,33.9-31.5
				S1944.9,1373.2,1926.2,1373.2z"/>
		</g>
		<g id="ellipse1307">
			<ellipse class="st1" cx="2259" cy="1404.8" rx="39.2" ry="36.8"/>
			<path class="st2" d="M2259,1446.9c-24.6,0-44.5-18.9-44.5-42.1s20-42.1,44.5-42.1s44.5,18.9,44.5,42.1S2283.5,1446.9,2259,1446.9
				z M2259,1373.2c-18.7,0-33.9,14.1-33.9,31.5s15.2,31.5,33.9,31.5s33.9-14.1,33.9-31.5S2277.7,1373.2,2259,1373.2z"/>
		</g>
		<g id="ellipse1313">
			<ellipse class="st1" cx="594.8" cy="1073.2" rx="39.2" ry="36.8"/>
			<path class="st2" d="M594.8,1115.4c-24.6,0-44.5-18.9-44.5-42.1s20-42.1,44.5-42.1c24.6,0,44.5,18.9,44.5,42.1
				C639.4,1096.5,619.4,1115.4,594.8,1115.4z M594.8,1041.7c-18.7,0-33.9,14.1-33.9,31.5s15.2,31.5,33.9,31.5s33.9-14.1,33.9-31.5
				C628.8,1055.8,613.5,1041.7,594.8,1041.7z"/>
		</g>
		<g id="ellipse1315">
			<ellipse class="st1" cx="262" cy="1073.2" rx="39.2" ry="36.8"/>
			<path class="st2" d="M262,1115.4c-24.6,0-44.5-18.9-44.5-42.1s20-42.1,44.5-42.1c24.6,0,44.5,18.9,44.5,42.1
				S286.6,1115.4,262,1115.4z M262,1041.7c-18.7,0-33.9,14.1-33.9,31.5s15.2,31.5,33.9,31.5s33.9-14.1,33.9-31.5
				C295.9,1055.8,280.7,1041.7,262,1041.7z"/>
		</g>
		<g id="ellipse1317">
			<ellipse class="st1" cx="927.7" cy="1073.2" rx="39.2" ry="36.8"/>
			<path class="st2" d="M927.7,1115.4c-24.6,0-44.5-18.9-44.5-42.1s20-42.1,44.5-42.1c24.6,0,44.5,18.9,44.5,42.1
				S952.2,1115.4,927.7,1115.4z M927.7,1041.7c-18.7,0-33.9,14.1-33.9,31.5s15.2,31.5,33.9,31.5s33.9-14.1,33.9-31.5
				C961.6,1055.8,946.4,1041.7,927.7,1041.7z"/>
		</g>
		<g id="ellipse1319">
			<ellipse class="st1" cx="1593.3" cy="1073.2" rx="39.2" ry="36.8"/>
			<path class="st2" d="M1593.3,1115.4c-24.6,0-44.5-18.9-44.5-42.1s20-42.1,44.5-42.1c24.6,0,44.5,18.9,44.5,42.1
				C1637.9,1096.5,1617.9,1115.4,1593.3,1115.4z M1593.3,1041.7c-18.7,0-33.9,14.1-33.9,31.5s15.2,31.5,33.9,31.5
				c18.7,0,33.9-14.1,33.9-31.5C1627.3,1055.8,1612,1041.7,1593.3,1041.7z"/>
		</g>
		<g id="ellipse1321">
			<ellipse class="st1" cx="1260.5" cy="1073.2" rx="39.2" ry="36.8"/>
			<path class="st2" d="M1260.5,1115.4c-24.6,0-44.5-18.9-44.5-42.1s20-42.1,44.5-42.1c24.6,0,44.5,18.9,44.5,42.1
				S1285.1,1115.4,1260.5,1115.4z M1260.5,1041.7c-18.7,0-33.9,14.1-33.9,31.5s15.2,31.5,33.9,31.5c18.7,0,33.9-14.1,33.9-31.5
				C1294.4,1055.8,1279.2,1041.7,1260.5,1041.7z"/>
		</g>
		<g id="ellipse1327">
			<ellipse class="st1" cx="2259" cy="1073.2" rx="39.2" ry="36.8"/>
			<path class="st2" d="M2259,1115.4c-24.6,0-44.5-18.9-44.5-42.1s20-42.1,44.5-42.1s44.5,18.9,44.5,42.1S2283.5,1115.4,2259,1115.4
				z M2259,1041.7c-18.7,0-33.9,14.1-33.9,31.5s15.2,31.5,33.9,31.5s33.9-14.1,33.9-31.5C2292.9,1055.8,2277.7,1041.7,2259,1041.7z"
				/>
		</g>
		<g id="ellipse8053">
			<ellipse class="st1" cx="927.7" cy="2372.4" rx="39.2" ry="36.8"/>
			<path class="st2" d="M927.7,2414.5c-24.6,0-44.5-18.9-44.5-42.2s20-42.1,44.5-42.1c24.6,0,44.5,18.9,44.5,42.1
				S952.2,2414.5,927.7,2414.5z M927.7,2340.8c-18.7,0-33.9,14.1-33.9,31.5s15.2,31.5,33.9,31.5s33.9-14.1,33.9-31.5
				C961.6,2355,946.4,2340.8,927.7,2340.8z"/>
		</g>
		<g id="ellipse8055">
			<ellipse class="st1" cx="1593.3" cy="2372.4" rx="39.2" ry="36.8"/>
			<path class="st2" d="M1593.3,2414.5c-24.6,0-44.5-18.9-44.5-42.2s20-42.1,44.5-42.1s44.5,18.9,44.5,42.1
				S1617.9,2414.5,1593.3,2414.5z M1593.3,2340.8c-18.7,0-33.9,14.1-33.9,31.5s15.2,31.5,33.9,31.5s33.9-14.1,33.9-31.5
				C1627.3,2355,1612,2340.8,1593.3,2340.8z"/>
		</g>
		<g id="ellipse8057">
			<ellipse class="st1" cx="1260.5" cy="2372.4" rx="39.2" ry="36.8"/>
			<path class="st2" d="M1260.5,2414.5c-24.6,0-44.5-18.9-44.5-42.2s20-42.1,44.5-42.1c24.6,0,44.5,18.9,44.5,42.1
				S1285.1,2414.5,1260.5,2414.5z M1260.5,2340.8c-18.7,0-33.9,14.1-33.9,31.5s15.2,31.5,33.9,31.5c18.7,0,33.9-14.1,33.9-31.5
				C1294.4,2355,1279.2,2340.8,1260.5,2340.8z"/>
		</g>
		<g id="ellipse8061">
			<ellipse class="st1" cx="594.8" cy="1741.2" rx="39.2" ry="36.8"/>
			<path class="st2" d="M594.8,1783.4c-24.6,0-44.5-18.9-44.5-42.1s20-42.2,44.5-42.2c24.6,0,44.5,18.9,44.5,42.2
				C639.4,1764.5,619.4,1783.4,594.8,1783.4z M594.8,1709.7c-18.7,0-33.9,14.1-33.9,31.5s15.2,31.5,33.9,31.5s33.9-14.1,33.9-31.5
				C628.8,1723.8,613.5,1709.7,594.8,1709.7z"/>
		</g>
		<g id="ellipse8063">
			<ellipse class="st1" cx="262" cy="1741.2" rx="39.2" ry="36.8"/>
			<path class="st2" d="M262,1783.4c-24.6,0-44.5-18.9-44.5-42.1s20-42.2,44.5-42.2c24.6,0,44.5,18.9,44.5,42.2
				C306.5,1764.5,286.6,1783.4,262,1783.4z M262,1709.7c-18.7,0-33.9,14.1-33.9,31.5s15.2,31.5,33.9,31.5s33.9-14.1,33.9-31.5
				C295.9,1723.8,280.7,1709.7,262,1709.7z"/>
		</g>
		<g id="ellipse8065">
			<ellipse class="st1" cx="927.7" cy="1741.2" rx="39.2" ry="36.8"/>
			<path class="st2" d="M927.7,1783.4c-24.6,0-44.5-18.9-44.5-42.1s20-42.2,44.5-42.2c24.6,0,44.5,18.9,44.5,42.2
				C972.2,1764.5,952.2,1783.4,927.7,1783.4z M927.7,1709.7c-18.7,0-33.9,14.1-33.9,31.5s15.2,31.5,33.9,31.5s33.9-14.1,33.9-31.5
				C961.6,1723.8,946.4,1709.7,927.7,1709.7z"/>
		</g>
		<g id="ellipse8067">
			<ellipse class="st1" cx="1593.3" cy="1741.2" rx="39.2" ry="36.8"/>
			<path class="st2" d="M1593.3,1783.4c-24.6,0-44.5-18.9-44.5-42.1s20-42.2,44.5-42.2s44.5,18.9,44.5,42.2
				C1637.9,1764.5,1617.9,1783.4,1593.3,1783.4z M1593.3,1709.7c-18.7,0-33.9,14.1-33.9,31.5s15.2,31.5,33.9,31.5
				s33.9-14.1,33.9-31.5C1627.3,1723.8,1612,1709.7,1593.3,1709.7z"/>
		</g>
		<g id="ellipse8069">
			<ellipse class="st1" cx="1260.5" cy="1741.2" rx="39.2" ry="36.8"/>
			<path class="st2" d="M1260.5,1783.4c-24.6,0-44.5-18.9-44.5-42.1s20-42.2,44.5-42.2c24.6,0,44.5,18.9,44.5,42.2
				C1305,1764.5,1285.1,1783.4,1260.5,1783.4z M1260.5,1709.7c-18.7,0-33.9,14.1-33.9,31.5s15.2,31.5,33.9,31.5
				c18.7,0,33.9-14.1,33.9-31.5C1294.4,1723.8,1279.2,1709.7,1260.5,1709.7z"/>
		</g>
		<g id="ellipse8071">
			<ellipse class="st1" cx="1926.2" cy="1741.2" rx="39.2" ry="36.8"/>
			<path class="st2" d="M1926.2,1783.4c-24.6,0-44.5-18.9-44.5-42.1s20-42.2,44.5-42.2s44.5,18.9,44.5,42.2
				C1970.7,1764.5,1950.7,1783.4,1926.2,1783.4z M1926.2,1709.7c-18.7,0-33.9,14.1-33.9,31.5s15.2,31.5,33.9,31.5
				s33.9-14.1,33.9-31.5C1960.1,1723.8,1944.9,1709.7,1926.2,1709.7z"/>
		</g>
		<g id="ellipse8073">
			<ellipse class="st1" cx="2259" cy="1741.2" rx="39.2" ry="36.8"/>
			<path class="st2" d="M2259,1783.4c-24.6,0-44.5-18.9-44.5-42.1s20-42.2,44.5-42.2s44.5,18.9,44.5,42.2
				C2303.5,1764.5,2283.5,1783.4,2259,1783.4z M2259,1709.7c-18.7,0-33.9,14.1-33.9,31.5s15.2,31.5,33.9,31.5s33.9-14.1,33.9-31.5
				C2292.9,1723.8,2277.7,1709.7,2259,1709.7z"/>
		</g>
		<g id="ellipse8075">
			<ellipse class="st1" cx="594.8" cy="2369.9" rx="39.2" ry="36.8"/>
			<path class="st2" d="M594.8,2412.1c-24.6,0-44.5-18.9-44.5-42.2s20-42.1,44.5-42.1c24.6,0,44.5,18.9,44.5,42.1
				S619.4,2412.1,594.8,2412.1z M594.8,2338.4c-18.7,0-33.9,14.1-33.9,31.5s15.2,31.5,33.9,31.5s33.9-14.1,33.9-31.5
				C628.8,2352.5,613.5,2338.4,594.8,2338.4z"/>
		</g>
		<g id="ellipse8077">
			<ellipse class="st1" cx="1926.2" cy="2369.9" rx="39.2" ry="36.8"/>
			<path class="st2" d="M1926.2,2412.1c-24.6,0-44.5-18.9-44.5-42.2s20-42.1,44.5-42.1s44.5,18.9,44.5,42.1
				S1950.7,2412.1,1926.2,2412.1z M1926.2,2338.4c-18.7,0-33.9,14.1-33.9,31.5s15.2,31.5,33.9,31.5s33.9-14.1,33.9-31.5
				S1944.9,2338.4,1926.2,2338.4z"/>
		</g>
		<g id="ellipse8079">
			<ellipse class="st1" cx="1260.5" cy="2667.1" rx="39.2" ry="36.8"/>
			<path class="st2" d="M1260.5,2709.2c-24.6,0-44.5-18.9-44.5-42.2s20-42.1,44.5-42.1c24.6,0,44.5,18.9,44.5,42.1
				S1285.1,2709.2,1260.5,2709.2z M1260.5,2635.5c-18.7,0-33.9,14.1-33.9,31.5s15.2,31.5,33.9,31.5c18.7,0,33.9-14.1,33.9-31.5
				C1294.4,2649.7,1279.2,2635.5,1260.5,2635.5z"/>
		</g>
	</g>
	<g id="layer3" inkscape:groupmode="layer" inkscape:label="Hex">
		<g id="path7233">
			<path class="st3" d="M1260.5,86.6L2446,771v1368.9l-1185.5,684.5L75,2140V771L1260.5,86.6 M1260.5,0L0,727.7v1455.6l1249.9,721.6
				l10.6,6.1L2521,2183.2V727.7L1260.5,0L1260.5,0z"/>
		</g>
	</g>
	<g id="layer1" transform="translate(595.86565,-149.38123)" inkscape:groupmode="layer" inkscape:label="Tools">
		<g id="flowRoot835">
		</g>
		<g id="Gray_Logo" transform="matrix(0.07174215,0,0,0.07174215,-721.6517,85.248709)">
		</g>
		<g id="Black_Letters" transform="matrix(0.07174215,0,0,0.07174215,-721.6517,85.248709)">
		</g>
		<g id="Blue_Gradient_Letters" transform="matrix(0.07174215,0,0,0.07174215,-721.6517,85.248709)">
		</g>
		<g id="White_Letters" transform="matrix(0.07174215,0,0,0.07174215,-721.6517,85.248709)">
		</g>
		<g id="path2622">
			<path inkscape:connector-curvature="0" class="st4" d="M224.5,801.1h-36.3c-10,0-18.2,10.3-18.2,23.1v23.1h-46.4
				c-12.6-27.5-35.7-46.2-62.5-46.2h-72.6c-100.2,0-181.5,103.4-181.5,231l108.9-46.2l15,19.1c13.6,17.3,32.1,27.1,51.3,27H61
				c26.8,0,50-18.7,62.5-46.2H170v23.1c0,12.8,8.1,23.1,18.2,23.1h36.3c10,0,18.2-10.3,18.2-23.1V824.2
				C242.6,811.5,234.5,801.1,224.5,801.1L224.5,801.1z M-17.8,1078.3c-5.9,0-11.7-1-17.5-2.1l-13.6,503.5
				c-1.4,50.5,30.4,92.3,70.1,92.3s71.5-41.8,70.1-92.3l-13.6-503.4c-5.5,1.1-11,2.1-16.7,2.1L-17.8,1078.3z"/>
			<path d="M21.3,1677.2L21.3,1677.2c-17.5,0-34.5-7.6-47.9-21.4c-18.3-18.8-28.3-46.7-27.5-76.3l13.8-509.8l6.2,1.3
				c5.2,1.1,10.8,2,16.4,2h78.8c5.1,0,10.1-0.9,15.7-2l6.1-1.2l13.8,509.6c0.8,29.7-9.2,57.6-27.6,76.4
				C55.7,1669.6,38.7,1677.2,21.3,1677.2z M-30.1,1082.5l-13.4,497.2c-0.7,26.8,8.2,51.9,24.5,68.6c11.6,11.9,25.5,18.2,40.3,18.2
				l0,0c14.8,0,28.7-6.3,40.2-18.2c16.3-16.8,25.3-41.8,24.5-68.7l-13.4-497.2c-3.8,0.6-7.7,1.1-11.6,1.1h-78.8
				C-22.1,1083.6-26.2,1083.1-30.1,1082.5z M-198.4,1040.1v-8c0-130.3,83.8-236.3,186.8-236.3H61c26.7,0,51.7,17.6,65.9,46.2h37.7
				v-17.8c0-15.7,10.5-28.4,23.5-28.4h36.3c12.9,0,23.5,12.7,23.5,28.4V1009c0,15.7-10.5,28.4-23.5,28.4h-36.3
				c-12.9,0-23.5-12.7-23.5-28.4v-17.8H127c-14.2,28.6-39.2,46.2-65.9,46.2h-78.8l0,0c-20.7,0-41-10.6-55.5-29.1l-12.5-16
				L-198.4,1040.1z M-82.5,979.4l17.5,22.3c12.7,16.1,29.4,25,47.1,25l0,0H61c23.8,0,45.4-16.1,57.7-43.1l1.4-3.1h55.1v28.4
				c0,9.6,5.9,17.8,12.9,17.8h36.3c7,0,12.9-8.1,12.9-17.8V824.2c0-9.6-5.9-17.8-12.9-17.8h-36.3c-7,0-12.9,8.1-12.9,17.8v28.4
				h-55.1l-1.4-3.1c-12.4-27-33.9-43.1-57.7-43.1h-72.6c-95.1,0-172.8,96.9-176.1,217.6L-82.5,979.4z"/>
		</g>
		<g id="path6913">
			<path inkscape:connector-curvature="0" class="st4" d="M562.4,1672.9c11.2,6.8,25.5-1.4,25.5-14.6v-148.4l78.9-56.4l78.9,56.4
				v148.4c0,13.2,14.4,21.3,25.7,14.5c58.9-35.6,98.3-100.2,98.3-174.1c0-79.1-46.4-147.3-112.7-180.8V892
				c0-49.9-40.4-90.3-90.1-90.3c-49.8,0-90.1,40.4-90.1,90.3v425.4C510.1,1350.8,464,1419,464,1498.6
				C464,1572.6,503.4,1637.3,562.4,1672.9L562.4,1672.9z M642.9,868.1c13.2-13.2,34.6-13.2,47.8,0s13.2,34.7,0,47.9
				s-34.6,13.2-47.8,0S629.7,881.3,642.9,868.1z"/>
			<path d="M571,1680.6c-3.9,0-7.8-1.1-11.4-3.2l0,0c-63.2-38.1-101-105-101-178.8c0-77.9,43.1-148.2,112.7-184.4V892
				c0-52.7,42.8-95.6,95.4-95.6c52.6,0,95.4,42.9,95.4,95.6v422.6c69.6,36.5,112.7,106.7,112.7,184.1c0,73.7-37.7,140.5-100.8,178.6
				c-7,4.2-15.4,4.3-22.5,0.3s-11.3-11.2-11.3-19.3v-145.6l-73.6-52.7l-73.6,52.7v145.6c0,8.2-4.2,15.4-11.3,19.4
				C578.5,1679.7,574.7,1680.6,571,1680.6z M666.8,807c-46.8,0-84.8,38.1-84.8,85v428.7l-2.9,1.5
				c-67.7,33.9-109.8,101.5-109.8,176.4c0,70.1,35.8,133.5,95.9,169.7l0,0c3.6,2.2,7.9,2.2,11.6,0.1c3.7-2.1,5.9-5.9,5.9-10.2
				v-151.1l84.2-60.2l84.2,60.2v151.1c0,4.2,2.2,8,5.9,10.1s8.1,2,11.8-0.2c59.9-36.2,95.7-99.6,95.7-169.6
				c0-74.4-42.1-141.9-109.8-176.1l-2.9-1.5V892C751.6,845.2,713.6,807,666.8,807z M666.8,931.2c-10,0-20-3.8-27.7-11.5
				c-15.2-15.3-15.2-40.1,0-55.4l0,0c15.2-15.3,40.1-15.3,55.3,0c7.4,7.4,11.5,17.2,11.5,27.7s-4.1,20.3-11.5,27.7
				C686.8,927.4,676.8,931.2,666.8,931.2z M646.6,871.8c-11.1,11.1-11.1,29.3,0,40.4c11.1,11.1,29.2,11.1,40.3,0
				c5.4-5.4,8.4-12.6,8.4-20.2c0-7.6-3-14.8-8.4-20.2C675.8,860.7,657.8,860.7,646.6,871.8L646.6,871.8z"/>
		</g>
		<g id="path6939">
			<path inkscape:connector-curvature="0" class="st4" d="M1287.3,1674l-22.5-220.7l43.7-61.1v-163.6c7.8,2.5,15.7,4.1,23.9,4.1
				c8.2,0,16.1-1.6,23.9-4.1v163.6l43.7,61.1l-22.5,220.7H1287.3z M1258.2,1084.3V853.6c0-28.7,16.6-51.9,37.1-51.9h74.2
				c20.5,0,37.1,23.2,37.1,51.9v230.7c0,57.4-33.2,103.8-74.2,103.8C1291.4,1188.1,1258.2,1141.7,1258.2,1084.3z"/>
			<path d="M1382.3,1679.3h-99.7l-23.2-227.4l43.9-61.4v-169.1l6.9,2.2c8.1,2.6,15.4,3.9,22.2,3.9c7,0.2,14.2-1.3,22.4-3.9l6.9-2.2
				v169.1l43.9,61.4L1382.3,1679.3z M1292.1,1668.6h80.6l21.8-213.9l-43.5-60.9v-158.3c-6.5,1.6-12.7,2.4-18.6,2.4h-0.1
				c-5.9,0-12-0.8-18.5-2.4v158.3l-43.5,60.9L1292.1,1668.6z M1332.4,1193.5c-43.9,0-79.5-49-79.5-109.1V853.6
				c0-31.5,19-57.2,42.4-57.2h74.2c23.4,0,42.4,25.7,42.4,57.2v230.7C1412,1144.5,1376.3,1193.5,1332.4,1193.5z M1295.3,807
				c-17.5,0-31.8,20.9-31.8,46.6v230.7c0,54.3,30.9,98.5,68.9,98.5s68.9-44.2,68.9-98.5V853.6c0-25.7-14.3-46.6-31.8-46.6H1295.3z"
				/>
		</g>
	</g>
	<g id="layer5" inkscape:groupmode="layer" inkscape:label="text">
		<g id="text926" transform="translate(595.86565,-149.38123)">
			<path id="path901" inkscape:connector-curvature="0" class="st3" d="M-188.5,2174.3c-7.9-4.3-17-6.4-27.5-6.4
				c-14.2,0-25.3,5.3-33.3,15.8c-8,10.4-12,24.5-12,42.5v101.4h-65.4v-212.4h65.4v39.4h0.8c10.4-28.8,29-43.1,55.9-43.1
				c6.9,0,12.3,0.8,16.2,2.5L-188.5,2174.3L-188.5,2174.3z"/>
			<path id="path903" inkscape:connector-curvature="0" class="st3" d="M-169.3,2322v-53.1c10.8,6.5,21.5,11.3,32.1,14.5
				c10.8,3.2,20.9,4.8,30.4,4.8c11.6,0,20.7-1.6,27.3-4.8c6.8-3.2,10.1-8,10.1-14.5c0-4.1-1.5-7.6-4.6-10.4s-7-5.2-11.8-7.3
				c-4.7-2.1-9.9-3.9-15.5-5.6c-5.7-1.7-11.1-3.5-16.4-5.6c-8.4-3.2-15.9-6.6-22.4-10.2c-6.4-3.7-11.7-8-16.2-12.9
				c-4.3-4.8-7.6-10.4-9.9-16.8c-2.2-6.4-3.3-13.9-3.3-22.6c0-11.9,2.6-22.1,7.7-30.7c5.2-8.6,12.1-15.6,20.7-20.9
				c8.7-5.5,18.6-9.5,29.6-12c11.2-2.6,22.8-3.9,34.8-3.9c9.4,0,18.9,0.8,28.6,2.3c9.7,1.4,19.2,3.5,28.6,6.2v50.6
				c-8.3-4.8-17.2-8.4-26.7-10.8c-9.4-2.5-18.6-3.7-27.7-3.7c-4.3,0-8.4,0.4-12.2,1.2c-3.7,0.7-7,1.8-9.9,3.3
				c-2.9,1.4-5.2,3.2-6.8,5.6c-1.7,2.2-2.5,4.8-2.5,7.7c0,3.9,1.2,7.2,3.7,10s5.7,5.2,9.7,7.3c4,1.9,8.4,3.7,13.3,5.4
				c5,1.5,9.9,3.1,14.7,4.8c8.7,3,16.6,6.4,23.6,10s13,7.8,18,12.7c5.1,4.8,9,10.5,11.6,17c2.8,6.5,4.1,14.2,4.1,23.2
				c0,12.6-2.8,23.4-8.3,32.4c-5.4,8.8-12.6,16.1-21.7,21.8c-9,5.5-19.4,9.5-31.3,12c-11.7,2.6-23.9,3.9-36.6,3.9
				C-127.8,2332.8-149.4,2329.2-169.3,2322L-169.3,2322z"/>
			<path id="path905" inkscape:connector-curvature="0" class="st3" d="M159.1,2325.1c-9.7,5.1-24.2,7.7-43.7,7.7
				c-46.1,0-69.2-24-69.2-72v-97.3H11.9v-48.3h34.4v-45.8l65.2-18.7v64.5h47.6v48.3h-47.6v85.9c0,22.1,8.8,33.2,26.3,33.2
				c6.9,0,14-2,21.3-6V2325.1z"/>
			<path id="path907" inkscape:connector-curvature="0" class="st3" d="M397.2,2327.6H332v-32.4h-1c-16.2,25-37.8,37.5-64.8,37.5
				c-49.1,0-73.7-29.8-73.7-89.4v-128.2h65.2v122.4c0,30,11.9,45,35.6,45c11.7,0,21.1-4.1,28.2-12.2c7-8.3,10.6-19.5,10.6-33.6
				v-121.5h65.2L397.2,2327.6z"/>
			<path id="path909" inkscape:connector-curvature="0" class="st3" d="M660,2327.6h-65.4v-29.2h-0.8c-14.9,23-36.8,34.4-65.6,34.4
				c-26.5,0-47.8-9.3-64-28c-16.2-18.8-24.2-45-24.2-78.6c0-35.1,8.9-63.3,26.7-84.4c17.8-21.2,41.1-31.7,70-31.7
				c27.3,0,46.4,9.8,57.1,29.4h0.8v-126.3H660V2327.6z M595.8,2224.3v-16c0-13.8-4-25.3-12-34.4c-8-9.1-18.4-13.7-31.3-13.7
				c-14.5,0-25.8,5.7-34,17.2c-8.1,11.3-12.2,27-12.2,46.9c0,18.7,3.9,33,11.8,43.1c7.9,10.1,18.8,15.1,32.7,15.1
				c13.3,0,24-5.3,32.3-16C591.6,2255.9,595.8,2241.8,595.8,2224.3L595.8,2224.3z"/>
			<path id="path911" inkscape:connector-curvature="0" class="st3" d="M748.2,2081.6c-11,0-20.1-3.2-27.1-9.7
				c-7-6.6-10.6-14.7-10.6-24.3c0-9.8,3.5-17.8,10.6-24.1c7-6.2,16.1-9.3,27.1-9.3c11.2,0,20.2,3.1,27.1,9.3
				c7,6.2,10.6,14.2,10.6,24.1c0,10-3.5,18.1-10.6,24.5C768.4,2078.4,759.3,2081.6,748.2,2081.6L748.2,2081.6z M780.5,2327.6H715
				v-212.4h65.4L780.5,2327.6L780.5,2327.6z"/>
			<path id="path913" inkscape:connector-curvature="0" class="st3" d="M937,2332.8c-35.3,0-63.2-9.9-83.4-29.7
				c-20.2-19.9-30.2-46.9-30.2-80.9c0-35.1,10.5-62.6,31.5-82.3c21-19.9,49.3-29.9,85.1-29.9c35.2,0,62.8,10,82.8,29.9
				c20,19.8,30,46,30,78.6c0,35.3-10.4,63.1-31.1,83.6C1001.1,2322.5,972.9,2332.8,937,2332.8z M938.6,2160.2
				c-15.5,0-27.5,5.3-36,16c-8.6,10.6-12.8,25.7-12.8,45.2c0,40.8,16.4,61.2,49.3,61.2c31.3,0,47-20.9,47-62.8
				C986.1,2180,970.3,2160.2,938.6,2160.2z"/>
			<path id="path915" inkscape:connector-curvature="0" class="st3" d="M1267.4,2327.6h-61.9v-30.5h-0.8
				c-14.2,23.8-35.3,35.7-63.2,35.7c-20.6,0-36.8-5.8-48.7-17.4c-11.7-11.8-17.6-27.4-17.6-46.9c0-41.2,24.4-65,73.1-71.3l57.6-7.7
				c0-23.2-12.6-34.8-37.7-34.8c-25.3,0-49.3,7.5-72.1,22.6v-49.4c9.1-4.7,21.5-8.8,37.3-12.4c15.9-3.6,30.3-5.4,43.3-5.4
				c60.5,0,90.7,30.2,90.7,90.6L1267.4,2327.6z M1205.9,2241.3V2227l-38.5,5c-21.3,2.8-31.9,12.4-31.9,28.8c0,7.5,2.6,13.6,7.7,18.5
				c5.2,4.7,12.3,7.1,21.1,7.1c12.3,0,22.3-4.2,30-12.7C1202.1,2265.1,1205.9,2254.3,1205.9,2241.3L1205.9,2241.3z"/>
			<path id="path917" inkscape:connector-curvature="0" class="st3" d="M1385.9,2302.9h-0.8v122.4h-65.4v-310.1h65.4v31.9h0.8
				c16.2-24.7,38.9-37.1,68.1-37.1c27.5,0,48.7,9.5,63.6,28.4c15,18.8,22.6,44.5,22.6,76.9c0,35.4-8.8,63.8-26.3,85.2
				c-17.4,21.4-40.6,32.1-69.6,32.1C1418.7,2332.8,1399.3,2322.8,1385.9,2302.9L1385.9,2302.9z M1384,2215.8v17
				c0,14.7,3.9,26.6,11.6,35.9c7.7,9.3,17.9,13.9,30.4,13.9c14.9,0,26.4-5.7,34.6-17.2c8.3-11.6,12.4-28,12.4-49.2
				c0-37.3-14.5-56-43.5-56c-13.4,0-24.4,5.1-32.9,15.3C1388.2,2185.6,1384,2199.1,1384,2215.8L1384,2215.8z"/>
			<path id="path919" inkscape:connector-curvature="0" class="st3" d="M1616.1,2081.6c-11,0-20.1-3.2-27.1-9.7
				c-7-6.6-10.6-14.7-10.6-24.3c0-9.8,3.5-17.8,10.6-24.1c7-6.2,16.1-9.3,27.1-9.3c11.2,0,20.2,3.1,27.1,9.3
				c7,6.2,10.6,14.2,10.6,24.1c0,10-3.5,18.1-10.6,24.5C1636.3,2078.4,1627.3,2081.6,1616.1,2081.6L1616.1,2081.6z M1648.4,2327.6
				H1583v-212.4h65.4V2327.6z"/>
		</g>
	</g>
</g>
</svg>
