<?xml version="1.0" encoding="utf-8"?>
<!-- Generator: Adobe Illustrator 26.5.0, SVG Export Plug-In . SVG Version: 6.00 Build 0)  -->
<svg version="1.1" id="Layer_1" xmlns="http://www.w3.org/2000/svg" xmlns:xlink="http://www.w3.org/1999/xlink" x="0px" y="0px"
	 viewBox="0 0 2521 2911" style="enable-background:new 0 0 2521 2911;" xml:space="preserve">
<style type="text/css">
	.st0{fill:url(#SVGID_1_);}
	.st1{opacity:0.25;fill:url(#SVGID_00000047776646124485205410000015328184490330299045_);enable-background:new    ;}
	.st2{fill:#FFFFFF;}
	.st3{fill:#E6B35A;}
</style>
<g>
	
		<radialGradient id="SVGID_1_" cx="1298.7644" cy="-1091.8956" r="1821.5536" gradientTransform="matrix(1 0 0 -1.0001 0 910.4794)" gradientUnits="userSpaceOnUse">
		<stop  offset="0" style="stop-color:#77E8F9"/>
		<stop  offset="0.7" style="stop-color:#2972CB"/>
		<stop  offset="1" style="stop-color:#073FB7"/>
	</radialGradient>
	<path class="st0" d="M2443.1,776.1l-178.1-102.9C2012.2,490,1571.7,264.9,1260.5,93.3C907.1,296.1,535.9,511.6,252.9,674.9
		l-175,101.2v1365.6l1182.6,682.8l1182.6-682.8V776.1z"/>
	
		<linearGradient id="SVGID_00000181802490866326665460000004617029811239592109_" gradientUnits="userSpaceOnUse" x1="1255.8593" y1="1333.9773" x2="1260.2855" y2="-256.4705" gradientTransform="matrix(1 0 0 -1 0 910.4)">
		<stop  offset="0" style="stop-color:#FFFFFF;stop-opacity:0.83"/>
		<stop  offset="0.56" style="stop-color:#FFFFFF;stop-opacity:0.37"/>
		<stop  offset="1" style="stop-color:#FFFFFF;stop-opacity:0"/>
	</linearGradient>
	<path style="opacity:0.25;fill:url(#SVGID_00000181802490866326665460000004617029811239592109_);enable-background:new    ;" d="
		M1258.4,1164.5c439.8,0,818.6-195.6,987.4-476.2l-985.3-568.9l0,0L272.1,690C441.6,969.6,819.3,1164.5,1258.4,1164.5z"/>
	<path class="st2" d="M2521,2183.2V727.7l-100.5-58l-953.1-550.4L1260.5,0l-206.9,119.4L100.5,669.8L0,727.7v1455.8l100.5,57.6
		l965.1,557.2l195.2,112.5l195.2-112.5l964.4-557.2L2521,2183.2z M100.5,2128.7V789.2L272.1,690l988.4-570.6l0,0l985.3,568.9
		l174.6,100.9v1339.5l-1160,669.8L100.5,2128.7z"/>
	<path class="st3" d="M625.4,2168.8c1-1,2.1-2.1,3.1-3.1h-0.7L625.4,2168.8z"/>
	<path class="st2" d="M1026.5,1571.5c22.6,14.1,49.1,21.3,75.8,21.3c43.6,0,69-23,69-56.3c0-30.2-17.5-48.4-62.1-64.8
		c-53.9-19.6-87.1-48-87.1-93.7c0-51.5,42.5-89.6,106.4-89.6c33.3,0,58.3,7.9,72.4,16.1l-11.7,34.7c-18.9-10.6-40.5-16.1-62.1-15.8
		c-44.9,0-62.1,26.8-62.1,49.4c0,30.9,19.9,46,65.5,63.5c55.6,21.6,83.7,48.4,83.7,96.8c0,50.8-37.1,95.4-114.9,95.4
		c-31.9,0-66.6-10-84.1-21.6L1026.5,1571.5z"/>
	<path class="st2" d="M1321.6,1329.9v56.6h61.4v32.6h-61.4v127.6c0,29.2,8.2,46,32.3,46c8.2,0.3,16.8-0.7,25-3.1l2.1,32.6
		c-12.4,4.1-25,6.2-38.1,5.8c-19.9,0-36-6.9-46.3-18.2c-11.7-13.4-16.5-34.3-16.5-62.1v-129h-36.7v-32.6h36.7v-43.9L1321.6,1329.9z"
		/>
	<path class="st2" d="M1629.3,1558.1c0,25,0.3,46.3,2.1,64.8h-38.1l-2.4-38.4h-1c-16.1,27.8-46,44.6-78.2,43.9
		c-37.1,0-81.7-20.9-81.7-103.6v-138.3h42.9v130.4c0,44.9,14.1,75.8,52.8,75.8c28.8,0,48.7-19.9,56.6-39.5c2.7-6.9,4.1-14.4,3.8-22
		v-144.5h43.2V1558.1z"/>
	<path class="st2" d="M1904.5,1276.4v285.8c0,20.9,1,44.9,2.1,61.1h-38.1l-2.1-41.2h-1.4c-12.7,26.4-41.2,46.3-79.6,46.3
		c-57.3,0-101.6-48.4-101.6-120.1c-0.3-78.6,48.7-126.6,106-126.6c36.7,0,60.7,17.2,71.4,35.7h1v-141L1904.5,1276.4L1904.5,1276.4z
		 M1861.9,1482.9c0-6.2-0.7-12-2.1-18.2c-6.5-28.8-32.3-49.4-62.1-49.4c-44.6,0-70.7,39.1-70.7,90.9c0,48,24,87.5,70,87.5
		c28.8,0,55.2-19.6,63.1-51.5c1.4-6.2,2.1-12.4,2.1-18.5v-40.8H1861.9z"/>
	<path class="st2" d="M2024.2,1320.3c0,14.8-10.3,26.4-27.4,26.4c-14.1,0.3-25.4-10.6-25.7-24.7c0-0.7,0-1,0-1.7
		c-0.3-14.4,11-26.4,25.4-26.8c0.3,0,1,0,1.4,0c14.4-0.3,26.1,11,26.4,25C2024.2,1318.9,2024.2,1319.6,2024.2,1320.3z
		 M1976.2,1623.3v-236.4h42.9v236.4H1976.2z"/>
	<path class="st2" d="M2304.5,1502.8c0,87.5-61.1,125.6-117.7,125.6c-63.5,0-113.2-47-113.2-121.8c0-78.6,52.1-125.2,117.3-125.2
		C2258.5,1381.7,2304.5,1431.1,2304.5,1502.8z M2117.5,1505.3c0,51.8,29.2,90.9,71.4,90.9c41.2,0,71.7-38.4,71.7-92
		c0-40.1-19.9-90.6-70.7-90.6C2139.1,1413.6,2117.5,1461,2117.5,1505.3L2117.5,1505.3z"/>
	<path class="st2" d="M581.2,1094.9c-202.8,0-367.4,164.4-367.4,367.5s164.3,367.5,367.4,367.5s367.1-164.4,367.1-367.5l0,0
		C948.3,1259.6,784,1094.9,581.2,1094.9z M746.6,1610.6h-60.7l-100.9-151h-53.5v120.1h52.5v30.9H451.5v-30.9h45.6v-266.3l-45.6-5.5
		v-29.2c16.8,4.1,33.6,6.5,50.8,6.5c28.1,0,57-6.5,85.1-6.5c54.9,0,105.7,25,105.7,85.8c0,47-28.1,76.9-72,89.6l85.1,125.6h39.8
		v30.9H746.6z"/>
	<path class="st2" d="M657.4,1368.3c0-42.2-30.5-58.7-69.3-58.7c-18.9,0.3-38.1,1.4-57,3.8v116.3l28.8,0.7
		C630.2,1431.5,657.4,1404,657.4,1368.3z"/>
	<path class="st2" d="M2280.5,1294.6c-14.8,0-26.8,12-26.8,26.8c0,14.8,12,26.8,26.8,26.8s26.8-12,26.8-26.8l0,0
		C2307.3,1306.6,2295.2,1294.6,2280.5,1294.6z M2302.8,1321c0,12.4-9.9,22.3-22.3,22.3c-12.4,0-22.3-10-22.3-22.3
		s9.9-22.3,22.3-22.3l0,0C2292.8,1299,2302.8,1309,2302.8,1321z"/>
	<path class="st2" d="M2290.1,1332l-6.5-9.6c3.4-1,5.8-4.1,5.8-7.9c0-5.8-4.8-7.9-9.6-7.9c-1.4,0-2.4,0-3.8,0.3
		c-1,0-2.4,0.3-3.4,0.3c-1.4,0-2.7-0.3-4.1-0.7h-0.7v3.8l3.8,0.3v21.3h-4.1v3.8h12.4v-3.8h-4.5v-8.9h3.8l8.2,12.7l0.3,0.3h6.2v-4.1
		H2290.1z M2285,1314.8c0,1.4-0.7,2.4-1.7,3.4c-1.7,1-3.8,1.4-5.8,1.4h-2.1v-8.6c1.7,0,2.7-0.3,4.1-0.3
		C2282.2,1310.4,2285,1311,2285,1314.8z"/>
</g>
</svg>
