<?xml version="1.0" encoding="utf-8"?>
<!-- Generator: Adobe Illustrator 22.0.1, SVG Export Plug-In . SVG Version: 6.00 Build 0)  -->
<svg version="1.1" id="Layer_1" xmlns="http://www.w3.org/2000/svg" xmlns:xlink="http://www.w3.org/1999/xlink" x="0px" y="0px"
	 viewBox="0 0 735 852" style="enable-background:new 0 0 735 852;" xml:space="preserve">
<style type="text/css">
	.st0{fill:url(#SVGID_1_);}
	.st1{opacity:0.25;fill:url(#SVGID_2_);enable-background:new    ;}
	.st2{fill:#FFFFFF;}
	.st3{fill:#E6B35A;}
</style>
<title>R Studio</title>
<radialGradient id="SVGID_1_" cx="378.653" cy="525.4124" r="530.9312" gradientTransform="matrix(1 0 0 1 0 60)" gradientUnits="userSpaceOnUse">
	<stop  offset="0" style="stop-color:#77E8F9"/>
	<stop  offset="0.7" style="stop-color:#2972CB"/>
	<stop  offset="1" style="stop-color:#073FB7"/>
</radialGradient>
<path class="st0" d="M712.2,228l-51.9-30C586.6,144.6,458.2,79,367.5,29c-103,59.1-211.2,121.9-293.7,169.5l-51,29.5v398l344.7,199
	l344.7-199V228z"/>
<linearGradient id="SVGID_2_" gradientUnits="userSpaceOnUse" x1="366.1475" y1="-181.65" x2="367.4375" y2="281.88" gradientTransform="matrix(1 0 0 1 0 60)">
	<stop  offset="0" style="stop-color:#FFFFFF;stop-opacity:0.83"/>
	<stop  offset="0.56" style="stop-color:#FFFFFF;stop-opacity:0.37"/>
	<stop  offset="1" style="stop-color:#FFFFFF;stop-opacity:0"/>
</linearGradient>
<path class="st1" d="M366.9,341.2c128.2,0,238.6-57,287.8-138.8L367.5,36.6l0,0L79.4,202.9C128.8,284.4,238.9,341.2,366.9,341.2z"/>
<path class="st2" d="M734.9,638.1V213.9L705.6,197L427.8,36.6L367.5,1.8l-60.3,34.8L29.4,197L0.1,213.9v424.3L29.4,655l281.3,162.4
	l56.9,32.8l56.9-32.8L705.6,655L734.9,638.1z M29.4,622.2V231.8l50-28.9L367.5,36.6l0,0l287.2,165.8l50.9,29.4v390.4L367.5,817.4
	L29.4,622.2z"/>
<path class="st3" d="M182.4,633.9c0.3-0.3,0.6-0.6,0.9-0.9h-0.2L182.4,633.9z"/>
<path class="st2" d="M299.3,459.8c6.6,4.1,14.3,6.2,22.1,6.2c12.7,0,20.1-6.7,20.1-16.4c0-8.8-5.1-14.1-18.1-18.9
	c-15.7-5.7-25.4-14-25.4-27.3c0-15,12.4-26.1,31-26.1c9.7,0,17,2.3,21.1,4.7l-3.4,10.1c-5.5-3.1-11.8-4.7-18.1-4.6
	c-13.1,0-18.1,7.8-18.1,14.4c0,9,5.8,13.4,19.1,18.5c16.2,6.3,24.4,14.1,24.4,28.2c0,14.8-10.8,27.8-33.5,27.8
	c-9.3,0-19.4-2.9-24.5-6.3L299.3,459.8z"/>
<path class="st2" d="M385.3,389.4v16.5h17.9v9.5h-17.9v37.2c0,8.5,2.4,13.4,9.4,13.4c2.4,0.1,4.9-0.2,7.3-0.9l0.6,9.5
	c-3.6,1.2-7.3,1.8-11.1,1.7c-5.8,0-10.5-2-13.5-5.3c-3.4-3.9-4.8-10-4.8-18.1v-37.6h-10.7v-9.5h10.7V393L385.3,389.4z"/>
<path class="st2" d="M475,455.9c0,7.3,0.1,13.5,0.6,18.9h-11.1l-0.7-11.2h-0.3c-4.7,8.1-13.4,13-22.8,12.8
	c-10.8,0-23.8-6.1-23.8-30.2v-40.3h12.5v38c0,13.1,4.1,22.1,15.4,22.1c8.4,0,14.2-5.8,16.5-11.5c0.8-2,1.2-4.2,1.1-6.4V406H475
	V455.9z"/>
<path class="st2" d="M555.2,373.8v83.3c0,6.1,0.3,13.1,0.6,17.8h-11.1l-0.6-12h-0.4c-3.7,7.7-12,13.5-23.2,13.5
	c-16.7,0-29.6-14.1-29.6-35c-0.1-22.9,14.2-36.9,30.9-36.9c10.7,0,17.7,5,20.8,10.4h0.3v-41.1L555.2,373.8L555.2,373.8z M542.8,434
	c0-1.8-0.2-3.5-0.6-5.3c-1.9-8.4-9.4-14.4-18.1-14.4c-13,0-20.6,11.4-20.6,26.5c0,14,7,25.5,20.4,25.5c8.4,0,16.1-5.7,18.4-15
	c0.4-1.8,0.6-3.6,0.6-5.4V434H542.8z"/>
<path class="st2" d="M590.1,386.6c0,4.3-3,7.7-8,7.7c-4.1,0.1-7.4-3.1-7.5-7.2c0-0.2,0-0.3,0-0.5c-0.1-4.2,3.2-7.7,7.4-7.8
	c0.1,0,0.3,0,0.4,0c4.2-0.1,7.6,3.2,7.7,7.3C590.1,386.2,590.1,386.4,590.1,386.6z M576.1,474.9V406h12.5v68.9H576.1z"/>
<path class="st2" d="M671.8,439.8c0,25.5-17.8,36.6-34.3,36.6c-18.5,0-33-13.7-33-35.5c0-22.9,15.2-36.5,34.2-36.5
	C658.4,404.5,671.8,418.9,671.8,439.8z M617.3,440.5c0,15.1,8.5,26.5,20.8,26.5c12,0,20.9-11.2,20.9-26.8c0-11.7-5.8-26.4-20.6-26.4
	S617.3,427.6,617.3,440.5L617.3,440.5z"/>
<path class="st2" d="M169.5,320.9c-59.1,0-107.1,47.9-107.1,107.1s47.9,107.1,107.1,107.1s107-47.9,107-107.1l0,0
	C276.5,368.9,228.6,320.9,169.5,320.9z M217.7,471.2H200l-29.4-44H155v35h15.3v9h-38.6v-9H145v-77.6l-13.3-1.6v-8.5
	c4.9,1.2,9.8,1.9,14.8,1.9c8.2,0,16.6-1.9,24.8-1.9c16,0,30.8,7.3,30.8,25c0,13.7-8.2,22.4-21,26.1l24.8,36.6h11.6v9H217.7z"/>
<path class="st2" d="M191.7,400.6c0-12.3-8.9-17.1-20.2-17.1c-5.5,0.1-11.1,0.4-16.6,1.1v33.9l8.4,0.2
	C183.8,419,191.7,411,191.7,400.6z"/>
<path class="st2" d="M664.8,379.1c-4.3,0-7.8,3.5-7.8,7.8s3.5,7.8,7.8,7.8s7.8-3.5,7.8-7.8l0,0C672.6,382.6,669.1,379.1,664.8,379.1
	z M671.3,386.8c0,3.6-2.9,6.5-6.5,6.5s-6.5-2.9-6.5-6.5s2.9-6.5,6.5-6.5l0,0C668.4,380.4,671.3,383.3,671.3,386.8z"/>
<path class="st2" d="M667.6,390l-1.9-2.8c1-0.3,1.7-1.2,1.7-2.3c0-1.7-1.4-2.3-2.8-2.3c-0.4,0-0.7,0-1.1,0.1c-0.3,0-0.7,0.1-1,0.1
	c-0.4,0-0.8-0.1-1.2-0.2h-0.2v1.1l1.1,0.1v6.2H661v1.1h3.6V390h-1.3v-2.6h1.1l2.4,3.7l0.1,0.1h1.8V390H667.6z M666.1,385
	c0,0.4-0.2,0.7-0.5,1c-0.5,0.3-1.1,0.4-1.7,0.4h-0.6v-2.5c0.5,0,0.8-0.1,1.2-0.1C665.3,383.7,666.1,383.9,666.1,385z"/>
<path class="st2" d="M365.5,798l4.5,4.5c1,1,1.9,1.9,2.7,2.9h0.1c-0.4-1.2-0.7-2.5-1-3.8l-1.4-6.3l1.6-0.9l4.7,4.3
	c1.1,1,2.1,2,2.9,2.9h0.1c-0.5-1.3-0.9-2.5-1.2-3.8l-1.6-6.1l1.9-1.1l2.7,12.4l-1.7,1l-4.5-4.1c-1-0.9-2-1.9-2.9-2.9l0,0
	c0.4,1.3,0.8,2.6,1.1,4l1.2,6l-1.7,1l-9.2-8.6L365.5,798z"/>
<path class="st2" d="M381.7,788.6l4.5,4.5c1,1,1.9,1.9,2.7,2.9h0.1c-0.4-1.2-0.7-2.5-1-3.8l-1.4-6.3l1.6-0.9l4.7,4.3
	c1.1,1,2.1,2,2.9,2.9h0.1c-0.5-1.3-0.9-2.5-1.2-3.8L393,782l1.9-1.1l2.7,12.4l-1.7,1l-4.5-4.1c-1-0.9-2-1.9-2.9-2.9l0,0
	c0.4,1.3,0.8,2.6,1.1,4l1.2,6l-1.7,1l-9.2-8.6L381.7,788.6z"/>
<path class="st2" d="M397.8,779.2l4.5,4.5c1,1,1.9,1.9,2.7,2.9h0.1c-0.4-1.2-0.7-2.5-1-3.8l-1.4-6.3l1.6-0.9l4.7,4.3
	c1.1,1,2.1,2,2.9,2.9h0.1c-0.5-1.3-0.9-2.5-1.2-3.8l-1.6-6.1l1.9-1.1l2.7,12.4l-1.7,1l-4.5-4.1c-1-0.9-2-1.9-2.9-2.9l0,0
	c0.4,1.3,0.8,2.6,1.1,4l1.2,6l-1.7,1l-9.2-8.6L397.8,779.2z"/>
<path class="st2" d="M417.1,780.5c-0.5-0.7-0.3-1.6,0.4-2c0,0,0.1,0,0.1-0.1c0.8-0.4,1.7-0.2,2.1,0.6s0.2,1.7-0.6,2.1l0,0
	C418.4,781.5,417.5,781.3,417.1,780.5C417.2,780.6,417.1,780.5,417.1,780.5z"/>
<path class="st2" d="M418.5,771.5c-0.7-1.2-1.4-2.3-2-3.2l1.7-1l1.3,2h0.1c-0.4-1.5,0.2-3.2,1.6-4c0.2-0.1,0.4-0.2,0.6-0.2l1,1.8
	c-0.2,0.1-0.5,0.2-0.7,0.3c-1.3,0.8-1.8,2.5-1.1,3.9c0.1,0.3,0.3,0.6,0.4,0.9l3.2,5.6l-1.9,1.1L418.5,771.5z"/>
<path class="st2" d="M428.4,772.8c1,0,2-0.2,2.9-0.7c1.4-0.8,1.6-1.9,1.1-2.7s-1.4-1.1-3.1-0.8c-2.3,0.4-3.8-0.1-4.5-1.3
	c-1-1.7-0.4-3.9,1.8-5.2c0.9-0.5,1.9-0.8,2.9-0.8l0.3,1.7c-0.9,0-1.7,0.2-2.5,0.6c-0.9,0.4-1.3,1.4-1,2.3c0,0,0,0.1,0.1,0.1
	c0.5,0.9,1.4,0.9,3,0.6c2.2-0.4,3.7,0,4.6,1.6c1.1,1.8,0.4,4-2.1,5.4c-1,0.6-2.2,1-3.4,1L428.4,772.8z"/>
<path class="st2" d="M432.8,754.8l1.7,3l2.7-1.6l0.9,1.5l-2.7,1.6l3.3,5.6c0.8,1.3,1.5,1.8,2.6,1.2c0.4-0.2,0.7-0.5,1-0.8l0.9,1.4
	c-0.4,0.5-1,0.9-1.5,1.2c-0.7,0.5-1.7,0.6-2.5,0.4c-1-0.4-1.9-1.3-2.3-2.3l-3.3-5.7l-1.6,0.9l-0.8-1.5l1.6-0.9l-1.5-2.5L432.8,754.8
	z"/>
<path class="st2" d="M452.6,757.5c0.6,1.1,1.2,2,1.8,2.8l-1.7,1l-1.1-1.7l0,0c0,1.7-0.9,3.2-2.3,4c-1.6,1-4.1,1.2-6.3-2.5l-3.6-6.1
	l1.9-1.1l3.4,5.8c1.2,2,2.5,3,4.3,2c1.1-0.7,1.7-1.9,1.5-3.2c-0.1-0.4-0.2-0.7-0.4-1.1l-3.8-6.5l1.9-1.1L452.6,757.5z"/>
<path class="st2" d="M457.5,738l7.4,12.6c0.5,0.9,1.2,2,1.7,2.7l-1.7,1l-1.1-1.8l0,0c0.1,1.7-0.9,3.3-2.4,4.1
	c-2.5,1.5-5.7,0.5-7.6-2.7c-2-3.5-1.1-6.9,1.4-8.3c1.2-0.8,2.8-0.9,4.1-0.2l0,0l-3.6-6.2L457.5,738z M460.9,748.2
	c-0.2-0.3-0.3-0.5-0.5-0.8c-1-1.1-2.7-1.4-4-0.6c-2,1.2-2.1,3.6-0.8,5.9c1.2,2.1,3.3,3.3,5.3,2.1c1.3-0.8,1.9-2.4,1.5-3.9
	c-0.1-0.3-0.2-0.6-0.4-0.9L460.9,748.2z"/>
<path class="st2" d="M463.9,736.8c0.4,0.6,0.2,1.5-0.5,1.9c-0.6,0.4-1.5,0.2-1.9-0.5c-0.4-0.6-0.2-1.5,0.4-1.8c0,0,0,0,0.1,0
	C462.6,735.9,463.4,736.1,463.9,736.8C463.8,736.8,463.9,736.8,463.9,736.8z M469.6,751.5l-6.1-10.5l1.9-1.1l6.1,10.5L469.6,751.5z"
	/>
<path class="st2" d="M481,737.7c2.2,3.9,0.6,7.1-2,8.6c-2.8,1.7-6.2,0.8-8.1-2.5c-2-3.5-1-6.9,2-8.6S479.1,734.5,481,737.7z
	 M472.8,742.6c1.3,2.3,3.7,3.2,5.5,2.2s2.2-3.5,0.8-5.9c-1-1.8-3.2-3.5-5.5-2.2S471.6,740.6,472.8,742.6L472.8,742.6z"/>
<path class="st2" d="M484.9,741c-0.5-0.7-0.3-1.6,0.4-2.1c0,0,0.1,0,0.1-0.1c0.7-0.5,1.7-0.3,2.2,0.5c0.5,0.7,0.3,1.7-0.5,2.2
	C486.3,742.1,485.4,741.8,484.9,741C484.9,741.1,484.9,741.1,484.9,741z"/>
<path class="st2" d="M497.6,734.6c-0.7,1-1.6,1.8-2.6,2.3c-3.1,1.8-6.5,0.9-8.3-2.3c-1.8-2.9-1-6.7,1.8-8.5c0.2-0.1,0.4-0.2,0.6-0.3
	c0.9-0.5,1.9-0.9,3-1l0.4,1.7c-0.9,0-1.7,0.3-2.5,0.8c-2.4,1.4-2.7,3.9-1.4,6.1c1.4,2.4,3.8,3,5.9,1.8c0.8-0.5,1.5-1.1,2-1.9
	L497.6,734.6z"/>
<path class="st2" d="M506.3,722.9c2.3,3.9,0.6,7.1-2,8.6c-2.8,1.7-6.2,0.8-8.1-2.5c-2-3.5-0.9-6.9,2-8.6S504.5,719.7,506.3,722.9z
	 M498.1,727.9c1.3,2.3,3.7,3.2,5.5,2.2s2.2-3.6,0.8-5.9c-1-1.8-3.2-3.5-5.5-2.2S497,725.9,498.1,727.9z"/>
<path class="st2" d="M507.4,719.2c-0.6-1.1-1.2-2-1.7-2.8l1.7-1l1.1,1.6h0.1c-0.1-1.6,0.8-3.1,2.2-3.8c1.3-0.8,3-0.6,4.2,0.4l0,0
	c0-0.7,0.1-1.4,0.4-2c0.4-0.9,1-1.6,1.9-2.1c1.4-0.8,4-1.1,6.1,2.5l3.6,6.2l-1.8,1.1l-3.5-5.9c-1.2-2-2.6-2.8-4.1-1.9
	c-1,0.6-1.5,1.8-1.2,3c0.1,0.4,0.2,0.7,0.4,1l3.8,6.5l-1.9,1.1l-3.6-6.3c-1-1.7-2.4-2.4-3.9-1.6c-1.1,0.7-1.6,2-1.2,3.3
	c0.1,0.4,0.2,0.7,0.4,1l3.7,6.3l-1.9,1.1L507.4,719.2z"/>
</svg>
