<svg id="Layer_1" data-name="Layer 1" xmlns="http://www.w3.org/2000/svg" xmlns:xlink="http://www.w3.org/1999/xlink" viewBox="0 0 735 852"><defs><style>.cls-1{fill:none;}.cls-2{fill:#77aab6;}.cls-3{clip-path:url(#clip-path);}.cls-4{fill:url(#New_Gradient_Swatch_1);}.cls-5{opacity:0.25;fill:url(#linear-gradient);}.cls-6,.cls-8{fill:#fff;}.cls-7{fill:#e6b35a;}.cls-8{font-size:25px;font-family:MyriadPro-Regular, Myriad Pro;}.cls-9{letter-spacing:0.01em;}.cls-10{letter-spacing:-0.04em;}.cls-11{letter-spacing:-0.02em;}.cls-12{letter-spacing:-0.01em;}.cls-13{letter-spacing:0em;}.cls-14{clip-path:url(#clip-path-2);}.cls-15{fill:url(#radial-gradient);}</style><clipPath id="clip-path"><polygon class="cls-1" points="369.51 8.14 728.21 215.21 728.21 637.37 369.51 845.77 2.79 637.37 2.79 215.21 369.51 8.14"/></clipPath><radialGradient id="New_Gradient_Swatch_1" cx="378.44" cy="632.3" r="442.13" gradientUnits="userSpaceOnUse"><stop offset="0" stop-color="#77e8f9"/><stop offset="0.7" stop-color="#2972cb"/><stop offset="1" stop-color="#073fb7"/></radialGradient><linearGradient id="linear-gradient" x1="366.25" y1="-121.65" x2="367.55" y2="341.88" gradientUnits="userSpaceOnUse"><stop offset="0" stop-color="#fff" stop-opacity="0.83"/><stop offset="0.56" stop-color="#fff" stop-opacity="0.37"/><stop offset="1" stop-color="#fff" stop-opacity="0"/></linearGradient><clipPath id="clip-path-2"><polygon class="cls-2" points="1391.5 7.4 1750.2 214.47 1750.2 636.62 1391.5 845.03 1024.79 636.62 1024.79 214.47 1391.5 7.4"/></clipPath><radialGradient id="radial-gradient" cx="568.47" cy="-403.55" r="442.13" gradientUnits="userSpaceOnUse"><stop offset="0" stop-color="#fff"/><stop offset="0.1" stop-color="#faf9f1"/><stop offset="0.43" stop-color="#ebe5c5"/><stop offset="0.59" stop-color="#e5deb4"/></radialGradient></defs><title> </title><g class="cls-3"><circle class="cls-4" cx="365.5" cy="438.2" r="442.13"/><ellipse class="cls-5" cx="366.89" cy="106.55" rx="315.24" ry="234.63"/></g><path class="cls-6" d="M705.61,197,427.81,36.57,367.5,1.75,307.19,36.57,29.37,197,.09,213.87V638.13L29.37,655l281.28,162.4,56.85,32.82,56.85-32.82L705.61,655l29.3-16.92V213.87Zm0,425.26L367.49,817.43,29.37,622.21V231.78L367.49,36.57h0L705.61,231.78Z"/><path class="cls-7" d="M182.39,633.9c.29-.29.6-.59.93-.89h-.26Z"/><path class="cls-6" d="M299.32,459.77A42,42,0,0,0,321.39,466c12.67,0,20.08-6.69,20.08-16.38,0-8.83-5.13-14.1-18.08-18.94-15.66-5.7-25.35-14-25.35-27.34,0-15,12.39-26.06,31-26.06,9.68,0,16.94,2.28,21.07,4.7l-3.42,10.11a35.51,35.51,0,0,0-18.08-4.56c-13.1,0-18.08,7.83-18.08,14.38,0,9,5.84,13.39,19.08,18.51,16.23,6.27,24.35,14.1,24.35,28.19,0,14.81-10.82,27.77-33.46,27.77-9.26,0-19.37-2.85-24.49-6.27Z"/><path class="cls-6" d="M385.33,389.42v16.52h17.94v9.54H385.33v37.17c0,8.54,2.42,13.39,9.4,13.39a23.38,23.38,0,0,0,7.26-.86l.57,9.54a34.17,34.17,0,0,1-11.11,1.71c-5.84,0-10.54-2-13.53-5.27-3.42-3.84-4.84-10-4.84-18.08V415.48H362.4v-9.54h10.68V393.12Z"/><path class="cls-6" d="M475,455.92c0,7.26.14,13.53.57,18.94H464.5l-.71-11.25h-.29a25.74,25.74,0,0,1-22.78,12.82c-10.82,0-23.78-6.12-23.78-30.19v-40.3h12.53v38c0,13.1,4.13,22.07,15.38,22.07,8.4,0,14.24-5.84,16.52-11.53a17.18,17.18,0,0,0,1.14-6.41V405.94H475Z"/><path class="cls-6" d="M555.2,373.76v83.3c0,6.12.28,13.1.57,17.8H544.66l-.57-12h-.43c-3.7,7.69-12,13.53-23.21,13.53-16.66,0-29.62-14.1-29.62-35-.14-22.93,14.24-36.88,30.9-36.88,10.68,0,17.66,5,20.79,10.39h.28V373.76ZM542.81,434a22.12,22.12,0,0,0-.57-5.27,18.45,18.45,0,0,0-18.09-14.38c-13,0-20.65,11.39-20.65,26.49,0,14,7,25.49,20.36,25.49,8.4,0,16.09-5.7,18.37-15a21.77,21.77,0,0,0,.57-5.41Z"/><path class="cls-6" d="M590.09,386.57c0,4.27-3,7.69-8,7.69a7.37,7.37,0,0,1-7.55-7.69,7.63,7.63,0,0,1,7.83-7.83A7.52,7.52,0,0,1,590.09,386.57Zm-14,88.29V405.94h12.53v68.92Z"/><path class="cls-6" d="M671.82,439.83c0,25.49-17.8,36.6-34.32,36.6-18.51,0-33-13.67-33-35.46,0-22.93,15.24-36.45,34.18-36.45C658.44,404.52,671.82,418.9,671.82,439.83Zm-54.54.71c0,15.09,8.54,26.49,20.79,26.49,12,0,20.93-11.25,20.93-26.77,0-11.68-5.84-26.34-20.65-26.34S617.28,427.58,617.28,440.54Z"/><path class="cls-6" d="M169.47,320.94A107.08,107.08,0,1,0,276.55,428,107.08,107.08,0,0,0,169.47,320.94ZM217.7,471.21H200l-29.36-44H155v35h15.32v9H131.73v-9H145V384.59L131.73,383v-8.55a63.38,63.38,0,0,0,14.84,1.93c8.23,0,16.61-1.93,24.84-1.94,16,0,30.81,7.26,30.81,25,0,13.71-8.23,22.42-21,26.13l24.84,36.62H217.7Z"/><path class="cls-6" d="M191.73,400.56c0-12.26-8.87-17.1-20.16-17.1A151.36,151.36,0,0,0,155,384.59v33.87l8.39.16C183.83,419,191.73,411,191.73,400.56Z"/><path class="cls-6" d="M664.84,379.08a7.76,7.76,0,1,0,7.76,7.76A7.77,7.77,0,0,0,664.84,379.08Zm6.48,7.76a6.48,6.48,0,1,1-6.48-6.48A6.49,6.49,0,0,1,671.33,386.84Z"/><path class="cls-6" d="M667.6,390l-1.92-2.83a2.34,2.34,0,0,0,1.67-2.31c0-1.69-1.44-2.29-2.79-2.29a9.21,9.21,0,0,0-1.08.08,9.37,9.37,0,0,1-1,.08,5.32,5.32,0,0,1-1.22-.16l-.22,0v1.1l1.12.14V390H661v1.12h3.62V390h-1.3v-2.61h1.06l2.43,3.66.06.08h1.78V390Zm-1.49-5a1.13,1.13,0,0,1-.46,1,2.81,2.81,0,0,1-1.67.4h-.64v-2.54c.46,0,.85-.08,1.23-.08C665.28,383.71,666.11,383.93,666.11,385Z"/><text class="cls-8" transform="matrix(0.86, -0.5, 0.5, 0.86, 369.28, 809.85)"><tspan class="cls-9">ww</tspan><tspan class="cls-10" x="37.4" y="0">w</tspan><tspan x="54.82" y="0">.rstudi</tspan><tspan class="cls-11" x="120.07" y="0">o</tspan><tspan x="133.2" y="0">.</tspan><tspan class="cls-12" x="138.37" y="0">c</tspan><tspan class="cls-13" x="149.42" y="0">om</tspan></text><polygon class="cls-2" points="1391.5 7.4 1750.2 214.47 1750.2 636.62 1391.5 845.03 1024.79 636.62 1024.79 214.47 1391.5 7.4"/><g class="cls-14"><circle class="cls-15" cx="568.47" cy="-403.55" r="442.13"/></g></svg>