<?xml version="1.0" encoding="utf-8"?>
<!-- Generator: Adobe Illustrator 26.5.0, SVG Export Plug-In . SVG Version: 6.00 Build 0)  -->
<svg version="1.1" id="Layer_1" xmlns="http://www.w3.org/2000/svg" xmlns:xlink="http://www.w3.org/1999/xlink" x="0px" y="0px"
	 viewBox="0 0 2521 2911" style="enable-background:new 0 0 2521 2911;" xml:space="preserve">
<style type="text/css">
	.st0{fill:#CC6699;}
	.st1{fill:#DADBDF;}
	.st2{fill:none;}
	.st3{fill:#FFFFFF;}
</style>
<g>
	<polygon class="st0" points="1267.4,22 2498,732.4 2498,2180.6 1267.4,2895.6 9.3,2180.6 9.3,732.4 	"/>
	<path id="Layer" class="st1" d="M2521,727.8v1455.5l-100.5,58l-965,557.1l-195,112.6l-195-112.6l-965-557.1L0,2183.2V727.8
		l100.5-58l953.1-550.3L1260.5,0l206.9,119.5l953.1,550.3L2521,727.8z M2420.5,789.1l-1160-669.6l-1160,669.6v1339.6l1160,669.7
		l1160-669.7V789.1z"/>
	<path id="Layer-3" class="st2" d="M1030.2,1722.5v0.5h0.2L1030.2,1722.5z"/>
	<g id="sass_name">
		<path class="st3" d="M2035.8,1530.3c-61.9,0.1-122.9,14.3-178.4,41.5c-18.4-36.5-36.9-68.4-39.9-92.2c-3.4-27.7-7.7-44.6-3.4-77.6
			c4.3-33,23.4-79.9,23.4-83.8s-4.2-20.4-43.8-20.8c-39.6-0.4-73.8,7.7-77.6,18c-6.9,19.2-12.4,38.8-16.5,58.8
			c-6.9,36.1-79.1,164.1-120.2,231.3c-13.4-26.1-25-49.2-27.4-67.6c-3.4-27.7-7.7-44.6-3.4-77.6c4.3-33,23.4-79.9,23.4-83.8
			c0-3.8-4.2-20.3-43.8-20.6c-39.6-0.2-73.8,7.7-77.6,18.1c-3.8,10.4-8.1,35-16.5,58.8s-104.1,237.5-129.1,293.2
			c-12.7,28.4-23.8,51.1-31.9,66.5c-8.1,15.4-0.4,1.1-1.1,2.7c-6.9,13.1-10.8,20.4-10.8,20.4v0.4c-5.4,9.6-11.1,18.8-13.7,18.8
			c-1.9,0-5.8-25.8,0.8-61.1c14.2-74.2,48.8-189.8,48.4-194c0-1.9,6.6-22.3-22.3-32.7c-28.1-10.3-38,6.9-40.3,6.9
			c-2.3,0-4.3,6.1-4.3,6.1s31.2-130.4-59.6-130.4c-56.8,0-135.2,61.8-174,118.4c-24.6,13.4-76.8,41.9-132.2,72
			c-21.1,11.5-43,24-63.8,35l-4.2-4.6c-109.8-117.2-313.2-200.2-304.7-357.7c3.1-57.3,23.1-208.3,390.4-391.1
			c300.8-149.9,541.8-108.8,583.6-17.2c59.6,130.6-128.7,373.5-441.5,408.5c-119.1,13.4-181.8-32.7-197.5-50
			c-16.5-18.1-18.8-18.8-25-15.4c-10,5.4-3.8,21.5,0,31.1c9.2,24.2,47.7,67.2,113,88.8c57.2,18.8,197.1,29.2,366.2-36.1
			c189.4-73.4,337.4-277,293.9-447.3C1530,690.8,1242.6,634,970.9,730.3c-161.8,57.6-337,147.5-463.1,265.5
			c-149.9,139.9-173.7,262-163.7,312.8c35,181,284.3,298.9,384.2,386.2c-5,2.7-9.6,5.4-13.7,7.7c-50,24.6-240.2,124.1-287.8,229.4
			c-53.8,119.1,8.4,204.8,50,216.3c128.3,35.7,259.7-28.4,330.8-134.1c71.1-105.7,62.2-242.8,29.6-305.3l-1.1-2.3l39.2-23.1
			c25.4-15,50.3-28.8,72.3-40.8c-12.3,33.4-21.1,73-25.8,130.6c-5.4,67.7,22.3,155.2,58.8,189.8c16.1,15,35.3,15.4,47.3,15.4
			c42.3,0,61.5-35,82.6-76.8c26.1-51.1,49.2-110.3,49.2-110.3s-28.8,160.2,50,160.2c28.8,0,57.6-37.3,70.7-56.5v0.4
			c0,0,0.8-1.2,2.3-3.8c1.5-2.7,3.2-4.8,4.6-7.3v-0.8c11.5-20,37.3-65.7,75.7-141.4c49.6-97.6,97.2-219.8,97.2-219.8
			c4.7,26.7,11,53.2,18.8,79.1c8.5,29.2,26.9,61.1,41.2,92.2c-11.5,16.2-18.5,25.4-18.5,25.4l0.4,0.4c-9.2,12.3-19.6,25.4-30.3,38.4
			c-39.1,46.7-85.9,100.3-92.1,115.6c-7.3,18-5.8,31.5,8.4,42.3c10.3,7.7,28.8,9.2,48.4,7.7c24.9-1.3,49.3-6.9,72.3-16.5
			c22.2-7.9,43.3-18.9,62.4-32.7c38.4-28.4,61.8-68.6,59.6-122.5c-1.1-29.6-10.7-58.8-22.7-86.5c3.4-5,6.9-10,10.3-15.4
			c60.7-88.8,107.6-186.4,107.6-186.4c4.7,26.7,11,53.2,18.8,79.1c7.3,25,21.9,52.2,35,79.1c-56.9,46.5-92.6,100.3-104.9,135.7
			c-22.7,65.2-5,94.9,28.4,101.8c15,3.1,36.5-3.8,52.6-10.8c23.8-7.9,46.3-19.4,66.5-34.3c38.4-28.4,75.3-68,73.4-121.4
			c-1.6-24.7-7.2-48.9-16.5-71.8c48.4-20,111-31.5,190.6-21.9c171,20,204.8,126.9,198.3,171.5s-42.3,69.2-54.2,76.8
			c-11.9,7.7-15.7,10-14.6,15.4c1.5,8.1,6.9,7.7,17.2,6.1c14.2-2.3,89.9-36.5,93-118.7C2313.9,1644.5,2213.6,1529.2,2035.8,1530.3
			L2035.8,1530.3z M717.1,1974.9c-56.5,61.8-136,85.3-169.9,65.2c-36.5-21.1-22.3-112.2,47.3-177.9c42.3-40,97.2-76.8,133.3-99.5
			c8.1-5,20.4-12.3,35-21.1c2.3-1.5,3.8-2.3,3.8-2.3c2.7-1.5,5.8-3.4,8.8-5.4c25.8,93.8,1.2,176-58.3,240.9L717.1,1974.9z
			 M1130.1,1694c-19.6,48-61.1,171.5-86.1,164.5c-21.5-5.8-34.6-99.1-4.2-191.4c15.4-46.5,48-101.8,67.2-123.3
			c31.1-34.6,64.9-46.1,73.4-31.9C1190.4,1530.3,1142.4,1664.1,1130.1,1694L1130.1,1694z M1470.9,1856.9c-8.4,4.3-16.1,7.3-19.6,5
			c-2.7-1.5,3.4-7.3,3.4-7.3s42.6-45.7,59.6-66.9c9.6-12.3,21.1-26.5,33.4-42.6v4.5c0,55.3-53,92.2-76.8,107.2L1470.9,1856.9z
			 M1733.8,1797c-6.1-4.6-5.4-18.8,15.4-63.4c14.2-28.8,34-54.4,58.3-75.3c3.9,10.6,5.8,21.8,5.8,33
			C1812.9,1760.5,1763.7,1786.2,1733.8,1797z"/>
	</g>
</g>
</svg>
