<?xml version="1.0" encoding="utf-8"?>
<!-- Generator: Adobe Illustrator 26.5.0, SVG Export Plug-In . SVG Version: 6.00 Build 0)  -->
<svg version="1.1" id="Layer_1" xmlns="http://www.w3.org/2000/svg" xmlns:xlink="http://www.w3.org/1999/xlink" x="0px" y="0px"
	 viewBox="0 0 2521 2911" style="enable-background:new 0 0 2521 2911;" xml:space="preserve">
<style type="text/css">
	.st0{fill:#F2F2F2;}
	.st1{fill:#FFFFFF;}
	.st2{fill:#424242;}
	.st3{fill:#E6B35A;}
	.st4{opacity:0.9681;enable-background:new    ;}
	.st5{fill:#002452;}
	.st6{fill:#000643;}
	.st7{fill:#164F86;}
	.st8{fill:#0365C0;}
	.st9{fill:none;}
</style>
<g id="Layer_2_00000065765626288937311910000016085718238008824989_">
</g>
<g>
	<polygon class="st0" points="1267,22 8.9,732.5 8.9,2180.6 1267,2895.6 2497.3,2180.6 2497.3,732.5 	"/>
	<g>
		<g>
			<rect x="2310.4" y="675.5" class="st1" width="12" height="1613.5"/>
		</g>
		<g>
			<rect x="1785.3" y="367.4" class="st1" width="12" height="1921.6"/>
		</g>
		<g>
			<rect x="1253.6" y="41.9" class="st1" width="12" height="2257.8"/>
		</g>
		<g>
			<rect x="720.6" y="377.7" class="st1" width="12" height="1913.3"/>
		</g>
		<g>
			<rect x="192.1" y="682" class="st1" width="12" height="1607"/>
		</g>
		<g>
			<path class="st1" d="M1244.4,706.1c-356.4,0-712.7-0.3-1066.4-1v-12c706.9,1.7,1424.8,1.7,2133.8,0v12
				C1957.5,705.7,1600.7,706.1,1244.4,706.1z"/>
		</g>
		<g>
			<path class="st1" d="M2427.4,1229.9c-787.9-0.3-1585.3-0.3-2370.1,0v-12c784.8-0.3,1582.2-0.3,2370.1,0V1229.9z"/>
		</g>
		<g>
			<path class="st1" d="M1245.8,1763.1c-397.9,0-796.1-0.3-1190.9-1v-12c790.3,1.4,1591.8,1.4,2382.4,0v12
				C2041.8,1762.7,1644,1763.1,1245.8,1763.1z"/>
		</g>
		<g>
			<rect x="197.9" y="2282.8" class="st1" width="2051.8" height="12"/>
		</g>
	</g>
	<path class="st2" d="M2419.8,669.7L1467,119.4L1260.2,0l-206.8,119.4L100.5,669.7L0,727.7v1455.7l100.5,58l964.8,557.2l195.2,112.5
		l195.2-112.5l964.8-557.2l100.5-58V727.7L2419.8,669.7z M2339.6,2175.1l-12,6.9l-220.9,127.6l-20.9,12l-279.9,161.6l-12,6.9
		l-528.2,305l-5.8,3.4l-6.2-3.8L724.1,2489l-12-6.9l-278.2-160.6l-20.9-12l-226-130.7l-12-6.9l-74.8-43.2v-348.9v-12V1621v-255.6
		v-125.9v-12V789.1l74.8-43.2l12-6.9l57.3-32.9l20.6-12l447.6-258.3l12-6.9L1254,123.2l6.2-3.8l0,0l5.8,3.4l528.2,305l12,6.9
		l368.4,212.7L2403,779.1l17.1,9.9v438.1v12v528.3v12v348.9L2339.6,2175.1z"/>
	<path class="st3" d="M1258.4,2171.3c1-1,2.1-2.1,3.1-3.1h-1C1259.8,2169.3,1259.1,2170.3,1258.4,2171.3z"/>
	<g>
		<path class="st2" d="M668.2,943.1c14.4,9.9,39.4,20.2,63.8,20.2c35,0,51.4-18.5,51.4-41.9c0-24.4-13.7-37.7-49.4-51.8
			c-47.7-18.2-70.3-46-70.3-79.6c0-45.3,34.6-82.7,91.6-82.7c26.8,0,50.4,8.2,65.2,17.5l-12,37.4c-10.3-6.9-29.5-16.1-54.2-16.1
			c-28.5,0-44.6,17.5-44.6,38.4c0,23.3,15.8,33.6,50.4,47.7c46,18.5,69.6,43.2,69.6,85.1c0,49.4-36.4,84.4-99.5,84.4
			c-29.2,0-55.9-7.5-74.8-19.2L668.2,943.1z"/>
		<path class="st2" d="M1063.6,985.3c-12.7,6.9-40.5,16.1-76.1,16.1c-80.3,0-132.4-57.6-132.4-143.7c0-86.8,55.9-149.6,142.7-149.6
			c28.5,0,53.8,7.5,66.9,14.4l-11,39.5c-11.7-6.9-29.5-13.4-55.9-13.4c-61.1,0-94,47.7-94,106.4c0,65.2,39.4,105.3,92.3,105.3
			c27.4,0,45.6-7.5,59.3-14.1L1063.6,985.3z"/>
		<path class="st2" d="M1249.9,995.6l-3.8-35.3h-1.7c-14.7,22-43.2,41.9-81.3,41.9c-53.8,0-81.3-40.1-81.3-81
			c0-67.9,56.9-105.3,159.8-104.6v-5.8c0-23.3-6.2-65.2-60.4-65.2c-24.7,0-50.4,8.2-69.3,20.9l-11-33.6c22-15.1,53.8-25,87.1-25
			c81.3,0,100.8,58.7,100.8,115.3v105.3c0,24.4,1,48.4,4.5,67.6h-43.6V995.6z M1242.7,851.9c-52.8-1-112.5,8.6-112.5,63.5
			c0,33.3,20.9,48.7,45.6,48.7c34.6,0,56.6-23.3,64.1-47c1.7-5.1,2.7-11,2.7-16.1V851.9z"/>
		<path class="st2" d="M1349.7,582.5h48.4v413.1h-48.4V582.5z"/>
		<path class="st2" d="M1488.6,864.2c1,69.3,42.9,97.8,91.2,97.8c34.6,0,55.6-6.5,73.4-14.4l8.2,36.7c-17.1,8.2-46,17.5-88.5,17.5
			c-81.6,0-130.7-57-130.7-142s47.3-152,124.5-152c86.8,0,109.8,81,109.8,132.8c0,10.6-1,18.5-1.7,24h-186.2V864.2z M1630.2,827.5
			c0.7-32.6-12.7-83.4-66.9-83.4c-48.7,0-70.3,47.7-74.1,83.4H1630.2z"/>
		<path class="st2" d="M1712.6,943.1c14.4,9.9,39.4,20.2,63.8,20.2c35,0,51.4-18.5,51.4-41.9c0-24.4-13.7-37.7-49.4-51.8
			c-47.7-18.2-70.3-46-70.3-79.6c0-45.3,34.6-82.7,91.6-82.7c26.8,0,50.4,8.2,65.2,17.5l-12,37.4c-10.3-6.9-29.5-16.1-54.2-16.1
			c-28.5,0-44.6,17.5-44.6,38.4c0,23.3,15.8,33.6,50.4,47.7c46,18.5,69.6,43.2,69.6,85.1c0,49.4-36.4,84.4-99.5,84.4
			c-29.2,0-55.9-7.5-74.8-19.2L1712.6,943.1z"/>
	</g>
	<g>
		<path class="st4" d="M996.7,2513.7c0,18.5,116.3,56.6,259.3,56.6c143.4,0,259.3-38.1,259.3-56.6c0-18.5-115.9-53.5-259.3-53.5
			C1113,2460.2,996.7,2495.2,996.7,2513.7z"/>
	</g>
	<g>
		<path class="st5" d="M937.7,2452c-0.3-3.1-0.3-5.1-0.3-6.5c0-1.4,0-2.4,0-2.4s0,0.7,0.3,2.4c0.3,1.4,0.3,3.8,1.4,6.5
			c1.4,5.5,4.8,13,11.3,20.6c3.1,3.4,6.5,7.2,11,10.6c-5.5-5.5-9.9-11.3-13.4-16.8c-5.8-9.3-7.9-18.2-8.6-24
			c-0.3-3.1-0.3-5.1-0.3-6.5s0-2.4,0-2.4s0,0.7,0.3,2.4c0.3,1.4,0.3,3.8,1.4,6.5c1.4,5.5,4.8,13,11.3,20.6
			c6.5,7.5,15.8,15.1,27.4,22.3c2.7,1.7,6.2,3.4,9.3,5.1c3.4,1.4,6.5,3.1,9.9,4.8c6.9,3.1,13.7,7.2,21.6,10.3
			c30.5,13.4,68.6,23.7,109.8,30.5s85.7,10.3,130.3,10.3c17.1,0,34.3-0.7,51.4-1.7l-37-233.6h-15.8h-16.8h-34.6h-35h-33.6h-28.5
			L960,2390.9c-19.9,17.2-26.8,32.9-26.8,50.8c0,16.1,7.5,31.6,21.6,45.6c-3.4-4.1-6.2-7.9-8.6-11.7
			C940.5,2466.7,938.4,2457.8,937.7,2452z"/>
		<path class="st5" d="M1584.3,2441.7c0-18.2-7.9-33.6-26.8-50.8l-150.2-80.6h-27.4h-35.7l115.6,208.9c14.4-4.5,28.1-9.3,40.5-14.4
			c7.9-3.1,14.7-7.2,21.6-10.3c3.4-1.4,6.9-3.1,9.9-4.8c3.1-1.7,6.2-3.4,9.3-5.1c11.7-6.9,20.9-14.8,27.4-22.3
			c6.5-7.5,9.9-15.1,11.3-20.6c1-2.7,1-4.8,1.4-6.5c0.3-1.4,0.3-2.4,0.3-2.4s0,0.7,0,2.4c0,1.4,0.3,3.8-0.3,6.5
			c-0.3,2.1-0.7,4.8-1.4,7.9c0,0.7,0,1.4-0.3,2.1c-0.7,5.8-2.7,14.8-8.6,23.7c-3.8,5.8-8.6,12-14.7,18.2
			C1574.3,2478,1584.3,2460.2,1584.3,2441.7z"/>
		<path class="st1" d="M1326.7,2542.9c22-1.7,43.2-4.5,63.8-7.9c24.7-4.1,48-9.6,69.3-15.8l-115.6-208.9h-35h-34.6l37,233.6
			C1316.8,2543.6,1321.9,2543.2,1326.7,2542.9z"/>
		<path class="st6" d="M1570.9,2475.6c5.8-9.3,8.2-18.2,8.6-23.7c0-0.7,0.3-1.4,0.3-2.1c0.7-2.7,1.4-5.5,1.4-7.9
			c0.3-2.7,0.3-5.1,0.3-6.5s0-2.4,0-2.4s0,0.7-0.3,2.4c-0.3,1.4-0.3,3.8-1.4,6.5c-1.4,5.5-4.8,13-11.3,20.6
			c-6.5,7.5-15.8,15.4-27.4,22.3c-2.7,1.7-6.2,3.4-9.3,5.1c-3.4,1.4-6.5,3.1-9.9,4.8c-6.9,3.1-13.7,7.2-21.6,10.3
			c-12.3,5.5-26.1,10.3-40.5,14.4c-21.3,6.5-44.9,11.7-69.3,15.8c-20.6,3.4-42.2,6.2-63.8,7.9c-5.1,0.3-9.9,0.7-15.1,1
			c-17.1,1-34,1.7-51.4,1.7c-44.6,0-89.2-3.4-130.3-10.3s-79.2-17.2-109.8-30.5c-7.9-3.1-14.7-7.2-21.6-10.3
			c-3.4-1.4-6.9-3.1-9.9-4.8c-3.1-1.7-6.2-3.4-9.3-5.1c-11.7-6.9-20.9-14.4-27.4-22.3c-6.5-7.5-9.9-15.1-11.3-20.6
			c-1-2.7-1-4.8-1.4-6.5c-0.3-1.4-0.3-2.4-0.3-2.4s0,0.7,0,2.4c0,1.4-0.3,3.8,0.3,6.5c0.7,5.8,2.7,14.8,8.6,24
			c3.4,5.5,7.9,11.3,13.4,16.8c-4.1-3.4-7.9-6.9-11-10.6c-6.5-7.5-9.9-15.1-11.3-20.6c-1-2.7-1-4.8-1.4-6.5
			c-0.3-1.4-0.3-2.4-0.3-2.4s0,0.7,0,2.4c0,1.4-0.3,3.8,0.3,6.5c0.7,5.8,2.7,14.8,8.6,24c2.4,3.8,5.1,7.9,8.6,11.7
			c4.8,5.5,10.6,11.3,17.1,16.5c2.7,2.4,5.8,4.5,8.9,6.9c3.1,2.1,6.5,4.5,9.9,6.5c3.4,2.1,7.2,4.1,11,5.8s7.5,3.4,11.7,5.1
			c31.9,13.7,70.7,24.4,112.5,31.2c41.8,7.2,87.1,10.6,132.4,10.6c22.3,0,45.3-1,67.2-2.7c22.3-1.7,43.9-4.5,64.8-7.9
			c41.8-6.9,80.6-17.5,112.5-31.2c4.1-1.7,7.9-3.4,11.7-5.1s7.5-3.8,11-5.8c3.4-2.1,6.5-4.5,9.9-6.5c3.1-2.4,6.2-4.5,8.9-6.9
			c4.1-3.4,7.9-6.9,11.3-10.3C1562.3,2488,1567.1,2481.8,1570.9,2475.6z"/>
	</g>
	<g>
		<path class="st1" d="M1202.2,2323l-2.7-15.1c-11.7-1-23-2.7-33.6-4.5l4.8,15.1l0,0c2.1,7.2,6.2,15.1,11.7,23
			c8.2,1.4,16.8,2.4,25.7,3.4C1205.3,2337.4,1203.2,2329.8,1202.2,2323L1202.2,2323z"/>
		<path class="st7" d="M1170.6,2318.9l-4.8-15.1c-13-2.1-25-4.8-35.7-7.5c-22.3-5.8-39.1-13.4-47.3-21.6l24.7,35.7l0,0
			c6.9,10.6,25,19.9,51.4,26.4c7.2,1.7,15.1,3.4,23.3,4.8C1176.8,2333.9,1172.7,2326.1,1170.6,2318.9L1170.6,2318.9z"/>
	</g>
	<g>
		<path class="st1" d="M1293.8,2210.8l36.7,95.7c17.5-2.1,34-4.8,48-7.9l-60.7-87.8L1293.8,2210.8L1293.8,2210.8z"/>
		<g>
			<path class="st7" d="M1442.6,2261.2c0-6.9-4.5-13-15.1-19.6l-66.2-30.9h-19.2h-24.4l60.7,87.8c-8.2,2.1-17.1,3.8-26.8,5.1
				c-10.6,1.7-22,3.1-33.6,4.5c-10.6,1-21.6,1.7-32.9,2.4c-8.9,0.3-17.5,0.7-26.8,0.7c-8.9,0-17.8-0.3-26.8-0.7
				c-11.3-0.3-22.3-1.4-32.9-2.4l2.7,15.1l0,0c1,6.5,3.1,14.1,5.8,22c8.9,1,18.2,1.4,27.4,2.1c7.5,0.3,15.4,0.3,23.3,0.3
				s15.8-0.3,23.3-0.3c9.6-0.3,18.9-1,27.4-2.1c8.9-1,17.5-2.1,25.7-3.4s16.1-3.1,23.3-4.8c26.4-6.9,44.9-16.1,52.1-27.1l23-33.3
				C1439.5,2271.5,1442.6,2266.7,1442.6,2261.2z"/>
			<path class="st7" d="M1259.1,2310.3c11,0,21.6-0.3,31.9-0.7c13.7-0.7,27.1-1.7,39.4-3.1l-36.7-95.7h-23.7h-11h-11.7h-23.7h-24.4
				h-23.3h-19.6l-66.2,30.9c-11.3,6.5-15.1,12.7-15.1,19.6c0,7.9,6.9,15.4,19.6,22c10.6,5.5,25,10.6,42.5,14.8
				c14.4,3.4,31.2,6.2,49.4,8.2c12.7,1.4,26.1,2.4,40.1,3.1C1237.5,2310.3,1248.2,2310.3,1259.1,2310.3z"/>
		</g>
	</g>
	<path class="st5" d="M1361.7,2212.2c0,11.3-46,20.9-102.6,20.9s-102.6-9.3-102.6-20.9c0-11.3,46-20.9,102.6-20.9
		C1315.7,2191.6,1361.7,2200.8,1361.7,2212.2z"/>
	<path class="st6" d="M1076,2262.6c0,0,0,0.3,0.3,1c0,0.7,0.3,1.7,1,3.1c1.4,2.4,4.1,5.5,8.6,8.2c4.5,2.7,10.3,5.5,17.1,7.5
		c3.4,1,7.2,2.1,11.3,3.1c4.1,1,7.9,2.4,12.3,3.8c17.5,4.5,38.8,8.2,61.4,10.6c22.6,2.4,47.3,3.4,71.7,3.4c12.3,0,24.4-0.3,36.4-1
		c12-0.7,23.7-1.4,35-2.7c22.6-2.4,43.9-5.8,61.4-10.6c4.5-1,8.6-2.7,12.3-3.4c4.1-1,7.9-2.1,11.3-3.1c6.9-2.4,12.7-4.8,17.1-7.5
		s7.2-5.8,8.6-8.6c0.7-1.4,1-2.4,1-3.1c0-0.7,0.3-1,0.3-1s0,0.3,0,1c0,0.7,0,1.7-0.3,3.4c-0.7,2.7-3.1,6.9-7.5,10.3
		c-4.1,3.8-9.9,7.2-16.8,10.6c-3.4,1.7-7.2,3.4-11,5.1c-4.1,1.7-8.2,2.4-13,3.8c-18.2,4.8-39.4,8.2-62.4,10.6
		c-11.7,1.4-23.3,2.1-35.7,2.7c-12,0.7-24.7,1-36.7,1c-24.7,0-49.4-1-72.4-3.8c-23-2.4-44.6-6.2-62.4-10.6c-4.5-1.4-8.9-2.1-13-3.8
		c-4.1-1.7-7.5-3.4-11-5.1c-6.9-3.4-12.7-7.2-16.8-10.6c-4.1-3.8-6.5-7.5-7.2-10.6c-0.3-1.4-0.7-2.4-0.3-3.4
		C1076,2262.9,1076,2262.6,1076,2262.6z"/>
	<path class="st6" d="M1104.8,2306.5c0,0,0.7,1,2.4,2.7s4.1,4.1,7.5,6.9s8.2,5.5,13.7,7.9c2.7,1.4,5.8,2.4,8.9,3.4
		c3.4,1,6.5,2.7,9.9,3.8c14.4,4.8,31.9,7.5,50.8,9.3c18.9,1.7,39.4,2.4,59.7,2.4c20.6,0,40.8-0.7,59.7-2.7s36.4-5.1,50.8-9.6
		c1.7-0.7,3.4-1,5.1-1.7s3.4-1.4,4.8-1.7c3.4-1,6.2-2.1,9.3-3.1c5.8-2.1,10.3-4.8,14.1-7.2c3.8-2.4,6.2-4.8,7.9-6.5
		c1.7-1.7,2.4-2.7,2.4-2.7s-0.7,1-1.7,3.1c-1.4,2.1-3.4,5.1-6.9,8.2c-3.4,3.1-7.5,6.9-13.4,10.3c-2.7,1.7-5.8,3.4-8.9,5.1
		c-3.4,1.7-6.9,2.4-10.6,3.8c-15.1,4.8-32.9,7.9-52.1,9.9c-19.2,2.1-40.1,2.7-60.7,2.7c-20.6,0-41.2-0.7-60.4-2.4
		s-37.4-4.8-52.5-9.6c-3.8-1.4-7.5-2.4-10.6-4.1s-6.2-3.4-8.9-5.1c-5.5-3.4-9.6-7.5-12.7-10.6c-3.1-3.4-5.1-6.5-6.2-8.6
		C1105.1,2307.5,1104.8,2306.5,1104.8,2306.5z"/>
	<g>
		<path class="st7" d="M1325.7,2191.2l-39.4-71.4h-5.1h-6.5l31.6,98.5c6.9-2.1,12.7-4.1,17.1-6.9c5.1-3.1,8.2-6.9,8.2-11
			C1331.8,2197.4,1330.1,2194.7,1325.7,2191.2z"/>
		<path class="st1" d="M1268.4,2119.9l18.9,102.2c6.9-1,13.4-2.4,18.9-3.8l-31.6-98.5H1268.4z"/>
		<path class="st7" d="M1262.2,2119.9h-2.7h-3.1h-6.2h-6.5h-6.2h-5.1l-39.4,71.4c-4.5,3.1-5.8,5.8-5.8,9.3c0,3.8,2.7,7.2,7.5,10.6
			c4.1,2.7,9.9,5.1,16.8,7.2c5.8,1.7,12.3,3.1,19.6,4.1c5.1,0.7,10.3,1.4,15.8,1.4c4.1,0.3,8.6,0.3,12.7,0.3c4.5,0,8.6,0,12.7-0.3
			c5.5-0.3,10.6-0.7,15.8-1.4l-18.9-102.2h-6.9V2119.9z"/>
	</g>
	<path class="st6" d="M1186.4,2200.8c0,0,0,0.3,0,0.7c0,0.3,0.3,1,0.3,1.4c0.3,1,1.7,2.7,3.4,4.1s4.1,2.4,6.9,3.8
		c1.4,0.7,2.7,1,4.5,1.4s3.1,1.4,4.8,1.7c6.9,2.1,15.4,3.8,24.4,5.1c8.9,1,18.5,1.7,28.5,1.7c4.8,0,9.6,0,14.4-0.3
		c4.8-0.3,9.3-0.7,14.1-1.4c8.9-1,17.5-2.7,24.4-5.1c1.7-0.3,3.4-1.4,4.8-1.7c1.7-0.3,3.1-1,4.5-1.4c2.7-1,5.1-2.4,6.9-3.8
		c1.7-1.4,2.7-2.7,3.4-4.1c0.3-0.7,0.3-1,0.3-1.4s0-0.7,0-0.7s0,0.3,0,0.7c0,0.3,0,1-0.3,1.7c-0.3,1.4-1.4,3.4-3.1,5.1
		c-1.7,1.7-3.8,3.4-6.5,5.1c-1.4,0.7-2.7,1.7-4.5,2.4c-1.7,0.7-3.4,1.4-5.1,1.7c-7.2,2.4-15.8,4.1-24.7,5.1c-4.5,0.7-9.3,1-14.1,1.4
		c-4.8,0.3-9.6,0.3-14.4,0.3c-9.9,0-19.6-0.7-28.8-1.7c-9.3-1-17.5-2.7-24.7-5.1c-1.7-0.7-3.4-1-5.1-1.7c-1.7-0.7-3.1-1.7-4.5-2.4
		c-2.7-1.7-5.1-3.4-6.5-5.1c-1.7-1.7-2.7-3.8-3.1-5.1c0-0.7-0.3-1.4-0.3-1.7C1186.4,2201.2,1186.4,2200.8,1186.4,2200.8z"/>
	<path class="st6" d="M1286.6,2120.2c0,3.1-12.3,5.5-27.4,5.5s-27.4-2.4-27.4-5.5c0-3.1,12.3-5.5,27.4-5.5
		S1286.6,2117.1,1286.6,2120.2z"/>
	<path class="st7" d="M1237.2,1308.1v807.9c0,4.1,9.6,7.5,21.3,7.5c11.7,0,21.3-3.4,21.3-7.5v-807.9H1237.2z"/>
	<g>
		<path class="st7" d="M1258.4,1257c-19.6,0-35.7-3.8-35.7-8.9v179.1c0,4.5,15.8,8.2,35.7,8.2c19.6,0,35.7-3.8,35.7-8.2v-179.1
			C1294.1,1252.9,1278.3,1257,1258.4,1257z"/>
		<path class="st8" d="M1258.4,1239.5c-19.6,0-35.7,3.8-35.7,8.9s15.8,8.9,35.7,8.9c19.6,0,35.7-3.8,35.7-8.9
			S1278.3,1239.5,1258.4,1239.5z"/>
	</g>
	<g>
		<path class="st7" d="M1324.6,1187.4c0,36.4-29.5,66.2-66.2,66.2c-36.4,0-66.2-29.5-66.2-66.2c0-36.4,29.5-66.2,66.2-66.2
			C1295.1,1121.2,1324.6,1150.7,1324.6,1187.4z"/>
		<path class="st6" d="M1247.1,1137.6c27.4,0,49.7,22.3,49.7,49.7c0,27.4-22.3,49.7-49.7,49.7s-49.7-22.3-49.7-49.7
			C1197.7,1159.9,1220,1137.6,1247.1,1137.6z"/>
	</g>
	<g>
		<path class="st7" d="M1285.9,1092.7c-9.3-24.7-16.8-45.6-27.4-45.6s-18.2,21.3-27.4,45.6c-8.9,23.7,3.4,49.7,27.4,50.4
			C1282.8,1142.1,1294.8,1116,1285.9,1092.7z"/>
		<path class="st6" d="M1253,1130.8c16.5,0.3,25.7-17.8,22-37.1c-3.8-19.2-11-35-18.9-35c-7.9,0-15.8,15.8-22,34.3
			C1228.3,1111.6,1236.8,1129.7,1253,1130.8z"/>
	</g>
	<g>
		<path class="st7" d="M1278,1367.5c0-10.6-8.6-19.6-19.6-19.6c-10.6,0-19.6,8.6-19.6,19.6c0,10.6,8.6,19.6,19.6,19.6
			C1269.4,1387.1,1278,1378.1,1278,1367.5z"/>
		<path class="st7" d="M1273.2,1367.5c0-8.2-6.5-14.8-14.7-14.8s-14.7,6.5-14.7,14.8c0,8.2,6.5,14.8,14.7,14.8
			S1273.2,1375.4,1273.2,1367.5z"/>
	</g>
	<g>
		<g>
			<path class="st6" d="M686.7,1457.4c-5.5-2.4-7.5-9.6-4.5-16.8l4.8-11.7c3.1-7.2,9.6-11,15.1-8.9c5.5,2.4,7.5,9.6,4.5,16.8
				l-4.8,11.7C698.7,1455.7,692.2,1459.4,686.7,1457.4z M700,1424.8c-2.4-1-6.2,1.4-7.9,5.8l-4.8,11.7c-2.1,4.8-0.7,8.9,1.4,9.9
				c2.4,1,6.2-1.4,7.9-5.8l4.8-11.7C703.5,1429.9,702.5,1425.8,700,1424.8z"/>
		</g>
		<g>
			<path class="st6" d="M667.1,1504.7c-5.5-2.4-7.5-9.6-4.5-16.8l4.8-11.7c3.1-7.2,9.6-11,15.1-8.9c5.5,2.4,7.5,9.6,4.5,16.8
				l-4.8,11.7C679.5,1503,672.6,1507.1,667.1,1504.7z M680.5,1472.1c-2.1-1-6.2,1.4-7.9,5.8l-4.8,11.7c-2.1,4.8-0.7,8.9,1.4,9.9
				c2.1,1,6.2-1.4,7.9-5.8l4.8-11.7C683.9,1477.3,682.9,1473.2,680.5,1472.1z"/>
		</g>
		<g>
			<path class="st6" d="M681.2,1472.5L681.2,1472.5c-0.7,1-1,1.4-1.4,2.1c0-0.7,0.3-1.4,0.3-2.4c0.3-1.4,0.7-2.7,1.4-4.5l0.3-0.7
				l4.1-9.9l0.3-1c0.7-1.4,1.4-2.7,1.7-3.8c0.7-1,1.4-1.7,1.7-2.4c0,0.7-0.3,1.7-0.7,3.1c1.7,0.3,4.1-1,5.8-3.8
				c0-2.7-0.7-4.8-2.7-5.5c-2.1-0.7-4.1,0-5.8,2.1c-1.7,1.7-3.4,4.5-4.8,7.2c-0.3,0.3-0.3,1-0.7,1.4L676,1466
				c-0.3,0.7-0.3,1.4-0.7,1.7c-1,2.7-1.7,5.5-1.7,7.9c0,2.4,0.7,4.5,2.7,5.5c1.4,0.7,3.4,0.7,5.8-1.7
				C683.2,1475.9,682.6,1473.5,681.2,1472.5z"/>
			<path class="st6" d="M693.5,1457c-2.1,0.7-4.1,1-6.2,0.3l-4.1,9.9c1.7,1,3.1,2.4,4.1,4.5c0.3-0.7,0.7-1,0.7-1.7l4.8-11.7
				C693.2,1458.1,693.5,1457.7,693.5,1457z"/>
		</g>
		<g>
			<path class="st6" d="M647.6,1552.1c-5.5-2.4-7.5-9.6-4.5-16.8l4.8-11.7c3.1-7.2,9.6-11,15.1-8.9c5.5,2.4,7.5,9.6,4.5,16.8
				l-4.8,11.7C659.9,1550.4,653.1,1554.5,647.6,1552.1z M660.9,1519.5c-2.4-1-6.2,1.4-7.9,5.8l-4.8,11.7c-2.1,4.8-0.7,8.9,1.4,9.9
				c2.4,1,6.2-1.4,7.9-5.8l4.8-11.7C664.4,1524.6,663.3,1520.5,660.9,1519.5z"/>
		</g>
		<g>
			<path class="st6" d="M661.6,1519.8L661.6,1519.8c-0.7,1-1,1.4-1.4,2.1c0-0.7,0.3-1.4,0.3-2.4c0.3-1.4,0.7-2.7,1.4-4.5l0.3-0.7
				l4.1-9.9l0.3-1c0.7-1.4,1.4-2.7,1.7-3.8c0.7-1,1.4-1.7,1.7-2.4c0,0.7-0.3,1.7-0.7,3.1c1.7,0.3,4.1-1,5.8-3.8
				c0-2.7-0.7-4.8-2.7-5.5s-4.1,0-5.8,2.1c-1.7,1.7-3.4,4.5-4.8,7.2c-0.3,0.3-0.3,1-0.7,1.4l-4.8,11.7c-0.3,0.7-0.3,1.4-0.7,1.7
				c-1,2.7-1.7,5.5-1.7,7.9c0,2.4,0.7,4.5,2.7,5.5c1.4,0.7,3.4,0.7,5.8-1.7C663.7,1523.3,663,1520.9,661.6,1519.8z"/>
			<path class="st6" d="M674.3,1504.7c-2.1,0.7-4.1,1-6.2,0.3l-4.1,9.9c1.7,1,3.1,2.4,4.1,4.5c0.3-0.7,0.7-1,0.7-1.7l4.8-11.7
				C674,1505.4,674,1505.1,674.3,1504.7z"/>
		</g>
		<g>
			<path class="st6" d="M628.4,1599.4c-5.5-2.4-7.5-9.6-4.5-16.8l4.8-11.7c3.1-7.2,9.6-11,15.1-8.9c5.5,2.4,7.5,9.6,4.5,16.8
				l-4.8,11.7C640.4,1598,633.5,1601.8,628.4,1599.4z M641.7,1567.2c-2.1-1-6.2,1.4-7.9,5.8l-4.8,11.7c-2.1,4.8-0.7,8.9,1.4,9.9
				c2.1,1,6.2-1.4,7.9-5.8l4.8-11.7C644.8,1572.3,643.8,1567.9,641.7,1567.2z"/>
		</g>
		<g>
			<path class="st6" d="M642.1,1567.2C642.1,1567.2,642.1,1567.5,642.1,1567.2c-0.7,1-1,1.4-1.4,2.1c0-0.7,0.3-1.4,0.3-2.4
				c0.3-1.4,0.7-2.7,1.4-4.5l0.3-0.7l4.1-9.9l0.3-1c0.7-1.4,1.4-2.7,1.7-3.8c0.7-1,1.4-1.7,1.7-2.4c0,0.7-0.3,1.7-0.7,3.1
				c1.7,0.3,4.1-1,5.8-3.8c0-2.7-0.7-4.8-2.7-5.5c-2.1-0.7-4.1,0-5.8,2.1c-1.7,1.7-3.4,4.5-4.8,7.2c-0.3,0.3-0.3,1-0.7,1.4
				l-4.8,11.7c-0.3,0.7-0.3,1.4-0.7,1.7c-1,2.7-1.7,5.5-1.7,7.9c0,2.4,0.7,4.5,2.7,5.5c1.4,0.7,3.4,0.7,5.8-1.7
				C644.5,1570.6,643.5,1568.2,642.1,1567.2z"/>
			<path class="st6" d="M654.8,1552.1c-2.1,0.7-4.1,1-6.2,0.3l-4.1,9.9c1.7,1,3.1,2.4,4.1,4.5c0.3-0.7,0.7-1,0.7-1.7l4.8-11.7
				C654.4,1552.8,654.4,1552.4,654.8,1552.1z"/>
		</g>
		<g>
			<path class="st6" d="M608.8,1647.1c-5.5-2.4-7.5-9.6-4.5-16.8l4.8-11.7c3.1-7.2,9.6-11,15.1-8.9c5.5,2.4,7.5,9.6,4.5,16.8
				l-4.8,11.7C620.8,1645.4,614.3,1649.2,608.8,1647.1z M622.2,1614.5c-2.4-1-6.2,1.4-7.9,5.8l-4.8,11.7c-2.1,4.8-0.7,8.9,1.4,9.9
				s6.2-1.4,7.9-5.8l4.8-11.7C625.6,1619.7,624.2,1615.2,622.2,1614.5z"/>
		</g>
		<g>
			<path class="st6" d="M622.5,1614.9L622.5,1614.9c-0.7,1-1,1.4-1.4,2.1c0-0.7,0.3-1.4,0.3-2.4c0.3-1.4,0.7-2.7,1.4-4.5l0.3-0.7
				l4.1-9.9l0.3-1c0.7-1.4,1.4-2.7,1.7-3.8c0.7-1,1.4-1.7,1.7-2.4c0,0.7-0.3,1.7-0.3,3.1c1.7,0.3,4.1-1,5.8-3.8
				c0-2.7-0.7-4.8-2.7-5.5c-2.1-0.7-4.1,0-5.8,2.1c-1.7,1.7-3.4,4.5-4.8,7.2c-0.3,0.3-0.3,1-0.7,1.4l-4.8,11.7
				c-0.3,0.7-0.3,1.4-0.7,1.7c-1,2.7-1.7,5.5-1.7,7.9c0,2.4,0.7,4.5,2.7,5.5c1.4,0.7,3.4,0.7,5.8-1.7
				C624.9,1618.3,623.9,1615.5,622.5,1614.9z"/>
			<path class="st6" d="M635.2,1599.4c-2.1,0.7-4.1,1-6.2,0.3l-4.1,9.9c1.7,1,3.1,2.4,4.1,4.5c0.3-0.7,0.7-1,0.7-1.7l4.8-11.7
				C634.9,1600.4,634.9,1599.8,635.2,1599.4z"/>
		</g>
		<g>
			<path class="st6" d="M589.3,1694.5c-5.5-2.4-7.5-9.6-4.5-16.8l4.8-11.7c3.1-7.2,9.6-11,15.1-8.9c5.5,2.4,7.5,9.6,4.5,16.8
				l-4.8,11.7C601.3,1692.7,594.8,1696.5,589.3,1694.5z M602.6,1661.9c-2.4-1-6.2,1.4-7.9,5.8l-4.8,11.7c-2.1,4.8-0.7,8.9,1.4,9.9
				c2.4,1,6.2-1.4,7.9-5.8l4.8-11.7C606.1,1667,604.7,1662.9,602.6,1661.9z"/>
		</g>
		<g>
			<path class="st6" d="M603,1662.2L603,1662.2c-0.7,1-1,1.4-1.4,2.1c0-0.7,0.3-1.4,0.3-2.4c0.3-1.4,0.7-2.7,1.4-4.5l0.3-0.7
				l4.1-9.9l0.3-1c0.7-1.4,1.4-2.7,1.7-3.8c0.7-1,1-1.7,1.7-2.4c0,0.7-0.3,1.7-0.7,3.1c1.7,0.3,4.1-1,5.8-3.8c0-2.7-0.7-4.8-2.7-5.5
				c-2.1-0.7-4.1,0-5.8,2.1c-1.7,1.7-3.4,4.5-4.8,7.2c-0.3,0.3-0.3,1-0.7,1.4l-4.8,11.7c-0.3,0.7-0.3,1.4-0.7,1.7
				c-1,2.7-1.7,5.5-1.7,7.9s0.7,4.5,2.7,5.5c1.4,0.7,3.4,0.7,5.8-1.7C605.4,1665.6,604.4,1663.2,603,1662.2z"/>
			<path class="st6" d="M615.7,1646.8c-2.1,0.7-4.1,1-6.2,0.3l-4.1,9.9c1.7,1,3.1,2.4,4.1,4.5c0.3-0.7,0.7-1,0.7-1.7l4.8-11.7
				C615.3,1647.8,615.3,1647.1,615.7,1646.8z"/>
		</g>
		<g>
			<path class="st6" d="M569.7,1741.8c-5.5-2.4-7.5-9.6-4.5-16.8l4.8-11.7c3.1-7.2,9.6-11,15.1-8.9c5.5,2.4,7.5,9.6,4.5,16.8
				l-4.8,11.7C581.7,1740.1,575.2,1744.2,569.7,1741.8z M583.1,1709.2c-2.4-1-6.2,1.4-7.9,5.8l-4.8,11.7c-2.1,4.8-0.7,8.9,1.4,9.9
				c2.1,1,6.2-1.4,7.9-5.8l4.8-11.7C586.5,1714.4,585.1,1710.2,583.1,1709.2z"/>
		</g>
		<g>
			<path class="st6" d="M583.4,1709.5L583.4,1709.5c-0.7,1-1,1.4-1.4,2.1c0-0.7,0.3-1.4,0.3-2.4c0.3-1.4,0.7-2.7,1.4-4.5l0.3-0.7
				l4.1-9.9l0.3-1c0.7-1.4,1.4-2.7,1.7-3.8c0.7-1,1.4-1.7,1.7-2.4c0,0.7-0.3,1.7-0.7,3.1c1.7,0.3,4.1-1,5.8-3.8
				c0-2.7-0.7-4.8-2.7-5.5c-2.1-0.7-4.1,0-5.8,2.1c-1.7,1.7-3.4,4.5-4.8,7.2c-0.3,0.3-0.3,1-0.7,1.4l-4.8,11.7
				c-0.3,0.7-0.3,1.4-0.7,1.7c-1,2.7-1.7,5.5-1.7,7.9c0,2.4,0.7,4.5,2.7,5.5c1.4,0.7,3.4,0.7,5.8-1.7
				C585.8,1713,585.1,1710.6,583.4,1709.5z"/>
			<path class="st6" d="M596.1,1694.1c-2.1,0.7-4.1,1-6.2,0.3l-4.1,9.9c1.7,1,3.1,2.4,4.1,4.5c0.3-0.7,0.7-1,0.7-1.7l4.8-11.7
				C595.8,1695.1,595.8,1694.8,596.1,1694.1z"/>
		</g>
		<g>
			<path class="st6" d="M550.2,1789.1c-5.5-2.4-7.5-9.6-4.5-16.8l4.8-11.7c3.1-7.2,9.6-11,15.1-8.9c5.5,2.4,7.5,9.6,4.5,16.8
				l-4.8,11.7C562.2,1787.4,555.6,1791.5,550.2,1789.1z M563.5,1756.5c-2.4-1-6.2,1.4-7.9,5.8l-4.8,11.7c-2.1,4.8-0.7,8.9,1.4,9.9
				c2.4,1,6.2-1.4,7.9-5.8l4.8-11.7C567,1761.7,565.9,1757.6,563.5,1756.5z"/>
		</g>
		<g>
			<path class="st6" d="M563.9,1756.9L563.9,1756.9c-0.7,1-1,1.4-1.4,2.1c0-0.7,0.3-1.4,0.3-2.4c0.3-1.4,0.7-2.7,1.4-4.5l0.3-0.7
				l4.1-9.9l0.3-1c0.7-1.4,1.4-2.7,1.7-3.8c0.7-1,1.4-1.7,1.7-2.4c0,0.7-0.3,1.7-0.7,3.1c1.7,0.3,4.1-1,5.8-3.8
				c0-2.7-0.7-4.8-2.7-5.5s-4.1,0-5.8,2.1c-1.7,1.7-3.4,4.5-4.8,7.2c-0.3,0.3-0.3,1-0.7,1.4l-4.8,11.7c-0.3,0.7-0.3,1.4-0.7,1.7
				c-1,2.7-1.7,5.5-1.7,7.9s0.7,4.5,2.7,5.5c1.4,0.7,3.4,0.7,5.8-1.7C566.3,1760.3,565.6,1757.9,563.9,1756.9z"/>
			<path class="st6" d="M576.6,1741.8c-2.1,0.7-4.1,1-6.2,0.3l-4.1,9.9c1.7,1,3.1,2.4,4.1,4.5c0.3-0.7,0.7-1,0.7-1.7l4.8-11.7
				C576.2,1742.5,576.6,1742.1,576.6,1741.8z"/>
		</g>
		<g>
			<path class="st6" d="M530.6,1836.5c-5.5-2.4-7.5-9.6-4.5-16.8l4.8-11.7c3.1-7.2,9.6-11,15.1-8.9c5.5,2.4,7.5,9.6,4.5,16.8
				l-4.8,11.7C542.6,1835.1,536.1,1838.9,530.6,1836.5z M544,1804.2c-2.4-1-6.2,1.4-7.9,5.8l-4.8,11.7c-2.1,4.8-0.7,8.9,1.4,9.9
				c2.4,1,6.2-1.4,7.9-5.8l4.8-11.7C547.4,1809.4,546.4,1804.9,544,1804.2z"/>
		</g>
		<g>
			<path class="st6" d="M544.7,1804.2C544.3,1804.2,544.3,1804.6,544.7,1804.2c-0.7,1-1,1.4-1.4,2.1c0-0.7,0.3-1.4,0.3-2.4
				c0.3-1.4,0.7-2.7,1.4-4.5l0.3-0.7l4.1-9.9l0.3-1c0.7-1.4,1.4-2.7,1.7-3.8c0.7-1,1-1.7,1.7-2.4c0,0.7-0.3,1.7-0.7,3.1
				c1.7,0.3,4.1-1,5.8-3.8c0-2.7-0.7-4.8-2.7-5.5c-2.1-0.7-4.1,0-5.8,2.1c-1.7,1.7-3.4,4.5-4.8,7.2c-0.3,0.3-0.3,1-0.7,1.4
				l-4.8,11.7c-0.3,0.7-0.3,1.4-0.7,1.7c-1,2.7-1.7,5.5-1.7,7.9c0,2.4,0.7,4.5,2.7,5.5c1.4,0.7,3.4,0.7,5.8-1.7
				C546.7,1807.7,546,1805.3,544.7,1804.2z"/>
			<path class="st6" d="M557,1789.1c-2.1,0.7-4.1,1-6.2,0.3l-4.1,9.9c1.7,1,3.1,2.4,4.1,4.5c0.3-0.7,0.7-1,0.7-1.7l4.8-11.7
				C556.7,1789.8,557,1789.5,557,1789.1z"/>
		</g>
		<g>
			<path class="st6" d="M511.1,1884.2c-5.5-2.4-7.5-9.6-4.5-16.8l4.8-11.7c3.1-7.2,9.6-11,15.1-8.9c5.5,2.4,7.5,9.6,4.5,16.8
				l-4.8,11.7C523.1,1882.5,516.5,1886.2,511.1,1884.2z M524.4,1851.6c-2.4-1-6.2,1.4-7.9,5.8l-4.8,11.7c-2.1,4.8-0.7,8.9,1.4,9.9
				c2.4,1,6.2-1.4,7.9-5.8l4.8-11.7C527.9,1856.7,526.8,1852.3,524.4,1851.6z"/>
		</g>
		<g>
			<path class="st6" d="M525.1,1851.6C525.1,1851.9,524.8,1851.9,525.1,1851.6c-0.7,1-1,1.4-1.4,2.1c0-0.7,0.3-1.4,0.3-2.4
				c0.3-1.4,0.7-2.7,1.4-4.5l0.3-0.7l4.1-9.9l0.3-1c0.7-1.4,1.4-2.7,1.7-3.8c0.7-1,1.4-1.7,1.7-2.4c0,0.7-0.3,1.7-0.7,3.1
				c1.7,0.3,4.1-1,5.8-3.8c0-2.7-0.7-4.8-2.7-5.5c-2.1-0.7-4.1,0-5.8,2.1c-1.7,1.7-3.4,4.5-4.8,7.2c-0.3,0.3-0.3,1-0.7,1.4
				l-4.8,11.7c-0.3,0.7-0.3,1.4-0.7,1.7c-1,2.7-1.7,5.5-1.7,7.9s0.7,4.5,2.7,5.5c1.4,0.7,3.4,0.7,5.8-1.7
				C527.2,1855.4,526.5,1852.6,525.1,1851.6z"/>
			<path class="st6" d="M537.5,1836.5c-2.1,0.7-4.1,1-6.2,0.3l-4.1,9.9c1.7,1,3.1,2.4,4.1,4.5c0.3-0.7,0.7-1,0.7-1.7l4.8-11.7
				C537.1,1837.5,537.5,1836.8,537.5,1836.5z"/>
		</g>
		<g>
			<path class="st6" d="M491.5,1931.5c-5.5-2.4-7.5-9.6-4.5-16.8l4.8-11.7c3.1-7.2,9.6-11.3,15.1-8.9c5.5,2.4,7.5,9.6,4.5,16.8
				l-4.8,11.7C503.9,1929.8,497,1933.6,491.5,1931.5z M504.9,1898.9c-2.4-1-6.2,1.4-7.9,5.8l-4.8,11.7c-2.1,4.8-0.7,8.9,1.4,9.9
				c2.4,1,6.2-1.4,7.9-5.8l4.8-11.7C508.3,1904.1,507.3,1900,504.9,1898.9z"/>
		</g>
		<g>
			<path class="st6" d="M505.6,1899.3L505.6,1899.3c-0.7,1-1,1.4-1.4,2.1c0-0.7,0.3-1.4,0.3-2.4c0.3-1.4,0.7-2.7,1.4-4.5l0.3-0.7
				l4.1-9.9l0.3-1c0.7-1.4,1.4-2.7,1.7-3.8c0.7-1,1.4-1.7,1.7-2.4c0,0.7-0.3,1.7-0.7,3.1c1.7,0.3,4.1-1,5.8-3.8
				c0-2.7-0.7-4.8-2.7-5.5c-2.1-0.7-4.1,0-5.8,2.1c-1.7,1.7-3.4,4.5-4.8,7.2c-0.3,0.3-0.3,1-0.7,1.4l-4.8,11.7
				c-0.3,0.7-0.3,1.4-0.7,1.7c-1,2.7-1.7,5.5-1.7,7.9c0,2.4,0.7,4.5,2.7,5.5c1.4,0.7,3.4,0.7,5.8-1.7
				C507.6,1902.7,506.9,1900.3,505.6,1899.3z"/>
			<path class="st6" d="M517.9,1883.8c-2.1,0.7-4.1,1-6.2,0.3l-4.1,9.9c1.7,1,3.1,2.4,4.1,4.5c0.3-0.7,0.7-1,0.7-1.7l4.8-11.7
				C517.6,1884.9,517.9,1884.2,517.9,1883.8z"/>
		</g>
		<g>
			<path class="st6" d="M472,1978.9c-5.5-2.4-7.5-9.6-4.5-16.8l4.8-11.7c3.1-7.2,9.6-11,15.1-8.9c5.5,2.4,7.5,9.6,4.5,16.8
				l-4.8,11.7C484.3,1977.1,477.4,1981.3,472,1978.9z M485.3,1946.3c-2.1-1-6.2,1.4-7.9,5.8l-4.8,11.7c-2.1,4.8-0.7,8.9,1.4,9.9
				c2.1,1,6.2-1.4,7.9-5.8l4.8-11.7C488.8,1951.4,487.7,1947.3,485.3,1946.3z"/>
		</g>
		<g>
			<path class="st6" d="M486,1946.6L486,1946.6c-0.7,1-1,1.4-1.4,2.1c0-0.7,0.3-1.4,0.3-2.4c0.3-1.4,0.7-2.7,1.4-4.5l0.3-0.7
				l4.1-9.9l0.3-1c0.7-1.4,1.4-2.7,1.7-3.8c0.7-1,1.4-1.7,1.7-2.4c0,0.7-0.3,1.7-0.3,3.1c1.7,0.3,4.1-1,5.8-3.8
				c0-2.7-0.7-4.8-2.7-5.5c-2.1-0.7-4.1,0-5.8,2.1c-1.7,1.7-3.4,4.5-4.8,7.2c-0.3,0.3-0.3,1-0.7,1.4l-4.8,11.7
				c-0.3,0.7-0.3,1.4-0.7,1.7c-1,2.7-1.7,5.5-1.7,7.9s0.7,4.5,2.7,5.5c1.4,0.7,3.4,0.7,5.8-1.7C488.1,1950,487.4,1947.6,486,1946.6z
				"/>
			<path class="st6" d="M498.4,1931.2c-2.1,0.7-4.1,1-6.2,0.3l-4.1,9.9c1.7,1,3.1,2.4,4.1,4.5c0.3-0.7,0.7-1,0.7-1.7l4.8-11.7
				C498.4,1932.2,498.4,1931.9,498.4,1931.2z"/>
		</g>
	</g>
	<g>
		<g>
			<path class="st6" d="M691.1,1461.5c-5.8-1-8.9-8.2-7.5-15.8l2.4-12.4c1.7-7.5,7.2-12.7,13-11.3s8.9,8.2,7.5,15.8l-2.4,12.4
				C702.8,1457.7,697,1462.5,691.1,1461.5z M698.3,1427.2c-2.4-0.3-5.8,2.4-6.9,7.2l-2.4,12.4c-1,4.8,1,8.9,3.4,9.3
				c2.4,0.3,5.8-2.4,6.9-7.2l2.4-12.4C702.5,1431.7,700.7,1427.9,698.3,1427.2z"/>
		</g>
		<g>
			<path class="st6" d="M680.8,1511.2c-5.8-1.4-8.9-8.2-7.5-15.8l2.4-12.4c1.7-7.5,7.2-12.7,13-11.3c5.8,1.4,8.9,8.2,7.5,15.8
				l-2.4,12.4C692.5,1507.5,686.7,1512.3,680.8,1511.2z M688,1476.9c-2.4-0.3-5.8,2.4-6.9,7.2l-2.4,12.4c-1,4.8,1,8.9,3.4,9.3
				s5.8-2.4,6.9-7.2l2.4-12.4C692.2,1481.4,690.1,1477.6,688,1476.9z"/>
		</g>
		<g>
			<path class="st6" d="M688.4,1477.3L688.4,1477.3c-0.3,1-0.7,1.7-1,2.1c0-0.7,0-1.4,0-2.4c0-1.4,0.3-2.7,0.7-4.8v-0.7l2.1-10.6
				l0.3-1c0.3-1.7,0.7-2.7,1-4.1c0.3-1,0.7-2.1,1.4-2.7c0,0.7,0,1.7,0,3.1c1.7,0,3.8-1.7,5.1-4.5c-0.3-2.7-1.7-4.5-3.8-5.1
				c-2.1-0.3-4.1,1-5.5,3.1c-1.4,2.1-2.4,4.8-3.1,7.9c0,0.3-0.3,1-0.3,1.4l-2.4,12.4c0,0.7-0.3,1.4-0.3,2.1c-0.3,2.7-0.7,5.8,0,8.2
				c0.7,2.4,1.7,4.5,3.8,4.8c1.4,0.3,3.4,0,5.5-2.7C691.1,1480,690.1,1478,688.4,1477.3z"/>
			<path class="st6" d="M698,1460.1c-1.7,1-3.8,1.7-5.8,1.4l-2.1,10.6c2.1,0.7,3.4,2.1,4.8,3.8c0-0.7,0.3-1.4,0.3-2.1l2.4-12.4
				C697.6,1461.2,698,1460.5,698,1460.1z"/>
		</g>
		<g>
			<path class="st6" d="M670.6,1561c-5.8-1-8.9-8.2-7.5-15.8l2.4-12.4c1.7-7.5,7.2-12.7,13-11.3c5.8,1,8.9,8.2,7.5,15.8l-2.4,12.4
				C681.9,1557.2,676.4,1562,670.6,1561z M677.4,1526.7c-2.4-0.3-5.8,2.4-6.9,7.2l-2.4,12.4c-1,4.8,1,8.9,3.4,9.3
				c2.4,0.3,5.8-2.4,6.9-7.2l2.4-12.4C681.9,1531.1,679.8,1527.4,677.4,1526.7z"/>
		</g>
		<g>
			<path class="st6" d="M678.1,1527L678.1,1527c-0.3,1-0.7,1.7-1,2.1c0-0.7,0-1.4,0-2.4c0-1.4,0.3-2.7,0.7-4.8v-0.7l2.1-10.6
				l0.3-1.4c0.3-1.7,0.7-2.7,1-4.1c0.3-1,0.7-2.1,1.4-2.7c0,0.7,0,1.7,0,3.1c1.7,0,3.8-1.7,5.1-4.5c-0.3-2.7-1.7-4.5-3.8-5.1
				c-2.1-0.3-4.1,1-5.5,3.1c-1.4,2.1-2.4,4.8-3.1,7.9c0,0.3-0.3,1-0.3,1.4l-2.4,12.4c0,0.7-0.3,1.4-0.3,2.1c-0.3,2.7-0.7,5.8,0,8.2
				s1.7,4.5,3.8,4.8c1.4,0.3,3.4,0,5.5-2.7C680.8,1529.8,679.8,1527.7,678.1,1527z"/>
			<path class="st6" d="M687.7,1509.9c-1.7,1-3.8,1.7-5.8,1.4l-2.1,10.6c2.1,0.7,3.4,2.1,4.8,3.8c0-0.7,0.3-1.4,0.3-2.1l2.4-12.4
				C687.4,1510.9,687.4,1510.2,687.7,1509.9z"/>
		</g>
		<g>
			<path class="st6" d="M660.3,1610.7c-5.8-1.4-8.9-8.2-7.5-15.8l2.4-12.4c1.7-7.5,7.2-12.7,13-11.3c5.8,1,8.9,8.2,7.5,15.8
				l-2.4,12.4C671.6,1607,665.7,1611.8,660.3,1610.7z M667.1,1576.4c-2.4-0.3-5.8,2.4-6.9,7.2l-2.4,12.4c-1,4.8,1,8.9,3.4,9.3
				c2.4,0.3,5.8-2.4,6.9-7.2l2.4-12.4C671.6,1580.9,669.5,1577.1,667.1,1576.4z"/>
		</g>
		<g>
			<path class="st6" d="M667.8,1576.8L667.8,1576.8c-0.3,1-0.7,1.7-1,2.1c0-0.7,0-1.4,0-2.4c0-1.4,0.3-2.7,0.7-4.8v-0.7l2.1-10.6
				l0.3-1.4c0.3-1.7,0.7-2.7,1-4.1c0.3-1,0.7-2.1,1.4-2.7c0,0.7,0,1.7,0,3.1c1.7,0,3.8-1.7,5.1-4.5c-0.3-2.7-1.7-4.5-3.8-5.1
				c-2.1-0.3-4.1,1-5.5,3.1c-1.4,2.1-2.4,4.8-3.1,7.9c0,0.3-0.3,1-0.3,1.4l-2.4,12.4c0,0.7-0.3,1.4-0.3,2.1c-0.3,2.7-0.7,5.8,0,8.2
				c0.7,2.4,1.7,4.5,3.8,4.8c1.4,0.3,3.4,0,5.5-2.7C670.6,1579.9,669.2,1577.5,667.8,1576.8z"/>
			<path class="st6" d="M677.1,1559.6c-1.7,1-3.8,1.7-5.8,1.4l-2.1,10.6c2.1,0.7,3.4,2.1,4.8,3.8c0-0.7,0.3-1.4,0.3-2.1l2.4-12.4
				C677.1,1560.7,677.1,1560,677.1,1559.6z"/>
		</g>
		<g>
			<path class="st6" d="M649.6,1660.5c-5.8-1-8.9-8.2-7.5-15.8l2.4-12.4c1.7-7.5,7.2-12.7,13-11.3c5.8,1,8.9,8.2,7.5,15.8l-2.4,12.4
				C661.3,1656.7,655.5,1661.5,649.6,1660.5z M656.8,1626.2c-2.4-0.3-5.8,2.4-6.9,7.2l-2.4,12.4c-1,4.8,1,8.9,3.4,9.3
				s5.8-2.4,6.9-7.2l2.4-12.4C661.3,1630.6,659.2,1626.9,656.8,1626.2z"/>
		</g>
		<g>
			<path class="st6" d="M657.5,1626.5L657.5,1626.5c-0.3,1-0.7,1.7-1,2.1c0-0.7,0-1.4,0-2.4c0-1.4,0.3-2.7,0.7-4.8v-0.7l2.1-10.6
				l0.3-1c0.3-1.7,0.7-2.7,1-4.1c0.3-1,0.7-2.1,1.4-2.7c0,0.7,0,1.7,0,3.1c1.7,0,3.8-1.7,5.1-4.5c-0.3-2.7-1.7-4.5-3.8-5.1
				c-2.1-0.3-4.1,1-5.5,3.1c-1.4,2.1-2.4,4.8-3.1,7.9c0,0.3-0.3,1-0.3,1.4l-2.4,12.4c0,0.7-0.3,1.4-0.3,2.1c-0.3,2.7-0.7,5.8,0,8.2
				c0.7,2.4,1.7,4.5,3.8,4.8c1.4,0.3,3.4,0,5.5-2.7C660.3,1629.6,658.9,1627.2,657.5,1626.5z"/>
			<path class="st6" d="M666.8,1609.4c-1.7,1-3.8,1.7-5.8,1.4l-2.1,10.6c2.1,0.7,3.4,2.1,4.8,3.8c0-0.7,0.3-1.4,0.3-2.1l2.4-12.4
				C666.8,1610.4,666.8,1609.7,666.8,1609.4z"/>
		</g>
		<g>
			<path class="st6" d="M639.3,1710.2c-5.8-1.4-8.9-8.2-7.5-15.8l2.4-12.4c1.7-7.5,7.2-12.7,13-11.3s8.9,8.2,7.5,15.8l-2.4,12.4
				C651,1706.5,645.2,1711.3,639.3,1710.2z M646.5,1675.9c-2.4-0.3-5.8,2.4-6.9,7.2l-2.4,12.4c-1,4.8,1,8.9,3.4,9.3
				c2.4,0.3,5.8-2.4,6.9-7.2l2.4-12.4C651,1680.4,648.9,1676.6,646.5,1675.9z"/>
		</g>
		<g>
			<path class="st6" d="M647.2,1676.3C646.9,1676.3,646.9,1676.3,647.2,1676.3c-0.3,1-0.7,1.7-1,2.1c0-0.7,0-1.4,0-2.4
				c0-1.4,0.3-2.7,0.7-4.8v-0.7l2.1-10.6l0.3-1c0.3-1.7,0.7-2.7,1-4.1c0.3-1,0.7-2.1,1.4-2.7c0,0.7,0,1.7,0,3.1
				c1.7,0,3.8-1.7,5.1-4.5c-0.3-2.7-1.7-4.5-3.8-5.1c-2.1-0.3-4.1,1-5.5,3.1c-1.4,2.1-2.4,4.8-3.1,7.9c0,0.3-0.3,1-0.3,1.4
				l-2.4,12.4c0,0.7-0.3,1.4-0.3,2.1c-0.3,2.7-0.7,5.8,0,8.2c0.7,2.4,1.7,4.5,3.8,4.8c1.4,0.3,3.4,0,5.5-2.7
				C650,1679.4,648.6,1677,647.2,1676.3z"/>
			<path class="st6" d="M656.5,1659.1c-1.7,1-3.8,1.7-5.8,1.4l-2.1,10.6c2.1,0.7,3.4,2.1,4.8,3.8c0-0.7,0.3-1.4,0.3-2.1l2.4-12.4
				C656.5,1660.1,656.5,1659.5,656.5,1659.1z"/>
		</g>
		<g>
			<path class="st6" d="M629,1760c-5.8-1-8.9-8.2-7.5-15.8l2.4-12.4c1.7-7.5,7.2-12.7,13-11.3c5.8,1.4,8.9,8.2,7.5,15.8l-2.4,12.4
				C640.7,1756.2,634.9,1761,629,1760z M636.3,1725.7c-2.4-0.3-5.8,2.4-6.9,7.2l-2.4,12.4c-1,4.8,1,8.9,3.4,9.3
				c2.4,0.3,5.8-2.4,6.9-7.2l2.4-12.4C640.4,1730.1,638.7,1726.4,636.3,1725.7z"/>
		</g>
		<g>
			<path class="st6" d="M636.6,1726L636.6,1726c-0.3,1-0.7,1.7-1,2.1c0-0.7,0-1.4,0-2.4c0-1.4,0.3-2.7,0.7-4.8v-0.7l2.1-10.6l0.3-1
				c0.3-1.7,0.7-2.7,1-4.1c0.3-1,0.7-2.1,1.4-2.7c0,0.7,0,1.7,0,3.1c1.7,0,3.8-1.7,5.1-4.5c-0.3-2.7-1.7-4.5-3.8-5.1
				c-2.1-0.3-4.1,1-5.5,3.1c-1.4,2.1-2.4,4.8-3.1,7.9c0,0.3-0.3,1-0.3,1.4l-2.4,12.4c0,0.7-0.3,1.4-0.3,2.1c-0.3,2.7-0.7,5.8,0,8.2
				c0.7,2.4,1.7,4.5,3.8,4.8c1.4,0.3,3.4,0,5.5-2.7C639.7,1729.1,638.3,1726.7,636.6,1726z"/>
			<path class="st6" d="M646.2,1708.9c-1.7,1-3.8,1.7-5.8,1.4l-2.1,10.6c2.1,0.7,3.4,2.1,4.8,3.8c0-0.7,0.3-1.4,0.3-2.1l2.4-12.4
				C646.2,1709.9,646.2,1709.2,646.2,1708.9z"/>
		</g>
		<g>
			<path class="st6" d="M618.8,1809.7c-5.8-1.4-8.9-8.2-7.5-15.8l2.4-12.4c1.7-7.5,7.2-12.7,13-11.3s8.9,8.2,7.5,15.8l-2.4,12.4
				C630.4,1806,624.6,1810.8,618.8,1809.7z M626,1775.4c-2.4-0.3-5.8,2.4-6.9,7.2l-2.4,12.4c-1,4.8,1,8.9,3.4,9.3
				c2.4,0.3,5.8-2.4,6.9-7.2l2.4-12.4C630.1,1779.9,628.4,1776.1,626,1775.4z"/>
		</g>
		<g>
			<path class="st6" d="M626.3,1775.8L626.3,1775.8c-0.3,1-0.7,1.7-1,2.1c0-0.7,0-1.4,0-2.4c0-1.4,0.3-2.7,0.7-4.8v-0.7l2.1-10.6
				l0.3-1c0.3-1.7,0.7-2.7,1-4.1c0.3-1,0.7-2.1,1.4-2.7c0,0.7,0,1.7,0,3.1c1.7,0,3.8-1.7,5.1-4.5c-0.3-2.7-1.7-4.5-3.8-5.1
				c-2.1-0.3-4.1,1-5.5,3.1c-1.4,2.1-2.4,4.8-3.1,7.9c0,0.3-0.3,1-0.3,1.4l-2.4,12.4c0,0.7-0.3,1.4-0.3,2.1c-0.3,2.7-0.7,5.8,0,8.2
				c0.7,2.4,1.7,4.5,3.8,4.8c1.4,0.3,3.4,0,5.5-2.7C629.4,1778.8,628,1776.4,626.3,1775.8z"/>
			<path class="st6" d="M635.9,1758.6c-1.7,1-3.8,1.7-5.8,1.4l-2.1,10.6c2.1,0.7,3.4,2.1,4.8,3.8c0-0.7,0.3-1.4,0.3-2.1l2.4-12.4
				C635.6,1759.6,635.9,1759,635.9,1758.6z"/>
		</g>
		<g>
			<path class="st6" d="M608.5,1859.5c-5.8-1.4-8.9-8.2-7.5-15.8l2.4-12.4c1.7-7.5,7.2-12.7,13-11.3c5.8,1.4,8.9,8.2,7.5,15.8
				l-2.4,12.4C620.1,1855.7,614.3,1860.5,608.5,1859.5z M615.7,1825.2c-2.4-0.3-5.8,2.4-6.9,7.2l-2.4,12.4c-1,4.8,1,8.9,3.4,9.3
				c2.4,0.3,5.8-2.4,6.9-7.2l2.4-12.4C619.8,1829.6,618.1,1825.9,615.7,1825.2z"/>
		</g>
		<g>
			<path class="st6" d="M616,1825.5L616,1825.5c-0.3,1-0.7,1.7-1,2.1c0-0.7,0-1.4,0-2.4c0-1.4,0.3-2.7,0.7-4.8v-0.7l2.1-10.6l0.3-1
				c0.3-1.7,0.7-2.7,1-4.1c0.3-1,0.7-2.1,1.4-2.7c0,0.7,0,1.7,0,3.1c1.7,0,3.8-1.7,5.1-4.5c-0.3-2.7-1.7-4.5-3.8-5.1
				c-2.1-0.3-4.1,1-5.5,3.1c-1.4,2.1-2.4,4.8-3.1,7.9c0,0.3-0.3,1-0.3,1.4l-2.4,12.4c0,0.7-0.3,1.4-0.3,2.1c-0.3,2.7-0.7,5.8,0,8.2
				c0.7,2.4,1.7,4.5,3.8,4.8c1.4,0.3,3.4,0,5.5-2.7C619.1,1828.6,617.7,1826.2,616,1825.5z"/>
			<path class="st6" d="M625.6,1808.4c-1.7,1-3.8,1.7-5.8,1.4l-2.1,10.6c2.1,0.7,3.4,2.1,4.8,3.8c0-0.7,0.3-1.4,0.3-2.1l2.4-12.4
				C625.3,1809.4,625.6,1808.7,625.6,1808.4z"/>
		</g>
		<g>
			<path class="st6" d="M598.2,1909.2c-5.8-1.4-8.9-8.2-7.5-15.8l2.4-12.4c1.7-7.5,7.2-12.7,13-11.3c5.8,1.4,8.9,8.2,7.5,15.8
				l-2.4,12.4C609.5,1905.4,604,1910.2,598.2,1909.2z M605,1874.9c-2.4-0.3-5.8,2.4-6.9,7.2l-2.4,12.4c-1,4.8,1,8.9,3.4,9.3
				c2.4,0.3,5.8-2.4,6.9-7.2l2.4-12.4C609.5,1879.4,607.4,1875.6,605,1874.9z"/>
		</g>
		<g>
			<path class="st6" d="M605.7,1875.3L605.7,1875.3c-0.3,1-0.7,1.7-1,2.1c0-0.7,0-1.4,0-2.4c0-1.4,0.3-2.7,0.7-4.8v-0.7l2.1-10.6
				l0.3-1c0.3-1.7,0.7-2.7,1-4.1c0.3-1,0.7-2.1,1.4-2.7c0,0.7,0,1.7,0,3.1c1.7,0,3.8-1.7,5.1-4.5c-0.3-2.7-1.7-4.5-3.8-5.1
				c-2.1-0.3-4.1,1-5.5,3.1c-1.4,2.1-2.4,4.8-3.1,7.9c0,0.3-0.3,1-0.3,1.4l-2.4,12.4c0,0.7-0.3,1.4-0.3,2.1c-0.3,2.7-0.7,5.8,0,8.2
				s1.7,4.5,3.8,4.8c1.4,0.3,3.4,0,5.5-2.7C608.5,1878.3,607.4,1875.9,605.7,1875.3z"/>
			<path class="st6" d="M615.3,1858.1c-1.7,1-3.8,1.7-5.8,1.4l-2.1,10.6c2.1,0.7,3.4,2.1,4.8,3.8c0-0.7,0.3-1.4,0.3-2.1l2.4-12.4
				C615,1859.1,615,1858.4,615.3,1858.1z"/>
		</g>
		<g>
			<path class="st6" d="M587.9,1959c-5.8-1-8.9-8.2-7.5-15.8l2.4-12.4c1.7-7.5,7.2-12.7,13-11.3c5.8,1,8.9,8.2,7.5,15.8l-2.4,12.4
				C599.2,1955.2,593.7,1960,587.9,1959z M594.8,1924.7c-2.4-0.3-5.8,2.4-6.9,7.2l-2.4,12.4c-1,4.8,1,8.9,3.4,9.3
				c2.4,0.3,5.8-2.4,6.9-7.2l2.4-12.4C599.2,1929.1,597.2,1925.3,594.8,1924.7z"/>
		</g>
		<g>
			<path class="st6" d="M595.4,1925L595.4,1925c-0.3,1-0.7,1.7-1,2.1c0-0.7,0-1.4,0-2.4c0-1.4,0.3-2.7,0.7-4.8v-0.7l2.1-10.6l0.3-1
				c0.3-1.7,0.7-2.7,1-4.1c0.3-1,0.7-2.1,1.4-2.7c0,0.7,0,1.7,0,3.1c1.7,0,3.8-1.7,5.1-4.5c-0.3-2.7-1.7-4.5-3.8-5.1
				c-2.1-0.3-4.1,1-5.5,3.1c-1.4,2.1-2.4,4.8-3.1,7.9c0,0.3-0.3,1-0.3,1.4l-2.4,12.4c0,0.7-0.3,1.4-0.3,2.1c-0.3,2.7-0.7,5.8,0,8.2
				c0.7,2.4,1.7,4.5,3.8,4.8c1.4,0.3,3.4,0,5.5-2.7C598.2,1928.1,597.2,1925.7,595.4,1925z"/>
			<path class="st6" d="M605,1907.8c-1.7,1-3.8,1.7-5.8,1.4l-2.1,10.6c2.1,0.7,3.4,2.1,4.8,3.8c0-0.7,0.3-1.4,0.3-2.1l2.4-12.4
				C604.7,1908.9,604.7,1908.2,605,1907.8z"/>
		</g>
		<g>
			<path class="st6" d="M577.6,2008.7c-5.8-1-8.9-8.2-7.5-15.8l2.4-12.4c1.7-7.5,7.2-12.7,13-11.3c5.8,1,8.9,8.2,7.5,15.8l-2.4,12.4
				C588.9,2004.9,583.1,2009.7,577.6,2008.7z M584.5,1974.4c-2.4-0.3-5.8,2.4-6.9,7.2l-2.4,12.4c-1,4.8,1,8.9,3.4,9.3
				c2.4,0.3,5.8-2.4,6.9-7.2l2.4-12.4C588.9,1978.9,586.9,1975.1,584.5,1974.4z"/>
		</g>
		<g>
			<path class="st6" d="M585.1,1974.7L585.1,1974.7c-0.3,1-0.7,1.7-1,2.1c0-0.7,0-1.4,0-2.4c0-1.4,0.3-2.7,0.7-4.8v-0.7l2.1-10.6
				l0.3-1c0.3-1.7,0.7-2.7,1-4.1c0.3-1,0.7-2.1,1.4-2.7c0,0.7,0,1.7,0,3.1c1.7,0,3.8-1.7,5.1-4.5c-0.3-2.7-1.7-4.5-3.8-5.1
				c-2.1-0.3-4.1,1-5.5,3.1c-1.4,2.1-2.4,4.8-3.1,7.9c0,0.3-0.3,1-0.3,1.4l-2.4,12.4c0,0.7-0.3,1.4-0.3,2.1c-0.3,2.7-0.7,5.8,0,8.2
				c0.7,2.4,1.7,4.5,3.8,4.8c1.4,0.3,3.4,0,5.5-2.7C587.9,1977.8,586.5,1975.4,585.1,1974.7z"/>
			<path class="st6" d="M594.4,1957.6c-1.7,1-3.8,1.7-5.8,1.4l-2.1,10.6c2.1,0.7,3.4,2.1,4.8,3.8c0-0.7,0.3-1.4,0.3-2.1l2.4-12.4
				C594.4,1958.6,594.4,1957.9,594.4,1957.6z"/>
		</g>
	</g>
	<g>
		<g>
			<path class="st6" d="M700,1448.5l-4.8-11.7c-3.1-7.2-1-14.8,4.5-16.8c5.5-2.4,12,1.7,15.1,8.9l4.8,11.7c3.1,7.2,1,14.8-4.5,16.8
				C709.7,1459.4,702.8,1455.7,700,1448.5z M700,1434.7l4.8,11.7c2.1,4.8,5.8,6.9,7.9,5.8c2.4-1,3.4-5.1,1.4-9.9l-4.5-11.7
				c-2.1-4.8-5.8-6.9-7.9-5.8C699.4,1425.8,698.3,1429.9,700,1434.7z"/>
		</g>
		<g>
			<path class="st6" d="M719.3,1495.8l-4.8-11.7c-3.1-7.2-1-14.8,4.5-16.8c5.5-2.4,12,1.7,15.1,8.9l4.8,11.7
				c3.1,7.2,1,14.8-4.5,16.8C728.9,1507.1,722.3,1503,719.3,1495.8z M719.6,1482.1l4.8,11.7c2.1,4.8,5.8,6.9,7.9,5.8
				c2.4-1,3.4-5.1,1.4-9.9l-4.8-11.7c-2.1-4.8-5.8-6.9-7.9-5.8C718.9,1473.2,717.5,1477.3,719.6,1482.1z"/>
		</g>
		<g>
			<path class="st6" d="M720.6,1472.5L720.6,1472.5c0.7,1,1,1.4,1.4,2.1c0-0.7-0.3-1.4-0.3-2.4c-0.3-1.4-0.7-2.7-1.4-4.5l-0.3-0.7
				l-4.1-9.9l-0.3-1c-0.7-1.4-1.4-2.7-1.7-3.8c-0.7-1-1.4-1.7-1.7-2.4c0,0.7,0.3,1.7,0.3,3.1c-1.7,0.3-4.1-1-5.8-3.8
				c0-2.7,0.7-4.8,2.7-5.5c2.1-0.7,4.1,0,5.8,2.1c1.7,1.7,3.4,4.5,4.8,7.2c0.3,0.3,0.3,1,0.7,1.4l4.8,11.7c0.3,0.7,0.3,1.4,0.7,1.7
				c1,2.7,1.7,5.5,1.7,7.9c0,2.4-0.7,4.5-2.7,5.5c-1.4,0.7-3.4,0.7-5.8-1.7C718.2,1475.9,719.3,1473.5,720.6,1472.5z"/>
			<path class="st6" d="M707.9,1457c2.1,0.7,4.1,1,6.2,0.3l4.1,9.9c-1.7,1-3.1,2.4-4.1,4.5c-0.3-0.7-0.7-1-0.7-1.7l-4.8-11.7
				C708.3,1458.1,708.3,1457.7,707.9,1457z"/>
		</g>
		<g>
			<path class="st6" d="M738.8,1543.2l-4.8-11.7c-3.1-7.2-1-14.8,4.5-16.8c5.5-2.4,12,1.7,15.1,8.9l4.8,11.7
				c3.1,7.2,1,14.8-4.5,16.8C748.4,1554.5,741.9,1550.4,738.8,1543.2z M739.2,1529.4l4.8,11.7c2.1,4.8,5.8,6.9,7.9,5.8
				c2.4-1,3.4-5.1,1.4-9.9l-4.8-11.7c-2.1-4.8-5.8-6.9-7.9-5.8C738.5,1520.5,737.1,1524.6,739.2,1529.4z"/>
		</g>
		<g>
			<path class="st6" d="M740.2,1519.8L740.2,1519.8c0.7,1,1,1.4,1.4,2.1c0-0.7-0.3-1.4-0.3-2.4c-0.3-1.4-0.7-2.7-1.4-4.5l-0.3-0.7
				l-4.1-9.9l-0.3-1c-0.7-1.4-1.4-2.7-1.7-3.8c-0.7-1-1.4-1.7-1.7-2.4c0,0.7,0.3,1.7,0.7,3.1c-1.7,0.3-4.1-1-5.8-3.8
				c0-2.7,0.7-4.8,2.7-5.5s4.1,0,5.8,2.1c1.7,1.7,3.4,4.5,4.8,7.2c0.3,0.3,0.3,1,0.7,1.4l4.8,11.7c0.3,0.7,0.3,1.4,0.7,1.7
				c1,2.7,1.7,5.5,1.7,7.9c0,2.4-0.7,4.5-2.7,5.5c-1.4,0.7-3.4,0.7-5.8-1.7C737.8,1523.3,738.8,1520.9,740.2,1519.8z"/>
			<path class="st6" d="M727.5,1504.7c2.1,0.7,4.1,1,6.2,0.3l4.1,9.9c-1.7,1-3.1,2.4-4.1,4.5c-0.3-0.7-0.7-1-0.7-1.7l-4.8-11.7
				C727.8,1505.4,727.8,1505.1,727.5,1504.7z"/>
		</g>
		<g>
			<path class="st6" d="M758.4,1590.5l-4.8-11.7c-3.1-7.2-1-14.8,4.5-16.8c5.5-2.4,12,1.7,15.1,8.9l4.8,11.7
				c3.1,7.2,1,14.8-4.5,16.8C768,1601.8,761.4,1598,758.4,1590.5z M758.7,1576.8l4.8,11.7c2.1,4.8,5.8,6.9,7.9,5.8
				c2.4-1,3.4-5.1,1.4-9.9l-4.8-11.7c-2.1-4.8-5.8-6.9-7.9-5.8C758,1567.9,756.6,1572.3,758.7,1576.8z"/>
		</g>
		<g>
			<path class="st6" d="M759.7,1567.2C759.7,1567.2,759.7,1567.5,759.7,1567.2c0.7,1,1,1.4,1.4,2.1c0-0.7-0.3-1.4-0.3-2.4
				c-0.3-1.4-0.7-2.7-1.4-4.5l-0.3-0.7l-4.1-9.9l-0.7-1c-0.7-1.4-1.4-2.7-1.7-3.8c-0.7-1-1.4-1.7-1.7-2.4c0,0.7,0.3,1.7,0.7,3.1
				c-1.7,0.3-4.1-1-5.8-3.8c0-2.7,0.7-4.8,2.7-5.5c2.1-0.7,4.1,0,5.8,2.1c1.7,1.7,3.4,4.5,4.8,7.2c0.3,0.3,0.3,1,0.7,1.4l4.8,11.7
				c0.3,0.7,0.3,1.4,0.7,1.7c1,2.7,1.7,5.5,1.7,7.9c0,2.4-0.7,4.5-2.7,5.5c-1.4,0.7-3.4,0.7-5.8-1.7
				C757.3,1570.6,758.4,1568.2,759.7,1567.2z"/>
			<path class="st6" d="M747,1552.1c2.1,0.7,4.1,1,6.2,0.3l4.1,9.9c-1.7,1-3.1,2.4-4.1,4.5c-0.3-0.7-0.7-1-0.7-1.7l-4.8-11.7
				C747.4,1552.8,747.4,1552.4,747,1552.1z"/>
		</g>
		<g>
			<path class="st6" d="M777.9,1638.2l-4.8-11.7c-3.1-7.2-1-14.8,4.5-16.8c5.5-2.4,12,1.7,15.1,8.9l4.8,11.7
				c3.1,7.2,1,14.8-4.5,16.8C787.5,1649.2,781,1645.4,777.9,1638.2z M778.3,1624.1l4.8,11.7c2.1,4.8,5.8,6.9,7.9,5.8
				c2.4-1,3.4-5.1,1.4-9.9l-4.8-11.7c-2.1-4.8-5.8-6.9-7.9-5.8C777.2,1615.2,776.2,1619.7,778.3,1624.1z"/>
		</g>
		<g>
			<path class="st6" d="M779.3,1614.9L779.3,1614.9c0.7,1,1,1.4,1.4,2.1c0-0.7-0.3-1.4-0.3-2.4c-0.3-1.4-0.7-2.7-1.4-4.5l-0.3-0.7
				l-4.1-9.9l-0.3-1c-0.7-1.4-1.4-2.7-1.7-3.8c-0.7-1-1.4-1.7-1.7-2.4c0,0.7,0.3,1.7,0.3,3.1c-1.7,0.3-4.1-1-5.8-3.8
				c0-2.7,0.7-4.8,2.7-5.5s4.1,0,5.8,2.1c1.7,1.7,3.4,4.5,4.8,7.2c0.3,0.3,0.3,1,0.7,1.4l4.8,11.7c0.3,0.7,0.3,1.4,0.7,1.7
				c1,2.7,1.7,5.5,1.7,7.9c0,2.4-0.7,4.5-2.7,5.5c-1.4,0.7-3.4,0.7-5.8-1.7C776.9,1618.3,777.6,1615.5,779.3,1614.9z"/>
			<path class="st6" d="M766.6,1599.4c2.1,0.7,4.1,1,6.2,0.3l4.1,9.9c-1.7,1-3.1,2.4-4.1,4.5c-0.3-0.7-0.7-1-0.7-1.7l-4.8-11.7
				C766.9,1600.4,766.6,1599.8,766.6,1599.4z"/>
		</g>
		<g>
			<path class="st6" d="M797.5,1685.5l-4.8-11.7c-3.1-7.2-1-14.8,4.5-16.8c5.5-2.4,12,1.7,15.1,8.9l4.8,11.7
				c3.1,7.2,1,14.8-4.5,16.8S800.5,1692.7,797.5,1685.5z M797.8,1671.8l4.8,11.7c2.1,4.8,5.8,6.9,7.9,5.8c2.4-1,3.4-5.1,1.4-9.9
				l-4.8-11.7c-2.1-4.8-5.8-6.9-7.9-5.8C796.8,1662.9,795.7,1667,797.8,1671.8z"/>
		</g>
		<g>
			<path class="st6" d="M798.5,1662.2C798.8,1662.2,798.8,1662.2,798.5,1662.2c0.7,1,1,1.4,1.4,2.1c0-0.7-0.3-1.4-0.3-2.4
				c-0.3-1.4-0.7-2.7-1.4-4.5l-0.3-0.7l-4.1-9.9l-0.3-1c-0.7-1.4-1.4-2.7-1.7-3.8c-0.7-1-1-1.7-1.7-2.4c0,0.7,0.3,1.7,0.7,3.1
				c-1.7,0.3-4.1-1-5.8-3.8c0-2.7,0.7-4.8,2.7-5.5c2.1-0.7,4.1,0,5.8,2.1c1.7,1.7,3.4,4.5,4.8,7.2c0.3,0.3,0.3,1,0.7,1.4l4.8,11.7
				c0.3,0.7,0.3,1.4,0.7,1.7c1,2.7,1.7,5.5,1.7,7.9s-0.7,4.5-2.7,5.5c-1.4,0.7-3.4,0.7-5.8-1.7
				C796.4,1665.6,797.1,1663.2,798.5,1662.2z"/>
			<path class="st6" d="M786.1,1646.8c2.1,0.7,4.1,1,6.2,0.3l4.1,9.9c-1.7,1-3.1,2.4-4.1,4.5c-0.3-0.7-0.7-1-0.7-1.7l-4.8-11.7
				C786.5,1647.8,786.1,1647.1,786.1,1646.8z"/>
		</g>
		<g>
			<path class="st6" d="M817,1732.9l-4.8-11.7c-3.1-7.2-1-14.8,4.5-16.8c5.5-2.4,12,1.7,15.1,8.9l4.8,11.7c3.1,7.2,1,14.8-4.5,16.8
				C826.6,1744.2,820.1,1740.1,817,1732.9z M817,1719.2l4.8,11.7c2.1,4.8,5.8,6.9,7.9,5.8c2.4-1,3.4-5.1,1.4-9.9l-4.8-11.7
				c-2.1-4.8-5.8-6.9-7.9-5.8C816.3,1710.2,815.3,1714.4,817,1719.2z"/>
		</g>
		<g>
			<path class="st6" d="M818,1709.5C818,1709.5,818.4,1709.5,818,1709.5c0.7,1,1,1.4,1.4,2.1c0-0.7-0.3-1.4-0.3-2.4
				c-0.3-1.4-0.7-2.7-1.4-4.5l-0.3-0.7l-4.1-9.9l-0.3-1c-0.7-1.4-1.4-2.7-1.7-3.8c-0.7-1-1.4-1.7-1.7-2.4c0,0.7,0.3,1.7,0.7,3.1
				c-1.7,0.3-4.1-1-5.8-3.8c0-2.7,0.7-4.8,2.7-5.5c2.1-0.7,4.1,0,5.8,2.1c1.7,1.7,3.4,4.5,4.8,7.2c0.3,0.3,0.3,1,0.7,1.4l4.8,11.7
				c0.3,0.7,0.3,1.4,0.7,1.7c1,2.7,1.7,5.5,1.7,7.9c0,2.4-0.7,4.5-2.7,5.5c-1.4,0.7-3.4,0.7-5.8-1.7
				C816,1713,816.7,1710.6,818,1709.5z"/>
			<path class="st6" d="M805.7,1694.1c2.1,0.7,4.1,1,6.2,0.3l4.1,9.9c-1.7,1-3.1,2.4-4.1,4.5c-0.3-0.7-0.7-1-0.7-1.7l-4.8-11.7
				C806,1695.1,805.7,1694.8,805.7,1694.1z"/>
		</g>
		<g>
			<path class="st6" d="M836.6,1780.2l-4.8-11.7c-3.1-7.2-1-14.8,4.5-16.8c5.5-2.4,12,1.7,15.1,8.9l4.8,11.7
				c3.1,7.2,1,14.8-4.5,16.8C846.2,1791.5,839.3,1787.4,836.6,1780.2z M836.6,1766.5l4.8,11.7c2.1,4.8,5.8,6.9,7.9,5.8
				s3.4-5.1,1.4-9.9l-4.8-11.7c-2.1-4.8-5.8-6.9-7.9-5.8C835.9,1757.6,834.8,1761.7,836.6,1766.5z"/>
		</g>
		<g>
			<path class="st6" d="M837.6,1756.9L837.6,1756.9c0.7,1,1,1.4,1.4,2.1c0-0.7-0.3-1.4-0.3-2.4c-0.3-1.4-0.7-2.7-1.4-4.5l-0.3-0.7
				l-4.1-9.9l-0.3-1c-0.7-1.4-1.4-2.7-1.7-3.8c-0.7-1-1.4-1.7-1.7-2.4c0,0.7,0.3,1.7,0.7,3.1c-1.7,0.3-4.1-1-5.8-3.8
				c0-2.7,0.7-4.8,2.7-5.5s4.1,0,5.8,2.1c1.7,1.7,3.4,4.5,4.8,7.2c0.3,0.3,0.3,1,0.7,1.4l4.8,11.7c0.3,0.7,0.3,1.4,0.7,1.7
				c1,2.7,1.7,5.5,1.7,7.9s-0.7,4.5-2.7,5.5c-1.4,0.7-3.4,0.7-5.8-1.7C835.5,1760.3,836.2,1757.9,837.6,1756.9z"/>
			<path class="st6" d="M825.2,1741.8c2.1,0.7,4.1,1,6.2,0.3l4.1,9.9c-1.7,1-3.1,2.4-4.1,4.5c-0.3-0.7-0.7-1-0.7-1.7l-4.8-11.7
				C825.6,1742.5,825.2,1742.1,825.2,1741.8z"/>
		</g>
		<g>
			<path class="st6" d="M856.1,1827.6l-4.8-11.7c-3.1-7.2-1-14.8,4.5-16.8c5.5-2.4,12,1.7,15.1,8.9l4.8,11.7
				c3.1,7.2,1,14.8-4.5,16.8C865.7,1838.9,858.9,1835.1,856.1,1827.6z M856.1,1813.8l4.8,11.7c2.1,4.8,5.8,6.9,7.9,5.8
				c2.4-1,3.4-5.1,1.4-9.9l-4.8-11.7c-2.1-4.8-5.8-6.9-7.9-5.8C855.4,1804.9,854.4,1809.4,856.1,1813.8z"/>
		</g>
		<g>
			<path class="st6" d="M857.1,1804.2C857.1,1804.2,857.1,1804.6,857.1,1804.2c0.7,1,1,1.4,1.4,2.1c0-0.7-0.3-1.4-0.3-2.4
				c-0.3-1.4-0.7-2.7-1.4-4.5l-0.3-0.7l-4.1-9.9l-0.3-1c-0.7-1.4-1.4-2.7-1.7-3.8c-0.7-1-1-1.7-1.7-2.4c0,0.7,0.3,1.7,0.7,3.1
				c-1.7,0.3-4.1-1-5.8-3.8c0-2.7,0.7-4.8,2.7-5.5c2.1-0.7,4.1,0,5.8,2.1c1.7,1.7,3.4,4.5,4.8,7.2c0.3,0.3,0.3,1,0.7,1.4l4.8,11.7
				c0.3,0.7,0.3,1.4,0.7,1.7c1,2.7,1.7,5.5,1.7,7.9c0,2.4-0.7,4.5-2.7,5.5c-1.4,0.7-3.4,0.7-5.8-1.7
				C855.1,1807.7,855.8,1805.3,857.1,1804.2z"/>
			<path class="st6" d="M844.8,1789.1c2.1,0.7,4.1,1,6.2,0.3l4.1,9.9c-1.7,1-3.1,2.4-4.1,4.5c-0.3-0.7-0.7-1-0.7-1.7l-4.8-11.7
				C844.8,1789.8,844.8,1789.5,844.8,1789.1z"/>
		</g>
		<g>
			<path class="st6" d="M875.7,1875.3l-4.8-11.7c-3.1-7.2-1-14.8,4.5-16.8c5.5-2.4,12,1.7,15.1,8.9l4.8,11.7
				c3.1,7.2,1,14.8-4.5,16.8C885.3,1886.2,878.4,1882.5,875.7,1875.3z M875.7,1861.2l4.8,11.7c2.1,4.8,5.8,6.9,7.9,5.8
				c2.4-1,3.4-5.1,1.4-9.9l-4.8-11.7c-2.1-4.8-5.8-6.9-7.9-5.8C875,1852.3,873.9,1856.7,875.7,1861.2z"/>
		</g>
		<g>
			<path class="st6" d="M876.7,1851.6C876.7,1851.9,876.7,1851.9,876.7,1851.6c0.7,1,1,1.4,1.4,2.1c0-0.7-0.3-1.4-0.3-2.4
				c-0.3-1.4-0.7-2.7-1.4-4.5l-0.3-0.7l-4.1-9.9l-0.3-1c-0.7-1.4-1.4-2.7-1.7-3.8c-0.7-1-1.4-1.7-1.7-2.4c0,0.7,0.3,1.7,0.7,3.1
				c-1.7,0.3-4.1-1-5.8-3.8c0-2.7,0.7-4.8,2.7-5.5c2.1-0.7,4.1,0,5.8,2.1c1.7,1.7,3.4,4.5,4.8,7.2c0.3,0.3,0.3,1,0.7,1.4l4.8,11.7
				c0.3,0.7,0.3,1.4,0.7,1.7c1,2.7,1.7,5.5,1.7,7.9s-0.7,4.5-2.7,5.5c-1.4,0.7-3.4,0.7-5.8-1.7
				C874.3,1855.4,875.3,1852.6,876.7,1851.6z"/>
			<path class="st6" d="M864,1836.5c2.1,0.7,4.1,1,6.2,0.3l4.1,9.9c-1.7,1-3.1,2.4-4.1,4.5c-0.3-0.7-0.7-1-0.7-1.7l-4.8-11.7
				C864.3,1837.5,864.3,1836.8,864,1836.5z"/>
		</g>
		<g>
			<path class="st6" d="M894.9,1922.6l-4.8-11.7c-3.1-7.2-1-14.8,4.5-16.8c5.5-2.4,12,1.7,15.1,8.9l4.8,11.7
				c3.1,7.2,1,14.8-4.5,16.8C904.5,1933.6,898,1929.8,894.9,1922.6z M895.2,1908.9l4.8,11.7c2.1,4.8,5.8,6.9,7.9,5.8
				c2.4-1,3.4-5.1,1.4-9.9l-4.8-11.7c-2.1-4.8-5.8-6.9-7.9-5.8C894.5,1900,893.2,1904.1,895.2,1908.9z"/>
		</g>
		<g>
			<path class="st6" d="M896.2,1899.3L896.2,1899.3c0.7,1,1,1.4,1.4,2.1c0-0.7-0.3-1.4-0.3-2.4c-0.3-1.4-0.7-2.7-1.4-4.5l-0.3-0.7
				l-4.1-10.3l-0.3-1c-0.7-1.4-1.4-2.7-1.7-3.8c-0.7-1-1.4-1.7-1.7-2.4c0,0.7,0.3,1.7,0.7,3.1c-1.7,0.3-4.1-1-5.8-3.8
				c0-2.7,0.7-4.8,2.7-5.5c2.1-0.7,4.1,0,5.8,2.1c1.7,1.7,3.4,4.5,4.8,7.2c0.3,0.3,0.3,1,0.7,1.4l4.8,11.7c0.3,0.7,0.3,1.4,0.7,1.7
				c1,2.7,1.7,5.5,1.7,7.9c0,2.4-0.7,4.5-2.7,5.5c-1.4,0.7-3.4,0.7-5.8-1.7C893.8,1902.7,894.9,1900.3,896.2,1899.3z"/>
			<path class="st6" d="M883.6,1883.8c2.1,0.7,4.1,1,6.2,0.3l4.1,9.9c-1.7,1-3.1,2.4-4.1,4.5c-0.3-0.7-0.7-1-0.7-1.7l-4.8-11.7
				C883.9,1884.9,883.9,1884.2,883.6,1883.8z"/>
		</g>
		<g>
			<path class="st6" d="M914.4,1969.9l-4.8-11.7c-3.1-7.2-1-14.8,4.5-16.8c5.5-2.4,12,1.7,15.1,8.9l4.8,11.7
				c3.1,7.2,1,14.8-4.5,16.8C924,1981.3,917.5,1977.1,914.4,1969.9z M914.8,1956.2l4.8,11.7c2.1,4.8,5.8,6.9,7.9,5.8
				c2.4-1,3.4-5.1,1.4-9.9l-4.8-11.7c-2.1-4.8-5.8-6.9-7.9-5.8S912.7,1951.4,914.8,1956.2z"/>
		</g>
		<g>
			<path class="st6" d="M915.8,1946.6L915.8,1946.6c0.7,1,1,1.4,1.4,2.1c0-0.7-0.3-1.4-0.3-2.4c-0.3-1.4-0.7-2.7-1.4-4.5l-0.3-0.7
				l-4.1-9.9l-0.3-1c-0.7-1.4-1.4-2.7-1.7-3.8c-0.7-1-1.4-1.7-1.7-2.4c0,0.7,0.3,1.7,0.3,3.1c-1.7,0.3-4.1-1-5.8-3.8
				c0-2.7,0.7-4.8,2.7-5.5c2.1-0.7,4.1,0,5.8,2.1c1.7,1.7,3.4,4.5,4.8,7.2c0.3,0.3,0.3,1,0.7,1.4l4.8,11.7c0.3,0.7,0.3,1.4,0.7,1.7
				c1,2.7,1.7,5.5,1.7,7.9s-0.7,4.5-2.7,5.5c-1.4,0.7-3.4,0.7-5.8-1.7C913.4,1950,914.4,1947.6,915.8,1946.6z"/>
			<path class="st6" d="M903.1,1931.2c2.1,0.7,4.1,1,6.2,0.3l4.1,9.9c-1.7,1-3.1,2.4-4.1,4.5c-0.3-0.7-0.7-1-0.7-1.7l-4.8-11.7
				C903.4,1932.2,903.4,1931.9,903.1,1931.2z"/>
		</g>
	</g>
	<g>
		<path class="st7" d="M1223.1,1310.6c0,0-69.3-89.5-168.1-83.4c-99.1,6.2-173.2,112.2-275.8,155.1c-94.7,39.8-94,10.3-94,10.3
			s-7.9,26.4,40.1,16.5c77.9-16.1,169.8-58.3,253.8-87.8c161.2-56.3,243.9,77.2,243.9,77.2L1223.1,1310.6L1223.1,1310.6z"/>
		<path class="st5" d="M1223.1,1323.2c0,0-69.3-89.5-168.1-83.4c-99.1,6.2-172.9,113.2-276.5,153c-101.2,38.8-93.6,1-93.6,1
			s-13.4,27.8,39.4,22c78.9-8.9,171.2-57,254.8-86.5c161.2-56.3,243.9,77.2,243.9,77.2V1323.2z"/>
	</g>
	<g>
		<path class="st6" d="M701.1,1397c-10.3,0-18.5,8.2-18.5,18.5c0,4.8,2.1,9.3,5.1,12.7c0.7-1.7,1.7-3.1,2.7-4.5
			c-1.7-2.4-2.7-5.1-2.7-8.2c0-7.5,6.2-13.7,13.7-13.7c2.1,0,4.1,0.3,5.8,1.4c2.4,0,4.8-0.3,7.5-0.7
			C711,1399.1,706.2,1397,701.1,1397z"/>
		<path class="st6" d="M711.7,1423.8c-1,1.4-2.4,2.4-3.8,3.4c0,0,0,0-0.3,0c-0.3,0.3-1,0.3-1.4,0.7c-1,0.3-2.4,0.7-3.4,1
			c-0.3,0-1,0-1.7,0h-0.3c-0.3,0-0.7,0-1.4,0c0,1.4,0,3.1,0.7,5.1c0.3,0,0.7,0,1,0s0.7,0,0.7,0l0,0c1.7,0,3.8-0.3,5.5-1
			c0.3,0,0.3,0,0.7-0.3c0.7-0.3,1.4-0.7,2.4-1c1.7-1,3.1-2.1,4.5-3.4c3.1-3.1,5.1-7.5,5.1-12.4c-1.7,0-3.4,0.3-5.1,0.3
			C714.5,1419,713.4,1421.7,711.7,1423.8z"/>
		<path class="st6" d="M692.2,1432c0.7,0.3,1,0.7,1.7,0.7c-0.3-1-0.3-2.1-0.3-3.1C693.2,1430.3,692.8,1431,692.2,1432z"/>
	</g>
	<g>
		<g>
			<path class="st6" d="M1814.8,1448.5l-4.8-11.7c-3.1-7.2-1-14.8,4.5-16.8c5.5-2.4,12,1.7,15.1,8.9l4.8,11.7
				c3.1,7.2,1,14.8-4.5,16.8C1824.4,1459.4,1817.9,1455.7,1814.8,1448.5z M1815.1,1434.7l4.8,11.7c2.1,4.8,5.8,6.9,7.9,5.8
				c2.4-1,3.4-5.1,1.4-9.9l-4.8-11.7c-2.1-4.8-5.8-6.9-7.9-5.8C1814.4,1425.8,1813.1,1429.9,1815.1,1434.7z"/>
		</g>
		<g>
			<path class="st6" d="M1834.3,1495.8l-4.8-11.7c-3.1-7.2-1-14.8,4.5-16.8c5.5-2.4,12,1.7,15.1,8.9l4.8,11.7
				c3.1,7.2,1,14.8-4.5,16.8C1843.9,1507.1,1837.4,1503,1834.3,1495.8z M1834.7,1482.1l4.8,11.7c2.1,4.8,5.8,6.9,7.9,5.8
				c2.4-1,3.4-5.1,1.4-9.9l-4.8-11.7c-2.1-4.8-5.8-6.9-7.9-5.8C1834,1473.2,1832.6,1477.3,1834.7,1482.1z"/>
		</g>
		<g>
			<path class="st6" d="M1835.7,1472.5L1835.7,1472.5c0.7,1,1,1.4,1.4,2.1c0-0.7-0.3-1.4-0.3-2.4c-0.3-1.4-0.7-2.7-1.4-4.5l-0.3-0.7
				l-4.1-9.9l-0.3-1c-0.7-1.4-1.4-2.7-1.7-3.8c-0.7-1-1.4-1.7-1.7-2.4c0,0.7,0.3,1.7,0.3,3.1c-1.7,0.3-4.1-1-5.8-3.8
				c0-2.7,0.7-4.8,2.7-5.5c2.1-0.7,4.1,0,5.8,2.1c1.7,1.7,3.4,4.5,4.8,7.2c0.3,0.3,0.3,1,0.7,1.4l4.8,11.7c0.3,0.7,0.3,1.4,0.7,1.7
				c1,2.7,1.7,5.5,1.7,7.9c0,2.4-0.7,4.5-2.7,5.5c-1.4,0.7-3.4,0.7-5.8-1.7C1833.3,1475.9,1834.3,1473.5,1835.7,1472.5z"/>
			<path class="st6" d="M1823,1457c2.1,0.7,4.1,1,6.2,0.3l4.1,9.9c-1.7,1-3.1,2.4-4.1,4.5c-0.3-0.7-0.7-1-0.7-1.7l-4.8-11.7
				C1823.4,1458.1,1823.4,1457.7,1823,1457z"/>
		</g>
		<g>
			<path class="st6" d="M1853.9,1543.2l-4.8-11.7c-3.1-7.2-1-14.8,4.5-16.8c5.5-2.4,12,1.7,15.1,8.9l4.8,11.7
				c3.1,7.2,1,14.8-4.5,16.8C1863.5,1554.5,1857,1550.4,1853.9,1543.2z M1854.2,1529.4l4.8,11.7c2.1,4.8,5.8,6.9,7.9,5.8
				c2.4-1,3.4-5.1,1.4-9.9l-4.8-11.7c-2.1-4.8-5.8-6.9-7.9-5.8C1853.5,1520.5,1852.2,1524.6,1854.2,1529.4z"/>
		</g>
		<g>
			<path class="st6" d="M1855.3,1519.8L1855.3,1519.8c0.7,1,1,1.4,1.4,2.1c0-0.7-0.3-1.4-0.3-2.4c-0.3-1.4-0.7-2.7-1.4-4.5l-0.3-0.7
				l-4.1-9.9l-0.3-1c-0.7-1.4-1.4-2.7-1.7-3.8c-0.7-1-1.4-1.7-1.7-2.4c0,0.7,0.3,1.7,0.7,3.1c-1.7,0.3-4.1-1-5.8-3.8
				c0-2.7,0.7-4.8,2.7-5.5s4.1,0,5.8,2.1c1.7,1.7,3.4,4.5,4.8,7.2c0.3,0.3,0.3,1,0.7,1.4l4.8,11.7c0.3,0.7,0.3,1.4,0.7,1.7
				c1,2.7,1.7,5.5,1.7,7.9c0,2.4-0.7,4.5-2.7,5.5c-1.4,0.7-3.4,0.7-5.8-1.7C1852.8,1523.3,1853.9,1520.9,1855.3,1519.8z"/>
			<path class="st6" d="M1842.6,1504.7c2.1,0.7,4.1,1,6.2,0.3l4.1,9.9c-1.7,1-3.1,2.4-4.1,4.5c-0.3-0.7-0.7-1-0.7-1.7l-4.8-11.7
				C1842.9,1505.4,1842.9,1505.1,1842.6,1504.7z"/>
		</g>
		<g>
			<path class="st6" d="M1873.4,1590.5l-4.8-11.7c-3.1-7.2-1-14.8,4.5-16.8c5.5-2.4,12,1.7,15.1,8.9l4.8,11.7
				c3.1,7.2,1,14.8-4.5,16.8C1883,1601.8,1876.5,1598,1873.4,1590.5z M1873.8,1576.8l4.8,11.7c2.1,4.8,5.8,6.9,7.9,5.8
				s3.4-5.1,1.4-9.9l-4.8-11.7c-2.1-4.8-5.8-6.9-7.9-5.8C1872.7,1567.9,1871.7,1572.3,1873.8,1576.8z"/>
		</g>
		<g>
			<path class="st6" d="M1874.8,1567.2C1874.8,1567.2,1874.8,1567.5,1874.8,1567.2c0.7,1,1,1.4,1.4,2.1c0-0.7-0.3-1.4-0.3-2.4
				c-0.3-1.4-0.7-2.7-1.4-4.5l-0.3-0.7l-4.1-9.9l-0.3-1c-0.7-1.4-1.4-2.7-1.7-3.8c-0.7-1-1-1.7-1.7-2.4c0,0.7,0.3,1.7,0.7,3.1
				c-1.7,0.3-4.1-1-5.8-3.8c0-2.7,0.7-4.8,2.7-5.5c2.1-0.7,4.1,0,5.8,2.1c1.7,1.7,3.4,4.5,4.8,7.2c0.3,0.3,0.3,1,0.7,1.4l4.8,11.7
				c0.3,0.7,0.3,1.4,0.7,1.7c1,2.7,1.7,5.5,1.7,7.9c0,2.4-0.7,4.5-2.7,5.5c-1.4,0.7-3.4,0.7-5.8-1.7
				C1872.4,1570.6,1873.1,1568.2,1874.8,1567.2z"/>
			<path class="st6" d="M1862.1,1552.1c2.1,0.7,4.1,1,6.2,0.3l4.1,9.9c-1.7,1-3.1,2.4-4.1,4.5c-0.3-0.7-0.7-1-0.7-1.7l-4.8-11.7
				C1862.5,1552.8,1862.1,1552.4,1862.1,1552.1z"/>
		</g>
		<g>
			<path class="st6" d="M1893,1638.2l-4.8-11.7c-3.1-7.2-1-14.8,4.5-16.8c5.5-2.4,12,1.7,15.1,8.9l4.8,11.7c3.1,7.2,1,14.8-4.5,16.8
				S1896.1,1645.4,1893,1638.2z M1893.3,1624.1l4.8,11.7c2.1,4.8,5.8,6.9,7.9,5.8c2.4-1,3.4-5.1,1.4-9.9l-4.8-11.7
				c-2.1-4.8-5.8-6.9-7.9-5.8C1892.3,1615.2,1891.3,1619.7,1893.3,1624.1z"/>
		</g>
		<g>
			<path class="st6" d="M1894,1614.9C1894.4,1614.9,1894.4,1614.9,1894,1614.9c0.7,1,1,1.4,1.4,2.1c0-0.7-0.3-1.4-0.3-2.4
				c-0.3-1.4-0.7-2.7-1.4-4.5l-0.3-0.7l-4.1-9.9l-0.3-1c-0.7-1.4-1.4-2.7-1.7-3.8c-0.7-1-1.4-1.7-1.7-2.4c0,0.7,0.3,1.7,0.3,3.1
				c-1.7,0.3-4.1-1-5.8-3.8c0-2.7,0.7-4.8,2.7-5.5c2.1-0.7,4.1,0,5.8,2.1c1.7,1.7,3.4,4.5,4.8,7.2c0.3,0.3,0.3,1,0.7,1.4l4.8,11.7
				c0.3,0.7,0.3,1.4,0.7,1.7c1,2.7,1.7,5.5,1.7,7.9c0,2.4-0.7,4.5-2.7,5.5c-1.4,0.7-3.4,0.7-5.8-1.7
				C1892,1618.3,1892.6,1615.5,1894,1614.9z"/>
			<path class="st6" d="M1881.7,1599.4c2.1,0.7,4.1,1,6.2,0.3l4.1,9.9c-1.7,1-3.1,2.4-4.1,4.5c-0.3-0.7-0.7-1-0.7-1.7l-4.8-11.7
				C1882,1600.4,1881.7,1599.8,1881.7,1599.4z"/>
		</g>
		<g>
			<path class="st6" d="M1912.5,1685.5l-4.8-11.7c-3.1-7.2-1-14.8,4.5-16.8c5.5-2.4,12,1.7,15.1,8.9l4.8,11.7
				c3.1,7.2,1,14.8-4.5,16.8S1915.6,1692.7,1912.5,1685.5z M1912.5,1671.8l4.8,11.7c2.1,4.8,5.8,6.9,7.9,5.8c2.4-1,3.4-5.1,1.4-9.9
				l-4.8-11.7c-2.1-4.8-5.8-6.9-7.9-5.8C1911.8,1662.9,1910.8,1667,1912.5,1671.8z"/>
		</g>
		<g>
			<path class="st6" d="M1913.6,1662.2C1913.6,1662.2,1913.9,1662.2,1913.6,1662.2c0.7,1,1,1.4,1.4,2.1c0-0.7-0.3-1.4-0.3-2.4
				c-0.3-1.4-0.7-2.7-1.4-4.5l-0.3-0.7l-4.1-9.9l-0.3-1c-0.7-1.4-1.4-2.7-1.7-3.8c-0.7-1-1.4-1.7-1.7-2.4c0,0.7,0.3,1.7,0.7,3.1
				c-1.7,0.3-4.1-1-5.8-3.8c0-2.7,0.7-4.8,2.7-5.5c2.1-0.7,4.1,0,5.8,2.1c1.7,1.7,3.4,4.5,4.8,7.2c0.3,0.3,0.3,1,0.7,1.4l4.8,11.7
				c0.3,0.7,0.3,1.4,0.7,1.7c1,2.7,1.7,5.5,1.7,7.9s-0.7,4.5-2.7,5.5c-1.4,0.7-3.4,0.7-5.8-1.7
				C1911.5,1665.6,1912.2,1663.2,1913.6,1662.2z"/>
			<path class="st6" d="M1901.2,1646.8c2.1,0.7,4.1,1,6.2,0.3l4.1,9.9c-1.7,1-3.1,2.4-4.1,4.5c-0.3-0.7-0.7-1-0.7-1.7l-4.8-11.7
				C1901.6,1647.8,1901.2,1647.1,1901.2,1646.8z"/>
		</g>
		<g>
			<path class="st6" d="M1932.1,1732.9l-4.8-11.7c-3.1-7.2-1-14.8,4.5-16.8c5.5-2.4,12,1.7,15.1,8.9l4.8,11.7
				c3.1,7.2,1,14.8-4.5,16.8C1941.7,1744.2,1934.8,1740.1,1932.1,1732.9z M1932.1,1719.2l4.8,11.7c2.1,4.8,5.8,6.9,7.9,5.8
				c2.1-1,3.4-5.1,1.4-9.9l-4.8-11.7c-2.1-4.8-5.8-6.9-7.9-5.8C1931.4,1710.2,1930.4,1714.4,1932.1,1719.2z"/>
		</g>
		<g>
			<path class="st6" d="M1933.1,1709.5L1933.1,1709.5c0.7,1,1,1.4,1.4,2.1c0-0.7-0.3-1.4-0.3-2.4c-0.3-1.4-0.7-2.7-1.4-4.5l-0.3-0.7
				l-4.1-9.9l-0.3-1c-0.7-1.4-1.4-2.7-1.7-3.8c-0.7-1-1.4-1.7-1.7-2.4c0,0.7,0.3,1.7,0.7,3.1c-1.7,0.3-4.1-1-5.8-3.8
				c0-2.7,0.7-4.8,2.7-5.5c2.1-0.7,4.1,0,5.8,2.1c1.7,1.7,3.4,4.5,4.8,7.2c0.3,0.3,0.3,1,0.7,1.4l4.8,11.7c0.3,0.7,0.3,1.4,0.7,1.7
				c1,2.7,1.7,5.5,1.7,7.9c0,2.4-0.7,4.5-2.7,5.5c-1.4,0.7-3.4,0.7-5.8-1.7C1931.1,1713,1931.7,1710.6,1933.1,1709.5z"/>
			<path class="st6" d="M1920.8,1694.1c2.1,0.7,4.1,1,6.2,0.3l4.1,9.9c-1.7,1-3.1,2.4-4.1,4.5c-0.3-0.7-0.7-1-0.7-1.7l-4.8-11.7
				C1921.1,1695.1,1920.8,1694.8,1920.8,1694.1z"/>
		</g>
		<g>
			<path class="st6" d="M1951.6,1780.2l-4.8-11.7c-3.1-7.2-1-14.8,4.5-16.8c5.5-2.4,12,1.7,15.1,8.9l4.8,11.7
				c3.1,7.2,1,14.8-4.5,16.8C1961.2,1791.5,1954.4,1787.4,1951.6,1780.2z M1951.6,1766.5l4.8,11.7c2.1,4.8,5.8,6.9,7.9,5.8
				c2.4-1,3.4-5.1,1.4-9.9l-4.8-11.7c-2.1-4.8-5.8-6.9-7.9-5.8C1950.9,1757.6,1949.9,1761.7,1951.6,1766.5z"/>
		</g>
		<g>
			<path class="st6" d="M1952.7,1756.9L1952.7,1756.9c0.7,1,1,1.4,1.4,2.1c0-0.7-0.3-1.4-0.3-2.4c-0.3-1.4-0.7-2.7-1.4-4.5l-0.3-0.7
				l-4.1-9.9l-0.3-1c-0.7-1.4-1.4-2.7-1.7-3.8c-0.7-1-1-1.7-1.7-2.4c0,0.7,0.3,1.7,0.3,3.1c-1.7,0.3-4.1-1-5.8-3.8
				c0-2.7,0.7-4.8,2.7-5.5c2.1-0.7,4.1,0,5.8,2.1c1.7,1.7,3.4,4.5,4.8,7.2c0.3,0.3,0.3,1,0.7,1.4l4.8,11.7c0.3,0.7,0.3,1.4,0.7,1.7
				c1,2.7,1.7,5.5,1.7,7.9s-0.7,4.5-2.7,5.5c-1.4,0.7-3.4,0.7-5.8-1.7C1950.6,1760.3,1951.3,1757.9,1952.7,1756.9z"/>
			<path class="st6" d="M1940.3,1741.8c2.1,0.7,4.1,1,6.2,0.3l4.1,9.9c-1.7,1-3.1,2.4-4.1,4.5c-0.3-0.7-0.7-1-0.7-1.7l-4.8-11.7
				C1940.7,1742.5,1940.3,1742.1,1940.3,1741.8z"/>
		</g>
		<g>
			<path class="st6" d="M1971.2,1827.6l-4.8-11.7c-3.1-7.2-1-14.8,4.5-16.8c5.5-2.4,12,1.7,15.1,8.9l4.8,11.7
				c3.1,7.2,1,14.8-4.5,16.8C1980.8,1838.9,1973.9,1835.1,1971.2,1827.6z M1971.2,1813.8l4.8,11.7c2.1,4.8,5.8,6.9,7.9,5.8
				c2.4-1,3.4-5.1,1.4-9.9l-4.8-11.7c-2.1-4.8-5.8-6.9-7.9-5.8C1970.5,1804.9,1969.5,1809.4,1971.2,1813.8z"/>
		</g>
		<g>
			<path class="st6" d="M1972.2,1804.2C1972.2,1804.2,1972.2,1804.6,1972.2,1804.2c0.7,1,1,1.4,1.4,2.1c0-0.7-0.3-1.4-0.3-2.4
				c-0.3-1.4-0.7-2.7-1.4-4.5l-0.3-0.7l-4.1-9.9l-0.3-1c-0.7-1.4-1.4-2.7-1.7-3.8c-0.7-1-1-1.7-1.7-2.4c0,0.7,0.3,1.7,0.7,3.1
				c-1.7,0.3-4.1-1-5.8-3.8c0-2.7,0.7-4.8,2.7-5.5c2.1-0.7,4.1,0,5.8,2.1c1.7,1.7,3.4,4.5,4.8,7.2c0.3,0.3,0.3,1,0.7,1.4l4.8,11.7
				c0.3,0.7,0.3,1.4,0.7,1.7c1,2.7,1.7,5.5,1.7,7.9c0,2.4-0.7,4.5-2.7,5.5c-1.4,0.7-3.4,0.7-5.8-1.7
				C1969.8,1807.7,1970.8,1805.3,1972.2,1804.2z"/>
			<path class="st6" d="M1959.5,1789.1c2.1,0.7,4.1,1,6.2,0.3l4.1,9.9c-1.7,1-3.1,2.4-4.1,4.5c-0.3-0.7-0.7-1-0.7-1.7l-4.8-11.7
				C1959.9,1789.8,1959.9,1789.5,1959.5,1789.1z"/>
		</g>
		<g>
			<path class="st6" d="M1990.4,1875.3l-4.8-11.7c-3.1-7.2-1-14.8,4.5-16.8c5.5-2.4,12,1.7,15.1,8.9l4.8,11.7
				c3.1,7.2,1,14.8-4.5,16.8S1993.5,1882.5,1990.4,1875.3z M1990.7,1861.2l4.8,11.7c2.1,4.8,5.8,6.9,7.9,5.8c2.4-1,3.4-5.1,1.4-9.9
				l-4.8-11.7c-2.1-4.8-5.8-6.9-7.9-5.8C1990,1852.3,1988.7,1856.7,1990.7,1861.2z"/>
		</g>
		<g>
			<path class="st6" d="M1991.8,1851.6C1991.8,1851.9,1991.8,1851.9,1991.8,1851.6c0.7,1,1,1.4,1.4,2.1c0-0.7-0.3-1.4-0.3-2.4
				c-0.3-1.4-0.7-2.7-1.4-4.5l-0.3-0.7l-4.1-9.9l-0.3-1c-0.7-1.4-1.4-2.7-1.7-3.8c-0.7-1-1-1.7-1.7-2.4c0,0.7,0.3,1.7,0.7,3.1
				c-1.7,0.3-4.1-1-5.8-3.8c0-2.7,0.7-4.8,2.7-5.5c2.1-0.7,4.1,0,5.8,2.1c1.7,1.7,3.4,4.5,4.8,7.2c0.3,0.3,0.3,1,0.7,1.4l4.8,11.7
				c0.3,0.7,0.3,1.4,0.7,1.7c1,2.7,1.7,5.5,1.7,7.9s-0.7,4.5-2.7,5.5c-1.4,0.7-3.4,0.7-5.8-1.7
				C1989.4,1855.4,1990.4,1852.6,1991.8,1851.6z"/>
			<path class="st6" d="M1979.1,1836.5c2.1,0.7,4.1,1,6.2,0.3l4.1,9.9c-1.7,1-3.1,2.4-4.1,4.5c-0.3-0.7-0.7-1-0.7-1.7l-4.8-11.7
				C1979.4,1837.5,1979.4,1836.8,1979.1,1836.5z"/>
		</g>
		<g>
			<path class="st6" d="M2009.9,1922.6l-4.8-11.7c-3.1-7.2-1-14.8,4.5-16.8c5.5-2.4,12,1.7,15.1,8.9l4.8,11.7
				c3.1,7.2,1,14.8-4.5,16.8C2019.5,1933.6,2013,1929.8,2009.9,1922.6z M2010.3,1908.9l4.8,11.7c2.1,4.8,5.8,6.9,7.9,5.8
				c2.4-1,3.4-5.1,1.4-9.9l-4.8-11.7c-2.1-4.8-5.8-6.9-7.9-5.8C2009.6,1900,2008.2,1904.1,2010.3,1908.9z"/>
		</g>
		<g>
			<path class="st6" d="M2011.3,1899.3L2011.3,1899.3c0.7,1,1,1.4,1.4,2.1c0-0.7-0.3-1.4-0.3-2.4c-0.3-1.4-0.7-2.7-1.4-4.5l-0.3-0.7
				l-4.1-9.9l-0.3-1c-0.7-1.4-1.4-2.7-1.7-3.8c-0.7-1-1.4-1.7-1.7-2.4c0,0.7,0.3,1.7,0.3,3.1c-1.7,0.3-4.1-1-5.8-3.8
				c0-2.7,0.7-4.8,2.7-5.5c2.1-0.7,4.1,0,5.8,2.1c1.7,1.7,3.4,4.5,4.8,7.2c0.3,0.3,0.3,1,0.7,1.4l4.8,11.7c0.3,0.7,0.3,1.4,0.7,1.7
				c1,2.7,1.7,5.5,1.7,7.9c0,2.4-0.7,4.5-2.7,5.5c-1.4,0.7-3.4,0.7-5.8-1.7C2008.9,1902.7,2009.9,1900.3,2011.3,1899.3z"/>
			<path class="st6" d="M1998.6,1883.8c2.1,0.7,4.1,1,6.2,0.3l4.1,9.9c-1.7,1-3.1,2.4-4.1,4.5c-0.3-0.7-0.7-1-0.7-1.7l-4.8-11.7
				C1999,1884.9,1999,1884.2,1998.6,1883.8z"/>
		</g>
		<g>
			<path class="st6" d="M2029.5,1969.9l-4.8-11.7c-3.1-7.2-1-14.8,4.5-16.8c5.5-2.4,12,1.7,15.1,8.9l4.8,11.7
				c3.1,7.2,1,14.8-4.5,16.8C2039.1,1981.3,2032.6,1977.1,2029.5,1969.9z M2029.8,1956.2l4.8,11.7c2.1,4.8,5.8,6.9,7.9,5.8
				c2.4-1,3.4-5.1,1.4-9.9l-4.8-11.7c-2.1-4.8-5.8-6.9-7.9-5.8C2029.1,1947.3,2027.8,1951.4,2029.8,1956.2z"/>
		</g>
		<g>
			<path class="st6" d="M2030.9,1946.6L2030.9,1946.6c0.7,1,1,1.4,1.4,2.1c0-0.7-0.3-1.4-0.3-2.4c-0.3-1.4-0.7-2.7-1.4-4.5l-0.3-0.7
				l-4.1-9.9l-0.3-1c-0.7-1.4-1.4-2.7-1.7-3.8c-0.7-1-1.4-1.7-1.7-2.4c0,0.7,0.3,1.7,0.3,3.1c-1.7,0.3-4.1-1-5.8-3.8
				c0-2.7,0.7-4.8,2.7-5.5c2.1-0.7,4.1,0,5.8,2.1c1.7,1.7,3.4,4.5,4.8,7.2c0.3,0.3,0.3,1,0.7,1.4l4.8,11.7c0.3,0.7,0.3,1.4,0.7,1.7
				c1,2.7,1.7,5.5,1.7,7.9s-0.7,4.5-2.7,5.5c-1.4,0.7-3.4,0.7-5.8-1.7C2028.5,1950,2029.5,1947.6,2030.9,1946.6z"/>
			<path class="st6" d="M2018.2,1931.2c2.1,0.7,4.1,1,6.2,0.3l4.1,9.9c-1.7,1-3.1,2.4-4.1,4.5c-0.3-0.7-0.7-1-0.7-1.7l-4.8-11.7
				C2018.5,1932.2,2018.5,1931.9,2018.2,1931.2z"/>
		</g>
	</g>
	<g>
		<g>
			<path class="st6" d="M1812.4,1450.2l-2.4-12.4c-1.7-7.5,1.7-14.4,7.5-15.8c5.8-1.4,11.7,3.8,13,11.3l2.4,12.4
				c1.7,7.5-1.7,14.4-7.5,15.8C1819.9,1462.5,1814.1,1457.7,1812.4,1450.2z M1815.1,1436.8l2.4,12.4c1,4.8,4.5,7.9,6.9,7.2
				c2.4-0.3,4.5-4.5,3.4-9.3l-2.4-12.4c-1-4.8-4.5-7.5-6.9-7.2C1816.1,1427.9,1814.1,1431.7,1815.1,1436.8z"/>
		</g>
		<g>
			<path class="st6" d="M1822.7,1499.9l-2.4-12.4c-1.7-7.5,1.7-14.4,7.5-15.8s11.7,3.8,13,11.3l2.4,12.4c1.7,7.5-1.7,14.4-7.5,15.8
				C1830.2,1512.3,1824.4,1507.5,1822.7,1499.9z M1825.4,1486.5l2.4,12.4c1,4.8,4.5,7.9,6.9,7.2c2.4-0.3,4.5-4.5,3.4-9.3l-2.4-12.4
				c-1-4.8-4.5-7.5-6.9-7.2C1826.4,1477.6,1824.7,1481.4,1825.4,1486.5z"/>
		</g>
		<g>
			<path class="st6" d="M1828.2,1477.3C1828.5,1477.3,1828.5,1477.3,1828.2,1477.3c0.3,1,0.7,1.7,1,2.1c0-0.7,0-1.4,0-2.4
				c0-1.4-0.3-2.7-0.7-4.8v-0.7l-2.1-10.6l-0.3-1c-0.3-1.7-0.7-2.7-1-4.1c-0.3-1-0.7-2.1-1.4-2.7c0,0.7,0,1.7,0,3.1
				c-1.7,0-3.8-1.7-5.1-4.5c0.3-2.7,1.7-4.5,3.8-5.1c2.1-0.3,4.1,1,5.5,3.1c1.4,2.1,2.4,4.8,3.1,7.9c0,0.3,0.3,1,0.3,1.4l2.4,12.4
				c0,0.7,0.3,1.4,0.3,2.1c0.3,2.7,0.7,5.8,0,8.2c-0.7,2.4-1.7,4.5-3.8,4.8c-1.4,0.3-3.4,0-5.5-2.7
				C1825.4,1480,1826.8,1478,1828.2,1477.3z"/>
			<path class="st6" d="M1818.9,1460.1c1.7,1,3.8,1.7,5.8,1.4l2.1,10.6c-2.1,0.7-3.4,2.1-4.8,3.8c0-0.7-0.3-1.4-0.3-2.1l-2.4-12.4
				C1818.9,1461.2,1818.9,1460.5,1818.9,1460.1z"/>
		</g>
		<g>
			<path class="st6" d="M1833.3,1549.7l-2.4-12.4c-1.7-7.5,1.7-14.4,7.5-15.8c5.8-1.4,11.7,3.8,13,11.3l2.4,12.4
				c1.7,7.5-1.7,14.4-7.5,15.8C1840.5,1562,1834.7,1557.2,1833.3,1549.7z M1836,1536.3l2.4,12.4c1,4.8,4.5,7.9,6.9,7.2
				c2.4-0.3,4.5-4.5,3.4-9.3l-2.4-12.4c-1-4.8-4.5-7.5-6.9-7.2C1836.7,1527.4,1835,1531.1,1836,1536.3z"/>
		</g>
		<g>
			<path class="st6" d="M1838.8,1527L1838.8,1527c0.3,1,0.7,1.7,1,2.1c0-0.7,0-1.4,0-2.4c0-1.4-0.3-2.7-0.7-4.8v-0.7l-2.1-10.6
				l-0.3-1.4c-0.3-1.7-0.7-2.7-1-4.1c-0.3-1-0.7-2.1-1.4-2.7c0,0.7,0,1.7,0,3.1c-1.7,0-3.8-1.7-5.1-4.5c0.3-2.7,1.7-4.5,3.8-5.1
				c2.1-0.3,4.1,1,5.5,3.1c1.4,2.1,2.4,4.8,3.1,7.9c0,0.3,0.3,1,0.3,1.4l2.4,12.4c0,0.7,0.3,1.4,0.3,2.1c0.3,2.7,0.7,5.8,0,8.2
				s-1.7,4.5-3.8,4.8c-1.4,0.3-3.4,0-5.5-2.7C1835.7,1529.8,1837.1,1527.7,1838.8,1527z"/>
			<path class="st6" d="M1829.2,1509.9c1.7,1,3.8,1.7,5.8,1.4l2.1,10.6c-2.1,0.7-3.4,2.1-4.8,3.8c0-0.7-0.3-1.4-0.3-2.1l-2.4-12.4
				C1829.2,1510.9,1829.2,1510.2,1829.2,1509.9z"/>
		</g>
		<g>
			<path class="st6" d="M1843.6,1599.4l-2.4-12.4c-1.7-7.5,1.7-14.4,7.5-15.8c5.8-1.4,11.7,3.8,13,11.3l2.4,12.4
				c1.7,7.5-1.7,14.4-7.5,15.8C1850.8,1611.8,1845,1607,1843.6,1599.4z M1846.3,1586l2.4,12.4c1,4.8,4.5,7.9,6.9,7.2
				c2.4-0.3,4.5-4.5,3.4-9.3l-2.4-12.4c-1-4.8-4.5-7.5-6.9-7.2C1847,1577.1,1845.3,1580.9,1846.3,1586z"/>
		</g>
		<g>
			<path class="st6" d="M1849.1,1576.8L1849.1,1576.8c0.3,1,0.7,1.7,1,2.1c0-0.7,0-1.4,0-2.4c0-1.4-0.3-2.7-0.7-4.8v-0.7l-2.1-10.6
				l-0.3-1.4c-0.3-1.7-0.7-2.7-1-4.1c-0.3-1-0.7-2.1-1.4-2.7c0,0.7,0,1.7,0,3.1c-1.7,0-3.8-1.7-5.1-4.5c0.3-2.7,1.7-4.5,3.8-5.1
				c2.1-0.3,4.1,1,5.5,3.1s2.4,4.8,3.1,7.9c0,0.3,0.3,1,0.3,1.4l2.4,12.4c0,0.7,0.3,1.4,0.3,2.1c0.3,2.7,0.7,5.8,0,8.2
				c-0.7,2.4-1.7,4.5-3.8,4.8c-1.4,0.3-3.4,0-5.5-2.7C1846,1579.9,1847.4,1577.5,1849.1,1576.8z"/>
			<path class="st6" d="M1839.5,1559.6c1.7,1,3.8,1.7,5.8,1.4l2.1,10.6c-2.1,0.7-3.4,2.1-4.8,3.8c0-0.7-0.3-1.4-0.3-2.1l-2.4-12.4
				C1839.8,1560.7,1839.5,1560,1839.5,1559.6z"/>
		</g>
		<g>
			<path class="st6" d="M1853.9,1649.2l-2.4-12.4c-1.7-7.5,1.7-14.4,7.5-15.8s11.7,3.8,13,11.3l2.4,12.4c1.7,7.5-1.7,14.4-7.5,15.8
				C1861.1,1661.5,1855.3,1656.7,1853.9,1649.2z M1856.6,1635.8l2.4,12.4c1,4.8,4.5,7.9,6.9,7.2c2.4-0.3,4.5-4.5,3.4-9.3l-2.4-12.4
				c-1-4.8-4.5-7.5-6.9-7.2C1857.7,1626.9,1855.6,1630.6,1856.6,1635.8z"/>
		</g>
		<g>
			<path class="st6" d="M1859.4,1626.5L1859.4,1626.5c0.3,1,0.7,1.7,1,2.1c0-0.7,0-1.4,0-2.4c0-1.4-0.3-2.7-0.7-4.8v-0.7l-2.1-10.6
				l-0.3-1c-0.3-1.7-0.7-2.7-1-4.1c-0.3-1-0.7-2.1-1.4-2.7c0,0.7,0,1.7,0,3.1c-1.7,0-3.8-1.7-5.1-4.5c0.3-2.7,1.7-4.5,3.8-5.1
				c2.1-0.3,4.1,1,5.5,3.1s2.4,4.8,3.1,7.9c0,0.3,0.3,1,0.3,1.4l2.4,12.4c0,0.7,0.3,1.4,0.3,2.1c0.3,2.7,0.7,5.8,0,8.2
				c-0.7,2.4-1.7,4.5-3.8,4.8c-1.4,0.3-3.4,0-5.5-2.7C1856.6,1629.6,1857.7,1627.2,1859.4,1626.5z"/>
			<path class="st6" d="M1849.8,1609.4c1.7,1,3.8,1.7,5.8,1.4l2.1,10.6c-2.1,0.7-3.4,2.1-4.8,3.8c0-0.7-0.3-1.4-0.3-2.1l-2.4-12.4
				C1850.1,1610.4,1849.8,1609.7,1849.8,1609.4z"/>
		</g>
		<g>
			<path class="st6" d="M1864.2,1698.9l-2.4-12.4c-1.7-7.5,1.7-14.4,7.5-15.8c5.8-1.4,11.7,3.8,13,11.3l2.4,12.4
				c1.7,7.5-1.7,14.4-7.5,15.8C1871.4,1711.3,1865.9,1706.5,1864.2,1698.9z M1866.9,1685.5l2.4,12.4c1,4.8,4.5,7.9,6.9,7.2
				c2.4-0.3,4.1-4.5,3.4-9.3l-2.4-12.4c-1-4.8-4.5-7.9-6.9-7.2C1867.9,1676.6,1865.9,1680.4,1866.9,1685.5z"/>
		</g>
		<g>
			<path class="st6" d="M1869.7,1676.3L1869.7,1676.3c0.3,1,0.7,1.7,1,2.1c0-0.7,0-1.4,0-2.4c0-1.4-0.3-2.7-0.7-4.8v-0.7l-2.1-10.6
				l-0.3-1c-0.3-1.7-0.7-2.7-1-4.1c-0.3-1-0.7-2.1-1.4-2.7c0,0.7,0,1.7,0,3.1c-1.7,0-3.8-1.7-5.1-4.5c0.3-2.7,1.7-4.5,3.8-5.1
				c2.1-0.3,4.1,1,5.5,3.1s2.4,4.8,3.1,7.9c0,0.3,0.3,1,0.3,1.4l2.4,12.4c0,0.7,0.3,1.4,0.3,2.1c0.3,2.7,0.7,5.8,0,8.2
				c-0.7,2.4-1.7,4.5-3.8,4.8c-1.4,0.3-3.4,0-5.5-2.7C1866.9,1679.4,1867.9,1677,1869.7,1676.3z"/>
			<path class="st6" d="M1860.1,1659.1c1.7,1,3.8,1.7,5.8,1.4l2.1,10.6c-2.1,0.7-3.4,2.1-4.8,3.8c0-0.7-0.3-1.4-0.3-2.1l-2.4-12.4
				C1860.4,1660.1,1860.4,1659.5,1860.1,1659.1z"/>
		</g>
		<g>
			<path class="st6" d="M1874.5,1748.7l-2.4-12.4c-1.7-7.5,1.7-14.4,7.5-15.8s11.7,3.8,13,11.3l2.4,12.4c1.7,7.5-1.7,14.4-7.5,15.8
				C1882,1761,1876.2,1756.2,1874.5,1748.7z M1877.2,1735.3l2.4,12.4c1,4.8,4.5,7.9,6.9,7.2c2.4-0.3,4.1-4.5,3.4-9.3l-2.4-12.4
				c-1-4.8-4.5-7.5-6.9-7.2S1876.2,1730.1,1877.2,1735.3z"/>
		</g>
		<g>
			<path class="st6" d="M1879.9,1726L1879.9,1726c0.3,1,0.7,1.7,1,2.1c0-0.7,0-1.4,0-2.4c0-1.4-0.3-2.7-0.7-4.8v-0.7l-2.1-10.6
				l-0.3-1c-0.3-1.7-0.7-2.7-1-4.1c-0.3-1-0.7-2.1-1.4-2.7c0,0.7,0,1.7,0,3.1c-1.7,0-3.8-1.7-5.1-4.5c0.3-2.7,1.7-4.5,3.8-5.1
				c2.1-0.3,4.1,1,5.5,3.1s2.4,4.8,3.1,7.9c0,0.3,0.3,1,0.3,1.4l2.4,12.4c0,0.7,0.3,1.4,0.3,2.1c0.3,2.7,0.7,5.8,0,8.2
				c-0.7,2.4-1.7,4.5-3.8,4.8c-1.4,0.3-3.4,0-5.5-2.7C1877.2,1729.1,1878.6,1726.7,1879.9,1726z"/>
			<path class="st6" d="M1870.7,1708.9c1.7,1,3.8,1.7,5.8,1.4l2.1,10.6c-2.1,0.7-3.4,2.1-4.8,3.8c0-0.7-0.3-1.4-0.3-2.1l-2.4-12.4
				C1870.7,1709.9,1870.7,1709.2,1870.7,1708.9z"/>
		</g>
		<g>
			<path class="st6" d="M1884.7,1798.4l-2.4-12.4c-1.7-7.5,1.7-14.4,7.5-15.8c5.8-1.4,11.7,3.8,13,11.3l2.4,12.4
				c1.7,7.5-1.7,14.4-7.5,15.8C1892.3,1810.8,1886.5,1806,1884.7,1798.4z M1887.5,1785l2.4,12.4c1,4.8,4.5,7.9,6.9,7.2
				c2.4-0.3,4.1-4.5,3.4-9.3l-2.4-12.4c-1-4.8-4.5-7.5-6.9-7.2C1888.5,1776.1,1886.5,1779.9,1887.5,1785z"/>
		</g>
		<g>
			<path class="st6" d="M1890.2,1775.8L1890.2,1775.8c0.3,1,0.7,1.7,1,2.1c0-0.7,0-1.4,0-2.4c0-1.4-0.3-2.7-0.7-4.8v-0.7l-2.1-10.6
				l-0.3-1c-0.3-1.7-0.7-2.7-1-4.1c-0.3-1-0.7-2.1-1.4-2.7c0,0.7,0,1.7,0,3.1c-1.7,0-3.8-1.7-5.1-4.5c0.3-2.7,1.7-4.5,3.8-5.1
				c2.1-0.3,4.1,1,5.5,3.1c1.4,2.1,2.4,4.8,3.1,7.9c0,0.3,0.3,1,0.3,1.4l2.4,12.4c0,0.7,0.3,1.4,0.3,2.1c0.3,2.7,0.3,5.8,0,8.2
				c-0.7,2.4-1.7,4.5-3.8,4.8c-1.4,0.3-3.4,0-5.5-2.7C1887.5,1778.8,1888.9,1776.4,1890.2,1775.8z"/>
			<path class="st6" d="M1881,1758.6c1.7,1,3.8,1.7,5.8,1.4l2.1,10.6c-2.1,0.7-3.4,2.1-4.8,3.8c0-0.7-0.3-1.4-0.3-2.1l-2.4-12.4
				C1881,1759.6,1881,1759,1881,1758.6z"/>
		</g>
		<g>
			<path class="st6" d="M1895,1848.2l-2.4-12.4c-1.7-7.5,1.7-14.4,7.5-15.8c5.8-1.4,11.7,3.8,13,11.3l2.4,12.4
				c1.7,7.5-1.7,14.4-7.5,15.8C1902.6,1860.5,1896.8,1855.7,1895,1848.2z M1897.8,1834.8l2.4,12.4c1,4.8,4.5,7.9,6.9,7.2
				c2.4-0.3,4.5-4.5,3.4-9.3l-2.4-12.4c-1-4.8-4.5-7.9-6.9-7.2C1898.8,1825.9,1896.8,1829.6,1897.8,1834.8z"/>
		</g>
		<g>
			<path class="st6" d="M1900.5,1825.5C1900.9,1825.5,1900.9,1825.5,1900.5,1825.5c0.3,1,0.7,1.7,1,2.1c0-0.7,0-1.4,0-2.4
				c0-1.4-0.3-2.7-0.7-4.8v-0.7l-2.1-10.6l-0.3-1c-0.3-1.7-0.7-2.7-1-4.1c-0.3-1-0.7-2.1-1.4-2.7c0,0.7,0,1.7,0,3.1
				c-1.7,0-3.8-1.7-5.1-4.5c0.3-2.7,1.7-4.5,3.8-5.1c2.1-0.3,4.1,1,5.5,3.1c1.4,2.1,2.4,4.8,3.1,7.9c0,0.3,0.3,1,0.3,1.4l2.4,12.4
				c0,0.7,0.3,1.4,0.3,2.1c0.3,2.7,0.7,5.8,0,8.2c-0.7,2.4-1.7,4.5-3.8,4.8c-1.4,0.3-3.4,0-5.5-2.7
				C1897.8,1828.6,1899.2,1826.2,1900.5,1825.5z"/>
			<path class="st6" d="M1891.3,1808.4c1.7,1,3.8,1.7,5.8,1.4l2.1,10.6c-2.1,0.7-3.4,2.1-4.8,3.8c0-0.7-0.3-1.4-0.3-2.1l-2.4-12.4
				C1891.3,1809.4,1891.3,1808.7,1891.3,1808.4z"/>
		</g>
		<g>
			<path class="st6" d="M1905.3,1897.9l-2.4-12.4c-1.7-7.5,1.7-14.4,7.5-15.8c5.8-1.4,11.7,3.8,13,11.3l2.4,12.4
				c1.7,7.5-1.7,14.4-7.5,15.8C1912.9,1910.2,1907,1905.4,1905.3,1897.9z M1908.4,1884.5l2.4,12.4c1,4.8,4.5,7.5,6.9,7.2
				c2.4-0.3,4.5-4.5,3.4-9.3l-2.4-12.4c-1-4.8-4.5-7.9-6.9-7.2C1909.1,1875.6,1907.4,1879.4,1908.4,1884.5z"/>
		</g>
		<g>
			<path class="st6" d="M1911.2,1875.3L1911.2,1875.3c0.3,1,0.7,1.7,1,2.1c0-0.7,0-1.4,0-2.4c0-1.4-0.3-2.7-0.7-4.8v-0.7l-2.1-10.6
				l-0.3-1c-0.3-1.7-0.7-2.7-1-4.1c-0.3-1-0.7-2.1-1.4-2.7c0,0.7,0,1.7,0,3.1c-1.7,0-3.8-1.7-5.1-4.5c0.3-2.7,1.7-4.5,3.8-5.1
				c2.1-0.3,4.1,1,5.5,3.1c1.4,2.1,2.4,4.8,3.1,7.9c0,0.3,0.3,1,0.3,1.4l2.4,12.4c0,0.7,0.3,1.4,0.3,2.1c0.3,2.7,0.7,5.8,0,8.2
				s-1.7,4.5-3.8,4.8c-1.4,0.3-3.4,0-5.5-2.7C1908.1,1878.3,1909.4,1875.9,1911.2,1875.3z"/>
			<path class="st6" d="M1901.6,1858.1c1.7,1,3.8,1.7,5.8,1.4l2.1,10.6c-2.1,0.7-3.4,2.1-4.8,3.8c0-0.7-0.3-1.4-0.3-2.1l-2.4-12.4
				C1901.6,1859.1,1901.6,1858.4,1901.6,1858.1z"/>
		</g>
		<g>
			<path class="st6" d="M1916,1947.6l-2.4-12.4c-1.7-7.5,1.7-14.4,7.5-15.8c5.8-1.4,11.7,3.8,13,11.3l2.4,12.4
				c1.7,7.5-1.7,14.4-7.5,15.8C1923.2,1960,1917.3,1955.2,1916,1947.6z M1918.7,1934.3l2.4,12.4c1,4.8,4.5,7.9,6.9,7.2
				c2.4-0.3,4.5-4.5,3.4-9.3l-2.4-12.4c-1-4.8-4.5-7.5-6.9-7.2C1919.4,1925.3,1917.7,1929.1,1918.7,1934.3z"/>
		</g>
		<g>
			<path class="st6" d="M1921.4,1925L1921.4,1925c0.3,1,0.7,1.7,1,2.1c0-0.7,0-1.4,0-2.4c0-1.4-0.3-2.7-0.7-4.8v-0.7l-2.1-10.6
				l-0.3-1c-0.3-1.7-0.7-2.7-1-4.1c-0.3-1-0.7-2.1-1.4-2.7c0,0.7,0,1.7,0,3.1c-1.7,0-3.8-1.7-5.1-4.5c0.3-2.7,1.7-4.5,3.8-5.1
				c2.1-0.3,4.1,1,5.5,3.1c1.4,2.1,2.4,4.8,3.1,7.9c0,0.3,0.3,1,0.3,1.4l2.4,12.4c0,0.7,0.3,1.4,0.3,2.1c0.3,2.7,0.7,5.8,0,8.2
				c-0.7,2.4-1.7,4.5-3.8,4.8c-1.4,0.3-3.4,0-5.5-2.7C1918.4,1928.1,1919.7,1925.7,1921.4,1925z"/>
			<path class="st6" d="M1911.8,1907.8c1.7,1,3.8,1.7,5.8,1.4l2.1,10.6c-2.1,0.7-3.4,2.1-4.8,3.8c0-0.7-0.3-1.4-0.3-2.1l-2.4-12.4
				C1912.2,1908.9,1911.8,1908.2,1911.8,1907.8z"/>
		</g>
		<g>
			<path class="st6" d="M1926.3,1997.4l-2.4-12.4c-1.7-7.5,1.7-14.4,7.5-15.8c5.8-1.4,11.7,3.8,13,11.3l2.4,12.4
				c1.7,7.5-1.7,14.4-7.5,15.8C1933.5,2009.7,1927.6,2004.9,1926.3,1997.4z M1929,1984l2.4,12.4c1,4.8,4.5,7.9,6.9,7.2
				c2.4-0.3,4.5-4.5,3.4-9.3l-2.4-12.4c-1-4.8-4.5-7.5-6.9-7.2C1929.7,1975.1,1928,1978.9,1929,1984z"/>
		</g>
		<g>
			<path class="st6" d="M1931.7,1974.7L1931.7,1974.7c0.3,1,0.7,1.7,1,2.1c0-0.7,0-1.4,0-2.4c0-1.4-0.3-2.7-0.7-4.8v-0.7l-2.1-10.6
				l-0.3-1c-0.3-1.7-0.7-2.7-1-4.1c-0.3-1-0.7-2.1-1.4-2.7c0,0.7,0,1.7,0,3.1c-1.7,0-3.8-1.7-5.1-4.5c0.3-2.7,1.7-4.5,3.8-5.1
				c2.1-0.3,4.1,1,5.5,3.1c1.4,2.1,2.4,4.8,3.1,7.9c0,0.3,0.3,1,0.3,1.4l2.4,12.4c0,0.7,0.3,1.4,0.3,2.1c0.3,2.7,0.3,5.8,0,8.2
				c-0.7,2.4-1.7,4.5-3.8,4.8c-1.4,0.3-3.4,0-5.5-2.7C1928.7,1977.8,1930,1975.4,1931.7,1974.7z"/>
			<path class="st6" d="M1922.1,1957.6c1.7,1,3.8,1.7,5.8,1.4l2.1,10.6c-2.1,0.7-3.4,2.1-4.8,3.8c0-0.7-0.3-1.4-0.3-2.1l-2.4-12.4
				C1922.5,1958.6,1922.1,1957.9,1922.1,1957.6z"/>
		</g>
	</g>
	<g>
		<g>
			<path class="st6" d="M1801.7,1457.4c-5.5-2.4-7.5-9.6-4.5-16.8l4.8-11.7c3.1-7.2,9.6-11,15.1-8.9c5.5,2.4,7.5,9.6,4.5,16.8
				l-4.8,11.7C1813.7,1455.7,1807.2,1459.4,1801.7,1457.4z M1815.1,1424.8c-2.4-1-6.2,1.4-7.9,5.8l-4.8,11.7
				c-2.1,4.8-0.7,8.9,1.4,9.9c2.4,1,6.2-1.4,7.9-5.8l4.8-11.7C1818.6,1429.9,1817.5,1425.8,1815.1,1424.8z"/>
		</g>
		<g>
			<path class="st6" d="M1782.2,1504.7c-5.5-2.4-7.5-9.6-4.5-16.8l4.8-11.7c3.1-7.2,9.6-11,15.1-8.9c5.5,2.4,7.5,9.6,4.5,16.8
				l-4.8,11.7C1794.2,1503,1787.7,1507.1,1782.2,1504.7z M1795.6,1472.1c-2.4-1-6.2,1.4-7.9,5.8l-4.8,11.7c-2.1,4.8-0.7,8.9,1.4,9.9
				c2.4,1,6.2-1.4,7.9-5.8l4.8-11.7C1799,1477.3,1798,1473.2,1795.6,1472.1z"/>
		</g>
		<g>
			<path class="st6" d="M1796.3,1472.5C1796.3,1472.5,1795.9,1472.5,1796.3,1472.5c-0.7,1-1,1.4-1.4,2.1c0-0.7,0.3-1.4,0.3-2.4
				c0.3-1.4,0.7-2.7,1.4-4.5l0.3-0.7l4.1-9.9l0.3-1c0.7-1.4,1.4-2.7,1.7-3.8c0.7-1,1.4-1.7,1.7-2.4c0,0.7-0.3,1.7-0.7,3.1
				c1.7,0.3,4.1-1,5.8-3.8c0-2.7-0.7-4.8-2.7-5.5c-2.1-0.7-4.1,0-5.8,2.1c-1.7,1.7-3.4,4.5-4.8,7.2c-0.3,0.3-0.3,1-0.7,1.4
				l-4.8,11.7c-0.3,0.7-0.3,1.4-0.7,1.7c-1,2.7-1.7,5.5-1.7,7.9c0,2.4,0.7,4.5,2.7,5.5c1.4,0.7,3.4,0.7,5.8-1.7
				C1798.3,1475.9,1797.6,1473.5,1796.3,1472.5z"/>
			<path class="st6" d="M1808.6,1457c-2.1,0.7-4.1,1-6.2,0.3l-4.1,9.9c1.7,1,3.1,2.4,4.1,4.5c0.3-0.7,0.7-1,0.7-1.7l4.8-11.7
				C1808.3,1458.1,1808.6,1457.7,1808.6,1457z"/>
		</g>
		<g>
			<path class="st6" d="M1762.6,1552.1c-5.5-2.4-7.5-9.6-4.5-16.8l4.8-11.7c3.1-7.2,9.6-11,15.1-8.9c5.5,2.4,7.5,9.6,4.5,16.8
				l-4.8,11.7C1775,1550.4,1768.1,1554.5,1762.6,1552.1z M1776,1519.5c-2.4-1-6.2,1.4-7.9,5.8l-4.8,11.7c-2.1,4.8-0.7,8.9,1.4,9.9
				c2.4,1,6.2-1.4,7.9-5.8l4.8-11.7C1779.4,1524.6,1778.4,1520.5,1776,1519.5z"/>
		</g>
		<g>
			<path class="st6" d="M1776.7,1519.8L1776.7,1519.8c-0.7,1-1,1.4-1.4,2.1c0-0.7,0.3-1.4,0.3-2.4c0.3-1.4,0.7-2.7,1.4-4.5l0.3-0.7
				l4.1-9.9l0.3-1c0.7-1.4,1.4-2.7,1.7-3.8c0.7-1,1-1.7,1.7-2.4c0,0.7-0.3,1.7-0.7,3.1c1.7,0.3,4.1-1,5.8-3.8c0-2.7-0.7-4.8-2.7-5.5
				s-4.1,0-5.8,2.1c-1.7,1.7-3.4,4.5-4.8,7.2c-0.3,0.3-0.3,1-0.7,1.4l-4.8,11.7c-0.3,0.7-0.3,1.4-0.7,1.7c-1,2.7-1.7,5.5-1.7,7.9
				c0,2.4,0.7,4.5,2.7,5.5c1.4,0.7,3.4,0.7,5.8-1.7C1778.8,1523.3,1778.1,1520.9,1776.7,1519.8z"/>
			<path class="st6" d="M1789.1,1504.7c-2.1,0.7-4.1,1-6.2,0.3l-4.1,9.9c1.7,1,3.1,2.4,4.1,4.5c0.3-0.7,0.7-1,0.7-1.7l4.8-11.7
				C1788.7,1505.4,1789.1,1505.1,1789.1,1504.7z"/>
		</g>
		<g>
			<path class="st6" d="M1743.1,1599.4c-5.5-2.4-7.5-9.6-4.5-16.8l4.8-11.7c3.1-7.2,9.6-11,15.1-8.9c5.5,2.4,7.5,9.6,4.5,16.8
				l-4.8,11.7C1755.4,1598,1748.6,1601.8,1743.1,1599.4z M1756.5,1567.2c-2.4-1-6.2,1.4-7.9,5.8l-4.8,11.7c-2.1,4.8-0.7,8.9,1.4,9.9
				c2.4,1,6.2-1.4,7.9-5.8l4.8-11.7C1759.9,1572.3,1758.9,1567.9,1756.5,1567.2z"/>
		</g>
		<g>
			<path class="st6" d="M1757.2,1567.2C1757.2,1567.2,1757.2,1567.5,1757.2,1567.2c-0.7,1-1,1.4-1.4,2.1c0-0.7,0.3-1.4,0.3-2.4
				c0.3-1.4,0.7-2.7,1.4-4.5l0.3-0.7l4.1-9.9l0.3-1c0.7-1.4,1.4-2.7,1.7-3.8c0.7-1,1-1.7,1.7-2.4c0,0.7-0.3,1.7-0.3,3.1
				c1.7,0.3,4.1-1,5.8-3.8c0-2.7-0.7-4.8-2.7-5.5c-2.1-0.7-4.1,0-5.8,2.1c-1.7,1.7-3.4,4.5-4.8,7.2c-0.3,0.3-0.3,1-0.7,1.4
				l-4.8,11.7c-0.3,0.7-0.3,1.4-0.7,1.7c-1,2.7-1.7,5.5-1.7,7.9c0,2.4,0.7,4.5,2.7,5.5c1.4,0.7,3.4,0.7,5.8-1.7
				C1759.6,1570.6,1758.5,1568.2,1757.2,1567.2z"/>
			<path class="st6" d="M1769.8,1552.1c-2.1,0.7-4.1,1-6.2,0.3l-4.1,9.9c1.7,1,3.1,2.4,4.1,4.5c0.3-0.7,0.7-1,0.7-1.7l4.8-11.7
				C1769.5,1552.8,1769.5,1552.4,1769.8,1552.1z"/>
		</g>
		<g>
			<path class="st6" d="M1723.9,1647.1c-5.5-2.4-7.5-9.6-4.5-16.8l4.8-11.7c3.1-7.2,9.6-11,15.1-8.9c5.5,2.4,7.5,9.6,4.5,16.8
				l-4.8,11.7C1735.9,1645.4,1729,1649.2,1723.9,1647.1z M1737.3,1614.5c-2.4-1-6.2,1.4-7.9,5.8l-4.8,11.7c-2.1,4.8-0.7,8.9,1.4,9.9
				c2.4,1,6.2-1.4,7.9-5.8l4.8-11.7C1740.3,1619.7,1739.3,1615.2,1737.3,1614.5z"/>
		</g>
		<g>
			<path class="st6" d="M1737.6,1614.9L1737.6,1614.9c-0.7,1-1,1.4-1.4,2.1c0-0.7,0.3-1.4,0.3-2.4c0.3-1.4,0.7-2.7,1.4-4.5l0.3-0.7
				l4.1-9.9l0.3-1c0.7-1.4,1.4-2.7,1.7-3.8c0.7-1,1.4-1.7,1.7-2.4c0,0.7-0.3,1.7-0.7,3.1c1.7,0.3,4.1-1,5.8-3.8
				c0-2.7-0.7-4.8-2.7-5.5c-2.1-0.7-4.1,0-5.8,2.1c-1.7,1.7-3.4,4.5-4.8,7.2c-0.3,0.3-0.3,1-0.7,1.4l-4.8,11.7
				c-0.3,0.7-0.3,1.4-0.7,1.7c-1,2.7-1.7,5.5-1.7,7.9c0,2.4,0.7,4.5,2.7,5.5c1.4,0.7,3.4,0.7,5.8-1.7
				C1740,1618.3,1739,1615.5,1737.6,1614.9z"/>
			<path class="st6" d="M1750.3,1599.4c-2.1,0.7-4.1,1-6.2,0.3l-4.1,9.9c1.7,1,3.1,2.4,4.1,4.5c0.3-0.7,0.7-1,0.7-1.7l4.8-11.7
				C1750,1600.4,1750,1599.8,1750.3,1599.4z"/>
		</g>
		<g>
			<path class="st6" d="M1704.3,1694.5c-5.5-2.4-7.5-9.6-4.5-16.8l4.8-11.7c3.1-7.2,9.6-11,15.1-8.9c5.5,2.4,7.5,9.6,4.5,16.8
				l-4.8,11.7C1716.3,1692.7,1709.8,1696.5,1704.3,1694.5z M1717.7,1661.9c-2.4-1-6.2,1.4-7.9,5.8l-4.8,11.7
				c-2.1,4.8-0.7,8.9,1.4,9.9c2.4,1,6.2-1.4,7.9-5.8l4.8-11.7C1721.1,1667,1719.8,1662.9,1717.7,1661.9z"/>
		</g>
		<g>
			<path class="st6" d="M1718.1,1662.2L1718.1,1662.2c-0.7,1-1,1.4-1.4,2.1c0-0.7,0.3-1.4,0.3-2.4c0.3-1.4,0.7-2.7,1.4-4.5l0.3-0.7
				l4.1-9.9l0.3-1c0.7-1.4,1.4-2.7,1.7-3.8c0.7-1,1-1.7,1.7-2.4c0,0.7-0.3,1.7-0.7,3.1c1.7,0.3,4.1-1,5.8-3.8c0-2.7-0.7-4.8-2.7-5.5
				c-2.1-0.7-4.1,0-5.8,2.1c-1.7,1.7-3.4,4.5-4.8,7.2c-0.3,0.3-0.3,1-0.7,1.4l-4.8,11.7c-0.3,0.7-0.3,1.4-0.7,1.7
				c-1,2.7-1.7,5.5-1.7,7.9s0.7,4.5,2.7,5.5c1.4,0.7,3.4,0.7,5.8-1.7C1720.5,1665.6,1719.4,1663.2,1718.1,1662.2z"/>
			<path class="st6" d="M1730.7,1646.8c-2.1,0.7-4.1,1-6.2,0.3l-4.1,9.9c1.7,1,3.1,2.4,4.1,4.5c0.3-0.7,0.7-1,0.7-1.7l4.8-11.7
				C1730.4,1647.8,1730.4,1647.1,1730.7,1646.8z"/>
		</g>
		<g>
			<path class="st6" d="M1684.8,1741.8c-5.5-2.4-7.5-9.6-4.5-16.8l4.8-11.7c3.1-7.2,9.6-11,15.1-8.9c5.5,2.4,7.5,9.6,4.5,16.8
				l-4.8,11.7C1696.8,1740.1,1690.3,1744.2,1684.8,1741.8z M1698.2,1709.2c-2.4-1-6.2,1.4-7.9,5.8l-4.8,11.7
				c-2.1,4.8-0.7,8.9,1.4,9.9s6.2-1.4,7.9-5.8l4.8-11.7C1701.6,1714.4,1700.2,1710.2,1698.2,1709.2z"/>
		</g>
		<g>
			<path class="st6" d="M1698.5,1709.5L1698.5,1709.5c-0.7,1-1,1.4-1.4,2.1c0-0.7,0.3-1.4,0.3-2.4c0.3-1.4,0.7-2.7,1.4-4.5l0.3-0.7
				l4.1-9.9l0.3-1c0.7-1.4,1.4-2.7,1.7-3.8c0.7-1,1.4-1.7,1.7-2.4c0,0.7-0.3,1.7-0.3,3.1c1.7,0.3,4.1-1,5.8-3.8
				c0-2.7-0.7-4.8-2.7-5.5c-2.1-0.7-4.1,0-5.8,2.1c-1.7,1.7-3.4,4.5-4.8,7.2c-0.3,0.3-0.3,1-0.7,1.4l-4.8,11.7
				c-0.3,0.7-0.3,1.4-0.7,1.7c-1,2.7-1.7,5.5-1.7,7.9c0,2.4,0.7,4.5,2.7,5.5c1.4,0.7,3.4,0.7,5.8-1.7
				C1700.9,1713,1699.9,1710.6,1698.5,1709.5z"/>
			<path class="st6" d="M1711.2,1694.1c-2.1,0.7-4.1,1-6.2,0.3l-4.1,9.9c1.7,1,3.1,2.4,4.1,4.5c0.3-0.7,0.7-1,0.7-1.7l4.8-11.7
				C1710.9,1695.1,1710.9,1694.8,1711.2,1694.1z"/>
		</g>
		<g>
			<path class="st6" d="M1665.2,1789.1c-5.5-2.4-7.5-9.6-4.5-16.8l4.8-11.7c3.1-7.2,9.6-11,15.1-8.9c5.5,2.4,7.5,9.6,4.5,16.8
				l-4.8,11.7C1677.2,1787.4,1670.7,1791.5,1665.2,1789.1z M1678.6,1756.5c-2.4-1-6.2,1.4-7.9,5.8l-4.8,11.7
				c-2.1,4.8-0.7,8.9,1.4,9.9c2.4,1,6.2-1.4,7.9-5.8l4.8-11.7C1682,1761.7,1680.7,1757.6,1678.6,1756.5z"/>
		</g>
		<g>
			<path class="st6" d="M1679,1756.9L1679,1756.9c-0.7,1-1,1.4-1.4,2.1c0-0.7,0.3-1.4,0.3-2.4c0.3-1.4,0.7-2.7,1.4-4.5l0.3-0.7
				l4.1-9.9l0.3-1c0.7-1.4,1.4-2.7,1.7-3.8c0.7-1,1.4-1.7,1.7-2.4c0,0.7-0.3,1.7-0.7,3.1c1.7,0.3,4.1-1,5.8-3.8
				c0-2.7-0.7-4.8-2.7-5.5c-2.1-0.7-4.1,0-5.8,2.1c-1.7,1.7-3.4,4.5-4.8,7.2c-0.3,0.3-0.3,1-0.7,1.4l-4.8,11.7
				c-0.3,0.7-0.3,1.4-0.7,1.7c-1,2.7-1.7,5.5-1.7,7.9s0.7,4.5,2.7,5.5c1.4,0.7,3.4,0.7,5.8-1.7
				C1681.4,1760.3,1680.7,1757.9,1679,1756.9z"/>
			<path class="st6" d="M1691.6,1741.8c-2.1,0.7-4.1,1-6.2,0.3l-4.1,9.9c1.7,1,3.1,2.4,4.1,4.5c0.3-0.7,0.7-1,0.7-1.7l4.8-11.7
				C1691.3,1742.5,1691.3,1742.1,1691.6,1741.8z"/>
		</g>
		<g>
			<path class="st6" d="M1645.7,1836.5c-5.5-2.4-7.5-9.6-4.5-16.8l4.8-11.7c3.1-7.2,9.6-11,15.1-8.9c5.5,2.4,7.5,9.6,4.5,16.8
				l-4.8,11.7C1657.7,1835.1,1651.2,1838.9,1645.7,1836.5z M1659.1,1804.2c-2.4-1-6.2,1.4-7.9,5.8l-4.8,11.7
				c-2.1,4.8-0.7,8.9,1.4,9.9c2.4,1,6.2-1.4,7.9-5.8l4.8-11.7C1662.5,1809.4,1661.5,1804.9,1659.1,1804.2z"/>
		</g>
		<g>
			<path class="st6" d="M1659.4,1804.2C1659.4,1804.2,1659.4,1804.6,1659.4,1804.2c-0.7,1-1,1.4-1.4,2.1c0-0.7,0.3-1.4,0.3-2.4
				c0.3-1.4,0.7-2.7,1.4-4.5l0.3-0.7l4.1-9.9l0.3-1c0.7-1.4,1.4-2.7,1.7-3.8c0.7-1,1-1.7,1.7-2.4c0,0.7-0.3,1.7-0.7,3.1
				c1.7,0.3,4.1-1,5.8-3.8c0-2.7-0.7-4.8-2.7-5.5c-2.1-0.7-4.1,0-5.8,2.1c-1.7,1.7-3.4,4.5-4.8,7.2c-0.3,0.3-0.3,1-0.7,1.4
				l-4.8,11.7c-0.3,0.7-0.3,1.4-0.7,1.7c-1,2.7-1.7,5.5-1.7,7.9c0,2.4,0.7,4.5,2.7,5.5c1.4,0.7,3.4,0.7,5.8-1.7
				C1661.8,1807.7,1661.1,1805.3,1659.4,1804.2z"/>
			<path class="st6" d="M1672.1,1789.1c-2.1,0.7-4.1,1-6.2,0.3l-4.1,9.9c1.7,1,3.1,2.4,4.1,4.5c0.3-0.7,0.7-1,0.7-1.7l4.8-11.7
				C1671.7,1789.8,1672.1,1789.5,1672.1,1789.1z"/>
		</g>
		<g>
			<path class="st6" d="M1626.1,1884.2c-5.5-2.4-7.5-9.6-4.5-16.8l4.8-11.7c3.1-7.2,9.6-11,15.1-8.9c5.5,2.4,7.5,9.6,4.5,16.8
				l-4.8,11.7C1638.1,1882.5,1631.6,1886.2,1626.1,1884.2z M1639.5,1851.6c-2.4-1-6.2,1.4-7.9,5.8l-4.8,11.7
				c-2.1,4.8-0.7,8.9,1.4,9.9c2.1,1,6.2-1.4,7.9-5.8l4.8-11.7C1642.9,1856.7,1641.9,1852.3,1639.5,1851.6z"/>
		</g>
		<g>
			<path class="st6" d="M1640.2,1851.6C1639.9,1851.9,1639.9,1851.9,1640.2,1851.6c-0.7,1-1,1.4-1.4,2.1c0-0.7,0.3-1.4,0.3-2.4
				c0.3-1.4,0.7-2.7,1.4-4.5l0.3-0.7l4.1-9.9l0.3-1c0.7-1.4,1.4-2.7,1.7-3.8c0.7-1,1.4-1.7,1.7-2.4c0,0.7-0.3,1.7-0.3,3.1
				c1.7,0.3,4.1-1,5.8-3.8c0-2.7-0.7-4.8-2.7-5.5c-2.1-0.7-4.1,0-5.8,2.1c-1.7,1.7-3.4,4.5-4.8,7.2c-0.3,0.3-0.3,1-0.7,1.4
				l-4.8,11.7c-0.3,0.7-0.3,1.4-0.7,1.7c-1,2.7-1.7,5.5-1.7,7.9s0.7,4.5,2.7,5.5c1.4,0.7,3.4,0.7,5.8-1.7
				C1642.3,1855.4,1641.6,1852.6,1640.2,1851.6z"/>
			<path class="st6" d="M1652.5,1836.5c-2.1,0.7-4.1,1-6.2,0.3l-4.1,9.9c1.7,1,3.1,2.4,4.1,4.5c0.3-0.7,0.7-1,0.7-1.7l4.8-11.7
				C1652.2,1837.5,1652.5,1836.8,1652.5,1836.5z"/>
		</g>
		<g>
			<path class="st6" d="M1606.6,1931.5c-5.5-2.4-7.5-9.6-4.5-16.8l4.8-11.7c3.1-7.2,9.6-11.3,15.1-8.9c5.5,2.4,7.5,9.6,4.5,16.8
				l-4.8,11.7C1618.6,1929.8,1612.1,1933.6,1606.6,1931.5z M1620,1898.9c-2.4-1-6.2,1.4-7.9,5.8l-4.8,11.7c-2.1,4.8-0.7,8.9,1.4,9.9
				c2.4,1,6.2-1.4,7.9-5.8l4.8-11.7C1623.4,1904.1,1622.4,1900,1620,1898.9z"/>
		</g>
		<g>
			<path class="st6" d="M1620.6,1899.3C1620.6,1899.3,1620.3,1899.3,1620.6,1899.3c-0.7,1-1,1.4-1.4,2.1c0-0.7,0.3-1.4,0.3-2.4
				c0.3-1.4,0.7-2.7,1.4-4.5l0.3-0.7l4.1-9.9l0.3-1c0.7-1.4,1.4-2.7,1.7-3.8c0.7-1,1.4-1.7,1.7-2.4c0,0.7-0.3,1.7-0.7,3.1
				c1.7,0.3,4.1-1,5.8-3.8c0-2.7-0.7-4.8-2.7-5.5c-2.1-0.7-4.1,0-5.8,2.1c-1.7,1.7-3.4,4.5-4.8,7.2c-0.3,0.3-0.3,1-0.7,1.4
				l-4.8,11.7c-0.3,0.7-0.3,1.4-0.7,1.7c-1,2.7-1.7,5.5-1.7,7.9c0,2.4,0.7,4.5,2.7,5.5c1.4,0.7,3.4,0.7,5.8-1.7
				C1622.7,1902.7,1622,1900.3,1620.6,1899.3z"/>
			<path class="st6" d="M1633,1883.8c-2.1,0.7-4.1,1-6.2,0.3l-4.1,9.9c1.7,1,3.1,2.4,4.1,4.5c0.3-0.7,0.7-1,0.7-1.7l4.8-11.7
				C1632.6,1884.9,1633,1884.2,1633,1883.8z"/>
		</g>
		<g>
			<path class="st6" d="M1587,1978.9c-5.5-2.4-7.5-9.6-4.5-16.8l4.8-11.7c3.1-7.2,9.6-11,15.1-8.9c5.5,2.4,7.5,9.6,4.5,16.8
				l-4.8,11.7C1599.4,1977.1,1592.5,1981.3,1587,1978.9z M1600.4,1946.3c-2.4-1-6.2,1.4-7.9,5.8l-4.8,11.7c-2.1,4.8-0.7,8.9,1.4,9.9
				c2.1,1,6.2-1.4,7.9-5.8l4.8-11.7C1603.8,1951.4,1602.8,1947.3,1600.4,1946.3z"/>
		</g>
		<g>
			<path class="st6" d="M1601.1,1946.6L1601.1,1946.6c-0.7,1-1,1.4-1.4,2.1c0-0.7,0.3-1.4,0.3-2.4c0.3-1.4,0.7-2.7,1.4-4.5l0.3-0.7
				l4.1-9.9l0.3-1c0.7-1.4,1.4-2.7,1.7-3.8c0.7-1,1.4-1.7,1.7-2.4c0,0.7-0.3,1.7-0.3,3.1c1.7,0.3,4.1-1,5.8-3.8
				c0-2.7-0.7-4.8-2.7-5.5c-2.1-0.7-4.1,0-5.8,2.1c-1.7,1.7-3.4,4.5-4.8,7.2c-0.3,0.3-0.3,1-0.7,1.4l-4.8,11.7
				c-0.3,0.7-0.3,1.4-0.7,1.7c-1,2.7-1.7,5.5-1.7,7.9s0.7,4.5,2.7,5.5c1.4,0.7,3.4,0.7,5.8-1.7
				C1603.2,1950,1602.5,1947.6,1601.1,1946.6z"/>
			<path class="st6" d="M1613.4,1931.2c-2.1,0.7-4.1,1-6.2,0.3l-4.1,9.9c1.7,1,3.1,2.4,4.1,4.5c0.3-0.7,0.7-1,0.7-1.7l4.8-11.7
				C1613.1,1932.2,1613.4,1931.9,1613.4,1931.2z"/>
		</g>
	</g>
	<g>
		<path class="st7" d="M1293.8,1310.6c0,0,69.3-89.5,168.1-83.4c99.1,6.2,173.2,112.2,275.8,155.1c94.7,39.8,94,10.3,94,10.3
			s7.9,26.4-40.1,16.5c-77.9-16.1-169.8-58.3-253.8-87.8c-161.2-56.3-243.9,77.2-243.9,77.2L1293.8,1310.6L1293.8,1310.6z"/>
		<path class="st5" d="M1293.8,1323.2c0,0,69.3-89.5,168.1-83.4c99.1,6.2,172.9,113.2,276.5,153c101.2,38.8,93.6,1,93.6,1
			s13.4,27.8-39.4,22c-78.9-8.9-171.2-57-254.8-86.5c-161.2-56.3-243.9,77.2-243.9,77.2V1323.2L1293.8,1323.2z"/>
	</g>
	<g>
		<path class="st6" d="M1815.8,1397c10.3,0,18.5,8.2,18.5,18.5c0,4.8-2.1,9.3-5.1,12.7c-0.7-1.7-1.7-3.1-2.7-4.5
			c1.7-2.4,2.7-5.1,2.7-8.2c0-7.5-6.2-13.7-13.7-13.7c-2.1,0-4.1,0.3-5.8,1.4c-2.4,0-4.8-0.3-7.5-0.7
			C1805.9,1399.1,1810.7,1397,1815.8,1397z"/>
		<path class="st6" d="M1805.2,1423.8c1,1.4,2.4,2.4,3.8,3.4c0,0,0,0,0.3,0c0.3,0.3,1,0.3,1.4,0.7c1,0.3,2.4,0.7,3.4,1
			c0.3,0,1,0,1.7,0h0.3c0.3,0,0.7,0,1.4,0c0,1.4,0,3.1-0.7,5.1c-0.3,0-0.7,0-1,0s-0.7,0-0.7,0l0,0c-1.7,0-3.8-0.3-5.5-1
			c-0.3,0-0.3,0-0.7-0.3c-0.7-0.3-1.4-0.7-2.4-1c-1.7-1-3.1-2.1-4.5-3.4c-3.1-3.1-5.1-7.5-5.1-12.4c1.7,0,3.4,0.3,5.1,0.3
			C1802.4,1419,1803.5,1421.7,1805.2,1423.8z"/>
		<path class="st6" d="M1824.4,1432c-0.7,0.3-1,0.7-1.7,0.7c0.3-1,0.3-2.1,0.3-3.1C1823.7,1430.3,1824,1431,1824.4,1432z"/>
	</g>
	<g>
		<path class="st9" d="M1818.6,2109.9c0.3,0,0.3,0,0.7,0c0.3,0,0.7,0,0.7,0C1819.6,2109.9,1819.2,2109.9,1818.6,2109.9z"/>
		<path class="st9" d="M2042.2,1970.3v-0.3C2042.2,1970.3,2042.2,1970.3,2042.2,1970.3L2042.2,1970.3z"/>
		<path class="st7" d="M2042.2,1970.6c0-0.3,0-0.3,0-0.7c-0.3-1-1-2.1-2.4-3.1c-2.7-2.4-7.2-4.5-13.4-6.5
			c-6.2-2.1-13.7-4.1-22.3-5.8c-4.5-1-8.9-1.7-13.7-2.7c-4.8-0.7-9.9-1.4-15.4-2.1c-43.2-5.5-101.2-8.6-159.5-8.6
			c-58,0-115.9,2.7-159.5,8.6c-5.5,0.7-10.6,1.4-15.4,2.1c-4.8,1-9.6,1.7-13.7,2.7c-8.6,1.7-16.1,3.8-22.3,5.8
			c-6.2,2.1-10.6,4.5-13.4,6.5c-1.4,1-2.1,2.1-2.4,3.1l0,0c-2.4,3.8-3.4,8.2-3.4,13c0,4.8,1.4,10.3,3.8,16.1
			c12.7,29.8,56.6,67.9,117,90.9c6.5,2.4,13.4,4.8,20.6,6.9c7.9,2.4,16.1,4.5,24.7,6.5c5.8,1.4,12,2.4,17.8,3.4
			c7.5,1,15.1,2.1,22.6,2.7c7.2,0.7,14.7,1,22.3,1c1,0,2.4,0,3.4,0c0.7,0,1,0,1.7,0c-0.3,0-0.3,0-0.7,0c0.3,0,1,0,1.4,0
			c10.3-1,19.6-21.3,26.4-47c4.8-18.9,8.6-40.1,10.3-59.4c32.6-0.7,64.1-2.4,91.6-5.1c-1.4,4.5-2.4,8.9-4.5,13.4
			c-6.5,16.5-16.1,35-29.8,50.8c-22,25.4-55.2,45.3-90.6,46.7c4.5,0,8.6-0.3,12.7-0.7c7.9-0.7,15.4-1.4,23-2.4
			c7.2-1,14.4-2.4,21.6-4.1c8.6-2.1,16.8-4.1,25-6.5c6.5-2.1,12.7-4.1,18.9-6.5c60.4-23,104.3-61.1,117-90.9
			c2.4-5.8,3.8-11.3,3.8-16.1C2045.3,1978.2,2044.2,1974.1,2042.2,1970.6z M1588.7,1970.3
			C1588.7,1970.6,1588.7,1970.6,1588.7,1970.3C1588.7,1970.6,1588.7,1970.6,1588.7,1970.3z"/>
		<path class="st1" d="M1914.2,2063.3c13.7-16.1,23.3-34.3,29.8-50.8c1.7-4.8,3.1-9.3,4.5-13.4c-27.4,2.4-59,4.1-91.6,5.1
			c-1.7,18.9-5.1,40.5-10.3,59.4c-6.9,25.7-16.1,46-26.4,47c-0.3,0-0.7,0-0.7,0l0,0l0,0l0,0c1.4,0,2.7,0,4.1,0
			C1859,2108.5,1892.3,2088.6,1914.2,2063.3z"/>
		<path class="st5" d="M1989.7,1986.4c4.8-0.3,9.6-1,14.1-1.7c8.6-1,16.1-2.4,22.3-4.1c6.2-1.7,10.6-3.4,13.7-5.1
			c1.4-1,2.1-2.1,2.7-2.7c0-0.3,0-0.3,0.3-0.3c0-0.3,0-0.3,0-0.7l0,0l0,0c0-0.3,0-0.7,0-0.7v-0.3l0,0c0-0.3-0.3-0.3-0.3-0.7l0,0
			c-0.3-0.7-1-1.4-2.1-2.4c-2.7-2.1-7.2-4.1-13.4-6.2c-6.2-1.7-13.7-3.4-22.3-4.8c-4.5-0.7-8.9-1.4-14.1-2.1
			c-4.8-0.7-9.9-1.4-15.4-2.1c-43.2-5.5-101.2-8.6-159.1-8.6s-115.9,3.1-159.1,8.6c-5.5,0.7-10.6,1.4-15.4,2.1
			c-4.8,0.7-9.6,1.4-14.1,2.1c-8.6,1.4-16.1,3.1-22.3,4.8s-10.6,3.8-13.4,6.2c-1,0.7-1.7,1.7-2.1,2.4l0,0c0,0.3-0.3,0.3-0.3,0.7l0,0
			c0,0.3-0.3,0.7-0.3,1l0,0l0,0c0,0.3,0,0.3,0,0.7c0,0,0,0.3,0.3,0.3c0.3,0.7,1,2.1,2.7,2.7c2.7,2.1,7.5,3.8,13.7,5.1
			c6.2,1.7,13.7,2.7,22.3,4.1c4.5,0.7,8.9,1,14.1,1.4c4.8,0.3,9.9,1.4,15.4,2.1c42.9,5.5,100.8,8.6,158.8,8.2
			c58,0,115.9-2.7,158.8-8.2C1979.8,1987.8,1984.6,1986.8,1989.7,1986.4z"/>
		<path class="st9" d="M1588.7,1970.6L1588.7,1970.6"/>
	</g>
	<g>
		<path class="st9" d="M704.9,2109.9c0.3,0,0.3,0,0.7,0c0.3,0,0.7,0,0.7,0C705.5,2109.9,705.2,2109.9,704.9,2109.9z"/>
		<path class="st9" d="M928.5,1970.3v-0.3C928.1,1970.3,928.1,1970.3,928.5,1970.3C928.1,1970.3,928.5,1970.3,928.5,1970.3z"/>
		<path class="st7" d="M928.5,1970.6c0-0.3,0-0.3,0-0.7c-0.3-1-1-2.1-2.4-3.1c-2.7-2.4-7.2-4.5-13.4-6.5c-6.2-2.1-13.7-4.1-22.3-5.8
			c-4.5-1-8.9-1.7-13.7-2.7c-4.8-0.7-9.9-1.4-15.4-2.1c-43.2-5.5-101.2-8.6-159.5-8.6c-58,0-115.9,2.7-159.5,8.6
			c-5.5,0.7-10.6,1.4-15.4,2.1c-4.8,1-9.6,1.7-13.7,2.7c-8.6,1.7-16.1,3.8-22.3,5.8c-6.2,2.1-10.6,4.5-13.4,6.5
			c-1.4,1-2.1,2.1-2.4,3.1l0,0c-2.4,3.8-3.4,8.2-3.4,13c0,4.8,1.4,10.3,3.8,16.1c12.7,29.8,56.6,67.9,117,90.9
			c6.5,2.4,13.4,4.8,20.6,6.9c7.9,2.4,16.1,4.5,24.7,6.5c5.8,1.4,12,2.4,17.8,3.4c7.5,1,15.1,2.1,22.6,2.7c7.2,0.7,14.7,1,22.3,1
			c1,0,2.4,0,3.4,0c0.7,0,1,0,1.7,0c-0.3,0-0.3,0-0.7,0c0.3,0,1,0,1.4,0c10.3-1,19.6-21.3,26.4-47c4.8-18.9,8.6-40.1,10.3-59.4
			c32.6-0.7,64.1-2.4,91.6-5.1c-1.4,4.5-2.4,8.9-4.5,13.4c-6.5,16.5-16.1,35-29.8,50.8c-22,25.4-55.2,45.3-90.6,46.7
			c4.5,0,8.6-0.3,12.7-0.7c7.9-0.7,15.4-1.4,23-2.4c7.2-1,14.4-2.4,21.6-4.1c8.6-2.1,16.8-4.1,25-6.5c6.5-2.1,12.7-4.1,18.9-6.5
			c60.4-23,104.3-61.1,117-90.9c2.4-5.8,3.8-11.3,3.8-16.1C931.2,1978.2,930.2,1974.1,928.5,1970.6z M474.7,1970.3
			C474.7,1970.6,474.7,1970.6,474.7,1970.3C474.7,1970.6,474.7,1970.6,474.7,1970.3z"/>
		<path class="st1" d="M800.2,2063.3c13.7-16.1,23.3-34.3,29.8-50.8c1.7-4.8,3.1-9.3,4.5-13.4c-27.4,2.4-59,4.1-91.6,5.1
			c-1.7,18.9-5.1,40.5-10.3,59.4c-6.9,25.7-16.1,46-26.4,47c-0.3,0-0.7,0-0.7,0l0,0l0,0l0,0c1.4,0,2.7,0,4.1,0
			C745,2108.5,778.3,2088.6,800.2,2063.3z"/>
		<path class="st5" d="M875.7,1986.4c4.8-0.3,9.6-1,14.1-1.7c8.6-1,16.1-2.4,22.3-4.1c6.2-1.7,10.6-3.4,13.7-5.1
			c1.4-1,2.1-2.1,2.7-2.7c0-0.3,0-0.3,0.3-0.3c0-0.3,0-0.3,0-0.7l0,0l0,0c0-0.3,0-0.7,0-0.7v-0.3l0,0c0-0.3-0.3-0.3-0.3-0.7l0,0
			c-0.3-0.7-1-1.4-2.1-2.4c-2.7-2.1-7.2-4.1-13.4-6.2c-6.2-1.7-13.7-3.4-22.3-4.8c-4.5-0.7-8.9-1.4-14.1-2.1
			c-4.8-0.7-9.9-1.4-15.4-2.1c-43.2-5.5-101.2-8.6-159.1-8.6s-115.9,3.1-159.1,8.6c-5.5,0.7-10.6,1.4-15.4,2.1
			c-4.8,0.7-9.6,1.4-14.1,2.1c-8.6,1.4-16.1,3.1-22.3,4.8s-10.6,3.8-13.4,6.2c-1,0.7-1.7,1.7-2.1,2.4l0,0c0,0.3-0.3,0.3-0.3,0.7l0,0
			c0,0.3-0.3,0.7-0.3,1l0,0l0,0c0,0.3,0,0.3,0,0.7c0,0,0,0.3,0.3,0.3c0.3,0.7,1,2.1,2.7,2.7c2.7,2.1,7.5,3.8,13.7,5.1
			c6.2,1.7,13.7,2.7,22.3,4.1c4.5,0.7,8.9,1,14.1,1.4c4.8,0.3,9.9,1.4,15.4,2.1c42.9,5.5,100.8,8.6,158.8,8.2
			c58,0,115.9-2.7,158.8-8.2C865.7,1987.8,870.9,1986.8,875.7,1986.4z"/>
		<path class="st9" d="M474.7,1970.6L474.7,1970.6"/>
	</g>
</g>
</svg>
