<?xml version="1.0" encoding="utf-8"?>
<!-- Generator: Adobe Illustrator 26.5.0, SVG Export Plug-In . SVG Version: 6.00 Build 0)  -->
<svg version="1.1" id="shinytest2" xmlns="http://www.w3.org/2000/svg" xmlns:xlink="http://www.w3.org/1999/xlink" x="0px" y="0px"
	 viewBox="0 0 2521 2911" style="enable-background:new 0 0 2521 2911;" xml:space="preserve">
<style type="text/css">
	.st0{fill:#438BCA;}
	.st1{opacity:0.25;fill:url(#SVGID_1_);enable-background:new    ;}
	.st2{fill:#DA2228;}
	.st3{fill:#A61E22;}
	.st4{fill:#3775A9;}
	.st5{opacity:0.9;fill:#FFFFFF;enable-background:new    ;}
	.st6{fill:#FFFFFF;}
</style>
<g>
	<g>
		<polygon class="st0" points="1305.3,2885.1 1890.7,2547.1 2143.5,2401.1 1455.5,2798.4 		"/>
		<polygon class="st0" points="648.4,2557.6 1152.5,2848.7 1065.4,2798.4 		"/>
		<polygon class="st0" points="2230.6,669.6 1260.4,109.5 1260.4,119.5 275.7,678 95.4,779.2 95.4,1345.3 95.4,1343.3 1200.5,1897 
			1230,1786.5 2425.4,1472.5 2425.4,779.2 		"/>
		
			<linearGradient id="SVGID_1_" gradientUnits="userSpaceOnUse" x1="1249.9858" y1="3357.2322" x2="1254.4403" y2="1767.0443" gradientTransform="matrix(1 0 0 -1 0 2912)">
			<stop  offset="0" style="stop-color:#FFFFFF;stop-opacity:0.83"/>
			<stop  offset="1" style="stop-color:#FFFFFF;stop-opacity:0"/>
		</linearGradient>
		<path class="st1" d="M1251.4,1142.5c433,0,806.5-189.4,979.2-463l-970.2-560.1l0,0L275.7,688
			C447.2,960.9,817.6,1142.5,1251.4,1142.5z"/>
		<polygon class="st2" points="1412.1,1835.6 1202.4,1896.4 1243.8,1930.8 1261,2035.2 1056.4,1931.5 159.4,1481.6 100.4,1452 
			100.4,2132.6 1260.4,2802.4 2423.4,2132.6 2423.4,1569.7 1911.5,1703.9 		"/>
		<path class="st3" d="M1890.7,363.9l630.2,363.9v716l-100.5,26.7l0,0L1230,1784.4l-29.5,110.5L100.4,1343.3l0,0L0,1293.3V727.8
			L1260.4,0l0,0L0,727.8v1455.5l460.1,265.7l188.3,108.7l417,240.7l87.2,50.3l107.8,62.3l44.8-25.9l150.2-86.7l688.1-397.3
			l377.4-217.8V727.8L1890.7,363.9z M2420.4,2128.6l-1159.9,669.7l-1160-669.7v-670.5l58.9,29.6l897.1,449.9l207.2,103.7l-6.4-118
			l-52.3-26l207-54.6l499.4-131.7l508.9-134.2v551.9H2420.4z"/>
		<polygon class="st4" points="0,727.8 0,1293.3 100.4,1343.3 100.4,1343.3 100.4,789.2 275.7,688 1260.4,119.5 1260.4,119.5 
			2230.6,679.6 2420.4,789.2 2420.4,1470.5 2420.4,1470.5 2520.9,1443.8 2520.9,727.8 1890.7,363.9 1260.4,0 		"/>
	</g>
	<path class="st5" d="M1317.4,870.5h0.2h0.1c21.8-1.1,49.1-9.1,55.5-41.5c3-14.6-5.8-31.3-11.4-36.1c-5.4-4.7-13.1-6.7-22.9-6.1
		c-10.1,0.6-21.9,6.8-33.3,17.2c-15,13.8-14.6,34-9.6,47.1C1300.5,862.8,1308.7,870.2,1317.4,870.5z"/>
	<path class="st5" d="M706.4,1249.6c23.6-91-35.4-157.1-87.6-223.8c-0.3-0.4-0.6-0.8-0.7-1.3c-2-8.5-58.5-59.9-74.3-79.3l-0.6-0.5
		c-7.5-5.4-15.4-32.9-19.2-48.1c-1.6-6.3-1.7-12.9-0.5-19.3c13.7-69.1,21.2-119.9,114.1-104.7c66.7,10.9,32.2,107.8,68.1,117.5
		l0.8,0.2c21.6,2.1,63.7-49.2,69.9-66.5c24-67.1-114.5-108.3-156.7-105.7c-84.6,5.2-140.3,50.7-174.2,125.7
		c-62.6,138.2,54.3,230,124.9,325c53.4,71.7,51,135.4-14.6,197c-72,67.6-155.8-25.3-165.3-90.8c-8.7-60-7.9-101.8-58.6-25.6
		c-46.6,69.9,1.7,162.2,93.2,166.2C545,1418.1,669.9,1390.6,706.4,1249.6z"/>
	<path class="st5" d="M207.5,1767c197.2-5.7,409.5,116.7,508.2,283.8c1.6,2.7,5.7,2.2,6.6-0.8c20.7-71.5,57.3-130.1,105.2-178.4
		c25.4-25.6,54-48.3,85-68.4c195.9-127.1,491.1-153.8,714.1-174c111.2-10,228.3-28.3,321.6-93.9c65-45.7,124.7-109.9,178.3-166
		c38.6-40.4,63.9-72,96.8-114.3c17.4-22.5,26.3-32.6,43.1-58.1c13.3-20.2,25.6-43.5,34-66.1c1.9-5,8.4-23.1,9.8-42.7v-0.5
		c-0.1-2-0.3-4-0.4-6.1c-6.3-92.7-139,53.1-156.6,70.5c-28.1,27.8-66.6,57.1-102.8,78.7c-2.8,1.7-6.2-0.9-5.3-4
		c3.8-13.9,8.3-31.3,13.4-52.3c6.8-27.6,11.4-46.1,13.4-53.5c1.9-7.4,7.3-28.2,16-62.7c8.7-34.4,19.7-73,32.6-114.7
		c15.8-49.3,32.6-80.9,49.8-94l0.7-0.6c2.8-2.1,1.1-6.6-2.4-6.4l-38.1,2.4c-15.3,1-31.9,4-49.5,9.1c-6,1.9-11.6,5.5-16.9,10.8
		c-4.9,5-8.8,9-11.6,12.2c-3.2,3.5-6.5,9.6-10.1,18.5c-3.4,8.3-5.9,15-7.5,19.9c-1.5,4.7-4.2,13.5-7.9,26.2
		c-3.7,12.7-6.6,22.4-8.6,29.1c-14.9,47.7-37.9,96.6-68.4,145.4c-30,47.9-55.5,72.9-75.8,74.1h-0.8c-8.3,0-13.2-9.7-14.4-28.7
		c-2.7-41.2,6.9-93.4,28.4-155.1s43.9-105.5,66.9-130.3c4-5,5.9-9.2,5.7-12.8c-0.3-4.5-3.1-7.3-8-7.3l0,0
		c-32.4,2.1-58.1,8.1-76.5,18c-18.5,10-35.8,30.9-51.4,62c-13.2,26.3-24.9,60.6-34.8,102.1l-0.3,0.7c-1.7,3.3-3.7,7.4-6.2,12.8
		c-6.9,14.9-15.4,32.5-25.2,52.3c-9.8,19.8-19.1,36.5-27.5,49.7c-8.4,13.1-19.3,26-32.4,38.4c-15.9,15-24.9,18.5-29.7,18.8h-1.1
		c-5,0-11.8-2-12.9-19.2c-1.6-24.4,8.6-74.4,30.3-148.6c10-34.6,16.1-57,18.4-68.5c2.3-11.6,3.2-23.2,2.4-34.6
		c-2.3-36.2-22-53.5-58.8-51.1c-46,2.9-90.8,26.6-133.5,70.6c-2.5,2.5-6.7,0.4-6.2-3c1.9-11.5,2.6-19.7,2.3-24.8
		c-0.6-9-4.6-16-11.9-20.8c-7.1-4.7-21.2-6.3-43.5-4.9l-38.1,2.4c-2.7,0.2-4.3,3.2-2.8,5.5l0,0c1.7,2.6,2.7,7,3.1,12.9
		c1.7,26.1-6.1,73.5-23,140.6c-1.3,2.3-3.3,5.8-4.5,8.2c-2,1.9-5.3,7.4-13,23.4c-7.2,14.9-15.8,32.5-25.7,52.9
		c-9.9,20.3-19,37.2-27.1,50.2c-8,13-18.8,25.7-31.9,37.8c-15.9,14.6-25,18-29.7,18.3h-1c-3.1,0-12.7,0-14.2-24.1
		c-1.2-18.5,2.2-43.2,10.1-73.5c8-30.5,15.4-55.1,22-73c6.4-17.3,16.2-43,30.7-80.8c13.5-35,24.8-56.9,33.5-64.9l0.2-0.2
		c2.5-2.3,0.7-6.3-2.6-6.2l-54.7,2.6c-27.3,1.7-50.8,23.7-70,65.5c-17,38.5-30.4,75.6-40.1,111.4c-0.2,0.5-0.5,1-0.7,1.6
		c-46.3,115.4-87.2,175-121.8,177.2h-0.9c-2.7,0-10.9,0-12.2-20.3c-1-16,1.5-38,7.5-65.6c2.3-11.1,5.6-24.8,10-40.8
		s8-28.7,10.7-38.1c2.7-9.4,6.2-21.4,10.4-36.2c4.2-14.7,8.1-27.7,11.6-39.1c3.6-11.8,5-24.6,4.2-38c-2.3-34.9-21.9-51.5-58.7-49.2
		c-17.9,1.1-36.6,6.4-55.5,15.6c-9.4,4.6-20.4,11.6-33,20.9c-3.3,2.4-7.4-1.5-5.1-4.9c59.2-85.1,102.1-161.3,128-226.9
		c14.2-36.7,20.6-66.5,19.2-88.5c-2.1-32.9-19.5-48.7-51.7-46.7c-30.8,1.9-59.4,17.4-85.1,45.8c-25.3,28-47.5,62.7-65.9,103.1
		c-18.3,40.2-36.7,89.9-54.8,147.8s-39.4,138.2-63.4,238.9c-24,100.5-42.9,174.8-56.2,220.8c-0.7,2.4,1.2,4.7,3.7,4.5l90.7-5.7
		l0.5-2.7c4.1-20.6,8.3-38.9,12.4-54.3c4.1-15.6,8.8-36.2,13.8-61.2c5-24.7,10.2-46,15.4-63.3c5.2-17.3,12.4-38.1,21.4-61.7
		c8.9-23.4,20.6-44.6,34.9-62.9c14.2-18.2,29.6-32.5,45.9-42.5c20-12.3,29.6-15.2,34.2-15.5c0.5,0,0.9,0,1.4,0
		c5.3,0,11.5,1.7,12.4,15.3c0.6,8.7-2.6,25.5-9.3,49.6c-31.9,98-46.4,173.9-43,225.8c3,46.6,23.7,69.2,61.6,66.7
		c43.2-2.7,89.8-50.1,141.6-144.2c1.8-3.3,6.8-2,6.8,1.8c-0.2,10.5,0.1,20.8,0.7,31c3.3,51,21.9,76.9,55.3,76.9c1.4,0,2.8,0,4.2-0.1
		c20.2-1.3,41.9-13.2,64.7-35.5c22.3-21.8,42.2-47.4,59-75.9c2.7-4.5,5.4-9.3,8.1-14.2c-13.8,50.5-20.3,79.4-19.8,87.5l0.2,3.6
		l94.2-5.9l0.6-2.6c0.6-2.7,3.9-20.3,6.5-34.6c3.7-20.5,7.6-40.2,11.6-58.8c3.9-18,9.5-41.1,16.5-68.4c6.9-27.1,15-51.5,23.8-72.5
		c8.8-21,19-42.1,30.4-62.7c11.1-20.3,24-36.3,38.3-47.7c14-11.2,28.9-17.4,44-18.4c14-0.9,20.7,3.9,21.5,15.8
		c0.4,6-0.4,11.9-2.3,17.7c-37,130.9-54.3,219-51.6,261.9c2.9,44.6,23.5,66.2,61.4,63.8c20.1-1.3,41.9-13.2,64.7-35.5
		c22.3-21.8,42.2-47.4,59-75.9c5.3-9,10.8-18.8,16.5-29.3c1.8-3.3,6.9-2,6.8,1.8c-0.1,5.3-0.1,10.2,0.2,14.8
		c1.5,27.9,7.8,49.1,18.8,63.1c11.3,14.4,25.9,21.3,43.2,20.2c16.4-1,30.7-4,42.5-8.8c12.2-4.9,27.9-17.6,48.1-38.9
		c12.9-13.6,27.3-31.6,43-53.9c2.3-3.3,7.5-0.9,6.4,3l-25.7,93.2c-0.3,1.2-1.3,2.2-2.5,2.5c-51.5,13.6-127.6,16-172,48.7l-0.6,0.3
		c-9.1,3.9-21.6,17.4-29.6,30.3c-7.8,12.6-17.5,29.4-16.5,44.5c1.6,25.4,9.4,46.6,34.5,59.5c19.5,10,35.8,12.1,61.3,12.1
		c4.2,0,8.6-0.1,13-0.4c30.7-1.9,61-12.1,90-30.3c28.9-18.1,52.9-41.7,71.4-70.2c13.7-21.1,25.7-47.7,36.1-79.3
		c0.3-1,1.1-1.8,2.1-2.2c3.3-1.3,6.4-2.6,9-3.9c60.1-29,106.6-74.7,161.9-111.8c35.7-23.9,12.7,32.7,8.2,39.8
		c-27.8,43.1-68.4,77.3-99.7,117.8c-82.8,106.9-197.7,195.6-334.6,219.8c-395,69.8-774.7,27.1-1145.9,91.5
		c-48.2,8.4-96.2,18.5-144.1,31c-94.6,24.6-188.6,58-282.4,104C202.3,1762,203.6,1767.1,207.5,1767z M902,995.8
		c-2.3,3.4-7.6,1-6.5-3c22.8-78.6,46.9-150.2,71.7-213.1c35.8-91,59.3-111.1,72.8-112h0.6c1.9,0,7.6,0,8.5,15.1
		c0.8,12.2-5.9,39.6-19.9,81.1C1006.5,824.7,963.8,902.6,902,995.8z M1930.9,1307.6c-25.4,71.2-58.7,108.6-99.1,111.2
		c-11.7,0.7-21.3-2-29.3-8.5c-8.9-7.2-19.2-16.9-19.9-27.4c-1-14.9-0.2-26.9,3.3-34.3c0.2-0.4,0.4-0.7,0.7-1
		c20-21.1,59-27.4,84.9-33.5c18.2-4.3,36.9-7.4,55.3-11.2C1929.5,1302.4,1931.8,1305,1930.9,1307.6z"/>
	<path class="st6" d="M1584.2,2315.7c0-58.2-35.1-92.1-103.7-117.9c-51.4-19.4-75.1-33.9-75.1-66.2c0-29.1,23.7-53.3,66.1-53.3
		c36.7,0,65.3,12.9,80.8,22.6l18-51.7c-22-12.9-57.1-24.2-97.1-24.2c-84.9,0-136.3,51.7-136.3,114.7c0,46.9,33.5,85.6,104.5,110.7
		c53.1,19.4,73.5,38,73.5,71.9c0,32.3-24.5,58.2-76.7,58.2c-35.9,0-73.5-14.5-94.7-28.3l-18,54.1c27.8,16.2,67.8,26.7,111,26.7
		C1530.3,2432.9,1584.2,2384.4,1584.2,2315.7z"/>
	<path class="st6" d="M1124.7,1980.7c-19,1.1-35.5,3.8-51.6,10.2c-0.2,0.1-0.4,0.1-0.5,0.2l-20,9.7c-0.2,0.1-0.3,0.2-0.5,0.3
		c-57.9,33.3-91,100.8-91,180.1c0,113.2,69.7,189.1,186.4,189.1c56.5,0,96.4-10.9,121.2-21.2c2.8-1.2,4.4-4.2,3.6-7.2l-8.8-36.8
		c-0.9-3.7-4.8-5.7-8.3-4.3c-24.4,9.5-53.2,16.7-98.4,16.7c-67.3,0-125.6-36.2-129.8-123.6c-0.2-3.6,2.6-6.6,6.2-6.6h254.5
		c3.1,0,5.8-2.3,6.2-5.5c0.8-6.7,1.7-15.6,1.7-26.3c0-33.8-7.9-69.6-30.5-104.6c-0.6-0.9-1.4-1.6-2.3-2.1
		c-12.7-6.9-102.3-53.1-125.6-65.5C1133.3,1981.3,1129,1980.4,1124.7,1980.7z M1224.6,2138.5h-189.9c-3.8,0-6.7-3.3-6.1-7.1
		c6.5-45,27-100.5,88.9-103.6c3.4-0.2,6.9,0.3,10.1,1.6c69.6,27,116.2,64.8,103,104.8C1229.7,2136.8,1227.3,2138.5,1224.6,2138.5z"
		/>
	<path class="st6" d="M981.1,2405.6c-28.1,28.1-57.6,18.6-92.4-15.5l-151.5-148.3l72.3-72.4l-38.9-38.1l-72.3,72.4l-80.7-79
		l-36,62.5l67.3,65.9l-43.1,43.1l38.9,38.1l43.1-43.1l153.2,150c33.1,32.4,63.2,51.6,92.6,52.1c26,1.6,52.5-10,76-33.5
		c19.5-19.5,32.1-37.9,37.8-51.6l-40.6-35.2C1002.3,2380.9,994.3,2392.4,981.1,2405.6z"/>
	<path class="st6" d="M1584.2,2059.3v54.1h61.2v213.3c0,46,7.3,80.8,27.8,101.8c17.1,19.4,44.1,29.9,77.6,29.9
		c27.8,0,49.8-4,63.7-9.7l-3.3-53.3c-9,2.4-22.9,4.9-41.6,4.9c-40,0-53.9-27.5-53.9-75.9v-211h102.9v-54.1h-102.9V1947l-25.5,6.7
		l-44.7,15.3v90.3H1584.2z"/>
	<path class="st6" d="M1875.8,1952.3c21.8-18,57.4-39.6,100.3-39.6c70.5,0,93.8,43.9,93.8,91.4c-0.7,70.5-55.3,131-176,244.8
		l-50.2,48.2v38.9h217.7l81.6-47.1l-18.8-38.4l-59.8,33.1h-131.2v-1.4l37.8-34.5c99.6-95,162.9-164.8,162.9-251.2
		c0-66.9-42.9-136-144.7-136c-18.5,0-36.1,2.4-52.5,6.5l-32.8,11.2c-18.3,8-34.6,18.3-48.5,29.8L1875.8,1952.3z"/>
</g>
</svg>
