<?xml version="1.0" encoding="utf-8"?>
<!-- Generator: Adobe Illustrator 26.2.1, SVG Export Plug-In . SVG Version: 6.00 Build 0)  -->
<svg version="1.1" id="shinytest2" xmlns="http://www.w3.org/2000/svg" xmlns:xlink="http://www.w3.org/1999/xlink" x="0px" y="0px"
	 viewBox="0 0 2521 2911" style="enable-background:new 0 0 2521 2911;" xml:space="preserve">
<style type="text/css">
	.st0{fill:#438BCA;}
	.st1{opacity:0.25;fill:url(#SVGID_1_);}
	.st2{fill:#DA2228;}
	.st3{fill:#A61E22;}
	.st4{fill:#3775A9;}
	.st5{opacity:0.9;fill:#FFFFFF;}
	.st6{fill:#FFFFFF;}
</style>
<g>
	<g>
		<polygon class="st0" points="1305.3,2884.5 1890.6,2546.6 2143.4,2400.6 1455.5,2797.8 		"/>
		<polygon class="st0" points="648.6,2557.1 1152.6,2848.1 1065.5,2797.8 		"/>
		<polygon class="st0" points="2230.5,669.5 1260.5,109.5 1260.5,119.5 275.9,677.9 95.7,779 95.7,1345 95.7,1343 1200.6,1896.6 
			1230.1,1786.1 2425.2,1472.2 2425.2,779 		"/>
		<linearGradient id="SVGID_1_" gradientUnits="userSpaceOnUse" x1="1250.0306" y1="-445.1404" x2="1254.4843" y2="1144.7197">
			<stop  offset="0" style="stop-color:#FFFFFF;stop-opacity:0.83"/>
			<stop  offset="1" style="stop-color:#FFFFFF;stop-opacity:0"/>
		</linearGradient>
		<path class="st1" d="M1251.5,1142.3c432.9,0,806.3-189.4,979-462.9l-970-560h0L275.9,687.9
			C447.4,960.7,817.7,1142.3,1251.5,1142.3z"/>
		<polygon class="st2" points="1412.1,1835.2 1202.5,1896 1243.9,1930.4 1261,2034.8 1056.5,1931.1 159.7,1481.3 100.7,1451.7 
			100.7,2132.2 1260.5,2801.8 2423.2,2132.2 2423.2,1569.4 1911.4,1703.5 		"/>
		<path class="st3" d="M1890.6,363.8l630.1,363.8v715.9l-100.5,26.7v0l-1190.1,313.8l-29.5,110.5L100.7,1343l0,0L0.3,1293V727.6
			L1260.5,0v0L0.3,727.6v1455.2l460,265.6l188.3,108.7l416.9,240.7l87.2,50.3l107.8,62.3l44.8-25.9l150.2-86.7l688-397.2
			l377.3-217.8V727.6L1890.6,363.8z M2420.2,2128.2l-1159.7,669.6L100.7,2128.2v-670.4l58.9,29.6l896.9,449.8l207.2,103.7l-6.4-118
			l-52.3-26l207-54.6l499.3-131.7l508.8-134.2V2128.2z"/>
		<polygon class="st4" points="0.3,727.6 0.3,1293 100.7,1343 100.7,1343 100.7,789 275.9,687.9 1260.5,119.5 1260.5,119.5 
			2230.5,679.5 2420.2,789 2420.2,1470.2 2420.2,1470.2 2520.7,1443.5 2520.7,727.6 1890.6,363.8 1260.5,0 		"/>
	</g>
	<path class="st5" d="M1317.4,870.3l0.2,0l0.1,0c21.8-1.1,49.1-9.1,55.5-41.5c3-14.6-5.8-31.3-11.4-36.1c-5.4-4.7-13.1-6.7-22.9-6.1
		c-10.1,0.6-21.9,6.8-33.3,17.2c-15,13.8-14.6,34-9.6,47.1C1300.5,862.6,1308.7,870,1317.4,870.3z"/>
	<path class="st5" d="M706.6,1249.3c23.6-91-35.4-157.1-87.6-223.8c-0.3-0.4-0.6-0.8-0.7-1.3c-2-8.5-58.5-59.9-74.3-79.3l-0.6-0.5
		c-7.5-5.4-15.4-32.9-19.2-48.1c-1.6-6.3-1.7-12.9-0.5-19.3c13.7-69.1,21.2-119.9,114.1-104.7c66.7,10.9,32.2,107.8,68.1,117.5
		l0.8,0.2c21.6,2.1,63.7-49.2,69.9-66.5c24-67.1-114.5-108.3-156.7-105.7c-84.6,5.2-140.3,50.7-174.2,125.7
		c-62.6,138.2,54.3,230,124.9,324.9c53.4,71.7,51,135.4-14.6,197c-72,67.6-155.8-25.3-165.3-90.8c-8.7-60-7.9-101.8-58.6-25.6
		c-46.6,69.9,1.7,162.2,93.2,166.2C545.2,1417.8,670.1,1390.3,706.6,1249.3z"/>
	<path class="st5" d="M207.8,1766.6c197.2-5.7,409.4,116.7,508.1,283.7c1.6,2.7,5.7,2.2,6.6-0.8c20.7-71.5,57.3-130.1,105.2-178.4
		c25.4-25.6,54-48.3,85-68.4c195.9-127.1,491-153.8,714-174c111.2-10,228.3-28.3,321.5-93.9c65-45.7,124.7-109.9,178.3-166
		c38.6-40.4,63.9-72,96.8-114.3c17.4-22.5,26.3-32.6,43.1-58.1c13.3-20.2,25.6-43.5,34-66.1c1.9-5,8.4-23.1,9.8-42.7v-0.5
		c-0.1-2-0.3-4-0.4-6.1c-6.3-92.7-139,53.1-156.6,70.5c-28.1,27.8-66.6,57.1-102.8,78.7c-2.8,1.7-6.2-0.9-5.3-4
		c3.8-13.9,8.3-31.3,13.4-52.3c6.8-27.6,11.4-46.1,13.4-53.5c1.9-7.4,7.3-28.2,16-62.7c8.7-34.4,19.7-73,32.6-114.7
		c15.8-49.3,32.6-80.9,49.8-94l0.7-0.6c2.8-2.1,1.1-6.6-2.4-6.4l-38.1,2.4c-15.3,1-31.9,4-49.5,9.1c-6,1.9-11.6,5.5-16.9,10.8
		c-4.9,5-8.8,9-11.6,12.2c-3.2,3.5-6.5,9.6-10.1,18.5c-3.4,8.3-5.9,15-7.5,19.9c-1.5,4.7-4.2,13.5-7.9,26.2
		c-3.7,12.7-6.6,22.4-8.6,29.1c-14.9,47.7-37.9,96.6-68.4,145.4c-30,47.9-55.5,72.9-75.8,74.1l-0.8,0c-8.3,0-13.2-9.7-14.4-28.7
		c-2.7-41.2,6.9-93.4,28.4-155.1c21.5-61.7,43.9-105.5,66.9-130.3c4-5,5.9-9.2,5.7-12.8c-0.3-4.5-3.1-7.3-8-7.3h0
		c-32.4,2.1-58.1,8.1-76.5,18c-18.5,10-35.8,30.9-51.4,62c-13.2,26.3-24.9,60.6-34.8,102.1l-0.3,0.7c-1.7,3.3-3.7,7.4-6.2,12.8
		c-6.9,14.9-15.4,32.5-25.2,52.3c-9.8,19.8-19.1,36.5-27.5,49.7c-8.4,13.1-19.3,26-32.4,38.4c-15.9,15-24.9,18.5-29.7,18.8l-1.1,0
		c-5,0-11.8-2-12.9-19.2c-1.6-24.4,8.6-74.4,30.3-148.6c10-34.6,16.1-57,18.4-68.5c2.3-11.6,3.2-23.2,2.4-34.6
		c-2.3-36.2-22-53.5-58.8-51.1c-46,2.9-90.8,26.6-133.5,70.6c-2.5,2.5-6.7,0.4-6.2-3c1.9-11.5,2.6-19.7,2.3-24.8
		c-0.6-9-4.6-16-11.9-20.8c-7.1-4.7-21.2-6.3-43.5-4.9l-38.1,2.4c-2.7,0.2-4.3,3.2-2.8,5.5l0,0c1.7,2.6,2.7,7,3.1,12.9
		c1.7,26.1-6.1,73.5-23,140.6c-1.3,2.3-3.3,5.8-4.5,8.2c-2,1.9-5.3,7.4-13,23.4c-7.2,14.9-15.8,32.5-25.7,52.9
		c-9.9,20.3-19,37.2-27.1,50.2c-8,13-18.8,25.7-31.9,37.8c-15.9,14.6-25,18-29.7,18.3l-1,0c-3.1,0-12.7,0-14.2-24.1
		c-1.2-18.5,2.2-43.2,10.1-73.5c8-30.5,15.4-55.1,22-73c6.4-17.3,16.2-43,30.7-80.8c13.5-35,24.8-56.9,33.5-64.9l0.2-0.2
		c2.5-2.3,0.7-6.3-2.6-6.2l-54.7,2.6c-27.3,1.7-50.8,23.7-70,65.5c-17,38.5-30.4,75.6-40.1,111.4c-0.2,0.5-0.5,1-0.7,1.6
		c-46.3,115.4-87.2,175-121.8,177.2l-0.9,0c-2.7,0-10.9,0-12.2-20.3c-1-16,1.5-38,7.5-65.6c2.3-11.1,5.6-24.8,10-40.8
		c4.4-16,8-28.7,10.7-38.1c2.7-9.4,6.2-21.4,10.4-36.2c4.2-14.7,8.1-27.7,11.6-39.1c3.6-11.8,5-24.6,4.2-38
		c-2.3-34.9-21.9-51.5-58.7-49.2c-17.9,1.1-36.6,6.4-55.5,15.6c-9.4,4.6-20.4,11.6-33,20.9c-3.3,2.4-7.4-1.5-5.1-4.9
		c59.2-85.1,102.1-161.3,128-226.9c14.2-36.7,20.6-66.5,19.2-88.5c-2.1-32.9-19.5-48.7-51.7-46.7c-30.8,1.9-59.4,17.4-85.1,45.8
		c-25.3,28-47.5,62.7-65.9,103.1c-18.3,40.2-36.7,89.9-54.8,147.8c-18.1,57.9-39.4,138.2-63.4,238.9
		c-24,100.5-42.9,174.8-56.2,220.8c-0.7,2.4,1.2,4.7,3.7,4.5l90.7-5.7l0.5-2.7c4.1-20.6,8.3-38.9,12.4-54.3
		c4.1-15.6,8.8-36.2,13.8-61.2c5-24.7,10.2-46,15.4-63.3c5.2-17.3,12.4-38.1,21.4-61.7c8.9-23.4,20.6-44.6,34.9-62.9
		c14.2-18.2,29.6-32.5,45.9-42.5c20-12.3,29.6-15.2,34.2-15.5c0.5,0,0.9,0,1.4,0c5.3,0,11.5,1.7,12.4,15.3
		c0.6,8.7-2.6,25.5-9.3,49.6c-31.9,98-46.4,173.9-43,225.8c3,46.6,23.7,69.2,61.6,66.7c43.2-2.7,89.8-50.1,141.6-144.2
		c1.8-3.3,6.8-2,6.8,1.8c-0.2,10.5,0.1,20.8,0.7,31c3.3,51,21.9,76.9,55.3,76.9c1.4,0,2.8,0,4.2-0.1c20.2-1.3,41.9-13.2,64.7-35.5
		c22.3-21.8,42.2-47.4,59-75.9c2.7-4.5,5.4-9.3,8.1-14.2c-13.8,50.5-20.3,79.4-19.8,87.5l0.2,3.6l94.2-5.9l0.6-2.6
		c0.6-2.7,3.9-20.3,6.5-34.6c3.7-20.5,7.6-40.2,11.6-58.8c3.9-18,9.5-41.1,16.5-68.4c6.9-27.1,15-51.5,23.8-72.5
		c8.8-21,19-42.1,30.4-62.7c11.1-20.3,24-36.3,38.3-47.7c14-11.2,28.9-17.4,44-18.4c14-0.9,20.7,3.9,21.5,15.8
		c0.4,6-0.4,11.9-2.3,17.7c-37,130.9-54.3,219-51.6,261.8c2.9,44.6,23.5,66.2,61.4,63.8c20.1-1.3,41.9-13.2,64.7-35.5
		c22.3-21.8,42.2-47.4,59-75.9c5.3-9,10.8-18.8,16.5-29.3c1.8-3.3,6.9-2,6.8,1.8c-0.1,5.3-0.1,10.2,0.2,14.8
		c1.5,27.9,7.8,49.1,18.8,63.1c11.3,14.4,25.9,21.3,43.2,20.2c16.4-1,30.7-4,42.5-8.8c12.2-4.9,27.9-17.6,48.1-38.9
		c12.9-13.6,27.3-31.6,43-53.9c2.3-3.3,7.5-0.9,6.4,3l-25.7,93.2c-0.3,1.2-1.3,2.2-2.5,2.5c-51.5,13.6-127.6,16-172,48.7l-0.6,0.3
		c-9.1,3.9-21.6,17.4-29.6,30.3c-7.8,12.6-17.5,29.4-16.5,44.5c1.6,25.4,9.4,46.6,34.5,59.5c19.5,10,35.8,12.1,61.3,12.1
		c4.2,0,8.6-0.1,13-0.4c30.7-1.9,61-12.1,90-30.3c28.9-18.1,52.9-41.7,71.4-70.2c13.7-21.1,25.7-47.7,36.1-79.3
		c0.3-1,1.1-1.8,2.1-2.2c3.3-1.3,6.4-2.6,9-3.9c60.1-29,106.6-74.7,161.9-111.8c35.7-23.9,12.7,32.7,8.2,39.8
		c-27.8,43.1-68.4,77.3-99.7,117.8c-82.8,106.9-197.7,195.6-334.5,219.8c-394.9,69.8-774.5,27.1-1145.7,91.5
		c-48.2,8.4-96.2,18.5-144.1,31c-94.6,24.6-188.6,58-282.3,104C202.6,1761.6,203.9,1766.7,207.8,1766.6z M902.1,995.6
		c-2.3,3.4-7.6,1-6.5-3c22.8-78.6,46.9-150.2,71.7-213.1c35.8-91,59.3-111.1,72.8-112l0.6,0c1.9,0,7.6,0,8.5,15.1
		c0.8,12.2-5.9,39.6-19.9,81.1C1006.6,824.5,963.9,902.4,902.1,995.6z M1930.8,1307.3c-25.4,71.2-58.7,108.6-99.1,111.2
		c-11.7,0.7-21.3-2-29.3-8.5c-8.9-7.2-19.2-16.9-19.9-27.4c-1-14.9-0.2-26.9,3.3-34.3c0.2-0.4,0.4-0.7,0.7-1
		c20-21.1,59-27.4,84.9-33.5c18.2-4.3,36.9-7.4,55.3-11.2C1929.4,1302.1,1931.7,1304.7,1930.8,1307.3z"/>
	<path class="st6" d="M1584.2,2315.2c0-58.2-35.1-92.1-103.7-117.9c-51.4-19.4-75.1-33.9-75.1-66.2c0-29.1,23.7-53.3,66.1-53.3
		c36.7,0,65.3,12.9,80.8,22.6l18-51.7c-22-12.9-57.1-24.2-97.1-24.2c-84.9,0-136.3,51.7-136.3,114.7c0,46.9,33.5,85.6,104.5,110.7
		c53.1,19.4,73.5,38,73.5,71.9c0,32.3-24.5,58.2-76.7,58.2c-35.9,0-73.5-14.5-94.7-28.3l-18,54.1c27.8,16.2,67.8,26.7,111,26.7
		C1530.3,2432.4,1584.2,2383.9,1584.2,2315.2z"/>
	<path class="st6" d="M1124.8,1980.3c-19,1.1-35.5,3.8-51.6,10.2c-0.2,0.1-0.4,0.1-0.5,0.2l-20,9.7c-0.2,0.1-0.3,0.2-0.5,0.3
		c-57.9,33.3-91,100.8-91,180.1c0,113.2,69.7,189.1,186.4,189.1c56.5,0,96.4-10.9,121.2-21.2c2.8-1.2,4.4-4.2,3.6-7.2l-8.8-36.8
		c-0.9-3.7-4.8-5.7-8.3-4.3c-24.4,9.5-53.2,16.7-98.4,16.7c-67.3,0-125.6-36.2-129.8-123.6c-0.2-3.6,2.6-6.6,6.2-6.6h254.4
		c3.1,0,5.8-2.3,6.2-5.5c0.8-6.7,1.7-15.6,1.7-26.3c0-33.8-7.9-69.6-30.5-104.6c-0.6-0.9-1.4-1.6-2.3-2.1
		c-12.7-6.9-102.3-53.1-125.6-65.5C1133.4,1980.9,1129.1,1980,1124.8,1980.3z M1224.7,2138.1h-189.9c-3.8,0-6.7-3.3-6.1-7.1
		c6.5-45,27-100.5,88.9-103.6c3.4-0.2,6.9,0.3,10.1,1.6c69.6,27,116.2,64.8,103,104.8C1229.8,2136.4,1227.4,2138.1,1224.7,2138.1z"
		/>
	<path class="st6" d="M981.2,2405.1c-28.1,28.1-57.6,18.6-92.4-15.5l-151.5-148.3l72.3-72.4l-38.9-38.1l-72.3,72.4l-80.7-79
		l-36,62.5l67.3,65.9l-43.1,43.1l38.9,38.1l43.1-43.1l153.2,150c33.1,32.4,63.2,51.6,92.6,52.1c26,1.6,52.5-10,76-33.5
		c19.5-19.5,32.1-37.9,37.8-51.6l-40.6-35.2C1002.4,2380.4,994.4,2391.9,981.2,2405.1z"/>
	<path class="st6" d="M1584.2,2058.9v54.1h61.2v213.3c0,46,7.3,80.8,27.8,101.8c17.1,19.4,44.1,29.9,77.6,29.9
		c27.8,0,49.8-4,63.7-9.7l-3.3-53.3c-9,2.4-22.9,4.9-41.6,4.9c-40,0-53.9-27.5-53.9-75.9V2113h102.9v-54.1h-102.9v-112.3l-25.5,6.7
		l-44.7,15.3v90.3H1584.2z"/>
	<path class="st6" d="M1875.7,1951.9c21.8-18,57.4-39.6,100.3-39.6c70.5,0,93.8,43.9,93.8,91.4c-0.7,70.5-55.3,131-176,244.7
		l-50.2,48.2v38.9l217.7,0l81.6-47.1l-18.8-38.4l-59.8,33.1h-131.2v-1.4l37.8-34.5c99.6-95,162.9-164.8,162.9-251.1
		c0-66.9-42.9-136-144.7-136c-18.5,0-36.1,2.4-52.5,6.5l-32.8,11.2c-18.3,8-34.6,18.3-48.5,29.8L1875.7,1951.9z"/>
	<path class="st6" d="M1805.6,2461.1c-5.8-5.2-10.3-3.4-14.5-2.6c-3.9,0.7-12.8,1.6-13.1,2.4c-0.8,2,0,0-0.9,2.5l-0.2,0
		c-0.6-1.1-1.4-2-2.2-2.9l0,0l0,0c-0.3,0-0.6,0-0.9,0l-0.9,0c-1.6,0-2.1,0.1-3.6,0.3c-3.3,0.5-5.8,0.5-9.1,0.7
		c-1.4,0.1-3.4,0.1-4.9,0.1c-0.6,0.8-1.3,2.2-1.7,3.2l-0.3,0l-0.8-3.5l-0.9,0c-1.9,0.1-3.4,0-5.4,0.2l-0.5,0
		c0.6,2.7,1.2,5.5,1.8,8.8l5.3,29.5l7.3-1.3l-4.4-24.4c-0.2-1.3-0.3-2.5-0.1-3.7c0.5-3.9,3.5-6.1,8.1-6.9c5.7-1,9.9,5.5,11.1,12
		l3.5,19.3l6.9-3.5l-3.2-17.8c-0.2-1.3-0.2-2.7-0.1-3.8c0.6-3.8,2.7-6.6,6.9-7.3c4.6-0.8,6.6-1.4,10.2,2.5c7.8,7.8,0,19.3,0,19.3
		l7.3-3.7C1806.3,2480.7,1816.3,2473.4,1805.6,2461.1z"/>
	<path class="st6" d="M1253.7,2731.2l15.4,15.5c3.4,3.4,6.5,6.5,9.3,9.9l0.2-0.1c-1.3-4.1-2.4-8.6-3.4-13.2l-4.8-21.7l5.5-3.2
		l16,14.7c3.8,3.5,7.1,6.7,10,9.9l0.2-0.1c-1.5-4-2.8-8.3-4-13.2l-5.4-21l6.4-3.8l9.3,42.6l-5.9,3.5l-15.4-13.9
		c-3.6-3.3-6.7-6.2-10-9.9l-0.1,0.1c1.6,4.8,2.7,9.2,3.6,13.7l4.1,20.4l-5.9,3.4l-31.7-29.6L1253.7,2731.2z"/>
	<path class="st6" d="M1309.2,2699l15.4,15.5c3.4,3.4,6.5,6.5,9.3,9.9l0.2-0.1c-1.3-4.1-2.4-8.6-3.4-13.2l-4.8-21.7l5.5-3.2l16,14.7
		c3.8,3.5,7.1,6.7,10,9.9l0.2-0.1c-1.5-4-2.8-8.3-4-13.2l-5.4-21l6.4-3.8l9.3,42.6l-5.9,3.4l-15.4-13.9c-3.6-3.3-6.7-6.2-10-9.9
		l-0.1,0.1c1.6,4.8,2.7,9.2,3.6,13.8l4.1,20.4l-5.9,3.5l-31.7-29.6L1309.2,2699z"/>
	<path class="st6" d="M1364.6,2666.7l15.4,15.5c3.4,3.4,6.5,6.5,9.3,9.9l0.2-0.1c-1.3-4.1-2.4-8.6-3.4-13.2l-4.8-21.7l5.5-3.2
		l16,14.7c3.8,3.5,7.1,6.7,10,9.8l0.2-0.1c-1.5-4-2.8-8.3-4-13.2l-5.4-21l6.4-3.8l9.3,42.6l-5.9,3.5l-15.4-13.9
		c-3.6-3.3-6.7-6.2-10-9.9l-0.2,0.1c1.6,4.8,2.7,9.2,3.6,13.8l4.1,20.4l-5.9,3.4l-31.7-29.6L1364.6,2666.7z"/>
	<path class="st6" d="M1430.7,2671c-1.6-2.7-0.9-5.7,1.7-7.3c2.6-1.5,5.5-0.6,7.1,2.1c1.6,2.7,1,5.7-1.7,7.3
		C1435.2,2674.7,1432.3,2673.7,1430.7,2671z"/>
	<path class="st6" d="M1435.5,2640.4c-2.5-4.2-4.6-7.8-6.8-11l5.7-3.3l4.3,6.9l0.3-0.2c-1.2-5.8,1-11.1,5.4-13.6
		c0.7-0.4,1.3-0.7,2-0.9l3.6,6.1c-0.8,0.2-1.5,0.5-2.4,1.1c-4.6,2.7-5.8,8.1-3.9,13.5c0.4,1,0.8,2.1,1.5,3.2l11.1,19.1l-6.4,3.8
		L1435.5,2640.4z"/>
	<path class="st6" d="M1469.3,2644.8c2.7,0.1,6.8-0.5,10.1-2.4c4.7-2.8,5.6-6.4,3.9-9.4c-1.8-3.1-4.7-3.7-10.5-2.7
		c-7.8,1.5-12.9-0.3-15.4-4.6c-3.4-5.8-1.5-13.2,6.3-17.7c3.6-2.1,7.4-2.9,10.1-2.9l1.1,5.7c-1.9-0.1-5.2,0.3-8.5,2.2
		c-3.8,2.2-4.7,5.7-3.2,8.4c1.7,3,4.7,3,10.4,2.1c7.6-1.2,12.6,0,15.7,5.3c3.7,6.3,1.4,13.6-7.2,18.5c-3.9,2.3-8.1,3.4-11.5,3.4
		L1469.3,2644.8z"/>
	<path class="st6" d="M1484.4,2583.1l6,10.3l9.3-5.4l2.9,5l-9.3,5.4l11.3,19.3c2.6,4.4,5.3,6.2,8.9,4.1c1.7-1,2.8-1.9,3.5-2.6
		l3.1,4.7c-1,1.3-2.7,2.8-5.3,4.3c-3,1.8-6,2.2-8.6,1.4c-3-0.9-5.5-3.6-8-7.9l-11.4-19.6l-5.6,3.2l-2.9-5l5.6-3.2l-5-8.6
		L1484.4,2583.1z"/>
	<path class="st6" d="M1552.3,2592.3c2.2,3.7,4.1,6.9,6,9.6l-5.8,3.4l-3.8-5.6l-0.1,0.1c0,3.9-1.6,9.9-8,13.6
		c-5.6,3.3-14.2,4.1-21.5-8.5l-12.2-21l6.5-3.8l11.6,19.9c4,6.8,8.7,10.2,14.6,6.8c4.4-2.5,5.6-7.3,5.1-10.9
		c-0.2-1.2-0.7-2.5-1.3-3.7l-12.8-22l6.5-3.8L1552.3,2592.3z"/>
	<path class="st6" d="M1569.1,2525.2l25.2,43.3c1.9,3.2,4,6.8,5.7,9.1l-5.9,3.4l-3.9-6.1l-0.1,0.1c0.3,5.2-2.3,10.7-8.1,14.2
		c-8.7,5-19.6,1.6-25.9-9.3c-7-11.9-3.9-23.5,4.9-28.6c5.5-3.2,10.7-2.8,14-0.8l0.2-0.1l-12.5-21.4L1569.1,2525.2z M1580.9,2560.3
		c-0.5-0.8-1.2-1.9-1.9-2.6c-3.4-3.6-8.9-4.9-13.8-2.1c-6.7,3.9-7.3,12.2-2.7,20.1c4.2,7.3,11.3,11.2,18.3,7.1
		c4.4-2.5,6.7-7.8,5-13.3c-0.3-1-0.7-1.9-1.3-3L1580.9,2560.3z"/>
	<path class="st6" d="M1591.1,2521.3c1.4,2.2,0.8,4.9-1.8,6.4c-2.3,1.3-5,0.5-6.3-1.7c-1.3-2.3-0.7-5.1,1.7-6.4
		C1587.2,2518.1,1589.8,2519,1591.1,2521.3z M1610.6,2571.5l-20.9-35.9l6.5-3.8l20.9,35.9L1610.6,2571.5z"/>
	<path class="st6" d="M1649.8,2524.3c7.7,13.3,1.9,24.4-6.8,29.4c-9.7,5.7-21.3,2.9-27.9-8.4c-7-12-3.2-23.6,6.7-29.4
		C1632.1,2509.9,1643.4,2513.3,1649.8,2524.3z M1621.5,2541.2c4.6,7.9,12.5,11.1,18.9,7.4c6.2-3.6,7.5-12.2,2.8-20.3
		c-3.5-6.1-11.1-12-18.8-7.5C1616.8,2525.3,1617.6,2534.4,1621.5,2541.2z"/>
	<path class="st6" d="M1663,2535.8c-1.6-2.7-0.9-5.7,1.7-7.3c2.6-1.5,5.5-0.6,7.1,2.1c1.6,2.7,1,5.7-1.7,7.3
		C1667.5,2539.4,1664.6,2538.4,1663,2535.8z"/>
	<path class="st6" d="M1707,2513.6c-1.2,1.9-4.3,5.3-9.1,8.1c-10.8,6.3-22.1,3.1-28.5-7.9c-6.4-11-3.5-23.4,8.2-30.3
		c3.9-2.2,7.8-3.3,10.1-3.4l1.5,5.9c-2.1,0-5,0.6-8.5,2.7c-8.2,4.8-9.1,13.5-4.8,20.9c4.8,8.3,13.1,10.3,20.3,6.2
		c3.7-2.2,5.6-4.5,7-6.4L1707,2513.6z"/>
	<path class="st6" d="M1743.1,2484.5c3.8,14.9-4.8,24-14.5,26.5c-10.9,2.8-21.3-3-24.6-15.7c-3.5-13.4,3.3-23.6,14.4-26.5
		C1729.9,2465.9,1739.9,2472.2,1743.1,2484.5z M1711.3,2493.2c2.3,8.8,9.1,14.1,16.2,12.3c7-1.8,10.5-9.7,8.2-18.8
		c-1.8-6.8-7.4-14.6-16-12.3C1711,2476.6,1709.3,2485.5,1711.3,2493.2z"/>
</g>
</svg>
