<?xml version="1.0" encoding="utf-8"?>
<!-- Generator: Adobe Illustrator 22.0.1, SVG Export Plug-In . SVG Version: 6.00 Build 0)  -->
<svg version="1.1" id="Layer_1" xmlns="http://www.w3.org/2000/svg" xmlns:xlink="http://www.w3.org/1999/xlink" x="0px" y="0px"
	 viewBox="0 0 735 852" style="enable-background:new 0 0 735 852;" xml:space="preserve">
<style type="text/css">
	.st0{fill:#428BCA;}
	.st1{opacity:0.25;fill:url(#SVGID_1_);enable-background:new    ;}
	.st2{fill:#3674A8;}
	.st3{fill:#E6B35A;}
	.st4{fill:#FFFFFF;}
	.st5{opacity:0.9;fill:#FFFFFF;enable-background:new    ;}
</style>
<title>shiny</title>
<path class="st0" d="M715.1,226.8L366.9,16l-347,210.8v401.5L367.5,829l347.6-200.7V226.8z"/>
<linearGradient id="SVGID_1_" gradientUnits="userSpaceOnUse" x1="366.1405" y1="-182.39" x2="367.4405" y2="281.13" gradientTransform="matrix(1 0 0 1 0 60)">
	<stop  offset="0" style="stop-color:#FFFFFF;stop-opacity:0.83"/>
	<stop  offset="0.56" style="stop-color:#FFFFFF;stop-opacity:0.37"/>
	<stop  offset="1" style="stop-color:#FFFFFF;stop-opacity:0"/>
</linearGradient>
<path class="st1" d="M366.9,340.4c128.2,0,238.6-57,287.8-138.8L367.5,35.8l0,0L79.4,202.2C128.8,283.7,238.9,340.4,366.9,340.4z"/>
<path class="st2" d="M734.9,637.4V213.1l-29.3-16.9L427.8,35.8L367.5,1l-60.3,34.8L29.4,196.2L0.1,213.1v424.2l29.3,16.9
	l281.3,162.4l56.9,32.8l56.9-32.8l281.3-162.4L734.9,637.4z M29.4,621.5V231l50-28.9L367.5,35.8l0,0l287.2,165.8l50.9,29.4v390.5
	L367.5,816.7L29.4,621.5z"/>
<path class="st3" d="M367,633.9c0.3-0.3,0.6-0.6,0.9-0.9h-0.3C367.5,633.3,367.3,633.6,367,633.9z"/>
<path class="st4" d="M365.5,797.3l4.5,4.5c1,1,1.9,1.9,2.7,2.9h0.1c-0.4-1.2-0.7-2.5-1-3.8l-1.4-6.3l1.6-0.9l4.7,4.3
	c1.1,1,2.1,2,2.9,2.9h0.1c-0.5-1.3-0.9-2.5-1.2-3.8l-1.6-6.1l1.9-1.1l2.7,12.3l-1.7,1l-4.5-4.1c-1-0.9-2-1.9-2.9-2.9l0,0
	c0.4,1.3,0.8,2.6,1.1,4l1.2,6l-1.7,1l-9.2-8.6L365.5,797.3z"/>
<path class="st4" d="M381.7,787.9l4.5,4.5c1,1,1.9,1.9,2.7,2.9h0.1c-0.4-1.2-0.7-2.5-1-3.8l-1.4-6.3l1.6-0.9l4.7,4.3
	c1.1,1,2.1,2,2.9,2.9h0.1c-0.5-1.3-0.9-2.5-1.2-3.8l-1.6-6.1l1.9-1.1l2.7,12.4l-1.7,1l-4.5-4.1c-1-0.9-2-1.9-2.9-2.9l0,0
	c0.4,1.3,0.8,2.6,1.1,4l1.2,6l-1.7,1l-9.2-8.7L381.7,787.9z"/>
<path class="st4" d="M397.9,778.5l4.5,4.5c1,1,1.9,1.9,2.7,2.9h0.1c-0.4-1.2-0.7-2.5-1-3.8l-1.4-6.3l1.6-0.9l4.7,4.3
	c1.1,1,2.1,2,2.9,2.9h0.1c-0.5-1.3-0.8-2.6-1.2-3.9l-1.6-6.1l1.9-1.1l2.7,12.4l-1.7,1l-4.5-4.1c-1-0.9-2-1.9-2.9-2.9l0,0
	c0.4,1.3,0.8,2.6,1.1,4l1.2,6l-1.7,1l-9.2-8.6L397.9,778.5z"/>
<path class="st4" d="M417.1,779.7c-0.5-0.7-0.3-1.6,0.4-2.1c0,0,0.1,0,0.1-0.1c0.8-0.4,1.7,0,2.1,0.8c0.3,0.7,0.1,1.5-0.5,2
	C418.5,780.8,417.6,780.5,417.1,779.7C417.2,779.8,417.1,779.8,417.1,779.7z"/>
<path class="st4" d="M418.5,770.8c-0.7-1.2-1.4-2.3-2-3.2l1.7-1l1.3,2h0.1c-0.4-1.5,0.2-3.2,1.6-4c0.2-0.1,0.4-0.2,0.6-0.2l1,1.8
	c-0.2,0.1-0.5,0.2-0.7,0.3c-1.3,0.8-1.8,2.5-1.1,3.9c0.1,0.3,0.3,0.6,0.4,0.9l3.2,5.6l-1.8,1.1L418.5,770.8z"/>
<path class="st4" d="M428.4,772.1c1,0,2-0.2,3-0.7c1.4-0.8,1.6-1.9,1.1-2.7s-1.4-1.1-3.1-0.8c-2.3,0.4-3.8-0.1-4.5-1.3
	c-1-1.7-0.4-3.8,1.8-5.2c0.9-0.5,1.9-0.8,3-0.8l0.3,1.7c-0.9,0-1.7,0.2-2.5,0.6c-0.9,0.4-1.3,1.4-1,2.3c0,0.1,0,0.1,0.1,0.2
	c0.5,0.9,1.4,0.9,3,0.6c2.2-0.4,3.7,0,4.6,1.5c1.1,1.8,0.4,4-2.1,5.4c-1,0.6-2.2,1-3.4,1L428.4,772.1z"/>
<path class="st4" d="M432.8,754.1l1.8,3l2.7-1.6l0.9,1.5l-2.7,1.6l3.3,5.6c0.8,1.3,1.5,1.8,2.6,1.2c0.4-0.2,0.7-0.5,1-0.8l0.9,1.4
	c-0.4,0.5-1,0.9-1.5,1.2c-0.7,0.5-1.7,0.6-2.5,0.4c-1-0.4-1.9-1.3-2.3-2.3l-3.3-5.7l-1.6,0.9l-0.8-1.5l1.6-0.9l-1.5-2.5L432.8,754.1
	z"/>
<path class="st4" d="M452.6,756.8c0.6,1.1,1.2,2,1.7,2.8l-1.7,1l-1.1-1.6l0,0c0,1.7-0.9,3.2-2.3,4c-1.6,1-4.1,1.2-6.3-2.5l-3.6-6.1
	l1.9-1.1l3.3,5.8c1.2,2,2.5,3,4.3,2c1.1-0.7,1.7-1.9,1.5-3.2c-0.1-0.4-0.2-0.7-0.4-1.1l-3.7-6.4l1.9-1.1L452.6,756.8z"/>
<path class="st4" d="M457.5,737.2l7.4,12.6c0.5,0.9,1.2,2,1.7,2.7l-1.7,1l-1.1-1.8l0,0c0.1,1.7-0.9,3.3-2.4,4.1
	c-2.5,1.5-5.7,0.5-7.6-2.7c-2-3.5-1.1-6.9,1.4-8.3c1.2-0.8,2.8-0.9,4.1-0.2l0,0l-3.6-6.2L457.5,737.2z M460.9,747.5
	c-0.2-0.3-0.3-0.5-0.5-0.8c-1-1.1-2.7-1.4-4-0.6c-2,1.1-2.1,3.5-0.8,5.9c1.2,2.1,3.3,3.3,5.3,2.1c1.3-0.8,2-2.4,1.5-3.9
	c-0.1-0.3-0.2-0.6-0.4-0.9L460.9,747.5z"/>
<path class="st4" d="M463.9,736.1c0.4,0.7,0.2,1.5-0.5,1.9s-1.5,0.2-1.9-0.5c-0.4-0.6-0.2-1.5,0.4-1.8c0,0,0,0,0.1,0
	C462.6,735.2,463.5,735.4,463.9,736.1C463.9,736,463.9,736,463.9,736.1z M469.6,750.7l-6.1-10.5l1.9-1.1l6.1,10.5L469.6,750.7z"/>
<path class="st4" d="M481,736.9c2.2,3.9,0.5,7.1-2,8.6c-2.8,1.7-6.2,0.8-8.1-2.5c-2-3.5-0.9-6.9,2-8.6S479.1,733.8,481,736.9z
	 M472.8,741.9c1.3,2.3,3.7,3.2,5.5,2.2s2.2-3.6,0.8-5.9c-1-1.8-3.2-3.5-5.5-2.2S471.6,739.9,472.8,741.9L472.8,741.9z"/>
<path class="st4" d="M484.9,740.3c-0.4-0.7-0.1-1.6,0.7-2c0.7-0.4,1.6-0.1,2,0.7c0.4,0.7,0.1,1.6-0.6,2s-1.6,0.2-2-0.5
	C484.9,740.4,484.9,740.3,484.9,740.3z"/>
<path class="st4" d="M497.7,733.8c-0.7,1-1.6,1.8-2.6,2.3c-3.1,1.8-6.5,0.9-8.3-2.3c-1.8-2.8-1-6.6,1.8-8.5c0.2-0.1,0.4-0.2,0.6-0.3
	c0.9-0.5,1.9-0.9,2.9-1l0.4,1.7c-0.9,0-1.7,0.3-2.5,0.8c-2.4,1.4-2.7,3.9-1.4,6.1c1.4,2.4,3.8,3,5.9,1.8c0.8-0.5,1.5-1.1,2-1.9
	L497.7,733.8z"/>
<path class="st4" d="M506.4,722.2c2.3,3.9,0.6,7.1-2,8.6c-2.8,1.6-6.2,0.8-8.1-2.5c-2-3.5-0.9-6.9,2-8.6S504.5,719,506.4,722.2z
	 M498.1,727.1c1.3,2.3,3.7,3.2,5.5,2.2s2.2-3.6,0.8-5.9c-1-1.8-3.2-3.5-5.5-2.2S497,725.1,498.1,727.1z"/>
<path class="st4" d="M507.4,718.5c-0.6-1.1-1.2-2-1.7-2.8l1.7-1l1.1,1.6h0.1c-0.1-1.6,0.8-3.1,2.2-3.8c1.3-0.8,3-0.6,4.2,0.4l0,0
	c0-0.7,0.1-1.4,0.4-2c0.4-0.9,1-1.6,1.9-2.1c1.4-0.8,4-1.1,6.1,2.5l3.6,6.2l-1.8,1.1l-3.5-5.9c-1.2-2-2.6-2.8-4.1-1.9
	c-1,0.6-1.5,1.8-1.2,3c0.1,0.4,0.2,0.7,0.4,1l3.8,6.5l-1.9,1.1l-3.7-6.3c-1-1.7-2.4-2.5-3.9-1.6c-1.3,1-1.7,2.8-0.9,4.3l3.7,6.3
	l-1.9,1.1L507.4,718.5z"/>
<path class="st5" d="M123.2,458L123.2,458C119.9,457.9,122.1,458,123.2,458z M123.1,458c-3.2-0.1-1.8,0-0.7,0h1.7H124H123.1
	C123.8,458,124.1,458.1,123.1,458z M124,458c34.9,0.8,71.4-7.3,82-48.8c6.9-26.8-10.3-46.3-25.5-65.9c-0.1-0.1-0.2-0.2-0.2-0.4
	c-0.6-2.5-17.1-17.7-21.7-23.4c0-0.1-0.1-0.1-0.2-0.2c-2.2-1.6-4.5-9.7-5.6-14.2c-0.5-1.9-0.5-3.8-0.1-5.7
	c4-20.4,6.2-35.3,33.3-30.9c19.5,3.2,9.4,31.8,19.9,34.6h0.2c6.3,0.6,18.6-14.5,20.4-19.6c7-19.8-33.4-31.9-45.7-31.1
	c-24.7,1.5-40.9,14.9-50.8,37c-18.2,40.7,15.8,67.8,36.4,95.7c15.6,21.1,14.9,39.9-4.2,58c-21,19.9-45.4-7.5-48.2-26.8
	c-2.5-17.7-2.3-30-17.1-7.5C83.2,429.7,97.3,456.9,124,458L124,458z M673.5,361.4v0.2c-0.4,4.3-1.3,8.5-2.8,12.6
	c-2.6,6.8-5.9,13.4-9.9,19.5c-4.9,7.5-7.5,10.5-12.6,17.1c-9.6,12.5-17,21.8-28.2,33.7c-15.6,16.5-33,35.4-52,48.9
	c-27.1,19.4-61.3,24.7-93.7,27.7c-94.8,8.6-234.3,21.4-263.7,124c-0.2,0.6-0.7,0.9-1.3,0.7c-0.3-0.1-0.5-0.2-0.6-0.5
	C179.9,596.1,118,560,60.6,561.7c-0.6,0.1-1.1-0.2-1.2-0.8s0.2-1.1,0.8-1.2C208,486.3,359,521.5,518.6,493
	c39.9-7.1,73.4-33.3,97.5-64.8c9.2-11.9,21-22,29.1-34.7c1.3-2.1,8-18.8-2.4-11.7c-16.1,10.9-29.7,24.4-47.2,32.9
	c-0.8,0.4-1.7,0.8-2.6,1.1c-0.3,0.1-0.5,0.4-0.6,0.7c-2.5,8.2-6,16.1-10.5,23.4c-5.3,8.3-12.4,15.4-20.8,20.7
	c-7.8,5.2-16.9,8.2-26.2,8.9c-1.3,0.1-2.5,0.1-3.8,0.1c-7.4,0-12.2-0.6-17.9-3.5c-7.3-3.8-9.6-10-10.1-17.5
	c-0.3-4.5,2.5-9.4,4.8-13.1s6-7.8,8.6-8.9l0.2-0.1c13-9.6,35.1-10.3,50.1-14.4c0.4-0.1,0.7-0.4,0.7-0.7L575,384
	c0.2-0.6-0.2-1.1-0.7-1.3c-0.4-0.1-0.9,0.1-1.1,0.4c-3.8,5.6-8,10.9-12.5,15.9c-5.9,6.2-10.5,10-14,11.4c-4,1.5-8.2,2.4-12.4,2.6
	c-5,0.3-9.3-1.7-12.6-5.9s-5.1-10.4-5.5-18.6c-0.1-1.3-0.1-2.8,0-4.4c0.1-0.6-0.2-1.1-0.7-1.3c-0.6-0.1-1.1,0.2-1.3,0.7
	c-1.6,3.1-3.2,6-4.8,8.6c-4.7,8.2-10.6,15.7-17.3,22.4c-6.6,6.6-13,10.1-18.9,10.5c-11.1,0.7-17.1-5.6-17.9-18.8
	c-0.8-12.6,4.2-38.5,15-77.1c0.6-1.7,0.8-3.5,0.7-5.2c-0.2-3.5-2.2-4.9-6.3-4.6c-4.7,0.4-9.2,2.3-12.9,5.4
	c-4.6,3.9-8.4,8.7-11.1,14.1c-3.3,6-6.2,12.2-8.9,18.5c-2.8,6.9-5.1,14.1-6.9,21.4c-2,8.1-3.7,14.9-4.8,20.2
	c-1.2,5.5-2.3,11.3-3.4,17.3c-0.8,4.2-1.7,9.4-1.9,10.2l-0.2,0.8l-27.5,1.8l-0.1-1c-0.2-2.4,1.8-10.9,5.8-25.8
	c-0.8,1.4-1.6,2.8-2.4,4.2c-4.7,8.2-10.5,15.7-17.2,22.4c-6.6,6.6-13,10.1-18.9,10.5c-0.4,0-0.8,0-1.2,0c-9.7,0-15.2-7.6-16.1-22.6
	c-0.2-3-0.3-6-0.2-9.1c0.1-0.6-0.2-1.1-0.7-1.3c-0.6-0.1-1.1,0.2-1.3,0.7c-15.1,27.7-28.7,41.7-41.3,42.5
	c-11.1,0.7-17.1-5.9-18-19.7c-1-15.3,3.2-37.7,12.5-66.5c2-7.1,2.9-12,2.7-14.6c-0.3-4-2.1-4.5-3.6-4.5h-0.4
	c-1.3,0.1-4.1,0.9-10,4.6c-5.2,3.4-9.7,7.6-13.4,12.5c-4.3,5.6-7.7,11.9-10.2,18.5c-2.6,7-4.7,13.1-6.2,18.2s-3,11.4-4.5,18.6
	s-2.8,13.4-4,18s-2.4,9.9-3.6,16l-0.2,0.8l-26.4,1.7c-0.6,0-1.1-0.4-1.1-1c0-0.1,0-0.2,0-0.4l0,0c3.9-13.5,9.4-35.4,16.4-65
	s13.4-53.3,18.6-70.3c4.5-14.8,9.8-29.4,16-43.5c4.8-11,11.3-21.3,19.2-30.4c7.5-8.4,15.9-12.9,24.8-13.5
	c9.4-0.6,14.4,4.1,15.1,13.8c0.4,6.5-1.5,15.2-5.6,26.1c-7.5,19.3-20,41.8-37.3,66.9c-0.4,0.4-0.4,1.1,0,1.5s1.1,0.4,1.5,0
	c3-2.3,6.2-4.4,9.6-6.1c5-2.6,10.5-4.1,16.2-4.6c10.7-0.7,16.4,4.2,17.1,14.5c0.3,3.8-0.1,7.6-1.2,11.2c-1,3.3-2.1,7.2-3.4,11.5
	c-1.2,4.3-2.2,7.9-3,10.6c-0.8,2.8-1.8,6.5-3.1,11.2s-2.3,8.8-2.9,12c-1.8,8.1-2.5,14.6-2.2,19.3c0.4,6,2.8,6,3.6,6h0.3
	c10.1-0.6,22-18.2,35.5-52.2c0.1-0.2,0.1-0.3,0.2-0.5c3.1-11.2,7-22.2,11.7-32.8c5.6-12.3,12.4-18.8,20.4-19.3l16-0.8
	c0.6,0,1.1,0.4,1.1,1c0,0.3-0.1,0.6-0.3,0.8l0,0c-2.5,2.4-5.8,8.8-9.8,19.1c-4.2,11.1-7.1,18.7-9,23.8c-1.9,5.3-4.1,12.5-6.4,21.5
	s-3.3,16.2-2.9,21.6c0.5,7.1,3.2,7.1,4.1,7.1h0.3c1.4-0.1,4-1.1,8.7-5.4c3.6-3.3,6.7-7,9.3-11.1c2.4-3.9,5-8.8,7.9-14.8
	s5.4-11.2,7.5-15.6c2.3-4.7,3.2-6.3,3.8-6.9l1.3-2.4c4.9-19.8,7.2-33.7,6.7-41.4c0-1.3-0.3-2.6-0.9-3.8l0,0
	c-0.3-0.4-0.3-1.1,0.2-1.4c0.2-0.1,0.4-0.2,0.6-0.2l11.1-0.7c6.5-0.4,10.6,0,12.7,1.4s3.4,3.7,3.5,6.1c0,2.4-0.2,4.9-0.7,7.3
	c-0.1,0.6,0.3,1.1,0.9,1.2c0.3,0.1,0.7-0.1,0.9-0.3c12.5-13,25.5-20,38.9-20.8c10.7-0.7,16.5,4.4,17.1,15.1c0.2,3.4,0,6.8-0.7,10.2
	c-0.7,3.4-2.4,10-5.4,20.2c-6.3,21.9-9.3,36.6-8.8,43.8c0.3,5.1,2.3,5.7,3.8,5.7h0.3c1.4-0.1,4-1.1,8.6-5.5
	c3.6-3.4,6.7-7.2,9.4-11.3c2.9-4.7,5.6-9.6,8-14.6c2.9-5.8,5.3-11,7.4-15.4c0.7-1.6,1.3-2.8,1.8-3.8c0-0.1,0.1-0.1,0.1-0.2
	c2.9-12.2,6.3-22.3,10.2-30.1c4.5-9.2,9.6-15.3,15-18.3s12.8-4.7,22.3-5.3l0,0c1.2-0.1,2.2,0.8,2.3,1.9c0,0.1,0,0.1,0,0.2
	c0.1,1.1-0.5,2.3-1.7,3.8c-6.7,7.3-13.2,20.2-19.5,38.4s-9,33.5-8.3,45.7c0.4,5.6,1.8,8.5,4.2,8.5h0.2c5.9-0.4,13.4-7.7,22.1-21.8
	c8.5-13.4,15.2-27.8,20-42.9c0.6-2,1.4-4.8,2.5-8.6s1.9-6.3,2.3-7.7s1.2-3.4,2.2-5.9c0.7-2,1.7-3.8,2.9-5.5c0.8-0.9,2-2.1,3.4-3.6
	s3-2.6,4.9-3.2c4.7-1.4,9.5-2.3,14.4-2.7l11.1-0.7c0.5-0.2,1.1,0.1,1.3,0.6s-0.1,1.1-0.6,1.3l-0.2,0.2c-5,3.9-9.9,13.2-14.5,27.7
	c-3.8,12.3-7,23.7-9.5,33.8s-4.1,16.3-4.7,18.5s-1.9,7.6-3.9,15.8c-1.5,6.2-2.8,11.3-3.9,15.4c-0.2,0.5,0,1.1,0.5,1.3
	c0.3,0.1,0.7,0.1,1-0.2c10.9-6.5,20.9-14.3,30-23.2c5.1-5.1,43.8-48.1,45.6-20.8L673.5,361.4z M303.2,237.8
	c-3.9,0.2-10.8,6.2-21.2,33c-7.2,18.5-14.2,39.6-20.9,62.8c-0.2,0.6,0.2,1.1,0.7,1.3c0.4,0.1,0.9,0,1.2-0.4
	c18-27.5,30.5-50.4,37.1-68.3c4.1-12.2,6-20.3,5.8-23.9c-0.3-4.4-2-4.4-2.5-4.4L303.2,237.8z M562.9,426.3c0.2-0.5-0.1-1.1-0.6-1.3
	c-0.2-0.1-0.4-0.1-0.6,0c-5.4,1.1-10.8,2-16.1,3.3c-7.5,1.8-18.9,3.6-24.7,9.9c-0.1,0.1-0.1,0.2-0.2,0.3c-1,2.2-1.2,5.7-1,10.1
	c0.2,3.1,3.2,6,5.8,8.1c2.4,1.9,5.5,2.8,8.5,2.5C545.8,458.3,555.5,447.3,562.9,426.3z M384.1,297.6L384.1,297.6
	c6.4-0.3,14.4-2.7,16.3-12.2c0.9-4.3-1.7-9.2-3.3-10.6s-3.8-2-6.7-1.8s-6.4,2-9.7,5.1c-4.4,4.1-4.2,10-2.8,13.9
	C379.2,295.3,381.5,297.5,384.1,297.6z"/>
</svg>
