<svg width="2521" height="2911" viewBox="0 0 2521 2911" fill="none" xmlns="http://www.w3.org/2000/svg">
<path d="M1261 2911L1244.2 2901.3L17.8 2192.9L1 2183.3V727.7L1261 0L2521 727.7V2183.2L2504.2 2192.9L1277.8 2901.3L1261 2911Z" fill="#0088DA"/>
<mask id="mask0_1_2" style="mask-type:luminance" maskUnits="userSpaceOnUse" x="1" y="0" width="2520" height="2911">
<path d="M1261 2911L1244.2 2901.3L17.8 2192.9L1 2183.3V727.7L1261 0L2521 727.7V2183.2L2504.2 2192.9L1277.8 2901.3L1261 2911Z" fill="white"/>
</mask>
<g mask="url(#mask0_1_2)">
<path opacity="0.25" d="M1259.94 1155C1833.81 1155 2328.85 941.523 2556 633.701L1475.74 105.243L1260.44 0L1045.15 105.243L-36 634.128C191.404 941.843 685.815 1155 1259.94 1155Z" fill="url(#paint0_linear_1_2)"/>
<path d="M2497 741.557V2169.34L2492.2 2172.11L2492.19 2172.12L1265.31 2880.52L1260.5 2883.29L1255.69 2880.52H1255.69L28.8076 2172.12L28.7588 2172.09L28.71 2172.06L24 2169.37V741.557L1260.5 27.7119L2497 741.557Z" stroke="#004975" stroke-width="48"/>
<g filter="url(#filter0_d_1_2)">
<path d="M1169.12 1029H1979.88C2010.29 1029 2038.75 1038.7 2059.32 1054.99L2060.29 1055.77C2080.79 1072.43 2091 1093.81 2091 1114.75V1816.44C2090.98 1816.47 2090.96 1816.51 2090.93 1816.56L2090.77 1816.76C2090.27 1817.37 2089.07 1818.41 2086.93 1819.21L2086.48 1819.36C2084.23 1820.12 2081.58 1820.39 2078.96 1820.05L2078.44 1819.98C2075.65 1819.52 2073.63 1818.48 2072.46 1817.53L2072.44 1817.52L2072.43 1817.51L1879.68 1660.95H1879.68C1862.58 1647.06 1840.34 1639.74 1817.85 1639.51L1816.78 1639.5H1169.12C1138.71 1639.5 1110.25 1629.8 1089.68 1613.51L1088.71 1612.73C1068.21 1596.07 1058 1574.69 1058 1553.75V1114.75C1058 1094.14 1067.89 1073.09 1087.75 1056.56L1088.71 1055.77C1109.02 1039.27 1137.32 1029.31 1167.68 1029.01L1169.12 1029Z" fill="#0088DA" stroke="#004975" stroke-width="48"/>
<circle cx="1844.5" cy="1336.5" r="72.5" fill="#F5F5F5"/>
<circle cx="1574.5" cy="1332.5" r="72.5" fill="#F5F5F5"/>
<circle cx="1304.5" cy="1332.5" r="72.5" fill="#F5F5F5"/>
</g>
<g filter="url(#filter1_d_1_2)">
<path d="M1378.38 658H546.625C515.374 658 486.082 668.099 464.86 685.139L463.856 685.955C442.692 703.379 432 725.896 432 748.125V1478.06C432.003 1478.07 432.006 1478.09 432.013 1478.1C432.038 1478.17 432.107 1478.34 432.274 1478.58L432.477 1478.85C433.102 1479.62 434.431 1480.75 436.686 1481.6L437.149 1481.77C439.679 1482.63 442.653 1482.89 445.554 1482.42H445.553C448.462 1481.94 450.619 1480.83 451.916 1479.76L451.928 1479.75L451.938 1479.74L649.686 1316.94H649.685C667.104 1302.6 689.82 1294.99 712.845 1294.76L713.941 1294.75H1378.38C1409.63 1294.75 1438.92 1284.65 1460.14 1267.61L1461.14 1266.79C1482.31 1249.37 1493 1226.85 1493 1204.62V748.125C1493 726.243 1482.64 704.083 1462.13 686.775L1461.14 685.955C1440.18 668.696 1411.05 658.328 1379.86 658.008L1378.38 658Z" fill="#F5F5F5" stroke="#004975" stroke-width="48"/>
<rect x="579" y="795" width="606" height="75" rx="30" fill="#004975"/>
<rect x="579" y="930" width="767" height="75" rx="30" fill="#004975"/>
<rect x="579" y="1065" width="528" height="75" rx="30" fill="#004975"/>
</g>
<path d="M490.418 2148V2095.8H400.803C395.558 2095.8 390.633 2094.84 386.027 2092.92C381.422 2090.87 377.392 2088.19 373.938 2084.86C370.612 2081.41 367.925 2077.38 365.878 2072.77C363.959 2068.17 363 2063.24 363 2058V2014.44C363 2009.19 363.959 2004.27 365.878 1999.66C367.925 1995.05 370.612 1991.09 373.938 1987.76C377.392 1984.31 381.422 1981.62 386.027 1979.7C390.633 1977.66 395.558 1976.63 400.803 1976.63C400.803 1976.63 460.482 1976.63 490.418 1976.63C520.353 1976.63 520.354 2011 520.354 2011H400.803V2058H490.418C495.663 2058 500.524 2059.02 505.002 2061.07C509.607 2062.98 513.637 2065.67 517.091 2069.13C520.545 2072.45 523.232 2076.42 525.151 2081.02C527.198 2085.63 528.221 2090.55 528.221 2095.8V2143.2C528.221 2148.44 527.198 2153.37 525.151 2157.97C523.232 2162.58 520.545 2166.61 517.091 2170.06C513.637 2173.39 509.607 2176.07 505.002 2178.12C500.524 2180.04 495.663 2181 490.418 2181H400.803C363 2181 363 2148 363 2148H490.418Z" fill="#F5F5F5"/>
<path d="M562.964 1871.45H609.644V1999.77C613.29 1992.74 617.782 1987.27 623.121 1983.37C628.589 1979.46 634.514 1977.51 640.894 1977.51H699.683C704.761 1977.51 709.514 1978.81 713.941 1981.41C718.498 1984.02 722.47 1987.6 725.855 1992.16C729.24 1996.58 731.91 2001.79 733.863 2007.78C735.816 2013.77 736.792 2020.22 736.792 2027.12V2148.6H778.589C778.069 2153.16 776.766 2157.52 774.683 2161.69C772.73 2165.72 770.256 2169.24 767.261 2172.23C764.266 2175.23 760.816 2177.64 756.91 2179.46C753.003 2181.15 748.967 2182 744.8 2182H727.417C722.339 2182 717.522 2180.7 712.964 2178.09C708.407 2175.49 704.436 2171.97 701.05 2167.55C697.665 2162.99 694.996 2157.72 693.042 2151.73C691.089 2145.74 690.113 2139.29 690.113 2132.39V2010.91H609.644V2182H562.964V1871.45ZM812.691 1930.24C808.134 1930.24 803.837 1929.4 799.8 1927.7C795.894 1926.01 792.444 1923.67 789.449 1920.67C786.454 1917.68 784.11 1914.23 782.417 1910.32C780.725 1906.28 779.878 1901.99 779.878 1897.43C779.878 1892.87 780.725 1888.64 782.417 1884.73C784.11 1880.7 786.454 1877.18 789.449 1874.19C792.444 1871.19 795.894 1868.85 799.8 1867.16C803.837 1865.33 808.134 1864.42 812.691 1864.42C817.248 1864.42 821.48 1865.33 825.386 1867.16C829.423 1868.85 832.938 1871.19 835.933 1874.19C838.928 1877.18 841.272 1880.7 842.964 1884.73C844.787 1888.64 845.699 1892.87 845.699 1897.43C845.699 1901.99 844.787 1906.28 842.964 1910.32C841.272 1914.23 838.928 1917.68 835.933 1920.67C832.938 1923.67 829.423 1926.01 825.386 1927.7C821.35 1929.4 817.118 1930.24 812.691 1930.24ZM789.839 1977.51H836.519V2148.6H878.316C877.925 2153.16 876.688 2157.52 874.605 2161.69C872.652 2165.72 870.113 2169.24 866.988 2172.23C863.993 2175.23 860.542 2177.64 856.636 2179.46C852.73 2181.15 848.628 2182 844.332 2182H827.144C822.066 2182 817.248 2180.7 812.691 2178.09C808.134 2175.49 804.162 2171.97 800.777 2167.55C797.391 2162.99 794.722 2157.72 792.769 2151.73C790.816 2145.74 789.839 2139.29 789.839 2132.39V1977.51ZM897.183 1977.51H943.863V2054.85L1004.21 1992.35C1008.38 1987.53 1012.68 1983.82 1017.1 1981.22C1021.66 1978.61 1027.07 1977.31 1033.32 1977.31C1038.52 1977.31 1043.54 1978.61 1048.35 1981.22C1053.17 1983.82 1057.4 1987.4 1061.05 1991.96C1064.7 1996.39 1067.56 2001.6 1069.64 2007.59C1071.86 2013.58 1072.96 2020.02 1072.96 2026.92V2148.41H1112.42C1111.9 2153.09 1110.59 2157.46 1108.51 2161.49C1106.56 2165.53 1104.02 2169.11 1100.89 2172.23C1097.9 2175.23 1094.45 2177.64 1090.54 2179.46C1086.64 2181.15 1082.53 2182 1078.24 2182H1063C1057.8 2182 1052.91 2180.7 1048.35 2178.09C1043.93 2175.49 1040.02 2171.97 1036.64 2167.55C1033.38 2162.99 1030.78 2157.72 1028.82 2151.73C1026.87 2145.74 1025.89 2139.29 1025.89 2132.39V2013.64L943.863 2098.02V2182H897.183V1977.51ZM1127.96 1977.51H1174.64V2148.6H1255.11V1977.51H1301.79V2148.6H1341.25C1340.72 2153.16 1339.42 2157.52 1337.34 2161.69C1335.39 2165.72 1332.85 2169.24 1329.72 2172.23C1326.73 2175.23 1323.28 2177.64 1319.37 2179.46C1315.46 2181.15 1311.36 2182 1307.07 2182H1301.79V2237.66C1301.79 2244.57 1300.82 2251.01 1298.86 2257C1296.91 2263.12 1294.24 2268.39 1290.85 2272.82C1287.47 2277.38 1283.5 2280.96 1278.94 2283.56C1274.51 2286.3 1269.76 2287.66 1264.68 2287.66H1170.15V2253.88H1255.11V2161.1C1251.6 2167.61 1247.04 2172.76 1241.44 2176.53C1235.97 2180.18 1230.11 2182 1223.86 2182H1165.07C1160 2182 1155.18 2180.7 1150.62 2178.09C1146.06 2175.49 1142.09 2171.97 1138.71 2167.55C1135.45 2162.99 1132.85 2157.72 1130.89 2151.73C1128.94 2145.74 1127.96 2139.29 1127.96 2132.39V1977.51ZM1357.18 2027.12C1357.18 2020.22 1358.16 2013.77 1360.11 2007.78C1362.07 2001.79 1364.67 1996.58 1367.93 1992.16C1371.31 1987.6 1375.28 1984.02 1379.84 1981.41C1384.4 1978.81 1389.21 1977.51 1394.29 1977.51H1497.03C1502.1 1977.51 1506.86 1978.81 1511.28 1981.41C1515.84 1984.02 1519.81 1987.6 1523.2 1992.16C1526.58 1996.58 1529.25 2001.79 1531.21 2007.78C1533.16 2013.77 1534.14 2020.22 1534.14 2027.12V2063.45H1487.46V2010.91H1403.67V2148.6H1540.39C1539.87 2153.16 1538.56 2157.46 1536.48 2161.49C1534.53 2165.53 1531.99 2169.04 1528.86 2172.04C1525.87 2175.03 1522.42 2177.44 1518.51 2179.27C1514.6 2180.96 1510.5 2181.87 1506.21 2182H1394.29C1389.21 2182.13 1384.4 2180.89 1379.84 2178.29C1375.28 2175.68 1371.31 2172.17 1367.93 2167.74C1364.67 2163.18 1362.07 2157.91 1360.11 2151.92C1358.16 2145.8 1357.18 2139.29 1357.18 2132.39V2027.12ZM1585.23 1871.45H1631.91V1999.77C1635.56 1992.74 1640.05 1987.27 1645.39 1983.37C1650.85 1979.46 1656.78 1977.51 1663.16 1977.51H1721.95C1727.03 1977.51 1731.78 1978.81 1736.21 1981.41C1740.76 1984.02 1744.74 1987.6 1748.12 1992.16C1751.51 1996.58 1754.18 2001.79 1756.13 2007.78C1758.08 2013.77 1759.06 2020.22 1759.06 2027.12V2148.6H1800.85C1800.33 2153.16 1799.03 2157.52 1796.95 2161.69C1795 2165.72 1792.52 2169.24 1789.53 2172.23C1786.53 2175.23 1783.08 2177.64 1779.18 2179.46C1775.27 2181.15 1771.23 2182 1767.07 2182H1749.68C1744.6 2182 1739.79 2180.7 1735.23 2178.09C1730.67 2175.49 1726.7 2171.97 1723.32 2167.55C1719.93 2162.99 1717.26 2157.72 1715.31 2151.73C1713.35 2145.74 1712.38 2139.29 1712.38 2132.39V2010.91H1631.91V2182H1585.23V1871.45ZM1814.45 2032.59C1814.45 2024.77 1815.49 2017.48 1817.57 2010.71C1819.79 2003.94 1822.78 1998.08 1826.56 1993.13C1830.33 1988.18 1834.76 1984.34 1839.84 1981.61C1845.05 1978.74 1850.65 1977.31 1856.64 1977.31H1988.28V2148.6H2030.66C2030.14 2153.16 2028.84 2157.52 2026.75 2161.69C2024.8 2165.72 2022.26 2169.24 2019.14 2172.23C2016.14 2175.23 2012.69 2177.64 2008.78 2179.46C2004.88 2181.15 2000.78 2182 1996.48 2182H1975.58C1969.2 2182 1963.15 2179.85 1957.42 2175.55C1951.69 2171.13 1946.94 2165.2 1943.16 2157.78C1939.38 2165.2 1934.63 2171.13 1928.9 2175.55C1923.17 2179.85 1917.12 2182 1910.74 2182H1851.56C1846.48 2182 1841.66 2180.7 1837.1 2178.09C1832.55 2175.49 1828.58 2171.97 1825.19 2167.55C1821.94 2163.12 1819.33 2157.98 1817.38 2152.12C1815.43 2146.13 1814.45 2139.75 1814.45 2132.98V2032.59ZM1941.79 2148.6V2010.91H1860.93V2148.6H1941.79ZM2050.7 2007.59H2035.07V1977.51H2050.7V1923.21L2097.38 1899.97V1977.51H2149.92V2007.59H2097.38V2148.6H2167.3C2166.78 2153.16 2165.48 2157.52 2163.39 2161.69C2161.44 2165.72 2158.9 2169.24 2155.78 2172.23C2152.65 2175.23 2149.14 2177.64 2145.23 2179.46C2141.32 2181.15 2137.22 2182 2132.93 2182H2087.81C2082.73 2182 2077.91 2180.7 2073.35 2178.09C2068.8 2175.49 2064.83 2171.97 2061.44 2167.55C2058.19 2162.99 2055.58 2157.72 2053.63 2151.73C2051.68 2145.74 2050.7 2139.29 2050.7 2132.39V2007.59Z" fill="#F5F5F5"/>
</g>
<defs>
<filter id="filter0_d_1_2" x="978" y="955" width="1201" height="998" filterUnits="userSpaceOnUse" color-interpolation-filters="sRGB">
<feFlood flood-opacity="0" result="BackgroundImageFix"/>
<feColorMatrix in="SourceAlpha" type="matrix" values="0 0 0 0 0 0 0 0 0 0 0 0 0 0 0 0 0 0 127 0" result="hardAlpha"/>
<feOffset dx="4" dy="10"/>
<feGaussianBlur stdDeviation="30"/>
<feColorMatrix type="matrix" values="0 0 0 0 0 0 0 0 0 0 0 0 0 0 0 0 0 0 0.25 0"/>
<feBlend mode="normal" in2="BackgroundImageFix" result="effect1_dropShadow_1_2"/>
<feBlend mode="normal" in="SourceGraphic" in2="effect1_dropShadow_1_2" result="shape"/>
</filter>
<filter id="filter1_d_1_2" x="352" y="594" width="1229" height="1033" filterUnits="userSpaceOnUse" color-interpolation-filters="sRGB">
<feFlood flood-opacity="0" result="BackgroundImageFix"/>
<feColorMatrix in="SourceAlpha" type="matrix" values="0 0 0 0 0 0 0 0 0 0 0 0 0 0 0 0 0 0 127 0" result="hardAlpha"/>
<feOffset dx="4" dy="20"/>
<feGaussianBlur stdDeviation="30"/>
<feColorMatrix type="matrix" values="0 0 0 0 0 0 0 0 0 0 0 0 0 0 0 0 0 0 0.25 0"/>
<feBlend mode="normal" in2="BackgroundImageFix" result="effect1_dropShadow_1_2"/>
<feBlend mode="normal" in="SourceGraphic" in2="effect1_dropShadow_1_2" result="shape"/>
</filter>
<linearGradient id="paint0_linear_1_2" x1="1255.84" y1="-622.753" x2="1260.07" y2="1157.82" gradientUnits="userSpaceOnUse">
<stop stop-color="white" stop-opacity="0.83"/>
<stop offset="0.56" stop-color="white" stop-opacity="0.37"/>
<stop offset="1" stop-color="white" stop-opacity="0"/>
</linearGradient>
</defs>
</svg>
