<svg id="Layer_1" data-name="Layer 1" xmlns="http://www.w3.org/2000/svg" xmlns:xlink="http://www.w3.org/1999/xlink" viewBox="0 0 735 852"><defs><style>.cls-1{fill:none;}.cls-2{clip-path:url(#clip-path);}.cls-3{fill:#428bca;}.cls-4{opacity:0.25;fill:url(#linear-gradient);}.cls-5{fill:#3674a8;}.cls-6{fill:#e6b35a;}.cls-7{font-size:25px;font-family:MyriadPro-Regular, Myriad Pro;}.cls-13,.cls-7{fill:#fff;}.cls-8{letter-spacing:0.01em;}.cls-9{letter-spacing:-0.04em;}.cls-10{letter-spacing:-0.02em;}.cls-11{letter-spacing:-0.01em;}.cls-12{letter-spacing:0em;}.cls-13{opacity:0.9;}</style><clipPath id="clip-path"><polygon class="cls-1" points="369.51 7.4 728.21 214.47 728.21 636.62 369.51 845.03 2.79 636.62 2.79 214.47 369.51 7.4"/></clipPath><linearGradient id="linear-gradient" x1="366.25" y1="-122.39" x2="367.55" y2="341.13" gradientUnits="userSpaceOnUse"><stop offset="0" stop-color="#fff" stop-opacity="0.83"/><stop offset="0.56" stop-color="#fff" stop-opacity="0.37"/><stop offset="1" stop-color="#fff" stop-opacity="0"/></linearGradient></defs><title> </title><g class="cls-2"><circle class="cls-3" cx="365.5" cy="437.45" r="442.13"/><ellipse class="cls-4" cx="366.89" cy="105.8" rx="315.24" ry="234.63"/></g><path class="cls-5" d="M705.61,196.21,427.81,35.82,367.5,1,307.19,35.82,29.37,196.22.09,213.13V637.38l29.28,16.91,281.28,162.4,56.85,32.82,56.85-32.82L705.61,654.3l29.3-16.92V213.13Zm0,425.26L367.49,816.68,29.37,621.47V231L367.49,35.82h0L705.61,231Z"/><path class="cls-6" d="M367,633.9c.29-.29.6-.59.93-.89h-.26Z"/><text class="cls-7" transform="matrix(0.86, -0.5, 0.5, 0.86, 369.28, 809.1)"><tspan class="cls-8">ww</tspan><tspan class="cls-9" x="37.4" y="0">w</tspan><tspan x="54.82" y="0">.rstudi</tspan><tspan class="cls-10" x="120.07" y="0">o</tspan><tspan x="133.2" y="0">.</tspan><tspan class="cls-11" x="138.37" y="0">c</tspan><tspan class="cls-12" x="149.42" y="0">om</tspan></text><path class="cls-13" d="M123.21,458h-.07C119.88,457.94,122.1,458,123.21,458Zm-.07,0-.65,0,1.68,0H124l-.79,0C123.78,458,124.06,458.06,123.14,458Zm.86,0c34.94.8,71.38-7.29,82-48.83,6.87-26.82-10.33-46.28-25.54-65.93a1.05,1.05,0,0,1-.21-.39c-.58-2.49-17.06-17.66-21.67-23.36a.85.85,0,0,0-.17-.16c-2.19-1.59-4.5-9.68-5.61-14.16a13.13,13.13,0,0,1-.13-5.69c4-20.35,6.19-35.33,33.26-30.85,19.45,3.22,9.39,31.75,19.85,34.61l.24,0c6.3.61,18.58-14.51,20.37-19.59,7-19.78-33.38-31.92-45.68-31.15-24.66,1.54-40.9,14.94-50.8,37-18.25,40.72,15.84,67.77,36.43,95.71,15.57,21.13,14.88,39.9-4.25,58-21,19.91-45.42-7.45-48.2-26.75-2.54-17.69-2.3-30-17.08-7.54C83.25,429.69,97.31,456.87,124,458Zm549.55-96.62a1.17,1.17,0,0,1,0,.15,47.31,47.31,0,0,1-2.85,12.58,99.69,99.69,0,0,1-9.91,19.48c-4.9,7.5-7.49,10.5-12.57,17.11-9.57,12.46-17,21.79-28.21,33.68-15.61,16.51-33,35.42-52,48.9C540.86,512.66,506.71,518,474.29,521,379.46,529.63,240,542.42,210.64,645a1.05,1.05,0,0,1-1.92.24C179.94,596,118.07,559.93,60.59,561.63a1,1,0,0,1-.5-2c147.83-73.41,298.8-38.21,458.37-66.72,39.89-7.13,73.38-33.26,97.53-64.75,9.15-11.93,21-22,29.08-34.7,1.33-2.08,8-18.78-2.38-11.73-16.12,10.91-29.69,24.39-47.21,32.92-.76.37-1.65.75-2.62,1.14a1.07,1.07,0,0,0-.62.66,101.16,101.16,0,0,1-10.51,23.36,67.43,67.43,0,0,1-20.81,20.67,55.46,55.46,0,0,1-26.24,8.93c-1.29.08-2.55.12-3.79.12-7.41,0-12.17-.6-17.86-3.55-7.32-3.79-9.59-10-10.06-17.52-.28-4.46,2.54-9.41,4.82-13.12s6-7.79,8.63-8.93l.18-.1c13-9.65,35.12-10.34,50.15-14.35a1,1,0,0,0,.74-.74L575,383.78a1.05,1.05,0,0,0-1.88-.87,144.2,144.2,0,0,1-12.55,15.87c-5.88,6.25-10.46,10-14,11.45a39.5,39.5,0,0,1-12.4,2.59c-5.05.32-9.29-1.68-12.6-5.94s-5.06-10.39-5.49-18.6c-.07-1.34-.09-2.79-.05-4.35a1.05,1.05,0,0,0-2-.52q-2.48,4.64-4.8,8.64A107.55,107.55,0,0,1,492,414.41c-6.65,6.57-13,10.09-18.86,10.47-11.05.71-17.07-5.64-17.9-18.79-.81-12.6,4.25-38.54,15-77.12a13.64,13.64,0,0,0,.67-5.21c-.22-3.48-2.19-4.9-6.27-4.65a22.68,22.68,0,0,0-12.84,5.42,46.26,46.26,0,0,0-11.16,14.07,199.43,199.43,0,0,0-8.85,18.48,155.64,155.64,0,0,0-6.93,21.36c-2.05,8.06-3.67,14.85-4.81,20.16-1.17,5.47-2.31,11.29-3.39,17.32-.76,4.2-1.7,9.38-1.88,10.19l-.18.77-27.47,1.75-.07-1c-.15-2.39,1.75-10.9,5.77-25.79-.8,1.44-1.59,2.84-2.36,4.17a107.56,107.56,0,0,1-17.2,22.36c-6.64,6.57-13,10.09-18.86,10.47-.42,0-.83,0-1.23,0-9.74,0-15.17-7.62-16.12-22.64q-.29-4.48-.22-9.13a1,1,0,0,0-2-.52C319.8,434.26,306.22,448.2,293.61,449c-11.06.72-17.09-5.93-18-19.66-1-15.29,3.25-37.68,12.54-66.54,2-7.1,2.87-12,2.71-14.6-.25-4-2.06-4.51-3.61-4.51h-.39c-1.32.08-4.13.95-10,4.58a52,52,0,0,0-13.37,12.53,71.06,71.06,0,0,0-10.19,18.54c-2.62,7-4.72,13.1-6.24,18.19s-3,11.37-4.49,18.64-2.84,13.44-4,18-2.4,9.93-3.61,16l-.16.79-26.44,1.68a1.05,1.05,0,0,1-1.08-1.34h0c3.89-13.54,9.4-35.42,16.4-65S237,333,242.22,315.94a383.21,383.21,0,0,1,16-43.55A118.21,118.21,0,0,1,277.42,242c7.5-8.39,15.85-12.93,24.82-13.51,9.39-.61,14.44,4,15.07,13.75.41,6.48-1.47,15.25-5.6,26.07-7.53,19.33-20.06,41.76-37.3,66.84a1,1,0,0,0,1.5,1.43,64.62,64.62,0,0,1,9.61-6.15,42.81,42.81,0,0,1,16.17-4.6c10.71-.68,16.44,4.21,17.1,14.49a31.47,31.47,0,0,1-1.21,11.19q-1.53,5-3.37,11.52t-3,10.65c-.8,2.77-1.84,6.5-3.13,11.22s-2.27,8.75-2.93,12c-1.75,8.13-2.48,14.62-2.18,19.33.38,6,2.78,6,3.57,6h.27c10.08-.64,22-18.2,35.51-52.2.06-.18.13-.31.2-.47a233.51,233.51,0,0,1,11.69-32.81c5.58-12.31,12.44-18.79,20.4-19.3l15.94-.77a1.05,1.05,0,0,1,.77,1.82l-.05,0c-2.54,2.37-5.83,8.8-9.77,19.12-4.25,11.13-7.09,18.69-9,23.79-1.94,5.29-4.09,12.53-6.42,21.52s-3.29,16.19-2.94,21.65c.45,7.1,3.23,7.1,4.14,7.1h.3c1.4-.09,4-1.1,8.67-5.4a53.2,53.2,0,0,0,9.31-11.13c2.35-3.84,5-8.82,7.89-14.79s5.39-11.18,7.5-15.58c2.25-4.7,3.2-6.32,3.8-6.89l1.32-2.41c4.93-19.77,7.18-33.72,6.69-41.42a8.43,8.43,0,0,0-.91-3.79h0a1.05,1.05,0,0,1,.82-1.61l11.1-.71c6.49-.41,10.59.05,12.67,1.44a7.62,7.62,0,0,1,3.46,6.14,37.29,37.29,0,0,1-.66,7.3,1.05,1.05,0,0,0,1.8.89c12.46-13,25.53-20,38.93-20.81,10.73-.69,16.46,4.41,17.14,15.07a39.36,39.36,0,0,1-.71,10.2c-.68,3.39-2.44,10-5.37,20.17-6.31,21.87-9.28,36.59-8.82,43.78.33,5.08,2.3,5.66,3.76,5.66h.32c1.39-.09,4-1.12,8.65-5.53A60.68,60.68,0,0,0,504.39,381a161,161,0,0,0,8-14.65c2.86-5.83,5.34-11,7.36-15.4.73-1.59,1.32-2.81,1.8-3.78a1,1,0,0,0,.08-.21c2.9-12.22,6.31-22.33,10.15-30.07,4.55-9.17,9.6-15.32,15-18.26s12.84-4.7,22.29-5.31h0a2.13,2.13,0,0,1,2.33,2.15c.07,1.07-.47,2.31-1.65,3.77-6.69,7.31-13.23,20.2-19.49,38.39s-9,33.55-8.27,45.69c.36,5.62,1.78,8.47,4.2,8.47h.24c5.92-.38,13.36-7.73,22.09-21.84a187.39,187.39,0,0,0,19.95-42.85c.58-2,1.41-4.82,2.5-8.56s1.86-6.34,2.31-7.73,1.2-3.44,2.18-5.87a19.1,19.1,0,0,1,2.94-5.45q1.24-1.4,3.39-3.59a12,12,0,0,1,4.93-3.19A66.52,66.52,0,0,1,621.14,290l11.1-.71a1.05,1.05,0,0,1,.71,1.88l-.22.17c-5,3.85-9.91,13.17-14.53,27.7-3.76,12.29-7,23.67-9.49,33.8s-4.1,16.3-4.66,18.46-1.92,7.64-3.9,15.77c-1.5,6.16-2.81,11.31-3.91,15.4a1,1,0,0,0,1.56,1.17,165.08,165.08,0,0,0,30-23.18c5.12-5.14,43.8-48.1,45.64-20.77ZM303.23,237.81c-3.92.25-10.77,6.17-21.22,33-7.23,18.55-14.24,39.63-20.9,62.8a1.06,1.06,0,0,0,1.89.87c18-27.45,30.47-50.4,37.09-68.31,4.08-12.25,6-20.3,5.81-23.9-.28-4.44-1.95-4.44-2.49-4.44ZM562.93,426.3a1.05,1.05,0,0,0-1.22-1.37c-5.38,1.14-10.82,2-16.13,3.31-7.53,1.79-18.92,3.64-24.74,9.87a1.13,1.13,0,0,0-.2.3c-1,2.17-1.24,5.7-1,10.09.2,3.1,3.21,5.95,5.8,8.08a11.71,11.71,0,0,0,8.54,2.49C545.83,458.31,555.52,447.28,562.93,426.3ZM384.1,297.56h.09c6.35-.33,14.31-2.68,16.18-12.22.88-4.29-1.7-9.21-3.33-10.64s-3.82-2-6.67-1.81-6.38,2-9.7,5.08c-4.38,4.08-4.25,10-2.81,13.89C379.16,295.28,381.55,297.47,384.1,297.56Z"/></svg>