<?xml version="1.0" encoding="utf-8"?>
<!-- Generator: Adobe Illustrator 27.0.0, SVG Export Plug-In . SVG Version: 6.00 Build 0)  -->
<svg version="1.1" id="Layer_1" xmlns="http://www.w3.org/2000/svg" xmlns:xlink="http://www.w3.org/1999/xlink" x="0px" y="0px"
	 viewBox="0 0 2521 2911" style="enable-background:new 0 0 2521 2911;" xml:space="preserve">
<style type="text/css">
	.st0{fill:none;}
	.st1{fill:#00A04A;}
	.st2{fill:#00737B;}
	.st3{fill:#4D4E4E;}
	.st4{fill:#57C2B6;}
	.st5{fill:#D61F2B;}
	.st6{fill:#17C2F1;}
	.st7{fill:#FFCD23;}
	.st8{fill:#355EAA;}
	.st9{fill:#F06523;}
	.st10{fill:#417DBF;}
	.st11{fill:#F79720;}
	.st12{opacity:0.6;fill:#92298D;enable-background:new    ;}
	.st13{opacity:0.75;fill:#F69220;enable-background:new    ;}
	.st14{fill:#C5212C;}
	.st15{fill:#ED302E;}
	.st16{fill:#EC1D61;}
	.st17{fill:#37C1F0;}
	.st18{fill:#979797;}
	.st19{opacity:0.7;fill:#00A89C;enable-background:new    ;}
	.st20{opacity:0.7;fill:#FAAF3B;enable-background:new    ;}
	.st21{fill:#692E66;}
	.st22{opacity:0.7;fill:#B8529E;enable-background:new    ;}
	.st23{opacity:0.6;fill:#F05A26;enable-background:new    ;}
	.st24{fill:#B5732C;}
	.st25{fill:#F05F78;}
</style>
<g>
	<path d="M1260.5,0L0,727.5V2183l1260.5,728L2521,2183.2V727.5L1260.5,0z"/>
	<g>
		<polygon class="st0" points="1170,424.7 1154.5,346.6 1066.9,397.1 1082.4,475.2 		"/>
		<path class="st0" d="M1744.8,1782c91.7-53.1,204.9-35.1,276.1,36.8l61.1-35.3c-91.4-104.9-247.1-133.8-372-61.5
			c-124.7,72.2-177.1,221.2-132.1,352.5l61.2-35.3C1612.5,1941.8,1653.3,1835,1744.8,1782z"/>
		<path class="st0" d="M213.6,1262.8l28,51.6l-17.8,29c157.2-92.6,295.2-172.9,421.8-244.8c100.8-86.3,299.3-188.5,492.5-272.4
			c25.4-60,86.3-155,229.9-261.2L161.9,1261.4L213.6,1262.8z"/>
		<polygon class="st0" points="1361,314.5 1345.3,235.1 1257.7,285.6 1273.5,365 		"/>
		<path class="st1" d="M2521,1246.2v-198.7l-282.1,162.9c39.2,49.4,71.1,97.4,97.1,142.7L2521,1246.2z"/>
		<path class="st2" d="M2521,1015.9v-51.4l-329.1,190c10.2,11.5,20.1,22.9,29.5,34.3L2521,1015.9z"/>
		<path class="st3" d="M2521,1515v-25.7l-99.2,57.3c2.4,7.6,4.6,14.9,6.6,22L2521,1515z"/>
		<path class="st3" d="M2349.4,1377l171.6-99v-31.8L2336,1353C2340.7,1361.1,2345.2,1369.1,2349.4,1377z"/>
		<path class="st3" d="M1661.8,2093.3c-10.1-17.4-17.6-35.6-22.7-54.1l-61.2,35.3c6.2,18,14.2,35.7,24,52.8
			c3.6,6.2,7.4,12.2,11.3,18c1.6,3,3.3,6,5.1,8.9l0.8,1.2c1.5,2.3,0.7,5.4-1.6,6.8l-833.7,473.6l90,52l878.6-507.3
			C1715.8,2161.2,1684.1,2131.7,1661.8,2093.3z"/>
		<path class="st3" d="M2130.6,1860.3c-4.5-10.3-9.6-20.4-15.3-30.3c-9.8-16.9-20.9-32.4-33.3-46.5l-61.1,35.3
			c13.4,13.5,25.3,28.9,35.2,46.2c22.4,38.6,32.1,81,30.5,122.5l434.3-250.8V1530l-89.1,51.4c17,64.2,18.5,103.1,18.5,103.1
			C2450.5,1684.7,2142.3,1853.9,2130.6,1860.3z"/>
		<path class="st3" d="M2521,1363v-51.4l-158.1,91.3c7,13.8,13.4,27.2,19.3,40.3L2521,1363z"/>
		<path class="st4" d="M2409,663.1l-27.5-15.9L1916.1,916c8.2,5.9,16.3,11.8,24.4,17.7L2409,663.1z"/>
		<polygon class="st4" points="1173.3,2860.5 1200.8,2876.4 1200.8,2876.4 2092,2361.8 2078.9,2337.6 		"/>
		<path class="st3" d="M931.7,2721.2l1.8,1.1l895.8-517.2c-1-0.1-2-0.3-3-0.4L931.7,2721.2z"/>
		<path class="st3" d="M2069.4,2066.4l451.6-260.7v-2.1l-450.4,260.1C2070.2,2064.5,2069.8,2065.5,2069.4,2066.4z"/>
		<path class="st5" d="M2521,748l-470.1,271.4c19.8,16.4,38.1,32.1,54.1,46.6l416-240.2V748z"/>
		<polygon class="st6" points="264.8,763.2 0,916.1 0,946.1 277.8,785.7 		"/>
		<polygon class="st7" points="209.2,904.1 0,1024.9 0,1039.7 215.6,915.3 		"/>
		<path class="st8" d="M2354.7,631.8l-111.3-64.3l-455.1,262.8c33.3,20.5,68.6,43.9,103.8,68.6L2354.7,631.8z"/>
		<path class="st6" d="M1645.7,762.1l3.4-2c12.3,3.7,26.4,9.4,42,16.6l457.3-264l-54.3-31.4L1632,748.1
			C1637.4,753.9,1642,758.8,1645.7,762.1z"/>
		<path class="st9" d="M0,2183.2L439.5,2437l14.7,8.5l329.6,190.3l833.7-473.6c2.4-1.4,3.1-4.5,1.6-6.8l-0.8-1.2
			c-1.9-2.9-3.6-5.8-5.1-8.9c-3.9-5.8-7.7-11.8-11.3-18c-9.9-17.1-17.9-34.8-24-52.8c-45-131.3,7.4-280.3,132.1-352.5
			c124.9-72.3,280.6-43.4,372,61.5c12.3,14.2,23.5,29.7,33.3,46.5c5.7,9.9,10.8,20,15.3,30.3c11.7-6.4,319.9-175.6,319.7-175.8
			c0,0-1.5-38.9-18.5-103.1c-1.1-4.2-2.3-8.5-3.6-13c-2-7.1-4.2-14.4-6.6-22c-9.6-30.7-22.5-65.5-39.6-103.5
			c-5.9-13.1-12.3-26.5-19.3-40.3c-4.3-8.5-8.8-17.1-13.5-25.8c-4.3-7.9-8.8-15.9-13.4-24c-26-45.3-58-93.3-97.1-142.7
			c-5.7-7.1-11.5-14.3-17.5-21.5c-9.4-11.4-19.3-22.8-29.5-34.3c-18.6-20.9-38.5-41.9-59.9-63c-8.1-8-17.1-16.5-27-25.5
			c-16-14.5-34.3-30.2-54.1-46.6c-33.4-27.5-71.2-56.9-110.4-85.7c-8.1-5.9-16.2-11.8-24.4-17.7c-8-5.7-16-11.4-24.1-17.1
			c-35.2-24.7-70.5-48.1-103.8-68.6c-35.5-21.8-68.7-40.4-97.1-53.6c-15.6-7.2-29.7-12.9-42-16.6l-3.4,2c0.4,0.3,0.7,0.7,1.1,1
			l2.9,0.9L0,1723.8"/>
		<polygon class="st3" points="1685.3,245.2 0,1218.3 0,1302.5 1758.2,287.4 		"/>
		<polygon class="st10" points="1648.1,223.8 0,1175.3 0,1196.7 1666.6,234.5 		"/>
		<path class="st3" d="M2067.4,465.9l-18.5-10.7l-448.3,258.8c4.5,4.6,8.8,9.3,13,13.9L2067.4,465.9z"/>
		<polygon class="st11" points="1053.3,2791.3 1090.3,2812.7 1100,2807.1 2226.9,2156.5 2209.2,2123.9 		"/>
		<path d="M1789.6,2196.1L906,2706.3l0,0L1789.6,2196.1C1789.7,2196.1,1789.7,2196.1,1789.6,2196.1z"/>
		<path class="st12" d="M1789.6,2196.1L906,2706.3l0,0L1789.6,2196.1C1789.7,2196.1,1789.7,2196.1,1789.6,2196.1z"/>
		<path d="M2521,1773.9L2521,1773.9l-439.4,253.6c0,0,0,0,0,0.1L2521,1773.9z"/>
		<path class="st12" d="M2521,1773.9L2521,1773.9l-439.4,253.6c0,0,0,0,0,0.1L2521,1773.9z"/>
		<path class="st3" d="M1789.7,2196.2L906,2706.3l25.7,14.8l894.7-516.6C1813.9,2202.8,1801.7,2200,1789.7,2196.2z"/>
		<path class="st12" d="M1789.7,2196.2L906,2706.3l25.7,14.8l894.7-516.6C1813.9,2202.8,1801.7,2200,1789.7,2196.2z"/>
		<path class="st3" d="M2070.6,2063.6l450.4-260.1v-29.6l-439.4,253.7C2078.9,2039.9,2075.2,2051.9,2070.6,2063.6z"/>
		<path class="st12" d="M2070.6,2063.6l450.4-260.1v-29.6l-439.4,253.7C2078.9,2039.9,2075.2,2051.9,2070.6,2063.6z"/>
		<polygon class="st13" points="988.4,2753.9 988.4,2753.9 962.7,2739.1 		"/>
		<path d="M1973.2,2176.3c-27.3,15.8-56.4,25.3-85.8,29l-924.6,533.8l25.7,14.8L2521,1869.1v-29.7l-480.4,277.4
			C2022.9,2140.2,2000.2,2160.6,1973.2,2176.3z"/>
		<path class="st13" d="M1973.2,2176.3c-27.3,15.8-56.4,25.3-85.8,29l-924.6,533.8l25.7,14.8L2521,1869.1v-29.7l-480.4,277.4
			C2022.9,2140.2,2000.2,2160.6,1973.2,2176.3z"/>
		<path class="st10" d="M1368,565c10.6-7.8,21.7-15.8,33.2-23.7c14.3-7.8,26.1-13.7,36.3-16.4l366-211.3l-25.7-14.8L0,1325.2v29.7
			L1368,565z"/>
		<polygon class="st1" points="0,1404.6 0,1421.1 156.5,1330.5 151,1317.4 		"/>
		<path class="st14" d="M420.4,2023.4l-212.5-366.7c-3.5-6.1-11.3-8.1-17.3-4.6L0,1762.3v420.9l84.9,49l330.8-191.5
			C421.8,2037.3,423.9,2029.5,420.4,2023.4z"/>
		<path class="st14" d="M2012,1120c0,0-279.1-239.3-390.7-277.3c-11.1-3.8-23.2-2.4-33.3,3.5C1482.3,907.9,805.1,1299,805.1,1299
			l225.3,388.7L2012,1120z"/>
		<path class="st14" d="M1632.9,1390l16.4,27.1c5.1,8.4,14,13.9,23.8,14.6l382.6,28.6l165.4-96.3c0,0-115.9-184.2-173-214.5
			C2047.2,1151.8,1632.9,1390,1632.9,1390z"/>
		<path class="st11" d="M287.8,1648.6l539.8,919l458.2-265.4L744.7,1381L287.8,1648.6z M614,2060.7c-11.7,6.8-26.8,2.8-33.6-8.9
			l-212.5-367.1c-6.8-11.7-2.8-26.8,8.9-33.6l102.5-59.4c11.7-6.8,26.8-2.8,33.6,8.9l212.5,367.1c6.8,11.7,2.8,26.8-8.9,33.6
			L614,2060.7z M822,2420.3l-102.5-177l111-64.3L933,2356L822,2420.3z M745,2064l39.6-22.9l22.3,38.6l-39.6,22.9L745,2064z
			 M844.8,2006.2l39.6-22.9l22.3,38.6l-39.6,22.9L844.8,2006.2z M1155.1,2227.3l-111,64.3l-102.5-177l111-64.3L1155.1,2227.3z
			 M940.6,1872.1l-102.5,59.4c-11.7,6.8-26.8,2.8-33.6-8.9L592,1555.4c-6.8-11.7-2.8-26.8,8.9-33.6l102.5-59.4
			c11.7-6.8,26.8-2.8,33.6,8.9l212.5,367.1C956.3,1850.2,952.3,1865.3,940.6,1872.1z"/>
		<path class="st9" d="M725.5,1967.8l-212.5-367.1c-6.8-11.7-21.8-15.7-33.6-8.9l-102.5,59.4c-11.7,6.8-15.7,21.8-8.9,33.6
			l212.5,367.1c6.8,11.7,21.8,15.7,33.6,8.9l102.5-59.4C728.2,1994.5,732.2,1979.5,725.5,1967.8z"/>
		<path class="st9" d="M703.5,1462.5l-102.5,59.4c-11.7,6.8-15.7,21.8-8.9,33.6l212.5,367.1c6.8,11.7,21.8,15.7,33.6,8.9l102.5-59.4
			c11.7-6.8,15.7-21.8,8.9-33.6L737,1471.4C730.2,1459.7,715.2,1455.7,703.5,1462.5z"/>
		
			<rect x="762.1" y="2197.4" transform="matrix(0.8654 -0.5011 0.5011 0.8654 -1041.1141 723.5879)" class="st9" width="128.3" height="204.5"/>
		
			<rect x="984.2" y="2068.7" transform="matrix(0.8653 -0.5012 0.5012 0.8653 -946.9156 817.7834)" class="st9" width="128.3" height="204.5"/>
		
			<rect x="852.9" y="1991.7" transform="matrix(0.8653 -0.5012 0.5012 0.8653 -891.4608 710.1547)" class="st9" width="45.7" height="44.6"/>
		
			<rect x="753.1" y="2049.5" transform="matrix(0.8653 -0.5012 0.5012 0.8653 -933.8728 667.9139)" class="st9" width="45.7" height="44.6"/>
		<path class="st15" d="M2297.9,1507.2c7.1,15.6,25.4,22.2,39.4,14.2l61.5-35.7c-17.2-50-71.6-144.2-71.6-144.2l-71.3,41.3
			c-12.6,7.3-14.8,23.9-8.7,37.5L2297.9,1507.2z"/>
		<polygon class="st15" points="720.9,2424.4 569.5,2512 584.3,2520.6 728.3,2437.2 		"/>
		<path class="st15" d="M2011.4,1700.2l281.8-162.5l-7.4-12.8l-289.5,167C1997.4,1692.1,2009.4,1698.4,2011.4,1700.2z"/>
		<path class="st15" d="M1222,2155.5l319.4-186.5c0.2-4,2-16.1,2.3-18.3l-329.1,192.1L1222,2155.5z"/>
		<polygon class="st15" points="654.5,2312.5 439.5,2437 454.3,2445.5 661.9,2325.3 		"/>
		<path class="st15" d="M619.3,2532.3l-7.3,4.2l17.6,10.2C624.9,2538.5,620.1,2531.8,619.3,2532.3z"/>
		<path class="st16" d="M1646.8,763c-0.3-0.3-0.7-0.6-1.1-1c-3.7-3.3-8.3-8.2-13.7-14c-5.5-6-11.7-12.9-18.4-20.1
			c-4.2-4.6-8.5-9.2-13-13.9c-16-16.6-33.4-32.7-48.6-40.4c-1.2,0.3-2.4,0.6-3.6,1l4.4-1.7l-73-125.8
			c-12.3-21.9-24.9-26.9-42.4-22.3c-10.2,2.7-22,8.6-36.3,16.4c-11.5,8-22.6,15.9-33.2,23.7c-143.6,106.2-204.5,201.2-229.9,261.2
			c-193.1,83.9-391.7,186-492.5,272.4c-126.6,71.9-264.7,152.2-421.8,244.8c-11.5,6.8-23.1,13.6-34.8,20.5
			c-60.1,35.5-123,72.7-189,111.9v248.1L1649.7,764L1646.8,763z"/>
		<path class="st17" d="M2056.1,1865c-10-17.2-21.9-32.7-35.2-46.2c-71.2-71.9-184.4-89.9-276.1-36.8
			c-91.5,53-132.3,159.8-105.6,257.2c5.1,18.5,12.6,36.7,22.7,54.1c22.2,38.4,54,67.9,90.5,87.2c12,6.3,24.4,11.6,37.2,15.6
			c0,0,0,0,0.1,0c12,3.8,24.2,6.6,36.7,8.4c1,0.1,2,0.3,3,0.4c19.1,2.5,38.6,2.7,58,0.2c29.4-3.7,58.6-13.2,85.8-29
			c27.1-15.7,49.7-36.1,67.5-59.5c11.8-15.6,21.4-32.5,28.8-50.3c0.4-0.9,0.8-1.9,1.1-2.8c4.7-11.7,8.3-23.7,11-36c0,0,0,0,0-0.1
			c2.9-13.2,4.6-26.6,5.1-40.1C2088.2,1946,2078.5,1903.6,2056.1,1865z"/>
		
			<ellipse transform="matrix(0.1437 -0.9896 0.9896 0.1437 -366.7746 3534.373)" class="st10" cx="1859" cy="1979.1" rx="43.4" ry="43.4"/>
		<polygon class="st18" points="802,477.4 794.3,438.6 757.3,460 765,498.8 		"/>
		<polygon class="st18" points="802.3,687.2 839.3,665.8 806.1,498.3 769.1,519.6 		"/>
		<path class="st18" d="M597.5,713.3c2.7,13.6,9.7,17.3,20.8,10.8l108.2-62.4l3.4,16.7l-125,72.1l8.9,45.3l125-72.1
			c13.6-7.8,22.5-16.5,26.6-26.1c4.1-9.5,4.3-23,1-40.2l-9.1-45.7c-2-10-6.9-12.9-14.8-8.4l-113.2,65.3l-3.6-18.2l125-72.1
			l-8.9-45.3l-125,72.1c-12.2,7.1-20.6,14.9-24.9,23.3c-5.3,11-6.3,25.4-2.8,43.1L597.5,713.3z"/>
		<path class="st18" d="M1094.5,518.7l-3,1.6l87.5-50.5c12.2-7.1,20.8-14.9,25.3-23.6c5.9-11.3,7.1-25.8,3.6-43.4l-15.5-78.1
			c-2.9-14-9-23-18.4-26.8c-9.5-3.8-19-3-28.5,2.4l-87.9,50.6l-30.9-155.1l-33.4,18.6l64.6,325.4L1094.5,518.7z M1154.5,346.6
			l15.5,78.1l-87.6,50.5l-15.5-78.1L1154.5,346.6z"/>
		<path class="st18" d="M872.5,636.2c6.8,2.4,16.9-0.2,30.5-7.6l128.9-73.7l-31.5-156.5l-38.6,22.1l22.4,112.7l-89.4,52.1
			l-22.3-118.9L835,487.1l22.9,121.9C860.9,624.7,865.7,633.8,872.5,636.2z"/>
		<path class="st18" d="M1235.3,387c2.7,13.7,9.3,22.5,19.7,26.5c8.7,3.4,17.9,2.4,27.4-3l124.4-71.8l0,0l16-9.3l-8.3-44.8l-16.5,10
			l-16.3-82.2l17.1-10l-8.7-44.8l-18.5,11.4l-0.1,0.1L1246.8,241c-12,7-20.2,14.9-24.4,23.7c-5.4,10.7-6.3,24.9-2.8,42.8L1235.3,387
			z M1345.3,235.1l15.7,79.4l-87.5,50.5l-15.7-79.4L1345.3,235.1z"/>
		<polygon points="1651.6,486.4 1665.2,511.6 1693.8,512.3 1708.8,488 1695.1,462.8 1666.5,462 		"/>
		<polygon class="st19" points="1651.6,486.4 1665.2,511.6 1693.8,512.3 1708.8,488 1695.1,462.8 1666.5,462 		"/>
		<polygon points="469.8,836.3 484.8,812 471.1,786.8 442.5,786 427.6,810.4 441.2,835.6 		"/>
		<polygon class="st19" points="469.8,836.3 484.8,812 471.1,786.8 442.5,786 427.6,810.4 441.2,835.6 		"/>
		<polygon points="2290.5,1015.1 2305.3,1042.6 2336.6,1043.3 2352.9,1016.7 2338,989.3 2306.8,988.4 		"/>
		<polygon class="st20" points="2290.5,1015.1 2305.3,1042.6 2336.6,1043.3 2352.9,1016.7 2338,989.3 2306.8,988.4 		"/>
		<polygon class="st1" points="2101.2,2279.2 2072.6,2325.8 2079.3,2338 2092.4,2362.2 2098.7,2373.8 2153.3,2375.3 2181.8,2328.7 
			2155.8,2280.7 		"/>
		<polygon class="st21" points="2241.1,2036.1 2199,2104.6 2200.8,2107.9 2209.6,2124.2 2218.6,2140.6 2236.2,2173.1 2237.4,2175.2 
			2317.7,2177.3 2359.7,2108.9 2321.3,2038.3 		"/>
		<polygon points="1748.3,541 1768,577.3 1809.3,578.4 1830.9,543.2 1811.2,506.9 1770,505.9 		"/>
		<polygon class="st22" points="1748.3,541 1768,577.3 1809.3,578.4 1830.9,543.2 1811.2,506.9 1770,505.9 		"/>
		<polygon points="348.1,802 380.4,749.1 350.9,694.7 289,693.1 256.5,745.9 286.1,800.4 		"/>
		<polygon class="st23" points="348.1,802 380.4,749.1 350.9,694.7 289,693.1 256.5,745.9 286.1,800.4 		"/>
		<polygon class="st5" points="224.7,856.1 203.3,891.1 222.9,927.2 263.8,928.3 285.3,893.3 265.8,857.2 		"/>
		<polygon class="st24" points="162.2,1279.3 143.8,1309.5 160.6,1340.6 196,1341.5 214.5,1311.4 197.7,1280.2 		"/>
		<path class="st15" d="M1153.4,2022.8l7.3,12.8l483.5-280.1c17.8-17,37.8-32.2,60-45.1c22.2-12.9,45.3-22.7,68.9-29.6l452.3-262
			l-7.4-12.8L1153.4,2022.8z"/>
	</g>
</g>
<g>
	<g>
		<path class="st16" d="M758.7,1169.4c-5.1,3.7-11.2,7.9-18.7,12.6c3,4.4,5.5,9.5,7.9,14.3c0,0.1,0.1,0.2,0.1,0.3l19.9-11.4
			L758.7,1169.4z"/>
		<path class="st25" d="M5.2,1655.8c-0.5-3.2-2.5-6.5-5.2-9.1v16.5c0,0,0,0,0,0C4.1,1661.8,5.7,1659.5,5.2,1655.8z"/>
		<polygon class="st16" points="420,1392.3 414.5,1383.8 398.8,1393.3 404.1,1401.6 		"/>
		<path class="st16" d="M629.5,1251.9l6.3-3.6l-3.5-6l-6.7,3.8C627.1,1248.5,628.4,1250.4,629.5,1251.9z"/>
		<path class="st16" d="M774.6,1181.4l18-10.3c-1.5-2.5-2.7-4.7-3.9-6.8c-3.1-5.3-6.2-10.9-7.5-11.1c-1.2-0.2-6,3.5-10.3,6.9
			c-1.8,1.4-3.8,3-6.1,4.7L774.6,1181.4z"/>
		<path class="st25" d="M12.7,1654.6c-1.1-7-6.5-13.9-12.7-17.5v9.6c2.6,2.6,4.6,5.9,5.2,9.1c0.6,3.6-1,6-5.1,7.4c0,0,0,0,0,0v7.8
			c0.9-0.1,1.7-0.3,2.6-0.6C10.1,1667.9,13.9,1661.9,12.7,1654.6z"/>
		<path class="st25" d="M73.3,1625.7c4.3-2.6,6.4-7.6,5.9-14.2c-0.5-7.5-4.5-16.8-10.3-19.3c-5.4-2.3-11.3-1.1-16.6,0
			c-4.7,1-9.1,1.9-12.2,0.3c-3.9-2.1-5-3.8-4.8-4.4c0.5-1.3,3.4-3.5,8.5-5.3c4.9-1.7,9.1-2.1,10.1-1.8l0,0l2.1-7.4
			c-5.5-1.6-24.2,2.8-27.8,11.5c-1.2,2.9-1.7,8.7,8.2,14.1c5.6,3,11.9,1.7,17.4,0.5c4.5-1,8.8-1.9,11.9-0.5c2,0.9,5.3,6.6,5.7,12.7
			c0.1,1.7,0.1,5.7-2.2,7.2c-1.1,0.7-5.8,2.3-18.3-5.4l-4,6.5c7.8,4.8,14.3,7.2,19.6,7.2C69.2,1627.5,71.4,1626.9,73.3,1625.7z"/>
		<polygon class="st25" points="84.8,1614.5 87.9,1612.7 89.1,1614.6 118.5,1596.9 114.5,1590.3 88.8,1605.9 79,1588.9 99.5,1576.6 
			95.5,1570 75.2,1582.2 67.2,1568.2 91.7,1553.9 87.9,1547.3 61.1,1562.8 63.3,1566.7 58.9,1569.3 		"/>
		<path class="st25" d="M117.4,1593.7l7.5-1.7l-3.3-14l16-9.1c0.2,0.3,0.5,0.6,0.8,1c2.3,2.9,5.4,6.8,9.8,12.1l5.9-4.9
			c-4.3-5.3-7.4-9.2-9.7-12c-7.3-9.2-7.6-9.5-16.6-16c-3.6-2.6-8.6-6.2-16.2-12l-1,1.3l-5.8,1.4L117.4,1593.7z M132.6,1562.9
			l-12.8,7.3l-4.9-21.1c3.5,2.6,6.2,4.5,8.4,6.1C128.3,1558.9,130.3,1560.4,132.6,1562.9z"/>
		<polygon class="st25" points="140.3,1527.8 167.1,1571.2 173.6,1567.2 147.1,1524.2 159.8,1517.6 156.2,1510.8 125,1527.2 
			128.6,1534 		"/>
		<path class="st25" d="M178.1,1528.7c4.3,1.3,8.7,0.6,12.9-0.1c4.1-0.6,8-1.2,10.6,0.3c12.6,7.3,12.5,10.6,12.5,10.7
			c-1.5,3.6-21.9,5.4-31.1,2.8l-2.1,7.4c2.9,0.8,8.5,1.5,14.6,1.5c10.6,0,22.8-2,25.7-8.7c3.4-8-7.3-15.4-15.7-20.3
			c-5-2.9-10.6-2-15.6-1.3c-3.5,0.5-6.9,1.1-9.6,0.3c-5.9-1.7-9.3-4.1-8.9-6.1c0.7-4.2,11.1-10,19.1-9.5l0.5-7.7
			c-10.6-0.6-25.5,6.7-27.1,15.8C163.1,1517.7,164,1524.6,178.1,1528.7z"/>
		<polygon class="st25" points="274.1,1448.1 314.1,1452.2 314.9,1444.6 271.5,1440.1 271.3,1442.4 268.8,1441.2 250.6,1480.7 
			257.6,1483.9 		"/>
		<path class="st25" d="M270.8,1509.7c1,0.7,1.9,1,3.1,1c3.4,0,8-3,17.2-9c7.8-5.1,18.4-12.1,33.2-20.5l5.8,1.5l1.9-7.4l-25.9-6.5
			l-1.9,7.4l9.5,2.4c-11.5,6.8-20.1,12.4-26.7,16.7c-4.1,2.7-8.1,5.3-10.6,6.7c0.4-2.9,1.5-7.5,2.6-12.3c1.6-6.9,3.8-16.5,6-28.4
			l-7.5-1.4c-2.2,11.8-4.3,21.2-5.9,28.1C268,1502.2,266.9,1507,270.8,1509.7z"/>
		<path class="st25" d="M378.5,1405.5l13.8-8.3l5.3,8.2l-19.5,11.4l3.9,6.6l68.3-39.9l-3.9-6.6l-19.6,11.5l-5.5-8.5l15-9l-4-6.6
			l-15.2,9.2l-7.6-11.9l-6.5,4.2l7.5,11.7l-15.7,9.5l-9.4-14.6l-6.5,4.2l9.3,14.4l-13.6,8.2L378.5,1405.5z M414.5,1383.8l5.4,8.5
			l-15.9,9.3l-5.3-8.3L414.5,1383.8z"/>
		
			<rect x="385.6" y="1426.5" transform="matrix(0.1703 -0.9854 0.9854 0.1703 -1077.4966 1580.9667)" class="st25" width="28.9" height="7.7"/>
		
			<rect x="435.7" y="1391.5" transform="matrix(0.1341 -0.991 0.991 0.1341 -1013.6445 1653.8285)" class="st25" width="7.7" height="31"/>
		<path class="st25" d="M547.3,1349.6c1.4,1.6,2.8,3.3,3.9,4.7c-2-0.1-4.6-0.3-7.3-0.5c-1.7-0.1-3.6-0.3-5.7-0.5l-0.6,7.7
			c2,0.2,3.9,0.3,5.6,0.4c4.1,0.3,7.3,0.6,9.8,0.6c4.1,0,6.2-0.7,7.4-3c1.9-3.6-0.8-6.8-7.3-14.4c-7.6-9-20.4-24.1-36.3-50.2l-6.6,4
			C526.4,1325.1,539.5,1340.5,547.3,1349.6z"/>
		
			<rect x="492.2" y="1336.5" transform="matrix(6.310701e-02 -0.998 0.998 6.310701e-02 -861.1435 1763.4213)" class="st25" width="32.9" height="7.7"/>
		
			<rect x="551.4" y="1298.2" transform="matrix(0.4199 -0.9076 0.9076 0.4199 -869.4929 1265.4969)" class="st25" width="7.7" height="29.4"/>
		<path class="st25" d="M732.1,1184c3.4,4.4,6.1,9.9,8.9,15.6c6,12.2,12.2,24.7,25.5,28.1c2.6,0.7,5.4,1,8.3,1
			c6.9,0,14.4-1.8,21.4-5.1c10.1-4.9,17.4-12.3,20-20.5l4.9-5l0.3-1c0.8-2.9-0.6-5.1-1.5-6.7c-0.3-0.4-0.5-0.9-0.6-1.2l-7.2,2.7
			c0.4,0.9,0.8,1.7,1.3,2.4c0.1,0.1,0.2,0.3,0.3,0.4l-4.2,4.3l-0.3,1c-3.3,12.2-24.1,24.4-40.7,20.2c-7.7-1.9-12.5-8.7-16.9-16.9
			l45.1-25.8c0.4,0.7,0.8,1.4,1.3,2l6.5-4c-3.8-6.1-6.6-11.1-8.9-15.1c-5.3-9.3-7.9-13.9-12.7-14.9c-4.6-0.9-8.6,2.2-16.5,8.4
			c-7,5.5-17.6,13.8-34.7,24.1l2.6,4.3L732.1,1184z M747.9,1196.3c-2.4-4.9-4.9-9.9-7.9-14.3c7.5-4.7,13.6-8.9,18.7-12.6l9.3,15.8
			l-19.9,11.4C748,1196.5,748,1196.4,747.9,1196.3z M771,1160.1c4.3-3.3,9.1-7.1,10.3-6.9c1.3,0.2,4.4,5.8,7.5,11.1
			c1.1,2,2.4,4.3,3.9,6.8l-18,10.3l-9.7-16.6C767.2,1163,769.2,1161.5,771,1160.1z"/>
		<polygon class="st25" points="861.2,1132 894.2,1113.1 908.7,1134.2 882.2,1150.4 886.1,1157 939.7,1124.3 935.7,1117.8 
			915.3,1130.2 900.9,1109.3 932.4,1091.2 928.6,1084.5 896.5,1102.9 882.8,1082.9 876.4,1087.2 889.9,1106.7 857.4,1125.3 		"/>
		<polygon class="st25" points="988.1,1064.1 1014.9,1048.8 1033.7,1078.1 1040.2,1073.9 1021.6,1045 1044.1,1032.3 1040.3,1025.6 
			1017.5,1038.6 1006.9,1022.2 1000.5,1026.3 1010.8,1042.4 984.3,1057.4 		"/>
		
			<rect x="1125.7" y="940.9" transform="matrix(0.1255 -0.9921 0.9921 0.1255 47.2241 1949.6473)" class="st25" width="7.7" height="14.3"/>
		
			<rect x="1103.7" y="954.2" transform="matrix(0.8681 -0.4963 0.4963 0.8681 -325.459 691.0179)" class="st25" width="68.3" height="7.7"/>
		
			<rect x="1113.4" y="996.7" transform="matrix(0.1188 -0.9929 0.9929 0.1188 4.6326 2006.35)" class="st25" width="38.7" height="7.7"/>
		
			<rect x="1166.2" y="956.9" transform="matrix(9.516021e-02 -0.9955 0.9955 9.516021e-02 84.9857 2049.7786)" class="st25" width="7.7" height="42.4"/>
		<path class="st25" d="M1250.4,946.6c0.3,1.6,0.5,3.4,0.9,5.4l7.6-1.3c-0.3-2-0.6-3.8-0.9-5.4c-0.2-1.5-0.5-2.9-0.7-4.1l1.5,2.7
			l53.9-30.8l-3.8-6.7l-23.6,13.5l-7.6-11.5l22.8-12.4l-3.7-6.7l-23.3,12.7l-10.1-15.3l-6.4,4.2l9.8,14.8l-13,7.1l0.3-6.3l7.6,0.7
			l0.7-7.6l-8-0.7l0.2-3.4l-7.7-0.4l-0.9,17.4l7.6,0.4l-6,3.3l3.7,6.7l19.7-10.7l7.7,11.6l-22.3,12.7c-1-4.2-2.3-6.2-6-11.1
			c-3.2-4.2-8.4-11.1-17.5-25.6l52.7-32.8l-4.1-6.5l-25.6,15.9l0.8-4.8l-12-2l-1.3,7.6l8.9,1.5l-27.2,16.9l2.5,4.1l-2.8,1.7
			c10.3,16.5,16,24.1,19.5,28.6C1248.6,935.9,1248.6,935.9,1250.4,946.6z"/>
		<polygon class="st25" points="1273.5,881.9 1271.7,897.1 1279.4,898 1280.1,892 1287.9,893.1 1288.9,885.5 1280.9,884.4 
			1281.1,882.8 		"/>
		<polygon class="st25" points="1372,828.3 1415.6,801 1411.5,794.5 1389.9,808 1389.9,804.3 1373.6,804.4 1373.7,812.1 1383.5,812 
			1367.9,821.8 		"/>
		
			<rect x="1391.1" y="825.1" transform="matrix(0.2661 -0.9639 0.9639 0.2661 214.3926 1960.7888)" class="st25" width="7.7" height="29"/>
		
			<rect x="1402.2" y="822.3" transform="matrix(1.350717e-02 -0.9999 0.9999 1.350717e-02 571.1893 2231.3108)" class="st25" width="28.4" height="7.7"/>
		
			<rect x="1385.6" y="847.5" transform="matrix(0.8617 -0.5074 0.5074 0.8617 -236.7445 834.2057)" class="st25" width="52.7" height="7.7"/>
		<polygon class="st25" points="1381,879.6 1387.7,875.8 1362.8,830.8 1367,819 1359.8,816.4 1349.4,845.6 1356.6,848.1 
			1359.3,840.4 		"/>
		<path class="st25" d="M618.9,1249.9c1.5,2.3,2.7,4.2,3.9,5.8l-11.8,6.8l3.8,6.7l12.6-7.2c0,0,0,0,0,0c-0.3,0.6-1.1,1.9-1.9,3.2
			c-1,1.5-2.4,3.7-4,6.4l6.6,3.9c1.6-2.6,2.8-4.6,3.8-6.2c3.4-5.3,4.1-7.5,2.1-11.1l5.8-3.3l3.7,6.3l6.6-3.9l-3.7-6.2l5.8-3.3
			l-3.8-6.7l-5.9,3.4l-3.5-6l6.8-3.9l-3.8-6.7l-40.5,23.1l3.8,6.7L618.9,1249.9z M635.8,1248.3l-6.3,3.6c-1.1-1.5-2.4-3.4-3.9-5.8
			l6.7-3.8L635.8,1248.3z"/>
		
			<rect x="652.4" y="1224.4" transform="matrix(0.8647 -0.5024 0.5024 0.8647 -531.8077 496.8561)" class="st25" width="7.7" height="22.1"/>
		<path class="st25" d="M670,1239.5c-0.2,0.7-1,2.4-1.8,4.1c-0.5,1-1,2.2-1.7,3.6l7,3.2c0.6-1.4,1.2-2.5,1.6-3.5
			c3.4-7.2,3.6-8.9-1.1-14.5c-2.1-2.5-5.7-6.7-10.7-15.1l-6.6,4c5.4,8.9,9.2,13.4,11.4,16.1C669,1238.1,669.7,1239.1,670,1239.5z"/>
		<polygon class="st25" points="697.3,1264.4 693.5,1257.8 665,1274.2 660.9,1267.7 681.9,1255.4 678,1248.8 656.9,1261.1 
			654.7,1257.4 648.1,1261.4 650.3,1265 628.9,1277.6 632.7,1284.2 654.3,1271.6 658.3,1278.1 629.6,1294.6 633.5,1301.3 		"/>
	</g>
</g>
<path class="st9" d="M619.3,2532.3"/>
</svg>
