<?xml version="1.0" encoding="utf-8"?>
<!-- Generator: Adobe Illustrator 26.5.0, SVG Export Plug-In . SVG Version: 6.00 Build 0)  -->
<svg version="1.1" id="Layer_1" xmlns="http://www.w3.org/2000/svg" xmlns:xlink="http://www.w3.org/1999/xlink" x="0px" y="0px"
	 viewBox="0 0 2521 2911" style="enable-background:new 0 0 2521 2911;" xml:space="preserve">
<style type="text/css">
	.st0{fill:#80A9B5;}
	.st1{clip-path:url(#SVGID_00000018211565959608428460000011415645757173885604_);}
	.st2{clip-path:url(#SVGID_00000124133219866414173540000001666241805883861639_);fill:#C1272D;}
	.st3{clip-path:url(#SVGID_00000121997738351841140850000013879199196910735248_);fill:#ED1C24;}
	.st4{clip-path:url(#SVGID_00000142874182256597942020000010199172876099488899_);fill:#F15A24;}
	.st5{clip-path:url(#SVGID_00000065789667061214826050000003621640237773499291_);fill:#F7931E;}
	.st6{clip-path:url(#SVGID_00000152965874021929236040000013305454031950085041_);fill:#FBB03B;}
	.st7{clip-path:url(#SVGID_00000124851701301130268110000003601010336969735040_);fill:#F9DE3D;}
	.st8{fill:#D4F9FF;}
	.st9{fill:#020202;}
	.st10{fill:#E6B35A;}
	.st11{fill:#FFFFFF;}
	.st12{enable-background:new    ;}
	.st13{fill:none;}
</style>
<g id="Layer_3">
</g>
<g id="Layer_1_1_">
	<path class="st0" d="M2419.8,669.7L1467,119.4L1260.2,0l-206.8,119.4L100.5,669.7L0,727.7v1455.7l100.5,58l964.8,557.2l195.2,112.5
		l195.2-112.5l964.8-557.2l100.5-58V727.7L2419.8,669.7z"/>
	<g>
		<g>
			<g>
				<defs>
					<polygon id="SVGID_1_" points="2419.8,669.7 1467,119.4 1260.2,0 1053.3,119.4 100.5,669.7 0,727.7 0,2183.3 100.5,2241.3 
						1065.3,2798.5 1260.5,2911 1455.7,2798.5 2420.5,2241.3 2521,2183.3 2521,727.7 					"/>
				</defs>
				<clipPath id="SVGID_00000132789951842640907720000004384204386815904138_">
					<use xlink:href="#SVGID_1_"  style="overflow:visible;"/>
				</clipPath>
				<g style="clip-path:url(#SVGID_00000132789951842640907720000004384204386815904138_);">
				</g>
			</g>
		</g>
		<g>
			<g>
				<defs>
					<polygon id="SVGID_00000122721061087056713980000012210220065617657237_" points="2419.8,669.7 1467,119.4 1260.2,0 
						1053.3,119.4 100.5,669.7 0,727.7 0,2183.3 100.5,2241.3 1065.3,2798.5 1260.5,2911 1455.7,2798.5 2420.5,2241.3 2521,2183.3 
						2521,727.7 					"/>
				</defs>
				<clipPath id="SVGID_00000008861760170675473840000018088231053308268466_">
					<use xlink:href="#SVGID_00000122721061087056713980000012210220065617657237_"  style="overflow:visible;"/>
				</clipPath>
				<path style="clip-path:url(#SVGID_00000008861760170675473840000018088231053308268466_);fill:#C1272D;" d="M2786.1,1635.4
					H-182.1v550h2966.2C2784.4,2002.2,2785.1,1818.6,2786.1,1635.4z"/>
			</g>
		</g>
		<g>
			<g>
				<defs>
					<polygon id="SVGID_00000095332255299140450830000018412101002278170014_" points="2419.8,669.7 1467,119.4 1260.2,0 
						1053.3,119.4 100.5,669.7 0,727.7 0,2183.3 100.5,2241.3 1065.3,2798.5 1260.5,2911 1455.7,2798.5 2420.5,2241.3 2521,2183.3 
						2521,727.7 					"/>
				</defs>
				<clipPath id="SVGID_00000172434036268580178220000007773769718823558567_">
					<use xlink:href="#SVGID_00000095332255299140450830000018412101002278170014_"  style="overflow:visible;"/>
				</clipPath>
				<path style="clip-path:url(#SVGID_00000172434036268580178220000007773769718823558567_);fill:#ED1C24;" d="M2789.2,1295.1
					c0.3-33.3-0.3-66.2-0.3-99.5h-2971v459.7h2968.6C2787.5,1535.6,2788.2,1415.5,2789.2,1295.1z"/>
			</g>
		</g>
		<g>
			<g>
				<defs>
					<polygon id="SVGID_00000149359202977313069930000010577082456547723932_" points="2419.8,669.7 1467,119.4 1260.2,0 
						1053.3,119.4 100.5,669.7 0,727.7 0,2183.3 100.5,2241.3 1065.3,2798.5 1260.5,2911 1455.7,2798.5 2420.5,2241.3 2521,2183.3 
						2521,727.7 					"/>
				</defs>
				<clipPath id="SVGID_00000082342183203410763990000016179808395023841704_">
					<use xlink:href="#SVGID_00000149359202977313069930000010577082456547723932_"  style="overflow:visible;"/>
				</clipPath>
				<path style="clip-path:url(#SVGID_00000082342183203410763990000016179808395023841704_);fill:#F15A24;" d="M2788.5,905.7
					H-182.1v368.1h2971.4C2789.2,1151,2789.2,1028.2,2788.5,905.7z"/>
			</g>
		</g>
		<g>
			<g>
				<defs>
					<polygon id="SVGID_00000132774707927712262340000008801106127490886793_" points="2419.8,669.7 1467,119.4 1260.2,0 
						1053.3,119.4 100.5,669.7 0,727.7 0,2183.3 100.5,2241.3 1065.3,2798.5 1260.5,2911 1455.7,2798.5 2420.5,2241.3 2521,2183.3 
						2521,727.7 					"/>
				</defs>
				<clipPath id="SVGID_00000107547538506212040270000003663170420627472829_">
					<use xlink:href="#SVGID_00000132774707927712262340000008801106127490886793_"  style="overflow:visible;"/>
				</clipPath>
				<path style="clip-path:url(#SVGID_00000107547538506212040270000003663170420627472829_);fill:#F7931E;" d="M2783.7,601.8
					H-182.1v318.4h2970.7C2787.8,813.8,2785.4,707.8,2783.7,601.8z"/>
			</g>
		</g>
		<g>
			<g>
				<defs>
					<polygon id="SVGID_00000173128500599726052330000008934052759708683941_" points="2419.8,669.7 1467,119.4 1260.2,0 
						1053.3,119.4 100.5,669.7 0,727.7 0,2183.3 100.5,2241.3 1065.3,2798.5 1260.5,2911 1455.7,2798.5 2420.5,2241.3 2521,2183.3 
						2521,727.7 					"/>
				</defs>
				<clipPath id="SVGID_00000008137366610732555610000010261088502173206201_">
					<use xlink:href="#SVGID_00000173128500599726052330000008934052759708683941_"  style="overflow:visible;"/>
				</clipPath>
				<path style="clip-path:url(#SVGID_00000008137366610732555610000010261088502173206201_);fill:#FBB03B;" d="M2780.6,435.4
					c-0.7-29.5-2.4-59.7-4.5-89.5H-182.1V635h2966.2C2783,568.5,2782.4,501.9,2780.6,435.4z"/>
			</g>
		</g>
		<g>
			<g>
				<defs>
					<polygon id="SVGID_00000056409047881011780090000016072281548676142221_" points="2419.8,669.7 1467,119.4 1260.2,0 
						1053.3,119.4 100.5,669.7 0,727.7 0,2183.3 100.5,2241.3 1065.3,2798.5 1260.5,2911 1455.7,2798.5 2420.5,2241.3 2521,2183.3 
						2521,727.7 					"/>
				</defs>
				<clipPath id="SVGID_00000002386040835831319590000001172044652006470564_">
					<use xlink:href="#SVGID_00000056409047881011780090000016072281548676142221_"  style="overflow:visible;"/>
				</clipPath>
				<path style="clip-path:url(#SVGID_00000002386040835831319590000001172044652006470564_);fill:#F9DE3D;" d="M2754.2-57.3H-182.1
					v403.1h2956.9C2769,212.4,2760.8,77.5,2754.2-57.3z"/>
			</g>
		</g>
	</g>
	<g>
		<polygon class="st8" points="17.1,2173.4 19.6,1707.8 93.3,1853 1836.7,1789.1 2503.2,1638.9 2503.2,2173.4 1260.2,2891.1 		"/>
		<path class="st9" d="M2486,1660.5v502.9l-83.3,48l-964.5,557.2l-178,102.9l-178-102.9l-964.5-557.2l-83.3-48l1.7-384.9l36.7,72.4
			l9.9,19.6l22-0.7l1731.1-63.5h3.1l3.1-0.7L2486,1660.5 M2520.3,1615.9l-17.5,5.5L1834.7,1772l-1731.1,63.5l-100.8-199L0,2183.3
			l100.5,58l964.8,557.2l195.2,112.5l195.2-112.5l964.8-557.2l100.5-58v-567.4H2520.3z"/>
	</g>
	<path class="st10" d="M201.3,989.8c1-1,2.1-2.1,3.1-3.1h-1C203.1,988.1,202.4,989.1,201.3,989.8z"/>
	<path class="st10" d="M1301.3,2145.3c1-1,2.1-2.1,3.1-3.1h-1C1302.7,2143.2,1302,2144.2,1301.3,2145.3z"/>
	<g id="Layer_2_1_">
	</g>
	<g>
		<g>
			<path class="st11" d="M1275.6,1588.8c126.9-16.1,260.7-24.4,399.6-24.4c366,0,651,28.1,761.4,51.5L1256.4,58.3
				C1698.5,974.3,1681.7,1428.2,1275.6,1588.8z"/>
			<path class="st11" d="M492.2,1596c580.3,3.1,722.3,1,754.9,0.3l7.5-1549C1166.2,158.2,595.4,895.1,492.2,1596z"/>
		</g>
	</g>
	<g>
		<g>
			<path d="M2517.9,1681.8c-3.4-7.9-9.9-11.3-16.1-8.9c-2.4,1-40.1,15.8-59.7,23.3c-169.4,63.1-369.1,92.3-597.8,127.3
				c-1-67.9-13.4-99.5-37.4-132.8c-26.8-37.4-67.6-51.8-121.8-42.5c-32.6,5.5-120.4,16.1-225,27.1l-103.2,10.6
				c-156.4,15.4-323.4,29.2-397.2,29.2c-115.9,0-215.4,42.2-345.1,168.1c-126.2-3.8-262,9.6-361.2,3.4l-20.9-20.9
				c-12.3,5.8-24.4,11.7-36.7,17.2l0,0h-0.3c-8.9,4.1-17.8,7.9-27.1,11.7c-12,4.8-19.9-4.5-20.6-14.8c-51.4-3.4-96.4-6.9-133.4-9.6
				c1,15.1,2.1,30.2,2.7,45.3c59,4.5,137.9,10.3,231.5,15.8l0,0l0,0c171.8,10.3,393.8,20.2,635.6,20.2c673.6,0,1207-74.1,1586-220.3
				c12.3-3.4,30.9-13.7,29.2-8.9c1-0.3-1.4,1.7-4.8,4.5h0.3c4.8,0,8.6,1.7,11.3,4.1c3.4-7.9,7.2-15.8,10.6-23.7
				C2521.7,1699.6,2521.7,1689.3,2517.9,1681.8z M885.3,1906.8c-80.9,0-159.5-1-235-3.1c109.8-96.7,211.6-144.1,310.1-144.1
				c143.7,0,639.7-52.1,728.5-67.6c44.9-7.5,77.9,2.7,98.1,30.9c18.2,25.4,27.4,66.9,27.8,124.2
				C1544.2,1886.9,1233.7,1906.8,885.3,1906.8z"/>
			<path class="st8" d="M1818.9,1845.4c-0.7-62.8-9.9-108.4-28.5-136.2c-20.6-30.9-54.5-42.5-100.5-34
				c-91.2,16.8-599.6,74.1-747.4,74.1c-101.2,0-205.5,51.8-318,157.8c77.2,2.1,157.8,3.4,240.8,3.4
				C1222.4,1910.6,1541.1,1888.6,1818.9,1845.4z M1617.2,1750.7l79.9-6.5c0.3,0,0.7,0,0.7,0c7.9,0,14.7,10.3,15.1,23.3l1,29.8
				c0.3,13.7-6.2,25-14.4,25.7l-79.9,6.5c-0.3,0-0.7,0-0.7,0c-7.9,0-14.7-10.3-15.1-23.3l-1-29.8
				C1602.5,1763.1,1609,1751.4,1617.2,1750.7z M1370.3,1771.3l79.9-6.5c0.3,0,0.7,0,0.7,0c7.9,0,14.7,10.3,15.1,23.3l1,29.8
				c0.3,13.7-6.2,25-14.4,25.7l-79.9,6.5c-0.3,0-0.7,0-0.7,0c-7.9,0-14.7-10.3-15.1-23.3l-1-29.8
				C1355.2,1783.3,1361.7,1772,1370.3,1771.3z M1086.9,1813.8c0-13.7,6.9-24.7,15.1-24.7h79.9c8.2,0,15.1,11,15.1,24.7v29.8
				c0,13.7-6.9,24.7-15.1,24.7H1102c-8.6,0-15.1-11-15.1-24.7V1813.8z M839.6,1843.7v-29.8c0-13.7,6.9-24.7,15.1-24.7h79.9
				c8.2,0,15.1,11,15.1,24.7v29.8c0,13.7-6.9,24.7-15.1,24.7h-79.9C846.5,1868,839.6,1857.1,839.6,1843.7z"/>
			<path d="M950.1,1843.7v-29.8c0-13.7-6.9-24.7-15.1-24.7h-79.9c-8.6,0-15.1,11-15.1,24.7v29.8c0,13.7,6.9,24.7,15.1,24.7H935
				C943.2,1868,950.1,1857.1,950.1,1843.7z"/>
			<path d="M1102.4,1868h79.9c8.2,0,15.1-11,15.1-24.7v-29.8c0-13.7-6.9-24.7-15.1-24.7h-79.9c-8.6,0-15.1,11-15.1,24.7v29.8
				C1086.9,1857.1,1093.8,1868,1102.4,1868z"/>
			<path d="M1372,1850.2c0.3,0,0.7,0,0.7,0l79.9-6.5c8.2-0.7,14.7-12.4,14.4-25.7l-1-29.8c-0.3-13-7.2-23.3-15.1-23.3
				c-0.3,0-0.7,0-0.7,0l-79.9,6.5c-8.2,0.7-14.7,12.4-14.4,25.7l1,29.8C1357.2,1839.9,1363.7,1850.2,1372,1850.2z"/>
			<path d="M1618.9,1829.6c0.3,0,0.7,0,0.7,0l79.9-6.5c8.2-0.7,14.7-12.4,14.4-25.7l-1-29.8c-0.3-13-7.2-23.3-15.1-23.3
				c-0.3,0-0.7,0-0.7,0l-79.9,6.5c-8.2,0.7-14.7,12.4-14.4,25.7l1,29.8C1604.2,1819.7,1611,1829.6,1618.9,1829.6z"/>
		</g>
	</g>
	<path class="st11" d="M235.3,2152.5c-12.3-9.6-25-18.5-39.1-25.7C209.2,2135.3,222.3,2143.9,235.3,2152.5z"/>
	<g class="st12">
		<path d="M1019.7,2117.5c2.1,5.1,3.4,10.3,4.1,15.4c0.3,1.4,0.3,3.4,0.7,5.1c0,2.1,0.3,3.8,0.7,5.1c0,9.9-1.4,19.6-4.1,29.5
			c-2.7,9.9-6.2,18.9-9.9,27.1c-6.9,13.7-13.7,27.4-20.2,40.8c-6.9,13.4-13.4,27.1-20.2,40.8l-51.8-25.4
			c6.9-13.7,13.7-27.4,20.2-41.2c6.5-13.7,13.4-27.1,20.2-40.5c1.4-2.1,2.4-4.5,3.1-6.9c0.7-2.4,1.7-4.8,2.4-7.2
			c0.7-2.7,1.4-5.8,1.7-8.9c0.3-3.1,0.7-5.8,0.7-8.2c-3.8,0.3-8.6,1.4-14.4,3.8c-5.8,2.4-12.7,5.8-20.9,10.6
			c-4.8,2.7-9.6,5.5-14.7,8.6c-5.1,3.1-10.6,6.2-15.8,9.9c-3.8,2.7-7.5,5.1-11.3,7.9c-3.8,2.7-7.2,5.5-10.6,8.6
			c-2.1,2.1-4.5,4.1-7.2,6.9c-2.7,2.7-5.5,5.5-7.9,8.6c-4.8,5.1-8.9,10.6-12.3,16.8s-5.5,12-5.8,17.5c-0.3,1.4-0.3,2.1,0,3.1
			c0,0.7,0.3,1.4,0.3,2.4c0.3,2.4,1.4,4.5,2.4,6.5c1.4,2.1,3.1,4.1,5.5,6.2c14.4,11.3,29.2,23,43.6,34.7
			c14.7,11.7,29.2,23.3,43.6,34.7c4.5,3.1,7.9,7.2,10.6,12c2.4,4.8,4.5,9.6,6.2,15.1c0,0.7,0.3,1.7,0.3,2.7c0,1,0.3,1.7,0.3,2.7
			c1,5.8,1.4,11.3,1,16.8s-1,11-2.7,16.5c-3.8,15.4-11.3,28.8-23,40.1c-11.3,11-25.4,17.8-41.8,20.6l-169.1,27.4l9.3-60
			c25-4.1,50.1-7.9,75.1-12c25-4.1,50.1-7.9,75.1-12c5.8-1,10.6-4.1,14.1-9.3c3.8-5.1,5.1-11,4.8-16.8c-6.9-5.5-13.7-11.3-20.6-16.8
			s-14.1-11-21.3-16.8c-7.2-5.5-14.4-11-21.3-16.8c-6.9-5.5-14.1-11-21.3-16.8c-8.6-6.5-15.1-14.1-19.9-23
			c-4.8-8.9-7.9-18.2-9.6-27.8c-3.1-25,3.1-48,19.2-69c16.1-20.9,34.6-38.8,55.6-53.5c7.2-5.1,14.1-9.6,20.9-14.1
			c6.9-4.1,13.4-8.2,19.9-12s13.7-7.5,22-11c8.2-3.4,16.5-6.2,24.7-8.2c1-0.3,2.4-0.3,3.8-0.7c1.4-0.3,2.7-0.3,3.8-0.7
			c9.9-1.7,19.6-1.4,28.8,1c9.3,2.4,17.5,7.5,24.7,15.8C1014.6,2107.9,1017.7,2112.7,1019.7,2117.5z"/>
		<path d="M1066,2371l56.9-9.3l-9.3,60l-51.1,8.2c-14.1,2.4-26.4-0.7-36.7-8.6c-10.3-7.9-16.5-18.2-18.5-30.9
			c-0.3-1.4-0.3-3.1-0.3-4.5s0-2.7-0.3-4.5c0.3-1.4,0.3-2.4,0.7-3.8c0-1.4,0.3-2.7,0.3-4.5l48-305.3l60-9.6L1066,2371z"/>
		<path d="M1324.6,2302.7l-27.8,4.5c-1.4,23-9.9,44.3-26.1,63.8c-16.1,19.6-36,31.2-59.7,35c-1,0.3-2.1,0.3-3.1,0.3
			c-1,0-2.1,0-3.4,0c-1,0.3-2.1,0.3-3.1,0.3c-1,0-2.1,0-3.1,0.3c-21.6,0.3-40.1-6.5-55.6-20.2s-24.7-31.2-28.1-52.5
			c-4.5-27.1,1.7-53.2,18.2-77.5c16.5-24.4,38.8-39.1,66.9-43.6c16.8-2.7,32.6-0.7,47.3,5.8c14.7,6.9,26.4,16.8,35.3,30.5l51.8-8.2
			L1324.6,2302.7z M1207.3,2305.8c-8.2-6.5-14.1-15.1-16.8-25.7c-5.5,4.8-9.9,10.6-13,17.8c-3.1,6.9-4.8,14.1-4.8,21.3
			c0,0.3,0,1,0.3,1.4c0,0.7,0,1,0.3,1.4c-0.3,0.3-0.3,1-0.3,1.4c0,0.7,0,1,0.3,1.4c1.4,6.9,4.8,12.7,9.6,17.5
			c4.8,4.8,11.3,6.5,19.6,5.1c7.5-1.4,14.4-4.8,20.2-11c5.8-6.2,10.3-13,13-20.2C1224.8,2315.8,1215.6,2312.3,1207.3,2305.8z"/>
		<path d="M1526.7,2270.5l-27.8,4.5c-1.4,23-9.9,44.3-26.1,63.8c-16.1,19.6-36,31.2-59.7,35c-1,0.3-2.1,0.3-3.1,0.3s-2.1,0-3.4,0
			c-1,0.3-2.1,0.3-3.1,0.3s-2.1,0-3.1,0.3c-21.6,0.3-40.1-6.5-55.6-20.2c-15.4-13.7-24.7-31.2-28.1-52.5
			c-4.5-27.1,1.7-53.2,18.2-77.5s38.8-39.1,66.9-43.6c16.8-2.7,32.6-0.7,47.3,5.8c14.7,6.9,26.4,16.8,35.3,30.5l51.8-8.2
			L1526.7,2270.5z M1409.4,2273.2c-8.2-6.5-14.1-15.1-16.8-25.7c-5.5,4.8-9.9,10.6-13,17.8c-3.1,6.9-4.8,14.1-4.8,21.3
			c0,0.3,0,1,0.3,1.4c0,0.7,0,1,0.3,1.4c-0.3,0.3-0.3,1-0.3,1.4c0,0.3,0,1,0.3,1.4c1.4,6.9,4.8,12.7,9.6,17.5s11.3,6.5,19.6,5.1
			c7.5-1.4,14.4-4.8,20.2-11c5.8-6.2,10.3-13,13-20.2C1426.9,2283.2,1417.6,2279.7,1409.4,2273.2z"/>
		<path d="M1806.5,2310.6l-171.2,27.4l-9.3-57l37.4-6.2c2.7-0.3,5.5-1,7.9-2.1c2.7-1,5.1-2.1,7.9-3.4c11-6.2,20.2-14.8,28.1-26.1
			c7.9-11.3,11-22.6,8.9-33.6c-1-6.2-3.8-10.3-7.9-12c-4.1-1.7-8.9-2.4-14.4-1.4c-7.5,1.4-15.8,5.5-24.4,13
			c-8.6,7.5-17.1,17.2-25.4,29.2c-0.7,1.4-1.4,2.7-2.4,4.1c-1,1.4-2.1,3.1-2.7,4.5c-8.9,14.8-17.5,31.6-25,50.4
			c-7.5,18.9-13,38.4-16.5,59l-24.4,158.2l-56.9-9.3l32.6-209.6c2.4-16.5,3.8-31.2,3.8-43.6c0-12.7-0.7-23.7-2.4-33.3
			c-1-7.2-2.7-13.7-4.5-19.6c-1.7-5.8-3.4-11-5.5-15.4c-0.7-1.4-1-3.1-1.7-4.5c-0.3-1.4-1-2.7-1.4-3.8c-0.7-1.7-1-3.1-1.4-3.8
			c-0.3-0.7-0.7-1-1-1.4l53.8-20.9c1,1.7,1.7,3.4,2.1,4.5c0.7,1.7,1.4,3.8,2.1,5.5s1.4,3.8,2.1,6.2c1.7,4.1,3.4,8.6,5.1,13.7
			c1.7,5.1,3.1,10.6,4.5,16.8c10.3-13.7,22.6-26.1,36.4-36.7c13.7-10.6,29.2-17.5,45.6-19.9c4.1-0.7,8.6-1,12.7-1
			c4.5,0,8.6,0.3,13,1c16.1,2.4,29.8,9.3,40.8,20.6c11,11.3,17.8,25,20.6,41.2c1.4,9.6,1.4,19.2-0.3,29.2
			c-1.7,9.9-4.8,19.6-8.6,28.8l51.1-8.2L1806.5,2310.6z"/>
	</g>
	<polygon points="1839.1,1873.9 2490.1,1713.7 2490.1,1645.4 1839.1,1791.5 	"/>
	<polygon points="157.4,1910.6 611.2,1908.2 676.7,1839.9 145.1,1850.2 	"/>
	<g>
		<path class="st13" d="M1246.1,1696.9v0.7c9.3-0.7,18.5-1,27.4-1.7v-0.7C1264.6,1695.8,1255.4,1696.2,1246.1,1696.9z"/>
		<path d="M1293.1,1706.8c0-0.7-0.3-1-0.3-1.7c-1-4.1-0.7-7.5,0-10.3c0,0,0,0-0.3,0v-25.7c0-0.7,0-1.4-0.3-2.1
			c-0.3-5.5,0-11.3,0-16.8c0-0.3,0-1,0-1.4l-6.5-1426.5c0-0.3,0-1-0.3-1.4c-0.3-1.7-0.7-4.1-0.7-6.5c0.3-57-2.7-113.6-3.8-170.2
			c0-1.7-0.7-3.1-1.7-4.5L1263.9,25c-1.7-1.4-3.8-2.1-5.8-1.7h-0.3c-1,0.3-1.7,0.7-2.4,1.4l-13.7,13.4c-0.3,0.3-0.7,1-1,1.4
			c-1.4,2.4-3.8,5.8-5.5,7.9c-0.7,1-1.4,2.4-1.4,3.8c0,8.6-0.3,41.9,0.3,57.6c0,0,0.3-0.3,0.3-0.7l-6.5,1456.7h-0.3
			c0.3,1.7,0.3,3.1,0.3,4.8c-0.3,3.8-0.3,7.2-0.7,11h0.3l-0.3,113.9c0,1.4,0.3,2.7,1.4,4.1c4.5,5.1,8.6,10.6,12.7,16.1
			c1.4,1.7,3.4,2.4,5.5,2.4c13.4-1,27.1-2.1,40.1-3.1c3.1-0.3,5.5-2.7,5.8-6.2C1293.1,1707.5,1293.1,1707.1,1293.1,1706.8z
			 M1246.1,1697.5v-0.7c9.3-0.7,18.5-1,27.4-1.7v0.7C1264.6,1696.5,1255.4,1697.2,1246.1,1697.5z"/>
	</g>
	<g>
		<path class="st8" d="M36.4,1792.9c1.7,17.8,3.1,57.3,4.5,75.1c58.3,4.5,133.4,9.9,221.2,15.4l-141-158.8
			c-22.6-22-63.8-40.1-90.2-40.1H22C27.1,1720.9,32.9,1756.9,36.4,1792.9z"/>
		<path d="M323.1,1877.3l-192.8-190.8c-28.1-28.1-76.5-50.1-110.1-50.1H4.8c1.7,18.5,4.1,36.7,6.5,55.2h8.9
			c26.8,0,67.9,18.5,90.2,40.8l141.7,140.3c-88.5-5.8-163.6-11.3-222.3-15.8c1.4,18.5,2.4,37.1,3.1,55.2
			c72.7,5.5,169.1,12.7,284,19.6l0,0l0,0c25.4,1.4,28.8,3.1,56.3,4.5C361.2,1917.8,323.1,1877.3,323.1,1877.3z"/>
	</g>
</g>
</svg>
