<?xml version="1.0" encoding="utf-8"?>
<!-- Generator: Adobe Illustrator 24.0.0, SVG Export Plug-In . SVG Version: 6.00 Build 0)  -->
<svg version="1.1" id="Layer_1" xmlns="http://www.w3.org/2000/svg" xmlns:xlink="http://www.w3.org/1999/xlink" x="0px" y="0px"
	 viewBox="0 0 735 852" style="enable-background:new 0 0 735 852;" xml:space="preserve">
<style type="text/css">
	.st0{fill:#80A9B5;}
	.st1{clip-path:url(#SVGID_2_);}
	.st2{clip-path:url(#SVGID_4_);fill:#C1272D;}
	.st3{clip-path:url(#SVGID_6_);fill:#ED1C24;}
	.st4{clip-path:url(#SVGID_8_);fill:#F15A24;}
	.st5{clip-path:url(#SVGID_10_);fill:#F7931E;}
	.st6{clip-path:url(#SVGID_12_);fill:#FBB03B;}
	.st7{clip-path:url(#SVGID_14_);fill:#F9DE3D;}
	.st8{fill:#D4F9FF;}
	.st9{fill:#020202;}
	.st10{fill:#E6B35A;}
	.st11{enable-background:new    ;}
	.st12{fill:#2E0E00;}
	.st13{opacity:0.94;}
	.st14{opacity:0.25;}
	.st15{clip-path:url(#SVGID_18_);}
	.st16{clip-path:url(#SVGID_20_);}
	.st17{clip-path:url(#SVGID_22_);}
	.st18{opacity:0.95;clip-path:url(#SVGID_28_);}
	.st19{clip-path:url(#SVGID_30_);}
	.st20{fill:#FFFFFF;}
	.st21{clip-path:url(#SVGID_34_);}
	.st22{clip-path:url(#SVGID_36_);}
	.st23{fill:#E5C976;}
	.st24{fill:#ECD283;}
	.st25{fill:#DDC477;}
	.st26{fill:#E5CC80;}
	.st27{fill:#E8CD7F;}
	.st28{fill:#DEC67D;}
	.st29{fill:#CFB263;}
	.st30{fill:#E7D088;}
	.st31{fill:#ECCE7E;}
	.st32{fill:#E6C678;}
	.st33{fill:#E0C06E;}
	.st34{fill:#D6B668;}
	.st35{fill:#E2CB7E;}
	.st36{fill:#EBCD81;}
	.st37{fill:#E5C971;}
	.st38{fill:#D7BF75;}
	.st39{fill:#D7BB71;}
	.st40{fill:#ECD48A;}
	.st41{fill:#E3C678;}
	.st42{fill:#D7B867;}
	.st43{fill:#E4C975;}
	.st44{fill:#D5BB67;}
	.st45{fill:#CFAD57;}
	.st46{fill:#E6CD84;}
	.st47{fill:#E6C979;}
	.st48{fill:#E3D28B;}
	.st49{fill:#D7BD7E;}
	.st50{fill:#E3CD84;}
	.st51{fill:#DABD68;}
	.st52{fill:#D3BB6D;}
	.st53{fill:#E4C879;}
	.st54{fill:#E8D286;}
	.st55{fill:#E1CE81;}
	.st56{fill:#E5C975;}
	.st57{clip-path:url(#SVGID_38_);}
	.st58{fill:#D6B155;}
	.st59{fill:#E2CB7B;}
	.st60{opacity:0.6;clip-path:url(#SVGID_40_);}
	.st61{fill:none;}
</style>
<g id="Layer_3">
</g>
<g id="Layer_1_1_">
	<path class="st0" d="M705.6,196.2L427.8,35.8L367.5,1l-60.3,34.8L29.4,196.2L0.1,213.1v424.3l29.3,16.9l281.3,162.4l56.9,32.8
		l56.9-32.8l281.3-162.4l29.3-16.9V213.1L705.6,196.2z M705.6,621.5L367.5,816.7L29.4,621.5V231L367.5,35.8l0,0L705.6,231V621.5z"/>
	<g>
		<g>
			<defs>
				<polygon id="SVGID_1_" points="705.6,196.2 427.8,35.8 367.5,1 307.2,35.8 29.4,196.2 0.1,213.1 0.1,637.4 29.4,654.3 
					310.7,816.7 367.6,849.5 424.5,816.7 705.8,654.3 735.1,637.4 735.1,213.1 				"/>
			</defs>
			<clipPath id="SVGID_2_">
				<use xlink:href="#SVGID_1_"  style="overflow:visible;"/>
			</clipPath>
			<g class="st1">
				
					<image style="overflow:visible;enable-background:new    ;" width="1280" height="836" xlink:href="A2017781F24CB2E9.jpeg"  transform="matrix(0.5741 0 0 1.0191 8.609984e-02 0)">
				</image>
			</g>
		</g>
		<g>
			<defs>
				<polygon id="SVGID_3_" points="705.6,196.2 427.8,35.8 367.5,1 307.2,35.8 29.4,196.2 0.1,213.1 0.1,637.4 29.4,654.3 
					310.7,816.7 367.6,849.5 424.5,816.7 705.8,654.3 735.1,637.4 735.1,213.1 				"/>
			</defs>
			<clipPath id="SVGID_4_">
				<use xlink:href="#SVGID_3_"  style="overflow:visible;"/>
			</clipPath>
			<path class="st2" d="M812.4,477.7H-53V638h864.8C811.9,584.6,812.1,531.1,812.4,477.7z"/>
		</g>
		<g>
			<defs>
				<polygon id="SVGID_5_" points="705.6,196.2 427.8,35.8 367.5,1 307.2,35.8 29.4,196.2 0.1,213.1 0.1,637.4 29.4,654.3 
					310.7,816.7 367.6,849.5 424.5,816.7 705.8,654.3 735.1,637.4 735.1,213.1 				"/>
			</defs>
			<clipPath id="SVGID_6_">
				<use xlink:href="#SVGID_5_"  style="overflow:visible;"/>
			</clipPath>
			<path class="st3" d="M813.3,378.5c0.1-9.7-0.1-19.3-0.1-29H-53v134h865.5C812.8,448.6,813,413.6,813.3,378.5z"/>
		</g>
		<g>
			<defs>
				<polygon id="SVGID_7_" points="705.6,196.2 427.8,35.8 367.5,1 307.2,35.8 29.4,196.2 0.1,213.1 0.1,637.4 29.4,654.3 
					310.7,816.7 367.6,849.5 424.5,816.7 705.8,654.3 735.1,637.4 735.1,213.1 				"/>
			</defs>
			<clipPath id="SVGID_8_">
				<use xlink:href="#SVGID_7_"  style="overflow:visible;"/>
			</clipPath>
			<path class="st4" d="M813.1,265H-53v107.3h866.3C813.3,336.5,813.3,300.7,813.1,265z"/>
		</g>
		<g>
			<defs>
				<polygon id="SVGID_9_" points="705.6,196.2 427.8,35.8 367.5,1 307.2,35.8 29.4,196.2 0.1,213.1 0.1,637.4 29.4,654.3 
					310.7,816.7 367.6,849.5 424.5,816.7 705.8,654.3 735.1,637.4 735.1,213.1 				"/>
			</defs>
			<clipPath id="SVGID_10_">
				<use xlink:href="#SVGID_9_"  style="overflow:visible;"/>
			</clipPath>
			<path class="st5" d="M811.7,176.4H-53v92.8h866.1C812.9,238.2,812.2,207.3,811.7,176.4z"/>
		</g>
		<g>
			<defs>
				<polygon id="SVGID_11_" points="705.6,196.2 427.8,35.8 367.5,1 307.2,35.8 29.4,196.2 0.1,213.1 0.1,637.4 29.4,654.3 
					310.7,816.7 367.6,849.5 424.5,816.7 705.8,654.3 735.1,637.4 735.1,213.1 				"/>
			</defs>
			<clipPath id="SVGID_12_">
				<use xlink:href="#SVGID_11_"  style="overflow:visible;"/>
			</clipPath>
			<path class="st6" d="M810.8,127.9c-0.2-8.6-0.7-17.4-1.3-26.1H-53v84.3h864.8C811.5,166.7,811.3,147.3,810.8,127.9z"/>
		</g>
		<g>
			<defs>
				<polygon id="SVGID_13_" points="705.6,196.2 427.8,35.8 367.5,1 307.2,35.8 29.4,196.2 0.1,213.1 0.1,637.4 29.4,654.3 
					310.7,816.7 367.6,849.5 424.5,816.7 705.8,654.3 735.1,637.4 735.1,213.1 				"/>
			</defs>
			<clipPath id="SVGID_14_">
				<use xlink:href="#SVGID_13_"  style="overflow:visible;"/>
			</clipPath>
			<path class="st7" d="M803.1-15.7H-53v117.5h862.1C807.4,62.9,805,23.6,803.1-15.7z"/>
		</g>
	</g>
	<g>
		<polygon class="st8" points="5.1,634.5 5.8,498.8 27.3,541.1 535.6,522.5 729.9,478.7 729.9,634.5 367.5,843.7 		"/>
		<path class="st9" d="M724.9,485v146.6l-24.3,14L419.4,808l-51.9,30l-51.9-30L34.4,645.6l-24.3-14l0.5-112.2l10.7,21.1l2.9,5.7
			l6.4-0.2l504.7-18.5h0.9l0.9-0.2L724.9,485 M734.9,472l-5.1,1.6L535,517.5L30.3,536L0.9,478L0.1,637.4l29.3,16.9l281.3,162.4
			l56.9,32.8l56.9-32.8l281.3-162.4l29.3-16.9V472H734.9z"/>
	</g>
	<path class="st10" d="M58.8,289.5c0.3-0.3,0.6-0.6,0.9-0.9h-0.3C59.3,289,59.1,289.3,58.8,289.5z"/>
	<path class="st10" d="M379.5,626.3c0.3-0.3,0.6-0.6,0.9-0.9h-0.3C379.9,625.7,379.7,626,379.5,626.3z"/>
	<g class="st11">
		<path class="st12" d="M365.5,818.4l4.5,4.5c1,1,1.9,1.9,2.7,2.9l0.1,0c-0.4-1.2-0.7-2.5-1-3.8l-1.4-6.3l1.6-0.9l4.7,4.3
			c1.1,1,2.1,2,2.9,2.9l0.1,0c-0.4-1.2-0.8-2.4-1.2-3.9l-1.6-6.1l1.9-1.1l2.7,12.4l-1.7,1l-4.5-4.1c-1-1-2-1.8-2.9-2.9l0,0
			c0.5,1.4,0.8,2.7,1.1,4l1.2,5.9l-1.7,1l-9.2-8.6L365.5,818.4z"/>
		<path class="st12" d="M381.7,808.9l4.5,4.5c1,1,1.9,1.9,2.7,2.9l0.1,0c-0.4-1.2-0.7-2.5-1-3.8l-1.4-6.3l1.6-0.9l4.7,4.3
			c1.1,1,2.1,2,2.9,2.9l0.1,0c-0.4-1.2-0.8-2.4-1.2-3.9l-1.6-6.1l1.9-1.1l2.7,12.4l-1.7,1l-4.5-4.1c-1-1-2-1.8-2.9-2.9l0,0
			c0.5,1.4,0.8,2.7,1.1,4l1.2,5.9l-1.7,1l-9.2-8.6L381.7,808.9z"/>
		<path class="st12" d="M397.8,799.5l4.5,4.5c1,1,1.9,1.9,2.7,2.9l0.1,0c-0.4-1.2-0.7-2.5-1-3.8l-1.4-6.3l1.6-0.9l4.7,4.3
			c1.1,1,2.1,2,2.9,2.9l0.1,0c-0.4-1.2-0.8-2.4-1.2-3.9l-1.6-6.1l1.9-1.1l2.7,12.4l-1.7,1l-4.5-4.1c-1-1-2-1.8-2.9-2.9l0,0
			c0.5,1.4,0.8,2.7,1.1,4l1.2,5.9l-1.7,1l-9.2-8.6L397.8,799.5z"/>
		<path class="st12" d="M417.1,800.8c-0.5-0.8-0.3-1.7,0.5-2.1c0.8-0.4,1.6-0.2,2.1,0.6c0.5,0.8,0.3,1.7-0.5,2.1
			C418.4,801.9,417.6,801.6,417.1,800.8z"/>
		<path class="st12" d="M418.5,791.9c-0.7-1.2-1.4-2.3-2-3.2l1.7-1l1.3,2l0.1,0c-0.3-1.7,0.3-3.2,1.6-4c0.2-0.1,0.4-0.2,0.6-0.2
			l1,1.8c-0.2,0.1-0.4,0.2-0.7,0.3c-1.3,0.8-1.7,2.3-1.1,3.9c0.1,0.3,0.2,0.6,0.4,0.9l3.2,5.6l-1.9,1.1L418.5,791.9z"/>
		<path class="st12" d="M428.4,793.2c0.8,0,2-0.2,2.9-0.7c1.4-0.8,1.6-1.9,1.1-2.7c-0.5-0.9-1.4-1.1-3.1-0.8
			c-2.3,0.4-3.8-0.1-4.5-1.3c-1-1.7-0.4-3.9,1.8-5.2c1.1-0.6,2.2-0.9,2.9-0.8l0.3,1.7c-0.6,0-1.5,0.1-2.5,0.6
			c-1.1,0.7-1.4,1.7-0.9,2.4c0.5,0.9,1.4,0.9,3,0.6c2.2-0.4,3.7,0,4.6,1.6c1.1,1.8,0.4,4-2.1,5.4c-1.1,0.7-2.4,1-3.4,1L428.4,793.2z
			"/>
		<path class="st12" d="M432.8,775.2l1.7,3l2.7-1.6l0.8,1.4l-2.7,1.6l3.3,5.6c0.8,1.3,1.5,1.8,2.6,1.2c0.5-0.3,0.8-0.6,1-0.8
			l0.9,1.4c-0.3,0.4-0.8,0.8-1.5,1.2c-0.9,0.5-1.8,0.6-2.5,0.4c-0.9-0.2-1.6-1.1-2.3-2.3l-3.3-5.7l-1.6,0.9l-0.8-1.4l1.6-0.9
			l-1.5-2.5L432.8,775.2z"/>
		<path class="st12" d="M452.6,777.9c0.6,1.1,1.2,2,1.7,2.8l-1.7,1l-1.1-1.6l0,0c0,1.1-0.5,2.9-2.3,4c-1.6,1-4.1,1.2-6.3-2.5
			l-3.6-6.1l1.9-1.1l3.4,5.8c1.2,2,2.5,3,4.3,2c1.3-0.7,1.6-2.1,1.5-3.2c-0.1-0.3-0.2-0.7-0.4-1.1l-3.7-6.4l1.9-1.1L452.6,777.9z"/>
		<path class="st12" d="M457.5,758.3l7.4,12.6c0.5,0.9,1.2,2,1.7,2.7l-1.7,1l-1.1-1.8l0,0c0.1,1.5-0.7,3.1-2.4,4.1
			c-2.5,1.5-5.7,0.5-7.6-2.7c-2-3.5-1.1-6.9,1.4-8.3c1.6-0.9,3.1-0.8,4.1-0.2l0,0l-3.6-6.2L457.5,758.3z M460.9,768.5
			c-0.1-0.2-0.3-0.5-0.6-0.7c-1-1-2.6-1.4-4-0.6c-2,1.1-2.1,3.6-0.8,5.9c1.2,2.1,3.3,3.3,5.3,2.1c1.3-0.7,2-2.3,1.5-3.9
			c-0.1-0.3-0.2-0.6-0.4-0.9L460.9,768.5z"/>
		<path class="st12" d="M463.9,757.2c0.4,0.6,0.2,1.4-0.5,1.9c-0.7,0.4-1.4,0.1-1.8-0.5c-0.4-0.7-0.2-1.5,0.5-1.9
			C462.7,756.2,463.5,756.5,463.9,757.2z M469.6,771.8l-6.1-10.5l1.9-1.1l6.1,10.5L469.6,771.8z"/>
		<path class="st12" d="M481,758c2.3,3.9,0.6,7.1-2,8.6c-2.8,1.6-6.2,0.8-8.1-2.5c-2-3.5-0.9-6.9,2-8.6
			C475.8,753.8,479.1,754.8,481,758z M472.8,762.9c1.3,2.3,3.7,3.2,5.5,2.2c1.8-1.1,2.2-3.6,0.8-5.9c-1-1.8-3.2-3.5-5.5-2.2
			S471.6,761,472.8,762.9z"/>
		<path class="st12" d="M484.9,761.4c-0.5-0.8-0.3-1.7,0.5-2.1c0.8-0.4,1.6-0.2,2.1,0.6c0.5,0.8,0.3,1.7-0.5,2.1
			C486.2,762.4,485.3,762.1,484.9,761.4z"/>
		<path class="st12" d="M497.7,754.9c-0.3,0.5-1.2,1.5-2.7,2.4c-3.2,1.8-6.5,0.9-8.3-2.3c-1.9-3.2-1-6.8,2.4-8.8
			c1.1-0.7,2.3-1,2.9-1l0.4,1.7c-0.6,0-1.5,0.2-2.5,0.8c-2.4,1.4-2.7,3.9-1.4,6.1c1.4,2.4,3.8,3,5.9,1.8c1.1-0.6,1.6-1.3,2-1.9
			L497.7,754.9z"/>
		<path class="st12" d="M506.4,743.2c2.3,3.9,0.6,7.1-2,8.6c-2.8,1.6-6.2,0.8-8.1-2.5c-2-3.5-0.9-6.9,2-8.6
			C501.2,739,504.5,740,506.4,743.2z M498.1,748.2c1.3,2.3,3.7,3.2,5.5,2.2c1.8-1.1,2.2-3.6,0.8-5.9c-1-1.8-3.2-3.5-5.5-2.2
			C496.7,743.6,497,746.2,498.1,748.2z"/>
		<path class="st12" d="M507.4,739.5c-0.6-1.1-1.2-2-1.7-2.8l1.7-1l1.1,1.6l0.1,0c0-1.3,0.4-2.8,2.2-3.8c1.4-0.8,3-0.6,4.2,0.4l0,0
			c0-0.8,0.1-1.5,0.4-2c0.3-0.8,0.9-1.5,1.9-2.1c1.4-0.8,4-1.1,6.1,2.5l3.6,6.2l-1.9,1.1l-3.4-5.9c-1.2-2-2.6-2.8-4.1-1.9
			c-1.1,0.6-1.5,1.9-1.2,3c0.1,0.3,0.2,0.7,0.4,1l3.8,6.5l-1.9,1.1l-3.6-6.3c-1-1.7-2.4-2.4-3.9-1.6c-1.2,0.7-1.5,2.1-1.2,3.3
			c0.1,0.3,0.2,0.7,0.4,1l3.7,6.3l-1.9,1.1L507.4,739.5z"/>
	</g>
	<g id="Layer_2_1_">
	</g>
	<g class="st13">
		<g class="st14">
			<g>
				<g>
					<defs>
						<polygon id="SVGID_15_" points="-156.3,-2254.4 -494.4,-2059.2 -832.5,-2254.4 -832.5,-2644.8 -494.4,-2840 -494.4,-2840 
							-156.3,-2644.8 -156.3,-2254.4 						"/>
					</defs>
					<clipPath id="SVGID_16_">
						<use xlink:href="#SVGID_15_"  style="overflow:visible;"/>
					</clipPath>
				</g>
			</g>
			<g>
				<g>
					<defs>
						<polygon id="SVGID_17_" points="-156.3,-2254.4 -494.4,-2059.2 -832.5,-2254.4 -832.5,-2644.8 -494.4,-2840 -494.4,-2840 
							-156.3,-2644.8 -156.3,-2254.4 						"/>
					</defs>
					<clipPath id="SVGID_18_">
						<use xlink:href="#SVGID_17_"  style="overflow:visible;"/>
					</clipPath>
					<g class="st15">
						<g>
							<defs>
								<polygon id="SVGID_19_" points="-650.5,-2470.7 -342.9,-2470.7 6236,1710.6 -7229.5,1710.6 								"/>
							</defs>
							<clipPath id="SVGID_20_">
								<use xlink:href="#SVGID_19_"  style="overflow:visible;"/>
							</clipPath>
							<polyline class="st16" points="17873.9,14163 17873.9,14163 -14894.1,-18605 -14894.1,-18605 17873.9,14163 							"/>
						</g>
						<g>
							<defs>
								<polygon id="SVGID_21_" points="-650.5,-2470.7 -342.9,-2470.7 6236,1710.6 -7229.5,1710.6 								"/>
							</defs>
							<clipPath id="SVGID_22_">
								<use xlink:href="#SVGID_21_"  style="overflow:visible;"/>
							</clipPath>
							<polyline class="st17" points="-14894.1,14163 -14894.1,14163 17873.9,-18605 17873.9,-18605 -14894.1,14163 							"/>
						</g>
					</g>
				</g>
			</g>
			<g>
				<g>
					<defs>
						<polygon id="SVGID_23_" points="-156.3,-2254.4 -494.4,-2059.2 -832.5,-2254.4 -832.5,-2644.8 -494.4,-2840 -494.4,-2840 
							-156.3,-2644.8 -156.3,-2254.4 						"/>
					</defs>
					<clipPath id="SVGID_24_">
						<use xlink:href="#SVGID_23_"  style="overflow:visible;"/>
					</clipPath>
				</g>
			</g>
		</g>
		<g>
			<g>
				<g>
					<defs>
						<polygon id="SVGID_25_" points="-157.8,-2255.9 -496,-2060.7 -834.1,-2255.9 -834.1,-2646.3 -496,-2841.5 -496,-2841.5 
							-157.9,-2646.3 -157.9,-2255.9 						"/>
					</defs>
					<clipPath id="SVGID_26_">
						<use xlink:href="#SVGID_25_"  style="overflow:visible;"/>
					</clipPath>
				</g>
			</g>
			<g>
				<g>
					<defs>
						<polygon id="SVGID_27_" points="-157.8,-2255.9 -496,-2060.7 -834.1,-2255.9 -834.1,-2646.3 -496,-2841.5 -496,-2841.5 
							-157.9,-2646.3 -157.9,-2255.9 						"/>
					</defs>
					<clipPath id="SVGID_28_">
						<use xlink:href="#SVGID_27_"  style="overflow:visible;"/>
					</clipPath>
					<g class="st18">
						<g>
							<g class="st11">
								<g>
									<defs>
										<polygon id="SVGID_29_" points="-652,-2472.2 -344.4,-2472.2 6234.5,1709.1 -7231,1709.1 										"/>
									</defs>
									<clipPath id="SVGID_30_">
										<use xlink:href="#SVGID_29_"  style="overflow:visible;"/>
									</clipPath>
									<g class="st19">
										<g>
											<g>
												<g>
													<polyline class="st20" points="17872.4,14161.5 17872.4,14161.5 -14895.6,-18606.5 -14895.6,-18606.5 17872.4,14161.5 
																											"/>
													<polyline class="st20" points="-14895.6,14161.5 -14895.6,14161.5 17872.4,-18606.5 17872.4,-18606.5 
														-14895.6,14161.5 													"/>
												</g>
											</g>
										</g>
									</g>
								</g>
							</g>
						</g>
					</g>
				</g>
			</g>
			<g>
				<g>
					<defs>
						<polygon id="SVGID_31_" points="-157.8,-2255.9 -496,-2060.7 -834.1,-2255.9 -834.1,-2646.3 -496,-2841.5 -496,-2841.5 
							-157.9,-2646.3 -157.9,-2255.9 						"/>
					</defs>
					<clipPath id="SVGID_32_">
						<use xlink:href="#SVGID_31_"  style="overflow:visible;"/>
					</clipPath>
				</g>
			</g>
		</g>
	</g>
	<g>
		<g>
			<g>
				<defs>
					<polygon id="SVGID_33_" points="376,-958 734.7,-750.9 734.7,-328.7 376,-120.3 9.3,-328.7 9.3,-750.9 					"/>
				</defs>
				<clipPath id="SVGID_34_">
					<use xlink:href="#SVGID_33_"  style="overflow:visible;"/>
				</clipPath>
				<g id="r2_1_" class="st21">
					<g>
						<g>
							<defs>
								<path id="SVGID_35_" d="M689.3-424.8H56.4v691.2h632.9L689.3-424.8L689.3-424.8z M291.7,220.2h-98.2v-81.6h98.2V220.2z
									 M424.6,220.2h-98.3v-81.6h98.3L424.6,220.2L424.6,220.2z M424.6,54.2h-98.3V-83.4h98.3L424.6,54.2L424.6,54.2z"/>
							</defs>
							<clipPath id="SVGID_36_">
								<use xlink:href="#SVGID_35_"  style="overflow:visible;"/>
							</clipPath>
							<g class="st22">
								<path class="st23" d="M-59.6,18.6c-1.2,0-2.4,0-3.6,0c-0.5-5.8,1.1-10.9,3.5-15.9c2.4,0,4.7,0,7.1,0c8.8-3.1-0.1-9.4,2-13.8
									c4.1-7.2,9.7-4.3,15.1-2.8c1.4,0.5,2.6,1.3,3.8,2.1c6,2,2.6-4.4,4.3-6.2c0.4-1.7,1-3.3,1.8-4.8c5.2-6.6,3.3-15.5,6.3-22.9
									c2.1-4.2,4.1-8.6,9.5-7.9c6.4,8.6,2,26.8,18.9,25.9c-1,12.7,8.5,10.2,14.7,12.6c2.4,0.9,3.2,3.6,2.4,6.5
									C16.8-8.9,17.1,8.7,5.9,4.9c1.5,0.9,3.2-0.3,4.6,0.7c4.1,2.9,4.5,7.3,4,12.1c-1.1,5.1-4.1,8.2-8.3,10
									c-3.4,1.1-6.3,0-8.8-2.5c-3.1-8.4-5.7,2.9-8.6,0.3c-5.6,3.3-13.1-14.1-17.6,2c-1.7,2.1-3.8,3.5-6.2,4.1
									c-2.8-0.2-4.5-2-5.7-4.6c1.1-13.6-5.5-1.6-8.1-3C-52.7,23.1-56.7,22.1-59.6,18.6z"/>
								<path class="st24" d="M11.6,18.6C13-1.5-2.1,15.8-7.2,7.6C-1.5-1.1,7.7,5,14.7,1.8C13.2-4.3,4.1,1.2,4.1-7.4
									c6.9-3.7,14.5-0.8,21.7-1.8c1.9-4,1.8-10.3,8.3-8.7c10,6.8,12.2,17,10.4,29c-1.1,1.7-2.5,3.1-4.1,4.2
									C31.1,20.2,22.1,28,11.6,18.6z"/>
								<path class="st25" d="M54.4,6.7c-5.3-4.4-7.5,1.5-10.8,3.9C39.5,1.6,40-9.6,33-17.2c-1.6-3.2-4.2-3.9-7.1-3.9
									c-1-3.4,0.8-5.3,3.1-6.8c4.5-2.7,11.5-0.3,13-9.3c1-6.1,5.6-4.8,9.5-2.7c7.9,9.4,15.2,20.2,29.1,17
									c7.2,4.2,13.9,9.1,16.6,18.4c2.6,24.5-0.3,26.7-22.3,17.6c-3.5-1-7.1-0.9-10.7-1.3C60.4,11.3,57,10,54.4,6.7z"/>
								<path class="st26" d="M54.4,6.7c3.5,0,7.1,0,10.6,0c3,4,2.6,7.9,0,11.9C58.8,17.5,47.5,22.2,54.4,6.7z"/>
								<path class="st27" d="M65,18.6c0-4,0-7.9,0-11.9c3.6,0,7.1,0,10.7,0c-2.4,3.9-4.7,7.9-7.1,11.8C67.3,18.6,66.2,18.6,65,18.6
									z"/>
								<path class="st28" d="M210.8,2.7c3.8-0.9,7.6-1.8,11.6-2.7c2.1,11.9-10.5,13.5-11.6,22.5c-9.8,3.6-15.2,0.5-14.2-12
									c-5.7-8.2-18.5-14.1-7.1-27.8C207.3-14.4,207.3-14.4,210.8,2.7z"/>
								<path class="st29" d="M171.7,26.5c-2.1-0.4-4.6,0-5.4-3.3c7.2,1.8,10.8-14.8,19.7-4.7c0.7,3.9,8.5,4.7,4.3,10.5
									c-2.2,3-5.4,3.5-9,0.3C178.9,27.3,174.9,27.4,171.7,26.5z"/>
								<path class="st30" d="M189.5-21.1c2.8-1.7,3.5-4.6,3.6-7.8c5.9,2.6,11.8,5.2,17.8,7.9c3.9,5.3,3.2,10.6,0,15.9
									c0,2.6,0,5.3,0,7.9c-8.2,3.6-7.6-1.3-5.6-7.3c1.1-3.2,2.2-7-1-8.6c-4.8-2.4-3,3.3-4.3,5.3c-4.6,6.8-3.2-1.3-3.3-2.1
									c-0.5-4.9-3.3-6.5-7.1-7C189.5-18.5,189.5-19.8,189.5-21.1z"/>
								<path class="st31" d="M150.3,30.5c-1.2-1.4-2.3-2.7-3.5-4.1c1.5-2.4,2.7-7.3,6-4C155.2,24.9,153.1,28.5,150.3,30.5z"/>
								<path class="st32" d="M250,14.6c6.1,19.8-8.8,8.8-14.1,11.8c-5.8-14.1,7.9-6.8,10.4-11.8C247.6,14.6,248.8,14.6,250,14.6z"
									/>
								<path class="st33" d="M244.4,10.9c-12.1-4-13.5-10.2-12.3-18.6C235.2-2.9,238.4,1.9,244.4,10.9z"/>
								<path class="st34" d="M246.4,14.6c-2.3,5.2-11.3,3.1-10.4,11.8c-2.6,4.6-6.9,4-10.9,4.1C230,21.6,234.5,11.9,246.4,14.6z"/>
								<path class="st35" d="M282-25c5.9-4,11.9-7.9,17.8-11.9c3.9-0.1,8.1,0.6,10.7-4c5.5-1.2,5,2.9,5,6.8
									c-11,7.8-2.2,16-0.4,24.1c0.5,2.1,0.8,4.2,0.4,6.2c0.1-0.3-0.3,0.5-0.3,0.5s0.3-0.8,0.4-1c0.5-6.4-1.8-11.9-3.3-17.6
									c-0.4-2.8,0.1-5.3,1.2-7.8c5.9-9.3-2.4-17.9-1-27c-1.2-2.8-1.4-5.7-1-8.7c2-8.7,2.7-18.4,12.3-21.7
									c16.7,0.9,5.8,17.2,11,24.5c1.2,4.5,2.8,8.9,1.9,13.7c-1.5,3.4-4,5.2-7.3,5.4c-1.3-0.2-3.4-1.5-3.5,1.1
									c-0.1,2.8,2.4,3.5,4.4,4.2c7.9,4.6,10-5.3,15.2-7.4c1.6-0.4,3.2-0.2,4.7,0.7c4.8,6.9,13.4,10.3,15.1,20.1
									c0,2.9-1.2,5.1-2.9,7.1c-9.1,8.5-5.5,23.6-13.8,32.5c-1.3,1-2.7,1.6-4.3,1.7c-2.5-1.6-5-1.6-7.4,0.3
									c-6.3,0.5-6.4-4.8-7.1-9.3c-0.3,0.9,0.3,1.4,0.3,2.1c-0.2,3.1,0.9,6.2-0.5,9.2c-7.4,8.2-17.8,3.7-26.1,7.8
									c-0.5-2.3,0.1-5.7-3.6-4.9c-2.7,0.6-3.3,7-6.1,4.5c-2.3-2-3.8-7.7-1.2-10.7c5.3-6.3,3.1-13.6,3.7-20.6
									c-2.2-8.1-8.2-12-14.2-15.9c-0.9-0.9-1.2-1.8-0.9-2.6C281.4-24.6,281.7-25,282-25z"/>
								<path class="st36" d="M342.5,34.4c-11.5-5-23.1-9.3-35.5-3.8c-1.2-1.4-2.4-2.7-3.5-4.1c5.1-14.9,16.5-5.5,24.8-7.9
									c2.7-4.2,7.8,0,10.6-3.9c1.2-2.6,2.4-2.7,3.6,0C348.2,21.2,352.2,27.8,342.5,34.4z"/>
								<path class="st37" d="M283,18.8c4.9-15.4-14.2-16.3-14.5-33.3C277.9-3.1,293,0.3,283,18.8z"/>
								<path class="st36" d="M360.3-21.1c-1.2,5.3-2.3,10.7-3.5,16c2.1,2.6,2.1,5.2,0,7.7c-0.4,7.5-3.9,11.6-10.7,12
									C353,3.8,346.7-13.5,360.3-21.1z"/>
								<path class="st38" d="M314-1.2c-0.7,4.3-0.5,9.5-6.3,9c-1.1-0.1-3-2.7-2.9-4C305.3-3.1,310.5-0.5,314-1.2L314-1.2z"/>
								<path class="st36" d="M340.7-12.1c2,7.6,5.1,11.1,2.1,19C338.4,1.1,338.6-3.7,340.7-12.1z"/>
								<path class="st39" d="M338.9,14.7c-2.6,4.6-6.8,3.7-10.6,3.9c0-4-0.1-8-0.1-12c-0.8-0.9-1.1-1.8-0.8-2.6
									c0.3-0.8,0.6-1.2,0.9-1.2C332.9,5.7,331.3,15.2,338.9,14.7z"/>
								<path class="st40" d="M328.4,2.8c-0.1,1.3-0.1,2.5-0.2,3.8c-3.6-0.6-7-1.5-6.2-6.8c0.2-1.3,2.2-2.2,3.3-3.2
									C326.3-1.3,327.3,0.7,328.4,2.8z"/>
								<path class="st41" d="M367.4-28.8c2.8-2.2,7.8-4.4,7.8-6.6c0-4.8-4.7-6-7.6-3.3c-9.3,8.6-9.8-12.5-18-6.1c0-2.6,0-5.3,0-7.9
									c-4.6-8.7-5.5-18-3.6-27.7v-0.1c5.6-13.3,4.1-31.4,20.5-37.3c3.7-0.6,6.7,1,9.5,3.5c3.9,4.1,6,9.4,5.8,15.1
									c-0.2,7.1,4.2,5.8,7.8,6.3c5.5,4.4,15.8,2.9,14.8,15.2c-1.2,2.5-3.2,3.5-5.6,3.6c-6.4,2.8-0.3,5.8,0.3,8.2
									c1.4,5.3,6.8,9.5,3.3,16.1c-0.9,1.4-1.9,2.7-3,3.9c-2.2,2.2-4.4,4.5-6.9,6.4c-2.4,1.6-4.3,3.7-5,6.9
									c-0.6,3.1-1.7,5.9-2.5,8.9c-0.9,4.9,0.7,9.5,0.9,14.3c0.3,6.3,0.5,12.6-0.2,18.9c-1.2,4.2-1.5,10-7,9
									c-5.1-0.9-4.9-5.9-4.7-10.7c0.6-11.6,0-23.1-6.8-32.9C367.4-26.3,367.4-27.6,367.4-28.8z"/>
								<path class="st42" d="M356.8,2.6c0-2.6,0-5.2,0-7.7c4.7-2.7,7.4-1.6,6.9,4.8C363.3,6.2,359.9,3.9,356.8,2.6z"/>
								<path class="st43" d="M392.3,14.7c-4.1-2.8-3.3-7.9-4.1-13.2c-2.6,3.7-4.6,6.5-6.5,9.2c0-7.9,0-15.9,0-23.8
									c3.2-2.7,3.8-8.1,7.9-10c2.5-0.8,4.9-0.7,7.2,0.6c5.7,5.1,7.4,11.1,3.7,18.5c3.6-1.3,5.3-9.4,11.2-4.9
									c9.1,13.4,4.9,22.8-7.3,29.7C399.3,21.5,395.3,19.3,392.3,14.7z"/>
								<path class="st44" d="M431.5-36.8c4.9-0.7,10.4,1.6,14.2-4c7.8-4.8,9.7,1.5,9.3,7.5c-0.8,10.7,3.2,20.3,4,30.5
									c0.6,7.1-8.8,2.5-8.7,9.2c-4.5,11.1-7.3,25.8-22.5,12.2c2.8-13.3,5.1-26.9,17.4-34.6c-6.2-6.8-11.1,1.6-17.2-2.6
									C430.8-23.9,432.1-30.2,431.5-36.8z"/>
								<path class="st45" d="M456.4,14.7c-0.1,3.2-0.7,6.1-3.5,7.8c-7,4.4-11.8,13.7-22.2,9.8c-9.1-3.3-9.8-7.2-2.8-13.8
									c15.4,8.6,14.2-10.8,21.4-15.9C452.9,5.8,455.1,9.9,456.4,14.7z"/>
								<path class="st46" d="M516.9,6.7c-1.4,6.8,4,17.2-6.4,19.1c-4.6,0.9-12.4,10.2-15-3.3c-1.3-4.2-4-10.2,3.1-9.5
									c14.4,1.5,9.1-7.6,3.7-10.4c-10.2-5.3-15.4-19.2-28.1-19.7c-14.9,0.9-19.9-10.7-12.5-28.9c5.4-6,14.1-0.7,19.5-6.8
									c2.4,0,4.8,0,7.2-0.1c3.7,14.2,3.7,14.2,17.8,3.9c1.1-3.7,3.2-5.7,6.9-5.1c1.3,0.9,2.4,2.1,3.3,3.5c1.2,2.2,1.9,4.6,2.2,7.2
									c0.1,1.7-0.1,3.3-0.5,4.9c-1.1,3.7-2.6,7.3-2,11.4c0.3,1.5,0.5,3.1,0.7,4.6c0.5,3.9,1.2,7.8,2.9,11.3c1.1,2.2,2,4.5,2.4,6.9
									C522.2,0.6,520.1,4,516.9,6.7z"/>
								<path class="st47" d="M456.5-1.3c2.3-1.3,4.6-2.6,7-3.9c0,3.9,0,7.9,0,11.8c-2.4,2.7-4.7,5.4-7.1,8.1c-7.1-0.6-7-6.4-7.1-12
									C448-7,455.6,3.3,456.5-1.3z"/>
								<path class="st47" d="M474.1,34.4c-1.2-1.3-2.4-2.6-3.6-4c-0.6-2.9-3.1-8.4,0.1-8.1C477.3,23,472.9,30.2,474.1,34.4z"/>
								<path class="st48" d="M684.2,14.6c-1.4,7.2,4.8,20.7-10.8,15.9c-3.3,0.4-6-0.8-8.4-3.3c-2.6-4-5.1-8.2-6.9-12.8
									c1.5-4.9-0.6-9.3-1.7-13.8c0-2.9,0.9-5.4,2.8-7.5c3.9-2.8,8.2-3.1,12.6-2.2c5.5,1.5,8.5,6,11,11.2c1.2,2.4,2.1,4.9,2.7,7.6
									C685.8,11.6,685.4,13.2,684.2,14.6z"/>
								<path class="st49" d="M701.9,10.6c0,2.7,0,5.3,0,8c-7.2,5.7-11.3-5.1-17.6-4c0-1.3-0.1-2.6,0-3.9
									C690.1,3.2,696,0.1,701.9,10.6z"/>
								<path class="st50" d="M516.9,6.7c1.2-4,2.4-7.9,3.6-11.9c1.2-1,2.6-1.3,4-1c3.7,2.6,7.6,4.5,11.8,5.7
									c1.4,0.6,2.7,1.5,3.8,2.6c1,1.3,1.5,2.9,1.7,4.6c1.4,12.5-4.4,19.6-14.1,23.8C522.3,23.5,526.7,11.1,516.9,6.7z"/>
								<path class="st51" d="M541.7,6.8c-1.2-1.3-2.3-2.7-3.5-4c-1.9-5-7-8.9-3.8-15.5c15.4-11,29.5-8,35.8,7.5
									c-1.2,1.3-2.4,2.6-3.6,4c-4.5-4.5-9.6-11.9-13.5-0.1C550.9,5.5,547.2,7,541.7,6.8z"/>
								<path class="st52" d="M573.8,22.5c0.4-3-0.3-9.1,2.1-8.4c7.8,2.2,4.1,10.4,5,16.3C576.2,30.3,573.9,27.6,573.8,22.5z"/>
								<path class="st53" d="M516.9-40.9c2.4,4,4.7,8,7.1,11.9c0.9,0.9,1.2,1.7,0.9,2.6s-0.6,1.3-0.9,1.3
									c0.7,7.6,6.8,10.8,10.6,15.8c0.5,4.2,10.7,4.8,3.6,11.9l0,0C534-1,526.5,2.3,524-5.2c-1.2,0-2.4,0-3.6,0
									c-1.2-1.3-2.4-2.6-3.6-3.9c-0.2-5.6,1.2-11.6-3.5-15.9l-0.1-0.1c-1-5.8,2-10.6,3.5-15.7L516.9-40.9z"/>
								<path class="st54" d="M655.6,30.5c-4.7-2.6-9.4-5.2-14.1-7.9c-4.1-2.9-3.5-7.6-3.6-12c2.8-3.4,5.8-6.3,10.3-5.6
									c4.9,1.4,8.2,5.2,11,9.6c7.1,0.4,7.2,6.1,7.1,11.9C662.4,26.6,658.2,25.9,655.6,30.5z"/>
								<path class="st54" d="M655.6-17.2c-3.5,2.7-3.5,5.4,0.1,8c1,1.5,3.4,1.5,3.6,4c0,2.6,0,5.3,0,7.9c-2.5,2.5-5.2,2.4-8,0.9
									c-3.2-3-5-6.9-5.9-11.4c-0.5-6-0.7-12.2,5.5-14.6C653.7-23.5,656.4-21.7,655.6-17.2z"/>
								<path class="st55" d="M652.1,2.8c2.4,0,4.7,0,7.1,0c11.1,4,2.3,7.9,0,11.9c-5.1,0-8.7-2.7-10.7-7.9
									C648.9,4.5,650.1,3.2,652.1,2.8z"/>
								<path class="st56" d="M616.5-5.1c-3.7,14.1-14.3,5.2-21.4,7.9c-4.7,0-9.5,0-14.2,0c-2.1-2.4-2.4-5.1-1.2-8.1
									c7.1-4.7,12-13.7,21.5-13.8C607-15.3,614-13.2,616.5-5.1z"/>
								<path class="st51" d="M580.9-5.2c0,2.6,0,5.3,0,7.9c-7.7,4.3-10.2-0.2-10.6-7.9c2.9-0.1,5.5-0.8,7.1-4
									C580.6-10.1,581.8-8.8,580.9-5.2z"/>
								<path class="st51" d="M524-5.2c4.7,2.6,9.5,5.3,14.2,7.9C532.6,2,525.2,5.4,524-5.2z"/>
								<path class="st48" d="M637.8,6.7c2.4-2.7,4.8-5.3,7.1-8c-0.9-3.6,0.3-4.9,3.6-4c2.8,1.8,3.5,4.7,3.6,8
									c-1.2,1.3-2.4,2.6-3.6,3.9c-3.6,1.3-7.1,2.6-10.7,4C637.8,9.3,637.8,8,637.8,6.7z"/>
							</g>
						</g>
					</g>
					<g>
						<g>
							<defs>
								<path id="SVGID_37_" d="M638.9-465.3v-101.9h46c-7.2-48.5-23.8-93.5-47.7-132.9l-234.8,2.9v-15.5h226.8
									c-1.8-2.7-3.6-5.3-5.5-8H402.4v-12.6h212c-2.1-2.7-4.2-5.3-6.4-8H402.4v-12.6H597c-2.6-2.9-5.3-5.7-8.1-8.5H402.4v-52.5
									h119.1c-44.2-25.5-94.6-40.1-148.2-40.1s-104,14.6-148.2,40.1H372v52.5H157.7c-2.7,2.8-5.4,5.6-8.1,8.5H372v12.6H138.7
									c-2.2,2.6-4.3,5.3-6.4,8H372v12.6H123c-1.9,2.6-3.7,5.3-5.5,8H372v15.5L109.4-700C85.6-660.6,69-615.6,61.7-567.1h46.1
									v101.9H57.4c0,10.2,0,18.1,0,18.1l631.9-1c0,0,0-7.4,0.1-17.1h-50.5V-465.3z M156.9-465.3h-31.1v-99h31.1V-465.3z
									 M224.6-465.3h-49.1v-99h49.1V-465.3z M306.6-465.3h-49.1v-49.2h49.1V-465.3z M442.5-465.3h-102v-49.2h102V-465.3z
									 M440.9-543.6l-147.1-3.5l37.4-111.1l118.8-1.4c0,0,15.6,26.9,15.6,55.2C465.7-576.2,440.9-543.6,440.9-543.6z M505.8-484.5
									c-13.2,0-23.9-10.7-23.9-23.8c0-13.2,10.7-23.9,23.9-23.9c13.2,0,23.9,10.7,23.9,23.9C529.7-495.2,519-484.5,505.8-484.5z
									 M605.4-465.3h-49.1v-99h49.1V-465.3z"/>
							</defs>
							<clipPath id="SVGID_38_">
								<use xlink:href="#SVGID_37_"  style="overflow:visible;"/>
							</clipPath>
							<g class="st57">
								<g>
									<path class="st28" d="M114.2,4.8c5-1.2,10-2.3,15.3-3.5C132.2,17,115.7,19,114.2,31c-13,4.7-20,0.7-18.7-15.7
										C88.1,4.4,71.1-3.4,86.2-21.3C109.6-17.7,109.6-17.7,114.2,4.8z"/>
									<path class="st29" d="M62.7,36.1c-2.8-0.6-6.1,0-7.1-4.3c9.5,2.4,14.3-19.5,25.8-6.2c0.9,5.2,11.2,6.1,5.7,13.8
										c-2.9,4-7.1,4.6-11.8,0.4C72.2,37.1,67,37.3,62.7,36.1z"/>
									<path class="st30" d="M86.1-26.6c3.7-2.2,4.5-6.1,4.8-10.3c7.8,3.4,15.6,6.9,23.4,10.3c5.1,7,4.2,13.9,0,20.9
										c0,3.5,0,6.9,0,10.4c-10.8,4.7-10-1.7-7.3-9.6c1.4-4.2,2.9-9.3-1.3-11.4c-6.3-3.1-3.9,4.4-5.7,7c-6.1,9-4.2-1.7-4.4-2.8
										c-0.7-6.4-4.3-8.6-9.3-9.3C86.2-23.1,86.2-24.8,86.1-26.6z"/>
									<path class="st31" d="M34.6,41.4c-1.5-1.8-3.1-3.6-4.6-5.4c1.9-3.2,3.5-9.5,7.8-5.2C41,34,38.3,38.7,34.6,41.4z"/>
									<path class="st32" d="M165.7,20.4c8,26.1-11.5,11.5-18.5,15.5c-7.6-18.6,10.4-9,13.7-15.5
										C162.5,20.5,164.1,20.5,165.7,20.4z"/>
									<path class="st33" d="M158.3,15.5c-15.9-5.2-17.8-13.4-16.2-24.4C146.3-2.6,150.5,3.7,158.3,15.5z"/>
									<path class="st34" d="M161,20.5c-3.1,6.8-14.9,4-13.7,15.5c-3.5,6.1-9,5.3-14.3,5.4C139.4,29.6,145.3,16.9,161,20.5z"/>
									<path class="st35" d="M207.9-31.7c7.8-5.2,15.6-10.5,23.4-15.7c5.1-0.1,10.6,0.8,14-5.2c7.2-1.6,6.6,3.9,6.6,8.9
										c-14.4,10.2-2.9,21.1-0.6,31.7c0.7,2.8,1.1,5.6,0.5,8.1c0.1-0.3-0.4,0.7-0.4,0.7s0.4-1,0.5-1.3c0.6-8.4-2.4-15.7-4.4-23.2
										c-0.5-3.6,0.1-7,1.6-10.2c7.8-12.2-3.1-23.6-1.3-35.6c-1.6-3.6-1.8-7.5-1.3-11.4c2.7-11.4,3.5-24.2,16.2-28.6
										c22,1.1,7.7,22.6,14.5,32.2c1.6,5.9,3.7,11.7,2.5,18.1c-2,4.4-5.2,6.9-9.7,7.1c-1.7-0.3-4.5-2-4.6,1.4
										c-0.2,3.7,3.1,4.6,5.8,5.6c10.3,6.1,13.2-7,20-9.7c2.1-0.6,4.2-0.2,6.1,0.9c6.3,9.1,17.6,13.5,19.9,26.4
										c-0.1,3.8-1.6,6.7-3.9,9.4C301.4-11,306.1,9,295.2,20.6c-1.7,1.3-3.6,2.1-5.6,2.3c-3.3-2.1-6.5-2.1-9.7,0.4
										c-8.3,0.6-8.4-6.3-9.4-12.3c-0.4,1.1,0.4,1.8,0.4,2.8c-0.2,4.1,1.2,8.2-0.6,12.2c-9.7,10.8-23.4,4.9-34.4,10.3
										c-0.6-3,0.2-7.5-4.7-6.5c-3.5,0.8-4.3,9.2-8,5.9c-3-2.6-5-10.1-1.6-14.1c7-8.3,4.1-17.9,4.9-27.1
										c-3-10.6-10.8-15.7-18.7-20.9c-1.2-1.2-1.6-2.3-1.2-3.5C207-31.1,207.4-31.7,207.9-31.7z"/>
									<path class="st36" d="M287.4,46.5c-15.2-6.6-30.4-12.2-46.7-5c-1.5-1.8-3.1-3.6-4.6-5.4c6.7-19.7,21.7-7.2,32.7-10.4
										c3.6-5.5,10.3-0.1,14-5.1c1.6-3.4,3.2-3.6,4.8-0.1C294.9,29.1,300.1,37.8,287.4,46.5z"/>
									<path class="st37" d="M209.1,26c6.4-20.3-18.6-21.5-19.1-43.8C202.4-2.8,222.2,1.6,209.1,26z"/>
									<path class="st36" d="M310.8-26.5c-1.5,7-3,14-4.5,21c2.8,3.4,2.8,6.8,0,10.2c-0.5,9.9-5.1,15.3-14.1,15.8
										C301.1,6.2,293-16.6,310.8-26.5z"/>
									<path class="st38" d="M249.9-0.3c-0.9,5.6-0.6,12.5-8.2,11.8c-1.5-0.1-4-3.5-3.9-5.3C238.5-2.8,245.2,0.6,249.9-0.3
										L249.9-0.3z"/>
									<path class="st36" d="M285-14.7c2.6,10,6.8,14.7,2.7,25.1C282,2.6,282.2-3.7,285-14.7z"/>
									<path class="st39" d="M282.6,20.5c-3.4,6.1-8.9,4.9-14,5.1c0-5.2-0.1-10.5-0.1-15.7c-1.1-1.2-1.4-2.3-1-3.4
										s0.8-1.6,1.2-1.6C274.7,8.7,272.6,21.3,282.6,20.5z"/>
									<path class="st40" d="M268.8,4.9c-0.1,1.7-0.2,3.3-0.2,5c-4.7-0.8-9.3-2-8.2-8.9c0.3-1.7,2.8-2.9,4.4-4.3
										C266.1-0.5,267.4,2.2,268.8,4.9z"/>
									<path class="st41" d="M320.2-36.7c3.6-2.9,10.2-5.7,10.2-8.7c0.1-6.3-6.2-7.9-10-4.3c-12.2,11.3-12.9-16.4-23.7-8.1
										c0-3.5,0-6.9,0-10.4c-6.1-11.4-7.2-23.7-4.7-36.5v-0.1c7.4-17.4,5.4-41.2,26.9-49.1c4.8-0.8,8.8,1.3,12.5,4.6
										c5.2,5.4,7.9,12.3,7.7,19.9c-0.3,9.4,5.5,7.6,10.3,8.3c7.2,5.8,20.8,3.8,19.4,20c-1.6,3.3-4.2,4.6-7.3,4.8
										c-8.4,3.6-0.5,7.7,0.4,10.8c1.9,7,9,12.5,4.3,21.2c-1.1,1.9-2.5,3.6-4,5.1c-2.9,2.9-5.8,5.9-9,8.5
										c-3.2,2.1-5.7,4.8-6.6,9.1c-0.8,4-2.2,7.8-3.2,11.7c-1.2,6.4,0.9,12.5,1.2,18.8c0.4,8.3,0.7,16.6-0.2,24.8
										c-1.5,5.5-1.9,13.1-9.1,11.9c-6.8-1.1-6.4-7.8-6.1-14.1c0.7-15.3,0.1-30.4-8.9-43.3C320.2-33.4,320.2-35.1,320.2-36.7z"/>
									<path class="st42" d="M306.2,4.7c0-3.4,0-6.8,0-10.2c6.2-3.5,9.7-2.2,9.1,6.4C314.8,9.3,310.2,6.3,306.2,4.7z"/>
									<path class="st43" d="M352.9,20.5c-5.4-3.7-4.3-10.4-5.4-17.4c-3.4,4.9-6,8.5-8.6,12.1c0-10.5,0-20.9,0-31.4
										c4.2-3.6,5-10.7,10.4-13.1c3.3-1.1,6.4-0.9,9.5,0.8c7.5,6.7,9.8,14.7,4.8,24.3c4.7-1.7,6.9-12.3,14.8-6.5
										c12,17.7,6.4,29.9-9.6,39C362.1,29.5,356.8,26.6,352.9,20.5z"/>
									<path class="st58" d="M380.8-26.4c-1.5,5.1-3,10.3-4.6,15.4c-4,3.7-8,7.3-12.5,11.4c-2.4-9.1-1-19-6.3-26.8
										C365.3-47.2,373-33.5,380.8-26.4z"/>
									<path class="st44" d="M404.5-47.2c6.4-0.9,13.7,2.1,18.7-5.3c10.3-6.3,12.8,1.9,12.2,9.9c-1,14,4.2,26.7,5.2,40.1
										c0.7,9.4-11.6,3.3-11.4,12.1c-5.9,14.6-9.6,33.9-29.6,16c3.7-17.5,6.6-35.4,22.9-45.5c-8.2-8.9-14.6,2.1-22.7-3.4
										C403.6-30.2,405.3-38.5,404.5-47.2z"/>
									<path class="st45" d="M437.2,20.5c-0.1,4.2-0.9,8-4.6,10.3c-9.2,5.8-15.5,18-29.2,12.9c-11.9-4.4-12.9-9.4-3.7-18.1
										c20.3,11.3,18.6-14.2,28.2-20.9C432.6,8.8,435.5,14.2,437.2,20.5z"/>
									<path class="st46" d="M516.7,10c-1.9,8.9,5.2,22.6-8.4,25.2c-6,1.1-16.4,13.4-19.7-4.4c-1.7-5.5-5.2-13.4,4.1-12.5
										c18.9,1.9,11.9-10,4.9-13.7c-13.5-7-20.3-25.3-36.9-25.9c-19.5,1.1-26.1-14.1-16.5-38c7.2-7.9,18.5-0.9,25.7-8.9
										c3.2,0,6.3-0.1,9.5-0.1c4.8,18.7,4.8,18.7,23.4,5.1c1.4-4.9,4.2-7.4,9-6.7c1.8,1.2,3.2,2.7,4.4,4.6
										c1.5,2.9,2.5,6.1,2.9,9.4c0.1,2.2-0.2,4.3-0.7,6.4c-1.4,4.9-3.4,9.6-2.7,15c0.4,2,0.6,4.1,0.9,6.1
										c0.7,5.2,1.6,10.2,3.8,14.9c1.4,2.9,2.6,5.9,3.2,9.1C523.7,2,520.9,6.4,516.7,10z"/>
									<path class="st59" d="M446.6-57.7c-6.3,17.4-5.3,31.3,14,36.5c-4.7,5.2-9.4,10.4-14,15.6c-2.5,2.9-3.9,8.2-9.2,5.1
										C432-15,425.8-29,430.7-45.7c1.5-5.2-3.7-6.2-7.5-6.8c0-8.7,0-17.4,0-26.1c3.1,5.2,6.3,10.5,9.4,15.7
										C436.2-57.9,443.1-63.4,446.6-57.7z"/>
									<path class="st47" d="M437.4-0.5c3.1-1.7,6.1-3.4,9.2-5.1c0,5.2,0,10.3,0,15.5c-3.1,3.6-6.2,7.1-9.3,10.7
										c-9.3-0.7-9.2-8.4-9.3-15.8C426.2-8.1,436.1,5.6,437.4-0.5z"/>
									<path class="st47" d="M460.5,46.5c-1.6-1.7-3.1-3.5-4.7-5.2c-0.8-3.8-4.1-11,0.1-10.6C464.7,31.4,458.9,41,460.5,46.5z"/>
									<path class="st48" d="M736.9,20.4c-1.8,9.4,6.3,27.3-14.2,21c-4.3,0.5-7.9-1.1-11-4.3c-3.5-5.3-6.7-10.8-9-16.9
										c1.9-6.4-0.8-12.2-2.2-18.2c0-3.8,1.1-7.1,3.7-9.8c5.2-3.7,10.8-4.1,16.6-2.9C728-8.7,732-2.9,735.3,4
										c1.6,3.2,2.8,6.5,3.6,10C739,16.4,738.4,18.5,736.9,20.4z"/>
									<path class="st50" d="M516.7,10c1.6-5.2,3.1-10.4,4.7-15.7c1.6-1.3,3.4-1.8,5.3-1.2c4.8,3.4,10,5.9,15.5,7.5
										c1.9,0.8,3.5,2,5,3.5c1.3,1.8,2,3.8,2.2,6c1.9,16.4-5.8,25.7-18.6,31.3C523.9,32.2,529.7,15.9,516.7,10z"/>
									<path class="st51" d="M549.4,10.1c-1.5-1.8-3.1-3.5-4.6-5.3c-2.5-6.5-9.2-11.7-5-20.4C560-30,578.5-26.1,586.9-5.7
										c-1.6,1.7-3.1,3.5-4.7,5.2c-5.9-5.9-12.7-15.7-17.7-0.2C561.5,8.5,556.7,10.4,549.4,10.1z"/>
									<path class="st52" d="M591.6,30.9c0.6-4-0.4-11.9,2.8-11c10.3,2.9,5.4,13.7,6.5,21.4C594.8,41.1,591.8,37.5,591.6,30.9z"/>
									<path class="st53" d="M516.8-52.6c3.1,5.2,6.2,10.5,9.3,15.7c1.2,1.1,1.6,2.3,1.2,3.5c-0.4,1.2-0.8,1.8-1.2,1.8
										c0.9,10,8.9,14.2,13.9,20.8c0.7,5.6,14,6.3,4.7,15.6l0,0c-5.6-4.9-15.4-0.6-18.7-10.5c-1.6,0-3.1,0-4.7,0
										c-1.6-1.7-3.1-3.4-4.7-5.2c-0.3-7.3,1.6-15.2-4.6-20.9l-0.1-0.1c-1.3-7.7,2.6-13.9,4.6-20.7H516.8z"/>
									<path class="st54" d="M699.3,41.3c-6.2-3.4-12.4-6.9-18.6-10.3c-5.4-3.8-4.7-10-4.7-15.8c3.6-4.4,7.6-8.3,13.5-7.4
										c6.5,1.8,10.7,6.9,14.5,12.6c9.4,0.6,9.4,8.1,9.4,15.7C708.2,36.3,702.7,35.3,699.3,41.3z"/>
									<path class="st54" d="M699.2-21.4c-4.6,3.6-4.6,7.1,0.1,10.5c1.4,2,4.4,2,4.7,5.2c0,3.5,0,7,0,10.4
										c-3.3,3.3-6.8,3.2-10.6,1.2c-4.2-4-6.5-9.1-7.7-15c-0.6-7.8-0.9-16,7.2-19.2C696.7-29.7,700.2-27.4,699.2-21.4z"/>
									<path class="st55" d="M694.6,4.8c3.1,0,6.2,0,9.3,0c14.7,5.2,3,10.4,0,15.6c-6.7,0-11.4-3.5-14-10.4
										C690.4,7.1,692,5.4,694.6,4.8z"/>
									<path class="st56" d="M647.8-5.5C642.9,13,629,1.4,619.7,4.8c-6.2,0-12.5,0-18.7,0c-2.8-3.1-3.1-6.7-1.5-10.6
										c9.3-6.2,15.8-18,28.3-18.1C635.3-18.9,644.5-16.2,647.8-5.5z"/>
									<path class="st51" d="M601-5.6c0,3.5,0,6.9,0,10.4c-10.2,5.7-13.4-0.2-14-10.4c3.8-0.1,7.3-1.1,9.3-5.2
										C600.5-12.1,602.2-10.4,601-5.6z"/>
									<path class="st51" d="M526.1-5.6c6.2,3.5,12.5,7,18.7,10.5C537.5,3.8,527.6,8.3,526.1-5.6z"/>
									<path class="st48" d="M675.8,10c3.1-3.5,6.3-7,9.4-10.5c-1.2-4.8,0.4-6.5,4.7-5.2c3.7,2.3,4.6,6.2,4.7,10.5
										c-1.6,1.7-3.1,3.4-4.7,5.2c-4.7,1.7-9.3,3.5-14,5.2C675.9,13.5,675.8,11.8,675.8,10z"/>
								</g>
							</g>
						</g>
					</g>
				</g>
			</g>
			<g>
				<defs>
					<polygon id="SVGID_39_" points="376,-958 734.7,-750.9 734.7,-328.7 376,-120.3 9.3,-328.7 9.3,-750.9 					"/>
				</defs>
				<clipPath id="SVGID_40_">
					<use xlink:href="#SVGID_39_"  style="overflow:visible;"/>
				</clipPath>
				<g id="r2_top_1_" class="st60">
					<path class="st20" d="M689.3-424.8H56.1v691.2h633.1v-691.2H689.3z M291.5,220.2h-98.2v-81.6h98.2V220.2z M424.3,220.2H326
						v-81.6h98.3V220.2z M424.3,54.2H326V-49.1h98.3V54.2z"/>
				</g>
			</g>
		</g>
	</g>
	<g>
		<g>
			<path class="st20" d="M372,464.1c37-4.7,76-7.1,116.5-7.1c106.7,0,189.8,8.2,222,15L366.4,18C495.3,285,490.4,417.3,372,464.1z"
				/>
			<path class="st20" d="M143.6,466.2c169.2,0.9,210.6,0.3,220.1,0.1l2.2-451.5C340.1,47.1,173.7,261.9,143.6,466.2z"/>
		</g>
	</g>
	<g>
		<g>
			<path d="M734.2,491.2c-1-2.3-2.9-3.3-4.7-2.6c-0.7,0.3-11.7,4.6-17.4,6.8c-49.4,18.4-107.6,26.9-174.3,37.1
				c-0.3-19.8-3.9-29-10.9-38.7c-7.8-10.9-19.7-15.1-35.5-12.4c-9.5,1.6-35.1,4.7-65.6,7.9l-30.1,3.1c-45.6,4.5-94.3,8.5-115.8,8.5
				c-33.8,0-62.8,12.3-100.6,49c-36.8-1.1-76.4,2.8-105.3,1l-6.1-6.1c-3.6,1.7-7.1,3.4-10.7,5l0,0h-0.1c-2.6,1.2-5.2,2.3-7.9,3.4
				c-3.5,1.4-5.8-1.3-6-4.3c-15-1-28.1-2-38.9-2.8c0.3,4.4,0.6,8.8,0.8,13.2c17.2,1.3,40.2,3,67.5,4.6l0,0l0,0
				c50.1,3,114.8,5.9,185.3,5.9c196.4,0,351.9-21.6,462.4-64.2c3.6-1,9-4,8.5-2.6c0.3-0.1-0.4,0.5-1.4,1.3h0.1
				c1.4,0,2.5,0.5,3.3,1.2c1-2.3,2.1-4.6,3.1-6.9C735.3,496.4,735.3,493.4,734.2,491.2z M258.2,556.8c-23.6,0-46.5-0.3-68.5-0.9
				c32-28.2,61.7-42,90.4-42c41.9,0,186.5-15.2,212.4-19.7c13.1-2.2,22.7,0.8,28.6,9c5.3,7.4,8,19.5,8.1,36.2
				C450.3,551,359.8,556.8,258.2,556.8z"/>
			<path class="st8" d="M530.4,538.9c-0.2-18.3-2.9-31.6-8.3-39.7c-6-9-15.9-12.4-29.3-9.9c-26.6,4.9-174.8,21.6-217.9,21.6
				c-29.5,0-59.9,15.1-92.7,46c22.5,0.6,46,1,70.2,1C356.5,557.9,449.4,551.5,530.4,538.9z M471.6,511.3l23.3-1.9c0.1,0,0.2,0,0.2,0
				c2.3,0,4.3,3,4.4,6.8l0.3,8.7c0.1,4-1.8,7.3-4.2,7.5l-23.3,1.9c-0.1,0-0.2,0-0.2,0c-2.3,0-4.3-3-4.4-6.8l-0.3-8.7
				C467.3,514.9,469.2,511.5,471.6,511.3z M399.6,517.3l23.3-1.9c0.1,0,0.2,0,0.2,0c2.3,0,4.3,3,4.4,6.8l0.3,8.7
				c0.1,4-1.8,7.3-4.2,7.5l-23.3,1.9c-0.1,0-0.2,0-0.2,0c-2.3,0-4.3-3-4.4-6.8l-0.3-8.7C395.2,520.8,397.1,517.5,399.6,517.3z
				 M317,529.7c0-4,2-7.2,4.4-7.2h23.3c2.4,0,4.4,3.2,4.4,7.2v8.7c0,4-2,7.2-4.4,7.2h-23.3c-2.5,0-4.4-3.2-4.4-7.2V529.7z
				 M244.9,538.4v-8.7c0-4,2-7.2,4.4-7.2h23.3c2.4,0,4.4,3.2,4.4,7.2v8.7c0,4-2,7.2-4.4,7.2h-23.3
				C246.9,545.5,244.9,542.3,244.9,538.4z"/>
			<path d="M277.1,538.4v-8.7c0-4-2-7.2-4.4-7.2h-23.3c-2.5,0-4.4,3.2-4.4,7.2v8.7c0,4,2,7.2,4.4,7.2h23.3
				C275.1,545.5,277.1,542.3,277.1,538.4z"/>
			<path d="M321.5,545.5h23.3c2.4,0,4.4-3.2,4.4-7.2v-8.7c0-4-2-7.2-4.4-7.2h-23.3c-2.5,0-4.4,3.2-4.4,7.2v8.7
				C317,542.3,319,545.5,321.5,545.5z"/>
			<path d="M400.1,540.3c0.1,0,0.2,0,0.2,0l23.3-1.9c2.4-0.2,4.3-3.6,4.2-7.5l-0.3-8.7c-0.1-3.8-2.1-6.8-4.4-6.8c-0.1,0-0.2,0-0.2,0
				l-23.3,1.9c-2.4,0.2-4.3,3.6-4.2,7.5l0.3,8.7C395.8,537.3,397.7,540.3,400.1,540.3z"/>
			<path d="M472.1,534.3c0.1,0,0.2,0,0.2,0l23.3-1.9c2.4-0.2,4.3-3.6,4.2-7.5l-0.3-8.7c-0.1-3.8-2.1-6.8-4.4-6.8c-0.1,0-0.2,0-0.2,0
				l-23.3,1.9c-2.4,0.2-4.3,3.6-4.2,7.5l0.3,8.7C467.8,531.4,469.8,534.3,472.1,534.3z"/>
		</g>
	</g>
	<path class="st20" d="M68.7,628.4c-3.6-2.8-7.3-5.4-11.4-7.5C61.1,623.4,64.9,625.9,68.7,628.4z"/>
	
		<rect x="1.1" y="564.3" transform="matrix(0.9874 -0.1584 0.1584 0.9874 -101.4213 66.8304)" class="st61" width="734.9" height="210.7"/>
	<g class="st11">
		<path d="M297.4,618.2c0.6,1.5,1,3,1.2,4.5c0.1,0.4,0.1,1,0.2,1.5c0,0.6,0.1,1.1,0.2,1.5c0,2.9-0.4,5.7-1.2,8.6
			c-0.8,2.9-1.8,5.5-2.9,7.9c-2,4-4,8-5.9,11.9c-2,3.9-3.9,7.9-5.9,11.9l-15.1-7.4c2-4,4-8,5.9-12c1.9-4,3.9-7.9,5.9-11.8
			c0.4-0.6,0.7-1.3,0.9-2c0.2-0.7,0.5-1.4,0.7-2.1c0.2-0.8,0.4-1.7,0.5-2.6c0.1-0.9,0.2-1.7,0.2-2.4c-1.1,0.1-2.5,0.4-4.2,1.1
			c-1.7,0.7-3.7,1.7-6.1,3.1c-1.4,0.8-2.8,1.6-4.3,2.5c-1.5,0.9-3.1,1.8-4.6,2.9c-1.1,0.8-2.2,1.5-3.3,2.3c-1.1,0.8-2.1,1.6-3.1,2.5
			c-0.6,0.6-1.3,1.2-2.1,2c-0.8,0.8-1.6,1.6-2.3,2.5c-1.4,1.5-2.6,3.1-3.6,4.9c-1,1.8-1.6,3.5-1.7,5.1c-0.1,0.4-0.1,0.6,0,0.9
			c0,0.2,0.1,0.4,0.1,0.7c0.1,0.7,0.4,1.3,0.7,1.9c0.4,0.6,0.9,1.2,1.6,1.8c4.2,3.3,8.5,6.7,12.7,10.1c4.3,3.4,8.5,6.8,12.7,10.1
			c1.3,0.9,2.3,2.1,3.1,3.5c0.7,1.4,1.3,2.8,1.8,4.4c0,0.2,0.1,0.5,0.1,0.8c0,0.3,0.1,0.5,0.1,0.8c0.3,1.7,0.4,3.3,0.3,4.9
			c-0.1,1.6-0.3,3.2-0.8,4.8c-1.1,4.5-3.3,8.4-6.7,11.7c-3.3,3.2-7.4,5.2-12.2,6L211,725l2.7-17.5c7.3-1.2,14.6-2.3,21.9-3.5
			c7.3-1.2,14.6-2.3,21.9-3.5c1.7-0.3,3.1-1.2,4.1-2.7c1.1-1.5,1.5-3.2,1.4-4.9c-2-1.6-4-3.3-6-4.9c-2-1.6-4.1-3.2-6.2-4.9
			c-2.1-1.6-4.2-3.2-6.2-4.9c-2-1.6-4.1-3.2-6.2-4.9c-2.5-1.9-4.4-4.1-5.8-6.7c-1.4-2.6-2.3-5.3-2.8-8.1c-0.9-7.3,0.9-14,5.6-20.1
			c4.7-6.1,10.1-11.3,16.2-15.6c2.1-1.5,4.1-2.8,6.1-4.1c2-1.2,3.9-2.4,5.8-3.5c1.9-1.1,4-2.2,6.4-3.2c2.4-1,4.8-1.8,7.2-2.4
			c0.3-0.1,0.7-0.1,1.1-0.2c0.4-0.1,0.8-0.1,1.1-0.2c2.9-0.5,5.7-0.4,8.4,0.3c2.7,0.7,5.1,2.2,7.2,4.6
			C295.9,615.4,296.8,616.8,297.4,618.2z"/>
		<path d="M310.9,692.1l16.6-2.7l-2.7,17.5l-14.9,2.4c-4.1,0.7-7.7-0.2-10.7-2.5c-3-2.3-4.8-5.3-5.4-9c-0.1-0.4-0.1-0.9-0.1-1.3
			c0-0.4,0-0.8-0.1-1.3c0.1-0.4,0.1-0.7,0.2-1.1c0-0.4,0.1-0.8,0.1-1.3l14-89l17.5-2.8L310.9,692.1z"/>
		<path d="M386.3,672.2l-8.1,1.3c-0.4,6.7-2.9,12.9-7.6,18.6c-4.7,5.7-10.5,9.1-17.4,10.2c-0.3,0.1-0.6,0.1-0.9,0.1
			c-0.3,0-0.6,0-1,0c-0.3,0.1-0.6,0.1-0.9,0.1c-0.3,0-0.6,0-0.9,0.1c-6.3,0.1-11.7-1.9-16.2-5.9c-4.5-4-7.2-9.1-8.2-15.3
			c-1.3-7.9,0.5-15.5,5.3-22.6c4.8-7.1,11.3-11.4,19.5-12.7c4.9-0.8,9.5-0.2,13.8,1.7c4.3,2,7.7,4.9,10.3,8.9l15.1-2.4L386.3,672.2z
			 M352.1,673.1c-2.4-1.9-4.1-4.4-4.9-7.5c-1.6,1.4-2.9,3.1-3.8,5.2c-0.9,2-1.4,4.1-1.4,6.2c0,0.1,0,0.3,0.1,0.4
			c0,0.2,0,0.3,0.1,0.4c-0.1,0.1-0.1,0.3-0.1,0.4c0,0.2,0,0.3,0.1,0.4c0.4,2,1.4,3.7,2.8,5.1c1.4,1.4,3.3,1.9,5.7,1.5
			c2.2-0.4,4.2-1.4,5.9-3.2c1.7-1.8,3-3.8,3.8-5.9C357.2,676,354.5,675,352.1,673.1z"/>
		<path d="M445.2,662.8l-8.1,1.3c-0.4,6.7-2.9,12.9-7.6,18.6c-4.7,5.7-10.5,9.1-17.4,10.2c-0.3,0.1-0.6,0.1-0.9,0.1
			c-0.3,0-0.6,0-1,0c-0.3,0.1-0.6,0.1-0.9,0.1c-0.3,0-0.6,0-0.9,0.1c-6.3,0.1-11.7-1.9-16.2-5.9c-4.5-4-7.2-9.1-8.2-15.3
			c-1.3-7.9,0.5-15.5,5.3-22.6c4.8-7.1,11.3-11.4,19.5-12.7c4.9-0.8,9.5-0.2,13.8,1.7c4.3,2,7.7,4.9,10.3,8.9l15.1-2.4L445.2,662.8z
			 M411,663.6c-2.4-1.9-4.1-4.4-4.9-7.5c-1.6,1.4-2.9,3.1-3.8,5.2c-0.9,2-1.4,4.1-1.4,6.2c0,0.1,0,0.3,0.1,0.4c0,0.2,0,0.3,0.1,0.4
			c-0.1,0.1-0.1,0.3-0.1,0.4s0,0.3,0.1,0.4c0.4,2,1.4,3.7,2.8,5.1c1.4,1.4,3.3,1.9,5.7,1.5c2.2-0.4,4.2-1.4,5.9-3.2
			c1.7-1.8,3-3.8,3.8-5.9C416.1,666.5,413.4,665.5,411,663.6z"/>
		<path d="M526.8,674.5l-49.9,8l-2.7-16.6l10.9-1.8c0.8-0.1,1.6-0.3,2.3-0.6c0.8-0.3,1.5-0.6,2.3-1c3.2-1.8,5.9-4.3,8.2-7.6
			c2.3-3.3,3.2-6.6,2.6-9.8c-0.3-1.8-1.1-3-2.3-3.5c-1.2-0.5-2.6-0.7-4.2-0.4c-2.2,0.4-4.6,1.6-7.1,3.8c-2.5,2.2-5,5-7.4,8.5
			c-0.2,0.4-0.4,0.8-0.7,1.2c-0.3,0.4-0.6,0.9-0.8,1.3c-2.6,4.3-5.1,9.2-7.3,14.7c-2.2,5.5-3.8,11.2-4.8,17.2l-7.1,46.1l-16.6-2.7
			l9.5-61.1c0.7-4.8,1.1-9.1,1.1-12.7c0-3.7-0.2-6.9-0.7-9.7c-0.3-2.1-0.8-4-1.3-5.7c-0.5-1.7-1-3.2-1.6-4.5
			c-0.2-0.4-0.3-0.9-0.5-1.3c-0.1-0.4-0.3-0.8-0.4-1.1c-0.2-0.5-0.3-0.9-0.4-1.1c-0.1-0.2-0.2-0.3-0.3-0.4l15.7-6.1
			c0.3,0.5,0.5,1,0.6,1.3c0.2,0.5,0.4,1.1,0.6,1.6c0.2,0.5,0.4,1.1,0.6,1.8c0.5,1.2,1,2.5,1.5,4c0.5,1.5,0.9,3.1,1.3,4.9
			c3-4,6.6-7.6,10.6-10.7c4-3.1,8.5-5.1,13.3-5.8c1.2-0.2,2.5-0.3,3.7-0.3c1.3,0,2.5,0.1,3.8,0.3c4.7,0.7,8.7,2.7,11.9,6
			c3.2,3.3,5.2,7.3,6,12c0.4,2.8,0.4,5.6-0.1,8.5c-0.5,2.9-1.4,5.7-2.5,8.4l14.9-2.4L526.8,674.5z"/>
	</g>
	<polygon points="536.3,547.2 726.1,500.5 726.1,480.6 536.3,523.2 	"/>
	<polygon points="46,557.9 178.3,557.2 197.4,537.3 42.4,540.3 	"/>
	<g>
		<path class="st61" d="M363.4,495.6v0.2c2.7-0.2,5.4-0.3,8-0.5v-0.2C368.8,495.3,366.1,495.4,363.4,495.6z"/>
		<path d="M377.1,498.5c0-0.2-0.1-0.3-0.1-0.5c-0.3-1.2-0.2-2.2,0-3c0,0,0,0-0.1,0v-7.5c0-0.2,0-0.4-0.1-0.6c-0.1-1.6,0-3.3,0-4.9
			c0-0.1,0-0.3,0-0.4l-1.9-415.8c0-0.1,0-0.3-0.1-0.4c-0.1-0.5-0.2-1.2-0.2-1.9c0.1-16.6-0.8-33.1-1.1-49.6c0-0.5-0.2-0.9-0.5-1.3
			l-4.4-4.3c-0.5-0.4-1.1-0.6-1.7-0.5h-0.1c-0.3,0.1-0.5,0.2-0.7,0.4l-4,3.9c-0.1,0.1-0.2,0.3-0.3,0.4c-0.4,0.7-1.1,1.7-1.6,2.3
			c-0.2,0.3-0.4,0.7-0.4,1.1c0,2.5-0.1,12.2,0.1,16.8c0,0,0.1-0.1,0.1-0.2l-1.9,424.6H358c0.1,0.5,0.1,0.9,0.1,1.4
			c-0.1,1.1-0.1,2.1-0.2,3.2h0.1l-0.1,33.2c0,0.4,0.1,0.8,0.4,1.2c1.3,1.5,2.5,3.1,3.7,4.7c0.4,0.5,1,0.7,1.6,0.7
			c3.9-0.3,7.9-0.6,11.7-0.9c0.9-0.1,1.6-0.8,1.7-1.8C377.1,498.7,377.1,498.6,377.1,498.5z M363.4,495.8v-0.2
			c2.7-0.2,5.4-0.3,8-0.5v0.2C368.8,495.5,366.1,495.7,363.4,495.8z"/>
	</g>
	<g>
		<path class="st8" d="M10.7,523.6c0.5,5.2,0.9,16.7,1.3,21.9c17,1.3,38.9,2.9,64.5,4.5l-41.1-46.3C28.8,497.3,16.8,492,9.1,492H6.5
			C8,502.6,9.7,513.1,10.7,523.6z"/>
		<path d="M94.3,548.2l-56.2-55.6C29.9,484.4,15.8,478,6,478H1.5c0.5,5.4,1.2,10.7,1.9,16.1H6c7.8,0,19.8,5.4,26.3,11.9l41.3,40.9
			c-25.8-1.7-47.7-3.3-64.8-4.6c0.4,5.4,0.7,10.8,0.9,16.1c21.2,1.6,49.3,3.7,82.8,5.7l0,0l0,0c7.4,0.4,8.4,0.9,16.4,1.3
			C105.4,560,94.3,548.2,94.3,548.2z"/>
	</g>
</g>
</svg>
