<?xml version="1.0" encoding="utf-8"?>
<!-- Generator: Adobe Illustrator 26.5.0, SVG Export Plug-In . SVG Version: 6.00 Build 0)  -->
<svg version="1.1"
	 id="svg8" xmlns:dc="http://purl.org/dc/elements/1.1/" xmlns:inkscape="http://www.inkscape.org/namespaces/inkscape" xmlns:rdf="http://www.w3.org/1999/02/22-rdf-syntax-ns#" xmlns:sodipodi="http://sodipodi.sourceforge.net/DTD/sodipodi-0.dtd" xmlns:cc="http://creativecommons.org/ns#" xmlns:svg="http://www.w3.org/2000/svg" inkscape:export-filename="C:\Users\apdev\Documents\github\RStudio\sortable\man\figures\sortable-logo.png" inkscape:export-xdpi="46.16" inkscape:export-ydpi="46.16" inkscape:version="0.92.4 (5da689c313, 2019-01-14)" sodipodi:docname="logo.svg"
	 xmlns="http://www.w3.org/2000/svg" xmlns:xlink="http://www.w3.org/1999/xlink" x="0px" y="0px" viewBox="0 0 2521 2911"
	 style="enable-background:new 0 0 2521 2911;" xml:space="preserve">
<style type="text/css">
	.st0{fill:#D6E6FF;}
	.st1{fill:#3771C8;}
	.st2{fill:#72B8FF;}
	.st3{fill:#629FDD;}
	.st4{fill:#578DC5;}
	.st5{fill:#588FC6;}
	.st6{fill:#4E7FB1;}
	.st7{fill:#FFFFFF;}
</style>
<sodipodi:namedview  bordercolor="#666666" borderopacity="1.0" fit-margin-bottom="0" fit-margin-left="0" fit-margin-right="0" fit-margin-top="0" id="base" inkscape:current-layer="layer1" inkscape:cx="249.57702" inkscape:cy="288.18673" inkscape:document-units="mm" inkscape:pageopacity="0.0" inkscape:pageshadow="2" inkscape:window-height="1875" inkscape:window-maximized="1" inkscape:window-width="3000" inkscape:window-x="-13" inkscape:window-y="-13" inkscape:zoom="2.8314976" pagecolor="#ffffff" showgrid="false">
	</sodipodi:namedview>
<g>
	<polyline class="st0" points="1260.5,44.1 38.2,749.8 38.2,2161.2 1260.5,2866.9 2482.8,2161.2 2482.8,749.8 1260.5,44.1 	"/>
	<polygon class="st1" points="2482.8,2161.2 2463.7,2128.1 1260.5,2822.8 76.4,2139.2 76.4,771.8 1260.5,88.2 2444.6,771.8 
		2444.6,2161.2 2482.8,2161.2 2463.7,2128.1 2482.8,2161.2 2521,2161.2 2521,727.7 1260.5,0 0,727.8 0,2183.2 1260.5,2911 
		2521,2183.2 2521,2161.2 	"/>
	<rect x="380.8" y="528" class="st2" width="1756.9" height="649.1"/>
	<rect x="332.6" y="1176.6" class="st3" width="1756.9" height="649.1"/>
	<rect x="568" y="1825.8" class="st4" width="1213.1" height="649.7"/>
	<polygon class="st5" points="380.8,1177.1 2089.5,1176.6 2089.4,1256.1 	"/>
	<polygon class="st6" points="1779.3,1826.3 568.2,1825.8 568.3,1910.2 	"/>
	<path class="st1" d="M1260.5,2911L0,2183.2V727.8L1260.5,0L2521,727.8v1455.5L1260.5,2911z M76.4,2139.2l1184.1,683.7l1184.1-683.7
		V771.8L1260.5,88.2L76.4,771.8V2139.2z"/>
	<path class="st7" d="M643.5,1012.3v-59.2c29.1,22.2,61.1,33.3,96,33.3c46.9,0,70.3-16.1,70.3-48.4c0-9.2-2.1-16.9-6.2-23.2
		c-3.9-6.5-9.3-12.2-16.3-17.1c-6.7-4.9-14.8-9.3-24.1-13.1c-9.1-4-19-8.2-29.6-12.4c-14.8-6.1-27.8-12.1-39.1-18.2
		c-11.1-6.3-20.4-13.2-28-20.8c-7.4-7.8-13-16.7-16.9-26.6c-3.7-9.9-5.5-21.4-5.5-34.6c0-16.1,3.6-30.4,10.7-42.7
		c7.2-12.6,16.7-23,28.6-31.3c11.9-8.5,25.5-14.9,40.7-19.2c15.4-4.3,31.2-6.4,47.5-6.4c28.9,0,54.7,5.2,77.5,15.5v55.8
		c-24.5-16.6-52.7-24.9-84.6-24.9c-10,0-19,1.2-27,3.7c-8,2.2-15,5.5-20.8,9.8c-5.6,4.3-10.1,9.4-13.3,15.5
		c-3,5.8-4.6,12.3-4.6,19.5c0,9,1.5,16.5,4.6,22.5c3.3,6.1,7.9,11.4,14,16.1c6.1,4.7,13.5,9,22.1,12.8c8.7,3.8,18.6,8,29.6,12.4
		c14.8,5.8,28,11.9,39.7,18.2c11.7,6.1,21.7,13,29.9,20.8c8.2,7.6,14.5,16.5,18.9,26.6c4.6,10.1,6.8,22.1,6.8,36
		c0,17-3.7,31.8-11.1,44.4c-7.2,12.6-16.8,23-29,31.3c-12.2,8.3-26.1,14.5-42,18.5c-15.8,4-32.4,6.1-49.8,6.1
		C698.4,1032.8,668.6,1025.9,643.5,1012.3L643.5,1012.3z"/>
	<path class="st7" d="M1267.7,1032.8c-49.3,0-88.6-16-118.1-48.1c-29.3-32.3-43.9-75-43.9-128.1c0-57.8,15.3-103,45.9-135.5
		c30.6-32.5,71.9-48.8,124-48.8c49.7,0,88.4,15.8,116.2,47.4c28,31.6,42,75.4,42,131.5c0,54.9-15.1,99-45.2,132.1
		C1358.5,1016.3,1318.3,1032.8,1267.7,1032.8L1267.7,1032.8z M1271.6,718.7c-34.3,0-61.4,12.1-81.4,36.3c-20,24-29.9,57.2-29.9,99.5
		c0,40.8,10.1,73,30.3,96.5c20.2,23.5,47.2,35.3,81,35.3c34.5,0,61-11.5,79.4-34.6c18.7-23.1,28-55.9,28-98.5c0-43-9.3-76.2-28-99.5
		C1332.6,730.4,1306.1,718.7,1271.6,718.7L1271.6,718.7z"/>
	<path class="st7" d="M1875.1,736.2c-9.3-7.4-22.8-11.1-40.4-11.1c-22.8,0-41.9,11.1-57.3,33.3c-15.2,22.2-22.8,52.5-22.8,90.8
		v175.5h-53.4V680.4h53.4v70.9h1.3c7.6-24.2,19.2-43,34.8-56.5c15.6-13.7,33.1-20.5,52.4-20.5c13.9,0,24.5,1.6,31.9,4.7
		L1875.1,736.2z"/>
	<path class="st7" d="M767,1748.7c-12.6,7.2-29.2,10.8-49.8,10.8c-58.4,0-87.6-33.6-87.6-100.9v-203.8h-57.3v-47.1h57.3v-84.1
		l53.4-17.8v101.9h84v47.1h-84v194c0,23.1,3.8,39.6,11.4,49.4c7.6,9.9,20.2,14.8,37.8,14.8c13.5,0,25.1-3.8,34.8-11.4L767,1748.7z"
		/>
	<path class="st7" d="M1259.7,1752.1h-53.4v-53.8h-1.3c-23.2,41.2-57.4,61.9-102.5,61.9c-33.2,0-59.2-9.1-78.1-27.2
		c-18.7-18.2-28-42.3-28-72.3c0-64.3,36.7-101.8,110-112.3l99.9-14.5c0-58.5-22.9-87.8-68.7-87.8c-40.1,0-76.4,14.1-108.7,42.4
		v-56.5c32.8-21.5,70.5-32.3,113.3-32.3c78.3,0,117.5,42.8,117.5,128.4V1752.1z M1206.4,1577.9l-80.4,11.4
		c-24.7,3.6-43.4,10-56,19.2c-12.6,9-18.9,25-18.9,48.1c0,16.8,5.8,30.6,17.2,41.4c11.7,10.5,27.2,15.8,46.5,15.8
		c26.5,0,48.3-9.5,65.4-28.6c17.4-19.3,26-43.6,26-73V1577.9z"/>
	<path class="st7" d="M1597.9,1702.3h-1.3v49.8h-53.4v-509.8h53.4v226h1.3c26.3-45.7,64.7-68.6,115.2-68.6
		c42.7,0,76.2,15.5,100.2,46.4c24.3,30.7,36.5,72,36.5,123.7c0,57.6-13.6,103.8-40.7,138.5c-27.1,34.5-64.2,51.8-111.3,51.8
		C1653.8,1760.1,1620.5,1740.8,1597.9,1702.3L1597.9,1702.3z M1596.6,1563.4v48.1c0,28.5,8.9,52.7,26.7,72.6
		c18,19.7,40.8,29.6,68.3,29.6c32.3,0,57.6-12.8,75.8-38.3c18.4-25.6,27.7-61.1,27.7-106.6c0-38.3-8.6-68.4-25.7-90.1
		c-17.1-21.7-40.4-32.6-69.7-32.6c-31,0-56,11.2-74.9,33.6C1606,1501.9,1596.6,1529.8,1596.6,1563.4L1596.6,1563.4z"/>
	<rect x="868.8" y="1891.8" class="st7" width="53.4" height="509.8"/>
	<path class="st7" d="M1480.3,2243.2H1245c0.9,38.3,10.8,67.9,29.9,88.8c19.1,20.8,45.3,31.3,78.8,31.3c37.5,0,72-12.8,103.5-38.3
		v51.8c-29.3,22-68,33-116.2,33c-47.1,0-84.1-15.6-111-46.7c-26.9-31.4-40.4-75.4-40.4-132.1c0-53.6,14.6-97.2,43.9-130.8
		c29.5-33.8,66.1-50.8,109.7-50.8s77.4,14.6,101.2,43.7c23.9,29.1,35.8,69.6,35.8,121.4L1480.3,2243.2z M1425.7,2196.4
		c-0.2-31.8-7.7-56.6-22.5-74.3c-14.5-17.7-34.8-26.6-60.9-26.6c-25.2,0-46.5,9.3-64.1,27.9c-17.6,18.6-28.4,42.9-32.5,73H1425.7z"
		/>
</g>
</svg>
