<?xml version="1.0" encoding="utf-8"?>
<!-- Generator: Adobe Illustrator 22.0.1, SVG Export Plug-In . SVG Version: 6.00 Build 0)  -->
<svg version="1.1" id="Layer_1" xmlns="http://www.w3.org/2000/svg" xmlns:xlink="http://www.w3.org/1999/xlink" x="0px" y="0px"
	 viewBox="0 0 735 852" style="enable-background:new 0 0 735 852;" xml:space="preserve">
<style type="text/css">
	.st0{fill:#ED7D15;}
	.st1{opacity:0.25;fill:url(#SVGID_1_);enable-background:new    ;}
	.st2{fill:#AC5D12;}
	.st3{fill:#E6B35A;}
	.st4{fill:#FFFFFF;}
	.st5{fill:none;stroke:#AC5D12;stroke-miterlimit:10;}
	.st6{fill:none;stroke:#AC5D12;stroke-width:0.8;stroke-miterlimit:10;}
	.st7{fill:none;stroke:#AC5D12;stroke-width:0.9;stroke-miterlimit:10;}
	.st8{opacity:0.94;}
</style>
<polygon class="st0" points="715.1,224.7 367.5,24 367.5,24 19.8,224.7 19.8,626.2 367.5,826.9 715.1,626.2 "/>
<title>sparklyr</title>
<linearGradient id="SVGID_1_" gradientUnits="userSpaceOnUse" x1="366.1355" y1="974.39" x2="367.4355" y2="510.87" gradientTransform="matrix(1 0 0 -1 0 852)">
	<stop  offset="0" style="stop-color:#FFFFFF;stop-opacity:0.83"/>
	<stop  offset="0.56" style="stop-color:#FFFFFF;stop-opacity:0.37"/>
	<stop  offset="1" style="stop-color:#FFFFFF;stop-opacity:0"/>
</linearGradient>
<path class="st1" d="M366.9,340.4c128.2,0,238.6-57,287.8-138.8L367.5,35.8l0,0L79.4,202.2C128.8,283.7,238.9,340.4,366.9,340.4z"/>
<path class="st2" d="M734.9,637.4V213.1l-29.3-16.9L427.8,35.8L367.5,1l-60.3,34.8L29.4,196.2L0.1,213.1v424.2l29.3,16.9
	l281.3,162.4l56.9,32.8l56.9-32.8l281.3-162.4L734.9,637.4z M29.4,621.5V231l50-28.9L367.5,35.8l0,0l287.2,165.8l50.9,29.4v390.5
	L367.5,816.7L29.4,621.5z"/>
<path class="st3" d="M367,633.9c0.3-0.3,0.6-0.6,0.9-0.9h-0.3C367.5,633.3,367.3,633.6,367,633.9z"/>
<path class="st4" d="M365.5,797.3l4.5,4.5c1,1,1.9,1.9,2.7,2.9h0.1c-0.4-1.2-0.7-2.5-1-3.8l-1.4-6.3l1.6-0.9l4.7,4.3
	c1.1,1,2.1,2,2.9,2.9h0.1c-0.5-1.3-0.9-2.5-1.2-3.8l-1.6-6.1l1.9-1.1l2.7,12.3l-1.7,1l-4.5-4.1c-1-0.9-2-1.9-2.9-2.9h0
	c0.4,1.3,0.8,2.6,1.1,4l1.2,6l-1.7,1l-9.2-8.6L365.5,797.3z"/>
<path class="st4" d="M381.7,787.9l4.5,4.5c1,1,1.9,1.9,2.7,2.9h0.1c-0.4-1.2-0.7-2.5-1-3.8l-1.4-6.3l1.6-0.9l4.7,4.3
	c1.1,1,2.1,2,2.9,2.9h0.1c-0.5-1.3-0.9-2.5-1.2-3.8l-1.6-6.1l1.9-1.1l2.7,12.4l-1.7,1l-4.5-4.1c-1-0.9-2-1.9-2.9-2.9h0
	c0.4,1.3,0.8,2.6,1.1,4l1.2,6l-1.7,1l-9.2-8.7L381.7,787.9z"/>
<path class="st4" d="M397.9,778.5l4.5,4.5c1,1,1.9,1.9,2.7,2.9h0.1c-0.4-1.2-0.7-2.5-1-3.8l-1.4-6.3l1.6-0.9l4.7,4.3
	c1.1,1,2.1,2,2.9,2.9h0.1c-0.5-1.3-0.8-2.6-1.2-3.9l-1.6-6.1l1.9-1.1l2.7,12.4l-1.7,1l-4.5-4.1c-1-0.9-2-1.9-2.9-2.9l0,0
	c0.4,1.3,0.8,2.6,1.1,4l1.2,6l-1.7,1l-9.2-8.6L397.9,778.5z"/>
<path class="st4" d="M417.1,779.7c-0.5-0.7-0.3-1.6,0.4-2.1c0,0,0.1,0,0.1-0.1c0.8-0.4,1.7-0.1,2.1,0.7c0.4,0.7,0.1,1.6-0.6,2.1
	C418.5,780.8,417.6,780.5,417.1,779.7C417.2,779.8,417.1,779.8,417.1,779.7z"/>
<path class="st4" d="M418.5,770.8c-0.7-1.2-1.4-2.3-2-3.2l1.7-1l1.3,2h0.1c-0.4-1.5,0.2-3.2,1.6-4c0.2-0.1,0.4-0.2,0.6-0.2l1,1.8
	c-0.2,0.1-0.5,0.2-0.7,0.3c-1.3,0.8-1.8,2.5-1.1,3.9c0.1,0.3,0.3,0.6,0.4,0.9l3.2,5.6l-1.8,1.1L418.5,770.8z"/>
<path class="st4" d="M428.4,772.1c1,0,2-0.2,3-0.7c1.4-0.8,1.6-1.9,1.1-2.7s-1.4-1.1-3.1-0.8c-2.3,0.4-3.8-0.1-4.5-1.3
	c-1-1.7-0.4-3.8,1.8-5.2c0.9-0.5,1.9-0.8,3-0.8l0.3,1.7c-0.9,0-1.7,0.2-2.5,0.6c-0.9,0.4-1.3,1.4-1,2.3c0,0.1,0,0.1,0.1,0.2
	c0.5,0.9,1.4,0.9,3,0.6c2.2-0.4,3.7,0,4.6,1.5c1.1,1.8,0.4,4-2.1,5.4c-1,0.6-2.2,1-3.4,1L428.4,772.1z"/>
<path class="st4" d="M432.8,754.1l1.8,3l2.7-1.6l0.9,1.5l-2.7,1.6l3.3,5.6c0.8,1.3,1.5,1.8,2.6,1.2c0.4-0.2,0.7-0.5,1-0.8l0.9,1.4
	c-0.4,0.5-1,0.9-1.5,1.2c-0.7,0.5-1.7,0.6-2.5,0.4c-1-0.4-1.9-1.3-2.3-2.3l-3.3-5.7l-1.6,0.9l-0.8-1.5l1.6-0.9l-1.5-2.5L432.8,754.1
	z"/>
<path class="st4" d="M452.6,756.8c0.6,1.1,1.2,2,1.7,2.8l-1.7,1l-1.1-1.6l0,0c0,1.7-0.9,3.2-2.3,4c-1.6,1-4.1,1.2-6.3-2.5l-3.6-6.1
	l1.9-1.1l3.3,5.8c1.2,2,2.5,3,4.3,2c1.1-0.7,1.7-1.9,1.5-3.2c-0.1-0.4-0.2-0.7-0.4-1.1l-3.7-6.4l1.9-1.1L452.6,756.8z"/>
<path class="st4" d="M457.5,737.2l7.4,12.6c0.5,0.9,1.2,2,1.7,2.6l-1.7,1l-1.1-1.8l0,0c0.1,1.7-0.9,3.3-2.4,4.1
	c-2.5,1.5-5.7,0.5-7.6-2.7c-2-3.5-1.1-6.9,1.4-8.3c1.2-0.8,2.8-0.9,4.1-0.2h0l-3.6-6.2L457.5,737.2z M460.9,747.5
	c-0.2-0.3-0.3-0.5-0.5-0.8c-1-1.1-2.7-1.4-4-0.6c-2,1.1-2.1,3.5-0.8,5.9c1.2,2.1,3.3,3.3,5.3,2.1c1.3-0.8,2-2.4,1.5-3.9
	c-0.1-0.3-0.2-0.6-0.4-0.9L460.9,747.5z"/>
<path class="st4" d="M463.9,736.1c0.4,0.7,0.2,1.5-0.5,1.9s-1.5,0.2-1.9-0.5c-0.4-0.6-0.2-1.5,0.4-1.8c0,0,0,0,0.1,0
	C462.6,735.2,463.5,735.4,463.9,736.1C463.9,736,463.9,736,463.9,736.1z M469.6,750.7l-6.1-10.5l1.9-1.1l6.1,10.5L469.6,750.7z"/>
<path class="st4" d="M481,736.9c2.2,3.9,0.5,7.1-2,8.6c-2.8,1.7-6.2,0.8-8.1-2.5c-2-3.5-0.9-6.9,2-8.6S479.1,733.8,481,736.9z
	 M472.8,741.9c1.3,2.3,3.7,3.2,5.5,2.2s2.2-3.6,0.8-5.9c-1-1.8-3.2-3.5-5.5-2.2S471.6,739.9,472.8,741.9L472.8,741.9z"/>
<path class="st4" d="M484.9,740.3c-0.4-0.7-0.1-1.6,0.7-2c0.7-0.4,1.6-0.1,2,0.7c0.4,0.7,0.1,1.6-0.6,2c-0.7,0.4-1.6,0.2-2-0.5
	C484.9,740.4,484.9,740.3,484.9,740.3z"/>
<path class="st4" d="M497.7,733.8c-0.7,1-1.6,1.8-2.6,2.3c-3.1,1.8-6.5,0.9-8.3-2.3c-1.8-2.8-1-6.6,1.8-8.5c0.2-0.1,0.4-0.2,0.6-0.3
	c0.9-0.5,1.9-0.9,2.9-1l0.4,1.7c-0.9,0-1.7,0.3-2.5,0.8c-2.4,1.4-2.7,3.9-1.4,6.1c1.4,2.4,3.8,3,5.9,1.8c0.8-0.5,1.5-1.1,2-1.9
	L497.7,733.8z"/>
<path class="st4" d="M506.4,722.2c2.3,3.9,0.6,7.1-2,8.6c-2.8,1.6-6.2,0.8-8.1-2.5c-2-3.5-0.9-6.9,2-8.6S504.5,719,506.4,722.2z
	 M498.1,727.1c1.3,2.3,3.7,3.2,5.5,2.2s2.2-3.6,0.8-5.9c-1-1.8-3.2-3.5-5.5-2.2S497,725.1,498.1,727.1z"/>
<path class="st4" d="M507.4,718.5c-0.6-1.1-1.2-2-1.7-2.8l1.7-1l1.1,1.6h0.1c-0.1-1.6,0.8-3.1,2.2-3.8c1.3-0.8,3-0.6,4.2,0.4h0
	c0-0.7,0.1-1.4,0.4-2c0.4-0.9,1-1.6,1.9-2.1c1.4-0.8,4-1.1,6.1,2.5l3.6,6.2l-1.8,1.1l-3.5-5.9c-1.2-2-2.6-2.8-4.1-1.9
	c-1,0.6-1.5,1.8-1.2,3c0.1,0.4,0.2,0.7,0.4,1l3.8,6.5l-1.9,1.1l-3.7-6.3c-1-1.7-2.4-2.5-3.9-1.6c-1.3,1-1.7,2.8-0.9,4.3l3.7,6.3
	l-1.9,1.1L507.4,718.5z"/>
<path class="st4" d="M318.9,353.3l-56.7,37.4l38.3-59.4L140,330.4l157.3-54l-49.8-67.9l72.6,42.2l-1.4-134l60.6,118.1l71.4-70.4
	l-40.3,81.9L557,223.4l-118.6,75.4l49.3,33.2l-60.6-9.5l77.8,104l-124.4-91.6l-80,116.3L318.9,353.3z M324.3,393.3l52.3-68.7
	l69.7,43.8L413.4,314l32.3,1.3l-20.2-18.2l70.9-51.1l-97.3,8.7l14.8-38.3l-34.3,28.8l-44.1-59l-6.7,75.1L286.3,244l23.3,36.1
	l-89,37.4l91.4,5.7L296.6,355l31.9-15.2L324.3,393.3z"/>
<path class="st2" d="M319.5,119.7l59.7,116.2l68.9-68l-39,79.2l144.4-22.6L437,298.7l47.5,32l-59.1-9.2l75.9,101.4l-120.9-89.1
	l-78.4,114l18.1-96.1l-55.2,36.4l37.1-57.5l-157.5-0.9l154.1-52.9l-48.2-65.9l70.6,41L319.5,119.7 M328,260.2l-43.6-17.8l24.1,37.3
	l-91.1,38.3l93.4,5.9L295,356.6l32.6-15.6l-4.3,54.8l53.4-70.2l71.8,45.1l-33.8-55.8l33,1.3l-21.1-18.9L499,245l-98.8,8.8l15.4-39.9
	l-36,30.2l-44.8-59.9L328,260.2 M318,113.4l0.1,6.3l1.3,129.5L251,209.6l-6.2-3.6l4.2,5.8l47,64.2l-152.1,52.2l-8.4,2.9l8.8,0
	l154.8,0.9l-35.6,55.2l-3.9,6l5.9-3.9l52.2-34.4l-17.4,92.7l-1.3,7l4-5.8L380.7,336l119.7,88.2l8.2,6l-6.1-8.2l-73.6-98.5l55.5,8.7
	l6.7,1l-5.6-3.8l-45.6-30.7l114.5-72.8l6.1-3.9l-7.1,1.1l-141.6,22.1l37.8-76.7l3.9-8l-6.3,6.2l-67.5,66.5L320.9,119L318,113.4z
	 M329.3,262.4l0.2-2l6.4-72.1l42.5,56.7l1,1.3l1.2-1l31.5-26.4l-13.3,34.5l-0.9,2.2l2.4-0.2l93.4-8.3l-67.9,49l-1.5,1.1l1.4,1.2
	l18,16.2l-28.8-1.2l-2.8-0.1l1.4,2.4L444,366l-66.5-41.7l-1.2-0.7l-0.8,1.1l-50.3,66.2l3.9-49.7l0.2-2.6l-2.3,1.1l-28.8,13.8
	l13.9-28.9l1-2l-2.2-0.1l-87-5.5l85.1-35.8l1.6-0.7l-1-1.5l-21.5-33.3l39.2,16L329.3,262.4L329.3,262.4z"/>
<path class="st5" d="M283.8,357.2c1.5-0.5,3-0.9,4.5-1.3"/>
<path class="st5" d="M285.8,355.2c1.5-0.5,3-0.9,4.5-1.3"/>
<path class="st5" d="M281.8,359.6c1.7-0.6,3.4-1,5.1-1.4"/>
<path class="st5" d="M281.1,361.3c0.3-0.1,3.9-0.8,4.2-0.9"/>
<path class="st5" d="M280,363.1c1.4-0.4,2.8-0.7,4.2-1.1"/>
<path class="st5" d="M279.1,365c1.3-0.3,2.7-0.7,3.9-1.1"/>
<path class="st5" d="M277.3,367.6l5-2.1"/>
<path class="st5" d="M276.2,369.8c1-0.4,3.5-1.2,4.5-1.7"/>
<path class="st5" d="M275.1,372.2l3.6-1.5"/>
<path class="st5" d="M274.9,375.3l1.2-0.5"/>
<path class="st5" d="M273,374.4c1.4-0.5,2.9-1.2,4.4-1.6"/>
<path class="st5" d="M272.6,376.2l3.7-1.6"/>
<path class="st5" d="M270.6,378.7l4.2-1.8"/>
<path class="st5" d="M269.6,380.8l3.8-1.6"/>
<path class="st5" d="M268.2,383l3.5-1.5"/>
<path class="st5" d="M266.9,385.4l3.5-1.5"/>
<path class="st5" d="M299.4,332.8c1.3-0.3,2.7-0.7,3.9-1.1"/>
<path class="st5" d="M297.5,335.3l5-2.1"/>
<path class="st5" d="M296.4,337.5c1-0.4,3.5-1.2,4.5-1.7"/>
<path class="st5" d="M295.4,340l3.6-1.5"/>
<path class="st5" d="M295.1,343.1l1.2-0.5"/>
<path class="st5" d="M293.2,342.1c1.4-0.5,2.9-1.2,4.4-1.6"/>
<path class="st5" d="M292.8,344l3.7-1.5"/>
<path class="st5" d="M290.8,346.5l4.2-1.8"/>
<path class="st5" d="M289.8,348.5l3.8-1.6"/>
<path class="st5" d="M288.4,350.8l3.5-1.5"/>
<path class="st5" d="M287.1,353.1l3.5-1.5"/>
<path class="st5" d="M309,408.1c1.2-1,2.5-1.9,3.8-2.8"/>
<path class="st5" d="M310.1,405.5c1.2-1,2.5-1.9,3.8-2.8"/>
<path class="st5" d="M308.1,411c1.4-1.1,2.8-2.1,4.3-3.2"/>
<path class="st5" d="M308,412.9c0.2-0.2,3.4-2.2,3.6-2.4"/>
<path class="st5" d="M307.6,415c1.1-0.9,2.3-1.7,3.5-2.5"/>
<path class="st5" d="M307.5,417.1c1.1-0.7,2.2-1.6,3.2-2.4"/>
<path class="st5" d="M306.8,420.1l3.9-3.8"/>
<path class="st5" d="M306.5,422.6c0.8-0.8,2.8-2.4,3.6-3.2"/>
<path class="st5" d="M306.5,425.2l2.8-2.7"/>
<path class="st5" d="M307.4,428.2l1-0.9"/>
<path class="st5" d="M305.2,428c1.2-1,2.2-2.2,3.5-3.1"/>
<path class="st5" d="M305.5,429.9l2.9-2.8"/>
<path class="st5" d="M304.6,432.9l3.2-3.2"/>
<path class="st5" d="M304.5,435.2l2.9-2.9"/>
<path class="st5" d="M303.9,437.9l2.7-2.7"/>
<path class="st5" d="M303.6,440.5l2.8-2.7"/>
<path class="st5" d="M314,380.4c1.1-0.7,2.8-2.4,3.8-3.2"/>
<path class="st5" d="M313.8,382.7l3.9-3.8"/>
<path class="st5" d="M313.5,385.2c0.8-0.8,2.8-2.4,3.6-3.2"/>
<path class="st5" d="M313.5,387.8l2.8-2.7"/>
<path class="st5" d="M314.4,390.8l1-0.9"/>
<path class="st5" d="M312.3,390.6c1.2-1,2.2-2.2,3.5-3.1"/>
<path class="st5" d="M312.6,392.5l2.9-2.8"/>
<path class="st5" d="M311.6,395.5l3.2-3.2"/>
<path class="st5" d="M311.5,397.8l2.9-2.9"/>
<path class="st5" d="M310.9,400.4l2.7-2.7"/>
<path class="st5" d="M310.6,403.1l2.8-2.7"/>
<path class="st5" d="M318.6,355c1.1-0.7,2.2-1.6,3.2-2.4"/>
<path class="st5" d="M317.9,358.1l3.9-3.8"/>
<path class="st5" d="M317.6,360.6c0.8-0.8,2.8-2.4,3.6-3.2"/>
<path class="st5" d="M317.5,363.2l2.8-2.7"/>
<path class="st5" d="M318.5,366.2l1-0.9"/>
<path class="st5" d="M316.3,366c1.2-1,2.2-2.2,3.5-3.1"/>
<path class="st5" d="M316.6,367.9l2.9-2.8"/>
<path class="st5" d="M315.7,370.9l3.2-3.2"/>
<path class="st5" d="M315.5,373.2l2.9-2.9"/>
<path class="st5" d="M315,375.8l2.7-2.7"/>
<path class="st5" d="M314.2,378.6c0.5-0.5,2.8-2.5,3.3-3"/>
<path class="st5" d="M343,368.8c1.5-0.4,3.1-0.6,4.6-0.8"/>
<path class="st5" d="M345.2,366.9c1.5-0.3,3.1-0.6,4.6-0.8"/>
<path class="st5" d="M340.9,371c1.7-0.4,3.5-0.6,5.2-0.9"/>
<path class="st5" d="M340,372.6c0.3-0.1,4-0.5,4.3-0.5"/>
<path class="st5" d="M338.6,374.3c1.4-0.3,2.8-0.5,4.2-0.7"/>
<path class="st5" d="M337.6,376.1c1.3-0.2,2.8-0.4,4-0.7"/>
<path class="st5" d="M335.6,378.5l5.2-1.6"/>
<path class="st5" d="M334.2,380.5c1-0.3,3.6-0.9,4.6-1.2"/>
<path class="st5" d="M333,382.9l3.8-1.2"/>
<path class="st5" d="M332.5,386l1.3-0.4"/>
<path class="st5" d="M330.6,384.8c1.5-0.3,3-1,4.5-1.2"/>
<path class="st5" d="M330,386.6l3.8-1.2"/>
<path class="st5" d="M327.8,388.9l4.3-1.3"/>
<path class="st5" d="M326.6,390.8l3.9-1.2"/>
<path class="st5" d="M325,393l3.7-1.1"/>
<path class="st5" d="M360.1,346.4c1.3-0.1,3.6-0.9,4.9-1.1"/>
<path class="st5" d="M358.9,348.3l5.2-1.6"/>
<path class="st5" d="M357.5,350.4c1-0.3,3.6-0.9,4.6-1.2"/>
<path class="st5" d="M356.2,352.8l3.8-1.2"/>
<path class="st5" d="M355.7,355.8l1.3-0.4"/>
<path class="st5" d="M353.9,354.7c1.5-0.3,3-1,4.5-1.2"/>
<path class="st5" d="M353.3,356.5l3.8-1.2"/>
<path class="st5" d="M351,358.8l4.3-1.3"/>
<path class="st5" d="M349.9,360.7l3.9-1.2"/>
<path class="st5" d="M348.2,362.8l3.7-1.1"/>
<path class="st5" d="M346.8,365l3.6-1.1"/>
<path class="st5" d="M370.2,332.9c1.2-0.4,2.1-0.5,3.4-0.9"/>
<path class="st5" d="M368.7,334.6c1.5-0.3,2.4-0.8,3.9-1"/>
<path class="st5" d="M367.5,336.5c-0.2-0.1,2.4-0.7,4.5-1.3"/>
<path class="st5" d="M365.9,338.7l4.3-1.3"/>
<path class="st5" d="M364.7,340.7l3.9-1.2"/>
<path class="st5" d="M363,342.8l3.7-1.1"/>
<path class="st5" d="M361,344.9c0.7-0.2,3.6-1,4.3-1.2"/>
<path class="st5" d="M430.6,341.9c0.4-1.3,0.7-2.7,1-3.9"/>
<path class="st5" d="M431.9,344.8l0.7-5.4"/>
<path class="st5" d="M433.3,346.9c0.1-1.1,0.7-3.6,0.8-4.7"/>
<path class="st5" d="M434.9,349l0.5-3.9"/>
<path class="st5" d="M437.5,350.7l0.2-1.3"/>
<path class="st5" d="M435.8,351.2c0.3-1.5,0.2-2.4,0.6-3.9"/>
<path class="st5" d="M437.1,353.2l0.5-4"/>
<path class="st5" d="M438.3,355.6l0.5-4"/>
<path class="st5" d="M439.5,358l0.5-4.1"/>
<path class="st5" d="M440.9,359.8l0.4-3.2"/>
<path class="st5" d="M418,321.8c0.4-1.3,0.7-2.4,0.9-3.7"/>
<path class="st5" d="M419.6,323.6l0.5-3.8"/>
<path class="st5" d="M421,325.6c0.1-1.1,0.4-1.9,0.5-2.9"/>
<path class="st5" d="M422.2,328.3c0.2-1.3,0.6-2.4,0.7-3.7"/>
<path class="st5" d="M425.2,329l0.2-1.3"/>
<path class="st5" d="M423.4,330.2c0.3-1.5,0.2-2.3,0.6-3.7"/>
<path class="st5" d="M424.7,332.2l0.6-4.7"/>
<path class="st5" d="M426,334.4l0.5-4.5"/>
<path class="st5" d="M427.3,336.3l0.5-4.1"/>
<path class="st5" d="M428.5,338.6l0.5-3.8"/>
<path class="st5" d="M430,340.9l0.5-3.8"/>
<path class="st6" d="M433.2,303.4c0-1-0.2-2.2-0.3-3.2"/>
<path class="st6" d="M435,305.2l-1-4.3"/>
<path class="st6" d="M436.5,306.4c-0.2-0.9-0.5-2.9-0.7-3.8"/>
<path class="st6" d="M438.3,307.5l-0.7-3.1"/>
<path class="st6" d="M440.8,308.1l-0.2-1"/>
<path class="st6" d="M439.7,309.5c-0.1-1.2-0.6-2.5-0.7-3.7"/>
<path class="st6" d="M441.1,310.1l-0.7-3.1"/>
<path class="st6" d="M442.8,312l-0.8-3.5"/>
<path class="st6" d="M444.3,313.1l-0.7-3.2"/>
<path class="st6" d="M445.9,314.5l-0.7-3"/>
<path class="st6" d="M430.2,300.4l-0.7-3.2"/>
<path class="st6" d="M431.7,301.8l-0.7-3"/>
<path class="st7" d="M435.8,317.2c0.8-0.8,1.8-1.7,2.7-2.5"/>
<path class="st7" d="M432.9,317.4l4.1-2.8"/>
<path class="st7" d="M430.7,317.2c0.8-0.6,2.6-2.1,3.4-2.6"/>
<path class="st7" d="M428.3,316.8l2.9-2"/>
<path class="st7" d="M425.8,315.4l1-0.7"/>
<path class="st7" d="M425.6,317.4c1-0.9,2.4-1.6,3.4-2.5"/>
<path class="st7" d="M424,316.8l3-2.1"/>
<path class="st7" d="M421.1,317.1l3.4-2.4"/>
<path class="st7" d="M419.1,316.9l3-2.1"/>
<path class="st7" d="M416.7,316.9l2.8-2"/>
<path class="st7" d="M440.6,317l3-2.1"/>
<path class="st7" d="M438.1,317l2.8-2"/>
<path class="st5" d="M406.7,354.3c1.6-0.1,2.3-0.4,3.9-0.6"/>
<path class="st5" d="M408.6,355.4c1.6-0.1,3.1-0.4,4.7-0.6"/>
<path class="st5" d="M404.4,352.7c1.4-0.1,2.8-0.3,4.1-0.5"/>
<path class="st5" d="M402.7,351.4c0.3,0,3.2-0.6,3.5-0.6"/>
<path class="st5" d="M401,350.2c1.4-0.1,2-0.3,3.4-0.5"/>
<path class="st5" d="M398.6,348.9c1.3-0.2,2.8-0.4,4-0.5"/>
<path class="st5" d="M397.5,347.2h4"/>
<path class="st5" d="M395.1,345.6c1.2-0.1,2.5-0.1,3.7-0.2"/>
<path class="st5" d="M392.2,343.7h3.9"/>
<path class="st5" d="M390.8,341h1.3"/>
<path class="st5" d="M390.5,342.5c1.2,0,2.3,0,3.5-0.1"/>
<path class="st5" d="M388.3,341h4"/>
<path class="st5" d="M386.8,339.5h3.2"/>
<path class="st5" d="M384.5,338h3.4"/>
<path class="st5" d="M382.5,336.5h2.9"/>
<path class="st5" d="M380.7,334.8h2.7"/>
<path class="st5" d="M429.7,370.8c1.3-0.2,2.8-0.4,4-0.5"/>
<path class="st5" d="M427.1,369.1h5.5"/>
<path class="st5" d="M425.1,367.6c1.1,0,3.7-0.2,4.8-0.2"/>
<path class="st5" d="M423.3,365.7h3.9"/>
<path class="st5" d="M421.9,362.9h1.3"/>
<path class="st5" d="M420.4,364.5c1.5-0.1,3.2,0,4.7-0.2"/>
<path class="st5" d="M419.4,363h4"/>
<path class="st5" d="M416.6,361.5h4.5"/>
<path class="st5" d="M414.9,360h4.1"/>
<path class="st5" d="M412.7,358.4h3.8"/>
<path class="st5" d="M410.6,356.8h3.8"/>
<path class="st5" d="M449.8,385.6c1.3-0.2,2.8-0.4,4-0.5"/>
<path class="st5" d="M447.1,384h5.5"/>
<path class="st5" d="M445.2,382.4c1.1,0,3.7-0.2,4.8-0.2"/>
<path class="st5" d="M443.3,380.5h3.9"/>
<path class="st5" d="M441.9,377.7h1.3"/>
<path class="st5" d="M440.5,379.4c1.5-0.1,3.2,0,4.7-0.2"/>
<path class="st5" d="M439.4,377.8h4"/>
<path class="st5" d="M436.6,376.3h4.5"/>
<path class="st5" d="M434.9,374.8h4.1"/>
<path class="st5" d="M432.7,373.2h3.8"/>
<path class="st5" d="M430.7,371.6h3.8"/>
<path class="st5" d="M477.9,406.7c1.6-0.1,3.1-0.3,4.7-0.5"/>
<path class="st5" d="M480.5,407.9c1.6-0.1,3.1-0.3,4.7-0.5"/>
<path class="st5" d="M475.3,405.2c1.8-0.1,3.5-0.4,5.3-0.6"/>
<path class="st5" d="M473.9,403.9c0.3,0,4-0.7,4.3-0.7"/>
<path class="st5" d="M472.2,402.6c1.4-0.1,2.9-0.3,4.3-0.5"/>
<path class="st5" d="M470.8,401.1c1.3-0.2,2.8-0.3,4-0.4"/>
<path class="st5" d="M468.1,399.4l5.5,0.1"/>
<path class="st5" d="M466.2,397.8c1.1,0,3.7-0.1,4.8-0.1"/>
<path class="st5" d="M464.4,395.9l3.9,0.1"/>
<path class="st5" d="M463.1,393.1h1.3"/>
<path class="st5" d="M461.6,394.7c1.5-0.1,3.2,0.1,4.7-0.1"/>
<path class="st5" d="M460.6,393.1l4,0.1"/>
<path class="st5" d="M457.8,391.5l4.5,0.1"/>
<path class="st5" d="M456.1,390l4.1,0.1"/>
<path class="st5" d="M454,388.4l3.8,0.1"/>
<path class="st5" d="M451.9,386.7l3.8,0.1"/>
<path class="st5" d="M488.4,414.1l4.5,0.1"/>
<path class="st5" d="M486.8,412.6l4.1,0.1"/>
<path class="st5" d="M484.6,411l3.8,0.1"/>
<path class="st5" d="M482.5,409.3l3.8,0.1"/>
<g class="st8">
	<path class="st4" d="M126.3,571.1c5.5,3.7,11.9,5.7,18.6,5.9c10.2,0,15-5.4,15-12.2c0-7.1-4-11-14.4-15.1
		c-13.9-5.3-20.4-13.4-20.4-23.2c0-13.2,10.1-24.1,26.7-24.1c6.7-0.1,13.2,1.7,19,5.1l-3.5,10.8c-4.7-3.1-10.2-4.7-15.8-4.8
		c-8.3,0-13,5.1-13,11.2c0,6.8,4.6,9.8,14.7,13.9c13.4,5.4,20.3,12.5,20.3,24.8c0,14.4-10.6,24.6-29,24.6c-8.5,0-16.3-2.2-21.8-5.6
		L126.3,571.1z"/>
	<path class="st4" d="M188.4,531.1c0-10.5-0.3-19-0.6-26.8h12.6l0.6,14.1h0.3c5.8-10,14.9-15.9,27.5-15.9
		c18.7,0,32.8,16.8,32.8,41.7c0,29.5-17,44.1-35.2,44.1c-10.2,0-19.2-4.8-23.8-12.9h-0.3V620h-13.9V531.1z M202.3,553
		c0,2,0.3,4.1,0.6,6.1c2.6,10.3,11,17.5,21.1,17.5c14.9,0,23.5-12.9,23.5-31.7c0-16.5-8.2-30.5-23-30.5c-9.6,0-18.6,7.3-21.3,18.5
		c-0.6,2-0.9,4-1,6.1V553z"/>
	<path class="st4" d="M319.1,586.4L318,576h-0.5c-5.4,7.8-14.2,12.3-23.7,12.2c-15.7,0-23.7-11.7-23.7-23.6
		c0-19.8,16.6-30.7,46.6-30.5v-1.7c0-6.8-1.8-19-17.6-19c-7.2,0-14.2,2.2-20.2,6.1l-3.2-9.8c6.4-4.4,15.7-7.3,25.5-7.3
		c23.7,0,29.4,17.1,29.4,33.6v30.7c-0.1,6.6,0.3,13.2,1.3,19.7L319.1,586.4z M317,544.5c-15.4-0.3-32.8,2.5-32.8,18.5
		c0,9.7,6.1,14.2,13.3,14.2c8.6,0.1,16.2-5.5,18.7-13.7c0.5-1.5,0.8-3.1,0.8-4.7V544.5z"/>
	<path class="st4" d="M350.1,529.9c0-9.7-0.2-18-0.6-25.6h12.3l0.5,16.1h0.6c3.5-11,12-18,21.4-18c1.4,0,2.7,0.2,4,0.5V517
		c-1.6-0.4-3.2-0.5-4.8-0.5c-9.9,0-17,8-18.9,19.2c-0.4,2.3-0.6,4.7-0.6,7v43.8h-13.9V529.9z"/>
	<path class="st4" d="M413.8,542h0.3c1.9-2.9,4.6-6.4,6.9-9.3l22.7-28.4h17L430.8,538l34.1,48.3h-17.2L421,547l-7.2,8.5v30.9h-13.9
		V466h13.9V542z"/>
	<path class="st4" d="M474.4,466h14.1v120.4h-14.1V466z"/>
	<path class="st4" d="M514.1,504.3l17,48.5c1.8,5.4,3.7,11.9,5,16.8h0.3c1.4-4.9,3-11.2,5-17.1l15.4-48.2h14.9l-21.1,58.5
		c-10.1,28.2-17,42.6-26.6,51.4c-6.9,6.5-13.8,9-17.3,9.7l-3.5-12.5c4.5-1.6,8.6-4.1,12.2-7.3c5.2-4.6,9.2-10.2,11.8-16.6
		c0.6-1.1,0.9-2.3,1.1-3.6c-0.1-1.3-0.5-2.7-1-3.9l-28.6-75.6H514.1z"/>
	<path class="st4" d="M581.1,529.9c0-9.7-0.2-18-0.6-25.6h12.3l0.5,16.1h0.6c3.5-11,12-18,21.4-18c1.4,0,2.7,0.2,4,0.5V517
		c-1.6-0.4-3.2-0.5-4.8-0.5c-9.9,0-17,8-18.9,19.2c-0.4,2.3-0.6,4.7-0.6,7v43.8h-13.9V529.9z"/>
</g>
<path class="st5" d="M492.5,249.2c1.5,0.1,3.1,0.4,4.6,0.6"/>
<path class="st5" d="M490.9,250.8c1.4,0.3,3,0.4,4.3,0.6"/>
<path class="st5" d="M488,252.6h5.9"/>
<path class="st5" d="M485.9,254.3c1.2,0,4,0.2,5.1,0.2"/>
<path class="st5" d="M483.9,256.3h4.2"/>
<path class="st5" d="M482.4,259.3h1.4"/>
<path class="st5" d="M480.9,257.5c1.6,0.1,3.4,0,5,0.2"/>
<path class="st5" d="M479.7,259.1h4.3"/>
<path class="st5" d="M476.7,260.8h4.9"/>
<path class="st5" d="M474.9,262.4h4.4"/>
<path class="st5" d="M472.5,264.1h4.1"/>
<path class="st5" d="M470.3,265.9h4.1"/>
<path class="st5" d="M467.5,267.7h4.2"/>
<path class="st5" d="M466,270.7h1.4"/>
<path class="st5" d="M464.5,269c1.6,0.1,3.4,0,5,0.2"/>
<path class="st5" d="M463.3,270.6h4.3"/>
<path class="st5" d="M460.3,272.2h4.9"/>
<path class="st5" d="M458.5,273.9h4.4"/>
<path class="st5" d="M455.7,275.2c1.5,0.1,3.1,0.4,4.6,0.6"/>
<path class="st5" d="M454.1,276.8c1.4,0.3,3,0.4,4.3,0.6"/>
<path class="st5" d="M451.2,278.6h5.9"/>
<path class="st5" d="M449.1,280.3c1.2,0,4,0.2,5.1,0.2"/>
<path class="st5" d="M447.1,282.3h4.2"/>
<path class="st5" d="M445.6,285.3h1.4"/>
<path class="st5" d="M444,283.5c1.6,0.1,3.4,0,5,0.2"/>
<path class="st5" d="M442.9,285.1h4.3"/>
<path class="st5" d="M439.9,286.8h4.9"/>
<path class="st5" d="M438.1,288.4h4.4"/>
<path class="st5" d="M435.7,290.1h4.1"/>
<path class="st5" d="M433.5,291.9h4.1"/>
<path class="st5" d="M430.6,293.2c1.7,0.1,3.4,0.4,5,0.6"/>
<path class="st5" d="M406.3,250.1c-1.3,1.3-2.4,2.7-3.6,4.1"/>
<path class="st5" d="M408.9,250.3c-1,1.3-2.3,2.6-3.4,3.8"/>
<path class="st5" d="M412.8,249.7l-5.2,4.5"/>
<path class="st5" d="M416,249.6c-1,0.9-3.4,3.2-4.4,4.1"/>
<path class="st5" d="M419.3,249.8l-3.8,3.2"/>
<path class="st5" d="M422.9,251.4l-1.3,1.1"/>
<path class="st5" d="M423,248.6c-1.3,1.4-3,2.6-4.3,4"/>
<path class="st5" d="M425.2,249.2l-3.9,3.3"/>
<path class="st5" d="M429.2,248.4l-4.4,3.7"/>
<path class="st5" d="M432,248.4l-3.9,3.4"/>
<path class="st5" d="M435.4,248.1l-3.7,3.1"/>
<path class="st5" d="M438.8,248l-3.7,3.1"/>
<path class="st5" d="M442.6,247.6l-3.8,3.2"/>
<path class="st5" d="M446.2,249.1l-1.2,1.1"/>
<path class="st5" d="M446.3,246.4c-1.3,1.4-3,2.6-4.3,4"/>
<path class="st5" d="M448.6,247l-3.9,3.3"/>
<path class="st5" d="M452.5,246.1l-4.4,3.7"/>
<path class="st5" d="M455.4,246.2l-3.9,3.4"/>
<path class="st5" d="M458.9,245.2c-1.3,1.3-2.4,2.7-3.6,4.1"/>
<path class="st5" d="M461.5,245.4c-1,1.3-2.3,2.6-3.4,3.8"/>
<path class="st5" d="M465.4,244.8l-5.2,4.5"/>
<path class="st5" d="M468.6,244.7c-1,0.9-3.4,3.2-4.4,4.1"/>
<path class="st5" d="M471.9,245l-3.8,3.2"/>
<path class="st5" d="M475.5,246.5l-1.3,1.1"/>
<path class="st5" d="M475.6,243.7c-1.3,1.4-3.1,2.6-4.3,4"/>
<path class="st5" d="M477.8,244.3l-3.8,3.3"/>
<path class="st5" d="M481.8,243.5l-4.4,3.7"/>
<path class="st5" d="M484.6,243.6l-3.9,3.4"/>
<path class="st5" d="M488,243.2l-3.7,3.1"/>
<path class="st5" d="M491.4,243.1l-3.7,3.1"/>
<path class="st5" d="M494.9,242.1c-1.4,1.4-2.7,2.9-4,4.4"/>
<path class="st5" d="M412.5,217.5c1.4-0.8,2.9-1.6,4.3-2.3"/>
<path class="st5" d="M412.1,219.8c1.4-0.7,2.8-1.5,4-2.2"/>
<path class="st5" d="M410.8,223.1l5-3.7"/>
<path class="st5" d="M410.1,225.9c1-0.7,3.5-2.3,4.5-3"/>
<path class="st5" d="M409.6,228.9l3.6-2.6"/>
<path class="st5" d="M410.2,232.4l1.2-0.9"/>
<path class="st5" d="M407.8,231.8c1.5-0.9,2.9-2.2,4.4-3"/>
<path class="st5" d="M407.9,234l3.7-2.7"/>
<path class="st5" d="M406.3,237.2l4.2-3.1"/>
<path class="st5" d="M405.8,239.8l3.8-2.8"/>
<path class="st5" d="M404.8,242.7l3.5-2.6"/>
<path class="st5" d="M404,245.6l3.5-2.6"/>
<path class="st5" d="M402.9,248.9l3.6-2.6"/>
<path class="st5" d="M401.1,251.9c1.5-0.9,2.9-2.1,4.4-3"/>
<path class="st5" d="M406.8,208.3c1.6-0.1,3.3,0,4.9,0"/>
<path class="st5" d="M405.4,210.1c1.5,0.1,3.2,0,4.6,0"/>
<path class="st5" d="M402.6,212.4l6.2-0.8"/>
<path class="st5" d="M400.7,214.5c1.2-0.2,4.2-0.3,5.4-0.5"/>
<path class="st5" d="M398.8,216.9l4.4-0.6"/>
<path class="st5" d="M397.7,220.2l1.5-0.2"/>
<path class="st5" d="M395.8,218.6c1.7-0.1,3.6-0.5,5.3-0.5"/>
<path class="st5" d="M394.8,220.5l4.5-0.6"/>
<path class="st5" d="M391.9,222.6l5.1-0.7"/>
<path class="st5" d="M390.2,224.6l4.6-0.6"/>
<path class="st5" d="M388,226.6l4.3-0.6"/>
<path class="st5" d="M385.9,228.8l4.3-0.6"/>
<path class="st5" d="M383.3,231.2l4.4-0.6"/>
<path class="st5" d="M380.3,232.9c1.7-0.1,3.6-0.5,5.3-0.5"/>
<path class="st5" d="M415.1,199.5l4.3-0.6"/>
<path class="st5" d="M413,201.7l4.3-0.6"/>
<path class="st5" d="M410.4,204l4.4-0.6"/>
<path class="st5" d="M408.5,205.8c1.7-0.1,2.5-0.5,4.2-0.5"/>
<path class="st5" d="M259.7,217.2c-1.6-0.4-3.2-0.7-4.8-1.1"/>
<path class="st5" d="M260.7,219.4c-1.5-0.3-3.1-0.7-4.5-1"/>
<path class="st5" d="M262.9,222.2l-5.8-2.2"/>
<path class="st5" d="M264.4,224.6c-1.2-0.4-4-1.2-5.2-1.7"/>
<path class="st5" d="M265.6,227.4l-4.2-1.6"/>
<path class="st5" d="M266,230.9l-1.4-0.5"/>
<path class="st5" d="M268.2,229.7c-1.7-0.4-3.4-1.3-5-1.6"/>
<path class="st5" d="M268.7,231.8l-4.3-1.6"/>
<path class="st5" d="M271.1,234.5l-4.8-1.8"/>
<path class="st5" d="M272.3,236.8l-4.4-1.6"/>
<path class="st5" d="M274.1,239.3l-4.1-1.5"/>
<path class="st5" d="M275.6,241.9l-4.1-1.5"/>
<path class="st5" d="M280.3,246.5c-1.7-0.5-3.5-0.9-5.2-1.2"/>
<path class="st5" d="M277.9,244.2c-1.7-0.5-3.5-0.9-5.2-1.2"/>
<path class="st5" d="M282.6,249.1c-1.9-0.6-3.9-0.9-5.9-1.3"/>
<path class="st5" d="M283.5,251c-0.4-0.1-4.5-0.8-4.9-0.9"/>
<path class="st5" d="M284.9,253c-1.6-0.4-3.2-0.7-4.8-1.1"/>
<path class="st5" d="M285.9,255.1c-1.5-0.3-3.1-0.7-4.5-1"/>
<path class="st5" d="M288.1,258l-5.8-2.2"/>
<path class="st5" d="M289.5,260.4c-1.2-0.4-4-1.2-5.2-1.7"/>
<path class="st5" d="M290.8,263.1l-4.2-1.6"/>
<path class="st5" d="M291.2,266.7l-1.4-0.5"/>
<path class="st5" d="M293.4,265.5c-1.6-0.4-3.4-1.3-5-1.6"/>
<path class="st5" d="M293.9,267.5l-4.3-1.5"/>
<path class="st5" d="M296.3,270.3l-4.8-1.8"/>
<path class="st5" d="M297.5,272.6l-4.4-1.6"/>
<path class="st5" d="M299.2,275.1l-4.1-1.5"/>
<path class="st5" d="M157.8,328.5c-1.5-0.6-3-1.3-4.5-2"/>
<path class="st5" d="M159.8,327.4c-1.4-0.7-2.9-1.3-4.2-1.8"/>
<path class="st5" d="M163.3,326.4l-6-1.7"/>
<path class="st5" d="M165.9,325.3c-1.2-0.3-4-1.4-5.2-1.7"/>
<path class="st5" d="M168.5,323.8l-4.3-1.2"/>
<path class="st5" d="M170.9,321.2l-1.4-0.4"/>
<path class="st5" d="M172,323.4c-1.6-0.6-3.5-1-5-1.6"/>
<path class="st5" d="M173.6,322.1l-4.4-1.2"/>
<path class="st5" d="M177.2,321.3l-5-1.4"/>
<path class="st5" d="M179.5,320.1l-4.5-1.3"/>
<path class="st5" d="M182.4,319.2l-4.2-1.2"/>
<path class="st5" d="M185.1,318l-4.1-1.2"/>
<path class="st5" d="M191.6,317.1c-1.7-0.6-3.3-1.4-4.9-2.1"/>
<path class="st5" d="M188.4,317.4c-1.7-0.6-3.3-1.4-4.9-2.1"/>
<path class="st5" d="M195,316.3c-1.9-0.7-3.7-1.6-5.6-2.4"/>
<path class="st5" d="M196.9,315.3c-0.4-0.1-4.1-2-4.4-2.2"/>
<path class="st5" d="M199.2,314.5c-1.5-0.6-3-1.3-4.5-2"/>
<path class="st5" d="M201.3,313.4c-1.3-0.7-2.9-1.3-4.2-1.8"/>
<path class="st5" d="M204.7,312.4l-6-1.7"/>
<path class="st5" d="M207.3,311.2c-1.2-0.3-4-1.4-5.2-1.7"/>
<path class="st5" d="M209.9,309.8l-4.3-1.2"/>
<path class="st5" d="M212.3,307.2l-1.4-0.4"/>
<path class="st5" d="M213.4,309.4c-1.6-0.6-3.5-1-5-1.6"/>
<path class="st5" d="M215,308.1l-4.4-1.2"/>
<path class="st5" d="M218.6,307.3l-5-1.4"/>
<path class="st5" d="M220.9,306.1l-4.5-1.3"/>
<path class="st5" d="M223.8,305.1l-4.2-1.1"/>
<path class="st5" d="M228.3,304c-1.5-0.6-3-1.3-4.5-2"/>
<path class="st5" d="M230.3,302.9c-1.4-0.7-2.9-1.3-4.2-1.8"/>
<path class="st5" d="M233.8,301.9l-6-1.7"/>
<path class="st5" d="M236.4,300.7c-1.2-0.3-4-1.4-5.2-1.7"/>
<path class="st5" d="M239,299.3l-4.3-1.2"/>
<path class="st5" d="M241.4,296.7l-1.4-0.4"/>
<path class="st5" d="M242.5,298.9c-1.6-0.6-3.5-1-5-1.7"/>
<path class="st5" d="M244.1,297.5l-4.4-1.2"/>
<path class="st5" d="M247.7,296.8l-5-1.4"/>
<path class="st5" d="M250,295.6l-4.5-1.3"/>
<path class="st5" d="M252.9,294.6l-4.2-1.2"/>
<path class="st5" d="M255.6,293.4l-4.2-1.2"/>
<path class="st5" d="M262.1,292.5c-1.7-0.6-3.3-1.4-4.9-2.1"/>
<path class="st5" d="M258.9,292.9c-1.7-0.6-3.3-1.4-4.9-2.1"/>
<path class="st5" d="M265.5,291.8c-1.9-0.7-3.7-1.6-5.5-2.4"/>
<path class="st5" d="M267.4,290.8c-0.4-0.1-4.1-2-4.4-2.2"/>
<path class="st5" d="M269.7,289.9c-1.5-0.6-3-1.3-4.5-2"/>
<path class="st5" d="M271.8,288.8c-1.3-0.7-2.9-1.3-4.2-1.8"/>
<path class="st5" d="M275.2,287.8l-6-1.7"/>
<path class="st5" d="M277.8,286.7c-1.2-0.3-4-1.4-5.2-1.7"/>
<path class="st5" d="M280.4,285.2l-4.3-1.2"/>
<path class="st5" d="M282.8,282.6l-1.4-0.4"/>
<path class="st5" d="M283.9,284.9c-1.6-0.6-3.5-1-5-1.6"/>
<path class="st5" d="M285.5,283.5l-4.4-1.2"/>
<path class="st5" d="M289.1,282.7l-5-1.4"/>
<path class="st5" d="M291.4,281.6l-4.5-1.3"/>
<path class="st5" d="M294.3,280.6l-4.2-1.2"/>
<path class="st5" d="M160.1,327.3c-1.2,1-2.4,2.2-3.6,3.3"/>
<path class="st5" d="M162.4,327.7c-1.1,1.1-2.3,2.2-3.4,3.1"/>
<path class="st5" d="M166,327.5l-5.1,3.5"/>
<path class="st5" d="M168.8,327.8c-1,0.7-3.3,2.6-4.3,3.3"/>
<path class="st5" d="M171.8,328.3l-3.7,2.5"/>
<path class="st5" d="M174.9,330l-1.2,0.9"/>
<path class="st5" d="M175.2,327.5c-1.3,1.1-3,2-4.2,3.2"/>
<path class="st5" d="M177.2,328.2l-3.8,2.6"/>
<path class="st5" d="M180.8,327.8l-4.2,2.9"/>
<path class="st5" d="M183.4,328.2l-3.8,2.7"/>
<path class="st5" d="M186.4,328.2l-3.6,2.5"/>
<path class="st5" d="M189.4,328.4l-3.6,2.5"/>
<path class="st5" d="M195.9,327.2c-1.4,1.1-2.7,2.4-4,3.6"/>
<path class="st5" d="M192.7,327.9c-1.4,1.1-2.7,2.4-4,3.6"/>
<path class="st5" d="M199.3,326.8c-1.6,1.2-3,2.7-4.5,4.1"/>
<path class="st5" d="M201.4,327.1c-0.3,0.2-3.2,3.2-3.5,3.5"/>
<path class="st5" d="M203.9,327.1c-1.2,1-2.4,2.2-3.6,3.3"/>
<path class="st5" d="M206.2,327.5c-1.1,1.1-2.3,2.1-3.4,3.1"/>
<path class="st5" d="M209.7,327.4l-5.1,3.5"/>
<path class="st5" d="M212.6,327.6c-1,0.7-3.3,2.6-4.3,3.3"/>
<path class="st5" d="M215.5,328.1l-3.7,2.5"/>
<path class="st5" d="M218.6,329.8l-1.2,0.9"/>
<path class="st5" d="M218.9,327.3c-1.3,1.1-3,2-4.2,3.2"/>
<path class="st5" d="M220.9,328.1l-3.8,2.6"/>
<path class="st5" d="M224.5,327.7l-4.2,2.9"/>
<path class="st5" d="M227.1,328l-3.8,2.6"/>
<path class="st5" d="M230.2,328l-3.6,2.5"/>
<path class="st5" d="M234.8,327.7c-1.2,1.1-2.4,2.2-3.6,3.3"/>
<path class="st5" d="M237.1,328c-1.1,1.1-2.3,2.2-3.4,3.1"/>
<path class="st5" d="M240.7,327.9l-5.1,3.5"/>
<path class="st5" d="M243.5,328.1c-1,0.7-3.3,2.6-4.3,3.3"/>
<path class="st5" d="M246.4,328.6l-3.7,2.5"/>
<path class="st5" d="M249.6,330.3l-1.2,0.9"/>
<path class="st5" d="M249.9,327.9c-1.3,1.1-3,2-4.2,3.2"/>
<path class="st5" d="M251.8,328.6l-3.8,2.6"/>
<path class="st5" d="M255.4,328.2l-4.2,2.9"/>
<path class="st5" d="M258,328.5l-3.8,2.7"/>
<path class="st5" d="M261.1,328.5l-3.6,2.5"/>
<path class="st5" d="M264.1,328.8l-3.6,2.5"/>
<path class="st5" d="M270.5,327.5c-1.4,1.1-2.7,2.4-4,3.6"/>
<path class="st5" d="M267.3,328.2c-0.9,0.7-1.7,1.4-2.5,2.2"/>
<path class="st5" d="M274,327.2c-1.6,1.3-3,2.7-4.5,4.1"/>
<path class="st5" d="M276.1,327.5c-0.3,0.2-3.2,3.3-3.5,3.5"/>
<path class="st5" d="M278.5,327.5c-1.2,1-2.4,2.2-3.6,3.3"/>
<path class="st5" d="M280.8,327.9c-1.1,1.1-2.3,2.2-3.4,3.1"/>
<path class="st5" d="M284.4,327.7l-5.1,3.5"/>
<path class="st5" d="M287.2,328c-1,0.7-3.3,2.6-4.3,3.3"/>
<path class="st5" d="M290.2,328.5l-3.7,2.5"/>
<path class="st5" d="M293.3,330.2l-1.2,0.9"/>
<path class="st5" d="M293.6,327.7c-1.3,1.1-3,2-4.2,3.2"/>
<path class="st5" d="M295.6,328.4l-3.8,2.6"/>
<path class="st5" d="M299.2,328l-4.2,3"/>
<path class="st5" d="M301.7,328.4l-3.8,2.7"/>
<path class="st5" d="M323.2,141.1c-1.1-1.2-2.2-2.4-3.4-3.6"/>
<path class="st5" d="M322.8,144.3c-1.1-1.1-2.1-2.2-3.1-3.3"/>
<path class="st5" d="M323.1,149.3l-3.6-5.1"/>
<path class="st5" d="M322.8,153.2c-1-1.4-2.1-2.7-3.2-4.1"/>
<path class="st5" d="M322.1,157.3l-2.4-3.4"/>
<path class="st5" d="M323.2,162c-1.4-1.6-2.5-3.4-3.8-5"/>
<path class="st5" d="M322.2,164.8l-3.3-4.7"/>
<path class="st5" d="M322.9,169.8l-3-4.3"/>
<path class="st5" d="M322.4,173.4l-3.8-5.3"/>
<path class="st5" d="M322.5,177.6l-3.5-4.9"/>
<path class="st5" d="M322.2,181.8l-2.8-4"/>
<path class="st5" d="M324,190.8c-1.6-1.9-3.3-3.7-5-5.5"/>
<path class="st5" d="M323,186.3c-1.6-1.9-1.8-2.1-3.5-3.8"/>
<path class="st5" d="M324.6,195.5c-1.5-1.8-3.2-3.5-4.8-5.2"/>
<path class="st5" d="M324.2,198.5c-0.3-0.4-4.6-4.4-4.9-4.8"/>
<path class="st5" d="M324.2,201.9c-1.5-1.7-3.1-3.3-4.7-4.9"/>
<path class="st5" d="M323.7,205.1c-1.5-1.5-3-3.2-4.4-4.7"/>
<path class="st5" d="M324,210.1l-4.3-6.1"/>
<path class="st5" d="M323.8,214c-1-1.4-3.1-3.8-4.1-5.2"/>
<path class="st5" d="M323.1,218.1l-3.6-5.1"/>
<path class="st5" d="M320.8,222.5l-1.2-1.7"/>
<path class="st5" d="M324.2,222.8c-1.6-1.8-2.9-4.1-4.5-5.8"/>
<path class="st5" d="M323.2,225.6l-3.7-5.2"/>
<path class="st5" d="M323.8,230.6l-4.2-5.9"/>
<path class="st5" d="M323.4,234.2l-3.8-5.3"/>
<path class="st5" d="M323.5,238.4l-3.5-4.9"/>
<path class="st5" d="M323.2,242.6l-3.5-4.9"/>
<path class="st5" d="M323.3,247.5l-3.6-5.1"/>
<path class="st5" d="M324.4,252.2c-1.6-1.8-2.9-4.1-4.5-5.8"/>
<path class="st5" d="M343.2,190.2l-5.7-2"/>
<path class="st5" d="M349.9,196.5c-2.4-0.6-4.8-1.1-7.3-1.6"/>
<path class="st5" d="M346.5,193.4c-2.4-0.6-4.8-1.1-7.3-1.6"/>
<path class="st5" d="M353.1,200.1c-2.7-0.8-5.5-1.2-8.2-1.7"/>
<path class="st5" d="M354.4,202.7c-0.5-0.2-6.3-0.9-6.8-1.1"/>
<path class="st5" d="M356.4,205.5c-2.2-0.6-4.5-0.9-6.7-1.3"/>
<path class="st5" d="M357.9,208.4c-2.1-0.3-4.3-0.8-6.3-1.3"/>
<path class="st5" d="M361,212.2l-8.2-2.9"/>
<path class="st5" d="M363,215.6c-1.6-0.6-5.6-1.6-7.2-2.2"/>
<path class="st5" d="M364.9,219.4l-5.9-2"/>
<path class="st5" d="M365.5,224.2l-2-0.7"/>
<path class="st5" d="M368.5,222.6c-2.3-0.6-4.7-1.7-7.1-2.1"/>
<path class="st5" d="M369.3,225.4l-6-2.1"/>
<path class="st5" d="M372.7,229.1l-6.8-2.4"/>
<path class="st5" d="M374.4,232.3l-6.1-2.1"/>
<path class="st5" d="M376.9,235.7l-5.7-2"/>
<path class="st5" d="M379.1,239.3l-5.7-2"/>
<path class="st5" d="M382,243.3l-5.9-2.1"/>
</svg>
