<svg id="Layer_1" data-name="Layer 1" xmlns="http://www.w3.org/2000/svg" xmlns:xlink="http://www.w3.org/1999/xlink" viewBox="0 0 735 852"><defs><style>.cls-1,.cls-14,.cls-15,.cls-16{fill:none;}.cls-2{clip-path:url(#clip-path);}.cls-3{fill:#ed7d15;}.cls-4{opacity:0.25;fill:url(#linear-gradient);}.cls-5{fill:#ac5d12;}.cls-6{fill:#e6b35a;}.cls-7{font-size:25px;}.cls-13,.cls-18,.cls-7{fill:#fff;}.cls-18,.cls-7{font-family:MyriadPro-Regular, Myriad Pro;}.cls-8{letter-spacing:0.01em;}.cls-9{letter-spacing:-0.04em;}.cls-10{letter-spacing:-0.02em;}.cls-11{letter-spacing:-0.01em;}.cls-12{letter-spacing:0em;}.cls-14,.cls-15,.cls-16{stroke:#ac5d12;stroke-miterlimit:10;}.cls-15{stroke-width:0.8px;}.cls-16{stroke-width:0.9px;}.cls-17{opacity:0.94;}.cls-18{font-size:160px;letter-spacing:-0.02em;}.cls-19{letter-spacing:-0.02em;}.cls-20{letter-spacing:0em;}</style><clipPath id="clip-path"><polygon class="cls-1" points="369.51 7.4 728.21 214.47 728.21 636.62 369.51 845.03 2.79 636.62 2.79 214.47 369.51 7.4"/></clipPath><linearGradient id="linear-gradient" x1="366.25" y1="-122.39" x2="367.55" y2="341.13" gradientUnits="userSpaceOnUse"><stop offset="0" stop-color="#fff" stop-opacity="0.83"/><stop offset="0.56" stop-color="#fff" stop-opacity="0.37"/><stop offset="1" stop-color="#fff" stop-opacity="0"/></linearGradient></defs><title> </title><g class="cls-2"><circle class="cls-3" cx="365.5" cy="437.45" r="442.13"/><ellipse class="cls-4" cx="366.89" cy="105.8" rx="315.24" ry="234.63"/></g><path class="cls-5" d="M705.61,196.21,427.81,35.82,367.5,1,307.19,35.82,29.37,196.22.09,213.13V637.38l29.28,16.91,281.28,162.4,56.85,32.82,56.85-32.82L705.61,654.3l29.3-16.92V213.13Zm0,425.26L367.49,816.68,29.37,621.47V231L367.49,35.82h0L705.61,231Z"/><path class="cls-6" d="M367,633.9c.29-.29.6-.59.93-.89h-.26Z"/><text class="cls-7" transform="matrix(0.86, -0.5, 0.5, 0.86, 369.28, 809.1)"><tspan class="cls-8">ww</tspan><tspan class="cls-9" x="37.4" y="0">w</tspan><tspan x="54.82" y="0">.rstudi</tspan><tspan class="cls-10" x="120.07" y="0">o</tspan><tspan x="133.2" y="0">.</tspan><tspan class="cls-11" x="138.37" y="0">c</tspan><tspan class="cls-12" x="149.42" y="0">om</tspan></text><path class="cls-13" d="M318.9,353.32l-56.68,37.35L300.5,331.3,140,330.36l157.33-54-49.76-67.94,72.56,42.16-1.35-134,60.64,118.12,71.38-70.36-40.34,81.92,146.53-22.9L438.4,298.72l49.33,33.2-60.65-9.45,77.79,104L380.5,334.87l-80,116.33Zm5.37,40,52.26-68.74,69.74,43.76L413.37,314l32.31,1.31-20.21-18.18L496.36,246l-97.3,8.7,14.77-38.32-34.34,28.84-44.14-58.95-6.7,75-42.38-17.24,23.29,36.06-89,37.37,91.35,5.73L296.62,355l31.86-15.26Z"/><path class="cls-5" d="M319.52,119.71l59.66,116.2,68.94-68-39,79.24,144.4-22.56L437,298.71l47.48,32-59.14-9.22L501.23,422.9,380.32,333.81,301.9,447.86,320,351.72l-55.18,36.36,37.08-57.53-157.48-.92L298.5,276.71l-48.25-65.87,70.6,41-1.34-132.15M328,260.23l-43.64-17.75,24.1,37.31-91.1,38.26,93.43,5.86L295,356.64,327.63,341l-4.3,54.76,53.39-70.22,71.84,45.07-33.82-55.83,33,1.34L426.67,297.2,499,245l-98.83,8.83,15.38-39.92-36,30.2-44.84-59.88-6.78,76M318,113.38l.06,6.35,1.31,129.51L251,209.55l-6.2-3.6,4.24,5.79,47,64.23L143.9,328.21l-8.35,2.87,8.83.05,154.75.91-35.6,55.23-3.86,6,5.94-3.92,52.23-34.42-17.41,92.66-1.31,7,4-5.85,77.54-112.77,119.66,88.17,8.16,6L502.43,422l-73.65-98.51,55.5,8.65,6.66,1-5.59-3.76-45.58-30.68L554.31,225.9l6.06-3.86-7.1,1.11L411.72,245.27l37.75-76.65,3.92-8-6.32,6.23-67.49,66.53L320.85,119l-2.9-5.65Zm11.35,149,.18-2,6.43-72.09L378.41,245l1,1.27,1.21-1,31.5-26.46L398.79,253.3l-.87,2.25,2.4-.21L493.71,247l-67.92,49-1.51,1.09,1.38,1.24,18,16.17-28.84-1.17-2.79-.11,1.45,2.39L444,366,377.52,324.3l-1.16-.73-.83,1.09-50.3,66.16,3.9-49.67.2-2.59L327,339.67l-28.76,13.77,13.91-28.88,1-2-2.22-.14-87-5.46L309,281.17l1.65-.69-1-1.5-21.52-33.31,39.24,16,1.88.76Z"/><path class="cls-14" d="M283.75,357.2c1.49-.49,3-.88,4.53-1.26"/><path class="cls-14" d="M285.77,355.17c1.49-.49,3-.88,4.53-1.26"/><path class="cls-14" d="M281.84,359.59c1.68-.58,3.41-1,5.13-1.4"/><path class="cls-14" d="M281.09,361.3c.31-.13,3.93-.84,4.25-.94"/><path class="cls-14" d="M279.95,363.13c1.37-.43,2.77-.74,4.16-1.1"/><path class="cls-14" d="M279.14,365c1.29-.28,2.69-.7,3.91-1.07"/><path class="cls-14" d="M277.32,367.59l5-2.12"/><path class="cls-14" d="M276.16,369.8c1-.42,3.48-1.23,4.48-1.65"/><path class="cls-14" d="M275.14,372.24l3.62-1.52"/><path class="cls-14" d="M274.94,375.34l1.22-.51"/><path class="cls-14" d="M273,374.4c1.44-.45,2.91-1.25,4.37-1.63"/><path class="cls-14" d="M272.58,376.22l3.7-1.56"/><path class="cls-14" d="M270.57,378.71l4.19-1.76"/><path class="cls-14" d="M269.63,380.77l3.78-1.59"/><path class="cls-14" d="M268.16,383l3.53-1.48"/><path class="cls-14" d="M266.91,385.37l3.53-1.48"/><path class="cls-14" d="M299.36,332.77c1.29-.28,2.69-.7,3.91-1.07"/><path class="cls-14" d="M297.53,335.33l5-2.12"/><path class="cls-14" d="M296.38,337.55c1-.42,3.48-1.23,4.48-1.65"/><path class="cls-14" d="M295.35,340l3.62-1.52"/><path class="cls-14" d="M295.15,343.09l1.22-.51"/><path class="cls-14" d="M293.19,342.15c1.44-.45,2.91-1.25,4.37-1.63"/><path class="cls-14" d="M292.8,344l3.7-1.56"/><path class="cls-14" d="M290.79,346.46l4.19-1.76"/><path class="cls-14" d="M289.84,348.52l3.78-1.59"/><path class="cls-14" d="M288.38,350.79l3.53-1.48"/><path class="cls-14" d="M287.13,353.12l3.53-1.48"/><path class="cls-14" d="M309,408.1c1.21-1,2.48-1.92,3.75-2.83"/><path class="cls-14" d="M310.11,405.47c1.21-1,2.48-1.92,3.75-2.83"/><path class="cls-14" d="M308.07,411c1.35-1.15,2.82-2.14,4.26-3.17"/><path class="cls-14" d="M308,412.89c.24-.23,3.35-2.22,3.61-2.43"/><path class="cls-14" d="M307.61,415c1.12-.9,2.31-1.7,3.47-2.54"/><path class="cls-14" d="M307.55,417.06c1.1-.74,2.25-1.63,3.25-2.43"/><path class="cls-14" d="M306.79,420.12l3.92-3.82"/><path class="cls-14" d="M306.52,422.6c.78-.76,2.78-2.42,3.57-3.18"/><path class="cls-14" d="M306.46,425.25l2.81-2.74"/><path class="cls-14" d="M307.41,428.21l.94-.92"/><path class="cls-14" d="M305.24,428.05c1.17-.95,2.26-2.22,3.47-3.11"/><path class="cls-14" d="M305.54,429.88l2.87-2.8"/><path class="cls-14" d="M304.58,432.94l3.25-3.17"/><path class="cls-14" d="M304.46,435.2l2.94-2.86"/><path class="cls-14" d="M303.92,437.85l2.74-2.67"/><path class="cls-14" d="M303.6,440.47l2.74-2.67"/><path class="cls-14" d="M314,380.42c1.1-.74,2.82-2.4,3.82-3.2"/><path class="cls-14" d="M313.81,382.71l3.92-3.82"/><path class="cls-14" d="M313.54,385.19c.78-.76,2.78-2.42,3.57-3.18"/><path class="cls-14" d="M313.48,387.84l2.81-2.74"/><path class="cls-14" d="M314.43,390.8l.94-.92"/><path class="cls-14" d="M312.26,390.64c1.17-.95,2.26-2.22,3.47-3.11"/><path class="cls-14" d="M312.56,392.47l2.87-2.8"/><path class="cls-14" d="M311.6,395.53l3.25-3.17"/><path class="cls-14" d="M311.47,397.79l2.94-2.86"/><path class="cls-14" d="M310.94,400.44l2.74-2.67"/><path class="cls-14" d="M310.62,403.07l2.74-2.67"/><path class="cls-14" d="M318.64,355.05c1.1-.74,2.25-1.63,3.25-2.43"/><path class="cls-14" d="M317.88,358.11l3.92-3.82"/><path class="cls-14" d="M317.61,360.59c.78-.76,2.78-2.42,3.57-3.18"/><path class="cls-14" d="M317.55,363.23l2.81-2.74"/><path class="cls-14" d="M318.5,366.19l.94-.92"/><path class="cls-14" d="M316.33,366c1.17-.95,2.26-2.22,3.47-3.11"/><path class="cls-14" d="M316.63,367.87l2.87-2.8"/><path class="cls-14" d="M315.67,370.92l3.25-3.17"/><path class="cls-14" d="M315.54,373.19l2.94-2.86"/><path class="cls-14" d="M315,375.83l2.74-2.67"/><path class="cls-14" d="M314.16,378.62c.52-.51,2.76-2.53,3.28-3"/><path class="cls-14" d="M343,368.76c1.53-.34,3.08-.58,4.63-.81"/><path class="cls-14" d="M345.21,366.93c1.53-.34,3.08-.58,4.63-.81"/><path class="cls-14" d="M340.87,370.95c1.73-.41,3.49-.62,5.24-.89"/><path class="cls-14" d="M340,372.58c.32-.09,4-.45,4.32-.52"/><path class="cls-14" d="M338.64,374.29c1.41-.29,2.83-.47,4.25-.69"/><path class="cls-14" d="M337.65,376.09c1.31-.16,2.75-.43,4-.68"/><path class="cls-14" d="M335.58,378.47l5.23-1.62"/><path class="cls-14" d="M334.22,380.55c1-.32,3.58-.89,4.62-1.21"/><path class="cls-14" d="M333,382.88l3.75-1.16"/><path class="cls-14" d="M332.46,386l1.26-.39"/><path class="cls-14" d="M330.59,384.82c1.48-.31,3-1,4.51-1.19"/><path class="cls-14" d="M330,386.59l3.83-1.19"/><path class="cls-14" d="M327.78,388.87l4.34-1.34"/><path class="cls-14" d="M326.64,390.84l3.92-1.21"/><path class="cls-14" d="M325,392.95l3.66-1.13"/><path class="cls-14" d="M360.06,346.39c1.31-.16,3.61-.86,4.86-1.11"/><path class="cls-14" d="M358.85,348.34l5.23-1.62"/><path class="cls-14" d="M357.49,350.43c1-.32,3.58-.89,4.62-1.21"/><path class="cls-14" d="M356.23,352.76,360,351.6"/><path class="cls-14" d="M355.73,355.83l1.26-.39"/><path class="cls-14" d="M353.86,354.7c1.48-.31,3-1,4.51-1.19"/><path class="cls-14" d="M353.3,356.47l3.83-1.19"/><path class="cls-14" d="M351.05,358.75l4.34-1.34"/><path class="cls-14" d="M349.91,360.72l3.92-1.21"/><path class="cls-14" d="M348.23,362.83l3.66-1.13"/><path class="cls-14" d="M346.76,365l3.66-1.13"/><path class="cls-14" d="M370.17,332.85c1.25-.39,2.12-.53,3.37-.92"/><path class="cls-14" d="M368.68,334.64c1.48-.31,2.37-.78,3.86-1"/><path class="cls-14" d="M367.5,336.49c-.16-.07,2.38-.69,4.45-1.27"/><path class="cls-14" d="M365.87,338.69l4.34-1.34"/><path class="cls-14" d="M364.73,340.66l3.92-1.21"/><path class="cls-14" d="M363.05,342.77l3.66-1.13"/><path class="cls-14" d="M361,344.86c.69-.21,3.6-1,4.3-1.21"/><path class="cls-14" d="M430.59,341.91c.39-1.26.73-2.68,1-3.93"/><path class="cls-14" d="M431.91,344.76l.66-5.43"/><path class="cls-14" d="M433.26,346.86c.13-1.08.66-3.63.79-4.71"/><path class="cls-14" d="M434.87,349l.48-3.9"/><path class="cls-14" d="M437.47,350.68l.16-1.31"/><path class="cls-14" d="M435.8,351.17c.32-1.47.24-2.39.63-3.85"/><path class="cls-14" d="M437.06,353.16l.49-4"/><path class="cls-14" d="M438.28,355.65l.49-4"/><path class="cls-14" d="M439.54,358l.5-4.07"/><path class="cls-14" d="M440.86,359.79l.39-3.21"/><path class="cls-14" d="M417.95,321.76c.39-1.26.67-2.44.95-3.68"/><path class="cls-14" d="M419.61,323.6l.47-3.81"/><path class="cls-14" d="M420.95,325.59c.13-1.08.36-1.85.49-2.94"/><path class="cls-14" d="M422.21,328.3c.16-1.3.58-2.36.74-3.66"/><path class="cls-14" d="M425.23,329l.16-1.31"/><path class="cls-14" d="M423.44,330.19c.32-1.47.22-2.27.61-3.72"/><path class="cls-14" d="M424.73,332.16l.58-4.71"/><path class="cls-14" d="M426,334.41l.55-4.51"/><path class="cls-14" d="M427.31,336.26l.5-4.07"/><path class="cls-14" d="M428.54,338.65l.46-3.8"/><path class="cls-14" d="M429.95,340.9l.46-3.8"/><path class="cls-15" d="M433.2,303.37c0-1.06-.17-2.22-.3-3.23"/><path class="cls-15" d="M435,305.17l-1-4.27"/><path class="cls-15" d="M436.55,306.39c-.19-.85-.49-2.91-.68-3.76"/><path class="cls-15" d="M438.33,307.53l-.7-3.06"/><path class="cls-15" d="M440.75,308.12l-.23-1"/><path class="cls-15" d="M439.73,309.54c-.16-1.2-.58-2.47-.67-3.67"/><path class="cls-15" d="M441.11,310.1,440.4,307"/><path class="cls-15" d="M442.79,312l-.8-3.54"/><path class="cls-15" d="M444.29,313.06l-.73-3.2"/><path class="cls-15" d="M445.87,314.53l-.68-3"/><path class="cls-15" d="M430.16,300.35l-.73-3.2"/><path class="cls-15" d="M431.74,301.82l-.68-3"/><path class="cls-16" d="M435.75,317.21c.84-.85,1.84-1.72,2.71-2.47"/><path class="cls-16" d="M432.91,317.37l4.06-2.83"/><path class="cls-16" d="M430.66,317.18c.81-.56,2.62-2.06,3.43-2.62"/><path class="cls-16" d="M428.3,316.78l2.91-2"/><path class="cls-16" d="M425.84,315.43l1-.68"/><path class="cls-16" d="M425.6,317.39c1-.88,2.36-1.62,3.36-2.55"/><path class="cls-16" d="M424,316.81l3-2.07"/><path class="cls-16" d="M421.15,317.14l3.37-2.35"/><path class="cls-16" d="M419.12,316.86l3-2.12"/><path class="cls-16" d="M416.68,316.88l2.84-2"/><path class="cls-16" d="M440.59,317l3-2.12"/><path class="cls-16" d="M438.15,317l2.84-2"/><path class="cls-14" d="M406.69,354.29c1.56-.12,2.34-.35,3.89-.58"/><path class="cls-14" d="M408.57,355.39c1.56-.12,3.11-.35,4.66-.58"/><path class="cls-14" d="M404.39,352.68a39.71,39.71,0,0,0,4.12-.54"/><path class="cls-14" d="M402.68,351.39c.33,0,3.16-.6,3.49-.63"/><path class="cls-14" d="M401,350.16c1.43-.13,2-.26,3.38-.47"/><path class="cls-14" d="M398.65,348.85c1.3-.23,2.75-.4,4-.52"/><path class="cls-14" d="M397.5,347.19h4"/><path class="cls-14" d="M395.12,345.56c1.24-.06,2.48-.15,3.72-.17"/><path class="cls-14" d="M392.18,343.73h3.93"/><path class="cls-14" d="M390.8,340.95h1.32"/><path class="cls-14" d="M390.5,342.52a31.47,31.47,0,0,0,3.51-.13"/><path class="cls-14" d="M388.29,341.05h4"/><path class="cls-14" d="M386.77,339.53H390"/><path class="cls-14" d="M384.53,338h3.38"/><path class="cls-14" d="M382.5,336.46h2.9"/><path class="cls-14" d="M380.68,334.8h2.67"/><path class="cls-14" d="M429.74,370.82c1.3-.23,2.75-.4,4-.52"/><path class="cls-14" d="M427.07,369.15h5.47"/><path class="cls-14" d="M425.15,367.56c1.09,0,3.68-.2,4.77-.2"/><path class="cls-14" d="M423.26,365.7h3.93"/><path class="cls-14" d="M421.88,362.91h1.32"/><path class="cls-14" d="M420.43,364.54c1.5-.14,3.17,0,4.66-.18"/><path class="cls-14" d="M419.37,363h4"/><path class="cls-14" d="M416.56,361.49h4.54"/><path class="cls-14" d="M414.89,360H419"/><path class="cls-14" d="M412.66,358.43h3.83"/><path class="cls-14" d="M410.61,356.76h3.83"/><path class="cls-14" d="M449.79,385.64c1.3-.23,2.75-.4,4-.52"/><path class="cls-14" d="M447.12,384h5.47"/><path class="cls-14" d="M445.2,382.38c1.09,0,3.68-.2,4.77-.2"/><path class="cls-14" d="M443.31,380.53h3.93"/><path class="cls-14" d="M441.93,377.74h1.32"/><path class="cls-14" d="M440.48,379.36c1.5-.14,3.17,0,4.66-.18"/><path class="cls-14" d="M439.42,377.84h4"/><path class="cls-14" d="M436.61,376.32h4.54"/><path class="cls-14" d="M434.94,374.78H439"/><path class="cls-14" d="M432.72,373.25h3.83"/><path class="cls-14" d="M430.66,371.58h3.83"/><path class="cls-14" d="M477.91,406.73c1.57-.09,3.12-.29,4.68-.48"/><path class="cls-14" d="M480.54,407.88c1.57-.09,3.12-.29,4.68-.48"/><path class="cls-14" d="M475.27,405.21c1.77-.08,3.53-.36,5.28-.58"/><path class="cls-14" d="M473.94,403.88c.33,0,4-.66,4.3-.68"/><path class="cls-14" d="M472.21,402.6c1.43-.1,2.85-.32,4.28-.5"/><path class="cls-14" d="M470.77,401.14c1.3-.21,2.76-.34,4-.44"/><path class="cls-14" d="M468.13,399.42l5.47.13"/><path class="cls-14" d="M466.25,397.78c1.09,0,3.69-.13,4.78-.1"/><path class="cls-14" d="M464.4,395.88l3.92.09"/><path class="cls-14" d="M463.08,393.07l1.32,0"/><path class="cls-14" d="M461.59,394.66c1.5-.11,3.17.09,4.66-.09"/><path class="cls-14" d="M460.57,393.12l4,.09"/><path class="cls-14" d="M457.78,391.54l4.54.11"/><path class="cls-14" d="M456.15,390l4.1.1"/><path class="cls-14" d="M454,388.39l3.83.09"/><path class="cls-14" d="M451.94,386.68l3.83.09"/><path class="cls-14" d="M488.4,414.15l4.54.11"/><path class="cls-14" d="M486.76,412.58l4.1.1"/><path class="cls-14" d="M484.57,411l3.83.09"/><path class="cls-14" d="M482.55,409.29l3.83.09"/><g class="cls-17"><text class="cls-18" transform="translate(116.51 586.39) scale(1 1.06)">spa<tspan class="cls-19" x="221.92" y="0">r</tspan><tspan class="cls-20" x="271.68" y="0">k</tspan><tspan x="346.23" y="0">lyr</tspan></text></g><path class="cls-14" d="M492.48,249.24c1.54.15,3.06.42,4.59.65"/><path class="cls-14" d="M490.89,250.78c1.4.26,3,.43,4.33.57"/><path class="cls-14" d="M488,252.56h5.89"/><path class="cls-14" d="M485.94,254.27c1.18,0,4,.23,5.14.23"/><path class="cls-14" d="M483.91,256.27h4.22"/><path class="cls-14" d="M482.41,259.26h1.42"/><path class="cls-14" d="M480.86,257.51c1.61.15,3.41,0,5,.21"/><path class="cls-14" d="M479.71,259.14H484"/><path class="cls-14" d="M476.68,260.77h4.89"/><path class="cls-14" d="M474.88,262.43h4.42"/><path class="cls-14" d="M472.48,264.06h4.12"/><path class="cls-14" d="M470.27,265.85h4.12"/><path class="cls-14" d="M467.53,267.74h4.22"/><path class="cls-14" d="M466,270.73h1.42"/><path class="cls-14" d="M464.48,269c1.61.15,3.41,0,5,.21"/><path class="cls-14" d="M463.33,270.62h4.32"/><path class="cls-14" d="M460.3,272.25h4.89"/><path class="cls-14" d="M458.5,273.9h4.42"/><path class="cls-14" d="M455.67,275.25c1.54.15,3.06.42,4.59.65"/><path class="cls-14" d="M454.08,276.78c1.4.26,3,.43,4.33.57"/><path class="cls-14" d="M451.2,278.56h5.89"/><path class="cls-14" d="M449.14,280.27c1.18,0,4,.23,5.14.23"/><path class="cls-14" d="M447.1,282.27h4.22"/><path class="cls-14" d="M445.61,285.26H447"/><path class="cls-14" d="M444.05,283.51c1.61.15,3.41,0,5,.21"/><path class="cls-14" d="M442.91,285.15h4.32"/><path class="cls-14" d="M439.87,286.77h4.89"/><path class="cls-14" d="M438.08,288.43h4.42"/><path class="cls-14" d="M435.68,290.06h4.12"/><path class="cls-14" d="M433.46,291.85h4.12"/><path class="cls-14" d="M430.65,293.19c1.68.13,3.35.39,5,.64"/><path class="cls-14" d="M406.29,250.11c-1.26,1.3-2.4,2.71-3.59,4.07"/><path class="cls-14" d="M408.88,250.27c-1,1.29-2.31,2.64-3.42,3.81"/><path class="cls-14" d="M412.81,249.67l-5.24,4.49"/><path class="cls-14" d="M416,249.61c-1,.9-3.35,3.22-4.4,4.12"/><path class="cls-14" d="M419.29,249.84l-3.76,3.22"/><path class="cls-14" d="M422.9,251.37l-1.26,1.08"/><path class="cls-14" d="M423,248.62c-1.32,1.37-3.05,2.58-4.31,4"/><path class="cls-14" d="M425.22,249.21l-3.85,3.29"/><path class="cls-14" d="M429.16,248.35l-4.35,3.73"/><path class="cls-14" d="M432,248.45l-3.93,3.37"/><path class="cls-14" d="M435.41,248.08l-3.67,3.14"/><path class="cls-14" d="M438.75,248l-3.67,3.14"/><path class="cls-14" d="M442.63,247.58l-3.76,3.22"/><path class="cls-14" d="M446.24,249.11,445,250.2"/><path class="cls-14" d="M446.29,246.36c-1.32,1.37-3.05,2.58-4.31,4"/><path class="cls-14" d="M448.56,246.95l-3.85,3.29"/><path class="cls-14" d="M452.51,246.09l-4.35,3.73"/><path class="cls-14" d="M455.37,246.19l-3.93,3.37"/><path class="cls-14" d="M458.92,245.24c-1.26,1.3-2.4,2.71-3.59,4.07"/><path class="cls-14" d="M461.51,245.39c-1,1.29-2.31,2.64-3.42,3.81"/><path class="cls-14" d="M465.43,244.79l-5.24,4.49"/><path class="cls-14" d="M468.58,244.74c-1,.9-3.35,3.22-4.4,4.12"/><path class="cls-14" d="M471.91,245l-3.76,3.22"/><path class="cls-14" d="M475.52,246.49l-1.26,1.08"/><path class="cls-14" d="M475.58,243.74c-1.32,1.37-3.05,2.58-4.31,4"/><path class="cls-14" d="M477.84,244.33,474,247.62"/><path class="cls-14" d="M481.79,243.47l-4.35,3.73"/><path class="cls-14" d="M484.65,243.57l-3.93,3.37"/><path class="cls-14" d="M488,243.2l-3.67,3.14"/><path class="cls-14" d="M491.37,243.11l-3.67,3.14"/><path class="cls-14" d="M494.9,242.15c-1.4,1.4-2.69,2.9-4,4.39"/><path class="cls-14" d="M412.5,217.51c1.4-.84,2.87-1.56,4.31-2.33"/><path class="cls-14" d="M412.11,219.82c1.35-.66,2.79-1.49,4-2.23"/><path class="cls-14" d="M410.79,223.14l5-3.69"/><path class="cls-14" d="M410.1,225.9c1-.74,3.51-2.29,4.51-3"/><path class="cls-14" d="M409.62,228.87l3.59-2.65"/><path class="cls-14" d="M410.23,232.35l1.21-.89"/><path class="cls-14" d="M407.8,231.84c1.47-.88,2.89-2.16,4.4-3"/><path class="cls-14" d="M407.86,233.95l3.67-2.71"/><path class="cls-14" d="M406.3,237.24l4.16-3.06"/><path class="cls-14" d="M405.81,239.77l3.76-2.77"/><path class="cls-14" d="M404.8,242.67l3.5-2.58"/><path class="cls-14" d="M404,245.58l3.5-2.58"/><path class="cls-14" d="M402.89,248.91l3.59-2.65"/><path class="cls-14" d="M401.08,251.87c1.47-.88,2.89-2.16,4.4-3"/><path class="cls-14" d="M406.81,208.29c1.63-.06,3.26,0,4.9,0"/><path class="cls-14" d="M405.36,210.13c1.5.07,3.16,0,4.61,0"/><path class="cls-14" d="M402.6,212.4l6.17-.82"/><path class="cls-14" d="M400.67,214.48c1.23-.16,4.18-.32,5.41-.48"/><path class="cls-14" d="M398.82,216.86l4.42-.59"/><path class="cls-14" d="M397.68,220.2l1.49-.2"/><path class="cls-14" d="M395.8,218.59c1.71-.07,3.57-.5,5.28-.48"/><path class="cls-14" d="M394.83,220.46l4.52-.6"/><path class="cls-14" d="M391.88,222.6l5.12-.68"/><path class="cls-14" d="M390.23,224.58l4.63-.62"/><path class="cls-14" d="M387.95,226.63l4.31-.58"/><path class="cls-14" d="M385.88,228.82l4.31-.58"/><path class="cls-14" d="M383.28,231.18l4.42-.59"/><path class="cls-14" d="M380.26,232.91c1.71-.07,3.57-.5,5.28-.48"/><path class="cls-14" d="M415.07,199.49l4.31-.58"/><path class="cls-14" d="M413,201.67l4.31-.58"/><path class="cls-14" d="M410.4,204l4.42-.59"/><path class="cls-14" d="M408.45,205.77c1.71-.07,2.5-.5,4.21-.48"/><path class="cls-14" d="M259.74,217.25c-1.58-.42-3.19-.71-4.78-1"/><path class="cls-14" d="M260.74,219.35c-1.48-.26-3.09-.66-4.5-1"/><path class="cls-14" d="M262.94,222.18,257.11,220"/><path class="cls-14" d="M264.36,224.64c-1.16-.43-4-1.23-5.17-1.67"/><path class="cls-14" d="M265.64,227.37l-4.18-1.56"/><path class="cls-14" d="M266,230.88l-1.41-.52"/><path class="cls-14" d="M268.2,229.72c-1.66-.44-3.37-1.28-5-1.64"/><path class="cls-14" d="M268.73,231.76l-4.28-1.59"/><path class="cls-14" d="M271.13,234.5l-4.84-1.8"/><path class="cls-14" d="M272.3,236.8l-4.37-1.63"/><path class="cls-14" d="M274.08,239.3,270,237.78"/><path class="cls-14" d="M275.61,241.89l-4.08-1.52"/><path class="cls-14" d="M280.3,246.46c-1.71-.49-3.46-.85-5.21-1.22"/><path class="cls-14" d="M277.9,244.25c-1.71-.49-3.46-.85-5.21-1.22"/><path class="cls-14" d="M282.58,249.08c-1.93-.57-3.92-.93-5.89-1.34"/><path class="cls-14" d="M283.51,251c-.36-.13-4.51-.76-4.87-.87"/><path class="cls-14" d="M284.9,253c-1.58-.42-3.19-.71-4.78-1"/><path class="cls-14" d="M285.91,255.13c-1.48-.26-3.09-.66-4.5-1"/><path class="cls-14" d="M288.1,258l-5.83-2.17"/><path class="cls-14" d="M289.52,260.41c-1.16-.43-4-1.23-5.17-1.67"/><path class="cls-14" d="M290.8,263.14l-4.18-1.56"/><path class="cls-14" d="M291.17,266.66l-1.41-.52"/><path class="cls-14" d="M293.36,265.49c-1.66-.44-3.37-1.28-5-1.64"/><path class="cls-14" d="M293.89,267.54l-4.28-1.59"/><path class="cls-14" d="M296.29,270.27l-4.84-1.8"/><path class="cls-14" d="M297.46,272.57l-4.37-1.63"/><path class="cls-14" d="M299.24,275.08l-4.08-1.52"/><path class="cls-14" d="M157.78,328.51c-1.52-.59-3-1.31-4.48-2"/><path class="cls-14" d="M159.84,327.4c-1.35-.66-2.89-1.29-4.24-1.82"/><path class="cls-14" d="M163.28,326.41l-6-1.69"/><path class="cls-14" d="M165.87,325.27c-1.2-.34-4-1.37-5.16-1.71"/><path class="cls-14" d="M168.51,323.82l-4.3-1.21"/><path class="cls-14" d="M170.89,321.2l-1.44-.41"/><path class="cls-14" d="M172,323.43c-1.6-.62-3.47-1-5-1.65"/><path class="cls-14" d="M173.61,322.1l-4.39-1.24"/><path class="cls-14" d="M177.16,321.31l-5-1.41"/><path class="cls-14" d="M179.46,320.14,175,318.87"/><path class="cls-14" d="M182.37,319.17,178.18,318"/><path class="cls-14" d="M185.14,318,181,316.8"/><path class="cls-14" d="M191.62,317.06c-1.67-.62-3.3-1.36-4.92-2.09"/><path class="cls-14" d="M188.38,317.43c-1.67-.62-3.3-1.36-4.92-2.09"/><path class="cls-14" d="M195,316.29c-1.9-.68-3.71-1.57-5.55-2.4"/><path class="cls-14" d="M196.89,315.3c-.36-.11-4.09-2-4.44-2.17"/><path class="cls-14" d="M199.2,314.48c-1.52-.59-3-1.31-4.48-2"/><path class="cls-14" d="M201.26,313.38c-1.35-.66-2.89-1.29-4.24-1.82"/><path class="cls-14" d="M204.7,312.39l-6-1.69"/><path class="cls-14" d="M207.3,311.24c-1.2-.34-4-1.37-5.16-1.71"/><path class="cls-14" d="M209.94,309.8l-4.3-1.21"/><path class="cls-14" d="M212.32,307.18l-1.44-.41"/><path class="cls-14" d="M213.4,309.41c-1.6-.62-3.47-1-5-1.65"/><path class="cls-14" d="M215,308.07l-4.39-1.24"/><path class="cls-14" d="M218.59,307.29l-5-1.41"/><path class="cls-14" d="M220.89,306.12l-4.49-1.27"/><path class="cls-14" d="M223.8,305.14,219.61,304"/><path class="cls-14" d="M228.28,304c-1.52-.59-3-1.31-4.48-2"/><path class="cls-14" d="M230.34,302.85c-1.35-.66-2.89-1.29-4.24-1.82"/><path class="cls-14" d="M233.78,301.87l-6-1.69"/><path class="cls-14" d="M236.37,300.72c-1.2-.34-4-1.37-5.16-1.71"/><path class="cls-14" d="M239,299.27l-4.3-1.21"/><path class="cls-14" d="M241.39,296.66l-1.44-.41"/><path class="cls-14" d="M242.47,298.89c-1.6-.62-3.47-1-5-1.65"/><path class="cls-14" d="M244.11,297.55l-4.39-1.24"/><path class="cls-14" d="M247.66,296.76l-5-1.41"/><path class="cls-14" d="M250,295.6l-4.49-1.27"/><path class="cls-14" d="M252.87,294.62l-4.19-1.18"/><path class="cls-14" d="M255.64,293.44l-4.19-1.18"/><path class="cls-14" d="M262.12,292.51c-1.67-.62-3.3-1.36-4.92-2.09"/><path class="cls-14" d="M258.88,292.89c-1.67-.62-3.3-1.36-4.92-2.09"/><path class="cls-14" d="M265.51,291.75c-1.9-.68-3.71-1.57-5.55-2.4"/><path class="cls-14" d="M267.39,290.75c-.36-.11-4.09-2-4.44-2.17"/><path class="cls-14" d="M269.71,289.94c-1.52-.59-3-1.31-4.48-2"/><path class="cls-14" d="M271.76,288.83c-1.35-.66-2.89-1.29-4.24-1.82"/><path class="cls-14" d="M275.2,287.84l-6-1.69"/><path class="cls-14" d="M277.8,286.7c-1.2-.34-4-1.37-5.16-1.71"/><path class="cls-14" d="M280.44,285.25l-4.3-1.21"/><path class="cls-14" d="M282.82,282.63l-1.44-.41"/><path class="cls-14" d="M283.9,284.86c-1.6-.62-3.47-1-5-1.65"/><path class="cls-14" d="M285.53,283.53l-4.39-1.24"/><path class="cls-14" d="M289.09,282.74l-5-1.41"/><path class="cls-14" d="M291.39,281.57l-4.49-1.27"/><path class="cls-14" d="M294.3,280.6l-4.19-1.18"/><path class="cls-14" d="M160.13,327.31c-1.25,1.05-2.4,2.21-3.6,3.32"/><path class="cls-14" d="M162.43,327.69c-1.06,1.06-2.31,2.16-3.42,3.1"/><path class="cls-14" d="M166,327.51l-5.11,3.54"/><path class="cls-14" d="M168.83,327.75c-1,.71-3.3,2.58-4.33,3.29"/><path class="cls-14" d="M171.8,328.26l-3.67,2.54"/><path class="cls-14" d="M174.9,330l-1.23.85"/><path class="cls-14" d="M175.2,327.51c-1.31,1.1-3,2-4.23,3.2"/><path class="cls-14" d="M177.18,328.24l-3.75,2.6"/><path class="cls-14" d="M180.79,327.83l-4.25,2.94"/><path class="cls-14" d="M183.35,328.19l-3.84,2.66"/><path class="cls-14" d="M186.42,328.17l-3.58,2.48"/><path class="cls-14" d="M189.42,328.39l-3.58,2.48"/><path class="cls-14" d="M195.85,327.17c-1.38,1.13-2.68,2.35-4,3.57"/><path class="cls-14" d="M192.67,327.86c-1.38,1.13-2.68,2.35-4,3.57"/><path class="cls-14" d="M199.31,326.8c-1.58,1.26-3,2.69-4.47,4.07"/><path class="cls-14" d="M201.41,327.13c-.31.22-3.2,3.26-3.5,3.5"/><path class="cls-14" d="M203.86,327.15c-1.25,1.05-2.4,2.21-3.6,3.32"/><path class="cls-14" d="M206.17,327.53c-1.06,1.06-2.31,2.16-3.42,3.1"/><path class="cls-14" d="M209.74,327.35l-5.11,3.54"/><path class="cls-14" d="M212.57,327.59c-1,.71-3.3,2.58-4.33,3.29"/><path class="cls-14" d="M215.54,328.1l-3.67,2.54"/><path class="cls-14" d="M218.63,329.8l-1.23.85"/><path class="cls-14" d="M218.93,327.34c-1.31,1.1-3,2-4.23,3.2"/><path class="cls-14" d="M220.91,328.08l-3.75,2.6"/><path class="cls-14" d="M224.53,327.67l-4.25,2.94"/><path class="cls-14" d="M227.09,328l-3.84,2.66"/><path class="cls-14" d="M230.16,328l-3.58,2.48"/><path class="cls-14" d="M234.78,327.67c-1.25,1.05-2.4,2.21-3.6,3.32"/><path class="cls-14" d="M237.08,328.05c-1.06,1.06-2.31,2.16-3.42,3.1"/><path class="cls-14" d="M240.66,327.87l-5.11,3.54"/><path class="cls-14" d="M243.48,328.11c-1,.71-3.3,2.58-4.33,3.29"/><path class="cls-14" d="M246.45,328.62l-3.67,2.54"/><path class="cls-14" d="M249.55,330.33l-1.23.85"/><path class="cls-14" d="M249.85,327.87c-1.31,1.1-3,2-4.23,3.2"/><path class="cls-14" d="M251.83,328.6l-3.75,2.6"/><path class="cls-14" d="M255.44,328.2l-4.25,2.94"/><path class="cls-14" d="M258,328.55l-3.84,2.66"/><path class="cls-14" d="M261.07,328.53,257.49,331"/><path class="cls-14" d="M264.07,328.75l-3.58,2.48"/><path class="cls-14" d="M270.51,327.53c-1.38,1.13-2.68,2.35-4,3.57"/><path class="cls-14" d="M267.32,328.23c-.86.71-1.69,1.45-2.51,2.2"/><path class="cls-14" d="M274,327.16c-1.58,1.26-3,2.69-4.47,4.07"/><path class="cls-14" d="M276.06,327.49c-.31.22-3.2,3.26-3.5,3.5"/><path class="cls-14" d="M278.51,327.51c-1.25,1.05-2.4,2.21-3.6,3.32"/><path class="cls-14" d="M280.82,327.89c-1.06,1.06-2.31,2.16-3.42,3.1"/><path class="cls-14" d="M284.39,327.71l-5.11,3.54"/><path class="cls-14" d="M287.22,328c-1,.71-3.3,2.58-4.33,3.29"/><path class="cls-14" d="M290.19,328.46,286.52,331"/><path class="cls-14" d="M293.29,330.17l-1.23.85"/><path class="cls-14" d="M293.59,327.71c-1.31,1.1-3,2-4.23,3.2"/><path class="cls-14" d="M295.56,328.44l-3.75,2.6"/><path class="cls-14" d="M299.18,328,294.93,331"/><path class="cls-14" d="M301.74,328.39,297.9,331"/><path class="cls-14" d="M323.24,141.08c-1.08-1.25-2.23-2.43-3.39-3.61"/><path class="cls-14" d="M322.75,144.29c-1.08-1.06-2.11-2.16-3.12-3.29"/><path class="cls-14" d="M323.06,149.26l-3.61-5.08"/><path class="cls-14" d="M322.77,153.19c-1-1.4-2.14-2.74-3.22-4.1"/><path class="cls-14" d="M322.12,157.33l-2.4-3.37"/><path class="cls-14" d="M323.22,162c-1.35-1.6-2.46-3.37-3.78-5"/><path class="cls-14" d="M322.24,164.8l-3.31-4.66"/><path class="cls-14" d="M322.87,169.82l-3-4.26"/><path class="cls-14" d="M322.41,173.38l-3.76-5.29"/><path class="cls-14" d="M322.49,177.65,319,172.72"/><path class="cls-14" d="M322.24,181.82l-2.84-4"/><path class="cls-14" d="M324.05,190.75c-1.59-1.9-3.31-3.68-5-5.47"/><path class="cls-14" d="M323,186.33a52.12,52.12,0,0,0-3.53-3.84"/><path class="cls-14" d="M324.62,195.54c-1.5-1.83-3.17-3.53-4.83-5.22"/><path class="cls-14" d="M324.2,198.47c-.31-.43-4.58-4.4-4.92-4.8"/><path class="cls-14" d="M324.22,201.88c-1.48-1.72-3.11-3.31-4.68-4.94"/><path class="cls-14" d="M323.73,205.09c-1.5-1.46-3-3.18-4.36-4.7"/><path class="cls-14" d="M324,210.06l-4.3-6.06"/><path class="cls-14" d="M323.75,214c-1-1.41-3.07-3.81-4.07-5.22"/><path class="cls-14" d="M323.09,218.13l-3.6-5.06"/><path class="cls-14" d="M320.77,222.46l-1.21-1.7"/><path class="cls-14" d="M324.2,222.84c-1.56-1.81-2.88-4.1-4.52-5.83"/><path class="cls-14" d="M323.21,225.6l-3.68-5.17"/><path class="cls-14" d="M323.84,230.62l-4.16-5.85"/><path class="cls-14" d="M323.39,234.18l-3.76-5.29"/><path class="cls-14" d="M323.47,238.45,320,233.52"/><path class="cls-14" d="M323.21,242.62l-3.51-4.93"/><path class="cls-14" d="M323.28,247.51l-3.6-5.06"/><path class="cls-14" d="M324.39,252.22c-1.56-1.81-2.88-4.1-4.52-5.83"/><path class="cls-14" d="M343.22,190.23l-5.71-2"/><path class="cls-14" d="M349.85,196.46c-2.4-.63-4.83-1.09-7.27-1.56"/><path class="cls-14" d="M346.47,193.45c-2.4-.63-4.83-1.09-7.27-1.56"/><path class="cls-14" d="M353.09,200c-2.7-.75-5.48-1.19-8.23-1.71"/><path class="cls-14" d="M354.44,202.68c-.5-.17-6.28-.94-6.79-1.08"/><path class="cls-14" d="M356.42,205.46c-2.2-.55-4.45-.9-6.67-1.33"/><path class="cls-14" d="M357.87,208.36c-2.06-.33-4.32-.84-6.28-1.31"/><path class="cls-14" d="M361,212.24l-8.16-2.86"/><path class="cls-14" d="M363,215.61c-1.63-.57-5.6-1.61-7.23-2.18"/><path class="cls-14" d="M364.88,219.37,359,217.32"/><path class="cls-14" d="M365.5,224.25l-2-.69"/><path class="cls-14" d="M368.51,222.58c-2.31-.58-4.72-1.69-7.05-2.15"/><path class="cls-14" d="M369.3,225.4l-6-2.1"/><path class="cls-14" d="M372.71,229.14l-6.78-2.38"/><path class="cls-14" d="M374.4,232.31l-6.12-2.15"/><path class="cls-14" d="M376.93,235.74l-5.71-2"/><path class="cls-14" d="M379.13,239.3l-5.71-2"/><path class="cls-14" d="M382,243.26l-5.86-2.05"/></svg>