<svg xmlns="http://www.w3.org/2000/svg" xmlns:xlink="http://www.w3.org/1999/xlink" viewBox="0 0 6877.86 5531.09"><defs><style>.cls-1,.cls-26{fill:none;}.cls-1{stroke:#4d4d4d;stroke-width:120px;}.cls-1,.cls-10,.cls-11,.cls-12,.cls-14,.cls-15,.cls-16,.cls-3,.cls-30,.cls-32,.cls-33,.cls-4,.cls-5,.cls-6,.cls-7,.cls-8,.cls-9{stroke-miterlimit:10;}.cls-2{clip-path:url(#clip-path);}.cls-3,.cls-4{stroke:#000;}.cls-13,.cls-4{fill:#4d4d4d;}.cls-5{fill:#1a9dff;}.cls-10,.cls-11,.cls-12,.cls-5,.cls-6,.cls-7,.cls-8,.cls-9{stroke:#1a8bff;}.cls-5,.cls-6,.cls-7,.cls-8{opacity:0.6;}.cls-6{fill:#84b715;}.cls-7{fill:#bc157d;}.cls-8{fill:#e84d00;}.cls-9{fill:#ffc200;}.cls-10,.cls-11,.cls-12,.cls-29,.cls-31,.cls-9{opacity:0.8;}.cls-10{fill:#ff6700;}.cls-11{fill:#16b596;}.cls-12{fill:#c607d1;}.cls-14{fill:#17ffb7;stroke:#009e87;}.cls-14,.cls-15,.cls-16,.cls-30,.cls-32,.cls-33{stroke-width:50px;}.cls-15{fill:#00fffb;stroke:#00a99d;}.cls-16{fill:#cd37e2;stroke:#8a07aa;}.cls-17{fill:#e23a00;}.cls-18{fill:#fc8300;}.cls-19{fill:#e08500;}.cls-20{fill:#00dd93;}.cls-21{fill:#0abfb6;}.cls-22{fill:#d500db;}.cls-23{fill:#8e11c1;}.cls-24{fill:#9800d8;}.cls-25{fill:#999;}.cls-27{fill:#ffce00;}.cls-28{fill:#ffe600;}.cls-29{fill:#ffda15;}.cls-30{fill:#ffe000;stroke:#f7bd06;}.cls-31{fill:#a4b220;}.cls-32{fill:#d2e01e;stroke:#83b20f;}.cls-33{fill:#f7931e;stroke:#f15a24;}</style><clipPath id="clip-path" transform="translate(920.29 70.32)"><polygon class="cls-1" points="4200.91 3655.5 4200.91 1263.46 2129.34 67.44 57.78 1263.46 57.78 3655.5 2129.34 4851.52 4200.91 3655.5"/></clipPath></defs><g id="Layer_3" data-name="Layer 3"><g class="cls-2"><rect class="cls-3" x="533.33" y="0.68" width="5000" height="5000"/><rect class="cls-4" x="-1338.28" y="2042.64" width="6426.84" height="47.4" transform="translate(138.35 1284.73) rotate(-30)"/><rect class="cls-4" x="-940.3" y="2825.45" width="6426.84" height="192.26" transform="translate(-235.96 1598.3) rotate(-30)"/><rect class="cls-4" x="-1224.69" y="2540.01" width="6426.84" height="96.13" transform="translate(-107.31 1411.43) rotate(-30)"/><rect class="cls-4" x="-961.97" y="3111.06" width="6426.84" height="86.69" transform="translate(-355.27 1618.66) rotate(-30)"/><rect class="cls-4" x="-524.05" y="3410.89" width="6426.84" height="37.16" transform="translate(-434.14 1874.47) rotate(-30)"/><rect class="cls-4" x="-1190.91" y="1840.38" width="6426.84" height="37.16" transform="translate(261.77 1330.63) rotate(-30)"/><rect class="cls-4" x="-238.17" y="3462.29" width="6426.84" height="93.72" transform="translate(-435.68 2028.08) rotate(-30)"/><rect class="cls-4" x="-1126.4" y="1642.37" width="6426.84" height="96.13" transform="translate(354.68 1340.31) rotate(-30)"/><rect class="cls-4" x="-840.58" y="1067.74" width="4563.18" height="50.99" transform="translate(566.73 937.29) rotate(-30)"/><rect class="cls-4" x="-119.26" y="3555.46" width="6426.84" height="319.31" transform="translate(-522.73 2115.13) rotate(-30)"/><rect class="cls-5" x="633.45" y="3477.87" width="4447.85" height="62.55" transform="translate(-451.47 1969.14) rotate(-30)"/><rect class="cls-6" x="-575.7" y="2364.44" width="5320.86" height="72.72" transform="translate(-0.81 1434.33) rotate(-30)"/><rect class="cls-7" x="747.46" y="3943.27" width="4447.85" height="43.6" transform="translate(-664.16 2087.23) rotate(-30)"/><rect class="cls-8" x="979.11" y="3896.97" width="4447.85" height="39.38" transform="translate(-608.92 2196.57) rotate(-30)"/><rect class="cls-9" x="-831.37" y="1535.86" width="5337.16" height="28.51" transform="translate(391.37 1196.6) rotate(-30)"/><rect class="cls-10" x="-449.43" y="2455.19" width="1674" height="51.33" transform="translate(-268.21 596.48) rotate(-30)"/><rect class="cls-11" x="-834.75" y="2202.57" width="4253.7" height="72.72" transform="translate(-26.06 1016.33) rotate(-30)"/><rect class="cls-12" x="389.08" y="3791.25" width="3030.09" height="72.72" transform="translate(-738.41 1535.19) rotate(-30)"/><path class="cls-13" d="M2113,2261.64" transform="translate(920.29 70.32)"/><path class="cls-13" d="M-1019.07,1086.42" transform="translate(920.29 70.32)"/><path class="cls-14" d="M2807.91,861.56,2471.7,1064.12l450.67,45.38L2627,1627.1l436.45-155.78,253.36,299L3375,1473.86l569.84,257.7-442.08-595.3,322.22-364-436.53-31.76L3289,385.69,3118,640.13,2651,433.52Z" transform="translate(920.29 70.32)"/><path class="cls-15" d="M3045.68,2715.14" transform="translate(920.29 70.32)"/><path class="cls-16" d="M3165.53,2689.72l-364.35-165.28L3005,2884.14l-506.25-11.69,429.51,266.65-115.51,288.73,243.37-82.72,245.56,430.74,135.06-446.14,383,43.67-311.44-338.25,261-209-331.22-29.37-85.86-408.51Z" transform="translate(920.29 70.32)"/><polygon class="cls-17" points="1442.72 1862.42 1415.61 1815.46 1361.38 1815.46 1334.27 1862.42 1361.38 1909.38 1415.61 1909.38 1442.72 1862.42"/><polygon class="cls-18" points="1254.98 1912.35 1234.65 1877.13 1193.98 1877.13 1173.64 1912.35 1193.98 1947.57 1234.65 1947.57 1254.98 1912.35"/><polygon class="cls-17" points="1123.55 2003.32 1108.3 1976.9 1077.8 1976.9 1062.55 2003.32 1077.8 2029.73 1108.3 2029.73 1123.55 2003.32"/><polygon class="cls-19" points="2598.25 1862.42 2564.43 1803.85 2496.79 1803.85 2462.97 1862.42 2496.79 1921 2564.43 1921 2598.25 1862.42"/><polygon class="cls-17" points="2795.24 1904.46 2768.12 1857.5 2713.9 1857.5 2686.79 1904.46 2713.9 1951.42 2768.12 1951.42 2795.24 1904.46"/><polygon class="cls-17" points="2908.9 2030.9 2888.57 1995.68 2847.9 1995.68 2827.57 2030.9 2847.9 2066.12 2888.57 2066.12 2908.9 2030.9"/><polygon class="cls-17" points="2082.33 2712.84 2067.08 2686.43 2036.58 2686.43 2021.33 2712.84 2036.58 2739.26 2067.08 2739.26 2082.33 2712.84"/><polygon class="cls-18" points="2253.25 1490.04 2221.14 1434.43 2156.92 1434.43 2124.81 1490.04 2156.92 1545.65 2221.14 1545.65 2253.25 1490.04"/><polygon class="cls-18" points="1664.57 2848.69 1623.67 2777.86 1541.88 2777.86 1500.99 2848.69 1541.88 2919.52 1623.67 2919.52 1664.57 2848.69"/><polygon class="cls-17" points="1232.8 2408.57 1212.47 2373.35 1171.8 2373.35 1151.47 2408.57 1171.8 2443.79 1212.47 2443.79 1232.8 2408.57"/><polygon class="cls-20" points="4176.03 1870.92 4113.75 1763.05 3989.19 1763.05 3926.91 1870.92 3989.19 1978.79 4113.75 1978.79 4176.03 1870.92"/><polygon class="cls-21" points="3648.97 669.13 3614.47 609.38 3545.48 609.38 3510.98 669.13 3545.48 728.88 3614.47 728.88 3648.97 669.13"/><polygon class="cls-21" points="3390.52 713.94 3364.65 669.13 3312.9 669.13 3287.03 713.94 3312.9 758.75 3364.65 758.75 3390.52 713.94"/><polygon class="cls-21" points="3166.38 830.72 3146.97 797.11 3108.16 797.11 3088.76 830.72 3108.16 864.33 3146.97 864.33 3166.38 830.72"/><polygon class="cls-20" points="3273.04 1171.95 3238.55 1112.2 3169.55 1112.2 3135.06 1171.95 3169.55 1231.7 3238.55 1231.7 3273.04 1171.95"/><polygon class="cls-21" points="4785.99 1207.58 4748.99 1143.48 4674.98 1143.48 4637.97 1207.58 4674.98 1271.67 4748.99 1271.67 4785.99 1207.58"/><polygon class="cls-21" points="2957.87 1301.96 2932 1257.15 2880.25 1257.15 2854.38 1301.96 2880.25 1346.77 2932 1346.77 2957.87 1301.96"/><polygon class="cls-21" points="4821.78 2013.49 4795.9 1968.68 4744.16 1968.68 4718.29 2013.49 4744.16 2058.3 4795.9 2058.3 4821.78 2013.49"/><polygon class="cls-21" points="3946.85 2164.97 3912.36 2105.22 3843.36 2105.22 3808.87 2164.97 3843.36 2224.72 3912.36 2224.72 3946.85 2164.97"/><polygon class="cls-20" points="4660.23 2222.5 4625.73 2162.75 4556.74 2162.75 4522.24 2222.5 4556.74 2282.25 4625.73 2282.25 4660.23 2222.5"/><polygon class="cls-21" points="4775.43 2603.1 4749.55 2558.29 4697.81 2558.29 4671.94 2603.1 4697.81 2647.91 4749.55 2647.91 4775.43 2603.1"/><polygon class="cls-22" points="3573.98 2462.9 3527.22 2381.92 3433.71 2381.92 3386.96 2462.9 3433.71 2543.89 3527.22 2543.89 3573.98 2462.9"/><polygon class="cls-23" points="3246.33 2482.43 3211.26 2421.69 3141.13 2421.69 3106.06 2482.43 3141.13 2543.17 3211.26 2543.17 3246.33 2482.43"/><polygon class="cls-23" points="2922.75 2567.03 2896.45 2521.48 2843.85 2521.48 2817.55 2567.03 2843.85 2612.59 2896.45 2612.59 2922.75 2567.03"/><polygon class="cls-23" points="2594.27 3031.82 2567.97 2986.27 2515.36 2986.27 2489.06 3031.82 2515.36 3077.38 2567.97 3077.38 2594.27 3031.82"/><polygon class="cls-24" points="4010.93 3710.9 3964.17 3629.92 3870.66 3629.92 3823.9 3710.9 3870.66 3791.89 3964.17 3791.89 4010.93 3710.9"/><polygon class="cls-22" points="3749.34 3996.62 3714.28 3935.88 3644.14 3935.88 3609.07 3996.62 3644.14 4057.36 3714.28 4057.36 3749.34 3996.62"/><polygon class="cls-23" points="4873.1 2699.93 4826.34 2618.94 4732.83 2618.94 4686.07 2699.93 4732.83 2780.91 4826.34 2780.91 4873.1 2699.93"/><polygon class="cls-23" points="4761.77 3167.21 4726.71 3106.47 4656.57 3106.47 4621.5 3167.21 4656.57 3227.95 4726.71 3227.95 4761.77 3167.21"/><polygon class="cls-22" points="4988.22 3377.21 4961.92 3331.66 4909.32 3331.66 4883.02 3377.21 4909.32 3422.77 4961.92 3422.77 4988.22 3377.21"/><polygon class="cls-21" points="3237.93 3309.53 3203.44 3249.78 3134.44 3249.78 3099.95 3309.53 3134.44 3369.28 3203.44 3369.28 3237.93 3309.53"/><polygon class="cls-21" points="3436.12 3128.77 3399.11 3064.67 3325.1 3064.67 3288.1 3128.77 3325.1 3192.86 3399.11 3192.86 3436.12 3128.77"/><path class="cls-25" d="M560.44,1327.25q-6.41-32.77,3.48-52.87,7.89-15.53,30.67-28.59l153.68-88.1,10.87,55.64-153.68,88.11,4.35,22.26L749,1243.9q14.47-8.31,18.14,10.39l11,56.11q6.21,31.8-1.41,49.43t-32.74,32L590.28,1480l-10.88-55.65,153.69-88.1-4-20.4L596,1392.09q-20.62,11.82-25.53-13.32Z" transform="translate(920.29 70.32)"/><path class="cls-25" d="M991.23,1083l18.72,95.83q6.36,32.52-4.54,53.35-8.4,15.94-31.16,29l-107.63,61.7,24.16,123.66-45,25.81-64.86-332,152.64-87.51q17.48-10,35-2.9T991.23,1083Zm-46.57,26.7L837,1171.4l18.72,95.83,107.63-61.7Z" transform="translate(920.29 70.32)"/><path class="cls-25" d="M1212.58,894.23l40.71,208.36-152.13,87.21q-17.46,10-33.44,3.53-19.11-7.39-24-32.47l-19-97.07q-6.39-32.76,3.61-52.25,7.77-16.14,30-28.9Zm-34.14,81.46-107.11,61.4,19,97.07,107.11-61.41Z" transform="translate(920.29 70.32)"/><path class="cls-25" d="M1438.29,838.1l-2.66-13.6L1329,885.61q27.78,142.2,30,153.33l-46,26.4-40.83-209,152.77-86.9q24.84-14.24,36.6-10,14.19,4.93,20.12,35.22l3.26,16.69Z" transform="translate(920.29 70.32)"/><path class="cls-25" d="M1729.94,741.76l14.86,76-45,25.81-11-56.26q-3.86-19.79-23-8.81l-89,51q2,13.27,14.86,76l-45,25.81-70.79-362.3,45-25.81,45.3,231.85L1653,725.38q21.32-12.23,16.85-35.1L1659,634.64l45-25.81,15.34,78.52q1.82,9.27-3.34,21.17a36.65,36.65,0,0,1-15.51,17.83Q1724.27,712.7,1729.94,741.76Z" transform="translate(920.29 70.32)"/><path class="cls-25" d="M1828.31,771.2l-45.53,26.11L1712,435l45.54-26.11Q1831.21,786,1828.31,771.2Z" transform="translate(920.29 70.32)"/><path class="cls-25" d="M2072.66,704.05q5.31,27.21-.62,45.05-6.81,22.46-33.29,37.64l-94.17,54L1935,783l92.62-53.1-13.05-66.77-108.14,62q-24.37,14-36.8,9.11t-18.34-35.08l-30.59-156.58,45-25.81q1.08,5.52,29.84,152.71l108.14-62-29.83-152.71,45-25.81Z" transform="translate(920.29 70.32)"/><path class="cls-25" d="M2219.63,391.49l-2.66-13.6L2110.38,439l29.95,153.33-46,26.4-40.83-209,152.77-86.9q24.84-14.24,36.6-10,14.19,4.94,20.12,35.22l3.26,16.69Z" transform="translate(920.29 70.32)"/><line class="cls-26" x1="2150.93" y1="1014.16" x2="2124.23" y2="1030.3"/><polyline class="cls-25" points="2131.28 965.39 2153.96 951.46 2164.31 1006.27 2086.08 1052.03"/><polyline class="cls-25" points="2160.54 1120.48 2183.33 1106.73 2193.24 1161.62 2114.65 1206.76"/><path class="cls-25" d="M3018,4199.71l1.34-11.44c9,1.41,17.24,1.29,25.68-3.58,9.31-5.37,11.11-13,7.58-19.12-4.2-7.27-14.48-5.6-23.87-4.06-12.14,2.16-26,3.74-32.86-8.18-6.55-11.35-2.57-25.29,12.71-34.11a40.79,40.79,0,0,1,26.58-4.68l-1.3,10.84c-6.9-.86-13.51-.54-19.76,3.07-8.88,5.12-10.18,12.28-7.07,17.66,3.86,6.69,13,4.71,22.77,3.15,12.36-2.1,26.15-4.43,33.87,8.95,6.64,11.49,3,26.39-13.71,36.05C3039.93,4200.05,3027.89,4201.38,3018,4199.71Z" transform="translate(920.29 70.32)"/><path class="cls-25" d="M3050.61,4097.29l9.9-5.71,5.72,7.55.43-.25c3.3-9.08,8.55-18.12,16.84-22.91,18.19-10.5,36.08-2,48.76,20,13.86,24,7.61,46.43-8.54,55.76-6.55,3.77-14.86,4.5-24.34,3.19l7.43,12.19,13.77,23.86-11.93,6.89Zm69.29,5.77c-9-15.56-20.27-23-33.66-15.29-6,3.45-10,10.24-13.37,20.52l21.42,37.1c9.51,1.69,16.94.11,21.6-2.58C3127.52,4136.09,3130,4120.52,3119.9,4103.06Z" transform="translate(920.29 70.32)"/><path class="cls-25" d="M3155.18,4106.74c-8.9-15.42-.11-30.77,28.07-51.5-5.21-9-13.16-16.07-24.8-9.35-8.14,4.7-13.38,12.77-16.72,19.74l-9.45-5.6c4.12-8,11.15-18.66,22.5-25.21,17.31-10,31.22-2.7,41.38,14.9l25,43.35-9.89,5.71-5.89-7.85-.44.26c-3.5,9.39-8.67,18.58-17.54,23.7C3175.65,4121.69,3162.49,4119.4,3155.18,4106.74Zm43.94-24-11.34-19.64c-21.88,16.52-26.67,27-21.46,36.06,4.62,8,12.07,8.16,19.06,4.12C3192.22,4099.33,3195.81,4092.79,3199.12,4082.73Z" transform="translate(920.29 70.32)"/><path class="cls-25" d="M3202.62,4009.52l9.9-5.71,8.41,12.22.43-.26c-.32-11.64,3.68-21.51,11.68-26.13a20.25,20.25,0,0,1,8.4-2.92l3.72,11.82a23,23,0,0,0-7.51,2.79c-6,3.44-10.57,11.92-8.48,26.62l26.2,45.39-11.93,6.88Z" transform="translate(920.29 70.32)"/><path class="cls-25" d="M3234.12,3947.51l11.78-6.81,40.48,70.12.44-.25,8.61-54.63,13.24-7.64-7.34,42.06,51.36,26.79-13.09,7.56-40.31-22.11-4.34,23.06,10.75,18.62-11.78,6.8Z" transform="translate(920.29 70.32)"/><path class="cls-25" d="M3361.14,4002.57c-3.19-5.52-1.45-11.57,3.35-14.35s10.77-1.17,14,4.36c3,5.24,1.28,11.29-3.37,14A10.08,10.08,0,0,1,3361.14,4002.57Z" transform="translate(920.29 70.32)"/><path class="cls-25" d="M3363.21,3916.81l9.9-5.71,8.41,12.21.43-.25c-.32-11.65,3.68-21.52,11.68-26.14a20.23,20.23,0,0,1,8.4-2.91l3.72,11.82a22.68,22.68,0,0,0-7.51,2.78c-6,3.44-10.57,11.92-8.48,26.62l26.2,45.39-11.93,6.89Z" transform="translate(920.29 70.32)"/><path class="cls-25" d="M3441.45,3955.24l1.34-11.45c9,1.42,17.24,1.3,25.68-3.57,9.31-5.38,11.11-13,7.58-19.12-4.2-7.27-14.48-5.6-23.87-4.06-12.14,2.16-26,3.74-32.86-8.19-6.55-11.35-2.57-25.28,12.71-34.1a40.73,40.73,0,0,1,26.58-4.68l-1.3,10.84c-6.9-.87-13.51-.54-19.76,3.07-8.87,5.12-10.18,12.27-7.07,17.66,3.86,6.69,13,4.71,22.77,3.14,12.36-2.09,26.15-4.42,33.87,9,6.64,11.49,3,26.38-13.71,36C3463.37,3955.58,3451.33,3956.9,3441.45,3955.24Z" transform="translate(920.29 70.32)"/><path class="cls-25" d="M3501.4,3902.2l-22.59-39.14-10.47,6.05-5.21-9,10.63-7.11-10-20.62,10-5.8,11.42,19.79,19.06-11,5.62,9.75-19.05,11,22.67,39.28c5,8.73,10.66,12.08,18.81,7.38,2.47-1.43,5.08-4.3,6.91-6.51l7.53,7.67c-3.17,3.58-7.22,7.66-11.58,10.18C3520.1,3922.82,3509.47,3916.16,3501.4,3902.2Z" transform="translate(920.29 70.32)"/><path class="cls-25" d="M3545.16,3871.5l-25.86-44.81,12.07-7,24.94,43.21c7.65,13.24,14.85,16.64,24.16,11.27,7.27-4.2,10.27-10.78,12.17-22.93l-29-50.19,11.93-6.89,40.82,70.7-9.89,5.71-7.4-10.47-.44.26c-2.09,11.49-6.14,20.61-15.88,26.24C3567.81,3895.28,3555.58,3889.54,3545.16,3871.5Z" transform="translate(920.29 70.32)"/><path class="cls-25" d="M3614.85,3818.85c-13.27-23-7-45.64,9.19-55,8.15-4.7,15.29-4.75,24.49-3.27l-7.55-11.74-15.71-27.21,12.07-7,59.81,103.58-9.9,5.71-5.8-7.7-.44.25c-2.42,8.57-7.3,17.6-15.59,22.38C3647.67,3849.17,3628.45,3842.42,3614.85,3818.85Zm59.81-11.64-21.34-36.95c-9.07-1.94-15.63-.87-21.45,2.49-11.34,6.56-14.06,22.67-4.74,38.82,9.74,16.87,22.75,22.94,35.11,15.8C3668.79,3823.59,3672.62,3817.12,3674.66,3807.21Z" transform="translate(920.29 70.32)"/><path class="cls-25" d="M3665.15,3712.81c-2.69-4.65-.82-9.81,3.84-12.5s10.05-1.73,12.74,2.93.81,9.81-3.84,12.49S3667.75,3717.32,3665.15,3712.81Zm15,21,11.93-6.89,40.81,70.7-11.92,6.89Z" transform="translate(920.29 70.32)"/><path class="cls-25" d="M3731.22,3751.67c-13.69-23.71-6.08-46.14,11.23-56.14s40.54-5.37,54.23,18.34c13.52,23.43,5.91,45.86-11.4,55.85S3744.74,3775.09,3731.22,3751.67Zm53.09-30.66c-9.4-16.29-23.93-22.64-36.15-15.59s-14,22.82-4.58,39.11,23.92,22.27,36,15.3S3793.64,3737.16,3784.31,3721Z" transform="translate(920.29 70.32)"/><path class="cls-25" d="M3827.49,3733.32c-3.19-5.52-1.44-11.57,3.36-14.35s10.76-1.17,14,4.36c3,5.24,1.28,11.29-3.38,14A10.08,10.08,0,0,1,3827.49,3733.32Z" transform="translate(920.29 70.32)"/><path class="cls-25" d="M3843.23,3687c-13.69-23.71-5.65-46.4,12.54-56.89,9.31-5.38,17.89-5.29,25.44-3.64l-1.57,11.38c-6.18-1.28-12-1.38-17.73,1.9-12.8,7.39-15.73,23.82-6.32,40.11s24.5,21.94,37.45,14.46c6.54-3.78,10.37-10.25,12.46-16.7l9.86,5a39.89,39.89,0,0,1-17.63,22.2C3879,3715.64,3856.75,3710.42,3843.23,3687Z" transform="translate(920.29 70.32)"/><path class="cls-25" d="M3906.5,3650.47c-13.69-23.72-6.08-46.15,11.23-56.14s40.55-5.37,54.24,18.34c13.52,23.42,5.91,45.85-11.4,55.85S3920,3673.89,3906.5,3650.47Zm53.1-30.66c-9.41-16.29-23.93-22.64-36.15-15.59s-14,22.81-4.58,39.11,23.91,22.27,36,15.3S3968.92,3636,3959.6,3619.81Z" transform="translate(920.29 70.32)"/><path class="cls-25" d="M3970.09,3566.43l9.89-5.71,6.9,9.59.43-.25c2.25-10.22,6.65-19.74,15.08-24.61,10.77-6.21,19.53-4.48,27.31,2.27,2.8-12.28,6.88-22,15.46-27,14.55-8.4,27.08-2.83,37.49,15.21l25.87,44.8-11.93,6.89-24.94-43.21c-7.65-13.23-15.14-16.47-24-11.35-5.53,3.19-9.11,10.11-11.45,21.16l29.56,51.21-11.93,6.88-24.94-43.2c-7.65-13.24-15.14-16.48-24.16-11.27-5.24,3-9.1,10.1-11.45,21.16l29.57,51.2-11.93,6.89Z" transform="translate(920.29 70.32)"/><path class="cls-9" d="M-452.25,2936.09" transform="translate(920.29 70.32)"/><path class="cls-9" d="M4169.87,267.51" transform="translate(920.29 70.32)"/><polygon class="cls-27" points="2622.22 3653.38 2595.11 3606.42 2540.89 3606.42 2513.78 3653.38 2540.89 3700.33 2595.11 3700.33 2622.22 3653.38"/><polygon class="cls-28" points="2562.82 3841.03 2542.48 3805.81 2501.82 3805.81 2481.48 3841.03 2501.82 3876.25 2542.48 3876.25 2562.82 3841.03"/><polygon class="cls-28" points="2734.91 2419.36 2714.58 2384.14 2673.91 2384.14 2653.58 2419.36 2673.91 2454.58 2714.58 2454.58 2734.91 2419.36"/><polygon class="cls-28" points="2228.45 2892.57 2200 2843.28 2143.09 2843.28 2114.64 2892.57 2143.09 2941.85 2200 2941.85 2228.45 2892.57"/><polygon class="cls-27" points="1987.34 2898.88 1967 2863.66 1926.34 2863.66 1906 2898.88 1926.34 2934.09 1967 2934.09 1987.34 2898.88"/><rect class="cls-29" x="-436.39" y="3793.91" width="1674" height="51.33" transform="translate(-935.82 782.36) rotate(-30)"/><path class="cls-30" d="M1123,3194.79,950.51,3294l136.65,53.29-21.74,160.52,161-60.52L1340,3566.39,1379.37,3437l194-3.91L1454.4,3287.46l107.07-167.29-148.84,1.56-36-148.7-164.26,141.25-150.86-97.53Z" transform="translate(920.29 70.32)"/><rect class="cls-31" x="-163.04" y="2621.35" width="2643.78" height="56.23" transform="translate(-249.18 1004.71) rotate(-30)"/><path class="cls-32" d="M2288.16,1844.92l-104.3-82.56.75,98-105.05,26.25,99.33,83.74L2016.55,2066l184.69-1.94-30.61,245.16,142.06-235.61,130.37,25-37.82-92,135.28-92.93-166.15-17.6,9.11-133.47Z" transform="translate(920.29 70.32)"/><polygon class="cls-28" points="2402.13 4017.91 2386.88 3991.49 2356.38 3991.49 2341.13 4017.91 2356.38 4044.32 2386.88 4044.32 2402.13 4017.91"/><polygon class="cls-27" points="1718.37 3016.13 1704.81 2992.65 1677.7 2992.65 1664.14 3016.13 1677.7 3039.61 1704.81 3039.61 1718.37 3016.13"/><polygon class="cls-27" points="1486.39 3231.17 1472.83 3207.69 1445.72 3207.69 1432.17 3231.17 1445.72 3254.65 1472.83 3254.65 1486.39 3231.17"/><polygon class="cls-28" points="2678.56 3144.35 2650.11 3095.07 2593.2 3095.07 2564.75 3144.35 2593.2 3193.63 2650.11 3193.63 2678.56 3144.35"/><polygon class="cls-27" points="2007.67 3794.16 1980.56 3747.2 1926.34 3747.2 1899.22 3794.16 1926.34 3841.12 1980.56 3841.12 2007.67 3794.16"/><polygon class="cls-21" points="2702.26 1471.88 2676.39 1427.06 2624.64 1427.06 2598.77 1471.88 2624.64 1516.69 2676.39 1516.69 2702.26 1471.88"/><path class="cls-33" d="M761.49,2326.13l32.42,291.28,273.77-261.87,159.78,203.07,32.29-214.86,284.78-78.19-261.56-150,143.85-186.13-257.6,11.67-147.37-332.31L939.46,1919l-351.75-67.83L707.9,2046.63l-289.08,251.9Z" transform="translate(920.29 70.32)"/></g><polygon class="cls-1" points="5121.2 3725.82 5121.2 1333.78 3049.64 137.76 978.07 1333.78 978.07 3725.82 3049.64 4921.84 5121.2 3725.82"/></g></svg>