<?xml version="1.0" encoding="utf-8"?>
<!-- Generator: Adobe Illustrator 26.5.0, SVG Export Plug-In . SVG Version: 6.00 Build 0)  -->
<svg version="1.1"
	 id="svg8" xmlns:dc="http://purl.org/dc/elements/1.1/" xmlns:inkscape="http://www.inkscape.org/namespaces/inkscape" xmlns:rdf="http://www.w3.org/1999/02/22-rdf-syntax-ns#" xmlns:sodipodi="http://sodipodi.sourceforge.net/DTD/sodipodi-0.dtd" xmlns:cc="http://creativecommons.org/ns#" xmlns:svg="http://www.w3.org/2000/svg" inkscape:export-filename="C:\Users\apdev\Documents\github\R-packages\maintainer\sss\sss\man\figures\logo.png" inkscape:export-xdpi="46.16" inkscape:export-ydpi="46.16" inkscape:version="0.92.5 (2060ec1f9f, 2020-04-08)" sodipodi:docname="logo.svg"
	 xmlns="http://www.w3.org/2000/svg" xmlns:xlink="http://www.w3.org/1999/xlink" x="0px" y="0px" viewBox="0 0 2521 2911"
	 style="enable-background:new 0 0 2521 2911;" xml:space="preserve">
<style type="text/css">
	.st0{fill:#F9F9F9;}
	.st1{fill:#656A80;}
	.st2{fill:#3737C8;}
	.st3{fill:#2C2CA0;}
	.st4{fill:#161650;}
	.st5{fill:#373748;}
	.st6{fill:#D5D5FF;}
</style>
<g>
	
		<sodipodi:namedview  bordercolor="#666666" borderopacity="1.0" fit-margin-bottom="0" fit-margin-left="0" fit-margin-right="0" fit-margin-top="0" id="base" inkscape:current-layer="layer1" inkscape:cx="70.779285" inkscape:cy="236.10865" inkscape:document-units="mm" inkscape:pageopacity="0.0" inkscape:pageshadow="2" inkscape:window-height="1017" inkscape:window-maximized="1" inkscape:window-width="1920" inkscape:window-x="-8" inkscape:window-y="-8" inkscape:zoom="0.76435188" pagecolor="#ffffff" showgrid="false">
		</sodipodi:namedview>
	<g id="layer1" transform="translate(-36.586189,-70.436586)" inkscape:groupmode="layer" inkscape:label="Layer 1">
		<g id="path4573">
			
				<path inkscape:export-xdpi="46.16" inkscape:export-ydpi="46.16" inkscape:flatsided="true" inkscape:randomized="0" inkscape:rounded="0" inkscape:transform-center-x="3.0492663e-06" inkscape:transform-center-y="-6.6020762e-06" sodipodi:arg1="0.52359878" sodipodi:arg2="1.0471976" sodipodi:cx="102.62011" sodipodi:cy="146.68599" sodipodi:r1="73.940002" sodipodi:r2="64.03392" sodipodi:sides="6" sodipodi:type="star" class="st0" d="
				M2519.4,2231.6l-1222.3,705.7L74.8,2231.6V820.2l1222.3-705.7l1222.3,705.7V2231.6z"/>
			<path class="st1" d="M1297.1,2981.4L36.6,2253.7V798.2L1297.1,70.4l1260.5,727.8v1455.5L1297.1,2981.4z M112.9,2209.6
				l1184.1,683.7l1184.1-683.7V842.3L1297.1,158.6L112.9,842.3V2209.6z"/>
		</g>
		<g id="path840">
			<path class="st2" d="M1297.1,2981.4L36.6,2253.7V798.2L1297.1,70.4l1260.5,727.8v1455.5L1297.1,2981.4z M112.9,2209.6
				l1184.1,683.7l1184.1-683.7V842.3L1297.1,158.6L112.9,842.3V2209.6z"/>
		</g>
		<g id="text989" inkscape:export-xdpi="46.16" inkscape:export-ydpi="46.16">
			<g id="path850">
				<path inkscape:connector-curvature="0" class="st3" d="M744.2,2417.2v-83.3c42.3,31.3,88.9,46.9,139.7,46.9
					c68.2,0,102.3-22.7,102.3-68.2c0-12.9-3-23.8-9-32.7c-5.7-9.2-13.6-17.2-23.7-24.1c-9.8-6.9-21.5-13.1-35-18.5
					c-13.3-5.7-27.6-11.5-43.1-17.5c-21.5-8.5-40.4-17-56.8-25.6c-16.1-8.8-29.7-18.6-40.7-29.4c-10.7-11-18.9-23.5-24.6-37.4
					c-5.4-13.9-8-30.1-8-48.8c0-22.7,5.2-42.8,15.6-60.1c10.4-17.7,24.3-32.4,41.7-44c17.4-12,37.1-21,59.2-27c22.4-6,45.5-9,69.1-9
					c42,0,79.5,7.3,112.7,21.8v78.6c-35.7-23.4-76.7-35-123.1-35c-14.5,0-27.6,1.7-39.3,5.2c-11.7,3.2-21.8,7.7-30.3,13.7
					c-8.2,6-14.7,13.3-19.4,21.8c-4.4,8.2-6.6,17.4-6.6,27.5c0,12.6,2.2,23.2,6.6,31.7c4.7,8.5,11.5,16.1,20.4,22.7
					c8.8,6.6,19.6,12.6,32.2,18c12.6,5.4,27,11.2,43.1,17.5c21.5,8.2,40.7,16.7,57.8,25.6c17,8.5,31.6,18.3,43.6,29.4
					c12,10.7,21.1,23.2,27.5,37.4c6.6,14.2,9.9,31.1,9.9,50.7c0,24-5.4,44.8-16.1,62.5c-10.4,17.7-24.5,32.4-42.1,44
					c-17.7,11.7-38,20.4-61.1,26c-23,5.7-47.2,8.5-72.4,8.5C824,2446.1,780.8,2436.4,744.2,2417.2L744.2,2417.2z"/>
				<path class="st4" d="M873.9,2457.2c-51.5,0-96.9-10.1-134.9-30.2l-5.9-3.1v-112.1l17.7,13.1c40.1,29.7,84.9,44.7,133.1,44.7
					c81.7,0,91.2-32.6,91.2-57.1c0-10.8-2.3-19.4-7.1-26.4c-5.1-8.2-12-15.2-20.8-21.2c-9.1-6.5-20.1-12.3-32.8-17.3
					c-13.4-5.7-27.7-11.6-43-17.5c-21.7-8.6-41.2-17.4-57.9-26.1c-17.1-9.4-31.7-19.9-43.3-31.3c-11.9-12.2-21-26-27.2-41.2
					c-5.9-15.3-8.9-33.1-8.9-53c0-24.7,5.8-46.8,17.2-65.9c11.2-19,26.3-35,45-47.5c18.2-12.6,39.3-22.2,62.5-28.5
					c23.3-6.2,47.5-9.4,72-9.4c43.3,0,82.7,7.6,117.2,22.7l6.7,2.9v106.4l-17.2-11.3c-33.7-22-73-33.2-117-33.2
					c-13.4,0-25.5,1.6-36.1,4.7c-10.6,2.9-19.6,6.9-27.1,12.2c-6.7,4.9-12.2,11-16.1,18.1c-3.5,6.5-5.2,13.8-5.2,22.1
					c0,10.8,1.8,19.7,5.4,26.6c3.8,6.8,9.6,13.3,17.2,18.9c8.1,6.1,18.1,11.7,29.9,16.7c12.4,5.3,26.8,11.1,42.8,17.4
					c21.6,8.3,41.4,17,58.8,26c17.8,8.9,33.3,19.3,46,31c13,11.6,23.2,25.5,30.1,41.1c7.2,15.4,10.9,34.1,10.9,55.2
					c0,25.9-6,48.9-17.7,68.3c-11.2,18.9-26.5,35-45.5,47.5c-18.7,12.3-40.4,21.6-64.5,27.6C925.2,2454.2,900,2457.2,873.9,2457.2z
					 M755.3,2410.3c33.6,16.3,73.5,24.6,118.6,24.6c24.3,0,47.7-2.8,69.8-8.2c21.7-5.3,41.1-13.6,57.6-24.5
					c16.2-10.7,29.2-24.3,38.7-40.4c9.7-16,14.6-35,14.6-56.9c0-17.8-3-33.3-8.9-46c-5.7-12.9-14-24.2-24.8-33.8
					c-11.3-10.4-25.1-19.7-41.1-27.7c-16.8-8.7-35.8-17.1-56.8-25.1c-16.3-6.4-30.9-12.3-43.5-17.7c-13.4-5.7-25-12.2-34.5-19.3
					c-10.1-7.5-17.9-16.4-23.4-26.2c-5.4-10.4-8-22.8-8-37.1c0-11.9,2.7-22.9,8-32.7c5.6-10,13.2-18.6,22.6-25.5
					c9.7-6.8,21.1-12,34-15.5c12.4-3.7,26.7-5.6,42.2-5.6c41.1,0,78.7,9,112,26.7v-51.7c-30-12-64.1-18.1-101.6-18.1
					c-22.6,0-44.9,2.9-66.3,8.6c-20.7,5.6-39.5,14.2-55.7,25.4c-16,10.8-28.9,24.4-38.4,40.5c-9.4,15.6-14.1,33.9-14.1,54.5
					c0,17.2,2.5,32.2,7.3,44.8c5,12.3,12.5,23.7,22.2,33.7c10,9.8,22.9,19,38.1,27.4c15.8,8.2,34.6,16.7,55.6,25
					c15.4,6,30.1,11.9,43.4,17.6c14,5.6,26.6,12.2,37.1,19.6c11.2,7.7,20.2,16.9,26.7,27.4c7,10.3,10.7,23.4,10.7,38.5
					c0,36.2-19.7,79.3-113.4,79.3c-46,0-89.2-12.4-128.6-37V2410.3z"/>
			</g>
			<g id="path852">
				<path inkscape:connector-curvature="0" class="st3" d="M1155.2,2417.2v-83.3c42.3,31.3,88.9,46.9,139.7,46.9
					c68.2,0,102.3-22.7,102.3-68.2c0-12.9-3-23.8-9-32.7c-5.7-9.2-13.6-17.2-23.7-24.1c-9.8-6.9-21.5-13.1-35-18.5
					c-13.3-5.7-27.6-11.5-43.1-17.5c-21.5-8.5-40.4-17-56.8-25.6c-16.1-8.8-29.7-18.6-40.7-29.4c-10.7-11-18.9-23.5-24.6-37.4
					c-5.4-13.9-8-30.1-8-48.8c0-22.7,5.2-42.8,15.6-60.1c10.4-17.7,24.3-32.4,41.7-44c17.4-12,37.1-21,59.2-27c22.4-6,45.5-9,69.1-9
					c42,0,79.5,7.3,112.7,21.8v78.6c-35.7-23.4-76.7-35-123.1-35c-14.5,0-27.6,1.7-39.3,5.2c-11.7,3.2-21.8,7.7-30.3,13.7
					c-8.2,6-14.7,13.3-19.4,21.8c-4.4,8.2-6.6,17.4-6.6,27.5c0,12.6,2.2,23.2,6.6,31.7c4.7,8.5,11.5,16.1,20.4,22.7
					c8.8,6.6,19.6,12.6,32.2,18s27,11.2,43.1,17.5c21.5,8.2,40.7,16.7,57.8,25.6c17,8.5,31.6,18.3,43.6,29.4
					c12,10.7,21.1,23.2,27.5,37.4c6.6,14.2,9.9,31.1,9.9,50.7c0,24-5.4,44.8-16.1,62.5c-10.4,17.7-24.5,32.4-42.1,44
					c-17.7,11.7-38,20.4-61.1,26c-23,5.7-47.2,8.5-72.4,8.5C1235,2446.1,1191.8,2436.4,1155.2,2417.2z"/>
				<path class="st4" d="M1284.9,2457.2c-51.5,0-96.9-10.1-134.9-30.2l-5.9-3.1v-112.1l17.7,13.1c40.1,29.7,84.9,44.7,133.1,44.7
					c81.7,0,91.2-32.6,91.2-57.1c0-10.8-2.3-19.4-7.1-26.4c-5.1-8.2-12-15.2-20.8-21.2c-9.1-6.5-20.1-12.3-32.8-17.3
					c-13.4-5.7-27.7-11.6-43-17.5c-21.7-8.6-41.2-17.4-57.9-26.1c-17.1-9.4-31.7-19.9-43.3-31.3c-11.9-12.2-21-26-27.2-41.2
					c-5.9-15.3-8.9-33.1-8.9-53c0-24.7,5.8-46.8,17.2-65.9c11.2-19,26.3-35,45-47.5c18.2-12.6,39.3-22.2,62.5-28.5
					c23.3-6.2,47.5-9.4,72-9.4c43.3,0,82.7,7.6,117.1,22.7l6.7,2.9v106.4l-17.2-11.3c-33.7-22-73-33.2-117-33.2
					c-13.4,0-25.5,1.6-36.1,4.7c-10.6,2.9-19.6,6.9-27.1,12.2c-6.7,4.9-12.2,11-16.1,18.1c-3.5,6.5-5.2,13.8-5.2,22.1
					c0,10.8,1.8,19.7,5.4,26.6c3.8,6.8,9.6,13.3,17.2,18.9c8.1,6.1,18.1,11.7,29.9,16.7c12.4,5.3,26.8,11.1,42.8,17.4
					c21.6,8.3,41.4,17,58.8,26c17.8,8.9,33.3,19.3,46,31c13,11.6,23.2,25.5,30.1,41.1c7.2,15.4,10.9,34.1,10.9,55.2
					c0,25.9-6,48.9-17.7,68.3c-11.2,18.9-26.5,35-45.5,47.5c-18.7,12.3-40.4,21.6-64.5,27.6
					C1336.2,2454.2,1311,2457.2,1284.9,2457.2z M1166.3,2410.3c33.6,16.3,73.5,24.6,118.6,24.6c24.3,0,47.7-2.8,69.8-8.2
					c21.7-5.3,41.1-13.6,57.6-24.5c16.2-10.7,29.2-24.3,38.7-40.4c9.7-16,14.6-35,14.6-56.9c0-17.8-3-33.3-8.9-46
					c-5.7-12.9-14-24.2-24.8-33.8c-11.3-10.4-25.1-19.7-41.1-27.7c-16.8-8.7-35.8-17.1-56.8-25.1c-16.3-6.4-30.9-12.3-43.5-17.7
					c-13.4-5.7-25-12.2-34.5-19.3c-10.1-7.5-17.9-16.4-23.4-26.2c-5.4-10.4-8-22.8-8-37.1c0-11.9,2.7-22.9,8-32.7
					c5.6-10,13.2-18.6,22.6-25.5c9.7-6.8,21.1-12,34-15.5c12.4-3.7,26.7-5.6,42.2-5.6c41.1,0,78.7,9,112,26.7v-51.7
					c-30-12-64.1-18.1-101.6-18.1c-22.6,0-44.9,2.9-66.3,8.6c-20.7,5.6-39.5,14.2-55.7,25.4c-16,10.8-28.9,24.4-38.4,40.5
					c-9.4,15.6-14.1,33.9-14.1,54.5c0,17.2,2.5,32.2,7.3,44.8c5,12.3,12.5,23.7,22.2,33.7c10,9.8,22.9,19,38.1,27.4
					c15.8,8.2,34.6,16.7,55.6,25c15.4,6,30.1,11.9,43.4,17.6c14,5.6,26.6,12.2,37.1,19.6c11.2,7.7,20.2,16.9,26.7,27.4
					c7,10.3,10.7,23.4,10.7,38.5c0,36.2-19.7,79.3-113.4,79.3c-46,0-89.2-12.4-128.6-37V2410.3z"/>
			</g>
			<g id="path854">
				<path inkscape:connector-curvature="0" class="st3" d="M1566.2,2417.2v-83.3c42.3,31.3,88.9,46.9,139.7,46.9
					c68.2,0,102.3-22.7,102.3-68.2c0-12.9-3-23.8-9-32.7c-5.7-9.2-13.6-17.2-23.7-24.1c-9.8-6.9-21.5-13.1-35-18.5
					c-13.3-5.7-27.6-11.5-43.1-17.5c-21.5-8.5-40.4-17-56.8-25.6c-16.1-8.8-29.7-18.6-40.7-29.4c-10.7-11-18.9-23.5-24.6-37.4
					c-5.4-13.9-8-30.1-8-48.8c0-22.7,5.2-42.8,15.6-60.1c10.4-17.7,24.3-32.4,41.7-44c17.4-12,37.1-21,59.2-27c22.4-6,45.5-9,69.1-9
					c42,0,79.5,7.3,112.7,21.8v78.6c-35.7-23.4-76.7-35-123.1-35c-14.5,0-27.6,1.7-39.3,5.2c-11.7,3.2-21.8,7.7-30.3,13.7
					c-8.2,6-14.7,13.3-19.4,21.8c-4.4,8.2-6.6,17.4-6.6,27.5c0,12.6,2.2,23.2,6.6,31.7c4.7,8.5,11.5,16.1,20.4,22.7
					c8.8,6.6,19.6,12.6,32.2,18c12.6,5.4,27,11.2,43.1,17.5c21.5,8.2,40.7,16.7,57.8,25.6c17,8.5,31.6,18.3,43.6,29.4
					c12,10.7,21.1,23.2,27.5,37.4c6.6,14.2,9.9,31.1,9.9,50.7c0,24-5.4,44.8-16.1,62.5c-10.4,17.7-24.5,32.4-42.1,44
					c-17.7,11.7-38,20.4-61.1,26c-23,5.7-47.2,8.5-72.4,8.5C1646,2446.1,1602.8,2436.4,1566.2,2417.2L1566.2,2417.2z"/>
				<path class="st4" d="M1695.9,2457.2c-51.5,0-96.9-10.1-134.9-30.2l-5.9-3.1v-112.1l17.7,13.1c40.1,29.7,84.9,44.7,133.1,44.7
					c81.7,0,91.2-32.6,91.2-57.1c0-10.8-2.3-19.4-7.1-26.4c-5.1-8.2-12-15.2-20.8-21.2c-9.1-6.5-20.1-12.3-32.8-17.3
					c-13.4-5.7-27.7-11.6-43-17.5c-21.7-8.6-41.2-17.4-57.9-26.1c-17.1-9.4-31.7-19.9-43.4-31.3c-11.9-12.2-21-26-27.2-41.2
					c-5.9-15.3-8.9-33.1-8.9-53c0-24.7,5.8-46.8,17.2-65.9c11.2-19,26.3-35,45-47.5c18.2-12.6,39.3-22.2,62.5-28.5
					c23.3-6.2,47.5-9.4,72-9.4c43.3,0,82.7,7.6,117.1,22.7l6.7,2.9v106.4l-17.2-11.3c-33.7-22-73-33.2-117-33.2
					c-13.4,0-25.5,1.6-36.1,4.7c-10.6,2.9-19.6,6.9-27.1,12.2c-6.7,4.9-12.2,11-16.1,18.1c-3.5,6.5-5.2,13.8-5.2,22.1
					c0,10.8,1.8,19.7,5.4,26.6c3.8,6.8,9.6,13.3,17.2,18.9c8.1,6.1,18.1,11.7,29.9,16.7c12.4,5.3,26.8,11.1,42.8,17.4
					c21.6,8.3,41.4,17,58.8,26c17.8,8.9,33.3,19.3,46,31c13,11.6,23.2,25.5,30.1,41.1c7.2,15.4,10.9,34.1,10.9,55.2
					c0,25.9-6,48.9-17.7,68.3c-11.2,18.9-26.5,35-45.5,47.5c-18.7,12.3-40.4,21.6-64.5,27.6
					C1747.2,2454.2,1722,2457.2,1695.9,2457.2z M1577.3,2410.3c33.6,16.3,73.5,24.6,118.6,24.6c24.3,0,47.7-2.8,69.8-8.2
					c21.7-5.3,41.1-13.6,57.6-24.5c16.2-10.7,29.2-24.3,38.7-40.4c9.7-16,14.6-35,14.6-56.9c0-17.8-3-33.3-8.9-46
					c-5.7-12.9-14-24.2-24.8-33.8c-11.3-10.4-25.1-19.7-41.1-27.7c-16.8-8.7-35.8-17.1-56.8-25.1c-16.3-6.4-30.9-12.3-43.5-17.7
					c-13.4-5.7-25-12.2-34.5-19.3c-10.1-7.5-17.9-16.4-23.4-26.2c-5.4-10.4-8-22.8-8-37.1c0-11.9,2.7-22.9,8-32.7
					c5.6-10,13.2-18.6,22.6-25.5c9.7-6.8,21.1-12,34-15.5c12.4-3.7,26.7-5.6,42.2-5.6c41.1,0,78.7,9,112,26.7v-51.7
					c-30-12-64.1-18.1-101.6-18.1c-22.6,0-44.9,2.9-66.3,8.6c-20.7,5.6-39.5,14.2-55.7,25.4c-16,10.8-28.9,24.4-38.4,40.5
					c-9.4,15.6-14.1,33.9-14.1,54.5c0,17.2,2.5,32.2,7.3,44.8c5,12.3,12.5,23.7,22.2,33.7c10,9.8,22.9,19,38.1,27.4
					c15.8,8.2,34.6,16.7,55.6,25c15.4,6,30,11.9,43.4,17.6c14,5.6,26.6,12.2,37.1,19.6c11.2,7.7,20.2,16.9,26.7,27.4
					c7,10.3,10.7,23.4,10.7,38.5c0,36.2-19.7,79.3-113.4,79.3c-46,0-89.2-12.4-128.6-37V2410.3z"/>
			</g>
		</g>
		<g id="g4785" transform="translate(5.146275)" inkscape:export-xdpi="46.16" inkscape:export-ydpi="46.16">
			<g id="path4598">
				<path inkscape:connector-curvature="0" class="st5" d="M896,647.6h791.9"/>
				<path class="st5" d="M1687.9,666.6H896c-10.5,0-19.1-8.5-19.1-19.1c0-10.5,8.5-19.1,19.1-19.1h791.9c10.5,0,19.1,8.5,19.1,19.1
					C1707,658.1,1698.4,666.6,1687.9,666.6z"/>
			</g>
			<g id="path4614">
				<path inkscape:connector-curvature="0" class="st5" d="M896,863.8h791.9"/>
				<path class="st5" d="M1687.9,882.9H896c-10.5,0-19.1-8.5-19.1-19.1c0-10.5,8.5-19.1,19.1-19.1h791.9c10.5,0,19.1,8.5,19.1,19.1
					C1707,874.4,1698.4,882.9,1687.9,882.9z"/>
			</g>
			<g id="path4616">
				<path inkscape:connector-curvature="0" class="st5" d="M896,1080.1h791.9"/>
				<path class="st5" d="M1687.9,1099.2H896c-10.5,0-19.1-8.5-19.1-19.1s8.5-19.1,19.1-19.1h791.9c10.5,0,19.1,8.5,19.1,19.1
					S1698.4,1099.2,1687.9,1099.2z"/>
			</g>
			<g id="path4618">
				<path inkscape:connector-curvature="0" class="st5" d="M896,1289.7h791.9"/>
				<path class="st5" d="M1687.9,1308.8H896c-10.5,0-19.1-8.5-19.1-19.1c0-10.5,8.5-19.1,19.1-19.1h791.9c10.5,0,19.1,8.5,19.1,19.1
					C1707,1300.3,1698.4,1308.8,1687.9,1308.8z"/>
			</g>
			<g id="path4620">
				<path inkscape:connector-curvature="0" class="st5" d="M892.9,1526H1500"/>
				<path class="st5" d="M1500,1545h-607c-10.5,0-19.1-8.5-19.1-19.1s8.5-19.1,19.1-19.1h607c10.5,0,19.1,8.5,19.1,19.1
					S1510.5,1545,1500,1545z"/>
			</g>
			<g id="path4622">
				<path inkscape:connector-curvature="0" class="st5" d="M892.9,1755.5h328.9"/>
				<path class="st5" d="M1221.8,1774.6H892.9c-10.5,0-19.1-8.5-19.1-19.1c0-10.5,8.5-19.1,19.1-19.1h328.9
					c10.5,0,19.1,8.5,19.1,19.1C1240.9,1766.1,1232.3,1774.6,1221.8,1774.6z"/>
			</g>
		</g>
		
			<g id="g4676" transform="matrix(0.35606583,-0.6167241,0.6167241,0.35606583,-303.86938,415.0627)" inkscape:export-xdpi="46.16" inkscape:export-ydpi="46.16">
			<g id="rect4665">
				<path inkscape:connector-curvature="0" class="st6" d="M1189.9,2751.3c0.2,1,0.3,2,0.3,3v162.7c0,1-0.1,2-0.3,3h11.6
					c8.9,0,16-7.2,16-16v-136.7c0-8.9-7.1-16-16-16H1189.9z"/>
				<path d="M1187.1,2922.5l0.5-2.8c0.1-0.9,0.3-1.7,0.3-2.6l0-162.7c0-0.9-0.1-1.8-0.3-2.7l-0.4-2.8l14.4,0c4.9,0,9.6,1.9,13.1,5.4
					c3.5,3.5,5.4,8.1,5.4,13l0,136.7c0,4.9-1.9,9.6-5.4,13c-3.5,3.5-8.1,5.4-13,5.4L1187.1,2922.5z M1192.6,2753.7
					c0,0.2,0,0.4,0,0.6l0,162.7c0,0.2,0,0.4,0,0.6l8.9,0c3.7,0,7.1-1.4,9.6-4c2.6-2.6,4-6,4-9.6l0-136.7c0-3.7-1.4-7.1-4-9.7
					c-2.6-2.6-6-4-9.6-4L1192.6,2753.7z"/>
			</g>
			<g id="rect4628">
				<path class="st6" d="M-318.5,2735.3l1489.7,0c10.5,0,19.1,8.5,19.1,19.1v162.7c0,10.5-8.5,19.1-19.1,19.1l-1489.7,0
					c-10.5,0-19.1-8.5-19.1-19.1l0-162.7C-337.6,2743.8-329,2735.3-318.5,2735.3z"/>
				<path d="M-337.5,2928c-1.9-3.3-2.9-7-2.9-10.9l0-162.7c0-5.9,2.3-11.4,6.4-15.5c4.2-4.2,9.7-6.4,15.5-6.4l1489.7,0
					c5.9,0,11.4,2.3,15.5,6.4c4.1,4.1,6.4,9.6,6.4,15.5l0,162.7c0,5.9-2.3,11.4-6.4,15.5c-4.1,4.1-9.7,6.4-15.5,6.4l-1489.7,0
					c-5.9,0-11.4-2.3-15.5-6.4C-335.4,2931.2-336.6,2929.7-337.5,2928z M1185.2,2746.3c-0.7-1.2-1.6-2.4-2.6-3.4
					c-3.1-3.1-7.1-4.8-11.5-4.8l-1489.7,0c-4.3,0-8.4,1.7-11.5,4.8c-3.1,3.1-4.8,7.1-4.7,11.5l0,162.7c0,4.4,1.7,8.4,4.7,11.5
					c3.1,3.1,7.1,4.8,11.5,4.8l1489.7,0c4.3,0,8.4-1.7,11.5-4.7c3.1-3.1,4.8-7.1,4.8-11.5l0-162.7
					C1187.4,2751.5,1186.6,2748.7,1185.2,2746.3z M-318.5,2735.3L-318.5,2735.3L-318.5,2735.3z"/>
			</g>
			<g id="path4642">
				<path inkscape:connector-curvature="0" class="st6" d="M-337.6,2758l-217.7,44.8v65.9l217.7,44.8L-337.6,2758z"/>
				<path d="M-557.9,2870.7l0-70l2-0.4l220.8-45.4l0,161.7L-557.9,2870.7z M-552.8,2804.9l0,61.7l212.7,43.8l0-149.3L-552.8,2804.9z
					"/>
			</g>
			<g id="path4649">
				<path inkscape:connector-curvature="0" class="st6" d="M-555.3,2816l-55.3,11.4v16.7l55.3,11.4V2816z"/>
				<path d="M-613.2,2846.2l0-20.9l60.4-12.4l0,45.7L-613.2,2846.2z M-608.1,2829.4v12.6l50.3,10.3l0-33.3L-608.1,2829.4z"/>
			</g>
		</g>
	</g>
</g>
</svg>
