<svg id="Layer_1" data-name="Layer 1" xmlns="http://www.w3.org/2000/svg" xmlns:xlink="http://www.w3.org/1999/xlink" viewBox="0 0 738 852"><defs><style>.cls-1{fill:#77aab6;}.cls-2{fill:#ba6f38;}.cls-3{fill:#db1f26;}.cls-4{fill:#fff34d;}.cls-5{fill:#ef4782;}.cls-6{fill:#f7a238;}.cls-7{fill:#00a5dc;}.cls-8{fill:#0088c5;}.cls-9{fill:#f26524;}.cls-10{fill:#fffef9;}.cls-11{fill:#f9ecc6;}.cls-12{fill:#7fb036;}.cls-13{clip-path:url(#clip-path);}.cls-14{fill:#141227;}.cls-15{fill:#e6b35a;}.cls-118,.cls-16{fill:#f2f2f2;}.cls-16,.cls-17{opacity:0.8;}.cls-18{clip-path:url(#clip-path-2);}.cls-19{clip-path:url(#clip-path-3);}.cls-20{clip-path:url(#clip-path-4);}.cls-21{clip-path:url(#clip-path-5);}.cls-22{clip-path:url(#clip-path-6);}.cls-23{fill:#164f86;}.cls-24{clip-path:url(#clip-path-7);}.cls-25{clip-path:url(#clip-path-8);}.cls-26{clip-path:url(#clip-path-9);}.cls-27{clip-path:url(#clip-path-10);}.cls-28{clip-path:url(#clip-path-11);}.cls-29{clip-path:url(#clip-path-12);}.cls-30{fill:#36a85d;}.cls-31{clip-path:url(#clip-path-13);}.cls-32{clip-path:url(#clip-path-14);}.cls-33{clip-path:url(#clip-path-15);}.cls-34{clip-path:url(#clip-path-16);}.cls-35{clip-path:url(#clip-path-17);}.cls-36{clip-path:url(#clip-path-18);}.cls-37{clip-path:url(#clip-path-19);}.cls-38{clip-path:url(#clip-path-20);}.cls-39{clip-path:url(#clip-path-21);}.cls-40{clip-path:url(#clip-path-22);}.cls-41{clip-path:url(#clip-path-23);}.cls-42{clip-path:url(#clip-path-24);}.cls-43{clip-path:url(#clip-path-25);}.cls-44{clip-path:url(#clip-path-26);}.cls-45{clip-path:url(#clip-path-27);}.cls-46{clip-path:url(#clip-path-28);}.cls-47{clip-path:url(#clip-path-29);}.cls-48{clip-path:url(#clip-path-30);}.cls-49{clip-path:url(#clip-path-31);}.cls-50{clip-path:url(#clip-path-32);}.cls-51{clip-path:url(#clip-path-33);}.cls-52{clip-path:url(#clip-path-34);}.cls-53{clip-path:url(#clip-path-35);}.cls-54{clip-path:url(#clip-path-36);}.cls-55{clip-path:url(#clip-path-37);}.cls-56{clip-path:url(#clip-path-38);}.cls-57{clip-path:url(#clip-path-39);}.cls-58{clip-path:url(#clip-path-40);}.cls-59{clip-path:url(#clip-path-41);}.cls-60{clip-path:url(#clip-path-42);}.cls-61{clip-path:url(#clip-path-43);}.cls-62{clip-path:url(#clip-path-44);}.cls-63{clip-path:url(#clip-path-45);}.cls-64{clip-path:url(#clip-path-46);}.cls-65{clip-path:url(#clip-path-47);}.cls-66{clip-path:url(#clip-path-48);}.cls-67{clip-path:url(#clip-path-49);}.cls-68{clip-path:url(#clip-path-50);}.cls-69{clip-path:url(#clip-path-51);}.cls-70{clip-path:url(#clip-path-52);}.cls-71{clip-path:url(#clip-path-53);}.cls-72{clip-path:url(#clip-path-54);}.cls-73{clip-path:url(#clip-path-55);}.cls-74{clip-path:url(#clip-path-56);}.cls-75{clip-path:url(#clip-path-57);}.cls-76{clip-path:url(#clip-path-58);}.cls-77{clip-path:url(#clip-path-59);}.cls-78{clip-path:url(#clip-path-60);}.cls-79{clip-path:url(#clip-path-61);}.cls-80{clip-path:url(#clip-path-62);}.cls-81{clip-path:url(#clip-path-63);}.cls-82{clip-path:url(#clip-path-64);}.cls-83{clip-path:url(#clip-path-65);}.cls-84{clip-path:url(#clip-path-66);}.cls-85{clip-path:url(#clip-path-67);}.cls-86{clip-path:url(#clip-path-68);}.cls-87{clip-path:url(#clip-path-69);}.cls-88{clip-path:url(#clip-path-70);}.cls-89{clip-path:url(#clip-path-71);}.cls-90{clip-path:url(#clip-path-72);}.cls-91{clip-path:url(#clip-path-73);}.cls-92{clip-path:url(#clip-path-74);}.cls-93{clip-path:url(#clip-path-75);}.cls-94{clip-path:url(#clip-path-76);}.cls-95{clip-path:url(#clip-path-77);}.cls-96{clip-path:url(#clip-path-78);}.cls-97{clip-path:url(#clip-path-79);}.cls-98{clip-path:url(#clip-path-80);}.cls-99{clip-path:url(#clip-path-81);}.cls-100{clip-path:url(#clip-path-82);}.cls-101{clip-path:url(#clip-path-83);}.cls-102{clip-path:url(#clip-path-84);}.cls-103{clip-path:url(#clip-path-85);}.cls-104{clip-path:url(#clip-path-86);}.cls-105{clip-path:url(#clip-path-87);}.cls-106{clip-path:url(#clip-path-88);}.cls-107{clip-path:url(#clip-path-89);}.cls-108{clip-path:url(#clip-path-90);}.cls-109{clip-path:url(#clip-path-91);}.cls-110{clip-path:url(#clip-path-92);}.cls-111{clip-path:url(#clip-path-93);}.cls-112{clip-path:url(#clip-path-94);}.cls-113{clip-path:url(#clip-path-95);}.cls-114{clip-path:url(#clip-path-96);}.cls-115{clip-path:url(#clip-path-97);}.cls-116{clip-path:url(#clip-path-98);}.cls-117{clip-path:url(#clip-path-99);}.cls-119,.cls-127{fill:#fff;}.cls-120{font-size:63.61px;fill:#161427;font-family:MyriadPro-Semibold, Myriad Pro;font-weight:700;letter-spacing:-0.02em;}.cls-121{letter-spacing:-0.09em;}.cls-122{letter-spacing:-0.02em;}.cls-123{letter-spacing:-0.03em;}.cls-124{letter-spacing:-0.1em;}.cls-125{letter-spacing:-0.09em;}.cls-126{letter-spacing:-0.02em;}.cls-127{font-size:25px;font-family:MyriadPro-Regular, Myriad Pro;}.cls-128{letter-spacing:0.01em;}.cls-129{letter-spacing:-0.04em;}.cls-130{letter-spacing:-0.02em;}.cls-131{letter-spacing:-0.01em;}.cls-132{letter-spacing:0em;}.cls-133{fill:#404040;}</style><clipPath id="clip-path"><polygon class="cls-1" points="371.01 7.99 729.71 215.06 729.71 637.22 371.01 845.62 4.29 637.22 4.29 215.06 371.01 7.99"/></clipPath><clipPath id="clip-path-2"><polygon class="cls-1" points="644.51 645.34 631.91 645.64 625.23 634.67 631.24 623.58 644.07 623.18 650.76 634.15 644.51 645.34"/></clipPath><clipPath id="clip-path-3"><polygon class="cls-1" points="538.27 661.3 534.45 661.4 532.42 658.07 534.25 654.7 538.14 654.58 540.17 657.91 538.27 661.3"/></clipPath><clipPath id="clip-path-4"><polygon class="cls-9" points="450.57 673.16 446.65 673.25 444.57 669.84 446.44 666.38 450.44 666.26 452.52 669.68 450.57 673.16"/></clipPath><clipPath id="clip-path-5"><polyline class="cls-7" points="700.08 577.32 692.43 577.51 688.38 570.85 692.03 564.12 699.81 563.88 703.87 570.53"/></clipPath><clipPath id="clip-path-6"><polyline class="cls-2" points="622.19 546.37 614.55 546.55 610.49 539.9 614.14 533.16 621.92 532.92 625.98 539.58"/></clipPath><clipPath id="clip-path-7"><polyline class="cls-2" points="501.97 676.68 496.89 676.81 494.19 672.38 496.62 667.9 501.79 667.74 504.49 672.17"/></clipPath><clipPath id="clip-path-8"><polyline class="cls-2" points="584.34 642.27 578.68 642.41 575.67 637.48 578.38 632.49 584.14 632.31 587.15 637.24"/></clipPath><clipPath id="clip-path-9"><polyline class="cls-7" points="544.12 694.73 536.48 694.92 532.42 688.26 536.07 681.53 543.86 681.29 547.91 687.95"/></clipPath><clipPath id="clip-path-10"><polyline class="cls-7" points="508.83 635.4 503.84 635.52 501.2 631.18 503.58 626.79 508.65 626.63 511.3 630.97"/></clipPath><clipPath id="clip-path-11"><polygon class="cls-3" points="574.78 604.24 567.14 604.42 563.08 597.77 566.73 591.04 574.51 590.8 578.57 597.45 574.78 604.24"/></clipPath><clipPath id="clip-path-12"><polygon class="cls-2" points="423.98 534.72 411.38 535.02 404.7 524.06 410.71 512.98 423.54 512.58 430.22 523.54 423.98 534.72"/></clipPath><clipPath id="clip-path-13"><polygon class="cls-4" points="587.7 669.13 580.06 669.31 576 662.66 579.65 655.92 587.43 655.69 591.49 662.34 587.7 669.13"/></clipPath><clipPath id="clip-path-14"><polygon class="cls-8" points="525.63 585.65 517.98 585.84 513.92 579.18 517.58 572.45 525.36 572.21 529.41 578.87 525.63 585.65"/></clipPath><clipPath id="clip-path-15"><polygon class="cls-4" points="692.53 534.65 680.14 534.95 673.56 524.16 679.48 513.24 692.1 512.85 698.68 523.64 692.53 534.65"/></clipPath><clipPath id="clip-path-16"><polygon class="cls-9" points="640.85 411.34 636.14 411.46 633.64 407.36 635.89 403.21 640.69 403.06 643.19 407.16 640.85 411.34"/></clipPath><clipPath id="clip-path-17"><polygon class="cls-1" points="622.85 505.41 615.21 505.59 611.15 498.94 614.8 492.21 622.58 491.97 626.64 498.62 622.85 505.41"/></clipPath><clipPath id="clip-path-18"><polyline class="cls-2" points="691.52 459.46 687.7 459.55 685.67 456.22 687.5 452.86 691.39 452.74 693.42 456.06"/></clipPath><clipPath id="clip-path-19"><polyline class="cls-8" points="572.19 498.6 564.54 498.78 560.49 492.13 564.14 485.4 571.92 485.16 575.98 491.81"/></clipPath><clipPath id="clip-path-20"><polyline class="cls-10" points="610.2 471.94 595.26 472.3 587.33 459.29 594.47 446.14 609.68 445.67 617.61 458.67"/></clipPath><clipPath id="clip-path-21"><polyline class="cls-2" points="672.3 418.04 662.53 418.27 657.35 409.77 662.01 401.17 671.96 400.87 677.14 409.37"/></clipPath><clipPath id="clip-path-22"><polyline class="cls-2" points="602.32 416.04 594.67 416.23 590.62 409.57 594.27 402.84 602.05 402.6 606.11 409.26"/></clipPath><clipPath id="clip-path-23"><polyline class="cls-3" points="678.17 505.28 674.81 505.36 673.03 502.43 674.63 499.48 678.05 499.37 679.83 502.29"/></clipPath><clipPath id="clip-path-24"><polygon class="cls-2" points="654.43 498.28 649.31 498.4 646.58 493.93 649.03 489.42 654.26 489.26 656.98 493.72 654.43 498.28"/></clipPath><clipPath id="clip-path-25"><polygon class="cls-3" points="702.66 426.64 698.76 426.73 696.69 423.34 698.55 419.91 702.52 419.79 704.59 423.18 702.66 426.64"/></clipPath><clipPath id="clip-path-26"><polygon class="cls-1" points="635.23 220.5 628.82 220.66 625.41 215.08 628.48 209.43 635 209.23 638.4 214.81 635.23 220.5"/></clipPath><clipPath id="clip-path-27"><polygon class="cls-1" points="444.29 115.54 440.2 115.64 438.03 112.08 439.99 108.48 444.15 108.35 446.32 111.91 444.29 115.54"/></clipPath><clipPath id="clip-path-28"><polyline class="cls-2" points="372.32 112.38 368.5 112.48 366.47 109.15 368.3 105.78 372.19 105.66 374.22 108.99"/></clipPath><clipPath id="clip-path-29"><polyline class="cls-2" points="704.55 290.48 698.91 290.62 695.92 285.71 698.61 280.75 704.35 280.57 707.34 285.48"/></clipPath><clipPath id="clip-path-30"><polygon class="cls-1" points="593.58 224.9 589.65 225 587.57 221.58 589.45 218.13 593.44 218 595.52 221.42 593.58 224.9"/></clipPath><clipPath id="clip-path-31"><polygon class="cls-1" points="663.25 594.16 657.51 594.3 654.46 589.3 657.2 584.24 663.05 584.06 666.1 589.06 663.25 594.16"/></clipPath><clipPath id="clip-path-32"><polygon class="cls-11" points="604.68 189.18 592.73 189.47 586.39 179.06 592.1 168.54 604.27 168.16 610.61 178.57 604.68 189.18"/></clipPath><clipPath id="clip-path-33"><polygon class="cls-1" points="491.58 223.81 486.55 223.93 483.87 219.54 486.28 215.1 491.41 214.94 494.08 219.33 491.58 223.81"/></clipPath><clipPath id="clip-path-34"><polygon class="cls-6" points="413.32 224.03 405.68 224.21 401.62 217.56 405.27 210.83 413.05 210.59 417.11 217.24 413.32 224.03"/></clipPath><clipPath id="clip-path-35"><polyline class="cls-2" points="466.66 228.75 454.83 229.03 448.55 218.73 454.2 208.31 466.25 207.94 472.52 218.24"/></clipPath><clipPath id="clip-path-36"><polyline class="cls-2" points="504.45 168.78 496.81 168.96 492.75 162.31 496.4 155.57 504.18 155.34 508.24 161.99"/></clipPath><clipPath id="clip-path-37"><polyline class="cls-2" points="504.04 236.38 499.11 236.5 496.49 232.2 498.85 227.86 503.87 227.7 506.49 232"/></clipPath><clipPath id="clip-path-38"><polyline class="cls-2" points="358.79 247.38 351.15 247.56 347.09 240.91 350.74 234.17 358.52 233.93 362.58 240.59"/></clipPath><clipPath id="clip-path-39"><polygon class="cls-4" points="541.94 213.28 537.57 213.38 535.25 209.58 537.34 205.73 541.79 205.59 544.11 209.39 541.94 213.28"/></clipPath><clipPath id="clip-path-40"><polygon class="cls-4" points="417.31 145.22 411.68 145.36 408.69 140.45 411.38 135.49 417.12 135.31 420.11 140.22 417.31 145.22"/></clipPath><clipPath id="clip-path-41"><polygon class="cls-1" points="475.32 614.92 461.94 615.25 454.84 603.6 461.23 591.81 474.85 591.39 481.95 603.04 475.32 614.92"/></clipPath><clipPath id="clip-path-42"><polygon class="cls-1" points="438.57 594.69 430.93 594.87 426.87 588.22 430.52 581.49 438.31 581.25 442.36 587.9 438.57 594.69"/></clipPath><clipPath id="clip-path-43"><polyline class="cls-9" points="533.58 527.71 529.75 527.8 527.73 524.48 529.55 521.11 533.44 520.99 535.47 524.32"/></clipPath><clipPath id="clip-path-44"><polyline class="cls-2" points="667.94 345.43 653.14 345.78 645.28 332.9 652.35 319.87 667.42 319.4 675.27 332.29"/></clipPath><clipPath id="clip-path-45"><polyline class="cls-6" points="458.04 488.93 450.4 489.12 446.34 482.46 449.99 475.73 457.77 475.49 461.83 482.15"/></clipPath><clipPath id="clip-path-46"><polyline class="cls-7" points="473.95 549.44 466.3 549.63 462.25 542.97 465.9 536.24 473.68 536 477.74 542.65"/></clipPath><clipPath id="clip-path-47"><polygon class="cls-2" points="386.93 592.88 379.28 593.06 375.23 586.4 378.88 579.67 386.66 579.43 390.72 586.09 386.93 592.88"/></clipPath><clipPath id="clip-path-48"><polygon class="cls-3" points="511.83 469.53 508.82 469.6 507.22 466.98 508.66 464.32 511.73 464.23 513.33 466.85 511.83 469.53"/></clipPath><clipPath id="clip-path-49"><polygon class="cls-11" points="567.72 465.32 557.33 465.57 551.82 456.53 556.78 447.38 567.35 447.06 572.87 456.1 567.72 465.32"/></clipPath><clipPath id="clip-path-50"><polygon class="cls-3" points="390.19 244.92 386.36 245.01 384.34 241.69 386.16 238.32 390.05 238.2 392.08 241.53 390.19 244.92"/></clipPath><clipPath id="clip-path-51"><polygon class="cls-1" points="306 301.37 301.36 301.48 298.89 297.43 301.11 293.34 305.84 293.19 308.31 297.24 306 301.37"/></clipPath><clipPath id="clip-path-52"><polygon class="cls-6" points="220.3 306 210.47 306.24 205.26 297.69 209.95 289.03 219.95 288.73 225.17 297.28 220.3 306"/></clipPath><clipPath id="clip-path-53"><polyline class="cls-5" points="385.99 179.36 370.29 179.74 361.95 166.07 369.45 152.23 385.44 151.74 393.78 165.41"/></clipPath><clipPath id="clip-path-54"><polyline class="cls-3" points="277.31 332.28 264.15 332.59 257.17 321.14 263.45 309.55 276.85 309.13 283.84 320.59"/></clipPath><clipPath id="clip-path-55"><polyline class="cls-4" points="362.81 286.46 355.17 286.65 351.11 279.99 354.76 273.26 362.54 273.02 366.6 279.68"/></clipPath><clipPath id="clip-path-56"><polyline class="cls-8" points="341.32 315.84 333.68 316.02 329.62 309.37 333.27 302.64 341.05 302.4 345.11 309.05"/></clipPath><clipPath id="clip-path-57"><polyline class="cls-2" points="278.33 281.48 270.69 281.66 266.63 275.01 270.28 268.28 278.06 268.04 282.12 274.69"/></clipPath><clipPath id="clip-path-58"><polygon class="cls-1" points="355.62 570.65 347.97 570.83 343.92 564.18 347.57 557.45 355.35 557.21 359.41 563.86 355.62 570.65"/></clipPath><clipPath id="clip-path-59"><polyline class="cls-2" points="257.11 607.36 249.47 607.55 245.41 600.89 249.06 594.16 256.85 593.92 260.9 600.58"/></clipPath><clipPath id="clip-path-60"><polygon class="cls-2" points="190.97 664.03 187.26 664.12 185.28 660.88 187.06 657.61 190.84 657.49 192.82 660.73 190.97 664.03"/></clipPath><clipPath id="clip-path-61"><polygon class="cls-1" points="435.74 726.8 428.09 726.99 424.04 720.33 427.69 713.6 435.47 713.36 439.53 720.01 435.74 726.8"/></clipPath><clipPath id="clip-path-62"><polyline class="cls-2" points="419.24 628.52 408.2 628.79 402.34 619.18 407.61 609.45 418.86 609.11 424.72 618.72"/></clipPath><clipPath id="clip-path-63"><polygon class="cls-12" points="640.15 599.66 624.22 600.04 615.76 586.17 623.37 572.13 639.6 571.63 648.06 585.51 640.15 599.66"/></clipPath><clipPath id="clip-path-64"><polygon class="cls-3" points="331.99 664.17 316.28 664.54 307.94 650.87 315.45 637.03 331.44 636.53 339.78 650.21 331.99 664.17"/></clipPath><clipPath id="clip-path-65"><polyline class="cls-2" points="346.36 754.02 331.4 754.38 323.47 741.37 330.61 728.2 345.83 727.73 353.77 740.74"/></clipPath><clipPath id="clip-path-66"><polyline class="cls-6" points="295.84 735.84 288.2 736.02 284.14 729.37 287.79 722.64 295.58 722.4 299.63 729.05"/></clipPath><clipPath id="clip-path-67"><polyline class="cls-2" points="284.14 697.81 278.62 697.95 275.69 693.14 278.33 688.28 283.95 688.1 286.88 692.91"/></clipPath><clipPath id="clip-path-68"><polyline class="cls-2" points="291.7 769.79 287.98 769.88 286 766.64 287.78 763.36 291.57 763.25 293.54 766.49"/></clipPath><clipPath id="clip-path-69"><polygon class="cls-7" points="388.52 685.96 380.88 686.14 376.82 679.49 380.47 672.75 388.25 672.51 392.31 679.17 388.52 685.96"/></clipPath><clipPath id="clip-path-70"><polygon class="cls-2" points="315.27 698.04 307.63 698.23 303.57 691.57 307.22 684.84 315.01 684.6 319.06 691.25 315.27 698.04"/></clipPath><clipPath id="clip-path-71"><polygon class="cls-2" points="334.03 609.35 331.31 609.42 329.87 607.05 331.17 604.66 333.94 604.57 335.38 606.94 334.03 609.35"/></clipPath><clipPath id="clip-path-72"><polygon class="cls-1" points="92.48 235.74 84.84 235.92 80.78 229.27 84.43 222.54 92.22 222.3 96.27 228.95 92.48 235.74"/></clipPath><clipPath id="clip-path-73"><polyline class="cls-4" points="172.9 431.71 165.26 431.89 161.2 425.24 164.85 418.51 172.63 418.27 176.69 424.92"/></clipPath><clipPath id="clip-path-74"><polyline class="cls-2" points="151.45 415.08 139.16 415.38 132.63 404.67 138.5 393.85 151.02 393.46 157.55 404.16"/></clipPath><clipPath id="clip-path-75"><polyline class="cls-2" points="121.15 221.18 113.51 221.37 109.45 214.71 113.11 207.98 120.89 207.74 124.94 214.4"/></clipPath><clipPath id="clip-path-76"><polygon class="cls-2" points="230.85 343.29 225.31 343.42 222.37 338.6 225.02 333.73 230.65 333.55 233.59 338.37 230.85 343.29"/></clipPath><clipPath id="clip-path-77"><polygon class="cls-2" points="363.32 320.65 359.6 320.74 357.63 317.5 359.41 314.23 363.19 314.11 365.17 317.35 363.32 320.65"/></clipPath><clipPath id="clip-path-78"><polygon class="cls-2" points="306.92 246.74 289.91 247.15 280.88 232.34 289.01 217.36 306.33 216.82 315.36 231.63 306.92 246.74"/></clipPath><clipPath id="clip-path-79"><polygon class="cls-1" points="314.49 187.64 306.85 187.82 302.79 181.17 306.44 174.44 314.22 174.2 318.28 180.85 314.49 187.64"/></clipPath><clipPath id="clip-path-80"><polygon class="cls-1" points="480.41 174.79 475.37 174.92 472.69 170.53 475.1 166.09 480.23 165.93 482.91 170.32 480.41 174.79"/></clipPath><clipPath id="clip-path-81"><polygon class="cls-1" points="232.32 143.48 224.68 143.67 220.62 137.01 224.27 130.28 232.05 130.04 236.11 136.7 232.32 143.48"/></clipPath><clipPath id="clip-path-82"><polyline class="cls-2" points="204.41 225.46 196.76 225.64 192.71 218.99 196.36 212.26 204.14 212.02 208.2 218.67"/></clipPath><clipPath id="clip-path-83"><polyline class="cls-2" points="282.54 117.8 277.56 117.92 274.92 113.59 277.3 109.2 282.37 109.05 285.01 113.38"/></clipPath><clipPath id="clip-path-84"><polyline class="cls-4" points="309.22 157.61 305.3 157.71 303.22 154.29 305.09 150.84 309.09 150.71 311.17 154.13"/></clipPath><clipPath id="clip-path-85"><polyline class="cls-2" points="433.65 179.97 426.01 180.15 421.95 173.5 425.6 166.77 433.38 166.53 437.44 173.18"/></clipPath><clipPath id="clip-path-86"><polygon class="cls-6" points="258.68 199.58 251.04 199.77 246.98 193.11 250.63 186.38 258.42 186.14 262.47 192.8 258.68 199.58"/></clipPath><clipPath id="clip-path-87"><polygon class="cls-1" points="165.02 219.09 150.51 219.44 142.8 206.81 149.74 194.03 164.51 193.58 172.21 206.21 165.02 219.09"/></clipPath><clipPath id="clip-path-88"><polygon class="cls-1" points="68.98 320.5 55.96 320.82 49.05 309.48 55.27 298.01 68.53 297.6 75.44 308.94 68.98 320.5"/></clipPath><clipPath id="clip-path-89"><polyline class="cls-2" points="46.07 414.59 41.25 414.71 38.69 410.51 40.99 406.27 45.9 406.12 48.46 410.31"/></clipPath><clipPath id="clip-path-90"><polyline class="cls-3" points="97.22 326 92.55 326.11 90.07 322.04 92.3 317.93 97.06 317.78 99.54 321.85"/></clipPath><clipPath id="clip-path-91"><polyline class="cls-3" points="129.64 249.48 123.45 249.63 120.17 244.24 123.13 238.8 129.42 238.6 132.7 243.99"/></clipPath><clipPath id="clip-path-92"><polyline class="cls-2" points="97.49 281.33 93 281.44 90.62 277.54 92.76 273.58 97.33 273.44 99.71 277.35"/></clipPath><clipPath id="clip-path-93"><polyline class="cls-2" points="122.74 376.9 115.1 377.08 111.04 370.43 114.69 363.7 122.47 363.46 126.53 370.11"/></clipPath><clipPath id="clip-path-94"><polygon class="cls-2" points="88.83 399.03 81.18 399.21 77.13 392.56 80.78 385.83 88.56 385.59 92.62 392.24 88.83 399.03"/></clipPath><clipPath id="clip-path-95"><polygon class="cls-4" points="196.82 260.82 193 260.91 190.97 257.58 192.8 254.22 196.69 254.1 198.72 257.43 196.82 260.82"/></clipPath><clipPath id="clip-path-96"><polygon class="cls-2" points="138.37 296.46 128.86 296.68 123.81 288.4 128.35 280.02 138.04 279.73 143.09 288.01 138.37 296.46"/></clipPath><clipPath id="clip-path-97"><polyline class="cls-5" points="57.13 521.25 49.13 521.45 44.88 514.48 48.7 507.43 56.85 507.18 61.1 514.15"/></clipPath><clipPath id="clip-path-98"><polygon class="cls-6" points="233.2 729.25 229.01 729.35 226.79 725.7 228.79 722.01 233.05 721.88 235.28 725.53 233.2 729.25"/></clipPath><clipPath id="clip-path-99"><polygon class="cls-2" points="198.63 709.2 190.99 709.39 186.93 702.73 190.58 696 198.36 695.76 202.42 702.42 198.63 709.2"/></clipPath></defs><title> </title><polygon class="cls-1" points="371.01 7.99 729.71 215.06 729.71 637.22 371.01 845.62 4.29 637.22 4.29 215.06 371.01 7.99"/><g class="cls-13"><circle class="cls-14" cx="367" cy="438.05" r="442.13"/></g><path class="cls-15" d="M266.8,241.88c-.1.41-.22.86-.35,1.31l.23-.14C266.72,242.66,266.76,242.27,266.8,241.88Z"/><polyline class="cls-16" points="631.91 661 629.19 665.87 623.6 666.03 620.69 661.26 623.42 656.4 629 656.23 631.91 661"/><polyline class="cls-16" points="554.18 635.23 550.39 642.02 542.6 642.26 538.54 635.6 542.34 628.82 550.12 628.58 554.18 635.23"/><polyline class="cls-6" points="478.59 642.55 474.8 649.34 467.01 649.57 462.95 642.92 466.75 636.13 474.54 635.89 478.59 642.55"/><polyline class="cls-16" points="473.8 691.78 470.01 698.56 462.21 698.8 458.16 692.15 461.96 685.36 469.74 685.12 473.8 691.78"/><g class="cls-17"><polygon class="cls-1" points="644.51 645.34 631.91 645.64 625.23 634.67 631.24 623.58 644.07 623.18 650.76 634.15 644.51 645.34"/><g class="cls-18"><circle class="cls-6" cx="637.8" cy="634.1" r="13.45" transform="translate(-236.86 424.72) rotate(-31.37)"/></g></g><g class="cls-17"><polygon class="cls-1" points="538.27 661.3 534.45 661.4 532.42 658.07 534.25 654.7 538.14 654.58 540.17 657.91 538.27 661.3"/><g class="cls-19"><circle class="cls-6" cx="536.24" cy="657.9" r="4.08" transform="translate(-264.1 375.33) rotate(-31.37)"/></g></g><polygon class="cls-9" points="450.57 673.16 446.65 673.25 444.57 669.84 446.44 666.38 450.44 666.26 452.52 669.68 450.57 673.16"/><g class="cls-20"><circle class="cls-9" cx="448.49" cy="669.66" r="4.19" transform="translate(-283.05 331.37) rotate(-31.37)"/></g><polyline class="cls-7" points="700.08 577.32 692.43 577.51 688.38 570.85 692.03 564.12 699.81 563.88 703.87 570.53"/><g class="cls-21"><circle class="cls-7" cx="696.01" cy="570.51" r="8.16" transform="translate(-195.25 445.73) rotate(-31.37)"/></g><polyline class="cls-2" points="622.19 546.37 614.55 546.55 610.49 539.9 614.14 533.16 621.92 532.92 625.98 539.58"/><g class="cls-22"><circle class="cls-23" cx="618.12" cy="539.55" r="8.16" transform="matrix(0.85, -0.52, 0.52, 0.85, -190.52, 400.65)"/></g><polyline class="cls-2" points="501.97 676.68 496.89 676.81 494.19 672.38 496.62 667.9 501.79 667.74 504.49 672.17"/><g class="cls-24"><circle class="cls-23" cx="499.26" cy="672.15" r="5.43" transform="translate(-276.92 358.16) rotate(-31.37)"/></g><polyline class="cls-2" points="584.34 642.27 578.68 642.41 575.67 637.48 578.38 632.49 584.14 632.31 587.15 637.24"/><g class="cls-25"><circle class="cls-23" cx="581.33" cy="637.22" r="6.05" transform="translate(-246.74 395.78) rotate(-31.37)"/></g><polyline class="cls-7" points="544.12 694.73 536.48 694.92 532.42 688.26 536.07 681.53 543.86 681.29 547.91 687.95"/><g class="cls-26"><circle class="cls-7" cx="540.05" cy="687.92" r="8.16" transform="matrix(0.85, -0.52, 0.52, 0.85, -279.17, 381.7)"/></g><polyline class="cls-7" points="508.83 635.4 503.84 635.52 501.2 631.18 503.58 626.79 508.65 626.63 511.3 630.97"/><g class="cls-27"><circle class="cls-7" cx="506.17" cy="630.95" r="5.32" transform="translate(-254.46 355.74) rotate(-31.37)"/></g><polygon class="cls-3" points="574.78 604.24 567.14 604.42 563.08 597.77 566.73 591.04 574.51 590.8 578.57 597.45 574.78 604.24"/><g class="cls-28"><circle class="cls-3" cx="570.71" cy="597.42" r="8.16" transform="translate(-227.58 384.43) rotate(-31.37)"/></g><polygon class="cls-2" points="423.98 534.72 411.38 535.02 404.7 524.06 410.71 512.98 423.54 512.58 430.22 523.54 423.98 534.72"/><g class="cls-29"><circle class="cls-30" cx="417.27" cy="523.49" r="13.44" transform="translate(-211.52 293.75) rotate(-31.37)"/></g><polygon class="cls-4" points="587.7 669.13 580.06 669.31 576 662.66 579.65 655.92 587.43 655.69 591.49 662.34 587.7 669.13"/><g class="cls-31"><circle class="cls-4" cx="583.63" cy="662.31" r="8.16" transform="matrix(0.85, -0.52, 0.52, 0.85, -259.47, 400.65)"/></g><polygon class="cls-8" points="525.63 585.65 517.98 585.84 513.92 579.18 517.58 572.45 525.36 572.21 529.41 578.87 525.63 585.65"/><g class="cls-32"><circle class="cls-8" cx="521.56" cy="578.84" r="8.16" transform="translate(-225.09 356.13) rotate(-31.37)"/></g><polyline class="cls-7" points="681.9 375.67 678.11 382.46 670.32 382.69 666.26 376.04 670.06 369.26 677.84 369.02 681.9 375.67"/><polyline class="cls-16" points="599.34 516.98 595.55 523.76 587.76 524 583.7 517.35 587.5 510.56 595.29 510.32 599.34 516.98"/><polyline class="cls-12" points="360.23 607.04 356.44 613.82 348.65 614.06 344.59 607.41 348.39 600.62 356.18 600.38 360.23 607.04"/><polyline class="cls-4" points="658.36 452.83 653.42 461.67 643.27 461.98 637.99 453.31 642.94 444.48 653.08 444.17 658.36 452.83"/><polygon class="cls-4" points="692.53 534.65 680.14 534.95 673.56 524.16 679.48 513.24 692.1 512.85 698.68 523.64 692.53 534.65"/><g class="cls-33"><circle class="cls-4" cx="685.93" cy="523.6" r="13.24" transform="translate(-172.3 433.62) rotate(-31.37)"/></g><polygon class="cls-9" points="640.85 411.34 636.14 411.46 633.64 407.36 635.89 403.21 640.69 403.06 643.19 407.16 640.85 411.34"/><g class="cls-34"><circle class="cls-9" cx="638.35" cy="407.14" r="5.03" transform="translate(-118.63 391.83) rotate(-31.37)"/></g><g class="cls-17"><polygon class="cls-1" points="622.85 505.41 615.21 505.59 611.15 498.94 614.8 492.21 622.58 491.97 626.64 498.62 622.85 505.41"/><g class="cls-35"><circle class="cls-6" cx="618.78" cy="498.59" r="8.16" transform="translate(-169.1 395.01) rotate(-31.37)"/></g></g><polyline class="cls-2" points="691.52 459.46 687.7 459.55 685.67 456.22 687.5 452.86 691.39 452.74 693.42 456.06"/><g class="cls-36"><circle class="cls-23" cx="689.49" cy="456.05" r="4.08" transform="translate(-136.62 425.6) rotate(-31.37)"/></g><polyline class="cls-8" points="572.19 498.6 564.54 498.78 560.49 492.13 564.14 485.4 571.92 485.16 575.98 491.81"/><g class="cls-37"><circle class="cls-8" cx="568.12" cy="491.78" r="8.16" transform="matrix(0.85, -0.52, 0.52, 0.85, -172.96, 367.64)"/></g><polyline class="cls-10" points="610.2 471.94 595.26 472.3 587.33 459.29 594.47 446.14 609.68 445.67 617.61 458.67"/><g class="cls-38"><circle class="cls-10" cx="602.25" cy="458.62" r="15.95" transform="translate(-150.71 380.56) rotate(-31.37)"/></g><polyline class="cls-2" points="672.3 418.04 662.53 418.27 657.35 409.77 662.01 401.17 671.96 400.87 677.14 409.37"/><g class="cls-39"><circle class="cls-23" cx="667.1" cy="409.33" r="10.43" transform="translate(-115.57 407.11) rotate(-31.37)"/></g><polyline class="cls-2" points="602.32 416.04 594.67 416.23 590.62 409.57 594.27 402.84 602.05 402.6 606.11 409.26"/><g class="cls-40"><circle class="cls-23" cx="598.25" cy="409.23" r="8.16" transform="translate(-125.58 371.26) rotate(-31.37)"/></g><polyline class="cls-3" points="678.17 505.28 674.81 505.36 673.03 502.43 674.63 499.48 678.05 499.37 679.83 502.29"/><g class="cls-41"><circle class="cls-3" cx="676.38" cy="502.28" r="3.58" transform="translate(-162.6 425.53) rotate(-31.37)"/></g><polygon class="cls-2" points="654.43 498.28 649.31 498.4 646.58 493.93 649.03 489.42 654.26 489.26 656.98 493.72 654.43 498.28"/><g class="cls-42"><circle class="cls-30" cx="651.7" cy="493.7" r="5.48" transform="translate(-161.74 411.43) rotate(-31.37)"/></g><polygon class="cls-3" points="702.66 426.64 698.76 426.73 696.69 423.34 698.55 419.91 702.52 419.79 704.59 423.18 702.66 426.64"/><g class="cls-43"><circle class="cls-3" cx="700.58" cy="423.17" r="4.16" transform="translate(-117.88 426.57) rotate(-31.37)"/></g><polyline class="cls-16" points="568.31 222.11 564.52 228.9 556.72 229.13 552.67 222.48 556.47 215.7 564.25 215.46 568.31 222.11"/><polyline class="cls-11" points="522.97 192.76 516.84 203.74 504.24 204.12 497.68 193.36 503.83 182.39 516.41 182 522.97 192.76"/><polyline class="cls-4" points="432.76 205.01 430.85 208.44 426.9 208.56 424.85 205.2 426.78 201.77 430.71 201.65 432.76 205.01"/><polyline class="cls-16" points="468.02 249.98 464.23 256.76 456.44 257 452.38 250.35 456.18 243.56 463.96 243.32 468.02 249.98"/><polyline class="cls-16" points="591.55 102.7 589.65 106.09 585.76 106.21 583.73 102.88 585.63 99.49 589.52 99.37 591.55 102.7"/><polyline class="cls-16" points="544.82 154.8 542.18 159.52 536.76 159.69 533.94 155.06 536.59 150.34 542 150.18 544.82 154.8"/><g class="cls-17"><polygon class="cls-1" points="635.23 220.5 628.82 220.66 625.41 215.08 628.48 209.43 635 209.23 638.4 214.81 635.23 220.5"/><g class="cls-44"><circle class="cls-6" cx="631.81" cy="214.79" r="6.84" transform="translate(-19.45 360.31) rotate(-31.37)"/></g></g><g class="cls-17"><polygon class="cls-1" points="444.29 115.54 440.2 115.64 438.03 112.08 439.99 108.48 444.15 108.35 446.32 111.91 444.29 115.54"/><g class="cls-45"><circle class="cls-6" cx="442.12" cy="111.9" r="4.37" transform="translate(6.38 246.51) rotate(-31.37)"/></g></g><polyline class="cls-2" points="372.32 112.38 368.5 112.48 366.47 109.15 368.3 105.78 372.19 105.66 374.22 108.99"/><g class="cls-46"><circle class="cls-23" cx="370.29" cy="108.98" r="4.08" transform="translate(-2.6 208.69) rotate(-31.37)"/></g><polyline class="cls-2" points="704.55 290.48 698.91 290.62 695.92 285.71 698.61 280.75 704.35 280.57 707.34 285.48"/><g class="cls-47"><circle class="cls-23" cx="701.55" cy="285.46" r="6.02" transform="translate(-46.05 406.94) rotate(-31.37)"/></g><g class="cls-17"><polygon class="cls-1" points="593.58 224.9 589.65 225 587.57 221.58 589.45 218.13 593.44 218 595.52 221.42 593.58 224.9"/><g class="cls-48"><circle class="cls-6" cx="591.49" cy="221.4" r="4.19" transform="matrix(0.85, -0.52, 0.52, 0.85, -28.79, 340.28)"/></g></g><g class="cls-17"><polygon class="cls-1" points="663.25 594.16 657.51 594.3 654.46 589.3 657.2 584.24 663.05 584.06 666.1 589.06 663.25 594.16"/><g class="cls-49"><circle class="cls-6" cx="660.19" cy="589.04" r="6.13" transform="translate(-210.13 429.79) rotate(-31.37)"/></g></g><polygon class="cls-11" points="604.68 189.18 592.73 189.47 586.39 179.06 592.1 168.54 604.27 168.16 610.61 178.57 604.68 189.18"/><g class="cls-50"><circle class="cls-11" cx="598.32" cy="178.52" r="12.76" transform="translate(-5.47 337.57) rotate(-31.37)"/></g><g class="cls-17"><polygon class="cls-1" points="491.58 223.81 486.55 223.93 483.87 219.54 486.28 215.1 491.41 214.94 494.08 219.33 491.58 223.81"/><g class="cls-51"><circle class="cls-6" cx="488.9" cy="219.31" r="5.38" transform="matrix(0.85, -0.52, 0.52, 0.85, -42.7, 286.57)"/></g></g><polygon class="cls-6" points="413.32 224.03 405.68 224.21 401.62 217.56 405.27 210.83 413.05 210.59 417.11 217.24 413.32 224.03"/><g class="cls-52"><circle class="cls-6" cx="409.25" cy="217.21" r="8.16" transform="translate(-53.25 244.8) rotate(-31.37)"/></g><polyline class="cls-2" points="466.66 228.75 454.83 229.03 448.55 218.73 454.2 208.31 466.25 207.94 472.52 218.24"/><g class="cls-53"><circle class="cls-23" cx="460.36" cy="218.2" r="12.63" transform="translate(-46.29 271.55) rotate(-31.37)"/></g><polyline class="cls-2" points="504.45 168.78 496.81 168.96 492.75 162.31 496.4 155.57 504.18 155.34 508.24 161.99"/><g class="cls-54"><circle class="cls-23" cx="500.38" cy="161.96" r="8.16" transform="translate(-11.16 284.16) rotate(-31.37)"/></g><polyline class="cls-2" points="504.04 236.38 499.11 236.5 496.49 232.2 498.85 227.86 503.87 227.7 506.49 232"/><g class="cls-55"><circle class="cls-23" cx="501.42" cy="231.98" r="5.27" transform="translate(-47.46 294.94) rotate(-31.37)"/></g><polyline class="cls-2" points="358.79 247.38 351.15 247.56 347.09 240.91 350.74 234.17 358.52 233.93 362.58 240.59"/><g class="cls-56"><circle class="cls-23" cx="354.72" cy="240.56" r="8.16" transform="translate(-73.37 219.83) rotate(-31.37)"/></g><polygon class="cls-4" points="541.94 213.28 537.57 213.38 535.25 209.58 537.34 205.73 541.79 205.59 544.11 209.39 541.94 213.28"/><g class="cls-57"><circle class="cls-4" cx="539.62" cy="209.38" r="4.67" transform="translate(-30.11 311.52) rotate(-31.37)"/></g><polygon class="cls-4" points="417.31 145.22 411.68 145.36 408.69 140.45 411.38 135.49 417.12 135.31 420.11 140.22 417.31 145.22"/><g class="cls-58"><circle class="cls-4" cx="414.32" cy="140.2" r="6.02" transform="translate(-12.42 236.18) rotate(-31.37)"/></g><polyline class="cls-4" points="587.57 559.38 581.47 570.31 568.92 570.69 562.38 559.98 568.5 549.05 581.04 548.67 587.57 559.38"/><polyline class="cls-16" points="258.95 687.13 255.58 693.16 248.66 693.37 245.06 687.46 248.43 681.43 255.34 681.22 258.95 687.13"/><polyline class="cls-3" points="511.94 522.43 505.72 533.57 492.94 533.96 486.28 523.04 492.51 511.91 505.28 511.52 511.94 522.43"/><polyline class="cls-16" points="382.16 629.55 378.37 636.33 370.58 636.57 366.52 629.92 370.32 623.13 378.1 622.89 382.16 629.55"/><g class="cls-17"><polygon class="cls-1" points="475.32 614.92 461.94 615.25 454.84 603.6 461.23 591.81 474.85 591.39 481.95 603.04 475.32 614.92"/><g class="cls-59"><circle class="cls-6" cx="468.19" cy="602.99" r="14.29" transform="translate(-245.46 331.88) rotate(-31.37)"/></g></g><g class="cls-17"><polygon class="cls-1" points="438.57 594.69 430.93 594.87 426.87 588.22 430.52 581.49 438.31 581.25 442.36 587.9 438.57 594.69"/><g class="cls-60"><circle class="cls-6" cx="434.5" cy="587.87" r="8.16" transform="translate(-242.52 312.13) rotate(-31.37)"/></g></g><polyline class="cls-9" points="533.58 527.71 529.75 527.8 527.73 524.48 529.55 521.11 533.44 520.99 535.47 524.32"/><g class="cls-61"><circle class="cls-9" cx="531.54" cy="524.3" r="4.08" transform="translate(-195.24 353.35) rotate(-31.37)"/></g><polyline class="cls-2" points="667.94 345.43 653.14 345.78 645.28 332.9 652.35 319.87 667.42 319.4 675.27 332.29"/><g class="cls-62"><circle class="cls-23" cx="660.06" cy="332.23" r="15.8" transform="translate(-76.46 392.18) rotate(-31.37)"/></g><polyline class="cls-6" points="458.04 488.93 450.4 489.12 446.34 482.46 449.99 475.73 457.77 475.49 461.83 482.15"/><g class="cls-63"><circle class="cls-6" cx="453.97" cy="482.12" r="8.16" transform="translate(-184.62 306.81) rotate(-31.37)"/></g><polyline class="cls-7" points="473.95 549.44 466.3 549.63 462.25 542.97 465.9 536.24 473.68 536 477.74 542.65"/><g class="cls-64"><circle class="cls-7" cx="469.88" cy="542.62" r="8.16" transform="translate(-213.79 323.93) rotate(-31.37)"/></g><polygon class="cls-2" points="386.93 592.88 379.28 593.06 375.23 586.4 378.88 579.67 386.66 579.43 390.72 586.09 386.93 592.88"/><g class="cls-65"><circle class="cls-30" cx="382.86" cy="586.06" r="8.16" transform="matrix(0.85, -0.52, 0.52, 0.85, -249.12, 284.98)"/></g><polygon class="cls-3" points="511.83 469.53 508.82 469.6 507.22 466.98 508.66 464.32 511.73 464.23 513.33 466.85 511.83 469.53"/><g class="cls-66"><circle class="cls-3" cx="510.23" cy="466.84" r="3.22" transform="translate(-168.44 333.86) rotate(-31.37)"/></g><polygon class="cls-11" points="567.72 465.32 557.33 465.57 551.82 456.53 556.78 447.38 567.35 447.06 572.87 456.1 567.72 465.32"/><g class="cls-67"><circle class="cls-11" cx="562.19" cy="456.06" r="11.09" transform="translate(-155.23 359.33) rotate(-31.37)"/></g><polyline class="cls-16" points="393.13 292.75 389.34 299.54 381.55 299.77 377.49 293.12 381.3 286.34 389.08 286.1 393.13 292.75"/><polyline class="cls-3" points="321.72 277.94 319.2 282.46 314.02 282.61 311.32 278.19 313.85 273.68 319.03 273.52 321.72 277.94"/><polyline class="cls-16" points="246.18 285.28 243.65 289.82 238.43 289.98 235.72 285.53 238.26 280.99 243.47 280.83 246.18 285.28"/><polyline class="cls-16" points="422.42 260.7 418.11 268.41 409.25 268.68 404.64 261.12 408.96 253.41 417.81 253.14 422.42 260.7"/><polygon class="cls-3" points="390.19 244.92 386.36 245.01 384.34 241.69 386.16 238.32 390.05 238.2 392.08 241.53 390.19 244.92"/><g class="cls-68"><circle class="cls-3" cx="388.15" cy="241.51" r="4.08" transform="translate(-68.98 237.37) rotate(-31.37)"/></g><g class="cls-17"><polygon class="cls-1" points="306 301.37 301.36 301.48 298.89 297.43 301.11 293.34 305.84 293.19 308.31 297.24 306 301.37"/><g class="cls-69"><circle class="cls-6" cx="303.53" cy="297.22" r="4.96" transform="translate(-110.36 201.46) rotate(-31.37)"/></g></g><polygon class="cls-6" points="220.3 306 210.47 306.24 205.26 297.69 209.95 289.03 219.95 288.73 225.17 297.28 220.3 306"/><g class="cls-70"><circle class="cls-6" cx="215.07" cy="297.24" r="10.49" transform="translate(-123.3 155.41) rotate(-31.37)"/></g><polyline class="cls-5" points="385.99 179.36 370.29 179.74 361.95 166.07 369.45 152.23 385.44 151.74 393.78 165.41"/><g class="cls-71"><circle class="cls-5" cx="377.63" cy="165.36" r="16.77" transform="translate(-30.88 220.76) rotate(-31.37)"/></g><polyline class="cls-3" points="277.31 332.28 264.15 332.59 257.17 321.14 263.45 309.55 276.85 309.13 283.84 320.59"/><g class="cls-72"><circle class="cls-3" cx="270.31" cy="320.54" r="14.05" transform="translate(-127.35 187.57) rotate(-31.37)"/></g><polyline class="cls-4" points="362.81 286.46 355.17 286.65 351.11 279.99 354.76 273.26 362.54 273.02 366.6 279.68"/><g class="cls-73"><circle class="cls-4" cx="358.74" cy="279.65" r="8.16" transform="translate(-93.14 227.63) rotate(-31.37)"/></g><polyline class="cls-8" points="341.32 315.84 333.68 316.02 329.62 309.37 333.27 302.64 341.05 302.4 345.11 309.05"/><g class="cls-74"><circle class="cls-8" cx="337.25" cy="309.02" r="8.16" transform="translate(-111.57 220.74) rotate(-31.37)"/></g><polyline class="cls-2" points="278.33 281.48 270.69 281.66 266.63 275.01 270.28 268.28 278.06 268.04 282.12 274.69"/><g class="cls-75"><circle class="cls-23" cx="274.26" cy="274.66" r="8.16" transform="translate(-102.89 182.93) rotate(-31.37)"/></g><polyline class="cls-16" points="253.2 235.63 247.26 246.26 235.06 246.63 228.7 236.21 234.66 225.58 246.85 225.21 253.2 235.63"/><polyline class="cls-16" points="283.3 624.3 279.51 631.09 271.72 631.33 267.66 624.67 271.46 617.89 279.25 617.65 283.3 624.3"/><g class="cls-17"><polygon class="cls-1" points="355.62 570.65 347.97 570.83 343.92 564.18 347.57 557.45 355.35 557.21 359.41 563.86 355.62 570.65"/><g class="cls-76"><circle class="cls-6" cx="351.55" cy="563.83" r="8.16" transform="translate(-242.13 265.43) rotate(-31.37)"/></g></g><polyline class="cls-2" points="257.11 607.36 249.47 607.55 245.41 600.89 249.06 594.16 256.85 593.92 260.9 600.58"/><g class="cls-77"><circle class="cls-23" cx="253.04" cy="600.55" r="8.16" transform="translate(-275.64 219.52) rotate(-31.37)"/></g><polygon class="cls-2" points="190.97 664.03 187.26 664.12 185.28 660.88 187.06 657.61 190.84 657.49 192.82 660.73 190.97 664.03"/><g class="cls-78"><circle class="cls-30" cx="188.99" cy="660.71" r="3.97" transform="matrix(0.85, -0.52, 0.52, 0.85, -316.32, 194.97)"/></g><polyline class="cls-16" points="409.51 736.9 406.59 742.13 400.59 742.31 397.46 737.18 400.39 731.96 406.39 731.77 409.51 736.9"/><polyline class="cls-12" points="421 651.72 417.21 658.51 409.42 658.75 405.36 652.09 409.16 645.31 416.94 645.07 421 651.72"/><g class="cls-17"><polygon class="cls-1" points="435.74 726.8 428.09 726.99 424.04 720.33 427.69 713.6 435.47 713.36 439.53 720.01 435.74 726.8"/><g class="cls-79"><circle class="cls-6" cx="431.67" cy="719.99" r="8.16" transform="translate(-311.71 329.97) rotate(-31.37)"/></g></g><polyline class="cls-2" points="419.24 628.52 408.2 628.79 402.34 619.18 407.61 609.45 418.86 609.11 424.72 618.72"/><g class="cls-80"><circle class="cls-23" cx="413.36" cy="618.68" r="11.79" transform="translate(-261.64 305.63) rotate(-31.37)"/></g><polygon class="cls-12" points="640.15 599.66 624.22 600.04 615.76 586.17 623.37 572.13 639.6 571.63 648.06 585.51 640.15 599.66"/><g class="cls-81"><circle class="cls-12" cx="631.67" cy="585.45" r="17.02" transform="translate(-212.43 414.42) rotate(-31.37)"/></g><polyline class="cls-16" points="343.44 769.43 339.65 776.22 331.86 776.46 327.8 769.8 331.6 763.02 339.38 762.78 343.44 769.43"/><polyline class="cls-16" points="357.79 695.01 355.19 699.65 349.86 699.82 347.09 695.27 349.69 690.63 355.01 690.46 357.79 695.01"/><polygon class="cls-3" points="331.99 664.17 316.28 664.54 307.94 650.87 315.45 637.03 331.44 636.53 339.78 650.21 331.99 664.17"/><g class="cls-82"><circle class="cls-3" cx="323.63" cy="650.15" r="16.78" transform="translate(-291.15 263.52) rotate(-31.37)"/></g><polyline class="cls-2" points="346.36 754.02 331.4 754.38 323.47 741.37 330.61 728.2 345.83 727.73 353.77 740.74"/><g class="cls-83"><circle class="cls-23" cx="338.4" cy="740.69" r="15.97" transform="translate(-336.12 284.44) rotate(-31.37)"/></g><polyline class="cls-6" points="295.84 735.84 288.2 736.02 284.14 729.37 287.79 722.64 295.58 722.4 299.63 729.05"/><g class="cls-84"><circle class="cls-6" cx="291.77" cy="729.02" r="8.16" transform="translate(-336.86 258.46) rotate(-31.37)"/></g><polyline class="cls-2" points="284.14 697.81 278.62 697.95 275.69 693.14 278.33 688.28 283.95 688.1 286.88 692.91"/><g class="cls-85"><circle class="cls-23" cx="281.2" cy="692.89" r="5.9" transform="translate(-319.59 247.68) rotate(-31.37)"/></g><polyline class="cls-2" points="291.7 769.79 287.98 769.88 286 766.64 287.78 763.36 291.57 763.25 293.54 766.49"/><g class="cls-86"><circle class="cls-23" cx="289.72" cy="766.47" r="3.97" transform="matrix(0.85, -0.52, 0.52, 0.85, -356.66, 262.87)"/></g><polygon class="cls-7" points="388.52 685.96 380.88 686.14 376.82 679.49 380.47 672.75 388.25 672.51 392.31 679.17 388.52 685.96"/><g class="cls-87"><circle class="cls-7" cx="384.45" cy="679.14" r="8.16" transform="translate(-297.34 299.42) rotate(-31.37)"/></g><polygon class="cls-2" points="315.27 698.04 307.63 698.23 303.57 691.57 307.22 684.84 315.01 684.6 319.06 691.25 315.27 698.04"/><g class="cls-88"><circle class="cls-30" cx="311.2" cy="691.23" r="8.16" transform="translate(-314.34 263.05) rotate(-31.37)"/></g><polygon class="cls-2" points="334.03 609.35 331.31 609.42 329.87 607.05 331.17 604.66 333.94 604.57 335.38 606.94 334.03 609.35"/><g class="cls-89"><circle class="cls-30" cx="332.58" cy="606.93" r="2.9" transform="translate(-267.34 261.86) rotate(-31.37)"/></g><polyline class="cls-16" points="199.56 405.65 195.77 412.43 187.97 412.67 183.92 406.02 187.72 399.23 195.5 398.99 199.56 405.65"/><polyline class="cls-16" points="207.39 357.41 202.78 365.66 193.31 365.94 188.38 357.86 193 349.61 202.46 349.32 207.39 357.41"/><polyline class="cls-4" points="60.44 249.21 56.65 255.99 48.86 256.23 44.8 249.57 48.6 242.79 56.38 242.55 60.44 249.21"/><g class="cls-17"><polygon class="cls-1" points="92.48 235.74 84.84 235.92 80.78 229.27 84.43 222.54 92.22 222.3 96.27 228.95 92.48 235.74"/><g class="cls-90"><circle class="cls-6" cx="88.41" cy="228.92" r="8.16" transform="translate(-106.25 79.49) rotate(-31.37)"/></g></g><polyline class="cls-4" points="172.9 431.71 165.26 431.89 161.2 425.24 164.85 418.51 172.63 418.27 176.69 424.92"/><g class="cls-91"><circle class="cls-4" cx="168.83" cy="424.89" r="8.16" transform="translate(-196.51 150) rotate(-31.37)"/></g><polyline class="cls-2" points="151.45 415.08 139.16 415.38 132.63 404.67 138.5 393.85 151.02 393.46 157.55 404.16"/><g class="cls-92"><circle class="cls-23" cx="144.91" cy="404.12" r="13.13" transform="translate(-189.19 134.51) rotate(-31.37)"/></g><polyline class="cls-2" points="121.15 221.18 113.51 221.37 109.45 214.71 113.11 207.98 120.89 207.74 124.94 214.4"/><g class="cls-93"><circle class="cls-23" cx="117.09" cy="214.37" r="8.16" transform="translate(-94.48 92.29) rotate(-31.37)"/></g><polygon class="cls-2" points="230.85 343.29 225.31 343.42 222.37 338.6 225.02 333.73 230.65 333.55 233.59 338.37 230.85 343.29"/><g class="cls-94"><circle class="cls-30" cx="227.9" cy="338.35" r="5.91" transform="translate(-142.82 168.1) rotate(-31.37)"/></g><polygon class="cls-2" points="363.32 320.65 359.6 320.74 357.63 317.5 359.41 314.23 363.19 314.11 365.17 317.35 363.32 320.65"/><g class="cls-95"><circle class="cls-30" cx="361.34" cy="317.33" r="3.97" transform="translate(-112.37 234.5) rotate(-31.37)"/></g><polygon class="cls-2" points="306.92 246.74 289.91 247.15 280.88 232.34 289.01 217.36 306.33 216.82 315.36 231.63 306.92 246.74"/><g class="cls-96"><circle class="cls-30" cx="297.87" cy="231.57" r="18.16" transform="translate(-77.01 188.91) rotate(-31.37)"/></g><polyline class="cls-16" points="345.77 145.98 341.98 152.77 334.19 153 330.13 146.35 333.93 139.56 341.71 139.33 345.77 145.98"/><polyline class="cls-4" points="221.85 175.8 219.47 180.06 214.59 180.2 212.04 176.03 214.43 171.78 219.3 171.63 221.85 175.8"/><polyline class="cls-3" points="412.69 106.57 408.9 113.35 401.11 113.59 397.05 106.94 400.85 100.15 408.63 99.91 412.69 106.57"/><polyline class="cls-11" points="332.73 86.26 326.58 97.27 313.94 97.65 307.37 86.86 313.53 75.86 326.15 75.47 332.73 86.26"/><g class="cls-17"><polygon class="cls-1" points="314.49 187.64 306.85 187.82 302.79 181.17 306.44 174.44 314.22 174.2 318.28 180.85 314.49 187.64"/><g class="cls-97"><circle class="cls-6" cx="310.42" cy="180.82" r="8.16" transform="translate(-48.75 188.03) rotate(-31.37)"/></g></g><g class="cls-17"><polygon class="cls-1" points="480.41 174.79 475.37 174.92 472.69 170.53 475.1 166.09 480.23 165.93 482.91 170.32 480.41 174.79"/><g class="cls-98"><circle class="cls-6" cx="477.72" cy="170.3" r="5.38" transform="translate(-18.82 273.59) rotate(-31.37)"/></g></g><g class="cls-17"><polygon class="cls-1" points="232.32 143.48 224.68 143.67 220.62 137.01 224.27 130.28 232.05 130.04 236.11 136.7 232.32 143.48"/><g class="cls-99"><circle class="cls-6" cx="228.25" cy="136.67" r="8.16" transform="translate(-37.78 138.8) rotate(-31.37)"/></g></g><polyline class="cls-2" points="204.41 225.46 196.76 225.64 192.71 218.99 196.36 212.26 204.14 212.02 208.2 218.67"/><g class="cls-100"><circle class="cls-23" cx="200.34" cy="218.64" r="8.16" transform="translate(-84.53 136.25) rotate(-31.37)"/></g><polyline class="cls-2" points="282.54 117.8 277.56 117.92 274.92 113.59 277.3 109.2 282.37 109.05 285.01 113.38"/><g class="cls-101"><circle class="cls-23" cx="279.89" cy="113.36" r="5.32" transform="translate(-18.1 162.28) rotate(-31.37)"/></g><polyline class="cls-4" points="309.22 157.61 305.3 157.71 303.22 154.29 305.09 150.84 309.09 150.71 311.17 154.13"/><g class="cls-102"><circle class="cls-4" cx="307.13" cy="154.11" r="4.19" transform="translate(-35.33 182.42) rotate(-31.37)"/></g><polyline class="cls-2" points="433.65 179.97 426.01 180.15 421.95 173.5 425.6 166.77 433.38 166.53 437.44 173.18"/><g class="cls-103"><circle class="cls-23" cx="429.58" cy="173.15" r="8.16" transform="translate(-27.34 248.94) rotate(-31.37)"/></g><polygon class="cls-6" points="258.68 199.58 251.04 199.77 246.98 193.11 250.63 186.38 258.42 186.14 262.47 192.8 258.68 199.58"/><g class="cls-104"><circle class="cls-6" cx="254.61" cy="192.77" r="8.16" transform="translate(-63.13 160.73) rotate(-31.37)"/></g><polyline class="cls-16" points="155.74 350.92 151.95 357.7 144.15 357.94 140.1 351.29 143.9 344.5 151.68 344.26 155.74 350.92"/><polyline class="cls-16" points="162.76 265.32 160.41 269.53 155.57 269.68 153.06 265.55 155.41 261.34 160.25 261.19 162.76 265.32"/><g class="cls-17"><polygon class="cls-1" points="165.02 219.09 150.51 219.44 142.8 206.81 149.74 194.03 164.51 193.58 172.21 206.21 165.02 219.09"/><g class="cls-105"><circle class="cls-6" cx="157.29" cy="206.15" r="15.5" transform="matrix(0.85, -0.52, 0.52, 0.85, -84.33, 112.02)"/></g></g><g class="cls-17"><polygon class="cls-1" points="68.98 320.5 55.96 320.82 49.05 309.48 55.27 298.01 68.53 297.6 75.44 308.94 68.98 320.5"/><g class="cls-106"><circle class="cls-6" cx="62.05" cy="308.89" r="13.9" transform="translate(-151.73 77.46) rotate(-31.37)"/></g></g><polyline class="cls-2" points="46.07 414.59 41.25 414.71 38.69 410.51 40.99 406.27 45.9 406.12 48.46 410.31"/><g class="cls-107"><circle class="cls-23" cx="43.5" cy="410.3" r="5.15" transform="translate(-207.23 82.63) rotate(-31.37)"/></g><polyline class="cls-3" points="97.22 326 92.55 326.11 90.07 322.04 92.3 317.93 97.06 317.78 99.54 321.85"/><g class="cls-108"><circle class="cls-3" cx="94.73" cy="321.83" r="4.99" transform="translate(-153.69 96.36) rotate(-31.37)"/></g><polyline class="cls-3" points="129.64 249.48 123.45 249.63 120.17 244.24 123.13 238.8 129.42 238.6 132.7 243.99"/><g class="cls-109"><circle class="cls-3" cx="126.35" cy="243.96" r="6.6" transform="translate(-108.53 101.44) rotate(-31.37)"/></g><polyline class="cls-2" points="97.49 281.33 93 281.44 90.62 277.54 92.76 273.58 97.33 273.44 99.71 277.35"/><g class="cls-110"><circle class="cls-23" cx="95.1" cy="277.33" r="4.79" transform="translate(-130.47 90.05) rotate(-31.37)"/></g><polyline class="cls-2" points="122.74 376.9 115.1 377.08 111.04 370.43 114.69 363.7 122.47 363.46 126.53 370.11"/><g class="cls-111"><circle class="cls-23" cx="118.67" cy="370.08" r="8.16" transform="translate(-175.31 115.88) rotate(-31.37)"/></g><polygon class="cls-2" points="88.83 399.03 81.18 399.21 77.13 392.56 80.78 385.83 88.56 385.59 92.62 392.24 88.83 399.03"/><g class="cls-112"><circle class="cls-30" cx="84.76" cy="392.21" r="8.16" transform="translate(-191.79 101.46) rotate(-31.37)"/></g><polygon class="cls-4" points="196.82 260.82 193 260.91 190.97 257.58 192.8 254.22 196.69 254.1 198.72 257.43 196.82 260.82"/><g class="cls-113"><circle class="cls-4" cx="194.79" cy="257.41" r="4.08" transform="translate(-105.53 139.03) rotate(-31.37)"/></g><polygon class="cls-2" points="138.37 296.46 128.86 296.68 123.81 288.4 128.35 280.02 138.04 279.73 143.09 288.01 138.37 296.46"/><g class="cls-114"><circle class="cls-30" cx="133.31" cy="287.97" r="10.16" transform="translate(-130.42 111.49) rotate(-31.37)"/></g><polyline class="cls-6" points="383.68 720.65 379.89 727.43 372.1 727.67 368.04 721.02 371.84 714.23 379.63 713.99 383.68 720.65"/><polyline class="cls-16" points="321.64 585.37 317.85 592.15 310.06 592.39 306 585.74 309.8 578.95 317.58 578.71 321.64 585.37"/><polyline class="cls-16" points="433.43 549.12 431.54 552.52 427.64 552.63 425.61 549.31 427.51 545.92 431.4 545.8 433.43 549.12"/><polyline class="cls-16" points="71.39 443.03 67.6 449.82 59.81 450.06 55.75 443.4 59.55 436.62 67.34 436.38 71.39 443.03"/><polyline class="cls-11" points="183.85 314.96 177.06 327.13 163.09 327.55 155.82 315.62 162.63 303.46 176.58 303.04 183.85 314.96"/><polyline class="cls-5" points="57.13 521.25 49.13 521.45 44.88 514.48 48.7 507.43 56.85 507.18 61.1 514.15"/><g class="cls-115"><circle class="cls-5" cx="52.87" cy="514.12" r="8.54" transform="translate(-259.91 102.68) rotate(-31.37)"/></g><polygon class="cls-6" points="233.2 729.25 229.01 729.35 226.79 725.7 228.79 722.01 233.05 721.88 235.28 725.53 233.2 729.25"/><g class="cls-116"><circle class="cls-6" cx="230.97" cy="725.51" r="4.47" transform="translate(-343.92 226.3) rotate(-31.37)"/></g><polygon class="cls-2" points="198.63 709.2 190.99 709.39 186.93 702.73 190.58 696 198.36 695.76 202.42 702.42 198.63 709.2"/><g class="cls-117"><circle class="cls-30" cx="194.56" cy="702.39" r="8.16" transform="matrix(0.85, -0.52, 0.52, 0.85, -337.21, 203.96)"/></g><path class="cls-118" d="M500,435.49c53.06-30.17,95.65-69.12,127.4-104.53,45.45-50.67,68.72-94.06,68.72-94.06s-49.19-2.14-116,11c-46.66,9.23-101.93,25.9-155,56.07-16.74,9.52-125,71.88-143.21,83.72L169.32,376.15,42.11,448.49l43.46,18.61,61.5-29.27L178.9,459c-8,5.8-12.61,9.25-12.61,9.25l-30.23,17.19-30.25,17.21,2.5,4.39L84.87,532.3l22.39,39.33,22.39,39.32,33.69-7.23,2.51,4.41,30.25-17.21,30.23-17.19s5.34-2.23,14.38-6.11l2,38.16-57.61,36.11-5.17,48.64,127.21-72.34,47.55-102.69C374.16,505.88,483.26,445,500,435.49Z"/><path class="cls-119" d="M12.32,587.93q3.2,5.53,6.26,11.14c30.25-19.74,57.3-38.46,68.74-46.45C74.62,558.37,44.73,572,12.32,587.93Z"/><path class="cls-119" d="M24.52,610.35c1.13,2.2,2.26,4.4,3.37,6.62,1.92.75-1.86,5.35-.05,6.47,29.33-19.19,61-40.82,72.12-48.61C87.2,580.6,57.1,594.36,24.52,610.35Z"/><path class="cls-119" d="M45.67,630.2c2.78,3,5.34,6.09,7.64,9,26.67-17.58,49.76-33.56,60.1-40.78C101.66,603.76,75.21,615.84,45.67,630.2Z"/><text class="cls-120" transform="matrix(0.87, -0.49, 0.52, 0.92, 145.15, 576.11)">S<tspan class="cls-121" x="31.74" y="0">T</tspan><tspan class="cls-122" x="59.22" y="0">ANFORD </tspan><tspan class="cls-123" x="303.72" y="0">D</tspan><tspan class="cls-124" x="344.93" y="0">A</tspan><tspan class="cls-125" x="378.96" y="0">T</tspan><tspan class="cls-122" x="406.44" y="0">A </tspan><tspan class="cls-126" x="457.52" y="0">L</tspan><tspan class="cls-122" x="487.86" y="0">AB</tspan></text><text class="cls-127" transform="matrix(0.86, -0.5, 0.5, 0.86, 369.18, 810.62)"><tspan class="cls-128">ww</tspan><tspan class="cls-129" x="37.4" y="0">w</tspan><tspan x="54.82" y="0">.rstudi</tspan><tspan class="cls-130" x="120.07" y="0">o</tspan><tspan x="133.2" y="0">.</tspan><tspan class="cls-131" x="138.37" y="0">c</tspan><tspan class="cls-132" x="149.42" y="0">om</tspan></text><path class="cls-133" d="M707.11,196.81,429.31,36.42,369,1.6,308.69,36.42,30.87,196.82,1.59,213.72V638l29.28,16.91,281.28,162.4L369,850.1l56.85-32.82L707.11,654.89,736.41,638V213.72Zm0,425.26L369,817.28,30.87,622.06V231.63L369,36.42h0L707.11,231.63Z"/></svg>