<?xml version="1.0" encoding="utf-8"?>
<!-- Generator: Adobe Illustrator 26.5.0, SVG Export Plug-In . SVG Version: 6.00 Build 0)  -->
<svg version="1.1" id="Layer_1" xmlns="http://www.w3.org/2000/svg" xmlns:xlink="http://www.w3.org/1999/xlink" x="0px" y="0px"
	 viewBox="0 0 2521 2911" style="enable-background:new 0 0 2521 2911;" xml:space="preserve">
<style type="text/css">
	.st0{fill:#BA6F38;}
	
		.st1{clip-path:url(#SVGID_00000120542094064909336930000014558127428649237159_);fill:url(#SVGID_00000132057761184689977420000011453124275923501481_);}
	.st2{opacity:0.23;fill:#FFFFFF;enable-background:new    ;}
	.st3{opacity:0.6;fill:#F9F9F9;enable-background:new    ;}
</style>
<g id="Layer_3">
</g>
<g id="Layer_1_00000018223469307430779020000007856611082022527157_">
	<g id="Layer_2_00000030478478752703956220000016592016159162067589_">
	</g>
	<g>
		<g>
			<polygon id="SVGID_2056_" class="st0" points="1274.4,0 2521,719.8 2521,2186.7 1274.4,2911 0,2186.7 0,719.8 			"/>
		</g>
		<g>
			<defs>
				<polygon id="SVGID_1_" points="1274.4,0 2521,719.8 2521,2186.7 1274.4,2911 0,2186.7 0,719.8 				"/>
			</defs>
			<clipPath id="SVGID_00000121962726091127117510000012223766491068147845_">
				<use xlink:href="#SVGID_1_"  style="overflow:visible;"/>
			</clipPath>
			
				<linearGradient id="SVGID_00000076604670343954189950000015608957306040096413_" gradientUnits="userSpaceOnUse" x1="1260.4999" y1="881.2524" x2="1260.4999" y2="-2191.7014" gradientTransform="matrix(1 0 0 -1 0 839.2)">
				<stop  offset="0" style="stop-color:#FF1F26"/>
				<stop  offset="1" style="stop-color:#DB1F26"/>
			</linearGradient>
			
				<circle style="clip-path:url(#SVGID_00000121962726091127117510000012223766491068147845_);fill:url(#SVGID_00000076604670343954189950000015608957306040096413_);" cx="1260.5" cy="1494.4" r="1536.5"/>
		</g>
	</g>
	<g>
		<path class="st2" d="M2499.5,2168c-87.2-220.7-174.1-441-261.3-661.7c-10.8-27.1-25.4-52.1-43.4-75.4
			c-36.8-48-77.5-81-118.5-120.2c-3.1-3.1-5.9-6.3-9-9.4c0-0.7,0.3-1.4,0.3-2.1c54.6,24,106.7,36.1,154.7,33.7
			c70.5-3.5,121.3-38.6,146.7-112.6c19.8-58.4,22.9-128.2,12.9-206.4c-10.8-84.1-40-168.2-92.4-250.2
			c-70.2-109.8-153.6-191.8-244.7-246.1c-42.1-25-84.1-50-125.8-74.7v301.7l0,0c26.4,18.1,50,43.1,68.5,78.2
			c13.9,27.1,20.5,53.5,21.2,77.8c0.7,18.1-0.3,36.5-4.5,51.4c-10.8,40-40.3,45.9-79.2,32.3c-9.7-3.5-20.2-8.7-30.2-14.6
			c-40.3-23.6-81-47.3-121.3-71.2c8,4.9,16.3,9.4,24.3,14.2v311.7c5.2,5.2,10.4,11.5,15.3,18.1c22.6,30.9,39.3,64.6,52.8,99
			c26.4,67.4,52.1,127.9,77.2,195.3c46.9,127.2,93.1,254.4,139.4,381.6c3.5,9.4,7,13.9,14.2,18.1c0,0,0,0,0.3,0
			c94.2,55.3,188.7,110.9,282.9,166.1c37.9,22.2,75.4,44.5,113.3,66.7c2.8,1.7,5.9,3.5,9.7,5.6
			C2500.1,2170.7,2499.8,2169.3,2499.5,2168z"/>
		<path class="st3" d="M1772.8,898c-27.1-16-53.9-31.6-81-47.6c-12.9-7.3-12.9-7.6-12.9-21.5c0-71.6,0-143.5-0.3-215.1
			c0-9,2.1-10.1,9.7-5.6c0,0,0,0,0.3,0c18.8,11.1,37.5,22.2,56,33.4c18.8,11.1,37.5,21.9,56,33l0,0c11.1,6.6,22.2,12.9,33.4,19.5
			c11.1,6.6,22.2,12.9,33.4,19.5c14.6,8.7,29.2,17.4,43.8,26.4l0,0c2.4,1.4,4.5,2.8,7,4.5l0,0V442.8l0,0
			c-56.6-33.4-112.9-66.7-169.6-100.1l0,0c-71.6-42.1-143.2-84.1-214.8-126.2c-71.6-42.1-143.2-84.1-214.8-126.2
			c-11.1-6.3-11.1-6.3-11.1,6.6c-0.3,300.6-0.3,600.9-0.7,901.5c0,90,0.3,180,0.3,270c0,66.7,0,126.2-0.3,192.5
			c0,4.5,0.3,7.6,2.1,10.4c1,2.1,2.8,3.5,5.2,5.2c0.7,0.7,1.7,1,2.8,1.7c53.2,31.3,106.7,62.6,159.9,93.8
			c62.9,36.8,125.8,74,188.7,111.2c2.4,1.4,4.2,2.1,5.6,2.4c0.3,0,0.7,0,0.7,0c0.3,0,0.3,0,0.7,0s0.7-0.3,1-0.3l0.3-0.3
			c0.3-0.7,0.7-1.4,1-2.4c0.3-1,0.3-2.4,0.3-4.2c0-23.3,0-46.6,0-69.5c0-46.2,0.3-92.8,0.3-139c0-23.3,0-46.2,0-69.5
			c0-82-0.3-157.4-0.7-239.8c0-9.7,2.4-10.8,10.1-6.3c0.3,0,0.7,0.3,0.7,0.3c13.9,8.3,27.8,16.7,41.7,24.7
			c15.6,9,31.3,18.4,46.9,27.5c0,0,0,0,0.3,0c1.7,1,3.8,2.4,5.6,3.5c0.3,0.3,0.7,0.3,1,0.7c1.4,1,3.1,2.1,4.5,3.5
			c0.3,0.3,0.3,0.3,0.7,0.7c1.7,1.4,3.1,2.8,4.9,4.2l0.3,0.3c1.7,1.4,3.5,3.1,5.2,4.9V913C1789.1,907.8,1780.8,902.9,1772.8,898z"/>
		<path class="st3" d="M1239.6,1268.5c0-90,0.3-180,0.3-270c0-300.6-0.3-600.9-0.7-901.5c0-12.9,0-12.9-11.1-6.6
			C1085,174.5,941.8,258.2,798.6,342.7C742,376,685.7,409.4,629,442.8l0,0v301.7l0,0c2.4-1.4,4.5-3.1,7-4.5l0,0
			c7.3-4.5,14.6-9,21.9-13.2c7.3-4.5,14.6-8.7,21.9-12.9c22.2-13.2,44.5-25.7,66.7-38.9l0,0c18.8-11.1,37.5-21.9,56-33
			c18.8-11.1,37.5-21.9,56-33.4c0,0,0,0,0.3,0c7.6-4.5,9.7-3.5,9.7,5.6c-0.3,71.9,3.1,971.7,3.1,1064.9c0,8.7,2.4,9.4,9.7,4.9
			c62.9-37.2,125.8-74.4,188.7-111.2c53.2-31.3,106.7-62.6,159.9-93.8c7.6-4.5,10.1-8.3,10.1-17.4
			C1239.6,1395,1239.6,1335.3,1239.6,1268.5z"/>
	</g>
</g>
</svg>
