<svg id="Layer_1" data-name="Layer 1" xmlns="http://www.w3.org/2000/svg" xmlns:xlink="http://www.w3.org/1999/xlink" viewBox="0 0 735 852"><defs><style>.cls-1,.cls-5{fill:#de5a27;}.cls-10,.cls-2,.cls-7{fill:#fff;}.cls-3{clip-path:url(#clip-path);}.cls-4{fill:#db1f26;}.cls-5{opacity:0.25;}.cls-6{fill:#e6b35a;}.cls-7{font-size:238px;letter-spacing:-0.03em;}.cls-10,.cls-7{font-family:MyriadPro-Regular, Myriad Pro;}.cls-8{letter-spacing:-0.04em;}.cls-9{fill:#a51d21;}.cls-10{font-size:25px;}.cls-11{letter-spacing:0.01em;}.cls-12{letter-spacing:-0.04em;}.cls-13{letter-spacing:-0.02em;}.cls-14{letter-spacing:-0.01em;}.cls-15{letter-spacing:0em;}</style><clipPath id="clip-path"><polygon class="cls-1" points="369.51 7.4 728.21 214.47 728.21 636.62 369.51 845.03 2.79 636.62 2.79 214.47 35.34 222.21 367.49 35.82 369.51 7.4"/></clipPath></defs><title> </title><path class="cls-2" d="M705.61,196.21,427.81,35.82,367.5,1,307.19,35.82,29.37,196.22.09,213.13V637.38l29.28,16.91,281.28,162.4,56.85,32.82,56.85-32.82L705.61,654.3l29.3-16.92V213.13Zm0,425.26L367.49,816.68,29.37,621.47V231L367.49,35.82h0L705.61,231Z"/><polygon class="cls-1" points="369.51 7.4 728.21 214.47 728.21 636.62 369.51 845.03 2.79 636.62 2.79 214.47 35.34 222.21 367.49 35.82 369.51 7.4"/><g class="cls-3"><circle class="cls-4" cx="365.5" cy="437.45" r="442.13"/><ellipse class="cls-5" cx="366.89" cy="105.8" rx="315.24" ry="234.63"/></g><path class="cls-6" d="M367,633.9c.29-.29.6-.59.93-.89h-.26Z"/><text class="cls-7" transform="translate(193.4 431.86)">t<tspan x="71.16" y="7">e</tspan><tspan x="182.78" y="32">s</tspan><tspan x="269.41" y="-25">t</tspan><tspan x="-16.18" y="186.2">th</tspan><tspan class="cls-8" x="179.45" y="186.2">a</tspan><tspan x="285.6" y="186.2">t</tspan></text><path class="cls-9" d="M705.61,196.21,427.81,35.82,367.5,1h0V35.82h0L705.61,231V621.47L367.49,816.68,29.37,621.47V231l10.87-6.11c.07-11.8-3.19-21.59-2.75-33.38l-8.11,4.68L.09,213.13V637.38l29.28,16.91,281.28,162.4,56.85,32.82,56.85-32.82L705.61,654.3l29.3-16.92V213.13Z"/><text class="cls-10" transform="matrix(0.86, -0.5, 0.5, 0.86, 369.28, 809.1)"><tspan class="cls-11">ww</tspan><tspan class="cls-12" x="37.4" y="0">w</tspan><tspan x="54.82" y="0">.rstudi</tspan><tspan class="cls-13" x="120.07" y="0">o</tspan><tspan x="133.2" y="0">.</tspan><tspan class="cls-14" x="138.37" y="0">c</tspan><tspan class="cls-15" x="149.42" y="0">om</tspan></text><path class="cls-9" d="M22.34,220.54l20.16,5.64L414,346.29h0l2.84.82,23.61-21.32-.61-2.83-66.27-21.42L68.34,202.85,37.48,191.54,14,212.46C20.18,220,16.36,212.8,22.34,220.54Z"/></svg>