<?xml version="1.0" encoding="utf-8"?>
<!-- Generator: Adobe Illustrator 27.9.0, SVG Export Plug-In . SVG Version: 6.00 Build 0)  -->
<svg version="1.1" id="Layer_1" xmlns="http://www.w3.org/2000/svg" xmlns:xlink="http://www.w3.org/1999/xlink" x="0px" y="0px"
	 viewBox="0 0 2521 2911" style="enable-background:new 0 0 2521 2911;" xml:space="preserve">
<style type="text/css">
	.st0{fill:#FFFFFF;}
	.st1{fill:#DB1F26;}
	.st2{fill:none;stroke:#FFFFFF;stroke-width:0;stroke-linecap:round;stroke-linejoin:round;}
	.st3{fill:none;}
	.st4{opacity:0.25;fill:#DE5A27;enable-background:new    ;}
	.st5{fill:#E6B35A;}
	.st6{fill:#A51D21;}
</style>
<g>
	<polygon class="st0" points="1219.3,2887.3 1260.5,2911 1414.2,2822.1 1260.5,2911 	"/>
	<g>
		<g>
			<path class="st1" d="M1260.5,119.5L265.2,678l-128,71.7c-0.5-7.2-1.3-14.2-2.2-21.1l-67.4,38.9v1377.4l1192.9,688.6l1192.6-688.6
				V767.5L1260.5,78.9V119.5z"/>
			<line class="st2" x1="100.5" y1="669.7" x2="0" y2="727.7"/>
			<polyline class="st2" points="1260.5,0 1467.4,119.4 2420.5,669.7 2521,727.7 			"/>
			<path class="st0" d="M100.5,669.7l27.8-16.1c0,0,0,0,0,0L100.5,669.7z"/>
		</g>
		<path class="st3" d="M1260.5,119.4L1260.5,119.4L1260.5,119.4z"/>
		<polygon class="st0" points="1863.3,2562.8 2420.5,2241.3 2430.1,2235.8 2420.5,2241.3 		"/>
		<path class="st4" d="M264.9,677.9c165.7,286.1,548.3,486.5,993.6,486.5c439.8,0,818.6-195.6,987.4-476.2l-985.3-568.8l0,0
			L264.9,677.9z"/>
		<path class="st5" d="M1258.8,2171.3c1-1,2.1-2.1,3.1-3.1h-1C1260.5,2169.3,1259.8,2170.3,1258.8,2171.3z"/>
		<path class="st0" d="M809.3,969.5v113.6h102.9v54.9H809.3v213c0,49.1,14.1,76.8,53.9,76.8c14.1,0.3,28.1-1.4,41.5-4.8l3.4,53.9
			c-13.7,5.8-36,9.9-63.8,9.9c-33.6,0-60.4-10.6-77.5-30.2c-20.6-21.3-27.8-56.3-27.8-102.9v-215.5h-61.4v-54.5H739V988L809.3,969.5
			z"/>
		<path class="st0" d="M1007,1317.8c1.7,97.1,63.8,137.2,135.5,137.2c51.5,0,82.3-8.9,109.4-20.6l12.4,51.5
			c-25.4,11.3-68.6,24.4-131.4,24.4c-121.8,0-194.2-79.9-194.2-199.3s70.3-213.1,185.3-213.1c129,0,163.3,113.6,163.3,186.3
			c0,11.3-1,22.3-2.4,33.6H1007z M1217.6,1266.3c0.7-45.6-18.9-116.6-99.5-116.6c-72.7,0-104.6,66.9-110.1,116.6H1217.6z"/>
		<path class="st0" d="M1340.1,1514.3c21.3,13.7,58.7,28.5,94.7,28.5c52.1,0,76.9-26.1,76.9-58.7c0-34.3-20.6-53.2-73.4-72.7
			c-71-25.4-104.6-64.5-104.6-111.8c0-63.8,51.5-116,136.5-116c40.1,0,75.1,11.3,97.1,24.4l-17.8,52.1c-24.4-15.1-52.1-23-81-23
			c-42.5,0-66.2,24.4-66.2,53.9c0,32.6,23.7,47.3,75.1,66.9c68.6,26.1,103.6,60.4,103.6,119.4c0,69.3-53.9,118.4-147.9,118.4
			c-43.2,0-83.4-10.6-111.2-27.1L1340.1,1514.3z"/>
		<path class="st0" d="M1733.6,883.8v113.6h102.9v54.9h-102.9v213.1c0,49.1,13.7,76.8,53.9,76.8c14.1,0.3,28.1-1.4,41.5-4.8
			l3.4,53.9c-13.7,5.8-36,9.9-63.8,9.9c-33.6,0-60.4-10.6-77.5-30.2c-20.6-21.3-27.8-56.3-27.8-102.9v-215.5h-61.4V998h61.4v-95.7
			L1733.6,883.8z"/>
		<path class="st0" d="M753.8,1608.3v113.6h102.9v54.9H753.8v213.1c0,49.1,13.7,76.8,53.9,76.8c14.1,0.3,28.1-1.4,41.5-4.8l3.4,53.9
			c-13.7,5.8-36,9.9-63.8,9.9c-33.6,0-60.4-10.6-77.5-30.2c-20.2-21.3-27.8-56.3-27.8-102.9v-215.5H622v-54.9h61.4v-94.7
			L753.8,1608.3z"/>
		<path class="st0" d="M911.6,1537.3h71.7V1784h1.7c12-21.3,29.8-38.8,51.5-50.8c22.3-13,47.7-20.2,73.4-20.6
			c53.2,0,137.9,32.6,137.9,169.1v235h-72v-227.1c0-63.8-23.7-117.7-91.6-117.7c-46.7,0-83.4,32.6-96.4,71.7
			c-4.1,9.9-4.8,20.6-4.8,34.3v238.4h-71.7v-579.1L911.6,1537.3L911.6,1537.3z"/>
		<path class="st0" d="M1557.3,2117.1l-5.8-49.7h-2.4c-22,30.9-64.5,58.7-120.8,58.7c-79.9,0-120.8-56.3-120.8-113.6
			c0-95.4,85.1-147.9,237.8-146.8v-8.2c0-32.6-8.9-91.6-89.9-91.6c-36.4,0-72,10.3-102.9,29.5L1336,1748c32.6-21.3,79.9-35,129.7-35
			c120.8,0,150.3,82.3,150.3,161.6v147.9c0,34.3,1.7,67.9,6.5,94.7L1557.3,2117.1L1557.3,2117.1z M1546.6,1915.4
			c-78.6-1.7-167.4,12.4-167.4,88.9c0,46.7,30.9,68.6,67.9,68.6c51.5,0,84.1-32.6,95.7-66.2c2.4-7.2,3.8-15.1,4.1-23v-68.3
			L1546.6,1915.4L1546.6,1915.4z"/>
		<path class="st0" d="M1789.2,1608.3v113.6h102.9v54.9h-102.9v213.1c0,49.1,13.7,76.8,53.9,76.8c14.1,0.3,28.1-1.4,41.5-4.8
			l3.4,53.9c-13.7,5.8-36,9.9-63.8,9.9c-33.6,0-60.4-10.6-77.5-30.2c-20.6-21.3-27.8-56.3-27.8-102.9v-215.5h-61.4v-54.9h61.4v-94.7
			L1789.2,1608.3z"/>
		<path class="st6" d="M76.2,753.1l69.3,19.2L1420,1184.6l0,0l9.9,2.7l81-73.1l-2.1-9.6l-227.5-73.4L234,692.7l-106-38.8l-80.3,71.7
			C69,751.3,55.9,726.6,76.2,753.1z"/>
	</g>
	<path class="st6" d="M1863.3,2562.8l557.2-321.8l9.6-5.5l90.9-52.5V727.7l0,0l-100.5-58l-953.1-550.3L1260.5,0l0,0v119.4l0,0
		l985.3,568.8l174.6,100.9v1339.7l-1160,669.7l-1160-669.7l0,0V789.1l37.4-20.9c0-6.2-0.3-12.4-0.7-18.5
		c-2.4-32.6-9.9-62.1-8.9-96.1l-27.8,16.1L0,727.7V2183l100.5,58l965.1,557.2l153.7,88.9l41.2,23.7l153.7-88.9l41.2-23.7
		L1863.3,2562.8z"/>
</g>
</svg>
