<?xml version="1.0" encoding="utf-8"?>
<!-- Generator: Adobe Illustrator 22.0.1, SVG Export Plug-In . SVG Version: 6.00 Build 0)  -->
<svg version="1.1" id="Layer_1" xmlns="http://www.w3.org/2000/svg" xmlns:xlink="http://www.w3.org/1999/xlink" x="0px" y="0px"
	 viewBox="0 0 735 852" style="enable-background:new 0 0 735 852;" xml:space="preserve">
<style type="text/css">
	.st0{fill:#DB1F26;}
	.st1{fill:none;}
	.st2{fill:#FFFFFF;}
	.st3{opacity:0.25;fill:#DE5A27;enable-background:new    ;}
	.st4{fill:#A51D21;}
	.st5{fill:#E6B35A;}
</style>
<polygon class="st0" points="715.1,224.7 367.5,24 367.5,24 19.8,224.7 19.8,626.2 367.5,826.9 715.1,626.2 "/>
<title>test that</title>
<polygon class="st1" points="367.5,35.8 367.5,35.8 367.5,35.8 "/>
<polygon class="st2" points="543.2,748 705.6,654.3 708.4,652.7 705.6,654.3 "/>
<polygon class="st2" points="355.5,842.6 367.5,849.5 412.3,823.6 367.5,849.5 "/>
<path class="st2" d="M37.5,191.5c-0.4,10,1.9,18.5,2.6,28l37.3-20.9L367.5,35.8l0,0V1l0,0l60.3,34.8l277.8,160.4l29.3,16.9l0,0
	l-29.3-16.9L427.8,35.8L367.5,1l-60.3,34.8L29.4,196.2L0.1,213.1l0,0l29.3-16.9L37.5,191.5z"/>
<path class="st3" d="M77.3,198.6c48.3,83.4,159.8,141.8,289.6,141.8c128.2,0,238.6-57,287.8-138.8L367.5,35.8l0,0L77.3,198.6z"/>
<path class="st4" d="M543.2,748l162.4-93.8l2.8-1.6l26.5-15.3V213.1l0,0l-29.3-16.9L427.8,35.8L367.5,1l0,0v34.8l0,0l287.2,165.8
	l50.9,29.4v390.5L367.5,816.7L29.4,621.5l0,0V231l10.9-6.1c0-1.8-0.1-3.6-0.2-5.4c-0.7-9.5-2.9-18.1-2.6-28l-8.1,4.7L0.1,213.1
	v424.2l29.3,16.9l281.3,162.4l44.8,25.9l12,6.9l44.8-25.9l12-6.9L543.2,748z"/>
<path class="st5" d="M367,633.9c0.3-0.3,0.6-0.6,0.9-0.9h-0.3C367.5,633.3,367.3,633.6,367,633.9z"/>
<path class="st2" d="M236,283.6v33.1h30v16h-30v62.1c0,14.3,4.1,22.4,15.7,22.4c4.1,0.1,8.2-0.4,12.1-1.4l1,15.7
	c-4,1.7-10.5,2.9-18.6,2.9c-9.8,0-17.6-3.1-22.6-8.8c-6-6.2-8.1-16.4-8.1-30v-62.8h-17.9v-15.9h17.9V289L236,283.6z"/>
<path class="st2" d="M293.6,385.1c0.5,28.3,18.6,40,39.5,40c15,0,24-2.6,31.9-6l3.6,15c-7.4,3.3-20,7.1-38.3,7.1
	c-35.5,0-56.6-23.3-56.6-58.1s20.5-62.1,54-62.1c37.6,0,47.6,33.1,47.6,54.3c0,3.3-0.3,6.5-0.7,9.8L293.6,385.1z M355,370.1
	c0.2-13.3-5.5-34-29-34c-21.2,0-30.5,19.5-32.1,34H355z"/>
<path class="st2" d="M390.7,442.4c6.2,4,17.1,8.3,27.6,8.3c15.2,0,22.4-7.6,22.4-17.1c0-10-6-15.5-21.4-21.2
	c-20.7-7.4-30.5-18.8-30.5-32.6c0-18.6,15-33.8,39.8-33.8c11.7,0,21.9,3.3,28.3,7.1l-5.2,15.2c-7.1-4.4-15.2-6.7-23.6-6.7
	c-12.4,0-19.3,7.1-19.3,15.7c0,9.5,6.9,13.8,21.9,19.5c20,7.6,30.2,17.6,30.2,34.8c0,20.2-15.7,34.5-43.1,34.5
	c-12.6,0-24.3-3.1-32.4-7.9L390.7,442.4z"/>
<path class="st2" d="M505.4,258.6v33.1h30v16h-30v62.1c0,14.3,4,22.4,15.7,22.4c4.1,0.1,8.2-0.4,12.1-1.4l1,15.7
	c-4,1.7-10.5,2.9-18.6,2.9c-9.8,0-17.6-3.1-22.6-8.8c-6-6.2-8.1-16.4-8.1-30v-62.8h-17.9v-15.9h17.9V264L505.4,258.6z"/>
<path class="st2" d="M219.8,469.8v33.1h30v16h-30v62.1c0,14.3,4,22.4,15.7,22.4c4.1,0.1,8.2-0.4,12.1-1.4l1,15.7
	c-4,1.7-10.5,2.9-18.6,2.9c-9.8,0-17.6-3.1-22.6-8.8c-5.9-6.2-8.1-16.4-8.1-30v-62.8h-17.9v-16h17.9v-27.6L219.8,469.8z"/>
<path class="st2" d="M265.8,449.1h20.9V521h0.5c3.5-6.2,8.7-11.3,15-14.8c6.5-3.8,13.9-5.9,21.4-6c15.5,0,40.2,9.5,40.2,49.3v68.5
	h-21v-66.2c0-18.6-6.9-34.3-26.7-34.3c-13.6,0-24.3,9.5-28.1,20.9c-1.2,2.9-1.4,6-1.4,10v69.5h-20.9V449.1z"/>
<path class="st2" d="M454,618.1l-1.7-14.5h-0.7c-6.4,9-18.8,17.1-35.2,17.1c-23.3,0-35.2-16.4-35.2-33.1c0-27.8,24.8-43.1,69.3-42.8
	v-2.4c0-9.5-2.6-26.7-26.2-26.7c-10.6,0-21,3-30,8.6l-4.8-13.8c9.5-6.2,23.3-10.2,37.8-10.2c35.2,0,43.8,24,43.8,47.1v43.1
	c0,10,0.5,19.8,1.9,27.6H454z M450.9,559.3c-22.9-0.5-48.8,3.6-48.8,25.9c0,13.6,9,20,19.8,20c15,0,24.5-9.5,27.9-19.3
	c0.7-2.1,1.1-4.4,1.2-6.7V559.3z"/>
<path class="st2" d="M521.6,469.8v33.1h30v16h-30v62.1c0,14.3,4,22.4,15.7,22.4c4.1,0.1,8.2-0.4,12.1-1.4l1,15.7
	c-4,1.7-10.5,2.9-18.6,2.9c-9.8,0-17.6-3.1-22.6-8.8c-6-6.2-8.1-16.4-8.1-30v-62.8h-17.9v-16h17.9v-27.6L521.6,469.8z"/>
<path class="st2" d="M365.5,797.3l4.5,4.5c1,1,1.9,1.9,2.7,2.9h0.1c-0.4-1.2-0.7-2.5-1-3.8l-1.4-6.3l1.6-0.9l4.7,4.3
	c1.1,1,2.1,2,2.9,2.9h0.1c-0.5-1.3-0.9-2.6-1.2-3.9l-1.6-6.1l1.9-1.1l2.7,12.4l-1.7,1l-4.5-4.1c-1-0.9-2-1.9-2.9-2.9h0
	c0.4,1.3,0.8,2.6,1.1,4l1.2,6l-1.7,1l-9.2-8.6L365.5,797.3z"/>
<path class="st2" d="M381.7,787.9l4.5,4.5c1,1,1.9,1.9,2.7,2.9h0.1c-0.4-1.2-0.7-2.5-1-3.8l-1.4-6.3l1.6-0.9l4.7,4.3
	c1.1,1,2.1,2,2.9,2.9h0.1c-0.5-1.3-0.9-2.6-1.2-3.9l-1.6-6.1l1.9-1.1l2.7,12.4l-1.7,1l-4.5-4.1c-1-0.9-2-1.9-2.9-2.9h0
	c0.4,1.3,0.8,2.6,1.1,4l1.2,6l-1.7,1l-9.2-8.7L381.7,787.9z"/>
<path class="st2" d="M397.9,778.5l4.5,4.5c1,1,1.9,1.9,2.7,2.9h0.1c-0.4-1.2-0.7-2.5-1-3.8l-1.4-6.3l1.6-0.9l4.7,4.3
	c1.1,1,2.1,2,2.9,2.9h0.1c-0.5-1.3-0.9-2.6-1.2-3.9l-1.6-6.1l1.9-1.1l2.7,12.4l-1.7,1l-4.5-4.1c-1-1-2-1.8-2.9-2.9l0,0
	c0.4,1.3,0.8,2.6,1.1,4l1.2,5.9l-1.7,1l-9.2-8.6L397.9,778.5z"/>
<path class="st2" d="M417.1,779.7c-0.5-0.7-0.3-1.6,0.4-2.1c0,0,0.1,0,0.1-0.1c0.7-0.5,1.7-0.3,2.2,0.5c0.5,0.7,0.3,1.7-0.5,2.2
	C418.6,780.7,417.6,780.5,417.1,779.7C417.2,779.8,417.1,779.8,417.1,779.7z"/>
<path class="st2" d="M418.5,770.8c-0.7-1.2-1.4-2.3-2-3.2l1.7-1l1.3,2h0.1c-0.4-1.5,0.2-3.2,1.6-4c0.2-0.1,0.4-0.2,0.6-0.2l1,1.8
	c-0.2,0.1-0.5,0.2-0.7,0.3c-1.3,0.8-1.8,2.5-1.1,3.9c0.1,0.3,0.3,0.6,0.4,0.9l3.2,5.6l-1.9,1.1L418.5,770.8z"/>
<path class="st2" d="M428.4,772.1c1,0,2-0.2,3-0.7c1.4-0.8,1.6-1.9,1.1-2.7s-1.4-1.1-3.1-0.8c-2.3,0.4-3.8-0.1-4.5-1.3
	c-1-1.7-0.4-3.9,1.8-5.2c0.9-0.5,1.9-0.8,3-0.8l0.3,1.7c-0.9,0-1.7,0.2-2.5,0.6c-0.9,0.4-1.3,1.4-1,2.3c0,0,0,0.1,0.1,0.1
	c0.5,0.9,1.4,0.9,3,0.6c2.2-0.4,3.7,0,4.6,1.5c1.1,1.8,0.4,4-2.1,5.4c-1,0.6-2.2,1-3.4,1L428.4,772.1z"/>
<path class="st2" d="M432.8,754.1l1.8,3l2.7-1.6l0.8,1.4l-2.7,1.6l3.3,5.6c0.8,1.3,1.5,1.8,2.6,1.2c0.4-0.2,0.7-0.5,1-0.8l0.9,1.4
	c-0.4,0.5-0.9,0.9-1.5,1.2c-0.7,0.5-1.7,0.6-2.5,0.4c-1-0.5-1.9-1.3-2.3-2.3l-3.3-5.7l-1.6,0.9l-0.9-1.4l1.6-1l-1.5-2.5L432.8,754.1
	z"/>
<path class="st2" d="M452.6,756.8c0.6,1.1,1.2,2,1.7,2.8l-1.7,1l-1.1-1.6l0,0c0,1.7-0.9,3.2-2.3,4c-1.6,1-4.1,1.2-6.3-2.5l-3.6-6.1
	l1.9-1.1l3.3,5.8c1.1,2,2.5,3,4.3,2c1.1-0.7,1.7-1.9,1.5-3.2c-0.1-0.4-0.2-0.7-0.4-1.1l-3.7-6.4l1.9-1.1L452.6,756.8z"/>
<path class="st2" d="M457.5,737.2l7.4,12.6c0.5,0.9,1.2,2,1.7,2.7l-1.7,1l-1.1-1.8l0,0c0.1,1.7-0.8,3.3-2.4,4.1
	c-2.5,1.5-5.7,0.5-7.6-2.7c-2-3.5-1.1-6.9,1.4-8.3c1.2-0.8,2.8-0.9,4.1-0.2l0,0l-3.6-6.2L457.5,737.2z M460.9,747.5
	c-0.2-0.3-0.3-0.5-0.5-0.8c-1-1.1-2.7-1.4-4-0.6c-2,1.1-2.1,3.5-0.8,5.9c1.2,2.1,3.3,3.3,5.3,2.1c1.3-0.8,2-2.4,1.5-3.9
	c-0.1-0.3-0.2-0.6-0.4-0.9L460.9,747.5z"/>
<path class="st2" d="M463.9,736.1c0.3,0.7,0.1,1.5-0.6,1.8c-0.6,0.3-1.4,0.1-1.7-0.5c-0.4-0.6-0.2-1.5,0.4-1.8c0,0,0,0,0.1,0
	c0.6-0.4,1.4-0.2,1.8,0.4C463.8,736,463.9,736,463.9,736.1z M469.6,750.7l-6.1-10.5l1.9-1.1l6.1,10.5L469.6,750.7z"/>
<path class="st2" d="M481,736.9c2.2,3.9,0.5,7.1-2,8.6c-2.8,1.6-6.2,0.8-8.1-2.5c-2-3.5-0.9-6.9,2-8.6S479.1,733.8,481,736.9z
	 M472.8,741.9c1.3,2.3,3.6,3.2,5.5,2.2s2.2-3.6,0.8-5.9c-1-1.8-3.2-3.5-5.5-2.2S471.6,739.9,472.8,741.9L472.8,741.9z"/>
<path class="st2" d="M484.9,740.3c-0.4-0.7-0.1-1.6,0.6-2c0.7-0.4,1.6-0.1,2,0.6c0.4,0.7,0.1,1.6-0.6,2
	C486.2,741.3,485.3,741.1,484.9,740.3C484.9,740.4,484.9,740.3,484.9,740.3z"/>
<path class="st2" d="M497.7,733.8c-0.7,1-1.6,1.8-2.6,2.3c-3.1,1.8-6.5,0.9-8.3-2.3c-1.8-2.9-1-6.7,1.8-8.5c0.2-0.1,0.4-0.2,0.6-0.3
	c0.9-0.5,1.9-0.9,3-1l0.4,1.7c-0.9,0-1.7,0.3-2.5,0.8c-2.4,1.4-2.7,3.9-1.4,6.1c1.4,2.4,3.8,3,5.9,1.8c0.8-0.5,1.5-1.1,2-1.9
	L497.7,733.8z"/>
<path class="st2" d="M506.4,722.2c2.2,3.9,0.6,7.1-2,8.6c-2.8,1.7-6.2,0.8-8.1-2.5c-2-3.5-1-6.9,2-8.6S504.5,719,506.4,722.2z
	 M498.1,727.1c1.3,2.3,3.7,3.2,5.5,2.2s2.2-3.5,0.8-5.9c-1-1.8-3.2-3.5-5.5-2.2S497,725.1,498.1,727.1z"/>
<path class="st2" d="M507.4,718.5c-0.6-1.1-1.2-2-1.7-2.8l1.7-1l1.1,1.6h0.1c-0.1-1.6,0.8-3.1,2.2-3.8c1.3-0.8,3-0.6,4.2,0.4l0,0
	c0-0.7,0.1-1.4,0.4-2c0.4-0.9,1-1.6,1.9-2.1c1.4-0.8,4-1.1,6.1,2.5l3.6,6.2l-1.9,1.1l-3.4-5.9c-1.2-2-2.6-2.8-4.1-1.9
	c-1,0.6-1.5,1.8-1.2,3c0.1,0.4,0.2,0.7,0.4,1l3.8,6.5l-1.9,1.1l-3.6-6.3c-1-1.7-2.4-2.5-3.9-1.6c-1.1,0.7-1.6,2-1.2,3.3
	c0.1,0.4,0.2,0.7,0.4,1l3.7,6.3l-1.9,1.1L507.4,718.5z"/>
<path class="st4" d="M22.3,220.5l20.2,5.6L414,346.3l0,0l2.9,0.8l23.6-21.3l-0.6-2.8l-66.3-21.4L68.3,202.9l-30.9-11.3L14,212.5
	C20.2,220,16.4,212.8,22.3,220.5z"/>
</svg>
