<?xml version="1.0" encoding="utf-8"?>
<!-- Generator: Adobe Illustrator 23.1.1, SVG Export Plug-In . SVG Version: 6.00 Build 0)  -->
<svg version="1.1" id="Layer_1" xmlns="http://www.w3.org/2000/svg" xmlns:xlink="http://www.w3.org/1999/xlink" x="0px" y="0px"
	 viewBox="0 0 735 852" style="enable-background:new 0 0 735 852;" xml:space="preserve">
<style type="text/css">
	.st0{fill:#131227;}
	.st1{fill:#54BFD3;}
	.st2{fill:#CB015F;}
	.st3{fill:#341400;}
	.st4{opacity:0.69;}
	.st5{fill:#FFFFFF;}
	.st6{opacity:0.35;}
	.st7{fill:#4AFD8D;}
	.st8{opacity:0.25;}
	.st9{opacity:0.8;}
	.st10{fill:#F9F9F9;}
</style>
<polygon class="st0" points="734.9,213.1 734.9,637.4 705.8,654.2 424.5,816.6 367.6,849.4 310.7,816.6 29.4,654.2 0.1,637.3 
	0.1,213.1 29.4,196.2 307.2,35.8 367.5,1 427.8,35.8 705.6,196.2 "/>
<g>
	<g>
		<path class="st1" d="M196.6,480.8c-6.2,1.4-12.1,3.7-17.4,7.3c-0.2,0.1-0.3,0.2-0.4,0.2c-1.1,0.8-2.2,1.6-3.2,2.5
			c-0.5,0.4-0.9,0.8-1.4,1.3c-0.3,0.3-0.5,0.5-0.7,0.8c-0.3,0.3-0.5,0.6-0.6,0.9c-36.8-17.7-80-41.2-107.8-66.6
			c-5.9-5.4-5.7-14.5,1.7-18.8c6.3-3.7,14.3-2.4,21.2-0.1c17.7,5.9,32.8,17.4,47.6,28.8C152.7,450.1,178.9,467.4,196.6,480.8z"/>
	</g>
	<g>
		<path class="st2" d="M171.8,471.2c-0.6,0.6-1.2,1.2-1.9,1.7c-0.4,0.6-0.9,1.1-1.3,1.7c-1.4,1.4-2.8,2.5-4.4,3.6
			c-3.3,2.8-6.7,4.9-10.2,6.2c6.4,3.3,12.7,6.4,18.9,9.4c0.2-0.3,0.4-0.6,0.6-0.9c0.2-0.3,0.4-0.6,0.7-0.8c0.4-0.5,0.9-0.9,1.4-1.3
			c1-0.9,2.1-1.7,3.2-2.5c0.1-0.1,0.2-0.2,0.4-0.2c5.3-3.6,11.2-5.9,17.4-7.3c-5.4-4.1-11.6-8.5-18.1-13.1
			C176.4,469.2,174.2,470.4,171.8,471.2z"/>
	</g>
	<g>
		<path class="st3" d="M175.6,490.8c-0.5,0.4-0.9,0.8-1.4,1.3c1.2-1.5,2.8-2.8,4.6-3.8C177.7,489.1,176.6,489.9,175.6,490.8z"/>
	</g>
	<g class="st4">
		<path class="st5" d="M543.3,611.3c-11.6,22.7-50.6,50.1-67.5,51.6c-86.6,7.7-176.5-7.7-250.4-55.7c-27-17.5-41.1-50.7-51.8-82.1
			c-2.8-8.1-4-14.5-3.9-19.7c0.6,20.4,24.6,49.9,40.2,60.5c28.5,19.4,63.6,36,96.5,46.1c80.1,24.5,132,27.8,203.2,14.1
			C522.9,623.5,536.9,621.9,543.3,611.3z"/>
	</g>
	<g>
		<path class="st5" d="M169.7,505.4c-0.2-4.8,1-9.1,3.9-12.4C171.2,496,169.8,500,169.7,505.4z"/>
	</g>
	<g>
		<path class="st5" d="M544.8,590.4c0.6,1.5,1.1,2.9,1.4,4.4C545.8,593.3,545.3,591.8,544.8,590.4z"/>
	</g>
	<g>
		<g>
			<g>
				<path class="st1" d="M273.2,457.9c1.3-4.8,4.4-9.4,8.4-12.3c2.4-1.7,4.9-2.8,7.6-3.7c3.2-1.1,6.4-2.3,9.1-4.6
					c2.5-2.1,4.3-5.1,4.4-8.4c0.2-3.5-1.8-6.6-3.5-9.4s-3.5-5.5-5.8-7.7c-2.2-2.1-4.9-3.7-7.8-4.8c-11.1-4-23.9,0.8-32.4,8.2
					c-8.4,7.4-14.3,19.8-10.5,31c3.7,11.2,16.5,20.4,28.4,16c1.7-0.6,2.9-2.3,2.4-4.2c-0.5-1.7-2.4-3-4.2-2.4
					c-0.5,0.2-1,0.4-1.6,0.5c-0.3,0.1-0.5,0.1-0.8,0.2c-0.2,0-0.9,0.1-0.2,0.1c-1.1,0.1-2.3,0.1-3.4,0c-0.6-0.1,0.8,0.2-0.2,0
					c-0.2,0-0.4-0.1-0.6-0.1c-0.5-0.1-1.1-0.2-1.6-0.4c-0.5-0.2-1-0.3-1.5-0.5c0.5,0.2,0,0-0.1,0c-0.3-0.2-0.7-0.3-1-0.5
					c-0.9-0.5-1.8-1.1-2.7-1.7c0.5,0.4-0.4-0.3-0.4-0.3c-0.2-0.1-0.3-0.3-0.5-0.4c-0.5-0.4-1-0.9-1.5-1.4c-0.8-0.8-1.2-1.4-1.6-1.9
					c-0.7-1-1.3-2.1-1.9-3.2c-0.3-0.6-0.1-0.3-0.1-0.1c-0.1-0.3-0.2-0.6-0.4-0.9c-0.2-0.5-0.3-1-0.4-1.4c-0.1-0.5-0.2-1-0.3-1.5
					c-0.2-1,0,0.6-0.1-0.4c0-0.4-0.1-0.7-0.1-1.1c-0.1-1.2,0-2.4,0.1-3.7c0-0.1,0.1-0.7,0-0.2c0-0.3,0.1-0.6,0.2-0.9
					c0.1-0.7,0.3-1.3,0.4-2c1.2-4.4,3.7-8.4,7-11.8c1.9-1.9,3.5-3.2,5.6-4.6c2.1-1.4,4.1-2.4,6.2-3.1c4.6-1.6,9.4-2.3,13.8-1.2
					c0.6,0.1,1.2,0.3,1.7,0.5c0.2,0.1,0.5,0.2,0.7,0.2c1.1,0.4-0.3-0.1,0.4,0.1c0.5,0.2,1,0.5,1.4,0.7c0.3,0.2,0.6,0.4,0.9,0.6
					c0.1,0,0.8,0.6,0.5,0.3c2.2,1.6,3.7,3.8,5.1,6c1.2,1.9,3.3,4.6,3.5,6.7c0,0,0,1.2,0,0.6c0,0.2-0.1,0.5-0.2,0.7
					c-0.2,1,0.1-0.1-0.1,0.4c-0.1,0.3-0.3,0.6-0.4,0.8c-0.5,0.8-1.3,1.5-2,2c-2.6,1.9-5.8,2.5-8.8,3.7s-5.7,2.8-8.2,4.8
					c-4.6,3.8-8,9.1-9.6,14.9c-0.5,1.8,0.6,3.7,2.4,4.2C270.7,460.8,272.7,459.7,273.2,457.9L273.2,457.9z"/>
			</g>
		</g>
		<g>
			<g>
				<path class="st1" d="M274,455.6c3,4.8,6.7,9.5,12.9,10.1c6,0.5,11-4,14.8-8.1c1.3-1.4,1.3-3.4,0-4.8c-4.5-4.9-8.9-9.9-13.4-14.8
					c-1.2-1.4-3.6-1.3-4.8,0c-1.4,1.4-1.2,3.4,0,4.8c4.5,4.9,8.9,9.9,13.4,14.8c0-1.6,0-3.2,0-4.8c-0.8,0.8-1.6,1.6-2.4,2.4
					c-0.4,0.4-0.9,0.8-1.4,1.2c-0.1,0-0.6,0.5-0.3,0.2c-0.2,0.1-0.4,0.3-0.6,0.4c-0.5,0.3-1,0.6-1.5,0.9c-0.3,0.1-0.5,0.3-0.8,0.4
					c-0.5,0.2,0.7-0.2-0.3,0.1c-0.5,0.2-0.9,0.3-1.4,0.4c-0.4,0.1,0.4,0-0.2,0c-0.3,0-0.6,0-0.8,0c-0.1,0-0.7-0.1-0.4,0
					c0.4,0.1-0.4-0.1-0.5-0.1s-0.9-0.3-0.5-0.1c0.3,0.1-0.5-0.2-0.4-0.2c-0.2-0.1-0.4-0.2-0.5-0.3c0,0-0.7-0.5-0.4-0.3
					c0.3,0.2-0.3-0.3-0.4-0.3c-0.2-0.2-0.4-0.4-0.6-0.6c-0.3-0.3-0.7-0.7-1-1.1c0,0-0.5-0.7-0.4-0.4c0.2,0.3-0.3-0.4-0.3-0.5
					c-0.6-0.9-1.2-1.8-1.8-2.8c-1-1.6-3-2.2-4.6-1.2C273.7,451.9,273,454.1,274,455.6L274,455.6z"/>
			</g>
		</g>
	</g>
	<g>
		<g>
			<g>
				<path class="st1" d="M553.8,407.3c-4-0.4-7.6,1.7-10.6,4.1s-5.5,5.5-7.8,8.6c-2.6,3.7-4.2,8.1-5.6,12.5c-1.2,3.7-2.5,7.5-4,11.1
					c-6,14.6-14.5,28.6-25.1,40.3c-5.7,6.2-12.2,11.9-19.6,16c-3,1.7-0.3,6.3,2.7,4.6c13.7-7.6,24.5-19.9,33.1-32.8
					c4.4-6.6,8.3-13.6,11.6-20.9c1.6-3.5,3-7,4.3-10.6c1.4-3.9,2.5-8,4.1-11.9c1.7-4,4.2-7.5,7.2-10.6c2.6-2.7,5.9-5.5,9.6-5.1
					c1.4,0.1,2.7-1.3,2.7-2.7C556.5,408.4,555.2,407.5,553.8,407.3L553.8,407.3z"/>
			</g>
		</g>
		<g>
			<g>
				<path class="st1" d="M535.5,444c3.2,1.9,6.4,3.9,9.7,5.8c1.2,0.7,3,0.3,3.7-1s0.3-2.9-1-3.7c-3.2-1.9-6.4-3.9-9.7-5.8
					c-1.2-0.7-3-0.3-3.7,1C533.8,441.6,534.2,443.2,535.5,444L535.5,444z"/>
			</g>
		</g>
		<g>
			<g>
				<path class="st1" d="M527.7,460.1c0.3,0.2,0.6,0.4,0.9,0.6c-0.2-0.1-0.4-0.3-0.5-0.4c0.7,0.6,1.3,1.2,1.9,1.9
					c-0.1-0.2-0.3-0.4-0.4-0.5c0.5,0.7,1,1.5,1.3,2.3c-0.1-0.2-0.2-0.4-0.3-0.6c0.2,0.4,0.3,0.9,0.5,1.4c0.2,0.6,0.7,1.3,1.2,1.6
					c0.6,0.3,1.4,0.5,2.1,0.3c1.4-0.4,2.3-1.8,1.9-3.3c-0.9-3.2-3-6-5.8-7.8c-1.2-0.7-3-0.3-3.7,1
					C526,457.7,526.4,459.3,527.7,460.1L527.7,460.1z"/>
			</g>
		</g>
		<g>
			<g>
				<path class="st1" d="M516.1,472.7c0.7,1.8,1.3,3.6,2,5.4c0.2,0.7,0.6,1.2,1.2,1.6c0.6,0.3,1.4,0.5,2.1,0.3
					c0.6-0.2,1.3-0.6,1.6-1.2s0.5-1.4,0.3-2.1c-0.7-1.8-1.3-3.6-2-5.4c-0.2-0.7-0.6-1.2-1.2-1.6c-0.6-0.3-1.4-0.5-2.1-0.3
					c-0.6,0.2-1.3,0.6-1.6,1.2S515.9,472,516.1,472.7L516.1,472.7z"/>
			</g>
		</g>
		<g>
			<g>
				<path class="st1" d="M552.8,412.7c2.5,0.8,5,1.2,7.6,1.5c2.2,0.3,4.6,0.6,6.6,1.7c4,2.1,5,6.7,5.1,10.9
					c0.3,10.9-6,20.4-12.6,28.8c-13,16.7-29.3,32.3-49.3,40.2c-5.2,2.1-10.5,3.2-16,4.5c-2.1,0.5-4.5,1.1-6.3,1.3
					c-0.5,0-1,0.1-1.6,0.1c-0.3,0-0.5,0-0.8,0c-0.6,0,0.3,0.1-0.3,0c-0.2,0-0.4-0.1-0.5-0.1c-0.2-0.1-0.1,0,0.1,0.1
					c-0.1-0.1-0.2-0.1-0.4-0.2c0,0.1,0.4,0.4,0.1,0c-0.3-0.3,0.2,0.4-0.1-0.3c-0.6-1.3-2.5-1.6-3.7-1c-1.4,0.8-1.6,2.3-1,3.7
					c2,4.5,8.5,3.3,12.2,2.5c4.8-1,9.7-2,14.3-3.5c11.2-3.5,21.4-9.5,30.6-16.7s17.3-15.6,24.6-24.7c7.6-9.4,15.1-19.7,15.7-32.2
					c0.3-5.7-0.7-12.5-5.4-16.4c-5.1-4.2-11.9-3.3-17.8-5.3C550.9,406.4,549.5,411.6,552.8,412.7L552.8,412.7z"/>
			</g>
		</g>
		<g>
			<g>
				<path class="st1" d="M567.5,328.9c5,20.7,2.2,42.4-2.1,63c-1.2,5.9-2.6,11.8-3.9,17.6c-0.4,1.7,2.3,2.5,2.7,0.7
					c4.9-21.1,9.8-42.6,8.6-64.4c-0.3-5.9-1.2-11.8-2.5-17.6C569.7,326.4,567.1,327.2,567.5,328.9L567.5,328.9z"/>
			</g>
		</g>
		<g>
			<g>
				<path class="st1" d="M570.6,326.6c-1.5-3.5-5-6-8.7-6.7c-4.1-0.8-8.2,0.2-11.8,2.4c-7.9,4.8-12.1,13.4-18.9,19.2
					c-3.6,3.1-8.1,5.1-12.8,5.6c-1.3,0.1-2.5,0.9-2.6,2.3c-0.1,1.2,0.6,2.8,1.9,2.9c4,0.5,7.2,3.1,10.9,4.5c4.1,1.5,8.6,1,12.6-0.7
					c4.4-1.8,8-4.8,11.4-8c3.1-2.9,6.2-5.9,9.5-8.6c3.5-2.9,6.8-6.1,7.9-10.6c0.8-3.3-4.3-4.8-5.2-1.4c-0.8,3.2-3.3,5.5-5.7,7.5
					c-3,2.6-6,5.2-8.9,8c-5.1,4.8-12.1,11.4-19.8,8.8c-3.9-1.3-7.2-4.1-11.5-4.6c-0.2,1.8-0.5,3.5-0.7,5.3c4.4-0.4,8.5-1.7,12.3-4
					c3.9-2.3,7-5.5,9.8-8.9c2.7-3.3,5.3-6.7,8.4-9.6c2.5-2.4,5.9-4.7,9.3-5c3.4-0.2,6.4,1.1,7.8,4.3c0.6,1.3,2.5,1.6,3.7,1
					C571,329.5,571.2,327.9,570.6,326.6L570.6,326.6z"/>
			</g>
		</g>
		<g>
			<g>
				<path class="st1" d="M562.4,408.9c1.5-11.1,2.8-22.2,1.3-33.4c-0.2-1.8-2.9-1-2.7,0.7c1.5,10.9,0,21.8-1.4,32.6
					C559.4,410.6,562.1,410.6,562.4,408.9L562.4,408.9z"/>
			</g>
		</g>
		<g>
			<g>
				<path class="st1" d="M564,374.1c-2.9-4.1-7.8-4.7-12.4-3.7c-4.1,0.9-8.4,2.3-12.1,4.4c-3.7,2.1-6.5,5.1-8.3,8.9
					c-1.6,3.4-2.7,7.2-5.4,9.9c-2.5,2.4,1.3,6.2,3.8,3.8c5-4.8,5.2-12.9,11-16.9c2.9-2,6.2-3.2,9.5-4.1c2.6-0.7,7.4-2.3,9.3,0.5
					c0.8,1.2,2.3,1.7,3.7,1C564.2,377.1,564.8,375.3,564,374.1L564,374.1z"/>
			</g>
		</g>
		<g>
			<g>
				<path class="st1" d="M527.1,398.3c4.2-0.2,8.2,1.3,12.4,1.9c4.3,0.6,8.6,0.3,12.2-2.3c3.4-2.4,5.9-5.9,8-9.4
					c2.6-4.1,4.3-8.5,4.8-13.4c0.1-1.4-1.3-2.7-2.7-2.7c-1.6,0-2.6,1.2-2.7,2.7c-0.4,4.1-2.1,7.7-4.3,11.1c-1.8,2.7-3.7,5.8-6.5,7.5
					c-2.9,1.8-6.2,1.6-9.5,0.9c-3.9-0.8-7.8-2-11.8-1.8C523.7,393.2,523.7,398.5,527.1,398.3L527.1,398.3z"/>
			</g>
		</g>
		<g>
			<g>
				<path class="st1" d="M567.1,411.7c4.5-15.5,7.7-31.4,9.4-47.4c0.5-4.6,0.9-9.2,1.1-13.9c0.1-1.8-2.7-1.8-2.8,0
					c-1.1,20.5-4.6,40.9-10.4,60.6C563.9,412.7,566.6,413.4,567.1,411.7L567.1,411.7z"/>
			</g>
		</g>
		<g>
			<g>
				<path class="st1" d="M578.5,352c2.4-4.1,6.6-7,11.3-7.6c4.9-0.6,10.4,1.3,13.5,5.2c3.1,3.9,3.9,9.3,5.8,13.7
					c1.9,4.4,5.3,7.4,9.6,9.6c4.7,2.4,9.7,3.8,14.5,5.9c1.3,0.6,2.9-0.6,3.3-1.9c0.4-1.5-0.5-2.7-1.9-3.3c-4.3-1.8-8.8-3.1-13-5.2
					c-2-1-3.9-2.1-5.4-3.6c-1.4-1.4-2.3-3.5-3.1-5.6c-1.9-5.1-3.2-10.6-7.2-14.5c-4.2-4.2-10.6-6.3-16.4-5.6
					c-6.5,0.7-12.4,4.6-15.7,10.2C572.2,352.2,576.8,354.9,578.5,352L578.5,352z"/>
			</g>
		</g>
		<g>
			<g>
				<path class="st1" d="M632.5,374.5c-5.5,4.2-11.9,7.5-18.5,9.6c-4.3,1.4-8.6,1.6-13.2,1.7c-0.9,0-1.8,0-2.7,0c-0.3,0-0.7,0-1,0
					c-0.7,0,0.6,0.2-0.1,0c0.1,0.1,1.2,0.8,0.9,0.5c-0.2-0.3-0.6-0.5-0.9-0.7c-0.7-0.4-1.5-0.5-2.3-0.8c-1.4-0.4-2.7-0.9-3.9-1.6
					c-4.5-2.4-8.3-6.9-8.5-12.1c-0.1-1.8,0.3-3.6,0.4-5.4c0.1-1.7,0.2-3.5,0.1-5.2c-0.3-3.9-1.2-7.7-3.5-10.8
					c-0.9-1.2-2.3-1.7-3.7-1c-1.1,0.7-1.8,2.5-1,3.7c1.9,2.6,2.7,5.6,2.8,8.7c0.1,1.7,0,3.4-0.1,5s-0.4,3.3-0.4,5
					c0.2,6.6,4.2,12.3,9.6,15.8c1.3,0.9,2.8,1.6,4.2,2.2c0.6,0.3,1.3,0.5,2,0.7c0.3,0.1,0.7,0.2,1,0.3c0.1,0,0.6,0.2,0.4,0.1
					c0.5,0.3,0.7,0.6,1.4,0.8c0.4,0.1,0.8,0.1,1.2,0.2c0.7,0.1,1.4,0.1,2.2,0.1c5,0,10.1-0.4,15-1.5c3.6-0.8,7-2.4,10.3-4
					c3.9-1.8,7.5-4,10.9-6.6c1.1-0.9,1.8-2.3,1-3.7C635.5,374.3,633.6,373.6,632.5,374.5L632.5,374.5z"/>
			</g>
		</g>
	</g>
	<g class="st6">
		<path class="st1" d="M546.4,602.4c-0.2,0.9-0.3,1.8-0.6,2.6c-0.2,0.6-0.4,1.3-0.6,2c-0.3,0.8-0.6,1.6-1,2.4
			c-0.2,0.7-0.6,1.3-0.9,1.9c-6.4,10.6-20.4,12.2-33.6,14.8c-71.2,13.7-123.1,10.4-203.2-14.1c-33-10.1-68-26.7-96.5-46.1
			c-15.6-10.6-39.6-40.1-40.2-60.5c0.1-4.9,1.2-8.6,3.2-11.5c0.2-0.3,0.4-0.6,0.6-0.9c0.2-0.3,0.4-0.6,0.7-0.8
			c0.4-0.5,0.9-0.9,1.4-1.3c1-0.9,2.1-1.7,3.2-2.5c0.1-0.1,0.2-0.2,0.4-0.2c5.3-3.6,11.2-5.9,17.4-7.3c16-3.6,34.1-1.2,49.5,0.3
			c30.4,3,60.5,7.7,90.3,14.3c35.8,8.1,70.9,18.8,105.1,32.1c31,12,70.4,24.6,93.9,49.2c2.4,2.6,4.6,5.2,6.5,8
			c0.6,0.9,1.2,1.9,1.7,2.9c0.3,0.5,0.5,0.9,0.7,1.4s0.4,0.9,0.6,1.4c0.6,1.4,1,2.9,1.4,4.4c0.1,0.4,0.2,0.7,0.2,1.1
			c0.1,0.5,0.2,0.9,0.2,1.4C546.7,599,546.7,600.7,546.4,602.4z"/>
	</g>
	<g>
		<g>
			<g>
				<path class="st1" d="M211.2,325.9c3.8,0,7.1,0.3,10.6,1.1c1.5,0.4,3.1,0.8,4.5,1.4c0.1,0,0.6,0.3,0.2,0.1
					c0.2,0.1,0.3,0.1,0.5,0.2c0.3,0.1,0.6,0.3,0.9,0.4c0.7,0.3,1.3,0.7,1.9,1.1c0.3,0.2,0.6,0.4,0.9,0.6c0.4,0.3-0.5-0.4,0.1,0.1
					c0.1,0.1,0.2,0.2,0.4,0.3c0.5,0.5,1,0.9,1.5,1.5c0.2,0.3,0.5,0.5,0.7,0.8c0.3,0.3-0.2-0.3,0,0c0.1,0.2,0.2,0.3,0.3,0.5
					c0.4,0.6,0.8,1.2,1.1,1.8c0.1,0.1,0.4,0.9,0.2,0.5c0.1,0.3,0.3,0.7,0.4,1c0.3,0.8,0.5,1.5,0.6,2.3c0.2,0.9,0.2,0.9,0.2,1.7
					c0.1,0.9,0.1,1.8,0.1,2.8c-0.2,7.5-3.1,15.5-8,21.2c-5,5.8-11.8,9.2-19.3,10.6c-6.8,1.2-13.7,0.6-20.2-0.9
					c-6.8-1.6-13-4.1-18.8-8.1c-2.6-1.7-5-3.9-7.2-6.4c-1-1.1-1.7-2.1-2.6-3.5c-0.4-0.7-0.8-1.4-1.2-2.1c-0.2-0.3-0.3-0.6-0.5-1
					c-0.3-0.6-0.1-0.3-0.4-0.9c-2.4-6.2-2.2-12.8,0.3-19.1c0.2-0.5,0.1-0.2,0-0.1c0.1-0.2,0.2-0.4,0.3-0.6c0.2-0.4,0.3-0.7,0.5-1.1
					c0.4-0.7,0.8-1.5,1.2-2.2c0.9-1.5,1.9-3,2.9-4.4c1.9-2.5,4.5-5.2,7.2-7.3c2.4-1.9,5.2-3.4,8.2-4c2.5-0.5,5.1-0.1,7.4,1.4
					c1.1,0.7,2.4,2,3.4,3.3c0.8,1.1,2.3,1.7,3.6,0.9c1.1-0.7,1.8-2.4,0.9-3.6c-2.4-3.3-5.6-6.1-9.7-7.1c-3.7-0.9-7.4-0.2-10.9,1.3
					c-7.1,3.1-12.8,9.3-16.9,15.7c-4.1,6.6-6.1,14.3-5,22c1,7.2,4.9,13.7,10.2,18.7c5.6,5.2,12.6,8.9,19.9,11.4
					c7.1,2.4,14.7,3.6,22.2,3.2c8.7-0.4,17.2-3.2,24-8.8c6.9-5.7,11.2-14,12.8-22.8c1.4-7.4,0.8-15.3-4.4-21.1
					c-4.8-5.4-12.3-7.4-19.3-8.1c-2-0.2-4-0.3-6.1-0.3C207.9,320.7,207.9,325.9,211.2,325.9L211.2,325.9z"/>
			</g>
		</g>
		<g>
			<g>
				<path class="st1" d="M203.4,325.2c2.2-3.6,2.5-7.8,2.3-11.9c-0.2-4.6-0.5-9.3-1.4-13.8c-1.1,1.1-2.1,2.1-3.2,3.2
					c0.8,0.3,1.6,0.6,2.4,1c0.5,0.3,0.9,0.5,1.4,0.9c1.1,0.7-0.1-0.3,0.2-0.3c-0.2,0.1-0.5,2.3-0.6,2.7c-0.3,1.1-0.5,2.3-0.8,3.4
					c-1,4.3-1.9,8.6-2.9,12.9c-0.7,3.3,4.3,4.7,5,1.4c1.2-5.2,2.3-10.4,3.5-15.7c0.6-2.5,1.9-5.6-0.2-7.7c-1.7-1.8-4.4-2.9-6.6-3.6
					c-2-0.7-3.5,1.4-3.2,3.2c0.8,4,1,8,1.2,12c0.2,3.3,0.2,6.8-1.6,9.7C197.1,325.4,201.6,328.1,203.4,325.2L203.4,325.2z"/>
			</g>
		</g>
		<g>
			<g>
				<path class="st1" d="M202.1,302.4c0.2,1.8,0.3,3.6,0.2,5.4c0,0.9-0.1,1.8-0.2,2.6c0,0.4-0.1,0.8-0.1,1.3c-0.1,0.6,0.1-0.4,0,0.1
					c0,0.3-0.1,0.6-0.1,0.8c-0.1,0.7-0.1,1.4,0.3,2c0.3,0.5,0.9,1.1,1.6,1.2c1.3,0.3,3-0.4,3.2-1.8c0.6-3.9,0.8-7.8,0.4-11.7
					c-0.1-0.7-0.2-1.3-0.8-1.8c-0.5-0.5-1.2-0.8-1.8-0.8C203.5,299.8,202,300.9,202.1,302.4L202.1,302.4z"/>
			</g>
		</g>
		<g>
			<g>
				<g>
					<path class="st1" d="M203.6,325.1c4.8-1.2,6.6-6.1,10-9.2c0.8-0.8,1.8-1.4,2.9-1.7c1.3-0.3,2.7,0,4,0.1
						c2.8,0.2,5.5-0.5,7.9-1.6c-0.7-0.4-1.3-0.7-2-1.1c0.1,4.6-4.7,8.1-8.6,9.6c-1.1,0.4-2.3,0-3.5-0.1s-2.4-0.1-3.6,0.1
						c-2.3,0.3-4.6,1-6.6,2.2c-1.5,0.8-0.1,3.1,1.3,2.2c2.3-1.3,4.9-2,7.6-2c1.4,0,2.8,0.4,4.2,0.3c1.2-0.1,2.3-0.7,3.4-1.2
						c4.3-2.3,8.6-5.8,8.5-11.1c0-1.1-1.1-1.5-2-1.1c-2.5,1.2-5.2,1.4-7.9,1.1c-2.5-0.2-4.6,0.2-6.6,1.7c-3.4,2.7-5.2,8.1-9.7,9.2
						C201.3,323,202,325.5,203.6,325.1L203.6,325.1z"/>
				</g>
			</g>
			<g>
				<g>
					<path class="st1" d="M203.8,326c4.6-3,9.3,1.8,12.1,5.1c1.6,1.9,3.2,3.9,3.7,6.4c0.5,2.4-0.2,4.9-1.6,6.8
						c0.8,0.1,1.6,0.2,2.4,0.3c-1.7-4.5-3.7-9.3-8.5-11.3c-2.4-1-4.6-1.7-6.1-4c-1.2-1.9-1.6-4.3-0.9-6.4c0.5-1.6-2-2.3-2.5-0.7
						c-1.4,4.7,0.9,10,5.3,12.2c1.3,0.6,2.7,1,4,1.7c1.1,0.6,2,1.4,2.8,2.4c1.6,2,2.5,4.5,3.4,6.8c0.4,1.1,1.7,1.2,2.4,0.3
						c1.8-2.4,2.5-5.4,2-8.3c-0.5-3.1-2.5-5.7-4.5-8c-1.9-2.3-4.1-4.6-6.9-5.8c-2.7-1.2-5.8-1.3-8.4,0.3
						C201.1,324.7,202.4,326.9,203.8,326L203.8,326z"/>
				</g>
			</g>
			<g>
				<g>
					<path class="st1" d="M203.5,322.1c-2.6-0.1-5.3,0.3-7.7,1.3c-2.6,1-4.6,2.9-7,4.1c-2.4,1.1-5.1,1.6-7.7,1.3
						c-2.2-0.3-4.8-1.2-5.7-3.4c-0.6-1.5-3.1-0.9-2.5,0.7c2.1,5.3,8.9,6.1,13.8,4.9c3-0.7,5.3-2.4,7.9-4c2.7-1.7,5.8-2.4,9-2.3
						C205.2,324.8,205.2,322.2,203.5,322.1L203.5,322.1z"/>
				</g>
			</g>
			<g>
				<g>
					<path class="st1" d="M174.3,326.6c2.3,1,4.7,1.1,7.2,0.7c2.3-0.4,4.9-1.2,6.8-2.5c0.9-0.6,1.6-1.3,2.1-2.2
						c0.6-1,1.1-1.9,2.2-2.4c2.5-1,5.7-1,8.4-1c1.7,0,1.7-2.6,0-2.6c-2.6,0-5.3,0.1-7.8,0.7c-2.2,0.5-3.6,1.6-4.8,3.5
						c-1.2,2-3.2,2.8-5.3,3.4c-2.4,0.7-5.1,1.1-7.5,0.1C174.1,323.8,172.7,326,174.3,326.6L174.3,326.6z"/>
				</g>
			</g>
			<g>
				<g>
					<path class="st1" d="M198.3,316.9c-1.4,0.4-3,0.4-4.3-0.3c-1.5-0.7-2-2.5-2.6-3.9c-1.4-3.3-2.7-7.2-1.1-10.7
						c0.3-0.6,0.2-1.4-0.5-1.8c-0.6-0.3-1.5-0.2-1.8,0.5c-2.1,4.5-0.6,9.2,1.2,13.5c0.9,2,1.7,3.9,3.8,4.8c1.9,0.8,4,1,6,0.4
						C200.6,318.9,199.9,316.4,198.3,316.9L198.3,316.9z"/>
				</g>
			</g>
			<g>
				<g>
					<path class="st1" d="M188.1,300.8c0.2,2.1,1.4,3.7,3.1,4.9c1.8,1.3,4,1.8,5.6,3.3c3.3,3.1,3.4,8,3.6,12.2
						c0.1,1.7,2.7,1.7,2.6,0c-0.1-4.4-0.4-9-3.1-12.7c-1.3-1.7-2.9-2.8-4.8-3.7c-1.7-0.8-4.1-1.9-4.3-4.1
						C190.5,299.2,187.9,299.2,188.1,300.8L188.1,300.8z"/>
				</g>
			</g>
		</g>
	</g>
	<g>
		<path class="st7" d="M255.6,211.1c-0.4,0.1-1,0.1-1.9,0c-0.8-0.1-1.5-0.1-1.9,0.1l-7.5,4.4l11.2,41.2c0.4,1.5,1.2,3.1,2.4,4.6
			c0.4,0.5,0.6,1.5,0.6,3c0.1,1.7-0.1,2.9-0.7,3.5c-0.1,0.1-0.3,0.2-0.8,0.3c-1.7,0.5-4.2,0.8-7.5,0.9c-3.7,0.1-5.9-0.1-6.7-0.6
			c-1-0.7-1.3-2-0.9-3.8c0.3-1.5,0.4-2.6,0.2-3.3l-10.5-38.8l-5.2,2.9c-0.2,0.1-0.6,0.5-1.1,1c-0.5,0.6-1,0.8-1.4,0.8
			c-1.3,0-3.4-1.1-6.2-3.3s-4.3-3.9-4.3-4.9c0.1-1.3,1.1-2.6,2.9-3.7c0.5-0.3,1.2-0.5,2-0.6s1.5-0.3,2-0.5l25.4-14.4
			c0.2-0.1,0.9-0.6,2-1.6c0.7-0.6,1.5-0.9,2.2-1c1.5-0.2,2.7,0.1,3.4,0.9c0.5,0.5,1.2,1.6,2.1,3.2c1.1,1.9,1.8,3.6,2.2,5.1
			c0.3,1.2,0.4,2.1,0.3,2.7C258,210,257.2,210.6,255.6,211.1z"/>
		<path class="st7" d="M345.7,222.3c0,0.9-0.2,2-0.8,3.2c-0.5,1.2-1.1,2-1.6,2.3c-0.1,0.1-0.5,0.1-0.9-0.1c-0.5-0.1-0.8-0.2-1.1-0.1
			c-0.1,0-0.2,0.1-0.3,0.1c-1.5,0.8-3,1.8-4.5,3c-3.5,2.6-6.6,5.7-9.3,9.2c-5.8-1-8.9-1.6-9.4-1.7c-3.6-0.7-5.5-1.4-5.6-2.1
			l-12.9-59.7c-0.1-0.4,0.4-1,1.5-2s1.9-1.5,2.5-1.5c0.7-0.1,2,0.1,4.1,0.4c2.1,0.4,3.7,0.4,4.9,0.1c1.6-0.3,3.5-1.5,5.7-3.5
			c2-1.9,3.4-2.8,4-2.7c1.4,0.1,3.6,1.1,6.6,2.9c3,1.8,4.7,3.2,5.2,4.2c0.2,0.5-0.1,1.4-0.9,2.8c-0.8,1.4-1.6,2.2-2.3,2.3
			c-0.6,0.1-1,0.1-1.3,0s-0.5-0.1-0.6,0c-1.8,0.8-3.5,1.7-5,2.7c-3.6,2.2-6.2,4.3-7.7,6.5l2.8,12.9c1.6-1.4,3.8-2.9,6.6-4.5
			c0.8-0.3,2.9,0.5,6.1,2.4c3.3,1.9,5,3.3,5.2,4.2c0.1,0.6-0.1,1.3-0.7,2.3s-1.2,1.6-1.8,2c-0.5,0.1-1.4,0.4-2.7,0.8
			c-1.9,0.8-5.1,3.3-9.5,7.4l1.8,8.3c1.4-1.3,3.3-2.9,5.7-4.8c2.4-1.9,4-2.9,4.6-3c0.7-0.2,2.9,0.6,6.3,2.2
			C343.9,220.4,345.7,221.6,345.7,222.3z"/>
		<path class="st7" d="M435.3,177.6c0.1,1.2-0.8,2.7-2.8,4.8c-0.4,0.4-1,0.8-1.9,1.2s-1.5,0.8-1.9,1.2l-14.9,17.6l10.9,24.1
			c0.2,0.5,0.7,1,1.4,1.5c0.7,0.6,1.1,1.1,1.3,1.6c0.5,1.4,0.7,2.3,0.6,3c-0.1,0.6-0.3,1.1-0.6,1.5c-0.7,0.8-2.4,1.9-5.2,3.4
			c-2.8,1.5-4.6,2.2-5.5,2.2c-0.4,0-1.1-0.2-1.9-0.8c-1-0.6-1.6-1.2-1.8-2c0.1-1.1-0.2-2.9-0.7-5.2l-7.5-16.1l-10.7,14.9
			c-0.3,0.4-0.5,1-0.7,1.9c-0.1,0.9-0.3,1.5-0.5,1.9c-0.6,1.1-1,1.8-1.4,2.2c-0.6,0.7-1.2,1-2.1,1.1c-1.3,0.1-3.6-0.7-6.7-2.5
			c-3.2-1.8-5.1-3.4-5.8-4.7c-0.2-0.5-0.3-0.9-0.3-1.3c0.1-0.9,0.9-2,2.5-3.4c0.7-0.4,1.6-1.2,2.8-2.4l16.3-22.3l-10.5-22.1
			c-0.2-0.5-0.8-1.1-1.6-1.9c-0.9-0.8-1.2-1.4-1.2-1.9c0-0.9,1.6-2.3,4.6-4.4c3-2.1,5.3-3.1,6.7-3.2c1.4-0.1,2.3,0.3,2.8,1.2
			c0.1,0.6,0.4,1.6,0.8,2.9l7.6,17l12.2-14.5c0.1-0.6,0.5-1.5,1.2-2.7c0.7-0.8,2-1.1,4.1-1.1c1,0,3,1,5.9,2.9
			S435.2,176.6,435.3,177.6z"/>
		<path class="st7" d="M508.8,215.4c-0.4-0.2-0.8-0.6-1.4-1.3c-0.5-0.7-1-1-1.5-1.2l-8.5-1.8l-19.3,38.1c-0.7,1.4-1.1,3.1-1.3,5.1
			c-0.1,0.6-0.6,1.5-1.5,2.7c-1,1.4-2,2.1-2.8,2.1c-0.1,0-0.4-0.1-0.8-0.3c-1.6-0.8-3.7-2.3-6.2-4.3c-2.8-2.3-4.3-4-4.6-5
			c-0.2-1.2,0.4-2.4,1.8-3.4c1.3-0.9,2-1.7,2.3-2.3l18.2-35.8l-5.8-1.3c-0.3-0.1-0.8-0.1-1.5,0s-1.3,0-1.6-0.3
			c-1-0.9-1.8-3.1-2.4-6.6c-0.6-3.6-0.6-5.7,0.1-6.5c0.9-0.9,2.5-1.2,4.7-0.8c0.5,0.1,1.2,0.4,1.9,0.9c0.7,0.5,1.3,0.8,1.8,0.9
			l28.5,6.3c0.3,0.1,1.1,0.1,2.5,0.2c0.9,0.1,1.7,0.3,2.3,0.7c1.3,0.9,1.9,1.9,1.9,3c0,0.7-0.1,2-0.6,3.8c-0.5,2.1-1.1,3.9-1.8,5.3
			c-0.5,1.1-1.1,1.8-1.6,2.2S510.3,216.1,508.8,215.4z"/>
		<path class="st7" d="M322.4,358.6c0.5,0.9-0.5,3.2-2.9,6.8c-2.4,3.6-4.4,5.4-6.1,5.3s-3.1-1-4.1-2.8c-0.2-0.5-0.6-1.3-1.2-2.4
			l-17.1-16v15c0,0.6,0.2,1.4,0.7,2.3s0.7,1.6,0.7,2c0,1.6-1.1,2.5-3.2,2.7c-1.6,0.2-4-0.1-7.2-0.9c-3.5-0.8-5.2-1.6-5.2-2.4
			c0-0.3,0.1-0.6,0.2-1.1s0.2-1,0.2-1.7v-56.7c0-0.4-0.1-0.7-0.2-1c-0.2-0.3-0.2-0.5-0.2-0.7c0.1-1.5,1.1-2.3,3.2-2.6
			c0.7-0.1,2.1,0.1,4.4,0.8c2.3,0.6,3.9,0.9,4.9,0.9c0.9-0.1,2.8-0.8,5.6-2.2c2.8-1.4,5.3-2.1,7.4-2.1c0.8,0,1.7,0.1,2.5,0.2
			c1.5,0.3,2.9,1,4.1,2.1s2.4,2.2,3.6,3.3c3,2.8,4.5,4.3,4.6,4.5c1.4,1.6,2.2,3.4,2.3,5.4c0.3,6.3-5,14.3-16.1,24.2
			c2.3,2.1,7.3,7.1,15,15c0.5,0.2,1.2,0.5,2.1,1C321,357.6,321.7,358,322.4,358.6z M304.4,313.2c-2.5,0-7,2.6-13.5,8v12.4
			c2.3-0.9,5.4-3.7,9.2-8.4c3.8-4.7,5.7-8.1,5.7-10.4C305.8,313.7,305.3,313.2,304.4,313.2z"/>
		<path class="st7" d="M399.4,340.5c-0.2,0.9-0.6,1.9-1.4,3s-1.5,1.7-2.1,1.9c-0.2,0.1-0.5,0-0.9-0.3c-0.4-0.2-0.8-0.4-1.1-0.4
			c-0.1,0-0.2,0-0.3,0.1c-1.7,0.5-3.4,1.1-5,1.9c-4,1.8-7.7,4.2-11,7.1c-5.4-2.2-8.4-3.4-8.9-3.7c-3.4-1.5-5-2.5-5-3.2v-61.1
			c0-0.4,0.6-0.9,1.9-1.6s2.2-1,2.8-1c0.7,0.1,1.9,0.5,3.9,1.3c1.9,0.8,3.5,1.2,4.8,1.2c1.6,0,3.7-0.7,6.3-2.2
			c2.4-1.4,3.9-2,4.5-1.8c1.3,0.4,3.2,1.8,5.8,4.3c2.6,2.4,4,4.1,4.2,5.2c0.1,0.5-0.4,1.3-1.5,2.5s-2,1.8-2.7,1.8
			c-0.6,0-1-0.1-1.3-0.2c-0.3-0.2-0.5-0.2-0.6-0.2c-1.9,0.4-3.8,0.9-5.4,1.5c-4,1.4-7,2.9-8.9,4.7v13.2c1.9-1,4.4-2,7.4-3
			c0.9-0.1,2.7,1.1,5.5,3.6s4.2,4.3,4.2,5.2c0,0.6-0.4,1.3-1.1,2.1s-1.5,1.3-2.2,1.5c-0.5,0-1.5,0.1-2.8,0.2
			c-2.1,0.4-5.7,2.1-10.9,5.2v8.5c1.6-1,3.8-2.1,6.6-3.4c2.8-1.3,4.5-2,5.2-2c0.8,0,2.7,1.2,5.7,3.5
			C398,338.4,399.5,339.9,399.4,340.5z"/>
		<path class="st7" d="M479.9,346.8c-0.4,1.3-1.1,2.3-2.1,2.9c-2.1,3-5.1,6-8.9,8.8c-4.1,3-7.2,4.3-9.3,3.9
			c-0.3-0.1-0.6-0.1-0.9-0.2c-2.2-1.2-4.7-2.6-7.4-4.2c-4.9-3-8.1-7.8-9.9-14.3c-1.5-5.9-1.6-12.4-0.4-19.6
			c1.5-8.8,4.6-16.3,9.1-22.4c4.8-6.5,9.9-9.4,15.4-8.8c2.1,0.3,5,1.9,8.6,4.8s5.9,5.6,6.8,8.1c0.9,2.4,0.9,7.4,0.1,15
			c-0.2,1.6-0.7,3.2-1.5,4.8c-1,1.9-2,2.6-3,2.3c-1.8-0.6-4.1-1.6-6.7-3c-3.2-1.7-4.9-3-5-3.8c-0.1-0.3-0.1-0.5,0-0.8
			c0.1-0.5,0.4-1,1-1.7c0.6-0.6,0.9-1.2,1-1.7c0.6-2.1,1.1-4.2,1.5-6.1c0.5-2.8,0.5-4.7,0-5.9c-3.6,1.8-6.7,5.3-9.3,10.5
			c-2.2,4.4-3.8,9.5-4.8,15.4c-0.8,4.5-1.1,8.6-0.9,12.3c0.2,3.7,0.8,6,1.8,6.9c0.5,0.4,2.1-0.4,5-2.5s4.8-3.8,5.7-5.1
			c0.1,0,0.5-0.9,1.2-2.4c0.5-0.9,1-1.4,1.6-1.5c1-0.2,3.2,1,6.6,3.5C478.5,344.5,480.1,346.1,479.9,346.8z"/>
		<path class="st7" d="M461.2,423.2c4.2,4.1,5.3,9.4,3.3,15.9c-1.4,4.7-5,10-10.9,16c-6.5,6.7-11.9,9.5-16.1,8.2
			c-0.8-0.3-1.6-0.9-2.4-2s-1.5-2.2-2.3-3.3l-4,13.2c-0.2,0.7-0.3,1.5-0.3,2.5c0,1.3,0,2.3-0.1,2.8c0,0.5-0.5,1.3-1.3,2.4
			c-0.9,1.1-1.8,1.5-2.7,1.3c-1-0.2-2.8-1.4-5.5-3.8c-2.8-2.4-4.5-4.3-4.9-5.7c-0.2-0.9,0.1-1.9,1-3.3c0.7-1,1.1-1.8,1.3-2.4
			l14.6-48c0.1-0.3,0.1-0.9,0-1.9c-0.1-0.9-0.1-1.6,0.1-1.9c1.1-2.4,2.4-3.4,3.9-2.9c0.3,0.1,1.2,0.7,2.9,1.8c1.7,1.2,3,1.9,4.1,2.3
			c1.5,0.5,3.6,0.7,6.3,0.6c2.7-0.1,4.6-0.1,5.6,0.3c0.6,0.2,1.2,0.5,1.8,0.8c1.1,0.7,2.1,1.8,3,3.5
			C459.8,421.4,460.6,422.6,461.2,423.2z M453,427.2c-1.2-0.4-3-0.2-5.6,0.4c-2.5,0.7-4.6,1.6-6.2,2.8l-5.7,18.7
			c3.1,0,6.7-2.4,10.8-7.2c3.8-4.3,6.2-8.2,7.3-11.6C454.2,428.6,454,427.5,453,427.2z"/>
		<path class="st7" d="M373.9,545.6c-0.3,0.9-1,1.8-1.9,2.7c-1,0.9-1.8,1.4-2.4,1.5c-0.2,0-0.4-0.1-0.8-0.4c-0.4-0.3-0.7-0.5-1-0.5
			c-0.1,0-0.2,0-0.3,0c-1.7,0.2-3.5,0.5-5.3,1c-4.3,1.1-8.3,2.7-12.1,4.9c-4.9-3.2-7.6-4.9-8-5.2c-3-2-4.5-3.4-4.4-4.1l11.1-60
			c0.1-0.4,0.8-0.8,2.2-1.3c1.4-0.5,2.4-0.6,2.9-0.4c0.6,0.2,1.8,0.8,3.6,1.9c1.8,1.1,3.3,1.8,4.5,2c1.6,0.3,3.8,0,6.6-1
			c2.6-1,4.2-1.3,4.7-0.9c1.2,0.7,2.8,2.4,4.9,5.2c2.1,2.8,3.1,4.8,3.2,5.8c0,0.5-0.6,1.2-1.9,2.2s-2.3,1.4-3,1.3
			c-0.6-0.1-1-0.3-1.2-0.5s-0.4-0.3-0.5-0.3c-2,0.1-3.9,0.2-5.6,0.5c-4.2,0.6-7.4,1.6-9.6,3l-2.4,13c2-0.6,4.6-1.1,7.8-1.6
			c0.9,0.1,2.4,1.6,4.7,4.5c2.3,3,3.3,5,3.2,5.9c-0.1,0.6-0.6,1.2-1.5,1.9s-1.7,1-2.4,1.1c-0.5-0.1-1.5-0.2-2.8-0.4
			c-2.1,0-6,1-11.6,3.1l-1.5,8.4c1.8-0.7,4.2-1.4,7.1-2.2c3-0.8,4.8-1.1,5.4-1c0.7,0.1,2.4,1.6,5,4.5
			C372.9,543.3,374.1,545,373.9,545.6z"/>
		<path class="st7" d="M431.2,579.8c-1.1,3.9-3.2,6.7-6.4,8.5c-3.2,1.8-7.1,2.1-11.7,1c-1.1-0.3-2.3-0.8-3.5-1.5
			c-2.2-1.3-3.4-2-3.5-2c-1.2-0.6-2.4-1.2-3.6-1.9c-1.2-0.6-2.2-1.5-2.8-2.7c-1.1-1.6-1.7-4-1.8-7.1c-0.2-3.6-0.5-5.9-0.8-6.9
			c-0.3-0.5-0.6-1.4-0.9-2.6c0.1-0.8,0.4-1.6,1.1-2.2c0.7-0.6,1.3-1,2-1c0.3,0,0.9,0.1,1.8,0.3c1.8,0.5,4,1.3,6.5,2.5s3.9,2,4.1,2.4
			s0.1,2.4-0.3,6c-0.4,3.3-0.2,5.2,0.7,5.8c0.2,0.2,0.4,0.3,0.7,0.4c1,0.3,2.1-0.3,3.2-1.8s2-3.2,2.6-5.3c1.2-4.5,0.7-8-1.8-10.2
			c-5.5-5.3-9.2-9.7-11-13.4c-2.1-4.3-2.3-8.7-0.7-13.3c1.3-3.8,3.8-7.4,7.5-10.7s7-4.9,10.1-4.8c1.3,0.1,4.6,2.2,10,6.4
			c1.4,1,2.7,2,4.1,3.1c1.4,1,2.4,2.3,3,3.8c1,2.2,0.8,5.6-0.4,10.1c-0.2,0.8-0.6,2.1-1.1,3.7c-0.4,1.4-0.7,2.4-0.9,3
			c0,0.4,0,1,0.1,2c0.1,0.6,0.1,1.2-0.2,1.8c-0.7,2.3-2,3.3-3.9,3c-1.1-0.1-2.9-1-5.5-2.7c-2.9-1.8-4.6-3.5-5.1-4.8
			c-0.1-0.2,0-0.7,0.3-1.6c0.2-0.8,0.8-2.5,1.7-5.2c0.9-2.7,1.6-4.7,1.9-6c0.6-2.2,0.6-3.4,0.1-3.5c-1.6-0.3-3.3,0.5-5,2.4
			s-2.9,4.3-3.7,7.1c-1.3,4.7-0.8,8.4,1.4,11.2c2.6,2.8,5.2,5.7,7.8,8.5c2.5,2.7,4,5.2,4.6,7.5C432.6,571.6,432.4,575.3,431.2,579.8
			z"/>
		<g>
			<path class="st7" d="M389.6,395.6c-0.2-1.8-0.4-3.1-0.7-3.8c-0.4-1-1.3-1.8-2.8-2.2c-0.7-0.2-1.5-0.2-2.4,0.1
				c-1.4,0.4-2.2,0.6-2.5,0.6l-29,3.3c-0.5,0-1.2-0.1-2-0.3c-0.8-0.2-1.5-0.3-2.1-0.2c-2.2,0.4-3.6,1.1-4.2,2.3
				c-0.4,1,0.3,3.1,2,6.2c1.7,3.2,3.2,5,4.4,5.5c0.4,0.2,1,0.1,1.6-0.2c0.7-0.3,1.1-0.5,1.4-0.5l5.9-0.7l-4.7,34.1
				c0.1,0,0.1,0,0.2,0c5.1,0,9.6,0.9,13.6,2.5l5.3-38.2l8.6-1.1c0.5,0,1.1,0.2,1.8,0.6c0.7,0.5,1.3,0.7,1.7,0.8c1.6,0.2,2.6,0,3-0.6
				s0.6-1.5,0.8-2.6C389.8,399.6,389.8,397.7,389.6,395.6z"/>
			<path class="st7" d="M377,439.4c-0.4-0.2-1-0.1-1.6,0.2c-0.7,0.3-1.1,0.5-1.4,0.5l-5.9,0.7l1.1-7.7c-2.1,1.1-4.3,2-6.6,2.7
				c-2.7,0.4-5.4,0.7-8.1,1.1l-0.8,5.5l-8.6,1.1c-0.5,0-1.1-0.2-1.8-0.6c-0.7-0.5-1.3-0.7-1.7-0.8c-1.6-0.2-2.6,0-3,0.6
				s-0.6,1.5-0.8,2.6c-0.2,1.6-0.2,3.4,0,5.6c0.2,1.8,0.4,3.1,0.7,3.8c0.4,1,1.3,1.8,2.8,2.2c0.7,0.2,1.5,0.2,2.4-0.1
				c1.4-0.4,2.2-0.6,2.5-0.6l29-3.3c0.5,0,1.2,0.1,2,0.3c0.8,0.2,1.5,0.3,2.1,0.2c2.2-0.4,3.6-1.1,4.2-2.3c0.4-1-0.3-3.1-2-6.2
				C379.6,441.7,378.2,439.9,377,439.4z"/>
		</g>
	</g>
	<g class="st8">
		<path class="st5" d="M481.1,596.2c24.4-22.1-7-48-30-49.3c-38.6-2.1-77.7-13.1-114.2-26.2c-30.4-10.9-68.3-24.1-78.8-56
			c-1.9-5.9-3.5-12.2-7.3-17.2c-6.3-8.4-21.7-10.6-22.1,3.4c-0.3,12.3,8.7,14.1,14.7,22.3c9.9,13.7-10.9,5.1-14.8,4.5
			c-4.7-0.7-10,0.5-13,4.2s-2.6,10.1,1.6,12.5c3.5,2,8.9,1.2,10.6,4.8c0.9,1.8,0.4,3.9,0,5.8c-10.5,50.7,59.1,85,98.2,95
			C370.2,611.5,442.2,631.5,481.1,596.2z"/>
		<path class="st5" d="M216.9,436.7c-1.6-4.8-3.2-9.9-6.3-14c-3.1-4.3-7.5-8-12.9-9c-5.8-1.1-13.7,0.6-15.3,7.2
			c-1.6,6.7,4.7,11,9.7,13.7c1.1,0.6,2.2,1.1,3.3,1.6c3.4,2.4,7.3,4.3,11.3,5.4c0.1,0,0.3,0,0.4,0c0.6,0.3,1.3,0.6,1.9,0.8
			c1.2,0.8,2.6,1.1,4.1,0.6C215.8,442.2,217.8,439.4,216.9,436.7z"/>
	</g>
</g>
<g class="st9">
	<path class="st10" d="M364.8,828.6c-0.7-1.2-1.4-2.3-2-3.2l1.7-1l1.3,2h0.1c-0.3-1.7,0.3-3.2,1.6-4c0.2-0.1,0.4-0.2,0.6-0.2l1,1.8
		c-0.2,0.1-0.4,0.2-0.7,0.3c-1.3,0.8-1.7,2.3-1.1,3.9c0.1,0.3,0.2,0.6,0.4,0.9l3.2,5.6l-1.9,1.1L364.8,828.6z"/>
	<path class="st10" d="M374.6,829.9c0.8,0,2-0.2,2.9-0.7c1.4-0.8,1.6-1.9,1.1-2.7c-0.5-0.9-1.4-1.1-3.1-0.8
		c-2.3,0.4-3.8-0.1-4.5-1.3c-1-1.7-0.4-3.9,1.8-5.2c1.1-0.6,2.2-0.9,2.9-0.8l0.3,1.7c-0.6,0-1.5,0.1-2.5,0.6
		c-1.1,0.7-1.4,1.7-0.9,2.4c0.5,0.9,1.4,0.9,3,0.6c2.2-0.4,3.7,0,4.6,1.6c1.1,1.8,0.4,4-2.1,5.4c-1.1,0.7-2.4,1-3.4,1L374.6,829.9z"
		/>
	<path class="st10" d="M379,811.9l1.7,3l2.7-1.6l0.8,1.4l-2.7,1.6l3.3,5.6c0.8,1.3,1.5,1.8,2.6,1.2c0.5-0.3,0.8-0.6,1-0.8l0.9,1.4
		c-0.3,0.4-0.8,0.8-1.5,1.2c-0.9,0.5-1.8,0.6-2.5,0.4c-0.9-0.2-1.6-1.1-2.3-2.3l-3.3-5.7l-1.6,0.9l-0.8-1.4l1.6-0.9l-1.5-2.5
		L379,811.9z"/>
	<path class="st10" d="M398.8,814.6c0.6,1.1,1.2,2,1.7,2.8l-1.7,1l-1.1-1.6l0,0c0,1.1-0.5,2.9-2.3,4c-1.6,1-4.1,1.2-6.3-2.5
		l-3.6-6.1l1.9-1.1l3.4,5.8c1.2,2,2.5,3,4.3,2c1.3-0.7,1.6-2.1,1.5-3.2c-0.1-0.3-0.2-0.7-0.4-1.1l-3.7-6.4l1.9-1.1L398.8,814.6z"/>
	<path class="st10" d="M403.7,795l7.4,12.6c0.5,0.9,1.2,2,1.7,2.6l-1.7,1l-1.1-1.8l0,0c0.1,1.5-0.7,3.1-2.4,4.1
		c-2.5,1.5-5.7,0.5-7.6-2.7c-2-3.5-1.1-6.9,1.4-8.3c1.6-0.9,3.1-0.8,4.1-0.2l0,0l-3.6-6.2L403.7,795z M407.1,805.3
		c-0.1-0.2-0.3-0.6-0.6-0.8c-1-1-2.6-1.4-4-0.6c-2,1.1-2.1,3.6-0.8,5.9c1.2,2.1,3.3,3.3,5.3,2.1c1.3-0.7,1.9-2.3,1.5-3.9
		c-0.1-0.3-0.2-0.6-0.4-0.9L407.1,805.3z"/>
	<path class="st10" d="M410.1,793.9c0.4,0.6,0.2,1.4-0.5,1.9c-0.7,0.4-1.4,0.1-1.8-0.5c-0.4-0.7-0.2-1.5,0.5-1.9
		C409,793,409.7,793.2,410.1,793.9z M415.8,808.5l-6.1-10.5l1.9-1.1l6.1,10.5L415.8,808.5z"/>
	<path class="st10" d="M427.2,794.8c2.3,3.9,0.6,7.1-2,8.6c-2.8,1.6-6.2,0.8-8.1-2.5c-2-3.5-0.9-6.9,2-8.6
		C422.1,790.6,425.4,791.6,427.2,794.8z M419,799.7c1.3,2.3,3.7,3.2,5.5,2.2c1.8-1.1,2.2-3.6,0.8-5.9c-1-1.8-3.2-3.5-5.5-2.2
		C417.6,795.1,417.8,797.7,419,799.7z"/>
	<path class="st10" d="M431.1,798.1c-0.5-0.8-0.3-1.7,0.5-2.1c0.8-0.4,1.6-0.2,2.1,0.6s0.3,1.7-0.5,2.1
		C432.4,799.2,431.6,798.9,431.1,798.1z"/>
	<path class="st10" d="M443.9,791.7c-0.3,0.5-1.2,1.5-2.7,2.4c-3.2,1.8-6.5,0.9-8.3-2.3c-1.9-3.2-1-6.8,2.4-8.8c1.1-0.7,2.3-1,2.9-1
		l0.4,1.7c-0.6,0-1.5,0.2-2.5,0.8c-2.4,1.4-2.7,3.9-1.4,6.1c1.4,2.4,3.8,3,5.9,1.8c1.1-0.6,1.6-1.3,2-1.9L443.9,791.7z"/>
	<path class="st10" d="M452.6,780c2.3,3.9,0.6,7.1-2,8.6c-2.8,1.6-6.2,0.8-8.1-2.5c-2-3.5-0.9-6.9,2-8.6
		C447.4,775.8,450.7,776.8,452.6,780z M444.4,784.9c1.3,2.3,3.7,3.2,5.5,2.2c1.8-1.1,2.2-3.6,0.8-5.9c-1-1.8-3.2-3.5-5.5-2.2
		C443,780.3,443.2,782.9,444.4,784.9z"/>
	<path class="st10" d="M453.7,776.3c-0.6-1.1-1.2-2-1.7-2.8l1.7-1l1.1,1.6h0.1c0-1.3,0.4-2.8,2.2-3.8c1.4-0.8,3-0.6,4.2,0.4l0,0
		c0-0.8,0.1-1.5,0.4-2c0.3-0.8,0.9-1.5,1.9-2.1c1.4-0.8,4-1.1,6.1,2.5l3.6,6.2l-1.9,1.1l-3.4-5.9c-1.2-2-2.6-2.8-4.1-1.9
		c-1.1,0.6-1.5,1.9-1.2,3c0.1,0.3,0.2,0.7,0.4,1l3.8,6.5l-1.9,1.1l-3.6-6.3c-1-1.7-2.4-2.4-3.9-1.6c-1.2,0.7-1.5,2.1-1.2,3.3
		c0.1,0.3,0.2,0.7,0.4,1l3.7,6.3l-1.9,1.1L453.7,776.3z"/>
</g>
</svg>
