<?xml version="1.0" encoding="utf-8"?>
<!-- Generator: Adobe Illustrator 26.5.0, SVG Export Plug-In . SVG Version: 6.00 Build 0)  -->
<svg version="1.1" id="Layer_1" xmlns="http://www.w3.org/2000/svg" xmlns:xlink="http://www.w3.org/1999/xlink" x="0px" y="0px"
	 viewBox="0 0 2521 2911" style="enable-background:new 0 0 2521 2911;" xml:space="preserve">
<style type="text/css">
	.st0{fill:#131227;}
	.st1{fill:#54BFD3;}
	.st2{fill:#CB015F;}
	.st3{fill:#341400;}
	.st4{opacity:0.69;}
	.st5{fill:#FFFFFF;}
	.st6{opacity:0.35;}
	.st7{fill:#4AFD8D;}
	.st8{opacity:0.25;}
</style>
<g>
	<polygon class="st0" points="2521,727.8 2521,2183.6 2421.2,2241.2 1456.1,2798.5 1260.8,2911 1065.6,2798.5 100.5,2241.2 
		0,2183.2 0,727.8 100.5,669.8 1053.6,119.4 1260.5,0 1467.4,119.4 2420.5,669.8 	"/>
	<g>
		<g>
			<path class="st1" d="M674.2,1646.3c-21.3,4.8-41.5,12.7-59.7,25c-0.7,0.3-1,0.7-1.4,0.7c-3.8,2.7-7.5,5.5-11,8.6
				c-1.7,1.4-3.1,2.7-4.8,4.5c-1,1-1.7,1.7-2.4,2.7c-1,1-1.7,2.1-2.1,3.1c-126.3-60.7-274.5-141.4-369.8-228.5
				c-20.2-18.5-19.6-49.8,5.8-64.5c21.6-12.7,49.1-8.2,72.7-0.3c60.7,20.2,112.5,59.7,163.3,98.8
				C523.6,1540.9,613.4,1600.3,674.2,1646.3z"/>
		</g>
		<g>
			<path class="st2" d="M589.1,1613.3c-2.1,2.1-4.1,4.1-6.5,5.8c-1.4,2.1-3.1,3.8-4.5,5.8c-4.8,4.8-9.6,8.6-15.1,12.4
				c-11.3,9.6-23,16.8-35,21.3c22,11.3,43.6,22,64.8,32.3c0.7-1,1.4-2.1,2.1-3.1c0.7-1,1.4-2.1,2.4-2.7c1.4-1.7,3.1-3.1,4.8-4.5
				c3.4-3.1,7.2-5.8,11-8.6c0.3-0.3,0.7-0.7,1.4-0.7c18.2-12.4,38.4-20.2,59.7-25c-18.5-14.1-39.8-29.2-62.1-44.9
				C604.9,1606.5,597.3,1610.6,589.1,1613.3z"/>
		</g>
		<g>
			<path class="st3" d="M602.1,1680.6c-1.7,1.4-3.1,2.7-4.8,4.5c4.1-5.1,9.6-9.6,15.8-13C609.3,1674.8,605.5,1677.5,602.1,1680.6z"
				/>
		</g>
		<g class="st4">
			<path class="st5" d="M1863.6,2094c-39.8,77.9-173.6,171.9-231.6,177c-297.1,26.4-605.5-26.4-859.1-191.1
				c-92.6-60-141-174-177.7-281.7c-9.6-27.8-13.7-49.8-13.4-67.6c2.1,70,84.4,171.2,137.9,207.6c97.8,66.6,218.2,123.5,331.1,158.2
				c274.8,84.1,452.9,95.4,697.2,48.4C1793.7,2135.9,1841.7,2130.4,1863.6,2094z"/>
		</g>
		<g>
			<path class="st5" d="M581.9,1730.7c-0.7-16.5,3.4-31.2,13.4-42.5C587,1698.4,582.2,1712.2,581.9,1730.7z"/>
		</g>
		<g>
			<path class="st5" d="M1868.8,2022.3c2.1,5.1,3.8,10,4.8,15.1C1872.2,2032.3,1870.5,2027.1,1868.8,2022.3z"/>
		</g>
		<g>
			<g>
				<g>
					<path class="st1" d="M937,1567.7c4.5-16.5,15.1-32.3,28.8-42.2c8.2-5.8,16.8-9.6,26.1-12.7c11-3.8,22-7.9,31.2-15.8
						c8.6-7.2,14.8-17.5,15.1-28.8c0.7-12-6.2-22.6-12-32.3c-5.8-9.6-12-18.9-19.9-26.4c-7.5-7.2-16.8-12.7-26.8-16.5
						c-38.1-13.7-82,2.7-111.2,28.1c-28.8,25.4-49.1,67.9-36,106.4c12.7,38.4,56.6,70,97.4,54.9c5.8-2.1,9.9-7.9,8.2-14.4
						c-1.7-5.8-8.2-10.3-14.4-8.2c-1.7,0.7-3.4,1.4-5.5,1.7c-1,0.3-1.7,0.3-2.7,0.7c-0.7,0-3.1,0.3-0.7,0.3c-3.8,0.3-7.9,0.3-11.7,0
						c-2.1-0.3,2.7,0.7-0.7,0c-0.7,0-1.4-0.3-2.1-0.3c-1.7-0.3-3.8-0.7-5.5-1.4c-1.7-0.7-3.4-1-5.1-1.7c1.7,0.7,0,0-0.3,0
						c-1-0.7-2.4-1-3.4-1.7c-3.1-1.7-6.2-3.8-9.3-5.8c1.7,1.4-1.4-1-1.4-1c-0.7-0.3-1-1-1.7-1.4c-1.7-1.4-3.4-3.1-5.1-4.8
						c-2.7-2.7-4.1-4.8-5.5-6.5c-2.4-3.4-4.5-7.2-6.5-11c-1-2.1-0.3-1-0.3-0.3c-0.3-1-0.7-2.1-1.4-3.1c-0.7-1.7-1-3.4-1.4-4.8
						c-0.3-1.7-0.7-3.4-1-5.1c-0.7-3.4,0,2.1-0.3-1.4c0-1.4-0.3-2.4-0.3-3.8c-0.3-4.1,0-8.2,0.3-12.7c0-0.3,0.3-2.4,0-0.7
						c0-1,0.3-2.1,0.7-3.1c0.3-2.4,1-4.5,1.4-6.9c4.1-15.1,12.7-28.8,24-40.5c6.5-6.5,12-11,19.2-15.8c7.2-4.8,14.1-8.2,21.3-10.6
						c15.8-5.5,32.3-7.9,47.3-4.1c2.1,0.3,4.1,1,5.8,1.7c0.7,0.3,1.7,0.7,2.4,0.7c3.8,1.4-1-0.3,1.4,0.3c1.7,0.7,3.4,1.7,4.8,2.4
						c1,0.7,2.1,1.4,3.1,2.1c0.3,0,2.7,2.1,1.7,1c7.5,5.5,12.7,13,17.5,20.6c4.1,6.5,11.3,15.8,12,23c0,0,0,4.1,0,2.1
						c0,0.7-0.3,1.7-0.7,2.4c-0.7,3.4,0.3-0.3-0.3,1.4c-0.3,1-1,2.1-1.4,2.7c-1.7,2.7-4.5,5.1-6.9,6.9c-8.9,6.5-19.9,8.6-30.2,12.7
						c-10.3,4.1-19.6,9.6-28.1,16.5c-15.8,13-27.4,31.2-32.9,51.1c-1.7,6.2,2.1,12.7,8.2,14.4C928.4,1577.6,935.3,1573.9,937,1567.7
						L937,1567.7z"/>
				</g>
			</g>
			<g>
				<g>
					<path class="st1" d="M939.7,1559.8c10.3,16.5,23,32.6,44.3,34.7c20.6,1.7,37.7-13.7,50.8-27.8c4.5-4.8,4.5-11.7,0-16.5
						c-15.4-16.8-30.5-34-46-50.8c-4.1-4.8-12.4-4.5-16.5,0c-4.8,4.8-4.1,11.7,0,16.5c15.4,16.8,30.5,34,46,50.8c0-5.5,0-11,0-16.5
						c-2.7,2.7-5.5,5.5-8.2,8.2c-1.4,1.4-3.1,2.7-4.8,4.1c-0.3,0-2.1,1.7-1,0.7c-0.7,0.3-1.4,1-2.1,1.4c-1.7,1-3.4,2.1-5.1,3.1
						c-1,0.3-1.7,1-2.7,1.4c-1.7,0.7,2.4-0.7-1,0.3c-1.7,0.7-3.1,1-4.8,1.4c-1.4,0.3,1.4,0-0.7,0c-1,0-2.1,0-2.7,0
						c-0.3,0-2.4-0.3-1.4,0c1.4,0.3-1.4-0.3-1.7-0.3c-0.3,0-3.1-1-1.7-0.3c1,0.3-1.7-0.7-1.4-0.7c-0.7-0.3-1.4-0.7-1.7-1
						c0,0-2.4-1.7-1.4-1c1,0.7-1-1-1.4-1c-0.7-0.7-1.4-1.4-2.1-2.1c-1-1-2.4-2.4-3.4-3.8c0,0-1.7-2.4-1.4-1.4c0.7,1-1-1.4-1-1.7
						c-2.1-3.1-4.1-6.2-6.2-9.6c-3.4-5.5-10.3-7.5-15.8-4.1C938.7,1547.1,936.3,1554.7,939.7,1559.8L939.7,1559.8z"/>
				</g>
			</g>
		</g>
		<g>
			<g>
				<g>
					<path class="st1" d="M1899.7,1394.1c-13.7-1.4-26.1,5.8-36.4,14.1c-10.3,8.2-18.9,18.9-26.8,29.5
						c-8.9,12.7-14.4,27.8-19.2,42.9c-4.1,12.7-8.6,25.7-13.7,38.1c-20.6,50.1-49.7,98.1-86.1,138.3c-19.6,21.3-41.9,40.8-67.2,54.9
						c-10.3,5.8-1,21.6,9.3,15.8c47-26.1,84.1-68.3,113.6-112.5c15.1-22.6,28.5-46.7,39.8-71.7c5.5-12,10.3-24,14.8-36.4
						c4.8-13.4,8.6-27.4,14.1-40.8c5.8-13.7,14.4-25.7,24.7-36.4c8.9-9.3,20.2-18.9,32.9-17.5c4.8,0.3,9.3-4.5,9.3-9.3
						C1908.9,1397.9,1904.5,1394.8,1899.7,1394.1L1899.7,1394.1z"/>
				</g>
			</g>
			<g>
				<g>
					<path class="st1" d="M1836.9,1520c11,6.5,22,13.4,33.3,19.9c4.1,2.4,10.3,1,12.7-3.4c2.4-4.5,1-10-3.4-12.7
						c-11-6.5-22-13.4-33.3-19.9c-4.1-2.4-10.3-1-12.7,3.4S1832.4,1517.3,1836.9,1520L1836.9,1520z"/>
				</g>
			</g>
			<g>
				<g>
					<path class="st1" d="M1810.1,1575.2c1,0.7,2.1,1.4,3.1,2.1c-0.7-0.3-1.4-1-1.7-1.4c2.4,2.1,4.5,4.1,6.5,6.5
						c-0.3-0.7-1-1.4-1.4-1.7c1.7,2.4,3.4,5.1,4.5,7.9c-0.3-0.7-0.7-1.4-1-2.1c0.7,1.4,1,3.1,1.7,4.8c0.7,2.1,2.4,4.5,4.1,5.5
						c2.1,1,4.8,1.7,7.2,1c4.8-1.4,7.9-6.2,6.5-11.3c-3.1-11-10.3-20.6-19.9-26.8c-4.1-2.4-10.3-1-12.7,3.4
						C1804.3,1567,1805.7,1572.5,1810.1,1575.2L1810.1,1575.2z"/>
				</g>
			</g>
			<g>
				<g>
					<path class="st1" d="M1770.3,1618.5c2.4,6.2,4.5,12.4,6.9,18.5c0.7,2.4,2.1,4.1,4.1,5.5c2.1,1,4.8,1.7,7.2,1
						c2.1-0.7,4.5-2.1,5.5-4.1c1-2.1,1.7-4.8,1-7.2c-2.4-6.2-4.5-12.4-6.9-18.5c-0.7-2.4-2.1-4.1-4.1-5.5c-2.1-1-4.8-1.7-7.2-1
						c-2.1,0.7-4.5,2.1-5.5,4.1C1770.3,1613.3,1769.6,1616.1,1770.3,1618.5L1770.3,1618.5z"/>
				</g>
			</g>
			<g>
				<g>
					<path class="st1" d="M1896.2,1412.6c8.6,2.7,17.2,4.1,26.1,5.1c7.5,1,15.8,2.1,22.6,5.8c13.7,7.2,17.2,23,17.5,37.4
						c1,37.4-20.6,70-43.2,98.8c-44.6,57.3-100.5,110.8-169.1,137.9c-17.8,7.2-36,11-54.9,15.4c-7.2,1.7-15.4,3.8-21.6,4.5
						c-1.7,0-3.4,0.3-5.5,0.3c-1,0-1.7,0-2.7,0c-2.1,0,1,0.3-1,0c-0.7,0-1.4-0.3-1.7-0.3c-0.7-0.3-0.3,0,0.3,0.3
						c-0.3-0.3-0.7-0.3-1.4-0.7c0,0.3,1.4,1.4,0.3,0c-1-1,0.7,1.4-0.3-1c-2.1-4.5-8.6-5.5-12.7-3.4c-4.8,2.7-5.5,7.9-3.4,12.7
						c6.9,15.4,29.2,11.3,41.9,8.6c16.5-3.4,33.3-6.9,49.1-12c38.4-12,73.4-32.6,105-57.3c31.6-24.7,59.4-53.5,84.4-84.7
						c26.1-32.3,51.8-67.6,53.9-110.5c1-19.6-2.4-42.9-18.5-56.3c-17.5-14.4-40.8-11.3-61.1-18.2
						C1889.7,1391,1884.9,1408.8,1896.2,1412.6L1896.2,1412.6z"/>
				</g>
			</g>
			<g>
				<g>
					<path class="st1" d="M1946.7,1125.1c17.2,71,7.5,145.5-7.2,216.2c-4.1,20.2-8.9,40.5-13.4,60.4c-1.4,5.8,7.9,8.6,9.3,2.4
						c16.8-72.4,33.6-146.2,29.5-221c-1-20.2-4.1-40.5-8.6-60.4C1954.2,1116.5,1945.3,1119.2,1946.7,1125.1L1946.7,1125.1z"/>
				</g>
			</g>
			<g>
				<g>
					<path class="st1" d="M1957.3,1117.2c-5.1-12-17.2-20.6-29.8-23c-14.1-2.7-28.1,0.7-40.5,8.2c-27.1,16.5-41.5,46-64.8,65.9
						c-12.4,10.6-27.8,17.5-43.9,19.2c-4.5,0.3-8.6,3.1-8.9,7.9c-0.3,4.1,2.1,9.6,6.5,10c13.7,1.7,24.7,10.6,37.4,15.4
						c14.1,5.1,29.5,3.4,43.2-2.4c15.1-6.2,27.4-16.5,39.1-27.4c10.6-10,21.3-20.2,32.6-29.5c12-10,23.3-20.9,27.1-36.4
						c2.7-11.3-14.8-16.5-17.8-4.8c-2.7,11-11.3,18.9-19.6,25.7c-10.3,8.9-20.6,17.8-30.5,27.4c-17.5,16.5-41.5,39.1-67.9,30.2
						c-13.4-4.5-24.7-14.1-39.5-15.8c-0.7,6.2-1.7,12-2.4,18.2c15.1-1.4,29.2-5.8,42.2-13.7c13.4-7.9,24-18.9,33.6-30.5
						c9.3-11.3,18.2-23,28.8-32.9c8.6-8.2,20.2-16.1,31.9-17.2c11.7-0.7,22,3.8,26.8,14.8c2.1,4.5,8.6,5.5,12.7,3.4
						C1958.7,1127.1,1959.4,1121.6,1957.3,1117.2L1957.3,1117.2z"/>
				</g>
			</g>
			<g>
				<g>
					<path class="st1" d="M1929.2,1399.6c5.1-38.1,9.6-76.2,4.5-114.6c-0.7-6.2-9.9-3.4-9.3,2.4c5.1,37.4,0,74.8-4.8,111.9
						C1918.9,1405.4,1928.1,1405.4,1929.2,1399.6L1929.2,1399.6z"/>
				</g>
			</g>
			<g>
				<g>
					<path class="st1" d="M1934.7,1280.2c-9.9-14.1-26.8-16.1-42.5-12.7c-14.1,3.1-28.8,7.9-41.5,15.1
						c-12.7,7.2-22.3,17.5-28.5,30.5c-5.5,11.7-9.3,24.7-18.5,34c-8.6,8.2,4.5,21.3,13,13c17.2-16.5,17.8-44.3,37.7-58
						c9.9-6.9,21.3-11,32.6-14.1c8.9-2.4,25.4-7.9,31.9,1.7c2.7,4.1,7.9,5.8,12.7,3.4C1935.4,1290.5,1937.4,1284.3,1934.7,1280.2
						L1934.7,1280.2z"/>
				</g>
			</g>
			<g>
				<g>
					<path class="st1" d="M1808.1,1363.2c14.4-0.7,28.1,4.5,42.5,6.5c14.8,2.1,29.5,1,41.9-7.9c11.7-8.2,20.2-20.2,27.4-32.3
						c8.9-14.1,14.8-29.2,16.5-46c0.3-4.8-4.5-9.3-9.3-9.3c-5.5,0-8.9,4.1-9.3,9.3c-1.4,14.1-7.2,26.4-14.8,38.1
						c-6.2,9.3-12.7,19.9-22.3,25.7c-9.9,6.2-21.3,5.5-32.6,3.1c-13.4-2.7-26.8-6.9-40.5-6.2
						C1796.4,1345.7,1796.4,1363.9,1808.1,1363.2L1808.1,1363.2z"/>
				</g>
			</g>
			<g>
				<g>
					<path class="st1" d="M1945.3,1409.2c15.4-53.2,26.4-107.7,32.3-162.6c1.7-15.8,3.1-31.6,3.8-47.7c0.3-6.2-9.3-6.2-9.6,0
						c-3.8,70.3-15.8,140.3-35.7,207.9C1934.3,1412.6,1943.6,1415,1945.3,1409.2L1945.3,1409.2z"/>
				</g>
			</g>
			<g>
				<g>
					<path class="st1" d="M1984.4,1204.3c8.2-14.1,22.6-24,38.8-26.1c16.8-2.1,35.7,4.5,46.3,17.8c10.6,13.4,13.4,31.9,19.9,47
						c6.5,15.1,18.2,25.4,32.9,32.9c16.1,8.2,33.3,13,49.7,20.2c4.5,2.1,9.9-2.1,11.3-6.5c1.4-5.1-1.7-9.3-6.5-11.3
						c-14.8-6.2-30.2-10.6-44.6-17.8c-6.9-3.4-13.4-7.2-18.5-12.4c-4.8-4.8-7.9-12-10.6-19.2c-6.5-17.5-11-36.4-24.7-49.8
						c-14.4-14.4-36.4-21.6-56.3-19.2c-22.3,2.4-42.5,15.8-53.9,35C1962.8,1205,1978.6,1214.3,1984.4,1204.3L1984.4,1204.3z"/>
				</g>
			</g>
			<g>
				<g>
					<path class="st1" d="M2169.7,1281.5c-18.9,14.4-40.8,25.7-63.5,32.9c-14.8,4.8-29.5,5.5-45.3,5.8c-3.1,0-6.2,0-9.3,0
						c-1,0-2.4,0-3.4,0c-2.4,0,2.1,0.7-0.3,0c0.3,0.3,4.1,2.7,3.1,1.7c-0.7-1-2.1-1.7-3.1-2.4c-2.4-1.4-5.1-1.7-7.9-2.7
						c-4.8-1.4-9.3-3.1-13.4-5.5c-15.4-8.2-28.5-23.7-29.2-41.5c-0.3-6.2,1-12.4,1.4-18.5c0.3-5.8,0.7-12,0.3-17.8
						c-1-13.4-4.1-26.4-12-37.1c-3.1-4.1-7.9-5.8-12.7-3.4c-3.8,2.4-6.2,8.6-3.4,12.7c6.5,8.9,9.3,19.2,9.6,29.9
						c0.3,5.8,0,11.7-0.3,17.2c-0.3,5.5-1.4,11.3-1.4,17.2c0.7,22.6,14.4,42.2,32.9,54.2c4.5,3.1,9.6,5.5,14.4,7.5
						c2.1,1,4.5,1.7,6.9,2.4c1,0.3,2.4,0.7,3.4,1c0.3,0,2.1,0.7,1.4,0.3c1.7,1,2.4,2.1,4.8,2.7c1.4,0.3,2.7,0.3,4.1,0.7
						c2.4,0.3,4.8,0.3,7.5,0.3c17.2,0,34.7-1.4,51.5-5.1c12.4-2.7,24-8.2,35.3-13.7c13.4-6.2,25.7-13.7,37.4-22.6
						c3.8-3.1,6.2-7.9,3.4-12.7C2180,1280.9,2173.5,1278.5,2169.7,1281.5L2169.7,1281.5z"/>
				</g>
			</g>
		</g>
		<g class="st6">
			<path class="st1" d="M1874.3,2063.5c-0.7,3.1-1,6.2-2.1,8.9c-0.7,2.1-1.4,4.5-2.1,6.9c-1,2.7-2.1,5.5-3.4,8.2
				c-0.7,2.4-2.1,4.5-3.1,6.5c-22,36.4-70,41.9-115.3,50.8c-244.3,47-422.3,35.7-697.2-48.4c-113.2-34.7-233.3-91.6-331.1-158.2
				c-53.5-36.4-135.9-137.6-137.9-207.6c0.3-16.8,4.1-29.5,11-39.5c0.7-1,1.4-2.1,2.1-3.1c0.7-1,1.4-2.1,2.4-2.7
				c1.4-1.7,3.1-3.1,4.8-4.5c3.4-3.1,7.2-5.8,11-8.6c0.3-0.3,0.7-0.7,1.4-0.7c18.2-12.4,38.4-20.2,59.7-25
				c54.9-12.4,117-4.1,169.8,1c104.3,10.3,207.6,26.4,309.8,49.1c122.8,27.8,243.2,64.5,360.6,110.1
				c106.4,41.2,241.5,84.4,322.2,168.8c8.2,8.9,15.8,17.8,22.3,27.4c2.1,3.1,4.1,6.5,5.8,10c1,1.7,1.7,3.1,2.4,4.8
				c0.7,1.7,1.4,3.1,2.1,4.8c2.1,4.8,3.4,10,4.8,15.1c0.3,1.4,0.7,2.4,0.7,3.8c0.3,1.7,0.7,3.1,0.7,4.8
				C1875.3,2051.8,1875.3,2057.7,1874.3,2063.5z"/>
		</g>
		<g>
			<g>
				<g>
					<path class="st1" d="M724.3,1114.8c13,0,24.4,1,36.4,3.8c5.1,1.4,10.6,2.7,15.4,4.8c0.3,0,2.1,1,0.7,0.3c0.7,0.3,1,0.3,1.7,0.7
						c1,0.3,2.1,1,3.1,1.4c2.4,1,4.5,2.4,6.5,3.8c1,0.7,2.1,1.4,3.1,2.1c1.4,1-1.7-1.4,0.3,0.3c0.3,0.3,0.7,0.7,1.4,1
						c1.7,1.7,3.4,3.1,5.1,5.1c0.7,1,1.7,1.7,2.4,2.7c1,1-0.7-1,0,0c0.3,0.7,0.7,1,1,1.7c1.4,2.1,2.7,4.1,3.8,6.2
						c0.3,0.3,1.4,3.1,0.7,1.7c0.3,1,1,2.4,1.4,3.4c1,2.7,1.7,5.1,2.1,7.9c0.7,3.1,0.7,3.1,0.7,5.8c0.3,3.1,0.3,6.2,0.3,9.6
						c-0.7,25.7-10.6,53.2-27.4,72.7c-17.2,19.9-40.5,31.6-66.2,36.4c-23.3,4.1-47,2.1-69.3-3.1c-23.3-5.5-44.6-14.1-64.5-27.8
						c-8.9-5.8-17.2-13.4-24.7-22c-3.4-3.8-5.8-7.2-8.9-12c-1.4-2.4-2.7-4.8-4.1-7.2c-0.7-1-1-2.1-1.7-3.4c-1-2.1-0.3-1-1.4-3.1
						c-8.2-21.3-7.5-43.9,1-65.5c0.7-1.7,0.3-0.7,0-0.3c0.3-0.7,0.7-1.4,1-2.1c0.7-1.4,1-2.4,1.7-3.8c1.4-2.4,2.7-5.1,4.1-7.5
						c3.1-5.1,6.5-10.3,9.9-15.1c6.5-8.6,15.4-17.8,24.7-25c8.2-6.5,17.8-11.7,28.1-13.7c8.6-1.7,17.5-0.3,25.4,4.8
						c3.8,2.4,8.2,6.9,11.7,11.3c2.7,3.8,7.9,5.8,12.4,3.1c3.8-2.4,6.2-8.2,3.1-12.4c-8.2-11.3-19.2-20.9-33.3-24.4
						c-12.7-3.1-25.4-0.7-37.4,4.5c-24.4,10.6-43.9,31.9-58,53.9c-14.1,22.6-20.9,49.1-17.2,75.5c3.4,24.7,16.8,47,35,64.2
						c19.2,17.8,43.2,30.5,68.3,39.1c24.4,8.2,50.4,12.4,76.2,11c29.8-1.4,59-11,82.3-30.2c23.7-19.6,38.4-48,43.9-78.2
						c4.8-25.4,2.7-52.5-15.1-72.4c-16.5-18.5-42.2-25.4-66.2-27.8c-6.9-0.7-13.7-1-20.9-1C712.9,1096.9,712.9,1114.8,724.3,1114.8
						L724.3,1114.8z"/>
				</g>
			</g>
			<g>
				<g>
					<path class="st1" d="M697.5,1112.4c7.5-12.4,8.6-26.8,7.9-40.8c-0.7-15.8-1.7-31.9-4.8-47.4c-3.8,3.8-7.2,7.2-11,11
						c2.7,1,5.5,2.1,8.2,3.4c1.7,1,3.1,1.7,4.8,3.1c3.8,2.4-0.3-1,0.7-1c-0.7,0.3-1.7,7.9-2.1,9.3c-1,3.8-1.7,7.9-2.7,11.7
						c-3.4,14.8-6.5,29.5-9.9,44.3c-2.4,11.3,14.8,16.1,17.2,4.8c4.1-17.8,7.9-35.7,12-53.9c2.1-8.6,6.5-19.2-0.7-26.4
						c-5.8-6.2-15.1-10-22.6-12.4c-6.9-2.4-12,4.8-11,11c2.7,13.7,3.4,27.4,4.1,41.2c0.7,11.3,0.7,23.3-5.5,33.3
						C675.9,1113.1,691.3,1122.3,697.5,1112.4L697.5,1112.4z"/>
				</g>
			</g>
			<g>
				<g>
					<path class="st1" d="M693,1034.2c0.7,6.2,1,12.4,0.7,18.5c0,3.1-0.3,6.2-0.7,8.9c0,1.4-0.3,2.7-0.3,4.5c-0.3,2.1,0.3-1.4,0,0.3
						c0,1-0.3,2.1-0.3,2.7c-0.3,2.4-0.3,4.8,1,6.9c1,1.7,3.1,3.8,5.5,4.1c4.5,1,10.3-1.4,11-6.2c2.1-13.4,2.7-26.8,1.4-40.1
						c-0.3-2.4-0.7-4.5-2.7-6.2c-1.7-1.7-4.1-2.7-6.2-2.7C697.8,1025.2,692.7,1029,693,1034.2L693,1034.2z"/>
				</g>
			</g>
			<g>
				<g>
					<g>
						<path class="st1" d="M698.2,1112c16.5-4.1,22.6-20.9,34.3-31.6c2.7-2.7,6.2-4.8,9.9-5.8c4.5-1,9.3,0,13.7,0.3
							c9.6,0.7,18.9-1.7,27.1-5.5c-2.4-1.4-4.5-2.4-6.9-3.8c0.3,15.8-16.1,27.8-29.5,32.9c-3.8,1.4-7.9,0-12-0.3
							c-4.1-0.3-8.2-0.3-12.4,0.3c-7.9,1-15.8,3.4-22.6,7.5c-5.1,2.7-0.3,10.6,4.5,7.5c7.9-4.5,16.8-6.9,26.1-6.9
							c4.8,0,9.6,1.4,14.4,1c4.1-0.3,7.9-2.4,11.7-4.1c14.8-7.9,29.5-19.9,29.2-38.1c0-3.8-3.8-5.1-6.9-3.8
							c-8.6,4.1-17.8,4.8-27.1,3.8c-8.6-0.7-15.8,0.7-22.6,5.8c-11.7,9.3-17.8,27.8-33.3,31.6C690.3,1104.8,692.7,1113.4,698.2,1112
							L698.2,1112z"/>
					</g>
				</g>
				<g>
					<g>
						<path class="st1" d="M698.9,1115.1c15.8-10.3,31.9,6.2,41.5,17.5c5.5,6.5,11,13.4,12.7,22c1.7,8.2-0.7,16.8-5.5,23.3
							c2.7,0.3,5.5,0.7,8.2,1c-5.8-15.4-12.7-31.9-29.2-38.8c-8.2-3.4-15.8-5.8-20.9-13.7c-4.1-6.5-5.5-14.8-3.1-22
							c1.7-5.5-6.9-7.9-8.6-2.4c-4.8,16.1,3.1,34.3,18.2,41.9c4.5,2.1,9.3,3.4,13.7,5.8c3.8,2.1,6.9,4.8,9.6,8.2
							c5.5,6.9,8.6,15.4,11.7,23.3c1.4,3.8,5.8,4.1,8.2,1c6.2-8.2,8.6-18.5,6.9-28.5c-1.7-10.6-8.6-19.6-15.4-27.4
							c-6.5-7.9-14.1-15.8-23.7-19.9c-9.3-4.1-19.9-4.5-28.8,1C689.6,1110.7,694.1,1118.2,698.9,1115.1L698.9,1115.1z"/>
					</g>
				</g>
				<g>
					<g>
						<path class="st1" d="M697.8,1101.7c-8.9-0.3-18.2,1-26.4,4.5c-8.9,3.4-15.8,10-24,14.1c-8.2,3.8-17.5,5.5-26.4,4.5
							c-7.5-1-16.5-4.1-19.6-11.7c-2.1-5.1-10.6-3.1-8.6,2.4c7.2,18.2,30.5,20.9,47.3,16.8c10.3-2.4,18.2-8.2,27.1-13.7
							c9.3-5.8,19.9-8.2,30.9-7.9C703.7,1111,703.7,1102.1,697.8,1101.7L697.8,1101.7z"/>
					</g>
				</g>
				<g>
					<g>
						<path class="st1" d="M597.7,1117.2c7.9,3.4,16.1,3.8,24.7,2.4c7.9-1.4,16.8-4.1,23.3-8.6c3.1-2.1,5.5-4.5,7.2-7.5
							c2.1-3.4,3.8-6.5,7.5-8.2c8.6-3.4,19.6-3.4,28.8-3.4c5.8,0,5.8-8.9,0-8.9c-8.9,0-18.2,0.3-26.8,2.4c-7.5,1.7-12.4,5.5-16.5,12
							c-4.1,6.9-11,9.6-18.2,11.7c-8.2,2.4-17.5,3.8-25.7,0.3C597,1107.6,592.2,1115.1,597.7,1117.2L597.7,1117.2z"/>
					</g>
				</g>
				<g>
					<g>
						<path class="st1" d="M680,1083.9c-4.8,1.4-10.3,1.4-14.8-1c-5.1-2.4-6.9-8.6-8.9-13.4c-4.8-11.3-9.3-24.7-3.8-36.7
							c1-2.1,0.7-4.8-1.7-6.2c-2.1-1-5.1-0.7-6.2,1.7c-7.2,15.4-2.1,31.6,4.1,46.3c3.1,6.9,5.8,13.4,13,16.5
							c6.5,2.7,13.7,3.4,20.6,1.4C687.9,1090.8,685.5,1082.2,680,1083.9L680,1083.9z"/>
					</g>
				</g>
				<g>
					<g>
						<path class="st1" d="M645,1028.7c0.7,7.2,4.8,12.7,10.6,16.8c6.2,4.5,13.7,6.2,19.2,11.3c11.3,10.6,11.7,27.4,12.4,41.9
							c0.3,5.8,9.3,5.8,8.9,0c-0.3-15.1-1.4-30.9-10.6-43.6c-4.5-5.8-9.9-9.6-16.5-12.7c-5.8-2.7-14.1-6.5-14.8-14.1
							C653.2,1023.2,644.3,1023.2,645,1028.7L645,1028.7z"/>
					</g>
				</g>
			</g>
		</g>
		<g>
			<path class="st7" d="M876.6,720.9c-1.4,0.3-3.4,0.3-6.5,0c-2.7-0.3-5.1-0.3-6.5,0.3l-25.7,15.1l38.4,141.4
				c1.4,5.1,4.1,10.6,8.2,15.8c1.4,1.7,2.1,5.1,2.1,10.3c0.3,5.8-0.3,10-2.4,12c-0.3,0.3-1,0.7-2.7,1c-5.8,1.7-14.4,2.7-25.7,3.1
				c-12.7,0.3-20.2-0.3-23-2.1c-3.4-2.4-4.5-6.9-3.1-13c1-5.1,1.4-8.9,0.7-11.3l-36-133.1l-17.8,10c-0.7,0.3-2.1,1.7-3.8,3.4
				c-1.7,2.1-3.4,2.7-4.8,2.7c-4.5,0-11.7-3.8-21.3-11.3c-9.6-7.5-14.8-13.4-14.8-16.8c0.3-4.5,3.8-8.9,9.9-12.7
				c1.7-1,4.1-1.7,6.9-2.1c2.7-0.3,5.1-1,6.9-1.7l87.1-49.4c0.7-0.3,3.1-2.1,6.9-5.5c2.4-2.1,5.1-3.1,7.5-3.4
				c5.1-0.7,9.3,0.3,11.7,3.1c1.7,1.7,4.1,5.5,7.2,11c3.8,6.5,6.2,12.4,7.5,17.5c1,4.1,1.4,7.2,1,9.3
				C884.8,717.1,882.1,719.2,876.6,720.9z"/>
			<path class="st7" d="M1185.7,759.3c0,3.1-0.7,6.9-2.7,11c-1.7,4.1-3.8,6.9-5.5,7.9c-0.3,0.3-1.7,0.3-3.1-0.3
				c-1.7-0.3-2.7-0.7-3.8-0.3c-0.3,0-0.7,0.3-1,0.3c-5.1,2.7-10.3,6.2-15.4,10.3c-12,8.9-22.6,19.6-31.9,31.6
				c-19.9-3.4-30.5-5.5-32.3-5.8c-12.4-2.4-18.9-4.8-19.2-7.2l-44.3-204.8c-0.3-1.4,1.4-3.4,5.1-6.9c3.8-3.4,6.5-5.1,8.6-5.1
				c2.4-0.3,6.9,0.3,14.1,1.4c7.2,1.4,12.7,1.4,16.8,0.3c5.5-1,12-5.1,19.6-12c6.9-6.5,11.7-9.6,13.7-9.3c4.8,0.3,12.4,3.8,22.6,10
				s16.1,11,17.8,14.4c0.7,1.7-0.3,4.8-3.1,9.6c-2.7,4.8-5.5,7.5-7.9,7.9c-2.1,0.3-3.4,0.3-4.5,0s-1.7-0.3-2.1,0
				c-6.2,2.7-12,5.8-17.2,9.3c-12.4,7.5-21.3,14.8-26.4,22.3l9.6,44.3c5.5-4.8,13-10,22.6-15.4c2.7-1,9.9,1.7,20.9,8.2
				c11.3,6.5,17.2,11.3,17.8,14.4c0.3,2.1-0.3,4.5-2.4,7.9c-2.1,3.4-4.1,5.5-6.2,6.9c-1.7,0.3-4.8,1.4-9.3,2.7
				c-6.5,2.7-17.5,11.3-32.6,25.4l6.2,28.5c4.8-4.5,11.3-10,19.6-16.5c8.2-6.5,13.7-10,15.8-10.3c2.4-0.7,9.9,2.1,21.6,7.5
				C1179.5,752.8,1185.7,756.9,1185.7,759.3z"/>
			<path class="st7" d="M1493.1,605.9c0.3,4.1-2.7,9.3-9.6,16.5c-1.4,1.4-3.4,2.7-6.5,4.1s-5.1,2.7-6.5,4.1l-51.1,60.4l37.4,82.7
				c0.7,1.7,2.4,3.4,4.8,5.1c2.4,2.1,3.8,3.8,4.5,5.5c1.7,4.8,2.4,7.9,2.1,10.3c-0.3,2.1-1,3.8-2.1,5.1c-2.4,2.7-8.2,6.5-17.8,11.7
				c-9.6,5.1-15.8,7.5-18.9,7.5c-1.4,0-3.8-0.7-6.5-2.7c-3.4-2.1-5.5-4.1-6.2-6.9c0.3-3.8-0.7-10-2.4-17.8l-25.7-55.2l-36.7,51.1
				c-1,1.4-1.7,3.4-2.4,6.5c-0.3,3.1-1,5.1-1.7,6.5c-2.1,3.8-3.4,6.2-4.8,7.5c-2.1,2.4-4.1,3.4-7.2,3.8c-4.5,0.3-12.4-2.4-23-8.6
				c-11-6.2-17.5-11.7-19.9-16.1c-0.7-1.7-1-3.1-1-4.5c0.3-3.1,3.1-6.9,8.6-11.7c2.4-1.4,5.5-4.1,9.6-8.2l55.9-76.5l-36-75.8
				c-0.7-1.7-2.7-3.8-5.5-6.5c-3.1-2.7-4.1-4.8-4.1-6.5c0-3.1,5.5-7.9,15.8-15.1c10.3-7.2,18.2-10.6,23-11c4.8-0.3,7.9,1,9.6,4.1
				c0.3,2.1,1.4,5.5,2.7,10l26.1,58.3l41.9-49.8c0.3-2.1,1.7-5.1,4.1-9.3c2.4-2.7,6.9-3.8,14.1-3.8c3.4,0,10.3,3.4,20.2,10
				C1487.6,597.4,1492.8,602.5,1493.1,605.9z"/>
			<path class="st7" d="M1745.3,735.6c-1.4-0.7-2.7-2.1-4.8-4.5c-1.7-2.4-3.4-3.4-5.1-4.1l-29.2-6.2L1640,851.6
				c-2.4,4.8-3.8,10.6-4.5,17.5c-0.3,2.1-2.1,5.1-5.1,9.3c-3.4,4.8-6.9,7.2-9.6,7.2c-0.3,0-1.4-0.3-2.7-1
				c-5.5-2.7-12.7-7.9-21.3-14.8c-9.6-7.9-14.8-13.7-15.8-17.2c-0.7-4.1,1.4-8.2,6.2-11.7c4.5-3.1,6.9-5.8,7.9-7.9l62.4-122.8
				l-19.9-4.5c-1-0.3-2.7-0.3-5.1,0c-2.4,0.3-4.5,0-5.5-1c-3.4-3.1-6.2-10.6-8.2-22.6c-2.1-12.4-2.1-19.6,0.3-22.3
				c3.1-3.1,8.6-4.1,16.1-2.7c1.7,0.3,4.1,1.4,6.5,3.1c2.4,1.7,4.5,2.7,6.2,3.1l97.8,21.6c1,0.3,3.8,0.3,8.6,0.7
				c3.1,0.3,5.8,1,7.9,2.4c4.5,3.1,6.5,6.5,6.5,10.3c0,2.4-0.3,6.9-2.1,13c-1.7,7.2-3.8,13.4-6.2,18.2c-1.7,3.8-3.8,6.2-5.5,7.5
				C1753.2,738.4,1750.4,738,1745.3,735.6z"/>
			<path class="st7" d="M1105.8,1227c1.7,3.1-1.7,11-9.9,23.3c-8.2,12.4-15.1,18.5-20.9,18.2s-10.6-3.4-14.1-9.6
				c-0.7-1.7-2.1-4.5-4.1-8.2l-58.7-54.9v51.5c0,2.1,0.7,4.8,2.4,7.9c1.7,3.1,2.4,5.5,2.4,6.9c0,5.5-3.8,8.6-11,9.3
				c-5.5,0.7-13.7-0.3-24.7-3.1c-12-2.7-17.8-5.5-17.8-8.2c0-1,0.3-2.1,0.7-3.8s0.7-3.4,0.7-5.8v-194.5c0-1.4-0.3-2.4-0.7-3.4
				c-0.7-1-0.7-1.7-0.7-2.4c0.3-5.1,3.8-7.9,11-8.9c2.4-0.3,7.2,0.3,15.1,2.7c7.9,2.1,13.4,3.1,16.8,3.1c3.1-0.3,9.6-2.7,19.2-7.5
				c9.6-4.8,18.2-7.2,25.4-7.2c2.7,0,5.8,0.3,8.6,0.7c5.1,1,9.9,3.4,14.1,7.2c4.1,3.8,8.2,7.5,12.4,11.3
				c10.3,9.6,15.4,14.8,15.8,15.4c4.8,5.5,7.5,11.7,7.9,18.5c1,21.6-17.2,49.1-55.2,83c7.9,7.2,25,24.4,51.5,51.5
				c1.7,0.7,4.1,1.7,7.2,3.4C1101,1223.6,1103.4,1224.9,1105.8,1227z M1044,1071.2c-8.6,0-24,8.9-46.3,27.4v42.5
				c7.9-3.1,18.5-12.7,31.6-28.8c13-16.1,19.6-27.8,19.6-35.7C1048.8,1072.9,1047.1,1071.2,1044,1071.2z"/>
			<path class="st7" d="M1369.9,1164.9c-0.7,3.1-2.1,6.5-4.8,10.3s-5.1,5.8-7.2,6.5c-0.7,0.3-1.7,0-3.1-1c-1.4-0.7-2.7-1.4-3.8-1.4
				c-0.3,0-0.7,0-1,0.3c-5.8,1.7-11.7,3.8-17.2,6.5c-13.7,6.2-26.4,14.4-37.7,24.4c-18.5-7.5-28.8-11.7-30.5-12.7
				c-11.7-5.1-17.2-8.6-17.2-11V977.2c0-1.4,2.1-3.1,6.5-5.5s7.5-3.4,9.6-3.4c2.4,0.3,6.5,1.7,13.4,4.5c6.5,2.7,12,4.1,16.5,4.1
				c5.5,0,12.7-2.4,21.6-7.5c8.2-4.8,13.4-6.9,15.4-6.2c4.5,1.4,11,6.2,19.9,14.8c8.9,8.2,13.7,14.1,14.4,17.8
				c0.3,1.7-1.4,4.5-5.1,8.6s-6.9,6.2-9.3,6.2c-2.1,0-3.4-0.3-4.5-0.7c-1-0.7-1.7-0.7-2.1-0.7c-6.5,1.4-13,3.1-18.5,5.1
				c-13.7,4.8-24,10-30.5,16.1v45.3c6.5-3.4,15.1-6.9,25.4-10.3c3.1-0.3,9.3,3.8,18.9,12.4c9.6,8.6,14.4,14.8,14.4,17.8
				c0,2.1-1.4,4.5-3.8,7.2c-2.4,2.7-5.1,4.5-7.5,5.1c-1.7,0-5.1,0.3-9.6,0.7c-7.2,1.4-19.6,7.2-37.4,17.8v29.2
				c5.5-3.4,13-7.2,22.6-11.7s15.4-6.9,17.8-6.9c2.7,0,9.3,4.1,19.6,12C1365.1,1157.7,1370.3,1162.8,1369.9,1164.9z"/>
			<path class="st7" d="M1646.1,1186.5c-1.4,4.5-3.8,7.9-7.2,10c-7.2,10.3-17.5,20.6-30.5,30.2c-14.1,10.3-24.7,14.8-31.9,13.4
				c-1-0.3-2.1-0.3-3.1-0.7c-7.5-4.1-16.1-8.9-25.4-14.4c-16.8-10.3-27.8-26.8-34-49.1c-5.1-20.2-5.5-42.5-1.4-67.3
				c5.1-30.2,15.8-55.9,31.2-76.9c16.5-22.3,34-32.3,52.8-30.2c7.2,1,17.2,6.5,29.5,16.5c12.4,10,20.2,19.2,23.3,27.8
				c3.1,8.2,3.1,25.4,0.3,51.5c-0.7,5.5-2.4,11-5.1,16.5c-3.4,6.5-6.9,8.9-10.3,7.9c-6.2-2.1-14.1-5.5-23-10.3
				c-11-5.8-16.8-10.3-17.2-13c-0.3-1-0.3-1.7,0-2.7c0.3-1.7,1.4-3.4,3.4-5.8c2.1-2.1,3.1-4.1,3.4-5.8c2.1-7.2,3.8-14.4,5.1-20.9
				c1.7-9.6,1.7-16.1,0-20.2c-12.4,6.2-23,18.2-31.9,36c-7.5,15.1-13,32.6-16.5,52.8c-2.7,15.4-3.8,29.5-3.1,42.2
				c0.7,12.7,2.7,20.6,6.2,23.7c1.7,1.4,7.2-1.4,17.2-8.6s16.5-13,19.6-17.5c0.3,0,1.7-3.1,4.1-8.2c1.7-3.1,3.4-4.8,5.5-5.1
				c3.4-0.7,11,3.4,22.6,12C1641.3,1178.6,1646.8,1184.1,1646.1,1186.5z"/>
			<path class="st7" d="M1582,1448.6c14.4,14.1,18.2,32.3,11.3,54.6c-4.8,16.1-17.2,34.3-37.4,54.9c-22.3,23-40.8,32.6-55.2,28.1
				c-2.7-1-5.5-3.1-8.2-6.9c-2.7-3.8-5.1-7.5-7.9-11.3l-13.7,45.3c-0.7,2.4-1,5.1-1,8.6c0,4.5,0,7.9-0.3,9.6c0,1.7-1.7,4.5-4.5,8.2
				c-3.1,3.8-6.2,5.1-9.3,4.5c-3.4-0.7-9.6-4.8-18.9-13c-9.6-8.2-15.4-14.8-16.8-19.6c-0.7-3.1,0.3-6.5,3.4-11.3
				c2.4-3.4,3.8-6.2,4.5-8.2l50.1-164.7c0.3-1,0.3-3.1,0-6.5c-0.3-3.1-0.3-5.5,0.3-6.5c3.8-8.2,8.2-11.7,13.4-10
				c1,0.3,4.1,2.4,9.9,6.2c5.8,4.1,10.3,6.5,14.1,7.9c5.1,1.7,12.4,2.4,21.6,2.1c9.3-0.3,15.8-0.3,19.2,1c2.1,0.7,4.1,1.7,6.2,2.7
				c3.8,2.4,7.2,6.2,10.3,12C1577.2,1442.5,1579.9,1446.6,1582,1448.6z M1553.8,1462.4c-4.1-1.4-10.3-0.7-19.2,1.4
				c-8.6,2.4-15.8,5.5-21.3,9.6l-19.6,64.2c10.6,0,23-8.2,37.1-24.7c13-14.8,21.3-28.1,25-39.8
				C1558,1467.2,1557.3,1463.4,1553.8,1462.4z"/>
			<path class="st7" d="M1282.5,1868.6c-1,3.1-3.4,6.2-6.5,9.3c-3.4,3.1-6.2,4.8-8.2,5.1c-0.7,0-1.4-0.3-2.7-1.4
				c-1.4-1-2.4-1.7-3.4-1.7c-0.3,0-0.7,0-1,0c-5.8,0.7-12,1.7-18.2,3.4c-14.8,3.8-28.5,9.3-41.5,16.8c-16.8-11-26.1-16.8-27.4-17.8
				c-10.3-6.9-15.4-11.7-15.1-14.1l38.1-205.9c0.3-1.4,2.7-2.7,7.5-4.5s8.2-2.1,9.9-1.4c2.1,0.7,6.2,2.7,12.4,6.5
				c6.2,3.8,11.3,6.2,15.4,6.9c5.5,1,13,0,22.6-3.4c8.9-3.4,14.4-4.5,16.1-3.1c4.1,2.4,9.6,8.2,16.8,17.8s10.6,16.5,11,19.9
				c0,1.7-2.1,4.1-6.5,7.5s-7.9,4.8-10.3,4.5c-2.1-0.3-3.4-1-4.1-1.7c-0.7-0.7-1.4-1-1.7-1c-6.9,0.3-13.4,0.7-19.2,1.7
				c-14.4,2.1-25.4,5.5-32.9,10.3l-8.2,44.6c6.9-2.1,15.8-3.8,26.8-5.5c3.1,0.3,8.2,5.5,16.1,15.4c7.9,10.3,11.3,17.2,11,20.2
				c-0.3,2.1-2.1,4.1-5.1,6.5s-5.8,3.4-8.2,3.8c-1.7-0.3-5.1-0.7-9.6-1.4c-7.2,0-20.6,3.4-39.8,10.6l-5.1,28.8
				c6.2-2.4,14.4-4.8,24.4-7.5c10.3-2.7,16.5-3.8,18.5-3.4c2.4,0.3,8.2,5.5,17.2,15.4C1279,1860.7,1283.1,1866.6,1282.5,1868.6z"/>
			<path class="st7" d="M1479,1986c-3.8,13.4-11,23-22,29.2c-11,6.2-24.4,7.2-40.1,3.4c-3.8-1-7.9-2.7-12-5.1
				c-7.5-4.5-11.7-6.9-12-6.9c-4.1-2.1-8.2-4.1-12.4-6.5c-4.1-2.1-7.5-5.1-9.6-9.3c-3.8-5.5-5.8-13.7-6.2-24.4
				c-0.7-12.4-1.7-20.2-2.7-23.7c-1-1.7-2.1-4.8-3.1-8.9c0.3-2.7,1.4-5.5,3.8-7.5c2.4-2.1,4.5-3.4,6.9-3.4c1,0,3.1,0.3,6.2,1
				c6.2,1.7,13.7,4.5,22.3,8.6s13.4,6.9,14.1,8.2c0.7,1.4,0.3,8.2-1,20.6c-1.4,11.3-0.7,17.8,2.4,19.9c0.7,0.7,1.4,1,2.4,1.4
				c3.4,1,7.2-1,11-6.2c3.8-5.1,6.9-11,8.9-18.2c4.1-15.4,2.4-27.4-6.2-35c-18.9-18.2-31.6-33.3-37.7-46
				c-7.2-14.8-7.9-29.9-2.4-45.6c4.5-13,13-25.4,25.7-36.7s24-16.8,34.7-16.5c4.5,0.3,15.8,7.5,34.3,22c4.8,3.4,9.3,6.9,14.1,10.6
				c4.8,3.4,8.2,7.9,10.3,13c3.4,7.5,2.7,19.2-1.4,34.7c-0.7,2.7-2.1,7.2-3.8,12.7c-1.4,4.8-2.4,8.2-3.1,10.3c0,1.4,0,3.4,0.3,6.9
				c0.3,2.1,0.3,4.1-0.7,6.2c-2.4,7.9-6.9,11.3-13.4,10.3c-3.8-0.3-9.9-3.4-18.9-9.3c-9.9-6.2-15.8-12-17.5-16.5
				c-0.3-0.7,0-2.4,1-5.5c0.7-2.7,2.7-8.6,5.8-17.8s5.5-16.1,6.5-20.6c2.1-7.5,2.1-11.7,0.3-12c-5.5-1-11.3,1.7-17.2,8.2
				c-5.8,6.5-9.9,14.8-12.7,24.4c-4.5,16.1-2.7,28.8,4.8,38.4c8.9,9.6,17.8,19.6,26.8,29.2c8.6,9.3,13.7,17.8,15.8,25.7
				C1483.8,1957.8,1483.2,1970.5,1479,1986z"/>
			<g>
				<path class="st7" d="M1336.3,1353.9c-0.7-6.2-1.4-10.6-2.4-13c-1.4-3.4-4.5-6.2-9.6-7.5c-2.4-0.7-5.1-0.7-8.2,0.3
					c-4.8,1.4-7.5,2.1-8.6,2.1l-99.5,11.3c-1.7,0-4.1-0.3-6.9-1c-2.7-0.7-5.1-1-7.2-0.7c-7.5,1.4-12.4,3.8-14.4,7.9
					c-1.4,3.4,1,10.6,6.9,21.3c5.8,11,11,17.2,15.1,18.9c1.4,0.7,3.4,0.3,5.5-0.7c2.4-1,3.8-1.7,4.8-1.7l20.2-2.4l-16.1,117
					c0.3,0,0.3,0,0.7,0c17.5,0,32.9,3.1,46.7,8.6l18.2-131.1l29.5-3.8c1.7,0,3.8,0.7,6.2,2.1c2.4,1.7,4.5,2.4,5.8,2.7
					c5.5,0.7,8.9,0,10.3-2.1s2.1-5.1,2.7-8.9C1337,1367.7,1337,1361.1,1336.3,1353.9z"/>
				<path class="st7" d="M1293.1,1504.2c-1.4-0.7-3.4-0.3-5.5,0.7c-2.4,1-3.8,1.7-4.8,1.7l-20.2,2.4l3.8-26.4
					c-7.2,3.8-14.8,6.9-22.6,9.3c-9.3,1.4-18.5,2.4-27.8,3.8l-2.7,18.9l-29.5,3.8c-1.7,0-3.8-0.7-6.2-2.1c-2.4-1.7-4.5-2.4-5.8-2.7
					c-5.5-0.7-8.9,0-10.3,2.1c-1.4,2.1-2.1,5.1-2.7,8.9c-0.7,5.5-0.7,11.7,0,19.2c0.7,6.2,1.4,10.6,2.4,13c1.4,3.4,4.5,6.2,9.6,7.5
					c2.4,0.7,5.1,0.7,8.2-0.3c4.8-1.4,7.5-2.1,8.6-2.1l99.5-11.3c1.7,0,4.1,0.3,6.9,1c2.7,0.7,5.1,1,7.2,0.7
					c7.5-1.4,12.4-3.8,14.4-7.9c1.4-3.4-1-10.6-6.9-21.3C1302,1512.1,1297.2,1505.9,1293.1,1504.2z"/>
			</g>
		</g>
		<g class="st8">
			<path class="st5" d="M1650.2,2042.2c83.7-75.8-24-164.7-102.9-169.2c-132.4-7.2-266.6-44.9-391.8-89.9
				c-104.3-37.4-234.3-82.7-270.4-192.1c-6.5-20.2-12-41.9-25-59c-21.6-28.8-74.4-36.4-75.8,11.7c-1,42.2,29.8,48.4,50.4,76.5
				c34,47-37.4,17.5-50.8,15.4c-16.1-2.4-34.3,1.7-44.6,14.4c-10.3,12.7-8.9,34.7,5.5,42.9c12,6.9,30.5,4.1,36.4,16.5
				c3.1,6.2,1.4,13.4,0,19.9c-36,174,202.8,291.6,336.9,326C1269.8,2094.7,1516.8,2163.3,1650.2,2042.2z"/>
			<path class="st5" d="M743.8,1495c-5.5-16.5-11-34-21.6-48c-10.6-14.8-25.7-27.4-44.3-30.9c-19.9-3.8-47,2.1-52.5,24.7
				c-5.5,23,16.1,37.7,33.3,47c3.8,2.1,7.5,3.8,11.3,5.5c11.7,8.2,25,14.8,38.8,18.5c0.3,0,1,0,1.4,0c2.1,1,4.5,2.1,6.5,2.7
				c4.1,2.7,8.9,3.8,14.1,2.1C740,1513.8,746.9,1504.2,743.8,1495z"/>
		</g>
	</g>
</g>
</svg>
