<?xml version="1.0" encoding="utf-8"?>
<!-- Generator: Adobe Illustrator 26.5.0, SVG Export Plug-In . SVG Version: 6.00 Build 0)  -->
<svg version="1.1" id="Layer_1" xmlns="http://www.w3.org/2000/svg" xmlns:xlink="http://www.w3.org/1999/xlink" x="0px" y="0px"
	 viewBox="0 0 2521 2911" style="enable-background:new 0 0 2521 2911;" xml:space="preserve">
<style type="text/css">
	.st0{fill:#141227;}
	.st1{opacity:0.94;enable-background:new    ;}
	.st2{fill:#FFFFFF;}
	.st3{fill:#DB1F26;}
	.st4{fill:#00A5DC;}
	.st5{fill:#36A85D;}
	.st6{fill:#B57AB4;}
	.st7{fill:#F7A238;}
	.st8{fill:#FFF34D;}
	.st9{opacity:0.4;}
	.st10{fill:#A65628;}
	.st11{fill:#164F86;}
	.st12{fill:#404040;}
</style>
<g>
	<g id="Layer_1_1_">
		<polygon class="st0" points="1267,22 2497.3,732.5 2497.3,2180.6 1267,2895.6 9.3,2180.6 9.3,732.5 		"/>
		<g class="st1">
			<path class="st2" d="M418.8,1832.4v60.4h51.8v29.2h-51.8v113.6c0,26.1,6.9,40.8,27.1,40.8c9.6,0,16.5-1.4,20.9-2.7l1.7,28.8
				c-6.9,3.1-18.2,5.1-31.9,5.1c-16.8,0-30.5-5.5-39.1-16.1c-10.3-11.3-14.1-30.2-14.1-54.9v-114.9h-30.9v-29.2h30.9V1842
				L418.8,1832.4z"/>
			<path class="st2" d="M543.6,1833.7c0.3,13-8.6,23.7-23,23.7c-12.7,0-21.6-10.3-21.6-23.7c0-13.4,9.6-24,22.6-24
				C535.1,1809.7,543.6,1820.4,543.6,1833.7z M503.2,2103.7v-210.6h36v210.6H503.2z"/>
			<path class="st2" d="M763.2,1794.6v254.6c0,18.9,0.3,40.1,1.7,54.5h-32.6l-1.7-36.7h-0.7c-11,23.7-35.3,41.5-67.9,41.5
				c-48,0-85.1-43.2-85.1-107c-0.3-70,40.8-113.2,89.2-113.2c30.5,0,50.8,15.1,60,32.2h0.7v-125.9H763.2z M727.1,1978.9
				c0-4.8-0.3-11.3-1.7-16.1c-5.5-24.4-25-44.3-52.1-44.3c-37.4,0-59.7,35-59.7,81.3c0,42.5,19.6,77.9,58.7,77.9
				c24.4,0,46.3-16.8,52.8-45.6c1.4-5.1,1.7-10.3,1.7-16.5v-36.7H727.1z"/>
			<path class="st2" d="M828.3,1893.1l43.6,124.5c4.5,14.1,9.6,30.5,12.7,43.2h0.7c3.8-12.7,7.9-28.8,12.7-43.9l39.4-123.5h38.1
				l-54.2,150.3c-25.7,72.4-43.6,109.1-68.3,131.7c-17.5,16.5-35.3,23-44.2,24.7l-8.9-32.2c8.9-3.1,20.9-9.3,31.6-18.9
				c9.9-8.2,22.3-23,30.5-42.5c1.7-3.8,2.7-6.9,2.7-9.3c0-2.1-0.7-5.1-2.4-9.9l-73.4-194.2L828.3,1893.1L828.3,1893.1z"/>
			<path class="st2" d="M1000.9,1950c0-21.6-0.3-39.5-1.7-57h31.6l1.7,34h1.4c11-19.9,29.5-38.8,62.4-38.8
				c27.1,0,47.7,17.5,56.3,42.2h0.7c6.2-11.7,14.1-20.9,22.3-27.4c12-9.6,25-14.8,43.9-14.8c26.4,0,65.2,18.2,65.2,91.3v124.2h-35.3
				v-119.4c0-40.5-14.1-64.8-43.2-64.8c-20.6,0-36.7,16.1-42.5,35c-1.7,5.1-2.7,12.4-2.7,19.2v130h-35.3v-126.3
				c0-33.6-14.1-58-41.5-58c-22.6,0-39.1,19.2-44.6,38.4c-2.1,5.5-2.7,12.4-2.7,18.9v126.9h-35.3V1950H1000.9z"/>
			<path class="st2" d="M1515.3,1996.7c0,77.9-50.8,111.8-98.8,111.8c-53.8,0-95.4-41.9-95.4-108.4c0-70.7,43.6-111.8,98.4-111.8
				C1476.6,1888.3,1515.3,1932.2,1515.3,1996.7z M1357.6,1998.8c0,46,25,81,60.4,81c34.6,0,60.4-34.3,60.4-82
				c0-35.7-16.8-81-59.7-81S1357.6,1958.6,1357.6,1998.8z"/>
			<path class="st2" d="M1724.6,1794.6v254.6c0,18.9,0.3,40.1,1.7,54.5h-32.6l-1.7-36.7h-0.7c-11,23.7-35.3,41.5-67.9,41.5
				c-48,0-85.1-43.2-85.1-107c-0.3-70,40.8-113.2,89.2-113.2c30.5,0,50.8,15.1,60,32.2h0.7v-125.9H1724.6z M1688.6,1978.9
				c0-4.8-0.3-11.3-1.7-16.1c-5.5-24.4-25-44.3-52.1-44.3c-37.4,0-59.7,35-59.7,81.3c0,42.5,19.6,77.9,58.7,77.9
				c24.4,0,46.3-16.8,52.8-45.6c1.4-5.1,1.7-10.3,1.7-16.5v-36.7H1688.6z"/>
			<path class="st2" d="M1796.9,2005.3c0.7,51.8,31.9,73.1,68.3,73.1c25.7,0,41.5-4.8,54.9-11l6.2,27.4c-12.7,6.2-34.6,13-66.2,13
				c-61.1,0-97.8-42.5-97.8-106.4c0-63.5,35.3-113.6,93.3-113.6c64.8,0,82,60.4,82,99.1c0,7.9-0.7,14.1-1.4,17.8h-139.3V2005.3z
				 M1902.9,1977.8c0.3-24.4-9.6-62.1-50.1-62.1c-36.7,0-52.5,35.7-55.6,62.1H1902.9z"/>
			<path class="st2" d="M1974.6,1794.6h36v309.1h-36V1794.6z"/>
			<path class="st2" d="M2059,2064.6c10.6,7.5,29.5,15.1,47.7,15.1c26.4,0,38.8-14.1,38.8-31.2c0-18.2-10.3-28.1-37-38.8
				c-35.7-13.4-52.5-34.3-52.5-59.7c0-34,25.7-61.8,68.6-61.8c20.2,0,37.7,6.2,48.7,13l-8.9,27.8c-7.9-5.1-22.3-12.4-40.8-12.4
				c-21.3,0-33.3,13-33.3,28.8c0,17.5,12,25.4,37.7,35.7c34.6,14.1,52.1,32.2,52.1,63.5c0,37.1-27.1,63.1-74.4,63.1
				c-21.6,0-41.8-5.5-55.9-14.4L2059,2064.6z"/>
		</g>
		<g id="surface31">
			<path class="st3" d="M2382.1,1567.9l-39.1-4.5l-39.1-5.1l-26.1-3.8l-26.1-4.5l-25.7-4.8l-13-2.7l-25.7-6.2l-13-3.1l-25.7-7.2
				l-12.7-3.8l-25.7-8.6l-25.7-9.6l-13-5.1l-13-5.5l-25.7-12l-6.5-3.4l-6.2-3.1l-12.7-6.9l-13-7.2l-13-7.5l-25.7-16.1l-13-8.2
				l-26.1-17.8l-6.9-5.1l-6.2-4.1l-7.9-6.2l-5.1-3.8l-8.6-6.9l-4.5-3.1l-8.9-7.2l-4.1-3.1l-8.9-7.2l-4.1-3.1l-8.6-7.2l-4.1-3.4
				l-8.2-6.9l-4.8-3.8l-7.5-6.5l-5.5-4.5l-6.5-5.8l-6.5-5.5l-26.1-23l-25.7-23.3l-52.5-49.4l-23.7-23L1466,991.8l-41.2-40.8
				l-15.8-15.1l-26.4-23.7l-13-11.3l-13.4-10.6l-13.4-10.3l-13.4-9.6l-13-8.6l-13.4-7.9l-13.4-6.9l-13.4-6.2l-13.7-5.1l-13.7-4.1
				l-13.7-3.1l-13.7-2.1l-13.7-1H1194l-13.7,1l-13.7,2.1l-13.7,2.7l-13.7,3.8l-12.7,4.5L1113,845l-13.7,6.2l-10.6,5.5l-15.8,8.2
				l-13.4,7.5l-8.2,4.8l-16.5,10.3l-14.7,9.9l-26.4,18.2L798.1,1058l-77.9,53.2l-38.8,24.7l-26.1,15.8l-38.8,22.6l-25.4,13.7
				l-26.8,13.7l-26.1,12.7l-25.7,11.7l-25.7,10.6l-26.1,9.6l-25.7,8.6l-25.7,7.5l-13,3.4l-13,3.1l-25.7,5.8l-13,2.4l-25.7,4.5
				l-25.7,3.8l-13,1.4l-13,1.4l-25.7,2.1l-26.1,1.7l-26.1,1l-26.1,0.7l-38.4,0.3H98.8l-26.8-0.3c-0.3,5.8-0.7,11.7-1,17.2h1.4
				l52.5,0.3h13l39.1-0.7l26.4-1l26.4-1.4l26.4-2.1l26.4-2.4l13-1.7l26.4-3.8l26.4-4.5l13.4-2.7l13-2.7l26.4-6.2l13.4-3.4l26.4-7.9
				l26.4-8.9l26.4-9.9l26.4-11l26.4-11.7l12-5.5l27.4-13.7l26.4-14.1l25.4-14.1l27.1-15.8l25-15.4l40.5-25.7l39.1-26.1l52.5-36.4
				l117.6-85.8l60.4-43.9l29.8-20.6l13.7-9.3l13-8.2l13-7.9l9.3-5.5l16.1-8.9l12.7-6.5l11-5.1l14.4-5.8l12-4.1l13.4-3.8l12.3-2.7
				l12.3-1.7l12.3-0.7h12.3l12.3,1l12.3,2.1l12.3,3.1l10.3,3.1l14.7,5.5l12.7,5.8l12.7,6.5l12.7,7.5l12.7,8.2l8.9,6.5l13.7,10.3
				l12.7,10.3l12.3,10.3l16.5,14.4l26.1,24l24,23.3l184.2,186.6l52.5,51.8l52.5,50.1l24.7,23l23.3,20.9l4.1,3.8l7.5,6.5l5.5,5.1
				l26.1,22.3l26.4,21.6l26.4,20.6l26.4,19.9l6.2,4.5l6.9,5.1l7.9,5.5l5.1,3.8l25.7,17.2l13.7,8.9l13,7.9l7.5,4.1l5.8,3.4l12.7,6.9
				l13.7,7.5l6.5,3.1l6.9,3.4l13.4,6.5l13,6.2l26.4,11l26.4,9.9l26.4,8.6l13,3.8l26.4,7.2l13,3.1l26.4,5.8l13,2.7l25.7,4.8l26.8,4.5
				l26.1,3.8l39.4,5.1l39.1,4.5l65.2,6.5l1.7-17.2L2382.1,1567.9z"/>
			<path class="st4" d="M2446.2,1474.9l-39.1,1l-39.1,0.3l-26.1-0.3l-26.1-0.7l-25.7-1.4l-13-0.7l-13-1l-13-1.4l-13-1.4l-25.7-3.8
				l-13-2.1l-12.7-2.4l-25.7-5.8l-12.7-3.4l-12.7-3.8l-13-4.1l-12.7-4.5l-8.2-3.1l-4.8-1.7l-12.7-5.1l-8.2-3.4l-4.8-1.7l-25.7-11.7
				l-12.7-6.5l-13-6.5l-7.5-4.1l-5.5-3.1l-13-7.2l-25.7-15.4l-8.2-5.5l-4.5-2.7l-25.7-16.8l-25.7-17.8l-5.1-3.8l-7.9-5.5l-6.5-4.8
				l-6.5-4.5l-7.5-5.8l-5.1-3.8l-8.6-6.5l-4.5-3.1l-9.3-7.2l-3.8-2.7l-23-17.8l-3.1-2.4l-35.7-28.8l-3.4-2.7l-34.3-28.5l-4.8-3.8
				l-7.5-6.5l-5.5-4.5l-6.9-5.8l-6.2-5.1l-232.2-202.1l-37-31.2l-25.4-20.6l-26.8-20.9l-14.1-10.6l-14.7-10.3l-15.1-10.3l-14.1-8.9
				l-13.4-7.9l-13-6.9l-13.4-6.5l-13.4-5.5l-13.4-4.8l-13.7-3.8l-13.7-3.1l-13.7-2.1l-14.1-1l-13.4,0.3l-13.7,1.4l-13.7,2.4l-13,3.1
				l-14.4,4.5l-13.7,5.5l-13,6.2l-10.3,5.5l-16.8,9.6l-13.4,8.2l-13.4,8.9l-13.4,9.3l-22,16.5l-26.1,20.9L901.4,998l-52.1,42.2
				l-39.1,30.2l-26.1,19.2l-7.5,5.5l-5.1,3.8l-8.9,6.5l-3.8,2.7l-26.1,17.5l-26.1,16.5l-24.7,14.8l-14.1,7.9l-13,7.2l-25.7,13.4
				l-13,6.2l-13,5.8l-13,5.8l-25.7,10.6l-25.7,9.6l-25.7,8.6l-13,3.8l-26.1,7.2l-13,3.4l-26.1,6.2l-13,2.7l-13,2.7l-26.1,5.1
				l-26.1,4.5l-26.1,4.1l-39.1,5.5l-65.2,7.9l-91.2,9.6l-65.5,6.2c-0.3,5.8-0.7,11.7-1,17.5l94.3-9.3l65.2-6.9l65.5-7.9l26.1-3.8
				l39.4-6.2l26.4-4.5l13-2.4l26.4-5.5l13-2.7l13.4-3.1l26.1-6.5l26.4-7.5l13.4-4.1l26.4-8.9l26.4-9.9l13.4-5.5l13-5.5l12.3-5.5
				l14.1-6.5l26.4-13l13-6.9l26.4-14.8l26.1-15.8l25.7-16.5l14.1-9.3l26.1-18.2l39.1-28.8l22-16.8l4.5-3.4l35-27.8l75.5-62.4
				l59-48.4l26.1-20.2l18.9-14.1l14.7-10.3l16.1-10.3l14.1-8.2l12.7-6.5l11.3-5.1l14.1-5.5l12.7-4.1l12.3-3.1l12.3-2.1l12.3-1
				l12.3-0.3l12.3,0.7l12.3,1.7l12.3,2.7l12.3,3.4l12.7,4.5l12.7,5.1l12.7,6.2l12.7,6.9l9.3,5.5l16.5,9.9l13,8.6l13,8.9l13,9.6
				l13,9.9l26.1,20.6l39.1,32.6l169.4,147.9l104.6,89.5l52.5,42.9l39.1,31.2l39.4,29.8l5.5,3.8l7.9,5.8l6.5,4.5l6.5,5.1l7.9,5.5
				l5.1,3.8l9.6,6.5l3.4,2.4l26.4,17.5l26.4,16.8l8.6,5.1l4.5,3.1l13,7.5l26.4,14.8l12.3,6.2l14.1,7.2l7.5,3.4l5.5,2.7l13.4,5.8
				l13,5.5l13.4,5.1l13,4.8l13.4,4.5l26.4,7.9l13.4,3.4l26.4,6.2l13.4,2.7l13.4,2.4l26.4,3.8l13,1.7l13,1.4l13,1l13,1l26.4,1.4
				l26.4,0.7l26.1,0.3l39.4-0.3l39.1-1L2446.2,1474.9z"/>
			<path class="st5" d="M2394.8,1332.5l-117.3-8.9l-91.2-7.9l-39.1-4.1l-39.1-4.5l-26.1-3.4l-26.1-3.8l-25.7-4.5l-13-2.4l-25.7-5.1
				l-13-3.1l-25.7-6.5l-13-3.4l-25.7-7.9l-12.3-4.5l-13-4.8l-25.7-9.9l-25.7-11l-25.7-12l-25.7-13.4l-13-7.2l-25.7-15.1l-13-7.9
				l-26.1-16.5l-25.7-17.2l-26.1-18.5l-39.1-28.8l-39.1-30.5l-117.3-96.1l-39.1-31.6l-26.1-20.2l-13.4-9.6l-20.2-14.1l-16.1-10.6
				l-16.8-9.9l-13.4-7.2l-13-6.5l-13.4-6.2l-13.4-5.1l-13.4-4.5l-13.4-3.4l-13.7-2.7l-13.7-1.7l-14.1-0.7l-13.4,0.3l-13.7,1
				l-13.7,2.1l-12.3,2.7l-14.7,4.1l-13,4.5l-13.7,5.5l-13.4,6.2l-13.7,7.2l-13.4,7.5l-11.7,7.2l-14.7,9.6l-13.4,8.9l-13,9.3l-13,9.6
				l-26.1,20.2l-44.9,36.4l-122.4,104l-224,195.6l-37.4,32.6l-48,41.5l-5.5,4.8l-6.5,5.5l-6.5,5.5l-52.1,43.2l-39.1,31.2l-26.1,20.2
				l-39.1,29.2l-6.9,4.8l-6.2,4.5l-8.2,5.8l-4.5,3.4l-38.8,26.4l-26.1,16.5l-25.4,15.4l-26.4,15.4l-9.6,5.1l-29.2,15.8l-9.6,4.8
				l-29.2,14.4l-25.7,12l-15.4,6.9c0,6.2,0,12.4,0,18.5l22.3-9.9l26.4-12l39.4-19.6l10.6-5.5l28.8-15.8l8.9-5.1l30.5-17.8l26.1-16.5
				l26.4-17.5l26.1-17.8l26.1-18.9l7.2-5.5l5.8-4.1l8.2-6.2l4.8-3.4l8.9-6.9l4.1-3.1l22.6-17.8l3.4-2.7l35.7-28.5l3.8-3.1l34-28.1
				l5.1-4.1l7.2-6.2l5.8-4.8l78.2-67.2l178.7-156.4l144.1-124.2l49.4-41.5l38.4-30.9l32.2-25l22.6-16.5l14.7-10.3l14.1-9.3l12.7-7.9
				l12.7-7.2l12-6.5l13.7-6.5l12.7-5.1l12.7-4.5l12.7-3.8l12.3-2.7l12.3-2.1l12.3-1h12.3l12.3,0.7l12.3,1.7l12.3,2.4l12.3,3.4
				l12.7,4.1l12.7,4.8l12.7,5.8l12.7,6.5l12,6.9l13.7,8.2l13,8.2l5.8,4.1l19.9,13.7l22.6,17.2l26.4,20.6l133.1,108.8l52.5,41.2
				l7.5,5.5l5.5,4.1l8.6,6.2l4.8,3.4l24,17.2l28.5,19.9l26.1,17.2l24.4,15.1l28.1,16.5l26.4,14.1l13,6.5l9.9,4.8l29.5,13.4
				l26.4,10.6l26.4,9.6l13,4.5l26.4,8.2l13,3.8l26.4,6.5l13,3.1l13,2.7l26.4,5.1l26.4,4.5l39.4,5.8l26.1,3.4l52.1,5.8l52.1,4.8
				l221.9,16.8l1.4-17.2L2394.8,1332.5z"/>
			<polygon class="st6" points="115.6,2195 100.2,2187.5 269.2,1834.8 331.7,1710.2 359.1,1658.4 398.9,1585.4 422.9,1543.8 
				448.3,1502.3 474.7,1460.5 488.8,1439.9 517.9,1398 540.6,1366.8 564.9,1335.6 581.7,1314.7 608.1,1283.4 645.2,1241.6 
				684.6,1200.1 726.1,1158.6 792,1096.1 907.6,992.2 956.3,950.7 981,929.7 1007,908.8 1020.1,898.5 1033.8,888.2 1048.2,877.6 
				1063.6,867 1072.2,861.5 1085.6,853.2 1099,845.3 1112.3,838.5 1126,832.3 1139.4,826.8 1153.1,822.4 1166.9,818.9 1180.2,816.5 
				1194,815.1 1207.3,814.5 1221.4,815.1 1235.1,816.9 1248.8,819.6 1262.2,823 1275.9,827.8 1289.3,833.3 1302.7,839.9 
				1316.1,846.7 1332.2,856.7 1342.5,863.2 1355.9,872.8 1369.2,882.7 1382.3,893 1401.1,909.2 1413.1,919.8 1424.8,930.1 
				1435.8,940.4 1468,971.6 1529.4,1034 1591.8,1097.8 1644,1149.6 1685.5,1189.1 1696.8,1199.4 1721.8,1222 1747.9,1244.7 
				1773.6,1266 1799.7,1286.2 1825.4,1305.4 1838.4,1314.3 1851.5,1323.2 1867.3,1333.5 1877.2,1339.7 1890.2,1347.6 1903.3,1355.2 
				1929,1369.2 1941.7,1375.7 1954.7,1381.9 1980.4,1393.2 2010.6,1405.2 2019.2,1408.7 2044.9,1417.6 2057.6,1421.7 2083.7,1429.3 
				2096.7,1432.7 2122.4,1439.2 2135.5,1442.3 2174.2,1450.9 2213.3,1458.4 2239.4,1462.9 2304.2,1473.5 2408.5,1488.9 
				2447.6,1494.4 2445.2,1511.6 2314.9,1492.7 2249.3,1482.1 2223.3,1477.6 2184.2,1470.1 2144.7,1461.8 2131.7,1459.1 
				2105.3,1452.6 2092.3,1449.2 2079.2,1445.7 2052.8,1437.8 2026.4,1429.3 2013,1424.8 2000,1420 1987,1414.5 1973.6,1409.4 
				1960.5,1403.5 1932.1,1389.8 1920.8,1384.3 1907.7,1377.5 1892.6,1368.9 1881.3,1362.4 1868.3,1354.5 1855.3,1346.2 
				1841.5,1337.3 1826.4,1327 1802.4,1309.9 1797.6,1306.1 1789.1,1299.9 1783.9,1295.8 1776,1289.6 1770.5,1285.2 1763,1279.3 
				1757.5,1274.9 1750,1268.7 1744.8,1264.2 1736.6,1257.7 1732.5,1253.9 1708.4,1233 1696.4,1222.7 1684.4,1211.4 1640.9,1170.6 
				1618.9,1149 1566.5,1096.8 1456,983.9 1434.7,963.4 1410.4,940 1397.4,928.4 1378.1,911.9 1365.5,901.6 1358.6,896.1 
				1345.9,886.5 1332.9,877.6 1320.2,869.4 1306.1,861.1 1294.8,854.9 1282.1,848.8 1269.8,843.6 1257.1,839.5 1244.7,836.1 
				1232,833.7 1219.7,832.3 1207.3,831.6 1195,832.3 1182.6,833.3 1169.9,835.7 1157.6,839.2 1144.9,843.3 1132.6,848.1 
				1119.9,853.9 1106.2,860.8 1094.1,868 1081.5,875.9 1068.8,884.4 1055.7,893.4 1043,902.6 1030,912.6 1017,922.9 990.9,943.8 
				952.1,976.4 895.2,1025.8 814.6,1098.2 748.8,1160.3 697,1212.1 657.9,1253.3 621.2,1294.8 595.1,1325.6 570.4,1356.5 
				546.7,1387.4 531.6,1408 517.2,1428.9 502.8,1449.5 475.7,1490.7 450.4,1531.8 425.7,1573.3 396.5,1624.8 347.1,1718.1 
				294.6,1821.7 189.3,2039.2 			"/>
			<path class="st7" d="M2368.7,1420.3l-39.1-1.4l-52.1-2.4l-39.1-2.4l-26.1-2.1l-26.1-2.4l-25.7-3.1l-26.1-3.4l-13-2.1l-13-2.1
				l-13-2.4l-25.7-5.5l-13-3.1l-25.7-7.2l-12.7-3.8l-25.7-8.6l-25.7-9.9l-9.9-4.5l-28.5-13l-12.7-6.5l-13-6.5l-8.6-4.8l-4.5-2.4
				l-12.7-7.2l-26.1-15.4l-24.7-15.8l-27.1-18.5l-25.7-18.5l-26.1-19.6l-6.5-5.1l-6.5-4.8l-6.9-5.5l-6.2-4.8l-39.1-31.9l-39.1-33.3
				l-38.4-33.6l-114.9-103.6l-29.5-26.4l-39.4-34l-13-10.6l-13.4-10.6l-13.4-9.9l-13.4-9.6l-13.4-8.9l-13.4-8.6l-11.3-6.9l-15.1-7.9
				l-13.4-6.2l-13.4-5.1l-13.7-4.5l-13.7-3.4l-13.7-2.4l-13.7-1.4l-14.1-0.3l-13.4,0.3l-13.7,1.4l-13.7,2.4l-13.7,3.4l-9.9,3.1
				l-17.1,6.2l-11,4.8l-16.1,7.2l-13.4,6.9l-12.3,6.9l-14.1,8.2l-13.4,8.2l-23.3,15.1l-29.5,20.2l-129.7,94l-65.5,46.3l-38.8,26.1
				l-39.1,25.4l-26.1,15.8l-25.7,15.1l-38.1,20.9l-38.8,19.6l-25.7,12l-25.7,11l-26.1,9.9l-25.7,8.9l-25.7,8.2l-13,3.8l-25.7,6.9
				l-13,3.1l-13,2.7l-26.1,5.1l-26.1,4.5l-38.8,5.8l-26.1,3.1l-26.1,2.7l-39.1,3.4l-50.1,3.1l-91.2,5.1l-13.7,0.7l-1,17.2l67.9-3.4
				l65.5-4.1l39.1-3.1l39.4-3.8l26.1-3.1l26.4-3.4l26.4-4.1l26.4-4.8l13-2.7l26.1-5.8l13-3.1l26.4-6.9l13.4-3.8l26.4-8.2l26.4-9.3
				l26.4-10.3l26.4-11l26.4-12l39.4-19.9l10.6-5.5l28.8-16.1l26.1-15.4l26.4-16.1l39.4-25.4l39.4-26.4l194.5-140l26.8-18.5l13-8.6
				l22-14.1l16.5-9.9l12.7-7.2l12.7-6.5l12.7-5.8l12.7-5.5l12.7-4.8l12.7-3.8l12.3-3.1l12.3-2.1l12.3-1.4l12.3-0.3l12.3,0.3
				l12.3,1.4l12.3,2.4l12.3,3.1l12.3,4.1l12.7,5.1l12.7,5.8l12.7,6.9l12.7,7.2l12.7,8.2l8.2,5.5l14.4,10.3l13.7,10.3l13,10.3
				l12.7,10.3l24.4,20.6l160.9,144.1l24.4,21.3l24,20.9l3.8,3.4l65.5,54.2l39.4,30.5l7.5,5.5l5.5,4.1l8.6,6.2l4.5,3.4l9.9,7.2
				l29.5,20.2l26.4,16.8l7.9,4.8l5.1,3.4l12,6.9l27.4,15.4l26.4,13.4l13,6.2l13.4,5.8l13,5.5l13.4,5.1l13,5.1l13.4,4.8l13,4.5
				l13.4,4.1l13.4,3.8l13,3.4l13.4,3.1l13,3.1l26.4,5.1l13,2.4l13,2.1l12.3,1.7l26.8,3.4l26.4,2.7l26.4,2.1l26.1,1.7l52.1,3.1
				l65.2,2.4l78.2,2.1l0.3-17.2L2368.7,1420.3z"/>
			<path class="st8" d="M2446.2,1364.4l-39.1,1.4l-65.2,1.7l-39.1,0.3l-38.8-0.3l-26.1-0.7l-25.7-1.4l-25.7-1.7l-25.7-2.4l-13-1.7
				l-13-1.7l-13-2.1l-13-2.1l-13-2.4l-13-2.7l-13-3.1l-25.7-6.9l-12.7-3.8l-25.7-8.6l-25.7-9.6l-25.7-11l-8.6-4.1l-4.1-1.7
				l-25.7-12.7l-11.3-6.2l-27.4-15.1l-26.1-15.4l-25.7-16.5l-6.9-4.5l-5.8-3.8l-39.1-26.8l-26.1-18.9l-39.1-29.5l-39.1-30.9
				l-52.1-42.2l-89.2-75.1l-50.1-41.5l-26.1-20.9l-27.1-20.9l-14.4-10.3l-15.1-10.6l-13.4-8.9l-13.4-8.2l-13.4-7.9l-12-6.5
				l-14.7-7.5l-13-5.8l-13.4-5.1l-13.4-4.5l-13.4-3.8l-13.7-2.7l-13.7-2.1l-13.7-1H1220l-13.7,1l-13.7,1.7l-13.7,2.7l-13.7,3.8
				l-13.7,4.5l-13.4,5.5l-13.4,6.2l-13,6.9l-14.1,8.2l-12.3,8.2l-13.4,9.3l-7.9,5.8l-13.7,10.6l-17.8,14.1l-20.2,17.2L993,956.5
				l-26.1,24l-22.6,21.6l-53.2,51.8l-143.4,145.1L249,1718.8l-19.9,20.6l-6.2,6.5l-65.2,66.2l-90.9,89.5c0,7.9-0.3,15.8-0.3,24
				l51.1-49.1l91.6-91.6l22-23l4.1-4.1l6.2-6.5l19.9-20.2l20.2-21.3l5.8-6.2l4.1-4.5l8.9-8.9l308.7-322.8l17.5-17.8l32.6-34
				l223.3-228.1l52.1-51.8l43.2-41.5l22.3-20.6l17.1-15.4l25.7-22l13-10.3l13-9.9l12.7-9.3l12.7-8.9l9.3-5.8l16.5-9.9l12.7-6.9
				l12.7-5.8l12.7-5.1l12.3-4.1l12.7-3.4l12.3-2.7l12.3-1.7l12.3-0.7h12.3l12.3,1l12.3,1.7l12.3,2.4l12.7,3.4l12.7,4.1l12.7,4.8
				l12.3,5.5l12.7,6.5l12.7,6.9l6.5,3.8l16.5,10.3l15.4,10.3l12.7,8.9l13,9.3l13,9.6l26.1,20.2l153.3,127.6l50.8,41.5l4.5,3.8
				l35,27.4l4.5,3.4l36.7,27.8l28.8,20.9l26.4,18.5l26.1,17.5l25.7,16.5l26.8,15.8l26.4,14.8l13,6.9l8.9,4.5l4.5,2.4l26.4,12.4
				l13,5.5l13.4,5.5l13,5.1l13.4,4.8l13,4.5l13,4.1l13.4,3.8l13,3.4l13,3.4l13.4,3.1l13,2.7l26.4,4.8l13,2.1l13,1.7l13,1.7l13,1.4
				l11.3,1l28.1,2.1l26.4,1.4l26.1,0.7l39.4,0.3h26.1l52.1-1l65.2-2.4L2446.2,1364.4z"/>
			<g class="st9">
				<path class="st10" d="M2356,1356.9l-91.2-6.9l-52.1-4.8l-52.1-5.5l-25.7-3.1l-26.1-3.4l-26.1-4.1l-25.7-4.5l-12.7-2.4h-0.7
					l-12.7-2.7l-13-2.7l-13-3.1l-25.7-6.9l-25.7-7.5l-12.7-4.1l-25.7-9.3l-12.3-4.8h-0.3l-13-5.1l-25.7-11.3l-7.5-3.8l-5.1-2.4
					l-25.7-13L1799,1231l-26.1-15.4l-10.3-6.5l-28.5-18.2l-26.1-17.8l-7.2-5.1l-5.8-3.8l-36.7-27.1l-27.1-20.9l-39.1-30.9
					l-137.9-113.9l-45.6-36.7l-26.4-20.2l-22-16.1l-15.4-10.3l-15.4-9.9l-13.4-7.9l-13-7.2l-0.3-0.3l-13-6.5h-0.3l-13-5.5l-0.3-0.3
					l-13-4.8h-0.3l-13-3.8h-0.7l-13-2.7h-0.7l-13-1.7h-0.7l-13-0.7h-0.7l-13,0.3h-0.7l-13,1.4h-0.7l-13,2.4h-0.7l-13,3.4l-0.7,0.3
					l-13,4.1h-0.3l-13,5.1h-0.3l-13,6.2h-0.3l-13.4,6.9l-13.4,7.5l-13.4,8.2l-8.2,5.5l-15.4,10.6l-14.4,10.3l-14.1,10.3l-13.7,10.3
					l-0.7,0.3l-12.3,9.9l-0.3,0.3l-12.7,9.9l-0.3,0.3l-208.2,172.9l-39.1,30.9l-39.1,29.5l-6.2,4.8l-6.5,5.1l-7.5,5.5l-5.5,4.1
					l-9.3,6.5l-3.8,2.7l-25.7,17.2l-0.3,0.3l-25.7,16.5l-7.2,4.1l-5.8,3.8l-11.3,6.5l-27.4,15.4l-9.9,5.1l-3.1,1.7l-25.7,12.4
					l-13,5.8l-13,5.5l-13,5.1l-13,4.8l-12.7,4.5l-13,4.1l-12.7,3.8l-13,3.4h-0.3l-12.3,3.1l-13,3.1l-12.7,2.7l-25.7,4.5l-13,2.1
					l-13,1.7l-13,1.4l-13,1.4l-26.1,2.1l-26.1,1.7l-26.1,1l-39.1,1l-37.7,0.3l-39.1-0.3l-29.8-0.7c-0.3,5.8-0.3,11.7-0.7,17.2h4.1
					l65.5,0.7H164l39.4-0.7l26.4-1l26.4-1.4l26.4-2.1l26.4-2.4l13-1.7l13-1.7l13-2.1l26.4-4.8l13-2.7l13.4-3.1l13-3.4l0.7-0.3
					l12.7-3.4l13.4-4.1l26.4-8.9l12.3-4.5l0.7-0.3h0.3l13.4-5.1l11.7-4.8l1.4-0.3h0.3l13.4-5.8l8.2-4.1l4.8-2.1l26.4-13.4l26.1-14.4
					l0.3-0.3l13-7.5l6.2-3.8l7.2-4.1l25.7-16.5l0.7-0.3l26.4-17.8l26.1-18.5l6.5-5.1l6.5-4.5l7.5-5.8l5.5-4.1l8.2-6.5l4.8-3.4
					l8.9-6.9l4.1-3.4l35.3-27.8l173.6-144.4l39.1-32.2l0.3-0.3l12.3-9.9l0.3-0.3l12.7-9.9l0.3-0.3l12.3-9.6l13-9.6l13-9.6l13-8.9
					l12.7-8.6l12.7-7.9l12.3-7.2l13-6.9l12.7-5.8l12.7-5.1l12.7-4.1l12.3-3.1l12.3-2.1l12.3-1.4l12.3-0.3l12.3,0.7l12.3,1.7
					l12.3,2.7l11.7,3.4l13.4,4.8l12,5.1l13.4,6.5l12.7,6.9l11.7,6.9l14.1,8.9l13,8.6l13,9.3l25.7,19.2l26.1,20.6l104.3,86.1
					l65.5,53.5l26.1,20.9l26.1,20.2l26.1,19.9l26.1,19.2l26.1,18.2l25.4,16.8l0.3,0.3l0.3,0.3l13,8.6l26.4,16.1l11,6.5l28.5,15.8
					l10.3,5.1l29.2,14.4l26.4,11.7l13,5.1l0.3,0.3l13,5.1l26.4,9.3l13.4,4.1l26.4,7.9l13,3.4l26.4,6.5l13,2.7l13,2.7h0.7l12.7,2.4
					l13,2.4l26.4,4.1l26.1,3.8l26.4,3.4l52.5,5.8l52.1,4.8l104.6,7.9l91.2,6.2l1-17.2L2356,1356.9z"/>
			</g>
			<path class="st6" d="M2433.9,1530.5l-78.2-5.8l-39.1-3.4l-39.1-4.1l-25.7-3.1l-25.7-3.8l-26.1-4.1l-13-2.4l-13-2.7l-25.7-5.8
				l-13-3.1l-25.7-7.2l-12.7-3.8l-25.7-8.6l-13-4.8l-12.7-5.1l-12.7-5.5l-13-5.8l-9.6-4.5l-3.4-1.7l-25.7-13l-11-6.2l-27.4-15.8
				l-7.5-4.8l-5.1-3.1l-25.7-16.5l-13-8.6l-26.1-18.2l-6.2-4.8l-6.9-4.8l-7.2-5.5l-5.8-4.1l-7.5-6.2l-5.1-3.8l-7.9-6.5l-5.1-3.8
				l-7.9-6.5l-4.8-3.8l-7.9-6.5l-5.1-4.1l-7.2-6.2l-5.8-4.5l-6.5-5.8l-6.5-5.1l-39.1-33.6l-26.1-23.3l-65.2-59.7l-112.5-106
				l-67.2-62.4l-23.3-20.9l-31.9-27.4l-26.4-20.9l-13.4-9.9l-13.4-9.6l-8.2-5.5l-16.1-10.6l-15.4-8.9l-13.4-7.2l-10.6-5.1l-16.1-6.9
				l-11.3-3.8l-15.8-4.5l-13.7-2.7l-13.7-1.7l-14.1-1l-13.4,0.3l-13.7,1l-13.7,2.1l-13.7,3.1l-12,3.4l-14.7,5.1l-13.7,5.5l-13.4,6.2
				l-9.3,4.8l-17.1,8.9l-13.4,7.5l-7.2,4.5l-16.8,10.3l-15.4,10.3L981,936.3l-104.6,75.5l-65.2,46.7l-38.4,26.1l-39.4,25.7l-25,15.4
				l-26.8,15.8l-25.7,14.4l-25.7,13.7l-25.7,12.4l-12,5.5l-13.7,6.2l-25.7,10.3l-25.7,9.3l-12.7,4.1l-13,4.1l-13,3.8l-25.7,6.9
				l-13,3.1l-25.7,5.5l-13,2.4l-13,2.1l-13,1.7l-13,1.7l-26.1,3.1l-26.1,2.4l-26.1,1.7l-26.1,1l-26.1,0.7l-39.1,0.3h-39.1l-65.2-1
				l-24.4-0.7c-0.3,5.8-0.7,11.3-1.4,17.2l77.5,1.7l52.1,0.3l39.4-0.3l26.1-0.7l26.4-1l26.4-1.7l26.4-2.4l13-1.4l26.4-3.4l13-2.1
				l13-2.1l13-2.4l26.4-5.5l13.4-3.1l26.4-6.9l13.4-3.8l26.4-8.6l13.4-4.8l13-4.8l13.4-5.1l13-5.5l13.4-5.8l13-5.8l10.3-4.8
				l29.2-14.4l12-6.5l27.4-15.4l26.4-15.4l26.1-16.1l8.2-5.1l5.1-3.1l39.4-26.1l39.1-27.1l91.2-66.2l60.7-43.6l30.5-20.9l13-8.6
				l13-8.2l23.3-13.7l15.1-8.2l12.7-6.5l12.3-5.5l13-5.1l12.7-4.5l12.7-3.4l12.3-2.7l12.3-2.1l12.3-1l12.3-0.3l12.3,0.7l12.3,1.7
				l12.3,2.7l12.3,3.4l12.7,4.5l12.7,5.1l12.7,5.8l9.9,5.5l15.1,8.6l13,8.2l12.7,8.6l13,9.3l13,9.6l20.9,16.8l24.4,20.6l32.2,28.5
				l36.7,33.6l119.7,112.9l78.5,72.7l24.7,22.3l23.7,20.9l3.8,3.4l8.2,6.9l4.8,4.5l7.2,5.8l5.8,5.1l6.5,5.1l6.9,5.8l5.8,4.5l7.5,6.2
				l5.1,4.1l7.9,6.5l5.1,3.8l8.2,6.5l26.1,20.2l5.8,4.5l7.2,5.5l6.9,4.8l6.2,4.8l7.9,5.5l5.1,3.8l9.6,6.9l3.4,2.4l26.1,17.5
				l26.4,16.5l26.1,15.1l13.4,7.2l8.6,4.5l4.5,2.4l26.4,12.7l13,5.8l13.4,5.5l13,5.1l13.4,5.1l13.4,4.5l13,4.1l13.4,4.1l26.4,7.2
				l13,3.1l26.4,5.8l13,2.7l13,2.4l13,2.1l26.1,4.1l26.4,3.4l26.1,3.1l39.4,4.1l39.1,3.4l78.2,5.5l1-17.2L2433.9,1530.5z"/>
			<path class="st11" d="M2381.4,1225.1l-169.4-3.8l-65.2-2.4l-52.1-2.7l-38.8-2.4l-26.1-2.1l-25.7-2.7l-26.1-3.1l-25.7-3.8l-13-2.1
				l-25.7-4.8l-13-2.7l-13-2.7l-25.7-6.5l-13-3.4l-25.7-7.9l-12.7-4.5l-13-4.5l-13-4.8l-13-5.1l-12.7-5.5l-13-5.8l-13-6.2l-12.7-6.2
				L1694,1116l-13-7.2l-7.5-4.5l-5.5-3.1l-12.3-7.2l-26.4-16.1l-23-14.8l-28.8-19.2l-26.1-17.8l-117.3-84.7l-26.1-18.5l-22.6-15.1
				l-16.5-10.3l-13.7-8.2l-13.4-7.5l-9.3-5.1l-17.1-8.9l-13-6.2L1289,856l-13.4-4.8l-13.4-4.1l-11.3-2.7l-15.8-3.1l-13.7-1.7
				l-13.7-0.7h-13.4l-13.7,1l-13.7,2.1l-11.7,2.4l-15.4,4.1l-13.4,4.5L1113,858l-13.4,5.8l-13.7,6.9l-9.9,5.5l-16.5,9.6l-13.4,8.2
				l-13.4,8.6l-22.3,15.4L982.7,939l-26.8,20.9L841,1053.2l-121.4,97.1l-36.4,27.1l-41.5,30.2l-39.1,26.8l-7.9,5.1l-5.1,3.4
				l-25.7,16.5l-26.1,15.4l-10.3,5.8l-28.5,15.4l-38.8,19.2l-25.7,11.7l-12,5.1l-13.7,5.5l-13,4.8l-13,4.5l-25.7,8.6l-12.7,3.8
				l-25.7,6.9l-13,3.1l-13,2.7l-26.1,5.1l-13,2.4l-13,2.1l-26.1,3.8l-26.1,3.4l-26.1,2.7l-39.1,3.4l-26.1,1.7l-30.5,1.7
				c0,5.8-0.3,11.7-0.3,17.2l5.8-0.3l39.1-2.4l26.1-2.1l39.4-3.8l26.4-3.1l26.4-3.4l26.4-4.1l13-2.4l13-2.7l26.4-5.8l13-3.1
				l26.4-7.2l13-3.8l26.4-8.6l13-4.8l13.4-5.1l13.4-5.1l13-5.5l26.4-11.7l8.2-4.1l4.8-2.1l26.4-13.4l9.9-5.5l29.5-16.5l7.2-4.5
				l5.8-3.4l26.4-16.1l26.1-16.8l7.9-5.1l5.5-3.4l39.4-27.4l26.1-18.9l39.1-29.5l65.5-51.5l117.3-96.1l52.1-41.9l26.1-20.2
				l25.7-19.2l13-9.3l20.9-14.1l16.1-10.3l14.4-8.6l12.7-6.9l9.9-4.8l15.8-7.2l12.7-4.8l12.7-4.1l12.7-3.4l12.3-2.7l12.3-1.7l12.3-1
				h12.3l12.3,0.7l12.3,1.4l12.3,2.4l12.7,3.1l12.7,3.8l10.3,3.8l15.1,6.2l8.9,4.1l16.5,8.2l12.7,6.9l9.3,5.1l17.1,10.3l12.3,7.9
				l13,8.6l20.9,14.4l122.4,88.2l37.4,26.1l28.1,18.9l26.1,16.8l26.4,16.1l26.1,15.1l11,5.8l28.5,14.8l13,6.2l13.4,6.2l26.4,11.3
				l26.4,10.3l26.4,9.3l13.4,4.1l13,3.8l13,3.8l26.4,6.5l13,3.1l13,2.7l26.4,4.8l13,2.1l26.4,3.8l26.1,3.1l26.4,2.7l26.1,2.1
				l26.4,1.7l39.1,2.1l65.2,2.7l91.6,2.7l169.4,3.1l0.3-17.2L2381.4,1225.1z"/>
		</g>
		<path class="st12" d="M2419.8,669.7L1467,119.4L1260.2,0l-206.8,119.4L100.5,669.7L0,727.7v1455.7l100.5,58l964.8,557.2
			l195.2,112.5l195.2-112.5l964.8-557.2l100.5-58V727.7L2419.8,669.7z M2419.8,2128.8l-1159.7,669.7L100.5,2128.8V789.4l1159.7-670
			l0,0l1159.7,669.7V2128.8z"/>
	</g>
</g>
</svg>
