<?xml version="1.0" encoding="UTF-8"?>
<svg id="Layer_1" data-name="Layer 1" xmlns="http://www.w3.org/2000/svg" viewBox="0 0 2521 2911">
  <defs>
    <style>
      .cls-1 {
        fill: #404040;
      }

      .cls-2 {
        fill: #d44247;
      }

      .cls-3 {
        fill: #865887;
      }

      .cls-4 {
        fill: #f1b610;
      }

      .cls-5 {
        fill: #319855;
      }

      .cls-6 {
        fill: #fad56d;
      }

      .cls-7 {
        fill: #24a3c6;
      }

      .cls-8, .cls-9 {
        fill: none;
        stroke: #b6b6b8;
        stroke-miterlimit: 10;
        stroke-width: 10px;
      }

      .cls-10 {
        fill: #a074a2;
      }

      .cls-11 {
        fill: #fff;
      }

      .cls-12 {
        fill: #141227;
      }

      .cls-13 {
        fill: #33b6da;
      }

      .cls-14 {
        fill: #3dbc68;
      }

      .cls-15 {
        fill: #da5a5f;
      }

      .cls-16 {
        fill: #af8ab2;
      }

      .cls-9 {
        stroke-linecap: round;
      }

      .cls-17 {
        fill: #1d85a1;
      }

      .cls-18 {
        fill: #37ab5f;
      }

      .cls-19 {
        fill: #f9ca3e;
      }

      .cls-20 {
        fill: #d2353b;
      }

      .cls-21 {
        fill: #c93339;
      }
    </style>
  </defs>
  <polygon class="cls-12" points="2418.44 786.97 2418.44 2124.03 1260.5 2792.57 102.56 2124.03 102.56 786.97 1260.5 118.43 2418.44 786.97"/>
  <g>
    <path class="cls-8" d="M836.73,2592.04s20.02-39.55,18.21-71.68-7.92-50.78-12.67-79.11,4.05-40.08,4.05-40.08"/>
    <path class="cls-9" d="M1281.84,2614.95s5.62-17.04,4.45-35.72-13.35-50.61-13.7-79.61,18.16-61.97,15.58-85.16-15.55-71.63-15.58-83.46,5.66-34.73,5.66-34.73"/>
    <path class="cls-13" d="M845.04,2373.78c4.03-1.37,10.75,3.25,12.4,8.85,1.41,4.79-1.83,7.09,0,10.95,2.34,4.95,9.17,4.42,9.64,7.59.54,3.63-7.96,7.56-8.45,7.79-8.9,4.04-20.77,3.35-28.28-3.1-2.29-1.97-5.77-5.84-4.74-8.19.98-2.26,5.08-.75,8.72-3.81,2.21-1.86,1.88-3.39,4.83-10.32,2.59-6.05,3.88-9.08,5.88-9.76Z"/>
    <path class="cls-7" d="M945.78,2231.16c-1.97,41.57-16.17,70.59-32.29,97.66,0,0-5.7,9.57-15.71,21.37-9.79,11.57-23.72,25.26-40.45,34.17-4.76,2.53-9.64,3.12-9.64,3.12,0,0-5.3.65-10.96-.96-29.74-8.45-56.6-62.18-56.6-62.18-18.97-37.95-32.1-64.22-28.86-101.32,1.11-12.66,3.83-39.72,23.74-65.12,6.52-8.33,30.77-39.27,70.62-40.6,37.09-1.23,62.69,24.02,73.38,36.73,2.3,2.73,3.91,4.88,4.8,6.07,20.72,27.71,22.63,57.33,21.97,71.06Z"/>
    <path class="cls-8" d="M1910.07,2457.29s-6.3-66.43-2.16-108.33"/>
    <path class="cls-2" d="M1905.05,2321.36c3.89-1.74,11,2.24,13.16,7.67,1.85,4.64-1.17,7.23,1.01,10.91,2.78,4.71,9.53,3.55,10.29,6.66.87,3.57-7.23,8.27-7.69,8.53-8.49,4.84-20.37,5.25-28.44-.47-2.47-1.75-6.28-5.28-5.48-7.72.77-2.34,4.99-1.22,8.34-4.6,2.03-2.05,1.56-3.55,3.86-10.72,2.02-6.27,3.02-9.4,4.96-10.27Z"/>
    <path class="cls-16" d="M1280.07,2272.37c4.15-.96,10.37,4.32,11.44,10.06.92,4.91-2.54,6.87-1.11,10.9,1.83,5.16,8.67,5.32,8.82,8.52.17,3.67-8.68,6.72-9.19,6.89-9.26,3.12-21,1.24-27.82-5.93-2.08-2.19-5.15-6.39-3.89-8.63,1.21-2.15,5.13-.24,9.06-2.91,2.39-1.62,2.21-3.19,5.85-9.78,3.18-5.76,4.78-8.64,6.84-9.12Z"/>
    <path class="cls-20" d="M2006.75,2178.45c-1.93,40.65-15.89,69.03-31.73,95.49,0,0-3.7,6.19-10.37,14.7-9.56,12.22-25.23,29.23-44.82,39.61-4.68,2.48-9.48,3.06-9.48,3.06,0,0-5.2.63-10.76-.94-29.24-8.27-55.63-60.8-55.63-60.8-18.64-37.11-31.55-62.8-28.36-99.07,1.09-12.39,3.77-38.84,23.33-63.68,6.41-8.14,30.24-38.4,69.4-39.69,30.2-1,52.65,15.78,65.44,28.63,5.96,5.99,9.82,11.13,11.39,13.21,20.36,27.09,22.23,56.06,21.59,69.48Z"/>
    <path class="cls-10" d="M1350.76,2222.2c-6.86,12.85-14.2,26.59-23.85,37.74-8.6,9.96-19.04,17.84-32.63,21.17-12.95,3.17-23.96,1.04-28.25,0-27.71-6.69-42.39-31.88-55.96-55.95-12.46-22.12-30.46-54.06-28.46-98.9.82-18.32,2.41-54.02,29.56-83.23,6.18-6.65,32.61-35.1,71.93-33.14,32.92,1.64,54.04,23.54,61.82,31.61,1,1.04,1.97,2.09,2.91,3.15,26.12,29.34,28.53,64.59,29.53,79.26,2.94,42.99-13.62,74-26.6,98.29Z"/>
    <path class="cls-8" d="M633.71,1510.87s-49.32-75.59-55.83-98.86-1.99-37.51-.79-64.4"/>
    <path class="cls-6" d="M569.32,1321.49c3.58-2.32,11.22.53,14.18,5.57,2.54,4.31-.05,7.32,2.66,10.63,3.47,4.23,9.97,2.05,11.19,5.01,1.41,3.39-5.88,9.27-6.3,9.61-7.65,6.08-19.33,8.31-28.18,3.88-2.7-1.35-7.02-4.26-6.6-6.79.4-2.43,4.74-1.97,7.53-5.82,1.7-2.34.99-3.75,2.18-11.18,1.03-6.5,1.55-9.75,3.33-10.9Z"/>
    <path class="cls-18" d="M740.09,1080.33c-1.79,3.16-3.74,6.33-5.85,9.49-6.94,10.42-50.89,76.35-106.33,68.74-38.91-5.35-61.37-43.9-80.5-76.72-12.44-21.35-33.54-57.55-29.28-106.6,1.42-16.37,5.17-59.61,41.27-90.85,31.79-27.51,69.03-28.73,82.17-28.42,4.45.11,44.16,1.7,77.39,29,6.65,5.44,13.03,11.92,18.82,19.62,22.79,30.28,23.71,62.52,24.31,83.54.37,12.94.97,52.01-22,92.2Z"/>
    <path class="cls-19" d="M619.6,1279.32c-.89,1.31-1.78,2.63-2.68,3.96-15.88,23.45-26.71,38.95-46.57,44.51-29.99,8.39-58.74-12-78.56-26.06-14.75-10.46-75.39-53.46-79.45-127.6-.76-13.7-2.89-52.62,23.99-86.81,23.41-29.77,54.96-38.32,64.86-40.85,27.36-7,51.96-3.31,70.28,2.51,17.9,5.68,29.8,13.39,32.44,15.15,50.78,33.96,56.52,91.45,57.35,102.27,3.41,44.58-16.9,76.3-41.66,112.92Z"/>
    <path class="cls-8" d="M1473.58,1502.79c-9.08-40.91-25.22-67.68-38.46-84.67-28.94-37.16-50.61-36.07-78.39-78-17.27-26.06-14.43-34.83-35.38-66.95-17.04-26.12-34.99-44.97-47.88-57.09"/>
    <path class="cls-13" d="M1261.19,1203.03c2.09-3.71,10.17-4.75,15.14-1.67,4.25,2.63,3.36,6.5,7.3,8.17,5.04,2.13,9.78-2.82,12.24-.78,2.82,2.35-.88,10.94-1.1,11.43-3.94,8.94-13.24,16.35-23.13,16.56-3.02.06-8.19-.5-9-2.94-.78-2.34,3.28-3.95,3.96-8.66.41-2.86-.87-3.78-3.28-10.91-2.11-6.24-3.17-9.35-2.13-11.2Z"/>
    <path class="cls-10" d="M1367.1,760.1c-31.58-22.06-65.74-23.62-65.74-23.62-9.94-.45-40.2-1.42-66.97,17.77-37.15,26.64-41.28,73.25-43.28,95.91-1.31,14.82-5.77,65.23,25.89,108.72,44.06,60.52,140.9,84.09,188.38,48.03,63.93-48.57,30.12-199-38.28-246.79Z"/>
    <path class="cls-7" d="M1332.54,1088.05s-4.13,48.21-33.15,89.89c-6.63,9.54-14.56,18.73-24.05,26.93-3.46,2.98-7.69,6.14-13.57,8.22-7.51,2.64-25.02,6.11-63.32-18.84-20.55-13.38-49.58-32.29-72.82-71.18-14.87-24.89-35.04-58.65-27.58-101.89,1.96-11.34,11.33-55.26,51.32-77.88,26.83-15.17,54.36-13.36,74.39-9.37,6.73,1.35,12.62,2.94,17.34,4.22,13.08,3.54,40.77,11.02,63,35.26,34.99,38.16,30.58,89.62,28.44,114.64Z"/>
    <path class="cls-7" d="M1583.31,677.24c-10.6-25.21-41.27-43.03-48.98-47.51-10.91-6.34-39.86-22.65-77.32-19.12-57.3,5.4-90.09,53.03-98.56,66.63-6.6,10.6-32.31,54.94-18.4,111.28,1.46,5.91,19.56,75.57,66.86,89.02,80.52,22.9,206.74-128.17,176.41-200.3Z"/>
    <path class="cls-10" d="M1723.63,837.31c-5.34,13.01-12.72,26.01-21.64,38.35-36.81,50.86-99.87,90.29-153.77,71.39-54.54-19.13-71.57-88.11-74.58-100.32-2.35-9.51-15.94-68.68,19.8-125.32,7.99-12.67,32.96-52.23,83.63-65.23,11.65-2.99,51.66-11.5,93.19,10.95,5.81,3.15,35.63,19.87,53.36,55.46,2.05,4.1,3.93,8.46,5.6,13.07,16.9,46.78-.03,88.09-5.59,101.65Z"/>
    <path class="cls-18" d="M1569.31,928.9c-.55,19.16-2.49,87.11-45.59,114.6-1.86,1.2-3.79,2.31-5.81,3.34-45.9,23.44-101.58-12-131.98-31.35-27.51-17.51-65.5-41.7-77.81-90.01-13.29-52.16,12.87-95.06,17.23-101.95,4.37-6.92,39.16-59.98,102.01-62.06,39.35-1.3,68.72,18.08,85.87,33.02,6.41,5.59,11.11,10.55,13.98,13.59,44.22,46.73,42.54,105.55,42.1,120.82Z"/>
    <path class="cls-21" d="M2006.75,2178.45c-1.93,40.65-15.89,69.03-31.73,95.49,0,0-3.7,6.19-10.37,14.7,5.92-12.15,11.51-25.9,16.08-41.22,6.68-22.37,16.77-56.13,9.94-98.82-3.23-20.19-9.53-37.86-16.9-52.84,5.96,5.99,9.82,11.13,11.39,13.21,20.36,27.09,22.23,56.06,21.59,69.48Z"/>
    <path class="cls-3" d="M1350.76,2222.2c-6.86,12.85-14.2,26.59-23.85,37.74,15.68-32.28,23.78-60.63,28.27-81.11,5.96-27.26,11.49-53.67,6.34-87.3-2.69-17.57-7.7-33.23-13.69-46.88,26.12,29.34,28.53,64.59,29.53,79.26,2.94,42.99-13.62,74-26.6,98.29Z"/>
    <path class="cls-17" d="M945.78,2231.16c-1.97,41.57-16.17,70.59-32.29,97.66,0,0-5.7,9.57-15.71,21.37,6.39-12.51,12.51-26.69,17.7-42.49,6.93-21.1,17.8-55.29,14.53-99.38-1.49-20.06-5.61-38.24-11-54.29,2.3,2.73,3.91,4.88,4.8,6.07,20.72,27.71,22.63,57.33,21.97,71.06Z"/>
    <path class="cls-5" d="M740.09,1080.33c-4.12-4.42-7.88-9.4-11.18-14.25,7.04-17.98,22.83-65.36,10.36-124.68-4.59-21.86-12.04-40.68-20.31-56.43,6.65,5.44,13.03,11.92,18.82,19.62,22.79,30.28,23.71,62.52,24.31,83.54.37,12.94.97,52.01-22,92.2Z"/>
    <path class="cls-8" d="M638.15,1500.69s5.47-7.01-4.44-53.71-8.6-38.26-7.58-75.28,9.96-57.61,12.7-76.44-10.92-87.65-10.92-87.65"/>
    <path class="cls-8" d="M641.57,1509.25c11.79-24.17,24.62-56.09,33.5-94.85,9.9-43.19,11.74-81.13,11.01-109.91"/>
    <path class="cls-2" d="M686.81,1281.42c4.15-.96,10.37,4.32,11.44,10.06.92,4.91-2.54,6.87-1.11,10.9,1.83,5.16,8.67,5.32,8.82,8.52.17,3.67-8.68,6.72-9.19,6.89-9.26,3.12-21,1.24-27.82-5.93-2.08-2.19-5.15-6.39-3.89-8.63,1.21-2.15,5.13-.24,9.06-2.91,2.39-1.62,2.21-3.19,5.85-9.78,3.18-5.76,4.78-8.64,6.84-9.12Z"/>
    <path class="cls-4" d="M619.6,1279.32c8.6-25.88,14.79-58.58,11.37-95.79-5.3-57.61-31.45-102.32-59.5-134.55,17.9,5.68,29.8,13.39,32.44,15.15,50.78,33.96,56.52,91.45,57.35,102.27,3.41,44.58-16.9,76.3-41.66,112.92Z"/>
    <path class="cls-20" d="M804.21,1239.69c-6.04,6.99-26.99,31.23-58.16,44.32-.01,0-.02.01-.02.01-15.31,6.41-33.08,10.14-52.76,7.82-43.66-5.17-69.7-36.95-75.67-44.23-43.07-52.57-25.93-119.85-22.84-131.99,3.96-15.56,16-62.83,61.88-91.19,8.01-4.96,49.31-30.49,97.97-16.37,42.99,12.48,65.33,48.26,75.88,72.36,4.59,10.47,6.95,18.73,7.81,21.92,19.8,73.03-28.58,130.97-34.09,137.35Z"/>
    <path class="cls-3" d="M1723.63,837.31c-5.34,13.01-12.72,26.01-21.64,38.35,9.56-24.9,18.41-56.49,21.64-93.64,1.87-21.51,1.56-41.45-.01-59.43,2.05,4.1,3.93,8.46,5.6,13.07,16.9,46.78-.03,88.09-5.59,101.65Z"/>
    <path class="cls-5" d="M1569.31,928.9c-.55,19.16-2.49,87.11-45.59,114.6,14.46-35.98,30.19-94.23,18.34-163.38-5.9-34.38-17.19-63.12-28.83-85.63,6.41,5.59,11.11,10.55,13.98,13.59,44.22,46.73,42.54,105.55,42.1,120.82Z"/>
    <path class="cls-8" d="M1476.49,1490.47c4.07-23.43,6.62-58.28-5.99-95.92-11.79-35.2-28.09-46.72-37.15-78.66-6.4-22.58-9.65-57,8.42-105.42"/>
    <path class="cls-19" d="M1784.74,997.38c-6.45,22.54-22.65,56.83-49.41,80.75-16.38,14.66-36.71,25.42-61.19,27.24-63.22,4.68-110.23-53.65-126.72-97.04-15.64-41.17-7.5-78.64-3.99-93.81,4.43-19.21,13.73-59.46,51.36-87.99,7.52-5.71,47.09-35.71,98.43-24.65,47.78,10.31,71.39,48.78,76.96,58.12.09.15.17.29.25.42,14.25,23.89,16.76,46.64,18.8,65.06.89,8.04,4.3,41.13-4.49,71.9Z"/>
    <path class="cls-8" d="M1464.31,1502.79c12.29-49.26,4.95-81.09-4.6-101.39-7.76-16.51-17.1-25.71-29.43-51.96-11.63-24.76-17.5-46.75-20.67-61.73"/>
    <path class="cls-6" d="M1398.72,1261.68c3.42-2.54,11.23-.17,14.5,4.66,2.8,4.14.41,7.31,3.32,10.44,3.73,4,10.07,1.42,11.49,4.3,1.62,3.3-5.28,9.63-5.68,9.98-7.25,6.55-18.77,9.51-27.88,5.65-2.78-1.18-7.27-3.81-7.01-6.36.25-2.45,4.61-2.26,7.15-6.28,1.55-2.44.76-3.8,1.47-11.3.62-6.55.93-9.83,2.64-11.09Z"/>
    <path class="cls-17" d="M1332.54,1088.05s-4.13,48.21-33.15,89.89c15.71-64.62,8.49-130.3-23.26-183.98-15.16-25.63-33.95-45.22-52.37-60.03,6.73,1.35,12.62,2.94,17.34,4.22,13.08,3.54,40.77,11.02,63,35.26,34.99,38.16,30.58,89.62,28.44,114.64Z"/>
    <path class="cls-19" d="M1491.71,1124.06c-.29,45.19-20,76.73-40.99,109.73-.26.4-.51.81-.77,1.21-7.5,11.8-16.18,22.74-30.47,29.44-14.89,6.99-28.82,6.07-34.5,5.62-9.37-.74-31.92-4.25-76.32-46.29-29.55-27.98-44.33-41.98-54.21-63.23-4.88-10.51-25.2-54.22-7.19-104.95,5.13-14.44,21.89-53.49,65.48-73.58,4.66-2.14,49.59-22.01,97.11-2.59.13.05.26.11.39.16,61.3,25.32,81.77,97.7,81.47,144.48Z"/>
    <path class="cls-2" d="M1831.72,2195.06c-17.8-25.34,8.9-94.16,41.77-107.85,10.27-4.11,12.67-4.11,20.2.68,7.87,5.14,8.56,7.53,7.19,22.26-2.05,19.52-25.68,71.22-38.35,83.89-10.61,10.61-23.97,10.96-30.82,1.03Z"/>
    <path class="cls-2" d="M620,1135.02c-11.98-13.01-5.82-45.88,13.35-70.87,24.31-31.84,69.85-39.03,69.85-10.96,0,23.28-50.67,87.99-68.82,87.99-4.79,0-11.3-2.74-14.38-6.16h0Z"/>
    <path class="cls-14" d="M539.54,993.61c-8.9-9.24-11.3-22.6-7.19-40.4,4.79-20.89,10.96-31.5,26.71-45.88,17.46-15.75,34.58-17.46,43.48-4.11,4.79,7.19,5.14,10.96,1.71,24.65-5.48,20.89-19.17,49.99-30.13,62.66-10.27,12.33-24.99,13.7-34.58,3.08h0Z"/>
    <path class="cls-14" d="M1340.73,921.71c-7.87-3.08-17.8-21.57-17.8-33.21,0-17.12,11.64-43.48,25.34-58.21,12.67-13.35,16.43-15.41,29.45-15.75,13.01-.34,15.75,1.03,20.2,8.9,4.45,7.87,4.79,11.64,1.03,25.68-5.82,21.91-23.62,57.18-32.53,65.4-10.27,8.9-16.43,10.61-25.68,7.19h0Z"/>
    <path class="cls-13" d="M1367.1,760.1c-34.92-26.71,7.19-118.81,54.44-118.81,26.36,0,30.13,23.97,9.93,63.34-14.72,29.1-26.71,45.2-39.03,53.76-10.96,7.19-17.8,7.53-25.34,1.71Z"/>
    <path class="cls-16" d="M1209.94,870.69c-11.98-22.26,3.42-72.93,28.42-94.5,21.23-17.8,36.64-14.72,36.64,7.87,0,15.07-18.15,61.63-30.82,79.43-8.22,10.96-12.67,14.04-20.54,14.04-6.51,0-11.3-2.4-13.7-6.85Z"/>
    <path class="cls-4" d="M1784.74,997.38c-6.45,22.54-22.65,56.83-49.41,80.75,19.56-41.51,38.74-99.85,38.25-170.13-.12-17.03-1.39-33.08-3.4-48,.09.15.17.29.25.42,14.25,23.89,16.76,46.64,18.8,65.06.89,8.04,4.3,41.13-4.49,71.9Z"/>
    <path class="cls-8" d="M1463.98,1514.6c27.09-63,22.68-102.38,13.03-127.02-5.38-13.73-14.14-27.37-18.19-52.7-4.36-27.29.22-46.4,3.12-67.01,3.48-24.7,5.76-60.01-.26-104.97"/>
    <path class="cls-8" d="M1457.3,1505.36c31.69-20.97,53.57-42.73,67.63-58.76,18.23-20.79,31.37-41.13,38.01-52.04,16.56-27.22,13.75-30.31,26.02-46.57,16.52-21.88,27.94-24.64,52.39-47.59,11.17-10.49,26.59-26.62,42.38-49.65"/>
    <path class="cls-13" d="M1698.34,1224.23c4.19.76,7.81,8.06,6.53,13.76-1.1,4.87-5.05,5.3-5.33,9.57-.36,5.46,5.86,8.32,4.73,11.31-1.3,3.44-10.63,2.74-11.17,2.7-9.74-.8-19.78-7.17-23.21-16.46-1.05-2.84-2.2-7.9-.16-9.47,1.96-1.5,4.8,1.81,9.47.92,2.84-.54,3.29-2.05,9.24-6.66,5.2-4.03,7.81-6.05,9.89-5.67Z"/>
    <path class="cls-8" d="M1484.16,1498.69c-21.42-43.48-20.47-74.3-15.23-94.77,6.33-24.72,18.48-32.64,24.51-65.17,4.02-21.69,1.32-32.71,0-65.58-.84-20.98-1.12-50.86,1.71-87.47"/>
    <path class="cls-7" d="M1886.59,1073.13c-.72,41.04-22.25,68.81-37.59,88.6-18.12,23.37-37.68,37.4-61.16,49.09-15.07,7.51-31.75,14.06-50.72,21.5-11.62,4.56-27.62,9.78-41.99,2.98-6.2-2.93-10.16-7.19-12.69-10.23-49.46-59.48-50.55-118.13-50.55-118.13-.21-11.1-.4-80.54,52.94-127.02,10.73-9.35,40.96-35.69,84.92-34.58,33.61.84,56.98,17.28,64.58,22.79,23.59,17.08,40.3,42.33,47.81,69.9,3.12,11.44,4.66,23.28,4.45,35.1Z"/>
    <path class="cls-8" d="M1457.02,1492.52c31.25-26.33,43.63-51.81,49.12-70.46,9.87-33.56-1.76-47.9,11.95-83.32,10.69-27.59,21.95-29.76,35.48-59.55,12.35-27.2,15.34-52.67,15.87-70.3"/>
    <path class="cls-13" d="M765.17,2248.47c-15.07-19.17-4.45-68.14,20.89-95.87,16.43-17.8,28.76-23.63,41.43-18.83,18.49,7.19,16.09,31.84-7.87,81.49-19.86,40.74-39.03,52.73-54.44,33.21h0Z"/>
    <path class="cls-13" d="M1122.29,1070.31c-8.22-8.9-8.9-11.64-7.53-35.27.68-22.26,2.74-28.42,11.98-42.8,16.78-26.02,40.74-36.64,53.76-23.62,7.53,7.19,6.85,30.13-1.03,53.07-18.15,53.41-37.66,69.85-57.18,48.62h0Z"/>
    <path class="cls-21" d="M804.21,1239.69c-6.04,6.99-26.99,31.23-58.16,44.32,24.68-19.67,59.18-55.08,76.36-109.76,10.63-33.85,11.7-65.81,8.08-93.83,4.59,10.47,6.95,18.73,7.81,21.92,19.8,73.03-28.58,130.97-34.09,137.35Z"/>
    <path class="cls-16" d="M1199.67,2144.39c-5.14-5.14-6.85-11.3-6.85-25.68,0-39.03,25.34-80.8,52.39-85.6,30.82-5.82,31.84,21.57,3.42,78.41-19.17,38.01-33.9,47.93-48.96,32.87Z"/>
    <path class="cls-16" d="M1519.12,782.36c-7.87-5.14-14.38-11.64-14.72-14.72-.34-12.67,16.78-47.59,30.47-62.32,18.49-20.2,43.48-25.68,53.07-11.98,7.87,10.96,6.85,15.07-6.51,42.11-16.43,31.84-34.58,56.49-42.11,56.49-3.08,0-12.33-4.45-20.2-9.59h0Z"/>
    <path class="cls-6" d="M439.56,1203.5c-12.33-12.67-16.09-35.27-10.27-61.97,9.59-44.51,38.35-71.22,56.84-52.73,12.67,12.67-1.37,96.9-19.52,116.07-9.93,10.61-15.07,10.27-27.05-1.37h0Z"/>
    <path class="cls-8" d="M1487.5,1480.15c-11.16-36.53-6.22-59.65,1.01-74.35,8.87-18.02,21.55-24.1,35.8-52.33,1.05-2.07,9.52-19.09,14.32-39.4,10.16-43.01-.59-82.12-8.56-103.6"/>
    <path class="cls-15" d="M1535.78,1239.09c3.67-2.16,11.18,1,13.94,6.16,2.35,4.41-.36,7.31,2.21,10.73,3.29,4.37,9.87,2.47,10.97,5.48,1.26,3.45-6.26,9.02-6.69,9.34-7.9,5.75-19.66,7.49-28.32,2.7-2.65-1.46-6.83-4.55-6.31-7.06.5-2.42,4.82-1.76,7.77-5.5,1.79-2.27,1.15-3.7,2.64-11.08,1.31-6.45,1.96-9.68,3.78-10.75Z"/>
    <path class="cls-4" d="M1450.72,1233.79c11.32-30.54,21.62-75.33,13.96-128.42-8.44-58.49-34.91-100.98-54.83-125.95.13.05.26.11.39.16,61.3,25.32,81.77,97.7,81.47,144.48-.29,45.19-20,76.73-40.99,109.73Z"/>
    <path class="cls-6" d="M1569.45,947.73c-6.51-7.53-2.4-45.2,6.51-62.66,3.77-7.87,11.98-19.86,18.15-26.36,26.02-29.79,57.52-29.45,57.52,0,0,14.72-31.84,78.07-43.83,87.31-10.27,8.22-32.18,9.24-38.35,1.71h0Z"/>
    <path class="cls-20" d="M1677.53,1177.97c-5.28,8.75-30.41,50.44-79.41,65.73-6.71,2.1-13.86,3.7-21.48,4.65-7.86.98-56.98,6.33-97.04-27.51-51.85-43.79-43.41-115.08-41.32-132.79,2.38-20.06,8.92-75.33,57.86-108.99,2.94-2.01,62.49-41.5,125.69-12.84,32.88,14.91,51.02,41.13,61,62.23,5.96,12.61,9.01,23.39,10.56,28.85,2.61,9.21,17.5,65.34-15.86,120.67Z"/>
    <path class="cls-17" d="M1886.59,1073.13c-.72,41.04-22.25,68.81-37.59,88.6-18.12,23.37-37.68,37.4-61.16,49.09,22.65-20.34,46.25-47.7,64.95-83.75,16.26-31.34,24.99-61.89,29.35-89.04,3.12,11.44,4.66,23.28,4.45,35.1Z"/>
    <path class="cls-13" d="M1699.21,1083.66c-.34-3.08-1.03-8.9-1.71-12.67s-2.05-9.93-2.74-13.7c-.68-3.77-2.4-9.93-3.77-13.7s-3.77-10.96-5.48-15.75c-4.79-11.98.68-23.97,16.43-36.98,18.49-15.41,35.95-20.2,46.91-12.67,18.49,11.98,14.38,33.9-14.72,78.41-16.78,25.34-34.24,39.03-34.92,27.05h0Z"/>
    <path class="cls-6" d="M1273.97,1138.44c-14.04-15.75-16.09-37.32-5.48-70.53,12.67-41.77,47.59-67.45,62.66-45.88,6.85,9.59,6.85,19.86.68,44.17-16.78,63.68-39.72,92.45-57.86,72.24Z"/>
    <path class="cls-21" d="M1677.53,1177.97c-5.28,8.75-30.41,50.44-79.41,65.73,25.08-19.94,60.36-56.22,77.74-112.79,11.75-38.26,11.56-73.58,6.97-102.46,5.96,12.61,9.01,23.39,10.56,28.85,2.61,9.21,17.5,65.34-15.86,120.67Z"/>
    <path class="cls-15" d="M1466.73,1117.9c-11.3-9.24-13.01-34.58-3.77-59.23,13.35-35.27,43.48-59.23,62.32-49.65,7.19,3.42,8.22,6.51,8.22,21.57-.34,31.16-36.64,93.47-54.78,93.47-2.4,0-7.87-2.74-11.98-6.16Z"/>
  </g>
  <g>
    <path class="cls-11" d="M500.82,1509.53v68.11h61.74v32.83h-61.74v127.89c0,29.4,8.33,46.06,32.34,46.06,11.27,0,19.6-1.47,24.99-2.94l1.96,32.34c-8.33,3.43-21.56,5.88-38.22,5.88-20.09,0-36.26-6.37-46.55-18.13-12.25-12.74-16.66-33.81-16.66-61.74v-129.36h-36.75v-32.83h36.75v-56.84l42.14-11.27Z"/>
    <path class="cls-11" d="M659.09,1511c.49,14.7-10.29,26.46-27.44,26.46-15.19,0-25.97-11.76-25.97-26.46s11.27-26.95,26.95-26.95,26.46,11.76,26.46,26.95ZM611.07,1814.81v-237.16h43.12v237.16h-43.12Z"/>
    <path class="cls-11" d="M930.55,1466.9v286.65c0,21.07.49,45.08,1.96,61.25h-38.71l-1.96-41.16h-.98c-13.23,26.46-42.14,46.55-80.85,46.55-57.33,0-101.43-48.51-101.43-120.54-.49-78.89,48.51-127.4,106.33-127.4,36.26,0,60.76,17.15,71.54,36.26h.98v-141.61h43.12ZM887.43,1674.17c0-5.39-.49-12.74-1.96-18.13-6.37-27.44-29.89-49.98-62.23-49.98-44.59,0-71.05,39.2-71.05,91.63,0,48.02,23.52,87.71,70.07,87.71,28.91,0,55.37-19.11,63.21-51.45,1.47-5.88,1.96-11.76,1.96-18.62v-41.16Z"/>
    <path class="cls-11" d="M1017.76,1577.64l51.94,140.14c5.39,15.68,11.27,34.3,15.19,48.51h.98c4.41-14.21,9.31-32.34,15.19-49.49l47.04-139.16h45.57l-64.68,169.05c-30.87,81.34-51.94,122.99-81.34,148.47-21.07,18.62-42.14,25.97-52.92,27.93l-10.78-36.26c10.78-3.43,24.99-10.29,37.73-21.07,11.76-9.31,26.46-25.97,36.26-48.02,1.96-4.41,3.43-7.84,3.43-10.29s-.98-5.88-2.94-11.27l-87.71-218.54h47.04Z"/>
    <path class="cls-11" d="M1397.02,1805.99c-11.27,5.88-36.26,13.72-68.11,13.72-71.54,0-118.09-48.51-118.09-121.03s49.98-125.93,127.4-125.93c25.48,0,48.02,6.37,59.78,12.25l-9.8,33.32c-10.29-5.88-26.46-11.27-49.98-11.27-54.39,0-83.79,40.18-83.79,89.67,0,54.88,35.28,88.69,82.32,88.69,24.5,0,40.67-6.37,52.92-11.76l7.35,32.34Z"/>
    <path class="cls-11" d="M1447.49,1466.9h43.12v347.9h-43.12v-347.9Z"/>
    <path class="cls-11" d="M1761.58,1750.12c0,24.5.49,46.06,1.96,64.68h-38.22l-2.45-38.71h-.98c-11.27,19.11-36.26,44.1-78.4,44.1-37.24,0-81.83-20.58-81.83-103.88v-138.67h43.12v131.32c0,45.08,13.72,75.46,52.92,75.46,28.91,0,49-20.09,56.84-39.2,2.45-6.37,3.92-14.21,3.92-22.05v-145.53h43.12v172.48Z"/>
    <path class="cls-11" d="M1827.23,1770.71c12.74,8.33,35.28,17.15,56.84,17.15,31.36,0,46.06-15.68,46.06-35.28,0-20.58-12.25-31.85-44.1-43.61-42.63-15.19-62.72-38.71-62.72-67.13,0-38.22,30.87-69.58,81.83-69.58,24.01,0,45.08,6.86,58.31,14.7l-10.78,31.36c-9.31-5.88-26.46-13.72-48.51-13.72-25.48,0-39.69,14.7-39.69,32.34,0,19.6,14.21,28.42,45.08,40.18,41.16,15.68,62.23,36.26,62.23,71.54,0,41.65-32.34,71.05-88.69,71.05-25.97,0-49.98-6.37-66.64-16.17l10.78-32.83Z"/>
    <path class="cls-11" d="M2079.09,1509.53v68.11h61.74v32.83h-61.74v127.89c0,29.4,8.33,46.06,32.34,46.06,11.27,0,19.6-1.47,24.99-2.94l1.96,32.34c-8.33,3.43-21.56,5.88-38.22,5.88-20.09,0-36.26-6.37-46.55-18.13-12.25-12.74-16.66-33.81-16.66-61.74v-129.36h-36.75v-32.83h36.75v-56.84l42.14-11.27Z"/>
  </g>
  <path class="cls-1" d="M1260.5,0L0,727.75v1455.5l1260.5,727.75,1260.5-727.75V727.75L1260.5,0ZM2418.44,2124.03l-1157.94,668.54L102.56,2124.03V786.97L1260.5,118.43l1157.94,668.54v1337.06Z"/>
</svg>