<svg xmlns="http://www.w3.org/2000/svg" xmlns:xlink="http://www.w3.org/1999/xlink" viewBox="0 0 735 852"><defs><style>.cls-1{fill:#44515c;}.cls-2{fill:none;}.cls-3,.cls-32{fill:#003e6d;}.cls-26,.cls-4{isolation:isolate;}.cls-5{clip-path:url(#clip-path);}.cls-6,.cls-7{fill:#005198;}.cls-10,.cls-7{opacity:0.25;}.cls-8{fill:#e6b35a;}.cls-9{opacity:0.94;}.cls-10{mix-blend-mode:multiply;}.cls-11{clip-path:url(#clip-path-2);}.cls-12{clip-path:url(#clip-path-3);}.cls-13{clip-path:url(#clip-path-4);}.cls-14{opacity:0.95;}.cls-15{clip-path:url(#clip-path-5);}.cls-16,.cls-18,.cls-29{fill:#fff;}.cls-17{opacity:0.2;}.cls-18{font-size:25px;font-family:MyriadPro-Regular, Myriad Pro;}.cls-19{letter-spacing:0.01em;}.cls-20{letter-spacing:-0.04em;}.cls-21{letter-spacing:-0.02em;}.cls-22{letter-spacing:-0.01em;}.cls-23{letter-spacing:0em;}.cls-24{clip-path:url(#clip-path-6);}.cls-25{clip-path:url(#clip-path-7);}.cls-26,.cls-29,.cls-32{opacity:0.94;}.cls-27{clip-path:url(#clip-path-8);}.cls-28{clip-path:url(#clip-path-9);}.cls-30{clip-path:url(#clip-path-10);}.cls-31{clip-path:url(#clip-path-11);}.cls-33{clip-path:url(#clip-path-12);}.cls-34{clip-path:url(#clip-path-13);}.cls-35{clip-path:url(#clip-path-14);}.cls-36{clip-path:url(#clip-path-15);}.cls-37{clip-path:url(#clip-path-16);}.cls-38{clip-path:url(#clip-path-17);}.cls-39{clip-path:url(#clip-path-18);}.cls-40{clip-path:url(#clip-path-19);}.cls-41{clip-path:url(#clip-path-20);}.cls-42{clip-path:url(#clip-path-21);}.cls-43{clip-path:url(#clip-path-22);}.cls-44{clip-path:url(#clip-path-23);}.cls-45{clip-path:url(#clip-path-24);}.cls-46{clip-path:url(#clip-path-25);}.cls-47{clip-path:url(#clip-path-26);}.cls-48{clip-path:url(#clip-path-27);}.cls-49{clip-path:url(#clip-path-28);}.cls-50{clip-path:url(#clip-path-29);}.cls-51{clip-path:url(#clip-path-30);}.cls-52{clip-path:url(#clip-path-31);}.cls-53{clip-path:url(#clip-path-32);}.cls-54{clip-path:url(#clip-path-33);}.cls-55{clip-path:url(#clip-path-34);}.cls-56{clip-path:url(#clip-path-35);}.cls-57{clip-path:url(#clip-path-36);}.cls-58{clip-path:url(#clip-path-37);}</style><clipPath id="clip-path"><polygon class="cls-1" points="369.51 7.4 728.21 214.47 728.21 636.62 369.51 845.03 2.79 636.62 2.79 214.47 369.51 7.4"/></clipPath><clipPath id="clip-path-2"><path class="cls-2" d="M4625.67,2517.91l-338.12,195.22-338.12-195.22V2127.48l338.12-195.22h0l338.12,195.22Z"/></clipPath><clipPath id="clip-path-3"><polygon class="cls-2" points="4131.48 2301.68 4439.14 2301.68 11018.06 6482.95 -2447.44 6482.95 4131.48 2301.68"/></clipPath><clipPath id="clip-path-4"><path class="cls-2" d="M4624.17,2516.41l-338.12,195.22-338.12-195.22V2126l338.12-195.22h0L4624.17,2126Z"/></clipPath><clipPath id="clip-path-5"><polygon class="cls-2" points="4129.98 2300.18 4437.64 2300.18 11016.56 6481.45 -2448.94 6481.45 4129.98 2300.18"/></clipPath><clipPath id="clip-path-6"><polygon class="cls-1" points="369.51 979.04 728.21 1186.11 728.21 1608.26 369.51 1816.67 2.79 1608.26 2.79 1186.11 369.51 979.04"/></clipPath><clipPath id="clip-path-7"><path class="cls-3" d="M158.83,400.78l.22,6.4v.28l-.22-6.4v-.28Z"/></clipPath><clipPath id="clip-path-8"><path class="cls-3" d="M531.39,401.43c-.06,2.13-.12,4.27-.17,6.4a4,4,0,0,1-.51,1.84,4.74,4.74,0,0,1-1.35,1.49,6.53,6.53,0,0,1-2.09,1,10,10,0,0,1-2.74.36l.17-6.4a10,10,0,0,0,2.74-.36,6.7,6.7,0,0,0,2.1-1,4.6,4.6,0,0,0,1.34-1.49A3.91,3.91,0,0,0,531.39,401.43Z"/></clipPath><clipPath id="clip-path-9"><path class="cls-3" d="M518,407.27l.16-6.4v.19a4.31,4.31,0,0,0,.51,2,5.07,5.07,0,0,0,1.36,1.61,6.66,6.66,0,0,0,2.05,1.08,8.48,8.48,0,0,0,2.59.39l-.17,6.4a8.48,8.48,0,0,1-2.59-.39,6.72,6.72,0,0,1-2-1.08,5.07,5.07,0,0,1-1.36-1.61,4.43,4.43,0,0,1-.51-2v-.19Z"/></clipPath><clipPath id="clip-path-10"><path class="cls-3" d="M145.87,407.72l-.23-6.4a4.33,4.33,0,0,0,.52,1.88,4.82,4.82,0,0,0,1.3,1.52,6.45,6.45,0,0,0,2,1,8.31,8.31,0,0,0,2.51.37l.22,6.4a8.2,8.2,0,0,1-2.5-.37,6.34,6.34,0,0,1-2-1,4.85,4.85,0,0,1-1.31-1.52A4.32,4.32,0,0,1,145.87,407.72Z"/></clipPath><clipPath id="clip-path-11"><path class="cls-3" d="M158.83,401.06l.22,6.4a4.14,4.14,0,0,1-.46,2,4.77,4.77,0,0,1-1.38,1.61,7.06,7.06,0,0,1-2.18,1.08,10.16,10.16,0,0,1-2.87.39l-.22-6.4a10.16,10.16,0,0,0,2.87-.39,7.06,7.06,0,0,0,2.18-1.08,4.77,4.77,0,0,0,1.38-1.61A3.92,3.92,0,0,0,158.83,401.06Z"/></clipPath><clipPath id="clip-path-12"><path class="cls-3" d="M293,424.54l.07,6.39c0-1,0-2-.05-2.92s-.05-1.85-.09-2.74-.06-1.75-.1-2.6-.07-1.67-.11-2.48l-.08-6.4q.06,1.21.12,2.49c0,.84.07,1.71.1,2.6s.06,1.8.08,2.74S293,423.53,293,424.54Z"/></clipPath><clipPath id="clip-path-13"><path class="cls-3" d="M212.24,431.69q.07,3.19.16,6.39c0-.23,0-.48,0-.73s0-.49-.07-.74-.08-.49-.13-.73a6.55,6.55,0,0,0-.18-.67l-.16-6.39a5.92,5.92,0,0,1,.18.67c.05.24.09.48.13.73s.05.5.07.74S212.23,431.45,212.24,431.69Z"/></clipPath><clipPath id="clip-path-14"><path class="cls-3" d="M432.92,432.11l-.07,6.39a14.47,14.47,0,0,0-.61-4.32,12.53,12.53,0,0,0-2.31-4.38,12,12,0,0,0-4.57-3.38,18.43,18.43,0,0,0-7.39-1.36,18.17,18.17,0,0,0-7,1.29,14.94,14.94,0,0,0-4.9,3.28,15.86,15.86,0,0,0-3,4.35,16.3,16.3,0,0,0-1.38,4.52l0-6.39a16.3,16.3,0,0,1,1.38-4.52,16.06,16.06,0,0,1,3-4.36,14.91,14.91,0,0,1,4.91-3.27,18.18,18.18,0,0,1,7-1.29,18.65,18.65,0,0,1,7.39,1.35,12.07,12.07,0,0,1,4.58,3.39,12.57,12.57,0,0,1,2.31,4.37A14.26,14.26,0,0,1,432.92,432.11Z"/></clipPath><clipPath id="clip-path-15"><path class="cls-3" d="M494.1,432.3l-.14,6.39a8.07,8.07,0,0,0,0-.83c0-.3-.05-.6-.09-.91s-.1-.61-.17-.91a6.7,6.7,0,0,0-.24-.83l.13-6.39a6.71,6.71,0,0,1,.25.83c.06.3.12.6.16.91s.08.61.1.9S494.09,432,494.1,432.3Z"/></clipPath><clipPath id="clip-path-16"><path class="cls-3" d="M552.5,442.07l.19-6.39a16.25,16.25,0,0,1,1.48-6.37,15.17,15.17,0,0,1,3.93-5.16,18.53,18.53,0,0,1,6.33-3.47,27.85,27.85,0,0,1,8.62-1.26c1.46,0,2.8.06,4,.18a33.32,33.32,0,0,1,3.39.48,25.66,25.66,0,0,1,2.78.69,19.7,19.7,0,0,1,2.21.81l-.23,6.39a21.89,21.89,0,0,0-2.21-.81,27.54,27.54,0,0,0-2.78-.69q-1.53-.3-3.39-.48c-1.23-.11-2.57-.18-4-.18a27.54,27.54,0,0,0-8.62,1.27,18.73,18.73,0,0,0-6.32,3.46,15.2,15.2,0,0,0-3.93,5.17A16.15,16.15,0,0,0,552.5,442.07Z"/></clipPath><clipPath id="clip-path-17"><path class="cls-3" d="M460.54,442.6q.06-3.19.1-6.39a19.51,19.51,0,0,1,1.27-6.78,15.82,15.82,0,0,1,3.43-5.38,15.49,15.49,0,0,1,5.43-3.54,21,21,0,0,1,12.82-.52,16.65,16.65,0,0,1,4.58,2.06,14.07,14.07,0,0,1,3.39,3.05,11.38,11.38,0,0,1,2,3.72l-.13,6.39a11.41,11.41,0,0,0-2-3.72,13.83,13.83,0,0,0-3.38-3.05,16.88,16.88,0,0,0-4.57-2.06,21,21,0,0,0-12.81.52,15.38,15.38,0,0,0-5.42,3.55,15.63,15.63,0,0,0-3.43,5.37A19.51,19.51,0,0,0,460.54,442.6Z"/></clipPath><clipPath id="clip-path-18"><path class="cls-3" d="M337.86,436.25l0,6.39a18.33,18.33,0,0,0-1.12-6.49,15.41,15.41,0,0,0-8.79-9.07,20.51,20.51,0,0,0-12.77-.63,18.41,18.41,0,0,0-4.73,2.07,15.54,15.54,0,0,0-3.75,3.22,13.09,13.09,0,0,0-2.39,4.22c-.1.26-.19.53-.28.81s-.17.56-.24.85-.12.58-.17.87a6.33,6.33,0,0,0-.06.86l-.07-6.39a6.23,6.23,0,0,1,.07-.86c0-.29.1-.58.17-.87s.15-.58.24-.85.18-.55.27-.81a13.2,13.2,0,0,1,2.4-4.22,15.44,15.44,0,0,1,3.76-3.23,18.09,18.09,0,0,1,4.73-2.06,19.43,19.43,0,0,1,5.3-.73,19.72,19.72,0,0,1,7.48,1.36,15.59,15.59,0,0,1,5.46,3.67,15.85,15.85,0,0,1,3.34,5.39A18.43,18.43,0,0,1,337.86,436.25Z"/></clipPath><clipPath id="clip-path-19"><path class="cls-3" d="M178.85,444.31l-.2-6.39a2.44,2.44,0,0,0,0-.27v-.56a2.44,2.44,0,0,1,0-.27,20.27,20.27,0,0,1,1.34-7,16.42,16.42,0,0,1,3.57-5.58,16,16,0,0,1,5.6-3.68,20.2,20.2,0,0,1,7.43-1.33,19.78,19.78,0,0,1,5.54.76,16.07,16.07,0,0,1,4.51,2.06,13.39,13.39,0,0,1,3.29,3.05,10.92,10.92,0,0,1,1.89,3.72l.16,6.39a10.92,10.92,0,0,0-1.89-3.72,13.34,13.34,0,0,0-3.28-3.05,16.36,16.36,0,0,0-4.51-2.06,19.76,19.76,0,0,0-5.53-.76,20.11,20.11,0,0,0-7.42,1.33,16.18,16.18,0,0,0-5.6,3.69,16.38,16.38,0,0,0-3.57,5.57,20.27,20.27,0,0,0-1.34,7V444A2.53,2.53,0,0,0,178.85,444.31Z"/></clipPath><clipPath id="clip-path-20"><path class="cls-3" d="M443.25,434.57l-.08,6.39c0,.37,0,.73-.05,1.07s-.05.65-.09.94-.07.56-.1.8-.07.47-.09.66l.08-6.38c0-.2.06-.42.09-.67s.07-.51.11-.8.06-.61.08-.94S443.24,434.94,443.25,434.57Z"/></clipPath><clipPath id="clip-path-21"><path class="cls-3" d="M494.21,440.85l-.14,6.39a.81.81,0,0,0,0-.16v-.48l.13-6.39v.64Z"/></clipPath><clipPath id="clip-path-22"><path class="cls-3" d="M303.53,447.33l-.06-6.39v-.16l.06,6.39v.16Z"/></clipPath><clipPath id="clip-path-23"><path class="cls-3" d="M121.26,452.39,121,446c0-.11,0-.22,0-.33v-.33c0-.12,0-.23,0-.35v-.34l.26,6.38c0,.12,0,.24,0,.35v.68C121.25,452.17,121.25,452.28,121.26,452.39Z"/></clipPath><clipPath id="clip-path-24"><path class="cls-3" d="M222.84,460.41l-.15-6.38,0-1.61c0-.54,0-1.08,0-1.63s0-1.08,0-1.62,0-1.07,0-1.59l.15,6.38c0,.52,0,1.06,0,1.59s0,1.09,0,1.63,0,1.09,0,1.63Z"/></clipPath><clipPath id="clip-path-25"><path class="cls-3" d="M606.79,456.84l-.25,6.38a9.63,9.63,0,0,1-2-2.14,12.25,12.25,0,0,1-1.35-2.71,18.2,18.2,0,0,1-.79-3.27,31.36,31.36,0,0,1-.32-3.78l.25-6.39a31.35,31.35,0,0,0,.32,3.79,18.3,18.3,0,0,0,.79,3.26,11.73,11.73,0,0,0,1.36,2.72A9.59,9.59,0,0,0,606.79,456.84Z"/></clipPath><clipPath id="clip-path-26"><path class="cls-3" d="M110.81,453.66l-.27-6.39a22.69,22.69,0,0,0,.31,3,15.19,15.19,0,0,0,.7,2.6,11.15,11.15,0,0,0,1.14,2.2,8.92,8.92,0,0,0,1.64,1.78l.26,6.38a8.61,8.61,0,0,1-1.63-1.78,10,10,0,0,1-1.14-2.2,13.55,13.55,0,0,1-.7-2.6A21,21,0,0,1,110.81,453.66Z"/></clipPath><clipPath id="clip-path-27"><path class="cls-3" d="M252.59,457.93l.11,6.39a1.39,1.39,0,0,0,0-.39,4.44,4.44,0,0,0-.13-.48c-.06-.17-.13-.36-.22-.57s-.18-.45-.3-.7l-.12-6.38q.18.38.3.69c.09.21.16.41.22.58a4.08,4.08,0,0,1,.14.48A3.07,3.07,0,0,1,252.59,457.93Z"/></clipPath><clipPath id="clip-path-28"><path class="cls-3" d="M627.92,459.21l-.27,6.38a17.32,17.32,0,0,1-1.77.46c-.65.14-1.39.26-2.18.36s-1.66.18-2.58.23-1.89.09-2.93.09a27,27,0,0,1-3.56-.23,20,20,0,0,1-3.16-.67,15.35,15.35,0,0,1-2.71-1.1,11.4,11.4,0,0,1-2.22-1.51l.25-6.38a12,12,0,0,0,2.23,1.51,15,15,0,0,0,2.71,1.1,21.11,21.11,0,0,0,3.17.67,26.85,26.85,0,0,0,3.56.23c1,0,2,0,2.93-.09s1.79-.13,2.58-.23,1.53-.23,2.19-.36A16.43,16.43,0,0,0,627.92,459.21Z"/></clipPath><clipPath id="clip-path-29"><path class="cls-3" d="M135.33,459.21l.24,6.38a17.78,17.78,0,0,1-1.79.46c-.67.14-1.4.26-2.21.36s-1.66.18-2.58.23-1.91.09-2.94.09a26.7,26.7,0,0,1-3.55-.23,19.3,19.3,0,0,1-3.12-.67,14.42,14.42,0,0,1-2.65-1.1,10.52,10.52,0,0,1-2.14-1.51l-.26-6.38a10.92,10.92,0,0,0,2.14,1.51,14.42,14.42,0,0,0,2.65,1.1,20.31,20.31,0,0,0,3.13.67,26.58,26.58,0,0,0,3.55.23q1.55,0,2.94-.09c.92-.05,1.79-.13,2.59-.23s1.54-.23,2.21-.36S134.8,459.38,135.33,459.21Z"/></clipPath><clipPath id="clip-path-30"><path class="cls-3" d="M541.71,442.25l.19-6.39c0,.1,0,.19,0,.29V437a22.26,22.26,0,0,0,2.27,9.53,21.67,21.67,0,0,0,6.07,7.37,28,28,0,0,0,9.35,4.75,41.56,41.56,0,0,0,12.12,1.69c2,0,3.85-.1,5.59-.26s3.33-.38,4.77-.64,2.72-.56,3.81-.86a25.36,25.36,0,0,0,2.69-.9l-.24,6.39a24.58,24.58,0,0,1-2.68.89c-1.09.3-2.37.6-3.81.86s-3,.48-4.77.64-3.6.26-5.58.26A41.54,41.54,0,0,1,559.37,465a28.18,28.18,0,0,1-9.34-4.75,21.58,21.58,0,0,1-6-7.36,22.15,22.15,0,0,1-2.27-9.53v-.29a2.81,2.81,0,0,1,0-.29,2.62,2.62,0,0,0,0-.28Z"/></clipPath><clipPath id="clip-path-31"><path class="cls-3" d="M440.05,457.51l-.08,6.38c-.94.33-2.05.67-3.33,1s-2.72.64-4.35.91-3.42.51-5.4.67-4.14.26-6.48.26a41.75,41.75,0,0,1-12.18-1.67,26.45,26.45,0,0,1-9.11-4.7,20.36,20.36,0,0,1-5.73-7.28,22.31,22.31,0,0,1-2-9.4l0-6.39a22.39,22.39,0,0,0,2,9.41,20.47,20.47,0,0,0,5.73,7.28,26.9,26.9,0,0,0,9.13,4.7,41.78,41.78,0,0,0,12.19,1.67c2.34,0,4.5-.1,6.48-.26s3.79-.4,5.41-.67,3.08-.58,4.36-.91S439.11,457.84,440.05,457.51Z"/></clipPath><clipPath id="clip-path-32"><path class="cls-3" d="M449.74,442.72l.09-6.39V437a1.7,1.7,0,0,0,0,.22,23.28,23.28,0,0,0,2,9.47,21.71,21.71,0,0,0,5.39,7.34,24.53,24.53,0,0,0,8,4.75,29.59,29.59,0,0,0,10,1.68,31.69,31.69,0,0,0,6.73-.69,25.94,25.94,0,0,0,5.66-1.89A20.58,20.58,0,0,0,492.1,455a15.47,15.47,0,0,0,3.12-3.56l-.13,6.38a15.71,15.71,0,0,1-3.12,3.56,20.2,20.2,0,0,1-4.45,2.85,25.25,25.25,0,0,1-5.66,1.89,31.57,31.57,0,0,1-6.71.69,29.48,29.48,0,0,1-10-1.68,24.5,24.5,0,0,1-8-4.74,21.92,21.92,0,0,1-5.38-7.34,23.32,23.32,0,0,1-2-9.47,1.7,1.7,0,0,1,0-.22v-.65Z"/></clipPath><clipPath id="clip-path-33"><path class="cls-3" d="M168.05,445l-.21-6.39a22.5,22.5,0,0,0,2.1,8.93,21.14,21.14,0,0,0,5.24,6.9,23.76,23.76,0,0,0,7.74,4.44,29.21,29.21,0,0,0,9.61,1.57,31.92,31.92,0,0,0,6.74-.69,26.48,26.48,0,0,0,5.72-1.89,21.26,21.26,0,0,0,4.54-2.85,16,16,0,0,0,3.23-3.56l.16,6.38a16,16,0,0,1-3.23,3.56,21,21,0,0,1-4.53,2.85,26,26,0,0,1-5.71,1.89,32,32,0,0,1-6.74.69,29.15,29.15,0,0,1-9.6-1.57,23.72,23.72,0,0,1-7.73-4.44,20.94,20.94,0,0,1-5.24-6.9A22.4,22.4,0,0,1,168.05,445Z"/></clipPath><clipPath id="clip-path-34"><path class="cls-3" d="M348.55,435.88v6.39A25.21,25.21,0,0,1,346.32,453a21.8,21.8,0,0,1-6,7.67,25.94,25.94,0,0,1-8.56,4.6,33.46,33.46,0,0,1-15.65,1,26.49,26.49,0,0,1-5-1.41,20,20,0,0,1-4.23-2.26,15,15,0,0,1-3.21-3l-.06-6.38a15,15,0,0,0,3.21,3,20.48,20.48,0,0,0,4.23,2.26,26.91,26.91,0,0,0,5,1.4,32.05,32.05,0,0,0,5.63.49,32.78,32.78,0,0,0,10-1.53,25.79,25.79,0,0,0,8.57-4.6,21.74,21.74,0,0,0,6-7.68A25.36,25.36,0,0,0,348.55,435.88Z"/></clipPath><clipPath id="clip-path-35"><path class="cls-3" d="M269.51,446.25l.1,6.39c-1.95,3.92-3.75,7.36-5.47,10.4s-3.35,5.68-5,8a48.11,48.11,0,0,1-4.88,6,33.09,33.09,0,0,1-5.22,4.36,33.89,33.89,0,0,1-3.92,2.31,35.85,35.85,0,0,1-3.67,1.61,32.94,32.94,0,0,1-3.19,1,20.53,20.53,0,0,1-2.45.5l-.14-6.37c.67-.1,1.51-.26,2.46-.5a31.36,31.36,0,0,0,3.19-1,34.74,34.74,0,0,0,3.67-1.6A33.29,33.29,0,0,0,249,475a32.53,32.53,0,0,0,5.23-4.36,48.11,48.11,0,0,0,4.88-6c1.62-2.3,3.25-4.94,5-8S267.55,450.17,269.51,446.25Z"/></clipPath><clipPath id="clip-path-36"><path class="cls-3" d="M359.61,427.5v6.4c0-1.29,0-2.54,0-3.75s0-2.37-.09-3.51-.09-2.23-.15-3.31-.13-2.12-.22-3.14v-6.4c.08,1,.16,2.07.22,3.15s.11,2.17.15,3.31.06,2.3.08,3.51S359.61,426.21,359.61,427.5Z"/></clipPath><clipPath id="clip-path-37"><path class="cls-3" d="M388.58,420.83l0,6.39c-.28-.05-.55-.09-.83-.12s-.56-.06-.86-.09L386,427l-1,0a16.86,16.86,0,0,0-5.19.79,14,14,0,0,0-4.22,2.19,13.3,13.3,0,0,0-3.08,3.36,13.77,13.77,0,0,0-1.79,4.28l-.18.88c0,.31-.11.62-.15.95s-.08.65-.11,1,0,.69,0,1V435c0-.35,0-.7,0-1s.06-.67.11-1,.09-.64.15-.95.12-.6.18-.88a13.77,13.77,0,0,1,1.79-4.28,13.13,13.13,0,0,1,3.08-3.36,14.05,14.05,0,0,1,4.23-2.2,16.76,16.76,0,0,1,5.19-.79l1,0c.32,0,.63,0,.93.06l.86.08Z"/></clipPath></defs><title>tidypredict</title><g class="cls-4"><g id="Layer_1" data-name="Layer 1"><polygon class="cls-1" points="369.51 7.4 728.21 214.47 728.21 636.62 369.51 845.03 2.79 636.62 2.79 214.47 369.51 7.4"/><g class="cls-5"><circle class="cls-6" cx="365.5" cy="437.45" r="442.13" transform="translate(-202.27 386.57) rotate(-45)"/><path class="cls-7" d="M683.21,107.07c0,129.59-141.14,234.64-315.24,234.64S52.72,236.66,52.72,107.07,193.86-127.56,368-127.56,683.21-22.51,683.21,107.07Z"/></g><path class="cls-8" d="M367,633.9c.29-.29.61-.59.94-.89h-.26C367.49,633.31,367.26,633.61,367,633.9Z"/><path class="cls-1" d="M705.61,196.21,427.81,35.82,367.5,1,307.19,35.82,29.37,196.22.09,213.13V637.38l29.28,16.91L310.65,816.68l56.85,32.83,56.85-32.83L705.61,654.3l29.3-16.92V213.13Zm0,425.26L367.49,816.68,29.37,621.47V231L367.49,35.82h0L705.61,231Z"/><g class="cls-9"><g class="cls-10"><g class="cls-11"><g class="cls-12"><polyline points="22655.94 18935.38 22655.94 18935.38 -10112.06 -13832.62 -10112.06 -13832.62 22655.94 18935.38"/><polyline points="-10112.06 18935.38 -10112.06 18935.38 22655.94 -13832.62 22655.94 -13832.62 -10112.06 18935.38"/></g></g></g><g class="cls-13"><g class="cls-14"><g class="cls-4"><g class="cls-15"><polyline class="cls-16" points="22654.44 18933.88 22654.44 18933.88 -10113.56 -13834.12 -10113.56 -13834.12 22654.44 18933.88"/><polyline class="cls-16" points="-10113.56 18933.88 -10113.56 18933.88 22654.44 -13834.12 22654.44 -13834.12 -10113.56 18933.88"/></g></g></g></g></g><g id="xwNXnP.tif" class="cls-17"><g class="cls-4"><path class="cls-16" d="M372.17,160.18c-1.16,0-2.31,0-3.47,0s-2.32,0-3.47.09-2.32.09-3.47.15-2.32.14-3.47.23c-8.93.67-17.84,1.35-26.74,2.11s-17.74,1.61-26.57,2.6-17.58,2.12-26.31,3.48-17.36,2.91-25.93,4.75q-19.26,4.14-37.84,9.61-18.4,5.46-36,12.36-17.38,6.85-33.75,15.26A328.5,328.5,0,0,0,114,229.09a253.45,253.45,0,0,0-21.2,15.68A211,211,0,0,0,74,262.29a185.84,185.84,0,0,0-16.14,19.45,175.75,175.75,0,0,0-13.21,21.4,120.48,120.48,0,0,0-6.78,15.47,106.25,106.25,0,0,0-6.19,34.47A117.59,117.59,0,0,0,33,372.19a132.2,132.2,0,0,0,5.08,21.6A139.72,139.72,0,0,0,46.52,414,155.63,155.63,0,0,0,58,432.92a178.51,178.51,0,0,0,14.3,17.65,229.22,229.22,0,0,0,40.4,34.91c6.68,4.55,13.41,8.65,20.15,12.43s13.33,7.16,20,10.39q15.1,7.35,29.75,13.05,14.46,5.67,28.61,10c9.35,2.89,18.63,5.39,27.86,7.58s18.28,4,27.38,5.66c5.05.9,10.09,1.76,15.11,2.54s10,1.5,15,2.14,9.92,1.2,14.86,1.67,9.88.84,14.82,1.11c3.51.19,7,.43,10.53.68l10.5.78c3.5.25,7,.47,10.48.63s7,.26,10.44.26c.84,0,1.68,0,2.53,0l2.53,0,2.53-.1,2.53-.15c5-.32,9.91-.6,14.87-.87s10-.53,14.93-.83,10-.65,15-1.07,10-.94,15.1-1.59q12.06-1.53,24.19-3.53c8.12-1.35,16.27-2.87,24.46-4.62s16.53-3.76,24.89-6,16.94-4.84,25.54-7.73c7.86-2.64,15.77-5.5,23.69-8.68s16.08-6.74,24.18-10.69S601.59,500,609.92,495s17-10.77,25.7-17.17Q641.94,473.2,648,468c4.06-3.51,8-7.21,11.9-11.13s7.72-8.17,11.4-12.6S678.62,435,682.1,430c.21-.3.4-.59.6-.87s.4-.55.61-.79a5.34,5.34,0,0,1,.7-.65,3.55,3.55,0,0,1,.87-.44l4.11-8.76,4.22-9,4.33-9.24,4.45-9.49c.23-2.77.61-5.63,1-8.53s.93-5.91,1.39-8.9.88-6,1.16-9a70.82,70.82,0,0,0,.32-8.93q-.25-7.41-1.18-14.42a124.22,124.22,0,0,0-2.57-13.77,108.79,108.79,0,0,0-4.06-13A97.53,97.53,0,0,0,692.46,302a197.42,197.42,0,0,0-24.52-34.95,217.79,217.79,0,0,0-31.69-29.52,271.14,271.14,0,0,0-37.91-24.11,374.2,374.2,0,0,0-43-19.22q-13.1-5-26.58-9.24t-27.48-7.79q-14-3.51-28.33-6.11c-9.59-1.72-19.27-3.13-29.05-4.17-5.94-.64-11.87-1.37-17.82-2.12s-11.92-1.51-17.89-2.19-12-1.29-18-1.72-12-.69-18.07-.69"/><path class="cls-16" d="M569.39,666.69a14.25,14.25,0,0,0-2.07,2.34c-.56.79-1,1.6-1.49,2.4s-.9,1.61-1.41,2.4a16.35,16.35,0,0,1-1.8,2.35,83.21,83.21,0,0,1-9.24,8.4,98.21,98.21,0,0,1-10.14,6.95c-3.49,2.09-7.12,4-10.85,5.78s-7.49,3.37-11.35,4.88q-8.22,3.19-16.39,5.81t-16.21,4.7q-8,2.1-16.1,3.75t-16.06,2.95q-5.46.89-10.89,1.63t-10.82,1.39q-5.38.63-10.77,1.17t-10.74,1q-6,.51-11.92.82t-11.86.51q-5.92.18-11.83.3l-11.81.22h-1.91c-1.23,0-2.47,0-3.71-.05l-3.74-.12-3.76-.12c-1.25,0-2.5-.08-3.75-.09L345,726c-1.24,0-2.49-.08-3.73-.13s-2.49-.12-3.72-.2-2.47-.17-3.7-.27c-3.65-.3-7.31-.6-11-.92s-7.35-.67-11-1.05-7.39-.78-11.09-1.24-7.44-.95-11.18-1.52c-6.62-1-13.22-2.12-19.8-3.42s-13.24-2.78-19.84-4.49-13.32-3.66-20-5.89-13.52-4.8-20.32-7.7q-3.3-1.39-6.48-3t-6.28-3.37c-2.06-1.19-4.09-2.44-6.07-3.76s-4-2.73-5.86-4.2c-1.67-1.29-3.28-2.59-4.81-3.93s-3-2.72-4.37-4.15a50.75,50.75,0,0,1-3.81-4.43,39.94,39.94,0,0,1-3.14-4.8l.46,1,.45,1,.45.95.44,1q2.78,5.89,5.47,11.59c1.76,3.73,3.5,7.39,5.19,11s3.28,7,4.85,10.41,12.14,27.31,13.57,30.55a26.61,26.61,0,0,0,2.36,4.18c.92,1.33,8.85,13,10,14.27s13.3,7.83,14.68,9,2.85,2.25,4.42,3.32a105.86,105.86,0,0,0,12.07,7.13,135.43,135.43,0,0,0,12.63,5.56c4.27,1.63,114.87,54.85,119.28,56.18S537.57,732.77,539.44,730.69c1.82-3.89,8.9-19.15,10.81-23.2l6-12.71,6.36-13.57,6.82-14.52"/><path class="cls-16" d="M609.92,579.33a3.62,3.62,0,0,0-.63.27,2.82,2.82,0,0,0-.51.38,2.93,2.93,0,0,0-.4.46,3.85,3.85,0,0,0-.3.53,60.18,60.18,0,0,1-6.33,10.49,76.5,76.5,0,0,1-8,9.06,103.57,103.57,0,0,1-9.25,7.91c-3.21,2.46-6.56,4.78-10,7-6,3.83-11.92,7.25-17.92,10.32s-11.87,5.73-17.83,8.17-11.84,4.57-17.78,6.52-11.78,3.69-17.68,5.31q-9.93,2.71-19.74,4.95t-19.38,4q-9.6,1.74-19.16,3.05t-19.05,2.2l-10.65,1c-3.53.32-7.06.62-10.59.88s-7,.48-10.55.64-7,.26-10.52.28l-4.37,0-4.36,0-4.36,0h-4.37l-6,0c-2,0-4,0-6-.09s-4-.09-6-.16-4-.16-6.05-.27c-2.9-.16-5.8-.32-8.7-.5s-5.82-.38-8.72-.59-5.82-.45-8.73-.71-5.83-.55-8.74-.87c-4.07-.45-8.15-.94-12.24-1.5s-8.21-1.17-12.33-1.84-8.28-1.4-12.44-2.2-8.36-1.66-12.57-2.59c-5.55-1.24-11.1-2.56-16.66-4s-11.19-3-16.79-4.78-11.32-3.68-17-5.81-11.49-4.5-17.28-7.1c-3.78-1.7-7.53-3.5-11.23-5.43s-7.43-4-11.06-6.25-7.26-4.68-10.79-7.3-7.05-5.5-10.45-8.59q-2.66-2.43-5-5T136.77,592c-1.44-1.79-2.8-3.63-4.1-5.51s-2.54-3.84-3.72-5.82q4.59,10.1,9,19.66,4.29,9.33,8.42,18.19,4,8.65,7.88,16.89,3.76,8,7.38,15.72a4.39,4.39,0,0,0,.27.47c.11.16.23.31.35.47l.38.46c.13.16.26.31.37.47a68,68,0,0,0,6.91,7.84,80.18,80.18,0,0,0,7.91,6.75c2.77,2.08,5.69,4,8.73,5.88s6.16,3.56,9.4,5.21q6.62,3.38,13.26,6.17c4.39,1.86,8.79,3.54,13.21,5.09s8.77,2.93,13.19,4.22,8.78,2.45,13.19,3.53q9.38,2.33,18.62,4.15c6.13,1.23,12.24,2.3,18.32,3.25s12.11,1.77,18.16,2.48S316,708.85,322,709.37q5.73.5,11.44.84c3.79.23,7.59.42,11.37.58s7.56.27,11.34.35,7.54.15,11.3.19h3.45q3.35,0,6.71-.06t6.74-.17c2.25-.08,4.51-.16,6.76-.26l6.78-.33q6.19-.33,12.38-.79t12.39-1c4.15-.4,8.29-.85,12.45-1.34s8.36-1.05,12.55-1.66q9.15-1.32,18.28-3t18.38-3.85c6.18-1.46,12.37-3.1,18.57-5s12.56-4,18.9-6.34c3.08-1.15,6.15-2.36,9.18-3.66s6.08-2.68,9.07-4.15,6-3.06,8.89-4.76,5.84-3.54,8.68-5.5c1.73-1.19,3.37-2.44,4.94-3.73s3.09-2.66,4.55-4,2.88-2.83,4.26-4.3,2.74-3,4.07-4.52l7.67-16.34,8.26-17.6,8.92-19,9.66-20.6"/><path class="cls-16" d="M671.78,449.42a39.59,39.59,0,0,0-3.95,5.33c-1.13,1.8-2.12,3.62-3.09,5.44s-1.91,3.61-3,5.39a44.76,44.76,0,0,1-3.52,5.23,204.1,204.1,0,0,1-15.53,17.47,197.66,197.66,0,0,1-16,14.41c-5.38,4.34-10.89,8.33-16.49,12s-11.17,7-16.88,10.18c-7.14,4-14.2,7.53-21.19,10.81s-13.78,6.19-20.6,8.88-13.48,5.09-20.17,7.3-13.24,4.19-19.83,6-13.3,3.52-19.88,5-13.06,2.85-19.54,4.06-12.88,2.29-19.29,3.26-12.77,1.84-19.14,2.62c-4.73.58-9.44,1-14.15,1.44s-9.37.7-14.05,1-9.33.51-14,.75-9.3.48-13.95.75l-2.39.13-2.38.08c-.8,0-1.59,0-2.39,0l-2.38,0c-3.25,0-6.51-.09-9.77-.23s-6.52-.33-9.79-.55l-9.82-.69c-3.28-.23-6.56-.46-9.84-.65-4.64-.26-9.26-.61-13.9-1s-9.27-.93-13.92-1.5-9.34-1.2-14-1.9-9.41-1.45-14.14-2.25c-9.54-1.61-19.1-3.5-28.68-5.73s-19.37-4.87-29.15-7.91S195.11,548,185,544c-10.25-4.11-20.65-8.78-31.24-14.11-4.87-2.44-9.72-5-14.55-7.84s-9.71-5.87-14.51-9.17-9.67-6.95-14.43-10.89-9.61-8.32-14.33-13.06c-2.74-2.75-5.41-5.55-8-8.41s-5.11-5.84-7.48-8.89-4.68-6.27-6.8-9.59a107.59,107.59,0,0,1-5.92-10.47q7.31,16.08,14.23,31.1,6.69,14.55,13,28.19,6.15,13.24,12,25.69,5.65,12.11,11,23.52a7.06,7.06,0,0,0,.4.68c.15.22.32.45.49.67l.54.68c.17.23.34.45.5.68a100.37,100.37,0,0,0,9.72,12,116.41,116.41,0,0,0,10.89,10.1c3.76,3.08,7.68,5.94,11.7,8.61s8,5.12,12.15,7.46q8.44,4.79,16.87,8.73c5.56,2.61,11.12,5,16.67,7.15s11,4.09,16.54,5.88,10.93,3.41,16.39,4.92,11,2.93,16.46,4.21,10.82,2.44,16.19,3.5,10.7,2,16,2.88,10.61,1.64,15.92,2.34q7.41,1,14.78,1.77t14.66,1.4q7.3.6,14.58,1t14.55.52l3.84.06,3.84,0,3.83,0h3.84c3.48,0,6.95,0,10.43-.08s7-.14,10.44-.26,7-.28,10.47-.47,7-.43,10.51-.71c3-.24,5.91-.48,8.87-.74s5.92-.53,8.88-.83,5.94-.61,8.9-1,5.95-.73,8.93-1.15q8.87-1.25,17.79-2.81c6-1.06,12-2.23,18-3.55s12.12-2.78,18.23-4.41,12.34-3.44,18.58-5.43q6.74-2.16,13.49-4.59t13.59-5.3q6.84-2.87,13.68-6.18T574,600.6c4.13-2.36,8.18-4.87,12.11-7.57s7.82-5.62,11.55-8.73a145.22,145.22,0,0,0,10.89-10.08,141,141,0,0,0,10.12-11.64l11.44-24.4,12.55-26.75L656.5,482l15.28-32.57"/></g></g><text class="cls-18" transform="matrix(0.86, -0.5, 0.5, 0.86, 368.81, 809.1)"><tspan class="cls-19">ww</tspan><tspan class="cls-20" x="37.4" y="0">w</tspan><tspan x="54.82" y="0">.rstudi</tspan><tspan class="cls-21" x="120.07" y="0">o</tspan><tspan x="133.2" y="0">.</tspan><tspan class="cls-22" x="138.37" y="0">c</tspan><tspan class="cls-23" x="149.42" y="0">om</tspan></text><path class="cls-3" d="M705.61,196.21,427.81,35.82,367.5,1,307.19,35.82,29.37,196.22.09,213.13V637.38l29.28,16.91L310.65,816.68l56.85,32.83,56.85-32.83L705.61,654.3l29.3-16.92V213.13Zm0,425.26L367.49,816.68,29.37,621.47V231L367.49,35.82h0L705.61,231Z"/><polygon class="cls-1" points="369.51 979.04 728.21 1186.11 728.21 1608.26 369.51 1816.67 2.79 1608.26 2.79 1186.11 369.51 979.04"/><g class="cls-24"><path class="cls-6" d="M683.21,1078.72c0,129.58-141.14,234.63-315.24,234.63s-315.25-105-315.25-234.63S193.86,844.09,368,844.09,683.21,949.14,683.21,1078.72Z"/></g><g class="cls-4"><polygon class="cls-3" points="383.47 185.75 383.45 192.21 331.37 192.21 331.33 185.75 383.47 185.75"/><polygon class="cls-3" points="387.55 241.4 387.52 247.85 385.55 247.85 385.57 241.4 387.55 241.4"/><polygon class="cls-3" points="327.14 243.52 327.18 249.97 274.76 249.97 274.67 243.52 327.14 243.52"/><polygon class="cls-3" points="389.53 244.4 389.51 250.85 387.53 250.85 387.56 244.4 389.53 244.4"/><polygon class="cls-16" points="389.53 241.4 389.53 244.4 387.56 244.4 384.8 245.3 384.8 240.4 387.55 241.4 389.53 241.4"/><polygon class="cls-3" points="440.05 244.4 439.97 250.85 438 250.85 438.07 244.4 440.05 244.4"/><polygon class="cls-16" points="396.47 244.4 396.46 241.4 403.39 241.4 403.4 244.4 396.47 244.4"/><polygon class="cls-16" points="424.18 241.4 431.11 241.4 431.14 244.4 424.2 244.4 424.18 241.4"/><polygon class="cls-3" points="431.14 244.4 431.07 250.85 424.14 250.85 424.2 244.4 431.14 244.4"/><polygon class="cls-16" points="410.33 244.4 410.32 241.4 417.25 241.4 417.27 244.4 410.33 244.4"/><polygon class="cls-3" points="403.4 244.4 403.36 250.85 396.44 250.85 396.47 244.4 403.4 244.4"/><polygon class="cls-3" points="417.27 244.4 417.21 250.85 410.29 250.85 410.33 244.4 417.27 244.4"/><polygon class="cls-3" points="444.02 245.91 443.94 252.36 439.99 252.36 440.06 245.91 444.02 245.91"/><polygon class="cls-16" points="443.98 241.4 444.02 245.91 440.06 245.91 440.05 244.4 438.07 244.4 438.05 241.4 443.98 241.4"/><polygon class="cls-3" points="444.13 258.08 444.05 264.52 440.09 264.52 440.17 258.08 444.13 258.08"/><polygon class="cls-16" points="440.11 251.99 444.07 251.99 444.13 258.08 440.17 258.08 440.11 251.99"/><polygon class="cls-16" points="440.27 270.28 440.22 264.18 444.19 264.18 444.24 270.28 440.27 270.28"/><polygon class="cls-3" points="444.24 270.28 444.16 276.73 440.19 276.73 440.27 270.28 444.24 270.28"/><polygon class="cls-3" points="444.35 282.53 444.27 288.96 440.3 288.96 440.38 282.53 444.35 282.53"/><polygon class="cls-16" points="440.38 282.53 440.32 276.4 444.3 276.4 444.35 282.53 440.38 282.53"/><polygon class="cls-3" points="497.17 288.68 497.03 295.12 495.04 295.12 495.18 288.68 497.17 288.68"/><polygon class="cls-16" points="446.37 285.65 446.4 288.68 444.41 288.68 442.42 288.68 442.42 288.65 442.39 285.65 446.37 285.65"/><polygon class="cls-3" points="446.4 288.68 446.31 295.12 444.32 295.12 444.41 288.68 446.4 288.68"/><polygon class="cls-3" points="444.41 288.68 444.32 295.12 442.34 295.12 442.42 288.68 444.41 288.68"/><polygon class="cls-16" points="481.2 285.65 488.17 285.65 488.21 288.68 481.24 288.68 481.2 285.65"/><polygon class="cls-3" points="488.21 288.68 488.08 295.12 481.12 295.12 481.24 288.68 488.21 288.68"/><polygon class="cls-16" points="467.3 288.68 467.27 285.65 474.23 285.65 474.27 288.68 467.3 288.68"/><polygon class="cls-3" points="474.27 288.68 474.16 295.12 467.2 295.12 467.3 288.68 474.27 288.68"/><polygon class="cls-16" points="453.37 288.68 453.33 285.65 460.3 285.65 460.33 288.68 453.37 288.68"/><polygon class="cls-3" points="460.33 288.68 460.24 295.12 453.27 295.12 453.37 288.68 460.33 288.68"/><polygon class="cls-16" points="501.11 285.65 501.18 290.2 497.19 290.2 497.17 288.68 495.18 288.68 495.13 285.65 501.11 285.65"/><polygon class="cls-3" points="501.18 290.2 501.04 296.64 497.05 296.64 497.19 290.2 501.18 290.2"/><polygon class="cls-3" points="270.16 294.02 270.25 300.46 217.52 300.46 217.36 294.02 270.16 294.02"/><polygon class="cls-3" points="444.46 294.8 444.38 301.23 440.4 301.23 440.48 294.8 444.46 294.8"/><polygon class="cls-16" points="442.42 288.65 442.42 288.68 444.41 288.68 444.46 294.8 440.48 294.8 440.43 288.65 442.42 288.65"/><polygon class="cls-16" points="497.29 296.77 501.28 296.77 501.38 303.34 497.39 303.34 497.29 296.77"/><polygon class="cls-3" points="501.38 303.34 501.24 309.77 497.25 309.77 497.39 303.34 501.38 303.34"/><polygon class="cls-3" points="444.57 307.11 444.49 313.54 440.51 313.54 440.59 307.11 444.57 307.11"/><polygon class="cls-16" points="440.59 307.11 440.54 300.95 444.52 300.95 444.57 307.11 440.59 307.11"/><polygon class="cls-3" points="501.58 316.51 501.44 322.94 497.45 322.94 497.59 316.51 501.58 316.51"/><polygon class="cls-16" points="497.59 316.51 497.49 309.92 501.48 309.92 501.58 316.51 497.59 316.51"/><polygon class="cls-3" points="444.69 319.45 444.6 325.88 440.62 325.88 440.69 319.45 444.69 319.45"/><polygon class="cls-16" points="440.69 319.45 440.64 313.27 444.63 313.27 444.69 319.45 440.69 319.45"/><polygon class="cls-3" points="501.79 329.72 501.65 336.15 497.65 336.15 497.79 329.72 501.79 329.72"/><polygon class="cls-16" points="497.79 329.72 497.69 323.11 501.69 323.11 501.79 329.72 497.79 329.72"/><polygon class="cls-16" points="440.8 331.82 440.75 325.63 444.74 325.63 444.8 331.82 440.8 331.82"/><polygon class="cls-3" points="444.8 331.82 444.72 338.25 440.72 338.25 440.8 331.82 444.8 331.82"/><polygon class="cls-3" points="501.98 341.92 501.84 348.34 499.83 348.34 499.97 341.92 501.98 341.92"/><polygon class="cls-3" points="499.99 342.98 499.85 349.39 497.85 349.39 497.99 342.98 499.99 342.98"/><polygon class="cls-16" points="497.99 342.98 497.88 336.34 501.89 336.34 501.98 341.92 499.97 341.92 499.99 342.98 497.99 342.98"/><polygon class="cls-16" points="440.91 344.24 440.86 338.03 444.86 338.03 444.91 344.24 440.91 344.24"/><polygon class="cls-3" points="444.91 344.24 444.83 350.66 440.83 350.66 440.91 344.24 444.91 344.24"/><polygon class="cls-16" points="503.98 341.92 504.03 344.99 500.02 344.99 499.99 342.98 499.97 341.92 501.98 341.92 503.98 341.92"/><polygon class="cls-3" points="555.12 344.99 554.92 351.41 552.92 351.41 553.11 344.99 555.12 344.99"/><polygon class="cls-3" points="504.03 344.99 503.88 351.41 499.88 351.41 500.02 344.99 504.03 344.99"/><polygon class="cls-3" points="518.05 344.99 517.9 351.41 510.89 351.41 511.04 344.99 518.05 344.99"/><polygon class="cls-16" points="511.04 344.99 510.99 341.92 518 341.92 518.05 344.99 511.04 344.99"/><polygon class="cls-3" points="532.07 344.99 531.9 351.41 524.89 351.41 525.06 344.99 532.07 344.99"/><polygon class="cls-16" points="525.06 344.99 525 341.92 532.01 341.92 532.07 344.99 525.06 344.99"/><polygon class="cls-3" points="546.1 344.99 545.91 351.41 538.91 351.41 539.09 344.99 546.1 344.99"/><polygon class="cls-16" points="539.03 341.92 546.04 341.92 546.1 344.99 539.09 344.99 539.03 341.92"/><polygon class="cls-16" points="559.06 341.92 559.16 346.53 555.15 346.53 555.12 344.99 553.11 344.99 553.05 341.92 559.06 341.92"/><polygon class="cls-3" points="559.16 346.53 558.96 352.95 554.95 352.95 555.15 346.53 559.16 346.53"/><polygon class="cls-3" points="502.2 356.27 502.06 362.68 498.05 362.68 498.19 356.27 502.2 356.27"/><polygon class="cls-16" points="498.19 356.27 498.08 349.62 502.1 349.62 502.2 356.27 498.19 356.27"/><polygon class="cls-3" points="445.02 356.69 444.94 363.11 440.94 363.11 441.02 356.69 445.02 356.69"/><polygon class="cls-16" points="441.02 356.69 440.96 350.46 444.97 350.46 445.02 356.69 441.02 356.69"/><polygon class="cls-3" points="559.4 357.45 559.2 363.87 555.19 363.87 555.38 357.45 559.4 357.45"/><polygon class="cls-16" points="559.28 351.98 559.4 357.45 555.38 357.45 555.27 351.98 559.28 351.98"/><polygon class="cls-3" points="216.16 366.01 216.31 372.42 212.3 372.42 212.15 366.01 216.16 366.01"/><polygon class="cls-16" points="559.52 362.92 559.59 366.01 555.57 366.01 555.5 362.92 559.52 362.92"/><polygon class="cls-16" points="270.19 290.98 270.16 294.02 217.36 294.02 216.16 366.01 212.15 366.01 213.44 290.98 270.19 290.98"/><polygon class="cls-3" points="502.35 366.01 502.21 372.42 498.19 372.42 498.33 366.01 502.35 366.01"/><polygon class="cls-16" points="502.31 362.92 502.35 366.01 498.33 366.01 498.29 362.92 502.31 362.92"/><polygon class="cls-3" points="445.11 366.01 445.02 372.42 441.02 372.42 441.1 366.01 445.11 366.01"/><polygon class="cls-16" points="445.08 362.92 445.11 366.01 441.1 366.01 441.07 362.92 445.08 362.92"/><polygon class="cls-3" points="330.64 366.01 330.67 372.42 326.66 372.42 326.62 366.01 330.64 366.01"/><polygon class="cls-3" points="387.87 366.01 387.85 372.42 383.84 372.42 383.86 366.01 387.87 366.01"/><polygon class="cls-16" points="387.39 182.79 387.55 241.4 385.57 241.4 385.58 244.4 387.56 244.4 387.87 366.01 383.86 366.01 383.47 185.75 331.33 185.75 330.64 366.01 326.62 366.01 327.14 243.52 327.16 240.52 327.4 182.79 387.39 182.79"/><polygon class="cls-3" points="273.4 366.01 273.5 372.42 269.48 372.42 269.38 366.01 273.4 366.01"/><polygon class="cls-16" points="327.16 240.52 327.14 243.52 274.67 243.52 273.4 366.01 269.38 366.01 270.16 294.02 270.19 290.98 270.73 240.52 327.16 240.52"/><polygon class="cls-3" points="559.59 366.01 559.39 372.42 555.37 372.42 555.57 366.01 559.59 366.01"/><path class="cls-3" d="M158.83,400.78l.22,6.4v.28l-.22-6.4v-.28Z"/><g class="cls-25"><g class="cls-26"><path class="cls-3" d="M158.83,400.78l.22,6.4v.28l-.22-6.4v-.28"/></g></g><path class="cls-3" d="M531.39,401.43c-.06,2.13-.12,4.27-.17,6.4a4,4,0,0,1-.51,1.84,4.74,4.74,0,0,1-1.35,1.49,6.53,6.53,0,0,1-2.09,1,10,10,0,0,1-2.74.36l.17-6.4a10,10,0,0,0,2.74-.36,6.7,6.7,0,0,0,2.1-1,4.6,4.6,0,0,0,1.34-1.49A3.91,3.91,0,0,0,531.39,401.43Z"/><g class="cls-27"><g class="cls-26"><path class="cls-3" d="M531.39,401.43l-.17,6.4c0,.08,0,.16,0,.23a1.64,1.64,0,0,1,0,.23c0,.08,0,.16,0,.23s0,.15,0,.22l.17-6.4a1.74,1.74,0,0,0,0-.22,1.85,1.85,0,0,0,0-.23l0-.23c0-.07,0-.15,0-.23"/><path class="cls-3" d="M531.26,402.34l-.17,6.4c0,.14-.08.27-.13.4a3,3,0,0,1-.17.37c-.06.13-.13.25-.2.37s-.16.23-.25.34l.17-6.4c.09-.11.17-.22.25-.34l.21-.37c.06-.12.11-.25.16-.37s.09-.26.13-.4"/><path class="cls-3" d="M530.51,403.82l-.17,6.4a1.15,1.15,0,0,1-.14.17l-.15.17-.16.15c0,.06-.11.11-.16.16l.17-6.4.17-.16.16-.15a2.09,2.09,0,0,0,.14-.17,1.15,1.15,0,0,0,.14-.17"/><path class="cls-3" d="M529.9,404.47l-.17,6.4c-.11.09-.23.19-.36.28l-.38.26-.42.23-.45.21.17-6.4a4.54,4.54,0,0,0,.45-.21l.42-.23.39-.26c.12-.09.24-.18.35-.28"/><path class="cls-3" d="M528.29,405.45l-.17,6.4-.28.11-.29.11-.31.09-.31.08.17-6.4.31-.08.31-.09.29-.11.28-.11"/><path class="cls-3" d="M527.1,405.84l-.17,6.4-.29.07-.31.05-.31.05-.33,0,.17-6.4.32,0,.32-.05.3,0,.3-.07"/><path class="cls-3" d="M525.86,406.05l-.17,6.4-.28,0-.29,0h-.59l.17-6.4h.59l.29,0,.28,0"/></g></g><path class="cls-3" d="M518,407.27l.16-6.4v.19a4.31,4.31,0,0,0,.51,2,5.07,5.07,0,0,0,1.36,1.61,6.66,6.66,0,0,0,2.05,1.08,8.48,8.48,0,0,0,2.59.39l-.17,6.4a8.48,8.48,0,0,1-2.59-.39,6.72,6.72,0,0,1-2-1.08,5.07,5.07,0,0,1-1.36-1.61,4.43,4.43,0,0,1-.51-2v-.19Z"/><g class="cls-28"><g class="cls-26"><path class="cls-3" d="M524.7,406.11l-.17,6.4h-.24l.17-6.4h.24"/><path class="cls-3" d="M524.46,406.11l-.17,6.4-.33,0-.33,0-.32,0-.32-.05.17-6.4.31,0,.32,0,.33,0,.34,0"/><path class="cls-3" d="M523.16,406l-.17,6.4a7.34,7.34,0,0,1-2-.65,5.94,5.94,0,0,1-1.56-1.11,5,5,0,0,1-1-1.45,4.49,4.49,0,0,1-.38-1.71v-.19l.16-6.4v.19a4.53,4.53,0,0,0,.38,1.71,5,5,0,0,0,1,1.45,5.94,5.94,0,0,0,1.56,1.11,7.41,7.41,0,0,0,2,.65"/></g></g><path class="cls-29" d="M524.7,406.11a8.48,8.48,0,0,1-2.59-.39,6.66,6.66,0,0,1-2.05-1.08A5.07,5.07,0,0,1,518.7,403a4.31,4.31,0,0,1-.51-2,4.38,4.38,0,0,1,.46-2A4.88,4.88,0,0,1,520,397.4a6.41,6.41,0,0,1,2.08-1.08,8.65,8.65,0,0,1,2.67-.4,8.77,8.77,0,0,1,2.71.4,6.41,6.41,0,0,1,2.08,1.08,5.2,5.2,0,0,1,1.34,1.63,4.67,4.67,0,0,1,.49,2,4,4,0,0,1-.37,2,4.48,4.48,0,0,1-1.32,1.61,6.72,6.72,0,0,1-2.14,1.08A9.92,9.92,0,0,1,524.7,406.11Z"/><path class="cls-3" d="M145.87,407.72l-.23-6.4a4.33,4.33,0,0,0,.52,1.88,4.82,4.82,0,0,0,1.3,1.52,6.45,6.45,0,0,0,2,1,8.31,8.31,0,0,0,2.51.37l.22,6.4a8.2,8.2,0,0,1-2.5-.37,6.34,6.34,0,0,1-2-1,4.85,4.85,0,0,1-1.31-1.52A4.32,4.32,0,0,1,145.87,407.72Z"/><g class="cls-30"><g class="cls-26"><path class="cls-3" d="M151.94,406.11l.22,6.4h-.24l-.22-6.4h.24"/><path class="cls-3" d="M151.7,406.11l.22,6.4-.34,0-.32,0-.32,0-.32-.05-.22-6.4.31,0,.32,0,.33,0,.34,0"/><path class="cls-3" d="M150.4,406l.22,6.4a7.51,7.51,0,0,1-1.91-.62,5.53,5.53,0,0,1-1.48-1,4.67,4.67,0,0,1-1-1.38,4.06,4.06,0,0,1-.39-1.62l-.23-6.4a4.24,4.24,0,0,0,.39,1.62,4.67,4.67,0,0,0,1,1.38,5.75,5.75,0,0,0,1.49,1,7.38,7.38,0,0,0,1.91.62"/></g></g><path class="cls-29" d="M151.94,406.11a8.36,8.36,0,0,1-2.58-.39,6.38,6.38,0,0,1-2-1.08,4.71,4.71,0,0,1-1.29-1.61,4.37,4.37,0,0,1-.43-2,4.46,4.46,0,0,1,.55-2,5.21,5.21,0,0,1,1.42-1.63,6.78,6.78,0,0,1,2.13-1.08,8.81,8.81,0,0,1,2.68-.4,8.7,8.7,0,0,1,2.7.4,6.05,6.05,0,0,1,2,1.08,4.72,4.72,0,0,1,1.27,1.63,4.48,4.48,0,0,1,.41,2,3.92,3.92,0,0,1-.46,2,4.77,4.77,0,0,1-1.38,1.61,7.06,7.06,0,0,1-2.18,1.08A10.16,10.16,0,0,1,151.94,406.11Z"/><path class="cls-3" d="M158.83,401.06l.22,6.4a4.14,4.14,0,0,1-.46,2,4.77,4.77,0,0,1-1.38,1.61,7.06,7.06,0,0,1-2.18,1.08,10.16,10.16,0,0,1-2.87.39l-.22-6.4a10.16,10.16,0,0,0,2.87-.39,7.06,7.06,0,0,0,2.18-1.08,4.77,4.77,0,0,0,1.38-1.61A3.92,3.92,0,0,0,158.83,401.06Z"/><g class="cls-31"><g class="cls-26"><path class="cls-3" d="M158.83,401.06l.22,6.4v.31l-.21-6.41v-.3"/><path class="cls-3" d="M158.83,401.36l.21,6.41a2.29,2.29,0,0,1,0,.25l0,.24a2,2,0,0,0-.05.24c0,.08-.05.16-.07.24l-.21-6.4.06-.24a2,2,0,0,0,.05-.24,1.87,1.87,0,0,0,0-.25c0-.08,0-.16,0-.25"/><path class="cls-3" d="M158.66,402.34l.21,6.4c0,.14-.09.27-.14.4s-.12.25-.19.37a3.69,3.69,0,0,1-.48.71l-.21-6.4c.09-.11.18-.22.26-.34s.15-.24.22-.37a3.14,3.14,0,0,0,.18-.37c.06-.13.1-.26.15-.4"/><path class="cls-3" d="M157.85,403.82l.21,6.4a1.15,1.15,0,0,1-.14.17l-.16.17-.16.15-.18.16-.21-6.4.17-.16.17-.15.15-.17.15-.17"/><path class="cls-3" d="M157.21,404.47l.21,6.4-.36.28c-.13.09-.26.18-.4.26s-.28.16-.43.23a3.82,3.82,0,0,1-.46.21l-.22-6.4a3.22,3.22,0,0,0,.46-.21,4.34,4.34,0,0,0,.43-.23c.14-.08.27-.17.4-.26l.37-.28"/><path class="cls-3" d="M155.55,405.45l.22,6.4-.28.11-.3.11-.3.09-.32.08-.22-6.4.32-.08.3-.09.3-.11.28-.11"/><path class="cls-3" d="M154.35,405.84l.22,6.4-.3.07-.31.05-.31.05-.33,0-.22-6.4.33,0,.31-.05.31,0,.3-.07"/><path class="cls-3" d="M153.1,406.05l.22,6.4-.28,0-.29,0h-.59l-.22-6.4h.59l.29,0,.28,0"/></g></g><polygon class="cls-32" points="111.24 420.07 111.5 426.47 102.42 426.47 102.14 420.07 111.24 420.07"/><polygon class="cls-32" points="136.94 420.07 137.18 426.47 121.92 426.47 121.66 420.07 136.94 420.07"/><polygon class="cls-32" points="601.68 420.07 601.43 426.47 592.35 426.47 592.59 420.07 601.68 420.07"/><polygon class="cls-32" points="627.37 420.07 627.1 426.47 611.84 426.47 612.1 420.07 627.37 420.07"/><polygon class="cls-32" points="587.74 415.19 587.51 421.59 585.24 427.97 585.47 421.58 587.74 415.19"/><path class="cls-3" d="M293,424.54l.07,6.39c0-1,0-2-.05-2.92s-.05-1.85-.09-2.74-.06-1.75-.1-2.6-.07-1.67-.11-2.48l-.08-6.4q.06,1.21.12,2.49c0,.84.07,1.71.1,2.6s.06,1.8.08,2.74S293,423.53,293,424.54Z"/><g class="cls-33"><g class="cls-26"><path class="cls-3" d="M293,424.54l.07,6.39c0-1,0-2-.05-2.92s-.05-1.85-.09-2.74-.06-1.75-.1-2.6-.07-1.67-.11-2.48l-.08-6.4q.06,1.21.12,2.49c0,.84.07,1.71.1,2.6s.06,1.8.08,2.74.05,1.91.06,2.92"/></g></g><path class="cls-3" d="M212.24,431.69q.07,3.19.16,6.39c0-.23,0-.48,0-.73s0-.49-.07-.74-.08-.49-.13-.73a6.55,6.55,0,0,0-.18-.67l-.16-6.39a5.92,5.92,0,0,1,.18.67c.05.24.09.48.13.73s.05.5.07.74S212.23,431.45,212.24,431.69Z"/><g class="cls-34"><g class="cls-26"><path class="cls-3" d="M212.24,431.69l.16,6.39c0-.23,0-.48,0-.73s0-.49-.07-.74-.08-.49-.13-.73a6.55,6.55,0,0,0-.18-.67l-.16-6.39a5.92,5.92,0,0,1,.18.67c.05.24.09.48.13.73s.05.5.07.74,0,.49,0,.73"/></g></g><path class="cls-3" d="M432.92,432.11l-.07,6.39a14.47,14.47,0,0,0-.61-4.32,12.53,12.53,0,0,0-2.31-4.38,12,12,0,0,0-4.57-3.38,18.43,18.43,0,0,0-7.39-1.36,18.17,18.17,0,0,0-7,1.29,14.94,14.94,0,0,0-4.9,3.28,15.86,15.86,0,0,0-3,4.35,16.3,16.3,0,0,0-1.38,4.52l0-6.39a16.3,16.3,0,0,1,1.38-4.52,16.06,16.06,0,0,1,3-4.36,14.91,14.91,0,0,1,4.91-3.27,18.18,18.18,0,0,1,7-1.29,18.65,18.65,0,0,1,7.39,1.35,12.07,12.07,0,0,1,4.58,3.39,12.57,12.57,0,0,1,2.31,4.37A14.26,14.26,0,0,1,432.92,432.11Z"/><g class="cls-35"><g class="cls-26"><path class="cls-3" d="M432.92,432.11l-.07,6.39a14.9,14.9,0,0,0-.46-3.79,12.92,12.92,0,0,0-1.73-3.92,11.66,11.66,0,0,0-3.37-3.34,14.51,14.51,0,0,0-5.42-2.06l.06-6.4a14.61,14.61,0,0,1,5.42,2.06,11.61,11.61,0,0,1,3.38,3.35,12.92,12.92,0,0,1,1.73,3.92,14.9,14.9,0,0,1,.46,3.79"/><path class="cls-3" d="M421.93,419l-.06,6.4c-.24,0-.5-.09-.76-.12l-.79-.1-.83-.06-.86,0,.05-6.39c.29,0,.58,0,.86,0l.83.07.8.09.76.12"/><path class="cls-3" d="M418.68,418.68l-.05,6.39H417.4l-.55,0-.55,0-.53.05.05-6.4.53,0,.55,0,.56,0h1.22"/><path class="cls-3" d="M415.82,418.78l-.05,6.4-.63.07-.61.1-.59.11-.58.13.05-6.4.58-.13.59-.11.61-.09.63-.08"/><path class="cls-3" d="M413.41,419.19l-.05,6.4-.64.17-.62.19q-.3.09-.6.21l-.58.23L411,420l.58-.23.6-.21.62-.19.64-.17"/><path class="cls-3" d="M411,420l-.05,6.4c-.38.15-.74.32-1.09.5s-.69.38-1,.58-.64.41-.94.63a10.15,10.15,0,0,0-.87.69l0-6.4c.28-.23.57-.46.87-.68s.62-.44.94-.64.67-.39,1-.57.71-.35,1.09-.51"/><path class="cls-3" d="M407.05,422.39l0,6.4-.56.5c-.18.17-.36.34-.52.52s-.34.35-.5.54-.31.36-.46.55l0-6.39c.15-.19.31-.38.47-.56s.32-.36.49-.54l.52-.52.56-.5"/><path class="cls-3" d="M405,424.51l0,6.39c-.35.45-.68.91-1,1.38s-.56,1-.8,1.44-.45,1-.64,1.45-.34,1-.47,1.45l0-6.39c.13-.48.29-1,.47-1.45s.4-1,.64-1.46a17.12,17.12,0,0,1,1.78-2.81"/><path class="cls-3" d="M402.12,430.23l0,6.39c-.05.16-.09.32-.13.48s-.07.32-.1.47-.07.32-.1.47-.05.31-.07.46l0-6.39c0-.15,0-.31.07-.46l.09-.47c0-.15.07-.31.11-.47s.08-.32.13-.48"/></g></g><path class="cls-3" d="M494.1,432.3l-.14,6.39a8.07,8.07,0,0,0,0-.83c0-.3-.05-.6-.09-.91s-.1-.61-.17-.91a6.7,6.7,0,0,0-.24-.83l.13-6.39a6.71,6.71,0,0,1,.25.83c.06.3.12.6.16.91s.08.61.1.9S494.09,432,494.1,432.3Z"/><g class="cls-36"><g class="cls-26"><path class="cls-3" d="M494.1,432.3l-.14,6.39a8.07,8.07,0,0,0,0-.83c0-.3-.05-.6-.09-.91s-.1-.61-.17-.91a6.7,6.7,0,0,0-.24-.83l.13-6.39a6.71,6.71,0,0,1,.25.83c.06.3.12.6.16.91s.08.61.1.9,0,.58,0,.84"/></g></g><path class="cls-3" d="M552.5,442.07l.19-6.39a16.25,16.25,0,0,1,1.48-6.37,15.17,15.17,0,0,1,3.93-5.16,18.53,18.53,0,0,1,6.33-3.47,27.85,27.85,0,0,1,8.62-1.26c1.46,0,2.8.06,4,.18a33.32,33.32,0,0,1,3.39.48,25.66,25.66,0,0,1,2.78.69,19.7,19.7,0,0,1,2.21.81l-.23,6.39a21.89,21.89,0,0,0-2.21-.81,27.54,27.54,0,0,0-2.78-.69q-1.53-.3-3.39-.48c-1.23-.11-2.57-.18-4-.18a27.54,27.54,0,0,0-8.62,1.27,18.73,18.73,0,0,0-6.32,3.46,15.2,15.2,0,0,0-3.93,5.17A16.15,16.15,0,0,0,552.5,442.07Z"/><g class="cls-37"><g class="cls-26"><path class="cls-3" d="M585.47,421.58l-.23,6.39c-.35-.15-.72-.3-1.12-.44s-.82-.29-1.28-.43-.94-.26-1.45-.38-1-.24-1.62-.34L580,420q.86.15,1.62.33c.51.12,1,.25,1.45.39s.88.28,1.28.42.77.3,1.12.45"/><path class="cls-3" d="M580,420l-.23,6.39-1.28-.2c-.45-.06-.91-.12-1.38-.16s-1-.09-1.48-.12-1-.06-1.58-.07l.22-6.4,1.58.07c.51,0,1,.07,1.48.12l1.38.16c.44.07.87.13,1.29.21"/><path class="cls-3" d="M574.27,419.43l-.22,6.4h-1.21l-.87,0c-.29,0-.58,0-.86,0l-.83.05-.82.08.22-6.4.81-.07.84-.06.85,0h2.09"/><path class="cls-3" d="M569.68,419.59l-.22,6.4-.92.11-.89.14-.87.16-.85.19.21-6.39L567,420l.87-.17.89-.14.93-.11"/><path class="cls-3" d="M566.14,420.2l-.21,6.39c-.3.08-.59.15-.88.24s-.57.16-.85.26-.56.18-.83.29l-.79.31.2-6.39.8-.32.83-.29.85-.26.88-.23"/><path class="cls-3" d="M562.78,421.3l-.2,6.39c-.46.2-.91.4-1.34.63s-.84.45-1.24.7a13.05,13.05,0,0,0-1.16.78c-.36.27-.72.55-1.05.84l.2-6.39c.34-.29.69-.58,1.06-.85s.75-.53,1.15-.78.82-.48,1.25-.7.87-.43,1.33-.62"/><path class="cls-3" d="M558,424.25l-.2,6.39-.58.53c-.19.18-.37.36-.54.55s-.35.38-.51.57-.33.39-.48.59l.2-6.39c.15-.2.31-.4.48-.59a6.91,6.91,0,0,1,.51-.57c.17-.19.36-.37.54-.55s.38-.36.58-.53"/><path class="cls-3" d="M555.88,426.49l-.2,6.39q-.46.62-.87,1.26a14.36,14.36,0,0,0-.73,1.33c-.22.46-.42.92-.6,1.4s-.32,1-.45,1.46l.19-6.39c.13-.5.29-1,.46-1.46s.38-.94.6-1.4a13.18,13.18,0,0,1,.73-1.33q.4-.64.87-1.26"/><path class="cls-3" d="M553.22,431.94l-.19,6.39c-.08.3-.15.61-.21.91s-.12.62-.16.93-.08.63-.11.94,0,.64,0,1l.19-6.39q0-.48.06-1c0-.31.06-.63.11-.94s.09-.62.15-.93l.21-.91"/></g></g><path class="cls-3" d="M460.54,442.6q.06-3.19.1-6.39a19.51,19.51,0,0,1,1.27-6.78,15.82,15.82,0,0,1,3.43-5.38,15.49,15.49,0,0,1,5.43-3.54,21,21,0,0,1,12.82-.52,16.65,16.65,0,0,1,4.58,2.06,14.07,14.07,0,0,1,3.39,3.05,11.38,11.38,0,0,1,2,3.72l-.13,6.39a11.41,11.41,0,0,0-2-3.72,13.83,13.83,0,0,0-3.38-3.05,16.88,16.88,0,0,0-4.57-2.06,21,21,0,0,0-12.81.52,15.38,15.38,0,0,0-5.42,3.55,15.63,15.63,0,0,0-3.43,5.37A19.51,19.51,0,0,0,460.54,442.6Z"/><g class="cls-38"><g class="cls-26"><path class="cls-3" d="M493.55,428.82l-.13,6.39a11.41,11.41,0,0,0-1.58-3.16,13.44,13.44,0,0,0-2.57-2.72,15.72,15.72,0,0,0-3.46-2.1,19,19,0,0,0-4.23-1.29l.12-6.39a18.31,18.31,0,0,1,4.23,1.28,16.35,16.35,0,0,1,3.47,2.1,13.54,13.54,0,0,1,2.58,2.73,11.11,11.11,0,0,1,1.57,3.16"/><path class="cls-3" d="M481.7,419.55l-.12,6.39-.75-.12-.77-.09-.78-.06-.8,0,.12-6.39c.27,0,.53,0,.8,0l.78.07c.26,0,.52.05.77.09s.51.07.75.12"/><path class="cls-3" d="M478.6,419.24l-.12,6.39H477.3l-.6,0-.59,0-.58.06.12-6.4.58-.05.59,0,.6,0h1.18"/><path class="cls-3" d="M475.65,419.35l-.12,6.4-.68.08-.66.1-.65.12-.63.15.11-6.4.64-.14c.21,0,.43-.09.65-.12l.66-.11.68-.08"/><path class="cls-3" d="M473,419.8l-.11,6.4-.69.18c-.23.07-.45.13-.67.21s-.44.15-.66.23-.43.16-.63.25l.11-6.4.63-.25.66-.23.67-.2.69-.19"/><path class="cls-3" d="M470.37,420.67l-.11,6.4c-.39.16-.77.34-1.13.52s-.72.39-1.06.6-.68.44-1,.68-.63.48-.93.74l.1-6.4c.3-.26.61-.5.94-.74s.65-.46,1-.67.7-.41,1.07-.6.74-.36,1.13-.53"/><path class="cls-3" d="M466.24,423.21l-.1,6.4-.55.49-.52.52-.49.54-.47.57.11-6.39.46-.57c.16-.18.33-.37.5-.54l.52-.52.54-.5"/><path class="cls-3" d="M464.22,425.34l-.11,6.39a13.52,13.52,0,0,0-.92,1.32,14.11,14.11,0,0,0-.79,1.43,15.66,15.66,0,0,0-.66,1.51c-.19.53-.37,1.06-.51,1.61l.1-6.39a16.77,16.77,0,0,1,.51-1.61c.2-.52.42-1,.66-1.52a15.11,15.11,0,0,1,.79-1.42,15.6,15.6,0,0,1,.93-1.32"/><path class="cls-3" d="M461.33,431.21l-.1,6.39c-.11.39-.2.78-.28,1.18s-.15.8-.21,1.21-.1.83-.13,1.25-.06.85-.06,1.28l.1-6.39c0-.43,0-.86.06-1.28s.07-.84.13-1.25.13-.81.21-1.21.17-.79.28-1.18"/><path class="cls-3" d="M460.65,436.13l-.1,6.39v.08l.1-6.39v-.08"/></g></g><path class="cls-3" d="M337.86,436.25l0,6.39a18.33,18.33,0,0,0-1.12-6.49,15.41,15.41,0,0,0-8.79-9.07,20.51,20.51,0,0,0-12.77-.63,18.41,18.41,0,0,0-4.73,2.07,15.54,15.54,0,0,0-3.75,3.22,13.09,13.09,0,0,0-2.39,4.22c-.1.26-.19.53-.28.81s-.17.56-.24.85-.12.58-.17.87a6.33,6.33,0,0,0-.06.86l-.07-6.39a6.23,6.23,0,0,1,.07-.86c0-.29.1-.58.17-.87s.15-.58.24-.85.18-.55.27-.81a13.2,13.2,0,0,1,2.4-4.22,15.44,15.44,0,0,1,3.76-3.23,18.09,18.09,0,0,1,4.73-2.06,19.43,19.43,0,0,1,5.3-.73,19.72,19.72,0,0,1,7.48,1.36,15.59,15.59,0,0,1,5.46,3.67,15.85,15.85,0,0,1,3.34,5.39A18.43,18.43,0,0,1,337.86,436.25Z"/><g class="cls-39"><g class="cls-26"><path class="cls-3" d="M337.86,436.25l0,6.39a18.83,18.83,0,0,0-.86-5.75,16,16,0,0,0-2.59-4.95,15,15,0,0,0-4.23-3.75,17.16,17.16,0,0,0-5.82-2.13l0-6.4a17.17,17.17,0,0,1,5.82,2.14,15.14,15.14,0,0,1,4.24,3.74,16.2,16.2,0,0,1,2.59,5,18.53,18.53,0,0,1,.86,5.75"/><path class="cls-3" d="M324.35,419.66l0,6.4-.78-.13-.81-.09-.83-.07-.84,0-.05-6.39c.29,0,.57,0,.85,0l.83.07.81.1.78.12"/><path class="cls-3" d="M321.08,419.34l.05,6.39H320l-.52,0-.51,0-.52.05,0-6.39.51-.05.51,0,.52,0h1.14"/><path class="cls-3" d="M318.4,419.44l0,6.39-.65.08-.64.1-.64.12-.63.14-.05-6.39.63-.14c.21-.05.43-.09.64-.12l.64-.1.66-.08"/><path class="cls-3" d="M315.83,419.88l.05,6.39-.73.2-.72.22-.7.24-.69.27-.06-6.39.69-.27.71-.25.72-.22.73-.19"/><path class="cls-3" d="M313,420.81l.06,6.39q-.63.27-1.23.57c-.39.2-.78.42-1.16.64s-.75.48-1.1.73-.7.52-1,.8l-.06-6.39c.33-.28.68-.55,1-.8s.72-.5,1.1-.73.77-.44,1.17-.65.81-.39,1.22-.56"/><path class="cls-3" d="M308.46,423.55l.06,6.39-.53.48c-.18.16-.35.32-.51.49s-.33.35-.48.52l-.46.54-.06-6.39c.15-.19.3-.37.46-.54s.31-.35.48-.52.33-.33.51-.5l.53-.47"/><path class="cls-3" d="M306.48,425.58l.06,6.39c-.24.3-.47.61-.68.92s-.41.64-.6,1-.35.67-.51,1-.29.71-.41,1.07c0,.09-.07.19-.1.28s-.07.19-.1.29l-.09.29-.09.3-.07-6.39.09-.3a2.47,2.47,0,0,1,.1-.29l.09-.29c0-.09.07-.19.1-.28.13-.36.27-.72.42-1.07s.33-.69.51-1,.39-.66.6-1,.44-.62.68-.92"/><path class="cls-3" d="M303.89,430.73l.07,6.39c0,.17-.1.34-.14.51s-.08.35-.11.52-.06.35-.08.52,0,.34,0,.51l-.07-6.39c0-.17,0-.34.05-.51a4.67,4.67,0,0,1,.08-.52c0-.17.07-.35.11-.52s.08-.34.13-.51"/><path class="cls-3" d="M303.52,432.79l.07,6.39v.17l-.07-6.39v-.17"/></g></g><path class="cls-3" d="M178.85,444.31l-.2-6.39a2.44,2.44,0,0,0,0-.27v-.56a2.44,2.44,0,0,1,0-.27,20.27,20.27,0,0,1,1.34-7,16.42,16.42,0,0,1,3.57-5.58,16,16,0,0,1,5.6-3.68,20.2,20.2,0,0,1,7.43-1.33,19.78,19.78,0,0,1,5.54.76,16.07,16.07,0,0,1,4.51,2.06,13.39,13.39,0,0,1,3.29,3.05,10.92,10.92,0,0,1,1.89,3.72l.16,6.39a10.92,10.92,0,0,0-1.89-3.72,13.34,13.34,0,0,0-3.28-3.05,16.36,16.36,0,0,0-4.51-2.06,19.76,19.76,0,0,0-5.53-.76,20.11,20.11,0,0,0-7.42,1.33,16.18,16.18,0,0,0-5.6,3.69,16.38,16.38,0,0,0-3.57,5.57,20.27,20.27,0,0,0-1.34,7V444A2.53,2.53,0,0,0,178.85,444.31Z"/><g class="cls-40"><g class="cls-26"><path class="cls-3" d="M211.82,428.82l.16,6.39a11.1,11.1,0,0,0-1.48-3.16,12.79,12.79,0,0,0-2.5-2.72,14.79,14.79,0,0,0-3.39-2.1,17.9,17.9,0,0,0-4.18-1.29l-.18-6.39a17.83,17.83,0,0,1,4.19,1.28,15.58,15.58,0,0,1,3.4,2.1,12.79,12.79,0,0,1,2.49,2.73,10.87,10.87,0,0,1,1.49,3.16"/><path class="cls-3" d="M200.25,419.55l.18,6.39-.75-.12-.77-.09c-.25,0-.51-.05-.78-.06l-.79,0-.18-6.39c.27,0,.54,0,.8,0l.78.07c.26,0,.51.05.77.09s.5.07.74.12"/><path class="cls-3" d="M197.16,419.24l.18,6.39h-1.18l-.6,0-.59,0-.59.06-.17-6.4.58-.05.59,0,.6,0h1.18"/><path class="cls-3" d="M194.21,419.35l.17,6.4-.68.08-.66.1-.66.13-.64.14-.18-6.4.64-.14.66-.12.67-.11.68-.08"/><path class="cls-3" d="M191.56,419.8l.18,6.4-.69.18c-.23.07-.46.13-.68.21s-.45.15-.66.23l-.65.25-.18-6.39.64-.26.67-.23.68-.2.69-.19"/><path class="cls-3" d="M188.88,420.68l.18,6.39c-.39.16-.77.34-1.14.53a11.4,11.4,0,0,0-1.08.6c-.35.21-.69.43-1,.67s-.65.48-1,.74l-.18-6.4c.3-.25.62-.5.95-.74s.67-.46,1-.67.71-.41,1.08-.6.76-.36,1.15-.52"/><path class="cls-3" d="M184.68,423.21l.18,6.4-.56.49c-.18.17-.36.34-.53.52s-.35.36-.52.55l-.48.56-.19-6.39.49-.57q.24-.27.51-.54c.17-.18.35-.35.53-.52s.37-.34.57-.5"/><path class="cls-3" d="M182.58,425.34l.19,6.39c-.34.43-.67.87-1,1.32a15.64,15.64,0,0,0-.83,1.43,15.94,15.94,0,0,0-.7,1.51,15.39,15.39,0,0,0-.57,1.61l-.19-6.39a17,17,0,0,1,.56-1.61c.21-.52.45-1,.71-1.52a15.48,15.48,0,0,1,.83-1.42,16,16,0,0,1,1-1.32"/><path class="cls-3" d="M179.51,431.21l.19,6.39c-.12.39-.22.78-.32,1.18s-.17.8-.24,1.21-.13.83-.17,1.25-.08.85-.11,1.28l-.19-6.39c0-.43.06-.86.1-1.28s.11-.84.18-1.25.15-.81.24-1.21.2-.79.32-1.18"/><path class="cls-3" d="M178.67,436.13l.19,6.39v.17a1,1,0,0,0,0,.17.91.91,0,0,1,0,.17v1a2.53,2.53,0,0,0,0,.28l-.2-6.39a2.44,2.44,0,0,0,0-.27v-.56a2.44,2.44,0,0,1,0-.27v-.17a1.09,1.09,0,0,1,0-.18v-.17c0-.05,0-.11,0-.17"/></g></g><polygon class="cls-32" points="442.92 438.05 442.84 444.43 401.59 444.43 401.63 438.05 442.92 438.05"/><path class="cls-3" d="M443.25,434.57l-.08,6.39c0,.37,0,.73-.05,1.07s-.05.65-.09.94-.07.56-.1.8-.07.47-.09.66l.08-6.38c0-.2.06-.42.09-.67s.07-.51.11-.8.06-.61.08-.94S443.24,434.94,443.25,434.57Z"/><g class="cls-41"><g class="cls-26"><path class="cls-3" d="M443.25,434.57l-.08,6.39v.14l.09-6.39v-.14"/><path class="cls-3" d="M443.25,434.71l-.09,6.39c0,.36,0,.7-.05,1s-.05.63-.08.9-.07.54-.1.78-.07.45-.09.63l.08-6.38c0-.19.06-.41.09-.64s.07-.5.1-.77.06-.58.09-.91,0-.66.05-1"/></g></g><path class="cls-3" d="M494.21,440.85l-.14,6.39a.81.81,0,0,0,0-.16v-.48l.13-6.39v.64Z"/><g class="cls-42"><g class="cls-26"><path class="cls-3" d="M494.21,440.85l-.14,6.39a.81.81,0,0,0,0-.16v-.48l.13-6.39v.64"/></g></g><path class="cls-3" d="M303.53,447.33l-.06-6.39v-.16l.06,6.39v.16Z"/><g class="cls-43"><g class="cls-26"><path class="cls-3" d="M303.47,440.78l.06,6.39v.16l-.06-6.39v-.16"/></g></g><path class="cls-3" d="M121.26,452.39,121,446c0-.11,0-.22,0-.33v-.33c0-.12,0-.23,0-.35v-.34l.26,6.38c0,.12,0,.24,0,.35v.68C121.25,452.17,121.25,452.28,121.26,452.39Z"/><g class="cls-44"><g class="cls-26"><path class="cls-3" d="M121,444.65l.26,6.38c0,.12,0,.24,0,.35v.68c0,.11,0,.22,0,.33L121,446c0-.11,0-.22,0-.33v-.33c0-.12,0-.23,0-.35v-.34"/></g></g><polygon class="cls-32" points="285.85 413.79 285.93 420.19 269.61 452.64 269.51 446.25 285.85 413.79"/><polygon class="cls-32" points="495.47 451.45 495.33 457.83 495.09 457.83 495.22 451.45 495.47 451.45"/><polygon class="cls-32" points="213.01 451.45 213.17 457.83 212.92 457.83 212.76 451.45 213.01 451.45"/><polygon class="cls-32" points="303.62 453.25 303.68 459.63 303.45 459.63 303.38 453.25 303.62 453.25"/><path class="cls-3" d="M222.84,460.41l-.15-6.38,0-1.61c0-.54,0-1.08,0-1.63s0-1.08,0-1.62,0-1.07,0-1.59l.15,6.38c0,.52,0,1.06,0,1.59s0,1.09,0,1.63,0,1.09,0,1.63Z"/><g class="cls-45"><g class="cls-26"><path class="cls-3" d="M222.68,447.58l.15,6.38c0,.52,0,1.06,0,1.59s0,1.09,0,1.63,0,1.09,0,1.63l0,1.6-.15-6.38,0-1.61c0-.54,0-1.08,0-1.63s0-1.08,0-1.62,0-1.07,0-1.59"/></g></g><polygon class="cls-32" points="251.88 455.8 252 462.18 230.87 420.19 230.73 413.79 251.88 455.8"/><path class="cls-3" d="M606.79,456.84l-.25,6.38a9.63,9.63,0,0,1-2-2.14,12.25,12.25,0,0,1-1.35-2.71,18.2,18.2,0,0,1-.79-3.27,31.36,31.36,0,0,1-.32-3.78l.25-6.39a31.35,31.35,0,0,0,.32,3.79,18.3,18.3,0,0,0,.79,3.26,11.73,11.73,0,0,0,1.36,2.72A9.59,9.59,0,0,0,606.79,456.84Z"/><g class="cls-46"><g class="cls-26"><path class="cls-3" d="M606.79,456.84l-.25,6.38a9.63,9.63,0,0,1-2-2.14,12.25,12.25,0,0,1-1.35-2.71,18.2,18.2,0,0,1-.79-3.27,31.36,31.36,0,0,1-.32-3.78l.25-6.39a31.35,31.35,0,0,0,.32,3.79,18.3,18.3,0,0,0,.79,3.26,11.73,11.73,0,0,0,1.36,2.72,9.59,9.59,0,0,0,2,2.14"/></g></g><path class="cls-3" d="M110.81,453.66l-.27-6.39a22.69,22.69,0,0,0,.31,3,15.19,15.19,0,0,0,.7,2.6,11.15,11.15,0,0,0,1.14,2.2,8.92,8.92,0,0,0,1.64,1.78l.26,6.38a8.61,8.61,0,0,1-1.63-1.78,10,10,0,0,1-1.14-2.2,13.55,13.55,0,0,1-.7-2.6A21,21,0,0,1,110.81,453.66Z"/><g class="cls-47"><g class="cls-26"><path class="cls-3" d="M114.33,456.84l.26,6.38a8.61,8.61,0,0,1-1.63-1.78,10,10,0,0,1-1.14-2.2,13.55,13.55,0,0,1-.7-2.6,21,21,0,0,1-.31-3l-.27-6.39a22.69,22.69,0,0,0,.31,3,15.19,15.19,0,0,0,.7,2.6,11.15,11.15,0,0,0,1.14,2.2,8.92,8.92,0,0,0,1.64,1.78"/></g></g><path class="cls-3" d="M252.59,457.93l.11,6.39a1.39,1.39,0,0,0,0-.39,4.44,4.44,0,0,0-.13-.48c-.06-.17-.13-.36-.22-.57s-.18-.45-.3-.7l-.12-6.38q.18.38.3.69c.09.21.16.41.22.58a4.08,4.08,0,0,1,.14.48A3.07,3.07,0,0,1,252.59,457.93Z"/><g class="cls-48"><g class="cls-26"><path class="cls-3" d="M252.59,457.93l.11,6.39a1.39,1.39,0,0,0,0-.39,4.44,4.44,0,0,0-.13-.48c-.06-.17-.13-.36-.22-.57s-.18-.45-.3-.7l-.12-6.38q.18.38.3.69c.09.21.16.41.22.58a4.08,4.08,0,0,1,.14.48,3.07,3.07,0,0,1,.05.38"/></g></g><polygon class="cls-32" points="531.25 459.4 531.08 465.78 520.38 465.78 520.54 459.4 531.25 459.4"/><polygon class="cls-32" points="222.98 459.4 223.13 465.78 213.52 465.78 213.36 459.4 222.98 459.4"/><polygon class="cls-32" points="213.36 459.4 213.52 465.78 213.17 457.83 213.01 451.45 213.36 459.4"/><polygon class="cls-32" points="505.69 459.4 505.54 465.78 495.93 465.78 496.07 459.4 505.69 459.4"/><polygon class="cls-32" points="496.07 459.4 495.93 465.78 495.33 457.83 495.47 451.45 496.07 459.4"/><polygon class="cls-29" points="520.54 459.4 519.75 413.79 530.4 413.79 531.25 459.4 520.54 459.4"/><polygon class="cls-32" points="156.26 459.4 156.48 465.78 145.78 465.78 145.55 459.4 156.26 459.4"/><polygon class="cls-29" points="145.55 459.4 146.66 413.79 157.32 413.79 156.26 459.4 145.55 459.4"/><path class="cls-3" d="M627.92,459.21l-.27,6.38a17.32,17.32,0,0,1-1.77.46c-.65.14-1.39.26-2.18.36s-1.66.18-2.58.23-1.89.09-2.93.09a27,27,0,0,1-3.56-.23,20,20,0,0,1-3.16-.67,15.35,15.35,0,0,1-2.71-1.1,11.4,11.4,0,0,1-2.22-1.51l.25-6.38a12,12,0,0,0,2.23,1.51,15,15,0,0,0,2.71,1.1,21.11,21.11,0,0,0,3.17.67,26.85,26.85,0,0,0,3.56.23c1,0,2,0,2.93-.09s1.79-.13,2.58-.23,1.53-.23,2.19-.36A16.43,16.43,0,0,0,627.92,459.21Z"/><g class="cls-49"><g class="cls-26"><path class="cls-3" d="M627.92,459.21l-.27,6.38-.25.08-.26.07-.27.08-.28.07.28-6.38.28-.07.27-.08.25-.07.25-.08"/><path class="cls-3" d="M626.87,459.51l-.28,6.38-.79.18-.87.16-.93.14-1,.12.27-6.38,1-.12c.33-.05.64-.09.94-.15l.86-.16.8-.17"/><path class="cls-3" d="M623.27,460.11l-.27,6.38-1.11.1-1.17.08-1.23,0-1.3,0h-.76l.26-6.38h.77l1.3,0,1.23-.05,1.17-.07,1.11-.1"/><path class="cls-3" d="M617.69,460.34l-.26,6.38-1,0-1-.08-.92-.11-.9-.14.26-6.38.9.14.92.11,1,.07,1,0"/><path class="cls-3" d="M613.93,460l-.26,6.38a20.86,20.86,0,0,1-2.1-.49,17,17,0,0,1-1.9-.69,13.29,13.29,0,0,1-1.68-.88,10.66,10.66,0,0,1-1.45-1.07l.25-6.38a12.06,12.06,0,0,0,1.45,1.07,16.63,16.63,0,0,0,1.68.88,17.15,17.15,0,0,0,1.91.69,20.86,20.86,0,0,0,2.1.49"/></g></g><path class="cls-29" d="M122.19,400.78l-.36,13H137.1l-.16,6.28H121.66L121,444.65a14.65,14.65,0,0,0,.32,3.77,6.72,6.72,0,0,0,1.28,2.79,5.57,5.57,0,0,0,2.44,1.73,10.5,10.5,0,0,0,3.75.59c.7,0,1.35,0,2,0s1.17-.07,1.69-.13,1-.11,1.42-.18.81-.13,1.15-.21l.33,6.25c-.53.17-1.13.32-1.79.46s-1.41.26-2.21.36-1.67.18-2.59.23-1.91.09-2.94.09a26.58,26.58,0,0,1-3.55-.23,20.31,20.31,0,0,1-3.13-.67,14.42,14.42,0,0,1-2.65-1.1,10.92,10.92,0,0,1-2.14-1.51,8.48,8.48,0,0,1-1.87-2.14,10.65,10.65,0,0,1-1.2-2.72,17.62,17.62,0,0,1-.62-3.26,29.07,29.07,0,0,1-.11-3.79l.71-24.86h-9.1l.19-6.28h9.08l.31-10.86Z"/><path class="cls-3" d="M135.33,459.21l.24,6.38a17.78,17.78,0,0,1-1.79.46c-.67.14-1.4.26-2.21.36s-1.66.18-2.58.23-1.91.09-2.94.09a26.7,26.7,0,0,1-3.55-.23,19.3,19.3,0,0,1-3.12-.67,14.42,14.42,0,0,1-2.65-1.1,10.52,10.52,0,0,1-2.14-1.51l-.26-6.38a10.92,10.92,0,0,0,2.14,1.51,14.42,14.42,0,0,0,2.65,1.1,20.31,20.31,0,0,0,3.13.67,26.58,26.58,0,0,0,3.55.23q1.55,0,2.94-.09c.92-.05,1.79-.13,2.59-.23s1.54-.23,2.21-.36S134.8,459.38,135.33,459.21Z"/><g class="cls-50"><g class="cls-26"><path class="cls-3" d="M135.33,459.21l.24,6.38-.26.08-.26.07-.27.08-.29.07-.24-6.38.29-.07.27-.08.26-.07.26-.08"/><path class="cls-3" d="M134.25,459.51l.24,6.38-.8.18-.87.16-.94.14-1,.12-.25-6.38,1-.12,1-.14.87-.17.8-.17"/><path class="cls-3" d="M130.62,460.11l.25,6.38-1.11.1-1.18.08-1.23,0-1.3,0h-.76l-.26-6.38h.77l1.3,0,1.24-.05,1.17-.07,1.11-.1"/><path class="cls-3" d="M125,460.34l.26,6.38-1,0-1-.08-.92-.11-.89-.14-.26-6.38.89.14.92.11,1,.07,1,0"/><path class="cls-3" d="M121.29,460l.26,6.38a20.45,20.45,0,0,1-2.08-.49,16.29,16.29,0,0,1-1.86-.69,12.61,12.61,0,0,1-1.63-.88,10,10,0,0,1-1.39-1.07l-.26-6.38a10,10,0,0,0,1.39,1.07,14,14,0,0,0,1.63.88,17,17,0,0,0,1.86.69,21.1,21.1,0,0,0,2.08.49"/></g></g><path class="cls-29" d="M572.9,412.86c1.58,0,3.11.07,4.57.2s2.84.32,4.11.54,2.45.48,3.49.75,1.93.56,2.67.84l-2.27,6.39a19.7,19.7,0,0,0-2.21-.81,25.66,25.66,0,0,0-2.78-.69,33.32,33.32,0,0,0-3.39-.48c-1.24-.12-2.58-.18-4-.18a27.49,27.49,0,0,0-8.88,1.35,18.14,18.14,0,0,0-6.42,3.69,15.15,15.15,0,0,0-3.85,5.47,17.25,17.25,0,0,0,.49,13.83,16.08,16.08,0,0,0,4.4,5.38,20.37,20.37,0,0,0,6.55,3.4,27.53,27.53,0,0,0,8.15,1.18,38.6,38.6,0,0,0,4.19-.21c1.28-.13,2.44-.32,3.51-.53s2-.48,2.93-.74,1.7-.53,2.45-.79l2,6.24a25.36,25.36,0,0,1-2.69.9c-1.09.3-2.37.59-3.81.86s-3,.48-4.77.64-3.61.26-5.59.26a41.56,41.56,0,0,1-12.12-1.69,28,28,0,0,1-9.35-4.75,21.67,21.67,0,0,1-6.07-7.37,22.26,22.26,0,0,1-2.27-9.53,21.28,21.28,0,0,1,2-9.7,21.89,21.89,0,0,1,6.2-7.64,29.44,29.44,0,0,1,9.82-5A44.29,44.29,0,0,1,572.9,412.86Z"/><path class="cls-29" d="M611.56,400.78l.36,13h15.27l.18,6.28H612.1l.68,24.58a15.05,15.05,0,0,0,.52,3.77,7.32,7.32,0,0,0,1.44,2.79,6.12,6.12,0,0,0,2.53,1.73,10.81,10.81,0,0,0,3.79.59c.7,0,1.35,0,2,0s1.17-.07,1.69-.13,1-.11,1.4-.18.8-.13,1.14-.21l.67,6.25a16.43,16.43,0,0,1-1.76.46c-.66.13-1.39.26-2.19.36s-1.66.18-2.58.23-1.9.09-2.93.09a26.85,26.85,0,0,1-3.56-.23,21.11,21.11,0,0,1-3.17-.67,15,15,0,0,1-2.71-1.1,12,12,0,0,1-2.23-1.51,9.59,9.59,0,0,1-2-2.14,11.73,11.73,0,0,1-1.36-2.72,18.3,18.3,0,0,1-.79-3.26,31.35,31.35,0,0,1-.32-3.79l-.66-24.86h-9.09l-.16-6.28h9.08l-.29-10.86Z"/><path class="cls-3" d="M541.71,442.25l.19-6.39c0,.1,0,.19,0,.29V437a22.26,22.26,0,0,0,2.27,9.53,21.67,21.67,0,0,0,6.07,7.37,28,28,0,0,0,9.35,4.75,41.56,41.56,0,0,0,12.12,1.69c2,0,3.85-.1,5.59-.26s3.33-.38,4.77-.64,2.72-.56,3.81-.86a25.36,25.36,0,0,0,2.69-.9l-.24,6.39a24.58,24.58,0,0,1-2.68.89c-1.09.3-2.37.6-3.81.86s-3,.48-4.77.64-3.6.26-5.58.26A41.54,41.54,0,0,1,559.37,465a28.18,28.18,0,0,1-9.34-4.75,21.58,21.58,0,0,1-6-7.36,22.15,22.15,0,0,1-2.27-9.53v-.29a2.81,2.81,0,0,1,0-.29,2.62,2.62,0,0,0,0-.28Z"/><g class="cls-51"><g class="cls-26"><path class="cls-3" d="M588.56,457.69l-.24,6.39-.75.28-.88.3-1,.3-1.13.29.23-6.38,1.13-.3c.36-.09.69-.19,1-.29l.88-.3c.28-.1.53-.19.76-.29"/><path class="cls-3" d="M584.78,458.87l-.23,6.38c-.46.11-.95.23-1.46.33s-1.05.21-1.61.31-1.14.19-1.74.27-1.23.16-1.88.23l.23-6.38c.64-.07,1.27-.14,1.87-.23s1.19-.18,1.75-.27,1.1-.2,1.61-.31l1.46-.33"/><path class="cls-3" d="M578.09,460l-.23,6.38c-.49.06-1,.1-1.5.14l-1.56.11c-.54,0-1.08.05-1.63.06s-1.12,0-1.69,0H570.2l.22-6.38h1.28c.57,0,1.13,0,1.69,0s1.09,0,1.63-.06l1.56-.11,1.51-.14"/><path class="cls-3" d="M570.42,460.33l-.22,6.38c-.57,0-1.15,0-1.71-.07s-1.13-.08-1.68-.14-1.09-.12-1.63-.19l-1.59-.25.21-6.39c.53.1,1.06.18,1.59.26l1.64.19c.55.05,1.11.1,1.67.13s1.14.07,1.72.08"/><path class="cls-3" d="M563.8,459.67l-.21,6.39a34.11,34.11,0,0,1-9-2.89,25,25,0,0,1-6.84-4.93,20.92,20.92,0,0,1-4.4-6.68,22.36,22.36,0,0,1-1.65-8.16v-.29a2.81,2.81,0,0,1,0-.29,2.62,2.62,0,0,0,0-.28v-.29l.19-6.39c0,.1,0,.19,0,.29V437a22.46,22.46,0,0,0,1.66,8.17,21,21,0,0,0,4.4,6.68,24.64,24.64,0,0,0,6.85,4.92,33.34,33.34,0,0,0,9,2.89"/></g></g><path class="cls-3" d="M440.05,457.51l-.08,6.38c-.94.33-2.05.67-3.33,1s-2.72.64-4.35.91-3.42.51-5.4.67-4.14.26-6.48.26a41.75,41.75,0,0,1-12.18-1.67,26.45,26.45,0,0,1-9.11-4.7,20.36,20.36,0,0,1-5.73-7.28,22.31,22.31,0,0,1-2-9.4l0-6.39a22.39,22.39,0,0,0,2,9.41,20.47,20.47,0,0,0,5.73,7.28,26.9,26.9,0,0,0,9.13,4.7,41.78,41.78,0,0,0,12.19,1.67c2.34,0,4.5-.1,6.48-.26s3.79-.4,5.41-.67,3.08-.58,4.36-.91S439.11,457.84,440.05,457.51Z"/><g class="cls-52"><g class="cls-26"><path class="cls-3" d="M440.05,457.51l-.08,6.38-.84.28-.93.29-1,.29-1.09.27.07-6.38c.38-.09.74-.18,1.09-.28l1-.28.93-.29.84-.28"/><path class="cls-3" d="M436.18,458.64l-.07,6.38c-.53.13-1.08.26-1.66.38s-1.18.23-1.81.34-1.29.22-2,.31-1.4.19-2.14.27l.07-6.38c.74-.08,1.45-.17,2.14-.27s1.35-.2,2-.31,1.24-.22,1.82-.34,1.13-.25,1.65-.38"/><path class="cls-3" d="M428.59,459.94l-.07,6.38-1.86.17-2,.13-2.09.08q-1.07,0-2.19,0h-1.34l.06-6.38h1.34q1.13,0,2.19,0l2.09-.08,2-.13,1.87-.17"/><path class="cls-3" d="M419.13,460.33l-.06,6.38c-.59,0-1.18,0-1.76-.08s-1.14-.08-1.71-.13-1.11-.12-1.66-.2-1.08-.16-1.6-.26l.05-6.38c.53.1,1.06.18,1.61.26l1.66.2c.56.05,1.13.1,1.71.13s1.17.06,1.76.08"/><path class="cls-3" d="M412.39,459.66l-.05,6.38a31.83,31.83,0,0,1-8.85-2.87,23.21,23.21,0,0,1-6.58-4.86,20.1,20.1,0,0,1-4.09-6.59,22.79,22.79,0,0,1-1.43-8l0-6.39a22.79,22.79,0,0,0,1.43,8,20.11,20.11,0,0,0,4.1,6.6,23.07,23.07,0,0,0,6.58,4.86,31.9,31.9,0,0,0,8.86,2.87"/></g></g><path class="cls-29" d="M443.25,434.18q0,.65,0,1.2t-.09,1.05c0,.33-.07.62-.11.89s-.07.51-.1.73H401.63a15.92,15.92,0,0,0,1.78,7.21,13.91,13.91,0,0,0,4.44,4.92,19.61,19.61,0,0,0,6.39,2.83,31,31,0,0,0,7.65.9c1.91,0,3.64-.07,5.21-.19s3-.28,4.3-.5,2.5-.46,3.62-.75,2.15-.59,3.15-.92l1.88,6c-.94.33-2.05.67-3.33,1s-2.73.64-4.36.91-3.43.51-5.41.67-4.14.26-6.48.26a41.78,41.78,0,0,1-12.19-1.67,26.9,26.9,0,0,1-9.13-4.7,20.47,20.47,0,0,1-5.73-7.28,22.39,22.39,0,0,1-2-9.41,24.58,24.58,0,0,1,1.87-9.64,22.61,22.61,0,0,1,5.43-7.79,25.11,25.11,0,0,1,8.63-5.2,33.43,33.43,0,0,1,11.49-1.9,30.08,30.08,0,0,1,11.87,2.16,20.21,20.21,0,0,1,7.48,5.4,20.53,20.53,0,0,1,3.9,7A22.7,22.7,0,0,1,443.25,434.18Zm-10.33-2.07a14.26,14.26,0,0,0-.61-4.33,12.57,12.57,0,0,0-2.31-4.37,12.07,12.07,0,0,0-4.58-3.39,18.65,18.65,0,0,0-7.39-1.35,18.18,18.18,0,0,0-7,1.29,14.91,14.91,0,0,0-4.91,3.27,16.06,16.06,0,0,0-3,4.36,16.3,16.3,0,0,0-1.38,4.52h31.2"/><path class="cls-29" d="M222.68,447.58c0,1,0,2.06,0,3.12s0,2.11,0,3.14.05,2,.1,3,.11,1.81.19,2.59h-9.62l-.35-7.95h-.25a16,16,0,0,1-3.23,3.56,21.26,21.26,0,0,1-4.54,2.85,26.48,26.48,0,0,1-5.72,1.89,31.92,31.92,0,0,1-6.74.69,29.12,29.12,0,0,1-9.92-1.68,23.53,23.53,0,0,1-7.89-4.75,20.72,20.72,0,0,1-5.16-7.34,23,23,0,0,1-1.73-9.47A24.79,24.79,0,0,1,170.11,427a22.92,22.92,0,0,1,5.86-7.69,26.18,26.18,0,0,1,8.5-4.85,31,31,0,0,1,10.18-1.68,31.64,31.64,0,0,1,6.16.57,24.51,24.51,0,0,1,5,1.52,18,18,0,0,1,3.82,2.22,12.28,12.28,0,0,1,2.58,2.63h.25l.46-27.05h10.63Zm-10.57-7.37.13-7.91c0-.26,0-.54,0-.84s0-.6-.06-.9-.08-.61-.14-.91a5.3,5.3,0,0,0-.21-.83,10.92,10.92,0,0,0-1.89-3.72,13.39,13.39,0,0,0-3.29-3.05,16.07,16.07,0,0,0-4.51-2.06,19.78,19.78,0,0,0-5.54-.76,20.2,20.2,0,0,0-7.43,1.33,16,16,0,0,0-5.6,3.68,16.42,16.42,0,0,0-3.57,5.58,20.27,20.27,0,0,0-1.34,7,19.19,19.19,0,0,0,.95,6.54,15,15,0,0,0,3.16,5.38,14.64,14.64,0,0,0,5.37,3.64,21.44,21.44,0,0,0,12.78.67,18.22,18.22,0,0,0,4.64-1.95,14.75,14.75,0,0,0,3.67-3.12,12.55,12.55,0,0,0,2.34-4.18c.1-.29.18-.57.25-.85s.12-.58.16-.87.07-.6.1-.91,0-.63,0-1"/><path class="cls-3" d="M449.74,442.72l.09-6.39V437a1.7,1.7,0,0,0,0,.22,23.28,23.28,0,0,0,2,9.47,21.71,21.71,0,0,0,5.39,7.34,24.53,24.53,0,0,0,8,4.75,29.59,29.59,0,0,0,10,1.68,31.69,31.69,0,0,0,6.73-.69,25.94,25.94,0,0,0,5.66-1.89A20.58,20.58,0,0,0,492.1,455a15.47,15.47,0,0,0,3.12-3.56l-.13,6.38a15.71,15.71,0,0,1-3.12,3.56,20.2,20.2,0,0,1-4.45,2.85,25.25,25.25,0,0,1-5.66,1.89,31.57,31.57,0,0,1-6.71.69,29.48,29.48,0,0,1-10-1.68,24.5,24.5,0,0,1-8-4.74,21.92,21.92,0,0,1-5.38-7.34,23.32,23.32,0,0,1-2-9.47,1.7,1.7,0,0,1,0-.22v-.65Z"/><g class="cls-53"><g class="cls-26"><path class="cls-3" d="M495.22,451.45l-.13,6.38-.2.3-.2.3-.21.29-.22.29.14-6.38a3.15,3.15,0,0,1,.22-.29l.21-.3.2-.29c.07-.1.13-.2.19-.3"/><path class="cls-3" d="M494.4,452.63l-.14,6.38c-.16.21-.33.41-.5.61l-.54.59-.58.58-.62.56.13-6.38.62-.56c.2-.19.4-.38.58-.58s.37-.39.54-.59.35-.41.51-.61"/><path class="cls-3" d="M492.15,455l-.13,6.38c-.38.32-.78.64-1.19.94s-.86.59-1.31.87-.93.54-1.42.8-1,.48-1.53.71l.12-6.38q.8-.35,1.53-.72c.5-.25,1-.51,1.43-.79s.89-.57,1.31-.87.81-.62,1.19-.94"/><path class="cls-3" d="M486.69,458.29l-.12,6.38-.93.37c-.32.11-.64.23-1,.33l-1,.31c-.34.1-.68.19-1,.27l.12-6.38c.35-.08.7-.17,1-.27l1-.31c.33-.1.65-.22,1-.34s.63-.24.93-.36"/><path class="cls-3" d="M482.77,459.57l-.12,6.38-.95.22c-.32.06-.64.13-1,.18l-1,.16-1,.13.12-6.39q.51,0,1-.12l1-.16c.33-.05.65-.12,1-.18l.95-.22"/><path class="cls-3" d="M478.83,460.25l-.12,6.39-.87.08-.88,0-.9,0h-1.75l.11-6.38h1.76l.9,0c.29,0,.59,0,.88-.06l.87-.08"/><path class="cls-3" d="M474.42,460.43l-.11,6.38-1.18-.05-1.17-.1-1.14-.14c-.38,0-.76-.11-1.13-.18l.11-6.38c.37.07.75.13,1.13.18l1.15.14c.38,0,.77.07,1.16.09s.79.05,1.18.06"/><path class="cls-3" d="M469.8,460l-.11,6.38a26.91,26.91,0,0,1-7.95-2.74,23,23,0,0,1-6.3-4.91,21.89,21.89,0,0,1-4.15-6.77,23.64,23.64,0,0,1-1.54-8.33,1.7,1.7,0,0,1,0-.22v-.65l.09-6.39V437a1.7,1.7,0,0,0,0,.22,23.73,23.73,0,0,0,1.54,8.34,21.84,21.84,0,0,0,4.16,6.77,23.24,23.24,0,0,0,6.3,4.91,26.87,26.87,0,0,0,8,2.74"/></g></g><path class="cls-3" d="M168.05,445l-.21-6.39a22.5,22.5,0,0,0,2.1,8.93,21.14,21.14,0,0,0,5.24,6.9,23.76,23.76,0,0,0,7.74,4.44,29.21,29.21,0,0,0,9.61,1.57,31.92,31.92,0,0,0,6.74-.69,26.48,26.48,0,0,0,5.72-1.89,21.26,21.26,0,0,0,4.54-2.85,16,16,0,0,0,3.23-3.56l.16,6.38a16,16,0,0,1-3.23,3.56,21,21,0,0,1-4.53,2.85,26,26,0,0,1-5.71,1.89,32,32,0,0,1-6.74.69,29.15,29.15,0,0,1-9.6-1.57,23.72,23.72,0,0,1-7.73-4.44,20.94,20.94,0,0,1-5.24-6.9A22.4,22.4,0,0,1,168.05,445Z"/><g class="cls-54"><g class="cls-26"><path class="cls-3" d="M212.76,451.45l.16,6.38c-.06.1-.13.2-.2.3l-.21.3-.22.29-.23.29-.16-6.38c.08-.1.15-.2.23-.29l.22-.3.21-.29.2-.3"/><path class="cls-3" d="M211.9,452.63l.16,6.38c-.17.21-.34.41-.52.61l-.56.6-.6.57c-.21.19-.42.38-.64.56l-.16-6.38c.22-.18.43-.37.63-.56l.61-.58c.19-.19.38-.39.56-.59s.35-.41.52-.61"/><path class="cls-3" d="M209.58,455l.16,6.38c-.39.33-.8.64-1.22.94a15.39,15.39,0,0,1-1.34.87c-.46.28-.94.55-1.44.8s-1,.49-1.55.71l-.17-6.38c.53-.22,1-.46,1.55-.71s1-.52,1.45-.8.91-.57,1.33-.87.84-.62,1.23-.94"/><path class="cls-3" d="M204,458.29l.17,6.38-.94.37-1,.34c-.33.1-.67.21-1,.3s-.68.19-1,.27l-.18-6.38c.35-.08.7-.17,1-.27s.68-.2,1-.31.66-.22,1-.33l.94-.37"/><path class="cls-3" d="M200.06,459.57l.18,6.38-1,.22c-.32.07-.65.13-1,.18l-1,.16-1,.13-.17-6.39q.51,0,1-.12l1-.16c.33-.05.65-.12,1-.18l.95-.22"/><path class="cls-3" d="M196.1,460.25l.17,6.39-.87.08-.88,0-.9,0h-1.75l-.18-6.38h1.75l.9,0c.3,0,.59,0,.89-.06l.87-.08"/><path class="cls-3" d="M191.69,460.43l.18,6.38-1.18-.05-1.16-.1-1.14-.14c-.38,0-.75-.11-1.12-.18l-.19-6.38c.37.07.75.13,1.12.18l1.15.14c.38,0,.77.07,1.16.09s.78.05,1.18.06"/><path class="cls-3" d="M187.08,460l.19,6.38a26.27,26.27,0,0,1-7.59-2.59,22.23,22.23,0,0,1-6-4.6,21,21,0,0,1-4-6.34,22.75,22.75,0,0,1-1.61-7.82l-.21-6.39a22.75,22.75,0,0,0,1.61,7.82,20.77,20.77,0,0,0,4,6.35,22.44,22.44,0,0,0,6,4.6,26.44,26.44,0,0,0,7.6,2.59"/></g></g><path class="cls-29" d="M505,447.58c0,1,0,2.06.07,3.12s.07,2.11.13,3.14.12,2,.19,3,.17,1.81.27,2.59h-9.61l-.6-7.95h-.25A15.47,15.47,0,0,1,492.1,455a20.58,20.58,0,0,1-4.45,2.85,25.94,25.94,0,0,1-5.66,1.89,31.69,31.69,0,0,1-6.73.69,29.59,29.59,0,0,1-10-1.68,24.53,24.53,0,0,1-8-4.75,21.71,21.71,0,0,1-5.39-7.34,23.28,23.28,0,0,1-2-9.47,24.09,24.09,0,0,1,2-10.22,22,22,0,0,1,5.62-7.69,25.22,25.22,0,0,1,8.34-4.85,30.58,30.58,0,0,1,10.13-1.68,31.93,31.93,0,0,1,6.18.57,25.32,25.32,0,0,1,5.06,1.52,18.8,18.8,0,0,1,3.88,2.22,12.83,12.83,0,0,1,2.67,2.63h.24l-.39-27.05h10.63Zm-10.81-7.37-.11-7.91c0-.26,0-.54,0-.84s-.05-.6-.1-.9-.1-.61-.16-.91a6.71,6.71,0,0,0-.25-.83,11.38,11.38,0,0,0-2-3.72,14.07,14.07,0,0,0-3.39-3.05,16.65,16.65,0,0,0-4.58-2.06,21,21,0,0,0-12.95.57,15.35,15.35,0,0,0-5.48,3.68,15.87,15.87,0,0,0-3.4,5.58,20.24,20.24,0,0,0-1.12,7,19.75,19.75,0,0,0,1.16,6.54,15.59,15.59,0,0,0,3.33,5.38,15.34,15.34,0,0,0,5.48,3.64,20.64,20.64,0,0,0,7.61,1.34,20.25,20.25,0,0,0,5.2-.67A17.45,17.45,0,0,0,488,451.1a14,14,0,0,0,3.58-3.12,12.23,12.23,0,0,0,2.2-4.18c.09-.29.16-.57.22-.85s.1-.58.14-.87.06-.6.07-.91,0-.63,0-1"/><path class="cls-3" d="M348.55,435.88v6.39A25.21,25.21,0,0,1,346.32,453a21.8,21.8,0,0,1-6,7.67,25.94,25.94,0,0,1-8.56,4.6,33.46,33.46,0,0,1-15.65,1,26.49,26.49,0,0,1-5-1.41,20,20,0,0,1-4.23-2.26,15,15,0,0,1-3.21-3l-.06-6.38a15,15,0,0,0,3.21,3,20.48,20.48,0,0,0,4.23,2.26,26.91,26.91,0,0,0,5,1.4,32.05,32.05,0,0,0,5.63.49,32.78,32.78,0,0,0,10-1.53,25.79,25.79,0,0,0,8.57-4.6,21.74,21.74,0,0,0,6-7.68A25.36,25.36,0,0,0,348.55,435.88Z"/><g class="cls-55"><g class="cls-26"><path class="cls-3" d="M348.55,435.88V443a1.85,1.85,0,0,0,0,.23l0-6.39c0-.07,0-.15,0-.23v-.22c0-.08,0-.16,0-.23v-.23"/><path class="cls-3" d="M348.53,436.79l0,6.39c0,.58-.05,1.14-.1,1.7s-.12,1.1-.2,1.63-.18,1.06-.29,1.57-.23,1-.37,1.51l0-6.39c.14-.49.26-1,.37-1.51s.21-1,.29-1.57.15-1.08.2-1.63.08-1.12.1-1.7"/><path class="cls-3" d="M347.57,443.2l0,6.39c-.22.75-.46,1.48-.74,2.19s-.59,1.38-.92,2-.71,1.29-1.1,1.9-.82,1.18-1.26,1.74l0-6.39q.66-.82,1.26-1.74c.39-.61.76-1.24,1.1-1.89s.64-1.34.92-2a20.84,20.84,0,0,0,.74-2.19"/><path class="cls-3" d="M343.55,451.06l0,6.39c-.22.27-.44.53-.67.79s-.46.51-.7.76-.49.49-.74.72-.51.47-.77.69l0-6.38.77-.69.73-.72c.24-.25.48-.5.71-.76s.45-.53.67-.8"/><path class="cls-3" d="M340.67,454l0,6.38c-.49.42-1,.82-1.51,1.19s-1.07.74-1.62,1.08-1.12.65-1.7.94-1.18.57-1.78.83l0-6.38c.61-.26,1.21-.53,1.79-.83s1.15-.61,1.7-.95,1.1-.69,1.62-1.07,1-.77,1.52-1.19"/><path class="cls-3" d="M334,458.07l0,6.38q-.54.23-1.08.42c-.36.14-.72.26-1.09.38s-.74.24-1.12.35l-1.13.29,0-6.38q.57-.13,1.14-.3c.37-.1.74-.22,1.11-.34l1.1-.38c.36-.13.72-.28,1.07-.42"/><path class="cls-3" d="M329.62,459.51l0,6.38q-.53.14-1.05.24l-1.06.2-1.07.17-1.08.13,0-6.38,1.08-.13,1.07-.17,1.06-.2c.36-.07.7-.15,1.05-.24"/><path class="cls-3" d="M325.36,460.25l0,6.38-.9.08c-.3,0-.6.05-.91.06l-.91,0h-1.8l0-6.38h1.79l.92,0c.3,0,.61,0,.91-.06l.9-.08"/><path class="cls-3" d="M320.84,460.43l0,6.38c-.41,0-.82,0-1.22-.06s-.81-.05-1.21-.09-.79-.09-1.18-.15-.77-.11-1.15-.18l-.06-6.38c.39.07.77.13,1.16.18s.79.1,1.19.14.8.08,1.2.1l1.23.06"/><path class="cls-3" d="M316.06,460l.06,6.38a27.85,27.85,0,0,1-3.83-1,22.42,22.42,0,0,1-3.41-1.46A18.23,18.23,0,0,1,306,462a15,15,0,0,1-2.3-2.35l-.06-6.38a14.12,14.12,0,0,0,2.3,2.34,17,17,0,0,0,2.9,1.92,21,21,0,0,0,3.41,1.46,26.82,26.82,0,0,0,3.83,1"/></g></g><path class="cls-29" d="M323.76,412.76a28.87,28.87,0,0,1,9.85,1.66,23.4,23.4,0,0,1,7.86,4.71,21.1,21.1,0,0,1,5.2,7.29,23.69,23.69,0,0,1,1.88,9.46,25.36,25.36,0,0,1-2.25,10.75,21.74,21.74,0,0,1-6,7.68,25.79,25.79,0,0,1-8.57,4.6,32.78,32.78,0,0,1-10,1.53,32.05,32.05,0,0,1-5.63-.49,26.91,26.91,0,0,1-5-1.4,20.48,20.48,0,0,1-4.23-2.26,15,15,0,0,1-3.21-3h-.24l-.17,24.94H292.6l.39-49.56c0-1.46,0-2.85,0-4.17s-.05-2.6-.08-3.82-.08-2.39-.13-3.53-.1-2.24-.15-3.32h9.57l.43,7.79h.24a21.47,21.47,0,0,1,3.78-3.72,22.51,22.51,0,0,1,4.73-2.77,26.53,26.53,0,0,1,5.7-1.73A35.16,35.16,0,0,1,323.76,412.76Zm-3.84,41.15a21.27,21.27,0,0,0,7.58-1.29,15.29,15.29,0,0,0,9.14-9.2,20.66,20.66,0,0,0,1.22-7.17,18.43,18.43,0,0,0-1.12-6.5,15.85,15.85,0,0,0-3.34-5.39,15.59,15.59,0,0,0-5.46-3.67,19.72,19.72,0,0,0-7.48-1.36,19.43,19.43,0,0,0-5.3.73,18.09,18.09,0,0,0-4.73,2.06,15.44,15.44,0,0,0-3.76,3.23,13.2,13.2,0,0,0-2.4,4.22q-.13.39-.27.81c-.09.27-.17.56-.24.85s-.13.58-.17.87a6.23,6.23,0,0,0-.07.86l0,7.82q0,.47,0,.9c0,.3.06.59.1.87l.15.83.18.8a11.89,11.89,0,0,0,2.22,3.95,14.57,14.57,0,0,0,3.61,3.07,18.19,18.19,0,0,0,4.7,2,21.05,21.05,0,0,0,5.46.71"/><polygon class="cls-32" points="303.21 478.19 303.28 484.56 292.67 484.56 292.6 478.19 303.21 478.19"/><path class="cls-3" d="M269.51,446.25l.1,6.39c-1.95,3.92-3.75,7.36-5.47,10.4s-3.35,5.68-5,8a48.11,48.11,0,0,1-4.88,6,33.09,33.09,0,0,1-5.22,4.36,33.89,33.89,0,0,1-3.92,2.31,35.85,35.85,0,0,1-3.67,1.61,32.94,32.94,0,0,1-3.19,1,20.53,20.53,0,0,1-2.45.5l-.14-6.37c.67-.1,1.51-.26,2.46-.5a31.36,31.36,0,0,0,3.19-1,34.74,34.74,0,0,0,3.67-1.6A33.29,33.29,0,0,0,249,475a32.53,32.53,0,0,0,5.23-4.36,48.11,48.11,0,0,0,4.88-6c1.62-2.3,3.25-4.94,5-8S267.55,450.17,269.51,446.25Z"/><g class="cls-56"><g class="cls-26"><path class="cls-3" d="M269.51,446.25l.1,6.39q-1.77,3.56-3.39,6.6c-1.09,2-2.13,3.93-3.15,5.66s-2,3.34-3,4.8-2,2.81-2.93,4l-.12-6.38c1-1.23,2-2.57,2.94-4s2-3.06,3-4.8,2.06-3.62,3.14-5.66,2.22-4.24,3.4-6.61"/><path class="cls-3" d="M257,467.36l.12,6.38c-.43.54-.86,1.05-1.29,1.55s-.86,1-1.3,1.42-.88.89-1.32,1.31-.9.82-1.36,1.21l-.12-6.38c.46-.38.91-.78,1.36-1.2s.89-.86,1.32-1.32.87-.93,1.31-1.42.86-1,1.28-1.55"/><path class="cls-3" d="M251.76,472.85l.12,6.38-.68.56-.7.54c-.23.17-.46.35-.7.51l-.72.5c-.53.36-1.07.71-1.6,1s-1.06.62-1.59.9-1,.55-1.55.79-1,.46-1.51.67l-.12-6.38c.49-.2,1-.43,1.5-.67s1-.5,1.56-.78,1-.58,1.59-.91,1.07-.66,1.6-1l.72-.49.7-.52c.24-.17.47-.35.7-.54l.68-.56"/><path class="cls-3" d="M242.71,478.35l.12,6.38c-.45.19-.89.36-1.32.52l-1.25.44c-.41.13-.8.25-1.18.35s-.74.21-1.08.29l-.13-6.37,1.08-.29,1.18-.36c.4-.13.82-.28,1.25-.44s.87-.33,1.33-.52"/><path class="cls-3" d="M237.87,480l.13,6.37-.6.14-.56.11-.52.1-.47.07-.14-6.37.47-.08.52-.09.56-.12.61-.13"/></g></g><polygon class="cls-32" points="235.71 480.38 235.85 486.75 233.26 479.72 233.12 473.35 235.71 480.38"/><path class="cls-29" d="M285.85,413.79l-16.34,32.46c-2,3.92-3.76,7.37-5.47,10.41s-3.35,5.68-5,8a48.11,48.11,0,0,1-4.88,6A32.53,32.53,0,0,1,249,475a33.29,33.29,0,0,1-3.93,2.32,34.74,34.74,0,0,1-3.67,1.6,31.36,31.36,0,0,1-3.19,1c-.95.24-1.79.4-2.46.5l-2.59-7c.68-.17,1.41-.38,2.17-.63s1.56-.55,2.37-.89,1.64-.72,2.47-1.14,1.64-.91,2.44-1.43a25.19,25.19,0,0,0,2.32-1.61,28.73,28.73,0,0,0,2.42-2.11,29.22,29.22,0,0,0,2.34-2.58,24.69,24.69,0,0,0,2.06-3c.13-.21.24-.41.35-.6l.27-.54a4.1,4.1,0,0,0,.19-.46,1.46,1.46,0,0,0,.07-.39,2.87,2.87,0,0,0,0-.39,4.19,4.19,0,0,0-.14-.49c-.06-.17-.13-.37-.22-.59s-.19-.45-.31-.71l-21.15-42h11.63l12.51,26.9c.33.75.66,1.54,1,2.34l1,2.43c.32.81.62,1.61.91,2.38s.55,1.51.78,2.19h.24c.29-.68.58-1.42.88-2.18l.93-2.38c.32-.81.65-1.64,1-2.48s.7-1.67,1.08-2.49l11.93-26.71Z"/></g><g class="cls-4"><path class="cls-3" d="M359.61,427.5v6.4c0-1.29,0-2.54,0-3.75s0-2.37-.09-3.51-.09-2.23-.15-3.31-.13-2.12-.22-3.14v-6.4c.08,1,.16,2.07.22,3.15s.11,2.17.15,3.31.06,2.3.08,3.51S359.61,426.21,359.61,427.5Z"/><g class="cls-57"><g class="cls-26"><path class="cls-3" d="M359.61,427.5v6.4c0-1.29,0-2.54,0-3.75s0-2.37-.09-3.51-.09-2.23-.15-3.31-.13-2.12-.22-3.14v-6.4c.08,1,.16,2.07.22,3.15s.11,2.17.15,3.31.06,2.3.08,3.51,0,2.45,0,3.74"/></g></g><path class="cls-3" d="M388.58,420.83l0,6.39c-.28-.05-.55-.09-.83-.12s-.56-.06-.86-.09L386,427l-1,0a16.86,16.86,0,0,0-5.19.79,14,14,0,0,0-4.22,2.19,13.3,13.3,0,0,0-3.08,3.36,13.77,13.77,0,0,0-1.79,4.28l-.18.88c0,.31-.11.62-.15.95s-.08.65-.11,1,0,.69,0,1V435c0-.35,0-.7,0-1s.06-.67.11-1,.09-.64.15-.95.12-.6.18-.88a13.77,13.77,0,0,1,1.79-4.28,13.13,13.13,0,0,1,3.08-3.36,14.05,14.05,0,0,1,4.23-2.2,16.76,16.76,0,0,1,5.19-.79l1,0c.32,0,.63,0,.93.06l.86.08Z"/><g class="cls-58"><g class="cls-26"><path class="cls-3" d="M388.58,420.83l0,6.39-.68-.1-.7-.08-.73-.06-.79,0,0-6.4.79,0,.74.05.69.08.68.11"/><path class="cls-3" d="M385.68,420.55l0,6.4H384l-.47,0-.47,0,0-6.4.47,0,.47,0,.48,0h1.23"/><path class="cls-3" d="M383,420.64l0,6.4-.56.07-.54.08-.54.1-.53.12,0-6.39a5,5,0,0,1,.53-.12l.54-.1.54-.09.56-.07"/><path class="cls-3" d="M380.86,421l0,6.39-.58.16-.58.17-.56.2-.54.21v-6.39l.55-.22.56-.19.57-.18c.2-.05.39-.11.59-.15"/><path class="cls-3" d="M378.59,421.76v6.39c-.34.14-.67.3-1,.46s-.62.34-.92.52-.6.38-.88.58-.55.42-.82.65l0-6.4c.26-.22.53-.43.81-.64s.58-.4.88-.58a10.53,10.53,0,0,1,.93-.52c.32-.17.64-.32,1-.46"/><path class="cls-3" d="M375,424l0,6.4-.47.42c-.15.14-.3.29-.44.44s-.29.31-.43.46-.27.32-.4.49v-6.4l.4-.48c.14-.16.28-.31.43-.46l.44-.44c.16-.15.31-.29.48-.43"/><path class="cls-3" d="M373.24,425.77v6.4c-.27.34-.53.7-.77,1.07a13,13,0,0,0-.66,1.14c-.2.4-.39.81-.55,1.22s-.31.85-.43,1.29V430.5c.13-.44.27-.87.44-1.29a13.37,13.37,0,0,1,.55-1.22,12.87,12.87,0,0,1,1.43-2.22"/><path class="cls-3" d="M370.82,430.5v6.39c0,.05,0,.11-.05.16a1.36,1.36,0,0,0,0,.17c0,.06,0,.12-.05.17s0,.12,0,.17c-.05.26-.11.53-.16.8s-.1.56-.14.85a8.65,8.65,0,0,0-.11.89q0,.47-.06.93v-6.39q0-.47.06-.93c0-.3.07-.6.11-.89s.09-.58.14-.85.11-.54.17-.8a1.36,1.36,0,0,1,0-.17c0-.06,0-.11,0-.17s0-.11,0-.17,0-.11,0-.16"/><path class="cls-3" d="M370.17,434.64v0"/></g></g><path class="cls-29" d="M385.53,412.76c.31,0,.58,0,.85,0l.75.05c.25,0,.48.05.72.09l.71.12,0,7.79-.82-.13-.86-.08c-.3,0-.61,0-.93-.06l-1,0a16.76,16.76,0,0,0-5.19.79,14.05,14.05,0,0,0-4.23,2.2,13.13,13.13,0,0,0-3.08,3.36,13.77,13.77,0,0,0-1.79,4.28c-.06.28-.12.58-.18.88s-.11.62-.15.95-.09.65-.11,1,0,.69,0,1V459.4H359.59l0-31.43c0-1.34,0-2.63,0-3.88s0-2.46-.08-3.64-.08-2.31-.15-3.42-.13-2.18-.22-3.24h9.33l.36,8.91h.49a15.37,15.37,0,0,1,2.65-4.12,17.08,17.08,0,0,1,3.78-3.14,18.49,18.49,0,0,1,4.62-2A19.66,19.66,0,0,1,385.53,412.76Z"/><polygon class="cls-32" points="370.18 459.4 370.18 465.78 359.6 465.78 359.59 459.4 370.18 459.4"/></g></g></g></svg>