<?xml version="1.0" encoding="utf-8"?>
<!-- Generator: Adobe Illustrator 24.0.0, SVG Export Plug-In . SVG Version: 6.00 Build 0)  -->
<svg version="1.1" id="Layer_1" xmlns="http://www.w3.org/2000/svg" xmlns:xlink="http://www.w3.org/1999/xlink" x="0px" y="0px"
	 viewBox="0 0 738 852" style="enable-background:new 0 0 738 852;" xml:space="preserve">
<style type="text/css">
	.st0{fill:#141227;}
	.st1{opacity:0.94;enable-background:new    ;}
	.st2{fill:#FFFFFF;}
	.st3{enable-background:new    ;}
	.st4{fill:#DB1F26;}
	.st5{fill:#00A5DC;}
	.st6{fill:#36A85D;}
	.st7{fill:#B57AB4;}
	.st8{fill:#F7A238;}
	.st9{fill:#FFF34D;}
	.st10{opacity:0.4;}
	.st11{fill:#A65628;}
	.st12{fill:#164F86;}
	.st13{fill:#404040;}
</style>
<g>
	<g id="Layer_1_1_">
		<polygon class="st0" points="371,8.4 729.7,215.5 729.7,637.6 371,846 4.3,637.6 4.3,215.5 		"/>
		<g class="st1">
			<path class="st2" d="M123.7,536.1v17.6h15.1v8.5h-15.1v33.1c0,7.6,2,11.9,7.9,11.9c2.8,0,4.8-0.4,6.1-0.8l0.5,8.4
				c-2,0.9-5.3,1.5-9.3,1.5c-4.9,0-8.9-1.6-11.4-4.7c-3-3.3-4.1-8.8-4.1-16v-33.5h-9v-8.5h9v-14.7L123.7,536.1z"/>
			<path class="st2" d="M160.1,536.5c0.1,3.8-2.5,6.9-6.7,6.9c-3.7,0-6.3-3-6.3-6.9c0-3.9,2.8-7,6.6-7
				C157.6,529.5,160.1,532.6,160.1,536.5z M148.3,615.2v-61.4h10.5v61.4H148.3z"/>
			<path class="st2" d="M224.1,525.1v74.2c0,5.5,0.1,11.7,0.5,15.9h-9.5l-0.5-10.7h-0.2c-3.2,6.9-10.3,12.1-19.8,12.1
				c-14,0-24.8-12.6-24.8-31.2c-0.1-20.4,11.9-33,26-33c8.9,0,14.8,4.4,17.5,9.4h0.2v-36.7H224.1z M213.6,578.8
				c0-1.4-0.1-3.3-0.5-4.7c-1.6-7.1-7.3-12.9-15.2-12.9c-10.9,0-17.4,10.2-17.4,23.7c0,12.4,5.7,22.7,17.1,22.7
				c7.1,0,13.5-4.9,15.4-13.3c0.4-1.5,0.5-3,0.5-4.8V578.8z"/>
			<path class="st2" d="M243.1,553.8l12.7,36.3c1.3,4.1,2.8,8.9,3.7,12.6h0.2c1.1-3.7,2.3-8.4,3.7-12.8l11.5-36h11.1l-15.8,43.8
				c-7.5,21.1-12.7,31.8-19.9,38.4c-5.1,4.8-10.3,6.7-12.9,7.2l-2.6-9.4c2.6-0.9,6.1-2.7,9.2-5.5c2.9-2.4,6.5-6.7,8.9-12.4
				c0.5-1.1,0.8-2,0.8-2.7c0-0.6-0.2-1.5-0.7-2.9l-21.4-56.6H243.1z"/>
			<path class="st2" d="M293.4,570.4c0-6.3-0.1-11.5-0.5-16.6h9.2l0.5,9.9h0.4c3.2-5.8,8.6-11.3,18.2-11.3c7.9,0,13.9,5.1,16.4,12.3
				h0.2c1.8-3.4,4.1-6.1,6.5-8c3.5-2.8,7.3-4.3,12.8-4.3c7.7,0,19,5.3,19,26.6v36.2h-10.3v-34.8c0-11.8-4.1-18.9-12.6-18.9
				c-6,0-10.7,4.7-12.4,10.2c-0.5,1.5-0.8,3.6-0.8,5.6v37.9h-10.3v-36.8c0-9.8-4.1-16.9-12.1-16.9c-6.6,0-11.4,5.6-13,11.2
				c-0.6,1.6-0.8,3.6-0.8,5.5v37h-10.3V570.4z"/>
			<path class="st2" d="M443.4,584c0,22.7-14.8,32.6-28.8,32.6c-15.7,0-27.8-12.2-27.8-31.6c0-20.6,12.7-32.6,28.7-32.6
				C432.1,552.4,443.4,565.2,443.4,584z M397.4,584.6c0,13.4,7.3,23.6,17.6,23.6c10.1,0,17.6-10,17.6-23.9
				c0-10.4-4.9-23.6-17.4-23.6S397.4,572.9,397.4,584.6z"/>
			<path class="st2" d="M504.4,525.1v74.2c0,5.5,0.1,11.7,0.5,15.9h-9.5l-0.5-10.7h-0.2c-3.2,6.9-10.3,12.1-19.8,12.1
				c-14,0-24.8-12.6-24.8-31.2c-0.1-20.4,11.9-33,26-33c8.9,0,14.8,4.4,17.5,9.4h0.2v-36.7H504.4z M493.9,578.8
				c0-1.4-0.1-3.3-0.5-4.7c-1.6-7.1-7.3-12.9-15.2-12.9c-10.9,0-17.4,10.2-17.4,23.7c0,12.4,5.7,22.7,17.1,22.7
				c7.1,0,13.5-4.9,15.4-13.3c0.4-1.5,0.5-3,0.5-4.8V578.8z"/>
			<path class="st2" d="M525.5,586.5c0.2,15.1,9.3,21.3,19.9,21.3c7.5,0,12.1-1.4,16-3.2l1.8,8c-3.7,1.8-10.1,3.8-19.3,3.8
				c-17.8,0-28.5-12.4-28.5-31c0-18.5,10.3-33.1,27.2-33.1c18.9,0,23.9,17.6,23.9,28.9c0,2.3-0.2,4.1-0.4,5.2H525.5z M556.4,578.5
				c0.1-7.1-2.8-18.1-14.6-18.1c-10.7,0-15.3,10.4-16.2,18.1H556.4z"/>
			<path class="st2" d="M577.3,525.1h10.5v90.1h-10.5V525.1z"/>
			<path class="st2" d="M601.9,603.8c3.1,2.2,8.6,4.4,13.9,4.4c7.7,0,11.3-4.1,11.3-9.1c0-5.3-3-8.2-10.8-11.3
				c-10.4-3.9-15.3-10-15.3-17.4c0-9.9,7.5-18,20-18c5.9,0,11,1.8,14.2,3.8l-2.6,8.1c-2.3-1.5-6.5-3.6-11.9-3.6
				c-6.2,0-9.7,3.8-9.7,8.4c0,5.1,3.5,7.4,11,10.4c10.1,4.1,15.2,9.4,15.2,18.5c0,10.8-7.9,18.4-21.7,18.4c-6.3,0-12.2-1.6-16.3-4.2
				L601.9,603.8z"/>
		</g>
		<g class="st3">
			<path class="st2" d="M365.5,799.3l4.5,4.5c1,1,1.9,1.9,2.7,2.9l0.1,0c-0.4-1.2-0.7-2.5-1-3.8l-1.4-6.3l1.6-0.9l4.6,4.3
				c1.1,1,2.1,1.9,2.9,2.9l0.1,0c-0.4-1.2-0.8-2.4-1.2-3.8l-1.6-6.1l1.9-1.1l2.7,12.4l-1.7,1l-4.5-4c-1-0.9-1.9-1.8-2.9-2.9l0,0
				c0.5,1.4,0.8,2.7,1.1,4l1.2,5.9l-1.7,1l-9.2-8.6L365.5,799.3z"/>
			<path class="st2" d="M381.7,789.8l4.5,4.5c1,1,1.9,1.9,2.7,2.9l0.1,0c-0.4-1.2-0.7-2.5-1-3.8l-1.4-6.3l1.6-0.9l4.6,4.3
				c1.1,1,2,1.9,2.9,2.9l0.1,0c-0.4-1.2-0.8-2.4-1.2-3.8l-1.6-6.1l1.9-1.1l2.7,12.4l-1.7,1l-4.5-4c-1-0.9-1.9-1.8-2.9-2.9l0,0
				c0.5,1.4,0.8,2.7,1.1,4l1.2,5.9l-1.7,1l-9.2-8.6L381.7,789.8z"/>
		</g>
		<g class="st3">
			<path class="st2" d="M397.6,780.6l4.5,4.5c1,1,1.9,1.9,2.7,2.9l0.1,0c-0.4-1.2-0.7-2.5-1-3.8l-1.4-6.3l1.6-0.9l4.6,4.3
				c1.1,1,2,1.9,2.9,2.9l0.1,0c-0.4-1.2-0.8-2.4-1.2-3.8l-1.6-6.1l1.9-1.1l2.7,12.4l-1.7,1l-4.5-4c-1-0.9-1.9-1.8-2.9-2.9l0,0
				c0.5,1.4,0.8,2.7,1.1,4l1.2,5.9l-1.7,1l-9.2-8.6L397.6,780.6z"/>
		</g>
		<g class="st3">
			<path class="st2" d="M416.8,781.9c-0.5-0.8-0.3-1.7,0.5-2.1s1.6-0.2,2.1,0.6c0.5,0.8,0.3,1.6-0.5,2.1
				C418.1,782.9,417.2,782.6,416.8,781.9z"/>
			<path class="st2" d="M418.2,773c-0.7-1.2-1.3-2.3-2-3.2l1.7-1l1.3,2l0.1,0c-0.3-1.7,0.3-3.2,1.6-4c0.2-0.1,0.4-0.2,0.6-0.2l1,1.8
				c-0.2,0.1-0.4,0.2-0.7,0.3c-1.3,0.8-1.7,2.3-1.1,3.9c0.1,0.3,0.2,0.6,0.4,0.9l3.2,5.5l-1.9,1.1L418.2,773z"/>
			<path class="st2" d="M428,774.3c0.8,0,2-0.1,2.9-0.7c1.4-0.8,1.6-1.9,1.1-2.7c-0.5-0.9-1.3-1.1-3-0.8c-2.3,0.4-3.7-0.1-4.5-1.3
				c-1-1.7-0.4-3.8,1.8-5.1c1.1-0.6,2.2-0.8,2.9-0.8l0.3,1.7c-0.6,0-1.5,0.1-2.5,0.6c-1.1,0.7-1.4,1.7-0.9,2.4
				c0.5,0.9,1.3,0.9,3,0.6c2.2-0.4,3.7,0,4.6,1.6c1.1,1.8,0.4,3.9-2.1,5.4c-1.1,0.7-2.4,1-3.3,1L428,774.3z"/>
			<path class="st2" d="M432.4,756.4l1.7,3l2.7-1.6l0.8,1.4l-2.7,1.6l3.3,5.6c0.8,1.3,1.5,1.8,2.6,1.2c0.5-0.3,0.8-0.6,1-0.8
				l0.9,1.4c-0.3,0.4-0.8,0.8-1.5,1.2c-0.9,0.5-1.8,0.6-2.5,0.4c-0.9-0.2-1.6-1.1-2.3-2.3l-3.3-5.7l-1.6,0.9l-0.8-1.4l1.6-0.9
				l-1.5-2.5L432.4,756.4z"/>
			<path class="st2" d="M452.1,759.1c0.6,1.1,1.2,2,1.7,2.8l-1.7,1l-1.1-1.6l0,0c0,1.1-0.5,2.9-2.3,3.9c-1.6,1-4.1,1.2-6.2-2.5
				l-3.5-6.1l1.9-1.1l3.3,5.8c1.2,2,2.5,3,4.2,2c1.3-0.7,1.6-2.1,1.5-3.2c-0.1-0.3-0.2-0.7-0.4-1.1l-3.7-6.4l1.9-1.1L452.1,759.1z"
				/>
			<path class="st2" d="M457,739.6l7.3,12.6c0.5,0.9,1.2,2,1.6,2.6l-1.7,1l-1.1-1.8l0,0c0.1,1.5-0.7,3.1-2.4,4.1
				c-2.5,1.5-5.7,0.5-7.5-2.7c-2-3.4-1.1-6.8,1.4-8.3c1.6-0.9,3.1-0.8,4.1-0.2l0,0l-3.6-6.2L457,739.6z M460.4,749.8
				c-0.1-0.2-0.3-0.5-0.5-0.7c-1-1-2.6-1.4-4-0.6c-2,1.1-2.1,3.5-0.8,5.8c1.2,2.1,3.3,3.2,5.3,2.1c1.3-0.7,1.9-2.2,1.5-3.9
				c-0.1-0.3-0.2-0.6-0.4-0.9L460.4,749.8z"/>
			<path class="st2" d="M463.3,738.5c0.4,0.6,0.2,1.4-0.5,1.9c-0.7,0.4-1.4,0.1-1.8-0.5c-0.4-0.7-0.2-1.5,0.5-1.9
				C462.2,737.5,462.9,737.8,463.3,738.5z M469,753l-6.1-10.4l1.9-1.1l6,10.4L469,753z"/>
		</g>
		<g class="st3">
			<path class="st2" d="M480.4,739.3c2.2,3.8,0.5,7.1-2,8.5c-2.8,1.6-6.2,0.8-8.1-2.5c-2-3.5-0.9-6.9,1.9-8.5
				C475.2,735.1,478.5,736.1,480.4,739.3z M472.2,744.2c1.3,2.3,3.6,3.2,5.5,2.2c1.8-1,2.2-3.5,0.8-5.9c-1-1.8-3.2-3.5-5.4-2.2
				C470.8,739.6,471,742.3,472.2,744.2z"/>
		</g>
		<g class="st3">
			<path class="st2" d="M484.2,742.7c-0.5-0.8-0.3-1.7,0.5-2.1s1.6-0.2,2.1,0.6c0.5,0.8,0.3,1.6-0.5,2.1
				C485.5,743.7,484.7,743.4,484.2,742.7z"/>
		</g>
		<g class="st3">
			<path class="st2" d="M496.9,736.2c-0.3,0.5-1.2,1.5-2.6,2.3c-3.1,1.8-6.4,0.9-8.3-2.3c-1.9-3.2-1-6.8,2.4-8.8
				c1.1-0.7,2.3-0.9,2.9-1l0.4,1.7c-0.6,0-1.4,0.2-2.5,0.8c-2.4,1.4-2.7,3.9-1.4,6.1c1.4,2.4,3.8,3,5.9,1.8c1.1-0.6,1.6-1.3,2-1.9
				L496.9,736.2z"/>
		</g>
		<g class="st3">
			<path class="st2" d="M505.6,724.7c2.2,3.8,0.5,7.1-2,8.5c-2.8,1.6-6.2,0.8-8.1-2.5c-2-3.5-0.9-6.9,1.9-8.5
				C500.5,720.5,503.7,721.5,505.6,724.7z M497.4,729.6c1.3,2.3,3.6,3.2,5.5,2.2c1.8-1.1,2.2-3.5,0.8-5.9c-1-1.8-3.2-3.5-5.4-2.2
				C496,725,496.2,727.6,497.4,729.6z"/>
			<path class="st2" d="M506.6,721c-0.6-1.1-1.2-1.9-1.7-2.8l1.7-1l1.1,1.6l0.1,0c0-1.3,0.4-2.8,2.2-3.8c1.4-0.8,3-0.6,4.2,0.4l0,0
				c0-0.8,0.1-1.5,0.4-2c0.3-0.8,0.9-1.5,1.9-2.1c1.4-0.8,3.9-1.1,6,2.5l3.6,6.1l-1.8,1.1l-3.4-5.9c-1.2-2-2.6-2.8-4.1-1.9
				c-1.1,0.6-1.5,1.9-1.2,3c0.1,0.3,0.2,0.7,0.4,1l3.7,6.4l-1.8,1.1l-3.6-6.2c-1-1.7-2.4-2.4-3.8-1.6c-1.2,0.7-1.5,2.1-1.2,3.3
				c0.1,0.3,0.2,0.7,0.4,1l3.7,6.3l-1.8,1.1L506.6,721z"/>
		</g>
		<g id="surface31">
			<path class="st4" d="M696.1,459l-11.4-1.3l-11.4-1.5l-7.6-1.1l-7.6-1.3l-7.5-1.4l-3.8-0.8l-7.5-1.8l-3.8-0.9l-7.5-2.1l-3.7-1.1
				l-7.5-2.5l-7.5-2.8l-3.8-1.5l-3.8-1.6l-7.5-3.5l-1.9-1l-1.8-0.9l-3.7-2l-3.8-2.1l-3.8-2.2l-7.5-4.7l-3.8-2.4l-7.6-5.2l-2-1.5
				l-1.8-1.2l-2.3-1.8l-1.5-1.1l-2.5-2l-1.3-0.9l-2.6-2.1l-1.2-0.9l-2.6-2.1l-1.2-0.9l-2.5-2.1l-1.2-1l-2.4-2l-1.4-1.1l-2.2-1.9
				l-1.6-1.3l-1.9-1.7l-1.9-1.6l-7.6-6.7l-7.5-6.8l-15.3-14.4l-6.9-6.7l-59.9-60.4L417,279.2l-4.6-4.4l-7.7-6.9l-3.8-3.3l-3.9-3.1
				l-3.9-3l-3.9-2.8l-3.8-2.5l-3.9-2.3l-3.9-2l-3.9-1.8l-4-1.5l-4-1.2l-4-0.9l-4-0.6l-4-0.3h-4l-4,0.3l-4,0.6l-4,0.8l-4,1.1
				l-3.7,1.3l-3.9,1.6l-4,1.8l-3.1,1.6l-4.6,2.4l-3.9,2.2l-2.4,1.4l-4.8,3l-4.3,2.9l-7.7,5.3l-57,41.5l-22.7,15.5l-11.3,7.2
				l-7.6,4.6l-11.3,6.6l-7.4,4l-7.8,4l-7.6,3.7l-7.5,3.4l-7.5,3.1l-7.6,2.8l-7.5,2.5L121,370l-3.8,1l-3.8,0.9l-7.5,1.7l-3.8,0.7
				l-7.5,1.3l-7.5,1.1l-3.8,0.4l-3.8,0.4l-7.5,0.6l-7.6,0.5l-7.6,0.3l-7.6,0.2L38,379.2h-7.6l-7.8-0.1c-0.1,1.7-0.2,3.4-0.3,5h0.4
				l15.3,0.1h3.8l11.4-0.2l7.7-0.3l7.7-0.4l7.7-0.6l7.7-0.7l3.8-0.5l7.7-1.1l7.7-1.3l3.9-0.8l3.8-0.8l7.7-1.8l3.9-1l7.7-2.3l7.7-2.6
				l7.7-2.9l7.7-3.2l7.7-3.4l3.5-1.6l8-4l7.7-4.1l7.4-4.1l7.9-4.6l7.3-4.5l11.8-7.5l11.4-7.6l15.3-10.6l34.3-25l17.6-12.8l8.7-6
				l4-2.7l3.8-2.4l3.8-2.3l2.7-1.6l4.7-2.6l3.7-1.9l3.2-1.5l4.2-1.7l3.5-1.2l3.9-1.1l3.6-0.8l3.6-0.5l3.6-0.2h3.6l3.6,0.3l3.6,0.6
				l3.6,0.9l3,0.9l4.3,1.6l3.7,1.7l3.7,1.9l3.7,2.2l3.7,2.4l2.6,1.9l4,3l3.7,3l3.6,3l4.8,4.2l7.6,7l7,6.8l53.7,54.4l15.3,15.1
				l15.3,14.6l7.2,6.7l6.8,6.1l1.2,1.1l2.2,1.9l1.6,1.5l7.6,6.5l7.7,6.3l7.7,6l7.7,5.8l1.8,1.3l2,1.5l2.3,1.6l1.5,1.1l7.5,5l4,2.6
				l3.8,2.3l2.2,1.2l1.7,1l3.7,2l4,2.2l1.9,0.9l2,1l3.9,1.9l3.8,1.8l7.7,3.2l7.7,2.9l7.7,2.5l3.8,1.1l7.7,2.1l3.8,0.9l7.7,1.7
				l3.8,0.8l7.5,1.4l7.8,1.3l7.6,1.1l11.5,1.5l11.4,1.3l19,1.9l0.5-5L696.1,459z"/>
			<path class="st5" d="M714.8,431.9l-11.4,0.3l-11.4,0.1l-7.6-0.1l-7.6-0.2l-7.5-0.4l-3.8-0.2l-3.8-0.3l-3.8-0.4l-3.8-0.4l-7.5-1.1
				l-3.8-0.6l-3.7-0.7l-7.5-1.7l-3.7-1l-3.7-1.1l-3.8-1.2l-3.7-1.3l-2.4-0.9l-1.4-0.5l-3.7-1.5l-2.4-1l-1.4-0.5l-7.5-3.4l-3.7-1.9
				l-3.8-1.9l-2.2-1.2l-1.6-0.9l-3.8-2.1l-7.5-4.5l-2.4-1.6l-1.3-0.8l-7.5-4.9l-7.5-5.2l-1.5-1.1l-2.3-1.6l-1.9-1.4l-1.9-1.3
				l-2.2-1.7l-1.5-1.1l-2.5-1.9l-1.3-0.9l-2.7-2.1l-1.1-0.8l-6.7-5.2l-0.9-0.7l-10.4-8.4l-1-0.8l-10-8.3l-1.4-1.1l-2.2-1.9l-1.6-1.3
				l-2-1.7l-1.8-1.5L432,285.1l-10.8-9.1l-7.4-6l-7.8-6.1l-4.1-3.1l-4.3-3l-4.4-3l-4.1-2.6l-3.9-2.3l-3.8-2l-3.9-1.9l-3.9-1.6
				l-3.9-1.4l-4-1.1l-4-0.9l-4-0.6l-4.1-0.3l-3.9,0.1l-4,0.4l-4,0.7l-3.8,0.9l-4.2,1.3l-4,1.6l-3.8,1.8l-3,1.6l-4.9,2.8l-3.9,2.4
				l-3.9,2.6l-3.9,2.7l-6.4,4.8l-7.6,6.1l-27.9,23l-15.2,12.3l-11.4,8.8l-7.6,5.6l-2.2,1.6l-1.5,1.1l-2.6,1.9l-1.1,0.8l-7.6,5.1
				l-7.6,4.8l-7.2,4.3l-4.1,2.3l-3.8,2.1l-7.5,3.9l-3.8,1.8l-3.8,1.7l-3.8,1.7l-7.5,3.1l-7.5,2.8l-7.5,2.5l-3.8,1.1l-7.6,2.1l-3.8,1
				l-7.6,1.8l-3.8,0.8l-3.8,0.8l-7.6,1.5l-7.6,1.3l-7.6,1.2l-11.4,1.6l-19,2.3l-26.6,2.8l-19.1,1.8c-0.1,1.7-0.2,3.4-0.3,5.1
				l27.5-2.7l19-2l19.1-2.3l7.6-1.1l11.5-1.8l7.7-1.3l3.8-0.7l7.7-1.6l3.8-0.8l3.9-0.9l7.6-1.9l7.7-2.2l3.9-1.2l7.7-2.6l7.7-2.9
				l3.9-1.6l3.8-1.6l3.6-1.6l4.1-1.9l7.7-3.8l3.8-2l7.7-4.3l7.6-4.6l7.5-4.8l4.1-2.7l7.6-5.3l11.4-8.4l6.4-4.9l1.3-1l10.2-8.1
				l22-18.2l17.2-14.1l7.6-5.9l5.5-4.1l4.3-3l4.7-3l4.1-2.4l3.7-1.9l3.3-1.5l4.1-1.6l3.7-1.2l3.6-0.9l3.6-0.6l3.6-0.3l3.6-0.1
				l3.6,0.2l3.6,0.5l3.6,0.8l3.6,1l3.7,1.3l3.7,1.5l3.7,1.8l3.7,2l2.7,1.6l4.8,2.9l3.8,2.5l3.8,2.6l3.8,2.8l3.8,2.9l7.6,6l11.4,9.5
				l49.4,43.1l30.5,26.1l15.3,12.5l11.4,9.1l11.5,8.7l1.6,1.1l2.3,1.7l1.9,1.3l1.9,1.5l2.3,1.6l1.5,1.1l2.8,1.9l1,0.7l7.7,5.1
				l7.7,4.9l2.5,1.5l1.3,0.9l3.8,2.2l7.7,4.3l3.6,1.8l4.1,2.1l2.2,1l1.6,0.8l3.9,1.7l3.8,1.6l3.9,1.5l3.8,1.4l3.9,1.3l7.7,2.3l3.9,1
				l7.7,1.8l3.9,0.8l3.9,0.7l7.7,1.1l3.8,0.5l3.8,0.4l3.8,0.3l3.8,0.3l7.7,0.4l7.7,0.2l7.6,0.1l11.5-0.1l11.4-0.3L714.8,431.9z"/>
			<path class="st6" d="M699.8,390.4l-34.2-2.6l-26.6-2.3l-11.4-1.2l-11.4-1.3l-7.6-1l-7.6-1.1l-7.5-1.3l-3.8-0.7l-7.5-1.5l-3.8-0.9
				l-7.5-1.9l-3.8-1l-7.5-2.3L556,370l-3.8-1.4l-7.5-2.9l-7.5-3.2l-7.5-3.5l-7.5-3.9l-3.8-2.1l-7.5-4.4l-3.8-2.3l-7.6-4.8l-7.5-5
				l-7.6-5.4l-11.4-8.4l-11.4-8.9l-34.2-28l-11.4-9.2l-7.6-5.9l-3.9-2.8l-5.9-4.1l-4.7-3.1l-4.9-2.9l-3.9-2.1l-3.8-1.9l-3.9-1.8
				l-3.9-1.5l-3.9-1.3l-3.9-1l-4-0.8l-4-0.5l-4.1-0.2l-3.9,0.1l-4,0.3l-4,0.6l-3.6,0.8l-4.3,1.2L330,251l-4,1.6l-3.9,1.8l-4,2.1
				l-3.9,2.2l-3.4,2.1l-4.3,2.8l-3.9,2.6l-3.8,2.7l-3.8,2.8l-7.6,5.9l-13.1,10.6l-35.7,30.3l-65.3,57l-10.9,9.5l-14,12.1l-1.6,1.4
				l-1.9,1.6l-1.9,1.6l-15.2,12.6l-11.4,9.1l-7.6,5.9l-11.4,8.5l-2,1.4l-1.8,1.3l-2.4,1.7l-1.3,1l-11.3,7.7l-7.6,4.8l-7.4,4.5
				l-7.7,4.5l-2.8,1.5l-8.5,4.6l-2.8,1.4l-8.5,4.2l-7.5,3.5l-4.5,2c0,1.8,0,3.6,0,5.4l6.5-2.9l7.7-3.5l11.5-5.7l3.1-1.6l8.4-4.6
				l2.6-1.5l8.9-5.2l7.6-4.8l7.7-5.1l7.6-5.2l7.6-5.5l2.1-1.6l1.7-1.2l2.4-1.8l1.4-1l2.6-2l1.2-0.9l6.6-5.2l1-0.8l10.4-8.3l1.1-0.9
				l9.9-8.2l1.5-1.2l2.1-1.8l1.7-1.4l22.8-19.6l52.1-45.6l42-36.2l14.4-12.1l11.2-9l9.4-7.3l6.6-4.8l4.3-3l4.1-2.7l3.7-2.3l3.7-2.1
				l3.5-1.9l4-1.9l3.7-1.5l3.7-1.3l3.7-1.1l3.6-0.8l3.6-0.6l3.6-0.3h3.6l3.6,0.2l3.6,0.5l3.6,0.7l3.6,1l3.7,1.2l3.7,1.4l3.7,1.7
				l3.7,1.9l3.5,2l4,2.4l3.8,2.4l1.7,1.2l5.8,4l6.6,5l7.7,6l38.8,31.7l15.3,12l2.2,1.6l1.6,1.2l2.5,1.8l1.4,1l7,5l8.3,5.8l7.6,5
				l7.1,4.4l8.2,4.8l7.7,4.1l3.8,1.9l2.9,1.4l8.6,3.9l7.7,3.1l7.7,2.8l3.8,1.3l7.7,2.4l3.8,1.1l7.7,1.9l3.8,0.9l3.8,0.8l7.7,1.5
				l7.7,1.3l11.5,1.7l7.6,1l15.2,1.7l15.2,1.4l64.7,4.9l0.4-5L699.8,390.4z"/>
			<polygon class="st7" points="35.3,641.8 30.8,639.6 80.1,536.8 98.3,500.5 106.3,485.4 117.9,464.1 124.9,452 132.3,439.9 
				140,427.7 144.1,421.7 152.6,409.5 159.2,400.4 166.3,391.3 171.2,385.2 178.9,376.1 189.7,363.9 201.2,351.8 213.3,339.7 
				232.5,321.5 266.2,291.2 280.4,279.1 287.6,273 295.2,266.9 299,263.9 303,260.9 307.2,257.8 311.7,254.7 314.2,253.1 
				318.1,250.7 322,248.4 325.9,246.4 329.9,244.6 333.8,243 337.8,241.7 341.8,240.7 345.7,240 349.7,239.6 353.6,239.4 
				357.7,239.6 361.7,240.1 365.7,240.9 369.6,241.9 373.6,243.3 377.5,244.9 381.4,246.8 385.3,248.8 390,251.7 393,253.6 
				396.9,256.4 400.8,259.3 404.6,262.3 410.1,267 413.6,270.1 417,273.1 420.2,276.1 429.6,285.2 447.5,303.4 465.7,322 
				480.9,337.1 493,348.6 496.3,351.6 503.6,358.2 511.2,364.8 518.7,371 526.3,376.9 533.8,382.5 537.6,385.1 541.4,387.7 
				546,390.7 548.9,392.5 552.7,394.8 556.5,397 564,401.1 567.7,403 571.5,404.8 579,408.1 587.8,411.6 590.3,412.6 597.8,415.2 
				601.5,416.4 609.1,418.6 612.9,419.6 620.4,421.5 624.2,422.4 635.5,424.9 646.9,427.1 654.5,428.4 673.4,431.5 703.8,436 
				715.2,437.6 714.5,442.6 676.5,437.1 657.4,434 649.8,432.7 638.4,430.5 626.9,428.1 623.1,427.3 615.4,425.4 611.6,424.4 
				607.8,423.4 600.1,421.1 592.4,418.6 588.5,417.3 584.7,415.9 580.9,414.3 577,412.8 573.2,411.1 564.9,407.1 561.6,405.5 
				557.8,403.5 553.4,401 550.1,399.1 546.3,396.8 542.5,394.4 538.5,391.8 534.1,388.8 527.1,383.8 525.7,382.7 523.2,380.9 
				521.7,379.7 519.4,377.9 517.8,376.6 515.6,374.9 514,373.6 511.8,371.8 510.3,370.5 507.9,368.6 506.7,367.5 499.7,361.4 
				496.2,358.4 492.7,355.1 480,343.2 473.6,336.9 458.3,321.7 426.1,288.8 419.9,282.8 412.8,276 409,272.6 403.4,267.8 
				399.7,264.8 397.7,263.2 394,260.4 390.2,257.8 386.5,255.4 382.4,253 379.1,251.2 375.4,249.4 371.8,247.9 368.1,246.7 
				364.5,245.7 360.8,245 357.2,244.6 353.6,244.4 350,244.6 346.4,244.9 342.7,245.6 339.1,246.6 335.4,247.8 331.8,249.2 
				328.1,250.9 324.1,252.9 320.6,255 316.9,257.3 313.2,259.8 309.4,262.4 305.7,265.1 301.9,268 298.1,271 290.5,277.1 
				279.2,286.6 262.6,301 239.1,322.1 219.9,340.2 204.8,355.3 193.4,367.3 182.7,379.4 175.1,388.4 167.9,397.4 161,406.4 
				156.6,412.4 152.4,418.5 148.2,424.5 140.3,436.5 132.9,448.5 125.7,460.6 117.2,475.6 102.8,502.8 87.5,533 56.8,596.4 			"/>
			<path class="st8" d="M692.2,416l-11.4-0.4l-15.2-0.7l-11.4-0.7l-7.6-0.6l-7.6-0.7l-7.5-0.9l-7.6-1l-3.8-0.6l-3.8-0.6l-3.8-0.7
				l-7.5-1.6l-3.8-0.9l-7.5-2.1l-3.7-1.1l-7.5-2.5l-7.5-2.9l-2.9-1.3l-8.3-3.8l-3.7-1.9l-3.8-1.9l-2.5-1.4l-1.3-0.7l-3.7-2.1
				l-7.6-4.5l-7.2-4.6l-7.9-5.4l-7.5-5.4l-7.6-5.7l-1.9-1.5l-1.9-1.4l-2-1.6l-1.8-1.4l-11.4-9.3l-11.4-9.7l-11.2-9.8l-33.5-30.2
				l-8.6-7.7l-11.5-9.9l-3.8-3.1l-3.9-3.1l-3.9-2.9l-3.9-2.8l-3.9-2.6l-3.9-2.5l-3.3-2l-4.4-2.3l-3.9-1.8l-3.9-1.5l-4-1.3l-4-1
				l-4-0.7l-4-0.4l-4.1-0.1l-3.9,0.1l-4,0.4l-4,0.7l-4,1l-2.9,0.9l-5,1.8l-3.2,1.4l-4.7,2.1l-3.9,2l-3.6,2l-4.1,2.4l-3.9,2.4
				l-6.8,4.4l-8.6,5.9l-37.8,27.4l-19.1,13.5l-11.3,7.6l-11.4,7.4l-7.6,4.6l-7.5,4.4l-11.1,6.1l-11.3,5.7l-7.5,3.5l-7.5,3.2
				l-7.6,2.9l-7.5,2.6l-7.5,2.4l-3.8,1.1l-7.5,2l-3.8,0.9l-3.8,0.8l-7.6,1.5l-7.6,1.3l-11.3,1.7l-7.6,0.9l-7.6,0.8l-11.4,1L53,380.4
				l-26.6,1.5l-4,0.2l-0.3,5l19.8-1l19.1-1.2l11.4-0.9l11.5-1.1l7.6-0.9l7.7-1l7.7-1.2l7.7-1.4l3.8-0.8l7.6-1.7l3.8-0.9l7.7-2
				l3.9-1.1l7.7-2.4l7.7-2.7l7.7-3l7.7-3.2l7.7-3.5l11.5-5.8l3.1-1.6l8.4-4.7l7.6-4.5l7.7-4.7l11.5-7.4l11.5-7.7l56.7-40.8l7.8-5.4
				l3.8-2.5l6.4-4.1l4.8-2.9l3.7-2.1l3.7-1.9l3.7-1.7l3.7-1.6l3.7-1.4l3.7-1.1l3.6-0.9l3.6-0.6l3.6-0.4l3.6-0.1l3.6,0.1l3.6,0.4
				l3.6,0.7l3.6,0.9l3.6,1.2l3.7,1.5l3.7,1.7l3.7,2l3.7,2.1l3.7,2.4l2.4,1.6l4.2,3l4,3l3.8,3l3.7,3l7.1,6l46.9,42l7.1,6.2l7,6.1
				l1.1,1l19.1,15.8l11.5,8.9l2.2,1.6l1.6,1.2l2.5,1.8l1.3,1l2.9,2.1l8.6,5.9l7.7,4.9l2.3,1.4l1.5,1l3.5,2l8,4.5l7.7,3.9l3.8,1.8
				l3.9,1.7l3.8,1.6l3.9,1.5l3.8,1.5l3.9,1.4l3.8,1.3l3.9,1.2l3.9,1.1l3.8,1l3.9,0.9l3.8,0.9l7.7,1.5l3.8,0.7l3.8,0.6l3.6,0.5l7.8,1
				l7.7,0.8l7.7,0.6l7.6,0.5l15.2,0.9l19,0.7l22.8,0.6l0.1-5L692.2,416z"/>
			<path class="st9" d="M714.8,399.7l-11.4,0.4l-19,0.5l-11.4,0.1l-11.3-0.1l-7.6-0.2l-7.5-0.4l-7.5-0.5l-7.5-0.7l-3.8-0.5l-3.8-0.5
				l-3.8-0.6l-3.8-0.6l-3.8-0.7l-3.8-0.8l-3.8-0.9l-7.5-2l-3.7-1.1l-7.5-2.5l-7.5-2.8l-7.5-3.2l-2.5-1.2l-1.2-0.5l-7.5-3.7l-3.3-1.8
				l-8-4.4l-7.6-4.5l-7.5-4.8l-2-1.3l-1.7-1.1l-11.4-7.8L511,346l-11.4-8.6l-11.4-9l-15.2-12.3L447,294.2l-14.6-12.1l-7.6-6.1
				l-7.9-6.1l-4.2-3l-4.4-3.1l-3.9-2.6l-3.9-2.4l-3.9-2.3l-3.5-1.9l-4.3-2.2l-3.8-1.7l-3.9-1.5l-3.9-1.3l-3.9-1.1l-4-0.8l-4-0.6
				l-4-0.3h-4l-4,0.3l-4,0.5l-4,0.8l-4,1.1l-4,1.3l-3.9,1.6l-3.9,1.8l-3.8,2l-4.1,2.4l-3.6,2.4l-3.9,2.7l-2.3,1.7l-4,3.1l-5.2,4.1
				l-5.9,5l-5.6,4.9l-7.6,7l-6.6,6.3l-15.5,15.1l-41.8,42.3L74.2,503l-5.8,6l-1.8,1.9l-19,19.3l-26.5,26.1c0,2.3-0.1,4.6-0.1,7
				l14.9-14.3l26.7-26.7l6.4-6.7l1.2-1.2l1.8-1.9l5.8-5.9l5.9-6.2l1.7-1.8l1.2-1.3l2.6-2.6l90-94.1l5.1-5.2l9.5-9.9l65.1-66.5
				l15.2-15.1l12.6-12.1l6.5-6l5-4.5l7.5-6.4l3.8-3l3.8-2.9l3.7-2.7l3.7-2.6l2.7-1.7l4.8-2.9l3.7-2l3.7-1.7l3.7-1.5l3.6-1.2l3.7-1
				l3.6-0.8l3.6-0.5l3.6-0.2h3.6l3.6,0.3l3.6,0.5l3.6,0.7l3.7,1l3.7,1.2l3.7,1.4l3.6,1.6l3.7,1.9l3.7,2l1.9,1.1l4.8,3l4.5,3l3.7,2.6
				l3.8,2.7l3.8,2.8l7.6,5.9l44.7,37.2l14.8,12.1l1.3,1.1l10.2,8l1.3,1l10.7,8.1l8.4,6.1l7.7,5.4l7.6,5.1l7.5,4.8l7.8,4.6l7.7,4.3
				l3.8,2l2.6,1.3l1.3,0.7l7.7,3.6l3.8,1.6l3.9,1.6l3.8,1.5l3.9,1.4l3.8,1.3l3.8,1.2l3.9,1.1l3.8,1l3.8,1l3.9,0.9l3.8,0.8l7.7,1.4
				l3.8,0.6l3.8,0.5l3.8,0.5l3.8,0.4l3.3,0.3l8.2,0.6l7.7,0.4l7.6,0.2l11.5,0.1l7.6,0l15.2-0.3l19-0.7L714.8,399.7z"/>
			<g class="st10">
				<path class="st11" d="M688.5,397.5l-26.6-2l-15.2-1.4l-15.2-1.6l-7.5-0.9l-7.6-1l-7.6-1.2l-7.5-1.3l-3.7-0.7h-0.2l-3.7-0.8
					l-3.8-0.8l-3.8-0.9l-7.5-2l-7.5-2.2l-3.7-1.2l-7.5-2.7l-3.6-1.4h-0.1l-3.8-1.5l-7.5-3.3l-2.2-1.1l-1.5-0.7l-7.5-3.8l-7.6-4.2
					l-7.6-4.5l-3-1.9l-8.3-5.3l-7.6-5.2l-2.1-1.5l-1.7-1.1l-10.7-7.9l-7.9-6.1l-11.4-9l-40.2-33.2l-13.3-10.7l-7.7-5.9l-6.4-4.7
					l-4.5-3l-4.5-2.9l-3.9-2.3l-3.8-2.1l-0.1-0.1l-3.8-1.9h-0.1l-3.8-1.6l-0.1-0.1l-3.8-1.4h-0.1l-3.8-1.1h-0.2l-3.8-0.8h-0.2
					l-3.8-0.5h-0.2l-3.8-0.2h-0.2l-3.8,0.1h-0.2l-3.8,0.4h-0.2l-3.8,0.7h-0.2l-3.8,1l-0.2,0.1l-3.8,1.2h-0.1l-3.8,1.5h-0.1l-3.8,1.8
					h-0.1l-3.9,2l-3.9,2.2l-3.9,2.4l-2.4,1.6l-4.5,3.1l-4.2,3l-4.1,3l-4,3l-0.2,0.1l-3.6,2.9l-0.1,0.1l-3.7,2.9l-0.1,0.1l-60.7,50.4
					l-11.4,9l-11.4,8.6l-1.8,1.4l-1.9,1.5l-2.2,1.6l-1.6,1.2l-2.7,1.9l-1.1,0.8l-7.5,5l-0.1,0.1l-7.5,4.8l-2.1,1.2l-1.7,1.1
					l-3.3,1.9l-8,4.5l-2.9,1.5l-0.9,0.5l-7.5,3.6l-3.8,1.7l-3.8,1.6l-3.8,1.5l-3.8,1.4l-3.7,1.3l-3.8,1.2l-3.7,1.1l-3.8,1h-0.1
					l-3.6,0.9l-3.8,0.9l-3.7,0.8l-7.5,1.3l-3.8,0.6l-3.8,0.5l-3.8,0.4l-3.8,0.4l-7.6,0.6l-7.6,0.5l-7.6,0.3l-11.4,0.3L41.8,398
					l-11.4-0.1l-8.7-0.2c-0.1,1.7-0.1,3.4-0.2,5h1.2l19.1,0.2h7.6l11.5-0.2l7.7-0.3l7.7-0.4l7.7-0.6l7.7-0.7l3.8-0.5l3.8-0.5
					l3.8-0.6l7.7-1.4l3.8-0.8l3.9-0.9l3.8-1l0.2-0.1l3.7-1l3.9-1.2l7.7-2.6l3.6-1.3l0.2-0.1h0.1l3.9-1.5l3.4-1.4l0.4-0.1l0.1,0
					l3.9-1.7l2.4-1.2l1.4-0.6l7.7-3.9l7.6-4.2l0.1-0.1l3.8-2.2l1.8-1.1l2.1-1.2l7.5-4.8l0.2-0.1l7.7-5.2l7.6-5.4l1.9-1.5l1.9-1.3
					l2.2-1.7l1.6-1.2l2.4-1.9l1.4-1l2.6-2l1.2-1l10.3-8.1l50.6-42.1l11.4-9.4l0.1-0.1l3.6-2.9l0.1-0.1l3.7-2.9l0.1-0.1l3.6-2.8
					l3.8-2.8l3.8-2.8l3.8-2.6l3.7-2.5l3.7-2.3l3.6-2.1l3.8-2l3.7-1.7l3.7-1.5l3.7-1.2l3.6-0.9l3.6-0.6l3.6-0.4l3.6-0.1l3.6,0.2
					l3.6,0.5l3.6,0.8l3.4,1l3.9,1.4l3.5,1.5l3.9,1.9l3.7,2l3.4,2l4.1,2.6l3.8,2.5l3.8,2.7l7.5,5.6l7.6,6l30.4,25.1l19.1,15.6
					l7.6,6.1l7.6,5.9l7.6,5.8l7.6,5.6l7.6,5.3l7.4,4.9l0.1,0.1l0.1,0.1l3.8,2.5l7.7,4.7l3.2,1.9l8.3,4.6l3,1.5l8.5,4.2l7.7,3.4
					l3.8,1.5l0.1,0.1l3.8,1.5l7.7,2.7l3.9,1.2l7.7,2.3l3.8,1l7.7,1.9l3.8,0.8l3.8,0.8h0.2l3.7,0.7l3.8,0.7l7.7,1.2l7.6,1.1l7.7,1
					l15.3,1.7l15.2,1.4l30.5,2.3l26.6,1.8l0.3-5L688.5,397.5z"/>
			</g>
			<path class="st7" d="M711.2,448.1l-22.8-1.7l-11.4-1l-11.4-1.2l-7.5-0.9l-7.5-1.1l-7.6-1.2l-3.8-0.7l-3.8-0.8l-7.5-1.7l-3.8-0.9
				l-7.5-2.1l-3.7-1.1l-7.5-2.5l-3.8-1.4l-3.7-1.5l-3.7-1.6l-3.8-1.7l-2.8-1.3l-1-0.5l-7.5-3.8l-3.2-1.8l-8-4.6l-2.2-1.4l-1.5-0.9
				l-7.5-4.8l-3.8-2.5l-7.6-5.3l-1.8-1.4l-2-1.4l-2.1-1.6l-1.7-1.2l-2.2-1.8l-1.5-1.1l-2.3-1.9l-1.5-1.1l-2.3-1.9l-1.4-1.1l-2.3-1.9
				l-1.5-1.2l-2.1-1.8l-1.7-1.3l-1.9-1.7l-1.9-1.5l-11.4-9.8l-7.6-6.8l-19-17.4l-32.8-30.9l-19.6-18.2l-6.8-6.1l-9.3-8l-7.7-6.1
				l-3.9-2.9l-3.9-2.8l-2.4-1.6l-4.7-3.1l-4.5-2.6l-3.9-2.1l-3.1-1.5l-4.7-2l-3.3-1.1l-4.6-1.3l-4-0.8l-4-0.5l-4.1-0.3l-3.9,0.1
				l-4,0.3l-4,0.6l-4,0.9l-3.5,1l-4.3,1.5l-4,1.6l-3.9,1.8l-2.7,1.4l-5,2.6l-3.9,2.2l-2.1,1.3l-4.9,3l-4.5,3l-7.5,5.3l-30.5,22
				l-19,13.6l-11.2,7.6l-11.5,7.5l-7.3,4.5l-7.8,4.6l-7.5,4.2l-7.5,4l-7.5,3.6l-3.5,1.6l-4,1.8l-7.5,3l-7.5,2.7l-3.7,1.2l-3.8,1.2
				l-3.8,1.1l-7.5,2l-3.8,0.9l-7.5,1.6l-3.8,0.7l-3.8,0.6l-3.8,0.5l-3.8,0.5l-7.6,0.9l-7.6,0.7l-7.6,0.5l-7.6,0.3l-7.6,0.2
				l-11.4,0.1l-11.4,0l-19-0.3l-7.1-0.2c-0.1,1.7-0.2,3.3-0.4,5l22.6,0.5l15.2,0.1l11.5-0.1l7.6-0.2l7.7-0.3l7.7-0.5l7.7-0.7
				l3.8-0.4l7.7-1l3.8-0.6l3.8-0.6l3.8-0.7l7.7-1.6l3.9-0.9l7.7-2l3.9-1.1l7.7-2.5l3.9-1.4l3.8-1.4l3.9-1.5l3.8-1.6l3.9-1.7l3.8-1.7
				l3-1.4l8.5-4.2l3.5-1.9l8-4.5l7.7-4.5l7.6-4.7l2.4-1.5l1.5-0.9l11.5-7.6l11.4-7.9l26.6-19.3l17.7-12.7l8.9-6.1l3.8-2.5l3.8-2.4
				l6.8-4l4.4-2.4l3.7-1.9l3.6-1.6l3.8-1.5l3.7-1.3l3.7-1l3.6-0.8l3.6-0.6l3.6-0.3l3.6-0.1l3.6,0.2l3.6,0.5l3.6,0.8l3.6,1l3.7,1.3
				l3.7,1.5l3.7,1.7l2.9,1.6l4.4,2.5l3.8,2.4l3.7,2.5l3.8,2.7l3.8,2.8l6.1,4.9l7.1,6l9.4,8.3l10.7,9.8l34.9,32.9l22.9,21.2l7.2,6.5
				l6.9,6.1l1.1,1l2.4,2l1.4,1.3l2.1,1.7l1.7,1.5l1.9,1.5l2,1.7l1.7,1.3l2.2,1.8l1.5,1.2l2.3,1.9l1.5,1.1l2.4,1.9l7.6,5.9l1.7,1.3
				l2.1,1.6l2,1.4l1.8,1.4l2.3,1.6l1.5,1.1l2.8,2l1,0.7l7.6,5.1l7.7,4.8l7.6,4.4l3.9,2.1l2.5,1.3l1.3,0.7l7.7,3.7l3.8,1.7l3.9,1.6
				l3.8,1.5l3.9,1.5l3.9,1.3l3.8,1.2l3.9,1.2l7.7,2.1l3.8,0.9l7.7,1.7l3.8,0.8l3.8,0.7l3.8,0.6l7.6,1.2l7.7,1l7.6,0.9l11.5,1.2
				l11.4,1l22.8,1.6l0.3-5L711.2,448.1z"/>
			<path class="st12" d="M695.9,359.1l-49.4-1.1l-19-0.7l-15.2-0.8l-11.3-0.7l-7.6-0.6l-7.5-0.8l-7.6-0.9l-7.5-1.1l-3.8-0.6
				l-7.5-1.4l-3.8-0.8l-3.8-0.8l-7.5-1.9l-3.8-1l-7.5-2.3l-3.7-1.3l-3.8-1.3l-3.8-1.4l-3.8-1.5l-3.7-1.6l-3.8-1.7l-3.8-1.8l-3.7-1.8
				l-7.5-3.9l-3.8-2.1l-2.2-1.3l-1.6-0.9l-3.6-2.1l-7.7-4.7l-6.7-4.3l-8.4-5.6l-7.6-5.2l-34.2-24.7l-7.6-5.4l-6.6-4.4l-4.8-3l-4-2.4
				l-3.9-2.2l-2.7-1.5l-5-2.6l-3.8-1.8l-3.9-1.6l-3.9-1.4l-3.9-1.2l-3.3-0.8l-4.6-0.9l-4-0.5l-4-0.2h-3.9l-4,0.3l-4,0.6l-3.4,0.7
				l-4.5,1.2l-3.9,1.3l-3.9,1.5l-3.9,1.7l-4,2l-2.9,1.6l-4.8,2.8l-3.9,2.4l-3.9,2.5l-6.5,4.5l-8.1,6.1l-7.8,6.1l-33.5,27.2
				l-35.4,28.3l-10.6,7.9l-12.1,8.8l-11.4,7.8l-2.3,1.5l-1.5,1l-7.5,4.8l-7.6,4.5l-3,1.7l-8.3,4.5l-11.3,5.6l-7.5,3.4l-3.5,1.5
				l-4,1.6l-3.8,1.4l-3.8,1.3l-7.5,2.5l-3.7,1.1l-7.5,2l-3.8,0.9l-3.8,0.8l-7.6,1.5l-3.8,0.7l-3.8,0.6l-7.6,1.1l-7.6,1l-7.6,0.8
				l-11.4,1l-7.6,0.5l-8.9,0.5c0,1.7-0.1,3.4-0.1,5l1.7-0.1l11.4-0.7l7.6-0.6l11.5-1.1l7.7-0.9l7.7-1l7.7-1.2l3.8-0.7l3.8-0.8
				l7.7-1.7l3.8-0.9l7.7-2.1l3.8-1.1l7.7-2.5l3.8-1.4l3.9-1.5l3.9-1.5l3.8-1.6l7.7-3.4l2.4-1.2l1.4-0.6l7.7-3.9l2.9-1.6l8.6-4.8
				l2.1-1.3l1.7-1l7.7-4.7l7.6-4.9l2.3-1.5l1.6-1l11.5-8l7.6-5.5l11.4-8.6l19.1-15l34.2-28l15.2-12.2l7.6-5.9l7.5-5.6l3.8-2.7
				l6.1-4.1l4.7-3l4.2-2.5l3.7-2l2.9-1.4l4.6-2.1l3.7-1.4l3.7-1.2l3.7-1l3.6-0.8l3.6-0.5l3.6-0.3h3.6l3.6,0.2l3.6,0.4l3.6,0.7
				l3.7,0.9l3.7,1.1l3,1.1l4.4,1.8l2.6,1.2l4.8,2.4l3.7,2l2.7,1.5l5,3l3.6,2.3l3.8,2.5l6.1,4.2l35.7,25.7l10.9,7.6l8.2,5.5l7.6,4.9
				l7.7,4.7l7.6,4.4l3.2,1.7l8.3,4.3l3.8,1.8l3.9,1.8l7.7,3.3l7.7,3l7.7,2.7l3.9,1.2l3.8,1.1l3.8,1.1l7.7,1.9l3.8,0.9l3.8,0.8
				l7.7,1.4l3.8,0.6l7.7,1.1l7.6,0.9l7.7,0.8l7.6,0.6l7.7,0.5l11.4,0.6l19,0.8l26.7,0.8l49.4,0.9l0.1-5L695.9,359.1z"/>
		</g>
		<path class="st13" d="M707.1,197.2L429.3,36.8L369,2l-60.3,34.8L30.9,197.2L1.6,214.1v424.3l29.3,16.9l281.3,162.4l56.9,32.8
			l56.9-32.8l281.3-162.4l29.3-16.9V214.1L707.1,197.2z M707.1,622.5L369,817.7L30.9,622.5V232.1L369,36.8l0,0l338.1,195.2V622.5z"
			/>
	</g>
</g>
</svg>
