<?xml version="1.0" encoding="utf-8"?>
<!-- Generator: Adobe Illustrator 26.5.0, SVG Export Plug-In . SVG Version: 6.00 Build 0)  -->
<svg version="1.1" id="Layer_1" xmlns="http://www.w3.org/2000/svg" xmlns:xlink="http://www.w3.org/1999/xlink" x="0px" y="0px"
	 viewBox="0 0 2521 2911" style="enable-background:new 0 0 2521 2911;" xml:space="preserve">
<style type="text/css">
	.st0{fill:url(#SVGID_1_);}
	.st1{fill-rule:evenodd;clip-rule:evenodd;fill:#EC02BF;}
	.st2{fill:none;stroke:#000000;stroke-width:3.4308;stroke-linejoin:round;stroke-miterlimit:10;}
	.st3{fill:#EFEFEF;}
	.st4{fill:#E5DDF6;}
	.st5{fill:#202020;}
</style>
<g id="Layer_3">
</g>
<g id="Layer_1_00000154400717811748593920000010887223400979525762_">
	<g id="Layer_2_00000121990159278969222140000008688231880962668208_">
	</g>
	
		<radialGradient id="SVGID_1_" cx="1253.6372" cy="-645.4005" r="1516.8882" gradientTransform="matrix(1 0 0 -1 0 851.9738)" gradientUnits="userSpaceOnUse">
		<stop  offset="0" style="stop-color:#323232"/>
		<stop  offset="1" style="stop-color:#010101"/>
	</radialGradient>
	<polygon class="st0" points="2420.5,789.1 1260.5,119.4 1260.5,119.4 100.5,789.1 100.5,2128.8 1260.5,2798.5 2420.5,2128.8 	"/>
	<g>
		<g>
			<path class="st1" d="M19.6,1377.5h2449.3v191.1H19.6V1377.5z"/>
			<path class="st2" d="M19.6,1377.5h2449.3v191.1H19.6V1377.5z"/>
			<path class="st1" d="M19.6,1582.6h2449.3v89.2H19.6V1582.6z"/>
			<path class="st2" d="M19.6,1582.6h2449.3v89.2H19.6V1582.6z"/>
			<path class="st1" d="M19.6,1685.5h2449.3v38.4H19.6V1685.5z"/>
			<path class="st2" d="M19.6,1685.5h2449.3v38.4H19.6V1685.5z"/>
			<path class="st1" d="M19.6,1274.2h2449.3v89.2H19.6V1274.2z"/>
			<path class="st2" d="M19.6,1274.2h2449.3v89.2H19.6V1274.2z"/>
			<path class="st1" d="M19.6,1222h2449.3v38.4H19.6V1222z"/>
			<path class="st2" d="M19.6,1222h2449.3v38.4H19.6V1222z"/>
			<g>
				<g transform="matrix(1.0 0.0 0.0 1.0 1.0 0.0)">
					<g id="g5af0183294_0_162.2_2_">
						<path class="st3" d="M592.9,1112.3l84.1-40.1l-9.3-84.4l65.9-31.6l9.3,84.4l77.9-37.1l17.2,34.3l-90.6,43.2l22.6,203.4
							c1,8.2,2.1,16.5,3.1,25c1.4,8.6,2.7,16.8,4.1,24.4c1.7,7.9,3.4,15.1,5.5,22c2.1,6.9,4.1,12.4,6.5,17.2
							c4.8,9.6,10.6,15.8,17.8,18.5c7.2,2.7,16.1,1.7,26.8-3.1c12-5.8,23-13.7,32.3-24c9.3-10.3,17.5-23,24-38.4
							c6.9-15.4,12.4-34,16.5-55.2c4.1-21.3,6.9-45.6,8.6-73.1l2.7-46.3l36,5.8l-2.4,43.9c-1.7,33.3-5.5,62.1-10.6,86.8
							c-5.1,24.7-12,46.3-20.6,64.5c-8.6,18.2-18.9,33.6-31.6,46c-12.4,12.4-26.8,22.3-42.5,29.8c-12.7,6.2-25,9.6-37.4,10.3
							c-12,1-23.7-0.7-34.3-4.8c-10.6-4.1-20.2-10.3-28.8-18.9s-15.8-18.9-22-30.9c-5.1-10.3-9.3-22-13-35
							c-3.8-13-6.2-27.4-7.9-42.5l-21.6-194.2l-71.4,34L592.9,1112.3z M895.1,968.2l65.9-31.6l26.8,243.9c1,8.2,2.1,16.8,3.1,25
							c1,8.6,2.4,16.5,4.1,24.4c1.7,7.9,3.4,15.1,5.1,21.6c2.1,6.9,4.1,12.7,6.5,17.5c4.8,9.6,10.6,15.8,17.8,18.9
							c7.2,2.7,15.8,1.7,26.8-3.4c10.6-5.1,19.9-12.4,27.8-22s14.4-21.6,20.2-36.7c5.5-15.1,9.9-32.9,13.4-53.9
							c3.4-20.9,5.8-44.9,7.2-72l2.7-46.3l36,5.8l-2.4,43.9c-1.7,30.5-4.5,57.6-8.2,81.3c-3.8,23.7-9.3,44.6-16.5,62.8
							s-16.1,33.6-27.1,46.3s-24.7,23-40.5,30.5c-12.7,6.2-25,9.6-37.1,10.3c-12,0.7-23.3-0.7-34-5.1c-10.6-4.1-20.2-10.6-28.8-18.9
							c-8.6-8.6-15.8-18.9-21.6-30.9c-5.1-10.3-9.3-22-13-35c-3.4-13-6.2-27.4-7.9-42.5L895.1,968.2z M883.8,899.2
							c-4.8-9.6-5.5-19.6-2.1-29.5c3.4-9.9,9.9-17.5,19.6-22.3c9.6-4.5,19.6-5.1,29.8-1.7c10.3,3.4,17.5,9.9,22.3,19.6
							c2.4,4.8,3.8,9.6,4.1,14.8c0.3,5.1-0.3,9.9-2.1,14.8c-1.7,4.5-4.1,8.9-7.5,12.7c-3.4,3.8-7.5,6.9-12.4,9.3
							c-9.6,4.5-19.6,5.1-29.5,2.1C895.8,915.3,888.6,908.8,883.8,899.2z M1121.6,1073.5c-3.4-23.7-4.5-46.3-3.1-67.6
							c1.4-21.3,4.1-41.5,8.9-60c4.8-18.5,11-35.7,18.5-51.1c7.9-15.4,16.5-29.5,25.7-41.9c9.6-12.4,19.6-23,30.5-31.9
							c11-8.9,22-16.1,32.9-21.6c12.4-5.8,23.7-8.9,34.3-8.9c10.6-0.3,20.6,2.1,29.5,6.5c8.9,4.5,16.8,11,23.7,19.6
							c6.9,8.2,8.9,19.9,6.5,34.3l-40.8-248.7l65.9-31.6l46,413.4c1,8.2,2.1,16.8,3.1,25.4c1,8.6,2.4,16.8,4.1,24.4
							c1.7,7.5,3.4,14.8,5.1,21.6c2.1,6.5,4.1,12.7,6.5,17.5c4.8,9.6,10.6,15.8,17.8,18.9c7.2,2.7,15.8,1.7,26.8-3.4
							c10.6-5.1,19.9-12.4,27.8-22c7.9-9.6,14.8-21.6,20.2-36.7c5.5-15.1,9.9-32.9,13.4-53.9c3.4-20.9,5.5-44.9,6.9-72l2.4-46.3
							l36.4,5.8l-2.4,43.9c-1.7,30.5-4.5,57.6-8.2,81.3c-3.8,23.7-9.3,44.6-16.1,62.8s-16.1,33.6-27.1,46.3s-24.7,23-40.5,30.5
							c-12.7,6.2-25,9.6-37.1,10.3c-12,0.7-23.3-0.7-34-5.1c-10.6-4.1-20.2-10.6-28.8-19.2s-15.8-18.9-21.6-30.9
							c-3.8-7.5-7.2-16.5-10.3-25.7c-3.1-9.3-1.4-20.2,5.5-32.6c4.5,53.9-0.7,97.4-15.1,131.1c-14.4,33.3-35.3,56.6-62.8,69.6
							c-13.4,6.5-26.1,9.3-38.4,8.9c-12.4-0.3-23.7-3.4-34-9.3c-10.6-5.8-19.9-13.7-28.1-23.7c-8.2-9.9-15.4-21.3-22-34
							c-6.9-13.4-12.4-28.1-17.2-44.3C1127.8,1107.4,1124,1090.6,1121.6,1073.5z M1262.9,1184c8.2-3.8,15.4-10.3,22.3-19.2
							c6.9-8.9,12.7-19.9,18.2-32.9c5.5-13,9.6-27.4,13-43.6c3.4-16.1,5.8-32.9,7.5-50.4c1.7-17.5,2.4-35,2.4-52.5
							c0-17.5-1-34.7-2.7-50.8c-1.7-16.1-4.1-30.9-7.5-44.6c-3.4-13.4-7.2-25-12-34.3c-4.1-7.9-7.9-14.1-12.4-17.8
							c-4.1-4.1-8.2-6.9-12-8.2c-3.8-1.4-7.5-2.1-11.7-1.4c-3.8,0.3-7.9,1.7-11.7,3.4c-8.6,4.1-16.8,11.7-25.4,22.6
							c-8.6,11-15.8,25.4-22,43.6s-11,39.5-13.7,64.2c-2.7,24.7-2.7,52.5-0.3,83c2.4,25.7,5.8,48.4,10.6,68.6
							c4.8,20.2,10.3,36,16.1,47.7s12,19.6,18.5,23C1247.1,1188.1,1254.7,1187.7,1262.9,1184z M1511.3,674.1l65.9-31.6l26.8,243.9
							c1,8.2,2.1,16.8,3.1,25c1,8.6,2.4,16.5,4.1,24.4c1.7,7.9,3.4,15.1,5.1,21.6c2.1,6.9,4.1,12.7,6.5,17.5
							c4.8,9.6,10.6,15.8,17.8,18.9c7.2,2.7,16.1,1.7,26.4-3.1c10.6-5.1,19.6-12.4,27.4-22c7.5-9.6,14.4-22,19.9-36.7
							c5.5-15.1,9.9-32.9,13.4-53.9c3.4-20.9,6.2-44.9,7.9-72l2.1-30.9l-22.3-198.6l66.2-31.6l48,436c5.1,46-1.4,86.1-19.2,120.4
							c-18.2,34.7-46.7,61.1-86.1,79.9c-19.6,9.3-37.4,14.4-53.5,15.4c-16.5,1-31.9-2.4-46.3-10.3c-7.2-3.8-13.7-8.6-19.2-14.1
							c-5.5-5.8-9.9-12-13.4-18.5c-5.5-11.3-6.9-22-3.8-32.2s9.9-17.8,20.9-23.3c9.6-4.5,18.9-5.5,27.8-2.7s15.8,8.9,20.6,18.5
							c4.5,8.6,5.5,17.5,3.1,26.1c-2.1,8.6-7.5,15.1-15.8,18.9c-3.8,1.7-6.5,2.4-8.2,1.7s-2.1-0.3-1.7,0.7c-3.1-5.8-3.8-8.9-2.7-9.6
							c1-0.3,3.8-1.4,7.9-3.1c1.4,2.4,3.4,4.5,6.9,6.2c3.4,1.7,7.9,2.7,13.7,3.1c5.8,0.3,12.7-0.3,20.6-2.4
							c7.9-1.7,16.1-4.8,24.7-8.9c12-5.8,22.3-12.7,30.5-20.9c8.2-8.2,14.8-17.8,19.2-28.8c4.8-11.3,7.5-24.4,8.9-39.5
							c1.4-15.1,0.7-32.6-1.4-52.1l-5.8-174.6c6.9,27.4,7.9,51.8,4.1,73.1c-4.1,21.3-9.6,40.1-16.8,56.6s-15.8,30.5-26.8,42.2
							c-10.6,11.7-23.3,20.9-38.4,28.1c-12.7,6.2-25,9.6-37.1,10.3c-12,0.7-23.3-0.7-34-5.1c-10.6-4.1-20.2-10.6-28.8-19.2
							c-8.6-8.6-15.8-18.9-21.6-30.9c-5.1-10.3-9.3-22-13-35c-3.4-13-6.2-27.4-7.9-42.5L1511.3,674.1z"/>
					</g>
				</g>
			</g>
			<g id="g5af0183294_0_162.3_2_">
				<path class="st4" d="M282,2077.7v-426.4h47.3c5.1,0,9.3,1,12.7,3.4c3.4,2.4,5.8,5.8,6.9,10.6l6.2,29.8
					c13-14.8,27.8-26.8,44.6-36c16.8-9.3,36.4-13.7,59-13.7c17.5,0,33.6,3.8,48,11s27.1,17.8,37.7,31.9
					c10.6,13.7,18.5,30.9,24.4,51.5c5.8,20.2,8.6,43.6,8.6,70c0,24-3.1,46.3-9.6,66.9c-6.5,20.6-15.8,38.1-27.8,53.2
					c-12,15.1-26.4,26.8-43.6,35.3c-17.2,8.6-36,12.7-57.3,12.7c-18.2,0-33.6-2.7-46.3-8.2c-12.7-5.5-24-13.4-34-23v131.7H282
					V2077.7z M432.3,1706.5c-16.1,0-29.8,3.4-41.2,10.3c-11.3,6.9-22,16.5-31.9,28.8v144.1c8.9,11,18.2,18.5,28.8,22.6
					c10.3,4.1,21.6,6.5,33.3,6.5c11.7,0,22.3-2.1,31.9-6.5c9.6-4.5,17.5-11,24-19.9s11.7-20.2,15.1-34c3.4-13.7,5.5-29.8,5.5-48.4
					c0-18.9-1.4-34.7-4.5-47.7c-3.1-13-7.2-23.7-13-31.9c-5.5-8.2-12.4-14.1-20.6-17.8C451.8,1708.2,442.6,1706.5,432.3,1706.5z
					 M636.4,1972.7v-321.5h45.3c7.9,0,13.4,1.4,16.5,4.5c3.1,3.1,5.1,7.9,6.2,15.1l4.8,38.8c11.3-19.9,25-35.3,40.5-47
					c15.4-11.3,32.9-17.2,52.1-17.2c15.8,0,29.2,3.8,39.5,11l-9.9,58c-0.7,3.8-2.1,6.5-4.1,7.9c-2.1,1.7-4.8,2.4-8.6,2.4
					c-3.1,0-7.5-0.7-12.7-2.1c-5.5-1.4-12.7-2.1-21.6-2.1c-16.1,0-29.8,4.5-41.5,13.4c-11.3,8.9-21.3,22-29.2,39.1v199.7H636.4z
					 M1025.1,1646.1c20.2,0,38.8,3.1,55.9,9.6c17.2,6.5,31.6,15.8,43.9,28.5c12.4,12.4,22,27.8,28.8,45.6
					c6.9,18.2,10.3,38.8,10.3,61.8c0,5.8-0.3,10.6-0.7,14.4c-0.3,3.8-1.4,6.9-2.7,8.9c-1.4,2.1-3.1,3.8-5.5,4.8
					c-2.4,1-5.1,1.4-8.9,1.4H947.6c2.4,32.9,11.3,57.3,26.8,72.7c15.4,15.4,36,23.3,61.4,23.3c12.7,0,23.3-1.4,32.6-4.5
					c9.3-3.1,17.2-6.2,23.7-9.6c6.9-3.4,12.7-6.9,17.8-9.6c5.1-3.1,9.9-4.5,14.8-4.5c3.1,0,5.8,0.7,8.2,2.1c2.4,1.4,4.1,3.1,5.8,5.5
					l22.6,28.1c-8.6,9.9-18.2,18.5-28.8,25.4c-10.6,6.9-21.6,12.4-33.3,16.1c-11.7,4.1-23.3,6.9-35.3,8.6c-12,1.7-23.7,2.4-35,2.4
					c-22.3,0-43.2-3.8-62.4-11c-19.2-7.5-36-18.5-50.1-32.9c-14.1-14.4-25.4-32.6-33.6-53.9c-8.2-21.3-12.4-46.3-12.4-74.4
					c0-22,3.4-42.5,10.6-61.8s17.2-36,30.5-50.4c13.4-14.4,29.5-25.7,48.7-34C979.5,1650.5,1001.1,1646.1,1025.1,1646.1z
					 M1026.9,1701.7c-22.6,0-40.1,6.5-52.8,19.2c-12.7,12.7-20.9,30.9-24.4,54.2h145.5c0-9.9-1.4-19.6-4.1-28.5
					c-2.7-8.9-6.9-16.8-12.7-23.3c-5.5-6.5-12.7-12-21.3-15.8C1048.1,1703.7,1038.2,1701.7,1026.9,1701.7z M1453.7,1972.7
					c-9.9,0-16.5-4.8-19.9-14.1l-6.2-30.9c-6.5,7.5-13.7,14.4-20.9,20.2c-7.2,6.2-15.1,11.3-23.7,15.8s-17.5,7.9-27.1,10.3
					c-9.6,2.4-20.2,3.8-31.6,3.8c-17.5,0-33.6-3.8-48.4-11c-14.8-7.2-27.1-17.8-37.7-31.9c-10.6-13.7-18.5-31.2-24.4-51.5
					c-5.8-20.6-8.6-43.9-8.6-70.3c0-23.7,3.1-46,9.6-66.6s15.8-38.1,27.8-53.2s26.8-26.8,43.6-35.3s36-12.7,57-12.7
					c17.8,0,33.3,2.7,46,8.6c12.7,5.8,24,13.4,34.3,23v-169.8h77.5v465.6H1453.7z M1350.4,1916.1c16.1,0,29.8-3.4,41.2-9.9
					s22-16.1,31.9-28.5v-144.1c-8.9-10.6-18.2-18.2-28.8-22.6c-10.3-4.5-21.6-6.5-33.3-6.5s-22.3,2.1-31.9,6.5
					c-9.6,4.5-17.5,11-24,19.9c-6.5,8.9-11.7,20.2-15.1,34c-3.4,13.7-5.5,29.8-5.5,48.4c0,18.9,1.4,34.7,4.5,47.7
					c3.1,13,7.2,23.7,13,31.9c5.5,8.2,12.7,14.1,20.6,17.8C1331.2,1914,1340.4,1916.1,1350.4,1916.1z M1667.1,1651.2v321.5h-77.5
					v-321.5H1667.1z M1678.4,1557.6c0,6.5-1.4,13-4.1,18.9c-2.7,5.8-6.2,11-11,15.4c-4.5,4.5-9.6,7.9-15.8,10.6
					c-6.2,2.7-12.7,3.8-19.6,3.8c-6.5,0-13-1.4-18.9-3.8c-5.8-2.7-11-6.2-15.4-10.6c-4.5-4.5-7.9-9.6-10.6-15.4
					c-2.7-5.8-3.8-12-3.8-18.9c0-6.9,1.4-13.4,3.8-19.6c2.7-6.2,6.2-11.3,10.6-15.8c4.5-4.5,9.6-7.9,15.4-10.6s12.4-3.8,18.9-3.8
					c6.9,0,13.4,1.4,19.6,3.8c6.2,2.7,11.3,6.2,15.8,10.6c4.5,4.5,8.2,9.6,11,15.8S1678.4,1550.7,1678.4,1557.6z M1980.3,1719.2
					c-2.4,3.1-4.5,5.1-6.9,6.9c-2.1,1.7-5.5,2.4-9.6,2.4s-7.9-1-11.7-3.4c-3.8-2.4-8.2-5.1-13.4-8.2c-5.1-3.1-11.3-5.8-18.5-8.2
					c-7.2-2.4-16.1-3.8-26.8-3.8c-13.7,0-25.4,2.4-35.7,7.2c-10.3,4.8-18.9,12-25.4,21.3c-6.9,9.3-12,20.2-15.1,33.3
					c-3.4,13-5.1,27.8-5.1,44.3c0,17.2,1.7,32.2,5.5,45.6c3.8,13.4,8.9,24.7,15.8,33.6s15.1,16.1,25,20.6c9.9,4.8,20.9,6.9,33.3,6.9
					c12.4,0,22.3-1.4,29.8-4.5c7.5-3.1,14.1-6.5,19.2-9.9c5.1-3.8,9.6-6.9,13.7-9.9c3.8-3.1,8.2-4.5,13-4.5c6.2,0,11,2.4,14.1,7.2
					l22.3,28.1c-8.6,9.9-17.8,18.5-27.8,25.4c-9.9,6.9-20.6,12.4-31.2,16.1c-10.6,4.1-22,6.9-33.3,8.6c-11.3,1.7-23,2.4-34.3,2.4
					c-19.9,0-38.4-3.8-55.9-11c-17.5-7.5-32.9-18.2-46-32.6c-13-14.1-23.3-31.6-30.9-52.1c-7.5-20.6-11.3-43.9-11.3-70.3
					c0-23.7,3.4-45.6,10.3-65.5c6.9-20.2,16.8-37.7,29.8-52.5s29.5-26.4,48.7-34.7c19.6-8.2,41.9-12.7,66.9-12.7
					c24,0,44.9,3.8,63.1,11.7c18.2,7.9,34.3,18.9,48.7,33.3L1980.3,1719.2z M2158.7,1977.8c-27.8,0-49.1-7.9-64.2-23.7
					c-15.1-15.8-22.6-37.4-22.6-65.2v-179.4h-32.6c-4.1,0-7.9-1.4-11-4.1c-3.1-2.7-4.5-6.9-4.5-12.4v-30.9l51.8-8.6l16.1-87.8
					c0.7-4.1,2.7-7.5,5.8-9.6c3.1-2.4,6.9-3.4,11.3-3.4h40.1V1654h84.7v55.2h-84.7v174.3c0,9.9,2.4,17.8,7.5,23.3s11.7,8.6,19.9,8.6
					c4.8,0,8.9-0.7,12-1.7s6.2-2.4,8.6-3.4c2.4-1.4,4.5-2.4,6.5-3.4c1.7-1,3.8-1.7,5.5-1.7c2.4,0,4.1,0.7,5.5,1.7
					c1.4,1,3.1,2.7,4.8,5.1l23.3,37.7c-11.3,9.3-24.4,16.5-38.8,21.3C2189.6,1975.4,2174.5,1977.8,2158.7,1977.8z"/>
			</g>
		</g>
	</g>
	<path class="st5" d="M2521,2183.3V727.7l-100.5-58l-953.1-550.3L1260.5,0l-206.9,119.4L100.5,669.7L0,727.7v1455.7l100.5,58
		l965.1,557.2l195.2,112.5l195.2-112.5l965.1-557.2L2521,2183.3z M100.5,2128.8V789.1l1160-669.7l0,0l1160,669.7v1339.4l-1160,670
		L100.5,2128.8z"/>
</g>
</svg>
