<svg xmlns="http://www.w3.org/2000/svg" xmlns:xlink="http://www.w3.org/1999/xlink" viewBox="0 0 738 852"><defs><style>.cls-1{fill:none;}.cls-2{isolation:isolate;}.cls-12,.cls-3{opacity:0.94;}.cls-4{opacity:0.25;mix-blend-mode:multiply;}.cls-5{clip-path:url(#clip-path);}.cls-6{clip-path:url(#clip-path-3);}.cls-7{clip-path:url(#clip-path-5);}.cls-8{opacity:0.95;}.cls-9{clip-path:url(#clip-path-7);}.cls-10,.cls-12,.cls-13{fill:#fff;}.cls-11{fill:#141227;}.cls-12{font-size:119.7px;letter-spacing:-0.02em;}.cls-12,.cls-13{font-family:MyriadPro-Regular, Myriad Pro;}.cls-13{font-size:25px;}.cls-14{letter-spacing:0.01em;}.cls-15{letter-spacing:-0.04em;}.cls-16{letter-spacing:-0.02em;}.cls-17{letter-spacing:-0.01em;}.cls-18{letter-spacing:0em;}.cls-19{fill:#db1f26;}.cls-20{fill:#00a5dc;}.cls-21{fill:#36a85d;}.cls-22{fill:#b57ab4;}.cls-23{fill:#f7a238;}.cls-24{fill:#fff34d;}.cls-25{opacity:0.4;}.cls-26{fill:#a65628;}.cls-27{fill:#164f86;}.cls-28{fill:#404040;}</style><clipPath id="clip-path"><path id="SVGID" class="cls-1" d="M5496.36-3513.66l-338.13,195.22-338.12-195.22v-390.43l338.12-195.22h0l338.13,195.22Z"/></clipPath><clipPath id="clip-path-3"><polygon id="SVGID-3" data-name="SVGID" class="cls-1" points="5002.16 -3729.89 5309.82 -3729.89 11888.74 451.38 -1576.76 451.38 5002.16 -3729.89"/></clipPath><clipPath id="clip-path-5"><path id="SVGID-5" data-name="SVGID" class="cls-1" d="M5494.86-3515.16l-338.13,195.22-338.12-195.22v-390.43l338.12-195.22h0l338.13,195.22Z"/></clipPath><clipPath id="clip-path-7"><polygon id="SVGID-7" data-name="SVGID" class="cls-1" points="5000.66 -3731.39 5308.32 -3731.39 11887.24 449.88 -1578.26 449.88 5000.66 -3731.39"/></clipPath></defs><title>RStudio_Hex 2018 v4 (fonts)</title><g class="cls-2"><g id="Layer_1" data-name="Layer 1"><g class="cls-3"><g class="cls-4"><g class="cls-5"><g class="cls-6"><polyline points="23526.62 12903.81 23526.62 12903.81 -9241.38 -19864.19 -9241.38 -19864.19 23526.62 12903.81"/><polyline points="-9241.38 12903.81 -9241.38 12903.81 23526.62 -19864.19 23526.62 -19864.19 -9241.38 12903.81"/><polyline points="830.75 -321.68 -360.4 -321.68 -1183.44 201.41 185.43 201.41 830.75 -321.68"/></g></g></g><g class="cls-7"><g class="cls-8"><g class="cls-2"><g class="cls-9"><polyline class="cls-10" points="23525.12 12902.31 23525.12 12902.31 -9242.88 -19865.69 -9242.88 -19865.69 23525.12 12902.31"/><polyline class="cls-10" points="-9242.88 12902.31 -9242.88 12902.31 23525.12 -19865.69 23525.12 -19865.69 -9242.88 12902.31"/><polyline class="cls-10" points="829.25 -323.18 -361.9 -323.18 -1184.94 199.91 183.93 199.91 829.25 -323.18"/></g></g></g></g></g><polygon class="cls-11" points="371.01 8.41 729.71 215.49 729.71 637.64 371.01 846.05 4.29 637.64 4.29 215.49 371.01 8.41"/><text class="cls-12" transform="translate(102.25 615.18) scale(1 1.06)">tidymodels</text><text class="cls-13" transform="matrix(0.86, -0.5, 0.5, 0.86, 369.18, 811.04)"><tspan class="cls-14">ww</tspan><tspan class="cls-15" x="37.4" y="0">w</tspan><tspan x="54.82" y="0">.rstudi</tspan><tspan class="cls-16" x="120.07" y="0">o</tspan><tspan x="133.2" y="0">.</tspan><tspan class="cls-17" x="138.37" y="0">c</tspan><tspan class="cls-18" x="149.42" y="0">om</tspan></text><g id="surface31"><path class="cls-19" d="M696.14,459l-11.37-1.27-11.37-1.47-7.56-1.09-7.58-1.26-7.52-1.38-3.77-.77L639.43,450l-3.75-.92L628.14,447l-3.74-1.12-7.53-2.5-7.51-2.82-3.76-1.54-3.76-1.62-7.49-3.53-1.94-1-1.85-.9-3.72-2-3.78-2.09-3.78-2.2L571.77,421,568,418.59l-7.56-5.19-2-1.47-1.79-1.25-2.31-1.75-1.47-1.06-2.52-1.95L549.1,405l-2.61-2.07-1.17-.88-2.62-2.13-1.16-.89L539,396.91l-1.24-1-2.39-2L534,392.78l-2.18-1.88-1.6-1.33-1.91-1.69-1.87-1.57-7.58-6.7-7.46-6.8-15.3-14.42-6.86-6.67-59.86-60.41L417,279.19l-4.64-4.37-7.68-6.88-3.83-3.26L397,261.57l-3.87-2.95-3.88-2.76-3.81-2.49-3.9-2.32L377.6,249l-3.93-1.81-3.95-1.53-4-1.25-4-.94-4-.64-4-.33-4,0-4,.27-4,.57-4,.84-4,1.11L330,246.6l-3.93,1.57-4,1.81-3.15,1.58L314.32,254l-3.85,2.24-2.36,1.44-4.82,3.05L299,263.62l-7.66,5.29-57,41.47-22.73,15.48-11.34,7.24-7.6,4.65-11.33,6.57-7.35,4-7.77,4L158.63,356l-7.53,3.36-7.52,3.09L136,365.21l-7.53,2.52L121,370l-3.76,1-3.75.93-7.54,1.67-3.76.73-7.53,1.28-7.53,1.06-3.77.44-3.77.38-7.54.64-7.58.47-7.56.34-7.57.19L38,379.2l-7.58,0-7.8-.14c-.1,1.68-.2,3.35-.29,5h.41L38,384.2h3.81L53.25,384l7.65-.27,7.67-.41,7.65-.56,7.67-.73,3.85-.45,7.69-1.08,7.66-1.3,3.86-.75,3.85-.83,7.67-1.83,3.87-1L130,372.5l7.69-2.57,7.68-2.86,7.68-3.16,7.67-3.43,3.48-1.65,8-4,7.67-4.07,7.38-4.13,7.91-4.63,7.32-4.48L214.29,330l11.42-7.64L241,311.76l34.26-25L292.83,274l8.66-6,4-2.69,3.76-2.4,3.75-2.3,2.73-1.59,4.74-2.62,3.72-1.86L327.4,253l4.25-1.73,3.5-1.2L339,249l3.64-.77,3.63-.53,3.62-.25h3.62l3.61.3,3.61.57,3.63.85,3,.93,4.33,1.62,3.67,1.69,3.69,1.95,3.7,2.19,3.68,2.41,2.64,1.88,4,3,3.74,3,3.58,3,4.84,4.23,7.56,7,7,6.79,53.72,54.38,15.29,15.06,15.3,14.58,7.25,6.66,6.77,6.07,1.23,1.14,2.22,1.9,1.6,1.45,7.64,6.55,7.65,6.3,7.65,6,7.65,5.76,1.82,1.27,2,1.48,2.28,1.56,1.55,1.11,7.48,5,4,2.57,3.83,2.32,2.16,1.23,1.67,1,3.67,2,4,2.17,1.87.92,2,1,3.88,1.86,3.82,1.76,7.71,3.25,7.69,2.89,7.69,2.55,3.85,1.15,7.68,2.11,3.84.94,7.66,1.72,3.84.79,7.46,1.37,7.85,1.3,7.64,1.11,11.45,1.47,11.44,1.28,19,1.86.45-5Z"/><path class="cls-20" d="M714.81,431.93l-11.37.28-11.36.11-7.56-.06-7.56-.2-7.54-.37-3.76-.25-3.77-.32-3.76-.38-3.75-.43-7.52-1.08-3.75-.65-3.74-.74-7.51-1.72-3.74-1L624.4,424l-3.78-1.19-3.73-1.27-2.37-.89-1.4-.5-3.73-1.46-2.4-1-1.38-.55-7.51-3.42-3.72-1.85-3.79-1.94-2.15-1.2-1.63-.85L583,405.76l-7.5-4.45-2.44-1.56-1.35-.82L564.2,394l-7.55-5.17-1.51-1.11-2.29-1.58-1.91-1.44-1.88-1.3-2.24-1.71-1.55-1.09-2.5-1.92-1.29-.93-2.69-2.08-1.1-.81L531,369.66l-.9-.67-10.39-8.37-1-.76-10-8.28-1.4-1.12-2.21-1.89-1.58-1.29-2-1.72-1.81-1.49L432,285.14,421.22,276,413.78,270,406,263.89l-4.11-3.06-4.29-3-4.42-3-4.06-2.55L385.21,250l-3.8-2-3.9-1.87-3.92-1.64-3.93-1.4-4-1.13-4-.86-4-.56-4.09-.27-3.9.06-4,.38-4,.68-3.8.94-4.16,1.33-3.95,1.56L325.93,247l-3,1.55-4.92,2.79-3.86,2.43-3.86,2.6-3.85,2.73-6.38,4.79L292.41,270l-27.85,23L249.4,305.31,238,314.1l-7.57,5.6-2.25,1.59-1.53,1.12L224,324.3l-1.06.76-7.56,5.11L207.81,335l-7.23,4.32-4.07,2.33-3.78,2.07-7.52,3.88-3.78,1.83-3.77,1.74-3.75,1.67-7.53,3.09-7.53,2.8-7.53,2.5-3.75,1.15L140,364.5l-3.76,1-7.56,1.81-3.77.82-3.77.78-7.57,1.45L106,371.63l-7.58,1.18-11.36,1.61-19,2.33-26.6,2.81-19.06,1.79c-.1,1.7-.2,3.39-.28,5.09l27.45-2.68,19.05-2,19.06-2.34,7.64-1.06,11.46-1.76,7.65-1.32,3.83-.72L126,373l3.84-.84,3.85-.91,7.65-1.91,7.67-2.17,3.85-1.18,7.69-2.56,7.68-2.85,3.87-1.56,3.82-1.6,3.58-1.59,4.11-1.89,7.69-3.82,3.82-2,7.69-4.29,7.65-4.58,7.46-4.76,4.07-2.7,7.63-5.29L241,318.1l6.35-4.89,1.29-1,10.21-8.14,22-18.16,17.21-14.12,7.56-5.88,5.55-4.06,4.33-3,4.66-3,4.15-2.42,3.74-1.95,3.27-1.52,4.07-1.63,3.69-1.2,3.6-.9,3.62-.63,3.61-.34,3.6-.05,3.61.22,3.62.51,3.63.78,3.65,1,3.66,1.3,3.69,1.54,3.69,1.77,3.68,2,2.69,1.57,4.75,2.93,3.78,2.51,3.77,2.65,3.76,2.75,3.78,2.88,7.56,6,11.38,9.47,49.4,43.08,30.5,26.1,15.26,12.55,11.44,9.06,11.45,8.73,1.56,1.1,2.26,1.72,1.88,1.31,1.94,1.45,2.29,1.58,1.52,1.12,2.81,1.93,1,.72,7.69,5.14,7.65,4.86,2.47,1.45,1.35.85,3.8,2.22,7.72,4.26,3.57,1.83,4.14,2.06,2.21,1,1.62.78,3.88,1.73,3.83,1.6,3.89,1.52,3.82,1.4,3.88,1.33,7.7,2.33,3.87,1,7.7,1.77,3.86.75,3.86.67,7.68,1.11,3.84.45,3.85.38,3.84.32,3.84.26,7.66.37,7.66.21,7.63.06,11.46-.11,11.43-.28Z"/><path class="cls-21" d="M699.85,390.38l-34.2-2.56-26.58-2.28-11.36-1.17-11.38-1.32-7.56-1-7.58-1.15-7.54-1.27-3.77-.72-7.54-1.55-3.77-.87-7.53-1.9-3.76-1-7.53-2.3L556,370l-3.79-1.35-7.52-2.91-7.51-3.22L529.67,359l-7.51-3.88L518.37,353l-7.51-4.35-3.79-2.31-7.56-4.82L492,336.48l-7.59-5.37L473,322.68l-11.38-8.86-34.21-28L416,276.64l-7.65-5.88-3.85-2.83-5.91-4.13-4.68-3.06-4.85-2.94-3.88-2.15-3.82-1.93-3.9-1.75-3.91-1.54-3.94-1.3-3.94-1-4-.78-4-.51-4.06-.25-3.9.06-4,.33-4,.61-3.59.79-4.34,1.23L330,251,326,252.56l-3.91,1.84-4,2.07-3.88,2.19-3.39,2.07-4.31,2.78-3.86,2.63-3.83,2.72-3.83,2.82-7.65,5.86-13.15,10.59-35.68,30.28-65.29,57-10.95,9.5L148.28,397l-1.62,1.41-1.93,1.6-1.86,1.61-15.18,12.61-11.37,9.12-7.58,5.89-11.37,8.5-2,1.43-1.76,1.31-2.45,1.71-1.33,1-11.33,7.69L70.9,455.7l-7.41,4.5-7.72,4.48L53,466.21l-8.54,4.58-2.79,1.41-8.55,4.21-7.55,3.48-4.53,2c0,1.81,0,3.63.05,5.44l6.52-2.85,7.66-3.53,11.48-5.7,3.06-1.61L58.22,469l2.6-1.49,8.91-5.25,7.63-4.77,7.71-5.07,7.61-5.22,7.63-5.46,2.12-1.58,1.7-1.22,2.38-1.81,1.44-1,2.58-2,1.23-.9,6.61-5.16,1-.77L129.74,419l1.09-.86,9.93-8.24,1.52-1.23,2.08-1.79,1.72-1.41,22.81-19.57L221,340.32l42-36.25L277.43,292l11.19-9,9.42-7.27,6.56-4.75,4.34-3,4.15-2.71,3.72-2.27,3.72-2.11L324,259l3.95-1.87,3.69-1.52,3.67-1.29,3.68-1.07,3.64-.81,3.63-.57,3.63-.3,3.63,0,3.62.21,3.64.46,3.64.71,3.65,1,3.67,1.21,3.68,1.44,3.7,1.67,3.66,1.85,3.53,1.95,3.95,2.36,3.75,2.4,1.73,1.16,5.79,4,6.64,4.95,7.69,6,38.84,31.73,15.26,12,2.21,1.64,1.61,1.25,2.45,1.78,1.37,1.05,7,5,8.33,5.78,7.64,5,7.15,4.41,8.19,4.77,7.69,4.13,3.83,1.94,2.89,1.37,8.64,3.94,7.69,3.14,7.69,2.81,3.85,1.28,7.68,2.35,3.85,1.06,7.67,1.94,3.84.88,3.84.81,7.65,1.5,7.67,1.29,11.47,1.68,7.64,1,15.25,1.66L650,391.55l64.68,4.93.37-5Z"/><polygon class="cls-22" points="35.33 641.75 30.82 639.58 80.05 536.8 98.33 500.49 106.29 485.35 117.94 464.14 124.95 452.02 132.3 439.88 140.04 427.74 144.08 421.67 152.55 409.51 159.25 400.41 166.32 391.3 171.22 385.21 178.9 376.09 189.72 363.94 201.21 351.81 213.32 339.67 232.47 321.48 266.25 291.2 280.36 279.08 287.62 273.01 295.19 266.89 298.99 263.91 303.03 260.85 307.25 257.78 311.69 254.73 314.19 253.07 318.06 250.67 321.95 248.44 325.94 246.38 329.86 244.58 333.81 243.02 337.77 241.73 341.75 240.71 345.74 239.98 349.72 239.56 353.63 239.43 357.71 239.62 361.69 240.1 365.67 240.88 369.62 241.95 373.57 243.29 377.5 244.89 381.41 246.75 385.31 248.84 390.03 251.7 393 253.64 396.88 256.36 400.75 259.26 404.61 262.33 410.15 267.02 413.61 270.07 416.96 273.12 420.21 276.15 429.6 285.25 447.51 303.41 465.7 322.02 480.87 337.1 493.05 348.65 496.29 351.65 503.61 358.24 511.18 364.77 518.73 371 526.29 376.91 533.84 382.48 537.59 385.11 541.43 387.71 546.03 390.69 548.9 392.52 552.67 394.8 556.45 396.99 563.95 401.07 567.74 402.98 571.46 404.78 578.97 408.14 587.75 411.63 590.27 412.58 597.8 415.18 601.55 416.37 609.1 418.59 612.86 419.61 620.42 421.52 624.2 422.42 635.54 424.88 646.9 427.07 654.48 428.43 673.44 431.54 703.84 436.04 715.23 437.64 714.54 442.6 676.49 437.07 657.43 434.01 649.8 432.68 638.36 430.55 626.9 428.15 623.07 427.29 615.38 425.42 611.59 424.44 607.75 423.4 600.08 421.15 592.4 418.64 588.55 417.28 584.73 415.85 580.87 414.34 577.04 412.75 573.17 411.07 564.87 407.12 561.64 405.51 557.82 403.47 553.43 401.01 550.11 399.09 546.27 396.77 542.45 394.36 538.54 391.8 534.14 388.78 527.08 383.75 525.73 382.71 523.25 380.88 521.71 379.67 519.42 377.93 517.82 376.62 515.59 374.88 514.03 373.58 511.77 371.77 510.32 370.54 507.94 368.58 506.7 367.5 499.67 361.41 496.25 358.37 492.66 355.12 480.04 343.22 473.56 336.94 458.32 321.66 426.08 288.81 419.93 282.8 412.75 276.04 408.98 272.63 403.35 267.79 399.7 264.81 397.69 263.22 393.95 260.41 390.21 257.78 386.51 255.37 382.44 252.97 379.11 251.18 375.42 249.44 371.75 247.95 368.1 246.71 364.45 245.73 360.83 245.03 357.21 244.6 353.6 244.43 349.98 244.55 346.37 244.94 342.74 245.61 339.1 246.55 335.44 247.75 331.77 249.2 328.08 250.9 324.15 252.94 320.62 254.97 316.89 257.27 313.16 259.76 309.4 262.38 305.66 265.13 301.91 267.98 298.09 270.96 290.53 277.09 279.18 286.65 262.65 301.01 239.14 322.13 219.92 340.23 204.79 355.29 193.41 367.32 182.68 379.36 175.08 388.38 167.86 397.41 161.01 406.43 156.6 412.44 152.35 418.45 148.22 424.47 140.34 436.49 132.87 448.53 125.73 460.59 117.25 475.64 102.77 502.79 87.51 532.97 56.81 596.4 35.33 641.75"/><path class="cls-23" d="M692.15,416l-11.39-.39-15.17-.71-11.37-.71-7.56-.58-7.56-.72-7.54-.87L624,411l-3.76-.59-3.76-.65-3.76-.72-7.53-1.61-3.75-.91-7.52-2.06-3.74-1.15-7.52-2.55-7.5-2.9-2.93-1.26-8.35-3.79-3.74-1.87L556.38,389l-2.49-1.38-1.3-.68-3.72-2.12-7.57-4.54-7.21-4.65-7.9-5.37-7.54-5.42-7.57-5.71-1.9-1.51-1.89-1.43-2-1.58-1.84-1.41-11.36-9.28-11.38-9.66-11.17-9.8-33.45-30.19-8.62-7.68L416,276.67l-3.83-3.14-3.85-3.06-3.85-2.92-3.85-2.8-3.87-2.65-3.89-2.48-3.34-1.95-4.36-2.33-3.92-1.82L377.35,252l-4-1.31-3.95-1-4-.74-4-.45-4.08-.15-3.89.15-4,.42-4,.71-3.95,1-2.92.89-5,1.75-3.22,1.36-4.67,2.15-3.87,2-3.64,2-4.06,2.38-3.85,2.38-6.76,4.41-8.56,5.89-37.83,27.42-19.15,13.52-11.31,7.61-11.42,7.35-7.59,4.64-7.53,4.42L189,346.92l-11.33,5.68-7.53,3.45-7.53,3.18L155,362.14l-7.53,2.64L140,367.15l-3.76,1.08-7.54,2-3.76.91-3.75.83-7.56,1.54L106,374.82,94.7,376.49l-7.57.94-7.57.79-11.36,1L53,380.37l-26.58,1.45-4,.17-.27,5,19.75-1L61,384.84l11.45-.92,11.46-1.1,7.64-.88,7.67-1,7.65-1.17,7.67-1.35,3.84-.76L126,376l3.84-.92,7.67-2,3.86-1.11,7.67-2.41,7.68-2.69,7.68-3,7.68-3.24,7.67-3.52,11.5-5.77,3.06-1.64,8.43-4.67,7.6-4.46,7.69-4.71,11.49-7.39L241,320.79,297.72,280l7.82-5.41,3.78-2.51,6.43-4.07,4.84-2.88,3.74-2.06,3.71-1.92,3.72-1.74,3.74-1.58,3.7-1.35,3.67-1.13,3.65-.89,3.64-.65,3.63-.4,3.63-.13,3.61.12,3.62.4,3.63.68,3.64.94,3.65,1.2,3.67,1.46,3.68,1.71,3.7,2,3.68,2.14,3.73,2.39,2.44,1.65,4.19,3,4,3,3.79,3,3.68,3,7.08,6L466.07,328l7.11,6.25,7,6.06,1.11,1,19.09,15.8L511.85,366l2.24,1.64,1.59,1.22,2.54,1.82,1.28,1,2.94,2.06,8.57,5.9,7.65,4.93,2.3,1.37,1.53,1L546,388.9l8,4.47,7.71,3.91,3.83,1.8,3.87,1.73,3.83,1.63,3.86,1.52,3.84,1.45,3.86,1.36,3.84,1.26,3.86,1.18,3.86,1.09,3.83,1,3.86.94,3.85.85,7.68,1.53,3.84.67,3.84.6,3.63.51,7.85,1,7.66.81,7.65.65,7.63.53,15.25.85,19,.72,22.84.59.11-5Z"/><path class="cls-24" d="M714.79,399.69l-11.39.42-19,.49-11.37.09-11.35-.11-7.56-.22L646.6,400l-7.55-.54-7.53-.73-3.76-.45-3.77-.51-3.75-.57-3.76-.65-3.76-.71-3.75-.78-3.76-.87-7.51-2L594,391.11l-7.51-2.47-7.51-2.82-7.51-3.18-2.54-1.18-1.24-.54-7.52-3.7-3.33-1.75-8-4.4-7.57-4.5-7.52-4.75-2-1.33L530,359.34l-11.36-7.84L511.05,346l-11.37-8.6-11.38-9L473.12,316.1,447,294.18l-14.62-12.11L424.76,276l-7.94-6.07-4.16-3-4.35-3.06-3.91-2.6-3.88-2.44-3.88-2.29-3.45-1.89-4.33-2.17-3.82-1.7-3.9-1.53-3.93-1.3-3.94-1.07-3.95-.81-4-.56-4-.29-4,0-4,.26-4,.54-4,.81-4,1.08-4,1.34-3.94,1.6-3.93,1.84-3.78,2-4.1,2.39L318,259.5l-3.86,2.66-2.34,1.7-4,3.07-5.16,4.12-5.94,5L291.08,281l-7.65,7.05-6.59,6.26-15.45,15.15L219.6,351.8,74.25,503l-5.85,6-1.76,1.87-19,19.27L21.16,556.24c0,2.31-.06,4.63-.1,7l14.87-14.34,26.66-26.73L69,515.49l1.17-1.15L72,512.46l5.79-5.92,5.92-6.18,1.74-1.75,1.18-1.28,2.57-2.61,90-94.09,5.07-5.23,9.51-9.89L258.86,319l15.23-15.1,12.58-12.07,6.48-6,5.05-4.52,7.54-6.44,3.76-3,3.76-2.91,3.74-2.74,3.72-2.56,2.7-1.73,4.78-2.85,3.7-2,3.69-1.73,3.69-1.5,3.65-1.25,3.66-1,3.64-.75,3.63-.49,3.63-.25h3.64l3.62.27,3.65.51,3.65.74,3.66,1,3.67,1.22,3.69,1.44,3.65,1.62,3.74,1.86,3.72,2,1.93,1.13,4.84,3,4.52,3,3.71,2.6,3.78,2.74,3.78,2.84,7.57,5.9L469,319.16l14.83,12.12,1.33,1.09,10.18,8,1.27,1,10.7,8.07,8.38,6.11,7.68,5.35L531,366l7.54,4.76,7.79,4.64,7.7,4.27,3.81,2,2.57,1.26,1.26.66,7.69,3.6,3.81,1.65,3.9,1.61,3.8,1.47,3.9,1.42,3.85,1.31,3.85,1.23,3.86,1.14,3.85,1,3.84,1,3.87.9,3.85.8,7.69,1.38,3.84.59,3.85.52,3.83.46,3.84.4,3.28.29,8.22.6,7.66.38,7.64.22,11.46.11,7.63-.05,15.25-.3,19-.66Z"/><g class="cls-25"><path class="cls-26" d="M688.45,397.47l-26.6-2-15.17-1.36-15.17-1.59L624,391.6l-7.57-1.05-7.56-1.16-7.54-1.32-3.69-.73-.15,0-3.72-.76-3.76-.82-3.75-.9-7.54-1.95-7.53-2.23-3.74-1.21-7.53-2.68-3.57-1.39-.11,0-3.84-1.55-7.51-3.3-2.25-1.1-1.53-.7-7.52-3.81L526,360.76l-7.57-4.46-3-1.89-8.3-5.33-7.58-5.16-2.11-1.52-1.67-1.15-10.73-7.87-7.93-6.06-11.44-9-40.21-33.19-13.29-10.74-7.67-5.88-6.43-4.66-4.48-3.05-4.49-2.87-3.89-2.3-3.81-2.08-.09-.05-3.81-1.85-.09,0-3.82-1.64-.13-.05-3.81-1.38-.14,0-3.81-1.12-.17,0-3.8-.83-.19,0-3.8-.53-.19,0-3.8-.23h-.21l-3.8.07h-.2l-3.8.38-.2,0-3.8.69-.17,0-3.81,1-.16.05-3.81,1.25-.15,0-3.8,1.52-.12,0-3.81,1.76-.1,0-3.85,2-3.92,2.24-3.86,2.38-2.43,1.61-4.48,3.06-4.2,3L299,269.91l-4,3-.16.14L291.21,276l-.15.13L287.39,279l-.14.13-60.67,50.39-11.37,9-11.37,8.63L202,348.51,200.05,350l-2.23,1.57-1.55,1.16-2.69,1.86-1.1.81L185,360.43l-.13.07-7.46,4.81-2.05,1.21-1.74,1.1-3.3,1.93-8,4.49-2.89,1.47-.89.49L151,379.64l-3.75,1.67-3.75,1.59-3.76,1.47-3.75,1.4-3.72,1.28-3.79,1.22-3.73,1.12-3.8,1-.13,0-3.59.91-3.75.85-3.74.77-7.54,1.34-3.75.57-3.77.5-3.76.44-3.77.38-7.56.64-7.55.47-7.57.32-11.36.26L41.78,398l-11.39-.08-8.71-.17c-.07,1.68-.13,3.36-.19,5l1.22,0,19.06.19,7.63,0,11.45-.19,7.66-.26,7.65-.4,7.67-.56,7.67-.73,3.84-.45,3.85-.51,3.84-.58,7.7-1.37,3.85-.79,3.86-.88,3.8-1,.18-.06,3.73-1L130,393l7.7-2.56,3.57-1.34.17-.06.1,0,3.87-1.52,3.36-1.44.35-.13.13-.05,3.87-1.72,2.42-1.18,1.41-.64,7.71-3.91,7.62-4.25.1-.06,3.8-2.24,1.76-1.11,2.07-1.23,7.48-4.81.16-.1,7.7-5.22L203,354l1.94-1.46,1.88-1.34,2.21-1.69,1.6-1.16,2.42-1.87,1.4-1,2.56-2,1.25-.95,10.29-8.15,50.61-42.06,11.38-9.36.12-.1,3.63-2.91.13-.1,3.69-2.9.12-.11,3.62-2.78,3.75-2.83,3.81-2.75,3.75-2.6,3.74-2.47,3.73-2.31,3.62-2.07,3.84-2,3.69-1.7,3.67-1.46,3.66-1.2,3.63-.93,3.62-.65,3.6-.35,3.6-.07,3.61.23,3.62.5,3.62.8,3.39,1,3.91,1.41,3.53,1.51,3.86,1.87,3.67,2,3.42,2,4.06,2.56,3.76,2.53,3.76,2.66,7.55,5.63,7.58,5.95,30.4,25.1,19.08,15.64,7.64,6.07L477.6,334l7.65,5.76,7.64,5.56,7.64,5.32,7.43,4.93.13.09.09.06L512,358.2l7.65,4.66,3.25,1.87,8.27,4.57,3,1.54,8.51,4.17,7.68,3.39,3.81,1.54.14.06,3.75,1.45,7.69,2.74,3.86,1.24,7.67,2.27,3.85,1,7.67,1.88,3.84.84,3.8.78.17,0,3.68.72,3.84.7,7.67,1.25,7.63,1.12,7.65,1,15.26,1.67,15.25,1.41,30.45,2.34,26.63,1.77.33-5Z"/></g><path class="cls-22" d="M711.25,448.12l-22.77-1.68-11.37-1-11.37-1.21-7.55-.94-7.55-1.09-7.56-1.24-3.76-.69-3.77-.75L628,437.83l-3.75-.92-7.53-2.08L613,433.69l-7.52-2.52-3.75-1.4L598,428.31l-3.7-1.56-3.8-1.66-2.76-1.31-1-.45-7.51-3.76-3.24-1.78-8-4.57-2.23-1.39-1.55-.92-7.51-4.83-3.78-2.55-7.57-5.33-1.81-1.36-2-1.41-2.08-1.6-1.7-1.24-2.25-1.77-1.53-1.14-2.34-1.88-1.45-1.09-2.34-1.92-1.44-1.11-2.27-1.89-1.52-1.2-2.13-1.81-1.66-1.33-1.94-1.68L515,374.26l-11.37-9.82L496,357.69l-19-17.41-32.81-30.9-19.65-18.16-6.83-6.07-9.31-7.95-7.68-6.14-3.85-2.89-3.85-2.77-2.36-1.6L386,260.74l-4.47-2.64L377.6,256l-3.15-1.5-4.68-2-3.31-1.15-4.58-1.31-4-.83-4-.53-4.07-.26-3.9.05-4,.33-4,.61-4,.87-3.55,1-4.33,1.48-4,1.6-3.91,1.77-2.73,1.37-5,2.65-3.85,2.23-2.09,1.26-4.85,3.05-4.55,3L287.52,275l-30.45,22-19,13.56-11.21,7.65-11.51,7.51-7.31,4.52-7.81,4.61-7.54,4.19L185.18,343l-7.54,3.65-3.51,1.59-4,1.76-7.53,3.05-7.52,2.74L151.34,357l-3.79,1.2-3.75,1.09-7.53,2-3.75.87L125,363.72l-3.76.68-3.76.62-3.77.55-3.75.49-7.56.85-7.55.66-7.56.48-7.56.34-7.57.22-11.37.13-11.38-.05-19-.34-7.1-.23c-.12,1.67-.23,3.34-.35,5l22.57.51,15.25.09,11.47-.13,7.64-.23,7.65-.34,7.66-.49,7.67-.66,3.84-.41,7.67-1,3.84-.56,3.85-.63,3.85-.7,7.68-1.58,3.85-.9,7.69-2L149,363l7.68-2.48,3.87-1.38,3.82-1.42,3.87-1.53,3.82-1.58,3.88-1.7,3.8-1.73,3-1.43,8.52-4.25,3.47-1.85,8-4.45,7.67-4.52,7.64-4.72,2.35-1.52,1.47-.92,11.47-7.6L244.78,312l26.64-19.26L289.08,280l8.85-6.07,3.76-2.48,3.78-2.41,6.79-4,4.43-2.42,3.72-1.87L324,259.1l3.82-1.54,3.67-1.28,3.68-1,3.65-.82,3.64-.56,3.63-.3,3.62-.05,3.62.22,3.62.49,3.64.75,3.65,1,3.66,1.27,3.68,1.51,3.69,1.74,2.94,1.56,4.44,2.55,3.75,2.38,3.74,2.53,3.76,2.7L397.7,275l6.13,4.88,7.15,6,9.41,8.28,10.7,9.78L466,336.82,488.88,358l7.2,6.46,6.9,6.06,1.12,1,2.38,2,1.44,1.3,2.1,1.74,1.72,1.52,1.86,1.52,2,1.69,1.68,1.34,2.15,1.83,1.53,1.21,2.29,1.91,1.46,1.13,2.36,1.93,7.64,5.93,1.72,1.26,2.1,1.61,2,1.42,1.84,1.39,2.35,1.65,1.47,1.08,2.85,2,1,.7,7.63,5.07,7.73,4.8,7.63,4.37,3.9,2.11,2.5,1.26,1.33.71,7.7,3.68,3.8,1.67,3.9,1.63,3.8,1.48,3.9,1.46,3.88,1.34,3.82,1.24,3.86,1.17,7.68,2.12,3.85.94,7.66,1.69,3.85.77,3.84.7,3.84.65,7.63,1.18,7.66,1,7.64.88,11.45,1.17,11.44,1,22.84,1.62.33-5Z"/><path class="cls-27" d="M695.92,359.13,646.51,358l-19-.69-15.18-.77L601,355.8l-7.57-.63-7.55-.76-7.56-.89-7.54-1.06-3.77-.61-7.54-1.36-3.76-.77-3.76-.83L544.41,347l-3.75-1-7.52-2.29-3.74-1.26-3.78-1.34-3.75-1.43-3.77-1.5-3.74-1.57-3.78-1.67-3.8-1.78-3.72-1.8-7.5-3.87-3.8-2.08-2.2-1.27-1.59-.87-3.65-2.14-7.67-4.67-6.73-4.33-8.4-5.59-7.58-5.25L419.7,276.59l-7.65-5.35-6.6-4.42-4.76-3.05-4-2.43-3.87-2.22-2.73-1.49-5-2.55-3.81-1.75-3.9-1.59-3.9-1.41-3.92-1.19-3.26-.8-4.62-.9-4-.48-4-.23-3.89,0-4,.3-4,.55-3.39.7-4.53,1.19-3.93,1.3-3.93,1.53-3.91,1.73-4,2-2.92,1.59-4.81,2.78-3.85,2.41-3.85,2.54-6.47,4.53L288.09,276l-7.83,6.08-33.47,27.23-35.4,28.28-10.56,7.93-12.13,8.79-11.38,7.78L175,363.54l-1.5,1L166,369.3l-7.57,4.53-3,1.72-8.27,4.55-11.31,5.61-7.52,3.36-3.54,1.45-4,1.59L117,393.52l-3.75,1.34-7.53,2.45L102,398.42l-7.53,2-3.76.92-3.76.84-7.55,1.53-3.76.69-3.77.62-7.56,1.13-7.56.95-7.56.8-11.36,1-7.58.53-8.92.48c-.05,1.68-.09,3.35-.12,5l1.73-.08,11.45-.7,7.63-.59,11.48-1.06,7.65-.89,7.68-1.05,7.66-1.22,3.84-.7,3.84-.76,7.68-1.66,3.85-.94,7.68-2.07,3.85-1.14,7.69-2.5,3.8-1.36,3.88-1.45,3.86-1.53,3.84-1.58,7.69-3.44,2.44-1.19,1.38-.63,7.69-3.88,2.88-1.57,8.62-4.81,2.15-1.29,1.67-1,7.69-4.73,7.62-4.93,2.27-1.55,1.55-1,11.49-8,7.62-5.54,11.43-8.6,19.06-15,34.22-27.95,15.18-12.25,7.56-5.9L298,274.8l3.76-2.69,6.1-4.14,4.71-3,4.18-2.47,3.72-2,2.89-1.43L328,257l3.68-1.44,3.68-1.22,3.68-1,3.64-.76,3.64-.51,3.64-.28,3.65,0,3.64.19,3.64.44,3.65.67,3.67.91,3.68,1.11,3,1.08,4.39,1.76,2.58,1.18,4.83,2.37,3.74,2,2.68,1.54,4.95,3,3.65,2.32,3.78,2.49,6.14,4.19,35.66,25.67,10.86,7.57,8.25,5.55,7.63,4.89,7.7,4.7,7.63,4.39,3.22,1.74,8.29,4.31,3.75,1.83,3.94,1.83,7.69,3.32,7.69,3,7.69,2.66,3.87,1.22,3.82,1.13,3.85,1.06,7.69,1.9,3.84.85,3.85.78,7.66,1.39,3.84.62,7.67,1.08,7.64.9,7.65.76,7.64.65,7.65.53,11.44.65,19,.8,26.65.75,49.44.93.09-5Z"/></g><path class="cls-28" d="M707.11,197.23,429.31,36.84,369,2,308.69,36.84,30.87,197.24,1.59,214.15V638.4l29.28,16.91L312.15,817.7,369,850.53l56.85-32.83L707.11,655.32l29.3-16.92V214.15Zm0,425.26L369,817.7,30.87,622.49V232.06L369,36.84h0L707.11,232.06Z"/></g></g></svg>