<svg id="Layer_1" data-name="Layer 1" xmlns="http://www.w3.org/2000/svg" xmlns:xlink="http://www.w3.org/1999/xlink" viewBox="0 0 735 852"><defs><style>.cls-1{fill:none;}.cls-2{clip-path:url(#clip-path);}.cls-3,.cls-7{opacity:0.25;}.cls-3{fill:url(#linear-gradient);}.cls-4{fill:#dea449;}.cls-5{clip-path:url(#clip-path-2);}.cls-6{fill:#ed7d15;}.cls-7{fill:url(#linear-gradient-2);}.cls-8{fill:#ac5d12;}.cls-9{fill:#9e4a11;}.cls-10{fill:#d36015;}.cls-11,.cls-14,.cls-15{fill:#fff;}.cls-12{fill:#50280b;}.cls-13{fill:#6e350e;}.cls-14{font-size:167.7px;letter-spacing:-0.03em;}.cls-14,.cls-15{font-family:MyriadPro-Regular, Myriad Pro;}.cls-15{font-size:25px;}.cls-16{letter-spacing:0.01em;}.cls-17{letter-spacing:-0.04em;}.cls-18{letter-spacing:-0.02em;}.cls-19{letter-spacing:-0.01em;}.cls-20{letter-spacing:0em;}</style><clipPath id="clip-path"><polygon class="cls-1" points="369.51 965.61 728.21 1172.68 728.21 1594.84 369.51 1803.24 2.79 1594.84 2.79 1172.68 369.51 965.61"/></clipPath><linearGradient id="linear-gradient" x1="366.25" y1="835.82" x2="367.55" y2="1299.35" gradientUnits="userSpaceOnUse"><stop offset="0" stop-color="#fff" stop-opacity="0.83"/><stop offset="0.56" stop-color="#fff" stop-opacity="0.37"/><stop offset="1" stop-color="#fff" stop-opacity="0"/></linearGradient><clipPath id="clip-path-2"><polygon class="cls-1" points="369.59 7.04 728.29 214.1 728.29 636.26 369.59 844.67 2.88 636.26 2.88 214.1 369.59 7.04"/></clipPath><linearGradient id="linear-gradient-2" x1="366.34" y1="-122.75" x2="367.64" y2="340.77" xlink:href="#linear-gradient"/></defs><title> </title><g class="cls-2"><ellipse class="cls-3" cx="366.89" cy="1064.02" rx="315.24" ry="234.63"/></g><path class="cls-4" d="M168.16,672.61c.29-.29.6-.59.93-.89h-.26Z"/><g class="cls-5"><circle class="cls-6" cx="365.59" cy="437.09" r="442.13"/><ellipse class="cls-7" cx="366.98" cy="105.44" rx="315.24" ry="234.63"/></g><path class="cls-8" d="M705.7,195.85,427.9,35.46,367.58.64,307.27,35.46,29.46,195.86.17,212.77V637l29.28,16.91,281.28,162.4,56.85,32.82,56.85-32.82L705.7,653.94,735,637V212.77Zm0,425.26L367.58,816.32,29.46,621.11V230.68L367.58,35.46h0L705.7,230.68Z"/><path class="cls-4" d="M367.12,603.88c.29-.29.6-.59.93-.89h-.26Z"/><path class="cls-9" d="M342.49,576.6h47.4c.32.2.23.52.23.8q0,8,0,16a1,1,0,0,1-.17.7l0,0c-.35.28-.76.17-1.14.17H343.56c-.38,0-.8.11-1.15-.17l0,0s-.07-.08-.07-.13c-.2-5.73-.07-11.45-.06-17.18C342.3,576.74,342.42,576.67,342.49,576.6Z"/><path class="cls-10" d="M440.49,573.6l-13.64,0-33.52,0c-.3-.21-.22-.53-.22-.81q0-8,0-16a1.25,1.25,0,0,1,.14-.71h0a2.46,2.46,0,0,1,1.31-.13h45c.43,0,.89-.13,1.3.16l0,0a.88.88,0,0,1,.16.4q0,8.21,0,16.42a1,1,0,0,1-.14.41h0A2.38,2.38,0,0,1,440.49,573.6Z"/><path class="cls-10" d="M339.06,573.6H291.9a3.3,3.3,0,0,1-.33-.29h0a5.56,5.56,0,0,1-.13-2.19q0-6.8,0-13.61a2.42,2.42,0,0,1,.15-1.44h0a2.07,2.07,0,0,1,1.3-.16h45a2.33,2.33,0,0,1,1.31.14h0a3.19,3.19,0,0,1,.14,1.6q0,7.26,0,14.52C339.27,572.66,339.48,573.18,339.06,573.6Z"/><path class="cls-10" d="M389.66,573.6l-10,0H344.65l-1.93,0c-.43-.21-.46-.59-.46-1,0-5.37,0-10.75,0-16.12a1,1,0,0,1,.15-.41h0a2.22,2.22,0,0,1,1.3-.15h45a2.17,2.17,0,0,1,1.3.15h0a2.14,2.14,0,0,1,.15,1.3q0,7.32,0,14.65C390.11,572.57,390.35,573.23,389.66,573.6Z"/><path class="cls-11" d="M393.32,594.09a22.71,22.71,0,0,1-.08-3.39q0-6.21,0-12.41c0-.58-.15-1.2.34-1.68s1-.31,1.55-.31h43.79c.53,0,1.1-.14,1.54.32a2,2,0,0,1,.3,1.41q0,7.33,0,14.66a2.31,2.31,0,0,1-.27,1.43c-.45.43-1,.3-1.55.3H394.87C394.34,594.42,393.77,594.54,393.32,594.09Z"/><path class="cls-11" d="M291.57,577.48a1.49,1.49,0,0,1,.35-.86c.44-.46,1-.32,1.54-.32h43.79c.53,0,1.1-.14,1.55.31a1.46,1.46,0,0,1,.35,1.09q0,8,0,16.1a1.76,1.76,0,0,1,0,.29c-.44.46-1,.33-1.54.33h-44.3c-1.71,0-1.94-.22-1.94-1.85,0-4.56,0-9.12,0-13.68A2,2,0,0,1,291.57,577.48Z"/><path class="cls-11" d="M292.76,638.44c.59,0,1.19,0,1.78,0h41.62c.59,0,1.19,0,1.78,0a.18.18,0,0,1,.31,0h.57a2,2,0,0,1,.32,1.41q0,7.28,0,14.56c0,1.46,0,1.5-1.51,1.5H293.81a7.48,7.48,0,0,0-1.92,0c-.72-.3-.61-1-.61-1.53q0-7.21,0-14.42c0-.57-.14-1.23.61-1.51l.56,0A.18.18,0,0,1,292.76,638.44Z"/><path class="cls-11" d="M393.55,638.44c.35,0,.69,0,1,0h44.87l1,0h0a2.73,2.73,0,0,1,.27,1.72q0,7.71,0,15.43a.87.87,0,0,1-.3.45,1.18,1.18,0,0,1-.55,0c-6.52.1-13,0-19.57,0-8,0-16,0-24,0a18,18,0,0,1-2.8-.17h0a1.54,1.54,0,0,1-.72-1.52q0-7.34,0-14.68a2.86,2.86,0,0,1,.27-1.14A.27.27,0,0,1,393.55,638.44Z"/><path class="cls-11" d="M291.61,597.47c.49,0,1-.08,1.48-.08h44.8c1.23,0,1.25,0,1.25,1.23q0,6.3,0,12.61c0,1.14,0,2.27,0,3.41a2.35,2.35,0,0,1-1.83.42H293.45c-2,0-2.17-.15-2.18-2.22q0-6.84,0-13.67C291.28,598.58,291.12,598,291.61,597.47Z"/><path class="cls-11" d="M393.26,597.41l1.48,0H439.3c1.46,0,1.47,0,1.47,1.47q0,7.2,0,14.41c0,1.38,0,1.39-1.39,1.39H394.67c-1.41,0-1.43,0-1.43-1.35q0-7.95,0-15.89Z"/><path class="cls-11" d="M339.1,676.45H293a1.82,1.82,0,0,1-1.4-.32c-.38-.35-.31-.81-.31-1.25q0-7.12,0-14.25c0-.48-.08-1,.36-1.38.39,0,.79-.05,1.18-.05h45.27c.35,0,.69,0,1,0h0q0,8.6,0,17.2Z"/><path class="cls-11" d="M339.07,618c0,1.87.07,3.75.07,5.62,0,3.85,0,7.7,0,11.55l-.23.19a3.66,3.66,0,0,1-1.47.14h-44.1a5,5,0,0,1-1.48-.1c-.62-.3-.56-.88-.56-1.42q0-7.27,0-14.54c0-1.5.29-1.76,1.88-1.77,4.4,0,8.8,0,13.21,0q15.36,0,30.72,0C337.75,617.62,338.48,617.41,339.07,618Z"/><path class="cls-11" d="M440.79,659.33q0,7.57,0,15.15c0,.35,0,.69,0,1,0,.69-.33,1-1,.95-.15,0-.3,0-.45,0h-46l0-17.21.23-.18a4.46,4.46,0,0,1,1.47-.11h44C439.59,659,440.28,658.74,440.79,659.33Z"/><path class="cls-11" d="M339.14,697c-.39,0-.79,0-1.18,0H293c-.44,0-.89,0-1.33-.06-.41-.32-.37-.79-.37-1.23q0-7.28,0-14.55a1.34,1.34,0,0,1,.3-1.11,1.92,1.92,0,0,1,1.41-.31H339.1l0,17.19Z"/><path class="cls-11" d="M393.28,679.78h46.05c1.39,0,1.44,0,1.44,1.4q0,7.28,0,14.56c0,1.27,0,1.29-1.36,1.29H394.54c-1.27,0-1.3,0-1.3-1.2,0-5.35,0-10.7,0-16Z"/><path class="cls-11" d="M393.28,635.14c0-5.73-.12-11.47,0-17.2.45-.44,1-.32,1.55-.32h44.26c1.78,0,2,.2,2,1.95q0,7,0,14c0,1.68-.22,1.92-1.87,1.92H394.69A1.86,1.86,0,0,1,393.28,635.14Z"/><path class="cls-12" d="M366.12,676.68H343.7c-1.27,0-1.33-.07-1.33-1.37q0-7.5,0-15c0-1.22.07-1.28,1.24-1.3,1,0,2,0,3,0h41.14c.4,0,.79,0,1.19,0,1,0,1.1.12,1.11,1.14,0,2.43,0,4.85,0,7.28s0,4.85,0,7.28c0,2,0,2-1.91,2Z"/><path class="cls-9" d="M390,597.4q0,8.62,0,17.24c-.54,0-1.09,0-1.63,0H344.25c-2,0-1.85.14-1.85-1.83q0-6.83,0-13.66c0-.35,0-.69,0-1,0-.56.25-.82.81-.79h46C389.48,597.36,389.73,597.39,390,597.4Z"/><path class="cls-12" d="M389.93,697.24l-4.15,0H344.24l-1.78,0a34.09,34.09,0,0,1-.09-4.3c0-4,0-7.92,0-11.89,0-1.33,0-1.35,1.31-1.35h45c1.26,0,1.31,0,1.31,1,0,5.3,0,10.6,0,15.9A4.66,4.66,0,0,1,389.93,697.24Z"/><path class="cls-13" d="M342.49,635.37c0-.39-.11-.78-.11-1.17q0-7.76,0-15.52c0-.25,0-.49.06-.74.3,0,.59,0,.89,0h45.73c.3,0,.59,0,.89,0,0,5.45,0,10.9,0,16.34,0,1-.11,1.06-1.13,1.1H343.08Z"/><path class="cls-13" d="M389.94,638.47c0,3.55.05,7.1.05,10.65,0,2.27,0,4.54-.05,6.81-.44,0-.89.05-1.33.05H343.77c-.44,0-.89,0-1.33,0,0-4.44-.05-8.89-.06-13.33,0-1.38,0-2.76.07-4.14l5.64,0h40.37C389,638.43,389.44,638.45,389.94,638.47Z"/><text class="cls-14" transform="translate(217.02 476.65) scale(1 1.06)">tidyr</text><path class="cls-10" d="M314.21,233.25l-.52,0a2.79,2.79,0,0,1-1.31.12H268.32a2.22,2.22,0,0,1-1.3-.15h0a1.81,1.81,0,0,1-.29-.34q0-8.43,0-16.86a1.78,1.78,0,0,1,.3-.34h47.18c.31.2.22.53.22.81q0,7.95,0,15.89C314.43,232.72,314.52,233,314.21,233.25Z"/><path class="cls-9" d="M317.59,215.73h46.92a2.62,2.62,0,0,1,.32.3h0a2.6,2.6,0,0,1,.14,1.45q0,7,0,14a2.68,2.68,0,0,1-.14,1.45h0l-.3.3h0a2.27,2.27,0,0,1-1.3.14H318.87a2.23,2.23,0,0,1-1.3-.15h0a3.67,3.67,0,0,1-.3-.31h0a.4.4,0,0,1,0-.59v-.3a12.38,12.38,0,0,1-.14-3.37c0-3.45,0-6.9,0-10.35a2.65,2.65,0,0,1,.14-1.45v-.3a.39.39,0,0,1,0-.59h0A1.7,1.7,0,0,1,317.59,215.73Z"/><path class="cls-11" d="M314,236.31l.26.24c.43.38.35.89.35,1.38q0,7.08,0,14.15c0,.48.07,1-.35,1.38l-.26.24c-.21.27-.5.25-.81.24-14.73-.1-29.46,0-44.19,0a3.38,3.38,0,0,1-1.6-.15c-.43-.37-.37-.87-.37-1.36q0-7.37,0-14.74c0-.49-.06-1,.38-1.36a3.37,3.37,0,0,1,1.6-.15c14.73,0,29.46.05,44.19,0C313.46,236.07,313.75,236,314,236.31Z"/><path class="cls-11" d="M367.86,236.61l.28-.29c.21-.27.5-.25.81-.25,14.78.1,29.56,0,44.34,0a3,3,0,0,1,1.46.16c.44.37.38.87.38,1.36q0,7.37,0,14.75c0,.49.06,1-.38,1.36a2.94,2.94,0,0,1-1.46.15c-14.78,0-29.56-.05-44.34,0-.3,0-.6,0-.81-.25l-.28-.29c-.44-.38-.33-.9-.34-1.38q0-7,0-14C367.52,237.51,367.41,237,367.86,236.61Z"/><path class="cls-11" d="M465.27,236.28c.43.38.37.88.37,1.38q0,7.35,0,14.71c0,.49.06,1-.37,1.38a4.35,4.35,0,0,1-1.9.15c-14.61,0-29.21,0-43.82,0-.3,0-.6,0-.83-.2a1.8,1.8,0,0,1-.33-1.4q0-7.33,0-14.66a1.79,1.79,0,0,1,.33-1.4c.23-.24.53-.2.83-.2,14.66.07,29.31,0,44,0A3.85,3.85,0,0,1,465.27,236.28Z"/><path class="cls-11" d="M314.23,274l-.26.24c-.21.27-.5.25-.81.24-14.73-.1-29.46,0-44.19,0a3.38,3.38,0,0,1-1.6-.15c-.43-.37-.37-.87-.37-1.36q0-7.37,0-14.74c0-.49-.06-1,.38-1.36a3.37,3.37,0,0,1,1.6-.15c14.73,0,29.46.05,44.19,0,.3,0,.59,0,.81.24l.26.24c.43.38.35.89.35,1.38q0,7.08,0,14.15C314.58,273.08,314.66,273.6,314.23,274Z"/><path class="cls-11" d="M367.86,257.12l.28-.29c.21-.27.5-.25.81-.25,14.78.1,29.56,0,44.34,0a3,3,0,0,1,1.46.16c.44.37.38.87.38,1.36q0,7.37,0,14.75c0,.49.06,1-.38,1.36a2.94,2.94,0,0,1-1.46.15c-14.78,0-29.56-.05-44.34,0-.3,0-.6,0-.81-.25l-.28-.29c-.44-.38-.33-.9-.34-1.38q0-7,0-14C367.52,258,367.41,257.5,367.86,257.12Z"/><path class="cls-11" d="M418.72,274.25a1.8,1.8,0,0,1-.33-1.4q0-7.33,0-14.66a1.79,1.79,0,0,1,.33-1.4c.23-.24.53-.2.83-.2,14.66.07,29.31,0,44,0a3.85,3.85,0,0,1,1.76.16c.43.38.37.88.37,1.38q0,7.35,0,14.71c0,.49.06,1-.37,1.38a4.35,4.35,0,0,1-1.9.15c-14.61,0-29.21,0-43.82,0C419.25,274.45,419,274.49,418.72,274.25Z"/><path class="cls-11" d="M317.6,274.2a21.27,21.27,0,0,1-.08-3.26q0-6.23,0-12.47c0-.54.05-1.08.08-1.63.25-.35.6-.25.95-.25q22.51.08,45,0c.34,0,.7-.1,1,.24,0,.74.08,1.48.08,2.22q0,6.83,0,13.67c0,.49-.05,1-.08,1.48-.25.34-.61.24-1,.24q-22.51-.08-45,0C318.2,274.45,317.84,274.55,317.6,274.2Z"/><path class="cls-11" d="M317.6,253.69a17.85,17.85,0,0,1-.08-3q0-6.38,0-12.77c0-.54.05-1.08.08-1.63.25-.35.6-.25.95-.25q22.51.08,45,0c.34,0,.7-.1,1,.24,0,.74.08,1.48.08,2.22q0,6.83,0,13.67c0,.49-.05,1-.08,1.48-.25.34-.61.24-1,.24q-22.5-.08-45,0C318.2,253.93,317.84,254,317.6,253.69Z"/><path class="cls-13" d="M415.06,215.75l.28.3q0,8.44,0,16.89a1.73,1.73,0,0,1-1.26.31H368.47c-.2,0-.39,0-.59-.05q0-8.24-.06-16.48a1.48,1.48,0,0,1,.29-1l7.43,0Z"/><path class="cls-12" d="M419.25,232.37c0-4.35,0-8.51,0-12.67,0-.64,0-1.29,0-1.93,0-1.11,0-1.12,1.21-1.15h43.1c1.46,0,1.47,0,1.47,1.49q0,6.39,0,12.78c0,.3,0,.59,0,.89a.56.56,0,0,1-.56.57c-.3,0-.59,0-.89,0H419.25Z"/><path class="cls-9" d="M572.12,538.87c23.18-41.94,41.6-132.58-7.92-192.33l-12.92,11.55-10.94-49.41,47.88,16.37-12.94,11.57C633,424.81,586.38,527.05,572.12,538.87Z"/><path class="cls-9" d="M165.55,328.7c-23.18,41.94-41.6,132.58,7.92,192.33l12.92-11.55,10.94,49.41-47.88-16.37,12.94-11.57C104.68,442.76,151.29,340.52,165.55,328.7Z"/><text class="cls-15" transform="matrix(0.86, -0.5, 0.5, 0.86, 369.37, 808.74)"><tspan class="cls-16">ww</tspan><tspan class="cls-17" x="37.4" y="0">w</tspan><tspan x="54.82" y="0">.rstudi</tspan><tspan class="cls-18" x="120.07" y="0">o</tspan><tspan x="133.2" y="0">.</tspan><tspan class="cls-19" x="138.37" y="0">c</tspan><tspan class="cls-20" x="149.42" y="0">om</tspan></text></svg>