<?xml version="1.0" encoding="utf-8"?>
<!-- Generator: Adobe Illustrator 22.0.1, SVG Export Plug-In . SVG Version: 6.00 Build 0)  -->
<svg version="1.1" id="Layer_1" xmlns="http://www.w3.org/2000/svg" xmlns:xlink="http://www.w3.org/1999/xlink" x="0px" y="0px"
	 viewBox="0 0 738 852" style="enable-background:new 0 0 738 852;" xml:space="preserve">
<style type="text/css">
	.st0{fill:#141227;}
	.st1{opacity:0.94;}
	.st2{fill:#FFFFFF;}
	.st3{opacity:0.8;fill:#F2F2F2;enable-background:new    ;}
	.st4{fill:#00A5DC;}
	.st5{fill:#FFF34D;}
	.st6{fill:#B57AB4;}
	.st7{fill:#DB1F26;}
	.st8{fill:#F7A238;}
	.st9{fill:#164F86;}
	.st10{fill:#36A85D;}
	.st11{fill:#F26524;}
	.st12{fill:#EF4782;}
	.st13{fill:#0088C5;}
	.st14{fill:#404040;}
</style>
<title>tidyposterior</title>
<polygon class="st0" points="718.4,222.8 369,21 369,21 19.6,222.8 19.6,626.3 369,828 718.4,626.3 "/>
<g class="st1">
	<path class="st2" d="M75.6,528.2v17.9h15.3v8.6H75.6v33.7c0,7.7,2.1,12.1,8,12.1c2.1,0,4.2-0.2,6.2-0.8l0.5,8.5
		c-3,1.1-6.3,1.7-9.5,1.5c-5,0-9-1.7-11.6-4.8c-3-3.4-4.1-8.9-4.1-16.2v-34.1H56v-8.6h9.1v-15L75.6,528.2z"/>
	<path class="st2" d="M112.4,528.6c0.3,3.6-2.4,6.7-6,7c-0.3,0-0.5,0-0.8,0c-3.8,0-6.4-3.1-6.4-7s2.8-7.1,6.7-7.1
		S112.4,524.6,112.4,528.6z M100.5,608.6v-62.5h10.7v62.4L100.5,608.6z"/>
	<path class="st2" d="M177.4,517v75.5c0,5.5,0.1,11.9,0.5,16.1h-9.6l-0.5-10.8h-0.2c-3.3,7-10.5,12.2-20.1,12.2
		c-14.2,0-25.2-12.8-25.2-31.7c-0.1-20.8,12-33.5,26.4-33.5c9,0,15.1,4.5,17.8,9.5h0.2V517H177.4z M166.7,571.6
		c0-1.6-0.1-3.2-0.5-4.8c-1.6-7.2-7.4-13.2-15.5-13.2c-11.1,0-17.6,10.3-17.6,24.1c0,12.6,5.8,23.1,17.4,23.1
		c7.2,0,13.8-5,15.7-13.5c0.4-1.6,0.5-3.3,0.5-4.9L166.7,571.6z"/>
	<path class="st2" d="M196.6,546.1l12.9,36.9c1.3,4.1,2.8,9,3.8,12.8h0.2c1.1-3.7,2.3-8.5,3.8-13l11.7-36.7h11.3l-16.1,44.5
		c-7.7,21.4-12.9,32.4-20.2,39.1c-3.6,3.6-8.2,6.1-13.1,7.3l-2.7-9.5c3.5-1.2,6.6-3.1,9.4-5.5c3.9-3.5,7-7.8,9-12.6
		c0.4-0.9,0.7-1.8,0.9-2.7c-0.1-1-0.3-2-0.7-3L185,546.1H196.6z"/>
	<path class="st2" d="M247.6,566.5c0-8-0.2-14.5-0.5-20.4h9.6l0.5,10.7h0.2c4.4-7.6,11.3-12.1,20.9-12.1c14.2,0,25,12.8,25,31.7
		c0,22.5-12.9,33.5-26.8,33.5c-7.8,0-14.6-3.6-18.1-9.8h-0.2v33.9h-10.6V566.5z M258.2,583.1c0,1.6,0.2,3.1,0.5,4.6
		c2,7.9,8.4,13.3,16.1,13.3c11.3,0,17.9-9.8,17.9-24.1c0-12.5-6.2-23.2-17.5-23.2c-7.3,0-14.1,5.5-16.2,14.1
		c-0.4,1.5-0.7,3.1-0.7,4.6L258.2,583.1z"/>
	<path class="st2" d="M367.8,576.8c0,23.1-15.1,33.2-29.3,33.2c-16,0-28.2-12.4-28.2-32.1c0-20.9,12.9-33.2,29.2-33.2
		C356.3,544.7,367.8,557.7,367.8,576.8z M321,577.5c0,13.7,7.4,24,17.9,24c10.2,0,17.9-10.2,17.9-24.3c0-10.6-5-24-17.6-24
		S321,565.6,321,577.5L321,577.5z"/>
	<path class="st2" d="M377.4,596.9c4.2,2.8,9.1,4.4,14.1,4.5c7.8,0,11.4-4.1,11.4-9.3c0-5.4-3-8.4-11-11.5
		c-10.6-4-15.6-10.2-15.6-17.7c0-10.1,7.7-18.3,20.3-18.3c5.1,0,10.1,1.3,14.5,3.9l-2.7,8.2c-3.6-2.3-7.7-3.6-12-3.6
		c-6.3,0-9.9,3.9-9.9,8.5c0,5.2,3.5,7.5,11.2,10.6c10.2,4.1,15.5,9.5,15.5,18.8c0,11-8,18.7-22,18.7c-5.8,0.1-11.5-1.4-16.5-4.3
		L377.4,596.9z"/>
	<path class="st2" d="M437.5,528.2v17.9h15.3v8.6h-15.3v33.7c0,7.7,2.1,12.1,8,12.1c2.1,0,4.2-0.2,6.2-0.8l0.5,8.5
		c-3,1.1-6.3,1.7-9.5,1.5c-5,0-9-1.7-11.6-4.8c-3-3.4-4.1-8.9-4.1-16.2v-34.1h-9.1v-8.6h9.1v-15L437.5,528.2z"/>
	<path class="st2" d="M467.7,579.4c0.2,15.3,9.5,21.7,20.2,21.7c7.7,0,12.3-1.4,16.3-3.2l1.8,8.2c-3.8,1.8-10.2,3.9-19.6,3.9
		c-18.1,0-29-12.6-29-31.5s10.5-33.7,27.6-33.7c19.2,0,24.3,17.9,24.3,29.4c0,1.8-0.1,3.5-0.4,5.3L467.7,579.4z M499.1,571.3
		c0.1-7.2-2.8-18.5-14.8-18.5c-10.8,0-15.6,10.6-16.4,18.5H499.1z"/>
	<path class="st2" d="M520.2,565.6c0-7.4-0.1-13.7-0.5-19.5h9.4l0.4,12.2h0.5c2.7-8.4,9.1-13.7,16.3-13.7c1,0,2.1,0.1,3,0.4v10.7
		c-1.2-0.3-2.4-0.4-3.7-0.4c-7.5,0-12.9,6.1-14.4,14.6c-0.3,1.7-0.5,3.5-0.5,5.3v33.3h-10.6V565.6z"/>
	<path class="st2" d="M570,528.6c0.3,3.6-2.4,6.7-6,7c-0.3,0-0.5,0-0.8,0c-3.8,0-6.5-3.1-6.5-7s2.8-7.1,6.7-7.1S570,524.6,570,528.6
		z M558.1,608.6v-62.5h10.7v62.4L558.1,608.6z"/>
	<path class="st2" d="M637.5,576.8c0,23.1-15.1,33.2-29.3,33.2c-15.9,0-28.2-12.4-28.2-32.1c0-20.9,12.9-33.2,29.2-33.2
		C626,544.7,637.5,557.7,637.5,576.8z M590.7,577.5c0,13.7,7.4,24,17.9,24c10.2,0,17.9-10.2,17.9-24.3c0-10.6-5-24-17.7-24
		S590.7,565.6,590.7,577.5z"/>
	<path class="st2" d="M648.5,565.6c0-7.4-0.1-13.7-0.5-19.5h9.4l0.4,12.2h0.5c2.7-8.4,9.1-13.7,16.3-13.7c1,0,2,0.1,3,0.4v10.7
		c-1.2-0.3-2.4-0.4-3.7-0.4c-7.5,0-12.9,6.1-14.4,14.6c-0.3,1.7-0.5,3.5-0.5,5.3v33.3h-10.5V565.6z"/>
</g>
<polyline class="st3" points="349.4,67.5 353.6,65.1 357.8,67.5 357.8,72.4 353.6,74.7 349.4,72.3 349.4,67.5 "/>
<polyline class="st3" points="284.2,113.7 288.8,111.1 293.3,113.7 293.3,118.9 288.8,121.5 284.2,118.9 284.2,113.7 "/>
<polyline class="st3" points="447.1,90.4 453.4,86.8 459.8,90.4 459.8,97.7 453.4,101.3 447.1,97.7 447.1,90.4 "/>
<polyline class="st3" points="460.8,178.2 465.9,175.3 471.1,178.2 471.1,184.2 465.9,187 460.8,184.1 460.8,178.2 "/>
<polygon class="st4" points="362,92.3 362,87.4 357.8,85 353.6,87.4 353.6,92.3 357.8,94.7 "/>
<polygon class="st4" points="284.9,196 284.9,200.8 289.1,203.1 293.1,200.8 293.1,196 289.1,193.7 "/>
<polyline class="st3" points="150.5,204.4 155.2,201.8 159.9,204.4 159.9,209.8 155.2,212.5 150.5,209.8 150.5,204.4 "/>
<polyline class="st4" points="105.1,317.4 111.5,313.9 117.8,317.5 117.8,324.8 111.5,328.4 105.1,324.7 105.1,317.4 "/>
<polyline class="st5" points="171.1,243.3 176.3,240.4 181.5,243.3 181.5,249.3 176.3,252.3 171.1,249.3 171.1,243.3 "/>
<polyline class="st5" points="158.3,345.5 163.2,342.8 168.1,345.5 168.1,351.2 163.2,353.9 158.3,351.1 158.3,345.5 "/>
<polyline class="st3" points="284.2,237.4 288.6,234.9 293,237.4 293,242.5 288.6,245 284.2,242.5 284.2,237.4 "/>
<polyline class="st6" points="184.3,682.6 187.4,680.8 190.6,682.6 190.6,686.2 187.4,688 184.3,686.2 184.3,682.6 "/>
<polyline class="st3" points="48,327 52.7,324.4 57.4,327.1 57.4,332.5 52.7,335.1 48,332.4 48,327 "/>
<polyline class="st3" points="604.8,261.1 608.5,259 612.1,261.1 612.1,265.3 608.5,267.4 604.8,265.3 604.8,261.1 "/>
<polyline class="st7" points="475.9,672.3 478.2,671 480.5,672.3 480.5,675 478.2,676.3 475.9,675 475.9,672.3 "/>
<polyline class="st3" points="640.2,376.7 644.4,374.3 648.7,376.7 648.7,381.6 644.4,384 640.2,381.6 640.2,376.7 "/>
<polyline class="st3" points="455.5,128 459.5,125.7 463.6,128 463.6,132.7 459.5,135 455.5,132.7 455.5,128 "/>
<polyline class="st3" points="280.9,729.7 284.4,727.7 287.8,729.7 287.8,733.7 284.4,735.6 280.9,733.6 280.9,729.7 "/>
<polyline class="st5" points="443.8,697.8 445.9,696.6 448.1,697.8 448.1,700.3 445.9,701.6 443.8,700.3 443.8,697.8 "/>
<polyline class="st7" points="216.3,696.3 219.7,694.4 223.2,696.3 223.2,700.3 219.7,702.3 216.3,700.3 216.3,696.3 "/>
<polyline class="st3" points="508.4,692.9 510.5,691.7 512.7,692.9 512.7,695.4 510.5,696.6 508.4,695.4 508.4,692.9 "/>
<polyline class="st3" points="588.9,637.7 591.3,636.4 593.7,637.8 593.7,640.5 591.3,641.9 588.9,640.5 588.9,637.7 "/>
<polyline class="st8" points="544.6,175.7 549.2,173.1 553.7,175.7 553.7,180.9 549.2,183.5 544.6,180.9 544.6,175.7 "/>
<polyline class="st3" points="669.3,258.6 672.9,256.6 676.5,258.6 676.5,262.7 672.9,264.8 669.3,262.7 669.3,258.6 "/>
<polyline class="st3" points="681,296.3 684.2,294.5 687.3,296.3 687.3,299.9 684.2,301.7 681,299.9 681,296.3 "/>
<polygon class="st8" points="383.7,82.7 383.7,77.8 379.6,75.4 375.4,77.8 375.4,82.7 379.6,85.1 "/>
<polygon class="st8" points="363.5,145 363.5,141.4 360.5,139.6 357.3,141.4 357.3,145 360.5,146.8 "/>
<polygon class="st8" points="378,108.3 378,103.4 373.9,101 369.7,103.4 369.7,108.3 373.9,110.7 "/>
<polygon class="st9" points="426.9,136.7 426.9,141.9 431.4,144.4 435.8,141.9 435.8,136.7 431.4,134.2 "/>
<polygon class="st10" points="425.2,84.6 425.2,77.3 419,73.7 412.7,77.3 412.7,84.6 419,88.2 "/>
<polygon class="st7" points="302.6,139.8 302.6,145.3 307.4,148 312,145.3 312,139.8 307.4,137.1 "/>
<polygon class="st5" points="319.5,116.4 319.5,120.9 323.5,123.2 327.4,120.9 327.4,116.4 323.5,114.2 "/>
<polygon class="st5" points="247.2,182.1 247.2,187.1 251.6,189.6 255.9,187.1 255.9,182.1 251.6,179.6 "/>
<polygon class="st5" points="89.8,306.9 89.8,303 86.5,301.1 83.1,303 83.1,306.9 86.5,308.8 "/>
<polygon class="st11" points="151.4,311.1 151.4,315.6 155.3,317.9 159.1,315.6 159.1,311.1 155.3,308.9 "/>
<polygon class="st9" points="141.4,251.2 141.4,247.5 138.3,245.8 135.1,247.5 135.1,251.2 138.3,253 "/>
<polygon class="st5" points="48.7,270.7 48.7,275.4 52.8,277.7 56.8,275.4 56.8,270.7 52.8,268.4 "/>
<polygon class="st7" points="204,180.4 204,177.2 201.3,175.6 198.5,177.2 198.5,180.4 201.3,182 "/>
<polygon class="st10" points="212.6,195.2 212.6,200.1 216.9,202.5 221,200.1 221,195.2 216.9,192.8 "/>
<polygon class="st10" points="84.6,228.9 84.6,233.5 88.5,235.8 92.4,233.5 92.4,228.9 88.5,226.7 "/>
<polygon class="st7" points="116.5,272.1 116.5,268.4 113.4,266.6 110.1,268.4 110.1,272.1 113.4,274 "/>
<polygon class="st5" points="89.8,379.4 89.8,375.5 86.5,373.6 83.1,375.5 83.1,379.4 86.5,381.3 "/>
<polygon class="st11" points="111.2,395.2 111.2,399.7 115.1,401.9 118.9,399.7 118.9,395.2 115.1,393 "/>
<polygon class="st9" points="141.4,343.7 141.4,340.1 138.3,338.3 135.1,340.1 135.1,343.7 138.3,345.5 "/>
<polygon class="st9" points="141.5,401.8 141.5,409.1 147.9,412.7 154.1,409.1 154.1,401.8 147.9,398.2 "/>
<polygon class="st7" points="116.5,364.6 116.5,360.9 113.4,359.1 110.1,360.9 110.1,364.6 113.4,366.5 "/>
<polygon class="st8" points="44.7,442.4 44.7,448.5 50,451.6 55.2,448.5 55.2,442.4 50,439.4 "/>
<polygon class="st8" points="201.7,656 201.7,658.2 203.6,659.2 205.4,658.2 205.4,656 203.6,655 "/>
<polygon class="st9" points="250.3,716.5 250.3,718.5 252.1,719.5 253.8,718.5 253.8,716.5 252.1,715.6 "/>
<polygon class="st9" points="50,382.5 50,377.2 45.5,374.5 40.8,377.2 40.8,382.5 45.5,385.2 "/>
<polygon class="st8" points="231.2,160 231.2,154.5 226.6,151.8 221.8,154.5 221.8,160 226.6,162.7 "/>
<polygon class="st5" points="201.1,277.4 201.1,272.5 196.9,270 192.6,272.5 192.6,277.4 196.9,279.9 "/>
<polygon class="st9" points="250.9,239.5 250.9,234.8 246.9,232.5 242.8,234.8 242.8,239.5 246.9,241.8 "/>
<polygon class="st9" points="377.9,740.7 377.9,744.7 381.3,746.6 384.7,744.7 384.7,740.7 381.3,738.7 "/>
<polygon class="st5" points="84.9,416.6 84.9,420.8 88.5,422.8 92.1,420.8 92.1,416.6 88.5,414.5 "/>
<polygon class="st5" points="233.4,662.2 233.4,665.1 235.9,666.5 238.4,665.1 238.4,662.2 235.9,660.7 "/>
<polygon class="st7" points="347.3,732.4 347.3,734.4 349,735.4 350.7,734.4 350.7,732.4 349,731.5 "/>
<polygon class="st8" points="605.6,337.9 605.6,342.3 609.4,344.5 613.2,342.3 613.2,337.9 609.4,335.7 "/>
<polygon class="st12" points="266,682.1 266,684.7 268.2,686 270.4,684.7 270.4,682.1 268.2,680.8 "/>
<polygon class="st12" points="616.3,383.6 616.3,388.9 620.9,391.4 625.3,388.9 625.3,383.6 620.9,381 "/>
<polygon class="st13" points="604.4,289 604.4,284.3 600.3,282 596.2,284.3 596.2,289 600.3,291.4 "/>
<polygon class="st9" points="663.5,426.5 663.5,430.1 666.7,432 669.8,430.1 669.8,426.5 666.7,424.7 "/>
<polygon class="st9" points="470.4,158.5 470.4,164.4 475.5,167.3 480.5,164.4 480.5,158.5 475.5,155.6 "/>
<polygon class="st10" points="635.2,328 635.2,331.5 638.3,333.3 641.3,331.5 641.3,328 638.3,326.2 "/>
<polygon class="st8" points="494.1,173.5 494.1,179.4 499.2,182.3 504.2,179.4 504.2,173.5 499.2,170.6 "/>
<polygon class="st8" points="651,226.8 651,230.4 654.1,232.1 657.2,230.4 657.2,226.8 654.1,225.1 "/>
<polygon class="st9" points="594.7,231.6 594.7,226.3 590.2,223.8 585.7,226.3 585.7,231.6 590.2,234.2 "/>
<polygon class="st9" points="612.3,197.8 612.3,194.3 609.3,192.5 606.2,194.3 606.2,197.8 609.3,199.6 "/>
<polygon class="st10" points="558.8,220.3 558.8,215.1 554.4,212.5 549.9,215.1 549.9,220.3 554.4,222.9 "/>
<polygon class="st10" points="635.1,422.7 635.1,428 639.7,430.6 644.2,428 644.2,422.7 639.7,420.1 "/>
<polygon class="st10" points="394.4,654 394.4,657.6 397.5,659.4 400.5,657.6 400.5,654 397.5,652.2 "/>
<polygon class="st8" points="329.4,660 329.4,664 332.9,666 336.2,664 336.2,660 332.9,658.1 "/>
<polygon class="st8" points="231.5,264.6 231.5,269.4 235.7,271.8 239.8,269.4 239.8,264.6 235.7,262.2 "/>
<polygon class="st8" points="410.2,722 410.2,726 413.6,727.9 417,726 417,722 413.6,720 "/>
<polygon class="st9" points="458.7,694.6 458.7,698.6 462.1,700.6 465.5,698.6 465.5,694.6 462.1,692.7 "/>
<polygon class="st9" points="316.7,740.3 316.7,742.9 318.9,744.2 321.1,742.9 321.1,740.3 318.9,739.1 "/>
<polygon class="st9" points="362.4,769 362.4,772.3 365.2,773.9 367.9,772.3 367.9,769 365.2,767.5 "/>
<polygon class="st5" points="298.8,693.5 298.8,695.5 300.5,696.5 302.3,695.5 302.3,693.5 300.5,692.5 "/>
<polygon class="st8" points="426.4,679.6 426.4,683.6 429.8,685.6 433.2,683.6 433.2,679.6 429.8,677.7 "/>
<polygon class="st7" points="573.1,646.7 573.1,649.1 575.2,650.3 577.3,649.1 577.3,646.7 575.2,645.5 "/>
<polygon class="st7" points="524,691.8 524,695 526.7,696.6 529.5,695 529.5,691.8 526.7,690.2 "/>
<polygon class="st9" points="557,666 557,668.4 559,669.5 561,668.4 561,666 559,664.9 "/>
<polygon class="st5" points="492.7,668.4 492.7,670.4 494.4,671.4 496.1,670.4 496.1,668.4 494.4,667.4 "/>
<polygon class="st10" points="538.6,649.8 538.6,654.8 542.9,657.2 547.1,654.8 547.1,649.8 542.9,647.4 "/>
<polygon class="st10" points="634,256 634,251.6 630.2,249.4 626.3,251.6 626.3,256 630.2,258.2 "/>
<polygon class="st8" points="691.7,336.5 691.7,332.9 688.6,331.2 685.6,332.9 685.6,336.5 688.6,338.2 "/>
<polygon class="st10" points="643.7,294.2 643.7,298.6 647.5,300.8 651.3,298.6 651.3,294.2 647.5,292 "/>
<polyline class="st6" points="691.4,395.4 695.9,392.9 700.4,395.5 700.4,400.7 695.9,403.2 691.4,400.6 691.4,395.4 "/>
<path class="st2" d="M365.4,799.2l4.5,4.5c1,1,1.9,1.9,2.7,2.9h0.1c-0.4-1.2-0.7-2.5-1-3.8l-1.4-6.3l1.6-0.9l4.7,4.3
	c1.1,1,2.1,2,2.9,2.9h0.1c-0.5-1.3-0.9-2.5-1.2-3.8l-1.6-6.1l1.9-1.1l2.7,12.4l-1.7,1l-4.5-4.1c-1-1-2-1.8-2.9-2.9l0,0
	c0.4,1.3,0.8,2.6,1.1,4l1.2,6l-1.7,1l-9.2-8.6L365.4,799.2z"/>
<path class="st2" d="M381.6,789.8l4.5,4.5c1,1,1.9,1.9,2.7,2.9h0.1c-0.4-1.2-0.7-2.5-1-3.8l-1.4-6.3l1.6-0.9l4.7,4.3
	c1.1,1,2.1,2,2.9,2.9h0.1c-0.5-1.3-0.9-2.6-1.2-3.9l-1.5-6.2l1.9-1.1l2.7,12.4l-1.7,1l-4.5-4.1c-1-1-2-1.8-2.9-2.9l0,0
	c0.4,1.3,0.8,2.6,1.1,4l1.2,6l-1.7,1l-9.3-8.5L381.6,789.8z"/>
<path class="st2" d="M397.8,780.4l4.5,4.5c1,1,1.9,1.9,2.7,2.9h0.1c-0.4-1.2-0.7-2.5-1-3.8l-1.4-6.3l1.6-0.9l4.7,4.3
	c1.1,1,2.1,2,2.9,2.9h0.1c-0.5-1.3-0.9-2.6-1.2-3.9l-1.6-6.1l1.9-1.2l2.7,12.4l-1.7,1l-4.5-4.1c-1-1-2-1.8-2.9-2.9l0,0
	c0.4,1.3,0.8,2.6,1.1,4l1.2,6l-1.7,1l-9.2-8.6L397.8,780.4z"/>
<path class="st2" d="M417,781.7c-0.5-0.7-0.3-1.6,0.4-2.1c0,0,0.1,0,0.1-0.1c0.7-0.5,1.7-0.3,2.2,0.5c0.5,0.7,0.3,1.7-0.5,2.2
	C418.5,782.7,417.5,782.5,417,781.7C417,781.7,417,781.7,417,781.7z"/>
<path class="st2" d="M418.4,772.7c-0.7-1.2-1.4-2.3-2-3.2l1.7-1l1.3,2l0.1,0c-0.4-1.5,0.2-3.2,1.6-4c0.2-0.1,0.4-0.2,0.6-0.2l1,1.8
	c-0.2,0.1-0.5,0.2-0.7,0.3c-1.3,0.8-1.8,2.5-1.1,3.9c0.1,0.3,0.3,0.6,0.4,0.9l3.2,5.6l-1.9,1.1L418.4,772.7z"/>
<path class="st2" d="M428.3,774c1,0,2.1-0.2,3-0.7c1.4-0.8,1.6-1.9,1.1-2.7s-1.4-1.1-3.1-0.8c-2.3,0.4-3.8-0.1-4.5-1.3
	c-1-1.7-0.4-3.9,1.8-5.2c0.9-0.5,1.9-0.8,3-0.8l0.3,1.7c-0.9,0-1.7,0.2-2.5,0.6c-0.9,0.4-1.3,1.4-1,2.3c0,0,0,0.1,0.1,0.1
	c0.5,0.9,1.4,0.9,3,0.6c2.2-0.4,3.7,0,4.6,1.5c1.1,1.8,0.4,4-2.1,5.4c-1,0.6-2.2,1-3.4,1L428.3,774z"/>
<path class="st2" d="M432.7,756l1.8,3l2.7-1.6l0.8,1.4l-2.7,1.6l3.3,5.6c0.8,1.3,1.5,1.8,2.6,1.2c0.4-0.2,0.7-0.5,1-0.8l0.9,1.4
	c-0.4,0.5-0.9,0.9-1.5,1.2c-0.7,0.5-1.7,0.6-2.5,0.4c-1-0.4-1.9-1.3-2.3-2.3l-3.3-5.7l-1.6,0.9l-0.9-1.5l1.6-0.9l-1.5-2.5L432.7,756
	z"/>
<path class="st2" d="M452.5,758.7c0.6,1.1,1.2,2,1.7,2.8l-1.7,1l-1.1-1.6h0c0,1.7-0.9,3.2-2.3,4c-1.6,1-4.1,1.2-6.3-2.5l-3.6-6.1
	l1.9-1.1l3.4,5.8c1.1,2,2.5,3,4.3,2c1.1-0.7,1.7-1.9,1.5-3.2c-0.1-0.4-0.2-0.7-0.4-1.1l-3.7-6.4l1.9-1.1L452.5,758.7z"/>
<path class="st2" d="M457.4,739.2l7.4,12.6c0.5,0.9,1.2,2,1.7,2.7l-1.7,1l-1.1-1.8h0c0.1,1.7-0.9,3.3-2.4,4.1
	c-2.5,1.5-5.7,0.5-7.6-2.7c-2-3.5-1.1-6.9,1.4-8.3c1.2-0.8,2.8-0.9,4.1-0.2l0,0l-3.6-6.2L457.4,739.2z M460.8,749.4
	c-0.2-0.3-0.3-0.5-0.5-0.8c-1-1.1-2.7-1.4-4-0.6c-2,1.1-2.1,3.5-0.8,5.9c1.2,2.1,3.3,3.3,5.3,2.1c1.3-0.8,2-2.4,1.5-3.9
	c-0.1-0.3-0.2-0.6-0.4-0.9L460.8,749.4z"/>
<path class="st2" d="M463.8,738c0.3,0.7,0.1,1.5-0.6,1.8c-0.6,0.3-1.4,0.1-1.7-0.5c-0.4-0.6-0.2-1.5,0.4-1.9c0,0,0,0,0.1,0
	C462.5,737.1,463.4,737.3,463.8,738C463.8,737.9,463.8,738,463.8,738z M469.5,752.6l-6.1-10.5l1.9-1.1l6.1,10.5L469.5,752.6z"/>
<path class="st2" d="M480.9,738.9c2.2,3.9,0.5,7.1-2,8.6c-2.8,1.6-6.2,0.8-8.1-2.5c-2-3.5-0.9-6.9,2-8.6S479,735.7,480.9,738.9z
	 M472.7,743.8c1.3,2.3,3.6,3.2,5.5,2.2s2.2-3.6,0.8-5.9c-1-1.8-3.2-3.5-5.5-2.2S471.5,741.8,472.7,743.8z"/>
<path class="st2" d="M484.8,742.2c-0.4-0.7-0.1-1.6,0.6-2c0.7-0.4,1.6-0.1,2,0.6c0.4,0.7,0.1,1.6-0.6,2c-0.7,0.4-1.6,0.2-2-0.5
	C484.8,742.3,484.8,742.3,484.8,742.2z"/>
<path class="st2" d="M497.6,735.8c-0.7,1-1.6,1.8-2.6,2.3c-3.1,1.8-6.5,0.9-8.3-2.3c-1.8-2.8-1-6.6,1.8-8.5c0.2-0.1,0.4-0.2,0.6-0.3
	c0.9-0.5,1.9-0.9,3-1l0.4,1.7c-0.9,0-1.7,0.3-2.5,0.8c-2.4,1.4-2.7,3.9-1.4,6.1c1.4,2.4,3.8,3,5.9,1.8c0.8-0.5,1.5-1.1,2-1.9
	L497.6,735.8z"/>
<path class="st2" d="M506.2,724.1c2.2,3.9,0.5,7.1-2,8.6c-2.8,1.6-6.2,0.8-8.1-2.5c-2-3.5-1-6.9,2-8.6S504.4,720.9,506.2,724.1z
	 M498,729c1.3,2.3,3.7,3.2,5.5,2.2s2.2-3.6,0.8-5.9c-1-1.8-3.2-3.5-5.5-2.2S496.9,727.1,498,729z"/>
<path class="st2" d="M507.3,720.4c-0.6-1.1-1.2-2-1.7-2.8l1.7-1l1.1,1.6h0.1c-0.1-1.6,0.8-3.1,2.2-3.8c1.3-0.8,3-0.6,4.2,0.4l0,0
	c0-0.7,0.1-1.4,0.4-2c0.4-0.9,1-1.6,1.9-2.1c1.4-0.8,4-1.1,6.1,2.5l3.6,6.2l-1.9,1.1l-3.4-5.9c-1.2-2-2.6-2.8-4.2-1.9
	c-1,0.6-1.5,1.8-1.2,3c0.1,0.4,0.2,0.7,0.4,1l3.8,6.5l-1.9,1.1l-3.6-6.2c-1-1.7-2.4-2.5-3.9-1.6c-1.1,0.7-1.6,2-1.2,3.3
	c0.1,0.4,0.2,0.7,0.4,1l3.7,6.3l-1.9,1L507.3,720.4z"/>
<path class="st7" d="M312.1,397.2c2.6-6.6,4.1-13.5,5.9-20.3c5.3-20.3,9.9-40.8,14.2-61.2c2.9-13.8,6-27.5,8.9-41.3
	c3.9-18.4,7.8-36.7,12.4-54.9c4.2-16.6,8.3-33.3,16.1-49.1c1.5-3.4,3.7-6.4,6.4-9c4.9-4.5,10.7-4.5,15.5,0.3
	c4.4,4.3,6.8,9.5,8.9,14.8c7,16.9,11.1,34.4,15.4,51.9l2.6,10.8c0.9,4,1.8,8,2.8,11.9c1.8,8.8,3.6,17.5,5.5,26.3
	c3.7,17.6,7.4,35.2,11.3,52.8c3.3,14.5,6.6,29,10.3,43.4c4.7,18.2,9.7,36.3,16.5,54c5.2,13.7,11.1,27.2,21.4,38.9
	c6.3,7.5,14.8,12.8,24.3,15.2c2.3,0.6,3.9,1.8,3,4s-2.6,2.4-5.1,1.7c-14.1-3.7-24-11.7-31.7-22c-9.2-12.2-14.9-25.7-20-39.5
	c-8.5-23-14.5-46.6-20-70.2c-5.2-22.3-9.9-44.6-14.8-67c-1.7-7.6-3.2-15.3-4.8-22.9c-0.1-0.4-0.3-0.7-0.5-1
	c-0.4-4.2-1.3-8.3-2.7-12.3c0-1,0-1.9-0.2-2.8c-3.3-13.6-6.5-27.3-10-40.8c-3.2-12.4-6.8-24.7-12.7-36.4c-1-2-2.2-4-3.7-5.7
	c-3-3.5-4.5-3.5-7.5,0.1c-1.4,1.7-2.6,3.5-3.5,5.5c-7.9,15.6-11.8,32.1-16,48.5s-7.6,33.1-11.3,49.6c-3,13.7-6,27.4-8.8,41.1
	c-3.9,18.5-8,37.1-12.6,55.5c-3.1,12.5-6.6,24.9-10,37.4l-2.3,7.5c-4.1,12-8.3,24-14,35.6c-4.5,9.1-9.8,17.9-17.3,25.5
	c-7.1,7.2-16,12.2-25.7,14.6c-2.2,0.6-3.8,0-4.6-1.7s0.2-3.3,2.2-3.8c17.4-4.5,27-15.7,34.5-28.6c8.9-15.4,14.8-31.7,19.6-48.4
	C310.7,402.4,311.9,399.9,312.1,397.2z"/>
<path class="st5" d="M661.1,483.9c-0.8-1.4-2.4-1.6-3.9-1.9c-14.7-2.7-27.9-10.4-37.4-21.9c-12.7-15-20.3-31.9-27.3-49.1
	c-8.2-20.2-14.7-40.9-20.9-61.6c-6.5-21.6-12.8-43.3-19.3-65c-5.7-18.8-11.6-37.5-20.1-55.6c-3.1-6.4-6.5-12.7-12-17.9
	c-6.7-6.2-14.7-6.2-21.4,0.1c-2.6,2.5-4.9,5.4-6.8,8.4c-4.1,6.3-6.7,13.1-10,19.7c-3.4,7.4-10.2,28.5-12.5,36.2
	c-6.9,22.3-13.4,44.7-20,67c-6.5,22-13.3,43.9-21.7,65.5c-4.2,10.7-8.5,21.3-14.6,31.3c-0.8,2.1-1.9,4.1-3.3,5.8
	c-5.2,9.6-12.3,18-20.8,24.9c-8,6.4-17.5,10.3-28.2,12.3c-2.4,0.5-4,1.6-3.3,3.8s2.6,2.5,5.1,2c14.4-2.9,26.6-8.9,36.5-18.4
	c6.3-6.1,11.2-13,16-20l3.3-5.5c0.1-0.4,0.2-0.7,0.4-1.1c9.3-16.8,16.1-34.4,22.4-52.2c7.7-21.9,14.2-44.1,20.7-66.3
	c5.9-20,16.5-54.1,23-74l0,0c3.3-7.5,6-15.2,9.9-22.5c2.5-4.7,5.1-9.3,9.1-13.2c3.9-3.7,7.3-3.7,11.2,0c2,1.9,3.7,4,5.1,6.3
	c5.9,9,9.7,18.7,13.3,28.4c11,29.6,19,59.9,28,90c8.3,27.8,16.6,55.6,28.3,82.5c6.2,14.3,13.4,28.3,23.9,40.9
	c10.6,12.7,24.5,21.4,42.5,24.9c1.8,0.3,3.3,0.4,4.5-0.9C661.6,486.1,661.7,484.9,661.1,483.9z"/>
<path class="st4" d="M464.7,477.4c-14.4-3.9-28.1-10.3-40.2-19c-5.8-4.3-11.5-9-16.8-13.9c-10.4-10.4-24.5-27.3-33.3-38.9
	c-0.1-0.1-0.2-0.2-0.3-0.3l0,0l-8.5-11.7c-11.9-16.5-23.3-33.4-36.6-49.1c-7.8-9.2-16.1-17.9-27-24.2c-7.1-4.1-14.7-6.5-23.1-5.9
	c-8,0.6-15.1,3.7-21.5,8c-12.1,8.2-21.3,19-30.1,30.1c-13.3,16.7-25,34.4-37.7,51.5c-12.2,16.4-25,32.4-40.8,46
	c-18.3,16-40.7,26.5-64.7,30.3c-8.1,1.4-16.3,2.2-24.5,3.1c-2,0.2-3,1.2-2.9,3s1.3,2.9,3.4,2.9c0.8,0,1.6,0,2.4-0.1
	c7.3-0.9,14.5-1.6,21.8-2.8c27.4-4.5,51.1-15.9,71.1-33.9c16.4-14.8,29.8-31.9,42.6-49.4c13-17.7,25-36,39.2-53
	c8-9.6,16.5-18.9,27.9-25.3c10.7-6,21.5-6.1,32.4-0.2c6.9,3.7,12.6,8.7,17.9,14.1c9.6,9.7,17.7,20.4,25.6,31.2
	c8.4,11.5,21.7,30.1,30.1,41.8l0,0l0.2,0.3l0,0l0,0c10.3,13.1,21.3,25.6,32.9,37.5l0,0l0.3,0.3l0.1,0.1l0,0
	c16.5,15.4,35.6,27,58.2,33c3.9,1,5.9,0.7,6.4-1.6C469.9,478.3,467,478,464.7,477.4z"/>
<path class="st14" d="M736.4,638.4V214.1l-29.3-16.9L429.3,36.8L369,2l-60.3,34.8L30.9,197.2L1.6,214.1v424.3l29.3,16.9l281.3,162.4
	l56.9,32.8l56.9-32.8l281.3-162.4L736.4,638.4z M30.9,622.5V232.1L369,36.8l0,0l338.1,195.2v390.4L369,817.7L30.9,622.5z"/>
</svg>
