<?xml version="1.0" encoding="utf-8"?>
<!-- Generator: Adobe Illustrator 26.5.0, SVG Export Plug-In . SVG Version: 6.00 Build 0)  -->
<svg version="1.1" id="Layer_1" xmlns="http://www.w3.org/2000/svg" xmlns:xlink="http://www.w3.org/1999/xlink" x="0px" y="0px"
	 viewBox="0 0 2521 2911" style="enable-background:new 0 0 2521 2911;" xml:space="preserve">
<style type="text/css">
	.st0{fill:#141227;}
	.st1{opacity:0.94;}
	.st2{fill:#FFFFFF;}
	.st3{opacity:0.8;fill:#F2F2F2;enable-background:new    ;}
	.st4{fill:#00A5DC;}
	.st5{fill:#FFF34D;}
	.st6{fill:#B57AB4;}
	.st7{fill:#DB1F26;}
	.st8{fill:#36A85D;}
	.st9{fill:#F7A238;}
	.st10{fill:#164F86;}
	.st11{fill:#F26524;}
	.st12{fill:#EF4782;}
	.st13{fill:#0088C5;}
	.st14{fill:#404040;}
</style>
<g>
	<polygon class="st0" points="2459.2,757.5 1260.5,65.2 1260.5,65.2 61.8,757.5 61.8,2141.8 1260.5,2833.8 2459.2,2141.8 	"/>
	<g class="st1">
		<path class="st2" d="M253.9,1805.3v61.4h52.5v29.5h-52.5v115.6c0,26.4,7.2,41.5,27.4,41.5c7.2,0,14.4-0.7,21.3-2.7l1.7,29.2
			c-10.3,3.8-21.6,5.8-32.6,5.1c-17.2,0-30.9-5.8-39.8-16.5c-10.3-11.7-14.1-30.5-14.1-55.6v-117h-31.2v-29.5h31.2v-51.5
			L253.9,1805.3z"/>
		<path class="st2" d="M380.1,1806.6c1,12.4-8.2,23-20.6,24c-1,0-1.7,0-2.7,0c-13,0-22-10.6-22-24c0-13.4,9.6-24.4,23-24.4
			C371.2,1782.3,380.1,1792.9,380.1,1806.6z M339.3,2081.1v-214.4H376v214.1L339.3,2081.1z"/>
		<path class="st2" d="M603.1,1766.8v259c0,18.9,0.3,40.8,1.7,55.2h-32.9l-1.7-37.1h-0.7c-11.3,24-36,41.9-69,41.9
			c-48.7,0-86.5-43.9-86.5-108.8c-0.3-71.4,41.2-114.9,90.6-114.9c30.9,0,51.8,15.4,61.1,32.6h0.7v-128H603.1z M566.4,1954.2
			c0-5.5-0.3-11-1.7-16.5c-5.5-24.7-25.4-45.3-53.2-45.3c-38.1,0-60.4,35.3-60.4,82.7c0,43.2,19.9,79.3,59.7,79.3
			c24.7,0,47.3-17.2,53.9-46.3c1.4-5.5,1.7-11.3,1.7-16.8L566.4,1954.2z"/>
		<path class="st2" d="M669,1866.7l44.3,126.6c4.5,14.1,9.6,30.9,13,43.9h0.7c3.8-12.7,7.9-29.2,13-44.6l40.1-125.9h38.8
			l-55.2,152.7c-26.4,73.4-44.3,111.2-69.3,134.1c-12.4,12.4-28.1,20.9-44.9,25l-9.3-32.6c12-4.1,22.6-10.6,32.3-18.9
			c13.4-12,24-26.8,30.9-43.2c1.4-3.1,2.4-6.2,3.1-9.3c-0.3-3.4-1-6.9-2.4-10.3l-74.8-197.6H669z"/>
		<path class="st2" d="M844,1936.7c0-27.4-0.7-49.7-1.7-70h32.9l1.7,36.7h0.7c15.1-26.1,38.8-41.5,71.7-41.5
			c48.7,0,85.8,43.9,85.8,108.8c0,77.2-44.3,114.9-91.9,114.9c-26.8,0-50.1-12.4-62.1-33.6h-0.7v116.3H844V1936.7z M880.4,1993.6
			c0,5.5,0.7,10.6,1.7,15.8c6.9,27.1,28.8,45.6,55.2,45.6c38.8,0,61.4-33.6,61.4-82.7c0-42.9-21.3-79.6-60-79.6
			c-25,0-48.4,18.9-55.6,48.4c-1.4,5.1-2.4,10.6-2.4,15.8L880.4,1993.6z"/>
		<path class="st2" d="M1256.4,1972c0,79.3-51.8,113.9-100.5,113.9c-54.9,0-96.8-42.5-96.8-110.1c0-71.7,44.3-113.9,100.2-113.9
			C1216.9,1861.9,1256.4,1906.5,1256.4,1972z M1095.8,1974.4c0,47,25.4,82.3,61.4,82.3c35,0,61.4-35,61.4-83.4
			c0-36.4-17.2-82.3-60.4-82.3C1115,1891,1095.8,1933.6,1095.8,1974.4L1095.8,1974.4z"/>
		<path class="st2" d="M1289.3,2041c14.4,9.6,31.2,15.1,48.4,15.4c26.8,0,39.1-14.1,39.1-31.9c0-18.5-10.3-28.8-37.7-39.5
			c-36.4-13.7-53.5-35-53.5-60.7c0-34.7,26.4-62.8,69.6-62.8c17.5,0,34.7,4.5,49.7,13.4l-9.3,28.1c-12.4-7.9-26.4-12.4-41.2-12.4
			c-21.6,0-34,13.4-34,29.2c0,17.8,12,25.7,38.4,36.4c35,14.1,53.2,32.6,53.2,64.5c0,37.7-27.4,64.2-75.5,64.2
			c-19.9,0.3-39.5-4.8-56.6-14.8L1289.3,2041z"/>
		<path class="st2" d="M1495.5,1805.3v61.4h52.5v29.5h-52.5v115.6c0,26.4,7.2,41.5,27.4,41.5c7.2,0,14.4-0.7,21.3-2.7l1.7,29.2
			c-10.3,3.8-21.6,5.8-32.6,5.1c-17.2,0-30.9-5.8-39.8-16.5c-10.3-11.7-14.1-30.5-14.1-55.6v-117h-31.2v-29.5h31.2v-51.5
			L1495.5,1805.3z"/>
		<path class="st2" d="M1599.1,1980.9c0.7,52.5,32.6,74.4,69.3,74.4c26.4,0,42.2-4.8,55.9-11l6.2,28.1c-13,6.2-35,13.4-67.2,13.4
			c-62.1,0-99.5-43.2-99.5-108.1c0-64.8,36-115.6,94.7-115.6c65.9,0,83.4,61.4,83.4,100.9c0,6.2-0.3,12-1.4,18.2L1599.1,1980.9z
			 M1706.9,1953.1c0.3-24.7-9.6-63.5-50.8-63.5c-37.1,0-53.5,36.4-56.3,63.5H1706.9z"/>
		<path class="st2" d="M1779.2,1933.6c0-25.4-0.3-47-1.7-66.9h32.3l1.4,41.9h1.7c9.3-28.8,31.2-47,55.9-47c3.4,0,7.2,0.3,10.3,1.4
			v36.7c-4.1-1-8.2-1.4-12.7-1.4c-25.7,0-44.3,20.9-49.4,50.1c-1,5.8-1.7,12-1.7,18.2v114.2h-36.4v-147.2H1779.2z"/>
		<path class="st2" d="M1950.1,1806.6c1,12.4-8.2,23-20.6,24c-1,0-1.7,0-2.7,0c-13,0-22.3-10.6-22.3-24c0-13.4,9.6-24.4,23-24.4
			C1940.8,1782.3,1950.1,1792.9,1950.1,1806.6z M1909.3,2081.1v-214.4h36.7v214.1L1909.3,2081.1z"/>
		<path class="st2" d="M2181.7,1972c0,79.3-51.8,113.9-100.5,113.9c-54.6,0-96.8-42.5-96.8-110.1c0-71.7,44.3-113.9,100.2-113.9
			C2142.2,1861.9,2181.7,1906.5,2181.7,1972z M2021.1,1974.4c0,47,25.4,82.3,61.4,82.3c35,0,61.4-35,61.4-83.4
			c0-36.4-17.2-82.3-60.7-82.3S2021.1,1933.6,2021.1,1974.4z"/>
		<path class="st2" d="M2219.4,1933.6c0-25.4-0.3-47-1.7-66.9h32.3l1.4,41.9h1.7c9.3-28.8,31.2-47,55.9-47c3.4,0,6.9,0.3,10.3,1.4
			v36.7c-4.1-1-8.2-1.4-12.7-1.4c-25.7,0-44.3,20.9-49.4,50.1c-1,5.8-1.7,12-1.7,18.2v114.2h-36V1933.6z"/>
	</g>
	<polyline class="st3" points="1193.3,224.7 1207.7,216.5 1222.1,224.7 1222.1,241.5 1207.7,249.4 1193.3,241.2 1193.3,224.7 	"/>
	<polyline class="st3" points="969.6,383.2 985.3,374.3 1000.8,383.2 1000.8,401.1 985.3,410 969.6,401.1 969.6,383.2 	"/>
	<polyline class="st3" points="1528.5,303.3 1550.1,290.9 1572,303.3 1572,328.3 1550.1,340.7 1528.5,328.3 1528.5,303.3 	"/>
	<polyline class="st3" points="1575.5,604.5 1593,594.6 1610.8,604.5 1610.8,625.1 1593,634.7 1575.5,624.7 1575.5,604.5 	"/>
	<polygon class="st4" points="1236.5,309.8 1236.5,293 1222.1,284.8 1207.7,293 1207.7,309.8 1222.1,318 	"/>
	<polygon class="st4" points="972,665.6 972,682 986.4,689.9 1000.1,682 1000.1,665.6 986.4,657.7 	"/>
	<polyline class="st3" points="510.9,694.4 527,685.5 543.1,694.4 543.1,712.9 527,722.2 510.9,712.9 510.9,694.4 	"/>
	<polyline class="st4" points="355.1,1082.1 377.1,1070.1 398.7,1082.4 398.7,1107.4 377.1,1119.8 355.1,1107.1 355.1,1082.1 	"/>
	<polyline class="st5" points="581.5,827.8 599.4,817.9 617.2,827.8 617.2,848.4 599.4,858.7 581.5,848.4 581.5,827.8 	"/>
	<polyline class="st5" points="537.6,1178.5 554.4,1169.2 571.2,1178.5 571.2,1198 554.4,1207.3 537.6,1197.7 537.6,1178.5 	"/>
	<polyline class="st3" points="969.6,807.6 984.7,799 999.8,807.6 999.8,825.1 984.7,833.7 969.6,825.1 969.6,807.6 	"/>
	<polyline class="st6" points="675.7,2331.5 686.3,2325.4 697.3,2331.5 697.3,2343.9 686.3,2350.1 675.7,2343.9 675.7,2331.5 	"/>
	<polyline class="st3" points="159.2,1115 175.3,1106.1 191.4,1115.3 191.4,1133.9 175.3,1142.8 159.2,1133.5 159.2,1115 	"/>
	<polyline class="st3" points="2069.5,888.9 2082.2,881.7 2094.5,888.9 2094.5,903.3 2082.2,910.5 2069.5,903.3 2069.5,888.9 	"/>
	<polyline class="st7" points="1627.3,2299.6 1635.2,2295.2 1643,2299.6 1643,2308.9 1635.2,2313.4 1627.3,2308.9 1627.3,2299.6 	
		"/>
	<polyline class="st3" points="2191,1285.5 2205.4,1277.3 2220.1,1285.5 2220.1,1302.3 2205.4,1310.6 2191,1302.3 2191,1285.5 	"/>
	<polyline class="st3" points="1557.3,432.3 1571,424.4 1585.1,432.3 1585.1,448.4 1571,456.3 1557.3,448.4 1557.3,432.3 	"/>
	<polyline class="st3" points="958.2,2496.6 970.2,2489.7 981.9,2496.6 981.9,2510.3 970.2,2516.8 958.2,2509.9 958.2,2496.6 	"/>
	<polyline class="st8" points="443.1,2191.9 451.3,2187.2 459.2,2191.9 459.2,2201.2 451.3,2205.6 443.1,2201 443.1,2191.9 	"/>
	<polyline class="st5" points="1517.1,2387.1 1524.3,2383 1531.9,2387.1 1531.9,2395.7 1524.3,2400.2 1517.1,2395.7 1517.1,2387.1 	
		"/>
	<polyline class="st7" points="736.6,2409.1 748.3,2402.6 760.3,2409.1 760.3,2422.8 748.3,2429.7 736.6,2422.8 736.6,2409.1 	"/>
	<polyline class="st3" points="1738.8,2370.3 1746,2366.2 1753.5,2370.3 1753.5,2378.9 1746,2383 1738.8,2378.9 1738.8,2370.3 	"/>
	<polyline class="st3" points="2014.9,2180.9 2023.2,2176.5 2031.4,2181.3 2031.4,2190.5 2023.2,2195.3 2014.9,2190.5 
		2014.9,2180.9 	"/>
	<polyline class="st9" points="1863,595.9 1878.7,587 1894.2,595.9 1894.2,613.8 1878.7,622.7 1863,613.8 1863,595.9 	"/>
	<polyline class="st3" points="2290.8,880.3 2303.1,873.5 2315.5,880.3 2315.5,894.4 2303.1,901.6 2290.8,894.4 2290.8,880.3 	"/>
	<polyline class="st3" points="2330.9,1009.7 2341.9,1003.5 2352.5,1009.7 2352.5,1022 2341.9,1028.2 2330.9,1022 2330.9,1009.7 	
		"/>
	<polygon class="st9" points="1310.9,276.9 1310.9,260.1 1296.9,251.8 1282.5,260.1 1282.5,276.9 1296.9,285.1 	"/>
	<polygon class="st9" points="1241.6,490.6 1241.6,478.2 1231.3,472.1 1220.4,478.2 1220.4,490.6 1231.3,496.8 	"/>
	<polygon class="st9" points="1291.4,364.7 1291.4,347.9 1277.3,339.6 1262.9,347.9 1262.9,364.7 1277.3,372.9 	"/>
	<polygon class="st10" points="1459.1,462.1 1459.1,480 1474.6,488.5 1489.7,480 1489.7,462.1 1474.6,453.5 	"/>
	<polygon class="st8" points="1453.3,283.4 1453.3,258.3 1432,246 1410.4,258.3 1410.4,283.4 1432,295.7 	"/>
	<polygon class="st7" points="1032.7,472.8 1032.7,491.6 1049.2,500.9 1064.9,491.6 1064.9,472.8 1049.2,463.5 	"/>
	<polygon class="st5" points="1090.7,392.5 1090.7,407.9 1104.4,415.8 1117.8,407.9 1117.8,392.5 1104.4,384.9 	"/>
	<polygon class="st5" points="842.6,617.9 842.6,635 857.7,643.6 872.5,635 872.5,617.9 857.7,609.3 	"/>
	<polygon class="st5" points="302.6,1046 302.6,1032.7 291.3,1026.1 279.6,1032.7 279.6,1046 291.3,1052.6 	"/>
	<polygon class="st11" points="513.9,1060.4 513.9,1075.9 527.3,1083.8 540.4,1075.9 540.4,1060.4 527.3,1052.9 	"/>
	<polygon class="st10" points="479.6,854.9 479.6,842.3 469,836.4 458,842.3 458,854.9 469,861.1 	"/>
	<polygon class="st5" points="161.6,921.8 161.6,938 175.7,945.9 189.4,938 189.4,921.8 175.7,914 	"/>
	<polygon class="st7" points="694.4,612 694.4,601.1 685.1,595.6 675.5,601.1 675.5,612 685.1,617.5 	"/>
	<polygon class="st8" points="723.9,662.8 723.9,679.6 738.7,687.9 752.7,679.6 752.7,662.8 738.7,654.6 	"/>
	<polygon class="st8" points="284.8,778.4 284.8,794.2 298.1,802.1 311.5,794.2 311.5,778.4 298.1,770.9 	"/>
	<polygon class="st7" points="394.2,926.6 394.2,914 383.6,907.8 372.2,914 372.2,926.6 383.6,933.2 	"/>
	<polygon class="st5" points="302.6,1294.8 302.6,1281.4 291.3,1274.9 279.6,1281.4 279.6,1294.8 291.3,1301.3 	"/>
	<polygon class="st11" points="376,1349 376,1364.4 389.4,1372 402.4,1364.4 402.4,1349 389.4,1341.4 	"/>
	<polygon class="st10" points="479.6,1172.3 479.6,1159.9 469,1153.8 458,1159.9 458,1172.3 469,1178.5 	"/>
	<polygon class="st10" points="480,1371.6 480,1396.7 501.9,1409 523.2,1396.7 523.2,1371.6 501.9,1359.3 	"/>
	<polygon class="st7" points="394.2,1244 394.2,1231.3 383.6,1225.1 372.2,1231.3 372.2,1244 383.6,1250.5 	"/>
	<polygon class="st9" points="147.9,1510.9 147.9,1531.8 166.1,1542.5 183.9,1531.8 183.9,1510.9 166.1,1500.6 	"/>
	<polygon class="st9" points="686.5,2243.7 686.5,2251.3 693,2254.7 699.2,2251.3 699.2,2243.7 693,2240.3 	"/>
	<polygon class="st10" points="853.3,2399 853.3,2405.8 859.4,2409.3 865.3,2405.8 865.3,2399 859.4,2395.9 	"/>
	<polygon class="st10" points="547.5,2272.9 547.5,2279.7 553.7,2283.2 559.5,2279.7 559.5,2272.9 553.7,2269.8 	"/>
	<polygon class="st10" points="166.1,1305.4 166.1,1287.2 150.6,1278 134.5,1287.2 134.5,1305.4 150.6,1314.7 	"/>
	<polygon class="st9" points="787.7,542.1 787.7,523.2 771.9,513.9 755.5,523.2 755.5,542.1 771.9,551.3 	"/>
	<polygon class="st5" points="684.5,944.8 684.5,928 670,919.4 655.3,928 655.3,944.8 670,953.4 	"/>
	<polygon class="st10" points="855.3,814.8 855.3,798.7 841.6,790.8 827.5,798.7 827.5,814.8 841.6,822.7 	"/>
	<polygon class="st10" points="1291,2534.3 1291,2548 1302.7,2554.5 1314.4,2548 1314.4,2534.3 1302.7,2527.4 	"/>
	<polygon class="st7" points="1314.4,2659.6 1314.4,2673.3 1326,2679.8 1337.7,2673.3 1337.7,2659.6 1326,2652.7 	"/>
	<polygon class="st5" points="285.8,1422.4 285.8,1436.8 298.1,1443.7 310.5,1436.8 310.5,1422.4 298.1,1415.2 	"/>
	<polygon class="st5" points="795.3,2265 795.3,2274.9 803.9,2279.7 812.4,2274.9 812.4,2265 803.9,2259.8 	"/>
	<polygon class="st7" points="1186.1,2505.8 1186.1,2512.7 1191.9,2516.1 1197.7,2512.7 1197.7,2505.8 1191.9,2502.7 	"/>
	<polygon class="st9" points="2072.2,1152.4 2072.2,1167.5 2085.3,1175 2098.3,1167.5 2098.3,1152.4 2085.3,1144.8 	"/>
	<polygon class="st12" points="907.1,2333.3 907.1,2342.2 914.7,2346.6 922.2,2342.2 922.2,2333.3 914.7,2328.8 	"/>
	<polygon class="st12" points="2109,1309.2 2109,1327.4 2124.7,1335.9 2139.8,1327.4 2139.8,1309.2 2124.7,1300.3 	"/>
	<polygon class="st13" points="2068.1,984.6 2068.1,968.5 2054.1,960.6 2040,968.5 2040,984.6 2054.1,992.9 	"/>
	<polygon class="st10" points="2270.9,1456.4 2270.9,1468.7 2281.9,1475.2 2292.5,1468.7 2292.5,1456.4 2281.9,1450.2 	"/>
	<polygon class="st10" points="1608.4,536.9 1608.4,557.2 1625.9,567.1 1643,557.2 1643,536.9 1625.9,527 	"/>
	<polygon class="st8" points="2173.8,1118.4 2173.8,1130.4 2184.4,1136.6 2194.7,1130.4 2194.7,1118.4 2184.4,1112.3 	"/>
	<polygon class="st9" points="1689.7,588.4 1689.7,608.6 1707.2,618.6 1724.4,608.6 1724.4,588.4 1707.2,578.4 	"/>
	<polygon class="st9" points="2228,771.2 2228,783.6 2238.6,789.4 2249.3,783.6 2249.3,771.2 2238.6,765.4 	"/>
	<polygon class="st10" points="2034.8,787.7 2034.8,769.5 2019.4,760.9 2004,769.5 2004,787.7 2019.4,796.6 	"/>
	<polygon class="st10" points="2095.2,671.7 2095.2,659.7 2084.9,653.6 2074.3,659.7 2074.3,671.7 2084.9,677.9 	"/>
	<polygon class="st8" points="1911.7,748.9 1911.7,731.1 1896.6,722.2 1881.1,731.1 1881.1,748.9 1896.6,757.9 	"/>
	<polygon class="st8" points="2173.5,1443.3 2173.5,1461.5 2189.2,1470.4 2204.7,1461.5 2204.7,1443.3 2189.2,1434.4 	"/>
	<polygon class="st8" points="1347.6,2236.9 1347.6,2249.2 1358.3,2255.4 1368.6,2249.2 1368.6,2236.9 1358.3,2230.7 	"/>
	<polygon class="st9" points="1124.6,2257.4 1124.6,2271.2 1136.6,2278 1148,2271.2 1148,2257.4 1136.6,2250.9 	"/>
	<polygon class="st9" points="788.8,900.9 788.8,917.4 803.2,925.6 817.2,917.4 817.2,900.9 803.2,892.7 	"/>
	<polygon class="st9" points="1457.4,2534.3 1457.4,2548 1469.1,2554.5 1480.8,2548 1480.8,2534.3 1469.1,2527.4 	"/>
	<polygon class="st10" points="1604.2,2436.5 1604.2,2450.2 1615.8,2457.1 1627.5,2450.2 1627.5,2436.5 1615.8,2430 	"/>
	<polygon class="st10" points="1081.1,2532.9 1081.1,2541.9 1088.6,2546.3 1096.2,2541.9 1096.2,2532.9 1088.6,2528.8 	"/>
	<polygon class="st10" points="1237.9,2631.4 1237.9,2642.7 1247.5,2648.2 1256.7,2642.7 1256.7,2631.4 1247.5,2626.2 	"/>
	<polygon class="st5" points="1019.7,2372.4 1019.7,2379.2 1025.5,2382.7 1031.7,2379.2 1031.7,2372.4 1025.5,2368.9 	"/>
	<polygon class="st9" points="1457.4,2324.7 1457.4,2338.4 1469.1,2345.3 1480.8,2338.4 1480.8,2324.7 1469.1,2318.2 	"/>
	<polygon class="st7" points="1960.7,2211.8 1960.7,2220 1967.9,2224.2 1975.1,2220 1975.1,2211.8 1967.9,2207.7 	"/>
	<polygon class="st7" points="1792.3,2366.5 1792.3,2377.5 1801.5,2383 1811.2,2377.5 1811.2,2366.5 1801.5,2361 	"/>
	<polygon class="st10" points="1905.5,2278 1905.5,2286.3 1912.4,2290 1919.2,2286.3 1919.2,2278 1912.4,2274.3 	"/>
	<polygon class="st5" points="1684.9,2286.3 1684.9,2293.1 1690.7,2296.6 1696.6,2293.1 1696.6,2286.3 1690.7,2282.8 	"/>
	<polygon class="st8" points="1842.4,2222.4 1842.4,2239.6 1857.1,2247.8 1871.5,2239.6 1871.5,2222.4 1857.1,2214.2 	"/>
	<polygon class="st8" points="2169.7,871.4 2169.7,856.3 2156.6,848.8 2143.3,856.3 2143.3,871.4 2156.6,879 	"/>
	<polygon class="st9" points="2367.6,1147.6 2367.6,1135.2 2357,1129.4 2346.7,1135.2 2346.7,1147.6 2357,1153.4 	"/>
	<polygon class="st8" points="2203,1002.5 2203,1017.6 2216,1025.1 2229,1017.6 2229,1002.5 2216,994.9 	"/>
	<polyline class="st6" points="2366.6,1349.7 2382.1,1341.1 2397.5,1350 2397.5,1367.8 2382.1,1376.4 2366.6,1367.5 2366.6,1349.7 	
		"/>
	<path class="st7" d="M1065.3,1355.8c8.9-22.6,14.1-46.3,20.2-69.6c18.2-69.6,34-140,48.7-210c9.9-47.3,20.6-94.3,30.5-141.7
		c13.4-63.1,26.8-125.9,42.5-188.3c14.4-57,28.5-114.2,55.2-168.5c5.1-11.7,12.7-22,22-30.9c16.8-15.4,36.7-15.4,53.2,1
		c15.1,14.8,23.3,32.6,30.5,50.8c24,58,38.1,118,52.8,178.1l8.9,37.1c3.1,13.7,6.2,27.4,9.6,40.8c6.2,30.2,12.4,60,18.9,90.2
		c12.7,60.4,25.4,120.8,38.8,181.1c11.3,49.7,22.6,99.5,35.3,148.9c16.1,62.4,33.3,124.5,56.6,185.3c17.8,47,38.1,93.3,73.4,133.5
		c21.6,25.7,50.8,43.9,83.4,52.1c7.9,2.1,13.4,6.2,10.3,13.7c-3.1,7.5-8.9,8.2-17.5,5.8c-48.4-12.7-82.3-40.1-108.8-75.5
		c-31.6-41.9-51.1-88.2-68.6-135.5c-29.2-78.9-49.7-159.9-68.6-240.8c-17.8-76.5-34-153-50.8-229.9c-5.8-26.1-11-52.5-16.5-78.6
		c-0.3-1.4-1-2.4-1.7-3.4c-1.4-14.4-4.5-28.5-9.3-42.2c0-3.4,0-6.5-0.7-9.6c-11.3-46.7-22.3-93.7-34.3-140
		c-11-42.5-23.3-84.7-43.6-124.9c-3.4-6.9-7.5-13.7-12.7-19.6c-10.3-12-15.4-12-25.7,0.3c-4.8,5.8-8.9,12-12,18.9
		c-27.1,53.5-40.5,110.1-54.9,166.4c-14.4,56.3-26.1,113.6-38.8,170.2c-10.3,47-20.6,94-30.2,141c-13.4,63.5-27.4,127.3-43.2,190.4
		c-10.6,42.9-22.6,85.4-34.3,128.3l-7.9,25.7c-14.1,41.2-28.5,82.3-48,122.1c-15.4,31.2-33.6,61.4-59.4,87.5
		c-24.4,24.7-54.9,41.9-88.2,50.1c-7.5,2.1-13,0-15.8-5.8c-2.7-5.8,0.7-11.3,7.5-13c59.7-15.4,92.6-53.9,118.4-98.1
		c30.5-52.8,50.8-108.8,67.2-166C1060.5,1373.7,1064.6,1365.1,1065.3,1355.8z"/>
	<path class="st5" d="M2262.7,1653.3c-2.7-4.8-8.2-5.5-13.4-6.5c-50.4-9.3-95.7-35.7-128.3-75.1c-43.6-51.5-69.6-109.4-93.7-168.5
		c-28.1-69.3-50.4-140.3-71.7-211.3c-22.3-74.1-43.9-148.6-66.2-223c-19.6-64.5-39.8-128.7-69-190.8c-10.6-22-22.3-43.6-41.2-61.4
		c-23-21.3-50.4-21.3-73.4,0.3c-8.9,8.6-16.8,18.5-23.3,28.8c-14.1,21.6-23,44.9-34.3,67.6c-11.7,25.4-35,97.8-42.9,124.2
		c-23.7,76.5-46,153.4-68.6,229.9c-22.3,75.5-45.6,150.6-74.4,224.7c-14.4,36.7-29.2,73.1-50.1,107.4c-2.7,7.2-6.5,14.1-11.3,19.9
		c-17.8,32.9-42.2,61.8-71.4,85.4c-27.4,22-60,35.3-96.8,42.2c-8.2,1.7-13.7,5.5-11.3,13c2.4,7.5,8.9,8.6,17.5,6.9
		c49.4-9.9,91.3-30.5,125.2-63.1c21.6-20.9,38.4-44.6,54.9-68.6l11.3-18.9c0.3-1.4,0.7-2.4,1.4-3.8c31.9-57.6,55.2-118,76.9-179.1
		c26.4-75.1,48.7-151.3,71-227.5c20.2-68.6,56.6-185.6,78.9-253.9l0,0c11.3-25.7,20.6-52.1,34-77.2c8.6-16.1,17.5-31.9,31.2-45.3
		c13.4-12.7,25-12.7,38.4,0c6.9,6.5,12.7,13.7,17.5,21.6c20.2,30.9,33.3,64.2,45.6,97.4c37.7,101.6,65.2,205.5,96.1,308.8
		c28.5,95.4,57,190.8,97.1,283c21.3,49.1,46,97.1,82,140.3c36.4,43.6,84.1,73.4,145.8,85.4c6.2,1,11.3,1.4,15.4-3.1
		C2264.4,1660.8,2264.7,1656.7,2262.7,1653.3z"/>
	<path class="st4" d="M1588.8,1631c-49.4-13.4-96.4-35.3-137.9-65.2c-19.9-14.8-39.5-30.9-57.6-47.7
		c-35.7-35.7-84.1-93.7-114.2-133.5c-0.3-0.3-0.7-0.7-1-1l0,0l-29.2-40.1c-40.8-56.6-79.9-114.6-125.6-168.5
		c-26.8-31.6-55.2-61.4-92.6-83c-24.4-14.1-50.4-22.3-79.3-20.2c-27.4,2.1-51.8,12.7-73.8,27.4c-41.5,28.1-73.1,65.2-103.3,103.3
		c-45.6,57.3-85.8,118-129.3,176.7c-41.9,56.3-85.8,111.2-140,157.8c-62.8,54.9-139.6,90.9-222,104c-27.8,4.8-55.9,7.5-84.1,10.6
		c-6.9,0.7-10.3,4.1-9.9,10.3s4.5,9.9,11.7,9.9c2.7,0,5.5,0,8.2-0.3c25-3.1,49.7-5.5,74.8-9.6c94-15.4,175.3-54.5,243.9-116.3
		c56.3-50.8,102.2-109.4,146.2-169.5c44.6-60.7,85.8-123.5,134.5-181.8c27.4-32.9,56.6-64.8,95.7-86.8
		c36.7-20.6,73.8-20.9,111.2-0.7c23.7,12.7,43.2,29.8,61.4,48.4c32.9,33.3,60.7,70,87.8,107c28.8,39.5,74.4,103.3,103.3,143.4l0,0
		l0.7,1l0,0l0,0c35.3,44.9,73.1,87.8,112.9,128.7l0,0l1,1l0.3,0.3l0,0c56.6,52.8,122.1,92.6,199.7,113.2c13.4,3.4,20.2,2.4,22-5.5
		C1606.7,1634.1,1596.7,1633,1588.8,1631z"/>
	<path class="st14" d="M2521,2183.3V727.7l-100.5-58l-953.1-550.3L1260.5,0l-206.9,119.4L100.5,669.7L0,727.7v1455.7l100.5,58
		l965.1,557.2l195.2,112.5l195.2-112.5l965.1-557.2L2521,2183.3z M100.5,2128.8V789.4l1160-670l0,0l1160,669.7v1339.4l-1160,670
		L100.5,2128.8z"/>
</g>
</svg>
