<?xml version="1.0" encoding="utf-8"?>
<!-- Generator: Adobe Illustrator 22.0.1, SVG Export Plug-In . SVG Version: 6.00 Build 0)  -->
<svg version="1.1" id="Layer_1" xmlns="http://www.w3.org/2000/svg" xmlns:xlink="http://www.w3.org/1999/xlink" x="0px" y="0px"
	 viewBox="0 0 735 852" style="enable-background:new 0 0 735 852;" xml:space="preserve">
<style type="text/css">
	.st0{fill:#DEA449;}
	.st1{fill:#ED7D15;}
	.st2{opacity:0.25;fill:url(#SVGID_1_);enable-background:new    ;}
	.st3{fill:#AC5D12;}
	.st4{fill:#9E4A11;}
	.st5{fill:#D36015;}
	.st6{fill:#FFFFFF;}
	.st7{fill:#50280B;}
	.st8{fill:#6E350E;}
</style>
<title>tidyr</title>
<path class="st0" d="M168.2,672.6c0.3-0.3,0.6-0.6,0.9-0.9h-0.3C168.6,672,168.4,672.3,168.2,672.6z"/>
<path class="st1" d="M713.8,226.6L367,17L21.4,226.6v399.8l346.2,199.9l346.2-199.9V226.6z"/>
<linearGradient id="SVGID_1_" gradientUnits="userSpaceOnUse" x1="366.2405" y1="-182.75" x2="367.5404" y2="280.77" gradientTransform="matrix(1 0 0 1 0 60)">
	<stop  offset="0" style="stop-color:#FFFFFF;stop-opacity:0.83"/>
	<stop  offset="0.56" style="stop-color:#FFFFFF;stop-opacity:0.37"/>
	<stop  offset="1" style="stop-color:#FFFFFF;stop-opacity:0"/>
</linearGradient>
<path class="st2" d="M367,340.1c128.2,0,238.6-57,287.8-138.8L367.6,35.5l0,0L79.5,201.8C128.9,283.3,239,340.1,367,340.1z"/>
<path class="st3" d="M735,637V212.8l-29.3-16.9L427.9,35.5L367.6,0.6l-60.3,34.8L29.5,195.9L0.2,212.8V637l29.3,16.9l281.3,162.4
	l56.9,32.8l56.9-32.8l281.3-162.4L735,637z M29.5,621.1V230.7l50-28.9L367.6,35.5l0,0l287.2,165.8l50.9,29.4v390.4L367.6,816.3
	L29.5,621.1z"/>
<path class="st0" d="M367.1,603.9c0.3-0.3,0.6-0.6,0.9-0.9h-0.2C367.6,603.3,367.4,603.6,367.1,603.9z"/>
<path class="st4" d="M342.5,576.6h47.4c0.3,0.2,0.2,0.5,0.2,0.8c0,5.3,0,10.7,0,16c0,0.2,0,0.5-0.2,0.7l0,0
	c-0.4,0.3-0.8,0.2-1.1,0.2h-45.2c-0.4,0-0.8,0.1-1.1-0.2l0,0l-0.1-0.1c-0.2-5.7-0.1-11.5-0.1-17.2
	C342.3,576.7,342.4,576.7,342.5,576.6z"/>
<path class="st5" d="M440.5,573.6c-4.5,0-9.1,0-13.6,0h-33.5c-0.3-0.2-0.2-0.5-0.2-0.8v-16c0-0.2,0-0.5,0.1-0.7l0,0
	c0.4-0.2,0.9-0.2,1.3-0.1h45c0.4-0.1,0.9,0,1.3,0.2l0,0c0.1,0.1,0.1,0.3,0.2,0.4c0,5.5,0,10.9,0,16.4c0,0.1-0.1,0.3-0.1,0.4l0,0
	C440.8,573.4,440.6,573.5,440.5,573.6z"/>
<path class="st5" d="M339.1,573.6h-47.2c-0.1-0.1-0.2-0.2-0.3-0.3l0,0c-0.2-0.7-0.2-1.5-0.1-2.2c0-4.5,0-9.1,0-13.6
	c-0.1-0.5,0-1,0.2-1.4l0,0c0.4-0.2,0.9-0.3,1.3-0.2h45c0.4-0.1,0.9,0,1.3,0.1l0,0c0.2,0.5,0.2,1.1,0.1,1.6c0,4.8,0,9.7,0,14.5
	C339.3,572.7,339.5,573.2,339.1,573.6z"/>
<path class="st5" d="M389.7,573.6h-10h-35h-1.9c-0.4-0.2-0.5-0.6-0.5-1c0-5.4,0-10.8,0-16.1c0-0.1,0.1-0.3,0.1-0.4l0,0
	c0.4-0.2,0.9-0.2,1.3-0.2h45c0.4-0.1,0.9,0,1.3,0.2l0,0c0.2,0.4,0.2,0.9,0.1,1.3c0,4.9,0,9.8,0,14.6
	C390.1,572.6,390.4,573.2,389.7,573.6z"/>
<path class="st6" d="M393.3,594.1c-0.1-1.1-0.1-2.3-0.1-3.4c0-4.1,0-8.3,0-12.4c0-0.6-0.1-1.2,0.3-1.7s1-0.3,1.5-0.3h43.8
	c0.5,0,1.1-0.1,1.5,0.3c0.3,0.4,0.4,0.9,0.3,1.4v14.7c0.1,0.5,0,1-0.3,1.4c-0.5,0.4-1,0.3-1.6,0.3h-44.1
	C394.3,594.4,393.8,594.5,393.3,594.1z"/>
<path class="st6" d="M291.6,577.5c0-0.3,0.1-0.6,0.4-0.9c0.4-0.5,1-0.3,1.5-0.3h43.8c0.5,0,1.1-0.1,1.5,0.3c0.3,0.3,0.4,0.7,0.3,1.1
	v16.1c0,0.1,0,0.2,0,0.3c-0.4,0.5-1,0.3-1.5,0.3h-44.3c-1.7,0-1.9-0.2-1.9-1.8c0-4.6,0-9.1,0-13.7
	C291.2,578.4,291.3,577.9,291.6,577.5z"/>
<path class="st6" d="M292.8,638.4c0.6,0,1.2,0,1.8,0h41.6c0.6,0,1.2,0,1.8,0c0.1-0.1,0.2-0.1,0.3,0h0.6c0.3,0.4,0.4,0.9,0.3,1.4
	c0,4.9,0,9.7,0,14.6c0,1.5,0,1.5-1.5,1.5h-43.8c-0.6-0.1-1.3-0.1-1.9,0c-0.7-0.3-0.6-1-0.6-1.5c0-4.8,0-9.6,0-14.4
	c0-0.6-0.1-1.2,0.6-1.5h0.6C292.6,638.3,292.7,638.3,292.8,638.4z"/>
<path class="st6" d="M393.5,638.4c0.4,0,0.7,0,1,0h44.9c0.4,0,0.7,0,1,0l0,0c0.3,0.5,0.4,1.1,0.3,1.7c0,5.2,0,10.3,0,15.4
	c0,0.2-0.1,0.3-0.3,0.5c-0.2,0-0.4,0-0.6,0c-6.5,0.1-13,0-19.6,0h-24c-0.9,0-1.9,0-2.8-0.2l0,0c-0.5-0.3-0.8-0.9-0.7-1.5
	c0-4.9,0-9.8,0-14.7c0-0.4,0.1-0.8,0.3-1.1C393.2,638.4,393.3,638.3,393.5,638.4z"/>
<path class="st6" d="M291.6,597.5c0.5,0,1-0.1,1.5-0.1h44.8c1.2,0,1.2,0,1.2,1.2c0,4.2,0,8.4,0,12.6c0,1.1,0,2.3,0,3.4
	c-0.5,0.4-1.2,0.5-1.8,0.4h-43.9c-2,0-2.2-0.2-2.2-2.2c0-4.6,0-9.1,0-13.7C291.3,598.6,291.1,598,291.6,597.5z"/>
<path class="st6" d="M393.3,597.4h1.5h44.6c1.5,0,1.5,0,1.5,1.5c0,4.8,0,9.6,0,14.4c0,1.4,0,1.4-1.4,1.4h-44.7c-1.4,0-1.4,0-1.4-1.3
	C393.2,608,393.2,602.7,393.3,597.4L393.3,597.4z"/>
<path class="st6" d="M339.1,676.5H293c-0.5,0.1-1,0-1.4-0.3s-0.3-0.8-0.3-1.2c0-4.7,0-9.5,0-14.2c0-0.5-0.1-1,0.4-1.4
	c0.4,0,0.8,0,1.2,0h45.3c0.4,0,0.7,0,1,0l0,0C339.1,665,339.1,670.7,339.1,676.5L339.1,676.5z"/>
<path class="st6" d="M339.1,618c0,1.9,0.1,3.8,0.1,5.6c0,3.8,0,7.7,0,11.5l-0.2,0.2c-0.5,0.1-1,0.2-1.5,0.1h-44.1
	c-0.5,0-1,0-1.5-0.1c-0.6-0.3-0.6-0.9-0.6-1.4c0-4.8,0-9.7,0-14.5c0-1.5,0.3-1.8,1.9-1.8c4.4,0,8.8,0,13.2,0h30.7
	C337.8,617.6,338.5,617.4,339.1,618z"/>
<path class="st6" d="M440.8,659.3c0,5,0,10.1,0,15.1c0,0.3,0,0.7,0,1c0,0.7-0.3,1-1,1h-46.5c0-5.7,0-11.5,0-17.2l0.2-0.2
	c0.5-0.1,1-0.2,1.5-0.1h44C439.6,659,440.3,658.7,440.8,659.3z"/>
<path class="st6" d="M339.1,697c-0.4,0-0.8,0-1.2,0h-45c-0.5,0-0.9,0-1.3,0c-0.4-0.3-0.4-0.8-0.4-1.2c0-4.9,0-9.7,0-14.5
	c-0.1-0.4,0-0.8,0.3-1.1c0.4-0.3,0.9-0.4,1.4-0.3H339l0,0L339.1,697L339.1,697z"/>
<path class="st6" d="M393.3,679.8h46c1.4,0,1.4,0,1.4,1.4c0,4.8,0,9.7,0,14.6c0,1.3,0,1.3-1.4,1.3h-44.9c-1.3,0-1.3,0-1.3-1.2
	C393.2,690.5,393.2,685.1,393.3,679.8L393.3,679.8z"/>
<path class="st6" d="M393.3,635.1c0-5.7-0.1-11.5,0-17.2c0.5-0.4,1-0.3,1.5-0.3H439c1.8,0,2,0.2,2,2c0,4.7,0,9.3,0,14
	c0,1.7-0.2,1.9-1.9,1.9c-14.9,0-29.7,0-44.6,0C394.2,635.6,393.7,635.4,393.3,635.1z"/>
<path class="st7" d="M366.1,676.7h-21.4c-0.4,0-0.7,0-1,0c-1.3,0-1.3-0.1-1.3-1.4c0-5,0-10,0-15c0-1.2,0.1-1.3,1.2-1.3c1,0,2,0,3,0
	h41.1c0.4,0,0.8,0,1.2,0c1,0,1.1,0.1,1.1,1.1c0,2.4,0,4.8,0,7.3v7.3c0,2,0,2-1.9,2L366.1,676.7z"/>
<path class="st4" d="M390,597.4v17.2c-0.5,0-1.1,0-1.6,0c-14.7,0-29.4,0-44.1,0c-2,0-1.9,0.2-1.9-1.8v-13.6c0-0.3,0-0.7,0-1
	c0-0.6,0.3-0.8,0.8-0.8h46C389.5,597.4,389.7,597.4,390,597.4z"/>
<path class="st7" d="M389.9,697.2c-1.4,0-2.8,0-4.2,0h-41.5h-1.8c-0.1-1.4-0.2-2.9-0.1-4.3c0-4,0-7.9,0-11.9c0-1.3,0-1.3,1.3-1.3h45
	c1.3,0,1.3,0,1.3,1c0,5.3,0,10.6,0,15.9C390,696.8,390,697,389.9,697.2z"/>
<path class="st8" d="M342.5,635.4c-0.1-0.4-0.1-0.8-0.1-1.2c0-5.2,0-10.4,0-15.5c0-0.2,0-0.5,0.1-0.7c0.3,0,0.6,0,0.9,0h45.7
	c0.3,0,0.6,0,0.9,0c0,5.5,0,10.9,0,16.3c0,1-0.1,1-1.1,1.1h-45.7L342.5,635.4z"/>
<path class="st8" d="M389.9,638.5c0,3.5,0,7.1,0,10.7c0,2.3,0,4.5,0,6.8c-0.4,0-0.9,0-1.3,0h-44.8c-0.4,0-0.9,0-1.3,0
	c0-4.5,0-8.9-0.1-13.3c0-1.4,0-2.8,0.1-4.2h5.6h40.4C389,638.4,389.4,638.5,389.9,638.5z"/>
<path class="st6" d="M247,365.9v24.7h21.1v11.9H247v46.4c0,10.7,2.9,16.7,11.1,16.7c2.9,0,5.8-0.3,8.5-1.1l0.7,11.7
	c-2.9,1.2-7.4,2.1-13.1,2.1c-6.9,0-12.4-2.3-15.9-6.6c-4.2-4.6-5.7-12.3-5.7-22.4v-46.9H220v-11.9h12.6V370L247,365.9z"/>
<path class="st6" d="M295.8,366.4c0.3,5-3.4,9.3-8.4,9.6c-0.3,0-0.7,0-1,0c-5.2,0-8.9-4.3-8.9-9.6c0-5.5,3.9-9.8,9.2-9.8
	C292.3,356.6,295.8,360.9,295.8,366.4z M279.4,476.6v-86h14.8v86H279.4z"/>
<path class="st6" d="M383.4,350.4v104c0,7.6,0.2,16.4,0.7,22.2h-13.3l-0.7-14.9h-0.3c-4.5,9.6-14.4,16.9-27.7,16.9
	c-19.6,0-34.7-17.6-34.7-43.7c-0.2-28.6,16.6-46.2,36.4-46.2c12.4,0,20.8,6.2,24.5,13.2h0.3v-51.4h14.8V350.4z M368.6,425.6
	c0-2.2-0.2-4.4-0.7-6.6c-2.2-10-10.2-18.1-21.3-18.1c-15.3,0-24.3,14.2-24.3,33.2c0,17.4,8,31.8,24,31.8c9.9,0,19-6.9,21.6-18.7
	c0.5-2.2,0.7-4.5,0.7-6.8L368.6,425.6z"/>
<path class="st6" d="M407.9,390.6l17.8,50.8c1.9,5.7,3.9,12.4,5.2,17.6h0.3c1.5-5.2,3.2-11.7,5.2-18l16.1-50.5h15.6L446,451.8
	c-10.6,29.5-17.8,44.6-27.8,53.9c-7.2,6.8-14.4,9.4-18.1,10.1l-3.7-13.1c4.8-1.7,9.2-4.3,12.9-7.6c5.4-4.8,9.7-10.7,12.4-17.4
	c0.6-1.2,1-2.4,1.2-3.7c-0.1-1.4-0.5-2.8-1-4.1l-30-79.3L407.9,390.6z"/>
<path class="st6" d="M476.1,417.5c0-10.1-0.2-18.8-0.7-26.8h12.9l0.5,16.9h0.7c3.7-11.5,12.6-18.8,22.5-18.8c1.4,0,2.8,0.2,4.2,0.5
	v14.8c-1.6-0.4-3.3-0.6-5-0.5c-10.4,0-17.8,8.4-19.8,20.1c-0.4,2.4-0.6,4.8-0.7,7.3v45.9h-14.6V417.5z"/>
<path class="st5" d="M314.2,233.2h-0.5c-0.4,0.1-0.9,0.2-1.3,0.1h-44c-0.4,0.1-0.9,0-1.3-0.1l0,0c-0.1-0.1-0.2-0.2-0.3-0.3v-16.8
	c0.1-0.1,0.2-0.2,0.3-0.3h47.2c0.3,0.2,0.2,0.5,0.2,0.8c0,5.3,0,10.6,0,15.9C314.4,232.7,314.5,233,314.2,233.2z"/>
<path class="st4" d="M317.6,215.7h46.9c0.1,0.1,0.2,0.2,0.3,0.3l0,0c0.2,0.5,0.2,1,0.1,1.4c0,4.7,0,9.4,0,14.1c0.1,0.5,0,1-0.1,1.4
	l0,0l-0.3,0.3l0,0c-0.4,0.2-0.9,0.2-1.3,0.1h-44.3c-0.4,0.1-0.9,0-1.3-0.1l0,0c-0.1-0.1-0.2-0.2-0.3-0.3l0,0c-0.2-0.1-0.2-0.4,0-0.6
	l0,0V232c-0.2-1.1-0.2-2.2-0.1-3.4c0-3.4,0-6.9,0-10.4c-0.1-0.5,0-1,0.1-1.4v-0.3c-0.2-0.1-0.2-0.4,0-0.6l0,0l0,0
	C317.4,215.9,317.5,215.8,317.6,215.7z"/>
<path class="st6" d="M314,236.3l0.3,0.2c0.4,0.4,0.4,0.9,0.4,1.4c0,4.7,0,9.4,0,14.1c0,0.5,0.1,1-0.4,1.4l-0.3,0.2
	c-0.2,0.2-0.5,0.3-0.8,0.2c-14.7-0.1-29.5,0-44.2,0c-0.5,0.1-1.1,0-1.6-0.2c-0.4-0.4-0.4-0.9-0.4-1.4v-14.8c0-0.5-0.1-1,0.4-1.4
	c0.5-0.2,1.1-0.2,1.6-0.1c14.7,0,29.5,0,44.2-0.1C313.5,236.1,313.8,236,314,236.3z"/>
<path class="st6" d="M367.9,236.6l0.3-0.3c0.2-0.3,0.5-0.2,0.8-0.2c14.8,0.1,29.6,0,44.3,0.1c0.5-0.1,1,0,1.5,0.1
	c0.4,0.4,0.4,0.9,0.4,1.4v14.8c0,0.5,0.1,1-0.4,1.4c-0.5,0.2-1,0.2-1.5,0.2c-14.8,0-29.6-0.1-44.3,0c-0.3,0-0.6,0-0.8-0.2l-0.3-0.3
	c-0.5-0.4-0.3-0.9-0.3-1.4c0-4.7,0-9.3,0-14C367.5,237.5,367.4,237,367.9,236.6z"/>
<path class="st6" d="M465.3,236.3c0.4,0.4,0.4,0.9,0.4,1.4v14.7c0,0.5,0.1,1-0.4,1.4c-0.6,0.2-1.3,0.2-1.9,0.1
	c-14.6,0-29.2,0-43.8,0c-0.3,0.1-0.6,0-0.8-0.2c-0.3-0.4-0.4-0.9-0.3-1.4v-14.6c-0.1-0.5,0-1,0.3-1.4c0.2-0.2,0.5-0.3,0.8-0.2
	c14.7,0.1,29.3,0,44,0C464.1,236,464.7,236.1,465.3,236.3z"/>
<path class="st6" d="M314.2,274l-0.3,0.2c-0.2,0.3-0.5,0.2-0.8,0.2c-14.7-0.1-29.5,0-44.2,0c-0.5,0.1-1.1,0-1.6-0.1
	c-0.4-0.4-0.4-0.9-0.4-1.4v-14.8c0-0.5-0.1-1,0.4-1.4c0.5-0.2,1.1-0.2,1.6-0.2c14.7,0,29.5,0,44.2,0c0.3-0.1,0.6,0,0.8,0.2l0.3,0.2
	c0.4,0.4,0.4,0.9,0.4,1.4c0,4.7,0,9.4,0,14.1C314.6,273.1,314.7,273.6,314.2,274z"/>
<path class="st6" d="M367.9,257.1l0.3-0.3c0.2-0.3,0.5-0.2,0.8-0.2c14.8,0.1,29.6,0,44.3,0c0.5-0.1,1,0,1.5,0.2
	c0.4,0.4,0.4,0.9,0.4,1.4V273c0,0.5,0.1,1-0.4,1.4c-0.5,0.2-1,0.2-1.5,0.1c-14.8,0-29.6,0-44.3,0c-0.3,0-0.6,0-0.8-0.2l-0.3-0.3
	c-0.5-0.4-0.3-0.9-0.3-1.4c0-4.7,0-9.3,0-14C367.5,258,367.4,257.5,367.9,257.1z"/>
<path class="st6" d="M418.7,274.2c-0.3-0.4-0.4-0.9-0.3-1.4v-14.7c-0.1-0.5,0-1,0.3-1.4c0.2-0.2,0.5-0.3,0.8-0.2
	c14.7,0.1,29.3,0,44,0c0.6-0.1,1.2,0,1.8,0.2c0.4,0.4,0.4,0.9,0.4,1.4v14.7c0,0.5,0.1,1-0.4,1.4c-0.6,0.2-1.3,0.2-1.9,0.1
	c-14.6,0-29.2,0-43.8,0C419.3,274.5,419,274.4,418.7,274.2z"/>
<path class="st6" d="M317.6,274.2c-0.1-1.1-0.1-2.2-0.1-3.3c0-4.1,0-8.3,0-12.5c0-0.5,0-1.1,0.1-1.6c0.2-0.4,0.6-0.2,0.9-0.2
	c15,0,30,0,45,0c0.3,0,0.7-0.1,1,0.2c0,0.7,0.1,1.5,0.1,2.2c0,4.6,0,9.1,0,13.7c0,0.5-0.1,1-0.1,1.5c-0.2,0.3-0.6,0.2-1,0.2
	c-15,0-30,0-45,0C318.2,274.5,317.8,274.5,317.6,274.2z"/>
<path class="st6" d="M317.6,253.7c-0.1-1-0.1-2-0.1-3c0-4.2,0-8.5,0-12.8c0-0.5,0-1.1,0.1-1.6c0.2-0.4,0.6-0.2,0.9-0.2
	c15,0.1,30,0.1,45,0c0.3,0,0.7-0.1,1,0.2c0,0.7,0.1,1.5,0.1,2.2c0,4.6,0,9.1,0,13.7c0,0.5,0,1-0.1,1.5c-0.2,0.3-0.6,0.2-1,0.2
	c-15-0.1-30-0.1-45,0C318.2,253.9,317.8,254,317.6,253.7z"/>
<path class="st8" d="M415.1,215.8l0.3,0.3c0,5.6,0,11.3,0,16.9c-0.4,0.3-0.8,0.4-1.3,0.3h-45.6c-0.2,0-0.4,0-0.6-0.1
	c0-5.5,0-11-0.1-16.5c0-0.4,0.1-0.7,0.3-1h7.4L415.1,215.8z"/>
<path class="st7" d="M419.2,232.4v-12.7c0-0.6,0-1.3,0-1.9c0-1.1,0-1.1,1.2-1.1h43.1c1.5,0,1.5,0,1.5,1.5V231c0,0.3,0,0.6,0,0.9
	c0,0.3-0.2,0.6-0.6,0.6l0,0c-0.3,0-0.6,0-0.9,0L419.2,232.4L419.2,232.4z"/>
<path class="st4" d="M572.1,538.9c23.2-41.9,41.6-132.6-7.9-192.3l-12.9,11.5l-10.9-49.4l47.9,16.4l-13,11.6
	C633,424.8,586.4,527,572.1,538.9z"/>
<path class="st4" d="M165.6,328.7c-23.2,41.9-41.6,132.6,7.9,192.3l12.9-11.5l10.9,49.4l-47.9-16.4l12.9-11.6
	C104.7,442.8,151.3,340.5,165.6,328.7z"/>
<path class="st6" d="M365.6,796.9l4.5,4.5c1,1,1.9,1.9,2.7,2.9h0.1c-0.4-1.2-0.7-2.5-1-3.8l-1.4-6.3l1.6-0.9l4.7,4.3
	c1.1,1,2.1,2,2.9,2.9h0.1c-0.5-1.3-0.9-2.5-1.2-3.8l-1.5-6.2l1.9-1.1l2.7,12.4l-1.7,1l-4.5-4.1c-1-1-2-1.8-2.9-2.9l0,0
	c0.4,1.3,0.8,2.6,1.1,4l1.2,6l-1.7,1l-9.2-8.6L365.6,796.9z"/>
<path class="st6" d="M381.8,787.5l4.5,4.5c1,1,1.9,1.9,2.7,2.9h0.1c-0.4-1.2-0.7-2.5-1-3.8l-1.4-6.3l1.6-0.9l4.7,4.2
	c1.1,1,2.1,2,2.9,2.9h0.1c-0.5-1.3-0.9-2.6-1.2-3.9l-1.6-6.1l1.9-1.1l2.7,12.4l-1.7,1l-4.5-4.1c-1-1-2-1.8-2.9-2.9l0,0
	c0.4,1.3,0.8,2.6,1.1,4l1.2,6l-1.7,1l-9.2-8.6L381.8,787.5z"/>
<path class="st6" d="M397.9,778.1l4.5,4.5c1,1,1.9,1.9,2.7,2.9h0.1c-0.4-1.2-0.7-2.5-1-3.8l-1.4-6.3l1.6-0.9l4.7,4.3
	c1.1,1,2.1,2,2.9,2.9h0.1c-0.5-1.3-0.9-2.6-1.2-3.9l-1.6-6.1l1.9-1.1l2.7,12.4l-1.7,1l-4.5-4.1c-1-0.9-2-1.9-2.9-2.9l0,0
	c0.4,1.3,0.8,2.6,1.1,4l1.2,6l-1.7,1l-9.3-8.7L397.9,778.1z"/>
<path class="st6" d="M417.2,779.4c-0.5-0.7-0.3-1.6,0.4-2.1s1.6-0.3,2.1,0.4l0.1,0.1c0.5,0.7,0.3,1.6-0.4,2.1s-1.6,0.3-2.1-0.4
	C417.3,779.5,417.2,779.4,417.2,779.4z"/>
<path class="st6" d="M418.6,770.4c-0.7-1.2-1.4-2.3-2-3.2l1.7-1l1.2,2h0.1c-0.4-1.5,0.2-3.2,1.6-4c0.2-0.1,0.4-0.2,0.6-0.2l1,1.8
	c-0.2,0.1-0.5,0.2-0.7,0.3c-1.3,0.9-1.8,2.5-1.1,3.9c0.1,0.3,0.3,0.6,0.4,0.9l3.2,5.6l-1.9,1.1L418.6,770.4z"/>
<path class="st6" d="M428.5,771.7c1,0,2-0.2,3-0.7c1.4-0.8,1.6-1.9,1.1-2.7s-1.4-1.1-3.1-0.8c-2.3,0.4-3.8-0.1-4.5-1.3
	c-1-1.7-0.4-3.8,1.8-5.2c0.9-0.5,1.9-0.8,3-0.8l0.3,1.7c-0.9,0-1.7,0.2-2.5,0.6c-0.9,0.3-1.3,1.4-1,2.3c0,0.1,0,0.1,0.1,0.2
	c0.5,0.9,1.4,0.9,3,0.6c2.2-0.4,3.7,0,4.6,1.5c1.1,1.8,0.4,4-2.1,5.4c-1,0.6-2.2,1-3.4,1L428.5,771.7z"/>
<path class="st6" d="M432.9,753.8l1.8,3l2.7-1.6l0.8,1.5l-2.7,1.6l3.3,5.6c0.8,1.3,1.5,1.8,2.6,1.2c0.4-0.2,0.7-0.5,1-0.8l0.9,1.4
	c-0.4,0.5-1,0.9-1.5,1.2c-0.7,0.5-1.7,0.6-2.5,0.4c-1-0.4-1.9-1.3-2.3-2.3l-3.3-5.7l-1.6,0.9l-0.8-1.5l1.6-0.9l-1.5-2.5L432.9,753.8
	z"/>
<path class="st6" d="M452.6,756.4c0.6,1.1,1.2,2,1.8,2.8l-1.7,1l-1.1-1.6l0,0c0,1.7-0.9,3.2-2.3,4c-1.6,1-4.1,1.2-6.3-2.5l-3.6-6.1
	l1.9-1.1l3.4,5.8c1.1,2,2.5,3,4.3,2c1.1-0.7,1.7-1.9,1.5-3.2c-0.1-0.4-0.2-0.7-0.4-1.1l-3.7-6.4l1.9-1.1L452.6,756.4z"/>
<path class="st6" d="M457.6,736.8l7.4,12.6c0.5,0.9,1.2,2,1.7,2.6l-1.7,1l-1.1-1.8l0,0c0.1,1.7-0.9,3.3-2.4,4.1
	c-2.5,1.5-5.7,0.5-7.6-2.7c-2-3.5-1.1-6.9,1.4-8.3c1.2-0.8,2.8-0.9,4.1-0.2l0,0l-3.6-6.2L457.6,736.8z M461,747.1
	c-0.2-0.3-0.3-0.5-0.5-0.8c-1-1.1-2.7-1.4-4-0.6c-2,1.1-2.1,3.5-0.8,5.9c1.2,2.1,3.3,3.3,5.3,2.1c1.3-0.8,2-2.4,1.5-3.9
	c-0.1-0.3-0.2-0.6-0.4-0.9L461,747.1z"/>
<path class="st6" d="M464,735.7c0.4,0.6,0.2,1.5-0.5,1.9c-0.6,0.4-1.5,0.2-1.9-0.5c-0.4-0.6-0.2-1.5,0.4-1.8c0,0,0,0,0.1,0
	C462.8,734.8,463.6,735,464,735.7L464,735.7z M469.7,750.3l-6.1-10.5l1.9-1.1l6.1,10.5L469.7,750.3z"/>
<path class="st6" d="M481.1,736.6c2.2,3.9,0.5,7.1-2,8.6c-2.8,1.7-6.2,0.8-8.1-2.5c-2-3.5-0.9-6.9,2-8.6S479.2,733.4,481.1,736.6z
	 M472.8,741.5c1.3,2.3,3.7,3.2,5.5,2.2s2.2-3.6,0.8-5.9c-1-1.8-3.2-3.5-5.5-2.2S471.7,739.5,472.8,741.5z"/>
<path class="st6" d="M485,739.9c-0.4-0.7-0.1-1.6,0.6-2s1.6-0.1,2,0.6c0.4,0.7,0.1,1.6-0.6,2S485.4,740.7,485,739.9
	C485,740,485,740,485,739.9z"/>
<path class="st6" d="M497.8,733.5c-0.7,1-1.6,1.8-2.6,2.3c-3.1,1.8-6.5,0.9-8.3-2.3c-1.8-2.8-1-6.6,1.8-8.5c0.2-0.1,0.4-0.2,0.6-0.3
	c0.9-0.5,1.9-0.9,3-1l0.4,1.7c-0.9,0-1.7,0.3-2.5,0.8c-2.4,1.4-2.7,3.9-1.4,6.1c1.4,2.4,3.8,3,5.9,1.8c0.8-0.5,1.5-1.1,2-1.9
	L497.8,733.5z"/>
<path class="st6" d="M506.4,721.8c2.2,3.9,0.5,7.1-2,8.6c-2.8,1.6-6.2,0.8-8.1-2.5c-2-3.5-0.9-6.9,2-8.6S504.6,718.6,506.4,721.8z
	 M498.2,726.8c1.3,2.3,3.6,3.2,5.5,2.2s2.2-3.6,0.8-5.9c-1-1.8-3.2-3.5-5.5-2.2S497,724.8,498.2,726.8z"/>
<path class="st6" d="M507.5,718.1c-0.6-1.1-1.2-2-1.7-2.8l1.7-1l1.1,1.6h0.1c-0.1-1.6,0.8-3.1,2.2-3.8c1.3-0.8,3-0.6,4.2,0.4l0,0
	c0-0.7,0.1-1.4,0.4-2c0.4-0.9,1-1.6,1.9-2.1c1.4-0.8,4-1.1,6.1,2.5l3.6,6.2l-1.8,1l-3.4-5.9c-1.2-2-2.6-2.8-4.2-1.9
	c-1,0.6-1.5,1.8-1.2,3c0.1,0.4,0.2,0.7,0.4,1l3.8,6.5l-1.9,1.1l-3.7-6.3c-1-1.7-2.4-2.5-3.9-1.6c-1.1,0.7-1.6,2-1.2,3.3
	c0.1,0.4,0.2,0.7,0.4,1l3.7,6.3l-1.9,1.1L507.5,718.1z"/>
</svg>
