<?xml version="1.0" encoding="utf-8"?>
<!-- Generator: Adobe Illustrator 26.5.0, SVG Export Plug-In . SVG Version: 6.00 Build 0)  -->
<svg version="1.1" id="Layer_1" xmlns="http://www.w3.org/2000/svg" xmlns:xlink="http://www.w3.org/1999/xlink" x="0px" y="0px"
	 viewBox="0 0 2521 2911" style="enable-background:new 0 0 2521 2911;" xml:space="preserve">
<style type="text/css">
	.st0{clip-path:url(#SVGID_00000129914520453457762630000003393055390729069960_);}
	.st1{fill:#4D4D4D;}
	.st2{opacity:0.6;fill:#C1272D;enable-background:new    ;}
	.st3{opacity:0.6;fill:#93278F;enable-background:new    ;}
	.st4{opacity:0.75;fill:#F7931E;enable-background:new    ;}
	.st5{opacity:0.5;fill:#00FFFF;enable-background:new    ;}
	.st6{opacity:0.8;fill:#93278F;enable-background:new    ;}
	.st7{fill:#9000F4;}
	.st8{opacity:0.6;fill:#00FFFF;enable-background:new    ;}
	.st9{opacity:0.7;fill:#00A99D;enable-background:new    ;}
	.st10{opacity:0.6;fill:#F15A24;enable-background:new    ;}
	.st11{opacity:0.7;fill:#FBB03B;enable-background:new    ;}
	.st12{opacity:0.6;fill:#ED1E79;enable-background:new    ;}
	.st13{opacity:0.8;fill:#F7931E;enable-background:new    ;}
	.st14{opacity:0.7;fill:#93278F;enable-background:new    ;}
	.st15{opacity:0.7;fill:#22B573;enable-background:new    ;}
	.st16{opacity:0.6;fill:#29ABE2;enable-background:new    ;}
	.st17{opacity:0.7;fill:#FF00FF;enable-background:new    ;}
	.st18{fill:#FF029E;}
	.st19{fill:#03FFBF;}
	.st20{fill:#53D602;}
	.st21{fill:#01EB01;}
	.st22{fill:#EDFF01;}
	.st23{fill:#01B644;}
	.st24{fill:#9FFF01;}
	.st25{fill:#FE5201;}
	.st26{fill:#F8AE01;}
	.st27{fill:#F4D102;}
	.st28{fill:#02EB00;}
	.st29{fill:#9CFF00;}
	.st30{fill:#02D3F7;}
	.st31{fill:#F8AF03;}
	.st32{fill:#999999;}
</style>
<g id="Layer_3">
	<g>
		<defs>
			<polygon id="SVGID_1_" points="2521,2183.2 2521,727.8 1260.5,0 0,727.8 0,2183.2 1260.5,2911 			"/>
		</defs>
		<clipPath id="SVGID_00000000187488710125107650000007107812063184896397_">
			<use xlink:href="#SVGID_1_"  style="overflow:visible;"/>
		</clipPath>
		<g style="clip-path:url(#SVGID_00000000187488710125107650000007107812063184896397_);">
			<rect x="-172.2" y="-61.8" width="2992.7" height="2992.7"/>
			
				<rect x="-470" y="1741.9" transform="matrix(0.866 -0.5 0.5 0.866 -735.1478 916.1381)" class="st1" width="3623.9" height="175.9"/>
			
				<rect x="-476.6" y="1652.6" transform="matrix(0.866 -0.5 0.5 0.866 -658.5306 892.0306)" class="st1" width="3623.9" height="44.5"/>
			
				<rect x="-290.4" y="2068.1" transform="matrix(0.866 -0.5 0.5 0.866 -835.7606 1039.3492)" class="st1" width="3623.9" height="22.3"/>
			
				<rect x="-375.3" y="1890.7" transform="matrix(0.866 -0.5 0.5 0.866 -759.7268 973.4507)" class="st1" width="3623.9" height="27.5"/>
			
				<rect x="-222" y="2085.1" transform="matrix(0.866 -0.5 0.5 0.866 -885.7715 1089.3624)" class="st1" width="3623.9" height="225"/>
			
				<rect x="-448.3" y="1983.3" transform="matrix(0.866 -0.5 0.5 0.866 -820.1107 950.538)" class="st1" width="3623.9" height="44.5"/>
			
				<rect x="-523.2" y="1297.6" transform="matrix(0.866 -0.5 0.5 0.866 -482.9996 820.0535)" class="st1" width="3623.9" height="27.5"/>
			
				<rect x="262.3" y="2268.5" transform="matrix(0.866 -0.5 0.5 0.866 -917.6099 1139.8625)" class="st1" width="2811.9" height="27.5"/>
			
				<rect x="545" y="2265.8" transform="matrix(0.866 -0.5 0.5 0.866 -888.3731 1283.5695)" class="st1" width="2811.9" height="67.4"/>
			
				<rect x="-720.9" y="1156.7" transform="matrix(0.866 -0.5 0.5 0.866 -440.36 781.3835)" class="st1" width="3917.6" height="111.3"/>
			
				<rect x="-611.2" y="965.5" transform="matrix(0.866 -0.5 0.5 0.866 -323.1412 762.0851)" class="st1" width="3743.4" height="37"/>
			
				<rect x="-772.6" y="737.3" transform="matrix(0.866 -0.5 0.5 0.866 -240.6775 653.4984)" class="st1" width="3743.4" height="77.1"/>
			
				<rect x="-867.4" y="641.3" transform="matrix(0.866 -0.5 0.5 0.866 -195.3537 590.5475)" class="st1" width="3743.4" height="37"/>
			
				<rect x="-690.2" y="494.6" transform="matrix(0.866 -0.5 0.5 0.866 -93.6403 658.2689)" class="st1" width="3743.4" height="18.5"/>
			
				<rect x="-399.7" y="2154.5" transform="matrix(0.866 -0.5 0.5 0.866 -954.2271 784.7564)" class="st2" width="2774" height="37"/>
			
				<rect x="143.9" y="2347.6" transform="matrix(0.866 -0.5 0.5 0.866 -975.1373 1081.6931)" class="st3" width="2774" height="25.7"/>
			
				<rect x="260.3" y="2345.9" transform="matrix(0.866 -0.5 0.5 0.866 -958.6732 1139.6642)" class="st4" width="2774" height="25.7"/>
			<rect x="-452" y="993.7" transform="matrix(0.866 -0.5 0.5 0.866 -380.8434 603.0997)" class="st5" width="2774" height="37"/>
			<polygon class="st6" points="348,1123.6 309.6,1052.7 351.7,984 432.2,986.2 470.7,1057 428.6,1125.7 			"/>
			<polygon class="st7" points="198,1280.6 178.6,1244.8 199.9,1210.1 240.6,1211.2 260,1247 238.7,1281.7 			"/>
			<polygon class="st8" points="306.8,1179.6 281.4,1132.7 309.2,1087.3 362.6,1088.7 388,1135.6 360.1,1181 			"/>
			<polygon class="st9" points="557.6,1277.6 539.9,1244.9 559.3,1213.2 596.5,1214.2 614.3,1246.9 594.8,1278.6 			"/>
			<polygon class="st10" points="1908.9,981.9 1870.4,911.1 1912.6,842.4 1993.1,844.5 2031.5,915.3 1989.4,984 			"/>
			<polygon class="st11" points="1963.9,744.5 1944.6,708.8 1965.8,674.1 2006.4,675.2 2025.7,710.9 2004.5,745.5 			"/>
			<polygon class="st12" points="272.5,1760.1 238.6,1697.7 275.7,1637.1 346.7,1639 380.6,1701.4 343.5,1762 			"/>
			<polygon class="st13" points="241.5,1868.6 222.1,1832.9 243.4,1798.2 284.1,1799.3 303.5,1835 282.2,1869.7 			"/>
			<polygon class="st14" points="292.6,1940.7 254.1,1869.9 296.2,1801.2 376.8,1803.3 415.2,1874.1 373.1,1942.8 			"/>
			<polygon class="st15" points="1865.1,1545 1833.9,1487.6 1868.1,1431.9 1933.3,1433.7 1964.5,1491.1 1930.4,1546.7 			"/>
			<polygon class="st8" points="1089.7,2381.5 1043.9,2297 1094.1,2215 1190.3,2217.5 1236.2,2302.1 1185.9,2384 			"/>
			<polygon class="st15" points="1369.6,2544.1 1346.2,2501.1 1371.8,2459.3 1420.8,2460.6 1444.2,2503.7 1418.6,2545.4 			"/>
			<polygon class="st11" points="1500.3,2636.4 1481,2600.7 1502.2,2566 1542.8,2567.1 1562.2,2602.8 1540.9,2637.4 			"/>
			<polygon class="st16" points="1128.9,2687.4 1076,2590 1134,2495.5 1244.8,2498.4 1297.6,2595.8 1239.7,2690.3 			"/>
			<polygon class="st8" points="1049.1,2600.3 1023.7,2553.4 1051.5,2507.9 1104.9,2509.3 1130.3,2556.2 1102.4,2601.7 			"/>
			<polygon class="st9" points="1732,1508.4 1714.2,1475.7 1733.7,1443.9 1770.9,1444.9 1788.6,1477.6 1769.2,1509.3 			"/>
			<polygon class="st17" points="495.4,2374.8 469.8,2327.6 497.9,2281.9 551.5,2283.3 577.1,2330.4 549,2376.2 			"/>
			<polygon class="st12" points="2211.7,1520.5 2163.3,1431.1 2216.4,1344.5 2318,1347.2 2366.4,1436.5 2313.3,1523.1 			"/>
			<polygon class="st13" points="2296.3,1323.6 2269.1,1273.3 2299,1224.6 2356.1,1226.1 2383.4,1276.4 2353.5,1325.1 			"/>
			<path class="st18" d="M3007.3,517.7c-24.2,13.7-48.6,27.2-72.6,41.2c-56.7,33-113.2,66.2-169.7,99.5
				c-50.1,29.4-100.3,58.8-150.4,88.2c-50.5,29.6-100.9,59.2-151.4,88.9c-50.1,29.4-100.3,58.8-150.4,88.2
				c-50.5,29.6-100.9,59.3-151.3,89c-48.8,28.6-97.5,57.3-146.3,85.9c-52.8,31-105.7,62-158.5,93.1l-149.3,87.7
				c-50.4,29.6-100.9,59.3-151.3,88.9c-49.8,29.2-99.6,58.5-149.4,87.7c-51.1,30-102.3,60.1-153.4,90.2
				c-50.1,29.5-100.2,58.9-150.3,88.3c-49.8,29.3-99.5,58.6-149.2,87.9c-50.4,29.7-100.8,59.5-151.1,89.4c-4,2.4-7.7,5.3-11.6,8
				l-43.9-76.8c56.8-32.8,113.6-65.5,170.2-98.5c49.9-29.1,99.5-58.5,149.2-87.8c50.8-29.9,101.5-59.7,152.3-89.6
				c50.1-29.5,100.1-59,150.2-88.5c50.4-29.7,100.8-59.4,151.2-89.1c49.1-28.9,98.1-57.8,147.2-86.7
				c51.8-30.5,103.5-60.9,155.3-91.4c49.7-29.3,99.5-58.5,149.2-87.8s99.5-58.5,149.2-87.8c51.5-30.2,102.9-60.5,154.4-90.7
				c50.1-29.4,100.2-58.9,150.3-88.3c49.8-29.2,99.6-58.4,149.4-87.6c50.8-29.8,101.6-59.6,152.5-89.4
				c50.8-29.8,101.7-59.6,152.5-89.4c41-24.1,81.9-48.2,122.9-72.3c1.4-0.7,2.8-1.4,4.2-1.9V517.7z"/>
			<path class="st19" d="M3007.3-34.1c-37.4,21.7-74.8,43.3-112.2,65c-54.3,31.6-108.6,63.3-162.8,95.1
				c-49.5,28.9-99,57.9-148.5,86.9c-50.8,29.8-101.7,59.5-152.5,89.3c-48.5,28.4-96.9,56.8-145.4,85.2
				c-52.9,30.9-105.8,61.8-158.7,92.7c-50.2,29.3-100.4,58.7-150.5,88.1c-51.5,30.1-103,60.3-154.6,90.5
				c-49.1,28.8-98.3,57.5-147.4,86.3c-47.4,27.8-94.9,55.6-142.3,83.4c-3.7,2.2-7.7,3.9-11.5,5.8c-2.9-3-6.2-5.7-8.5-9.1
				c-3.1-4.5-5.5-9.4-8.1-14.2c-8.5-15.8-17.1-31.5-25.6-47.3c33.1-19.7,66-39.6,99.2-59c71.9-42.1,143.8-84,215.8-125.8
				c49.2-28.7,98.3-57.5,147.5-86.3c51.9-30.3,103.7-60.7,155.6-91c50.9-29.8,101.7-59.5,152.6-89.3
				c50.2-29.4,100.3-58.7,150.5-88.1c49.5-29,99-57.9,148.5-86.9L2705,45.3c51.2-29.9,102.4-59.9,153.6-89.8
				c47.1-27.6,94.2-55.2,141.3-82.8c2.3-1.4,4.9-2.4,7.3-3.5V-34.1z"/>
			<path class="st20" d="M1936.6,1848.9c23.7-13.8,47.4-27.7,71.2-41.5c42.5-24.5,85.1-48.9,127.6-73.6
				c50.9-29.6,101.8-59.2,152.6-89c50.5-29.5,101.1-59,151.6-88.5l154.6-90.2l150.6-87.9c50.9-29.7,101.7-59.4,152.6-89.1
				c36.6-21.4,73.2-42.7,109.8-64v117.9c-61.3,36-122.6,72-183.9,107.9c-54.5,32-109.1,63.9-163.6,95.9
				c-49.1,28.8-98.2,57.6-147.3,86.4c-51.5,30.2-102.9,60.4-154.4,90.6c-49.4,29-98.9,58-148.3,87c-51.5,30.2-102.9,60.4-154.4,90.7
				l-65.9,38.7c-1.1-1-2.6-1.8-3.4-3.1C1969.5,1907.9,1953,1878.4,1936.6,1848.9z"/>
			<path class="st21" d="M1450.7,941.1c1.4,16.1-2.5,31.2-8.5,45.9c-12.8,31.1-30.9,59-50.8,86c-28.1,38-58.4,74.1-91.5,107.7
				c-32.8,33.2-65.8,66.4-100,98.2c-31.9,29.7-64.6,58.5-98.3,86.3c-37.8,31.3-76.2,62-115.6,91.2c-41.9,31.1-85.4,60.1-128.2,90
				c-7.4,5.2-14.9,10.1-22.2,15.4c-4.7,3.4-7.2,2.3-9.9-2.6c-17.5-31.2-35.2-62.2-52.8-93.2c-15.7-27.6-31.4-55.3-47.1-82.9
				c-15.7-27.6-31.4-55.3-47.2-82.9c-0.9-1.7-1.4-3.6-2.1-5.4c8.1-4.7,16.2-9.5,24.3-14.2c51.1-29.9,102.2-59.8,153.3-89.7
				c49.4-28.9,98.8-57.9,148.2-86.8c51.1-29.9,102.2-59.8,153.4-89.7c50.4-29.5,100.9-59,151.3-88.5c32.9-19.2,65.9-38,98.9-57
				c11.6,20.1,23.1,40.4,34.9,60.4C1443.5,933.4,1447.4,937.1,1450.7,941.1z"/>
			<path class="st22" d="M1766.4,2378c-38.4,34.2-76.9,68.4-115.3,102.6c-7.6,6.8-15.2,13.7-22.7,20.5c-7.2,6.5-7.4,6.6-13.7-0.4
				c-16.6-18.4-33.1-36.8-49.5-55.4c-25.6-28.7-51.1-57.5-76.7-86.3c-27.4-30.8-54.8-61.6-82.2-92.4c-25.8-29.1-51.6-58.1-77.5-87.2
				c-53.5-60.2-106.9-120.3-160.4-180.5c-15.9-17.9-31.9-35.7-47.8-53.6c-2-2.2-3.7-4.7-6.3-7.9c4.2-1.5,7.4-2.9,10.6-3.9
				c24.8-7.4,49.7-14.5,74.5-22.1c83.7-25.7,167.3-51.5,250.9-77.4c2.2-0.7,4.4-1.6,6.6-2.4c16.8,29.3,33.6,58.6,50.3,87.9
				c32.2,56.7,64.3,113.4,96.4,170.1c34.5,60.8,68.9,121.6,103.4,182.5C1726.9,2307.4,1746.6,2342.7,1766.4,2378z"/>
			<path class="st23" d="M1766.4,2378c-19.8-35.3-39.5-70.6-59.4-105.8c-34.4-60.9-68.9-121.7-103.4-182.5
				c-32.1-56.7-64.3-113.4-96.4-170.1c-16.7-29.3-33.5-58.7-50.3-87.9c-1.7-3.1-3.4-6.1-4.9-9.3c-4.7-9.5-3.8-12.1,6.4-15.3
				c15.7-4.9,31.6-9.5,47.4-14.2c42.5-12.7,85-25.2,127.4-38.4c8.5-2.6,14.6-1.3,21.4,4.3c44.3,36.4,89,72.3,133.4,108.7
				c5.9,4.8,11.2,6.4,19.1,4.7c39.1-8.7,78.4-16.5,117.6-24.7c4.3-0.9,8.4-2.5,12,1.5c16.5,29.5,33,58.9,49.5,88.4
				c0.7,1.3,2.2,2.1,3.4,3.1c0.5,1.9,0.6,4,1.6,5.6c2.8,4.6,1.2,7.5-2.2,11.2c-30.4,33.3-60.4,67-90.8,100.3
				c-4.7,5.2-6.1,9.6-4.5,16.7c11.7,52.8,22.7,105.8,34.4,158.6c1.6,7.1,0.2,11.7-5,16.5c-33.2,31.1-66.2,62.4-99.1,93.8
				c-12.8,12.2-25.3,24.5-38.1,36.7C1775.1,2389.7,1774.9,2389.6,1766.4,2378z"/>
			<path class="st24" d="M632.1,1216.5c-5.3-9.1-10.8-18.1-16-27.2c-31.3-54.5-62.5-109-93.7-163.5c-11.3-19.8-11.5-20.2,8.6-30.1
				c39.4-19.5,79.1-38.5,118.6-57.7c75.7-36.8,154.6-65.7,233.6-94.5c87.6-31.9,177.1-56.9,268.7-74.4c44-8.4,88.4-14.5,133.4-13.1
				c10.6,0.4,21.2,1.4,31.7,2.9c13.7,1.8,26.8,6.7,38.3,14.2l6.2,16.3c-30.3,18.1-60.6,36.3-91,54.2
				c-51.8,30.4-103.6,60.7-155.5,90.9c-50.1,29.3-100.2,58.7-150.4,88c-50.8,29.7-101.6,59.5-152.4,89.1
				c-43.4,25.3-87,50.3-130.5,75.5C665.1,1197,648.7,1206.8,632.1,1216.5z"/>
			<path class="st25" d="M747.1,1742.9l43.9,76.8c2.5,4.9,4.8,9.9,7.5,14.6c28.8,50.3,57.6,100.7,86.5,151
				c34.4,60.2,68.8,120.4,103.2,180.7c9.9,17.4,9.8,17.4-5.8,29.7c-17,13.3-33.9,26.7-50.9,39.9c-3.3,2.6-7.2,4.6-10.8,6.8
				c-1.2-1.5-2.7-2.9-3.6-4.5c-28.2-49.2-56.4-98.4-84.6-147.6c-23.7-41.4-47.2-82.9-70.8-124.5c-1.9-3.8-3.7-7.8-5.8-11.5
				c-23.5-41.1-47.3-82.2-70.7-123.4c-21.9-38.5-43.3-77.2-65.1-115.7c-27.9-49.1-55.9-98-84-146.9c-6.2-10.8-12.6-21.5-19-32.3
				c-5.5-9.4-11.1-18.8-16.6-28.1c-2.4-4.9-4.5-9.9-7.1-14.7c-14.2-25.6-28.5-51.2-42.9-76.8c2.5-1.7,4.7-4,7.4-5.2
				c23.3-10.3,46.7-20.4,70.1-30.4c9.3-4,9.6-4,14.7,4.9c32.3,56.5,64.6,113,96.8,169.6c30.9,54.1,61.9,108.2,93,162.3
				C737.3,1726.1,742.2,1734.5,747.1,1742.9z"/>
			<path class="st26" d="M517,1536.1c6.3,10.8,12.8,21.5,19,32.3c28.1,48.9,56.1,97.9,84,146.9c21.9,38.5,43.3,77.2,65.1,115.7
				c23.4,41.2,47.1,82.3,70.7,123.4c2.1,3.7,3.9,7.7,5.9,11.5c-2.1,0.9-4.4,1.5-6.3,2.8c-17,11.7-33.9,23.6-51,35.2
				c-18.4,12.5-36.9,24.8-55.4,37.2c-7.6-12.8-15.4-25.5-22.7-38.4c-15.5-27.3-30.7-54.8-46.1-82.2
				c-34.4-61.3-68.8-122.5-103.3-183.8c-26.9-47.9-53.7-95.9-80.5-143.9c-1.5-2.7-2.7-5.6-4-8.5c37.9-13.6,75.8-27.2,113.8-40.8
				C510.3,1542,516,1542.2,517,1536.1z"/>
			<path class="st27" d="M649,2041c18.5-12.4,37-24.7,55.4-37.2c17.1-11.6,33.9-23.5,51-35.2c1.8-1.3,4.2-1.9,6.3-2.8
				c23.6,41.5,47.2,83,70.8,124.5c28.1,49.3,56.3,98.5,84.6,147.6c1,1.7,2.4,3,3.6,4.5c-24.7,31.5-49.5,62.9-74.2,94.4
				c-5.8,7.4-11.5,14.8-17.8,23.1c-2.1-2.6-4-4.3-5.2-6.5c-32.2-57.1-64.3-114.3-96.3-171.5c-25.3-45.2-50.6-90.4-75.8-135.7
				C650.3,2044.7,649.8,2042.8,649,2041z"/>
			<path class="st28" d="M632.1,1216.5c16.5-9.7,33-19.5,49.6-29.2c43.5-25.2,87-50.3,130.5-75.5c50.9-29.6,101.7-59.3,152.4-89.1
				c50.1-29.3,100.3-58.7,150.4-88c51.8-30.3,103.7-60.6,155.5-90.9c30.4-17.9,60.7-36.1,91-54.2c8.5,14.8,17,29.6,25.5,44.4
				c-6.7,4-13.3,8.2-20.1,12.1c-50.8,29.7-101.6,59.5-152.4,89.2c-51.2,29.9-102.3,59.9-153.5,89.8c-49.4,29-98.9,57.9-148.3,86.9
				c-57.9,33.9-115.9,67.7-173.9,101.4l-81.3,47.4L632.1,1216.5z"/>
			<path class="st29" d="M657.4,1260.7l81.3-47.4c58-33.8,115.9-67.6,173.9-101.4c49.5-28.9,98.9-57.9,148.3-86.9
				c51.1-29.9,102.3-59.9,153.5-89.8c50.8-29.7,101.6-59.4,152.4-89.2c6.8-4,13.4-8.1,20.1-12.1l18.9,34.6c-33,19-66,37.9-98.9,57
				c-50.5,29.4-100.9,58.9-151.3,88.5c-51.1,29.9-102.2,59.8-153.4,89.7c-49.4,28.9-98.8,57.9-148.2,86.8
				c-51.1,29.9-102.2,59.8-153.3,89.7c-8.1,4.7-16.2,9.5-24.3,14.2L657.4,1260.7z"/>
			<path class="st30" d="M1405.9,868.6l-18.9-34.6c-8.5-14.8-17-29.6-25.5-44.4l-6.2-16.3c7.6-7.2,17.5-8.3,27-10.1
				c23.8-4.5,48.2-5.9,72.4-4.2c8.1,0.6,16.1,2.9,24.1,4.5c8.5,15.8,17,31.5,25.6,47.3c2.6,4.8,5,9.8,8.1,14.2
				c2.3,3.4,5.6,6.1,8.5,9.1c0.6,10.1-3.6,18.9-7.8,27.6c-12.8,26.1-29.7,49.4-48.7,71.2c-3.3,3.8-9.1,5.6-13.7,8.3
				c-3.3-4.1-7.2-7.8-9.9-12.2C1429,908.9,1417.5,888.7,1405.9,868.6z"/>
			<path class="st31" d="M450.3,1416.4c14.3,25.6,28.6,51.2,42.9,76.8c2.6,4.8,4.8,9.8,7.1,14.7c-1.4,0.7-2.8,1.6-4.2,2
				c-25.6,6.6-51.3,12.9-76.9,19.7c-16.4,4.4-32.7,9.4-49,14.1c-12.4-21.2-25-42.4-37.2-63.8c-7.5-13.2-14.6-26.6-22.8-41.8
				L450.3,1416.4z"/>
			<path class="st27" d="M370.2,1543.7c16.3-4.7,32.6-9.8,49-14.1c25.6-6.8,51.3-13.1,76.9-19.7c1.5-0.4,2.8-1.3,4.2-2
				c5.5,9.4,11.1,18.8,16.6,28.1c-1,6.2-6.6,5.9-10.8,7.4c-37.9,13.7-75.8,27.3-113.8,40.8C385,1570.8,377.6,1557.3,370.2,1543.7z"
				/>
			<path class="st32" d="M596.2,658.7l-9.3-47.8l20.9-12l-12.5-63.8L634,513l12.5,63.8l20-11.5l9.3,47.8l-20,11.5l16.3,83.4l20-11.5
				l9.3,47.8l-20,11.5c-9.7,5.5-19.1,6.5-28.3,2.8c-10.4-4.6-17-14.1-19.8-28.4l-16.3-83.4L596.2,658.7z"/>
			<path class="st32" d="M691.5,526.1l-8.1-41.5l39.6-22.7l8.1,41.5L691.5,526.1z M730.8,727.5l-35-179.1l39.6-22.7l35,179.1
				L730.8,727.5z"/>
			<path class="st32" d="M911.4,277.1l61,312l-130.8,75c-10,5.7-19.7,6.8-29.2,3.3c-10.7-4.4-17.4-13.8-20.2-28.2l-16.3-83.4
				c-3.7-18.8-2.6-33.8,3.1-44.9c4.4-9.3,13-17.5,25.8-24.8l93.9-53.8l-26-132.9L911.4,277.1z M908,480L816,532.8l16.3,83.4
				l92.1-52.8L908,480z"/>
			<path class="st32" d="M1183.3,532c3,15.6,2.9,28.5-0.5,38.7c-3.9,12.9-13.4,23.7-28.6,32.4l-81,46.4l-8.2-49.7l79.6-45.7
				l-11.2-57.4l-93,53.3c-14,8-24.5,10.6-31.6,7.8c-7.1-2.8-12.4-12.8-15.8-30.2l-26.3-134.6l38.7-22.2c0.6,3.2,9.2,46.9,25.6,131.3
				l93-53.3l-25.7-131.3l38.7-22.2L1183.3,532z"/>
			<path class="st32" d="M1312.4,260.6l-2.3-11.7l-91.6,52.5c15.9,81.5,24.5,125.4,25.7,131.8l-39.6,22.7l-35.1-179.7l131.3-74.7
				c14.2-8.2,24.7-11,31.5-8.6c8.1,2.8,13.9,12.9,17.3,30.3l2.8,14.4L1312.4,260.6z"/>
		</g>
	</g>
</g>
</svg>
