<?xml version="1.0" encoding="utf-8"?>
<!-- Generator: Adobe Illustrator 22.0.1, SVG Export Plug-In . SVG Version: 6.00 Build 0)  -->
<svg version="1.1" id="Layer_1" xmlns="http://www.w3.org/2000/svg" xmlns:xlink="http://www.w3.org/1999/xlink" x="0px" y="0px"
	 viewBox="0 0 738 852" style="enable-background:new 0 0 738 852;" xml:space="preserve">
<style type="text/css">
	.st0{fill:#141227;}
	.st1{opacity:0.94;}
	.st2{fill:#FFFFFF;}
	.st3{fill:#E6B35A;}
	.st4{opacity:0.8;fill:#F2F2F2;enable-background:new    ;}
	.st5{fill:#F7A238;}
	.st6{fill:#0088C5;}
	.st7{fill:#7FB036;}
	.st8{fill:#F9ECC6;}
	.st9{fill:#FFF34D;}
	.st10{fill:#B57AB4;}
	.st11{fill:#DB1F26;}
	.st12{fill:#F26524;}
	.st13{fill:#00A5DC;}
	.st14{fill:#164F86;}
	.st15{fill:#36A85D;}
	.st16{fill:#FFFEF9;}
	.st17{fill:#EF4782;}
	.st18{fill:#404040;}
</style>
<title>tidyverse</title>
<polygon class="st0" points="716.6,225.7 369,25 369,25 21.4,225.7 21.4,627 369,827.7 716.6,627 "/>
<g class="st1">
	<path class="st2" d="M96.5,367.7v24.7h21.1v11.9H96.5v46.4c0,10.7,2.9,16.7,11.1,16.7c2.9,0,5.8-0.3,8.6-1.1l0.7,11.7
		c-2.8,1.2-7.4,2.1-13.1,2.1c-6.9,0-12.4-2.3-15.9-6.6c-4.2-4.6-5.7-12.3-5.7-22.4v-46.9H69.5v-11.9h12.6v-20.6L96.5,367.7z"/>
	<path class="st2" d="M147.3,368.2c0.3,5-3.4,9.3-8.4,9.6c-0.3,0-0.7,0-1,0c-5.2,0-8.9-4.3-8.9-9.6c0-5.5,3.9-9.8,9.2-9.8
		C143.8,358.5,147.3,362.7,147.3,368.2z M130.9,478.5v-86h14.8v86H130.9z"/>
	<path class="st2" d="M236.9,352.2v104c0,7.6,0.2,16.4,0.7,22.2h-13.2l-0.7-14.9h-0.3c-4.5,9.6-14.4,16.9-27.7,16.9
		c-19.6,0-34.7-17.6-34.7-43.7c-0.2-28.6,16.6-46.2,36.4-46.2c12.4,0,20.8,6.2,24.5,13.2h0.3v-51.4h14.7V352.2z M222.1,427.4
		c0-2.2-0.2-4.4-0.7-6.6c-2.2-10-10.2-18.1-21.3-18.1c-15.3,0-24.3,14.2-24.3,33.2c0,17.4,8.1,31.8,24,31.8
		c9.9,0,18.9-6.9,21.6-18.7c0.5-2.2,0.7-4.5,0.7-6.8V427.4z"/>
	<path class="st2" d="M263.4,392.4l17.8,50.8c1.9,5.7,3.9,12.4,5.2,17.6h0.3c1.5-5.2,3.2-11.7,5.2-18l16.1-50.4h15.6l-22.1,61.3
		c-10.6,29.5-17.8,44.6-27.8,53.9c-7.2,6.8-14.4,9.4-18.1,10.1l-3.7-13.1c4.8-1.7,9.2-4.3,12.9-7.6c5.4-4.8,9.7-10.7,12.4-17.4
		c0.6-1.2,1-2.4,1.2-3.7c-0.1-1.4-0.5-2.8-1-4.1l-30-79.3L263.4,392.4z"/>
	<path class="st2" d="M341.4,392.4l15.9,48.4c2.7,7.8,4.9,14.9,6.5,22h0.5c1.9-7.1,4.2-14.2,6.9-22l15.8-48.4h15.4l-31.9,86h-14.1
		l-30.9-86H341.4z"/>
	<path class="st2" d="M419.5,438.3c0.3,21.2,13.1,29.9,27.8,29.9c10.6,0,16.9-2,22.5-4.5l2.5,11.2c-5.2,2.5-14.1,5.3-27,5.3
		c-25,0-39.9-17.4-39.9-43.4s14.4-46.4,38.1-46.4c26.5,0,33.5,24.7,33.5,40.6c0,2.4-0.2,4.9-0.5,7.3H419.5z M462.8,427.1
		c0.2-10-3.9-25.4-20.5-25.4c-14.9,0-21.5,14.6-22.6,25.4H462.8z"/>
	<path class="st2" d="M491.9,419.2c0-10.1-0.2-18.8-0.7-26.8h12.9l0.5,16.9h0.7c3.7-11.6,12.6-18.9,22.5-18.9c1.4,0,2.8,0.2,4.2,0.6
		v14.8c-1.6-0.4-3.3-0.6-5-0.5c-10.4,0-17.8,8.4-19.8,20.1c-0.4,2.4-0.6,4.8-0.7,7.3v45.9h-14.6V419.2z"/>
	<path class="st2" d="M541.4,462.5c5.8,3.8,12.5,6,19.5,6.2c10.7,0,15.8-5.7,15.8-12.8c0-7.5-4.2-11.5-15.1-15.8
		c-14.6-5.5-21.5-14-21.5-24.4c0-13.9,10.6-25.2,28-25.2c7-0.1,13.9,1.8,19.9,5.3l-3.7,11.4c-4.9-3.2-10.7-5-16.6-5
		c-8.7,0-13.6,5.3-13.6,11.7c0,7.1,4.9,10.3,15.4,14.6c14.1,5.7,21.3,13.2,21.3,26c0,15.1-11.1,25.8-30.3,25.8
		c-8.9,0-17.1-2.3-22.8-5.9L541.4,462.5z"/>
	<path class="st2" d="M614.7,438.3c0.3,21.2,13.1,29.9,27.8,29.9c10.6,0,16.9-2,22.5-4.5l2.5,11.2c-5.2,2.5-14.1,5.3-27,5.3
		c-25,0-39.9-17.4-39.9-43.4s14.4-46.4,38.1-46.4c26.5,0,33.5,24.7,33.5,40.5c0,2.4-0.2,4.9-0.5,7.3h-57V438.3z M658,427.1
		c0.2-10-3.9-25.4-20.5-25.4c-14.9,0-21.5,14.6-22.7,25.4H658z"/>
</g>
<path class="st3" d="M371.8,626.8c0.3-0.3,0.6-0.6,0.9-0.9h-0.3C372.3,626.2,372,626.5,371.8,626.8z"/>
<polyline class="st4" points="335.8,57.9 342.1,54.3 348.5,57.9 348.5,65.2 342.1,68.8 335.8,65.2 335.8,57.9 "/>
<polyline class="st4" points="284.2,113.7 288.8,111.1 293.3,113.7 293.3,118.9 288.8,121.5 284.2,118.9 284.2,113.7 "/>
<polyline class="st4" points="333.8,172.2 340.1,168.6 346.5,172.2 346.5,179.5 340.1,183.1 333.8,179.5 333.8,172.2 "/>
<polyline class="st5" points="397.8,203.2 404.1,199.6 410.5,203.2 410.5,210.5 404.1,214.1 397.8,210.5 397.8,203.2 "/>
<polyline class="st4" points="447.1,90.4 453.4,86.8 459.8,90.4 459.8,97.7 453.4,101.3 447.1,97.7 447.1,90.4 "/>
<polyline class="st4" points="425.6,166.1 432,162.6 438.3,166.2 438.3,173.5 432,177 425.6,173.4 425.6,166.1 "/>
<polygon class="st6" points="338.7,236.6 338.7,229.3 332.5,225.7 326.1,229.3 326.1,236.6 332.5,240.2 "/>
<polyline class="st4" points="128.8,212.2 135.1,208.6 141.4,212.2 141.4,219.5 135.1,223.1 128.8,219.5 128.8,212.2 "/>
<polyline class="st4" points="240,244.7 246.4,241.1 252.7,244.7 252.7,252 246.4,255.6 240,252 240,244.7 "/>
<polyline class="st7" points="475.1,289.3 481.5,285.7 487.8,289.3 487.8,296.6 481.5,300.2 475.1,296.6 475.1,289.3 "/>
<polyline class="st4" points="103.1,516 109.4,512.4 115.8,516 115.8,523.3 109.4,526.9 103.1,523.3 103.1,516 "/>
<polyline class="st8" points="143,541.2 153.3,535.4 163.5,541.2 163.5,553 153.3,558.8 143,553 143,541.2 "/>
<polyline class="st9" points="221.1,575.4 224.3,573.6 227.6,575.4 227.6,579.1 224.3,580.9 221.1,579.1 221.1,575.4 "/>
<polyline class="st4" points="214.9,522.2 221.2,518.7 227.6,522.3 227.6,529.6 221.2,533.1 214.9,529.5 214.9,522.2 "/>
<polyline class="st4" points="44.3,579.8 47.5,578 50.6,579.8 50.6,583.4 47.5,585.2 44.3,583.4 44.3,579.8 "/>
<polyline class="st10" points="126.5,621 136.7,615.3 146.9,621.1 146.9,632.8 136.7,638.5 126.5,632.8 126.5,621 "/>
<polyline class="st4" points="107.1,560.9 111.5,558.4 115.9,560.9 115.9,566 111.5,568.5 107.1,566 107.1,560.9 "/>
<polyline class="st4" points="35.4,410.1 39.2,408 43.1,410.1 43.1,414.5 39.2,416.7 35.4,414.5 35.4,410.1 "/>
<polyline class="st4" points="45.4,324.2 51.8,320.6 58.1,324.2 58.1,331.5 51.8,335.1 45.4,331.5 45.4,324.2 "/>
<polyline class="st9" points="270.1,216.5 280.3,210.8 290.5,216.6 290.5,228.3 280.3,234.1 270.1,228.3 270.1,216.5 "/>
<polyline class="st4" points="595.2,274.6 600.8,271.4 606.4,274.6 606.4,281.1 600.8,284.3 595.2,281.1 595.2,274.6 "/>
<polyline class="st11" points="312.6,283 323,277.1 333.4,283 333.4,295 323,300.8 312.6,294.9 312.6,283 "/>
<polyline class="st4" points="468.6,260.6 474.9,257 481.3,260.6 481.3,267.9 474.9,271.5 468.6,267.9 468.6,260.6 "/>
<polyline class="st4" points="295.6,524.5 301.9,521 308.3,524.6 308.3,531.9 301.9,535.4 295.6,531.8 295.6,524.5 "/>
<polyline class="st11" points="345.5,571.2 349.7,568.8 353.9,571.2 353.9,576.1 349.7,578.4 345.5,576 345.5,571.2 "/>
<polyline class="st4" points="409.5,602.2 413.7,599.8 418,602.2 418,607.1 413.7,609.5 409.5,607 409.5,602.2 "/>
<polyline class="st4" points="398,509.1 405.1,505.1 412.4,509.2 412.4,517.5 405.1,521.5 398,517.4 398,509.1 "/>
<polyline class="st4" points="441.9,530.5 451.9,524.8 461.8,530.5 461.8,541.9 451.9,547.5 441.9,541.9 441.9,530.5 "/>
<polyline class="st4" points="545.1,313 551.4,309.4 557.8,313 557.8,320.3 551.4,323.9 545.1,320.3 545.1,313 "/>
<polyline class="st4" points="656.7,352.4 667.1,346.5 677.5,352.4 677.5,364.4 667.1,370.3 656.7,364.4 656.7,352.4 "/>
<polyline class="st4" points="499,161.4 503.9,158.6 508.8,161.4 508.8,167 503.9,169.8 499,167 499,161.4 "/>
<polyline class="st7" points="448.3,223.9 454.7,220.3 461,223.9 461,231.2 454.7,234.8 448.3,231.2 448.3,223.9 "/>
<polyline class="st4" points="567.7,167.6 574.1,164 580.4,167.6 580.4,174.9 574.1,178.5 567.7,174.9 567.7,167.6 "/>
<polyline class="st4" points="520,220.1 524.3,217.7 528.7,220.1 528.7,225.1 524.3,227.6 520,225.1 520,220.1 "/>
<polyline class="st4" points="505.4,528.6 511.8,525.1 518.1,528.7 518.1,536 511.8,539.5 505.4,535.9 505.4,528.6 "/>
<polyline class="st4" points="475.6,563.4 483.4,559 491.1,563.4 491.1,572.3 483.4,576.6 475.6,572.3 475.6,563.4 "/>
<polyline class="st9" points="638,527 644.4,523.4 650.7,527 650.7,534.3 644.4,537.9 638,534.3 638,527 "/>
<polyline class="st4" points="261.9,665 268.2,661.4 274.6,665 274.6,672.3 268.2,675.9 261.9,672.3 261.9,665 "/>
<polyline class="st9" points="375.5,701.6 379.5,699.3 383.5,701.6 383.5,706.2 379.5,708.4 375.5,706.1 375.5,701.6 "/>
<polyline class="st11" points="189.2,663.9 195.5,660.3 201.9,663.9 201.9,671.2 195.5,674.8 189.2,671.2 189.2,663.9 "/>
<polyline class="st8" points="243.2,719.1 253.5,713.3 263.8,719.2 263.8,731 253.5,736.8 243.2,730.9 243.2,719.1 "/>
<polyline class="st11" points="309.7,736.8 320,731 330.3,736.9 330.3,748.7 320,754.5 309.7,748.6 309.7,736.8 "/>
<polyline class="st4" points="513.8,593.8 520.1,590.2 526.5,593.8 526.5,601.1 520.1,604.7 513.8,601.1 513.8,593.8 "/>
<polyline class="st4" points="466.4,658.8 470.4,656.6 474.3,658.8 474.3,663.3 470.4,665.6 466.4,663.3 466.4,658.8 "/>
<polyline class="st4" points="638.4,628 642.8,625.5 647.2,628 647.2,633.1 642.8,635.6 638.4,633.1 638.4,628 "/>
<polyline class="st5" points="511.8,187 518.1,183.4 524.5,187 524.5,194.3 518.1,197.9 511.8,194.3 511.8,187 "/>
<polyline class="st4" points="495.4,325.4 501.8,321.8 508.1,325.4 508.1,332.7 501.8,336.3 495.4,332.7 495.4,325.4 "/>
<polyline class="st4" points="388.4,299.9 391.5,298.1 394.7,299.9 394.7,303.5 391.5,305.3 388.4,303.5 388.4,299.9 "/>
<polyline class="st4" points="626.1,561.2 632.5,557.7 638.8,561.3 638.8,568.6 632.5,572.1 626.1,568.5 626.1,561.2 "/>
<polyline class="st8" points="473.8,608.8 485.1,602.4 496.5,608.9 496.5,622 485.1,628.3 473.8,621.9 473.8,608.8 "/>
<polyline class="st4" points="666.6,243.3 672.9,239.7 679.3,243.3 679.3,250.6 672.9,254.2 666.6,250.6 666.6,243.3 "/>
<polyline class="st4" points="676.7,283.1 687.5,277 698.3,283.2 698.3,295.6 687.5,301.7 676.7,295.6 676.7,283.1 "/>
<polygon class="st5" points="299.8,158 299.8,145.9 289.5,140.1 279.1,145.9 279.1,158 289.5,163.9 "/>
<polygon class="st5" points="356.1,160.9 356.1,164.5 359.2,166.3 362.3,164.5 362.3,160.9 359.2,159.1 "/>
<polygon class="st12" points="438.3,197.9 438.3,194.2 435.1,192.3 431.9,194.2 431.9,197.9 435.1,199.8 "/>
<polygon class="st5" points="416.3,91.8 416.3,99.1 422.6,102.7 428.8,99.1 428.8,91.8 422.6,88.2 "/>
<polygon class="st13" points="354.7,95.1 354.7,87.8 348.5,84.2 342.1,87.8 342.1,95.1 348.5,98.7 "/>
<polygon class="st14" points="351.1,126.6 362,132.8 372.7,126.6 372.7,114.1 362,108 351.1,114.1 "/>
<polygon class="st14" points="242.3,220.9 242.3,213.6 236.1,210.1 229.8,213.6 229.8,220.9 236.1,224.5 "/>
<polygon class="st14" points="399.9,171.7 399.9,166.9 395.8,164.5 391.5,166.9 391.5,171.7 395.8,174.1 "/>
<polygon class="st14" points="317.7,159.9 317.7,154.5 313.1,151.8 308.4,154.5 308.4,159.9 313.1,162.6 "/>
<polygon class="st13" points="332.4,146.8 338.7,150.4 344.9,146.8 344.9,139.5 338.7,135.9 332.4,139.5 "/>
<polygon class="st13" points="374.2,201.2 374.2,196.5 370.1,194.1 366,196.5 366,201.2 370.1,203.6 "/>
<polygon class="st9" points="381,64.1 381,56.8 374.9,53.2 368.5,56.8 368.5,64.1 374.9,67.7 "/>
<polygon class="st15" points="425.2,84.6 425.2,77.3 419,73.7 412.7,77.3 412.7,84.6 419,88.2 "/>
<polygon class="st11" points="295.9,197.8 302.2,201.4 308.4,197.8 308.4,190.5 302.2,186.9 295.9,190.5 "/>
<polygon class="st15" points="431.9,337.4 431.9,330.1 425.7,326.5 419.4,330.1 419.4,337.4 425.7,341 "/>
<polygon class="st9" points="329.7,139.6 329.7,132.3 323.5,128.7 317.2,132.3 317.2,139.6 323.5,143.2 "/>
<polygon class="st11" points="75.8,278 75.8,289 85.3,294.4 94.9,289 94.9,278 85.3,272.6 "/>
<polygon class="st13" points="117.8,324.8 117.8,317.5 111.5,313.9 105.1,317.4 105.1,324.7 111.5,328.4 "/>
<polygon class="st9" points="178.1,276.8 178.1,267.3 169.8,262.6 161.6,267.2 161.6,276.7 169.8,281.4 "/>
<polygon class="st9" points="184.2,202.8 184.2,190.9 174.1,185.1 163.8,190.9 163.8,202.8 174.1,208.6 "/>
<polygon class="st9" points="83.1,303 83.1,306.9 86.5,308.8 89.8,306.9 89.8,303 86.5,301.1 "/>
<polygon class="st12" points="151.4,311.1 151.4,315.6 155.3,317.9 159.1,315.6 159.1,311.1 155.3,308.9 "/>
<polygon class="st5" points="221.8,253.4 221.8,246.1 215.6,242.5 209.2,246.1 209.2,253.4 215.6,257 "/>
<polygon class="st14" points="141.4,251.2 141.4,247.5 138.3,245.8 135.1,247.5 135.1,251.2 138.3,253 "/>
<polygon class="st6" points="259,283.5 259,276.2 252.8,272.6 246.4,276.2 246.4,283.5 252.8,287.1 "/>
<polygon class="st9" points="48.7,270.7 48.7,275.4 52.8,277.7 56.8,275.4 56.8,270.7 52.8,268.4 "/>
<polygon class="st16" points="221.5,282.4 209.4,275.4 197,282.4 197,296.7 209.4,303.7 221.5,296.7 "/>
<polygon class="st14" points="141.4,302.1 141.4,292.8 133.4,288.2 125.3,292.8 125.3,302.1 133.4,306.8 "/>
<polygon class="st14" points="194.6,334.8 194.6,327.5 188.4,324 182.1,327.5 182.1,334.8 188.4,338.4 "/>
<polygon class="st11" points="174,220.4 174,217.2 171.3,215.6 168.5,217.2 168.5,220.4 171.3,222 "/>
<polygon class="st15" points="182.6,235.2 182.6,240.1 186.9,242.5 191,240.1 191,235.2 186.9,232.8 "/>
<polygon class="st15" points="79.6,240.3 79.6,250.7 88.6,255.8 97.4,250.7 97.4,240.3 88.6,235.2 "/>
<polygon class="st11" points="116.5,272.1 116.5,268.4 113.4,266.6 110.1,268.4 110.1,272.1 113.4,274 "/>
<polygon class="st5" points="83.2,569.7 83.2,565.5 79.7,563.4 76.1,565.5 76.1,569.7 79.7,571.7 "/>
<polygon class="st5" points="44.7,442.4 44.7,448.5 50,451.6 55.2,448.5 55.2,442.4 50,439.4 "/>
<polygon class="st5" points="164.9,643.2 164.9,647.1 168.3,649 171.6,647.1 171.6,643.2 168.3,641.3 "/>
<polygon class="st14" points="221.1,680.7 221.1,684.3 224.3,686.2 227.4,684.3 227.4,680.7 224.3,678.9 "/>
<polygon class="st9" points="37.5,538 37.5,547.8 46.1,552.6 54.4,547.8 54.4,538 46.1,533.1 "/>
<polygon class="st11" points="66.2,593.7 66.2,605.1 76.1,610.8 85.9,605.1 85.9,593.7 76.1,588 "/>
<polygon class="st14" points="50,382.5 50,377.2 45.5,374.5 40.8,377.2 40.8,382.5 45.5,385.2 "/>
<polygon class="st5" points="44.5,486.6 44.5,482.9 41.4,481.1 38.1,482.9 38.1,486.6 41.4,488.5 "/>
<polygon class="st5" points="231.2,160 231.2,154.5 226.6,151.8 221.8,154.5 221.8,160 226.6,162.7 "/>
<polygon class="st8" points="85.6,521.2 85.6,509.8 75.9,504.2 66,509.8 66,521.2 75.9,526.9 "/>
<polygon class="st5" points="179.1,534 179.1,538.8 183.3,541.2 187.4,538.8 187.4,534 183.3,531.7 "/>
<polygon class="st5" points="239.6,573.2 239.6,580.5 245.9,584.1 252.2,580.5 252.2,573.2 245.9,569.7 "/>
<polygon class="st9" points="110.5,602.2 110.5,607.1 114.9,609.6 119.1,607.1 119.1,602.2 114.9,599.7 "/>
<polygon class="st14" points="195.8,545.4 195.8,556.7 205.6,562.3 215.2,556.7 215.2,545.4 205.6,539.9 "/>
<polygon class="st14" points="139.8,573 139.8,580.3 146.1,583.9 152.3,580.3 152.3,573 146.1,569.4 "/>
<polygon class="st14" points="183.4,522.6 183.4,517.8 179.4,515.5 175.3,517.8 175.3,522.6 179.4,524.9 "/>
<polygon class="st14" points="307.1,588.4 307.1,581.2 300.9,577.6 294.6,581.2 294.6,588.4 300.9,592 "/>
<polygon class="st9" points="141.4,521.8 141.4,517.6 137.9,515.5 134.2,517.6 134.2,521.8 137.9,523.8 "/>
<polygon class="st9" points="199.7,633.4 199.7,638.7 204.3,641.4 208.9,638.7 208.9,633.4 204.3,630.7 "/>
<polygon class="st5" points="397.8,233.1 387,226.9 375.9,233.1 375.9,245.9 387,252.2 397.8,245.9 "/>
<polygon class="st5" points="400.1,271.8 406.5,275.4 412.7,271.8 412.7,264.5 406.5,260.9 400.1,264.5 "/>
<polygon class="st12" points="294.7,273.6 297.9,275.4 301,273.6 301,270 297.9,268.2 294.7,270 "/>
<polygon class="st14" points="394.6,329.2 382.6,322.3 370.3,329.2 370.3,343.4 382.6,350.3 394.6,343.4 "/>
<polygon class="st5" points="345.5,346.9 345.5,339.6 339.3,336 333,339.6 333,346.9 339.3,350.5 "/>
<polygon class="st13" points="362.3,283.5 356.1,279.9 349.8,283.5 349.8,290.8 356.1,294.4 362.3,290.8 "/>
<polygon class="st15" points="453.1,291.1 446.9,287.6 440.5,291.1 440.5,298.5 446.9,302.1 453.1,298.5 "/>
<polygon class="st11" points="284.4,326.7 284.4,329.6 286.9,331 289.3,329.6 289.3,326.7 286.9,325.3 "/>
<polygon class="st8" points="248.6,316.2 248.6,306.3 240.1,301.4 231.5,306.3 231.5,316.2 240.1,321.1 "/>
<polygon class="st11" points="271.5,566 271.5,569.7 274.6,571.5 277.7,569.7 277.7,566 274.6,564.2 "/>
<polygon class="st5" points="365.6,562.3 365.6,566.7 369.5,568.9 373.2,566.7 373.2,562.3 369.5,560.1 "/>
<polygon class="st5" points="448.2,612.2 448.2,602.8 440.3,598.2 432.1,602.8 432.1,612.2 440.3,616.8 "/>
<polygon class="st14" points="375.9,514.7 375.9,509.9 371.9,507.6 367.8,509.9 367.8,514.7 371.9,517 "/>
<polygon class="st17" points="233,626 233,641 246,648.5 258.8,641 258.8,626 246,618.7 "/>
<polygon class="st11" points="418.2,568.1 418.2,555.6 407.5,549.4 396.6,555.6 396.6,568.1 407.5,574.3 "/>
<polygon class="st9" points="323,555.2 323,547.9 316.8,544.3 310.4,547.9 310.4,555.2 316.8,558.8 "/>
<polygon class="st6" points="354.5,542.2 354.5,534.9 348.3,531.3 342,534.9 342,542.2 348.3,545.8 "/>
<polygon class="st14" points="375.6,593.1 375.6,600.4 381.9,604 388.1,600.4 388.1,593.1 381.9,589.5 "/>
<polygon class="st5" points="625.6,346.8 625.6,354.1 631.9,357.7 638.1,354.1 638.1,346.8 631.9,343.3 "/>
<polygon class="st5" points="454.8,324.2 454.8,331.5 461.1,335.1 467.3,331.5 467.3,324.2 461.1,320.6 "/>
<polygon class="st14" points="551.4,342.9 551.4,350.2 557.8,353.8 564,350.2 564,342.9 557.8,339.3 "/>
<polygon class="st9" points="584.1,309.6 584.1,323.6 596.3,330.6 608.2,323.6 608.2,309.6 596.3,302.6 "/>
<polygon class="st15" points="635.2,328 635.2,331.5 638.3,333.3 641.3,331.5 641.3,328 638.3,326.2 "/>
<polygon class="st5" points="479.4,167.6 479.4,160.3 473.1,156.7 466.8,160.3 466.8,167.6 473.1,171.2 "/>
<polygon class="st14" points="429.3,259 438.4,264.2 447.4,259 447.4,248.5 438.4,243.3 429.3,248.5 "/>
<polygon class="st7" points="463.2,132.5 463.2,117.3 450.3,109.9 437.1,117.3 437.1,132.5 450.3,140.1 "/>
<polygon class="st11" points="538.3,279.7 538.3,264.7 525.6,257.4 512.5,264.7 512.5,279.7 525.6,287.1 "/>
<polygon class="st5" points="651,226.8 651,230.4 654.1,232.1 657.2,230.4 657.2,226.8 654.1,225.1 "/>
<polygon class="st14" points="570,199.8 570,185.5 557.9,178.5 545.5,185.5 545.5,199.8 557.9,206.8 "/>
<polygon class="st5" points="595.6,228.5 595.6,221.2 589.4,217.7 583.1,221.2 583.1,228.5 589.4,232.1 "/>
<polygon class="st14" points="584.7,261.6 584.7,256.4 580.2,253.8 575.7,256.4 575.7,261.6 580.2,264.2 "/>
<polygon class="st14" points="612.3,197.8 612.3,194.3 609.3,192.5 606.2,194.3 606.2,197.8 609.3,199.6 "/>
<polygon class="st13" points="497.2,223.2 497.2,215.9 491,212.4 484.6,215.9 484.6,223.2 491,226.9 "/>
<polygon class="st15" points="549.1,242 549.1,249.3 555.5,252.9 561.7,249.3 561.7,242 555.5,238.4 "/>
<polygon class="st15" points="495,301.5 495,304.1 497.2,305.3 499.4,304.1 499.4,301.5 497.2,300.2 "/>
<polygon class="st5" points="599.5,525.7 599.5,533 605.8,536.6 612,533 612,525.7 605.8,522.1 "/>
<polygon class="st9" points="545.7,531.7 545.7,524.4 539.5,520.8 533.1,524.4 533.1,531.7 539.5,535.3 "/>
<polygon class="st14" points="538.3,550.3 538.3,562 548.5,567.8 558.5,562 558.5,550.3 548.5,544.5 "/>
<polygon class="st14" points="582,530.7 582,523.4 575.8,519.8 569.5,523.4 569.5,530.7 575.8,534.3 "/>
<polygon class="st15" points="454.5,571.1 454.5,565.8 450,563.2 445.4,565.8 445.4,571.1 450,573.7 "/>
<polygon class="st15" points="330,522 333,523.8 336.1,522 336.1,518.5 333,516.8 330,518.5 "/>
<polygon class="st15" points="355.9,627.6 355.9,611.3 342.1,603.4 328,611.3 328,627.6 342.1,635.6 "/>
<polygon class="st5" points="300.9,650.5 300.9,657.8 307.2,661.4 313.4,657.8 313.4,650.5 307.2,646.9 "/>
<polygon class="st5" points="164.1,578.7 164.1,583.5 168.3,585.9 172.4,583.5 172.4,578.7 168.3,576.3 "/>
<polygon class="st5" points="345.1,725.9 345.1,733.2 351.4,736.8 357.6,733.2 357.6,725.9 351.4,722.3 "/>
<polygon class="st14" points="407.4,673.9 407.4,681.2 413.7,684.8 419.9,681.2 419.9,673.9 413.7,670.4 "/>
<polygon class="st14" points="294.6,720.7 294.6,725.4 298.7,727.8 302.8,725.4 302.8,720.7 298.7,718.3 "/>
<polygon class="st14" points="318.8,777.1 318.8,783.1 324,786 329,783.1 329,777.1 324,774.2 "/>
<polygon class="st9" points="300,679.1 300,675.3 296.8,673.5 293.6,675.3 293.6,679.1 296.8,680.9 "/>
<polygon class="st14" points="201.9,598.5 201.9,605.8 208.2,609.5 214.4,605.8 214.4,598.5 208.2,595 "/>
<polygon class="st5" points="351.4,668.2 351.4,675.5 357.7,679.1 363.9,675.5 363.9,668.2 357.7,664.6 "/>
<polygon class="st5" points="587.8,571.2 587.8,566.9 584.1,564.7 580.3,566.9 580.3,571.2 584.1,573.4 "/>
<polygon class="st5" points="430.1,701.5 430.1,715.3 442.1,722.1 453.9,715.3 453.9,701.5 442.1,694.7 "/>
<polygon class="st5" points="586.3,634.5 586.3,646.9 597.1,653 607.6,646.9 607.6,634.5 597.1,628.3 "/>
<polygon class="st14" points="628.5,598.6 628.5,603.2 632.5,605.5 636.4,603.2 636.4,598.6 632.5,596.3 "/>
<polygon class="st11" points="544.5,644.4 544.5,648.9 548.4,651.1 552.2,648.9 552.2,644.4 548.4,642.2 "/>
<polygon class="st11" points="480.1,690.5 480.1,696.4 485.2,699.3 490.2,696.4 490.2,690.5 485.2,687.6 "/>
<polygon class="st14" points="522.7,679.9 522.7,684.2 526.4,686.3 530.1,684.2 530.1,679.9 526.4,677.8 "/>
<polygon class="st14" points="546.5,592.7 546.5,600 552.8,603.6 559,600 559,592.7 552.8,589.1 "/>
<polygon class="st15" points="597,598.8 597,591.5 590.8,587.9 584.4,591.5 584.4,598.8 590.8,602.4 "/>
<polygon class="st9" points="440.1,651.2 440.1,647.6 437,645.8 433.8,647.6 433.8,651.2 437,653 "/>
<polygon class="st15" points="493.2,650.2 493.2,659.3 501.1,663.8 508.8,659.3 508.8,650.2 501.1,645.8 "/>
<polygon class="st17" points="669,509.4 669,517 675.7,520.8 682.2,517 682.2,509.4 675.7,505.6 "/>
<polygon class="st15" points="700.4,469.7 700.4,464.5 696,461.9 691.4,464.5 691.4,469.7 696,472.3 "/>
<polygon class="st5" points="632.8,255.4 632.8,259.4 636.3,261.4 639.7,259.4 639.7,255.4 636.3,253.5 "/>
<polygon class="st15" points="631.8,227.1 631.8,219.8 625.6,216.2 619.3,219.8 619.3,227.1 625.6,230.7 "/>
<polygon class="st5" points="691.7,336.5 691.7,332.9 688.6,331.2 685.6,332.9 685.6,336.5 688.6,338.2 "/>
<polygon class="st15" points="647.8,289.9 647.8,297.2 654.2,300.8 660.4,297.2 660.4,289.9 654.2,286.4 "/>
<polyline class="st4" points="691.8,571.6 696.3,569 700.8,571.6 700.8,576.8 696.3,579.4 691.8,576.8 691.8,571.6 "/>
<polyline class="st10" points="691.4,395.4 695.9,392.9 700.4,395.5 700.4,400.7 695.9,403.2 691.4,400.6 691.4,395.4 "/>
<path class="st2" d="M365.4,799.2l4.5,4.5c1,1,1.9,1.9,2.7,2.9h0.1c-0.4-1.2-0.7-2.5-1-3.8l-1.4-6.3l1.6-0.9l4.7,4.3
	c1.1,1,2.1,2,2.9,2.9h0.1c-0.5-1.3-0.9-2.6-1.2-3.9l-1.6-6.1l1.9-1.1l2.7,12.4l-1.7,1l-4.5-4.1c-1-1-2-1.8-2.9-2.9l0,0
	c0.4,1.3,0.8,2.6,1.1,4l1.2,6l-1.7,1l-9.2-8.6L365.4,799.2z"/>
<path class="st2" d="M381.6,789.8l4.5,4.5c1,1,1.9,1.9,2.7,2.9h0.1c-0.4-1.2-0.7-2.5-1-3.8l-1.4-6.4l1.6-0.9l4.7,4.3
	c1.1,1,2.1,2,2.9,2.9h0.1c-0.5-1.3-0.9-2.6-1.2-3.9l-1.5-6.2l1.9-1.1l2.7,12.4l-1.7,1l-4.5-4.1c-1-1-2-1.8-2.9-2.9l0,0
	c0.4,1.3,0.8,2.6,1.1,4l1.2,6l-1.7,1l-9.3-8.5L381.6,789.8z"/>
<path class="st2" d="M397.8,780.4l4.5,4.5c1,1,1.9,1.9,2.7,2.9h0.1c-0.4-1.2-0.7-2.5-1-3.8l-1.4-6.3l1.6-0.9l4.7,4.3
	c1.1,1,2.1,2,2.9,2.9h0.1c-0.5-1.3-0.9-2.6-1.2-3.9l-1.6-6.1l1.9-1.2l2.7,12.4l-1.7,1l-4.5-4.1c-1-1-2-1.8-2.9-2.9l0,0
	c0.4,1.3,0.8,2.6,1.1,4l1.2,6l-1.7,1l-9.2-8.6L397.8,780.4z"/>
<path class="st2" d="M417,781.7c-0.4-0.7-0.1-1.6,0.6-2s1.6-0.1,2,0.6c0.4,0.7,0.1,1.6-0.6,2C418.4,782.7,417.4,782.5,417,781.7
	L417,781.7z"/>
<path class="st2" d="M418.4,772.7c-0.7-1.2-1.4-2.3-2-3.2l1.7-1l1.2,2h0.1c-0.4-1.5,0.2-3.2,1.6-4c0.2-0.1,0.4-0.2,0.6-0.2l1,1.8
	c-0.2,0.1-0.5,0.2-0.7,0.3c-1.3,0.8-1.8,2.5-1.1,3.9c0.1,0.3,0.3,0.6,0.4,0.9l3.2,5.6l-1.9,1.1L418.4,772.7z"/>
<path class="st2" d="M428.3,774c1,0,2.1-0.2,3-0.7c1.4-0.8,1.6-1.9,1.1-2.7s-1.4-1.1-3.1-0.8c-2.3,0.4-3.8-0.1-4.5-1.3
	c-1-1.7-0.4-3.9,1.8-5.2c0.9-0.5,1.9-0.8,3-0.8l0.3,1.7c-0.9,0-1.7,0.2-2.5,0.6c-0.9,0.3-1.3,1.4-1,2.3c0,0.1,0,0.1,0.1,0.2
	c0.5,0.9,1.4,0.9,3,0.6c2.2-0.4,3.7,0,4.6,1.5c1.1,1.8,0.4,4-2.1,5.4c-1,0.6-2.2,1-3.4,1L428.3,774z"/>
<path class="st2" d="M432.7,756l1.8,3l2.7-1.6l0.8,1.4l-2.7,1.6l3.3,5.6c0.8,1.3,1.5,1.8,2.6,1.2c0.4-0.2,0.7-0.5,1-0.8l0.9,1.4
	c-0.4,0.5-0.9,0.9-1.5,1.2c-0.7,0.5-1.7,0.6-2.5,0.4c-1-0.5-1.9-1.3-2.3-2.3l-3.3-5.7l-1.6,0.9l-0.8-1.4l1.6-1l-1.5-2.5L432.7,756z"
	/>
<path class="st2" d="M452.5,758.7c0.6,1.1,1.2,2,1.8,2.8l-1.7,1l-1.1-1.6l0,0c0,1.7-0.9,3.2-2.3,4c-1.6,1-4.1,1.2-6.3-2.5l-3.5-6.1
	l1.9-1.1l3.4,5.8c1.1,2,2.5,3,4.3,2c1.1-0.7,1.7-1.9,1.5-3.2c-0.1-0.4-0.2-0.7-0.4-1.1l-3.7-6.4l1.9-1.1L452.5,758.7z"/>
<path class="st2" d="M457.4,739.2l7.4,12.6c0.5,0.9,1.2,2,1.7,2.7l-1.7,1l-1.1-1.8l0,0c0.1,1.7-0.8,3.3-2.4,4.1
	c-2.5,1.5-5.7,0.5-7.6-2.7c-2-3.5-1.1-6.9,1.4-8.3c1.2-0.8,2.8-0.9,4.1-0.2l0,0l-3.6-6.2L457.4,739.2z M460.8,749.4
	c-0.2-0.3-0.3-0.5-0.5-0.8c-1-1.1-2.7-1.4-4-0.6c-2,1.1-2.1,3.5-0.8,5.9c1.2,2.1,3.3,3.3,5.3,2.1c1.3-0.8,2-2.4,1.5-3.9
	c-0.1-0.3-0.2-0.6-0.4-0.9L460.8,749.4z"/>
<path class="st2" d="M463.8,738c0.4,0.6,0.2,1.5-0.5,1.9c-0.6,0.4-1.5,0.2-1.9-0.5l0,0c-0.4-0.6-0.2-1.4,0.4-1.8h0.1
	c0.6-0.4,1.4-0.2,1.8,0.4C463.7,737.9,463.8,738,463.8,738z M469.5,752.6l-6.1-10.5l1.9-1.1l6.1,10.5L469.5,752.6z"/>
<path class="st2" d="M480.9,738.9c2.2,3.9,0.5,7.1-2,8.6c-2.8,1.6-6.2,0.8-8.1-2.5c-2-3.5-0.9-6.9,2-8.6S479,735.7,480.9,738.9z
	 M472.7,743.8c1.3,2.3,3.7,3.2,5.5,2.2s2.2-3.6,0.8-5.9c-1-1.8-3.2-3.5-5.5-2.2S471.5,741.8,472.7,743.8L472.7,743.8z"/>
<path class="st2" d="M484.8,742.2c-0.4-0.7-0.1-1.6,0.6-2s1.6-0.1,2,0.6c0.4,0.7,0.1,1.6-0.6,2S485.2,743,484.8,742.2
	C484.8,742.3,484.8,742.3,484.8,742.2z"/>
<path class="st2" d="M497.6,735.8c-0.7,1-1.6,1.8-2.6,2.3c-3.1,1.8-6.5,0.9-8.3-2.3c-1.8-2.8-1-6.6,1.8-8.5c0.2-0.1,0.4-0.2,0.6-0.3
	c0.9-0.5,1.9-0.9,3-1l0.4,1.7c-0.9,0-1.7,0.3-2.5,0.8c-2.4,1.4-2.7,3.9-1.4,6.1c1.4,2.4,3.8,3,5.9,1.8c0.8-0.5,1.5-1.1,2-1.9
	L497.6,735.8z"/>
<path class="st2" d="M506.2,724.1c2.2,3.9,0.5,7.1-2,8.6c-2.8,1.7-6.2,0.8-8.1-2.5c-2-3.5-0.9-6.9,2-8.6S504.4,720.9,506.2,724.1z
	 M498,729c1.3,2.3,3.7,3.2,5.5,2.2s2.2-3.5,0.8-5.9c-1-1.8-3.2-3.5-5.5-2.2S496.9,727.1,498,729z"/>
<path class="st2" d="M507.3,720.4c-0.6-1.1-1.2-2-1.7-2.8l1.7-1l1.1,1.6h0.1c-0.1-1.6,0.8-3.1,2.2-3.8c1.3-0.8,3-0.6,4.2,0.4l0,0
	c0-0.7,0.1-1.4,0.4-2c0.4-0.9,1-1.6,1.9-2.1c1.4-0.8,4-1.1,6.1,2.5l3.6,6.2l-1.9,1.1l-3.4-5.9c-1.2-2-2.6-2.8-4.2-1.9
	c-1,0.6-1.5,1.8-1.2,3c0.1,0.4,0.2,0.7,0.4,1l3.8,6.5l-1.9,1.1l-3.6-6.2c-1-1.7-2.4-2.5-3.9-1.6c-1.1,0.7-1.6,2-1.2,3.3
	c0.1,0.4,0.2,0.7,0.4,1l3.7,6.3l-1.9,1L507.3,720.4z"/>
<path class="st18" d="M736.4,638.4V214.1l-29.3-16.9L429.3,36.8L369,2l-60.3,34.8L30.9,197.2L1.6,214.1v424.3l29.3,16.9l281.3,162.4
	l56.9,32.8l56.9-32.8l281.3-162.4L736.4,638.4z M30.9,622.5V232.1L369,36.8l0,0L707.1,232v390.4L369,817.7L30.9,622.5z"/>
</svg>
