<svg xmlns="http://www.w3.org/2000/svg" xmlns:xlink="http://www.w3.org/1999/xlink" viewBox="0 0 7591.55 6084.32"><defs><style>.cls-1{fill:none;stroke:#4d4d4d;stroke-width:120px;}.cls-1,.cls-3,.cls-4{stroke-miterlimit:10;}.cls-2{clip-path:url(#clip-path);}.cls-3,.cls-4{stroke:#000;}.cls-4{fill:#4d4d4d;}.cls-5{fill:#c1272d;}.cls-11,.cls-13,.cls-15,.cls-19,.cls-5,.cls-6{opacity:0.6;}.cls-17,.cls-6,.cls-9{fill:#93278f;}.cls-16,.cls-7{fill:#f7931e;}.cls-7{opacity:0.75;}.cls-11,.cls-8{fill:aqua;}.cls-8{opacity:0.5;}.cls-16,.cls-9{opacity:0.8;}.cls-10{fill:#9000f4;}.cls-12{fill:#00a99d;}.cls-12,.cls-14,.cls-17,.cls-18,.cls-20{opacity:0.7;}.cls-13{fill:#f15a24;}.cls-14{fill:#fbb03b;}.cls-15{fill:#ed1e79;}.cls-18{fill:#22b573;}.cls-19{fill:#29abe2;}.cls-20{fill:#f0f;}.cls-21{fill:#ff029e;}.cls-22{fill:#03ffbf;}.cls-23{fill:#53d602;}.cls-24{fill:#01eb01;}.cls-25{fill:#edff01;}.cls-26{fill:#01b644;}.cls-27{fill:#9fff01;}.cls-28{fill:#fe5201;}.cls-29{fill:#f8ae01;}.cls-30{fill:#f4d102;}.cls-31{fill:#02eb00;}.cls-32{fill:#9cff00;}.cls-33{fill:#02d3f7;}.cls-34{fill:#f8af03;}.cls-35{fill:#999;}.cls-36{font-size:175px;font-family:SourceSansPro-Regular, Source Sans Pro;}.cls-37{letter-spacing:-0.01em;}.cls-38{letter-spacing:-0.01em;}</style><clipPath id="clip-path" transform="translate(984 664.95)"><polygon class="cls-1" points="4274.24 3718.43 4274.24 1286.7 2168.29 70.83 62.35 1286.7 62.35 3718.43 2168.29 4934.3 4274.24 3718.43"/></clipPath></defs><g id="Layer_3" data-name="Layer 3"><g class="cls-2"><rect class="cls-3" x="758.63" y="632.45" width="5000" height="5000"/><rect class="cls-4" x="-722.83" y="2981.07" width="6054.46" height="293.93" transform="translate(-271.29 2236.23) rotate(-30)"/><rect class="cls-4" x="-733.99" y="2831.82" width="6054.46" height="74.43" transform="translate(-143.28 2195.95) rotate(-30)"/><rect class="cls-4" x="-422.76" y="3526.02" width="6054.46" height="37.22" transform="translate(-439.38 2442.08) rotate(-30)"/><rect class="cls-4" x="-564.69" y="3229.6" width="6054.46" height="45.88" transform="translate(-312.35 2331.98) rotate(-30)"/><rect class="cls-4" x="-308.61" y="3554.41" width="6054.46" height="375.83" transform="translate(-522.94 2525.64) rotate(-30)"/><rect class="cls-4" x="-686.56" y="3384.44" width="6054.46" height="74.43" transform="translate(-413.24 2293.7) rotate(-30)"/><rect class="cls-4" x="-811.75" y="2238.73" width="6054.46" height="45.88" transform="translate(149.98 2075.7) rotate(-30)"/><rect class="cls-4" x="500.52" y="3860.83" width="4697.88" height="45.88" transform="translate(-576.13 2610.01) rotate(-30)"/><rect class="cls-4" x="972.96" y="3856.36" width="4697.88" height="112.62" transform="translate(-527.28 2850.1) rotate(-30)"/><rect class="cls-4" x="-1142.09" y="2003.43" width="6545.24" height="186" transform="translate(221.23 2011.09) rotate(-30)"/><rect class="cls-4" x="-958.78" y="1683.97" width="6254.15" height="61.8" transform="translate(417.06 1978.85) rotate(-30)"/><rect class="cls-4" x="-1228.43" y="1302.7" width="6254.15" height="128.74" transform="translate(554.84 1797.43) rotate(-30)"/><rect class="cls-4" x="-1386.82" y="1142.28" width="6254.15" height="61.8" transform="translate(630.56 1692.26) rotate(-30)"/><rect class="cls-4" x="-1090.73" y="897.2" width="6254.15" height="30.9" transform="translate(800.5 1805.4) rotate(-30)"/><rect class="cls-5" x="-605.5" y="3670.38" width="4634.57" height="61.8" transform="translate(-637.3 2016.73) rotate(-30)"/><rect class="cls-6" x="302.77" y="3993.05" width="4634.57" height="42.94" transform="translate(-672.24 2512.83) rotate(-30)"/><rect class="cls-7" x="497.25" y="3990.15" width="4634.57" height="42.94" transform="translate(-644.73 2609.68) rotate(-30)"/><rect class="cls-8" x="-692.85" y="1731.05" width="4634.57" height="61.8" transform="translate(320.66 1713.23) rotate(-30)"/><polygon class="cls-9" points="1627.77 2612.92 1563.56 2494.6 1633.93 2379.83 1768.51 2383.39 1832.71 2501.71 1762.34 2616.48 1627.77 2612.92"/><polygon class="cls-10" points="1377.19 2875.27 1344.76 2815.5 1380.3 2757.53 1448.28 2759.33 1480.71 2819.09 1445.16 2877.06 1377.19 2875.27"/><polygon class="cls-11" points="1558.93 2706.58 1516.43 2628.26 1563.01 2552.3 1652.08 2554.66 1694.57 2632.97 1648 2708.93 1558.93 2706.58"/><polygon class="cls-12" points="1978 2870.29 1948.36 2815.65 1980.85 2762.66 2042.98 2764.31 2072.63 2818.94 2040.14 2871.93 1978 2870.29"/><polygon class="cls-13" points="4235.53 2376.27 4171.32 2257.94 4241.69 2143.17 4376.27 2146.73 4440.48 2265.06 4370.11 2379.83 4235.53 2376.27"/><polygon class="cls-14" points="4327.53 1979.55 4295.17 1919.92 4330.64 1862.08 4398.46 1863.87 4430.81 1923.5 4395.35 1981.34 4327.53 1979.55"/><polygon class="cls-15" points="1501.57 3676.45 1444.96 3572.13 1507 3470.95 1625.65 3474.09 1682.25 3578.41 1620.21 3679.59 1501.57 3676.45"/><polygon class="cls-16" points="1449.91 3857.77 1417.48 3798 1453.02 3740.03 1521 3741.83 1553.43 3801.6 1517.88 3859.57 1449.91 3857.77"/><polygon class="cls-17" points="1535.13 3978.15 1470.92 3859.82 1541.29 3745.05 1675.87 3748.61 1740.08 3866.94 1669.71 3981.7 1535.13 3978.15"/><polygon class="cls-18" points="4162.37 3317.05 4110.33 3221.15 4167.36 3128.13 4276.44 3131.01 4328.48 3226.92 4271.45 3319.94 4162.37 3317.05"/><polygon class="cls-11" points="2867 4714.61 2790.36 4573.38 2874.36 4436.38 3035 4440.63 3111.64 4581.87 3027.64 4718.86 2867 4714.61"/><polygon class="cls-18" points="3334.56 4986.32 3295.53 4914.39 3338.31 4844.62 3420.12 4846.78 3459.15 4918.71 3416.37 4988.48 3334.56 4986.32"/><polygon class="cls-14" points="3553.01 5140.4 3520.65 5080.77 3556.11 5022.93 3623.93 5024.72 3656.29 5084.35 3620.83 5142.19 3553.01 5140.4"/><polygon class="cls-19" points="2932.45 5225.64 2844.13 5062.88 2940.92 4905.01 3126.04 4909.91 3214.36 5072.67 3117.56 5230.53 2932.45 5225.64"/><polygon class="cls-11" points="2799.11 5080.1 2756.61 5001.79 2803.18 4925.83 2892.26 4928.18 2934.75 5006.5 2888.18 5082.46 2799.11 5080.1"/><polygon class="cls-12" points="3940.01 3255.82 3910.37 3201.18 3942.86 3148.2 4004.99 3149.84 4034.64 3204.47 4002.15 3257.46 3940.01 3255.82"/><polygon class="cls-20" points="1874.02 4703.35 1831.26 4624.55 1878.12 4548.13 1967.74 4550.5 2010.49 4629.29 1963.63 4705.72 1874.02 4703.35"/><polygon class="cls-15" points="4741.53 3276.04 4660.57 3126.82 4749.3 2982.1 4919.01 2986.59 4999.97 3135.8 4911.23 3280.52 4741.53 3276.04"/><polygon class="cls-16" points="4882.9 2947.1 4837.36 2863.16 4887.27 2781.76 4982.73 2784.28 5028.27 2868.21 4978.36 2949.62 4882.9 2947.1"/><path class="cls-21" d="M5086.64,935.82c-40.46,22.9-81.17,45.38-121.33,68.79q-142,82.76-283.6,166.24-125.64,73.7-251.27,147.4-126.46,74.2-252.92,148.46-125.63,73.72-251.25,147.43-126.45,74.27-252.84,148.64-122.19,71.78-244.46,143.44-132.41,77.73-264.78,155.53L2914.7,2208.28q-126.43,74.28-252.85,148.58-124.76,73.28-249.54,146.46-128.14,75.27-256.23,150.63-125.57,73.82-251.14,147.6-124.7,73.36-249.31,146.84-126.3,74.55-252.43,149.35c-6.73,4-12.89,8.93-19.31,13.42l-73.33-128.37c94.83-54.85,189.8-109.44,284.44-164.62,83.3-48.55,166.21-97.77,249.3-146.67q127.2-74.84,254.41-149.64Q2224.2,2448,2349.61,2374q126.3-74.43,252.61-148.83,122.93-72.41,245.87-144.77,129.73-76.35,259.52-152.64,124.66-73.34,249.31-146.69t249.33-146.68q129-75.79,257.94-151.5,125.58-73.77,251.13-147.55,124.74-73.24,249.53-146.41,127.35-74.67,254.74-149.28t254.71-149.3Q4977,830,5079.58,769.61a70.27,70.27,0,0,1,7.06-3.21Z" transform="translate(984 664.95)"/><path class="cls-22" d="M5086.64,13.83q-93.72,54.27-187.41,108.56-136.08,79.26-272,158.84-124,72.51-248.06,145.13-127.41,74.58-254.78,149.22-121.45,71.14-242.92,142.27-132.54,77.52-265.14,154.92-125.76,73.53-251.46,147.12-129.12,75.55-258.22,151.13-123.16,72.09-246.3,144.2-118.91,69.65-237.82,139.29c-6.19,3.61-12.79,6.53-19.19,9.76-4.79-5-10.3-9.58-14.2-15.23-5.18-7.48-9.18-15.77-13.54-23.8q-21.41-39.48-42.69-79c55.22-32.89,110.24-66.13,165.71-98.59q180.13-105.42,360.62-210.23,123.28-71.94,246.37-144.22,130-76,260-152Q3693.07,666.59,3820.5,592q125.73-73.59,251.42-147.22,124-72.6,248.09-145.13L4581.7,146.57Q4710,71.54,4838.31-3.51q118.06-69.14,236.1-138.32c3.89-2.28,8.14-3.93,12.23-5.88Z" transform="translate(984 664.95)"/><path class="cls-23" d="M3297.82,3159.85c39.63-23.11,79.2-46.34,118.92-69.3,71-41,142.25-81.76,213.21-122.92q127.66-74.09,255-148.67,126.66-73.87,253.3-147.78l258.36-150.76,251.58-146.78q127.48-74.4,255-148.82,91.71-53.51,183.47-107v197Q4933,2405,4779.41,2495.09q-136.68,80.13-273.39,160.18Q4383,2727.44,4260,2799.7q-129,75.71-258,151.41-123.9,72.69-247.82,145.36-129,75.71-257.93,151.49l-110.14,64.7c-1.89-1.71-4.42-3-5.6-5.15Q3339,3233.76,3297.82,3159.85Z" transform="translate(984 664.95)"/><path class="cls-24" d="M2486,1643.22c2.37,26.87-4.17,52.12-14.27,76.64-21.4,52-51.69,98.61-84.93,143.62-46.88,63.46-97.49,123.78-152.91,179.86-54.86,55.52-110,110.89-167,164.12q-79.83,74.48-164.15,144.1c-63.15,52.28-127.29,103.53-193.14,152.32-70.07,51.9-142.65,100.41-214.14,150.39-12.34,8.62-24.92,16.92-37.06,25.81-7.84,5.73-12,3.77-16.59-4.42-29.17-52.07-58.79-103.88-88.27-155.78q-39.37-69.28-78.75-138.57T1196,2242.74c-1.58-2.79-2.37-6-3.52-9.07q20.25-11.88,40.53-23.73,128.1-74.94,256.2-149.89,123.84-72.51,247.65-145.07,128.08-75,256.22-149.85,126.41-73.94,252.84-147.85c55-32,110.16-63.55,165.26-95.3,19.39,33.65,38.56,67.43,58.33,100.85C2474,1630.27,2480.47,1636.46,2486,1643.22Z" transform="translate(984 664.95)"/><path class="cls-25" d="M3013.47,4043.81q-96.31,85.68-192.61,171.37c-12.75,11.35-25.34,22.86-38,34.26-12.07,10.83-12.31,11-22.85-.69q-41.52-46.08-82.68-92.48-64.11-72-128.12-144.2-68.64-77.24-137.31-154.44-64.72-72.81-129.43-145.64-134-150.79-268-301.58c-26.58-29.9-53.32-59.66-79.93-89.53-3.32-3.73-6.24-7.82-10.45-13.12,7-2.58,12.31-4.83,17.78-6.46,41.47-12.38,83.09-24.27,124.46-37q209.64-64.43,419.12-129.31c3.75-1.16,7.4-2.65,11.09-4,28,49,56.12,97.88,84,146.93q80.68,142.08,161.12,284.27,86.38,152.42,172.72,304.84C2947.52,3925.87,2980.42,3984.89,3013.47,4043.81Z" transform="translate(984 664.95)"/><path class="cls-26" d="M3013.47,4043.81c-33-58.92-65.95-117.94-99.2-176.75q-86.19-152.52-172.72-304.84Q2661,3420.08,2580.43,3278c-27.85-49-56-98-84-146.93-2.76-5.17-5.67-10.27-8.26-15.52-7.87-15.95-6.28-20.27,10.69-25.56,26.28-8.2,52.73-15.88,79.11-23.78,71-21.27,142.08-42.16,212.86-64.1,14.28-4.42,24.44-2.1,35.79,7.22,74.06,60.78,148.7,120.86,222.85,181.53,9.88,8.09,18.69,10.76,31.92,7.81,65.3-14.55,130.93-27.59,196.41-41.35,7.15-1.51,14.06-4.15,20,2.57q41.3,73.86,82.67,147.67c1.18,2.1,3.71,3.44,5.6,5.15.82,3.15,1,6.68,2.62,9.34,4.68,7.63,2,12.45-3.67,18.7-50.79,55.66-100.93,111.92-151.78,167.54-7.89,8.63-10.15,16.1-7.55,27.84,19.55,88.21,37.94,176.68,57.47,264.9,2.64,11.92.28,19.47-8.35,27.57q-83.15,78-165.62,156.76c-21.35,20.3-42.32,41-63.68,61.29C3028,4063.31,3027.71,4063.15,3013.47,4043.81Z" transform="translate(984 664.95)"/><path class="cls-27" d="M1118.43,2103.34c-8.93-15.16-18-30.23-26.78-45.49q-78.32-136.59-156.49-273.24c-18.95-33.1-19.22-33.7,14.3-50.24,65.89-32.53,132.15-64.3,198.22-96.46,126.45-61.56,258.27-109.77,390.22-157.8,146.42-53.3,295.94-95,448.95-124.22,73.58-14,147.71-24.16,222.93-21.81a509.58,509.58,0,0,1,52.89,4.78,154.52,154.52,0,0,1,64,23.78L2337,1389.9c-50.67,30.19-101.2,60.63-152.05,90.52q-129.75,76.24-259.8,151.95-125.62,73.5-251.21,147.08-127.31,74.52-254.66,148.94c-72.55,42.24-145.34,84.07-218,126.2C1173.62,2070.68,1146.07,2087.08,1118.43,2103.34Z" transform="translate(984 664.95)"/><path class="cls-28" d="M1310.56,2982.79l73.33,128.37c4.19,8.15,8.07,16.47,12.61,24.41q72.15,126.16,144.47,252.22,86.28,150.87,172.34,301.85c16.6,29.12,16.39,29.15-9.72,49.6-28.37,22.21-56.58,44.64-85,66.74-5.59,4.34-12,7.64-18,11.42-2-2.52-4.48-4.82-6.07-7.6q-70.77-123.27-141.36-246.67-59.3-103.86-118.22-208c-3.24-6.42-6.2-13-9.77-19.24-39.33-68.74-79-137.3-118.09-206.16-36.52-64.28-72.28-129-108.81-193.27q-69.86-122.93-140.42-245.42c-10.37-18.09-21.12-36-31.7-53.93q-13.89-23.49-27.76-47c-3.95-8.2-7.51-16.62-11.92-24.57q-35.67-64.26-71.69-128.34c4.1-2.91,7.84-6.63,12.34-8.61q58.46-25.69,117.17-50.8c15.62-6.7,16.1-6.67,24.6,8.2q81,141.59,161.67,283.33Q1208,2805,1286,2940.42C1294.11,2954.58,1302.36,2968.67,1310.56,2982.79Z" transform="translate(984 664.95)"/><path class="cls-29" d="M926.07,2637.16c10.58,18,21.33,35.84,31.7,53.93q70.34,122.64,140.42,245.42c36.53,64.27,72.29,129,108.81,193.27,39.12,68.86,78.76,137.42,118.09,206.16,3.57,6.24,6.53,12.82,9.78,19.24-3.51,1.52-7.36,2.52-10.45,4.64-28.45,19.53-56.64,39.44-85.15,58.86-30.71,20.93-61.69,41.45-92.55,62.15-12.68-21.39-25.69-42.58-38-64.2-25.89-45.64-51.33-91.53-77-137.27q-86.26-153.54-172.56-307-67.39-120.12-134.45-240.4c-2.55-4.55-4.51-9.43-6.73-14.16q95-34,190.06-68.21C915,2647.06,924.38,2647.5,926.07,2637.16Z" transform="translate(984 664.95)"/><path class="cls-30" d="M1146.72,3480.83c30.86-20.7,61.84-41.22,92.55-62.15,28.51-19.42,56.7-39.33,85.15-58.86,3.09-2.12,6.94-3.12,10.45-4.64q59.09,104,118.21,208,70.49,123.45,141.36,246.67c1.59,2.78,4,5.08,6.07,7.6q-62,78.87-123.91,157.75c-9.67,12.32-19.14,24.8-29.81,38.63-3.5-4.27-6.73-7.2-8.76-10.81q-80.58-143.17-160.9-286.47-63.48-113.28-126.68-226.7C1148.88,3487,1148,3483.83,1146.72,3480.83Z" transform="translate(984 664.95)"/><path class="cls-31" d="M1118.43,2103.34c27.64-16.26,55.19-32.66,82.93-48.75,72.61-42.13,145.4-84,218-126.2q127.47-74.23,254.66-148.94,125.63-73.52,251.21-147.08,129.89-76,259.8-151.95c50.85-29.89,101.38-60.33,152.05-90.52q21.27,37.1,42.55,74.19c-11.19,6.75-22.3,13.65-33.58,20.25q-127.32,74.52-254.7,149-128.21,75-256.39,150-123.9,72.56-247.78,145.18-145.2,84.86-290.55,169.47l-135.86,79.24Z" transform="translate(984 664.95)"/><path class="cls-32" d="M1160.72,2177.17l135.86-79.24q145.29-84.72,290.55-169.47,124-72.45,247.78-145.18,128.17-75,256.39-150,127.35-74.47,254.7-149c11.28-6.6,22.39-13.5,33.59-20.24l31.62,57.88c-55.1,31.75-110.31,63.31-165.26,95.3q-126.55,73.7-252.84,147.85Q1865,1840.05,1736.89,1915q-123.86,72.49-247.65,145.07-128.09,75-256.2,149.89-20.26,11.86-40.53,23.73Z" transform="translate(984 664.95)"/><path class="cls-33" d="M2411.21,1522l-31.62-57.88q-21.3-37.11-42.56-74.2l-10.35-27.26c12.64-12,29.2-13.88,45.11-16.93a470.52,470.52,0,0,1,120.91-7c13.52.92,26.82,4.88,40.22,7.45q21.33,39.52,42.69,79c4.36,8,8.36,16.32,13.54,23.8,3.9,5.65,9.41,10.19,14.2,15.23,1,16.9-5.95,31.53-13.09,46.15-21.31,43.65-49.65,82.56-81.36,119-5.56,6.39-15.14,9.29-22.87,13.79-5.56-6.77-12.08-13-16.49-20.4C2449.77,1589.41,2430.6,1555.63,2411.21,1522Z" transform="translate(984 664.95)"/><path class="cls-34" d="M814.7,2437.25q35.88,64.15,71.69,128.34c4.41,7.95,8,16.37,11.92,24.58-2.36,1.14-4.6,2.72-7.08,3.35-42.82,11-85.76,21.52-128.5,32.86-27.45,7.27-54.61,15.68-81.91,23.58-20.75-35.49-41.75-70.85-62.19-106.52-12.59-22-24.35-44.44-38.17-69.77Z" transform="translate(984 664.95)"/><path class="cls-30" d="M680.82,2650c27.3-7.9,54.46-16.31,81.91-23.58,42.74-11.34,85.68-21.88,128.5-32.86,2.48-.63,4.72-2.21,7.08-3.35q13.88,23.49,27.76,47c-1.69,10.34-11.1,9.9-18,12.4q-94.95,34.3-190.06,68.21Q699.4,2683.87,680.82,2650Z" transform="translate(984 664.95)"/><path class="cls-35" d="M1058.45,1171.41l-15.62-79.92,34.93-20L1056.94,964.9l64.66-37.07,20.82,106.56,33.45-19.17,15.61,79.92L1158,1114.31l27.24,139.42,33.44-19.17,15.62,79.92-33.45,19.17q-24.24,13.9-47.29,4.65-26-11.47-33-47.5l-27.24-139.42Z" transform="translate(984 664.95)"/><path class="cls-35" d="M1217.63,949.8l-13.53-69.26,66.14-37.93,13.54,69.27Zm65.76,336.56L1224.92,987.1l66.14-37.92,58.47,299.26Z" transform="translate(984 664.95)"/><path class="cls-35" d="M1585.1,533.73,1687,1055l-218.51,125.27q-25.08,14.38-48.79,5.51-26.69-11.07-33.71-47.08L1358.7,999.28q-9.2-47.06,5.17-75.06Q1375,901,1407,882.71l156.82-89.9-43.38-222Zm-5.67,339-153.84,88.2,27.24,139.42,153.84-88.2Z" transform="translate(984 664.95)"/><path class="cls-35" d="M2039.39,959.6q7.63,39.07-.9,64.7-9.77,32.27-47.8,54.07l-135.27,77.55-13.73-83,133-76.27L1956,900.77l-155.33,89.05q-35,20.05-52.86,13.08t-26.34-50.39l-43.93-224.89,64.66-37.07q1.55,7.94,42.85,219.35l155.33-89.06L1897.52,601.5l64.66-37.07Z" transform="translate(984 664.95)"/><path class="cls-35" d="M2254.94,506.21l-3.82-19.54L2098,574.44q39.9,204.27,43,220.23l-66.15,37.92-58.64-300.15,219.42-124.8q35.67-20.46,52.57-14.34,20.39,7.08,28.89,50.58l4.69,24Z" transform="translate(984 664.95)"/><text class="cls-36" transform="translate(6634.14 2119.28)"><tspan class="cls-37">L</tspan><tspan x="82.95" y="0">o</tspan><tspan class="cls-38" x="177.8" y="0">r</tspan><tspan x="236.77" y="0">em ipsum</tspan></text><path class="cls-35" d="M3139.06,4216.62l-21.65-37.5-10,5.79-5-8.64,10.19-6.81-9.55-19.77,9.62-5.55,10.94,19,18.26-10.55,5.4,9.35L3129,4172.44l21.73,37.64c4.83,8.36,10.21,11.57,18,7.06,2.37-1.36,4.87-4.11,6.62-6.23l7.22,7.35c-3,3.43-6.92,7.34-11.1,9.75C3157,4236.38,3146.78,4230,3139.06,4216.62Z" transform="translate(984 664.95)"/><path class="cls-35" d="M3142.77,4123.58c-2.57-4.46-.78-9.4,3.68-12s9.64-1.66,12.21,2.8.79,9.4-3.68,12S3145.27,4127.9,3142.77,4123.58Zm14.41,20.12,11.43-6.6,39.11,67.75-11.43,6.6Z" transform="translate(984 664.95)"/><path class="cls-35" d="M3206.23,4160.74c-12.72-22-6.67-43.74,8.81-52.67,7.8-4.51,14.65-4.56,23.46-3.14l-7.23-11.25-15.06-26.07,11.58-6.68,57.3,99.26-9.48,5.47-5.56-7.38-.42.24c-2.32,8.21-7,16.86-14.94,21.45C3237.68,4189.79,3219.27,4183.32,3206.23,4160.74Zm57.31-11.16-20.44-35.41c-8.7-1.86-15-.83-20.56,2.39-10.87,6.28-13.48,21.72-4.54,37.2,9.33,16.17,21.8,22,33.65,15.14C3257.92,4165.28,3261.59,4159.07,3263.54,4149.58Z" transform="translate(984 664.95)"/><path class="cls-35" d="M3317.14,4178.67l-3-10.35a22.73,22.73,0,0,0,5.72-2c7.66-4.43,9-13.38,7-23.35l-1.36-5.9-66.38-52.2,11.85-6.84,35.45,29.53c5.47,4.65,11.86,10.25,17.58,15.32l.55-.32c-1.59-7.27-3.66-15.36-5.31-22.4l-9.52-44.5,11.15-6.44,16.83,88.05c3,16.12,1.89,30.32-11.77,38.21A26,26,0,0,1,3317.14,4178.67Z" transform="translate(984 664.95)"/><path class="cls-35" d="M3333.94,4041.65l9.47-5.47,8.06,11.7.42-.24c-.31-11.16,3.52-20.62,11.19-25a19.42,19.42,0,0,1,8.05-2.79l3.57,11.33a21.94,21.94,0,0,0-7.2,2.67c-5.71,3.3-10.13,11.42-8.13,25.51l25.11,43.49-11.43,6.6Z" transform="translate(984 664.95)"/><path class="cls-35" d="M3407.08,4080.46c-3.06-5.3-1.39-11.09,3.21-13.75s10.32-1.12,13.38,4.17a9.59,9.59,0,1,1-16.59,9.58Z" transform="translate(984 664.95)"/><path class="cls-35" d="M3431.65,4047.69l-21.65-37.5-10,5.79-5-8.64,10.19-6.82-9.55-19.76,9.62-5.55,10.94,19,18.26-10.55,5.4,9.34-18.27,10.55,21.73,37.64c4.83,8.36,10.22,11.57,18,7.06,2.37-1.37,4.87-4.11,6.62-6.24l7.22,7.36c-3,3.43-6.92,7.34-11.1,9.75C3449.57,4067.45,3439.38,4061.07,3431.65,4047.69Z" transform="translate(984 664.95)"/><path class="cls-35" d="M3435.37,3954.65c-2.57-4.46-.78-9.4,3.68-12s9.64-1.66,12.21,2.8.78,9.4-3.68,12S3437.87,3959,3435.37,3954.65Zm14.41,20.12,11.43-6.6,39.11,67.75-11.43,6.6Z" transform="translate(984 664.95)"/><path class="cls-35" d="M3498.83,3991.8c-12.72-22-6.67-43.73,8.81-52.66,7.8-4.51,14.65-4.56,23.46-3.14l-7.24-11.25-15.05-26.07,11.57-6.68,57.31,99.25-9.48,5.48-5.56-7.39-.42.24c-2.32,8.22-7,16.87-14.94,21.45C3530.28,4020.85,3511.87,4014.39,3498.83,3991.8Zm57.31-11.15-20.44-35.41c-8.7-1.86-15-.83-20.56,2.39-10.87,6.27-13.48,21.72-4.54,37.19,9.33,16.17,21.8,22,33.65,15.15C3550.52,3996.35,3554.18,3990.14,3556.14,3980.65Z" transform="translate(984 664.95)"/><path class="cls-35" d="M3609.73,4009.74l-3-10.35a22.85,22.85,0,0,0,5.72-2c7.67-4.43,9-13.38,7-23.35l-1.37-5.91-66.37-52.19,11.85-6.84,35.45,29.53c5.47,4.65,11.86,10.25,17.57,15.32l.56-.33c-1.59-7.26-3.66-15.35-5.31-22.39l-9.52-44.51,11.15-6.44,16.82,88.06c3,16.12,1.9,30.32-11.76,38.21A26,26,0,0,1,3609.73,4009.74Z" transform="translate(984 664.95)"/><path class="cls-35" d="M3616.77,3878.35l11.85-6.84,35,31.07c5.82,5.57,12,11.11,17.79,16.32l.55-.33c-1.75-7.54-3.46-15.65-5.37-23.47l-9.39-45.88,11.29-6.52,15.14,81.59-13.38,7.73Z" transform="translate(984 664.95)"/><path class="cls-35" d="M3705.7,3872.37c-12.8-22.17-5.69-44.3,9.78-53.23,17.29-10,34.21-3.21,45.4,16.17a52.12,52.12,0,0,1,3.36,6.79l-45.72,26.4c9.12,13.87,23.22,18,36.18,10.52,6.41-3.7,10.64-8.93,13.81-15l8.39,5.2c-3.68,7.14-9.08,14.53-18.28,19.84C3740.5,3899.49,3718.49,3894.53,3705.7,3872.37Zm44.17-32.94c-7.88-13.66-18.28-17.51-28.88-11.39-9.48,5.47-13.69,18.13-7.36,32.31Z" transform="translate(984 664.95)"/><path class="cls-35" d="M3760.22,3795.54l9.48-5.47,8.05,11.7.42-.24c-.31-11.16,3.52-20.62,11.19-25.05a19.41,19.41,0,0,1,8.06-2.79L3801,3785a21.94,21.94,0,0,0-7.2,2.67c-5.71,3.3-10.13,11.43-8.13,25.51l25.11,43.5-11.43,6.6Z" transform="translate(984 664.95)"/><path class="cls-35" d="M3835.19,3832.36l1.29-11c8.59,1.35,16.52,1.24,24.6-3.43,8.92-5.15,10.65-12.47,7.27-18.32-4-7-13.88-5.37-22.88-3.89-11.63,2.07-24.88,3.58-31.48-7.85-6.28-10.87-2.47-24.23,12.17-32.68a39,39,0,0,1,25.48-4.48l-1.25,10.39c-6.62-.83-12.94-.53-18.94,2.94-8.5,4.9-9.75,11.76-6.77,16.92,3.7,6.41,12.46,4.51,21.82,3,11.85-2,25.05-4.24,32.46,8.58,6.36,11,2.89,25.29-13.15,34.54C3856.2,3832.69,3844.66,3834,3835.19,3832.36Z" transform="translate(984 664.95)"/><path class="cls-35" d="M3881.06,3771.12c-12.8-22.16-5.69-44.3,9.78-53.23,17.29-10,34.21-3.21,45.4,16.17a51.47,51.47,0,0,1,3.36,6.79l-45.72,26.4c9.12,13.88,23.22,18,36.18,10.52,6.42-3.7,10.64-8.93,13.81-15l8.39,5.19c-3.68,7.15-9.08,14.54-18.28,19.85C3915.86,3798.24,3893.85,3793.29,3881.06,3771.12Zm44.17-32.94c-7.88-13.66-18.28-17.51-28.88-11.39-9.48,5.47-13.69,18.13-7.36,32.32Z" transform="translate(984 664.95)"/><path class="cls-35" d="M3968.3,3756.44c-3.06-5.3-1.39-11.09,3.21-13.75s10.32-1.12,13.38,4.17a9.59,9.59,0,1,1-16.59,9.58Z" transform="translate(984 664.95)"/><path class="cls-35" d="M3983.38,3712.05c-13.12-22.72-5.83-44.22,10.76-53.8s38.85-5.14,52,17.58c13,22.45,5.66,43.94-10.93,53.52S3996.33,3734.49,3983.38,3712.05Zm50.88-29.38c-9-15.61-22.94-21.7-34.65-14.94s-13.4,21.86-4.38,37.48c8.93,15.47,22.91,21.34,34.48,14.66S4043.19,3698.15,4034.26,3682.67Z" transform="translate(984 664.95)"/><path class="cls-35" d="M4044.31,3631.52l9.48-5.48,8.06,11.71.42-.24c-.31-11.16,3.52-20.62,11.19-25.05a19.37,19.37,0,0,1,8.05-2.79l3.56,11.32a21.89,21.89,0,0,0-7.19,2.67c-5.72,3.3-10.13,11.43-8.13,25.51l25.11,43.5-11.43,6.6Z" transform="translate(984 664.95)"/><path class="cls-35" d="M4132.73,3688.09c-3.3-5.72-2.67-13.33,1-21.05l-.32-.56a14.46,14.46,0,0,1-12.35-7.55c-3.3-5.72-2-12.43.14-16.81l-.32-.56a27.69,27.69,0,0,1-19.32-13.19c-8.53-14.78-2.22-30.88,11.58-38.85a31.33,31.33,0,0,1,10.59-3.88l23.56-13.6,5.07,8.78-13.94,8a22.73,22.73,0,0,1,13.62,10.72c8.37,14.5,2.59,29.92-11.21,37.89a27.39,27.39,0,0,1-11.54,3.5c-1.17,3.46-1.83,6.82.34,10.58,2.5,4.32,7.06,5.78,16.26.47l13.1-7.57c15.75-9.09,26.52-8.8,33,2.49,7.25,12.55.28,31.07-20.77,43.22C4154.7,3699.75,4139.49,3699.8,4132.73,3688.09Zm49.15-33c-3.62-6.27-9.71-5.54-18.49-.47l-11.71,6.76a38,38,0,0,1-9.43,4c-2.86,6.3-2.62,11.55-.37,15.46,4.19,7.25,14.23,7.58,26.5.5C4181.34,3673.77,4186,3662.17,4181.88,3655.06Zm-40.41-49.71c-5.72-9.9-15.51-12-23.46-7.46s-11,14.14-5.26,24,15.89,12.39,23.69,7.88S4147.18,3615.25,4141.47,3605.35Z" transform="translate(984 664.95)"/></g><polygon class="cls-1" points="5258.24 4383.39 5258.24 1951.65 3152.3 735.79 1046.35 1951.65 1046.35 4383.39 3152.3 5599.25 5258.24 4383.39"/></g></svg>