<svg id="Layer_1" data-name="Layer 1" xmlns="http://www.w3.org/2000/svg" xmlns:xlink="http://www.w3.org/1999/xlink" viewBox="0 0 738 852"><defs><style>.cls-1{fill:#77aab6;}.cls-2{fill:#ba6f38;}.cls-3{fill:#fff34d;}.cls-4{fill:#f7a238;}.cls-5{fill:#db1f26;}.cls-6{fill:#ef4782;}.cls-7{fill:#00a5dc;}.cls-8{fill:#0088c5;}.cls-9{fill:#f26524;}.cls-10{fill:#fffef9;}.cls-11{fill:#f9ecc6;}.cls-12{fill:#7fb036;}.cls-13{clip-path:url(#clip-path);}.cls-14{fill:#141227;}.cls-15{opacity:0.94;font-size:167.7px;letter-spacing:-0.02em;}.cls-146,.cls-15{fill:#fff;font-family:MyriadPro-Regular, Myriad Pro;}.cls-16{letter-spacing:-0.01em;}.cls-17{letter-spacing:-0.03em;}.cls-18{letter-spacing:-0.02em;}.cls-19{fill:#e6b35a;}.cls-20{fill:#f2f2f2;}.cls-20,.cls-21{opacity:0.8;}.cls-22{clip-path:url(#clip-path-2);}.cls-23{clip-path:url(#clip-path-3);}.cls-24{clip-path:url(#clip-path-4);}.cls-25{clip-path:url(#clip-path-5);}.cls-26{clip-path:url(#clip-path-6);}.cls-27{clip-path:url(#clip-path-7);}.cls-28{clip-path:url(#clip-path-8);}.cls-29{fill:#164f86;}.cls-30{clip-path:url(#clip-path-9);}.cls-31{clip-path:url(#clip-path-10);}.cls-32{clip-path:url(#clip-path-11);}.cls-33{clip-path:url(#clip-path-12);}.cls-34{clip-path:url(#clip-path-13);}.cls-35{clip-path:url(#clip-path-14);}.cls-36{clip-path:url(#clip-path-15);}.cls-37{fill:#36a85d;}.cls-38{clip-path:url(#clip-path-16);}.cls-39{clip-path:url(#clip-path-17);}.cls-40{clip-path:url(#clip-path-18);}.cls-41{clip-path:url(#clip-path-19);}.cls-42{clip-path:url(#clip-path-20);}.cls-43{clip-path:url(#clip-path-21);}.cls-44{clip-path:url(#clip-path-22);}.cls-45{clip-path:url(#clip-path-23);}.cls-46{clip-path:url(#clip-path-24);}.cls-47{clip-path:url(#clip-path-25);}.cls-48{clip-path:url(#clip-path-26);}.cls-49{clip-path:url(#clip-path-27);}.cls-50{clip-path:url(#clip-path-28);}.cls-51{clip-path:url(#clip-path-29);}.cls-52{clip-path:url(#clip-path-30);}.cls-53{clip-path:url(#clip-path-31);}.cls-54{clip-path:url(#clip-path-32);}.cls-55{clip-path:url(#clip-path-33);}.cls-56{fill:#b57ab4;}.cls-57{clip-path:url(#clip-path-34);}.cls-58{clip-path:url(#clip-path-35);}.cls-59{clip-path:url(#clip-path-36);}.cls-60{clip-path:url(#clip-path-37);}.cls-61{clip-path:url(#clip-path-38);}.cls-62{clip-path:url(#clip-path-39);}.cls-63{clip-path:url(#clip-path-40);}.cls-64{clip-path:url(#clip-path-41);}.cls-65{clip-path:url(#clip-path-42);}.cls-66{clip-path:url(#clip-path-43);}.cls-67{clip-path:url(#clip-path-44);}.cls-68{clip-path:url(#clip-path-45);}.cls-69{clip-path:url(#clip-path-46);}.cls-70{clip-path:url(#clip-path-47);}.cls-71{clip-path:url(#clip-path-48);}.cls-72{clip-path:url(#clip-path-49);}.cls-73{clip-path:url(#clip-path-50);}.cls-74{clip-path:url(#clip-path-51);}.cls-75{clip-path:url(#clip-path-52);}.cls-76{clip-path:url(#clip-path-53);}.cls-77{clip-path:url(#clip-path-54);}.cls-78{clip-path:url(#clip-path-55);}.cls-79{clip-path:url(#clip-path-56);}.cls-80{clip-path:url(#clip-path-57);}.cls-81{clip-path:url(#clip-path-58);}.cls-82{clip-path:url(#clip-path-59);}.cls-83{clip-path:url(#clip-path-60);}.cls-84{clip-path:url(#clip-path-61);}.cls-85{clip-path:url(#clip-path-62);}.cls-86{clip-path:url(#clip-path-63);}.cls-87{clip-path:url(#clip-path-64);}.cls-88{clip-path:url(#clip-path-65);}.cls-89{clip-path:url(#clip-path-66);}.cls-90{clip-path:url(#clip-path-67);}.cls-91{clip-path:url(#clip-path-68);}.cls-92{clip-path:url(#clip-path-69);}.cls-93{clip-path:url(#clip-path-70);}.cls-94{clip-path:url(#clip-path-71);}.cls-95{clip-path:url(#clip-path-72);}.cls-96{clip-path:url(#clip-path-73);}.cls-97{clip-path:url(#clip-path-74);}.cls-98{clip-path:url(#clip-path-75);}.cls-99{clip-path:url(#clip-path-76);}.cls-100{clip-path:url(#clip-path-77);}.cls-101{clip-path:url(#clip-path-78);}.cls-102{clip-path:url(#clip-path-79);}.cls-103{clip-path:url(#clip-path-80);}.cls-104{clip-path:url(#clip-path-81);}.cls-105{clip-path:url(#clip-path-82);}.cls-106{clip-path:url(#clip-path-83);}.cls-107{clip-path:url(#clip-path-84);}.cls-108{clip-path:url(#clip-path-85);}.cls-109{clip-path:url(#clip-path-86);}.cls-110{clip-path:url(#clip-path-87);}.cls-111{clip-path:url(#clip-path-88);}.cls-112{clip-path:url(#clip-path-89);}.cls-113{clip-path:url(#clip-path-90);}.cls-114{clip-path:url(#clip-path-91);}.cls-115{clip-path:url(#clip-path-92);}.cls-116{clip-path:url(#clip-path-93);}.cls-117{clip-path:url(#clip-path-94);}.cls-118{clip-path:url(#clip-path-95);}.cls-119{clip-path:url(#clip-path-96);}.cls-120{clip-path:url(#clip-path-97);}.cls-121{clip-path:url(#clip-path-98);}.cls-122{clip-path:url(#clip-path-99);}.cls-123{clip-path:url(#clip-path-100);}.cls-124{clip-path:url(#clip-path-101);}.cls-125{clip-path:url(#clip-path-102);}.cls-126{clip-path:url(#clip-path-103);}.cls-127{clip-path:url(#clip-path-104);}.cls-128{clip-path:url(#clip-path-105);}.cls-129{clip-path:url(#clip-path-106);}.cls-130{clip-path:url(#clip-path-107);}.cls-131{clip-path:url(#clip-path-108);}.cls-132{clip-path:url(#clip-path-109);}.cls-133{clip-path:url(#clip-path-110);}.cls-134{clip-path:url(#clip-path-111);}.cls-135{clip-path:url(#clip-path-112);}.cls-136{clip-path:url(#clip-path-113);}.cls-137{clip-path:url(#clip-path-114);}.cls-138{clip-path:url(#clip-path-115);}.cls-139{clip-path:url(#clip-path-116);}.cls-140{clip-path:url(#clip-path-117);}.cls-141{clip-path:url(#clip-path-118);}.cls-142{clip-path:url(#clip-path-119);}.cls-143{clip-path:url(#clip-path-120);}.cls-144{clip-path:url(#clip-path-121);}.cls-145{fill:#404040;}.cls-146{font-size:25px;}.cls-147{letter-spacing:0.01em;}.cls-148{letter-spacing:-0.04em;}.cls-149{letter-spacing:-0.02em;}.cls-150{letter-spacing:-0.01em;}.cls-151{letter-spacing:0em;}</style><clipPath id="clip-path"><polygon class="cls-1" points="371.01 8.41 729.71 215.49 729.71 637.64 371.01 846.05 4.29 637.64 4.29 215.49 371.01 8.41"/></clipPath><clipPath id="clip-path-2"><polygon class="cls-1" points="381.12 39.83 387.32 43.41 387.32 50.71 381.12 54.31 374.78 50.71 374.78 43.41 381.12 39.83"/></clipPath><clipPath id="clip-path-3"><polygon class="cls-1" points="289.54 140.05 299.76 145.95 299.76 157.98 289.54 163.92 279.08 157.98 279.08 145.95 289.54 140.05"/></clipPath><clipPath id="clip-path-4"><polygon class="cls-1" points="359.23 159.07 362.33 160.86 362.33 164.5 359.23 166.31 356.06 164.5 356.06 160.86 359.23 159.07"/></clipPath><clipPath id="clip-path-5"><polygon class="cls-9" points="435.13 192.34 438.32 194.18 438.32 197.93 435.13 199.78 431.88 197.93 431.88 194.18 435.13 192.34"/></clipPath><clipPath id="clip-path-6"><polygon class="cls-1" points="422.63 88.19 428.83 91.77 428.83 99.06 422.63 102.67 416.29 99.06 416.29 91.77 422.63 88.19"/></clipPath><clipPath id="clip-path-7"><polyline class="cls-7" points="348.48 84.21 354.68 87.79 354.68 95.08 348.48 98.69 342.14 95.08 342.14 87.79"/></clipPath><clipPath id="clip-path-8"><polyline class="cls-2" points="362.02 107.96 372.66 114.1 372.66 126.63 362.02 132.81 351.14 126.63 351.14 114.1"/></clipPath><clipPath id="clip-path-9"><polyline class="cls-2" points="236.09 210.06 242.29 213.64 242.29 220.94 236.09 224.54 229.75 220.94 229.75 213.64"/></clipPath><clipPath id="clip-path-10"><polyline class="cls-2" points="395.75 164.47 399.88 166.85 399.88 171.71 395.75 174.1 391.53 171.71 391.53 166.85"/></clipPath><clipPath id="clip-path-11"><polyline class="cls-2" points="313.11 151.83 317.7 154.48 317.7 159.88 313.11 162.56 308.41 159.88 308.41 154.48"/></clipPath><clipPath id="clip-path-12"><polyline class="cls-7" points="338.73 135.95 344.93 139.53 344.93 146.83 338.73 150.43 332.39 146.83 332.39 139.53"/></clipPath><clipPath id="clip-path-13"><polyline class="cls-7" points="370.14 194.14 374.19 196.47 374.19 201.23 370.14 203.58 366 201.23 366 196.47"/></clipPath><clipPath id="clip-path-14"><polyline class="cls-3" points="374.85 53.2 381.05 56.78 381.05 64.08 374.85 67.68 368.51 64.08 368.51 56.78"/></clipPath><clipPath id="clip-path-15"><polygon class="cls-2" points="419.03 73.7 425.23 77.28 425.23 84.58 419.03 88.19 412.69 84.58 412.69 77.28 419.03 73.7"/></clipPath><clipPath id="clip-path-16"><polygon class="cls-5" points="302.21 186.9 308.41 190.48 308.41 197.78 302.21 201.38 295.87 197.78 295.87 190.48 302.21 186.9"/></clipPath><clipPath id="clip-path-17"><polygon class="cls-2" points="425.71 326.52 431.91 330.1 431.91 337.4 425.71 341 419.37 337.4 419.37 330.1 425.71 326.52"/></clipPath><clipPath id="clip-path-18"><polygon class="cls-3" points="323.51 128.71 329.72 132.29 329.72 139.59 323.51 143.19 317.18 139.59 317.18 132.29 323.51 128.71"/></clipPath><clipPath id="clip-path-19"><polygon class="cls-8" points="332.46 225.73 338.66 229.31 338.66 236.6 332.46 240.21 326.12 236.6 326.12 229.31 332.46 225.73"/></clipPath><clipPath id="clip-path-20"><polygon class="cls-3" points="174.13 185.13 184.18 190.94 184.18 202.78 174.13 208.62 163.85 202.78 163.85 190.94 174.13 185.13"/></clipPath><clipPath id="clip-path-21"><polygon class="cls-3" points="86.49 301.13 89.79 303.04 89.79 306.92 86.49 308.84 83.11 306.92 83.11 303.04 86.49 301.13"/></clipPath><clipPath id="clip-path-22"><polygon class="cls-9" points="155.33 308.93 159.15 311.14 159.15 315.63 155.33 317.85 151.43 315.63 151.43 311.14 155.33 308.93"/></clipPath><clipPath id="clip-path-23"><polygon class="cls-1" points="215.59 242.49 221.79 246.07 221.79 253.37 215.59 256.97 209.25 253.37 209.25 246.07 215.59 242.49"/></clipPath><clipPath id="clip-path-24"><polyline class="cls-2" points="138.27 245.75 141.37 247.54 141.37 251.19 138.27 252.99 135.1 251.19 135.1 247.54"/></clipPath><clipPath id="clip-path-25"><polyline class="cls-8" points="252.78 272.64 258.98 276.22 258.98 283.52 252.78 287.12 246.44 283.52 246.44 276.22"/></clipPath><clipPath id="clip-path-26"><polyline class="cls-3" points="52.81 268.44 56.79 270.74 56.79 275.43 52.81 277.74 48.74 275.43 48.74 270.74"/></clipPath><clipPath id="clip-path-27"><polyline class="cls-10" points="209.38 275.42 221.5 282.42 221.5 296.68 209.38 303.73 196.99 296.68 196.99 282.42"/></clipPath><clipPath id="clip-path-28"><polyline class="cls-2" points="133.45 288.25 141.37 292.82 141.37 302.15 133.45 306.75 125.35 302.15 125.35 292.82"/></clipPath><clipPath id="clip-path-29"><polyline class="cls-2" points="188.44 323.96 194.64 327.54 194.64 334.84 188.44 338.44 182.1 334.84 182.1 327.54"/></clipPath><clipPath id="clip-path-30"><polyline class="cls-5" points="171.29 215.63 174.01 217.2 174.01 220.41 171.29 221.99 168.51 220.41 168.51 217.2"/></clipPath><clipPath id="clip-path-31"><polygon class="cls-2" points="186.85 232.8 191.02 235.2 191.02 240.09 186.85 242.51 182.6 240.09 182.6 235.2 186.85 232.8"/></clipPath><clipPath id="clip-path-32"><polygon class="cls-2" points="88.59 235.25 97.41 240.34 97.41 250.71 88.59 255.83 79.59 250.71 79.59 240.34 88.59 235.25"/></clipPath><clipPath id="clip-path-33"><polygon class="cls-5" points="113.37 266.57 116.53 268.39 116.53 272.11 113.37 273.95 110.14 272.11 110.14 268.39 113.37 266.57"/></clipPath><clipPath id="clip-path-34"><polygon class="cls-1" points="79.68 563.44 83.22 565.48 83.22 569.65 79.68 571.71 76.06 569.65 76.06 565.48 79.68 563.44"/></clipPath><clipPath id="clip-path-35"><polygon class="cls-1" points="50 439.42 55.2 442.42 55.2 448.54 50 451.56 44.68 448.54 44.68 442.42 50 439.42"/></clipPath><clipPath id="clip-path-36"><polygon class="cls-1" points="168.29 641.3 171.61 643.21 171.61 647.12 168.29 649.04 164.9 647.12 164.9 643.21 168.29 641.3"/></clipPath><clipPath id="clip-path-37"><polyline class="cls-2" points="224.3 678.91 227.4 680.7 227.4 684.35 224.3 686.15 221.13 684.35 221.13 680.7"/></clipPath><clipPath id="clip-path-38"><polyline class="cls-3" points="46.06 533.13 54.4 537.95 54.4 547.76 46.06 552.6 37.54 547.76 37.54 537.95"/></clipPath><clipPath id="clip-path-39"><polyline class="cls-5" points="76.12 588.05 85.86 593.67 85.86 605.13 76.12 610.78 66.17 605.13 66.17 593.67"/></clipPath><clipPath id="clip-path-40"><polyline class="cls-2" points="45.47 374.52 50.05 377.16 50.05 382.54 45.47 385.2 40.8 382.54 40.8 377.16"/></clipPath><clipPath id="clip-path-41"><polygon class="cls-1" points="41.37 481.06 44.55 482.9 44.55 486.64 41.37 488.49 38.11 486.64 38.11 482.9 41.37 481.06"/></clipPath><clipPath id="clip-path-42"><polygon class="cls-1" points="226.55 151.83 231.21 154.51 231.21 160 226.55 162.7 221.79 160 221.79 154.51 226.55 151.83"/></clipPath><clipPath id="clip-path-43"><polygon class="cls-11" points="75.94 504.22 85.64 509.81 85.64 521.23 75.94 526.86 66.03 521.23 66.03 509.81 75.94 504.22"/></clipPath><clipPath id="clip-path-44"><polygon class="cls-1" points="183.26 531.67 187.35 534.03 187.35 538.84 183.26 541.22 179.08 538.84 179.08 534.03 183.26 531.67"/></clipPath><clipPath id="clip-path-45"><polygon class="cls-4" points="245.95 569.65 252.16 573.23 252.16 580.53 245.95 584.13 239.61 580.53 239.61 573.23 245.95 569.65"/></clipPath><clipPath id="clip-path-46"><polyline class="cls-3" points="114.86 599.74 119.08 602.18 119.08 607.14 114.86 609.59 110.54 607.14 110.54 602.18"/></clipPath><clipPath id="clip-path-47"><polyline class="cls-2" points="205.6 539.87 215.2 545.41 215.2 556.71 205.6 562.28 195.79 556.71 195.79 545.41"/></clipPath><clipPath id="clip-path-48"><polyline class="cls-2" points="146.14 569.4 152.34 572.98 152.34 580.28 146.14 583.88 139.8 580.28 139.8 572.98"/></clipPath><clipPath id="clip-path-49"><polyline class="cls-2" points="179.43 515.54 183.43 517.85 183.43 522.56 179.43 524.89 175.33 522.56 175.33 517.85"/></clipPath><clipPath id="clip-path-50"><polyline class="cls-2" points="300.94 577.57 307.14 581.15 307.14 588.44 300.94 592.05 294.6 588.44 294.6 581.15"/></clipPath><clipPath id="clip-path-51"><polygon class="cls-3" points="137.86 515.54 141.4 517.59 141.4 521.76 137.86 523.82 134.23 521.76 134.23 517.59 137.86 515.54"/></clipPath><clipPath id="clip-path-52"><polygon class="cls-3" points="204.34 630.72 208.91 633.36 208.91 638.74 204.34 641.39 199.66 638.74 199.66 633.36 204.34 630.72"/></clipPath><clipPath id="clip-path-53"><polygon class="cls-1" points="386.95 226.85 397.81 233.11 397.81 245.89 386.95 252.2 375.86 245.89 375.86 233.11 386.95 226.85"/></clipPath><clipPath id="clip-path-54"><polygon class="cls-1" points="406.47 260.94 412.67 264.52 412.67 271.82 406.47 275.42 400.13 271.82 400.13 264.52 406.47 260.94"/></clipPath><clipPath id="clip-path-55"><polyline class="cls-9" points="297.85 268.18 300.95 269.97 300.95 273.62 297.85 275.42 294.68 273.62 294.68 269.97"/></clipPath><clipPath id="clip-path-56"><polyline class="cls-2" points="382.59 322.29 394.6 329.22 394.6 343.35 382.59 350.33 370.32 343.35 370.32 329.22"/></clipPath><clipPath id="clip-path-57"><polyline class="cls-4" points="339.35 336.02 345.55 339.6 345.55 346.89 339.35 350.5 333 346.89 333 339.6"/></clipPath><clipPath id="clip-path-58"><polyline class="cls-7" points="356.13 279.88 362.33 283.46 362.33 290.76 356.13 294.36 349.79 290.76 349.79 283.46"/></clipPath><clipPath id="clip-path-59"><polygon class="cls-2" points="446.89 287.57 453.09 291.15 453.09 298.45 446.89 302.06 440.55 298.45 440.55 291.15 446.89 287.57"/></clipPath><clipPath id="clip-path-60"><polygon class="cls-5" points="286.87 325.31 289.31 326.72 289.31 329.6 286.87 331.02 284.37 329.6 284.37 326.72 286.87 325.31"/></clipPath><clipPath id="clip-path-61"><polygon class="cls-11" points="240.13 301.43 248.56 306.29 248.56 316.21 240.13 321.11 231.52 316.21 231.52 306.29 240.13 301.43"/></clipPath><clipPath id="clip-path-62"><polygon class="cls-5" points="274.64 564.22 277.74 566.01 277.74 569.66 274.64 571.46 271.47 569.66 271.47 566.01 274.64 564.22"/></clipPath><clipPath id="clip-path-63"><polygon class="cls-1" points="369.47 560.13 373.24 562.3 373.24 566.74 369.47 568.93 365.62 566.74 365.62 562.3 369.47 560.13"/></clipPath><clipPath id="clip-path-64"><polygon class="cls-4" points="440.27 598.21 448.24 602.81 448.24 612.19 440.27 616.82 432.12 612.19 432.12 602.81 440.27 598.21"/></clipPath><clipPath id="clip-path-65"><polyline class="cls-2" points="371.88 507.61 375.92 509.94 375.92 514.68 371.88 517.03 367.75 514.68 367.75 509.94"/></clipPath><clipPath id="clip-path-66"><polyline class="cls-6" points="246.03 618.69 258.77 626.05 258.77 641.04 246.03 648.45 233 641.04 233 626.05"/></clipPath><clipPath id="clip-path-67"><polyline class="cls-5" points="407.48 549.4 418.16 555.56 418.16 568.13 407.48 574.33 396.57 568.13 396.57 555.56"/></clipPath><clipPath id="clip-path-68"><polyline class="cls-3" points="316.78 544.35 322.98 547.93 322.98 555.23 316.78 558.83 310.44 555.23 310.44 547.93"/></clipPath><clipPath id="clip-path-69"><polyline class="cls-8" points="348.29 531.34 354.49 534.92 354.49 542.22 348.29 545.82 341.95 542.22 341.95 534.92"/></clipPath><clipPath id="clip-path-70"><polyline class="cls-2" points="381.9 589.52 388.11 593.1 388.11 600.4 381.9 604 375.56 600.4 375.56 593.1"/></clipPath><clipPath id="clip-path-71"><polygon class="cls-1" points="631.9 343.26 638.1 346.84 638.1 354.13 631.9 357.74 625.56 354.13 625.56 346.84 631.9 343.26"/></clipPath><clipPath id="clip-path-72"><polygon class="cls-1" points="461.09 320.61 467.29 324.19 467.29 331.49 461.09 335.09 454.75 331.49 454.75 324.19 461.09 320.61"/></clipPath><clipPath id="clip-path-73"><polyline class="cls-2" points="557.75 339.28 563.96 342.86 563.96 350.16 557.75 353.76 551.41 350.16 551.41 342.86"/></clipPath><clipPath id="clip-path-74"><polyline class="cls-3" points="596.29 302.65 608.25 309.56 608.25 323.64 596.29 330.6 584.06 323.64 584.06 309.56"/></clipPath><clipPath id="clip-path-75"><polygon class="cls-2" points="638.27 326.21 641.28 327.95 641.28 331.5 638.27 333.26 635.18 331.5 635.18 327.95 638.27 326.21"/></clipPath><clipPath id="clip-path-76"><polygon class="cls-1" points="473.15 156.68 479.35 160.26 479.35 167.56 473.15 171.16 466.81 167.56 466.81 160.26 473.15 156.68"/></clipPath><clipPath id="clip-path-77"><polyline class="cls-2" points="438.43 243.31 447.39 248.48 447.39 259.03 438.43 264.23 429.27 259.03 429.27 248.48"/></clipPath><clipPath id="clip-path-78"><polygon class="cls-12" points="450.28 109.86 463.21 117.33 463.21 132.54 450.28 140.05 437.07 132.54 437.07 117.33 450.28 109.86"/></clipPath><clipPath id="clip-path-79"><polygon class="cls-5" points="525.57 257.35 538.32 264.71 538.32 279.71 525.57 287.12 512.54 279.71 512.54 264.71 525.57 257.35"/></clipPath><clipPath id="clip-path-80"><polygon class="cls-1" points="654.14 225.09 657.15 226.84 657.15 230.39 654.14 232.14 651.05 230.39 651.05 226.84 654.14 225.09"/></clipPath><clipPath id="clip-path-81"><polyline class="cls-2" points="557.89 178.49 570.02 185.5 570.02 199.77 557.89 206.82 545.49 199.77 545.49 185.5"/></clipPath><clipPath id="clip-path-82"><polyline class="cls-4" points="589.42 217.66 595.62 221.24 595.62 228.54 589.42 232.14 583.08 228.54 583.08 221.24"/></clipPath><clipPath id="clip-path-83"><polyline class="cls-2" points="580.24 253.77 584.72 256.36 584.72 261.63 580.24 264.23 575.66 261.63 575.66 256.36"/></clipPath><clipPath id="clip-path-84"><polyline class="cls-2" points="609.29 192.54 612.31 194.28 612.31 197.83 609.29 199.58 606.2 197.83 606.2 194.28"/></clipPath><clipPath id="clip-path-85"><polygon class="cls-2" points="650.97 183.41 657.17 186.99 657.17 194.28 650.97 197.89 644.63 194.28 644.63 186.99 650.97 183.41"/></clipPath><clipPath id="clip-path-86"><polygon class="cls-7" points="490.99 212.37 497.19 215.95 497.19 223.24 490.99 226.85 484.65 223.24 484.65 215.95 490.99 212.37"/></clipPath><clipPath id="clip-path-87"><polygon class="cls-2" points="555.46 238.41 561.66 241.99 561.66 249.29 555.46 252.89 549.12 249.29 549.12 241.99 555.46 238.41"/></clipPath><clipPath id="clip-path-88"><polygon class="cls-2" points="497.22 300.19 499.42 301.46 499.42 304.06 497.22 305.34 494.96 304.06 494.96 301.46 497.22 300.19"/></clipPath><clipPath id="clip-path-89"><polygon class="cls-1" points="605.85 522.13 612.05 525.71 612.05 533.01 605.85 536.61 599.51 533.01 599.51 525.71 605.85 522.13"/></clipPath><clipPath id="clip-path-90"><polyline class="cls-3" points="539.46 520.79 545.66 524.37 545.66 531.67 539.46 535.27 533.12 531.67 533.12 524.37"/></clipPath><clipPath id="clip-path-91"><polyline class="cls-2" points="548.5 544.55 558.47 550.31 558.47 562.05 548.5 567.84 538.3 562.05 538.3 550.31"/></clipPath><clipPath id="clip-path-92"><polyline class="cls-2" points="575.83 519.79 582.03 523.37 582.03 530.67 575.83 534.27 569.49 530.67 569.49 523.37"/></clipPath><clipPath id="clip-path-93"><polygon class="cls-2" points="450.01 563.25 454.5 565.84 454.5 571.13 450.01 573.74 445.42 571.13 445.42 565.84 450.01 563.25"/></clipPath><clipPath id="clip-path-94"><polygon class="cls-2" points="333.04 516.76 336.06 518.5 336.06 522.05 333.04 523.81 329.95 522.05 329.95 518.5 333.04 516.76"/></clipPath><clipPath id="clip-path-95"><polygon class="cls-2" points="342.1 603.36 355.9 611.33 355.9 627.57 342.1 635.59 327.99 627.57 327.99 611.33 342.1 603.36"/></clipPath><clipPath id="clip-path-96"><polygon class="cls-1" points="307.24 646.93 313.44 650.51 313.44 657.81 307.24 661.41 300.9 657.81 300.9 650.51 307.24 646.93"/></clipPath><clipPath id="clip-path-97"><polygon class="cls-1" points="168.3 576.31 172.39 578.67 172.39 583.49 168.3 585.86 164.12 583.49 164.12 578.67 168.3 576.31"/></clipPath><clipPath id="clip-path-98"><polygon class="cls-1" points="351.42 722.3 357.62 725.88 357.62 733.18 351.42 736.78 345.08 733.18 345.08 725.88 351.42 722.3"/></clipPath><clipPath id="clip-path-99"><polyline class="cls-2" points="413.7 670.36 419.9 673.94 419.9 681.24 413.7 684.84 407.36 681.24 407.36 673.94"/></clipPath><clipPath id="clip-path-100"><polyline class="cls-2" points="298.74 718.35 302.78 720.68 302.78 725.44 298.74 727.78 294.61 725.44 294.61 720.68"/></clipPath><clipPath id="clip-path-101"><polyline class="cls-2" points="323.98 774.2 329.05 777.13 329.05 783.1 323.98 786.05 318.79 783.1 318.79 777.13"/></clipPath><clipPath id="clip-path-102"><polyline class="cls-3" points="296.81 673.51 300 675.35 300 679.09 296.81 680.94 293.56 679.09 293.56 675.35"/></clipPath><clipPath id="clip-path-103"><polyline class="cls-2" points="208.21 594.97 214.41 598.55 214.41 605.85 208.21 609.45 201.87 605.85 201.87 598.55"/></clipPath><clipPath id="clip-path-104"><polygon class="cls-4" points="357.69 664.59 363.89 668.17 363.89 675.47 357.69 679.07 351.35 675.47 351.35 668.17 357.69 664.59"/></clipPath><clipPath id="clip-path-105"><polygon class="cls-4" points="584.1 564.73 587.8 566.86 587.8 571.22 584.1 573.37 580.31 571.22 580.31 566.86 584.1 564.73"/></clipPath><clipPath id="clip-path-106"><polygon class="cls-1" points="442.1 694.65 453.87 701.45 453.87 715.3 442.1 722.14 430.06 715.3 430.06 701.45 442.1 694.65"/></clipPath><clipPath id="clip-path-107"><polygon class="cls-1" points="597.07 628.35 607.63 634.45 607.63 646.88 597.07 653.02 586.27 646.88 586.27 634.45 597.07 628.35"/></clipPath><clipPath id="clip-path-108"><polyline class="cls-2" points="632.53 596.32 636.44 598.58 636.44 603.18 632.53 605.45 628.53 603.18 628.53 598.58"/></clipPath><clipPath id="clip-path-109"><polyline class="cls-5" points="548.43 642.22 552.22 644.41 552.22 648.87 548.43 651.08 544.55 648.87 544.55 644.41"/></clipPath><clipPath id="clip-path-110"><polyline class="cls-5" points="485.2 687.61 490.22 690.5 490.22 696.41 485.2 699.32 480.07 696.41 480.07 690.5"/></clipPath><clipPath id="clip-path-111"><polyline class="cls-2" points="526.44 677.81 530.08 679.91 530.08 684.19 526.44 686.31 522.72 684.19 522.72 679.91"/></clipPath><clipPath id="clip-path-112"><polyline class="cls-2" points="552.84 589.08 559.04 592.66 559.04 599.96 552.84 603.56 546.5 599.96 546.5 592.66"/></clipPath><clipPath id="clip-path-113"><polygon class="cls-2" points="590.75 587.92 596.95 591.5 596.95 598.79 590.75 602.4 584.41 598.79 584.41 591.5 590.75 587.92"/></clipPath><clipPath id="clip-path-114"><polygon class="cls-3" points="437.01 645.78 440.11 647.57 440.11 651.22 437.01 653.02 433.84 651.22 433.84 647.57 437.01 645.78"/></clipPath><clipPath id="clip-path-115"><polygon class="cls-2" points="501.12 645.78 508.84 650.24 508.84 659.32 501.12 663.81 493.23 659.32 493.23 650.24 501.12 645.78"/></clipPath><clipPath id="clip-path-116"><polyline class="cls-6" points="675.69 505.63 682.18 509.38 682.18 517.02 675.69 520.79 669.05 517.02 669.05 509.38"/></clipPath><clipPath id="clip-path-117"><polygon class="cls-2" points="695.95 461.94 700.37 464.49 700.37 469.69 695.95 472.26 691.43 469.69 691.43 464.49 695.95 461.94"/></clipPath><clipPath id="clip-path-118"><polygon class="cls-4" points="636.3 253.47 639.7 255.44 639.7 259.44 636.3 261.41 632.83 259.44 632.83 255.44 636.3 253.47"/></clipPath><clipPath id="clip-path-119"><polygon class="cls-2" points="625.63 216.19 631.83 219.77 631.83 227.07 625.63 230.67 619.29 227.07 619.29 219.77 625.63 216.19"/></clipPath><clipPath id="clip-path-120"><polygon class="cls-1" points="688.64 331.18 691.66 332.92 691.66 336.47 688.64 338.22 685.56 336.47 685.56 332.92 688.64 331.18"/></clipPath><clipPath id="clip-path-121"><polygon class="cls-2" points="654.17 286.36 660.37 289.94 660.37 297.24 654.17 300.84 647.83 297.24 647.83 289.94 654.17 286.36"/></clipPath></defs><title> </title><polygon class="cls-1" points="371.01 8.41 729.71 215.49 729.71 637.64 371.01 846.05 4.29 637.64 4.29 215.49 371.01 8.41"/><g class="cls-13"><circle class="cls-14" cx="367" cy="438.47" r="442.13"/></g><text class="cls-15" transform="translate(66.48 478.45) scale(1 1.06)">tid<tspan class="cls-16" x="179.27" y="0">y</tspan><tspan class="cls-17" x="256.92" y="0">v</tspan><tspan class="cls-18" x="332.55" y="0">erse</tspan></text><path class="cls-19" d="M371.81,626.81c.28-.28.6-.58.92-.88h-.25Z"/><polyline class="cls-20" points="335.8 57.89 342.14 54.31 348.48 57.92 348.48 65.22 342.14 68.79 335.8 65.19 335.8 57.89"/><polyline class="cls-20" points="284.2 113.66 288.75 111.09 293.3 113.68 293.3 118.92 288.75 121.48 284.2 118.89 284.2 113.66"/><polyline class="cls-20" points="333.8 172.16 340.13 168.58 346.48 172.19 346.48 179.49 340.13 183.06 333.8 179.46 333.8 172.16"/><polyline class="cls-4" points="397.81 203.16 404.14 199.58 410.49 203.19 410.49 210.49 404.14 214.06 397.81 210.46 397.81 203.16"/><polyline class="cls-20" points="447.06 90.4 453.4 86.82 459.75 90.43 459.75 97.73 453.4 101.3 447.06 97.69 447.06 90.4"/><polyline class="cls-20" points="425.64 166.13 431.98 162.56 438.33 166.17 438.33 173.46 431.98 177.03 425.64 173.43 425.64 166.13"/><g class="cls-21"><polygon class="cls-1" points="381.12 39.83 387.32 43.41 387.32 50.71 381.12 54.31 374.78 50.71 374.78 43.41 381.12 39.83"/><g class="cls-22"><circle class="cls-4" cx="381.05" cy="47.27" r="7.64"/></g></g><g class="cls-21"><polygon class="cls-1" points="289.54 140.05 299.76 145.95 299.76 157.98 289.54 163.92 279.08 157.98 279.08 145.95 289.54 140.05"/><g class="cls-23"><circle class="cls-4" cx="289.42" cy="152.31" r="12.6"/></g></g><g class="cls-21"><polygon class="cls-1" points="359.23 159.07 362.33 160.86 362.33 164.5 359.23 166.31 356.06 164.5 356.06 160.86 359.23 159.07"/><g class="cls-24"><circle class="cls-4" cx="359.19" cy="162.78" r="3.82"/></g></g><polygon class="cls-9" points="435.13 192.34 438.32 194.18 438.32 197.93 435.13 199.78 431.88 197.93 431.88 194.18 435.13 192.34"/><g class="cls-25"><circle class="cls-9" cx="435.1" cy="196.16" r="3.92"/></g><g class="cls-21"><polygon class="cls-1" points="422.63 88.19 428.83 91.77 428.83 99.06 422.63 102.67 416.29 99.06 416.29 91.77 422.63 88.19"/><g class="cls-26"><circle class="cls-4" cx="422.56" cy="95.62" r="7.64"/></g></g><polyline class="cls-7" points="348.48 84.21 354.68 87.79 354.68 95.08 348.48 98.69 342.14 95.08 342.14 87.79"/><g class="cls-27"><circle class="cls-7" cx="348.41" cy="91.64" r="7.64"/></g><polyline class="cls-2" points="362.02 107.96 372.66 114.1 372.66 126.63 362.02 132.81 351.14 126.63 351.14 114.1"/><g class="cls-28"><circle class="cls-29" cx="361.9" cy="120.72" r="13.12"/></g><polyline class="cls-2" points="236.09 210.06 242.29 213.64 242.29 220.94 236.09 224.54 229.75 220.94 229.75 213.64"/><g class="cls-30"><circle class="cls-29" cx="236.02" cy="217.5" r="7.64"/></g><polyline class="cls-2" points="395.75 164.47 399.88 166.85 399.88 171.71 395.75 174.1 391.53 171.71 391.53 166.85"/><g class="cls-31"><circle class="cls-29" cx="395.71" cy="169.41" r="5.09"/></g><polyline class="cls-2" points="313.11 151.83 317.7 154.48 317.7 159.88 313.11 162.56 308.41 159.88 308.41 154.48"/><g class="cls-32"><circle class="cls-29" cx="313.06" cy="157.33" r="5.66"/></g><polyline class="cls-7" points="338.73 135.95 344.93 139.53 344.93 146.83 338.73 150.43 332.39 146.83 332.39 139.53"/><g class="cls-33"><circle class="cls-7" cx="338.66" cy="143.39" r="7.64"/></g><polyline class="cls-7" points="370.14 194.14 374.19 196.47 374.19 201.23 370.14 203.58 366 201.23 366 196.47"/><g class="cls-34"><circle class="cls-7" cx="370.09" cy="198.99" r="4.99"/></g><polyline class="cls-3" points="374.85 53.2 381.05 56.78 381.05 64.08 374.85 67.68 368.51 64.08 368.51 56.78"/><g class="cls-35"><circle class="cls-3" cx="374.78" cy="60.64" r="7.64"/></g><polygon class="cls-2" points="419.03 73.7 425.23 77.28 425.23 84.58 419.03 88.19 412.69 84.58 412.69 77.28 419.03 73.7"/><g class="cls-36"><circle class="cls-37" cx="418.96" cy="81.14" r="7.64"/></g><polygon class="cls-5" points="302.21 186.9 308.41 190.48 308.41 197.78 302.21 201.38 295.87 197.78 295.87 190.48 302.21 186.9"/><g class="cls-38"><circle class="cls-5" cx="302.14" cy="194.33" r="7.64"/></g><polygon class="cls-2" points="425.71 326.52 431.91 330.1 431.91 337.4 425.71 341 419.37 337.4 419.37 330.1 425.71 326.52"/><g class="cls-39"><circle class="cls-37" cx="425.64" cy="333.95" r="7.64"/></g><polygon class="cls-3" points="323.51 128.71 329.72 132.29 329.72 139.59 323.51 143.19 317.18 139.59 317.18 132.29 323.51 128.71"/><g class="cls-40"><circle class="cls-3" cx="323.45" cy="136.15" r="7.64"/></g><polygon class="cls-8" points="332.46 225.73 338.66 229.31 338.66 236.6 332.46 240.21 326.12 236.6 326.12 229.31 332.46 225.73"/><g class="cls-41"><circle class="cls-8" cx="332.39" cy="233.16" r="7.64"/></g><polyline class="cls-20" points="128.76 212.2 135.1 208.62 141.45 212.23 141.45 219.53 135.1 223.1 128.76 219.5 128.76 212.2"/><polyline class="cls-5" points="75.83 278.01 85.34 272.64 94.86 278.05 94.86 289 85.34 294.36 75.83 288.95 75.83 278.01"/><polyline class="cls-7" points="105.12 317.44 111.46 313.87 117.8 317.48 117.8 324.77 111.46 328.35 105.12 324.74 105.12 317.44"/><polyline class="cls-20" points="240.03 244.7 246.36 241.12 252.71 244.73 252.71 252.03 246.36 255.6 240.03 252 240.03 244.7"/><polyline class="cls-12" points="475.13 289.26 481.47 285.68 487.82 289.3 487.82 296.59 481.47 300.17 475.13 296.56 475.13 289.26"/><polyline class="cls-3" points="161.56 267.22 169.82 262.56 178.08 267.26 178.08 276.77 169.82 281.42 161.56 276.73 161.56 267.22"/><polygon class="cls-3" points="174.13 185.13 184.18 190.94 184.18 202.78 174.13 208.62 163.85 202.78 163.85 190.94 174.13 185.13"/><g class="cls-42"><circle class="cls-3" cx="174.01" cy="197.19" r="12.4"/></g><polygon class="cls-3" points="86.49 301.13 89.79 303.04 89.79 306.92 86.49 308.84 83.11 306.92 83.11 303.04 86.49 301.13"/><g class="cls-43"><circle class="cls-3" cx="86.45" cy="305.09" r="4.07"/></g><polygon class="cls-9" points="155.33 308.93 159.15 311.14 159.15 315.63 155.33 317.85 151.43 315.63 151.43 311.14 155.33 308.93"/><g class="cls-44"><circle class="cls-9" cx="155.29" cy="313.51" r="4.71"/></g><g class="cls-21"><polygon class="cls-1" points="215.59 242.49 221.79 246.07 221.79 253.37 215.59 256.97 209.25 253.37 209.25 246.07 215.59 242.49"/><g class="cls-45"><circle class="cls-4" cx="215.52" cy="249.93" r="7.64"/></g></g><polyline class="cls-2" points="138.27 245.75 141.37 247.54 141.37 251.19 138.27 252.99 135.1 251.19 135.1 247.54"/><g class="cls-46"><circle class="cls-29" cx="138.24" cy="249.47" r="3.82"/></g><polyline class="cls-8" points="252.78 272.64 258.98 276.22 258.98 283.52 252.78 287.12 246.44 283.52 246.44 276.22"/><g class="cls-47"><circle class="cls-8" cx="252.71" cy="280.07" r="7.64"/></g><polyline class="cls-3" points="52.81 268.44 56.79 270.74 56.79 275.43 52.81 277.74 48.74 275.43 48.74 270.74"/><g class="cls-48"><circle class="cls-3" cx="52.77" cy="273.22" r="4.91"/></g><polyline class="cls-10" points="209.38 275.42 221.5 282.42 221.5 296.68 209.38 303.73 196.99 296.68 196.99 282.42"/><g class="cls-49"><circle class="cls-10" cx="209.25" cy="289.95" r="14.94"/></g><polyline class="cls-2" points="133.45 288.25 141.37 292.82 141.37 302.15 133.45 306.75 125.35 302.15 125.35 292.82"/><g class="cls-50"><circle class="cls-29" cx="133.36" cy="297.75" r="9.77"/></g><polyline class="cls-2" points="188.44 323.96 194.64 327.54 194.64 334.84 188.44 338.44 182.1 334.84 182.1 327.54"/><g class="cls-51"><circle class="cls-29" cx="188.37" cy="331.4" r="7.64"/></g><polyline class="cls-5" points="171.29 215.63 174.01 217.2 174.01 220.41 171.29 221.99 168.51 220.41 168.51 217.2"/><g class="cls-52"><circle class="cls-5" cx="171.26" cy="218.89" r="3.36"/></g><polygon class="cls-2" points="186.85 232.8 191.02 235.2 191.02 240.09 186.85 242.51 182.6 240.09 182.6 235.2 186.85 232.8"/><g class="cls-53"><circle class="cls-37" cx="186.81" cy="237.78" r="5.13"/></g><polygon class="cls-2" points="88.59 235.25 97.41 240.34 97.41 250.71 88.59 255.83 79.59 250.71 79.59 240.34 88.59 235.25"/><g class="cls-54"><circle class="cls-37" cx="88.5" cy="245.82" r="10.86"/></g><polygon class="cls-5" points="113.37 266.57 116.53 268.39 116.53 272.11 113.37 273.95 110.14 272.11 110.14 268.39 113.37 266.57"/><g class="cls-55"><circle class="cls-5" cx="113.33" cy="270.36" r="3.9"/></g><polyline class="cls-20" points="103.1 515.98 109.44 512.4 115.78 516.01 115.78 523.31 109.44 526.88 103.1 523.28 103.1 515.98"/><polyline class="cls-11" points="143.03 541.19 153.28 535.4 163.54 541.24 163.54 553.04 153.28 558.82 143.03 552.99 143.03 541.19"/><polyline class="cls-3" points="221.13 575.38 224.34 573.57 227.55 575.39 227.55 579.08 224.34 580.89 221.13 579.07 221.13 575.38"/><polyline class="cls-20" points="214.86 522.23 221.2 518.65 227.55 522.26 227.55 529.56 221.2 533.13 214.86 529.53 214.86 522.23"/><polyline class="cls-20" points="44.28 579.77 47.45 577.98 50.62 579.79 50.62 583.44 47.45 585.22 44.28 583.42 44.28 579.77"/><polyline class="cls-56" points="126.54 621.03 136.72 615.28 146.92 621.08 146.92 632.8 136.72 638.54 126.54 632.75 126.54 621.03"/><polyline class="cls-20" points="107.05 560.89 111.46 558.4 115.87 560.91 115.87 565.99 111.46 568.47 107.05 565.97 107.05 560.89"/><g class="cls-21"><polygon class="cls-1" points="79.68 563.44 83.22 565.48 83.22 569.65 79.68 571.71 76.06 569.65 76.06 565.48 79.68 563.44"/><g class="cls-57"><circle class="cls-4" cx="79.64" cy="567.69" r="4.37"/></g></g><g class="cls-21"><polygon class="cls-1" points="50 439.42 55.2 442.42 55.2 448.54 50 451.56 44.68 448.54 44.68 442.42 50 439.42"/><g class="cls-58"><circle class="cls-4" cx="49.94" cy="445.65" r="6.41"/></g></g><g class="cls-21"><polygon class="cls-1" points="168.29 641.3 171.61 643.21 171.61 647.12 168.29 649.04 164.9 647.12 164.9 643.21 168.29 641.3"/><g class="cls-59"><circle class="cls-4" cx="168.26" cy="645.27" r="4.09"/></g></g><polyline class="cls-2" points="224.3 678.91 227.4 680.7 227.4 684.35 224.3 686.15 221.13 684.35 221.13 680.7"/><g class="cls-60"><circle class="cls-29" cx="224.27" cy="682.63" r="3.82"/></g><polyline class="cls-3" points="46.06 533.13 54.4 537.95 54.4 547.76 46.06 552.6 37.54 547.76 37.54 537.95"/><g class="cls-61"><circle class="cls-3" cx="45.97" cy="543.13" r="10.28"/></g><polyline class="cls-5" points="76.12 588.05 85.86 593.67 85.86 605.13 76.12 610.78 66.17 605.13 66.17 593.67"/><g class="cls-62"><circle class="cls-5" cx="76.01" cy="599.72" r="12"/></g><polyline class="cls-20" points="35.4 410.13 39.23 407.97 43.06 410.15 43.06 414.55 39.23 416.71 35.4 414.53 35.4 410.13"/><polyline class="cls-20" points="45.42 324.19 51.76 320.61 58.11 324.22 58.11 331.52 51.76 335.09 45.42 331.49 45.42 324.19"/><polyline class="cls-2" points="45.47 374.52 50.05 377.16 50.05 382.54 45.47 385.2 40.8 382.54 40.8 377.16"/><g class="cls-63"><circle class="cls-29" cx="45.42" cy="380" r="5.63"/></g><g class="cls-21"><polygon class="cls-1" points="41.37 481.06 44.55 482.9 44.55 486.64 41.37 488.49 38.11 486.64 38.11 482.9 41.37 481.06"/><g class="cls-64"><circle class="cls-4" cx="41.33" cy="484.87" r="3.92"/></g></g><g class="cls-21"><polygon class="cls-1" points="226.55 151.83 231.21 154.51 231.21 160 226.55 162.7 221.79 160 221.79 154.51 226.55 151.83"/><g class="cls-65"><circle class="cls-4" cx="226.5" cy="157.41" r="5.74"/></g></g><polygon class="cls-11" points="75.94 504.22 85.64 509.81 85.64 521.23 75.94 526.86 66.03 521.23 66.03 509.81 75.94 504.22"/><g class="cls-66"><circle class="cls-11" cx="75.83" cy="515.84" r="11.95"/></g><g class="cls-21"><polygon class="cls-1" points="183.26 531.67 187.35 534.03 187.35 538.84 183.26 541.22 179.08 538.84 179.08 534.03 183.26 531.67"/><g class="cls-67"><circle class="cls-4" cx="183.21" cy="536.57" r="5.04"/></g></g><polygon class="cls-4" points="245.95 569.65 252.16 573.23 252.16 580.53 245.95 584.13 239.61 580.53 239.61 573.23 245.95 569.65"/><g class="cls-68"><circle class="cls-4" cx="245.88" cy="577.08" r="7.64"/></g><polyline class="cls-3" points="114.86 599.74 119.08 602.18 119.08 607.14 114.86 609.59 110.54 607.14 110.54 602.18"/><g class="cls-69"><circle class="cls-3" cx="114.81" cy="604.8" r="5.2"/></g><polyline class="cls-2" points="205.6 539.87 215.2 545.41 215.2 556.71 205.6 562.28 195.79 556.71 195.79 545.41"/><g class="cls-70"><circle class="cls-29" cx="205.49" cy="551.38" r="11.83"/></g><polyline class="cls-2" points="146.14 569.4 152.34 572.98 152.34 580.28 146.14 583.88 139.8 580.28 139.8 572.98"/><g class="cls-71"><circle class="cls-29" cx="146.07" cy="576.84" r="7.64"/></g><polyline class="cls-2" points="179.43 515.54 183.43 517.85 183.43 522.56 179.43 524.89 175.33 522.56 175.33 517.85"/><g class="cls-72"><circle class="cls-29" cx="179.38" cy="520.34" r="4.94"/></g><polyline class="cls-2" points="300.94 577.57 307.14 581.15 307.14 588.44 300.94 592.05 294.6 588.44 294.6 581.15"/><g class="cls-73"><circle class="cls-29" cx="300.87" cy="585" r="7.64"/></g><polygon class="cls-3" points="137.86 515.54 141.4 517.59 141.4 521.76 137.86 523.82 134.23 521.76 134.23 517.59 137.86 515.54"/><g class="cls-74"><circle class="cls-3" cx="137.82" cy="519.79" r="4.37"/></g><polygon class="cls-3" points="204.34 630.72 208.91 633.36 208.91 638.74 204.34 641.39 199.66 638.74 199.66 633.36 204.34 630.72"/><g class="cls-75"><circle class="cls-3" cx="204.28" cy="636.2" r="5.63"/></g><polyline class="cls-3" points="270.11 216.53 280.32 210.77 290.55 216.58 290.55 228.34 280.32 234.09 270.11 228.28 270.11 216.53"/><polyline class="cls-20" points="595.18 274.6 600.81 271.42 606.44 274.63 606.44 281.11 600.81 284.28 595.18 281.08 595.18 274.6"/><polyline class="cls-5" points="312.58 282.95 322.98 277.08 333.39 283 333.39 294.98 322.98 300.84 312.58 294.93 312.58 282.95"/><polyline class="cls-20" points="468.58 260.57 474.92 256.99 481.26 260.6 481.26 267.9 474.92 271.47 468.58 267.87 468.58 260.57"/><g class="cls-21"><polygon class="cls-1" points="386.95 226.85 397.81 233.11 397.81 245.89 386.95 252.2 375.86 245.89 375.86 233.11 386.95 226.85"/><g class="cls-76"><circle class="cls-4" cx="386.83" cy="239.86" r="13.38"/></g></g><g class="cls-21"><polygon class="cls-1" points="406.47 260.94 412.67 264.52 412.67 271.82 406.47 275.42 400.13 271.82 400.13 264.52 406.47 260.94"/><g class="cls-77"><circle class="cls-4" cx="406.4" cy="268.38" r="7.64"/></g></g><polyline class="cls-9" points="297.85 268.18 300.95 269.97 300.95 273.62 297.85 275.42 294.68 273.62 294.68 269.97"/><g class="cls-78"><circle class="cls-9" cx="297.81" cy="271.9" r="3.82"/></g><polyline class="cls-2" points="382.59 322.29 394.6 329.22 394.6 343.35 382.59 350.33 370.32 343.35 370.32 329.22"/><g class="cls-79"><circle class="cls-29" cx="382.46" cy="336.69" r="14.8"/></g><polyline class="cls-4" points="339.35 336.02 345.55 339.6 345.55 346.89 339.35 350.5 333 346.89 333 339.6"/><g class="cls-80"><circle class="cls-4" cx="339.28" cy="343.45" r="7.64"/></g><polyline class="cls-7" points="356.13 279.88 362.33 283.46 362.33 290.76 356.13 294.36 349.79 290.76 349.79 283.46"/><g class="cls-81"><circle class="cls-7" cx="356.06" cy="287.31" r="7.64"/></g><polygon class="cls-2" points="446.89 287.57 453.09 291.15 453.09 298.45 446.89 302.06 440.55 298.45 440.55 291.15 446.89 287.57"/><g class="cls-82"><circle class="cls-37" cx="446.82" cy="295.01" r="7.64"/></g><polygon class="cls-5" points="286.87 325.31 289.31 326.72 289.31 329.6 286.87 331.02 284.37 329.6 284.37 326.72 286.87 325.31"/><g class="cls-83"><circle class="cls-5" cx="286.84" cy="328.24" r="3.01"/></g><polygon class="cls-11" points="240.13 301.43 248.56 306.29 248.56 316.21 240.13 321.11 231.52 316.21 231.52 306.29 240.13 301.43"/><g class="cls-84"><circle class="cls-11" cx="240.04" cy="311.53" r="10.39"/></g><polyline class="cls-20" points="295.6 524.54 301.94 520.96 308.29 524.57 308.29 531.87 301.94 535.44 295.6 531.84 295.6 524.54"/><polyline class="cls-5" points="345.48 571.2 349.7 568.81 353.92 571.22 353.92 576.07 349.7 578.44 345.48 576.05 345.48 571.2"/><polyline class="cls-20" points="409.46 602.16 413.7 599.76 417.95 602.18 417.95 607.06 413.7 609.45 409.46 607.04 409.46 602.16"/><polyline class="cls-20" points="397.95 509.13 405.15 505.06 412.37 509.16 412.37 517.46 405.15 521.52 397.95 517.42 397.95 509.13"/><polygon class="cls-5" points="274.64 564.22 277.74 566.01 277.74 569.66 274.64 571.46 271.47 569.66 271.47 566.01 274.64 564.22"/><g class="cls-85"><circle class="cls-5" cx="274.6" cy="567.94" r="3.82"/></g><g class="cls-21"><polygon class="cls-1" points="369.47 560.13 373.24 562.3 373.24 566.74 369.47 568.93 365.62 566.74 365.62 562.3 369.47 560.13"/><g class="cls-86"><circle class="cls-4" cx="369.43" cy="564.65" r="4.65"/></g></g><polygon class="cls-4" points="440.27 598.21 448.24 602.81 448.24 612.19 440.27 616.82 432.12 612.19 432.12 602.81 440.27 598.21"/><g class="cls-87"><circle class="cls-4" cx="440.18" cy="607.76" r="9.83"/></g><polyline class="cls-2" points="371.88 507.61 375.92 509.94 375.92 514.68 371.88 517.03 367.75 514.68 367.75 509.94"/><g class="cls-88"><circle class="cls-29" cx="371.83" cy="512.44" r="4.97"/></g><polyline class="cls-6" points="246.03 618.69 258.77 626.05 258.77 641.04 246.03 648.45 233 641.04 233 626.05"/><g class="cls-89"><circle class="cls-6" cx="245.88" cy="633.97" r="15.71"/></g><polyline class="cls-5" points="407.48 549.4 418.16 555.56 418.16 568.13 407.48 574.33 396.57 568.13 396.57 555.56"/><g class="cls-90"><circle class="cls-5" cx="407.36" cy="562.2" r="13.16"/></g><polyline class="cls-3" points="316.78 544.35 322.98 547.93 322.98 555.23 316.78 558.83 310.44 555.23 310.44 547.93"/><g class="cls-91"><circle class="cls-3" cx="316.71" cy="551.78" r="7.64"/></g><polyline class="cls-8" points="348.29 531.34 354.49 534.92 354.49 542.22 348.29 545.82 341.95 542.22 341.95 534.92"/><g class="cls-92"><circle class="cls-8" cx="348.22" cy="538.77" r="7.64"/></g><polyline class="cls-2" points="381.9 589.52 388.11 593.1 388.11 600.4 381.9 604 375.56 600.4 375.56 593.1"/><g class="cls-93"><circle class="cls-29" cx="381.83" cy="596.96" r="7.64"/></g><polyline class="cls-20" points="441.94 530.45 451.87 524.85 461.82 530.5 461.82 541.94 451.87 547.53 441.94 541.89 441.94 530.45"/><polyline class="cls-20" points="545.07 312.96 551.41 309.38 557.76 313 557.76 320.29 551.41 323.87 545.07 320.26 545.07 312.96"/><polyline class="cls-20" points="656.7 352.39 667.1 346.52 677.51 352.44 677.51 364.41 667.1 370.27 656.7 364.36 656.7 352.39"/><g class="cls-21"><polygon class="cls-1" points="631.9 343.26 638.1 346.84 638.1 354.13 631.9 357.74 625.56 354.13 625.56 346.84 631.9 343.26"/><g class="cls-94"><circle class="cls-4" cx="631.83" cy="350.69" r="7.64"/></g></g><g class="cls-21"><polygon class="cls-1" points="461.09 320.61 467.29 324.19 467.29 331.49 461.09 335.09 454.75 331.49 454.75 324.19 461.09 320.61"/><g class="cls-95"><circle class="cls-4" cx="461.02" cy="328.05" r="7.64"/></g></g><polyline class="cls-2" points="557.75 339.28 563.96 342.86 563.96 350.16 557.75 353.76 551.41 350.16 551.41 342.86"/><g class="cls-96"><circle class="cls-29" cx="557.68" cy="346.71" r="7.64"/></g><polyline class="cls-3" points="596.29 302.65 608.25 309.56 608.25 323.64 596.29 330.6 584.06 323.64 584.06 309.56"/><g class="cls-97"><circle class="cls-3" cx="596.15" cy="317" r="14.75"/></g><polygon class="cls-2" points="638.27 326.21 641.28 327.95 641.28 331.5 638.27 333.26 635.18 331.5 635.18 327.95 638.27 326.21"/><g class="cls-98"><circle class="cls-37" cx="638.23" cy="329.83" r="3.72"/></g><polyline class="cls-20" points="499.04 161.4 503.93 158.64 508.82 161.42 508.82 167.04 503.93 169.79 499.04 167.02 499.04 161.4"/><polyline class="cls-12" points="448.33 223.9 454.67 220.32 461.02 223.93 461.02 231.23 454.67 234.8 448.33 231.2 448.33 223.9"/><g class="cls-21"><polygon class="cls-1" points="473.15 156.68 479.35 160.26 479.35 167.56 473.15 171.16 466.81 167.56 466.81 160.26 473.15 156.68"/><g class="cls-99"><circle class="cls-4" cx="473.08" cy="164.12" r="7.64"/></g></g><polyline class="cls-2" points="438.43 243.31 447.39 248.48 447.39 259.03 438.43 264.23 429.27 259.03 429.27 248.48"/><g class="cls-100"><circle class="cls-29" cx="438.33" cy="254.05" r="11.04"/></g><polygon class="cls-12" points="450.28 109.86 463.21 117.33 463.21 132.54 450.28 140.05 437.07 132.54 437.07 117.33 450.28 109.86"/><g class="cls-101"><circle class="cls-12" cx="450.14" cy="125.36" r="15.94"/></g><polyline class="cls-20" points="567.74 167.59 574.08 164.01 580.42 167.62 580.42 174.92 574.08 178.49 567.74 174.89 567.74 167.59"/><polyline class="cls-20" points="519.99 220.11 524.32 217.66 528.66 220.13 528.66 225.12 524.32 227.56 519.99 225.1 519.99 220.11"/><polygon class="cls-5" points="525.57 257.35 538.32 264.71 538.32 279.71 525.57 287.12 512.54 279.71 512.54 264.71 525.57 257.35"/><g class="cls-102"><circle class="cls-5" cx="525.43" cy="272.63" r="15.71"/></g><g class="cls-21"><polygon class="cls-1" points="654.14 225.09 657.15 226.84 657.15 230.39 654.14 232.14 651.05 230.39 651.05 226.84 654.14 225.09"/><g class="cls-103"><circle class="cls-4" cx="654.1" cy="228.71" r="3.72"/></g></g><polyline class="cls-2" points="557.89 178.49 570.02 185.5 570.02 199.77 557.89 206.82 545.49 199.77 545.49 185.5"/><g class="cls-104"><circle class="cls-29" cx="557.76" cy="193.04" r="14.95"/></g><polyline class="cls-4" points="589.42 217.66 595.62 221.24 595.62 228.54 589.42 232.14 583.08 228.54 583.08 221.24"/><g class="cls-105"><circle class="cls-4" cx="589.35" cy="225.09" r="7.64"/></g><polyline class="cls-2" points="580.24 253.77 584.72 256.36 584.72 261.63 580.24 264.23 575.66 261.63 575.66 256.36"/><g class="cls-106"><circle class="cls-29" cx="580.19" cy="259.14" r="5.52"/></g><polyline class="cls-2" points="609.29 192.54 612.31 194.28 612.31 197.83 609.29 199.58 606.2 197.83 606.2 194.28"/><g class="cls-107"><circle class="cls-29" cx="609.25" cy="196.15" r="3.72"/></g><polygon class="cls-2" points="650.97 183.41 657.17 186.99 657.17 194.28 650.97 197.89 644.63 194.28 644.63 186.99 650.97 183.41"/><g class="cls-108"><circle class="cls-37" cx="650.9" cy="190.84" r="7.64"/></g><polygon class="cls-7" points="490.99 212.37 497.19 215.95 497.19 223.24 490.99 226.85 484.65 223.24 484.65 215.95 490.99 212.37"/><g class="cls-109"><circle class="cls-7" cx="490.92" cy="219.8" r="7.64"/></g><polygon class="cls-2" points="555.46 238.41 561.66 241.99 561.66 249.29 555.46 252.89 549.12 249.29 549.12 241.99 555.46 238.41"/><g class="cls-110"><circle class="cls-37" cx="555.39" cy="245.85" r="7.64"/></g><polygon class="cls-2" points="497.22 300.19 499.42 301.46 499.42 304.06 497.22 305.34 494.96 304.06 494.96 301.46 497.22 300.19"/><g class="cls-111"><circle class="cls-37" cx="497.19" cy="302.83" r="2.72"/></g><polyline class="cls-20" points="505.43 528.64 511.77 525.06 518.12 528.67 518.12 535.97 511.77 539.54 505.43 535.94 505.43 528.64"/><polyline class="cls-20" points="475.65 563.39 483.35 559.04 491.07 563.43 491.07 572.3 483.35 576.64 475.65 572.26 475.65 563.39"/><polyline class="cls-3" points="638.04 526.99 644.38 523.4 650.72 527.02 650.72 534.31 644.38 537.89 638.04 534.28 638.04 526.99"/><g class="cls-21"><polygon class="cls-1" points="605.85 522.13 612.05 525.71 612.05 533.01 605.85 536.61 599.51 533.01 599.51 525.71 605.85 522.13"/><g class="cls-112"><circle class="cls-4" cx="605.78" cy="529.57" r="7.64"/></g></g><polyline class="cls-3" points="539.46 520.79 545.66 524.37 545.66 531.67 539.46 535.27 533.12 531.67 533.12 524.37"/><g class="cls-113"><circle class="cls-3" cx="539.39" cy="528.23" r="7.64"/></g><polyline class="cls-2" points="548.5 544.55 558.47 550.31 558.47 562.05 548.5 567.84 538.3 562.05 538.3 550.31"/><g class="cls-114"><circle class="cls-29" cx="548.39" cy="556.51" r="12.3"/></g><polyline class="cls-2" points="575.83 519.79 582.03 523.37 582.03 530.67 575.83 534.27 569.49 530.67 569.49 523.37"/><g class="cls-115"><circle class="cls-29" cx="575.76" cy="527.22" r="7.64"/></g><polygon class="cls-2" points="450.01 563.25 454.5 565.84 454.5 571.13 450.01 573.74 445.42 571.13 445.42 565.84 450.01 563.25"/><g class="cls-116"><circle class="cls-37" cx="449.96" cy="568.63" r="5.54"/></g><polygon class="cls-2" points="333.04 516.76 336.06 518.5 336.06 522.05 333.04 523.81 329.95 522.05 329.95 518.5 333.04 516.76"/><g class="cls-117"><circle class="cls-37" cx="333" cy="520.38" r="3.72"/></g><polygon class="cls-2" points="342.1 603.36 355.9 611.33 355.9 627.57 342.1 635.59 327.99 627.57 327.99 611.33 342.1 603.36"/><g class="cls-118"><circle class="cls-37" cx="341.95" cy="619.91" r="17.01"/></g><polyline class="cls-20" points="261.92 664.99 268.25 661.41 274.6 665.02 274.6 672.32 268.25 675.89 261.92 672.29 261.92 664.99"/><polyline class="cls-3" points="375.55 701.57 379.52 699.32 383.5 701.59 383.5 706.16 379.52 708.4 375.55 706.14 375.55 701.57"/><polyline class="cls-5" points="189.19 663.88 195.53 660.3 201.87 663.91 201.87 671.21 195.53 674.78 189.19 671.18 189.19 663.88"/><polyline class="cls-11" points="243.23 719.11 253.51 713.3 263.8 719.16 263.8 730.99 253.51 736.78 243.23 730.94 243.23 719.11"/><polyline class="cls-5" points="309.7 736.81 319.98 731 330.27 736.86 330.27 748.69 319.98 754.48 309.7 748.64 309.7 736.81"/><g class="cls-21"><polygon class="cls-1" points="307.24 646.93 313.44 650.51 313.44 657.81 307.24 661.41 300.9 657.81 300.9 650.51 307.24 646.93"/><g class="cls-119"><circle class="cls-4" cx="307.17" cy="654.37" r="7.64"/></g></g><g class="cls-21"><polygon class="cls-1" points="168.3 576.31 172.39 578.67 172.39 583.49 168.3 585.86 164.12 583.49 164.12 578.67 168.3 576.31"/><g class="cls-120"><circle class="cls-4" cx="168.26" cy="581.21" r="5.04"/></g></g><g class="cls-21"><polygon class="cls-1" points="351.42 722.3 357.62 725.88 357.62 733.18 351.42 736.78 345.08 733.18 345.08 725.88 351.42 722.3"/><g class="cls-121"><circle class="cls-4" cx="351.35" cy="729.74" r="7.64"/></g></g><polyline class="cls-2" points="413.7 670.36 419.9 673.94 419.9 681.24 413.7 684.84 407.36 681.24 407.36 673.94"/><g class="cls-122"><circle class="cls-29" cx="413.63" cy="677.79" r="7.64"/></g><polyline class="cls-2" points="298.74 718.35 302.78 720.68 302.78 725.44 298.74 727.78 294.61 725.44 294.61 720.68"/><g class="cls-123"><circle class="cls-29" cx="298.69" cy="723.19" r="4.98"/></g><polyline class="cls-2" points="323.98 774.2 329.05 777.13 329.05 783.1 323.98 786.05 318.79 783.1 318.79 777.13"/><g class="cls-124"><circle class="cls-29" cx="323.92" cy="780.29" r="6.25"/></g><polyline class="cls-3" points="296.81 673.51 300 675.35 300 679.09 296.81 680.94 293.56 679.09 293.56 675.35"/><g class="cls-125"><circle class="cls-3" cx="296.78" cy="677.33" r="3.92"/></g><polyline class="cls-2" points="208.21 594.97 214.41 598.55 214.41 605.85 208.21 609.45 201.87 605.85 201.87 598.55"/><g class="cls-126"><circle class="cls-29" cx="208.14" cy="602.4" r="7.64"/></g><polygon class="cls-4" points="357.69 664.59 363.89 668.17 363.89 675.47 357.69 679.07 351.35 675.47 351.35 668.17 357.69 664.59"/><g class="cls-127"><circle class="cls-4" cx="357.62" cy="672.02" r="7.64"/></g><polyline class="cls-20" points="513.79 593.77 520.13 590.19 526.47 593.8 526.47 601.1 520.13 604.67 513.79 601.07 513.79 593.77"/><polyline class="cls-20" points="466.44 658.79 470.37 656.57 474.31 658.81 474.31 663.34 470.37 665.56 466.44 663.32 466.44 658.79"/><polyline class="cls-20" points="638.41 628.02 642.81 625.53 647.22 628.04 647.22 633.11 642.81 635.59 638.41 633.09 638.41 628.02"/><polygon class="cls-4" points="584.1 564.73 587.8 566.86 587.8 571.22 584.1 573.37 580.31 571.22 580.31 566.86 584.1 564.73"/><g class="cls-128"><circle class="cls-4" cx="584.06" cy="569.17" r="4.56"/></g><g class="cls-21"><polygon class="cls-1" points="442.1 694.65 453.87 701.45 453.87 715.3 442.1 722.14 430.06 715.3 430.06 701.45 442.1 694.65"/><g class="cls-129"><circle class="cls-4" cx="441.97" cy="708.77" r="14.51"/></g></g><g class="cls-21"><polygon class="cls-1" points="597.07 628.35 607.63 634.45 607.63 646.88 597.07 653.02 586.27 646.88 586.27 634.45 597.07 628.35"/><g class="cls-130"><circle class="cls-4" cx="596.95" cy="641.02" r="13.02"/></g></g><polyline class="cls-2" points="632.53 596.32 636.44 598.58 636.44 603.18 632.53 605.45 628.53 603.18 628.53 598.58"/><g class="cls-131"><circle class="cls-29" cx="632.49" cy="601.01" r="4.82"/></g><polyline class="cls-5" points="548.43 642.22 552.22 644.41 552.22 648.87 548.43 651.08 544.55 648.87 544.55 644.41"/><g class="cls-132"><circle class="cls-5" cx="548.39" cy="646.77" r="4.67"/></g><polyline class="cls-5" points="485.2 687.61 490.22 690.5 490.22 696.41 485.2 699.32 480.07 696.41 480.07 690.5"/><g class="cls-133"><circle class="cls-5" cx="485.15" cy="693.62" r="6.18"/></g><polyline class="cls-2" points="526.44 677.81 530.08 679.91 530.08 684.19 526.44 686.31 522.72 684.19 522.72 679.91"/><g class="cls-134"><circle class="cls-29" cx="526.4" cy="682.17" r="4.49"/></g><polyline class="cls-2" points="552.84 589.08 559.04 592.66 559.04 599.96 552.84 603.56 546.5 599.96 546.5 592.66"/><g class="cls-135"><circle class="cls-29" cx="552.77" cy="596.51" r="7.64"/></g><polygon class="cls-2" points="590.75 587.92 596.95 591.5 596.95 598.79 590.75 602.4 584.41 598.79 584.41 591.5 590.75 587.92"/><g class="cls-136"><circle class="cls-37" cx="590.68" cy="595.35" r="7.64"/></g><polygon class="cls-3" points="437.01 645.78 440.11 647.57 440.11 651.22 437.01 653.02 433.84 651.22 433.84 647.57 437.01 645.78"/><g class="cls-137"><circle class="cls-3" cx="436.97" cy="649.5" r="3.82"/></g><polygon class="cls-2" points="501.12 645.78 508.84 650.24 508.84 659.32 501.12 663.81 493.23 659.32 493.23 650.24 501.12 645.78"/><g class="cls-138"><circle class="cls-37" cx="501.04" cy="655.04" r="9.51"/></g><polyline class="cls-4" points="511.77 186.99 518.11 183.41 524.46 187.02 524.46 194.31 518.11 197.89 511.77 194.28 511.77 186.99"/><polyline class="cls-20" points="495.43 325.41 501.77 321.83 508.12 325.44 508.12 332.74 501.77 336.31 495.43 332.71 495.43 325.41"/><polyline class="cls-20" points="388.37 299.88 391.54 298.1 394.71 299.9 394.71 303.55 391.54 305.34 388.37 303.53 388.37 299.88"/><polyline class="cls-20" points="626.14 561.23 632.48 557.65 638.83 561.26 638.83 568.56 632.48 572.13 626.14 568.53 626.14 561.23"/><polyline class="cls-11" points="473.78 608.81 485.14 602.4 496.51 608.87 496.51 621.95 485.14 628.35 473.78 621.89 473.78 608.81"/><polyline class="cls-6" points="675.69 505.63 682.18 509.38 682.18 517.02 675.69 520.79 669.05 517.02 669.05 509.38"/><g class="cls-139"><circle class="cls-6" cx="675.61" cy="513.42" r="8"/></g><polygon class="cls-2" points="695.95 461.94 700.37 464.49 700.37 469.69 695.95 472.26 691.43 469.69 691.43 464.49 695.95 461.94"/><g class="cls-140"><circle class="cls-37" cx="695.9" cy="467.23" r="5.45"/></g><polyline class="cls-20" points="666.59 243.27 672.93 239.69 679.28 243.3 679.28 250.6 672.93 254.17 666.59 250.57 666.59 243.27"/><polygon class="cls-4" points="636.3 253.47 639.7 255.44 639.7 259.44 636.3 261.41 632.83 259.44 632.83 255.44 636.3 253.47"/><g class="cls-141"><circle class="cls-4" cx="636.26" cy="257.55" r="4.19"/></g><polygon class="cls-2" points="625.63 216.19 631.83 219.77 631.83 227.07 625.63 230.67 619.29 227.07 619.29 219.77 625.63 216.19"/><g class="cls-142"><circle class="cls-37" cx="625.56" cy="223.63" r="7.64"/></g><polyline class="cls-20" points="676.7 283.14 687.5 277.04 698.31 283.19 698.31 295.63 687.5 301.72 676.7 295.58 676.7 283.14"/><g class="cls-21"><polygon class="cls-1" points="688.64 331.18 691.66 332.92 691.66 336.47 688.64 338.22 685.56 336.47 685.56 332.92 688.64 331.18"/><g class="cls-143"><circle class="cls-4" cx="688.61" cy="334.8" r="3.72"/></g></g><polygon class="cls-2" points="654.17 286.36 660.37 289.94 660.37 297.24 654.17 300.84 647.83 297.24 647.83 289.94 654.17 286.36"/><g class="cls-144"><circle class="cls-37" cx="654.1" cy="293.79" r="7.64"/></g><polyline class="cls-20" points="691.77 571.6 696.29 569.05 700.82 571.62 700.82 576.83 696.29 579.37 691.77 576.8 691.77 571.6"/><polyline class="cls-56" points="691.38 395.43 695.9 392.88 700.42 395.45 700.42 400.66 695.9 403.2 691.38 400.63 691.38 395.43"/><path class="cls-145" d="M707.11,197.23,429.31,36.84,369,2,308.69,36.84,30.87,197.24,1.59,214.15V638.4l29.28,16.91L312.15,817.7,369,850.53l56.85-32.82L707.11,655.32l29.3-16.92V214.15Zm0,425.26L369,817.7,30.87,622.49V232.06L369,36.84h0L707.11,232.06Z"/><text class="cls-146" transform="matrix(0.86, -0.5, 0.5, 0.86, 369.18, 811.04)"><tspan class="cls-147">ww</tspan><tspan class="cls-148" x="37.4" y="0">w</tspan><tspan x="54.82" y="0">.rstudi</tspan><tspan class="cls-149" x="120.07" y="0">o</tspan><tspan x="133.2" y="0">.</tspan><tspan class="cls-150" x="138.37" y="0">c</tspan><tspan class="cls-151" x="149.42" y="0">om</tspan></text></svg>