<?xml version="1.0" encoding="utf-8"?>
<!-- Generator: Adobe Illustrator 26.5.0, SVG Export Plug-In . SVG Version: 6.00 Build 0)  -->
<svg version="1.1" id="Layer_1" xmlns="http://www.w3.org/2000/svg" xmlns:xlink="http://www.w3.org/1999/xlink" x="0px" y="0px"
	 viewBox="0 0 2521 2911" style="enable-background:new 0 0 2521 2911;" xml:space="preserve">
<style type="text/css">
	.st0{fill:#141227;}
	.st1{opacity:0.94;}
	.st2{fill:#FFFFFF;}
	.st3{fill:#E6B35A;}
	.st4{opacity:0.8;fill:#F2F2F2;enable-background:new    ;}
	.st5{fill:#F7A238;}
	.st6{fill:#0088C5;}
	.st7{fill:#7FB036;}
	.st8{fill:#F9ECC6;}
	.st9{fill:#FFF34D;}
	.st10{fill:#B57AB4;}
	.st11{fill:#DB1F26;}
	.st12{fill:#F26524;}
	.st13{fill:#00A5DC;}
	.st14{fill:#164F86;}
	.st15{fill:#36A85D;}
	.st16{fill:#FFFEF9;}
	.st17{fill:#EF4782;}
	.st18{fill:#404040;}
</style>
<g>
	<polygon class="st0" points="2453.1,767.5 1260.5,78.9 1260.5,78.9 67.9,767.5 67.9,2144.2 1260.5,2832.8 2453.1,2144.2 	"/>
	<g class="st1">
		<path class="st2" d="M325.6,1254.6v84.7H398v40.8h-72.4v159.2c0,36.7,9.9,57.3,38.1,57.3c9.9,0,19.9-1,29.5-3.8l2.4,40.1
			c-9.6,4.1-25.4,7.2-44.9,7.2c-23.7,0-42.5-7.9-54.6-22.6c-14.4-15.8-19.6-42.2-19.6-76.8v-160.9H233V1339h43.2v-70.7L325.6,1254.6
			z"/>
		<path class="st2" d="M499.9,1256.3c1,17.2-11.7,31.9-28.8,32.9c-1,0-2.4,0-3.4,0c-17.8,0-30.5-14.8-30.5-32.9
			c0-18.9,13.4-33.6,31.6-33.6C487.9,1223.1,499.9,1237.5,499.9,1256.3z M443.6,1634.8v-295h50.8v295H443.6z"/>
		<path class="st2" d="M807.3,1201.5v356.8c0,26.1,0.7,56.3,2.4,76.2h-45.3l-2.4-51.1h-1c-15.4,32.9-49.4,58-95,58
			c-67.2,0-119.1-60.4-119.1-149.9c-0.7-98.1,57-158.5,124.9-158.5c42.5,0,71.4,21.3,84.1,45.3h1v-176.3h50.4V1201.5z M756.5,1459.4
			c0-7.5-0.7-15.1-2.4-22.6c-7.5-34.3-35-62.1-73.1-62.1c-52.5,0-83.4,48.7-83.4,113.9c0,59.7,27.8,109.1,82.3,109.1
			c34,0,64.8-23.7,74.1-64.2c1.7-7.5,2.4-15.4,2.4-23.3V1459.4z"/>
		<path class="st2" d="M898.2,1339.4l61.1,174.3c6.5,19.6,13.4,42.5,17.8,60.4h1c5.1-17.8,11-40.1,17.8-61.8l55.2-172.9h53.5
			l-75.8,210.3c-36.4,101.2-61.1,153-95.4,184.9c-24.7,23.3-49.4,32.2-62.1,34.7l-12.7-44.9c16.5-5.8,31.6-14.8,44.3-26.1
			c18.5-16.5,33.3-36.7,42.5-59.7c2.1-4.1,3.4-8.2,4.1-12.7c-0.3-4.8-1.7-9.6-3.4-14.1l-102.9-272.1L898.2,1339.4z"/>
		<path class="st2" d="M1165.8,1339.4l54.6,166c9.3,26.8,16.8,51.1,22.3,75.5h1.7c6.5-24.4,14.4-48.7,23.7-75.5l54.2-166h52.8
			l-109.4,295h-48.4l-106-295H1165.8z"/>
		<path class="st2" d="M1433.8,1496.8c1,72.7,44.9,102.6,95.4,102.6c36.4,0,58-6.9,77.2-15.4l8.6,38.4
			c-17.8,8.6-48.4,18.2-92.6,18.2c-85.8,0-136.9-59.7-136.9-148.9c0-89.2,49.4-159.2,130.7-159.2c90.9,0,114.9,84.7,114.9,139.3
			c0,8.2-0.7,16.8-1.7,25H1433.8z M1582.3,1458.4c0.7-34.3-13.4-87.1-70.3-87.1c-51.1,0-73.8,50.1-77.5,87.1H1582.3z"/>
		<path class="st2" d="M1682.2,1431.3c0-34.7-0.7-64.5-2.4-91.9h44.3l1.7,58h2.4c12.7-39.8,43.2-64.8,77.2-64.8
			c4.8,0,9.6,0.7,14.4,2.1v50.8c-5.5-1.4-11.3-2.1-17.2-1.7c-35.7,0-61.1,28.8-67.9,69c-1.4,8.2-2.1,16.5-2.4,25v157.5h-50.1V1431.3
			z"/>
		<path class="st2" d="M1852,1579.9c19.9,13,42.9,20.6,66.9,21.3c36.7,0,54.2-19.6,54.2-43.9c0-25.7-14.4-39.5-51.8-54.2
			c-50.1-18.9-73.8-48-73.8-83.7c0-47.7,36.4-86.5,96.1-86.5c24-0.3,47.7,6.2,68.3,18.2l-12.7,39.1c-16.8-11-36.7-17.2-57-17.2
			c-29.8,0-46.7,18.2-46.7,40.1c0,24.4,16.8,35.3,52.8,50.1c48.4,19.6,73.1,45.3,73.1,89.2c0,51.8-38.1,88.5-104,88.5
			c-30.5,0-58.7-7.9-78.2-20.2L1852,1579.9z"/>
		<path class="st2" d="M2103.5,1496.8c1,72.7,44.9,102.6,95.4,102.6c36.4,0,58-6.9,77.2-15.4l8.6,38.4
			c-17.8,8.6-48.4,18.2-92.6,18.2c-85.8,0-136.9-59.7-136.9-148.9c0-89.2,49.4-159.2,130.7-159.2c90.9,0,114.9,84.7,114.9,138.9
			c0,8.2-0.7,16.8-1.7,25h-195.6L2103.5,1496.8L2103.5,1496.8z M2252,1458.4c0.7-34.3-13.4-87.1-70.3-87.1
			c-51.1,0-73.8,50.1-77.9,87.1H2252z"/>
	</g>
	<path class="st3" d="M1270.1,2143.5c1-1,2.1-2.1,3.1-3.1h-1C1271.8,2141.5,1270.8,2142.5,1270.1,2143.5z"/>
	<polyline class="st4" points="1156.4,223.8 1169.2,216.4 1182.3,223.8 1182.3,238.6 1169.2,246 1156.4,238.6 1156.4,223.8 	"/>
	<polyline class="st4" points="969.6,383.2 985.3,374.3 1000.8,383.2 1000.8,401.1 985.3,410 969.6,401.1 969.6,383.2 	"/>
	<polyline class="st4" points="1139.7,583.9 1161.3,571.6 1183.3,583.9 1183.3,609 1161.3,621.3 1139.7,609 1139.7,583.9 	"/>
	<polyline class="st5" points="1359.3,690.3 1380.9,677.9 1402.9,690.3 1402.9,715.3 1380.9,727.7 1359.3,715.3 1359.3,690.3 	"/>
	<polyline class="st4" points="1528.5,303.3 1550.1,290.9 1572,303.3 1572,328.3 1550.1,340.7 1528.5,328.3 1528.5,303.3 	"/>
	<polyline class="st4" points="1454.7,563 1476.6,551 1498.3,563.3 1498.3,588.4 1476.6,600.4 1454.7,588 1454.7,563 	"/>
	<polygon class="st6" points="1156.5,804.9 1156.5,779.8 1135.3,767.5 1113.3,779.8 1113.3,804.9 1135.3,817.2 	"/>
	<polyline class="st4" points="436.4,721.1 458,708.8 479.6,721.1 479.6,746.2 458,758.5 436.4,746.2 436.4,721.1 	"/>
	<polyline class="st4" points="817.9,832.6 839.9,820.3 861.5,832.6 861.5,857.7 839.9,870 817.9,857.7 817.9,832.6 	"/>
	<polyline class="st7" points="1624.5,985.7 1646.5,973.3 1668.1,985.7 1668.1,1010.7 1646.5,1023.1 1624.5,1010.7 1624.5,985.7 	
		"/>
	<polyline class="st4" points="348.2,1763.4 369.8,1751.1 391.8,1763.4 391.8,1788.5 369.8,1800.8 348.2,1788.5 348.2,1763.4 	"/>
	<polyline class="st8" points="485.1,1849.9 520.5,1830 555.5,1849.9 555.5,1890.3 520.5,1910.2 485.1,1890.3 485.1,1849.9 	"/>
	<polyline class="st9" points="753.1,1967.2 764.1,1961 775.4,1967.2 775.4,1979.9 764.1,1986.1 753.1,1979.9 753.1,1967.2 	"/>
	<polyline class="st4" points="731.8,1784.7 753.4,1772.7 775.4,1785 775.4,1810.1 753.4,1822.1 731.8,1809.7 731.8,1784.7 	"/>
	<polyline class="st4" points="146.5,1982.3 157.5,1976.1 168.1,1982.3 168.1,1994.6 157.5,2000.8 146.5,1994.6 146.5,1982.3 	"/>
	<polyline class="st10" points="419.9,2173.4 454.9,2153.8 489.9,2173.7 489.9,2213.9 454.9,2233.4 419.9,2213.9 419.9,2173.4 	"/>
	<polyline class="st4" points="362,1917.5 377.1,1908.9 392.1,1917.5 392.1,1934.9 377.1,1943.5 362,1934.9 362,1917.5 	"/>
	<polyline class="st4" points="116,1400.1 129,1392.9 142.4,1400.1 142.4,1415.2 129,1422.7 116,1415.2 116,1400.1 	"/>
	<polyline class="st4" points="150.3,1105.4 172.2,1093 193.8,1105.4 193.8,1130.4 172.2,1142.8 150.3,1130.4 150.3,1105.4 	"/>
	<polyline class="st9" points="921.2,735.9 956.2,716.3 991.2,736.2 991.2,776.4 956.2,796.3 921.2,776.4 921.2,735.9 	"/>
	<polyline class="st4" points="2036.6,935.2 2055.8,924.2 2075,935.2 2075,957.5 2055.8,968.5 2036.6,957.5 2036.6,935.2 	"/>
	<polyline class="st11" points="1067,964 1102.7,943.8 1138.4,964 1138.4,1005.2 1102.7,1025.1 1067,1004.9 1067,964 	"/>
	<polyline class="st4" points="1602.2,887.2 1623.8,874.8 1645.8,887.2 1645.8,912.2 1623.8,924.6 1602.2,912.2 1602.2,887.2 	"/>
	<polyline class="st4" points="1008.7,1792.6 1030.3,1780.6 1052.2,1792.9 1052.2,1818 1030.3,1830 1008.7,1817.6 1008.7,1792.6 	
		"/>
	<polyline class="st11" points="1179.9,1952.8 1194.3,1944.6 1208.7,1952.8 1208.7,1969.6 1194.3,1977.5 1179.9,1969.3 
		1179.9,1952.8 	"/>
	<polyline class="st4" points="1399.4,2059.1 1413.9,2050.9 1428.6,2059.1 1428.6,2076 1413.9,2084.2 1399.4,2075.6 1399.4,2059.1 	
		"/>
	<polyline class="st4" points="1360,1739.7 1384.4,1726 1409.4,1740.1 1409.4,1768.6 1384.4,1782.3 1360,1768.2 1360,1739.7 	"/>
	<polyline class="st4" points="1510.6,1813.2 1544.9,1793.6 1578.9,1813.2 1578.9,1852.3 1544.9,1871.5 1510.6,1852.3 
		1510.6,1813.2 	"/>
	<polyline class="st4" points="1864.7,1067 1886.3,1054.6 1908.2,1067 1908.2,1092 1886.3,1104.4 1864.7,1092 1864.7,1067 	"/>
	<polyline class="st4" points="2247.6,1202.1 2283.2,1181.9 2318.9,1202.1 2318.9,1243.3 2283.2,1263.5 2247.6,1243.3 
		2247.6,1202.1 	"/>
	<polyline class="st4" points="1706.5,546.9 1723.3,537.3 1740.1,546.9 1740.1,566.1 1723.3,575.7 1706.5,566.1 1706.5,546.9 	"/>
	<polyline class="st7" points="1532.6,761.3 1554.5,748.9 1576.1,761.3 1576.1,786.3 1554.5,798.7 1532.6,786.3 1532.6,761.3 	"/>
	<polyline class="st4" points="1942.2,568.1 1964.2,555.8 1985.8,568.1 1985.8,593.2 1964.2,605.5 1942.2,593.2 1942.2,568.1 	"/>
	<polyline class="st4" points="1778.6,748.2 1793.3,740 1808.4,748.2 1808.4,765.4 1793.3,774 1778.6,765.4 1778.6,748.2 	"/>
	<polyline class="st4" points="1728.5,1806.6 1750.4,1794.6 1772,1807 1772,1832 1750.4,1844 1728.5,1831.7 1728.5,1806.6 	"/>
	<polyline class="st4" points="1626.2,1926 1653,1910.9 1679.4,1926 1679.4,1956.6 1653,1971.3 1626.2,1956.6 1626.2,1926 	"/>
	<polyline class="st9" points="2183.4,1801.1 2205.4,1788.8 2227,1801.1 2227,1826.2 2205.4,1838.5 2183.4,1826.2 2183.4,1801.1 	
		"/>
	<polyline class="st4" points="893.1,2274.6 914.7,2262.2 936.6,2274.6 936.6,2299.6 914.7,2312 893.1,2299.6 893.1,2274.6 	"/>
	<polyline class="st9" points="1282.8,2400.2 1296.5,2392.3 1310.2,2400.2 1310.2,2415.9 1296.5,2423.5 1282.8,2415.6 
		1282.8,2400.2 	"/>
	<polyline class="st11" points="643.6,2310.4 665.2,2298.1 687.2,2310.4 687.2,2335.5 665.2,2347.8 643.6,2335.5 643.6,2310.4 	"/>
	<polyline class="st8" points="828.9,2460.2 864.2,2440.3 899.6,2460.5 899.6,2501 864.2,2520.9 828.9,2500.7 828.9,2460.2 	"/>
	<polyline class="st11" points="1057,2520.9 1092.4,2501 1127.7,2521.3 1127.7,2561.7 1092.4,2581.6 1057,2561.4 1057,2520.9 	"/>
	<polyline class="st4" points="1757.3,2030.3 1778.9,2018 1800.9,2030.3 1800.9,2055.4 1778.9,2067.7 1757.3,2055.4 1757.3,2030.3 	
		"/>
	<polyline class="st4" points="1567.6,2290.2 1581.3,2282.7 1594.7,2290.2 1594.7,2305.6 1581.3,2313.5 1567.6,2305.6 
		1567.6,2290.2 	"/>
	<polyline class="st4" points="2184.8,2147.7 2199.9,2139.1 2215,2147.7 2215,2165.2 2199.9,2173.7 2184.8,2165.2 2184.8,2147.7 	
		"/>
	<polyline class="st5" points="1750.4,634.7 1772,622.3 1794,634.7 1794,659.7 1772,672.1 1750.4,659.7 1750.4,634.7 	"/>
	<polyline class="st4" points="1694.2,1109.5 1716.1,1097.2 1737.7,1109.5 1737.7,1134.6 1716.1,1146.9 1694.2,1134.6 
		1694.2,1109.5 	"/>
	<polyline class="st4" points="1327.1,1022 1337.7,1015.8 1348.7,1022 1348.7,1034.4 1337.7,1040.5 1327.1,1034.4 1327.1,1022 	"/>
	<polyline class="st4" points="2142.6,1918.5 2164.5,1906.5 2186.1,1918.8 2186.1,1943.9 2164.5,1955.9 2142.6,1943.5 
		2142.6,1918.5 	"/>
	<polyline class="st8" points="1620.1,2081.8 1658.8,2059.8 1697.9,2082.1 1697.9,2127.1 1658.8,2148.7 1620.1,2126.7 
		1620.1,2081.8 	"/>
	<polyline class="st4" points="2281.5,827.8 2303.1,815.5 2325.1,827.8 2325.1,852.9 2303.1,865.2 2281.5,852.9 2281.5,827.8 	"/>
	<polyline class="st4" points="2316.2,964.4 2353.2,943.5 2390.3,964.7 2390.3,1007.3 2353.2,1028.2 2316.2,1007.3 2316.2,964.4 	
		"/>
	<polygon class="st5" points="1023.1,535.2 1023.1,493.7 987.7,473.8 952.1,493.7 952.1,535.2 987.7,555.4 	"/>
	<polygon class="st5" points="1216.2,545.1 1216.2,557.5 1226.9,563.7 1237.5,557.5 1237.5,545.1 1226.9,539 	"/>
	<polygon class="st12" points="1498.3,672.1 1498.3,659.4 1487.3,652.9 1476.3,659.4 1476.3,672.1 1487.3,678.6 	"/>
	<polygon class="st5" points="1422.8,308.1 1422.8,333.1 1444.4,345.5 1465.7,333.1 1465.7,308.1 1444.4,295.7 	"/>
	<polygon class="st13" points="1190.9,318.3 1190.9,293.3 1169.7,280.9 1147.7,293.3 1147.7,318.3 1169.7,330.7 	"/>
	<polygon class="st14" points="1199.1,427.5 1236.5,448.7 1273.2,427.5 1273.2,384.6 1236.5,363.7 1199.1,384.6 	"/>
	<polygon class="st14" points="825.8,751 825.8,725.9 804.5,713.9 782.9,725.9 782.9,751 804.5,763.3 	"/>
	<polygon class="st14" points="1366.5,582.2 1366.5,565.7 1352.4,557.5 1337.7,565.7 1337.7,582.2 1352.4,590.4 	"/>
	<polygon class="st14" points="1084.5,541.7 1084.5,523.2 1068.7,513.9 1052.6,523.2 1052.6,541.7 1068.7,551 	"/>
	<polygon class="st13" points="1134.9,496.8 1156.5,509.1 1177.8,496.8 1177.8,471.7 1156.5,459.4 1134.9,471.7 	"/>
	<polygon class="st13" points="1278.3,683.4 1278.3,667.3 1264.3,659 1250.2,667.3 1250.2,683.4 1264.3,691.6 	"/>
	<polygon class="st9" points="1301.7,213.1 1301.7,188 1280.7,175.7 1258.8,188 1258.8,213.1 1280.7,225.4 	"/>
	<polygon class="st15" points="1453.3,283.4 1453.3,258.3 1432,246 1410.4,258.3 1410.4,283.4 1432,295.7 	"/>
	<polygon class="st11" points="1009.7,671.7 1031.3,684.1 1052.6,671.7 1052.6,646.7 1031.3,634.3 1009.7,646.7 	"/>
	<polygon class="st15" points="1476.3,1150.7 1476.3,1125.6 1455,1113.3 1433.4,1125.6 1433.4,1150.7 1455,1163 	"/>
	<polygon class="st9" points="1125.7,472.1 1125.7,447 1104.4,434.7 1082.8,447 1082.8,472.1 1104.4,484.4 	"/>
	<polygon class="st11" points="254.6,946.9 254.6,984.6 287.2,1003.2 320.1,984.6 320.1,946.9 287.2,928.4 	"/>
	<polygon class="st13" points="398.7,1107.4 398.7,1082.4 377.1,1070.1 355.1,1082.1 355.1,1107.1 377.1,1119.8 	"/>
	<polygon class="st9" points="605.5,942.8 605.5,910.2 577.1,894.1 548.9,909.8 548.9,942.4 577.1,958.6 	"/>
	<polygon class="st9" points="626.5,688.9 626.5,648.1 591.8,628.2 556.5,648.1 556.5,688.9 591.8,708.8 	"/>
	<polygon class="st9" points="279.6,1032.7 279.6,1046 291.3,1052.6 302.6,1046 302.6,1032.7 291.3,1026.1 	"/>
	<polygon class="st12" points="513.9,1060.4 513.9,1075.9 527.3,1083.8 540.4,1075.9 540.4,1060.4 527.3,1052.9 	"/>
	<polygon class="st5" points="755.5,862.5 755.5,837.4 734.2,825.1 712.2,837.4 712.2,862.5 734.2,874.8 	"/>
	<polygon class="st14" points="479.6,854.9 479.6,842.3 469,836.4 458,842.3 458,854.9 469,861.1 	"/>
	<polygon class="st6" points="883.1,965.8 883.1,940.7 861.8,928.4 839.9,940.7 839.9,965.8 861.8,978.1 	"/>
	<polygon class="st9" points="161.6,921.8 161.6,938 175.7,945.9 189.4,938 189.4,921.8 175.7,914 	"/>
	<polygon class="st16" points="754.4,962 712.9,938 670.4,962 670.4,1011 712.9,1035.1 754.4,1011 	"/>
	<polygon class="st14" points="479.6,1029.6 479.6,997.7 452.2,981.9 424.4,997.7 424.4,1029.6 452.2,1045.7 	"/>
	<polygon class="st14" points="662.2,1141.8 662.2,1116.7 640.9,1104.7 619.3,1116.7 619.3,1141.8 640.9,1154.1 	"/>
	<polygon class="st11" points="591.5,749.3 591.5,738.3 582.2,732.8 572.6,738.3 572.6,749.3 582.2,754.8 	"/>
	<polygon class="st15" points="621,800.1 621,816.9 635.7,825.1 649.8,816.9 649.8,800.1 635.7,791.8 	"/>
	<polygon class="st15" points="267.6,817.6 267.6,853.2 298.5,870.7 328.7,853.2 328.7,817.6 298.5,800.1 	"/>
	<polygon class="st11" points="394.2,926.6 394.2,914 383.6,907.8 372.2,914 372.2,926.6 383.6,933.2 	"/>
	<polygon class="st5" points="280,1947.6 280,1933.2 268,1926 255.6,1933.2 255.6,1947.6 268,1954.5 	"/>
	<polygon class="st5" points="147.9,1510.9 147.9,1531.8 166.1,1542.5 183.9,1531.8 183.9,1510.9 166.1,1500.6 	"/>
	<polyline class="st5" points="557.6,2239.9 557.6,2253.3 569.3,2259.8 580.6,2253.3 580.6,2239.9 569.3,2233.4 	"/>
	<polygon class="st14" points="753.1,2328.5 753.1,2340.8 764.1,2347.3 774.7,2340.8 774.7,2328.5 764.1,2322.3 	"/>
	<polygon class="st9" points="123.2,1838.9 123.2,1872.5 152.7,1889 181.1,1872.5 181.1,1838.9 152.7,1822.1 	"/>
	<polygon class="st11" points="221.8,2064.6 221.8,2103.7 255.8,2123.3 289.4,2103.7 289.4,2064.6 255.8,2045.1 	"/>
	<polygon class="st14" points="166.1,1305.4 166.1,1287.2 150.6,1278 134.5,1287.2 134.5,1305.4 150.6,1314.7 	"/>
	<polygon class="st5" points="147.2,1662.5 147.2,1649.9 136.5,1643.7 125.2,1649.9 125.2,1662.5 136.5,1669.1 	"/>
	<polygon class="st5" points="787.7,542.1 787.7,523.2 771.9,513.9 755.5,523.2 755.5,542.1 771.9,551.3 	"/>
	<polygon class="st8" points="288.2,1781.3 288.2,1742.1 254.9,1722.9 220.9,1742.1 220.9,1781.3 254.9,1800.8 	"/>
	<polygon class="st5" points="609,1825.2 609,1841.6 623.4,1849.9 637.5,1841.6 637.5,1825.2 623.4,1817.3 	"/>
	<polygon class="st5" points="816.5,1959.7 816.5,1984.7 838.2,1997 859.8,1984.7 859.8,1959.7 838.2,1947.6 	"/>
	<polygon class="st9" points="373.6,2059.1 373.6,2076 388.7,2084.5 403.1,2076 403.1,2059.1 388.7,2050.6 	"/>
	<polygon class="st14" points="666.3,1864.3 666.3,1903 699.9,1922.3 732.8,1903 732.8,1864.3 699.9,1845.4 	"/>
	<polygon class="st14" points="474.1,1959 474.1,1984 495.8,1996.4 517,1984 517,1959 495.8,1946.6 	"/>
	<polygon class="st14" points="623.7,1786.1 623.7,1769.6 610,1761.7 595.9,1769.6 595.9,1786.1 610,1793.9 	"/>
	<polygon class="st14" points="1048.1,2011.8 1048.1,1987.1 1026.9,1974.7 1005.2,1987.1 1005.2,2011.8 1026.9,2024.1 	"/>
	<polygon class="st9" points="479.6,1783.3 479.6,1768.9 467.6,1761.7 454.9,1768.9 454.9,1783.3 467.6,1790.2 	"/>
	<polygon class="st9" points="679.7,2166.2 679.7,2184.4 695.4,2193.6 711.2,2184.4 711.2,2166.2 695.4,2156.9 	"/>
	<polygon class="st5" points="1359.3,792.8 1322.3,771.6 1284.2,792.8 1284.2,836.8 1322.3,858.4 1359.3,836.8 	"/>
	<polygon class="st5" points="1367.2,925.6 1389.2,938 1410.4,925.6 1410.4,900.6 1389.2,888.2 1367.2,900.6 	"/>
	<polygon class="st12" points="1005.6,931.8 1016.6,938 1027.2,931.8 1027.2,919.4 1016.6,913.3 1005.6,919.4 	"/>
	<polygon class="st14" points="1348.3,1122.5 1307.2,1098.9 1265,1122.5 1265,1171.3 1307.2,1194.9 1348.3,1171.3 	"/>
	<polygon class="st5" points="1179.9,1183.3 1179.9,1158.2 1158.6,1145.9 1137,1158.2 1137,1183.3 1158.6,1195.6 	"/>
	<polygon class="st13" points="1237.5,965.8 1216.2,953.4 1194.6,965.8 1194.6,990.8 1216.2,1003.2 1237.5,990.8 	"/>
	<polygon class="st15" points="1549,991.8 1527.8,979.8 1505.8,991.8 1505.8,1017.2 1527.8,1029.6 1549,1017.2 	"/>
	<polygon class="st11" points="970.2,1114 970.2,1123.9 978.8,1128.7 987.1,1123.9 987.1,1114 978.8,1109.2 	"/>
	<polygon class="st8" points="847.4,1077.9 847.4,1044 818.3,1027.2 788.8,1044 788.8,1077.9 818.3,1094.8 	"/>
	<polygon class="st11" points="926,1934.9 926,1947.6 936.6,1953.8 947.3,1947.6 947.3,1934.9 936.6,1928.8 	"/>
	<polygon class="st5" points="1248.8,1922.3 1248.8,1937.4 1262.2,1944.9 1274.9,1937.4 1274.9,1922.3 1262.2,1914.7 	"/>
	<polygon class="st5" points="1532.2,2093.4 1532.2,2061.2 1505.1,2045.4 1477,2061.2 1477,2093.4 1505.1,2109.2 	"/>
	<polygon class="st14" points="1284.2,1759 1284.2,1742.5 1270.4,1734.6 1256.4,1742.5 1256.4,1759 1270.4,1766.8 	"/>
	<polygon class="st17" points="793.9,2140.8 793.9,2192.3 838.5,2218 882.4,2192.3 882.4,2140.8 838.5,2115.7 	"/>
	<polygon class="st11" points="1429.3,1942.2 1429.3,1899.3 1392.6,1878 1355.2,1899.3 1355.2,1942.2 1392.6,1963.4 	"/>
	<polygon class="st9" points="1102.7,1897.9 1102.7,1872.9 1081.4,1860.5 1059.5,1872.9 1059.5,1897.9 1081.4,1910.2 	"/>
	<polygon class="st6" points="1210.8,1853.3 1210.8,1828.3 1189.5,1815.9 1167.9,1828.3 1167.9,1853.3 1189.5,1865.6 	"/>
	<polygon class="st14" points="1283.1,2027.9 1283.1,2053 1304.8,2065.3 1326,2053 1326,2027.9 1304.8,2015.6 	"/>
	<polygon class="st5" points="2140.9,1182.9 2140.9,1208 2162.5,1220.3 2183.7,1208 2183.7,1182.9 2162.5,1170.9 	"/>
	<polygon class="st5" points="1554.9,1105.4 1554.9,1130.4 1576.5,1142.8 1597.8,1130.4 1597.8,1105.4 1576.5,1093 	"/>
	<polygon class="st14" points="1886.3,1169.5 1886.3,1194.6 1908.2,1206.9 1929.5,1194.6 1929.5,1169.5 1908.2,1157.2 	"/>
	<polygon class="st9" points="1998.5,1055.3 1998.5,1103.3 2040.3,1127.3 2081.2,1103.3 2081.2,1055.3 2040.3,1031.3 	"/>
	<polygon class="st15" points="2173.8,1118.4 2173.8,1130.4 2184.4,1136.6 2194.7,1130.4 2194.7,1118.4 2184.4,1112.3 	"/>
	<polygon class="st5" points="1639.3,568.1 1639.3,543.1 1617.7,530.7 1596,543.1 1596,568.1 1617.7,580.5 	"/>
	<polygon class="st14" points="1467.4,881.7 1498.6,899.5 1529.5,881.7 1529.5,845.7 1498.6,827.8 1467.4,845.7 	"/>
	<polygon class="st7" points="1583.7,447.7 1583.7,395.6 1539.4,370.2 1494.1,395.6 1494.1,447.7 1539.4,473.8 	"/>
	<polygon class="st11" points="1841.3,952.7 1841.3,901.3 1797.8,876.2 1752.8,901.3 1752.8,952.7 1797.8,978.1 	"/>
	<polygon class="st5" points="2228,771.2 2228,783.6 2238.6,789.4 2249.3,783.6 2249.3,771.2 2238.6,765.4 	"/>
	<polygon class="st14" points="1950.1,678.6 1950.1,629.5 1908.6,605.5 1866,629.5 1866,678.6 1908.6,702.6 	"/>
	<polygon class="st5" points="2037.9,777.1 2037.9,752 2016.7,740 1995,752 1995,777.1 2016.7,789.4 	"/>
	<polygon class="st14" points="2000.5,890.6 2000.5,872.8 1985.1,863.9 1969.7,872.8 1969.7,890.6 1985.1,899.5 	"/>
	<polygon class="st14" points="2095.2,671.7 2095.2,659.7 2084.9,653.6 2074.3,659.7 2074.3,671.7 2084.9,677.9 	"/>
	<polygon class="st13" points="1700.3,758.9 1700.3,733.8 1679.1,721.8 1657.1,733.8 1657.1,758.9 1679.1,771.6 	"/>
	<polygon class="st15" points="1878.4,823.4 1878.4,848.4 1900.4,860.8 1921.6,848.4 1921.6,823.4 1900.4,811 	"/>
	<polygon class="st15" points="1692.8,1027.5 1692.8,1036.4 1700.3,1040.5 1707.9,1036.4 1707.9,1027.5 1700.3,1023.1 	"/>
	<polygon class="st5" points="2051.3,1796.7 2051.3,1821.7 2072.9,1834.1 2094.2,1821.7 2094.2,1796.7 2072.9,1784.3 	"/>
	<polygon class="st9" points="1866.7,1817.3 1866.7,1792.2 1845.5,1779.9 1823.5,1792.2 1823.5,1817.3 1845.5,1829.6 	"/>
	<polygon class="st14" points="1841.3,1881.1 1841.3,1921.2 1876.3,1941.1 1910.6,1921.2 1910.6,1881.1 1876.3,1861.2 	"/>
	<polygon class="st14" points="1991.3,1813.8 1991.3,1788.8 1970,1776.4 1948.4,1788.8 1948.4,1813.8 1970,1826.2 	"/>
	<polygon class="st15" points="1553.8,1952.4 1553.8,1934.3 1538.4,1925.3 1522.6,1934.3 1522.6,1952.4 1538.4,1961.4 	"/>
	<polygon class="st15" points="1608.2,2517 1608.2,2498.8 1592.8,2489.9 1577,2498.8 1577,2517 1592.8,2525.9 	"/>
	<polygon class="st15" points="1126.7,1784 1137,1790.2 1147.6,1784 1147.6,1772 1137,1766.2 1126.7,1772 	"/>
	<polygon class="st15" points="1215.6,2146.3 1215.6,2090.4 1168.2,2063.3 1119.8,2090.4 1119.8,2146.3 1168.2,2173.7 	"/>
	<polygon class="st5" points="1026.9,2224.8 1026.9,2249.9 1048.5,2262.2 1069.7,2249.9 1069.7,2224.8 1048.5,2212.5 	"/>
	<polygon class="st5" points="557.5,1978.5 557.5,1995 571.9,2003.2 586,1995 586,1978.5 571.9,1970.3 	"/>
	<polygon class="st5" points="1270.1,2520.2 1270.1,2545.3 1291.7,2557.6 1313,2545.3 1313,2520.2 1291.7,2507.9 	"/>
	<polygon class="st4" points="1320.9,2664.4 1320.9,2692.1 1344.8,2705.7 1368.2,2692.1 1368.2,2664.4 1344.8,2650.8 	"/>
	<polygon class="st14" points="1373.6,2299.3 1373.6,2324.3 1395.2,2336.7 1416.5,2324.3 1416.5,2299.3 1395.2,2287.3 	"/>
	<polygon class="st14" points="1005.2,2465.7 1005.2,2481.8 1019.3,2490 1033.4,2481.8 1033.4,2465.7 1019.3,2457.5 	"/>
	<polygon class="st14" points="1148.8,2650.9 1148.8,2671.5 1166.7,2681.5 1183.8,2671.5 1183.8,2650.9 1166.7,2641 	"/>
	<polygon class="st9" points="1023.8,2323 1023.8,2309.9 1012.8,2303.8 1001.8,2309.9 1001.8,2323 1012.8,2329.1 	"/>
	<polygon class="st14" points="687.2,2046.4 687.2,2071.5 708.8,2084.2 730.1,2071.5 730.1,2046.4 708.8,2034.4 	"/>
	<polygon class="st5" points="1200.1,2285.6 1200.1,2310.6 1221.7,2323 1243,2310.6 1243,2285.6 1221.7,2273.2 	"/>
	<polygon class="st5" points="2011.2,1952.8 2011.2,1938 1998.5,1930.5 1985.4,1938 1985.4,1952.8 1998.5,1960.3 	"/>
	<polygon class="st5" points="1423,2430.4 1423,2477.7 1464.1,2501 1504.6,2477.7 1504.6,2430.4 1464.1,2407 	"/>
	<polygon class="st5" points="2006,2170 2006,2212.5 2043.1,2233.4 2079.1,2212.5 2079.1,2170 2043.1,2148.7 	"/>
	<polygon class="st14" points="2205.2,2046.8 2205.2,2062.6 2218.9,2070.5 2232.3,2062.6 2232.3,2046.8 2218.9,2038.9 	"/>
	<polygon class="st11" points="1862.6,2203.9 1862.6,2219.4 1876,2226.9 1889,2219.4 1889,2203.9 1876,2196.4 	"/>
	<polygon class="st11" points="1662.1,2382.1 1662.1,2402.4 1679.6,2412.3 1696.7,2402.4 1696.7,2382.1 1679.6,2372.2 	"/>
	<polygon class="st14" points="1832.3,2362.8 1832.3,2377.6 1845,2384.8 1857.6,2377.6 1857.6,2362.8 1845,2355.6 	"/>
	<polygon class="st14" points="1876,2089.7 1876,2114.7 1897.6,2127.1 1918.9,2114.7 1918.9,2089.7 1897.6,2077.3 	"/>
	<polygon class="st15" points="2042.7,2047.5 2042.7,2022.4 2021.5,2010.1 1999.5,2022.4 1999.5,2047.5 2021.5,2059.8 	"/>
	<polygon class="st9" points="1504.4,2227.2 1504.4,2214.9 1493.8,2208.7 1482.8,2214.9 1482.8,2227.2 1493.8,2233.4 	"/>
	<polygon class="st15" points="1686.6,2223.8 1686.6,2255 1713.7,2270.5 1740.1,2255 1740.1,2223.8 1713.7,2208.7 	"/>
	<polygon class="st17" points="2289.8,1740.8 2289.8,1766.8 2312.7,1779.9 2335,1766.8 2335,1740.8 2312.7,1727.7 	"/>
	<polygon class="st15" points="2397.5,1604.6 2397.5,1586.7 2382.4,1577.8 2366.6,1586.7 2366.6,1604.6 2382.4,1613.5 	"/>
	<polygon class="st5" points="2165.6,869.4 2165.6,883.1 2177.6,889.9 2189.2,883.1 2189.2,869.4 2177.6,862.8 	"/>
	<polygon class="st15" points="2162.1,772.3 2162.1,747.2 2140.9,734.9 2119.2,747.2 2119.2,772.3 2140.9,784.6 	"/>
	<polygon class="st5" points="2367.6,1147.6 2367.6,1135.2 2357,1129.4 2346.7,1135.2 2346.7,1147.6 2357,1153.4 	"/>
	<polygon class="st15" points="2217,987.7 2217,1012.8 2239,1025.1 2260.3,1012.8 2260.3,987.7 2239,975.7 	"/>
	<polyline class="st4" points="2368,1954.2 2383.4,1945.2 2398.9,1954.2 2398.9,1972 2383.4,1980.9 2368,1972 2368,1954.2 	"/>
	<polyline class="st10" points="2366.6,1349.7 2382.1,1341.1 2397.5,1350 2397.5,1367.8 2382.1,1376.4 2366.6,1367.5 2366.6,1349.7 
			"/>
	<path class="st18" d="M2521,2183.3V727.7l-100.5-58l-953.1-550.3L1260.5,0l-206.9,119.4L100.5,669.7L0,727.7v1455.7l100.5,58
		l965.1,557.2l195.2,112.5l195.2-112.5l965.1-557.2L2521,2183.3z M100.5,2128.8V789.4l1160-670l0,0l1160,669.7v1339.4l-1160,670
		L100.5,2128.8z"/>
</g>
</svg>
