<?xml version="1.0" encoding="utf-8"?>
<!-- Generator: Adobe Illustrator 26.5.0, SVG Export Plug-In . SVG Version: 6.00 Build 0)  -->
<svg version="1.1"
	 id="svg50" xmlns:inkscape="http://www.inkscape.org/namespaces/inkscape" xmlns:sodipodi="http://sodipodi.sourceforge.net/DTD/sodipodi-0.dtd" xmlns:svg="http://www.w3.org/2000/svg" inkscape:version="1.1.2 (b8e25be8, 2022-02-05)" sodipodi:docname="torch.svg"
	 xmlns="http://www.w3.org/2000/svg" xmlns:xlink="http://www.w3.org/1999/xlink" x="0px" y="0px" viewBox="0 0 2521 2911"
	 style="enable-background:new 0 0 2521 2911;" xml:space="preserve">
<style type="text/css">
	.st0{fill:url(#SVGID_1_);}
	.st1{fill:url(#SVGID_00000039826700432875336610000016770325320804342199_);}
	.st2{fill:#EE4D2A;enable-background:new    ;}
	.st3{fill-rule:evenodd;clip-rule:evenodd;fill:#FFFFFF;}
</style>
<sodipodi:namedview  bordercolor="#999999" borderopacity="1" id="namedview52" inkscape:current-layer="g28" inkscape:cx="28.164116" inkscape:cy="150" inkscape:pagecheckerboard="0" inkscape:pageopacity="0" inkscape:pageshadow="0" inkscape:window-height="949" inkscape:window-maximized="0" inkscape:window-width="1556" inkscape:window-x="0" inkscape:window-y="25" inkscape:zoom="2.3966667" pagecolor="#ffffff" showgrid="false">
	</sodipodi:namedview>
<g>
	<linearGradient id="SVGID_1_" gradientUnits="userSpaceOnUse" x1="106.7546" y1="586.0905" x2="2414.2454" y2="2324.9094">
		<stop  offset="4.744806e-02" style="stop-color:#DD4E53"/>
		<stop  offset="0.1194" style="stop-color:#E35343"/>
		<stop  offset="0.2281" style="stop-color:#EA5931"/>
		<stop  offset="0.3439" style="stop-color:#EE5C26"/>
		<stop  offset="0.4778" style="stop-color:#EF5D23"/>
		<stop  offset="0.8922" style="stop-color:#DD4455"/>
	</linearGradient>
	<path class="st0" d="M2521,2183.2V727.8l-100.5-58l-953.1-550.3L1260.5,0l-206.9,119.5L100.5,669.7L0,727.8v1455.5l100.5,58
		l965,557.1l195,112.6l195-112.6l964.9-557.1L2521,2183.2z"/>
	<g>
		
			<radialGradient id="SVGID_00000109016192562518173430000009976854686890766481_" cx="1182.1205" cy="17.5928" r="20.933" gradientTransform="matrix(-145.8791 -107.0768 107.0783 -145.8768 172827.5156 131332.4375)" gradientUnits="userSpaceOnUse">
			<stop  offset="0" style="stop-color:#941D3B"/>
			<stop  offset="4.000000e-02" style="stop-color:#911D44"/>
			<stop  offset="8.000000e-02" style="stop-color:#851F5E"/>
			<stop  offset="0.15" style="stop-color:#851F6F"/>
			<stop  offset="0.27" style="stop-color:#782185"/>
			<stop  offset="0.51" style="stop-color:#5E1E91"/>
			<stop  offset="1" style="stop-color:#191919"/>
		</radialGradient>
		<polygon style="fill:url(#SVGID_00000109016192562518173430000009976854686890766481_);" points="1457.2,185.5 1260.5,71.9 
			1063.8,185.5 157.8,708.6 62.3,763.7 62.3,2147.3 157.8,2202.4 1075.1,2732 1260.5,2839.1 1445.9,2732 2363.2,2202.5 
			2458.7,2147.3 2458.7,763.7 2363.2,708.5 		"/>
		<g>
			<path class="st2" d="M1605,903.4c37.4-38.5,112.9-112.2,112.9-112.2s4.2,3.5,5.8,5.1c34.4,35.2,63.9,74.1,90,115.7
				c42.5,67.7,69.1,141.3,83.7,219.6c9.5,51,12.1,102.5,8.9,154.2c-6.1,96.2-31.6,187.1-79.1,271.1
				c-49.2,87-114.2,160.3-196.8,217.1c-60.8,41.8-126.7,73.1-198.2,92.2c-66.5,17.8-134.1,25.3-202.7,22
				c-62.4-3-123.1-15.1-182.1-35.5c-73.4-25.4-139.4-63.5-199.2-112.9c-93.7-77.4-158.8-174.3-198.8-288.8
				c-16.2-46.2-26.1-93.6-31-142.1c-4.4-43.9-4.1-87.8,0.6-131.7c4.1-38.6,11.1-76.6,22.6-113.6c32.3-103.7,85.2-195.2,162.3-272.1
				c76.2-76,456.9-456,456.9-456l-0.3,228.4c0,0-147.5,146.9-218.7,217.8c-42.8,42.6-85.8,85-128.4,127.9
				c-25.3,25.5-46.5,54.2-65.8,84.5c-35.4,55.5-56.8,116.2-66.1,181.1c-15.6,108.6,2.5,211.7,56.8,307.2
				c45.2,79.3,107.8,142.3,188.3,186.4c48.6,26.6,100.3,44.8,155.3,53.7c30.5,4.9,61.1,7.4,91.9,6.5c51-1.5,100.6-10.6,148.8-27.4
				c76.1-26.4,140.7-70,195.6-128.5c65.3-69.6,106.1-151.7,121.2-245.4c24-148.6-13.1-281.2-109.8-396.8
				C1621.9,921.4,1611.7,910.4,1605,903.4z"/>
			<path class="st2" d="M1572.9,677.2c0.5,42.1-33.1,83-83.5,82.9c-44.3,0-84-35.9-83.7-84.1c0.4-49.4,43.6-83.3,85.2-82.5
				C1536.6,594.4,1573.1,631.2,1572.9,677.2z"/>
		</g>
		<path id="path128_00000106136661504403559160000015205960256644558208_" class="st3" d="M873.3,2341.6l5.9,36.1
			c-11.6,2.4-21.9,3.6-31,3.6c-14.9,0-26.5-2.3-34.7-7c-8.2-4.7-14-10.8-17.3-18.4c-3.3-7.7-5-23.8-5-48.4v-138.8H761v-31.8h30.1
			v-59.7l40.8-24.5v84.3h41.3v31.8H832v141.1c0,11.7,0.7,19.2,2.1,22.5c1.5,3.3,3.9,6,7.1,7.9c3.3,2,8.1,3,14.1,3
			C859.8,2343.2,865.9,2342.6,873.3,2341.6L873.3,2341.6z"/>
		<path id="path130_00000158025924850516166390000016863779682954494115_" class="st3" d="M897.9,2257.5c0-44.7,12.5-77.8,37.4-99.3
			c20.8-17.9,46.2-26.8,76.2-26.8c33.3,0,60.5,10.9,81.7,32.7c21.1,21.7,31.7,51.6,31.7,89.9c0,31-4.7,55.5-14.1,73.4
			c-9.3,17.7-22.9,31.5-40.8,41.3c-17.8,9.8-37.3,14.8-58.4,14.8c-33.9,0-61.4-10.8-82.4-32.5
			C908.4,2329.5,897.9,2298.3,897.9,2257.5z M940.2,2257.5c0,30.9,6.8,54.1,20.3,69.5c13.5,15.3,30.6,22.9,51.1,22.9
			c20.4,0,37.3-7.7,50.9-23.2s20.3-39,20.3-70.6c0-29.8-6.8-52.4-20.5-67.7c-13.5-15.4-30.4-23.2-50.7-23.2
			c-20.5,0-37.6,7.6-51.1,22.9C946.9,2203.5,940.2,2226.6,940.2,2257.5z"/>
		<path id="path132_00000044174602361506988440000010383951775177822605_" class="st3" d="M1172.9,2378.1v-241.2h37v36.6
			c9.4-17.1,18.1-28.4,26-33.8c8.1-5.5,16.9-8.2,26.5-8.2c13.8,0,27.9,4.4,42.2,13.2l-14.1,37.9c-10-5.9-20.1-8.9-30.1-8.9
			c-9,0-17,2.7-24.2,8.2c-7.1,5.3-12.2,12.7-15.3,22.3c-4.6,14.5-6.8,30.4-6.8,47.7v126.3H1172.9z"/>
		<path id="path134_00000118382323224088485330000018164452177114751898_" class="st3" d="M1487.5,2289.8l40.4,5.2
			c-4.4,27.7-15.7,49.4-34,65.2c-18.1,15.6-40.4,23.4-66.9,23.4c-33.2,0-59.9-10.8-80.1-32.3c-20.1-21.7-30.1-52.6-30.1-92.9
			c0-26,4.3-48.8,13-68.4c8.7-19.5,21.8-34.1,39.5-43.8c17.8-9.8,37.1-14.8,58-14.8c26.3,0,47.8,6.7,64.6,20
			c16.7,13.2,27.5,32,32.2,56.3l-39.9,6.1c-3.8-16.2-10.6-28.4-20.3-36.6c-9.6-8.2-21.2-12.3-34.9-12.3c-20.7,0-37.5,7.4-50.4,22.3
			c-12.9,14.7-19.4,38-19.4,70c0,32.4,6.2,56,18.7,70.6c12.5,14.7,28.7,22,48.8,22c16.1,0,29.6-4.9,40.4-14.8
			C1477.8,2325.4,1484.6,2310.2,1487.5,2289.8z"/>
		<path id="path136_00000048483705998731789070000018184029235047218575_" class="st3" d="M1563.1,2378.1v-333h41.1v119.5
			c19.2-22.1,43.4-33.2,72.6-33.2c17.9,0,33.5,3.6,46.8,10.7c13.2,7,22.7,16.7,28.3,29.1c5.8,12.4,8.7,30.4,8.7,54.1v152.9h-41.1
			v-152.9c0-20.4-4.5-35.3-13.5-44.5c-8.8-9.4-21.4-14.1-37.6-14.1c-12.2,0-23.7,3.2-34.5,9.5c-10.6,6.2-18.3,14.7-22.8,25.4
			c-4.6,10.8-6.8,25.6-6.8,44.5v132H1563.1z"/>
	</g>
</g>
</svg>
