<?xml version="1.0" encoding="utf-8"?>
<!-- Generator: Adobe Illustrator 24.0.0, SVG Export Plug-In . SVG Version: 6.00 Build 0)  -->
<svg version="1.1" id="Layer_1" xmlns="http://www.w3.org/2000/svg" xmlns:xlink="http://www.w3.org/1999/xlink" x="0px" y="0px"
	 viewBox="0 0 735 852" style="enable-background:new 0 0 735 852;" xml:space="preserve">
<style type="text/css">
	.st0{fill:#20E487;}
	.st1{fill:#2568C3;}
	.st2{fill:#63B600;}
	.st3{fill:#D4404E;}
	.st4{fill:#35E53A;}
	.st5{fill:#31CA27;}
	.st6{fill:#25F385;}
	.st7{fill:#AB67FF;}
	.st8{fill:#22C8A5;}
	.st9{fill:#A352FE;}
	.st10{fill:#09B1A5;}
	.st11{fill:#F65058;}
	.st12{fill:#E4714B;}
	.st13{fill:#E4704B;}
	.st14{fill:#1E8521;}
	.st15{fill:#3EF225;}
	.st16{fill:#3BFF41;}
	.st17{fill:#099A8C;}
	.st18{fill:#952FFF;}
	.st19{fill:#9C49FF;}
	.st20{fill:#3F7200;}
	.st21{fill:#A5323D;}
	.st22{fill:#62B600;}
	.st23{fill:#184480;}
	.st24{fill:#04423C;}
	.st25{fill:#5FAD00;}
	.st26{fill:#1BD78D;}
	.st27{fill:#41136F;}
	.st28{fill:#529300;}
	.st29{fill:#091D35;}
	.st30{fill:#29B32E;}
	.st31{fill:#561A1F;}
	.st32{fill:#1D559F;}
	.st33{fill:#1B3000;}
	.st34{fill:#066259;}
	.st35{fill:#5E1CA0;}
	.st36{fill:#145515;}
	.st37{fill:#2E5300;}
	.st38{fill:#102D54;}
	.st39{fill:#7E262E;}
	.st40{fill:#1E8421;}
	.st41{fill:#A352FF;}
	.st42{fill:#09B2A6;}
	.st43{fill:#E5714B;}
	.st44{fill:#31E649;}
	.st45{fill:#475EBB;}
	.st46{fill:#565656;}
	.st47{fill:#FF7B4D;}
	.st48{fill:#4AFD8D;}
</style>
<g id="Layer_1_1_">
	<g>
		<path d="M705.6,196.2L427.8,35.8L367.5,1l-60.3,34.8L29.4,196.2L6.3,209.6l-6.2,3.6l0,0v424.3l29.3,16.9l281.3,162.4l16.9,9.8
			l40,23.1l56.9-32.8l281.3-162.4l29.3-16.9V213.1L705.6,196.2z"/>
		<path class="st0" d="M141.3,179.9c30.4,0,60.8,0,91.2,0c3,0,6,0,9,0c2.2,0,2.2,0,2.2-2.2c0-0.1,0-0.2,0-0.2c0-11.5,0-23.1,0-34.6
			c0-2.8-0.1-2.5-2.7-2.5c-0.5,0-1,0-1.5,0c-23.7,0-47.3,0-71,0c-1,0-2,0-3,0c-1.2,0.1-2.2,0.7-3.2,1.3c-5.8,3.4-11.6,6.8-17.4,10.2
			c-1.9,1.1-3.9,2.3-5.8,3.4c-0.6,0.4-1,0.8-0.9,1.6c0,0.5,0,1,0,1.5c0,5.2,0,10.5,0,15.7c0,1.9-0.1,3.8-0.1,5.7l0,0
			C139.1,180.2,140.2,179.9,141.3,179.9z"/>
		<path class="st1" d="M567,140.3c-24.7,0-49.5,0-74.2,0c-0.8,0-1.7,0-2.5,0.1c-0.5,0-0.7,0.3-0.8,0.8c0,0.6,0,1.2,0,1.7
			c0,11.5,0,22.9,0,34.4c0,2.7-0.1,2.6,2.6,2.6c32.3,0,64.6,0,96.9,0c0.6,0,1.2,0,1.7,0c0.4,0,0.8-0.3,0.8-0.8
			c0-0.7,0.1-1.5,0.1-2.2c0-7.2,0-14.5,0-21.7c0-0.9,0.1-1.8,0.1-2.7c-0.7-0.4-1.3-0.8-2-1.2L571,140.4c-0.2-0.1-0.5-0.1-0.7-0.1
			l0,0C569.2,140.3,568.1,140.3,567,140.3z"/>
		<path class="st2" d="M332.5,606.6c0-1.2,0.3-1.5,1.5-1.5c3.5,0,7,0,10.5,0c1.6,0,3.2,0,4.7,0c1,0,1.2-0.3,1.2-1.2
			c0-0.1,0-0.2,0-0.2c0-6.3,0-12.6,0-18.9c0-1.3-0.3-1.5-1.4-1.6c-0.6,0-1.2,0-1.7,0c-4,0-8,0-12,0c-0.7,0-1.3,0-2-0.1
			c-0.5,0-0.7-0.4-0.8-0.8c0-0.7-0.1-1.3-0.1-2c0-6.7,0-13.5,0-20.2c0-3.3,0.3-3.1-3.1-3.1c-14.8,0-29.6,0-44.3,0
			c-0.2,0-0.3,0-0.5,0c-2.5,0-2.5,0-2.5,2.4c0,0.5,0,1,0,1.5c0,6.5,0,13,0,19.4c0,0.7,0,1.3-0.1,2c0,0.5-0.3,0.8-0.8,0.8
			c-0.6,0.1-1.2,0-1.7,0.1c-3.2,0-6.5,0-9.7,0c-0.7,0-1.3,0-2,0c-0.7,0.1-1,0.4-1,1.1c0,0.5,0,1,0,1.5c0,5.6,0,11.1,0,16.7
			c0,0.5,0,1,0,1.5c0.1,0.7,0.3,1,1.1,1c3.3,0,6.6,0,10,0c1,0,2,0,3,0c0.9,0,1.2,0.3,1.3,1.2c0,0.7,0,1.5,0,2.2
			c0,56.6,0,113.1,0,169.7l6.1,3.5c0-57.6,0-115.2,0-172.9c0-0.8,0-1.7,0-2.5c0.1-0.9,0.4-1.3,1.4-1.4c0.4,0,0.8,0,1.2,0
			c11,0,21.9,0,32.9,0c0.6,0,1.2,0,1.7,0.1s0.9,0.4,1,1c0.1,0.9,0.1,1.8,0.1,2.7c0,65,0,130,0,195.1l6,3.5c0-66.1,0-132.2,0-198.3
			C332.5,608.3,332.5,607.5,332.5,606.6z M326.5,581c0,0.4,0,0.8-0.1,1.2c0,0.5-0.3,0.8-0.8,0.8c-0.5,0.1-1,0.1-1.5,0.1
			c-11.2,0-22.4,0-33.6,0c-0.4,0-0.8,0-1.2,0c-0.8-0.1-1.1-0.3-1.1-1.1c0-0.5,0-1,0-1.5c0-5,0-10,0-15c0-0.5,0-1,0-1.5
			c0-0.6,0.3-0.9,0.9-1c0.7,0,1.3,0,2,0c5.4,0,10.8,0,16.2,0c5.6,0,11.3,0,16.9,0c2.2,0,2.2,0,2.3,2.2
			C326.5,570.5,326.5,575.7,326.5,581z M274.7,600.9c-0.7,0-1.3,0-2-0.1c-0.5-0.1-0.9-0.5-1-1c0-0.2-0.1-0.5-0.1-0.7
			c0-3.4,0-6.8,0-10.2c0-1.1,0.3-1.3,1.3-1.4c0.7,0,1.3,0,2,0c11.1,0,22.2,0,33.3,0c11.3,0,22.6,0,33.8,0c3.2,0,3.2,0,3.2,3.1
			c0,2.4,0,4.8,0,7.2c0,0.6,0,1.2,0,1.7c-0.1,0.8-0.5,1.2-1.3,1.3c-0.6,0.1-1.2,0-1.7,0C319.8,601,297.3,601,274.7,600.9z"/>
		<path class="st1" d="M568.6,677.3c3.6,0,7.1,0,10.7,0c0.7,0,1.3,0,2-0.1c0.5,0,0.8-0.3,0.8-0.8c0.1-0.7,0.1-1.3,0.1-2
			c0-6.2,0-12.4,0-18.6l0,0l0,0c-0.8,0-1.7-0.1-2.5-0.1c-3.5,0-7,0-10.5,0c-4.1,0-3.6,0.5-3.6-3.5c0-30.5,0-61,0-91.4
			c0-2.7,0.1-2.6-2.5-2.6c-15.2,0-30.4,0-45.6,0c-0.5,0-1,0-1.5,0c-0.6,0-0.9,0.3-1,0.9c0,0.7,0,1.5,0,2.2c0,21.4,0,42.9,0,64.3
			c0,9.1,0,18.1,0,27.2c0,0.7,0,1.5-0.1,2.2c0,0.3-0.3,0.6-0.6,0.7c-0.6,0.1-1.2,0.1-1.7,0.1c-3.9,0-7.8,0-11.7,0c-0.7,0-1.3,0-2,0
			c-0.4,0-0.8,0.3-0.8,0.8s-0.1,1-0.1,1.5c0,5.7,0,11.5,0,17.2c0,0.5,0,1,0,1.5s0.3,0.8,0.8,0.8c0.7,0.1,1.3,0.1,2,0.1
			c3.9,0,7.8,0,11.7,0c0.8,0,1.7-0.1,2.4,0.3c0.6,0.7,0.3,1.6,0.3,2.4c0,8.2,0,16.4,0,24.7c0,12.4,0,24.9,0,37.3l6-3.5
			c-0.1-19.2,0-38.4,0-57.6c0-0.8,0-1.7,0-2.5c0-0.6,0.3-0.9,0.9-1c0.7,0,1.3,0,2,0c10.7,0,21.4,0,32.1,0c3.1,0,2.9-0.2,2.9,3
			c0,12.1,0,24.1,0,36.2l6-3.5c0-11,0-22.1,0-33.1c0-0.8-0.3-1.7,0.3-2.4l0,0c0.3-0.2,0.5-0.3,0.8-0.5
			C567.1,677.3,567.9,677.3,568.6,677.3z M559.3,610c0,14.2,0,28.4,0,42.6c0,3.3,0.2,3.1-3.1,3.1c-10.7,0-21.4,0-32.1,0
			c-2.8,0-2.8,0.1-2.8-2.7c0-28.7,0-57.5,0-86.2c0-2.8,0-2.7,2.7-2.7c10.9,0,21.8,0,32.6,0c0.5,0,1,0,1.5,0c0.8,0.1,1.1,0.3,1.1,1.1
			c0,0.7,0,1.5,0,2.2C559.3,581.6,559.3,595.8,559.3,610z M540.3,673.2c-11.7,0-23.4,0-35.1,0c-3.2,0-3.2,0-3.2-3.1
			c0-2.4,0-4.8,0-7.2c0-0.6,0-1.2,0-1.7c0.1-0.8,0.5-1.2,1.3-1.3c0.6-0.1,1.2,0,1.7,0c23.5,0,47,0,70.5,0c0.2,0,0.5,0,0.7,0
			c1.9,0,1.9,0.1,2,2c0,3.2,0,6.5,0,9.7c0,1.5-0.2,1.6-1.8,1.7c-0.6,0-1.2,0-1.7,0C563.2,673.2,551.8,673.2,540.3,673.2z"/>
		<path class="st3" d="M607.8,185.7c-3,0-2.9-0.2-2.9,2.8c0,10.9,0,21.7,0,32.6c0,3-0.1,2.8,2.9,2.8c32.1,0,64.2,0,96.3,0
			c3.2,0,3.1,0.1,3.1-2.9c0-0.3,0-0.7,0-1c-0.6-0.9-1.7-1.4-2.6-1.9c-8.6-5-17.3-10-26-15.1c-8.4-4.9-16.8-9.9-25.3-14.8
			c-1.6-0.9-3.2-2.1-5-2.7l0,0c-1,0-2,0.1-3,0.1C632.9,185.7,620.3,185.7,607.8,185.7z"/>
		<path class="st2" d="M259,89.2c0.2,0,0.3,0,0.5,0c32.2,0,64.4,0,96.6,0c3.1,0,2.9,0.2,2.9-2.8c0-11.6,0-23.2,0-34.9
			c0-3,0.2-2.8-2.8-2.8c-10.2,0-20.4,0-30.6,0c-0.8,0-1.6,0-2.4-0.1l-6.4,3.7l-59.9,34.6l-0.1,0.1l0,0C256.8,89,256.4,89.2,259,89.2
			z"/>
		<path class="st4" d="M27.6,223.6c0.3-0.3,0.7-0.5,1.1-0.5c0.7,0,1.5,0,2.2,0c31.1,0,62.2,0,93.4,0l0,0l0,0c0-0.7,0.1-1.5,0.1-2.2
			c0-10.8,0-21.5,0-32.3c0-3.1,0.2-2.9-2.8-2.9c-10.4,0-20.9,0-31.3,0c-1,0-2-0.1-3-0.1c-1.4,0.4-2.6,1.1-3.8,1.8
			c-4.6,2.7-9.1,5.4-13.7,8c-6.5,3.8-13,7.5-19.5,11.3c-5.9,3.4-11.7,6.8-17.6,10.3c-1.9,1.1-3.9,2.1-5.7,3.5l0,0
			c0,0.7,0.1,1.4,0.1,2.2C27.2,223.1,27.2,223.4,27.6,223.6z"/>
		<path class="st5" d="M103.9,664.7L103.9,664.7c-0.8-0.9-0.5-2.1-0.5-3.1c0-33.1,0-66.1,0-99.2c0-0.7,0-1.5,0-2.2
			c0-1.3-0.2-1.5-1.6-1.5c-0.2,0-0.5,0-0.7,0c-15.3,0-30.5,0-45.8,0c-0.5,0-1,0-1.5,0.1c-0.4,0-0.6,0.3-0.6,0.6
			c-0.1,0.8-0.1,1.7-0.1,2.5c0,28,0,56.1,0,84.1l6,3.5c0-27.3,0-54.6,0-81.9c0-2.9,0-2.9,2.9-2.9c10.8,0,21.6,0,32.4,0
			c0.6,0,1.2,0,1.7,0c0.8,0.1,1.2,0.4,1.3,1.3c0.1,0.8,0,1.7,0,2.5c0,29.1,0,58.1,0,87.2c0,2.2,0,4.3,0,6.5s0,2.2-2.2,2.2
			c-3.4,0-6.8,0-10.3,0l0.7,0.4c5.2,0,10.4,0,15.6,0C102.1,664.8,103,664.7,103.9,664.7z"/>
		<path class="st6" d="M243.6,132.9c0-1.5,0-3,0-4.5c0-10.2,0-20.4,0-30.6c0-1,0.3-2-0.4-2.9c-0.2,0-0.4,0-0.6,0.1l-43.2,25
			c-0.9,0.5-1.8,1.1-2.8,1.6c-6.8,4-13.6,7.9-20.4,11.9c-0.3,0.2-0.8,0.3-0.7,0.9c0.9,0,1.8,0,2.7,0c20.6,0,41.3,0,61.9,0
			c1,0,2,0.1,3,0.1l0,0C243.7,134.1,243.6,133.5,243.6,132.9z"/>
		<path class="st7" d="M454.1,705.2c3.9,0,7.8,0,11.7,0c0.6,0,1.2,0,1.7-0.1c0.4,0,0.6-0.3,0.7-0.6s0.1-0.7,0.1-1
			c0-6.1,0-12.3,0-18.4c0-0.5,0.1-1-0.3-1.4c-5,0-10,0-14.9,0c-0.7,0-1.3,0-2-0.2c-1.9-0.5-3.7-0.5-5.6,0c-0.6,0.2-1.3,0.2-2,0.2
			c-11.6,0-23.3,0-34.9,0c-0.8,0-1.6-0.1-2.5-0.3c-1.5-0.4-3-0.4-4.4,0c-1.1,0.3-2.1,0.3-3.2,0.3c-4.5,0-9,0-13.5,0
			c-0.7,0.5-0.4,1.2-0.4,1.8c0,5.7,0,11.4,0,17.2c0,2.6,0.1,2.4,2.5,2.4c4.6,0,9.1,0,13.7,0c2.1,0,4.1,0,6.2,0l0,0l0,0
			c5.2,0,10.4-0.1,15.6-0.1c7.5,0,15,0,22.6,0c2,0,4.1,0,6.1,0l0,0h0.2l0.2,0.1l0,0C452.4,705.2,453.2,705.2,454.1,705.2z
			 M391.6,701.2c-3,0-2.8,0.1-2.8-2.9c0-2.5,0-5,0-7.5c0-0.6,0-1.2,0.1-1.7c0.1-0.4,0.4-0.8,0.8-0.8c0.7-0.1,1.5-0.1,2.2-0.1
			c11.6,0,23.2,0,34.8,0c11.4,0,22.9,0,34.3,0c3.4,0,3-0.1,3.1,3.1c0,2.6-0.2,5.1,0.3,7.7c0.1,0.3,0,0.7,0,1c-0.1,0.7-0.5,1-1.1,1.1
			s-1.2,0-1.7,0C438.2,701.2,414.9,701.2,391.6,701.2z"/>
		<path class="st7" d="M389.4,683.4c0.3,0,0.5,0,0.8,0C390,683.4,389.7,683.4,389.4,683.4z"/>
		<path class="st8" d="M219.3,616c0.2,0,0.3,0,0.5,0C219.7,616,219.5,616,219.3,616z"/>
		<path class="st8" d="M218.4,637.9L218.4,637.9c4.8,0,9.6,0,14.4,0c0.7,0,1.3,0,2-0.1c0.4,0,0.6-0.3,0.7-0.6
			c0.1-0.4,0.1-0.8,0.1-1.2c0-6,0-12.1,0-18.1c0-0.5,0-1-0.3-1.4c-6.9,0-13.9,0-20.8,0c-0.8,0-1.7,0-2.4-0.5l0,0l0,0
			c-0.7,0-1.5,0.1-2.2,0.1c-11.2,0-22.5,0-33.7,0c-0.7,0-1.5,0-2.2-0.1c-0.6,0.4-1.2,0.5-1.9,0.5c-7,0-14,0-21,0l0,0l0,0
			c-0.7,0.6-0.4,1.4-0.4,2.1c0,5.6,0,11.3,0,16.9c0,0.5,0,1,0,1.5c0,0.6,0.4,0.9,1,0.9c0.7,0,1.3,0,2,0c4.6,0,9.3,0,13.9,0
			c2.2,0,4.3,0,6.5,0l0,0l0,0l0,0l0,0c12.6,0,25.3,0,37.9,0C214.1,637.9,216.2,637.9,218.4,637.9z M204.2,633.8
			c-15.5,0-31.1,0-46.6,0c-0.8,0-1.7,0-2.5-0.1c-0.5-0.1-0.9-0.4-1-1c-0.1-0.4-0.1-0.8-0.1-1.2c0-3,0-6,0-9c0-0.3,0-0.7,0-1
			c0.1-0.7,0.4-1,1.2-1c0.7,0,1.3,0,2,0c11.7,0,23.4,0,35.1,0s23.4,0,35.1,0c0.7,0,1.5,0,2.2,0.1c0.5,0,0.9,0.4,1,1
			c0.1,0.4,0.1,0.8,0.1,1.2c0,2.9,0,5.8,0,8.7c0,0.4,0,0.8-0.1,1.2c-0.1,0.7-0.4,1-1.2,1.1c-0.7,0.1-1.3,0-2,0
			C219.8,633.8,212,633.8,204.2,633.8z"/>
		<path class="st9" d="M400.7,705.2c0,1.1,0.1,2.2,0.1,3.2c0,33.3,0,66.6,0,99.9l6.1-3.5c0-32.1,0-64.3,0-96.4c0-1.1,0-2.2,0.1-3.2
			l0,0C404.8,705.2,402.7,705.2,400.7,705.2z"/>
		<path class="st10" d="M218.4,637.9L218.4,637.9c-2.2,0-4.3,0-6.5,0c0,1.1,0,2.2,0,3.2c0,32.2,0,64.5,0,96.7l6,3.5
			c0-33.3,0-66.5,0-99.8c0-0.7,0-1.3,0-2c0-0.3,0.2-0.6,0.3-0.9l0,0C218.3,638.3,218.4,638.1,218.4,637.9z"/>
		<path class="st9" d="M445.1,708.4c0,24.8,0,49.6,0,74.3l5.9-3.4c0-23.6,0-47.3,0-70.9c0-1.1,0-2.2,0.1-3.2l0,0c-2,0-4.1,0-6.1,0
			C445.1,706.3,445.1,707.3,445.1,708.4z"/>
		<path class="st10" d="M174,637.9L174,637.9c-2.2,0-4.3,0-6.5,0c0,0.2,0.1,0.4,0.1,0.6l0,0c0.5,0.8,0.3,1.8,0.3,2.7
			c0,23.7,0,47.5,0,71.2l6,3.4c0-24.9,0-49.8,0-74.7C174,640,174,638.9,174,637.9L174,637.9L174,637.9z"/>
		<path class="st11" d="M605.1,179.9c0.9,0,1.8-0.1,2.7-0.1c9.4,0,18.9,0,28.3,0c0.3,0,0.7,0,1,0s0.7,0.2,0.8-0.5
			c-1-0.6-2.1-1.3-3.1-1.9c-5.9-3.5-11.9-6.9-17.8-10.4c-3.5-2-7-4.1-10.5-6.1c-0.4-0.2-0.8-0.6-1.4-0.1c0,2.4,0,4.9,0,7.4
			c0,3.8-0.1,7.6-0.1,11.4C605,179.7,605.1,179.8,605.1,179.9L605.1,179.9z"/>
		<path class="st12" d="M676.4,649.2l6.3-3.6c0-8.4,0-16.7,0-25.1c0-0.2,0-0.5,0-0.7c0.1-1.1,0.2-1.3,1.3-1.3c2.5,0,5,0,7.4,0
			c2.8,0,5.6,0,8.4,0c0.5,0,1,0.1,1.3-0.5c-0.2,0-0.3,0-0.5,0l0,0c-5.2,0-10.5,0-15.7,0c-1,0-2,0.1-2.9,0.3c-1.6,0.4-3.3,0.4-4.9,0
			c-1-0.2-2-0.3-2.9-0.3c-11.2,0-22.4,0-33.6,0c-0.9,0-1.8-0.3-2.6,0.5l0,0c-0.3,0.6-1,0.4-1.5,0.7c-0.3,0.4,0.1,0.6,0.3,0.8
			c0.6,0.6,0.8,1.2,0.8,2c0,0.4,0,0.8,0,1.2c0,16.2,0,32.4,0,48.5l0.9-0.5c0-16.7,0-33.4,0-50.2c0-2.6,0-2.6,2.6-2.6
			c10.9,0,21.7,0,32.6,0c3,0,2.8-0.1,2.8,2.9C676.4,630.6,676.4,639.9,676.4,649.2z"/>
		<path class="st13" d="M637.5,623.2c0-0.4,0-0.8,0-1.2c0-0.8-0.2-1.5-0.8-2c-0.2-0.2-0.5-0.4-0.3-0.8c0.5-0.3,1.2,0,1.5-0.7
			c-1.8,0-3.6,0-5.4,0c0,0.1-0.1,0.1-0.1,0.2c0,1.1,0,2.2,0,3.2c0,17.6,0,35.2,0,52.8l5-2.9C637.4,655.5,637.5,639.3,637.5,623.2z"
			/>
		<path class="st14" d="M115.7,680.7c0-3.4,0-6.8,0-10.2c0-1.2-0.4-1.5-1.7-1.6c-0.3,0-0.7,0-1,0c-6.8,0-13.6,0-20.5,0l22.7,13.1
			C115.6,681.7,115.7,681.3,115.7,680.7z"/>
		<path class="st15" d="M120.1,666.7c0-0.4,0-0.8,0-1.2c0-0.5-0.4-0.7-0.8-0.8c-0.2,0-0.5,0-0.7,0c-4.9,0-9.7,0-14.6,0l0,0
			c-0.9,0-1.8,0.1-2.7,0.1c-5.2,0-10.4,0-15.6,0l7,4c6.8,0,13.6,0,20.5,0c0.3,0,0.7,0,1,0c1.3,0.1,1.7,0.4,1.7,1.6
			c0,3.4,0,6.8,0,10.2c0,0.7-0.1,1-0.5,1.3l4.9,2.8c0-0.1,0-0.3,0-0.4C120.1,678.4,120.1,672.6,120.1,666.7z"/>
		<path class="st16" d="M124.4,179.6c0-5.1-0.1-10.2-0.1-15.3c-0.7-0.3-1.1,0.1-1.5,0.3c-4.7,2.7-9.3,5.4-13.9,8.1
			c-3.1,1.8-6.3,3.7-9.4,5.5c-0.6,0.4-1.3,0.6-1.7,1.5c1,0,1.8,0,2.7,0c7.1,0,14.3,0,21.4,0c0.8,0,1.7,0.1,2.5,0.1
			C124.2,179.8,124.3,179.7,124.4,179.6L124.4,179.6z"/>
		<path class="st13" d="M630.4,617.9c-3.5,0-7,0-10.4,0c-0.6,0-1.2,0-1.7,0c-1.5,0-1.7-0.2-1.7-1.8c0-5.8,0-11.6,0-17.4
			c0-0.2,0-0.5,0-0.7c0-0.6,0.3-0.9,0.9-1c0.7,0,1.3,0,2,0c3.6,0,7.3,0,10.9,0c0.7,0,1.5,0.2,2.1-0.5c0-9.3,0-18.7,0-28
			c0-3.6,0-7.3,0-10.9c-0.6,0.8-0.3,1.8-0.3,2.6c0,11,0,22,0,33.1c0,0.7,0,1.3,0,2c0,1.1-0.2,1.2-1.4,1.3c-0.6,0-1.2,0-1.7,0
			c-3.5,0-7,0-10.4,0c-0.6,0-1.2,0-1.7,0c-0.6,0-0.9,0.4-0.9,1c0,0.3,0,0.7,0,1c0,6,0,11.9,0,17.9c0,0.4,0,0.8,0.1,1.2
			s0.3,0.6,0.7,0.6c0.6,0.1,1.2,0.1,1.7,0.1c3.7,0,7.5,0,11.2,0c0.8,0,1.7-0.1,2.5,0.2l0.2-0.1h0.2l0.1-0.2
			C631.9,617.7,631.1,617.9,630.4,617.9z"/>
		<path class="st17" d="M139.2,269.3c0.7,0,1.5,0,2.2,0c16.4,0,32.9,0,49.3,0c16.7,0,33.4,0,50,0c2.9,0,2.9,0.1,2.9-2.9
			c0-11.3,0-22.6,0-33.9c0-0.6,0-1.2,0-1.7c-0.1-0.9-0.3-1.2-1.2-1.3c-0.6,0-1.2,0-1.7,0c-33.3,0-66.6,0-99.8,0
			c-3,0-2.8-0.2-2.8,2.9c0,11.4,0,22.7,0,34.1c0,0.5,0,1,0,1.5C138.1,269,138.4,269.3,139.2,269.3z"/>
		<path class="st18" d="M473,229.6c-32.6,0-65.1,0-97.7,0c-0.5,0-1,0-1.5,0c-1.6,0-1.7,0.1-1.7,1.7c0,0.4,0,0.8,0,1.2
			c0,11.3,0,22.6,0,33.9c0,3.2-0.1,2.9,3,2.9c16.4,0,32.7,0,49.1,0s32.7,0,49.1,0c3,0,2.8,0.2,2.8-2.8c0-11.3,0-22.6,0-33.9
			C476.1,229.2,476.4,229.6,473,229.6z"/>
		<path class="st19" d="M374.8,134.7c32.8,0,65.6,0,98.4,0c3.1,0,2.9,0.1,2.9-2.8c0-11.4,0-22.8,0-34.1c0-3.1,0.2-2.8-2.8-2.8
			c-16.4,0-32.7,0-49.1,0c-16.3,0-32.5,0-48.8,0c-0.7,0-1.3,0-2,0c-1,0-1.2,0.2-1.3,1.1c0,0.5,0,1,0,1.5c0,11.5,0,22.9,0,34.4
			C372.1,134.9,372,134.7,374.8,134.7z"/>
		<path class="st19" d="M372.2,179.2c0.1,0.5,0.4,0.7,0.8,0.8c0.5,0,1,0,1.5,0c33,0,66.1,0,99.1,0c0.6,0,1.2,0,1.7-0.1
			c0.5,0,0.7-0.4,0.7-0.8c0-0.6,0-1.2,0-1.7c0-11.5,0-22.9,0-34.4c0-2.9,0.2-2.6-2.7-2.6c-16.4,0-32.7,0-49.1,0
			c-16.6,0-33.2,0-49.8,0c-2.4,0-2.4-0.2-2.4,2.5c0,11.5,0,23.1,0,34.6C372.1,178,372.1,178.6,372.2,179.2z"/>
		<path class="st20" d="M358.9,230.9c-0.1-1-0.3-1.2-1.2-1.3c-0.6,0-1.2,0-1.7,0c-32.1,0-64.2,0-96.4,0c-3.1,0-2.9-0.2-2.9,3
			c0,11.2,0,22.4,0,33.6c0,3.3-0.3,3.1,3,3.1c16,0,32,0,48.1,0c15.9,0,31.7,0,47.6,0c0.7,0,1.3,0,2,0c1.3,0,1.5-0.2,1.5-1.4
			c0-0.5,0-1,0-1.5c0-11.3,0-22.6,0-33.9C358.9,232,359,231.4,358.9,230.9z"/>
		<path class="st21" d="M608.1,269.4c15.9,0,31.9,0,47.8,0c16.2,0,32.4,0,48.6,0c2.7,0,2.7,0,2.8-2.8c0-0.1,0-0.2,0-0.2
			c0-11.3,0-22.6,0-33.9c0-3,0.2-2.9-2.8-2.9c-32.2,0-64.4,0-96.6,0c-3,0-2.9-0.2-2.9,2.8c0,11.3,0,22.6,0,33.9
			C605,269.6,604.7,269.4,608.1,269.4z"/>
		<path class="st22" d="M359,98c0-3.4,0.3-3.1-3.1-3.1c-16,0-32,0-48,0c-16.1,0-32.2,0-48.3,0c-3,0-2.8-0.2-2.8,2.9
			c0,11.3,0,22.6,0,33.9c0,0.5,0,1,0,1.5c0.1,1.2,0.3,1.5,1.5,1.5c2.2,0,4.3,0,6.5,0c30.3,0,60.6,0,90.9,0c3.8,0,3.4,0.1,3.4-3.3
			C359,120.3,359,109.2,359,98z"/>
		<path class="st23" d="M588.6,229.6c-15.9,0-31.9,0-47.8,0s-31.9,0-47.8,0c-0.7,0-1.5,0-2.2,0c-1.1,0-1.2,0.3-1.3,1.4
			c0,0.3,0,0.7,0,1c0,11.6,0,23.2,0,34.9c0,2.4,0.1,2.5,2.5,2.5c0.1,0,0.2,0,0.2,0c32.2,0,64.4,0,96.6,0c0.6,0,1.2,0,1.7-0.1
			s0.9-0.4,1-1c0.1-0.7,0.1-1.3,0.1-2c0-11.3,0-22.6,0-33.9C591.6,229.4,591.8,229.6,588.6,229.6z"/>
		<path class="st24" d="M240.7,316.9c-33.3,0-66.6,0-99.9,0c-2.8,0-2.7,0-2.7,2.8c0,10.9,0,21.8,0,32.6c0,3.1-0.2,2.9,3,2.9
			c16.4,0,32.9,0,49.3,0c16.7,0,33.4,0,50.1,0c3.2,0,3.2,0,3.2-3.1c0-10.7,0-21.4,0-32.1C243.8,316.9,243.7,316.9,240.7,316.9z"/>
		<path class="st25" d="M358.9,141.6c-0.1-1-0.2-1.2-1.2-1.2c-0.5,0-1,0-1.5,0c-32.3,0-64.6,0-96.9,0c-2.8,0-2.7-0.1-2.7,2.8
			c0,11.2,0,22.4,0,33.6c0,3.4-0.3,3.2,3.3,3.2c15.9,0,31.9,0,47.8,0c16,0,32.1,0,48.1,0c3.2,0,3,0.2,3-2.9c0-11.3,0-22.6,0-33.9
			C359,142.6,359,142.1,358.9,141.6z"/>
		<path class="st26" d="M141.3,223.8c33,0,66.1,0,99.1,0c0.6,0,1.2,0,1.7,0c1.3,0,1.5-0.2,1.5-1.4c0-0.4,0-0.8,0-1.2
			c0-10.9,0-21.7,0-32.6c0-3.1,0-2.8-2.9-2.8c-16.7,0-33.4,0-50,0s-33.2,0-49.8,0c-3,0-2.9-0.2-2.9,2.8c0,10.7,0,21.4,0,32.1
			C138,224.1,137.7,223.8,141.3,223.8z"/>
		<path class="st27" d="M472.7,316.9c-16.5,0-33,0-49.5,0c-16.1,0-32.2,0-48.3,0c-2.9,0-2.9,0-2.9,2.9c0,10.8,0,21.6,0,32.4
			c0,0.7,0,1.3,0.1,2c0.1,0.5,0.4,0.9,1,0.9c0.7,0,1.5,0.1,2.2,0.1c16.3,0,32.5,0,48.8,0c16.4,0,32.9,0,49.3,0
			c2.8,0,2.7,0.1,2.7-2.7c0-10.7,0-21.4,0-32.1C476.1,317.1,476.4,316.9,472.7,316.9z"/>
		<path class="st19" d="M476.1,188.5c0-3,0.2-2.8-2.9-2.8c-16.4,0-32.7,0-49.1,0c-16.3,0-32.5,0-48.8,0c-0.7,0-1.3,0-2,0
			c-1,0-1.2,0.2-1.3,1.1c0,0.6,0,1.2,0,1.7c0,10.8,0,21.6,0,32.4c0,3.2-0.2,2.9,3,2.9c15.6,0,31.2,0,46.8,0c17.1,0,34.2,0,51.3,0
			c3.2,0,2.9,0.1,2.9-2.8C476.1,210.2,476.1,199.4,476.1,188.5z"/>
		<path class="st28" d="M355.9,185.7c-16,0-32,0-48.1,0c-15.9,0-31.7,0-47.6,0c-0.7,0-1.5,0-2.2,0c-1.1,0-1.2,0.2-1.3,1.4
			c0,0.5,0,1,0,1.5c0,10.8,0,21.6,0,32.4c0,2.8-0.2,3,3,3c32,0,64.1,0,96.1,0c0.6,0,1.2,0,1.7,0c0.9-0.1,1.2-0.4,1.3-1.2
			c0-0.7,0-1.3,0-2c0-10.6,0-21.3,0-31.9C358.9,185.5,359.2,185.7,355.9,185.7z"/>
		<path class="st29" d="M588.2,316.8c-31.8,0-63.6,0-95.4,0c-0.6,0-1.2,0-1.7,0c-1.1,0.1-1.5,0.5-1.6,1.5c0,0.6,0,1.2,0,1.7
			c0,10.7,0,21.4,0,32.1c0,3.1-0.2,2.9,3,2.9c16,0,32,0,48.1,0s32.2,0,48.3,0c2.8,0,2.7,0.1,2.7-2.7c0-10.7,0-21.4,0-32.1
			C591.6,317,591.7,316.8,588.2,316.8z"/>
		<path class="st30" d="M124.4,232.6c0-0.7,0-1.3,0-2c0-0.6-0.3-0.9-0.9-1c-0.7,0-1.5,0-2.2,0c-15.1,0-30.2,0-45.3,0
			c-15.3,0-30.7,0-46,0c-2.8,0-2.7-0.1-2.7,2.7c0,11.4,0,22.7,0,34.1c0,2.8-0.1,2.9,2.8,2.9c30.5,0,61.1,0,91.6,0
			c2.9,0,2.8,0.1,2.8-2.9C124.4,255.2,124.4,243.9,124.4,232.6z"/>
		<path class="st31" d="M703.5,355.2c0.7,0,1.3,0,2,0c1.6,0,1.7-0.1,1.7-1.7c0-0.5,0-1,0-1.5c0-10.5,0-20.9,0-31.4
			c0-3.7,0.3-3.4-3.3-3.4c-31.8,0-63.6,0-95.3,0c-0.5,0-1,0-1.5,0c-1.9,0-2,0.1-2,2c0,0.4,0,0.8,0,1.2c0,10.5,0,21.1,0,31.6
			c0,3.3-0.2,3.1,3.1,3.1c16,0,32,0,48,0C671.9,355.2,687.7,355.2,703.5,355.2z"/>
		<path class="st32" d="M492.2,223.7c32.2,0,64.4,0,96.6,0c2.8,0,2.7,0,2.7-2.7c0-10.6,0-21.3,0-31.9c0-3.7,0.4-3.4-3.3-3.4
			c-15.9,0-31.9,0-47.8,0c-16.2,0-32.4,0-48.6,0c-2.5,0-2.5,0-2.5,2.5c0,11,0,21.9,0,32.9C489.5,223.8,489.4,223.7,492.2,223.7z"/>
		<path class="st33" d="M356,317.3c-32.1,0-64.3,0-96.4,0c-3,0-2.9-0.1-2.9,2.8c0,10.7,0,21.4,0,32.1c0,3.1-0.2,3,3,3
			c15.9,0,31.9,0,47.8,0s31.9,0,47.8,0c0.7,0,1.3,0,2,0c1.3-0.1,1.5-0.2,1.5-1.4c0-0.5,0-1,0-1.5c0-10.7,0-21.4,0-32.1
			C358.9,317.2,359,317.3,356,317.3z"/>
		<path class="st34" d="M141.2,311.4c16.5,0,33,0,49.6,0s33.2,0,49.8,0c0.7,0,1.5,0,2.2,0c0.4,0,0.8-0.3,0.8-0.8
			c0.1-0.6,0.1-1.2,0.1-1.7c0-10.4,0-20.8,0-31.1c0-2.7,0-2.8-2.8-2.8c-33.4,0-66.7,0-100.1,0c-2.8,0-2.7-0.1-2.7,2.7
			c0,10.2,0,20.4,0,30.6C138.1,311.6,137.9,311.4,141.2,311.4z"/>
		<path class="st35" d="M473.3,275c-32.8,0-65.6,0-98.4,0c-2.7,0-2.9-0.3-2.9,2.9c0,10.2,0,20.4,0,30.7c0,3.2-0.1,3,3,3
			c16.4,0,32.7,0,49.1,0s32.9,0,49.3,0c2.8,0,2.7,0.1,2.7-2.8c0-10.3,0-20.6,0-30.9C476.1,274.8,476.3,275,473.3,275z"/>
		<path class="st36" d="M121.5,316.9c-30.5,0-60.9,0-91.4,0c-3,0-3,0-3,3.1c0,10.7,0,21.4,0,32.1c0,3.3-0.2,3.1,3.1,3.1
			c15.1,0,30.2,0,45.3,0c15.3,0,30.5,0,45.8,0c3.1,0,2.9,0.2,2.9-3c0-10.9,0-21.8,0-32.6C124.3,316.8,124.3,316.9,121.5,316.9z"/>
		<path class="st37" d="M355.9,275c-15.9,0-31.9,0-47.8,0c-0.8,0-1.7,0-2.5,0c-15.3,0-30.6,0-45.8,0c-3.1,0-2.9-0.2-2.9,3
			c0,6.7,0,13.5,0,20.2c0,3.8,0,7.6,0,11.5c0,1.6,0.1,1.7,1.7,1.8c0.3,0,0.7,0,1,0c32.2,0,64.4,0,96.7,0c2.9,0,2.8,0.1,2.8-2.9
			c0-10.1,0-20.3,0-30.4C358.9,274.8,359.2,275,355.9,275z"/>
		<path class="st38" d="M489.5,308.4c0,3.1-0.2,2.9,3,2.9c16,0,32,0,48.1,0c16.2,0,32.4,0,48.6,0c2.5,0,2.5,0,2.5-2.5
			c0-0.1,0-0.2,0-0.2c0-10.3,0-20.6,0-30.9c0-3,0.1-2.8-2.9-2.8c-32.1,0-64.3,0-96.4,0c-3,0-2.9-0.1-2.9,2.8
			C489.5,288,489.5,298.2,489.5,308.4z"/>
		<path class="st39" d="M608.1,311.4c15.9,0,31.9,0,47.8,0c15.9,0,31.7,0,47.6,0c0.7,0,1.3,0,2,0c1.6,0,1.7-0.2,1.8-1.7
			c0-0.6,0-1.2,0-1.7c0-9.9,0-19.8,0-29.7c0-3.7,0.3-3.4-3.3-3.4c-31.8,0-63.6,0-95.4,0c-0.6,0-1.2,0-1.7,0c-1.6,0-1.7,0.1-1.8,1.7
			c0,0.5,0,1,0,1.5c0,10.1,0,20.1,0,30.2C605,311.6,604.8,311.4,608.1,311.4z"/>
		<path class="st40" d="M124.3,277.7c0-0.6,0-1.2,0-1.7c0-0.6-0.3-0.9-0.9-1c-0.7,0-1.5,0-2.2,0c-15.1,0-30.2,0-45.3,0
			c-15.3,0-30.5,0-45.8,0c-3,0-2.9-0.2-2.9,2.8c0,10.3,0,20.6,0,30.9c0,0.6,0,1.2,0,1.7c0,0.6,0.3,0.9,0.9,1c0.7,0,1.3,0,2,0
			c30.5,0,60.9,0,91.4,0c3,0,2.9,0.1,2.9-2.8C124.3,298.3,124.3,288,124.3,277.7z"/>
		<path class="st41" d="M401.6,683.4c1.4-0.4,3-0.4,4.4,0c0.8,0.2,1.6,0.3,2.5,0.3c11.6,0,23.3,0,34.9,0c0.7,0,1.3,0,2-0.2
			c1.9-0.5,3.7-0.5,5.6,0c0.6,0.2,1.3,0.2,2,0.2c5,0,10,0,14.9,0c-0.5-0.5-1.1-0.3-1.7-0.3c-3.9,0-7.8,0-11.7,0
			c-3.7,0-3.3,0.3-3.3-3.3c0-40,0-80.1,0-120.1c0-3.1,0.2-2.9-2.8-2.9c-14.8,0-29.6,0-44.3,0c-3.8,0-3.4-0.5-3.4,3.3
			c0,38.1,0,76.2,0,114.3c0,2.2,0,4.3,0,6.5s0,2.2-2.2,2.2c-2.8,0-5.5,0-8.3,0c-0.3,0-0.5,0-0.8,0c-0.9,0-1.7,0-2.6,0
			c-0.6,0-1.3-0.2-1.9,0.3l0,0c4.5,0,9,0,13.5,0C399.5,683.7,400.5,683.7,401.6,683.4z M442,683.4c-10.8,0-21.6,0-32.4,0
			c-2.9,0-2.8,0.1-2.8-2.9c0-19,0-38,0-57.1c0-19,0-38,0-57.1c0-3.2-0.2-3.2,3.1-3.2c10.7,0,21.4,0,32.1,0c3.3,0,3.1,0,3.1,3.2
			c0,38,0,75.9,0,113.9C445.1,683.6,445.3,683.4,442,683.4z"/>
		<path class="st42" d="M172,616.4c0.7,0,1.3-0.1,1.9-0.5c0-1,0.1-2,0.1-3c0-15.1,0-30.2,0-45.3c0-3.3-0.2-3.1,3.1-3.1
			c10.7,0,21.4,0,32.1,0c2.9,0,2.8-0.1,2.8,2.9c0,15.2,0,30.4,0,45.6c0,1,0,2,0.1,3l0,0c0.7,0.5,1.6,0.5,2.4,0.5
			c6.9,0,13.9,0,20.8,0l0,0c-0.4-0.6-1.1-0.4-1.6-0.4c-4,0-8,0-12,0c-0.8,0-1.3,0-1.8,0c-0.2,0-0.4,0-0.5,0c-1.2-0.1-1-0.7-1-3.3
			c0-17.1,0-34.2,0-51.3c0-0.7,0-1.5,0-2.2c0-0.6-0.3-0.9-0.9-1c-0.7,0-1.3,0-2,0c-14.9,0-29.7,0-44.6,0c-0.6,0-1.2,0-1.7,0
			c-1,0.1-1.3,0.3-1.3,1.4c0,1.3,0,2.7,0,4c0,16.5,0,33.1,0,49.6c0,3.1,0.2,2.9-3,2.9c-3.9,0-7.8,0-11.7,0c-0.6,0-1.3-0.2-1.9,0.3
			l0,0C158.1,616.4,165,616.4,172,616.4z"/>
		<path class="st43" d="M701.4,598.3c0-0.3,0-0.7-0.1-1s-0.3-0.6-0.7-0.6c-0.6-0.1-1.2-0.1-1.7-0.1c-4.5,0-9,0-13.4,0
			c-0.7,0-1.3,0-2-0.1c-0.5,0-0.7-0.3-0.8-0.8c0-0.7,0-1.5,0-2.2c0-10.9,0-21.9,0-32.8c0-0.7,0-1.3,0-2c0-1.3-0.1-1.4-1.4-1.5
			c-0.5,0-1,0-1.5,0c-14.9,0-29.8,0-44.8,0c-0.7,0-1.3,0-2,0.1c-0.2,0-0.4,0.2-0.6,0.4l0,0c0,3.6,0,7.3,0,10.9c0,9.3,0,18.7,0,28
			c2.1,0,4.1-0.3,6.2,0.4c0.5,0.2,1,0.1,1.5,0.1c11.4,0,22.9,0,34.3,0c0.7,0,1.3,0,2-0.1c2-0.5,4.1-0.5,6.1,0
			c0.7,0.2,1.5,0.2,2.2,0.2c4.6,0,9.1,0,13.7,0c2.2,0,2.2,0,2.2,2.2c0,6.2,0,12.4,0,18.7c0.2,0,0.3,0,0.5,0c0.1-0.3,0.2-0.6,0.2-1
			C701.4,610.7,701.4,604.5,701.4,598.3z M676.4,566.1c0,9.2,0,18.4,0,27.7c0,2.9,0.1,2.8-2.9,2.8c-5.4,0-10.8,0-16.2,0
			c-5.6,0-11.1,0-16.7,0c-2.2,0-2.2,0-2.2-2.2c0-9.6,0-19.1,0-28.7c0-0.3,0-0.7,0-1c0.1-1,0.4-1.4,1.3-1.4c0.6-0.1,1.2,0,1.7,0
			c10.7,0,21.4,0,32.1,0C676.5,563.2,676.4,563.1,676.4,566.1z"/>
		<path class="st44" d="M30.9,223.1c-0.7,0-1.5,0-2.2,0c-0.4,0-0.8,0.1-1.1,0.5c0.6,0.6,1.4,0.3,2.1,0.3c30.8,0,61.5,0,92.3,0
			c0.6,0,1.2,0,1.7-0.1c0.4,0,0.5-0.4,0.5-0.7l0,0C93.2,223.1,62,223.1,30.9,223.1z"/>
		<path class="st45" d="M582.1,674.4c0,0.7,0,1.3-0.1,2c0,0.5-0.4,0.8-0.8,0.8c-0.7,0.1-1.3,0.1-2,0.1c-3.6,0-7.1,0-10.7,0
			c-0.7,0-1.5,0.1-2.2,0.1c0.3,0.1,0.6,0.2,1,0.2c4.6,0,9.1,0,13.7,0c1.6,0,1.7-0.1,1.7-1.7c0-0.2,0-0.5,0-0.7c0-5.7,0-11.5,0-17.2
			c0-0.6,0-1.2-0.1-1.7c0-0.2-0.3-0.3-0.5-0.5l0,0C582.1,662,582.1,668.2,582.1,674.4z"/>
		<path class="st20" d="M344.1,600.9c0.8-0.1,1.2-0.5,1.3-1.3c0.1-0.6,0-1.2,0-1.7c0-2.4,0-4.8,0-7.2c0-3.1,0-3.1-3.2-3.1
			c-11.3,0-22.6,0-33.8,0c-11.1,0-22.2,0-33.3,0c-0.7,0-1.3,0-2,0c-1.1,0.1-1.3,0.3-1.3,1.4c0,3.4,0,6.8,0,10.2c0,0.2,0,0.5,0.1,0.7
			c0.1,0.5,0.5,0.9,1,1c0.7,0.1,1.3,0.1,2,0.1c22.6,0,45.1,0,67.7,0C343,600.9,343.6,601,344.1,600.9z"/>
		<path class="st46" d="M324.2,563.1c-5.6,0-11.3,0-16.9,0c-5.4,0-10.8,0-16.2,0c-0.7,0-1.3,0-2,0c-0.6,0-0.9,0.4-0.9,1
			c0,0.5,0,1,0,1.5c0,5,0,10,0,15c0,0.5,0,1,0,1.5c0.1,0.7,0.3,1,1.1,1.1c0.4,0,0.8,0,1.2,0c11.2,0,22.4,0,33.6,0c0.5,0,1,0,1.5-0.1
			s0.7-0.4,0.8-0.8c0-0.4,0.1-0.8,0.1-1.2c0-5.2,0-10.5,0-15.7C326.5,563.1,326.5,563.1,324.2,563.1z"/>
		<path class="st46" d="M559.2,565.2c0-0.7-0.3-1-1.1-1.1c-0.5,0-1,0-1.5,0c-10.9,0-21.8,0-32.6,0c-2.8,0-2.7-0.1-2.7,2.7
			c0,28.7,0,57.5,0,86.2c0,2.8,0,2.7,2.8,2.7c10.7,0,21.4,0,32.1,0c3.3,0,3.1,0.2,3.1-3.1c0-14.2,0-28.4,0-42.6
			c0-14.2,0-28.4,0-42.6C559.3,566.7,559.3,565.9,559.2,565.2z"/>
		<path class="st23" d="M576.4,673.2c1.6,0,1.7-0.2,1.8-1.7c0-3.2,0-6.5,0-9.7c0-1.9-0.1-2-2-2c-0.2,0-0.5,0-0.7,0
			c-23.5,0-47,0-70.5,0c-0.6,0-1.2,0-1.7,0c-0.8,0.1-1.2,0.5-1.3,1.3c-0.1,0.6,0,1.2,0,1.7c0,2.4,0,4.8,0,7.2c0,3.1,0,3.1,3.2,3.1
			c11.7,0,23.4,0,35.1,0c11.5,0,22.9,0,34.4,0C575.2,673.2,575.8,673.3,576.4,673.2z"/>
		<path class="st35" d="M463.2,701.1c0.7-0.1,1.1-0.4,1.1-1.1c0-0.3,0.1-0.7,0-1c-0.5-2.5-0.3-5.1-0.3-7.7c-0.1-3.3,0.3-3.1-3.1-3.1
			c-11.4,0-22.9,0-34.3,0c-11.6,0-23.2,0-34.8,0c-0.7,0-1.5,0-2.2,0.1c-0.5,0-0.8,0.3-0.8,0.8c-0.1,0.6-0.1,1.2-0.1,1.7
			c0,2.5,0,5,0,7.5c0,2.9-0.1,2.9,2.8,2.9c23.3,0,46.6,0,69.9,0C462.1,701.2,462.7,701.2,463.2,701.1z"/>
		<path class="st46" d="M212,613c0-15.2,0-30.4,0-45.6c0-3,0.1-2.9-2.8-2.9c-10.7,0-21.4,0-32.1,0c-3.3,0-3.1-0.2-3.1,3.1
			c0,15.1,0,30.2,0,45.3c0,1,0,2-0.1,3c0.7,0,1.5,0.1,2.2,0.1c11.2,0,22.5,0,33.7,0c0.7,0,1.5,0,2.2-0.1l0,0
			C212,615,212,614,212,613z"/>
		<path class="st34" d="M229.6,633.7c0.7-0.1,1.1-0.4,1.2-1.1c0.1-0.4,0.1-0.8,0.1-1.2c0-2.9,0-5.8,0-8.7c0-0.4,0-0.8-0.1-1.2
			c-0.1-0.5-0.4-0.9-1-1c-0.7-0.1-1.5-0.1-2.2-0.1c-11.7,0-23.4,0-35.1,0c-11.7,0-23.4,0-35.1,0c-0.7,0-1.3,0-2,0
			c-0.8,0-1.1,0.3-1.2,1c0,0.3,0,0.7,0,1c0,3,0,6,0,9c0,0.4,0,0.8,0.1,1.2c0.1,0.6,0.4,0.9,1,1c0.8,0.1,1.7,0.1,2.5,0.1
			c15.5,0,31.1,0,46.6,0c7.8,0,15.6,0,23.4,0C228.3,633.8,228.9,633.8,229.6,633.7z"/>
		<path class="st47" d="M637.9,618.4L637.9,618.4c0.7-0.8,1.7-0.5,2.6-0.5c11.2,0,22.4,0,33.6,0c1,0,2,0.1,2.9,0.3
			c1.6,0.4,3.3,0.4,4.9,0c1-0.2,2-0.3,2.9-0.3c5.2,0,10.5,0,15.7,0l0,0c0-6.2,0-12.4,0-18.7c0-2.2,0-2.2-2.2-2.2
			c-4.6,0-9.1,0-13.7,0c-0.7,0-1.5,0-2.2-0.2c-2.1-0.5-4.1-0.5-6.1,0c-0.6,0.2-1.3,0.1-2,0.1c-11.4,0-22.9,0-34.3,0
			c-0.5,0-1,0.1-1.5-0.1c-2-0.7-4.1-0.4-6.2-0.4c-0.6,0.6-1.4,0.5-2.1,0.5c-3.6,0-7.3,0-10.9,0c-0.7,0-1.3,0-2,0
			c-0.6,0-0.9,0.4-0.9,1c0,0.2,0,0.5,0,0.7c0,5.8,0,11.6,0,17.4c0,1.6,0.1,1.7,1.7,1.8c0.6,0,1.2,0,1.7,0c3.5,0,7,0,10.4,0
			c0.7,0,1.5-0.2,2.1,0.5l0,0l0,0C634.3,618.4,636.1,618.4,637.9,618.4z M624.1,613.9c-0.6,0-1.2,0-1.7,0c-1.1-0.1-1.4-0.3-1.4-1.3
			c0.2-3.2-0.6-6.3-0.4-9.4c0-0.5,0-1,0.1-1.5c0.1-0.7,0.5-1,1.1-1.1c0.7-0.1,1.5-0.1,2.2-0.1c11.8,0,23.6,0,35.4,0
			c11.6,0,23.2,0,34.9,0c3.2,0,3-0.2,3,3c0,2.9,0,5.8,0,8.7c0,1.3-0.4,1.6-1.6,1.7c-0.6,0-1.2,0-1.7,0
			C670.6,613.9,647.4,613.9,624.1,613.9z"/>
		<path class="st46" d="M445.1,680.3c0-38,0-75.9,0-113.9c0-3.2,0.3-3.2-3.1-3.2c-10.7,0-21.4,0-32.1,0c-3.3,0-3.1,0-3.1,3.2
			c0,19,0,38,0,57.1c0,19,0,38,0,57.1c0,3-0.1,2.9,2.8,2.9c10.8,0,21.6,0,32.4,0C445.3,683.4,445.1,683.6,445.1,680.3z"/>
		<path class="st46" d="M673.6,563.2c-10.7,0-21.4,0-32.1,0c-0.6,0-1.2,0-1.7,0c-1,0.1-1.3,0.4-1.3,1.4c0,0.3,0,0.7,0,1
			c0,9.6,0,19.1,0,28.7c0,2.2,0,2.2,2.2,2.2c5.6,0,11.1,0,16.7,0c5.4,0,10.8,0,16.2,0c3,0,2.9,0.2,2.9-2.8c0-9.2,0-18.4,0-27.7
			C676.4,563.1,676.5,563.2,673.6,563.2z"/>
		<path class="st21" d="M695.6,613.9c1.3-0.1,1.6-0.4,1.6-1.7c0-2.9,0-5.8,0-8.7c0-3.1,0.2-3-3-3c-11.6,0-23.2,0-34.9,0
			c-11.8,0-23.6,0-35.4,0c-0.7,0-1.5,0-2.2,0.1s-1.1,0.4-1.1,1.1c-0.1,0.5,0,1-0.1,1.5c-0.2,3.2,0.6,6.3,0.4,9.4
			c0,1,0.3,1.2,1.4,1.3c0.6,0,1.2,0,1.7,0c23.2,0,46.5,0,69.7,0C694.4,613.9,695,613.9,695.6,613.9z"/>
		<path class="st46" d="M705.6,196.2L427.8,35.8L367.5,1l-60.3,34.8L29.4,196.2L6.3,209.6l-6.2,3.6l0,0v424.3l29.3,16.9l281.3,162.4
			l16.9,9.8l40,23.1l56.9-32.8l281.3-162.4l29.3-16.9V213.1L705.6,196.2z M715.9,626.4l-19.8,11.4l-13.4,7.7l-6.3,3.6
			c0-9.3,0-18.6,0-27.9c0-3,0.2-2.9-2.8-2.9c-10.9,0-21.7,0-32.6,0c-2.6,0-2.6-0.1-2.6,2.6c0,16.7,0,33.4,0,50.2l-0.9,0.5l-5,2.9
			c0-17.6,0-35.2,0-52.8c0-1.1,0-2.2,0-3.2c0-0.1,0.1-0.1,0.1-0.2l0,0l-0.1,0.2h-0.2l-0.2,0.1c0,1.6,0,3.2,0,4.7
			c0,17.2,0,34.4,0,51.5l-65.2,37.6c-0.5,0.6-1.3,1-2.1,1.2l-5.4,3.1c0-1.7,0-27.7,0-36.2c0-3.2,0.2-3-2.9-3c-10.7,0-21.4,0-32.1,0
			c-0.7,0-1.3,0-2,0c-0.6,0-0.9,0.4-0.9,1c0,0.8,0,1.7,0,2.5c0,19.2,0,38.4,0,57.6l-5.5,3.2c-0.2,0.1-0.3,0.2-0.5,0.3h-0.1l0,0
			c-0.1,0.1-0.3,0.1-0.4,0.2v0.1L451.6,779l0,0c-0.1,0.1-0.3,0.2-0.5,0.2v0.1l-5.9,3.4c0-1.7,0-53.3,0-74.3c0-1.1,0-2.2-0.1-3.2
			c-7.5,0-15,0-22.6,0c-5.2,0-10.4,0-15.6,0.1l0,0c0,1.1-0.1,2.2-0.1,3.2c0,32.1,0,64.3,0,96.4l-6.1,3.5l-33.2,19.2l-35-20.2l-6-3.5
			c0-65,0-130,0-195.1c0-0.9,0-1.8-0.1-2.7c0-0.6-0.4-0.9-1-1s-1.2-0.1-1.7-0.1c-11,0-21.9,0-32.9,0c-0.4,0-0.8,0-1.2,0
			c-1,0.1-1.4,0.4-1.4,1.4c0,0.8,0,1.7,0,2.5c0,57.6,0,115.2,0,172.9l-6.1-3.5l-63.7-36.8l0,0c-0.1-0.1-0.3-0.2-0.4-0.3l0,0l-6-3.5
			c0-32.2,0-64.5,0-96.7c0-1.1,0-2.2,0-3.2c-12.6,0-25.3,0-37.9,0c0,1.1-0.1,2.2-0.1,3.2c0,21.1,0,73.2,0,74.7l-6-3.4v-0.1
			c-0.1-0.1-0.3-0.1-0.4-0.2v0.1l-47.5-27.4l-4.9-2.8l-22.7-13.1l-7-4l-0.7-0.4c3.4,0,6.8,0,10.3,0c2.2,0,2.2,0,2.2-2.2s0-4.3,0-6.5
			c0-29.1,0-58.1,0-87.2c0-0.8,0-1.7,0-2.5c-0.1-0.8-0.4-1.2-1.3-1.3c-0.6-0.1-1.2,0-1.7,0c-10.8,0-21.6,0-32.4,0
			c-2.9,0-2.9,0-2.9,2.9c0,27.3,0,54.6,0,81.9l-6-3.5l-14.1-8.1l-19.8-11.4V225.4c0.3-0.4,0.9-0.8,1.9-1.3c2-1.2,4.1-2.3,6.1-3.4
			l0,0c1.7-1.4,3.8-2.4,5.7-3.5c5.8-3.4,11.7-6.9,17.6-10.3c6.5-3.8,13-7.5,19.5-11.3c4.6-2.7,9.1-5.4,13.7-8
			c1.2-0.7,2.4-1.5,3.8-1.8c0.4-0.3,0.7-0.7,1.1-0.9c2-1.2,4-2.3,6-3.5c0.4-0.3,0.9-0.4,1.3-0.6c0.5-0.3,0.9-0.6,1.3-0.9
			c0.3-0.2,0.5-0.3,0.8-0.4c0.4-0.5,0.9-0.7,1.4-1c3.1-1.8,6.3-3.7,9.4-5.5c4.7-2.7,9.3-5.4,13.9-8.1c0.3-0.2,0.6-0.4,1-0.4
			c0.1-0.1,0.2-0.1,0.3-0.2c0.3-0.3,0.7-0.5,1.1-0.6c0.1-0.1,0.2-0.2,0.4-0.3c1.4-0.8,2.7-1.6,4.1-2.4c2.2-1.3,4.4-2.6,6.6-3.9
			c0.4-0.3,0.8-0.4,1-0.4c0.4-0.5,0.9-0.9,1.6-1.1c0.1-0.1,0.2-0.2,0.3-0.2c1.9-1.1,3.9-2.3,5.8-3.4c5.8-3.4,11.6-6.8,17.4-10.2
			c1-0.6,4.2-2.4,4.9-2.7c1.9-1.1,3.7-2.2,5.6-3.3c0.5-0.3,2.3-1.3,2.9-1.6c0.1-0.3,0.4-0.4,0.7-0.5c6.8-4,13.6-7.9,20.4-11.9
			c0.9-0.5,1.8-1.1,2.8-1.6l43.2-25c0.2,0,0.8-0.4,0.9-0.5l13-7.5c0.1,0,0.1,0,0.2,0l0,0l0.1-0.1l59.9-34.6l6.4-3.7l44.4-25.6
			l50.8,29.3L569.9,140c0.2,0.2,0.3,0.3,0.4,0.5l0,0c0.2,0,0.5,0.1,0.7,0.1l18.7,10.8c0.7,0.4,1.3,0.8,2,1.2
			c3.8,2.2,7.5,4.4,11.4,6.5c0.5,0.3,0.8,0.5,1,0.8c0.5,0.3,0.9,0.6,1.4,0.9c0.4-0.1,0.7,0.2,1,0.3c3.5,2,7,4.1,10.5,6.1
			c5.9,3.5,11.9,6.9,17.8,10.4c1.1,0.6,2.1,1.3,3.1,1.9v0.1c0.8,0.4,1.8,0.9,2.7,1.5c0.4,0.2,0.8,0.4,1.2,0.7
			c1.6,1.1,3.3,1.9,4.9,2.8c0.6,0.3,1.2,0.6,1.6,1.2l0,0l0,0c1.9,0.5,3.4,1.7,5,2.7c8.5,4.9,16.8,9.9,25.3,14.8
			c8.6,5,17.3,10,26,15.1c0.9,0.5,1.9,1,2.6,1.9c0.7,0,1.3,0.4,1.8,0.7c2.2,1.3,4.4,2.6,6.7,3.9c0.1,0,0.1,0.1,0.2,0.1L715.9,626.4
			L715.9,626.4z"/>
	</g>
	<g>
		<path class="st46" d="M268.2,759.8c-1.4,0-2.6,0-3.8,0.1V758l2.4-0.1v-0.1c-1.6-0.5-2.7-1.9-2.7-3.3c0-0.3,0-0.4,0.1-0.6h2.1
			c0,0.2-0.1,0.4-0.1,0.8c0,1.5,1.2,2.6,2.8,2.9c0.3,0,0.7,0.1,1,0.1h6.4v2.2L268.2,759.8z"/>
		<path class="st46" d="M274.2,751.8c0.4-0.7,0.9-1.8,0.9-2.9c0-1.6-0.8-2.3-1.8-2.3s-1.6,0.6-2.2,2.3c-0.8,2.2-2,3.2-3.4,3.2
			c-1.9,0-3.6-1.6-3.6-4.2c0-1.2,0.3-2.3,0.7-3l1.6,0.5c-0.3,0.5-0.7,1.4-0.7,2.5c0,1.3,0.8,2,1.7,2c1,0,1.4-0.7,2-2.3
			c0.8-2.1,1.8-3.2,3.6-3.2c2.1,0,3.6,1.6,3.7,4.5c0,1.3-0.3,2.6-0.8,3.4L274.2,751.8z"/>
		<path class="st46" d="M260.8,739.1h3.5v-3.2h1.7v3.1h6.5c1.5,0,2.3-0.4,2.3-1.7c0-0.6-0.1-1-0.2-1.3l1.6-0.1
			c0.2,0.4,0.3,1.1,0.3,1.9c0,1-0.3,1.9-0.9,2.4c-0.6,0.6-1.7,0.9-3.1,0.9h-6.6v1.9h-1.7v-1.9h-2.9L260.8,739.1z"/>
		<path class="st46" d="M273,723.2c1.2,0,2.3,0,3.3-0.1v1.9l-2,0.1l0,0c1,0.6,2.3,1.8,2.3,4c0,1.9-1,4.2-5.3,4.2h-7.1v-2.2h6.7
			c2.3,0,3.8-0.7,3.8-2.7c0-1.5-1-2.5-2-2.9c-0.3-0.1-0.7-0.2-1.1-0.2h-7.4v-2.2L273,723.2z"/>
		<path class="st46" d="M258.4,709.2l14.6-0.1c1.1,0,2.3,0,3.1-0.1v2l-2.1,0.1v0.1c1.4,0.7,2.4,2.1,2.4,4.1c0,2.9-2.4,5.2-6.1,5.2
			c-4,0.1-6.5-2.4-6.5-5.4c0-1.8,0.9-3.1,1.8-3.7l0,0h-7.2L258.4,709.2z M269,711.4c-0.3,0-0.7,0-0.9,0.1c-1.4,0.3-2.5,1.5-2.5,3.2
			c0,2.3,2,3.6,4.7,3.6c2.4,0,4.5-1.2,4.5-3.6c0-1.5-1-2.8-2.6-3.2c-0.3-0.1-0.6-0.1-1-0.1H269z"/>
		<path class="st46" d="M260.6,703.1c0.7,0,1.4,0.5,1.4,1.4c0,0.8-0.6,1.3-1.3,1.3c-0.8,0-1.4-0.6-1.4-1.4
			C259.3,703.7,259.9,703.1,260.6,703.1z M276.2,705.5l-12.1,0.1v-2.2l12.1-0.1V705.5z"/>
		<path class="st46" d="M269.9,688.7c4.5,0,6.4,3.1,6.5,6c0,3.3-2.4,5.8-6.2,5.8c-4,0-6.4-2.6-6.5-6
			C263.7,691.1,266.2,688.7,269.9,688.7z M270.1,698.3c2.6,0,4.6-1.6,4.6-3.7c0-2.1-2-3.7-4.7-3.6c-2,0-4.6,1.1-4.6,3.7
			C265.4,697.2,267.8,698.3,270.1,698.3z"/>
		<path class="st46" d="M274.7,687c-0.9,0-1.6-0.6-1.6-1.5s0.6-1.5,1.6-1.5c0.9,0,1.6,0.6,1.6,1.5C276.3,686.4,275.6,687,274.7,687z
			"/>
		<path class="st46" d="M275.5,672.7c0.3,0.6,0.7,1.8,0.7,3.5c0,3.6-2.4,6-6.1,6.1c-3.7,0-6.4-2.5-6.5-6.5c0-1.3,0.3-2.5,0.6-3.1
			l1.7,0.5c-0.3,0.5-0.6,1.4-0.6,2.6c0,2.8,2.1,4.3,4.6,4.2c2.8,0,4.5-1.8,4.5-4.2c0-1.2-0.3-2.1-0.6-2.7L275.5,672.7z"/>
		<path class="st46" d="M269.7,659.4c4.5,0,6.4,3.1,6.5,6c0,3.3-2.4,5.8-6.2,5.8c-4,0-6.4-2.6-6.5-6
			C263.5,661.8,266,659.4,269.7,659.4z M269.9,669c2.6,0,4.6-1.6,4.6-3.7c0-2.1-2-3.7-4.7-3.6c-2,0-4.6,1.1-4.6,3.7
			C265.2,667.9,267.6,669,269.9,669z"/>
		<path class="st46" d="M267,656.6c-1.2,0-2.3,0-3.3,0.1v-1.9l1.9-0.1v-0.1c-1.2-0.7-2.2-1.8-2.2-3.8c0-1.6,1-2.9,2.4-3.4v-0.1
			c-0.7-0.4-1.2-0.8-1.6-1.3c-0.6-0.7-0.9-1.5-0.9-2.7c0-1.6,1-4,5.2-4h7.1v2.1h-6.8c-2.3,0-3.7,0.9-3.7,2.6c0,1.2,0.9,2.2,2,2.6
			c0.3,0.1,0.7,0.2,1.1,0.2h7.5v2.1h-7.2c-1.9,0-3.3,0.9-3.3,2.5c0,1.4,1.1,2.4,2.2,2.7c0.3,0.1,0.7,0.2,1.1,0.2h7.3v2.1L267,656.6z
			"/>
	</g>
	<g>
		<path class="st48" d="M177.3,377.4h68.8l-6.4,24.1h-21.6l-35.6,133.4h-25l35.7-133.5H171L177.3,377.4z"/>
		<path class="st48" d="M370.9,377.4l-30.2,111.5c-3.5,12.8-10.8,23.7-21.9,32.6c-11.2,8.9-23.3,13.4-36.3,13.4
			c-11.6,0-21.2-3.8-28.9-11.3s-11.6-17-11.6-28.3c0-4.2,0.6-8.4,1.8-12.5l28-105.4h25l-29.9,111.5c-0.6,2.1-0.9,4.2-0.9,6.4
			c0,4.7,1.5,8.4,4.6,11.1c3,2.7,7,4.1,11.9,4.1c7.5,0,14.7-2.8,21.6-8.4s11.4-12,13.4-19.3l28.4-105.4L370.9,377.4L370.9,377.4z"/>
		<path class="st48" d="M446.7,461.4c0-11.2-2.4-21.4-7.3-30.8s-12-16.8-21.3-22.2l-33.8,126.4h-25l42-157.5
			c11.2,0,22.5,4.4,34,13.1s20.1,18.5,25.7,29.2l11.3-42.3h25l-42,157.5h-25c0.6-2,2.6-9.1,6.1-21.2c3.5-12.1,6-22.2,7.8-30.5
			C445.9,475,446.7,467.7,446.7,461.4z"/>
		<path class="st48" d="M550.2,534.9h-70.1l42-157.5h70.1l-6.4,24.1h-45.1l-11.2,42.6H563l-6.4,24.1h-33.8l-11.3,42.3h45.1
			L550.2,534.9z"/>
	</g>
</g>
</svg>
