<?xml version="1.0" encoding="utf-8"?>
<!-- Generator: Adobe Illustrator 26.5.0, SVG Export Plug-In . SVG Version: 6.00 Build 0)  -->
<svg version="1.1" id="Layer_1" xmlns="http://www.w3.org/2000/svg" xmlns:xlink="http://www.w3.org/1999/xlink" x="0px" y="0px"
	 viewBox="0 0 2521 2911" style="enable-background:new 0 0 2521 2911;" xml:space="preserve">
<style type="text/css">
	.st0{fill:#20E487;}
	.st1{fill:#2568C3;}
	.st2{fill:#63B600;}
	.st3{fill:#D4404E;}
	.st4{fill:#35E53A;}
	.st5{fill:#31CA27;}
	.st6{fill:#25F385;}
	.st7{fill:#AB67FF;}
	.st8{fill:#22C8A5;}
	.st9{fill:#A352FE;}
	.st10{fill:#09B1A5;}
	.st11{fill:#F65058;}
	.st12{fill:#E4714B;}
	.st13{fill:#E4704B;}
	.st14{fill:#1E8521;}
	.st15{fill:#3EF225;}
	.st16{fill:#3BFF41;}
	.st17{fill:#099A8C;}
	.st18{fill:#952FFF;}
	.st19{fill:#9C49FF;}
	.st20{fill:#3F7200;}
	.st21{fill:#A5323D;}
	.st22{fill:#62B600;}
	.st23{fill:#184480;}
	.st24{fill:#04423C;}
	.st25{fill:#5FAD00;}
	.st26{fill:#1BD78D;}
	.st27{fill:#41136F;}
	.st28{fill:#529300;}
	.st29{fill:#091D35;}
	.st30{fill:#29B32E;}
	.st31{fill:#561A1F;}
	.st32{fill:#1D559F;}
	.st33{fill:#1B3000;}
	.st34{fill:#066259;}
	.st35{fill:#5E1CA0;}
	.st36{fill:#145515;}
	.st37{fill:#2E5300;}
	.st38{fill:#102D54;}
	.st39{fill:#7E262E;}
	.st40{fill:#1E8421;}
	.st41{fill:#A352FF;}
	.st42{fill:#09B2A6;}
	.st43{fill:#E5714B;}
	.st44{fill:#31E649;}
	.st45{fill:#475EBB;}
	.st46{fill:#565656;}
	.st47{fill:#FF7B4D;}
	.st48{fill:#4AFD8D;}
</style>
<g id="Layer_1_1_">
	<g>
		<path d="M2419.8,669.5L1467,119.4L1260.2,0l-206.8,119.4L100.5,669.5l-79.2,46L0,727.8l0,0v1455.3l100.5,58l964.8,557l58,33.6
			l137.2,79.2l195.2-112.5l964.8-557l100.5-58v-1456L2419.8,669.5z"/>
		<path class="st0" d="M484.3,613.6c104.3,0,208.5,0,312.8,0c10.3,0,20.6,0,30.9,0c7.5,0,7.5,0,7.5-7.5c0-0.3,0-0.7,0-0.7
			c0-39.4,0-79.2,0-118.7c0-9.6-0.3-8.6-9.3-8.6c-1.7,0-3.4,0-5.1,0c-81.3,0-162.2,0-243.5,0c-3.4,0-6.9,0-10.3,0
			c-4.1,0.3-7.5,2.4-11,4.5c-19.9,11.7-39.8,23.3-59.7,35c-6.5,3.8-13.4,7.9-19.9,11.7c-2.1,1.4-3.4,2.7-3.1,5.5c0,1.7,0,3.4,0,5.1
			c0,17.8,0,36,0,53.9c0,6.5-0.3,13-0.3,19.6l0,0C476.8,614.6,480.5,613.6,484.3,613.6z"/>
		<path class="st1" d="M1944.4,477.8c-84.7,0-169.8,0-254.5,0c-2.7,0-5.8,0-8.6,0.3c-1.7,0-2.4,1-2.7,2.7c0,2.1,0,4.1,0,5.8
			c0,39.4,0,78.5,0,118c0,9.3-0.3,8.9,8.9,8.9c110.8,0,221.6,0,332.4,0c2.1,0,4.1,0,5.8,0c1.4,0,2.7-1,2.7-2.7
			c0-2.4,0.3-5.1,0.3-7.5c0-24.7,0-49.7,0-74.4c0-3.1,0.3-6.2,0.3-9.3c-2.4-1.4-4.5-2.7-6.9-4.1l-64.1-37.4
			c-0.7-0.3-1.7-0.3-2.4-0.3l0,0C1952,477.8,1948.2,477.8,1944.4,477.8z"/>
		<path class="st2" d="M1140.1,2077.2c0-4.1,1-5.1,5.1-5.1c12,0,24,0,36,0c5.5,0,11,0,16.1,0c3.4,0,4.1-1,4.1-4.1c0-0.3,0-0.7,0-0.7
			c0-21.6,0-43.2,0-64.8c0-4.5-1-5.1-4.8-5.5c-2.1,0-4.1,0-5.8,0c-13.7,0-27.4,0-41.2,0c-2.4,0-4.5,0-6.9-0.3
			c-1.7,0-2.4-1.4-2.7-2.7c0-2.4-0.3-4.5-0.3-6.9c0-23,0-46.3,0-69.3c0-11.3,1-10.6-10.6-10.6c-50.8,0-101.5,0-151.9,0
			c-0.7,0-1,0-1.7,0c-8.6,0-8.6,0-8.6,8.2c0,1.7,0,3.4,0,5.1c0,22.3,0,44.6,0,66.5c0,2.4,0,4.5-0.3,6.9c0,1.7-1,2.7-2.7,2.7
			c-2.1,0.3-4.1,0-5.8,0.3c-11,0-22.3,0-33.3,0c-2.4,0-4.5,0-6.9,0c-2.4,0.3-3.4,1.4-3.4,3.8c0,1.7,0,3.4,0,5.1
			c0,19.2,0,38.1,0,57.3c0,1.7,0,3.4,0,5.1c0.3,2.4,1,3.4,3.8,3.4c11.3,0,22.6,0,34.3,0c3.4,0,6.9,0,10.3,0c3.1,0,4.1,1,4.5,4.1
			c0,2.4,0,5.1,0,7.5c0,194.1,0,387.9,0,582.1l20.9,12c0-197.6,0-395.1,0-593c0-2.7,0-5.8,0-8.6c0.3-3.1,1.4-4.5,4.8-4.8
			c1.4,0,2.7,0,4.1,0c37.7,0,75.1,0,112.8,0c2.1,0,4.1,0,5.8,0.3c1.7,0.3,3.1,1.4,3.4,3.4c0.3,3.1,0.3,6.2,0.3,9.3
			c0,222.9,0,445.9,0,669.2l20.6,12c0-226.7,0-453.4,0-680.2C1140.1,2083,1140.1,2080.3,1140.1,2077.2z M1119.5,1989.4
			c0,1.4,0,2.7-0.3,4.1c0,1.7-1,2.7-2.7,2.7c-1.7,0.3-3.4,0.3-5.1,0.3c-38.4,0-76.8,0-115.2,0c-1.4,0-2.7,0-4.1,0
			c-2.7-0.3-3.8-1-3.8-3.8c0-1.7,0-3.4,0-5.1c0-17.1,0-34.3,0-51.4c0-1.7,0-3.4,0-5.1c0-2.1,1-3.1,3.1-3.4c2.4,0,4.5,0,6.9,0
			c18.5,0,37,0,55.6,0c19.2,0,38.8,0,58,0c7.5,0,7.5,0,7.9,7.5C1119.5,1953.4,1119.5,1971.2,1119.5,1989.4z M941.9,2057.6
			c-2.4,0-4.5,0-6.9-0.3c-1.7-0.3-3.1-1.7-3.4-3.4c0-0.7-0.3-1.7-0.3-2.4c0-11.7,0-23.3,0-35c0-3.8,1-4.5,4.5-4.8c2.4,0,4.5,0,6.9,0
			c38.1,0,76.1,0,114.2,0c38.8,0,77.5,0,115.9,0c11,0,11,0,11,10.6c0,8.2,0,16.5,0,24.7c0,2.1,0,4.1,0,5.8c-0.3,2.7-1.7,4.1-4.5,4.5
			c-2.1,0.3-4.1,0-5.8,0C1096.5,2058,1019.4,2058,941.9,2057.6z"/>
		<path class="st1" d="M1949.9,2319.7c12.3,0,24.4,0,36.7,0c2.4,0,4.5,0,6.9-0.3c1.7,0,2.7-1,2.7-2.7c0.3-2.4,0.3-4.5,0.3-6.9
			c0-21.3,0-42.5,0-63.8l0,0l0,0c-2.7,0-5.8-0.3-8.6-0.3c-12,0-24,0-36,0c-14.1,0-12.3,1.7-12.3-12c0-104.6,0-209.2,0-313.5
			c0-9.3,0.3-8.9-8.6-8.9c-52.1,0-104.3,0-156.4,0c-1.7,0-3.4,0-5.1,0c-2.1,0-3.1,1-3.4,3.1c0,2.4,0,5.1,0,7.5
			c0,73.4,0,147.1,0,220.5c0,31.2,0,62.1,0,93.3c0,2.4,0,5.1-0.3,7.5c0,1-1,2.1-2.1,2.4c-2.1,0.3-4.1,0.3-5.8,0.3
			c-13.4,0-26.8,0-40.1,0c-2.4,0-4.5,0-6.9,0c-1.4,0-2.7,1-2.7,2.7c0,1.7-0.3,3.4-0.3,5.1c0,19.6,0,39.4,0,59c0,1.7,0,3.4,0,5.1
			c0,1.7,1,2.7,2.7,2.7c2.4,0.3,4.5,0.3,6.9,0.3c13.4,0,26.8,0,40.1,0c2.7,0,5.8-0.3,8.2,1c2.1,2.4,1,5.5,1,8.2
			c0,28.1,0,56.3,0,84.7c0,42.5,0,85.4,0,127.9l20.6-12c-0.3-65.9,0-131.7,0-197.6c0-2.7,0-5.8,0-8.6c0-2.1,1-3.1,3.1-3.4
			c2.4,0,4.5,0,6.9,0c36.7,0,73.4,0,110.1,0c10.6,0,9.9-0.7,9.9,10.3c0,41.5,0,82.7,0,124.2l20.6-12c0-37.7,0-75.8,0-113.5
			c0-2.7-1-5.8,1-8.2l0,0c1-0.7,1.7-1,2.7-1.7C1944.8,2319.7,1947.5,2319.7,1949.9,2319.7z M1918,2088.8c0,48.7,0,97.4,0,146.1
			c0,11.3,0.7,10.6-10.6,10.6c-36.7,0-73.4,0-110.1,0c-9.6,0-9.6,0.3-9.6-9.3c0-98.4,0-197.2,0-295.7c0-9.6,0-9.3,9.3-9.3
			c37.4,0,74.8,0,111.8,0c1.7,0,3.4,0,5.1,0c2.7,0.3,3.8,1,3.8,3.8c0,2.4,0,5.1,0,7.5C1918,1991.4,1918,2040.1,1918,2088.8z
			 M1852.8,2305.6c-40.1,0-80.3,0-120.4,0c-11,0-11,0-11-10.6c0-8.2,0-16.5,0-24.7c0-2.1,0-4.1,0-5.8c0.3-2.7,1.7-4.1,4.5-4.5
			c2.1-0.3,4.1,0,5.8,0c80.6,0,161.2,0,241.8,0c0.7,0,1.7,0,2.4,0c6.5,0,6.5,0.3,6.9,6.9c0,11,0,22.3,0,33.3c0,5.1-0.7,5.5-6.2,5.8
			c-2.1,0-4.1,0-5.8,0C1931.4,2305.6,1892.3,2305.6,1852.8,2305.6z"/>
		<path class="st3" d="M2084.4,633.5c-10.3,0-9.9-0.7-9.9,9.6c0,37.4,0,74.4,0,111.8c0,10.3-0.3,9.6,9.9,9.6
			c110.1,0,220.2,0,330.3,0c11,0,10.6,0.3,10.6-9.9c0-1,0-2.4,0-3.4c-2.1-3.1-5.8-4.8-8.9-6.5c-29.5-17.1-59.3-34.3-89.2-51.8
			c-28.8-16.8-57.6-34-86.8-50.8c-5.5-3.1-11-7.2-17.1-9.3l0,0c-3.4,0-6.9,0.3-10.3,0.3C2170.5,633.5,2127.2,633.5,2084.4,633.5z"/>
		<path class="st2" d="M888,302.5c0.7,0,1,0,1.7,0c110.4,0,220.9,0,331.3,0c10.6,0,9.9,0.7,9.9-9.6c0-39.8,0-79.6,0-119.7
			c0-10.3,0.7-9.6-9.6-9.6c-35,0-70,0-105,0c-2.7,0-5.5,0-8.2-0.3l-22,12.7L880.8,294.6l-0.3,0.3l0,0
			C880.5,301.8,879.1,302.5,888,302.5z"/>
		<path class="st4" d="M94.3,763.5c1-1,2.4-1.7,3.8-1.7c2.4,0,5.1,0,7.5,0c106.7,0,213.3,0,320.4,0l0,0l0,0c0-2.4,0.3-5.1,0.3-7.5
			c0-37,0-73.7,0-110.8c0-10.6,0.7-9.9-9.6-9.9c-35.7,0-71.7,0-107.4,0c-3.4,0-6.9-0.3-10.3-0.3c-4.8,1.4-8.9,3.8-13,6.2
			c-15.8,9.3-31.2,18.5-47,27.4c-22.3,13-44.6,25.7-66.9,38.8c-20.2,11.7-40.1,23.3-60.4,35.3c-6.5,3.8-13.4,7.2-19.6,12l0,0
			c0,2.4,0.3,4.8,0.3,7.5C93,761.8,93,762.8,94.3,763.5z"/>
		<path class="st5" d="M356,2276.5L356,2276.5c-2.7-3.1-1.7-7.2-1.7-10.6c0-113.5,0-226.7,0-340.3c0-2.4,0-5.1,0-7.5
			c0-4.5-0.7-5.1-5.5-5.1c-0.7,0-1.7,0-2.4,0c-52.5,0-104.6,0-157.1,0c-1.7,0-3.4,0-5.1,0.3c-1.4,0-2.1,1-2.1,2.1
			c-0.3,2.7-0.3,5.8-0.3,8.6c0,96,0,192.4,0,288.5l20.6,12c0-93.6,0-187.3,0-280.9c0-9.9,0-9.9,9.9-9.9c37,0,74.1,0,111.1,0
			c2.1,0,4.1,0,5.8,0c2.7,0.3,4.1,1.4,4.5,4.5c0.3,2.7,0,5.8,0,8.6c0,99.8,0,199.3,0,299.1c0,7.5,0,14.7,0,22.3c0,7.5,0,7.5-7.5,7.5
			c-11.7,0-23.3,0-35.3,0l2.4,1.4c17.8,0,35.7,0,53.5,0C349.9,2276.8,352.9,2276.5,356,2276.5z"/>
		<path class="st6" d="M835.2,452.4c0-5.1,0-10.3,0-15.4c0-35,0-70,0-105c0-3.4,1-6.9-1.4-9.9c-0.7,0-1.4,0-2.1,0.3l-148.2,85.7
			c-3.1,1.7-6.2,3.8-9.6,5.5c-23.3,13.7-46.6,27.1-70,40.8c-1,0.7-2.7,1-2.4,3.1c3.1,0,6.2,0,9.3,0c70.7,0,141.7,0,212.3,0
			c3.4,0,6.9,0.3,10.3,0.3l0,0C835.5,456.5,835.2,454.5,835.2,452.4z"/>
		<path class="st7" d="M1557.2,2415.4c13.4,0,26.8,0,40.1,0c2.1,0,4.1,0,5.8-0.3c1.4,0,2.1-1,2.4-2.1s0.3-2.4,0.3-3.4
			c0-20.9,0-42.2,0-63.1c0-1.7,0.3-3.4-1-4.8c-17.1,0-34.3,0-51.1,0c-2.4,0-4.5,0-6.9-0.7c-6.5-1.7-12.7-1.7-19.2,0
			c-2.1,0.7-4.5,0.7-6.9,0.7c-39.8,0-79.9,0-119.7,0c-2.7,0-5.5-0.3-8.6-1c-5.1-1.4-10.3-1.4-15.1,0c-3.8,1-7.2,1-11,1
			c-15.4,0-30.9,0-46.3,0c-2.4,1.7-1.4,4.1-1.4,6.2c0,19.6,0,39.1,0,59c0,8.9,0.3,8.2,8.6,8.2c15.8,0,31.2,0,47,0
			c7.2,0,14.1,0,21.3,0l0,0l0,0c17.8,0,35.7-0.3,53.5-0.3c25.7,0,51.4,0,77.5,0c6.9,0,14.1,0,20.9,0l0,0h0.7l0.7,0.3l0,0
			C1551.4,2415.4,1554.1,2415.4,1557.2,2415.4z M1342.8,2401.7c-10.3,0-9.6,0.3-9.6-9.9c0-8.6,0-17.1,0-25.7c0-2.1,0-4.1,0.3-5.8
			c0.3-1.4,1.4-2.7,2.7-2.7c2.4-0.3,5.1-0.3,7.5-0.3c39.8,0,79.6,0,119.4,0c39.1,0,78.5,0,117.6,0c11.7,0,10.3-0.3,10.6,10.6
			c0,8.9-0.7,17.5,1,26.4c0.3,1,0,2.4,0,3.4c-0.3,2.4-1.7,3.4-3.8,3.8c-2.1,0.3-4.1,0-5.8,0
			C1502.7,2401.7,1422.7,2401.7,1342.8,2401.7z"/>
		<path class="st7" d="M1335.3,2340.6c1,0,1.7,0,2.7,0C1337.3,2340.6,1336.3,2340.6,1335.3,2340.6z"/>
		<path class="st8" d="M751.8,2109.4c0.7,0,1,0,1.7,0C753.2,2109.4,752.5,2109.4,751.8,2109.4z"/>
		<path class="st8" d="M748.8,2184.5L748.8,2184.5c16.5,0,32.9,0,49.4,0c2.4,0,4.5,0,6.9-0.3c1.4,0,2.1-1,2.4-2.1
			c0.3-1.4,0.3-2.7,0.3-4.1c0-20.6,0-41.5,0-62.1c0-1.7,0-3.4-1-4.8c-23.7,0-47.7,0-71.3,0c-2.7,0-5.8,0-8.2-1.7l0,0l0,0
			c-2.4,0-5.1,0.3-7.5,0.3c-38.4,0-77.2,0-115.6,0c-2.4,0-5.1,0-7.5-0.3c-2.1,1.4-4.1,1.7-6.5,1.7c-24,0-48,0-72,0l0,0l0,0
			c-2.4,2.1-1.4,4.8-1.4,7.2c0,19.2,0,38.8,0,58c0,1.7,0,3.4,0,5.1c0,2.1,1.4,3.1,3.4,3.1c2.4,0,4.5,0,6.9,0c15.8,0,31.9,0,47.7,0
			c7.5,0,14.7,0,22.3,0l0,0l0,0l0,0l0,0c43.2,0,86.8,0,130,0C734,2184.5,741.2,2184.5,748.8,2184.5z M700,2170.5
			c-53.2,0-106.7,0-159.8,0c-2.7,0-5.8,0-8.6-0.3c-1.7-0.3-3.1-1.4-3.4-3.4c-0.3-1.4-0.3-2.7-0.3-4.1c0-10.3,0-20.6,0-30.9
			c0-1,0-2.4,0-3.4c0.3-2.4,1.4-3.4,4.1-3.4c2.4,0,4.5,0,6.9,0c40.1,0,80.3,0,120.4,0s80.3,0,120.4,0c2.4,0,5.1,0,7.5,0.3
			c1.7,0,3.1,1.4,3.4,3.4c0.3,1.4,0.3,2.7,0.3,4.1c0,9.9,0,19.9,0,29.8c0,1.4,0,2.7-0.3,4.1c-0.3,2.4-1.4,3.4-4.1,3.8
			c-2.4,0.3-4.5,0-6.9,0C753.6,2170.5,726.8,2170.5,700,2170.5z"/>
		<path class="st9" d="M1374,2415.4c0,3.8,0.3,7.5,0.3,11c0,114.2,0,228.4,0,342.7l20.9-12c0-110.1,0-220.5,0-330.6
			c0-3.8,0-7.5,0.3-11l0,0C1388.1,2415.4,1380.9,2415.4,1374,2415.4z"/>
		<path class="st10" d="M748.8,2184.5L748.8,2184.5c-7.5,0-14.7,0-22.3,0c0,3.8,0,7.5,0,11c0,110.4,0,221.2,0,331.7l20.6,12
			c0-114.2,0-228.1,0-342.3c0-2.4,0-4.5,0-6.9c0-1,0.7-2.1,1-3.1l0,0C748.4,2185.9,748.8,2185.2,748.8,2184.5z"/>
		<path class="st9" d="M1526.3,2426.3c0,85.1,0,170.1,0,254.8l20.2-11.7c0-80.9,0-162.2,0-243.2c0-3.8,0-7.5,0.3-11l0,0
			c-6.9,0-14.1,0-20.9,0C1526.3,2419.1,1526.3,2422.6,1526.3,2426.3z"/>
		<path class="st10" d="M596.5,2184.5L596.5,2184.5c-7.5,0-14.7,0-22.3,0c0,0.7,0.3,1.4,0.3,2.1l0,0c1.7,2.7,1,6.2,1,9.3
			c0,81.3,0,162.9,0,244.2l20.6,11.7c0-85.4,0-170.8,0-256.2C596.5,2191.7,596.5,2188,596.5,2184.5L596.5,2184.5L596.5,2184.5z"/>
		<path class="st11" d="M2075.1,613.6c3.1,0,6.2-0.3,9.3-0.3c32.2,0,64.8,0,97.1,0c1,0,2.4,0,3.4,0c1,0,2.4,0.7,2.7-1.7
			c-3.4-2.1-7.2-4.5-10.6-6.5c-20.2-12-40.8-23.7-61.1-35.7c-12-6.9-24-14.1-36-20.9c-1.4-0.7-2.7-2.1-4.8-0.3c0,8.2,0,16.8,0,25.4
			c0,13-0.3,26.1-0.3,39.1C2074.8,612.9,2075.1,613.3,2075.1,613.6L2075.1,613.6z"/>
		<path class="st12" d="M2319.7,2223.3l21.6-12.3c0-28.8,0-57.3,0-86.1c0-0.7,0-1.7,0-2.4c0.3-3.8,0.7-4.5,4.5-4.5
			c8.6,0,17.1,0,25.4,0c9.6,0,19.2,0,28.8,0c1.7,0,3.4,0.3,4.5-1.7c-0.7,0-1,0-1.7,0l0,0c-17.8,0-36,0-53.8,0c-3.4,0-6.9,0.3-9.9,1
			c-5.5,1.4-11.3,1.4-16.8,0c-3.4-0.7-6.9-1-9.9-1c-38.4,0-76.8,0-115.2,0c-3.1,0-6.2-1-8.9,1.7l0,0c-1,2.1-3.4,1.4-5.1,2.4
			c-1,1.4,0.3,2.1,1,2.7c2.1,2.1,2.7,4.1,2.7,6.9c0,1.4,0,2.7,0,4.1c0,55.6,0,111.1,0,166.4l3.1-1.7c0-57.3,0-114.6,0-172.2
			c0-8.9,0-8.9,8.9-8.9c37.4,0,74.4,0,111.8,0c10.3,0,9.6-0.3,9.6,9.9C2319.7,2159.5,2319.7,2191.4,2319.7,2223.3z"/>
		<path class="st13" d="M2186.2,2134.1c0-1.4,0-2.7,0-4.1c0-2.7-0.7-5.1-2.7-6.9c-0.7-0.7-1.7-1.4-1-2.7c1.7-1,4.1,0,5.1-2.4
			c-6.2,0-12.3,0-18.5,0c0,0.3-0.3,0.3-0.3,0.7c0,3.8,0,7.5,0,11c0,60.4,0,120.7,0,181.1l17.1-9.9
			C2185.9,2244.9,2186.2,2189.3,2186.2,2134.1z"/>
		<path class="st14" d="M396.5,2331.3c0-11.7,0-23.3,0-35c0-4.1-1.4-5.1-5.8-5.5c-1,0-2.4,0-3.4,0c-23.3,0-46.6,0-70.3,0l77.9,44.9
			C396.2,2334.8,396.5,2333.4,396.5,2331.3z"/>
		<path class="st15" d="M411.6,2283.3c0-1.4,0-2.7,0-4.1c0-1.7-1.4-2.4-2.7-2.7c-0.7,0-1.7,0-2.4,0c-16.8,0-33.3,0-50.1,0l0,0
			c-3.1,0-6.2,0.3-9.3,0.3c-17.8,0-35.7,0-53.5,0l24,13.7c23.3,0,46.6,0,70.3,0c1,0,2.4,0,3.4,0c4.5,0.3,5.8,1.4,5.8,5.5
			c0,11.7,0,23.3,0,35c0,2.4-0.3,3.4-1.7,4.5l16.8,9.6c0-0.3,0-1,0-1.4C411.6,2323.4,411.6,2303.6,411.6,2283.3z"/>
		<path class="st16" d="M426.3,612.6c0-17.5-0.3-35-0.3-52.5c-2.4-1-3.8,0.3-5.1,1c-16.1,9.3-31.9,18.5-47.7,27.8
			c-10.6,6.2-21.6,12.7-32.2,18.9c-2.1,1.4-4.5,2.1-5.8,5.1c3.4,0,6.2,0,9.3,0c24.4,0,49,0,73.4,0c2.7,0,5.8,0.3,8.6,0.3
			C425.7,613.3,426,612.9,426.3,612.6L426.3,612.6z"/>
		<path class="st13" d="M2161.9,2115.9c-12,0-24,0-35.7,0c-2.1,0-4.1,0-5.8,0c-5.1,0-5.8-0.7-5.8-6.2c0-19.9,0-39.8,0-59.7
			c0-0.7,0-1.7,0-2.4c0-2.1,1-3.1,3.1-3.4c2.4,0,4.5,0,6.9,0c12.3,0,25,0,37.4,0c2.4,0,5.1,0.7,7.2-1.7c0-31.9,0-64.1,0-96
			c0-12.3,0-25,0-37.4c-2.1,2.7-1,6.2-1,8.9c0,37.7,0,75.5,0,113.5c0,2.4,0,4.5,0,6.9c0,3.8-0.7,4.1-4.8,4.5c-2.1,0-4.1,0-5.8,0
			c-12,0-24,0-35.7,0c-2.1,0-4.1,0-5.8,0c-2.1,0-3.1,1.4-3.1,3.4c0,1,0,2.4,0,3.4c0,20.6,0,40.8,0,61.4c0,1.4,0,2.7,0.3,4.1
			c0.3,1.4,1,2.1,2.4,2.1c2.1,0.3,4.1,0.3,5.8,0.3c12.7,0,25.7,0,38.4,0c2.7,0,5.8-0.3,8.6,0.7l0.7-0.3h0.7l0.3-0.7
			C2167,2115.3,2164.3,2115.9,2161.9,2115.9z"/>
		<path class="st17" d="M477.1,920.3c2.4,0,5.1,0,7.5,0c56.3,0,112.8,0,169.1,0c57.3,0,114.6,0,171.5,0c9.9,0,9.9,0.3,9.9-9.9
			c0-38.8,0-77.5,0-116.3c0-2.1,0-4.1,0-5.8c-0.3-3.1-1-4.1-4.1-4.5c-2.1,0-4.1,0-5.8,0c-114.2,0-228.4,0-342.3,0
			c-10.3,0-9.6-0.7-9.6,9.9c0,39.1,0,77.9,0,117c0,1.7,0,3.4,0,5.1C473.3,919.2,474.4,920.3,477.1,920.3z"/>
		<path class="st18" d="M1622,784.1c-111.8,0-223.3,0-335.1,0c-1.7,0-3.4,0-5.1,0c-5.5,0-5.8,0.3-5.8,5.8c0,1.4,0,2.7,0,4.1
			c0,38.8,0,77.5,0,116.3c0,11-0.3,9.9,10.3,9.9c56.3,0,112.2,0,168.4,0s112.2,0,168.4,0c10.3,0,9.6,0.7,9.6-9.6
			c0-38.8,0-77.5,0-116.3C1632.6,782.7,1633.7,784.1,1622,784.1z"/>
		<path class="st19" d="M1285.2,458.6c112.5,0,225,0,337.5,0c10.6,0,9.9,0.3,9.9-9.6c0-39.1,0-78.2,0-117c0-10.6,0.7-9.6-9.6-9.6
			c-56.3,0-112.2,0-168.4,0c-55.9,0-111.5,0-167.4,0c-2.4,0-4.5,0-6.9,0c-3.4,0-4.1,0.7-4.5,3.8c0,1.7,0,3.4,0,5.1
			c0,39.4,0,78.5,0,118C1275.9,459.3,1275.6,458.6,1285.2,458.6z"/>
		<path class="st19" d="M1276.3,611.2c0.3,1.7,1.4,2.4,2.7,2.7c1.7,0,3.4,0,5.1,0c113.2,0,226.7,0,339.9,0c2.1,0,4.1,0,5.8-0.3
			c1.7,0,2.4-1.4,2.4-2.7c0-2.1,0-4.1,0-5.8c0-39.4,0-78.5,0-118c0-9.9,0.7-8.9-9.3-8.9c-56.3,0-112.2,0-168.4,0
			c-56.9,0-113.9,0-170.8,0c-8.2,0-8.2-0.7-8.2,8.6c0,39.4,0,79.2,0,118.7C1275.9,607.1,1275.9,609.2,1276.3,611.2z"/>
		<path class="st20" d="M1230.7,788.5c-0.3-3.4-1-4.1-4.1-4.5c-2.1,0-4.1,0-5.8,0c-110.1,0-220.2,0-330.6,0
			c-10.6,0-9.9-0.7-9.9,10.3c0,38.4,0,76.8,0,115.2c0,11.3-1,10.6,10.3,10.6c54.9,0,109.8,0,165,0c54.5,0,108.7,0,163.3,0
			c2.4,0,4.5,0,6.9,0c4.5,0,5.1-0.7,5.1-4.8c0-1.7,0-3.4,0-5.1c0-38.8,0-77.5,0-116.3C1230.7,792.3,1231,790.3,1230.7,788.5z"/>
		<path class="st21" d="M2085.4,920.6c54.5,0,109.4,0,164,0c55.6,0,111.1,0,166.7,0c9.3,0,9.3,0,9.6-9.6c0-0.3,0-0.7,0-0.7
			c0-38.8,0-77.5,0-116.3c0-10.3,0.7-9.9-9.6-9.9c-110.4,0-220.9,0-331.3,0c-10.3,0-9.9-0.7-9.9,9.6c0,38.8,0,77.5,0,116.3
			C2074.8,921.3,2073.7,920.6,2085.4,920.6z"/>
		<path class="st22" d="M1231,332.7c0-11.7,1-10.6-10.6-10.6c-54.9,0-109.8,0-164.6,0c-55.2,0-110.4,0-165.7,0
			c-10.3,0-9.6-0.7-9.6,9.9c0,38.8,0,77.5,0,116.3c0,1.7,0,3.4,0,5.1c0.3,4.1,1,5.1,5.1,5.1c7.5,0,14.7,0,22.3,0
			c103.9,0,207.9,0,311.8,0c13,0,11.7,0.3,11.7-11.3C1231,409.2,1231,371.1,1231,332.7z"/>
		<path class="st23" d="M2018.5,784.1c-54.5,0-109.4,0-164,0c-54.5,0-109.4,0-164,0c-2.4,0-5.1,0-7.5,0c-3.8,0-4.1,1-4.5,4.8
			c0,1,0,2.4,0,3.4c0,39.8,0,79.6,0,119.7c0,8.2,0.3,8.6,8.6,8.6c0.3,0,0.7,0,0.7,0c110.4,0,220.9,0,331.3,0c2.1,0,4.1,0,5.8-0.3
			s3.1-1.4,3.4-3.4c0.3-2.4,0.3-4.5,0.3-6.9c0-38.8,0-77.5,0-116.3C2028.8,783.4,2029.5,784.1,2018.5,784.1z"/>
		<path class="st24" d="M825.2,1083.5c-114.2,0-228.4,0-342.7,0c-9.6,0-9.3,0-9.3,9.6c0,37.4,0,74.8,0,111.8
			c0,10.6-0.7,9.9,10.3,9.9c56.3,0,112.8,0,169.1,0c57.3,0,114.6,0,171.8,0c11,0,11,0,11-10.6c0-36.7,0-73.4,0-110.1
			C835.9,1083.5,835.5,1083.5,825.2,1083.5z"/>
		<path class="st25" d="M1230.7,482.3c-0.3-3.4-0.7-4.1-4.1-4.1c-1.7,0-3.4,0-5.1,0c-110.8,0-221.6,0-332.4,0
			c-9.6,0-9.3-0.3-9.3,9.6c0,38.4,0,76.8,0,115.2c0,11.7-1,11,11.3,11c54.5,0,109.4,0,164,0c54.9,0,110.1,0,165,0
			c11,0,10.3,0.7,10.3-9.9c0-38.8,0-77.5,0-116.3C1231,485.7,1231,484,1230.7,482.3z"/>
		<path class="st26" d="M484.3,764.2c113.2,0,226.7,0,339.9,0c2.1,0,4.1,0,5.8,0c4.5,0,5.1-0.7,5.1-4.8c0-1.4,0-2.7,0-4.1
			c0-37.4,0-74.4,0-111.8c0-10.6,0-9.6-9.9-9.6c-57.3,0-114.6,0-171.5,0c-56.9,0-113.9,0-170.8,0c-10.3,0-9.9-0.7-9.9,9.6
			c0,36.7,0,73.4,0,110.1C473,765.2,472,764.2,484.3,764.2z"/>
		<path class="st27" d="M1621,1083.5c-56.6,0-113.2,0-169.8,0c-55.2,0-110.4,0-165.7,0c-9.9,0-9.9,0-9.9,9.9c0,37,0,74.1,0,111.1
			c0,2.4,0,4.5,0.3,6.9c0.3,1.7,1.4,3.1,3.4,3.1c2.4,0,5.1,0.3,7.5,0.3c55.9,0,111.5,0,167.4,0c56.3,0,112.8,0,169.1,0
			c9.6,0,9.3,0.3,9.3-9.3c0-36.7,0-73.4,0-110.1C1632.6,1084.2,1633.7,1083.5,1621,1083.5z"/>
		<path class="st19" d="M1632.6,643.1c0-10.3,0.7-9.6-9.9-9.6c-56.3,0-112.2,0-168.4,0c-55.9,0-111.5,0-167.4,0c-2.4,0-4.5,0-6.9,0
			c-3.4,0-4.1,0.7-4.5,3.8c0,2.1,0,4.1,0,5.8c0,37,0,74.1,0,111.1c0,11-0.7,9.9,10.3,9.9c53.5,0,107,0,160.5,0c58.7,0,117.3,0,176,0
			c11,0,9.9,0.3,9.9-9.6C1632.6,717.5,1632.6,680.5,1632.6,643.1z"/>
		<path class="st28" d="M1220.4,633.5c-54.9,0-109.8,0-165,0c-54.5,0-108.7,0-163.3,0c-2.4,0-5.1,0-7.5,0c-3.8,0-4.1,0.7-4.5,4.8
			c0,1.7,0,3.4,0,5.1c0,37,0,74.1,0,111.1c0,9.6-0.7,10.3,10.3,10.3c109.8,0,219.9,0,329.6,0c2.1,0,4.1,0,5.8,0
			c3.1-0.3,4.1-1.4,4.5-4.1c0-2.4,0-4.5,0-6.9c0-36.4,0-73.1,0-109.4C1230.7,632.8,1231.7,633.5,1220.4,633.5z"/>
		<path class="st29" d="M2017.1,1083.2c-109.1,0-218.1,0-327.2,0c-2.1,0-4.1,0-5.8,0c-3.8,0.3-5.1,1.7-5.5,5.1c0,2.1,0,4.1,0,5.8
			c0,36.7,0,73.4,0,110.1c0,10.6-0.7,9.9,10.3,9.9c54.9,0,109.8,0,165,0c55.2,0,110.4,0,165.7,0c9.6,0,9.3,0.3,9.3-9.3
			c0-36.7,0-73.4,0-110.1C2028.8,1083.9,2029.1,1083.2,2017.1,1083.2z"/>
		<path class="st30" d="M426.3,794.4c0-2.4,0-4.5,0-6.9c0-2.1-1-3.1-3.1-3.4c-2.4,0-5.1,0-7.5,0c-51.8,0-103.6,0-155.4,0
			c-52.5,0-105.3,0-157.8,0c-9.6,0-9.3-0.3-9.3,9.3c0,39.1,0,77.9,0,117c0,9.6-0.3,9.9,9.6,9.9c104.6,0,209.6,0,314.2,0
			c9.9,0,9.6,0.3,9.6-9.9C426.3,871.9,426.3,833.1,426.3,794.4z"/>
		<path class="st31" d="M2412.6,1214.9c2.4,0,4.5,0,6.9,0c5.5,0,5.8-0.3,5.8-5.8c0-1.7,0-3.4,0-5.1c0-36,0-71.7,0-107.7
			c0-12.7,1-11.7-11.3-11.7c-109.1,0-218.1,0-326.9,0c-1.7,0-3.4,0-5.1,0c-6.5,0-6.9,0.3-6.9,6.9c0,1.4,0,2.7,0,4.1
			c0,36,0,72.4,0,108.4c0,11.3-0.7,10.6,10.6,10.6c54.9,0,109.8,0,164.6,0C2304.2,1214.9,2358.4,1214.9,2412.6,1214.9z"/>
		<path class="st32" d="M1687.9,763.9c110.4,0,220.9,0,331.3,0c9.6,0,9.3,0,9.3-9.3c0-36.4,0-73.1,0-109.4
			c0-12.7,1.4-11.7-11.3-11.7c-54.5,0-109.4,0-164,0c-55.6,0-111.1,0-166.7,0c-8.6,0-8.6,0-8.6,8.6c0,37.7,0,75.1,0,112.8
			C1678.6,764.2,1678.3,763.9,1687.9,763.9z"/>
		<path class="st33" d="M1220.7,1084.9c-110.1,0-220.5,0-330.6,0c-10.3,0-9.9-0.3-9.9,9.6c0,36.7,0,73.4,0,110.1
			c0,10.6-0.7,10.3,10.3,10.3c54.5,0,109.4,0,164,0s109.4,0,164,0c2.4,0,4.5,0,6.9,0c4.5-0.3,5.1-0.7,5.1-4.8c0-1.7,0-3.4,0-5.1
			c0-36.7,0-73.4,0-110.1C1230.7,1084.6,1231,1084.9,1220.7,1084.9z"/>
		<path class="st34" d="M484,1064.7c56.6,0,113.2,0,170.1,0c56.9,0,113.9,0,170.8,0c2.4,0,5.1,0,7.5,0c1.4,0,2.7-1,2.7-2.7
			c0.3-2.1,0.3-4.1,0.3-5.8c0-35.7,0-71.3,0-106.7c0-9.3,0-9.6-9.6-9.6c-114.6,0-228.8,0-343.3,0c-9.6,0-9.3-0.3-9.3,9.3
			c0,35,0,70,0,105C473.3,1065.3,472.6,1064.7,484,1064.7z"/>
		<path class="st35" d="M1623,939.8c-112.5,0-225,0-337.5,0c-9.3,0-9.9-1-9.9,9.9c0,35,0,70,0,105.3c0,11-0.3,10.3,10.3,10.3
			c56.3,0,112.2,0,168.4,0s112.8,0,169.1,0c9.6,0,9.3,0.3,9.3-9.6c0-35.3,0-70.7,0-106C1632.6,939.1,1633.3,939.8,1623,939.8z"/>
		<path class="st36" d="M416.4,1083.5c-104.6,0-208.9,0-313.5,0c-10.3,0-10.3,0-10.3,10.6c0,36.7,0,73.4,0,110.1
			c0,11.3-0.7,10.6,10.6,10.6c51.8,0,103.6,0,155.4,0c52.5,0,104.6,0,157.1,0c10.6,0,9.9,0.7,9.9-10.3c0-37.4,0-74.8,0-111.8
			C426,1083.2,426,1083.5,416.4,1083.5z"/>
		<path class="st37" d="M1220.4,939.8c-54.5,0-109.4,0-164,0c-2.7,0-5.8,0-8.6,0c-52.5,0-105,0-157.1,0c-10.6,0-9.9-0.7-9.9,10.3
			c0,23,0,46.3,0,69.3c0,13,0,26.1,0,39.4c0,5.5,0.3,5.8,5.8,6.2c1,0,2.4,0,3.4,0c110.4,0,220.9,0,331.7,0c9.9,0,9.6,0.3,9.6-9.9
			c0-34.6,0-69.6,0-104.3C1230.7,939.1,1231.7,939.8,1220.4,939.8z"/>
		<path class="st38" d="M1678.6,1054.4c0,10.6-0.7,9.9,10.3,9.9c54.9,0,109.8,0,165,0c55.6,0,111.1,0,166.7,0c8.6,0,8.6,0,8.6-8.6
			c0-0.3,0-0.7,0-0.7c0-35.3,0-70.7,0-106c0-10.3,0.3-9.6-9.9-9.6c-110.1,0-220.5,0-330.6,0c-10.3,0-9.9-0.3-9.9,9.6
			C1678.6,984.4,1678.6,1019.4,1678.6,1054.4z"/>
		<path class="st39" d="M2085.4,1064.7c54.5,0,109.4,0,164,0s108.7,0,163.3,0c2.4,0,4.5,0,6.9,0c5.5,0,5.8-0.7,6.2-5.8
			c0-2.1,0-4.1,0-5.8c0-34,0-67.9,0-101.9c0-12.7,1-11.7-11.3-11.7c-109.1,0-218.1,0-327.2,0c-2.1,0-4.1,0-5.8,0
			c-5.5,0-5.8,0.3-6.2,5.8c0,1.7,0,3.4,0,5.1c0,34.6,0,68.9,0,103.6C2074.8,1065.3,2074.1,1064.7,2085.4,1064.7z"/>
		<path class="st40" d="M426,949.1c0-2.1,0-4.1,0-5.8c0-2.1-1-3.1-3.1-3.4c-2.4,0-5.1,0-7.5,0c-51.8,0-103.6,0-155.4,0
			c-52.5,0-104.6,0-157.1,0c-10.3,0-9.9-0.7-9.9,9.6c0,35.3,0,70.7,0,106c0,2.1,0,4.1,0,5.8c0,2.1,1,3.1,3.1,3.4c2.4,0,4.5,0,6.9,0
			c104.6,0,208.9,0,313.5,0c10.3,0,9.9,0.3,9.9-9.6C426,1019.7,426,984.4,426,949.1z"/>
		<path class="st41" d="M1377.1,2340.6c4.8-1.4,10.3-1.4,15.1,0c2.7,0.7,5.5,1,8.6,1c39.8,0,79.9,0,119.7,0c2.4,0,4.5,0,6.9-0.7
			c6.5-1.7,12.7-1.7,19.2,0c2.1,0.7,4.5,0.7,6.9,0.7c17.1,0,34.3,0,51.1,0c-1.7-1.7-3.8-1-5.8-1c-13.4,0-26.8,0-40.1,0
			c-12.7,0-11.3,1-11.3-11.3c0-137.2,0-274.7,0-411.9c0-10.6,0.7-9.9-9.6-9.9c-50.8,0-101.5,0-151.9,0c-13,0-11.7-1.7-11.7,11.3
			c0,130.7,0,261.4,0,392c0,7.5,0,14.7,0,22.3s0,7.5-7.5,7.5c-9.6,0-18.9,0-28.5,0c-1,0-1.7,0-2.7,0c-3.1,0-5.8,0-8.9,0
			c-2.1,0-4.5-0.7-6.5,1l0,0c15.4,0,30.9,0,46.3,0C1369.9,2341.6,1373.3,2341.6,1377.1,2340.6z M1515.7,2340.6c-37,0-74.1,0-111.1,0
			c-9.9,0-9.6,0.3-9.6-9.9c0-65.2,0-130.3,0-195.9c0-65.2,0-130.3,0-195.9c0-11-0.7-11,10.6-11c36.7,0,73.4,0,110.1,0
			c11.3,0,10.6,0,10.6,11c0,130.3,0,260.3,0,390.7C1526.3,2341.3,1527,2340.6,1515.7,2340.6z"/>
		<path class="st42" d="M589.6,2110.8c2.4,0,4.5-0.3,6.5-1.7c0-3.4,0.3-6.9,0.3-10.3c0-51.8,0-103.6,0-155.4
			c0-11.3-0.7-10.6,10.6-10.6c36.7,0,73.4,0,110.1,0c9.9,0,9.6-0.3,9.6,9.9c0,52.1,0,104.3,0,156.4c0,3.4,0,6.9,0.3,10.3l0,0
			c2.4,1.7,5.5,1.7,8.2,1.7c23.7,0,47.7,0,71.3,0l0,0c-1.4-2.1-3.8-1.4-5.5-1.4c-13.7,0-27.4,0-41.2,0c-2.7,0-4.5,0-6.2,0
			c-0.7,0-1.4,0-1.7,0c-4.1-0.3-3.4-2.4-3.4-11.3c0-58.7,0-117.3,0-176c0-2.4,0-5.1,0-7.5c0-2.1-1-3.1-3.1-3.4c-2.4,0-4.5,0-6.9,0
			c-51.1,0-101.9,0-153,0c-2.1,0-4.1,0-5.8,0c-3.4,0.3-4.5,1-4.5,4.8c0,4.5,0,9.3,0,13.7c0,56.6,0,113.5,0,170.1
			c0,10.6,0.7,9.9-10.3,9.9c-13.4,0-26.8,0-40.1,0c-2.1,0-4.5-0.7-6.5,1l0,0C541.9,2110.8,565.6,2110.8,589.6,2110.8z"/>
		<path class="st43" d="M2405.4,2048.7c0-1,0-2.4-0.3-3.4c-0.3-1-1-2.1-2.4-2.1c-2.1-0.3-4.1-0.3-5.8-0.3c-15.4,0-30.9,0-46,0
			c-2.4,0-4.5,0-6.9-0.3c-1.7,0-2.4-1-2.7-2.7c0-2.4,0-5.1,0-7.5c0-37.4,0-75.1,0-112.5c0-2.4,0-4.5,0-6.9c0-4.5-0.3-4.8-4.8-5.1
			c-1.7,0-3.4,0-5.1,0c-51.1,0-102.2,0-153.7,0c-2.4,0-4.5,0-6.9,0.3c-0.7,0-1.4,0.7-2.1,1.4l0,0c0,12.3,0,25,0,37.4
			c0,31.9,0,64.1,0,96c7.2,0,14.1-1,21.3,1.4c1.7,0.7,3.4,0.3,5.1,0.3c39.1,0,78.5,0,117.6,0c2.4,0,4.5,0,6.9-0.3
			c6.9-1.7,14.1-1.7,20.9,0c2.4,0.7,5.1,0.7,7.5,0.7c15.8,0,31.2,0,47,0c7.5,0,7.5,0,7.5,7.5c0,21.3,0,42.5,0,64.1c0.7,0,1,0,1.7,0
			c0.3-1,0.7-2.1,0.7-3.4C2405.4,2091.2,2405.4,2070,2405.4,2048.7z M2319.7,1938.3c0,31.6,0,63.1,0,95c0,9.9,0.3,9.6-9.9,9.6
			c-18.5,0-37,0-55.6,0c-19.2,0-38.1,0-57.3,0c-7.5,0-7.5,0-7.5-7.5c0-32.9,0-65.5,0-98.4c0-1,0-2.4,0-3.4c0.3-3.4,1.4-4.8,4.5-4.8
			c2.1-0.3,4.1,0,5.8,0c36.7,0,73.4,0,110.1,0C2320,1928.3,2319.7,1928,2319.7,1938.3z"/>
		<path class="st44" d="M105.6,761.8c-2.4,0-5.1,0-7.5,0c-1.4,0-2.7,0.3-3.8,1.7c2.1,2.1,4.8,1,7.2,1c105.6,0,210.9,0,316.6,0
			c2.1,0,4.1,0,5.8-0.3c1.4,0,1.7-1.4,1.7-2.4l0,0C319.3,761.8,212.3,761.8,105.6,761.8z"/>
		<path class="st45" d="M1996.2,2309.7c0,2.4,0,4.5-0.3,6.9c0,1.7-1.4,2.7-2.7,2.7c-2.4,0.3-4.5,0.3-6.9,0.3c-12.3,0-24.4,0-36.7,0
			c-2.4,0-5.1,0.3-7.5,0.3c1,0.3,2.1,0.7,3.4,0.7c15.8,0,31.2,0,47,0c5.5,0,5.8-0.3,5.8-5.8c0-0.7,0-1.7,0-2.4c0-19.6,0-39.4,0-59
			c0-2.1,0-4.1-0.3-5.8c0-0.7-1-1-1.7-1.7l0,0C1996.2,2267.2,1996.2,2288.5,1996.2,2309.7z"/>
		<path class="st20" d="M1179.9,2057.6c2.7-0.3,4.1-1.7,4.5-4.5c0.3-2.1,0-4.1,0-5.8c0-8.2,0-16.5,0-24.7c0-10.6,0-10.6-11-10.6
			c-38.8,0-77.5,0-115.9,0c-38.1,0-76.1,0-114.2,0c-2.4,0-4.5,0-6.9,0c-3.8,0.3-4.5,1-4.5,4.8c0,11.7,0,23.3,0,35
			c0,0.7,0,1.7,0.3,2.4c0.3,1.7,1.7,3.1,3.4,3.4c2.4,0.3,4.5,0.3,6.9,0.3c77.5,0,154.7,0,232.2,0
			C1176.1,2057.6,1178.2,2058,1179.9,2057.6z"/>
		<path class="st46" d="M1111.6,1928c-19.2,0-38.8,0-58,0c-18.5,0-37,0-55.6,0c-2.4,0-4.5,0-6.9,0c-2.1,0-3.1,1.4-3.1,3.4
			c0,1.7,0,3.4,0,5.1c0,17.1,0,34.3,0,51.4c0,1.7,0,3.4,0,5.1c0.3,2.4,1,3.4,3.8,3.8c1.4,0,2.7,0,4.1,0c38.4,0,76.8,0,115.2,0
			c1.7,0,3.4,0,5.1-0.3c1.7-0.3,2.4-1.4,2.7-2.7c0-1.4,0.3-2.7,0.3-4.1c0-17.8,0-36,0-53.9C1119.5,1928,1119.5,1928,1111.6,1928z"/>
		<path class="st46" d="M1917.7,1935.2c0-2.4-1-3.4-3.8-3.8c-1.7,0-3.4,0-5.1,0c-37.4,0-74.8,0-111.8,0c-9.6,0-9.3-0.3-9.3,9.3
			c0,98.4,0,197.2,0,295.7c0,9.6,0,9.3,9.6,9.3c36.7,0,73.4,0,110.1,0c11.3,0,10.6,0.7,10.6-10.6c0-48.7,0-97.4,0-146.1
			c0-48.7,0-97.4,0-146.1C1918,1940.3,1918,1937.6,1917.7,1935.2z"/>
		<path class="st23" d="M1976.7,2305.6c5.5,0,5.8-0.7,6.2-5.8c0-11,0-22.3,0-33.3c0-6.5-0.3-6.9-6.9-6.9c-0.7,0-1.7,0-2.4,0
			c-80.6,0-161.2,0-241.8,0c-2.1,0-4.1,0-5.8,0c-2.7,0.3-4.1,1.7-4.5,4.5c-0.3,2.1,0,4.1,0,5.8c0,8.2,0,16.5,0,24.7
			c0,10.6,0,10.6,11,10.6c40.1,0,80.3,0,120.4,0c39.4,0,78.5,0,118,0C1972.6,2305.6,1974.6,2306,1976.7,2305.6z"/>
		<path class="st35" d="M1588.4,2401.3c2.4-0.3,3.8-1.4,3.8-3.8c0-1,0.3-2.4,0-3.4c-1.7-8.6-1-17.5-1-26.4
			c-0.3-11.3,1-10.6-10.6-10.6c-39.1,0-78.5,0-117.6,0c-39.8,0-79.6,0-119.4,0c-2.4,0-5.1,0-7.5,0.3c-1.7,0-2.7,1-2.7,2.7
			c-0.3,2.1-0.3,4.1-0.3,5.8c0,8.6,0,17.1,0,25.7c0,9.9-0.3,9.9,9.6,9.9c79.9,0,159.8,0,239.8,0
			C1584.6,2401.7,1586.7,2401.7,1588.4,2401.3z"/>
		<path class="st46" d="M726.8,2099.1c0-52.1,0-104.3,0-156.4c0-10.3,0.3-9.9-9.6-9.9c-36.7,0-73.4,0-110.1,0
			c-11.3,0-10.6-0.7-10.6,10.6c0,51.8,0,103.6,0,155.4c0,3.4,0,6.9-0.3,10.3c2.4,0,5.1,0.3,7.5,0.3c38.4,0,77.2,0,115.6,0
			c2.4,0,5.1,0,7.5-0.3l0,0C726.8,2106,726.8,2102.6,726.8,2099.1z"/>
		<path class="st34" d="M787.2,2170.1c2.4-0.3,3.8-1.4,4.1-3.8c0.3-1.4,0.3-2.7,0.3-4.1c0-9.9,0-19.9,0-29.8c0-1.4,0-2.7-0.3-4.1
			c-0.3-1.7-1.4-3.1-3.4-3.4c-2.4-0.3-5.1-0.3-7.5-0.3c-40.1,0-80.3,0-120.4,0c-40.1,0-80.3,0-120.4,0c-2.4,0-4.5,0-6.9,0
			c-2.7,0-3.8,1-4.1,3.4c0,1,0,2.4,0,3.4c0,10.3,0,20.6,0,30.9c0,1.4,0,2.7,0.3,4.1c0.3,2.1,1.4,3.1,3.4,3.4
			c2.7,0.3,5.8,0.3,8.6,0.3c53.2,0,106.7,0,159.8,0c26.8,0,53.5,0,80.3,0C782.7,2170.5,784.8,2170.5,787.2,2170.1z"/>
		<path class="st47" d="M2187.6,2117.7L2187.6,2117.7c2.4-2.7,5.8-1.7,8.9-1.7c38.4,0,76.8,0,115.2,0c3.4,0,6.9,0.3,9.9,1
			c5.5,1.4,11.3,1.4,16.8,0c3.4-0.7,6.9-1,9.9-1c17.8,0,36,0,53.9,0l0,0c0-21.3,0-42.5,0-64.1c0-7.5,0-7.5-7.5-7.5
			c-15.8,0-31.2,0-47,0c-2.4,0-5.1,0-7.5-0.7c-7.2-1.7-14.1-1.7-20.9,0c-2.1,0.7-4.5,0.3-6.9,0.3c-39.1,0-78.5,0-117.6,0
			c-1.7,0-3.4,0.3-5.1-0.3c-6.9-2.4-14.1-1.4-21.3-1.4c-2.1,2.1-4.8,1.7-7.2,1.7c-12.3,0-25,0-37.4,0c-2.4,0-4.5,0-6.9,0
			c-2.1,0-3.1,1.4-3.1,3.4c0,0.7,0,1.7,0,2.4c0,19.9,0,39.8,0,59.7c0,5.5,0.3,5.8,5.8,6.2c2.1,0,4.1,0,5.8,0c12,0,24,0,35.7,0
			c2.4,0,5.1-0.7,7.2,1.7l0,0l0,0C2175.3,2117.7,2181.4,2117.7,2187.6,2117.7z M2140.3,2102.2c-2.1,0-4.1,0-5.8,0
			c-3.8-0.3-4.8-1-4.8-4.5c0.7-11-2.1-21.6-1.4-32.2c0-1.7,0-3.4,0.3-5.1c0.3-2.4,1.7-3.4,3.8-3.8c2.4-0.3,5.1-0.3,7.5-0.3
			c40.5,0,80.9,0,121.4,0c39.8,0,79.6,0,119.7,0c11,0,10.3-0.7,10.3,10.3c0,9.9,0,19.9,0,29.8c0,4.5-1.4,5.5-5.5,5.8
			c-2.1,0-4.1,0-5.8,0C2299.8,2102.2,2220.2,2102.2,2140.3,2102.2z"/>
		<path class="st46" d="M1526.3,2330c0-130.3,0-260.3,0-390.7c0-11,1-11-10.6-11c-36.7,0-73.4,0-110.1,0c-11.3,0-10.6,0-10.6,11
			c0,65.2,0,130.3,0,195.9c0,65.2,0,130.3,0,195.9c0,10.3-0.3,9.9,9.6,9.9c37,0,74.1,0,111.1,0
			C1527,2340.6,1526.3,2341.3,1526.3,2330z"/>
		<path class="st46" d="M2310.1,1928.3c-36.7,0-73.4,0-110.1,0c-2.1,0-4.1,0-5.8,0c-3.4,0.3-4.5,1.4-4.5,4.8c0,1,0,2.4,0,3.4
			c0,32.9,0,65.5,0,98.4c0,7.5,0,7.5,7.5,7.5c19.2,0,38.1,0,57.3,0c18.5,0,37,0,55.6,0c10.3,0,9.9,0.7,9.9-9.6c0-31.6,0-63.1,0-95
			C2319.7,1928,2320,1928.3,2310.1,1928.3z"/>
		<path class="st21" d="M2385.5,2102.2c4.5-0.3,5.5-1.4,5.5-5.8c0-9.9,0-19.9,0-29.8c0-10.6,0.7-10.3-10.3-10.3
			c-39.8,0-79.6,0-119.7,0c-40.5,0-80.9,0-121.4,0c-2.4,0-5.1,0-7.5,0.3c-2.4,0.3-3.8,1.4-3.8,3.8c-0.3,1.7,0,3.4-0.3,5.1
			c-0.7,11,2.1,21.6,1.4,32.2c0,3.4,1,4.1,4.8,4.5c2.1,0,4.1,0,5.8,0c79.6,0,159.5,0,239.1,0
			C2381.4,2102.2,2383.5,2102.2,2385.5,2102.2z"/>
		<path class="st46" d="M2419.8,669.5L1467,119.4L1260.2,0l-206.8,119.4L100.5,669.5l-79.2,46L0,727.8l0,0v1455.3l100.5,58
			l964.8,557l58,33.6l137.2,79.2l195.2-112.5l964.8-557l100.5-58v-1456L2419.8,669.5z M2455.1,2145.1l-67.9,39.1l-46,26.4
			l-21.6,12.3c0-31.9,0-63.8,0-95.7c0-10.3,0.7-9.9-9.6-9.9c-37.4,0-74.4,0-111.8,0c-8.9,0-8.9-0.3-8.9,8.9c0,57.3,0,114.6,0,172.2
			l-3.1,1.7l-17.1,9.9c0-60.4,0-120.7,0-181.1c0-3.8,0-7.5,0-11c0-0.3,0.3-0.3,0.3-0.7l0,0l-0.3,0.7h-0.7l-0.7,0.3
			c0,5.5,0,11,0,16.1c0,59,0,118,0,176.6l-223.6,129c-1.7,2.1-4.5,3.4-7.2,4.1l-18.5,10.6c0-5.8,0-95,0-124.2
			c0-11,0.7-10.3-9.9-10.3c-36.7,0-73.4,0-110.1,0c-2.4,0-4.5,0-6.9,0c-2.1,0-3.1,1.4-3.1,3.4c0,2.7,0,5.8,0,8.6
			c0,65.9,0,131.7,0,197.6l-18.9,11c-0.7,0.3-1,0.7-1.7,1h-0.3l0,0c-0.3,0.3-1,0.3-1.4,0.7v0.3l-217.5,125.5l0,0
			c-0.3,0.3-1,0.7-1.7,0.7v0.3l-20.2,11.7c0-5.8,0-182.8,0-254.8c0-3.8,0-7.5-0.3-11c-25.7,0-51.4,0-77.5,0c-17.8,0-35.7,0-53.5,0.3
			l0,0c0,3.8-0.3,7.5-0.3,11c0,110.1,0,220.5,0,330.6l-20.9,12l-113.9,65.9l-120-69.3l-20.6-12c0-222.9,0-445.9,0-669.2
			c0-3.1,0-6.2-0.3-9.3c0-2.1-1.4-3.1-3.4-3.4c-2.1-0.3-4.1-0.3-5.8-0.3c-37.7,0-75.1,0-112.8,0c-1.4,0-2.7,0-4.1,0
			c-3.4,0.3-4.8,1.4-4.8,4.8c0,2.7,0,5.8,0,8.6c0,197.6,0,395.1,0,593l-20.9-12l-218.5-126.2l0,0c-0.3-0.3-1-0.7-1.4-1l0,0l-20.6-12
			c0-110.4,0-221.2,0-331.7c0-3.8,0-7.5,0-11c-43.2,0-86.8,0-130,0c0,3.8-0.3,7.5-0.3,11c0,72.4,0,251.1,0,256.2l-20.6-11.7v-0.3
			c-0.3-0.3-1-0.3-1.4-0.7v0.3l-162.9-94l-16.8-9.6l-77.9-44.9l-24-13.7l-2.4-1.4c11.7,0,23.3,0,35.3,0c7.5,0,7.5,0,7.5-7.5
			s0-14.7,0-22.3c0-99.8,0-199.3,0-299.1c0-2.7,0-5.8,0-8.6c-0.3-2.7-1.4-4.1-4.5-4.5c-2.1-0.3-4.1,0-5.8,0c-37,0-74.1,0-111.1,0
			c-9.9,0-9.9,0-9.9,9.9c0,93.6,0,187.3,0,280.9l-20.6-12l-48.4-27.8l-67.9-39.1V769.7c1-1.4,3.1-2.7,6.5-4.5
			c6.9-4.1,14.1-7.9,20.9-11.7l0,0c5.8-4.8,13-8.2,19.6-12c19.9-11.7,40.1-23.7,60.4-35.3c22.3-13,44.6-25.7,66.9-38.8
			c15.8-9.3,31.2-18.5,47-27.4c4.1-2.4,8.2-5.1,13-6.2c1.4-1,2.4-2.4,3.8-3.1c6.9-4.1,13.7-7.9,20.6-12c1.4-1,3.1-1.4,4.5-2.1
			c1.7-1,3.1-2.1,4.5-3.1c1-0.7,1.7-1,2.7-1.4c1.4-1.7,3.1-2.4,4.8-3.4c10.6-6.2,21.6-12.7,32.2-18.9c16.1-9.3,31.9-18.5,47.7-27.8
			c1-0.7,2.1-1.4,3.4-1.4c0.3-0.3,0.7-0.3,1-0.7c1-1,2.4-1.7,3.8-2.1c0.3-0.3,0.7-0.7,1.4-1c4.8-2.7,9.3-5.5,14.1-8.2
			c7.5-4.5,15.1-8.9,22.6-13.4c1.4-1,2.7-1.4,3.4-1.4c1.4-1.7,3.1-3.1,5.5-3.8c0.3-0.3,0.7-0.7,1-0.7c6.5-3.8,13.4-7.9,19.9-11.7
			c19.9-11.7,39.8-23.3,59.7-35c3.4-2.1,14.4-8.2,16.8-9.3c6.5-3.8,12.7-7.5,19.2-11.3c1.7-1,7.9-4.5,9.9-5.5c0.3-1,1.4-1.4,2.4-1.7
			c23.3-13.7,46.6-27.1,70-40.8c3.1-1.7,6.2-3.8,9.6-5.5l148.2-85.7c0.7,0,2.7-1.4,3.1-1.7l44.6-25.7c0.3,0,0.3,0,0.7,0l0,0l0.3-0.3
			l205.5-118.7l22-12.7l152.3-87.8l174.2,100.5l519.6,300.1c0.7,0.7,1,1,1.4,1.7l0,0c0.7,0,1.7,0.3,2.4,0.3l64.1,37
			c2.4,1.4,4.5,2.7,6.9,4.1c13,7.5,25.7,15.1,39.1,22.3c1.7,1,2.7,1.7,3.4,2.7c1.7,1,3.1,2.1,4.8,3.1c1.4-0.3,2.4,0.7,3.4,1
			c12,6.9,24,14.1,36,20.9c20.2,12,40.8,23.7,61.1,35.7c3.8,2.1,7.2,4.5,10.6,6.5v0.3c2.7,1.4,6.2,3.1,9.3,5.1
			c1.4,0.7,2.7,1.4,4.1,2.4c5.5,3.8,11.3,6.5,16.8,9.6c2.1,1,4.1,2.1,5.5,4.1l0,0l0,0c6.5,1.7,11.7,5.8,17.1,9.3
			c29.2,16.8,57.6,34,86.8,50.8c29.5,17.1,59.3,34.3,89.2,51.8c3.1,1.7,6.5,3.4,8.9,6.5c2.4,0,4.5,1.4,6.2,2.4
			c7.5,4.5,15.1,8.9,23,13.4c0.3,0,0.3,0.3,0.7,0.3L2455.1,2145.1L2455.1,2145.1z"/>
	</g>
	<g>
		<path class="st48" d="M607.8,1291h236l-22,82.7h-74.1l-122.1,457.6h-85.7l122.4-457.9h-76.1L607.8,1291z"/>
		<path class="st48" d="M1271.8,1291l-103.6,382.4c-12,43.9-37,81.3-75.1,111.8c-38.4,30.5-79.9,46-124.5,46
			c-39.8,0-72.7-13-99.1-38.8c-26.4-25.7-39.8-58.3-39.8-97.1c0-14.4,2.1-28.8,6.2-42.9l96-361.5h85.7l-102.6,382.4
			c-2.1,7.2-3.1,14.4-3.1,22c0,16.1,5.1,28.8,15.8,38.1c10.3,9.3,24,14.1,40.8,14.1c25.7,0,50.4-9.6,74.1-28.8s39.1-41.2,46-66.2
			l97.4-361.5L1271.8,1291L1271.8,1291z"/>
		<path class="st48" d="M1531.8,1579.1c0-38.4-8.2-73.4-25-105.6c-16.8-32.2-41.2-57.6-73.1-76.1l-115.9,433.5H1232l144.1-540.2
			c38.4,0,77.2,15.1,116.6,44.9c39.4,29.8,68.9,63.5,88.1,100.2l38.8-145.1h85.7l-144.1,540.2h-85.7c2.1-6.9,8.9-31.2,20.9-72.7
			c12-41.5,20.6-76.1,26.8-104.6C1529.1,1625.8,1531.8,1600.8,1531.8,1579.1z"/>
		<path class="st48" d="M1886.8,1831.3h-240.4l144.1-540.2h240.4l-22,82.7h-154.7l-38.4,146.1h114.9l-22,82.7h-115.9l-38.8,145.1
			h154.7L1886.8,1831.3z"/>
	</g>
</g>
</svg>
