<svg xmlns="http://www.w3.org/2000/svg" xmlns:xlink="http://www.w3.org/1999/xlink" viewBox="0 0 735 852"><defs><style>.cls-1,.cls-30{fill:none;}.cls-2{fill:#ba6f38;}.cls-3{isolation:isolate;}.cls-4{opacity:0.94;}.cls-14,.cls-5{opacity:0.25;}.cls-5{mix-blend-mode:multiply;}.cls-6{clip-path:url(#clip-path);}.cls-7{clip-path:url(#clip-path-2);}.cls-8{clip-path:url(#clip-path-3);}.cls-9{opacity:0.95;}.cls-10{clip-path:url(#clip-path-4);}.cls-11{fill:#fff;}.cls-12{clip-path:url(#clip-path-5);}.cls-13{fill:#ede8e2;}.cls-14{fill:url(#linear-gradient);}.cls-15{font-size:19px;}.cls-15,.cls-28{font-family:EnhancedLEDBoard-7, Enhanced LED Board-7;}.cls-16{fill:#e6b35a;}.cls-17{fill:#c0b389;}.cls-18{fill:#231f20;}.cls-19{fill:#6a2a21;}.cls-20{fill:#e19b43;}.cls-21{fill:#988d71;}.cls-22{fill:#bbbdbf;}.cls-23{fill:#d0d2d3;}.cls-24{fill:#fff100;}.cls-25{fill:#d2c49f;}.cls-26{fill:#dacdad;}.cls-27{fill:#d89e4a;stroke-width:2px;}.cls-27,.cls-30{stroke:#6a2a21;}.cls-28{font-size:58.96px;letter-spacing:-0.01em;}.cls-29{fill:#b5b4b1;}.cls-30{stroke-miterlimit:10;stroke-width:5px;}</style><clipPath id="clip-path"><path class="cls-1" d="M2690.58,3518.55l-338.12,195.22-338.12-195.22V3128.12l338.12-195.22h0l338.12,195.22Z"/></clipPath><clipPath id="clip-path-2"><polygon class="cls-1" points="2196.39 3302.32 2504.05 3302.32 9082.97 7483.59 -4382.53 7483.59 2196.39 3302.32"/></clipPath><clipPath id="clip-path-3"><path class="cls-1" d="M2689.08,3517.05,2351,3712.27l-338.12-195.22V3126.62L2351,2931.4h0l338.12,195.22Z"/></clipPath><clipPath id="clip-path-4"><polygon class="cls-1" points="2194.89 3300.82 2502.55 3300.82 9081.47 7482.09 -4384.03 7482.09 2194.89 3300.82"/></clipPath><clipPath id="clip-path-5"><polygon class="cls-2" points="369.51 7.4 728.21 214.47 728.21 636.62 369.51 845.03 2.79 636.62 2.79 214.47 369.51 7.4"/></clipPath><linearGradient id="linear-gradient" x1="367.33" y1="-121.12" x2="368.63" y2="342.4" gradientUnits="userSpaceOnUse"><stop offset="0" stop-color="#fff" stop-opacity="0.83"/><stop offset="0.56" stop-color="#fff" stop-opacity="0.37"/><stop offset="1" stop-color="#fff" stop-opacity="0"/></linearGradient></defs><title>usethis</title><g class="cls-3"><g id="Layer_1" data-name="Layer 1"><g class="cls-4"><g class="cls-5"><g class="cls-6"><g class="cls-7"><polyline points="20720.85 19936.02 20720.85 19936.02 -12047.15 -12831.98 -12047.15 -12831.98 20720.85 19936.02"/><polyline points="-1592.27 698.89 886.84 698.89 1048.03 974.87 -1158.02 974.87 -1592.27 698.89"/><polyline points="-12047.15 19936.02 -12047.15 19936.02 20720.85 -12831.98 20720.85 -12831.98 -12047.15 19936.02"/></g></g></g><g class="cls-8"><g class="cls-9"><g class="cls-3"><g class="cls-10"><polyline class="cls-11" points="20719.35 19934.52 20719.35 19934.52 -12048.65 -12833.48 -12048.65 -12833.48 20719.35 19934.52"/><polyline class="cls-11" points="-1593.77 697.39 885.34 697.39 1046.53 973.37 -1159.52 973.37 -1593.77 697.39"/><polyline class="cls-11" points="-12048.65 19934.52 -12048.65 19934.52 20719.35 -12833.48 20719.35 -12833.48 -12048.65 19934.52"/></g></g></g></g></g><polygon class="cls-2" points="369.51 7.4 728.21 214.47 728.21 636.62 369.51 845.03 2.79 636.62 2.79 214.47 369.51 7.4"/><g class="cls-12"><circle class="cls-13" cx="365.5" cy="437.45" r="442.13" transform="translate(-202.27 386.57) rotate(-45)"/><path class="cls-14" d="M683.21,107.07c0,129.59-141.14,234.64-315.24,234.64S52.72,236.66,52.72,107.07,193.86-127.56,368-127.56,683.21-22.51,683.21,107.07Z"/></g><text class="cls-15" transform="matrix(0.86, -0.5, 0.5, 0.86, 509.53, 731.28)">rstudio.com</text><path class="cls-16" d="M309.83,515.64l.59-.56h-.17Z"/><polygon class="cls-17" points="460.67 741.78 408.41 741.78 408.41 823.67 460.67 793.01 460.67 741.78"/><path class="cls-18" d="M461.33,793.75l-53.58,30.66V741.05h53.58v52.7Zm-52.25,29.18L460,792.28V742.52H409.08v80.41Z"/><polygon class="cls-17" points="337.39 741.78 284.8 741.78 284.8 793.01 337.39 823.67 337.39 741.78"/><path class="cls-18" d="M338.06,824.41l-53.93-30.66v-52.7h53.93v83.36Zm-52.6-32.13,51.27,30.65V742.52H285.46v49.76Z"/><rect class="cls-19" x="362.34" y="80.44" width="19.35" height="70.39"/><path class="cls-18" d="M382.36,151.49H361.68V79.77h20.68v71.72ZM363,150.16h18V81.1H363v69.06Z"/><path class="cls-20" d="M394.61,76.1A22.59,22.59,0,1,1,372,53.51,22.59,22.59,0,0,1,394.61,76.1Z"/><path class="cls-18" d="M372,99.36A23.26,23.26,0,1,1,395.28,76.1,23.29,23.29,0,0,1,372,99.36Zm0-45.19A21.93,21.93,0,1,0,394,76.1,22,22,0,0,0,372,54.17Z"/><polygon class="cls-21" points="264.3 761.19 196.85 577.64 373.42 464.2 549.99 577.64 482.55 761.19 264.3 761.19"/><path class="cls-22" d="M483,761.86H263.83L196,577.37l.45-.29L373.42,463.41l.36.23,177,113.73-.18.5L483,761.86Zm-218.25-1.33H482.09l67.1-182.62L373.42,465,197.66,577.91l67.1,182.62Z"/><path class="cls-19" d="M417.2,174.7A45.18,45.18,0,1,1,372,129.52,45.18,45.18,0,0,1,417.2,174.7Z"/><path class="cls-18" d="M372,220.55a45.85,45.85,0,1,1,45.85-45.85A45.9,45.9,0,0,1,372,220.55Zm0-90.36a44.52,44.52,0,1,0,44.52,44.51A44.57,44.57,0,0,0,372,130.19Z"/><rect class="cls-21" x="249.19" y="162.5" width="245.66" height="149.73"/><path class="cls-23" d="M495.51,312.9h-247V161.84h247V312.9Zm-245.65-1.33H494.18V163.17H249.86v148.4Z"/><path class="cls-18" d="M315.4,242a27.44,27.44,0,1,1,27.43-27.44A27.47,27.47,0,0,1,315.4,242Z"/><path class="cls-18" d="M315.4,188.26a26.29,26.29,0,1,0,26.28,26.28,26.31,26.31,0,0,0-26.28-26.28Z"/><path class="cls-18" d="M430.41,242a27.44,27.44,0,1,1,27.43-27.44A27.46,27.46,0,0,1,430.41,242Z"/><path class="cls-18" d="M430.41,188.26a26.29,26.29,0,1,0,26.28,26.28,26.31,26.31,0,0,0-26.28-26.28Z"/><path class="cls-24" d="M430.41,234.41a19.87,19.87,0,1,1,19.87-19.87,19.89,19.89,0,0,1-19.87,19.87Z"/><path class="cls-25" d="M430.41,195.82a18.72,18.72,0,1,0,18.72,18.72,18.74,18.74,0,0,0-18.72-18.72Z"/><path class="cls-24" d="M315.4,234.41a19.87,19.87,0,1,1,19.86-19.87,19.89,19.89,0,0,1-19.86,19.87Z"/><path class="cls-25" d="M315.4,195.82a18.72,18.72,0,1,0,18.72,18.72,18.75,18.75,0,0,0-18.72-18.72Z"/><path class="cls-17" d="M320.92,312.9a10.6,10.6,0,0,0-10.59,10.59v6.56a10.6,10.6,0,0,0,10.59,10.59h102.2a10.59,10.59,0,0,0,10.58-10.59v-6.56a10.59,10.59,0,0,0-10.58-10.59Z"/><path class="cls-17" d="M320.92,342a10.6,10.6,0,0,0-10.59,10.58v6.57a10.6,10.6,0,0,0,10.59,10.58h102.2a10.59,10.59,0,0,0,10.58-10.58v-6.57A10.59,10.59,0,0,0,423.12,342Z"/><rect class="cls-21" x="196.85" y="370.36" width="352.1" height="210.38"/><path class="cls-22" d="M549.62,581.41H196.19V369.7H549.62V581.41Zm-352.1-1.33H548.29V371H197.52V580.08Z"/><polygon class="cls-26" points="224.35 520.88 523.66 520.88 523.66 401.15 224.35 401.15 224.35 520.88 224.35 520.88"/><path class="cls-27" d="M239.65,536.18a15.3,15.3,0,1,0,15.3,15.3,15.32,15.32,0,0,0-15.3-15.3Z"/><path class="cls-27" d="M283.92,536.18a15.3,15.3,0,1,0,15.29,15.3,15.31,15.31,0,0,0-15.29-15.3Z"/><path class="cls-27" d="M326.84,536.18a15.3,15.3,0,1,0,15.29,15.3,15.31,15.31,0,0,0-15.29-15.3Z"/><path class="cls-27" d="M372,536.18a15.3,15.3,0,1,0,15.3,15.3,15.31,15.31,0,0,0-15.3-15.3Z"/><path class="cls-17" d="M180.32,387.82a11.74,11.74,0,0,0-11.73,11.73V468.6a11.74,11.74,0,0,0,11.73,11.73h4.14a11.75,11.75,0,0,0,11.73-11.73V399.55a11.75,11.75,0,0,0-11.73-11.73Z"/><rect class="cls-19" x="101.4" y="475.55" width="33.06" height="115.23"/><path class="cls-18" d="M135.12,591.45H100.73V474.89h34.39V591.45Zm-33.06-1.33h31.73V476.22H102.06v113.9Z"/><rect class="cls-19" x="71.69" y="383.34" width="96.23" height="101.48"/><path class="cls-18" d="M168.59,485.48H71V382.67h97.56V485.48Zm-96.23-1.33h94.9V384H72.36V484.15Z"/><path class="cls-21" d="M100.7,636.26a24.38,24.38,0,1,1,34.46,0L148.5,649.6a43.24,43.24,0,1,0-61.14,0Z"/><path class="cls-18" d="M148.5,650.54l-14.28-14.28.47-.47a23.72,23.72,0,1,0-33.52,0l.47.47L87.36,650.54l-.47-.47a43.9,43.9,0,1,1,62.08,0l-.47.47Zm-30.57-74.08a42.57,42.57,0,0,0-30.57,72.2l12.4-12.41a25,25,0,1,1,36.33,0l12.41,12.41a42.57,42.57,0,0,0-30.57-72.2Z"/><path class="cls-17" d="M561.35,387.82a11.74,11.74,0,0,0-11.73,11.73V468.6a11.74,11.74,0,0,0,11.73,11.73h4.13a11.74,11.74,0,0,0,11.73-11.73V399.55a11.74,11.74,0,0,0-11.73-11.73Z"/><rect class="cls-19" x="611.35" y="475.55" width="33.06" height="115.23"/><path class="cls-18" d="M645.07,591.45H610.68V474.89h34.39V591.45ZM612,590.12h31.73V476.22H612v113.9Z"/><rect class="cls-19" x="577.88" y="383.34" width="96.23" height="101.48"/><path class="cls-18" d="M674.78,485.48H577.21V382.67h97.57V485.48Zm-96.24-1.33h94.91V384H578.54V484.15Z"/><path class="cls-21" d="M645.11,636.26a24.38,24.38,0,1,0-34.47,0L597.3,649.6a43.24,43.24,0,1,1,61.15,0Z"/><path class="cls-18" d="M658.45,650.54l-14.28-14.28.47-.47a23.72,23.72,0,1,0-33.53,0l.47.47L597.3,650.54l-.47-.47a43.91,43.91,0,1,1,62.09,0l-.47.47Zm-30.57-74.08a42.57,42.57,0,0,0-30.57,72.2l12.4-12.41a25,25,0,1,1,36.33,0l12.4,12.41a42.57,42.57,0,0,0-30.56-72.2Z"/><polygon class="cls-18" points="279.4 741.94 255.56 677.43 231.71 612.93 232.96 612.47 256.8 676.97 280.65 741.48 279.4 741.94 279.4 741.94"/><polygon class="cls-18" points="263.13 612.93 264.18 612.65 282.78 677.02 300.94 740.48 300.94 740.48 301.19 741.48 300.13 741.76 300.13 741.76 281.53 677.38 263.37 613.93 263.13 612.93"/><polygon class="cls-18" points="294.54 612.93 295.41 612.84 308.75 677.08 321.66 740.66 321.66 740.66 321.73 741.48 320.85 741.57 320.85 741.57 307.51 677.33 294.6 613.74 294.54 612.93"/><polygon class="cls-18" points="325.95 612.93 326.63 613.02 334.73 677.13 342.39 740.85 342.39 740.85 342.26 741.48 341.58 741.39 341.58 741.39 333.48 677.28 325.83 613.56 325.95 612.93"/><polygon class="cls-18" points="357.37 612.93 357.86 613.21 360.71 677.18 363.12 741.03 363.12 741.03 362.8 741.48 362.31 741.2 362.31 741.2 359.46 677.23 357.05 613.38 357.37 612.93"/><polygon class="cls-18" points="388.78 612.93 389.09 613.39 386.68 677.23 383.84 741.21 383.84 741.21 383.34 741.48 383.04 741.02 383.04 741.02 385.44 677.18 388.28 613.2 388.78 612.93"/><polygon class="cls-18" points="420.19 612.93 420.31 613.58 412.66 677.28 404.57 741.39 404.57 741.39 403.88 741.48 403.76 740.83 403.76 740.83 411.41 677.13 419.51 613.01 420.19 612.93"/><polygon class="cls-18" points="451.61 612.93 451.54 613.76 438.64 677.33 425.29 741.58 425.29 741.58 424.42 741.48 424.49 740.64 424.49 740.64 437.39 677.08 450.73 612.83 451.61 612.93"/><polygon class="cls-18" points="483.02 612.93 482.76 613.95 464.61 677.38 446.02 741.76 446.02 741.76 444.96 741.48 445.22 740.46 445.22 740.46 463.37 677.02 481.96 612.65 483.02 612.93"/><polygon class="cls-18" points="466.75 741.94 465.5 741.48 489.34 676.97 513.19 612.47 514.43 612.93 490.59 677.43 466.75 741.94 466.75 741.94"/><text class="cls-28" transform="translate(234.6 490.45)">usethis</text><path class="cls-29" d="M705.61,196.21,427.81,35.82,367.5,1,307.19,35.82,29.37,196.22.09,213.13V637.38l29.28,16.91L310.65,816.68l56.85,32.83,56.85-32.83L705.61,654.3l29.3-16.92V213.13Zm0,425.26L367.49,816.68,29.37,621.47V231L367.49,35.82h0L705.61,231Z"/><path class="cls-18" d="M448.16,265.8v8.1l-75.34,19.67L297.64,273.9v-8.1H448.16m1.25-1.25h-153v10.31l76.43,20,76.59-20V264.55Z"/><path class="cls-18" d="M455.44,258.51v22.65l-82.54,19.7-82.54-19.7V258.51H455.44m1.25-1.25H289.11v24.89l83.79,20,83.79-20V257.26Z"/><path class="cls-30" d="M280.92,193.75c4.69-10,19.59-22.07,45.66-21.56"/><path class="cls-30" d="M468.29,193.75c-4.69-10-19.59-22.07-45.66-21.56"/></g></g></svg>