<?xml version="1.0" encoding="utf-8"?>
<!-- Generator: Adobe Illustrator 26.5.0, SVG Export Plug-In . SVG Version: 6.00 Build 0)  -->
<svg version="1.1" id="Layer_1" xmlns="http://www.w3.org/2000/svg" xmlns:xlink="http://www.w3.org/1999/xlink" x="0px" y="0px"
	 viewBox="0 0 2521 2911" style="enable-background:new 0 0 2521 2911;" xml:space="preserve">
<style type="text/css">
	.st0{fill:#EDE8E2;}
	.st1{opacity:0.25;enable-background:new    ;}
	.st2{clip-path:url(#SVGID_00000145739847725147176570000010927963366611336892_);fill:#FFFFFF;}
	.st3{fill:#E6B35A;}
	.st4{fill:#C0B389;}
	.st5{fill:#231F20;}
	.st6{fill:#6A2A21;}
	.st7{fill:#E19B43;}
	.st8{fill:#988D71;}
	.st9{fill:#BBBDBF;}
	.st10{fill:#D0D2D3;}
	.st11{fill:#FFF100;}
	.st12{fill:#D2C49F;}
	.st13{fill:#DACDAD;}
	.st14{fill:#D89E4A;}
	.st15{fill:#B5B4B1;}
</style>
<g>
	<polygon class="st0" points="2453.1,767.6 1260.5,78.9 1260.5,78.9 67.6,767.6 67.6,2145.2 1260.5,2833.8 2453.1,2145.2 	"/>
	<g class="st1">
		<g>
			<defs>
				<path id="SVGID_1_" d="M1262.2,1169c440.9,0,820-196.3,988.4-478l-990.1-571.6l0,0L272.8,689.7
					C440.9,972,820.7,1169,1262.2,1169z"/>
			</defs>
			<clipPath id="SVGID_00000062881101211627422420000001955591802587463310_">
				<use xlink:href="#SVGID_1_"  style="overflow:visible;"/>
			</clipPath>
			<polygon style="clip-path:url(#SVGID_00000062881101211627422420000001955591802587463310_);fill:#FFFFFF;" points="
				2250.6,468.8 272.8,474.4 272.8,119.4 2250.6,119.4 			"/>
			<polygon style="clip-path:url(#SVGID_00000062881101211627422420000001955591802587463310_);fill:#FFFFFF;" points="
				2250.6,1168.6 2119.4,1169 272.8,1169 272.8,474.4 2250.6,468.8 			"/>
			<polygon style="clip-path:url(#SVGID_00000062881101211627422420000001955591802587463310_);fill:#FFFFFF;" points="2119.4,1169 
				2250.6,1168.6 2250.6,1169 			"/>
		</g>
	</g>
	<g>
		<path class="st3" d="M1062.5,1765.7l2.1-2.1h-0.7L1062.5,1765.7z"/>
	</g>
	<g>
		<polygon class="st4" points="1580.3,2541.8 1400.8,2541.8 1400.8,2822.8 1580.3,2717.5 		"/>
	</g>
	<g>
		<path class="st5" d="M1582.3,2720.2l-183.9,105.3v-286.5h183.9V2720.2L1582.3,2720.2z M1403.2,2820.1l174.6-105v-170.9h-174.6
			V2820.1L1403.2,2820.1z"/>
	</g>
	<g>
		<polygon class="st4" points="1157.2,2541.8 976.8,2541.8 976.8,2717.5 1157.2,2822.8 		"/>
	</g>
	<g>
		<path class="st5" d="M1159.6,2825.2l-184.9-105.3v-180.8h184.9V2825.2z M979.2,2715.1l176,105.3v-275.9h-176V2715.1L979.2,2715.1z
			"/>
	</g>
	<g>
		<rect x="1242.7" y="272.4" class="st6" width="66.6" height="241.6"/>
	</g>
	<g>
		<path class="st5" d="M1311.6,516.4h-71v-246h71V516.4L1311.6,516.4z M1245.1,511.9h61.8V274.8h-61.8V511.9z"/>
	</g>
	<g>
		<path class="st7" d="M1353.5,257.7c0,42.9-34.7,77.5-77.5,77.5s-77.5-34.7-77.5-77.5s34.7-77.5,77.5-77.5
			S1353.5,214.8,1353.5,257.7L1353.5,257.7z"/>
	</g>
	<g>
		<path class="st5" d="M1275.9,337.6c-43.9,0-79.9-35.7-79.6-79.9s35.7-79.9,79.9-79.6c43.9,0,79.6,35.7,79.6,79.9
			C1355.9,301.6,1319.9,337.6,1275.9,337.6z M1275.9,182.5c-41.5,0-75.1,34-75.1,75.5s34,75.1,75.5,75.1c41.5,0,75.1-33.6,75.1-75.1
			C1351.4,216.2,1317.5,182.5,1275.9,182.5z"/>
	</g>
	<g>
		<polygon class="st8" points="906.4,2608.4 675.2,1978.4 1280.7,1589.3 1886.6,1978.4 1655,2608.4 		"/>
	</g>
	<g>
		<path class="st9" d="M1656.8,2610.8h-752l-232.6-633l1.4-1l607.3-390.1l1.4,0.7l607.3,390.1l-0.7,1.7L1656.8,2610.8z M908.2,2606
			h745.5l230.2-626.5l-603.1-387.4l-602.8,387.4L908.2,2606L908.2,2606z"/>
	</g>
	<g>
		<path class="st6" d="M1431,596c0,85.8-69.3,155.1-155.1,155.1s-155.1-69.3-155.1-155.1c0-85.4,69.3-155.1,155.1-155.1
			S1431,510.2,1431,596L1431,596z"/>
	</g>
	<g>
		<path class="st5" d="M1275.9,753.5c-86.8,0-157.5-70.3-157.5-157.5c0-86.8,70.3-157.1,157.5-157.1c86.8,0,157.5,70.3,157.5,157.5
			l0,0C1433.1,682.8,1362.7,753.1,1275.9,753.5z M1275.9,443.3c-84.4,0-152.7,68.3-152.7,152.7s68.3,152.7,152.7,152.7
			s152.7-68.3,152.7-152.7l0,0C1428.6,511.6,1360.3,443.3,1275.9,443.3z"/>
	</g>
	<g>
		<rect x="854.6" y="554.1" class="st8" width="843" height="513.6"/>
	</g>
	<g>
		<path class="st10" d="M1699.7,1070.2H852.2V551.7h847.4V1070.2z M857,1065.7h838.2V556.5H857V1065.7L857,1065.7z"/>
	</g>
	<g>
		<path class="st5" d="M1081.8,826.9c-52.1,0-94-42.2-94.3-94c-0.3-51.8,42.2-94,94-94c52.1,0,94,42.2,94.3,94l0,0
			C1175.8,784.7,1133.6,826.9,1081.8,826.9z"/>
	</g>
	<g>
		<path class="st5" d="M1081.8,642.7c-49.7,0-90.2,40.5-90.2,90.2c0,49.8,40.5,90.2,90.2,90.2s90.2-40.5,90.2-90.2l0,0
			C1172,682.8,1131.5,642.7,1081.8,642.7z"/>
	</g>
	<g>
		<path class="st5" d="M1476.3,826.9c-52.1,0-94-42.2-94.3-94c-0.3-51.8,42.2-94,94-94c52.1,0,94,42.2,94.3,94l0,0
			C1570.3,784.7,1528.5,826.9,1476.3,826.9z"/>
	</g>
	<g>
		<path class="st5" d="M1476.3,642.7c-49.7,0-90.2,40.5-90.2,90.2c0,49.8,40.5,90.2,90.2,90.2s90.2-40.5,90.2-90.2l0,0
			C1566.5,682.8,1526,642.7,1476.3,642.7z"/>
	</g>
	<g>
		<path class="st11" d="M1476.3,800.8c-37.7,0-68.3-30.5-68.3-68.3c0-37.7,30.5-68.3,68.3-68.3s68.3,30.5,68.3,68.3l0,0
			C1544.6,770.3,1514,800.8,1476.3,800.8z"/>
	</g>
	<g>
		<path class="st12" d="M1476.3,668.4c-35.3,0-64.2,28.8-64.2,64.2s28.8,64.2,64.2,64.2s64.2-28.8,64.2-64.2
			S1511.6,668.4,1476.3,668.4z"/>
	</g>
	<g>
		<path class="st11" d="M1081.8,800.8c-37.7,0-68.3-30.5-68.3-68.3c0-37.7,30.5-68.3,68.3-68.3s68.3,30.5,68.3,68.3l0,0
			C1149.7,770.3,1119.5,800.8,1081.8,800.8L1081.8,800.8z"/>
	</g>
	<g>
		<path class="st12" d="M1081.8,668.4c-35.3,0-64.2,28.8-64.2,64.2s28.8,64.2,64.2,64.2s64.2-28.8,64.2-64.2
			S1117.1,668.4,1081.8,668.4z"/>
	</g>
	<g>
		<path class="st4" d="M1100.6,1070.2c-19.9,0-36.4,16.1-36.4,36.4v22.6c0,19.9,16.1,36.4,36.4,36.4h350.6
			c19.9,0,36.4-16.1,36.4-36.4v-22.6c0-19.9-16.1-36.4-36.4-36.4H1100.6z"/>
	</g>
	<g>
		<path class="st4" d="M1100.6,1170c-19.9,0-36.4,16.1-36.4,36.4v22.6c0,19.9,16.1,36.4,36.4,36.4h350.6c19.9,0,36.4-16.1,36.4-36.4
			v-22.6c0-19.9-16.1-36.4-36.4-36.4H1100.6z"/>
	</g>
	<g>
		<rect x="675.2" y="1267.5" class="st8" width="1208" height="721.9"/>
	</g>
	<g>
		<path class="st9" d="M1885.3,1991.4H672.8v-726.4h1212.5V1991.4z M677.3,1987h1203.5v-717.5H677.3V1987L677.3,1987z"/>
	</g>
	<g>
		<polygon class="st13" points="769.5,1783.9 1796.4,1783.9 1796.4,1372.8 769.5,1372.8 		"/>
	</g>
	<g>
		<path class="st14" d="M821.7,1836.4c-28.8,0-52.5,23.7-52.5,52.5s23.7,52.5,52.5,52.5s52.5-23.7,52.5-52.5l0,0
			C874.2,1859.7,850.9,1836.4,821.7,1836.4z"/>
		<path class="st6" d="M821.7,1944.8c-30.8,0-55.9-25.1-55.9-55.9s25.1-55.9,55.9-55.9c30.8,0,55.9,25.1,55.9,55.9
			S852.5,1944.8,821.7,1944.8z M821.7,1839.8c-27.1,0-49.1,22-49.1,49.1c0,27.1,22,49.1,49.1,49.1c27.1,0,49.1-22,49.1-49.1
			C870.8,1861.8,848.7,1839.8,821.7,1839.8z"/>
	</g>
	<g>
		<path class="st14" d="M973.7,1836.4c-28.8,0-52.5,23.3-52.5,52.5c0,29.2,23.3,52.5,52.5,52.5c28.8,0,52.5-23.3,52.5-52.5l0,0
			C1026.2,1859.7,1002.8,1836.4,973.7,1836.4z"/>
		<path class="st6" d="M973.7,1944.8c-30.8,0-55.9-25.1-55.9-55.9s25.1-55.9,55.9-55.9c30.8,0,55.9,25.1,55.9,55.9
			S1004.5,1944.8,973.7,1944.8z M973.7,1839.8c-27.1,0-49.1,22-49.1,49.1c0,27.1,22,49.1,49.1,49.1c27.1,0,49.1-22,49.1-49.1
			C1022.7,1861.8,1000.7,1839.8,973.7,1839.8z"/>
	</g>
	<g>
		<path class="st14" d="M1120.9,1836.4c-28.8,0-52.5,23.3-52.5,52.5c0,29.2,23.3,52.5,52.5,52.5c28.8,0,52.5-23.3,52.5-52.5l0,0
			C1173.4,1859.7,1150,1836.4,1120.9,1836.4z"/>
		<path class="st6" d="M1120.9,1944.8c-30.8,0-55.9-25.1-55.9-55.9s25.1-55.9,55.9-55.9s55.9,25.1,55.9,55.9
			S1151.7,1944.8,1120.9,1944.8z M1120.9,1839.8c-27.1,0-49.1,22-49.1,49.1c0,27.1,22,49.1,49.1,49.1c27.1,0,49.1-22,49.1-49.1
			C1169.9,1861.8,1147.9,1839.8,1120.9,1839.8z"/>
	</g>
	<g>
		<path class="st14" d="M1275.9,1836.4c-28.8,0-52.5,23.7-52.5,52.5s23.7,52.5,52.5,52.5s52.5-23.3,52.5-52.5l0,0
			C1328.4,1859.7,1304.8,1836.4,1275.9,1836.4z"/>
		<path class="st6" d="M1275.9,1944.8c-30.8,0-55.9-25.1-55.9-55.9s25.1-55.9,55.9-55.9c30.8,0,55.9,25.1,55.9,55.9
			S1306.8,1944.8,1275.9,1944.8z M1275.9,1839.8c-27.1,0-49.1,22-49.1,49.1c0,27.1,22,49.1,49.1,49.1c27.1,0,49.1-22,49.1-49.1
			C1325,1861.8,1303,1839.8,1275.9,1839.8z"/>
	</g>
	<g>
		<path class="st4" d="M618.2,1327.2c-22.3,0-40.1,18.2-40.1,40.1v236.8c0,22.3,18.2,40.1,40.1,40.1h14.1
			c22.3,0,40.1-18.2,40.1-40.1V1367c0-22.3-18.2-40.1-40.1-40.1L618.2,1327.2z"/>
	</g>
	<g>
		<rect x="347.5" y="1628.1" class="st6" width="113.6" height="395.3"/>
	</g>
	<g>
		<path class="st5" d="M463.2,2026.1h-118V1626h118V2026.1z M349.9,2021.3h108.8v-390.8H349.9
			C349.9,1630.5,349.9,2021.3,349.9,2021.3z"/>
	</g>
	<g>
		<rect x="245.6" y="1311.7" class="st6" width="330" height="348.3"/>
	</g>
	<g>
		<path class="st5" d="M578.1,1662.4H243.2v-352.7h334.9V1662.4L578.1,1662.4z M248.1,1657.9h325.6v-343.8H248.1V1657.9
			L248.1,1657.9z"/>
	</g>
	<g>
		<path class="st8" d="M345.1,2179.8c-32.6-32.6-32.6-85.8,0-118.4c32.6-32.6,85.8-32.6,118.4,0c32.6,32.6,32.6,85.8,0,118.4l0,0
			l45.6,45.6c58-58,58-152,0-210c-58-58-152-58-210,0s-58,152,0,210l0,0L345.1,2179.8z"/>
	</g>
	<g>
		<path class="st5" d="M509.1,2228.5l-49.1-49.1l1.7-1.7c31.9-31.9,31.9-83.4,0-114.9c-31.9-31.9-83.4-31.9-114.9,0
			c-31.6,31.9-31.9,83.4,0,114.9l0,0l1.7,1.7l-49.1,49.1l-1.7-1.7c-58.7-58.7-58.7-154.1,0-213.1c58.7-58.7,154-58.7,213.1,0
			c59,58.7,58.7,154.1,0,213.1l0,0L509.1,2228.5z M404.2,1974.6c-80.6,0-146.2,65.5-146.2,146.2c0,38.1,14.8,74.5,41.2,101.6
			l42.5-42.5c-32.6-34.3-30.9-88.9,3.4-121.1c34.3-32.3,88.9-30.9,121.1,3.4c31.2,32.9,31.2,84.7,0,118l42.5,42.5
			c56.3-58,54.6-150.3-3.1-206.6C478.6,1989.4,442.2,1974.6,404.2,1974.6z"/>
	</g>
	<g>
		<path class="st4" d="M1925.4,1327.2c-22.3,0-40.1,18.2-40.1,40.1v236.8c0,22.3,18.2,40.1,40.1,40.1h14.1
			c22.3,0,40.1-18.2,40.1-40.1V1367c0-22.3-18.2-40.1-40.1-40.1L1925.4,1327.2z"/>
	</g>
	<g>
		<rect x="2096.9" y="1628.1" class="st6" width="113.6" height="395.3"/>
	</g>
	<g>
		<path class="st5" d="M2212.9,2026.1h-118V1626h118V2026.1z M2099.3,2021.3h108.8v-390.8h-108.8V2021.3z"/>
	</g>
	<g>
		<rect x="1982.4" y="1311.7" class="st6" width="330" height="348.3"/>
	</g>
	<g>
		<path class="st5" d="M2314.8,1662.4H1980v-352.7h334.9V1662.4z M1984.4,1657.9H2310v-343.8h-325.6V1657.9L1984.4,1657.9z"/>
	</g>
	<g>
		<path class="st8" d="M2212.9,2179.8c32.6-32.6,32.6-85.8,0-118.4c-32.6-32.6-85.8-32.6-118.4,0c-32.6,32.6-32.6,85.8,0,118.4l0,0
			l-45.6,45.6c-58-58-58-152,0-210c58-58,152-58,210,0s58,152,0,210l0,0L2212.9,2179.8z"/>
	</g>
	<g>
		<path class="st5" d="M2258.9,2228.5l-49.1-49.1l1.7-1.7c31.9-31.9,31.9-83.4,0-114.9c-31.9-31.9-83.4-31.9-114.9,0
			c-31.6,31.9-31.9,83.4,0,114.9l0,0l1.7,1.7l-49.1,49.1l-1.7-1.7c-59-58.7-59-154.1,0-213.1c58.7-59,154-59,213.1,0
			c59,59,59,154.1,0,213.1l0,0L2258.9,2228.5L2258.9,2228.5z M2153.9,1974.6c-80.6,0-146.2,65.5-146.2,146.2
			c0,38.1,14.8,74.5,41.2,101.6l42.5-42.5c-32.6-34.3-30.9-88.9,3.4-121.1c34.3-32.6,88.9-30.9,121.1,3.4c31.2,32.9,31.2,84.7,0,118
			l42.5,42.5c56.3-58,54.6-150.3-3.1-206.6C2228.3,1989.4,2191.6,1974.6,2153.9,1974.6L2153.9,1974.6z"/>
	</g>
	<g>
		<polygon class="st5" points="958.2,2542.1 876.6,2320.8 794.6,2099.5 799,2098.2 880.7,2319.5 962.4,2540.8 		"/>
	</g>
	<g>
		<polygon class="st5" points="902.3,2099.5 906.1,2098.8 969.9,2319.5 1032,2537.3 1032,2537.3 1033,2540.8 1029.3,2541.8 
			1029.3,2541.8 965.4,2320.8 903.3,2103 		"/>
	</g>
	<g>
		<polygon class="st5" points="1010,2099.5 1013.1,2099.2 1059.1,2319.8 1103.4,2538 1103.4,2538 1103.4,2540.8 1100.6,2541.1 
			1100.6,2541.1 1054.6,2320.5 1010.4,2102.3 		"/>
	</g>
	<g>
		<polygon class="st5" points="1118.1,2099.5 1120.2,2099.9 1148,2319.8 1174.4,2538.4 1174.4,2538.4 1174,2540.8 1171.6,2540.4 
			1171.6,2540.4 1143.9,2320.5 1117.4,2101.9 		"/>
	</g>
	<g>
		<polygon class="st5" points="1225.8,2099.5 1227.6,2100.6 1237.2,2320.2 1245.4,2539.1 1245.4,2539.1 1244.4,2540.8 
			1242.7,2539.7 1242.7,2539.7 1233.1,2320.2 1224.5,2101.2 		"/>
	</g>
	<g>
		<polygon class="st5" points="1333.6,2099.5 1334.6,2101.2 1326.4,2320.2 1316.4,2539.7 1316.4,2539.7 1314.7,2540.8 
			1313.7,2539.1 1313.7,2539.1 1321.9,2320.2 1331.9,2100.6 		"/>
	</g>
	<g>
		<polygon class="st5" points="1441.3,2099.5 1441.6,2101.9 1415.6,2320.5 1387.8,2540.4 1387.8,2540.4 1385.4,2540.8 1385,2538.4 
			1385,2538.4 1411.1,2319.8 1438.9,2099.9 		"/>
	</g>
	<g>
		<polygon class="st5" points="1549,2099.5 1548.7,2102.6 1504.4,2320.5 1458.8,2541.1 1458.8,2541.1 1455.7,2540.8 1456.1,2537.7 
			1456.1,2537.7 1500.3,2319.8 1545.9,2099.2 		"/>
	</g>
	<g>
		<polygon class="st5" points="1656.8,2099.5 1656.1,2103.3 1593.6,2320.8 1529.8,2541.8 1529.8,2541.8 1526.4,2540.8 
			1527.1,2537.3 1527.1,2537.3 1589.5,2319.5 1653.3,2098.8 		"/>
	</g>
	<g>
		<polygon class="st5" points="1601.2,2542.1 1596.7,2540.8 1678.4,2319.5 1760.4,2098.2 1764.5,2099.5 1682.8,2320.8 		"/>
	</g>
	<g>
		<path d="M804.5,1537.8h20.2v20.2h-20.2V1537.8z M804.5,1562.2h20.2v20.2h-20.2V1562.2z M804.5,1586.2h20.2v20.2h-20.2V1586.2z
			 M804.5,1610.6h20.2v20.2h-20.2V1610.6z M804.5,1634.9h20.2v20.2h-20.2V1634.9z M828.9,1659.3h20.2v20.2h-20.2V1659.3z
			 M853.3,1659.3h20.2v20.2h-20.2V1659.3z M877.3,1659.3h20.2v20.2h-20.2L877.3,1659.3z M901.6,1537.8h20.2v20.2h-20.2V1537.8z
			 M901.6,1562.2h20.2v20.2h-20.2V1562.2z M901.6,1586.2h20.2v20.2h-20.2V1586.2z M901.6,1610.6h20.2v20.2h-20.2V1610.6z
			 M901.6,1634.9h20.2v20.2h-20.2V1634.9z"/>
	</g>
	<g>
		<path d="M947.9,1562.2h20.2v20.2h-20.2V1562.2z M947.9,1659.3h20.2v20.2h-20.2V1659.3z M972,1537.8h20.2v20.2H972V1537.8z
			 M972,1586.2h20.2v20.2H972V1586.2z M972,1659.3h20.2v20.2H972V1659.3z M996.3,1537.8h20.2v20.2h-20.2V1537.8z M996.3,1586.2h20.2
			v20.2h-20.2V1586.2z M996.3,1659.3h20.2v20.2h-20.2V1659.3z M1020.7,1537.8h20.2v20.2h-20.2V1537.8z M1020.7,1586.2h20.2v20.2
			h-20.2V1586.2z M1020.7,1659.3h20.2v20.2h-20.2V1659.3z M1044.7,1537.8h20.2v20.2h-20.2V1537.8z M1044.7,1610.6h20.2v20.2h-20.2
			V1610.6z M1044.7,1634.9h20.2v20.2h-20.2V1634.9z"/>
	</g>
	<g>
		<path d="M1111.3,1582.1H1091v-20.2h20.2V1582.1z M1111.3,1606.5H1091v-20.2h20.2V1606.5z M1111.3,1630.8H1091v-20.2h20.2V1630.8z
			 M1111.3,1655.2H1091v-20.2h20.2V1655.2z M1135.6,1558.1h-20.2v-20.2h20.2V1558.1z M1135.6,1630.8h-20.2v-20.2h20.2V1630.8z
			 M1135.6,1679.2h-20.2V1659h20.2V1679.2z M1159.6,1558.1h-20.2v-20.2h20.2V1558.1z M1159.6,1630.8h-20.2v-20.2h20.2V1630.8z
			 M1159.6,1679.2h-20.2V1659h20.2V1679.2z M1184,1558.1h-20.2v-20.2h20.2V1558.1z M1184,1630.8h-20.2v-20.2h20.2V1630.8z
			 M1184,1679.2h-20.2V1659h20.2V1679.2z M1208.4,1582.1h-20.2v-20.2h20.2V1582.1z M1208.4,1606.5h-20.2v-20.2h20.2V1606.5z
			 M1208.4,1630.8h-20.2v-20.2h20.2V1630.8z"/>
	</g>
	<g>
		<path d="M1234.1,1537.8h20.2v20.2h-20.2V1537.8z M1258.4,1489.1h20.2v20.2h-20.2V1489.1z M1258.4,1513.5h20.2v20.2h-20.2V1513.5z
			 M1258.4,1537.5h20.2v20.2h-20.2V1537.5z M1258.4,1561.9h20.2v20.2h-20.2V1561.9z M1258.4,1586.2h20.2v20.2h-20.2V1586.2z
			 M1258.4,1610.6h20.2v20.2h-20.2V1610.6z M1258.4,1634.6h20.2v20.2h-20.2V1634.6z M1282.8,1537.5h20.2v20.2h-20.2V1537.5z
			 M1282.8,1659h20.2v20.2h-20.2V1659z M1307.2,1537.5h20.2v20.2h-20.2V1537.5z M1307.2,1659h20.2v20.2h-20.2V1659z M1331.2,1634.9
			h20.2v20.2h-20.2V1634.9z"/>
	</g>
	<g>
		<path d="M1377.5,1489.1h20.2v20.2h-20.2V1489.1z M1377.5,1513.5h20.2v20.2h-20.2V1513.5z M1377.5,1537.5h20.2v20.2h-20.2V1537.5z
			 M1377.5,1561.9h20.2v20.2h-20.2V1561.9z M1377.5,1586.2h20.2v20.2h-20.2V1586.2z M1377.5,1610.6h20.2v20.2h-20.2V1610.6z
			 M1377.5,1634.6h20.2v20.2h-20.2V1634.6z M1377.5,1659h20.2v20.2h-20.2V1659z M1401.5,1537.5h20.2v20.2h-20.2V1537.5z
			 M1425.9,1537.5h20.2v20.2h-20.2V1537.5z M1450.2,1537.5h20.2v20.2h-20.2V1537.5z M1474.6,1561.9h20.2v20.2h-20.2V1561.9z
			 M1474.6,1586.2h20.2v20.2h-20.2V1586.2z M1474.6,1610.6h20.2v20.2h-20.2V1610.6z M1474.6,1634.6h20.2v20.2h-20.2V1634.6z
			 M1474.6,1659h20.2v20.2h-20.2V1659z"/>
	</g>
	<g>
		<path d="M1520.6,1537.8h20.2v20.2h-20.2V1537.8z M1520.6,1659.3h20.2v20.2h-20.2V1659.3z M1544.9,1489.1h20.2v20.2h-20.2V1489.1z
			 M1544.9,1537.5h20.2v20.2h-20.2V1537.5z M1544.9,1561.9h20.2v20.2h-20.2V1561.9z M1544.9,1586.2h20.2v20.2h-20.2V1586.2z
			 M1544.9,1610.6h20.2v20.2h-20.2V1610.6z M1544.9,1634.6h20.2v20.2h-20.2V1634.6z M1544.9,1659h20.2v20.2h-20.2V1659z
			 M1569.3,1659h20.2v20.2h-20.2V1659z"/>
	</g>
	<g>
		<path d="M1615.3,1562.2h20.2v20.2h-20.2V1562.2z M1615.3,1659.3h20.2v20.2h-20.2V1659.3z M1639.6,1537.8h20.2v20.2h-20.2V1537.8z
			 M1639.6,1586.2h20.2v20.2h-20.2V1586.2z M1639.6,1659.3h20.2v20.2h-20.2V1659.3z M1664,1537.8h20.2v20.2H1664V1537.8z
			 M1664,1586.2h20.2v20.2H1664V1586.2z M1664,1659.3h20.2v20.2H1664V1659.3z M1688,1537.8h20.2v20.2H1688V1537.8z M1688,1586.2
			h20.2v20.2H1688V1586.2z M1688,1659.3h20.2v20.2H1688V1659.3z M1712.3,1537.8h20.2v20.2h-20.2V1537.8z M1712.3,1610.6h20.2v20.2
			h-20.2V1610.6z M1712.3,1634.9h20.2v20.2h-20.2V1634.9z"/>
	</g>
	<g>
		<path class="st5" d="M1537.4,908.6v27.8L1279,1004l-258-67.6v-27.8H1537.4 M1541.5,904.1h-524.9v35.3l262.1,68.6l262.8-68.6V904.1
			L1541.5,904.1z"/>
	</g>
	<g>
		<path class="st5" d="M1562.1,883.5v77.5l-283,67.6l-283-67.6v-77.5H1562.1 M1566.5,879.4h-575v85.4l287.5,68.6l287.5-68.6V879.4z"
			/>
	</g>
	<g>
		<path class="st6" d="M971.1,665.2l-15.5-7.3c17.7-37.6,71.4-80.8,164.7-79L1120,596C1062.6,594.9,994.3,615.9,971.1,665.2z"/>
	</g>
	<g>
		<path class="st6" d="M1598.6,665.2c-23.2-49.3-91.4-70.3-148.9-69.2l-0.3-17.2c93.4-1.7,147.1,41.5,164.7,79L1598.6,665.2z"/>
	</g>
	<path class="st15" d="M2521,2183.6V727.7l-100.5-58l-953.1-550.4L1260.5,0l-206.9,119.4L100.5,669.8L0,727.7v1455.5l100.5,58
		l965.1,557.2l195.2,112.5l195.2-112.5l965.1-557.2L2521,2183.6z M100.5,2129V789.2l172.2-99.5l987.7-570.3l0,0L2250.6,691
		l169.8,98.1V2129l-1160,669.8L100.5,2129z"/>
</g>
</svg>
