<?xml version="1.0" encoding="utf-8"?>
<!-- Generator: Adobe Illustrator 22.0.1, SVG Export Plug-In . SVG Version: 6.00 Build 0)  -->
<svg version="1.1" id="Layer_1" xmlns="http://www.w3.org/2000/svg" xmlns:xlink="http://www.w3.org/1999/xlink" x="0px" y="0px"
	 viewBox="0 0 735 852" style="enable-background:new 0 0 735 852;" xml:space="preserve">
<style type="text/css">
	.st0{fill:#EDE8E2;}
	.st1{opacity:0.25;fill:url(#SVGID_1_);enable-background:new    ;}
	.st2{fill:#E6B35A;}
	.st3{fill:#C0B389;}
	.st4{fill:#231F20;}
	.st5{fill:#6A2A21;}
	.st6{fill:#E19B43;}
	.st7{fill:#988D71;}
	.st8{fill:#BBBDBF;}
	.st9{fill:#D0D2D3;}
	.st10{fill:#FFF100;}
	.st11{fill:#D2C49F;}
	.st12{fill:#DACDAD;}
	.st13{fill:#D89E4A;stroke:#6A2A21;stroke-width:2;}
	.st14{fill:none;stroke:#6A2A21;stroke-width:5;stroke-miterlimit:10;}
	.st15{fill:#B5B4B1;}
</style>
<polygon class="st0" points="715.1,224.7 367.5,24 367.5,24 19.8,224.7 19.8,626.2 367.5,826.9 715.1,626.2 "/>
<title>usethis</title>
<linearGradient id="SVGID_1_" gradientUnits="userSpaceOnUse" x1="366.9532" y1="973.1201" x2="368.2531" y2="509.6" gradientTransform="matrix(1 0 0 -1 0 852)">
	<stop  offset="0" style="stop-color:#FFFFFF;stop-opacity:0.83"/>
	<stop  offset="0.56" style="stop-color:#FFFFFF;stop-opacity:0.37"/>
	<stop  offset="1" style="stop-color:#FFFFFF;stop-opacity:0"/>
</linearGradient>
<path class="st1" d="M368,341.7c128.5,0,239-57.2,288.1-139.3L367.5,35.8l0,0L79.6,202C128.6,284.3,239.3,341.7,368,341.7z"/>
<path d="M502.8,719.8l1.6-1l1,1.6l-1.6,1L502.8,719.8z M504,721.8l1.6-1l1,1.6l-1.6,1L504,721.8z M505.1,723.8l1.6-1l1,1.6l-1.6,1
	L505.1,723.8z M505.9,720.7l1.6-1l1,1.6l-1.6,1L505.9,720.7z M506.3,725.8l1.6-1l1,1.6l-1.6,1L506.3,725.8z M506.8,717.6l1.6-1
	l1,1.6l-1.6,1L506.8,717.6z M507.4,727.7l1.6-1l1,1.6l-1.6,1L507.4,727.7z M508.6,729.7l1.6-1l1,1.6l-1.6,1L508.6,729.7z
	 M508.7,716.4l1.6-1l1,1.6l-1.6,1L508.7,716.4z M511.9,717.3l1.6-1l1,1.6l-1.6,1L511.9,717.3z"/>
<path d="M515.8,714.9l1.7-1l1,1.7l-1.6,1L515.8,714.9z M516.6,711.8l1.6-1l1,1.6l-1.6,1L516.6,711.8z M518.6,710.6l1.6-1l1,1.6
	l-1.7,1L518.6,710.6z M519,715.7l1.6-1l1,1.6l-1.6,1L519,715.7z M520.4,722.8l1.7-1l1,1.7l-1.6,1L520.4,722.8z M520.6,709.5l1.6-1
	l1,1.6l-1.7,1L520.6,709.5z M520.9,714.6l1.6-1l1,1.6l-1.6,1L520.9,714.6z M522.4,721.6l1.6-1l1,1.6l-1.6,1L522.4,721.6z
	 M522.6,708.3l1.6-1l1,1.6l-1.6,1L522.6,708.3z M522.9,713.4l1.6-1l1,1.6l-1.6,1L522.9,713.4z M524.4,720.5l1.6-1l1,1.6l-1.6,1
	L524.4,720.5z M526,714.2l1.6-1l1,1.6l-1.6,1L526,714.2z M526.3,719.3l1.7-1l1,1.6l-1.6,1L526.3,719.3z M527.2,716.2l1.6-1l1,1.6
	l-1.6,1L527.2,716.2z"/>
<path d="M526.2,700.9l1.6-1l1,1.6l-1.6,1L526.2,700.9z M526.5,706l1.6-1l1,1.6l-1.7,1L526.5,706z M527.3,702.9l1.6-1l1,1.7l-1.6,1
	L527.3,702.9z M528.5,704.9l1.6-1l1,1.7l-1.7,1L528.5,704.9z M529.6,706.9l1.6-1l1,1.6l-1.6,1L529.6,706.9z M530.4,703.8l1.6-1
	l1,1.6l-1.7,1L530.4,703.8z M530.7,708.9l1.6-1l1,1.7l-1.6,1L530.7,708.9z M531.9,710.9l1.6-1l1,1.7l-1.6,1L531.9,710.9z
	 M532.4,702.7l1.6-1l1,1.6l-1.7,1L532.4,702.7z M533,712.8l1.6-1l1,1.7l-1.6,1L533,712.8z M536.2,713.7l1.7-1l1,1.6l-1.6,1
	L536.2,713.7z M538.2,712.5l1.6-1l1,1.6l-1.6,1L538.2,712.5z M539,709.4l1.6-1l1,1.6l-1.7,1L539,709.4z"/>
<path d="M538.3,699.1l1.6-1l1,1.6l-1.6,1L538.3,699.1z M539.5,701.1l1.6-1l1,1.6l-1.6,1L539.5,701.1z M540.6,703.1l1.7-1l1,1.6
	l-1.6,1L540.6,703.1z M541.7,705.1l1.6-1l1,1.6l-1.6,1L541.7,705.1z M542.9,707.1l1.6-1l1,1.6l-1.7,1L542.9,707.1z M546,708l1.6-1
	l1,1.6l-1.6,1L546,708z M546.2,694.7l1.6-1l1,1.6l-1.6,1L546.2,694.7z M547.3,696.7l1.6-1l1,1.6l-1.7,1L547.3,696.7z M548,706.8
	l1.6-1l1,1.7l-1.6,1L548,706.8z M548.5,698.6l1.6-1l1,1.6l-1.6,1L548.5,698.6z M549.6,700.6l1.6-1l1,1.6l-1.6,1L549.6,700.6z
	 M550,705.7l1.6-1l1,1.6l-1.6,1L550,705.7z M550.8,702.6l1.6-1l1,1.6l-1.6,1L550.8,702.6z"/>
<path d="M553.9,694.9l-1.7,1l-1-1.6l1.6-1L553.9,694.9z M554.7,691.8l-1.6,1l-1-1.6l1.6-1L554.7,691.8z M555,696.9l-1.6,1l-1-1.6
	l1.6-1L555,696.9z M556.2,698.9l-1.6,1l-1-1.6l1.7-1L556.2,698.9z M556.7,690.7l-1.6,1l-1-1.6l1.6-1L556.7,690.7z M557.3,700.8
	l-1.6,1l-1-1.6l1.6-1L557.3,700.8z M558.3,684.4l-1.7,1l-1-1.6l1.6-1L558.3,684.4z M558.6,689.5l-1.6,1l-1-1.6l1.6-1L558.6,689.5z
	 M559.5,686.4l-1.6,1l-1-1.6l1.6-1L559.5,686.4z M560.5,701.7l-1.6,1l-1-1.7l1.6-1L560.5,701.7z M560.6,688.4l-1.6,1l-1-1.6l1.6-1
	L560.6,688.4z M561.8,690.4l-1.6,1l-1-1.6l1.6-1L561.8,690.4z M562.4,700.6l-1.7,1l-1-1.6l1.6-1L562.4,700.6z M562.9,692.4l-1.6,1
	l-1-1.6l1.6-1L562.9,692.4z M564.1,694.4l-1.6,1l-1-1.6l1.6-1L564.1,694.4z M564.4,699.4l-1.7,1l-1-1.6l1.6-1L564.4,699.4z
	 M565.2,696.3l-1.6,1l-1-1.6l1.6-1L565.2,696.3z M566.4,698.3l-1.6,1l-1-1.6l1.6-1L566.4,698.3z"/>
<path d="M561.6,680.3l1.6-1l1,1.6l-1.6,1L561.6,680.3z M561.9,685.4l1.7-1l1,1.6l-1.6,1L561.9,685.4z M563.9,684.2l1.6-1l1,1.7
	l-1.6,1L563.9,684.2z M565.1,686.2l1.6-1l1,1.6l-1.6,1L565.1,686.2z M566.2,688.2l1.6-1l1,1.7l-1.7,1L566.2,688.2z M567.4,690.2
	l1.6-1l1,1.7l-1.6,1L567.4,690.2z M567.7,695.3l1.6-1l1,1.6l-1.6,1L567.7,695.3z M568.5,692.2l1.6-1l1,1.7l-1.6,1L568.5,692.2z
	 M569.7,694.2l1.6-1l1,1.7l-1.6,1L569.7,694.2z M571.7,693l1.6-1l1,1.6l-1.6,1L571.7,693z"/>
<path d="M571,682.8l1.7-1l1,1.6l-1.6,1L571,682.8z M571.8,679.6l1.7-1l1,1.7l-1.6,1L571.8,679.6z M572.2,684.7l1.6-1l1,1.6l-1.6,1
	L572.2,684.7z M573.3,686.7l1.6-1l1,1.6l-1.7,1L573.3,686.7z M573.8,678.5l1.6-1l1,1.6l-1.6,1L573.8,678.5z M574.4,688.7l1.7-1
	l1,1.6l-1.6,1L574.4,688.7z M575.8,677.4l1.6-1l1,1.6l-1.6,1L575.8,677.4z M577.6,689.5l1.6-1l1,1.7l-1.6,1L577.6,689.5z
	 M578.9,678.2l1.7-1l1,1.6l-1.6,1L578.9,678.2z M579.5,688.4l1.6-1l1,1.6l-1.6,1L579.5,688.4z M580,680.2l1.6-1l1,1.6l-1.6,1
	L580,680.2z M581.2,682.2l1.6-1l1,1.7l-1.7,1L581.2,682.2z M581.5,687.2l1.6-1l1,1.6l-1.6,1L581.5,687.2z M582.3,684.1l1.7-1l1,1.7
	l-1.6,1L582.3,684.1z"/>
<path d="M586.2,681.8l1.6-1l1,1.6l-1.6,1L586.2,681.8z M587.4,683.8l1.6-1l1,1.6l-1.6,1L587.4,683.8z M588.2,680.7l1.6-1l1,1.6
	l-1.6,1L588.2,680.7z M589.4,682.7l1.6-1l1,1.6l-1.6,1L589.4,682.7z"/>
<path d="M588.7,672.4l1.6-1l1,1.6l-1.6,1L588.7,672.4z M589.5,669.3l1.6-1l1,1.6l-1.7,1L589.5,669.3z M589.9,674.4l1.6-1l1,1.6
	l-1.6,1L589.9,674.4z M591,676.4l1.6-1l1,1.6l-1.6,1L591,676.4z M591.5,668.2l1.6-1l1,1.6l-1.7,1L591.5,668.2z M592.2,678.4l1.6-1
	l1,1.6l-1.6,1L592.2,678.4z M593.5,667l1.6-1l1,1.7l-1.7,1L593.5,667z M595.3,679.2l1.7-1l1,1.6l-1.6,1L595.3,679.2z M596.6,667.8
	l1.6-1l1,1.6l-1.6,1L596.6,667.8z M597.2,678l1.7-1l1,1.7l-1.6,1L597.2,678z M599.2,676.8l1.7-1l1,1.6l-1.6,1L599.2,676.8z
	 M600.1,673.7l1.6-1l1,1.6l-1.7,1L600.1,673.7z"/>
<path d="M600.5,665.5l1.6-1l1,1.6l-1.7,1L600.5,665.5z M601.4,662.4l1.6-1l1,1.6l-1.7,1L601.4,662.4z M601.7,667.5l1.7-1l1,1.7
	l-1.6,1L601.7,667.5z M602.8,669.5l1.6-1l1,1.7l-1.6,1L602.8,669.5z M603.3,661.3l1.6-1l1,1.6l-1.6,1L603.3,661.3z M604,671.5l1.6-1
	l1,1.7l-1.7,1L604,671.5z M605.3,660.2l1.6-1l1,1.6l-1.6,1L605.3,660.2z M607.1,672.3l1.6-1l1,1.6l-1.6,1L607.1,672.3z M608.4,661
	l1.6-1l1,1.7l-1.6,1L608.4,661z M609,671.2l1.7-1l1,1.6l-1.6,1L609,671.2z M609.5,663l1.7-1l1,1.7l-1.6,1L609.5,663z M610.7,665
	l1.6-1l1,1.7l-1.6,1L610.7,665z M611,670l1.6-1l1,1.6l-1.7,1L611,670z M611.8,666.9l1.6-1l1,1.6l-1.7,1L611.8,666.9z"/>
<path d="M611.2,656.7l1.6-1l1,1.6l-1.6,1L611.2,656.7z M612.4,658.7l1.6-1l1,1.6l-1.7,1L612.4,658.7z M613.2,655.6l1.6-1l1,1.6
	l-1.6,1L613.2,655.6z M613.5,660.7l1.6-1l1,1.6l-1.6,1L613.5,660.7z M614.6,662.7l1.7-1l1,1.6l-1.6,1L614.6,662.7z M615.1,654.5
	l1.6-1l1,1.6l-1.6,1L615.1,654.5z M615.8,664.6l1.6-1l1,1.6l-1.6,1L615.8,664.6z M616.9,666.6l1.6-1l1,1.6l-1.7,1L616.9,666.6z
	 M618.3,655.3l1.6-1l1,1.6l-1.7,1L618.3,655.3z M619.1,652.2l1.6-1l1,1.6l-1.6,1L619.1,652.2z M619.4,657.3l1.6-1l1,1.6l-1.6,1
	L619.4,657.3z M620.6,659.3l1.7-1l1,1.6l-1.6,1L620.6,659.3z M621.1,651.1l1.6-1l1,1.7l-1.6,1L621.1,651.1z M621.7,661.2l1.6-1
	l1,1.6l-1.6,1L621.7,661.2z M622.9,663.2l1.6-1l1,1.6l-1.7,1L622.9,663.2z M624.2,651.9l1.6-1l1,1.6l-1.6,1L624.2,651.9z
	 M625.3,653.9l1.6-1l1,1.6l-1.7,1L625.3,653.9z M626.5,655.9l1.7-1l1,1.6l-1.6,1L626.5,655.9z M627.6,657.9l1.6-1l1,1.6l-1.6,1
	L627.6,657.9z M628.8,659.9l1.6-1l1,1.6l-1.7,1L628.8,659.9z"/>
<path class="st2" d="M309.8,515.6l0.6-0.6h-0.2L309.8,515.6z"/>
<polygon class="st3" points="460.7,741.8 408.4,741.8 408.4,823.7 460.7,793 "/>
<path class="st4" d="M461.3,793.8l-53.6,30.7V741h53.6L461.3,793.8L461.3,793.8z M409.1,822.9l50.9-30.6v-49.8h-50.9V822.9
	L409.1,822.9z"/>
<polygon class="st3" points="337.4,741.8 284.8,741.8 284.8,793 337.4,823.7 "/>
<path class="st4" d="M338.1,824.4l-53.9-30.7V741h53.9V824.4z M285.5,792.3l51.3,30.7v-80.4h-51.3V792.3L285.5,792.3z"/>
<rect x="362.3" y="80.4" class="st5" width="19.4" height="70.4"/>
<path class="st4" d="M382.4,151.5h-20.7V79.8h20.7V151.5L382.4,151.5z M363,150.2h18V81.1h-18V150.2z"/>
<path class="st6" d="M394.6,76.1c0,12.5-10.1,22.6-22.6,22.6c-12.5,0-22.6-10.1-22.6-22.6c0-12.5,10.1-22.6,22.6-22.6
	C384.5,53.5,394.6,63.6,394.6,76.1C394.6,76.1,394.6,76.1,394.6,76.1z"/>
<path class="st4" d="M372,99.4c-12.8,0-23.3-10.4-23.2-23.3s10.4-23.3,23.3-23.2c12.8,0,23.2,10.4,23.2,23.3
	C395.3,88.9,384.8,99.4,372,99.4z M372,54.2c-12.1,0-21.9,9.9-21.9,22s9.9,21.9,22,21.9c12.1,0,21.9-9.8,21.9-21.9
	C394,64,384.1,54.2,372,54.2z"/>
<polygon class="st7" points="264.3,761.2 196.9,577.6 373.4,464.2 550,577.6 482.5,761.2 "/>
<path class="st8" d="M483,761.9H263.8L196,577.4l0.4-0.3l177-113.7l0.4,0.2l177,113.7l-0.2,0.5L483,761.9z M264.8,760.5h217.3
	l67.1-182.6L373.4,465L197.7,577.9L264.8,760.5L264.8,760.5z"/>
<path class="st5" d="M417.2,174.7c0,25-20.2,45.2-45.2,45.2c-25,0-45.2-20.2-45.2-45.2c0-24.9,20.2-45.2,45.2-45.2
	C397,129.5,417.2,149.7,417.2,174.7C417.2,174.7,417.2,174.7,417.2,174.7z"/>
<path class="st4" d="M372,220.6c-25.3,0-45.9-20.5-45.9-45.9c0-25.3,20.5-45.8,45.9-45.8c25.3,0,45.9,20.5,45.9,45.9l0,0
	C417.8,200,397.3,220.5,372,220.6z M372,130.2c-24.6,0-44.5,19.9-44.5,44.5s19.9,44.5,44.5,44.5c24.6,0,44.5-19.9,44.5-44.5
	c0,0,0,0,0,0C416.5,150.1,396.6,130.2,372,130.2z"/>
<rect x="249.2" y="162.5" class="st7" width="245.7" height="149.7"/>
<path class="st9" d="M495.5,312.9h-247V161.8h247V312.9z M249.9,311.6h244.3V163.2H249.9L249.9,311.6L249.9,311.6z"/>
<path class="st4" d="M315.4,242c-15.2,0-27.4-12.3-27.5-27.4s12.3-27.4,27.4-27.4c15.2,0,27.4,12.3,27.5,27.4c0,0,0,0,0,0
	C342.8,229.7,330.5,242,315.4,242z"/>
<path class="st4" d="M315.4,188.3c-14.5,0-26.3,11.8-26.3,26.3s11.8,26.3,26.3,26.3s26.3-11.8,26.3-26.3c0,0,0,0,0,0
	C341.7,200,329.9,188.3,315.4,188.3z"/>
<path class="st4" d="M430.4,242c-15.2,0-27.4-12.3-27.5-27.4s12.3-27.4,27.4-27.4c15.2,0,27.4,12.3,27.5,27.4c0,0,0,0,0,0
	C457.8,229.7,445.6,242,430.4,242z"/>
<path class="st4" d="M430.4,188.3c-14.5,0-26.3,11.8-26.3,26.3s11.8,26.3,26.3,26.3s26.3-11.8,26.3-26.3c0,0,0,0,0,0
	C456.7,200,444.9,188.3,430.4,188.3z"/>
<path class="st10" d="M430.4,234.4c-11,0-19.9-8.9-19.9-19.9s8.9-19.9,19.9-19.9c11,0,19.9,8.9,19.9,19.9c0,0,0,0,0,0
	C450.3,225.5,441.4,234.4,430.4,234.4z"/>
<path class="st11" d="M430.4,195.8c-10.3,0-18.7,8.4-18.7,18.7s8.4,18.7,18.7,18.7s18.7-8.4,18.7-18.7
	C449.1,204.2,440.7,195.8,430.4,195.8z"/>
<path class="st10" d="M315.4,234.4c-11,0-19.9-8.9-19.9-19.9c0-11,8.9-19.9,19.9-19.9c11,0,19.9,8.9,19.9,19.9c0,0,0,0,0,0
	C335.2,225.5,326.4,234.4,315.4,234.4L315.4,234.4z"/>
<path class="st11" d="M315.4,195.8c-10.3,0-18.7,8.4-18.7,18.7s8.4,18.7,18.7,18.7s18.7-8.4,18.7-18.7
	C334.1,204.2,325.7,195.8,315.4,195.8z"/>
<path class="st3" d="M320.9,312.9c-5.8,0-10.6,4.7-10.6,10.6v6.6c0,5.8,4.7,10.6,10.6,10.6h102.2c5.8,0,10.6-4.7,10.6-10.6v-6.6
	c0-5.8-4.7-10.6-10.6-10.6H320.9z"/>
<path class="st3" d="M320.9,342c-5.8,0-10.6,4.7-10.6,10.6v6.6c0,5.8,4.7,10.6,10.6,10.6h102.2c5.8,0,10.6-4.7,10.6-10.6v-6.6
	c0-5.8-4.7-10.6-10.6-10.6H320.9z"/>
<rect x="196.9" y="370.4" class="st7" width="352.1" height="210.4"/>
<path class="st8" d="M549.6,581.4H196.2V369.7h353.4V581.4z M197.5,580.1h350.8V371H197.5L197.5,580.1L197.5,580.1z"/>
<polygon class="st12" points="224.4,520.9 523.7,520.9 523.7,401.1 224.4,401.1 224.4,520.9 "/>
<path class="st13" d="M239.6,536.2c-8.4,0-15.3,6.9-15.3,15.3s6.9,15.3,15.3,15.3c8.4,0,15.3-6.9,15.3-15.3l0,0
	C254.9,543,248.1,536.2,239.6,536.2z"/>
<path class="st13" d="M283.9,536.2c-8.4,0-15.3,6.8-15.3,15.3c0,8.5,6.8,15.3,15.3,15.3c8.4,0,15.3-6.8,15.3-15.3c0,0,0,0,0,0
	C299.2,543,292.4,536.2,283.9,536.2z"/>
<path class="st13" d="M326.8,536.2c-8.4,0-15.3,6.8-15.3,15.3c0,8.5,6.8,15.3,15.3,15.3c8.4,0,15.3-6.8,15.3-15.3c0,0,0,0,0,0
	C342.1,543,335.3,536.2,326.8,536.2z"/>
<path class="st13" d="M372,536.2c-8.4,0-15.3,6.9-15.3,15.3s6.9,15.3,15.3,15.3c8.4,0,15.3-6.8,15.3-15.3l0,0
	C387.3,543,380.4,536.2,372,536.2z"/>
<path class="st3" d="M180.3,387.8c-6.5,0-11.7,5.3-11.7,11.7v69c0,6.5,5.3,11.7,11.7,11.7h4.1c6.5,0,11.7-5.3,11.7-11.7v-69.1
	c0-6.5-5.3-11.7-11.7-11.7L180.3,387.8z"/>
<rect x="101.4" y="475.5" class="st5" width="33.1" height="115.2"/>
<path class="st4" d="M135.1,591.5h-34.4V474.9h34.4V591.5z M102.1,590.1h31.7V476.2h-31.7V590.1z"/>
<rect x="71.7" y="383.3" class="st5" width="96.2" height="101.5"/>
<path class="st4" d="M168.6,485.5H71V382.7h97.6L168.6,485.5L168.6,485.5z M72.4,484.2h94.9V384H72.4L72.4,484.2L72.4,484.2z"/>
<path class="st7" d="M100.7,636.3c-9.5-9.5-9.5-25,0-34.5c9.5-9.5,25-9.5,34.5,0s9.5,25,0,34.5c0,0,0,0,0,0l13.3,13.3
	c16.9-16.9,16.9-44.3,0-61.2c-16.9-16.9-44.3-16.9-61.2,0s-16.9,44.3,0,61.2c0,0,0,0,0,0L100.7,636.3z"/>
<path class="st4" d="M148.5,650.5l-14.3-14.3l0.5-0.5c9.3-9.3,9.3-24.3,0-33.5c-9.3-9.3-24.3-9.3-33.5,0s-9.3,24.3,0,33.5
	c0,0,0,0,0,0l0.5,0.5l-14.3,14.3l-0.5-0.5c-17.1-17.1-17.1-44.9,0-62.1c17.1-17.1,44.9-17.1,62.1,0s17.1,44.9,0,62.1c0,0,0,0,0,0
	L148.5,650.5z M117.9,576.5c-23.5,0-42.6,19.1-42.6,42.6c0,11.1,4.3,21.7,12,29.6l12.4-12.4c-9.5-10-9-25.9,1-35.3s25.9-9,35.3,1
	c9.1,9.6,9.1,24.7,0,34.4l12.4,12.4c16.4-16.9,15.9-43.8-0.9-60.2C139.6,580.8,129,576.5,117.9,576.5z"/>
<path class="st3" d="M561.3,387.8c-6.5,0-11.7,5.3-11.7,11.7v69c0,6.5,5.3,11.7,11.7,11.7h4.1c6.5,0,11.7-5.3,11.7-11.7v-69.1
	c0-6.5-5.3-11.7-11.7-11.7L561.3,387.8z"/>
<rect x="611.3" y="475.5" class="st5" width="33.1" height="115.2"/>
<path class="st4" d="M645.1,591.5h-34.4V474.9h34.4V591.5z M612,590.1h31.7V476.2H612V590.1z"/>
<rect x="577.9" y="383.3" class="st5" width="96.2" height="101.5"/>
<path class="st4" d="M674.8,485.5h-97.6V382.7h97.6V485.5z M578.5,484.2h94.9V384h-94.9L578.5,484.2L578.5,484.2z"/>
<path class="st7" d="M645.1,636.3c9.5-9.5,9.5-25,0-34.5c-9.5-9.5-25-9.5-34.5,0s-9.5,25,0,34.5c0,0,0,0,0,0l-13.3,13.3
	c-16.9-16.9-16.9-44.3,0-61.2c16.9-16.9,44.3-16.9,61.2,0s16.9,44.3,0,61.2c0,0,0,0,0,0L645.1,636.3z"/>
<path class="st4" d="M658.5,650.5l-14.3-14.3l0.5-0.5c9.3-9.3,9.3-24.3,0-33.5c-9.3-9.3-24.3-9.3-33.5,0s-9.3,24.3,0,33.5
	c0,0,0,0,0,0l0.5,0.5l-14.3,14.3l-0.5-0.5c-17.2-17.1-17.2-44.9,0-62.1c17.1-17.2,44.9-17.2,62.1,0s17.2,44.9,0,62.1c0,0,0,0,0,0
	L658.5,650.5L658.5,650.5z M627.9,576.5c-23.5,0-42.6,19.1-42.6,42.6c0,11.1,4.3,21.7,12,29.6l12.4-12.4c-9.5-10-9-25.9,1-35.3
	c10-9.5,25.9-9,35.3,1c9.1,9.6,9.1,24.7,0,34.4l12.4,12.4c16.4-16.9,15.9-43.8-0.9-60.2C649.6,580.8,638.9,576.5,627.9,576.5
	L627.9,576.5z"/>
<polygon class="st4" points="279.4,741.9 255.6,677.4 231.7,612.9 233,612.5 256.8,677 280.6,741.5 279.4,741.9 "/>
<polygon class="st4" points="263.1,612.9 264.2,612.7 282.8,677 300.9,740.5 300.9,740.5 301.2,741.5 300.1,741.8 300.1,741.8 
	281.5,677.4 263.4,613.9 "/>
<polygon class="st4" points="294.5,612.9 295.4,612.8 308.8,677.1 321.7,740.7 321.7,740.7 321.7,741.5 320.9,741.6 320.9,741.6 
	307.5,677.3 294.6,613.7 "/>
<polygon class="st4" points="326,612.9 326.6,613 334.7,677.1 342.4,740.8 342.4,740.8 342.3,741.5 341.6,741.4 341.6,741.4 
	333.5,677.3 325.8,613.6 "/>
<polygon class="st4" points="357.4,612.9 357.9,613.2 360.7,677.2 363.1,741 363.1,741 362.8,741.5 362.3,741.2 362.3,741.2 
	359.5,677.2 357,613.4 "/>
<polygon class="st4" points="388.8,612.9 389.1,613.4 386.7,677.2 383.8,741.2 383.8,741.2 383.3,741.5 383,741 383,741 
	385.4,677.2 388.3,613.2 "/>
<polygon class="st4" points="420.2,612.9 420.3,613.6 412.7,677.3 404.6,741.4 404.6,741.4 403.9,741.5 403.8,740.8 403.8,740.8 
	411.4,677.1 419.5,613 "/>
<polygon class="st4" points="451.6,612.9 451.5,613.8 438.6,677.3 425.3,741.6 425.3,741.6 424.4,741.5 424.5,740.6 424.5,740.6 
	437.4,677.1 450.7,612.8 "/>
<polygon class="st4" points="483,612.9 482.8,614 464.6,677.4 446,741.8 446,741.8 445,741.5 445.2,740.5 445.2,740.5 463.4,677 
	482,612.7 "/>
<polygon class="st4" points="466.8,741.9 465.5,741.5 489.3,677 513.2,612.5 514.4,612.9 490.6,677.4 466.8,741.9 "/>
<path d="M234.6,449.2h5.9v5.9h-5.9V449.2z M234.6,456.3h5.9v5.9h-5.9V456.3z M234.6,463.3h5.9v5.9h-5.9V463.3z M234.6,470.4h5.9v5.9
	h-5.9V470.4z M234.6,477.5h5.9v5.9h-5.9V477.5z M241.7,484.6h5.9v5.9h-5.9V484.6z M248.8,484.6h5.9v5.9h-5.9V484.6z M255.8,484.6
	h5.9v5.9h-5.9L255.8,484.6z M262.9,449.2h5.9v5.9h-5.9V449.2z M262.9,456.3h5.9v5.9h-5.9V456.3z M262.9,463.3h5.9v5.9h-5.9V463.3z
	 M262.9,470.4h5.9v5.9h-5.9V470.4z M262.9,477.5h5.9v5.9h-5.9V477.5z"/>
<path d="M276.4,456.3h5.9v5.9h-5.9V456.3z M276.4,484.6h5.9v5.9h-5.9V484.6z M283.4,449.2h5.9v5.9h-5.9V449.2z M283.4,463.3h5.9v5.9
	h-5.9V463.3z M283.4,484.6h5.9v5.9h-5.9V484.6z M290.5,449.2h5.9v5.9h-5.9V449.2z M290.5,463.3h5.9v5.9h-5.9V463.3z M290.5,484.6
	h5.9v5.9h-5.9V484.6z M297.6,449.2h5.9v5.9h-5.9V449.2z M297.6,463.3h5.9v5.9h-5.9V463.3z M297.6,484.6h5.9v5.9h-5.9V484.6z
	 M304.6,449.2h5.9v5.9h-5.9V449.2z M304.6,470.4h5.9v5.9h-5.9V470.4z M304.6,477.5h5.9v5.9h-5.9V477.5z"/>
<path d="M324,462.1h-5.9v-5.9h5.9V462.1z M324,469.2h-5.9v-5.9h5.9V469.2z M324,476.3h-5.9v-5.9h5.9V476.3z M324,483.4h-5.9v-5.9
	h5.9V483.4z M331.1,455.1h-5.9v-5.9h5.9V455.1z M331.1,476.3h-5.9v-5.9h5.9V476.3z M331.1,490.4h-5.9v-5.9h5.9V490.4z M338.1,455.1
	h-5.9v-5.9h5.9V455.1z M338.1,476.3h-5.9v-5.9h5.9V476.3z M338.1,490.4h-5.9v-5.9h5.9V490.4z M345.2,455.1h-5.9v-5.9h5.9V455.1z
	 M345.2,476.3h-5.9v-5.9h5.9V476.3z M345.2,490.4h-5.9v-5.9h5.9V490.4z M352.3,462.1h-5.9v-5.9h5.9V462.1z M352.3,469.2h-5.9v-5.9
	h5.9V469.2z M352.3,476.3h-5.9v-5.9h5.9V476.3z"/>
<path d="M359.8,449.2h5.9v5.9h-5.9V449.2z M366.9,435h5.9v5.9h-5.9V435z M366.9,442.1h5.9v5.9h-5.9V442.1z M366.9,449.1h5.9v5.9
	h-5.9V449.1z M366.9,456.2h5.9v5.9h-5.9V456.2z M366.9,463.3h5.9v5.9h-5.9V463.3z M366.9,470.4h5.9v5.9h-5.9V470.4z M366.9,477.4
	h5.9v5.9h-5.9V477.4z M374,449.1h5.9v5.9H374L374,449.1z M374,484.5h5.9v5.9H374L374,484.5z M381.1,449.1h5.9v5.9h-5.9L381.1,449.1z
	 M381.1,484.5h5.9v5.9h-5.9L381.1,484.5z M388.1,477.5h5.9v5.9h-5.9L388.1,477.5z"/>
<path d="M401.6,435h5.9v5.9h-5.9V435z M401.6,442.1h5.9v5.9h-5.9V442.1z M401.6,449.1h5.9v5.9h-5.9V449.1z M401.6,456.2h5.9v5.9
	h-5.9V456.2z M401.6,463.3h5.9v5.9h-5.9V463.3z M401.6,470.4h5.9v5.9h-5.9V470.4z M401.6,477.4h5.9v5.9h-5.9V477.4z M401.6,484.5
	h5.9v5.9h-5.9V484.5z M408.6,449.1h5.9v5.9h-5.9V449.1z M415.7,449.1h5.9v5.9h-5.9V449.1z M422.8,449.1h5.9v5.9h-5.9V449.1z
	 M429.9,456.2h5.9v5.9h-5.9V456.2z M429.9,463.3h5.9v5.9h-5.9V463.3z M429.9,470.4h5.9v5.9h-5.9V470.4z M429.9,477.4h5.9v5.9h-5.9
	V477.4z M429.9,484.5h5.9v5.9h-5.9V484.5z"/>
<path d="M443.3,449.2h5.9v5.9h-5.9V449.2z M443.3,484.6h5.9v5.9h-5.9V484.6z M450.4,435h5.9v5.9h-5.9V435z M450.4,449.1h5.9v5.9
	h-5.9V449.1z M450.4,456.2h5.9v5.9h-5.9V456.2z M450.4,463.3h5.9v5.9h-5.9V463.3z M450.4,470.4h5.9v5.9h-5.9V470.4z M450.4,477.4
	h5.9v5.9h-5.9V477.4z M450.4,484.5h5.9v5.9h-5.9V484.5z M457.5,484.5h5.9v5.9h-5.9V484.5z"/>
<path d="M470.9,456.3h5.9v5.9h-5.9V456.3z M470.9,484.6h5.9v5.9h-5.9V484.6z M478,449.2h5.9v5.9H478V449.2z M478,463.3h5.9v5.9H478
	V463.3z M478,484.6h5.9v5.9H478V484.6z M485.1,449.2h5.9v5.9h-5.9L485.1,449.2z M485.1,463.3h5.9v5.9h-5.9L485.1,463.3z
	 M485.1,484.6h5.9v5.9h-5.9L485.1,484.6z M492.1,449.2h5.9v5.9h-5.9L492.1,449.2z M492.1,463.3h5.9v5.9h-5.9L492.1,463.3z
	 M492.1,484.6h5.9v5.9h-5.9L492.1,484.6z M499.2,449.2h5.9v5.9h-5.9V449.2z M499.2,470.4h5.9v5.9h-5.9V470.4z M499.2,477.5h5.9v5.9
	h-5.9V477.5z"/>
<path class="st4" d="M448.2,265.8v8.1l-75.3,19.7l-75.2-19.7v-8.1H448.2 M449.4,264.5h-153v10.3l76.4,20l76.6-20L449.4,264.5
	L449.4,264.5z"/>
<path class="st4" d="M455.4,258.5v22.6l-82.5,19.7l-82.5-19.7v-22.6H455.4 M456.7,257.3H289.1v24.9l83.8,20l83.8-20V257.3z"/>
<path class="st14" d="M280.9,193.8c4.7-10,19.6-22.1,45.7-21.6"/>
<path class="st14" d="M468.3,193.8c-4.7-10-19.6-22.1-45.7-21.6"/>
<path class="st15" d="M734.9,637.4V213.1l-29.3-16.9L427.8,35.8L367.5,1l-60.3,34.8L29.4,196.2L0.1,213.1v424.2l29.3,16.9
	l281.3,162.4l56.9,32.8l56.9-32.8l281.3-162.4L734.9,637.4z M29.4,621.5V231l50.2-29L367.5,35.8l0,0l288.6,166.6l49.5,28.6v390.5
	L367.5,816.7L29.4,621.5z"/>
</svg>
