<?xml version="1.0" encoding="utf-8"?>
<!-- Generator: Adobe Illustrator 26.5.0, SVG Export Plug-In . SVG Version: 6.00 Build 0)  -->
<svg version="1.1" id="Layer_1" xmlns="http://www.w3.org/2000/svg" xmlns:xlink="http://www.w3.org/1999/xlink" x="0px" y="0px"
	 viewBox="0 0 2521 2911" style="enable-background:new 0 0 2521 2911;" xml:space="preserve">
<style type="text/css">
	.st0{fill:#FFFFFF;}
	.st1{fill:#F6C9AC;}
	.st2{fill:#7C3B1A;}
</style>
<g>
	<g id="TWO">
		<g>
			<path class="st0" d="M1034.5,151.4"/>
		</g>
	</g>
	<g id="ONE_00000096753812397756335920000014003167500001302171_">
		<g>
			<polygon class="st1" points="2474.7,2158.9 1259.8,2861.3 44.9,2158.9 44.9,754.2 1259.8,51.9 2474.7,754.2 			"/>
		</g>
		<g id="vase_00000101801671815751677530000011039472856487550361_">
			<g>
				<path d="M1474.7,1702.9c0,0,106,33.4,103.5,138.2c-2.5,104.7-37.7,138.2-37.7,138.2h356.1c0,0-50-23.1-40.4-128.5
					c5.7-62.6,93.6-147.8,93.6-147.8L1474.7,1702.9L1474.7,1702.9z"/>
			</g>
			<g>
				<path d="M1532.9,2013.7l380.4,2.5c0,0,177.8,71.7,192,331.3c1.6,29.5,2.4,30.8,2.4,57.4c-227.4,46.5-491.8,245-673.7,371.8
					c-55.9-117-88.5-245-71.5-438.1C1386.8,2061.9,1532.9,2013.7,1532.9,2013.7z"/>
			</g>
			<g>
				<path d="M1890.3,1874.5l17.2,47.5c0,0,201.8-142.4,186.1,57.3c-2.9,37.2-30.2,104.4-30.2,104.4l38.7,68.1
					c0,0,46.1-79.6,46.5-186C2149.3,1804.5,2044.3,1759.1,1890.3,1874.5z"/>
			</g>
			<g>
				<path d="M1951.7,1676.6h-479c-16,0-29.2-13.1-29.2-29.2v-1.8c0-16.1,13.1-29.2,29.2-29.2h479c16,0,29.2,13.1,29.2,29.2v1.8
					C1980.8,1663.5,1967.7,1676.6,1951.7,1676.6z"/>
			</g>
			<g>
				<polygon class="st1" points="1418,2431.4 1450.6,2431.4 1450.6,2329.3 1512.5,2329.3 1512.5,2361.4 1481.5,2361.4 
					1481.5,2399.4 1545.8,2399.4 1545.8,2295.6 1418,2295.6 				"/>
			</g>
			<g>
				<polygon class="st1" points="1584.3,2431.4 1616.9,2431.4 1616.9,2329.3 1678.8,2329.3 1678.8,2361.4 1647.8,2361.4 
					1647.8,2399.4 1712.1,2399.4 1712.1,2295.6 1584.3,2295.6 				"/>
			</g>
			<g>
				<polygon class="st1" points="1745.8,2431.4 1778.4,2431.4 1778.4,2329.3 1840.3,2329.3 1840.3,2361.4 1809.3,2361.4 
					1809.3,2399.4 1873.6,2399.4 1873.6,2295.6 1745.8,2295.6 				"/>
			</g>
			<g>
				<polygon class="st1" points="1907.5,2431.4 1940.1,2431.4 1940.1,2329.3 2002,2329.3 2002,2361.4 1971,2361.4 1971,2399.4 
					2035.3,2399.4 2035.3,2295.6 1907.5,2295.6 				"/>
			</g>
			<g>
				<rect x="1359.1" y="2220.3" class="st1" width="748.7" height="46.5"/>
			</g>
			<g>
				<polygon class="st1" points="2001.6,2471.3 1336,2478.2 1342.4,2431.4 2072.9,2431.4 				"/>
			</g>
			<g>
				<path d="M1474.7,1702.9c0,0,106,33.4,103.5,138.2c-2.5,104.7-37.7,138.2-37.7,138.2h356.1c0,0-50-23.1-40.4-128.5
					c5.7-62.6,93.6-147.8,93.6-147.8L1474.7,1702.9L1474.7,1702.9z"/>
			</g>
			<g>
				<path d="M1538.7,1863.4l-18.2,58.2c0,0-210.4-126.9-171.5,69.6c7.2,36.6,42.1,100.2,42.1,100.2l-30.5,72.1
					c0,0-55-73.6-67.9-179.3C1273.4,1824.2,1372.4,1766.8,1538.7,1863.4z"/>
			</g>
		</g>
		<g>
			<path class="st0" d="M1636.5,1499.4c97.8,5.7,62.6,154.3,93.9,68.7c31.3-85.7,171.4-166.1,171.4-166.1s290.5,5.7,231.6-221.2
				c0,0,119.6-81.1,18.1-298.1c-101.4-217-241.8-177-241.8-177s161.6-14,158.1-141.2c-3.5-127.2-376.2-270.8-585.9-379.3
				s-247.8-97.9-247.8-97.9L44.9,755.8c0,0-82.2,372.9,123.1,550.4c115,99.4,139.7,16.2,259.4,136.1c58.7,58.8,353.6,220.3,462,31.9
				s193.9-128.9,193.9-128.9s121.8,137.1,294.8,51.4s166.3,34.3,166.3,34.3S1538.8,1493.7,1636.5,1499.4z"/>
		</g>
		<g>
			<g>
				<path d="M1049.8,639.1c-0.7,5.6-5.6,11.9-11.1,13.2h-2.1c-0.7,0.7-1.4,0.7-2.8,0.7c-16-1.4-28.6,4.9-41.1,13.9
					c-9.1,5.6-18.1,12.5-26.5,19.5c-6.3,4.9-9.8,7.7-13.9,10.5c-12.5,9.8-24.4,20.9-35.5,32.1l-16,14.6c-5.6,5.6-11.1,10.5-16,16
					c-7,7-13.2,13.2-23.7,21.6c-9.7,8.4-17.4,17.4-24.4,25.8c-6.3,7-12.5,13.9-20.2,20.9c-4.9,4.2-9.7,10.5-16,18.8
					c-10.4,15.3-20.2,27.2-29.9,37.7c-9.1,8.4-14.6,19.5-21.6,30l-11.1,16.7c-7,9.8-13.2,18.8-17.4,29.3c-0.7,2.8-2.8,4.9-5.6,7.7
					l-3.5,4.2c-0.7,0.7-1.4,2.1-2.1,3.5c-2.8,3.5-4.9,6.3-5.6,9.8c-2.1,7.7-6.3,13.9-10.4,19.5c-0.7,1.4-1.4,2.1-2.8,3.5
					c-6.3,9.8-11.1,20.2-16,32.8c-4.9,11.2-11.1,21.6-18.1,32.1c-5.6,7-7.7,12.5-7.7,18.1c-4.9,4.9-8.4,12.5-12.5,19.5
					c-2.1,4.2-2.8,6.3-4.9,9.1l-16,29.3c0,0.7-0.7,0.7-0.7,1.4v1.4c-1.4,0.7-2.1,0.7-2.8,7c0,4.9-1.4,8.4-4.2,10.5
					c-3.5,2.8-5.6,7-7.7,11.2l-2.1,3.5c-1.4,2.8-2.1,6.3-3.5,9.8l-2.1,9.8c-1.4,2.1-2.8,4.9-4.2,7.7c-2.1,3.5-4.2,6.3-4.9,9.8
					c-4.9,14.6-19.5,18.8-31.3,9.1c-7.7-6.3-9.1-10.5-4.9-16l3.5-16c3.5-15.3,7-30.7,7.7-46.7c0.7-0.7,0.7-1.4,0.7-2.1l1.4-2.8
					c5.6-10.5,7.7-18.8,7.7-27.2c0-4.2,1.4-8.4,2.8-12.5c2.1-4.9,3.5-9.8,2.8-15.3c3.5-3.5,4.9-7,4.9-16c0-5.6,0-8.4,1.4-11.8
					c3.5-9.8,5.6-19.5,7.7-29.3c1.4-5.6,2.1-7,3.5-9.1c2.8-3.5,3.5-8.4,4.2-13.2c0.7-7.7,2.1-11.2,5.6-15.3c-1.4-3.5-1.4-7.7,0-13.9
					c0.7-2.8,1.4-4.9,1.4-7.7c0-1.4,0-2.8,0.7-4.2c0-5.6,0.7-11.2,2.8-16.7c2.8-7.7,2.8-16.7,2.8-26.5c0-6.3-0.7-12.5,2.8-18.1
					c0.7-2.1,0.7-4.2,0-5.6c-1.4-3.5-2.8-7,0-12.5c2.1-2.8,2.1-6.3,0.7-12.5c-0.7-3.5-0.7-5.6-0.7-8.4c0-2.8,0.7-5.6,2.1-9.8
					c2.1-4.2,2.1-7,2.1-9.1c-0.7-4.9-0.7-7.7,0.7-10.5c1.4-1.4,1.4-3.5,0.7-7c0-0.7-0.7-1.4-0.7-2.1c-0.7-2.8-1.4-4.9-2.1-9.1
					c-0.7-2.8-1.4-5.6-2.8-8.4c-0.7-2.1,0-4.2,1.4-6.3v-2.1c3.5-5.6,1.4-11.8,0-18.1c-2.1-11.2-5.6-20.2-8.4-27.2
					c0-1.4-0.7-2.1-1.4-2.8c-2.1-4.9-2.8-7-2.1-10.5c0-7-2.8-12.5-7.7-16c-3.5-2.8-4.9-4.9-5.6-9.1c-2.8-9.8-9.8-13.9-21.6-13.9
					c-14.6,0-29.3,2.8-43.9,8.4l-4.9,2.1c-2.1,1.4-3.5,2.1-5.6,2.8c-8.4,0.7-16,5.6-23,11.8c-2.1,2.8-5.6,5.6-8.4,7.7
					c-1.4,1.4-2.1,1.4-2.1,2.1l-2.8,2.1c-1.4,0.7-0.7,0.7-0.7,0.7l-2.1,2.1c-14.6,14.6-23,27.9-27.9,47.4
					c-2.8,11.8-2.8,25.8-1.4,41.8c-2.8-0.7,3.5,21.6,7,23.7c4.9,11.2,11.8,19.5,27.2,35.6c4.9,2.1,10.4,4.9,11.8,4.9
					c7,1.4,13.9,6.3,20.2,10.5c3.5,2.1,6.3,5.6,6.3,9.8l0.7,1.4c0.7,2.8,2.8,10.5-9.7,13.2c-9.1,0.7-19.5-2.8-27.9-6.3
					c-7.7-3.5-12.5-7.7-18.1-11.2c-3.5-2.8-7-5.6-11.8-8.4c-4.2-2.1-13.9-15.3-14.6-18.1c-2.1-3.5-4.2-6.3-7.7-9.8
					c-4.9-4.9-9.7-10.5-10.4-20.2c0-0.7-0.7-1.4-2.1-2.8c-0.7-1.4-2.1-2.8-2.8-3.5c-1.4-0.7-0.7-4.9,0-11.8V842
					c-2.1-2.1-2.1-6.3-2.1-12.5c0-3.5,0-7.7-0.7-11.2c-1.4-9.1,0.7-17.4,2.8-25.1c1.4-3.5,2.1-7,2.8-10.5
					c5.6-13.9,20.2-34.2,33.4-48.1c1.4-2.8,3.5-4.9,7-7c16-16,29.3-23.7,45.3-31.4c15.3-6.3,29.3-10.5,41.8-12.5
					c4.2-0.7,7-1.4,11.1-2.8c4.9-1.4,9.7-0.7,16,0.7c2.8,1.4,5.6,2.1,8.4,2.1c2.1,0.7,4.9,0.7,7,1.4c3.5,0,7,0.7,7.7,2.1l8.4,7
					c11.1,9.1,23,18.1,25.8,34.9c0.7,4.2,2.8,7.7,5.6,11.8c9.1,13.2,12.5,27.9,12.5,47.4c0,6.3,0,11.2,2.8,16
					c2.8,4.2,3.5,7.7,2.8,16v3.5c-1.4,7-1.4,13.9-1.4,20.2c-0.7,3.5-0.7,7-0.7,10.5c0,4.2,0,9.1-0.7,13.9c0,7-0.7,13.9,0,20.9
					c0.7,4.9-0.7,10.5-2.1,14.6c-1.4,4.9-2.1,9.8-2.1,14.6c0.7,9.1,1.4,20.9-4.9,30.7v5.6c1.4,13.9-1.4,28.6-7.7,46
					c-0.7,2.1-1.4,4.2-1.4,7.7c0,7.7-0.7,11.2-4.2,13.9c0,0,0,1.4-0.7,1.4c3.5,4.9,3.5,9.1,0,16.7c-0.7,0.7-1.4,2.1-1.4,2.8
					c-1.4,3.5-2.8,7.7-3.5,11.2c-2.8,9.1-5.6,17.4-9.1,25.8c-1.4,2.8-0.7,5.6-0.7,9.1v7c2.8-11.2,5.6-16,11.8-20.9
					c1.4-0.7,2.8-2.8,2.8-4.2c0.7-12.5,7.7-22.3,14.6-32.1c3.5-4.9,5.6-8.4,7.7-11.9c0.7-2.8,2.8-5.6,4.2-8.4
					c4.2-6.3,7.7-12.5,8.4-20.2c0.7-2.8,2.1-4.2,5.6-7.7c1.4-1.4,2.8-2.1,3.5-3.5l8.4-16.7c7-12.5,13.2-25.1,23-36.3
					c2.1-11.2,9.1-18.8,16-25.8c4.9-5.6,7-8.4,9.8-12.5c4.2-6.3,9.1-12.5,13.9-18.8l9.7-12.5c9.8-13.9,20.9-25.8,33.4-39
					c10.4-9.8,18.8-21.6,27.2-33.5c2.1-3.5,4.9-6.3,7-9.1l3.5-3.5c4.9-4.2,9.8-9.1,14.6-13.9c8.4-9.1,16.7-17.4,28.6-24.4l3.5-3.5
					c0.7-0.7,0.7-0.7,0.7-1.4c16.7-20.2,11.1-15.3,30.6-33.5c6.3-3.5,11.8-9.1,17.4-14.6c4.9-4.9,9.7-9.8,16-13.2l14.6-10.5
					c6.3-4.9,11.8-9.8,18.8-13.9c19.5-11.9,39-20.2,59.9-26.5c4.2-1.4,9.7-1.4,16,0.7C1045.7,627.3,1049.8,632.8,1049.8,639.1z"/>
			</g>
			<g>
				<path d="M941.9,1054c-0.7,0.7-1.4,2.1-2.1,4.2c-1.4,3.5-2.1,5.6-4.2,7c-4.9,7-9.1,11.2-13.2,15.3c-3.5,3.5-5.6,5.6-8.4,9.8
					c-9.7,10.5-18.1,16.7-28.6,21.6c-4.9,2.1-9.7,3.5-12.5,7.7c-21.6,13.2-34.8,13.9-54.3,16h-4.9c-21.6,1.4-44.6-8.4-56.4-24.4
					c-5.6,4.2-11.1,7-16,9.1c-6.3,2.8-7.7,3.5-9.7,4.9c-4.9,3.5-8.4,6.3-14.6,6.3c-15.3,0-21.6-11.2-10.4-22.3
					c10.4-2.8,22.3-8.4,29.3-16c2.8,0,6.3-2.1,9.7-4.9c-0.7-5.6-1.4-10.5,0-15.3l2.1-13.9c0.7-9.1,1.4-18.8,5.6-27.9
					c1.4-2.8,2.8-5.6,3.5-8.4l3.5-9.8c4.9-10.5,11.1-18.1,18.8-25.1c10.4-9.8,21.6-13.9,33.4-13.2c6.3,0,11.1,2.1,16,7
					c7.7,7,9.7,13.9,9.1,25.8c-0.7,4.2-2.8,9.1-4.2,13.2c-0.7,2.8-1.4,4.2-2.1,6.3c-6.3,20.2-17.4,37.7-29.9,47.4
					c-1.4,0.7-3.5,2.8-7,7c-4.9,5.6-7,8.4-10.4,9.8l-2.8,2.1c-2.1,2.1-2.1,2.8-1.4,4.2c2.8,4.9,4.2,6.3,9.1,7.7l5.6,2.1
					c19.5,9.1,26.5,7,41.1,0c2.1-0.7,5.6-1.4,8.4-2.8c4.9-2.1,7.7-2.8,11.1-4.2c2.1-0.7,3.5-0.7,5.6-2.1c6.3-4.9,11.8-9.1,17.4-12.5
					c9.1-5.6,16.7-10.5,25.1-20.9l10.4-13.2c2.1-2.8,7-7.7,10.4-10.5c4.9-3.5,11.1-2.8,16,1.4C943.3,1044.9,943.3,1049.1,941.9,1054
					z M775.5,1064.4c4.9-0.7,7.7-6.3,9.1-8.4c7-4.2,9.1-10.5,12.5-21.6c1.4-4.2,3.5-7.7,5.6-10.5c2.8-4.9,4.9-8.4,4.9-13.2v-3.5
					c0-4.9,0-8.4-3.5-7.7c-1.4-0.7-2.1,0.7-4.2,2.8c-1.4,0.7-1.4,1.4-2.8,2.1c-3.5,2.8-4.9,7-7.7,11.8c-0.7,1.4-0.7,2.1-1.4,2.8
					c-3.5,4.9-4.9,14.6-9.1,23.7C776.2,1049.1,775.5,1060.9,775.5,1064.4z"/>
			</g>
			<g>
				<path d="M1097.9,1054l-2.1,4.2c-2.1,4.9-3.5,7.7-7,10.5c-2.8,2.8-7,7.7-11.1,12.5c-5.6,5.6-8.4,9.1-11.8,11.8
					c-9.7,9.1-16.7,13.2-25.8,18.1l-11.1,6.3c-11.8,7.7-19.5,9.8-33.4,13.9c-28.6,7.7-44.6-0.7-53.6-5.6c-2.8-1.4-4.2-2.8-5.6-2.8
					c-2.8-0.7-5.6-2.8-7-4.9c-0.7-0.7-0.7-1.4-0.7-1.4c-9.1-2.8-14.6-19.5-13.9-34.9c0-22.3,2.1-37,7.7-53c0.7-2.8,2.1-5.6,3.5-8.4
					c1.4-2.8,2.1-4.9,2.8-7c0-4.9,0-7.7,1.4-10.5c4.9-6.3,6.3-11.8,8.4-18.8c0.7-3.5,1.4-7.7,3.5-12.5c0.7-2.8,2.1-1.4-3.5-0.7
					c-2.1,0-3.5,0-4.9-0.7c-1.4,0-2.1-0.7-9.7,0.7h-7c-4.2,0-8.4,0.7-12.5,0c-4.9-1.4-8.4-4.9-8.4-9.8c-0.7-3.5,0.7-4.9,4.9-7
					c0.7,0,1.4,0,1.4-0.7c6.3-2.8,15.3-4.2,22.3-3.5c7.7,0.7,9.1,0.7,11.8-0.7c2.1,0,4.9-1.4,11.8-1.4c1.4,0,3.5-2.8,5.6-7.7
					c2.1-1.4,4.2-7.7,3.5-9.1c-0.7-4.9,0-7.7,3.5-12.5c2.8-2.8,2.8-4.2,2.1-7l10.4-25.1c4.2-8.4,13.2-10.5,21.6-3.5
					c0.7,0,0.7,0.7,2.1,2.1c2.8,3.5,4.2,4.9,4.2,8.4v5.6c0,4.9,0,7-0.7,9.8c-2.8,6.3-4.2,10.5-4.9,14.6c-0.7,4.9-2.1,9.1-6.3,17.4
					c0,0.7-0.7,1.4-1.4,2.1l-1.4,2.8c4.2,1.4,7,0.7,11.1-0.7c19.5-5.6,34.1-4.2,52.9-3.5c2.8,0,7.7,1.4,8.4,3.5h0.7
					c1.4,2.1,2.8,3.5,2.8,4.9c0,2.8-2.1,7-4.9,8.4c-2.8,2.1-7,2.8-10.4,2.8s-7,0.7-9.7,0.7c-5.6,0.7-10.4,1.4-17.4,1.4
					c-1.4,0-2.1,0-3.5,0.7h-2.8c-5.6,0-9.7,0-13.9,0.7c-4.2,0-9.1,0.7-14.6,0.7c-5.6,0.7-6.3,0.7-7,7c-2.1,6.3-4.9,10.5-7,13.2
					c-3.5,5.6-4.9,8.4-4.9,16c0,1.4-1.4,4.2-3.5,8.4c-2.1,2.8-2.1,2.8-2.1,3.5c-18.1,37.7-18.8,52.3-16,78.8c0,2.8,0.7,4.2,4.9,7.7
					c11.1,12.5,23,14.6,39.7,8.4c13.9-4.9,25.1-7.7,34.8-18.1c4.9-4.9,8.4-6.3,11.8-7.7c2.1-0.7,4.2-1.4,7-2.8
					c6.3-4.2,11.1-8.4,15.3-13.9c2.1-2.1,4.9-5.6,7.7-9.1c5.6-7.7,9.1-11.2,13.2-13.9c3.5-2.8,10.4-2.8,13.9,0.7l1.4,1.4
					C1097.9,1049.1,1099.3,1051.2,1097.9,1054z"/>
			</g>
			<g>
				<path d="M1100.7,1132.1c-4.2-0.7-10.4-2.1-13.2-7c-5.6-6.3-10.4-13.2-14.6-20.9c-1.4-2.1-2.1-4.2-2.1-7.7V1077
					c-1.4-22.3,4.9-43.9,11.8-65.5c0.7-3.5,2.8-7,6.3-10.5c4.9-7,18.1-5.6,22.3,0.7c1.4,2.1,2.1,5.6,2.1,7.7v0.7l-10.4,45.3
					c-2.8,10.5-3.5,22.3-2.1,38.3c0.7,9.1,4.9,13.9,11.8,16.7l4.9,2.1c1.4,0.7,2.8,1.4,3.5,1.4c2.1,1.4,4.2,1.4,7,0.7
					c9.7-1.4,17.4-6.3,25.8-12.5c9.1-7,17.4-13.2,24.4-22.3c2.8-4.9,6.3-8.4,9.1-11.2c3.5-4.9,7.7-9.1,12.5-18.1
					c2.8-7,7-8.4,13.9-11.9c4.2-2.1,13.2,2.1,13.9,7.7c0,4.2,0,4.9-2.1,8.4l-2.8,7.7c-0.7,0-7,9.1-7,11.8c-1.4,1.4-4.2,4.2-6.3,7
					c-4.9,6.3-11.8,14.6-20.9,23.7c-11.8,11.2-19.5,17.4-28.6,22.3c-20.2,9.8-37.6,11.8-54.3,6.3
					C1104.2,1132.7,1102.8,1132.1,1100.7,1132.1z M1111.1,901.3c-0.7-6.3,0.7-9.8,6.3-13.9l7-4.2l4.2-2.8c7-3.5,18.1,2.1,18.8,9.8
					c1.4,12.5-9.7,23.7-22.3,23C1118.8,912.4,1111.8,907.6,1111.1,901.3z"/>
			</g>
			<g>
				<path d="M1419.6,1056.1c-1.4,1.4-2.8,3.5-4.2,5.6c-2.1,4.9-4.2,7-7.7,9.8c-11.8,9.8-20.2,16.7-26.5,20.2
					c-8.4,6.3-18.1,9.1-28.5,12.5c-18.8,3.5-41.8,0-52.9-5.6c-5.6-3.5-13.9-3.5-19.5-10.5c0,0.7-1.4,2.1-2.1,2.8
					c-3.5,5.6-0.7,1.4-4.9,7l-4.2,4.9c-2.8,4.2-4.9,7-11.1,10.5c-4.9,3.5-9.7,7-13.9,10.5l-9.7,7.7c-9.1,7.7-19.5,9.1-31.3,4.9
					c-9.1-3.5-12.5-9.1-9.1-17.4c2.8-7,2.1-11.8,2.1-18.1c-0.7-5.6-0.7-11.9,1.4-18.8c2.8-4.2,2.8-9.1,2.8-14.6
					c0.7-13.2,1.4-25.1,4.2-37.7v-1.4c-0.7-6.3,1.4-12.5,2.8-17.4c1.4-4.2,2.8-7.7,2.8-11.8c0-1.4,2.8-11.2,14.6-11.2
					c2.8,0,5.6,2.1,9.1,4.9l2.1,2.1c2.8,1.4,3.5,4.9,2.8,11.2v3.5c0,11.8-2.1,18.8-4.2,25.8c-2.1,6.3-4.2,12.5-4.9,22.3l-2.1,11.9
					c-0.7,4.2-2.1,8.4-2.1,12.5v7.7c0.7,4.2,0.7,6.3,0.7,11.2v4.2v0.7c0.7,0,1.4-0.7,1.4-0.7c7.7-9.1,13.9-15.3,20.9-22.3
					c3.5-3.5,7-7,11.1-11.9c2.1-1.4,3.5-4.2,4.9-6.3c0.7-2.1,1.4-3.5,2.8-4.9c0.7-1.4,0-1.4,0-3.5c-0.7-2.1-1.4-4.9-1.4-6.3
					c0-2.8-0.7-5.6-0.7-9.1c-1.4-7.7-2.8-16.7,0-29.3c0.7-3.5,1.4-6.3,1.4-9.1c0.7-5.6,2.1-7.7,9.1-18.1c8.4-13.2,23.7-20.2,39-18.1
					c7,2.1,11.8,5.6,12.5,11.2c0,1.4,0,2.1,0.7,2.8c0.7,5.6,2.1,10.5,2.8,15.3c1.4,4.9,0.7,7-0.7,10.5
					c-2.8,15.3-20.9,41.8-33.4,60.7c-2.1,3.5,5.6,9.8,13.2,10.5c1.4,0,2.8,0.7,4.9,1.4c7,2.1,17.4,5.6,30.6,1.4
					c11.8,0.7,24.4-9.1,35.5-16.7c2.1-2.1,5.6-5.6,8.4-9.1c4.9-6.3,7-9.1,10.4-11.2c7-5.6,13.9-5.6,19.5,0
					C1420.3,1048.4,1421.7,1054,1419.6,1056.1z M1302.6,1005.9c0.7-2.1,0.7-2.8,0.7-3.5c0-2.1,0.7-3.5,1.4-5.6
					c0.7-0.7-1.4-2.8-3.5-2.1c-1.4,0-4.9,1.4-4.9,2.1c-0.7,2.1-2.1,3.5-2.8,4.2c-2.8,2.1-3.5,3.5-3.5,7.7
					c-1.4,3.5-2.1,20.2-0.7,26.5C1290.8,1036.5,1302.6,1009.3,1302.6,1005.9z"/>
			</g>
			<g>
				<path d="M1586,1054c-0.7,0.7-1.4,2.1-2.1,4.2c-1.4,3.5-2.1,5.6-4.2,7c-4.9,7-9.1,11.2-13.2,15.3c-3.5,3.5-5.6,5.6-8.4,9.8
					c-9.8,10.5-18.1,16.7-28.6,21.6c-4.9,2.1-9.8,3.5-12.5,7.7c-21.6,13.2-34.8,13.9-54.3,16h-4.9c-24.4,1.4-51.5-11.8-61.3-31.4
					c-7-13.2-9.1-21.6-7-31.4l2.1-13.9c0.7-9.1,1.4-18.8,5.6-27.9c1.4-2.8,2.8-5.6,3.5-8.4l3.5-9.8c4.9-10.5,11.1-18.1,18.8-25.1
					c10.4-9.8,21.6-13.9,33.4-13.2c6.3,0,11.1,2.1,16,7c10.4,9.8,12.5,16.7,7,26.5c-2.1,4.9-4.2,10.5-4.2,14.6
					c-2.1,18.8-13.9,29.3-27.2,39c-3.5,2.8-7.7,4.2-11.8,6.3c-2.1,0.7-3.5,1.4-5.6,2.8l-2.8,0.7c-10.4,4.2-4.9,4.9-4.9,16.7l0.7,4.2
					c2.1,6.3,6.3,11.2,14.6,14.6c19.5,9.1,26.5,7,41.1,0c2.1-0.7,5.6-1.4,8.4-2.8c4.9-2.1,7.7-2.8,11.1-4.2c2.1-0.7,3.5-0.7,5.6-2.1
					c6.3-4.9,11.8-9.1,17.4-12.5c9.1-5.6,16.7-10.5,25.1-20.9l10.4-13.2c2.1-2.8,7-7.7,10.4-10.5c4.9-3.5,11.1-2.8,16,1.4
					C1587.4,1044.9,1587.4,1049.1,1586,1054z M1423.8,1047v1.4c7.7-2.1,14.6-7.7,16.7-13.9c1.4-4.2,4.2-7.7,6.3-11.2
					c3.5-4.2,5.6-7.7,5.6-12.5v-3.5c0-4.9-1.4-9.1-2.1-8.4c-1.4-0.7-4.2,1.4-6.3,3.5c-1.4,0.7-1.4,1.4-2.8,2.1
					c-3.5,2.8-4.9,7-7.7,11.8c-0.7,1.4-0.7,2.1-1.4,2.8c-3.5,4.9-4.9,11.2-5.6,17.4C1425.2,1041.4,1425.2,1044.2,1423.8,1047z"/>
			</g>
			<g>
				<path d="M1650.1,1120.2c-9.1-2.1-16-7-19.5-14.6c-4.2-9.8-9.1-20.2-5.6-31.4l9.1-26.5l4.9-5.6c3.5-2.8,3.5-3.5,2.8-4.9
					c-1.4-2.1-3.5-2.8-7.7-4.2c-1.4-0.7-3.5-0.7-4.9-1.4c-2.1-1.4-3.5-2.1-7.7-5.6c-7-5.6-9.8-7-11.8-6.3c-2.8,2.1-6.3,7.7-7.7,13.2
					c-7,9.8-11.1,16-18.1,26.5c-0.7,0.7-1.4,2.1-1.4,2.8c-2.8,4.2-5.6,8.4-11.1,11.8c-1.4,0.7-4.2,1.4-7,1.4
					c-7,0-14.6-8.4-11.1-13.9c1.4-2.8,2.8-5.6,4.9-8.4c3.5-7,4.9-10.5,8.4-13.9c6.3-7,9.8-14.6,13.9-23c2.8-6.3,4.2-9.1,7-13.2
					c2.1-3.5,2.1-9.8-0.7-18.1c-2.1-6.3-0.7-11.8,3.5-18.1c2.1-2.1,4.2-5.6,6.3-9.1c1.4-2.1,2.1-2.8,2.8-3.5
					c7.7-9.1,17.4-11.2,29.3-7.7c9.1,3.5,12.5,12.5,7,19.5c-4.2,4.9-7.7,11.9-12.5,21.6c-1.4,2.8-1.4,6.3,0.7,10.5
					c5.6,9.1,18.1,16,28.6,18.8l13.2,4.2c2.1,1.4,4.2,2.1,5.6,2.8c4.2,2.8,6.3,9.1,3.5,13.9l-5.6,9.1l-6.3,8.4
					c-7,9.1-9.1,20.9-6.3,32.8c2.1,12.5,4.9,15.3,15.3,16c2.1,0,4.9,0,7.7,0.7c7.7-0.7,13.9-1.4,22.3-5.6c2.1-2.8,6.3-5.6,8.4-6.3
					c5.6-1.4,7.7-3.5,10.4-6.3c2.8-2.1,4.9-4.2,7.7-5.6c7-4.2,10.4-9.1,13.2-13.9c1.4-2.8,3.5-5.6,5.6-7.7c1.4-0.7,2.1-1.4,3.5-2.8
					c2.8-5.6,8.4-16.7,17.4-16c4.2,0.7,7.7,4.2,9.8,8.4c2.1,3.5-0.7,11.2-4.2,15.3c-0.7,0.7-1.4,2.8-2.1,4.2
					c-2.8,4.2-3.5,5.6-5.6,7.7c-1.4,1.4-2.8,2.1-4.9,3.5c-2.1,2.1-2.8,2.8-4.2,6.3c-1.4,3.5-8.4,10.5-13.2,13.9
					c-3.5,2.8-7.7,4.9-10.4,6.3c-5.6,2.8-8.4,4.2-11.8,9.1c-13.2,8.4-20.2,7.7-31.3,8.4C1674.5,1128.6,1661.2,1127.9,1650.1,1120.2z
					"/>
			</g>
		</g>
		<g>
			<path class="st2" d="M1260.5,2911L0,2183.3V727.7L1260.5,0L2521,727.7v1455.6l-22.5,13L1260.5,2911z M89.8,2131.3l1170.7,675.9
				l1170.7-675.9V779.7L1260.5,103.8L89.8,779.7V2131.3z"/>
		</g>
	</g>
</g>
</svg>
