<?xml version="1.0" encoding="utf-8"?>
<!-- Generator: Adobe Illustrator 26.0.1, SVG Export Plug-In . SVG Version: 6.00 Build 0)  -->
<svg version="1.1" id="Layer_1" xmlns="http://www.w3.org/2000/svg" xmlns:xlink="http://www.w3.org/1999/xlink" x="0px" y="0px"
	 viewBox="0 0 2521 2911" style="enable-background:new 0 0 2521 2911;" xml:space="preserve">
<style type="text/css">
	.st0{fill:#FFFFFF;}
	.st1{fill:#F6C9AC;}
	.st2{fill:none;stroke:#7C3B1A;stroke-width:89.8449;stroke-miterlimit:10;}
</style>
<g>
	<g id="TWO">
		<path class="st0" d="M1033.92,152.69"/>
	</g>
	<g id="ONE_00000096753812397756335920000014003167500001302171_">
		<polygon class="st1" points="2475.05,2158.92 1259.33,2860.82 43.61,2158.92 43.61,755.12 1259.33,53.23 2475.05,755.12 		"/>
		<g id="vase_00000101801671815751677530000011039472856487550361_">
			<path d="M1474.32,1703.17c0,0,106.09,33.41,103.56,138.09c-2.53,104.68-37.76,138.09-37.76,138.09h356.3
				c0,0-50.01-23.04-40.45-128.44c5.68-62.56,93.63-147.74,93.63-147.74H1474.32z"/>
			<path d="M1532.62,2013.73l380.66,2.48c0,0,177.9,71.66,192.14,331.04c1.62,29.44,2.44,30.75,2.42,57.36
				c-227.51,46.51-492.12,244.87-674.14,371.56c-55.91-116.88-88.51-244.81-71.54-437.86
				C1386.44,2061.94,1532.62,2013.73,1532.62,2013.73z"/>
			<path d="M1890.28,1874.63l17.2,47.44c0,0,201.91-142.33,186.21,57.29c-2.93,37.18-30.18,104.35-30.18,104.35l38.69,68.03
				c0,0,46.11-79.51,46.55-185.88C2149.4,1804.75,2044.3,1759.35,1890.28,1874.63z"/>
			<path d="M1951.64,1676.94h-479.34c-16.05,0-29.19-13.13-29.19-29.19v-1.76c0-16.05,13.13-29.19,29.19-29.19h479.34
				c16.05,0,29.19,13.13,29.19,29.19v1.76C1980.82,1663.8,1967.69,1676.94,1951.64,1676.94z"/>
			<polygon class="st1" points="1417.63,2431.22 1450.2,2431.22 1450.2,2329.21 1512.15,2329.21 1512.15,2361.25 1481.17,2361.25 
				1481.17,2399.18 1545.51,2399.18 1545.51,2295.49 1417.63,2295.49 			"/>
			<polygon class="st1" points="1584.08,2431.22 1616.64,2431.22 1616.64,2329.21 1678.6,2329.21 1678.6,2361.25 1647.62,2361.25 
				1647.62,2399.18 1711.96,2399.18 1711.96,2295.49 1584.08,2295.49 			"/>
			<polygon class="st1" points="1745.68,2431.22 1778.25,2431.22 1778.25,2329.21 1840.21,2329.21 1840.21,2361.25 1809.23,2361.25 
				1809.23,2399.18 1873.57,2399.18 1873.57,2295.49 1745.68,2295.49 			"/>
			<polygon class="st1" points="1907.48,2431.22 1940.05,2431.22 1940.05,2329.21 2002.01,2329.21 2002.01,2361.25 1971.03,2361.25 
				1971.03,2399.18 2035.37,2399.18 2035.37,2295.49 1907.48,2295.49 			"/>
			<rect x="1358.66" y="2220.25" class="st1" width="749.15" height="46.51"/>
			<polygon class="st1" points="2001.57,2471.03 1335.57,2477.97 1341.97,2431.22 2072.91,2431.22 			"/>
			<path d="M1474.32,1703.17c0,0,106.09,33.41,103.56,138.09c-2.53,104.68-37.76,138.09-37.76,138.09h356.3
				c0,0-50.01-23.04-40.45-128.44c5.68-62.56,93.63-147.74,93.63-147.74H1474.32z"/>
			<path d="M1538.45,1863.55l-18.18,58.17c0,0-210.51-126.84-171.61,69.58c7.25,36.59,42.16,100.11,42.16,100.11l-30.48,72.08
				c0,0-55.08-73.59-67.93-179.17C1272.95,1824.39,1372.03,1767.03,1538.45,1863.55z"/>
		</g>
		<path class="st0" d="M1636.31,1499.78c97.86,5.71,62.61,154.21,93.92,68.61s171.54-166.02,171.54-166.02s290.7,5.71,231.72-221.09
			c0,0,119.64-81,18.13-297.87s-241.97-176.92-241.97-176.92s161.71-14,158.2-141.12c-3.51-127.12-376.48-270.63-586.29-379.07
			s-247.93-97.84-247.93-97.84L43.61,756.71c0,0-82.27,372.69,123.18,550c115.1,99.34,139.77,16.14,259.61,135.99
			c58.76,58.76,353.84,220.16,462.28,31.83s194.04-128.85,194.04-128.85s121.93,136.97,294.95,51.36s166.45,34.24,166.45,34.24
			S1538.46,1494.07,1636.31,1499.78z"/>
		<g>
			<path d="M1049.22,640.07c-0.7,5.57-5.57,11.85-11.15,13.24h-2.09c-0.7,0.7-1.39,0.7-2.79,0.7c-16.03-1.39-28.57,4.88-41.11,13.93
				c-9.06,5.57-18.12,12.54-26.48,19.51c-6.27,4.88-9.76,7.66-13.94,10.45c-12.54,9.75-24.39,20.9-35.54,32.05l-16.03,14.63
				c-5.57,5.57-11.15,10.45-16.02,16.02c-6.97,6.97-13.24,13.24-23.69,21.6c-9.75,8.36-17.42,17.42-24.39,25.78
				c-6.27,6.97-12.54,13.93-20.21,20.9c-4.88,4.18-9.75,10.45-16.03,18.81c-10.45,15.33-20.2,27.18-29.96,37.63
				c-9.06,8.36-14.63,19.51-21.6,29.96l-11.15,16.73c-6.97,9.75-13.24,18.81-17.42,29.26c-0.7,2.79-2.79,4.88-5.57,7.66l-3.48,4.18
				c-0.7,0.7-1.39,2.09-2.09,3.48c-2.79,3.48-4.88,6.27-5.57,9.75c-2.09,7.66-6.27,13.93-10.45,19.51c-0.7,1.39-1.39,2.09-2.79,3.48
				c-6.27,9.75-11.15,20.21-16.03,32.75c-4.88,11.15-11.15,21.6-18.11,32.05c-5.57,6.97-7.66,12.54-7.66,18.12
				c-4.88,4.88-8.36,12.54-12.54,19.51c-2.09,4.18-2.79,6.27-4.88,9.06l-16.02,29.27c0,0.7-0.7,0.7-0.7,1.39v1.39
				c-1.39,0.7-2.09,0.7-2.79,6.97c0,4.88-1.39,8.36-4.18,10.45c-3.48,2.79-5.57,6.97-7.66,11.15l-2.09,3.48
				c-1.39,2.79-2.09,6.27-3.48,9.75l-2.09,9.75c-1.39,2.09-2.79,4.88-4.18,7.66c-2.09,3.48-4.18,6.27-4.88,9.76
				c-4.88,14.63-19.51,18.81-31.36,9.06c-7.66-6.27-9.06-10.45-4.88-16.02l3.48-16.03c3.48-15.33,6.97-30.66,7.66-46.68
				c0.7-0.7,0.7-1.39,0.7-2.09l1.39-2.79c5.57-10.45,7.66-18.81,7.66-27.17c0-4.18,1.39-8.36,2.79-12.54
				c2.09-4.88,3.48-9.75,2.79-15.33c3.48-3.48,4.88-6.97,4.88-16.03c0-5.57,0-8.36,1.39-11.84c3.48-9.75,5.57-19.51,7.66-29.27
				c1.39-5.57,2.09-6.97,3.48-9.06c2.79-3.48,3.48-8.36,4.18-13.24c0.7-7.66,2.09-11.15,5.57-15.33c-1.39-3.48-1.39-7.66,0-13.94
				c0.7-2.79,1.39-4.88,1.39-7.66c0-1.39,0-2.79,0.7-4.18c0-5.57,0.7-11.15,2.79-16.72c2.79-7.66,2.79-16.72,2.79-26.48
				c0-6.27-0.7-12.54,2.79-18.12c0.7-2.09,0.7-4.18,0-5.57c-1.39-3.48-2.79-6.97,0-12.54c2.09-2.79,2.09-6.27,0.7-12.54
				c-0.7-3.48-0.7-5.57-0.7-8.36c0-2.79,0.7-5.57,2.09-9.75c2.09-4.18,2.09-6.97,2.09-9.06c-0.7-4.88-0.7-7.66,0.7-10.45
				c1.39-1.39,1.39-3.48,0.7-6.97c0-0.7-0.7-1.39-0.7-2.09c-0.7-2.79-1.39-4.88-2.09-9.06c-0.7-2.79-1.39-5.57-2.79-8.36
				c-0.7-2.09,0-4.18,1.39-6.27v-2.09c3.48-5.57,1.39-11.84,0-18.11c-2.09-11.15-5.57-20.21-8.36-27.18c0-1.39-0.7-2.09-1.39-2.79
				c-2.09-4.88-2.79-6.97-2.09-10.45c0-6.97-2.79-12.54-7.66-16.03c-3.48-2.79-4.88-4.88-5.57-9.06
				c-2.79-9.75-9.76-13.93-21.6-13.93c-14.63,0-29.27,2.79-43.9,8.36l-4.88,2.09c-2.09,1.39-3.48,2.09-5.57,2.79
				c-8.36,0.7-16.03,5.57-23,11.84c-2.09,2.79-5.57,5.57-8.36,7.67c-1.39,1.39-2.09,1.39-2.09,2.09l-2.79,2.09
				c-1.39,0.7-0.7,0.7-0.7,0.7l-2.09,2.09c-14.63,14.63-23,27.87-27.87,47.38c-2.79,11.84-2.79,25.78-1.39,41.81
				c-2.79-0.7,3.48,21.6,6.97,23.69c4.88,11.15,11.84,19.51,27.17,35.54c4.88,2.09,10.45,4.88,11.85,4.88
				c6.97,1.39,13.93,6.27,20.21,10.45c3.48,2.09,6.27,5.57,6.27,9.76l0.7,1.39c0.7,2.79,2.79,10.45-9.75,13.24
				c-9.06,0.7-19.51-2.79-27.87-6.27c-7.66-3.48-12.54-7.66-18.12-11.15c-3.48-2.79-6.97-5.57-11.84-8.36
				c-4.18-2.09-13.93-15.33-14.63-18.12c-2.09-3.48-4.18-6.27-7.66-9.75c-4.88-4.88-9.75-10.45-10.45-20.21
				c0-0.7-0.7-1.39-2.09-2.79c-0.7-1.39-2.09-2.79-2.79-3.48c-1.39-0.7-0.7-4.88,0-11.84v-2.79c-2.09-2.09-2.09-6.27-2.09-12.54
				c0-3.48,0-7.66-0.7-11.15c-1.39-9.06,0.7-17.42,2.79-25.09c1.39-3.48,2.09-6.97,2.79-10.45c5.57-13.94,20.21-34.14,33.45-48.08
				c1.39-2.79,3.48-4.88,6.97-6.97c16.03-16.03,29.27-23.69,45.29-31.36c15.33-6.27,29.27-10.45,41.81-12.54
				c4.18-0.7,6.97-1.39,11.15-2.79c4.88-1.39,9.75-0.7,16.03,0.7c2.79,1.39,5.57,2.09,8.36,2.09c2.09,0.7,4.88,0.7,6.97,1.39
				c3.48,0,6.97,0.7,7.66,2.09l8.36,6.97c11.15,9.06,23,18.12,25.78,34.84c0.7,4.18,2.79,7.66,5.57,11.84
				c9.06,13.24,12.54,27.87,12.54,47.38c0,6.27,0,11.15,2.79,16.02c2.79,4.18,3.48,7.66,2.79,16.03v3.48
				c-1.39,6.97-1.39,13.93-1.39,20.21c-0.7,3.48-0.7,6.97-0.7,10.45c0,4.18,0,9.06-0.7,13.94c0,6.97-0.7,13.93,0,20.9
				c0.7,4.88-0.7,10.45-2.09,14.63c-1.39,4.88-2.09,9.75-2.09,14.63c0.7,9.06,1.39,20.9-4.88,30.66v5.57
				c1.39,13.94-1.39,28.57-7.67,45.99c-0.7,2.09-1.39,4.18-1.39,7.66c0,7.66-0.7,11.15-4.18,13.94c0,0,0,1.39-0.7,1.39
				c3.48,4.88,3.48,9.06,0,16.72c-0.7,0.7-1.39,2.09-1.39,2.79c-1.39,3.48-2.79,7.66-3.48,11.15c-2.79,9.06-5.57,17.42-9.06,25.78
				c-1.39,2.79-0.7,5.57-0.7,9.06v6.97c2.79-11.15,5.57-16.02,11.85-20.9c1.39-0.7,2.79-2.79,2.79-4.18
				c0.7-12.54,7.66-22.3,14.63-32.05c3.48-4.88,5.57-8.36,7.66-11.85c0.7-2.79,2.79-5.57,4.18-8.36c4.18-6.27,7.67-12.54,8.36-20.21
				c0.7-2.79,2.09-4.18,5.57-7.66c1.39-1.39,2.79-2.09,3.48-3.48l8.36-16.72c6.97-12.54,13.24-25.09,23-36.23
				c2.09-11.15,9.06-18.81,16.02-25.78c4.88-5.58,6.97-8.36,9.76-12.54c4.18-6.27,9.06-12.54,13.93-18.81l9.75-12.54
				c9.76-13.94,20.91-25.78,33.45-39.02c10.45-9.75,18.81-21.6,27.18-33.45c2.09-3.48,4.88-6.27,6.97-9.06l3.48-3.48
				c4.88-4.18,9.76-9.06,14.63-13.93c8.36-9.06,16.72-17.42,28.57-24.39l3.48-3.48c0.7-0.7,0.7-0.7,0.7-1.39
				c16.72-20.21,11.15-15.33,30.66-33.45c6.27-3.48,11.85-9.06,17.42-14.63c4.88-4.88,9.75-9.75,16.02-13.24l14.63-10.45
				c6.27-4.88,11.85-9.75,18.81-13.93c19.51-11.85,39.02-20.21,59.93-26.48c4.18-1.39,9.75-1.39,16.02,0.7
				C1045.03,628.23,1049.22,633.81,1049.22,640.07z"/>
			<path d="M941.22,1054.66c-0.7,0.7-1.39,2.09-2.09,4.18c-1.39,3.48-2.09,5.57-4.18,6.97c-4.88,6.97-9.06,11.15-13.24,15.33
				c-3.48,3.48-5.57,5.57-8.36,9.75c-9.75,10.45-18.12,16.72-28.57,21.6c-4.88,2.09-9.75,3.48-12.54,7.66
				c-21.6,13.24-34.84,13.93-54.35,16.02h-4.88c-21.6,1.39-44.59-8.36-56.44-24.39c-5.57,4.18-11.15,6.97-16.03,9.06
				c-6.27,2.79-7.66,3.48-9.75,4.88c-4.88,3.48-8.36,6.27-14.63,6.27c-15.33,0-21.6-11.15-10.45-22.3
				c10.45-2.79,22.3-8.36,29.27-16.03c2.79,0,6.27-2.09,9.75-4.88c-0.7-5.57-1.39-10.45,0-15.33l2.09-13.94
				c0.7-9.06,1.39-18.81,5.58-27.87c1.39-2.79,2.79-5.57,3.48-8.36l3.48-9.76c4.88-10.45,11.15-18.11,18.81-25.08
				c10.45-9.75,21.6-13.94,33.45-13.24c6.27,0,11.15,2.09,16.03,6.97c7.66,6.97,9.75,13.94,9.06,25.78
				c-0.7,4.18-2.79,9.06-4.18,13.24c-0.7,2.79-1.39,4.18-2.09,6.27c-6.27,20.21-17.42,37.63-29.96,47.38
				c-1.39,0.7-3.48,2.79-6.97,6.97c-4.88,5.57-6.97,8.36-10.45,9.75l-2.79,2.09c-2.09,2.09-2.09,2.79-1.39,4.18
				c2.79,4.88,4.18,6.27,9.06,7.66l5.57,2.09c19.51,9.06,26.48,6.97,41.11,0c2.09-0.7,5.57-1.39,8.36-2.79
				c4.88-2.09,7.66-2.79,11.15-4.18c2.09-0.7,3.48-0.7,5.57-2.09c6.27-4.88,11.85-9.06,17.42-12.54
				c9.06-5.57,16.72-10.45,25.08-20.9l10.45-13.24c2.09-2.79,6.97-7.66,10.45-10.45c4.88-3.48,11.15-2.79,16.03,1.39
				C942.62,1045.6,942.62,1049.78,941.22,1054.66z M774.69,1065.11c4.88-0.7,7.66-6.27,9.06-8.36c6.97-4.18,9.06-10.45,12.54-21.6
				c1.39-4.18,3.48-7.66,5.57-10.45c2.79-4.88,4.88-8.36,4.88-13.24v-3.48c0-4.88,0-8.36-3.48-7.66c-1.39-0.7-2.09,0.7-4.18,2.79
				c-1.39,0.7-1.39,1.39-2.79,2.09c-3.48,2.79-4.88,6.97-7.66,11.84c-0.7,1.39-0.7,2.09-1.39,2.79c-3.48,4.88-4.88,14.63-9.06,23.69
				C775.39,1049.78,774.69,1061.63,774.69,1065.11z"/>
			<path d="M1097.31,1054.66l-2.09,4.18c-2.09,4.88-3.48,7.66-6.97,10.45c-2.79,2.79-6.97,7.67-11.15,12.54
				c-5.57,5.57-8.36,9.06-11.85,11.84c-9.75,9.06-16.72,13.24-25.78,18.12l-11.15,6.27c-11.84,7.66-19.51,9.75-33.45,13.93
				c-28.57,7.66-44.59-0.7-53.65-5.57c-2.79-1.39-4.18-2.79-5.58-2.79c-2.79-0.7-5.57-2.79-6.97-4.88c-0.7-0.7-0.7-1.39-0.7-1.39
				c-9.06-2.79-14.63-19.51-13.93-34.84c0-22.3,2.09-36.93,7.66-52.95c0.7-2.79,2.09-5.57,3.48-8.36c1.39-2.79,2.09-4.88,2.79-6.97
				c0-4.88,0-7.66,1.39-10.45c4.88-6.27,6.27-11.84,8.36-18.81c0.7-3.48,1.39-7.66,3.48-12.54c0.7-2.79,2.09-1.39-3.48-0.7
				c-2.09,0-3.48,0-4.88-0.7c-1.39,0-2.09-0.7-9.75,0.7h-6.97c-4.18,0-8.36,0.7-12.54,0c-4.88-1.39-8.36-4.88-8.36-9.75
				c-0.7-3.48,0.7-4.88,4.88-6.97c0.7,0,1.39,0,1.39-0.7c6.27-2.79,15.33-4.18,22.3-3.48c7.66,0.7,9.06,0.7,11.84-0.7
				c2.09,0,4.88-1.39,11.85-1.39c1.39,0,3.48-2.79,5.57-7.66c2.09-1.39,4.18-7.66,3.48-9.06c-0.7-4.88,0-7.67,3.48-12.54
				c2.79-2.79,2.79-4.18,2.09-6.97l10.45-25.08c4.18-8.36,13.24-10.45,21.6-3.48c0.7,0,0.7,0.7,2.09,2.09
				c2.79,3.48,4.18,4.88,4.18,8.36v5.57c0,4.88,0,6.97-0.7,9.76c-2.79,6.27-4.18,10.45-4.88,14.63c-0.7,4.88-2.09,9.06-6.27,17.42
				c0,0.7-0.7,1.39-1.39,2.09l-1.39,2.79c4.18,1.39,6.97,0.7,11.15-0.7c19.51-5.57,34.14-4.18,52.95-3.48
				c2.79,0,7.66,1.39,8.36,3.48h0.7c1.39,2.09,2.79,3.48,2.79,4.88c0,2.79-2.09,6.97-4.88,8.36c-2.79,2.09-6.97,2.79-10.45,2.79
				s-6.97,0.7-9.75,0.7c-5.57,0.7-10.45,1.39-17.42,1.39c-1.39,0-2.09,0-3.48,0.7H1013c-5.57,0-9.75,0-13.93,0.7
				c-4.18,0-9.06,0.7-14.63,0.7c-5.57,0.7-6.27,0.7-6.97,6.97c-2.09,6.27-4.88,10.45-6.97,13.24c-3.48,5.57-4.88,8.36-4.88,16.02
				c0,1.39-1.39,4.18-3.48,8.36c-2.09,2.79-2.09,2.79-2.09,3.48c-18.12,37.63-18.81,52.26-16.03,78.73c0,2.79,0.7,4.18,4.88,7.66
				c11.15,12.54,22.99,14.63,39.72,8.36c13.93-4.88,25.08-7.66,34.84-18.12c4.88-4.88,8.36-6.27,11.84-7.66
				c2.09-0.7,4.18-1.39,6.97-2.79c6.27-4.18,11.15-8.36,15.33-13.93c2.09-2.09,4.88-5.57,7.66-9.06
				c5.57-7.66,9.06-11.15,13.24-13.93c3.48-2.79,10.45-2.79,13.94,0.7l1.39,1.39C1097.31,1049.78,1098.7,1051.87,1097.31,1054.66z"
				/>
			<path d="M1100.1,1132.7c-4.18-0.7-10.45-2.09-13.24-6.97c-5.57-6.27-10.45-13.24-14.63-20.91c-1.39-2.09-2.09-4.18-2.09-7.66
				v-19.51c-1.39-22.3,4.88-43.9,11.84-65.5c0.7-3.48,2.79-6.97,6.27-10.45c4.88-6.97,18.11-5.57,22.3,0.7
				c1.39,2.09,2.09,5.57,2.09,7.67v0.7l-10.45,45.29c-2.79,10.45-3.48,22.3-2.09,38.32c0.7,9.06,4.88,13.93,11.84,16.72l4.88,2.09
				c1.39,0.7,2.79,1.39,3.48,1.39c2.09,1.39,4.18,1.39,6.97,0.7c9.75-1.39,17.42-6.27,25.78-12.54c9.06-6.97,17.42-13.24,24.39-22.3
				c2.79-4.88,6.27-8.36,9.06-11.15c3.48-4.88,7.67-9.06,12.54-18.11c2.79-6.97,6.97-8.36,13.93-11.85
				c4.18-2.09,13.24,2.09,13.94,7.66c0,4.18,0,4.88-2.09,8.36l-2.79,7.66c-0.7,0-6.97,9.06-6.97,11.84
				c-1.39,1.39-4.18,4.18-6.27,6.97c-4.88,6.27-11.84,14.63-20.9,23.69c-11.84,11.15-19.51,17.42-28.57,22.3
				c-20.21,9.75-37.63,11.84-54.35,6.27C1103.59,1133.39,1102.19,1132.7,1100.1,1132.7z M1110.56,902.06
				c-0.7-6.27,0.7-9.75,6.27-13.93l6.97-4.18l4.18-2.79c6.97-3.48,18.12,2.09,18.81,9.75c1.39,12.54-9.75,23.69-22.3,23
				C1118.22,913.21,1111.25,908.34,1110.56,902.06z"/>
			<path d="M1419.23,1056.75c-1.4,1.39-2.79,3.48-4.18,5.57c-2.09,4.88-4.19,6.97-7.66,9.75c-11.85,9.75-20.21,16.72-26.48,20.21
				c-8.36,6.27-18.11,9.06-28.56,12.54c-18.81,3.48-41.81,0-52.96-5.57c-5.57-3.48-13.93-3.48-19.51-10.45
				c0,0.7-1.39,2.09-2.09,2.79c-3.48,5.57-0.7,1.39-4.88,6.97l-4.18,4.88c-2.79,4.18-4.88,6.97-11.15,10.45
				c-4.88,3.48-9.75,6.97-13.94,10.45l-9.75,7.66c-9.06,7.66-19.51,9.06-31.36,4.88c-9.06-3.48-12.54-9.06-9.06-17.42
				c2.79-6.97,2.09-11.84,2.09-18.11c-0.7-5.57-0.7-11.85,1.39-18.82c2.79-4.18,2.79-9.06,2.79-14.63
				c0.7-13.24,1.39-25.09,4.18-37.63v-1.39c-0.7-6.27,1.39-12.54,2.79-17.42c1.39-4.18,2.78-7.66,2.78-11.84
				c0-1.39,2.79-11.15,14.63-11.15c2.79,0,5.58,2.09,9.06,4.88l2.09,2.09c2.79,1.39,3.48,4.88,2.79,11.15v3.48
				c0,11.84-2.09,18.81-4.18,25.78c-2.09,6.27-4.18,12.54-4.88,22.3l-2.09,11.85c-0.7,4.18-2.09,8.36-2.09,12.54v7.67
				c0.7,4.18,0.7,6.27,0.7,11.15v4.18v0.7c0.7,0,1.39-0.7,1.39-0.7c7.66-9.06,13.94-15.33,20.91-22.3
				c3.48-3.48,6.96-6.97,11.15-11.85c2.09-1.39,3.48-4.18,4.88-6.27c0.7-2.09,1.39-3.48,2.79-4.88c0.7-1.39,0-1.39,0-3.48
				c-0.7-2.09-1.4-4.88-1.4-6.27c0-2.79-0.7-5.57-0.7-9.06c-1.39-7.66-2.79-16.72,0-29.26c0.7-3.48,1.39-6.27,1.39-9.06
				c0.7-5.57,2.09-7.66,9.06-18.12c8.36-13.24,23.69-20.21,39.02-18.12c6.97,2.09,11.85,5.57,12.55,11.15c0,1.39,0,2.09,0.7,2.79
				c0.7,5.57,2.09,10.45,2.79,15.33c1.39,4.88,0.7,6.97-0.7,10.45c-2.78,15.33-20.9,41.81-33.44,60.62
				c-2.09,3.48,5.57,9.76,13.24,10.45c1.39,0,2.79,0.7,4.88,1.39c6.97,2.09,17.42,5.57,30.66,1.39c11.84,0.7,24.38-9.06,35.53-16.72
				c2.09-2.09,5.58-5.57,8.36-9.06c4.88-6.27,6.97-9.06,10.45-11.15c6.97-5.58,13.94-5.58,19.51,0
				C1419.93,1049.08,1421.32,1054.66,1419.23,1056.75z M1302.17,1006.58c0.7-2.09,0.7-2.79,0.7-3.48c0-2.09,0.7-3.48,1.4-5.57
				c0.7-0.7-1.4-2.79-3.48-2.09c-1.4,0-4.88,1.39-4.88,2.09c-0.7,2.09-2.09,3.48-2.79,4.18c-2.79,2.09-3.48,3.48-3.48,7.66
				c-1.4,3.48-2.09,20.21-0.7,26.48C1290.33,1037.24,1302.17,1010.07,1302.17,1006.58z"/>
			<path d="M1585.77,1054.66c-0.7,0.7-1.39,2.09-2.09,4.18c-1.4,3.48-2.09,5.57-4.19,6.97c-4.88,6.97-9.06,11.15-13.24,15.33
				c-3.48,3.48-5.58,5.57-8.36,9.75c-9.76,10.45-18.12,16.72-28.57,21.6c-4.88,2.09-9.76,3.48-12.54,7.66
				c-21.6,13.24-34.84,13.93-54.35,16.02h-4.88c-24.39,1.39-51.56-11.84-61.32-31.36c-6.97-13.24-9.06-21.6-6.97-31.35l2.09-13.94
				c0.7-9.06,1.39-18.81,5.57-27.87c1.4-2.79,2.79-5.57,3.48-8.36l3.48-9.76c4.88-10.45,11.15-18.11,18.81-25.08
				c10.45-9.75,21.6-13.94,33.45-13.24c6.27,0,11.15,2.09,16.03,6.97c10.45,9.76,12.54,16.73,6.96,26.48
				c-2.09,4.88-4.18,10.45-4.18,14.63c-2.09,18.81-13.94,29.26-27.17,39.02c-3.48,2.79-7.66,4.18-11.84,6.27
				c-2.09,0.7-3.48,1.39-5.58,2.79l-2.78,0.7c-10.45,4.18-4.88,4.88-4.88,16.72l0.7,4.18c2.09,6.27,6.27,11.15,14.63,14.63
				c19.51,9.06,26.48,6.97,41.11,0c2.09-0.7,5.58-1.39,8.37-2.79c4.88-2.09,7.66-2.79,11.15-4.18c2.09-0.7,3.48-0.7,5.57-2.09
				c6.27-4.88,11.84-9.06,17.42-12.54c9.06-5.57,16.72-10.45,25.09-20.9l10.45-13.24c2.09-2.79,6.97-7.66,10.45-10.45
				c4.88-3.48,11.15-2.79,16.03,1.39C1587.16,1045.6,1587.16,1049.78,1585.77,1054.66z M1423.42,1047.69v1.39
				c7.66-2.09,14.63-7.66,16.73-13.93c1.39-4.18,4.18-7.66,6.27-11.15c3.48-4.18,5.57-7.66,5.57-12.54v-3.48
				c0-4.88-1.39-9.06-2.09-8.36c-1.4-0.7-4.19,1.39-6.27,3.48c-1.4,0.7-1.4,1.39-2.79,2.09c-3.48,2.79-4.88,6.97-7.66,11.84
				c-0.7,1.39-0.7,2.09-1.39,2.79c-3.48,4.88-4.88,11.15-5.58,17.42C1424.82,1042.12,1424.82,1044.9,1423.42,1047.69z"/>
			<path d="M1649.89,1120.85c-9.06-2.09-16.03-6.97-19.51-14.63c-4.18-9.75-9.06-20.21-5.57-31.36l9.06-26.48l4.88-5.57
				c3.48-2.79,3.48-3.48,2.79-4.88c-1.39-2.09-3.48-2.79-7.66-4.18c-1.39-0.7-3.48-0.7-4.88-1.39c-2.09-1.39-3.48-2.09-7.66-5.58
				c-6.97-5.57-9.76-6.97-11.84-6.27c-2.79,2.09-6.27,7.66-7.66,13.24c-6.97,9.76-11.15,16.03-18.12,26.48
				c-0.7,0.7-1.4,2.09-1.4,2.79c-2.78,4.18-5.57,8.36-11.15,11.84c-1.39,0.7-4.18,1.39-6.97,1.39c-6.96,0-14.63-8.36-11.15-13.93
				c1.4-2.79,2.79-5.57,4.88-8.36c3.48-6.97,4.88-10.45,8.36-13.93c6.27-6.97,9.76-14.63,13.94-23c2.79-6.27,4.18-9.06,6.97-13.24
				c2.09-3.48,2.09-9.75-0.7-18.12c-2.09-6.27-0.7-11.84,3.48-18.11c2.09-2.09,4.18-5.57,6.27-9.06c1.39-2.09,2.09-2.79,2.79-3.48
				c7.66-9.06,17.42-11.15,29.27-7.66c9.06,3.48,12.54,12.54,6.97,19.51c-4.19,4.88-7.66,11.85-12.55,21.6
				c-1.39,2.79-1.39,6.27,0.7,10.45c5.58,9.06,18.12,16.02,28.57,18.81l13.24,4.18c2.09,1.39,4.18,2.09,5.57,2.79
				c4.18,2.79,6.27,9.06,3.48,13.94l-5.57,9.06l-6.27,8.36c-6.97,9.06-9.06,20.91-6.27,32.75c2.09,12.54,4.88,15.33,15.33,16.02
				c2.09,0,4.88,0,7.66,0.7c7.66-0.7,13.94-1.39,22.3-5.57c2.09-2.79,6.27-5.57,8.37-6.27c5.57-1.39,7.66-3.48,10.45-6.27
				c2.79-2.09,4.88-4.18,7.66-5.57c6.97-4.18,10.45-9.06,13.24-13.93c1.39-2.79,3.48-5.57,5.58-7.67c1.39-0.7,2.09-1.39,3.48-2.79
				c2.79-5.57,8.37-16.72,17.42-16.03c4.18,0.7,7.66,4.18,9.76,8.36c2.09,3.48-0.7,11.15-4.18,15.33c-0.7,0.7-1.4,2.79-2.09,4.18
				c-2.79,4.18-3.48,5.57-5.57,7.67c-1.4,1.39-2.79,2.09-4.88,3.48c-2.09,2.09-2.78,2.79-4.18,6.27
				c-1.39,3.48-8.36,10.45-13.24,13.93c-3.48,2.79-7.66,4.88-10.45,6.27c-5.58,2.79-8.36,4.18-11.84,9.06
				c-13.24,8.36-20.21,7.67-31.36,8.36C1674.27,1129.21,1661.03,1128.52,1649.89,1120.85z"/>
		</g>
		<polygon class="st2" points="2476.43,2157.29 1260.02,2858.64 43.61,2157.29 43.61,754.58 1260.02,53.23 2476.43,754.58 		"/>
	</g>
</g>
</svg>
