<?xml version="1.0" encoding="UTF-8"?><svg id="Layer_1" xmlns="http://www.w3.org/2000/svg" xmlns:xlink="http://www.w3.org/1999/xlink" viewBox="0 0 734.8 848.4"><defs><style>.cls-1{mask:url(#mask);}.cls-2{isolation:isolate;}.cls-3{fill:#452fd0;}.cls-3,.cls-4,.cls-5{stroke-width:0px;}.cls-4{fill:#654ff0;}.cls-5{fill:#fff;}</style><mask id="mask" x="29.61" y="13.36" width="676.2" height="802.34" maskUnits="userSpaceOnUse"><polygon class="cls-5" points="705.81 230 367.71 34.8 367.71 34.8 29.61 230 29.61 620.5 367.71 815.7 705.81 620.5 705.81 230"/></mask></defs><polygon class="cls-4" points="705.5 230 367.4 34.8 367.4 34.8 29.3 230 29.3 620.5 367.4 815.7 705.5 620.5 705.5 230"/><path class="cls-3" d="m734.8,636.4V212.1l-29.3-16.9L427.7,34.8,367.4,0l-60.3,34.8L29.3,195.2,0,212.1v424.2l29.3,16.9,281.3,162.4,56.9,32.8,56.9-32.8,281.3-162.4,29.1-16.8Zm-705.5-15.9V230L367.4,34.8h0l338.1,195.2v390.5l-338.1,195.2L29.3,620.5Z"/><g class="cls-1"><path class="cls-3" d="m430.82,51.81c-10.22,29.86-34.77,50.89-63.42,50.89s-54.41-22.09-64.15-53.13l64.46-36.22,63.11,38.45Z"/></g><path class="cls-5" d="m92.85,357.2v-13.3h3c1.58,0,3.15-.03,4.72-.05,1.6-.03,3.2-.05,4.79-.05,2.52,0,4.59.07,6.51.22,1.58.12,3.16.18,4.68.18,9.7,0,18.19-2.4,25.98-7.32l1.83-1.17c6.85-4.39,13.93-8.93,21.4-12.76,24.14-12.44,37.92-31.35,42.11-57.8,1.75-10.89,3.04-21.8,4.18-31.97.62-5.45-1.75-9.81-7.69-14.14-9.41-6.77-18.62-14-27.53-20.98-3.01-2.36-6.02-4.72-9.04-7.07-1.37-1.09-4.18-3.31-4.34-6.48-.06-1.23.27-3.1,2.2-4.95,1.56-1.45,3.29-2.17,5.17-2.17,2.76,0,5.12,1.59,6.87,2.98,1.3,1.01,2.63,2.04,3.96,3.06,6.61,5.1,13.44,10.36,19.84,15.92,13.33,11.43,29.01,16.99,47.93,16.99,3.81,0,7.8-.24,11.86-.7,23.06-2.66,45.92-9.72,71.94-22.22,13.53-6.5,21.21-17.44,22.82-32.51.88-8.19,1.21-16.57,1.53-24.68.18-4.67.37-9.5.66-14.28.16-2.63,1.64-6.01,4.18-7.36,1.14-.64,2.39-.99,3.66-.99,1.79,0,3.47.71,4.74,2,1.49,1.53,2.28,3.73,2.22,6.2-.1,5.11-.28,10.28-.45,15.28-.17,4.98-.35,10.13-.45,15.21,0,2.13.41,4.12,1.16,5.55,16.79,30.95,44.42,50.97,82.1,59.46,4.65,1.05,9.41,1.58,14.13,1.58,11.43,0,22.76-3.02,33.67-8.99,6.35-3.46,11.65-8.99,16.78-14.34,1.61-1.68,3.27-3.41,4.95-5.07,4.01-3.95,7.92-8.19,11.7-12.29,2.26-2.46,4.6-4.99,6.95-7.46.07-.09.15-.2.22-.31.55-.78,1.47-2.09,3.14-2.37l.11-.02c1.49-.19,2.98-.27,4.42-.34.91-.05,1.81-.09,2.71-.17l3.26-.28v3.27c0,.41.06.94.13,1.5.22,1.83.49,4.1-1.03,5.93l-.09.1c-8.5,9.3-17.48,18.49-26.17,27.37l-.57.59c-2.14,2.25-4.36,4.58-7.25,6.43-2.35,1.55-3,3.17-2.64,6.67,4.49,42.3,24.29,80.05,58.86,112.21,9.02,8.47,19.8,12.76,32.04,12.76.85,0,1.71-.02,2.58-.06,3.03-.14,6.28-.21,10.24-.21,2.53,0,5.06.03,7.61.05,2.55.03,5.11.05,7.7.05h3v13.3H92.85Zm412.88-130.25c-13.79,11.24-27.31,22.34-39.87,32.67-1.17.95-3.58,2.91-3.77,3.81-.17.81,1.08,3.25,1.83,4.7,8.84,17.29,20.14,32.74,34.56,47.26l1.98,1.99c7.84,7.88,15.25,15.33,25.62,19.99,9.41,4.3,19.75,6.21,33.54,6.21h0c3.37,0,6.75-.11,10.07-.27-18.02-17.23-31.81-34.5-42.05-52.63-11.3-19.77-18.49-40.67-21.91-63.73Zm-324.27,116.03c4.76,0,8.98.07,12.91.22,1.18.04,2.35.07,3.5.07,22.37,0,38.62-8.09,49.69-24.73,10.4-15.69,14.88-33.75,14.1-56.84-.07-2.46-.87-3.85-3.07-5.31-10.6-7.2-21.26-14.61-31.56-21.77,0,0-.13-.09-.15-.1-.15,1.21-.3,2.41-.44,3.61-.79,6.38-1.54,12.41-2.09,18.54-3.4,36.6-21,62.7-53.8,79.79-4.15,2.07-8.17,4.45-12.07,6.8,2.48-.03,4.97-.07,7.46-.11,5.09-.08,10.35-.17,15.53-.17Zm67.73-.38c2.87,0,5.23.1,7.45.31,1.12.12,2.19.18,3.2.18,6.1,0,10.77-2.03,14.68-6.39.82-.92,1.65-1.85,2.48-2.79,4.56-5.1,9.28-10.37,13.08-15.91,3.61-5.31,6.17-11.37,8.69-17.62,2.36-5.62,1.26-9.63-3.55-13.03-2.45-1.72-4.45-3.83-6.39-5.86-1.24-1.3-2.4-2.53-3.67-3.64-2.3-2.06-4.67-4.11-7.17-6.27-.24-.21-.48-.42-.73-.63-1.21,15.83-3.91,28.49-8.4,39.49-5.14,12.61-12.71,23.22-23.01,32.21,1.11-.02,2.23-.04,3.34-.04Zm199.04-68.86c-1.17.95-2.35,1.91-3.52,2.86-5.07,4.1-10.31,8.33-14.97,12.85-1.88,1.8-3.29,5.09-3.29,7.65,0,9.39,2.89,17.63,8.6,24.48,11.94,14.35,25.44,21.03,42.49,21.03.32,0,.64,0,.96,0,3.62-.06,7.42-.09,11.94-.09,3.94,0,7.89.02,11.88.04,1.23,0,2.46.01,3.7.02-24.64-20.2-43.62-42.81-57.79-68.83Zm-12.93,68.46c-12.77-9.95-20.2-21.67-22.91-36.11-12.26,11.85-22.68,23.74-31.65,36.11h54.56Zm-92.7,0c-8.66-10.53-17.09-20.75-25.44-30.86l-3.94-4.77c-4.37,13.69-14.09,24.64-23.52,35.27-.11.12-.21.24-.32.36h53.21Zm-13.17-39.58c3.19,3.89,6.4,7.82,9.68,11.83,4.62,5.65,9.35,11.44,14.24,17.39v-39.22l-4.52,1.9c-6.31,2.65-12.79,5.37-19.4,8.12Zm40.21,28.8c2.71-3.29,5.42-6.58,8.14-9.88,5.74-6.96,11.49-13.95,17.29-21.03-10.1-.52-18.38-3.03-25.43-7.72v38.62Zm-75.47-65.54c7.09,6.98,13.79,13.57,20.43,20.43,1.85,1.91,3.55,2.73,5.68,2.73.59,0,1.24-.06,1.92-.19,10.65-1.79,19.06-5.29,25.77-10.69,5.5-4.42,7.68-8.65,7.29-14.15-.42-4.99-.31-10.05-.2-14.93.05-2.19.1-4.45.1-6.68v-1.48c-21,14.46-41.32,21.79-63.19,22.78.74.73,1.48,1.46,2.22,2.18Zm76.56-17.98c-.13,7.48-.24,14.54.3,21.56.28,3.89,1.98,10.79,10.24,13.48,6.81,2.2,14.32,3.14,20.76,3.77.28.03.59.04.91.04,2.57,0,5.53-.84,6.89-1.97,5.56-4.69,10.89-9.9,16.04-14.93.12-.12.24-.23.36-.35-20.36-.82-38.2-8.72-55.45-24.59-.01,1-.03,2-.05,2.99Zm0-66.18c0,2.6-.02,5.2-.03,7.8-.04,8.74-.09,17.78.04,26.62,0,2.28,1.05,4.94,1.85,6.74,8.26,18.4,32.41,31.78,57.41,31.78,14.01,0,26.05-4.46,33.89-12.55,3.71-3.84,8.12-7.16,12.5-10.33-2.31.12-4.6.19-6.85.19-44.95,0-75.22-24.6-98.8-50.23Zm-123.69,48.17c6.72,4.86,13.07,9.45,19.69,13.55,4.53,2.76,9.88,4.65,14.65,5.17,3.24.36,6.49.54,9.65.54,21.92,0,41.8-8.27,62.57-26.03.76-.65,1.48-2.06,1.55-3.04.15-7.69.13-15.5.11-23.76,0-.85,0-1.71,0-2.58-30.03,23.16-65.65,34.95-108.55,35.92.11.08.23.16.34.24Z"/><path class="cls-5" d="m365.65,747.51c-6.92,0-7.31-5.95-7.49-8.81-.27-4.24-.47-8.54-.66-12.7-.46-9.78-.93-19.89-2.31-29.67-1.89-13.11-9.96-23.17-23.34-29.08-20.08-8.81-41.95-17.45-65.73-20.98-5-.76-10.02-1.14-14.93-1.14-9.48,0-19.02,1.43-28.36,4.24-7.71,2.36-13.6,6.92-19.83,11.74-1.93,1.5-3.93,3.05-5.99,4.52-4.24,3.06-8.33,6.49-12.29,9.8-2.01,1.68-4.09,3.42-6.18,5.1l-1.56,1.25-.06.04c-1.98,1.44-3.82,2.14-5.61,2.14s-3.48-.69-4.97-2.05c-2.11-1.85-2.54-3.81-2.51-5.11.03-2.05,1.12-3.97,3.23-5.72l5.16-4.17c7.53-6.1,15.32-12.41,23.11-18.48,1.71-1.32,3.51-2.51,5.25-3.65,2.51-1.65,4.88-3.21,6.84-5.06,3.21-3.08,4.36-5.44,4.36-6.62.32-21.58-3.01-40.63-10.18-58.27-5.53-13.74-15.42-24.67-30.25-33.45-4.79-2.81-9.59-5.66-14.37-8.5-8.31-4.93-16.91-10.04-25.39-14.88-1.46-.83-3.85-1.41-6.23-1.51-3.62-.11-7.58-.16-12.42-.16-2.76,0-5.53.02-8.33.03-2.87.02-5.77.03-8.73.03h-3v-12.9h549.1v13.4h-3c-1.97,0-3.91.04-5.83.08s-3.82.08-5.71.08c-2.81,0-5.13-.08-7.31-.26-2.01-.17-4-.26-5.93-.26-14.79,0-27.56,5.09-37.94,15.13-29.28,28.28-47.63,61.15-54.54,97.7-.1.51-.2,1.01-.29,1.52-.1.55-.21,1.1-.31,1.62-2,8.94-1.52,15.33,6.79,21.73,7.44,5.7,13.67,12.59,19.7,19.25,2.51,2.77,5.1,5.63,7.72,8.34.23.24.45.46.68.68,1.43,1.42,3.39,3.36,3.15,6.09-.16,1.75-1.2,3.29-3.09,4.59-1.55,1.08-3.19,1.64-4.85,1.64-2.54,0-4.95-1.27-7.35-3.88-2.95-3.05-6-6.15-9.04-9.25-5.98-6.09-12.17-12.39-18.05-18.75-12.68-13.54-28.38-20.41-46.65-20.41-6.99,0-14.34,1.03-21.87,3.07-33.89,9.19-58.87,28.21-74.25,56.54-1.19,2.15-1.84,5.05-1.84,8.17,0,7.86.45,15.94.89,23.75l.21,3.78v.23c.1,2.72.32,9.1-7.06,9.43-.18,0-.36.01-.54.01Zm61.21-141.41c-18.63,0-39.12,9.65-49.82,23.47-4.53,5.85-9.33,15.14-6.48,26.17.19.75.14,1.38.11,1.85,0,.1-.02.2-.02.3-.07,6.45-.09,13-.1,19.45,14.17-14.88,27.46-25.58,41.4-33.4,18.77-10.51,38.61-15.62,60.66-15.62,1.06,0,2.12.01,3.2.04-5.75-4.37-11.18-8.51-16.26-13.03-5.58-4.97-12.45-7.77-20.98-8.55-1.9-.2-3.74-.3-5.69-.41-.98-.06-1.96-.11-2.94-.18-.99-.06-2.04-.09-3.09-.09Zm-180.45,24.69c43.63,1.19,79.32,13.11,108.72,36.32.02-1.09.04-2.18.07-3.25.16-7.28.31-14.16-.51-20.8-.37-3.16-3.18-7.45-6.68-10.21-13.16-10.59-28.38-17.44-45.26-20.4-5.54-.98-10.31-1.45-14.58-1.45-8.71,0-15.99,2-22.26,6.11-6.14,3.97-12.13,8.33-18.48,12.95-.34.24-.67.49-1.01.74Zm306.99-113.4c-15.88,0-30.46,5.33-43.35,15.84-5.56,4.52-11.2,10.03-17.25,16.86-11.45,13.06-23.08,27.4-30.52,43.66-1.32,2.91-.91,4.42,1.72,6.49,3.28,2.54,6.52,5.22,9.65,7.8,1.59,1.31,3.19,2.63,4.79,3.93,7.84,6.28,15.69,12.62,24,19.33l2.82,2.27c3.71-22.9,10.92-43.64,21.98-63.25,10.1-17.91,23.44-34.86,41.69-52.9-.16,0-.32,0-.49,0-2.37.01-4.67.02-6.92.02s-4.63-.01-6.91-.04c-.41,0-.81-.01-1.21-.01Zm-393.45.66c6.3,3.76,12.33,7.38,18.3,11.11,25.28,15.76,40.08,36.89,43.98,62.8,1.47,9.99,2.79,19.74,4.19,30.06l.63,4.65c2.02-1.41,4.04-2.82,6.05-4.23,9.09-6.35,18.5-12.91,27.61-19.47l.09-.06c.31-.21.73-1,.77-1.62,1.62-22.94-2.84-42.12-13.62-58.65-9.92-15.3-23.72-23.45-41.02-24.24-6.88-.37-14.34-.54-23.52-.54-5.47,0-10.88.06-16.61.12-2.25.02-4.54.05-6.85.07Zm131.08,79.16c21.69.67,41.97,7.8,63.16,22.25-.02-.82-.04-1.63-.06-2.44-.15-6.04-.29-11.75.35-17.45,1.09-9.93-3.32-16.85-13.88-21.74-4.51-2.11-9.72-3.55-14.76-4.95-1.65-.46-3.3-.91-4.93-1.39-.5-.14-.98-.22-1.43-.22-.9,0-2.17.25-4.06,2.22-6.45,6.64-13.31,13.43-20.99,20.79-1.09,1.04-2.24,2.01-3.41,2.94Zm104.42-23.32c-.41,0-.82,0-1.23.01-13.93.46-22.54,7.02-23.58,17.98-.6,6.64-.47,13.41-.32,20.58.02,1.03.04,2.06.06,3.11,18-16.67,35.65-24.18,56.49-24.19-.88-.91-1.75-1.81-2.6-2.71-4.26-4.43-8.29-8.62-12.43-12.75-.42-.42-1.77-.98-3.21-1.14-4.09-.42-8.76-.89-13.18-.89Zm-151.68-56.3c24.91,19.45,31.67,45.52,34.17,71.59,7.95-7.18,15.33-14.44,22.19-21.3,0-.02.05-.16.07-.25-.19-.97-.36-1.89-.53-2.8-.65-3.5-1.26-6.8-2.5-9.93-5.89-14.53-17.41-25.87-28.98-35.94-.76-.69-2.16-1.29-3.15-1.36-3.13-.03-6.26-.04-9.39-.04s-6.32.01-9.49.02c-.8,0-1.59,0-2.39,0Zm247.16-.23c-3.91,0-7.82.01-11.75.04-26.25.19-47.54,16.04-51.78,38.55-1.55,8.26-.31,11.27.57,12.34,4.28,5.14,9.68,9.59,15.4,14.29,1.57,1.29,3.18,2.62,4.79,3.98,16.9-29.06,35.38-51.3,57.53-69.17-1.01,0-2.02,0-3.03,0-3.91-.01-7.82-.02-11.73-.02Zm-161.74,40.51c8.2,3.42,16.17,6.72,23.94,9.93-.06-12.89-.07-26.29-.07-39.47-2.7,3.34-5.4,6.68-8.08,9.99-5.48,6.78-10.7,13.23-15.78,19.55Zm40.06,9.85c7.11-4.8,15.45-7.25,25.67-7.58l-2.17-2.62c-7.95-9.61-15.73-19-23.5-28.39v38.6Zm11.06-49.92c10.2,13.91,20.53,25.79,31.98,36.77,2.25-14.24,9.97-26.17,23.8-36.77h-55.77Zm-91.46,0c10.07,11.04,19.47,21.73,24.29,35.73,10.07-12.2,19.66-23.8,29.53-35.73h-53.83Z"/><g class="cls-2"><path class="cls-5" d="m226.22,476.83l-11.36-69.94h10.81l6.66,42.57,1.71,9.89,1.71-9.89,11.18-42.57h10.44l12.58,42.57,2.2,9.89,1.4-9.89,6.72-42.57h8.98l-11.36,69.94h-10.87l-13.44-45.02-2.14-9.9h-.31l-1.95,9.83-11.6,45.08h-11.36Z"/><path class="cls-5" d="m358.45,472.19c-9.33,4.44-18.14,6.66-26.45,6.66-6.31,0-11.95-1.57-16.92-4.7-4.97-3.13-8.95-7.62-11.94-13.44-2.99-5.82-4.49-12.05-4.49-18.69s1.42-12.53,4.28-18.41c2.85-5.88,6.82-10.46,11.91-13.74,5.09-3.28,10.77-4.92,17.04-4.92,8.31,0,14.97,2.96,20,8.89,5.03,5.92,7.54,15.08,7.54,27.46v2.5h-48.25c0,4.85,1.02,9.26,3.05,13.25,2.04,3.99,4.7,6.99,8,9.01s7.04,3.02,11.24,3.02c7.53,0,15.86-2.5,24.98-7.51v10.63Zm-46.54-37.14h34.88v-1.71c0-5.7-1.4-10.24-4.21-13.62-2.81-3.38-6.54-5.07-11.18-5.07s-8.82,1.72-12.28,5.16c-3.46,3.44-5.86,8.52-7.21,15.24Z"/><path class="cls-5" d="m387.95,422.59c3.58-5.86,7.87-10.27,12.86-13.22,4.99-2.95,9.56-4.43,13.71-4.43,5.86,0,11.13,2.53,15.79,7.57,4.66,5.05,6.99,12.7,6.99,22.97,0,8.1-1.55,15.34-4.64,21.71-3.09,6.37-7.24,11.4-12.43,15.09-5.19,3.69-11.6,5.53-19.21,5.53-2.2,0-5.54-.22-10.02-.67-.69-.08-1.71-.18-3.05-.3h-11.61v-101.09h11.61v46.85Zm0,13.87v29.99c4.23,1.06,8.12,1.59,11.67,1.59,7.04,0,12.98-2.76,17.8-8.28s7.24-13.08,7.24-22.69c0-6.96-1.31-12.2-3.94-15.73-2.63-3.52-5.61-5.28-8.95-5.28-3.62,0-7.63,1.84-12,5.53s-8.32,8.64-11.82,14.87Z"/><path class="cls-5" d="m466.44,435.54v41.29h-12.64v-97.18h25.96c8.47,0,14.71.87,18.72,2.6,4.01,1.73,7.12,4.35,9.31,7.85,2.2,3.5,3.3,7.27,3.3,11.3,0,3.79-.73,7.57-2.2,11.36s-3.48,7.18-6.05,10.17c-2.57,2.99-6.27,5.83-11.12,8.52l28.16,45.38h-15.09l-25.71-41.29h-12.64Zm0-9.77h17.71c3.99-2.16,6.95-4.37,8.89-6.63,1.93-2.26,3.4-4.66,4.4-7.21s1.5-5.08,1.5-7.6c0-4.56-1.66-8.18-4.98-10.87-3.32-2.69-9.33-4.03-18.05-4.03h-9.47v36.34Z"/></g></svg>