<?xml version="1.0" encoding="utf-8"?>
<!-- Generator: Adobe Illustrator 26.5.0, SVG Export Plug-In . SVG Version: 6.00 Build 0)  -->
<svg version="1.1" id="Layer_1" xmlns="http://www.w3.org/2000/svg" xmlns:xlink="http://www.w3.org/1999/xlink" x="0px" y="0px"
	 viewBox="0 0 2521 2911" style="enable-background:new 0 0 2521 2911;" xml:space="preserve">
<style type="text/css">
	.st0{fill:#54BFD3;}
	.st1{fill:#FFFFFF;}
	.st2{fill:#134F85;}
	.st3{fill:none;stroke:#000000;stroke-width:14.027;stroke-miterlimit:10;}
	.st4{fill:#4AFD8D;}
	.st5{fill:#015590;}
</style>
<g>
	<polygon class="st0" points="2521,727.8 2521,2183.6 2421.2,2241.2 1456.1,2798.5 1260.8,2911 1065.6,2798.5 100.5,2241.2 
		0,2183.2 0,727.8 100.5,669.8 1053.6,119.4 1260.5,0 1467.4,119.4 2420.5,669.8 	"/>
	<g>
		<g>
			<path class="st1" d="M378.8,1660l-31.2-383.6L316.3,1660H236l-58-455.7h60l34.3,393.9l39.8-393.9h72l40.1,393.9l34.3-393.9H515
				L457,1660H378.8z"/>
			<path class="st1" d="M724.6,1624l-36,36H588.4l-36-36v-383.6l36-36h100.2l36,36V1624z M622,1253.4l-12,12v333.5l12,12H655l12-12
				v-333.2l-12-12H622V1253.4z"/>
			<path class="st1" d="M780.5,1204.3h133.1l36,36v189.4l-31.9,31.9l36,198.3h-55.6l-35.3-194.2h-24.7V1660h-57.6L780.5,1204.3
				L780.5,1204.3z M892,1407.1v-142.7l-12-12h-41.9v166.8H880L892,1407.1z"/>
			<path class="st1" d="M1065.6,1551.6V1660h-57.3v-455.7h57.6v242.6l68.3-242.6h58l-62.4,202.1l65.9,253.6h-60l-41.9-186.3
				L1065.6,1551.6z"/>
			<path class="st2" d="M1378.5,1253.4h-82.7v156.5h74.4v49.1h-74.4v200.7h-57.6v-455.3h140.3V1253.4z"/>
			<path class="st2" d="M1423.5,1660v-455.7h57.6v406.2h76.2v49.1h-133.8V1660z"/>
			<path class="st2" d="M1771,1624l-36,36h-100.2l-36-36v-383.6l36-36H1735l36,36V1624z M1668.8,1253.4l-12,12v333.5l12,12h32.9
				l12-12v-333.2l-12-12h-32.9V1253.4z"/>
			<path class="st2" d="M2009.8,1660l-31.2-383.6l-31.2,383.6h-80.3l-58-455.7h60l34.3,393.9l39.8-393.9h72l40.1,393.9l34.3-393.9
				h56.3l-58,455.7H2009.8z"/>
			<path class="st2" d="M2283.6,1264.4l-12-12h-20.9l-12,12v128.3l12,12h56.3l36,36v183.6l-36,36H2216l-36-36v-95.4h57.6v71.4l12,12
				h24l12-12v-134.2l-12-12h-56.3l-36-36v-177.4l36-36h87.8l36,36v95.7h-57.6V1264.4z"/>
		</g>
		<g>
			<g>
				<g>
					<path d="M473.5,1130.9c0.3-1,1-2.1,1.4-3.1c1-2.7-1.7,3.8-0.7,1.4c0.7-2.1,1.7-3.8,2.4-5.8c1.7-3.8,3.4-7.5,5.1-11.3
						c3.4-7.5,6.9-15.1,10.6-22.6c7.2-14.8,14.8-29.5,23-43.9c15.8-28.5,33.3-55.9,52.1-82.3c4.8-6.5,9.6-13.4,14.8-19.9
						c0.7-0.7,1-1.4,1.7-2.1c0.3-0.3,3.1-3.8,0.7-1c-2.1,2.4,0,0,0.3-0.7c0.7-1,1.4-1.7,2.1-2.7c2.4-3.1,5.1-6.5,7.5-9.6
						c10.3-12.7,20.9-25.4,31.9-37.4c22-24,45.3-47,69.6-68.6c13.7-12,27.8-23.7,42.2-35c2.1-1.7-3.4,2.4-1,0.7
						c1-0.7,2.1-1.7,3.4-2.4c1.7-1.4,3.8-2.7,5.5-4.1c3.8-2.7,7.2-5.5,11-8.2c7.5-5.5,15.4-11,23-16.1c9.3-6.2,14.1-18.9,7.5-29.2
						c-5.8-9.3-19.2-14.4-29.2-7.5c-56.3,38.1-108.4,82.3-154.7,132.1c-46,49.4-86.8,104.3-120.4,163c-19.6,34-36.7,69.3-51.5,105.3
						c-2.1,4.8-0.3,12.4,2.1,16.5c2.7,4.5,7.5,8.6,12.7,9.6c5.5,1.4,11.7,1,16.5-2.1C468.7,1140.5,471.4,1136.4,473.5,1130.9
						L473.5,1130.9z"/>
				</g>
			</g>
			<g>
				<g>
					<path d="M2115.5,1119.6c-26.4-63.5-59.4-123.5-99.2-179.4c-39.5-54.9-84.7-105.3-135.5-149.9c-29.2-25.7-60-49.4-91.9-71
						c-9.3-6.2-24-2.1-29.2,7.5c-5.8,10.6-2.1,22.3,7.5,29.2c13.7,9.3,27.1,18.9,40.1,28.8c0.7,0.7,1.4,1,2.1,1.7
						c3.1,2.1-0.7-0.7-1-0.7c1.7,1,3.4,2.7,4.8,3.8c3.4,2.7,6.9,5.5,10.3,8.2c6.5,5.1,12.7,10.3,18.9,15.8
						c24.7,20.9,48,43.6,70,67.3c11.3,12,22,24.4,32.6,37.1c5.1,6.2,10.3,12.7,15.4,19.2c1,1,3.1,3.1,3.4,4.5
						c-0.7-0.7-1-1.4-1.7-2.1c0.3,0.7,0.7,1,1.4,1.7c0.7,0.7,1,1.4,1.7,2.1c2.7,3.4,5.1,6.9,7.9,10.3c19.6,26.4,37.4,53.9,53.9,82
						c9.3,15.8,17.8,32.3,26.1,48.7c4.1,8.2,7.9,16.5,12,25c2.1,4.1,3.8,8.6,5.5,12.7c1,2.1,1.7,4.1,2.7,6.5
						c0.3,0.7,1.7,3.4,0.3,0.7c-1.4-3.4,0.7,2.1,1,2.7c2.1,5.5,4.5,9.6,9.6,12.7c4.5,2.7,11.3,3.8,16.5,2.1
						C2110.3,1142.6,2119.9,1130.6,2115.5,1119.6L2115.5,1119.6z"/>
				</g>
			</g>
			<g>
				<g>
					<path d="M432.6,1738.2c26.4,63.5,59.4,123.5,99.2,179.4c39.5,54.9,84.7,105.3,135.5,149.9c29.2,25.7,60,49.4,91.9,71
						c9.3,6.2,24,2.1,29.2-7.5c5.8-10.6,2.1-22.3-7.5-29.2c-13.7-9.3-27.1-18.9-40.1-28.8c-0.7-0.7-1.4-1-2.1-1.7
						c-3.1-2.1,0.7,0.7,1,0.7c-1.7-1-3.4-2.7-4.8-3.8c-3.4-2.7-6.9-5.5-10.3-8.2c-6.5-5.1-12.7-10.3-18.9-15.8
						c-24.7-20.9-48-43.6-70-67.3c-11.3-12-22-24.4-32.6-37.1c-5.1-6.2-10.3-12.7-15.4-19.2c-1-1-3.1-3.1-3.4-4.5
						c0.7,0.7,1,1.4,1.7,2.1c-0.3-0.7-0.7-1-1.4-1.7s-1-1.4-1.7-2.1c-2.7-3.4-5.1-6.9-7.9-10.3c-19.6-26.4-37.4-53.9-53.9-82
						c-9.3-15.8-17.8-32.3-26.1-48.7c-4.1-8.2-7.9-16.5-12-25c-2.1-4.1-3.8-8.6-5.5-12.7c-1-2.1-1.7-4.1-2.7-6.5
						c-0.3-0.7-1.7-3.4-0.3-0.7c1.4,3.4-0.7-2.1-1-2.7c-2.1-5.5-4.5-9.6-9.6-12.7c-4.5-2.7-11.3-3.8-16.5-2.1
						C437.4,1715.2,428.2,1727.2,432.6,1738.2L432.6,1738.2z"/>
				</g>
			</g>
			<g>
				<g>
					<path d="M2074.3,1726.9c-0.3,1-1,2.1-1.4,3.1c-1,2.7,1.7-3.8,0.7-1.4c-0.7,2.1-1.7,3.8-2.4,5.8c-1.7,3.8-3.4,7.5-5.1,11.3
						c-3.4,7.5-6.9,15.1-10.6,22.6c-7.2,14.8-14.8,29.5-23,43.9c-15.8,28.5-33.3,55.9-52.1,82.3c-4.8,6.5-9.6,13.4-14.8,19.9
						c-0.7,0.7-1,1.4-1.7,2.1c-0.3,0.3-3.1,3.8-0.7,1c2.1-2.4,0,0-0.3,0.7c-0.7,1-1.4,1.7-2.1,2.7c-2.4,3.1-5.1,6.5-7.5,9.6
						c-10.3,12.7-20.9,25.4-31.9,37.4c-22,24-45.3,47-69.6,68.6c-13.7,12-27.8,23.7-42.2,35c-2.1,1.7,3.4-2.4,1-0.7
						c-1,0.7-2.1,1.7-3.4,2.4c-1.7,1.4-3.8,2.7-5.5,4.1c-3.8,2.7-7.2,5.5-11,8.2c-7.5,5.5-15.4,11-23,16.1
						c-9.3,6.2-14.1,18.9-7.5,29.2c5.8,9.3,19.2,14.4,29.2,7.5c56.3-38.1,108.4-82.3,154.7-132.1c46-49.4,86.8-104.3,120.4-163
						c19.6-34,36.7-69.3,51.5-105.3c2.1-4.8,0.3-12.4-2.1-16.5c-2.7-4.5-7.5-8.6-12.7-9.6c-5.5-1.4-11.7-1-16.5,2.1
						C2079.1,1717.6,2076.7,1721.8,2074.3,1726.9L2074.3,1726.9z"/>
				</g>
			</g>
			<g>
				<g>
					<g>
						<line class="st3" x1="989.8" y1="2038.5" x2="1259.5" y2="1921.1"/>
						<g>
							<polygon points="1243.3,1954 1255.7,1922.8 1224.5,1910.5 1243,1902.6 1274.2,1914.9 1261.9,1946.2 							"/>
						</g>
					</g>
				</g>
				<g>
					<g>
						<line class="st3" x1="989.8" y1="2038.5" x2="1250.6" y2="2095.1"/>
						<g>
							<polygon points="1218.3,2112.2 1246.4,2094 1228.2,2065.9 1248.1,2070 1266.3,2098.5 1237.9,2116.7 							"/>
						</g>
					</g>
				</g>
				<g>
					<g>
						<line class="st3" x1="989.8" y1="2038.5" x2="1255.7" y2="2338.7"/>
						<g>
							<polygon points="1219.3,2333.5 1253,2335.6 1255,2302 1268.4,2317.1 1266.3,2350.7 1232.7,2348.6 							"/>
						</g>
					</g>
				</g>
				<g>
					<g>
						<g>
							<line class="st3" x1="989.8" y1="2262.2" x2="1258.8" y2="2345.9"/>
							<g>
								<polygon points="1225.2,2360.3 1255,2344.9 1239.2,2315 1258.4,2320.8 1274.2,2350.7 1244.4,2366.5 								"/>
							</g>
						</g>
					</g>
					<g>
						<g>
							<line class="st3" x1="989.8" y1="2262.2" x2="1250.9" y2="2172.3"/>
							<g>
								<polygon points="1232.4,2203.8 1247.1,2173.6 1216.9,2158.9 1235.8,2152.4 1266.3,2167.1 1251.6,2197.3 								"/>
							</g>
						</g>
					</g>
					<g>
						<g>
							<line class="st3" x1="989.8" y1="2262.2" x2="1256" y2="1927.3"/>
							<g>
								<polygon points="1257.4,1964 1253.6,1930.7 1220.4,1934.5 1232.7,1918.7 1266.3,1914.9 1270.1,1948.2 								"/>
							</g>
						</g>
					</g>
				</g>
				<g>
					<g>
						<line class="st3" x1="1389.5" y1="1908.1" x2="1579.9" y2="2076.5"/>
						<g>
							<polygon points="1543.2,2075.9 1576.8,2073.8 1574.8,2040.2 1589.9,2053.9 1591.9,2087.2 1558.3,2089.2 							"/>
						</g>
					</g>
				</g>
				<g>
					<g>
						<line class="st3" x1="1389.5" y1="2125.3" x2="1570.7" y2="2125.3"/>
						<g>
							<polygon points="1542.5,2148.9 1566.2,2125.3 1542.5,2101.2 1562.8,2101.2 1586.4,2125.3 1562.8,2148.9 							"/>
						</g>
					</g>
				</g>
				<g>
					<g>
						<line class="st3" x1="1389.5" y1="2350.7" x2="1579.9" y2="2182.2"/>
						<g>
							<polygon points="1574.8,2218.2 1576.8,2185 1543.2,2182.9 1558.3,2169.5 1591.9,2171.6 1589.9,2204.9 							"/>
						</g>
					</g>
				</g>
				<g>
					<g>
						<ellipse class="st1" cx="919.5" cy="2038.5" rx="32.6" ry="32.6"/>
						<g>
							<path class="st1" d="M935.3,2038.5c0,1,0,1.7,0,2.7c0,2.7,0.3-1.7,0.3-1.7c0.3,1-0.7,3.1-1,4.1c-0.3,0.7-0.3,1.7-1,2.4
								c0,0,2.1-4.1,0.7-1.7c-0.7,1.4-1.7,3.1-2.7,4.5c-1.7,2.7,2.4-2.4,0.7-1c-0.7,0.3-1,1-1.4,1.7c-0.3,0.3-0.7,0.7-1.4,1
								c-1,1-3.1,1.7,0.7-0.3c-1.4,0.7-2.4,1.7-3.4,2.4c-0.3,0.3-1,0.7-1.4,0.7c-2.7,1.4,4.1-1.4,0.3-0.3c-1.4,0.3-2.7,1-4.1,1
								c-1.7,0.3-2.7-0.3,1.4,0c-0.7,0-1.4,0-2.4,0c-1.4,0-3.1,0-4.5,0c-2.4,0,4.5,1,1.4,0c-1-0.3-1.7-0.3-2.4-0.7
								c-0.7-0.3-1.7-0.7-2.4-0.7c-1.4-0.3-1.4-1.4,1.7,0.7c-1-0.7-2.4-1.4-3.8-2.1c-0.7-0.3-1-0.7-1.7-1c-1.7-1,3.4,3.1,1,0.7
								c-1-1-2.4-2.7-3.4-3.8c2.4,2.1,2.1,2.7,1,1.4c-0.3-0.7-1-1.4-1.4-2.1c-0.3-0.3-0.7-1-0.7-1.4c-0.7-1.4-0.7-3.4,0.3,1
								c-0.3-1.4-1-2.7-1.4-4.1c0-0.7-0.3-1-0.3-1.7c-0.7-3.1,0.3,4.5,0,0.3c0-1.4,0-2.7,0-4.1c0-1.7,1-3.8-0.3,1
								c0-0.7,0.3-1,0.3-1.7c0.3-1.4,0.7-2.7,1.4-4.1c1-3.1-2.1,3.8-0.3,0.7c0.3-0.7,0.7-1.4,1.4-2.4c0.3-0.7,0.7-1,1-1.7
								c1-1.4,2.1-1.4-0.7,1c1-0.7,2.1-2.1,3.1-3.1c0.3-0.3,2.7-2.1,0.3-0.3c-2.4,1.7,0,0,0.3-0.3c1-0.7,3.1-2.4,4.5-2.4
								c0,0-4.1,1.4-1.7,0.7c0.7-0.3,1.7-0.7,2.4-0.7c1-0.3,5.1-1,2.1-0.7c-3.4,0.3,1.7,0,2.7,0c0.7,0,1.4,0,2.4,0
								c3.4,0-3.8-0.7-1,0c1.7,0.3,3.4,1,5.1,1.4c3.1,1-3.1-1.7-1.4-0.3c0.7,0.7,1.7,1,2.7,1.4c0.3,0.3,1,0.7,1.4,1
								c3.8,2.4-2.1-2.1,0,0c1,1,2.1,2.1,3.1,3.1c2.4,2.4-2.4-3.4-0.7-0.7c0.3,0.7,1,1.4,1.4,2.1c0.3,0.7,0.7,1.4,1.4,2.4
								c1.4,2.4-1.4-3.8-0.3-0.7c0.7,1.7,1,3.4,1.4,5.1c0.3,1.4-0.3,2.1-0.3-1.7C934.9,2036.1,935.3,2037.1,935.3,2038.5
								c0,8.9,7.5,17.2,16.8,16.8c8.9-0.3,16.8-7.2,16.8-16.8c-0.3-21.3-13.4-39.1-33.3-46.7c-18.2-6.9-40.8-0.7-53.5,14.1
								c-13.4,16.1-16.5,39.1-5.1,57.6c11,18.5,31.9,26.8,52.8,23c22.6-4.1,38.8-25.7,39.1-48.4c0-8.9-7.9-17.2-16.8-16.8
								C942.8,2022,935.3,2028.8,935.3,2038.5z"/>
						</g>
					</g>
					<g>
						<ellipse class="st1" cx="919.5" cy="2261.1" rx="32.6" ry="32.6"/>
						<g>
							<path class="st1" d="M935.3,2261.1c0,1,0,1.7,0,2.7c0,2.7,0.3-1.7,0.3-1.7c0.3,1-0.7,3.1-1,4.1c-0.3,0.7-0.3,1.7-1,2.4
								c0,0,2.1-4.1,0.7-1.7c-0.7,1.4-1.7,3.1-2.7,4.5c-1.7,2.7,2.4-2.4,0.7-1c-0.7,0.3-1,1-1.4,1.7c-0.3,0.3-0.7,0.7-1.4,1
								c-1,1-3.1,1.7,0.7-0.3c-1.4,0.7-2.4,1.7-3.4,2.4c-0.3,0.3-1,0.7-1.4,0.7c-2.7,1.4,4.1-1.4,0.3-0.3c-1.4,0.3-2.7,1-4.1,1
								c-1.7,0.3-2.7-0.3,1.4,0c-0.7,0-1.4,0-2.4,0c-1.4,0-3.1,0-4.5,0c-2.4,0,4.5,1,1.4,0c-1-0.3-1.7-0.3-2.4-0.7
								c-0.7-0.3-1.7-0.7-2.4-0.7c-1.4-0.3-1.4-1.4,1.7,0.7c-1-0.7-2.4-1.4-3.8-2.1c-0.7-0.3-1-0.7-1.7-1c-1.7-1,3.4,3.1,1,0.7
								c-1-1-2.4-2.7-3.4-3.8c2.4,2.1,2.1,2.7,1,1.4c-0.3-0.7-1-1.4-1.4-2.1c-0.3-0.3-0.7-1-0.7-1.4c-0.7-1.4-0.7-3.4,0.3,1
								c-0.3-1.4-1-2.7-1.4-4.1c0-0.7-0.3-1-0.3-1.7c-0.7-3.1,0.3,4.5,0,0.3c0-1.4,0-2.7,0-4.1c0-1.7,1-3.8-0.3,1
								c0-0.7,0.3-1,0.3-1.7c0.3-1.4,0.7-2.7,1.4-4.1c1-3.1-2.1,3.8-0.3,0.7c0.3-0.7,0.7-1.4,1.4-2.4c0.3-0.7,0.7-1,1-1.7
								c1-1.4,2.1-1.4-0.7,1c1-0.7,2.1-2.1,3.1-3.1c0.3-0.3,2.7-2.1,0.3-0.3c-2.4,1.7,0,0,0.3-0.3c1-0.7,3.1-2.4,4.5-2.4
								c0,0-4.1,1.4-1.7,0.7c0.7-0.3,1.7-0.7,2.4-0.7c1-0.3,5.1-1,2.1-0.7c-3.4,0.3,1.7,0,2.7,0c0.7,0,1.4,0,2.4,0
								c3.4,0-3.8-0.7-1,0c1.7,0.3,3.4,1,5.1,1.4c3.1,1-3.1-1.7-1.4-0.3c0.7,0.7,1.7,1,2.7,1.4c0.3,0.3,1,0.7,1.4,1
								c3.8,2.4-2.1-2.1,0,0c1,1,2.1,2.1,3.1,3.1c2.4,2.4-2.4-3.4-0.7-0.7c0.3,0.7,1,1.4,1.4,2.1c0.3,0.7,0.7,1.4,1.4,2.4
								c1.4,2.4-1.4-3.8-0.3-0.7c0.7,1.7,1,3.4,1.4,5.1c0.3,1.4-0.3,2.1-0.3-1.7C934.9,2258.7,935.3,2259.8,935.3,2261.1
								c0,8.9,7.5,17.2,16.8,16.8c8.9-0.3,16.8-7.2,16.8-16.8c-0.3-21.3-13.4-39.1-33.3-46.7c-18.2-6.9-40.8-0.7-53.5,14.1
								c-13.4,16.1-16.5,39.1-5.1,57.6c11,18.5,31.9,26.8,52.8,23c22.6-4.1,38.8-25.7,39.1-48.4c0-8.9-7.9-17.2-16.8-16.8
								C942.8,2244.7,935.3,2251.5,935.3,2261.1z"/>
						</g>
					</g>
					<g>
						<ellipse class="st4" cx="1331.9" cy="1903.6" rx="32.6" ry="32.6"/>
						<g>
							<path class="st4" d="M1282.5,1903.6c0.3,21.3,13.4,39.1,33.3,46.7c18.2,6.9,40.8,0.7,53.5-14.1c13.4-16.1,16.5-39.1,5.1-57.6
								c-11-18.5-31.9-26.8-52.8-23C1298.9,1859.3,1282.8,1881,1282.5,1903.6c0,8.9,7.9,17.2,16.8,16.8c9.3-0.3,16.8-7.2,16.8-16.8
								c0-1,0-1.7,0-2.7c0-2.7-0.3,1.7-0.3,1.7c-0.3-1,0.7-3.1,1-4.1c0.3-0.7,0.3-1.7,1-2.4c0,0-2.1,4.1-0.7,1.7
								c0.7-1.4,1.7-3.1,2.7-4.5c1.7-2.7-2.4,2.4-0.7,1c0.7-0.3,1-1,1.4-1.7c0.3-0.3,0.7-0.7,1.4-1c1-1,3.1-1.7-0.7,0.3
								c1.4-0.7,2.4-1.7,3.4-2.4c0.3-0.3,1-0.7,1.4-0.7c2.7-1.4-4.1,1.4-0.3,0.3c1.4-0.3,2.7-1,4.1-1c1.7-0.3,2.7,0.3-1.4,0
								c0.7,0,1.4,0,2.4,0c1.4,0,3.1,0,4.5,0c2.4,0-4.5-1-1.4,0c1,0.3,1.7,0.3,2.4,0.7c0.7,0.3,1.7,0.7,2.4,0.7
								c1.4,0.3,1.4,1.4-1.7-0.7c1,0.7,2.4,1.4,3.8,2.1c0.7,0.3,1,0.7,1.7,1c1.7,1-3.4-3.1-1-0.7c1,1,2.4,2.7,3.4,3.8
								c-2.4-2.1-2.1-2.7-1-1.4c0.3,0.7,1,1.4,1.4,2.1c0.3,0.3,0.7,1,0.7,1.4c0.7,1.4,0.7,3.4-0.3-1c0.3,1.4,1,2.7,1.4,4.1
								c0,0.7,0.3,1,0.3,1.7c0.7,3.1-0.3-4.5,0-0.3c0,1.4,0,2.7,0,4.1c0,1.7-1,3.8,0.3-1c0,0.7-0.3,1-0.3,1.7
								c-0.3,1.4-0.7,2.7-1.4,4.1c-1,3.1,2.1-3.8,0.3-0.7c-0.3,0.7-0.7,1.4-1.4,2.4c-0.3,0.7-0.7,1-1,1.7c-1,1.4-2.1,1.4,0.7-1
								c-1,0.7-2.1,2.1-3.1,3.1c-0.3,0.3-2.7,2.1-0.3,0.3c2.4-1.7,0,0-0.3,0.3c-1,0.7-3.1,2.4-4.5,2.4c0,0,4.1-1.4,1.7-0.7
								c-0.7,0.3-1.7,0.7-2.4,0.7c-1,0.3-5.1,1-2.1,0.7c3.4-0.3-1.7,0-2.7,0c-0.7,0-1.4,0-2.4,0c-3.4,0,3.8,0.7,1,0
								c-1.7-0.3-3.4-1-5.1-1.4c-3.1-1,3.1,1.7,1.4,0.3c-0.7-0.7-1.7-1-2.7-1.4c-0.3-0.3-1-0.7-1.4-1c-3.8-2.4,2.1,2.1,0,0
								c-1-1-2.1-2.1-3.1-3.1c-2.4-2.4,2.4,3.4,0.7,0.7c-0.3-0.7-1-1.4-1.4-2.1c-0.3-0.7-0.7-1.4-1.4-2.4c-1.4-2.4,1.4,3.8,0.3,0.7
								c-0.7-1.7-1-3.4-1.4-5.1c-0.3-1.4,0.3-2.1,0.3,1.7c0-1-0.3-2.4-0.3-3.8c0-8.9-7.5-17.2-16.8-16.8
								C1290.3,1887.1,1282.5,1894.3,1282.5,1903.6z"/>
						</g>
					</g>
					<g>
						<ellipse class="st4" cx="1331.9" cy="2363" rx="32.6" ry="32.6"/>
						<g>
							<path class="st4" d="M1309.6,2319.1c-17.2,8.2-28.8,28.5-26.8,47.4c1,11.3,5.1,20.9,12.7,29.9c6.2,7.2,15.1,12.4,24.4,14.8
								c20.6,5.1,41.9-3.4,53.9-21.3c11-16.1,10.6-39.5-1-54.9c-6.9-9.3-16.5-16.5-27.8-19.6
								C1332.5,2312.3,1320.9,2314,1309.6,2319.1c-3.4,1.7-6.9,6.5-7.5,10c-1,4.1-0.7,9.3,1.7,13c2.4,3.4,5.8,6.9,9.9,7.5
								c4.8,1,8.6,0.3,13-1.7c2.7-1.4-4.1,1.4-1,0.3c0.7-0.3,1.4-0.3,2.1-0.7c1.4-0.3,2.7-0.7,4.1-1c-1.4,0.3-3.1,0.3-4.5,0.7
								c2.7-0.3,5.8-0.3,8.6,0c-1.4-0.3-3.1-0.3-4.5-0.7c1.7,0.3,3.4,0.7,4.8,1c0.7,0.3,1.4,0.3,2.1,0.7c3.1,1-2.7-1.4-1-0.3
								c1.4,1,3.1,1.4,4.5,2.4s2.4,2.7-1-0.7c0.7,0.7,1,1,1.7,1.7c1.4,1.4,4.1,5.5,1,0.7c1,1.4,1.7,2.7,2.7,4.1
								c0.3,0.7,0.7,1.4,1,2.4c-2.4-4.1-1-2.4-0.7-1c0.7,1.7,1,3.4,1.4,5.5c-0.3-1.4-0.3-3.1-0.7-4.5c0.3,2.7,0.3,5.8,0,8.6
								c0.3-1.4,0.3-3.1,0.7-4.5c-0.3,1.7-0.7,3.4-1,4.8c-0.3,0.7-0.3,1.4-0.7,2.1c-1,3.1,1.4-2.7,0.3-1c-1,1.4-1.4,3.1-2.4,4.5
								c-1,1.4-2.7,2.4,0.7-1c-0.7,0.7-1,1-1.7,1.7c-1.4,1.4-5.5,4.1-0.7,1c-1.4,1-2.7,1.7-4.1,2.7c-0.7,0.3-1.4,0.7-2.4,1
								c4.1-2.4,2.4-1,1-0.7c-1.7,0.7-3.4,1-5.5,1.4c1.4-0.3,3.1-0.3,4.5-0.7c-2.7,0.3-5.8,0.3-8.6,0c1.4,0.3,3.1,0.3,4.5,0.7
								c-1.7-0.3-3.4-0.7-4.8-1c-0.7-0.3-1.4-0.3-2.1-0.7c-3.1-1,2.7,1.4,1,0.3c-1.4-1-3.1-1.4-4.5-2.4s-2.4-2.7,1,0.7
								c-0.7-0.7-1-1-1.7-1.7c-1.4-1.4-4.1-5.5-1-0.7c-1-1.4-1.7-2.7-2.7-4.1c-0.3-0.7-0.7-1.4-1-2.4c2.4,4.1,1,2.4,0.7,1
								c-0.7-1.7-1-3.4-1.4-5.5c0.3,1.4,0.3,3.1,0.7,4.5c-0.3-2.7-0.3-5.8,0-8.6c-0.3,1.4-0.3,3.1-0.7,4.5c0.3-2.7,1-5.1,1.7-7.5
								c0.7-2.4-0.7,1.7-0.7,1.7c0-0.3,0.7-1.4,0.7-1.7c0.7-1,1.4-2.1,2.1-3.4c0.7-1.4,2.1-1.7-1,1.4c0.3-0.3,0.7-0.7,1-1
								c1-1,1.7-1.7,2.7-2.7c2.1-1.7-2.7,2.1-1.4,1c0.7-0.3,1-0.7,1.7-1c1-0.7,2.4-1.4,3.4-2.1c7.9-3.8,10.6-15.8,6.2-23
								C1327.4,2317.1,1318.1,2315,1309.6,2319.1z"/>
						</g>
					</g>
					<g>
						<g>
							<ellipse class="st4" cx="1331.9" cy="2131.1" rx="32.6" ry="32.6"/>
							<g>
								<path class="st4" d="M1347.6,2131.1c0,1,0,1.7,0,2.7c0,2.7,0.3-1.7,0.3-1.7c0.3,1-0.7,3.1-1,4.1c-0.3,0.7-0.3,1.7-1,2.4
									c0,0,2.1-4.1,0.7-1.7c-0.7,1.4-1.7,3.1-2.7,4.5c-1.7,2.7,2.4-2.4,0.7-1c-0.7,0.3-1,1-1.4,1.7c-0.3,0.3-0.7,0.7-1.4,1
									c-1,1-3.1,1.7,0.7-0.3c-1.4,0.7-2.4,1.7-3.4,2.4c-0.3,0.3-1,0.7-1.4,0.7c-2.7,1.4,4.1-1.4,0.3-0.3c-1.4,0.3-2.7,1-4.1,1
									c-1.7,0.3-2.7-0.3,1.4,0c-0.7,0-1.4,0-2.4,0c-1.4,0-3.1,0-4.5,0c-2.4,0,4.5,1,1.4,0c-1-0.3-1.7-0.3-2.4-0.7
									c-0.7-0.3-1.7-0.7-2.4-0.7c-1.4-0.3-1.4-1.4,1.7,0.7c-1-0.7-2.4-1.4-3.8-2.1c-0.7-0.3-1-0.7-1.7-1c-1.7-1,3.4,3.1,1,0.7
									c-1-1-2.4-2.7-3.4-3.8c2.4,2.1,2.1,2.7,1,1.4c-0.3-0.7-1-1.4-1.4-2.1c-0.3-0.3-0.7-1-0.7-1.4c-0.7-1.4-0.7-3.4,0.3,1
									c-0.3-1.4-1-2.7-1.4-4.1c0-0.7-0.3-1-0.3-1.7c-0.7-3.1,0.3,4.5,0,0.3c0-1.4,0-2.7,0-4.1c0-1.7,1-3.8-0.3,1
									c0-0.7,0.3-1,0.3-1.7c0.3-1.4,0.7-2.7,1.4-4.1c1-3.1-2.1,3.8-0.3,0.7c0.3-0.7,0.7-1.4,1.4-2.4c0.3-0.7,0.7-1,1-1.7
									c1-1.4,2.1-1.4-0.7,1c1-0.7,2.1-2.1,3.1-3.1c0.3-0.3,2.7-2.1,0.3-0.3s0,0,0.3-0.3c1-0.7,3.1-2.4,4.5-2.4
									c0,0-4.1,1.4-1.7,0.7c0.7-0.3,1.7-0.7,2.4-0.7c1-0.3,5.1-1,2.1-0.7c-3.4,0.3,1.7,0,2.7,0c0.7,0,1.4,0,2.4,0
									c3.4,0-3.8-0.7-1,0c1.7,0.3,3.4,1,5.1,1.4c3.1,1-3.1-1.7-1.4-0.3c0.7,0.7,1.7,1,2.7,1.4c0.3,0.3,1,0.7,1.4,1
									c3.8,2.4-2.1-2.1,0,0c1,1,2.1,2.1,3.1,3.1c2.4,2.4-2.4-3.4-0.7-0.7c0.3,0.7,1,1.4,1.4,2.1c0.3,0.7,0.7,1.4,1.4,2.4
									c1.4,2.4-1.4-3.8-0.3-0.7c0.7,1.7,1,3.4,1.4,5.1c0.3,1.4-0.3,2.1-0.3-1.7C1347.6,2128.7,1347.6,2129.7,1347.6,2131.1
									c0,8.9,7.5,17.2,16.8,16.8c8.9-0.3,16.8-7.2,16.8-16.8c-0.3-21.3-13.4-39.1-33.3-46.7c-18.2-6.9-40.8-0.7-53.5,14.1
									c-13.4,16.1-16.5,39.1-5.1,57.6c11,18.5,31.9,26.8,52.8,23c22.6-4.1,38.8-25.7,39.1-48.4c0-8.9-7.9-17.2-16.8-16.8
									C1355.2,2114.6,1348,2121.8,1347.6,2131.1z"/>
							</g>
						</g>
					</g>
					<g>
						<g>
							<ellipse class="st5" cx="1644.8" cy="2131.1" rx="32.6" ry="32.6"/>
							<g>
								<path class="st5" d="M1660.5,2131.1c0,1,0,1.7,0,2.7c0,2.7,0.3-1.7,0.3-1.7c0.3,1-0.7,3.1-1,4.1c-0.3,0.7-0.3,1.7-1,2.4
									c0,0,2.1-4.1,0.7-1.7c-0.7,1.4-1.7,3.1-2.7,4.5c-1.7,2.7,2.4-2.4,0.7-1c-0.7,0.3-1,1-1.4,1.7c-0.3,0.3-0.7,0.7-1.4,1
									c-1,1-3.1,1.7,0.7-0.3c-1.4,0.7-2.4,1.7-3.4,2.4c-0.3,0.3-1,0.7-1.4,0.7c-2.7,1.4,4.1-1.4,0.3-0.3c-1.4,0.3-2.7,1-4.1,1
									c-1.7,0.3-2.7-0.3,1.4,0c-0.7,0-1.4,0-2.4,0c-1.4,0-3.1,0-4.5,0c-2.4,0,4.5,1,1.4,0c-1-0.3-1.7-0.3-2.4-0.7
									c-0.7-0.3-1.7-0.7-2.4-0.7c-1.4-0.3-1.4-1.4,1.7,0.7c-1-0.7-2.4-1.4-3.8-2.1c-0.7-0.3-1-0.7-1.7-1c-1.7-1,3.4,3.1,1,0.7
									c-1-1-2.4-2.7-3.4-3.8c2.4,2.1,2.1,2.7,1,1.4c-0.3-0.7-1-1.4-1.4-2.1c-0.3-0.3-0.7-1-0.7-1.4c-0.7-1.4-0.7-3.4,0.3,1
									c-0.3-1.4-1-2.7-1.4-4.1c0-0.7-0.3-1-0.3-1.7c-0.7-3.1,0.3,4.5,0,0.3c0-1.4,0-2.7,0-4.1c0-1.7,1-3.8-0.3,1
									c0-0.7,0.3-1,0.3-1.7c0.3-1.4,0.7-2.7,1.4-4.1c1-3.1-2.1,3.8-0.3,0.7c0.3-0.7,0.7-1.4,1.4-2.4c0.3-0.7,0.7-1,1-1.7
									c1-1.4,2.1-1.4-0.7,1c1-0.7,2.1-2.1,3.1-3.1c0.3-0.3,2.7-2.1,0.3-0.3c-2.4,1.7,0,0,0.3-0.3c1-0.7,3.1-2.4,4.5-2.4
									c0,0-4.1,1.4-1.7,0.7c0.7-0.3,1.7-0.7,2.4-0.7c1-0.3,5.1-1,2.1-0.7c-3.4,0.3,1.7,0,2.7,0c0.7,0,1.4,0,2.4,0
									c3.4,0-3.8-0.7-1,0c1.7,0.3,3.4,1,5.1,1.4c3.1,1-3.1-1.7-1.4-0.3c0.7,0.7,1.7,1,2.7,1.4c0.3,0.3,1,0.7,1.4,1
									c3.8,2.4-2.1-2.1,0,0c1,1,2.1,2.1,3.1,3.1c2.4,2.4-2.4-3.4-0.7-0.7c0.3,0.7,1,1.4,1.4,2.1c0.3,0.7,0.7,1.4,1.4,2.4
									c1.4,2.4-1.4-3.8-0.3-0.7c0.7,1.7,1,3.4,1.4,5.1c0.3,1.4-0.3,2.1-0.3-1.7C1660.5,2128.7,1660.5,2129.7,1660.5,2131.1
									c0,8.9,7.5,17.2,16.8,16.8c8.9-0.3,16.8-7.2,16.8-16.8c-0.3-21.3-13.4-39.1-33.3-46.7c-18.2-6.9-40.8-0.7-53.5,14.1
									c-13.4,16.1-16.5,39.1-5.1,57.6c11,18.5,31.9,26.8,52.8,23c22.6-4.1,38.8-25.7,39.1-48.4c0-8.9-7.9-17.2-16.8-16.8
									C1668.1,2114.6,1660.9,2121.8,1660.5,2131.1z"/>
							</g>
						</g>
					</g>
				</g>
			</g>
			<g>
				<path class="st1" d="M892,588.8c1.7-11,4.5-21.3,8.9-31.2c4.1-9.6,11.3-17.8,21.6-23.7c11-6.9,22.3-10.6,34-10.6
					s22.6,2.4,32.6,7.5c9.9,5.1,18.2,12.7,24.7,22.3c6.5,9.6,10.3,20.9,11,33.6c0.7,11-1.7,21.3-6.5,30.9
					c-4.8,9.6-11.7,17.5-19.9,24c-8.6,6.5-17.8,11-28.5,13.4c-10.6,2.4-20.9,2.1-31.6-1.4c-14.4-4.5-25-12.7-31.9-24
					c-6.9-11.3-11.3-24-13.7-38.1L892,588.8z M1105.4,529.4c5.5-5.5,11-8.2,16.5-8.6c5.8-0.3,11,1,15.1,4.1
					c4.5,3.1,7.5,7.5,9.3,13.4c1.7,5.8,1.4,12-1.7,18.5c-1,2.4-2.4,4.5-4.1,6.5c-1.7,1.7-3.1,3.8-4.8,6.2c-4.1,6.2-7.9,11.3-11,15.4
					c-3.1,4.1-5.8,8.2-8.6,12c-2.7,3.8-5.8,8.2-8.9,12.7c-3.1,4.5-6.9,10.3-11.7,17.2c-16.8,24.4-33.6,48.4-50.1,72.4
					c-16.5,24-33.3,48-50.1,72.1c-3.4,5.1-6.9,10-10.3,15.1c-3.4,4.8-6.9,10-10.6,14.8c-2.7,3.8-5.5,7.5-8.6,11.7
					c-3.1,4.1-6.2,7.2-9.9,10c-3.4,2.7-7.5,4.5-11.7,5.1c-4.1,0.7-8.9-0.3-14.1-3.1c-6.5-3.8-10.6-8.2-11.3-13.4
					c-1-5.1-0.3-10.6,2.1-16.1c2.4-5.5,5.5-11,9.3-16.1s7.2-9.6,9.9-13.4c3.8-5.5,7.5-10.6,11.3-16.1c3.8-5.5,7.5-11,11.3-16.1
					c23.7-34.3,47.3-68.3,70.7-101.9C1057.4,597.4,1081.1,563.4,1105.4,529.4z M947.6,568.5c-3.4,1.7-6.2,4.1-7.9,7.9
					c-1.7,3.8-3.1,7.5-4.1,11.3c1.7,7.9,4.8,14.1,9.3,17.8c4.5,3.8,9.3,5.8,14.1,5.5c4.8,0,9.3-2.1,13.4-6.2
					c4.1-4.1,6.2-9.6,6.5-17.2c0-3.8-1-7.2-3.1-10.3c-2.1-3.1-4.5-5.5-7.9-7.2c-3.1-1.7-6.5-2.7-10.3-3.4
					C954.1,566.5,950.7,566.8,947.6,568.5z M1044.4,761.7c1.4-8.9,3.4-18.2,6.5-26.8c3.1-8.9,8.6-16.1,16.5-22
					c11-7.9,22.6-12.7,34.7-14.1c12-1.4,23.7,0.3,34,4.5c10.6,4.5,19.6,11.3,26.8,20.9c7.2,9.6,11.3,21.3,12,35.3
					c0.7,12-1.7,23-7.2,32.6c-5.5,9.6-12.4,17.5-21.6,23.3c-8.9,6.2-18.9,9.6-30.2,11.3c-11,1.4-22,0-32.6-4.1
					c-12-4.8-21.3-12.7-27.1-23.7c-6.2-11-9.9-22.3-11.7-34.3V761.7z M1094.4,748.7c-2.1,4.1-3.8,8.2-4.5,12.4
					c-0.7,4.1,0.3,8.2,3.1,12c1.7,4.1,4.5,6.9,8.2,8.6c3.4,1.7,7.2,2.4,11,2.4s7.2-1.4,10.6-3.8c3.4-2.4,5.5-5.8,6.5-10
					c1.7-5.8,1.4-11-0.7-15.8c-2.1-4.5-4.8-7.9-8.9-10.3c-3.8-2.4-8.2-3.1-13-2.7C1102.3,742.2,1097.9,744.6,1094.4,748.7z"/>
				<path class="st4" d="M1224.1,731.2c12-8.9,24-17.8,35.3-26.8c11.7-8.9,23.3-17.8,35.3-26.4c-7.2-5.8-14.4-11.7-21.6-17.2
					c-7.2-5.5-14.4-11.3-22-16.8c-1.7-1.4-4.1-3.1-6.9-4.8s-5.8-3.8-8.6-6.2c-3.1-2.4-5.8-4.5-8.6-6.9c-2.7-2.4-4.8-4.8-6.2-7.5
					c-2.4-4.5-3.4-9.3-3.1-14.1s1.4-9.3,3.8-13s5.5-6.9,9.9-8.9c4.1-2.1,9.3-2.4,14.8-1c4.8,1,9.3,3.4,13.7,6.9
					c4.1,3.8,8.2,6.9,12,10c6.2,4.8,12.4,9.6,18.5,14.4c6.2,4.8,12.4,9.6,18.5,14.8c4.1,3.1,6.9,5.5,8.6,6.9
					c1.7,1.4,3.4,2.7,4.8,3.8s3.4,2.7,5.5,4.1c2.1,1.7,5.5,4.1,9.6,7.5c5.1,3.8,9.6,7.5,13.7,11c4.1,3.8,6.9,8.6,8.2,15.1
					c0.7,4.5,0,8.9-2.1,12.7c-2.1,3.8-4.8,7.2-8.2,10.3c-3.4,3.1-6.9,5.8-11,8.2c-4.1,2.4-7.2,4.8-9.9,6.9
					c-9.3,6.9-18.5,13.7-27.8,20.9c-8.9,6.9-18.2,13.7-27.8,20.9c-4.1,3.1-7.9,6.2-12,9.3c-4.1,3.4-8.6,5.8-13.4,6.9
					c-6.9,1.7-12.4,1.7-17.2,0c-4.8-1.7-8.6-4.8-11-8.9c-2.4-4.1-3.4-8.9-3.1-14.1c0.3-5.5,2.1-11,5.5-16.1L1224.1,731.2z"/>
				<path class="st1" d="M1378.5,588.8c1.7-11,4.5-21.3,8.9-31.2c4.1-9.6,11.3-17.8,21.6-23.7c11-6.9,22.3-10.6,34-10.6
					s22.6,2.4,32.6,7.5c9.9,5.1,18.2,12.7,24.7,22.3s10.3,20.9,11,33.6c0.7,11-1.7,21.3-6.5,30.9c-4.8,9.6-11.7,17.5-19.9,24
					c-8.6,6.5-17.8,11-28.5,13.4s-20.9,2.1-31.6-1.4c-14.4-4.5-25-12.7-31.9-24c-6.9-11.3-11.3-24-13.7-38.1L1378.5,588.8z
					 M1591.9,529.4c5.5-5.5,11-8.2,16.5-8.6c5.8-0.3,11,1,15.1,4.1c4.5,3.1,7.5,7.5,9.3,13.4c1.7,5.8,1.4,12-1.7,18.5
					c-1,2.4-2.4,4.5-4.1,6.5c-1.7,1.7-3.1,3.8-4.8,6.2c-4.1,6.2-7.9,11.3-11,15.4s-5.8,8.2-8.6,12c-2.7,3.8-5.8,8.2-8.9,12.7
					c-3.1,4.5-6.9,10.3-11.7,17.2c-16.8,24.4-33.6,48.4-50.1,72.4c-16.5,24-33.3,48-50.1,72.1c-3.4,5.1-6.9,10-10.3,15.1
					c-3.4,4.8-6.9,10-10.6,14.8c-2.7,3.8-5.5,7.5-8.6,11.7c-3.1,4.1-6.2,7.2-9.9,10c-3.4,2.7-7.5,4.5-11.7,5.1
					c-4.1,0.7-8.9-0.3-14.1-3.1c-6.5-3.8-10.6-8.2-11.3-13.4c-1-5.1-0.3-10.6,2.1-16.1c2.4-5.5,5.5-11,9.3-16.1
					c3.8-5.1,7.2-9.6,9.9-13.4c3.8-5.5,7.5-10.6,11.3-16.1c3.8-5.5,7.5-11,11.3-16.1c23.7-34.3,47.3-68.3,70.7-101.9
					C1543.9,597.4,1567.6,563.4,1591.9,529.4z M1434.1,568.5c-3.4,1.7-6.2,4.1-7.9,7.9s-3.1,7.5-4.1,11.3c1.7,7.9,4.8,14.1,9.3,17.8
					c4.5,3.8,9.3,5.8,14.1,5.5c4.8,0,9.3-2.1,13.4-6.2s6.2-9.6,6.5-17.2c0-3.8-1-7.2-3.1-10.3c-2.1-3.1-4.5-5.5-7.9-7.2
					c-3.1-1.7-6.5-2.7-10.3-3.4C1440.6,566.5,1437.2,566.8,1434.1,568.5z M1530.9,761.7c1.4-8.9,3.4-18.2,6.5-26.8
					c3.1-8.9,8.6-16.1,16.5-22c11-7.9,22.6-12.7,34.7-14.1c12-1.4,23.7,0.3,34,4.5c10.6,4.5,19.6,11.3,26.8,20.9
					c7.2,9.6,11.3,21.3,12,35.3c0.7,12-1.7,23-7.2,32.6c-5.5,9.6-12.4,17.5-21.6,23.3c-8.9,6.2-18.9,9.6-30.2,11.3
					c-11,1.4-22,0-32.6-4.1c-12-4.8-21.3-12.7-27.1-23.7c-6.2-11-9.9-22.3-11.7-34.3V761.7z M1580.9,748.7
					c-2.1,4.1-3.8,8.2-4.5,12.4c-0.7,4.1,0.3,8.2,3.1,12c1.7,4.1,4.5,6.9,8.2,8.6c3.4,1.7,7.2,2.4,11,2.4c3.8,0,7.2-1.4,10.6-3.8
					c3.4-2.4,5.5-5.8,6.5-10c1.7-5.8,1.4-11-0.7-15.8c-2.1-4.5-4.8-7.9-8.9-10.3c-3.8-2.4-8.2-3.1-13-2.7
					C1588.8,742.2,1584.7,744.6,1580.9,748.7z"/>
			</g>
		</g>
	</g>
</g>
</svg>
