<?xml version="1.0" encoding="utf-8"?>
<!-- Generator: Adobe Illustrator 23.1.1, SVG Export Plug-In . SVG Version: 6.00 Build 0)  -->
<svg version="1.1" id="Layer_1" xmlns="http://www.w3.org/2000/svg" xmlns:xlink="http://www.w3.org/1999/xlink" x="0px" y="0px"
	 viewBox="0 0 735 852" style="enable-background:new 0 0 735 852;" xml:space="preserve">
<style type="text/css">
	.st0{fill:#54BFD3;}
	.st1{fill:#FFFFFF;}
	.st2{fill:#134F85;}
	.st3{fill:none;stroke:#000000;stroke-width:4.0883;stroke-miterlimit:10;}
	.st4{fill:#4AFD8D;}
	.st5{fill:#015590;}
</style>
<polygon class="st0" points="734.9,213.1 734.9,637.4 705.8,654.2 424.5,816.6 367.6,849.4 310.7,816.6 29.4,654.2 0.1,637.3 
	0.1,213.1 29.4,196.2 307.2,35.8 367.5,1 427.8,35.8 705.6,196.2 "/>
<path class="st1" d="M365.5,797.3l4.5,4.5c1,1,1.9,1.9,2.7,2.9h0.1c-0.4-1.2-0.7-2.5-1-3.8l-1.4-6.3l1.6-0.9l4.7,4.3
	c1.1,1,2.1,2,2.9,2.9h0.1c-0.5-1.3-0.9-2.5-1.2-3.8l-1.6-6.1l1.9-1.1l2.7,12.3l-1.7,1l-4.5-4.1c-1-0.9-2-1.9-2.9-2.9l0,0
	c0.4,1.3,0.8,2.6,1.1,4l1.2,6l-1.7,1l-9.2-8.6L365.5,797.3z"/>
<path class="st1" d="M381.6,787.9l4.5,4.5c1,1,1.9,1.9,2.7,2.9h0.1c-0.4-1.2-0.7-2.5-1-3.8l-1.4-6.3l1.6-0.9l4.7,4.3
	c1.1,1,2.1,2,2.9,2.9h0.1c-0.5-1.3-0.8-2.6-1.2-3.9l-1.6-6.2l1.9-1.1l2.7,12.4l-1.7,1l-4.5-4.1c-1-0.9-2-1.9-2.9-2.9l0,0
	c0.4,1.3,0.8,2.6,1.1,4l1.2,6l-1.7,1l-9.3-8.6L381.6,787.9z"/>
<path class="st1" d="M397.8,778.5l4.5,4.5c1,1,1.9,1.9,2.7,2.9h0.1c-0.4-1.2-0.7-2.5-1-3.8l-1.4-6.3l1.6-0.9l4.7,4.3
	c1.1,1,2.1,2,2.9,2.9h0.1c-0.5-1.3-0.8-2.6-1.2-3.9l-1.6-6.1l1.9-1.1l2.7,12.4l-1.7,1l-4.5-4.1c-1-0.9-2-1.9-2.9-2.9l0,0
	c0.4,1.3,0.8,2.6,1.1,4l1.2,6l-1.7,1l-9.2-8.6L397.8,778.5z"/>
<path class="st1" d="M417.1,779.7c-0.5-0.7-0.3-1.6,0.4-2.1c0,0,0.1,0,0.1-0.1c0.8-0.4,1.7-0.1,2.1,0.7c0.3,0.7,0.1,1.6-0.6,2
	C418.4,780.8,417.5,780.5,417.1,779.7C417.1,779.8,417.1,779.8,417.1,779.7z"/>
<path class="st1" d="M418.5,770.8c-0.7-1.2-1.4-2.3-2-3.2l1.7-1l1.3,2h0.1c-0.4-1.5,0.2-3.2,1.6-4c0.2-0.1,0.4-0.2,0.6-0.2l1,1.8
	c-0.2,0.1-0.5,0.2-0.7,0.3c-1.3,0.8-1.8,2.5-1.1,3.9c0.1,0.3,0.3,0.6,0.4,0.9l3.2,5.6l-1.8,1.1L418.5,770.8z"/>
<path class="st1" d="M428.3,772.1c1,0,2-0.2,2.9-0.7c1.4-0.8,1.6-1.9,1.1-2.7s-1.4-1.1-3.1-0.8c-2.3,0.4-3.8-0.1-4.5-1.3
	c-1-1.7-0.4-3.8,1.8-5.2c0.9-0.5,1.9-0.8,2.9-0.8l0.3,1.7c-0.9,0-1.7,0.2-2.5,0.6c-0.9,0.4-1.3,1.4-1,2.3c0,0,0,0.1,0.1,0.1
	c0.5,0.9,1.4,0.9,3,0.6c2.2-0.4,3.7,0,4.6,1.5c1.1,1.8,0.4,4-2.1,5.4c-1,0.6-2.2,1-3.4,1L428.3,772.1z"/>
<path class="st1" d="M432.7,754.1l1.7,3l2.7-1.6l0.8,1.5l-2.7,1.6l3.3,5.6c0.8,1.3,1.5,1.8,2.6,1.2c0.4-0.2,0.7-0.5,1-0.8l0.9,1.4
	c-0.4,0.5-1,0.9-1.5,1.2c-0.7,0.5-1.7,0.6-2.5,0.4c-1-0.4-1.9-1.3-2.3-2.3l-3.3-5.7l-1.6,0.9L431,759l1.6-0.9l-1.5-2.5L432.7,754.1z
	"/>
<path class="st1" d="M452.5,756.8c0.6,1.1,1.2,2,1.8,2.8l-1.7,1l-1.1-1.6l0,0c0,1.7-0.9,3.2-2.3,4c-1.6,1-4.1,1.2-6.3-2.5l-3.6-6.1
	l1.9-1.1l3.4,5.8c1.2,2,2.5,3,4.3,2c1.1-0.7,1.7-1.9,1.5-3.2c-0.1-0.4-0.2-0.7-0.4-1.1l-3.7-6.4l1.9-1.1L452.5,756.8z"/>
<path class="st1" d="M457.4,737.2l7.4,12.6c0.5,0.9,1.2,2,1.7,2.7l-1.7,1l-1.1-1.8l0,0c0.1,1.7-0.9,3.3-2.4,4.1
	c-2.5,1.5-5.7,0.5-7.6-2.7c-2-3.5-1.1-6.9,1.4-8.3c1.2-0.8,2.8-0.9,4.1-0.2l0,0l-3.6-6.2L457.4,737.2z M460.8,747.5
	c-0.1-0.3-0.3-0.5-0.5-0.8c-1-1.1-2.7-1.4-4-0.6c-2,1.1-2.1,3.5-0.8,5.9c1.2,2.1,3.3,3.3,5.3,2.1c1.3-0.8,2-2.4,1.5-3.9
	c-0.1-0.3-0.2-0.6-0.4-0.9L460.8,747.5z"/>
<path class="st1" d="M463.8,736.1c0.4,0.6,0.2,1.5-0.5,1.9c-0.6,0.4-1.5,0.2-1.9-0.5c-0.4-0.6-0.2-1.5,0.4-1.8c0,0,0,0,0.1,0
	C462.6,735.2,463.4,735.4,463.8,736.1C463.8,736,463.8,736,463.8,736.1z M469.5,750.7l-6.1-10.5l1.9-1.1l6.1,10.5L469.5,750.7z"/>
<path class="st1" d="M480.9,736.9c2.2,3.9,0.6,7.1-2,8.6c-2.8,1.6-6.2,0.8-8.1-2.5c-2-3.5-1-6.9,2-8.6S479.1,733.8,480.9,736.9z
	 M472.7,741.9c1.3,2.3,3.7,3.2,5.5,2.2s2.2-3.6,0.8-5.9c-1-1.8-3.2-3.5-5.5-2.2S471.5,739.9,472.7,741.9L472.7,741.9z"/>
<path class="st1" d="M484.8,740.3c-0.5-0.7-0.3-1.6,0.4-2.1c0,0,0.1,0,0.1-0.1c0.8-0.4,1.7,0,2.1,0.8c0.3,0.7,0.1,1.5-0.5,2
	c-0.7,0.4-1.6,0.2-2-0.5C484.8,740.4,484.8,740.3,484.8,740.3z"/>
<path class="st1" d="M497.6,733.8c-0.7,1-1.6,1.8-2.6,2.3c-3.2,1.8-6.5,0.9-8.3-2.3c-1.8-2.8-1-6.6,1.8-8.5c0.2-0.1,0.4-0.2,0.6-0.3
	c0.9-0.6,1.9-0.9,3-1l0.4,1.7c-0.9,0-1.7,0.3-2.5,0.8c-2.4,1.4-2.7,3.9-1.4,6.1c1.4,2.4,3.8,3,5.9,1.8c0.8-0.5,1.5-1.1,2-1.9
	L497.6,733.8z"/>
<path class="st1" d="M506.3,722.2c2.2,3.9,0.5,7.1-2,8.6c-2.8,1.6-6.2,0.8-8.1-2.5c-2-3.5-0.9-6.9,2-8.6S504.4,719,506.3,722.2z
	 M498.1,727.1c1.3,2.3,3.7,3.2,5.5,2.2s2.2-3.5,0.8-5.9c-1-1.8-3.2-3.5-5.5-2.2S496.9,725.1,498.1,727.1z"/>
<path class="st1" d="M507.4,718.5c-0.6-1.1-1.2-2-1.7-2.8l1.7-1l1.1,1.6h0.1c-0.1-1.6,0.8-3.1,2.2-3.8c1.3-0.8,3-0.6,4.2,0.4l0,0
	c0-0.7,0.1-1.4,0.4-2c0.4-0.9,1-1.6,1.9-2.1c1.4-0.8,4-1.1,6.1,2.5l3.6,6.2l-1.8,1.1l-3.5-5.9c-1.2-2-2.6-2.8-4.1-1.9
	c-1,0.6-1.5,1.8-1.2,3c0.1,0.4,0.2,0.7,0.4,1l3.8,6.5l-1.9,1.1l-3.6-6.3c-1-1.7-2.4-2.5-3.9-1.6c-1.3,1-1.7,2.8-0.9,4.3l3.7,6.3
	l-1.9,1.1L507.4,718.5z"/>
<g>
	<g>
		<path class="st1" d="M110.5,484.8L101.4,373l-9.1,111.8H68.9L52,352h17.5l10,114.8L91.1,352h21l11.7,114.8l10-114.8h16.4
			l-16.9,132.8H110.5z"/>
		<path class="st1" d="M211.3,474.3l-10.5,10.5h-29.2l-10.5-10.5V362.5l10.5-10.5h29.2l10.5,10.5V474.3z M181.4,366.3l-3.5,3.5V467
			l3.5,3.5h9.6l3.5-3.5v-97.1l-3.5-3.5H181.4z"/>
		<path class="st1" d="M227.6,352h38.8l10.5,10.5v55.2l-9.3,9.3l10.5,57.8h-16.2l-10.3-56.6h-7.2v56.6h-16.8V352z M260.1,411.1
			v-41.6l-3.5-3.5h-12.2v48.6h12.2L260.1,411.1z"/>
		<path class="st1" d="M310.7,453.2v31.6H294V352h16.8v70.7l19.9-70.7h16.9l-18.2,58.9l19.2,73.9h-17.5l-12.2-54.3L310.7,453.2z"/>
		<path class="st2" d="M401.9,366.3h-24.1v45.6h21.7v14.3h-21.7v58.5H361V352h40.9V366.3z"/>
		<path class="st2" d="M415,484.8V352h16.8v118.4H454v14.3H415z"/>
		<path class="st2" d="M516.3,474.3l-10.5,10.5h-29.2l-10.5-10.5V362.5l10.5-10.5h29.2l10.5,10.5V474.3z M486.5,366.3l-3.5,3.5V467
			l3.5,3.5h9.6l3.5-3.5v-97.1l-3.5-3.5H486.5z"/>
		<path class="st2" d="M585.9,484.8L576.8,373l-9.1,111.8h-23.4L527.4,352h17.5l10,114.8L566.5,352h21l11.7,114.8l10-114.8h16.4
			l-16.9,132.8H585.9z"/>
		<path class="st2" d="M665.7,369.5l-3.5-3.5h-6.1l-3.5,3.5v37.4l3.5,3.5h16.4l10.5,10.5v53.5l-10.5,10.5H646l-10.5-10.5v-27.8h16.8
			v20.8l3.5,3.5h7l3.5-3.5v-39.1l-3.5-3.5h-16.4l-10.5-10.5v-51.7l10.5-10.5H672l10.5,10.5v27.9h-16.8V369.5z"/>
	</g>
	<g>
		<g>
			<g>
				<path d="M138.1,330.6c0.1-0.3,0.3-0.6,0.4-0.9c0.3-0.8-0.5,1.1-0.2,0.4c0.2-0.6,0.5-1.1,0.7-1.7c0.5-1.1,1-2.2,1.5-3.3
					c1-2.2,2-4.4,3.1-6.6c2.1-4.3,4.3-8.6,6.7-12.8c4.6-8.3,9.7-16.3,15.2-24c1.4-1.9,2.8-3.9,4.3-5.8c0.2-0.2,0.3-0.4,0.5-0.6
					c0.1-0.1,0.9-1.1,0.2-0.3c-0.6,0.7,0,0,0.1-0.2c0.2-0.3,0.4-0.5,0.6-0.8c0.7-0.9,1.5-1.9,2.2-2.8c3-3.7,6.1-7.4,9.3-10.9
					c6.4-7,13.2-13.7,20.3-20c4-3.5,8.1-6.9,12.3-10.2c0.6-0.5-1,0.7-0.3,0.2c0.3-0.2,0.6-0.5,1-0.7c0.5-0.4,1.1-0.8,1.6-1.2
					c1.1-0.8,2.1-1.6,3.2-2.4c2.2-1.6,4.5-3.2,6.7-4.7c2.7-1.8,4.1-5.5,2.2-8.5c-1.7-2.7-5.6-4.2-8.5-2.2
					c-16.4,11.1-31.6,24-45.1,38.5c-13.4,14.4-25.3,30.4-35.1,47.5c-5.7,9.9-10.7,20.2-15,30.7c-0.6,1.4-0.1,3.6,0.6,4.8
					c0.8,1.3,2.2,2.5,3.7,2.8c1.6,0.4,3.4,0.3,4.8-0.6C136.7,333.4,137.5,332.2,138.1,330.6L138.1,330.6z"/>
			</g>
		</g>
		<g>
			<g>
				<path d="M616.7,327.3c-7.7-18.5-17.3-36-28.9-52.3c-11.5-16-24.7-30.7-39.5-43.7c-8.5-7.5-17.5-14.4-26.8-20.7
					c-2.7-1.8-7-0.6-8.5,2.2c-1.7,3.1-0.6,6.5,2.2,8.5c4,2.7,7.9,5.5,11.7,8.4c0.2,0.2,0.4,0.3,0.6,0.5c0.9,0.6-0.2-0.2-0.3-0.2
					c0.5,0.3,1,0.8,1.4,1.1c1,0.8,2,1.6,3,2.4c1.9,1.5,3.7,3,5.5,4.6c7.2,6.1,14,12.7,20.4,19.6c3.3,3.5,6.4,7.1,9.5,10.8
					c1.5,1.8,3,3.7,4.5,5.6c0.3,0.3,0.9,0.9,1,1.3c-0.2-0.2-0.3-0.4-0.5-0.6c0.1,0.2,0.2,0.3,0.4,0.5c0.2,0.2,0.3,0.4,0.5,0.6
					c0.8,1,1.5,2,2.3,3c5.7,7.7,10.9,15.7,15.7,23.9c2.7,4.6,5.2,9.4,7.6,14.2c1.2,2.4,2.3,4.8,3.5,7.3c0.6,1.2,1.1,2.5,1.6,3.7
					c0.3,0.6,0.5,1.2,0.8,1.9c0.1,0.2,0.5,1,0.1,0.2c-0.4-1,0.2,0.6,0.3,0.8c0.6,1.6,1.3,2.8,2.8,3.7c1.3,0.8,3.3,1.1,4.8,0.6
					C615.2,334,618,330.5,616.7,327.3L616.7,327.3z"/>
			</g>
		</g>
		<g>
			<g>
				<path d="M126.2,507.6c7.7,18.5,17.3,36,28.9,52.3c11.5,16,24.7,30.7,39.5,43.7c8.5,7.5,17.5,14.4,26.8,20.7
					c2.7,1.8,7,0.6,8.5-2.2c1.7-3.1,0.6-6.5-2.2-8.5c-4-2.7-7.9-5.5-11.7-8.4c-0.2-0.2-0.4-0.3-0.6-0.5c-0.9-0.6,0.2,0.2,0.3,0.2
					c-0.5-0.3-1-0.8-1.4-1.1c-1-0.8-2-1.6-3-2.4c-1.9-1.5-3.7-3-5.5-4.6c-7.2-6.1-14-12.7-20.4-19.6c-3.3-3.5-6.4-7.1-9.5-10.8
					c-1.5-1.8-3-3.7-4.5-5.6c-0.3-0.3-0.9-0.9-1-1.3c0.2,0.2,0.3,0.4,0.5,0.6c-0.1-0.2-0.2-0.3-0.4-0.5c-0.2-0.2-0.3-0.4-0.5-0.6
					c-0.8-1-1.5-2-2.3-3c-5.7-7.7-10.9-15.7-15.7-23.9c-2.7-4.6-5.2-9.4-7.6-14.2c-1.2-2.4-2.3-4.8-3.5-7.3
					c-0.6-1.2-1.1-2.5-1.6-3.7c-0.3-0.6-0.5-1.2-0.8-1.9c-0.1-0.2-0.5-1-0.1-0.2c0.4,1-0.2-0.6-0.3-0.8c-0.6-1.6-1.3-2.8-2.8-3.7
					c-1.3-0.8-3.3-1.1-4.8-0.6C127.6,500.9,124.9,504.4,126.2,507.6L126.2,507.6z"/>
			</g>
		</g>
		<g>
			<g>
				<path d="M604.7,504.3c-0.1,0.3-0.3,0.6-0.4,0.9c-0.3,0.8,0.5-1.1,0.2-0.4c-0.2,0.6-0.5,1.1-0.7,1.7c-0.5,1.1-1,2.2-1.5,3.3
					c-1,2.2-2,4.4-3.1,6.6c-2.1,4.3-4.3,8.6-6.7,12.8c-4.6,8.3-9.7,16.3-15.2,24c-1.4,1.9-2.8,3.9-4.3,5.8c-0.2,0.2-0.3,0.4-0.5,0.6
					c-0.1,0.1-0.9,1.1-0.2,0.3c0.6-0.7,0,0-0.1,0.2c-0.2,0.3-0.4,0.5-0.6,0.8c-0.7,0.9-1.5,1.9-2.2,2.8c-3,3.7-6.1,7.4-9.3,10.9
					c-6.4,7-13.2,13.7-20.3,20c-4,3.5-8.1,6.9-12.3,10.2c-0.6,0.5,1-0.7,0.3-0.2c-0.3,0.2-0.6,0.5-1,0.7c-0.5,0.4-1.1,0.8-1.6,1.2
					c-1.1,0.8-2.1,1.6-3.2,2.4c-2.2,1.6-4.5,3.2-6.7,4.7c-2.7,1.8-4.1,5.5-2.2,8.5c1.7,2.7,5.6,4.2,8.5,2.2
					c16.4-11.1,31.6-24,45.1-38.5c13.4-14.4,25.3-30.4,35.1-47.5c5.7-9.9,10.7-20.2,15-30.7c0.6-1.4,0.1-3.6-0.6-4.8
					c-0.8-1.3-2.2-2.5-3.7-2.8c-1.6-0.4-3.4-0.3-4.8,0.6C606.1,501.6,605.4,502.8,604.7,504.3L604.7,504.3z"/>
			</g>
		</g>
		<g>
			<g>
				<g>
					<line class="st3" x1="288.6" y1="595.1" x2="367.2" y2="560.9"/>
					<g>
						<polygon points="362.5,570.5 366.1,561.4 357,557.8 362.4,555.5 371.5,559.1 367.9,568.2 						"/>
					</g>
				</g>
			</g>
			<g>
				<g>
					<line class="st3" x1="288.6" y1="595.1" x2="364.6" y2="611.6"/>
					<g>
						<polygon points="355.2,616.6 363.4,611.3 358.1,603.1 363.9,604.3 369.2,612.6 360.9,617.9 						"/>
					</g>
				</g>
			</g>
			<g>
				<g>
					<line class="st3" x1="288.6" y1="595.1" x2="366.1" y2="682.6"/>
					<g>
						<polygon points="355.5,681.1 365.3,681.7 365.9,671.9 369.8,676.3 369.2,686.1 359.4,685.5 						"/>
					</g>
				</g>
			</g>
			<g>
				<g>
					<g>
						<line class="st3" x1="288.6" y1="660.3" x2="367" y2="684.7"/>
						<g>
							<polygon points="357.2,688.9 365.9,684.4 361.3,675.7 366.9,677.4 371.5,686.1 362.8,690.7 							"/>
						</g>
					</g>
				</g>
				<g>
					<g>
						<line class="st3" x1="288.6" y1="660.3" x2="364.7" y2="634.1"/>
						<g>
							<polygon points="359.3,643.3 363.6,634.5 354.8,630.2 360.3,628.3 369.2,632.6 364.9,641.4 							"/>
						</g>
					</g>
				</g>
				<g>
					<g>
						<line class="st3" x1="288.6" y1="660.3" x2="366.2" y2="562.7"/>
						<g>
							<polygon points="366.6,573.4 365.5,563.7 355.8,564.8 359.4,560.2 369.2,559.1 370.3,568.8 							"/>
						</g>
					</g>
				</g>
			</g>
			<g>
				<g>
					<line class="st3" x1="405.1" y1="557.1" x2="460.6" y2="606.2"/>
					<g>
						<polygon points="449.9,606 459.7,605.4 459.1,595.6 463.5,599.6 464.1,609.3 454.3,609.9 						"/>
					</g>
				</g>
			</g>
			<g>
				<g>
					<line class="st3" x1="405.1" y1="620.4" x2="457.9" y2="620.4"/>
					<g>
						<polygon points="449.7,627.3 456.6,620.4 449.7,613.4 455.6,613.4 462.5,620.4 455.6,627.3 						"/>
					</g>
				</g>
			</g>
			<g>
				<g>
					<line class="st3" x1="405.1" y1="686.1" x2="460.6" y2="637"/>
					<g>
						<polygon points="459.1,647.5 459.7,637.8 449.9,637.2 454.3,633.3 464.1,633.9 463.5,643.6 						"/>
					</g>
				</g>
			</g>
			<g>
				<g>
					<circle class="st1" cx="268.1" cy="595.1" r="9.5"/>
					<g>
						<path class="st1" d="M272.7,595.1c0,0.3,0,0.5,0,0.8c0,0.8,0.1-0.5,0.1-0.5c0.1,0.3-0.2,0.9-0.3,1.2c-0.1,0.2-0.1,0.5-0.3,0.7
							c0,0,0.6-1.2,0.2-0.5c-0.2,0.4-0.5,0.9-0.8,1.3c-0.5,0.8,0.7-0.7,0.2-0.3c-0.2,0.1-0.3,0.3-0.4,0.5c-0.1,0.1-0.2,0.2-0.4,0.3
							c-0.3,0.3-0.9,0.5,0.2-0.1c-0.4,0.2-0.7,0.5-1,0.7c-0.1,0.1-0.3,0.2-0.4,0.2c-0.8,0.4,1.2-0.4,0.1-0.1
							c-0.4,0.1-0.8,0.3-1.2,0.3c-0.5,0.1-0.8-0.1,0.4,0c-0.2,0-0.4,0-0.7,0c-0.4,0-0.9,0-1.3,0c-0.7,0,1.3,0.3,0.4,0
							c-0.3-0.1-0.5-0.1-0.7-0.2c-0.2-0.1-0.5-0.2-0.7-0.2c-0.4-0.1-0.4-0.4,0.5,0.2c-0.3-0.2-0.7-0.4-1.1-0.6
							c-0.2-0.1-0.3-0.2-0.5-0.3c-0.5-0.3,1,0.9,0.3,0.2c-0.3-0.3-0.7-0.8-1-1.1c0.7,0.6,0.6,0.8,0.3,0.4c-0.1-0.2-0.3-0.4-0.4-0.6
							c-0.1-0.1-0.2-0.3-0.2-0.4c-0.2-0.4-0.2-1,0.1,0.3c-0.1-0.4-0.3-0.8-0.4-1.2c0-0.2-0.1-0.3-0.1-0.5c-0.2-0.9,0.1,1.3,0,0.1
							c0-0.4,0-0.8,0-1.2c0-0.5,0.3-1.1-0.1,0.3c0-0.2,0.1-0.3,0.1-0.5c0.1-0.4,0.2-0.8,0.4-1.2c0.3-0.9-0.6,1.1-0.1,0.2
							c0.1-0.2,0.2-0.4,0.4-0.7c0.1-0.2,0.2-0.3,0.3-0.5c0.3-0.4,0.6-0.4-0.2,0.3c0.3-0.2,0.6-0.6,0.9-0.9c0.1-0.1,0.8-0.6,0.1-0.1
							c-0.7,0.5,0,0,0.1-0.1c0.3-0.2,0.9-0.7,1.3-0.7c0,0-1.2,0.4-0.5,0.2c0.2-0.1,0.5-0.2,0.7-0.2c0.3-0.1,1.5-0.3,0.6-0.2
							c-1,0.1,0.5,0,0.8,0c0.2,0,0.4,0,0.7,0c1,0-1.1-0.2-0.3,0c0.5,0.1,1,0.3,1.5,0.4c0.9,0.3-0.9-0.5-0.4-0.1
							c0.2,0.2,0.5,0.3,0.8,0.4c0.1,0.1,0.3,0.2,0.4,0.3c1.1,0.7-0.6-0.6,0,0c0.3,0.3,0.6,0.6,0.9,0.9c0.7,0.7-0.7-1-0.2-0.2
							c0.1,0.2,0.3,0.4,0.4,0.6c0.1,0.2,0.2,0.4,0.4,0.7c0.4,0.7-0.4-1.1-0.1-0.2c0.2,0.5,0.3,1,0.4,1.5c0.1,0.4-0.1,0.6-0.1-0.5
							C272.6,594.4,272.7,594.7,272.7,595.1c0,2.6,2.2,5,4.9,4.9c2.6-0.1,4.9-2.1,4.9-4.9c-0.1-6.2-3.9-11.4-9.7-13.6
							c-5.3-2-11.9-0.2-15.6,4.1c-3.9,4.7-4.8,11.4-1.5,16.8c3.2,5.4,9.3,7.8,15.4,6.7c6.6-1.2,11.3-7.5,11.4-14.1
							c0-2.6-2.3-5-4.9-4.9C274.9,590.3,272.7,592.3,272.7,595.1z"/>
					</g>
				</g>
				<g>
					<circle class="st1" cx="268.1" cy="660" r="9.5"/>
					<g>
						<path class="st1" d="M272.7,660c0,0.3,0,0.5,0,0.8c0,0.8,0.1-0.5,0.1-0.5c0.1,0.3-0.2,0.9-0.3,1.2c-0.1,0.2-0.1,0.5-0.3,0.7
							c0,0,0.6-1.2,0.2-0.5c-0.2,0.4-0.5,0.9-0.8,1.3c-0.5,0.8,0.7-0.7,0.2-0.3c-0.2,0.1-0.3,0.3-0.4,0.5c-0.1,0.1-0.2,0.2-0.4,0.3
							c-0.3,0.3-0.9,0.5,0.2-0.1c-0.4,0.2-0.7,0.5-1,0.7c-0.1,0.1-0.3,0.2-0.4,0.2c-0.8,0.4,1.2-0.4,0.1-0.1
							c-0.4,0.1-0.8,0.3-1.2,0.3c-0.5,0.1-0.8-0.1,0.4,0c-0.2,0-0.4,0-0.7,0c-0.4,0-0.9,0-1.3,0c-0.7,0,1.3,0.3,0.4,0
							c-0.3-0.1-0.5-0.1-0.7-0.2c-0.2-0.1-0.5-0.2-0.7-0.2c-0.4-0.1-0.4-0.4,0.5,0.2c-0.3-0.2-0.7-0.4-1.1-0.6
							c-0.2-0.1-0.3-0.2-0.5-0.3c-0.5-0.3,1,0.9,0.3,0.2c-0.3-0.3-0.7-0.8-1-1.1c0.7,0.6,0.6,0.8,0.3,0.4c-0.1-0.2-0.3-0.4-0.4-0.6
							c-0.1-0.1-0.2-0.3-0.2-0.4c-0.2-0.4-0.2-1,0.1,0.3c-0.1-0.4-0.3-0.8-0.4-1.2c0-0.2-0.1-0.3-0.1-0.5c-0.2-0.9,0.1,1.3,0,0.1
							c0-0.4,0-0.8,0-1.2c0-0.5,0.3-1.1-0.1,0.3c0-0.2,0.1-0.3,0.1-0.5c0.1-0.4,0.2-0.8,0.4-1.2c0.3-0.9-0.6,1.1-0.1,0.2
							c0.1-0.2,0.2-0.4,0.4-0.7c0.1-0.2,0.2-0.3,0.3-0.5c0.3-0.4,0.6-0.4-0.2,0.3c0.3-0.2,0.6-0.6,0.9-0.9c0.1-0.1,0.8-0.6,0.1-0.1
							c-0.7,0.5,0,0,0.1-0.1c0.3-0.2,0.9-0.7,1.3-0.7c0,0-1.2,0.4-0.5,0.2c0.2-0.1,0.5-0.2,0.7-0.2c0.3-0.1,1.5-0.3,0.6-0.2
							c-1,0.1,0.5,0,0.8,0c0.2,0,0.4,0,0.7,0c1,0-1.1-0.2-0.3,0c0.5,0.1,1,0.3,1.5,0.4c0.9,0.3-0.9-0.5-0.4-0.1
							c0.2,0.2,0.5,0.3,0.8,0.4c0.1,0.1,0.3,0.2,0.4,0.3c1.1,0.7-0.6-0.6,0,0c0.3,0.3,0.6,0.6,0.9,0.9c0.7,0.7-0.7-1-0.2-0.2
							c0.1,0.2,0.3,0.4,0.4,0.6c0.1,0.2,0.2,0.4,0.4,0.7c0.4,0.7-0.4-1.1-0.1-0.2c0.2,0.5,0.3,1,0.4,1.5c0.1,0.4-0.1,0.6-0.1-0.5
							C272.6,659.3,272.7,659.6,272.7,660c0,2.6,2.2,5,4.9,4.9c2.6-0.1,4.9-2.1,4.9-4.9c-0.1-6.2-3.9-11.4-9.7-13.6
							c-5.3-2-11.9-0.2-15.6,4.1c-3.9,4.7-4.8,11.4-1.5,16.8c3.2,5.4,9.3,7.8,15.4,6.7c6.6-1.2,11.3-7.5,11.4-14.1
							c0-2.6-2.3-5-4.9-4.9C274.9,655.2,272.7,657.2,272.7,660z"/>
					</g>
				</g>
				<g>
					<circle class="st4" cx="388.3" cy="555.8" r="9.5"/>
					<g>
						<path class="st4" d="M373.9,555.8c0.1,6.2,3.9,11.4,9.7,13.6c5.3,2,11.9,0.2,15.6-4.1c3.9-4.7,4.8-11.4,1.5-16.8
							c-3.2-5.4-9.3-7.8-15.4-6.7C378.7,542.9,374,549.2,373.9,555.8c0,2.6,2.3,5,4.9,4.9c2.7-0.1,4.9-2.1,4.9-4.9
							c0-0.3,0-0.5,0-0.8c0-0.8-0.1,0.5-0.1,0.5c-0.1-0.3,0.2-0.9,0.3-1.2c0.1-0.2,0.1-0.5,0.3-0.7c0,0-0.6,1.2-0.2,0.5
							c0.2-0.4,0.5-0.9,0.8-1.3c0.5-0.8-0.7,0.7-0.2,0.3c0.2-0.1,0.3-0.3,0.4-0.5c0.1-0.1,0.2-0.2,0.4-0.3c0.3-0.3,0.9-0.5-0.2,0.1
							c0.4-0.2,0.7-0.5,1-0.7c0.1-0.1,0.3-0.2,0.4-0.2c0.8-0.4-1.2,0.4-0.1,0.1c0.4-0.1,0.8-0.3,1.2-0.3c0.5-0.1,0.8,0.1-0.4,0
							c0.2,0,0.4,0,0.7,0c0.4,0,0.9,0,1.3,0c0.7,0-1.3-0.3-0.4,0c0.3,0.1,0.5,0.1,0.7,0.2c0.2,0.1,0.5,0.2,0.7,0.2
							c0.4,0.1,0.4,0.4-0.5-0.2c0.3,0.2,0.7,0.4,1.1,0.6c0.2,0.1,0.3,0.2,0.5,0.3c0.5,0.3-1-0.9-0.3-0.2c0.3,0.3,0.7,0.8,1,1.1
							c-0.7-0.6-0.6-0.8-0.3-0.4c0.1,0.2,0.3,0.4,0.4,0.6c0.1,0.1,0.2,0.3,0.2,0.4c0.2,0.4,0.2,1-0.1-0.3c0.1,0.4,0.3,0.8,0.4,1.2
							c0,0.2,0.1,0.3,0.1,0.5c0.2,0.9-0.1-1.3,0-0.1c0,0.4,0,0.8,0,1.2c0,0.5-0.3,1.1,0.1-0.3c0,0.2-0.1,0.3-0.1,0.5
							c-0.1,0.4-0.2,0.8-0.4,1.2c-0.3,0.9,0.6-1.1,0.1-0.2c-0.1,0.2-0.2,0.4-0.4,0.7c-0.1,0.2-0.2,0.3-0.3,0.5
							c-0.3,0.4-0.6,0.4,0.2-0.3c-0.3,0.2-0.6,0.6-0.9,0.9c-0.1,0.1-0.8,0.6-0.1,0.1c0.7-0.5,0,0-0.1,0.1c-0.3,0.2-0.9,0.7-1.3,0.7
							c0,0,1.2-0.4,0.5-0.2c-0.2,0.1-0.5,0.2-0.7,0.2c-0.3,0.1-1.5,0.3-0.6,0.2c1-0.1-0.5,0-0.8,0c-0.2,0-0.4,0-0.7,0
							c-1,0,1.1,0.2,0.3,0c-0.5-0.1-1-0.3-1.5-0.4c-0.9-0.3,0.9,0.5,0.4,0.1c-0.2-0.2-0.5-0.3-0.8-0.4c-0.1-0.1-0.3-0.2-0.4-0.3
							c-1.1-0.7,0.6,0.6,0,0c-0.3-0.3-0.6-0.6-0.9-0.9c-0.7-0.7,0.7,1,0.2,0.2c-0.1-0.2-0.3-0.4-0.4-0.6c-0.1-0.2-0.2-0.4-0.4-0.7
							c-0.4-0.7,0.4,1.1,0.1,0.2c-0.2-0.5-0.3-1-0.4-1.5c-0.1-0.4,0.1-0.6,0.1,0.5c0-0.3-0.1-0.7-0.1-1.1c0-2.6-2.2-5-4.9-4.9
							C376.2,551,373.9,553.1,373.9,555.8z"/>
					</g>
				</g>
				<g>
					<circle class="st4" cx="388.3" cy="689.7" r="9.5"/>
					<g>
						<path class="st4" d="M381.8,676.9c-5,2.4-8.4,8.3-7.8,13.8c0.3,3.3,1.5,6.1,3.7,8.7c1.8,2.1,4.4,3.6,7.1,4.3
							c6,1.5,12.2-1,15.7-6.2c3.2-4.7,3.1-11.5-0.3-16c-2-2.7-4.8-4.8-8.1-5.7C388.5,674.9,385.1,675.4,381.8,676.9
							c-1,0.5-2,1.9-2.2,2.9c-0.3,1.2-0.2,2.7,0.5,3.8c0.7,1,1.7,2,2.9,2.2c1.4,0.3,2.5,0.1,3.8-0.5c0.8-0.4-1.2,0.4-0.3,0.1
							c0.2-0.1,0.4-0.1,0.6-0.2c0.4-0.1,0.8-0.2,1.2-0.3c-0.4,0.1-0.9,0.1-1.3,0.2c0.8-0.1,1.7-0.1,2.5,0c-0.4-0.1-0.9-0.1-1.3-0.2
							c0.5,0.1,1,0.2,1.4,0.3c0.2,0.1,0.4,0.1,0.6,0.2c0.9,0.3-0.8-0.4-0.3-0.1c0.4,0.3,0.9,0.4,1.3,0.7c0.4,0.3,0.7,0.8-0.3-0.2
							c0.2,0.2,0.3,0.3,0.5,0.5c0.4,0.4,1.2,1.6,0.3,0.2c0.3,0.4,0.5,0.8,0.8,1.2c0.1,0.2,0.2,0.4,0.3,0.7c-0.7-1.2-0.3-0.7-0.2-0.3
							c0.2,0.5,0.3,1,0.4,1.6c-0.1-0.4-0.1-0.9-0.2-1.3c0.1,0.8,0.1,1.7,0,2.5c0.1-0.4,0.1-0.9,0.2-1.3c-0.1,0.5-0.2,1-0.3,1.4
							c-0.1,0.2-0.1,0.4-0.2,0.6c-0.3,0.9,0.4-0.8,0.1-0.3c-0.3,0.4-0.4,0.9-0.7,1.3c-0.3,0.4-0.8,0.7,0.2-0.3
							c-0.2,0.2-0.3,0.3-0.5,0.5c-0.4,0.4-1.6,1.2-0.2,0.3c-0.4,0.3-0.8,0.5-1.2,0.8c-0.2,0.1-0.4,0.2-0.7,0.3
							c1.2-0.7,0.7-0.3,0.3-0.2c-0.5,0.2-1,0.3-1.6,0.4c0.4-0.1,0.9-0.1,1.3-0.2c-0.8,0.1-1.7,0.1-2.5,0c0.4,0.1,0.9,0.1,1.3,0.2
							c-0.5-0.1-1-0.2-1.4-0.3c-0.2-0.1-0.4-0.1-0.6-0.2c-0.9-0.3,0.8,0.4,0.3,0.1c-0.4-0.3-0.9-0.4-1.3-0.7
							c-0.4-0.3-0.7-0.8,0.3,0.2c-0.2-0.2-0.3-0.3-0.5-0.5c-0.4-0.4-1.2-1.6-0.3-0.2c-0.3-0.4-0.5-0.8-0.8-1.2
							c-0.1-0.2-0.2-0.4-0.3-0.7c0.7,1.2,0.3,0.7,0.2,0.3c-0.2-0.5-0.3-1-0.4-1.6c0.1,0.4,0.1,0.9,0.2,1.3c-0.1-0.8-0.1-1.7,0-2.5
							c-0.1,0.4-0.1,0.9-0.2,1.3c0.1-0.8,0.3-1.5,0.5-2.2c0.2-0.7-0.2,0.5-0.2,0.5c0-0.1,0.2-0.4,0.2-0.5c0.2-0.3,0.4-0.6,0.6-1
							c0.2-0.4,0.6-0.5-0.3,0.4c0.1-0.1,0.2-0.2,0.3-0.3c0.3-0.3,0.5-0.5,0.8-0.8c0.6-0.5-0.8,0.6-0.4,0.3c0.2-0.1,0.3-0.2,0.5-0.3
							c0.3-0.2,0.7-0.4,1-0.6c2.3-1.1,3.1-4.6,1.8-6.7C387,676.3,384.3,675.7,381.8,676.9z"/>
					</g>
				</g>
				<g>
					<g>
						<circle class="st4" cx="388.3" cy="622.1" r="9.5"/>
						<g>
							<path class="st4" d="M392.9,622.1c0,0.3,0,0.5,0,0.8c0,0.8,0.1-0.5,0.1-0.5c0.1,0.3-0.2,0.9-0.3,1.2
								c-0.1,0.2-0.1,0.5-0.3,0.7c0,0,0.6-1.2,0.2-0.5c-0.2,0.4-0.5,0.9-0.8,1.3c-0.5,0.8,0.7-0.7,0.2-0.3c-0.2,0.1-0.3,0.3-0.4,0.5
								c-0.1,0.1-0.2,0.2-0.4,0.3c-0.3,0.3-0.9,0.5,0.2-0.1c-0.4,0.2-0.7,0.5-1,0.7c-0.1,0.1-0.3,0.2-0.4,0.2
								c-0.8,0.4,1.2-0.4,0.1-0.1c-0.4,0.1-0.8,0.3-1.2,0.3c-0.5,0.1-0.8-0.1,0.4,0c-0.2,0-0.4,0-0.7,0c-0.4,0-0.9,0-1.3,0
								c-0.7,0,1.3,0.3,0.4,0c-0.3-0.1-0.5-0.1-0.7-0.2c-0.2-0.1-0.5-0.2-0.7-0.2c-0.4-0.1-0.4-0.4,0.5,0.2
								c-0.3-0.2-0.7-0.4-1.1-0.6c-0.2-0.1-0.3-0.2-0.5-0.3c-0.5-0.3,1,0.9,0.3,0.2c-0.3-0.3-0.7-0.8-1-1.1c0.7,0.6,0.6,0.8,0.3,0.4
								c-0.1-0.2-0.3-0.4-0.4-0.6c-0.1-0.1-0.2-0.3-0.2-0.4c-0.2-0.4-0.2-1,0.1,0.3c-0.1-0.4-0.3-0.8-0.4-1.2c0-0.2-0.1-0.3-0.1-0.5
								c-0.2-0.9,0.1,1.3,0,0.1c0-0.4,0-0.8,0-1.2c0-0.5,0.3-1.1-0.1,0.3c0-0.2,0.1-0.3,0.1-0.5c0.1-0.4,0.2-0.8,0.4-1.2
								c0.3-0.9-0.6,1.1-0.1,0.2c0.1-0.2,0.2-0.4,0.4-0.7c0.1-0.2,0.2-0.3,0.3-0.5c0.3-0.4,0.6-0.4-0.2,0.3c0.3-0.2,0.6-0.6,0.9-0.9
								c0.1-0.1,0.8-0.6,0.1-0.1c-0.7,0.5,0,0,0.1-0.1c0.3-0.2,0.9-0.7,1.3-0.7c0,0-1.2,0.4-0.5,0.2c0.2-0.1,0.5-0.2,0.7-0.2
								c0.3-0.1,1.5-0.3,0.6-0.2c-1,0.1,0.5,0,0.8,0c0.2,0,0.4,0,0.7,0c1,0-1.1-0.2-0.3,0c0.5,0.1,1,0.3,1.5,0.4
								c0.9,0.3-0.9-0.5-0.4-0.1c0.2,0.2,0.5,0.3,0.8,0.4c0.1,0.1,0.3,0.2,0.4,0.3c1.1,0.7-0.6-0.6,0,0c0.3,0.3,0.6,0.6,0.9,0.9
								c0.7,0.7-0.7-1-0.2-0.2c0.1,0.2,0.3,0.4,0.4,0.6c0.1,0.2,0.2,0.4,0.4,0.7c0.4,0.7-0.4-1.1-0.1-0.2c0.2,0.5,0.3,1,0.4,1.5
								c0.1,0.4-0.1,0.6-0.1-0.5C392.9,621.4,392.9,621.7,392.9,622.1c0,2.6,2.2,5,4.9,4.9c2.6-0.1,4.9-2.1,4.9-4.9
								c-0.1-6.2-3.9-11.4-9.7-13.6c-5.3-2-11.9-0.2-15.6,4.1c-3.9,4.7-4.8,11.4-1.5,16.8c3.2,5.4,9.3,7.8,15.4,6.7
								c6.6-1.2,11.3-7.5,11.4-14.1c0-2.6-2.3-5-4.9-4.9C395.1,617.3,393,619.4,392.9,622.1z"/>
						</g>
					</g>
				</g>
				<g>
					<g>
						<circle class="st5" cx="479.5" cy="622.1" r="9.5"/>
						<g>
							<path class="st5" d="M484.1,622.1c0,0.3,0,0.5,0,0.8c0,0.8,0.1-0.5,0.1-0.5c0.1,0.3-0.2,0.9-0.3,1.2
								c-0.1,0.2-0.1,0.5-0.3,0.7c0,0,0.6-1.2,0.2-0.5c-0.2,0.4-0.5,0.9-0.8,1.3c-0.5,0.8,0.7-0.7,0.2-0.3c-0.2,0.1-0.3,0.3-0.4,0.5
								c-0.1,0.1-0.2,0.2-0.4,0.3c-0.3,0.3-0.9,0.5,0.2-0.1c-0.4,0.2-0.7,0.5-1,0.7c-0.1,0.1-0.3,0.2-0.4,0.2
								c-0.8,0.4,1.2-0.4,0.1-0.1c-0.4,0.1-0.8,0.3-1.2,0.3c-0.5,0.1-0.8-0.1,0.4,0c-0.2,0-0.4,0-0.7,0c-0.4,0-0.9,0-1.3,0
								c-0.7,0,1.3,0.3,0.4,0c-0.3-0.1-0.5-0.1-0.7-0.2c-0.2-0.1-0.5-0.2-0.7-0.2c-0.4-0.1-0.4-0.4,0.5,0.2
								c-0.3-0.2-0.7-0.4-1.1-0.6c-0.2-0.1-0.3-0.2-0.5-0.3c-0.5-0.3,1,0.9,0.3,0.2c-0.3-0.3-0.7-0.8-1-1.1c0.7,0.6,0.6,0.8,0.3,0.4
								c-0.1-0.2-0.3-0.4-0.4-0.6c-0.1-0.1-0.2-0.3-0.2-0.4c-0.2-0.4-0.2-1,0.1,0.3c-0.1-0.4-0.3-0.8-0.4-1.2c0-0.2-0.1-0.3-0.1-0.5
								c-0.2-0.9,0.1,1.3,0,0.1c0-0.4,0-0.8,0-1.2c0-0.5,0.3-1.1-0.1,0.3c0-0.2,0.1-0.3,0.1-0.5c0.1-0.4,0.2-0.8,0.4-1.2
								c0.3-0.9-0.6,1.1-0.1,0.2c0.1-0.2,0.2-0.4,0.4-0.7c0.1-0.2,0.2-0.3,0.3-0.5c0.3-0.4,0.6-0.4-0.2,0.3c0.3-0.2,0.6-0.6,0.9-0.9
								c0.1-0.1,0.8-0.6,0.1-0.1c-0.7,0.5,0,0,0.1-0.1c0.3-0.2,0.9-0.7,1.3-0.7c0,0-1.2,0.4-0.5,0.2c0.2-0.1,0.5-0.2,0.7-0.2
								c0.3-0.1,1.5-0.3,0.6-0.2c-1,0.1,0.5,0,0.8,0c0.2,0,0.4,0,0.7,0c1,0-1.1-0.2-0.3,0c0.5,0.1,1,0.3,1.5,0.4
								c0.9,0.3-0.9-0.5-0.4-0.1c0.2,0.2,0.5,0.3,0.8,0.4c0.1,0.1,0.3,0.2,0.4,0.3c1.1,0.7-0.6-0.6,0,0c0.3,0.3,0.6,0.6,0.9,0.9
								c0.7,0.7-0.7-1-0.2-0.2c0.1,0.2,0.3,0.4,0.4,0.6c0.1,0.2,0.2,0.4,0.4,0.7c0.4,0.7-0.4-1.1-0.1-0.2c0.2,0.5,0.3,1,0.4,1.5
								c0.1,0.4-0.1,0.6-0.1-0.5C484.1,621.4,484.1,621.7,484.1,622.1c0,2.6,2.2,5,4.9,4.9c2.6-0.1,4.9-2.1,4.9-4.9
								c-0.1-6.2-3.9-11.4-9.7-13.6c-5.3-2-11.9-0.2-15.6,4.1c-3.9,4.7-4.8,11.4-1.5,16.8c3.2,5.4,9.3,7.8,15.4,6.7
								c6.6-1.2,11.3-7.5,11.4-14.1c0-2.6-2.3-5-4.9-4.9C486.3,617.3,484.2,619.4,484.1,622.1z"/>
						</g>
					</g>
				</g>
			</g>
		</g>
		<g>
			<path class="st1" d="M260.1,172.6c0.5-3.2,1.3-6.2,2.6-9.1c1.2-2.8,3.3-5.2,6.3-6.9c3.2-2,6.5-3.1,9.9-3.1c3.4,0,6.6,0.7,9.5,2.2
				c2.9,1.5,5.3,3.7,7.2,6.5c1.9,2.8,3,6.1,3.2,9.8c0.2,3.2-0.5,6.2-1.9,9c-1.4,2.8-3.4,5.1-5.8,7c-2.5,1.9-5.2,3.2-8.3,3.9
				c-3.1,0.7-6.1,0.6-9.2-0.4c-4.2-1.3-7.3-3.7-9.3-7c-2-3.3-3.3-7-4-11.1L260.1,172.6z M322.3,155.3c1.6-1.6,3.2-2.4,4.8-2.5
				c1.7-0.1,3.2,0.3,4.4,1.2c1.3,0.9,2.2,2.2,2.7,3.9c0.5,1.7,0.4,3.5-0.5,5.4c-0.3,0.7-0.7,1.3-1.2,1.9c-0.5,0.5-0.9,1.1-1.4,1.8
				c-1.2,1.8-2.3,3.3-3.2,4.5c-0.9,1.2-1.7,2.4-2.5,3.5c-0.8,1.1-1.7,2.4-2.6,3.7c-0.9,1.3-2,3-3.4,5c-4.9,7.1-9.8,14.1-14.6,21.1
				c-4.8,7-9.7,14-14.6,21c-1,1.5-2,2.9-3,4.4c-1,1.4-2,2.9-3.1,4.3c-0.8,1.1-1.6,2.2-2.5,3.4c-0.9,1.2-1.8,2.1-2.9,2.9
				c-1,0.8-2.2,1.3-3.4,1.5c-1.2,0.2-2.6-0.1-4.1-0.9c-1.9-1.1-3.1-2.4-3.3-3.9c-0.3-1.5-0.1-3.1,0.6-4.7c0.7-1.6,1.6-3.2,2.7-4.7
				c1.1-1.5,2.1-2.8,2.9-3.9c1.1-1.6,2.2-3.1,3.3-4.7c1.1-1.6,2.2-3.2,3.3-4.7c6.9-10,13.8-19.9,20.6-29.7
				C308.3,175.1,315.2,165.2,322.3,155.3z M276.3,166.7c-1,0.5-1.8,1.2-2.3,2.3c-0.5,1.1-0.9,2.2-1.2,3.3c0.5,2.3,1.4,4.1,2.7,5.2
				c1.3,1.1,2.7,1.7,4.1,1.6c1.4,0,2.7-0.6,3.9-1.8c1.2-1.2,1.8-2.8,1.9-5c0-1.1-0.3-2.1-0.9-3c-0.6-0.9-1.3-1.6-2.3-2.1
				c-0.9-0.5-1.9-0.8-3-1C278.2,166.1,277.2,166.2,276.3,166.7z M304.5,223c0.4-2.6,1-5.3,1.9-7.8c0.9-2.6,2.5-4.7,4.8-6.4
				c3.2-2.3,6.6-3.7,10.1-4.1c3.5-0.4,6.9,0.1,9.9,1.3c3.1,1.3,5.7,3.3,7.8,6.1c2.1,2.8,3.3,6.2,3.5,10.3c0.2,3.5-0.5,6.7-2.1,9.5
				c-1.6,2.8-3.6,5.1-6.3,6.8c-2.6,1.8-5.5,2.8-8.8,3.3c-3.2,0.4-6.4,0-9.5-1.2c-3.5-1.4-6.2-3.7-7.9-6.9c-1.8-3.2-2.9-6.5-3.4-10
				L304.5,223z M319.1,219.2c-0.6,1.2-1.1,2.4-1.3,3.6c-0.2,1.2,0.1,2.4,0.9,3.5c0.5,1.2,1.3,2,2.4,2.5c1,0.5,2.1,0.7,3.2,0.7
				c1.1,0,2.1-0.4,3.1-1.1c1-0.7,1.6-1.7,1.9-2.9c0.5-1.7,0.4-3.2-0.2-4.6c-0.6-1.3-1.4-2.3-2.6-3c-1.1-0.7-2.4-0.9-3.8-0.8
				C321.4,217.3,320.1,218,319.1,219.2z"/>
			<path class="st4" d="M356.9,214.1c3.5-2.6,7-5.2,10.3-7.8c3.4-2.6,6.8-5.2,10.3-7.7c-2.1-1.7-4.2-3.4-6.3-5
				c-2.1-1.6-4.2-3.3-6.4-4.9c-0.5-0.4-1.2-0.9-2-1.4c-0.8-0.5-1.7-1.1-2.5-1.8c-0.9-0.7-1.7-1.3-2.5-2c-0.8-0.7-1.4-1.4-1.8-2.2
				c-0.7-1.3-1-2.7-0.9-4.1c0.1-1.4,0.4-2.7,1.1-3.8c0.7-1.1,1.6-2,2.9-2.6c1.2-0.6,2.7-0.7,4.3-0.3c1.4,0.3,2.7,1,4,2
				c1.2,1.1,2.4,2,3.5,2.9c1.8,1.4,3.6,2.8,5.4,4.2c1.8,1.4,3.6,2.8,5.4,4.3c1.2,0.9,2,1.6,2.5,2c0.5,0.4,1,0.8,1.4,1.1
				s1,0.8,1.6,1.2c0.6,0.5,1.6,1.2,2.8,2.2c1.5,1.1,2.8,2.2,4,3.2c1.2,1.1,2,2.5,2.4,4.4c0.2,1.3,0,2.6-0.6,3.7
				c-0.6,1.1-1.4,2.1-2.4,3c-1,0.9-2,1.7-3.2,2.4c-1.2,0.7-2.1,1.4-2.9,2c-2.7,2-5.4,4-8.1,6.1c-2.6,2-5.3,4-8.1,6.1
				c-1.2,0.9-2.3,1.8-3.5,2.7c-1.2,1-2.5,1.7-3.9,2c-2,0.5-3.6,0.5-5,0c-1.4-0.5-2.5-1.4-3.2-2.6c-0.7-1.2-1-2.6-0.9-4.1
				c0.1-1.6,0.6-3.2,1.6-4.7L356.9,214.1z"/>
			<path class="st1" d="M401.9,172.6c0.5-3.2,1.3-6.2,2.6-9.1c1.2-2.8,3.3-5.2,6.3-6.9c3.2-2,6.5-3.1,9.9-3.1c3.4,0,6.6,0.7,9.5,2.2
				c2.9,1.5,5.3,3.7,7.2,6.5c1.9,2.8,3,6.1,3.2,9.8c0.2,3.2-0.5,6.2-1.9,9c-1.4,2.8-3.4,5.1-5.8,7c-2.5,1.9-5.2,3.2-8.3,3.9
				c-3.1,0.7-6.1,0.6-9.2-0.4c-4.2-1.3-7.3-3.7-9.3-7c-2-3.3-3.3-7-4-11.1L401.9,172.6z M464.1,155.3c1.6-1.6,3.2-2.4,4.8-2.5
				c1.7-0.1,3.2,0.3,4.4,1.2c1.3,0.9,2.2,2.2,2.7,3.9c0.5,1.7,0.4,3.5-0.5,5.4c-0.3,0.7-0.7,1.3-1.2,1.9c-0.5,0.5-0.9,1.1-1.4,1.8
				c-1.2,1.8-2.3,3.3-3.2,4.5c-0.9,1.2-1.7,2.4-2.5,3.5c-0.8,1.1-1.7,2.4-2.6,3.7c-0.9,1.3-2,3-3.4,5c-4.9,7.1-9.8,14.1-14.6,21.1
				c-4.8,7-9.7,14-14.6,21c-1,1.5-2,2.9-3,4.4c-1,1.4-2,2.9-3.1,4.3c-0.8,1.1-1.6,2.2-2.5,3.4c-0.9,1.2-1.8,2.1-2.9,2.9
				c-1,0.8-2.2,1.3-3.4,1.5c-1.2,0.2-2.6-0.1-4.1-0.9c-1.9-1.1-3.1-2.4-3.3-3.9c-0.3-1.5-0.1-3.1,0.6-4.7c0.7-1.6,1.6-3.2,2.7-4.7
				c1.1-1.5,2.1-2.8,2.9-3.9c1.1-1.6,2.2-3.1,3.3-4.7c1.1-1.6,2.2-3.2,3.3-4.7c6.9-10,13.8-19.9,20.6-29.7
				C450.1,175.1,457,165.2,464.1,155.3z M418.1,166.7c-1,0.5-1.8,1.2-2.3,2.3c-0.5,1.1-0.9,2.2-1.2,3.3c0.5,2.3,1.4,4.1,2.7,5.2
				c1.3,1.1,2.7,1.7,4.1,1.6c1.4,0,2.7-0.6,3.9-1.8c1.2-1.2,1.8-2.8,1.9-5c0-1.1-0.3-2.1-0.9-3c-0.6-0.9-1.3-1.6-2.3-2.1
				c-0.9-0.5-1.9-0.8-3-1C420,166.1,419,166.2,418.1,166.7z M446.3,223c0.4-2.6,1-5.3,1.9-7.8c0.9-2.6,2.5-4.7,4.8-6.4
				c3.2-2.3,6.6-3.7,10.1-4.1c3.5-0.4,6.9,0.1,9.9,1.3c3.1,1.3,5.7,3.3,7.8,6.1c2.1,2.8,3.3,6.2,3.5,10.3c0.2,3.5-0.5,6.7-2.1,9.5
				c-1.6,2.8-3.6,5.1-6.3,6.8c-2.6,1.8-5.5,2.8-8.8,3.3c-3.2,0.4-6.4,0-9.5-1.2c-3.5-1.4-6.2-3.7-7.9-6.9c-1.8-3.2-2.9-6.5-3.4-10
				L446.3,223z M460.9,219.2c-0.6,1.2-1.1,2.4-1.3,3.6c-0.2,1.2,0.1,2.4,0.9,3.5c0.5,1.2,1.3,2,2.4,2.5c1,0.5,2.1,0.7,3.2,0.7
				c1.1,0,2.1-0.4,3.1-1.1c1-0.7,1.6-1.7,1.9-2.9c0.5-1.7,0.4-3.2-0.2-4.6c-0.6-1.3-1.4-2.3-2.6-3c-1.1-0.7-2.4-0.9-3.8-0.8
				C463.2,217.3,462,218,460.9,219.2z"/>
		</g>
	</g>
</g>
</svg>
