<?xml version="1.0" encoding="utf-8"?>
<!-- Generator: Adobe Illustrator 26.5.0, SVG Export Plug-In . SVG Version: 6.00 Build 0)  -->
<svg version="1.1" id="Layer_1" xmlns="http://www.w3.org/2000/svg" xmlns:xlink="http://www.w3.org/1999/xlink" x="0px" y="0px"
	 viewBox="0 0 2521 2911" style="enable-background:new 0 0 2521 2911;" xml:space="preserve">
<style type="text/css">
	.st0{fill:#FFFFFF;}
	.st1{fill:#F6120B;}
	.st2{fill:#201D2A;}
	.st3{fill:#DB1F26;}
	.st4{fill:#FDFDFD;}
</style>
<g id="Layer_2_00000113320419449606579020000004488400859101434791_">
</g>
<g>
	<polygon class="st0" points="1267,22 2497.3,732.5 2497.3,2180.6 1267,2895.6 9.3,2180.6 9.3,732.5 	"/>
	<path class="st1" d="M379.7,1771.6l37.7,57c9.9,14.8,18.2,28.5,26.8,43.2h1.7c8.9-15.8,17.5-29.5,26.4-43.9l37.4-56.6h52.1
		l-90.6,128.3l93.3,137.2h-54.9l-39.1-59.7c-10.3-15.4-19.2-30.2-28.5-46h-1c-8.9,15.8-18.2,30.2-28.1,46l-38.4,59.7h-53.2
		l94.3-135.5l-89.9-130h53.8V1771.6z"/>
	<path class="st1" d="M740.9,2037.5l-3.8-33.6h-1.7c-14.7,20.9-43.2,39.5-81.3,39.5c-53.8,0-81.3-37.7-81.3-76.2
		c0-64.2,56.9-99.5,159.8-98.8v-5.5c0-22-6.2-61.4-60.4-61.4c-24.7,0-50.4,7.5-69.3,19.9l-11-31.9c22-14.4,53.8-23.7,87.1-23.7
		c81.3,0,100.8,55.6,100.8,108.8v99.5c0,23,1,45.6,4.5,63.8h-43.6V2037.5z M733.7,1902c-52.8-1-112.5,8.2-112.5,59.7
		c0,31.2,20.9,46,45.6,46c34.6,0,56.6-22,64.1-44.6c1.7-4.8,2.7-10.3,2.7-15.4V1902z"/>
	<path class="st1" d="M840.7,1854.7c0-31.2-0.7-58.3-2.1-83h42.2l1.7,52.1h2.1c12-35.7,41.2-58.3,73.4-58.3c5.5,0,9.3,0.7,13.7,1.7
		v45.6c-4.8-1-9.9-1.7-16.5-1.7c-34,0-58.3,25.7-64.8,62.1c-1,6.5-2.1,14.4-2.1,22.6v141.7h-47.7L840.7,1854.7L840.7,1854.7z"/>
	<path class="st1" d="M1058.5,1697.2c0.7,16.5-11.7,29.5-30.9,29.5c-17.1,0-29.2-13-29.2-29.5c0-17.2,12.7-30.2,30.2-30.2
		C1046.8,1667,1058.5,1680,1058.5,1697.2z M1004.6,2037.5V1772h48.4v265.5H1004.6z"/>
	<path class="st1" d="M1115.4,1843.7c0-27.4-0.7-50.1-2.1-72h42.9l2.7,43.9h1c13-25.4,43.9-50.1,87.8-50.1c36.7,0,94,22,94,113.2
		v158.5h-48.4v-153c0-42.9-15.8-78.6-61.4-78.6c-31.9,0-56.6,22.6-64.8,49.4c-2.1,6.2-3.4,14.4-3.4,22.6v159.9h-48.4L1115.4,1843.7
		L1115.4,1843.7z"/>
	<path class="st1" d="M1631.3,1771.6c-1,19.2-2.1,40.5-2.1,73.1v154.4c0,61.1-12,98.1-37.7,121.4c-25.7,24-63.1,31.9-96.7,31.9
		c-31.9,0-66.9-7.5-88.5-22l12-36.7c17.5,11,44.9,20.9,77.9,20.9c49.4,0,85.7-25.7,85.7-92.6v-29.5h-1
		c-14.7,24.7-43.2,44.6-84.4,44.6c-65.9,0-113.2-55.9-113.2-129.7c0-89.9,58.7-141,119.7-141c46,0,71.3,24,83,46h1l2.1-40.1h42.2
		V1771.6z M1581.5,1876.6c0-8.2-0.7-15.4-2.7-22c-8.9-28.1-32.2-51.1-67.6-51.1c-46,0-78.9,39.1-78.9,100.5
		c0,52.1,26.4,95.4,78.5,95.4c29.5,0,56.6-18.5,66.9-49.4c2.7-8.2,3.8-17.5,3.8-25.7V1876.6z"/>
	<path class="st1" d="M1838.8,2037.5l-3.8-33.6h-1.7c-14.7,20.9-43.2,39.5-81.3,39.5c-53.8,0-81.3-37.7-81.3-76.2
		c0-64.2,56.9-99.5,159.8-98.8v-5.5c0-22-6.2-61.4-60.4-61.4c-24.7,0-50.4,7.5-69.3,19.9l-11-31.9c22-14.4,53.8-23.7,87.1-23.7
		c81.3,0,100.8,55.6,100.8,108.8v99.5c0,23,1,45.6,4.5,63.8h-43.6V2037.5z M1831.6,1902c-52.8-1-112.5,8.2-112.5,59.7
		c0,31.2,20.9,46,45.6,46c34.6,0,56.6-22,64.1-44.6c1.7-4.8,2.7-10.3,2.7-15.4V1902z"/>
	<path class="st1" d="M1938.6,1843.7c0-27.4-0.7-50.1-2.1-72h42.9l2.7,43.9h1c13-25.4,43.9-50.1,87.8-50.1c36.7,0,94,22,94,113.2
		v158.5h-48.4v-153c0-42.9-15.8-78.6-61.4-78.6c-31.9,0-56.6,22.6-64.8,49.4c-2.1,6.2-3.4,14.4-3.4,22.6v159.9h-48.4V1843.7z"/>
	<path class="st1" d="M2419.8,669.7L1467,119.4L1260.2,0l-206.8,119.4L100.5,669.7L0,727.7v1455.7l100.5,58l964.8,557.2l195.2,112.5
		l195.2-112.5l964.8-557.2l100.5-58V727.7L2419.8,669.7z M2419.8,2128.8l-1159.7,669.7L100.5,2128.8V789.1l1159.7-669.7l0,0
		l1159.7,669.7V2128.8z"/>
	<path class="st2" d="M193.4,1196.3c54.5-34.7,109.1-67.6,164.3-99.5c104.6-60.4,211.6-116.6,321.7-166
		c31.9-14.4,63.8-28.8,96.7-41.2c100.2-37.4,201-73.8,305.9-95.7c80.3-16.8,160.9-25.4,243.2-15.1c63.1,7.9,125.2,22.3,186.2,39.8
		c129.7,37.1,254.2,87.1,374.9,146.8c139.9,69,276.1,145.1,407.8,229.2c6.9,4.5,6.9,6.2,0.7,11c-74.8,58.7-154,111.2-237,157.5
		c-81.3,45.6-164,88.2-249.7,124.9c-121.1,51.5-245.2,92.6-374.9,117.3c-51.1,9.6-102.9,16.5-155,20.6c-34.6,2.7-68.9,0.3-103.6-3.8
		c-30.2-3.8-60.7-6.5-90.6-12.7c-71.3-14.8-142.7-30.9-212.3-53.2c-208.2-66.9-400.6-165-581.4-287.2
		C257.2,1246.1,224.7,1222.4,193.4,1196.3z M1244,840.9c-39.4,0.3-65.5,3.4-104.3,14.4c-85.4,24.4-153,74.8-202.4,147.2
		c-52.8,77.2-69.6,163.3-52.5,255.2c17.5,93.7,67.9,167.1,143.7,222.7c76.1,55.9,162.9,76.5,256.6,67.6
		c51.8-4.8,100.8-20.6,146.1-46.7c64.8-37.1,114.2-88.9,146.8-156.1c28.5-59.4,38.8-122.5,31.2-188c-4.8-42.5-17.1-82.7-37-120.4
		c-25.7-48.7-60.7-89.5-105-122.5C1400.8,865.9,1326.4,841.6,1244,840.9z M1537.6,1518.1c3.4-0.7,4.8-1,6.5-1.4
		c35.7-9.9,71-21.3,106-33.3c135.5-46.7,263.1-110.1,387.9-180.1c52.1-29.2,101.9-61.8,151.3-95.7c5.1-3.4,4.1-4.5-0.3-7.5
		c-87.5-53.9-177.3-103.3-268.6-151c-108-56.3-219.9-104.6-335.1-144.1c-10.6-3.8-21.3-7.2-32.2-10.6c-0.3,0.3-0.7,1-1,1.4
		c86.4,86.5,132.7,190.4,130,313.2C1679.6,1332.2,1628.9,1434.1,1537.6,1518.1z M942.9,895.4c-1.4-0.7-2.7,0-4.1,0.3
		c-48.4,15.1-95.7,32.9-142.7,51.1c-115.6,45.3-226.4,100.9-334.8,160.6c-52.1,28.5-103.2,58.7-154.3,89.2c-5.1,3.1-5.5,4.5-0.3,7.9
		c17.5,11.7,34.6,24.4,52.5,35.7c67.2,43.6,136.5,83.7,207.9,120.4c92.6,48,188,89.9,286.7,123.9c31.2,10.6,62.8,20.6,94.7,29.5
		c1.7,0.3,3.1,3.4,4.8,0.7c1-2.1-1.4-3.4-2.7-4.8c-5.1-5.1-10.6-9.9-15.8-15.1c-75.8-77.5-118-170.5-122.4-278.9
		c-2.7-64.5,7.5-126.6,36.4-185.6c24-48.7,53.2-93.3,91.9-131.4C941.2,898.2,942.9,897.5,942.9,895.4z M1551.7,894.7l-0.3-0.3
		l-0.3,0.3c0.3,0,0.3,0.3,0.7,0.3V894.7z"/>
	<path class="st3" d="M1244,840.9c82.3,0.7,156.7,25,223.3,73.8c44.2,32.6,79.6,73.4,105,122.5c19.9,37.7,32.2,77.9,37,120.4
		c7.5,65.9-2.7,128.7-31.2,188c-32.2,67.2-82,119-146.8,156.1c-45.3,26.1-94.3,41.5-146.1,46.7c-93.6,8.9-180.4-11.7-256.6-67.6
		c-75.5-55.6-125.9-129.3-143.7-222.7c-17.1-91.9-0.3-178.4,52.5-255.2c49.7-72.4,117-122.8,202.4-147.2
		C1178.5,844.3,1204.6,841.2,1244,840.9z"/>
	<path class="st4" d="M1551.7,894.7l-0.3,0.3c-0.3,0-0.3-0.3-0.7-0.3l0.3-0.3C1551.4,894.4,1551.7,894.4,1551.7,894.7z"/>
	<path class="st2" d="M1104.1,992.5c4.5-33.6,18.2-62.8,41.5-87.5c2.7-3.1,5.5-6.2,8.2-9.3c1-1,2.4-1.7,4.1-1c1.7,1,0.7,2.4,0.3,3.8
		c-2.4,8.6-8.9,15.1-11.3,23.7c-2.4,8.6-5.1,17.2-7.9,25.7c-1.4,5.1,1,6.9,5.8,5.5c13.7-4.1,26.4-1.4,38.1,6.2
		c4.5,2.7,8.6,2.7,13.7,2.1c30.5-4.8,61.4-5.1,92.3,0.3c53.8,9.9,99.8,35,137.2,74.8c33.3,35.7,53.5,77.9,60.4,126.3
		c0,0.7,0.3,1.4,0.3,2.1c-2.7,19.2,14.1,25.4,24.7,35c26.4,23.7,43.2,52.8,51.4,87.1c0.3,1.7,1.4,3.8-0.7,4.5
		c-2.7,1-3.8-1.4-5.1-3.4c-8.9-13.4-18.9-26.1-30.2-37.4c-6.5-6.2-7.2-5.8-10.3,2.4c-5.8,16.5-18.5,26.1-35,29.8
		c-7.5,1.7-11.3,5.1-14.7,12c-33.6,68.3-87.5,112.5-161.2,131.7c-56.9,14.8-112.5,9.9-166.7-13.4c-1.4-0.7-2.7-1-3.4-1.4
		c-2.7-0.3-4.1,0.3-5.5,1.4c-12.3,11.3-27.8,13.4-43.2,15.8c-27.4,3.8-54.2,1-80.6-7.9c-4.8-1.7-8.6-4.1-13-6.5
		c-1.4-0.7-3.4-1.7-2.7-3.8s2.7-1.4,4.5-1c17.5,4.5,35.3,1,52.8-0.7c6.2-0.7,5.5-3.8,2.7-7.9c-11-15.1-11-31.2-4.1-47.7
		c2.1-5.5,2.1-8.9-1.7-13.7c-24-30.5-39.8-64.8-46.3-103.3c-5.8-34.7-4.8-69,4.8-102.6c9.9-35.3,27.1-66.9,51.8-94.3 M1243.7,969.5
		c-12,0.3-23.3,1.4-34.6,2.7c-8.6,1-8.9,1.4-5.1,8.9c9.6,18.9,6.2,42.5-7.9,58.3c-27.4,30.2-77.2,20.6-91.2-17.8
		c-1.7-5.1-3.1-6.9-8.2-2.7c-14.4,11.3-27.8,23.7-39.1,38.1c-36,44.6-52.5,95.7-49.4,153c2.4,44.6,18.2,84.1,43.9,120.1
		c3.8,5.1,6.5,6.2,12.3,2.1c18.9-14.1,45.3-13.4,64.1,1c18.5,14.1,26.4,39.1,17.5,60.7c-3.1,7.5-1,9.9,5.5,12.7
		c44.2,17.5,89.9,22.6,136.5,13.4c75.8-15.1,132.1-57,167.7-125.9c3.1-5.8,2.4-8.2-4.1-10.6c-25-8.6-39.8-35.7-34-61.4
		c5.5-24.7,26.4-41.9,52.1-41.9c6.5,0,8.2-2.7,7.2-8.2c-1.4-7.5-2.1-15.4-3.8-23c-10.3-45.3-32.9-83.7-66.9-115.6
		C1359.6,991.1,1304.7,971.6,1243.7,969.5z"/>
	<path class="st2" d="M1318.1,1197.3c-0.3,41.2-34.3,73.8-76.5,73.4c-41.5-0.3-75.8-34-75.5-74.1c0.3-40.5,35-73.8,77.2-73.4
		C1284.2,1123.6,1318.5,1157.5,1318.1,1197.3z"/>
</g>
</svg>
