<?xml version="1.0" encoding="utf-8"?>
<!-- Generator: Adobe Illustrator 22.0.1, SVG Export Plug-In . SVG Version: 6.00 Build 0)  -->
<svg version="1.1" id="Layer_1" xmlns="http://www.w3.org/2000/svg" xmlns:xlink="http://www.w3.org/1999/xlink" x="0px" y="0px"
	 viewBox="0 0 735 852" style="enable-background:new 0 0 735 852;" xml:space="preserve">
<style type="text/css">
	.st0{fill:#DB1F26;}
	.st1{fill:#A51D21;}
	.st2{fill:#E6B35A;}
	.st3{fill:#FFFFFF;}
	.st4{fill:none;}
	.st5{fill:#A51A22;}
</style>
<title>yardstick</title>
<polygon class="st0" points="367.5,26 20.8,226.2 20.8,626.5 367.5,826.7 714.2,626.5 714.2,226.2 367.5,26 "/>
<path class="st1" d="M705.6,196.2L427.8,35.8L367.5,1l-60.3,34.8L29.4,196.2L0.1,213.1v424.2l29.3,16.9l281.3,162.4l56.9,32.8
	l56.9-32.8l281.3-162.4l29.3-16.9V213.1L705.6,196.2z M705.6,621.5L367.5,816.7L29.4,621.5V231L367.5,35.8l0,0L705.6,231V621.5z"/>
<path class="st2" d="M367,633.9c0.3-0.3,0.6-0.6,0.9-0.9h-0.3C367.5,633.3,367.3,633.6,367,633.9z"/>
<path class="st3" d="M109.1,305l16.8,45.2c1.7,5.1,3.6,11.1,4.9,15.6h0.3c1.4-4.6,3-10.4,4.9-16l15.2-44.8h14.7L145,359.5
	c-9.9,26.2-16.7,39.7-26.2,47.9c-6.8,6-13.6,8.4-17.1,9l-3.5-11.7c4.5-1.5,8.6-3.8,12.2-6.8c5-4.2,9-9.5,11.7-15.5
	c0.6-1,0.9-2.1,1.1-3.3c-0.1-1.3-0.5-2.5-1-3.6L94,305H109.1z"/>
<path class="st3" d="M215.1,381.5l-1.1-9.6h-0.5c-4.3,6-12.5,11.4-23.4,11.4c-15.5,0-23.4-10.9-23.4-22c0-18.5,16.4-28.6,46-28.4
	v-1.6c0-6.3-1.7-17.7-17.4-17.7c-7,0-13.9,2-19.9,5.7l-3.2-9.2c6.3-4.1,15.5-6.8,25.1-6.8c23.4,0,29.1,16,29.1,31.3v28.6
	c-0.1,6.1,0.3,12.3,1.3,18.3L215.1,381.5z M213.1,342.5c-15.2-0.3-32.4,2.4-32.4,17.2c0,9,6,13.3,13.1,13.3
	c8.3,0.2,15.8-4.9,18.5-12.8c0.5-1.4,0.8-2.9,0.8-4.4V342.5z"/>
<path class="st3" d="M243.9,328.9c0-9-0.2-16.8-0.6-23.9h12.2l0.5,15h0.6c3.5-10.3,11.9-16.8,21.2-16.8c1.3,0,2.7,0.1,4,0.5v13.1
	c-1.6-0.3-3.1-0.5-4.7-0.5c-9.8,0-16.8,7.4-18.6,17.9c-0.4,2.1-0.6,4.3-0.6,6.5v40.8h-13.8V328.9z"/>
<path class="st3" d="M355,269.3v92.4c0,6.8,0.1,14.5,0.6,19.8h-12.5l-0.6-13.3h-0.3c-4.3,8.5-13.6,15-26.1,15
	c-18.5,0-32.7-15.6-32.7-38.9c-0.2-25.4,15.6-41.1,34.3-41.1c11.7,0,19.6,5.5,23.1,11.7h0.3v-45.7H355z M341.1,336.1
	c0-2-0.2-3.9-0.6-5.9c-2-9.4-10.4-16.2-20.1-16.1c-14.4,0-22.9,12.6-22.9,29.5c0,15.5,7.6,28.3,22.6,28.3c9.3,0,17.9-6.2,20.4-16.6
	c0.5-2,0.7-4,0.6-6V336.1z"/>
<path class="st3" d="M371.1,367.3c5.5,3.4,11.8,5.3,18.3,5.5c10.1,0,14.9-5,14.9-11.4c0-6.6-4-10.3-14.2-14.1
	c-13.8-4.9-20.2-12.5-20.2-21.6c0-12.3,10-22.4,26.4-22.4c6.6-0.1,13,1.6,18.8,4.7l-3.5,10.1c-4.7-2.9-10.1-4.4-15.6-4.4
	c-8.2,0-12.8,4.7-12.8,10.4c0,6.3,4.6,9.2,14.5,13c13.3,5,20.1,11.7,20.1,23.1c0,13.4-10.4,22.9-28.6,22.9c-8.4,0-16.1-2.1-21.5-5.2
	L371.1,367.3z"/>
<path class="st3" d="M447.2,283v22h19.9v10.6h-19.9v41.2c0,9.5,2.7,14.9,10.4,14.9c2.7,0,5.4-0.3,8.1-1l0.6,10.4
	c-4,1.4-8.1,2-12.3,1.9c-6.5,0-11.7-2.1-15-5.9c-4-4.1-5.4-10.9-5.4-19.9v-41.7h-11.9V305h11.9v-18.3L447.2,283z"/>
<path class="st3" d="M493.2,283.5c0.2,4.7-3.3,8.5-8.9,8.5c-4.6,0.1-8.3-3.6-8.4-8.2c0-0.1,0-0.2,0-0.4c-0.1-4.7,3.6-8.6,8.2-8.7
	c0.1,0,0.3,0,0.4,0C489.9,274.8,493.2,278.6,493.2,283.5z M477.8,381.5V305h13.9v76.5L477.8,381.5z"/>
<path class="st3" d="M564.2,378.6c-3.6,1.9-11.7,4.4-22,4.4c-23.1,0-38.1-15.6-38.1-39c0-23.5,16.1-40.6,41.1-40.6
	c8.2,0,15.5,2.1,19.3,4l-3.2,10.8c-3.3-1.9-8.5-3.6-16.1-3.6c-17.5,0-27,13-27,28.9c0,17.7,11.4,28.6,26.5,28.6
	c5.9,0,11.7-1.3,17.1-3.8L564.2,378.6z"/>
<path class="st3" d="M589.1,340.1h0.3c1.9-2.7,4.6-6,6.8-8.7l22.4-26.4h16.8l-29.5,31.4l33.7,45h-16.9l-26.4-36.7l-7.1,7.9v28.8
	h-13.7V269.3h13.7V340.1z"/>
<path class="st3" d="M365.5,797.3l4.5,4.5c1,1,1.9,1.9,2.7,2.9h0.1c-0.4-1.2-0.7-2.5-1-3.8l-1.4-6.3l1.6-0.9l4.7,4.3
	c1.1,1,2.1,2,2.9,2.9h0.1c-0.5-1.3-0.9-2.6-1.2-3.9l-1.6-6.1l1.9-1.1l2.7,12.4l-1.7,1l-4.5-4.1c-1-1-2-1.8-2.9-2.9l0,0
	c0.4,1.3,0.8,2.6,1.1,4l1.2,6l-1.7,1l-9.2-8.6L365.5,797.3z"/>
<path class="st3" d="M381.7,787.9l4.5,4.5c1,1,1.9,1.9,2.7,2.9h0.1c-0.4-1.2-0.7-2.5-1-3.8l-1.4-6.3l1.6-0.9l4.7,4.3
	c1.1,1,2.1,2,2.9,2.9h0.1c-0.5-1.3-0.9-2.6-1.2-3.9l-1.6-6.1l1.9-1.1l2.7,12.4l-1.7,1l-4.5-4.1c-1-1-2-1.8-2.9-2.9l0,0
	c0.4,1.3,0.8,2.6,1.1,4l1.2,6l-1.7,1l-9.3-8.7L381.7,787.9z"/>
<path class="st3" d="M397.9,778.5l4.5,4.5c1,1,1.9,1.9,2.7,2.9h0.1c-0.4-1.2-0.7-2.5-1-3.8l-1.4-6.3l1.6-0.9l4.7,4.3
	c1.1,1,2.1,2,2.9,2.9h0.1c-0.5-1.3-0.9-2.6-1.2-3.9l-1.6-6.1l1.9-1.1l2.7,12.4l-1.7,1l-4.5-4.1c-1-1-2-1.8-2.9-2.9l0,0
	c0.4,1.3,0.8,2.6,1.1,4l1.2,5.9l-1.7,1l-9.2-8.6L397.9,778.5z"/>
<path class="st3" d="M417.1,779.7c-0.4-0.7-0.1-1.6,0.6-2c0.7-0.4,1.6-0.1,2,0.6c0.4,0.7,0.1,1.6-0.6,2
	C418.5,780.8,417.6,780.5,417.1,779.7C417.2,779.8,417.1,779.8,417.1,779.7z"/>
<path class="st3" d="M418.5,770.8c-0.7-1.2-1.4-2.3-2-3.2l1.7-1l1.2,2h0.1c-0.4-1.5,0.2-3.2,1.6-4c0.2-0.1,0.4-0.2,0.6-0.2l1,1.8
	c-0.2,0.1-0.5,0.2-0.7,0.3c-1.3,0.8-1.8,2.5-1.1,3.9c0.1,0.3,0.3,0.6,0.4,0.9l3.2,5.6l-1.8,1.1L418.5,770.8z"/>
<path class="st3" d="M428.4,772.1c1,0,2-0.2,3-0.7c1.4-0.8,1.6-1.9,1.1-2.7s-1.4-1.1-3.1-0.8c-2.3,0.4-3.8-0.1-4.5-1.3
	c-1-1.7-0.4-3.9,1.8-5.2c0.9-0.5,1.9-0.8,3-0.8l0.3,1.7c-0.9,0-1.7,0.2-2.5,0.6c-0.9,0.3-1.3,1.4-1,2.3c0,0.1,0,0.1,0.1,0.2
	c0.5,0.9,1.4,0.9,3,0.6c2.2-0.4,3.7,0,4.6,1.5c1.1,1.8,0.4,4-2.1,5.4c-1,0.6-2.2,1-3.4,1L428.4,772.1z"/>
<path class="st3" d="M432.8,754.1l1.8,3l2.7-1.6l0.8,1.4l-2.7,1.6l3.3,5.6c0.8,1.3,1.5,1.8,2.6,1.2c0.4-0.2,0.7-0.5,1-0.8l0.9,1.4
	c-0.4,0.5-0.9,0.9-1.5,1.2c-0.7,0.5-1.7,0.6-2.5,0.4c-1-0.5-1.9-1.3-2.3-2.3l-3.3-5.7l-1.6,0.9l-0.8-1.4l1.6-1l-1.5-2.5L432.8,754.1
	z"/>
<path class="st3" d="M452.6,756.8c0.6,1.1,1.2,2,1.8,2.8l-1.7,1l-1.1-1.6l0,0c0,1.7-0.9,3.2-2.3,4c-1.6,1-4.1,1.2-6.3-2.5l-3.5-6.1
	l1.9-1.1l3.3,5.8c1.1,2,2.5,3,4.3,2c1.1-0.7,1.7-1.9,1.5-3.2c-0.1-0.4-0.2-0.7-0.4-1.1l-3.7-6.4l1.9-1.1L452.6,756.8z"/>
<path class="st3" d="M457.5,737.2l7.4,12.6c0.5,0.9,1.2,2,1.7,2.7l-1.7,1l-1.1-1.8l0,0c0.1,1.7-0.8,3.3-2.4,4.1
	c-2.5,1.5-5.7,0.5-7.6-2.7c-2-3.5-1.1-6.9,1.4-8.3c1.2-0.8,2.8-0.9,4.1-0.2l0,0l-3.6-6.2L457.5,737.2z M460.9,747.5
	c-0.2-0.3-0.3-0.5-0.5-0.8c-1-1.1-2.7-1.4-4-0.6c-2,1.1-2.1,3.5-0.8,5.9c1.2,2.1,3.3,3.3,5.3,2.1c1.3-0.8,2-2.4,1.5-3.9
	c-0.1-0.3-0.2-0.6-0.4-0.9L460.9,747.5z"/>
<path class="st3" d="M463.9,736.1c0.4,0.6,0.2,1.5-0.5,1.9c-0.6,0.4-1.5,0.2-1.9-0.5c-0.4-0.6-0.2-1.4,0.4-1.8c0,0,0.1,0,0.1,0
	c0.6-0.4,1.4-0.2,1.8,0.4C463.8,736,463.9,736,463.9,736.1z M469.6,750.7l-6.1-10.5l1.9-1.1l6.1,10.5L469.6,750.7z"/>
<path class="st3" d="M481,736.9c2.2,3.9,0.5,7.1-2,8.6c-2.8,1.6-6.2,0.8-8.1-2.5c-2-3.5-0.9-6.9,2-8.6S479.1,733.8,481,736.9z
	 M472.8,741.9c1.3,2.3,3.7,3.2,5.5,2.2s2.2-3.6,0.8-5.9c-1-1.8-3.2-3.5-5.5-2.2S471.6,739.9,472.8,741.9L472.8,741.9z"/>
<path class="st3" d="M484.9,740.3c-0.4-0.7-0.1-1.6,0.6-2c0.7-0.4,1.6-0.1,2,0.6c0.4,0.7,0.1,1.6-0.6,2c-0.7,0.4-1.6,0.2-2-0.5
	C484.9,740.4,484.9,740.3,484.9,740.3z"/>
<path class="st3" d="M497.7,733.8c-0.7,1-1.6,1.8-2.6,2.3c-3.1,1.8-6.5,0.9-8.3-2.3c-1.8-2.8-1-6.6,1.8-8.5c0.2-0.1,0.4-0.2,0.6-0.3
	c0.9-0.5,1.9-0.9,3-1l0.4,1.7c-0.9,0-1.7,0.3-2.5,0.8c-2.4,1.4-2.7,3.9-1.4,6.1c1.4,2.4,3.8,3,5.9,1.8c0.8-0.5,1.5-1.1,2-1.9
	L497.7,733.8z"/>
<path class="st3" d="M506.4,722.2c2.2,3.9,0.5,7.1-2,8.6c-2.8,1.7-6.2,0.8-8.1-2.5c-2-3.5-0.9-6.9,2-8.6S504.5,719,506.4,722.2z
	 M498.1,727.1c1.3,2.3,3.7,3.2,5.5,2.2s2.2-3.5,0.8-5.9c-1-1.8-3.2-3.5-5.5-2.2S497,725.1,498.1,727.1z"/>
<path class="st3" d="M507.4,718.5c-0.6-1.1-1.2-2-1.7-2.8l1.7-1l1.1,1.6h0.1c-0.1-1.6,0.8-3.1,2.2-3.8c1.3-0.8,3-0.6,4.2,0.4l0,0
	c0-0.7,0.1-1.4,0.4-2c0.4-0.9,1-1.6,1.9-2.1c1.4-0.8,4-1.1,6.1,2.5l3.6,6.2l-1.9,1.1l-3.4-5.9c-1.2-2-2.6-2.8-4.2-1.9
	c-1,0.6-1.5,1.8-1.2,3c0.1,0.4,0.2,0.7,0.4,1l3.8,6.5l-1.9,1.1l-3.6-6.3c-1-1.7-2.4-2.5-3.9-1.6c-1.1,0.7-1.6,2-1.2,3.3
	c0.1,0.4,0.2,0.7,0.4,1l3.7,6.3l-1.9,1.1L507.4,718.5z"/>
<path class="st4" d="M325.2,410.2L325.2,410.2z"/>
<path class="st4" d="M318,409.5c1-0.1,2-0.1,3-0.1s2.2-0.1,3.4-0.1s2.4,0,3.7,0s2.7,0,3.9,0s2.4,0,3.5,0.1h0.2l0,0
	c-0.1-0.1-0.2-0.1-0.4-0.1l-0.7-0.1c-0.3,0-0.6-0.1-1-0.1s-0.8-0.1-1.3-0.1l-1.6-0.1h-2h-2.4h-2.5h-2.1l-1.8,0.1c-0.5,0-1,0-1.5,0.1
	s-0.8,0.1-1.1,0.1l-0.8,0.1c-0.2,0-0.4,0.1-0.5,0.1c-0.1,0-0.2,0.1-0.2,0.1c0,0,0,0.1,0,0.1C316.5,409.6,317.2,409.5,318,409.5z"/>
<path class="st4" d="M296,416.2c0.8,0,1.7-0.1,2.5-0.1s1.7,0,2.6,0c1.3,0,2.4,0,3.5,0h0.8l-0.6-0.1c-0.3,0-0.7-0.1-1.1-0.1l-1.2-0.1
	l-1.4,0h-1.6h-1.4h-1.3l-1.1,0.1l-1,0.1l-0.8,0.1l-0.6,0.1c-0.1,0-0.3,0.1-0.4,0.1l0,0l0.8-0.1C294.3,416.3,295.1,416.2,296,416.2z"
	/>
<path class="st4" d="M302.9,411.4c-1.3,0-2.6-0.1-3.7-0.1h0.1c0.3,0.1,0.6,0.1,0.8,0.1c0.4,0,0.8,0.1,1.2,0.1s1.1,0.1,1.8,0.1
	l2.6,0.1c1,0,2.2,0,3.5,0.1l4.3,0c-0.7-0.1-1.4-0.1-1.9-0.2l-0.8-0.1h-2.1C306.7,411.4,304.7,411.4,302.9,411.4z"/>
<path class="st4" d="M317.8,416.1c0.6-0.1,1.3-0.1,2-0.1l2.2-0.1l2.3-0.1h2.5c1.2,0,2.5,0,3.6,0h1.5l-0.6-0.1l-1.4-0.1l-1.6-0.1
	l-1.8,0h-4.1l-1.8,0l-1.6,0.1l-1.4,0.1c-0.4,0-0.8,0.1-1.1,0.1l-0.8,0.1c-0.2,0-0.4,0.1-0.5,0.2c-0.1,0-0.2,0.1-0.2,0.2l0,0l1.2-0.2
	C316.6,416.2,317.1,416.2,317.8,416.1z"/>
<path class="st4" d="M312.8,417h-0.4l0.3,0.1L312.8,417z"/>
<path class="st4" d="M328.8,411.4c-1.8,0-3.8,0.1-5.9,0.1h-3.8h0.2c0.4,0,0.8,0.1,1.3,0.1l1.6,0.1h1.9h4.6l2.1,0l1.9-0.1l1.6-0.1
	c0.5,0,0.9-0.1,1.3-0.1s0.7-0.1,0.9-0.1c0.2,0,0.4-0.1,0.6-0.1c0.1,0,0.1-0.1,0.2-0.1c-1,0.1-2.2,0.1-3.5,0.2
	C332.2,411.2,330.6,411.3,328.8,411.4z"/>
<polygon class="st4" points="287.8,495.4 289,492.6 267,492.6 "/>
<polygon class="st5" points="656.8,652.2 652.8,652.2 645.1,656.7 89.9,656.7 82.2,652.2 81.1,652.2 91.4,658.2 646.6,658.2 "/>
<polygon class="st5" points="608.5,600.3 609.7,601.8 707.1,601.8 707.1,597.6 705.6,597.6 705.6,600.3 "/>
<polygon class="st5" points="707.1,623.2 707.1,623.2 703.1,623.2 699.3,625.4 680.2,625.4 681.7,626.9 700.8,626.9 "/>
<polygon class="st5" points="633.2,578 634.7,579.5 707.1,579.5 707.1,576.8 705.6,576.8 705.6,578 "/>
<polygon class="st5" points="686.6,568.2 685.4,567.2 685,567.2 688.1,569.7 707.1,569.7 707.1,567.2 705.6,567.2 705.6,568.2 "/>
<polygon class="st5" points="513,559.6 513.8,561.1 707.1,561.1 707.1,558 705.6,558 705.6,559.6 "/>
<polygon class="st5" points="127.2,597.6 124.5,597.6 122.3,600.3 30.9,600.3 30.9,601.8 123.8,601.8 "/>
<polygon class="st5" points="50.3,625.4 35.7,625.4 31.9,623.2 30.9,623.2 30.9,623.2 37.2,626.9 51.8,626.9 55.4,623.2 52.4,623.2 
	"/>
<polygon class="st5" points="30.9,578 30.9,579.5 98.8,579.5 101.4,576.8 98.4,576.8 97.3,578 "/>
<polygon class="st5" points="30.9,568.2 30.9,569.7 45.4,569.7 48.5,567.2 45.1,567.2 43.9,568.2 "/>
<polygon class="st5" points="30.9,559.6 30.9,561.1 219.7,561.1 221.5,558 219.1,558 218.2,559.6 "/>
<polygon class="st5" points="674.4,504.8 59.1,504.8 56.7,506.3 676.8,506.3 "/>
<polygon class="st5" points="598.4,542.9 599.9,544.4 707.1,544.4 707.1,542.3 705.6,542.3 705.6,542.9 "/>
<polygon class="st5" points="666.5,552.2 707.1,552.2 707.1,550.1 705.6,550.1 705.6,550.8 665,550.8 664.2,550.1 663.9,550.1 "/>
<polygon class="st5" points="647.7,537 707.1,537 707.1,535.1 705.6,535.1 705.6,535.5 646.2,535.5 645.7,535.1 645.3,535.1 "/>
<polygon class="st5" points="573.1,517.3 694.2,517.3 693.9,517.2 691.8,515.8 571.6,515.8 "/>
<polygon class="st5" points="629.3,521.8 629,521.8 631.1,523.5 703.9,523.5 701.5,522 629.6,522 "/>
<polygon class="st5" points="614.8,510 614.5,510 616.3,511.5 685,511.5 682.7,510 614.8,510 "/>
<polygon class="st5" points="549.1,528.8 550.4,530.3 707.1,530.3 707.1,527.9 705.6,527.9 705.6,528.8 "/>
<polygon class="st5" points="30.9,542.9 30.9,544.4 133.6,544.4 135.6,542.3 132.6,542.3 132.1,542.9 "/>
<polygon class="st5" points="66.9,552.2 69.6,550.1 66.3,550.1 65.4,550.8 30.9,550.8 30.9,552.2 "/>
<polygon class="st5" points="30.9,535.5 30.9,537 85.8,537 88.2,535.1 84.8,535.1 84.3,535.5 "/>
<polygon class="st5" points="41.7,515.8 39.3,517.3 160.4,517.3 162,515.7 159,515.7 158.9,515.8 "/>
<polygon class="st5" points="32,522 30.9,522.7 30.9,523.5 102.4,523.5 104.5,521.8 101.2,521.8 100.9,522 "/>
<polygon class="st5" points="50.8,510 48.5,511.5 117.2,511.5 119.1,510 115.7,510 115.7,510 "/>
<polygon class="st5" points="30.9,528.8 30.9,530.3 183.1,530.3 185.1,527.9 182.4,527.9 181.6,528.8 "/>
<polygon class="st5" points="514.3,486.9 646.3,486.9 644,485.4 513.1,485.4 "/>
<polygon class="st5" points="660.4,495.9 658.4,494.6 550.6,494.6 551.8,495.9 "/>
<polygon class="st5" points="603.1,500.8 668.2,500.8 666.1,499.5 601.4,499.5 "/>
<polygon class="st5" points="591.2,491.2 653,491.2 651.1,490 589.7,490 "/>
<polygon class="st5" points="580.5,482.5 639.3,482.5 637.6,481.4 579.1,481.4 "/>
<polygon class="st5" points="220.5,485.4 217.7,485.4 217.7,485.4 89.5,485.4 87.2,486.9 219.2,486.9 "/>
<polygon class="st5" points="182.9,494.6 75.1,494.6 73.1,495.9 181.7,495.9 "/>
<polygon class="st5" points="132.1,499.5 67.4,499.5 65.3,500.8 130.4,500.8 "/>
<polygon class="st5" points="143.8,490 82.4,490 80.5,491.2 142.3,491.2 "/>
<polygon class="st5" points="154.4,481.4 95.9,481.4 94.2,482.5 153,482.5 "/>
<polygon class="st5" points="534.5,478.4 633,478.4 632,477.8 631.3,477.4 533.5,477.4 "/>
<polygon class="st5" points="570.7,474.6 626.9,474.6 625.3,473.6 569.5,473.6 "/>
<polygon class="st5" points="621.3,471 619.3,469.8 460.5,469.8 461.2,471 "/>
<polygon class="st5" points="200,477.4 102.2,477.4 100.5,478.4 199,478.4 "/>
<polygon class="st5" points="164,473.6 108.2,473.6 106.6,474.6 162.8,474.6 "/>
<polygon class="st5" points="273,469.8 114.2,469.8 112.2,471 272.2,471 "/>
<polygon class="st5" points="581.4,445.7 581.3,445.6 152.2,445.6 150.8,446.5 582.7,446.5 "/>
<polygon class="st5" points="520.2,464 610.2,464 609.3,463.4 608.8,463.1 519.3,463.1 "/>
<polygon class="st5" points="560.7,466.4 561.8,467.4 615.5,467.4 614.5,466.7 614.1,466.4 "/>
<polygon class="st5" points="553.7,460.7 605.1,460.7 604,460 603.8,459.9 552.6,459.9 "/>
<polygon class="st5" points="508.1,451.8 591,451.8 590.3,451.3 589.9,451 507.4,451 "/>
<polygon class="st5" points="546.1,454.6 595.5,454.6 594.3,453.9 545.2,453.9 "/>
<polygon class="st5" points="539.2,449 586.7,449 585.9,448.5 585.6,448.3 538.3,448.3 "/>
<polygon class="st5" points="490.1,457.8 600.5,457.8 598.8,456.7 489.2,456.7 "/>
<polygon class="st5" points="214.2,463.1 124.7,463.1 123.3,464 213.3,464 "/>
<polygon class="st5" points="172.8,466.4 119.4,466.4 118,467.4 171.7,467.4 "/>
<polygon class="st5" points="180.9,459.9 129.7,459.9 128.4,460.7 179.9,460.7 "/>
<polygon class="st5" points="226.1,451 143.6,451 142.5,451.8 225.4,451.8 "/>
<polygon class="st5" points="188.3,453.9 139.2,453.9 137.9,454.6 187.4,454.6 "/>
<polygon class="st5" points="195.2,448.3 147.9,448.3 146.8,449 194.3,449 "/>
<polygon class="st5" points="244.3,456.7 134.8,456.7 133.1,457.8 243.4,457.8 "/>
<polygon class="st5" points="472.7,436.8 567.5,436.8 566.2,436 472.1,436 "/>
<polygon class="st5" points="497.8,441.4 574.7,441.4 573.7,440.7 497.2,440.7 "/>
<polygon class="st5" points="532.8,443.8 578.5,443.8 577.5,443.2 532,443.2 "/>
<polygon class="st5" points="526.8,439 570.9,439 570,438.4 526.1,438.4 "/>
<polygon class="st5" points="488.9,432.4 560.5,432.4 559.7,431.8 488.3,431.8 "/>
<polygon class="st5" points="521.3,434.5 563.9,434.5 563.6,434.4 563,433.9 520.6,433.9 "/>
<polygon class="st5" points="516.1,430.3 557.3,430.3 556.4,429.8 515.5,429.8 "/>
<polygon class="st5" points="554.1,428.3 553.6,428 553.2,427.7 436,427.7 436.4,428.4 514.1,428.4 514,428.3 "/>
<polygon class="st5" points="261.4,436 167.2,436 166,436.8 260.8,436.8 "/>
<polygon class="st5" points="236.3,440.7 159.8,440.7 158.8,441.4 235.7,441.4 "/>
<polygon class="st5" points="201.5,443.2 156,443.2 155,443.8 200.7,443.8 "/>
<polygon class="st5" points="207.4,438.4 163.5,438.4 162.6,439 206.6,439 "/>
<polygon class="st5" points="245.2,431.8 173.9,431.8 173,432.4 244.6,432.4 "/>
<polygon class="st5" points="212.9,433.9 170.5,433.9 169.6,434.5 212.2,434.5 "/>
<polygon class="st5" points="218,429.8 177.1,429.8 176.2,430.3 217.4,430.3 "/>
<polygon class="st5" points="216.4,428.4 297.1,428.4 297.5,427.7 180.3,427.7 179.4,428.3 216.5,428.3 "/>
<path class="st5" d="M233.5,414.5h83.8l1-0.1l2.2-0.1l2.3-0.1h2.5c1.2,0,2.5,0,3.6,0s2.3,0.1,3.3,0.1l1.8,0.1h163l-0.5-0.4h35.3
	l-0.2-0.1H201.9l-0.2,0.1H234L233.5,414.5z"/>
<polygon class="st5" points="548,424.4 547.4,424 480.6,424 481.1,424.5 509.4,424.5 509.2,424.4 "/>
<polygon class="st5" points="550.3,425.9 510.7,425.9 511.1,426.2 550.8,426.2 "/>
<polygon class="st5" points="544.6,422.3 506.2,422.3 506.5,422.5 545,422.5 "/>
<polygon class="st5" points="536.8,417.3 536.6,417.2 473.8,417.2 474.2,417.6 500.8,417.6 500.5,417.3 "/>
<polygon class="st5" points="539.2,418.8 502,418.8 502.1,418.9 539.4,418.9 "/>
<polygon class="st5" points="534.1,415.6 498,415.6 498.1,415.7 534.3,415.7 "/>
<polygon class="st5" points="542.2,420.8 541.8,420.5 541.7,420.4 459.1,420.4 459.6,421.1 505.1,421.1 504.7,420.8 "/>
<polygon class="st5" points="221.1,424.5 252.4,424.5 252.9,424 186.1,424 185.5,424.4 221.3,424.4 "/>
<polygon class="st5" points="222.8,425.9 183.2,425.9 182.7,426.2 222.4,426.2 "/>
<polygon class="st5" points="227.3,422.3 188.9,422.3 188.4,422.5 226.9,422.5 "/>
<polygon class="st5" points="229.7,417.6 259.2,417.6 259.7,417.2 196.9,417.2 196.6,417.3 230,417.3 "/>
<polygon class="st5" points="231.5,418.8 194.3,418.8 194.1,418.9 231.4,418.9 "/>
<polygon class="st5" points="235.5,415.6 199.4,415.6 199.2,415.7 235.4,415.7 "/>
<polygon class="st5" points="225.4,421.1 273.9,421.1 274.4,420.4 191.8,420.4 191.3,420.8 225.8,420.8 "/>
<polygon class="st5" points="489.3,408.3 449,408.3 449.4,408.8 523.4,408.8 523.1,408.6 489.7,408.6 "/>
<polygon class="st5" points="492.8,411.1 467.8,411.1 468.2,411.5 527.7,411.5 527.6,411.5 493.2,411.5 "/>
<polygon class="st5" points="491.2,410.1 525.4,410.1 525.3,410 491.1,410 "/>
<polygon class="st5" points="487.8,407.4 521.1,407.4 521,407.3 487.7,407.3 "/>
<polygon class="st5" points="210.4,408.6 210.1,408.8 284.1,408.8 284.5,408.3 241.2,408.3 240.8,408.6 "/>
<polygon class="st5" points="205.9,411.5 205.8,411.5 265.3,411.5 265.7,411.1 237.7,411.1 237.3,411.5 "/>
<polygon class="st5" points="208.1,410.1 242.3,410.1 242.4,410 208.2,410 "/>
<polygon class="st5" points="212.4,407.4 245.7,407.4 245.8,407.3 212.5,407.3 "/>
<path class="st5" d="M174.5,687.6l-0.2-0.2L174.5,687.6L174.5,687.6z"/>
<path class="st5" d="M248.1,693.2c-1.1-0.7-2.3-1.3-3.5-1.8c-1.5-0.6-3-1.1-4.5-1.5c-1.8-0.4-3.6-0.8-5.5-1c-2-0.3-4.1-0.5-6.4-0.6
	s-4.7-0.2-7.3-0.2s-4.8,0.1-7.1,0.2s-4.4,0.3-6.5,0.6s-4,0.6-5.9,1s-3.6,0.8-5.3,1.4s-3.2,1.1-4.6,1.7c-1.2,0.5-2.4,1.2-3.6,1.9
	c-0.9,0.6-1.8,1.3-2.6,2.1c-0.7,0.7-1.2,1.4-1.6,2.3c-0.2,0.5-0.4,1.1-0.6,1.6c-0.1,0.6-0.2,1.2-0.3,1.8c-0.1,0.7-0.1,1.3,0,2
	c0.1,0.7,0.2,1.4,0.4,2.2l-7.4-0.4l-48.1-27.8l-1,0.1l50.6,29.2l7.4,0.4c-0.2-0.7-0.3-1.4-0.4-2.2c-0.1-0.7-0.1-1.3,0-2
	c0-0.6,0.1-1.2,0.3-1.8c0.1-0.6,0.3-1.1,0.6-1.6c0.4-0.8,0.9-1.6,1.6-2.3c0.8-0.8,1.6-1.5,2.6-2.1c1.1-0.7,2.3-1.3,3.6-1.9
	c1.3-0.6,2.8-1.1,4.6-1.7c1.7-0.5,3.4-1,5.3-1.4s3.8-0.7,5.9-1s4.2-0.5,6.5-0.6s4.6-0.2,7.1-0.2s5,0.1,7.3,0.2s4.4,0.3,6.4,0.6
	c1.8,0.2,3.7,0.6,5.5,1c1.6,0.4,3.1,0.9,4.6,1.5c1.2,0.5,2.4,1.1,3.5,1.8c0.4,0.2,0.7,0.5,1,0.7l-0.2-0.3
	C249.7,694.4,248.9,693.8,248.1,693.2z"/>
<path class="st5" d="M230.3,730c4.5-0.5,8.7-1.2,12.8-2.1c4.1-0.8,7.9-1.8,11.6-3c3.5-1.1,6.9-2.3,10.3-3.8c3-1.3,5.8-2.7,8.5-4.4
	c2.3-1.4,4.4-3,6.4-4.8c1.7-1.5,3.1-3.3,4.2-5.2c1-1.7,1.8-3.6,2.2-5.6c0.4-1.9,0.4-3.8,0-5.7c-0.5-1.9-1.3-3.6-2.5-5.1
	c-0.7-0.9-1.5-1.7-2.4-2.5c0.3,0.3,0.6,0.7,0.9,1c1.2,1.5,2,3.2,2.5,5.1c0.4,1.9,0.4,3.8,0,5.7c-0.4,2-1.2,3.9-2.2,5.6
	c-1.2,1.9-2.6,3.7-4.2,5.2c-2,1.8-4.1,3.4-6.4,4.8c-2.7,1.7-5.6,3.2-8.5,4.4c-3.4,1.4-6.8,2.7-10.3,3.8c-3.7,1.1-7.5,2.1-11.6,3
	c-4.1,0.9-8.3,1.6-12.8,2.1c-4,0.5-8.1,0.8-12.3,1.1l-0.1,0.8l1.3,0.8C222,730.9,226.2,730.5,230.3,730z"/>
<path class="st5" d="M333.4,454.8c0.7-0.2,1.3-0.4,2-0.6c0.5-0.2,0.9-0.4,1.3-0.7c0.3-0.2,0.4-0.4,0.5-0.7c0.1-0.3,0-0.6-0.2-0.8
	c-0.3-0.3-0.7-0.5-1.2-0.7l0,0c-0.1,0.3-0.3,0.6-0.5,0.7c-0.4,0.3-0.8,0.5-1.3,0.7c-0.7,0.2-1.3,0.5-2,0.6c-0.8,0.2-1.7,0.4-2.8,0.6
	s-2.2,0.3-3.4,0.5s-2.5,0.3-3.9,0.4s-2.8,0.2-4.3,0.3c-1.3,0-2.6,0.1-4,0.1l0.7,1.5c1.7,0,3.3-0.1,4.8-0.1s3-0.1,4.3-0.3
	s2.7-0.2,3.9-0.4s2.4-0.3,3.4-0.5S332.6,455,333.4,454.8z"/>
<path class="st5" d="M323.5,451.3c0-0.1,0-0.3-0.1-0.3c-0.2-0.1-0.4-0.2-0.6-0.3c-0.3-0.1-0.7-0.2-1-0.3c-0.4-0.1-0.9-0.2-1.4-0.2
	s-1.1-0.1-1.8-0.2s-1.4-0.1-2.1-0.1s-1.6-0.1-2.4-0.1s-1.8,0-2.7,0s-1.8,0-2.6,0l-2.4,0.1c-0.7,0-1.4,0.1-2.1,0.1s-1.3,0.1-1.8,0.2
	s-1.1,0.1-1.5,0.2c-0.4,0.1-0.8,0.1-1.1,0.2c-0.3,0.1-0.5,0.2-0.7,0.3c-0.1,0.1-0.3,0.2-0.3,0.3c0,0.1,0,0.1,0,0.2
	c0,0.1,0,0.2,0.1,0.2c0.1,0.1,0.1,0.2,0.2,0.3c0.1,0.1,0.2,0.2,0.4,0.3l-12-0.2c0.1-0.1,0.1-0.3,0.1-0.4c0-0.2-0.1-0.3-0.3-0.4
	c-0.2-0.1-0.4-0.2-0.7-0.3c-0.3-0.1-0.7-0.2-1-0.3c-0.4-0.1-0.9-0.1-1.4-0.2s-1-0.1-1.6-0.1s-1.2-0.1-1.9-0.1s-1.4,0-2.1,0h-1.8
	l-1.7,0.1c-0.5,0-1,0.1-1.5,0.1s-0.9,0.1-1.3,0.1s-0.8,0.1-1.1,0.2s-0.6,0.1-0.9,0.2c-0.2,0.1-0.4,0.1-0.6,0.2
	c-0.1,0.1-0.2,0.2-0.3,0.3c-0.1,0.1-0.1,0.2,0,0.3c0.1,0.1,0.2,0.2,0.3,0.2c0.2,0.1,0.4,0.2,0.7,0.2c0.3,0.1,0.7,0.2,1,0.2l0.4,0.1
	h0.1c0.2-0.1,0.5-0.1,0.9-0.2s0.7-0.1,1.1-0.2s0.9-0.1,1.3-0.1s1-0.1,1.5-0.1l1.7-0.1h1.8c0.8,0,1.5,0,2.1,0c0.7,0,1.3,0,1.9,0.1
	s1.1,0.1,1.6,0.1s1,0.1,1.4,0.2c0.3,0.1,0.7,0.2,1,0.3c0.2,0.1,0.5,0.2,0.7,0.3c0.1,0.1,0.2,0.2,0.3,0.4c0,0.2,0,0.3-0.1,0.4l12,0.2
	c-0.1-0.1-0.2-0.2-0.4-0.3c-0.1-0.1-0.2-0.2-0.2-0.3c-0.1-0.1-0.1-0.2-0.1-0.2c0-0.1,0-0.1,0-0.2c0.1-0.1,0.2-0.2,0.3-0.3
	c0.2-0.1,0.5-0.2,0.7-0.3c0.4-0.1,0.7-0.2,1.1-0.2c0.4-0.1,0.9-0.2,1.5-0.2s1.2-0.1,1.8-0.2s1.4-0.1,2.1-0.1l2.4-0.1
	c0.8,0,1.7,0,2.6,0s1.9,0,2.7,0s1.7,0,2.4,0.1s1.5,0.1,2.1,0.1s1.2,0.1,1.8,0.2c0.3,0,0.6,0.1,0.9,0.1c0.2-0.1,0.3-0.1,0.5-0.2
	C323.4,451.6,323.5,451.4,323.5,451.3z"/>
<path class="st5" d="M271.8,454.8c-1,0-2-0.1-2.9-0.1c-0.9-0.1-1.8-0.1-2.5-0.2s-1.5-0.1-2.2-0.2s-1.3-0.2-1.8-0.2s-1.1-0.2-1.6-0.3
	s-0.9-0.2-1.3-0.3s-0.6-0.2-0.8-0.3c0,0.1,0,0.1,0,0.2c0,0.2,0,0.3,0.1,0.4c0.1,0.2,0.3,0.3,0.4,0.4c0.2,0.2,0.5,0.3,0.8,0.4
	c0.3,0.1,0.7,0.3,1.1,0.4c0.4,0.1,0.8,0.2,1.3,0.3c0.5,0.1,1,0.2,1.6,0.3s1.2,0.2,1.8,0.2s1.4,0.1,2.2,0.2s1.6,0.1,2.5,0.2
	s1.9,0.1,2.9,0.1l3.3,0.1l3.6-2.1c-0.8,0-1.6,0-2.4-0.1l-1.5-0.1l-1.2,0.7L271.8,454.8z"/>
<path class="st5" d="M340.1,417.6c-0.6,0.1-1.3,0.2-2.1,0.3s-1.6,0.2-2.5,0.3l-0.9,0.1h0l-0.7,0.1c-0.3,0-0.6,0.1-1,0.1
	s-0.8,0.1-1.3,0.1s-1,0.1-1.5,0.1l-1.7,0.1h-2l0.9,1.2l3.6-0.1c1.1,0,2.2-0.1,3.2-0.1s2-0.1,2.9-0.2s1.8-0.2,2.5-0.3
	s1.5-0.2,2.1-0.3c0.5-0.1,1-0.2,1.5-0.4c0.3-0.1,0.6-0.2,0.9-0.4c0.2-0.1,0.3-0.2,0.4-0.4c0-0.2,0-0.3-0.2-0.5
	c-0.3-0.2-0.6-0.3-0.9-0.4c-0.2-0.1-0.5-0.1-0.8-0.2c-0.3,0.2-0.6,0.3-0.9,0.4C341.1,417.4,340.6,417.5,340.1,417.6z"/>
<path class="st5" d="M292.7,418.4l-2-0.1c-0.6,0-1.1-0.1-1.7-0.1l-1.4-0.1c-0.4,0-0.9-0.1-1.2-0.2s-0.7-0.1-1-0.2l0,0
	c-0.2,0.1-0.3,0.2-0.4,0.3c-0.1,0.1-0.1,0.2-0.1,0.3c0,0.1,0.1,0.2,0.1,0.2c0.1,0.1,0.2,0.2,0.4,0.2c0.2,0.1,0.4,0.2,0.6,0.2
	l0.9,0.2c0.3,0.1,0.7,0.1,1,0.2s0.8,0.1,1.2,0.2l1.4,0.1c0.5,0,1.1,0.1,1.7,0.1l2,0.1l2.2,0.1l2.5,0.1l2.5-1.2c-0.6,0-1.2,0-1.8,0
	l-1.5-0.1l-1.3-0.1c-0.4,0-0.7-0.1-1-0.1s-0.5-0.1-0.7-0.1H295L292.7,418.4z"/>
<path class="st5" d="M332.3,416.9l0.7-0.1c0.2,0,0.3-0.1,0.5-0.2c0.1,0,0.2-0.1,0.2-0.2c0-0.1,0-0.1-0.1-0.2
	c-0.1-0.1-0.3-0.1-0.4-0.2c-0.2,0-0.5-0.1-0.8-0.1l-0.5-0.1h-1.5c-1.1,0-2.4,0-3.6,0h-2.5l-2.3,0.1l-2.2,0.1c-0.7,0-1.4,0.1-2,0.1
	s-1.2,0.1-1.8,0.2l-1.2,0.2c0,0,0,0.1,0,0.1c0,0.1,0,0.1,0.1,0.1l0.2,0.1l0.3,0.2h-2.7l-0.1,0l-0.3-0.1l-6-0.1
	c0.1-0.1,0.1-0.2,0-0.2c-0.1-0.1-0.1-0.2-0.2-0.2c-0.2-0.1-0.3-0.1-0.5-0.2h-0.2h-0.8c-1.1,0-2.3,0-3.5,0c-0.9,0-1.8,0-2.6,0
	s-1.7,0-2.5,0.1s-1.6,0.1-2.4,0.1l-0.8,0.1c-0.1,0-0.1,0.1-0.2,0.1c0,0,0,0.1,0,0.2c0,0,0,0,0,0c0.1,0.1,0.2,0.1,0.3,0.1
	c0.2,0.1,0.3,0.1,0.5,0.1c0.3,0.1,0.5,0.1,0.8,0.1c0.3,0,0.7,0.1,1,0.1l1.3,0.1l1.5,0.1h0.9h0.6h1.5h1.6l1.4,0l1.2,0.1
	c0.4,0,0.7,0.1,1.1,0.1s0.6,0.1,0.8,0.1c0.2,0,0.4,0.1,0.5,0.2c0.1,0,0.2,0.1,0.2,0.2c0,0.1,0,0.2,0,0.2l9,0.1l-0.3-0.2l-0.2-0.1
	c0,0-0.1-0.1-0.1-0.1c0,0,0-0.1,0-0.1c0.1-0.1,0.1-0.1,0.2-0.2c0.2-0.1,0.3-0.1,0.5-0.2l0.8-0.1c0.3,0,0.7-0.1,1.1-0.1l1.4-0.1
	l1.6-0.1l1.8,0h4.1l1.8,0h0.8l0.7-0.1C331.7,417,332,417,332.3,416.9z"/>
<path class="st5" d="M225.6,527.6c-1.5-0.1-3-0.2-4.3-0.3s-2.6-0.2-3.7-0.4s-2.2-0.3-3.1-0.5s-1.8-0.3-2.6-0.5s-1.5-0.4-2.2-0.6
	c-0.6-0.2-1.2-0.4-1.8-0.7c-0.3-0.2-0.7-0.4-1-0.6c0.1,0.1,0.1,0.3,0.2,0.4c0.3,0.3,0.6,0.6,0.9,0.9c0.4,0.3,0.9,0.6,1.4,0.8
	c0.6,0.3,1.2,0.5,1.8,0.7c0.7,0.2,1.4,0.4,2.2,0.6s1.7,0.4,2.6,0.5s2,0.3,3.1,0.5s2.4,0.3,3.7,0.4s2.8,0.2,4.3,0.3s3.2,0.2,4.9,0.3
	l6.3-4.6c-1.2,0-2.3-0.1-3.4-0.1l-4.4,3.3C228.7,527.8,227.1,527.7,225.6,527.6z"/>
<path class="st5" d="M249.2,519c-0.5-0.2-1-0.4-1.4-0.6c-0.6-0.2-1.3-0.3-1.9-0.4c-0.7-0.1-1.5-0.2-2.3-0.3s-1.8-0.1-2.7-0.2
	s-2-0.1-3.1-0.1c-0.9,0-1.9,0-2.7,0s-1.7,0.1-2.5,0.1s-1.5,0.1-2.3,0.2s-1.4,0.2-2,0.3s-1.2,0.2-1.7,0.4s-1,0.3-1.4,0.5
	c-0.4,0.1-0.7,0.3-1,0.5c-0.2,0.2-0.4,0.4-0.6,0.6c-0.1,0.2-0.2,0.4-0.2,0.6c0.1,0.2,0.2,0.4,0.4,0.5c0.3,0.2,0.6,0.4,0.9,0.5
	l0.3,0.1c0-0.1,0.1-0.2,0.1-0.2c0.2-0.2,0.4-0.4,0.6-0.6c0.3-0.2,0.6-0.4,1-0.5c0.4-0.2,0.9-0.3,1.4-0.5s1.1-0.3,1.7-0.4
	s1.3-0.2,2-0.3s1.5-0.2,2.3-0.2s1.6-0.1,2.5-0.1s1.8,0,2.7,0c1.1,0,2.1,0,3.1,0.1s1.9,0.1,2.7,0.2s1.6,0.2,2.3,0.3
	c0.7,0.1,1.3,0.3,1.9,0.4c0.3,0.1,0.7,0.2,1,0.4c0-0.2-0.1-0.5-0.2-0.6C249.8,519.4,249.6,519.2,249.2,519z"/>
<path class="st5" d="M303.5,519.1c-0.2-0.3-0.5-0.5-0.8-0.7c-0.4-0.2-0.9-0.4-1.4-0.6c-0.7-0.2-1.4-0.4-2-0.5
	c-0.8-0.2-1.6-0.3-2.6-0.4s-2-0.2-3.1-0.3s-2.3-0.1-3.5-0.2s-2.6-0.1-4-0.1s-2.6,0-3.9,0.1s-2.4,0.1-3.5,0.2s-2.1,0.2-3.1,0.3
	s-1.9,0.3-2.8,0.4s-1.6,0.3-2.3,0.5c-0.6,0.2-1.2,0.3-1.7,0.6c-0.4,0.2-0.8,0.4-1.2,0.6c-0.3,0.2-0.5,0.4-0.6,0.7
	c-0.1,0.2-0.1,0.3-0.1,0.5c0,0.2,0,0.4,0.1,0.5c0.1,0.2,0.1,0.4,0.2,0.6c0.1,0.2,0.3,0.4,0.4,0.6l-15.9-0.5c0.1,0.2,0.1,0.3,0.1,0.5
	c0,0.3-0.1,0.7-0.3,0.9l17.6,0.5c-0.2-0.2-0.3-0.4-0.4-0.6c-0.1-0.2-0.2-0.4-0.2-0.6c0-0.2-0.1-0.4-0.1-0.5c0-0.2,0-0.3,0.1-0.5
	c0.1-0.3,0.4-0.5,0.6-0.7c0.4-0.3,0.8-0.5,1.2-0.6c0.6-0.2,1.1-0.4,1.7-0.6c0.7-0.2,1.4-0.3,2.3-0.5s1.8-0.3,2.8-0.4s2-0.2,3.1-0.3
	s2.3-0.1,3.5-0.2s2.5-0.1,3.9-0.1s2.8,0,4,0.1s2.4,0.1,3.5,0.2s2.1,0.2,3.1,0.3s1.8,0.3,2.6,0.4c0.7,0.1,1.4,0.3,2,0.5
	c0.3,0.1,0.5,0.2,0.8,0.3C303.7,519.5,303.6,519.3,303.5,519.1z"/>
<path class="st5" d="M312.9,527c1.6-0.4,3-0.8,4.3-1.2c1.1-0.4,2.1-0.8,3.1-1.4c0.7-0.4,1.4-0.9,2-1.5c0.4-0.4,0.7-1,0.9-1.6
	c0.1-0.6,0-1.2-0.3-1.7c-0.4-0.6-0.9-1-1.5-1.4c0.3,0.5,0.4,1,0.3,1.6c-0.1,0.6-0.5,1.2-0.9,1.6c-0.6,0.6-1.3,1.1-2,1.5
	c-1,0.5-2,1-3.1,1.4c-1.2,0.4-2.7,0.8-4.3,1.2s-3.3,0.7-5.2,1s-3.8,0.6-5.9,0.8s-4.2,0.4-6.5,0.6c-1.9,0.1-3.9,0.2-6,0.3l0.3,1.5
	c2.5-0.1,4.9-0.2,7.2-0.3s4.5-0.3,6.5-0.6s4-0.5,5.9-0.8S311.3,527.4,312.9,527z"/>
<path class="st5" d="M258.8,642.2c3.5-0.3,6.8-0.8,10-1.3s6.2-1.1,9-1.8c2.8-0.7,5.5-1.5,8-2.4c2.3-0.8,4.5-1.7,6.6-2.8
	c1.7-0.9,3.4-1.9,4.9-3.1c1.2-0.9,2.3-2.1,3.2-3.3c0.8-1.1,1.3-2.3,1.6-3.6c0.3-1.2,0.2-2.5-0.2-3.7c-0.5-1.3-1.2-2.4-2.2-3.3
	c-0.2-0.2-0.5-0.5-0.8-0.7c0.6,0.7,1.1,1.6,1.5,2.5c0.4,1.2,0.5,2.5,0.2,3.7c-0.3,1.3-0.8,2.5-1.6,3.6c-0.9,1.3-2,2.4-3.2,3.3
	c-1.5,1.2-3.2,2.2-4.9,3.1c-2.1,1.1-4.4,2-6.6,2.8c-2.5,0.9-5.2,1.7-8,2.4s-5.9,1.3-9,1.8s-6.5,1-10,1.3c-3,0.3-6.2,0.5-9.5,0.7v1.6
	C251.6,642.7,255.3,642.5,258.8,642.2z"/>
<path class="st5" d="M191.6,619.2c-0.9-0.4-1.8-0.7-2.7-1c-1.1-0.3-2.2-0.5-3.3-0.7c-1.2-0.2-2.5-0.3-3.9-0.4s-2.9-0.1-4.6-0.1
	c-1.4,0-2.7,0-4,0.1s-2.5,0.2-3.7,0.3s-2.4,0.3-3.4,0.5s-2.1,0.4-3.2,0.7s-1.9,0.6-2.8,0.9c-0.8,0.3-1.5,0.6-2.2,1
	c-0.6,0.3-1.2,0.7-1.7,1.2c-0.5,0.4-0.9,0.9-1.2,1.4c-0.3,0.4-0.5,0.8-0.5,1.3c0,0.4,0.1,0.9,0.3,1.2c0.3,0.4,0.6,0.8,1.1,1.1
	c0.1,0.1,0.2,0.2,0.4,0.2c-0.2-0.3-0.3-0.7-0.2-1.1c0.1-0.5,0.2-0.9,0.5-1.3c0.3-0.5,0.7-0.9,1.2-1.3c0.5-0.4,1.1-0.8,1.7-1.2
	c0.7-0.4,1.5-0.7,2.2-1c0.8-0.3,1.8-0.6,2.8-0.9c1-0.3,2.1-0.5,3.2-0.7s2.2-0.4,3.4-0.5s2.4-0.2,3.7-0.3s2.6-0.1,4-0.1
	c1.6,0,3.2,0,4.6,0.1s2.7,0.2,3.9,0.4c1.1,0.2,2.2,0.4,3.3,0.7c0.9,0.3,1.8,0.6,2.7,1c0.4,0.2,0.8,0.4,1.1,0.6
	c-0.2-0.3-0.4-0.6-0.7-0.9C192.9,620,192.3,619.6,191.6,619.2z"/>
<path class="st5" d="M154.3,639.9c-2.3-0.2-4.4-0.5-6.3-0.8s-3.8-0.6-5.4-0.9c-1.6-0.3-3.1-0.7-4.5-1c-1.2-0.3-2.5-0.7-3.7-1.2
	c-1-0.4-2-0.9-3-1.4c-0.7-0.4-1.4-0.9-2-1.4c0.4,0.4,0.7,0.9,1.2,1.2c0.7,0.6,1.5,1.2,2.3,1.6c1,0.5,2,1,3,1.4
	c1.2,0.5,2.4,0.9,3.7,1.2c1.3,0.4,2.8,0.7,4.5,1s3.4,0.6,5.4,0.9s4.1,0.5,6.3,0.8s4.7,0.5,7.3,0.6l11.6-10.5c-1,0-2-0.1-3-0.2
	l-10.1,9.1C158.9,640.3,156.5,640.1,154.3,639.9z"/>
<path class="st5" d="M272.8,619.5c-0.6-0.5-1.3-0.9-2-1.3c-0.9-0.5-1.9-0.9-2.8-1.2c-1.2-0.4-2.5-0.7-3.8-0.9
	c-1.4-0.3-2.9-0.5-4.5-0.7s-3.3-0.3-5.2-0.4s-3.8-0.1-5.9-0.1s-3.9,0-5.7,0.1s-3.5,0.2-5.2,0.4s-3.2,0.4-4.7,0.6s-2.9,0.6-4.2,0.9
	c-1.2,0.3-2.4,0.7-3.6,1.1c-0.9,0.3-1.9,0.7-2.8,1.2c-0.7,0.4-1.3,0.8-1.9,1.3c-0.5,0.4-0.8,0.9-1.1,1.5c-0.2,0.3-0.3,0.7-0.3,1
	c-0.1,0.4-0.1,0.8-0.1,1.2c0,0.4,0.1,0.9,0.2,1.3c0.1,0.5,0.3,0.9,0.4,1.4l-23.9-1.1c-0.2,0.5-0.4,1-0.7,1.4l26,1.2
	c-0.2-0.4-0.3-0.9-0.4-1.4c-0.1-0.4-0.2-0.8-0.2-1.3c0-0.4,0-0.8,0.1-1.2c0.1-0.4,0.2-0.7,0.3-1c0.3-0.6,0.7-1.1,1.1-1.5
	c0.6-0.5,1.2-1,1.9-1.3c0.9-0.5,1.8-0.9,2.8-1.2c1.2-0.4,2.3-0.8,3.6-1.1c1.3-0.3,2.7-0.6,4.2-0.9s3-0.5,4.7-0.6s3.4-0.3,5.2-0.4
	s3.7-0.1,5.7-0.1s4.1,0,5.9,0.1s3.6,0.2,5.2,0.4s3.1,0.4,4.5,0.7c1.3,0.2,2.5,0.6,3.8,0.9c1,0.3,2,0.7,2.9,1.1
	c0.4,0.2,0.8,0.4,1.2,0.7C273.4,620,273.1,619.7,272.8,619.5z"/>
<polygon class="st5" points="309.2,487.7 309.5,487 307.5,487 307.3,487.7 "/>
<polygon class="st5" points="288,500.5 305.1,500.5 307.7,492.6 327.4,492.6 328.1,489.2 326.3,489.2 325.9,491.1 306.2,491.1 
	303.6,499 286.5,499 230.1,490.9 229.2,492.1 "/>
<polygon class="st5" points="289,492.6 289.6,491.1 256.1,491.1 267,492.6 "/>
<path class="st5" d="M337.9,439.2c-0.3,0.2-0.7,0.4-1.1,0.6c-0.6,0.2-1.2,0.4-1.8,0.5c-0.7,0.2-1.5,0.3-2.4,0.5s-1.9,0.3-3,0.4
	s-2.2,0.2-3.4,0.3s-2.5,0.1-3.9,0.2c-1.1,0-2.2,0.1-3.4,0.1l0.6,1.5c1.5,0,3-0.1,4.3-0.1s2.7-0.1,3.9-0.2s2.4-0.2,3.4-0.3
	s2.1-0.2,3-0.4s1.7-0.3,2.4-0.5c0.6-0.1,1.2-0.3,1.8-0.5c0.4-0.1,0.8-0.3,1.1-0.6c0.2-0.1,0.4-0.4,0.5-0.6c0.1-0.3-0.1-0.5-0.4-0.8
	c-0.4-0.2-0.8-0.4-1.2-0.5C338.2,439,338.1,439.1,337.9,439.2z"/>
<path class="st5" d="M269.1,440.7l-1.1,1.4l36.6,1l2.3-1.5c-0.8-0.1-1.5-0.2-2.1-0.3c-0.3-0.1-0.6-0.1-0.9-0.2l-0.8,0.5L269.1,440.7
	z"/>
<polygon class="st5" points="282.7,439.3 283.9,437.4 281.5,437.4 280.2,439.2 "/>
<path class="st5" d="M327.4,438.8c0.1,0,0.2-0.1,0.2-0.2c0-0.1,0-0.2-0.1-0.3c-0.2-0.1-0.4-0.2-0.6-0.2c-0.3-0.1-0.7-0.2-1-0.2
	c-0.4-0.1-0.9-0.1-1.4-0.2s-1.2-0.1-1.9-0.2s-1.5-0.1-2.3-0.1s-1.8-0.1-2.7-0.1s-2,0-3.2,0s-2.1,0-3,0s-1.8,0-2.6,0.1
	s-1.6,0.1-2.2,0.1s-1.3,0.1-1.9,0.2l-1.5,0.2c-0.4,0.1-0.8,0.1-1.1,0.2c-0.3,0.1-0.5,0.2-0.7,0.3c-0.1,0.1-0.3,0.2-0.4,0.3
	c-0.1,0.1,0,0.3,0.1,0.4c0.2,0.2,0.5,0.3,0.8,0.4c0.3,0.1,0.8,0.2,1.3,0.3l0.4-0.1c0.3-0.1,0.7-0.2,1.1-0.2l1.5-0.2
	c0.6-0.1,1.2-0.1,1.9-0.2s1.4-0.1,2.2-0.1s1.7-0.1,2.6-0.1s1.9,0,3,0s2.2,0,3.2,0s1.9,0,2.7,0.1s1.6,0.1,2.3,0.1s1.3,0.1,1.9,0.2
	h0.4l0.5-0.1C327,439,327.2,438.9,327.4,438.8z"/>
<path class="st5" d="M339,412.4c1.1-0.1,2.1-0.2,2.9-0.3s1.5-0.2,2.1-0.3c0.4-0.1,0.9-0.2,1.3-0.4c0.3-0.1,0.5-0.3,0.5-0.4
	c0-0.1,0-0.3-0.2-0.4c-0.3-0.2-0.6-0.3-0.9-0.4c-0.3-0.1-0.7-0.2-1.2-0.2c-0.3,0.1-0.7,0.2-1,0.3c-0.6,0.1-1.3,0.2-2.1,0.3
	s-1.8,0.2-2.9,0.3h-0.4c-0.1,0.1-0.1,0.1-0.2,0.1c-0.2,0.1-0.4,0.1-0.6,0.1c-0.2,0-0.5,0.1-0.9,0.1s-0.8,0.1-1.3,0.1l-1.6,0.1
	l-1.9,0.1l-2.1,0h-4.6h-1.9l-1.6-0.1c-0.5,0-0.9-0.1-1.3-0.1h-0.2H311l0.8,0.1c0.5,0.1,1.2,0.1,1.9,0.2l-4.3,0c-1.3,0-2.5,0-3.5-0.1
	l-2.6-0.1c-0.8,0-1.4-0.1-1.8-0.1s-0.9-0.1-1.2-0.1c-0.3,0-0.6-0.1-0.8-0.1h-0.1l-1.1-0.1c-1.4-0.1-2.7-0.2-3.7-0.3s-2-0.2-2.7-0.3
	c-0.2,0-0.4-0.1-0.6-0.1l-0.2,0.1c-0.2,0.1-0.3,0.2-0.5,0.3c-0.1,0.1-0.1,0.3,0,0.4c0,0,0,0,0.1,0c0.3,0.2,0.6,0.3,1,0.4
	c0.6,0.2,1.2,0.3,1.8,0.4c0.8,0.1,1.7,0.2,2.7,0.3l1.1,0.1h41.2L339,412.4z"/>
<path class="st5" d="M311.1,410.2l-0.5,0.1h1.6L311.1,410.2z"/>
<path class="st5" d="M297.9,409.8c0.3,0.1,0.6,0.1,0.8,0.1c0.4,0,0.8,0.1,1.2,0.1s1.1,0.1,1.8,0.1l2.6,0.1h0.9l-0.4-1l-3.1,0.1
	l-2.8,0.1l-1.6,0.1h0C297.6,409.6,297.7,409.7,297.9,409.8z"/>
<path class="st5" d="M332,409.2c-1.2,0-2.5,0-3.9,0s-2.5,0-3.7,0s-2.3,0-3.4,0.1s-2.1,0.1-3,0.1c-0.8,0-1.5,0.1-2.2,0.2l0,0
	c0.1,0.1,0.2,0.1,0.4,0.1l0.7,0.1l1,0.1c0.4,0,0.8,0.1,1.3,0.1l1.6,0.1h1.9h4.6l2.1,0l1.9-0.1l1.6-0.1c0.5,0,0.9-0.1,1.3-0.1
	s0.7-0.1,0.9-0.1c0.2,0,0.4-0.1,0.6-0.1c0.1,0,0.2-0.1,0.2-0.1s0-0.1-0.1-0.1h-0.2C334.4,409.3,333.2,409.2,332,409.2z"/>
<polygon class="st3" points="645.1,656.7 652.8,652.2 655.3,650.8 79.6,650.8 82.2,652.2 89.9,656.7 "/>
<polygon class="st3" points="608.5,600.3 705.6,600.3 705.6,597.6 705.6,596.1 604.8,596.1 608.2,600.3 "/>
<polygon class="st3" points="703.1,623.2 705.6,621.7 705.6,621.7 676.6,621.7 680.2,625.4 680.2,625.4 699.3,625.4 "/>
<polygon class="st3" points="633.2,578 633.2,578 705.6,578 705.6,576.8 705.6,575.3 630.6,575.3 "/>
<polygon class="st3" points="683.5,565.7 685.4,567.2 686.6,568.2 705.6,568.2 705.6,567.2 705.6,565.7 "/>
<polygon class="st3" points="513,559.6 705.6,559.6 705.6,558 705.6,556.5 510.5,556.5 512.3,559.6 "/>
<polygon class="st3" points="124.5,597.6 125.7,596.1 29.4,596.1 29.4,600.3 30.9,600.3 122.3,600.3 "/>
<polygon class="st3" points="50.3,625.4 52.4,623.2 53.9,621.7 29.4,621.7 29.4,621.7 31.9,623.2 35.7,625.4 "/>
<polygon class="st3" points="97.3,578 98.4,576.8 99.9,575.3 29.4,575.3 29.4,578 30.9,578 "/>
<polygon class="st3" points="43.9,568.2 45.1,567.2 47,565.7 29.4,565.7 29.4,568.2 30.9,568.2 "/>
<polygon class="st3" points="29.4,556.5 29.4,559.6 30.9,559.6 218.2,559.6 219.1,558 220,556.5 "/>
<polygon class="st3" points="675.3,504.8 672.3,502.9 58.2,502.9 55.2,504.8 59.1,504.8 674.4,504.8 "/>
<polygon class="st3" points="598.4,542.9 705.6,542.9 705.6,542.3 705.6,540.8 596.4,540.8 598.4,542.9 "/>
<polygon class="st3" points="705.6,550.8 705.6,550.1 705.6,548.6 662.4,548.6 664.2,550.1 665,550.8 "/>
<polygon class="st3" points="705.6,535.5 705.6,535.1 705.6,533.6 643.8,533.6 645.7,535.1 646.2,535.5 "/>
<polygon class="st3" points="571.6,515.8 571.6,515.8 691.8,515.8 692.7,515.8 692.4,515.7 690.2,514.2 570,514.2 "/>
<polygon class="st3" points="627.5,520.3 629.3,521.8 629.6,522 701.5,522 702.4,522 699.7,520.3 "/>
<polygon class="st3" points="614.8,510 614.8,510 682.7,510 683.5,510 681.2,508.5 613,508.5 "/>
<polygon class="st3" points="548.9,528.8 549.1,528.8 705.6,528.8 705.6,527.9 705.6,526.4 546.9,526.4 "/>
<polygon class="st3" points="29.4,540.8 29.4,542.9 30.9,542.9 132.1,542.9 132.6,542.3 134.1,540.8 "/>
<polygon class="st3" points="66.3,550.1 68.1,548.6 29.4,548.6 29.4,550.8 30.9,550.8 65.4,550.8 "/>
<polygon class="st3" points="29.4,533.6 29.4,535.5 30.9,535.5 84.3,535.5 84.8,535.1 86.7,533.6 "/>
<polygon class="st3" points="40.3,514.2 37.8,515.8 41.7,515.8 158.9,515.8 159,515.7 160.5,514.2 "/>
<polygon class="st3" points="29.4,522 32,522 100.9,522 101.2,521.8 103,520.3 30.8,520.3 29.4,521.2 "/>
<polygon class="st3" points="49.3,508.5 47,510 50.8,510 115.7,510 115.7,510 117.6,508.5 "/>
<polygon class="st3" points="29.4,526.4 29.4,528.8 30.9,528.8 181.6,528.8 182.4,527.9 183.6,526.4 "/>
<polygon class="st3" points="513.1,485.4 644,485.4 644.8,485.4 642.4,483.9 511.5,483.9 512.8,485.4 "/>
<polygon class="st3" points="658.9,494.4 656.9,493.1 549.1,493.1 550.3,494.4 "/>
<polygon class="st3" points="599.9,498 601.6,499.3 666.7,499.3 664.6,498 "/>
<polygon class="st3" points="588.2,488.5 589.7,489.7 651.5,489.7 649.6,488.5 "/>
<polygon class="st3" points="577.6,479.9 579,481 637.8,481 636.1,479.9 "/>
<polygon class="st3" points="217.7,485.4 219,483.9 88.1,483.9 85.7,485.4 89.5,485.4 217.7,485.4 "/>
<polygon class="st3" points="180.2,494.4 181.4,493.1 73.6,493.1 71.6,494.4 "/>
<polygon class="st3" points="128.9,499.3 130.6,498 65.9,498 63.8,499.3 "/>
<polygon class="st3" points="140.8,489.7 142.3,488.5 80.9,488.5 79,489.7 "/>
<polygon class="st3" points="151.5,481 152.9,479.9 94.4,479.9 92.7,481 "/>
<polygon class="st3" points="532,475.9 533,476.9 631.5,476.9 630.5,476.3 629.8,475.9 "/>
<polygon class="st3" points="568,472.1 569.2,473.1 625.4,473.1 623.8,472.1 "/>
<polygon class="st3" points="619.8,469.5 617.8,468.2 459,468.2 459.8,469.5 "/>
<polygon class="st3" points="197.5,476.9 198.5,475.9 100.7,475.9 99,476.9 "/>
<polygon class="st3" points="161.3,473.1 162.5,472.1 106.7,472.1 105.1,473.1 "/>
<polygon class="st3" points="270.8,469.5 271.5,468.2 112.7,468.2 110.7,469.5 "/>
<polygon class="st3" points="581.2,445 579.9,444.2 579.8,444.1 150.7,444.1 149.3,445 "/>
<polygon class="st3" points="517.8,461.6 518.7,462.5 608.7,462.5 607.8,461.9 607.3,461.6 "/>
<polygon class="st3" points="559.2,464.9 560.3,465.9 614,465.9 613,465.2 612.6,464.9 "/>
<polygon class="st3" points="551.1,458.4 552.2,459.2 603.6,459.2 602.5,458.5 602.3,458.4 "/>
<polygon class="st3" points="505.9,449.5 506.6,450.3 589.5,450.3 588.8,449.8 588.4,449.5 "/>
<polygon class="st3" points="543.7,452.4 544.6,453.1 594,453.1 592.8,452.4 "/>
<polygon class="st3" points="536.8,446.8 537.7,447.5 585.2,447.5 584.4,447 584.1,446.8 "/>
<polygon class="st3" points="487.7,455.2 488.6,456.3 599,456.3 597.2,455.2 "/>
<polygon class="st3" points="211.8,462.5 212.7,461.6 123.2,461.6 121.8,462.5 "/>
<polygon class="st3" points="170.2,465.9 171.3,464.9 117.9,464.9 116.5,465.9 "/>
<polygon class="st3" points="178.4,459.2 179.4,458.4 128.2,458.4 126.9,459.2 "/>
<polygon class="st3" points="223.9,450.3 224.6,449.5 142.1,449.5 141,450.3 "/>
<polygon class="st3" points="185.9,453.1 186.8,452.4 137.7,452.4 136.4,453.1 "/>
<polygon class="st3" points="192.8,447.5 193.7,446.8 146.4,446.8 145.3,447.5 "/>
<polygon class="st3" points="241.9,456.3 242.8,455.2 133.2,455.2 131.6,456.3 "/>
<polygon class="st3" points="470.6,434.5 471.2,435.3 566,435.3 564.8,434.5 "/>
<polygon class="st3" points="495.7,439.2 496.3,439.9 573.2,439.9 572.2,439.2 "/>
<polygon class="st3" points="530.5,441.7 531.3,442.3 577,442.3 576,441.7 "/>
<polygon class="st3" points="524.6,436.9 525.3,437.5 569.4,437.5 568.5,436.9 "/>
<polygon class="st3" points="486.8,430.3 487.4,430.9 559,430.9 558.2,430.3 "/>
<polygon class="st3" points="519.1,432.4 519.8,433 562.4,433 562.1,432.9 561.5,432.4 "/>
<polygon class="st3" points="554.1,428.3 514,428.3 514.1,428.4 514.6,428.8 555.8,428.8 554.9,428.3 "/>
<polygon class="st3" points="550.8,426.2 511.1,426.2 434.5,426.2 434.9,426.9 552.8,426.9 552.1,426.5 551.7,426.2 "/>
<polygon class="st3" points="259.3,435.3 259.9,434.5 165.8,434.5 164.5,435.3 "/>
<polygon class="st3" points="234.2,439.9 234.8,439.2 158.3,439.2 157.3,439.9 "/>
<polygon class="st3" points="199.2,442.3 200,441.7 154.5,441.7 153.5,442.3 "/>
<polygon class="st3" points="205.1,437.5 205.9,436.9 162,436.9 161.1,437.5 "/>
<polygon class="st3" points="243.1,430.9 243.7,430.3 172.4,430.3 171.5,430.9 "/>
<polygon class="st3" points="210.7,433 211.4,432.4 169,432.4 168.1,433 "/>
<polygon class="st3" points="215.9,428.8 216.4,428.4 216.5,428.3 179.4,428.3 175.6,428.3 174.7,428.8 "/>
<polygon class="st3" points="295.6,426.9 296,426.2 222.4,426.2 182.7,426.2 178.8,426.2 177.7,426.9 "/>
<polygon class="st3" points="531,413 530.1,412.5 338.2,412.5 297,412.5 200.4,412.5 199.5,413 "/>
<polygon class="st3" points="545,422.5 506.5,422.5 479.1,422.5 479.6,423 546.7,423 545.9,422.5 "/>
<polygon class="st3" points="548,424.4 509.2,424.4 509.4,424.5 509.8,424.9 549.6,424.9 548.8,424.4 "/>
<polygon class="st3" points="542.2,420.8 504.7,420.8 505.1,421.1 505.3,421.2 543.8,421.2 543.6,421.1 543.1,420.8 "/>
<polygon class="st3" points="534.3,415.7 498.1,415.7 472.3,415.7 472.8,416.1 535.8,416.1 535.1,415.7 "/>
<polygon class="st3" points="536.8,417.3 500.5,417.3 500.8,417.6 501,417.8 538.4,417.8 537.7,417.3 "/>
<polygon class="st3" points="497,414.5 532.4,414.5 533.3,414.5 532.6,414.1 531.8,414.1 496.5,414.1 "/>
<polygon class="st3" points="539.4,418.9 502.1,418.9 457.6,418.9 458.1,419.6 541.2,419.6 540.3,419 540.2,418.9 "/>
<polygon class="st3" points="250.9,423 251.4,422.5 226.9,422.5 188.4,422.5 184.6,422.5 183.8,423 "/>
<polygon class="st3" points="220.7,424.9 221.1,424.5 221.3,424.4 185.5,424.4 181.7,424.4 180.9,424.9 "/>
<polygon class="st3" points="225.2,421.2 225.4,421.1 225.8,420.8 191.3,420.8 187.4,420.8 186.7,421.2 "/>
<polygon class="st3" points="257.8,416.1 258.2,415.7 235.4,415.7 199.2,415.7 195.4,415.7 194.7,416.1 "/>
<polygon class="st3" points="229.5,417.8 229.7,417.6 230,417.3 196.6,417.3 192.8,417.3 192.1,417.8 "/>
<polygon class="st3" points="201.1,414.5 233.5,414.5 234,414.1 201.7,414.1 197.9,414.1 197.2,414.5 "/>
<polygon class="st3" points="272.4,419.6 272.9,418.9 231.4,418.9 194.1,418.9 190.3,418.9 189.3,419.6 "/>
<polygon class="st3" points="487.7,407.3 521,407.3 521.9,407.3 521.1,406.8 447.5,406.8 447.9,407.3 "/>
<polygon class="st3" points="466.3,409.6 466.7,410 491.1,410 525.3,410 526.2,410 525.6,409.6 "/>
<polygon class="st3" points="492.8,411.1 492.8,411.1 493.2,411.5 527.6,411.5 528.5,411.5 527.9,411.1 "/>
<polygon class="st3" points="489.2,408.2 489.3,408.3 489.7,408.6 523.1,408.6 523.9,408.6 523.3,408.2 "/>
<polygon class="st3" points="519.6,405.9 519.1,405.5 485.9,405.5 486.3,405.9 "/>
<polygon class="st3" points="212.5,407.3 245.8,407.3 282.6,407.3 283,406.8 209.4,406.8 208.6,407.3 "/>
<polygon class="st3" points="208.2,410 242.4,410 263.8,410 264.2,409.6 204.9,409.6 204.3,410 "/>
<polygon class="st3" points="205.9,411.5 237.3,411.5 237.7,411.1 237.8,411.1 202.6,411.1 202,411.5 "/>
<polygon class="st3" points="210.4,408.6 240.8,408.6 241.2,408.3 241.3,408.2 207.1,408.2 206.6,408.6 "/>
<polygon class="st3" points="210.9,405.9 244.2,405.9 244.6,405.5 211.4,405.5 "/>
<path class="st3" d="M241.6,726.5c4.1-0.8,7.9-1.8,11.6-3c3.5-1.1,6.9-2.3,10.3-3.8c3-1.3,5.8-2.7,8.5-4.4c2.3-1.4,4.4-3,6.4-4.8
	c1.7-1.5,3.1-3.3,4.2-5.2c1-1.7,1.8-3.6,2.2-5.6c0.4-1.9,0.4-3.8,0-5.7c-0.5-1.9-1.3-3.6-2.5-5.1c-0.3-0.3-0.5-0.7-0.9-1
	c-1.2-1.3-2.5-2.5-4-3.5c-2.3-1.5-4.7-2.9-7.2-4c-2.9-1.3-5.8-2.3-8.8-3.2c-3.3-0.9-6.6-1.7-9.9-2.2c-3.5-0.6-7.2-1-11.1-1.3
	c-3.9-0.3-8-0.5-12.2-0.4c-3,0-5.8,0.1-8.6,0.2s-5.5,0.4-8.2,0.7c-2.7,0.3-5.3,0.7-7.8,1.2s-5,1.1-7.5,1.8c-2.4,0.7-4.7,1.3-6.8,2.1
	c-2,0.7-4,1.5-5.9,2.5c-1.7,0.8-3.4,1.8-5,2.8c-1.4,1-2.8,2-4,3.2l0,0l-0.2-0.2c-1.7-1.9-3.7-3.5-5.9-4.8c-2.5-1.5-5.2-2.6-8-3.5
	c-3.2-1-6.6-1.6-9.9-2c-4-0.5-8-0.7-11.9-0.7c-3.1,0-6.1,0.1-9.1,0.3c-1.4,0.1-2.7,0.2-4.1,0.4l2.4,1.4l48.2,27.7l7.4,0.4
	c-0.2-0.7-0.3-1.4-0.4-2.2c-0.1-0.7-0.1-1.3,0-2c0-0.6,0.1-1.2,0.3-1.8c0.1-0.6,0.3-1.1,0.6-1.6c0.4-0.8,0.9-1.6,1.6-2.3
	c0.8-0.8,1.6-1.5,2.6-2.1c1.1-0.7,2.3-1.3,3.6-1.9c1.3-0.6,2.8-1.1,4.6-1.7c1.7-0.5,3.4-1,5.3-1.4s3.8-0.7,5.9-1s4.2-0.5,6.5-0.6
	s4.6-0.2,7.1-0.2s5,0.1,7.3,0.2s4.4,0.3,6.4,0.6c1.8,0.2,3.7,0.6,5.5,1c1.5,0.4,3.1,0.9,4.6,1.4c1.2,0.5,2.4,1.1,3.5,1.8
	c0.9,0.5,1.7,1.2,2.3,2l0.2,0.3c0.4,0.6,0.8,1.2,0.9,1.9c0.2,0.8,0.1,1.6-0.1,2.4c-0.2,0.8-0.6,1.6-1.2,2.3
	c-0.6,0.8-1.3,1.5-2.1,2.1c-1,0.8-2,1.4-3.1,2c-1.3,0.7-2.7,1.3-4.1,1.8c-1.6,0.6-3.3,1.1-5,1.6c-1.8,0.5-3.7,0.9-5.8,1.2
	c-2.1,0.4-4.3,0.7-6.6,0.9c-2.3,0.3-4.8,0.4-7.4,0.6l-1.3,16.6l1.3,0.8h0.2c4.3-0.2,8.4-0.6,12.3-1.1
	C233.2,728,237.5,727.3,241.6,726.5z"/>
<path class="st3" d="M321.8,454.7c1.4-0.1,2.7-0.2,3.9-0.4s2.4-0.3,3.4-0.5s2-0.4,2.8-0.6c0.7-0.2,1.3-0.4,2-0.6
	c0.5-0.2,0.9-0.4,1.3-0.7c0.3-0.2,0.4-0.4,0.5-0.7l0,0c0.1-0.3-0.1-0.6-0.3-0.8c-0.3-0.3-0.7-0.5-1.2-0.7c-0.7-0.3-1.4-0.5-2.1-0.6
	c-0.8-0.2-1.8-0.4-2.9-0.6s-2.3-0.3-3.5-0.5s-2.5-0.2-3.9-0.3s-2.8-0.1-4.3-0.2s-3.1-0.1-4.7-0.1c-1.1,0-2.2,0-3.3,0s-2.1,0-3.1,0.1
	s-1.9,0.1-2.9,0.2s-1.8,0.1-2.6,0.2s-1.6,0.2-2.3,0.3s-1.4,0.2-1.9,0.4s-1.1,0.3-1.5,0.4c-0.4,0.1-0.8,0.3-1.1,0.5
	c-0.9-0.3-1.9-0.5-2.9-0.7c-1-0.2-2.2-0.4-3.5-0.5s-2.6-0.2-4-0.3s-3-0.1-4.6-0.1c-1.2,0-2.3,0-3.4,0s-2.2,0.1-3.3,0.1
	s-2.1,0.1-3.2,0.2s-2.1,0.2-3.1,0.3c-1.2,0.1-2.4,0.3-3.4,0.5s-1.8,0.4-2.6,0.6c-0.6,0.2-1.2,0.4-1.8,0.7c-0.4,0.2-0.7,0.4-1,0.8
	c-0.1,0.1-0.2,0.3-0.2,0.5c0,0.2,0,0.3,0.1,0.4c0.1,0.2,0.3,0.3,0.4,0.4c0.2,0.2,0.5,0.3,0.8,0.4l0.2,0.1c0.2,0.1,0.5,0.2,0.8,0.3
	s0.8,0.2,1.3,0.3s1,0.2,1.6,0.3s1.2,0.2,1.8,0.2s1.4,0.1,2.2,0.2s1.6,0.1,2.5,0.2s1.9,0.1,2.9,0.1l3.3,0.1l1.2-0.7l2.4-1.4
	c-0.8,0-1.6,0-2.4-0.1l-2-0.1c-0.6,0-1.2-0.1-1.7-0.1l-1-0.1l-0.4-0.1c-0.3,0-0.7-0.1-1-0.2c-0.2-0.1-0.5-0.1-0.7-0.2
	c-0.1,0-0.2-0.1-0.3-0.2c-0.1-0.1-0.1-0.2,0-0.3c0.1-0.1,0.2-0.2,0.3-0.3c0.2-0.1,0.4-0.2,0.6-0.2c0.2-0.1,0.5-0.1,0.9-0.2
	s0.7-0.1,1.1-0.2s0.9-0.1,1.3-0.1s1-0.1,1.5-0.1l1.7-0.1h1.8c0.8,0,1.5,0,2.1,0c0.7,0,1.3,0,1.9,0.1s1.1,0.1,1.6,0.1s1,0.1,1.4,0.2
	c0.3,0.1,0.7,0.2,1,0.3c0.2,0.1,0.5,0.2,0.7,0.3c0.1,0.1,0.2,0.2,0.3,0.4c0,0.2,0,0.3-0.1,0.4l12,0.2c-0.1-0.1-0.2-0.2-0.4-0.3
	c-0.1-0.1-0.2-0.2-0.2-0.3c-0.1-0.1-0.1-0.2-0.1-0.2c0-0.1,0-0.1,0-0.2c0.1-0.1,0.2-0.2,0.3-0.3c0.2-0.1,0.5-0.2,0.7-0.3
	c0.4-0.1,0.7-0.2,1.1-0.2c0.4-0.1,0.9-0.2,1.5-0.2s1.2-0.1,1.8-0.2s1.4-0.1,2.1-0.1l2.4-0.1c0.8,0,1.7,0,2.6,0s1.9,0,2.7,0
	s1.7,0,2.4,0.1s1.5,0.1,2.1,0.1s1.2,0.1,1.8,0.2s1,0.1,1.4,0.2c0.3,0.1,0.7,0.2,1,0.3c0.2,0.1,0.4,0.2,0.6,0.3
	c0.1,0.1,0.2,0.2,0.1,0.3c-0.1,0.1-0.1,0.2-0.3,0.3c-0.1,0.1-0.3,0.2-0.5,0.2l-0.2,0.1c-0.3,0.1-0.7,0.2-1,0.3
	c-0.4,0.1-0.8,0.2-1.3,0.2s-1.1,0.1-1.7,0.2s-1.3,0.1-2,0.2l-2.3,0.1c-0.8,0-1.7,0.1-2.6,0.1l1,2.2h0.8c1.4,0,2.7-0.1,4-0.1
	C319,454.9,320.5,454.8,321.8,454.7z"/>
<path class="st3" d="M328.9,414.3c-1.1,0-2.4,0-3.6,0h-2.5l-2.3,0.1l-2.2,0.1l-1,0.1l-1,0.1c-0.6,0-1.2,0.1-1.8,0.2s-1,0.1-1.4,0.2
	s-0.8,0.1-1.1,0.2c-0.3,0.1-0.6,0.2-0.8,0.3c-0.7-0.1-1.4-0.3-2.2-0.4s-1.7-0.2-2.7-0.3s-2-0.1-3.1-0.2s-2.3,0-3.5,0
	c-0.9,0-1.8,0-2.6,0s-1.7,0-2.5,0.1s-1.6,0.1-2.4,0.1s-1.6,0.1-2.3,0.2c-0.9,0.1-1.8,0.2-2.5,0.3s-1.4,0.2-1.9,0.3
	c-0.4,0.1-0.9,0.2-1.3,0.4c-0.3,0.1-0.5,0.2-0.6,0.4c-0.1,0.1-0.1,0.2-0.1,0.3c0,0.1,0.1,0.2,0.1,0.2c0.1,0.1,0.2,0.2,0.4,0.2
	c0.2,0.1,0.4,0.2,0.6,0.2l0.8,0.2l0,0c0.3,0.1,0.7,0.1,1,0.2s0.8,0.1,1.2,0.2l1.4,0.1c0.5,0,1.1,0.1,1.7,0.1l2,0.1l2.2,0.1h0.2
	l2.4,0.1l2.5-1.2H299h-0.9l-1.5-0.1l-1.3-0.1c-0.4,0-0.7-0.1-1-0.1c-0.3,0-0.5-0.1-0.8-0.1c-0.2,0-0.4-0.1-0.5-0.1
	c-0.1,0-0.2-0.1-0.3-0.1c0,0,0-0.1,0-0.2c0,0,0,0,0,0c0,0,0.1-0.1,0.2-0.1l0,0c0.1-0.1,0.3-0.1,0.4-0.1l0.6-0.1l0.8-0.1l1-0.1
	l1.1-0.1h1.3h1.4h1.6l1.4,0l1.2,0.1c0.4,0,0.7,0.1,1.1,0.1l0.6,0.1h0.2c0.2,0,0.4,0.1,0.5,0.2c0.1,0,0.2,0.1,0.2,0.2
	c0,0.1,0,0.2,0,0.2l6,0.1h0.4h2.7l-0.3-0.2l-0.2-0.1c0,0-0.1-0.1-0.1-0.1c0,0,0-0.1,0-0.1l0,0c0.1-0.1,0.1-0.1,0.2-0.2
	c0.2-0.1,0.3-0.1,0.5-0.2l0.8-0.1c0.3,0,0.7-0.1,1.1-0.1l1.4-0.1l1.6-0.1l1.8,0h4.1l1.8,0l1.6,0.1l1.4,0.1l0.6,0.1l0.5,0.1
	c0.3,0,0.6,0.1,0.8,0.1c0.2,0,0.3,0.1,0.4,0.2c0.1,0.1,0.1,0.1,0.1,0.2c0,0.1-0.1,0.1-0.2,0.2c-0.1,0.1-0.3,0.1-0.5,0.2l-0.7,0.1
	c-0.3,0-0.6,0.1-1,0.1l-0.7,0.1H330c-0.5,0-1,0.1-1.5,0.1l-1.7,0.1h-2l0.9,1.2l3.6-0.1c1.1,0,2.2-0.1,3.2-0.1l2-0.1l0.9-0.1
	c0.9-0.1,1.8-0.2,2.5-0.3c0.8-0.1,1.5-0.2,2.1-0.3c0.5-0.1,1-0.2,1.5-0.4c0.3-0.1,0.6-0.2,0.9-0.4h0c0.2-0.1,0.3-0.2,0.4-0.4
	c0-0.2,0-0.3-0.2-0.5c-0.3-0.2-0.6-0.3-0.9-0.4c-0.5-0.2-1.1-0.3-1.6-0.4c-0.6-0.1-1.4-0.2-2.2-0.3s-1.8-0.2-2.7-0.3l-1.2-0.1
	l-1.8-0.1C331.1,414.4,330,414.4,328.9,414.3z"/>
<path class="st3" d="M300.4,527.4c2.1-0.2,4-0.5,5.9-0.8c1.8-0.3,3.6-0.7,5.2-1c1.6-0.4,3-0.8,4.3-1.2c1.1-0.4,2.1-0.8,3.1-1.4
	c0.7-0.4,1.4-0.9,2-1.5c0.4-0.4,0.7-1,0.9-1.6c0.1-0.5,0-1.1-0.3-1.6c0,0,0-0.1,0-0.1c-0.4-0.6-1-1.2-1.6-1.5
	c-0.9-0.6-1.9-1-2.9-1.4c-1.4-0.5-2.8-0.9-4.2-1.2c-1.6-0.4-3.3-0.7-5.1-1s-3.7-0.5-5.7-0.7s-4.1-0.3-6.3-0.4s-4.5-0.1-6.9-0.1
	c-1.6,0-3.2,0-4.8,0.1s-3.1,0.1-4.5,0.2c-1.5,0.1-2.9,0.2-4.2,0.4s-2.7,0.3-3.9,0.5s-2.4,0.4-3.5,0.7s-2.1,0.5-3,0.8
	c-0.8,0.2-1.6,0.5-2.4,0.9c-0.6,0.3-1.2,0.6-1.8,1c-1.3-0.6-2.6-1.1-4-1.5c-1.6-0.5-3.2-0.8-4.9-1.1c-1.8-0.3-3.7-0.5-5.8-0.6
	c-2.1-0.1-4.3-0.2-6.7-0.2c-1.7,0-3.4,0-5,0.1s-3.3,0.2-4.9,0.3s-3.2,0.3-4.8,0.5s-3.1,0.5-4.7,0.7c-1.9,0.3-3.6,0.7-5.2,1.1
	c-1.4,0.3-2.7,0.8-4.1,1.3c-1,0.4-2,0.9-3,1.5c-0.7,0.4-1.4,1-1.9,1.7c-0.2,0.3-0.4,0.6-0.5,1c-0.1,0.3-0.1,0.7-0.1,1
	c0.1,0.3,0.2,0.7,0.4,0.9c0.3,0.3,0.6,0.6,0.9,0.9l0.4,0.2c0.3,0.2,0.7,0.4,1,0.6c0.6,0.3,1.2,0.5,1.8,0.7c0.7,0.2,1.4,0.4,2.2,0.6
	s1.7,0.4,2.6,0.5s2,0.3,3.1,0.5s2.4,0.3,3.7,0.4s2.8,0.2,4.3,0.3s3.2,0.2,4.9,0.3l4.4-3.3l1.9-1.4c-1.2,0-2.4-0.1-3.5-0.1
	s-2.1-0.1-3-0.2s-1.7-0.2-2.4-0.3s-1.4-0.2-1.9-0.4c-0.4-0.1-0.8-0.2-1.1-0.3l-0.3-0.1c-0.3-0.1-0.6-0.3-0.9-0.5
	c-0.2-0.1-0.3-0.3-0.4-0.5c0-0.2,0-0.4,0.2-0.6c0.2-0.2,0.4-0.4,0.6-0.6c0.3-0.2,0.6-0.4,1-0.5c0.4-0.2,0.9-0.3,1.4-0.5
	s1.1-0.3,1.7-0.4s1.3-0.2,2-0.3s1.5-0.2,2.3-0.2s1.6-0.1,2.5-0.1s1.8,0,2.7,0c1.1,0,2.1,0,3.1,0.1s1.9,0.1,2.7,0.2s1.6,0.2,2.3,0.3
	c0.7,0.1,1.3,0.3,1.9,0.4c0.5,0.1,1,0.3,1.4,0.6c0.3,0.2,0.6,0.4,0.9,0.7c0.1,0.2,0.2,0.4,0.2,0.6c0,0,0,0.1,0,0.2
	c0,0.3-0.1,0.7-0.3,0.9h1.7l15.9,0.5c-0.2-0.2-0.3-0.4-0.4-0.6c-0.1-0.2-0.2-0.4-0.2-0.6c0-0.2-0.1-0.4-0.1-0.5c0-0.2,0-0.3,0.1-0.5
	c0.1-0.3,0.4-0.5,0.6-0.7c0.4-0.3,0.8-0.5,1.2-0.6c0.6-0.2,1.1-0.4,1.7-0.6c0.7-0.2,1.4-0.3,2.3-0.5s1.8-0.3,2.8-0.4s2-0.2,3.1-0.3
	s2.3-0.1,3.5-0.2s2.5-0.1,3.9-0.1s2.8,0,4,0.1s2.4,0.1,3.5,0.2s2.1,0.2,3.1,0.3s1.8,0.3,2.6,0.4c0.7,0.1,1.4,0.3,2,0.5
	c0.5,0.1,1,0.3,1.4,0.6c0.3,0.2,0.6,0.4,0.8,0.7c0.1,0.2,0.2,0.4,0.1,0.6c0,0,0,0.1,0,0.1c-0.1,0.3-0.2,0.5-0.5,0.7
	c-0.3,0.3-0.6,0.5-1,0.6c-0.5,0.2-1,0.4-1.5,0.6c-0.6,0.2-1.3,0.4-2,0.5c-0.8,0.2-1.6,0.3-2.5,0.5s-1.9,0.2-3,0.3s-2.2,0.2-3.5,0.3
	s-2.5,0.1-3.9,0.2l0.9,4.9h1.2c2.1-0.1,4.1-0.2,6-0.3C296.1,527.9,298.3,527.6,300.4,527.4z"/>
<path class="st3" d="M267.3,639.4c3.2-0.5,6.2-1.1,9-1.8c2.8-0.7,5.5-1.5,8-2.4c2.3-0.8,4.5-1.7,6.6-2.8c1.7-0.9,3.4-1.9,4.9-3.1
	c1.2-0.9,2.3-2.1,3.2-3.3c0.8-1.1,1.3-2.3,1.6-3.6c0.3-1.2,0.2-2.5-0.2-3.7c-0.3-0.9-0.8-1.8-1.5-2.5c-0.2-0.3-0.5-0.5-0.7-0.8
	c-1.2-1.2-2.6-2.2-4.1-2.9c-1.9-1-3.9-1.9-6-2.6c-2.4-0.8-4.8-1.5-7.3-2.1c-2.6-0.6-5.3-1.1-8.2-1.5s-5.9-0.7-9-0.9s-6.5-0.3-10-0.3
	c-2.4,0-4.7,0.1-7,0.2s-4.5,0.3-6.6,0.5c-2.1,0.2-4.2,0.5-6.2,0.8s-4,0.7-5.9,1.1s-3.7,0.9-5.4,1.4s-3.1,1.1-4.5,1.6
	c-1.3,0.5-2.6,1.2-3.8,1.9c-1.1,0.6-2.1,1.3-3,2.1c-1.6-1.3-3.4-2.4-5.3-3.2c-2.2-1-4.4-1.7-6.7-2.3c-2.7-0.6-5.5-1.1-8.2-1.3
	c-3-0.3-6.2-0.5-9.8-0.5c-2.5,0-4.9,0.1-7.4,0.2c-2.4,0.1-4.9,0.4-7.3,0.7c-2.4,0.3-4.8,0.7-7.2,1.1s-4.8,1-7.2,1.5
	c-2.9,0.7-5.6,1.5-8.1,2.4c-2.3,0.8-4.5,1.7-6.6,2.8c-1.8,0.9-3.6,1.9-5.2,3.2c-1.4,1-2.6,2.3-3.7,3.6c-0.5,0.7-1,1.4-1.3,2.2
	c-0.3,0.7-0.5,1.4-0.6,2.1c-0.1,0.7,0,1.4,0.1,2c0.2,0.7,0.5,1.4,0.9,2c0.5,0.7,1,1.3,1.6,1.8l0.3,0.3c0.6,0.5,1.3,1,2,1.4
	c1,0.5,2,1,3,1.4c1.2,0.5,2.4,0.9,3.7,1.2c1.3,0.4,2.8,0.7,4.5,1s3.4,0.6,5.4,0.9s4.1,0.5,6.3,0.8s4.7,0.5,7.3,0.6l10.1-9.1l1.5-1.3
	c-1.8-0.1-3.5-0.2-5.1-0.3s-3-0.3-4.3-0.5s-2.5-0.4-3.5-0.7c-0.9-0.2-1.8-0.5-2.7-0.9c-0.5-0.2-1-0.5-1.5-0.8
	c-0.1-0.1-0.3-0.2-0.4-0.2c-0.4-0.3-0.8-0.7-1.1-1.1c-0.2-0.4-0.3-0.8-0.3-1.2c0.1-0.5,0.2-0.9,0.5-1.3c0.3-0.5,0.7-0.9,1.2-1.3
	c0.5-0.4,1.1-0.8,1.7-1.2c0.7-0.4,1.5-0.7,2.2-1c0.8-0.3,1.8-0.6,2.8-0.9c1-0.3,2.1-0.5,3.2-0.7s2.2-0.4,3.4-0.5s2.4-0.2,3.7-0.3
	s2.6-0.1,4-0.1c1.6,0,3.2,0,4.6,0.1s2.7,0.2,3.9,0.4c1.1,0.2,2.2,0.4,3.3,0.7c0.9,0.3,1.8,0.6,2.7,1c0.7,0.3,1.3,0.7,1.9,1.2
	c0.3,0.3,0.5,0.6,0.7,0.9c0.1,0.2,0.2,0.4,0.3,0.6c0.2,0.6,0.2,1.2,0.1,1.8c-0.2,0.7-0.5,1.4-0.9,2l2.2,0.1l23.9,1.1
	c-0.2-0.4-0.3-0.9-0.4-1.4c-0.1-0.4-0.2-0.8-0.2-1.3c0-0.4,0-0.8,0.1-1.2c0.1-0.4,0.2-0.7,0.3-1c0.3-0.6,0.7-1.1,1.1-1.5
	c0.6-0.5,1.2-1,1.9-1.3c0.9-0.5,1.8-0.9,2.8-1.2c1.2-0.4,2.3-0.8,3.6-1.1c1.3-0.3,2.7-0.6,4.2-0.9s3-0.5,4.7-0.6s3.4-0.3,5.2-0.4
	s3.7-0.1,5.7-0.1s4.1,0,5.9,0.1c1.9,0.1,3.6,0.2,5.2,0.4s3.1,0.4,4.5,0.7c1.3,0.2,2.5,0.5,3.8,0.9c1,0.3,2,0.7,2.9,1.1
	c0.7,0.3,1.4,0.8,2,1.3c0.3,0.3,0.6,0.6,0.8,0.9c0.4,0.6,0.4,1.3,0.2,2c-0.2,0.5-0.4,1-0.8,1.5c-0.5,0.5-1,1-1.6,1.4
	c-0.8,0.5-1.5,0.9-2.4,1.3c-1,0.4-2.1,0.8-3.2,1.2c-1.3,0.4-2.6,0.7-3.9,1c-1.4,0.3-2.9,0.6-4.6,0.8s-3.4,0.4-5.2,0.6
	s-3.8,0.3-5.9,0.4v11l1.5-0.1c3.3-0.2,6.4-0.4,9.5-0.7C260.8,640.3,264.1,639.9,267.3,639.4z"/>
<path class="st3" d="M303.6,499l2.5-7.9h19.7l0.4-1.9l0.3-1.5h-19.4l0.2-0.7l0.5-1.5h-16l-0.9,2.2h-61.1l-2.2,2.9l2.4,0.3l56.3,8
	L303.6,499z M289.6,491.1l-0.6,1.5l-1.2,2.9l-20.8-2.9l-10.9-1.5L289.6,491.1z"/>
<path class="st3" d="M324.7,439.5c-0.5,0.1-1,0.1-1.5,0.2l-1.7,0.1c-0.6,0-1.3,0.1-2,0.1s-1.4,0-2.2,0.1l0.7,1.9h0.9
	c1.2,0,2.3-0.1,3.4-0.1c1.4-0.1,2.7-0.1,3.9-0.2s2.4-0.2,3.4-0.3s2.1-0.2,3-0.4s1.7-0.3,2.4-0.5c0.6-0.1,1.2-0.3,1.8-0.5
	c0.4-0.1,0.8-0.3,1.1-0.6c0.2-0.1,0.3-0.3,0.4-0.4c0-0.1,0.1-0.1,0.1-0.2c0.1-0.3-0.1-0.5-0.4-0.8c-0.5-0.3-1-0.5-1.6-0.7
	c-0.9-0.2-1.8-0.4-2.7-0.6c-1.1-0.2-2.4-0.3-3.9-0.5c-1.1-0.1-2.2-0.2-3.4-0.3s-2.4-0.1-3.6-0.2s-2.5-0.1-3.8-0.1s-2.7,0-4.1,0
	c-1.7,0-3.3,0-4.8,0s-3,0.1-4.4,0.1s-2.7,0.1-4,0.2s-2.5,0.2-3.6,0.4s-2.1,0.3-3,0.4s-1.6,0.3-2.3,0.5c-0.5,0.1-1,0.3-1.5,0.5
	c-0.3,0.1-0.5,0.3-0.7,0.6c0,0.1,0,0.2,0,0.3c0.1,0.1,0.1,0.2,0.2,0.3c0.2,0.1,0.3,0.2,0.5,0.3c0.3,0.1,0.5,0.2,0.8,0.3l-9.4-0.2
	l-2.4-0.1l1.2-1.9l1-1.5h-12.3l-3.5,4.8l2.6,0.1l34,0.9l0.8-0.6l1.5-1c-0.8-0.1-1.5-0.2-2.1-0.3h-0.2c-0.5-0.1-1-0.2-1.3-0.3
	c-0.3-0.1-0.5-0.2-0.8-0.4c-0.2-0.1-0.2-0.2-0.1-0.4c0.1-0.1,0.2-0.2,0.4-0.3c0.2-0.1,0.5-0.2,0.7-0.3c0.3-0.1,0.7-0.2,1.1-0.2
	l1.5-0.2c0.6-0.1,1.2-0.1,1.9-0.2s1.4-0.1,2.2-0.1s1.7-0.1,2.6-0.1s1.9,0,3,0s2.2,0,3.2,0s1.9,0,2.7,0.1s1.6,0.1,2.3,0.1
	s1.3,0.1,1.9,0.2s1,0.1,1.4,0.2c0.3,0.1,0.7,0.1,1,0.2c0.2,0.1,0.4,0.1,0.6,0.2c0.1,0.1,0.2,0.2,0.1,0.3c0,0.1-0.1,0.2-0.2,0.2
	c-0.2,0.1-0.4,0.2-0.6,0.2l-0.5,0.1l-0.4,0.1C325.6,439.3,325.2,439.4,324.7,439.5z"/>
<path class="st3" d="M294.4,410.9c1,0.1,2.3,0.2,3.7,0.3l1.1,0.1c1.1,0,2.4,0.1,3.7,0.1c1.8,0.1,3.8,0.1,6,0.1h2.1h8.1h3.8
	c2.1,0,4.1-0.1,5.9-0.1s3.4-0.1,4.9-0.2c1.3-0.1,2.5-0.1,3.5-0.2h0.4c1.1-0.1,2.1-0.2,2.9-0.3s1.5-0.2,2.1-0.3
	c0.3-0.1,0.7-0.2,1-0.3l0.3-0.1c0.3-0.1,0.5-0.3,0.5-0.4c0-0.1,0-0.3-0.2-0.4c-0.3-0.2-0.6-0.3-0.9-0.4c-0.4-0.1-0.9-0.2-1.5-0.3
	s-1.3-0.2-2.1-0.3s-1.7-0.2-2.7-0.2s-2-0.1-3-0.2s-2.2-0.1-3.5-0.1s-2.5,0-3.9,0s-2.5,0-3.7,0s-2.3,0-3.4,0.1s-2.1,0.1-3,0.1
	s-1.9,0.1-2.7,0.2s-1.6,0.2-2.3,0.2s-1.2,0.2-1.7,0.3c-0.4,0.1-0.7,0.2-1.1,0.3c-0.2,0.1-0.4,0.2-0.5,0.3c-0.1,0.1,0,0.2,0.1,0.3
	c0.2,0.1,0.5,0.2,0.7,0.3c0.4,0.1,0.9,0.2,1.3,0.2l0.8,0.1l1.1,0.1h-1.6c-1,0-1.9,0-2.7,0h-2.6h-0.9l-2.6-0.1
	c-0.8,0-1.4-0.1-1.8-0.1s-0.9-0.1-1.2-0.1c-0.3,0-0.6-0.1-0.8-0.1c-0.2,0-0.3-0.1-0.5-0.1h0c0,0-0.1-0.1,0-0.1
	c0-0.1,0.1-0.1,0.2-0.1c0.1,0,0.2-0.1,0.4-0.1l0.5-0.1l0.7-0.1l0.9-0.2l1.1,0h1.3h1.5l-0.5-1l-3.1,0.1l-2.8,0.1
	c-0.9,0-1.7,0.1-2.4,0.1s-1.4,0.1-2,0.2s-1.2,0.1-1.7,0.2s-0.9,0.2-1.3,0.2c-0.3,0.1-0.6,0.2-0.9,0.3c-0.2,0.1-0.3,0.2-0.5,0.3
	c-0.1,0.1-0.1,0.3,0,0.4c0,0,0,0,0.1,0c0.3,0.2,0.6,0.3,1,0.4c0.3,0.1,0.7,0.2,1.2,0.2c0.2,0,0.4,0.1,0.6,0.1
	C292.4,410.7,293.3,410.8,294.4,410.9z M315.7,409.5c0.1-0.1,0.1-0.1,0.2-0.1c0.2-0.1,0.4-0.1,0.5-0.1l0.8-0.1
	c0.3,0,0.7-0.1,1.1-0.1s0.9-0.1,1.5-0.1l1.8-0.1h2.1h2.5h2.4h2l1.6,0.1c0.5,0,0.9,0,1.3,0.1s0.7,0.1,1,0.1l0.7,0.1
	c0.1,0,0.3,0.1,0.4,0.1l0,0c0,0,0.1,0.1,0.1,0.1s-0.1,0.1-0.2,0.1c-0.2,0.1-0.4,0.1-0.6,0.1c-0.2,0-0.5,0.1-0.9,0.1
	s-0.8,0.1-1.3,0.1l-1.6,0.1l-1.9,0.1l-2.1,0h-4.6h-1.9l-1.6-0.1c-0.5,0-0.9-0.1-1.3-0.1l-1-0.1l-0.7-0.1c-0.1,0-0.3-0.1-0.4-0.1l0,0
	C315.7,409.6,315.7,409.5,315.7,409.5z"/>
</svg>
