<svg xmlns="http://www.w3.org/2000/svg" xmlns:xlink="http://www.w3.org/1999/xlink" viewBox="0 0 735 852"><defs><style>.cls-1{fill:#77aab6;}.cls-2{fill:none;}.cls-3{isolation:isolate;}.cls-4{clip-path:url(#clip-path);}.cls-5{fill:#db1f26;}.cls-6{fill:#e6b35a;}.cls-7{font-size:158px;letter-spacing:-0.04em;}.cls-11,.cls-25,.cls-7{fill:#fff;}.cls-11,.cls-7{font-family:MyriadPro-Regular, Myriad Pro;}.cls-8{letter-spacing:-0.03em;}.cls-9{letter-spacing:-0.04em;}.cls-10{letter-spacing:-0.03em;}.cls-11{font-size:25px;}.cls-12{letter-spacing:0.01em;}.cls-13{letter-spacing:-0.04em;}.cls-14{letter-spacing:-0.02em;}.cls-15{letter-spacing:-0.01em;}.cls-16{letter-spacing:0em;}.cls-17{fill:#a51d21;}.cls-18{opacity:0.94;}.cls-19{opacity:0.25;mix-blend-mode:multiply;}.cls-20{clip-path:url(#clip-path-2);}.cls-21{clip-path:url(#clip-path-4);}.cls-22{clip-path:url(#clip-path-6);}.cls-23{opacity:0.95;}.cls-24{clip-path:url(#clip-path-8);}</style><clipPath id="clip-path"><polygon class="cls-1" points="369.51 7.4 728.21 214.47 728.21 636.62 369.51 845.03 2.79 636.62 2.79 214.47 369.51 7.4"/></clipPath><clipPath id="clip-path-2"><path class="cls-2" d="M707.11,623.22,369,818.44,30.87,623.22V232.79L369,37.58h0L707.11,232.79Z"/></clipPath><clipPath id="clip-path-4"><polygon class="cls-2" points="212.92 407 520.58 407 7099.45 4588.27 -6365.94 4588.27 212.92 407"/></clipPath><clipPath id="clip-path-6"><path class="cls-2" d="M705.61,621.72,367.49,816.94,29.37,621.72V231.29L367.49,36.08h0L705.61,231.29Z"/></clipPath><clipPath id="clip-path-8"><polygon class="cls-2" points="211.42 405.5 519.08 405.5 7097.95 4586.77 -6367.44 4586.77 211.42 405.5"/></clipPath></defs><title>RStudio_Hex 2017 v4</title><g class="cls-3"><g id="Layer_1" data-name="Layer 1"><polygon class="cls-1" points="369.51 7.4 728.21 214.47 728.21 636.62 369.51 845.03 2.79 636.62 2.79 214.47 369.51 7.4"/><g class="cls-4"><circle class="cls-5" cx="365.5" cy="437.45" r="442.13" transform="translate(-202.27 386.57) rotate(-45)"/></g><path class="cls-6" d="M367,633.9c.29-.29.61-.59.94-.89h-.26C367.49,633.31,367.26,633.61,367,633.9Z"/><text class="cls-7" transform="translate(92.55 381.49)">y<tspan class="cls-8" x="68.73" y="0">a</tspan><tspan class="cls-9" x="139.83" y="0">r</tspan><tspan class="cls-10" x="184.86" y="0">dstick</tspan></text><text class="cls-11" transform="matrix(0.86, -0.5, 0.5, 0.86, 369.28, 809.1)"><tspan class="cls-12">ww</tspan><tspan class="cls-13" x="37.4" y="0">w</tspan><tspan x="54.82" y="0">.rstudi</tspan><tspan class="cls-14" x="120.07" y="0">o</tspan><tspan x="133.2" y="0">.</tspan><tspan class="cls-15" x="138.37" y="0">c</tspan><tspan class="cls-16" x="149.42" y="0">om</tspan></text><path class="cls-17" d="M705.61,196.21,427.81,35.82,367.5,1,307.19,35.82,29.37,196.22.09,213.13V637.38l29.28,16.91L310.65,816.68l56.85,32.83,56.85-32.83L705.61,654.3l29.3-16.92V213.13Zm0,425.26L367.49,816.68,29.37,621.47V231L367.49,35.82h0L705.61,231Z"/><g class="cls-18"><g class="cls-19"><g class="cls-20"><g class="cls-21"><polyline points="-56.96 39.94 790.46 39.94 784.89 43.48 -51.39 43.48 -56.96 39.94"/><polyline points="-27.02 58.97 118.57 58.97 120.86 61.27 -23.4 61.27 -27.02 58.97"/><polyline points="-13.86 67.33 68.33 67.33 70.97 69.48 -10.48 69.48 -13.86 67.33"/><polyline points="-41.11 50.01 46.96 50.01 50 52.48 -37.23 52.48 -41.11 50.01"/><polyline points="614.93 58.97 760.52 58.97 756.9 61.27 612.65 61.27 614.93 58.97"/><polyline points="665.18 67.33 747.36 67.33 743.98 69.48 662.53 69.48 665.18 67.33"/><polyline points="686.55 50.01 774.61 50.01 770.73 52.48 683.51 52.48 686.55 50.01"/><polyline points="-90.18 18.82 78.76 18.82 81.83 21.91 -85.32 21.91 -90.18 18.82"/><polyline points="-72.56 30.02 22.3 30.02 25.82 32.88 -68.07 32.88 -72.56 30.02"/><polyline points="654.75 18.82 823.69 18.82 818.83 21.91 651.68 21.91 654.75 18.82"/><polyline points="711.21 30.02 806.07 30.02 801.57 32.88 707.69 32.88 711.21 30.02"/><polyline points="17782.47 13413.33 17782.47 13413.33 -14985.53 -19354.67 -14985.53 -19354.67 17782.47 13413.33"/><polyline points="-14985.53 13413.33 -14985.53 13413.33 17782.47 -19354.67 17782.47 -19354.67 -14985.53 13413.33"/><polyline points="906.46 652.25 -172.96 652.25 -182.26 658.16 915.76 658.16 906.46 652.25"/><polyline points="1032.63 732.44 718.25 732.44 725.76 741.48 1046.85 741.48 1032.63 732.44"/><polyline points="15.26 732.44 -299.13 732.44 -313.35 741.48 7.76 741.48 15.26 732.44"/><polyline points="820.48 597.61 606.26 597.61 609.73 601.78 827.04 601.78 820.48 597.61"/><polyline points="860.71 623.17 678.08 623.17 681.74 626.87 866.52 626.87 860.71 623.17"/><polyline points="787.71 576.78 632.07 576.78 634.72 579.45 791.92 579.45 787.71 576.78"/><polyline points="803.86 587.04 709.47 587.04 713.04 589.93 808.4 589.93 803.86 587.04"/><polyline points="772.71 567.24 685.05 567.24 688.12 569.73 776.62 569.73 772.71 567.24"/><polyline points="758.14 557.98 512.03 557.98 513.84 561.08 763.01 561.08 758.14 557.98"/><polyline points="127.25 597.61 -86.98 597.61 -93.54 601.78 123.78 601.78 127.25 597.61"/><polyline points="55.42 623.17 -127.21 623.17 -133.02 626.87 51.76 626.87 55.42 623.17"/><polyline points="101.43 576.78 -54.21 576.78 -58.41 579.45 98.78 579.45 101.43 576.78"/><polyline points="24.02 587.04 -70.35 587.04 -74.9 589.93 20.46 589.93 24.02 587.04"/><polyline points="48.45 567.24 -39.2 567.24 -43.12 569.73 45.38 569.73 48.45 567.24"/><polyline points="221.47 557.98 -24.63 557.98 -29.51 561.08 219.66 561.08 221.47 557.98"/><polyline points="673.76 504.36 59.74 504.36 56.75 506.26 676.75 506.26 673.76 504.36"/><polyline points="733.51 542.33 597.9 542.33 599.92 544.36 736.7 544.36 733.51 542.33"/><polyline points="745.7 550.08 663.88 550.08 666.55 552.25 749.11 552.25 745.7 550.08"/><polyline points="722.07 535.06 645.34 535.06 647.7 536.97 725.07 536.97 722.07 535.06"/><polyline points="691.67 515.74 571.53 515.74 573.11 517.33 694.17 517.33 691.67 515.74"/><polyline points="701.21 521.8 628.99 521.8 631.07 523.49 703.86 523.49 701.21 521.8"/><polyline points="682.66 510.01 614.45 510.01 616.3 511.52 685.03 511.52 682.66 510.01"/><polyline points="710.85 527.93 548.39 527.93 550.38 530.32 714.62 530.32 710.85 527.93"/><polyline points="135.59 542.33 0 542.33 -3.2 544.36 133.58 544.36 135.59 542.33"/><polyline points="69.62 550.08 -12.2 550.08 -15.61 552.25 66.95 552.25 69.62 550.08"/><polyline points="88.15 535.06 11.44 535.06 8.44 536.97 85.8 536.97 88.15 535.06"/><polyline points="161.96 515.74 41.84 515.74 39.33 517.33 160.38 517.33 161.96 515.74"/><polyline points="104.51 521.8 32.3 521.8 29.64 523.49 102.43 523.49 104.51 521.8"/><polyline points="119.05 510.01 50.84 510.01 48.48 511.52 117.2 511.52 119.05 510.01"/><polyline points="185.11 527.93 22.65 527.93 18.89 530.32 183.13 530.32 185.11 527.93"/><polyline points="643.89 485.38 513.05 485.38 514.33 486.92 646.33 486.92 643.89 485.38"/><polyline points="658.4 494.59 550.57 494.59 551.84 495.88 660.42 495.88 658.4 494.59"/><polyline points="666.06 499.46 601.43 499.46 603.1 500.81 668.18 500.81 666.06 499.46"/><polyline points="651.12 489.97 589.72 489.97 591.22 491.19 653.04 491.19 651.12 489.97"/><polyline points="637.6 481.38 579.11 481.38 580.48 482.48 639.34 482.48 637.6 481.38"/><polyline points="220.46 485.38 89.61 485.38 87.17 486.92 219.18 486.92 220.46 485.38"/><polyline points="182.93 494.59 75.1 494.59 73.09 495.88 181.66 495.88 182.93 494.59"/><polyline points="132.07 499.46 67.44 499.46 65.32 500.81 130.4 500.81 132.07 499.46"/><polyline points="143.78 489.97 82.38 489.97 80.47 491.19 142.28 491.19 143.78 489.97"/><polyline points="154.38 481.38 95.9 481.38 94.17 482.48 153.02 482.48 154.38 481.38"/><polyline points="631.31 477.38 533.49 477.38 534.54 478.43 632.97 478.43 631.31 477.38"/><polyline points="625.31 473.56 569.48 473.56 570.72 474.57 626.89 474.57 625.31 473.56"/><polyline points="619.32 469.75 460.5 469.75 461.25 471.04 621.34 471.04 619.32 469.75"/><polyline points="200 477.38 102.19 477.38 100.53 478.43 198.96 478.43 200 477.38"/><polyline points="164.02 473.56 108.2 473.56 106.61 474.57 162.78 474.57 164.02 473.56"/><polyline points="273 469.75 114.19 469.75 112.16 471.04 272.25 471.04 273 469.75"/><polyline points="581.27 445.58 152.23 445.58 150.77 446.5 582.73 446.5 581.27 445.58"/><polyline points="608.83 463.09 519.32 463.09 520.2 463.97 610.21 463.97 608.83 463.09"/><polyline points="614.08 466.43 560.67 466.43 561.81 467.35 615.53 467.35 614.08 466.43"/><polyline points="603.79 459.89 552.61 459.89 553.65 460.73 605.12 460.73 603.79 459.89"/><polyline points="589.86 451.04 507.37 451.04 508.11 451.79 591.04 451.79 589.86 451.04"/><polyline points="594.32 453.87 545.18 453.87 546.14 454.65 595.55 454.65 594.32 453.87"/><polyline points="585.58 448.31 538.33 448.31 539.22 449.03 586.71 449.03 585.58 448.31"/><polyline points="598.75 456.68 489.22 456.68 490.11 457.76 600.45 457.76 598.75 456.68"/><polyline points="214.18 463.09 124.68 463.09 123.29 463.97 213.3 463.97 214.18 463.09"/><polyline points="172.82 466.43 119.42 466.43 117.97 467.35 171.69 467.35 172.82 466.43"/><polyline points="180.89 459.89 129.71 459.89 128.38 460.73 179.85 460.73 180.89 459.89"/><polyline points="226.13 451.04 143.64 451.04 142.46 451.79 225.38 451.79 226.13 451.04"/><polyline points="188.32 453.87 139.18 453.87 137.96 454.65 187.36 454.65 188.32 453.87"/><polyline points="195.17 448.31 147.92 448.31 146.79 449.03 194.28 449.03 195.17 448.31"/><polyline points="244.29 456.68 134.75 456.68 133.05 457.76 243.39 457.76 244.29 456.68"/><polyline points="566.25 436.03 472.06 436.03 472.73 436.83 567.51 436.83 566.25 436.03"/><polyline points="573.66 440.74 497.16 440.74 497.79 441.38 574.67 441.38 573.66 440.74"/><polyline points="577.48 443.17 531.98 443.17 532.8 443.84 578.53 443.84 577.48 443.17"/><polyline points="569.97 438.39 526.09 438.39 526.85 439.01 570.94 439.01 569.97 438.39"/><polyline points="559.65 431.83 488.32 431.83 488.88 432.39 560.52 432.39 559.65 431.83"/><polyline points="562.97 433.94 520.6 433.94 521.31 434.52 563.88 434.52 562.97 433.94"/><polyline points="556.43 429.79 515.48 429.79 516.14 430.33 557.28 430.33 556.43 429.79"/><polyline points="553.19 427.73 435.96 427.73 436.36 428.43 554.29 428.43 553.19 427.73"/><polyline points="261.44 436.03 167.25 436.03 166 436.83 260.78 436.83 261.44 436.03"/><polyline points="236.34 440.74 159.84 440.74 158.83 441.38 235.71 441.38 236.34 440.74"/><polyline points="201.52 443.17 156.02 443.17 154.97 443.84 200.69 443.84 201.52 443.17"/><polyline points="207.41 438.39 163.54 438.39 162.56 439.01 206.65 439.01 207.41 438.39"/><polyline points="245.17 431.83 173.86 431.83 172.98 432.39 244.62 432.39 245.17 431.83"/><polyline points="212.9 433.94 170.53 433.94 169.63 434.52 212.19 434.52 212.9 433.94"/><polyline points="218.02 429.79 177.07 429.79 176.22 430.33 217.36 430.33 218.02 429.79"/><polyline points="297.55 427.73 180.31 427.73 179.21 428.43 297.14 428.43 297.55 427.73"/><polyline points="531.61 414.01 201.89 414.01 201.03 414.56 532.47 414.56 531.61 414.01"/><polyline points="547.41 424.05 480.61 424.05 481.1 424.55 548.18 424.55 547.41 424.05"/><polyline points="550.32 425.9 510.68 425.9 511.31 426.41 551.12 426.41 550.32 425.9"/><polyline points="544.59 422.26 506.19 422.26 506.78 422.74 545.34 422.74 544.59 422.26"/><polyline points="536.63 417.21 473.82 417.21 474.25 417.64 537.32 417.64 536.63 417.21"/><polyline points="539.21 418.84 501.97 418.84 502.52 419.29 539.91 419.29 539.21 418.84"/><polyline points="534.14 415.62 498 415.62 498.51 416.04 534.8 416.04 534.14 415.62"/><polyline points="541.74 420.45 459.12 420.45 459.63 421.06 542.7 421.06 541.74 420.45"/><polyline points="252.88 424.05 186.09 424.05 185.32 424.55 252.4 424.55 252.88 424.05"/><polyline points="222.82 425.9 183.18 425.9 182.38 426.41 222.19 426.41 222.82 425.9"/><polyline points="227.31 422.26 188.91 422.26 188.16 422.74 226.72 422.74 227.31 422.26"/><polyline points="259.68 417.21 196.87 417.21 196.19 417.64 259.25 417.64 259.68 417.21"/><polyline points="231.53 418.84 194.29 418.84 193.59 419.29 230.98 419.29 231.53 418.84"/><polyline points="235.5 415.62 199.36 415.62 198.7 416.04 234.99 416.04 235.5 415.62"/><polyline points="274.38 420.45 191.76 420.45 190.8 421.06 273.87 421.06 274.38 420.45"/><polyline points="522.59 408.28 449.01 408.28 449.42 408.77 523.36 408.77 522.59 408.28"/><polyline points="527.07 411.13 467.8 411.13 468.18 411.51 527.68 411.51 527.07 411.13"/><polyline points="529.36 412.58 494.25 412.58 494.74 412.98 529.99 412.98 529.36 412.58"/><polyline points="524.85 409.71 490.71 409.71 491.17 410.09 525.44 410.09 524.85 409.71"/><polyline points="520.58 407 487.36 407 487.8 407.36 521.14 407.36 520.58 407"/><polyline points="284.49 408.28 210.91 408.28 210.15 408.77 284.09 408.77 284.49 408.28"/><polyline points="265.7 411.13 206.43 411.13 205.82 411.51 265.32 411.51 265.7 411.13"/><polyline points="239.25 412.58 204.14 412.58 203.52 412.98 238.76 412.98 239.25 412.58"/><polyline points="242.79 409.71 208.65 409.71 208.06 410.09 242.33 410.09 242.79 409.71"/><polyline points="246.14 407 212.92 407 212.36 407.36 245.7 407.36 246.14 407"/><path d="M229.67,674.63q-4.44,0-8.64.24t-8.2.71c-2.67.32-5.26.72-7.79,1.2s-5,1.05-7.41,1.69-4.67,1.35-6.77,2.11a58.77,58.77,0,0,0-5.88,2.47,40.83,40.83,0,0,0-5,2.84,29.69,29.69,0,0,0-4.05,3.22,25.45,25.45,0,0,0-6.05-5,36.35,36.35,0,0,0-8-3.46,58.27,58.27,0,0,0-9.91-2,97.69,97.69,0,0,0-11.95-.68q-4.58,0-9.13.33c-3,.22-6.07.55-9.11,1s-6.09,1-9.15,1.67-6.14,1.46-9.22,2.36a108.81,108.81,0,0,0-10.5,3.6,71,71,0,0,0-8.82,4.23,48.1,48.1,0,0,0-7.12,4.9,34.22,34.22,0,0,0-5.39,5.62,24.66,24.66,0,0,0-2.19,3.46,15.36,15.36,0,0,0-1.26,3.33,11.19,11.19,0,0,0-.32,3.22,10.4,10.4,0,0,0,.65,3.09,11.68,11.68,0,0,0,1.61,2.87,14.73,14.73,0,0,0,2.5,2.57,21.8,21.8,0,0,0,3.42,2.26,33.81,33.81,0,0,0,4.34,1.93c1.61.59,3.41,1.15,5.42,1.67s4.21,1,6.62,1.45,5,.86,7.84,1.23,5.84.71,9,1L126,713.2q-3.43-.16-6.36-.48c-1.94-.22-3.71-.48-5.3-.8a32.85,32.85,0,0,1-4.24-1.1,17.42,17.42,0,0,1-3.19-1.39,9.78,9.78,0,0,1-2.14-1.61,4.61,4.61,0,0,1-1.11-1.75,3.69,3.69,0,0,1-.1-1.9,5.87,5.87,0,0,1,.91-2,10.74,10.74,0,0,1,1.73-2,15.88,15.88,0,0,1,2.35-1.78,23.81,23.81,0,0,1,3-1.55,34.49,34.49,0,0,1,3.6-1.35c1.3-.41,2.65-.77,4-1.07s2.86-.57,4.37-.77,3.07-.36,4.69-.46,3.29-.15,5-.15c2,0,3.92.07,5.66.2a45.14,45.14,0,0,1,4.83.63,28.09,28.09,0,0,1,4,1,17,17,0,0,1,3.18,1.47,7.72,7.72,0,0,1,2.17,1.9,4.94,4.94,0,0,1,1,2.3,6.43,6.43,0,0,1-.19,2.72,12.81,12.81,0,0,1-1.42,3.16l32.35,1.85a17.82,17.82,0,0,1-.34-2.16,13.25,13.25,0,0,1,0-2,10.52,10.52,0,0,1,.27-1.81,9.08,9.08,0,0,1,.57-1.64,8.28,8.28,0,0,1,1.61-2.26,14,14,0,0,1,2.59-2.06,26.53,26.53,0,0,1,3.59-1.87q2-.87,4.55-1.67c1.67-.52,3.45-1,5.32-1.37s3.82-.72,5.88-1,4.21-.46,6.46-.59,4.61-.19,7.06-.19c2.6,0,5,.06,7.31.2s4.4.34,6.37.61a53.33,53.33,0,0,1,5.46,1A33.89,33.89,0,0,1,246,693a22,22,0,0,1,3.51,1.75,9.71,9.71,0,0,1,2.32,2,5.06,5.06,0,0,1,1.12,2.18,4.81,4.81,0,0,1-.11,2.4,7.3,7.3,0,0,1-1.16,2.27,11.1,11.1,0,0,1-2.11,2.12,20.62,20.62,0,0,1-3.07,2,35.59,35.59,0,0,1-4.06,1.8,51.29,51.29,0,0,1-5,1.56q-2.69.69-5.79,1.23t-6.62.91q-3.51.36-7.43.56l-1.36,17.49q7.24-.36,13.95-1.17T243.05,728q6.09-1.26,11.57-3a99.33,99.33,0,0,0,10.3-3.78,65.77,65.77,0,0,0,8.54-4.41,39.74,39.74,0,0,0,6.37-4.83,24.29,24.29,0,0,0,4.24-5.23,17.68,17.68,0,0,0,2.19-5.59,13,13,0,0,0,0-5.73,13.39,13.39,0,0,0-2.48-5.11,22.43,22.43,0,0,0-4.86-4.51,43,43,0,0,0-7.18-3.95,68.93,68.93,0,0,0-8.83-3.2,91.6,91.6,0,0,0-9.92-2.25q-5.24-.88-11.05-1.33t-12.25-.45"/><path d="M314.3,449.05c-1.14,0-2.23,0-3.29,0s-2.08.06-3.06.1-1.94.11-2.85.18-1.8.15-2.65.24-1.62.2-2.34.31-1.36.22-1.94.35-1.09.26-1.54.4a8.21,8.21,0,0,0-1.14.45,27.38,27.38,0,0,0-2.86-.69c-1.05-.2-2.2-.36-3.45-.5s-2.59-.22-4-.29-3-.1-4.63-.1c-1.16,0-2.31,0-3.43,0s-2.22.08-3.31.14-2.15.15-3.2.24-2.09.21-3.1.34c-1.25.16-2.36.33-3.35.51a26.14,26.14,0,0,0-2.56.59,9.85,9.85,0,0,0-1.79.67,3.08,3.08,0,0,0-1,.76.94.94,0,0,0-.19.46.72.72,0,0,0,.12.44,1.37,1.37,0,0,0,.44.42,4.08,4.08,0,0,0,.76.4,10.48,10.48,0,0,0,1.05.37c.4.11.84.22,1.32.32s1,.2,1.58.29l1.84.24,2.17.21c.78.06,1.63.12,2.55.17s1.89.11,2.93.16l3.31.12,3.61-2.08-2.35-.07c-.73,0-1.4-.06-2-.1s-1.18-.09-1.69-.14l-1.36-.18c-.39-.07-.73-.14-1-.21a4.41,4.41,0,0,1-.68-.23.8.8,0,0,1-.32-.25.24.24,0,0,1,0-.27.92.92,0,0,1,.33-.27,2.57,2.57,0,0,1,.59-.24,8.17,8.17,0,0,1,.86-.22l1.12-.18c.42-.06.87-.1,1.34-.15l1.51-.1c.52,0,1.08-.05,1.67-.06s1.2,0,1.84,0,1.46,0,2.13,0,1.29.05,1.87.09,1.13.09,1.63.14.95.13,1.37.2a9.23,9.23,0,0,1,1,.26,2.56,2.56,0,0,1,.66.31.58.58,0,0,1,.27.37.48.48,0,0,1-.12.41l11.95.25a2.84,2.84,0,0,1-.36-.29,1.27,1.27,0,0,1-.22-.26.5.5,0,0,1-.1-.24.34.34,0,0,1,0-.22.69.69,0,0,1,.34-.3,3.73,3.73,0,0,1,.74-.28,11.19,11.19,0,0,1,1.12-.26c.44-.08.95-.16,1.52-.23s1.18-.13,1.83-.19,1.36-.1,2.1-.13,1.52-.07,2.35-.09l2.62,0c1,0,1.88,0,2.74,0s1.67,0,2.43.08l2.11.14c.65.06,1.25.13,1.8.2s1,.16,1.43.24a9.44,9.44,0,0,1,1,.27,1.51,1.51,0,0,1,.56.3.28.28,0,0,1,.12.32.64.64,0,0,1-.26.3,2.71,2.71,0,0,1-.63.28,8.42,8.42,0,0,1-1,.26c-.39.08-.83.16-1.34.24s-1.07.14-1.68.2-1.28.11-2,.16-1.49.09-2.31.12l-2.62.07,1,2.19c1.67,0,3.27-.07,4.79-.14s3-.15,4.34-.25,2.66-.23,3.88-.37,2.35-.29,3.42-.47,2-.36,2.8-.56a16.2,16.2,0,0,0,2-.62,5.31,5.31,0,0,0,1.28-.68,1.33,1.33,0,0,0,.53-.75A.82.82,0,0,0,337,452a3.65,3.65,0,0,0-1.18-.71,14.18,14.18,0,0,0-2.05-.63c-.83-.2-1.81-.38-2.93-.56s-2.31-.33-3.55-.46-2.56-.24-3.94-.33-2.81-.15-4.32-.19-3.08-.07-4.72-.07"/><path d="M326.77,415.81c-.86,0-1.7,0-2.5,0s-1.58,0-2.33.06-1.47.06-2.16.1-1.35.08-2,.14-1.22.11-1.75.18-1,.13-1.45.2-.81.15-1.14.23a6.17,6.17,0,0,0-.82.26c-.68-.15-1.43-.28-2.24-.4s-1.71-.21-2.67-.28-2-.14-3.11-.17-2.28-.06-3.54-.06c-.88,0-1.75,0-2.6,0s-1.69,0-2.51.08-1.62.08-2.4.14-1.56.12-2.32.19c-.93.09-1.75.19-2.48.3s-1.35.22-1.87.34a7.34,7.34,0,0,0-1.26.39,1.56,1.56,0,0,0-.66.43.32.32,0,0,0-.08.27.45.45,0,0,0,.15.25,1.65,1.65,0,0,0,.39.24,6.13,6.13,0,0,0,.62.22,7.55,7.55,0,0,0,.85.21c.31.07.66.13,1,.19s.78.11,1.23.16.91.1,1.42.14l1.66.11,1.94.11,2.22.08,2.51.07,2.49-1.18-1.78,0c-.56,0-1.07,0-1.54-.06l-1.29-.08c-.39,0-.74-.06-1.05-.1l-.8-.12a4.57,4.57,0,0,1-.53-.13.77.77,0,0,1-.28-.15.1.1,0,0,1,0-.15.53.53,0,0,1,.21-.16,2.35,2.35,0,0,1,.42-.13,5.28,5.28,0,0,1,.63-.13l.83-.1,1-.09,1.13-.06c.4,0,.82,0,1.26,0l1.4,0,1.62,0,1.43.05,1.25.08c.38,0,.73.07,1.06.12a6.43,6.43,0,0,1,.82.15,2.76,2.76,0,0,1,.53.17.57.57,0,0,1,.24.21.24.24,0,0,1-.05.24l9.05.14a2.52,2.52,0,0,1-.29-.16,1,1,0,0,1-.19-.15.28.28,0,0,1-.09-.14.17.17,0,0,1,0-.12.49.49,0,0,1,.24-.18,2.84,2.84,0,0,1,.53-.16l.84-.15,1.13-.13,1.38-.11,1.58-.08,1.78,0,2,0,2.09,0c.65,0,1.27,0,1.84.05l1.62.08,1.37.11c.42.05.79.09,1.1.14s.57.1.77.15a2.38,2.38,0,0,1,.44.17c.09.06.13.13.11.19a.32.32,0,0,1-.19.17,2.39,2.39,0,0,1-.45.17,6.83,6.83,0,0,1-.73.14c-.29.05-.62.1-1,.14s-.8.08-1.26.11l-1.5.1-1.73.06-2,0,.88,1.25c1.25,0,2.45,0,3.59-.08l3.25-.14q1.54-.09,2.91-.21t2.55-.27c.79-.1,1.49-.21,2.09-.32a15.1,15.1,0,0,0,1.51-.35,4.68,4.68,0,0,0,.94-.39.73.73,0,0,0,.37-.43c0-.15-.05-.3-.24-.44a3,3,0,0,0-.92-.41,12.9,12.9,0,0,0-1.59-.36q-1-.18-2.25-.33c-.86-.1-1.77-.19-2.73-.26s-2-.14-3-.19-2.15-.09-3.31-.12-2.35,0-3.6,0"/><path d="M290.2,513.29c-1.66,0-3.26,0-4.81.08s-3.05.12-4.5.22-2.86.22-4.21.37-2.67.32-3.94.52-2.44.42-3.52.65-2.06.49-3,.76a21,21,0,0,0-2.39.87,11.07,11.07,0,0,0-1.83,1,25.2,25.2,0,0,0-4-1.5,40.81,40.81,0,0,0-4.87-1.06q-2.66-.42-5.79-.63t-6.74-.21c-1.7,0-3.37,0-5,.11s-3.29.17-4.91.3-3.21.31-4.79.51-3.16.45-4.71.73c-1.9.33-3.61.7-5.15,1.09a36,36,0,0,0-4.07,1.28,16.35,16.35,0,0,0-3,1.46,7,7,0,0,0-1.87,1.65,3.33,3.33,0,0,0-.54,1,2,2,0,0,0-.06,1,2.27,2.27,0,0,0,.43.92,4.1,4.1,0,0,0,.92.88,8.7,8.7,0,0,0,1.37.82,17.5,17.5,0,0,0,1.79.72c.67.22,1.4.43,2.21.63s1.68.37,2.62.54,2,.31,3.13.46,2.39.27,3.73.4,2.77.23,4.31.34,3.17.19,4.9.27l6.3-4.62c-1.25,0-2.4-.08-3.47-.14s-2.06-.14-3-.23-1.71-.19-2.44-.31-1.37-.26-1.93-.4a10.54,10.54,0,0,1-1.41-.47,3.66,3.66,0,0,1-.88-.5,1,1,0,0,1-.37-.55.84.84,0,0,1,.15-.59,2.3,2.3,0,0,1,.61-.59,5.21,5.21,0,0,1,1-.52,10.43,10.43,0,0,1,1.37-.46c.52-.15,1.1-.28,1.74-.4s1.32-.23,2-.32,1.47-.17,2.26-.23,1.62-.11,2.49-.14,1.77,0,2.72,0q1.66,0,3.12.06c1,0,1.89.1,2.73.19s1.62.18,2.33.31a16.52,16.52,0,0,1,1.94.44,7,7,0,0,1,1.45.56,2.63,2.63,0,0,1,.85.67,1.2,1.2,0,0,1,.26.8,1.84,1.84,0,0,1-.34.91l17.61.54a4.11,4.11,0,0,1-.43-.62,2.61,2.61,0,0,1-.25-.58,1.63,1.63,0,0,1-.06-.53,1.41,1.41,0,0,1,.12-.48,1.77,1.77,0,0,1,.61-.66,5.58,5.58,0,0,1,1.18-.61,13.92,13.92,0,0,1,1.74-.55c.67-.18,1.44-.34,2.3-.5s1.78-.3,2.76-.41,2-.22,3.12-.3,2.26-.13,3.48-.17,2.51-.06,3.85-.06,2.77,0,4,.06,2.44.1,3.55.18,2.12.19,3.07.31,1.81.27,2.6.43,1.48.34,2.05.52a8.27,8.27,0,0,1,1.41.58,2.15,2.15,0,0,1,.77.65.83.83,0,0,1,.11.7,1.53,1.53,0,0,1-.46.67,4.15,4.15,0,0,1-1,.61,11,11,0,0,1-1.51.57c-.59.18-1.27.35-2,.52s-1.61.31-2.54.44-1.92.26-3,.36-2.23.18-3.46.25-2.53.13-3.91.17l.86,4.87c2.51-.07,4.91-.17,7.2-.32s4.47-.34,6.54-.57,4-.5,5.88-.81,3.57-.66,5.18-1.05a43.47,43.47,0,0,0,4.27-1.24,19.43,19.43,0,0,0,3.12-1.37,8.27,8.27,0,0,0,2-1.5,3.53,3.53,0,0,0,.89-1.63,2.26,2.26,0,0,0-.31-1.69,4.79,4.79,0,0,0-1.62-1.52,15.27,15.27,0,0,0-2.93-1.37,37.49,37.49,0,0,0-4.2-1.2q-2.42-.57-5.11-1t-5.68-.69q-3-.29-6.27-.42c-2.19-.09-4.49-.14-6.88-.14"/><path d="M255.23,606.51q-3.61,0-7,.16t-6.62.47c-2.15.21-4.23.48-6.26.79s-4,.69-5.9,1.12-3.7.89-5.35,1.39a48.5,48.5,0,0,0-4.58,1.62,32,32,0,0,0-3.8,1.86,20.53,20.53,0,0,0-3,2.1,24.33,24.33,0,0,0-5.29-3.24,38,38,0,0,0-6.74-2.27,62.91,62.91,0,0,0-8.23-1.34q-4.48-.45-9.76-.45c-2.48,0-4.94.08-7.38.22s-4.88.36-7.3.66-4.84.65-7.25,1.09-4.82,1-7.22,1.55q-4.42,1.08-8.1,2.36a53.63,53.63,0,0,0-6.64,2.76,31.79,31.79,0,0,0-5.17,3.18,19.08,19.08,0,0,0-3.66,3.63,11.58,11.58,0,0,0-1.35,2.22,7.45,7.45,0,0,0-.61,2.14,5.63,5.63,0,0,0,.13,2.05,6.42,6.42,0,0,0,.89,2,9.42,9.42,0,0,0,1.62,1.82,13.85,13.85,0,0,0,2.29,1.63,22.39,22.39,0,0,0,3,1.43,35.91,35.91,0,0,0,3.67,1.21c1.34.38,2.83.73,4.48,1.05s3.45.63,5.41.91,4.07.54,6.34.78,4.69.44,7.26.63l11.59-10.46c-1.84-.07-3.55-.18-5.12-.31s-3-.31-4.31-.51a34.85,34.85,0,0,1-3.5-.7,17.65,17.65,0,0,1-2.69-.89,9.79,9.79,0,0,1-1.88-1,3.9,3.9,0,0,1-1.08-1.12,2,2,0,0,1-.27-1.22,2.67,2.67,0,0,1,.51-1.3,6.08,6.08,0,0,1,1.17-1.29,10,10,0,0,1,1.71-1.15,18.73,18.73,0,0,1,2.23-1c.84-.31,1.76-.6,2.77-.87s2-.5,3.15-.7,2.25-.36,3.45-.49,2.43-.23,3.73-.3,2.63-.1,4-.1c1.63,0,3.16.05,4.58.14s2.74.22,3.95.4a29.35,29.35,0,0,1,3.32.68,16.5,16.5,0,0,1,2.69,1A7.29,7.29,0,0,1,195,622a3.64,3.64,0,0,1,1,1.49,3.42,3.42,0,0,1,.08,1.75,6.53,6.53,0,0,1-.87,2l26,1.18a10.92,10.92,0,0,1-.44-1.38,6.53,6.53,0,0,1-.17-1.27,4.72,4.72,0,0,1,.42-2.22,4.76,4.76,0,0,1,1.12-1.46,9.93,9.93,0,0,1,1.94-1.33,19.44,19.44,0,0,1,2.75-1.21c1-.38,2.24-.74,3.55-1.09s2.72-.64,4.2-.89,3-.47,4.68-.64,3.37-.3,5.18-.38,3.71-.13,5.69-.13,4.06.05,5.91.13,3.57.23,5.18.4,3.09.4,4.45.67a33.49,33.49,0,0,1,3.74.93,20.75,20.75,0,0,1,2.92,1.14,8.2,8.2,0,0,1,2,1.27,3.45,3.45,0,0,1,1,1.41,2.48,2.48,0,0,1,0,1.55,4.05,4.05,0,0,1-.82,1.46,7.33,7.33,0,0,1-1.59,1.36,15.24,15.24,0,0,1-2.37,1.26,29.74,29.74,0,0,1-3.16,1.15c-1.18.37-2.48.7-3.89,1s-2.93.56-4.56.78-3.38.42-5.23.58-3.82.28-5.9.36l0,11q5.72-.21,11-.72t10-1.29q4.75-.79,9-1.85c2.84-.71,5.51-1.5,8-2.39a55.48,55.48,0,0,0,6.62-2.79,29.27,29.27,0,0,0,4.91-3.07,15.88,15.88,0,0,0,3.21-3.34,9.64,9.64,0,0,0,1.57-3.59,6.93,6.93,0,0,0-.2-3.71,8.69,8.69,0,0,0-2.17-3.32,18.51,18.51,0,0,0-4.09-2.94,39.91,39.91,0,0,0-6-2.59,68.21,68.21,0,0,0-7.3-2.11c-2.57-.59-5.28-1.09-8.15-1.48s-5.88-.69-9-.89-6.5-.29-10-.29"/><path d="M289.35,496.93l-31.74-4.37h33.54l-1.8,4.37M309.47,487h-16l-.91,2.19h-61.1l-2.2,2.93L288,500.48h17.18l2.55-7.92h19.74l.73-3.38H308.77l.7-2.19"/><path d="M316.41,437c-1.68,0-3.3,0-4.84.05s-3,.09-4.43.15-2.74.15-4,.26-2.47.21-3.6.35-2.14.28-3,.43-1.63.31-2.26.47a8.32,8.32,0,0,0-1.51.53,1.68,1.68,0,0,0-.73.57.39.39,0,0,0,0,.31.78.78,0,0,0,.25.32,3,3,0,0,0,.53.31,7.12,7.12,0,0,0,.81.3l-11.79-.28,2.17-3.36h-12.3l-3.54,4.76,36.57,1,2.3-1.52c-.81-.1-1.51-.21-2.11-.32a13.93,13.93,0,0,1-1.44-.35,2.69,2.69,0,0,1-.79-.36c-.15-.13-.2-.25-.13-.38a.68.68,0,0,1,.34-.3,3.79,3.79,0,0,1,.74-.27q.46-.12,1.11-.24c.44-.07.94-.14,1.5-.2s1.19-.12,1.88-.17,1.44-.09,2.25-.12,1.69-.06,2.62-.07,1.94,0,3,0,2.19,0,3.18,0,1.9,0,2.74.07,1.6.07,2.29.12,1.31.11,1.86.17,1,.13,1.42.21a8.47,8.47,0,0,1,1,.22,2.25,2.25,0,0,1,.57.25c.11.09.16.18.13.27a.45.45,0,0,1-.23.25,3.1,3.1,0,0,1-.57.22,7.71,7.71,0,0,1-.89.22c-.36.07-.76.13-1.23.2s-1,.12-1.51.17l-1.74.14c-.61,0-1.27.07-2,.09s-1.43.05-2.2.06l.75,1.87c1.51,0,2.94-.07,4.31-.13s2.66-.12,3.87-.21,2.36-.19,3.43-.3,2.06-.24,3-.39,1.72-.29,2.42-.45a13.69,13.69,0,0,0,1.76-.52,4.36,4.36,0,0,0,1.11-.57,1.07,1.07,0,0,0,.45-.63c.06-.27-.08-.53-.41-.77a5.49,5.49,0,0,0-1.58-.67,23.76,23.76,0,0,0-2.73-.58c-1.09-.18-2.38-.34-3.86-.49-1.08-.11-2.19-.2-3.35-.28s-2.36-.15-3.6-.2-2.51-.1-3.84-.13-2.68,0-4.09,0"/><path d="M326.27,411.75h-2.18l-1.87,0-1.58-.07c-.48,0-.91-.06-1.29-.1s-.7-.07-1-.11-.5-.09-.68-.13a1.43,1.43,0,0,1-.37-.14c-.08,0-.1-.1-.08-.15a.44.44,0,0,1,.23-.16,3,3,0,0,1,.53-.14c.23-.05.51-.09.84-.13l1.13-.12,1.44-.09,1.79-.07,2.12,0h4.85l2,0c.61,0,1.16,0,1.64.06s.92,0,1.28.09l1,.1.67.12a1.72,1.72,0,0,1,.38.14c.08,0,.11.09.1.14a.37.37,0,0,1-.22.16,4.09,4.09,0,0,1-.56.14c-.25.05-.55.09-.91.14l-1.25.13-1.58.1c-.57,0-1.19.06-1.86.08l-2.14.05h-2.42m1.81-2.56c-1.29,0-2.52,0-3.7,0s-2.31,0-3.38.09-2.09.09-3.05.15-1.88.13-2.74.21-1.62.16-2.28.25-1.23.18-1.69.27a6.72,6.72,0,0,0-1.1.31.9.9,0,0,0-.49.33c-.06.1,0,.19.12.29a2.73,2.73,0,0,0,.72.27c.34.08.78.16,1.31.24s1.18.15,1.92.22l-4.31,0-3.49-.07c-1,0-1.91-.05-2.65-.09s-1.36-.07-1.83-.11l-1.23-.12q-.51-.07-.84-.15a1.44,1.44,0,0,1-.45-.15c-.09-.05-.12-.11-.08-.17a.46.46,0,0,1,.18-.12,1.62,1.62,0,0,1,.35-.11,4.6,4.6,0,0,1,.53-.1l.7-.09.89-.07,1.08-.06,1.28,0,1.46,0-.46-1-3.11.08-2.75.11-2.4.15c-.74.06-1.42.12-2,.19s-1.18.15-1.67.23a11.67,11.67,0,0,0-1.26.25,5.43,5.43,0,0,0-.86.28,1.13,1.13,0,0,0-.45.31.29.29,0,0,0,.08.44,2.72,2.72,0,0,0,.95.4,16.81,16.81,0,0,0,1.82.37c.76.11,1.66.22,2.71.32s2.29.18,3.71.26,3,.14,4.84.19,3.79.08,6,.11,4.54,0,7.08,0,4.8,0,6.94,0,4.11-.06,5.92-.11,3.42-.11,4.88-.18,2.74-.15,3.84-.25,2.08-.2,2.92-.31,1.54-.22,2.1-.34a6.66,6.66,0,0,0,1.29-.38c.3-.13.46-.27.49-.41s-.05-.27-.23-.39a3.48,3.48,0,0,0-.87-.34,14.82,14.82,0,0,0-1.5-.31c-.6-.1-1.31-.18-2.12-.27s-1.69-.15-2.63-.22-2-.11-3.06-.15-2.24-.08-3.46-.1-2.53,0-3.9,0"/><path d="M504.16,22.07q6.76,0,12.57-.06c3.88,0,7.45-.09,10.7-.17s6.19-.17,8.81-.28,4.94-.25,7-.4c1.54-.11,3-.24,4.32-.38s2.56-.29,3.69-.45,2.15-.34,3.07-.52,1.74-.39,2.45-.6,1.36-.43,1.94-.65a13.19,13.19,0,0,0,1.54-.71,7.16,7.16,0,0,0,1.15-.75,3.47,3.47,0,0,0,.75-.8,1.85,1.85,0,0,0,.32-.8,1.29,1.29,0,0,0-.15-.76,2.26,2.26,0,0,0-.62-.72,5.13,5.13,0,0,0-1.09-.67,9.89,9.89,0,0,0-1.78-.63q-1.12-.3-2.7-.57c-1.05-.18-2.25-.35-3.61-.51s-2.86-.32-4.52-.47-3.71-.27-6.13-.38-5.22-.2-8.4-.27-6.75-.13-10.68-.17-8.26,0-12.95,0-9.06,0-13.08.06-7.73.1-11.09.18-6.38.19-9.07.31-5,.26-7.05.42c-1.56.13-3,.26-4.35.41s-2.56.31-3.67.48-2.1.35-3,.55-1.64.4-2.29.62-1.23.45-1.74.68a9.73,9.73,0,0,0-1.31.73,4.16,4.16,0,0,0-.87.76,2.23,2.23,0,0,0-.45.8,1.46,1.46,0,0,0,0,.8,1.67,1.67,0,0,0,.42.75,3.92,3.92,0,0,0,.85.7,9.65,9.65,0,0,0,1.29.65,13,13,0,0,0,1.94.6c.79.18,1.72.37,2.79.54s2.29.33,3.65.48,2.86.3,4.51.44,3.64.25,6,.35,5.08.19,8.15.25,6.5.12,10.29.16,7.94.05,12.45.05m10.52-22q11.77,0,21.69.32t17.91,1c5.33.43,10,.95,14.07,1.59a77.46,77.46,0,0,1,10.19,2.19,30.67,30.67,0,0,1,5.75,2.28A9.86,9.86,0,0,1,587.58,10a4.2,4.2,0,0,1,.89,3A6.6,6.6,0,0,1,587,16.3a15.13,15.13,0,0,1-3.41,3.22,28.86,28.86,0,0,1-5,2.78A56.43,56.43,0,0,1,572,24.67q-3.71,1.08-8.2,2-5.44,1.08-12.13,1.88t-14.59,1.33q-7.92.53-17.11.79t-19.71.26q-10.73,0-19.71-.24T464.22,30q-7.32-.48-13-1.2A89.47,89.47,0,0,1,441.65,27a54.45,54.45,0,0,1-6.9-2.14A22.55,22.55,0,0,1,430,22.42a8.22,8.22,0,0,1-2.63-2.87,4.79,4.79,0,0,1-.42-3.25A7.36,7.36,0,0,1,428.6,13a15,15,0,0,1,3.69-3A33.4,33.4,0,0,1,438,7.43a69.62,69.62,0,0,1,7.82-2.26Q451.24,3.91,458.24,3t15.64-1.6q8.64-.64,18.84-1t22-.32"/></g></g></g><g class="cls-22"><g class="cls-23"><g class="cls-3"><g class="cls-24"><polyline class="cls-25" points="-58.46 38.44 788.96 38.44 783.39 41.98 -52.89 41.98 -58.46 38.44"/><polyline class="cls-25" points="-28.52 57.47 117.07 57.47 119.36 59.77 -24.9 59.77 -28.52 57.47"/><polyline class="cls-25" points="-15.36 65.83 66.83 65.83 69.47 67.98 -11.98 67.98 -15.36 65.83"/><polyline class="cls-25" points="-42.61 48.51 45.46 48.51 48.5 50.98 -38.73 50.98 -42.61 48.51"/><polyline class="cls-25" points="613.43 57.47 759.02 57.47 755.4 59.77 611.15 59.77 613.43 57.47"/><polyline class="cls-25" points="663.68 65.83 745.86 65.83 742.48 67.98 661.03 67.98 663.68 65.83"/><polyline class="cls-25" points="685.05 48.51 773.11 48.51 769.23 50.98 682.01 50.98 685.05 48.51"/><polyline class="cls-25" points="-91.68 17.32 77.26 17.32 80.33 20.41 -86.82 20.41 -91.68 17.32"/><polyline class="cls-25" points="-74.06 28.52 20.8 28.52 24.32 31.38 -69.57 31.38 -74.06 28.52"/><polyline class="cls-25" points="653.25 17.32 822.19 17.32 817.33 20.41 650.18 20.41 653.25 17.32"/><polyline class="cls-25" points="709.71 28.52 804.57 28.52 800.07 31.38 706.19 31.38 709.71 28.52"/><polyline class="cls-25" points="738.49 5.19 841.27 5.19 836.01 8.54 734.36 8.54 738.49 5.19"/><polyline class="cls-25" points="17780.97 13411.83 17780.97 13411.83 -14987.03 -19356.17 -14987.03 -19356.17 17780.97 13411.83"/><polyline class="cls-25" points="-14987.03 13411.83 -14987.03 13411.83 17780.97 -19356.17 17780.97 -19356.17 -14987.03 13411.83"/><polyline class="cls-25" points="904.96 650.75 -174.46 650.75 -183.76 656.66 914.26 656.66 904.96 650.75"/><polyline class="cls-25" points="1031.13 730.94 716.75 730.94 724.26 739.98 1045.35 739.98 1031.13 730.94"/><polyline class="cls-25" points="13.76 730.94 -300.63 730.94 -314.85 739.98 6.26 739.98 13.76 730.94"/><polyline class="cls-25" points="818.98 596.11 604.76 596.11 608.23 600.28 825.54 600.28 818.98 596.11"/><polyline class="cls-25" points="859.21 621.67 676.58 621.67 680.24 625.37 865.02 625.37 859.21 621.67"/><polyline class="cls-25" points="786.21 575.28 630.57 575.28 633.22 577.95 790.42 577.95 786.21 575.28"/><polyline class="cls-25" points="802.36 585.54 707.97 585.54 711.54 588.43 806.9 588.43 802.36 585.54"/><polyline class="cls-25" points="771.21 565.74 683.55 565.74 686.62 568.23 775.12 568.23 771.21 565.74"/><polyline class="cls-25" points="756.64 556.48 510.53 556.48 512.34 559.58 761.51 559.58 756.64 556.48"/><polyline class="cls-25" points="125.75 596.11 -88.48 596.11 -95.04 600.28 122.28 600.28 125.75 596.11"/><polyline class="cls-25" points="53.92 621.67 -128.71 621.67 -134.52 625.37 50.26 625.37 53.92 621.67"/><polyline class="cls-25" points="99.93 575.28 -55.71 575.28 -59.91 577.95 97.28 577.95 99.93 575.28"/><polyline class="cls-25" points="22.52 585.54 -71.85 585.54 -76.4 588.43 18.96 588.43 22.52 585.54"/><polyline class="cls-25" points="46.95 565.74 -40.7 565.74 -44.62 568.23 43.88 568.23 46.95 565.74"/><polyline class="cls-25" points="219.97 556.48 -26.13 556.48 -31.01 559.58 218.16 559.58 219.97 556.48"/><polyline class="cls-25" points="672.26 502.86 58.24 502.86 55.25 504.76 675.25 504.76 672.26 502.86"/><polyline class="cls-25" points="732.01 540.83 596.4 540.83 598.42 542.86 735.2 542.86 732.01 540.83"/><polyline class="cls-25" points="744.2 548.58 662.38 548.58 665.05 550.75 747.61 550.75 744.2 548.58"/><polyline class="cls-25" points="720.57 533.56 643.84 533.56 646.2 535.47 723.57 535.47 720.57 533.56"/><polyline class="cls-25" points="690.17 514.24 570.03 514.24 571.61 515.83 692.67 515.83 690.17 514.24"/><polyline class="cls-25" points="699.71 520.3 627.49 520.3 629.57 521.99 702.36 521.99 699.71 520.3"/><polyline class="cls-25" points="681.16 508.51 612.95 508.51 614.8 510.02 683.53 510.02 681.16 508.51"/><polyline class="cls-25" points="709.35 526.43 546.89 526.43 548.88 528.82 713.12 528.82 709.35 526.43"/><polyline class="cls-25" points="134.09 540.83 -1.5 540.83 -4.7 542.86 132.08 542.86 134.09 540.83"/><polyline class="cls-25" points="68.12 548.58 -13.7 548.58 -17.11 550.75 65.45 550.75 68.12 548.58"/><polyline class="cls-25" points="86.65 533.56 9.94 533.56 6.94 535.47 84.3 535.47 86.65 533.56"/><polyline class="cls-25" points="160.46 514.24 40.34 514.24 37.83 515.83 158.88 515.83 160.46 514.24"/><polyline class="cls-25" points="103.01 520.3 30.8 520.3 28.14 521.99 100.93 521.99 103.01 520.3"/><polyline class="cls-25" points="117.55 508.51 49.34 508.51 46.98 510.02 115.7 510.02 117.55 508.51"/><polyline class="cls-25" points="183.61 526.43 21.15 526.43 17.39 528.82 181.63 528.82 183.61 526.43"/><polyline class="cls-25" points="642.39 483.88 511.55 483.88 512.83 485.42 644.83 485.42 642.39 483.88"/><polyline class="cls-25" points="656.9 493.09 549.07 493.09 550.34 494.38 658.92 494.38 656.9 493.09"/><polyline class="cls-25" points="664.56 497.96 599.93 497.96 601.6 499.31 666.68 499.31 664.56 497.96"/><polyline class="cls-25" points="649.62 488.47 588.22 488.47 589.72 489.69 651.54 489.69 649.62 488.47"/><polyline class="cls-25" points="636.1 479.88 577.61 479.88 578.98 480.98 637.84 480.98 636.1 479.88"/><polyline class="cls-25" points="218.96 483.88 88.11 483.88 85.67 485.42 217.68 485.42 218.96 483.88"/><polyline class="cls-25" points="181.43 493.09 73.6 493.09 71.59 494.38 180.16 494.38 181.43 493.09"/><polyline class="cls-25" points="130.57 497.96 65.94 497.96 63.82 499.31 128.9 499.31 130.57 497.96"/><polyline class="cls-25" points="142.28 488.47 80.88 488.47 78.97 489.69 140.78 489.69 142.28 488.47"/><polyline class="cls-25" points="152.88 479.88 94.4 479.88 92.67 480.98 151.52 480.98 152.88 479.88"/><polyline class="cls-25" points="629.81 475.88 531.99 475.88 533.04 476.93 631.47 476.93 629.81 475.88"/><polyline class="cls-25" points="623.81 472.06 567.98 472.06 569.22 473.07 625.39 473.07 623.81 472.06"/><polyline class="cls-25" points="617.82 468.25 459 468.25 459.75 469.54 619.84 469.54 617.82 468.25"/><polyline class="cls-25" points="198.5 475.88 100.69 475.88 99.03 476.93 197.46 476.93 198.5 475.88"/><polyline class="cls-25" points="162.52 472.06 106.7 472.06 105.11 473.07 161.28 473.07 162.52 472.06"/><polyline class="cls-25" points="271.5 468.25 112.69 468.25 110.66 469.54 270.75 469.54 271.5 468.25"/><polyline class="cls-25" points="579.77 444.08 150.73 444.08 149.27 445 581.23 445 579.77 444.08"/><polyline class="cls-25" points="607.33 461.59 517.82 461.59 518.7 462.47 608.71 462.47 607.33 461.59"/><polyline class="cls-25" points="612.58 464.93 559.17 464.93 560.31 465.85 614.03 465.85 612.58 464.93"/><polyline class="cls-25" points="602.29 458.39 551.11 458.39 552.15 459.23 603.62 459.23 602.29 458.39"/><polyline class="cls-25" points="588.36 449.54 505.87 449.54 506.61 450.29 589.54 450.29 588.36 449.54"/><polyline class="cls-25" points="592.82 452.37 543.68 452.37 544.64 453.15 594.05 453.15 592.82 452.37"/><polyline class="cls-25" points="584.08 446.81 536.83 446.81 537.72 447.53 585.21 447.53 584.08 446.81"/><polyline class="cls-25" points="597.25 455.18 487.72 455.18 488.61 456.26 598.95 456.26 597.25 455.18"/><polyline class="cls-25" points="212.68 461.59 123.18 461.59 121.79 462.47 211.8 462.47 212.68 461.59"/><polyline class="cls-25" points="171.32 464.93 117.92 464.93 116.47 465.85 170.19 465.85 171.32 464.93"/><polyline class="cls-25" points="179.39 458.39 128.21 458.39 126.88 459.23 178.35 459.23 179.39 458.39"/><polyline class="cls-25" points="224.63 449.54 142.14 449.54 140.96 450.29 223.88 450.29 224.63 449.54"/><polyline class="cls-25" points="186.82 452.37 137.68 452.37 136.46 453.15 185.86 453.15 186.82 452.37"/><polyline class="cls-25" points="193.67 446.81 146.42 446.81 145.29 447.53 192.78 447.53 193.67 446.81"/><polyline class="cls-25" points="242.79 455.18 133.25 455.18 131.55 456.26 241.89 456.26 242.79 455.18"/><polyline class="cls-25" points="564.75 434.53 470.56 434.53 471.23 435.33 566.01 435.33 564.75 434.53"/><polyline class="cls-25" points="572.16 439.24 495.66 439.24 496.29 439.88 573.17 439.88 572.16 439.24"/><polyline class="cls-25" points="575.98 441.67 530.48 441.67 531.3 442.34 577.03 442.34 575.98 441.67"/><polyline class="cls-25" points="568.47 436.89 524.59 436.89 525.35 437.51 569.44 437.51 568.47 436.89"/><polyline class="cls-25" points="558.15 430.33 486.82 430.33 487.38 430.89 559.02 430.89 558.15 430.33"/><polyline class="cls-25" points="561.47 432.44 519.1 432.44 519.81 433.02 562.38 433.02 561.47 432.44"/><polyline class="cls-25" points="554.93 428.29 513.98 428.29 514.64 428.83 555.78 428.83 554.93 428.29"/><polyline class="cls-25" points="551.69 426.23 434.46 426.23 434.86 426.93 552.79 426.93 551.69 426.23"/><polyline class="cls-25" points="259.94 434.53 165.75 434.53 164.5 435.33 259.28 435.33 259.94 434.53"/><polyline class="cls-25" points="234.84 439.24 158.34 439.24 157.33 439.88 234.21 439.88 234.84 439.24"/><polyline class="cls-25" points="200.02 441.67 154.52 441.67 153.47 442.34 199.19 442.34 200.02 441.67"/><polyline class="cls-25" points="205.91 436.89 162.04 436.89 161.06 437.51 205.15 437.51 205.91 436.89"/><polyline class="cls-25" points="243.67 430.33 172.36 430.33 171.48 430.89 243.12 430.89 243.67 430.33"/><polyline class="cls-25" points="211.4 432.44 169.03 432.44 168.13 433.02 210.69 433.02 211.4 432.44"/><polyline class="cls-25" points="216.52 428.29 175.57 428.29 174.72 428.83 215.86 428.83 216.52 428.29"/><polyline class="cls-25" points="296.05 426.23 178.81 426.23 177.71 426.93 295.64 426.93 296.05 426.23"/><polyline class="cls-25" points="530.11 412.51 200.39 412.51 199.53 413.06 530.97 413.06 530.11 412.51"/><polyline class="cls-25" points="545.91 422.55 479.11 422.55 479.6 423.05 546.68 423.05 545.91 422.55"/><polyline class="cls-25" points="548.82 424.4 509.18 424.4 509.81 424.91 549.62 424.91 548.82 424.4"/><polyline class="cls-25" points="543.09 420.76 504.69 420.76 505.28 421.24 543.84 421.24 543.09 420.76"/><polyline class="cls-25" points="535.13 415.71 472.32 415.71 472.75 416.14 535.82 416.14 535.13 415.71"/><polyline class="cls-25" points="537.71 417.34 500.47 417.34 501.02 417.79 538.41 417.79 537.71 417.34"/><polyline class="cls-25" points="532.64 414.12 496.5 414.12 497.01 414.54 533.3 414.54 532.64 414.12"/><polyline class="cls-25" points="540.24 418.95 457.62 418.95 458.13 419.56 541.2 419.56 540.24 418.95"/><polyline class="cls-25" points="251.38 422.55 184.59 422.55 183.82 423.05 250.9 423.05 251.38 422.55"/><polyline class="cls-25" points="221.32 424.4 181.68 424.4 180.88 424.91 220.69 424.91 221.32 424.4"/><polyline class="cls-25" points="225.81 420.76 187.41 420.76 186.66 421.24 225.22 421.24 225.81 420.76"/><polyline class="cls-25" points="258.18 415.71 195.37 415.71 194.69 416.14 257.75 416.14 258.18 415.71"/><polyline class="cls-25" points="230.03 417.34 192.79 417.34 192.09 417.79 229.48 417.79 230.03 417.34"/><polyline class="cls-25" points="234 414.12 197.86 414.12 197.2 414.54 233.49 414.54 234 414.12"/><polyline class="cls-25" points="272.88 418.95 190.26 418.95 189.3 419.56 272.37 419.56 272.88 418.95"/><polyline class="cls-25" points="521.09 406.78 447.51 406.78 447.92 407.27 521.86 407.27 521.09 406.78"/><polyline class="cls-25" points="525.57 409.63 466.3 409.63 466.68 410.01 526.18 410.01 525.57 409.63"/><polyline class="cls-25" points="527.86 411.08 492.75 411.08 493.24 411.48 528.49 411.48 527.86 411.08"/><polyline class="cls-25" points="523.35 408.21 489.21 408.21 489.67 408.59 523.94 408.59 523.35 408.21"/><polyline class="cls-25" points="519.08 405.5 485.86 405.5 486.3 405.86 519.64 405.86 519.08 405.5"/><polyline class="cls-25" points="282.99 406.78 209.41 406.78 208.65 407.27 282.59 407.27 282.99 406.78"/><polyline class="cls-25" points="264.2 409.63 204.93 409.63 204.32 410.01 263.82 410.01 264.2 409.63"/><polyline class="cls-25" points="237.75 411.08 202.64 411.08 202.02 411.48 237.26 411.48 237.75 411.08"/><polyline class="cls-25" points="241.29 408.21 207.15 408.21 206.56 408.59 240.83 408.59 241.29 408.21"/><polyline class="cls-25" points="244.64 405.5 211.42 405.5 210.86 405.86 244.2 405.86 244.64 405.5"/><path class="cls-25" d="M228.17,673.13q-4.44,0-8.64.24t-8.2.71c-2.67.32-5.26.72-7.79,1.2s-5,1.05-7.41,1.69-4.67,1.35-6.77,2.11a58.77,58.77,0,0,0-5.88,2.47,40.83,40.83,0,0,0-5,2.84,29.69,29.69,0,0,0-4.05,3.22,25.45,25.45,0,0,0-6.05-5,36.35,36.35,0,0,0-8-3.46,58.27,58.27,0,0,0-9.91-2,97.69,97.69,0,0,0-11.95-.68q-4.58,0-9.13.33c-3,.22-6.07.55-9.11,1s-6.09,1-9.15,1.67-6.14,1.46-9.22,2.36a108.81,108.81,0,0,0-10.5,3.6,71,71,0,0,0-8.82,4.23,48.1,48.1,0,0,0-7.12,4.9,34.22,34.22,0,0,0-5.39,5.62A24.66,24.66,0,0,0,68,703.64,15.36,15.36,0,0,0,66.7,707a11.19,11.19,0,0,0-.32,3.22,10.4,10.4,0,0,0,.65,3.09,11.68,11.68,0,0,0,1.61,2.87,14.73,14.73,0,0,0,2.5,2.57A21.8,21.8,0,0,0,74.56,721a33.81,33.81,0,0,0,4.34,1.93c1.61.59,3.41,1.15,5.42,1.67s4.21,1,6.62,1.45,5,.86,7.84,1.23,5.84.71,9,1l16.64-16.57q-3.43-.16-6.36-.48c-1.94-.22-3.71-.48-5.3-.8a32.85,32.85,0,0,1-4.24-1.1,17.42,17.42,0,0,1-3.19-1.39,9.78,9.78,0,0,1-2.14-1.61,4.61,4.61,0,0,1-1.11-1.75,3.69,3.69,0,0,1-.1-1.9,5.87,5.87,0,0,1,.91-2,10.74,10.74,0,0,1,1.73-2,15.88,15.88,0,0,1,2.35-1.78,23.81,23.81,0,0,1,3-1.55,34.49,34.49,0,0,1,3.6-1.35c1.3-.41,2.65-.77,4-1.07s2.86-.57,4.37-.77,3.07-.36,4.69-.46,3.29-.15,5-.15c2,0,3.92.07,5.66.2a45.14,45.14,0,0,1,4.83.63,28.09,28.09,0,0,1,4,1,17,17,0,0,1,3.18,1.47,7.72,7.72,0,0,1,2.17,1.9,4.94,4.94,0,0,1,1,2.3,6.43,6.43,0,0,1-.19,2.72,12.81,12.81,0,0,1-1.42,3.16l32.35,1.85a17.82,17.82,0,0,1-.34-2.16,13.25,13.25,0,0,1,0-2,10.52,10.52,0,0,1,.27-1.81,9.08,9.08,0,0,1,.57-1.64,8.28,8.28,0,0,1,1.61-2.26,14,14,0,0,1,2.59-2.06,26.53,26.53,0,0,1,3.59-1.87q2-.87,4.55-1.67c1.67-.52,3.45-1,5.32-1.37s3.82-.72,5.88-1,4.21-.46,6.46-.59,4.61-.19,7.06-.19c2.6,0,5,.06,7.31.2s4.4.34,6.37.61a53.33,53.33,0,0,1,5.46,1,33.89,33.89,0,0,1,4.55,1.44,22,22,0,0,1,3.51,1.75,9.71,9.71,0,0,1,2.32,2,5.06,5.06,0,0,1,1.12,2.18,4.81,4.81,0,0,1-.11,2.4,7.3,7.3,0,0,1-1.16,2.27,11.1,11.1,0,0,1-2.11,2.12,20.62,20.62,0,0,1-3.07,2,35.59,35.59,0,0,1-4.06,1.8,51.29,51.29,0,0,1-5,1.56q-2.69.69-5.79,1.23t-6.62.91q-3.51.36-7.43.56l-1.36,17.49q7.24-.36,13.95-1.17t12.79-2.06q6.09-1.26,11.57-3a99.33,99.33,0,0,0,10.3-3.78,65.77,65.77,0,0,0,8.54-4.41,39.74,39.74,0,0,0,6.37-4.83,24.29,24.29,0,0,0,4.24-5.23,17.68,17.68,0,0,0,2.19-5.59,13,13,0,0,0,0-5.73,13.39,13.39,0,0,0-2.48-5.11,22.43,22.43,0,0,0-4.86-4.51,43,43,0,0,0-7.18-3.95,68.93,68.93,0,0,0-8.83-3.2,91.6,91.6,0,0,0-9.92-2.25q-5.24-.88-11.05-1.33t-12.25-.45"/><path class="cls-25" d="M312.8,447.55c-1.14,0-2.23,0-3.29,0s-2.08.06-3.06.1-1.94.11-2.85.18-1.8.15-2.65.24-1.62.2-2.34.31-1.36.22-1.94.35-1.09.26-1.54.4a8.21,8.21,0,0,0-1.14.45,27.38,27.38,0,0,0-2.86-.69c-1.05-.2-2.2-.36-3.45-.5s-2.59-.22-4-.29-3-.1-4.63-.1c-1.16,0-2.31,0-3.43,0s-2.22.08-3.31.14-2.15.15-3.2.24-2.09.21-3.1.34c-1.25.16-2.36.33-3.35.51a26.14,26.14,0,0,0-2.56.59,9.85,9.85,0,0,0-1.79.67,3.08,3.08,0,0,0-1,.76.94.94,0,0,0-.19.46.72.72,0,0,0,.12.44,1.37,1.37,0,0,0,.44.42,4.08,4.08,0,0,0,.76.4,10.48,10.48,0,0,0,1.05.37c.4.11.84.22,1.32.32s1,.2,1.58.29l1.84.24,2.17.21c.78.06,1.63.12,2.55.17s1.89.11,2.93.16l3.31.12,3.61-2.08-2.35-.07c-.73,0-1.4-.06-2-.1s-1.18-.09-1.69-.14l-1.36-.18c-.39-.07-.73-.14-1-.21a4.41,4.41,0,0,1-.68-.23.8.8,0,0,1-.32-.25.24.24,0,0,1,0-.27.92.92,0,0,1,.33-.27,2.57,2.57,0,0,1,.59-.24,8.17,8.17,0,0,1,.86-.22l1.12-.18c.42-.06.87-.1,1.34-.15l1.51-.1c.52,0,1.08-.05,1.67-.06s1.2,0,1.84,0,1.46,0,2.13,0,1.29.05,1.87.09,1.13.09,1.63.14.95.13,1.37.2a9.23,9.23,0,0,1,1,.26,2.56,2.56,0,0,1,.66.31.58.58,0,0,1,.27.37.48.48,0,0,1-.12.41l11.95.25a2.84,2.84,0,0,1-.36-.29,1.27,1.27,0,0,1-.22-.26.5.5,0,0,1-.1-.24.34.34,0,0,1,0-.22.69.69,0,0,1,.34-.3,3.73,3.73,0,0,1,.74-.28,11.19,11.19,0,0,1,1.12-.26c.44-.08.95-.16,1.52-.23s1.18-.13,1.83-.19,1.36-.1,2.1-.13,1.52-.07,2.35-.09l2.62,0c1,0,1.88,0,2.74,0s1.67,0,2.43.08l2.11.14c.65.06,1.25.13,1.8.2s1,.16,1.43.24a9.44,9.44,0,0,1,1,.27,1.51,1.51,0,0,1,.56.3.28.28,0,0,1,.12.32.64.64,0,0,1-.26.3,2.71,2.71,0,0,1-.63.28,8.42,8.42,0,0,1-1,.26c-.39.08-.83.16-1.34.24s-1.07.14-1.68.2-1.28.11-2,.16-1.49.09-2.31.12l-2.62.07,1,2.19c1.67,0,3.27-.07,4.79-.14s3-.15,4.34-.25,2.66-.23,3.88-.37,2.35-.29,3.42-.47,2-.36,2.8-.56a16.2,16.2,0,0,0,2-.62,5.31,5.31,0,0,0,1.28-.68,1.33,1.33,0,0,0,.53-.75.82.82,0,0,0-.28-.77,3.65,3.65,0,0,0-1.18-.71,14.18,14.18,0,0,0-2.05-.63c-.83-.2-1.81-.38-2.93-.56s-2.31-.33-3.55-.46-2.56-.24-3.94-.33-2.81-.15-4.32-.19-3.08-.07-4.72-.07"/><path class="cls-25" d="M325.27,414.31c-.86,0-1.7,0-2.5,0s-1.58,0-2.33.06-1.47.06-2.16.1-1.35.08-2,.14-1.22.11-1.75.18-1,.13-1.45.2-.81.15-1.14.23a6.17,6.17,0,0,0-.82.26c-.68-.15-1.43-.28-2.24-.4s-1.71-.21-2.67-.28-2-.14-3.11-.17-2.28-.06-3.54-.06c-.88,0-1.75,0-2.6,0s-1.69,0-2.51.08-1.62.08-2.4.14-1.56.12-2.32.19c-.93.09-1.75.19-2.48.3s-1.35.22-1.87.34a7.34,7.34,0,0,0-1.26.39,1.56,1.56,0,0,0-.66.43.32.32,0,0,0-.08.27.45.45,0,0,0,.15.25,1.65,1.65,0,0,0,.39.24,6.13,6.13,0,0,0,.62.22,7.55,7.55,0,0,0,.85.21c.31.07.66.13,1,.19s.78.11,1.23.16.91.1,1.42.14l1.66.11,1.94.11,2.22.08,2.51.07,2.49-1.18-1.78,0c-.56,0-1.07,0-1.54-.06l-1.29-.08c-.39,0-.74-.06-1.05-.1l-.8-.12a4.57,4.57,0,0,1-.53-.13.77.77,0,0,1-.28-.15.1.1,0,0,1,0-.15.53.53,0,0,1,.21-.16,2.35,2.35,0,0,1,.42-.13,5.28,5.28,0,0,1,.63-.13l.83-.1,1-.09,1.13-.06c.4,0,.82,0,1.26,0l1.4,0,1.62,0,1.43.05,1.25.08c.38,0,.73.07,1.06.12a6.43,6.43,0,0,1,.82.15,2.76,2.76,0,0,1,.53.17.57.57,0,0,1,.24.21.24.24,0,0,1-.05.24l9.05.14a2.52,2.52,0,0,1-.29-.16,1,1,0,0,1-.19-.15.28.28,0,0,1-.09-.14.17.17,0,0,1,0-.12.49.49,0,0,1,.24-.18,2.84,2.84,0,0,1,.53-.16l.84-.15,1.13-.13,1.38-.11,1.58-.08,1.78,0,2,0,2.09,0c.65,0,1.27,0,1.84.05l1.62.08,1.37.11c.42.05.79.09,1.1.14s.57.1.77.15a2.38,2.38,0,0,1,.44.17c.09.06.13.13.11.19a.32.32,0,0,1-.19.17,2.39,2.39,0,0,1-.45.17,6.83,6.83,0,0,1-.73.14c-.29.05-.62.1-1,.14s-.8.08-1.26.11l-1.5.1-1.73.06-2,0,.88,1.25c1.25,0,2.45,0,3.59-.08l3.25-.14q1.54-.09,2.91-.21t2.55-.27c.79-.1,1.49-.21,2.09-.32a15.1,15.1,0,0,0,1.51-.35,4.68,4.68,0,0,0,.94-.39.73.73,0,0,0,.37-.43c0-.15-.05-.3-.24-.44a3,3,0,0,0-.92-.41,12.9,12.9,0,0,0-1.59-.36q-1-.18-2.25-.33c-.86-.1-1.77-.19-2.73-.26s-2-.14-3-.19-2.15-.09-3.31-.12-2.35,0-3.6,0"/><path class="cls-25" d="M288.7,511.79c-1.66,0-3.26,0-4.81.08s-3.05.12-4.5.22-2.86.22-4.21.37-2.67.32-3.94.52-2.44.42-3.52.65-2.06.49-3,.76a21,21,0,0,0-2.39.87,11.07,11.07,0,0,0-1.83,1,25.2,25.2,0,0,0-4-1.5,40.81,40.81,0,0,0-4.87-1.06q-2.66-.42-5.79-.63t-6.74-.21c-1.7,0-3.37,0-5,.11s-3.29.17-4.91.3-3.21.31-4.79.51-3.16.45-4.71.73c-1.9.33-3.61.7-5.15,1.09a36,36,0,0,0-4.07,1.28,16.35,16.35,0,0,0-3,1.46,7,7,0,0,0-1.87,1.65,3.33,3.33,0,0,0-.54,1,2,2,0,0,0-.06,1,2.27,2.27,0,0,0,.43.92,4.1,4.1,0,0,0,.92.88,8.7,8.7,0,0,0,1.37.82,17.5,17.5,0,0,0,1.79.72c.67.22,1.4.43,2.21.63s1.68.37,2.62.54,2,.31,3.13.46,2.39.27,3.73.4,2.77.23,4.31.34,3.17.19,4.9.27l6.3-4.62c-1.25,0-2.4-.08-3.47-.14s-2.06-.14-3-.23-1.71-.19-2.44-.31-1.37-.26-1.93-.4a10.54,10.54,0,0,1-1.41-.47,3.66,3.66,0,0,1-.88-.5,1,1,0,0,1-.37-.55.84.84,0,0,1,.15-.59,2.3,2.3,0,0,1,.61-.59,5.21,5.21,0,0,1,1-.52,10.43,10.43,0,0,1,1.37-.46c.52-.15,1.1-.28,1.74-.4s1.32-.23,2-.32,1.47-.17,2.26-.23,1.62-.11,2.49-.14,1.77,0,2.72,0q1.66,0,3.12.06c1,0,1.89.1,2.73.19s1.62.18,2.33.31a16.52,16.52,0,0,1,1.94.44,7,7,0,0,1,1.45.56,2.63,2.63,0,0,1,.85.67,1.2,1.2,0,0,1,.26.8,1.84,1.84,0,0,1-.34.91l17.61.54a4.11,4.11,0,0,1-.43-.62,2.61,2.61,0,0,1-.25-.58,1.63,1.63,0,0,1-.06-.53,1.41,1.41,0,0,1,.12-.48,1.77,1.77,0,0,1,.61-.66,5.58,5.58,0,0,1,1.18-.61,13.92,13.92,0,0,1,1.74-.55c.67-.18,1.44-.34,2.3-.5s1.78-.3,2.76-.41,2-.22,3.12-.3,2.26-.13,3.48-.17,2.51-.06,3.85-.06,2.77,0,4,.06,2.44.1,3.55.18,2.12.19,3.07.31,1.81.27,2.6.43,1.48.34,2.05.52a8.27,8.27,0,0,1,1.41.58,2.15,2.15,0,0,1,.77.65.83.83,0,0,1,.11.7,1.53,1.53,0,0,1-.46.67,4.15,4.15,0,0,1-1,.61,11,11,0,0,1-1.51.57c-.59.18-1.27.35-2,.52s-1.61.31-2.54.44-1.92.26-3,.36-2.23.18-3.46.25-2.53.13-3.91.17l.86,4.87c2.51-.07,4.91-.17,7.2-.32s4.47-.34,6.54-.57,4-.5,5.88-.81,3.57-.66,5.18-1.05a43.47,43.47,0,0,0,4.27-1.24,19.43,19.43,0,0,0,3.12-1.37,8.27,8.27,0,0,0,2-1.5,3.53,3.53,0,0,0,.89-1.63,2.26,2.26,0,0,0-.31-1.69,4.79,4.79,0,0,0-1.62-1.52,15.27,15.27,0,0,0-2.93-1.37,37.49,37.49,0,0,0-4.2-1.2q-2.42-.57-5.11-1t-5.68-.69q-3-.29-6.27-.42c-2.19-.09-4.49-.14-6.88-.14"/><path class="cls-25" d="M253.73,605q-3.61,0-7,.16t-6.62.47c-2.15.21-4.23.48-6.26.79s-4,.69-5.9,1.12-3.7.89-5.35,1.39a48.5,48.5,0,0,0-4.58,1.62,32,32,0,0,0-3.8,1.86,20.53,20.53,0,0,0-3,2.1,24.33,24.33,0,0,0-5.29-3.24,38,38,0,0,0-6.74-2.27,62.91,62.91,0,0,0-8.23-1.34q-4.48-.45-9.76-.45c-2.48,0-4.94.08-7.38.22s-4.88.36-7.3.66-4.84.65-7.25,1.09-4.82,1-7.22,1.55q-4.42,1.08-8.1,2.36a53.63,53.63,0,0,0-6.64,2.76A31.79,31.79,0,0,0,132.1,619a19.08,19.08,0,0,0-3.66,3.63,11.58,11.58,0,0,0-1.35,2.22,7.45,7.45,0,0,0-.61,2.14,5.63,5.63,0,0,0,.13,2.05,6.42,6.42,0,0,0,.89,2,9.42,9.42,0,0,0,1.62,1.82,13.85,13.85,0,0,0,2.29,1.63,22.39,22.39,0,0,0,3,1.43,35.91,35.91,0,0,0,3.67,1.21c1.34.38,2.83.73,4.48,1.05s3.45.63,5.41.91,4.07.54,6.34.78,4.69.44,7.26.63l11.59-10.46c-1.84-.07-3.55-.18-5.12-.31s-3-.31-4.31-.51a34.85,34.85,0,0,1-3.5-.7,17.65,17.65,0,0,1-2.69-.89,9.79,9.79,0,0,1-1.88-1,3.9,3.9,0,0,1-1.08-1.12,2,2,0,0,1-.27-1.22,2.67,2.67,0,0,1,.51-1.3,6.08,6.08,0,0,1,1.17-1.29,10,10,0,0,1,1.71-1.15,18.73,18.73,0,0,1,2.23-1c.84-.31,1.76-.6,2.77-.87s2-.5,3.15-.7,2.25-.36,3.45-.49,2.43-.23,3.73-.3,2.63-.1,4-.1c1.63,0,3.16.05,4.58.14s2.74.22,3.95.4a29.35,29.35,0,0,1,3.32.68,16.5,16.5,0,0,1,2.69,1,7.29,7.29,0,0,1,1.92,1.22,3.64,3.64,0,0,1,1,1.49,3.42,3.42,0,0,1,.08,1.75,6.53,6.53,0,0,1-.87,2l26,1.18a10.92,10.92,0,0,1-.44-1.38,6.53,6.53,0,0,1-.17-1.27,4.72,4.72,0,0,1,.42-2.22,4.76,4.76,0,0,1,1.12-1.46,9.93,9.93,0,0,1,1.94-1.33,19.44,19.44,0,0,1,2.75-1.21c1-.38,2.24-.74,3.55-1.09s2.72-.64,4.2-.89,3-.47,4.68-.64,3.37-.3,5.18-.38,3.71-.13,5.69-.13,4.06.05,5.91.13,3.57.23,5.18.4,3.09.4,4.45.67A33.49,33.49,0,0,1,268,617a20.75,20.75,0,0,1,2.92,1.14,8.2,8.2,0,0,1,2,1.27,3.45,3.45,0,0,1,1,1.41,2.48,2.48,0,0,1,0,1.55,4.05,4.05,0,0,1-.82,1.46,7.33,7.33,0,0,1-1.59,1.36,15.24,15.24,0,0,1-2.37,1.26,29.74,29.74,0,0,1-3.16,1.15c-1.18.37-2.48.7-3.89,1s-2.93.56-4.56.78-3.38.42-5.23.58-3.82.28-5.9.36l0,11q5.72-.21,11-.72t10-1.29q4.75-.79,9-1.85c2.84-.71,5.51-1.5,8-2.39a55.48,55.48,0,0,0,6.62-2.79,29.27,29.27,0,0,0,4.91-3.07,15.88,15.88,0,0,0,3.21-3.34,9.64,9.64,0,0,0,1.57-3.59,6.93,6.93,0,0,0-.2-3.71,8.69,8.69,0,0,0-2.17-3.32,18.51,18.51,0,0,0-4.09-2.94,39.91,39.91,0,0,0-6-2.59,68.21,68.21,0,0,0-7.3-2.11c-2.57-.59-5.28-1.09-8.15-1.48s-5.88-.69-9-.89-6.5-.29-10-.29"/><path class="cls-25" d="M287.85,495.43l-31.74-4.37h33.54l-1.8,4.37M308,485.49H292l-.91,2.19h-61.1l-2.2,2.93L286.45,499h17.18l2.55-7.92h19.74l.73-3.38H307.27l.7-2.19"/><path class="cls-25" d="M314.91,435.45c-1.68,0-3.3,0-4.84.05s-3,.09-4.43.15-2.74.15-4,.26-2.47.21-3.6.35-2.14.28-3,.43-1.63.31-2.26.47a8.32,8.32,0,0,0-1.51.53,1.68,1.68,0,0,0-.73.57.39.39,0,0,0,0,.31.78.78,0,0,0,.25.32,3,3,0,0,0,.53.31,7.12,7.12,0,0,0,.81.3l-11.79-.28,2.17-3.36h-12.3l-3.54,4.76,36.57,1,2.3-1.52c-.81-.1-1.51-.21-2.11-.32a13.93,13.93,0,0,1-1.44-.35,2.69,2.69,0,0,1-.79-.36c-.15-.13-.2-.25-.13-.38a.68.68,0,0,1,.34-.3,3.79,3.79,0,0,1,.74-.27q.46-.12,1.11-.24c.44-.07.94-.14,1.5-.2s1.19-.12,1.88-.17,1.44-.09,2.25-.12,1.69-.06,2.62-.07,1.94,0,3,0,2.19,0,3.18,0,1.9,0,2.74.07,1.6.07,2.29.12,1.31.11,1.86.17,1,.13,1.42.21a8.47,8.47,0,0,1,1,.22,2.25,2.25,0,0,1,.57.25c.11.09.16.18.13.27a.45.45,0,0,1-.23.25,3.1,3.1,0,0,1-.57.22,7.71,7.71,0,0,1-.89.22c-.36.07-.76.13-1.23.2s-1,.12-1.51.17l-1.74.14c-.61,0-1.27.07-2,.09s-1.43.05-2.2.06l.75,1.87c1.51,0,2.94-.07,4.31-.13s2.66-.12,3.87-.21,2.36-.19,3.43-.3,2.06-.24,3-.39,1.72-.29,2.42-.45a13.69,13.69,0,0,0,1.76-.52,4.36,4.36,0,0,0,1.11-.57,1.07,1.07,0,0,0,.45-.63c.06-.27-.08-.53-.41-.77a5.49,5.49,0,0,0-1.58-.67,23.76,23.76,0,0,0-2.73-.58c-1.09-.18-2.38-.34-3.86-.49-1.08-.11-2.19-.2-3.35-.28s-2.36-.15-3.6-.2-2.51-.1-3.84-.13-2.68,0-4.09,0"/><path class="cls-25" d="M324.77,410.25h-2.18l-1.87,0-1.58-.07c-.48,0-.91-.06-1.29-.1s-.7-.07-1-.11-.5-.09-.68-.13a1.43,1.43,0,0,1-.37-.14c-.08,0-.1-.1-.08-.15a.44.44,0,0,1,.23-.16,3,3,0,0,1,.53-.14c.23-.05.51-.09.84-.13l1.13-.12,1.44-.09,1.79-.07,2.12,0h4.85l2,0c.61,0,1.16,0,1.64.06s.92,0,1.28.09l1,.1.67.12a1.72,1.72,0,0,1,.38.14c.08,0,.11.09.1.14a.37.37,0,0,1-.22.16,4.09,4.09,0,0,1-.56.14c-.25.05-.55.09-.91.14l-1.25.13-1.58.1c-.57,0-1.19.06-1.86.08l-2.14.05h-2.42m1.81-2.56c-1.29,0-2.52,0-3.7,0s-2.31,0-3.38.09-2.09.09-3.05.15-1.88.13-2.74.21-1.62.16-2.28.25-1.23.18-1.69.27a6.72,6.72,0,0,0-1.1.31.9.9,0,0,0-.49.33c-.06.1,0,.19.12.29a2.73,2.73,0,0,0,.72.27c.34.08.78.16,1.31.24s1.18.15,1.92.22l-4.31,0-3.49-.07c-1,0-1.91-.05-2.65-.09s-1.36-.07-1.83-.11l-1.23-.12q-.51-.07-.84-.15a1.44,1.44,0,0,1-.45-.15c-.09-.05-.12-.11-.08-.17a.46.46,0,0,1,.18-.12,1.62,1.62,0,0,1,.35-.11,4.6,4.6,0,0,1,.53-.1l.7-.09L300,409l1.08-.06,1.28,0,1.46,0-.46-1-3.11.08-2.75.11-2.4.15c-.74.06-1.42.12-2,.19s-1.18.15-1.67.23a11.67,11.67,0,0,0-1.26.25,5.43,5.43,0,0,0-.86.28,1.13,1.13,0,0,0-.45.31.29.29,0,0,0,.08.44,2.72,2.72,0,0,0,.95.4,16.81,16.81,0,0,0,1.82.37c.76.11,1.66.22,2.71.32s2.29.18,3.71.26,3,.14,4.84.19,3.79.08,6,.11,4.54,0,7.08,0,4.8,0,6.94,0,4.11-.06,5.92-.11,3.42-.11,4.88-.18,2.74-.15,3.84-.25,2.08-.2,2.92-.31,1.54-.22,2.1-.34a6.66,6.66,0,0,0,1.29-.38c.3-.13.46-.27.49-.41s-.05-.27-.23-.39a3.48,3.48,0,0,0-.87-.34,14.82,14.82,0,0,0-1.5-.31c-.6-.1-1.31-.18-2.12-.27S337.94,408,337,408s-2-.11-3.06-.15-2.24-.08-3.46-.1-2.53,0-3.9,0"/><path class="cls-25" d="M502.66,20.57q6.76,0,12.57-.06c3.88,0,7.45-.09,10.7-.17s6.19-.17,8.81-.28,4.94-.25,7-.4c1.54-.11,3-.24,4.32-.38s2.56-.29,3.69-.45,2.15-.34,3.07-.52,1.74-.39,2.45-.6,1.36-.43,1.94-.65a13.19,13.19,0,0,0,1.54-.71,7.16,7.16,0,0,0,1.15-.75,3.47,3.47,0,0,0,.75-.8,1.85,1.85,0,0,0,.32-.8,1.29,1.29,0,0,0-.15-.76,2.26,2.26,0,0,0-.62-.72,5.13,5.13,0,0,0-1.09-.67,9.89,9.89,0,0,0-1.78-.63q-1.12-.3-2.7-.57c-1.05-.18-2.25-.35-3.61-.51s-2.86-.32-4.52-.47-3.71-.27-6.13-.38-5.22-.2-8.4-.27-6.75-.13-10.68-.17-8.26,0-12.95,0-9.06,0-13.08.06-7.73.1-11.09.18-6.38.19-9.07.31-5,.26-7.05.42c-1.56.13-3,.26-4.35.41s-2.56.31-3.67.48-2.1.35-3,.55-1.64.4-2.29.62-1.23.45-1.74.68a9.73,9.73,0,0,0-1.31.73,4.16,4.16,0,0,0-.87.76,2.23,2.23,0,0,0-.45.8,1.46,1.46,0,0,0,0,.8,1.67,1.67,0,0,0,.42.75,3.92,3.92,0,0,0,.85.7,9.65,9.65,0,0,0,1.29.65,13,13,0,0,0,1.94.6c.79.18,1.72.37,2.79.54s2.29.33,3.65.48,2.86.3,4.51.44,3.64.25,6,.35,5.08.19,8.15.25,6.5.12,10.29.16,7.94.05,12.45.05m10.52-22q11.77,0,21.69.32t17.91,1c5.33.43,10,1,14.07,1.59A77.46,77.46,0,0,1,577,3.63a30.67,30.67,0,0,1,5.75,2.28,9.86,9.86,0,0,1,3.29,2.63,4.2,4.2,0,0,1,.89,3,6.6,6.6,0,0,1-1.45,3.29A15.13,15.13,0,0,1,582.11,18a28.86,28.86,0,0,1-5,2.78,56.43,56.43,0,0,1-6.62,2.37q-3.71,1.08-8.2,2-5.44,1.08-12.13,1.88t-14.59,1.33q-7.92.53-17.11.79t-19.71.26q-10.73,0-19.71-.24t-16.3-.72q-7.32-.48-13-1.2a89.47,89.47,0,0,1-9.62-1.71,54.45,54.45,0,0,1-6.9-2.14,22.55,22.55,0,0,1-4.79-2.48,8.22,8.22,0,0,1-2.63-2.87,4.79,4.79,0,0,1-.42-3.25,7.36,7.36,0,0,1,1.69-3.29,15,15,0,0,1,3.69-3,33.4,33.4,0,0,1,5.74-2.62,69.62,69.62,0,0,1,7.82-2.26q5.38-1.26,12.39-2.21t15.64-1.6q8.64-.64,18.84-1t22-.32"/></g></g></g></g></g></g></g></svg>