<?xml version="1.0" encoding="utf-8"?>
<!-- Generator: Adobe Illustrator 26.5.0, SVG Export Plug-In . SVG Version: 6.00 Build 0)  -->
<svg version="1.1" id="Layer_1" xmlns="http://www.w3.org/2000/svg" xmlns:xlink="http://www.w3.org/1999/xlink" x="0px" y="0px"
	 viewBox="0 0 2521 2911" style="enable-background:new 0 0 2521 2911;" xml:space="preserve">
<style type="text/css">
	.st0{fill:#DB1F26;}
	.st1{fill:#A51D21;}
	.st2{fill:#E6B35A;}
	.st3{fill:#FFFFFF;}
	.st4{fill:none;}
	.st5{fill:#A51A22;}
</style>
<g>
	<polygon class="st0" points="1260.2,85.8 71,772.7 71,2146.2 1260.2,2833.1 2449.3,2146.2 2449.3,772.7 	"/>
	<path class="st1" d="M2419.8,669.8L1467,119.4L1260.2,0l-206.8,119.4L100.5,669.8L0,727.7v1455.5l100.5,58l964.8,557.2l195.2,112.5
		l195.2-112.5l964.8-557.2l100.5-58V727.7L2419.8,669.8z M2419.8,2129l-1159.7,669.8L100.5,2129V789.2l1159.7-669.8l0,0
		l1159.7,669.8V2129z"/>
	<path class="st2" d="M1258.4,2171.6c1-1,2.1-2.1,3.1-3.1h-1C1260.2,2169.5,1259.5,2170.6,1258.4,2171.6z"/>
	<path class="st3" d="M373.9,1043.1l57.6,155.1c5.8,17.5,12.3,38.1,16.8,53.5h1c4.8-15.8,10.3-35.7,16.8-54.9l52.1-153.7h50.4
		l-71.7,187c-34,89.9-57.3,136.2-89.9,164.4c-23.3,20.6-46.6,28.8-58.7,30.9l-12-40.1c15.4-5.1,29.5-13,41.8-23.3
		c17.1-14.4,30.9-32.6,40.1-53.2c2.1-3.4,3.1-7.2,3.8-11.3c-0.3-4.5-1.7-8.6-3.4-12.4l-96.7-241.9H373.9z"/>
	<path class="st3" d="M737.4,1305.6l-3.8-32.9h-1.7c-14.7,20.6-42.9,39.1-80.3,39.1c-53.2,0-80.3-37.4-80.3-75.5
		c0-63.5,56.3-98.1,157.8-97.4v-5.5c0-21.6-5.8-60.7-59.7-60.7c-24,0-47.7,6.9-68.3,19.6l-11-31.6c21.6-14.1,53.2-23.3,86.1-23.3
		c80.3,0,99.8,54.9,99.8,107.4v98.1c-0.3,20.9,1,42.2,4.5,62.8L737.4,1305.6z M730.6,1171.7c-52.1-1-111.1,8.2-111.1,59
		c0,30.9,20.6,45.6,44.9,45.6c28.5,0.7,54.2-16.8,63.5-43.9c1.7-4.8,2.7-10,2.7-15.1L730.6,1171.7L730.6,1171.7z"/>
	<path class="st3" d="M836.2,1125.1c0-30.9-0.7-57.6-2.1-82H876l1.7,51.5h2.1c12-35.3,40.8-57.6,72.7-57.6c4.5,0,9.3,0.3,13.7,1.7
		v44.9c-5.5-1-10.6-1.7-16.1-1.7c-33.6,0-57.6,25.4-63.8,61.4c-1.4,7.2-2.1,14.8-2.1,22.3v140h-47.3v-180.5H836.2z"/>
	<path class="st3" d="M1217.3,920.6v317c0,23.3,0.3,49.8,2.1,67.9h-42.9l-2.1-45.6h-1c-14.7,29.2-46.6,51.5-89.5,51.5
		c-63.5,0-112.2-53.5-112.2-133.5c-0.7-87.2,53.5-141,117.6-141c40.1,0,67.2,18.9,79.2,40.1h1V920.2h47.7V920.6z M1169.6,1149.8
		c0-6.9-0.7-13.4-2.1-20.2c-6.9-32.3-35.7-55.6-68.9-55.2c-49.4,0-78.5,43.2-78.5,101.2c0,53.2,26.1,97.1,77.5,97.1
		c31.9,0,61.4-21.3,70-57c1.7-6.9,2.4-13.7,2.1-20.6V1149.8z"/>
	<path class="st3" d="M1272.5,1256.8c18.9,11.7,40.5,18.2,62.8,18.9c34.6,0,51.1-17.2,51.1-39.1c0-22.6-13.7-35.3-48.7-48.4
		c-47.3-16.8-69.3-42.9-69.3-74.1c0-42.2,34.3-76.9,90.6-76.9c22.6-0.3,44.6,5.5,64.5,16.1l-12,34.7c-16.1-10-34.6-15.1-53.5-15.1
		c-28.1,0-43.9,16.1-43.9,35.7c0,21.6,15.8,31.6,49.7,44.6c45.6,17.2,68.9,40.1,68.9,79.3c0,46-35.7,78.6-98.1,78.6
		c-28.8,0-55.2-7.2-73.7-17.8L1272.5,1256.8z"/>
	<path class="st3" d="M1533.5,967.6v75.5h68.3v36.4h-68.3v141.4c0,32.6,9.3,51.1,35.7,51.1c9.3,0,18.5-1,27.8-3.4l2.1,35.7
		c-13.7,4.8-27.8,6.9-42.2,6.5c-22.3,0-40.1-7.2-51.4-20.2c-13.7-14.1-18.5-37.4-18.5-68.3v-143.1h-40.8v-36h40.8v-62.8
		L1533.5,967.6z"/>
	<path class="st3" d="M1691.3,969.3c0.7,16.1-11.3,29.2-30.5,29.2c-15.8,0.3-28.5-12.4-28.8-28.1c0-0.3,0-0.7,0-1.4
		c-0.3-16.1,12.3-29.5,28.1-29.9c0.3,0,1,0,1.4,0C1680,939.5,1691.3,952.5,1691.3,969.3z M1638.5,1305.6v-262.5h47.7v262.5H1638.5z"
		/>
	<path class="st3" d="M1934.8,1295.6c-12.3,6.5-40.1,15.1-75.5,15.1c-79.2,0-130.7-53.5-130.7-133.8c0-80.6,55.2-139.3,141-139.3
		c28.1,0,53.2,7.2,66.2,13.7l-11,37.1c-11.3-6.5-29.2-12.4-55.2-12.4c-60,0-92.6,44.6-92.6,99.2c0,60.7,39.1,98.1,90.9,98.1
		c20.2,0,40.1-4.5,58.7-13L1934.8,1295.6z"/>
	<path class="st3" d="M2020.2,1163.5h1c6.5-9.3,15.8-20.6,23.3-29.9l76.8-90.6h57.6l-101.2,107.7l115.6,154.4h-58l-90.6-125.9
		l-24.4,27.1v98.8h-47V920.6h47v242.9H2020.2z"/>
	<path class="st4" d="M1115.1,1404L1115.1,1404z"/>
	<path class="st4" d="M1090.4,1401.6c3.4-0.3,6.9-0.3,10.3-0.3s7.5-0.3,11.7-0.3s8.2,0,12.7,0s9.3,0,13.4,0s8.2,0,12,0.3h0.7l0,0
		c-0.3-0.3-0.7-0.3-1.4-0.3l-2.4-0.3c-1,0-2.1-0.3-3.4-0.3s-2.7-0.3-4.5-0.3l-5.5-0.3h-6.9h-8.2h-8.6h-7.2l-6.2,0.3
		c-1.7,0-3.4,0-5.1,0.3s-2.7,0.3-3.8,0.3l-2.7,0.3c-0.7,0-1.4,0.3-1.7,0.3s-0.7,0.3-0.7,0.3v0.3
		C1085.2,1402,1087.6,1401.6,1090.4,1401.6z"/>
	<path class="st4" d="M1014.9,1424.6c2.7,0,5.8-0.3,8.6-0.3s5.8,0,8.9,0c4.5,0,8.2,0,12,0h2.7l-2.1-0.3c-1,0-2.4-0.3-3.8-0.3
		l-4.1-0.3h-4.8h-5.5h-4.8h-4.5l-3.8,0.3l-3.4,0.3l-2.7,0.3l-2.1,0.3c-0.3,0-1,0.3-1.4,0.3l0,0l2.7-0.3
		C1009.1,1425,1011.8,1424.6,1014.9,1424.6z"/>
	<path class="st4" d="M1038.6,1408.1c-4.5,0-8.9-0.3-12.7-0.3h0.3c1,0.3,2.1,0.3,2.7,0.3c1.4,0,2.7,0.3,4.1,0.3s3.8,0.3,6.2,0.3
		l8.9,0.3c3.4,0,7.5,0,12,0.3h14.7c-2.4-0.3-4.8-0.3-6.5-0.7l-2.7-0.3h-7.2C1051.6,1408.1,1044.8,1408.1,1038.6,1408.1z"/>
	<path class="st4" d="M1089.7,1424.3c2.1-0.3,4.5-0.3,6.9-0.3l7.5-0.3l7.9-0.3h8.6c4.1,0,8.6,0,12.3,0h5.1l-2.1-0.3l-4.8-0.3
		l-5.5-0.3h-6.2h-14.1h-6.2l-5.5,0.3l-4.8,0.3c-1.4,0-2.7,0.3-3.8,0.3l-2.7,0.3c-0.7,0-1.4,0.3-1.7,0.7c-0.3,0-0.7,0.3-0.7,0.7l0,0
		l4.1-0.7C1085.6,1424.6,1087.3,1424.6,1089.7,1424.3z"/>
	<path class="st4" d="M1072.5,1427.4h-1.4l1,0.3L1072.5,1427.4z"/>
	<path class="st4" d="M1127.4,1408.1c-6.2,0-13,0.3-20.2,0.3h-13h0.7c1.4,0,2.7,0.3,4.5,0.3l5.5,0.3h6.5h15.8h7.2l6.5-0.3l5.5-0.3
		c1.7,0,3.1-0.3,4.5-0.3s2.4-0.3,3.1-0.3c0.7,0,1.4-0.3,2.1-0.3c0.3,0,0.3-0.3,0.7-0.3c-3.4,0.3-7.5,0.3-12,0.7
		C1139.1,1407.5,1133.6,1407.8,1127.4,1408.1z"/>
	<polygon class="st4" points="986.8,1696.4 990.9,1686.8 915.4,1686.8 	"/>
	<polygon class="st5" points="2252.4,2234.4 2238.7,2234.4 2212.3,2249.8 308,2249.8 281.6,2234.4 277.8,2234.4 313.2,2255 
		2217.5,2255 	"/>
	<polygon class="st5" points="2086.8,2056.3 2090.9,2061.4 2425,2061.4 2425,2047 2419.8,2047 2419.8,2056.3 	"/>
	<polygon class="st5" points="2425,2134.9 2425,2134.9 2411.2,2134.9 2398.2,2142.4 2332.7,2142.4 2337.8,2147.6 2403.4,2147.6 	"/>
	<polygon class="st5" points="2171.5,1979.8 2176.6,1984.9 2425,1984.9 2425,1975.7 2419.8,1975.7 2419.8,1979.8 	"/>
	<polygon class="st5" points="2354.6,1946.2 2350.5,1942.7 2349.2,1942.7 2359.8,1951.3 2425,1951.3 2425,1942.7 2419.8,1942.7 
		2419.8,1946.2 	"/>
	<polygon class="st5" points="1759.2,1916.6 1762,1921.8 2425,1921.8 2425,1911.2 2419.8,1911.2 2419.8,1916.6 	"/>
	<polygon class="st5" points="435.9,2047 426.7,2047 419.1,2056.3 105.6,2056.3 105.6,2061.4 424.3,2061.4 	"/>
	<polygon class="st5" points="172.2,2142.4 122.1,2142.4 109.1,2134.9 105.6,2134.9 105.6,2134.9 127.3,2147.6 177.3,2147.6 
		189.7,2134.9 179.4,2134.9 	"/>
	<polygon class="st5" points="105.6,1979.8 105.6,1984.9 338.5,1984.9 347.5,1975.7 337.2,1975.7 333.4,1979.8 	"/>
	<polygon class="st5" points="105.6,1946.2 105.6,1951.3 155.4,1951.3 166,1942.7 154.3,1942.7 150.2,1946.2 	"/>
	<polygon class="st5" points="105.6,1916.6 105.6,1921.8 753.2,1921.8 759.4,1911.2 751.2,1911.2 748.1,1916.6 	"/>
	<polygon class="st5" points="2312.8,1728.6 202.4,1728.6 194.1,1733.8 2321,1733.8 	"/>
	<polygon class="st5" points="2052.1,1859.3 2057.3,1864.5 2425,1864.5 2425,1857.3 2419.8,1857.3 2419.8,1859.3 	"/>
	<polygon class="st5" points="2285.7,1891.3 2425,1891.3 2425,1884.1 2419.8,1884.1 2419.8,1886.5 2280.6,1886.5 2277.8,1884.1 
		2276.8,1884.1 	"/>
	<polygon class="st5" points="2221.2,1839.1 2425,1839.1 2425,1832.6 2419.8,1832.6 2419.8,1834 2216.1,1834 2214.4,1832.6 
		2213,1832.6 	"/>
	<polygon class="st5" points="1965.4,1771.5 2380.7,1771.5 2379.7,1771.2 2372.5,1766.4 1960.2,1766.4 	"/>
	<polygon class="st5" points="2158.1,1787 2157.1,1787 2164.3,1792.8 2414,1792.8 2405.8,1787.6 2159.1,1787.6 	"/>
	<polygon class="st5" points="2108.4,1746.5 2107.4,1746.5 2113.5,1751.6 2349.2,1751.6 2341.3,1746.5 	"/>
	<polygon class="st5" points="1883,1811 1887.5,1816.1 2425,1816.1 2425,1807.9 2419.8,1807.9 2419.8,1811 	"/>
	<polygon class="st5" points="105.6,1859.3 105.6,1864.5 457.9,1864.5 464.8,1857.3 454.5,1857.3 452.8,1859.3 	"/>
	<polygon class="st5" points="229.1,1891.3 238.4,1884.1 227.1,1884.1 224,1886.5 105.6,1886.5 105.6,1891.3 	"/>
	<polygon class="st5" points="105.6,1834 105.6,1839.1 293.9,1839.1 302.2,1832.6 290.5,1832.6 288.8,1834 	"/>
	<polygon class="st5" points="142.7,1766.4 134.5,1771.5 549.8,1771.5 555.3,1766 545,1766 544.7,1766.4 	"/>
	<polygon class="st5" points="109.4,1787.6 105.6,1790 105.6,1792.8 350.9,1792.8 358.1,1787 346.8,1787 345.7,1787.6 	"/>
	<polygon class="st5" points="173.9,1746.5 166,1751.6 401.6,1751.6 408.2,1746.5 396.5,1746.5 396.5,1746.5 	"/>
	<polygon class="st5" points="105.6,1811 105.6,1816.1 627.7,1816.1 634.5,1807.9 625.3,1807.9 622.5,1811 	"/>
	<polygon class="st5" points="1763.7,1667.2 2216.4,1667.2 2208.5,1662.1 1759.6,1662.1 	"/>
	<polygon class="st5" points="2264.8,1698.1 2257.9,1693.6 1888.2,1693.6 1892.3,1698.1 	"/>
	<polygon class="st5" points="2068.2,1714.9 2291.5,1714.9 2284.3,1710.4 2062.4,1710.4 	"/>
	<polygon class="st5" points="2027.4,1682 2239.4,1682 2232.9,1677.8 2022.3,1677.8 	"/>
	<polygon class="st5" points="1990.7,1652.1 2192.4,1652.1 2186.6,1648.3 1985.9,1648.3 	"/>
	<polygon class="st5" points="756,1662.1 746.4,1662.1 746.4,1662.1 306.6,1662.1 298.7,1667.2 751.5,1667.2 	"/>
	<polygon class="st5" points="627,1693.6 257.2,1693.6 250.4,1698.1 622.9,1698.1 	"/>
	<polygon class="st5" points="452.8,1710.4 230.8,1710.4 223.6,1714.9 446.9,1714.9 	"/>
	<polygon class="st5" points="492.9,1677.8 282.3,1677.8 275.8,1682 487.7,1682 	"/>
	<polygon class="st5" points="529.2,1648.3 328.6,1648.3 322.8,1652.1 524.4,1652.1 	"/>
	<polygon class="st5" points="1833,1638 2170.8,1638 2167.4,1636 2165,1634.6 1829.5,1634.6 	"/>
	<polygon class="st5" points="1957.1,1625 2149.9,1625 2144.4,1621.6 1953,1621.6 	"/>
	<polygon class="st5" points="2130.7,1612.6 2123.8,1608.5 1579.1,1608.5 1581.5,1612.6 	"/>
	<polygon class="st5" points="685.6,1634.6 350.2,1634.6 344.4,1638 682.2,1638 	"/>
	<polygon class="st5" points="562.2,1621.6 370.8,1621.6 365.3,1625 558,1625 	"/>
	<polygon class="st5" points="936,1608.5 391.4,1608.5 384.5,1612.6 933.3,1612.6 	"/>
	<polygon class="st5" points="1993.8,1525.8 1993.5,1525.5 521.7,1525.5 516.9,1528.6 1998.3,1528.6 	"/>
	<polygon class="st5" points="1783.9,1588.6 2092.6,1588.6 2089.5,1586.6 2087.8,1585.5 1780.8,1585.5 	"/>
	<polygon class="st5" points="1922.8,1596.9 1926.6,1600.3 2110.8,1600.3 2107.4,1597.9 2106,1596.9 	"/>
	<polygon class="st5" points="1898.8,1577.3 2075.1,1577.3 2071.3,1574.9 2070.7,1574.6 1895,1574.6 	"/>
	<polygon class="st5" points="1742.4,1546.8 2026.7,1546.8 2024.3,1545.1 2023,1544 1740,1544 	"/>
	<polygon class="st5" points="1872.7,1556.4 2042.2,1556.4 2038.1,1554 1869.7,1554 	"/>
	<polygon class="st5" points="1849.1,1537.2 2012,1537.2 2009.3,1535.4 2008.2,1534.8 1846,1534.8 	"/>
	<polygon class="st5" points="1680.7,1567.4 2059.3,1567.4 2053.5,1563.6 1677.6,1563.6 	"/>
	<polygon class="st5" points="734.3,1585.5 427.4,1585.5 422.6,1588.6 731.3,1588.6 	"/>
	<polygon class="st5" points="592.3,1596.9 409.2,1596.9 404.4,1600.3 588.6,1600.3 	"/>
	<polygon class="st5" points="620.1,1574.6 444.5,1574.6 440.1,1577.3 616.7,1577.3 	"/>
	<polygon class="st5" points="775.2,1544 492.2,1544 488.4,1546.8 772.8,1546.8 	"/>
	<polygon class="st5" points="645.5,1554 477.1,1554 472.6,1556.4 642.4,1556.4 	"/>
	<polygon class="st5" points="669.2,1534.8 506.9,1534.8 503.2,1537.2 666.1,1537.2 	"/>
	<polygon class="st5" points="837.6,1563.6 462,1563.6 456.2,1567.4 834.5,1567.4 	"/>
	<polygon class="st5" points="1621,1495.3 1946.1,1495.3 1941.7,1492.6 1618.9,1492.6 	"/>
	<polygon class="st5" points="1707.1,1511.1 1970.8,1511.1 1967.4,1508.7 1705,1508.7 	"/>
	<polygon class="st5" points="1827.1,1519.3 1983.9,1519.3 1980.4,1517.3 1824.4,1517.3 	"/>
	<polygon class="st5" points="1806.5,1502.8 1957.8,1502.8 1954.7,1500.8 1804.1,1500.8 	"/>
	<polygon class="st5" points="1676.6,1480.2 1922.1,1480.2 1919.4,1478.1 1674.5,1478.1 	"/>
	<polygon class="st5" points="1787.7,1487.4 1933.8,1487.4 1932.8,1487.1 1930.7,1485.4 1785.3,1485.4 	"/>
	<polygon class="st5" points="1769.8,1473 1911.2,1473 1908.1,1471.3 1767.8,1471.3 	"/>
	<polygon class="st5" points="1900.2,1466.1 1898.5,1465.1 1897.1,1464.1 1495.1,1464.1 1496.5,1466.5 1763,1466.5 1762.6,1466.1 	
		"/>
	<polygon class="st5" points="896.2,1492.6 573.1,1492.6 569,1495.3 894.2,1495.3 	"/>
	<polygon class="st5" points="810.2,1508.7 547.8,1508.7 544.3,1511.1 808.1,1511.1 	"/>
	<polygon class="st5" points="690.8,1517.3 534.7,1517.3 531.3,1519.3 688,1519.3 	"/>
	<polygon class="st5" points="711,1500.8 560.5,1500.8 557.4,1502.8 708.3,1502.8 	"/>
	<polygon class="st5" points="840.7,1478.1 596.1,1478.1 593,1480.2 838.6,1480.2 	"/>
	<polygon class="st5" points="729.9,1485.4 584.5,1485.4 581.4,1487.4 727.5,1487.4 	"/>
	<polygon class="st5" points="747.4,1471.3 607.1,1471.3 604,1473 745.3,1473 	"/>
	<polygon class="st5" points="741.9,1466.5 1018.7,1466.5 1020.1,1464.1 618.1,1464.1 615,1466.1 742.2,1466.1 	"/>
	<path class="st5" d="M800.5,1418.8H1088l3.4-0.3l7.5-0.3l7.9-0.3h8.6c4.1,0,8.6,0,12.3,0s7.9,0.3,11.3,0.3l6.2,0.3h559.1l-1.7-1.4
		h121.1l-0.7-0.3H692.2l-0.7,0.3h110.8L800.5,1418.8z"/>
	<polygon class="st5" points="1879.3,1452.8 1877.2,1451.4 1648.1,1451.4 1649.8,1453.1 1746.9,1453.1 1746.2,1452.8 	"/>
	<polygon class="st5" points="1887.1,1457.9 1751.3,1457.9 1752.7,1458.9 1888.9,1458.9 	"/>
	<polygon class="st5" points="1867.6,1445.5 1735.9,1445.5 1736.9,1446.2 1869,1446.2 	"/>
	<polygon class="st5" points="1840.8,1428.4 1840.2,1428.1 1624.8,1428.1 1626.1,1429.4 1717.4,1429.4 1716.3,1428.4 	"/>
	<polygon class="st5" points="1849.1,1433.5 1721.5,1433.5 1721.8,1433.9 1849.8,1433.9 	"/>
	<polygon class="st5" points="1831.6,1422.6 1707.8,1422.6 1708.1,1422.9 1832.3,1422.9 	"/>
	<polygon class="st5" points="1859.4,1440.4 1858,1439.4 1857.7,1439 1574.3,1439 1576.1,1441.4 1732.1,1441.4 1730.7,1440.4 	"/>
	<polygon class="st5" points="758,1453.1 865.4,1453.1 867.1,1451.4 638,1451.4 635.9,1452.8 758.7,1452.8 	"/>
	<polygon class="st5" points="763.8,1457.9 628,1457.9 626.3,1458.9 762.5,1458.9 	"/>
	<polygon class="st5" points="779.3,1445.5 647.6,1445.5 645.9,1446.2 777.9,1446.2 	"/>
	<polygon class="st5" points="787.5,1429.4 888.7,1429.4 890.4,1428.1 675,1428.1 674,1428.4 788.5,1428.4 	"/>
	<polygon class="st5" points="793.7,1433.5 666.1,1433.5 665.4,1433.9 793.3,1433.9 	"/>
	<polygon class="st5" points="807.4,1422.6 683.6,1422.6 682.9,1422.9 807.1,1422.9 	"/>
	<polygon class="st5" points="772.8,1441.4 939.1,1441.4 940.8,1439 657.5,1439 655.8,1440.4 774.1,1440.4 	"/>
	<polygon class="st5" points="1677.9,1397.5 1539.7,1397.5 1541.1,1399.2 1794.9,1399.2 1793.9,1398.5 1679.3,1398.5 	"/>
	<polygon class="st5" points="1689.9,1407.1 1604.2,1407.1 1605.6,1408.5 1809.6,1408.5 1809.3,1408.5 1691.3,1408.5 	"/>
	<polygon class="st5" points="1684.4,1403.7 1801.7,1403.7 1801.4,1403.3 1684.1,1403.3 	"/>
	<polygon class="st5" points="1672.8,1394.4 1787,1394.4 1786.7,1394.1 1672.4,1394.1 	"/>
	<polygon class="st5" points="721.3,1398.5 720.3,1399.2 974.1,1399.2 975.5,1397.5 827,1397.5 825.6,1398.5 	"/>
	<polygon class="st5" points="705.9,1408.5 705.5,1408.5 909.6,1408.5 911,1407.1 815,1407.1 813.6,1408.5 	"/>
	<polygon class="st5" points="713.4,1403.7 830.7,1403.7 831.1,1403.3 713.8,1403.3 	"/>
	<polygon class="st5" points="728.2,1394.4 842.4,1394.4 842.7,1394.1 728.5,1394.1 	"/>
	<path class="st5" d="M598.2,2355.8l-0.7-0.7L598.2,2355.8L598.2,2355.8z"/>
	<path class="st5" d="M850.6,2375.1c-3.8-2.4-7.9-4.5-12-6.2c-5.1-2.1-10.3-3.8-15.4-5.1c-6.2-1.4-12.3-2.7-18.9-3.4
		c-6.9-1-14.1-1.7-22-2.1s-16.1-0.7-25-0.7s-16.5,0.3-24.4,0.7s-15.1,1-22.3,2.1s-13.7,2.1-20.2,3.4s-12.3,2.7-18.2,4.8
		s-11,3.8-15.8,5.8c-4.1,1.7-8.2,4.1-12.3,6.5c-3.1,2.1-6.2,4.5-8.9,7.2c-2.4,2.4-4.1,4.8-5.5,7.9c-0.7,1.7-1.4,3.8-2.1,5.5
		c-0.3,2.1-0.7,4.1-1,6.2c-0.3,2.4-0.3,4.5,0,6.9s0.7,4.8,1.4,7.5l-25.4-1.4l-165-95.4l-3.4,0.3l173.6,100.2l25.4,1.4
		c-0.7-2.4-1-4.8-1.4-7.5c-0.3-2.4-0.3-4.5,0-6.9c0-2.1,0.3-4.1,1-6.2c0.3-2.1,1-3.8,2.1-5.5c1.4-2.7,3.1-5.5,5.5-7.9
		c2.7-2.7,5.5-5.1,8.9-7.2c3.8-2.4,7.9-4.5,12.3-6.5c4.5-2.1,9.6-3.8,15.8-5.8c5.8-1.7,11.7-3.4,18.2-4.8c6.5-1.4,13-2.4,20.2-3.4
		s14.4-1.7,22.3-2.1s15.8-0.7,24.4-0.7s17.1,0.3,25,0.7s15.1,1,22,2.1c6.2,0.7,12.7,2.1,18.9,3.4c5.5,1.4,10.6,3.1,15.8,5.1
		c4.1,1.7,8.2,3.8,12,6.2c1.4,0.7,2.4,1.7,3.4,2.4l-0.7-1C856.1,2379.2,853.4,2377.1,850.6,2375.1z"/>
	<path class="st5" d="M789.6,2501.3c15.4-1.7,29.8-4.1,43.9-7.2c14.1-2.7,27.1-6.2,39.8-10.3c12-3.8,23.7-7.9,35.3-13
		c10.3-4.5,19.9-9.3,29.2-15.1c7.9-4.8,15.1-10.3,22-16.5c5.8-5.1,10.6-11.3,14.4-17.8c3.4-5.8,6.2-12.4,7.5-19.2
		c1.4-6.5,1.4-13,0-19.6c-1.7-6.5-4.5-12.4-8.6-17.5c-2.4-3.1-5.1-5.8-8.2-8.6c1,1,2.1,2.4,3.1,3.4c4.1,5.1,6.9,11,8.6,17.5
		c1.4,6.5,1.4,13,0,19.6c-1.4,6.9-4.1,13.4-7.5,19.2c-4.1,6.5-8.9,12.7-14.4,17.8c-6.9,6.2-14.1,11.7-22,16.5
		c-9.3,5.8-19.2,11-29.2,15.1c-11.7,4.8-23.3,9.3-35.3,13c-12.7,3.8-25.7,7.2-39.8,10.3s-28.5,5.5-43.9,7.2
		c-13.7,1.7-27.8,2.7-42.2,3.8l-0.3,2.7l4.5,2.7C761.1,2504.4,775.5,2503,789.6,2501.3z"/>
	<path class="st5" d="M1143.2,1557.1c2.4-0.7,4.5-1.4,6.9-2.1c1.7-0.7,3.1-1.4,4.5-2.4c1-0.7,1.4-1.4,1.7-2.4c0.3-1,0-2.1-0.7-2.7
		c-1-1-2.4-1.7-4.1-2.4l0,0c-0.3,1-1,2.1-1.7,2.4c-1.4,1-2.7,1.7-4.5,2.4c-2.4,0.7-4.5,1.7-6.9,2.1c-2.7,0.7-5.8,1.4-9.6,2.1
		s-7.5,1-11.7,1.7s-8.6,1-13.4,1.4s-9.6,0.7-14.7,1c-4.5,0-8.9,0.3-13.7,0.3l2.4,5.1c5.8,0,11.3-0.3,16.5-0.3s10.3-0.3,14.7-1
		s9.3-0.7,13.4-1.4s8.2-1,11.7-1.7S1140.5,1557.7,1143.2,1557.1z"/>
	<path class="st5" d="M1109.2,1545.1c0-0.3,0-1-0.3-1c-0.7-0.3-1.4-0.7-2.1-1c-1-0.3-2.4-0.7-3.4-1c-1.4-0.3-3.1-0.7-4.8-0.7
		s-3.8-0.3-6.2-0.7s-4.8-0.3-7.2-0.3s-5.5-0.3-8.2-0.3s-6.2,0-9.3,0s-6.2,0-8.9,0l-8.2,0.3c-2.4,0-4.8,0.3-7.2,0.3s-4.5,0.3-6.2,0.7
		s-3.8,0.3-5.1,0.7s-2.7,0.3-3.8,0.7c-1,0.3-1.7,0.7-2.4,1c-0.3,0.3-1,0.7-1,1c0,0.3,0,0.3,0,0.7s0,0.7,0.3,0.7
		c0.3,0.3,0.3,0.7,0.7,1c0.3,0.3,0.7,0.7,1.4,1l-41.2-0.7c0.3-0.3,0.3-1,0.3-1.4c0-0.7-0.3-1-1-1.4c-0.7-0.3-1.4-0.7-2.4-1
		c-1-0.3-2.4-0.7-3.4-1c-1.4-0.3-3.1-0.3-4.8-0.7s-3.4-0.3-5.5-0.3s-4.1-0.3-6.5-0.3c-2.4,0-4.8,0-7.2,0h-6.2l-5.8,0.3
		c-1.7,0-3.4,0.3-5.1,0.3s-3.1,0.3-4.5,0.3s-2.7,0.3-3.8,0.7c-1,0.3-2.1,0.3-3.1,0.7c-0.7,0.3-1.4,0.3-2.1,0.7c-0.3,0.3-0.7,0.7-1,1
		c-0.3,0.3-0.3,0.7,0,1s0.7,0.7,1,0.7c0.7,0.3,1.4,0.7,2.4,0.7c1,0.3,2.4,0.7,3.4,0.7l1.4,0.3h0.3c0.7-0.3,1.7-0.3,3.1-0.7
		c1.4-0.3,2.4-0.3,3.8-0.7c1.4-0.3,3.1-0.3,4.5-0.3c1.4,0,3.4-0.3,5.1-0.3l5.8-0.3h6.2c2.7,0,5.1,0,7.2,0c2.4,0,4.5,0,6.5,0.3
		s3.8,0.3,5.5,0.3s3.4,0.3,4.8,0.7c1,0.3,2.4,0.7,3.4,1c0.7,0.3,1.7,0.7,2.4,1c0.3,0.3,0.7,0.7,1,1.4c0,0.7,0,1-0.3,1.4l41.2,0.7
		c-0.3-0.3-0.7-0.7-1.4-1c-0.3-0.3-0.7-0.7-0.7-1c-0.3-0.3-0.3-0.7-0.3-0.7c0-0.3,0-0.3,0-0.7c0.3-0.3,0.7-0.7,1-1
		c0.7-0.3,1.7-0.7,2.4-1c1.4-0.3,2.4-0.7,3.8-0.7c1.4-0.3,3.1-0.7,5.1-0.7s4.1-0.3,6.2-0.7s4.8-0.3,7.2-0.3l8.2-0.3
		c2.7,0,5.8,0,8.9,0s6.5,0,9.3,0s5.8,0,8.2,0.3s5.1,0.3,7.2,0.3s4.1,0.3,6.2,0.7c1,0,2.1,0.3,3.1,0.3c0.7-0.3,1-0.3,1.7-0.7
		C1108.9,1546.1,1109.2,1545.4,1109.2,1545.1z"/>
	<path class="st5" d="M931.9,1557.1c-3.4,0-6.9-0.3-9.9-0.3c-3.1-0.3-6.2-0.3-8.6-0.7s-5.1-0.3-7.5-0.7s-4.5-0.7-6.2-0.7
		s-3.8-0.7-5.5-1s-3.1-0.7-4.5-1c-1.4-0.3-2.1-0.7-2.7-1c0,0.3,0,0.3,0,0.7c0,0.7,0,1,0.3,1.4c0.3,0.7,1,1,1.4,1.4
		c0.7,0.7,1.7,1,2.7,1.4c1,0.3,2.4,1,3.8,1.4c1.4,0.3,2.7,0.7,4.5,1c1.7,0.3,3.4,0.7,5.5,1c2.1,0.3,4.1,0.7,6.2,0.7
		c2.1,0,4.8,0.3,7.5,0.7c2.7,0.3,5.5,0.3,8.6,0.7s6.5,0.3,9.9,0.3l11.3,0.3l12.3-7.2c-2.7,0-5.5,0-8.2-0.3l-5.1-0.3l-4.1,2.4H931.9z
		"/>
	<path class="st5" d="M1166.2,1429.4c-2.1,0.3-4.5,0.7-7.2,1c-2.7,0.3-5.5,0.7-8.6,1l-3.1,0.3l0,0l-2.4,0.3c-1,0-2.1,0.3-3.4,0.3
		s-2.7,0.3-4.5,0.3s-3.4,0.3-5.1,0.3l-5.8,0.3h-6.9l3.1,4.1l12.3-0.3c3.8,0,7.5-0.3,11-0.3s6.9-0.3,9.9-0.7s6.2-0.7,8.6-1
		c2.4-0.3,5.1-0.7,7.2-1c1.7-0.3,3.4-0.7,5.1-1.4c1-0.3,2.1-0.7,3.1-1.4c0.7-0.3,1-0.7,1.4-1.4c0-0.7,0-1-0.7-1.7
		c-1-0.7-2.1-1-3.1-1.4c-0.7-0.3-1.7-0.3-2.7-0.7c-1,0.7-2.1,1-3.1,1.4C1169.6,1428.7,1167.9,1429.1,1166.2,1429.4z"/>
	<path class="st5" d="M1003.6,1432.2l-6.9-0.3c-2.1,0-3.8-0.3-5.8-0.3l-4.8-0.3c-1.4,0-3.1-0.3-4.1-0.7s-2.4-0.3-3.4-0.7l0,0
		c-0.7,0.3-1,0.7-1.4,1c-0.3,0.3-0.3,0.7-0.3,1c0,0.3,0.3,0.7,0.3,0.7c0.3,0.3,0.7,0.7,1.4,0.7c0.7,0.3,1.4,0.7,2.1,0.7l3.1,0.7
		c1,0.3,2.4,0.3,3.4,0.7s2.7,0.3,4.1,0.7l4.8,0.3c1.7,0,3.8,0.3,5.8,0.3l6.9,0.3l7.5,0.3l8.6,0.3l8.6-4.1c-2.1,0-4.1,0-6.2,0
		l-5.1-0.3l-4.5-0.3c-1.4,0-2.4-0.3-3.4-0.3c-1,0-1.7-0.3-2.4-0.3h-0.3H1003.6z"/>
	<path class="st5" d="M1139.4,1427l2.4-0.3c0.7,0,1-0.3,1.7-0.7c0.3,0,0.7-0.3,0.7-0.7c0-0.3,0-0.3-0.3-0.7s-1-0.3-1.4-0.7
		c-0.7,0-1.7-0.3-2.7-0.3l-1.7-0.3h-5.1c-3.8,0-8.2,0-12.3,0h-8.6l-7.9,0.3l-7.5,0.3c-2.4,0-4.8,0.3-6.9,0.3s-4.1,0.3-6.2,0.7
		l-4.1,0.7v0.3c0,0.3,0,0.3,0.3,0.3l0.7,0.3l1,0.7h-9.3h-0.3l-1-0.3l-20.6-0.3c0.3-0.3,0.3-0.7,0-0.7c-0.3-0.3-0.3-0.7-0.7-0.7
		c-0.7-0.3-1-0.3-1.7-0.7h-0.7h-2.7c-3.8,0-7.9,0-12,0c-3.1,0-6.2,0-8.9,0s-5.8,0-8.6,0.3s-5.5,0.3-8.2,0.3l-2.7,0.3
		c-0.3,0-0.3,0.3-0.7,0.3c0,0,0,0.3,0,0.7l0,0c0.3,0.3,0.7,0.3,1,0.3c0.7,0.3,1,0.3,1.7,0.3c1,0.3,1.7,0.3,2.7,0.3s2.4,0.3,3.4,0.3
		l4.5,0.3l5.1,0.3h3.1h2.1h5.1h5.5h4.8l4.1,0.3c1.4,0,2.4,0.3,3.8,0.3s2.1,0.3,2.7,0.3c0.7,0,1.4,0.3,1.7,0.7c0.3,0,0.7,0.3,0.7,0.7
		s0,0.7,0,0.7l30.9,0.3l-1-0.7l-0.7-0.3l-0.3-0.3v-0.3c0.3-0.3,0.3-0.3,0.7-0.7c0.7-0.3,1-0.3,1.7-0.7l2.7-0.3c1,0,2.4-0.3,3.8-0.3
		l4.8-0.3l5.5-0.3h6.2h14.1h6.2h2.7l2.4-0.3C1137.4,1427.4,1138.4,1427.4,1139.4,1427z"/>
	<path class="st5" d="M773.4,1806.9c-5.1-0.3-10.3-0.7-14.7-1s-8.9-0.7-12.7-1.4s-7.5-1-10.6-1.7s-6.2-1-8.9-1.7s-5.1-1.4-7.5-2.1
		c-2.1-0.7-4.1-1.4-6.2-2.4c-1-0.7-2.4-1.4-3.4-2.1c0.3,0.3,0.3,1,0.7,1.4c1,1,2.1,2.1,3.1,3.1c1.4,1,3.1,2.1,4.8,2.7
		c2.1,1,4.1,1.7,6.2,2.4c2.4,0.7,4.8,1.4,7.5,2.1s5.8,1.4,8.9,1.7s6.9,1,10.6,1.7s8.2,1,12.7,1.4s9.6,0.7,14.7,1s11,0.7,16.8,1
		l21.6-15.8c-4.1,0-7.9-0.3-11.7-0.3l-15.1,11.3C784.1,1807.5,778.6,1807.2,773.4,1806.9z"/>
	<path class="st5" d="M854.4,1777.3c-1.7-0.7-3.4-1.4-4.8-2.1c-2.1-0.7-4.5-1-6.5-1.4c-2.4-0.3-5.1-0.7-7.9-1s-6.2-0.3-9.3-0.7
		s-6.9-0.3-10.6-0.3c-3.1,0-6.5,0-9.3,0s-5.8,0.3-8.6,0.3s-5.1,0.3-7.9,0.7s-4.8,0.7-6.9,1s-4.1,0.7-5.8,1.4s-3.4,1-4.8,1.7
		c-1.4,0.3-2.4,1-3.4,1.7c-0.7,0.7-1.4,1.4-2.1,2.1c-0.3,0.7-0.7,1.4-0.7,2.1c0.3,0.7,0.7,1.4,1.4,1.7c1,0.7,2.1,1.4,3.1,1.7l1,0.3
		c0-0.3,0.3-0.7,0.3-0.7c0.7-0.7,1.4-1.4,2.1-2.1c1-0.7,2.1-1.4,3.4-1.7c1.4-0.7,3.1-1,4.8-1.7s3.8-1,5.8-1.4c2.1-0.3,4.5-0.7,6.9-1
		c2.4-0.3,5.1-0.7,7.9-0.7s5.5-0.3,8.6-0.3s6.2,0,9.3,0c3.8,0,7.2,0,10.6,0.3c3.4,0.3,6.5,0.3,9.3,0.7c2.7,0.3,5.5,0.7,7.9,1
		s4.5,1,6.5,1.4c1,0.3,2.4,0.7,3.4,1.4c0-0.7-0.3-1.7-0.7-2.1C856.5,1778.7,855.8,1778,854.4,1777.3z"/>
	<path class="st5" d="M1040.6,1777.7c-0.7-1-1.7-1.7-2.7-2.4c-1.4-0.7-3.1-1.4-4.8-2.1c-2.4-0.7-4.8-1.4-6.9-1.7
		c-2.7-0.7-5.5-1-8.9-1.4s-6.9-0.7-10.6-1s-7.9-0.3-12-0.7s-8.9-0.3-13.7-0.3s-8.9,0-13.4,0.3s-8.2,0.3-12,0.7s-7.2,0.7-10.6,1
		s-6.5,1-9.6,1.4c-3.1,0.3-5.5,1-7.9,1.7c-2.1,0.7-4.1,1-5.8,2.1c-1.4,0.7-2.7,1.4-4.1,2.1c-1,0.7-1.7,1.4-2.1,2.4
		c-0.3,0.7-0.3,1-0.3,1.7s0,1.4,0.3,1.7c0.3,0.7,0.3,1.4,0.7,2.1c0.3,0.7,1,1.4,1.4,2.1l-54.5-1.7c0.3,0.7,0.3,1,0.3,1.7
		c0,1-0.3,2.4-1,3.1l60.4,1.7c-0.7-0.7-1-1.4-1.4-2.1c-0.3-0.7-0.7-1.4-0.7-2.1c0-0.7-0.3-1.4-0.3-1.7c0-0.7,0-1,0.3-1.7
		c0.3-1,1.4-1.7,2.1-2.4c1.4-1,2.7-1.7,4.1-2.1c2.1-0.7,3.8-1.4,5.8-2.1c2.4-0.7,4.8-1,7.9-1.7c3.1-0.7,6.2-1,9.6-1.4
		s6.9-0.7,10.6-1s7.9-0.3,12-0.7s8.6-0.3,13.4-0.3s9.6,0,13.7,0.3s8.2,0.3,12,0.7s7.2,0.7,10.6,1s6.2,1,8.9,1.4
		c2.4,0.3,4.8,1,6.9,1.7c1,0.3,1.7,0.7,2.7,1C1041.3,1779.1,1041,1778.4,1040.6,1777.7z"/>
	<path class="st5" d="M1072.9,1804.8c5.5-1.4,10.3-2.7,14.7-4.1c3.8-1.4,7.2-2.7,10.6-4.8c2.4-1.4,4.8-3.1,6.9-5.1
		c1.4-1.4,2.4-3.4,3.1-5.5c0.3-2.1,0-4.1-1-5.8c-1.4-2.1-3.1-3.4-5.1-4.8c1,1.7,1.4,3.4,1,5.5s-1.7,4.1-3.1,5.5
		c-2.1,2.1-4.5,3.8-6.9,5.1c-3.4,1.7-6.9,3.4-10.6,4.8c-4.1,1.4-9.3,2.7-14.7,4.1s-11.3,2.4-17.8,3.4s-13,2.1-20.2,2.7
		s-14.4,1.4-22.3,2.1c-6.5,0.3-13.4,0.7-20.6,1l1,5.1c8.6-0.3,16.8-0.7,24.7-1s15.4-1,22.3-2.1s13.7-1.7,20.2-2.7
		C1061.6,1807.2,1067.4,1806.2,1072.9,1804.8z"/>
	<path class="st5" d="M887.3,2200.1c12-1,23.3-2.7,34.3-4.5s21.3-3.8,30.9-6.2s18.9-5.1,27.4-8.2c7.9-2.7,15.4-5.8,22.6-9.6
		c5.8-3.1,11.7-6.5,16.8-10.6c4.1-3.1,7.9-7.2,11-11.3c2.7-3.8,4.5-7.9,5.5-12.4c1-4.1,0.7-8.6-0.7-12.7c-1.7-4.5-4.1-8.2-7.5-11.3
		c-0.7-0.7-1.7-1.7-2.7-2.4c2.1,2.4,3.8,5.5,5.1,8.6c1.4,4.1,1.7,8.6,0.7,12.7c-1,4.5-2.7,8.6-5.5,12.4c-3.1,4.5-6.9,8.2-11,11.3
		c-5.1,4.1-11,7.5-16.8,10.6c-7.2,3.8-15.1,6.9-22.6,9.6c-8.6,3.1-17.8,5.8-27.4,8.2s-20.2,4.5-30.9,6.2s-22.3,3.4-34.3,4.5
		c-10.3,1-21.3,1.7-32.6,2.4v5.5C862.6,2201.8,875.3,2201.1,887.3,2200.1z"/>
	<path class="st5" d="M656.8,2121.1c-3.1-1.4-6.2-2.4-9.3-3.4c-3.8-1-7.5-1.7-11.3-2.4c-4.1-0.7-8.6-1-13.4-1.4
		c-4.8-0.3-9.9-0.3-15.8-0.3c-4.8,0-9.3,0-13.7,0.3s-8.6,0.7-12.7,1s-8.2,1-11.7,1.7s-7.2,1.4-11,2.4s-6.5,2.1-9.6,3.1
		c-2.7,1-5.1,2.1-7.5,3.4c-2.1,1-4.1,2.4-5.8,4.1c-1.7,1.4-3.1,3.1-4.1,4.8c-1,1.4-1.7,2.7-1.7,4.5c0,1.4,0.3,3.1,1,4.1
		c1,1.4,2.1,2.7,3.8,3.8c0.3,0.3,0.7,0.7,1.4,0.7c-0.7-1-1-2.4-0.7-3.8c0.3-1.7,0.7-3.1,1.7-4.5c1-1.7,2.4-3.1,4.1-4.5
		c1.7-1.4,3.8-2.7,5.8-4.1c2.4-1.4,5.1-2.4,7.5-3.4c2.7-1,6.2-2.1,9.6-3.1c3.4-1,7.2-1.7,11-2.4s7.5-1.4,11.7-1.7s8.2-0.7,12.7-1
		s8.9-0.3,13.7-0.3c5.5,0,11,0,15.8,0.3s9.3,0.7,13.4,1.4c3.8,0.7,7.5,1.4,11.3,2.4c3.1,1,6.2,2.1,9.3,3.4c1.4,0.7,2.7,1.4,3.8,2.1
		c-0.7-1-1.4-2.1-2.4-3.1C661.3,2123.9,659.2,2122.5,656.8,2121.1z"/>
	<path class="st5" d="M528.9,2192.2c-7.9-0.7-15.1-1.7-21.6-2.7s-13-2.1-18.5-3.1c-5.5-1-10.6-2.4-15.4-3.4c-4.1-1-8.6-2.4-12.7-4.1
		c-3.4-1.4-6.9-3.1-10.3-4.8c-2.4-1.4-4.8-3.1-6.9-4.8c1.4,1.4,2.4,3.1,4.1,4.1c2.4,2.1,5.1,4.1,7.9,5.5c3.4,1.7,6.9,3.4,10.3,4.8
		c4.1,1.7,8.2,3.1,12.7,4.1c4.5,1.4,9.6,2.4,15.4,3.4s11.7,2.1,18.5,3.1s14.1,1.7,21.6,2.7s16.1,1.7,25,2.1l39.8-36
		c-3.4,0-6.9-0.3-10.3-0.7l-34.6,31.2C544.7,2193.5,536.4,2192.9,528.9,2192.2z"/>
	<path class="st5" d="M935.3,2122.2c-2.1-1.7-4.5-3.1-6.9-4.5c-3.1-1.7-6.5-3.1-9.6-4.1c-4.1-1.4-8.6-2.4-13-3.1
		c-4.8-1-9.9-1.7-15.4-2.4s-11.3-1-17.8-1.4s-13-0.3-20.2-0.3s-13.4,0-19.6,0.3s-12,0.7-17.8,1.4s-11,1.4-16.1,2.1
		s-9.9,2.1-14.4,3.1c-4.1,1-8.2,2.4-12.3,3.8c-3.1,1-6.5,2.4-9.6,4.1c-2.4,1.4-4.5,2.7-6.5,4.5c-1.7,1.4-2.7,3.1-3.8,5.1
		c-0.7,1-1,2.4-1,3.4c-0.3,1.4-0.3,2.7-0.3,4.1s0.3,3.1,0.7,4.5c0.3,1.7,1,3.1,1.4,4.8l-82-3.8c-0.7,1.7-1.4,3.4-2.4,4.8l89.2,4.1
		c-0.7-1.4-1-3.1-1.4-4.8c-0.3-1.4-0.7-2.7-0.7-4.5c0-1.4,0-2.7,0.3-4.1s0.7-2.4,1-3.4c1-2.1,2.4-3.8,3.8-5.1
		c2.1-1.7,4.1-3.4,6.5-4.5c3.1-1.7,6.2-3.1,9.6-4.1c4.1-1.4,7.9-2.7,12.3-3.8s9.3-2.1,14.4-3.1s10.3-1.7,16.1-2.1s11.7-1,17.8-1.4
		s12.7-0.3,19.6-0.3s14.1,0,20.2,0.3s12.3,0.7,17.8,1.4s10.6,1.4,15.4,2.4c4.5,0.7,8.6,2.1,13,3.1c3.4,1,6.9,2.4,9.9,3.8
		c1.4,0.7,2.7,1.4,4.1,2.4C937.4,2123.9,936.4,2122.9,935.3,2122.2z"/>
	<polygon class="st5" points="1060.2,1669.9 1061.2,1667.5 1054.4,1667.5 1053.7,1669.9 	"/>
	<polygon class="st5" points="987.5,1713.9 1046.1,1713.9 1055,1686.8 1122.6,1686.8 1125,1675.1 1118.8,1675.1 1117.5,1681.6 
		1049.9,1681.6 1041,1708.7 982.3,1708.7 788.9,1680.9 785.8,1685 	"/>
	<polygon class="st5" points="990.9,1686.8 993,1681.6 878.1,1681.6 915.4,1686.8 	"/>
	<path class="st5" d="M1158.6,1503.5c-1,0.7-2.4,1.4-3.8,2.1c-2.1,0.7-4.1,1.4-6.2,1.7c-2.4,0.7-5.1,1-8.2,1.7s-6.5,1-10.3,1.4
		s-7.5,0.7-11.7,1s-8.6,0.3-13.4,0.7c-3.8,0-7.5,0.3-11.7,0.3l2.1,5.1c5.1,0,10.3-0.3,14.7-0.3s9.3-0.3,13.4-0.7s8.2-0.7,11.7-1
		s7.2-0.7,10.3-1.4s5.8-1,8.2-1.7c2.1-0.3,4.1-1,6.2-1.7c1.4-0.3,2.7-1,3.8-2.1c0.7-0.3,1.4-1.4,1.7-2.1c0.3-1-0.3-1.7-1.4-2.7
		c-1.4-0.7-2.7-1.4-4.1-1.7C1159.7,1502.8,1159.3,1503.2,1158.6,1503.5z"/>
	<path class="st5" d="M922.7,1508.7l-3.8,4.8l125.5,3.4l7.9-5.1c-2.7-0.3-5.1-0.7-7.2-1c-1-0.3-2.1-0.3-3.1-0.7l-2.7,1.7
		L922.7,1508.7z"/>
	<polygon class="st5" points="969.3,1503.9 973.4,1497.4 965.2,1497.4 960.7,1503.5 	"/>
	<path class="st5" d="M1122.6,1502.2c0.3,0,0.7-0.3,0.7-0.7s0-0.7-0.3-1c-0.7-0.3-1.4-0.7-2.1-0.7c-1-0.3-2.4-0.7-3.4-0.7
		c-1.4-0.3-3.1-0.3-4.8-0.7s-4.1-0.3-6.5-0.7s-5.1-0.3-7.9-0.3s-6.2-0.3-9.3-0.3s-6.9,0-11,0s-7.2,0-10.3,0s-6.2,0-8.9,0.3
		s-5.5,0.3-7.5,0.3s-4.5,0.3-6.5,0.7l-5.1,0.7c-1.4,0.3-2.7,0.3-3.8,0.7c-1,0.3-1.7,0.7-2.4,1c-0.3,0.3-1,0.7-1.4,1
		c-0.3,0.3,0,1,0.3,1.4c0.7,0.7,1.7,1,2.7,1.4s2.7,0.7,4.5,1l1.4-0.3c1-0.3,2.4-0.7,3.8-0.7l5.1-0.7c2.1-0.3,4.1-0.3,6.5-0.7
		s4.8-0.3,7.5-0.3s5.8-0.3,8.9-0.3s6.5,0,10.3,0s7.5,0,11,0s6.5,0,9.3,0.3s5.5,0.3,7.9,0.3s4.5,0.3,6.5,0.7h1.4l1.7-0.3
		C1121.2,1502.8,1121.9,1502.5,1122.6,1502.2z"/>
	<path class="st5" d="M1162.4,1411.6c3.8-0.3,7.2-0.7,9.9-1s5.1-0.7,7.2-1c1.4-0.3,3.1-0.7,4.5-1.4c1-0.3,1.7-1,1.7-1.4s0-1-0.7-1.4
		c-1-0.7-2.1-1-3.1-1.4s-2.4-0.7-4.1-0.7c-1,0.3-2.4,0.7-3.4,1c-2.1,0.3-4.5,0.7-7.2,1s-6.2,0.7-9.9,1h-1.4
		c-0.3,0.3-0.3,0.3-0.7,0.3c-0.7,0.3-1.4,0.3-2.1,0.3s-1.7,0.3-3.1,0.3s-2.7,0.3-4.5,0.3l-5.5,0.3l-6.5,0.3h-7.2h-15.8h-6.5
		l-5.5-0.3c-1.7,0-3.1-0.3-4.5-0.3h-0.7h-27.1l2.7,0.3c1.7,0.3,4.1,0.3,6.5,0.7h-14.7c-4.5,0-8.6,0-12-0.3l-8.9-0.3
		c-2.7,0-4.8-0.3-6.2-0.3s-3.1-0.3-4.1-0.3c-1,0-2.1-0.3-2.7-0.3h-0.3l-3.8-0.3c-4.8-0.3-9.3-0.7-12.7-1s-6.9-0.7-9.3-1
		c-0.7,0-1.4-0.3-2.1-0.3l-0.7,0.3c-0.7,0.3-1,0.7-1.7,1c-0.3,0.3-0.3,1,0,1.4c0,0,0,0,0.3,0c1,0.7,2.1,1,3.4,1.4
		c2.1,0.7,4.1,1,6.2,1.4c2.7,0.3,5.8,0.7,9.3,1l3.8,0.3h141.3L1162.4,1411.6z"/>
	<path class="st5" d="M1066.7,1404l-1.7,0.3h5.5L1066.7,1404z"/>
	<path class="st5" d="M1021.4,1402.7c1,0.3,2.1,0.3,2.7,0.3c1.4,0,2.7,0.3,4.1,0.3s3.8,0.3,6.2,0.3l8.9,0.3h3.1l-1.4-3.4l-10.6,0.3
		l-9.6,0.3l-5.5,0.3l0,0C1020.4,1402,1020.7,1402.3,1021.4,1402.7z"/>
	<path class="st5" d="M1138.4,1400.6c-4.1,0-8.6,0-13.4,0s-8.6,0-12.7,0s-7.9,0-11.7,0.3s-7.2,0.3-10.3,0.3c-2.7,0-5.1,0.3-7.5,0.7
		l0,0c0.3,0.3,0.7,0.3,1.4,0.3l2.4,0.3l3.4,0.3c1.4,0,2.7,0.3,4.5,0.3l5.5,0.3h6.5h15.8h7.2l6.5-0.3l5.5-0.3c1.7,0,3.1-0.3,4.5-0.3
		s2.4-0.3,3.1-0.3c0.7,0,1.4-0.3,2.1-0.3c0.3,0,0.7-0.3,0.7-0.3s0-0.3-0.3-0.3h-0.7C1146.6,1400.9,1142.5,1400.6,1138.4,1400.6z"/>
	<polygon class="st3" points="2212.3,2249.8 2238.7,2234.4 2247.3,2229.6 272.7,2229.6 281.6,2234.4 308,2249.8 	"/>
	<polygon class="st3" points="2086.8,2056.3 2419.8,2056.3 2419.8,2047 2419.8,2041.9 2074.1,2041.9 2085.7,2056.3 	"/>
	<polygon class="st3" points="2411.2,2134.9 2419.8,2129.7 2419.8,2129.7 2320.3,2129.7 2332.7,2142.4 2332.7,2142.4 2398.2,2142.4 
			"/>
	<polygon class="st3" points="2171.5,1979.8 2171.5,1979.8 2419.8,1979.8 2419.8,1975.7 2419.8,1970.5 2162.6,1970.5 	"/>
	<polygon class="st3" points="2344,1937.6 2350.5,1942.7 2354.6,1946.2 2419.8,1946.2 2419.8,1942.7 2419.8,1937.6 	"/>
	<polygon class="st3" points="1759.2,1916.6 2419.8,1916.6 2419.8,1911.2 2419.8,1906 1750.6,1906 1756.8,1916.6 	"/>
	<polygon class="st3" points="426.7,2047 430.8,2041.9 100.5,2041.9 100.5,2056.3 105.6,2056.3 419.1,2056.3 	"/>
	<polygon class="st3" points="172.2,2142.4 179.4,2134.9 184.5,2129.7 100.5,2129.7 100.5,2129.7 109.1,2134.9 122.1,2142.4 	"/>
	<polygon class="st3" points="333.4,1979.8 337.2,1975.7 342.3,1970.5 100.5,1970.5 100.5,1979.8 105.6,1979.8 	"/>
	<polygon class="st3" points="150.2,1946.2 154.3,1942.7 160.9,1937.6 100.5,1937.6 100.5,1946.2 105.6,1946.2 	"/>
	<polygon class="st3" points="100.5,1906 100.5,1916.6 105.6,1916.6 748.1,1916.6 751.2,1911.2 754.2,1906 	"/>
	<polygon class="st3" points="2315.9,1728.6 2305.6,1722.1 199.3,1722.1 189,1728.6 202.4,1728.6 2312.8,1728.6 	"/>
	<polygon class="st3" points="2052.1,1859.3 2419.8,1859.3 2419.8,1857.3 2419.8,1852.1 2045.3,1852.1 	"/>
	<polygon class="st3" points="2419.8,1886.5 2419.8,1884.1 2419.8,1878.9 2271.6,1878.9 2277.8,1884.1 2280.6,1886.5 	"/>
	<polygon class="st3" points="2419.8,1834 2419.8,1832.6 2419.8,1827.4 2207.8,1827.4 2214.4,1832.6 2216.1,1834 	"/>
	<polygon class="st3" points="1960.2,1766.4 1960.2,1766.4 2372.5,1766.4 2375.6,1766.4 2374.5,1766 2367,1760.9 1954.7,1760.9 	"/>
	<polygon class="st3" points="2151.9,1781.8 2158.1,1787 2159.1,1787.6 2405.8,1787.6 2408.8,1787.6 2399.6,1781.8 	"/>
	<polygon class="st3" points="2108.4,1746.5 2108.4,1746.5 2341.3,1746.5 2344,1746.5 2336.1,1741.3 2102.2,1741.3 	"/>
	<polygon class="st3" points="1882.3,1811 1883,1811 2419.8,1811 2419.8,1807.9 2419.8,1802.7 1875.5,1802.7 	"/>
	<polygon class="st3" points="100.5,1852.1 100.5,1859.3 105.6,1859.3 452.8,1859.3 454.5,1857.3 459.6,1852.1 	"/>
	<polygon class="st3" points="227.1,1884.1 233.2,1878.9 100.5,1878.9 100.5,1886.5 105.6,1886.5 224,1886.5 	"/>
	<polygon class="st3" points="100.5,1827.4 100.5,1834 105.6,1834 288.8,1834 290.5,1832.6 297,1827.4 	"/>
	<polygon class="st3" points="137.9,1760.9 129.3,1766.4 142.7,1766.4 544.7,1766.4 545,1766 550.2,1760.9 	"/>
	<polygon class="st3" points="100.5,1787.6 109.4,1787.6 345.7,1787.6 346.8,1787 352.9,1781.8 105.3,1781.8 100.5,1784.9 	"/>
	<polygon class="st3" points="168.8,1741.3 160.9,1746.5 173.9,1746.5 396.5,1746.5 396.5,1746.5 403,1741.3 	"/>
	<polygon class="st3" points="100.5,1802.7 100.5,1811 105.6,1811 622.5,1811 625.3,1807.9 629.4,1802.7 	"/>
	<polygon class="st3" points="1759.6,1662.1 2208.5,1662.1 2211.3,1662.1 2203,1656.9 1754.1,1656.9 1758.5,1662.1 	"/>
	<polygon class="st3" points="2259.6,1692.9 2252.8,1688.5 1883,1688.5 1887.1,1692.9 	"/>
	<polygon class="st3" points="2057.3,1705.3 2063.1,1709.7 2286.4,1709.7 2279.2,1705.3 	"/>
	<polygon class="st3" points="2017.1,1672.7 2022.3,1676.8 2234.3,1676.8 2227.7,1672.7 	"/>
	<polygon class="st3" points="1980.8,1643.2 1985.6,1647 2187.3,1647 2181.4,1643.2 	"/>
	<polygon class="st3" points="746.4,1662.1 750.8,1656.9 301.8,1656.9 293.6,1662.1 306.6,1662.1 	"/>
	<polygon class="st3" points="617.7,1692.9 621.8,1688.5 252.1,1688.5 245.2,1692.9 	"/>
	<polygon class="st3" points="441.8,1709.7 447.6,1705.3 225.7,1705.3 218.5,1709.7 	"/>
	<polygon class="st3" points="482.6,1676.8 487.7,1672.7 277.1,1672.7 270.6,1676.8 	"/>
	<polygon class="st3" points="519.3,1647 524.1,1643.2 323.4,1643.2 317.6,1647 	"/>
	<polygon class="st3" points="1824.4,1629.5 1827.8,1632.9 2165.7,1632.9 2162.2,1630.8 2159.8,1629.5 	"/>
	<polygon class="st3" points="1947.9,1616.4 1952,1619.9 2144.7,1619.9 2139.2,1616.4 	"/>
	<polygon class="st3" points="2125.5,1607.5 2118.7,1603 1574,1603 1576.7,1607.5 	"/>
	<polygon class="st3" points="677.1,1632.9 680.5,1629.5 345.1,1629.5 339.2,1632.9 	"/>
	<polygon class="st3" points="552.9,1619.9 557,1616.4 365.6,1616.4 360.1,1619.9 	"/>
	<polygon class="st3" points="928.5,1607.5 930.9,1603 386.2,1603 379.4,1607.5 	"/>
	<polygon class="st3" points="1993.1,1523.4 1988.7,1520.7 1988.3,1520.3 516.5,1520.3 511.7,1523.4 	"/>
	<polygon class="st3" points="1775.7,1580.4 1778.8,1583.5 2087.5,1583.5 2084.4,1581.4 2082.7,1580.4 	"/>
	<polygon class="st3" points="1917.7,1591.7 1921.4,1595.1 2105.6,1595.1 2102.2,1592.7 2100.8,1591.7 	"/>
	<polygon class="st3" points="1889.9,1569.4 1893.7,1572.2 2070,1572.2 2066.2,1569.8 2065.5,1569.4 	"/>
	<polygon class="st3" points="1734.9,1538.9 1737.3,1541.6 2021.6,1541.6 2019.2,1539.9 2017.8,1538.9 	"/>
	<polygon class="st3" points="1864.5,1548.8 1867.6,1551.2 2037,1551.2 2032.9,1548.8 	"/>
	<polygon class="st3" points="1840.8,1529.6 1843.9,1532 2006.9,1532 2004.1,1530.3 2003.1,1529.6 	"/>
	<polygon class="st3" points="1672.4,1558.4 1675.5,1562.2 2054.2,1562.2 2048,1558.4 	"/>
	<polygon class="st3" points="726.1,1583.5 729.2,1580.4 422.2,1580.4 417.4,1583.5 	"/>
	<polygon class="st3" points="583.4,1595.1 587.2,1591.7 404,1591.7 399.2,1595.1 	"/>
	<polygon class="st3" points="611.6,1572.2 615,1569.4 439.4,1569.4 434.9,1572.2 	"/>
	<polygon class="st3" points="767.6,1541.6 770,1538.9 487.1,1538.9 483.3,1541.6 	"/>
	<polygon class="st3" points="637.3,1551.2 640.4,1548.8 472,1548.8 467.5,1551.2 	"/>
	<polygon class="st3" points="660.9,1532 664,1529.6 501.8,1529.6 498,1532 	"/>
	<polygon class="st3" points="829.4,1562.2 832.4,1558.4 456.5,1558.4 451,1562.2 	"/>
	<polygon class="st3" points="1613.8,1487.4 1615.8,1490.2 1941,1490.2 1936.9,1487.4 	"/>
	<polygon class="st3" points="1699.9,1503.5 1701.9,1505.9 1965.7,1505.9 1962.3,1503.5 	"/>
	<polygon class="st3" points="1819.2,1512.1 1822,1514.2 1978.7,1514.2 1975.3,1512.1 	"/>
	<polygon class="st3" points="1799,1495.6 1801.4,1497.7 1952.7,1497.7 1949.6,1495.6 	"/>
	<polygon class="st3" points="1669.3,1473 1671.4,1475.1 1917,1475.1 1914.2,1473 	"/>
	<polygon class="st3" points="1780.1,1480.2 1782.5,1482.3 1928.7,1482.3 1927.6,1481.9 1925.6,1480.2 	"/>
	<polygon class="st3" points="1900.2,1466.1 1762.6,1466.1 1763,1466.5 1764.7,1467.9 1906,1467.9 1902.9,1466.1 	"/>
	<polygon class="st3" points="1888.9,1458.9 1752.7,1458.9 1490,1458.9 1491.3,1461.3 1895.7,1461.3 1893.3,1460 1892,1458.9 	"/>
	<polygon class="st3" points="889,1490.2 891.1,1487.4 568.3,1487.4 563.9,1490.2 	"/>
	<polygon class="st3" points="802.9,1505.9 805,1503.5 542.6,1503.5 539.2,1505.9 	"/>
	<polygon class="st3" points="682.9,1514.2 685.6,1512.1 529.6,1512.1 526.2,1514.2 	"/>
	<polygon class="st3" points="703.1,1497.7 705.9,1495.6 555.3,1495.6 552.2,1497.7 	"/>
	<polygon class="st3" points="833.5,1475.1 835.5,1473 591,1473 587.9,1475.1 	"/>
	<polygon class="st3" points="722.3,1482.3 724.7,1480.2 579.3,1480.2 576.2,1482.3 	"/>
	<polygon class="st3" points="740.2,1467.9 741.9,1466.5 742.2,1466.1 615,1466.1 602,1466.1 598.9,1467.9 	"/>
	<polygon class="st3" points="1013.5,1461.3 1014.9,1458.9 762.5,1458.9 626.3,1458.9 612.9,1458.9 609.2,1461.3 	"/>
	<polygon class="st3" points="1821,1413.6 1817.9,1411.9 1159.7,1411.9 1018.3,1411.9 687,1411.9 683.9,1413.6 	"/>
	<polygon class="st3" points="1869,1446.2 1736.9,1446.2 1642.9,1446.2 1644.7,1448 1874.8,1448 1872.1,1446.2 	"/>
	<polygon class="st3" points="1879.3,1452.8 1746.2,1452.8 1746.9,1453.1 1748.2,1454.5 1884.7,1454.5 1882,1452.8 	"/>
	<polygon class="st3" points="1859.4,1440.4 1730.7,1440.4 1732.1,1441.4 1732.8,1441.8 1864.9,1441.8 1864.2,1441.4 1862.5,1440.4 
			"/>
	<polygon class="st3" points="1832.3,1422.9 1708.1,1422.9 1619.6,1422.9 1621.3,1424.3 1837.4,1424.3 1835,1422.9 	"/>
	<polygon class="st3" points="1840.8,1428.4 1716.3,1428.4 1717.4,1429.4 1718.1,1430.1 1846.3,1430.1 1843.9,1428.4 	"/>
	<polygon class="st3" points="1704.3,1418.8 1825.8,1418.8 1828.8,1418.8 1826.4,1417.4 1823.7,1417.4 1702.6,1417.4 	"/>
	<polygon class="st3" points="1849.8,1433.9 1721.8,1433.9 1569.2,1433.9 1570.9,1436.3 1855.9,1436.3 1852.8,1434.2 1852.5,1433.9 
			"/>
	<polygon class="st3" points="860.2,1448 861.9,1446.2 777.9,1446.2 645.9,1446.2 632.8,1446.2 630.1,1448 	"/>
	<polygon class="st3" points="756.6,1454.5 758,1453.1 758.7,1452.8 635.9,1452.8 622.9,1452.8 620.1,1454.5 	"/>
	<polygon class="st3" points="772.1,1441.8 772.8,1441.4 774.1,1440.4 655.8,1440.4 642.4,1440.4 640,1441.8 	"/>
	<polygon class="st3" points="883.9,1424.3 885.3,1422.9 807.1,1422.9 682.9,1422.9 669.9,1422.9 667.5,1424.3 	"/>
	<polygon class="st3" points="786.8,1430.1 787.5,1429.4 788.5,1428.4 674,1428.4 660.9,1428.4 658.5,1430.1 	"/>
	<polygon class="st3" points="689.4,1418.8 800.5,1418.8 802.3,1417.4 691.5,1417.4 678.4,1417.4 676,1418.8 	"/>
	<polygon class="st3" points="934,1436.3 935.7,1433.9 793.3,1433.9 665.4,1433.9 652.4,1433.9 648.9,1436.3 	"/>
	<polygon class="st3" points="1672.4,1394.1 1786.7,1394.1 1789.7,1394.1 1787,1392.4 1534.6,1392.4 1535.9,1394.1 	"/>
	<polygon class="st3" points="1599,1402 1600.4,1403.3 1684.1,1403.3 1801.4,1403.3 1804.5,1403.3 1802.4,1402 	"/>
	<polygon class="st3" points="1689.9,1407.1 1689.9,1407.1 1691.3,1408.5 1809.3,1408.5 1812.4,1408.5 1810.3,1407.1 	"/>
	<polygon class="st3" points="1677.6,1397.2 1677.9,1397.5 1679.3,1398.5 1793.9,1398.5 1796.6,1398.5 1794.5,1397.2 	"/>
	<polygon class="st3" points="1781.8,1389.3 1780.1,1387.9 1666.3,1387.9 1667.6,1389.3 	"/>
	<polygon class="st3" points="728.5,1394.1 842.7,1394.1 969,1394.1 970.3,1392.4 717.9,1392.4 715.1,1394.1 	"/>
	<polygon class="st3" points="713.8,1403.3 831.1,1403.3 904.5,1403.3 905.8,1402 702.5,1402 700.4,1403.3 	"/>
	<polygon class="st3" points="705.9,1408.5 813.6,1408.5 815,1407.1 815.3,1407.1 694.6,1407.1 692.5,1408.5 	"/>
	<polygon class="st3" points="721.3,1398.5 825.6,1398.5 827,1397.5 827.3,1397.2 710,1397.2 708.3,1398.5 	"/>
	<polygon class="st3" points="723,1389.3 837.2,1389.3 838.6,1387.9 724.7,1387.9 	"/>
	<path class="st3" d="M828.3,2489.3c14.1-2.7,27.1-6.2,39.8-10.3c12-3.8,23.7-7.9,35.3-13c10.3-4.5,19.9-9.3,29.2-15.1
		c7.9-4.8,15.1-10.3,22-16.5c5.8-5.1,10.6-11.3,14.4-17.8c3.4-5.8,6.2-12.4,7.5-19.2c1.4-6.5,1.4-13,0-19.6
		c-1.7-6.5-4.5-12.4-8.6-17.5c-1-1-1.7-2.4-3.1-3.4c-4.1-4.5-8.6-8.6-13.7-12c-7.9-5.1-16.1-10-24.7-13.7c-9.9-4.5-19.9-7.9-30.2-11
		c-11.3-3.1-22.6-5.8-34-7.5c-12-2.1-24.7-3.4-38.1-4.5c-13.4-1-27.4-1.7-41.8-1.4c-10.3,0-19.9,0.3-29.5,0.7s-18.9,1.4-28.1,2.4
		s-18.2,2.4-26.8,4.1s-17.1,3.8-25.7,6.2c-8.2,2.4-16.1,4.5-23.3,7.2c-6.9,2.4-13.7,5.1-20.2,8.6c-5.8,2.7-11.7,6.2-17.1,9.6
		c-4.8,3.4-9.6,6.9-13.7,11l0,0l-0.7-0.7c-5.8-6.5-12.7-12-20.2-16.5c-8.6-5.1-17.8-8.9-27.4-12c-11-3.4-22.6-5.5-34-6.9
		c-13.7-1.7-27.4-2.4-40.8-2.4c-10.6,0-20.9,0.3-31.2,1c-4.8,0.3-9.3,0.7-14.1,1.4l8.2,4.8l165.3,95l25.4,1.4
		c-0.7-2.4-1-4.8-1.4-7.5c-0.3-2.4-0.3-4.5,0-6.9c0-2.1,0.3-4.1,1-6.2c0.3-2.1,1-3.8,2.1-5.5c1.4-2.7,3.1-5.5,5.5-7.9
		c2.7-2.7,5.5-5.1,8.9-7.2c3.8-2.4,7.9-4.5,12.3-6.5c4.5-2.1,9.6-3.8,15.8-5.8c5.8-1.7,11.7-3.4,18.2-4.8s13-2.4,20.2-3.4
		s14.4-1.7,22.3-2.1s15.8-0.7,24.4-0.7s17.1,0.3,25,0.7s15.1,1,22,2.1c6.2,0.7,12.7,2.1,18.9,3.4c5.1,1.4,10.6,3.1,15.8,4.8
		c4.1,1.7,8.2,3.8,12,6.2c3.1,1.7,5.8,4.1,7.9,6.9l0.7,1c1.4,2.1,2.7,4.1,3.1,6.5c0.7,2.7,0.3,5.5-0.3,8.2c-0.7,2.7-2.1,5.5-4.1,7.9
		c-2.1,2.7-4.5,5.1-7.2,7.2c-3.4,2.7-6.9,4.8-10.6,6.9c-4.5,2.4-9.3,4.5-14.1,6.2c-5.5,2.1-11.3,3.8-17.1,5.5
		c-6.2,1.7-12.7,3.1-19.9,4.1c-7.2,1.4-14.7,2.4-22.6,3.1c-7.9,1-16.5,1.4-25.4,2.1l-4.5,57l4.5,2.7h0.7c14.7-0.7,28.8-2.1,42.2-3.8
		C799.5,2494.5,814.3,2492.1,828.3,2489.3z"/>
	<path class="st3" d="M1103.4,1556.7c4.8-0.3,9.3-0.7,13.4-1.4s8.2-1,11.7-1.7s6.9-1.4,9.6-2.1c2.4-0.7,4.5-1.4,6.9-2.1
		c1.7-0.7,3.1-1.4,4.5-2.4c1-0.7,1.4-1.4,1.7-2.4l0,0c0.3-1-0.3-2.1-1-2.7c-1-1-2.4-1.7-4.1-2.4c-2.4-1-4.8-1.7-7.2-2.1
		c-2.7-0.7-6.2-1.4-9.9-2.1s-7.9-1-12-1.7s-8.6-0.7-13.4-1c-4.8-0.3-9.6-0.3-14.7-0.7c-5.1-0.3-10.6-0.3-16.1-0.3
		c-3.8,0-7.5,0-11.3,0s-7.2,0-10.6,0.3c-3.4,0.3-6.5,0.3-9.9,0.7s-6.2,0.3-8.9,0.7s-5.5,0.7-7.9,1c-2.4,0.3-4.8,0.7-6.5,1.4
		c-1.7,0.7-3.8,1-5.1,1.4s-2.7,1-3.8,1.7c-3.1-1-6.5-1.7-9.9-2.4s-7.5-1.4-12-1.7s-8.9-0.7-13.7-1c-4.8-0.3-10.3-0.3-15.8-0.3
		c-4.1,0-7.9,0-11.7,0s-7.5,0.3-11.3,0.3c-3.8,0-7.2,0.3-11,0.7c-3.8,0.3-7.2,0.7-10.6,1c-4.1,0.3-8.2,1-11.7,1.7s-6.2,1.4-8.9,2.1
		c-2.1,0.7-4.1,1.4-6.2,2.4c-1.4,0.7-2.4,1.4-3.4,2.7c-0.3,0.3-0.7,1-0.7,1.7s0,1,0.3,1.4c0.3,0.7,1,1,1.4,1.4
		c0.7,0.7,1.7,1,2.7,1.4l0.7,0.3c0.7,0.3,1.7,0.7,2.7,1s2.7,0.7,4.5,1s3.4,0.7,5.5,1s4.1,0.7,6.2,0.7s4.8,0.3,7.5,0.7
		s5.5,0.3,8.6,0.7s6.5,0.3,9.9,0.3l11.3,0.3l4.1-2.4l8.2-4.8c-2.7,0-5.5,0-8.2-0.3l-6.9-0.3c-2.1,0-4.1-0.3-5.8-0.3l-3.4-0.3
		l-1.4-0.3c-1,0-2.4-0.3-3.4-0.7c-0.7-0.3-1.7-0.3-2.4-0.7c-0.3,0-0.7-0.3-1-0.7c-0.3-0.3-0.3-0.7,0-1c0.3-0.3,0.7-0.7,1-1
		c0.7-0.3,1.4-0.7,2.1-0.7c0.7-0.3,1.7-0.3,3.1-0.7s2.4-0.3,3.8-0.7s3.1-0.3,4.5-0.3s3.4-0.3,5.1-0.3l5.8-0.3h6.2c2.7,0,5.1,0,7.2,0
		c2.4,0,4.5,0,6.5,0.3c2.1,0.3,3.8,0.3,5.5,0.3s3.4,0.3,4.8,0.7c1,0.3,2.4,0.7,3.4,1c0.7,0.3,1.7,0.7,2.4,1c0.3,0.3,0.7,0.7,1,1.4
		c0,0.7,0,1-0.3,1.4l41.2,0.7c-0.3-0.3-0.7-0.7-1.4-1c-0.3-0.3-0.7-0.7-0.7-1c-0.3-0.3-0.3-0.7-0.3-0.7c0-0.3,0-0.3,0-0.7
		c0.3-0.3,0.7-0.7,1-1c0.7-0.3,1.7-0.7,2.4-1c1.4-0.3,2.4-0.7,3.8-0.7c1.4-0.3,3.1-0.7,5.1-0.7s4.1-0.3,6.2-0.7
		c2.1-0.3,4.8-0.3,7.2-0.3l8.2-0.3c2.7,0,5.8,0,8.9,0c3.1,0,6.5,0,9.3,0c2.7,0,5.8,0,8.2,0.3c2.4,0.3,5.1,0.3,7.2,0.3
		c2.1,0,4.1,0.3,6.2,0.7c2.1,0.3,3.4,0.3,4.8,0.7c1,0.3,2.4,0.7,3.4,1c0.7,0.3,1.4,0.7,2.1,1c0.3,0.3,0.7,0.7,0.3,1
		c-0.3,0.3-0.3,0.7-1,1c-0.3,0.3-1,0.7-1.7,0.7l-0.7,0.3c-1,0.3-2.4,0.7-3.4,1c-1.4,0.3-2.7,0.7-4.5,0.7s-3.8,0.3-5.8,0.7
		c-2.1,0.3-4.5,0.3-6.9,0.7l-7.9,0.3c-2.7,0-5.8,0.3-8.9,0.3l3.4,7.5h2.7c4.8,0,9.3-0.3,13.7-0.3
		C1093.8,1557.4,1099,1557.1,1103.4,1556.7z"/>
	<path class="st3" d="M1127.8,1418.1c-3.8,0-8.2,0-12.3,0h-8.6l-7.9,0.3l-7.5,0.3l-3.4,0.3l-3.4,0.3c-2.1,0-4.1,0.3-6.2,0.7
		s-3.4,0.3-4.8,0.7s-2.7,0.3-3.8,0.7c-1,0.3-2.1,0.7-2.7,1c-2.4-0.3-4.8-1-7.5-1.4s-5.8-0.7-9.3-1s-6.9-0.3-10.6-0.7s-7.9,0-12,0
		c-3.1,0-6.2,0-8.9,0s-5.8,0-8.6,0.3s-5.5,0.3-8.2,0.3s-5.5,0.3-7.9,0.7c-3.1,0.3-6.2,0.7-8.6,1s-4.8,0.7-6.5,1
		c-1.4,0.3-3.1,0.7-4.5,1.4c-1,0.3-1.7,0.7-2.1,1.4c-0.3,0.3-0.3,0.7-0.3,1c0,0.3,0.3,0.7,0.3,0.7c0.3,0.3,0.7,0.7,1.4,0.7
		c0.7,0.3,1.4,0.7,2.1,0.7l2.7,0.7l0,0c1,0.3,2.4,0.3,3.4,0.7s2.7,0.3,4.1,0.7l4.8,0.3c1.7,0,3.8,0.3,5.8,0.3l6.9,0.3l7.5,0.3h0.7
		l8.2,0.3l8.6-4.1h-3.4h-3.1l-5.1-0.3l-4.5-0.3c-1.4,0-2.4-0.3-3.4-0.3s-1.7-0.3-2.7-0.3c-0.7,0-1.4-0.3-1.7-0.3s-0.7-0.3-1-0.3
		c0,0,0-0.3,0-0.7l0,0c0,0,0.3-0.3,0.7-0.3l0,0c0.3-0.3,1-0.3,1.4-0.3l2.1-0.3l2.7-0.3l3.4-0.3l3.8-0.3h4.5h4.8h5.5h4.8l4.1,0.3
		c1.4,0,2.4,0.3,3.8,0.3l2.1,0.3h0.7c0.7,0,1.4,0.3,1.7,0.7c0.3,0,0.7,0.3,0.7,0.7s0,0.7,0,0.7l20.6,0.3h1.4h9.3l-1-0.7l-0.7-0.3
		l-0.3-0.3v-0.3l0,0c0.3-0.3,0.3-0.3,0.7-0.7c0.7-0.3,1-0.3,1.7-0.7l2.7-0.3c1,0,2.4-0.3,3.8-0.3l4.8-0.3l5.5-0.3h6.2h14.1h6.2
		l5.5,0.3l4.8,0.3l2.1,0.3l1.7,0.3c1,0,2.1,0.3,2.7,0.3c0.7,0,1,0.3,1.4,0.7s0.3,0.3,0.3,0.7s-0.3,0.3-0.7,0.7s-1,0.3-1.7,0.7
		l-2.4,0.3c-1,0-2.1,0.3-3.4,0.3l-2.4,0.3h-1.4c-1.7,0-3.4,0.3-5.1,0.3l-5.8,0.3h-6.9l3.1,4.1l12.3-0.3c3.8,0,7.5-0.3,11-0.3
		l6.9-0.3l3.1-0.3c3.1-0.3,6.2-0.7,8.6-1c2.7-0.3,5.1-0.7,7.2-1c1.7-0.3,3.4-0.7,5.1-1.4c1-0.3,2.1-0.7,3.1-1.4l0,0
		c0.7-0.3,1-0.7,1.4-1.4c0-0.7,0-1-0.7-1.7c-1-0.7-2.1-1-3.1-1.4c-1.7-0.7-3.8-1-5.5-1.4c-2.1-0.3-4.8-0.7-7.5-1
		c-2.7-0.3-6.2-0.7-9.3-1l-4.1-0.3l-6.2-0.3C1135.3,1418.4,1131.5,1418.4,1127.8,1418.1z"/>
	<path class="st3" d="M1030,1806.2c7.2-0.7,13.7-1.7,20.2-2.7c6.2-1,12.3-2.4,17.8-3.4c5.5-1.4,10.3-2.7,14.7-4.1
		c3.8-1.4,7.2-2.7,10.6-4.8c2.4-1.4,4.8-3.1,6.9-5.1c1.4-1.4,2.4-3.4,3.1-5.5c0.3-1.7,0-3.8-1-5.5v-0.3c-1.4-2.1-3.4-4.1-5.5-5.1
		c-3.1-2.1-6.5-3.4-9.9-4.8c-4.8-1.7-9.6-3.1-14.4-4.1c-5.5-1.4-11.3-2.4-17.5-3.4c-6.2-1-12.7-1.7-19.6-2.4s-14.1-1-21.6-1.4
		c-7.5-0.3-15.4-0.3-23.7-0.3c-5.5,0-11,0-16.5,0.3c-5.5,0.3-10.6,0.3-15.4,0.7c-5.1,0.3-9.9,0.7-14.4,1.4c-4.5,0.7-9.3,1-13.4,1.7
		s-8.2,1.4-12,2.4c-3.8,1-7.2,1.7-10.3,2.7c-2.7,0.7-5.5,1.7-8.2,3.1c-2.1,1-4.1,2.1-6.2,3.4c-4.5-2.1-8.9-3.8-13.7-5.1
		c-5.5-1.7-11-2.7-16.8-3.8c-6.2-1-12.7-1.7-19.9-2.1s-14.7-0.7-23-0.7c-5.8,0-11.7,0-17.1,0.3c-5.5,0.3-11.3,0.7-16.8,1
		c-5.5,0.3-11,1-16.5,1.7s-10.6,1.7-16.1,2.4c-6.5,1-12.3,2.4-17.8,3.8c-4.8,1-9.3,2.7-14.1,4.5c-3.4,1.4-6.9,3.1-10.3,5.1
		c-2.4,1.4-4.8,3.4-6.5,5.8c-0.7,1-1.4,2.1-1.7,3.4c-0.3,1-0.3,2.4-0.3,3.4c0.3,1,0.7,2.4,1.4,3.1c1,1,2.1,2.1,3.1,3.1l1.4,0.7
		c1,0.7,2.4,1.4,3.4,2.1c2.1,1,4.1,1.7,6.2,2.4c2.4,0.7,4.8,1.4,7.5,2.1c2.7,0.7,5.8,1.4,8.9,1.7s6.9,1,10.6,1.7s8.2,1,12.7,1.4
		s9.6,0.7,14.7,1s11,0.7,16.8,1l15.1-11.3l6.5-4.8c-4.1,0-8.2-0.3-12-0.3s-7.2-0.3-10.3-0.7c-3.1-0.3-5.8-0.7-8.2-1
		s-4.8-0.7-6.5-1.4c-1.4-0.3-2.7-0.7-3.8-1l-1-0.3c-1-0.3-2.1-1-3.1-1.7c-0.7-0.3-1-1-1.4-1.7c0-0.7,0-1.4,0.7-2.1
		c0.7-0.7,1.4-1.4,2.1-2.1c1-0.7,2.1-1.4,3.4-1.7c1.4-0.7,3.1-1,4.8-1.7s3.8-1,5.8-1.4s4.5-0.7,6.9-1c2.4-0.3,5.1-0.7,7.9-0.7
		s5.5-0.3,8.6-0.3s6.2,0,9.3,0c3.8,0,7.2,0,10.6,0.3s6.5,0.3,9.3,0.7c2.7,0.3,5.5,0.7,7.9,1s4.5,1,6.5,1.4c1.7,0.3,3.4,1,4.8,2.1
		c1,0.7,2.1,1.4,3.1,2.4c0.3,0.7,0.7,1.4,0.7,2.1c0,0,0,0.3,0,0.7c0,1-0.3,2.4-1,3.1h5.8l54.5,1.7c-0.7-0.7-1-1.4-1.4-2.1
		c-0.3-0.7-0.7-1.4-0.7-2.1c0-0.7-0.3-1.4-0.3-1.7c0-0.7,0-1,0.3-1.7c0.3-1,1.4-1.7,2.1-2.4c1.4-1,2.7-1.7,4.1-2.1
		c2.1-0.7,3.8-1.4,5.8-2.1c2.4-0.7,4.8-1,7.9-1.7s6.2-1,9.6-1.4s6.9-0.7,10.6-1s7.9-0.3,12-0.7s8.6-0.3,13.4-0.3s9.6,0,13.7,0.3
		s8.2,0.3,12,0.7s7.2,0.7,10.6,1s6.2,1,8.9,1.4c2.4,0.3,4.8,1,6.9,1.7c1.7,0.3,3.4,1,4.8,2.1c1,0.7,2.1,1.4,2.7,2.4
		c0.3,0.7,0.7,1.4,0.3,2.1v0.3c-0.3,1-0.7,1.7-1.7,2.4c-1,1-2.1,1.7-3.4,2.1c-1.7,0.7-3.4,1.4-5.1,2.1c-2.1,0.7-4.5,1.4-6.9,1.7
		c-2.7,0.7-5.5,1-8.6,1.7s-6.5,0.7-10.3,1s-7.5,0.7-12,1s-8.6,0.3-13.4,0.7l3.1,16.8h4.1c7.2-0.3,14.1-0.7,20.6-1
		C1015.3,1807.9,1022.8,1806.9,1030,1806.2z"/>
	<path class="st3" d="M916.5,2190.5c11-1.7,21.3-3.8,30.9-6.2s18.9-5.1,27.4-8.2c7.9-2.7,15.4-5.8,22.6-9.6
		c5.8-3.1,11.7-6.5,16.8-10.6c4.1-3.1,7.9-7.2,11-11.3c2.7-3.8,4.5-7.9,5.5-12.4c1-4.1,0.7-8.6-0.7-12.7c-1-3.1-2.7-6.2-5.1-8.6
		c-0.7-1-1.7-1.7-2.4-2.7c-4.1-4.1-8.9-7.5-14.1-10c-6.5-3.4-13.4-6.5-20.6-8.9c-8.2-2.7-16.5-5.1-25-7.2
		c-8.9-2.1-18.2-3.8-28.1-5.1s-20.2-2.4-30.9-3.1s-22.3-1-34.3-1c-8.2,0-16.1,0.3-24,0.7s-15.4,1-22.6,1.7s-14.4,1.7-21.3,2.7
		s-13.7,2.4-20.2,3.8s-12.7,3.1-18.5,4.8s-10.6,3.8-15.4,5.5c-4.5,1.7-8.9,4.1-13,6.5c-3.8,2.1-7.2,4.5-10.3,7.2
		c-5.5-4.5-11.7-8.2-18.2-11c-7.5-3.4-15.1-5.8-23-7.9c-9.3-2.1-18.9-3.8-28.1-4.5c-10.3-1-21.3-1.7-33.6-1.7
		c-8.6,0-16.8,0.3-25.4,0.7c-8.2,0.3-16.8,1.4-25,2.4c-8.2,1-16.5,2.4-24.7,3.8c-8.2,1.4-16.5,3.4-24.7,5.1
		c-9.9,2.4-19.2,5.1-27.8,8.2c-7.9,2.7-15.4,5.8-22.6,9.6c-6.2,3.1-12.3,6.5-17.8,11c-4.8,3.4-8.9,7.9-12.7,12.4
		c-1.7,2.4-3.4,4.8-4.5,7.5c-1,2.4-1.7,4.8-2.1,7.2c-0.3,2.4,0,4.8,0.3,6.9c0.7,2.4,1.7,4.8,3.1,6.9c1.7,2.4,3.4,4.5,5.5,6.2l1,1
		c2.1,1.7,4.5,3.4,6.9,4.8c3.4,1.7,6.9,3.4,10.3,4.8c4.1,1.7,8.2,3.1,12.7,4.1c4.5,1.4,9.6,2.4,15.4,3.4c5.8,1,11.7,2.1,18.5,3.1
		c6.9,1,14.1,1.7,21.6,2.7c7.5,1,16.1,1.7,25,2.1l34.6-31.2l5.1-4.5c-6.2-0.3-12-0.7-17.5-1s-10.3-1-14.7-1.7s-8.6-1.4-12-2.4
		c-3.1-0.7-6.2-1.7-9.3-3.1c-1.7-0.7-3.4-1.7-5.1-2.7c-0.3-0.3-1-0.7-1.4-0.7c-1.4-1-2.7-2.4-3.8-3.8c-0.7-1.4-1-2.7-1-4.1
		c0.3-1.7,0.7-3.1,1.7-4.5c1-1.7,2.4-3.1,4.1-4.5c1.7-1.4,3.8-2.7,5.8-4.1c2.4-1.4,5.1-2.4,7.5-3.4c2.7-1,6.2-2.1,9.6-3.1
		c3.4-1,7.2-1.7,11-2.4s7.5-1.4,11.7-1.7s8.2-0.7,12.7-1s8.9-0.3,13.7-0.3c5.5,0,11,0,15.8,0.3s9.3,0.7,13.4,1.4
		c3.8,0.7,7.5,1.4,11.3,2.4c3.1,1,6.2,2.1,9.3,3.4c2.4,1,4.5,2.4,6.5,4.1c1,1,1.7,2.1,2.4,3.1c0.3,0.7,0.7,1.4,1,2.1
		c0.7,2.1,0.7,4.1,0.3,6.2c-0.7,2.4-1.7,4.8-3.1,6.9l7.5,0.3l82,3.8c-0.7-1.4-1-3.1-1.4-4.8c-0.3-1.4-0.7-2.7-0.7-4.5
		c0-1.4,0-2.7,0.3-4.1s0.7-2.4,1-3.4c1-2.1,2.4-3.8,3.8-5.1c2.1-1.7,4.1-3.4,6.5-4.5c3.1-1.7,6.2-3.1,9.6-4.1
		c4.1-1.4,7.9-2.7,12.3-3.8s9.3-2.1,14.4-3.1s10.3-1.7,16.1-2.1s11.7-1,17.8-1.4s12.7-0.3,19.6-0.3s14.1,0,20.2,0.3
		c6.5,0.3,12.3,0.7,17.8,1.4s10.6,1.4,15.4,2.4c4.5,0.7,8.6,1.7,13,3.1c3.4,1,6.9,2.4,9.9,3.8c2.4,1,4.8,2.7,6.9,4.5
		c1,1,2.1,2.1,2.7,3.1c1.4,2.1,1.4,4.5,0.7,6.9c-0.7,1.7-1.4,3.4-2.7,5.1c-1.7,1.7-3.4,3.4-5.5,4.8c-2.7,1.7-5.1,3.1-8.2,4.5
		c-3.4,1.4-7.2,2.7-11,4.1c-4.5,1.4-8.9,2.4-13.4,3.4c-4.8,1-9.9,2.1-15.8,2.7s-11.7,1.4-17.8,2.1s-13,1-20.2,1.4v37.7l5.1-0.3
		c11.3-0.7,22-1.4,32.6-2.4C894.2,2193.5,905.5,2192.2,916.5,2190.5z"/>
	<path class="st3" d="M1041,1708.7l8.6-27.1h67.6l1.4-6.5l1-5.1H1053l0.7-2.4l1.7-5.1h-54.9l-3.1,7.5H787.9l-7.5,10l8.2,1
		l193.1,27.4L1041,1708.7z M993,1681.6l-2.1,5.1l-4.1,10l-71.3-10l-37.4-5.1H993z"/>
	<path class="st3" d="M1113.4,1504.6c-1.7,0.3-3.4,0.3-5.1,0.7l-5.8,0.3c-2.1,0-4.5,0.3-6.9,0.3s-4.8,0-7.5,0.3l2.4,6.5h3.1
		c4.1,0,7.9-0.3,11.7-0.3c4.8-0.3,9.3-0.3,13.4-0.7s8.2-0.7,11.7-1s7.2-0.7,10.3-1.4s5.8-1,8.2-1.7c2.1-0.3,4.1-1,6.2-1.7
		c1.4-0.3,2.7-1,3.8-2.1c0.7-0.3,1-1,1.4-1.4c0-0.3,0.3-0.3,0.3-0.7c0.3-1-0.3-1.7-1.4-2.7c-1.7-1-3.4-1.7-5.5-2.4
		c-3.1-0.7-6.2-1.4-9.3-2.1c-3.8-0.7-8.2-1-13.4-1.7c-3.8-0.3-7.5-0.7-11.7-1s-8.2-0.3-12.3-0.7s-8.6-0.3-13-0.3s-9.3,0-14.1,0
		c-5.8,0-11.3,0-16.5,0s-10.3,0.3-15.1,0.3s-9.3,0.3-13.7,0.7s-8.6,0.7-12.3,1.4s-7.2,1-10.3,1.4s-5.5,1-7.9,1.7
		c-1.7,0.3-3.4,1-5.1,1.7c-1,0.3-1.7,1-2.4,2.1c0,0.3,0,0.7,0,1c0.3,0.3,0.3,0.7,0.7,1c0.7,0.3,1,0.7,1.7,1c1,0.3,1.7,0.7,2.7,1
		l-32.2-0.7l-8.2-0.3l4.1-6.5l3.4-5.1h-42.2l-12,16.5l8.9,0.3l116.6,3.1l2.7-2.1l5.1-3.4c-2.7-0.3-5.1-0.7-7.2-1h-0.7
		c-1.7-0.3-3.4-0.7-4.5-1c-1-0.3-1.7-0.7-2.7-1.4c-0.7-0.3-0.7-0.7-0.3-1.4c0.3-0.3,0.7-0.7,1.4-1c0.7-0.3,1.7-0.7,2.4-1
		c1-0.3,2.4-0.7,3.8-0.7l5.1-0.7c2.1-0.3,4.1-0.3,6.5-0.7s4.8-0.3,7.5-0.3s5.8-0.3,8.9-0.3s6.5,0,10.3,0s7.5,0,11,0s6.5,0,9.3,0.3
		s5.5,0.3,7.9,0.3s4.5,0.3,6.5,0.7s3.4,0.3,4.8,0.7c1,0.3,2.4,0.3,3.4,0.7c0.7,0.3,1.4,0.3,2.1,0.7c0.3,0.3,0.7,0.7,0.3,1
		c0,0.3-0.3,0.7-0.7,0.7c-0.7,0.3-1.4,0.7-2.1,0.7l-1.7,0.3l-1.4,0.3C1116.4,1503.9,1115.1,1504.2,1113.4,1504.6z"/>
	<path class="st3" d="M1009.4,1406.4c3.4,0.3,7.9,0.7,12.7,1l3.8,0.3c3.8,0,8.2,0.3,12.7,0.3c6.2,0.3,13,0.3,20.6,0.3h7.2h27.8h13
		c7.2,0,14.1-0.3,20.2-0.3s11.7-0.3,16.8-0.7c4.5-0.3,8.6-0.3,12-0.7h1.4c3.8-0.3,7.2-0.7,9.9-1s5.1-0.7,7.2-1c1-0.3,2.4-0.7,3.4-1
		l1-0.3c1-0.3,1.7-1,1.7-1.4s0-1-0.7-1.4c-1-0.7-2.1-1-3.1-1.4c-1.4-0.3-3.1-0.7-5.1-1c-2.1-0.3-4.5-0.7-7.2-1s-5.8-0.7-9.3-0.7
		s-6.9-0.3-10.3-0.7s-7.5-0.3-12-0.3s-8.6,0-13.4,0s-8.6,0-12.7,0s-7.9,0-11.7,0.3s-7.2,0.3-10.3,0.3s-6.5,0.3-9.3,0.7
		s-5.5,0.7-7.9,0.7s-4.1,0.7-5.8,1c-1.4,0.3-2.4,0.7-3.8,1c-0.7,0.3-1.4,0.7-1.7,1s0,0.7,0.3,1c0.7,0.3,1.7,0.7,2.4,1
		c1.4,0.3,3.1,0.7,4.5,0.7l2.7,0.3l3.8,0.3h-5.5c-3.4,0-6.5,0-9.3,0h-8.9h-3.1l-8.9-0.3c-2.7,0-4.8-0.3-6.2-0.3s-3.1-0.3-4.1-0.3
		c-1,0-2.1-0.3-2.7-0.3c-0.7,0-1-0.3-1.7-0.3l0,0c0,0-0.3-0.3,0-0.3c0-0.3,0.3-0.3,0.7-0.3s0.7-0.3,1.4-0.3l1.7-0.3l2.4-0.3l3.1-0.7
		h3.8h4.5h5.1l-1.7-3.4l-10.6,0.3l-9.6,0.3c-3.1,0-5.8,0.3-8.2,0.3c-2.4,0-4.8,0.3-6.9,0.7s-4.1,0.3-5.8,0.7s-3.1,0.7-4.5,0.7
		c-1,0.3-2.1,0.7-3.1,1c-0.7,0.3-1,0.7-1.7,1c-0.3,0.3-0.3,1,0,1.4c0,0,0,0,0.3,0c1,0.7,2.1,1,3.4,1.4c1,0.3,2.4,0.7,4.1,0.7
		c0.7,0,1.4,0.3,2.1,0.3C1002.6,1405.7,1005.7,1406.1,1009.4,1406.4z M1082.5,1401.6c0.3-0.3,0.3-0.3,0.7-0.3
		c0.7-0.3,1.4-0.3,1.7-0.3l2.7-0.3c1,0,2.4-0.3,3.8-0.3s3.1-0.3,5.1-0.3l6.2-0.3h7.2h8.6h8.2h6.9l5.5,0.3c1.7,0,3.1,0,4.5,0.3
		s2.4,0.3,3.4,0.3l2.4,0.3c0.3,0,1,0.3,1.4,0.3l0,0l0.3,0.3c0,0-0.3,0.3-0.7,0.3c-0.7,0.3-1.4,0.3-2.1,0.3s-1.7,0.3-3.1,0.3
		s-2.7,0.3-4.5,0.3l-5.5,0.3l-6.5,0.3h-7.2h-15.8h-6.5l-5.5-0.3c-1.7,0-3.1-0.3-4.5-0.3l-3.4-0.3l-2.4-0.3c-0.3,0-1-0.3-1.4-0.3l0,0
		C1082.5,1402,1082.5,1401.6,1082.5,1401.6z"/>
</g>
</svg>
