<svg id="Layer_1" data-name="Layer 1" xmlns="http://www.w3.org/2000/svg" xmlns:xlink="http://www.w3.org/1999/xlink" viewBox="0 0 735 852"><defs><style>.cls-1,.cls-3{fill:#1e7b42;}.cls-2{clip-path:url(#clip-path);}.cls-3{opacity:0.25;}.cls-4{fill:#e6b35a;}.cls-5{font-size:160px;letter-spacing:-0.03em;}.cls-13,.cls-5,.cls-7{fill:#fff;}.cls-5,.cls-7{font-family:MyriadPro-Regular, Myriad Pro;}.cls-6{fill:#065b2d;}.cls-7{font-size:25px;}.cls-8{letter-spacing:0.01em;}.cls-9{letter-spacing:-0.04em;}.cls-10{letter-spacing:-0.02em;}.cls-11{letter-spacing:-0.01em;}.cls-12{letter-spacing:0em;}</style><clipPath id="clip-path"><polygon class="cls-1" points="369.51 7.4 728.21 214.47 728.21 636.62 369.51 845.03 2.79 636.62 2.79 214.47 369.51 7.4"/></clipPath></defs><title> </title><polygon class="cls-1" points="369.51 7.4 728.21 214.47 728.21 636.62 369.51 845.03 2.79 636.62 2.79 214.47 369.51 7.4"/><g class="cls-2"><circle class="cls-1" cx="365.5" cy="437.45" r="442.13"/><ellipse class="cls-3" cx="366.89" cy="105.8" rx="315.24" ry="234.63"/></g><path class="cls-4" d="M367,633.9c.29-.29.6-.59.93-.89h-.26Z"/><text class="cls-5" transform="translate(199.41 594.87)">ggvis</text><path class="cls-6" d="M705.61,196.21,427.81,35.82,367.5,1,307.19,35.82,29.37,196.22.09,213.13V637.38l29.28,16.91,281.28,162.4,56.85,32.82,56.85-32.82L705.61,654.3l29.3-16.92V213.13Zm0,425.26L367.49,816.68,29.37,621.47V231L367.49,35.82h0L705.61,231Z"/><text class="cls-7" transform="matrix(0.86, -0.5, 0.5, 0.86, 369.28, 809.1)"><tspan class="cls-8">ww</tspan><tspan class="cls-9" x="37.4" y="0">w</tspan><tspan x="54.82" y="0">.rstudi</tspan><tspan class="cls-10" x="120.07" y="0">o</tspan><tspan x="133.2" y="0">.</tspan><tspan class="cls-11" x="138.37" y="0">c</tspan><tspan class="cls-12" x="149.42" y="0">om</tspan></text><path class="cls-6" d="M511.14,197q-140.24-.18-280.48,0c-21.82,0-32.6,11.26-32.61,33.33q0,103.92,0,207.84c0,24.08,10.36,34.45,34.76,34.49q68.72.12,137.45,0c46.93,0,93.87.12,140.8-.06,21-.08,31.85-10.94,31.86-31.56q.09-106.16,0-212.31C542.9,208.08,532,197,511.14,197Zm9,238.52c0,14-.32,14.31-14.56,14.32q-68.21,0-136.41,0c-44.72,0-89.45-.28-134.17.2-10.73.11-14.34-3.27-14.28-14.11q.57-101.19,0-202.38c-.06-11,3.87-14.1,14.41-14.07,90.19.3,180.39.16,270.59.19,13.85,0,14.43.62,14.43,14.57Q520.13,334.86,520.1,435.49Z"/><path class="cls-6" d="M497.4,250.37c0-5.88-2.29-7.9-7.91-7.77-9.29.23-18.63.49-27.89-.09-8.12-.51-11,2-10.82,10.56.55,26.77.2,53.57.2,80.35,0,27.9.26,55.81-.17,83.7-.12,7.89,2.4,10.49,10.15,10,9.26-.58,18.6-.39,27.89-.05,6.1.22,8.59-1.72,8.57-8.19Q497.15,334.64,497.4,250.37Z"/><path class="cls-6" d="M359.08,347.36c0-24.18-.21-48.37.14-72.55.1-6.72-1.77-9.32-8.74-9-9.65.51-19.35.39-29,0-6.13-.22-8.59,1.79-8.56,8.21q.28,72.55,0,145.11c0,5.66,2,8.05,7.82,7.87,9.66-.3,19.37-.46,29,.05,7.27.38,9.61-2,9.47-9.45C358.8,394.25,359.08,370.8,359.08,347.36Z"/><path class="cls-6" d="M428.24,369.63c0-16.4-.28-32.81.13-49.2.17-6.85-2.11-9.26-8.95-8.94-9.67.46-19.39.37-29.07,0-6.16-.22-8.59,1.83-8.55,8.26q.34,49.76,0,99.52c0,5.85,2.16,7.94,7.88,7.77,9.68-.28,19.4-.45,29.07.06,7.22.38,9.84-1.95,9.61-9.42C427.89,401.69,428.24,385.65,428.24,369.63Z"/><path class="cls-6" d="M282.63,357.85c-10.38.39-20.8.29-31.19,0-5.19-.12-7.31,1.74-7.26,7q.26,27.29,0,54.59c-.07,5.94,2.58,7.69,8.11,7.55,10-.26,20.06-.31,30.08,0,5.87.19,7.85-2.14,7.66-7.82-.31-8.9-.08-17.82-.08-26.74s-.22-17.83.08-26.74C290.2,360.31,288.77,357.61,282.63,357.85Z"/><path class="cls-13" d="M506.14,188q-140.24-.18-280.48,0c-21.82,0-32.6,11.26-32.61,33.33q0,103.92,0,207.84c0,24.08,10.36,34.45,34.76,34.49q68.72.12,137.45,0c46.93,0,93.87.12,140.8-.06,21-.08,31.85-10.94,31.86-31.56q.09-106.16,0-212.31C537.9,199.08,527,188,506.14,188Zm9,238.52c0,14-.32,14.31-14.56,14.32q-68.21,0-136.41,0c-44.72,0-89.45-.28-134.17.2-10.73.11-14.34-3.27-14.28-14.11q.57-101.19,0-202.38c-.06-11,3.87-14.1,14.41-14.07,90.19.3,180.39.16,270.59.19,13.85,0,14.43.62,14.43,14.57Q515.13,325.86,515.1,426.49Z"/><path class="cls-13" d="M492.4,241.37c0-5.88-2.29-7.9-7.91-7.77-9.29.23-18.63.49-27.89-.09-8.12-.51-11,2-10.82,10.56.55,26.77.2,53.57.2,80.35,0,27.9.26,55.81-.17,83.7-.12,7.89,2.4,10.49,10.15,10,9.26-.58,18.6-.39,27.89-.05,6.1.22,8.59-1.72,8.57-8.19Q492.15,325.64,492.4,241.37Z"/><path class="cls-13" d="M354.08,338.36c0-24.18-.21-48.37.14-72.55.1-6.72-1.77-9.32-8.74-9-9.65.51-19.35.39-29,0-6.13-.22-8.59,1.79-8.56,8.21q.28,72.55,0,145.11c0,5.66,2,8.05,7.82,7.87,9.66-.3,19.37-.46,29,.05,7.27.38,9.61-2,9.47-9.45C353.8,385.25,354.08,361.8,354.08,338.36Z"/><path class="cls-13" d="M423.24,360.63c0-16.4-.28-32.81.13-49.2.17-6.85-2.11-9.26-8.95-8.94-9.67.46-19.39.37-29.07,0-6.16-.22-8.59,1.83-8.55,8.26q.34,49.76,0,99.52c0,5.85,2.16,7.94,7.88,7.77,9.68-.28,19.4-.45,29.07.06,7.22.38,9.84-1.95,9.61-9.42C422.89,392.69,423.24,376.65,423.24,360.63Z"/><path class="cls-13" d="M277.63,348.85c-10.38.39-20.8.29-31.19,0-5.19-.12-7.31,1.74-7.26,7q.26,27.29,0,54.59c-.07,5.94,2.58,7.69,8.11,7.55,10-.26,20.06-.31,30.08,0,5.87.19,7.85-2.14,7.66-7.82-.31-8.9-.08-17.82-.08-26.74s-.22-17.83.08-26.74C285.2,351.31,283.77,348.61,277.63,348.85Z"/></svg>