<svg id="Layer_1" data-name="Layer 1" xmlns="http://www.w3.org/2000/svg" xmlns:xlink="http://www.w3.org/1999/xlink" viewBox="0 0 735 852"><defs><style>.cls-1{fill:none;}.cls-2{clip-path:url(#clip-path);}.cls-3{fill:#ed7d15;}.cls-4{opacity:0.25;fill:url(#linear-gradient);}.cls-5{fill:#ac5d12;}.cls-6{font-size:160px;letter-spacing:-0.03em;}.cls-15,.cls-16,.cls-6,.cls-9{fill:#fff;}.cls-6,.cls-9{font-family:MyriadPro-Regular, Myriad Pro;}.cls-7{letter-spacing:-0.03em;}.cls-8{letter-spacing:-0.02em;}.cls-9{font-size:25px;letter-spacing:0.03em;}.cls-10{letter-spacing:-0.02em;}.cls-11{letter-spacing:0.02em;}.cls-12{letter-spacing:0em;}.cls-13{letter-spacing:0.01em;}.cls-14{letter-spacing:0.02em;}.cls-15{stroke:#ac5d12;stroke-miterlimit:10;stroke-width:2px;}</style><clipPath id="clip-path"><polygon class="cls-1" points="369.51 7.4 728.21 214.47 728.21 636.62 369.51 845.03 2.79 636.62 2.79 214.47 369.51 7.4"/></clipPath><linearGradient id="linear-gradient" x1="366.25" y1="-122.39" x2="367.55" y2="341.13" gradientUnits="userSpaceOnUse"><stop offset="0" stop-color="#fff" stop-opacity="0.83"/><stop offset="0.56" stop-color="#fff" stop-opacity="0.37"/><stop offset="1" stop-color="#fff" stop-opacity="0"/></linearGradient></defs><title> </title><g class="cls-2"><circle class="cls-3" cx="365.5" cy="437.45" r="442.13"/><ellipse class="cls-4" cx="366.89" cy="105.8" rx="315.24" ry="234.63"/></g><path class="cls-5" d="M705.61,196.21,427.81,35.82,367.5,1,307.19,35.82,29.37,196.22.09,213.13V637.38l29.28,16.91,281.28,162.4,56.85,32.82,56.85-32.82L705.61,654.3l29.3-16.92V213.13Zm0,425.26L367.49,816.68,29.37,621.47V231L367.49,35.82h0L705.61,231Z"/><text class="cls-6" transform="translate(76.16 619.89)">h<tspan class="cls-7" x="83.68" y="0">e</tspan><tspan class="cls-8" x="158.24" y="0">x</tspan><tspan x="229.28" y="0">tapus</tspan></text><text class="cls-9" transform="matrix(0.86, -0.5, 0.5, 0.86, 369.28, 809.1)">ww<tspan class="cls-10" x="38.4" y="0">w</tspan><tspan class="cls-11" x="56.32" y="0">.rstudi</tspan><tspan class="cls-12" x="125.07" y="0">o</tspan><tspan class="cls-11" x="138.7" y="0">.</tspan><tspan class="cls-13" x="144.37" y="0">c</tspan><tspan class="cls-14" x="155.92" y="0">om</tspan></text><path class="cls-15" d="M544.59,347c-16.16.3-34,19.13-23.14,35.29,6.55,9.78,12-.07,12.6-6.18,1.09-11.85,15.91-7.26,18.05,1.78,4.48,18.91-17.73,30.35-32.72,34.12-25.74,6.49-61.72-5.05-70-24.12C445.65,378.43,435.7,354,438.81,330c5.16-39.89,27.1-50.31,28.88-98.57,2.33-62.86-42.49-114.9-109.15-114.9-57.23,0-101.29,49.73-100.67,113.6.58,59,42.63,113.08,31.1,145.83-.85,1.91-2,3-.85,1.91-7,40.9-74.87,79.51-104.78,38.17-4.42-6.11-6-18.05,3.24-20.7,13.73-3.92,6.81,16.29,18,13.74,9.06-2.06,8.2-14.83,5.7-21.34-3.78-9.86-13.81-14-23.78-14-44,.13-36.65,66.33-8.34,83.1C219,481,269.55,455.57,296.86,423.41c-11.21,25.43-24.83,66.54-57.23,71.81-8,1.3-19-.82-17.82-11.25,2.12-18-19.59-18.6-25.91-3.94-12.41,28.84,24.82,45.46,47.78,42.83,31.75-3.64,55.81-29.38,89.49-102.56-19.39,55.51-38.36,141.81,18.21,137.55,19-1.43,34.43-27.24,20-41.85-13.06-13.26-28.92.81-18.66,13.3,8.47,9.44-7.65,11.52-11.62,3.5s-3-19.64-1.3-27.55c5.3-25.11,14.93-49.43,23.59-73.51,1.3,32.56,7.5,71.7,27.18,98.69,16.06,22,60.37,32.25,73.2.09,4.75-11.9-2.25-34.15-18.66-27.75-8.35,3.27.7,26.78-19.18,19.58-15.83-5.72-17.08-26.62-19.88-40.51-4-20.09-7.74-40.71-6.08-61.28,17.32,29.54,40.2,59.06,70.52,76,26.84,15,70.08,17.64,80.86-19,4.09-13.91-3.86-28.33-18.52-26.68-15.42,1.74-3.66,20.37-18.53,27.41-27,12.75-60.07-39.28-72-55.35C480,451.15,529.05,459.16,562,429.24,585.63,407.79,587.24,346.27,544.59,347Z"/><path class="cls-16" d="M377.05,252.22c-3.13,11.54,2.26,23,12,25.69s20.23-4.56,23.36-16.1-2.26-23-12-25.69S380.18,240.67,377.05,252.22Z"/><path class="cls-3" d="M327.36,251.41a12.16,12.16,0,0,0-4.26,1.86,5.55,5.55,0,0,1,2.39,3.45,5.67,5.67,0,0,1-4.29,6.78,5.51,5.51,0,0,1-3.6-.43,11.65,11.65,0,0,0,.24,3.45,12.64,12.64,0,1,0,9.53-15.12Z"/><path class="cls-3" d="M386.13,251.41a12.19,12.19,0,0,0-4.26,1.86,5.51,5.51,0,0,1,2.39,3.45A5.68,5.68,0,0,1,380,263.5a5.53,5.53,0,0,1-3.61-.43,11.78,11.78,0,0,0,.24,3.45,12.64,12.64,0,1,0,9.53-15.12Z"/><path class="cls-5" d="M292,220.92a31.14,31.14,0,0,1,7.05-22c3.92-4.83,10.5-8.65,17.19-8.33,6.74.13,10.91,4.16,10.74,6.72-3.72,0-16.1-3.56-23,4C296.62,207.93,294.44,216.1,292,220.92Z"/><path class="cls-5" d="M424,220.92a31.15,31.15,0,0,0-7-22c-3.92-4.83-10.5-8.65-17.19-8.33-6.74.13-10.91,4.16-10.74,6.72,3.72,0,16.1-3.56,23,4C419.38,207.93,421.56,216.1,424,220.92Z"/><path class="cls-3" d="M339,245.43c-2-5.77-12.19-16.46-23.68-15.19-9,1-15.69,12.3-10.1,28.74,0-14,9.31-23.52,15.12-23.58C325.89,234.82,334.67,241,339,245.43Z"/><path class="cls-3" d="M327.74,278.28c-8.91.78-18.32-6.23-20.48-15.71C304.93,252.3,309.47,239.19,319,237c9.72-2.2,20.89,8.08,23.18,18.2,1.72,7.57-.75,16.15-7.09,20.44a11.51,11.51,0,0,1,3.55.62c5.5-5.23,7.33-13.82,5.56-21.69-2.63-11.58-14.65-22.81-25.81-20.28-11.44,2.6-16.48,17.29-13.86,28.87,2.31,10.16,11.53,17.59,21.09,17.91A8.79,8.79,0,0,1,327.74,278.28Z"/><path class="cls-3" d="M322.21,283.08c-.15.11,3.74-5.35,11.85-8,3.93-1.31,6.57-1,9.76.89,1.39,1-2.06.45-7.91,1.59C330.63,278.54,325.33,281.6,322.21,283.08Z"/><path class="cls-3" d="M380.08,245.43c2-5.77,12.19-16.46,23.69-15.19,9,1,15.68,12.3,10.09,28.74,0-14-9.31-23.52-15.12-23.58C393.23,234.82,384.45,241,380.08,245.43Z"/><path class="cls-3" d="M391.38,278.28c8.92.78,18.33-6.23,20.48-15.71,2.33-10.27-2.21-23.38-11.76-25.55-9.72-2.2-20.89,8.08-23.18,18.2-1.71,7.57.75,16.15,7.1,20.44a11.42,11.42,0,0,0-3.55.62c-5.51-5.23-7.33-13.82-5.56-21.69,2.64-11.58,14.65-22.81,25.81-20.28,11.44,2.6,16.48,17.29,13.86,28.87-2.31,10.16-11.53,17.59-21.09,17.91A8.87,8.87,0,0,0,391.38,278.28Z"/><path class="cls-3" d="M396.9,283.08c.15.11-3.74-5.35-11.85-8-3.92-1.31-6.56-1-9.76.89-1.39,1,2.06.45,7.92,1.59C388.49,278.54,393.79,281.6,396.9,283.08Z"/><circle class="cls-5" cx="330.18" cy="264.71" r="5.16"/><path class="cls-5" d="M394.1,264.71a5.15,5.15,0,1,1-5.15-5.16A5.16,5.16,0,0,1,394.1,264.71Z"/><path class="cls-3" d="M392.43,301.06a15.55,15.55,0,0,0-5.07-7.43,3.78,3.78,0,0,0-4.92,0c-.69.64,1,.54,3.69,2C388.59,296.86,391,299.66,392.43,301.06Z"/><path class="cls-3" d="M324.74,301.06a15.58,15.58,0,0,1,5.08-7.43,3.78,3.78,0,0,1,4.92,0c.68.64-1,.54-3.69,2C328.58,296.86,326.16,299.66,324.74,301.06Z"/><path class="cls-5" d="M348.9,310.43c2.85,9.5,15.78,12.93,21.6,0Z"/><path class="cls-3" d="M348.9,322.49c4.08,7.41,15.94,8,19.29.22C362.95,325.48,356.87,328.09,348.9,322.49Z"/><path class="cls-5" d="M387,295.46c-5.48,8.26-19.27,13.86-28.24,13.86-9.56,0-21.46-5.6-27.63-14.37-2.35-1-2.17.44-3.09.9a35.86,35.86,0,0,0,30.71,17A37.24,37.24,0,0,0,389,297C388.65,296.51,388.46,295.38,387,295.46Z"/><path class="cls-5" d="M380.5,345.56c-3.86-.94-11.88,5.27-15.5,10.45a4.07,4.07,0,0,0-6.59,0c-3.85-5-12-10.82-15.82-9.74-3.54,1-4.51,6.47-4.9,9a37.69,37.69,0,0,0-.34,11.34c.46,2.83,1.55,6.66,4.57,7.91,3.43,1.42,12.31-6.88,16.54-11.35a4.08,4.08,0,0,0,6.77-.21c4.36,4.28,13.66,12.34,17,10.78,3-1.38,3.92-5.24,4.27-8.09a37.92,37.92,0,0,0-.78-11.31C385.25,351.85,384.07,346.42,380.5,345.56Z"/></svg>