<svg id="Layer_1" data-name="Layer 1" xmlns="http://www.w3.org/2000/svg" xmlns:xlink="http://www.w3.org/1999/xlink" viewBox="0 0 735 852"><defs><style>.cls-1,.cls-3{fill:#de5a27;}.cls-2{clip-path:url(#clip-path);}.cls-3{opacity:0.25;}.cls-4{fill:#e6b35a;}.cls-5{font-size:160px;letter-spacing:-0.03em;}.cls-10,.cls-5{fill:#fff;font-family:MyriadPro-Regular, Myriad Pro;}.cls-6{letter-spacing:-0.02em;}.cls-7{letter-spacing:-0.04em;}.cls-8{letter-spacing:-0.04em;}.cls-9{fill:#b1471b;}.cls-10{font-size:25px;}.cls-11{letter-spacing:0.01em;}.cls-12{letter-spacing:-0.04em;}.cls-13{letter-spacing:-0.02em;}.cls-14{letter-spacing:-0.01em;}.cls-15{letter-spacing:0em;}.cls-16{fill:#fefefe;}</style><clipPath id="clip-path"><polygon class="cls-1" points="369.51 7.04 728.21 214.1 728.21 636.26 369.51 844.67 2.79 636.26 2.79 214.1 369.51 7.04"/></clipPath></defs><title> </title><polygon class="cls-1" points="369.51 7.04 728.21 214.1 728.21 636.26 369.51 844.67 2.79 636.26 2.79 214.1 369.51 7.04"/><g class="cls-2"><circle class="cls-1" cx="365.5" cy="437.09" r="442.13"/><ellipse class="cls-3" cx="366.89" cy="105.44" rx="315.24" ry="234.63"/></g><path class="cls-4" d="M367,633.54c.29-.29.6-.59.93-.89h-.26Z"/><text class="cls-5" transform="translate(133.57 594.51)">pac<tspan class="cls-6" x="224.48" y="0">k</tspan><tspan class="cls-7" x="297.11" y="0">r</tspan><tspan class="cls-8" x="343.52" y="0">a</tspan><tspan x="414.88" y="0">t</tspan></text><path class="cls-9" d="M705.61,195.85,427.81,35.46,367.5.64,307.19,35.46,29.37,195.86.09,212.77V637l29.28,16.91,281.28,162.4,56.85,32.82,56.85-32.82L705.61,653.94,734.91,637V212.77Zm0,425.26L367.49,816.32,29.37,621.11V230.68L367.49,35.46h0L705.61,230.68Z"/><text class="cls-10" transform="matrix(0.86, -0.5, 0.5, 0.86, 369.28, 808.74)"><tspan class="cls-11">ww</tspan><tspan class="cls-12" x="37.4" y="0">w</tspan><tspan x="54.82" y="0">.rstudi</tspan><tspan class="cls-13" x="120.07" y="0">o</tspan><tspan x="133.2" y="0">.</tspan><tspan class="cls-14" x="138.37" y="0">c</tspan><tspan class="cls-15" x="149.42" y="0">om</tspan></text><path class="cls-9" d="M371.93,377.35c-5.85-8.08-1.78-17.54,8.12-19.4,24.33-4.58,22.54,1.81,22.54-26.12,0-16.92,0-16.91-17.22-19.26-6.38-.87-12.15-1.35-15.32-9.25s1.56-11.44,5.12-16.08c9.48-12.38,9.55-12.33-.57-24-16-18.52-16-18.52-35.81-4.38-7.9,5.65-17.06,2.24-18.88-7.12a105.92,105.92,0,0,1-1.84-12.2c-.59-7.81-3.89-12.18-12.4-11.15a69.08,69.08,0,0,1-8.23,0c-21.62,0-22.25-.05-24,21.33-.69,8.27-5.36,10.22-11.24,12.17s-8.48-3.47-12-6.13c-13.91-10.52-14.62-10.62-27,2-1.2,1.23-2.42,2.44-3.61,3.67-12.24,12.69-12.35,12.78-1.28,26.53,4.51,5.6,7.77,10.44,3.35,18.16-3.68,6.44-9.53,4.75-14.39,5.73-16.69,3.37-16.76,3.06-16.76,19.75,0,21.38,0,21.38,20.86,25.41,12.79,2.47,16.17,12.22,8.09,22.8-3.28,4.3-7.61,8-9.29,14.21a74.32,74.32,0,0,0,23.68,26c6.51,4.44,10.16-3.2,14.89-5.82,2.38-1.32,4.36-3.33,6.64-4.85a11.47,11.47,0,0,1,17.66,7.48c.88,4.72,1.63,9.47,2.13,14.24.69,6.5,3.57,10.13,10.63,9.47,3.06-.29,6.17,0,9.26,0,24.46-.13,21.18,2.69,24.55-21.81,1.21-8.81,6.3-10.84,12.55-11.94,4.68-.82,7.58,4.09,11,6.71,13.43,10.25,14.33,10.28,26.08-1.85C385,395.38,385,395.38,371.93,377.35Zm-75.21-.65c-24.15.12-42.81-18.88-42.5-43.28.29-22.86,19.49-41.43,42.61-41.19a42.23,42.23,0,0,1-.11,84.47Z"/><path class="cls-9" d="M396.75,265.35c1,.13,2.06.13,3.07.29,9,1.42,11.85,6.54,8.48,15.22-1.86,4.78-3.61,9.6-4.89,13-.62,3.27,0,4.62,1.28,6,10.36,11.19,20.45,11,29.59-.62.85-1.08,1.66-2.18,2.57-3.2,5.48-6.16,10.93-6,16.22.21,3.1,3.66,6,7.47,9.13,11.1,1.88,2.19,3.78,3,7.11,1.74,17.78-6.75,19.47-10.17,12.46-27.56-.26-.63-.54-1.26-.78-1.9-2.64-7.23.45-12.56,8.15-13.93,4.38-.78,8.78-1.42,13.17-2.09,2.89-.44,4.95-1.49,5.85-4.75,4.24-15.35-.41-22.61-16.13-24.73-1-.14-2.05-.21-3.05-.42-7.72-1.63-10.64-6.82-7.91-14.09,1.08-2.88,2.14-5.79,3.48-8.56C488,204,486.94,198.8,479,195.83a31.37,31.37,0,0,1-7.16-4c-4.53-3.25-8-2.41-11.14,2a96.37,96.37,0,0,1-8.42,10.35c-4.83,5.09-10.06,5.12-14.83-.09-3.24-3.52-6-7.51-9.12-11.12-1.52-1.74-3.44-4.48-5.88-3.24C416,193,409.08,196,404.1,200.83c-3.59,3.51.85,9,2.43,13.27,5.73,15.63,4.33,17.94-12.1,20.46-4.41.68-10.15-.35-12.51,5.07C376.24,252.67,382.65,263.58,396.75,265.35ZM445,228.64c11.15.12,21.11,10,21.17,21.07.06,11.56-10.32,21.49-22,21-11.5-.43-20.89-10.18-20.62-21.39S433.89,228.52,445,228.64Z"/><path class="cls-9" d="M493,403.6c-1.7-.23-3.51,0-5.11-.54-6.41-2-9.61-6-7.13-13,1.72-4.84,3.51-9.66,5.3-14.47.87-2.36,1.15-4.32-.93-6.52-10.48-11.1-20.27-10.92-29.73.78-.65.8-1.26,1.63-1.93,2.41-5.5,6.39-11.58,6.5-17,.21-2.67-3.13-5.08-6.49-7.78-9.59-1.54-1.77-3.47-4.58-5.82-3.46-6.46,3.07-13.4,6-18.55,10.69-4,3.62.58,9,2.12,13.22,5.72,15.87,4.67,17.62-11.69,20.67-4.42.82-10.16-.34-12.77,5-5.67,11.58.93,23.86,13.54,25.57,15,2,16.67,5.09,11.33,19.48-1.72,4.63-6.43,10.37-2.72,14.27,4.78,5,12,7.74,17.37,11,3.79.42,5.38-1.59,6.91-3.36,2.92-3.37,5.53-7,8.42-10.4,5.15-6.07,11-6,16.13.07,3.09,3.67,6,7.51,9.14,11.14,1.87,2.17,3.86,3.09,7.18,1.91,17.33-6.2,19.38-10.47,12.47-27.58-.39-1-.78-1.91-1.14-2.87-2.42-6.58.49-10.65,6.6-12.37,4.59-1.29,9.51-1.36,14.17-2.45,2.43-.57,5.29-.55,6.61-3.91C513.18,416.25,507.08,405.55,493,403.6Zm-48.22,36.74c-11.33-.08-21.12-9.76-21.16-20.91,0-11.69,10.07-21.39,21.94-21.05,11.29.32,20.88,10.22,20.68,21.33S456,440.42,444.73,440.34Z"/><path class="cls-16" d="M366.93,368.35c-5.85-8.08-1.78-17.54,8.12-19.4,24.33-4.58,22.54,1.81,22.54-26.12,0-16.92,0-16.91-17.22-19.26-6.38-.87-12.15-1.35-15.32-9.25s1.56-11.44,5.12-16.08c9.48-12.38,9.55-12.33-.57-24-16-18.52-16-18.52-35.81-4.38-7.9,5.65-17.06,2.24-18.88-7.12a105.92,105.92,0,0,1-1.84-12.2c-.59-7.81-3.89-12.18-12.4-11.15a69.08,69.08,0,0,1-8.23,0c-21.62,0-22.25-.05-24,21.33-.69,8.27-5.36,10.22-11.24,12.17s-8.48-3.47-12-6.13c-13.91-10.52-14.62-10.62-27,2-1.2,1.23-2.42,2.44-3.61,3.67-12.24,12.69-12.35,12.78-1.28,26.53,4.51,5.6,7.77,10.44,3.35,18.16-3.68,6.44-9.53,4.75-14.39,5.73-16.69,3.37-16.76,3.06-16.76,19.75,0,21.38,0,21.38,20.86,25.41,12.79,2.47,16.17,12.22,8.09,22.8-3.28,4.3-7.61,8-9.29,14.21a74.32,74.32,0,0,0,23.68,26c6.51,4.44,10.16-3.2,14.89-5.82,2.38-1.32,4.36-3.33,6.64-4.85a11.47,11.47,0,0,1,17.66,7.48c.88,4.72,1.63,9.47,2.13,14.24.69,6.5,3.57,10.13,10.63,9.47,3.06-.29,6.17,0,9.26,0,24.46-.13,21.18,2.69,24.55-21.81,1.21-8.81,6.3-10.84,12.55-11.94,4.68-.82,7.58,4.09,11,6.71,13.43,10.25,14.33,10.28,26.08-1.85C380,386.38,380,386.38,366.93,368.35Zm-75.21-.65c-24.15.12-42.81-18.88-42.5-43.28.29-22.86,19.49-41.43,42.61-41.19a42.23,42.23,0,0,1-.11,84.47Z"/><path class="cls-16" d="M391.75,256.35c1,.13,2.06.13,3.07.29,9,1.42,11.85,6.54,8.48,15.22-1.86,4.78-3.61,9.6-4.89,13-.62,3.27,0,4.62,1.28,6,10.36,11.19,20.45,11,29.59-.62.85-1.08,1.66-2.18,2.57-3.2,5.48-6.16,10.93-6,16.22.21,3.1,3.66,6,7.47,9.13,11.1,1.88,2.19,3.78,3,7.11,1.74,17.78-6.75,19.47-10.17,12.46-27.56-.26-.63-.54-1.26-.78-1.9-2.64-7.23.45-12.56,8.15-13.93,4.38-.78,8.78-1.42,13.17-2.09,2.89-.44,4.95-1.49,5.85-4.75,4.24-15.35-.41-22.61-16.13-24.73-1-.14-2.05-.21-3.05-.42-7.72-1.63-10.64-6.82-7.91-14.09,1.08-2.88,2.14-5.79,3.48-8.56C483,195,481.94,189.8,474,186.83a31.37,31.37,0,0,1-7.16-4c-4.53-3.25-8-2.41-11.14,2a96.37,96.37,0,0,1-8.42,10.35c-4.83,5.09-10.06,5.12-14.83-.09-3.24-3.52-6-7.51-9.12-11.12-1.52-1.74-3.44-4.48-5.88-3.24C411,184,404.08,187,399.1,191.83c-3.59,3.51.85,9,2.43,13.27,5.73,15.63,4.33,17.94-12.1,20.46-4.41.68-10.15-.35-12.51,5.07C371.24,243.67,377.65,254.58,391.75,256.35ZM440,219.64c11.15.12,21.11,10,21.17,21.07.06,11.56-10.32,21.49-22,21-11.5-.43-20.89-10.18-20.62-21.39S428.89,219.52,440,219.64Z"/><path class="cls-16" d="M488,394.6c-1.7-.23-3.51,0-5.11-.54-6.41-2-9.61-6-7.13-13,1.72-4.84,3.51-9.66,5.3-14.47.87-2.36,1.15-4.32-.93-6.52-10.48-11.1-20.27-10.92-29.73.78-.65.8-1.26,1.63-1.93,2.41-5.5,6.39-11.58,6.5-17,.21-2.67-3.13-5.08-6.49-7.78-9.59-1.54-1.77-3.47-4.58-5.82-3.46-6.46,3.07-13.4,6-18.55,10.69-4,3.62.58,9,2.12,13.22,5.72,15.87,4.67,17.62-11.69,20.67-4.42.82-10.16-.34-12.77,5-5.67,11.58.93,23.86,13.54,25.57,15,2,16.67,5.09,11.33,19.48-1.72,4.63-6.43,10.37-2.72,14.27,4.78,5,12,7.74,17.37,11,3.79.42,5.38-1.59,6.91-3.36,2.92-3.37,5.53-7,8.42-10.4,5.15-6.07,11-6,16.13.07,3.09,3.67,6,7.51,9.14,11.14,1.87,2.17,3.86,3.09,7.18,1.91,17.33-6.2,19.38-10.47,12.47-27.58-.39-1-.78-1.91-1.14-2.87-2.42-6.58.49-10.65,6.6-12.37,4.59-1.29,9.51-1.36,14.17-2.45,2.43-.57,5.29-.55,6.61-3.91C508.18,407.25,502.08,396.55,488,394.6Zm-48.22,36.74c-11.33-.08-21.12-9.76-21.16-20.91,0-11.69,10.07-21.39,21.94-21.05,11.29.32,20.88,10.22,20.68,21.33S451,431.42,439.73,431.34Z"/></svg>