<svg id="Layer_1" data-name="Layer 1" xmlns="http://www.w3.org/2000/svg" xmlns:xlink="http://www.w3.org/1999/xlink" viewBox="0 0 735 852"><defs><style>.cls-1,.cls-3{fill:#164f86;}.cls-2{clip-path:url(#clip-path);}.cls-3{opacity:0.25;}.cls-4{fill:#e6b35a;}.cls-5{font-size:160px;letter-spacing:-0.04em;}.cls-5,.cls-8{fill:#fff;font-family:MyriadPro-Regular, Myriad Pro;}.cls-6{letter-spacing:-0.03em;}.cls-7{fill:#0d3d6c;}.cls-8{font-size:25px;}.cls-9{letter-spacing:0.01em;}.cls-10{letter-spacing:-0.04em;}.cls-11{letter-spacing:-0.02em;}.cls-12{letter-spacing:-0.01em;}.cls-13{letter-spacing:0em;}.cls-14{fill:#fefefe;}</style><clipPath id="clip-path"><polygon class="cls-1" points="369.51 7.4 728.21 214.47 728.21 636.62 369.51 845.03 2.79 636.62 2.79 214.47 369.51 7.4"/></clipPath></defs><title> </title><polygon class="cls-1" points="369.51 7.4 728.21 214.47 728.21 636.62 369.51 845.03 2.79 636.62 2.79 214.47 369.51 7.4"/><g class="cls-2"><circle class="cls-1" cx="365.5" cy="437.45" r="442.13"/><ellipse class="cls-3" cx="366.89" cy="105.8" rx="315.24" ry="234.63"/></g><path class="cls-4" d="M367,633.9c.29-.29.6-.59.93-.89h-.26Z"/><text class="cls-5" transform="translate(78.7 594.87)">r<tspan class="cls-6" x="45.6" y="0">eshape2</tspan></text><path class="cls-7" d="M705.61,196.21,427.81,35.82,367.5,1,307.19,35.82,29.37,196.22.09,213.13V637.38l29.28,16.91,281.28,162.4,56.85,32.82,56.85-32.82L705.61,654.3l29.3-16.92V213.13Zm0,425.26L367.49,816.68,29.37,621.47V231L367.49,35.82h0L705.61,231Z"/><text class="cls-8" transform="matrix(0.86, -0.5, 0.5, 0.86, 369.28, 809.1)"><tspan class="cls-9">ww</tspan><tspan class="cls-10" x="37.4" y="0">w</tspan><tspan x="54.82" y="0">.rstudi</tspan><tspan class="cls-11" x="120.07" y="0">o</tspan><tspan x="133.2" y="0">.</tspan><tspan class="cls-12" x="138.37" y="0">c</tspan><tspan class="cls-13" x="149.42" y="0">om</tspan></text><path class="cls-7" d="M242.32,405.66c0-11.76.1-23.51,0-35.27-.1-8.85,4.3-13.36,12.92-13.41,24.22-.14,48.45-.07,72.67,0,5.26,0,10.13,1.25,12.31,6.65,2.33,5.76-.23,10.27-4.39,14.28-5.14,4.93-9.73,10.51-15.23,15-6.67,5.4-4.38,8.49,1.29,12.64,45,33,109.16,17.05,131.46-33.87,5.23-11.94,11.53-16.55,23.78-14.78,3.84.55,7.82.07,11.74.09,13.09.08,15.25,2.41,11.11,15.31C476.1,446.4,400,487.28,323.22,456.34c-12.56-5.06-24.5-11.72-34.55-20.95-4.61-4.23-7.43-3.66-11.23.65-4.47,5.06-9.5,9.63-14.28,14.43-4,4.06-8.54,6.46-14.35,3.84-5.36-2.41-6.55-7-6.52-12.32C242.37,429.88,242.32,417.77,242.32,405.66Z"/><path class="cls-7" d="M506.2,263.89c0,11.39-.18,22.79.07,34.18.21,9.77-4.08,14.56-14,14.52-23.5-.09-47,0-70.5,0-5.59,0-10.69-.88-13.39-6.69-2.83-6.1.63-10.16,4.5-14.07,5.77-5.81,11.44-11.73,17.42-17.32,3.59-3.36,3-5.7-.57-8.5-40.68-32-105.26-24.21-130.59,25-9.05,17.59-18.22,24.9-36.78,21.65-3.11-.54-6.4-.13-9.6-.13-5.56,0-8-3-6.8-8.2,1.38-6.22,2.6-12.66,5.19-18.42,40.73-90.78,140-105.11,206.34-53.44,7.06,5.5,10.8,5.41,16-1.24,3.71-4.72,8.42-8.68,12.79-12.87,3.85-3.69,8.12-5.45,13.55-3.15,5.21,2.2,6.23,6.5,6.27,11.29C506.26,239,506.18,251.43,506.2,263.89Z"/><path class="cls-14" d="M237.32,396.66c0-11.76.1-23.51,0-35.27-.1-8.85,4.3-13.36,12.92-13.41,24.22-.14,48.45-.07,72.67,0,5.26,0,10.13,1.25,12.31,6.65,2.33,5.76-.23,10.27-4.39,14.28-5.14,4.93-9.73,10.51-15.23,15-6.67,5.4-4.38,8.49,1.29,12.64,45,33,109.16,17.05,131.46-33.87,5.23-11.94,11.53-16.55,23.78-14.78,3.84.55,7.82.07,11.74.09,13.09.08,15.25,2.41,11.11,15.31C471.1,437.4,395,478.28,318.22,447.34c-12.56-5.06-24.5-11.72-34.55-20.95-4.61-4.23-7.43-3.66-11.23.65-4.47,5.06-9.5,9.63-14.28,14.43-4,4.06-8.54,6.46-14.35,3.84-5.36-2.41-6.55-7-6.52-12.32C237.37,420.88,237.32,408.77,237.32,396.66Z"/><path class="cls-14" d="M501.2,254.89c0,11.39-.18,22.79.07,34.18.21,9.77-4.08,14.56-14,14.52-23.5-.09-47,0-70.5,0-5.59,0-10.69-.88-13.39-6.69-2.83-6.1.63-10.16,4.5-14.07,5.77-5.81,11.44-11.73,17.42-17.32,3.59-3.36,3-5.7-.57-8.5-40.68-32-105.26-24.21-130.59,25-9.05,17.59-18.22,24.9-36.78,21.65-3.11-.54-6.4-.13-9.6-.13-5.56,0-8-3-6.8-8.2,1.38-6.22,2.6-12.66,5.19-18.42,40.73-90.78,140-105.11,206.34-53.44,7.06,5.5,10.8,5.41,16-1.24,3.71-4.72,8.42-8.68,12.79-12.87,3.85-3.69,8.12-5.45,13.55-3.15,5.21,2.2,6.23,6.5,6.27,11.29C501.26,230,501.18,242.43,501.2,254.89Z"/></svg>